<?xml version="1.0" encoding="UTF-8" standalone="no"?>
<!-- Created with Inkscape (http://www.inkscape.org/) -->

<svg
   xmlns:dc="http://purl.org/dc/elements/1.1/"
   xmlns:cc="http://creativecommons.org/ns#"
   xmlns:rdf="http://www.w3.org/1999/02/22-rdf-syntax-ns#"
   xmlns:svg="http://www.w3.org/2000/svg"
   xmlns="http://www.w3.org/2000/svg"
   xmlns:sodipodi="http://sodipodi.sourceforge.net/DTD/sodipodi-0.dtd"
   xmlns:inkscape="http://www.inkscape.org/namespaces/inkscape"
   width="1000"
   height="1000"
   viewBox="0 0 1000 1000"
   version="1.1"
   id="svg31085"
   inkscape:version="0.92.4 (5da689c313, 2019-01-14)"
   sodipodi:docname="Aquele - Aquela - Aquilo.svg">
  <defs
     id="defs31079" />
  <sodipodi:namedview
     id="base"
     pagecolor="#ffffff"
     bordercolor="#666666"
     borderopacity="1.0"
     inkscape:pageopacity="0.0"
     inkscape:pageshadow="2"
     inkscape:zoom="181.01933"
     inkscape:cx="973.35755"
     inkscape:cy="998.876"
     inkscape:document-units="px"
     inkscape:current-layer="layer1"
     showgrid="false"
     units="px"
     inkscape:window-width="1366"
     inkscape:window-height="715"
     inkscape:window-x="-8"
     inkscape:window-y="-8"
     inkscape:window-maximized="1" />
  <metadata
     id="metadata31082">
    <rdf:RDF>
      <cc:Work
         rdf:about="">
        <dc:format>image/svg+xml</dc:format>
        <dc:type
           rdf:resource="http://purl.org/dc/dcmitype/StillImage" />
        <dc:title></dc:title>
      </cc:Work>
    </rdf:RDF>
  </metadata>
  <g
     inkscape:label="Camada 1"
     inkscape:groupmode="layer"
     id="layer1"
     transform="translate(0,-32.416659)">
    <path
       style="color:#000000;font-style:normal;font-variant:normal;font-weight:normal;font-stretch:normal;font-size:medium;line-height:normal;font-family:sans-serif;font-variant-ligatures:normal;font-variant-position:normal;font-variant-caps:normal;font-variant-numeric:normal;font-variant-alternates:normal;font-feature-settings:normal;text-indent:0;text-align:start;text-decoration:none;text-decoration-line:none;text-decoration-style:solid;text-decoration-color:#000000;letter-spacing:normal;word-spacing:normal;text-transform:none;writing-mode:lr-tb;direction:ltr;text-orientation:mixed;dominant-baseline:auto;baseline-shift:baseline;text-anchor:start;white-space:normal;shape-padding:0;clip-rule:nonzero;display:inline;overflow:visible;visibility:visible;opacity:1;isolation:auto;mix-blend-mode:normal;color-interpolation:sRGB;color-interpolation-filters:linearRGB;solid-color:#000000;solid-opacity:1;vector-effect:none;fill:#000000;fill-opacity:1;fill-rule:nonzero;stroke:none;stroke-width:19.3620739;stroke-linecap:butt;stroke-linejoin:miter;stroke-miterlimit:4;stroke-dasharray:none;stroke-dashoffset:0;stroke-opacity:1;color-rendering:auto;image-rendering:auto;shape-rendering:auto;text-rendering:auto;enable-background:accumulate"
       d="m 29.283203,315.90039 -1.138672,0.12695 -1.078125,0.38868 c 0,0 -9.806247,3.31086 -17.7167966,11.86718 -7.9105496,8.55633 -13.0448503,24.78039 -3.8554688,42.18164 l 0.2382813,0.45313 0.2851562,0.42383 c 0,0 7.5612619,11.26401 18.1699219,24.30468 10.321994,12.6883 23.190853,27.12595 36.947266,35.59766 l 85.955074,81.41211 0.18164,0.15625 c 0,0 31.64564,27.16023 58.50586,55.93164 0.0255,0.0324 3.85341,4.97498 4.99414,7.87891 -0.82327,0.2432 -1.89627,0.55439 -4.19921,0.66406 l -0.58985,0.0273 -0.58203,0.0996 c 0,0 -38.1296,6.61383 -86.71289,35.09375 l -0.21875,0.12696 -0.21289,0.14062 c 0,0 -15.65607,9.84513 -24.302735,26.99024 -4.32333,8.57255 -6.855692,19.58168 -3.802734,31.26171 2.338825,8.9479 7.834749,17.84196 16.832029,26.42579 -4.50942,4.31642 -9.747534,10.11857 -13.882811,17.47265 -4.479694,7.96659 -7.715932,18.02625 -6.177734,29.11328 1.254943,9.04539 5.936019,18.25129 14.050785,26.95899 -2.224642,4.42711 -4.553918,10.50852 -5.205082,17.77148 -1.346695,15.02079 5.836642,34.85346 30.517582,50.23438 l 0.1914,0.11914 0.19727,0.11133 c 0,0 60.20089,34.19664 127.57422,27.53906 1.90699,0.87382 3.79301,1.3485 5.59961,1.65039 3.34715,4.08903 15.44519,18.80799 31.5625,36.85937 9.25743,10.36833 19.22783,21.10816 28.44336,30.10352 8.45544,8.25344 15.75805,14.83439 23.01562,18.93945 1.73392,2.15125 15.79695,19.44891 38.22852,37.74418 23.85597,19.457 56.32121,39.54 91.90625,38.4394 l -0.59961,-19.3535 c -27.6546,0.8553 -56.96152,-16.0595 -79.06836,-34.08984 -22.10684,-18.03039 -36.59571,-36.25 -36.59571,-36.25 l -1.33398,-1.67969 -1.91797,-0.95899 c -3.17313,-1.58656 -11.41651,-8.1613 -20.10937,-16.64648 -8.69286,-8.48518 -18.4466,-18.97432 -27.52539,-29.14258 -18.15759,-20.33651 -33.60938,-39.3457 -33.60938,-39.3457 l -3.0918,-3.80469 -4.89648,0.24024 c -1.79287,0.088 -1.34449,0.18172 -1.91211,-0.25586 l -3.12891,-2.41211 -3.92382,0.46679 c -60.43987,7.18123 -118.44607,-24.55787 -118.97071,-24.84565 -20.08795,-12.59116 -22.0368,-23.35377 -21.26758,-31.93359 0.77217,-8.61256 5.64454,-14.92774 5.64454,-14.92774 l 5.85937,-7.28906 -7.08203,-6.10742 c -9.36941,-8.08203 -12.56005,-14.92289 -13.375,-20.79688 -0.81495,-5.87398 0.81842,-11.52171 3.87695,-16.96093 6.11707,-10.87845 17.43946,-18.96094 17.43946,-18.96094 l 11.19336,-7.65039 -10.8711,-8.10352 c -12.24348,-9.12696 -17.17156,-17.12802 -18.85547,-23.57031 -1.6839,-6.44229 -0.44805,-12.07976 2.35938,-17.64649 5.56815,-11.04085 17.35715,-19.30895 17.55469,-19.44726 45.76954,-26.76254 79.83919,-32.53142 79.86132,-32.53516 1e-5,0 0.008,-0.002 0.008,-0.002 7.75284,-0.53701 14.32781,-2.62401 18.50976,-8.06055 4.3985,-5.71805 3.76467,-12.72967 2.26758,-17.3457 -2.99419,-9.23207 -9.40625,-15.45312 -9.40625,-15.45313 l -0.0293,-0.0312 -0.0293,-0.0313 c -27.64001,-29.61421 -59.1683,-56.64766 -59.74805,-57.14453 l -0.0117,-0.0117 -87.169922,-82.56446 -0.947266,-0.55664 C 62.493649,409.64119 49.21664,395.73176 39.207221,383.42769 29.60877,371.62881 23.039389,361.92595 22.486518,361.10738 c -5.873503,-11.32636 -2.945531,-15.3274 1.080078,-19.68164 2.650486,-2.86686 5.526969,-4.52101 7.625,-5.57812 0.804445,0.26277 1.895777,0.58056 3.185547,1.38867 3.033387,1.90058 6.881308,4.85318 10.492188,7.88476 7.221759,6.06318 13.517578,12.34766 13.517578,12.34766 l 1.470703,1.46875 1.941406,0.73828 c 0.610056,0.2314 4.664946,2.38342 8.97461,5.14453 4.309663,2.76111 9.347102,6.21541 14.105468,9.56836 9.342253,6.58296 17.272894,12.52955 17.572264,12.75391 16.68309,16.42728 44.32085,34.32228 68.41602,48.82812 24.41639,14.69922 45.00976,25.57032 45.00976,25.57032 l 0.40821,0.21484 0.42578,0.17578 c 10.33299,4.2548 94.06054,40.35938 94.06054,40.35938 l 2.06446,0.89062 2.24414,-0.11133 c 30.14901,-1.48077 51.84049,11.51868 58.42383,16.89649 l 0.55273,0.45312 0.61524,0.36719 c 20.10969,11.98443 25.61181,27.54993 28.02734,34.37109 2.2999,9.92824 5.49843,16.30521 9.03125,20.42969 1.82787,2.13399 3.74341,3.64664 5.47656,4.62891 0.003,0.002 0.004,0.002 0.008,0.004 6.91751,7.89374 12.94336,25.40821 12.94336,25.40821 l -0.0566,-0.20508 c 3.42206,12.8327 13.85018,31.72933 23.72852,49.3457 9.83454,17.53827 18.94628,32.5133 19.02734,32.64649 0.0115,0.0193 0.0217,0.0354 0.0332,0.0547 5e-5,7e-5 0.0195,0.0312 0.0195,0.0312 55.95296,94.10904 105.92773,141.51562 105.92773,141.51562 l 13.31055,-14.06055 c 0,0 -47.78933,-45.14636 -102.64649,-137.43554 l -0.0254,-0.043 -0.0273,-0.043 c 0,0 -9.0521,-14.87348 -18.73242,-32.13672 -9.68033,-17.26325 -20.1146,-38.13728 -21.90821,-44.86328 l -0.0273,-0.10352 -0.0293,-0.10156 c 0,0 -5.18123,-21.2183 -18.75,-34.78711 l -2.15039,-2.15039 -1.36914,-0.24414 c -0.0541,-0.0578 0.0226,0.0245 -0.0469,-0.0566 -0.93589,-1.09263 -3.24607,-4.58716 -5.08203,-12.95117 l -0.12891,-0.58985 -0.20117,-0.56836 c -2.43212,-6.86532 -10.69487,-28.90557 -35.60156,-44.15625 -10.32382,-8.32532 -34.52351,-21.93896 -68.77344,-20.98242 -3.00074,-1.29483 -79.67413,-34.37902 -92.01367,-39.47852 -0.43015,-0.22735 -20.12862,-10.64456 -43.7793,-24.88281 -23.90978,-14.39423 -51.71155,-32.8834 -65.42188,-46.59375 l -0.48632,-0.48633 -0.55079,-0.41211 c 0,0 -8.56781,-6.42639 -18.36523,-13.33007 -4.898708,-3.45184 -10.108806,-7.02816 -14.814453,-10.04297 -3.828267,-2.45269 -7.022862,-4.34258 -10.292969,-5.85352 -1.461979,-1.44493 -6.645807,-6.52797 -13.605469,-12.37109 -4.008846,-3.36571 -8.330438,-6.75082 -12.662109,-9.46485 -4.331671,-2.71402 -7.957641,-5.75164 -15.373047,-4.92773 z"
       id="path53564"
       inkscape:connector-curvature="0" />
    <path
       style="color:#000000;font-style:normal;font-variant:normal;font-weight:normal;font-stretch:normal;font-size:medium;line-height:normal;font-family:sans-serif;font-variant-ligatures:normal;font-variant-position:normal;font-variant-caps:normal;font-variant-numeric:normal;font-variant-alternates:normal;font-feature-settings:normal;text-indent:0;text-align:start;text-decoration:none;text-decoration-line:none;text-decoration-style:solid;text-decoration-color:#000000;letter-spacing:normal;word-spacing:normal;text-transform:none;writing-mode:lr-tb;direction:ltr;text-orientation:mixed;dominant-baseline:auto;baseline-shift:baseline;text-anchor:start;white-space:normal;shape-padding:0;clip-rule:nonzero;display:inline;overflow:visible;visibility:visible;opacity:1;isolation:auto;mix-blend-mode:normal;color-interpolation:sRGB;color-interpolation-filters:linearRGB;solid-color:#000000;solid-opacity:1;vector-effect:none;fill:#000000;fill-opacity:1;fill-rule:nonzero;stroke:none;stroke-width:19.3620739;stroke-linecap:butt;stroke-linejoin:miter;stroke-miterlimit:4;stroke-dasharray:none;stroke-dashoffset:0;stroke-opacity:1;color-rendering:auto;image-rendering:auto;shape-rendering:auto;text-rendering:auto;enable-background:accumulate"
       d="m 197.77539,814.6582 -3.26172,3.5625 c 0,0 -7.37397,8.4925 -23.17383,8.75586 l 0.32227,19.35938 c 15.94843,-0.26584 27.00395,-7.04532 32.68164,-11.4043 3.95938,0.52242 11.9044,1.7185 21.37891,4.96484 6.14735,2.10633 12.03009,4.98446 15.76953,8.08204 3.73944,3.09757 5.19856,5.61451 5.26172,9.08789 l 19.35937,-0.35352 c -0.18133,-9.97318 -5.69209,-18.19609 -12.26953,-23.64453 -6.57744,-5.44844 -14.35946,-8.9232 -21.8457,-11.48828 -14.97248,-5.13017 -29.41407,-6.45899 -29.41407,-6.45899 z"
       id="path53566"
       inkscape:connector-curvature="0" />
    <path
       style="color:#000000;font-style:normal;font-variant:normal;font-weight:normal;font-stretch:normal;font-size:medium;line-height:normal;font-family:sans-serif;font-variant-ligatures:normal;font-variant-position:normal;font-variant-caps:normal;font-variant-numeric:normal;font-variant-alternates:normal;font-feature-settings:normal;text-indent:0;text-align:start;text-decoration:none;text-decoration-line:none;text-decoration-style:solid;text-decoration-color:#000000;letter-spacing:normal;word-spacing:normal;text-transform:none;writing-mode:lr-tb;direction:ltr;text-orientation:mixed;dominant-baseline:auto;baseline-shift:baseline;text-anchor:start;white-space:normal;shape-padding:0;clip-rule:nonzero;display:inline;overflow:visible;visibility:visible;opacity:1;isolation:auto;mix-blend-mode:normal;color-interpolation:sRGB;color-interpolation-filters:linearRGB;solid-color:#000000;solid-opacity:1;vector-effect:none;fill:#000000;fill-opacity:1;fill-rule:nonzero;stroke:none;stroke-width:19.3620739;stroke-linecap:butt;stroke-linejoin:miter;stroke-miterlimit:4;stroke-dasharray:none;stroke-dashoffset:0;stroke-opacity:1;color-rendering:auto;image-rendering:auto;shape-rendering:auto;text-rendering:auto;enable-background:accumulate"
       d="m 221.57812,831.64453 c -0.28357,0.20622 -1.13888,2.21734 -2.52929,3.72461 -1.85389,2.00969 -3.68945,3.48047 -3.68945,3.48047 l 12.0332,15.16992 c 0,0 2.89172,-2.27673 5.88672,-5.52344 2.995,-3.24671 7.06299,-7.10442 7.6875,-14.80664 L 221.66797,832.125 c 0.0339,-0.41791 0.005,-0.54921 -0.0898,-0.48047 z"
       id="path53568"
       inkscape:connector-curvature="0" />
    <path
       style="color:#000000;font-style:normal;font-variant:normal;font-weight:normal;font-stretch:normal;font-size:medium;line-height:normal;font-family:sans-serif;font-variant-ligatures:normal;font-variant-position:normal;font-variant-caps:normal;font-variant-numeric:normal;font-variant-alternates:normal;font-feature-settings:normal;text-indent:0;text-align:start;text-decoration:none;text-decoration-line:none;text-decoration-style:solid;text-decoration-color:#000000;letter-spacing:normal;word-spacing:normal;text-transform:none;writing-mode:lr-tb;direction:ltr;text-orientation:mixed;dominant-baseline:auto;baseline-shift:baseline;text-anchor:start;white-space:normal;shape-padding:0;clip-rule:nonzero;display:inline;overflow:visible;visibility:visible;opacity:1;isolation:auto;mix-blend-mode:normal;color-interpolation:sRGB;color-interpolation-filters:linearRGB;solid-color:#000000;solid-opacity:1;vector-effect:none;fill:#000000;fill-opacity:1;fill-rule:nonzero;stroke:none;stroke-width:19.3620739;stroke-linecap:butt;stroke-linejoin:miter;stroke-miterlimit:4;stroke-dasharray:none;stroke-dashoffset:0;stroke-opacity:1;color-rendering:auto;image-rendering:auto;shape-rendering:auto;text-rendering:auto;enable-background:accumulate"
       d="m 182.40625,807.96484 c -0.86336,8.46073 3.46627,14.27119 6.75195,18.14453 3.28568,3.87335 6.6875,6.39258 6.6875,6.39258 l 11.61719,-15.48828 c 0,0 -1.81282,-1.39275 -3.53906,-3.42773 -1.72624,-2.03499 -2.20552,-4.13048 -2.25391,-3.65625 z"
       id="path53572"
       inkscape:connector-curvature="0" />
    <path
       style="color:#000000;font-style:normal;font-variant:normal;font-weight:normal;font-stretch:normal;font-size:medium;line-height:normal;font-family:sans-serif;font-variant-ligatures:normal;font-variant-position:normal;font-variant-caps:normal;font-variant-numeric:normal;font-variant-alternates:normal;font-feature-settings:normal;text-indent:0;text-align:start;text-decoration:none;text-decoration-line:none;text-decoration-style:solid;text-decoration-color:#000000;letter-spacing:normal;word-spacing:normal;text-transform:none;writing-mode:lr-tb;direction:ltr;text-orientation:mixed;dominant-baseline:auto;baseline-shift:baseline;text-anchor:start;white-space:normal;shape-padding:0;clip-rule:nonzero;display:inline;overflow:visible;visibility:visible;opacity:1;isolation:auto;mix-blend-mode:normal;color-interpolation:sRGB;color-interpolation-filters:linearRGB;solid-color:#000000;solid-opacity:1;vector-effect:none;fill:#000000;fill-opacity:1;fill-rule:nonzero;stroke:none;stroke-width:19.3620739;stroke-linecap:butt;stroke-linejoin:miter;stroke-miterlimit:4;stroke-dasharray:none;stroke-dashoffset:0;stroke-opacity:1;color-rendering:auto;image-rendering:auto;shape-rendering:auto;text-rendering:auto;enable-background:accumulate"
       d="m 206.12695,697.7832 c -4.18811,5.63784 -14.49685,12.72803 -23.61523,17.5586 -9.11838,4.83056 -16.77149,7.74609 -16.77149,7.74609 l 0.0801,-0.0293 c -32.29839,11.95283 -59.48635,39.57227 -59.48635,39.57227 l 13.63477,13.74805 c 0,0 26.3233,-25.44802 52.57227,-35.16211 l 0.041,-0.0156 0.0391,-0.0156 c 0,0 8.71138,-3.30766 18.95508,-8.73438 10.2437,-5.42672 22.29584,-12.62586 30.09375,-23.12305 z"
       id="path53576"
       inkscape:connector-curvature="0" />
    <path
       style="color:#000000;font-style:normal;font-variant:normal;font-weight:normal;font-stretch:normal;font-size:medium;line-height:normal;font-family:sans-serif;font-variant-ligatures:normal;font-variant-position:normal;font-variant-caps:normal;font-variant-numeric:normal;font-variant-alternates:normal;font-feature-settings:normal;text-indent:0;text-align:start;text-decoration:none;text-decoration-line:none;text-decoration-style:solid;text-decoration-color:#000000;letter-spacing:normal;word-spacing:normal;text-transform:none;writing-mode:lr-tb;direction:ltr;text-orientation:mixed;dominant-baseline:auto;baseline-shift:baseline;text-anchor:start;white-space:normal;shape-padding:0;clip-rule:nonzero;display:inline;overflow:visible;visibility:visible;opacity:1;isolation:auto;mix-blend-mode:normal;color-interpolation:sRGB;color-interpolation-filters:linearRGB;solid-color:#000000;solid-opacity:1;vector-effect:none;fill:#000000;fill-opacity:1;fill-rule:nonzero;stroke:none;stroke-width:19.3620739;stroke-linecap:butt;stroke-linejoin:miter;stroke-miterlimit:4;stroke-dasharray:none;stroke-dashoffset:0;stroke-opacity:1;color-rendering:auto;image-rendering:auto;shape-rendering:auto;text-rendering:auto;enable-background:accumulate"
       d="m 213.38477,633.67578 c -10.61322,10.99913 -24.50586,15.16211 -24.50586,15.16211 l -0.58399,0.16797 -0.55859,0.23828 c -48.49698,20.71717 -72.09961,40.88281 -72.09961,40.88281 l 12.63281,14.67188 c 0,0 20.54732,-17.83886 66.8457,-37.64844 2.40281,-0.71785 18.55,-5.87972 32.20313,-20.0293 z"
       id="path53578"
       inkscape:connector-curvature="0" />
    <path
       style="color:#000000;font-style:normal;font-variant:normal;font-weight:normal;font-stretch:normal;font-size:medium;line-height:normal;font-family:sans-serif;font-variant-ligatures:normal;font-variant-position:normal;font-variant-caps:normal;font-variant-numeric:normal;font-variant-alternates:normal;font-feature-settings:normal;text-indent:0;text-align:start;text-decoration:none;text-decoration-line:none;text-decoration-style:solid;text-decoration-color:#000000;letter-spacing:normal;word-spacing:normal;text-transform:none;writing-mode:lr-tb;direction:ltr;text-orientation:mixed;dominant-baseline:auto;baseline-shift:baseline;text-anchor:start;white-space:normal;shape-padding:0;clip-rule:nonzero;display:inline;overflow:visible;visibility:visible;opacity:1;isolation:auto;mix-blend-mode:normal;color-interpolation:sRGB;color-interpolation-filters:linearRGB;solid-color:#000000;solid-opacity:1;vector-effect:none;fill:#000000;fill-opacity:1;fill-rule:nonzero;stroke:none;stroke-width:19.3620739;stroke-linecap:butt;stroke-linejoin:miter;stroke-miterlimit:4;stroke-dasharray:none;stroke-dashoffset:0;stroke-opacity:1;color-rendering:auto;image-rendering:auto;shape-rendering:auto;text-rendering:auto;enable-background:accumulate"
       d="m 29.238281,320.17773 c -6.389018,5.95094 -10.013589,13.18465 -10.080078,20.22461 -0.06649,7.03997 3.056305,12.78458 6.408203,16.95118 6.703796,8.33319 15.558594,12.49414 15.558594,12.49414 l 8.761719,4.45312 4.320312,-8.82812 c 0,0 1.703668,-3.45723 3.910157,-6.98047 1.103244,-1.76162 2.334013,-3.50199 3.251953,-4.56641 0.917939,-1.06441 1.929387,-1.10148 -0.257813,-0.41797 l -5.77539,-18.48047 c -4.795016,1.49848 -6.67417,3.98725 -8.628907,6.25391 -1.639641,1.90128 -2.94312,3.88255 -4.193359,5.81641 -0.649917,-0.61647 -1.329041,-1.22163 -1.859375,-1.88086 -1.587957,-1.97392 -2.145039,-3.54504 -2.134766,-4.63282 0.01027,-1.08777 0.218672,-2.79432 3.914063,-6.23632 z"
       id="path53582"
       inkscape:connector-curvature="0" />
    <path
       style="color:#000000;font-style:normal;font-variant:normal;font-weight:normal;font-stretch:normal;font-size:medium;line-height:normal;font-family:sans-serif;font-variant-ligatures:normal;font-variant-position:normal;font-variant-caps:normal;font-variant-numeric:normal;font-variant-alternates:normal;font-feature-settings:normal;text-indent:0;text-align:start;text-decoration:none;text-decoration-line:none;text-decoration-style:solid;text-decoration-color:#000000;letter-spacing:normal;word-spacing:normal;text-transform:none;writing-mode:lr-tb;direction:ltr;text-orientation:mixed;dominant-baseline:auto;baseline-shift:baseline;text-anchor:start;white-space:normal;shape-padding:0;clip-rule:nonzero;display:inline;overflow:visible;visibility:visible;opacity:1;isolation:auto;mix-blend-mode:normal;color-interpolation:sRGB;color-interpolation-filters:linearRGB;solid-color:#000000;solid-opacity:1;vector-effect:none;fill:#000000;fill-opacity:1;fill-rule:nonzero;stroke:none;stroke-width:19.3620739;stroke-linecap:butt;stroke-linejoin:miter;stroke-miterlimit:4;stroke-dasharray:none;stroke-dashoffset:0;stroke-opacity:1;color-rendering:auto;image-rendering:auto;shape-rendering:auto;text-rendering:auto;enable-background:accumulate"
       d="m 299.94531,668.79883 -13.05664,14.29883 c 11.87481,10.8422 12.4937,25.22389 9.89649,38.78711 -2.59722,13.56321 -8.54883,24.29882 -8.54883,24.29882 l 16.88086,9.48047 c 0,0 7.4132,-13.06002 10.68359,-30.13867 3.27039,-17.07865 2.25964,-40.1867 -15.85547,-56.72656 z"
       id="path53584"
       inkscape:connector-curvature="0" />
    <path
       style="color:#000000;font-style:normal;font-variant:normal;font-weight:normal;font-stretch:normal;font-size:medium;line-height:normal;font-family:sans-serif;font-variant-ligatures:normal;font-variant-position:normal;font-variant-caps:normal;font-variant-numeric:normal;font-variant-alternates:normal;font-feature-settings:normal;text-indent:0;text-align:start;text-decoration:none;text-decoration-line:none;text-decoration-style:solid;text-decoration-color:#000000;letter-spacing:normal;word-spacing:normal;text-transform:none;writing-mode:lr-tb;direction:ltr;text-orientation:mixed;dominant-baseline:auto;baseline-shift:baseline;text-anchor:start;white-space:normal;shape-padding:0;clip-rule:nonzero;display:inline;overflow:visible;visibility:visible;opacity:1;isolation:auto;mix-blend-mode:normal;color-interpolation:sRGB;color-interpolation-filters:linearRGB;solid-color:#000000;solid-opacity:1;vector-effect:none;fill:#000000;fill-opacity:1;fill-rule:nonzero;stroke:none;stroke-width:19.3620739;stroke-linecap:butt;stroke-linejoin:miter;stroke-miterlimit:4;stroke-dasharray:none;stroke-dashoffset:0;stroke-opacity:1;color-rendering:auto;image-rendering:auto;shape-rendering:auto;text-rendering:auto;enable-background:accumulate"
       d="m 342.32227,597.73633 -13.05665,14.29883 c 6.0406,5.51533 8.00323,10.30898 8.54102,15.0664 0.5378,4.75743 -0.64962,9.84472 -2.84766,14.70703 -4.39606,9.72464 -12.27148,17.26758 -12.27148,17.26758 l 13.17383,14.1875 c 0,0 10.37904,-9.40874 16.74023,-23.48047 3.1806,-7.03586 5.49666,-15.55705 4.44532,-24.85742 -1.05135,-9.30037 -5.77025,-19.01371 -14.72461,-27.18945 z"
       id="path53586"
       inkscape:connector-curvature="0" />
    <path
       style="color:#000000;font-style:normal;font-variant:normal;font-weight:normal;font-stretch:normal;font-size:medium;line-height:normal;font-family:sans-serif;font-variant-ligatures:normal;font-variant-position:normal;font-variant-caps:normal;font-variant-numeric:normal;font-variant-alternates:normal;font-feature-settings:normal;text-indent:0;text-align:start;text-decoration:none;text-decoration-line:none;text-decoration-style:solid;text-decoration-color:#000000;letter-spacing:normal;word-spacing:normal;text-transform:none;writing-mode:lr-tb;direction:ltr;text-orientation:mixed;dominant-baseline:auto;baseline-shift:baseline;text-anchor:start;white-space:normal;shape-padding:0;clip-rule:nonzero;display:inline;overflow:visible;visibility:visible;opacity:1;isolation:auto;mix-blend-mode:normal;color-interpolation:sRGB;color-interpolation-filters:linearRGB;solid-color:#000000;solid-opacity:1;vector-effect:none;fill:#000000;fill-opacity:1;fill-rule:nonzero;stroke:none;stroke-width:19.3620739;stroke-linecap:butt;stroke-linejoin:miter;stroke-miterlimit:4;stroke-dasharray:none;stroke-dashoffset:0;stroke-opacity:1;color-rendering:auto;image-rendering:auto;shape-rendering:auto;text-rendering:auto;enable-background:accumulate"
       d="m 373.42188,555.31836 -12.48047,14.80273 c 9.04557,7.62667 7.89649,12.60635 5.71875,18.64649 -2.17775,6.04014 -6.78516,10.90039 -6.78516,10.90039 l 13.69141,13.69141 c 0,0 7.37804,-7.12372 11.30859,-18.0254 3.93055,-10.90167 3.01237,-27.81922 -11.45312,-40.01562 z"
       id="path53588"
       inkscape:connector-curvature="0" />
    <path
       style="color:#000000;font-style:normal;font-variant:normal;font-weight:normal;font-stretch:normal;font-size:medium;line-height:normal;font-family:sans-serif;font-variant-ligatures:normal;font-variant-position:normal;font-variant-caps:normal;font-variant-numeric:normal;font-variant-alternates:normal;font-feature-settings:normal;text-indent:0;text-align:start;text-decoration:none;text-decoration-line:none;text-decoration-style:solid;text-decoration-color:#000000;letter-spacing:normal;word-spacing:normal;text-transform:none;writing-mode:lr-tb;direction:ltr;text-orientation:mixed;dominant-baseline:auto;baseline-shift:baseline;text-anchor:start;white-space:normal;shape-padding:0;clip-rule:nonzero;display:inline;overflow:visible;visibility:visible;opacity:1;isolation:auto;mix-blend-mode:normal;color-interpolation:sRGB;color-interpolation-filters:linearRGB;solid-color:#000000;solid-opacity:1;vector-effect:none;fill:#000000;fill-opacity:1;fill-rule:nonzero;stroke:none;stroke-width:19.3620739;stroke-linecap:butt;stroke-linejoin:miter;stroke-miterlimit:4;stroke-dasharray:none;stroke-dashoffset:0;stroke-opacity:1;color-rendering:auto;image-rendering:auto;shape-rendering:auto;text-rendering:auto;enable-background:accumulate"
       d="m 402.86328,548.64062 c 0,0 -0.88842,2.2971 -2.56445,5.1836 -1.67604,2.88649 -4.25857,5.89084 -5.51758,6.67773 l 10.26172,16.41993 c 6.117,-3.82316 9.52701,-9.11598 12,-13.375 2.47299,-4.25903 3.89062,-7.95508 3.89062,-7.95508 z"
       id="path53590"
       inkscape:connector-curvature="0" />
    <path
       style="color:#000000;font-style:normal;font-variant:normal;font-weight:normal;font-stretch:normal;font-size:medium;line-height:normal;font-family:sans-serif;font-variant-ligatures:normal;font-variant-position:normal;font-variant-caps:normal;font-variant-numeric:normal;font-variant-alternates:normal;font-feature-settings:normal;text-indent:0;text-align:start;text-decoration:none;text-decoration-line:none;text-decoration-style:solid;text-decoration-color:#000000;letter-spacing:normal;word-spacing:normal;text-transform:none;writing-mode:lr-tb;direction:ltr;text-orientation:mixed;dominant-baseline:auto;baseline-shift:baseline;text-anchor:start;white-space:normal;shape-padding:0;clip-rule:nonzero;display:inline;overflow:visible;visibility:visible;opacity:1;isolation:auto;mix-blend-mode:normal;color-interpolation:sRGB;color-interpolation-filters:linearRGB;solid-color:#000000;solid-opacity:1;vector-effect:none;fill:#000000;fill-opacity:1;fill-rule:nonzero;stroke:none;stroke-width:19.3620739;stroke-linecap:butt;stroke-linejoin:miter;stroke-miterlimit:4;stroke-dasharray:none;stroke-dashoffset:0;stroke-opacity:1;color-rendering:auto;image-rendering:auto;shape-rendering:auto;text-rendering:auto;enable-background:accumulate"
       d="m 259.88672,561.05859 c -7.32879,5.05434 -21.27046,9.66688 -32.96875,12.39649 -11.69829,2.7296 -21.07617,3.89453 -21.07617,3.89453 l 2.38281,19.21484 c 0,0 10.34374,-1.27889 23.09375,-4.2539 12.75001,-2.97501 27.98262,-7.32774 39.56055,-15.3125 z"
       id="path53592"
       inkscape:connector-curvature="0" />
    <path
       style="color:#000000;font-style:normal;font-variant:normal;font-weight:normal;font-stretch:normal;font-size:medium;line-height:normal;font-family:sans-serif;font-variant-ligatures:normal;font-variant-position:normal;font-variant-caps:normal;font-variant-numeric:normal;font-variant-alternates:normal;font-feature-settings:normal;text-indent:0;text-align:start;text-decoration:none;text-decoration-line:none;text-decoration-style:solid;text-decoration-color:#000000;letter-spacing:normal;word-spacing:normal;text-transform:none;writing-mode:lr-tb;direction:ltr;text-orientation:mixed;dominant-baseline:auto;baseline-shift:baseline;text-anchor:start;white-space:normal;shape-padding:0;clip-rule:nonzero;display:inline;overflow:visible;visibility:visible;opacity:1;isolation:auto;mix-blend-mode:normal;color-interpolation:sRGB;color-interpolation-filters:linearRGB;solid-color:#000000;solid-opacity:1;vector-effect:none;fill:#000000;fill-opacity:1;fill-rule:nonzero;stroke:none;stroke-width:19.3620739;stroke-linecap:butt;stroke-linejoin:miter;stroke-miterlimit:4;stroke-dasharray:none;stroke-dashoffset:0;stroke-opacity:1;color-rendering:auto;image-rendering:auto;shape-rendering:auto;text-rendering:auto;enable-background:accumulate"
       d="m 260.85352,560.47266 c -14.75435,7.81111 -23.62795,6.82312 -29.18946,4.93164 -5.56151,-1.89149 -7.40039,-4.47266 -7.40039,-4.47266 l -15.22851,11.95703 c 0,0 5.90165,7.279 16.39453,10.84766 10.49288,3.56866 25.98707,3.6393 44.48242,-6.15235 z"
       id="path53594"
       inkscape:connector-curvature="0" />
    <path
       style="color:#000000;font-style:normal;font-variant:normal;font-weight:normal;font-stretch:normal;font-size:medium;line-height:normal;font-family:sans-serif;font-variant-ligatures:normal;font-variant-position:normal;font-variant-caps:normal;font-variant-numeric:normal;font-variant-alternates:normal;font-feature-settings:normal;text-indent:0;text-align:start;text-decoration:none;text-decoration-line:none;text-decoration-style:solid;text-decoration-color:#000000;letter-spacing:normal;word-spacing:normal;text-transform:none;writing-mode:lr-tb;direction:ltr;text-orientation:mixed;dominant-baseline:auto;baseline-shift:baseline;text-anchor:start;white-space:normal;shape-padding:0;clip-rule:nonzero;display:inline;overflow:visible;visibility:visible;opacity:1;isolation:auto;mix-blend-mode:normal;color-interpolation:sRGB;color-interpolation-filters:linearRGB;solid-color:#000000;solid-opacity:1;vector-effect:none;fill:#000000;fill-opacity:1;fill-rule:nonzero;stroke:none;stroke-width:40.98732758;stroke-linecap:butt;stroke-linejoin:miter;stroke-miterlimit:4;stroke-dasharray:none;stroke-dashoffset:0;stroke-opacity:1;color-rendering:auto;image-rendering:auto;shape-rendering:auto;text-rendering:auto;enable-background:accumulate"
       d="m 973.62109,32.61523 c -157.94971,-0.0466 -266.45431,63.36764 -328.86523,158.23829 -62.41617,94.87863 -79.833,218.76899 -66.19141,341.40234 13.6416,122.63335 58.40248,244.55195 124.48243,337.14062 66.07994,92.58868 155.04652,157.08722 256.23828,156.48442 101.14404,-0.6026 189.38274,-65.77864 255.07224,-158.67973 65.6896,-92.90109 110.3649,-214.77289 125.2012,-337.10156 14.8363,-122.32867 -0.025,-245.56354 -57.6641,-340.06641 C 1224.2612,95.53963 1122.1354,32.08107 973.62109,32.61523 Z m 0.0254,40.98633 h 0.041 0.041 c 137.16441,-0.50494 222.24041,54.26482 273.17381,137.77344 50.9334,83.50862 66.0027,198.06177 51.9668,313.79102 -14.0358,115.72924 -57.0348,232.18465 -117.9765,318.37109 -60.9417,86.18644 -138.2908,140.85964 -221.85161,141.35742 C 875.52789,985.39206 797.63749,931.37807 736.4082,845.58594 675.17891,759.79381 632.17551,643.46408 619.30078,527.72461 606.42605,411.98514 623.74037,297.37788 678.99805,213.38086 734.25572,129.38384 826.35653,73.54815 973.64648,73.60156 Z"
       id="path10-9-9"
       inkscape:connector-curvature="0" />
    <path
       style="color:#000000;font-style:normal;font-variant:normal;font-weight:normal;font-stretch:normal;font-size:medium;line-height:normal;font-family:sans-serif;font-variant-ligatures:normal;font-variant-position:normal;font-variant-caps:normal;font-variant-numeric:normal;font-variant-alternates:normal;font-feature-settings:normal;text-indent:0;text-align:start;text-decoration:none;text-decoration-line:none;text-decoration-style:solid;text-decoration-color:#000000;letter-spacing:normal;word-spacing:normal;text-transform:none;writing-mode:lr-tb;direction:ltr;text-orientation:mixed;dominant-baseline:auto;baseline-shift:baseline;text-anchor:start;white-space:normal;shape-padding:0;clip-rule:nonzero;display:inline;overflow:visible;visibility:visible;opacity:1;isolation:auto;mix-blend-mode:normal;color-interpolation:sRGB;color-interpolation-filters:linearRGB;solid-color:#000000;solid-opacity:1;vector-effect:none;fill:#000000;fill-opacity:1;fill-rule:nonzero;stroke:none;stroke-width:20.49366379;stroke-linecap:butt;stroke-linejoin:miter;stroke-miterlimit:4;stroke-dasharray:none;stroke-dashoffset:0;stroke-opacity:1;color-rendering:auto;image-rendering:auto;shape-rendering:auto;text-rendering:auto;enable-background:accumulate"
       d="m 951.69531,526.24805 c 0,0 -2.31129,22.8109 -6.13476,46.77148 -1.91174,11.98029 -4.21481,24.24924 -6.68946,33.78125 -1.23732,4.76601 -2.53262,8.8575 -3.69336,11.67969 -1.16073,2.82219 -2.66069,4.29764 -1.58398,3.40039 -2.26777,1.88977 -4.66752,3.46715 -5.92383,8.49219 -0.62815,2.51252 -0.26989,6.25542 1.33399,8.86914 1.60388,2.61371 3.68879,3.89274 5.26562,4.63476 6.30732,2.9681 9.54548,1.82897 13.83399,1.53321 8.57702,-0.59154 17.86718,-2.50391 17.86718,-2.50391 l -4.01953,-20.0957 c 0,0 -3.16138,0.55144 -6.98242,1.1289 1.35755,-3.64124 2.59517,-7.58711 3.73828,-11.99023 2.76548,-10.65225 5.12197,-23.35487 7.0918,-35.69922 3.93966,-24.6887 6.28515,-47.93945 6.28515,-47.93945 z"
       id="path971-3"
       inkscape:connector-curvature="0" />
    <path
       style="color:#000000;font-style:normal;font-variant:normal;font-weight:normal;font-stretch:normal;font-size:medium;line-height:normal;font-family:sans-serif;font-variant-ligatures:normal;font-variant-position:normal;font-variant-caps:normal;font-variant-numeric:normal;font-variant-alternates:normal;font-feature-settings:normal;text-indent:0;text-align:start;text-decoration:none;text-decoration-line:none;text-decoration-style:solid;text-decoration-color:#000000;letter-spacing:normal;word-spacing:normal;text-transform:none;writing-mode:lr-tb;direction:ltr;text-orientation:mixed;dominant-baseline:auto;baseline-shift:baseline;text-anchor:start;white-space:normal;shape-padding:0;clip-rule:nonzero;display:inline;overflow:visible;visibility:visible;opacity:1;isolation:auto;mix-blend-mode:normal;color-interpolation:sRGB;color-interpolation-filters:linearRGB;solid-color:#000000;solid-opacity:1;vector-effect:none;fill:#000000;fill-opacity:1;fill-rule:nonzero;stroke:none;stroke-width:20.51024437;stroke-linecap:butt;stroke-linejoin:miter;stroke-miterlimit:4;stroke-dasharray:none;stroke-dashoffset:0;stroke-opacity:1;color-rendering:auto;image-rendering:auto;shape-rendering:auto;text-rendering:auto;enable-background:accumulate"
       d="m 823.02905,358.75378 c -20.3602,0.19414 -36.821,8.38137 -47.4249,20.62905 -10.6323,12.28087 -15.5798,28.12858 -15.4365,43.7356 0.1426,15.60701 5.3694,31.26918 16.1317,43.17805 10.7302,11.87294 27.1987,19.47094 47.1338,18.85028 19.5518,-0.0511 35.4615,-8.35027 45.561,-20.60725 10.1311,-12.29481 14.7857,-28.04058 14.6851,-43.56643 -0.1006,-15.52579 -4.9519,-31.12394 -15.1923,-43.1154 -10.2137,-11.96024 -26.1849,-19.76926 -45.4579,-19.1039 z m 0.6108,20.48818 c 13.7533,-0.50589 22.7268,4.29577 29.2509,11.93523 6.5235,7.6395 10.2053,18.67004 10.2784,29.92746 0.072,11.25743 -3.4595,22.44614 -10.0061,30.39091 -6.5464,7.94485 -15.7485,13.15983 -29.9023,13.15983 h -0.1722 l -0.1724,0.006 c -14.7212,0.49447 -24.4869,-4.46808 -31.3994,-12.11696 -6.9125,-7.6489 -10.7403,-18.5168 -10.8422,-29.61425 -0.1011,-11.09744 3.5152,-22.13202 10.4352,-30.12474 6.9199,-7.99267 16.9484,-13.44438 32.2292,-13.55757 h 0.1507 z"
       id="path87-11-5-1"
       inkscape:connector-curvature="0" />
    <path
       style="color:#000000;font-style:normal;font-variant:normal;font-weight:normal;font-stretch:normal;font-size:medium;line-height:normal;font-family:sans-serif;font-variant-ligatures:normal;font-variant-position:normal;font-variant-caps:normal;font-variant-numeric:normal;font-variant-alternates:normal;font-feature-settings:normal;text-indent:0;text-align:start;text-decoration:none;text-decoration-line:none;text-decoration-style:solid;text-decoration-color:#000000;letter-spacing:normal;word-spacing:normal;text-transform:none;writing-mode:lr-tb;direction:ltr;text-orientation:mixed;dominant-baseline:auto;baseline-shift:baseline;text-anchor:start;white-space:normal;shape-padding:0;clip-rule:nonzero;display:inline;overflow:visible;visibility:visible;opacity:1;isolation:auto;mix-blend-mode:normal;color-interpolation:sRGB;color-interpolation-filters:linearRGB;solid-color:#000000;solid-opacity:1;vector-effect:none;fill:#000000;fill-opacity:1;fill-rule:nonzero;stroke:none;stroke-width:25.45167351;stroke-linecap:butt;stroke-linejoin:miter;stroke-miterlimit:4;stroke-dasharray:none;stroke-dashoffset:0;stroke-opacity:1;color-rendering:auto;image-rendering:auto;shape-rendering:auto;text-rendering:auto;enable-background:accumulate"
       d="m 721.02625,291.47657 -11.5969,22.65539 c 0,0 51.3315,26.28107 103.1612,52.57028 25.9149,13.14463 51.9511,26.28842 71.7934,36.16916 9.9213,4.94032 18.2841,9.06094 24.3715,11.98531 3.0438,1.46225 5.504,2.62107 7.4099,3.47629 0.9529,0.42763 1.7489,0.7726 2.5651,1.09613 0.408,0.16179 0.8046,0.31701 1.406,0.51053 0.6016,0.19347 0.5521,0.68897 4.2248,0.68897 v -25.45209 c 3.5524,0 3.2827,0.44307 3.5703,0.53553 0.2874,0.0924 0.2752,0.0966 0.1816,0.0594 -0.1867,-0.0742 -0.7626,-0.31869 -1.5254,-0.66087 -1.5246,-0.6843 -3.87,-1.78278 -6.8083,-3.1944 -5.877,-2.82326 -14.1834,-6.91602 -24.0489,-11.8288 -19.7317,-9.82549 -45.7408,-22.95429 -71.6275,-36.08449 -51.773,-26.26048 -103.0768,-52.52656 -103.0768,-52.52656 z"
       id="path1039-4"
       inkscape:connector-curvature="0" />
    <path
       style="color:#000000;font-style:normal;font-variant:normal;font-weight:normal;font-stretch:normal;font-size:medium;line-height:normal;font-family:sans-serif;font-variant-ligatures:normal;font-variant-position:normal;font-variant-caps:normal;font-variant-numeric:normal;font-variant-alternates:normal;font-feature-settings:normal;text-indent:0;text-align:start;text-decoration:none;text-decoration-line:none;text-decoration-style:solid;text-decoration-color:#000000;letter-spacing:normal;word-spacing:normal;text-transform:none;writing-mode:lr-tb;direction:ltr;text-orientation:mixed;dominant-baseline:auto;baseline-shift:baseline;text-anchor:start;white-space:normal;shape-padding:0;clip-rule:nonzero;display:inline;overflow:visible;visibility:visible;opacity:1;isolation:auto;mix-blend-mode:normal;color-interpolation:sRGB;color-interpolation-filters:linearRGB;solid-color:#000000;solid-opacity:1;vector-effect:none;fill:#000000;fill-opacity:1;fill-rule:nonzero;stroke:none;stroke-width:20.51024437;stroke-linecap:butt;stroke-linejoin:miter;stroke-miterlimit:4;stroke-dasharray:none;stroke-dashoffset:0;stroke-opacity:1;color-rendering:auto;image-rendering:auto;shape-rendering:auto;text-rendering:auto;enable-background:accumulate"
       d="m 1093.5252,363.24162 c -19.2716,-0.66439 -35.2417,7.14126 -45.455,19.10084 -10.2401,11.99138 -15.0915,27.58956 -15.1922,43.11541 -0.1007,15.52585 4.5542,31.27156 14.685,43.56634 10.0996,12.25707 26.0063,20.55619 45.558,20.60725 19.935,0.62066 36.4069,-6.97726 47.1367,-18.85028 10.7626,-11.90878 15.989,-27.57101 16.1317,-43.17804 0.143,-15.60705 -4.804,-31.45475 -15.4364,-43.73552 -10.604,-12.24779 -27.0677,-20.43193 -47.4278,-20.626 z m -0.6075,20.48509 0.1509,0.006 h 0.1511 c 15.2806,0.11311 25.3091,5.56797 32.2291,13.56065 6.9198,7.99264 10.5339,19.02409 10.4317,30.12157 -0.1005,11.09748 -3.9263,21.96536 -10.8389,29.6142 -6.9123,7.64897 -16.6812,12.61148 -31.4024,12.11696 l -0.1722,-0.006 h -0.1725 c -14.1539,0 -23.3558,-5.21498 -29.9024,-13.15975 -6.5465,-7.94484 -10.0756,-19.13353 -10.0028,-30.39095 0.072,-11.25743 3.7545,-22.28792 10.2785,-29.92744 6.5238,-7.63947 15.4974,-12.44126 29.251,-11.93524 z"
       id="path87-11-5-8-6"
       inkscape:connector-curvature="0" />
    <path
       style="color:#000000;font-style:normal;font-variant:normal;font-weight:normal;font-stretch:normal;font-size:medium;line-height:normal;font-family:sans-serif;font-variant-ligatures:normal;font-variant-position:normal;font-variant-caps:normal;font-variant-numeric:normal;font-variant-alternates:normal;font-feature-settings:normal;text-indent:0;text-align:start;text-decoration:none;text-decoration-line:none;text-decoration-style:solid;text-decoration-color:#000000;letter-spacing:normal;word-spacing:normal;text-transform:none;writing-mode:lr-tb;direction:ltr;text-orientation:mixed;dominant-baseline:auto;baseline-shift:baseline;text-anchor:start;white-space:normal;shape-padding:0;clip-rule:nonzero;display:inline;overflow:visible;visibility:visible;opacity:1;isolation:auto;mix-blend-mode:normal;color-interpolation:sRGB;color-interpolation-filters:linearRGB;solid-color:#000000;solid-opacity:1;vector-effect:none;fill:#000000;fill-opacity:1;fill-rule:nonzero;stroke:none;stroke-width:25.45167351;stroke-linecap:butt;stroke-linejoin:miter;stroke-miterlimit:4;stroke-dasharray:none;stroke-dashoffset:0;stroke-opacity:1;color-rendering:auto;image-rendering:auto;shape-rendering:auto;text-rendering:auto;enable-background:accumulate"
       d="m 1195.5277,295.96126 c 0,0 -51.3035,26.26604 -103.0769,52.5265 -25.8862,13.13025 -51.8925,26.26216 -71.624,36.08769 -9.8658,4.91275 -18.1721,9.00234 -24.04905,11.8256 -2.9385,1.41166 -5.2837,2.5101 -6.8083,3.19448 -0.7628,0.34213 -1.3384,0.58663 -1.5253,0.66077 -0.092,0.0369 -0.1055,0.033 0.1815,-0.0593 0.2876,-0.0925 0.018,-0.53555 3.5703,-0.53555 v 25.45206 c 3.6732,0 3.62,-0.49233 4.2219,-0.68585 0.6014,-0.19353 0.998,-0.34871 1.406,-0.51045 0.8161,-0.32362 1.6121,-0.67169 2.56485,-1.09926 1.9056,-0.85528 4.3659,-2.01414 7.41,-3.47634 6.0871,-2.92433 14.4503,-7.04505 24.3715,-11.98534 19.8424,-9.88064 45.8784,-23.02444 71.7931,-36.16909 51.8302,-26.28931 103.1645,-52.57027 103.1645,-52.57027 z"
       id="path1039-1-4"
       inkscape:connector-curvature="0" />
    <path
       style="color:#000000;font-style:normal;font-variant:normal;font-weight:normal;font-stretch:normal;font-size:medium;line-height:normal;font-family:sans-serif;font-variant-ligatures:normal;font-variant-position:normal;font-variant-caps:normal;font-variant-numeric:normal;font-variant-alternates:normal;font-feature-settings:normal;text-indent:0;text-align:start;text-decoration:none;text-decoration-line:none;text-decoration-style:solid;text-decoration-color:#000000;letter-spacing:normal;word-spacing:normal;text-transform:none;writing-mode:lr-tb;direction:ltr;text-orientation:mixed;dominant-baseline:auto;baseline-shift:baseline;text-anchor:start;white-space:normal;shape-padding:0;clip-rule:nonzero;display:inline;overflow:visible;visibility:visible;opacity:1;isolation:auto;mix-blend-mode:normal;color-interpolation:sRGB;color-interpolation-filters:linearRGB;solid-color:#000000;solid-opacity:1;vector-effect:none;fill:#000000;fill-opacity:1;fill-rule:nonzero;stroke:none;stroke-width:20.36367989;stroke-linecap:butt;stroke-linejoin:miter;stroke-miterlimit:4;stroke-dasharray:none;stroke-dashoffset:0;stroke-opacity:1;color-rendering:auto;image-rendering:auto;shape-rendering:auto;text-rendering:auto;enable-background:accumulate"
       d="m 827.59525,754.40847 v 20.36222 H 1077.012 v -20.36222 z"
       id="path1681-8"
       inkscape:connector-curvature="0" />
  </g>
</svg>
