<?xml version="1.0" encoding="UTF-8" standalone="no"?>
<!-- Created with Inkscape (http://www.inkscape.org/) -->

<svg
   xmlns:dc="http://purl.org/dc/elements/1.1/"
   xmlns:cc="http://creativecommons.org/ns#"
   xmlns:rdf="http://www.w3.org/1999/02/22-rdf-syntax-ns#"
   xmlns:svg="http://www.w3.org/2000/svg"
   xmlns="http://www.w3.org/2000/svg"
   xmlns:sodipodi="http://sodipodi.sourceforge.net/DTD/sodipodi-0.dtd"
   xmlns:inkscape="http://www.inkscape.org/namespaces/inkscape"
   width="1000"
   height="1000"
   viewBox="0 0 1000 1000"
   version="1.1"
   id="svg4341"
   inkscape:version="0.92.4 (5da689c313, 2019-01-14)"
   sodipodi:docname="Noroeste.svg">
  <defs
     id="defs4335" />
  <sodipodi:namedview
     id="base"
     pagecolor="#ffffff"
     bordercolor="#666666"
     borderopacity="1.0"
     inkscape:pageopacity="0.0"
     inkscape:pageshadow="2"
     inkscape:zoom="0.25"
     inkscape:cx="791.45999"
     inkscape:cy="501.15916"
     inkscape:document-units="px"
     inkscape:current-layer="layer1"
     showgrid="false"
     units="px"
     inkscape:window-width="683"
     inkscape:window-height="405"
     inkscape:window-x="-8"
     inkscape:window-y="361"
     inkscape:window-maximized="0" />
  <metadata
     id="metadata4338">
    <rdf:RDF>
      <cc:Work
         rdf:about="">
        <dc:format>image/svg+xml</dc:format>
        <dc:type
           rdf:resource="http://purl.org/dc/dcmitype/StillImage" />
        <dc:title></dc:title>
      </cc:Work>
    </rdf:RDF>
  </metadata>
  <g
     inkscape:label="Camada 1"
     inkscape:groupmode="layer"
     id="layer1"
     transform="translate(0,-32.41665)">
    <path
       style="color:#000000;font-style:normal;font-variant:normal;font-weight:normal;font-stretch:normal;font-size:medium;line-height:normal;font-family:sans-serif;font-variant-ligatures:normal;font-variant-position:normal;font-variant-caps:normal;font-variant-numeric:normal;font-variant-alternates:normal;font-feature-settings:normal;text-indent:0;text-align:start;text-decoration:none;text-decoration-line:none;text-decoration-style:solid;text-decoration-color:#000000;letter-spacing:normal;word-spacing:normal;text-transform:none;writing-mode:lr-tb;direction:ltr;text-orientation:mixed;dominant-baseline:auto;baseline-shift:baseline;text-anchor:start;white-space:normal;shape-padding:0;clip-rule:nonzero;display:inline;overflow:visible;visibility:visible;opacity:1;isolation:auto;mix-blend-mode:normal;color-interpolation:sRGB;color-interpolation-filters:linearRGB;solid-color:#000000;solid-opacity:1;vector-effect:none;fill:#000000;fill-opacity:1;fill-rule:nonzero;stroke:none;stroke-width:15.00609779;stroke-linecap:butt;stroke-linejoin:miter;stroke-miterlimit:4;stroke-dasharray:none;stroke-dashoffset:0;stroke-opacity:1;color-rendering:auto;image-rendering:auto;shape-rendering:auto;text-rendering:auto;enable-background:accumulate"
       d="m 192.97852,32.623047 c -20.10822,0.137583 -36.54443,2.702601 -51.01368,8.693359 -23.15079,9.585213 -40.01159,27.775824 -57.511715,55.707032 l -0.650391,1.039062 -0.287109,1.191406 c 0,0 -24.896986,100.608544 -7.242187,172.269534 0.08646,0.65796 3.978322,30.14151 14.005859,59.29883 5.069875,14.7418 11.609333,29.39228 20.708983,40.43359 7.50653,9.10825 17.70871,15.8247 29.38281,16.30273 4.16099,18.03888 14.82785,32.07809 28.41407,38.76563 10.39818,5.11829 22.71594,5.06566 33.53906,-0.5957 -0.26691,17.84628 0.39707,47.2782 6.94336,77.41992 0.038,0.44002 5.11197,59.29201 2.875,102.48047 l 0.0762,-0.75782 c -1.82122,11.77804 0.77872,21.96629 6.51367,29.04688 5.73495,7.08058 14.20839,10.78426 22.76172,11.14453 17.10666,0.72054 35.29814,-12.47492 37.48047,-36.01367 l 0.004,-0.043 0.0566,-0.70313 c 4.56686,5.21106 10.16493,8.76816 16.43359,10.16407 8.10546,1.80492 17.01035,-0.67944 23.56445,-6.98633 6.54981,-6.30275 10.99472,-15.92703 12.9668,-28.68945 0.0144,-0.0823 3.98319,-22.77964 2.62109,-39.1543 l 0.0215,0.88281 c 0,0 1.77376,-45.9892 5.89258,-66.2793 l 0.0703,-0.34765 0.0391,-0.35352 c 0,0 3.93548,-36.95935 4.00391,-70.84765 l -0.002,0.11718 c 0,0 0.15416,-8.7389 1.14454,-19.83398 0.99037,-11.09508 2.96136,-24.60437 5.91015,-32.78516 l 0.0508,-0.14453 0.0469,-0.14648 c 0,0 14.30037,-43.88652 3.76562,-84.60352 -0.0109,-0.25137 -0.0247,-0.57626 -0.0352,-1.17969 -0.0263,-1.51857 -0.0393,-3.90125 -0.0723,-6.93554 -0.0659,-6.06859 -0.21617,-14.80061 -0.75195,-25.3086 -1.07157,-21.01596 -3.66865,-49.15309 -10.27539,-77.80273 -6.60674,-28.64964 -17.16554,-57.87464 -34.7461,-80.994141 C 292.13922,54.00229 267.04971,37.165115 233.50586,34.791016 v -0.0098 c -0.0624,-0.006 -0.11152,-0.0057 -0.17383,-0.01172 -0.009,-6.52e-4 -0.0179,-0.0033 -0.0273,-0.0039 v 0.002 C 218.31659,33.331495 204.98572,32.54091 192.97856,32.623065 Z m 39.8125,9.587891 -0.51758,7.52539 c 29.29499,2.01912 49.84702,15.881527 65.46484,36.419922 15.61782,20.53839 25.75283,47.89636 32.06836,75.2832 6.31554,27.38685 8.86899,54.73922 9.91211,75.19727 0.52156,10.22902 0.66948,18.73067 0.73437,24.70703 0.0324,2.98818 0.0429,5.3318 0.0723,7.03125 0.0147,0.84972 0.0291,1.51048 0.0723,2.18359 0.0216,0.33656 0.0312,0.62951 0.14257,1.27149 0.0275,0.15862 0.16972,0.56351 0.22852,0.80859 l -0.0273,-0.0195 c 9.21409,34.90952 -3.45703,76.77344 -3.45703,76.77344 l 0.0996,-0.29297 c -3.92076,10.87733 -5.69974,24.88451 -6.74023,36.54101 -1.04049,11.65651 -1.20117,20.90625 -1.20117,20.90626 v 0.0566 0.0586 c -0.0659,32.66069 -3.89335,69.00745 -3.91211,69.18555 -4.69935,23.72355 -6.08399,68.15039 -6.08399,68.15039 l -0.0156,0.4414 0.0352,0.44141 c 1.04225,12.52955 -2.47852,35.5293 -2.47852,35.5293 l -0.006,0.0351 -0.006,0.0352 c -1.61829,10.49355 -5.14153,16.90872 -8.54883,20.1875 -3.4073,3.27878 -6.45281,3.91918 -9.89648,3.15234 -6.88734,-1.53367 -16.46118,-11.69412 -16.79102,-31.64843 l -14.98047,-0.48438 -2.92773,35.98828 c -1.56792,16.85568 -12.44523,22.791 -21.9043,22.39258 -4.73072,-0.19926 -8.91569,-2.11806 -11.73242,-5.5957 -2.81673,-3.47765 -4.66378,-8.78444 -3.3457,-17.3086 l 0.0586,-0.37695 0.0195,-0.38086 c 2.34192,-45.2146 -2.92968,-104.82617 -2.92968,-104.82617 l -0.041,-0.48438 -0.10547,-0.47656 c -9.62435,-43.6993 -6.29883,-90.60547 -6.29883,-90.60547 l 0.0196,-0.58395 -13.45129,-4.53519 c -9.13787,11.88814 -19.01094,12.83756 -28.90625,7.9668 -9.8953,-4.87077 -19.22849,-17.14907 -21.44336,-34.12305 l -1.03515,-7.92773 -7.84571,1.53515 c -8.75697,1.71286 -15.40157,-1.99563 -22.52148,-10.63476 -7.11991,-8.63914 -13.35077,-21.96123 -18.09961,-35.76953 -9.49767,-27.61662 -13.388672,-56.79493 -13.388672,-56.79493 l -0.05664,-0.41992 -0.101563,-0.41211 c -15.913947,-63.91108 6.119389,-160.77709 6.9375,-164.33398 16.471665,-26.06841 30.727155,-40.883101 49.845705,-48.798829 19.39137,-8.028687 45.05546,-9.241792 84.36523,-5.462891 z"
       id="path13132-5-9"
       inkscape:connector-curvature="0"
       sodipodi:nodetypes="csccccsscsccccssccccsccccccccsccccccssccccccccccssscsscccccsscccccccccsccccsccccccccccccccssccccscc" />
    <path
       style="color:#000000;font-style:normal;font-variant:normal;font-weight:normal;font-stretch:normal;font-size:medium;line-height:normal;font-family:sans-serif;font-variant-ligatures:normal;font-variant-position:normal;font-variant-caps:normal;font-variant-numeric:normal;font-variant-alternates:normal;font-feature-settings:normal;text-indent:0;text-align:start;text-decoration:none;text-decoration-line:none;text-decoration-style:solid;text-decoration-color:#000000;letter-spacing:normal;word-spacing:normal;text-transform:none;writing-mode:lr-tb;direction:ltr;text-orientation:mixed;dominant-baseline:auto;baseline-shift:baseline;text-anchor:start;white-space:normal;shape-padding:0;clip-rule:nonzero;display:inline;overflow:visible;visibility:visible;opacity:1;isolation:auto;mix-blend-mode:normal;color-interpolation:sRGB;color-interpolation-filters:linearRGB;solid-color:#000000;solid-opacity:1;vector-effect:none;fill:#000000;fill-opacity:1;fill-rule:nonzero;stroke:none;stroke-width:15.00609779;stroke-linecap:butt;stroke-linejoin:miter;stroke-miterlimit:4;stroke-dasharray:none;stroke-dashoffset:0;stroke-opacity:1;color-rendering:auto;image-rendering:auto;shape-rendering:auto;text-rendering:auto;enable-background:accumulate"
       d="m 141.51758,321.48047 -10.5332,10.6875 c 0.39326,0.38757 2.47929,4.72944 3.35351,8.7168 0.87422,3.98735 1.1543,7.39648 1.1543,7.39648 l -0.0234,-0.66797 c -0.13866,15.54207 3.71289,33.61328 3.71289,33.61328 l 14.69727,-3.03515 c 0,0 -3.51878,-17.61154 -3.4043,-30.44336 l 0.004,-0.33399 -0.0274,-0.33398 c 0,0 -0.339,-4.31775 -1.45508,-9.4082 -1.11607,-5.09046 -2.3916,-11.17806 -7.47851,-16.19141 z"
       id="path13134-3-6"
       inkscape:connector-curvature="0" />
    <path
       style="color:#000000;font-style:normal;font-variant:normal;font-weight:normal;font-stretch:normal;font-size:medium;line-height:normal;font-family:sans-serif;font-variant-ligatures:normal;font-variant-position:normal;font-variant-caps:normal;font-variant-numeric:normal;font-variant-alternates:normal;font-feature-settings:normal;text-indent:0;text-align:start;text-decoration:none;text-decoration-line:none;text-decoration-style:solid;text-decoration-color:#000000;letter-spacing:normal;word-spacing:normal;text-transform:none;writing-mode:lr-tb;direction:ltr;text-orientation:mixed;dominant-baseline:auto;baseline-shift:baseline;text-anchor:start;white-space:normal;shape-padding:0;clip-rule:nonzero;display:inline;overflow:visible;visibility:visible;opacity:1;isolation:auto;mix-blend-mode:normal;color-interpolation:sRGB;color-interpolation-filters:linearRGB;solid-color:#000000;solid-opacity:1;vector-effect:none;fill:#000000;fill-opacity:1;fill-rule:nonzero;stroke:none;stroke-width:15.00609779;stroke-linecap:butt;stroke-linejoin:miter;stroke-miterlimit:4;stroke-dasharray:none;stroke-dashoffset:0;stroke-opacity:1;color-rendering:auto;image-rendering:auto;shape-rendering:auto;text-rendering:auto;enable-background:accumulate"
       d="m 205.04102,365.1543 -9.5918,11.54101 c 1.45464,1.20878 4.90599,9.67274 6.08789,17.67383 1.1819,8.0011 1.22852,15.13477 1.22851,15.13477 l 15.00586,-0.0742 c 0,0 -0.0288,-8.03496 -1.39062,-17.25391 -1.3618,-9.21895 -2.9214,-20.02591 -11.33984,-27.02148 z"
       id="path13136-1-0"
       inkscape:connector-curvature="0" />
    <path
       style="color:#000000;font-style:normal;font-variant:normal;font-weight:normal;font-stretch:normal;font-size:medium;line-height:normal;font-family:sans-serif;font-variant-ligatures:normal;font-variant-position:normal;font-variant-caps:normal;font-variant-numeric:normal;font-variant-alternates:normal;font-feature-settings:normal;text-indent:0;text-align:start;text-decoration:none;text-decoration-line:none;text-decoration-style:solid;text-decoration-color:#000000;letter-spacing:normal;word-spacing:normal;text-transform:none;writing-mode:lr-tb;direction:ltr;text-orientation:mixed;dominant-baseline:auto;baseline-shift:baseline;text-anchor:start;white-space:normal;shape-padding:0;clip-rule:nonzero;display:inline;overflow:visible;visibility:visible;opacity:1;isolation:auto;mix-blend-mode:normal;color-interpolation:sRGB;color-interpolation-filters:linearRGB;solid-color:#000000;solid-opacity:1;vector-effect:none;fill:#000000;fill-opacity:1;fill-rule:nonzero;stroke:none;stroke-width:15.00609779;stroke-linecap:butt;stroke-linejoin:miter;stroke-miterlimit:4;stroke-dasharray:none;stroke-dashoffset:0;stroke-opacity:1;color-rendering:auto;image-rendering:auto;shape-rendering:auto;text-rendering:auto;enable-background:accumulate"
       d="m 267.81445,367.20508 c -1.92439,21.55762 -0.22791,61.78186 0.91993,102.48828 1.14783,40.70642 1.55912,82.66984 -1.77552,101.99413 l 14.87122,1.88282 c 3.94269,-22.84795 3.05533,-63.479 1.9043,-104.29883 -1.15104,-40.81982 -2.66963,-81.72048 -0.97266,-100.73046 z"
       id="path13138-0-1"
       inkscape:connector-curvature="0"
       sodipodi:nodetypes="csccscc" />
    <path
       style="color:#000000;font-style:normal;font-variant:normal;font-weight:normal;font-stretch:normal;font-size:medium;line-height:normal;font-family:sans-serif;font-variant-ligatures:normal;font-variant-position:normal;font-variant-caps:normal;font-variant-numeric:normal;font-variant-alternates:normal;font-feature-settings:normal;text-indent:0;text-align:start;text-decoration:none;text-decoration-line:none;text-decoration-style:solid;text-decoration-color:#000000;letter-spacing:normal;word-spacing:normal;text-transform:none;writing-mode:lr-tb;direction:ltr;text-orientation:mixed;dominant-baseline:auto;baseline-shift:baseline;text-anchor:start;white-space:normal;shape-padding:0;clip-rule:nonzero;display:inline;overflow:visible;visibility:visible;opacity:1;isolation:auto;mix-blend-mode:normal;color-interpolation:sRGB;color-interpolation-filters:linearRGB;solid-color:#000000;solid-opacity:1;vector-effect:none;fill:#000000;fill-opacity:1;fill-rule:nonzero;stroke:none;stroke-width:15.00609779;stroke-linecap:butt;stroke-linejoin:miter;stroke-miterlimit:4;stroke-dasharray:none;stroke-dashoffset:0;stroke-opacity:1;color-rendering:auto;image-rendering:auto;shape-rendering:auto;text-rendering:auto;enable-background:accumulate"
       d="m 241.6582,590.34961 c -5.16851,-0.19989 -10.55715,1.27249 -14.87304,4.94336 -5.75453,4.89448 -9.03295,12.8239 -9.72071,23.0625 l -0.12304,1.83398 0.73828,1.6836 c 0,0 3.4689,8.66717 12.14648,14.05859 4.33879,2.69571 10.34456,4.46986 16.95899,3.41797 6.61442,-1.0519 13.50744,-4.65873 20.73632,-11.23633 l 2.29883,-2.0918 0.14649,-3.10546 c 0.74717,-15.85121 -10.25363,-28.47635 -23.26172,-31.82813 -1.62601,-0.41897 -3.32404,-0.67165 -5.04688,-0.73828 z m -2.32226,14.99023 c 1.0417,-0.18026 2.21638,-0.0837 3.625,0.2793 4.91358,1.26608 10.67799,6.81678 11.82226,13.55859 -4.416,3.48651 -7.90649,4.96211 -10.35547,5.35157 -2.92702,0.46548 -4.78184,-0.1634 -6.68164,-1.34375 -2.81976,-1.75193 -4.52479,-4.37396 -5.42968,-5.90625 0.75379,-6.0744 2.61842,-9.2168 4.1914,-10.55469 0.87832,-0.74705 1.78643,-1.2045 2.82813,-1.38477 z"
       id="path13140-7-9"
       inkscape:connector-curvature="0" />
    <path
       style="color:#000000;font-style:normal;font-variant:normal;font-weight:normal;font-stretch:normal;font-size:medium;line-height:normal;font-family:sans-serif;font-variant-ligatures:normal;font-variant-position:normal;font-variant-caps:normal;font-variant-numeric:normal;font-variant-alternates:normal;font-feature-settings:normal;text-indent:0;text-align:start;text-decoration:none;text-decoration-line:none;text-decoration-style:solid;text-decoration-color:#000000;letter-spacing:normal;word-spacing:normal;text-transform:none;writing-mode:lr-tb;direction:ltr;text-orientation:mixed;dominant-baseline:auto;baseline-shift:baseline;text-anchor:start;white-space:normal;shape-padding:0;clip-rule:nonzero;display:inline;overflow:visible;visibility:visible;opacity:1;isolation:auto;mix-blend-mode:normal;color-interpolation:sRGB;color-interpolation-filters:linearRGB;solid-color:#000000;solid-opacity:1;vector-effect:none;fill:#000000;fill-opacity:1;fill-rule:nonzero;stroke:none;stroke-width:15.00609779;stroke-linecap:butt;stroke-linejoin:miter;stroke-miterlimit:4;stroke-dasharray:none;stroke-dashoffset:0;stroke-opacity:1;color-rendering:auto;image-rendering:auto;shape-rendering:auto;text-rendering:auto;enable-background:accumulate"
       d="m 299.22461,568.6875 c -6.27993,-0.0367 -12.73127,2.45042 -17.36719,7.49805 -4.63592,5.04763 -7.21262,12.38363 -7.08789,21.02148 l 0.0371,2.63477 1.67774,2.03125 c 0,0 5.14927,6.51844 13.95898,9.64843 8.80971,3.12999 22.12032,1.47946 33.0957,-11.05273 l 2.08594,-2.38086 -0.25195,-3.15625 C 324.10983,579.05368 311.78448,568.7608 299.22461,568.6875 Z m -0.0879,15.00586 c 4.22222,0.0246 9.06644,2.47436 10.74219,9.14062 -6.49974,6.3116 -10.62734,5.89157 -14.41211,4.54688 -2.35533,-0.83682 -4.1942,-2.17046 -5.52735,-3.30859 0.3897,-3.82967 1.60096,-6.24707 2.96875,-7.73633 1.69329,-1.84367 3.80014,-2.65675 6.22852,-2.64258 z"
       id="path13142-59-4"
       inkscape:connector-curvature="0" />
    <path
       style="color:#000000;font-style:normal;font-variant:normal;font-weight:normal;font-stretch:normal;font-size:medium;line-height:normal;font-family:sans-serif;font-variant-ligatures:normal;font-variant-position:normal;font-variant-caps:normal;font-variant-numeric:normal;font-variant-alternates:normal;font-feature-settings:normal;text-indent:0;text-align:start;text-decoration:none;text-decoration-line:none;text-decoration-style:solid;text-decoration-color:#000000;letter-spacing:normal;word-spacing:normal;text-transform:none;writing-mode:lr-tb;direction:ltr;text-orientation:mixed;dominant-baseline:auto;baseline-shift:baseline;text-anchor:start;white-space:normal;shape-padding:0;clip-rule:nonzero;display:inline;overflow:visible;visibility:visible;opacity:1;isolation:auto;mix-blend-mode:normal;color-interpolation:sRGB;color-interpolation-filters:linearRGB;solid-color:#000000;solid-opacity:1;vector-effect:none;fill:#000000;fill-opacity:1;fill-rule:nonzero;stroke:none;stroke-width:15.00609779;stroke-linecap:butt;stroke-linejoin:miter;stroke-miterlimit:4;stroke-dasharray:none;stroke-dashoffset:0;stroke-opacity:1;color-rendering:auto;image-rendering:auto;shape-rendering:auto;text-rendering:auto;enable-background:accumulate"
       d="m 320.07617,281.89648 c -18.57545,0.67066 -33.08203,11.17188 -33.08203,11.17188 l 8.74024,12.19922 c 0,0 22.90458,-16.17417 43.30859,-3.52735 l 7.90625,-12.75585 c -9.14442,-5.66791 -18.42966,-7.39274 -26.87305,-7.0879 z"
       id="path13144-1-9"
       inkscape:connector-curvature="0" />
    <path
       style="color:#000000;font-style:normal;font-variant:normal;font-weight:normal;font-stretch:normal;font-size:medium;line-height:normal;font-family:sans-serif;font-variant-ligatures:normal;font-variant-position:normal;font-variant-caps:normal;font-variant-numeric:normal;font-variant-alternates:normal;font-feature-settings:normal;text-indent:0;text-align:start;text-decoration:none;text-decoration-line:none;text-decoration-style:solid;text-decoration-color:#000000;letter-spacing:normal;word-spacing:normal;text-transform:none;writing-mode:lr-tb;direction:ltr;text-orientation:mixed;dominant-baseline:auto;baseline-shift:baseline;text-anchor:start;white-space:normal;shape-padding:0;clip-rule:nonzero;display:inline;overflow:visible;visibility:visible;opacity:1;isolation:auto;mix-blend-mode:normal;color-interpolation:sRGB;color-interpolation-filters:linearRGB;solid-color:#000000;solid-opacity:1;vector-effect:none;fill:#000000;fill-opacity:1;fill-rule:nonzero;stroke:none;stroke-width:15.00609779;stroke-linecap:butt;stroke-linejoin:miter;stroke-miterlimit:4;stroke-dasharray:none;stroke-dashoffset:0;stroke-opacity:1;color-rendering:auto;image-rendering:auto;shape-rendering:auto;text-rendering:auto;enable-background:accumulate"
       d="m 241.11133,281.2207 c -3.02866,-0.0925 -6.0221,-0.0502 -8.89649,0.0117 C 220.71731,281.47995 211,283.07812 211,283.07812 l 2.41992,14.81055 c 0,0 8.82632,-1.43275 19.11719,-1.65429 10.29087,-0.22155 21.89571,1.79861 25.0918,4.32031 l 9.29492,-11.78125 c -7.33694,-5.78881 -16.72654,-7.27538 -25.8125,-7.55274 z"
       id="path13146-5-6"
       inkscape:connector-curvature="0" />
    <path
       style="color:#000000;font-style:normal;font-variant:normal;font-weight:normal;font-stretch:normal;font-size:medium;line-height:normal;font-family:sans-serif;font-variant-ligatures:normal;font-variant-position:normal;font-variant-caps:normal;font-variant-numeric:normal;font-variant-alternates:normal;font-feature-settings:normal;text-indent:0;text-align:start;text-decoration:none;text-decoration-line:none;text-decoration-style:solid;text-decoration-color:#000000;letter-spacing:normal;word-spacing:normal;text-transform:none;writing-mode:lr-tb;direction:ltr;text-orientation:mixed;dominant-baseline:auto;baseline-shift:baseline;text-anchor:start;white-space:normal;shape-padding:0;clip-rule:nonzero;display:inline;overflow:visible;visibility:visible;opacity:1;isolation:auto;mix-blend-mode:normal;color-interpolation:sRGB;color-interpolation-filters:linearRGB;solid-color:#000000;solid-opacity:1;vector-effect:none;fill:#000000;fill-opacity:1;fill-rule:nonzero;stroke:none;stroke-width:15.00609779;stroke-linecap:butt;stroke-linejoin:miter;stroke-miterlimit:4;stroke-dasharray:none;stroke-dashoffset:0;stroke-opacity:1;color-rendering:auto;image-rendering:auto;shape-rendering:auto;text-rendering:auto;enable-background:accumulate"
       d="m 140.37109,262.35352 0.33008,15.00195 c 0,0 27.38576,0.10894 42.82031,15.17969 l 10.48243,-10.73828 C 172.63894,260.9355 140.37109,262.35352 140.37109,262.35352 Z"
       id="path13148-6-9"
       inkscape:connector-curvature="0" />
    <path
       style="color:#000000;font-style:normal;font-variant:normal;font-weight:normal;font-stretch:normal;font-size:medium;line-height:normal;font-family:sans-serif;font-variant-ligatures:normal;font-variant-position:normal;font-variant-caps:normal;font-variant-numeric:normal;font-variant-alternates:normal;font-feature-settings:normal;text-indent:0;text-align:start;text-decoration:none;text-decoration-line:none;text-decoration-style:solid;text-decoration-color:#000000;letter-spacing:normal;word-spacing:normal;text-transform:none;writing-mode:lr-tb;direction:ltr;text-orientation:mixed;dominant-baseline:auto;baseline-shift:baseline;text-anchor:start;white-space:normal;shape-padding:0;clip-rule:nonzero;display:inline;overflow:visible;visibility:visible;opacity:1;isolation:auto;mix-blend-mode:normal;color-interpolation:sRGB;color-interpolation-filters:linearRGB;solid-color:#000000;solid-opacity:1;vector-effect:none;fill:#000000;fill-opacity:1;fill-rule:nonzero;stroke:none;stroke-width:15.00609779;stroke-linecap:butt;stroke-linejoin:miter;stroke-miterlimit:4;stroke-dasharray:none;stroke-dashoffset:0;stroke-opacity:1;color-rendering:auto;image-rendering:auto;shape-rendering:auto;text-rendering:auto;enable-background:accumulate"
       d="m 84.904297,234.30859 -2.800781,14.74219 c 0,0 20.119084,4.38091 30.187504,18.13867 l 12.10937,-8.86133 C 109.88453,238.49325 84.904297,234.30859 84.904297,234.30859 Z"
       id="path13150-5-5"
       inkscape:connector-curvature="0" />
    <path
       style="color:#000000;font-style:normal;font-variant:normal;font-weight:normal;font-stretch:normal;font-size:medium;line-height:normal;font-family:sans-serif;font-variant-ligatures:normal;font-variant-position:normal;font-variant-caps:normal;font-variant-numeric:normal;font-variant-alternates:normal;font-feature-settings:normal;text-indent:0;text-align:start;text-decoration:none;text-decoration-line:none;text-decoration-style:solid;text-decoration-color:#000000;letter-spacing:normal;word-spacing:normal;text-transform:none;writing-mode:lr-tb;direction:ltr;text-orientation:mixed;dominant-baseline:auto;baseline-shift:baseline;text-anchor:start;white-space:normal;shape-padding:0;clip-rule:nonzero;display:inline;overflow:visible;visibility:visible;opacity:1;isolation:auto;mix-blend-mode:normal;color-interpolation:sRGB;color-interpolation-filters:linearRGB;solid-color:#000000;solid-opacity:1;vector-effect:none;fill:#000000;fill-opacity:1;fill-rule:nonzero;stroke:none;stroke-width:31.33672905;stroke-linecap:butt;stroke-linejoin:miter;stroke-miterlimit:4;stroke-dasharray:none;stroke-dashoffset:0;stroke-opacity:1;color-rendering:auto;image-rendering:auto;shape-rendering:auto;text-rendering:auto;enable-background:accumulate"
       d="M 336.45947,129.90828 71.317592,238.81423 70.143912,211.43592 c -5.715269,6.9836 -11.048007,14.25366 -16.001057,21.78279 C 6.4228244,305.75792 -6.8990782,400.47514 3.5304899,494.23397 13.960132,587.99292 48.185773,681.20421 98.706975,751.99257 133.59744,800.87972 176.83179,839.52718 225.72748,858.61003 l -0.0219,-16.53203 79.00471,14.30765 0.007,14.91078 C 377.81894,866.7715 441.60546,818.2354 489.62799,750.31986 539.85078,679.29258 574.0043,586.10947 585.34725,492.58345 596.69031,399.05743 585.32455,304.83918 541.25947,232.58732 500.43145,165.64782 430.40526,119.0776 330.01721,112.92372 Z m 0,0 4.6404,15.25307 c 84.39487,8.1986 139.05746,47.42183 173.40874,103.74288 38.94087,63.84626 50.46548,151.43253 39.73441,239.91292 -10.73112,88.48048 -43.61004,177.50875 -90.20279,243.40232 -44.0761,62.33434 -99.37805,103.11428 -159.30661,107.66007 l -0.0219,16.50611 -79.00474,-14.30765 0.10991,-17.55739 C 188.29556,806.836 153.72218,775.1417 124.21145,733.79243 77.398824,668.20042 44.527787,579.25497 34.684453,490.76677 25.347429,406.82993 36.775606,323.67883 74.03367,260.53585 l -2.714272,-21.72162 z"
       id="path10-9-5-1"
       inkscape:connector-curvature="0"
       sodipodi:nodetypes="cccsssccccsscccccsssccccssccc" />
    <path
       style="color:#000000;font-style:normal;font-variant:normal;font-weight:normal;font-stretch:normal;font-size:medium;line-height:normal;font-family:sans-serif;font-variant-ligatures:normal;font-variant-position:normal;font-variant-caps:normal;font-variant-numeric:normal;font-variant-alternates:normal;font-feature-settings:normal;text-indent:0;text-align:start;text-decoration:none;text-decoration-line:none;text-decoration-style:solid;text-decoration-color:#000000;letter-spacing:normal;word-spacing:normal;text-transform:none;writing-mode:lr-tb;direction:ltr;text-orientation:mixed;dominant-baseline:auto;baseline-shift:baseline;text-anchor:start;white-space:normal;shape-padding:0;clip-rule:nonzero;display:inline;overflow:visible;visibility:visible;opacity:1;isolation:auto;mix-blend-mode:normal;color-interpolation:sRGB;color-interpolation-filters:linearRGB;solid-color:#000000;solid-opacity:1;vector-effect:none;fill:#000000;fill-opacity:1;fill-rule:nonzero;stroke:none;stroke-width:15.66836452;stroke-linecap:butt;stroke-linejoin:miter;stroke-miterlimit:4;stroke-dasharray:none;stroke-dashoffset:0;stroke-opacity:1;color-rendering:auto;image-rendering:auto;shape-rendering:auto;text-rendering:auto;enable-background:accumulate"
       d="m 150.51939,410.32687 -6.68602,-11.94289 c -0.94451,4.1179 -1.38725,8.33961 -1.34874,12.53739 0.10956,11.92266 4.09642,23.87977 12.31795,32.97718 8.19744,9.07069 20.79354,14.86449 36.02357,14.38945 4.32086,-0.0113 8.40964,-0.5524 12.22573,-1.53955 l -0.41009,-8.09404 -52.12262,-38.32754 z m 52.12251,38.32754 -0.28376,-7.94442 c -3.3192,1.24566 -7.16869,1.93683 -11.67578,1.93683 h -0.1328 -0.13246 c -11.24599,0.37757 -18.70177,-3.40641 -23.9824,-9.24954 -3.31073,-3.6635 -5.69647,-8.29224 -7.03491,-13.32523 l -8.88016,-9.74518 52.12259,38.32754 z"
       id="path87-7-5-1"
       inkscape:connector-curvature="0"
       sodipodi:nodetypes="ccccccccccccccccccc" />
    <path
       style="color:#000000;font-style:normal;font-variant:normal;font-weight:normal;font-stretch:normal;font-size:medium;line-height:normal;font-family:sans-serif;font-variant-ligatures:normal;font-variant-position:normal;font-variant-caps:normal;font-variant-numeric:normal;font-variant-alternates:normal;font-feature-settings:normal;text-indent:0;text-align:start;text-decoration:none;text-decoration-line:none;text-decoration-style:solid;text-decoration-color:#000000;letter-spacing:normal;word-spacing:normal;text-transform:none;writing-mode:lr-tb;direction:ltr;text-orientation:mixed;dominant-baseline:auto;baseline-shift:baseline;text-anchor:start;white-space:normal;shape-padding:0;clip-rule:nonzero;display:inline;overflow:visible;visibility:visible;opacity:1;isolation:auto;mix-blend-mode:normal;color-interpolation:sRGB;color-interpolation-filters:linearRGB;solid-color:#000000;solid-opacity:1;vector-effect:none;fill:#000000;fill-opacity:1;fill-rule:nonzero;stroke:none;stroke-width:15.66836452;stroke-linecap:butt;stroke-linejoin:miter;stroke-miterlimit:4;stroke-dasharray:none;stroke-dashoffset:0;stroke-opacity:1;color-rendering:auto;image-rendering:auto;shape-rendering:auto;text-rendering:auto;enable-background:accumulate"
       d="m 111.31641,369.77344 -13.734379,12.73047 10.652349,11.49023 13.73242,-12.72852 z"
       id="path59-19-4"
       inkscape:connector-curvature="0" />
    <path
       style="color:#000000;font-style:normal;font-variant:normal;font-weight:normal;font-stretch:normal;font-size:medium;line-height:normal;font-family:sans-serif;font-variant-ligatures:normal;font-variant-position:normal;font-variant-caps:normal;font-variant-numeric:normal;font-variant-alternates:normal;font-feature-settings:normal;text-indent:0;text-align:start;text-decoration:none;text-decoration-line:none;text-decoration-style:solid;text-decoration-color:#000000;letter-spacing:normal;word-spacing:normal;text-transform:none;writing-mode:lr-tb;direction:ltr;text-orientation:mixed;dominant-baseline:auto;baseline-shift:baseline;text-anchor:start;white-space:normal;shape-padding:0;clip-rule:nonzero;display:inline;overflow:visible;visibility:visible;opacity:1;isolation:auto;mix-blend-mode:normal;color-interpolation:sRGB;color-interpolation-filters:linearRGB;solid-color:#000000;solid-opacity:1;vector-effect:none;fill:#000000;fill-opacity:1;fill-rule:nonzero;stroke:none;stroke-width:15.66836452;stroke-linecap:butt;stroke-linejoin:miter;stroke-miterlimit:4;stroke-dasharray:none;stroke-dashoffset:0;stroke-opacity:1;color-rendering:auto;image-rendering:auto;shape-rendering:auto;text-rendering:auto;enable-background:accumulate"
       d="m 403.22852,359.50977 c -15.54884,0.15109 -28.11805,6.40735 -36.2168,15.76171 -8.12237,9.38165 -11.90037,21.48947 -11.79102,33.41211 0.10936,11.92265 4.10067,23.88693 12.32227,32.98438 8.19546,9.06853 20.77293,14.88008 35.99805,14.4082 14.94289,-0.035 27.09651,-6.38353 34.81445,-15.75 7.73927,-9.39235 11.29566,-21.42257 11.21875,-33.2832 -0.0769,-11.86064 -3.78259,-23.77691 -11.60547,-32.9375 -7.8056,-9.14037 -20.00912,-15.10928 -34.74023,-14.5957 z m 0.48046,15.65429 c 10.50673,-0.3865 17.36191,3.28116 22.34571,9.11719 4.98379,5.83603 7.79579,14.26341 7.85156,22.86328 0.0558,8.59987 -2.64152,17.14753 -7.64258,23.2168 -5.00106,6.06927 -12.03104,10.05273 -22.84375,10.05273 h -0.13086 l -0.13281,0.004 c -11.24603,0.37779 -18.70766,-3.41269 -23.98828,-9.25586 -5.28062,-5.84317 -8.20349,-14.14346 -8.28125,-22.62109 -0.0778,-8.47764 2.68441,-16.90781 7.9707,-23.01368 5.2863,-6.10587 12.9476,-10.27086 24.6211,-10.35742 l 0.11523,-0.002 z"
       id="path87-1-33-9"
       inkscape:connector-curvature="0" />
    <path
       style="color:#000000;font-style:normal;font-variant:normal;font-weight:normal;font-stretch:normal;font-size:medium;line-height:normal;font-family:sans-serif;font-variant-ligatures:normal;font-variant-position:normal;font-variant-caps:normal;font-variant-numeric:normal;font-variant-alternates:normal;font-feature-settings:normal;text-indent:0;text-align:start;text-decoration:none;text-decoration-line:none;text-decoration-style:solid;text-decoration-color:#000000;letter-spacing:normal;word-spacing:normal;text-transform:none;writing-mode:lr-tb;direction:ltr;text-orientation:mixed;dominant-baseline:auto;baseline-shift:baseline;text-anchor:start;white-space:normal;shape-padding:0;clip-rule:nonzero;display:inline;overflow:visible;visibility:visible;opacity:1;isolation:auto;mix-blend-mode:normal;color-interpolation:sRGB;color-interpolation-filters:linearRGB;solid-color:#000000;solid-opacity:1;vector-effect:none;fill:#000000;fill-opacity:1;fill-rule:nonzero;stroke:none;stroke-width:15.66836452;stroke-linecap:butt;stroke-linejoin:miter;stroke-miterlimit:4;stroke-dasharray:none;stroke-dashoffset:0;stroke-opacity:1;color-rendering:auto;image-rendering:auto;shape-rendering:auto;text-rendering:auto;enable-background:accumulate"
       d="m 404.35285,339.74947 c -23.19798,0 -39.35056,5.8085 -53.4614,16.1781 l -4.65255,19.65637 c 24.32723,-15.8272 33.53848,-20.1211 58.14713,-20.17112 24.60872,-0.05 50.04469,11.18411 84.0106,33.94096 l 8.71789,-13.01585 C 462.13839,352.90422 433.7164,339.74947 404.35285,339.74947 Z"
       id="path59-1-9-8"
       inkscape:connector-curvature="0"
       sodipodi:nodetypes="scccccs" />
    <path
       style="color:#000000;font-style:normal;font-variant:normal;font-weight:normal;font-stretch:normal;font-size:medium;line-height:normal;font-family:sans-serif;font-variant-ligatures:normal;font-variant-position:normal;font-variant-caps:normal;font-variant-numeric:normal;font-variant-alternates:normal;font-feature-settings:normal;text-indent:0;text-align:start;text-decoration:none;text-decoration-line:none;text-decoration-style:solid;text-decoration-color:#000000;letter-spacing:normal;word-spacing:normal;text-transform:none;writing-mode:lr-tb;direction:ltr;text-orientation:mixed;dominant-baseline:auto;baseline-shift:baseline;text-anchor:start;white-space:normal;shape-padding:0;clip-rule:nonzero;display:inline;overflow:visible;visibility:visible;opacity:1;isolation:auto;mix-blend-mode:normal;color-interpolation:sRGB;color-interpolation-filters:linearRGB;solid-color:#000000;solid-opacity:1;vector-effect:none;fill:#000000;fill-opacity:1;fill-rule:nonzero;stroke:none;stroke-width:15.55461502;stroke-linecap:butt;stroke-linejoin:miter;stroke-miterlimit:4;stroke-dasharray:none;stroke-dashoffset:0;stroke-opacity:1;color-rendering:auto;image-rendering:auto;shape-rendering:auto;text-rendering:auto;enable-background:accumulate"
       d="m 200.42773,668.89844 v 15.55273 h 190.51368 v -15.55273 z"
       id="path1681-8"
       inkscape:connector-curvature="0" />
    <path
       style="color:#000000;font-style:normal;font-variant:normal;font-weight:normal;font-stretch:normal;font-size:medium;line-height:normal;font-family:sans-serif;font-variant-ligatures:normal;font-variant-position:normal;font-variant-caps:normal;font-variant-numeric:normal;font-variant-alternates:normal;font-feature-settings:normal;text-indent:0;text-align:start;text-decoration:none;text-decoration-line:none;text-decoration-style:solid;text-decoration-color:#000000;letter-spacing:normal;word-spacing:normal;text-transform:none;writing-mode:lr-tb;direction:ltr;text-orientation:mixed;dominant-baseline:auto;baseline-shift:baseline;text-anchor:start;white-space:normal;shape-padding:0;clip-rule:nonzero;display:inline;overflow:visible;visibility:visible;opacity:1;isolation:auto;mix-blend-mode:normal;color-interpolation:sRGB;color-interpolation-filters:linearRGB;solid-color:#000000;solid-opacity:1;vector-effect:none;fill:#000000;fill-opacity:1;fill-rule:nonzero;stroke:none;stroke-width:15.00609779;stroke-linecap:butt;stroke-linejoin:miter;stroke-miterlimit:4;stroke-dasharray:none;stroke-dashoffset:0;stroke-opacity:1;color-rendering:auto;image-rendering:auto;shape-rendering:auto;text-rendering:auto;enable-background:accumulate"
       d="m 265.40039,702.7207 -87.89258,87.89258 h 48.12696 v 241.59762 h 7.5039 71.66406 V 789.11328 h 46.99024 z m 0.002,21.22071 50.16407,50.16601 H 289.79688 V 1017.2051 H 240.64062 V 775.60742 h -26.90429 z"
       id="path2904"
       inkscape:connector-curvature="0" />
    <path
       style="color:#000000;font-style:normal;font-variant:normal;font-weight:normal;font-stretch:normal;font-size:medium;line-height:normal;font-family:sans-serif;font-variant-ligatures:normal;font-variant-position:normal;font-variant-caps:normal;font-variant-numeric:normal;font-variant-alternates:normal;font-feature-settings:normal;text-indent:0;text-align:start;text-decoration:none;text-decoration-line:none;text-decoration-style:solid;text-decoration-color:#000000;letter-spacing:normal;word-spacing:normal;text-transform:none;writing-mode:lr-tb;direction:ltr;text-orientation:mixed;dominant-baseline:auto;baseline-shift:baseline;text-anchor:start;white-space:normal;shape-padding:0;clip-rule:nonzero;display:inline;overflow:visible;visibility:visible;opacity:1;isolation:auto;mix-blend-mode:normal;color-interpolation:sRGB;color-interpolation-filters:linearRGB;solid-color:#000000;solid-opacity:1;vector-effect:none;fill:#000000;fill-opacity:1;fill-rule:nonzero;stroke:none;stroke-width:32.21401978;stroke-linecap:butt;stroke-linejoin:miter;stroke-miterlimit:4;stroke-dasharray:none;stroke-dashoffset:0;stroke-opacity:1;color-rendering:auto;image-rendering:auto;shape-rendering:auto;text-rendering:auto;enable-background:accumulate"
       d="m 886.03006,96.430648 c 124.12034,-0.02652 209.39394,49.812302 258.44084,124.368452 46.7348,71.04131 61.3655,162.78137 53.3749,254.64297 l -15.8809,-0.004 -10.1259,67.09299 16.2302,-0.0735 C 1172.1698,620.1997 1140.9794,694.8024 1098.6584,754.10093 1046.7227,826.8713 976.79677,877.56768 897.26503,877.09395 817.77079,876.62035 748.41763,825.39354 696.78887,752.37785 645.16009,679.36218 610.04936,583.58001 598.38875,487.43571 586.72818,391.29138 598.41146,294.43094 643.71316,220.15635 689.00564,145.89566 769.25737,96.0208 885.9635,96.430648 Z m -0.0519,32.218192 h -0.0303 -0.0379 c -107.80439,-0.39686 -174.66808,42.64787 -214.6992,108.28155 -40.03111,65.63366 -51.87377,155.66408 -40.84228,246.62155 11.03154,90.95747 44.82261,182.48526 92.71979,250.22353 47.89718,67.73833 108.69259,110.70831 174.36729,111.09952 65.63721,0.39101 126.85814,-42.0588 174.98124,-109.48713 38.0563,-53.32297 67.1534,-121.65635 82.6661,-192.89987 1.2964,-5.95353 16.7361,0.0424 16.7361,0.0424 l 10.1259,-67.09299 -16.4649,0.0519 c 8.049,-87.51192 -6.12,-173.40425 -47.946,-236.98347 -43.4296,-66.01756 -115.8148,-109.89876 -231.57747,-109.85694 z"
       id="path10-9-5-2"
       inkscape:connector-curvature="0"
       sodipodi:nodetypes="csccccssssccccccsssssccccscc" />
    <path
       style="color:#000000;font-style:normal;font-variant:normal;font-weight:normal;font-stretch:normal;font-size:medium;line-height:normal;font-family:sans-serif;font-variant-ligatures:normal;font-variant-position:normal;font-variant-caps:normal;font-variant-numeric:normal;font-variant-alternates:normal;font-feature-settings:normal;text-indent:0;text-align:start;text-decoration:none;text-decoration-line:none;text-decoration-style:solid;text-decoration-color:#000000;letter-spacing:normal;word-spacing:normal;text-transform:none;writing-mode:lr-tb;direction:ltr;text-orientation:mixed;dominant-baseline:auto;baseline-shift:baseline;text-anchor:start;white-space:normal;shape-padding:0;clip-rule:nonzero;display:inline;overflow:visible;visibility:visible;opacity:1;isolation:auto;mix-blend-mode:normal;color-interpolation:sRGB;color-interpolation-filters:linearRGB;solid-color:#000000;solid-opacity:1;vector-effect:none;fill:#000000;fill-opacity:1;fill-rule:nonzero;stroke:none;stroke-width:16.10700989;stroke-linecap:butt;stroke-linejoin:miter;stroke-miterlimit:4;stroke-dasharray:none;stroke-dashoffset:0;stroke-opacity:1;color-rendering:auto;image-rendering:auto;shape-rendering:auto;text-rendering:auto;enable-background:accumulate"
       d="m 1004.2715,352.92578 c -15.13044,-0.51905 -27.66466,5.61564 -35.68361,15.00586 -8.04187,9.41705 -11.85257,21.66669 -11.93164,33.85938 -0.0791,12.19268 3.57728,24.55953 11.5332,34.21484 7.93425,9.62901 20.42912,16.15589 35.79105,16.19141 15.6505,0.48455 28.5793,-5.49045 37.0039,-14.8125 8.4517,-9.35216 12.5555,-21.64981 12.6679,-33.90625 0.1125,-12.25645 -3.7732,-24.70337 -12.123,-34.34766 -8.3303,-9.62184 -21.2608,-16.05702 -37.2578,-16.20508 z m -0.4649,16.09375 0.1192,0.006 h 0.1172 c 12.0003,0.089 19.8762,4.37164 25.3105,10.64844 5.4343,6.2768 8.2733,14.94125 8.1934,23.65625 -0.08,8.71499 -3.0852,17.24908 -8.5137,23.25586 -5.4285,6.00677 -13.0993,9.90399 -24.6602,9.51562 l -0.1347,-0.006 h -0.1348 c -11.11537,0 -18.3433,-4.09284 -23.48436,-10.33203 -5.14106,-6.23919 -7.9128,-15.02655 -7.85547,-23.86719 0.0573,-8.84063 2.94896,-17.50449 8.07227,-23.5039 5.12331,-5.99942 12.16987,-9.77038 22.97066,-9.37305 z"
       id="path87-7-9"
       inkscape:connector-curvature="0" />
    <path
       style="color:#000000;font-style:normal;font-variant:normal;font-weight:normal;font-stretch:normal;font-size:medium;line-height:normal;font-family:sans-serif;font-variant-ligatures:normal;font-variant-position:normal;font-variant-caps:normal;font-variant-numeric:normal;font-variant-alternates:normal;font-feature-settings:normal;text-indent:0;text-align:start;text-decoration:none;text-decoration-line:none;text-decoration-style:solid;text-decoration-color:#000000;letter-spacing:normal;word-spacing:normal;text-transform:none;writing-mode:lr-tb;direction:ltr;text-orientation:mixed;dominant-baseline:auto;baseline-shift:baseline;text-anchor:start;white-space:normal;shape-padding:0;clip-rule:nonzero;display:inline;overflow:visible;visibility:visible;opacity:1;isolation:auto;mix-blend-mode:normal;color-interpolation:sRGB;color-interpolation-filters:linearRGB;solid-color:#000000;solid-opacity:1;vector-effect:none;fill:#000000;fill-opacity:1;fill-rule:nonzero;stroke:none;stroke-width:16.10700989;stroke-linecap:butt;stroke-linejoin:miter;stroke-miterlimit:4;stroke-dasharray:none;stroke-dashoffset:0;stroke-opacity:1;color-rendering:auto;image-rendering:auto;shape-rendering:auto;text-rendering:auto;enable-background:accumulate"
       d="m 1004.9785,332.29883 c -30.24927,-0.80806 -60.2532,12.25234 -97.30858,38.00976 l 9.19336,13.22461 c 35.80453,-24.88795 62.354,-35.80945 87.68362,-35.13281 25.3296,0.67664 51.0541,13.0398 84.9863,38.24023 l 9.6035,-12.93164 c -35.0281,-26.0144 -63.9089,-40.60209 -94.1582,-41.41015 z"
       id="path59-19-5"
       inkscape:connector-curvature="0" />
    <path
       style="color:#000000;font-style:normal;font-variant:normal;font-weight:normal;font-stretch:normal;font-size:medium;line-height:normal;font-family:sans-serif;font-variant-ligatures:normal;font-variant-position:normal;font-variant-caps:normal;font-variant-numeric:normal;font-variant-alternates:normal;font-feature-settings:normal;text-indent:0;text-align:start;text-decoration:none;text-decoration-line:none;text-decoration-style:solid;text-decoration-color:#000000;letter-spacing:normal;word-spacing:normal;text-transform:none;writing-mode:lr-tb;direction:ltr;text-orientation:mixed;dominant-baseline:auto;baseline-shift:baseline;text-anchor:start;white-space:normal;shape-padding:0;clip-rule:nonzero;display:inline;overflow:visible;visibility:visible;opacity:1;isolation:auto;mix-blend-mode:normal;color-interpolation:sRGB;color-interpolation-filters:linearRGB;solid-color:#000000;solid-opacity:1;vector-effect:none;fill:#000000;fill-opacity:1;fill-rule:nonzero;stroke:none;stroke-width:16.10700989;stroke-linecap:butt;stroke-linejoin:miter;stroke-miterlimit:4;stroke-dasharray:none;stroke-dashoffset:0;stroke-opacity:1;color-rendering:auto;image-rendering:auto;shape-rendering:auto;text-rendering:auto;enable-background:accumulate"
       d="m 785.57812,350.62891 c -15.13044,-0.51907 -27.66462,5.61564 -35.68359,15.00586 -8.04187,9.41704 -11.85257,21.66669 -11.93164,33.85937 -0.0791,12.19268 3.57727,24.55954 11.5332,34.21484 7.93426,9.629 20.42912,16.15589 35.79102,16.19141 15.6505,0.48456 28.57935,-5.49045 37.00391,-14.8125 8.45176,-9.35215 12.55554,-21.64981 12.66796,-33.90625 0.11243,-12.25643 -3.77328,-24.70337 -12.12304,-34.34766 -8.33033,-9.62183 -21.26081,-16.05701 -37.25782,-16.20507 z m -0.46484,16.0957 0.11719,0.004 h 0.11914 c 12.00032,0.0889 19.87627,4.37164 25.31055,10.64843 5.43428,6.2768 8.2733,14.94127 8.19336,23.65625 -0.08,8.71499 -3.08522,17.2491 -8.51368,23.25586 -5.42846,6.00677 -13.09931,9.904 -24.66015,9.51563 l -0.13477,-0.006 h -0.13476 c -11.1154,0 -18.34331,-4.09285 -23.48438,-10.33203 -5.14106,-6.23919 -7.9128,-15.02656 -7.85547,-23.86719 0.0573,-8.84063 2.94895,-17.5045 8.07227,-23.50391 5.12331,-5.9994 12.16985,-9.76842 22.9707,-9.37109 z"
       id="path87-1-33-7"
       inkscape:connector-curvature="0" />
    <path
       style="color:#000000;font-style:normal;font-variant:normal;font-weight:normal;font-stretch:normal;font-size:medium;line-height:normal;font-family:sans-serif;font-variant-ligatures:normal;font-variant-position:normal;font-variant-caps:normal;font-variant-numeric:normal;font-variant-alternates:normal;font-feature-settings:normal;text-indent:0;text-align:start;text-decoration:none;text-decoration-line:none;text-decoration-style:solid;text-decoration-color:#000000;letter-spacing:normal;word-spacing:normal;text-transform:none;writing-mode:lr-tb;direction:ltr;text-orientation:mixed;dominant-baseline:auto;baseline-shift:baseline;text-anchor:start;white-space:normal;shape-padding:0;clip-rule:nonzero;display:inline;overflow:visible;visibility:visible;opacity:1;isolation:auto;mix-blend-mode:normal;color-interpolation:sRGB;color-interpolation-filters:linearRGB;solid-color:#000000;solid-opacity:1;vector-effect:none;fill:#000000;fill-opacity:1;fill-rule:nonzero;stroke:none;stroke-width:16.10700989;stroke-linecap:butt;stroke-linejoin:miter;stroke-miterlimit:4;stroke-dasharray:none;stroke-dashoffset:0;stroke-opacity:1;color-rendering:auto;image-rendering:auto;shape-rendering:auto;text-rendering:auto;enable-background:accumulate"
       d="m 784.45117,330.3125 c -30.18553,-0.0614 -59.40601,13.53138 -95.36133,37.62109 l 8.9668,13.38086 c 34.91688,-23.39396 61.06368,-34.94599 86.36133,-34.89453 25.29764,0.0515 51.35337,11.60112 86.38867,37.89844 l 9.66797,-12.88086 c -36.29538,-27.24313 -65.83791,-41.06359 -96.02344,-41.125 z"
       id="path59-1-9-6"
       inkscape:connector-curvature="0" />
    <path
       style="color:#000000;font-style:normal;font-variant:normal;font-weight:normal;font-stretch:normal;font-size:medium;line-height:normal;font-family:sans-serif;font-variant-ligatures:normal;font-variant-position:normal;font-variant-caps:normal;font-variant-numeric:normal;font-variant-alternates:normal;font-feature-settings:normal;text-indent:0;text-align:start;text-decoration:none;text-decoration-line:none;text-decoration-style:solid;text-decoration-color:#000000;letter-spacing:normal;word-spacing:normal;text-transform:none;writing-mode:lr-tb;direction:ltr;text-orientation:mixed;dominant-baseline:auto;baseline-shift:baseline;text-anchor:start;white-space:normal;shape-padding:0;clip-rule:nonzero;display:inline;overflow:visible;visibility:visible;opacity:1;isolation:auto;mix-blend-mode:normal;color-interpolation:sRGB;color-interpolation-filters:linearRGB;solid-color:#000000;solid-opacity:1;vector-effect:none;fill:#000000;fill-opacity:1;fill-rule:nonzero;stroke:none;stroke-width:16.10700989;stroke-linecap:butt;stroke-linejoin:miter;stroke-miterlimit:4;stroke-dasharray:none;stroke-dashoffset:0;stroke-opacity:1;color-rendering:auto;image-rendering:auto;shape-rendering:auto;text-rendering:auto;enable-background:accumulate"
       d="m 888.2832,462.36133 c 0,0 -1.81719,17.92791 -4.82226,36.75976 -1.50254,9.41593 -3.31286,19.05907 -5.25782,26.55079 -0.97247,3.74585 -1.99005,6.96156 -2.90234,9.17968 -0.91228,2.21813 -2.09229,3.37901 -1.24609,2.67383 -1.78235,1.48528 -3.66888,2.72439 -4.65625,6.67383 -0.49369,1.97472 -0.20979,4.91647 1.05078,6.9707 1.26057,2.05424 2.89936,3.05939 4.13867,3.64258 4.95724,2.33278 7.50248,1.43754 10.87305,1.20508 6.74113,-0.46492 14.04101,-1.96875 14.04101,-1.96875 l -3.1582,-15.79297 c 0,0 -2.52598,0.43923 -5.5625,0.89648 1.08463,-2.89161 2.10318,-5.92649 3.01367,-9.43359 2.17353,-8.37215 4.02407,-18.35654 5.57227,-28.05859 3.09639,-19.40411 4.9414,-37.67774 4.9414,-37.67774 z"
       id="path971-8-1"
       inkscape:connector-curvature="0" />
    <path
       style="color:#000000;font-style:normal;font-variant:normal;font-weight:normal;font-stretch:normal;font-size:medium;line-height:normal;font-family:sans-serif;font-variant-ligatures:normal;font-variant-position:normal;font-variant-caps:normal;font-variant-numeric:normal;font-variant-alternates:normal;font-feature-settings:normal;text-indent:0;text-align:start;text-decoration:none;text-decoration-line:none;text-decoration-style:solid;text-decoration-color:#000000;letter-spacing:normal;word-spacing:normal;text-transform:none;writing-mode:lr-tb;direction:ltr;text-orientation:mixed;dominant-baseline:auto;baseline-shift:baseline;text-anchor:start;white-space:normal;shape-padding:0;clip-rule:nonzero;display:inline;overflow:visible;visibility:visible;opacity:1;isolation:auto;mix-blend-mode:normal;color-interpolation:sRGB;color-interpolation-filters:linearRGB;solid-color:#000000;solid-opacity:1;vector-effect:none;fill:#000000;fill-opacity:1;fill-rule:nonzero;stroke:none;stroke-width:15.99007702;stroke-linecap:butt;stroke-linejoin:miter;stroke-miterlimit:4;stroke-dasharray:none;stroke-dashoffset:0;stroke-opacity:1;color-rendering:auto;image-rendering:auto;shape-rendering:auto;text-rendering:auto;enable-background:accumulate"
       d="m 798.23633,668.67969 v 15.99023 h 195.84961 v -15.99023 z"
       id="path1681-0"
       inkscape:connector-curvature="0" />
    <path
       style="color:#000000;font-style:normal;font-variant:normal;font-weight:normal;font-stretch:normal;font-size:medium;line-height:normal;font-family:sans-serif;font-variant-ligatures:normal;font-variant-position:normal;font-variant-caps:normal;font-variant-numeric:normal;font-variant-alternates:normal;font-feature-settings:normal;text-indent:0;text-align:start;text-decoration:none;text-decoration-line:none;text-decoration-style:solid;text-decoration-color:#000000;letter-spacing:normal;word-spacing:normal;text-transform:none;writing-mode:lr-tb;direction:ltr;text-orientation:mixed;dominant-baseline:auto;baseline-shift:baseline;text-anchor:start;white-space:normal;shape-padding:0;clip-rule:nonzero;display:inline;overflow:visible;visibility:visible;opacity:1;isolation:auto;mix-blend-mode:normal;color-interpolation:sRGB;color-interpolation-filters:linearRGB;solid-color:#000000;solid-opacity:1;vector-effect:none;fill:#000000;fill-opacity:1;fill-rule:nonzero;stroke:none;stroke-width:13.14186668;stroke-linecap:butt;stroke-linejoin:miter;stroke-miterlimit:4;stroke-dasharray:none;stroke-dashoffset:0;stroke-opacity:1;color-rendering:auto;image-rendering:auto;shape-rendering:auto;text-rendering:auto;enable-background:accumulate"
       d="m 1273.9082,436.8125 v 38.56836 h -233.9648 v 6.57226 60.63477 h 235.9961 v 37.66016 l 89.9023,-71.125 z m 13.1406,27.05664 57.5742,45.2832 -55.5429,43.94336 V 529.44727 H 1053.084 v -40.92383 h 233.9648 z"
       id="path2904-1"
       inkscape:connector-curvature="0" />
    <path
       style="color:#000000;font-style:normal;font-variant:normal;font-weight:normal;font-stretch:normal;font-size:medium;line-height:normal;font-family:sans-serif;font-variant-ligatures:normal;font-variant-position:normal;font-variant-caps:normal;font-variant-numeric:normal;font-variant-alternates:normal;font-feature-settings:normal;text-indent:0;text-align:start;text-decoration:none;text-decoration-line:none;text-decoration-style:solid;text-decoration-color:#000000;letter-spacing:normal;word-spacing:normal;text-transform:none;writing-mode:lr-tb;direction:ltr;text-orientation:mixed;dominant-baseline:auto;baseline-shift:baseline;text-anchor:start;white-space:normal;shape-padding:0;clip-rule:nonzero;display:inline;overflow:visible;visibility:visible;opacity:1;isolation:auto;mix-blend-mode:normal;color-interpolation:sRGB;color-interpolation-filters:linearRGB;solid-color:#000000;solid-opacity:1;vector-effect:none;fill:#000000;fill-opacity:1;fill-rule:nonzero;stroke:none;stroke-width:10.77979469;stroke-linecap:butt;stroke-linejoin:miter;stroke-miterlimit:4;stroke-dasharray:none;stroke-dashoffset:0;stroke-opacity:1;color-rendering:auto;image-rendering:auto;shape-rendering:auto;text-rendering:auto;enable-background:accumulate"
       d="m 1677.8613,364.49805 c -3.2004,0.11629 -6.643,0.35911 -10.3144,0.70507 -14.6857,1.38386 -32.9992,4.45776 -52.8067,8.24219 -39.1511,7.48025 -84.0318,17.7234 -116.6484,23.28907 -5.6179,-2.0564 -11.7742,-1.72368 -17.6191,-0.64063 -6.5472,1.21316 -12.598,3.3815 -16.8653,5.82813 -5.2728,3.023 -9.2075,8.21372 -12.5117,12.77148 -3.0917,4.26463 -5.0049,7.54666 -5.2812,8.01562 -39.7734,47.63633 -117.014,140.64041 -118.0118,141.8418 l -43.2304,20.55469 4.6289,9.73633 45.373,-21.57422 0.7598,-0.91406 c 0,0 78.9507,-95.0643 118.9082,-142.91993 l 0.289,-0.3457 0.2266,-0.38672 c 0,0 2.1032,-3.59223 5.0664,-7.67969 2.9633,-4.08746 7.1203,-8.58751 9.1446,-9.74804 2.6641,-1.52745 8.1283,-3.59248 13.4687,-4.58203 5.3404,-0.98955 10.6223,-0.70866 12.9219,0.42382 l 1.5625,0.76954 1.7168,-0.29102 c 33.2782,-5.61441 78.8088,-16.04875 118.125,-23.56055 19.6581,-3.7559 37.7665,-6.77574 51.7949,-8.09765 7.0142,-0.66096 13.0167,-0.88857 17.5312,-0.62305 4.5145,0.26552 7.5066,1.28699 8.0625,1.67383 3.2494,2.26113 10.2692,9.31339 18.0665,18.32031 7.7972,9.00692 16.7087,20.11276 25.2128,31.22461 8.5042,11.11185 16.6113,22.24243 22.8164,31.29297 3.1026,4.52527 5.7304,8.53321 7.6739,11.7168 1.9435,3.18358 3.2328,5.77189 3.4375,6.35742 0.4693,1.34287 1.3074,8.07474 1.4414,16.19531 0.1339,8.12057 -0.1233,18.12557 -0.6446,28.25391 -0.2585,5.02394 -0.7439,9.59074 -1.1289,14.51172 -1.0162,0.11544 -2.1933,0.55024 -3.3378,0.86523 -0.3256,-6.61962 -0.7156,-13.09287 -1.2383,-18.88281 -0.8787,-9.73283 -1.6848,-17.0935 -3.7774,-22.17383 -1.7976,-4.36411 -5.8166,-11.13329 -11.457,-19.95899 -5.6404,-8.82569 -12.7936,-19.34112 -20.375,-29.71289 -7.5814,-10.37176 -15.5763,-20.58806 -22.9707,-28.84961 -7.3944,-8.26155 -13.699,-14.5743 -20.2149,-17.44726 -2.217,-0.97754 -3.8045,-0.94748 -5.8632,-0.98242 -2.0588,-0.0349 -4.4359,0.0898 -7.1914,0.33008 -5.5112,0.48057 -12.5056,1.44144 -20.5645,2.73828 -16.1177,2.59367 -36.4484,6.53556 -56.7012,10.6875 -20.2527,4.15193 -40.4151,8.51229 -56.1035,11.93164 -15.6883,3.41934 -27.5452,5.99607 -29.0019,6.23632 -5.8997,0.973 -8.8818,-0.0688 -13.6621,-1.13476 -4.7804,-1.066 -11.1425,-1.83893 -19.7774,0.875 -19.6272,6.16857 -27.5312,22.44727 -27.5312,22.44726 l 9.7129,4.67383 c 0,0 5.7086,-12.01411 21.0507,-16.83593 6.8982,-2.16809 9.9715,-1.58145 14.1993,-0.63868 4.2277,0.94278 9.8287,2.55834 17.7617,1.25 3.2872,-0.54215 13.8691,-2.92366 29.5429,-6.33984 15.6739,-3.41618 35.7958,-7.7679 55.9727,-11.9043 20.1769,-4.13639 40.4213,-8.05831 56.25,-10.60547 7.9143,-1.27357 14.7366,-2.20217 19.7871,-2.64257 2.5253,-0.22021 4.6145,-0.31381 6.0723,-0.28907 1.4578,0.0248 2.4361,0.3922 1.6972,0.0664 2.8184,1.24265 9.5096,6.92823 16.5313,14.77344 7.0217,7.8452 14.8641,17.84501 22.3027,28.02148 7.4386,10.17648 14.4868,20.54187 19.9922,29.15625 5.5054,8.61439 9.5762,15.8416 10.5723,18.25977 0.701,1.70198 2.1607,9.63239 3.0097,19.03711 0.5474,6.06274 0.8048,13.42836 1.1348,20.51172 -3.5763,1.71482 -8.3113,4.4881 -12.8808,10.02539 -5.7972,7.0249 -9.264,18.16215 -5.129,32.26172 -5.0336,-1.97812 -9.571,-3.81312 -10.4648,-4.19922 -0.9781,-1.3661 -4.9278,-7.06984 -7.2949,-16.2168 -2.6693,-10.31467 -2.8286,-23.17095 7.9511,-36.38672 0.013,-0.0153 0.2746,-0.32673 0.6622,-0.70703 0.3969,-0.38954 1.127,-0.7069 0.2695,-0.36328 l -0.019,-0.0488 8.0234,-9.82422 -11.252,1.76563 -4.3554,0.57226 c -19.0283,2.39771 -30.0622,-5.96428 -37.1446,-16.39648 -3.6483,-5.37403 -6.0451,-11.31802 -7.3222,-16.26563 -1.2772,-4.9476 -0.9742,-9.51673 -1.0684,-9.21484 0,0 -3.6037,-5.31058 -7.8539,-10.9668 -2.2774,1.71112 -2.3744,3.32813 -2.584,4.4043 -0.2096,1.07617 -0.2324,1.94369 -0.2324,2.73047 0,0.33233 0.025,0.31156 0.037,0.61133 -10.2679,14.84244 -24.6105,22.7149 -38.1133,25.24414 -13.9211,2.60759 -26.5926,-0.84382 -32.1601,-6.6211 l -7.7618,7.48047 c 2.5452,2.64097 5.6267,4.75233 9.0508,6.42969 -1.6011,2.1815 -4.1047,5.05312 -8.3965,8.33008 -9.9892,7.62723 -28.4306,16.68771 -60.8593,19.97656 l 1.0879,10.72461 c 0.7015,-0.0711 1.3118,-0.18338 2.0019,-0.25977 -0.073,0.69574 -0.191,1.31626 -0.2148,2.07618 -0.1967,6.27654 1.2349,15.13879 6.955,26.04687 2.7533,5.25034 8.4073,13.03953 13.9942,20.60156 5.5869,7.56203 11.1505,14.83872 12.5332,16.83985 0.1854,0.26838 0.4435,2.92308 1.0176,7.59765 0.1651,1.34478 0.4827,2.84708 0.9121,4.41016 -1.4932,-0.43346 -1.5029,-0.34496 -3.0879,-0.85156 -3.9069,-1.24871 -7.9037,-2.70313 -10.9453,-4.13672 -3.0416,-1.43359 -4.9979,-3.39446 -4.6778,-2.84766 -2.0967,-3.58081 -5.4552,-6.42347 -10.4394,-10.29883 -4.9842,-3.87536 -11.3963,-8.15601 -18.6231,-12.00976 -14.4534,-7.7075 -32.1807,-14.04591 -48.4668,-10.20117 l 2.4766,10.49218 c 11.7492,-2.77368 27.6537,2.14739 40.918,9.22071 6.6321,3.53665 12.6002,7.52613 17.0781,11.00781 4.4779,3.48168 7.6637,7.08224 7.7539,7.23633 2.3024,3.93214 5.6244,5.37802 9.3848,7.15039 3.7603,1.77236 8.0884,3.32106 12.2597,4.65429 8.3427,2.66648 16.0996,4.4375 16.0997,4.4375 0.886,-0.0215 1.7721,-0.043 2.6581,-0.0644 18.2452,-4.59452 36.9847,-9.83987 54.3066,-12.625 7.4077,-1.16075 13.6746,-1.71211 17.9766,-1.57031 2.151,0.0709 3.8071,0.33443 4.7031,0.60742 0.896,0.27299 0.7907,0.50239 0.4102,-0.0762 l 9.0058,-5.92383 c -0.4571,-0.69506 -1.0757,-1.09049 -1.6367,-1.59766 2.3102,-2.58282 5.6418,-5.27831 9.8887,-7.75781 6.4265,-3.75207 14.4786,-7.05348 22.2949,-9.70703 14.3942,-4.88665 26.6807,-7.33109 28.7266,-7.73047 1.2026,0.51949 6.1671,2.60524 12.6875,5.0918 -2.4605,2.18397 -5.0332,4.72347 -7.4395,8.04687 -6.7217,9.28358 -11.2242,23.88723 -4.3632,41.48633 -2.2565,2.00357 -4.3634,4.47369 -6.8028,7.59571 -2.868,3.67066 -5.9818,7.96454 -9.0117,12.14062 -3.0299,4.17608 -5.9789,8.23808 -8.4082,11.33203 -1.2147,1.54698 -2.3053,2.85427 -3.1426,3.75781 -0.8372,0.90355 -1.6237,1.41017 -1.1367,1.14258 0.2537,-0.1394 -1.0171,0.42088 -2.7109,0.9375 -1.6939,0.51663 -4.0048,1.15306 -6.795,1.86914 -5.5804,1.43217 -13.0915,3.19686 -21.8281,5.15821 -17.4731,3.92268 -39.8703,8.6381 -61.9473,13.17773 -44.1539,9.07926 -87.039,17.45703 -87.039,17.45703 l -1.8789,0.36719 -1.2266,1.46875 c 0,0 -7.4471,9.11402 -25.0293,15.19141 -17.5821,6.07738 -44.9885,8.80267 -84.5488,-6.24415 l -1.6016,-0.60937 -1.6621,0.42969 c -24.9727,6.44462 -41.3399,12.15387 -51.5527,16.30468 -10.2128,4.15082 -14.6152,6.96485 -14.6152,6.96485 l 5.8828,9.0332 c 0,0 3.106,-2.07543 12.791,-6.01172 9.468,-3.84812 25.0245,-9.27334 48.6797,-15.4414 40.6086,15.04349 70.4783,12.56276 90.1484,5.76367 16.0433,-5.54546 25.2254,-13.82061 28.334,-16.96875 1.584,-0.30959 42.1083,-8.22599 85.4902,-17.14649 22.1107,-4.54656 44.5446,-9.26933 62.1367,-13.21875 8.7961,-1.9747 16.377,-3.75366 22.1465,-5.23437 2.8848,-0.74036 5.3121,-1.40398 7.2598,-1.99805 1.9477,-0.59407 3.2211,-0.95836 4.7578,-1.80273 v 0.002 c 1.7768,-0.97627 2.6835,-2.00508 3.8516,-3.26562 1.168,-1.26055 2.3957,-2.74575 3.7148,-4.42579 2.6383,-3.36007 5.6254,-7.48541 8.6543,-11.66015 3.029,-4.17475 6.0957,-8.39689 8.7813,-11.83399 2.6855,-3.43709 5.2438,-6.19103 6.0488,-6.80859 5.1069,-3.91788 11.8956,-11.03656 18.1387,-18.38477 3.1215,-3.6741 6.046,-7.36709 8.4101,-10.70117 2.3642,-3.33407 4.1663,-6.04118 5.1777,-9.06836 1.1085,-3.31778 1.3993,-7.12979 1.7305,-10.7832 0.2603,-2.8711 0.3293,-4.3684 0.3828,-5.32617 1.3798,-1.92986 7.7399,-11.03556 10.7481,-22.73828 v 0 c 2.4207,-9.4194 4.3413,-29.91573 5.4024,-50.53321 0.5305,-10.30874 0.7982,-20.49512 0.6582,-28.98632 -0.1401,-8.49121 -0.3739,-14.79289 -2.0449,-19.57422 -0.8656,-2.47657 -2.3154,-4.9814 -4.4122,-8.41602 -2.0967,-3.43462 -4.8093,-7.5663 -7.9843,-12.19726 -6.3502,-9.26194 -14.541,-20.50372 -23.1465,-31.74805 -8.6056,-11.24434 -17.6168,-22.4801 -25.6231,-31.72852 -8.0062,-9.24841 -14.6713,-16.36449 -20.0586,-20.11328 -3.7624,-2.61813 -8.1818,-3.26994 -13.5878,-3.58789 -2.7031,-0.15897 -5.661,-0.16903 -8.8614,-0.0527 z m -10.334,120.94922 c 1.5727,6.00628 4.3437,12.89564 8.7676,19.41211 7.4902,11.03294 20.3531,20.70562 38.3731,21.40039 -6.8867,13.19154 -6.6531,26.47322 -4.0235,36.63476 1.4969,5.78424 3.6849,10.57842 5.6289,14.22656 -5.9317,1.3424 -14.0839,3.36764 -24.1621,6.78907 -8.2445,2.79891 -16.8506,6.28054 -24.2617,10.60742 -6.2509,3.64952 -11.6763,7.92783 -15.166,13.39258 -0.4783,-0.0302 -0.9189,-0.095 -1.416,-0.11133 -5.4988,-0.18124 -12.2167,0.47539 -20.002,1.69531 -14.672,2.29906 -33.1298,6.75845 -52.1445,12.01367 -2.1492,-2.92618 -2.7541,-5.46828 -3.0957,-8.25 -0.4293,-3.49537 0.3458,-7.79058 -2.8477,-12.41211 -1.996,-2.88869 -7.2214,-9.65783 -12.7324,-17.11718 -5.511,-7.45936 -11.2627,-15.66684 -13.1172,-19.20313 -4.9597,-9.458 -5.8654,-16.3338 -5.7285,-20.70312 0.06,-1.89767 0.2803,-3.00806 0.4883,-3.90039 26.3065,-4.32936 43.054,-12.59113 53.2637,-20.38672 5.9052,-4.50891 9.6196,-8.82171 11.8046,-12.15039 0.3203,-0.48793 0.4084,-0.84565 0.6661,-1.28711 6.8757,1.31781 14.4761,1.3 22.2402,-0.1543 12.9627,-2.42807 26.4542,-9.04307 37.4648,-20.49609 z m 102.6446,60.40429 c -0.6104,6.21832 -1.2121,11.87179 -1.8594,16.13672 -0.039,-4.3971 0.077,-7.95608 -0.061,-12.67187 -0.022,-0.7419 -0.068,-1.48373 -0.092,-2.22852 0.7099,-0.51516 1.3767,-0.98591 2.0117,-1.23633 z m -12.6914,4.66797 c 0.2943,10.64218 0.3565,20.95847 0.1406,28.50195 -0.091,3.18672 -0.2552,5.4794 -0.4258,7.48243 -1.1929,-0.17304 -1.3635,-0.10816 -3.0234,-0.56446 -0.5719,-0.15719 -1.3152,-0.45765 -1.9219,-0.63867 -8.0947,-15.78812 -4.8048,-24.2292 0.033,-30.0918 1.6108,-1.95193 3.422,-3.42556 5.1973,-4.68945 z m -8.2989,45.10938 c 0.6967,0.20789 1.4577,0.51949 2.1329,0.70507 1.5971,0.43906 3,0.78721 4.416,1.09375 -0.044,0.54874 -0.027,0.50801 -0.08,1.09766 -0.309,3.40868 -0.9907,7.65913 -1.2188,8.3418 -0.1918,0.57424 -1.6404,3.28051 -3.7461,6.25 -2.1056,2.96949 -4.8696,6.47021 -7.832,9.95703 -2.9652,3.49019 -6.1888,7.00083 -9.1211,9.98828 -3.5919,-12.19471 -0.1352,-20.74089 4.5508,-27.21289 4.3455,-6.00172 8.8651,-8.97714 10.8984,-10.2207 z"
       id="path4708"
       inkscape:connector-curvature="0"
       sodipodi:nodetypes="csscccccccccccccccscccsssccccccccccccssscccssscccccccccsscccsssccccccccccccccccccsscscccccccccsccccscsccccsccccccssccccccccccscccccsscccccccsccccscsccsccccccccccccccccccccccccccccccscccccccsccccccccccccccccccccccccccccccscc" />
  </g>
</svg>
