<?xml version="1.0" encoding="UTF-8" standalone="no"?>
<!-- Created with Inkscape (http://www.inkscape.org/) -->

<svg
   xmlns:dc="http://purl.org/dc/elements/1.1/"
   xmlns:cc="http://creativecommons.org/ns#"
   xmlns:rdf="http://www.w3.org/1999/02/22-rdf-syntax-ns#"
   xmlns:svg="http://www.w3.org/2000/svg"
   xmlns="http://www.w3.org/2000/svg"
   xmlns:sodipodi="http://sodipodi.sourceforge.net/DTD/sodipodi-0.dtd"
   xmlns:inkscape="http://www.inkscape.org/namespaces/inkscape"
   width="1000"
   height="1250"
   viewBox="0 0 1000 1250"
   version="1.1"
   id="svg48019"
   inkscape:version="0.92.4 (5da689c313, 2019-01-14)"
   sodipodi:docname="Esquecer.svg">
  <defs
     id="defs48013" />
  <sodipodi:namedview
     id="base"
     pagecolor="#ffffff"
     bordercolor="#666666"
     borderopacity="1.0"
     inkscape:pageopacity="0.0"
     inkscape:pageshadow="2"
     inkscape:zoom="0.25"
     inkscape:cx="1463.9726"
     inkscape:cy="404.45616"
     inkscape:document-units="px"
     inkscape:current-layer="layer1"
     showgrid="false"
     units="px"
     inkscape:window-width="716"
     inkscape:window-height="706"
     inkscape:window-x="-7"
     inkscape:window-y="0"
     inkscape:window-maximized="0" />
  <metadata
     id="metadata48016">
    <rdf:RDF>
      <cc:Work
         rdf:about="">
        <dc:format>image/svg+xml</dc:format>
        <dc:type
           rdf:resource="http://purl.org/dc/dcmitype/StillImage" />
        <dc:title></dc:title>
      </cc:Work>
    </rdf:RDF>
  </metadata>
  <g
     inkscape:label="Camada 1"
     inkscape:groupmode="layer"
     id="layer1"
     transform="translate(0,217.58335)">
    <path
       style="color:#000000;font-style:normal;font-variant:normal;font-weight:normal;font-stretch:normal;font-size:medium;line-height:normal;font-family:sans-serif;font-variant-ligatures:normal;font-variant-position:normal;font-variant-caps:normal;font-variant-numeric:normal;font-variant-alternates:normal;font-feature-settings:normal;text-indent:0;text-align:start;text-decoration:none;text-decoration-line:none;text-decoration-style:solid;text-decoration-color:#000000;letter-spacing:normal;word-spacing:normal;text-transform:none;writing-mode:lr-tb;direction:ltr;text-orientation:mixed;dominant-baseline:auto;baseline-shift:baseline;text-anchor:start;white-space:normal;shape-padding:0;clip-rule:nonzero;display:inline;overflow:visible;visibility:visible;opacity:1;isolation:auto;mix-blend-mode:normal;color-interpolation:sRGB;color-interpolation-filters:linearRGB;solid-color:#000000;solid-opacity:1;vector-effect:none;fill:#000000;fill-opacity:1;fill-rule:nonzero;stroke:none;stroke-width:41.24795532;stroke-linecap:butt;stroke-linejoin:miter;stroke-miterlimit:4;stroke-dasharray:none;stroke-dashoffset:0;stroke-opacity:1;color-rendering:auto;image-rendering:auto;shape-rendering:auto;text-rendering:auto;enable-background:accumulate"
       d="m 481.31711,-217.16491 c -158.92751,-0.0342 -268.10809,63.78523 -330.90942,159.249371 -15.74381,23.93209 -28.6427,49.6980899 -38.91749,76.81844 8.99999,-1.19744 0.58014,-12.6649001 31.01223,-31.34059 l -10.00085,428.220199 -20.93142,5.69193 c 22.39593,74.7121 55.70922,144.91463 97.49482,203.46299 66.50011,93.17736 156.03165,158.0818 257.86684,157.475 101.7872,-0.6063 190.5862,-66.1963 256.69349,-159.68806 C 789.73253,529.23253 834.68998,406.59365 849.62059,283.4871 864.55119,160.38062 849.5978,36.358361 791.59288,-58.745449 733.59899,-153.83034 630.83722,-217.68947 481.40296,-217.16491 Z m 0.0669,41.24804 h 0.049 0.0391 c 138.03648,-0.50819 223.65632,54.61436 274.91358,138.653981 51.25722,84.03961 66.41968,199.314869 52.29452,315.780059 C 794.5551,394.98228 751.28305,512.17973 689.95388,598.91421 628.62433,685.64861 550.77795,740.67306 466.68585,741.17404 382.64169,741.6747 304.26403,687.31231 242.6454,600.97469 204.1587,547.04864 172.82504,481.13365 151.56623,410.86256 l -19.06271,4.91995 10.00085,-428.220199 36.50554,-13.56768 c 1.90284,-3.12056 3.85467,-6.20259 5.85594,-9.24472 55.6091,-84.531161 148.29369,-140.720311 296.52019,-140.666781 z"
       id="path10-9"
       inkscape:connector-curvature="0"
       sodipodi:nodetypes="csccccssssscccccsssssccccscc" />
    <path
       style="color:#000000;font-style:normal;font-variant:normal;font-weight:normal;font-stretch:normal;font-size:medium;line-height:normal;font-family:sans-serif;font-variant-ligatures:normal;font-variant-position:normal;font-variant-caps:normal;font-variant-numeric:normal;font-variant-alternates:normal;font-feature-settings:normal;text-indent:0;text-align:start;text-decoration:none;text-decoration-line:none;text-decoration-style:solid;text-decoration-color:#000000;letter-spacing:normal;word-spacing:normal;text-transform:none;writing-mode:lr-tb;direction:ltr;text-orientation:mixed;dominant-baseline:auto;baseline-shift:baseline;text-anchor:start;white-space:normal;shape-padding:0;clip-rule:nonzero;display:inline;overflow:visible;visibility:visible;opacity:1;isolation:auto;mix-blend-mode:normal;color-interpolation:sRGB;color-interpolation-filters:linearRGB;solid-color:#000000;solid-opacity:1;vector-effect:none;fill:#000000;fill-opacity:1;fill-rule:nonzero;stroke:none;stroke-width:15.08269405;stroke-linecap:butt;stroke-linejoin:miter;stroke-miterlimit:4;stroke-dasharray:none;stroke-dashoffset:0;stroke-opacity:1;color-rendering:auto;image-rendering:auto;shape-rendering:auto;text-rendering:auto;enable-background:accumulate"
       d="m 453.86659,335.72078 c 0,0 -1.30341,5.36724 -3.59043,16.23957 -2.28702,10.87229 -7.71193,22.64981 -9.19589,23.88645 -2.28221,1.90182 -4.69782,3.49027 -5.9621,8.54721 -0.63214,2.52854 -0.26905,6.29849 1.34503,8.9288 1.61409,2.63031 3.70749,3.918 5.29433,4.66472 6.34744,2.98697 9.61165,1.83353 13.92742,1.53584 8.63158,-0.59532 17.97208,-2.51839 17.97208,-2.51839 l -4.04469,-20.22332 c 0,0 -3.63996,0.45813 -5.28476,0.74402 3.00689,-6.88644 4.66438,-14.33501 6.13375,-21.32033 2.58843,-12.30501 3.02989,-28.77697 3.02989,-28.77697 z"
       id="path971"
       inkscape:connector-curvature="0"
       sodipodi:nodetypes="csccccccccccc" />
    <path
       style="color:#000000;font-style:normal;font-variant:normal;font-weight:normal;font-stretch:normal;font-size:medium;line-height:normal;font-family:sans-serif;font-variant-ligatures:normal;font-variant-position:normal;font-variant-caps:normal;font-variant-numeric:normal;font-variant-alternates:normal;font-feature-settings:normal;text-indent:0;text-align:start;text-decoration:none;text-decoration-line:none;text-decoration-style:solid;text-decoration-color:#000000;letter-spacing:normal;word-spacing:normal;text-transform:none;writing-mode:lr-tb;direction:ltr;text-orientation:mixed;dominant-baseline:auto;baseline-shift:baseline;text-anchor:start;white-space:normal;shape-padding:0;clip-rule:nonzero;display:inline;overflow:visible;visibility:visible;opacity:1;isolation:auto;mix-blend-mode:normal;color-interpolation:sRGB;color-interpolation-filters:linearRGB;solid-color:#000000;solid-opacity:1;vector-effect:none;fill:#000000;fill-opacity:1;fill-rule:nonzero;stroke:none;stroke-width:41.24795532;stroke-linecap:butt;stroke-linejoin:miter;stroke-miterlimit:4;stroke-dasharray:none;stroke-dashoffset:0;stroke-opacity:1;color-rendering:auto;image-rendering:auto;shape-rendering:auto;text-rendering:auto;enable-background:accumulate"
       d="m 1881.1984,-217.16491 c -158.9275,-0.0342 -268.1081,63.78528 -330.9094,159.249371 -10.9252,16.60736 -20.4805,34.09783 -28.7394,52.3111399 l 19.7134,5.10246002 -40.6059,227.31716908 -20.8228,8.23672 c 0.6727,16.83858 1.9651,33.73135 3.8417,50.60059 13.7283,123.41306 58.7702,246.10758 125.2702,339.28489 66.5002,93.17736 156.0414,158.0818 257.8764,157.475 101.7873,-0.6063 190.5863,-66.1963 256.6935,-159.68806 66.1073,-93.49184 111.0648,-216.13076 125.9954,-339.23727 14.9305,-123.10648 -0.023,-247.128739 -58.0276,-342.232549 -57.994,-95.084891 -160.7654,-158.944021 -310.1996,-158.419461 z m 0.076,41.24804 h 0.039 0.039 c 138.0365,-0.50819 223.6564,54.61436 274.9136,138.653981 51.2573,84.03961 66.4198,199.314939 52.2946,315.780059 -14.1252,116.46511 -57.3972,233.66256 -118.7264,320.39704 -61.3291,86.7344 -139.166,141.75885 -223.2581,142.25983 -84.0442,0.50066 -162.4314,-53.8618 -224.05,-140.19935 -61.6185,-86.33758 -104.8922,-203.40664 -117.8488,-319.88194 -2.1963,-19.74555 -3.5199,-39.45842 -3.9324,-58.99396 -11.7347,-0.41903 -20.0881,4.71644 -20.0881,4.71644 l 40.6059,-227.31716908 20.8923,5.52032998 c 6.6788,-14.05628 14.2002,-27.5130899 22.5915,-40.2684799 55.609,-84.531161 148.3031,-140.720311 296.5297,-140.666781 z"
       id="path10-9-6"
       inkscape:connector-curvature="0"
       sodipodi:nodetypes="csccccsssssccccccssssssccccscc" />
    <path
       style="color:#000000;font-style:normal;font-variant:normal;font-weight:normal;font-stretch:normal;font-size:medium;line-height:normal;font-family:sans-serif;font-variant-ligatures:normal;font-variant-position:normal;font-variant-caps:normal;font-variant-numeric:normal;font-variant-alternates:normal;font-feature-settings:normal;text-indent:0;text-align:start;text-decoration:none;text-decoration-line:none;text-decoration-style:solid;text-decoration-color:#000000;letter-spacing:normal;word-spacing:normal;text-transform:none;writing-mode:lr-tb;direction:ltr;text-orientation:mixed;dominant-baseline:auto;baseline-shift:baseline;text-anchor:start;white-space:normal;shape-padding:0;clip-rule:nonzero;display:inline;overflow:visible;visibility:visible;opacity:1;isolation:auto;mix-blend-mode:normal;color-interpolation:sRGB;color-interpolation-filters:linearRGB;solid-color:#000000;solid-opacity:1;vector-effect:none;fill:#000000;fill-opacity:1;fill-rule:nonzero;stroke:none;stroke-width:20.62397766;stroke-linecap:butt;stroke-linejoin:miter;stroke-miterlimit:4;stroke-dasharray:none;stroke-dashoffset:0;stroke-opacity:1;color-rendering:auto;image-rendering:auto;shape-rendering:auto;text-rendering:auto;enable-background:accumulate"
       d="m 1859.1816,279.60811 c 0,0 -2.326,22.95545 -6.1738,47.06836 -1.9239,12.05646 -4.242,24.40153 -6.7324,33.99414 -1.2452,4.79631 -2.5506,8.91573 -3.7188,11.75586 -1.1681,2.84014 -2.6773,4.32483 -1.5937,3.42188 -2.2822,1.90181 -4.6967,3.48987 -5.9609,8.54687 -0.6322,2.5285 -0.2704,6.29548 1.3437,8.92579 1.6141,2.6303 3.712,3.91536 5.2988,4.6621 6.3474,2.98699 9.6061,1.84062 13.9219,1.54297 8.6316,-0.59528 17.9805,-2.51953 17.9805,-2.51953 l -4.0449,-20.22265 c 0,0 -3.1817,0.55554 -7.0274,1.13671 1.3663,-3.66454 2.6132,-7.63506 3.7637,-12.0664 2.7831,-10.71998 5.1524,-23.50491 7.1347,-35.92774 3.9648,-24.84566 6.3262,-48.24414 6.3262,-48.24414 z"
       id="path971-9"
       inkscape:connector-curvature="0" />
    <path
       style="color:#000000;font-style:normal;font-variant:normal;font-weight:normal;font-stretch:normal;font-size:medium;line-height:normal;font-family:sans-serif;font-variant-ligatures:normal;font-variant-position:normal;font-variant-caps:normal;font-variant-numeric:normal;font-variant-alternates:normal;font-feature-settings:normal;text-indent:0;text-align:start;text-decoration:none;text-decoration-line:none;text-decoration-style:solid;text-decoration-color:#000000;letter-spacing:normal;word-spacing:normal;text-transform:none;writing-mode:lr-tb;direction:ltr;text-orientation:mixed;dominant-baseline:auto;baseline-shift:baseline;text-anchor:start;white-space:normal;shape-padding:0;clip-rule:nonzero;display:inline;overflow:visible;visibility:visible;opacity:1;isolation:auto;mix-blend-mode:normal;color-interpolation:sRGB;color-interpolation-filters:linearRGB;solid-color:#000000;solid-opacity:1;vector-effect:none;fill:#000000;fill-opacity:1;fill-rule:nonzero;stroke:none;stroke-width:15.08269405;stroke-linecap:butt;stroke-linejoin:miter;stroke-miterlimit:4;stroke-dasharray:none;stroke-dashoffset:0;stroke-opacity:1;color-rendering:auto;image-rendering:auto;shape-rendering:auto;text-rendering:auto;enable-background:accumulate"
       d="m 1060.6641,-93.034459 c -6.4057,-0.1742 -13.3745,-0.19584 -20.5664,0.0527 -28.7677,0.9943 -61.98261,5.13287 -78.54301,25.93945 l 0.35937,-0.41992 c 0,0 -6.75811,7.31134 -13.66601,16.78711 -6.90791,9.47577 -14.5685,20.46103 -15.26953,32.34766 l -0.0234,0.40039 0.008,0.17969 c -0.011,-0.032 -0.0207,-0.0745 -0.084,0.21289 -0.1614,0.73317 -0.58748,2.23958 -1.67579,4.57812 -2.1766,4.6770799 -7.0221,12.67548992 -17.47656,24.29492 l -0.51367,0.57032 -0.38672,0.66406 c -14.71447,25.12654 -41.05177,75.14069 -52.84375,131.162109 l 14.75977,3.10547 C 885.90876,93.791291 911.269,45.161641 925.56857,20.686211 936.30572,8.6393909 941.9442,-0.29075908 944.87716,-6.5930891 c 1.49826,-3.21943 2.30536,-5.7681299 2.73047,-7.6992199 0.42511,-1.93108 0.43164,-3.94531 0.43164,-3.94531 l -0.004,0.79883 c 0.26129,-4.43038 6.07485,-15.67465 12.40039,-24.35156 6.32553,-8.67692 12.56054,-15.44141 12.56054,-15.44141 l 0.1875,-0.20312 0.17188,-0.21485 c 10.38771,-13.05117 39.96982,-19.31445 67.26362,-20.25781 26.9429,-0.93123 50.4352,2.11582 51.045,2.19531 21.4352,6.9643 56.9815,8.9921 57.8652,9.04102 l 140.4316,19.56836 0.1719,0.0156 c 38.4618,3.57851 58.2672,11.62708 58.4395,11.69727 16.2532,8.44623 45.6994,16.11154 72.2031,22.34961 26.8303,6.3149099 50.0684,10.7246099 50.0684,10.7246099 l 0.2675,0.0508 0.2715,0.0332 c 19.3004,2.23102001502 74.0059,16.5214801 74.0059,16.5214801 l 0.1152,0.0313 0.1172,0.0273 c 27.7454,6.41446 40.3682,17.29795 46.498,25.92969 6.1299,8.63173 5.8868,14.44921 5.8868,14.44921 v 6.12696 l 5.9941,1.25586 c 23.6999,4.96334 38.4927,23.48218 41.0176,40.552729 1.2624,8.53528 -0.4122,16.44815 -5.2012,22.75 -4.789,6.30186 -12.9318,11.42015 -26.3574,13.26367 l -9.8809,1.35743 3.9981,9.13671 c 3.2586,7.4473 5.2028,14.26894 5.0664,19.86133 -0.1365,5.5924 -1.796,10.12748 -7.3731,15.23438 -11.1542,10.2138 -40.1265,20.64637 -98.3086,25.90429 l -1.2031,0.10938 -1.1094,0.47852 c -105.2724,45.47223 -333.4902,100.97656 -333.4902,100.97656 l -2.0117,0.48633 -1.4805,1.44531 c -10.7756,10.51679 -32.9725,24.36712 -50.9883,31.84961 l -1.9511,0.81054 -1.2461,1.70508 c 0,0 -5.8545,8.16373 -19.9532,16.74414 -14.0986,8.58042 -35.9508,17.09333 -67.4804,16.12891 l -0.3399,-0.01 -0.3379,0.0195 c 0,0 -38.37391,2.15766 -57.48628,5.89649 l 2.89649,14.80078 c 16.24564,-3.17803 55.25969,-5.62569 55.40429,-5.63477 34.164,0.92365 59.0075,-8.47047 75.1855,-18.3164 12.6404,-7.69287 20.1549,-15.78108 22.9454,-19.08203 18.6748,-8.00451 39.132,-20.52882 52.1152,-32.61524 5.1266,-1.24111 225.5005,-54.70705 333.0742,-100.89648 58.591,-5.38791 89.7236,-14.81835 105.9512,-29.67774 8.1714,-7.48252 12.0447,-16.85571 12.2676,-25.99023 0.1481,-6.07222 -1.1398,-11.94776 -3.0547,-17.6875 11.9142,-3.24332 21.1335,-9.24861 27.1562,-17.17383 7.4923,-9.85904 9.8726,-22.18794 8.1133,-34.08203 -3.3101,-22.378969 -20.9397,-43.952659 -47.7871,-51.642579 -0.9831,-4.40877 -3.0227,-10.63283 -7.7344,-17.26758 -8.427,-11.8665 -24.9166,-24.8455001 -55.3984,-31.89257008 -0.4134,-0.11101 -52.1607,-13.99603992 -75.3614,-16.78710992 l -0.01,-0.002 c -0.012,-0.002 -22.9587,-4.3588 -49.416,-10.58593 -26.4643,-6.2288 -56.9573,-14.7715 -69.2285,-21.29493 l -0.3457,-0.18554 -0.3652,-0.14649 c 0,0 -22.3591,-8.9481 -62.42,-12.71679 l -140.7929,-19.61914 -0.2793,-0.0176 c 0,0 -38.3961,-2.84859 -55.3281,-8.58985 l -0.6993,-0.23828 -0.7324,-0.0957 c 0,0 -14.1601,-1.88562 -33.3769,-2.4082 z"
       id="path57022"
       inkscape:connector-curvature="0" />
    <path
       style="color:#000000;font-style:normal;font-variant:normal;font-weight:normal;font-stretch:normal;font-size:medium;line-height:normal;font-family:sans-serif;font-variant-ligatures:normal;font-variant-position:normal;font-variant-caps:normal;font-variant-numeric:normal;font-variant-alternates:normal;font-feature-settings:normal;text-indent:0;text-align:start;text-decoration:none;text-decoration-line:none;text-decoration-style:solid;text-decoration-color:#000000;letter-spacing:normal;word-spacing:normal;text-transform:none;writing-mode:lr-tb;direction:ltr;text-orientation:mixed;dominant-baseline:auto;baseline-shift:baseline;text-anchor:start;white-space:normal;shape-padding:0;clip-rule:nonzero;display:inline;overflow:visible;visibility:visible;opacity:1;isolation:auto;mix-blend-mode:normal;color-interpolation:sRGB;color-interpolation-filters:linearRGB;solid-color:#000000;solid-opacity:1;vector-effect:none;fill:#000000;fill-opacity:1;fill-rule:nonzero;stroke:none;stroke-width:15.08269405;stroke-linecap:butt;stroke-linejoin:miter;stroke-miterlimit:4;stroke-dasharray:none;stroke-dashoffset:0;stroke-opacity:1;color-rendering:auto;image-rendering:auto;shape-rendering:auto;text-rendering:auto;enable-background:accumulate"
       d="m 1299.6523,-4.4153191 c -14.0214,-0.30335 -30.4105,0.10192 -49.2187,1.71093 l 0.2539,-0.0176 c 0,0 -33.4878,1.72782002 -69.7656,3.24023002 -36.2779,1.51240998 -76.4763,2.68069998 -85.791,1.96288998 l -1.1582,15.0390601 c 13.1431,1.01284 51.2062,-0.41539 87.5761,-1.93164 36.3699,-1.51624 69.916,-3.24804 69.916,-3.24804 l 0.127,-0.008 0.127,-0.01 c 36.5626,-3.1278801 63.4009,-1.55239 80.9765,0.75586 17.5756,2.30825 25.4024,5.17383 25.4024,5.17383 l 0.037,0.0137 0.037,0.0137 c 32.0344,11.10908 90.8906,16.5332 90.8906,16.5332 l 0.6387,0.0625 0.6386,-0.0469 c 3.9267,-0.28532 17.0989,1.01609 32.6582,3.48047 15.5594,2.46437 34.221,5.93364 52.1485,9.45898 35.8549,7.05068 68.7734,14.32422 68.7734,14.32422 l 3.2539,-14.72852 c 0,0 -33.0505,-7.3022 -69.1172,-14.39453 -18.0333,-3.54616 -36.8199,-7.04189 -52.6972,-9.55664 -15.2356,-2.4131 -27.0254,-4.01538 -35.0156,-3.63281 -0.551,-0.0567 -59.507,-6.13589 -87.2305,-15.7500001 l 0.076,0.0254 c 0,0 -9.868,-3.48053998 -28.5313,-5.93164 -9.3316,-1.22555 -20.9844,-2.23572 -35.0059,-2.53906 z"
       id="path57024"
       inkscape:connector-curvature="0" />
    <path
       style="color:#000000;font-style:normal;font-variant:normal;font-weight:normal;font-stretch:normal;font-size:medium;line-height:normal;font-family:sans-serif;font-variant-ligatures:normal;font-variant-position:normal;font-variant-caps:normal;font-variant-numeric:normal;font-variant-alternates:normal;font-feature-settings:normal;text-indent:0;text-align:start;text-decoration:none;text-decoration-line:none;text-decoration-style:solid;text-decoration-color:#000000;letter-spacing:normal;word-spacing:normal;text-transform:none;writing-mode:lr-tb;direction:ltr;text-orientation:mixed;dominant-baseline:auto;baseline-shift:baseline;text-anchor:start;white-space:normal;shape-padding:0;clip-rule:nonzero;display:inline;overflow:visible;visibility:visible;opacity:1;isolation:auto;mix-blend-mode:normal;color-interpolation:sRGB;color-interpolation-filters:linearRGB;solid-color:#000000;solid-opacity:1;vector-effect:none;fill:#000000;fill-opacity:1;fill-rule:nonzero;stroke:none;stroke-width:15.08269405;stroke-linecap:butt;stroke-linejoin:miter;stroke-miterlimit:4;stroke-dasharray:none;stroke-dashoffset:0;stroke-opacity:1;color-rendering:auto;image-rendering:auto;shape-rendering:auto;text-rendering:auto;enable-background:accumulate"
       d="m 1296.459,117.22725 -0.8555,0.043 c 0,0 -25.1471,1.2974 -53.3418,2.44922 -28.1946,1.15183 -59.901,2.11693 -71.1347,1.58789 l -0.094,-0.004 -0.094,-0.002 c 0,0 -25.3753,-0.90984 -40.5997,2.48633 l 3.2832,14.72071 c 10.6363,-2.3727 36.9805,-2.12891 36.9805,-2.12891 l -0.1855,-0.006 c 13.2658,0.62473 44.1687,-0.42825 72.459,-1.58399 27.9195,-1.14058 52.1523,-2.39045 52.8007,-2.42382 34.5445,5.87943 89.7735,3.43359 89.7735,3.43359 l 0.3476,-0.0156 0.3438,-0.0449 c 11.16,-1.49371 35.5886,-0.23649 56.3437,1.62305 20.7552,1.85954 38.3184,4.14844 38.3184,4.14844 43.3843,7.08531 133.248,12.16601 133.248,12.16601 l 0.8633,-15.05859 c 0,0 -90.8283,-5.28608 -131.916,-12.02734 l -0.123,-0.0195 -0.1231,-0.0156 c 0,0 -17.8238,-2.32653 -38.9219,-4.2168 -21.098,-1.89026 -44.9889,-3.51642 -59.6894,-1.54883 l 0.6914,-0.0605 c 0,0 -56.6706,2.0966 -87.5313,-3.35352 z"
       id="path57026"
       inkscape:connector-curvature="0" />
    <path
       style="color:#000000;font-style:normal;font-variant:normal;font-weight:normal;font-stretch:normal;font-size:medium;line-height:normal;font-family:sans-serif;font-variant-ligatures:normal;font-variant-position:normal;font-variant-caps:normal;font-variant-numeric:normal;font-variant-alternates:normal;font-feature-settings:normal;text-indent:0;text-align:start;text-decoration:none;text-decoration-line:none;text-decoration-style:solid;text-decoration-color:#000000;letter-spacing:normal;word-spacing:normal;text-transform:none;writing-mode:lr-tb;direction:ltr;text-orientation:mixed;dominant-baseline:auto;baseline-shift:baseline;text-anchor:start;white-space:normal;shape-padding:0;clip-rule:nonzero;display:inline;overflow:visible;visibility:visible;opacity:1;isolation:auto;mix-blend-mode:normal;color-interpolation:sRGB;color-interpolation-filters:linearRGB;solid-color:#000000;solid-opacity:1;vector-effect:none;fill:#000000;fill-opacity:1;fill-rule:nonzero;stroke:none;stroke-width:15.08269405;stroke-linecap:butt;stroke-linejoin:miter;stroke-miterlimit:4;stroke-dasharray:none;stroke-dashoffset:0;stroke-opacity:1;color-rendering:auto;image-rendering:auto;shape-rendering:auto;text-rendering:auto;enable-background:accumulate"
       d="m 1506.6836,210.20186 c 0,0 -50.0864,6.25151 -73.0449,5.71094 l -0.6407,-0.0156 -0.6328,0.0918 c 0,0 -34.5589,4.83708 -49.4707,9.49414 l 0.5274,-0.14453 c 0,0 -51.9265,11.80168 -81.5781,10.19727 l -0.1641,-0.01 -0.1641,-0.002 c 0,0 -27.495,-0.28673 -58.1035,-1.29297 -30.6085,-1.00624 -65.3594,-3.0656 -75.7207,-5.43945 l -0.1777,-0.041 -0.1817,-0.0312 c 0,0 -13.2859,-2.39172 -27.5449,-2.99609 l -0.6387,15.07031 c 12.9627,0.54943 25.5352,2.77344 25.5352,2.77344 l -0.3594,-0.0742 c 14.8187,3.39507 47.7814,4.79962 78.5918,5.8125 30.8104,1.01288 58.4414,1.30078 58.4414,1.30078 l -0.3281,-0.01 c 34.3194,1.85697 85.834,-10.57227 85.834,-10.57227 l 0.2656,-0.0625 0.2617,-0.082 c 10.8251,-3.38076 45.9244,-8.77173 46.7246,-8.89453 26.2276,0.4728 74.4805,-5.82227 74.4805,-5.82227 z"
       id="path57028"
       inkscape:connector-curvature="0" />
    <path
       style="color:#000000;font-style:normal;font-variant:normal;font-weight:normal;font-stretch:normal;font-size:medium;line-height:normal;font-family:sans-serif;font-variant-ligatures:normal;font-variant-position:normal;font-variant-caps:normal;font-variant-numeric:normal;font-variant-alternates:normal;font-feature-settings:normal;text-indent:0;text-align:start;text-decoration:none;text-decoration-line:none;text-decoration-style:solid;text-decoration-color:#000000;letter-spacing:normal;word-spacing:normal;text-transform:none;writing-mode:lr-tb;direction:ltr;text-orientation:mixed;dominant-baseline:auto;baseline-shift:baseline;text-anchor:start;white-space:normal;shape-padding:0;clip-rule:nonzero;display:inline;overflow:visible;visibility:visible;opacity:1;isolation:auto;mix-blend-mode:normal;color-interpolation:sRGB;color-interpolation-filters:linearRGB;solid-color:#000000;solid-opacity:1;vector-effect:none;fill:#000000;fill-opacity:1;fill-rule:nonzero;stroke:none;stroke-width:15.08269405;stroke-linecap:butt;stroke-linejoin:miter;stroke-miterlimit:4;stroke-dasharray:none;stroke-dashoffset:0;stroke-opacity:1;color-rendering:auto;image-rendering:auto;shape-rendering:auto;text-rendering:auto;enable-background:accumulate"
       d="m 1586.8555,140.32686 c -12.4514,0.3948 -22.0181,2.82213 -29.2246,7.00977 -9.6087,5.58352 -14.5163,15.42909 -13.2032,24.58594 2.6264,18.31369 23.7736,31.74073 49.6426,28.15429 l 2.209,-0.30664 1.6875,-1.45898 c 13.7778,-11.91291 16.5356,-26.43754 14.9102,-36.89649 -1.6255,-10.45894 -7.0215,-17.72656 -7.0215,-17.72656 l -2.0703,-2.82812 -3.4981,-0.24024 c -4.8109,-0.32991 -9.2812,-0.42456 -13.4316,-0.29297 z m 0.5332,15.11329 c 2.4047,-0.0879 5.2411,0.053 7.998,0.15234 0.9668,1.97047 2.0596,4.73907 2.5879,8.13867 0.9574,6.16049 0.3734,13.33344 -8.1601,21.5293 -18.224,1.57741 -29.5271,-8.99379 -30.4571,-15.47852 -0.4839,-3.37438 0.2305,-6.13991 5.8516,-9.40625 4.2158,-2.44975 11.4755,-4.54414 22.1797,-4.93554 z"
       id="path57030"
       inkscape:connector-curvature="0" />
    <path
       style="color:#000000;font-style:normal;font-variant:normal;font-weight:normal;font-stretch:normal;font-size:medium;line-height:normal;font-family:sans-serif;font-variant-ligatures:normal;font-variant-position:normal;font-variant-caps:normal;font-variant-numeric:normal;font-variant-alternates:normal;font-feature-settings:normal;text-indent:0;text-align:start;text-decoration:none;text-decoration-line:none;text-decoration-style:solid;text-decoration-color:#000000;letter-spacing:normal;word-spacing:normal;text-transform:none;writing-mode:lr-tb;direction:ltr;text-orientation:mixed;dominant-baseline:auto;baseline-shift:baseline;text-anchor:start;white-space:normal;shape-padding:0;clip-rule:nonzero;display:inline;overflow:visible;visibility:visible;opacity:1;isolation:auto;mix-blend-mode:normal;color-interpolation:sRGB;color-interpolation-filters:linearRGB;solid-color:#000000;solid-opacity:1;vector-effect:none;fill:#000000;fill-opacity:1;fill-rule:nonzero;stroke:none;stroke-width:15.08269405;stroke-linecap:butt;stroke-linejoin:miter;stroke-miterlimit:4;stroke-dasharray:none;stroke-dashoffset:0;stroke-opacity:1;color-rendering:auto;image-rendering:auto;shape-rendering:auto;text-rendering:auto;enable-background:accumulate"
       d="m 1609.1953,66.654991 c -13.3159,0.34302 -23.476,3.33984 -30.9004,8.69141 -9.8991,7.13541 -13.6199,18.68479 -12.0918,29.154289 3.0562,20.93901 23.1608,40.49921 48.2285,39.75782 l 1.5391,-0.0449 1.3965,-0.64453 c 0,0 11.5296,-5.16793 18.6836,-17.35937 7.154,-12.19144 8.8663,-31.786839 -6.8867,-55.648439 l -1.9903,-3.01367 -3.5957,-0.33985 c -5.1552,-0.48651 -9.9442,-0.66707 -14.3828,-0.55273 z m 0.4785,15.11133 c 2.6288,-0.077 5.7553,0.13817 8.8282,0.32422 11.2044,18.525869 8.8077,29.215279 4.541,36.486319 -3.8371,6.53893 -8.992,9.5376 -10.7012,10.4668 -15.7372,-0.53369 -29.4906,-14.92067 -31.2129,-26.7207 -0.8914,-6.107179 0.4481,-10.749659 5.9844,-14.740239 4.1522,-2.99293 11.4044,-5.48972 22.5605,-5.8164 z"
       id="path57032"
       inkscape:connector-curvature="0" />
    <path
       style="color:#000000;font-style:normal;font-variant:normal;font-weight:normal;font-stretch:normal;font-size:medium;line-height:normal;font-family:sans-serif;font-variant-ligatures:normal;font-variant-position:normal;font-variant-caps:normal;font-variant-numeric:normal;font-variant-alternates:normal;font-feature-settings:normal;text-indent:0;text-align:start;text-decoration:none;text-decoration-line:none;text-decoration-style:solid;text-decoration-color:#000000;letter-spacing:normal;word-spacing:normal;text-transform:none;writing-mode:lr-tb;direction:ltr;text-orientation:mixed;dominant-baseline:auto;baseline-shift:baseline;text-anchor:start;white-space:normal;shape-padding:0;clip-rule:nonzero;display:inline;overflow:visible;visibility:visible;opacity:1;isolation:auto;mix-blend-mode:normal;color-interpolation:sRGB;color-interpolation-filters:linearRGB;solid-color:#000000;solid-opacity:1;vector-effect:none;fill:#000000;fill-opacity:1;fill-rule:nonzero;stroke:none;stroke-width:15.08269405;stroke-linecap:butt;stroke-linejoin:miter;stroke-miterlimit:4;stroke-dasharray:none;stroke-dashoffset:0;stroke-opacity:1;color-rendering:auto;image-rendering:auto;shape-rendering:auto;text-rendering:auto;enable-background:accumulate"
       d="m 1557.6406,16.811241 c -6.2611,-0.16145 -13.0292,0.3898 -19.3652,3.21094 -6.336,2.82114 -12.1601,8.63595 -14.1426,16.74218 l 14.6524,3.58399 c 0.9098,-3.72009 2.4865,-5.15143 5.625,-6.54883 3.1384,-1.3974 7.9165,-2.03716 12.8418,-1.91016 8.977,0.23148 17.0192,2.49628 18.5273,2.93165 2.2801,1.69761 4.3736,5.32196 5.5391,9.1914 1.2571,4.17404 1.4785,7.67969 1.4785,7.67969 l 15.0566,-0.88672 c 0,0 -0.2885,-5.1489 -2.0937,-11.14258 -1.8052,-5.99367 -5.0945,-13.68283 -12.8145,-18.26367 l -0.7656,-0.45508 -0.8496,-0.26172 c 0,0 -11.1672,-3.5482 -23.6895,-3.87109 z"
       id="path57034"
       inkscape:connector-curvature="0" />
    <path
       style="color:#000000;font-style:normal;font-variant:normal;font-weight:normal;font-stretch:normal;font-size:medium;line-height:normal;font-family:sans-serif;font-variant-ligatures:normal;font-variant-position:normal;font-variant-caps:normal;font-variant-numeric:normal;font-variant-alternates:normal;font-feature-settings:normal;text-indent:0;text-align:start;text-decoration:none;text-decoration-line:none;text-decoration-style:solid;text-decoration-color:#000000;letter-spacing:normal;word-spacing:normal;text-transform:none;writing-mode:lr-tb;direction:ltr;text-orientation:mixed;dominant-baseline:auto;baseline-shift:baseline;text-anchor:start;white-space:normal;shape-padding:0;clip-rule:nonzero;display:inline;overflow:visible;visibility:visible;opacity:1;isolation:auto;mix-blend-mode:normal;color-interpolation:sRGB;color-interpolation-filters:linearRGB;solid-color:#000000;solid-opacity:1;vector-effect:none;fill:#000000;fill-opacity:1;fill-rule:nonzero;stroke:none;stroke-width:15.08269405;stroke-linecap:butt;stroke-linejoin:miter;stroke-miterlimit:4;stroke-dasharray:none;stroke-dashoffset:0;stroke-opacity:1;color-rendering:auto;image-rendering:auto;shape-rendering:auto;text-rendering:auto;enable-background:accumulate"
       d="m 1029.6934,287.01827 c -0.5818,19.24036 11.0135,35.49308 21.8847,47.09375 10.8712,11.60068 21.877,18.95508 21.877,18.95508 l 8.3965,-12.5293 c 0,0 -9.6872,-6.51496 -19.2676,-16.73828 -9.5805,-10.22332 -18.1948,-23.74831 -17.8145,-36.32617 z"
       id="path57036"
       inkscape:connector-curvature="0" />
    <path
       style="color:#000000;font-style:normal;font-variant:normal;font-weight:normal;font-stretch:normal;font-size:medium;line-height:normal;font-family:sans-serif;font-variant-ligatures:normal;font-variant-position:normal;font-variant-caps:normal;font-variant-numeric:normal;font-variant-alternates:normal;font-feature-settings:normal;text-indent:0;text-align:start;text-decoration:none;text-decoration-line:none;text-decoration-style:solid;text-decoration-color:#000000;letter-spacing:normal;word-spacing:normal;text-transform:none;writing-mode:lr-tb;direction:ltr;text-orientation:mixed;dominant-baseline:auto;baseline-shift:baseline;text-anchor:start;white-space:normal;shape-padding:0;clip-rule:nonzero;display:inline;overflow:visible;visibility:visible;opacity:1;isolation:auto;mix-blend-mode:normal;color-interpolation:sRGB;color-interpolation-filters:linearRGB;solid-color:#000000;solid-opacity:1;vector-effect:none;fill:#000000;fill-opacity:1;fill-rule:nonzero;stroke:none;stroke-width:15.08269405;stroke-linecap:butt;stroke-linejoin:miter;stroke-miterlimit:4;stroke-dasharray:none;stroke-dashoffset:0;stroke-opacity:1;color-rendering:auto;image-rendering:auto;shape-rendering:auto;text-rendering:auto;enable-background:accumulate"
       d="m 930.88086,175.74093 c -5.49789,18.19832 -3.9933,34.09803 1.73633,46.875 5.72963,12.77697 15.34685,22.31639 25.30273,29.37695 19.91176,14.12112 42.05274,18.95117 42.05274,18.95117 l 3.29684,-14.7168 c 0,0 -19.72376,-4.55102 -36.62497,-16.5371 -8.4506,-5.99305 -15.97801,-13.68916 -20.26367,-23.2461 -4.28566,-9.55694 -5.66819,-21.09022 -1.06055,-36.3418 z"
       id="path57038"
       inkscape:connector-curvature="0" />
    <path
       style="color:#000000;font-style:normal;font-variant:normal;font-weight:normal;font-stretch:normal;font-size:medium;line-height:normal;font-family:sans-serif;font-variant-ligatures:normal;font-variant-position:normal;font-variant-caps:normal;font-variant-numeric:normal;font-variant-alternates:normal;font-feature-settings:normal;text-indent:0;text-align:start;text-decoration:none;text-decoration-line:none;text-decoration-style:solid;text-decoration-color:#000000;letter-spacing:normal;word-spacing:normal;text-transform:none;writing-mode:lr-tb;direction:ltr;text-orientation:mixed;dominant-baseline:auto;baseline-shift:baseline;text-anchor:start;white-space:normal;shape-padding:0;clip-rule:nonzero;display:inline;overflow:visible;visibility:visible;opacity:1;isolation:auto;mix-blend-mode:normal;color-interpolation:sRGB;color-interpolation-filters:linearRGB;solid-color:#000000;solid-opacity:1;vector-effect:none;fill:#000000;fill-opacity:1;fill-rule:nonzero;stroke:none;stroke-width:15.08269405;stroke-linecap:butt;stroke-linejoin:miter;stroke-miterlimit:4;stroke-dasharray:none;stroke-dashoffset:0;stroke-opacity:1;color-rendering:auto;image-rendering:auto;shape-rendering:auto;text-rendering:auto;enable-background:accumulate"
       d="m 915.73242,32.219441 c -27.94684,36.80483 -30.33464,65.95955 -24.30078,85.605469 6.03386,19.64593 20.22852,29.57617 20.22852,29.57617 l 8.60937,-12.38476 c 0,0 -9.86709,-6.79537 -14.41992,-21.61914 -4.55283,-14.823769 -4.05282,-37.882489 21.89648,-72.056639 z"
       id="path57040"
       inkscape:connector-curvature="0" />
    <path
       style="color:#000000;font-style:normal;font-variant:normal;font-weight:normal;font-stretch:normal;font-size:medium;line-height:normal;font-family:sans-serif;font-variant-ligatures:normal;font-variant-position:normal;font-variant-caps:normal;font-variant-numeric:normal;font-variant-alternates:normal;font-feature-settings:normal;text-indent:0;text-align:start;text-decoration:none;text-decoration-line:none;text-decoration-style:solid;text-decoration-color:#000000;letter-spacing:normal;word-spacing:normal;text-transform:none;writing-mode:lr-tb;direction:ltr;text-orientation:mixed;dominant-baseline:auto;baseline-shift:baseline;text-anchor:start;white-space:normal;shape-padding:0;clip-rule:nonzero;display:inline;overflow:visible;visibility:visible;opacity:1;isolation:auto;mix-blend-mode:normal;color-interpolation:sRGB;color-interpolation-filters:linearRGB;solid-color:#000000;solid-opacity:1;vector-effect:none;fill:#000000;fill-opacity:1;fill-rule:nonzero;stroke:none;stroke-width:15.08269405;stroke-linecap:butt;stroke-linejoin:miter;stroke-miterlimit:4;stroke-dasharray:none;stroke-dashoffset:0;stroke-opacity:1;color-rendering:auto;image-rendering:auto;shape-rendering:auto;text-rendering:auto;enable-background:accumulate"
       d="m 932.98633,-18.436809 c 0,0 -0.0783,3.73136 1.36914,7.55664 1.44744,3.8252799 4.33928,8.6120499 9.65625,13.5937499 l 10.3125,-11.00586 c -3.82596,-3.5847099 -5.26358,-6.3460499 -5.86133,-7.9257799 -0.59775,-1.57972 -0.43555,-1.10937 -0.43555,-1.10937 z"
       id="path57044"
       inkscape:connector-curvature="0" />
    <path
       style="color:#000000;font-style:normal;font-variant:normal;font-weight:normal;font-stretch:normal;font-size:medium;line-height:normal;font-family:sans-serif;font-variant-ligatures:normal;font-variant-position:normal;font-variant-caps:normal;font-variant-numeric:normal;font-variant-alternates:normal;font-feature-settings:normal;text-indent:0;text-align:start;text-decoration:none;text-decoration-line:none;text-decoration-style:solid;text-decoration-color:#000000;letter-spacing:normal;word-spacing:normal;text-transform:none;writing-mode:lr-tb;direction:ltr;text-orientation:mixed;dominant-baseline:auto;baseline-shift:baseline;text-anchor:start;white-space:normal;shape-padding:0;clip-rule:nonzero;display:inline;overflow:visible;visibility:visible;opacity:1;isolation:auto;mix-blend-mode:normal;color-interpolation:sRGB;color-interpolation-filters:linearRGB;solid-color:#000000;solid-opacity:1;vector-effect:none;fill:#000000;fill-opacity:1;fill-rule:nonzero;stroke:none;stroke-width:15.08269405;stroke-linecap:butt;stroke-linejoin:miter;stroke-miterlimit:4;stroke-dasharray:none;stroke-dashoffset:0;stroke-opacity:1;color-rendering:auto;image-rendering:auto;shape-rendering:auto;text-rendering:auto;enable-background:accumulate"
       d="m 268.92578,-82.745399 -1.88086,0.29883 c 0,0 -11.54932,1.72884 -22.83984,7.6582 -5.64526,2.96468 -11.44219,7.03759 -15.65625,13.05664 -3.29043,4.69981 -5.30726,10.7381 -5.27149,17.39453 -8.42202,4.40263 -30.18634,14.97394 -48.57422,16.55469 l -0.48632,0.041 -0.47657,0.10351 c 0,0 -42.6523,8.2233 -59.33593,40.79688 -0.60577,0.62928 -13.63512,14.16099 -28.441409,29.74609 -15.146242,15.94293 -31.129049,32.88083 -36.560547,39.48437 l 0.158203,-0.1875 c 0,0 -22.772508,25.720119 -49.36132825,42.277349 L 8.171875,137.28194 c 29.215788,-18.19307 52.71875,-45.123039 52.71875,-45.123039 l 0.08203,-0.0937 0.07813,-0.0937 c 4.096022,-4.9799 20.74363,-22.77925 35.847657,-38.67774 15.104018,-15.89849 29.025388,-30.35742 29.025388,-30.35742 l 0.83984,-0.87305 0.52344,-1.09179 c 11.71499,-24.3778001 49.58441,-33.8507 49.65039,-33.86719 28.55311,-2.78892 58.04688,-20.60156 58.04688,-20.60156 l 4.57226,-2.68164 -0.97461,-5.20899 c -0.97924,-5.23444 0.085,-8.49785 2.32227,-11.69336 2.23724,-3.19551 6.03464,-6.10591 10.31445,-8.35351 7.19412,-3.77809 13.95435,-5.21637 16.30664,-5.67774 20.46737,7.9248 26.39383,22.37031 25.94922,36.36719 -0.22916,7.21406 -2.45999,14.20504 -5.66992,19.31055 -3.20993,5.1054999 -7.22844,8.0420699 -10.52344,8.7245999 l 2.08398,14.9062601 c 0.31371,-0.0231 0.65548,-0.1358 0.97071,-0.16993 l 0.004,0.0332 c 0.0722,-0.015 0.13311,-0.0548 0.20508,-0.0703 3.81241,-0.44003 7.74658,-1.55781 12.61133,-3.0937501 5.3543,-1.6905 11.37191,-3.82668 17.05859,-5.93164 11.23054,-4.15703 20.91781,-8.10783 21.16602,-8.20898 l 0.0156,-0.006 C 384.9118,-24.698919 473.92722,-20.108649 474.49031,-20.079419 c 11.86834,2.25167 30.55879,3.18162 47.09571,3.70118 16.89123,0.53069 31.11523,0.52929 31.11523,0.52929 h 0.36524 l 0.36132,-0.0351 c 0.0126,-0.001 3.98617,-0.0628 8.38086,0.0586 4.3947,0.12143 9.81297,0.33314 15.06446,0.5625 10.50298,0.45872 20.34179,0.98438 20.34179,0.98438 l 0.0488,0.002 0.0469,0.002 c 51.86089,2.11181 77.69047,1.73998 91.02148,0.77735 6.6655,-0.48132 10.13869,-1.04056 12.75195,-1.84375 0.95642,-0.29396 1.86162,-0.69112 2.82618,-1.28711 14.87831,-5.74228 24.26714,-5.79961 29.64453,-3.9375 5.47709,1.89662 8.17243,5.58304 10.05859,11.0292899 3.77232,10.89252 1.0918,26.7871101 1.0918,26.7871101 l -1.4336,7.15821 7.10938,1.66601 c 17.19649,4.028 25.13961,10.6334 28.93359,17.64453 3.79399,7.01114 3.77551,15.61819 1.46289,24.68164 -4.62522,18.12692 -18.24414,35.669929 -18.24414,35.669929 l -2.66992,3.35351 1.51758,4.01172 c 6.28793,16.62145 -8.36328,36.32031 -8.36328,36.32031 l -4.63672,5.79492 5.71875,4.72852 c 3.80427,3.14626 4.50711,5.25656 4.66406,7.01172 0.15695,1.75516 -0.47321,3.85011 -1.91015,6.14453 -2.87389,4.58884 -8.2793,8.4707 -8.2793,8.4707 l -2.82422,1.89844 -0.44531,3.375 c -1.14395,8.67339 -12.09219,20.65706 -23.8125,29.34961 -11.72031,8.69255 -23.10938,14.37695 -23.10938,14.37695 l -1.09961,0.54688 -0.86914,0.86719 c -10.9029,10.87719 -35.08709,21.19969 -56.17578,27.84765 -21.08869,6.64797 -39.01172,10.14258 -39.01172,10.14258 l 0.11524,-0.0215 c -26.52185,4.73529 -67.02939,19.91479 -101.60157,33.94336 -34.57217,14.02858 -62.85351,26.9336 -62.85351,26.9336 l -0.72266,0.33008 -0.63867,0.47265 c -10.01294,7.42403 -29.38349,15.37466 -52.20898,22.2461 -22.8255,6.87143 -49.2285,12.93302 -74.22461,17.92968 -49.86833,9.96856 -93.93158,15.6884 -94.15039,15.7168 -17.35829,0.22807 -49.71837,8.09549 -79.73243,15.83594 -30.45671,7.8546 -57.259757,15.70117 -57.259757,15.70117 l 4.238281,14.47461 c 0,0 26.610676,-7.78995 56.787106,-15.57227 30.17643,-7.78232 65.08325,-15.39648 76.79687,-15.39648 h 0.48633 l 0.48242,-0.0625 c 0,0 44.72676,-5.79701 95.3086,-15.9082 25.29092,-5.0556 52.06358,-11.18731 75.61523,-18.27735 22.966,-6.91373 42.63905,-14.51448 55.74219,-23.88281 0.39147,-0.17852 28.0038,-12.76801 62.00391,-26.56445 34.24165,-13.89446 75.05937,-28.87212 98.58398,-33.07227 l 0.0566,-0.01 0.0586,-0.0117 c 0,0 18.68185,-3.63287 40.66406,-10.5625 21.52525,-6.78559 46.2191,-16.26523 61.2832,-30.66602 1.38439,-0.69758 12.2619,-6.225 24.41992,-15.24219 12.08863,-8.96572 25.45985,-20.73424 29.03906,-36.18554 2.49745,-1.88302 6.46736,-5.18859 10.11915,-11.01953 2.56124,-4.08965 4.6972,-9.3989 4.15234,-15.49219 -0.37236,-4.16417 -2.20945,-8.34306 -5.20703,-12.18945 5.05746,-7.99211 12.84453,-23.97044 8.18945,-41.52344 4.53965,-6.2769 14.28055,-21.094279 18.62109,-38.105469 2.87651,-11.27343 3.4122,-24.08851 -2.81054,-35.58789 -5.50017,-10.16409 -16.03976,-18.35752 -32.14453,-23.34375 0.70928,-6.7468501 1.04125,-17.2416001 -2.57032,-27.66992 -2.87763,-8.30912 -9.0295,-16.76323 -19.375,-20.34571 -10.34549,-3.58247 -23.57965,-2.41818 -40.88085,4.41407 l -2.27344,0.89843 c -1.29342,0.26075 -3.53846,0.63424 -8.08985,0.96289 -12.18069,0.87957 -37.71803,1.29658 -89.22656,-0.79882 l -0.0469,-0.002 c -0.0185,-7.5e-4 -0.0303,-0.001 -0.0488,-0.002 -0.0918,-0.005 -9.8502,-0.5258 -20.39453,-0.98633 -5.2969,-0.23134 -10.76727,-0.44689 -15.30469,-0.57226 -4.53742,-0.12538 -7.53841,-0.25425 -10.24805,0.008 l 0.72461,-0.0352 c 0,0 -14.01715,-0.001 -30.64258,-0.52344 -16.62542,-0.52234 -36.18173,-1.68992 -45.46289,-3.54296 l -0.51172,-0.10157 -0.52343,-0.0312 c 0,0 -90.04702,-5.84196 -149.33399,15.71094 l -0.13672,0.0488 -0.13281,0.0547 c 0,0 -9.8816,4.02718 -20.97851,8.13476 -0.20672,0.0765 -0.40189,0.13636 -0.60938,0.21289 2.44473,-5.91524 3.96418,-12.45302 4.18164,-19.29883 0.62988,-19.82923 -10.44204,-42.22428 -37.82812,-51.84765 z"
       id="path57046"
       inkscape:connector-curvature="0" />
    <path
       style="color:#000000;font-style:normal;font-variant:normal;font-weight:normal;font-stretch:normal;font-size:medium;line-height:normal;font-family:sans-serif;font-variant-ligatures:normal;font-variant-position:normal;font-variant-caps:normal;font-variant-numeric:normal;font-variant-alternates:normal;font-feature-settings:normal;text-indent:0;text-align:start;text-decoration:none;text-decoration-line:none;text-decoration-style:solid;text-decoration-color:#000000;letter-spacing:normal;word-spacing:normal;text-transform:none;writing-mode:lr-tb;direction:ltr;text-orientation:mixed;dominant-baseline:auto;baseline-shift:baseline;text-anchor:start;white-space:normal;shape-padding:0;clip-rule:nonzero;display:inline;overflow:visible;visibility:visible;opacity:1;isolation:auto;mix-blend-mode:normal;color-interpolation:sRGB;color-interpolation-filters:linearRGB;solid-color:#000000;solid-opacity:1;vector-effect:none;fill:#000000;fill-opacity:1;fill-rule:nonzero;stroke:none;stroke-width:15.08269405;stroke-linecap:butt;stroke-linejoin:miter;stroke-miterlimit:4;stroke-dasharray:none;stroke-dashoffset:0;stroke-opacity:1;color-rendering:auto;image-rendering:auto;shape-rendering:auto;text-rendering:auto;enable-background:accumulate"
       d="m 279.69336,-2.8137591 c 0,0 -1.57685,-0.0972 -2.97852,0.0332 -1.40166,0.13041 -3.3632,0.41261 -6.2539,1.01172 -5.78141,1.19823002 -15.28621,3.66727 -31.11719,8.85938 l 4.70117,14.3320301 c 15.474,-5.07503 24.52623,-7.39589 29.47656,-8.42188 2.47517,-0.51299 3.92367,-0.70169 4.58985,-0.76367 0.66617,-0.062 1.2539,-0.0409 1.2539,-0.0409 z"
       id="path57048"
       inkscape:connector-curvature="0"
       sodipodi:nodetypes="ccccccccc" />
    <path
       style="color:#000000;font-style:normal;font-variant:normal;font-weight:normal;font-stretch:normal;font-size:medium;line-height:normal;font-family:sans-serif;font-variant-ligatures:normal;font-variant-position:normal;font-variant-caps:normal;font-variant-numeric:normal;font-variant-alternates:normal;font-feature-settings:normal;text-indent:0;text-align:start;text-decoration:none;text-decoration-line:none;text-decoration-style:solid;text-decoration-color:#000000;letter-spacing:normal;word-spacing:normal;text-transform:none;writing-mode:lr-tb;direction:ltr;text-orientation:mixed;dominant-baseline:auto;baseline-shift:baseline;text-anchor:start;white-space:normal;shape-padding:0;clip-rule:nonzero;display:inline;overflow:visible;visibility:visible;opacity:1;isolation:auto;mix-blend-mode:normal;color-interpolation:sRGB;color-interpolation-filters:linearRGB;solid-color:#000000;solid-opacity:1;vector-effect:none;fill:#000000;fill-opacity:1;fill-rule:nonzero;stroke:none;stroke-width:15.08269405;stroke-linecap:butt;stroke-linejoin:miter;stroke-miterlimit:4;stroke-dasharray:none;stroke-dashoffset:0;stroke-opacity:1;color-rendering:auto;image-rendering:auto;shape-rendering:auto;text-rendering:auto;enable-background:accumulate"
       d="m 259.96484,-54.778599 c -6.99615,0.0511 -13.6831,1.62172 -19.19726,3.24414 -7.35222,2.16322 -12.7832,4.69726 -12.7832,4.69726 l 6.37109,13.66992 c 0,0 4.42334,-2.05856 10.66992,-3.89648 6.24658,-1.83792 14.15347,-3.17621 19.64844,-2.30664 l 2.35742,-14.89844 c -2.36923,-0.37492 -4.73436,-0.52681 -7.06641,-0.50976 z"
       id="path57050"
       inkscape:connector-curvature="0" />
    <path
       style="color:#000000;font-style:normal;font-variant:normal;font-weight:normal;font-stretch:normal;font-size:medium;line-height:normal;font-family:sans-serif;font-variant-ligatures:normal;font-variant-position:normal;font-variant-caps:normal;font-variant-numeric:normal;font-variant-alternates:normal;font-feature-settings:normal;text-indent:0;text-align:start;text-decoration:none;text-decoration-line:none;text-decoration-style:solid;text-decoration-color:#000000;letter-spacing:normal;word-spacing:normal;text-transform:none;writing-mode:lr-tb;direction:ltr;text-orientation:mixed;dominant-baseline:auto;baseline-shift:baseline;text-anchor:start;white-space:normal;shape-padding:0;clip-rule:nonzero;display:inline;overflow:visible;visibility:visible;opacity:1;isolation:auto;mix-blend-mode:normal;color-interpolation:sRGB;color-interpolation-filters:linearRGB;solid-color:#000000;solid-opacity:1;vector-effect:none;fill:#000000;fill-opacity:1;fill-rule:nonzero;stroke:none;stroke-width:15.08269405;stroke-linecap:butt;stroke-linejoin:miter;stroke-miterlimit:4;stroke-dasharray:none;stroke-dashoffset:0;stroke-opacity:1;color-rendering:auto;image-rendering:auto;shape-rendering:auto;text-rendering:auto;enable-background:accumulate"
       d="m 755.3125,11.908901 -6.42578,13.64648 c 0,0 -1.72334,-0.14526 -2.68555,-3.12305 -0.4811,-1.48889 -0.0766,-3.58008 0.37305,-4.35937 0.44966,-0.77929 0.5398,-0.57941 -0.23242,-0.0566 -3.08888,2.09107 -17.80802,8.1237 -54.90625,15.42969 l -0.10157,0.0215 -0.10156,0.0215 c 0,0 -28.22416,6.36388 -62.12109,10.12891 -33.89694,3.76503 -73.75061,4.18312 -93.70117,-4.89648 l -6.24805,13.72656 c 26.32625,11.98121 66.77558,10.02968 101.61328,6.16015 34.81962,-3.86752 63.7278,-10.39556 63.75781,-10.40234 37.60371,-7.41342 52.47862,-12.42897 60.26368,-17.69922 1.94995,-1.32005 3.59266,-2.73312 4.83984,-4.89453 1.24718,-2.16141 1.69485,-5.4061 0.91601,-7.81641 -1.55767,-4.82061 -5.24023,-5.88671 -5.24023,-5.88671 z"
       id="path57052"
       inkscape:connector-curvature="0" />
    <path
       style="color:#000000;font-style:normal;font-variant:normal;font-weight:normal;font-stretch:normal;font-size:medium;line-height:normal;font-family:sans-serif;font-variant-ligatures:normal;font-variant-position:normal;font-variant-caps:normal;font-variant-numeric:normal;font-variant-alternates:normal;font-feature-settings:normal;text-indent:0;text-align:start;text-decoration:none;text-decoration-line:none;text-decoration-style:solid;text-decoration-color:#000000;letter-spacing:normal;word-spacing:normal;text-transform:none;writing-mode:lr-tb;direction:ltr;text-orientation:mixed;dominant-baseline:auto;baseline-shift:baseline;text-anchor:start;white-space:normal;shape-padding:0;clip-rule:nonzero;display:inline;overflow:visible;visibility:visible;opacity:1;isolation:auto;mix-blend-mode:normal;color-interpolation:sRGB;color-interpolation-filters:linearRGB;solid-color:#000000;solid-opacity:1;vector-effect:none;fill:#000000;fill-opacity:1;fill-rule:nonzero;stroke:none;stroke-width:15.08269405;stroke-linecap:butt;stroke-linejoin:miter;stroke-miterlimit:4;stroke-dasharray:none;stroke-dashoffset:0;stroke-opacity:1;color-rendering:auto;image-rendering:auto;shape-rendering:auto;text-rendering:auto;enable-background:accumulate"
       d="m 763.19141,103.3464 c 0,0 -4.15619,4.17392 -14.73047,8.68554 -10.57428,4.51163 -27.03452,8.88811 -50.39844,7.63281 l -0.4707,-0.0254 -0.4668,0.0332 c 0,0 -24.32778,1.72063 -50.62305,5.11133 -13.14763,1.69534 -26.79127,3.80205 -38.34179,6.38085 -11.55053,2.57881 -20.57094,4.64195 -27.0918,10.375 l 9.95898,11.32813 c 0.96509,-0.84849 9.64019,-4.57766 20.41993,-6.98437 10.77973,-2.40672 24.10129,-4.47939 36.98437,-6.14063 25.51983,-3.29071 49.01446,-4.96972 49.4668,-5.00195 25.29684,1.25872 44.02547,-3.52189 56.48047,-8.83594 12.56415,-5.36063 19.29687,-11.7168 19.29687,-11.7168 z"
       id="path57054"
       inkscape:connector-curvature="0" />
    <path
       style="color:#000000;font-style:normal;font-variant:normal;font-weight:normal;font-stretch:normal;font-size:medium;line-height:normal;font-family:sans-serif;font-variant-ligatures:normal;font-variant-position:normal;font-variant-caps:normal;font-variant-numeric:normal;font-variant-alternates:normal;font-feature-settings:normal;text-indent:0;text-align:start;text-decoration:none;text-decoration-line:none;text-decoration-style:solid;text-decoration-color:#000000;letter-spacing:normal;word-spacing:normal;text-transform:none;writing-mode:lr-tb;direction:ltr;text-orientation:mixed;dominant-baseline:auto;baseline-shift:baseline;text-anchor:start;white-space:normal;shape-padding:0;clip-rule:nonzero;display:inline;overflow:visible;visibility:visible;opacity:1;isolation:auto;mix-blend-mode:normal;color-interpolation:sRGB;color-interpolation-filters:linearRGB;solid-color:#000000;solid-opacity:1;vector-effect:none;fill:#000000;fill-opacity:1;fill-rule:nonzero;stroke:none;stroke-width:15.08269405;stroke-linecap:butt;stroke-linejoin:miter;stroke-miterlimit:4;stroke-dasharray:none;stroke-dashoffset:0;stroke-opacity:1;color-rendering:auto;image-rendering:auto;shape-rendering:auto;text-rendering:auto;enable-background:accumulate"
       d="m 752.25195,148.92061 c 0,0 -20.30139,38.6049 -70.44726,44.49805 -0.0582,0.007 -28.2794,3.17999 -58.7793,8.89649 -15.26568,2.86119 -31.10365,6.34881 -44.49219,10.49218 -13.38854,4.14337 -24.24488,8.03718 -30.89648,15.85938 l 11.49023,9.77148 c 1.85518,-2.18166 11.41448,-7.3695 23.86524,-11.22265 12.45076,-3.85316 27.87721,-7.27727 42.81054,-10.07618 29.86668,-5.59781 57.72657,-8.73632 57.72657,-8.73632 l 0.0176,-0.002 0.0176,-0.002 c 57.3798,-6.74329 81.9961,-52.38281 81.9961,-52.38281 z"
       id="path57056"
       inkscape:connector-curvature="0" />
    <path
       style="color:#000000;font-style:normal;font-variant:normal;font-weight:normal;font-stretch:normal;font-size:medium;line-height:normal;font-family:sans-serif;font-variant-ligatures:normal;font-variant-position:normal;font-variant-caps:normal;font-variant-numeric:normal;font-variant-alternates:normal;font-feature-settings:normal;text-indent:0;text-align:start;text-decoration:none;text-decoration-line:none;text-decoration-style:solid;text-decoration-color:#000000;letter-spacing:normal;word-spacing:normal;text-transform:none;writing-mode:lr-tb;direction:ltr;text-orientation:mixed;dominant-baseline:auto;baseline-shift:baseline;text-anchor:start;white-space:normal;shape-padding:0;clip-rule:nonzero;display:inline;overflow:visible;visibility:visible;opacity:1;isolation:auto;mix-blend-mode:normal;color-interpolation:sRGB;color-interpolation-filters:linearRGB;solid-color:#000000;solid-opacity:1;vector-effect:none;fill:#000000;fill-opacity:1;fill-rule:nonzero;stroke:none;stroke-width:15.08269405;stroke-linecap:butt;stroke-linejoin:miter;stroke-miterlimit:4;stroke-dasharray:none;stroke-dashoffset:0;stroke-opacity:1;color-rendering:auto;image-rendering:auto;shape-rendering:auto;text-rendering:auto;enable-background:accumulate"
       d="m 752.29883,160.87179 -7.64453,13.00195 c -0.67285,-0.39563 -0.41177,-0.49962 -0.0723,0.45508 0.3395,0.95469 0.65314,2.63227 0.7832,4.33984 0.26014,3.41514 -0.0781,6.65625 -0.0781,6.65625 l 14.98828,1.68164 c 0,0 0.51717,-4.38711 0.12891,-9.48437 -0.19413,-2.54863 -0.57984,-5.34742 -1.61133,-8.24805 -1.0315,-2.90063 -2.8137,-6.23825 -6.49414,-8.40234 z"
       id="path57058"
       inkscape:connector-curvature="0" />
    <path
       style="color:#000000;font-style:normal;font-variant:normal;font-weight:normal;font-stretch:normal;font-size:medium;line-height:normal;font-family:sans-serif;font-variant-ligatures:normal;font-variant-position:normal;font-variant-caps:normal;font-variant-numeric:normal;font-variant-alternates:normal;font-feature-settings:normal;text-indent:0;text-align:start;text-decoration:none;text-decoration-line:none;text-decoration-style:solid;text-decoration-color:#000000;letter-spacing:normal;word-spacing:normal;text-transform:none;writing-mode:lr-tb;direction:ltr;text-orientation:mixed;dominant-baseline:auto;baseline-shift:baseline;text-anchor:start;white-space:normal;shape-padding:0;clip-rule:nonzero;display:inline;overflow:visible;visibility:visible;opacity:1;isolation:auto;mix-blend-mode:normal;color-interpolation:sRGB;color-interpolation-filters:linearRGB;solid-color:#000000;solid-opacity:1;vector-effect:none;fill:#000000;fill-opacity:1;fill-rule:nonzero;stroke:none;stroke-width:15.08269405;stroke-linecap:butt;stroke-linejoin:miter;stroke-miterlimit:4;stroke-dasharray:none;stroke-dashoffset:0;stroke-opacity:1;color-rendering:auto;image-rendering:auto;shape-rendering:auto;text-rendering:auto;enable-background:accumulate"
       d="m 1719.25,-47.360639 -63.6602,63.66016 63.6602,63.66016 v -38.52344 h 344.9062 l -2.123,-48.8066401 h -7.2187 -335.5645 z m -15.082,36.41016 V 7.7116309 h 343.4258 l 0.8105,18.6406201 H 1704.168 v 17.19532 l -27.2481,-27.24805 z"
       id="path57070"
       inkscape:connector-curvature="0" />
    <path
       inkscape:connector-curvature="0"
       id="path1039-4-5-6-0"
       d="m 1656.2164,102.35096 c 0,0 44.0358,0.29244 68.4329,0.45336 56.4022,0.37215 111.735,0.74268 115.318,0.74268 V 77.863051 c -0.3089,0 -58.7494,-0.37054 -115.1502,-0.74269 -27.7066,-0.18276 -76.1967,-0.5035 -76.1967,-0.5035 z"
       style="color:#000000;font-style:normal;font-variant:normal;font-weight:normal;font-stretch:normal;font-size:medium;line-height:normal;font-family:sans-serif;font-variant-ligatures:normal;font-variant-position:normal;font-variant-caps:normal;font-variant-numeric:normal;font-variant-alternates:normal;font-feature-settings:normal;text-indent:0;text-align:start;text-decoration:none;text-decoration-line:none;text-decoration-style:solid;text-decoration-color:#000000;letter-spacing:normal;word-spacing:normal;text-transform:none;writing-mode:lr-tb;direction:ltr;text-orientation:mixed;dominant-baseline:auto;baseline-shift:baseline;text-anchor:start;white-space:normal;shape-padding:0;clip-rule:nonzero;display:inline;overflow:visible;visibility:visible;opacity:1;isolation:auto;mix-blend-mode:normal;color-interpolation:sRGB;color-interpolation-filters:linearRGB;solid-color:#000000;solid-opacity:1;vector-effect:none;fill:#000000;fill-opacity:1;fill-rule:nonzero;stroke:none;stroke-width:25.68364906;stroke-linecap:butt;stroke-linejoin:miter;stroke-miterlimit:4;stroke-dasharray:none;stroke-dashoffset:0;stroke-opacity:1;color-rendering:auto;image-rendering:auto;shape-rendering:auto;text-rendering:auto;enable-background:accumulate"
       sodipodi:nodetypes="ccccccc" />
    <path
       inkscape:connector-curvature="0"
       id="path59-1-3-2-9"
       d="m 1999.8694,32.324741 c -19.1461,-0.34991 -36.9096,-1.9924 -56.5035,8.53654 -20.9762,11.27169 -42.8345,28.7939 -66.9143,52.60219 l 14.5321,14.695969 c 44.9503,-44.443619 78.0249,-62.468479 109.5714,-61.891989 31.5459,0.57649 65.2016,20.27133 110.098,58.256799 l 13.3452,-15.775219 c -24.1518,-20.43426 -45.9225,-36.6065 -66.887,-47.46938 -18.9983,-9.84411 -38.3953,-8.61054 -57.2419,-8.95491 z"
       style="color:#000000;font-style:normal;font-variant:normal;font-weight:normal;font-stretch:normal;font-size:medium;line-height:normal;font-family:sans-serif;font-variant-ligatures:normal;font-variant-position:normal;font-variant-caps:normal;font-variant-numeric:normal;font-variant-alternates:normal;font-feature-settings:normal;text-indent:0;text-align:start;text-decoration:none;text-decoration-line:none;text-decoration-style:solid;text-decoration-color:#000000;letter-spacing:normal;word-spacing:normal;text-transform:none;writing-mode:lr-tb;direction:ltr;text-orientation:mixed;dominant-baseline:auto;baseline-shift:baseline;text-anchor:start;white-space:normal;shape-padding:0;clip-rule:nonzero;display:inline;overflow:visible;visibility:visible;opacity:1;isolation:auto;mix-blend-mode:normal;color-interpolation:sRGB;color-interpolation-filters:linearRGB;solid-color:#000000;solid-opacity:1;vector-effect:none;fill:#000000;fill-opacity:1;fill-rule:nonzero;stroke:none;stroke-width:20.66519165;stroke-linecap:butt;stroke-linejoin:miter;stroke-miterlimit:4;stroke-dasharray:none;stroke-dashoffset:0;stroke-opacity:1;color-rendering:auto;image-rendering:auto;shape-rendering:auto;text-rendering:auto;enable-background:accumulate"
       sodipodi:nodetypes="csccsccsc" />
    <path
       inkscape:connector-curvature="0"
       id="path1479-6-5"
       d="m 1673.8005,174.59043 -19.7212,3.96762 c 0,46.46789 31.9363,72.81032 63.7884,72.41178 31.8525,-0.3984 62.9198,-27.52849 61.1656,-72.80629 l -20.2677,-1.83714 c -7.2727,32.62531 -68.309,37.95613 -84.9651,-1.73597 z m 11.5463,40.53495 c 19.3323,9.91108 42.8024,10.50734 61.6297,2.47785 -7.8005,8.67809 -18.5608,12.71158 -29.3644,12.84665 -11.9268,0.14917 -23.9351,-4.59698 -32.2653,-15.3245 z"
       style="color:#000000;font-style:normal;font-variant:normal;font-weight:normal;font-stretch:normal;font-size:medium;line-height:normal;font-family:sans-serif;font-variant-ligatures:normal;font-variant-position:normal;font-variant-caps:normal;font-variant-numeric:normal;font-variant-alternates:normal;font-feature-settings:normal;text-indent:0;text-align:start;text-decoration:none;text-decoration-line:none;text-decoration-style:solid;text-decoration-color:#000000;letter-spacing:normal;word-spacing:normal;text-transform:none;writing-mode:lr-tb;direction:ltr;text-orientation:mixed;dominant-baseline:auto;baseline-shift:baseline;text-anchor:start;white-space:normal;shape-padding:0;clip-rule:nonzero;display:inline;overflow:visible;visibility:visible;opacity:1;isolation:auto;mix-blend-mode:normal;color-interpolation:sRGB;color-interpolation-filters:linearRGB;solid-color:#000000;solid-opacity:1;vector-effect:none;fill:#000000;fill-opacity:1;fill-rule:nonzero;stroke:none;stroke-width:20.52156448;stroke-linecap:butt;stroke-linejoin:miter;stroke-miterlimit:4;stroke-dasharray:none;stroke-dashoffset:0;stroke-opacity:1;color-rendering:auto;image-rendering:auto;shape-rendering:auto;text-rendering:auto;enable-background:accumulate" />
    <path
       inkscape:connector-curvature="0"
       id="path1479-5-1-6"
       d="m 1943.2851,162.31196 v 17.76121 c 0,46.46775 31.9352,72.81032 63.7878,72.41178 31.8535,-0.39838 62.9198,-27.52848 61.1664,-72.80629 l -0.6156,-15.89267 -14.227,7.11134 c -14.1769,7.08686 -27.5749,12.94547 -42.2418,14.24497 -14.6683,1.2998 -31.0732,-1.60519 -52.482,-13.95464 z m 103.1801,34.32612 c -4.5706,24.4634 -22.0147,35.1062 -39.6514,35.32692 -17.4386,0.21808 -35.1498,-9.79164 -40.9065,-34.3516 17.1924,7.08699 32.821,9.23133 47.0563,7.97 12.281,-1.08808 23.2423,-4.64113 33.5016,-8.94532 z"
       style="color:#000000;font-style:normal;font-variant:normal;font-weight:normal;font-stretch:normal;font-size:medium;line-height:normal;font-family:sans-serif;font-variant-ligatures:normal;font-variant-position:normal;font-variant-caps:normal;font-variant-numeric:normal;font-variant-alternates:normal;font-feature-settings:normal;text-indent:0;text-align:start;text-decoration:none;text-decoration-line:none;text-decoration-style:solid;text-decoration-color:#000000;letter-spacing:normal;word-spacing:normal;text-transform:none;writing-mode:lr-tb;direction:ltr;text-orientation:mixed;dominant-baseline:auto;baseline-shift:baseline;text-anchor:start;white-space:normal;shape-padding:0;clip-rule:nonzero;display:inline;overflow:visible;visibility:visible;opacity:1;isolation:auto;mix-blend-mode:normal;color-interpolation:sRGB;color-interpolation-filters:linearRGB;solid-color:#000000;solid-opacity:1;vector-effect:none;fill:#000000;fill-opacity:1;fill-rule:nonzero;stroke:none;stroke-width:20.52156448;stroke-linecap:butt;stroke-linejoin:miter;stroke-miterlimit:4;stroke-dasharray:none;stroke-dashoffset:0;stroke-opacity:1;color-rendering:auto;image-rendering:auto;shape-rendering:auto;text-rendering:auto;enable-background:accumulate" />
    <path
       inkscape:connector-curvature="0"
       id="path29-3-1-9-7-2"
       d="m 1868.8808,523.16531 c -48.2493,-1.07246 -97.1926,8.76131 -145.3439,32.23363 l -21.1645,10.31868 21.9219,8.59492 c 89.7522,35.1893 189.2707,36.67354 285.1654,1.18957 l 23.8442,-8.82209 -23.238,-10.3183 c -45.379,-20.14799 -92.9348,-32.12395 -141.1851,-33.19641 z m -0.2643,20.48854 c 35.9982,0.82129 71.6476,8.44859 106.583,21.15749 -73.8824,21.64659 -148.6363,20.64173 -218.4509,-1.25271 37.3054,-14.47626 74.752,-20.7517 111.8679,-19.90478 z"
       style="color:#000000;font-style:normal;font-variant:normal;font-weight:normal;font-stretch:normal;font-size:medium;line-height:normal;font-family:sans-serif;font-variant-ligatures:normal;font-variant-position:normal;font-variant-caps:normal;font-variant-numeric:normal;font-variant-alternates:normal;font-feature-settings:normal;text-indent:0;text-align:start;text-decoration:none;text-decoration-line:none;text-decoration-style:solid;text-decoration-color:#000000;letter-spacing:normal;word-spacing:normal;text-transform:none;writing-mode:lr-tb;direction:ltr;text-orientation:mixed;dominant-baseline:auto;baseline-shift:baseline;text-anchor:start;white-space:normal;shape-padding:0;clip-rule:nonzero;display:inline;overflow:visible;visibility:visible;opacity:1;isolation:auto;mix-blend-mode:normal;color-interpolation:sRGB;color-interpolation-filters:linearRGB;solid-color:#000000;solid-opacity:1;vector-effect:none;fill:#000000;fill-opacity:1;fill-rule:nonzero;stroke:none;stroke-width:20.67164612;stroke-linecap:butt;stroke-linejoin:miter;stroke-miterlimit:4;stroke-dasharray:none;stroke-dashoffset:0;stroke-opacity:1;color-rendering:auto;image-rendering:auto;shape-rendering:auto;text-rendering:auto;enable-background:accumulate" />
    <path
       inkscape:connector-curvature="0"
       id="path2346-92"
       d="m 1991.689,589.19801 c -3.0777,11.94034 -2.0759,13.90208 -9.4402,24.46273 l -0.2244,0.32185 -0.184,0.34396 c 0,0 -3.7057,6.44354 -4.1693,14.24513 -0.2311,3.90095 0.4442,8.75057 3.9328,12.58772 3.4885,3.83725 9.0362,5.62378 15.6562,5.48607 l -0.2657,-12.82487 c -4.3743,0.092 -5.5227,-0.87312 -5.8991,-1.28775 -0.3763,-0.41415 -0.7334,-1.31825 -0.6213,-3.20069 0.2228,-3.76023 2.6929,-8.98448 2.6984,-8.99578 0,0 0,0 0,0 7.7672,-11.35544 8.1561,-17.15158 10.9333,-27.93123 z"
       style="color:#000000;font-style:normal;font-variant:normal;font-weight:normal;font-stretch:normal;font-size:medium;line-height:normal;font-family:sans-serif;font-variant-ligatures:normal;font-variant-position:normal;font-variant-caps:normal;font-variant-numeric:normal;font-variant-alternates:normal;font-feature-settings:normal;text-indent:0;text-align:start;text-decoration:none;text-decoration-line:none;text-decoration-style:solid;text-decoration-color:#000000;letter-spacing:normal;word-spacing:normal;text-transform:none;writing-mode:lr-tb;direction:ltr;text-orientation:mixed;dominant-baseline:auto;baseline-shift:baseline;text-anchor:start;white-space:normal;shape-padding:0;clip-rule:nonzero;display:inline;overflow:visible;visibility:visible;opacity:1;isolation:auto;mix-blend-mode:normal;color-interpolation:sRGB;color-interpolation-filters:linearRGB;solid-color:#000000;solid-opacity:1;vector-effect:none;fill:#000000;fill-opacity:1;fill-rule:nonzero;stroke:none;stroke-width:12.82597828;stroke-linecap:butt;stroke-linejoin:miter;stroke-miterlimit:4;stroke-dasharray:none;stroke-dashoffset:0;stroke-opacity:1;color-rendering:auto;image-rendering:auto;shape-rendering:auto;text-rendering:auto;enable-background:accumulate" />
    <path
       sodipodi:nodetypes="cccsccccscccc"
       inkscape:connector-curvature="0"
       id="path2346-9-7"
       d="m 2003.5607,589.54863 -12.5789,2.49964 c 2.156,10.8466 4.449,17.97 10.9307,28.13978 0.055,0.14482 1.9732,4.69973 1.9732,8.24801 0,1.80237 -0.3776,2.86222 -0.9852,3.53506 -0.6075,0.67303 -1.918,1.67313 -6.0499,1.85272 l 0.4095,12.82163 c 6.4028,-0.27834 11.8231,-2.37533 15.1665,-6.08246 3.3431,-3.70724 4.2827,-8.31801 4.2827,-12.12695 0,-7.61837 -3.2629,-13.8791 -3.2629,-13.8791 l -0.1772,-0.36914 -0.2212,-0.34103 c -6.1898,-9.56882 -7.3757,-13.67435 -9.4873,-24.29816 z"
       style="color:#000000;font-style:normal;font-variant:normal;font-weight:normal;font-stretch:normal;font-size:medium;line-height:normal;font-family:sans-serif;font-variant-ligatures:normal;font-variant-position:normal;font-variant-caps:normal;font-variant-numeric:normal;font-variant-alternates:normal;font-feature-settings:normal;text-indent:0;text-align:start;text-decoration:none;text-decoration-line:none;text-decoration-style:solid;text-decoration-color:#000000;letter-spacing:normal;word-spacing:normal;text-transform:none;writing-mode:lr-tb;direction:ltr;text-orientation:mixed;dominant-baseline:auto;baseline-shift:baseline;text-anchor:start;white-space:normal;shape-padding:0;clip-rule:nonzero;display:inline;overflow:visible;visibility:visible;opacity:1;isolation:auto;mix-blend-mode:normal;color-interpolation:sRGB;color-interpolation-filters:linearRGB;solid-color:#000000;solid-opacity:1;vector-effect:none;fill:#000000;fill-opacity:1;fill-rule:nonzero;stroke:none;stroke-width:12.82597828;stroke-linecap:butt;stroke-linejoin:miter;stroke-miterlimit:4;stroke-dasharray:none;stroke-dashoffset:0;stroke-opacity:1;color-rendering:auto;image-rendering:auto;shape-rendering:auto;text-rendering:auto;enable-background:accumulate" />
    <path
       inkscape:connector-curvature="0"
       id="path29-3-1-9-7-2-1"
       d="m 470.73378,522.77038 c -48.2493,-1.07246 -97.1926,8.76132 -145.3439,32.23362 l -21.1645,10.3187 21.9219,8.5949 c 89.7522,35.1893 189.2707,36.6736 285.1654,1.1896 l 23.8442,-8.8221 -23.238,-10.3183 c -45.379,-20.148 -92.9348,-32.124 -141.1851,-33.19642 z m -0.2643,20.48852 c 35.9982,0.8213 71.6476,8.4486 106.583,21.1575 -73.8824,21.6466 -148.6363,20.6417 -218.4509,-1.2527 37.3054,-14.4763 74.752,-20.7517 111.8679,-19.9048 z"
       style="color:#000000;font-style:normal;font-variant:normal;font-weight:normal;font-stretch:normal;font-size:medium;line-height:normal;font-family:sans-serif;font-variant-ligatures:normal;font-variant-position:normal;font-variant-caps:normal;font-variant-numeric:normal;font-variant-alternates:normal;font-feature-settings:normal;text-indent:0;text-align:start;text-decoration:none;text-decoration-line:none;text-decoration-style:solid;text-decoration-color:#000000;letter-spacing:normal;word-spacing:normal;text-transform:none;writing-mode:lr-tb;direction:ltr;text-orientation:mixed;dominant-baseline:auto;baseline-shift:baseline;text-anchor:start;white-space:normal;shape-padding:0;clip-rule:nonzero;display:inline;overflow:visible;visibility:visible;opacity:1;isolation:auto;mix-blend-mode:normal;color-interpolation:sRGB;color-interpolation-filters:linearRGB;solid-color:#000000;solid-opacity:1;vector-effect:none;fill:#000000;fill-opacity:1;fill-rule:nonzero;stroke:none;stroke-width:20.67164612;stroke-linecap:butt;stroke-linejoin:miter;stroke-miterlimit:4;stroke-dasharray:none;stroke-dashoffset:0;stroke-opacity:1;color-rendering:auto;image-rendering:auto;shape-rendering:auto;text-rendering:auto;enable-background:accumulate" />
    <path
       inkscape:connector-curvature="0"
       id="path2346-92-98"
       d="m 593.54198,588.8031 c -3.0777,11.9403 -2.0759,13.9021 -9.4402,24.4627 l -0.2244,0.3219 -0.184,0.3439 c 0,0 -3.7057,6.4436 -4.1693,14.2452 -0.2311,3.9009 0.4442,8.7505 3.9328,12.5877 3.4885,3.8372 9.0362,5.6238 15.6562,5.486 l -0.2657,-12.8248 c -4.3743,0.092 -5.5227,-0.8731 -5.8991,-1.2878 -0.3763,-0.4141 -0.7334,-1.3182 -0.6213,-3.2007 0.2228,-3.7602 2.6929,-8.9844 2.6984,-8.9957 0,0 0,0 0,0 7.7672,-11.3555 8.1561,-17.1516 10.9333,-27.9313 z"
       style="color:#000000;font-style:normal;font-variant:normal;font-weight:normal;font-stretch:normal;font-size:medium;line-height:normal;font-family:sans-serif;font-variant-ligatures:normal;font-variant-position:normal;font-variant-caps:normal;font-variant-numeric:normal;font-variant-alternates:normal;font-feature-settings:normal;text-indent:0;text-align:start;text-decoration:none;text-decoration-line:none;text-decoration-style:solid;text-decoration-color:#000000;letter-spacing:normal;word-spacing:normal;text-transform:none;writing-mode:lr-tb;direction:ltr;text-orientation:mixed;dominant-baseline:auto;baseline-shift:baseline;text-anchor:start;white-space:normal;shape-padding:0;clip-rule:nonzero;display:inline;overflow:visible;visibility:visible;opacity:1;isolation:auto;mix-blend-mode:normal;color-interpolation:sRGB;color-interpolation-filters:linearRGB;solid-color:#000000;solid-opacity:1;vector-effect:none;fill:#000000;fill-opacity:1;fill-rule:nonzero;stroke:none;stroke-width:12.82597828;stroke-linecap:butt;stroke-linejoin:miter;stroke-miterlimit:4;stroke-dasharray:none;stroke-dashoffset:0;stroke-opacity:1;color-rendering:auto;image-rendering:auto;shape-rendering:auto;text-rendering:auto;enable-background:accumulate" />
    <path
       sodipodi:nodetypes="cccsccccscccc"
       inkscape:connector-curvature="0"
       id="path2346-9-7-93"
       d="m 605.41368,589.1537 -12.5789,2.4996 c 2.156,10.8466 4.449,17.97 10.9307,28.1398 0.055,0.1448 1.9732,4.6998 1.9732,8.248 0,1.8024 -0.3776,2.8623 -0.9852,3.5351 -0.6075,0.673 -1.918,1.6731 -6.0499,1.8527 l 0.4095,12.8216 c 6.4028,-0.2783 11.8231,-2.3753 15.1665,-6.0824 3.3431,-3.7073 4.2827,-8.318 4.2827,-12.127 0,-7.6183 -3.2629,-13.8791 -3.2629,-13.8791 l -0.1772,-0.3691 -0.2212,-0.341 c -6.1898,-9.5689 -7.3757,-13.6744 -9.4873,-24.2982 z"
       style="color:#000000;font-style:normal;font-variant:normal;font-weight:normal;font-stretch:normal;font-size:medium;line-height:normal;font-family:sans-serif;font-variant-ligatures:normal;font-variant-position:normal;font-variant-caps:normal;font-variant-numeric:normal;font-variant-alternates:normal;font-feature-settings:normal;text-indent:0;text-align:start;text-decoration:none;text-decoration-line:none;text-decoration-style:solid;text-decoration-color:#000000;letter-spacing:normal;word-spacing:normal;text-transform:none;writing-mode:lr-tb;direction:ltr;text-orientation:mixed;dominant-baseline:auto;baseline-shift:baseline;text-anchor:start;white-space:normal;shape-padding:0;clip-rule:nonzero;display:inline;overflow:visible;visibility:visible;opacity:1;isolation:auto;mix-blend-mode:normal;color-interpolation:sRGB;color-interpolation-filters:linearRGB;solid-color:#000000;solid-opacity:1;vector-effect:none;fill:#000000;fill-opacity:1;fill-rule:nonzero;stroke:none;stroke-width:12.82597828;stroke-linecap:butt;stroke-linejoin:miter;stroke-miterlimit:4;stroke-dasharray:none;stroke-dashoffset:0;stroke-opacity:1;color-rendering:auto;image-rendering:auto;shape-rendering:auto;text-rendering:auto;enable-background:accumulate" />
    <path
       style="font-style:normal;font-weight:normal;font-size:233.33332825px;line-height:1.25;font-family:sans-serif;letter-spacing:0px;word-spacing:0px;fill:#000000;fill-opacity:1;stroke:none"
       d="m 555,859.83077 v 169.64663 h 111.76765 v -20.0528 H 577.5586 v -63.00398 h 89.20905 V 926.36788 H 577.5586 v -46.48437 h 89.20905 v -20.05274 z m 315.13685,38.85156 c -7.5196,0 -14.658,1.51845 -21.418,4.55664 -6.76,3.0382 -12.6472,7.3303 -17.6602,12.875 -5.1649,5.69662 -9.3431,12.76042 -12.5332,21.19141 -3.1141,8.35504 -4.6699,18.00195 -4.6699,28.93945 0,20.50782 4.4807,36.60967 13.4434,48.30667 9.0386,11.6211 21.1154,17.4317 36.2304,17.4317 7.5955,0 14.6593,-1.3673 21.1914,-4.1016 6.5322,-2.8103 13.1029,-7.0633 19.711,-12.7598 v 61.2949 h 21.418 V 902.21358 h -20.0508 l -1.3672,5.46875 c -5.4688,-2.96224 -10.8629,-5.2016 -16.1797,-6.7207 -5.2409,-1.5191 -11.2793,-2.2793 -18.1152,-2.2793 z m 298.38865,0 c -18.5329,0 -33.4955,6.11502 -44.8887,18.34375 -11.3172,12.22874 -16.9765,28.74892 -16.9765,49.56055 0,21.0395 5.9245,37.29257 17.7734,48.76177 11.849,11.3932 28.3319,17.0898 49.4473,17.0898 8.2791,0 16.1777,-1.0254 23.6973,-3.0761 7.5195,-2.0508 14.8878,-4.5947 22.1035,-7.6328 v -23.35556 h -1.1387 c -3.7218,3.34206 -9.988,6.76006 -18.7988,10.25396 -8.7348,3.418 -17.433,5.1269 -26.0918,5.1269 -6.5321,0 -12.5313,-0.9114 -18,-2.7343 -5.3928,-1.8229 -10.064,-4.5573 -14.0137,-8.2032 -4.1015,-3.72179 -7.3309,-8.46962 -9.6855,-14.24219 -2.3546,-5.84852 -3.5313,-12.68446 -3.5313,-20.50781 h 93.7656 v -11.62109 c 0,-18.45704 -4.6713,-32.69857 -14.0137,-42.72461 -9.2664,-10.02605 -22.4827,-15.03907 -39.6484,-15.03907 z m 260.6776,0 c -18.5328,0 -33.4955,6.11502 -44.8887,18.34375 -11.3172,12.22874 -16.9764,28.74892 -16.9764,49.56055 0,21.0395 5.9245,37.29257 17.7734,48.76177 11.8489,11.3932 28.3318,17.0898 49.4473,17.0898 8.2791,0 16.1777,-1.0254 23.6973,-3.0761 7.5195,-2.0508 14.8878,-4.5947 22.1035,-7.6328 v -23.35556 h -1.1406 c -3.7218,3.34206 -9.9881,6.76006 -18.7988,10.25396 -8.7349,3.418 -17.431,5.1269 -26.0899,5.1269 -6.5321,0 -12.5332,-0.9114 -18.0019,-2.7343 -5.3928,-1.8229 -10.0641,-4.5573 -14.0137,-8.2032 -4.1016,-3.72179 -7.329,-8.46962 -9.6836,-14.24219 -2.3546,-5.84852 -3.5313,-12.68446 -3.5313,-20.50781 h 93.7657 v -11.62109 c 0,-18.45704 -4.6713,-32.69857 -14.0137,-42.72461 -9.2666,-10.02605 -22.4827,-15.03907 -39.6486,-15.03907 z m -684.84755,0.45508 c -8.1273,0 -15.4935,1.06467 -22.1016,3.19141 -6.5321,2.05078 -11.9262,4.85981 -16.1796,8.42969 -4.4054,3.64583 -7.7095,7.78667 -9.9122,12.41992 -2.1268,4.63324 -3.1894,9.56966 -3.1894,14.81054 0,8.35504 2.316,15.41884 6.9492,21.19141 4.7092,5.69662 12.6471,10.02604 23.8125,12.98828 4.0256,1.06337 8.4689,2.05143 13.33,2.96289 4.9372,0.91146 8.9247,1.70899 11.9629,2.39258 8.2031,1.82292 13.7486,4.02496 16.6348,6.60742 2.8862,2.58247 4.3281,6.37956 4.3281,11.39258 0,6.53217 -2.6578,11.31727 -7.9746,14.35547 -5.3169,3.0382 -12.685,4.5586 -22.1035,4.5586 -7.5954,0 -15.5315,-1.4811 -23.8106,-4.4433 -8.279,-3.0382 -15.7986,-7.1025 -22.5585,-12.19147 h -1.1407 v 24.03907 c 5.3169,2.6585 11.8876,5.1276 19.7109,7.4063 7.8994,2.2027 16.5582,3.3047 25.9766,3.3047 16.6341,0 29.7363,-3.7225 39.3067,-11.166 9.6462,-7.4436 14.4687,-16.9766 14.4687,-28.59774 0,-9.2665 -2.695,-16.70942 -8.0879,-22.33008 -5.3927,-5.54471 -13.0654,-9.45573 -23.0155,-11.73438 -3.2662,-0.75955 -7.3678,-1.59635 -12.3047,-2.50781 -4.8611,-0.91146 -9.2652,-1.82292 -13.215,-2.73437 -7.1397,-1.67101 -12.3059,-3.83573 -15.496,-6.49415 -3.266,-2.65842 -4.8984,-6.60677 -4.8984,-11.84765 0,-5.92448 2.697,-10.36784 8.0898,-13.33008 5.3928,-3.03819 12.0009,-4.55859 19.8243,-4.55859 7.5194,0 15.1902,1.40646 23.0136,4.21679 7.8233,2.73438 14.4687,6.11307 19.9375,10.13868 h 1.1406 v -22.9004 c -5.165,-2.65842 -11.659,-4.89778 -19.4825,-6.7207 -7.7474,-1.89887 -15.42,-2.84961 -23.0155,-2.84961 z m 563.62295,0.11524 c -18.7608,0 -33.8744,5.92448 -45.3436,17.77343 -11.3932,11.84896 -17.0898,28.17861 -17.0898,48.99024 0,11.16536 1.5184,20.92621 4.5564,29.28125 3.0382,8.35493 7.3305,15.26553 12.875,20.73433 5.469,5.4687 12.0378,9.5704 19.7091,12.3048 7.6713,2.6584 16.1025,3.9883 25.2929,3.9883 7.2158,0 14.0144,-0.9488 20.3946,-2.8477 6.4562,-1.899 13.2547,-4.5586 20.3946,-7.9767 v -23.58389 h -1.1407 c -1.5951,1.29123 -3.7597,2.84889 -6.494,4.67179 -2.7344,1.747 -5.6574,3.4186 -8.7715,5.0137 -3.5699,1.8229 -7.5969,3.304 -12.0781,4.4434 -4.4814,1.1393 -8.8855,1.7089 -13.2149,1.7089 -12.4566,0 -22.1408,-4.1015 -29.0527,-12.3046 -6.836,-8.27907 -10.2539,-20.0907 -10.2539,-35.43358 0,-15.79861 3.4926,-27.7615 10.4804,-35.88867 7.0638,-8.20313 16.6734,-12.30469 28.8262,-12.30469 6.6081,0 13.3674,1.36719 20.2793,4.10156 6.9879,2.73438 13.7472,6.6454 20.2793,11.73438 h 1.1406 v -23.81055 c -5.8485,-2.96224 -12.3053,-5.46875 -19.3691,-7.51953 -6.9879,-2.05078 -14.1283,-3.07617 -21.4201,-3.07617 z m -340.88465,2.96093 v 82.60157 c 0,15.79855 3.7223,27.79885 11.166,36.00185 7.4436,8.1273 17.8488,12.1916 31.21665,12.1916 7.9754,0 15.267,-1.5186 21.875,-4.5567 6.6081,-3.0382 13.5207,-7.4069 20.7364,-13.1036 v 14.129 h 21.418 V 902.21358 h -21.418 v 95.01954 c -5.6966,4.48138 -11.8489,8.16648 -18.457,11.05278 -6.5322,2.8863 -12.5705,4.3281 -18.1153,4.3281 -6.2283,0 -10.9762,-0.7582 -14.2421,-2.2773 -3.26615,-1.5191 -5.92385,-3.951 -7.97455,-7.293 -1.9749,-3.2661 -3.2674,-7.17712 -3.875,-11.73441 -0.6078,-4.63325 -0.9103,-10.17861 -0.9103,-16.63477 v -72.46094 z m 548.24215,0 v 127.26372 h 21.4199 v -90.34965 c 5.6967,-4.63325 11.621,-8.39302 17.7734,-11.2793 6.1524,-2.96224 12.5326,-4.44336 19.1407,-4.44336 4.1016,0 7.6334,0.19054 10.5958,0.57031 3.0382,0.30382 6.1517,0.83616 9.3417,1.59571 h 1.1387 v -21.99024 c -3.3421,-0.53168 -5.8486,-0.87348 -7.5197,-1.02539 -1.6709,-0.22786 -4.366,-0.3418 -8.0879,-0.3418 -6.7599,0 -13.4072,1.4438 -19.9393,4.33008 -6.4562,2.81033 -13.9366,7.63281 -22.4434,14.46875 v -18.79883 z m -347.9492,14.12891 c 11.3932,0 19.8615,3.07617 25.4062,9.22852 5.6207,6.15234 8.469,14.84852 8.5449,26.08984 h -72.9159 c 0.9114,-10.02604 4.7478,-18.41971 11.5077,-25.17969 6.8361,-6.75998 15.9879,-10.13867 27.4571,-10.13867 z m 260.6776,0 c 11.3932,0 19.8615,3.07617 25.4064,9.22852 5.6206,6.15234 8.469,14.84852 8.5448,26.08984 h -72.9159 c 0.9114,-10.02604 4.7457,-18.41971 11.5059,-25.17969 6.8359,-6.75998 15.9897,-10.13867 27.4588,-10.13867 z m -554.16785,1.59375 c 5.3169,0 10.2552,0.53234 14.8125,1.5957 4.5573,1.06337 9.7982,2.92361 15.7227,5.58203 v 72.00586 c -5.3928,4.25347 -11.2035,7.74797 -17.4317,10.48247 -6.2283,2.6584 -12.4572,3.9863 -18.6856,3.9863 -11.1653,0 -19.3684,-3.9877 -24.6093,-11.96291 -5.1649,-8.05121 -7.748,-19.51909 -7.748,-34.40625 0,-14.73524 3.2294,-26.28168 9.6855,-34.63672 6.4562,-8.43099 15.8733,-12.64648 28.2539,-12.64648 z"
       id="text3902"
       inkscape:connector-curvature="0" />
  </g>
</svg>
