<?xml version="1.0" encoding="UTF-8" standalone="no"?>
<!-- Created with Inkscape (http://www.inkscape.org/) -->

<svg
   xmlns:dc="http://purl.org/dc/elements/1.1/"
   xmlns:cc="http://creativecommons.org/ns#"
   xmlns:rdf="http://www.w3.org/1999/02/22-rdf-syntax-ns#"
   xmlns:svg="http://www.w3.org/2000/svg"
   xmlns="http://www.w3.org/2000/svg"
   xmlns:sodipodi="http://sodipodi.sourceforge.net/DTD/sodipodi-0.dtd"
   xmlns:inkscape="http://www.inkscape.org/namespaces/inkscape"
   width="1000"
   height="1250"
   viewBox="0 0 1000 1250"
   version="1.1"
   id="svg1210"
   inkscape:version="0.92.4 (5da689c313, 2019-01-14)"
   sodipodi:docname="Pegar.svg">
  <defs
     id="defs1204" />
  <sodipodi:namedview
     id="base"
     pagecolor="#ffffff"
     bordercolor="#666666"
     borderopacity="1.0"
     inkscape:pageopacity="0.0"
     inkscape:pageshadow="2"
     inkscape:zoom="0.5"
     inkscape:cx="739.38394"
     inkscape:cy="625.14855"
     inkscape:document-units="px"
     inkscape:current-layer="layer1"
     showgrid="false"
     inkscape:window-width="681"
     inkscape:window-height="706"
     inkscape:window-x="-7"
     inkscape:window-y="0"
     inkscape:window-maximized="0"
     units="px" />
  <metadata
     id="metadata1207">
    <rdf:RDF>
      <cc:Work
         rdf:about="">
        <dc:format>image/svg+xml</dc:format>
        <dc:type
           rdf:resource="http://purl.org/dc/dcmitype/StillImage" />
        <dc:title></dc:title>
      </cc:Work>
    </rdf:RDF>
  </metadata>
  <g
     inkscape:label="Camada 1"
     inkscape:groupmode="layer"
     id="layer1"
     transform="translate(0,217.58335)">
    <path
       style="color:#000000;font-style:normal;font-variant:normal;font-weight:normal;font-stretch:normal;font-size:medium;line-height:normal;font-family:sans-serif;font-variant-ligatures:normal;font-variant-position:normal;font-variant-caps:normal;font-variant-numeric:normal;font-variant-alternates:normal;font-feature-settings:normal;text-indent:0;text-align:start;text-decoration:none;text-decoration-line:none;text-decoration-style:solid;text-decoration-color:#000000;letter-spacing:normal;word-spacing:normal;text-transform:none;writing-mode:lr-tb;direction:ltr;text-orientation:mixed;dominant-baseline:auto;baseline-shift:baseline;text-anchor:start;white-space:normal;shape-padding:0;clip-rule:nonzero;display:inline;overflow:visible;visibility:visible;opacity:1;isolation:auto;mix-blend-mode:normal;color-interpolation:sRGB;color-interpolation-filters:linearRGB;solid-color:#000000;solid-opacity:1;vector-effect:none;fill:#000000;fill-opacity:1;fill-rule:nonzero;stroke:none;stroke-width:10.71672535;stroke-linecap:butt;stroke-linejoin:miter;stroke-miterlimit:4;stroke-dasharray:none;stroke-dashoffset:0;stroke-opacity:1;color-rendering:auto;image-rendering:auto;shape-rendering:auto;text-rendering:auto;enable-background:accumulate"
       d="m 247.36523,347.81217 c -2.60709,0.11742 -5.45568,0.42266 -8.41796,1.02539 -11.84915,2.41091 -26.13071,10.22027 -33.21289,28.86524 l -0.0273,0.0742 -0.0254,0.0723 c 0,0 -5.15379,14.65277 1.11914,30.7832 l 0.3711,0.95313 0.69726,0.75 c 0,0 0.25854,0.55714 0.5,1.09766 -0.70967,-0.97256 -1.42942,-1.96449 -2.24414,-3.31055 l 0.0547,0.0918 c -4.94747,-8.5537 -12.78374,-13.89758 -21.33594,-15.94727 -8.5522,-2.04969 -17.78099,-0.99631 -26.31836,2.53125 -16.45848,6.80049 -30.51615,23.27012 -31.80469,45.87109 -2.45002,2.11688 -16.16551,14.10729 -24.11718,24.75782 -0.155,0.13835 -4.171878,3.72864 -9.212895,7.79296 -5.137132,4.14182 -11.736493,8.69468 -13.716797,9.47266 l -0.61914,0.24219 -0.539063,0.38672 c 0,0 -24.095639,17.19475 -40.511719,47.56445 l 0.216797,-0.36719 c 0,0 -6.029071,9.30484 -12.833984,19.41407 -3.402457,5.05461 -6.999269,10.30926 -10.107422,14.66796 -3.108153,4.35871 -5.922535,7.98603 -6.9296876,9.03516 l -0.3378906,0.35156 -0.2695313,0.40625 c -6.90516074,10.46052 -9.1037722,19.66731 -6.4453125,27.26563 2.6584597,7.59831 9.778513,11.94794 17.423828,13.6914 15.29063,3.48693 35.08619,-1.07845 46.791016,-13.25586 l 0.11914,-0.12304 0.109375,-0.12891 c 0,0 7.601615,-8.98996 15.714844,-19.18945 4.056615,-5.09975 8.24526,-10.50254 11.714844,-15.29688 2.987409,-4.12805 5.219477,-7.47929 6.761719,-10.58789 1.150909,-0.84748 8.547729,-6.35239 15.251949,-12.16797 3.03991,4.82672 7.69736,11.53073 15.54883,19.10157 12.28887,11.84963 30.92365,23.07552 53.48242,17.91015 l 0.0371,-0.008 0.0352,-0.01 c 0,0 5.39303,-1.3123 11.80273,-3.37304 5.12351,-1.64723 10.76979,-3.63641 15.48438,-6.28711 3.84036,2.8795 19.02002,14.10987 41.86133,26.79297 25.69634,14.26841 58.21928,28.65287 87.51172,28.3789 0.3698,0.0703 12.21172,2.32903 25.25585,7.13477 13.24875,4.88112 26.75911,12.88413 29.96876,20.625 l -0.17383,-0.48438 c 8.36018,27.32667 27.50475,44.99586 45.42187,48.82422 8.95856,1.91419 18.28616,-0.10496 24.05274,-7.09179 5.76657,-6.98683 7.53864,-17.65968 5.08593,-31.60743 l -0.0937,-0.53906 -0.20117,-0.50976 c 0,0 -1.42222,-3.62405 -2.07812,-8.15821 -0.6559,-4.53415 -0.20884,-9.29683 1.76953,-11.71484 l 0.49414,-0.60352 0.30078,-0.71875 c 0,0 2.59122,-6.24649 1.51953,-14.34375 -1.07169,-8.09725 -6.02015,-18.36863 -18.85937,-26.44726 l -0.32422,-0.20313 -0.34766,-0.15625 c 0,0 -25.96113,-11.73649 -43.35742,-29.13281 l 0.21276,0.22501 c 0,0 -14.92362,-17.10494 -29.98633,-25.79492 l -0.0547,-0.0312 -0.0566,-0.0312 c 0,0 -2.83284,-1.59018 -5.24804,-4.38672 -2.4152,-2.79654 -4.07258,-5.84142 -2.70313,-10.40625 l 0.0391,-0.13281 0.0332,-0.13672 c 0,0 1.35007,-5.52913 2.50195,-12 0.99175,-5.57131 2.03484,-11.29667 1.49805,-16.55664 0.37353,-0.53599 0.58904,-0.85491 1.16601,-1.74219 13.15463,19.31262 29.66447,26.06036 43.71875,23.98828 15.85333,-2.33731 28.11672,-15.13823 28.28711,-29.94531 0.18405,-0.7222 0.34229,-1.03773 0.45508,-2.35156 0.19109,-2.22594 0.17515,-5.3953 -0.45312,-9.68555 -1.25373,-8.56124 -4.94224,-21.59504 -14.41602,-40.70117 -0.29396,-0.87399 -5.3119,-15.67663 -15.67188,-30.94922 -10.57875,-15.59511 -27.18088,-31.98424 -50.05859,-31.53516 -0.80517,-0.10917 -1.88636,-0.20103 -3.16601,-0.0625 -2.16141,0.234 -4.98524,0.99519 -8.28125,2.77149 -6.59203,3.55259 -15.08027,11.03971 -25.26172,26.78711 l -0.0918,0.14062 -0.082,0.14649 c 0,0 -3.55147,6.26234 -7.77149,11.32031 -2.11,2.52898 -4.46256,4.67301 -5.83789,5.42773 -0.51248,0.28123 -0.58816,0.2597 -0.6582,0.27735 l -0.17578,-0.17578 -0.45703,-0.30079 c 0,0 -7.29365,-5.0141 -16.6836,-5.70117 h -0.0117 c 0.0705,0.0442 -0.17587,0.0578 -0.93555,-1.16992 -1.68984,-2.73089 -4.50862,-10.89531 -4.87109,-29.29102 l -0.004,0.34766 c 0,0 0.39753,-8.40201 -3.61914,-17.68555 -4.01667,-9.28353 -12.97622,-19.84662 -29.87891,-23.84179 l -0.0137,-0.004 -0.0117,-0.002 c 0,0 -5.64551,-1.33079 -13.4668,-0.97852 z m 0.38086,10.70508 c 6.18462,-0.29796 10.65071,0.71032 10.66211,0.71289 13.7647,3.25839 19.49098,10.7275 22.49219,17.66406 3.00242,6.93936 2.75,12.94532 2.75,12.94532 l -0.008,0.17382 0.002,0.17383 c 0.38127,19.34922 2.95629,29.03604 6.47266,34.71875 1.75818,2.84136 3.92203,4.67306 6.02343,5.55078 1.05071,0.43887 2.05198,0.63482 2.86915,0.6875 0.81716,0.0527 1.8457,-0.11132 1.8457,-0.11133 l -1.45899,0.0938 c 5.8567,0.42853 11.57813,3.96679 11.57813,3.96679 l -0.8457,-0.6875 c 1.80343,1.80343 4.41549,2.95263 6.85547,3.01758 2.43997,0.0649 4.5348,-0.70945 6.32421,-1.69141 3.57884,-1.96392 6.36696,-4.90883 8.91016,-7.95703 5.08641,-6.09639 8.88867,-12.9414 8.88867,-12.9414 l -0.17187,0.28711 c 9.53995,-14.7552 16.95946,-20.80804 21.3457,-23.17188 2.19312,-1.18192 3.62675,-1.47252 4.34961,-1.55078 0.31154,-0.0337 0.32192,-0.0559 0.30469,-0.0742 l 0.6582,0.18555 0.83008,-0.0254 c 17.84138,-0.57184 31.69973,12.55802 41.41015,26.87304 9.71042,14.31503 14.60352,28.89258 14.60352,28.89258 l 0.11719,0.35352 0.16601,0.33594 c 9.14844,18.42568 12.42253,30.4745 13.4668,37.60546 0.52214,3.56548 0.49186,5.90108 0.37891,7.2168 -0.11296,1.31573 -0.12696,1.13672 -0.12696,1.13672 l -0.33789,0.90234 -0.002,0.96485 c -0.0235,8.75382 -8.13208,17.98122 -19.16211,19.60742 -11.03003,1.6262 -25.41456,-3.62984 -37.80664,-26.84961 l -6.16992,-11.56055 -3.69727,12.57227 c -0.34761,1.18187 -1.75359,3.91688 -3.05664,6.00781 -1.30304,2.09093 -2.43945,3.64844 -2.43945,3.64844 l -1.43164,1.95703 0.52734,2.36719 c 0.26615,1.19765 -0.2117,8.80744 -1.29492,14.89257 -1.08322,6.08514 -2.36328,11.3379 -2.36328,11.3379 l 0.0742,-0.26954 c -2.57485,8.58285 1.02747,16.05557 4.85742,20.49024 3.82995,4.43467 8.22656,6.78906 8.22656,6.78906 l -0.11133,-0.0625 c 12.28441,7.08712 27.33789,23.63867 27.33789,23.63867 l 0.10352,0.11719 0.10937,0.10938 c 18.83354,18.83356 44.47474,30.39247 46.02735,31.08398 10.43587,6.61606 13.1166,13.39612 13.8164,18.68359 0.70324,5.31334 -0.78125,8.79688 -0.78125,8.79688 l 0.79493,-1.32422 c -5.12138,6.25948 -4.93619,14.1189 -4.08008,20.03711 0.74495,5.1498 2.07172,8.77647 2.45117,9.7793 2.05592,11.97255 0.0994,19.13547 -2.82422,22.67773 -2.94622,3.56967 -7.28408,4.77177 -13.54687,3.43359 -12.5256,-2.67635 -30.04873,-17.40564 -37.41407,-41.48046 l -0.0762,-0.2461 -0.0976,-0.23828 c -5.73079,-13.82125 -21.93425,-21.3336 -36.16407,-26.57617 -14.22981,-5.24257 -27.22656,-7.66602 -27.22656,-7.66602 l -0.53906,-0.10156 -0.55078,0.01 C 315.88068,616.91741 283.8406,603.35331 258.63848,589.35933 233.43636,575.36534 215.0584,561.26362 215.0584,561.26362 l -3.18945,-2.44921 -3.24219,2.3789 c -2.73004,2.00204 -9.81189,4.89507 -15.81836,6.82617 -5.979,1.92227 -10.96191,3.13918 -11.00781,3.15039 -18.04059,4.12089 -32.73695,-4.67899 -43.6289,-15.18164 -10.89641,-10.50693 -17.08985,-22.16406 -17.08985,-22.16406 l -3.39062,-6.42187 -5.13672,5.13476 c -5.57418,5.57412 -19.910159,16.3125 -19.910159,16.3125 l -1.189453,0.88086 -0.568359,1.36328 c -0.511847,1.22842 -3.090716,5.4071 -6.400391,9.98047 -3.309675,4.57337 -7.421655,9.88426 -11.417969,14.9082 -7.910165,9.94422 -15.196813,18.56532 -15.349609,18.7461 -8.108179,8.36581 -25.761169,12.65098 -36.615234,10.17578 -5.440509,-1.24067 -8.570467,-3.58496 -9.689454,-6.7832 -1.118986,-3.19825 -0.624233,-8.89094 5.271485,-17.82227 l -0.605469,0.75977 c 2.14827,-2.23781 4.723071,-5.74502 7.925781,-10.23633 3.202711,-4.49131 6.837169,-9.80236 10.271485,-14.9043 6.868632,-10.20388 12.935547,-19.57031 12.935547,-19.57031 l 0.117187,-0.17969 0.09961,-0.18555 c 14.934374,-27.62855 36.540544,-43.36411 37.125,-43.78711 5.106017,-2.26131 10.497045,-6.54878 15.562502,-10.63281 5.38098,-4.33842 9.80468,-8.29492 9.80469,-8.29492 l 0.42968,-0.38281 0.33789,-0.4668 c 6.7589,-9.32262 24.67969,-25.12891 24.67969,-25.12891 l 1.81445,-1.57421 0.0312,-2.40235 c 0.26239,-19.66861 12.01184,-33.07654 25.40235,-38.60937 6.69525,-2.76642 13.7196,-3.45382 19.72851,-2.01367 6.00891,1.44014 11.04281,4.81553 14.55664,10.89062 l 0.0254,0.0469 0.0293,0.0449 c 4.88249,8.06676 9.07666,11.85385 13.35938,13.31054 2.14135,0.72835 4.25336,0.71097 5.8164,0.3086 1.56305,-0.40237 3.00586,-1.47071 3.00586,-1.47071 l 2.07813,-1.70507 -0.125,-2.68555 c -0.28674,-6.16475 -1.37785,-10.5116 -2.53711,-13.45117 -0.60038,-1.5224 -1.3143,-2.74747 -1.88672,-3.61719 -4.50332,-12.01249 -0.93854,-22.7588 -0.87891,-22.93555 5.80822,-15.20478 15.9435,-20.18323 25.29492,-22.08593 2.34252,-0.47663 4.59794,-0.72282 6.66211,-0.82227 z"
       id="path2267"
       inkscape:connector-curvature="0" />
    <path
       style="color:#000000;font-style:normal;font-variant:normal;font-weight:normal;font-stretch:normal;font-size:medium;line-height:normal;font-family:sans-serif;font-variant-ligatures:normal;font-variant-position:normal;font-variant-caps:normal;font-variant-numeric:normal;font-variant-alternates:normal;font-feature-settings:normal;text-indent:0;text-align:start;text-decoration:none;text-decoration-line:none;text-decoration-style:solid;text-decoration-color:#000000;letter-spacing:normal;word-spacing:normal;text-transform:none;writing-mode:lr-tb;direction:ltr;text-orientation:mixed;dominant-baseline:auto;baseline-shift:baseline;text-anchor:start;white-space:normal;shape-padding:0;clip-rule:nonzero;display:inline;overflow:visible;visibility:visible;opacity:1;isolation:auto;mix-blend-mode:normal;color-interpolation:sRGB;color-interpolation-filters:linearRGB;solid-color:#000000;solid-opacity:1;vector-effect:none;fill:#000000;fill-opacity:1;fill-rule:nonzero;stroke:none;stroke-width:10.71672535;stroke-linecap:butt;stroke-linejoin:miter;stroke-miterlimit:4;stroke-dasharray:none;stroke-dashoffset:0;stroke-opacity:1;color-rendering:auto;image-rendering:auto;shape-rendering:auto;text-rendering:auto;enable-background:accumulate"
       d="m 350.60352,433.8903 -6.24805,8.70898 c 1.79408,1.28706 5.08074,5.22957 8.19726,10.23242 3.11653,5.00286 6.29051,11.0705 9.09766,16.89453 5.61429,11.64807 9.76172,22.26758 9.76172,22.26758 l 9.98437,-3.89648 c 0,0 -4.26765,-10.94195 -10.09179,-23.02539 -2.91207,-6.04172 -6.21345,-12.38278 -9.6543,-17.90625 -3.44085,-5.52348 -6.79305,-10.22374 -11.04687,-13.27539 z"
       id="path2269"
       inkscape:connector-curvature="0" />
    <path
       style="color:#000000;font-style:normal;font-variant:normal;font-weight:normal;font-stretch:normal;font-size:medium;line-height:normal;font-family:sans-serif;font-variant-ligatures:normal;font-variant-position:normal;font-variant-caps:normal;font-variant-numeric:normal;font-variant-alternates:normal;font-feature-settings:normal;text-indent:0;text-align:start;text-decoration:none;text-decoration-line:none;text-decoration-style:solid;text-decoration-color:#000000;letter-spacing:normal;word-spacing:normal;text-transform:none;writing-mode:lr-tb;direction:ltr;text-orientation:mixed;dominant-baseline:auto;baseline-shift:baseline;text-anchor:start;white-space:normal;shape-padding:0;clip-rule:nonzero;display:inline;overflow:visible;visibility:visible;opacity:1;isolation:auto;mix-blend-mode:normal;color-interpolation:sRGB;color-interpolation-filters:linearRGB;solid-color:#000000;solid-opacity:1;vector-effect:none;fill:#000000;fill-opacity:1;fill-rule:nonzero;stroke:none;stroke-width:10.71672535;stroke-linecap:butt;stroke-linejoin:miter;stroke-miterlimit:4;stroke-dasharray:none;stroke-dashoffset:0;stroke-opacity:1;color-rendering:auto;image-rendering:auto;shape-rendering:auto;text-rendering:auto;enable-background:accumulate"
       d="m 289.85547,410.21842 -10.44336,2.41016 c 1.72574,7.47824 2.82903,23.87016 3.31836,37.86523 0.48933,13.99507 0.48828,25.87891 0.48828,25.87891 v 0.13672 l 0.008,0.13672 c 0.20877,4.07295 -1.8072,8.3065 -5.92383,12.37695 -4.11663,4.07045 -10.19699,7.66734 -16.68164,9.91406 -6.48464,2.24672 -13.36172,3.13196 -18.88281,2.36719 -5.40817,-0.74913 -9.21991,-2.82357 -11.51758,-6.45703 -6.31696,-14.75199 -8.39173,-26.15977 -8.90429,-33.75781 -0.51789,-7.67705 0.40625,-11.00977 0.40625,-11.00977 l 0.084,-0.33008 0.041,-0.33789 c 1.47646,-12.10715 -0.79297,-28.41992 -0.79297,-28.41992 l -10.62891,1.37305 c 0,0 1.93624,16.29309 0.7832,25.74804 l 0.125,-0.66797 c 0,0 -1.31058,5.47625 -0.71093,14.36524 0.59964,8.88899 2.98989,21.67236 9.92773,37.72461 l 0.14453,0.33203 0.1875,0.31055 c 4.23905,7.0216 11.65817,10.67191 19.38477,11.74218 7.72659,1.07028 16.04463,-0.14723 23.86133,-2.85546 7.8167,-2.70824 15.14544,-6.9188 20.70898,-12.41993 5.56354,-5.50112 9.49888,-12.60306 9.0918,-20.54492 -5e-5,-0.24727 10e-4,-11.91986 -0.49024,-25.97851 -0.49673,-14.20664 -1.36547,-30.28872 -3.58398,-39.90235 z"
       id="path2271"
       inkscape:connector-curvature="0" />
    <path
       style="color:#000000;font-style:normal;font-variant:normal;font-weight:normal;font-stretch:normal;font-size:medium;line-height:normal;font-family:sans-serif;font-variant-ligatures:normal;font-variant-position:normal;font-variant-caps:normal;font-variant-numeric:normal;font-variant-alternates:normal;font-feature-settings:normal;text-indent:0;text-align:start;text-decoration:none;text-decoration-line:none;text-decoration-style:solid;text-decoration-color:#000000;letter-spacing:normal;word-spacing:normal;text-transform:none;writing-mode:lr-tb;direction:ltr;text-orientation:mixed;dominant-baseline:auto;baseline-shift:baseline;text-anchor:start;white-space:normal;shape-padding:0;clip-rule:nonzero;display:inline;overflow:visible;visibility:visible;opacity:1;isolation:auto;mix-blend-mode:normal;color-interpolation:sRGB;color-interpolation-filters:linearRGB;solid-color:#000000;solid-opacity:1;vector-effect:none;fill:#000000;fill-opacity:1;fill-rule:nonzero;stroke:none;stroke-width:10.71672535;stroke-linecap:butt;stroke-linejoin:miter;stroke-miterlimit:4;stroke-dasharray:none;stroke-dashoffset:0;stroke-opacity:1;color-rendering:auto;image-rendering:auto;shape-rendering:auto;text-rendering:auto;enable-background:accumulate"
       d="m 126.66602,441.91764 c 0,0 -10.9015,41.33377 -7.28711,70.49805 -2.52629,13.32323 0.72316,24.17058 7.68164,31.00781 7.10713,6.9833 17.21539,9.68567 27.23828,9.33398 10.02289,-0.35168 20.21213,-3.72627 28.17773,-9.99218 7.9656,-6.26591 13.64682,-15.82361 13.37696,-27.33789 l -0.002,0.32422 c 0,0 0.52189,-13.97887 2.20703,-29.56641 0.84258,-7.79377 1.9802,-15.97939 3.44727,-22.87695 1.46707,-6.89757 3.53989,-12.63139 4.9375,-14.61133 l -8.75391,-6.17969 c -3.33555,4.72535 -5.07625,11.08805 -6.66601,18.5625 -1.58977,7.47445 -2.75252,15.93685 -3.61914,23.95312 -1.73326,16.03255 -2.26172,30.32032 -2.26172,30.32032 l -0.008,0.16211 0.004,0.16211 c 0.18714,7.98468 -3.40646,14.03863 -9.28906,18.66601 -5.8826,4.62738 -14.11349,7.42901 -21.92578,7.70313 -7.8123,0.27411 -14.95475,-1.94738 -19.35156,-6.26758 -4.39682,-4.3202 -6.87695,-10.85653 -4.56641,-22.03516 l 0.18555,-0.89648 -0.12305,-0.9082 c -3.39292,-24.96233 6.98242,-67.37696 6.98242,-67.37696 z"
       id="path2273"
       inkscape:connector-curvature="0" />
    <path
       style="color:#000000;font-style:normal;font-variant:normal;font-weight:normal;font-stretch:normal;font-size:medium;line-height:normal;font-family:sans-serif;font-variant-ligatures:normal;font-variant-position:normal;font-variant-caps:normal;font-variant-numeric:normal;font-variant-alternates:normal;font-feature-settings:normal;text-indent:0;text-align:start;text-decoration:none;text-decoration-line:none;text-decoration-style:solid;text-decoration-color:#000000;letter-spacing:normal;word-spacing:normal;text-transform:none;writing-mode:lr-tb;direction:ltr;text-orientation:mixed;dominant-baseline:auto;baseline-shift:baseline;text-anchor:start;white-space:normal;shape-padding:0;clip-rule:nonzero;display:inline;overflow:visible;visibility:visible;opacity:1;isolation:auto;mix-blend-mode:normal;color-interpolation:sRGB;color-interpolation-filters:linearRGB;solid-color:#000000;solid-opacity:1;vector-effect:none;fill:#000000;fill-opacity:1;fill-rule:nonzero;stroke:none;stroke-width:10.71672535;stroke-linecap:butt;stroke-linejoin:miter;stroke-miterlimit:4;stroke-dasharray:none;stroke-dashoffset:0;stroke-opacity:1;color-rendering:auto;image-rendering:auto;shape-rendering:auto;text-rendering:auto;enable-background:accumulate"
       d="m 36.736328,556.27702 c -2.053541,0.0211 -4.034137,0.3119 -5.878906,0.71484 -7.379076,1.61175 -13.291016,5.33398 -13.291016,5.33398 l 5.59961,9.13672 c 0,0 4.867322,-2.8836 9.978515,-4 2.555597,-0.5582 5.000324,-0.59461 6.683594,-0.0625 1.222489,0.38645 2.151999,1.16403 3.033203,2.4336 -0.694058,2.14737 -2.315951,6.59068 -6.378906,10.90625 -5.198264,5.52146 -12.620587,9.81893 -28.3066408,3.47265 l -4.0195312,9.9336 c 18.760749,7.59024 32.639678,1.89432 40.128906,-6.06055 7.489228,-7.95487 9.689453,-17.63867 9.689453,-17.63867 l 0.421875,-1.75781 -0.728515,-1.6543 c -2.241507,-5.08652 -6.326901,-8.49976 -10.609375,-9.85352 -2.141238,-0.67688 -4.268725,-0.92541 -6.322266,-0.90429 z"
       id="path2275"
       inkscape:connector-curvature="0" />
    <path
       style="color:#000000;font-style:normal;font-variant:normal;font-weight:normal;font-stretch:normal;font-size:medium;line-height:normal;font-family:sans-serif;font-variant-ligatures:normal;font-variant-position:normal;font-variant-caps:normal;font-variant-numeric:normal;font-variant-alternates:normal;font-feature-settings:normal;text-indent:0;text-align:start;text-decoration:none;text-decoration-line:none;text-decoration-style:solid;text-decoration-color:#000000;letter-spacing:normal;word-spacing:normal;text-transform:none;writing-mode:lr-tb;direction:ltr;text-orientation:mixed;dominant-baseline:auto;baseline-shift:baseline;text-anchor:start;white-space:normal;shape-padding:0;clip-rule:nonzero;display:inline;overflow:visible;visibility:visible;opacity:1;isolation:auto;mix-blend-mode:normal;color-interpolation:sRGB;color-interpolation-filters:linearRGB;solid-color:#000000;solid-opacity:1;vector-effect:none;fill:#000000;fill-opacity:1;fill-rule:nonzero;stroke:none;stroke-width:10.71672535;stroke-linecap:butt;stroke-linejoin:miter;stroke-miterlimit:4;stroke-dasharray:none;stroke-dashoffset:0;stroke-opacity:1;color-rendering:auto;image-rendering:auto;shape-rendering:auto;text-rendering:auto;enable-background:accumulate"
       d="m 154.74609,479.80241 c -14.92253,1.02962 -27.79706,16.57383 -25.9707,40.4707 l 0.21289,2.79492 2.41797,1.41797 c 0,0 5.39882,3.08684 13.85547,4.17969 8.45665,1.09284 20.42925,0.3857 34.45117,-6.17774 l 2.9707,-1.39062 0.11329,-3.27735 c 0.42751,-12.37043 -2.49669,-22.02282 -7.73047,-28.62695 -5.23378,-6.60413 -12.85905,-9.90543 -20.32032,-9.39062 z m 0.73829,10.6914 c 3.98618,-0.27503 7.91853,1.23553 11.18359,5.35547 2.87723,3.63057 5.05009,9.64654 5.30664,18.16797 -10.64755,4.32623 -19.30217,4.79978 -25.33984,4.01953 -3.22336,-0.41655 -5.5894,-1.0833 -7.20899,-1.66211 -0.31733,-17.6737 8.52771,-25.36124 16.0586,-25.88086 z"
       id="path2277"
       inkscape:connector-curvature="0" />
    <path
       style="color:#000000;font-style:normal;font-variant:normal;font-weight:normal;font-stretch:normal;font-size:medium;line-height:normal;font-family:sans-serif;font-variant-ligatures:normal;font-variant-position:normal;font-variant-caps:normal;font-variant-numeric:normal;font-variant-alternates:normal;font-feature-settings:normal;text-indent:0;text-align:start;text-decoration:none;text-decoration-line:none;text-decoration-style:solid;text-decoration-color:#000000;letter-spacing:normal;word-spacing:normal;text-transform:none;writing-mode:lr-tb;direction:ltr;text-orientation:mixed;dominant-baseline:auto;baseline-shift:baseline;text-anchor:start;white-space:normal;shape-padding:0;clip-rule:nonzero;display:inline;overflow:visible;visibility:visible;opacity:1;isolation:auto;mix-blend-mode:normal;color-interpolation:sRGB;color-interpolation-filters:linearRGB;solid-color:#000000;solid-opacity:1;vector-effect:none;fill:#000000;fill-opacity:1;fill-rule:nonzero;stroke:none;stroke-width:10.71672535;stroke-linecap:butt;stroke-linejoin:miter;stroke-miterlimit:4;stroke-dasharray:none;stroke-dashoffset:0;stroke-opacity:1;color-rendering:auto;image-rendering:auto;shape-rendering:auto;text-rendering:auto;enable-background:accumulate"
       d="m 253.11328,436.64811 c -1.92457,0.15949 -3.82121,0.56414 -5.63867,1.20508 -14.53965,5.12749 -24.69906,23.51368 -19.27149,45.72461 l 1.04688,4.29101 4.41211,-0.21094 c 0,0 8.09509,-0.38055 17.80078,-1.99414 9.70569,-1.61359 21.04586,-4.09749 28.88477,-10.06445 l 2.44922,-1.86328 -0.37696,-3.05469 c -1.65291,-13.44072 -6.11315,-22.9019 -12.625,-28.54492 -4.88389,-4.23226 -10.90792,-5.96674 -16.68164,-5.48828 z m 0.95899,10.5957 c 2.98972,-0.33418 5.85997,0.52669 8.70507,2.99219 3.38632,2.9345 6.66241,8.85509 8.3711,18.37305 -5.29035,2.82922 -13.78911,5.20988 -21.44336,6.48242 -4.65967,0.77468 -8.78958,1.23125 -11.82031,1.50586 -2.0555,-15.47017 5.6468,-25.98916 13.15429,-28.63672 1.02672,-0.36208 2.03663,-0.6054 3.03321,-0.7168 z"
       id="path2279"
       inkscape:connector-curvature="0" />
    <path
       style="color:#000000;font-style:normal;font-variant:normal;font-weight:normal;font-stretch:normal;font-size:medium;line-height:normal;font-family:sans-serif;font-variant-ligatures:normal;font-variant-position:normal;font-variant-caps:normal;font-variant-numeric:normal;font-variant-alternates:normal;font-feature-settings:normal;text-indent:0;text-align:start;text-decoration:none;text-decoration-line:none;text-decoration-style:solid;text-decoration-color:#000000;letter-spacing:normal;word-spacing:normal;text-transform:none;writing-mode:lr-tb;direction:ltr;text-orientation:mixed;dominant-baseline:auto;baseline-shift:baseline;text-anchor:start;white-space:normal;shape-padding:0;clip-rule:nonzero;display:inline;overflow:visible;visibility:visible;opacity:1;isolation:auto;mix-blend-mode:normal;color-interpolation:sRGB;color-interpolation-filters:linearRGB;solid-color:#000000;solid-opacity:1;vector-effect:none;fill:#000000;fill-opacity:1;fill-rule:nonzero;stroke:none;stroke-width:10.71672535;stroke-linecap:butt;stroke-linejoin:miter;stroke-miterlimit:4;stroke-dasharray:none;stroke-dashoffset:0;stroke-opacity:1;color-rendering:auto;image-rendering:auto;shape-rendering:auto;text-rendering:auto;enable-background:accumulate"
       d="m 412.23438,458.50163 c -1.75883,0.20368 -3.47117,0.63054 -5.09766,1.27734 -13.01193,5.1744 -19.72553,22.59187 -11.88086,41.16016 l 1.17773,2.7871 2.99414,0.43164 c 0,0 9.6932,1.42954 19.875,0.93165 5.09091,-0.24895 10.34442,-0.90817 15.0293,-2.85743 4.68488,-1.94926 9.33898,-6.08076 9.87109,-12.00976 l 0.0938,-1.0332 -0.30079,-0.99415 c -3.68326,-12.202 -9.18182,-20.50864 -15.82031,-25.30078 -4.97886,-3.5941 -10.66492,-5.00362 -15.9414,-4.39257 z m 1.31835,10.57421 c 2.52898,-0.35107 5.28219,0.29353 8.34961,2.50782 3.89657,2.81282 8.16176,8.61954 11.33789,18.35547 -0.28383,0.859 -0.89612,1.51526 -3.02343,2.40039 -2.68865,1.11867 -7.02244,1.83097 -11.4375,2.04687 -6.31083,0.3086 -11.49237,-0.16186 -14.62696,-0.50586 -4.23192,-12.9151 1.01233,-21.78401 6.94336,-24.14258 0.79642,-0.31671 1.61404,-0.54508 2.45703,-0.66211 z"
       id="path2281"
       inkscape:connector-curvature="0" />
    <path
       style="color:#000000;font-style:normal;font-variant:normal;font-weight:normal;font-stretch:normal;font-size:medium;line-height:normal;font-family:sans-serif;font-variant-ligatures:normal;font-variant-position:normal;font-variant-caps:normal;font-variant-numeric:normal;font-variant-alternates:normal;font-feature-settings:normal;text-indent:0;text-align:start;text-decoration:none;text-decoration-line:none;text-decoration-style:solid;text-decoration-color:#000000;letter-spacing:normal;word-spacing:normal;text-transform:none;writing-mode:lr-tb;direction:ltr;text-orientation:mixed;dominant-baseline:auto;baseline-shift:baseline;text-anchor:start;white-space:normal;shape-padding:0;clip-rule:nonzero;display:inline;overflow:visible;visibility:visible;opacity:1;isolation:auto;mix-blend-mode:normal;color-interpolation:sRGB;color-interpolation-filters:linearRGB;solid-color:#000000;solid-opacity:1;vector-effect:none;fill:#000000;fill-opacity:1;fill-rule:nonzero;stroke:none;stroke-width:10.71672535;stroke-linecap:butt;stroke-linejoin:miter;stroke-miterlimit:4;stroke-dasharray:none;stroke-dashoffset:0;stroke-opacity:1;color-rendering:auto;image-rendering:auto;shape-rendering:auto;text-rendering:auto;enable-background:accumulate"
       d="m 421.91992,604.25944 c -27.99189,15.75844 -26.14844,48.85547 -26.14844,48.85547 l 10.69922,-0.60157 c 0,0 -1.50365,-26.41219 20.70703,-38.91601 z"
       id="path2283"
       inkscape:connector-curvature="0" />
    <path
       style="color:#000000;font-style:normal;font-variant:normal;font-weight:normal;font-stretch:normal;font-size:medium;line-height:normal;font-family:sans-serif;font-variant-ligatures:normal;font-variant-position:normal;font-variant-caps:normal;font-variant-numeric:normal;font-variant-alternates:normal;font-feature-settings:normal;text-indent:0;text-align:start;text-decoration:none;text-decoration-line:none;text-decoration-style:solid;text-decoration-color:#000000;letter-spacing:normal;word-spacing:normal;text-transform:none;writing-mode:lr-tb;direction:ltr;text-orientation:mixed;dominant-baseline:auto;baseline-shift:baseline;text-anchor:start;white-space:normal;shape-padding:0;clip-rule:nonzero;display:inline;overflow:visible;visibility:visible;opacity:1;isolation:auto;mix-blend-mode:normal;color-interpolation:sRGB;color-interpolation-filters:linearRGB;solid-color:#000000;solid-opacity:1;vector-effect:none;fill:#000000;fill-opacity:1;fill-rule:nonzero;stroke:none;stroke-width:10.71672535;stroke-linecap:butt;stroke-linejoin:miter;stroke-miterlimit:4;stroke-dasharray:none;stroke-dashoffset:0;stroke-opacity:1;color-rendering:auto;image-rendering:auto;shape-rendering:auto;text-rendering:auto;enable-background:accumulate"
       d="m 354.92969,570.12858 c -25.66191,17.81494 -18.49414,52.68945 -18.49414,52.68945 l 10.51757,-2.06445 c 0,0 -5.24652,-28.39999 14.0879,-41.82227 z"
       id="path2285"
       inkscape:connector-curvature="0" />
    <path
       style="color:#000000;font-style:normal;font-variant:normal;font-weight:normal;font-stretch:normal;font-size:medium;line-height:normal;font-family:sans-serif;font-variant-ligatures:normal;font-variant-position:normal;font-variant-caps:normal;font-variant-numeric:normal;font-variant-alternates:normal;font-feature-settings:normal;text-indent:0;text-align:start;text-decoration:none;text-decoration-line:none;text-decoration-style:solid;text-decoration-color:#000000;letter-spacing:normal;word-spacing:normal;text-transform:none;writing-mode:lr-tb;direction:ltr;text-orientation:mixed;dominant-baseline:auto;baseline-shift:baseline;text-anchor:start;white-space:normal;shape-padding:0;clip-rule:nonzero;display:inline;overflow:visible;visibility:visible;opacity:1;isolation:auto;mix-blend-mode:normal;color-interpolation:sRGB;color-interpolation-filters:linearRGB;solid-color:#000000;solid-opacity:1;vector-effect:none;fill:#000000;fill-opacity:1;fill-rule:nonzero;stroke:none;stroke-width:10.71672535;stroke-linecap:butt;stroke-linejoin:miter;stroke-miterlimit:4;stroke-dasharray:none;stroke-dashoffset:0;stroke-opacity:1;color-rendering:auto;image-rendering:auto;shape-rendering:auto;text-rendering:auto;enable-background:accumulate"
       d="m 119.54883,526.11295 c 0.22473,-0.53937 -1.48543,1.82734 -3.15625,3.29297 -1.67082,1.46564 -3.21094,2.59375 -3.21094,2.59375 l 6.32422,8.65235 c 0,0 1.87685,-1.36816 3.95312,-3.18946 2.07628,-1.82129 4.44296,-3.5318 5.98243,-7.22656 z"
       id="path2289"
       inkscape:connector-curvature="0" />
    <path
       style="color:#000000;font-style:normal;font-variant:normal;font-weight:normal;font-stretch:normal;font-size:medium;line-height:normal;font-family:sans-serif;font-variant-ligatures:normal;font-variant-position:normal;font-variant-caps:normal;font-variant-numeric:normal;font-variant-alternates:normal;font-feature-settings:normal;text-indent:0;text-align:start;text-decoration:none;text-decoration-line:none;text-decoration-style:solid;text-decoration-color:#000000;letter-spacing:normal;word-spacing:normal;text-transform:none;writing-mode:lr-tb;direction:ltr;text-orientation:mixed;dominant-baseline:auto;baseline-shift:baseline;text-anchor:start;white-space:normal;shape-padding:0;clip-rule:nonzero;display:inline;overflow:visible;visibility:visible;opacity:1;isolation:auto;mix-blend-mode:normal;color-interpolation:sRGB;color-interpolation-filters:linearRGB;solid-color:#000000;solid-opacity:1;vector-effect:none;fill:#000000;fill-opacity:1;fill-rule:nonzero;stroke:none;stroke-width:22.14479446;stroke-linecap:butt;stroke-linejoin:miter;stroke-miterlimit:4;stroke-dasharray:none;stroke-dashoffset:0;stroke-opacity:1;color-rendering:auto;image-rendering:auto;shape-rendering:auto;text-rendering:auto;enable-background:accumulate"
       d="m 448.78711,-217.17416 c -85.3375,-0.025 -143.96207,34.23907 -177.68164,85.4961 -33.72246,51.261407 -43.13205,118.196317 -35.76172,184.453117 7.37033,66.256803 31.55393,132.128193 67.25586,182.152353 35.70193,50.02415 83.76913,84.87059 138.44141,84.54492 54.6465,-0.32555 102.32148,-35.53945 137.8125,-85.73242 35.49101,-50.19298 59.62677,-116.03669 67.64257,-182.128913 8.01581,-66.09222 -0.0129,-132.67599 -31.15429,-183.734367 -31.13833,-51.05332 -86.31491,-85.33934 -166.55469,-85.05079 z m 0.0117,22.14453 h 0.0234 0.0215 c 74.10768,-0.27282 120.0733,29.31914 147.5918,74.4375 27.51849,45.118367 35.65953,107.010457 28.07617,169.537107 -7.58337,62.526663 -30.81442,125.444613 -63.74024,172.009773 -32.92581,46.56516 -74.71671,76.10409 -119.86328,76.37305 -45.12081,0.26877 -87.20395,-28.91354 -120.28515,-75.26563 -33.0812,-46.35209 -56.31353,-109.20418 -63.26953,-171.736333 -6.95601,-62.53214 2.39711,-124.45172 32.25195,-169.833977 29.85484,-45.38226 79.61496,-75.55024 159.19336,-75.52149 z"
       id="path10-9-5"
       inkscape:connector-curvature="0" />
    <path
       style="color:#000000;font-style:normal;font-variant:normal;font-weight:normal;font-stretch:normal;font-size:medium;line-height:normal;font-family:sans-serif;font-variant-ligatures:normal;font-variant-position:normal;font-variant-caps:normal;font-variant-numeric:normal;font-variant-alternates:normal;font-feature-settings:normal;text-indent:0;text-align:start;text-decoration:none;text-decoration-line:none;text-decoration-style:solid;text-decoration-color:#000000;letter-spacing:normal;word-spacing:normal;text-transform:none;writing-mode:lr-tb;direction:ltr;text-orientation:mixed;dominant-baseline:auto;baseline-shift:baseline;text-anchor:start;white-space:normal;shape-padding:0;clip-rule:nonzero;display:inline;overflow:visible;visibility:visible;opacity:1;isolation:auto;mix-blend-mode:normal;color-interpolation:sRGB;color-interpolation-filters:linearRGB;solid-color:#000000;solid-opacity:1;vector-effect:none;fill:#000000;fill-opacity:1;fill-rule:nonzero;stroke:none;stroke-width:11.07239723;stroke-linecap:butt;stroke-linejoin:miter;stroke-miterlimit:4;stroke-dasharray:none;stroke-dashoffset:0;stroke-opacity:1;color-rendering:auto;image-rendering:auto;shape-rendering:auto;text-rendering:auto;enable-background:accumulate"
       d="m 436.93945,49.528967 c 0,0 -1.24868,12.32401 -3.31445,25.26953 -1.03289,6.47276 -2.27627,13.10195 -3.61328,18.25195 -0.66851,2.57501 -1.36897,4.78575 -1.9961,6.31055 -0.62712,1.524803 -1.43717,2.322653 -0.85546,1.837893 -1.22524,1.02103 -2.52244,1.87294 -3.20118,4.58789 -0.33936,1.35748 -0.14584,3.37889 0.72071,4.79102 0.86654,1.41213 1.99377,2.103 2.8457,2.5039 3.40774,1.60363 5.1576,0.98792 7.47461,0.82813 4.63403,-0.31959 9.65234,-1.35156 9.65234,-1.35156 l -2.17187,-10.85743 c 0,0 -2.36647,0.30195 -3.79883,0.53711 0.73452,-1.96909 1.42855,-4.024533 2.04688,-6.406253 1.49414,-5.75524 2.76775,-12.61765 3.83203,-19.28711 2.12854,-13.33891 3.39648,-25.90234 3.39648,-25.90234 z"
       id="path971-8"
       inkscape:connector-curvature="0" />
    <path
       style="color:#000000;font-style:normal;font-variant:normal;font-weight:normal;font-stretch:normal;font-size:medium;line-height:normal;font-family:sans-serif;font-variant-ligatures:normal;font-variant-position:normal;font-variant-caps:normal;font-variant-numeric:normal;font-variant-alternates:normal;font-feature-settings:normal;text-indent:0;text-align:start;text-decoration:none;text-decoration-line:none;text-decoration-style:solid;text-decoration-color:#000000;letter-spacing:normal;word-spacing:normal;text-transform:none;writing-mode:lr-tb;direction:ltr;text-orientation:mixed;dominant-baseline:auto;baseline-shift:baseline;text-anchor:start;white-space:normal;shape-padding:0;clip-rule:nonzero;display:inline;overflow:visible;visibility:visible;opacity:1;isolation:auto;mix-blend-mode:normal;color-interpolation:sRGB;color-interpolation-filters:linearRGB;solid-color:#000000;solid-opacity:1;vector-effect:none;fill:#000000;fill-opacity:1;fill-rule:nonzero;stroke:none;stroke-width:17.57800293;stroke-linecap:butt;stroke-linejoin:miter;stroke-miterlimit:4;stroke-dasharray:none;stroke-dashoffset:0;stroke-opacity:1;color-rendering:auto;image-rendering:auto;shape-rendering:auto;text-rendering:auto;enable-background:accumulate"
       d="m 735.75977,338.32194 c -9.60766,0.64241 -20.28102,3.9224 -29.84375,12.77148 l -1.11914,1.03516 -0.70508,1.34961 c 0,0 0.43758,-0.52797 -0.54297,0.44726 -0.98056,0.97524 -2.9797,2.67312 -6.6543,4.67969 -7.3492,4.01313 -21.45046,9.2242 -46.85742,11.9082 l -0.59766,0.0625 -0.58593,0.14453 c 0,0 -7.06904,1.72431 -14.84375,5.3125 -7.77472,3.5882 -17.48364,8.66961 -21.20508,19.61719 l -0.91602,2.69336 0.041,0.13477 c -0.48953,0.62855 -1.28632,1.53794 -2.64453,2.73437 -5.58475,4.91951 -19.80881,13.9212 -51.17969,25.76563 l 0.59765,-0.20117 c 0,0 -10.20817,3.29498 -21.94726,14.00781 -11.73909,10.71282 -26.0115,29.11439 -37.67774,59.83203 l -0.15039,0.39648 -0.11132,0.41016 c 0,0 -1.84934,6.63391 -2.51953,14.14063 -0.3351,3.75335 -0.46824,7.76905 0.44335,12.00195 0.44902,2.08497 1.32425,4.49722 2.78516,6.68164 -1.00017,4.46366 -3.69301,15.08726 -13.6875,38.46484 0,0 -7.63916,17.77282 -9.3418,40.87696 -1.70264,23.10413 2.68305,52.92179 27.11914,75.09961 l 1.42579,1.29296 1.83789,0.58008 c 0,0 41.64942,13.85539 79.58203,3.11914 12.39944,6.88057 55.46344,26.58345 98.60351,-1.75586 1.15192,0.79515 2.38447,1.59724 3.8125,2.32227 3.30494,1.67796 7.4758,3.16809 12.50782,4.08398 -2.08458,4.88376 -3.76784,10.31629 -4.21485,16.35743 -0.55028,7.43694 0.61939,15.67612 5.20313,23.00976 4.58374,7.33364 12.54929,13.22596 23.32812,16.21096 l 0.84375,0.2324 43.36133,3.1094 c 0.67691,0.1815 13.73727,3.6775 29.05078,8.2539 15.70475,4.6933 34.00761,11.029 38.19141,13.3926 l 0.78125,0.4414 0.85547,0.2754 c 0,0 10.52759,3.4315 23.63086,2.6992 13.10326,-0.7323 30.14286,-6.2028 40.7207,-23.1992 l 0.1289,-0.2051 50.79493,-92.61721 -0.42774,0.70117 c 0,0 7.6807,-11.705 8.45117,-30.11328 0.73762,-17.6234 -4.72855,-41.97786 -25.7246,-69.95312 2.18386,-8.71363 5.42007,-29.09983 -5.15626,-49.19141 2.0166,-4.69517 5.86603,-14.2886 8.48829,-28.80469 3.33974,-18.48789 3.62123,-42.41003 -10.32813,-62.16211 -0.53419,-1.51132 -3.47312,-9.66591 -9.44336,-19.80468 -6.54577,-11.11616 -16.31621,-24.26513 -31.17578,-30.81641 l -1.45898,-0.64258 -1.58985,-0.0898 c 0,0 0.30776,0.129 -1.20703,-0.41602 -1.51478,-0.54502 -4.08272,-1.72072 -7.48633,-4.29297 l 1.15039,1.03907 c 0,0 -3.71293,-3.757 -9.65625,-6.35157 -5.42693,-2.36914 -13.3593,-4.18341 -23.54687,-3.77343 -4.17534,-2.19651 -16.00208,-7.39984 -29.51563,-4.88282 -1.87645,-0.14719 -27.55464,-2.30875 -50.67578,-13.26172 l 0.0645,0.0293 c 0,0 -13.04975,-6.25428 -29.0625,-5.18359 z m 1.96484,17.32031 c 10.69245,-0.60258 19.44531,3.6875 19.44531,3.6875 l 0.0312,0.0156 0.0312,0.0156 c 27.88599,13.21017 57.72852,14.98828 57.72852,14.98828 l 1.35351,0.0879 1.31836,-0.32422 c 7.51476,-1.84818 21.02735,4.07813 21.02735,4.07813 l 2.28711,1.22656 2.58799,-0.21285 c 8.93518,-0.73288 14.57413,0.8348 17.92773,2.29883 3.3536,1.46402 3.79297,2.1875 3.79297,2.1875 l 0.52734,0.57031 0.6211,0.46875 c 4.76157,3.59853 8.94138,5.66032 12.13281,6.80859 1.31309,0.47245 2.47405,0.72222 3.52148,0.94141 8.99011,4.15426 17.20588,14.0469 22.71485,23.40234 5.59387,9.49963 8.39258,17.67383 8.39258,17.67383 l 0.44531,1.30469 0.82422,1.10547 c 10.59502,14.22256 10.91631,33.4581 7.95703,49.83984 -2.95928,16.38174 -8.8418,28.77149 -8.8418,28.77149 l -2.08008,4.36523 2.57227,4.09375 c 12.2178,19.44762 4.41601,42.71094 4.41601,42.71094 l -0.49414,3.18164 1.89454,5.19727 c 21.25685,26.83427 25.25615,47.82641 24.6621,62.01953 -0.59404,14.19312 -5.44336,20.99218 -5.44336,20.99218 l -0.23046,0.33985 -50.69727,92.43554 c -7.1453,11.40722 -17.17463,14.31642 -26.71484,14.84962 -9.35258,0.5227 -16.71778,-1.7325 -17.05274,-1.8359 -9.31911,-4.9044 -25.09582,-9.6924 -40.39258,-14.26372 -15.992,-4.77913 -30.27929,-8.60351 -30.27929,-8.60351 l -0.8086,-0.2168 -43.11914,-3.08984 c -6.96901,-2.05678 -10.42816,-5.05202 -12.5039,-8.37305 -2.14254,-3.4279 -2.92423,-7.71706 -2.57813,-12.39453 0.3461,-4.67747 1.90024,-9.5728 3.70703,-13.10547 1.8068,-3.53267 5.0274,-5.34 2.67774,-4.44922 l 5.11523,-1.93945 0.51758,-5.44531 1.00586,-10.56055 -10.5625,0.97461 c -10.44835,0.96468 -16.68605,-1.03759 -20.32813,-2.88672 -3.64207,-1.84913 -4.12695,-2.83984 -4.12695,-2.83984 l -5.30664,-7.1836 -7.09766,5.42188 c -44.22799,33.78597 -87.75195,2.99609 -87.75195,2.99609 l -3.59375,-2.45703 -4.13086,1.36914 c -28.7578,9.53261 -65.57603,-0.16189 -70.7207,-1.59375 -18.18522,-17.48047 -21.51074,-39.96627 -20.07813,-59.40625 1.46968,-19.94283 7.97461,-35.25781 7.97461,-35.25781 13.10204,-30.64626 15.95703,-46.68164 15.95703,-46.68164 l 1.22071,-7.10156 -5.25391,-2.02344 c -0.27016,-1.28719 -0.36559,-3.95085 -0.12109,-6.68945 0.46608,-5.22054 1.74124,-10.15288 1.88476,-10.70313 10.77138,-28.17462 23.36813,-43.94112 32.91602,-52.6543 9.59945,-8.76023 15.11133,-10.14453 15.11133,-10.14453 l 0.30273,-0.0898 0.29492,-0.11133 c 32.43119,-12.24476 48.16722,-21.60213 56.58985,-29.02148 4.21131,-3.70968 6.66416,-7.02856 7.97851,-10.27149 0.42424,-1.04672 0.51518,-2.0132 0.6875,-3.00195 0.86908,-2.06311 5.90641,-6.41364 11.80664,-9.13672 5.83171,-2.69146 11.0667,-4.03532 11.44141,-4.13086 26.47128,-2.89413 42.63692,-8.44225 52.5,-13.82813 4.995,-2.72759 8.38597,-5.41571 10.62695,-7.64453 0.91971,-0.91471 1.6048,-1.82209 2.22071,-2.64648 6.2628,-5.65486 13.2465,-7.74389 19.55859,-8.09961 z"
       id="path26279"
       inkscape:connector-curvature="0"
       sodipodi:nodetypes="ccccsccccsccccccscccccccscccccsccscccccccsccccsccscsccccccsccccccccccccccccccccccscccsccccccscccccccccssccccccccccccccsccccccsccccccscscccc" />
    <path
       style="color:#000000;font-style:normal;font-variant:normal;font-weight:normal;font-stretch:normal;font-size:medium;line-height:normal;font-family:sans-serif;font-variant-ligatures:normal;font-variant-position:normal;font-variant-caps:normal;font-variant-numeric:normal;font-variant-alternates:normal;font-feature-settings:normal;text-indent:0;text-align:start;text-decoration:none;text-decoration-line:none;text-decoration-style:solid;text-decoration-color:#000000;letter-spacing:normal;word-spacing:normal;text-transform:none;writing-mode:lr-tb;direction:ltr;text-orientation:mixed;dominant-baseline:auto;baseline-shift:baseline;text-anchor:start;white-space:normal;shape-padding:0;clip-rule:nonzero;display:inline;overflow:visible;visibility:visible;opacity:1;isolation:auto;mix-blend-mode:normal;color-interpolation:sRGB;color-interpolation-filters:linearRGB;solid-color:#000000;solid-opacity:1;vector-effect:none;fill:#000000;fill-opacity:1;fill-rule:nonzero;stroke:none;stroke-width:17.57800293;stroke-linecap:butt;stroke-linejoin:miter;stroke-miterlimit:4;stroke-dasharray:none;stroke-dashoffset:0;stroke-opacity:1;color-rendering:auto;image-rendering:auto;shape-rendering:auto;text-rendering:auto;enable-background:accumulate"
       d="m 908.61133,484.15006 c -2.91066,21.0377 2.85937,34.79297 2.85937,34.79297 l 18.00977,-4.23047 c 0,0 -5.61664,-12.54308 -3.45703,-28.15234 z"
       id="path26281"
       inkscape:connector-curvature="0"
       sodipodi:nodetypes="ccccc" />
    <path
       style="color:#000000;font-style:normal;font-variant:normal;font-weight:normal;font-stretch:normal;font-size:medium;line-height:normal;font-family:sans-serif;font-variant-ligatures:normal;font-variant-position:normal;font-variant-caps:normal;font-variant-numeric:normal;font-variant-alternates:normal;font-feature-settings:normal;text-indent:0;text-align:start;text-decoration:none;text-decoration-line:none;text-decoration-style:solid;text-decoration-color:#000000;letter-spacing:normal;word-spacing:normal;text-transform:none;writing-mode:lr-tb;direction:ltr;text-orientation:mixed;dominant-baseline:auto;baseline-shift:baseline;text-anchor:start;white-space:normal;shape-padding:0;clip-rule:nonzero;display:inline;overflow:visible;visibility:visible;opacity:1;isolation:auto;mix-blend-mode:normal;color-interpolation:sRGB;color-interpolation-filters:linearRGB;solid-color:#000000;solid-opacity:1;vector-effect:none;fill:#000000;fill-opacity:1;fill-rule:nonzero;stroke:none;stroke-width:17.57800293;stroke-linecap:butt;stroke-linejoin:miter;stroke-miterlimit:4;stroke-dasharray:none;stroke-dashoffset:0;stroke-opacity:1;color-rendering:auto;image-rendering:auto;shape-rendering:auto;text-rendering:auto;enable-background:accumulate"
       d="m 935.53516,568.40592 -17.57032,0.52344 c 0,0 0.52778,18.58058 -3.14453,39.62305 -3.67231,21.04246 -12.09593,43.27678 -25.73242,51.59765 l -0.77344,0.47071 -0.66015,0.61914 c 0,0 -5.11916,4.75344 -11.73828,8.68554 -6.61913,3.93211 -13.69973,5.65146 -16.63477,4.37305 l -1.95508,-0.85156 -2.1289,0.13867 c 0,0 -10.91677,0.68373 -22.93946,-0.99414 -12.02268,-1.67788 -23.53402,-6.36472 -26.61719,-12.05664 l -7.76953,-14.34375 -7.70507,14.37695 c 0,0 -4.27878,6.658 -11.51954,10.41602 l 8.99414,15.0664 c 4.35423,-2.25988 7.59395,-5.00746 10.33204,-7.68945 8.97474,7.48733 21.33281,10.17014 31.85546,11.63867 12.51145,1.74609 22.34813,1.29349 24.71485,1.16602 11.41099,3.75164 22.34614,-1.37443 30.34961,-6.12891 8.30963,-4.93636 14.23949,-10.47995 14.56054,-10.78125 20.78242,-13.54932 28.74154,-40.0935 32.6836,-62.68164 4.02282,-23.0509 3.39844,-43.16797 3.39844,-43.16797 z"
       id="path26283"
       inkscape:connector-curvature="0"
       sodipodi:nodetypes="ccscccscccsccccccscscsc" />
    <path
       style="color:#000000;font-style:normal;font-variant:normal;font-weight:normal;font-stretch:normal;font-size:medium;line-height:normal;font-family:sans-serif;font-variant-ligatures:normal;font-variant-position:normal;font-variant-caps:normal;font-variant-numeric:normal;font-variant-alternates:normal;font-feature-settings:normal;text-indent:0;text-align:start;text-decoration:none;text-decoration-line:none;text-decoration-style:solid;text-decoration-color:#000000;letter-spacing:normal;word-spacing:normal;text-transform:none;writing-mode:lr-tb;direction:ltr;text-orientation:mixed;dominant-baseline:auto;baseline-shift:baseline;text-anchor:start;white-space:normal;shape-padding:0;clip-rule:nonzero;display:inline;overflow:visible;visibility:visible;opacity:1;isolation:auto;mix-blend-mode:normal;color-interpolation:sRGB;color-interpolation-filters:linearRGB;solid-color:#000000;solid-opacity:1;vector-effect:none;fill:#000000;fill-opacity:1;fill-rule:nonzero;stroke:none;stroke-width:17.57800293;stroke-linecap:butt;stroke-linejoin:miter;stroke-miterlimit:4;stroke-dasharray:none;stroke-dashoffset:0;stroke-opacity:1;color-rendering:auto;image-rendering:auto;shape-rendering:auto;text-rendering:auto;enable-background:accumulate"
       d="m 778.64648,670.98405 c 0,0 -4.64615,3.15345 -10.52929,6.14258 -5.88315,2.98912 -13.42957,5.00706 -14.86133,4.83984 l 0.17773,0.0234 c 0,0 -19.72397,-2.95433 -36.73047,-0.47461 l 2.53516,17.39453 c 12.83616,-1.87164 31.80274,0.49414 31.80274,0.49414 l 0.0879,0.0117 0.0879,0.01 c 9.72281,1.13554 17.85552,-3.06742 24.86132,-6.62695 7.00581,-3.55953 12.45899,-7.28125 12.45899,-7.28125 z"
       id="path26285"
       inkscape:connector-curvature="0" />
    <path
       style="color:#000000;font-style:normal;font-variant:normal;font-weight:normal;font-stretch:normal;font-size:medium;line-height:normal;font-family:sans-serif;font-variant-ligatures:normal;font-variant-position:normal;font-variant-caps:normal;font-variant-numeric:normal;font-variant-alternates:normal;font-feature-settings:normal;text-indent:0;text-align:start;text-decoration:none;text-decoration-line:none;text-decoration-style:solid;text-decoration-color:#000000;letter-spacing:normal;word-spacing:normal;text-transform:none;writing-mode:lr-tb;direction:ltr;text-orientation:mixed;dominant-baseline:auto;baseline-shift:baseline;text-anchor:start;white-space:normal;shape-padding:0;clip-rule:nonzero;display:inline;overflow:visible;visibility:visible;opacity:1;isolation:auto;mix-blend-mode:normal;color-interpolation:sRGB;color-interpolation-filters:linearRGB;solid-color:#000000;solid-opacity:1;vector-effect:none;fill:#000000;fill-opacity:1;fill-rule:nonzero;stroke:none;stroke-width:17.57800293;stroke-linecap:butt;stroke-linejoin:miter;stroke-miterlimit:4;stroke-dasharray:none;stroke-dashoffset:0;stroke-opacity:1;color-rendering:auto;image-rendering:auto;shape-rendering:auto;text-rendering:auto;enable-background:accumulate"
       d="m 579.63281,514.236 c -19.05811,74.70835 -19.49643,117.79101 -14.53711,143.22266 2.47967,12.71582 6.36966,21.03184 10.05274,26.34765 1.84153,2.65791 3.62641,4.55639 5.09765,5.85742 1.47125,1.30103 3.19336,2.30664 3.19336,2.30664 l 8.30274,-15.49218 c 0,0 0.56249,0.38372 0.14843,0.0176 -0.41405,-0.36615 -1.23942,-1.18058 -2.29296,-2.70118 -2.10709,-3.04118 -5.15148,-8.94788 -7.24805,-19.69922 -4.19315,-21.50266 -4.35323,-62.32819 14.31641,-135.51367 z"
       id="path26287"
       inkscape:connector-curvature="0" />
    <path
       style="color:#000000;font-style:normal;font-variant:normal;font-weight:normal;font-stretch:normal;font-size:medium;line-height:normal;font-family:sans-serif;font-variant-ligatures:normal;font-variant-position:normal;font-variant-caps:normal;font-variant-numeric:normal;font-variant-alternates:normal;font-feature-settings:normal;text-indent:0;text-align:start;text-decoration:none;text-decoration-line:none;text-decoration-style:solid;text-decoration-color:#000000;letter-spacing:normal;word-spacing:normal;text-transform:none;writing-mode:lr-tb;direction:ltr;text-orientation:mixed;dominant-baseline:auto;baseline-shift:baseline;text-anchor:start;white-space:normal;shape-padding:0;clip-rule:nonzero;display:inline;overflow:visible;visibility:visible;opacity:1;isolation:auto;mix-blend-mode:normal;color-interpolation:sRGB;color-interpolation-filters:linearRGB;solid-color:#000000;solid-opacity:1;vector-effect:none;fill:#000000;fill-opacity:1;fill-rule:nonzero;stroke:none;stroke-width:17.57800293;stroke-linecap:butt;stroke-linejoin:miter;stroke-miterlimit:4;stroke-dasharray:none;stroke-dashoffset:0;stroke-opacity:1;color-rendering:auto;image-rendering:auto;shape-rendering:auto;text-rendering:auto;enable-background:accumulate"
       d="m 680.39648,502.79264 c -14.51385,115.02819 -3.41796,179.66602 -3.41796,179.66602 l 17.32031,-3.00196 c 0,0 -10.73797,-61.32709 3.53711,-174.46289 z"
       id="path26289"
       inkscape:connector-curvature="0" />
    <path
       style="color:#000000;font-style:normal;font-variant:normal;font-weight:normal;font-stretch:normal;font-size:medium;line-height:normal;font-family:sans-serif;font-variant-ligatures:normal;font-variant-position:normal;font-variant-caps:normal;font-variant-numeric:normal;font-variant-alternates:normal;font-feature-settings:normal;text-indent:0;text-align:start;text-decoration:none;text-decoration-line:none;text-decoration-style:solid;text-decoration-color:#000000;letter-spacing:normal;word-spacing:normal;text-transform:none;writing-mode:lr-tb;direction:ltr;text-orientation:mixed;dominant-baseline:auto;baseline-shift:baseline;text-anchor:start;white-space:normal;shape-padding:0;clip-rule:nonzero;display:inline;overflow:visible;visibility:visible;opacity:1;isolation:auto;mix-blend-mode:normal;color-interpolation:sRGB;color-interpolation-filters:linearRGB;solid-color:#000000;solid-opacity:1;vector-effect:none;fill:#000000;fill-opacity:1;fill-rule:nonzero;stroke:none;stroke-width:17.57800293;stroke-linecap:butt;stroke-linejoin:miter;stroke-miterlimit:4;stroke-dasharray:none;stroke-dashoffset:0;stroke-opacity:1;color-rendering:auto;image-rendering:auto;shape-rendering:auto;text-rendering:auto;enable-background:accumulate"
       d="m 813.76758,505.93913 -17.36328,2.73046 c 9.08892,57.82525 -7.15235,154.55274 -7.15235,154.55274 l 17.32032,2.99804 c 0,0 17.21652,-96.52461 7.19531,-160.28124 z"
       id="path26291"
       inkscape:connector-curvature="0" />
    <path
       style="color:#000000;font-style:normal;font-variant:normal;font-weight:normal;font-stretch:normal;font-size:medium;line-height:normal;font-family:sans-serif;font-variant-ligatures:normal;font-variant-position:normal;font-variant-caps:normal;font-variant-numeric:normal;font-variant-alternates:normal;font-feature-settings:normal;text-indent:0;text-align:start;text-decoration:none;text-decoration-line:none;text-decoration-style:solid;text-decoration-color:#000000;letter-spacing:normal;word-spacing:normal;text-transform:none;writing-mode:lr-tb;direction:ltr;text-orientation:mixed;dominant-baseline:auto;baseline-shift:baseline;text-anchor:start;white-space:normal;shape-padding:0;clip-rule:nonzero;display:inline;overflow:visible;visibility:visible;opacity:1;isolation:auto;mix-blend-mode:normal;color-interpolation:sRGB;color-interpolation-filters:linearRGB;solid-color:#000000;solid-opacity:1;vector-effect:none;fill:#000000;fill-opacity:1;fill-rule:nonzero;stroke:none;stroke-width:17.57800293;stroke-linecap:butt;stroke-linejoin:miter;stroke-miterlimit:4;stroke-dasharray:none;stroke-dashoffset:0;stroke-opacity:1;color-rendering:auto;image-rendering:auto;shape-rendering:auto;text-rendering:auto;enable-background:accumulate"
       d="m 770.75195,677.58756 -2.30468,17.42578 c 6.87026,0.90831 10.71629,2.53609 12.46484,3.70118 1.74855,1.16508 1.63898,1.52104 1.7207,1.87695 0.1453,0.63279 -0.33035,1.97634 -0.44531,2.3164 -11.42119,11.71318 -15.88955,23.61518 -16.90234,32.73243 -1.05055,9.45713 1.65429,16.66215 1.65429,16.66215 l 16.33789,-6.48247 c 0,0 -1.1554,-2.53167 -0.52148,-8.23828 0.63392,-5.7066 3.17174,-13.84173 12.96094,-23.42187 l 0.74023,-0.72461 0.55078,-0.875 c 0,0 4.83658,-6.849 2.75781,-15.90235 -1.03938,-4.52667 -4.20598,-9.30765 -9.10546,-12.57226 -4.89949,-3.26461 -11.29259,-5.35898 -19.90821,-6.49805 z"
       id="path26293"
       inkscape:connector-curvature="0" />
    <path
       style="color:#000000;font-style:normal;font-variant:normal;font-weight:normal;font-stretch:normal;font-size:medium;line-height:normal;font-family:sans-serif;font-variant-ligatures:normal;font-variant-position:normal;font-variant-caps:normal;font-variant-numeric:normal;font-variant-alternates:normal;font-feature-settings:normal;text-indent:0;text-align:start;text-decoration:none;text-decoration-line:none;text-decoration-style:solid;text-decoration-color:#000000;letter-spacing:normal;word-spacing:normal;text-transform:none;writing-mode:lr-tb;direction:ltr;text-orientation:mixed;dominant-baseline:auto;baseline-shift:baseline;text-anchor:start;white-space:normal;shape-padding:0;clip-rule:nonzero;display:inline;overflow:visible;visibility:visible;opacity:1;isolation:auto;mix-blend-mode:normal;color-interpolation:sRGB;color-interpolation-filters:linearRGB;solid-color:#000000;solid-opacity:1;vector-effect:none;fill:#000000;fill-opacity:1;fill-rule:nonzero;stroke:none;stroke-width:17.57800293;stroke-linecap:butt;stroke-linejoin:miter;stroke-miterlimit:4;stroke-dasharray:none;stroke-dashoffset:0;stroke-opacity:1;color-rendering:auto;image-rendering:auto;shape-rendering:auto;text-rendering:auto;enable-background:accumulate"
       d="m 742.73242,683.36881 c -0.10939,0.0823 -0.50269,0.36542 -1.00586,0.73047 -1.00634,0.7301 -2.5164,1.84145 -4.27148,3.27149 -3.51017,2.86007 -8.05584,7.01809 -12.17969,12.57226 -8.24769,11.10834 -14.38891,29.13547 -5.2207,49.15625 l 15.98242,-7.32031 c -6.49545,-14.18424 -2.48681,-23.49405 3.35156,-31.35742 2.91919,-3.93169 6.40197,-7.16852 9.16992,-9.42383 1.38398,-1.12766 2.57403,-2.00522 3.49024,-2.66992 0.4581,-0.33236 0.83041,-0.5965 1.25,-0.91211 0.20979,-0.15781 0.41338,-0.3047 0.8125,-0.6543 0.19956,-0.1748 0.44327,-0.37617 0.89648,-0.89258 0.45321,-0.51641 1.6548,-0.72455 2.14844,-4.78515 l -17.44922,-2.1211 c 0.49083,-4.03747 1.67186,-4.21344 2.08789,-4.6875 0.41604,-0.47405 0.60501,-0.62302 0.73438,-0.73633 0.25872,-0.22661 0.25782,-0.21106 0.20312,-0.16992 z"
       id="path26295"
       inkscape:connector-curvature="0" />
    <path
       style="color:#000000;font-style:normal;font-variant:normal;font-weight:normal;font-stretch:normal;font-size:medium;line-height:normal;font-family:sans-serif;font-variant-ligatures:normal;font-variant-position:normal;font-variant-caps:normal;font-variant-numeric:normal;font-variant-alternates:normal;font-feature-settings:normal;text-indent:0;text-align:start;text-decoration:none;text-decoration-line:none;text-decoration-style:solid;text-decoration-color:#000000;letter-spacing:normal;word-spacing:normal;text-transform:none;writing-mode:lr-tb;direction:ltr;text-orientation:mixed;dominant-baseline:auto;baseline-shift:baseline;text-anchor:start;white-space:normal;shape-padding:0;clip-rule:nonzero;display:inline;overflow:visible;visibility:visible;opacity:1;isolation:auto;mix-blend-mode:normal;color-interpolation:sRGB;color-interpolation-filters:linearRGB;solid-color:#000000;solid-opacity:1;vector-effect:none;fill:#000000;fill-opacity:1;fill-rule:nonzero;stroke:none;stroke-width:22.14479446;stroke-linecap:butt;stroke-linejoin:miter;stroke-miterlimit:4;stroke-dasharray:none;stroke-dashoffset:0;stroke-opacity:1;color-rendering:auto;image-rendering:auto;shape-rendering:auto;text-rendering:auto;enable-background:accumulate"
       d="m 927.34961,-217.17416 c -85.3375,-0.0249 -143.96207,34.23906 -177.68164,85.4961 -33.72246,51.261417 -43.13205,118.196327 -35.76172,184.453117 7.37033,66.256803 31.55393,132.128203 67.25586,182.152353 35.70193,50.02414 83.76912,84.87059 138.44141,84.54492 54.64651,-0.32555 102.32148,-35.53945 137.81248,-85.73242 35.491,-50.19298 59.6268,-116.03669 67.6426,-182.128913 8.0158,-66.09222 -0.013,-132.67599 -31.1543,-183.734367 -31.1383,-51.05333 -86.3149,-85.33933 -166.55469,-85.05079 z m 0.0137,22.14453 h 0.0215 0.0234 c 74.10769,-0.27281 120.07329,29.31913 147.59179,74.4375 27.5185,45.118367 35.6595,107.010457 28.0762,169.537107 -7.5834,62.526663 -30.8164,125.444613 -63.7422,172.009773 -32.9258,46.56516 -74.71671,76.10409 -119.86329,76.37305 -45.12082,0.26877 -87.202,-28.91355 -120.2832,-75.26563 -33.0812,-46.35208 -56.31548,-109.20419 -63.27148,-171.736333 -6.95601,-62.53213 2.39906,-124.45171 32.2539,-169.833977 29.85485,-45.38227 79.61496,-75.5502 159.19336,-75.52149 z"
       id="path10-9-5-2"
       inkscape:connector-curvature="0" />
    <path
       style="color:#000000;font-style:normal;font-variant:normal;font-weight:normal;font-stretch:normal;font-size:medium;line-height:normal;font-family:sans-serif;font-variant-ligatures:normal;font-variant-position:normal;font-variant-caps:normal;font-variant-numeric:normal;font-variant-alternates:normal;font-feature-settings:normal;text-indent:0;text-align:start;text-decoration:none;text-decoration-line:none;text-decoration-style:solid;text-decoration-color:#000000;letter-spacing:normal;word-spacing:normal;text-transform:none;writing-mode:lr-tb;direction:ltr;text-orientation:mixed;dominant-baseline:auto;baseline-shift:baseline;text-anchor:start;white-space:normal;shape-padding:0;clip-rule:nonzero;display:inline;overflow:visible;visibility:visible;opacity:1;isolation:auto;mix-blend-mode:normal;color-interpolation:sRGB;color-interpolation-filters:linearRGB;solid-color:#000000;solid-opacity:1;vector-effect:none;fill:#000000;fill-opacity:1;fill-rule:nonzero;stroke:none;stroke-width:11.07239723;stroke-linecap:butt;stroke-linejoin:miter;stroke-miterlimit:4;stroke-dasharray:none;stroke-dashoffset:0;stroke-opacity:1;color-rendering:auto;image-rendering:auto;shape-rendering:auto;text-rendering:auto;enable-background:accumulate"
       d="m 915.50391,49.528967 c 0,0 -1.24868,12.32401 -3.31446,25.26953 -1.03288,6.47276 -2.27822,13.10195 -3.61523,18.25195 -0.66851,2.57501 -1.36897,4.78575 -1.9961,6.31055 -0.62712,1.524803 -1.43717,2.322653 -0.85546,1.837893 -1.22524,1.02103 -2.52244,1.87294 -3.20118,4.58789 -0.33936,1.35747 -0.14388,3.37888 0.72266,4.79102 0.86654,1.41213 1.99182,2.103 2.84375,2.5039 3.40774,1.60363 5.1576,0.98792 7.47461,0.82813 4.63403,-0.31959 9.65234,-1.35156 9.65234,-1.35156 l -2.16992,-10.85743 c 0,0 -2.36781,0.30187 -3.80078,0.53711 0.73453,-1.96912 1.43049,-4.024493 2.04883,-6.406253 1.49414,-5.75524 2.7658,-12.61765 3.83008,-19.28711 2.12855,-13.33891 3.39648,-25.90234 3.39648,-25.90234 z"
       id="path971-8-9"
       inkscape:connector-curvature="0" />
    <path
       inkscape:connector-curvature="0"
       id="path1039-4-5-6-98-9"
       d="m 783.50927,-59.000273 -0.0929,13.73944 c 0,0 29.91222,0.19826 60.08376,0.39727 30.17161,0.19907 59.77326,0.39904 61.68969,0.39904 v -13.73944 c -0.16497,0 -31.42713,-0.20005 -61.59831,-0.39905 -30.17117,-0.199 -60.0822,-0.39726 -60.0822,-0.39726 z"
       style="color:#000000;font-style:normal;font-variant:normal;font-weight:normal;font-stretch:normal;font-size:medium;line-height:normal;font-family:sans-serif;font-variant-ligatures:normal;font-variant-position:normal;font-variant-caps:normal;font-variant-numeric:normal;font-variant-alternates:normal;font-feature-settings:normal;text-indent:0;text-align:start;text-decoration:none;text-decoration-line:none;text-decoration-style:solid;text-decoration-color:#000000;letter-spacing:normal;word-spacing:normal;text-transform:none;writing-mode:lr-tb;direction:ltr;text-orientation:mixed;dominant-baseline:auto;baseline-shift:baseline;text-anchor:start;white-space:normal;shape-padding:0;clip-rule:nonzero;display:inline;overflow:visible;visibility:visible;opacity:1;isolation:auto;mix-blend-mode:normal;color-interpolation:sRGB;color-interpolation-filters:linearRGB;solid-color:#000000;solid-opacity:1;vector-effect:none;fill:#000000;fill-opacity:1;fill-rule:nonzero;stroke:none;stroke-width:13.73923969;stroke-linecap:butt;stroke-linejoin:miter;stroke-miterlimit:4;stroke-dasharray:none;stroke-dashoffset:0;stroke-opacity:1;color-rendering:auto;image-rendering:auto;shape-rendering:auto;text-rendering:auto;enable-background:accumulate" />
    <path
       inkscape:connector-curvature="0"
       id="path1479-6-5"
       d="m 816.19018,-6.5952233 -10.56273,2.12506 c 0,24.8883003 17.10508,38.9973603 34.16525,38.7839103 17.06016,-0.21339 33.69987,-14.74432 32.76044,-38.9952003 l -10.8555,-0.98398 c -3.8952,17.4741903 -36.58648,20.3293803 -45.50746,-0.92979 z m 6.18422,21.7106103 c 10.3544,5.30839 22.92509,5.62775 33.00896,1.32714 -4.17797,4.648 -9.94113,6.80834 -15.72763,6.88069 -6.38804,0.0799 -12.81966,-2.46216 -17.28133,-8.20783 z"
       style="color:#000000;font-style:normal;font-variant:normal;font-weight:normal;font-stretch:normal;font-size:medium;line-height:normal;font-family:sans-serif;font-variant-ligatures:normal;font-variant-position:normal;font-variant-caps:normal;font-variant-numeric:normal;font-variant-alternates:normal;font-feature-settings:normal;text-indent:0;text-align:start;text-decoration:none;text-decoration-line:none;text-decoration-style:solid;text-decoration-color:#000000;letter-spacing:normal;word-spacing:normal;text-transform:none;writing-mode:lr-tb;direction:ltr;text-orientation:mixed;dominant-baseline:auto;baseline-shift:baseline;text-anchor:start;white-space:normal;shape-padding:0;clip-rule:nonzero;display:inline;overflow:visible;visibility:visible;opacity:1;isolation:auto;mix-blend-mode:normal;color-interpolation:sRGB;color-interpolation-filters:linearRGB;solid-color:#000000;solid-opacity:1;vector-effect:none;fill:#000000;fill-opacity:1;fill-rule:nonzero;stroke:none;stroke-width:10.99139309;stroke-linecap:butt;stroke-linejoin:miter;stroke-miterlimit:4;stroke-dasharray:none;stroke-dashoffset:0;stroke-opacity:1;color-rendering:auto;image-rendering:auto;shape-rendering:auto;text-rendering:auto;enable-background:accumulate" />
    <path
       inkscape:connector-curvature="0"
       id="path1479-5-1-6"
       d="m 960.52659,-13.171593 v 9.5129497 c 0,24.8882103 17.10462,38.9973503 34.16482,38.7838903 17.06079,-0.21337 33.69999,-14.74431 32.76099,-38.9952003 l -0.3298,-8.5121497 -7.6199,3.8088597 c -7.5932,3.79573 -14.7692,6.93361 -22.62486,7.62964003 -7.85641,0.69618 -16.64289,-0.85975003 -28.10946,-7.47414003 z m 55.26351,18.3851397 c -2.448,13.1026403 -11.7911,18.8029503 -21.23729,18.9211703 -9.34021,0.11681 -18.8264,-5.24442 -21.90965,-18.3987803 9.20831,3.7958 17.57896,4.9443203 25.20347,4.2687403 6.57777,-0.5827803 12.44857,-2.4857903 17.94347,-4.7911303 z"
       style="color:#000000;font-style:normal;font-variant:normal;font-weight:normal;font-stretch:normal;font-size:medium;line-height:normal;font-family:sans-serif;font-variant-ligatures:normal;font-variant-position:normal;font-variant-caps:normal;font-variant-numeric:normal;font-variant-alternates:normal;font-feature-settings:normal;text-indent:0;text-align:start;text-decoration:none;text-decoration-line:none;text-decoration-style:solid;text-decoration-color:#000000;letter-spacing:normal;word-spacing:normal;text-transform:none;writing-mode:lr-tb;direction:ltr;text-orientation:mixed;dominant-baseline:auto;baseline-shift:baseline;text-anchor:start;white-space:normal;shape-padding:0;clip-rule:nonzero;display:inline;overflow:visible;visibility:visible;opacity:1;isolation:auto;mix-blend-mode:normal;color-interpolation:sRGB;color-interpolation-filters:linearRGB;solid-color:#000000;solid-opacity:1;vector-effect:none;fill:#000000;fill-opacity:1;fill-rule:nonzero;stroke:none;stroke-width:10.99139309;stroke-linecap:butt;stroke-linejoin:miter;stroke-miterlimit:4;stroke-dasharray:none;stroke-dashoffset:0;stroke-opacity:1;color-rendering:auto;image-rendering:auto;shape-rendering:auto;text-rendering:auto;enable-background:accumulate" />
    <path
       inkscape:connector-curvature="0"
       id="path29-3-1-9-7-2"
       d="m 920.67556,180.10218 c -25.84246,-0.57439 -52.05654,4.69256 -77.84645,17.26436 l -11.33576,5.52673 11.7414,4.60347 c 48.07151,18.84748 101.37384,19.64245 152.73518,0.63717 l 12.77097,-4.72516 -12.44629,-5.5265 C 971.9895,187.09094 946.51854,180.67659 920.67556,180.10218 Z m -0.14153,10.97371 c 19.28064,0.43989 38.37464,4.52512 57.08611,11.332 -39.57166,11.59391 -79.60996,11.05574 -117.00282,-0.67098 19.98087,-7.75349 40.03739,-11.11461 59.91671,-10.66102 z"
       style="color:#000000;font-style:normal;font-variant:normal;font-weight:normal;font-stretch:normal;font-size:medium;line-height:normal;font-family:sans-serif;font-variant-ligatures:normal;font-variant-position:normal;font-variant-caps:normal;font-variant-numeric:normal;font-variant-alternates:normal;font-feature-settings:normal;text-indent:0;text-align:start;text-decoration:none;text-decoration-line:none;text-decoration-style:solid;text-decoration-color:#000000;letter-spacing:normal;word-spacing:normal;text-transform:none;writing-mode:lr-tb;direction:ltr;text-orientation:mixed;dominant-baseline:auto;baseline-shift:baseline;text-anchor:start;white-space:normal;shape-padding:0;clip-rule:nonzero;display:inline;overflow:visible;visibility:visible;opacity:1;isolation:auto;mix-blend-mode:normal;color-interpolation:sRGB;color-interpolation-filters:linearRGB;solid-color:#000000;solid-opacity:1;vector-effect:none;fill:#000000;fill-opacity:1;fill-rule:nonzero;stroke:none;stroke-width:11.07177353;stroke-linecap:butt;stroke-linejoin:miter;stroke-miterlimit:4;stroke-dasharray:none;stroke-dashoffset:0;stroke-opacity:1;color-rendering:auto;image-rendering:auto;shape-rendering:auto;text-rendering:auto;enable-background:accumulate" />
    <path
       inkscape:connector-curvature="0"
       id="path59-1-3-2-4-7"
       d="m 997.41229,-86.146163 c -21.23892,-0.38807 -41.73664,11.68346 -66.6872,36.35288 l 7.78292,7.87312 c 24.08121,-23.80997 41.80103,-33.46478 58.70115,-33.15593 16.90004,0.30884 34.93114,10.85838 58.98264,31.20828 l 7.1516,-8.45129 c -24.6646,-20.86784 -44.6932,-33.4389 -65.93111,-33.82706 z"
       style="color:#000000;font-style:normal;font-variant:normal;font-weight:normal;font-stretch:normal;font-size:medium;line-height:normal;font-family:sans-serif;font-variant-ligatures:normal;font-variant-position:normal;font-variant-caps:normal;font-variant-numeric:normal;font-variant-alternates:normal;font-feature-settings:normal;text-indent:0;text-align:start;text-decoration:none;text-decoration-line:none;text-decoration-style:solid;text-decoration-color:#000000;letter-spacing:normal;word-spacing:normal;text-transform:none;writing-mode:lr-tb;direction:ltr;text-orientation:mixed;dominant-baseline:auto;baseline-shift:baseline;text-anchor:start;white-space:normal;shape-padding:0;clip-rule:nonzero;display:inline;overflow:visible;visibility:visible;opacity:1;isolation:auto;mix-blend-mode:normal;color-interpolation:sRGB;color-interpolation-filters:linearRGB;solid-color:#000000;solid-opacity:1;vector-effect:none;fill:#000000;fill-opacity:1;fill-rule:nonzero;stroke:none;stroke-width:11.07177353;stroke-linecap:butt;stroke-linejoin:miter;stroke-miterlimit:4;stroke-dasharray:none;stroke-dashoffset:0;stroke-opacity:1;color-rendering:auto;image-rendering:auto;shape-rendering:auto;text-rendering:auto;enable-background:accumulate" />
    <path
       inkscape:connector-curvature="0"
       id="path2346-92"
       d="m 986.45182,215.46946 c -1.6483,6.39522 -1.11168,7.44597 -5.05622,13.10227 l -0.12004,0.17238 -0.0986,0.18426 c 0,0 -1.98489,3.45109 -2.23312,7.62971 -0.12379,2.08935 0.23792,4.68676 2.10633,6.74195 1.8685,2.05525 4.83987,3.01209 8.38557,2.93835 l -0.14227,-6.86898 c -2.34285,0.0489 -2.95806,-0.46768 -3.15959,-0.68973 -0.20163,-0.22183 -0.39285,-0.70604 -0.33284,-1.71432 0.11939,-2.01397 1.44237,-4.8121 1.44527,-4.81817 0,0 0,0 0,0 4.16025,-6.08201 4.36844,-9.18639 5.856,-14.96 z"
       style="color:#000000;font-style:normal;font-variant:normal;font-weight:normal;font-stretch:normal;font-size:medium;line-height:normal;font-family:sans-serif;font-variant-ligatures:normal;font-variant-position:normal;font-variant-caps:normal;font-variant-numeric:normal;font-variant-alternates:normal;font-feature-settings:normal;text-indent:0;text-align:start;text-decoration:none;text-decoration-line:none;text-decoration-style:solid;text-decoration-color:#000000;letter-spacing:normal;word-spacing:normal;text-transform:none;writing-mode:lr-tb;direction:ltr;text-orientation:mixed;dominant-baseline:auto;baseline-shift:baseline;text-anchor:start;white-space:normal;shape-padding:0;clip-rule:nonzero;display:inline;overflow:visible;visibility:visible;opacity:1;isolation:auto;mix-blend-mode:normal;color-interpolation:sRGB;color-interpolation-filters:linearRGB;solid-color:#000000;solid-opacity:1;vector-effect:none;fill:#000000;fill-opacity:1;fill-rule:nonzero;stroke:none;stroke-width:6.86961985;stroke-linecap:butt;stroke-linejoin:miter;stroke-miterlimit:4;stroke-dasharray:none;stroke-dashoffset:0;stroke-opacity:1;color-rendering:auto;image-rendering:auto;shape-rendering:auto;text-rendering:auto;enable-background:accumulate" />
    <path
       sodipodi:nodetypes="cccsccccscccc"
       inkscape:connector-curvature="0"
       id="path2346-9-7"
       d="m 992.8103,215.65728 -6.73716,1.33876 c 1.15472,5.80948 2.38279,9.62471 5.8544,15.07169 0.03,0.0776 1.05691,2.51722 1.05691,4.41764 0,0.96538 -0.20228,1.53303 -0.5277,1.89339 -0.32533,0.3605 -1.02719,0.89614 -3.24035,0.99234 l 0.21937,6.86728 c 3.42939,-0.14905 6.33253,-1.27221 8.1232,-3.25772 1.79065,-1.98566 2.29401,-4.45515 2.29401,-6.49529 0,-4.08041 -1.74774,-7.43367 -1.74774,-7.43367 l -0.0946,-0.19766 -0.11853,-0.1827 c -3.31526,-5.12502 -3.95048,-7.32399 -5.08149,-13.01406 z"
       style="color:#000000;font-style:normal;font-variant:normal;font-weight:normal;font-stretch:normal;font-size:medium;line-height:normal;font-family:sans-serif;font-variant-ligatures:normal;font-variant-position:normal;font-variant-caps:normal;font-variant-numeric:normal;font-variant-alternates:normal;font-feature-settings:normal;text-indent:0;text-align:start;text-decoration:none;text-decoration-line:none;text-decoration-style:solid;text-decoration-color:#000000;letter-spacing:normal;word-spacing:normal;text-transform:none;writing-mode:lr-tb;direction:ltr;text-orientation:mixed;dominant-baseline:auto;baseline-shift:baseline;text-anchor:start;white-space:normal;shape-padding:0;clip-rule:nonzero;display:inline;overflow:visible;visibility:visible;opacity:1;isolation:auto;mix-blend-mode:normal;color-interpolation:sRGB;color-interpolation-filters:linearRGB;solid-color:#000000;solid-opacity:1;vector-effect:none;fill:#000000;fill-opacity:1;fill-rule:nonzero;stroke:none;stroke-width:6.86961985;stroke-linecap:butt;stroke-linejoin:miter;stroke-miterlimit:4;stroke-dasharray:none;stroke-dashoffset:0;stroke-opacity:1;color-rendering:auto;image-rendering:auto;shape-rendering:auto;text-rendering:auto;enable-background:accumulate" />
    <path
       inkscape:connector-curvature="0"
       id="path1039-4-5-6-98-9-8"
       d="m 304.94677,-59.000273 -0.0929,13.73944 c 0,0 29.91222,0.19826 60.08376,0.39727 30.17161,0.19907 59.77326,0.39904 61.68969,0.39904 v -13.73944 c -0.16497,0 -31.42713,-0.20005 -61.59831,-0.39905 -30.17117,-0.199 -60.0822,-0.39726 -60.0822,-0.39726 z"
       style="color:#000000;font-style:normal;font-variant:normal;font-weight:normal;font-stretch:normal;font-size:medium;line-height:normal;font-family:sans-serif;font-variant-ligatures:normal;font-variant-position:normal;font-variant-caps:normal;font-variant-numeric:normal;font-variant-alternates:normal;font-feature-settings:normal;text-indent:0;text-align:start;text-decoration:none;text-decoration-line:none;text-decoration-style:solid;text-decoration-color:#000000;letter-spacing:normal;word-spacing:normal;text-transform:none;writing-mode:lr-tb;direction:ltr;text-orientation:mixed;dominant-baseline:auto;baseline-shift:baseline;text-anchor:start;white-space:normal;shape-padding:0;clip-rule:nonzero;display:inline;overflow:visible;visibility:visible;opacity:1;isolation:auto;mix-blend-mode:normal;color-interpolation:sRGB;color-interpolation-filters:linearRGB;solid-color:#000000;solid-opacity:1;vector-effect:none;fill:#000000;fill-opacity:1;fill-rule:nonzero;stroke:none;stroke-width:13.73923969;stroke-linecap:butt;stroke-linejoin:miter;stroke-miterlimit:4;stroke-dasharray:none;stroke-dashoffset:0;stroke-opacity:1;color-rendering:auto;image-rendering:auto;shape-rendering:auto;text-rendering:auto;enable-background:accumulate" />
    <path
       inkscape:connector-curvature="0"
       id="path1479-6-5-4"
       d="m 337.62768,-6.5952233 -10.56273,2.12506 c 0,24.8883003 17.10508,38.9973603 34.16525,38.7839103 17.06016,-0.21339 33.69987,-14.74432 32.76044,-38.9952003 l -10.8555,-0.98398 c -3.8952,17.4741903 -36.58648,20.3293803 -45.50746,-0.92979 z m 6.18422,21.7106103 c 10.3544,5.30839 22.92509,5.62775 33.00896,1.32714 -4.17797,4.648 -9.94113,6.80834 -15.72763,6.88069 -6.38804,0.0799 -12.81966,-2.46216 -17.28133,-8.20783 z"
       style="color:#000000;font-style:normal;font-variant:normal;font-weight:normal;font-stretch:normal;font-size:medium;line-height:normal;font-family:sans-serif;font-variant-ligatures:normal;font-variant-position:normal;font-variant-caps:normal;font-variant-numeric:normal;font-variant-alternates:normal;font-feature-settings:normal;text-indent:0;text-align:start;text-decoration:none;text-decoration-line:none;text-decoration-style:solid;text-decoration-color:#000000;letter-spacing:normal;word-spacing:normal;text-transform:none;writing-mode:lr-tb;direction:ltr;text-orientation:mixed;dominant-baseline:auto;baseline-shift:baseline;text-anchor:start;white-space:normal;shape-padding:0;clip-rule:nonzero;display:inline;overflow:visible;visibility:visible;opacity:1;isolation:auto;mix-blend-mode:normal;color-interpolation:sRGB;color-interpolation-filters:linearRGB;solid-color:#000000;solid-opacity:1;vector-effect:none;fill:#000000;fill-opacity:1;fill-rule:nonzero;stroke:none;stroke-width:10.99139309;stroke-linecap:butt;stroke-linejoin:miter;stroke-miterlimit:4;stroke-dasharray:none;stroke-dashoffset:0;stroke-opacity:1;color-rendering:auto;image-rendering:auto;shape-rendering:auto;text-rendering:auto;enable-background:accumulate" />
    <path
       inkscape:connector-curvature="0"
       id="path1479-5-1-6-2"
       d="m 481.96409,-13.171593 v 9.5129497 c 0,24.8882103 17.10462,38.9973503 34.16482,38.7838903 17.06079,-0.21337 33.69999,-14.74431 32.76099,-38.9952003 l -0.3298,-8.5121497 -7.6199,3.8088597 c -7.5932,3.79573 -14.7692,6.93361 -22.62486,7.62964003 -7.85641,0.69618 -16.64289,-0.85975003 -28.10946,-7.47414003 z M 537.2276,5.2135467 c -2.448,13.1026403 -11.7911,18.8029503 -21.23729,18.9211703 -9.34021,0.11681 -18.8264,-5.24442 -21.90965,-18.3987803 9.20831,3.7958 17.57896,4.9443203 25.20347,4.2687403 6.57777,-0.5827803 12.44857,-2.4857903 17.94347,-4.7911303 z"
       style="color:#000000;font-style:normal;font-variant:normal;font-weight:normal;font-stretch:normal;font-size:medium;line-height:normal;font-family:sans-serif;font-variant-ligatures:normal;font-variant-position:normal;font-variant-caps:normal;font-variant-numeric:normal;font-variant-alternates:normal;font-feature-settings:normal;text-indent:0;text-align:start;text-decoration:none;text-decoration-line:none;text-decoration-style:solid;text-decoration-color:#000000;letter-spacing:normal;word-spacing:normal;text-transform:none;writing-mode:lr-tb;direction:ltr;text-orientation:mixed;dominant-baseline:auto;baseline-shift:baseline;text-anchor:start;white-space:normal;shape-padding:0;clip-rule:nonzero;display:inline;overflow:visible;visibility:visible;opacity:1;isolation:auto;mix-blend-mode:normal;color-interpolation:sRGB;color-interpolation-filters:linearRGB;solid-color:#000000;solid-opacity:1;vector-effect:none;fill:#000000;fill-opacity:1;fill-rule:nonzero;stroke:none;stroke-width:10.99139309;stroke-linecap:butt;stroke-linejoin:miter;stroke-miterlimit:4;stroke-dasharray:none;stroke-dashoffset:0;stroke-opacity:1;color-rendering:auto;image-rendering:auto;shape-rendering:auto;text-rendering:auto;enable-background:accumulate" />
    <path
       inkscape:connector-curvature="0"
       id="path29-3-1-9-7-2-5"
       d="m 442.11306,180.10218 c -25.84246,-0.57439 -52.05654,4.69256 -77.84645,17.26436 l -11.33576,5.52673 11.7414,4.60347 c 48.07151,18.84748 101.37384,19.64245 152.73518,0.63717 l 12.77097,-4.72516 -12.44629,-5.5265 C 493.427,187.09094 467.95604,180.67659 442.11306,180.10218 Z m -0.14153,10.97371 c 19.28064,0.43989 38.37464,4.52512 57.08611,11.332 -39.57166,11.59391 -79.60996,11.05574 -117.00282,-0.67098 19.98087,-7.75349 40.03739,-11.11461 59.91671,-10.66102 z"
       style="color:#000000;font-style:normal;font-variant:normal;font-weight:normal;font-stretch:normal;font-size:medium;line-height:normal;font-family:sans-serif;font-variant-ligatures:normal;font-variant-position:normal;font-variant-caps:normal;font-variant-numeric:normal;font-variant-alternates:normal;font-feature-settings:normal;text-indent:0;text-align:start;text-decoration:none;text-decoration-line:none;text-decoration-style:solid;text-decoration-color:#000000;letter-spacing:normal;word-spacing:normal;text-transform:none;writing-mode:lr-tb;direction:ltr;text-orientation:mixed;dominant-baseline:auto;baseline-shift:baseline;text-anchor:start;white-space:normal;shape-padding:0;clip-rule:nonzero;display:inline;overflow:visible;visibility:visible;opacity:1;isolation:auto;mix-blend-mode:normal;color-interpolation:sRGB;color-interpolation-filters:linearRGB;solid-color:#000000;solid-opacity:1;vector-effect:none;fill:#000000;fill-opacity:1;fill-rule:nonzero;stroke:none;stroke-width:11.07177353;stroke-linecap:butt;stroke-linejoin:miter;stroke-miterlimit:4;stroke-dasharray:none;stroke-dashoffset:0;stroke-opacity:1;color-rendering:auto;image-rendering:auto;shape-rendering:auto;text-rendering:auto;enable-background:accumulate" />
    <path
       inkscape:connector-curvature="0"
       id="path59-1-3-2-4-7-9"
       d="m 518.84979,-86.146163 c -21.23892,-0.38807 -41.73664,11.68346 -66.6872,36.35288 l 7.78292,7.87312 c 24.08121,-23.80997 41.80103,-33.46478 58.70115,-33.15593 16.90004,0.30884 34.93114,10.85838 58.98264,31.20828 l 7.1516,-8.45129 c -24.6646,-20.86784 -44.6932,-33.4389 -65.93111,-33.82706 z"
       style="color:#000000;font-style:normal;font-variant:normal;font-weight:normal;font-stretch:normal;font-size:medium;line-height:normal;font-family:sans-serif;font-variant-ligatures:normal;font-variant-position:normal;font-variant-caps:normal;font-variant-numeric:normal;font-variant-alternates:normal;font-feature-settings:normal;text-indent:0;text-align:start;text-decoration:none;text-decoration-line:none;text-decoration-style:solid;text-decoration-color:#000000;letter-spacing:normal;word-spacing:normal;text-transform:none;writing-mode:lr-tb;direction:ltr;text-orientation:mixed;dominant-baseline:auto;baseline-shift:baseline;text-anchor:start;white-space:normal;shape-padding:0;clip-rule:nonzero;display:inline;overflow:visible;visibility:visible;opacity:1;isolation:auto;mix-blend-mode:normal;color-interpolation:sRGB;color-interpolation-filters:linearRGB;solid-color:#000000;solid-opacity:1;vector-effect:none;fill:#000000;fill-opacity:1;fill-rule:nonzero;stroke:none;stroke-width:11.07177353;stroke-linecap:butt;stroke-linejoin:miter;stroke-miterlimit:4;stroke-dasharray:none;stroke-dashoffset:0;stroke-opacity:1;color-rendering:auto;image-rendering:auto;shape-rendering:auto;text-rendering:auto;enable-background:accumulate" />
    <path
       inkscape:connector-curvature="0"
       id="path2346-92-0"
       d="m 507.88932,215.46946 c -1.6483,6.39522 -1.11168,7.44597 -5.05622,13.10227 l -0.12004,0.17238 -0.0986,0.18426 c 0,0 -1.98489,3.45109 -2.23312,7.62971 -0.12379,2.08935 0.23792,4.68676 2.10633,6.74195 1.8685,2.05525 4.83987,3.01209 8.38557,2.93835 l -0.14227,-6.86898 c -2.34285,0.0489 -2.95806,-0.46768 -3.15959,-0.68973 -0.20163,-0.22183 -0.39285,-0.70604 -0.33284,-1.71432 0.11939,-2.01397 1.44237,-4.8121 1.44527,-4.81817 0,0 0,0 0,0 4.16025,-6.08201 4.36844,-9.18639 5.856,-14.96 z"
       style="color:#000000;font-style:normal;font-variant:normal;font-weight:normal;font-stretch:normal;font-size:medium;line-height:normal;font-family:sans-serif;font-variant-ligatures:normal;font-variant-position:normal;font-variant-caps:normal;font-variant-numeric:normal;font-variant-alternates:normal;font-feature-settings:normal;text-indent:0;text-align:start;text-decoration:none;text-decoration-line:none;text-decoration-style:solid;text-decoration-color:#000000;letter-spacing:normal;word-spacing:normal;text-transform:none;writing-mode:lr-tb;direction:ltr;text-orientation:mixed;dominant-baseline:auto;baseline-shift:baseline;text-anchor:start;white-space:normal;shape-padding:0;clip-rule:nonzero;display:inline;overflow:visible;visibility:visible;opacity:1;isolation:auto;mix-blend-mode:normal;color-interpolation:sRGB;color-interpolation-filters:linearRGB;solid-color:#000000;solid-opacity:1;vector-effect:none;fill:#000000;fill-opacity:1;fill-rule:nonzero;stroke:none;stroke-width:6.86961985;stroke-linecap:butt;stroke-linejoin:miter;stroke-miterlimit:4;stroke-dasharray:none;stroke-dashoffset:0;stroke-opacity:1;color-rendering:auto;image-rendering:auto;shape-rendering:auto;text-rendering:auto;enable-background:accumulate" />
    <path
       sodipodi:nodetypes="cccsccccscccc"
       inkscape:connector-curvature="0"
       id="path2346-9-7-4"
       d="m 514.2478,215.65728 -6.73716,1.33876 c 1.15472,5.80948 2.38279,9.62471 5.8544,15.07169 0.03,0.0776 1.05691,2.51722 1.05691,4.41764 0,0.96538 -0.20228,1.53303 -0.5277,1.89339 -0.32533,0.3605 -1.02719,0.89614 -3.24035,0.99234 l 0.21937,6.86728 c 3.42939,-0.14905 6.33253,-1.27221 8.1232,-3.25772 1.79065,-1.98566 2.29401,-4.45515 2.29401,-6.49529 0,-4.08041 -1.74774,-7.43367 -1.74774,-7.43367 l -0.0946,-0.19766 -0.11853,-0.1827 c -3.31526,-5.12502 -3.95048,-7.32399 -5.08149,-13.01406 z"
       style="color:#000000;font-style:normal;font-variant:normal;font-weight:normal;font-stretch:normal;font-size:medium;line-height:normal;font-family:sans-serif;font-variant-ligatures:normal;font-variant-position:normal;font-variant-caps:normal;font-variant-numeric:normal;font-variant-alternates:normal;font-feature-settings:normal;text-indent:0;text-align:start;text-decoration:none;text-decoration-line:none;text-decoration-style:solid;text-decoration-color:#000000;letter-spacing:normal;word-spacing:normal;text-transform:none;writing-mode:lr-tb;direction:ltr;text-orientation:mixed;dominant-baseline:auto;baseline-shift:baseline;text-anchor:start;white-space:normal;shape-padding:0;clip-rule:nonzero;display:inline;overflow:visible;visibility:visible;opacity:1;isolation:auto;mix-blend-mode:normal;color-interpolation:sRGB;color-interpolation-filters:linearRGB;solid-color:#000000;solid-opacity:1;vector-effect:none;fill:#000000;fill-opacity:1;fill-rule:nonzero;stroke:none;stroke-width:6.86961985;stroke-linecap:butt;stroke-linejoin:miter;stroke-miterlimit:4;stroke-dasharray:none;stroke-dashoffset:0;stroke-opacity:1;color-rendering:auto;image-rendering:auto;shape-rendering:auto;text-rendering:auto;enable-background:accumulate" />
    <path
       style="font-style:normal;font-weight:normal;font-size:233.33332825px;line-height:1.25;font-family:sans-serif;letter-spacing:0px;word-spacing:0px;fill:#000000;fill-opacity:1;stroke:none"
       d="m 257,858.57865 v 169.64465 h 22.55859 v -63.23255 h 22.5586 c 12.15277,0 22.21614,-1.4438 30.1914,-4.3301 7.97526,-2.9622 14.88781,-7.3663 20.73633,-13.2148 4.7092,-4.7092 8.35504,-10.2546 10.9375,-16.6348 2.65842,-6.4561 3.98828,-13.4433 3.98828,-20.9629 0,-9.8741 -1.78559,-18.0399 -5.35547,-24.4961 -3.49392,-6.4561 -8.46962,-11.8483 -14.92578,-16.1777 -5.46875,-3.6458 -11.73502,-6.3055 -18.79883,-7.9766 -7.0638,-1.7469 -15.68337,-2.6191 -25.86132,-2.6191 z m 22.55859,19.3672 h 22.33008 c 7.13976,0 13.02691,0.5323 17.66016,1.5957 4.7092,0.9874 8.88737,2.6591 12.5332,5.0137 4.17752,2.7343 7.29102,6.2662 9.3418,10.5957 2.05078,4.3294 3.07617,9.4171 3.07617,15.2656 0,5.013 -0.7602,9.533 -2.2793,13.5586 -1.44314,4.0256 -3.94965,7.862 -7.51953,11.5078 -3.56988,3.5699 -8.20182,6.1903 -13.89844,7.8613 -5.69661,1.5951 -13.10221,2.3926 -22.21679,2.3926 h -19.02735 z m 163.94923,19.4824 c -18.53299,0 -33.49739,6.115 -44.89063,18.3438 -11.31728,12.2287 -16.97461,28.7489 -16.97461,49.5605 0,21.0395 5.92448,37.29455 17.77344,48.76375 11.84895,11.3933 28.32986,17.0899 49.44531,17.0899 8.27908,0 16.17969,-1.0254 23.69922,-3.0761 7.51953,-2.0508 14.88585,-4.5967 22.10156,-7.6349 v -23.35555 h -1.13867 c -3.72179,3.34205 -9.98807,6.76005 -18.79883,10.25395 -8.7348,3.4179 -17.43099,5.127 -26.08984,5.127 -6.53212,0 -12.5332,-0.9115 -18.00195,-2.7344 -5.3928,-1.8229 -10.06403,-4.5574 -14.01368,-8.2031 -4.10156,-3.72185 -7.32899,-8.46965 -9.68359,-14.24225 -2.3546,-5.8485 -3.53321,-12.6845 -3.53321,-20.5078 h 93.76758 v -11.6211 c 0,-18.457 -4.67122,-32.6986 -14.01367,-42.7246 -9.26649,-10.0261 -22.48264,-15.0391 -39.64843,-15.0391 z m 133.64257,0 c -6.98785,0 -14.01432,1.5204 -21.07812,4.5586 -7.06381,2.9623 -13.06489,7.1385 -18.00195,12.5313 -5.31685,5.7725 -9.53233,12.6477 -12.64649,20.623 -3.0382,7.8993 -4.55664,17.3164 -4.55664,28.2539 0,19.9761 4.44336,35.4709 13.33008,46.48445 8.96267,10.9375 21.03949,16.4063 36.23046,16.4063 9.11459,0 16.59679,-1.2532 22.44532,-3.7597 5.92448,-2.5826 12.11415,-6.4562 18.57031,-11.6211 v 11.6211 c 0,5.1649 -0.56966,9.8361 -1.70898,14.0136 -1.13933,4.1776 -3.03885,7.7486 -5.69727,10.7109 -2.65842,3.1141 -6.37891,5.544 -11.16406,7.291 -4.78516,1.747 -10.82357,2.6211 -18.11524,2.6211 -7.59548,0 -15.19162,-1.0254 -22.78711,-3.0762 -7.59548,-1.9747 -13.14084,-3.6465 -16.63476,-5.0136 h -1.13867 v 21.875 c 6.22829,1.7469 12.5319,3.0769 18.91211,3.9883 6.45616,0.9874 13.06423,1.4805 19.82421,1.4805 20.35591,0 35.43425,-5.0503 45.23243,-15.1524 9.79817,-10.1019 14.69726,-25.9385 14.69726,-47.5097 V 900.96145 h -20.05273 l -1.36719,5.4688 c -5.54471,-3.0382 -10.82292,-5.2795 -15.83594,-6.7227 -4.93706,-1.5191 -11.08941,-2.2793 -18.45703,-2.2793 z m 141.38868,0.4571 c -7.67145,0 -15.45617,0.6835 -23.35548,2.0507 -7.8993,1.3672 -13.93771,2.6205 -18.11523,3.7598 v 21.7598 h 1.13867 c 7.36762,-2.8104 14.50803,-4.9358 21.41992,-6.3789 6.9119,-1.5191 13.17817,-2.2793 18.79883,-2.2793 4.63325,0 9.07661,0.3044 13.33008,0.9121 4.25347,0.6076 7.8993,1.7843 10.9375,3.5312 3.1901,1.8229 5.62001,4.3294 7.29102,7.5196 1.74696,3.1901 2.62109,7.215 2.62109,12.0761 v 3.3047 c -12.4566,0.6076 -24.11502,1.5191 -34.97656,2.7344 -10.86155,1.2153 -20.16667,3.5312 -27.91407,6.9492 -7.67144,3.418 -13.59592,8.1285 -17.77343,14.1289 -4.10157,5.9245 -6.15235,13.7092 -6.15235,23.3555 0,11.77305 3.98763,21.45725 11.96289,29.05265 7.97526,7.5955 17.69683,11.3926 29.16602,11.3926 6.2283,0 11.65972,-0.6069 16.29297,-1.8223 4.63324,-1.1393 8.73481,-2.5831 12.30468,-4.33 3.03821,-1.3671 6.1517,-3.1902 9.3418,-5.4687 3.26606,-2.3546 5.84918,-4.1775 7.74805,-5.4688 v 13.5587 h 21.30469 v -86.36145 c 0,-8.2031 -1.25325,-15.0764 -3.75977,-20.6211 -2.5065,-5.5447 -6.15234,-10.0647 -10.9375,-13.5586 -4.86111,-3.5699 -10.63238,-6.0764 -17.31641,-7.5195 -6.60807,-1.5191 -14.39474,-2.2773 -23.35741,-2.2773 z m 96.84375,3.0761 v 127.26175 h 21.41793 v -90.34765 c 5.6967,-4.6333 11.6211,-8.393 17.7735,-11.2793 6.1523,-2.9623 12.5325,-4.4434 19.1406,-4.4434 4.1016,0 7.6335,0.1886 10.5957,0.5684 3.0382,0.3038 6.1536,0.8361 9.3438,1.5957 h 1.1386 v -21.9883 c -3.342,-0.5317 -5.8485,-0.8735 -7.5195,-1.0254 -1.671,-0.2278 -4.3681,-0.3418 -8.0899,-0.3418 -6.7599,0 -13.4053,1.4419 -19.9375,4.3281 -6.4561,2.8104 -13.9383,7.6348 -22.4453,14.4708 v -18.7989 z m -373.01563,14.127 c 11.39324,0 19.86351,3.0761 25.4082,9.2285 5.62067,6.1523 8.46897,14.8485 8.54493,26.0898 h -72.91797 c 0.91145,-10.026 4.74782,-18.4177 11.50781,-25.1777 6.83594,-6.76 15.98784,-10.1406 27.45703,-10.1406 z m 138.54297,1.5957 c 4.86111,0 9.72092,0.5696 14.58203,1.709 4.93706,1.0633 10.25455,2.8862 15.95117,5.4687 v 69.3848 c -5.24089,4.0256 -11.01411,7.25305 -17.31836,9.68365 -6.2283,2.3546 -12.4553,3.5312 -18.68359,3.5312 -11.62109,0 -19.93815,-3.6831 -24.95118,-11.05085 -5.01302,-7.3676 -7.51952,-18.1911 -7.51952,-32.4707 0,-15.039 3.37869,-26.5089 10.13868,-34.4082 6.75997,-7.8993 16.02776,-11.8476 27.80077,-11.8476 z m 171.69531,44.7754 v 35.4316 c -5.31684,4.10165 -11.09006,7.63355 -17.31836,10.59575 -6.2283,2.8863 -13.10156,4.3301 -20.62108,4.3301 -9.03863,0 -15.76065,-1.8229 -20.16603,-5.4688 -4.40537,-3.7217 -6.60741,-9.22785 -6.60741,-16.51955 0,-6.4562 1.89756,-11.5085 5.6953,-15.1543 3.79774,-3.7218 8.77345,-6.4562 14.92578,-8.2031 5.16494,-1.4432 12.15213,-2.5432 20.9629,-3.3027 8.88671,-0.7596 16.59679,-1.3293 23.1289,-1.709 z"
       id="text1209"
       inkscape:connector-curvature="0" />
  </g>
</svg>
