<?xml version="1.0" encoding="UTF-8" standalone="no"?>
<!-- Created with Inkscape (http://www.inkscape.org/) -->

<svg
   xmlns:dc="http://purl.org/dc/elements/1.1/"
   xmlns:cc="http://creativecommons.org/ns#"
   xmlns:rdf="http://www.w3.org/1999/02/22-rdf-syntax-ns#"
   xmlns:svg="http://www.w3.org/2000/svg"
   xmlns="http://www.w3.org/2000/svg"
   xmlns:sodipodi="http://sodipodi.sourceforge.net/DTD/sodipodi-0.dtd"
   xmlns:inkscape="http://www.inkscape.org/namespaces/inkscape"
   width="1000"
   height="1250"
   viewBox="0 0 1000 1250"
   version="1.1"
   id="svg6646"
   inkscape:version="0.92.4 (5da689c313, 2019-01-14)"
   sodipodi:docname="Você.svg">
  <defs
     id="defs6640" />
  <sodipodi:namedview
     id="base"
     pagecolor="#ffffff"
     bordercolor="#666666"
     borderopacity="1.0"
     inkscape:pageopacity="0.0"
     inkscape:pageshadow="2"
     inkscape:zoom="0.70710678"
     inkscape:cx="332.25583"
     inkscape:cy="625.21381"
     inkscape:document-units="px"
     inkscape:current-layer="layer1"
     showgrid="false"
     units="px"
     inkscape:window-width="716"
     inkscape:window-height="706"
     inkscape:window-x="-7"
     inkscape:window-y="0"
     inkscape:window-maximized="0" />
  <metadata
     id="metadata6643">
    <rdf:RDF>
      <cc:Work
         rdf:about="">
        <dc:format>image/svg+xml</dc:format>
        <dc:type
           rdf:resource="http://purl.org/dc/dcmitype/StillImage" />
        <dc:title></dc:title>
      </cc:Work>
    </rdf:RDF>
  </metadata>
  <g
     inkscape:label="Camada 1"
     inkscape:groupmode="layer"
     id="layer1"
     transform="translate(0,217.58335)">
    <path
       inkscape:connector-curvature="0"
       id="path10-9-09"
       d="m 274.67135,-220.15544 c -100.71039,-0.0289 -169.8961,40.40577 -209.690005,100.89639 -39.797401,60.495798 -50.901794,139.488238 -42.203793,217.680958 8.698087,78.192682 37.23802,155.929642 79.371568,214.965412 42.13347,59.03579 98.8587,100.16138 163.37985,99.77702 64.49087,-0.3842 120.75521,-41.94069 162.63973,-101.17563 41.88452,-59.23503 70.36863,-136.94103 79.82836,-214.939522 9.45989,-77.99843 -0.0149,-156.5767 -36.76663,-216.833148 -36.74765,-60.25025 -101.86473,-100.7121 -196.55908,-100.37148 z m 0.0157,26.13389 h 0.0263 0.0263 c 87.45778,-0.32199 141.70447,34.5992 174.18026,87.84537 32.4758,53.246258 42.08274,126.288258 33.13327,200.078788 C 473.10368,167.6932 445.68708,241.94687 406.82984,296.90052 367.97258,351.85418 318.65335,386.713 265.37386,387.03044 212.1248,387.34764 162.46162,352.90763 123.42094,298.20546 84.380398,243.5032 56.961438,169.32972 48.752327,95.532758 c -8.209113,-73.79708 2.83055,-146.87225 38.063592,-200.429988 35.233031,-53.55775 93.957581,-89.15818 187.871771,-89.12432 z"
       style="color:#000000;font-style:normal;font-variant:normal;font-weight:normal;font-stretch:normal;font-size:medium;line-height:normal;font-family:sans-serif;font-variant-ligatures:normal;font-variant-position:normal;font-variant-caps:normal;font-variant-numeric:normal;font-variant-alternates:normal;font-feature-settings:normal;text-indent:0;text-align:start;text-decoration:none;text-decoration-line:none;text-decoration-style:solid;text-decoration-color:#000000;letter-spacing:normal;word-spacing:normal;text-transform:none;writing-mode:lr-tb;direction:ltr;text-orientation:mixed;dominant-baseline:auto;baseline-shift:baseline;text-anchor:start;white-space:normal;shape-padding:0;clip-rule:nonzero;display:inline;overflow:visible;visibility:visible;opacity:1;isolation:auto;mix-blend-mode:normal;color-interpolation:sRGB;color-interpolation-filters:linearRGB;solid-color:#000000;solid-opacity:1;vector-effect:none;fill:#000000;fill-opacity:1;fill-rule:nonzero;stroke:none;stroke-width:26.13408852;stroke-linecap:butt;stroke-linejoin:miter;stroke-miterlimit:4;stroke-dasharray:none;stroke-dashoffset:0;stroke-opacity:1;color-rendering:auto;image-rendering:auto;shape-rendering:auto;text-rendering:auto;enable-background:accumulate" />
    <path
       inkscape:connector-curvature="0"
       id="path971-95"
       d="m 260.69046,94.590998 c 0,0 -1.47278,14.545512 -3.91067,29.823182 -1.21895,7.63878 -2.68798,15.46109 -4.2659,21.53882 -0.78893,3.03883 -1.61431,5.64876 -2.35444,7.44829 -0.74002,1.79947 -1.69611,2.73893 -1.00951,2.16688 -1.44603,1.20502 -2.97804,2.21106 -3.77904,5.41511 -0.40055,1.60208 -0.17075,3.98809 0.852,5.65462 1.02265,1.66655 2.35249,2.48181 3.35792,2.95495 4.02176,1.89248 6.08665,1.16629 8.82107,0.97768 5.46884,-0.37718 11.39096,-1.59621 11.39096,-1.59621 l -2.56183,-12.81352 c 0,0 -2.79345,0.35697 -4.48338,0.63444 0.86644,-2.32321 1.68477,-4.74815 2.4142,-7.55806 1.76328,-6.79195 3.2653,-14.89303 4.52131,-22.76388 2.51198,-15.74197 4.00847,-30.567482 4.00847,-30.567482 z"
       style="color:#000000;font-style:normal;font-variant:normal;font-weight:normal;font-stretch:normal;font-size:medium;line-height:normal;font-family:sans-serif;font-variant-ligatures:normal;font-variant-position:normal;font-variant-caps:normal;font-variant-numeric:normal;font-variant-alternates:normal;font-feature-settings:normal;text-indent:0;text-align:start;text-decoration:none;text-decoration-line:none;text-decoration-style:solid;text-decoration-color:#000000;letter-spacing:normal;word-spacing:normal;text-transform:none;writing-mode:lr-tb;direction:ltr;text-orientation:mixed;dominant-baseline:auto;baseline-shift:baseline;text-anchor:start;white-space:normal;shape-padding:0;clip-rule:nonzero;display:inline;overflow:visible;visibility:visible;opacity:1;isolation:auto;mix-blend-mode:normal;color-interpolation:sRGB;color-interpolation-filters:linearRGB;solid-color:#000000;solid-opacity:1;vector-effect:none;fill:#000000;fill-opacity:1;fill-rule:nonzero;stroke:none;stroke-width:13.06704426;stroke-linecap:butt;stroke-linejoin:miter;stroke-miterlimit:4;stroke-dasharray:none;stroke-dashoffset:0;stroke-opacity:1;color-rendering:auto;image-rendering:auto;shape-rendering:auto;text-rendering:auto;enable-background:accumulate" />
    <path
       style="color:#000000;font-style:normal;font-variant:normal;font-weight:normal;font-stretch:normal;font-size:medium;line-height:normal;font-family:sans-serif;font-variant-ligatures:normal;font-variant-position:normal;font-variant-caps:normal;font-variant-numeric:normal;font-variant-alternates:normal;font-feature-settings:normal;text-indent:0;text-align:start;text-decoration:none;text-decoration-line:none;text-decoration-style:solid;text-decoration-color:#000000;letter-spacing:normal;word-spacing:normal;text-transform:none;writing-mode:lr-tb;direction:ltr;text-orientation:mixed;dominant-baseline:auto;baseline-shift:baseline;text-anchor:start;white-space:normal;shape-padding:0;clip-rule:nonzero;display:inline;overflow:visible;visibility:visible;opacity:1;isolation:auto;mix-blend-mode:normal;color-interpolation:sRGB;color-interpolation-filters:linearRGB;solid-color:#000000;solid-opacity:1;vector-effect:none;fill:#000000;fill-opacity:1;fill-rule:nonzero;stroke:none;stroke-width:15;stroke-linecap:butt;stroke-linejoin:miter;stroke-miterlimit:4;stroke-dasharray:none;stroke-dashoffset:0;stroke-opacity:1;color-rendering:auto;image-rendering:auto;shape-rendering:auto;text-rendering:auto;enable-background:accumulate"
       d="m 78.993732,593.65535 -1.685546,14.9043 c -2.587512,-0.29252 -4.781458,-2.32113 -5.515625,-3.56641 -0.734168,-1.24527 -0.799662,-1.93217 -0.873047,-2.37109 -0.146771,-0.87783 -0.07471,-0.93283 -0.07813,-0.86719 -0.0068,0.13129 -0.09709,1.01156 -0.265625,2.16211 -0.337062,2.3011 -0.947354,5.90453 -1.589844,10.3125 -1.28498,8.81596 -2.71581,20.94876 -2.501953,34.11914 0.213857,13.17039 2.033474,27.43374 7.619141,40.56446 5.585666,13.13071 15.225864,25.14276 30.181637,32.50195 l 0.45703,0.22461 0.48243,0.16016 c 0,0 32.77399,10.82604 58.23241,-10.57227 4.39081,3.23824 11.02746,7.23956 20.06837,9.74023 11.82042,3.26948 27.62892,3.74465 46.58008,-2.54492 -0.93658,1.64421 -1.93236,3.15873 -2.79297,4.89649 -3.68365,7.4381 -6.66624,15.64373 -6.03515,24.293 0.63108,8.6492 6.23468,17.4232 16.18554,21.875 l 1.77539,0.7929 1.93946,-0.1679 c 0,0 8.39612,-0.7304 18.73828,-0.875 10.34215,-0.1446 22.84541,0.5488 28.95898,2.4062 l 1.04297,0.3164 1.08789,0.01 c -1.02406,-0.01 1.11078,0.2426 3.56641,1.0235 2.45562,0.7808 5.72805,1.9149 9.50586,3.1191 7.55562,2.4084 17.1585,5.1275 27.50195,6.0137 10.34345,0.8862 21.62241,-0.064 31.9375,-5.5527 10.31509,-5.4886 19.15915,-15.5563 24.57422,-30.76568 l -14.13281,-5.03124 c -4.43464,12.45562 -10.57182,18.87562 -17.48633,22.55472 -6.91451,3.6791 -15.11397,4.5776 -23.61133,3.8496 -8.49736,-0.7281 -17.09889,-3.0874 -24.22656,-5.3594 -3.56384,-1.136 -6.75257,-2.2438 -9.51758,-3.123 -2.23846,-0.7118 -4.0492,-1.2772 -6.39648,-1.5215 -9.76123,-2.8485 -22.2561,-3.0879 -33.01368,-2.9375 -8.78871,0.1228 -14.95286,0.5694 -17.54882,0.7714 -4.59346,-2.4028 -5.64634,-4.7386 -5.91993,-8.48823 -0.30329,-4.15669 1.46101,-10.37303 4.51758,-16.54492 3.05657,-6.1719 7.19292,-12.27501 10.57422,-16.86914 1.69065,-2.29707 3.18434,-4.21397 4.30664,-5.66602 0.56115,-0.72602 1.02154,-1.32123 1.43945,-1.89844 0.20896,-0.2886 0.40067,-0.5517 0.66993,-0.99218 0.13462,-0.22024 0.29016,-0.46994 0.51757,-0.97071 0.22742,-0.50076 0.84174,-0.94682 0.68555,-3.63281 l -0.71484,-12.31055 -10.60352,6.29883 c -27.6122,16.40727 -47.18682,16.14996 -60.10742,12.57617 -12.9206,-3.57378 -18.82422,-10.30468 -18.82422,-10.30468 l -5.48047,-6.08985 -5.58398,5.99805 c -18.96518,20.36999 -45.67605,12.05854 -47.1504,11.58203 -11.267646,-5.68392 -18.14518,-14.23339 -22.578123,-24.6543 -4.493722,-10.56378 -6.230163,-23.01066 -6.423828,-34.9375 -0.193665,-11.92683 1.116594,-23.2783 2.345703,-31.71093 0.614555,-4.21632 1.205131,-7.67633 1.589844,-10.30274 0.192356,-1.3132 0.342271,-2.3652 0.404297,-3.55664 0.03101,-0.59572 0.09575,-1.15988 -0.109376,-2.38672 -0.102561,-0.61342 -0.209035,-1.43318 -0.998046,-2.77148 -0.789012,-1.3383 -3.051032,-3.4189 -5.720704,-3.72071 z"
       id="path6673"
       inkscape:connector-curvature="0" />
    <path
       style="color:#000000;font-style:normal;font-variant:normal;font-weight:normal;font-stretch:normal;font-size:medium;line-height:normal;font-family:sans-serif;font-variant-ligatures:normal;font-variant-position:normal;font-variant-caps:normal;font-variant-numeric:normal;font-variant-alternates:normal;font-feature-settings:normal;text-indent:0;text-align:start;text-decoration:none;text-decoration-line:none;text-decoration-style:solid;text-decoration-color:#000000;letter-spacing:normal;word-spacing:normal;text-transform:none;writing-mode:lr-tb;direction:ltr;text-orientation:mixed;dominant-baseline:auto;baseline-shift:baseline;text-anchor:start;white-space:normal;shape-padding:0;clip-rule:nonzero;display:inline;overflow:visible;visibility:visible;opacity:1;isolation:auto;mix-blend-mode:normal;color-interpolation:sRGB;color-interpolation-filters:linearRGB;solid-color:#000000;solid-opacity:1;vector-effect:none;fill:#000000;fill-opacity:1;fill-rule:nonzero;stroke:none;stroke-width:15;stroke-linecap:butt;stroke-linejoin:miter;stroke-miterlimit:4;stroke-dasharray:none;stroke-dashoffset:0;stroke-opacity:1;color-rendering:auto;image-rendering:auto;shape-rendering:auto;text-rendering:auto;enable-background:accumulate"
       d="m 349.87459,434.1534 c -4.00359,0.0407 -8.57553,0.18738 -13.82226,0.45508 l 0.38281,14.9903 c 19.98067,-1.01944 29.70267,0.15476 32.79297,0.99603 l 1.05469,1.04297 c 36.14736,35.73424 49.14355,61.88109 53.38085,78.30664 2.11866,8.21277 2.08424,14.02354 1.65039,17.625 -0.43384,3.60145 -0.93945,4.33203 -0.93945,4.33203 l -0.19531,0.39258 -0.14844,0.41211 c -11.01396,30.47199 -45.64844,35.07421 -45.64844,35.07421 l -1.74023,0.22461 -1.46094,0.97266 c -3.74212,2.49475 -5.03387,6.60888 -5.30664,9.60938 -0.27277,3.00049 0.15428,5.5956 0.67383,7.93359 1.03911,4.67598 2.76367,8.5293 2.76367,8.5293 l 0.59961,1.36914 1.07813,1.03515 c 15.95382,15.31571 11.37935,34.63658 10.24609,38.59375 -0.34321,0.45335 -0.76841,0.9232 -1.01953,1.33203 -0.90927,1.48033 -1.45365,2.87551 -1.95508,4.38282 -1.00285,3.01461 -1.72649,6.48506 -2.39453,10.49414 -1.33608,8.01815 -2.33204,18.07514 -3.14258,28.16406 -0.81054,10.08892 -1.42307,20.17714 -1.92383,27.96289 -0.25037,3.89288 -0.47399,7.21606 -0.67187,9.61133 -0.0989,1.19763 -0.19378,2.16992 -0.26953,2.79492 -0.0757,0.625 -0.36802,1.32825 0.084,0.0312 l 14.14842,4.98662 c 0.63428,-1.82003 0.54214,-2.25542 0.65822,-3.21318 0.11609,-0.95777 0.22058,-2.06145 0.32813,-3.36328 0.21509,-2.60367 0.43962,-5.97007 0.6914,-9.88477 0.50356,-7.8294 1.11322,-17.82919 1.90821,-27.72461 0.79499,-9.89541 1.78772,-19.71893 2.98437,-26.90039 0.59833,-3.59073 1.2756,-6.54999 1.83203,-8.22266 0.0266,-0.0799 0.0226,-0.0473 0.0488,-0.12109 l 1.34766,-0.44922 1.1875,-3.55664 c 0,0 10.08231,-31.05882 -12.32227,-54.25781 -0.28939,-0.712 -1.02395,-2.41541 -1.56445,-4.84766 -0.15483,-0.69672 -0.12095,-1.02082 -0.18164,-1.59765 10.3579,-2.17268 40.69155,-10.96945 52.78125,-43.0586 0,0 1.75682,-3.79218 2.41406,-9.24804 0.65724,-5.45587 0.54359,-13.23787 -2.01758,-23.16602 -5.06399,-19.63013 -19.64026,-47.57439 -56.17187,-83.99609 -0.27717,-0.53564 -0.55384,-1.07805 -0.91797,-1.53321 -1.9706,-2.46323 -4.44773,-3.57555 -7.5918,-4.46875 -4.7161,-1.33979 -11.6201,-2.16692 -23.63086,-2.04492 z"
       id="path6675"
       inkscape:connector-curvature="0"
       sodipodi:nodetypes="cccccccccccccscccccccsscccccccsscccccccccssccccc" />
    <path
       style="color:#000000;font-style:normal;font-variant:normal;font-weight:normal;font-stretch:normal;font-size:medium;line-height:normal;font-family:sans-serif;font-variant-ligatures:normal;font-variant-position:normal;font-variant-caps:normal;font-variant-numeric:normal;font-variant-alternates:normal;font-feature-settings:normal;text-indent:0;text-align:start;text-decoration:none;text-decoration-line:none;text-decoration-style:solid;text-decoration-color:#000000;letter-spacing:normal;word-spacing:normal;text-transform:none;writing-mode:lr-tb;direction:ltr;text-orientation:mixed;dominant-baseline:auto;baseline-shift:baseline;text-anchor:start;white-space:normal;shape-padding:0;clip-rule:nonzero;display:inline;overflow:visible;visibility:visible;opacity:1;isolation:auto;mix-blend-mode:normal;color-interpolation:sRGB;color-interpolation-filters:linearRGB;solid-color:#000000;solid-opacity:1;vector-effect:none;fill:#000000;fill-opacity:1;fill-rule:nonzero;stroke:none;stroke-width:15;stroke-linecap:butt;stroke-linejoin:miter;stroke-miterlimit:4;stroke-dasharray:none;stroke-dashoffset:0;stroke-opacity:1;color-rendering:auto;image-rendering:auto;shape-rendering:auto;text-rendering:auto;enable-background:accumulate"
       d="m 275.12459,415.7745 c -10.00078,0 -23.65692,2.84304 -38.41992,12.86914 -0.15753,0.0701 -0.3287,0.1439 -0.47852,0.21289 -0.48922,0.22527 -1.08819,0.50352 -1.91015,0.85937 -1.64392,0.7117 -4.12676,1.71146 -7.55274,2.80469 -6.8059,2.17176 -17.32941,4.70103 -31.9707,5.85742 -0.90885,-0.14733 -1.23902,-0.28921 -2.75391,-0.3125 -2.7203,-0.0418 -6.4523,0.26382 -10.96289,1.47656 -8.68233,2.3344 -20.21077,8.20493 -33.18554,20.75391 -0.43146,0.18699 -0.8625,0.36695 -1.30078,0.58398 -1.31838,0.65285 -2.93327,1.52635 -4.87696,2.60938 -3.88736,2.16606 -9.00308,5.14102 -14.35937,8.3164 -10.71259,6.35077 -22.07967,13.29465 -26.55078,16.31446 l -0.0508,0.0352 -0.0488,0.0352 c 0,0 -9.927322,6.91975 -19.861332,16.9082 -9.509195,9.56132 -19.937016,21.87425 -20.56836,36.5625 -0.983884,2.04026 -6.537286,13.78451 -8.53125,28.01172 -1.086724,7.75394 -1.150965,16.19988 2.570313,23.91407 3.721278,7.71418 11.957232,13.70372 22.996095,14.97256 l 1.699217,-14.90421 c -7.259792,-0.83446 -9.502035,-3.10007 -11.183593,-6.58593 -1.681559,-3.48586 -2.087337,-9.18665 -1.228516,-15.31446 1.717642,-12.25561 7.779297,-24.98828 7.779297,-24.98828 l 0.791016,-1.62304 -0.0332,-1.80469 c -0.132354,-7.14739 7.491312,-18.75919 16.345704,-27.66211 8.815749,-8.86407 17.693739,-15.10165 17.771489,-15.15625 3.4563,-2.33161 15.20005,-9.55505 25.75194,-15.81055 4.76191,-2.82301 9.07914,-5.31668 12.62305,-7.3125 3.12891,-1.72135 6.25782,-3.44271 9.38672,-5.16406 12.06059,-12.0606 21.70271,-16.52493 27.95899,-18.20703 3.12813,-0.84105 5.43291,-0.98449 6.83789,-0.96289 1.40497,0.0216 1.39648,0.0781 1.39648,0.0781 l 1.21484,0.31641 1.25391,-0.0957 c 15.96194,-1.23555 27.74526,-4.03084 35.64844,-6.55274 3.40496,-1.08652 5.74861,-2.04344 7.71484,-2.86719 1.78516,-0.80729 3.57031,-1.61458 5.35547,-2.42187 12.65724,-8.82171 23.26763,-10.74609 30.73242,-10.74609 7.25847,-10e-6 10.76466,1.61331 10.96094,1.70507 26.19387,16.95123 50.34961,17.11914 50.34961,17.11914 v -15 c 0,0 -19.88326,0.10428 -42.97852,-15.16211 l -0.50195,-0.33398 -0.55078,-0.24805 c 0,0 -7.07641,-3.08008 -17.2793,-3.08007 z"
       id="path6677"
       inkscape:connector-curvature="0"
       sodipodi:nodetypes="cccssccccccscccscssccsscccscsccsscccsccccccccccc" />
    <path
       style="color:#000000;font-style:normal;font-variant:normal;font-weight:normal;font-stretch:normal;font-size:medium;line-height:normal;font-family:sans-serif;font-variant-ligatures:normal;font-variant-position:normal;font-variant-caps:normal;font-variant-numeric:normal;font-variant-alternates:normal;font-feature-settings:normal;text-indent:0;text-align:start;text-decoration:none;text-decoration-line:none;text-decoration-style:solid;text-decoration-color:#000000;letter-spacing:normal;word-spacing:normal;text-transform:none;writing-mode:lr-tb;direction:ltr;text-orientation:mixed;dominant-baseline:auto;baseline-shift:baseline;text-anchor:start;white-space:normal;shape-padding:0;clip-rule:nonzero;display:inline;overflow:visible;visibility:visible;opacity:1;isolation:auto;mix-blend-mode:normal;color-interpolation:sRGB;color-interpolation-filters:linearRGB;solid-color:#000000;solid-opacity:1;vector-effect:none;fill:#000000;fill-opacity:1;fill-rule:nonzero;stroke:none;stroke-width:15;stroke-linecap:butt;stroke-linejoin:miter;stroke-miterlimit:4;stroke-dasharray:none;stroke-dashoffset:0;stroke-opacity:1;color-rendering:auto;image-rendering:auto;shape-rendering:auto;text-rendering:auto;enable-background:accumulate"
       d="m 319.35701,483.80184 c 0,0 -1.49325,9.13912 -0.98437,20.67383 0.45678,10.35364 2.35484,23.06505 9.2539,33.76562 -1.8639,5.33774 -4.45768,15.20471 -2.4082,26.45508 1.49743,8.21993 5.81004,17.15313 14.43164,24.09766 8.62161,6.94452 21.15397,11.87368 38.84961,13.87695 l 1.68555,-14.90625 c -15.74675,-1.78265 -25.35218,-6.00246 -31.125,-10.65234 -5.77282,-4.64989 -8.112,-9.75721 -9.08594,-15.10352 -1.94788,-10.69263 2.83594,-21.66992 2.83594,-21.66992 l 1.96484,-4.20703 -2.89062,-3.63282 c -5.70133,-7.16739 -8.0878,-18.76469 -8.52539,-28.68359 -0.4376,-9.9189 0.80468,-17.60742 0.80468,-17.60742 z"
       id="path6679"
       inkscape:connector-curvature="0" />
    <path
       style="color:#000000;font-style:normal;font-variant:normal;font-weight:normal;font-stretch:normal;font-size:medium;line-height:normal;font-family:sans-serif;font-variant-ligatures:normal;font-variant-position:normal;font-variant-caps:normal;font-variant-numeric:normal;font-variant-alternates:normal;font-feature-settings:normal;text-indent:0;text-align:start;text-decoration:none;text-decoration-line:none;text-decoration-style:solid;text-decoration-color:#000000;letter-spacing:normal;word-spacing:normal;text-transform:none;writing-mode:lr-tb;direction:ltr;text-orientation:mixed;dominant-baseline:auto;baseline-shift:baseline;text-anchor:start;white-space:normal;shape-padding:0;clip-rule:nonzero;display:inline;overflow:visible;visibility:visible;opacity:1;isolation:auto;mix-blend-mode:normal;color-interpolation:sRGB;color-interpolation-filters:linearRGB;solid-color:#000000;solid-opacity:1;vector-effect:none;fill:#000000;fill-opacity:1;fill-rule:nonzero;stroke:none;stroke-width:15;stroke-linecap:butt;stroke-linejoin:miter;stroke-miterlimit:4;stroke-dasharray:none;stroke-dashoffset:0;stroke-opacity:1;color-rendering:auto;image-rendering:auto;shape-rendering:auto;text-rendering:auto;enable-background:accumulate"
       d="m 384.95662,499.03035 c -15.20549,0.39034 -27.86767,6.87375 -36.85742,13.94336 -11.98633,9.42615 -18.50976,20.32422 -18.50976,20.32422 l 12.8496,7.73828 c 0,0 5.25599,-8.66093 14.9336,-16.27148 9.67761,-7.61055 22.70955,-13.74063 39.88476,-9.35547 l 3.71094,-14.53516 c -5.59168,-1.42766 -10.94322,-1.97386 -16.01172,-1.84375 z"
       id="path6681"
       inkscape:connector-curvature="0" />
    <path
       style="color:#000000;font-style:normal;font-variant:normal;font-weight:normal;font-stretch:normal;font-size:medium;line-height:normal;font-family:sans-serif;font-variant-ligatures:normal;font-variant-position:normal;font-variant-caps:normal;font-variant-numeric:normal;font-variant-alternates:normal;font-feature-settings:normal;text-indent:0;text-align:start;text-decoration:none;text-decoration-line:none;text-decoration-style:solid;text-decoration-color:#000000;letter-spacing:normal;word-spacing:normal;text-transform:none;writing-mode:lr-tb;direction:ltr;text-orientation:mixed;dominant-baseline:auto;baseline-shift:baseline;text-anchor:start;white-space:normal;shape-padding:0;clip-rule:nonzero;display:inline;overflow:visible;visibility:visible;opacity:1;isolation:auto;mix-blend-mode:normal;color-interpolation:sRGB;color-interpolation-filters:linearRGB;solid-color:#000000;solid-opacity:1;vector-effect:none;fill:#000000;fill-opacity:1;fill-rule:nonzero;stroke:none;stroke-width:15;stroke-linecap:butt;stroke-linejoin:miter;stroke-miterlimit:4;stroke-dasharray:none;stroke-dashoffset:0;stroke-opacity:1;color-rendering:auto;image-rendering:auto;shape-rendering:auto;text-rendering:auto;enable-background:accumulate"
       d="m 155.48983,569.60848 c -13.29759,46.75597 -13.3157,80.3128 -9.76172,102.41406 3.55397,22.10126 11.25195,33.50195 11.25195,33.50196 l 12.28711,-8.60157 c 0,0 -5.55194,-7.5289 -8.72852,-27.2832 -3.17657,-19.7543 -3.4044,-50.98002 9.37891,-95.92773 z"
       id="path6683"
       inkscape:connector-curvature="0" />
    <path
       style="color:#000000;font-style:normal;font-variant:normal;font-weight:normal;font-stretch:normal;font-size:medium;line-height:normal;font-family:sans-serif;font-variant-ligatures:normal;font-variant-position:normal;font-variant-caps:normal;font-variant-numeric:normal;font-variant-alternates:normal;font-feature-settings:normal;text-indent:0;text-align:start;text-decoration:none;text-decoration-line:none;text-decoration-style:solid;text-decoration-color:#000000;letter-spacing:normal;word-spacing:normal;text-transform:none;writing-mode:lr-tb;direction:ltr;text-orientation:mixed;dominant-baseline:auto;baseline-shift:baseline;text-anchor:start;white-space:normal;shape-padding:0;clip-rule:nonzero;display:inline;overflow:visible;visibility:visible;opacity:1;isolation:auto;mix-blend-mode:normal;color-interpolation:sRGB;color-interpolation-filters:linearRGB;solid-color:#000000;solid-opacity:1;vector-effect:none;fill:#000000;fill-opacity:1;fill-rule:nonzero;stroke:none;stroke-width:15;stroke-linecap:butt;stroke-linejoin:miter;stroke-miterlimit:4;stroke-dasharray:none;stroke-dashoffset:0;stroke-opacity:1;color-rendering:auto;image-rendering:auto;shape-rendering:auto;text-rendering:auto;enable-background:accumulate"
       d="m 254.68123,561.38387 -14.99609,0.36328 c 0.34663,14.30036 -0.14871,40.10965 0.5664,66.61133 0.71512,26.50168 2.46735,53.57642 8.12891,72.39648 l 14.36524,-4.32031 c -4.71496,-15.67338 -6.7971,-42.43149 -7.5,-68.48047 -0.70291,-26.04898 -0.19934,-51.50746 -0.56446,-66.57031 z"
       id="path6685"
       inkscape:connector-curvature="0" />
    <path
       style="color:#000000;font-style:normal;font-variant:normal;font-weight:normal;font-stretch:normal;font-size:medium;line-height:normal;font-family:sans-serif;font-variant-ligatures:normal;font-variant-position:normal;font-variant-caps:normal;font-variant-numeric:normal;font-variant-alternates:normal;font-feature-settings:normal;text-indent:0;text-align:start;text-decoration:none;text-decoration-line:none;text-decoration-style:solid;text-decoration-color:#000000;letter-spacing:normal;word-spacing:normal;text-transform:none;writing-mode:lr-tb;direction:ltr;text-orientation:mixed;dominant-baseline:auto;baseline-shift:baseline;text-anchor:start;white-space:normal;shape-padding:0;clip-rule:nonzero;display:inline;overflow:visible;visibility:visible;opacity:1;isolation:auto;mix-blend-mode:normal;color-interpolation:sRGB;color-interpolation-filters:linearRGB;solid-color:#000000;solid-opacity:1;vector-effect:none;fill:#000000;fill-opacity:1;fill-rule:nonzero;stroke:none;stroke-width:15;stroke-linecap:butt;stroke-linejoin:miter;stroke-miterlimit:4;stroke-dasharray:none;stroke-dashoffset:0;stroke-opacity:1;color-rendering:auto;image-rendering:auto;shape-rendering:auto;text-rendering:auto;enable-background:accumulate"
       d="m 360.92733,587.73153 -14.85547,2.07226 c 4.38302,31.41168 3.56754,51.75565 1.79687,63.96485 -0.88533,6.10459 -2.00714,10.17752 -2.83593,12.60546 -0.8288,2.42795 -1.08985,2.75196 -1.08985,2.75196 l -0.28125,0.47265 -0.20898,0.50782 c -0.9981,2.4267 -4.52925,5.8582 -10.20899,8.82421 -5.67974,2.96602 -13.09722,5.47146 -20.35937,7.34961 -7.26216,1.87816 -14.38466,3.16383 -19.63672,3.94922 -2.62603,0.3927 -4.79109,0.66307 -6.24805,0.82032 -0.72669,0.0784 -1.28353,0.1282 -1.57812,0.15039 -0.002,-1.5e-4 -0.002,1.4e-4 -0.004,0 -15.78206,-1.42795 -24.69031,-1.12234 -30.23047,-0.15039 -2.81356,0.49359 -4.83312,1.14333 -6.56055,2.10937 -0.86371,0.48302 -1.65295,1.05797 -2.34179,1.75391 -0.68885,0.69594 -1.65039,2.36523 -1.65039,2.36523 l 13.65625,6.20703 c 0,0 -0.89595,1.52608 -1.34571,1.98047 -0.44975,0.45439 -0.82776,0.68993 -0.99804,0.78516 -0.34057,0.19045 0.14979,-0.13066 1.83203,-0.42578 3.36448,-0.59025 11.34837,-1.09385 26.85351,0.34375 l -0.0195,-0.0156 c 0.10339,0.007 0.32683,0.0433 0.40235,0.0469 0.40033,0.019 0.55075,0.009 0.70898,0.004 0.31647,-0.01 0.54156,-0.0243 0.81641,-0.0449 0.54969,-0.0413 1.22331,-0.10606 2.06836,-0.19726 1.6901,-0.18241 4.03126,-0.47387 6.85742,-0.89649 5.65231,-0.84525 13.22451,-2.2078 21.17383,-4.26367 7.94931,-2.05587 16.25925,-4.76856 23.54687,-8.57422 7.11313,-3.71454 13.59154,-8.50909 16.85156,-15.91016 0.18483,-0.33675 1.13847,-2.01879 2.18946,-5.09765 1.14878,-3.36536 2.47656,-8.3497 3.48437,-15.29883 2.01563,-13.89826 2.75534,-35.64921 -1.78515,-68.18945 z"
       id="path6687"
       inkscape:connector-curvature="0" />
    <path
       style="color:#000000;font-style:normal;font-variant:normal;font-weight:normal;font-stretch:normal;font-size:medium;line-height:normal;font-family:sans-serif;font-variant-ligatures:normal;font-variant-position:normal;font-variant-caps:normal;font-variant-numeric:normal;font-variant-alternates:normal;font-feature-settings:normal;text-indent:0;text-align:start;text-decoration:none;text-decoration-line:none;text-decoration-style:solid;text-decoration-color:#000000;letter-spacing:normal;word-spacing:normal;text-transform:none;writing-mode:lr-tb;direction:ltr;text-orientation:mixed;dominant-baseline:auto;baseline-shift:baseline;text-anchor:start;white-space:normal;shape-padding:0;clip-rule:nonzero;display:inline;overflow:visible;visibility:visible;opacity:1;isolation:auto;mix-blend-mode:normal;color-interpolation:sRGB;color-interpolation-filters:linearRGB;solid-color:#000000;solid-opacity:1;vector-effect:none;fill:#000000;fill-opacity:1;fill-rule:nonzero;stroke:none;stroke-width:15;stroke-linecap:butt;stroke-linejoin:miter;stroke-miterlimit:4;stroke-dasharray:none;stroke-dashoffset:0;stroke-opacity:1;color-rendering:auto;image-rendering:auto;shape-rendering:auto;text-rendering:auto;enable-background:accumulate"
       d="m 290.93514,712.40145 c -2.30483,0.072 -4.66493,0.24578 -7.05274,0.54883 -9.55124,1.2122 -19.86155,4.6016 -28.2207,12.33593 -8.35915,7.73434 -14.27323,19.62411 -15.81836,35.88871 l 14.9336,1.4179 c 1.28064,-13.4805 5.62784,-21.25937 11.07226,-26.29684 5.44443,-5.03748 12.48124,-7.52051 19.92188,-8.46484 5.93468,-0.75321 11.65526,-0.35622 16.69531,0.27148 -4.16291,5.1943 -7.60739,10.88794 -10.41602,16.14844 -5.05602,9.46986 -8.03906,17.63866 -8.03906,17.63866 l 14.08789,5.1543 c 0,0 2.65671,-7.2498 7.1836,-15.7285 4.52688,-8.47876 11.21852,-17.86532 16.86914,-21.49024 l 13.34179,-8.5586 -15.07812,-4.88867 c 0,0 -13.34669,-4.48033 -29.48047,-3.97656 z"
       id="path6691"
       inkscape:connector-curvature="0" />
    <path
       inkscape:connector-curvature="0"
       id="path1039-4-5-6-98-9"
       d="m 104.63179,-33.868352 -0.10991,16.24698 c 0,0 35.37138,0.23444 71.04942,0.46976 35.67813,0.23541 70.68228,0.47188 72.94848,0.47188 v -16.24698 c -0.19509,0 -37.16281,-0.23655 -72.84041,-0.47188 -35.6776,-0.23532 -71.04758,-0.46976 -71.04758,-0.46976 z"
       style="color:#000000;font-style:normal;font-variant:normal;font-weight:normal;font-stretch:normal;font-size:medium;line-height:normal;font-family:sans-serif;font-variant-ligatures:normal;font-variant-position:normal;font-variant-caps:normal;font-variant-numeric:normal;font-variant-alternates:normal;font-feature-settings:normal;text-indent:0;text-align:start;text-decoration:none;text-decoration-line:none;text-decoration-style:solid;text-decoration-color:#000000;letter-spacing:normal;word-spacing:normal;text-transform:none;writing-mode:lr-tb;direction:ltr;text-orientation:mixed;dominant-baseline:auto;baseline-shift:baseline;text-anchor:start;white-space:normal;shape-padding:0;clip-rule:nonzero;display:inline;overflow:visible;visibility:visible;opacity:1;isolation:auto;mix-blend-mode:normal;color-interpolation:sRGB;color-interpolation-filters:linearRGB;solid-color:#000000;solid-opacity:1;vector-effect:none;fill:#000000;fill-opacity:1;fill-rule:nonzero;stroke:none;stroke-width:16.24673843;stroke-linecap:butt;stroke-linejoin:miter;stroke-miterlimit:4;stroke-dasharray:none;stroke-dashoffset:0;stroke-opacity:1;color-rendering:auto;image-rendering:auto;shape-rendering:auto;text-rendering:auto;enable-background:accumulate" />
    <path
       inkscape:connector-curvature="0"
       id="path1479-6-5"
       d="m 143.27717,28.100948 -12.49049,2.51291 c 0,29.43056 20.22686,46.11462 40.40061,45.8622 20.17376,-0.25232 39.85031,-17.43524 38.73943,-46.11207 l -12.83669,-1.16355 c -4.6061,20.66333 -43.26375,24.03961 -53.81286,-1.09949 z m 7.31288,25.67294 c 12.24413,6.27719 27.10906,6.65485 39.03329,1.56934 -4.94046,5.49629 -11.75543,8.05092 -18.59801,8.13646 -7.5539,0.0945 -15.15933,-2.91151 -20.43528,-9.7058 z"
       style="color:#000000;font-style:normal;font-variant:normal;font-weight:normal;font-stretch:normal;font-size:medium;line-height:normal;font-family:sans-serif;font-variant-ligatures:normal;font-variant-position:normal;font-variant-caps:normal;font-variant-numeric:normal;font-variant-alternates:normal;font-feature-settings:normal;text-indent:0;text-align:start;text-decoration:none;text-decoration-line:none;text-decoration-style:solid;text-decoration-color:#000000;letter-spacing:normal;word-spacing:normal;text-transform:none;writing-mode:lr-tb;direction:ltr;text-orientation:mixed;dominant-baseline:auto;baseline-shift:baseline;text-anchor:start;white-space:normal;shape-padding:0;clip-rule:nonzero;display:inline;overflow:visible;visibility:visible;opacity:1;isolation:auto;mix-blend-mode:normal;color-interpolation:sRGB;color-interpolation-filters:linearRGB;solid-color:#000000;solid-opacity:1;vector-effect:none;fill:#000000;fill-opacity:1;fill-rule:nonzero;stroke:none;stroke-width:12.9973917;stroke-linecap:butt;stroke-linejoin:miter;stroke-miterlimit:4;stroke-dasharray:none;stroke-dashoffset:0;stroke-opacity:1;color-rendering:auto;image-rendering:auto;shape-rendering:auto;text-rendering:auto;enable-background:accumulate" />
    <path
       inkscape:connector-curvature="0"
       id="path1479-5-1-6"
       d="m 313.95591,20.324348 v 11.24912 c 0,29.43047 20.22633,46.11462 40.40009,45.8622 20.17463,-0.25232 39.85057,-17.43525 38.74013,-46.11207 l -0.39002,-10.06567 -9.01061,4.50399 c -8.97907,4.48848 -17.4647,8.19904 -26.75402,9.0221 -9.2902,0.82324 -19.68032,-1.01666 -33.23963,-8.83822 z m 65.34953,21.74056 c -2.89486,15.49394 -13.94319,22.2346 -25.11333,22.37439 -11.04482,0.13812 -22.2623,-6.20156 -25.90826,-21.75668 10.88881,4.48857 20.78725,5.84669 29.80313,5.04782 7.77835,-0.68914 14.72058,-2.93947 21.21846,-5.66553 z"
       style="color:#000000;font-style:normal;font-variant:normal;font-weight:normal;font-stretch:normal;font-size:medium;line-height:normal;font-family:sans-serif;font-variant-ligatures:normal;font-variant-position:normal;font-variant-caps:normal;font-variant-numeric:normal;font-variant-alternates:normal;font-feature-settings:normal;text-indent:0;text-align:start;text-decoration:none;text-decoration-line:none;text-decoration-style:solid;text-decoration-color:#000000;letter-spacing:normal;word-spacing:normal;text-transform:none;writing-mode:lr-tb;direction:ltr;text-orientation:mixed;dominant-baseline:auto;baseline-shift:baseline;text-anchor:start;white-space:normal;shape-padding:0;clip-rule:nonzero;display:inline;overflow:visible;visibility:visible;opacity:1;isolation:auto;mix-blend-mode:normal;color-interpolation:sRGB;color-interpolation-filters:linearRGB;solid-color:#000000;solid-opacity:1;vector-effect:none;fill:#000000;fill-opacity:1;fill-rule:nonzero;stroke:none;stroke-width:12.9973917;stroke-linecap:butt;stroke-linejoin:miter;stroke-miterlimit:4;stroke-dasharray:none;stroke-dashoffset:0;stroke-opacity:1;color-rendering:auto;image-rendering:auto;shape-rendering:auto;text-rendering:auto;enable-background:accumulate" />
    <path
       inkscape:connector-curvature="0"
       id="path29-3-1-9-7-2"
       d="m 266.83181,248.87182 c -30.55888,-0.67923 -61.5572,5.54897 -92.05394,20.41521 l -13.40462,6.53539 13.88429,5.44362 c 56.84488,22.28728 119.8752,23.22734 180.61031,0.75347 l 15.10183,-5.58753 -14.71796,-6.53512 c -28.74089,-12.76079 -58.86041,-20.3458 -89.41991,-21.02504 z m -0.1674,12.97648 c 22.79955,0.52016 45.37824,5.35098 67.50469,13.40015 -46.79368,13.70988 -94.13925,13.0735 -138.35656,-0.79344 23.62752,-9.16855 47.34443,-13.14309 70.85187,-12.60671 z"
       style="color:#000000;font-style:normal;font-variant:normal;font-weight:normal;font-stretch:normal;font-size:medium;line-height:normal;font-family:sans-serif;font-variant-ligatures:normal;font-variant-position:normal;font-variant-caps:normal;font-variant-numeric:normal;font-variant-alternates:normal;font-feature-settings:normal;text-indent:0;text-align:start;text-decoration:none;text-decoration-line:none;text-decoration-style:solid;text-decoration-color:#000000;letter-spacing:normal;word-spacing:normal;text-transform:none;writing-mode:lr-tb;direction:ltr;text-orientation:mixed;dominant-baseline:auto;baseline-shift:baseline;text-anchor:start;white-space:normal;shape-padding:0;clip-rule:nonzero;display:inline;overflow:visible;visibility:visible;opacity:1;isolation:auto;mix-blend-mode:normal;color-interpolation:sRGB;color-interpolation-filters:linearRGB;solid-color:#000000;solid-opacity:1;vector-effect:none;fill:#000000;fill-opacity:1;fill-rule:nonzero;stroke:none;stroke-width:13.09244251;stroke-linecap:butt;stroke-linejoin:miter;stroke-miterlimit:4;stroke-dasharray:none;stroke-dashoffset:0;stroke-opacity:1;color-rendering:auto;image-rendering:auto;shape-rendering:auto;text-rendering:auto;enable-background:accumulate" />
    <path
       inkscape:connector-curvature="0"
       id="path59-1-3-2-4-7"
       d="m 357.57339,-65.968532 c -25.11509,-0.4589 -49.35374,13.81575 -78.85801,42.9875 l 9.20343,9.31001 c 28.47621,-28.15544 49.42999,-39.57231 69.41443,-39.2071 19.98445,0.36521 41.30633,12.84011 69.74748,36.904 l 8.45671,-9.99371 c -29.16596,-24.67634 -52.84983,-39.54171 -77.96404,-40.0007 z"
       style="color:#000000;font-style:normal;font-variant:normal;font-weight:normal;font-stretch:normal;font-size:medium;line-height:normal;font-family:sans-serif;font-variant-ligatures:normal;font-variant-position:normal;font-variant-caps:normal;font-variant-numeric:normal;font-variant-alternates:normal;font-feature-settings:normal;text-indent:0;text-align:start;text-decoration:none;text-decoration-line:none;text-decoration-style:solid;text-decoration-color:#000000;letter-spacing:normal;word-spacing:normal;text-transform:none;writing-mode:lr-tb;direction:ltr;text-orientation:mixed;dominant-baseline:auto;baseline-shift:baseline;text-anchor:start;white-space:normal;shape-padding:0;clip-rule:nonzero;display:inline;overflow:visible;visibility:visible;opacity:1;isolation:auto;mix-blend-mode:normal;color-interpolation:sRGB;color-interpolation-filters:linearRGB;solid-color:#000000;solid-opacity:1;vector-effect:none;fill:#000000;fill-opacity:1;fill-rule:nonzero;stroke:none;stroke-width:13.09244251;stroke-linecap:butt;stroke-linejoin:miter;stroke-miterlimit:4;stroke-dasharray:none;stroke-dashoffset:0;stroke-opacity:1;color-rendering:auto;image-rendering:auto;shape-rendering:auto;text-rendering:auto;enable-background:accumulate" />
    <path
       inkscape:connector-curvature="0"
       id="path2346-92"
       d="m 344.61268,290.69384 c -1.94919,7.5624 -1.31465,8.80492 -5.97903,15.49351 l -0.14198,0.20386 -0.11657,0.21788 c 0,0 -2.34709,4.08094 -2.64069,9.02218 -0.14637,2.47067 0.28133,5.54213 2.49082,7.9724 2.20949,2.43035 5.72312,3.56182 9.91598,3.47462 l -0.16828,-8.12261 c -2.77041,0.0578 -3.49785,-0.55303 -3.73624,-0.81561 -0.23839,-0.26232 -0.46451,-0.83489 -0.39352,-2.02719 0.14111,-2.38154 1.70554,-5.69034 1.70905,-5.69753 0,0 0,0 0,0 4.91942,-7.19201 5.1657,-10.86295 6.9247,-17.69029 z"
       style="color:#000000;font-style:normal;font-variant:normal;font-weight:normal;font-stretch:normal;font-size:medium;line-height:normal;font-family:sans-serif;font-variant-ligatures:normal;font-variant-position:normal;font-variant-caps:normal;font-variant-numeric:normal;font-variant-alternates:normal;font-feature-settings:normal;text-indent:0;text-align:start;text-decoration:none;text-decoration-line:none;text-decoration-style:solid;text-decoration-color:#000000;letter-spacing:normal;word-spacing:normal;text-transform:none;writing-mode:lr-tb;direction:ltr;text-orientation:mixed;dominant-baseline:auto;baseline-shift:baseline;text-anchor:start;white-space:normal;shape-padding:0;clip-rule:nonzero;display:inline;overflow:visible;visibility:visible;opacity:1;isolation:auto;mix-blend-mode:normal;color-interpolation:sRGB;color-interpolation-filters:linearRGB;solid-color:#000000;solid-opacity:1;vector-effect:none;fill:#000000;fill-opacity:1;fill-rule:nonzero;stroke:none;stroke-width:8.12336922;stroke-linecap:butt;stroke-linejoin:miter;stroke-miterlimit:4;stroke-dasharray:none;stroke-dashoffset:0;stroke-opacity:1;color-rendering:auto;image-rendering:auto;shape-rendering:auto;text-rendering:auto;enable-background:accumulate" />
    <path
       sodipodi:nodetypes="cccsccccscccc"
       inkscape:connector-curvature="0"
       id="path2346-9-7"
       d="m 352.13161,290.91593 -7.96678,1.5831 c 1.36548,6.86975 2.81773,11.38128 6.92295,17.82237 0.035,0.0918 1.24979,2.97663 1.24979,5.2239 0,1.14155 -0.23927,1.81281 -0.62402,2.23893 -0.38475,0.4263 -1.21474,1.0597 -3.83177,1.17346 l 0.25943,8.1206 c 4.05526,-0.17625 7.48825,-1.5044 9.60571,-3.85228 2.11746,-2.34805 2.71256,-5.26824 2.71256,-7.68071 0,-4.82512 -2.06663,-8.79037 -2.06663,-8.79037 l -0.11218,-0.23375 -0.14023,-0.21604 c -3.92029,-6.06036 -4.67139,-8.66065 -6.00883,-15.38921 z"
       style="color:#000000;font-style:normal;font-variant:normal;font-weight:normal;font-stretch:normal;font-size:medium;line-height:normal;font-family:sans-serif;font-variant-ligatures:normal;font-variant-position:normal;font-variant-caps:normal;font-variant-numeric:normal;font-variant-alternates:normal;font-feature-settings:normal;text-indent:0;text-align:start;text-decoration:none;text-decoration-line:none;text-decoration-style:solid;text-decoration-color:#000000;letter-spacing:normal;word-spacing:normal;text-transform:none;writing-mode:lr-tb;direction:ltr;text-orientation:mixed;dominant-baseline:auto;baseline-shift:baseline;text-anchor:start;white-space:normal;shape-padding:0;clip-rule:nonzero;display:inline;overflow:visible;visibility:visible;opacity:1;isolation:auto;mix-blend-mode:normal;color-interpolation:sRGB;color-interpolation-filters:linearRGB;solid-color:#000000;solid-opacity:1;vector-effect:none;fill:#000000;fill-opacity:1;fill-rule:nonzero;stroke:none;stroke-width:8.12336922;stroke-linecap:butt;stroke-linejoin:miter;stroke-miterlimit:4;stroke-dasharray:none;stroke-dashoffset:0;stroke-opacity:1;color-rendering:auto;image-rendering:auto;shape-rendering:auto;text-rendering:auto;enable-background:accumulate" />
    <path
       inkscape:connector-curvature="0"
       style="font-style:normal;font-weight:normal;font-size:233.33332825px;line-height:1.25;font-family:sans-serif;letter-spacing:0px;word-spacing:0px;fill:#000000;fill-opacity:1;stroke:none"
       d="m 469.05859,837.93425 -25.97656,43.1797 h 17.66016 l 20.96289,-29.1661 21.07812,29.1661 h 18.11524 l -25.97656,-43.1797 z M 0,859.23895 61.75195,1028.8855 h 30.07813 l 61.75,-169.64655 H 130.56641 L 77.35937,1008.4909 24.154297,859.23895 Z m 216.01562,38.8515 c -18.0013,0 -32.31944,6.0384 -42.95312,18.1153 -10.55773,12.0008 -15.83594,28.3698 -15.83594,49.1054 0,20.7357 5.27821,37.10275 15.83594,49.10345 10.63368,12.001 24.95182,18.0021 42.95312,18.0021 17.8494,0 32.09093,-6.0011 42.72461,-18.0021 10.63368,-12.0008 15.95118,-28.36775 15.95118,-49.10345 0,-20.7356 -5.3175,-37.1046 -15.95118,-49.1054 -10.63368,-12.0769 -24.87521,-18.1153 -42.72461,-18.1153 z m 266.48829,0 c -18.53299,0 -33.4974,6.115 -44.89063,18.3438 -11.31727,12.2287 -16.97461,28.7489 -16.97461,49.5605 0,21.0395 5.92448,37.29265 17.77344,48.76175 11.84896,11.3933 28.32986,17.0899 49.44531,17.0899 8.27908,0 16.17969,-1.0254 23.69922,-3.0762 7.51953,-2.0508 14.88585,-4.5946 22.10156,-7.6328 v -23.35555 h -1.13867 c -3.72179,3.34205 -9.98806,6.76005 -18.79883,10.25385 -8.73481,3.4181 -17.43099,5.1271 -26.08984,5.1271 -6.53212,0 -12.5332,-0.9115 -18.00195,-2.7344 -5.3928,-1.8229 -10.06402,-4.5573 -14.01368,-8.2031 -4.10156,-3.72185 -7.32899,-8.46965 -9.68359,-14.24225 -2.3546,-5.8485 -3.5332,-12.6845 -3.5332,-20.5078 h 93.76758 v -11.6211 c 0,-18.457 -4.67123,-32.6986 -14.01368,-42.7246 -9.26649,-10.0261 -22.48264,-15.0391 -39.64843,-15.0391 z m -121.22461,0.5703 c -18.76085,0 -33.87652,5.9245 -45.34571,17.7735 -11.39323,11.8489 -17.08984,28.1786 -17.08984,48.9902 0,11.1654 1.5204,20.9262 4.55859,29.2813 3.0382,8.35505 7.32835,15.26565 12.87305,20.73435 5.46875,5.4688 12.0395,9.5704 19.71094,12.3047 7.67144,2.6584 16.10243,3.9883 25.29297,3.9883 7.21571,0 14.01432,-0.9488 20.39453,-2.8476 6.45616,-1.8989 13.25282,-4.5586 20.39258,-7.9766 v -23.58405 h -1.13868 c -1.59505,1.2912 -3.75976,2.84905 -6.49414,4.67195 -2.73437,1.7468 -5.65928,3.4185 -8.77343,5.0136 -3.56988,1.8229 -7.59484,3.304 -12.07618,4.4434 -4.48133,1.1392 -8.88737,1.7089 -13.21679,1.7089 -12.4566,0 -22.14084,-4.1016 -29.05274,-12.3046 -6.83593,-8.27915 -10.2539,-20.09075 -10.2539,-35.43365 0,-15.7986 3.49457,-27.7615 10.48242,-35.8887 7.0638,-8.2031 16.67144,-12.3046 28.82422,-12.3046 6.60807,0 13.36936,1.3671 20.28125,4.1015 6.98784,2.7344 13.74718,6.6454 20.27929,11.7344 h 1.13868 v -23.8106 c -5.84853,-2.9622 -12.30339,-5.4687 -19.36719,-7.5195 -6.98785,-2.0508 -14.12826,-3.0762 -21.41992,-3.0762 z m 120.08398,17.0899 c 11.39323,0 19.8635,3.0762 25.4082,9.2285 5.62066,6.1523 8.46897,14.8485 8.54493,26.0898 h -72.91797 c 0.91146,-10.026 4.74783,-18.4197 11.50781,-25.1796 6.83594,-6.76 15.98785,-10.1387 27.45703,-10.1387 z m -265.34766,0.7969 c 11.46919,0 20.43251,4.0249 26.88868,12.0761 6.45616,7.9753 9.68359,20.2053 9.68359,36.6875 0,16.1025 -3.26671,28.2539 -9.79883,36.45705 -6.45616,8.1271 -15.38021,12.1914 -26.77344,12.1914 -11.54513,0 -20.54579,-4.1016 -27.00195,-12.3047 -6.45616,-8.27905 -9.68359,-20.39315 -9.68359,-36.34375 0,-16.4822 3.1901,-28.7122 9.57031,-36.6875 6.45616,-8.0512 15.49414,-12.0761 27.11523,-12.0761 z"
       id="text6577" />
  </g>
</svg>
