<?xml version="1.0" encoding="UTF-8" standalone="no"?>
<!-- Created with Inkscape (http://www.inkscape.org/) -->

<svg
   xmlns:dc="http://purl.org/dc/elements/1.1/"
   xmlns:cc="http://creativecommons.org/ns#"
   xmlns:rdf="http://www.w3.org/1999/02/22-rdf-syntax-ns#"
   xmlns:svg="http://www.w3.org/2000/svg"
   xmlns="http://www.w3.org/2000/svg"
   xmlns:sodipodi="http://sodipodi.sourceforge.net/DTD/sodipodi-0.dtd"
   xmlns:inkscape="http://www.inkscape.org/namespaces/inkscape"
   version="1.1"
   id="svg8719"
   width="1000"
   height="1000"
   viewBox="0 0 1000 1000"
   sodipodi:docname="Dia.svg"
   inkscape:version="0.92.4 (5da689c313, 2019-01-14)">
  <metadata
     id="metadata8725">
    <rdf:RDF>
      <cc:Work
         rdf:about="">
        <dc:format>image/svg+xml</dc:format>
        <dc:type
           rdf:resource="http://purl.org/dc/dcmitype/StillImage" />
        <dc:title></dc:title>
      </cc:Work>
    </rdf:RDF>
  </metadata>
  <defs
     id="defs8723">
    <clipPath
       clipPathUnits="userSpaceOnUse"
       id="clipPath8731">
      <rect
         style="opacity:1;fill:#00000a;fill-opacity:0.04705882;stroke:#000000;stroke-width:14.99999905;stroke-miterlimit:4;stroke-dasharray:none;stroke-opacity:1"
         id="rect8733"
         width="985"
         height="985"
         x="7.5"
         y="7.4999976"
         transform="rotate(-90)" />
    </clipPath>
  </defs>
  <sodipodi:namedview
     pagecolor="#ffffff"
     bordercolor="#666666"
     borderopacity="1"
     objecttolerance="10"
     gridtolerance="10"
     guidetolerance="10"
     inkscape:pageopacity="0"
     inkscape:pageshadow="2"
     inkscape:window-width="681"
     inkscape:window-height="706"
     id="namedview8721"
     showgrid="false"
     inkscape:zoom="0.5"
     inkscape:cx="688.76956"
     inkscape:cy="346.40305"
     inkscape:window-x="-7"
     inkscape:window-y="0"
     inkscape:window-maximized="0"
     inkscape:current-layer="svg8719" />
  <path
     style="color:#000000;font-style:normal;font-variant:normal;font-weight:normal;font-stretch:normal;font-size:medium;line-height:normal;font-family:sans-serif;font-variant-ligatures:normal;font-variant-position:normal;font-variant-caps:normal;font-variant-numeric:normal;font-variant-alternates:normal;font-feature-settings:normal;text-indent:0;text-align:start;text-decoration:none;text-decoration-line:none;text-decoration-style:solid;text-decoration-color:#000000;letter-spacing:normal;word-spacing:normal;text-transform:none;writing-mode:lr-tb;direction:ltr;text-orientation:mixed;dominant-baseline:auto;baseline-shift:baseline;text-anchor:start;white-space:normal;shape-padding:0;clip-rule:nonzero;display:inline;overflow:visible;visibility:visible;opacity:1;isolation:auto;mix-blend-mode:normal;color-interpolation:sRGB;color-interpolation-filters:linearRGB;solid-color:#000000;solid-opacity:1;vector-effect:none;fill:#000000;fill-opacity:1;fill-rule:nonzero;stroke:none;stroke-width:15.00198746;stroke-linecap:butt;stroke-linejoin:miter;stroke-miterlimit:4;stroke-dasharray:none;stroke-dashoffset:0;stroke-opacity:1;color-rendering:auto;image-rendering:auto;shape-rendering:auto;text-rendering:auto;enable-background:accumulate"
     d="m 326.6582,382.11914 c -6.00896,-0.62005 -12.6423,1.54189 -19.14453,5.79883 l -2.39062,1.56641 -0.74219,2.75976 c -7.56863,28.10367 -18.70301,46.6804 -25.41602,71.16211 -16.78713,38.13431 -47.80407,108.48088 -65.29492,141.96289 -2.21952,2.46586 -41.67724,46.74675 -67.31445,111.00391 l -0.99024,2.48242 0.006,0.0176 c -0.806,1.68629 -2.51394,4.94836 -6.44531,11.38281 -8.22675,13.46467 -25.36032,39.59631 -60.437499,89.32226 -0.08055,0.10605 -15.698077,20.66793 -33.398437,43.20899 C 27.343901,885.38622 6.8195657,910.50131 0.15429688,916.75 L 10.414062,927.69531 c 9.531528,-8.9358 28.638589,-32.92875 46.47461,-55.64258 17.836021,-22.71382 33.630859,-43.51171 33.630859,-43.51171 l 0.08008,-0.10547 0.07617,-0.10743 c 35.239289,-49.95253 52.493329,-76.24087 61.052739,-90.25 4.2797,-7.00456 6.38166,-10.91204 7.54296,-13.40234 0.58066,-1.24515 0.9341,-2.1193 1.20508,-3.08594 0.0116,-0.0412 0.016,-0.10284 0.0273,-0.14453 25.25082,-62.99041 65.04297,-106.90234 65.04297,-106.90234 l 0.64453,-0.71094 0.44726,-0.84961 c 18.10812,-34.54243 49.31045,-105.48728 66.16602,-143.77734 l 0.23242,-0.52344 0.14844,-0.55469 c 5.82672,-21.71976 16.6765,-40.3662 24.78125,-68.92968 4.65241,-2.59752 6.95604,-2.45017 8.16015,-1.89258 1.39388,0.64546 3.59458,3.23927 5.15039,8.5664 3.07744,10.53722 2.75603,28.79925 0.4961,42.80079 -1.20096,3.0081 -2.27387,6.29263 -3.37305,9.54296 -4.39934,-2.34044 -10.07182,-4.48914 -16.74805,-4.79492 l -0.6875,14.98633 c 5.49964,0.25189 9.77296,2.63156 12.79688,4.67383 -3.63572,12.91566 -6.03446,23.59868 -6.11328,23.9668 -3.63116,13.45462 -7.51419,23.33308 -11.47266,35.58203 -4.54086,-2.84173 -10.93112,-5.36475 -20.25195,-6.52539 l -1.85352,14.88671 c 8.47273,1.05504 12.56463,3.11026 15.01172,4.83789 1.18216,0.8346 1.82116,1.6167 2.62109,2.51172 -2.56498,9.5658 -5.12923,20.43058 -7.65624,35.42188 -6.45858,18.85248 -2.23075,34.8048 3.85156,45.25976 6.18164,10.62572 14.38476,16.4668 14.38476,16.4668 l 1.69141,1.20703 1.10937,0.0879 c -0.11742,0.003 0.24066,0.22029 1.04688,1.69922 1.0405,1.9087 2.10926,5.06281 2.86523,8.28125 0.53722,2.28714 0.79999,4.29866 1.09375,6.30274 l -0.62304,0.11132 1.625,7.59375 c 1.46219,6.83756 -3.60632,16.38613 -10.54102,24.23829 -5.05279,5.72126 -9.42312,9.30757 -11.97461,11.30468 -0.87452,-0.31321 -1.84493,-0.67027 -3.27148,-1.60351 -3.24366,-2.122 -7.35493,-6.39007 -10.19727,-15.74024 3.37766,-4.96152 7.29425,-11.19711 11.84375,-19.17968 l -13.03515,-7.42774 c -8.10218,14.21612 -13.82881,22.13798 -17.63868,26.76563 -1.4457,-2.57094 -2.908,-5.31477 -4.40429,-8.4375 l -13.5293,6.48242 c 7.16712,14.95758 14.31645,24.27593 20.28711,31.46484 5.8443,7.03678 10.19551,11.83788 13.41602,18.56055 0.1773,0.75879 0.33157,1.54402 0.5664,2.23633 -5.60887,-3.57221 -13.14513,-9.45011 -23.30859,-19.92969 l -10.76953,10.44336 c 17.24154,17.77782 28.81941,25.13165 37.38281,27.99805 4.2817,1.43319 7.87661,1.67851 10.71094,1.21679 0.82617,-0.13458 1.41101,-0.40442 2.08593,-0.63086 25.79785,1.15368 40.11629,-0.48504 48.61524,-2.91406 3.12925,-0.89435 5.34209,-1.93909 7.22461,-3.05469 l -1.20313,1.30274 2.13282,-1.86914 c 0.37919,-0.25399 0.88843,-0.47982 1.2246,-0.74414 0.82516,-0.6488 1.41207,-1.34768 1.98047,-2.04297 18.90849,-16.45747 32.44675,-19.91012 42.94727,-20.01172 1.17961,-0.0114 2.19466,0.18836 3.29883,0.27539 -5.88475,3.3679 -9.77344,7.13086 -9.77344,7.13086 l -8.52344,7.98242 10.80469,4.43164 c 9.0036,3.69337 10.20823,7.02702 10.63672,8.97852 0.29498,1.34347 0.16604,2.05304 0.043,2.4707 -0.85822,0.8812 -1.766,1.68671 -2.60547,2.63086 -3.1769,3.57306 -6.2828,7.75211 -9.54883,11.99219 -6.31363,8.19658 -13.38525,16.34375 -19.78906,19.97656 -42.23973,7.50025 -64.85406,12.79022 -77.75196,16.67187 -13.06592,3.93222 -17.51258,7.16681 -18.96289,7.92188 l -0.62695,0.32617 -0.55664,0.43945 c -27.77063,21.91967 -40.69371,30.8845 -48.85742,34.23829 -8.16372,3.35378 -13.26957,2.15454 -28.56445,3.04882 l -2.45508,0.14258 -1.89258,1.56836 c 0,0 -19.87481,16.46631 -42.30274,38.56055 -22.42792,22.09424 -47.50621,49.42617 -58.572261,73.77148 l 13.658201,6.20899 c 9.17992,-20.19584 33.51671,-47.69255 55.44336,-69.29297 20.26882,-19.96726 36.8378,-33.87653 39.46289,-36.07031 12.42223,-0.52729 20.3556,0.28024 30.92188,-4.06055 11.27862,-4.63344 24.39925,-14.21258 51.96093,-35.95703 3.28611,-1.81543 4.4522,-3.10506 15.66797,-6.48047 12.02448,-3.61879 34.50047,-8.93195 77.52149,-16.53711 l 1.13476,-0.20117 1.02149,-0.53125 c 10.90808,-5.67797 18.72831,-15.89749 25.42383,-24.58985 3.34776,-4.34618 6.36985,-8.36019 8.875,-11.17773 2.50377,-2.816 4.75314,-4.07335 4.33789,-3.95508 3.65887,-1.04797 7.28347,-2.95505 10.98437,-5.44726 3.70091,-2.49222 7.4809,-4.75791 9.53125,-10.48633 l -0.69922,1.44336 c 0,0 3.52894,-5.37384 4.42774,-12.66993 0.44939,-3.64804 0.23881,-8.05828 -1.79297,-12.39257 -0.86246,-1.83984 -2.12333,-3.57438 -3.6211,-5.19532 1.65485,-3.09948 2.78318,-7.17801 2.87891,-12.14062 2.73189,-2.94645 6.25758,-8.13113 5.05078,-15.62305 l 0.0918,0.93555 c -0.69692,-20.41527 -3.91322,-40.00149 -6.90039,-59.27539 l 0.0859,0.96289 c 0,0 -0.11548,-1.3591 -0.32422,-2.16992 -0.20875,-0.81083 -0.52628,-1.72026 -1.00391,-2.78516 -0.95525,-2.12979 -2.54558,-4.88674 -5.36133,-8.67187 -5.54588,-7.4552 -15.9733,-18.98955 -35.96289,-36.76954 -7.00121,-11.67916 -13.3383,-19.62161 -20.50586,-24.60546 -7.39382,-5.14119 -15.84065,-6.50253 -23.70312,-5.27344 -12.94072,2.02295 -25.6669,8.96748 -43.17969,15.26562 6.99412,-35.76139 14.05893,-47.28025 21.07031,-73.25976 l 0.0488,-0.17969 0.0391,-0.18359 c 0,0 6.48143,-29.36226 13.83789,-47.36524 l 0.31836,-0.77929 0.13867,-0.83204 c 2.59703,-15.67845 3.52064,-35.02748 -0.83789,-49.95117 -2.17926,-7.46184 -5.90046,-14.56916 -13.24609,-17.9707 -1.83641,-0.85039 -3.77045,-1.36754 -5.77344,-1.57422 z m 33.45508,191.30664 c 3.28336,-0.0641 5.91155,0.77971 9.26758,3.11328 4.47471,3.11143 10.08781,9.58724 16.80859,20.95899 l 0.006,0.0117 c 0.002,0.003 0.01,0.0145 0.0117,0.0176 l 0.58203,0.98633 0.15039,0.13281 c 3.16054,5.20187 10.23982,15.66853 17.83203,27.26563 7.82122,11.94689 15.758,24.86329 17.44141,28.67187 1.79162,5.69797 3.20386,17.21328 4.09961,28.0254 -2.0536,0.97598 -3.89694,2.24749 -5.19531,3.7832 -3.02802,3.58153 -4.24466,7.56394 -5.01172,11.21094 -1.53413,7.29398 -0.94727,14.15429 -0.94727,14.15429 l 0.19336,2.69141 1.00977,1.05664 c -2.65789,-0.59924 -5.13492,-1.26374 -7.13281,-2.1582 -5.15074,-2.30602 -7.9091,-4.60221 -9.06055,-12.42578 l -0.002,-0.0137 -0.002,-0.0137 c 0,0 -1.39862,-9.44876 -1.37304,-18.72265 0.0128,-4.63695 0.46528,-9.22213 1.24804,-11.89258 0,0 0.0213,-0.95889 -0.17773,-1.71289 l -1.90625,-14.87891 c -3.5339,0.45277 -6.69001,2.55361 -8.60547,4.9082 -0.32632,0.40113 -0.50092,0.83306 -0.7793,1.24414 -1.29647,-0.62168 -2.80542,-1.51836 -4.71289,-3.23046 -6.22094,-5.58379 -15.41215,-18.93439 -22.39844,-49.29883 l -14.62109,3.36328 c 1.2318,5.35377 2.56017,10.1209 3.92578,14.63672 -1.18349,0.74798 -2.2097,1.46878 -4.26172,2.39453 -5.59922,2.52603 -14.42897,4.885 -27.00586,4.24609 -1.68166,-1.37894 -5.10649,-4.41652 -8.63086,-10.47461 -4.18487,-7.19345 -7.23243,-16.9145 -3.44335,-30.18554 23.66406,-7.28193 39.38529,-15.99485 49.13867,-17.51954 1.29108,-0.20182 2.45828,-0.32435 3.55273,-0.3457 z m -17.33984,82.03516 c -1.69598,1.1648 -3.51794,2.24594 -5.46289,3.10351 -0.99805,0.44007 -1.70685,0.59242 -2.63867,0.9336 -0.19084,-1.19759 -0.36785,-2.3046 -0.62891,-3.61328 2.75371,0.40946 5.48692,0.25682 7.97656,-0.21094 0.26203,-0.0492 0.4943,-0.15789 0.75391,-0.21289 z m 18.65625,3.56445 c 0.51159,0.37232 0.42956,0.42052 1.01758,0.79297 1.43236,0.90725 3.04024,1.88057 5.57031,2.41406 0.1879,0.0396 0.46025,0.0193 0.67187,0.0449 1.72282,2.08071 3.44493,3.96882 5.14649,5.4961 3.71781,3.33703 7.19296,5.14355 10.31445,6.35547 -0.26317,2.66009 -0.35401,5.34855 -0.36133,8.00195 -0.0297,10.75751 1.53001,20.92834 1.53711,20.97461 1.9e-4,10e-4 -1.9e-4,0.003 0,0.004 0.70336,4.77528 2.33544,8.8967 4.53906,12.39648 -11.87889,2.50374 -25.78016,9.00569 -41.44726,22.73828 l -0.98242,1.21703 c -0.0926,0.0728 -1.21952,0.87495 -4.22657,1.73437 -5.67185,1.62103 -18.25537,3.27486 -41.4121,2.40821 -0.66688,-1.07799 -0.83292,-1.2748 -1.69922,-2.79493 -1.32954,-2.33297 -1.9314,-3.89814 -2.55078,-5.3125 1.15907,-1.54386 1.71407,-2.16341 3.45312,-4.79687 1.5223,-2.30524 3.07464,-4.82661 4.35938,-7.41016 0.74586,-1.49988 1.39756,-3.02133 1.89062,-4.71289 2.69779,-2.06262 8.17606,-6.42331 14.54492,-13.63476 6.88478,-7.79563 14.1649,-18.23566 14.51953,-30.17579 2.16823,-0.65996 4.38415,-1.29773 7.04883,-2.47265 5.74396,-2.53265 12.54544,-6.4963 16.99414,-13.13672 0.33591,-0.009 0.71443,-0.0924 1.07227,-0.13086 z m -74.90625,57.7793 c 0.1888,0.12971 0.38034,0.33598 0.56836,0.45898 1.15472,0.75542 2.27252,1.25751 3.39062,1.78906 -0.31958,0.54865 -0.61252,1.06312 -0.96484,1.62891 -0.96561,-1.3327 -1.98469,-2.6182 -2.99414,-3.87695 z m 134.53711,22.64843 c 1.01027,-0.0141 1.84188,0.17757 2.53515,0.53516 1.19178,0.61474 2.92193,2.3021 4.47657,6.82617 l -0.3418,0.54883 -0.27149,0.75977 c 0.47305,-1.32163 -1.25058,1.39149 -3.7871,3.09961 -0.59571,0.40115 -1.23664,0.70632 -1.87891,1.07226 -1.32349,-3.61096 -3.89596,-7.22864 -7.84375,-10.55469 1.16002,-0.61203 2.3405,-1.2121 3.5,-1.59179 1.41175,-0.4623 2.60105,-0.68122 3.61133,-0.69532 z"
     id="path8777"
     inkscape:connector-curvature="0"
     sodipodi:nodetypes="cccccccccsccccscccscccccccccccsccccccccccccsccccsccccccccccccscccccccscccccccccccccscscccccccsccscscscccsccscccscccccccccccscccccccsccccscccccscccccccccccccccsccccccccccccccccccccccccccccccsccccccscsccccccccsccccccccs" />
  <path
     style="color:#000000;font-style:normal;font-variant:normal;font-weight:normal;font-stretch:normal;font-size:medium;line-height:normal;font-family:sans-serif;font-variant-ligatures:normal;font-variant-position:normal;font-variant-caps:normal;font-variant-numeric:normal;font-variant-alternates:normal;font-feature-settings:normal;text-indent:0;text-align:start;text-decoration:none;text-decoration-line:none;text-decoration-style:solid;text-decoration-color:#000000;letter-spacing:normal;word-spacing:normal;text-transform:none;writing-mode:lr-tb;direction:ltr;text-orientation:mixed;dominant-baseline:auto;baseline-shift:baseline;text-anchor:start;white-space:normal;shape-padding:0;clip-rule:nonzero;display:inline;overflow:visible;visibility:visible;opacity:1;isolation:auto;mix-blend-mode:normal;color-interpolation:sRGB;color-interpolation-filters:linearRGB;solid-color:#000000;solid-opacity:1;vector-effect:none;fill:#000000;fill-opacity:1;fill-rule:nonzero;stroke:none;stroke-width:32.12413788;stroke-linecap:butt;stroke-linejoin:miter;stroke-miterlimit:4;stroke-dasharray:none;stroke-dashoffset:0;stroke-opacity:1;color-rendering:auto;image-rendering:auto;shape-rendering:auto;text-rendering:auto;enable-background:accumulate"
     d="M 363.33691,221.29515 C 202.21622,221.25012 107.90273,306.29127 70.686784,418.21577 33.467943,530.14895 52.23644,674.2691 100.77247,787.87494 c 7.32704,-10.01532 6.80521,-9.88401 11.78063,-15.24407 0,0 68.15324,120.01191 68.15304,120.01191 -4.19316,4.45892 -9.02028,8.70628 -13.9379,13.35712 48.80028,57.47821 116.40097,94.186 185.3367,93.77536 79.27249,-0.47224 148.43236,-51.5542 199.91708,-124.36611 51.48472,-72.81189 86.49826,-168.32892 98.12629,-264.20492 11.62806,-95.87599 -0.018,-192.4641 -45.19348,-266.5314 C 559.78346,270.61142 479.73965,220.87462 363.33691,221.29515 Z m 0.0251,32.12338 h 0.031 0.0331 c 107.50366,-0.39575 174.18319,42.53063 214.10259,107.98114 39.91948,65.45047 51.72884,155.23323 40.72808,245.93687 -11.00076,90.70363 -45.9583,181.10486 -92.46535,249.52524 -46.92221,69.03118 -94.67905,106.83126 -175.06199,111.47238 -87.34615,0.56686 -162.46084,-82.5011 -158.33298,-86.28553 0,0 -7.04084,6.68558 -11.69012,10.59415 L 112.55329,772.63087 c 5.66529,-8.8928 12.72504,-19.57458 12.72504,-19.57458 -6.94783,6.45156 -74.284702,-207.83225 -24.10683,-324.70441 42.26959,-98.4526 111.94324,-174.98762 262.19102,-174.93335 z"
     id="path10-9"
     inkscape:connector-curvature="0"
     sodipodi:nodetypes="csccccsssccccccsscccccscc" />
  <path
     style="color:#000000;font-style:normal;font-variant:normal;font-weight:normal;font-stretch:normal;font-size:medium;line-height:normal;font-family:sans-serif;font-variant-ligatures:normal;font-variant-position:normal;font-variant-caps:normal;font-variant-numeric:normal;font-variant-alternates:normal;font-feature-settings:normal;text-indent:0;text-align:start;text-decoration:none;text-decoration-line:none;text-decoration-style:solid;text-decoration-color:#000000;letter-spacing:normal;word-spacing:normal;text-transform:none;writing-mode:lr-tb;direction:ltr;text-orientation:mixed;dominant-baseline:auto;baseline-shift:baseline;text-anchor:start;white-space:normal;shape-padding:0;clip-rule:nonzero;display:inline;overflow:visible;visibility:visible;opacity:1;isolation:auto;mix-blend-mode:normal;color-interpolation:sRGB;color-interpolation-filters:linearRGB;solid-color:#000000;solid-opacity:1;vector-effect:none;fill:#000000;fill-opacity:1;fill-rule:nonzero;stroke:none;stroke-width:16.06206894;stroke-linecap:butt;stroke-linejoin:miter;stroke-miterlimit:4;stroke-dasharray:none;stroke-dashoffset:0;stroke-opacity:1;color-rendering:auto;image-rendering:auto;shape-rendering:auto;text-rendering:auto;enable-background:accumulate"
     d="m 343.40625,632.03906 c 0,0 -1.119,11.83701 -3.40234,24.54883 -1.14167,6.35591 -2.58666,12.91369 -4.20899,18.04297 -1.62232,5.12928 -4.17099,8.79484 -3.82422,8.50586 -1.77738,1.48114 -3.65797,2.71779 -4.64258,6.65625 -0.4923,1.96923 -0.21214,4.90268 1.04493,6.95117 1.25707,2.04849 2.8911,3.0493 4.12695,3.63086 4.94338,2.32623 7.48258,1.43493 10.84375,1.20312 6.72235,-0.46361 14.00195,-1.96289 14.00195,-1.96289 l -3.15039,-15.75 c 0,0 -2.22602,0.39627 -5.00976,0.82618 0.63983,-1.71448 1.33373,-3.35112 1.92383,-5.2168 1.96976,-6.22779 3.4891,-13.28819 4.70312,-20.04688 2.42804,-13.51737 3.58594,-25.88281 3.58594,-25.88281 z"
     id="path971"
     inkscape:connector-curvature="0" />
  <path
     style="color:#000000;font-style:normal;font-variant:normal;font-weight:normal;font-stretch:normal;font-size:medium;line-height:normal;font-family:sans-serif;font-variant-ligatures:normal;font-variant-position:normal;font-variant-caps:normal;font-variant-numeric:normal;font-variant-alternates:normal;font-feature-settings:normal;text-indent:0;text-align:start;text-decoration:none;text-decoration-line:none;text-decoration-style:solid;text-decoration-color:#000000;letter-spacing:normal;word-spacing:normal;text-transform:none;writing-mode:lr-tb;direction:ltr;text-orientation:mixed;dominant-baseline:auto;baseline-shift:baseline;text-anchor:start;white-space:normal;shape-padding:0;clip-rule:nonzero;display:inline;overflow:visible;visibility:visible;opacity:1;isolation:auto;mix-blend-mode:normal;color-interpolation:sRGB;color-interpolation-filters:linearRGB;solid-color:#000000;solid-opacity:1;vector-effect:none;fill:#000000;fill-opacity:1;fill-rule:nonzero;stroke:none;stroke-width:15.00198746;stroke-linecap:butt;stroke-linejoin:miter;stroke-miterlimit:4;stroke-dasharray:none;stroke-dashoffset:0;stroke-opacity:1;color-rendering:auto;image-rendering:auto;shape-rendering:auto;text-rendering:auto;enable-background:accumulate"
     d="m 673.21875,6.359375 c -8.06227,0.7269961 -14.7947,6.868823 -19.46484,16.119141 l -1.28711,2.550781 0.73437,2.761719 c 7.4971,28.123582 7.14473,49.779031 13.57227,74.337894 4.52893,41.41782 12.84153,117.84151 14.43554,155.58398 -0.68671,3.23303 -12.72208,61.3183 -2.79492,129.79297 l 0.38282,2.64648 0.0156,0.0137 c 0.1451,1.86368 0.29679,5.54101 0.10938,13.07812 -0.39216,15.77064 -2.16586,46.96867 -7.67774,107.54492 -0.0132,0.10387 -3.26159,25.76146 -7.32226,54.14844 -4.06889,28.44437 -9.28566,60.45704 -11.9336,69.20117 l 14.35938,4.34961 c 3.78662,-12.50437 8.33624,-42.83702 12.42578,-71.42578 4.08953,-28.58876 7.36914,-54.49805 7.36914,-54.49805 l 0.0176,-0.13086 0.0117,-0.13086 c 5.54184,-60.87983 7.33799,-92.2736 7.74609,-108.68554 0.20405,-8.20598 0.0734,-12.63964 -0.16602,-15.37696 -0.11971,-1.36865 -0.25136,-2.30276 -0.5,-3.27539 -0.0107,-0.0419 -0.0376,-0.0984 -0.0488,-0.14062 -9.62711,-67.17645 2.87696,-125.09961 2.87696,-125.09961 l 0.20508,-0.9375 -0.0391,-0.96094 C 694.65688,218.85754 686.20782,141.81645 681.66016,100.22852 l -0.0625,-0.570317 -0.14844,-0.552734 c -5.81368,-21.723114 -5.74156,-43.297256 -13.00391,-72.085938 2.73065,-4.576646 4.79942,-5.599571 6.1211,-5.71875 1.52984,-0.13795 4.73124,1.008218 8.74218,4.84375 7.93507,7.588035 16.79075,23.567235 21.83399,36.824219 0.46375,3.202831 1.17506,6.582016 1.84765,9.943359 -4.98015,0.172804 -10.96773,1.149355 -16.90234,4.222657 l 6.89844,13.320312 c 4.887,-2.530787 9.77776,-2.605944 13.41797,-2.349609 3.31461,13.024631 6.59364,23.519181 6.69922,23.845701 3.57586,13.45041 5.15174,23.94343 7.8457,36.51953 -5.35325,-0.19047 -12.14869,0.81756 -20.80078,4.47266 l 5.83789,13.82031 c 7.86515,-3.32265 12.43688,-3.58903 15.41992,-3.3164 1.4413,0.13172 2.38488,0.49001 3.52539,0.86523 2.56152,9.5666 5.773,20.2578 11.08008,34.50391 3.83267,19.55716 15.46958,31.25622 25.96484,37.26953 10.66632,6.11131 20.69336,7.07031 20.69336,7.07031 l 2.06641,0.19922 1.00586,-0.47852 c -0.0936,0.0608 0.32402,0.0751 1.75586,0.94922 1.85544,1.13273 4.35718,3.32902 6.62109,5.73828 1.60926,1.71258 2.84295,3.32308 4.09961,4.91211 l -0.48242,0.40625 5.20117,5.76367 c 4.68513,5.19042 5.07176,15.9942 2.99219,26.26172 -1.5151,7.4805 -3.50753,12.77168 -4.71875,15.77735 -0.91386,0.16587 -1.9336,0.34098 -3.63477,0.24609 -3.87026,-0.21589 -9.56606,-1.85416 -16.70312,-8.53125 0.44438,-5.98572 0.72125,-13.34316 0.66992,-22.53125 l -15.00195,0.084 c 0.0914,16.36199 -0.90895,26.08538 -1.89454,31.99805 -2.5376,-1.50369 -5.17586,-3.1472 -8.0332,-5.10351 l -8.47461,12.3789 c 13.68573,9.37008 24.53754,13.86307 33.30274,17.10352 8.5805,3.17217 14.74746,5.15656 20.89843,9.36914 0.53251,0.56795 1.05837,1.17057 1.60743,1.65234 -6.64354,-0.28915 -16.10853,-1.61152 -30.15039,-5.60547 l -4.10547,14.42969 c 23.82049,6.7753 37.52371,7.35401 46.37304,5.55469 4.42467,-0.89966 7.66102,-2.48573 9.88477,-4.30274 0.64839,-0.52979 1.02081,-1.05613 1.49219,-1.58984 22.9183,-11.89977 34.49874,-20.47702 40.64453,-26.83008 2.28348,-2.36049 3.68262,-4.3887 4.75586,-6.31054 l -0.35742,1.60742 0.85351,-2.50977 c 0.20127,-0.40934 0.52861,-0.85906 0.6875,-1.25586 0.39124,-0.97701 0.55289,-1.87922 0.69727,-2.76758 8.14599,-23.70121 18.14167,-33.45921 27.18359,-38.79687 1.01573,-0.59961 1.99453,-0.93545 2.99414,-1.41211 -3.41286,5.85951 -4.89844,11.0625 -4.89844,11.0625 l -3.38867,11.17383 11.57227,-1.5625 c 9.64402,-1.30326 12.35432,0.98121 13.70117,2.45703 0.92791,1.01676 1.16946,1.6962 1.27148,2.11914 -0.30256,1.19205 -0.68457,2.34486 -0.93945,3.58203 -0.96473,4.68281 -1.56501,9.85122 -2.27344,15.15625 -1.36949,10.25544 -3.4208,20.84931 -7.15039,27.19727 -32.83064,27.61531 -49.77092,43.50193 -59,53.3125 -9.3493,9.93837 -11.58247,14.96274 -12.46094,16.34179 l -0.3789,0.59766 -0.26172,0.6582 c -13.09022,32.8683 -19.80222,47.09377 -25.19531,54.08008 -5.3931,6.98631 -10.4123,8.49993 -23.21094,16.92188 l -2.05469,1.35156 -0.85547,2.30469 c 0,0 -8.97941,24.19679 -17.35547,54.54492 -8.37605,30.34813 -16.42901,66.55908 -13.83984,93.17578 l 14.93164,-1.45313 c -2.14786,-22.08008 5.1803,-58.06258 13.36914,-87.73242 7.5701,-27.428 14.96674,-47.75819 16.14258,-50.96875 10.49392,-6.66744 17.76795,-9.93441 24.74805,-18.97656 7.45034,-9.65131 14.02447,-24.50598 27.01953,-57.11328 1.94192,-3.21992 2.29882,-4.91584 10.33008,-13.45313 8.60408,-9.1462 25.41244,-24.98526 58.86718,-53.08203 l 0.88282,-0.74023 0.61914,-0.97266 c 6.6077,-10.3713 8.27035,-23.13223 9.72265,-34.00781 0.72615,-5.43779 1.33691,-10.42454 2.09766,-14.11719 0.76074,-3.69264 2.08173,-5.9087 1.7793,-5.5957 2.64463,-2.73696 4.83008,-6.19825 6.78906,-10.20703 1.95898,-4.00879 4.09846,-7.86338 3.00976,-13.84961 l 0.11719,1.60156 c 0,0 0.36767,-6.41755 -2.50195,-13.18555 -1.43481,-3.38399 -3.82134,-7.10017 -7.74805,-9.83789 -1.66685,-1.16214 -3.62675,-2.03261 -5.73437,-2.6875 -0.11638,-3.51205 -1.1773,-7.60678 -3.57617,-11.95312 0.89275,-3.91754 1.35385,-10.17147 -3.4375,-16.05664 l 0.54687,0.76562 C 919.34512,203.0824 906.76705,187.72742 894.54297,172.5293 l 0.55469,0.79101 c 0,0 -0.77905,-1.11896 -1.36524,-1.71679 -0.58619,-0.59784 -1.31563,-1.22674 -2.26172,-1.91016 -1.89217,-1.36684 -4.64744,-2.95992 -8.97851,-4.83008 -8.53085,-3.68362 -23.3295,-8.45986 -49.53321,-13.86328 -11.90069,-6.61228 -21.36046,-10.32045 -30.05859,-11.05273 -8.97384,-0.7555 -16.96755,2.28754 -23.16211,7.2832 -10.19597,8.22262 -17.74527,20.60098 -29.76367,34.8125 C 738.15042,147.57428 738.50962,134.0676 731.5918,108.0625 l -0.0469,-0.18164 -0.0566,-0.17774 c 0,0 -9.07072,-28.670324 -11.70117,-47.939448 l -0.11328,-0.833984 -0.29688,-0.789063 C 713.78675,43.264168 704.91418,26.045809 693.67773,15.300781 688.05951,9.9282672 681.28102,5.6323789 673.21875,6.359375 Z M 797.97266,154.86719 c 1.10742,-0.0984 2.31219,-0.087 3.66992,0.0273 5.43093,0.45722 13.52891,3.26021 25.03515,9.74805 l 0.0117,0.006 1.01563,0.57226 0.19531,0.0391 c 5.3375,2.92445 16.7037,8.44958 29.07813,14.69726 12.74453,6.43455 26.07227,13.6495 29.4375,16.10742 4.40022,4.03754 11.38374,13.30577 17.5664,22.22266 -1.2909,1.87232 -2.25274,3.89742 -2.60937,5.87695 -0.83158,4.61573 0.10836,8.67097 1.26757,12.21289 2.31844,7.08385 6.25586,12.73047 6.25586,12.73047 l 1.51368,2.23633 1.40039,0.41016 c -2.60102,0.80981 -5.07869,1.47298 -7.25586,1.69726 -5.61369,0.57831 -9.14956,-0.0327 -14.0586,-6.23242 l -0.01,-0.01 -0.008,-0.0117 c 0,0 -5.936,-7.48118 -10.55079,-15.52539 -2.30739,-4.02211 -4.2079,-8.21977 -4.86523,-10.92383 -0.0791,-0.2739 -0.36418,-0.62188 -1.00977,-1.39453 l -9.08984,-11.9336 c -2.83406,2.15906 -4.5165,5.55587 -4.99805,8.55274 -0.0821,0.51104 -0.0191,0.97309 -0.0547,1.46875 -1.43334,0.10955 -3.18888,0.0873 -5.69532,-0.44141 -8.17939,-1.72523 -22.81634,-8.69286 -44.04882,-31.49609 l -10.97852,10.22461 c 3.74346,4.0204 7.27639,7.485 10.7168,10.71289 -0.65092,1.23939 -1.17821,2.37768 -2.49219,4.20507 -3.58606,4.98725 -10.05407,11.44258 -21.26563,17.17774 -2.14601,-0.35342 -6.62993,-1.26977 -12.71093,-4.75391 -7.22118,-4.1374 -14.72215,-11.03345 -18.07617,-24.42187 16.85252,-18.13819 26.11063,-33.54318 33.79492,-39.74024 3.05159,-2.46098 5.4961,-3.7458 8.81836,-4.04101 z m 45.9414,74.625 c 2.53192,0.94031 4.96819,1.71568 7.20508,2.1875 4.88828,1.03106 8.80011,0.85495 12.10938,0.34375 1.10225,2.43571 2.36692,4.81133 3.6875,7.11328 5.35379,9.33242 11.79086,17.3622 11.81836,17.39648 0.003,0.003 0.005,0.006 0.008,0.01 2e-5,2e-5 0.01,0.0117 0.01,0.0117 2.99373,3.77456 6.46258,6.52143 10.11524,8.44726 -9.03606,8.10771 -17.82519,20.68668 -24.52735,40.41407 l -0.24201,1.54687 c -0.0438,0.10938 -0.6185,1.36743 -2.79297,3.61523 -4.10165,4.23999 -14.17258,11.96241 -34.66211,22.79102 -1.11626,-0.6 -1.35776,-0.68751 -2.86719,-1.57031 -2.31775,-1.35556 -3.6215,-2.41088 -4.86523,-3.32617 0.23187,-1.91657 0.40244,-2.7304 0.59179,-5.88086 0.16574,-2.75755 0.25143,-5.71591 0.0723,-8.59571 -0.10405,-1.67242 -0.30154,-3.31913 -0.7207,-5.03125 1.30557,-3.13669 3.86984,-9.65053 5.77929,-19.07812 2.06463,-10.19374 3.14956,-22.87472 -2.51367,-33.39258 1.54772,-1.65563 3.14702,-3.31624 4.86719,-5.66602 3.70837,-5.06568 7.61645,-11.8991 8.14844,-19.875 0.28667,-0.17607 0.57423,-0.43588 0.86523,-0.64843 0.62908,0.0666 0.58205,0.1492 1.27734,0.17773 1.69408,0.0695 3.57342,0.10965 6.03125,-0.69336 0.18287,-0.0597 0.40901,-0.21305 0.60547,-0.29687 z m -25.85351,7.05469 c -0.88638,1.85681 -1.92405,3.70469 -3.17969,5.41992 -0.64427,0.88007 -1.182,1.36561 -1.81836,2.12695 -0.76413,-0.94181 -1.46909,-1.81349 -2.34961,-2.81641 2.5889,-1.02225 4.87894,-2.52032 6.80078,-4.16992 0.20223,-0.17358 0.34963,-0.38318 0.54688,-0.56054 z m 112.25781,32.79101 c 1.33967,-0.0635 3.68172,0.5339 7.29102,3.67578 l -0.0234,0.64453 0.14453,0.79492 c -0.25119,-1.38114 -0.38784,1.82866 -1.73047,4.57618 -0.31549,0.6456 -0.71637,1.23077 -1.08984,1.86914 -2.95175,-2.4656 -6.98808,-4.31415 -12.07032,-5.22071 0.69848,-1.10979 1.42219,-2.21857 2.23633,-3.12695 1.98294,-2.21247 3.68382,-3.139 5.24219,-3.21289 z m -125.74805,48.42578 c -0.002,0.63554 7.7e-4,1.22769 -0.0215,1.89453 -1.50156,-0.67085 -3.02479,-1.27632 -4.52735,-1.86132 0.22749,0.0178 0.49527,0.10081 0.71875,0.11328 1.37736,0.0768 2.59629,-0.0478 3.83008,-0.14649 z"
     id="path8777-5"
     inkscape:connector-curvature="0"
     sodipodi:nodetypes="sccccccccccsccscccsscccccccccscccccccccccccsccccsccccccccccccsccccsccscccccscccccccccscccscccsccscscscccsccsccccccccccccscsscccccccssccccccscccccccccccccccccccccccccscccccccccccccccccccscccccccccccccccccccccscccccccc" />
  <path
     style="color:#000000;font-style:normal;font-variant:normal;font-weight:normal;font-stretch:normal;font-size:medium;line-height:normal;font-family:sans-serif;font-variant-ligatures:normal;font-variant-position:normal;font-variant-caps:normal;font-variant-numeric:normal;font-variant-alternates:normal;font-feature-settings:normal;text-indent:0;text-align:start;text-decoration:none;text-decoration-line:none;text-decoration-style:solid;text-decoration-color:#000000;letter-spacing:normal;word-spacing:normal;text-transform:none;writing-mode:lr-tb;direction:ltr;text-orientation:mixed;dominant-baseline:auto;baseline-shift:baseline;text-anchor:start;white-space:normal;shape-padding:0;clip-rule:nonzero;display:inline;overflow:visible;visibility:visible;opacity:1;isolation:auto;mix-blend-mode:normal;color-interpolation:sRGB;color-interpolation-filters:linearRGB;solid-color:#000000;solid-opacity:1;vector-effect:none;fill:#000000;fill-opacity:1;fill-rule:nonzero;stroke:none;stroke-width:31.80353165;stroke-linecap:butt;stroke-linejoin:miter;stroke-miterlimit:4;stroke-dasharray:none;stroke-dashoffset:0;stroke-opacity:1;color-rendering:auto;image-rendering:auto;shape-rendering:auto;text-rendering:auto;enable-background:accumulate"
     d="m 1183.345,229.06086 c -30.5564,-0.009 -58.728,3.04312 -84.5549,8.77116 l 4.057,14.66098 -14.3893,2.72414 -4.0486,-13.85306 -4.9936,1.38661 5.9948,12.9624 -13.0503,4.38051 -6.2701,-13.27798 c -60.8115,20.62976 -106.98539,57.99995 -137.92339,105.0287 -48.43092,73.61968 -61.94476,169.74927 -51.35976,264.90473 10.58499,95.15548 45.31638,189.75791 96.59015,261.60065 51.2736,71.84275 120.3046,121.888 198.823,121.42024 78.4811,-0.4675 146.9498,-51.03851 197.9208,-123.12372 50.9708,-72.08522 85.636,-166.6499 97.148,-261.569 11.512,-94.91909 -0.019,-190.5419 -44.7438,-263.87 -44.7195,-73.32077 -123.9626,-122.56078 -239.2,-122.14636 z m 0.02,31.80233 h 0.031 0.032 c 106.4305,-0.39182 172.445,42.10682 211.966,106.90406 39.521,64.79723 51.2126,153.68323 40.3218,243.48158 -10.891,89.79836 -44.2563,180.15988 -91.5431,247.03497 -47.2867,66.87508 -107.303,109.29755 -172.1409,109.68384 -64.8009,0.38603 -125.2385,-41.52407 -172.74835,-108.09312 -47.50998,-66.56907 -80.8784,-156.83502 -90.86836,-246.64125 -9.98995,-89.80625 3.44413,-178.73271 46.32054,-243.90895 27.78493,-42.23573 68.20837,-75.6661 123.87747,-93.69516 l -6.2531,-15.53556 13.0503,-4.38051 6.3313,15.23934 v 0 l -3.2839,-15.73529 14.3893,-2.72414 3.5022,15.9423 c 23.2056,-4.95043 48.8059,-7.58233 77.0151,-7.57215 z"
     id="path10-9-0"
     inkscape:connector-curvature="0"
     sodipodi:nodetypes="cccccccccsssssscccccsscsssscccccccccc" />
  <path
     style="color:#000000;font-style:normal;font-variant:normal;font-weight:normal;font-stretch:normal;font-size:medium;line-height:normal;font-family:sans-serif;font-variant-ligatures:normal;font-variant-position:normal;font-variant-caps:normal;font-variant-numeric:normal;font-variant-alternates:normal;font-feature-settings:normal;text-indent:0;text-align:start;text-decoration:none;text-decoration-line:none;text-decoration-style:solid;text-decoration-color:#000000;letter-spacing:normal;word-spacing:normal;text-transform:none;writing-mode:lr-tb;direction:ltr;text-orientation:mixed;dominant-baseline:auto;baseline-shift:baseline;text-anchor:start;white-space:normal;shape-padding:0;clip-rule:nonzero;display:inline;overflow:visible;visibility:visible;opacity:1;isolation:auto;mix-blend-mode:normal;color-interpolation:sRGB;color-interpolation-filters:linearRGB;solid-color:#000000;solid-opacity:1;vector-effect:none;fill:#000000;fill-opacity:1;fill-rule:nonzero;stroke:none;stroke-width:15.90176582;stroke-linecap:butt;stroke-linejoin:miter;stroke-miterlimit:4;stroke-dasharray:none;stroke-dashoffset:0;stroke-opacity:1;color-rendering:auto;image-rendering:auto;shape-rendering:auto;text-rendering:auto;enable-background:accumulate"
     d="m 1166.3317,612.08919 c 0,0 -1.7929,17.69921 -4.7597,36.29102 -1.4834,9.2959 -3.2693,18.81471 -5.1895,26.21093 -0.9601,3.69812 -1.9665,6.87265 -2.8672,9.0625 -0.8949,2.17601 -2.0414,3.31322 -1.2363,2.64454 -1.7575,1.46364 -3.6164,2.69026 -4.5899,6.58398 -0.4874,1.94955 -0.2074,4.85472 1.0372,6.88281 1.2445,2.0281 2.8604,3.01995 4.0839,3.59571 4.8941,2.30303 7.4068,1.41895 10.7344,1.18945 6.6552,-0.45901 13.8633,-1.94336 13.8633,-1.94336 l -3.1191,-15.5918 c 0,0 -2.4931,0.43321 -5.4922,0.88477 1.0708,-2.85478 2.0776,-5.85005 2.9765,-9.3125 2.1458,-8.26543 3.9735,-18.1228 5.502,-27.70117 3.0569,-19.15676 4.8789,-37.19727 4.8789,-37.19727 z"
     id="path971-5"
     inkscape:connector-curvature="0" />
  <path
     style="color:#000000;font-style:normal;font-variant:normal;font-weight:normal;font-stretch:normal;font-size:medium;line-height:normal;font-family:sans-serif;font-variant-ligatures:normal;font-variant-position:normal;font-variant-caps:normal;font-variant-numeric:normal;font-variant-alternates:normal;font-feature-settings:normal;text-indent:0;text-align:start;text-decoration:none;text-decoration-line:none;text-decoration-style:solid;text-decoration-color:#000000;letter-spacing:normal;word-spacing:normal;text-transform:none;writing-mode:lr-tb;direction:ltr;text-orientation:mixed;dominant-baseline:auto;baseline-shift:baseline;text-anchor:start;white-space:normal;shape-padding:0;clip-rule:nonzero;display:inline;overflow:visible;visibility:visible;opacity:1;isolation:auto;mix-blend-mode:normal;color-interpolation:sRGB;color-interpolation-filters:linearRGB;solid-color:#000000;solid-opacity:1;vector-effect:none;fill:#000000;fill-opacity:1;fill-rule:nonzero;stroke:none;stroke-width:15.00198746;stroke-linecap:butt;stroke-linejoin:miter;stroke-miterlimit:4;stroke-dasharray:none;stroke-dashoffset:0;stroke-opacity:1;color-rendering:auto;image-rendering:auto;shape-rendering:auto;text-rendering:auto;enable-background:accumulate"
     d="M 987.6582,0.18554688 921.71484,102.07812 990.45898,221.14648 v -69.42187 c 36.06362,19.14849 63.99422,66.06451 82.36522,110.65039 20.0536,48.66936 29.1035,93.36914 29.1035,93.36914 l 14.836,-1.99609 c -8.3142,-121.9422 -40.3691,-190.63811 -71.0996,-228.91016 -15.3653,-19.13602 -30.3694,-30.619088 -41.6758,-37.314452 -5.62466,-3.330752 -10.47514,-5.510193 -13.93947,-6.865235 z m -13.56445,48.57226512 1.28516,43.244141 5.56836,1.34375 c 0,0 5.54488,1.252102 15.39648,7.085937 9.85155,5.83384 23.40255,16.09099 37.62105,33.79883 20.1708,25.12076 41.7064,65.45584 55.459,129.43359 -0.926,-2.34713 -1.7517,-4.63529 -2.7285,-7.00586 -20.6806,-50.1912 -52.4289,-105.74103 -101.15038,-123.63867 l -10.08789,-3.70508 v 35.8418 l -36.16015,-62.63086 z"
     id="path6638"
     inkscape:connector-curvature="0" />
  <path
     style="color:#000000;font-style:normal;font-variant:normal;font-weight:normal;font-stretch:normal;font-size:medium;line-height:normal;font-family:sans-serif;font-variant-ligatures:normal;font-variant-position:normal;font-variant-caps:normal;font-variant-numeric:normal;font-variant-alternates:normal;font-feature-settings:normal;text-indent:0;text-align:start;text-decoration:none;text-decoration-line:none;text-decoration-style:solid;text-decoration-color:#000000;letter-spacing:normal;word-spacing:normal;text-transform:none;writing-mode:lr-tb;direction:ltr;text-orientation:mixed;dominant-baseline:auto;baseline-shift:baseline;text-anchor:start;white-space:normal;shape-padding:0;clip-rule:nonzero;display:inline;overflow:visible;visibility:visible;opacity:1;isolation:auto;mix-blend-mode:normal;color-interpolation:sRGB;color-interpolation-filters:linearRGB;solid-color:#000000;solid-opacity:1;vector-effect:none;fill:#000000;fill-opacity:1;fill-rule:nonzero;stroke:none;stroke-width:15.89689159;stroke-linecap:butt;stroke-linejoin:miter;stroke-miterlimit:4;stroke-dasharray:none;stroke-dashoffset:0;stroke-opacity:1;color-rendering:auto;image-rendering:auto;shape-rendering:auto;text-rendering:auto;enable-background:accumulate"
     d="m 247.0491,522.27065 c -21.4307,-0.77077 -43.8426,7.84751 -70.16266,27.28827 l 9.44496,12.78738 c 24.6829,-18.23156 43.323,-24.79621 60.1473,-24.19112 l 7.15559,-15.35444 c -2.1741,-0.27199 -4.36791,-0.45035 -6.58519,-0.53009 z"
     id="path59-1-8-1-7"
     inkscape:connector-curvature="0"
     sodipodi:nodetypes="cccccc" />
  <path
     inkscape:connector-curvature="0"
     id="path59-1-8-1-2"
     d="m 1277.0452,525.43619 c -21.4445,-0.77128 -43.8718,7.85267 -70.2091,27.30625 l 9.4517,12.7958 c 24.6987,-18.24356 43.3509,-24.81255 60.1864,-24.20705 16.8356,0.60545 33.0664,8.56089 52.4535,22.46797 l 9.2717,-12.92449 c -20.4593,-14.67592 -39.7088,-24.66733 -61.1542,-25.43848 z"
     style="color:#000000;font-style:normal;font-variant:normal;font-weight:normal;font-stretch:normal;font-size:medium;line-height:normal;font-family:sans-serif;font-variant-ligatures:normal;font-variant-position:normal;font-variant-caps:normal;font-variant-numeric:normal;font-variant-alternates:normal;font-feature-settings:normal;text-indent:0;text-align:start;text-decoration:none;text-decoration-line:none;text-decoration-style:solid;text-decoration-color:#000000;letter-spacing:normal;word-spacing:normal;text-transform:none;writing-mode:lr-tb;direction:ltr;text-orientation:mixed;dominant-baseline:auto;baseline-shift:baseline;text-anchor:start;white-space:normal;shape-padding:0;clip-rule:nonzero;display:inline;overflow:visible;visibility:visible;opacity:1;isolation:auto;mix-blend-mode:normal;color-interpolation:sRGB;color-interpolation-filters:linearRGB;solid-color:#000000;solid-opacity:1;vector-effect:none;fill:#000000;fill-opacity:1;fill-rule:nonzero;stroke:none;stroke-width:15.9073782;stroke-linecap:butt;stroke-linejoin:miter;stroke-miterlimit:4;stroke-dasharray:none;stroke-dashoffset:0;stroke-opacity:1;color-rendering:auto;image-rendering:auto;shape-rendering:auto;text-rendering:auto;enable-background:accumulate" />
  <path
     inkscape:connector-curvature="0"
     id="path59-1-8-3-29-8"
     d="m 1070.4599,525.43619 c -21.4443,-0.77119 -43.8715,7.85536 -70.2089,27.30886 l 9.4506,12.79575 c 24.6996,-18.2436 43.3499,-24.81246 60.1855,-24.20705 16.8357,0.6056 33.0685,8.56095 52.4557,22.46796 l 9.2718,-12.92447 c -20.4594,-14.67587 -39.709,-24.6699 -61.1547,-25.44105 z"
     style="color:#000000;font-style:normal;font-variant:normal;font-weight:normal;font-stretch:normal;font-size:medium;line-height:normal;font-family:sans-serif;font-variant-ligatures:normal;font-variant-position:normal;font-variant-caps:normal;font-variant-numeric:normal;font-variant-alternates:normal;font-feature-settings:normal;text-indent:0;text-align:start;text-decoration:none;text-decoration-line:none;text-decoration-style:solid;text-decoration-color:#000000;letter-spacing:normal;word-spacing:normal;text-transform:none;writing-mode:lr-tb;direction:ltr;text-orientation:mixed;dominant-baseline:auto;baseline-shift:baseline;text-anchor:start;white-space:normal;shape-padding:0;clip-rule:nonzero;display:inline;overflow:visible;visibility:visible;opacity:1;isolation:auto;mix-blend-mode:normal;color-interpolation:sRGB;color-interpolation-filters:linearRGB;solid-color:#000000;solid-opacity:1;vector-effect:none;fill:#000000;fill-opacity:1;fill-rule:nonzero;stroke:none;stroke-width:15.9073782;stroke-linecap:butt;stroke-linejoin:miter;stroke-miterlimit:4;stroke-dasharray:none;stroke-dashoffset:0;stroke-opacity:1;color-rendering:auto;image-rendering:auto;shape-rendering:auto;text-rendering:auto;enable-background:accumulate" />
  <path
     inkscape:connector-curvature="0"
     id="path29-2-7-1"
     d="m 1286.1307,848.78518 c -60.5571,-59.6147 -112.6871,-61.9807 -152.4718,-49.41488 -19.8926,6.28287 -36.6698,16.61615 -49.1403,26.10904 -12.471,9.49271 -20.2806,17.77734 -23.5487,21.01528 l -11.195,-11.30191 c 2.5184,-2.49543 11.6051,-12.09232 25.1076,-22.37086 13.5035,-10.27855 31.7811,-21.60692 53.9867,-28.62035 44.4118,-14.02719 104.6621,-9.52067 168.421,53.24774 z"
     style="color:#000000;font-style:normal;font-variant:normal;font-weight:normal;font-stretch:normal;font-size:medium;line-height:normal;font-family:sans-serif;font-variant-ligatures:normal;font-variant-position:normal;font-variant-caps:normal;font-variant-numeric:normal;font-variant-alternates:normal;font-feature-settings:normal;text-indent:0;text-align:start;text-decoration:none;text-decoration-line:none;text-decoration-style:solid;text-decoration-color:#000000;letter-spacing:normal;word-spacing:normal;text-transform:none;writing-mode:lr-tb;direction:ltr;text-orientation:mixed;dominant-baseline:auto;baseline-shift:baseline;text-anchor:start;white-space:normal;shape-padding:0;clip-rule:nonzero;display:inline;overflow:visible;visibility:visible;opacity:1;isolation:auto;mix-blend-mode:normal;color-interpolation:sRGB;color-interpolation-filters:linearRGB;solid-color:#000000;solid-opacity:1;vector-effect:none;fill:#000000;fill-opacity:1;fill-rule:nonzero;stroke:none;stroke-width:15.9073782;stroke-linecap:butt;stroke-linejoin:miter;stroke-miterlimit:4;stroke-dasharray:none;stroke-dashoffset:0;stroke-opacity:1;color-rendering:auto;image-rendering:auto;shape-rendering:auto;text-rendering:auto;enable-background:accumulate" />
  <path
     inkscape:connector-curvature="0"
     id="path1039-2-2-0"
     d="m 982.33532,422.9583 -8.9971,17.57114 c 0,0 39.81328,20.38314 80.01218,40.77251 20.0996,10.19466 40.2925,20.39126 55.6811,28.05448 7.6949,3.83161 14.182,7.0276 18.9025,9.29573 2.3608,1.13397 4.2691,2.03034 5.7472,2.69362 0.7391,0.33176 1.3554,0.60171 1.9892,0.85259 0.3163,0.12574 0.6239,0.24584 1.0904,0.39588 0.4664,0.15014 0.428,0.53199 3.2764,0.53199 v -19.74016 c 2.7561,0 2.5463,0.34365 2.7699,0.41541 0.2226,0.0713 0.2131,0.0743 0.1403,0.0459 -0.1447,-0.0575 -0.5919,-0.24469 -1.183,-0.51009 -1.183,-0.53069 -3.0019,-1.38515 -5.2807,-2.47985 -4.5576,-2.18968 -11,-5.36163 -18.6523,-9.17189 -15.3031,-7.62051 -35.475,-17.80289 -55.5522,-27.98642 -40.1541,-20.36715 -79.94418,-40.74097 -79.94418,-40.74097 z"
     style="color:#000000;font-style:normal;font-variant:normal;font-weight:normal;font-stretch:normal;font-size:medium;line-height:normal;font-family:sans-serif;font-variant-ligatures:normal;font-variant-position:normal;font-variant-caps:normal;font-variant-numeric:normal;font-variant-alternates:normal;font-feature-settings:normal;text-indent:0;text-align:start;text-decoration:none;text-decoration-line:none;text-decoration-style:solid;text-decoration-color:#000000;letter-spacing:normal;word-spacing:normal;text-transform:none;writing-mode:lr-tb;direction:ltr;text-orientation:mixed;dominant-baseline:auto;baseline-shift:baseline;text-anchor:start;white-space:normal;shape-padding:0;clip-rule:nonzero;display:inline;overflow:visible;visibility:visible;opacity:1;isolation:auto;mix-blend-mode:normal;color-interpolation:sRGB;color-interpolation-filters:linearRGB;solid-color:#000000;solid-opacity:1;vector-effect:none;fill:#000000;fill-opacity:1;fill-rule:nonzero;stroke:none;stroke-width:19.73986244;stroke-linecap:butt;stroke-linejoin:miter;stroke-miterlimit:4;stroke-dasharray:none;stroke-dashoffset:0;stroke-opacity:1;color-rendering:auto;image-rendering:auto;shape-rendering:auto;text-rendering:auto;enable-background:accumulate" />
  <path
     inkscape:connector-curvature="0"
     id="path1039-7-0-6-3"
     d="m 1356.6045,422.9583 c 0,0 -39.7932,20.37388 -79.9471,40.74104 -20.0762,10.18344 -40.2468,20.36584 -55.55,27.9864 -7.6512,3.81033 -14.0938,6.98212 -18.6525,9.17182 -2.2788,1.09475 -4.0974,1.94924 -5.2805,2.4799 -0.5912,0.26537 -1.0372,0.45259 -1.1818,0.51002 -0.075,0.0291 -0.086,0.0256 0.1402,-0.046 0.2226,-0.0716 0.015,-0.41531 2.7685,-0.41531 v 19.74014 c 2.8486,0 2.8084,-0.38193 3.2748,-0.53197 0.4662,-0.14984 0.7762,-0.2705 1.0924,-0.39593 0.6338,-0.25095 1.2483,-0.52081 1.9871,-0.8525 1.4782,-0.66334 3.3863,-1.55975 5.7471,-2.69371 4.7217,-2.2681 11.2098,-5.46397 18.9046,-9.29572 15.3896,-7.66321 35.5826,-17.85981 55.6822,-28.05445 40.1979,-20.38948 80.0102,-40.77263 80.0102,-40.77263 z"
     style="color:#000000;font-style:normal;font-variant:normal;font-weight:normal;font-stretch:normal;font-size:medium;line-height:normal;font-family:sans-serif;font-variant-ligatures:normal;font-variant-position:normal;font-variant-caps:normal;font-variant-numeric:normal;font-variant-alternates:normal;font-feature-settings:normal;text-indent:0;text-align:start;text-decoration:none;text-decoration-line:none;text-decoration-style:solid;text-decoration-color:#000000;letter-spacing:normal;word-spacing:normal;text-transform:none;writing-mode:lr-tb;direction:ltr;text-orientation:mixed;dominant-baseline:auto;baseline-shift:baseline;text-anchor:start;white-space:normal;shape-padding:0;clip-rule:nonzero;display:inline;overflow:visible;visibility:visible;opacity:1;isolation:auto;mix-blend-mode:normal;color-interpolation:sRGB;color-interpolation-filters:linearRGB;solid-color:#000000;solid-opacity:1;vector-effect:none;fill:#000000;fill-opacity:1;fill-rule:nonzero;stroke:none;stroke-width:19.73986244;stroke-linecap:butt;stroke-linejoin:miter;stroke-miterlimit:4;stroke-dasharray:none;stroke-dashoffset:0;stroke-opacity:1;color-rendering:auto;image-rendering:auto;shape-rendering:auto;text-rendering:auto;enable-background:accumulate" />
  <path
     inkscape:connector-curvature="0"
     id="path59-1-8-1-2-1"
     d="m 456.7727,522.1645 c -21.4445,-0.77128 -43.8718,7.85267 -70.2091,27.30625 l 9.4517,12.7958 c 24.6987,-18.24356 43.3509,-24.81255 60.1864,-24.20705 16.8356,0.60545 33.0664,8.56089 52.4535,22.46797 l 9.2717,-12.92449 C 497.4676,532.92706 478.2181,522.93565 456.7727,522.1645 Z"
     style="color:#000000;font-style:normal;font-variant:normal;font-weight:normal;font-stretch:normal;font-size:medium;line-height:normal;font-family:sans-serif;font-variant-ligatures:normal;font-variant-position:normal;font-variant-caps:normal;font-variant-numeric:normal;font-variant-alternates:normal;font-feature-settings:normal;text-indent:0;text-align:start;text-decoration:none;text-decoration-line:none;text-decoration-style:solid;text-decoration-color:#000000;letter-spacing:normal;word-spacing:normal;text-transform:none;writing-mode:lr-tb;direction:ltr;text-orientation:mixed;dominant-baseline:auto;baseline-shift:baseline;text-anchor:start;white-space:normal;shape-padding:0;clip-rule:nonzero;display:inline;overflow:visible;visibility:visible;opacity:1;isolation:auto;mix-blend-mode:normal;color-interpolation:sRGB;color-interpolation-filters:linearRGB;solid-color:#000000;solid-opacity:1;vector-effect:none;fill:#000000;fill-opacity:1;fill-rule:nonzero;stroke:none;stroke-width:15.9073782;stroke-linecap:butt;stroke-linejoin:miter;stroke-miterlimit:4;stroke-dasharray:none;stroke-dashoffset:0;stroke-opacity:1;color-rendering:auto;image-rendering:auto;shape-rendering:auto;text-rendering:auto;enable-background:accumulate" />
  <path
     inkscape:connector-curvature="0"
     id="path29-2-7-1-5"
     d="m 465.8582,845.51349 c -25.5602,-25.16242 -49.61906,-40.1257 -71.88196,-48.07191 l 10.97918,-12.39434 c 23.00691,9.12441 47.26933,24.72254 72.06228,49.13035 z"
     style="color:#000000;font-style:normal;font-variant:normal;font-weight:normal;font-stretch:normal;font-size:medium;line-height:normal;font-family:sans-serif;font-variant-ligatures:normal;font-variant-position:normal;font-variant-caps:normal;font-variant-numeric:normal;font-variant-alternates:normal;font-feature-settings:normal;text-indent:0;text-align:start;text-decoration:none;text-decoration-line:none;text-decoration-style:solid;text-decoration-color:#000000;letter-spacing:normal;word-spacing:normal;text-transform:none;writing-mode:lr-tb;direction:ltr;text-orientation:mixed;dominant-baseline:auto;baseline-shift:baseline;text-anchor:start;white-space:normal;shape-padding:0;clip-rule:nonzero;display:inline;overflow:visible;visibility:visible;opacity:1;isolation:auto;mix-blend-mode:normal;color-interpolation:sRGB;color-interpolation-filters:linearRGB;solid-color:#000000;solid-opacity:1;vector-effect:none;fill:#000000;fill-opacity:1;fill-rule:nonzero;stroke:none;stroke-width:15.9073782;stroke-linecap:butt;stroke-linejoin:miter;stroke-miterlimit:4;stroke-dasharray:none;stroke-dashoffset:0;stroke-opacity:1;color-rendering:auto;image-rendering:auto;shape-rendering:auto;text-rendering:auto;enable-background:accumulate"
     sodipodi:nodetypes="ccccc" />
  <path
     inkscape:connector-curvature="0"
     id="path1039-7-0-6-3-7"
     d="m 536.33198,419.68661 c 0,0 -39.7932,20.37388 -79.9471,40.74104 -20.0762,10.18344 -40.2468,20.36584 -55.55,27.9864 -7.6512,3.81033 -14.0938,6.98212 -18.6525,9.17182 -2.2788,1.09475 -4.0974,1.94924 -5.2805,2.4799 -0.5912,0.26537 -1.0372,0.45259 -1.1818,0.51002 -0.075,0.0291 -0.086,0.0256 0.1402,-0.046 0.2226,-0.0716 0.015,-0.41531 2.7685,-0.41531 v 19.74014 c 2.8486,0 2.8084,-0.38193 3.2748,-0.53197 0.4662,-0.14984 0.7762,-0.2705 1.0924,-0.39593 0.6338,-0.25095 1.2483,-0.52081 1.9871,-0.8525 1.4782,-0.66334 3.3863,-1.55975 5.7471,-2.69371 4.7217,-2.2681 11.2098,-5.46397 18.9046,-9.29572 15.3896,-7.66321 35.5826,-17.85981 55.6822,-28.05445 40.1979,-20.38948 80.0102,-40.77263 80.0102,-40.77263 z"
     style="color:#000000;font-style:normal;font-variant:normal;font-weight:normal;font-stretch:normal;font-size:medium;line-height:normal;font-family:sans-serif;font-variant-ligatures:normal;font-variant-position:normal;font-variant-caps:normal;font-variant-numeric:normal;font-variant-alternates:normal;font-feature-settings:normal;text-indent:0;text-align:start;text-decoration:none;text-decoration-line:none;text-decoration-style:solid;text-decoration-color:#000000;letter-spacing:normal;word-spacing:normal;text-transform:none;writing-mode:lr-tb;direction:ltr;text-orientation:mixed;dominant-baseline:auto;baseline-shift:baseline;text-anchor:start;white-space:normal;shape-padding:0;clip-rule:nonzero;display:inline;overflow:visible;visibility:visible;opacity:1;isolation:auto;mix-blend-mode:normal;color-interpolation:sRGB;color-interpolation-filters:linearRGB;solid-color:#000000;solid-opacity:1;vector-effect:none;fill:#000000;fill-opacity:1;fill-rule:nonzero;stroke:none;stroke-width:19.73986244;stroke-linecap:butt;stroke-linejoin:miter;stroke-miterlimit:4;stroke-dasharray:none;stroke-dashoffset:0;stroke-opacity:1;color-rendering:auto;image-rendering:auto;shape-rendering:auto;text-rendering:auto;enable-background:accumulate" />
  <path
     inkscape:connector-curvature="0"
     id="path1039-7-0-6-3-7-8"
     d="m 161.52861,419.68661 c 0,0 39.7932,20.37388 79.9471,40.74104 13.4319,6.81319 26.90606,13.62592 38.93652,19.67127 l -7.98057,18.08223 c -12.28841,-6.17344 -26.11017,-13.16259 -39.88805,-20.15081 -40.1979,-20.38948 -80.0102,-40.77263 -80.0102,-40.77263 z"
     style="color:#000000;font-style:normal;font-variant:normal;font-weight:normal;font-stretch:normal;font-size:medium;line-height:normal;font-family:sans-serif;font-variant-ligatures:normal;font-variant-position:normal;font-variant-caps:normal;font-variant-numeric:normal;font-variant-alternates:normal;font-feature-settings:normal;text-indent:0;text-align:start;text-decoration:none;text-decoration-line:none;text-decoration-style:solid;text-decoration-color:#000000;letter-spacing:normal;word-spacing:normal;text-transform:none;writing-mode:lr-tb;direction:ltr;text-orientation:mixed;dominant-baseline:auto;baseline-shift:baseline;text-anchor:start;white-space:normal;shape-padding:0;clip-rule:nonzero;display:inline;overflow:visible;visibility:visible;opacity:1;isolation:auto;mix-blend-mode:normal;color-interpolation:sRGB;color-interpolation-filters:linearRGB;solid-color:#000000;solid-opacity:1;vector-effect:none;fill:#000000;fill-opacity:1;fill-rule:nonzero;stroke:none;stroke-width:19.73986244;stroke-linecap:butt;stroke-linejoin:miter;stroke-miterlimit:4;stroke-dasharray:none;stroke-dashoffset:0;stroke-opacity:1;color-rendering:auto;image-rendering:auto;shape-rendering:auto;text-rendering:auto;enable-background:accumulate"
     sodipodi:nodetypes="ccccccc" />
</svg>
