<?xml version="1.0" encoding="UTF-8" standalone="no"?>
<!-- Created with Inkscape (http://www.inkscape.org/) -->

<svg
   xmlns:dc="http://purl.org/dc/elements/1.1/"
   xmlns:cc="http://creativecommons.org/ns#"
   xmlns:rdf="http://www.w3.org/1999/02/22-rdf-syntax-ns#"
   xmlns:svg="http://www.w3.org/2000/svg"
   xmlns="http://www.w3.org/2000/svg"
   xmlns:sodipodi="http://sodipodi.sourceforge.net/DTD/sodipodi-0.dtd"
   xmlns:inkscape="http://www.inkscape.org/namespaces/inkscape"
   width="1000"
   height="1000"
   viewBox="0 0 1000 1000"
   version="1.1"
   id="svg58798"
   inkscape:version="0.92.4 (5da689c313, 2019-01-14)"
   sodipodi:docname="Rato.svg">
  <defs
     id="defs58792" />
  <sodipodi:namedview
     id="base"
     pagecolor="#ffffff"
     bordercolor="#666666"
     borderopacity="1.0"
     inkscape:pageopacity="0.0"
     inkscape:pageshadow="2"
     inkscape:zoom="0.35355339"
     inkscape:cx="512.96714"
     inkscape:cy="199.26157"
     inkscape:document-units="px"
     inkscape:current-layer="layer1"
     showgrid="false"
     units="px"
     inkscape:window-width="1366"
     inkscape:window-height="715"
     inkscape:window-x="-8"
     inkscape:window-y="-8"
     inkscape:window-maximized="1"
     inkscape:snap-global="true" />
  <metadata
     id="metadata58795">
    <rdf:RDF>
      <cc:Work
         rdf:about="">
        <dc:format>image/svg+xml</dc:format>
        <dc:type
           rdf:resource="http://purl.org/dc/dcmitype/StillImage" />
        <dc:title></dc:title>
      </cc:Work>
    </rdf:RDF>
  </metadata>
  <g
     inkscape:label="Camada 1"
     inkscape:groupmode="layer"
     id="layer1"
     transform="translate(0,-32.41665)">
    <path
       style="color:#000000;font-style:normal;font-variant:normal;font-weight:normal;font-stretch:normal;font-size:medium;line-height:normal;font-family:sans-serif;font-variant-ligatures:normal;font-variant-position:normal;font-variant-caps:normal;font-variant-numeric:normal;font-variant-alternates:normal;font-feature-settings:normal;text-indent:0;text-align:start;text-decoration:none;text-decoration-line:none;text-decoration-style:solid;text-decoration-color:#000000;letter-spacing:normal;word-spacing:normal;text-transform:none;writing-mode:lr-tb;direction:ltr;text-orientation:mixed;dominant-baseline:auto;baseline-shift:baseline;text-anchor:start;white-space:normal;shape-padding:0;clip-rule:nonzero;display:inline;overflow:visible;visibility:visible;opacity:1;isolation:auto;mix-blend-mode:normal;color-interpolation:sRGB;color-interpolation-filters:linearRGB;solid-color:#000000;solid-opacity:1;vector-effect:none;fill:#000000;fill-opacity:1;fill-rule:nonzero;stroke:none;stroke-width:38.60518646;stroke-linecap:butt;stroke-linejoin:miter;stroke-miterlimit:4;stroke-dasharray:none;stroke-dashoffset:0;stroke-opacity:1;color-rendering:auto;image-rendering:auto;shape-rendering:auto;text-rendering:auto;enable-background:accumulate"
       d="M 673.11063,32.471532 C 524.36221,32.438276 422.17572,92.168143 363.39727,181.5171 c -58.7886,89.36438 -75.19569,206.0525 -62.34692,321.55855 2.75674,24.78222 6.86276,49.53342 12.22688,73.9874 l 21.69959,8.57139 70.86034,179.19418 c -5.87937,2.80542 -10.82351,5.88112 -16.32982,11.06948 9.03697,15.56372 18.6472,30.51038 28.79085,44.72325 62.23953,87.20742 146.03672,147.95623 241.34723,147.38843 95.2657,-0.56754 178.37577,-61.95257 240.24752,-149.45424 C 961.76465,731.05376 1003.843,616.26599 1017.817,501.04697 1031.7909,385.82791 1017.7905,269.75471 963.5031,180.74426 909.22404,91.750163 813.04832,31.978741 673.18495,32.471532 Z m 0.0593,38.604562 h 0.0443 0.0378 c 129.19247,-0.4756 209.32123,51.114096 257.29442,129.769296 47.97319,78.65517 62.16883,186.54647 48.94868,295.54971 -13.22017,109.00312 -53.72489,218.69719 -111.12471,299.87455 -57.39977,81.17731 -130.25072,132.66669 -208.95509,133.13561 -78.65942,0.4685 -152.02004,-50.40499 -209.6908,-131.21095 -9.57038,-13.40949 -18.66791,-27.61102 -27.2416,-42.47055 -7.4027,5.68833 -14.11693,7.97508 -16.64628,9.10486 L 334.97686,585.63444 c 7.29863,2.62643 14.56573,5.28441 21.97627,7.79881 -8.06334,-31.1057 -13.99836,-62.88787 -17.52855,-94.6231 C 327.29813,389.7975 343.6021,281.8481 395.64826,202.73288 447.69448,123.61766 534.44046,71.02597 673.17009,71.076094 Z"
       id="path10-9-5"
       inkscape:connector-curvature="0"
       sodipodi:nodetypes="cssccccssssccccccsssscccccsscc" />
    <path
       style="color:#000000;font-style:normal;font-variant:normal;font-weight:normal;font-stretch:normal;font-size:medium;line-height:normal;font-family:sans-serif;font-variant-ligatures:normal;font-variant-position:normal;font-variant-caps:normal;font-variant-numeric:normal;font-variant-alternates:normal;font-feature-settings:normal;text-indent:0;text-align:start;text-decoration:none;text-decoration-line:none;text-decoration-style:solid;text-decoration-color:#000000;letter-spacing:normal;word-spacing:normal;text-transform:none;writing-mode:lr-tb;direction:ltr;text-orientation:mixed;dominant-baseline:auto;baseline-shift:baseline;text-anchor:start;white-space:normal;shape-padding:0;clip-rule:nonzero;display:inline;overflow:visible;visibility:visible;opacity:1;isolation:auto;mix-blend-mode:normal;color-interpolation:sRGB;color-interpolation-filters:linearRGB;solid-color:#000000;solid-opacity:1;vector-effect:none;fill:#000000;fill-opacity:1;fill-rule:nonzero;stroke:none;stroke-width:19.30259323;stroke-linecap:butt;stroke-linejoin:miter;stroke-miterlimit:4;stroke-dasharray:none;stroke-dashoffset:0;stroke-opacity:1;color-rendering:auto;image-rendering:auto;shape-rendering:auto;text-rendering:auto;enable-background:accumulate"
       d="m 652.49406,497.41788 c 0,0 -2.17222,21.48602 -5.77349,44.05405 -1.80064,11.28399 -3.9668,22.83506 -6.29764,31.81309 -1.16543,4.48903 -2.3915,8.3498 -3.48477,11.00798 -1.09327,2.65822 -2.50542,4.04191 -1.49134,3.19684 -2.13597,1.77992 -4.39823,3.2701 -5.58151,8.00308 -0.59166,2.36652 -0.24834,5.88833 1.26247,8.35014 1.51067,2.46181 3.46879,3.6644 4.95397,4.36329 5.94076,2.79563 8.99162,1.72564 13.03088,1.4471 8.07858,-0.55718 16.83314,-2.35518 16.83314,-2.35518 l -3.78744,-18.92986 c 0,0 -4.12701,0.52788 -6.62253,0.9376 1.28042,-3.43255 2.48812,-7.01852 3.56596,-11.17036 2.60478,-10.03318 4.82624,-21.99505 6.68158,-33.62197 3.71071,-23.25382 5.92114,-45.1541 5.92114,-45.1541 z"
       id="path971-8"
       inkscape:connector-curvature="0" />
    <path
       style="color:#000000;font-style:normal;font-variant:normal;font-weight:normal;font-stretch:normal;font-size:medium;line-height:normal;font-family:sans-serif;font-variant-ligatures:normal;font-variant-position:normal;font-variant-caps:normal;font-variant-numeric:normal;font-variant-alternates:normal;font-feature-settings:normal;text-indent:0;text-align:start;text-decoration:none;text-decoration-line:none;text-decoration-style:solid;text-decoration-color:#000000;letter-spacing:normal;word-spacing:normal;text-transform:none;writing-mode:lr-tb;direction:ltr;text-orientation:mixed;dominant-baseline:auto;baseline-shift:baseline;text-anchor:start;white-space:normal;shape-padding:0;clip-rule:nonzero;display:inline;overflow:visible;visibility:visible;opacity:1;isolation:auto;mix-blend-mode:normal;color-interpolation:sRGB;color-interpolation-filters:linearRGB;solid-color:#000000;solid-opacity:1;vector-effect:none;fill:#000000;fill-opacity:1;fill-rule:nonzero;stroke:none;stroke-width:21.04357719;stroke-linecap:butt;stroke-linejoin:miter;stroke-miterlimit:4;stroke-dasharray:none;stroke-dashoffset:0;stroke-opacity:1;color-rendering:auto;image-rendering:auto;shape-rendering:auto;text-rendering:auto;enable-background:accumulate"
       d="m 275.81609,572.87159 -0.78259,0.0303 -0.7752,0.14024 c 0,0 -19.02602,3.46564 -39.12962,6.6299 -10.05181,1.58211 -20.38036,3.08976 -28.572,4.03107 -4.09583,0.47066 -7.6739,0.79683 -10.26968,0.93027 -2.59579,0.13344 -4.9043,-0.3368 -3.08608,0.14024 l -0.5168,-0.14024 -0.53157,-0.0812 c 0,0 -48.27002,-6.79748 -71.04611,34.85488 l -0.53894,0.9813 -0.32486,1.07793 c 0,0 -1.2452,4.21413 -5.36741,8.91121 -4.1222,4.69707 -10.11644,9.26842 -22.045474,9.25081 h -0.62017 l -0.6054,0.0737 c 0,0 -12.486414,1.39636 -24.599977,9.9522 -12.113567,8.55581 -24.116067,25.40721 -23.905983,51.63631 l 0.03705,4.71772 0.664464,0.58326 c -0.871476,2.86828 -4.645677,10.68058 -17.615711,24.15698 l -0.22149,0.22907 -0.214106,0.24344 c 0,0 -22.4046535,28.09495 -7.597052,61.16034 -0.106552,-0.0994 0.08119,0.12551 -3.374007,3.9425 l 0.287936,-0.30997 c 0,0 -9.4976895,9.88673 -13.3409851,26.49 -3.7255001,16.09441 -2.02851441,39.15743 14.2047891,66.02571 0.236515,1.61296 4.417582,30.13237 8.896451,58.46553 l 0.162426,1.06314 0.383913,1.0041 c 0,0 6.942737,18.99904 3.824367,40.1263 l -0.0443,0.33945 -0.02951,0.33226 c -0.413744,5.02898 -0.739305,7.05468 -2.687393,10.45416 -1.948089,3.3997 -6.188764,8.4638 -14.839724,16.3681 l 14.197279,15.534 c 9.347504,-8.5408 15.117965,-14.8396 18.900344,-21.4402 3.691301,-6.4417 4.819898,-12.88049 5.330487,-18.7379 3.678558,-25.36645 -3.364871,-45.44509 -4.415,-48.32878 v -0.008 c -4.57696,-28.95404 -9.103175,-59.85335 -9.103175,-59.85335 l -0.324847,-2.21489 -1.203422,-1.89003 C 19.747598,855.71317 19.589865,838.64207 22.226646,827.25102 c 2.63678,-11.39105 7.855455,-16.4935 7.855455,-16.4935 l 0.147661,-0.15498 0.147661,-0.15498 c 5.651562,-6.24336 8.464303,-9.70801 9.546151,-15.45992 0.476319,-2.53242 -0.112041,-5.988 -1.734992,-8.76356 l 0.0223,0.0151 c -12.618567,-23.74915 3.565966,-41.37403 3.565966,-41.37403 l -0.435596,0.47988 c 14.82549,-15.40428 20.959369,-25.60703 23.152916,-34.12397 1.096776,-4.25848 1.050055,-8.23206 0.07382,-11.45097 -0.06441,-0.21244 -0.179628,-0.33454 -0.251034,-0.53896 0.371279,-18.73361 7.52135,-27.23044 14.824957,-32.38899 7.575889,-5.35083 14.876637,-6.23859 14.876637,-6.23859 l -1.225569,0.0737 c 17.971061,0.0265 30.739521,-8.25601 37.904051,-16.41967 5.82265,-6.63466 8.06491,-12.44339 8.90384,-14.81756 16.4151,-29.92255 49.3107,-24.09058 49.3107,-24.09058 l -1.04852,-0.22181 c 4.09955,1.07592 6.17528,0.69554 9.50923,0.52418 3.33395,-0.17124 7.23277,-0.54754 11.59123,-1.04836 8.7169,-1.00167 19.2242,-2.53458 29.43581,-4.14182 19.83747,-3.12238 37.44587,-6.33422 38.50206,-6.52655 17.72692,-0.47625 32.28487,3.7888 32.32992,3.80222 7e-5,3e-5 0.0295,0.008 0.0295,0.008 39.01239,16.77029 91.28275,31.33322 91.28275,31.33322 l 0.36176,0.1032 0.36176,0.0737 c 13.61024,2.77559 25.75909,7.7595 25.75909,7.7595 l 0.5168,0.21394 0.5316,0.155 c 25.60175,7.55937 33.86554,19.18071 37.39458,28.59417 3.29441,8.78752 2.07133,15.01285 1.89003,15.87334 -4.07971,10.7764 -19.93649,27.65044 -35.17973,40.22965 -15.45372,12.75292 -29.63513,21.8683 -29.63513,21.8683 l 2.51756,-1.18128 c -56.70344,17.8904 -63.53764,90.03504 -63.53764,90.03504 l -0.14027,1.18128 0.14027,1.18864 c 4.15869,36.75292 -5.85327,58.73092 -16.36798,72.24951 -10.51472,13.51858 -21.03401,17.94059 -21.03401,17.94059 l -1.65379,0.70875 -1.32154,1.22558 c -10.66566,9.86606 -15.49209,23.45309 -21.18906,37.055 -5.69696,13.60193 -11.84209,27.43759 -21.63204,38.65727 l 15.85857,13.8355 c 12.49533,-14.3199 19.40866,-30.57696 25.18324,-44.36415 5.69859,-13.60579 10.69774,-24.48892 15.86595,-29.43582 3.57879,-1.77806 14.95155,-7.81083 26.53431,-22.70257 13.2924,-17.08976 24.74141,-45.06041 20.71654,-85.41329 0.1043,-0.75563 8.29011,-59.27057 48.91205,-72.08708 l 1.33629,-0.42821 1.18127,-0.75306 c 0,0 15.1249,-9.70854 31.65809,-23.35229 16.53318,-13.64371 34.9967,-30.39451 41.90561,-49.93822 l 0.19203,-0.55373 0.13305,-0.56849 c 0,0 3.0834,-13.42503 -2.62835,-28.6606 -5.71172,-15.23557 -20.69933,-32.40018 -51.14165,-41.3888 l 1.04099,0.36931 c 0,0 -13.58182,-5.66711 -29.59824,-8.9334 l 0.71614,0.17729 c 0,0 -52.93196,-14.83533 -89.7028,-30.78688 l -0.55373,-0.24344 -0.58325,-0.17728 c 0,0 -17.7311,-5.42543 -39.53568,-4.73247 z"
       id="path1627"
       inkscape:connector-curvature="0" />
    <path
       style="color:#000000;font-style:normal;font-variant:normal;font-weight:normal;font-stretch:normal;font-size:medium;line-height:normal;font-family:sans-serif;font-variant-ligatures:normal;font-variant-position:normal;font-variant-caps:normal;font-variant-numeric:normal;font-variant-alternates:normal;font-feature-settings:normal;text-indent:0;text-align:start;text-decoration:none;text-decoration-line:none;text-decoration-style:solid;text-decoration-color:#000000;letter-spacing:normal;word-spacing:normal;text-transform:none;writing-mode:lr-tb;direction:ltr;text-orientation:mixed;dominant-baseline:auto;baseline-shift:baseline;text-anchor:start;white-space:normal;shape-padding:0;clip-rule:nonzero;display:inline;overflow:visible;visibility:visible;opacity:1;isolation:auto;mix-blend-mode:normal;color-interpolation:sRGB;color-interpolation-filters:linearRGB;solid-color:#000000;solid-opacity:1;vector-effect:none;fill:#000000;fill-opacity:1;fill-rule:nonzero;stroke:none;stroke-width:21.04357719;stroke-linecap:butt;stroke-linejoin:miter;stroke-miterlimit:4;stroke-dasharray:none;stroke-dashoffset:0;stroke-opacity:1;color-rendering:auto;image-rendering:auto;shape-rendering:auto;text-rendering:auto;enable-background:accumulate"
       d="m 219.00432,626.8483 c -25.7197,-0.32056 -49.08183,3.46262 -49.08183,3.46262 l 3.32971,20.77559 c 0,0 22.00907,-3.48939 45.49372,-3.19681 11.74232,0.1463 23.78494,1.30447 32.96486,3.94988 9.17991,2.64541 14.57997,6.52658 16.4935,10.46164 l 0.0371,0.0665 0.0295,0.0665 c 0,0 8.69045,17.26247 17.03246,38.14765 8.32557,20.84406 15.55047,46.33665 14.66992,56.59769 -0.0201,0.16671 -1.33755,11.15835 -4.82107,21.52867 -1.7549,5.22432 -4.13207,10.10676 -6.24597,12.72083 -2.11391,2.61404 -2.54776,2.6383 -3.66195,2.53234 l -11.57645,-1.10007 0.0516,11.62077 c 0,0 0.0352,22.67953 -3.94987,43.27883 -1.99262,10.29966 -5.22214,19.97321 -8.62329,25.03558 -1.70058,2.53118 -3.24803,3.76213 -4.26735,4.23044 -1.01931,0.46827 -1.71351,0.69421 -4.03109,-0.0151 l -13.59946,9.95995 0.13289,1.80128 c 0,0 2.5626,16.64455 0.45037,31.54732 -1.05612,7.45138 -3.40849,14.05922 -6.34934,17.6305 -2.94084,3.57126 -5.61579,5.36271 -13.43696,4.46669 l -6.28289,-0.72354 -3.00486,4.36332 c -0.22982,0.14139 -0.82575,0.57269 -2.99009,0.51682 -4.47756,-0.11568 -16.10839,-3.31486 -36.05093,-21.02663 l 1.41014,1.52825 c 0,0 0.0159,-1.56991 0.0664,0.76783 l -21.03402,0.45036 c 0.16727,7.73278 4.17136,11.45096 4.17136,11.45096 l 0.62756,0.84164 0.78258,0.69398 c 21.94476,19.49003 37.37243,26.01504 49.48051,26.32761 6.05405,0.15612 11.08348,-1.489 14.47797,-3.52903 0.51011,-0.30656 0.41019,-0.44586 0.87118,-0.79 11.32395,-0.10055 21.18659,-4.70414 27.16186,-11.96036 6.84225,-8.30906 9.57257,-18.4487 10.93415,-28.05522 1.35926,-9.59023 1.22696,-19.04326 0.76044,-26.11347 1.41325,-0.35872 2.93902,-0.41478 4.23781,-1.01147 5.63926,-2.59078 9.78159,-6.89791 12.94969,-11.61335 6.3362,-9.43097 9.55021,-21.08553 11.81272,-32.7803 3.24255,-16.76061 3.86946,-30.58897 4.07539,-38.91552 4.3513,-1.93365 8.10777,-4.89521 10.76432,-8.18028 4.74527,-5.86799 7.62455,-12.66959 9.83409,-19.24736 4.41908,-13.15555 5.81776,-26.01013 5.81776,-26.01013 l 0.0147,-0.1255 0.0148,-0.1255 c 1.7761,-19.85189 -7.37423,-44.52114 -16.10221,-66.37267 -8.70546,-21.79516 -17.68733,-39.61319 -17.73384,-39.70551 -5.76456,-11.81974 -17.43908,-17.94987 -29.57608,-21.44742 -12.14878,-3.50099 -25.67174,-4.61656 -38.5316,-4.77679 z"
       id="path1629"
       inkscape:connector-curvature="0"
       sodipodi:nodetypes="cccsscccsccccccccccccscccccccccccccccsscccsccscccscccc" />
    <path
       style="color:#000000;font-style:normal;font-variant:normal;font-weight:normal;font-stretch:normal;font-size:medium;line-height:normal;font-family:sans-serif;font-variant-ligatures:normal;font-variant-position:normal;font-variant-caps:normal;font-variant-numeric:normal;font-variant-alternates:normal;font-feature-settings:normal;text-indent:0;text-align:start;text-decoration:none;text-decoration-line:none;text-decoration-style:solid;text-decoration-color:#000000;letter-spacing:normal;word-spacing:normal;text-transform:none;writing-mode:lr-tb;direction:ltr;text-orientation:mixed;dominant-baseline:auto;baseline-shift:baseline;text-anchor:start;white-space:normal;shape-padding:0;clip-rule:nonzero;display:inline;overflow:visible;visibility:visible;opacity:1;isolation:auto;mix-blend-mode:normal;color-interpolation:sRGB;color-interpolation-filters:linearRGB;solid-color:#000000;solid-opacity:1;vector-effect:none;fill:#000000;fill-opacity:1;fill-rule:nonzero;stroke:none;stroke-width:21.04357719;stroke-linecap:butt;stroke-linejoin:miter;stroke-miterlimit:4;stroke-dasharray:none;stroke-dashoffset:0;stroke-opacity:1;color-rendering:auto;image-rendering:auto;shape-rendering:auto;text-rendering:auto;enable-background:accumulate"
       d="m 93.619737,893.8821 -12.595306,16.85529 c 0,0 10.068765,7.56313 22.451549,14.05713 6.19138,3.24697 12.99245,6.30153 20.07422,8.04738 7.08179,1.74591 15.0991,2.57613 22.68042,-1.8531 l -10.61668,-18.16942 c -0.0988,0.0579 -2.62081,0.68056 -7.02857,-0.40606 -4.40776,-1.08666 -10.04645,-3.48757 -15.33437,-6.26074 C 102.67514,900.6062 93.619737,893.8821 93.619737,893.8821 Z"
       id="path1631"
       inkscape:connector-curvature="0" />
    <path
       style="color:#000000;font-style:normal;font-variant:normal;font-weight:normal;font-stretch:normal;font-size:medium;line-height:normal;font-family:sans-serif;font-variant-ligatures:normal;font-variant-position:normal;font-variant-caps:normal;font-variant-numeric:normal;font-variant-alternates:normal;font-feature-settings:normal;text-indent:0;text-align:start;text-decoration:none;text-decoration-line:none;text-decoration-style:solid;text-decoration-color:#000000;letter-spacing:normal;word-spacing:normal;text-transform:none;writing-mode:lr-tb;direction:ltr;text-orientation:mixed;dominant-baseline:auto;baseline-shift:baseline;text-anchor:start;white-space:normal;shape-padding:0;clip-rule:nonzero;display:inline;overflow:visible;visibility:visible;opacity:1;isolation:auto;mix-blend-mode:normal;color-interpolation:sRGB;color-interpolation-filters:linearRGB;solid-color:#000000;solid-opacity:1;vector-effect:none;fill:#000000;fill-opacity:1;fill-rule:nonzero;stroke:none;stroke-width:21.04357719;stroke-linecap:butt;stroke-linejoin:miter;stroke-miterlimit:4;stroke-dasharray:none;stroke-dashoffset:0;stroke-opacity:1;color-rendering:auto;image-rendering:auto;shape-rendering:auto;text-rendering:auto;enable-background:accumulate"
       d="m 99.046203,782.96071 -9.893146,18.57552 c 0,0 23.666623,12.59678 51.348393,25.71479 27.68177,13.11801 57.8179,26.89296 77.72766,29.37673 l 1.27725,0.16254 1.26987,-0.15498 c 0,0 4.13581,-0.42696 8.54207,2.26656 4.40625,2.69349 10.1167,8.21028 9.93006,28.06996 l 21.04139,0.19922 c 0.23195,-24.68136 -9.17626,-39.60511 -19.99301,-46.21724 -10.81674,-6.61217 -22.01594,-5.21238 -22.01594,-5.21238 l 2.55449,0.008 C 209.26296,834.30574 176.6791,821.11274 149.51602,808.24055 122.35296,795.36835 99.046203,782.96134 99.046203,782.96134 Z"
       id="path1633"
       inkscape:connector-curvature="0" />
    <path
       style="color:#000000;font-style:normal;font-variant:normal;font-weight:normal;font-stretch:normal;font-size:medium;line-height:normal;font-family:sans-serif;font-variant-ligatures:normal;font-variant-position:normal;font-variant-caps:normal;font-variant-numeric:normal;font-variant-alternates:normal;font-feature-settings:normal;text-indent:0;text-align:start;text-decoration:none;text-decoration-line:none;text-decoration-style:solid;text-decoration-color:#000000;letter-spacing:normal;word-spacing:normal;text-transform:none;writing-mode:lr-tb;direction:ltr;text-orientation:mixed;dominant-baseline:auto;baseline-shift:baseline;text-anchor:start;white-space:normal;shape-padding:0;clip-rule:nonzero;display:inline;overflow:visible;visibility:visible;opacity:1;isolation:auto;mix-blend-mode:normal;color-interpolation:sRGB;color-interpolation-filters:linearRGB;solid-color:#000000;solid-opacity:1;vector-effect:none;fill:#000000;fill-opacity:1;fill-rule:nonzero;stroke:none;stroke-width:21.04357719;stroke-linecap:butt;stroke-linejoin:miter;stroke-miterlimit:4;stroke-dasharray:none;stroke-dashoffset:0;stroke-opacity:1;color-rendering:auto;image-rendering:auto;shape-rendering:auto;text-rendering:auto;enable-background:accumulate"
       d="m 147.30852,711.23539 -4.68816,20.51723 c 0,0 19.2979,4.41091 40.38471,8.80044 10.54342,2.19479 21.53767,4.3858 30.89025,6.0319 9.35257,1.64607 16.21085,2.86389 22.07501,2.76118 h 0.25104 l 0.25102,-0.0151 c 0,0 6.44267,-0.64817 14.98001,5.30831 8.53733,5.95652 19.13984,18.79261 22.31865,50.8316 l 20.94542,-2.07461 c -3.59989,-36.28299 -17.22556,-56.25268 -31.22249,-66.0183 -13.99693,-9.76561 -28.39481,-9.05148 -28.39481,-9.05148 l 0.50204,-0.0227 c -1.1039,0.0189 -9.0757,-0.86273 -18.05868,-2.44377 -8.98299,-1.58106 -19.82796,-3.73729 -30.24795,-5.90637 -20.83994,-4.33815 -39.98603,-8.71925 -39.98603,-8.71925 z"
       id="path1635"
       inkscape:connector-curvature="0" />
    <path
       style="color:#000000;font-style:normal;font-variant:normal;font-weight:normal;font-stretch:normal;font-size:medium;line-height:normal;font-family:sans-serif;font-variant-ligatures:normal;font-variant-position:normal;font-variant-caps:normal;font-variant-numeric:normal;font-variant-alternates:normal;font-feature-settings:normal;text-indent:0;text-align:start;text-decoration:none;text-decoration-line:none;text-decoration-style:solid;text-decoration-color:#000000;letter-spacing:normal;word-spacing:normal;text-transform:none;writing-mode:lr-tb;direction:ltr;text-orientation:mixed;dominant-baseline:auto;baseline-shift:baseline;text-anchor:start;white-space:normal;shape-padding:0;clip-rule:nonzero;display:inline;overflow:visible;visibility:visible;opacity:1;isolation:auto;mix-blend-mode:normal;color-interpolation:sRGB;color-interpolation-filters:linearRGB;solid-color:#000000;solid-opacity:1;vector-effect:none;fill:#000000;fill-opacity:1;fill-rule:nonzero;stroke:none;stroke-width:21.04357719;stroke-linecap:butt;stroke-linejoin:miter;stroke-miterlimit:4;stroke-dasharray:none;stroke-dashoffset:0;stroke-opacity:1;color-rendering:auto;image-rendering:auto;shape-rendering:auto;text-rendering:auto;enable-background:accumulate"
       d="m 470.66682,637.28778 -15.68876,14.02762 c 0,0 6.04187,7.59857 6.5044,15.09075 0.23135,3.74608 -0.37687,7.21423 -4.18617,11.71673 -3.77103,4.45743 -11.37795,9.88205 -25.27179,14.67729 -1.21438,0.31034 -33.86613,8.40393 -72.12402,-12.78725 l -0.67924,-0.3765 -0.71614,-0.27329 c 0,0 -52.45191,-19.93574 -75.2913,-25.44901 l -4.93179,20.45814 c 18.30587,4.4189 72.54423,24.58553 72.72202,24.65164 45.28766,24.44421 86.71272,14.07928 86.71272,14.07928 l 0.3839,-0.096 0.38391,-0.13268 c 16.54468,-5.64214 27.72737,-12.70848 34.87703,-21.15955 7.14969,-8.45101 9.63702,-18.31915 9.12535,-26.60812 -1.02341,-16.57799 -11.82012,-27.81897 -11.82012,-27.81897 z"
       id="path1637"
       inkscape:connector-curvature="0" />
    <path
       style="color:#000000;font-style:normal;font-variant:normal;font-weight:normal;font-stretch:normal;font-size:medium;line-height:normal;font-family:sans-serif;font-variant-ligatures:normal;font-variant-position:normal;font-variant-caps:normal;font-variant-numeric:normal;font-variant-alternates:normal;font-feature-settings:normal;text-indent:0;text-align:start;text-decoration:none;text-decoration-line:none;text-decoration-style:solid;text-decoration-color:#000000;letter-spacing:normal;word-spacing:normal;text-transform:none;writing-mode:lr-tb;direction:ltr;text-orientation:mixed;dominant-baseline:auto;baseline-shift:baseline;text-anchor:start;white-space:normal;shape-padding:0;clip-rule:nonzero;display:inline;overflow:visible;visibility:visible;opacity:1;isolation:auto;mix-blend-mode:normal;color-interpolation:sRGB;color-interpolation-filters:linearRGB;solid-color:#000000;solid-opacity:1;vector-effect:none;fill:#000000;fill-opacity:1;fill-rule:nonzero;stroke:none;stroke-width:21.04357719;stroke-linecap:butt;stroke-linejoin:miter;stroke-miterlimit:4;stroke-dasharray:none;stroke-dashoffset:0;stroke-opacity:1;color-rendering:auto;image-rendering:auto;shape-rendering:auto;text-rendering:auto;enable-background:accumulate"
       d="m 333.86082,676.59461 c -18.89443,17.57641 -34.91394,13.10473 -34.91394,13.10473 l -4.48884,20.55414 c 0,0 28.46627,5.25357 53.73309,-18.25068 z"
       id="path1639"
       inkscape:connector-curvature="0" />
    <path
       style="color:#000000;font-style:normal;font-variant:normal;font-weight:normal;font-stretch:normal;font-size:medium;line-height:normal;font-family:sans-serif;font-variant-ligatures:normal;font-variant-position:normal;font-variant-caps:normal;font-variant-numeric:normal;font-variant-alternates:normal;font-feature-settings:normal;text-indent:0;text-align:start;text-decoration:none;text-decoration-line:none;text-decoration-style:solid;text-decoration-color:#000000;letter-spacing:normal;word-spacing:normal;text-transform:none;writing-mode:lr-tb;direction:ltr;text-orientation:mixed;dominant-baseline:auto;baseline-shift:baseline;text-anchor:start;white-space:normal;shape-padding:0;clip-rule:nonzero;display:inline;overflow:visible;visibility:visible;opacity:1;isolation:auto;mix-blend-mode:normal;color-interpolation:sRGB;color-interpolation-filters:linearRGB;solid-color:#000000;solid-opacity:1;vector-effect:none;fill:#000000;fill-opacity:1;fill-rule:nonzero;stroke:none;stroke-width:21.04357719;stroke-linecap:butt;stroke-linejoin:miter;stroke-miterlimit:4;stroke-dasharray:none;stroke-dashoffset:0;stroke-opacity:1;color-rendering:auto;image-rendering:auto;shape-rendering:auto;text-rendering:auto;enable-background:accumulate"
       d="m 418.29219,626.54563 c -3.13122,0.0941 -6.11922,0.5069 -8.96289,1.22553 -11.37476,2.87463 -19.7101,11.51446 -22.37033,21.38105 -5.3204,19.7331 8.82854,42.52306 34.98778,48.07771 l 5.67748,1.20343 4.05325,-4.15656 c 0,0 6.24279,-6.39592 12.35169,-15.50422 6.10885,-9.1083 12.90288,-21.11868 12.48453,-35.15022 l -0.19202,-6.50436 -5.90636,-2.7317 c -12.03214,-5.56741 -22.72947,-8.12323 -32.12321,-7.84066 z m 6.6299,21.52866 c 2.43311,0.38844 5.94173,1.91767 8.97765,2.91625 -1.49504,5.22417 -3.93001,10.95369 -7.35339,16.05792 -2.92052,4.35448 -3.93089,5.17125 -5.84732,7.37556 -11.4663,-4.86575 -14.87759,-14.39564 -13.42219,-19.79369 0.84375,-3.1294 2.32913,-5.22579 7.21313,-6.46006 2.44203,-0.61714 5.91796,-0.81665 10.43212,-0.096 z"
       id="path1641"
       inkscape:connector-curvature="0" />
    <path
       style="color:#000000;font-style:normal;font-variant:normal;font-weight:normal;font-stretch:normal;font-size:medium;line-height:normal;font-family:sans-serif;font-variant-ligatures:normal;font-variant-position:normal;font-variant-caps:normal;font-variant-numeric:normal;font-variant-alternates:normal;font-feature-settings:normal;text-indent:0;text-align:start;text-decoration:none;text-decoration-line:none;text-decoration-style:solid;text-decoration-color:#000000;letter-spacing:normal;word-spacing:normal;text-transform:none;writing-mode:lr-tb;direction:ltr;text-orientation:mixed;dominant-baseline:auto;baseline-shift:baseline;text-anchor:start;white-space:normal;shape-padding:0;clip-rule:nonzero;display:inline;overflow:visible;visibility:visible;opacity:1;isolation:auto;mix-blend-mode:normal;color-interpolation:sRGB;color-interpolation-filters:linearRGB;solid-color:#000000;solid-opacity:1;vector-effect:none;fill:#000000;fill-opacity:1;fill-rule:nonzero;stroke:none;stroke-width:21.04357719;stroke-linecap:butt;stroke-linejoin:miter;stroke-miterlimit:4;stroke-dasharray:none;stroke-dashoffset:0;stroke-opacity:1;color-rendering:auto;image-rendering:auto;shape-rendering:auto;text-rendering:auto;enable-background:accumulate"
       d="m 116.15987,891.8518 -15.52634,14.21217 c 0,0 28.59469,32.68985 66.79352,32.11582 1.29359,2.60767 2.68921,5.42851 4.98349,8.26153 l 16.35324,-13.24503 c -1.66667,-2.05798 -4.69557,-9.16224 -4.69557,-9.16224 l -2.89411,-8.136 -8.54206,1.24773 C 145.16732,921.1541 116.15987,891.8518 116.15987,891.8518 Z"
       id="path1643"
       inkscape:connector-curvature="0" />
    <path
       style="color:#000000;font-style:normal;font-variant:normal;font-weight:normal;font-stretch:normal;font-size:medium;line-height:normal;font-family:sans-serif;font-variant-ligatures:normal;font-variant-position:normal;font-variant-caps:normal;font-variant-numeric:normal;font-variant-alternates:normal;font-feature-settings:normal;text-indent:0;text-align:start;text-decoration:none;text-decoration-line:none;text-decoration-style:solid;text-decoration-color:#000000;letter-spacing:normal;word-spacing:normal;text-transform:none;writing-mode:lr-tb;direction:ltr;text-orientation:mixed;dominant-baseline:auto;baseline-shift:baseline;text-anchor:start;white-space:normal;shape-padding:0;clip-rule:nonzero;display:inline;overflow:visible;visibility:visible;opacity:1;isolation:auto;mix-blend-mode:normal;color-interpolation:sRGB;color-interpolation-filters:linearRGB;solid-color:#000000;solid-opacity:1;vector-effect:none;fill:#000000;fill-opacity:1;fill-rule:nonzero;stroke:none;stroke-width:21.04357719;stroke-linecap:butt;stroke-linejoin:miter;stroke-miterlimit:4;stroke-dasharray:none;stroke-dashoffset:0;stroke-opacity:1;color-rendering:auto;image-rendering:auto;shape-rendering:auto;text-rendering:auto;enable-background:accumulate"
       d="m 330.72307,702.08793 c -5.10208,34.69607 29.64992,56.11039 29.64992,56.11039 l 11.65028,-17.52712 c 0,0 -23.19037,-17.08981 -20.48028,-35.51935 z"
       id="path1645"
       inkscape:connector-curvature="0" />
    <path
       style="color:#000000;font-style:normal;font-variant:normal;font-weight:normal;font-stretch:normal;font-size:medium;line-height:normal;font-family:sans-serif;font-variant-ligatures:normal;font-variant-position:normal;font-variant-caps:normal;font-variant-numeric:normal;font-variant-alternates:normal;font-feature-settings:normal;text-indent:0;text-align:start;text-decoration:none;text-decoration-line:none;text-decoration-style:solid;text-decoration-color:#000000;letter-spacing:normal;word-spacing:normal;text-transform:none;writing-mode:lr-tb;direction:ltr;text-orientation:mixed;dominant-baseline:auto;baseline-shift:baseline;text-anchor:start;white-space:normal;shape-padding:0;clip-rule:nonzero;display:inline;overflow:visible;visibility:visible;opacity:1;isolation:auto;mix-blend-mode:normal;color-interpolation:sRGB;color-interpolation-filters:linearRGB;solid-color:#000000;solid-opacity:1;vector-effect:none;fill:#000000;fill-opacity:1;fill-rule:nonzero;stroke:none;stroke-width:21.04357719;stroke-linecap:butt;stroke-linejoin:miter;stroke-miterlimit:4;stroke-dasharray:none;stroke-dashoffset:0;stroke-opacity:1;color-rendering:auto;image-rendering:auto;shape-rendering:auto;text-rendering:auto;enable-background:accumulate"
       d="m 264.23964,922.31386 -18.7453,9.56829 c 13.41408,26.28101 45.79641,28.32095 45.79641,28.32095 l 2.18536,-20.93061 c 0,0 -22.46689,-3.69562 -29.23647,-16.95863 z"
       id="path1647"
       inkscape:connector-curvature="0" />
    <path
       style="color:#000000;font-style:normal;font-variant:normal;font-weight:normal;font-stretch:normal;font-size:medium;line-height:normal;font-family:sans-serif;font-variant-ligatures:normal;font-variant-position:normal;font-variant-caps:normal;font-variant-numeric:normal;font-variant-alternates:normal;font-feature-settings:normal;text-indent:0;text-align:start;text-decoration:none;text-decoration-line:none;text-decoration-style:solid;text-decoration-color:#000000;letter-spacing:normal;word-spacing:normal;text-transform:none;writing-mode:lr-tb;direction:ltr;text-orientation:mixed;dominant-baseline:auto;baseline-shift:baseline;text-anchor:start;white-space:normal;shape-padding:0;clip-rule:nonzero;display:inline;overflow:visible;visibility:visible;opacity:1;isolation:auto;mix-blend-mode:normal;color-interpolation:sRGB;color-interpolation-filters:linearRGB;solid-color:#000000;solid-opacity:1;vector-effect:none;fill:#000000;fill-opacity:1;fill-rule:nonzero;stroke:none;stroke-width:5.03333092;stroke-linecap:butt;stroke-linejoin:miter;stroke-miterlimit:4;stroke-dasharray:none;stroke-dashoffset:0;stroke-opacity:1;color-rendering:auto;image-rendering:auto;shape-rendering:auto;text-rendering:auto;enable-background:accumulate"
       d="m 483.52053,683.60103 c 0,0 -7.68734,12.87092 -13.47387,28.63107 -2.89326,7.88005 -5.32714,16.49963 -6.07615,24.74026 -0.74903,8.24058 0.17236,16.21218 4.41499,22.48104 l 4.16399,-2.82026 c -3.30727,-4.88665 -4.2538,-11.64318 -3.56598,-19.21043 0.68782,-7.56728 2.99068,-15.83625 5.78824,-23.45562 1.46523,-3.9907 2.97087,-6.82492 4.52576,-10.2697 -0.4352,2.91232 -1.05907,5.06548 -1.28466,8.35014 -1.07187,15.6068 0.92222,34.80479 13.91686,48.24018 l 3.61763,-3.49956 c -11.4905,-11.88019 -13.52939,-29.50309 -12.50669,-44.39365 1.0227,-14.89052 5.02041,-26.69673 5.02041,-26.69673 z"
       id="path60719"
       inkscape:connector-curvature="0" />
    <path
       style="color:#000000;font-style:normal;font-variant:normal;font-weight:normal;font-stretch:normal;font-size:medium;line-height:normal;font-family:sans-serif;font-variant-ligatures:normal;font-variant-position:normal;font-variant-caps:normal;font-variant-numeric:normal;font-variant-alternates:normal;font-feature-settings:normal;text-indent:0;text-align:start;text-decoration:none;text-decoration-line:none;text-decoration-style:solid;text-decoration-color:#000000;letter-spacing:normal;word-spacing:normal;text-transform:none;writing-mode:lr-tb;direction:ltr;text-orientation:mixed;dominant-baseline:auto;baseline-shift:baseline;text-anchor:start;white-space:normal;shape-padding:0;clip-rule:nonzero;display:inline;overflow:visible;visibility:visible;opacity:1;isolation:auto;mix-blend-mode:normal;color-interpolation:sRGB;color-interpolation-filters:linearRGB;solid-color:#000000;solid-opacity:1;vector-effect:none;fill:#000000;fill-opacity:1;fill-rule:nonzero;stroke:none;stroke-width:5.03333092;stroke-linecap:butt;stroke-linejoin:miter;stroke-miterlimit:4;stroke-dasharray:none;stroke-dashoffset:0;stroke-opacity:1;color-rendering:auto;image-rendering:auto;shape-rendering:auto;text-rendering:auto;enable-background:accumulate"
       d="m 468.47411,599.95961 c -1.72844,13.14371 2.18814,31.69055 6.40098,47.23611 4.21289,15.54554 8.83002,27.98873 8.83002,27.98873 l 4.82106,-1.41012 c 0,0 -2.28744,-10.64142 -1.86048,-24.0241 0.42692,-13.38274 3.63288,-29.22222 14.09403,-39.68336 l -3.5586,-3.5586 c -11.87157,11.87162 -15.11525,29.0439 -15.56322,43.08688 -0.0341,1.06648 0.1289,1.68694 0.1255,2.71693 -0.94872,-3.12206 -1.06232,-2.85863 -2.03032,-6.43054 -4.14715,-15.30307 -7.77979,-33.7692 -6.2681,-45.26484 z"
       id="path60719-5"
       inkscape:connector-curvature="0" />
    <path
       inkscape:connector-curvature="0"
       id="path59-1-8-3-29-8"
       d="m 536.39948,392.53699 c -25.97118,-0.93397 -53.13276,9.51357 -85.02987,33.07361 l 11.44574,15.49695 c 29.91365,-22.0947 52.5008,-30.05026 72.89038,-29.31707 20.38951,0.73344 40.04911,10.36812 63.52867,27.21085 l 11.22911,-15.65278 c -24.77828,-17.77383 -48.09143,-29.87757 -74.06403,-30.81156 z"
       style="color:#000000;font-style:normal;font-variant:normal;font-weight:normal;font-stretch:normal;font-size:medium;line-height:normal;font-family:sans-serif;font-variant-ligatures:normal;font-variant-position:normal;font-variant-caps:normal;font-variant-numeric:normal;font-variant-alternates:normal;font-feature-settings:normal;text-indent:0;text-align:start;text-decoration:none;text-decoration-line:none;text-decoration-style:solid;text-decoration-color:#000000;letter-spacing:normal;word-spacing:normal;text-transform:none;writing-mode:lr-tb;direction:ltr;text-orientation:mixed;dominant-baseline:auto;baseline-shift:baseline;text-anchor:start;white-space:normal;shape-padding:0;clip-rule:nonzero;display:inline;overflow:visible;visibility:visible;opacity:1;isolation:auto;mix-blend-mode:normal;color-interpolation:sRGB;color-interpolation-filters:linearRGB;solid-color:#000000;solid-opacity:1;vector-effect:none;fill:#000000;fill-opacity:1;fill-rule:nonzero;stroke:none;stroke-width:19.2653656;stroke-linecap:butt;stroke-linejoin:miter;stroke-miterlimit:4;stroke-dasharray:none;stroke-dashoffset:0;stroke-opacity:1;color-rendering:auto;image-rendering:auto;shape-rendering:auto;text-rendering:auto;enable-background:accumulate" />
    <path
       inkscape:connector-curvature="0"
       id="path29-2-7-1"
       d="m 797.59725,784.14368 c -73.34052,-72.19913 -136.47459,-75.06449 -184.65764,-59.84613 -24.09212,7.60932 -44.41074,20.12381 -59.51401,31.62047 -15.10319,11.4966 -24.5616,21.5301 -28.51948,25.45159 L 511.34784,767.6819 c 3.05003,-3.02216 14.05475,-14.64485 30.40767,-27.09315 16.35417,-12.44838 38.48994,-26.16813 65.38324,-34.66209 53.7866,-16.9882 126.7556,-11.53036 203.97414,64.48808 z"
       style="color:#000000;font-style:normal;font-variant:normal;font-weight:normal;font-stretch:normal;font-size:medium;line-height:normal;font-family:sans-serif;font-variant-ligatures:normal;font-variant-position:normal;font-variant-caps:normal;font-variant-numeric:normal;font-variant-alternates:normal;font-feature-settings:normal;text-indent:0;text-align:start;text-decoration:none;text-decoration-line:none;text-decoration-style:solid;text-decoration-color:#000000;letter-spacing:normal;word-spacing:normal;text-transform:none;writing-mode:lr-tb;direction:ltr;text-orientation:mixed;dominant-baseline:auto;baseline-shift:baseline;text-anchor:start;white-space:normal;shape-padding:0;clip-rule:nonzero;display:inline;overflow:visible;visibility:visible;opacity:1;isolation:auto;mix-blend-mode:normal;color-interpolation:sRGB;color-interpolation-filters:linearRGB;solid-color:#000000;solid-opacity:1;vector-effect:none;fill:#000000;fill-opacity:1;fill-rule:nonzero;stroke:none;stroke-width:19.2653656;stroke-linecap:butt;stroke-linejoin:miter;stroke-miterlimit:4;stroke-dasharray:none;stroke-dashoffset:0;stroke-opacity:1;color-rendering:auto;image-rendering:auto;shape-rendering:auto;text-rendering:auto;enable-background:accumulate" />
    <path
       inkscape:connector-curvature="0"
       id="path1039-2-2-0"
       d="m 429.67193,268.42643 -10.89635,21.28033 c 0,0 48.2178,24.68596 96.90259,49.37942 24.34236,12.34672 48.79816,24.69575 67.43506,33.97669 9.31909,4.64041 17.1757,8.51114 22.89279,11.25796 2.85917,1.37338 5.17025,2.45897 6.96031,3.26232 0.89501,0.40162 1.64172,0.72867 2.40907,1.03252 0.38312,0.15196 0.7558,0.29749 1.32061,0.47964 0.56489,0.18182 0.51848,0.64425 3.96835,0.64425 v -23.9072 c 3.33761,0 3.08352,0.41629 3.35436,0.50313 0.26953,0.0862 0.25818,0.0903 0.17011,0.0555 -0.17578,-0.0695 -0.71701,-0.29637 -1.43279,-0.61782 -1.43281,-0.64276 -3.63557,-1.6776 -6.39543,-3.00334 -5.51974,-2.65195 -13.32217,-6.49348 -22.5897,-11.108 -18.53371,-9.22915 -42.9638,-21.56106 -67.27902,-33.89421 -48.63058,-24.66661 -96.82007,-49.34128 -96.82007,-49.34128 z"
       style="color:#000000;font-style:normal;font-variant:normal;font-weight:normal;font-stretch:normal;font-size:medium;line-height:normal;font-family:sans-serif;font-variant-ligatures:normal;font-variant-position:normal;font-variant-caps:normal;font-variant-numeric:normal;font-variant-alternates:normal;font-feature-settings:normal;text-indent:0;text-align:start;text-decoration:none;text-decoration-line:none;text-decoration-style:solid;text-decoration-color:#000000;letter-spacing:normal;word-spacing:normal;text-transform:none;writing-mode:lr-tb;direction:ltr;text-orientation:mixed;dominant-baseline:auto;baseline-shift:baseline;text-anchor:start;white-space:normal;shape-padding:0;clip-rule:nonzero;display:inline;overflow:visible;visibility:visible;opacity:1;isolation:auto;mix-blend-mode:normal;color-interpolation:sRGB;color-interpolation-filters:linearRGB;solid-color:#000000;solid-opacity:1;vector-effect:none;fill:#000000;fill-opacity:1;fill-rule:nonzero;stroke:none;stroke-width:23.9068718;stroke-linecap:butt;stroke-linejoin:miter;stroke-miterlimit:4;stroke-dasharray:none;stroke-dashoffset:0;stroke-opacity:1;color-rendering:auto;image-rendering:auto;shape-rendering:auto;text-rendering:auto;enable-background:accumulate" />
    <path
       inkscape:connector-curvature="0"
       id="path59-1-8-3-29-8-3"
       d="m 784.82054,392.53699 c 25.97123,-0.93397 53.13276,9.51357 85.03,33.07361 l -11.44577,15.49695 c -29.91374,-22.0947 -52.50082,-30.05026 -72.89041,-29.31707 -20.38952,0.73344 -40.04914,10.36812 -63.52869,27.21085 L 710.7566,423.34855 c 24.77823,-17.77383 48.0915,-29.87757 74.06394,-30.81156 z"
       style="color:#000000;font-style:normal;font-variant:normal;font-weight:normal;font-stretch:normal;font-size:medium;line-height:normal;font-family:sans-serif;font-variant-ligatures:normal;font-variant-position:normal;font-variant-caps:normal;font-variant-numeric:normal;font-variant-alternates:normal;font-feature-settings:normal;text-indent:0;text-align:start;text-decoration:none;text-decoration-line:none;text-decoration-style:solid;text-decoration-color:#000000;letter-spacing:normal;word-spacing:normal;text-transform:none;writing-mode:lr-tb;direction:ltr;text-orientation:mixed;dominant-baseline:auto;baseline-shift:baseline;text-anchor:start;white-space:normal;shape-padding:0;clip-rule:nonzero;display:inline;overflow:visible;visibility:visible;opacity:1;isolation:auto;mix-blend-mode:normal;color-interpolation:sRGB;color-interpolation-filters:linearRGB;solid-color:#000000;solid-opacity:1;vector-effect:none;fill:#000000;fill-opacity:1;fill-rule:nonzero;stroke:none;stroke-width:19.2653656;stroke-linecap:butt;stroke-linejoin:miter;stroke-miterlimit:4;stroke-dasharray:none;stroke-dashoffset:0;stroke-opacity:1;color-rendering:auto;image-rendering:auto;shape-rendering:auto;text-rendering:auto;enable-background:accumulate" />
    <path
       inkscape:connector-curvature="0"
       id="path1039-2-2-0-35"
       d="m 891.54817,268.42643 10.89631,21.28033 c 0,0 -48.21779,24.68596 -96.90251,49.37942 -24.34239,12.34672 -48.79823,24.69575 -67.43518,33.97669 -9.31904,4.64041 -17.17564,8.51114 -22.89266,11.25796 -2.85925,1.37338 -5.17031,2.45897 -6.96039,3.26232 -0.89497,0.40162 -1.64173,0.72867 -2.40904,1.03252 -0.38315,0.15196 -0.75578,0.29749 -1.32065,0.47964 -0.56481,0.18182 -0.51843,0.64425 -3.96827,0.64425 v -23.9072 c -3.33762,0 -3.08362,0.41629 -3.3544,0.50313 -0.26951,0.0862 -0.25817,0.0903 -0.1701,0.0555 0.17577,-0.0695 0.717,-0.29637 1.43276,-0.61782 1.43286,-0.64276 3.63563,-1.6776 6.3955,-3.00334 5.51969,-2.65195 13.32217,-6.49348 22.58969,-11.108 18.53371,-9.22915 42.96377,-21.56106 67.27907,-33.89421 48.6305,-24.66666 96.82002,-49.34133 96.82002,-49.34133 z"
       style="color:#000000;font-style:normal;font-variant:normal;font-weight:normal;font-stretch:normal;font-size:medium;line-height:normal;font-family:sans-serif;font-variant-ligatures:normal;font-variant-position:normal;font-variant-caps:normal;font-variant-numeric:normal;font-variant-alternates:normal;font-feature-settings:normal;text-indent:0;text-align:start;text-decoration:none;text-decoration-line:none;text-decoration-style:solid;text-decoration-color:#000000;letter-spacing:normal;word-spacing:normal;text-transform:none;writing-mode:lr-tb;direction:ltr;text-orientation:mixed;dominant-baseline:auto;baseline-shift:baseline;text-anchor:start;white-space:normal;shape-padding:0;clip-rule:nonzero;display:inline;overflow:visible;visibility:visible;opacity:1;isolation:auto;mix-blend-mode:normal;color-interpolation:sRGB;color-interpolation-filters:linearRGB;solid-color:#000000;solid-opacity:1;vector-effect:none;fill:#000000;fill-opacity:1;fill-rule:nonzero;stroke:none;stroke-width:23.9068718;stroke-linecap:butt;stroke-linejoin:miter;stroke-miterlimit:4;stroke-dasharray:none;stroke-dashoffset:0;stroke-opacity:1;color-rendering:auto;image-rendering:auto;shape-rendering:auto;text-rendering:auto;enable-background:accumulate" />
  </g>
</svg>
