<?xml version="1.0" encoding="UTF-8" standalone="no"?>
<!-- Created with Inkscape (http://www.inkscape.org/) -->

<svg
   xmlns:dc="http://purl.org/dc/elements/1.1/"
   xmlns:cc="http://creativecommons.org/ns#"
   xmlns:rdf="http://www.w3.org/1999/02/22-rdf-syntax-ns#"
   xmlns:svg="http://www.w3.org/2000/svg"
   xmlns="http://www.w3.org/2000/svg"
   xmlns:sodipodi="http://sodipodi.sourceforge.net/DTD/sodipodi-0.dtd"
   xmlns:inkscape="http://www.inkscape.org/namespaces/inkscape"
   width="1000"
   height="1250"
   viewBox="0 0 1000 1250"
   version="1.1"
   id="svg9223"
   inkscape:version="0.92.4 (5da689c313, 2019-01-14)"
   sodipodi:docname="Ainda.svg">
  <defs
     id="defs9217" />
  <sodipodi:namedview
     id="base"
     pagecolor="#ffffff"
     bordercolor="#666666"
     borderopacity="1.0"
     inkscape:pageopacity="0.0"
     inkscape:pageshadow="2"
     inkscape:zoom="0.25"
     inkscape:cx="25.72547"
     inkscape:cy="808.98055"
     inkscape:document-units="px"
     inkscape:current-layer="layer1"
     showgrid="false"
     units="px"
     inkscape:window-width="1366"
     inkscape:window-height="715"
     inkscape:window-x="-8"
     inkscape:window-y="-8"
     inkscape:window-maximized="1" />
  <metadata
     id="metadata9220">
    <rdf:RDF>
      <cc:Work
         rdf:about="">
        <dc:format>image/svg+xml</dc:format>
        <dc:type
           rdf:resource="http://purl.org/dc/dcmitype/StillImage" />
        <dc:title></dc:title>
      </cc:Work>
    </rdf:RDF>
  </metadata>
  <g
     inkscape:label="Camada 1"
     inkscape:groupmode="layer"
     id="layer1"
     transform="translate(0,217.58334)">
    <path
       style="color:#000000;font-style:normal;font-variant:normal;font-weight:normal;font-stretch:normal;font-size:medium;line-height:normal;font-family:sans-serif;font-variant-ligatures:normal;font-variant-position:normal;font-variant-caps:normal;font-variant-numeric:normal;font-variant-alternates:normal;font-feature-settings:normal;text-indent:0;text-align:start;text-decoration:none;text-decoration-line:none;text-decoration-style:solid;text-decoration-color:#000000;letter-spacing:normal;word-spacing:normal;text-transform:none;writing-mode:lr-tb;direction:ltr;text-orientation:mixed;dominant-baseline:auto;baseline-shift:baseline;text-anchor:start;white-space:normal;shape-padding:0;clip-rule:nonzero;display:inline;overflow:visible;visibility:visible;opacity:1;isolation:auto;mix-blend-mode:normal;color-interpolation:sRGB;color-interpolation-filters:linearRGB;solid-color:#000000;solid-opacity:1;vector-effect:none;fill:#000000;fill-opacity:1;fill-rule:nonzero;stroke:none;stroke-width:15.83362389;stroke-linecap:butt;stroke-linejoin:miter;stroke-miterlimit:4;stroke-dasharray:none;stroke-dashoffset:0;stroke-opacity:1;color-rendering:auto;image-rendering:auto;shape-rendering:auto;text-rendering:auto;enable-background:accumulate"
       d="m 353.1833,300.49467 c -8.75709,0.0472 -18.29537,0.45631 -27.36719,0.91406 -18.14363,0.91551 -33.76953,2.2461 -33.76953,2.2461 l 0.67187,-0.0273 c -15.17171,0 -25.4696,7.22641 -30.83984,14.38672 -3.73217,4.97622 -5.1299,9.12757 -5.85742,11.78125 -0.19824,0.37003 -0.36521,0.73509 -0.56641,1.06445 -0.55605,0.91029 -1.01597,1.80792 -1.51172,2.83594 -0.99149,2.05605 -2.07249,4.58728 -3.26757,7.53516 -2.39018,5.89576 -5.19177,13.39587 -7.89063,20.82812 -5.39772,14.8645 -10.36523,29.4375 -10.36523,29.4375 l -0.0898,0.26367 -0.0703,0.26758 c -4.52172,17.11793 -8.67171,27.73283 -11.56055,33.89063 -1.30794,2.78798 -2.14163,4.28202 -2.77343,5.35156 -39.91113,8.06778 -57.93902,27.4716 -63.8418,45.64844 -4.63932,14.28615 -2.33809,27.16405 -0.97461,32.52539 -2.29746,7.07409 -1.9025,14.45647 -1.36524,20.98047 0.56305,6.83698 1.54167,11.97856 1.73243,12.96093 1.8462,30.95011 -2.53945,71.43016 -2.59375,71.92969 -4.20678,15.61994 -4.35955,43.16917 -4.11524,68.74024 0.24934,26.09817 1.41211,49.00586 1.41211,49.00586 v 0.0176 l 0.002,0.0195 c 1.10302,19.85423 -13.51562,39.57023 -13.51562,39.57023 l 12.47656,9.7482 c 0,0 18.38487,-22.5277 16.84765,-50.19733 -0.003,-0.0607 -1.14526,-22.63279 -1.39062,-48.31445 -0.24569,-25.71624 0.93663,-55.5634 3.73047,-65.21485 l 0.18945,-0.65039 0.0762,-0.67578 c 0,0 4.72518,-41.77957 2.67383,-75.28516 l -0.0332,-0.53906 -0.10742,-0.5293 c 0,0 -1.06961,-5.37785 -1.60547,-11.88476 -0.53586,-6.50691 0.13291,-14.32108 1.01758,-16.2168 l 1.36133,-2.91601 -1.06055,-3.03907 c 0,0 -4.01457,-11.85193 0.30273,-25.14648 4.31731,-13.29455 16.27829,-28.81405 55.00196,-35.74023 l 2.7793,-0.4961 1.83789,-2.14453 c 0,0 2.88979,-3.57486 6.27148,-10.7832 3.35564,-7.15281 7.74748,-18.56311 12.42578,-36.19336 0.0525,-0.15382 4.9074,-14.39196 10.20703,-28.98633 2.66409,-7.3365 5.4308,-14.73112 7.68164,-20.2832 1.12543,-2.77605 2.13237,-5.10793 2.85547,-6.60743 0.16937,-0.3512 0.22877,-0.43921 0.35742,-0.68359 l 1.6211,-0.97266 0.6289,-3.55468 c 0,0 0.6889,-3.78702 3.73438,-7.84766 3.04548,-4.06064 7.60137,-8.05469 18.17187,-8.05469 h 0.33594 l 0.33399,-0.0273 c 0,0 15.39713,-1.30933 33.22656,-2.20899 17.82943,-0.89965 38.74561,-1.16869 46.64844,0.14844 l 2.27148,0.37891 2.12109,-0.89844 c 0,0 0.62883,-1.09584 3.84961,1.21094 3.22079,2.30678 9.71103,10.87367 12.24219,36.50195 l 0.1543,1.55664 0.73242,1.37891 c 0,0 10.20662,20.45358 10.2832,35.71289 -0.0223,0.1422 -0.49311,3.1175 -1.45508,4.44726 -0.4925,0.68083 -0.61674,0.85626 -1.58984,1.04493 -0.9731,0.18866 -3.3333,0.20329 -7.63281,-1.67774 l -9.21289,12.37305 c 0,0 2.57264,2.82495 5.24219,10.8457 2.66955,8.02076 4.94479,20.62547 2.53125,38.61719 l -1.22657,9.13867 9.21875,-0.17187 c 0,0 3.98378,0.008 7.89063,2.5625 3.90685,2.55447 8.21429,6.96349 7.39648,21.27539 l -0.0586,1.01172 0.19922,0.99218 c 0,0 2.42967,17.40325 -2.06641,26.07422 l -0.0586,0.11328 -0.0547,0.11524 c 0,0 -6.20301,12.65703 -3.96289,28.33789 l 0.29297,2.04297 1.25195,1.64062 c 0,0 1.99753,2.29029 2.67969,8.74805 0.68216,6.45776 -0.34369,16.53013 -9.55469,30.66797 l -1.5293,2.34765 0.28711,2.78516 c 0,0 4.18127,43.54268 -14.17382,81.12695 l -0.20899,0.42774 -0.15625,0.44922 c -11.43124,32.92209 -19.83222,43.55387 -30.61133,58.08203 -10e-4,0.002 -0.002,0.004 -0.004,0.006 -0.61408,0.74576 -14.82131,18.13828 -20.4375,39.58198 l 15.3164,4.0117 c 4.52892,-17.2922 17.62696,-33.89056 17.62696,-33.89056 l 0.10741,-0.13304 0.10156,-0.13672 c 10.64869,-14.35257 20.88104,-27.97119 32.72852,-61.97461 18.76035,-38.83777 16.2295,-79.3078 15.6289,-86.38672 9.56569,-15.6407 11.64004,-29.00142 10.62305,-38.6289 -0.74687,-7.07033 -2.85174,-11.37695 -4.32227,-13.95117 -1.11283,-10.01468 2.59961,-18.32227 2.59961,-18.32227 l -0.11328,0.22851 c 8.10341,-15.62793 4.14599,-33.7345 3.67774,-35.73046 0.63297,-17.60429 -6.51094,-28.91558 -14.54102,-34.16602 -2.87814,-1.88186 -5.6735,-2.91839 -8.26172,-3.67578 1.23141,-16.45557 -0.83652,-29.33405 -3.79297,-38.2168 -0.12438,-0.37372 -0.26871,-0.63607 -0.39648,-0.99804 5.0864,-0.98923 9.08527,-4.11173 11.39648,-7.30664 4.62548,-6.39403 4.4668,-13.29102 4.4668,-13.29102 l 0.006,-0.13086 v -0.12891 c 0,-19.72112 -9.63873,-38.56708 -11.45898,-41.9707 -2.86313,-26.70601 -9.77421,-39.92215 -18.58204,-46.23047 -5.95756,-4.2669 -12.21332,-4.09965 -15.93164,-3.54101 -5.83622,-0.8737 -13.30938,-1.199 -21.60937,-1.1543 z m -84.21485,38.61914 c 0.0561,-0.0918 0.10248,0.0474 -0.21093,0.4043 0.0554,-0.10009 0.18419,-0.36051 0.21093,-0.4043 z"
       id="path9779"
       inkscape:connector-curvature="0" />
    <path
       style="color:#000000;font-style:normal;font-variant:normal;font-weight:normal;font-stretch:normal;font-size:medium;line-height:normal;font-family:sans-serif;font-variant-ligatures:normal;font-variant-position:normal;font-variant-caps:normal;font-variant-numeric:normal;font-variant-alternates:normal;font-feature-settings:normal;text-indent:0;text-align:start;text-decoration:none;text-decoration-line:none;text-decoration-style:solid;text-decoration-color:#000000;letter-spacing:normal;word-spacing:normal;text-transform:none;writing-mode:lr-tb;direction:ltr;text-orientation:mixed;dominant-baseline:auto;baseline-shift:baseline;text-anchor:start;white-space:normal;shape-padding:0;clip-rule:nonzero;display:inline;overflow:visible;visibility:visible;opacity:1;isolation:auto;mix-blend-mode:normal;color-interpolation:sRGB;color-interpolation-filters:linearRGB;solid-color:#000000;solid-opacity:1;vector-effect:none;fill:#000000;fill-opacity:1;fill-rule:nonzero;stroke:none;stroke-width:15.83362389;stroke-linecap:butt;stroke-linejoin:miter;stroke-miterlimit:4;stroke-dasharray:none;stroke-dashoffset:0;stroke-opacity:1;color-rendering:auto;image-rendering:auto;shape-rendering:auto;text-rendering:auto;enable-background:accumulate"
       d="m 363.98213,386.1685 c -3.21771,0.17813 -6.65987,0.64885 -10.31836,1.48242 l 0.47265,-0.0918 c 0,0 -27.60383,4.36748 -42.13281,9.20899 -0.002,7.4e-4 -0.006,0.001 -0.008,0.002 -0.0399,0.013 -32.09582,10.43878 -53.21485,22.40625 l 0.55664,-0.28711 c 0,0 -5.90235,2.7532 -13.65624,5.60156 -7.7539,2.84836 -17.49846,5.62391 -23.27344,5.875 l 0.6875,15.81836 c 9.40629,-0.40898 19.62744,-3.73991 28.04492,-6.83203 8.41748,-3.09212 14.89258,-6.11523 14.89258,-6.11523 l 0.2832,-0.13086 0.27148,-0.1543 c 18.47145,-10.46712 50.39277,-21.15239 50.39277,-21.15239 l 0.0117,-0.004 0.0117,-0.004 c 11.2149,-3.73829 39.70508,-8.60937 39.70508,-8.60937 l 0.23828,-0.0391 0.23438,-0.0527 c 11.43823,-2.60615 18.09493,-0.61879 22.15624,1.51563 4.06132,2.13441 5.07422,3.96484 5.07422,3.96484 l 13.3086,-8.57812 c 0,0 -3.77349,-5.59626 -11.01563,-9.40235 -5.4316,-2.85457 -13.06953,-4.95628 -22.72265,-4.42187 z"
       id="path9781"
       inkscape:connector-curvature="0" />
    <path
       style="color:#000000;font-style:normal;font-variant:normal;font-weight:normal;font-stretch:normal;font-size:medium;line-height:normal;font-family:sans-serif;font-variant-ligatures:normal;font-variant-position:normal;font-variant-caps:normal;font-variant-numeric:normal;font-variant-alternates:normal;font-feature-settings:normal;text-indent:0;text-align:start;text-decoration:none;text-decoration-line:none;text-decoration-style:solid;text-decoration-color:#000000;letter-spacing:normal;word-spacing:normal;text-transform:none;writing-mode:lr-tb;direction:ltr;text-orientation:mixed;dominant-baseline:auto;baseline-shift:baseline;text-anchor:start;white-space:normal;shape-padding:0;clip-rule:nonzero;display:inline;overflow:visible;visibility:visible;opacity:1;isolation:auto;mix-blend-mode:normal;color-interpolation:sRGB;color-interpolation-filters:linearRGB;solid-color:#000000;solid-opacity:1;vector-effect:none;fill:#000000;fill-opacity:1;fill-rule:nonzero;stroke:none;stroke-width:15.83362389;stroke-linecap:butt;stroke-linejoin:miter;stroke-miterlimit:4;stroke-dasharray:none;stroke-dashoffset:0;stroke-opacity:1;color-rendering:auto;image-rendering:auto;shape-rendering:auto;text-rendering:auto;enable-background:accumulate"
       d="m 339.72627,352.7017 c -3.56097,0.19426 -7.41279,0.75366 -11.35157,1.90039 -15.75511,4.58694 -32.17019,20.2064 -34.64062,53.38086 l 15.78906,1.17773 c 2.14995,-28.87081 12.96022,-36.35369 23.27735,-39.35742 7.27819,-2.11897 13.28253,-1.31453 17.01171,-0.58593 5.59069,18.09057 17.76563,30.36132 17.76563,30.36132 l 11.33398,-11.05664 c 0,0 -11.73979,-12.46946 -15.09375,-27.84179 l -0.97656,-4.47071 -4.35937,-1.38672 c 0,0 -8.07297,-2.70385 -18.75586,-2.12109 z"
       id="path9783"
       inkscape:connector-curvature="0" />
    <path
       style="color:#000000;font-style:normal;font-variant:normal;font-weight:normal;font-stretch:normal;font-size:medium;line-height:normal;font-family:sans-serif;font-variant-ligatures:normal;font-variant-position:normal;font-variant-caps:normal;font-variant-numeric:normal;font-variant-alternates:normal;font-feature-settings:normal;text-indent:0;text-align:start;text-decoration:none;text-decoration-line:none;text-decoration-style:solid;text-decoration-color:#000000;letter-spacing:normal;word-spacing:normal;text-transform:none;writing-mode:lr-tb;direction:ltr;text-orientation:mixed;dominant-baseline:auto;baseline-shift:baseline;text-anchor:start;white-space:normal;shape-padding:0;clip-rule:nonzero;display:inline;overflow:visible;visibility:visible;opacity:1;isolation:auto;mix-blend-mode:normal;color-interpolation:sRGB;color-interpolation-filters:linearRGB;solid-color:#000000;solid-opacity:1;vector-effect:none;fill:#000000;fill-opacity:1;fill-rule:nonzero;stroke:none;stroke-width:15.83362389;stroke-linecap:butt;stroke-linejoin:miter;stroke-miterlimit:4;stroke-dasharray:none;stroke-dashoffset:0;stroke-opacity:1;color-rendering:auto;image-rendering:auto;shape-rendering:auto;text-rendering:auto;enable-background:accumulate"
       d="m 352.78877,344.61381 c -7.17805,8.67355 -4.53907,18.89648 -4.53907,18.89648 l 15.66797,-2.28515 c 0,0 0.3277,-5.6183 1.07032,-6.51563 z"
       id="path9785"
       inkscape:connector-curvature="0" />
    <path
       style="color:#000000;font-style:normal;font-variant:normal;font-weight:normal;font-stretch:normal;font-size:medium;line-height:normal;font-family:sans-serif;font-variant-ligatures:normal;font-variant-position:normal;font-variant-caps:normal;font-variant-numeric:normal;font-variant-alternates:normal;font-feature-settings:normal;text-indent:0;text-align:start;text-decoration:none;text-decoration-line:none;text-decoration-style:solid;text-decoration-color:#000000;letter-spacing:normal;word-spacing:normal;text-transform:none;writing-mode:lr-tb;direction:ltr;text-orientation:mixed;dominant-baseline:auto;baseline-shift:baseline;text-anchor:start;white-space:normal;shape-padding:0;clip-rule:nonzero;display:inline;overflow:visible;visibility:visible;opacity:1;isolation:auto;mix-blend-mode:normal;color-interpolation:sRGB;color-interpolation-filters:linearRGB;solid-color:#000000;solid-opacity:1;vector-effect:none;fill:#000000;fill-opacity:1;fill-rule:nonzero;stroke:none;stroke-width:15.83362389;stroke-linecap:butt;stroke-linejoin:miter;stroke-miterlimit:4;stroke-dasharray:none;stroke-dashoffset:0;stroke-opacity:1;color-rendering:auto;image-rendering:auto;shape-rendering:auto;text-rendering:auto;enable-background:accumulate"
       d="m 307.30244,350.4849 -11.67188,10.69922 c 0,0 7.77316,9.0946 10.08789,15.04688 l 14.75782,-5.73828 C 316.25688,359.6427 307.30244,350.4849 307.30244,350.4849 Z"
       id="path9787"
       inkscape:connector-curvature="0" />
    <path
       style="color:#000000;font-style:normal;font-variant:normal;font-weight:normal;font-stretch:normal;font-size:medium;line-height:normal;font-family:sans-serif;font-variant-ligatures:normal;font-variant-position:normal;font-variant-caps:normal;font-variant-numeric:normal;font-variant-alternates:normal;font-feature-settings:normal;text-indent:0;text-align:start;text-decoration:none;text-decoration-line:none;text-decoration-style:solid;text-decoration-color:#000000;letter-spacing:normal;word-spacing:normal;text-transform:none;writing-mode:lr-tb;direction:ltr;text-orientation:mixed;dominant-baseline:auto;baseline-shift:baseline;text-anchor:start;white-space:normal;shape-padding:0;clip-rule:nonzero;display:inline;overflow:visible;visibility:visible;opacity:1;isolation:auto;mix-blend-mode:normal;color-interpolation:sRGB;color-interpolation-filters:linearRGB;solid-color:#000000;solid-opacity:1;vector-effect:none;fill:#000000;fill-opacity:1;fill-rule:nonzero;stroke:none;stroke-width:15.83362389;stroke-linecap:butt;stroke-linejoin:miter;stroke-miterlimit:4;stroke-dasharray:none;stroke-dashoffset:0;stroke-opacity:1;color-rendering:auto;image-rendering:auto;shape-rendering:auto;text-rendering:auto;enable-background:accumulate"
       d="m 399.60908,349.6685 c -5.19915,2.27461 -8.13277,6.56878 -10.05469,11.14062 -1.92192,4.57185 -2.79125,9.76069 -2.30859,15.14063 0.48265,5.37993 2.42249,11.05367 6.53711,15.69922 4.11462,4.64554 10.3399,7.92963 17.85547,8.92968 l 2.08789,-15.69531 c -4.39633,-0.585 -6.58663,-2.03524 -8.08985,-3.73242 -1.50321,-1.69718 -2.3822,-3.97616 -2.61914,-6.61719 -0.23694,-2.64103 0.27386,-5.54192 1.13477,-7.58984 0.86091,-2.04792 2.11245,-2.90308 1.80273,-2.76758 z"
       id="path9789"
       inkscape:connector-curvature="0" />
    <path
       style="color:#000000;font-style:normal;font-variant:normal;font-weight:normal;font-stretch:normal;font-size:medium;line-height:normal;font-family:sans-serif;font-variant-ligatures:normal;font-variant-position:normal;font-variant-caps:normal;font-variant-numeric:normal;font-variant-alternates:normal;font-feature-settings:normal;text-indent:0;text-align:start;text-decoration:none;text-decoration-line:none;text-decoration-style:solid;text-decoration-color:#000000;letter-spacing:normal;word-spacing:normal;text-transform:none;writing-mode:lr-tb;direction:ltr;text-orientation:mixed;dominant-baseline:auto;baseline-shift:baseline;text-anchor:start;white-space:normal;shape-padding:0;clip-rule:nonzero;display:inline;overflow:visible;visibility:visible;opacity:1;isolation:auto;mix-blend-mode:normal;color-interpolation:sRGB;color-interpolation-filters:linearRGB;solid-color:#000000;solid-opacity:1;vector-effect:none;fill:#000000;fill-opacity:1;fill-rule:nonzero;stroke:none;stroke-width:15.83362389;stroke-linecap:butt;stroke-linejoin:miter;stroke-miterlimit:4;stroke-dasharray:none;stroke-dashoffset:0;stroke-opacity:1;color-rendering:auto;image-rendering:auto;shape-rendering:auto;text-rendering:auto;enable-background:accumulate"
       d="m 347.73603,445.981 c -10.17943,-0.21164 -21.0708,0.12717 -32.01758,1.40429 l -0.30468,0.0352 -0.30274,0.0586 c 0,0 -8.43325,1.64919 -19.08398,2.25782 -10.65074,0.60862 -23.41617,-0.27449 -30.10156,-3.49024 l -6.86329,14.26953 c 11.75048,5.6521 26.05651,5.70225 37.86719,5.02735 11.2885,-0.64507 19.8988,-2.28467 20.68164,-2.43555 40.20551,-4.67702 81.27735,4.52734 81.27735,4.52734 l 3.51562,-15.43945 c 0,0 -24.12968,-5.57994 -54.66797,-6.21484 z"
       id="path9791"
       inkscape:connector-curvature="0" />
    <path
       style="color:#000000;font-style:normal;font-variant:normal;font-weight:normal;font-stretch:normal;font-size:medium;line-height:normal;font-family:sans-serif;font-variant-ligatures:normal;font-variant-position:normal;font-variant-caps:normal;font-variant-numeric:normal;font-variant-alternates:normal;font-feature-settings:normal;text-indent:0;text-align:start;text-decoration:none;text-decoration-line:none;text-decoration-style:solid;text-decoration-color:#000000;letter-spacing:normal;word-spacing:normal;text-transform:none;writing-mode:lr-tb;direction:ltr;text-orientation:mixed;dominant-baseline:auto;baseline-shift:baseline;text-anchor:start;white-space:normal;shape-padding:0;clip-rule:nonzero;display:inline;overflow:visible;visibility:visible;opacity:1;isolation:auto;mix-blend-mode:normal;color-interpolation:sRGB;color-interpolation-filters:linearRGB;solid-color:#000000;solid-opacity:1;vector-effect:none;fill:#000000;fill-opacity:1;fill-rule:nonzero;stroke:none;stroke-width:15.83362389;stroke-linecap:butt;stroke-linejoin:miter;stroke-miterlimit:4;stroke-dasharray:none;stroke-dashoffset:0;stroke-opacity:1;color-rendering:auto;image-rendering:auto;shape-rendering:auto;text-rendering:auto;enable-background:accumulate"
       d="m 273.90205,481.92631 -9.89258,12.36523 c 12.29813,9.8385 30.97513,14.18368 31.47461,14.29883 15.64808,4.56472 70.82812,21.41211 70.82812,21.41211 l 0.16211,0.0508 0.16602,0.043 c 17.7043,4.58416 29.20945,10.42718 36.18359,14.94922 6.97414,4.52204 8.94532,7.13672 8.94532,7.13672 l 12.29296,-9.97656 c 0,0 -4.19411,-4.98067 -12.625,-10.44727 -8.43088,-5.4666 -21.56933,-12.00357 -40.82812,-16.99023 l 0.32812,0.0918 c 0,0 -54.98846,-16.79507 -71.05273,-21.48046 l -0.0996,-0.0293 -0.10156,-0.0273 c 0,0 -18.44368,-5.52643 -25.78125,-11.39648 z"
       id="path9793"
       inkscape:connector-curvature="0" />
    <path
       style="color:#000000;font-style:normal;font-variant:normal;font-weight:normal;font-stretch:normal;font-size:medium;line-height:normal;font-family:sans-serif;font-variant-ligatures:normal;font-variant-position:normal;font-variant-caps:normal;font-variant-numeric:normal;font-variant-alternates:normal;font-feature-settings:normal;text-indent:0;text-align:start;text-decoration:none;text-decoration-line:none;text-decoration-style:solid;text-decoration-color:#000000;letter-spacing:normal;word-spacing:normal;text-transform:none;writing-mode:lr-tb;direction:ltr;text-orientation:mixed;dominant-baseline:auto;baseline-shift:baseline;text-anchor:start;white-space:normal;shape-padding:0;clip-rule:nonzero;display:inline;overflow:visible;visibility:visible;opacity:1;isolation:auto;mix-blend-mode:normal;color-interpolation:sRGB;color-interpolation-filters:linearRGB;solid-color:#000000;solid-opacity:1;vector-effect:none;fill:#000000;fill-opacity:1;fill-rule:nonzero;stroke:none;stroke-width:15.83362389;stroke-linecap:butt;stroke-linejoin:miter;stroke-miterlimit:4;stroke-dasharray:none;stroke-dashoffset:0;stroke-opacity:1;color-rendering:auto;image-rendering:auto;shape-rendering:auto;text-rendering:auto;enable-background:accumulate"
       d="m 316.72041,569.29936 -12.36328,9.89258 c 2.86133,3.57669 7.66201,12.6738 11.19531,20.38281 2.4913,5.43556 3.33409,7.64128 4.30469,10.02148 -1.36325,0.90852 -3.29317,1.9408 -5.36719,2.81055 -4.46506,1.87244 -8.8711,3.00976 -8.87109,3.00976 l -5.08985,1.29493 -0.78711,5.19336 c -1.22216,8.06631 0.6927,16.73235 2.46485,24.38281 1.77214,7.65046 3.76171,13.86523 3.76171,13.86523 l 1.17969,3.69141 3.63867,1.33203 c 29.46915,10.79394 48.62478,10.4642 60.97266,6.39844 6.17394,-2.03289 10.53194,-5.0032 13.3418,-7.63477 1.7945,-1.68064 2.87756,-3.17875 3.58789,-4.25781 3.67368,-3.81928 6.48364,-8.7003 9.61719,-14.5957 3.33855,-6.28112 6.68997,-13.48836 9.71093,-20.35938 6.04192,-13.74204 10.76563,-26.18164 10.76563,-26.18164 l -14.80274,-5.62305 c 0,0 -4.60856,12.12959 -10.45703,25.43164 -2.92423,6.65103 -6.15864,13.58396 -9.19726,19.30079 -3.03863,5.71682 -6.27515,10.39367 -7.34571,11.42968 l -0.93945,0.90821 -0.59766,1.16211 c 0,0 0.0896,0.0525 -1.16406,1.22656 -1.25362,1.17407 -3.49626,2.84564 -7.4707,4.15429 -7.55867,2.48884 -21.92419,3.5369 -46.77344,-4.95117 -0.63049,-2.09505 -1.27026,-3.9838 -2.40234,-8.87109 -1.13398,-4.89544 -1.76817,-9.94109 -2.02735,-13.89648 1.61294,-0.54849 3.13498,-1.02322 5.00782,-1.8086 2.88292,-1.20897 5.92938,-2.67557 8.78515,-4.6914 2.85577,-2.01584 5.95822,-4.58308 7.25977,-9.35547 l 0.69336,-2.54102 -0.9668,-2.45117 c 0,0 -2.71017,-6.85984 -6.4375,-14.99219 -3.72733,-8.13235 -8.16723,-17.35353 -13.22656,-23.67773 z"
       id="path9795"
       inkscape:connector-curvature="0" />
    <path
       style="color:#000000;font-style:normal;font-variant:normal;font-weight:normal;font-stretch:normal;font-size:medium;line-height:normal;font-family:sans-serif;font-variant-ligatures:normal;font-variant-position:normal;font-variant-caps:normal;font-variant-numeric:normal;font-variant-alternates:normal;font-feature-settings:normal;text-indent:0;text-align:start;text-decoration:none;text-decoration-line:none;text-decoration-style:solid;text-decoration-color:#000000;letter-spacing:normal;word-spacing:normal;text-transform:none;writing-mode:lr-tb;direction:ltr;text-orientation:mixed;dominant-baseline:auto;baseline-shift:baseline;text-anchor:start;white-space:normal;shape-padding:0;clip-rule:nonzero;display:inline;overflow:visible;visibility:visible;opacity:1;isolation:auto;mix-blend-mode:normal;color-interpolation:sRGB;color-interpolation-filters:linearRGB;solid-color:#000000;solid-opacity:1;vector-effect:none;fill:#000000;fill-opacity:1;fill-rule:nonzero;stroke:none;stroke-width:15.83362389;stroke-linecap:butt;stroke-linejoin:miter;stroke-miterlimit:4;stroke-dasharray:none;stroke-dashoffset:0;stroke-opacity:1;color-rendering:auto;image-rendering:auto;shape-rendering:auto;text-rendering:auto;enable-background:accumulate"
       d="m 370.68916,596.05326 c -11.29537,8.80155 -20.78449,10.31765 -27.62305,10.05078 -6.83856,-0.26686 -10.33203,-2.21679 -10.33203,-2.21679 l -7.42773,13.98242 c 0,0 7.0672,3.66151 17.14257,4.05469 10.07537,0.39317 23.85582,-2.38077 37.97266,-13.38086 z"
       id="path9797"
       inkscape:connector-curvature="0" />
    <path
       style="color:#000000;font-style:normal;font-variant:normal;font-weight:normal;font-stretch:normal;font-size:medium;line-height:normal;font-family:sans-serif;font-variant-ligatures:normal;font-variant-position:normal;font-variant-caps:normal;font-variant-numeric:normal;font-variant-alternates:normal;font-feature-settings:normal;text-indent:0;text-align:start;text-decoration:none;text-decoration-line:none;text-decoration-style:solid;text-decoration-color:#000000;letter-spacing:normal;word-spacing:normal;text-transform:none;writing-mode:lr-tb;direction:ltr;text-orientation:mixed;dominant-baseline:auto;baseline-shift:baseline;text-anchor:start;white-space:normal;shape-padding:0;clip-rule:nonzero;display:inline;overflow:visible;visibility:visible;opacity:1;isolation:auto;mix-blend-mode:normal;color-interpolation:sRGB;color-interpolation-filters:linearRGB;solid-color:#000000;solid-opacity:1;vector-effect:none;fill:#000000;fill-opacity:1;fill-rule:nonzero;stroke:none;stroke-width:15.83362389;stroke-linecap:butt;stroke-linejoin:miter;stroke-miterlimit:4;stroke-dasharray:none;stroke-dashoffset:0;stroke-opacity:1;color-rendering:auto;image-rendering:auto;shape-rendering:auto;text-rendering:auto;enable-background:accumulate"
       d="m 321.42939,608.62944 c -3.87115,13.065 2.86631,25.07367 9.05078,33.80468 6.18448,8.73102 13.02149,14.90039 13.02149,14.90039 l 10.64258,-11.72265 c 0,0 -5.7057,-5.21974 -10.74219,-12.33008 -5.03649,-7.11034 -8.20035,-15.39786 -6.79102,-20.1543 z"
       id="path9799"
       inkscape:connector-curvature="0" />
    <path
       style="color:#000000;font-style:normal;font-variant:normal;font-weight:normal;font-stretch:normal;font-size:medium;line-height:normal;font-family:sans-serif;font-variant-ligatures:normal;font-variant-position:normal;font-variant-caps:normal;font-variant-numeric:normal;font-variant-alternates:normal;font-feature-settings:normal;text-indent:0;text-align:start;text-decoration:none;text-decoration-line:none;text-decoration-style:solid;text-decoration-color:#000000;letter-spacing:normal;word-spacing:normal;text-transform:none;writing-mode:lr-tb;direction:ltr;text-orientation:mixed;dominant-baseline:auto;baseline-shift:baseline;text-anchor:start;white-space:normal;shape-padding:0;clip-rule:nonzero;display:inline;overflow:visible;visibility:visible;opacity:1;isolation:auto;mix-blend-mode:normal;color-interpolation:sRGB;color-interpolation-filters:linearRGB;solid-color:#000000;solid-opacity:1;vector-effect:none;fill:#000000;fill-opacity:1;fill-rule:nonzero;stroke:none;stroke-width:15.83362389;stroke-linecap:butt;stroke-linejoin:miter;stroke-miterlimit:4;stroke-dasharray:none;stroke-dashoffset:0;stroke-opacity:1;color-rendering:auto;image-rendering:auto;shape-rendering:auto;text-rendering:auto;enable-background:accumulate"
       d="m 257.27119,601.45951 -3.0332,15.53907 c 0,0 10.02101,1.95684 21.39843,4.63867 11.37743,2.68182 24.82111,6.64529 28.22852,8.44922 l 7.4082,-13.99219 c -7.8135,-4.13656 -20.27936,-7.10354 -32.0039,-9.86719 -11.72455,-2.76365 -21.99805,-4.76758 -21.99805,-4.76758 z"
       id="path9801"
       inkscape:connector-curvature="0" />
    <path
       style="color:#000000;font-style:normal;font-variant:normal;font-weight:normal;font-stretch:normal;font-size:medium;line-height:normal;font-family:sans-serif;font-variant-ligatures:normal;font-variant-position:normal;font-variant-caps:normal;font-variant-numeric:normal;font-variant-alternates:normal;font-feature-settings:normal;text-indent:0;text-align:start;text-decoration:none;text-decoration-line:none;text-decoration-style:solid;text-decoration-color:#000000;letter-spacing:normal;word-spacing:normal;text-transform:none;writing-mode:lr-tb;direction:ltr;text-orientation:mixed;dominant-baseline:auto;baseline-shift:baseline;text-anchor:start;white-space:normal;shape-padding:0;clip-rule:nonzero;display:inline;overflow:visible;visibility:visible;opacity:1;isolation:auto;mix-blend-mode:normal;color-interpolation:sRGB;color-interpolation-filters:linearRGB;solid-color:#000000;solid-opacity:1;vector-effect:none;fill:#000000;fill-opacity:1;fill-rule:nonzero;stroke:none;stroke-width:15.83362389;stroke-linecap:butt;stroke-linejoin:miter;stroke-miterlimit:4;stroke-dasharray:none;stroke-dashoffset:0;stroke-opacity:1;color-rendering:auto;image-rendering:auto;shape-rendering:auto;text-rendering:auto;enable-background:accumulate"
       d="m 318.08564,651.28178 -9.15234,12.92187 c 0,0 1.02673,0.65453 3.32617,3.33008 2.29944,2.67556 5.41931,7.04371 8.26367,13.58203 5.68872,13.07665 10.38107,34.93149 4.32813,69.65625 l 15.59961,2.71875 c 6.48812,-37.22129 1.60916,-62.56059 -5.40821,-78.6914 -3.50868,-8.06541 -7.52623,-13.80533 -10.77539,-17.58594 -3.24916,-3.78062 -6.18164,-5.93164 -6.18164,-5.93164 z"
       id="path9803"
       inkscape:connector-curvature="0" />
    <path
       style="color:#000000;font-style:normal;font-variant:normal;font-weight:normal;font-stretch:normal;font-size:medium;line-height:normal;font-family:sans-serif;font-variant-ligatures:normal;font-variant-position:normal;font-variant-caps:normal;font-variant-numeric:normal;font-variant-alternates:normal;font-feature-settings:normal;text-indent:0;text-align:start;text-decoration:none;text-decoration-line:none;text-decoration-style:solid;text-decoration-color:#000000;letter-spacing:normal;word-spacing:normal;text-transform:none;writing-mode:lr-tb;direction:ltr;text-orientation:mixed;dominant-baseline:auto;baseline-shift:baseline;text-anchor:start;white-space:normal;shape-padding:0;clip-rule:nonzero;display:inline;overflow:visible;visibility:visible;opacity:1;isolation:auto;mix-blend-mode:normal;color-interpolation:sRGB;color-interpolation-filters:linearRGB;solid-color:#000000;solid-opacity:1;vector-effect:none;fill:#000000;fill-opacity:1;fill-rule:nonzero;stroke:none;stroke-width:15.83362389;stroke-linecap:butt;stroke-linejoin:miter;stroke-miterlimit:4;stroke-dasharray:none;stroke-dashoffset:0;stroke-opacity:1;color-rendering:auto;image-rendering:auto;shape-rendering:auto;text-rendering:auto;enable-background:accumulate"
       d="m 224.37666,482.18022 c -24.90791,1.11526 -38.65481,16.25226 -44.20704,30.13281 -5.55222,13.88055 -4.59179,27.12109 -4.59179,27.12109 l 15.80078,-1.00195 c 0,0 -0.5264,-10.19181 3.49219,-20.23828 4.01859,-10.04647 10.89895,-19.33043 30.21484,-20.19531 z"
       id="path9805"
       inkscape:connector-curvature="0" />
    <path
       style="color:#000000;font-style:normal;font-variant:normal;font-weight:normal;font-stretch:normal;font-size:medium;line-height:normal;font-family:sans-serif;font-variant-ligatures:normal;font-variant-position:normal;font-variant-caps:normal;font-variant-numeric:normal;font-variant-alternates:normal;font-feature-settings:normal;text-indent:0;text-align:start;text-decoration:none;text-decoration-line:none;text-decoration-style:solid;text-decoration-color:#000000;letter-spacing:normal;word-spacing:normal;text-transform:none;writing-mode:lr-tb;direction:ltr;text-orientation:mixed;dominant-baseline:auto;baseline-shift:baseline;text-anchor:start;white-space:normal;shape-padding:0;clip-rule:nonzero;display:inline;overflow:visible;visibility:visible;opacity:1;isolation:auto;mix-blend-mode:normal;color-interpolation:sRGB;color-interpolation-filters:linearRGB;solid-color:#000000;solid-opacity:1;vector-effect:none;fill:#000000;fill-opacity:1;fill-rule:nonzero;stroke:none;stroke-width:15.83362389;stroke-linecap:butt;stroke-linejoin:miter;stroke-miterlimit:4;stroke-dasharray:none;stroke-dashoffset:0;stroke-opacity:1;color-rendering:auto;image-rendering:auto;shape-rendering:auto;text-rendering:auto;enable-background:accumulate"
       d="m 209.65791,461.14311 c -25.22117,3.90752 -39.91691,15.41228 -47.58204,26.27929 -7.66512,10.86701 -8.60156,21.51368 -8.60156,21.51368 l 15.78321,1.25 c 0,0 0.38485,-6.02214 5.75585,-13.63672 5.37101,-7.61459 15.4255,-16.40664 37.06837,-19.75977 z"
       id="path9807"
       inkscape:connector-curvature="0" />
    <path
       style="color:#000000;font-style:normal;font-variant:normal;font-weight:normal;font-stretch:normal;font-size:medium;line-height:normal;font-family:sans-serif;font-variant-ligatures:normal;font-variant-position:normal;font-variant-caps:normal;font-variant-numeric:normal;font-variant-alternates:normal;font-feature-settings:normal;text-indent:0;text-align:start;text-decoration:none;text-decoration-line:none;text-decoration-style:solid;text-decoration-color:#000000;letter-spacing:normal;word-spacing:normal;text-transform:none;writing-mode:lr-tb;direction:ltr;text-orientation:mixed;dominant-baseline:auto;baseline-shift:baseline;text-anchor:start;white-space:normal;shape-padding:0;clip-rule:nonzero;display:inline;overflow:visible;visibility:visible;opacity:1;isolation:auto;mix-blend-mode:normal;color-interpolation:sRGB;color-interpolation-filters:linearRGB;solid-color:#000000;solid-opacity:1;vector-effect:none;fill:#000000;fill-opacity:1;fill-rule:nonzero;stroke:none;stroke-width:25.47543716;stroke-linecap:butt;stroke-linejoin:miter;stroke-miterlimit:4;stroke-dasharray:none;stroke-dashoffset:0;stroke-opacity:1;color-rendering:auto;image-rendering:auto;shape-rendering:auto;text-rendering:auto;enable-background:accumulate"
       d="m 338.22289,-216.16881 c -98.1555,-0.0203 -165.59304,39.39244 -204.38,98.35235 C 95.048473,-58.8452 84.229344,18.15708 92.708196,94.37905 c 8.478854,76.22194 36.296534,151.99829 77.368144,209.54614 19.93509,27.93227 43.22144,51.75122 69.10129,68.82649 l 4.96743,-14.3446 168.8784,1.37936 4.55331,13.13951 c 26.38996,-17.3635 50.06712,-41.74744 70.3019,-70.36433 40.82892,-57.74212 68.59868,-133.4902 77.82006,-209.52281 9.22141,-76.03265 -0.0189,-152.62407 -35.84382,-211.36175 -35.81787,-58.72565 -99.28518,-98.16941 -191.57748,-97.84587 z m 0.0399,25.4725 h 0.0318 0.0238 c 85.2537,-0.31385 138.13332,33.73133 169.79067,85.63558 31.65734,51.90426 41.02234,123.10643 32.29838,195.03722 -8.72391,71.93077 -35.44609,144.3127 -73.32398,197.88133 -17.43763,24.66102 -37.03797,45.17022 -58.18148,60.15391 0.17355,4.33521 0.55931,3.72721 4.12123,11.77471 l -168.87841,-1.37936 3.96504,-10.39769 c -20.7907,-14.72542 -40.10031,-34.78707 -57.29634,-58.88144 -38.059,-53.32349 -64.78644,-125.62476 -72.78865,-197.56189 -8.00221,-71.93707 2.76106,-143.17218 37.10616,-195.38004 34.3451,-52.20788 91.58361,-86.91533 183.13082,-86.88233 z"
       id="path10-9-9-0-3-4-7"
       inkscape:connector-curvature="0"
       sodipodi:nodetypes="csssccccssccccccssscccccsscc" />
    <path
       style="color:#000000;font-style:normal;font-variant:normal;font-weight:normal;font-stretch:normal;font-size:medium;line-height:normal;font-family:sans-serif;font-variant-ligatures:normal;font-variant-position:normal;font-variant-caps:normal;font-variant-numeric:normal;font-variant-alternates:normal;font-feature-settings:normal;text-indent:0;text-align:start;text-decoration:none;text-decoration-line:none;text-decoration-style:solid;text-decoration-color:#000000;letter-spacing:normal;word-spacing:normal;text-transform:none;writing-mode:lr-tb;direction:ltr;text-orientation:mixed;dominant-baseline:auto;baseline-shift:baseline;text-anchor:start;white-space:normal;shape-padding:0;clip-rule:nonzero;display:inline;overflow:visible;visibility:visible;opacity:1;isolation:auto;mix-blend-mode:normal;color-interpolation:sRGB;color-interpolation-filters:linearRGB;solid-color:#000000;solid-opacity:1;vector-effect:none;fill:#000000;fill-opacity:1;fill-rule:nonzero;stroke:none;stroke-width:13.22651386;stroke-linecap:butt;stroke-linejoin:miter;stroke-miterlimit:4;stroke-dasharray:none;stroke-dashoffset:0;stroke-opacity:1;color-rendering:auto;image-rendering:auto;shape-rendering:auto;text-rendering:auto;enable-background:accumulate"
       d="m 238.73994,-24.28267 c -13.15021,0.11362 -23.7811,5.39943 -30.62695,13.30664 -6.85654,7.91954 -10.04545,18.1405 -9.95313,28.20507 0.0923,10.06458 3.46205,20.16407 10.40234,27.84375 6.92819,7.6663 17.56605,12.5744 30.44336,12.16016 12.58787,-0.0456 22.82874,-5.39819 29.33399,-13.29297 6.53312,-7.9286 9.53367,-18.08349 9.46875,-28.0957 -0.0649,-10.01221 -3.19318,-20.07174 -9.79688,-27.80469 -6.57937,-7.70446 -16.86088,-12.739 -29.27148,-12.32226 z m 0.35156,13.21679 c 8.86926,-0.32628 14.6562,2.76881 18.86328,7.69532 4.20708,4.9265 6.58183,12.04115 6.62891,19.30078 0.0471,7.25962 -2.23147,14.47424 -6.45313,19.59765 -4.22165,5.12341 -10.15564,8.48633 -19.2832,8.48633 h -0.11133 l -0.11133,0.004 c -9.49336,0.31891 -15.79233,-2.88189 -20.25,-7.81446 -4.45766,-4.93257 -6.92459,-11.93923 -6.99023,-19.0957 -0.0656,-7.15647 2.26608,-14.27151 6.72852,-19.42578 4.46243,-5.15427 10.92897,-8.67115 20.7832,-8.74414 h 0.0977 z"
       id="path87-7"
       inkscape:connector-curvature="0" />
    <path
       style="color:#000000;font-style:normal;font-variant:normal;font-weight:normal;font-stretch:normal;font-size:medium;line-height:normal;font-family:sans-serif;font-variant-ligatures:normal;font-variant-position:normal;font-variant-caps:normal;font-variant-numeric:normal;font-variant-alternates:normal;font-feature-settings:normal;text-indent:0;text-align:start;text-decoration:none;text-decoration-line:none;text-decoration-style:solid;text-decoration-color:#000000;letter-spacing:normal;word-spacing:normal;text-transform:none;writing-mode:lr-tb;direction:ltr;text-orientation:mixed;dominant-baseline:auto;baseline-shift:baseline;text-anchor:start;white-space:normal;shape-padding:0;clip-rule:nonzero;display:inline;overflow:visible;visibility:visible;opacity:1;isolation:auto;mix-blend-mode:normal;color-interpolation:sRGB;color-interpolation-filters:linearRGB;solid-color:#000000;solid-opacity:1;vector-effect:none;fill:#000000;fill-opacity:1;fill-rule:nonzero;stroke:none;stroke-width:13.22651386;stroke-linecap:butt;stroke-linejoin:miter;stroke-miterlimit:4;stroke-dasharray:none;stroke-dashoffset:0;stroke-opacity:1;color-rendering:auto;image-rendering:auto;shape-rendering:auto;text-rendering:auto;enable-background:accumulate"
       d="m 238.12861,-41.22017 c -24.83964,0.66354 -48.55445,12.64182 -77.31836,34.0039 l 7.88477,10.61914 c 27.86391,-20.69369 48.98734,-30.84476 69.78711,-31.40039 20.79976,-0.55562 42.60248,8.41249 72.0039,28.84961 l 7.54883,-10.86133 c -30.42857,-21.1511 -55.06661,-31.87448 -79.90625,-31.21093 z"
       id="path59-19"
       inkscape:connector-curvature="0" />
    <path
       style="color:#000000;font-style:normal;font-variant:normal;font-weight:normal;font-stretch:normal;font-size:medium;line-height:normal;font-family:sans-serif;font-variant-ligatures:normal;font-variant-position:normal;font-variant-caps:normal;font-variant-numeric:normal;font-variant-alternates:normal;font-feature-settings:normal;text-indent:0;text-align:start;text-decoration:none;text-decoration-line:none;text-decoration-style:solid;text-decoration-color:#000000;letter-spacing:normal;word-spacing:normal;text-transform:none;writing-mode:lr-tb;direction:ltr;text-orientation:mixed;dominant-baseline:auto;baseline-shift:baseline;text-anchor:start;white-space:normal;shape-padding:0;clip-rule:nonzero;display:inline;overflow:visible;visibility:visible;opacity:1;isolation:auto;mix-blend-mode:normal;color-interpolation:sRGB;color-interpolation-filters:linearRGB;solid-color:#000000;solid-opacity:1;vector-effect:none;fill:#000000;fill-opacity:1;fill-rule:nonzero;stroke:none;stroke-width:13.22651386;stroke-linecap:butt;stroke-linejoin:miter;stroke-miterlimit:4;stroke-dasharray:none;stroke-dashoffset:0;stroke-opacity:1;color-rendering:auto;image-rendering:auto;shape-rendering:auto;text-rendering:auto;enable-background:accumulate"
       d="m 418.32392,-26.16744 c -13.1502,0.11363 -23.78109,5.39944 -30.62695,13.30664 -6.85654,7.91955 -10.04739,18.13855 -9.95508,28.20313 0.0923,10.06457 3.46401,20.16406 10.4043,27.84375 6.92819,7.66629 17.56409,12.57438 30.4414,12.16015 12.58879,-0.045 22.82838,-5.39777 29.33399,-13.29297 6.53313,-7.9286 9.53563,-18.08349 9.4707,-28.0957 -0.0649,-10.01221 -3.19316,-20.06978 -9.79687,-27.80273 -6.57904,-7.70407 -16.86173,-12.73841 -29.27149,-12.32227 z m 0.34961,13.21484 c 8.86929,-0.32627 14.6562,2.76881 18.86328,7.69532 4.20709,4.9265 6.58183,12.04116 6.62891,19.30078 0.0471,7.25962 -2.22951,14.4762 -6.45117,19.59961 -4.22167,5.1234 -10.15563,8.48437 -19.2832,8.48437 h -0.11133 l -0.11133,0.004 c -9.49338,0.31891 -15.79233,-2.88188 -20.25,-7.81445 -4.45767,-4.93258 -6.9246,-11.93924 -6.99024,-19.09571 -0.0656,-7.15646 2.26608,-14.27151 6.72852,-19.42578 4.46244,-5.15427 10.92897,-8.67115 20.7832,-8.74414 h 0.0977 z"
       id="path87-1-33"
       inkscape:connector-curvature="0" />
    <path
       style="color:#000000;font-style:normal;font-variant:normal;font-weight:normal;font-stretch:normal;font-size:medium;line-height:normal;font-family:sans-serif;font-variant-ligatures:normal;font-variant-position:normal;font-variant-caps:normal;font-variant-numeric:normal;font-variant-alternates:normal;font-feature-settings:normal;text-indent:0;text-align:start;text-decoration:none;text-decoration-line:none;text-decoration-style:solid;text-decoration-color:#000000;letter-spacing:normal;word-spacing:normal;text-transform:none;writing-mode:lr-tb;direction:ltr;text-orientation:mixed;dominant-baseline:auto;baseline-shift:baseline;text-anchor:start;white-space:normal;shape-padding:0;clip-rule:nonzero;display:inline;overflow:visible;visibility:visible;opacity:1;isolation:auto;mix-blend-mode:normal;color-interpolation:sRGB;color-interpolation-filters:linearRGB;solid-color:#000000;solid-opacity:1;vector-effect:none;fill:#000000;fill-opacity:1;fill-rule:nonzero;stroke:none;stroke-width:13.22651386;stroke-linecap:butt;stroke-linejoin:miter;stroke-miterlimit:4;stroke-dasharray:none;stroke-dashoffset:0;stroke-opacity:1;color-rendering:auto;image-rendering:auto;shape-rendering:auto;text-rendering:auto;enable-background:accumulate"
       d="m 419.21845,-42.85103 c -24.78731,0.0504 -49.04703,11.39843 -78.85156,33.76953 l 7.93946,10.57812 c 28.76979,-21.59444 50.16394,-31.07883 70.9375,-31.12109 20.77355,-0.0423 42.24544,9.444 70.91796,28.6543 l 7.36328,-10.98829 c -29.52525,-19.78161 -53.51933,-30.94299 -78.30664,-30.89257 z"
       id="path59-1-9"
       inkscape:connector-curvature="0" />
    <path
       style="color:#000000;font-style:normal;font-variant:normal;font-weight:normal;font-stretch:normal;font-size:medium;line-height:normal;font-family:sans-serif;font-variant-ligatures:normal;font-variant-position:normal;font-variant-caps:normal;font-variant-numeric:normal;font-variant-alternates:normal;font-feature-settings:normal;text-indent:0;text-align:start;text-decoration:none;text-decoration-line:none;text-decoration-style:solid;text-decoration-color:#000000;letter-spacing:normal;word-spacing:normal;text-transform:none;writing-mode:lr-tb;direction:ltr;text-orientation:mixed;dominant-baseline:auto;baseline-shift:baseline;text-anchor:start;white-space:normal;shape-padding:0;clip-rule:nonzero;display:inline;overflow:visible;visibility:visible;opacity:1;isolation:auto;mix-blend-mode:normal;color-interpolation:sRGB;color-interpolation-filters:linearRGB;solid-color:#000000;solid-opacity:1;vector-effect:none;fill:#000000;fill-opacity:1;fill-rule:nonzero;stroke:none;stroke-width:13.22651386;stroke-linecap:butt;stroke-linejoin:miter;stroke-miterlimit:4;stroke-dasharray:none;stroke-dashoffset:0;stroke-opacity:1;color-rendering:auto;image-rendering:auto;shape-rendering:auto;text-rendering:auto;enable-background:accumulate"
       d="m 321.67939,83.68412 c 0,0 -1.49134,14.72149 -3.95898,30.18555 -1.23382,7.73203 -2.71929,15.64885 -4.31641,21.80078 -0.79856,3.07597 -1.63563,5.71762 -2.38476,7.53906 -0.74914,1.82145 -1.71636,2.77439 -1.02149,2.19532 -1.4636,1.21965 -3.01341,2.23733 -3.82422,5.48046 -0.4054,1.62157 -0.1738,4.03774 0.86133,5.72461 1.03513,1.68688 2.38076,2.51134 3.39844,2.99024 4.07072,1.91561 6.1619,1.18112 8.92969,0.99023 5.53557,-0.38177 11.52929,-1.61718 11.52929,-1.61719 l -2.59375,-12.96874 c 0,0 -2.82662,0.35978 -4.53711,0.64062 0.8771,-2.35164 1.70691,-4.80615 2.44532,-7.65039 1.78481,-6.87492 3.30485,-15.07403 4.57617,-23.04102 2.54263,-15.93397 4.05664,-30.93945 4.05664,-30.93945 z"
       id="path971-8"
       inkscape:connector-curvature="0" />
    <path
       style="color:#000000;font-style:normal;font-variant:normal;font-weight:normal;font-stretch:normal;font-size:medium;line-height:normal;font-family:sans-serif;font-variant-ligatures:normal;font-variant-position:normal;font-variant-caps:normal;font-variant-numeric:normal;font-variant-alternates:normal;font-feature-settings:normal;text-indent:0;text-align:start;text-decoration:none;text-decoration-line:none;text-decoration-style:solid;text-decoration-color:#000000;letter-spacing:normal;word-spacing:normal;text-transform:none;writing-mode:lr-tb;direction:ltr;text-orientation:mixed;dominant-baseline:auto;baseline-shift:baseline;text-anchor:start;white-space:normal;shape-padding:0;clip-rule:nonzero;display:inline;overflow:visible;visibility:visible;opacity:1;isolation:auto;mix-blend-mode:normal;color-interpolation:sRGB;color-interpolation-filters:linearRGB;solid-color:#000000;solid-opacity:1;vector-effect:none;fill:#000000;fill-opacity:1;fill-rule:nonzero;stroke:none;stroke-width:13.13049126;stroke-linecap:butt;stroke-linejoin:miter;stroke-miterlimit:4;stroke-dasharray:none;stroke-dashoffset:0;stroke-opacity:1;color-rendering:auto;image-rendering:auto;shape-rendering:auto;text-rendering:auto;enable-background:accumulate"
       d="m 247.07392,235.00444 v 13.1289 h 160.82422 v -13.1289 z"
       id="path1681"
       inkscape:connector-curvature="0" />
    <path
       inkscape:connector-curvature="0"
       style="font-style:normal;font-weight:normal;font-size:233.33332825px;line-height:1.25;font-family:sans-serif;letter-spacing:0px;word-spacing:0px;fill:#000000;fill-opacity:1;stroke:none"
       d="m 471.33789,851.60616 v 55.1425 c -5.69661,-2.9622 -11.12804,-5.1269 -16.29297,-6.4941 -5.16493,-1.4432 -11.08941,-2.1641 -17.77344,-2.1641 -7.36762,0 -14.50607,1.5185 -21.41796,4.5567 -6.83594,3.0382 -12.83703,7.4442 -18.00196,13.2168 -5.24088,5.9244 -9.41905,13.1022 -12.5332,21.5332 -3.03819,8.431 -4.55664,18.0386 -4.55664,28.8242 0,20.7357 4.44336,36.95334 13.33008,48.65044 8.96267,11.697 21.03949,17.5449 36.23047,17.5449 7.82335,0 15.07769,-1.4811 21.76171,-4.4434 6.68403,-2.9622 13.10157,-7.1011 19.25391,-12.4179 v 13.3301 h 21.41992 V 851.60616 Z m -294.85741,6.4941 v 22.2168 h 24.15429 v -22.2168 z M 61.75196,859.23896 0,1028.8855 h 22.90039 l 16.63477,-47.28334 h 73.37109 l 16.63477,47.28334 h 24.03906 l -61.75,-169.64654 z m 14.46875,19.7109 29.73632,83.2852 H 46.3711 Z m 229.80077,19.1406 c -7.51953,0 -14.84852,1.5578 -21.98828,4.6719 -7.13975,3.1142 -14.0523,7.4436 -20.73632,12.9883 v -14.1289 h -21.41797 v 127.26374 h 21.41797 v -95.01964 c 5.84852,-4.4813 11.96354,-8.1664 18.34375,-11.0527 6.3802,-2.8863 12.49522,-4.3281 18.34375,-4.3281 5.69661,0 10.32855,0.7975 13.89843,2.3925 3.56989,1.5191 6.30426,3.8724 8.20313,7.0625 1.82291,2.8863 3.07617,6.9132 3.75977,12.0782 0.6836,5.0889 1.02539,10.5577 1.02539,16.4062 v 72.46104 h 21.41993 v -82.60164 c 0,-15.5708 -3.60851,-27.4963 -10.82422,-35.7754 -7.21571,-8.2791 -17.69749,-12.418 -31.44533,-12.418 z m 272.41211,0.4551 c -7.67144,0 -15.45616,0.6836 -23.35546,2.0508 -7.89931,1.3672 -13.93772,2.6204 -18.11524,3.7598 v 21.7617 h 1.13867 c 7.36762,-2.8104 14.50803,-4.9377 21.41993,-6.3809 6.91189,-1.5191 13.17817,-2.2773 18.79882,-2.2773 4.63325,0 9.07661,0.3025 13.33008,0.9101 4.25347,0.6077 7.89931,1.7863 10.9375,3.5332 3.19011,1.8229 5.62001,4.3295 7.29102,7.5196 1.74696,3.1901 2.62109,7.215 2.62109,12.0761 v 3.3047 c -12.4566,0.6077 -24.11502,1.5191 -34.97656,2.7344 -10.86154,1.2153 -20.16666,3.5312 -27.91405,6.9492 -7.67146,3.418 -13.59592,8.1265 -17.77345,14.127 -4.10155,5.9244 -6.15234,13.7111 -6.15234,23.3574 0,11.77304 3.98762,21.45724 11.96289,29.05274 7.97527,7.5955 17.69683,11.3926 29.16602,11.3926 6.2283,0 11.65972,-0.607 16.29297,-1.8223 4.63324,-1.1393 8.73481,-2.5831 12.30469,-4.33 3.03819,-1.3672 6.15169,-3.1901 9.34179,-5.4688 3.26606,-2.3546 5.84918,-4.1775 7.74805,-5.4687 v 13.5586 h 21.30469 v -86.36144 c 0,-8.2031 -1.25326,-15.0764 -3.75977,-20.6211 -2.50651,-5.5447 -6.15234,-10.0646 -10.9375,-13.5586 -4.86111,-3.5698 -10.63238,-6.0764 -17.3164,-7.5195 -6.60808,-1.5191 -14.39475,-2.2793 -23.35744,-2.2793 z m -400.58593,3.0762 v 127.26374 h 21.41992 V 901.62176 Z m 263.07031,16.0644 c 5.39279,0 10.36849,0.495 14.92578,1.4825 4.55729,0.9874 9.72157,2.771 15.49414,5.3535 v 73.0312 c -5.39279,4.25354 -11.20334,7.74814 -17.43164,10.48244 -6.2283,2.6585 -12.38064,3.9864 -18.45703,3.9864 -11.39323,0 -19.67296,-3.9111 -24.83789,-11.7344 -5.16493,-7.89934 -7.74609,-19.40654 -7.74609,-34.52154 -10e-6,-15.3429 3.34136,-27.1918 10.02539,-35.5469 6.68402,-8.355 16.02647,-12.5332 28.02734,-12.5332 z M 612.5,962.11976 v 35.4336 c -5.31684,4.10164 -11.09006,7.63354 -17.31836,10.59574 -6.2283,2.8863 -13.10156,4.3301 -20.62109,4.3301 -9.03863,0 -15.76064,-1.8229 -20.16602,-5.4687 -4.40538,-3.7218 -6.60742,-9.22994 -6.60742,-16.52154 0,-6.4562 1.89757,-11.5065 5.69531,-15.1524 3.79775,-3.7218 8.77344,-6.4561 14.92578,-8.2031 5.16493,-1.4431 12.15213,-2.5451 20.96289,-3.3047 8.88672,-0.7595 16.59679,-1.3292 23.12891,-1.709 z"
       id="text175" />
  </g>
</svg>
