<?xml version="1.0" encoding="UTF-8" standalone="no"?>
<!-- Created with Inkscape (http://www.inkscape.org/) -->

<svg
   xmlns:dc="http://purl.org/dc/elements/1.1/"
   xmlns:cc="http://creativecommons.org/ns#"
   xmlns:rdf="http://www.w3.org/1999/02/22-rdf-syntax-ns#"
   xmlns:svg="http://www.w3.org/2000/svg"
   xmlns="http://www.w3.org/2000/svg"
   xmlns:sodipodi="http://sodipodi.sourceforge.net/DTD/sodipodi-0.dtd"
   xmlns:inkscape="http://www.inkscape.org/namespaces/inkscape"
   width="1000"
   height="1250"
   viewBox="0 0 1000 1250"
   version="1.1"
   id="svg8"
   sodipodi:docname="Aqui.svg"
   inkscape:version="0.92.4 (5da689c313, 2019-01-14)">
  <defs
     id="defs2" />
  <sodipodi:namedview
     id="base"
     pagecolor="#ffffff"
     bordercolor="#666666"
     borderopacity="1.0"
     inkscape:pageopacity="0.0"
     inkscape:pageshadow="2"
     inkscape:zoom="256"
     inkscape:cx="386.04656"
     inkscape:cy="999.36178"
     inkscape:document-units="px"
     inkscape:current-layer="layer1"
     showgrid="false"
     units="px"
     inkscape:window-width="1366"
     inkscape:window-height="715"
     inkscape:window-x="-8"
     inkscape:window-y="-8"
     inkscape:window-maximized="1" />
  <metadata
     id="metadata5">
    <rdf:RDF>
      <cc:Work
         rdf:about="">
        <dc:format>image/svg+xml</dc:format>
        <dc:type
           rdf:resource="http://purl.org/dc/dcmitype/StillImage" />
        <dc:title></dc:title>
      </cc:Work>
    </rdf:RDF>
  </metadata>
  <g
     inkscape:label="Camada 1"
     inkscape:groupmode="layer"
     id="layer1"
     transform="translate(0,217.58334)">
    <path
       style="color:#000000;font-style:normal;font-variant:normal;font-weight:normal;font-stretch:normal;font-size:medium;line-height:normal;font-family:sans-serif;font-variant-ligatures:normal;font-variant-position:normal;font-variant-caps:normal;font-variant-numeric:normal;font-variant-alternates:normal;font-feature-settings:normal;text-indent:0;text-align:start;text-decoration:none;text-decoration-line:none;text-decoration-style:solid;text-decoration-color:#000000;letter-spacing:normal;word-spacing:normal;text-transform:none;writing-mode:lr-tb;direction:ltr;text-orientation:mixed;dominant-baseline:auto;baseline-shift:baseline;text-anchor:start;white-space:normal;shape-padding:0;clip-rule:nonzero;display:inline;overflow:visible;visibility:visible;opacity:1;isolation:auto;mix-blend-mode:normal;color-interpolation:sRGB;color-interpolation-filters:linearRGB;solid-color:#000000;solid-opacity:1;vector-effect:none;fill:#000000;fill-opacity:1;fill-rule:nonzero;stroke:none;stroke-width:24.33374405;stroke-linecap:butt;stroke-linejoin:miter;stroke-miterlimit:4;stroke-dasharray:none;stroke-dashoffset:0;stroke-opacity:1;color-rendering:auto;image-rendering:auto;shape-rendering:auto;text-rendering:auto;enable-background:accumulate"
       d="m 386.09843,-217.00926 c -93.75671,-0.0194 -158.16683,37.63131 -195.21556,93.94896 -37.05583,56.328455 -47.39578,129.8754851 -39.29693,202.681595 8.09887,72.806065 34.6725,145.189365 73.90345,200.158265 39.23096,54.96889 92.04976,93.2604 152.12621,92.90253 60.04818,-0.35756 112.43682,-39.05432 151.43603,-94.20872 38.99919,-55.1544 65.51833,-127.50335 74.3265,-200.128585 8.80812,-72.6252499 -0.0152,-145.78955 -34.23548,-201.894895 -34.21266,-56.09394 -94.83603,-93.76824 -182.99229,-93.45915 z m 0.0444,24.33514 h 0.0228 0.0228 c 81.43301,-0.29976 131.94378,32.21434 162.18237,81.79253 30.23863,49.578175 39.18419,117.5876451 30.85124,186.294855 -8.33297,68.707245 -33.8564,137.843185 -70.03684,189.011165 -36.18044,51.16797 -82.10787,83.62695 -131.71704,83.9225 -49.58188,0.29536 -95.81962,-31.77152 -132.17079,-82.70539 -36.35118,-50.93383 -61.88118,-119.99358 -69.52476,-188.706865 -7.64358,-68.7132499 2.63183,-136.75324 35.43774,-186.621405 32.8059,-49.86816 87.48804,-83.01897 174.93252,-82.98739 z"
       id="path10-9-5"
       inkscape:connector-curvature="0" />
    <path
       style="color:#000000;font-style:normal;font-variant:normal;font-weight:normal;font-stretch:normal;font-size:medium;line-height:normal;font-family:sans-serif;font-variant-ligatures:normal;font-variant-position:normal;font-variant-caps:normal;font-variant-numeric:normal;font-variant-alternates:normal;font-feature-settings:normal;text-indent:0;text-align:start;text-decoration:none;text-decoration-line:none;text-decoration-style:solid;text-decoration-color:#000000;letter-spacing:normal;word-spacing:normal;text-transform:none;writing-mode:lr-tb;direction:ltr;text-orientation:mixed;dominant-baseline:auto;baseline-shift:baseline;text-anchor:start;white-space:normal;shape-padding:0;clip-rule:nonzero;display:inline;overflow:visible;visibility:visible;opacity:1;isolation:auto;mix-blend-mode:normal;color-interpolation:sRGB;color-interpolation-filters:linearRGB;solid-color:#000000;solid-opacity:1;vector-effect:none;fill:#000000;fill-opacity:1;fill-rule:nonzero;stroke:none;stroke-width:12.16687202;stroke-linecap:butt;stroke-linejoin:miter;stroke-miterlimit:4;stroke-dasharray:none;stroke-dashoffset:0;stroke-opacity:1;color-rendering:auto;image-rendering:auto;shape-rendering:auto;text-rendering:auto;enable-background:accumulate"
       d="m 296.78789,-23.248345 c -12.08105,0.11342 -21.8583,4.96371 -28.14981,12.23065 -6.30721,7.2850901 -9.23564,16.6873901 -9.15072,25.94562 0.0849,9.25824 3.18205,18.54726 9.56633,25.61165 6.36209,7.03985 16.13147,11.53283 27.94942,11.16937 11.60184,-0.0266 21.04406,-4.94325 27.03658,-12.2158 6.00973,-7.29341 8.77258,-16.63164 8.71286,-25.84172 -0.0598,-9.2100699 -2.93508,-18.4611099 -9.00971,-25.57453 -6.05589,-7.09148 -15.52942,-11.71483 -26.95495,-11.32524 z m 0.17069,12.14902 h 0.0891 0.0891 c 8.1587,-0.30014 13.48148,2.5408801 17.3515,7.0727001 3.87004,4.53182005 6.05719,11.08167 6.1005,17.7596899 0.0433,6.67802 -2.05378,13.31392 -5.93722,18.02685 -3.88344,4.71295 -9.34112,7.80744 -17.73743,7.80744 h -0.10388 -0.10389 c -8.73281,0.29335 -14.52746,-2.64664 -18.628,-7.18402 -4.10054,-4.53737 -6.36665,-10.98363 -6.42703,-17.56673 -0.0604,-6.5830999 2.08461,-13.1296399 6.18954,-17.8710099 4.10495,-4.74136 10.05306,-7.9777001 19.11783,-8.0449201 z"
       id="path87-7"
       inkscape:connector-curvature="0" />
    <path
       style="color:#000000;font-style:normal;font-variant:normal;font-weight:normal;font-stretch:normal;font-size:medium;line-height:normal;font-family:sans-serif;font-variant-ligatures:normal;font-variant-position:normal;font-variant-caps:normal;font-variant-numeric:normal;font-variant-alternates:normal;font-feature-settings:normal;text-indent:0;text-align:start;text-decoration:none;text-decoration-line:none;text-decoration-style:solid;text-decoration-color:#000000;letter-spacing:normal;word-spacing:normal;text-transform:none;writing-mode:lr-tb;direction:ltr;text-orientation:mixed;dominant-baseline:auto;baseline-shift:baseline;text-anchor:start;white-space:normal;shape-padding:0;clip-rule:nonzero;display:inline;overflow:visible;visibility:visible;opacity:1;isolation:auto;mix-blend-mode:normal;color-interpolation:sRGB;color-interpolation-filters:linearRGB;solid-color:#000000;solid-opacity:1;vector-effect:none;fill:#000000;fill-opacity:1;fill-rule:nonzero;stroke:none;stroke-width:12.16687202;stroke-linecap:butt;stroke-linejoin:miter;stroke-miterlimit:4;stroke-dasharray:none;stroke-dashoffset:0;stroke-opacity:1;color-rendering:auto;image-rendering:auto;shape-rendering:auto;text-rendering:auto;enable-background:accumulate"
       d="m 296.25354,-38.840955 c -22.84962,0.61039 -44.66833,11.63101 -71.1278,31.2817001 l 7.25825,9.76671 c 25.63158,-19.0358301 45.0627,-28.3734201 64.1961,-28.8845501 19.13341,-0.51111 39.18368,7.73956 66.2296,26.53935015 l 6.94654,-9.98936015 c -27.99078,-19.45656 -50.65306,-29.32423 -73.50269,-28.71385 z"
       id="path59-19"
       inkscape:connector-curvature="0" />
    <path
       style="color:#000000;font-style:normal;font-variant:normal;font-weight:normal;font-stretch:normal;font-size:medium;line-height:normal;font-family:sans-serif;font-variant-ligatures:normal;font-variant-position:normal;font-variant-caps:normal;font-variant-numeric:normal;font-variant-alternates:normal;font-feature-settings:normal;text-indent:0;text-align:start;text-decoration:none;text-decoration-line:none;text-decoration-style:solid;text-decoration-color:#000000;letter-spacing:normal;word-spacing:normal;text-transform:none;writing-mode:lr-tb;direction:ltr;text-orientation:mixed;dominant-baseline:auto;baseline-shift:baseline;text-anchor:start;white-space:normal;shape-padding:0;clip-rule:nonzero;display:inline;overflow:visible;visibility:visible;opacity:1;isolation:auto;mix-blend-mode:normal;color-interpolation:sRGB;color-interpolation-filters:linearRGB;solid-color:#000000;solid-opacity:1;vector-effect:none;fill:#000000;fill-opacity:1;fill-rule:nonzero;stroke:none;stroke-width:12.16687202;stroke-linecap:butt;stroke-linejoin:miter;stroke-miterlimit:4;stroke-dasharray:none;stroke-dashoffset:0;stroke-opacity:1;color-rendering:auto;image-rendering:auto;shape-rendering:auto;text-rendering:auto;enable-background:accumulate"
       d="m 461.96114,-24.977565 c -12.06931,0.12 -21.84047,4.9614 -28.12753,12.22324 -6.30724,7.2850801 -9.23568,16.6873901 -9.15075,25.94562 0.0848,9.25823 3.18208,18.54726 9.56633,25.61166 6.36212,7.03984 16.13148,11.53278 27.94944,11.16937 11.60182,-0.0266 21.04403,-4.93585 27.03656,-12.2084 6.00975,-7.29339 8.7726,-16.63905 8.71286,-25.84913 -0.0597,-9.2100799 -2.93505,-18.4611199 -9.00971,-25.57454 -6.06012,-7.0964 -15.54101,-11.71469 -26.9772,-11.31782 z m 0.19303,12.1416 h 0.0889 0.0889 c 8.15869,-0.30015 13.48144,2.54832 17.35148,7.0801401 3.87003,4.53181 6.05717,11.07424 6.10049,17.7522499 0.0433,6.67802 -2.05376,13.31392 -5.93721,18.02686 -3.88346,4.71295 -9.34109,7.80744 -17.73743,7.80744 h -0.10373 -0.10374 c -8.73281,0.29335 -14.52746,-2.64668 -18.62798,-7.18403 -4.10054,-4.53736 -6.36667,-10.98363 -6.42706,-17.56672 -0.0605,-6.5830899 2.08462,-13.12964985 6.18957,-17.8710099 4.10494,-4.74137 10.05305,-7.9777001 19.11782,-8.0449301 z"
       id="path87-1-33"
       inkscape:connector-curvature="0" />
    <path
       style="color:#000000;font-style:normal;font-variant:normal;font-weight:normal;font-stretch:normal;font-size:medium;line-height:normal;font-family:sans-serif;font-variant-ligatures:normal;font-variant-position:normal;font-variant-caps:normal;font-variant-numeric:normal;font-variant-alternates:normal;font-feature-settings:normal;text-indent:0;text-align:start;text-decoration:none;text-decoration-line:none;text-decoration-style:solid;text-decoration-color:#000000;letter-spacing:normal;word-spacing:normal;text-transform:none;writing-mode:lr-tb;direction:ltr;text-orientation:mixed;dominant-baseline:auto;baseline-shift:baseline;text-anchor:start;white-space:normal;shape-padding:0;clip-rule:nonzero;display:inline;overflow:visible;visibility:visible;opacity:1;isolation:auto;mix-blend-mode:normal;color-interpolation:sRGB;color-interpolation-filters:linearRGB;solid-color:#000000;solid-opacity:1;vector-effect:none;fill:#000000;fill-opacity:1;fill-rule:nonzero;stroke:none;stroke-width:12.16687202;stroke-linecap:butt;stroke-linejoin:miter;stroke-miterlimit:4;stroke-dasharray:none;stroke-dashoffset:0;stroke-opacity:1;color-rendering:auto;image-rendering:auto;shape-rendering:auto;text-rendering:auto;enable-background:accumulate"
       d="m 462.82943,-40.340095 c -22.80144,0.0464 -45.11373,10.48763 -72.53046,31.0664601 l 7.30279,9.72961005 C 424.06664,-19.408425 443.74988,-28.137355 462.85915,-28.176235 c 19.10923,-0.0388 38.85972,8.68995 65.23512,26.3612301 l 6.76842,-10.1081001 c -27.15983,-18.19683 -49.23177,-28.46337 -72.03326,-28.41699 z"
       id="path59-1-9"
       inkscape:connector-curvature="0" />
    <path
       style="color:#000000;font-style:normal;font-variant:normal;font-weight:normal;font-stretch:normal;font-size:medium;line-height:normal;font-family:sans-serif;font-variant-ligatures:normal;font-variant-position:normal;font-variant-caps:normal;font-variant-numeric:normal;font-variant-alternates:normal;font-feature-settings:normal;text-indent:0;text-align:start;text-decoration:none;text-decoration-line:none;text-decoration-style:solid;text-decoration-color:#000000;letter-spacing:normal;word-spacing:normal;text-transform:none;writing-mode:lr-tb;direction:ltr;text-orientation:mixed;dominant-baseline:auto;baseline-shift:baseline;text-anchor:start;white-space:normal;shape-padding:0;clip-rule:nonzero;display:inline;overflow:visible;visibility:visible;opacity:1;isolation:auto;mix-blend-mode:normal;color-interpolation:sRGB;color-interpolation-filters:linearRGB;solid-color:#000000;solid-opacity:1;vector-effect:none;fill:#000000;fill-opacity:1;fill-rule:nonzero;stroke:none;stroke-width:12.16687202;stroke-linecap:butt;stroke-linejoin:miter;stroke-miterlimit:4;stroke-dasharray:none;stroke-dashoffset:0;stroke-opacity:1;color-rendering:auto;image-rendering:auto;shape-rendering:auto;text-rendering:auto;enable-background:accumulate"
       d="m 373.11076,76.058965 c 0,0 -1.37402,13.53871 -3.64397,27.763895 -1.13498,7.11257 -2.50135,14.39385 -3.97051,20.05292 -0.73458,2.82953 -1.50765,5.26358 -2.19677,6.93911 -0.68912,1.67553 -1.57431,2.55134 -0.93511,2.01865 -1.34634,1.12197 -2.77196,2.05593 -3.5178,5.0392 -0.37291,1.49165 -0.15811,3.71755 0.7941,5.26928 0.95219,1.55173 2.18831,2.30542 3.12446,2.74597 3.74459,1.76217 5.66957,1.08842 8.21562,0.91284 5.09209,-0.3511 10.60533,-1.48429 10.60537,-1.48429 l -2.38975,-11.93381 c 0,0 -2.59814,0.33552 -4.17089,0.59372 0.8076,-2.16457 1.56893,-4.42458 2.24871,-7.043 1.64183,-6.32415 3.03853,-13.85972 4.208,-21.18841 2.33894,-14.657465 3.73301,-28.461545 3.73301,-28.461545 z"
       id="path971-8"
       inkscape:connector-curvature="0" />
    <path
       style="color:#000000;font-style:normal;font-variant:normal;font-weight:normal;font-stretch:normal;font-size:medium;line-height:normal;font-family:sans-serif;font-variant-ligatures:normal;font-variant-position:normal;font-variant-caps:normal;font-variant-numeric:normal;font-variant-alternates:normal;font-feature-settings:normal;text-indent:0;text-align:start;text-decoration:none;text-decoration-line:none;text-decoration-style:solid;text-decoration-color:#000000;letter-spacing:normal;word-spacing:normal;text-transform:none;writing-mode:lr-tb;direction:ltr;text-orientation:mixed;dominant-baseline:auto;baseline-shift:baseline;text-anchor:start;white-space:normal;shape-padding:0;clip-rule:nonzero;display:inline;overflow:visible;visibility:visible;opacity:1;isolation:auto;mix-blend-mode:normal;color-interpolation:sRGB;color-interpolation-filters:linearRGB;solid-color:#000000;solid-opacity:1;vector-effect:none;fill:#000000;fill-opacity:1;fill-rule:nonzero;stroke:none;stroke-width:12.0785408;stroke-linecap:butt;stroke-linejoin:miter;stroke-miterlimit:4;stroke-dasharray:none;stroke-dashoffset:0;stroke-opacity:1;color-rendering:auto;image-rendering:auto;shape-rendering:auto;text-rendering:auto;enable-background:accumulate"
       d="m 304.47658,215.2569 v 12.07478 H 452.41706 V 215.2569 Z"
       id="path1681"
       inkscape:connector-curvature="0" />
    <path
       style="color:#000000;font-style:normal;font-variant:normal;font-weight:normal;font-stretch:normal;font-size:medium;line-height:normal;font-family:sans-serif;font-variant-ligatures:normal;font-variant-position:normal;font-variant-caps:normal;font-variant-numeric:normal;font-variant-alternates:normal;font-feature-settings:normal;text-indent:0;text-align:start;text-decoration:none;text-decoration-line:none;text-decoration-style:solid;text-decoration-color:#000000;letter-spacing:normal;word-spacing:normal;text-transform:none;writing-mode:lr-tb;direction:ltr;text-orientation:mixed;dominant-baseline:auto;baseline-shift:baseline;text-anchor:start;white-space:normal;shape-padding:0;clip-rule:nonzero;display:inline;overflow:visible;visibility:visible;opacity:1;isolation:auto;mix-blend-mode:normal;color-interpolation:sRGB;color-interpolation-filters:linearRGB;solid-color:#000000;solid-opacity:1;vector-effect:none;fill:#000000;fill-opacity:1;fill-rule:nonzero;stroke:none;stroke-width:10.93356609;stroke-linecap:butt;stroke-linejoin:miter;stroke-miterlimit:4;stroke-dasharray:none;stroke-dashoffset:0;stroke-opacity:1;color-rendering:auto;image-rendering:auto;shape-rendering:auto;text-rendering:auto;enable-background:accumulate"
       d="m 106.62641,368.18463 -0.43045,10.92447 c 16.18513,0.64103 40.62094,8.08996 60.5373,15.48869 19.91636,7.39874 35.47485,14.6204 35.47485,14.6204 l -0.60115,-0.334 c 12.78982,8.03935 27.83373,11.65548 29.04039,11.94122 20.34955,8.79821 29.78695,25.87295 34.36904,41.5011 2.29583,7.83043 3.29774,15.21256 3.71075,20.65409 0.20652,2.72074 0.26443,4.95367 0.27461,6.52352 0.005,0.78493 10e-4,1.40589 -0.008,1.84052 -0.009,0.43462 -0.0224,0.25497 -0.0224,0.92768 l 0.0445,-0.69019 c -2.26205,17.71918 0.67535,45.07087 0.67535,45.07087 v 0.008 l 0.008,0.0152 c 5.11036,49.05755 -2.76809,111.09958 -2.76809,111.09958 l 0.0224,-0.18543 c -3.65983,22.3249 -5.98174,77.52516 -5.98174,77.52516 l -0.008,0.17822 0.008,0.17821 c 0.3313,15.72979 -2.8539,27.12352 -7.34731,34.50252 -4.49339,7.3791 -10.10298,10.7576 -15.41448,11.3995 -5.3115,0.6419 -10.69256,-1.3306 -15.30317,-6.6051 -4.60311,-5.266 -8.25646,-13.9807 -8.74996,-26.3538 -7.7e-4,-0.16681 -0.20641,-44.82506 1.16518,-71.5731 l 0.008,-0.22267 v -0.21507 c 0,0 -0.24597,-8.24024 -0.7941,-18.01941 -0.53952,-9.62494 -1.32173,-20.43579 -2.65691,-27.33344 -0.003,-0.0266 0.0186,-0.0531 0.0148,-0.0817 l -0.0224,0.008 c -0.0179,-0.0916 -0.019,-0.27359 -0.0372,-0.36364 l -10.78345,1.78861 c 0.11509,0.87217 0.65066,-0.18885 -0.42304,0.43044 -1.07368,0.61911 -3.90467,1.44272 -7.39925,2.0706 -6.98913,1.25572 -16.53332,1.8371 -24.24608,6.7981 l 0.20781,-0.12616 c 0,0 -3.99127,2.32606 -8.62381,4.9056 -4.51542,2.51438 -9.77733,5.25898 -11.70373,6.0634 -0.16502,0.0342 -3.17258,0.70168 -5.45481,-0.12615 -1.17215,-0.42516 -2.06385,-0.97253 -2.9686,-2.6569 -0.90475,-1.68435 -1.748,-4.79127 -1.43978,-10.10808 l 0.45272,-7.72579 -7.43637,2.15963 c 0,0 -6.2191,1.7611 -13.67043,0.0889 -7.45132,-1.67199 -15.8071,-6.13484 -21.025147,-21.31457 l -1.180022,-3.42876 -3.614278,-0.24509 c 0,0 -36.259905,-2.00581 -45.167339,-37.95362 l -0.482397,-1.94444 -1.625315,-1.17259 c 0,0 -4.527826,-3.89341 -5.106002,-7.5551 l -0.452694,-2.87956 -2.634636,-1.22453 c 0,0 -5.741813,-2.7179 -10.87252,-7.23599 -2.565353,-2.25903 -4.879847,-4.92308 -6.226651,-7.59222 -1.346805,-2.66911 -1.830524,-5.1749 -1.113227,-8.16364 l 0.437869,-1.84056 -0.794102,-1.72177 c 0,0 -15.4465033,-33.26693 0.504664,-75.80336 L 8.7515008,440.25528 c -16.6369238,44.36509 -2.0644083,79.72105 -0.6456719,82.99482 -0.5977638,4.83781 0.1678189,9.49167 2.0928671,13.30676 2.240736,4.44073 5.495712,8.00028 8.757387,10.87253 5.452595,4.80152 9.530653,6.60347 11.273283,7.46603 1.966107,6.28957 5.563062,9.56816 7.221135,10.81313 10.117051,35.95242 43.016206,42.6896 51.030336,43.81663 6.564714,15.76433 17.780533,23.14699 27.474453,25.32223 4.79359,1.07562 9.02901,0.96542 12.42361,0.68275 0.36015,3.59388 1.05158,6.84279 2.42684,9.40307 2.16096,4.02309 5.61278,6.57915 8.87613,7.7629 6.52671,2.36756 12.49041,0.31159 12.49041,0.31159 l 0.23009,-0.0669 0.22262,-0.0889 c 3.43076,-1.3723 8.51616,-4.1817 13.25483,-6.82037 4.73866,-2.63867 8.81676,-5.00952 8.81676,-5.00952 l 0.10388,-0.0592 0.0965,-0.0669 c 4.12085,-2.6506 12.57945,-3.85207 20.26074,-5.23216 2.45323,-0.44078 4.69098,-1.36615 6.98364,-2.14481 0.53141,5.27308 1.15899,9.80269 1.47688,15.47385 0.53898,9.61527 0.77926,17.73001 0.77926,17.73001 -1.38055,27.5123 -1.18002,71.87735 -1.18002,71.87735 l 0.008,0.0965 v 0.0889 c 0.55965,14.34489 4.81361,25.59639 11.44396,33.18159 6.63036,7.5851 15.816,11.3563 24.85466,10.264 9.03867,-1.0924 17.55929,-6.9197 23.43714,-16.5723 5.87786,-9.6526 9.30739,-23.11475 8.94293,-40.41756 l -0.008,0.34883 c 0,0 2.55032,-56.11712 5.84815,-76.2338 l 0.0148,-0.0965 0.0148,-0.0889 c 0,0 8.12117,-62.4864 2.79792,-113.61597 v -0.0152 c -0.002,-0.0266 -2.62412,-27.60265 -0.71247,-42.57723 l 0.0445,-0.34123 v -0.34886 c 0,0.54216 0.0118,-0.19759 0.0224,-0.71247 0.0102,-0.51495 0.0133,-1.23661 0.008,-2.12998 -0.0114,-1.78668 -0.076,-4.27206 -0.3043,-7.28049 -0.45668,-6.01689 -1.5444,-14.11438 -4.11893,-22.89537 -5.14907,-17.56199 -16.57134,-38.18503 -40.66249,-48.53672 l -0.43045,-0.18543 -0.45271,-0.11133 c 0,0 -15.49552,-3.84903 -26.53934,-10.79091 l -0.29687,-0.18543 -0.3117,-0.14857 c 0,0 -15.92531,-7.3867 -36.27637,-14.94692 -20.35105,-7.56023 -44.96305,-15.4135 -63.91408,-16.16407 z"
       id="path749"
       inkscape:connector-curvature="0" />
    <path
       style="color:#000000;font-style:normal;font-variant:normal;font-weight:normal;font-stretch:normal;font-size:medium;line-height:normal;font-family:sans-serif;font-variant-ligatures:normal;font-variant-position:normal;font-variant-caps:normal;font-variant-numeric:normal;font-variant-alternates:normal;font-feature-settings:normal;text-indent:0;text-align:start;text-decoration:none;text-decoration-line:none;text-decoration-style:solid;text-decoration-color:#000000;letter-spacing:normal;word-spacing:normal;text-transform:none;writing-mode:lr-tb;direction:ltr;text-orientation:mixed;dominant-baseline:auto;baseline-shift:baseline;text-anchor:start;white-space:normal;shape-padding:0;clip-rule:nonzero;display:inline;overflow:visible;visibility:visible;opacity:1;isolation:auto;mix-blend-mode:normal;color-interpolation:sRGB;color-interpolation-filters:linearRGB;solid-color:#000000;solid-opacity:1;vector-effect:none;fill:#000000;fill-opacity:1;fill-rule:nonzero;stroke:none;stroke-width:10.93356609;stroke-linecap:butt;stroke-linejoin:miter;stroke-miterlimit:4;stroke-dasharray:none;stroke-dashoffset:0;stroke-opacity:1;color-rendering:auto;image-rendering:auto;shape-rendering:auto;text-rendering:auto;enable-background:accumulate"
       d="m 92.688803,543.71089 -10.82799,1.49173 c 1.206754,8.749 -0.67536,20.96579 -0.67536,20.96579 l 0.05195,-0.25991 c -2.056643,9.46055 -0.415924,19.44765 1.513991,27.25923 1.929915,7.81158 4.356427,13.58134 4.356427,13.58134 l 10.07842,-4.22281 c 0,0 -2.099236,-5.01233 -3.822083,-11.98576 -1.722845,-6.97342 -2.861961,-15.76699 -1.439773,-22.30906 l 0.02964,-0.13375 0.02242,-0.13376 c 0,0 2.288774,-12.82521 0.712466,-24.2535 z"
       id="path751"
       inkscape:connector-curvature="0" />
    <path
       style="color:#000000;font-style:normal;font-variant:normal;font-weight:normal;font-stretch:normal;font-size:medium;line-height:normal;font-family:sans-serif;font-variant-ligatures:normal;font-variant-position:normal;font-variant-caps:normal;font-variant-numeric:normal;font-variant-alternates:normal;font-feature-settings:normal;text-indent:0;text-align:start;text-decoration:none;text-decoration-line:none;text-decoration-style:solid;text-decoration-color:#000000;letter-spacing:normal;word-spacing:normal;text-transform:none;writing-mode:lr-tb;direction:ltr;text-orientation:mixed;dominant-baseline:auto;baseline-shift:baseline;text-anchor:start;white-space:normal;shape-padding:0;clip-rule:nonzero;display:inline;overflow:visible;visibility:visible;opacity:1;isolation:auto;mix-blend-mode:normal;color-interpolation:sRGB;color-interpolation-filters:linearRGB;solid-color:#000000;solid-opacity:1;vector-effect:none;fill:#000000;fill-opacity:1;fill-rule:nonzero;stroke:none;stroke-width:10.93356609;stroke-linecap:butt;stroke-linejoin:miter;stroke-miterlimit:4;stroke-dasharray:none;stroke-dashoffset:0;stroke-opacity:1;color-rendering:auto;image-rendering:auto;shape-rendering:auto;text-rendering:auto;enable-background:accumulate"
       d="m 135.1176,540.39346 c -1.70563,9.85486 -1.47616,21.24306 -0.898,30.53953 0.28909,4.64824 0.68032,8.75919 0.99449,11.80767 0.15708,1.52422 0.29668,2.78097 0.39333,3.68847 0.0967,0.90751 0.12616,1.94999 0.12616,1.16518 v 0.30437 l 0.0296,0.29676 c 2.42388,22.00919 11.47208,35.34844 22.4575,42.20615 10.98542,6.85776 23.13813,7.29192 31.8383,6.11535 l -1.46204,-10.83541 c -6.94875,0.9397 -16.56835,0.44918 -24.58748,-4.55681 -8.01912,-5.00599 -15.20965,-14.47376 -17.37376,-34.12413 l 0.0296,0.59372 c 0,-1.21966 -0.0926,-1.38066 -0.19295,-2.32294 -0.10039,-0.94228 -0.23315,-2.16916 -0.38592,-3.65139 -0.30551,-2.96439 -0.68115,-6.92821 -0.95737,-11.36974 -0.55246,-8.88313 -0.66831,-19.75885 0.75699,-27.99396 z"
       id="path753"
       inkscape:connector-curvature="0" />
    <path
       style="color:#000000;font-style:normal;font-variant:normal;font-weight:normal;font-stretch:normal;font-size:medium;line-height:normal;font-family:sans-serif;font-variant-ligatures:normal;font-variant-position:normal;font-variant-caps:normal;font-variant-numeric:normal;font-variant-alternates:normal;font-feature-settings:normal;text-indent:0;text-align:start;text-decoration:none;text-decoration-line:none;text-decoration-style:solid;text-decoration-color:#000000;letter-spacing:normal;word-spacing:normal;text-transform:none;writing-mode:lr-tb;direction:ltr;text-orientation:mixed;dominant-baseline:auto;baseline-shift:baseline;text-anchor:start;white-space:normal;shape-padding:0;clip-rule:nonzero;display:inline;overflow:visible;visibility:visible;opacity:1;isolation:auto;mix-blend-mode:normal;color-interpolation:sRGB;color-interpolation-filters:linearRGB;solid-color:#000000;solid-opacity:1;vector-effect:none;fill:#000000;fill-opacity:1;fill-rule:nonzero;stroke:none;stroke-width:10.93356609;stroke-linecap:butt;stroke-linejoin:miter;stroke-miterlimit:4;stroke-dasharray:none;stroke-dashoffset:0;stroke-opacity:1;color-rendering:auto;image-rendering:auto;shape-rendering:auto;text-rendering:auto;enable-background:accumulate"
       d="m 146.36862,615.30626 c -0.40518,1.38917 -3.46814,4.20491 -7.12466,6.01141 -3.6565,1.80652 -7.10238,2.73854 -7.10238,2.73854 l 2.80533,10.56824 c 0,0 4.37315,-1.14626 9.14331,-3.50295 4.77016,-2.35672 10.74244,-5.79756 12.77242,-12.75757 z"
       id="path755"
       inkscape:connector-curvature="0" />
    <path
       style="color:#000000;font-style:normal;font-variant:normal;font-weight:normal;font-stretch:normal;font-size:medium;line-height:normal;font-family:sans-serif;font-variant-ligatures:normal;font-variant-position:normal;font-variant-caps:normal;font-variant-numeric:normal;font-variant-alternates:normal;font-feature-settings:normal;text-indent:0;text-align:start;text-decoration:none;text-decoration-line:none;text-decoration-style:solid;text-decoration-color:#000000;letter-spacing:normal;word-spacing:normal;text-transform:none;writing-mode:lr-tb;direction:ltr;text-orientation:mixed;dominant-baseline:auto;baseline-shift:baseline;text-anchor:start;white-space:normal;shape-padding:0;clip-rule:nonzero;display:inline;overflow:visible;visibility:visible;opacity:1;isolation:auto;mix-blend-mode:normal;color-interpolation:sRGB;color-interpolation-filters:linearRGB;solid-color:#000000;solid-opacity:1;vector-effect:none;fill:#000000;fill-opacity:1;fill-rule:nonzero;stroke:none;stroke-width:10.93356609;stroke-linecap:butt;stroke-linejoin:miter;stroke-miterlimit:4;stroke-dasharray:none;stroke-dashoffset:0;stroke-opacity:1;color-rendering:auto;image-rendering:auto;shape-rendering:auto;text-rendering:auto;enable-background:accumulate"
       d="m 199.46956,515.01931 c -7.56719,45.04291 1.5882,107.44127 1.5882,107.44127 l 10.82058,-1.55108 c 0,0 -8.66918,-62.15149 -1.62531,-104.07935 z"
       id="path757"
       inkscape:connector-curvature="0" />
    <path
       style="color:#000000;font-style:normal;font-variant:normal;font-weight:normal;font-stretch:normal;font-size:medium;line-height:normal;font-family:sans-serif;font-variant-ligatures:normal;font-variant-position:normal;font-variant-caps:normal;font-variant-numeric:normal;font-variant-alternates:normal;font-feature-settings:normal;text-indent:0;text-align:start;text-decoration:none;text-decoration-line:none;text-decoration-style:solid;text-decoration-color:#000000;letter-spacing:normal;word-spacing:normal;text-transform:none;writing-mode:lr-tb;direction:ltr;text-orientation:mixed;dominant-baseline:auto;baseline-shift:baseline;text-anchor:start;white-space:normal;shape-padding:0;clip-rule:nonzero;display:inline;overflow:visible;visibility:visible;opacity:1;isolation:auto;mix-blend-mode:normal;color-interpolation:sRGB;color-interpolation-filters:linearRGB;solid-color:#000000;solid-opacity:1;vector-effect:none;fill:#000000;fill-opacity:1;fill-rule:nonzero;stroke:none;stroke-width:10.93356609;stroke-linecap:butt;stroke-linejoin:miter;stroke-miterlimit:4;stroke-dasharray:none;stroke-dashoffset:0;stroke-opacity:1;color-rendering:auto;image-rendering:auto;shape-rendering:auto;text-rendering:auto;enable-background:accumulate"
       d="m 244.24356,727.26722 c -5.19262,-1.06931 -10.23764,-0.63059 -14.42742,0.5121 -4.18979,1.14268 -7.69107,2.85241 -10.2417,4.2748 -1.2753,0.71116 -2.31488,1.35413 -3.02797,1.79597 -0.21784,0.1349 -0.31846,0.20292 -0.46013,0.28955 l -3.1393,0.77923 -0.31912,3.91115 c -1.48096,18.43154 7.16291,33.35664 20.07521,36.04624 6.45615,1.3449 13.59694,-1.2703 18.58347,-7.2211 4.98654,-5.9508 8.34723,-14.8964 9.7964,-27.40762 l 0.29688,-2.59011 -1.81827,-1.86281 c -4.77945,-4.8811 -10.12538,-7.45802 -15.31801,-8.52733 z m -2.33035,10.40495 c 2.49042,0.48414 5.06757,1.92101 7.69611,4.07444 -1.46053,9.25685 -4.01818,15.68535 -6.70163,18.88775 -2.98499,3.5622 -5.38807,4.078 -7.97071,3.54 -4.81873,-1.0037 -11.31759,-9.0304 -11.25843,-21.84144 0.41222,-0.24623 0.73677,-0.4553 1.22455,-0.72733 2.06968,-1.15415 4.8073,-2.46615 7.79258,-3.2803 2.9853,-0.81419 6.0501,-1.26883 9.21753,-0.65312 z"
       id="path759"
       inkscape:connector-curvature="0" />
    <path
       style="color:#000000;font-style:normal;font-variant:normal;font-weight:normal;font-stretch:normal;font-size:medium;line-height:normal;font-family:sans-serif;font-variant-ligatures:normal;font-variant-position:normal;font-variant-caps:normal;font-variant-numeric:normal;font-variant-alternates:normal;font-feature-settings:normal;text-indent:0;text-align:start;text-decoration:none;text-decoration-line:none;text-decoration-style:solid;text-decoration-color:#000000;letter-spacing:normal;word-spacing:normal;text-transform:none;writing-mode:lr-tb;direction:ltr;text-orientation:mixed;dominant-baseline:auto;baseline-shift:baseline;text-anchor:start;white-space:normal;shape-padding:0;clip-rule:nonzero;display:inline;overflow:visible;visibility:visible;opacity:1;isolation:auto;mix-blend-mode:normal;color-interpolation:sRGB;color-interpolation-filters:linearRGB;solid-color:#000000;solid-opacity:1;vector-effect:none;fill:#000000;fill-opacity:1;fill-rule:nonzero;stroke:none;stroke-width:10.93356609;stroke-linecap:butt;stroke-linejoin:miter;stroke-miterlimit:4;stroke-dasharray:none;stroke-dashoffset:0;stroke-opacity:1;color-rendering:auto;image-rendering:auto;shape-rendering:auto;text-rendering:auto;enable-background:accumulate"
       d="m 52.204437,475.67044 c -16.669923,-0.19607 -26.240761,9.32486 -30.094243,18.31629 -3.853482,8.99146 -3.258045,17.73001 -3.258045,17.73001 l 10.917049,-0.6234 c 0,0 -0.279591,-6.56631 2.389728,-12.7947 2.669317,-6.22839 7.019264,-11.84064 19.919345,-11.68888 z"
       id="path763"
       inkscape:connector-curvature="0" />
    <path
       style="color:#000000;font-style:normal;font-variant:normal;font-weight:normal;font-stretch:normal;font-size:medium;line-height:normal;font-family:sans-serif;font-variant-ligatures:normal;font-variant-position:normal;font-variant-caps:normal;font-variant-numeric:normal;font-variant-alternates:normal;font-feature-settings:normal;text-indent:0;text-align:start;text-decoration:none;text-decoration-line:none;text-decoration-style:solid;text-decoration-color:#000000;letter-spacing:normal;word-spacing:normal;text-transform:none;writing-mode:lr-tb;direction:ltr;text-orientation:mixed;dominant-baseline:auto;baseline-shift:baseline;text-anchor:start;white-space:normal;shape-padding:0;clip-rule:nonzero;display:inline;overflow:visible;visibility:visible;opacity:1;isolation:auto;mix-blend-mode:normal;color-interpolation:sRGB;color-interpolation-filters:linearRGB;solid-color:#000000;solid-opacity:1;vector-effect:none;fill:#000000;fill-opacity:1;fill-rule:nonzero;stroke:none;stroke-width:10.93356609;stroke-linecap:butt;stroke-linejoin:miter;stroke-miterlimit:4;stroke-dasharray:none;stroke-dashoffset:0;stroke-opacity:1;color-rendering:auto;image-rendering:auto;shape-rendering:auto;text-rendering:auto;enable-background:accumulate"
       d="m 100.91185,432.21745 c -14.507012,1.77816 -25.007278,8.41701 -31.860572,15.45161 -9.137725,9.3795 -12.379086,19.64475 -12.37909,19.64475 l 10.41981,3.30257 c 0,0 2.49668,-7.82515 9.796399,-15.31801 7.29972,-7.49282 18.814944,-14.47274 38.643833,-12.2158 l 1.23939,-10.85767 c -5.74016,-0.65338 -11.02411,-0.60014 -15.85977,-0.008 z"
       id="path765"
       inkscape:connector-curvature="0" />
    <path
       style="color:#000000;font-style:normal;font-variant:normal;font-weight:normal;font-stretch:normal;font-size:medium;line-height:normal;font-family:sans-serif;font-variant-ligatures:normal;font-variant-position:normal;font-variant-caps:normal;font-variant-numeric:normal;font-variant-alternates:normal;font-feature-settings:normal;text-indent:0;text-align:start;text-decoration:none;text-decoration-line:none;text-decoration-style:solid;text-decoration-color:#000000;letter-spacing:normal;word-spacing:normal;text-transform:none;writing-mode:lr-tb;direction:ltr;text-orientation:mixed;dominant-baseline:auto;baseline-shift:baseline;text-anchor:start;white-space:normal;shape-padding:0;clip-rule:nonzero;display:inline;overflow:visible;visibility:visible;opacity:1;isolation:auto;mix-blend-mode:normal;color-interpolation:sRGB;color-interpolation-filters:linearRGB;solid-color:#000000;solid-opacity:1;vector-effect:none;fill:#000000;fill-opacity:1;fill-rule:nonzero;stroke:none;stroke-width:10.93356609;stroke-linecap:butt;stroke-linejoin:miter;stroke-miterlimit:4;stroke-dasharray:none;stroke-dashoffset:0;stroke-opacity:1;color-rendering:auto;image-rendering:auto;shape-rendering:auto;text-rendering:auto;enable-background:accumulate"
       d="m 151.7789,412.6989 c -7.32967,0.20481 -13.53376,2.1616 -18.39793,4.79427 -9.72834,5.26536 -14.57585,13.11384 -14.57585,13.11384 l 9.29915,5.75167 c 0,0 3.33522,-5.38061 10.47918,-9.24723 7.14396,-3.86658 17.61713,-6.32791 33.68626,1.22457 l 4.65329,-9.8929 c -9.35957,-4.39897 -17.81441,-5.94899 -25.1441,-5.74422 z"
       id="path767"
       inkscape:connector-curvature="0" />
    <path
       style="color:#000000;font-style:normal;font-variant:normal;font-weight:normal;font-stretch:normal;font-size:medium;line-height:normal;font-family:sans-serif;font-variant-ligatures:normal;font-variant-position:normal;font-variant-caps:normal;font-variant-numeric:normal;font-variant-alternates:normal;font-feature-settings:normal;text-indent:0;text-align:start;text-decoration:none;text-decoration-line:none;text-decoration-style:solid;text-decoration-color:#000000;letter-spacing:normal;word-spacing:normal;text-transform:none;writing-mode:lr-tb;direction:ltr;text-orientation:mixed;dominant-baseline:auto;baseline-shift:baseline;text-anchor:start;white-space:normal;shape-padding:0;clip-rule:nonzero;display:inline;overflow:visible;visibility:visible;opacity:1;isolation:auto;mix-blend-mode:normal;color-interpolation:sRGB;color-interpolation-filters:linearRGB;solid-color:#000000;solid-opacity:1;vector-effect:none;fill:#000000;fill-opacity:1;fill-rule:nonzero;stroke:none;stroke-width:10.93356609;stroke-linecap:butt;stroke-linejoin:miter;stroke-miterlimit:4;stroke-dasharray:none;stroke-dashoffset:0;stroke-opacity:1;color-rendering:auto;image-rendering:auto;shape-rendering:auto;text-rendering:auto;enable-background:accumulate"
       d="m 234.5288,414.02735 c -17.62813,-3.00006 -32.55077,6.1079 -32.55077,6.1079 l 5.76652,9.29173 c 0,0 19.8267,-12.55011 38.33955,1.2023 l 6.52351,-8.77966 c -6.02569,-4.47622 -12.20276,-6.82227 -18.07881,-7.82227 z"
       id="path769"
       inkscape:connector-curvature="0" />
    <path
       style="color:#000000;font-style:normal;font-variant:normal;font-weight:normal;font-stretch:normal;font-size:medium;line-height:normal;font-family:sans-serif;font-variant-ligatures:normal;font-variant-position:normal;font-variant-caps:normal;font-variant-numeric:normal;font-variant-alternates:normal;font-feature-settings:normal;text-indent:0;text-align:start;text-decoration:none;text-decoration-line:none;text-decoration-style:solid;text-decoration-color:#000000;letter-spacing:normal;word-spacing:normal;text-transform:none;writing-mode:lr-tb;direction:ltr;text-orientation:mixed;dominant-baseline:auto;baseline-shift:baseline;text-anchor:start;white-space:normal;shape-padding:0;clip-rule:nonzero;display:inline;overflow:visible;visibility:visible;opacity:1;isolation:auto;mix-blend-mode:normal;color-interpolation:sRGB;color-interpolation-filters:linearRGB;solid-color:#000000;solid-opacity:1;vector-effect:none;fill:#000000;fill-opacity:1;fill-rule:nonzero;stroke:none;stroke-width:10.93356609;stroke-linecap:butt;stroke-linejoin:miter;stroke-miterlimit:4;stroke-dasharray:none;stroke-dashoffset:0;stroke-opacity:1;color-rendering:auto;image-rendering:auto;shape-rendering:auto;text-rendering:auto;enable-background:accumulate"
       d="m 77.801243,139.17893 v 5.46968 138.11437 H 46.875792 l 57.457358,57.4574 55.26804,-57.56128 H 130.15261 V 139.18638 Z m 10.931891,10.93932 h 30.487586 v 143.48017 h 14.72429 l -29.7677,30.99966 -30.910612,-30.90318 h 15.466436 z"
       id="path1576"
       inkscape:connector-curvature="0" />
    <path
       style="font-style:normal;font-weight:normal;font-size:233.33332825px;line-height:1.25;font-family:sans-serif;letter-spacing:0px;word-spacing:0px;fill:#000000;fill-opacity:1;stroke:none"
       d="m 513.51366,858.69188 v 22.2168 h 24.1543 v -22.2168 z M 105.75,859.83058 44,1029.4771 h 22.9004 l 16.6328,-47.28332 h 73.373 l 16.6348,47.28332 h 24.0391 l -61.752,-169.64652 z m 14.4707,19.7109 29.7363,83.2852 H 90.3691 Z m 148.9082,19.1406 c -7.5195,0 -14.658,1.5185 -21.418,4.5567 -6.76,3.0382 -12.6471,7.3303 -17.6601,12.875 -5.165,5.6966 -9.3431,12.7604 -12.5332,21.1914 -3.1142,8.355 -4.67,18.0019 -4.67,28.9394 0,20.5078 4.4807,36.60972 13.4434,48.30682 9.0386,11.6211 21.1155,17.4316 36.2305,17.4316 7.5955,0 14.6593,-1.3672 21.1914,-4.1016 6.5321,-2.8103 13.1028,-7.0631 19.7109,-12.7597 v 61.295 h 21.418 V 902.21338 H 304.791 l -1.3672,5.4687 c -5.4687,-2.9622 -10.8628,-5.2016 -16.1797,-6.7207 -5.2409,-1.5191 -11.2793,-2.2793 -18.1152,-2.2793 z m 96.957,3.5313 v 82.6015 c 0,15.79862 3.7225,27.79902 11.16604,36.00202 7.44358,8.1273 17.84875,12.1915 31.2168,12.1915 7.97526,0 15.26693,-1.5184 21.875,-4.5566 6.60807,-3.0382 13.52062,-7.4069 20.73633,-13.1036 v 14.1289 h 21.41797 V 902.21338 h -21.41797 v 95.0195 c -5.69662,4.48142 -11.84896,8.16662 -18.45703,11.05272 -6.53212,2.8864 -12.57053,4.3283 -18.11524,4.3283 -6.2283,0 -10.97613,-0.7583 -14.24218,-2.2775 -3.26606,-1.5191 -5.92383,-3.9509 -7.97461,-7.2929 -1.97483,-3.26612 -3.26736,-7.17712 -3.875,-11.73442 -0.60764,-4.6333 -0.91016,-10.1786 -0.91016,-16.6348 v -72.4609 z m 148.79495,0 v 127.26372 h 21.41992 V 902.21338 Z m -241.99215,15.7226 c 5.3168,0 10.2552,0.5324 14.8125,1.5957 4.5573,1.0634 9.7981,2.9236 15.7226,5.5821 v 72.0058 c -5.3928,4.25352 -11.2033,7.74812 -17.4316,10.48242 -6.2283,2.6585 -12.4573,3.9864 -18.6856,3.9864 -11.1653,0 -19.3685,-3.9877 -24.6093,-11.96292 -5.165,-8.0512 -7.7481,-19.5191 -7.7481,-34.4063 0,-14.7352 3.2294,-26.2816 9.6856,-34.6367 6.4561,-8.431 15.8732,-12.6465 28.2539,-12.6465 z"
       id="text3511"
       inkscape:connector-curvature="0" />
  </g>
</svg>
