<?xml version="1.0" encoding="UTF-8" standalone="no"?>
<!-- Created with Inkscape (http://www.inkscape.org/) -->

<svg
   xmlns:dc="http://purl.org/dc/elements/1.1/"
   xmlns:cc="http://creativecommons.org/ns#"
   xmlns:rdf="http://www.w3.org/1999/02/22-rdf-syntax-ns#"
   xmlns:svg="http://www.w3.org/2000/svg"
   xmlns="http://www.w3.org/2000/svg"
   xmlns:sodipodi="http://sodipodi.sourceforge.net/DTD/sodipodi-0.dtd"
   xmlns:inkscape="http://www.inkscape.org/namespaces/inkscape"
   version="1.1"
   id="svg10"
   width="1000"
   height="1250"
   viewBox="0 0 1000 1250"
   sodipodi:docname="Eu.svg"
   inkscape:version="0.92.4 (5da689c313, 2019-01-14)">
  <metadata
     id="metadata16">
    <rdf:RDF>
      <cc:Work
         rdf:about="">
        <dc:format>image/svg+xml</dc:format>
        <dc:type
           rdf:resource="http://purl.org/dc/dcmitype/StillImage" />
        <dc:title></dc:title>
      </cc:Work>
    </rdf:RDF>
  </metadata>
  <defs
     id="defs14" />
  <sodipodi:namedview
     pagecolor="#ffffff"
     bordercolor="#666666"
     borderopacity="1"
     objecttolerance="10"
     gridtolerance="10"
     guidetolerance="10"
     inkscape:pageopacity="0"
     inkscape:pageshadow="2"
     inkscape:window-width="681"
     inkscape:window-height="706"
     id="namedview12"
     showgrid="false"
     inkscape:zoom="1"
     inkscape:cx="255.76519"
     inkscape:cy="702.79951"
     inkscape:window-x="-7"
     inkscape:window-y="0"
     inkscape:window-maximized="0"
     inkscape:current-layer="svg10" />
  <path
     style="color:#000000;font-style:normal;font-variant:normal;font-weight:normal;font-stretch:normal;font-size:medium;line-height:normal;font-family:sans-serif;font-variant-ligatures:normal;font-variant-position:normal;font-variant-caps:normal;font-variant-numeric:normal;font-variant-alternates:normal;font-feature-settings:normal;text-indent:0;text-align:start;text-decoration:none;text-decoration-line:none;text-decoration-style:solid;text-decoration-color:#000000;letter-spacing:normal;word-spacing:normal;text-transform:none;writing-mode:lr-tb;direction:ltr;text-orientation:mixed;dominant-baseline:auto;baseline-shift:baseline;text-anchor:start;white-space:normal;shape-padding:0;clip-rule:nonzero;display:inline;overflow:visible;visibility:visible;opacity:1;isolation:auto;mix-blend-mode:normal;color-interpolation:sRGB;color-interpolation-filters:linearRGB;solid-color:#000000;solid-opacity:1;vector-effect:none;fill:#000000;fill-opacity:1;fill-rule:nonzero;stroke:none;stroke-width:15.57319927;stroke-linecap:butt;stroke-linejoin:miter;stroke-miterlimit:4;stroke-dasharray:none;stroke-dashoffset:0;stroke-opacity:1;color-rendering:auto;image-rendering:auto;shape-rendering:auto;text-rendering:auto;enable-background:accumulate"
     d="m 232.41602,629.2676 c -3.96145,-0.12429 -7.71705,0.74269 -11.04493,2.15821 -4.43716,1.88735 -8.37927,4.60034 -10.75586,9.35351 l 0.5,-0.85937 -44.00195,65.52539 -46.94922,91.98046 -0.11914,0.2871 c -12.4006,29.9681 -5.03515,55.5567 -5.03515,55.5567 l -0.12891,-0.5098 C 132.80909,934.3602 132.88281,1000 132.88281,1000 l 15.57227,-0.016 c 0,0 -0.0605,-67.2611 -18.36328,-150.5664 l -0.0566,-0.2558 -0.0742,-0.252 c 0,0 -5.90728,-19.9693 4.41601,-45.0742 l 46.1836,-90.48049 43.75976,-65.16601 0.22266,-0.44531 c -0.1369,0.27379 1.03889,-1.18457 2.92383,-1.98633 1.88494,-0.80176 4.21317,-1.09587 5.84375,-0.76172 1.63057,0.33415 2.65178,0.82229 3.83593,2.92773 1.13615,2.02007 2.19661,6.10365 1.70899,12.91602 -0.54387,1.62197 -11.81762,35.20105 -21.25391,56.32031 l -10.99218,24.60156 22.42187,-14.94726 c 0,0 6.7737,-4.30406 14.24805,-5.36524 3.73717,-0.53058 7.32685,-0.26488 10.54687,1.28711 3.22003,1.552 6.49024,4.41114 9.46094,10.84766 l 5.11914,11.0957 7.89453,-9.32812 c 0,0 7.07471,-7.59783 14.42774,-9.49805 3.67651,-0.95011 6.93271,-0.91025 11.11523,1.78516 4.18252,2.6954 9.49622,8.74062 14.58203,20.90234 l 3.19531,7.64454 7.43164,-3.666 c 0,0 6.88959,-3.09185 13.71289,-1.5801 3.41166,0.7559 6.7702,2.3871 10.18946,6.793 3.41926,4.4059 6.81798,11.8827 8.69922,24.166 l 0.0508,0.334 0.0801,0.3281 c 0,0 0.84532,3.2046 0.79101,10.6445 -0.0543,7.44 -1.13647,18.5661 -5.43359,32.8145 l -0.42578,1.4082 0.11914,1.4668 c 0,0 2.15237,26.6171 1.40429,60.7637 -0.74807,34.1465 -4.61513,75.8019 -15.69726,104.2988 l 14.51562,5.6445 c 12.45231,-32.0202 15.98367,-74.6217 16.75,-109.6016 0.7363,-33.6087 -1.21176,-58.9121 -1.37109,-60.9453 4.36714,-14.9996 5.64848,-27.1801 5.71094,-35.7363 0.0642,-8.7985 -1.21119,-14.3383 -1.22461,-14.3965 -2.18589,-13.76 -6.2128,-23.7115 -11.66602,-30.73826 -5.54033,-7.13904 -12.61127,-11.00606 -19.125,-12.44922 -6.33949,-1.40456 -12.12966,-0.74924 -16.46093,0.26758 -5.12533,-10.1982 -10.88034,-17.25635 -17.39258,-21.45313 -7.85275,-5.06066 -16.54463,-5.55531 -23.44727,-3.77148 -6.14537,1.58813 -11.05157,4.63902 -14.83789,7.53515 -3.36776,-4.29532 -7.22153,-7.58655 -11.40625,-9.60351 -6.67564,-3.21754 -13.607,-3.51607 -19.49805,-2.67969 -0.81469,0.11567 -1.48424,0.3782 -2.26953,0.5332 8.00884,-20.39333 15.15039,-41.77148 15.15039,-41.77148 l 0.28711,-0.86523 0.082,-0.91016 c 0.83368,-9.40924 -0.34344,-16.90234 -3.61914,-22.72656 -3.27569,-5.82423 -8.85162,-9.4377 -14.2832,-10.55078 -1.3579,-0.27828 -2.701,-0.42927 -4.02148,-0.47071 z"
     id="path20"
     inkscape:connector-curvature="0" />
  <path
     style="color:#000000;font-style:normal;font-variant:normal;font-weight:normal;font-stretch:normal;font-size:medium;line-height:normal;font-family:sans-serif;font-variant-ligatures:normal;font-variant-position:normal;font-variant-caps:normal;font-variant-numeric:normal;font-variant-alternates:normal;font-feature-settings:normal;text-indent:0;text-align:start;text-decoration:none;text-decoration-line:none;text-decoration-style:solid;text-decoration-color:#000000;letter-spacing:normal;word-spacing:normal;text-transform:none;writing-mode:lr-tb;direction:ltr;text-orientation:mixed;dominant-baseline:auto;baseline-shift:baseline;text-anchor:start;white-space:normal;shape-padding:0;clip-rule:nonzero;display:inline;overflow:visible;visibility:visible;opacity:1;isolation:auto;mix-blend-mode:normal;color-interpolation:sRGB;color-interpolation-filters:linearRGB;solid-color:#000000;solid-opacity:1;vector-effect:none;fill:#000000;fill-opacity:1;fill-rule:nonzero;stroke:none;stroke-width:15.57319927;stroke-linecap:butt;stroke-linejoin:miter;stroke-miterlimit:4;stroke-dasharray:none;stroke-dashoffset:0;stroke-opacity:1;color-rendering:auto;image-rendering:auto;shape-rendering:auto;text-rendering:auto;enable-background:accumulate"
     d="m 221.37109,713.30276 c 0,0 -1.07077,0.57009 -1.72656,1.05664 -0.65579,0.48655 -1.38584,1.12143 -2.1875,1.95117 -1.60332,1.65949 -3.49549,4.09797 -5.67383,7.83594 -4.35667,7.47595 -9.88851,20.16884 -16.05859,42.62109 l 15.01562,4.127 c 5.93335,-21.59083 11.14099,-33.14565 14.49805,-38.90629 1.67853,-2.88033 2.8851,-4.30589 3.41797,-4.85743 0.26643,-0.27576 0.36335,-0.33473 0.26758,-0.26367 -0.0958,0.0711 -0.87305,0.50391 -0.87305,0.50391 z"
     id="path22"
     inkscape:connector-curvature="0" />
  <path
     style="color:#000000;font-style:normal;font-variant:normal;font-weight:normal;font-stretch:normal;font-size:medium;line-height:normal;font-family:sans-serif;font-variant-ligatures:normal;font-variant-position:normal;font-variant-caps:normal;font-variant-numeric:normal;font-variant-alternates:normal;font-feature-settings:normal;text-indent:0;text-align:start;text-decoration:none;text-decoration-line:none;text-decoration-style:solid;text-decoration-color:#000000;letter-spacing:normal;word-spacing:normal;text-transform:none;writing-mode:lr-tb;direction:ltr;text-orientation:mixed;dominant-baseline:auto;baseline-shift:baseline;text-anchor:start;white-space:normal;shape-padding:0;clip-rule:nonzero;display:inline;overflow:visible;visibility:visible;opacity:1;isolation:auto;mix-blend-mode:normal;color-interpolation:sRGB;color-interpolation-filters:linearRGB;solid-color:#000000;solid-opacity:1;vector-effect:none;fill:#000000;fill-opacity:1;fill-rule:nonzero;stroke:none;stroke-width:15.57319927;stroke-linecap:butt;stroke-linejoin:miter;stroke-miterlimit:4;stroke-dasharray:none;stroke-dashoffset:0;stroke-opacity:1;color-rendering:auto;image-rendering:auto;shape-rendering:auto;text-rendering:auto;enable-background:accumulate"
     d="m 263.0625,727.59378 c 0,0 -7.01494,18.9079 -9.09766,49.10742 L 269.5,777.7715 c 1.95174,-28.30039 8.15039,-44.72265 8.15039,-44.72265 z"
     id="path24"
     inkscape:connector-curvature="0" />
  <path
     style="color:#000000;font-style:normal;font-variant:normal;font-weight:normal;font-stretch:normal;font-size:medium;line-height:normal;font-family:sans-serif;font-variant-ligatures:normal;font-variant-position:normal;font-variant-caps:normal;font-variant-numeric:normal;font-variant-alternates:normal;font-feature-settings:normal;text-indent:0;text-align:start;text-decoration:none;text-decoration-line:none;text-decoration-style:solid;text-decoration-color:#000000;letter-spacing:normal;word-spacing:normal;text-transform:none;writing-mode:lr-tb;direction:ltr;text-orientation:mixed;dominant-baseline:auto;baseline-shift:baseline;text-anchor:start;white-space:normal;shape-padding:0;clip-rule:nonzero;display:inline;overflow:visible;visibility:visible;opacity:1;isolation:auto;mix-blend-mode:normal;color-interpolation:sRGB;color-interpolation-filters:linearRGB;solid-color:#000000;solid-opacity:1;vector-effect:none;fill:#000000;fill-opacity:1;fill-rule:nonzero;stroke:none;stroke-width:15.57319927;stroke-linecap:butt;stroke-linejoin:miter;stroke-miterlimit:4;stroke-dasharray:none;stroke-dashoffset:0;stroke-opacity:1;color-rendering:auto;image-rendering:auto;shape-rendering:auto;text-rendering:auto;enable-background:accumulate"
     d="m 324.55078,737.80667 c 0,0 -2.01273,-0.0491 -2.98828,0.20898 -0.97555,0.25808 -1.84459,0.68983 -2.54688,1.16797 -1.40456,0.95627 -2.19616,2.01233 -2.83203,3.04101 -1.27174,2.05738 -2.05342,4.29584 -3,8.13477 -1.89315,7.6779 -4.06454,21.7247 -6.09765,49.8496 l 15.5332,1.1231 c 2.00133,-27.6854 4.20936,-41.2573 5.68555,-47.2442 0.73809,-2.9934 1.38734,-4.09701 1.12695,-3.6758 -0.13019,0.2107 -0.52174,0.8748 -1.65234,1.6446 -0.5653,0.3848 -1.328,0.7744 -2.23242,1.0136 -0.90443,0.2393 -2.88086,0.1953 -2.88086,0.1953 z"
     id="path26"
     inkscape:connector-curvature="0" />
  <path
     style="color:#000000;font-style:normal;font-variant:normal;font-weight:normal;font-stretch:normal;font-size:medium;line-height:normal;font-family:sans-serif;font-variant-ligatures:normal;font-variant-position:normal;font-variant-caps:normal;font-variant-numeric:normal;font-variant-alternates:normal;font-feature-settings:normal;text-indent:0;text-align:start;text-decoration:none;text-decoration-line:none;text-decoration-style:solid;text-decoration-color:#000000;letter-spacing:normal;word-spacing:normal;text-transform:none;writing-mode:lr-tb;direction:ltr;text-orientation:mixed;dominant-baseline:auto;baseline-shift:baseline;text-anchor:start;white-space:normal;shape-padding:0;clip-rule:nonzero;display:inline;overflow:visible;visibility:visible;opacity:1;isolation:auto;mix-blend-mode:normal;color-interpolation:sRGB;color-interpolation-filters:linearRGB;solid-color:#000000;solid-opacity:1;vector-effect:none;fill:#000000;fill-opacity:1;fill-rule:nonzero;stroke:none;stroke-width:7.78659964;stroke-linecap:butt;stroke-linejoin:miter;stroke-miterlimit:4;stroke-dasharray:none;stroke-dashoffset:0;stroke-opacity:1;color-rendering:auto;image-rendering:auto;shape-rendering:auto;text-rendering:auto;enable-background:accumulate"
     d="m 230.01758,643.99417 c -2.81913,0.37026 -5.58458,1.84686 -8.16016,4.08007 -3.4341,2.97762 -6.66473,7.44123 -9.45898,13.57032 l -1.35742,2.97851 2.70312,1.84961 c 0,0 2.63185,1.73973 6.64844,2.55469 4.01658,0.81496 9.73887,0.86312 16.48437,-1.74805 l 1.61524,-0.625 0.61719,-1.61523 c 1.97351,-5.16802 2.52136,-9.66812 1.56054,-13.48828 -0.96081,-3.82017 -4.03375,-7.00343 -7.82031,-7.54493 -0.94664,-0.13537 -1.89232,-0.13514 -2.83203,-0.0117 z m 1.73047,7.71875 c 0.67714,0.0968 0.97016,0.15194 1.36914,1.73828 0.3363,1.33713 0.11627,3.91977 -0.84571,7.12304 -4.44895,1.38642 -7.93412,1.3088 -10.33203,0.82227 -0.1976,-0.0401 -0.24333,-0.0866 -0.42383,-0.12891 1.85685,-3.22013 3.74631,-5.83907 5.44336,-7.31054 2.32053,-2.01207 4.11193,-2.34098 4.78907,-2.24414 z"
     id="path28"
     inkscape:connector-curvature="0" />
  <path
     style="color:#000000;font-style:normal;font-variant:normal;font-weight:normal;font-stretch:normal;font-size:medium;line-height:normal;font-family:sans-serif;font-variant-ligatures:normal;font-variant-position:normal;font-variant-caps:normal;font-variant-numeric:normal;font-variant-alternates:normal;font-feature-settings:normal;text-indent:0;text-align:start;text-decoration:none;text-decoration-line:none;text-decoration-style:solid;text-decoration-color:#000000;letter-spacing:normal;word-spacing:normal;text-transform:none;writing-mode:lr-tb;direction:ltr;text-orientation:mixed;dominant-baseline:auto;baseline-shift:baseline;text-anchor:start;white-space:normal;shape-padding:0;clip-rule:nonzero;display:inline;overflow:visible;visibility:visible;opacity:1;isolation:auto;mix-blend-mode:normal;color-interpolation:sRGB;color-interpolation-filters:linearRGB;solid-color:#000000;solid-opacity:1;vector-effect:none;fill:#000000;fill-opacity:1;fill-rule:nonzero;stroke:none;stroke-width:25.7209053;stroke-linecap:butt;stroke-linejoin:miter;stroke-miterlimit:4;stroke-dasharray:none;stroke-dashoffset:0;stroke-opacity:1;color-rendering:auto;image-rendering:auto;shape-rendering:auto;text-rendering:auto;enable-background:accumulate"
     d="M 250.84766,0.44143 C 151.72945,0.41255 83.639421,40.20794 44.474609,99.74221 5.3063892,159.28166 -5.6230468,237.02606 2.9375,313.98245 c 8.560547,76.95639 36.649842,153.46402 78.117188,211.5664 41.467342,58.10238 97.295722,98.57751 160.796872,98.19922 63.47124,-0.37812 118.84599,-41.27771 160.06836,-99.57617 41.22238,-58.29846 69.25615,-134.77579 78.56641,-211.54102 9.31026,-76.76522 -0.0152,-154.10066 -36.18555,-213.40429 C 408.13376,39.92845 344.04617,0.10575 250.84766,0.44143 Z m 0.0176,25.7207 h 0.0254 0.0254 c 86.07514,-0.31687 139.4634,34.05267 171.42578,86.45704 31.96238,52.40436 41.41931,124.29019 32.61132,196.91406 -8.80798,72.62386 -35.79222,145.70426 -74.03515,199.78906 -38.24293,54.0848 -86.78157,88.39269 -139.21875,88.70508 -52.40725,0.31219 -101.28559,-33.5826 -139.70899,-87.41992 C 63.566837,456.77013 36.581264,383.76894 28.501953,311.1387 20.422642,238.50845 31.286864,166.58982 65.962891,113.87893 100.63892,61.16805 158.4359,26.12874 250.86523,26.16213 Z"
     id="path10-9"
     inkscape:connector-curvature="0" />
  <path
     style="color:#000000;font-style:normal;font-variant:normal;font-weight:normal;font-stretch:normal;font-size:medium;line-height:normal;font-family:sans-serif;font-variant-ligatures:normal;font-variant-position:normal;font-variant-caps:normal;font-variant-numeric:normal;font-variant-alternates:normal;font-feature-settings:normal;text-indent:0;text-align:start;text-decoration:none;text-decoration-line:none;text-decoration-style:solid;text-decoration-color:#000000;letter-spacing:normal;word-spacing:normal;text-transform:none;writing-mode:lr-tb;direction:ltr;text-orientation:mixed;dominant-baseline:auto;baseline-shift:baseline;text-anchor:start;white-space:normal;shape-padding:0;clip-rule:nonzero;display:inline;overflow:visible;visibility:visible;opacity:1;isolation:auto;mix-blend-mode:normal;color-interpolation:sRGB;color-interpolation-filters:linearRGB;solid-color:#000000;solid-opacity:1;vector-effect:none;fill:#000000;fill-opacity:1;fill-rule:nonzero;stroke:none;stroke-width:12.86045265;stroke-linecap:butt;stroke-linejoin:miter;stroke-miterlimit:4;stroke-dasharray:none;stroke-dashoffset:0;stroke-opacity:1;color-rendering:auto;image-rendering:auto;shape-rendering:auto;text-rendering:auto;enable-background:accumulate"
     d="m 237.08984,310.21292 c 0,0 -1.45025,14.31362 -3.84961,29.3496 -1.19968,7.518 -2.64434,15.21759 -4.19726,21.19922 -0.77646,2.99082 -1.58996,5.55906 -2.31836,7.33008 -0.7284,1.77102 -1.66978,2.69585 -0.99414,2.13281 -1.4231,1.18591 -2.93039,2.1767 -3.71875,5.33008 -0.39418,1.57669 -0.1686,3.92427 0.83789,5.56446 1.00649,1.64018 2.31517,2.44255 3.30469,2.9082 3.95805,1.86258 5.99045,1.1485 8.68164,0.96289 5.38237,-0.37121 11.21093,-1.57031 11.21094,-1.57031 l -2.52149,-12.61133 c 0,0 -2.74887,0.34996 -4.41211,0.62305 0.8529,-2.28669 1.65893,-4.67374 2.37695,-7.43946 1.73543,-6.68462 3.21309,-14.65589 4.44922,-22.40234 2.47228,-15.49291 3.94532,-30.08399 3.94532,-30.08399 z"
     id="path971"
     inkscape:connector-curvature="0" />
  <path
     style="color:#000000;font-style:normal;font-variant:normal;font-weight:normal;font-stretch:normal;font-size:medium;line-height:normal;font-family:sans-serif;font-variant-ligatures:normal;font-variant-position:normal;font-variant-caps:normal;font-variant-numeric:normal;font-variant-alternates:normal;font-feature-settings:normal;text-indent:0;text-align:start;text-decoration:none;text-decoration-line:none;text-decoration-style:solid;text-decoration-color:#000000;letter-spacing:normal;word-spacing:normal;text-transform:none;writing-mode:lr-tb;direction:ltr;text-orientation:mixed;dominant-baseline:auto;baseline-shift:baseline;text-anchor:start;white-space:normal;shape-padding:0;clip-rule:nonzero;display:inline;overflow:visible;visibility:visible;opacity:1;isolation:auto;mix-blend-mode:normal;color-interpolation:sRGB;color-interpolation-filters:linearRGB;solid-color:#000000;solid-opacity:1;vector-effect:none;fill:#000000;fill-opacity:1;fill-rule:nonzero;stroke:none;stroke-width:10.18055344;stroke-linecap:butt;stroke-linejoin:miter;stroke-miterlimit:4;stroke-dasharray:none;stroke-dashoffset:0;stroke-opacity:1;color-rendering:auto;image-rendering:auto;shape-rendering:auto;text-rendering:auto;enable-background:accumulate"
     d="m 131.26172,831.793 -5.81445,8.3555 c 0,0 22.43789,14.9529 50.75,0.7968 l -4.55274,-9.1054 c -24.004,12.002 -40.38281,-0.047 -40.38281,-0.047 z"
     id="path5935"
     inkscape:connector-curvature="0" />
  <path
     style="color:#000000;font-style:normal;font-variant:normal;font-weight:normal;font-stretch:normal;font-size:medium;line-height:normal;font-family:sans-serif;font-variant-ligatures:normal;font-variant-position:normal;font-variant-caps:normal;font-variant-numeric:normal;font-variant-alternates:normal;font-feature-settings:normal;text-indent:0;text-align:start;text-decoration:none;text-decoration-line:none;text-decoration-style:solid;text-decoration-color:#000000;letter-spacing:normal;word-spacing:normal;text-transform:none;writing-mode:lr-tb;direction:ltr;text-orientation:mixed;dominant-baseline:auto;baseline-shift:baseline;text-anchor:start;white-space:normal;shape-padding:0;clip-rule:nonzero;display:inline;overflow:visible;visibility:visible;opacity:1;isolation:auto;mix-blend-mode:normal;color-interpolation:sRGB;color-interpolation-filters:linearRGB;solid-color:#000000;solid-opacity:1;vector-effect:none;fill:#000000;fill-opacity:1;fill-rule:nonzero;stroke:none;stroke-width:10.18055344;stroke-linecap:butt;stroke-linejoin:miter;stroke-miterlimit:4;stroke-dasharray:none;stroke-dashoffset:0;stroke-opacity:1;color-rendering:auto;image-rendering:auto;shape-rendering:auto;text-rendering:auto;enable-background:accumulate"
     d="m 195.4375,834.2559 v 10.1797 c -0.65187,0 1.19682,0.3889 3.61914,1.459 2.42232,1.07 5.68776,2.5313 9.70117,3.6738 8.02683,2.285 19.14755,3.14 32.80078,-2.0938 l -3.64257,-9.5058 c -11.66102,4.47 -19.94772,3.6371 -26.3711,1.8086 -3.21169,-0.9143 -5.93223,-2.1163 -8.375,-3.1953 -2.44276,-1.0791 -4.33818,-2.3262 -7.73242,-2.3262 z"
     id="path5937"
     inkscape:connector-curvature="0" />
  <path
     style="color:#000000;font-style:normal;font-variant:normal;font-weight:normal;font-stretch:normal;font-size:medium;line-height:normal;font-family:sans-serif;font-variant-ligatures:normal;font-variant-position:normal;font-variant-caps:normal;font-variant-numeric:normal;font-variant-alternates:normal;font-feature-settings:normal;text-indent:0;text-align:start;text-decoration:none;text-decoration-line:none;text-decoration-style:solid;text-decoration-color:#000000;letter-spacing:normal;word-spacing:normal;text-transform:none;writing-mode:lr-tb;direction:ltr;text-orientation:mixed;dominant-baseline:auto;baseline-shift:baseline;text-anchor:start;white-space:normal;shape-padding:0;clip-rule:nonzero;display:inline;overflow:visible;visibility:visible;opacity:1;isolation:auto;mix-blend-mode:normal;color-interpolation:sRGB;color-interpolation-filters:linearRGB;solid-color:#000000;solid-opacity:1;vector-effect:none;fill:#000000;fill-opacity:1;fill-rule:nonzero;stroke:none;stroke-width:10.18055344;stroke-linecap:butt;stroke-linejoin:miter;stroke-miterlimit:4;stroke-dasharray:none;stroke-dashoffset:0;stroke-opacity:1;color-rendering:auto;image-rendering:auto;shape-rendering:auto;text-rendering:auto;enable-background:accumulate"
     d="m 258.69531,839.8203 -5.85156,8.3321 c 0,0 22.22848,15.585 47.2168,4.2695 l -4.20117,-9.2754 c -19.7335,8.9359 -37.16407,-3.3262 -37.16407,-3.3262 z"
     id="path5939"
     inkscape:connector-curvature="0" />
  <path
     style="color:#000000;font-style:normal;font-variant:normal;font-weight:normal;font-stretch:normal;font-size:medium;line-height:normal;font-family:sans-serif;font-variant-ligatures:normal;font-variant-position:normal;font-variant-caps:normal;font-variant-numeric:normal;font-variant-alternates:normal;font-feature-settings:normal;text-indent:0;text-align:start;text-decoration:none;text-decoration-line:none;text-decoration-style:solid;text-decoration-color:#000000;letter-spacing:normal;word-spacing:normal;text-transform:none;writing-mode:lr-tb;direction:ltr;text-orientation:mixed;dominant-baseline:auto;baseline-shift:baseline;text-anchor:start;white-space:normal;shape-padding:0;clip-rule:nonzero;display:inline;overflow:visible;visibility:visible;opacity:1;isolation:auto;mix-blend-mode:normal;color-interpolation:sRGB;color-interpolation-filters:linearRGB;solid-color:#000000;solid-opacity:1;vector-effect:none;fill:#000000;fill-opacity:1;fill-rule:nonzero;stroke:none;stroke-width:10.18055344;stroke-linecap:butt;stroke-linejoin:miter;stroke-miterlimit:4;stroke-dasharray:none;stroke-dashoffset:0;stroke-opacity:1;color-rendering:auto;image-rendering:auto;shape-rendering:auto;text-rendering:auto;enable-background:accumulate"
     d="m 314.88086,855.2071 -5.15234,8.7812 c 0,0 21.04224,12.7972 42.76757,4.5899 l -3.59765,-9.5235 c -16.24603,6.1374 -34.01758,-3.8476 -34.01758,-3.8476 z"
     id="path5941"
     inkscape:connector-curvature="0" />
  <path
     inkscape:connector-curvature="0"
     id="path87-7-1"
     d="m 156.32132,205.0391 c -12.78165,0.12197 -23.11771,5.25978 -29.77462,12.94871 -6.67484,7.70969 -9.78043,17.66062 -9.69088,27.45847 0.0895,9.79793 3.37108,19.62854 10.12729,27.10473 6.7362,7.4536 17.077,12.22354 29.59188,11.83385 12.27423,-0.0319 22.26033,-5.2421 28.60087,-12.93688 6.35996,-7.71849 9.28197,-17.60348 9.21895,-27.35039 -0.0628,-9.74691 -3.10882,-19.53916 -9.53751,-27.06724 -6.41204,-7.50851 -16.43665,-12.40894 -28.53598,-11.99125 z m 0.38141,12.86027 c 8.63422,-0.31763 14.26766,2.69686 18.36337,7.49275 4.09569,4.79605 6.40904,11.72076 6.45455,18.78804 0.0466,7.06729 -2.17178,14.09328 -6.28146,19.08095 -4.10968,4.98774 -9.88664,8.2597 -18.77238,8.2597 h -0.10809 l -0.10808,0.009 c -9.24207,0.31056 -15.37457,-2.80503 -19.71414,-7.60687 -4.33964,-4.80182 -6.74085,-11.6225 -6.80473,-18.58936 -0.0629,-6.96687 2.20495,-13.89426 6.54917,-18.91193 4.34396,-5.01774 10.64006,-8.44209 20.23302,-8.5132 h 0.0946 z"
     style="color:#000000;font-style:normal;font-variant:normal;font-weight:normal;font-stretch:normal;font-size:medium;line-height:normal;font-family:sans-serif;font-variant-ligatures:normal;font-variant-position:normal;font-variant-caps:normal;font-variant-numeric:normal;font-variant-alternates:normal;font-feature-settings:normal;text-indent:0;text-align:start;text-decoration:none;text-decoration-line:none;text-decoration-style:solid;text-decoration-color:#000000;letter-spacing:normal;word-spacing:normal;text-transform:none;writing-mode:lr-tb;direction:ltr;text-orientation:mixed;dominant-baseline:auto;baseline-shift:baseline;text-anchor:start;white-space:normal;shape-padding:0;clip-rule:nonzero;display:inline;overflow:visible;visibility:visible;opacity:1;isolation:auto;mix-blend-mode:normal;color-interpolation:sRGB;color-interpolation-filters:linearRGB;solid-color:#000000;solid-opacity:1;vector-effect:none;fill:#000000;fill-opacity:1;fill-rule:nonzero;stroke:none;stroke-width:12.87604904;stroke-linecap:butt;stroke-linejoin:miter;stroke-miterlimit:4;stroke-dasharray:none;stroke-dashoffset:0;stroke-opacity:1;color-rendering:auto;image-rendering:auto;shape-rendering:auto;text-rendering:auto;enable-background:accumulate" />
  <path
     inkscape:connector-curvature="0"
     id="path59-19-9"
     d="m 155.76683,188.54556 c -24.18126,0.64594 -47.2682,12.30715 -75.26987,33.10311 l 7.675642,10.3358 C 115.29802,211.8391 135.86238,201.95652 156.111,201.41556 c 20.24872,-0.54087 41.47297,8.19023 70.09522,28.08571 l 7.34916,-10.5717 c -29.62221,-20.59056 -53.60699,-31.03004 -77.78855,-30.38401 z"
     style="color:#000000;font-style:normal;font-variant:normal;font-weight:normal;font-stretch:normal;font-size:medium;line-height:normal;font-family:sans-serif;font-variant-ligatures:normal;font-variant-position:normal;font-variant-caps:normal;font-variant-numeric:normal;font-variant-alternates:normal;font-feature-settings:normal;text-indent:0;text-align:start;text-decoration:none;text-decoration-line:none;text-decoration-style:solid;text-decoration-color:#000000;letter-spacing:normal;word-spacing:normal;text-transform:none;writing-mode:lr-tb;direction:ltr;text-orientation:mixed;dominant-baseline:auto;baseline-shift:baseline;text-anchor:start;white-space:normal;shape-padding:0;clip-rule:nonzero;display:inline;overflow:visible;visibility:visible;opacity:1;isolation:auto;mix-blend-mode:normal;color-interpolation:sRGB;color-interpolation-filters:linearRGB;solid-color:#000000;solid-opacity:1;vector-effect:none;fill:#000000;fill-opacity:1;fill-rule:nonzero;stroke:none;stroke-width:12.87604904;stroke-linecap:butt;stroke-linejoin:miter;stroke-miterlimit:4;stroke-dasharray:none;stroke-dashoffset:0;stroke-opacity:1;color-rendering:auto;image-rendering:auto;shape-rendering:auto;text-rendering:auto;enable-background:accumulate" />
  <path
     inkscape:connector-curvature="0"
     id="path87-1-33-2"
     d="m 331.14484,203.20272 c -12.7819,0.12197 -23.11602,5.25978 -29.77274,12.94879 -6.67481,7.7097 -9.78067,17.66071 -9.6906,27.45847 0.0895,9.79794 3.37082,19.62846 10.12703,27.10465 6.73622,7.4537 17.077,12.22363 29.59184,11.83394 12.27435,-0.0319 22.26029,-5.24211 28.60064,-12.93689 6.36024,-7.71857 9.28226,-17.60348 9.21913,-27.35039 -0.0628,-9.7469 -3.10881,-19.53915 -9.53741,-27.06723 -6.41195,-7.50851 -16.43863,-12.40895 -28.53789,-11.99134 z m 0.38321,12.86225 c 8.63427,-0.31763 14.2677,2.69488 18.36344,7.49085 4.09573,4.79596 6.40689,11.72275 6.45269,18.78995 0.0466,7.06728 -2.16997,14.09138 -6.27961,19.07904 -4.10972,4.98767 -9.88663,8.2597 -18.77226,8.2597 h -0.10825 l -0.10806,0.009 c -9.2418,0.31047 -15.3745,-2.80503 -19.71415,-7.60686 -4.33937,-4.80182 -6.74079,-11.62251 -6.80467,-18.58946 -0.0648,-6.96669 2.20491,-13.89417 6.54913,-18.91183 4.34394,-5.01766 10.64011,-8.4401 20.23303,-8.5113 l 0.0952,-0.009 z"
     style="color:#000000;font-style:normal;font-variant:normal;font-weight:normal;font-stretch:normal;font-size:medium;line-height:normal;font-family:sans-serif;font-variant-ligatures:normal;font-variant-position:normal;font-variant-caps:normal;font-variant-numeric:normal;font-variant-alternates:normal;font-feature-settings:normal;text-indent:0;text-align:start;text-decoration:none;text-decoration-line:none;text-decoration-style:solid;text-decoration-color:#000000;letter-spacing:normal;word-spacing:normal;text-transform:none;writing-mode:lr-tb;direction:ltr;text-orientation:mixed;dominant-baseline:auto;baseline-shift:baseline;text-anchor:start;white-space:normal;shape-padding:0;clip-rule:nonzero;display:inline;overflow:visible;visibility:visible;opacity:1;isolation:auto;mix-blend-mode:normal;color-interpolation:sRGB;color-interpolation-filters:linearRGB;solid-color:#000000;solid-opacity:1;vector-effect:none;fill:#000000;fill-opacity:1;fill-rule:nonzero;stroke:none;stroke-width:12.87604904;stroke-linecap:butt;stroke-linejoin:miter;stroke-miterlimit:4;stroke-dasharray:none;stroke-dashoffset:0;stroke-opacity:1;color-rendering:auto;image-rendering:auto;shape-rendering:auto;text-rendering:auto;enable-background:accumulate" />
  <path
     inkscape:connector-curvature="0"
     id="path59-1-9-8"
     d="m 332.05702,186.95699 c -24.13045,0.0483 -47.74754,11.0968 -76.76242,32.87504 l 7.73085,10.29838 c 28.00749,-21.02214 48.83405,-30.25644 69.05718,-30.29748 20.22304,-0.0405 41.1268,9.19364 69.03947,27.89498 l 7.16627,-10.69756 c -28.74278,-19.25747 -52.10081,-30.12249 -76.23135,-30.07336 z"
     style="color:#000000;font-style:normal;font-variant:normal;font-weight:normal;font-stretch:normal;font-size:medium;line-height:normal;font-family:sans-serif;font-variant-ligatures:normal;font-variant-position:normal;font-variant-caps:normal;font-variant-numeric:normal;font-variant-alternates:normal;font-feature-settings:normal;text-indent:0;text-align:start;text-decoration:none;text-decoration-line:none;text-decoration-style:solid;text-decoration-color:#000000;letter-spacing:normal;word-spacing:normal;text-transform:none;writing-mode:lr-tb;direction:ltr;text-orientation:mixed;dominant-baseline:auto;baseline-shift:baseline;text-anchor:start;white-space:normal;shape-padding:0;clip-rule:nonzero;display:inline;overflow:visible;visibility:visible;opacity:1;isolation:auto;mix-blend-mode:normal;color-interpolation:sRGB;color-interpolation-filters:linearRGB;solid-color:#000000;solid-opacity:1;vector-effect:none;fill:#000000;fill-opacity:1;fill-rule:nonzero;stroke:none;stroke-width:12.87604904;stroke-linecap:butt;stroke-linejoin:miter;stroke-miterlimit:4;stroke-dasharray:none;stroke-dashoffset:0;stroke-opacity:1;color-rendering:auto;image-rendering:auto;shape-rendering:auto;text-rendering:auto;enable-background:accumulate" />
  <path
     inkscape:connector-curvature="0"
     id="path1681-1"
     d="m 164.47457,457.4485 v 12.78364 H 321.03713 V 457.4485 Z"
     style="color:#000000;font-style:normal;font-variant:normal;font-weight:normal;font-stretch:normal;font-size:medium;line-height:normal;font-family:sans-serif;font-variant-ligatures:normal;font-variant-position:normal;font-variant-caps:normal;font-variant-numeric:normal;font-variant-alternates:normal;font-feature-settings:normal;text-indent:0;text-align:start;text-decoration:none;text-decoration-line:none;text-decoration-style:solid;text-decoration-color:#000000;letter-spacing:normal;word-spacing:normal;text-transform:none;writing-mode:lr-tb;direction:ltr;text-orientation:mixed;dominant-baseline:auto;baseline-shift:baseline;text-anchor:start;white-space:normal;shape-padding:0;clip-rule:nonzero;display:inline;overflow:visible;visibility:visible;opacity:1;isolation:auto;mix-blend-mode:normal;color-interpolation:sRGB;color-interpolation-filters:linearRGB;solid-color:#000000;solid-opacity:1;vector-effect:none;fill:#000000;fill-opacity:1;fill-rule:nonzero;stroke:none;stroke-width:12.78256893;stroke-linecap:butt;stroke-linejoin:miter;stroke-miterlimit:4;stroke-dasharray:none;stroke-dashoffset:0;stroke-opacity:1;color-rendering:auto;image-rendering:auto;shape-rendering:auto;text-rendering:auto;enable-background:accumulate" />
  <path
     style="font-style:normal;font-weight:normal;font-size:233.33332825px;line-height:1.25;font-family:sans-serif;letter-spacing:0px;word-spacing:0px;fill:#000000;fill-opacity:1;stroke:none"
     d="m 120,1076.8242 v 169.6446 H 231.76759 V 1226.416 H 142.5586 v -63.0039 h 89.20899 v -20.0527 H 142.5586 v -46.4844 h 89.20899 v -20.0508 z m 145.03517,42.3828 v 82.5996 c 0,15.7987 3.72244,27.8008 11.16601,36.0039 7.44358,8.1272 17.84874,12.1895 31.2168,12.1895 7.97526,0 15.26693,-1.5184 21.875,-4.5566 6.60807,-3.0382 13.52061,-7.405 20.73633,-13.1016 v 14.127 h 21.41797 V 1119.207 h -21.41797 v 95.0196 c -5.69662,4.4813 -11.84896,8.1645 -18.45703,11.0507 -6.53212,2.8863 -12.57053,4.3301 -18.11524,4.3301 -6.2283,0 -10.97613,-0.7602 -14.24219,-2.2793 -3.26606,-1.5191 -5.92383,-3.949 -7.97461,-7.291 -1.97482,-3.266 -3.26736,-7.179 -3.875,-11.7363 -0.60764,-4.6333 -0.91015,-10.1767 -0.91015,-16.6328 v -72.461 z"
     id="text4000"
     inkscape:connector-curvature="0" />
</svg>
