<?xml version="1.0" encoding="UTF-8" standalone="no"?>
<!-- Created with Inkscape (http://www.inkscape.org/) -->

<svg
   xmlns:dc="http://purl.org/dc/elements/1.1/"
   xmlns:cc="http://creativecommons.org/ns#"
   xmlns:rdf="http://www.w3.org/1999/02/22-rdf-syntax-ns#"
   xmlns:svg="http://www.w3.org/2000/svg"
   xmlns="http://www.w3.org/2000/svg"
   xmlns:sodipodi="http://sodipodi.sourceforge.net/DTD/sodipodi-0.dtd"
   xmlns:inkscape="http://www.inkscape.org/namespaces/inkscape"
   width="1000"
   height="1250"
   viewBox="0 0 1000 1250"
   version="1.1"
   id="svg58798"
   inkscape:version="0.92.4 (5da689c313, 2019-01-14)"
   sodipodi:docname="Rato.svg">
  <defs
     id="defs58792" />
  <sodipodi:namedview
     id="base"
     pagecolor="#ffffff"
     bordercolor="#666666"
     borderopacity="1.0"
     inkscape:pageopacity="0.0"
     inkscape:pageshadow="2"
     inkscape:zoom="2.8284271"
     inkscape:cx="999.74"
     inkscape:cy="52.585878"
     inkscape:document-units="px"
     inkscape:current-layer="layer1"
     showgrid="false"
     units="px"
     inkscape:window-width="1366"
     inkscape:window-height="715"
     inkscape:window-x="-8"
     inkscape:window-y="-8"
     inkscape:window-maximized="1"
     inkscape:snap-global="true" />
  <metadata
     id="metadata58795">
    <rdf:RDF>
      <cc:Work
         rdf:about="">
        <dc:format>image/svg+xml</dc:format>
        <dc:type
           rdf:resource="http://purl.org/dc/dcmitype/StillImage" />
        <dc:title></dc:title>
      </cc:Work>
    </rdf:RDF>
  </metadata>
  <g
     inkscape:label="Camada 1"
     inkscape:groupmode="layer"
     id="layer1"
     transform="translate(0,217.58335)">
    <path
       style="color:#000000;font-style:normal;font-variant:normal;font-weight:normal;font-stretch:normal;font-size:medium;line-height:normal;font-family:sans-serif;font-variant-ligatures:normal;font-variant-position:normal;font-variant-caps:normal;font-variant-numeric:normal;font-variant-alternates:normal;font-feature-settings:normal;text-indent:0;text-align:start;text-decoration:none;text-decoration-line:none;text-decoration-style:solid;text-decoration-color:#000000;letter-spacing:normal;word-spacing:normal;text-transform:none;writing-mode:lr-tb;direction:ltr;text-orientation:mixed;dominant-baseline:auto;baseline-shift:baseline;text-anchor:start;white-space:normal;shape-padding:0;clip-rule:nonzero;display:inline;overflow:visible;visibility:visible;opacity:1;isolation:auto;mix-blend-mode:normal;color-interpolation:sRGB;color-interpolation-filters:linearRGB;solid-color:#000000;solid-opacity:1;vector-effect:none;fill:#000000;fill-opacity:1;fill-rule:nonzero;stroke:none;stroke-width:38.6049118;stroke-linecap:butt;stroke-linejoin:miter;stroke-miterlimit:4;stroke-dasharray:none;stroke-dashoffset:0;stroke-opacity:1;color-rendering:auto;image-rendering:auto;shape-rendering:auto;text-rendering:auto;enable-background:accumulate"
       d="m 673.10593,-217.32122 c -148.74739,-0.0332 -250.93317,59.6962 -309.71121,149.04452 -58.78819,89.36377 -75.19515,206.05107 -62.34648,321.55631 2.75673,24.78204 6.86272,49.53307 12.22681,73.98689 l 21.69943,8.57132 70.85985,179.19294 c -5.87933,2.8054 -10.82343,5.88106 -16.32971,11.0694 9.03691,15.56361 18.64706,30.51016 28.79065,44.72293 62.23908,87.20682 146.0357,147.9552 241.34554,147.3874 95.26504,-0.56753 178.37453,-61.95213 240.24584,-149.4532 C 961.75793,481.25613 1003.836,366.46917 1017.8099,251.25094 1031.7838,136.03268 1017.7829,19.96029 963.49638,-69.04953 909.21768,-158.043 813.04264,-217.81401 673.18024,-217.32122 Z m 0.0593,38.60429 h 0.0442 0.0378 c 129.19156,-0.47559 209.31976,51.11375 257.29263,129.76839 47.97285,78.65462 62.16838,186.54518 48.94832,295.54765 -13.22005,109.00236 -53.72449,218.69567 -111.1239,299.87246 -57.39938,81.17675 -130.24982,132.66576 -208.95364,133.13467 -78.65885,0.4685 -152.01896,-50.40463 -209.68934,-131.21003 -9.5703,-13.40939 -18.66777,-27.61082 -27.2414,-42.47025 -7.40264,5.68828 -14.11684,7.97503 -16.64617,9.1048 L 334.97452,335.83782 c 7.29858,2.62641 14.56562,5.28438 21.97612,7.79875 -8.06329,-31.10547 -13.99826,-62.88742 -17.52843,-94.62243 -12.12637,-109.01188 4.17751,-216.96053 56.22327,-296.07519 52.04586,-79.11468 138.79126,-131.706 277.5199,-131.65588 z"
       id="path10-9-5"
       inkscape:connector-curvature="0"
       sodipodi:nodetypes="cssccccssssccccccsssscccccsscc" />
    <path
       style="color:#000000;font-style:normal;font-variant:normal;font-weight:normal;font-stretch:normal;font-size:medium;line-height:normal;font-family:sans-serif;font-variant-ligatures:normal;font-variant-position:normal;font-variant-caps:normal;font-variant-numeric:normal;font-variant-alternates:normal;font-feature-settings:normal;text-indent:0;text-align:start;text-decoration:none;text-decoration-line:none;text-decoration-style:solid;text-decoration-color:#000000;letter-spacing:normal;word-spacing:normal;text-transform:none;writing-mode:lr-tb;direction:ltr;text-orientation:mixed;dominant-baseline:auto;baseline-shift:baseline;text-anchor:start;white-space:normal;shape-padding:0;clip-rule:nonzero;display:inline;overflow:visible;visibility:visible;opacity:1;isolation:auto;mix-blend-mode:normal;color-interpolation:sRGB;color-interpolation-filters:linearRGB;solid-color:#000000;solid-opacity:1;vector-effect:none;fill:#000000;fill-opacity:1;fill-rule:nonzero;stroke:none;stroke-width:19.3024559;stroke-linecap:butt;stroke-linejoin:miter;stroke-miterlimit:4;stroke-dasharray:none;stroke-dashoffset:0;stroke-opacity:1;color-rendering:auto;image-rendering:auto;shape-rendering:auto;text-rendering:auto;enable-background:accumulate"
       d="m 652.4895,247.62187 c 0,0 -2.1722,21.48588 -5.77345,44.05375 -1.80063,11.28391 -3.96678,22.8349 -6.29759,31.81288 -1.16543,4.48899 -2.39148,8.34973 -3.48475,11.0079 -1.09326,2.6582 -2.5054,4.04188 -1.49133,3.19682 -2.13596,1.77991 -4.3982,3.27007 -5.58146,8.00302 -0.59166,2.3665 -0.24835,5.88829 1.26245,8.35008 1.51066,2.46179 3.46876,3.66438 4.95394,4.36327 5.94072,2.7956 8.99154,1.72562 13.03079,1.44707 8.07851,-0.55718 16.83302,-2.35516 16.83302,-2.35516 l -3.78742,-18.92973 c 0,0 -4.12697,0.52788 -6.62247,0.9376 1.28041,-3.43254 2.48809,-7.01847 3.56594,-11.17029 2.60474,-10.03309 4.8262,-21.99489 6.68152,-33.62173 3.71068,-23.25365 5.9211,-45.15378 5.9211,-45.15378 z"
       id="path971-8"
       inkscape:connector-curvature="0" />
    <path
       style="color:#000000;font-style:normal;font-variant:normal;font-weight:normal;font-stretch:normal;font-size:medium;line-height:normal;font-family:sans-serif;font-variant-ligatures:normal;font-variant-position:normal;font-variant-caps:normal;font-variant-numeric:normal;font-variant-alternates:normal;font-feature-settings:normal;text-indent:0;text-align:start;text-decoration:none;text-decoration-line:none;text-decoration-style:solid;text-decoration-color:#000000;letter-spacing:normal;word-spacing:normal;text-transform:none;writing-mode:lr-tb;direction:ltr;text-orientation:mixed;dominant-baseline:auto;baseline-shift:baseline;text-anchor:start;white-space:normal;shape-padding:0;clip-rule:nonzero;display:inline;overflow:visible;visibility:visible;opacity:1;isolation:auto;mix-blend-mode:normal;color-interpolation:sRGB;color-interpolation-filters:linearRGB;solid-color:#000000;solid-opacity:1;vector-effect:none;fill:#000000;fill-opacity:1;fill-rule:nonzero;stroke:none;stroke-width:21.04342842;stroke-linecap:butt;stroke-linejoin:miter;stroke-miterlimit:4;stroke-dasharray:none;stroke-dashoffset:0;stroke-opacity:1;color-rendering:auto;image-rendering:auto;shape-rendering:auto;text-rendering:auto;enable-background:accumulate"
       d="m 275.81418,323.07507 -0.78259,0.0303 -0.77521,0.14023 c 0,0 -19.02588,3.46562 -39.12935,6.62985 -10.05172,1.5821 -20.38021,3.08974 -28.5718,4.03104 -4.09579,0.47065 -7.67383,0.79683 -10.2696,0.93027 -2.59578,0.13344 -4.90428,-0.3368 -3.08605,0.14024 l -0.51681,-0.14024 -0.53157,-0.0813 c 0,0 -48.26968,-6.79743 -71.0456,34.85463 l -0.53895,0.98129 -0.32485,1.07793 c 0,0 -1.24519,4.2141 -5.36737,8.91114 -4.12217,4.69704 -10.11638,9.26836 -22.045322,9.25074 h -0.620165 l -0.605397,0.0737 c 0,0 -12.486326,1.39635 -24.599804,9.95214 -12.113482,8.55575 -24.115899,25.40702 -23.905816,51.63594 l 0.03704,4.71768 0.664461,0.58327 c -0.871471,2.86826 -4.645646,10.6805 -17.615589,24.15681 l -0.221489,0.22908 -0.214105,0.24342 c 0,0 -22.4044964,28.09475 -7.596998,61.15992 -0.106553,-0.0994 0.0812,0.1255 -3.373983,3.94247 l 0.287933,-0.30996 c 0,0 -9.4976228,9.88666 -13.3408917,26.48981 -3.7254741,16.09429 -2.0285002,39.15716 14.2046897,66.02525 0.236514,1.61294 4.417553,30.13216 8.896389,58.46512 l 0.162425,1.06314 0.383911,1.00409 c 0,0 6.942688,18.99891 3.824339,40.12602 l -0.04429,0.33945 -0.02953,0.33227 c -0.41374,5.02892 -0.7393,7.05461 -2.687373,10.45414 -1.948075,3.3996 -6.18872,8.4637 -14.83962,16.3679 l 14.197179,15.5338 c 9.347439,-8.5406 15.11786,-14.8394 18.900212,-21.4399 3.691275,-6.4416 4.819864,-12.88045 5.330449,-18.73782 3.678534,-25.36627 -3.364846,-45.44476 -4.414969,-48.32843 v -0.008 c -4.576928,-28.95342 -9.103112,-59.85251 -9.103112,-59.85251 l -0.324845,-2.21487 -1.203412,-1.89003 C 19.74746,605.91466 19.589729,588.84368 22.226491,577.45272 c 2.636761,-11.39097 7.8554,-16.49338 7.8554,-16.49338 l 0.14766,-0.15499 0.14766,-0.15498 c 5.651523,-6.24331 8.464244,-9.70794 9.546084,-15.45981 0.476316,-2.5324 -0.11204,-5.98796 -1.734979,-8.7635 l 0.02231,0.0151 c -12.618478,-23.74899 3.565941,-41.37374 3.565941,-41.37374 l -0.435592,0.47987 c 14.825386,-15.40416 20.959222,-25.60684 23.152754,-34.12372 1.096769,-4.25845 1.050047,-8.23199 0.07382,-11.45088 -0.06441,-0.21244 -0.179628,-0.33454 -0.251033,-0.53896 0.371276,-18.73348 7.521297,-27.23025 14.824854,-32.38877 7.575836,-5.3508 14.876533,-6.23854 14.876533,-6.23854 l -1.225561,0.0737 c 17.970938,0.0265 30.739308,-8.25595 37.903788,-16.41955 5.8226,-6.63462 8.06486,-12.4433 8.90377,-14.81747 16.41499,-29.92232 49.31035,-24.0904 49.31035,-24.0904 l -1.0485,-0.22181 c 4.09952,1.07591 6.17523,0.69552 9.50916,0.52417 3.33393,-0.17122 7.23272,-0.54753 11.59115,-1.04835 8.71684,-1.00167 19.22407,-2.53455 29.4356,-4.1418 19.83733,-3.12234 37.4456,-6.33417 38.5018,-6.52649 17.72679,-0.47625 32.28463,3.78877 32.3297,3.80218 7e-5,4e-5 0.0295,0.008 0.0295,0.008 39.01212,16.77016 91.28211,31.333 91.28211,31.333 l 0.36176,0.1032 0.36175,0.0737 c 13.61016,2.77557 25.75891,7.75944 25.75891,7.75944 l 0.5168,0.21395 0.53159,0.15498 c 25.60158,7.55933 33.86533,19.18058 37.39433,28.59399 3.29439,8.78745 2.07131,15.01273 1.89003,15.87322 -4.0797,10.77634 -19.93636,27.65025 -35.1795,40.22936 -15.4536,12.75285 -29.63492,21.86815 -29.63492,21.86815 l 2.51754,-1.18126 c -56.70305,17.89026 -63.53719,90.03442 -63.53719,90.03442 l -0.14027,1.18125 0.14027,1.18864 c 4.15866,36.75267 -5.85322,58.73052 -16.36788,72.249 -10.51464,13.51849 -21.03386,17.94046 -21.03386,17.94046 l -1.65377,0.70876 -1.32154,1.22557 c -10.66559,9.86598 -15.49198,23.45293 -21.18891,37.05473 -5.69692,13.60184 -11.84201,27.43741 -21.63188,38.65689 l 15.85846,13.8355 c 12.49523,-14.3199 19.40851,-30.57672 25.18306,-44.36382 5.69854,-13.6057 10.69766,-24.48875 15.86583,-29.43561 3.57876,-1.77805 14.95146,-7.81077 26.53413,-22.7024 13.29231,-17.08965 24.74124,-45.06011 20.7164,-85.41271 0.1043,-0.75562 8.29005,-59.27015 48.9117,-72.08657 l 1.33629,-0.42821 1.18126,-0.75306 c 0,0 15.12479,-9.70847 31.65786,-23.35211 16.53308,-13.64361 34.99647,-30.3943 41.90532,-49.93788 l 0.19203,-0.55374 0.13305,-0.56848 c 0,0 3.08338,-13.42494 -2.62834,-28.66039 -5.71167,-15.23547 -20.69917,-32.39995 -51.14128,-41.38851 l 1.04098,0.3693 c 0,0 -13.58173,-5.66707 -29.59803,-8.93333 l 0.71613,0.17728 c 0,0 -52.93159,-14.83523 -89.70218,-30.78666 l -0.55372,-0.24344 -0.58324,-0.17729 c 0,0 -17.73099,-5.42538 -39.5354,-4.73242 z"
       id="path1627"
       inkscape:connector-curvature="0" />
    <path
       style="color:#000000;font-style:normal;font-variant:normal;font-weight:normal;font-stretch:normal;font-size:medium;line-height:normal;font-family:sans-serif;font-variant-ligatures:normal;font-variant-position:normal;font-variant-caps:normal;font-variant-numeric:normal;font-variant-alternates:normal;font-feature-settings:normal;text-indent:0;text-align:start;text-decoration:none;text-decoration-line:none;text-decoration-style:solid;text-decoration-color:#000000;letter-spacing:normal;word-spacing:normal;text-transform:none;writing-mode:lr-tb;direction:ltr;text-orientation:mixed;dominant-baseline:auto;baseline-shift:baseline;text-anchor:start;white-space:normal;shape-padding:0;clip-rule:nonzero;display:inline;overflow:visible;visibility:visible;opacity:1;isolation:auto;mix-blend-mode:normal;color-interpolation:sRGB;color-interpolation-filters:linearRGB;solid-color:#000000;solid-opacity:1;vector-effect:none;fill:#000000;fill-opacity:1;fill-rule:nonzero;stroke:none;stroke-width:21.04342842;stroke-linecap:butt;stroke-linejoin:miter;stroke-miterlimit:4;stroke-dasharray:none;stroke-dashoffset:0;stroke-opacity:1;color-rendering:auto;image-rendering:auto;shape-rendering:auto;text-rendering:auto;enable-background:accumulate"
       d="m 219.00279,377.05139 c -25.71952,-0.32055 -49.08148,3.46259 -49.08148,3.46259 l 3.32968,20.77546 c 0,0 22.00892,-3.48935 45.4934,-3.19678 11.74224,0.14629 23.78478,1.30445 32.96462,3.94984 9.17986,2.64539 14.57987,6.52655 16.4934,10.46157 l 0.037,0.0665 0.0295,0.0665 c 0,0 8.69039,17.26237 17.03233,38.1474 8.32553,20.84391 15.55037,46.33633 14.66982,56.59729 -0.02,0.1667 -1.33755,11.15827 -4.82104,21.52851 -1.75489,5.22429 -4.13203,10.1067 -6.24592,12.72075 -2.11389,2.61401 -2.54774,2.63828 -3.66192,2.53232 l -11.57638,-1.10006 0.0517,11.62068 c 0,0 0.0352,22.67938 -3.94985,43.27854 -1.9926,10.29959 -5.22209,19.97306 -8.62322,25.03541 -1.70057,2.53115 -3.24801,3.76208 -4.26732,4.23039 -1.01931,0.46827 -1.7135,0.6942 -4.03106,-0.0151 l -13.59937,9.95987 0.13289,1.80127 c 0,0 2.56257,16.64443 0.45037,31.5471 -1.05612,7.45133 -3.40849,14.05911 -6.34931,17.63038 -2.94081,3.57124 -5.61574,5.36267 -13.43685,4.46665 l -6.28285,-0.72353 -3.00484,4.36329 c -0.22983,0.14137 -0.82575,0.57268 -2.99007,0.51682 -4.47754,-0.11568 -16.10828,-3.31484 -36.05068,-21.02649 l 1.41013,1.52823 c 0,0 0.0159,-1.56989 0.0665,0.76784 l -21.03387,0.45035 c 0.16726,7.73273 4.17133,11.45089 4.17133,11.45089 l 0.62755,0.84162 0.78258,0.69398 c 21.94459,19.4899 37.37216,26.01485 49.48017,26.32742 6.054,0.15612 11.08339,-1.48898 14.47785,-3.529 0.51013,-0.30656 0.41019,-0.44585 0.87119,-0.78999 11.32386,-0.10056 21.18644,-4.70411 27.16167,-11.96029 6.84221,-8.30898 9.5725,-18.44857 10.93407,-28.05501 1.35925,-9.59016 1.22694,-19.04313 0.76043,-26.11329 1.41325,-0.35873 2.939,-0.41479 4.23778,-1.01146 5.63923,-2.59077 9.78152,-6.89786 12.9496,-11.61327 6.33616,-9.43091 9.55014,-21.08539 11.81263,-32.78008 3.24254,-16.76049 3.86945,-30.58874 4.07537,-38.91523 4.35128,-1.93365 8.10772,-4.8952 10.76426,-8.18025 4.74523,-5.86794 7.62448,-12.66948 9.83401,-19.24721 4.41906,-13.15546 5.81772,-26.00994 5.81772,-26.00994 l 0.0147,-0.1255 0.0147,-0.1255 c 1.77609,-19.85176 -7.37418,-44.52085 -16.1021,-66.37221 -8.7054,-21.79501 -17.6872,-39.61292 -17.73371,-39.70523 -5.76453,-11.81966 -17.43896,-17.94976 -29.57588,-21.44727 -12.1487,-3.50096 -25.67157,-4.61653 -38.53133,-4.77677 z"
       id="path1629"
       inkscape:connector-curvature="0"
       sodipodi:nodetypes="cccsscccsccccccccccccscccccccccccccccsscccsccscccscccc" />
    <path
       style="color:#000000;font-style:normal;font-variant:normal;font-weight:normal;font-stretch:normal;font-size:medium;line-height:normal;font-family:sans-serif;font-variant-ligatures:normal;font-variant-position:normal;font-variant-caps:normal;font-variant-numeric:normal;font-variant-alternates:normal;font-feature-settings:normal;text-indent:0;text-align:start;text-decoration:none;text-decoration-line:none;text-decoration-style:solid;text-decoration-color:#000000;letter-spacing:normal;word-spacing:normal;text-transform:none;writing-mode:lr-tb;direction:ltr;text-orientation:mixed;dominant-baseline:auto;baseline-shift:baseline;text-anchor:start;white-space:normal;shape-padding:0;clip-rule:nonzero;display:inline;overflow:visible;visibility:visible;opacity:1;isolation:auto;mix-blend-mode:normal;color-interpolation:sRGB;color-interpolation-filters:linearRGB;solid-color:#000000;solid-opacity:1;vector-effect:none;fill:#000000;fill-opacity:1;fill-rule:nonzero;stroke:none;stroke-width:21.04342842;stroke-linecap:butt;stroke-linejoin:miter;stroke-miterlimit:4;stroke-dasharray:none;stroke-dashoffset:0;stroke-opacity:1;color-rendering:auto;image-rendering:auto;shape-rendering:auto;text-rendering:auto;enable-background:accumulate"
       d="m 93.619084,644.08333 -12.595218,16.85518 c 0,0 10.068694,7.56306 22.451384,14.05702 6.19135,3.24695 12.99236,6.30149 20.07409,8.04734 7.08173,1.74589 15.09899,2.57609 22.68025,-1.85309 l -10.6166,-18.1693 c -0.0988,0.0578 -2.62078,0.68055 -7.02851,-0.40606 -4.40773,-1.08665 -10.04639,-3.48754 -15.33427,-6.26069 -10.57579,-5.54635 -19.631126,-12.2704 -19.631126,-12.2704 z"
       id="path1631"
       inkscape:connector-curvature="0" />
    <path
       style="color:#000000;font-style:normal;font-variant:normal;font-weight:normal;font-stretch:normal;font-size:medium;line-height:normal;font-family:sans-serif;font-variant-ligatures:normal;font-variant-position:normal;font-variant-caps:normal;font-variant-numeric:normal;font-variant-alternates:normal;font-feature-settings:normal;text-indent:0;text-align:start;text-decoration:none;text-decoration-line:none;text-decoration-style:solid;text-decoration-color:#000000;letter-spacing:normal;word-spacing:normal;text-transform:none;writing-mode:lr-tb;direction:ltr;text-orientation:mixed;dominant-baseline:auto;baseline-shift:baseline;text-anchor:start;white-space:normal;shape-padding:0;clip-rule:nonzero;display:inline;overflow:visible;visibility:visible;opacity:1;isolation:auto;mix-blend-mode:normal;color-interpolation:sRGB;color-interpolation-filters:linearRGB;solid-color:#000000;solid-opacity:1;vector-effect:none;fill:#000000;fill-opacity:1;fill-rule:nonzero;stroke:none;stroke-width:21.04342842;stroke-linecap:butt;stroke-linejoin:miter;stroke-miterlimit:4;stroke-dasharray:none;stroke-dashoffset:0;stroke-opacity:1;color-rendering:auto;image-rendering:auto;shape-rendering:auto;text-rendering:auto;enable-background:accumulate"
       d="m 99.045512,533.16271 -9.893077,18.5754 c 0,0 23.666465,12.59669 51.348035,25.71461 27.68157,13.11792 57.8175,26.89276 77.72712,29.37652 l 1.27724,0.16254 1.26985,-0.15498 c 0,0 4.13579,-0.42695 8.54202,2.26655 4.40622,2.69347 10.11663,8.21021 9.92999,28.06976 l 21.04125,0.19922 c 0.23195,-24.68119 -9.17621,-39.60484 -19.99287,-46.21693 -10.81667,-6.61211 -22.0158,-5.21233 -22.0158,-5.21233 l 2.55448,0.008 C 209.2615,584.50739 176.67786,571.31448 149.51498,558.44238 122.3521,545.57027 99.045512,533.16334 99.045512,533.16334 Z"
       id="path1633"
       inkscape:connector-curvature="0" />
    <path
       style="color:#000000;font-style:normal;font-variant:normal;font-weight:normal;font-stretch:normal;font-size:medium;line-height:normal;font-family:sans-serif;font-variant-ligatures:normal;font-variant-position:normal;font-variant-caps:normal;font-variant-numeric:normal;font-variant-alternates:normal;font-feature-settings:normal;text-indent:0;text-align:start;text-decoration:none;text-decoration-line:none;text-decoration-style:solid;text-decoration-color:#000000;letter-spacing:normal;word-spacing:normal;text-transform:none;writing-mode:lr-tb;direction:ltr;text-orientation:mixed;dominant-baseline:auto;baseline-shift:baseline;text-anchor:start;white-space:normal;shape-padding:0;clip-rule:nonzero;display:inline;overflow:visible;visibility:visible;opacity:1;isolation:auto;mix-blend-mode:normal;color-interpolation:sRGB;color-interpolation-filters:linearRGB;solid-color:#000000;solid-opacity:1;vector-effect:none;fill:#000000;fill-opacity:1;fill-rule:nonzero;stroke:none;stroke-width:21.04342842;stroke-linecap:butt;stroke-linejoin:miter;stroke-miterlimit:4;stroke-dasharray:none;stroke-dashoffset:0;stroke-opacity:1;color-rendering:auto;image-rendering:auto;shape-rendering:auto;text-rendering:auto;enable-background:accumulate"
       d="m 147.3075,461.43789 -4.68814,20.51709 c 0,0 19.29776,4.41089 40.38443,8.80039 10.54334,2.19477 21.53754,4.38575 30.89004,6.03185 9.3525,1.64606 16.21074,2.86387 22.07485,2.76117 h 0.25104 l 0.25103,-0.0151 c 0,0 6.44262,-0.64817 14.9799,5.30827 8.53728,5.95649 19.1397,18.79248 22.31848,50.83125 l 20.94528,-2.07459 c -3.59986,-36.28274 -17.22543,-56.25229 -31.22227,-66.01784 -13.99682,-9.76555 -28.3946,-9.05142 -28.3946,-9.05142 l 0.50203,-0.0227 c -1.1039,0.0189 -9.07564,-0.86272 -18.05856,-2.44376 -8.98293,-1.58103 -19.82782,-3.73724 -30.24773,-5.90631 -20.8398,-4.33813 -39.98575,-8.7192 -39.98575,-8.7192 z"
       id="path1635"
       inkscape:connector-curvature="0" />
    <path
       style="color:#000000;font-style:normal;font-variant:normal;font-weight:normal;font-stretch:normal;font-size:medium;line-height:normal;font-family:sans-serif;font-variant-ligatures:normal;font-variant-position:normal;font-variant-caps:normal;font-variant-numeric:normal;font-variant-alternates:normal;font-feature-settings:normal;text-indent:0;text-align:start;text-decoration:none;text-decoration-line:none;text-decoration-style:solid;text-decoration-color:#000000;letter-spacing:normal;word-spacing:normal;text-transform:none;writing-mode:lr-tb;direction:ltr;text-orientation:mixed;dominant-baseline:auto;baseline-shift:baseline;text-anchor:start;white-space:normal;shape-padding:0;clip-rule:nonzero;display:inline;overflow:visible;visibility:visible;opacity:1;isolation:auto;mix-blend-mode:normal;color-interpolation:sRGB;color-interpolation-filters:linearRGB;solid-color:#000000;solid-opacity:1;vector-effect:none;fill:#000000;fill-opacity:1;fill-rule:nonzero;stroke:none;stroke-width:21.04342842;stroke-linecap:butt;stroke-linejoin:miter;stroke-miterlimit:4;stroke-dasharray:none;stroke-dashoffset:0;stroke-opacity:1;color-rendering:auto;image-rendering:auto;shape-rendering:auto;text-rendering:auto;enable-background:accumulate"
       d="m 470.66353,387.49082 -15.68866,14.0275 c 0,0 6.04184,7.59853 6.50437,15.09065 0.23134,3.74606 -0.37688,7.21417 -4.18613,11.71666 -3.77102,4.45739 -11.3779,9.88197 -25.27164,14.67718 -1.21437,0.31035 -33.86588,8.40386 -72.12351,-12.78716 l -0.67922,-0.3765 -0.71615,-0.27329 c 0,0 -52.45154,-19.93561 -75.29076,-25.44884 l -4.93177,20.45801 c 18.30575,4.41886 72.54372,24.58535 72.72151,24.65147 45.28736,24.44402 86.71212,14.07918 86.71212,14.07918 l 0.3839,-0.096 0.3839,-0.13268 c 16.54457,-5.64209 27.72719,-12.70839 34.87679,-21.15939 7.14965,-8.45096 9.63695,-18.31903 9.12529,-26.60794 -1.02341,-16.57787 -11.82004,-27.81877 -11.82004,-27.81877 z"
       id="path1637"
       inkscape:connector-curvature="0" />
    <path
       style="color:#000000;font-style:normal;font-variant:normal;font-weight:normal;font-stretch:normal;font-size:medium;line-height:normal;font-family:sans-serif;font-variant-ligatures:normal;font-variant-position:normal;font-variant-caps:normal;font-variant-numeric:normal;font-variant-alternates:normal;font-feature-settings:normal;text-indent:0;text-align:start;text-decoration:none;text-decoration-line:none;text-decoration-style:solid;text-decoration-color:#000000;letter-spacing:normal;word-spacing:normal;text-transform:none;writing-mode:lr-tb;direction:ltr;text-orientation:mixed;dominant-baseline:auto;baseline-shift:baseline;text-anchor:start;white-space:normal;shape-padding:0;clip-rule:nonzero;display:inline;overflow:visible;visibility:visible;opacity:1;isolation:auto;mix-blend-mode:normal;color-interpolation:sRGB;color-interpolation-filters:linearRGB;solid-color:#000000;solid-opacity:1;vector-effect:none;fill:#000000;fill-opacity:1;fill-rule:nonzero;stroke:none;stroke-width:21.04342842;stroke-linecap:butt;stroke-linejoin:miter;stroke-miterlimit:4;stroke-dasharray:none;stroke-dashoffset:0;stroke-opacity:1;color-rendering:auto;image-rendering:auto;shape-rendering:auto;text-rendering:auto;enable-background:accumulate"
       d="m 333.85849,426.79736 c -18.8943,17.57628 -34.91371,13.10465 -34.91371,13.10465 l -4.4888,20.55398 c 0,0 28.46608,5.25354 53.73271,-18.25054 z"
       id="path1639"
       inkscape:connector-curvature="0" />
    <path
       style="color:#000000;font-style:normal;font-variant:normal;font-weight:normal;font-stretch:normal;font-size:medium;line-height:normal;font-family:sans-serif;font-variant-ligatures:normal;font-variant-position:normal;font-variant-caps:normal;font-variant-numeric:normal;font-variant-alternates:normal;font-feature-settings:normal;text-indent:0;text-align:start;text-decoration:none;text-decoration-line:none;text-decoration-style:solid;text-decoration-color:#000000;letter-spacing:normal;word-spacing:normal;text-transform:none;writing-mode:lr-tb;direction:ltr;text-orientation:mixed;dominant-baseline:auto;baseline-shift:baseline;text-anchor:start;white-space:normal;shape-padding:0;clip-rule:nonzero;display:inline;overflow:visible;visibility:visible;opacity:1;isolation:auto;mix-blend-mode:normal;color-interpolation:sRGB;color-interpolation-filters:linearRGB;solid-color:#000000;solid-opacity:1;vector-effect:none;fill:#000000;fill-opacity:1;fill-rule:nonzero;stroke:none;stroke-width:21.04342842;stroke-linecap:butt;stroke-linejoin:miter;stroke-miterlimit:4;stroke-dasharray:none;stroke-dashoffset:0;stroke-opacity:1;color-rendering:auto;image-rendering:auto;shape-rendering:auto;text-rendering:auto;enable-background:accumulate"
       d="m 418.28926,376.74872 c -3.13119,0.0941 -6.11917,0.50691 -8.96282,1.22553 -11.37467,2.87461 -19.70997,11.51439 -22.37017,21.38091 -5.32038,19.73295 8.82848,42.52275 34.98754,48.07737 l 5.67743,1.20341 4.05323,-4.15653 c 0,0 6.24274,-6.39587 12.35159,-15.50411 6.10882,-9.10824 12.90279,-21.11853 12.48446,-35.14997 l -0.19203,-6.50432 -5.90632,-2.73168 c -12.03206,-5.56736 -22.72931,-8.12316 -32.12299,-7.84061 z m 6.62986,21.52851 c 2.4331,0.38844 5.94169,1.91766 8.9776,2.91624 -1.49504,5.22412 -3.93,10.95362 -7.35336,16.05781 -2.92049,4.35445 -3.93086,5.1712 -5.84727,7.3755 -11.46623,-4.86571 -14.87749,-14.39554 -13.42209,-19.79355 0.84374,-3.12939 2.3291,-5.22576 7.21308,-6.46002 2.44201,-0.61713 5.91791,-0.81664 10.43204,-0.096 z"
       id="path1641"
       inkscape:connector-curvature="0" />
    <path
       style="color:#000000;font-style:normal;font-variant:normal;font-weight:normal;font-stretch:normal;font-size:medium;line-height:normal;font-family:sans-serif;font-variant-ligatures:normal;font-variant-position:normal;font-variant-caps:normal;font-variant-numeric:normal;font-variant-alternates:normal;font-feature-settings:normal;text-indent:0;text-align:start;text-decoration:none;text-decoration-line:none;text-decoration-style:solid;text-decoration-color:#000000;letter-spacing:normal;word-spacing:normal;text-transform:none;writing-mode:lr-tb;direction:ltr;text-orientation:mixed;dominant-baseline:auto;baseline-shift:baseline;text-anchor:start;white-space:normal;shape-padding:0;clip-rule:nonzero;display:inline;overflow:visible;visibility:visible;opacity:1;isolation:auto;mix-blend-mode:normal;color-interpolation:sRGB;color-interpolation-filters:linearRGB;solid-color:#000000;solid-opacity:1;vector-effect:none;fill:#000000;fill-opacity:1;fill-rule:nonzero;stroke:none;stroke-width:21.04342842;stroke-linecap:butt;stroke-linejoin:miter;stroke-miterlimit:4;stroke-dasharray:none;stroke-dashoffset:0;stroke-opacity:1;color-rendering:auto;image-rendering:auto;shape-rendering:auto;text-rendering:auto;enable-background:accumulate"
       d="m 116.15906,642.05303 -15.52623,14.2121 c 0,0 28.59449,32.68961 66.79306,32.11558 1.29357,2.60765 2.68918,5.42848 4.98345,8.26146 l 16.35311,-13.24492 c -1.66665,-2.05797 -4.69551,-9.16218 -4.69551,-9.16218 l -2.8941,-8.13594 -8.54201,1.24772 c -27.46452,4.00828 -56.47177,-25.29382 -56.47177,-25.29382 z"
       id="path1643"
       inkscape:connector-curvature="0" />
    <path
       style="color:#000000;font-style:normal;font-variant:normal;font-weight:normal;font-stretch:normal;font-size:medium;line-height:normal;font-family:sans-serif;font-variant-ligatures:normal;font-variant-position:normal;font-variant-caps:normal;font-variant-numeric:normal;font-variant-alternates:normal;font-feature-settings:normal;text-indent:0;text-align:start;text-decoration:none;text-decoration-line:none;text-decoration-style:solid;text-decoration-color:#000000;letter-spacing:normal;word-spacing:normal;text-transform:none;writing-mode:lr-tb;direction:ltr;text-orientation:mixed;dominant-baseline:auto;baseline-shift:baseline;text-anchor:start;white-space:normal;shape-padding:0;clip-rule:nonzero;display:inline;overflow:visible;visibility:visible;opacity:1;isolation:auto;mix-blend-mode:normal;color-interpolation:sRGB;color-interpolation-filters:linearRGB;solid-color:#000000;solid-opacity:1;vector-effect:none;fill:#000000;fill-opacity:1;fill-rule:nonzero;stroke:none;stroke-width:21.04342842;stroke-linecap:butt;stroke-linejoin:miter;stroke-miterlimit:4;stroke-dasharray:none;stroke-dashoffset:0;stroke-opacity:1;color-rendering:auto;image-rendering:auto;shape-rendering:auto;text-rendering:auto;enable-background:accumulate"
       d="m 330.72077,452.29049 c -5.10206,34.69584 29.6497,56.11001 29.6497,56.11001 l 11.65021,-17.527 c 0,0 -23.19022,-17.08969 -20.48016,-35.51909 z"
       id="path1645"
       inkscape:connector-curvature="0" />
    <path
       style="color:#000000;font-style:normal;font-variant:normal;font-weight:normal;font-stretch:normal;font-size:medium;line-height:normal;font-family:sans-serif;font-variant-ligatures:normal;font-variant-position:normal;font-variant-caps:normal;font-variant-numeric:normal;font-variant-alternates:normal;font-feature-settings:normal;text-indent:0;text-align:start;text-decoration:none;text-decoration-line:none;text-decoration-style:solid;text-decoration-color:#000000;letter-spacing:normal;word-spacing:normal;text-transform:none;writing-mode:lr-tb;direction:ltr;text-orientation:mixed;dominant-baseline:auto;baseline-shift:baseline;text-anchor:start;white-space:normal;shape-padding:0;clip-rule:nonzero;display:inline;overflow:visible;visibility:visible;opacity:1;isolation:auto;mix-blend-mode:normal;color-interpolation:sRGB;color-interpolation-filters:linearRGB;solid-color:#000000;solid-opacity:1;vector-effect:none;fill:#000000;fill-opacity:1;fill-rule:nonzero;stroke:none;stroke-width:21.04342842;stroke-linecap:butt;stroke-linejoin:miter;stroke-miterlimit:4;stroke-dasharray:none;stroke-dashoffset:0;stroke-opacity:1;color-rendering:auto;image-rendering:auto;shape-rendering:auto;text-rendering:auto;enable-background:accumulate"
       d="m 264.23779,672.51488 -18.74516,9.56824 c 13.41398,26.28081 45.79609,28.32075 45.79609,28.32075 l 2.18534,-20.93047 c 0,0 -22.46673,-3.6956 -29.23627,-16.95852 z"
       id="path1647"
       inkscape:connector-curvature="0" />
    <path
       style="color:#000000;font-style:normal;font-variant:normal;font-weight:normal;font-stretch:normal;font-size:medium;line-height:normal;font-family:sans-serif;font-variant-ligatures:normal;font-variant-position:normal;font-variant-caps:normal;font-variant-numeric:normal;font-variant-alternates:normal;font-feature-settings:normal;text-indent:0;text-align:start;text-decoration:none;text-decoration-line:none;text-decoration-style:solid;text-decoration-color:#000000;letter-spacing:normal;word-spacing:normal;text-transform:none;writing-mode:lr-tb;direction:ltr;text-orientation:mixed;dominant-baseline:auto;baseline-shift:baseline;text-anchor:start;white-space:normal;shape-padding:0;clip-rule:nonzero;display:inline;overflow:visible;visibility:visible;opacity:1;isolation:auto;mix-blend-mode:normal;color-interpolation:sRGB;color-interpolation-filters:linearRGB;solid-color:#000000;solid-opacity:1;vector-effect:none;fill:#000000;fill-opacity:1;fill-rule:nonzero;stroke:none;stroke-width:5.03329611;stroke-linecap:butt;stroke-linejoin:miter;stroke-miterlimit:4;stroke-dasharray:none;stroke-dashoffset:0;stroke-opacity:1;color-rendering:auto;image-rendering:auto;shape-rendering:auto;text-rendering:auto;enable-background:accumulate"
       d="m 483.51714,433.80373 c 0,0 -7.68727,12.87082 -13.47377,28.63088 -2.89325,7.87999 -5.32709,16.4995 -6.07611,24.74007 -0.74902,8.24054 0.17237,16.21208 4.41498,22.4809 l 4.16394,-2.82025 c -3.30723,-4.88661 -4.25376,-11.6431 -3.56594,-19.2103 0.68781,-7.56722 2.99065,-15.83613 5.78818,-23.45545 1.46522,-3.99068 2.97086,-6.82487 4.52574,-10.26963 -0.43519,2.9123 -1.05905,5.06545 -1.28465,8.35008 -1.07187,15.6067 0.92222,34.80455 13.91676,48.23985 l 3.61761,-3.49953 c -11.49042,-11.88011 -13.5293,-29.50289 -12.50661,-44.39335 1.02269,-14.89042 5.02039,-26.69655 5.02039,-26.69655 z"
       id="path60719"
       inkscape:connector-curvature="0" />
    <path
       style="color:#000000;font-style:normal;font-variant:normal;font-weight:normal;font-stretch:normal;font-size:medium;line-height:normal;font-family:sans-serif;font-variant-ligatures:normal;font-variant-position:normal;font-variant-caps:normal;font-variant-numeric:normal;font-variant-alternates:normal;font-feature-settings:normal;text-indent:0;text-align:start;text-decoration:none;text-decoration-line:none;text-decoration-style:solid;text-decoration-color:#000000;letter-spacing:normal;word-spacing:normal;text-transform:none;writing-mode:lr-tb;direction:ltr;text-orientation:mixed;dominant-baseline:auto;baseline-shift:baseline;text-anchor:start;white-space:normal;shape-padding:0;clip-rule:nonzero;display:inline;overflow:visible;visibility:visible;opacity:1;isolation:auto;mix-blend-mode:normal;color-interpolation:sRGB;color-interpolation-filters:linearRGB;solid-color:#000000;solid-opacity:1;vector-effect:none;fill:#000000;fill-opacity:1;fill-rule:nonzero;stroke:none;stroke-width:5.03329611;stroke-linecap:butt;stroke-linejoin:miter;stroke-miterlimit:4;stroke-dasharray:none;stroke-dashoffset:0;stroke-opacity:1;color-rendering:auto;image-rendering:auto;shape-rendering:auto;text-rendering:auto;enable-background:accumulate"
       d="m 468.47083,350.16289 c -1.72841,13.14362 2.18812,31.69033 6.40094,47.23579 4.21286,15.54542 8.82995,27.98853 8.82995,27.98853 l 4.82103,-1.41011 c 0,0 -2.28742,-10.64135 -1.86046,-24.02394 0.42692,-13.38264 3.63285,-29.22199 14.09393,-39.68307 l -3.55857,-3.55858 c -11.87149,11.87153 -15.11514,29.0437 -15.56311,43.08659 -0.034,1.06646 0.12889,1.68692 0.12549,2.71691 -0.94872,-3.12206 -1.0623,-2.85862 -2.0303,-6.4305 -4.14712,-15.30297 -7.77974,-33.76897 -6.26806,-45.26454 z"
       id="path60719-5"
       inkscape:connector-curvature="0" />
    <path
       inkscape:connector-curvature="0"
       id="path87-7-1"
       d="m 531.16866,89.534 c -19.202,0.18296 -34.72989,7.90184 -44.7306,19.45297 -10.02766,11.58231 -14.69318,26.53158 -14.55864,41.251 0.13457,14.71948 5.06438,29.48807 15.21425,40.71952 10.11986,11.19766 25.65493,18.36356 44.45598,17.77814 18.43973,-0.0488 33.44192,-7.87522 42.96736,-19.43516 9.55463,-11.59558 13.94439,-26.44578 13.84959,-41.08868 -0.0945,-14.64286 -4.67035,-29.3537 -14.32818,-40.66324 C 564.40555,96.26846 549.34557,88.90651 531.16866,89.534 Z m 0.57298,19.32006 c 12.97121,-0.47715 21.43435,4.05153 27.58739,11.2564 6.15297,7.20518 9.6283,17.6082 9.69664,28.22543 0.0703,10.61723 -3.26259,21.17239 -9.4366,28.66542 -6.17403,7.49314 -14.85274,12.40856 -28.20185,12.40856 h -0.16254 l -0.16254,0.0151 c -13.8844,0.46638 -23.09727,-4.21402 -29.61663,-11.42789 -6.51952,-7.21372 -10.12688,-17.46051 -10.22282,-27.92692 -0.0941,-10.46633 3.31248,-20.87335 9.83884,-28.41144 6.52598,-7.5382 15.98467,-12.68257 30.39619,-12.78943 h 0.14213 z"
       style="color:#000000;font-style:normal;font-variant:normal;font-weight:normal;font-stretch:normal;font-size:medium;line-height:normal;font-family:sans-serif;font-variant-ligatures:normal;font-variant-position:normal;font-variant-caps:normal;font-variant-numeric:normal;font-variant-alternates:normal;font-feature-settings:normal;text-indent:0;text-align:start;text-decoration:none;text-decoration-line:none;text-decoration-style:solid;text-decoration-color:#000000;letter-spacing:normal;word-spacing:normal;text-transform:none;writing-mode:lr-tb;direction:ltr;text-orientation:mixed;dominant-baseline:auto;baseline-shift:baseline;text-anchor:start;white-space:normal;shape-padding:0;clip-rule:nonzero;display:inline;overflow:visible;visibility:visible;opacity:1;isolation:auto;mix-blend-mode:normal;color-interpolation:sRGB;color-interpolation-filters:linearRGB;solid-color:#000000;solid-opacity:1;vector-effect:none;fill:#000000;fill-opacity:1;fill-rule:nonzero;stroke:none;stroke-width:19.34376526;stroke-linecap:butt;stroke-linejoin:miter;stroke-miterlimit:4;stroke-dasharray:none;stroke-dashoffset:0;stroke-opacity:1;color-rendering:auto;image-rendering:auto;shape-rendering:auto;text-rendering:auto;enable-background:accumulate" />
    <path
       inkscape:connector-curvature="0"
       id="path59-19-9"
       d="m 530.33562,64.75568 c -36.32765,0.97037 -71.01128,18.48912 -113.07838,49.73099 l 11.5312,15.5275 c 40.75068,-30.26449 71.64462,-45.11114 102.06421,-45.9238 30.41978,-0.8126 62.30508,12.30422 105.30453,42.19332 l 11.04064,-15.88193 C 602.69621,79.46843 566.66363,63.78518 530.33562,64.75568 Z"
       style="color:#000000;font-style:normal;font-variant:normal;font-weight:normal;font-stretch:normal;font-size:medium;line-height:normal;font-family:sans-serif;font-variant-ligatures:normal;font-variant-position:normal;font-variant-caps:normal;font-variant-numeric:normal;font-variant-alternates:normal;font-feature-settings:normal;text-indent:0;text-align:start;text-decoration:none;text-decoration-line:none;text-decoration-style:solid;text-decoration-color:#000000;letter-spacing:normal;word-spacing:normal;text-transform:none;writing-mode:lr-tb;direction:ltr;text-orientation:mixed;dominant-baseline:auto;baseline-shift:baseline;text-anchor:start;white-space:normal;shape-padding:0;clip-rule:nonzero;display:inline;overflow:visible;visibility:visible;opacity:1;isolation:auto;mix-blend-mode:normal;color-interpolation:sRGB;color-interpolation-filters:linearRGB;solid-color:#000000;solid-opacity:1;vector-effect:none;fill:#000000;fill-opacity:1;fill-rule:nonzero;stroke:none;stroke-width:19.34376526;stroke-linecap:butt;stroke-linejoin:miter;stroke-miterlimit:4;stroke-dasharray:none;stroke-dashoffset:0;stroke-opacity:1;color-rendering:auto;image-rendering:auto;shape-rendering:auto;text-rendering:auto;enable-background:accumulate" />
    <path
       inkscape:connector-curvature="0"
       id="path87-1-33-2"
       d="m 793.80699,86.77518 c -19.20236,0.18296 -34.72733,7.9018 -44.72774,19.45308 -10.02761,11.58228 -14.69358,26.53185 -14.5583,41.25099 0.13419,14.71952 5.06405,29.48796 15.21396,40.71953 10.11992,11.19769 25.65484,18.36359 44.45602,17.77814 18.43976,-0.0488 33.44183,-7.87518 42.96691,-19.43512 9.55503,-11.59562 13.94476,-26.44578 13.84999,-41.08865 -0.0945,-14.6429 -4.67036,-29.3538 -14.32821,-40.66327 C 827.0469,93.50981 811.98384,86.1478 793.80699,86.77518 Z m 0.57566,19.32305 c 12.97144,-0.4772 21.43454,4.04857 27.58753,11.25352 6.15312,7.20503 9.62513,17.61126 9.694,28.2283 0.0703,10.61719 -3.25995,21.1696 -9.43396,28.66255 -6.17394,7.49299 -14.85269,12.40859 -28.20168,12.40859 h -0.16255 l -0.16254,0.0151 c -13.88398,0.46642 -23.09715,-4.21407 -29.61659,-11.42783 -6.5191,-7.21383 -10.12689,-17.46062 -10.22286,-27.92703 -0.0968,-10.46618 3.31249,-20.8733 9.83888,-28.41139 6.52594,-7.53801 15.98463,-12.67963 30.39615,-12.7866 l 0.14251,-0.0151 z"
       style="color:#000000;font-style:normal;font-variant:normal;font-weight:normal;font-stretch:normal;font-size:medium;line-height:normal;font-family:sans-serif;font-variant-ligatures:normal;font-variant-position:normal;font-variant-caps:normal;font-variant-numeric:normal;font-variant-alternates:normal;font-feature-settings:normal;text-indent:0;text-align:start;text-decoration:none;text-decoration-line:none;text-decoration-style:solid;text-decoration-color:#000000;letter-spacing:normal;word-spacing:normal;text-transform:none;writing-mode:lr-tb;direction:ltr;text-orientation:mixed;dominant-baseline:auto;baseline-shift:baseline;text-anchor:start;white-space:normal;shape-padding:0;clip-rule:nonzero;display:inline;overflow:visible;visibility:visible;opacity:1;isolation:auto;mix-blend-mode:normal;color-interpolation:sRGB;color-interpolation-filters:linearRGB;solid-color:#000000;solid-opacity:1;vector-effect:none;fill:#000000;fill-opacity:1;fill-rule:nonzero;stroke:none;stroke-width:19.34376526;stroke-linecap:butt;stroke-linejoin:miter;stroke-miterlimit:4;stroke-dasharray:none;stroke-dashoffset:0;stroke-opacity:1;color-rendering:auto;image-rendering:auto;shape-rendering:auto;text-rendering:auto;enable-background:accumulate" />
    <path
       inkscape:connector-curvature="0"
       id="path59-1-9-8"
       d="m 795.17736,62.36922 c -36.25125,0.0722 -71.73136,16.67075 -115.32058,49.3883 l 11.61414,15.47129 c 42.07577,-31.5816 73.3637,-45.45437 103.74496,-45.51602 30.38115,-0.0609 61.78502,13.81163 103.71846,41.90676 l 10.7659,-16.071 C 866.5198,78.61792 831.42887,62.29536 795.17736,62.36922 Z"
       style="color:#000000;font-style:normal;font-variant:normal;font-weight:normal;font-stretch:normal;font-size:medium;line-height:normal;font-family:sans-serif;font-variant-ligatures:normal;font-variant-position:normal;font-variant-caps:normal;font-variant-numeric:normal;font-variant-alternates:normal;font-feature-settings:normal;text-indent:0;text-align:start;text-decoration:none;text-decoration-line:none;text-decoration-style:solid;text-decoration-color:#000000;letter-spacing:normal;word-spacing:normal;text-transform:none;writing-mode:lr-tb;direction:ltr;text-orientation:mixed;dominant-baseline:auto;baseline-shift:baseline;text-anchor:start;white-space:normal;shape-padding:0;clip-rule:nonzero;display:inline;overflow:visible;visibility:visible;opacity:1;isolation:auto;mix-blend-mode:normal;color-interpolation:sRGB;color-interpolation-filters:linearRGB;solid-color:#000000;solid-opacity:1;vector-effect:none;fill:#000000;fill-opacity:1;fill-rule:nonzero;stroke:none;stroke-width:19.34376526;stroke-linecap:butt;stroke-linejoin:miter;stroke-miterlimit:4;stroke-dasharray:none;stroke-dashoffset:0;stroke-opacity:1;color-rendering:auto;image-rendering:auto;shape-rendering:auto;text-rendering:auto;enable-background:accumulate" />
    <path
       inkscape:connector-curvature="0"
       id="path1681-1"
       d="m 543.41728,468.73012 v 19.20495 h 235.20493 v -19.20495 z"
       style="color:#000000;font-style:normal;font-variant:normal;font-weight:normal;font-stretch:normal;font-size:medium;line-height:normal;font-family:sans-serif;font-variant-ligatures:normal;font-variant-position:normal;font-variant-caps:normal;font-variant-numeric:normal;font-variant-alternates:normal;font-feature-settings:normal;text-indent:0;text-align:start;text-decoration:none;text-decoration-line:none;text-decoration-style:solid;text-decoration-color:#000000;letter-spacing:normal;word-spacing:normal;text-transform:none;writing-mode:lr-tb;direction:ltr;text-orientation:mixed;dominant-baseline:auto;baseline-shift:baseline;text-anchor:start;white-space:normal;shape-padding:0;clip-rule:nonzero;display:inline;overflow:visible;visibility:visible;opacity:1;isolation:auto;mix-blend-mode:normal;color-interpolation:sRGB;color-interpolation-filters:linearRGB;solid-color:#000000;solid-opacity:1;vector-effect:none;fill:#000000;fill-opacity:1;fill-rule:nonzero;stroke:none;stroke-width:19.20332909;stroke-linecap:butt;stroke-linejoin:miter;stroke-miterlimit:4;stroke-dasharray:none;stroke-dashoffset:0;stroke-opacity:1;color-rendering:auto;image-rendering:auto;shape-rendering:auto;text-rendering:auto;enable-background:accumulate" />
    <path
       style="font-style:normal;font-weight:normal;font-size:233.33332825px;line-height:1.25;font-family:sans-serif;letter-spacing:0px;word-spacing:0px;fill:#000000;fill-opacity:1;stroke:none"
       d="m 278,859.23895 v 169.64655 h 22.5586 v -67.44935 h 31.78711 l 56.73828,67.44935 h 29.28125 L 354.5625,954.71545 c 10.78559,-4.1775 19.25586,-10.3691 25.40821,-18.5722 6.15234,-8.2791 9.22851,-18.533 9.22851,-30.7618 0,-9.0386 -1.74826,-16.4815 -5.24218,-22.33 -3.41797,-5.9245 -8.20313,-10.8236 -14.35547,-14.6973 -5.46875,-3.418 -11.6211,-5.7732 -18.45703,-7.0645 -6.83594,-1.3671 -15.38086,-2.0507 -25.63477,-2.0507 z m 296.79489,5.8105 v 36.5723 h -14.4707 v 18.0019 h 14.4707 v 67.6758 c 0,15.41875 3.3787,26.62145 10.1387,33.60945 6.76,6.9878 16.6348,10.4824 29.6231,10.4824 3.7217,0 7.9372,-0.3418 12.6464,-1.0254 4.7852,-0.6836 9.1912,-1.5577 13.2168,-2.6211 v -19.2539 h -1.1406 c -1.671,0.6836 -4.4054,1.5577 -8.2031,2.6211 -3.7978,0.9874 -7.4436,1.4805 -10.9375,1.4805 -6.0004,0 -10.4811,-0.6836 -13.4434,-2.0508 -2.8863,-1.4431 -5.1649,-3.6845 -6.8359,-6.7227 -1.8229,-3.2661 -2.8856,-6.75865 -3.1895,-10.48045 -0.3038,-3.7978 -0.457,-9.0387 -0.457,-15.7227 v -57.9922 h 44.207 v -18.0019 h -44.207 v -36.5723 z m -274.23629,13.5586 h 26.54687 c 6.07639,0 11.3546,0.4557 15.83594,1.3672 4.48134,0.8355 8.35503,2.3539 11.62109,4.5566 3.94966,2.5825 6.76064,5.7726 8.43164,9.5703 1.74697,3.7218 2.6211,8.0139 2.6211,12.875 0,6.3803 -0.83681,11.6585 -2.50781,15.836 -1.59506,4.1015 -4.10157,7.7474 -7.51954,10.9375 -3.72178,3.418 -8.2398,5.7732 -13.55664,7.0644 -5.31684,1.2153 -11.54579,1.8223 -18.68554,1.8223 H 300.5586 Z m 415.62499,19.4824 c -18.0013,0 -32.3175,6.0384 -42.9512,18.1153 -10.5577,12.0008 -15.8378,28.3698 -15.8378,49.1054 0,20.7357 5.2801,37.10265 15.8378,49.10345 10.6337,12.001 24.9499,18.002 42.9512,18.002 17.8494,0 32.0909,-6.001 42.7246,-18.002 10.6337,-12.0008 15.9512,-28.36775 15.9512,-49.10345 0,-20.7356 -5.3175,-37.1046 -15.9512,-49.1054 -10.6337,-12.0769 -24.8752,-18.1153 -42.7246,-18.1153 z m -238.68749,0.4551 c -7.67144,0 -15.45617,0.6836 -23.35547,2.0508 -7.89931,1.3672 -13.93772,2.6204 -18.11524,3.7598 v 21.7617 h 1.13868 c 7.36762,-2.8104 14.50803,-4.9377 21.41992,-6.3809 6.91189,-1.5191 13.17817,-2.2773 18.79883,-2.2773 4.63324,0 9.0766,0.3025 13.33007,0.9101 4.25348,0.6077 7.89931,1.7863 10.9375,3.5332 3.19011,1.8229 5.62001,4.3295 7.29102,7.5196 1.74696,3.1901 2.62109,7.215 2.62109,12.0761 v 3.3047 c -12.45659,0.6077 -24.11697,1.5191 -34.97851,2.7344 -10.86155,1.2153 -20.16472,3.5312 -27.91211,6.9492 -7.67144,3.418 -13.59592,8.1265 -17.77344,14.127 -4.10156,5.9244 -6.15234,13.7111 -6.15234,23.3574 0,11.77295 3.98763,21.45725 11.96289,29.05265 7.97526,7.5955 17.69683,11.3926 29.16601,11.3926 6.2283,0 11.65973,-0.6069 16.29297,-1.8223 4.63325,-1.1393 8.73481,-2.5831 12.30469,-4.3299 3.03819,-1.3672 6.15169,-3.1902 9.3418,-5.4689 3.26606,-2.3546 5.84917,-4.1775 7.74804,-5.4687 v 13.5587 h 21.30469 v -86.36145 c 0,-8.2031 -1.2532,-15.0764 -3.7598,-20.6211 -2.50647,-5.5447 -6.15231,-10.0646 -10.93746,-13.5586 -4.86112,-3.5698 -10.63434,-6.0764 -17.31836,-7.5195 -6.60808,-1.5191 -14.3928,-2.2793 -23.35547,-2.2793 z m 238.68749,18.002 c 11.4692,0 20.4325,4.0249 26.8887,12.0761 6.4561,7.9753 9.6836,20.2053 9.6836,36.6875 0,16.1025 -3.2648,28.2539 -9.7969,36.45705 -6.4562,8.127 -15.3822,12.1913 -26.7754,12.1913 -11.5451,0 -20.5458,-4.1015 -27.0019,-12.3046 -6.4562,-8.27905 -9.6836,-20.39315 -9.6836,-36.34375 0,-16.4822 3.1901,-28.7122 9.5703,-36.6875 6.4561,-8.0512 15.4941,-12.0761 27.1152,-12.0761 z m -204.62109,45.5722 v 35.4336 c -5.31684,4.10155 -11.09006,7.63345 -17.31836,10.59565 -6.22829,2.8863 -13.10156,4.3301 -20.62109,4.3301 -9.03863,0 -15.76063,-1.8229 -20.16601,-5.4687 -4.40539,-3.7218 -6.60938,-9.22985 -6.60938,-16.52145 0,-6.4562 1.89952,-11.5065 5.69727,-15.1524 3.79774,-3.7218 8.77343,-6.4561 14.92578,-8.2031 5.16493,-1.4431 12.15212,-2.5451 20.96289,-3.3047 8.88672,-0.7595 16.59679,-1.3292 23.1289,-1.709 z"
       id="text3377"
       inkscape:connector-curvature="0" />
  </g>
</svg>
