<?xml version="1.0" encoding="UTF-8" standalone="no"?>
<!-- Created with Inkscape (http://www.inkscape.org/) -->

<svg
   xmlns:dc="http://purl.org/dc/elements/1.1/"
   xmlns:cc="http://creativecommons.org/ns#"
   xmlns:rdf="http://www.w3.org/1999/02/22-rdf-syntax-ns#"
   xmlns:svg="http://www.w3.org/2000/svg"
   xmlns="http://www.w3.org/2000/svg"
   xmlns:sodipodi="http://sodipodi.sourceforge.net/DTD/sodipodi-0.dtd"
   xmlns:inkscape="http://www.inkscape.org/namespaces/inkscape"
   width="1000"
   height="1000"
   viewBox="0 0 1000 1000"
   version="1.1"
   id="svg31543"
   inkscape:version="0.92.4 (5da689c313, 2019-01-14)"
   sodipodi:docname="Comandante.svg">
  <defs
     id="defs31537" />
  <sodipodi:namedview
     id="base"
     pagecolor="#ffffff"
     bordercolor="#666666"
     borderopacity="1.0"
     inkscape:pageopacity="0.0"
     inkscape:pageshadow="2"
     inkscape:zoom="0.70710678"
     inkscape:cx="272.66451"
     inkscape:cy="822.24134"
     inkscape:document-units="px"
     inkscape:current-layer="layer1"
     showgrid="false"
     units="px"
     inkscape:window-width="681"
     inkscape:window-height="706"
     inkscape:window-x="-7"
     inkscape:window-y="0"
     inkscape:window-maximized="0" />
  <metadata
     id="metadata31540">
    <rdf:RDF>
      <cc:Work
         rdf:about="">
        <dc:format>image/svg+xml</dc:format>
        <dc:type
           rdf:resource="http://purl.org/dc/dcmitype/StillImage" />
        <dc:title></dc:title>
      </cc:Work>
    </rdf:RDF>
  </metadata>
  <g
     inkscape:label="Camada 1"
     inkscape:groupmode="layer"
     id="layer1"
     transform="translate(0,-32.41665)">
    <path
       style="color:#000000;font-style:normal;font-variant:normal;font-weight:normal;font-stretch:normal;font-size:medium;line-height:normal;font-family:sans-serif;font-variant-ligatures:normal;font-variant-position:normal;font-variant-caps:normal;font-variant-numeric:normal;font-variant-alternates:normal;font-feature-settings:normal;text-indent:0;text-align:start;text-decoration:none;text-decoration-line:none;text-decoration-style:solid;text-decoration-color:#000000;letter-spacing:normal;word-spacing:normal;text-transform:none;writing-mode:lr-tb;direction:ltr;text-orientation:mixed;dominant-baseline:auto;baseline-shift:baseline;text-anchor:start;white-space:normal;shape-padding:0;clip-rule:nonzero;display:inline;overflow:visible;visibility:visible;opacity:1;isolation:auto;mix-blend-mode:normal;color-interpolation:sRGB;color-interpolation-filters:linearRGB;solid-color:#000000;solid-opacity:1;vector-effect:none;fill:#000000;fill-opacity:1;fill-rule:nonzero;stroke:none;stroke-width:23.53855324;stroke-linecap:butt;stroke-linejoin:miter;stroke-miterlimit:4;stroke-dasharray:none;stroke-dashoffset:0;stroke-opacity:1;color-rendering:auto;image-rendering:auto;shape-rendering:auto;text-rendering:auto;enable-background:accumulate"
       d="M 229.63672,32.617188 C 138.92853,32.590811 76.615193,69.009246 40.773438,123.49219 4.9285355,177.97991 -5.0744404,249.12779 2.7597656,319.55469 10.593972,389.98159 36.299096,459.99928 74.248047,513.17188 112.197,566.34447 163.28908,603.38523 221.40234,603.03906 279.48822,602.69302 330.16391,565.2622 367.88867,511.91016 405.61343,458.55812 431.26876,388.57032 439.78906,318.31836 448.30937,248.0664 439.77718,177.2934 406.67578,123.02148 373.57773,68.755058 314.92639,32.310619 229.63672,32.617188 Z m 0.0137,23.537109 h 0.0254 0.0234 c 78.77188,-0.289988 127.6304,31.165006 156.88086,79.123043 29.25045,47.95804 37.90245,113.74505 29.8418,180.20704 -8.06066,66.46198 -32.75384,133.34004 -67.75196,182.83593 C 313.67181,547.81621 269.25169,579.21411 221.26367,579.5 173.30304,579.78569 128.57148,548.76746 93.408203,499.49805 58.244926,450.22863 33.5481,383.42095 26.154297,316.95312 18.760494,250.4853 28.703638,184.66823 60.4375,136.42969 92.171362,88.191142 145.06344,56.123735 229.65039,56.154297 Z"
       id="path10-9-5"
       inkscape:connector-curvature="0" />
    <path
       style="color:#000000;font-style:normal;font-variant:normal;font-weight:normal;font-stretch:normal;font-size:medium;line-height:normal;font-family:sans-serif;font-variant-ligatures:normal;font-variant-position:normal;font-variant-caps:normal;font-variant-numeric:normal;font-variant-alternates:normal;font-feature-settings:normal;text-indent:0;text-align:start;text-decoration:none;text-decoration-line:none;text-decoration-style:solid;text-decoration-color:#000000;letter-spacing:normal;word-spacing:normal;text-transform:none;writing-mode:lr-tb;direction:ltr;text-orientation:mixed;dominant-baseline:auto;baseline-shift:baseline;text-anchor:start;white-space:normal;shape-padding:0;clip-rule:nonzero;display:inline;overflow:visible;visibility:visible;opacity:1;isolation:auto;mix-blend-mode:normal;color-interpolation:sRGB;color-interpolation-filters:linearRGB;solid-color:#000000;solid-opacity:1;vector-effect:none;fill:#000000;fill-opacity:1;fill-rule:nonzero;stroke:none;stroke-width:11.76927662;stroke-linecap:butt;stroke-linejoin:miter;stroke-miterlimit:4;stroke-dasharray:none;stroke-dashoffset:0;stroke-opacity:1;color-rendering:auto;image-rendering:auto;shape-rendering:auto;text-rendering:auto;enable-background:accumulate"
       d="m 217.04492,316.10547 c 0,0 -1.32766,13.09907 -3.52344,26.85937 -1.09788,6.88016 -2.42063,13.92625 -3.84179,19.40039 -0.71058,2.73707 -1.4545,5.08822 -2.1211,6.70899 -0.66016,1.60512 -1.50219,2.44329 -0.91797,1.95898 -1.2999,1.08224 -2.67458,1.98946 -3.39453,4.86914 -0.36074,1.4429 -0.1535,3.59272 0.76758,5.09375 0.92108,1.50104 2.11788,2.23597 3.02344,2.66211 3.62224,1.70457 5.48247,1.05072 7.94531,0.88086 4.92568,-0.33972 10.25977,-1.4375 10.25977,-1.4375 l -2.3086,-11.54101 c 0,0 -2.5153,0.32044 -4.03711,0.57031 0.7805,-2.09261 1.51871,-4.27762 2.17579,-6.80859 1.58817,-6.11748 2.94101,-13.41273 4.07226,-20.50196 2.2625,-14.17845 3.60938,-27.53125 3.60938,-27.53125 z"
       id="path971-8"
       inkscape:connector-curvature="0" />
    <path
       style="color:#000000;font-style:normal;font-variant:normal;font-weight:normal;font-stretch:normal;font-size:medium;line-height:normal;font-family:sans-serif;font-variant-ligatures:normal;font-variant-position:normal;font-variant-caps:normal;font-variant-numeric:normal;font-variant-alternates:normal;font-feature-settings:normal;text-indent:0;text-align:start;text-decoration:none;text-decoration-line:none;text-decoration-style:solid;text-decoration-color:#000000;letter-spacing:normal;word-spacing:normal;text-transform:none;writing-mode:lr-tb;direction:ltr;text-orientation:mixed;dominant-baseline:auto;baseline-shift:baseline;text-anchor:start;white-space:normal;shape-padding:0;clip-rule:nonzero;display:inline;overflow:visible;visibility:visible;opacity:1;isolation:auto;mix-blend-mode:normal;color-interpolation:sRGB;color-interpolation-filters:linearRGB;solid-color:#000000;solid-opacity:1;vector-effect:none;fill:#000000;fill-opacity:1;fill-rule:nonzero;stroke:none;stroke-width:14.70025444;stroke-linecap:butt;stroke-linejoin:miter;stroke-miterlimit:4;stroke-dasharray:none;stroke-dashoffset:0;stroke-opacity:1;color-rendering:auto;image-rendering:auto;shape-rendering:auto;text-rendering:auto;enable-background:accumulate"
       d="m 442.52734,538.99023 c -1.62298,-0.0306 -3.24193,0.0635 -4.83789,0.27149 -6.38381,0.83194 -12.70598,3.54774 -16.92383,9.0332 l 0.20508,-0.25586 c -21.81563,25.89682 -84.21093,79.29883 -84.21093,79.29883 l -0.72657,0.61914 -0.54492,0.78125 c -30.04525,43.2289 -56.85937,62.11133 -56.85937,62.11133 -45.80791,32.2584 -89.89063,85.99023 -89.89063,85.99023 l -0.2832,0.34571 -0.24219,0.37695 c -33.10161,51.88587 -66.72499,80.06355 -91.849609,95.33594 -25.124619,15.27238 -41.001953,17.51562 -41.001953,17.51562 l 2.185547,14.53711 c 0,0 19.434106,-3.06631 46.453125,-19.49023 26.92784,-16.36851 62.13324,-46.15743 96.25977,-99.47852 0.51929,-0.62576 43.98773,-52.94549 86.84765,-83.12304 l 0.006,-0.006 0.008,-0.006 c 0,0 28.80009,-20.52232 59.82618,-64.88477 1.96759,-1.66924 61.47647,-52.21127 85.26757,-80.45312 l 0.10547,-0.125 0.0996,-0.12891 c 1.12146,-1.4585 3.78108,-2.97633 7.16992,-3.41797 3.38885,-0.44163 7.19862,0.23659 9.79883,1.73438 2.60022,1.49778 4.14073,3.30854 4.60938,6.87304 0.46256,3.51825 -0.52415,9.36389 -5.38867,17.63477 -1.23267,1.6791 -9.20428,11.20157 -19.51954,23.36328 -10.41718,12.28189 -23.5454,27.7756 -36.28125,43.25586 -12.73585,15.48026 -25.06528,30.92189 -34,43.2832 -4.46735,6.18066 -8.07785,11.55186 -10.57421,16.05078 -1.24819,2.24947 -2.2309,4.2454 -2.91602,6.38282 -0.68512,2.13741 -1.88934,4.84874 0.52734,8.91992 l 0.043,0.0723 7.39258,11.83594 6.35547,-4.49805 c 0,0 13.735,-9.72024 27.94336,-19.83789 7.10418,-5.05882 14.32483,-10.21675 20.01953,-14.3164 5.6947,-4.09966 9.18464,-6.55353 11.17578,-8.22266 -0.79294,0.66471 0.14989,-0.0894 1.08008,-0.67773 0.93019,-0.58836 2.25874,-1.40497 3.89648,-2.39844 3.27549,-1.98694 7.8052,-4.68732 13.15625,-7.8457 10.7021,-6.31678 24.70444,-14.47889 38.75782,-22.60157 14.05337,-8.12267 28.16229,-16.20898 39.07617,-22.36718 5.45694,-3.0791 10.11828,-5.67681 13.54492,-7.54297 1.71332,-0.93308 3.12189,-1.68453 4.12891,-2.20313 1.00701,-0.51859 2.06032,-0.91641 1.21679,-0.625 12.08335,-4.17438 19.28728,-0.0451 22.54492,5.25196 3.24996,5.28455 3.24893,11.98926 -4.83203,18.01367 -0.50113,0.32981 -80.88599,53.24366 -123.25586,85.30468 -27.3632,17.68278 -43.59928,20.60702 -55.33203,34.71485 l -6.49804,7.8125 9.45312,3.72461 c 0,0 1.95689,0.59214 3.39063,0.65625 1.43373,0.0641 3.17671,-0.0616 5.35546,-0.50782 4.10133,-0.83997 9.98452,-2.98414 18.23047,-7.29101 4.51384,-0.81009 7.87302,0.0514 10.87891,1.97656 3.14619,2.01498 5.844,5.40917 7.53906,9.38477 1.69507,3.9756 2.31994,8.45525 1.82617,12.07226 -0.49175,3.6023 -1.87961,6.1215 -4.03711,7.70899 -0.35857,0.22266 -1.94284,1.19902 -4.20312,2.71875 -2.50075,1.6814 -5.14128,3.38745 -7.49609,5.77148 l -6.85352,6.9375 8.55664,4.67774 c 0,0 4.49719,2.56205 6.73633,7.97461 2.21901,5.36389 3.08943,13.92275 -9.22266,29.42578 -12.46622,12.14469 -28.04206,18.80167 -41.38476,34.59179 l -0.0684,0.0801 -0.0645,0.082 c 0,0 -48.41799,60.15942 -114.24609,84.17188 -34.03553,12.41535 -51.88553,17.45867 -65.94141,22.57422 -14.05587,5.11555 -24.25274,10.47295 -40.78515,22.43355 l 8.61523,11.9102 c 15.9451,-11.5357 24.00844,-15.7293 37.19727,-20.5293 13.18882,-4.8 31.56707,-10.0356 65.95117,-22.57812 71.01124,-25.90314 120.70313,-88.82032 120.70312,-88.82032 l -0.13281,0.16406 c 10.90049,-12.89994 25.98543,-19.31352 40.74414,-33.83593 l 0.30664,-0.30078 0.26953,-0.33594 c 14.77713,-18.39896 15.97308,-34.18171 11.64063,-44.6543 -1.41335,-3.4164 -3.30538,-6.01341 -5.22852,-8.25 1.45296,-0.94713 3.08204,-1.99414 3.08204,-1.99414 l 0.24218,-0.14844 0.22852,-0.16797 c 5.92118,-4.32312 9.04721,-10.96869 9.95508,-17.61914 0.90787,-6.65045 -0.18239,-13.52925 -2.86719,-19.82617 -2.6848,-6.29692 -7.0303,-12.08844 -13.13477,-15.99804 -2.26239,-1.44895 -4.84203,-2.47727 -7.54101,-3.26563 6.42671,-3.50304 13.55918,-7.55858 22.2207,-13.16211 l 0.22852,-0.14844 0.21679,-0.16406 c 41.46322,-31.41149 123.09375,-85.18555 123.09375,-85.18555 l 0.17188,-0.11328 0.16406,-0.12109 c 13.21496,-9.80015 15.63039,-26.21349 8.64844,-37.56641 -6.98195,-11.35291 -22.67517,-17.38456 -39.86719,-11.44531 -1.53096,0.52889 -1.96647,0.84154 -3.14648,1.44922 -1.18001,0.60768 -2.65621,1.3985 -4.42774,2.36328 -3.54306,1.92957 -8.24483,4.55069 -13.73828,7.65039 -10.98689,6.1994 -25.12571,14.30032 -39.21094,22.44141 -14.08522,8.14108 -28.11191,16.32026 -38.87304,22.67187 -5.38057,3.17581 -9.94253,5.89171 -13.3086,7.9336 -1.68303,1.02094 -3.06349,1.87103 -4.1289,2.54492 -1.06542,0.67389 -1.40442,0.77835 -2.66602,1.83594 0.11646,-0.0976 -4.66401,3.48463 -10.32031,7.55664 -5.6563,4.072 -12.86584,9.22247 -19.95899,14.27343 -6.92883,4.93397 -8.4681,6.01581 -13.63085,9.67774 1.72569,-2.63943 2.94192,-4.75407 5.30078,-8.01758 8.57472,-11.86327 20.7933,-27.18778 33.4375,-42.55664 12.6442,-15.36887 25.72735,-30.80866 36.14062,-43.08594 10.41327,-12.27727 17.67375,-20.68416 20.42774,-24.5039 l 0.1875,-0.25977 0.16406,-0.27734 c 6.1318,-10.28814 8.54405,-19.38047 7.49219,-27.38086 -1.05187,-8.0004 -5.9462,-14.29706 -11.84571,-17.69532 -4.42463,-2.54869 -9.33028,-3.75205 -14.19922,-3.84375 z"
       id="path6807-4"
       inkscape:connector-curvature="0" />
    <path
       style="color:#000000;font-style:normal;font-variant:normal;font-weight:normal;font-stretch:normal;font-size:medium;line-height:normal;font-family:sans-serif;font-variant-ligatures:normal;font-variant-position:normal;font-variant-caps:normal;font-variant-numeric:normal;font-variant-alternates:normal;font-feature-settings:normal;text-indent:0;text-align:start;text-decoration:none;text-decoration-line:none;text-decoration-style:solid;text-decoration-color:#000000;letter-spacing:normal;word-spacing:normal;text-transform:none;writing-mode:lr-tb;direction:ltr;text-orientation:mixed;dominant-baseline:auto;baseline-shift:baseline;text-anchor:start;white-space:normal;shape-padding:0;clip-rule:nonzero;display:inline;overflow:visible;visibility:visible;opacity:1;isolation:auto;mix-blend-mode:normal;color-interpolation:sRGB;color-interpolation-filters:linearRGB;solid-color:#000000;solid-opacity:1;vector-effect:none;fill:#000000;fill-opacity:1;fill-rule:nonzero;stroke:none;stroke-width:14.70025444;stroke-linecap:butt;stroke-linejoin:miter;stroke-miterlimit:4;stroke-dasharray:none;stroke-dashoffset:0;stroke-opacity:1;color-rendering:auto;image-rendering:auto;shape-rendering:auto;text-rendering:auto;enable-background:accumulate"
       d="m 408.22852,806.55078 c -13.75407,9.56762 -21.11976,12.06502 -26.44336,14.10156 -6.92137,2.64787 -10.52539,8.09375 -10.52539,8.09375 l 12.16406,8.25586 c 0,0 1.25886,-1.71777 3.61328,-2.61914 4.90804,-1.87757 14.71302,-5.41775 29.58594,-15.76367 z"
       id="path6809-0"
       inkscape:connector-curvature="0" />
    <path
       style="color:#000000;font-style:normal;font-variant:normal;font-weight:normal;font-stretch:normal;font-size:medium;line-height:normal;font-family:sans-serif;font-variant-ligatures:normal;font-variant-position:normal;font-variant-caps:normal;font-variant-numeric:normal;font-variant-alternates:normal;font-feature-settings:normal;text-indent:0;text-align:start;text-decoration:none;text-decoration-line:none;text-decoration-style:solid;text-decoration-color:#000000;letter-spacing:normal;word-spacing:normal;text-transform:none;writing-mode:lr-tb;direction:ltr;text-orientation:mixed;dominant-baseline:auto;baseline-shift:baseline;text-anchor:start;white-space:normal;shape-padding:0;clip-rule:nonzero;display:inline;overflow:visible;visibility:visible;opacity:1;isolation:auto;mix-blend-mode:normal;color-interpolation:sRGB;color-interpolation-filters:linearRGB;solid-color:#000000;solid-opacity:1;vector-effect:none;fill:#000000;fill-opacity:1;fill-rule:nonzero;stroke:none;stroke-width:7.35012722;stroke-linecap:butt;stroke-linejoin:miter;stroke-miterlimit:4;stroke-dasharray:none;stroke-dashoffset:0;stroke-opacity:1;color-rendering:auto;image-rendering:auto;shape-rendering:auto;text-rendering:auto;enable-background:accumulate"
       d="m 440.99023,549.83203 c -6.7225,0.26625 -11.98828,4.0957 -11.98828,4.0957 l -0.50586,0.34571 -0.36523,0.49023 c -4.1839,5.6145 -6.10134,11.01568 -5.88672,15.86524 0.21462,4.84955 2.84537,9.06159 6.79492,11.14453 7.89911,4.16587 19.33756,0.56326 28.50782,-11.26367 l 1.01367,-1.3086 -0.3086,-1.62695 c -1.24574,-6.58258 -3.56183,-11.14704 -6.76172,-14.04688 -3.19989,-2.89983 -7.13874,-3.82843 -10.5,-3.69531 z m 0.29102,7.34375 c 1.95556,-0.0774 3.62224,0.30228 5.27148,1.79688 1.4508,1.31475 2.92645,4.05745 3.99415,8.40234 -7.42178,8.70486 -14.79189,9.6296 -18.07813,7.89648 -1.73114,-0.91297 -2.76509,-2.35089 -2.88086,-4.96679 -0.11072,-2.50181 0.93833,-6.18339 4.05664,-10.56641 0.68662,-0.41451 4.09606,-2.42227 7.63672,-2.5625 z"
       id="path6842-12"
       inkscape:connector-curvature="0" />
    <path
       style="color:#000000;font-style:normal;font-variant:normal;font-weight:normal;font-stretch:normal;font-size:medium;line-height:normal;font-family:sans-serif;font-variant-ligatures:normal;font-variant-position:normal;font-variant-caps:normal;font-variant-numeric:normal;font-variant-alternates:normal;font-feature-settings:normal;text-indent:0;text-align:start;text-decoration:none;text-decoration-line:none;text-decoration-style:solid;text-decoration-color:#000000;letter-spacing:normal;word-spacing:normal;text-transform:none;writing-mode:lr-tb;direction:ltr;text-orientation:mixed;dominant-baseline:auto;baseline-shift:baseline;text-anchor:start;white-space:normal;shape-padding:0;clip-rule:nonzero;display:inline;overflow:visible;visibility:visible;opacity:1;isolation:auto;mix-blend-mode:normal;color-interpolation:sRGB;color-interpolation-filters:linearRGB;solid-color:#000000;solid-opacity:1;vector-effect:none;fill:#000000;fill-opacity:1;fill-rule:nonzero;stroke:none;stroke-width:7.35012722;stroke-linecap:butt;stroke-linejoin:miter;stroke-miterlimit:4;stroke-dasharray:none;stroke-dashoffset:0;stroke-opacity:1;color-rendering:auto;image-rendering:auto;shape-rendering:auto;text-rendering:auto;enable-background:accumulate"
       d="m 539.27734,612.44922 -1.40429,0.79101 c -7.30719,4.11644 -12.09041,9.10184 -14.48047,14.34571 -2.39007,5.24386 -2.24537,10.85334 0.37109,15.1875 2.61646,4.33415 7.5116,7.15286 13.42383,7.71094 5.91223,0.55807 12.89084,-1.01065 20.52344,-5.20118 l 1.36133,-0.74609 0.41406,-1.49609 c 0,0 1.56063,-5.55004 -0.0762,-12.08204 -1.6368,-6.532 -6.88499,-14.22235 -18.60157,-18.01367 z m 0.74219,8.14062 c 8.36519,3.16854 11.19192,7.88699 12.26172,12.15625 0.79043,3.15438 0.57022,5.41697 0.34375,6.83008 -5.94669,2.97435 -11.01581,3.9441 -14.74805,3.5918 -4.06146,-0.38338 -6.54254,-2.07673 -7.82031,-4.19336 -1.27777,-2.11663 -1.54478,-4.89681 0.0254,-8.3418 1.43385,-3.1459 4.62885,-6.74418 9.9375,-10.04297 z"
       id="path6842-1-3"
       inkscape:connector-curvature="0" />
    <path
       style="color:#000000;font-style:normal;font-variant:normal;font-weight:normal;font-stretch:normal;font-size:medium;line-height:normal;font-family:sans-serif;font-variant-ligatures:normal;font-variant-position:normal;font-variant-caps:normal;font-variant-numeric:normal;font-variant-alternates:normal;font-feature-settings:normal;text-indent:0;text-align:start;text-decoration:none;text-decoration-line:none;text-decoration-style:solid;text-decoration-color:#000000;letter-spacing:normal;word-spacing:normal;text-transform:none;writing-mode:lr-tb;direction:ltr;text-orientation:mixed;dominant-baseline:auto;baseline-shift:baseline;text-anchor:start;white-space:normal;shape-padding:0;clip-rule:nonzero;display:inline;overflow:visible;visibility:visible;opacity:1;isolation:auto;mix-blend-mode:normal;color-interpolation:sRGB;color-interpolation-filters:linearRGB;solid-color:#000000;solid-opacity:1;vector-effect:none;fill:#000000;fill-opacity:1;fill-rule:nonzero;stroke:none;stroke-width:5.84267139;stroke-linecap:butt;stroke-linejoin:miter;stroke-miterlimit:4;stroke-dasharray:none;stroke-dashoffset:0;stroke-opacity:1;color-rendering:auto;image-rendering:auto;shape-rendering:auto;text-rendering:auto;enable-background:accumulate"
       d="m 262.12891,737.13086 -5.625,1.57617 c 0,0 6.72545,22.84403 31.50586,24.76367 l 0.45117,-5.82617 c -21.36758,-1.65526 -26.33203,-20.51367 -26.33203,-20.51367 z"
       id="path3720"
       inkscape:connector-curvature="0" />
    <path
       style="color:#000000;font-style:normal;font-variant:normal;font-weight:normal;font-stretch:normal;font-size:medium;line-height:normal;font-family:sans-serif;font-variant-ligatures:normal;font-variant-position:normal;font-variant-caps:normal;font-variant-numeric:normal;font-variant-alternates:normal;font-feature-settings:normal;text-indent:0;text-align:start;text-decoration:none;text-decoration-line:none;text-decoration-style:solid;text-decoration-color:#000000;letter-spacing:normal;word-spacing:normal;text-transform:none;writing-mode:lr-tb;direction:ltr;text-orientation:mixed;dominant-baseline:auto;baseline-shift:baseline;text-anchor:start;white-space:normal;shape-padding:0;clip-rule:nonzero;display:inline;overflow:visible;visibility:visible;opacity:1;isolation:auto;mix-blend-mode:normal;color-interpolation:sRGB;color-interpolation-filters:linearRGB;solid-color:#000000;solid-opacity:1;vector-effect:none;fill:#000000;fill-opacity:1;fill-rule:nonzero;stroke:none;stroke-width:5.84267139;stroke-linecap:butt;stroke-linejoin:miter;stroke-miterlimit:4;stroke-dasharray:none;stroke-dashoffset:0;stroke-opacity:1;color-rendering:auto;image-rendering:auto;shape-rendering:auto;text-rendering:auto;enable-background:accumulate"
       d="m 301.23242,771.6543 -5.83984,0.1875 c 0,0 0.17709,6.41059 2.90234,13.16015 2.72525,6.74957 8.49955,14.30682 18.97266,15.33594 l 0.57031,-5.81445 c -8.00087,-0.7862 -11.84871,-6.07136 -14.125,-11.70899 -2.27628,-5.63762 -2.48047,-11.16015 -2.48047,-11.16015 z"
       id="path3722"
       inkscape:connector-curvature="0" />
    <path
       style="color:#000000;font-style:normal;font-variant:normal;font-weight:normal;font-stretch:normal;font-size:medium;line-height:normal;font-family:sans-serif;font-variant-ligatures:normal;font-variant-position:normal;font-variant-caps:normal;font-variant-numeric:normal;font-variant-alternates:normal;font-feature-settings:normal;text-indent:0;text-align:start;text-decoration:none;text-decoration-line:none;text-decoration-style:solid;text-decoration-color:#000000;letter-spacing:normal;word-spacing:normal;text-transform:none;writing-mode:lr-tb;direction:ltr;text-orientation:mixed;dominant-baseline:auto;baseline-shift:baseline;text-anchor:start;white-space:normal;shape-padding:0;clip-rule:nonzero;display:inline;overflow:visible;visibility:visible;opacity:1;isolation:auto;mix-blend-mode:normal;color-interpolation:sRGB;color-interpolation-filters:linearRGB;solid-color:#000000;solid-opacity:1;vector-effect:none;fill:#000000;fill-opacity:1;fill-rule:nonzero;stroke:none;stroke-width:5.84267139;stroke-linecap:butt;stroke-linejoin:miter;stroke-miterlimit:4;stroke-dasharray:none;stroke-dashoffset:0;stroke-opacity:1;color-rendering:auto;image-rendering:auto;shape-rendering:auto;text-rendering:auto;enable-background:accumulate"
       d="m 319.00391,810.64648 c 0,0 -0.3033,6.84431 1.67187,14.55469 1.97517,7.71039 6.41903,16.81616 16.17188,20.35742 l 1.99414,-5.49218 c -7.25554,-2.63449 -10.77233,-9.54927 -12.50586,-16.31641 -1.73354,-6.76714 -1.49414,-12.85742 -1.49414,-12.85742 z"
       id="path3724"
       inkscape:connector-curvature="0" />
    <path
       style="color:#000000;font-style:normal;font-variant:normal;font-weight:normal;font-stretch:normal;font-size:medium;line-height:normal;font-family:sans-serif;font-variant-ligatures:normal;font-variant-position:normal;font-variant-caps:normal;font-variant-numeric:normal;font-variant-alternates:normal;font-feature-settings:normal;text-indent:0;text-align:start;text-decoration:none;text-decoration-line:none;text-decoration-style:solid;text-decoration-color:#000000;letter-spacing:normal;word-spacing:normal;text-transform:none;writing-mode:lr-tb;direction:ltr;text-orientation:mixed;dominant-baseline:auto;baseline-shift:baseline;text-anchor:start;white-space:normal;shape-padding:0;clip-rule:nonzero;display:inline;overflow:visible;visibility:visible;opacity:1;isolation:auto;mix-blend-mode:normal;color-interpolation:sRGB;color-interpolation-filters:linearRGB;solid-color:#000000;solid-opacity:1;vector-effect:none;fill:#000000;fill-opacity:1;fill-rule:nonzero;stroke:none;stroke-width:5.84267139;stroke-linecap:butt;stroke-linejoin:miter;stroke-miterlimit:4;stroke-dasharray:none;stroke-dashoffset:0;stroke-opacity:1;color-rendering:auto;image-rendering:auto;shape-rendering:auto;text-rendering:auto;enable-background:accumulate"
       d="m 332.63086,864.15039 c 0,0 -0.30495,6.81835 1.54687,14.36328 1.85183,7.54493 6.07877,16.43871 15.50391,19.29883 l 1.69727,-5.5918 c -6.64291,-2.01583 -9.90557,-8.49195 -11.52735,-15.09961 -1.62177,-6.60765 -1.38281,-12.72461 -1.38281,-12.72461 z"
       id="path3726"
       inkscape:connector-curvature="0" />
    <path
       style="color:#000000;font-style:normal;font-variant:normal;font-weight:normal;font-stretch:normal;font-size:medium;line-height:normal;font-family:sans-serif;font-variant-ligatures:normal;font-variant-position:normal;font-variant-caps:normal;font-variant-numeric:normal;font-variant-alternates:normal;font-feature-settings:normal;text-indent:0;text-align:start;text-decoration:none;text-decoration-line:none;text-decoration-style:solid;text-decoration-color:#000000;letter-spacing:normal;word-spacing:normal;text-transform:none;writing-mode:lr-tb;direction:ltr;text-orientation:mixed;dominant-baseline:auto;baseline-shift:baseline;text-anchor:start;white-space:normal;shape-padding:0;clip-rule:nonzero;display:inline;overflow:visible;visibility:visible;opacity:1;isolation:auto;mix-blend-mode:normal;color-interpolation:sRGB;color-interpolation-filters:linearRGB;solid-color:#000000;solid-opacity:1;vector-effect:none;fill:#000000;fill-opacity:1;fill-rule:nonzero;stroke:none;stroke-width:11.78751469;stroke-linecap:butt;stroke-linejoin:miter;stroke-miterlimit:4;stroke-dasharray:none;stroke-dashoffset:0;stroke-opacity:1;color-rendering:auto;image-rendering:auto;shape-rendering:auto;text-rendering:auto;enable-background:accumulate"
       d="m 303.54642,488.88275 c -44.87279,-44.17502 -83.50318,-45.9282 -112.98415,-36.61684 -14.74048,4.65566 -27.17246,12.3128 -36.41346,19.34689 -9.24103,7.03426 -15.028,13.17328 -17.44985,15.57264 l -8.29569,-8.37482 c 1.86638,-1.84912 8.60111,-8.96046 18.60715,-16.57698 10.00612,-7.6165 23.54778,-16.01087 40.00248,-21.20799 32.90942,-10.39416 77.55567,-7.05485 124.80217,39.45703 z"
       id="path29-0"
       inkscape:connector-curvature="0" />
    <path
       style="color:#000000;font-style:normal;font-variant:normal;font-weight:normal;font-stretch:normal;font-size:medium;line-height:normal;font-family:sans-serif;font-variant-ligatures:normal;font-variant-position:normal;font-variant-caps:normal;font-variant-numeric:normal;font-variant-alternates:normal;font-feature-settings:normal;text-indent:0;text-align:start;text-decoration:none;text-decoration-line:none;text-decoration-style:solid;text-decoration-color:#000000;letter-spacing:normal;word-spacing:normal;text-transform:none;writing-mode:lr-tb;direction:ltr;text-orientation:mixed;dominant-baseline:auto;baseline-shift:baseline;text-anchor:start;white-space:normal;shape-padding:0;clip-rule:nonzero;display:inline;overflow:visible;visibility:visible;opacity:1;isolation:auto;mix-blend-mode:normal;color-interpolation:sRGB;color-interpolation-filters:linearRGB;solid-color:#000000;solid-opacity:1;vector-effect:none;fill:#000000;fill-opacity:1;fill-rule:nonzero;stroke:none;stroke-width:11.78751469;stroke-linecap:butt;stroke-linejoin:miter;stroke-miterlimit:4;stroke-dasharray:none;stroke-dashoffset:0;stroke-opacity:1;color-rendering:auto;image-rendering:auto;shape-rendering:auto;text-rendering:auto;enable-background:accumulate"
       d="m 143.09753,219.81222 c -11.70121,0.11173 -21.16329,4.81513 -27.25748,11.85409 -6.11054,7.05794 -8.95389,16.1676 -8.87163,25.13716 0.0822,8.96963 3.08604,17.96906 9.27121,24.81323 6.16457,6.82135 15.62763,11.18882 27.07929,10.8354 11.24194,-0.0261 20.3873,-4.79666 26.19371,-11.8433 5.82231,-7.06596 8.49929,-16.1171 8.44145,-25.04001 -0.0577,-8.9229 -2.84605,-17.88731 -8.73125,-24.77898 -5.86992,-6.87382 -15.04882,-11.35989 -26.1253,-10.97759 z m 0.34915,11.77489 c 7.90432,-0.29079 13.06155,2.46705 16.8109,6.85756 3.7494,4.39058 5.86706,10.73171 5.90904,17.20153 0.042,6.46982 -1.98827,12.90004 -5.75063,17.46613 -3.76234,4.56591 -9.05081,7.56134 -17.1853,7.56134 h -0.099 l -0.0988,0.007 c -8.46051,0.28423 -14.07475,-2.56782 -18.04746,-6.96378 -3.97271,-4.39579 -6.17087,-10.63995 -6.22939,-17.01792 -0.0584,-6.3778 2.01847,-12.71949 5.99539,-17.31303 3.97698,-4.59354 9.74046,-7.72658 18.52261,-7.79176 l 0.0863,-0.007 z"
       id="path87-4"
       inkscape:connector-curvature="0" />
    <path
       style="color:#000000;font-style:normal;font-variant:normal;font-weight:normal;font-stretch:normal;font-size:medium;line-height:normal;font-family:sans-serif;font-variant-ligatures:normal;font-variant-position:normal;font-variant-caps:normal;font-variant-numeric:normal;font-variant-alternates:normal;font-feature-settings:normal;text-indent:0;text-align:start;text-decoration:none;text-decoration-line:none;text-decoration-style:solid;text-decoration-color:#000000;letter-spacing:normal;word-spacing:normal;text-transform:none;writing-mode:lr-tb;direction:ltr;text-orientation:mixed;dominant-baseline:auto;baseline-shift:baseline;text-anchor:start;white-space:normal;shape-padding:0;clip-rule:nonzero;display:inline;overflow:visible;visibility:visible;opacity:1;isolation:auto;mix-blend-mode:normal;color-interpolation:sRGB;color-interpolation-filters:linearRGB;solid-color:#000000;solid-opacity:1;vector-effect:none;fill:#000000;fill-opacity:1;fill-rule:nonzero;stroke:none;stroke-width:11.78751469;stroke-linecap:butt;stroke-linejoin:miter;stroke-miterlimit:4;stroke-dasharray:none;stroke-dashoffset:0;stroke-opacity:1;color-rendering:auto;image-rendering:auto;shape-rendering:auto;text-rendering:auto;enable-background:accumulate"
       d="m 142.58995,197.39827 c -22.13718,0.59142 -43.272286,11.26671 -68.906736,30.30474 l 7.028535,9.46367 c 24.832341,-18.44221 43.656351,-27.48931 62.193141,-27.98454 18.53685,-0.49514 37.96688,7.49776 64.16953,25.71135 l 6.72796,-9.67978 c -27.11809,-18.84993 -49.07529,-28.40669 -71.21243,-27.81544 z"
       id="path59-4"
       inkscape:connector-curvature="0" />
    <path
       style="color:#000000;font-style:normal;font-variant:normal;font-weight:normal;font-stretch:normal;font-size:medium;line-height:normal;font-family:sans-serif;font-variant-ligatures:normal;font-variant-position:normal;font-variant-caps:normal;font-variant-numeric:normal;font-variant-alternates:normal;font-feature-settings:normal;text-indent:0;text-align:start;text-decoration:none;text-decoration-line:none;text-decoration-style:solid;text-decoration-color:#000000;letter-spacing:normal;word-spacing:normal;text-transform:none;writing-mode:lr-tb;direction:ltr;text-orientation:mixed;dominant-baseline:auto;baseline-shift:baseline;text-anchor:start;white-space:normal;shape-padding:0;clip-rule:nonzero;display:inline;overflow:visible;visibility:visible;opacity:1;isolation:auto;mix-blend-mode:normal;color-interpolation:sRGB;color-interpolation-filters:linearRGB;solid-color:#000000;solid-opacity:1;vector-effect:none;fill:#000000;fill-opacity:1;fill-rule:nonzero;stroke:none;stroke-width:11.78751469;stroke-linecap:butt;stroke-linejoin:miter;stroke-miterlimit:4;stroke-dasharray:none;stroke-dashoffset:0;stroke-opacity:1;color-rendering:auto;image-rendering:auto;shape-rendering:auto;text-rendering:auto;enable-background:accumulate"
       d="m 303.14322,218.13116 c -11.70121,0.11166 -21.16327,4.81686 -27.25747,11.85585 -6.11054,7.05799 -8.9539,16.16587 -8.87162,25.13532 0.0822,8.9697 3.08603,17.96916 9.2712,24.8133 6.16661,6.82357 15.63336,11.1919 27.09011,10.83534 11.23677,-0.0292 20.37844,-4.79903 26.1829,-11.84322 5.8223,-7.06605 8.49751,-16.1153 8.4396,-25.03828 -0.0577,-8.92289 -2.84591,-17.88913 -8.73119,-24.7808 -5.86964,-6.87335 -15.04783,-11.35926 -26.12353,-10.97751 z m 0.34915,11.77488 c 7.90434,-0.29077 13.06154,2.46698 16.81095,6.85758 3.74937,4.39051 5.86526,10.73165 5.90722,17.20153 0.0421,6.46974 -1.98649,12.90003 -5.74884,17.46603 -3.76235,4.566 -9.05075,7.56308 -17.18526,7.56308 h -0.099 l -0.099,0.007 c -8.46052,0.28421 -14.07475,-2.56776 -18.04746,-6.96373 -3.97266,-4.39594 -6.17088,-10.64009 -6.22939,-17.01799 -0.0585,-6.3778 2.01841,-12.71949 5.99538,-17.31295 3.97699,-4.59361 9.74052,-7.72665 18.52267,-7.79175 h 0.0863 z"
       id="path87-1-31"
       inkscape:connector-curvature="0" />
    <path
       style="color:#000000;font-style:normal;font-variant:normal;font-weight:normal;font-stretch:normal;font-size:medium;line-height:normal;font-family:sans-serif;font-variant-ligatures:normal;font-variant-position:normal;font-variant-caps:normal;font-variant-numeric:normal;font-variant-alternates:normal;font-feature-settings:normal;text-indent:0;text-align:start;text-decoration:none;text-decoration-line:none;text-decoration-style:solid;text-decoration-color:#000000;letter-spacing:normal;word-spacing:normal;text-transform:none;writing-mode:lr-tb;direction:ltr;text-orientation:mixed;dominant-baseline:auto;baseline-shift:baseline;text-anchor:start;white-space:normal;shape-padding:0;clip-rule:nonzero;display:inline;overflow:visible;visibility:visible;opacity:1;isolation:auto;mix-blend-mode:normal;color-interpolation:sRGB;color-interpolation-filters:linearRGB;solid-color:#000000;solid-opacity:1;vector-effect:none;fill:#000000;fill-opacity:1;fill-rule:nonzero;stroke:none;stroke-width:11.78751469;stroke-linecap:butt;stroke-linejoin:miter;stroke-miterlimit:4;stroke-dasharray:none;stroke-dashoffset:0;stroke-opacity:1;color-rendering:auto;image-rendering:auto;shape-rendering:auto;text-rendering:auto;enable-background:accumulate"
       d="m 303.97652,195.94581 c -22.09047,0.0449 -43.71098,10.15687 -70.27282,30.09408 l 7.07711,9.42774 c 25.63971,-19.24502 44.70746,-27.69676 63.221,-27.7344 18.51341,-0.0371 37.64799,8.41466 63.20109,25.53492 l 6.56238,-9.79129 c -26.31302,-17.62952 -47.69822,-27.57594 -69.78876,-27.53105 z"
       id="path59-1-31"
       inkscape:connector-curvature="0" />
  </g>
</svg>
