<?xml version="1.0" encoding="UTF-8" standalone="no"?>
<!-- Created with Inkscape (http://www.inkscape.org/) -->

<svg
   xmlns:dc="http://purl.org/dc/elements/1.1/"
   xmlns:cc="http://creativecommons.org/ns#"
   xmlns:rdf="http://www.w3.org/1999/02/22-rdf-syntax-ns#"
   xmlns:svg="http://www.w3.org/2000/svg"
   xmlns="http://www.w3.org/2000/svg"
   xmlns:sodipodi="http://sodipodi.sourceforge.net/DTD/sodipodi-0.dtd"
   xmlns:inkscape="http://www.inkscape.org/namespaces/inkscape"
   width="1000"
   height="1000"
   viewBox="0 0 1000 1000"
   version="1.1"
   id="svg9223"
   inkscape:version="0.92.4 (5da689c313, 2019-01-14)"
   sodipodi:docname="Ainda.svg">
  <defs
     id="defs9217" />
  <sodipodi:namedview
     id="base"
     pagecolor="#ffffff"
     bordercolor="#666666"
     borderopacity="1.0"
     inkscape:pageopacity="0.0"
     inkscape:pageshadow="2"
     inkscape:zoom="0.1767767"
     inkscape:cx="1870.7176"
     inkscape:cy="837.39766"
     inkscape:document-units="px"
     inkscape:current-layer="layer1"
     showgrid="false"
     units="px"
     inkscape:window-width="1366"
     inkscape:window-height="715"
     inkscape:window-x="-8"
     inkscape:window-y="-8"
     inkscape:window-maximized="1" />
  <metadata
     id="metadata9220">
    <rdf:RDF>
      <cc:Work
         rdf:about="">
        <dc:format>image/svg+xml</dc:format>
        <dc:type
           rdf:resource="http://purl.org/dc/dcmitype/StillImage" />
        <dc:title></dc:title>
      </cc:Work>
    </rdf:RDF>
  </metadata>
  <g
     inkscape:label="Camada 1"
     inkscape:groupmode="layer"
     id="layer1"
     transform="translate(0,-32.416659)">
    <path
       style="color:#000000;font-style:normal;font-variant:normal;font-weight:normal;font-stretch:normal;font-size:medium;line-height:normal;font-family:sans-serif;font-variant-ligatures:normal;font-variant-position:normal;font-variant-caps:normal;font-variant-numeric:normal;font-variant-alternates:normal;font-feature-settings:normal;text-indent:0;text-align:start;text-decoration:none;text-decoration-line:none;text-decoration-style:solid;text-decoration-color:#000000;letter-spacing:normal;word-spacing:normal;text-transform:none;writing-mode:lr-tb;direction:ltr;text-orientation:mixed;dominant-baseline:auto;baseline-shift:baseline;text-anchor:start;white-space:normal;shape-padding:0;clip-rule:nonzero;display:inline;overflow:visible;visibility:visible;opacity:1;isolation:auto;mix-blend-mode:normal;color-interpolation:sRGB;color-interpolation-filters:linearRGB;solid-color:#000000;solid-opacity:1;vector-effect:none;fill:#000000;fill-opacity:1;fill-rule:nonzero;stroke:none;stroke-width:15.83362389;stroke-linecap:butt;stroke-linejoin:miter;stroke-miterlimit:4;stroke-dasharray:none;stroke-dashoffset:0;stroke-opacity:1;color-rendering:auto;image-rendering:auto;shape-rendering:auto;text-rendering:auto;enable-background:accumulate"
       d="m 263.36133,549.2793 c -8.75709,0.0472 -18.29537,0.45631 -27.36719,0.91406 -18.14363,0.91551 -33.76953,2.24609 -33.76953,2.24609 l 0.67187,-0.0273 c -15.17171,0 -25.4696,7.22641 -30.83984,14.38672 -3.73082,4.97441 -5.12746,9.1248 -5.85547,11.77929 -0.19868,0.37057 -0.36693,0.73667 -0.56836,1.06641 -0.55605,0.91029 -1.01597,1.80792 -1.51172,2.83594 -0.99149,2.05605 -2.07249,4.58727 -3.26757,7.53515 -2.39018,5.89577 -5.19177,13.39588 -7.89063,20.82813 -5.39772,14.8645 -10.36523,29.4375 -10.36523,29.4375 l -0.0898,0.26367 -0.0703,0.26758 c -4.52172,17.11793 -8.67171,27.73283 -11.56055,33.89062 -1.30794,2.78798 -2.14163,4.28203 -2.77343,5.35157 -39.911128,8.06779 -57.939015,27.4716 -63.841801,45.64843 -4.639319,14.28616 -2.338091,27.16406 -0.97461,32.5254 -2.297462,7.07409 -1.902502,14.45647 -1.365234,20.98046 0.563043,6.83699 1.541669,11.97857 1.732422,12.96094 1.846202,30.95011 -2.539447,71.43016 -2.59375,71.92969 -4.206772,15.61993 -4.359542,43.16917 -4.115235,68.74023 0.249344,26.09817 1.41211,49.00586 1.41211,49.00586 v 0.0176 l 0.002,0.0195 c 1.10302,19.85439 -13.515625,39.57029 -13.515625,39.57029 l 12.476562,9.7481 c 0,0 18.384866,-22.5275 16.847657,-50.19729 -0.0031,-0.0607 -1.145261,-22.6328 -1.390625,-48.31446 -0.245694,-25.71623 0.936627,-55.56339 3.730468,-65.21484 l 0.189454,-0.65234 0.07617,-0.67383 c 0,0 4.725174,-41.77957 2.673828,-75.28516 l -0.0332,-0.53906 -0.107421,-0.5293 c 0,0 -1.069608,-5.37785 -1.605469,-11.88476 -0.535861,-6.50692 0.132908,-14.32108 1.017578,-16.2168 l 1.361328,-2.91797 -1.060547,-3.03711 c 0,0 -4.014569,-11.85193 0.302735,-25.14648 4.317304,-13.29456 16.278286,-28.81405 55.001954,-35.74024 l 2.7793,-0.49609 1.83789,-2.14453 c 0,0 2.88979,-3.57487 6.27148,-10.78321 3.35646,-7.15455 7.7501,-18.56746 12.42969,-36.20507 0.0557,-0.16351 4.90531,-14.38523 10.20312,-28.97461 2.66409,-7.3365 5.4308,-14.73112 7.68164,-20.28321 1.12543,-2.77604 2.13237,-5.10793 2.85547,-6.60742 0.16936,-0.3512 0.22877,-0.43921 0.35742,-0.68359 l 1.6211,-0.97266 0.6289,-3.55469 c 0,0 0.6889,-3.78701 3.73438,-7.84765 3.04548,-4.06064 7.60137,-8.05469 18.17187,-8.05469 h 0.33594 l 0.33399,-0.0273 c 0,0 15.39713,-1.30933 33.22656,-2.20899 17.82943,-0.89965 38.74561,-1.16869 46.64844,0.14844 l 2.27148,0.37891 2.12109,-0.89844 c 0,0 0.62883,-1.09584 3.84961,1.21094 3.22079,2.30678 9.71103,10.87367 12.24219,36.50195 l 0.1543,1.55664 0.73242,1.37891 c 0,0 10.20662,20.45358 10.2832,35.71289 -0.0223,0.14219 -0.49311,3.1175 -1.45508,4.44726 -0.4925,0.68082 -0.61674,0.85626 -1.58984,1.04492 -0.9731,0.18867 -3.3333,0.2033 -7.63281,-1.67773 l -9.21289,12.37109 c 0,0 2.57264,2.82691 5.24219,10.84766 2.66955,8.02075 4.94479,20.62546 2.53125,38.61719 l -1.22657,9.13867 9.21875,-0.17188 c 0,0 3.98378,0.008 7.89063,2.5625 3.90685,2.55448 8.21429,6.9635 7.39648,21.27539 l -0.0586,1.01172 0.19922,0.99219 c 0,0 2.42967,17.40325 -2.06641,26.07422 l -0.0586,0.11328 -0.0547,0.11524 c 0,0 -6.20301,12.65703 -3.96289,28.33789 l 0.29297,2.04296 1.25195,1.64063 c 0,0 1.99753,2.29029 2.67969,8.74805 0.68216,6.45775 -0.34369,16.53013 -9.55469,30.66797 l -1.5293,2.34765 0.28711,2.78516 c 0,0 4.18127,43.54268 -14.17382,81.12695 l -0.20899,0.42774 -0.15625,0.44921 c -11.43124,32.92209 -19.83223,43.55395 -30.61133,58.08204 -0.001,0.002 -0.002,0.004 -0.004,0.006 -0.61408,0.74577 -14.82131,18.13842 -20.4375,39.58202 l 15.3164,4.0117 c 4.52891,-17.2922 17.62696,-33.8906 17.62696,-33.8906 l 0.10742,-0.13281 0.10156,-0.13672 c 10.6487,-14.35252 20.88104,-27.9712 32.72852,-61.97461 18.76035,-38.83777 16.2295,-79.30781 15.6289,-86.38672 9.56569,-15.64071 11.64004,-29.00142 10.62305,-38.62891 -0.74687,-7.07032 -2.85174,-11.37694 -4.32227,-13.95117 -1.11283,-10.01467 2.59961,-18.32226 2.59961,-18.32226 l -0.11328,0.22851 c 8.10341,-15.62793 4.14599,-33.7345 3.67774,-35.73047 0.63297,-17.60428 -6.51094,-28.91558 -14.54102,-34.16601 -2.87814,-1.88186 -5.6735,-2.91839 -8.26172,-3.67578 1.23141,-16.45558 -0.83652,-29.33405 -3.79297,-38.2168 -0.12438,-0.37372 -0.26871,-0.63608 -0.39648,-0.99805 5.0864,-0.98922 9.08527,-4.11172 11.39648,-7.30664 4.62548,-6.39402 4.4668,-13.29297 4.4668,-13.29297 l 0.006,-0.1289 v -0.12891 c 0,-19.72112 -9.63873,-38.56709 -11.45898,-41.9707 -2.86313,-26.70601 -9.77421,-39.92215 -18.58204,-46.23047 -5.95941,-4.26823 -12.21781,-4.10206 -15.93554,-3.54297 -5.83574,-0.87326 -13.30721,-1.19703 -21.60547,-1.15234 z m -84.21485,38.61914 c 0.0561,-0.0918 0.10249,0.0474 -0.21093,0.40429 0.0554,-0.10008 0.18419,-0.36051 0.21093,-0.40429 z"
       id="path9779"
       inkscape:connector-curvature="0" />
    <path
       style="color:#000000;font-style:normal;font-variant:normal;font-weight:normal;font-stretch:normal;font-size:medium;line-height:normal;font-family:sans-serif;font-variant-ligatures:normal;font-variant-position:normal;font-variant-caps:normal;font-variant-numeric:normal;font-variant-alternates:normal;font-feature-settings:normal;text-indent:0;text-align:start;text-decoration:none;text-decoration-line:none;text-decoration-style:solid;text-decoration-color:#000000;letter-spacing:normal;word-spacing:normal;text-transform:none;writing-mode:lr-tb;direction:ltr;text-orientation:mixed;dominant-baseline:auto;baseline-shift:baseline;text-anchor:start;white-space:normal;shape-padding:0;clip-rule:nonzero;display:inline;overflow:visible;visibility:visible;opacity:1;isolation:auto;mix-blend-mode:normal;color-interpolation:sRGB;color-interpolation-filters:linearRGB;solid-color:#000000;solid-opacity:1;vector-effect:none;fill:#000000;fill-opacity:1;fill-rule:nonzero;stroke:none;stroke-width:15.83362389;stroke-linecap:butt;stroke-linejoin:miter;stroke-miterlimit:4;stroke-dasharray:none;stroke-dashoffset:0;stroke-opacity:1;color-rendering:auto;image-rendering:auto;shape-rendering:auto;text-rendering:auto;enable-background:accumulate"
       d="m 274.16016,634.95312 c -3.21771,0.17814 -6.65987,0.64885 -10.31836,1.48243 l 0.47265,-0.0918 c 0,0 -27.60383,4.36748 -42.13281,9.20898 -0.002,7.4e-4 -0.006,0.001 -0.008,0.002 -0.0399,0.013 -32.09583,10.43879 -53.21485,22.40625 l 0.55664,-0.28711 c 0,0 -5.90235,2.7532 -13.65624,5.60156 -7.7539,2.84836 -17.49846,5.62391 -23.27344,5.875 l 0.6875,15.81836 c 9.40629,-0.40898 19.62744,-3.73991 28.04492,-6.83203 8.41748,-3.09212 14.89258,-6.11524 14.89258,-6.11524 l 0.2832,-0.13086 0.27148,-0.15429 c 18.47127,-10.46706 50.39258,-21.15235 50.39258,-21.15235 l 0.0117,-0.004 0.0117,-0.004 c 11.2149,-3.73829 39.70508,-8.60937 39.70508,-8.60937 l 0.23828,-0.0391 0.23438,-0.0527 c 11.43823,-2.60615 18.09493,-0.61879 22.15624,1.51562 4.06132,2.13442 5.07422,3.96485 5.07422,3.96485 l 13.3086,-8.57813 c 0,0 -3.77349,-5.59625 -11.01563,-9.40234 -5.4316,-2.85457 -13.06953,-4.95629 -22.72265,-4.42188 z"
       id="path9781"
       inkscape:connector-curvature="0" />
    <path
       style="color:#000000;font-style:normal;font-variant:normal;font-weight:normal;font-stretch:normal;font-size:medium;line-height:normal;font-family:sans-serif;font-variant-ligatures:normal;font-variant-position:normal;font-variant-caps:normal;font-variant-numeric:normal;font-variant-alternates:normal;font-feature-settings:normal;text-indent:0;text-align:start;text-decoration:none;text-decoration-line:none;text-decoration-style:solid;text-decoration-color:#000000;letter-spacing:normal;word-spacing:normal;text-transform:none;writing-mode:lr-tb;direction:ltr;text-orientation:mixed;dominant-baseline:auto;baseline-shift:baseline;text-anchor:start;white-space:normal;shape-padding:0;clip-rule:nonzero;display:inline;overflow:visible;visibility:visible;opacity:1;isolation:auto;mix-blend-mode:normal;color-interpolation:sRGB;color-interpolation-filters:linearRGB;solid-color:#000000;solid-opacity:1;vector-effect:none;fill:#000000;fill-opacity:1;fill-rule:nonzero;stroke:none;stroke-width:15.83362389;stroke-linecap:butt;stroke-linejoin:miter;stroke-miterlimit:4;stroke-dasharray:none;stroke-dashoffset:0;stroke-opacity:1;color-rendering:auto;image-rendering:auto;shape-rendering:auto;text-rendering:auto;enable-background:accumulate"
       d="m 249.9043,601.48633 c -3.56097,0.19425 -7.41279,0.75365 -11.35157,1.90039 -15.75511,4.58694 -32.17019,20.2064 -34.64062,53.38086 l 15.78906,1.17578 c 2.14995,-28.87081 12.96022,-36.35174 23.27735,-39.35547 7.27819,-2.11897 13.28253,-1.31453 17.01171,-0.58594 5.59069,18.09058 17.76563,30.36133 17.76563,30.36133 l 11.33398,-11.05664 c 0,0 -11.73979,-12.46945 -15.09375,-27.8418 l -0.97656,-4.4707 -4.35937,-1.38672 c 0,0 -8.07297,-2.70386 -18.75586,-2.12109 z"
       id="path9783"
       inkscape:connector-curvature="0" />
    <path
       style="color:#000000;font-style:normal;font-variant:normal;font-weight:normal;font-stretch:normal;font-size:medium;line-height:normal;font-family:sans-serif;font-variant-ligatures:normal;font-variant-position:normal;font-variant-caps:normal;font-variant-numeric:normal;font-variant-alternates:normal;font-feature-settings:normal;text-indent:0;text-align:start;text-decoration:none;text-decoration-line:none;text-decoration-style:solid;text-decoration-color:#000000;letter-spacing:normal;word-spacing:normal;text-transform:none;writing-mode:lr-tb;direction:ltr;text-orientation:mixed;dominant-baseline:auto;baseline-shift:baseline;text-anchor:start;white-space:normal;shape-padding:0;clip-rule:nonzero;display:inline;overflow:visible;visibility:visible;opacity:1;isolation:auto;mix-blend-mode:normal;color-interpolation:sRGB;color-interpolation-filters:linearRGB;solid-color:#000000;solid-opacity:1;vector-effect:none;fill:#000000;fill-opacity:1;fill-rule:nonzero;stroke:none;stroke-width:15.83362389;stroke-linecap:butt;stroke-linejoin:miter;stroke-miterlimit:4;stroke-dasharray:none;stroke-dashoffset:0;stroke-opacity:1;color-rendering:auto;image-rendering:auto;shape-rendering:auto;text-rendering:auto;enable-background:accumulate"
       d="m 262.9668,593.39844 c -7.17805,8.67355 -4.53907,18.89648 -4.53907,18.89648 l 15.66797,-2.28515 c 0,0 0.3277,-5.6183 1.07032,-6.51563 z"
       id="path9785"
       inkscape:connector-curvature="0" />
    <path
       style="color:#000000;font-style:normal;font-variant:normal;font-weight:normal;font-stretch:normal;font-size:medium;line-height:normal;font-family:sans-serif;font-variant-ligatures:normal;font-variant-position:normal;font-variant-caps:normal;font-variant-numeric:normal;font-variant-alternates:normal;font-feature-settings:normal;text-indent:0;text-align:start;text-decoration:none;text-decoration-line:none;text-decoration-style:solid;text-decoration-color:#000000;letter-spacing:normal;word-spacing:normal;text-transform:none;writing-mode:lr-tb;direction:ltr;text-orientation:mixed;dominant-baseline:auto;baseline-shift:baseline;text-anchor:start;white-space:normal;shape-padding:0;clip-rule:nonzero;display:inline;overflow:visible;visibility:visible;opacity:1;isolation:auto;mix-blend-mode:normal;color-interpolation:sRGB;color-interpolation-filters:linearRGB;solid-color:#000000;solid-opacity:1;vector-effect:none;fill:#000000;fill-opacity:1;fill-rule:nonzero;stroke:none;stroke-width:15.83362389;stroke-linecap:butt;stroke-linejoin:miter;stroke-miterlimit:4;stroke-dasharray:none;stroke-dashoffset:0;stroke-opacity:1;color-rendering:auto;image-rendering:auto;shape-rendering:auto;text-rendering:auto;enable-background:accumulate"
       d="m 217.48047,599.26953 -11.67188,10.69922 c 0,0 7.77316,9.0946 10.08789,15.04687 l 14.75782,-5.73828 c -4.21939,-10.85002 -13.17383,-20.00781 -13.17383,-20.00781 z"
       id="path9787"
       inkscape:connector-curvature="0" />
    <path
       style="color:#000000;font-style:normal;font-variant:normal;font-weight:normal;font-stretch:normal;font-size:medium;line-height:normal;font-family:sans-serif;font-variant-ligatures:normal;font-variant-position:normal;font-variant-caps:normal;font-variant-numeric:normal;font-variant-alternates:normal;font-feature-settings:normal;text-indent:0;text-align:start;text-decoration:none;text-decoration-line:none;text-decoration-style:solid;text-decoration-color:#000000;letter-spacing:normal;word-spacing:normal;text-transform:none;writing-mode:lr-tb;direction:ltr;text-orientation:mixed;dominant-baseline:auto;baseline-shift:baseline;text-anchor:start;white-space:normal;shape-padding:0;clip-rule:nonzero;display:inline;overflow:visible;visibility:visible;opacity:1;isolation:auto;mix-blend-mode:normal;color-interpolation:sRGB;color-interpolation-filters:linearRGB;solid-color:#000000;solid-opacity:1;vector-effect:none;fill:#000000;fill-opacity:1;fill-rule:nonzero;stroke:none;stroke-width:15.83362389;stroke-linecap:butt;stroke-linejoin:miter;stroke-miterlimit:4;stroke-dasharray:none;stroke-dashoffset:0;stroke-opacity:1;color-rendering:auto;image-rendering:auto;shape-rendering:auto;text-rendering:auto;enable-background:accumulate"
       d="m 309.78711,598.45312 c -5.19915,2.27462 -8.13277,6.56879 -10.05469,11.14063 -1.92192,4.57184 -2.79125,9.76069 -2.30859,15.14063 0.48265,5.37993 2.42249,11.05367 6.53711,15.69921 4.11462,4.64555 10.3399,7.92963 17.85547,8.92969 l 2.08789,-15.69531 c -4.39633,-0.585 -6.58663,-2.03524 -8.08985,-3.73242 -1.50321,-1.69719 -2.3822,-3.97616 -2.61914,-6.61719 -0.23694,-2.64103 0.27386,-5.54193 1.13477,-7.58984 0.86091,-2.04792 2.11245,-2.90308 1.80273,-2.76758 z"
       id="path9789"
       inkscape:connector-curvature="0" />
    <path
       style="color:#000000;font-style:normal;font-variant:normal;font-weight:normal;font-stretch:normal;font-size:medium;line-height:normal;font-family:sans-serif;font-variant-ligatures:normal;font-variant-position:normal;font-variant-caps:normal;font-variant-numeric:normal;font-variant-alternates:normal;font-feature-settings:normal;text-indent:0;text-align:start;text-decoration:none;text-decoration-line:none;text-decoration-style:solid;text-decoration-color:#000000;letter-spacing:normal;word-spacing:normal;text-transform:none;writing-mode:lr-tb;direction:ltr;text-orientation:mixed;dominant-baseline:auto;baseline-shift:baseline;text-anchor:start;white-space:normal;shape-padding:0;clip-rule:nonzero;display:inline;overflow:visible;visibility:visible;opacity:1;isolation:auto;mix-blend-mode:normal;color-interpolation:sRGB;color-interpolation-filters:linearRGB;solid-color:#000000;solid-opacity:1;vector-effect:none;fill:#000000;fill-opacity:1;fill-rule:nonzero;stroke:none;stroke-width:15.83362389;stroke-linecap:butt;stroke-linejoin:miter;stroke-miterlimit:4;stroke-dasharray:none;stroke-dashoffset:0;stroke-opacity:1;color-rendering:auto;image-rendering:auto;shape-rendering:auto;text-rendering:auto;enable-background:accumulate"
       d="m 257.91406,694.76562 c -10.17943,-0.21163 -21.0708,0.12718 -32.01758,1.4043 l -0.30468,0.0352 -0.30274,0.0586 c 0,0 -8.43325,1.64919 -19.08398,2.25781 -10.65074,0.60863 -23.41617,-0.27449 -30.10156,-3.49023 l -6.86329,14.26953 c 11.75048,5.6521 26.05651,5.70225 37.86719,5.02734 11.27006,-0.64401 19.85344,-2.2798 20.66211,-2.43554 40.21171,-4.68226 81.29688,4.52734 81.29688,4.52734 l 3.51562,-15.43945 c 0,0 -24.12968,-5.57995 -54.66797,-6.21485 z"
       id="path9791"
       inkscape:connector-curvature="0" />
    <path
       style="color:#000000;font-style:normal;font-variant:normal;font-weight:normal;font-stretch:normal;font-size:medium;line-height:normal;font-family:sans-serif;font-variant-ligatures:normal;font-variant-position:normal;font-variant-caps:normal;font-variant-numeric:normal;font-variant-alternates:normal;font-feature-settings:normal;text-indent:0;text-align:start;text-decoration:none;text-decoration-line:none;text-decoration-style:solid;text-decoration-color:#000000;letter-spacing:normal;word-spacing:normal;text-transform:none;writing-mode:lr-tb;direction:ltr;text-orientation:mixed;dominant-baseline:auto;baseline-shift:baseline;text-anchor:start;white-space:normal;shape-padding:0;clip-rule:nonzero;display:inline;overflow:visible;visibility:visible;opacity:1;isolation:auto;mix-blend-mode:normal;color-interpolation:sRGB;color-interpolation-filters:linearRGB;solid-color:#000000;solid-opacity:1;vector-effect:none;fill:#000000;fill-opacity:1;fill-rule:nonzero;stroke:none;stroke-width:15.83362389;stroke-linecap:butt;stroke-linejoin:miter;stroke-miterlimit:4;stroke-dasharray:none;stroke-dashoffset:0;stroke-opacity:1;color-rendering:auto;image-rendering:auto;shape-rendering:auto;text-rendering:auto;enable-background:accumulate"
       d="m 184.08008,730.71094 -9.89258,12.36328 c 12.29812,9.8385 30.97513,14.18562 31.47461,14.30078 15.64808,4.56472 70.82812,21.41211 70.82812,21.41211 l 0.16211,0.0508 0.16602,0.043 c 17.7043,4.58416 29.20945,10.42522 36.18359,14.94726 6.97414,4.52205 8.94532,7.13868 8.94532,7.13868 l 12.29296,-9.97657 c 0,0 -4.19411,-4.98066 -12.625,-10.44726 -8.43088,-5.4666 -21.56933,-12.00358 -40.82812,-16.99024 l 0.32812,0.0918 c 0,0 -54.98846,-16.79507 -71.05273,-21.48047 l -0.0996,-0.0293 -0.10156,-0.0273 c 0,0 -18.44368,-5.52643 -25.78125,-11.39648 z"
       id="path9793"
       inkscape:connector-curvature="0" />
    <path
       style="color:#000000;font-style:normal;font-variant:normal;font-weight:normal;font-stretch:normal;font-size:medium;line-height:normal;font-family:sans-serif;font-variant-ligatures:normal;font-variant-position:normal;font-variant-caps:normal;font-variant-numeric:normal;font-variant-alternates:normal;font-feature-settings:normal;text-indent:0;text-align:start;text-decoration:none;text-decoration-line:none;text-decoration-style:solid;text-decoration-color:#000000;letter-spacing:normal;word-spacing:normal;text-transform:none;writing-mode:lr-tb;direction:ltr;text-orientation:mixed;dominant-baseline:auto;baseline-shift:baseline;text-anchor:start;white-space:normal;shape-padding:0;clip-rule:nonzero;display:inline;overflow:visible;visibility:visible;opacity:1;isolation:auto;mix-blend-mode:normal;color-interpolation:sRGB;color-interpolation-filters:linearRGB;solid-color:#000000;solid-opacity:1;vector-effect:none;fill:#000000;fill-opacity:1;fill-rule:nonzero;stroke:none;stroke-width:15.83362389;stroke-linecap:butt;stroke-linejoin:miter;stroke-miterlimit:4;stroke-dasharray:none;stroke-dashoffset:0;stroke-opacity:1;color-rendering:auto;image-rendering:auto;shape-rendering:auto;text-rendering:auto;enable-background:accumulate"
       d="m 226.89844,818.08398 -12.36328,9.89258 c 2.86133,3.5767 7.66201,12.6738 11.19531,20.38282 2.4913,5.43555 3.33409,7.64127 4.30469,10.02148 -1.36325,0.90852 -3.29317,1.9408 -5.36719,2.81055 -4.46506,1.87244 -8.87109,3.00976 -8.87109,3.00976 l -5.08985,1.29492 -0.78711,5.19336 c -1.22216,8.06632 0.6927,16.73235 2.46485,24.38282 1.77214,7.65046 3.76171,13.86523 3.76171,13.86523 l 1.17969,3.69141 3.63867,1.33203 c 29.46915,10.79394 48.62478,10.4642 60.97266,6.39844 6.17394,-2.03289 10.53194,-5.00515 13.3418,-7.63672 1.7945,-1.68064 2.87756,-3.1768 3.58789,-4.25586 3.67368,-3.81928 6.48364,-8.7003 9.61719,-14.59571 3.33855,-6.28111 6.68997,-13.48835 9.71093,-20.35937 6.04192,-13.74204 10.76563,-26.18164 10.76563,-26.18164 l -14.80274,-5.62305 c 0,0 -4.60856,12.12959 -10.45703,25.43164 -2.92423,6.65103 -6.15864,13.58396 -9.19726,19.30078 -3.03863,5.71683 -6.27515,10.39367 -7.34571,11.42969 l -0.93945,0.9082 -0.59766,1.16211 c 0,0 0.0896,0.0525 -1.16406,1.22657 -1.25362,1.17407 -3.49626,2.84563 -7.4707,4.15429 -7.55867,2.48883 -21.92419,3.5369 -46.77344,-4.95117 -0.63049,-2.09505 -1.27026,-3.9838 -2.40234,-8.87109 -1.13386,-4.89492 -1.76807,-9.94114 -2.02735,-13.89649 1.61294,-0.54848 3.13498,-1.02321 5.00782,-1.80859 2.88292,-1.20897 5.92938,-2.67558 8.78515,-4.69141 2.85577,-2.01583 5.95822,-4.58307 7.25977,-9.35547 l 0.69336,-2.54101 -0.9668,-2.45117 c 0,0 -2.71017,-6.85984 -6.4375,-14.99219 -3.72733,-8.13235 -8.16723,-17.35353 -13.22656,-23.67774 z"
       id="path9795"
       inkscape:connector-curvature="0" />
    <path
       style="color:#000000;font-style:normal;font-variant:normal;font-weight:normal;font-stretch:normal;font-size:medium;line-height:normal;font-family:sans-serif;font-variant-ligatures:normal;font-variant-position:normal;font-variant-caps:normal;font-variant-numeric:normal;font-variant-alternates:normal;font-feature-settings:normal;text-indent:0;text-align:start;text-decoration:none;text-decoration-line:none;text-decoration-style:solid;text-decoration-color:#000000;letter-spacing:normal;word-spacing:normal;text-transform:none;writing-mode:lr-tb;direction:ltr;text-orientation:mixed;dominant-baseline:auto;baseline-shift:baseline;text-anchor:start;white-space:normal;shape-padding:0;clip-rule:nonzero;display:inline;overflow:visible;visibility:visible;opacity:1;isolation:auto;mix-blend-mode:normal;color-interpolation:sRGB;color-interpolation-filters:linearRGB;solid-color:#000000;solid-opacity:1;vector-effect:none;fill:#000000;fill-opacity:1;fill-rule:nonzero;stroke:none;stroke-width:15.83362389;stroke-linecap:butt;stroke-linejoin:miter;stroke-miterlimit:4;stroke-dasharray:none;stroke-dashoffset:0;stroke-opacity:1;color-rendering:auto;image-rendering:auto;shape-rendering:auto;text-rendering:auto;enable-background:accumulate"
       d="m 280.86719,844.83789 c -11.29537,8.80155 -20.78449,10.31764 -27.62305,10.05078 -6.83856,-0.26686 -10.33203,-2.2168 -10.33203,-2.21679 l -7.42773,13.98242 c 0,0 7.0672,3.66151 17.14257,4.05468 10.07537,0.39318 23.85582,-2.38076 37.97266,-13.38086 z"
       id="path9797"
       inkscape:connector-curvature="0" />
    <path
       style="color:#000000;font-style:normal;font-variant:normal;font-weight:normal;font-stretch:normal;font-size:medium;line-height:normal;font-family:sans-serif;font-variant-ligatures:normal;font-variant-position:normal;font-variant-caps:normal;font-variant-numeric:normal;font-variant-alternates:normal;font-feature-settings:normal;text-indent:0;text-align:start;text-decoration:none;text-decoration-line:none;text-decoration-style:solid;text-decoration-color:#000000;letter-spacing:normal;word-spacing:normal;text-transform:none;writing-mode:lr-tb;direction:ltr;text-orientation:mixed;dominant-baseline:auto;baseline-shift:baseline;text-anchor:start;white-space:normal;shape-padding:0;clip-rule:nonzero;display:inline;overflow:visible;visibility:visible;opacity:1;isolation:auto;mix-blend-mode:normal;color-interpolation:sRGB;color-interpolation-filters:linearRGB;solid-color:#000000;solid-opacity:1;vector-effect:none;fill:#000000;fill-opacity:1;fill-rule:nonzero;stroke:none;stroke-width:15.83362389;stroke-linecap:butt;stroke-linejoin:miter;stroke-miterlimit:4;stroke-dasharray:none;stroke-dashoffset:0;stroke-opacity:1;color-rendering:auto;image-rendering:auto;shape-rendering:auto;text-rendering:auto;enable-background:accumulate"
       d="m 231.60742,857.41406 c -3.87115,13.06501 2.86631,25.07368 9.05078,33.80469 6.18448,8.73101 13.02149,14.90039 13.02149,14.90039 l 10.64258,-11.72266 c 0,0 -5.7057,-5.21974 -10.74219,-12.33007 -5.03649,-7.11034 -8.20035,-15.39786 -6.79102,-20.1543 z"
       id="path9799"
       inkscape:connector-curvature="0" />
    <path
       style="color:#000000;font-style:normal;font-variant:normal;font-weight:normal;font-stretch:normal;font-size:medium;line-height:normal;font-family:sans-serif;font-variant-ligatures:normal;font-variant-position:normal;font-variant-caps:normal;font-variant-numeric:normal;font-variant-alternates:normal;font-feature-settings:normal;text-indent:0;text-align:start;text-decoration:none;text-decoration-line:none;text-decoration-style:solid;text-decoration-color:#000000;letter-spacing:normal;word-spacing:normal;text-transform:none;writing-mode:lr-tb;direction:ltr;text-orientation:mixed;dominant-baseline:auto;baseline-shift:baseline;text-anchor:start;white-space:normal;shape-padding:0;clip-rule:nonzero;display:inline;overflow:visible;visibility:visible;opacity:1;isolation:auto;mix-blend-mode:normal;color-interpolation:sRGB;color-interpolation-filters:linearRGB;solid-color:#000000;solid-opacity:1;vector-effect:none;fill:#000000;fill-opacity:1;fill-rule:nonzero;stroke:none;stroke-width:15.83362389;stroke-linecap:butt;stroke-linejoin:miter;stroke-miterlimit:4;stroke-dasharray:none;stroke-dashoffset:0;stroke-opacity:1;color-rendering:auto;image-rendering:auto;shape-rendering:auto;text-rendering:auto;enable-background:accumulate"
       d="m 167.44922,850.24219 -3.0332,15.54101 c 0,0 10.02101,1.95685 21.39843,4.63868 11.37743,2.68182 24.82111,6.64529 28.22852,8.44921 l 7.4082,-13.99414 c -7.8135,-4.13655 -20.27936,-7.10354 -32.0039,-9.86718 -11.72455,-2.76365 -21.99805,-4.76758 -21.99805,-4.76758 z"
       id="path9801"
       inkscape:connector-curvature="0" />
    <path
       style="color:#000000;font-style:normal;font-variant:normal;font-weight:normal;font-stretch:normal;font-size:medium;line-height:normal;font-family:sans-serif;font-variant-ligatures:normal;font-variant-position:normal;font-variant-caps:normal;font-variant-numeric:normal;font-variant-alternates:normal;font-feature-settings:normal;text-indent:0;text-align:start;text-decoration:none;text-decoration-line:none;text-decoration-style:solid;text-decoration-color:#000000;letter-spacing:normal;word-spacing:normal;text-transform:none;writing-mode:lr-tb;direction:ltr;text-orientation:mixed;dominant-baseline:auto;baseline-shift:baseline;text-anchor:start;white-space:normal;shape-padding:0;clip-rule:nonzero;display:inline;overflow:visible;visibility:visible;opacity:1;isolation:auto;mix-blend-mode:normal;color-interpolation:sRGB;color-interpolation-filters:linearRGB;solid-color:#000000;solid-opacity:1;vector-effect:none;fill:#000000;fill-opacity:1;fill-rule:nonzero;stroke:none;stroke-width:15.83362389;stroke-linecap:butt;stroke-linejoin:miter;stroke-miterlimit:4;stroke-dasharray:none;stroke-dashoffset:0;stroke-opacity:1;color-rendering:auto;image-rendering:auto;shape-rendering:auto;text-rendering:auto;enable-background:accumulate"
       d="m 228.26367,900.06641 -9.15234,12.92187 c 0,0 1.02673,0.65452 3.32617,3.33008 2.29944,2.67556 5.41931,7.0437 8.26367,13.58203 5.68872,13.07666 10.38107,34.93143 4.32813,69.65625 l 15.59961,2.71876 c 6.48812,-37.22135 1.60916,-62.56059 -5.40821,-78.69142 -3.50868,-8.06541 -7.52623,-13.80532 -10.77539,-17.58593 -3.24916,-3.78062 -6.18164,-5.93164 -6.18164,-5.93164 z"
       id="path9803"
       inkscape:connector-curvature="0" />
    <path
       style="color:#000000;font-style:normal;font-variant:normal;font-weight:normal;font-stretch:normal;font-size:medium;line-height:normal;font-family:sans-serif;font-variant-ligatures:normal;font-variant-position:normal;font-variant-caps:normal;font-variant-numeric:normal;font-variant-alternates:normal;font-feature-settings:normal;text-indent:0;text-align:start;text-decoration:none;text-decoration-line:none;text-decoration-style:solid;text-decoration-color:#000000;letter-spacing:normal;word-spacing:normal;text-transform:none;writing-mode:lr-tb;direction:ltr;text-orientation:mixed;dominant-baseline:auto;baseline-shift:baseline;text-anchor:start;white-space:normal;shape-padding:0;clip-rule:nonzero;display:inline;overflow:visible;visibility:visible;opacity:1;isolation:auto;mix-blend-mode:normal;color-interpolation:sRGB;color-interpolation-filters:linearRGB;solid-color:#000000;solid-opacity:1;vector-effect:none;fill:#000000;fill-opacity:1;fill-rule:nonzero;stroke:none;stroke-width:15.83362389;stroke-linecap:butt;stroke-linejoin:miter;stroke-miterlimit:4;stroke-dasharray:none;stroke-dashoffset:0;stroke-opacity:1;color-rendering:auto;image-rendering:auto;shape-rendering:auto;text-rendering:auto;enable-background:accumulate"
       d="m 134.55469,730.96484 c -24.90791,1.11527 -38.654813,16.25227 -44.207034,30.13282 -5.55222,13.88054 -4.591797,27.12109 -4.591797,27.12109 l 15.800781,-1.00195 c 0,0 -0.5264,-10.19181 3.49219,-20.23828 4.01859,-10.04648 10.89895,-19.33239 30.21484,-20.19727 z"
       id="path9805"
       inkscape:connector-curvature="0" />
    <path
       style="color:#000000;font-style:normal;font-variant:normal;font-weight:normal;font-stretch:normal;font-size:medium;line-height:normal;font-family:sans-serif;font-variant-ligatures:normal;font-variant-position:normal;font-variant-caps:normal;font-variant-numeric:normal;font-variant-alternates:normal;font-feature-settings:normal;text-indent:0;text-align:start;text-decoration:none;text-decoration-line:none;text-decoration-style:solid;text-decoration-color:#000000;letter-spacing:normal;word-spacing:normal;text-transform:none;writing-mode:lr-tb;direction:ltr;text-orientation:mixed;dominant-baseline:auto;baseline-shift:baseline;text-anchor:start;white-space:normal;shape-padding:0;clip-rule:nonzero;display:inline;overflow:visible;visibility:visible;opacity:1;isolation:auto;mix-blend-mode:normal;color-interpolation:sRGB;color-interpolation-filters:linearRGB;solid-color:#000000;solid-opacity:1;vector-effect:none;fill:#000000;fill-opacity:1;fill-rule:nonzero;stroke:none;stroke-width:15.83362389;stroke-linecap:butt;stroke-linejoin:miter;stroke-miterlimit:4;stroke-dasharray:none;stroke-dashoffset:0;stroke-opacity:1;color-rendering:auto;image-rendering:auto;shape-rendering:auto;text-rendering:auto;enable-background:accumulate"
       d="m 119.83594,709.92773 c -25.221172,3.90752 -39.916912,15.41229 -47.582034,26.2793 -7.665121,10.86701 -8.601562,21.51367 -8.601562,21.51367 l 15.783203,1.25 c 0,0 0.384859,-6.02213 5.755859,-13.63672 5.371001,-7.61458 15.425494,-16.40663 37.068364,-19.75976 z"
       id="path9807"
       inkscape:connector-curvature="0" />
    <path
       style="color:#000000;font-style:normal;font-variant:normal;font-weight:normal;font-stretch:normal;font-size:medium;line-height:normal;font-family:sans-serif;font-variant-ligatures:normal;font-variant-position:normal;font-variant-caps:normal;font-variant-numeric:normal;font-variant-alternates:normal;font-feature-settings:normal;text-indent:0;text-align:start;text-decoration:none;text-decoration-line:none;text-decoration-style:solid;text-decoration-color:#000000;letter-spacing:normal;word-spacing:normal;text-transform:none;writing-mode:lr-tb;direction:ltr;text-orientation:mixed;dominant-baseline:auto;baseline-shift:baseline;text-anchor:start;white-space:normal;shape-padding:0;clip-rule:nonzero;display:inline;overflow:visible;visibility:visible;opacity:1;isolation:auto;mix-blend-mode:normal;color-interpolation:sRGB;color-interpolation-filters:linearRGB;solid-color:#000000;solid-opacity:1;vector-effect:none;fill:#000000;fill-opacity:1;fill-rule:nonzero;stroke:none;stroke-width:25.47543716;stroke-linecap:butt;stroke-linejoin:miter;stroke-miterlimit:4;stroke-dasharray:none;stroke-dashoffset:0;stroke-opacity:1;color-rendering:auto;image-rendering:auto;shape-rendering:auto;text-rendering:auto;enable-background:accumulate"
       d="M 248.40092,32.615707 C 150.24542,32.595407 82.807885,72.008147 44.020925,130.96807 5.2265037,189.93933 -5.5926244,266.94161 2.8862271,343.16357 c 8.4788509,76.22195 36.2965369,151.9983 77.3681409,209.54615 19.935092,27.93227 43.221442,51.75122 69.101292,68.82649 l 4.96743,-14.34461 168.8784,1.37936 4.55331,13.13952 c 26.38996,-17.3635 50.06712,-41.74745 70.3019,-70.36434 40.82892,-57.74211 68.59868,-133.4902 77.82006,-209.52281 9.22141,-76.03264 -0.0189,-152.62407 -35.84382,-211.36175 C 404.21507,71.735927 340.74776,32.292167 248.45546,32.615707 Z m 0.0399,25.4725 h 0.0318 0.0238 c 85.2537,-0.31385 138.13332,33.731337 169.79067,85.635593 31.65734,51.90426 41.02234,123.10642 32.29838,195.03722 -8.72391,71.93077 -35.44609,144.31269 -73.32398,197.88133 -17.43763,24.66102 -37.03797,45.17022 -58.18148,60.15391 0.17355,4.33521 0.55931,3.7272 4.12123,11.7747 l -168.87841,-1.37936 3.96504,-10.39768 C 137.49717,582.06849 118.18756,562.00684 100.99153,537.91248 62.932534,484.58898 36.205092,412.28772 28.202883,340.35059 20.200674,268.41352 30.963943,197.17841 65.309045,144.97055 99.654144,92.762664 156.89265,58.055207 248.43986,58.088207 Z"
       id="path10-9-9-0-3-4-7"
       inkscape:connector-curvature="0"
       sodipodi:nodetypes="csssccccssccccccssscccccsscc" />
    <path
       style="color:#000000;font-style:normal;font-variant:normal;font-weight:normal;font-stretch:normal;font-size:medium;line-height:normal;font-family:sans-serif;font-variant-ligatures:normal;font-variant-position:normal;font-variant-caps:normal;font-variant-numeric:normal;font-variant-alternates:normal;font-feature-settings:normal;text-indent:0;text-align:start;text-decoration:none;text-decoration-line:none;text-decoration-style:solid;text-decoration-color:#000000;letter-spacing:normal;word-spacing:normal;text-transform:none;writing-mode:lr-tb;direction:ltr;text-orientation:mixed;dominant-baseline:auto;baseline-shift:baseline;text-anchor:start;white-space:normal;shape-padding:0;clip-rule:nonzero;display:inline;overflow:visible;visibility:visible;opacity:1;isolation:auto;mix-blend-mode:normal;color-interpolation:sRGB;color-interpolation-filters:linearRGB;solid-color:#000000;solid-opacity:1;vector-effect:none;fill:#000000;fill-opacity:1;fill-rule:nonzero;stroke:none;stroke-width:12.73771858;stroke-linecap:butt;stroke-linejoin:miter;stroke-miterlimit:4;stroke-dasharray:none;stroke-dashoffset:0;stroke-opacity:1;color-rendering:auto;image-rendering:auto;shape-rendering:auto;text-rendering:auto;enable-background:accumulate"
       d="m 230.5625,485.2793 c -10.12379,0.3108 -19.59801,1.53437 -28.30664,3.33203 -17.41726,3.59532 -31.80771,9.42463 -42.43555,14.67969 -10.62784,5.25505 -18.19216,10.31278 -19.43945,11.00976 l 6.21484,11.1211 c 3.28375,-1.83495 8.98476,-5.82449 18.8711,-10.7129 9.88633,-4.8884 23.25895,-10.29834 39.36523,-13.62304 32.21256,-6.64941 75.2307,-5.19739 124.49609,25.97656 l 6.8125,-10.76367 C 297.15823,491.63171 260.93386,484.3469 230.5625,485.2793 Z"
       id="path29-8-7-9-6-2"
       inkscape:connector-curvature="0" />
    <path
       style="color:#000000;font-style:normal;font-variant:normal;font-weight:normal;font-stretch:normal;font-size:medium;line-height:normal;font-family:sans-serif;font-variant-ligatures:normal;font-variant-position:normal;font-variant-caps:normal;font-variant-numeric:normal;font-variant-alternates:normal;font-feature-settings:normal;text-indent:0;text-align:start;text-decoration:none;text-decoration-line:none;text-decoration-style:solid;text-decoration-color:#000000;letter-spacing:normal;word-spacing:normal;text-transform:none;writing-mode:lr-tb;direction:ltr;text-orientation:mixed;dominant-baseline:auto;baseline-shift:baseline;text-anchor:start;white-space:normal;shape-padding:0;clip-rule:nonzero;display:inline;overflow:visible;visibility:visible;opacity:1;isolation:auto;mix-blend-mode:normal;color-interpolation:sRGB;color-interpolation-filters:linearRGB;solid-color:#000000;solid-opacity:1;vector-effect:none;fill:#000000;fill-opacity:1;fill-rule:nonzero;stroke:none;stroke-width:12.73771858;stroke-linecap:butt;stroke-linejoin:miter;stroke-miterlimit:4;stroke-dasharray:none;stroke-dashoffset:0;stroke-opacity:1;color-rendering:auto;image-rendering:auto;shape-rendering:auto;text-rendering:auto;enable-background:accumulate"
       d="m 234.80078,339.43164 c 0,0 -1.438,14.17784 -3.81445,29.07031 -1.18823,7.44624 -2.61815,15.07157 -4.15625,20.9961 -0.76905,2.96226 -1.57543,5.50567 -2.29688,7.25976 -0.72145,1.7541 -1.65361,2.67097 -0.98437,2.11328 -1.40952,1.17459 -2.9008,2.15407 -3.68164,5.27735 -0.39042,1.56163 -0.1668,3.88913 0.83008,5.51367 0.99687,1.62453 2.29141,2.4177 3.27148,2.87891 3.92028,1.84482 5.93411,1.13695 8.59961,0.95312 5.33101,-0.36766 11.10352,-1.55469 11.10352,-1.55469 l -2.49805,-12.49023 c 0,0 -2.72213,0.34676 -4.36914,0.61719 0.8449,-2.26509 1.64225,-4.62947 2.35351,-7.36914 1.71887,-6.62081 3.18387,-14.51694 4.40821,-22.18946 2.44866,-15.34503 3.90625,-29.79492 3.90625,-29.79492 z"
       id="path971-3-7-2-6-7"
       inkscape:connector-curvature="0" />
    <path
       style="color:#000000;font-style:normal;font-variant:normal;font-weight:normal;font-stretch:normal;font-size:medium;line-height:normal;font-family:sans-serif;font-variant-ligatures:normal;font-variant-position:normal;font-variant-caps:normal;font-variant-numeric:normal;font-variant-alternates:normal;font-feature-settings:normal;text-indent:0;text-align:start;text-decoration:none;text-decoration-line:none;text-decoration-style:solid;text-decoration-color:#000000;letter-spacing:normal;word-spacing:normal;text-transform:none;writing-mode:lr-tb;direction:ltr;text-orientation:mixed;dominant-baseline:auto;baseline-shift:baseline;text-anchor:start;white-space:normal;shape-padding:0;clip-rule:nonzero;display:inline;overflow:visible;visibility:visible;opacity:1;isolation:auto;mix-blend-mode:normal;color-interpolation:sRGB;color-interpolation-filters:linearRGB;solid-color:#000000;solid-opacity:1;vector-effect:none;fill:#000000;fill-opacity:1;fill-rule:nonzero;stroke:none;stroke-width:15.8065567;stroke-linecap:butt;stroke-linejoin:miter;stroke-miterlimit:4;stroke-dasharray:none;stroke-dashoffset:0;stroke-opacity:1;color-rendering:auto;image-rendering:auto;shape-rendering:auto;text-rendering:auto;enable-background:accumulate"
       d="m 82.947266,214.56641 -0.105469,15.80664 c 0,0 34.411573,0.22805 69.123043,0.45703 34.71148,0.22897 68.76575,0.45898 70.97071,0.45898 v -15.80664 c -0.19014,0 -36.15632,-0.22806 -70.86719,-0.45703 -34.71087,-0.22897 -69.121094,-0.45898 -69.121094,-0.45898 z"
       id="path1039-4-5-6"
       inkscape:connector-curvature="0" />
    <path
       style="color:#000000;font-style:normal;font-variant:normal;font-weight:normal;font-stretch:normal;font-size:medium;line-height:normal;font-family:sans-serif;font-variant-ligatures:normal;font-variant-position:normal;font-variant-caps:normal;font-variant-numeric:normal;font-variant-alternates:normal;font-feature-settings:normal;text-indent:0;text-align:start;text-decoration:none;text-decoration-line:none;text-decoration-style:solid;text-decoration-color:#000000;letter-spacing:normal;word-spacing:normal;text-transform:none;writing-mode:lr-tb;direction:ltr;text-orientation:mixed;dominant-baseline:auto;baseline-shift:baseline;text-anchor:start;white-space:normal;shape-padding:0;clip-rule:nonzero;display:inline;overflow:visible;visibility:visible;opacity:1;isolation:auto;mix-blend-mode:normal;color-interpolation:sRGB;color-interpolation-filters:linearRGB;solid-color:#000000;solid-opacity:1;vector-effect:none;fill:#000000;fill-opacity:1;fill-rule:nonzero;stroke:none;stroke-width:15.8065567;stroke-linecap:butt;stroke-linejoin:miter;stroke-miterlimit:4;stroke-dasharray:none;stroke-dashoffset:0;stroke-opacity:1;color-rendering:auto;image-rendering:auto;shape-rendering:auto;text-rendering:auto;enable-background:accumulate"
       d="m 252.99609,215.375 -0.10547,15.80664 c 0,0 34.41157,0.23001 69.12305,0.45898 34.71148,0.22898 68.76575,0.45704 70.97071,0.45704 v -15.80664 c -0.19008,0 -36.15631,-0.22807 -70.86719,-0.45704 -34.71088,-0.22897 -69.1211,-0.45898 -69.1211,-0.45898 z"
       id="path1039-4-5-6-9"
       inkscape:connector-curvature="0" />
    <path
       style="color:#000000;font-style:normal;font-variant:normal;font-weight:normal;font-stretch:normal;font-size:medium;line-height:normal;font-family:sans-serif;font-variant-ligatures:normal;font-variant-position:normal;font-variant-caps:normal;font-variant-numeric:normal;font-variant-alternates:normal;font-feature-settings:normal;text-indent:0;text-align:start;text-decoration:none;text-decoration-line:none;text-decoration-style:solid;text-decoration-color:#000000;letter-spacing:normal;word-spacing:normal;text-transform:none;writing-mode:lr-tb;direction:ltr;text-orientation:mixed;dominant-baseline:auto;baseline-shift:baseline;text-anchor:start;white-space:normal;shape-padding:0;clip-rule:nonzero;display:inline;overflow:visible;visibility:visible;opacity:1;isolation:auto;mix-blend-mode:normal;color-interpolation:sRGB;color-interpolation-filters:linearRGB;solid-color:#000000;solid-opacity:1;vector-effect:none;fill:#000000;fill-opacity:1;fill-rule:nonzero;stroke:none;stroke-width:12.6452446;stroke-linecap:butt;stroke-linejoin:miter;stroke-miterlimit:4;stroke-dasharray:none;stroke-dashoffset:0;stroke-opacity:1;color-rendering:auto;image-rendering:auto;shape-rendering:auto;text-rendering:auto;enable-background:accumulate"
       d="m 108.39453,270.98047 v 6.32226 c -0.004,28.6331 19.6793,44.86466 39.30664,44.61915 19.62734,-0.24552 38.76821,-16.96338 37.6875,-44.86329 l -0.23437,-6.07812 z m 13.11914,12.64453 h 51.00586 c -1.5515,17.88108 -13.21239,25.50519 -24.97656,25.65234 -11.75925,0.1471 -23.76866,-7.18194 -26.0293,-25.65234 z"
       id="path1479"
       inkscape:connector-curvature="0" />
    <path
       style="color:#000000;font-style:normal;font-variant:normal;font-weight:normal;font-stretch:normal;font-size:medium;line-height:normal;font-family:sans-serif;font-variant-ligatures:normal;font-variant-position:normal;font-variant-caps:normal;font-variant-numeric:normal;font-variant-alternates:normal;font-feature-settings:normal;text-indent:0;text-align:start;text-decoration:none;text-decoration-line:none;text-decoration-style:solid;text-decoration-color:#000000;letter-spacing:normal;word-spacing:normal;text-transform:none;writing-mode:lr-tb;direction:ltr;text-orientation:mixed;dominant-baseline:auto;baseline-shift:baseline;text-anchor:start;white-space:normal;shape-padding:0;clip-rule:nonzero;display:inline;overflow:visible;visibility:visible;opacity:1;isolation:auto;mix-blend-mode:normal;color-interpolation:sRGB;color-interpolation-filters:linearRGB;solid-color:#000000;solid-opacity:1;vector-effect:none;fill:#000000;fill-opacity:1;fill-rule:nonzero;stroke:none;stroke-width:12.6452446;stroke-linecap:butt;stroke-linejoin:miter;stroke-miterlimit:4;stroke-dasharray:none;stroke-dashoffset:0;stroke-opacity:1;color-rendering:auto;image-rendering:auto;shape-rendering:auto;text-rendering:auto;enable-background:accumulate"
       d="m 286.59766,271.91406 v 6.32227 c -0.004,28.63313 19.6793,44.86467 39.30664,44.61914 19.62734,-0.24553 38.77021,-16.96338 37.68945,-44.86328 l -0.23633,-6.07813 z m 13.11718,12.64453 h 51.00782 c -1.55149,17.88104 -13.21241,25.50518 -24.97657,25.65235 -11.75966,0.14711 -23.7712,-7.18045 -26.03125,-25.65235 z"
       id="path1479-5"
       inkscape:connector-curvature="0" />
  </g>
</svg>
