<?xml version="1.0" encoding="UTF-8" standalone="no"?>
<!-- Created with Inkscape (http://www.inkscape.org/) -->

<svg
   xmlns:dc="http://purl.org/dc/elements/1.1/"
   xmlns:cc="http://creativecommons.org/ns#"
   xmlns:rdf="http://www.w3.org/1999/02/22-rdf-syntax-ns#"
   xmlns:svg="http://www.w3.org/2000/svg"
   xmlns="http://www.w3.org/2000/svg"
   xmlns:sodipodi="http://sodipodi.sourceforge.net/DTD/sodipodi-0.dtd"
   xmlns:inkscape="http://www.inkscape.org/namespaces/inkscape"
   width="1000"
   height="1000"
   viewBox="0 0 1000 1000"
   version="1.1"
   id="svg11332"
   inkscape:version="0.92.4 (5da689c313, 2019-01-14)"
   sodipodi:docname="Amigável.svg">
  <defs
     id="defs11326" />
  <sodipodi:namedview
     id="base"
     pagecolor="#ffffff"
     bordercolor="#666666"
     borderopacity="1.0"
     inkscape:pageopacity="0.0"
     inkscape:pageshadow="2"
     inkscape:zoom="16"
     inkscape:cx="249.96304"
     inkscape:cy="996.5443"
     inkscape:document-units="px"
     inkscape:current-layer="layer1"
     showgrid="false"
     inkscape:window-width="1366"
     inkscape:window-height="715"
     inkscape:window-x="-8"
     inkscape:window-y="-8"
     inkscape:window-maximized="1"
     units="px" />
  <metadata
     id="metadata11329">
    <rdf:RDF>
      <cc:Work
         rdf:about="">
        <dc:format>image/svg+xml</dc:format>
        <dc:type
           rdf:resource="http://purl.org/dc/dcmitype/StillImage" />
        <dc:title></dc:title>
      </cc:Work>
    </rdf:RDF>
  </metadata>
  <g
     inkscape:label="Camada 1"
     inkscape:groupmode="layer"
     id="layer1"
     transform="translate(0,-32.416659)">
    <path
       style="color:#000000;font-style:normal;font-variant:normal;font-weight:normal;font-stretch:normal;font-size:medium;line-height:normal;font-family:sans-serif;font-variant-ligatures:normal;font-variant-position:normal;font-variant-caps:normal;font-variant-numeric:normal;font-variant-alternates:normal;font-feature-settings:normal;text-indent:0;text-align:start;text-decoration:none;text-decoration-line:none;text-decoration-style:solid;text-decoration-color:#000000;letter-spacing:normal;word-spacing:normal;text-transform:none;writing-mode:lr-tb;direction:ltr;text-orientation:mixed;dominant-baseline:auto;baseline-shift:baseline;text-anchor:start;white-space:normal;shape-padding:0;clip-rule:nonzero;display:inline;overflow:visible;visibility:visible;opacity:1;isolation:auto;mix-blend-mode:normal;color-interpolation:sRGB;color-interpolation-filters:linearRGB;solid-color:#000000;solid-opacity:1;vector-effect:none;fill:#000000;fill-opacity:1;fill-rule:nonzero;stroke:none;stroke-width:24.21989822;stroke-linecap:butt;stroke-linejoin:miter;stroke-miterlimit:4;stroke-dasharray:none;stroke-dashoffset:0;stroke-opacity:1;color-rendering:auto;image-rendering:auto;shape-rendering:auto;text-rendering:auto;enable-background:accumulate"
       d="M 236.74609,32.631272 C 143.41192,32.603972 79.295327,70.077012 42.416016,126.13712 5.5335574,182.20202 -4.7582407,255.41 3.3027344,327.87541 11.363709,400.34081 37.81196,472.38249 76.859375,527.09416 115.90679,581.80582 168.48,619.9191 228.27539,619.56291 288.0426,619.20685 340.18325,580.6936 379,525.79728 417.81675,470.90096 444.21548,398.88738 452.98242,326.60197 461.74936,254.31655 452.96772,181.49363 418.9082,125.6508 384.85199,69.813462 324.50498,32.315612 236.74609,32.631272 Z m 0.0156,24.21875 h 0.0234 0.0254 c 81.05203,-0.29838 131.32473,32.06591 161.42187,81.412098 30.09714,49.3462 39.00101,117.0381 30.70703,185.42383 -8.29398,68.38574 -33.70367,137.20035 -69.71484,188.12891 C 323.21338,562.74342 277.50788,595.05 228.1308,595.34416 178.7819,595.63812 132.75526,563.7213 96.574159,513.0258 60.393115,462.33029 34.982823,393.5894 27.375,325.19767 19.767177,256.80595 29.997969,189.08251 62.650391,139.44767 95.302812,89.812842 149.72633,56.818642 236.76172,56.850022 Z"
       id="path10-9-0"
       inkscape:connector-curvature="0" />
    <path
       style="color:#000000;font-style:normal;font-variant:normal;font-weight:normal;font-stretch:normal;font-size:medium;line-height:normal;font-family:sans-serif;font-variant-ligatures:normal;font-variant-position:normal;font-variant-caps:normal;font-variant-numeric:normal;font-variant-alternates:normal;font-feature-settings:normal;text-indent:0;text-align:start;text-decoration:none;text-decoration-line:none;text-decoration-style:solid;text-decoration-color:#000000;letter-spacing:normal;word-spacing:normal;text-transform:none;writing-mode:lr-tb;direction:ltr;text-orientation:mixed;dominant-baseline:auto;baseline-shift:baseline;text-anchor:start;white-space:normal;shape-padding:0;clip-rule:nonzero;display:inline;overflow:visible;visibility:visible;opacity:1;isolation:auto;mix-blend-mode:normal;color-interpolation:sRGB;color-interpolation-filters:linearRGB;solid-color:#000000;solid-opacity:1;vector-effect:none;fill:#000000;fill-opacity:1;fill-rule:nonzero;stroke:none;stroke-width:10.49703503;stroke-linecap:butt;stroke-linejoin:miter;stroke-miterlimit:4;stroke-dasharray:none;stroke-dashoffset:0;stroke-opacity:1;color-rendering:auto;image-rendering:auto;shape-rendering:auto;text-rendering:auto;enable-background:accumulate"
       d="m 301.03125,980.24259 c -24.69325,17.32861 -47.54688,7.00782 -47.54687,7.00782 l -1.4375,-0.62696 -1.54493,0.26367 c -8.71334,1.48766 -31.80073,2.8049 -52.11914,3.61915 -20.31841,0.81424 -38.24414,1.21875 -38.24414,1.21875 h 0.11914 c -12.84628,0 -24.50484,8.43188 -33.45898,16.25588 -8.95415,7.824 -15.19141,15.6367 -15.19141,15.6367 l 8.19727,6.5567 c 0,0 5.73209,-7.1498 13.90039,-14.2871 8.16829,-7.1374 18.78568,-13.6661 26.55273,-13.6661 h 0.0586 0.0586 c 0,0 18.00143,-0.4041 38.42773,-1.2226 19.73895,-0.791 41.16064,-1.89566 52.12891,-3.59575 4.20633,1.57986 29.61822,10.03895 56.13086,-8.56641 z"
       id="path12865"
       inkscape:connector-curvature="0" />
    <path
       style="color:#000000;font-style:normal;font-variant:normal;font-weight:normal;font-stretch:normal;font-size:medium;line-height:normal;font-family:sans-serif;font-variant-ligatures:normal;font-variant-position:normal;font-variant-caps:normal;font-variant-numeric:normal;font-variant-alternates:normal;font-feature-settings:normal;text-indent:0;text-align:start;text-decoration:none;text-decoration-line:none;text-decoration-style:solid;text-decoration-color:#000000;letter-spacing:normal;word-spacing:normal;text-transform:none;writing-mode:lr-tb;direction:ltr;text-orientation:mixed;dominant-baseline:auto;baseline-shift:baseline;text-anchor:start;white-space:normal;shape-padding:0;clip-rule:nonzero;display:inline;overflow:visible;visibility:visible;opacity:1;isolation:auto;mix-blend-mode:normal;color-interpolation:sRGB;color-interpolation-filters:linearRGB;solid-color:#000000;solid-opacity:1;vector-effect:none;fill:#000000;fill-opacity:1;fill-rule:nonzero;stroke:none;stroke-width:10.49703503;stroke-linecap:butt;stroke-linejoin:miter;stroke-miterlimit:4;stroke-dasharray:none;stroke-dashoffset:0;stroke-opacity:1;color-rendering:auto;image-rendering:auto;shape-rendering:auto;text-rendering:auto;enable-background:accumulate"
       d="m 383.90039,955.809 c -33.55989,3.52829 -53.41258,8.97126 -65.49414,13.99219 -6.04078,2.51046 -10.14434,4.93125 -12.94531,6.9082 -2.80098,1.97695 -4.82761,3.81043 -4.41602,3.52344 l 6.00391,8.61133 c 1.85578,-1.29396 2.29903,-2.02995 4.46484,-3.5586 2.16582,-1.52864 5.52667,-3.54884 10.92188,-5.79101 10.79041,-4.48435 29.6941,-9.7905 62.5625,-13.2461 z"
       id="path12867"
       inkscape:connector-curvature="0" />
    <path
       style="color:#000000;font-style:normal;font-variant:normal;font-weight:normal;font-stretch:normal;font-size:medium;line-height:normal;font-family:sans-serif;font-variant-ligatures:normal;font-variant-position:normal;font-variant-caps:normal;font-variant-numeric:normal;font-variant-alternates:normal;font-feature-settings:normal;text-indent:0;text-align:start;text-decoration:none;text-decoration-line:none;text-decoration-style:solid;text-decoration-color:#000000;letter-spacing:normal;word-spacing:normal;text-transform:none;writing-mode:lr-tb;direction:ltr;text-orientation:mixed;dominant-baseline:auto;baseline-shift:baseline;text-anchor:start;white-space:normal;shape-padding:0;clip-rule:nonzero;display:inline;overflow:visible;visibility:visible;opacity:1;isolation:auto;mix-blend-mode:normal;color-interpolation:sRGB;color-interpolation-filters:linearRGB;solid-color:#000000;solid-opacity:1;vector-effect:none;fill:#000000;fill-opacity:1;fill-rule:nonzero;stroke:none;stroke-width:10.49703503;stroke-linecap:butt;stroke-linejoin:miter;stroke-miterlimit:4;stroke-dasharray:none;stroke-dashoffset:0;stroke-opacity:1;color-rendering:auto;image-rendering:auto;shape-rendering:auto;text-rendering:auto;enable-background:accumulate"
       d="m 545.71094,905.15666 -5.90039,8.68164 c 6.51859,4.43049 10.2363,8.54969 12.0625,11.8164 1.8262,3.26671 1.89552,5.54508 1.39062,7.37305 -1.00198,3.62767 -5.62544,6.47331 -9.98242,6.29102 -31.34968,-6.52498 -67.52441,-2.26688 -97.84375,3.47656 -15.27374,2.89333 -29.05262,6.1859 -39.84961,8.73633 -10.79699,2.55042 -19.31028,4.24804 -21.13867,4.24804 v 10.49805 c 5.38973,0 12.73412,-1.97572 23.55273,-4.53125 10.81861,-2.55553 24.41183,-5.80159 39.38867,-8.63867 29.9537,-5.67417 65.45948,-9.59407 94.41407,-3.40235 l 0.40625,0.0859 0.41406,0.0215 c 8.96452,0.4735 18.18524,-4.68329 20.75586,-13.99024 1.28531,-4.65347 0.56205,-10.08767 -2.3457,-15.28906 -2.90776,-5.2014 -7.8637,-10.30626 -15.32422,-15.37695 z"
       id="path12869"
       inkscape:connector-curvature="0" />
    <path
       style="color:#000000;font-style:normal;font-variant:normal;font-weight:normal;font-stretch:normal;font-size:medium;line-height:normal;font-family:sans-serif;font-variant-ligatures:normal;font-variant-position:normal;font-variant-caps:normal;font-variant-numeric:normal;font-variant-alternates:normal;font-feature-settings:normal;text-indent:0;text-align:start;text-decoration:none;text-decoration-line:none;text-decoration-style:solid;text-decoration-color:#000000;letter-spacing:normal;word-spacing:normal;text-transform:none;writing-mode:lr-tb;direction:ltr;text-orientation:mixed;dominant-baseline:auto;baseline-shift:baseline;text-anchor:start;white-space:normal;shape-padding:0;clip-rule:nonzero;display:inline;overflow:visible;visibility:visible;opacity:1;isolation:auto;mix-blend-mode:normal;color-interpolation:sRGB;color-interpolation-filters:linearRGB;solid-color:#000000;solid-opacity:1;vector-effect:none;fill:#000000;fill-opacity:1;fill-rule:nonzero;stroke:none;stroke-width:10.49703503;stroke-linecap:butt;stroke-linejoin:miter;stroke-miterlimit:4;stroke-dasharray:none;stroke-dashoffset:0;stroke-opacity:1;color-rendering:auto;image-rendering:auto;shape-rendering:auto;text-rendering:auto;enable-background:accumulate"
       d="m 446.09766,889.86173 c -11.65006,-0.0689 -28.79249,1.5943 -54.02735,6.67969 -1.51235,-0.34297 -10.65642,-2.39238 -22.60742,-3.99219 -12.97513,-1.7369 -27.9028,-3.12901 -38.65039,0.50196 l 3.36133,9.94531 c 6.64935,-2.24642 21.47172,-1.7062 33.89648,-0.043 12.42476,1.66323 22.73828,4.04492 22.73828,4.04492 l 1.11329,0.25782 1.11718,-0.22852 c 33.92135,-6.91601 52.43633,-7.3031 61.91211,-6.16602 4.73789,0.56855 7.19077,1.50875 8.22852,2.04297 0.38504,0.19822 0.42666,0.25068 0.48828,0.29883 l 1.89648,3.10156 4.04493,-1.49023 c 11.81121,-4.35146 20.00199,-4.07095 25.17187,-2.95313 5.16988,1.11783 6.89063,2.72657 6.89063,2.72657 l 1.76562,1.4707 2.2793,-0.29883 c 1.97309,-0.2591 3.49734,-0.27561 5.24218,-0.4082 l -0.14453,3.77344 c 16.40067,0.63077 30.24414,5.33789 30.24414,5.33789 l 10.375,3.55468 -3.74023,-10.31054 c 0,0 -0.74876,-1.84708 -2.14258,-3.54492 -1.39381,-1.69784 -3.60796,-3.70055 -6.88281,-5.41016 -6.28017,-3.27851 -16.43958,-5.36243 -32.39453,-3.54883 -1.82945,-1.12239 -4.64338,-2.60004 -9.27539,-3.60156 -6.60242,-1.42756 -16.15057,-1.3979 -28.19141,2.52148 -0.30628,-0.18523 -0.46826,-0.36854 -0.82226,-0.55078 -2.474,-1.27359 -6.12936,-2.45459 -11.78126,-3.13281 -2.82594,-0.33911 -6.15817,-0.55477 -10.10546,-0.57813 z"
       id="path12871"
       inkscape:connector-curvature="0" />
    <path
       style="color:#000000;font-style:normal;font-variant:normal;font-weight:normal;font-stretch:normal;font-size:medium;line-height:normal;font-family:sans-serif;font-variant-ligatures:normal;font-variant-position:normal;font-variant-caps:normal;font-variant-numeric:normal;font-variant-alternates:normal;font-feature-settings:normal;text-indent:0;text-align:start;text-decoration:none;text-decoration-line:none;text-decoration-style:solid;text-decoration-color:#000000;letter-spacing:normal;word-spacing:normal;text-transform:none;writing-mode:lr-tb;direction:ltr;text-orientation:mixed;dominant-baseline:auto;baseline-shift:baseline;text-anchor:start;white-space:normal;shape-padding:0;clip-rule:nonzero;display:inline;overflow:visible;visibility:visible;opacity:1;isolation:auto;mix-blend-mode:normal;color-interpolation:sRGB;color-interpolation-filters:linearRGB;solid-color:#000000;solid-opacity:1;vector-effect:none;fill:#000000;fill-opacity:1;fill-rule:nonzero;stroke:none;stroke-width:10.49703503;stroke-linecap:butt;stroke-linejoin:miter;stroke-miterlimit:4;stroke-dasharray:none;stroke-dashoffset:0;stroke-opacity:1;color-rendering:auto;image-rendering:auto;shape-rendering:auto;text-rendering:auto;enable-background:accumulate"
       d="m 199.23633,817.65275 -4.78516,9.3418 c 30.39061,15.5721 75.89453,15.85742 75.89453,15.85742 h 0.0234 0.0234 c 32.44996,0.22692 51.13952,7.64294 51.53906,7.80273 10.55834,4.94754 15.6439,10.12347 17.86133,14.5918 2.22693,4.48748 1.97522,8.65345 0.51758,12.91797 -2.9153,8.52903 -11.19532,15.8418 -11.19532,15.8418 l 6.75586,8.03515 c 0,0 10.17477,-8.20362 14.3711,-20.48047 2.09816,-6.13842 2.56682,-13.69853 -1.04688,-20.98047 -3.61369,-7.28193 -10.91156,-13.8914 -22.94726,-19.5039 l -0.13282,-0.0625 -0.13671,-0.0547 c 0,0 -21.07789,-8.36271 -55.51368,-8.60351 h 0.0449 c 0,0 -44.77129,-1.12346 -71.27344,-14.70313 z"
       id="path12873"
       inkscape:connector-curvature="0" />
    <path
       style="color:#000000;font-style:normal;font-variant:normal;font-weight:normal;font-stretch:normal;font-size:medium;line-height:normal;font-family:sans-serif;font-variant-ligatures:normal;font-variant-position:normal;font-variant-caps:normal;font-variant-numeric:normal;font-variant-alternates:normal;font-feature-settings:normal;text-indent:0;text-align:start;text-decoration:none;text-decoration-line:none;text-decoration-style:solid;text-decoration-color:#000000;letter-spacing:normal;word-spacing:normal;text-transform:none;writing-mode:lr-tb;direction:ltr;text-orientation:mixed;dominant-baseline:auto;baseline-shift:baseline;text-anchor:start;white-space:normal;shape-padding:0;clip-rule:nonzero;display:inline;overflow:visible;visibility:visible;opacity:1;isolation:auto;mix-blend-mode:normal;color-interpolation:sRGB;color-interpolation-filters:linearRGB;solid-color:#000000;solid-opacity:1;vector-effect:none;fill:#000000;fill-opacity:1;fill-rule:nonzero;stroke:none;stroke-width:10.49703503;stroke-linecap:butt;stroke-linejoin:miter;stroke-miterlimit:4;stroke-dasharray:none;stroke-dashoffset:0;stroke-opacity:1;color-rendering:auto;image-rendering:auto;shape-rendering:auto;text-rendering:auto;enable-background:accumulate"
       d="m 174.23047,814.38713 c -11.41591,0.35922 -24.85498,3.04453 -33.93555,12.66797 -0.0538,0.041 -0.59078,0.46407 -2.91211,1.47656 -2.38292,1.03935 -6.27723,2.42571 -11.88476,3.63281 -0.54496,0.0281 -1.08529,0.0396 -1.69727,0.19531 -1.72537,0.43907 -3.6202,1.40066 -5.76367,3.11914 -4.28695,3.43697 -9.75105,9.92693 -17.22656,23.31055 l 0.13867,-0.23633 c 0,0 -6.874079,10.75174 -18.021486,17.98242 l 5.710938,8.80664 c 13.455648,-8.72791 21.195308,-21.19726 21.195308,-21.19726 l 0.0742,-0.11719 0.0664,-0.11914 c 7.10027,-12.71182 12.09811,-18.21122 14.62891,-20.24023 0.97779,-0.78393 1.20377,-0.80749 1.38086,-0.87696 l 0.0234,0.008 1.39453,-0.29492 c 6.44509,-1.36334 11.08052,-2.99871 14.17774,-4.34961 3.09721,-1.3509 4.94726,-2.62695 4.94726,-2.62695 l 0.48633,-0.34765 0.39453,-0.44532 c 6.04355,-6.83291 16.9246,-9.53363 27.15235,-9.85547 5.11387,-0.16091 9.97196,0.23761 13.68945,0.78711 1.85875,0.27476 3.43783,0.58872 4.58008,0.86719 1.14224,0.27847 2.0505,0.68404 1.5918,0.44531 l 4.8457,-9.31054 c -1.41519,-0.73651 -2.41973,-0.96063 -3.95117,-1.33399 -1.53145,-0.37335 -3.38888,-0.7341 -5.53125,-1.05078 -4.28475,-0.63336 -9.69531,-1.08086 -15.55469,-0.89648 z"
       id="path12875"
       inkscape:connector-curvature="0" />
    <path
       style="color:#000000;font-style:normal;font-variant:normal;font-weight:normal;font-stretch:normal;font-size:medium;line-height:normal;font-family:sans-serif;font-variant-ligatures:normal;font-variant-position:normal;font-variant-caps:normal;font-variant-numeric:normal;font-variant-alternates:normal;font-feature-settings:normal;text-indent:0;text-align:start;text-decoration:none;text-decoration-line:none;text-decoration-style:solid;text-decoration-color:#000000;letter-spacing:normal;word-spacing:normal;text-transform:none;writing-mode:lr-tb;direction:ltr;text-orientation:mixed;dominant-baseline:auto;baseline-shift:baseline;text-anchor:start;white-space:normal;shape-padding:0;clip-rule:nonzero;display:inline;overflow:visible;visibility:visible;opacity:1;isolation:auto;mix-blend-mode:normal;color-interpolation:sRGB;color-interpolation-filters:linearRGB;solid-color:#000000;solid-opacity:1;vector-effect:none;fill:#000000;fill-opacity:1;fill-rule:nonzero;stroke:none;stroke-width:10.49703503;stroke-linecap:butt;stroke-linejoin:miter;stroke-miterlimit:4;stroke-dasharray:none;stroke-dashoffset:0;stroke-opacity:1;color-rendering:auto;image-rendering:auto;shape-rendering:auto;text-rendering:auto;enable-background:accumulate"
       d="m 202.38281,882.8383 c -6.02467,-10e-6 -11.22853,0.25379 -15.71484,2.30468 l 4.36523,9.54688 c 1.33197,-0.6089 5.93513,-1.35352 11.34961,-1.35352 5.41449,1e-5 11.80621,0.4802 17.86328,1.13282 11.8683,1.27874 22.14726,3.14562 22.57032,3.22265 51.13597,17.88385 91.25586,5.33789 91.25586,5.33789 l -3.15821,-10.01172 c 0,0 -36.77152,11.69425 -85.125,-5.39062 l -0.39258,-0.13867 -0.41015,-0.0762 c 0,0 -11.04323,-2.02434 -23.61524,-3.37891 -6.286,-0.67729 -12.96361,-1.19531 -18.98828,-1.19531 z"
       id="path12877"
       inkscape:connector-curvature="0" />
    <path
       style="color:#000000;font-style:normal;font-variant:normal;font-weight:normal;font-stretch:normal;font-size:medium;line-height:normal;font-family:sans-serif;font-variant-ligatures:normal;font-variant-position:normal;font-variant-caps:normal;font-variant-numeric:normal;font-variant-alternates:normal;font-feature-settings:normal;text-indent:0;text-align:start;text-decoration:none;text-decoration-line:none;text-decoration-style:solid;text-decoration-color:#000000;letter-spacing:normal;word-spacing:normal;text-transform:none;writing-mode:lr-tb;direction:ltr;text-orientation:mixed;dominant-baseline:auto;baseline-shift:baseline;text-anchor:start;white-space:normal;shape-padding:0;clip-rule:nonzero;display:inline;overflow:visible;visibility:visible;opacity:1;isolation:auto;mix-blend-mode:normal;color-interpolation:sRGB;color-interpolation-filters:linearRGB;solid-color:#000000;solid-opacity:1;vector-effect:none;fill:#000000;fill-opacity:1;fill-rule:nonzero;stroke:none;stroke-width:10.49703503;stroke-linecap:butt;stroke-linejoin:miter;stroke-miterlimit:4;stroke-dasharray:none;stroke-dashoffset:0;stroke-opacity:1;color-rendering:auto;image-rendering:auto;shape-rendering:auto;text-rendering:auto;enable-background:accumulate"
       d="m 177.30859,883.97306 -3.51367,9.89063 c 5.03658,1.78911 10.96093,3.64061 17.20313,0.84179 l -4.29493,-9.57812 c -2.70774,1.21407 -4.51224,0.58001 -9.39453,-1.1543 z"
       id="path12879"
       inkscape:connector-curvature="0" />
    <path
       style="color:#000000;font-style:normal;font-variant:normal;font-weight:normal;font-stretch:normal;font-size:medium;line-height:normal;font-family:sans-serif;font-variant-ligatures:normal;font-variant-position:normal;font-variant-caps:normal;font-variant-numeric:normal;font-variant-alternates:normal;font-feature-settings:normal;text-indent:0;text-align:start;text-decoration:none;text-decoration-line:none;text-decoration-style:solid;text-decoration-color:#000000;letter-spacing:normal;word-spacing:normal;text-transform:none;writing-mode:lr-tb;direction:ltr;text-orientation:mixed;dominant-baseline:auto;baseline-shift:baseline;text-anchor:start;white-space:normal;shape-padding:0;clip-rule:nonzero;display:inline;overflow:visible;visibility:visible;opacity:1;isolation:auto;mix-blend-mode:normal;color-interpolation:sRGB;color-interpolation-filters:linearRGB;solid-color:#000000;solid-opacity:1;vector-effect:none;fill:#000000;fill-opacity:1;fill-rule:nonzero;stroke:none;stroke-width:10.49703503;stroke-linecap:butt;stroke-linejoin:miter;stroke-miterlimit:4;stroke-dasharray:none;stroke-dashoffset:0;stroke-opacity:1;color-rendering:auto;image-rendering:auto;shape-rendering:auto;text-rendering:auto;enable-background:accumulate"
       d="m 507.19727,895.77384 -4.33008,9.5625 c 7.62816,3.45361 10.80421,6.82133 11.51758,8.42188 0.71336,1.60055 0.5367,2.19404 -1.36915,4.24023 -3.81169,4.09238 -15.34555,8.64457 -23.65234,9.24024 l -1.1914,0.084 -1.03711,0.59375 c 0.69498,-0.39713 0.10166,-0.06 -0.61133,0.15039 -0.71299,0.21043 -1.76164,0.48638 -3.04297,0.79688 -2.56267,0.62099 -6.07545,1.39158 -10.17383,2.24219 -8.19676,1.7012 -18.7544,3.73365 -29.16797,5.68359 -20.82713,3.89988 -41.08984,7.4707 -41.08984,7.4707 l -0.33985,0.0606 -0.32812,0.10351 c -11.10437,3.50666 -33.48633,4.41407 -33.48633,4.41407 l 0.64649,0.0195 c -3.4734,-0.32563 -8.49956,-0.12311 -14.78711,0.24023 -6.28755,0.36335 -13.59805,0.93777 -20.56836,1.54297 -13.94063,1.2104 -26.53125,2.54492 -26.53125,2.54492 l 1.10742,10.43946 c 0,0 12.51111,-1.32539 26.33203,-2.52539 6.91046,-0.60001 14.14775,-1.16795 20.26563,-1.52149 6.11787,-0.35354 11.35497,-0.44261 13.20117,-0.26953 l 0.32226,0.0312 0.32422,-0.01 c 0,0 22.1704,-0.42375 36.33399,-4.89648 l -0.66993,0.16406 c 0,0 20.30089,-3.57702 41.19922,-7.49023 10.44917,-1.95661 21.0461,-3.99719 29.36914,-5.72461 4.16152,-0.86371 7.74897,-1.64646 10.51367,-2.31641 1.38236,-0.33497 2.5543,-0.64043 3.54102,-0.93164 0.47949,-0.14151 0.96947,-0.3954 1.38477,-0.53711 10.60746,-0.89974 22.71382,-4.81761 29.81836,-12.44531 3.63606,-3.90382 5.75519,-10.10417 3.27539,-15.66797 -2.4798,-5.56379 -7.98588,-9.73153 -16.77539,-13.71094 z"
       id="path12881"
       inkscape:connector-curvature="0" />
    <path
       style="color:#000000;font-style:normal;font-variant:normal;font-weight:normal;font-stretch:normal;font-size:medium;line-height:normal;font-family:sans-serif;font-variant-ligatures:normal;font-variant-position:normal;font-variant-caps:normal;font-variant-numeric:normal;font-variant-alternates:normal;font-feature-settings:normal;text-indent:0;text-align:start;text-decoration:none;text-decoration-line:none;text-decoration-style:solid;text-decoration-color:#000000;letter-spacing:normal;word-spacing:normal;text-transform:none;writing-mode:lr-tb;direction:ltr;text-orientation:mixed;dominant-baseline:auto;baseline-shift:baseline;text-anchor:start;white-space:normal;shape-padding:0;clip-rule:nonzero;display:inline;overflow:visible;visibility:visible;opacity:1;isolation:auto;mix-blend-mode:normal;color-interpolation:sRGB;color-interpolation-filters:linearRGB;solid-color:#000000;solid-opacity:1;vector-effect:none;fill:#000000;fill-opacity:1;fill-rule:nonzero;stroke:none;stroke-width:10.49703503;stroke-linecap:butt;stroke-linejoin:miter;stroke-miterlimit:4;stroke-dasharray:none;stroke-dashoffset:0;stroke-opacity:1;color-rendering:auto;image-rendering:auto;shape-rendering:auto;text-rendering:auto;enable-background:accumulate"
       d="m 420.66992,893.90666 c -8.33946,0.0646 -18.16428,0.84956 -29.5664,2.80664 l 1.77539,10.3457 c 21.74719,-3.73271 37.00458,-2.92794 46.69336,-1.28711 9.68877,1.64083 13.32226,3.83203 13.32226,3.83203 l 2.33008,1.32813 2.44141,-1.10938 c 3.34083,-1.51858 12.0957,-5.0664 12.0957,-5.0664 l -3.93164,-9.73243 c 0,0 -6.08539,2.50445 -10.35352,4.33985 -2.42882,-1.06624 -6.55999,-2.65595 -14.15039,-3.94141 -5.46229,-0.92506 -12.31679,-1.58019 -20.65625,-1.51562 z"
       id="path12883"
       inkscape:connector-curvature="0" />
    <path
       style="color:#000000;font-style:normal;font-variant:normal;font-weight:normal;font-stretch:normal;font-size:medium;line-height:normal;font-family:sans-serif;font-variant-ligatures:normal;font-variant-position:normal;font-variant-caps:normal;font-variant-numeric:normal;font-variant-alternates:normal;font-feature-settings:normal;text-indent:0;text-align:start;text-decoration:none;text-decoration-line:none;text-decoration-style:solid;text-decoration-color:#000000;letter-spacing:normal;word-spacing:normal;text-transform:none;writing-mode:lr-tb;direction:ltr;text-orientation:mixed;dominant-baseline:auto;baseline-shift:baseline;text-anchor:start;white-space:normal;shape-padding:0;clip-rule:nonzero;display:inline;overflow:visible;visibility:visible;opacity:1;isolation:auto;mix-blend-mode:normal;color-interpolation:sRGB;color-interpolation-filters:linearRGB;solid-color:#000000;solid-opacity:1;vector-effect:none;fill:#000000;fill-opacity:1;fill-rule:nonzero;stroke:none;stroke-width:10.49703503;stroke-linecap:butt;stroke-linejoin:miter;stroke-miterlimit:4;stroke-dasharray:none;stroke-dashoffset:0;stroke-opacity:1;color-rendering:auto;image-rendering:auto;shape-rendering:auto;text-rendering:auto;enable-background:accumulate"
       d="m 314.66406,844.14103 c -2.75468,-0.17434 -5.01268,-0.0633 -6.85547,0.19727 -1.84278,0.26059 -3.26583,0.67469 -4.31836,1.0957 -1.05252,0.42101 -2.08593,1.11133 -2.08593,1.11133 l -1.4375,1.05859 -0.49414,1.71485 c -5.88104,20.45571 -1.77149,42.78711 -1.77149,42.78711 l 0.41016,2.36523 2.06055,1.23437 c 4.67717,2.8065 10.13245,3.29246 14.91992,3.69922 4.78746,0.40677 8.78515,0.33985 8.78515,0.33985 l 2.67969,-0.041 1.53711,-2.19726 c 10.61582,-15.16539 10.92589,-28.30511 7.82617,-37.18165 -3.09972,-8.87653 -9.40039,-13.71874 -9.40039,-13.71874 l -0.90625,-0.69532 -1.11523,-0.25586 c -3.82898,-0.87877 -7.0793,-1.33933 -9.83399,-1.51367 z m -0.65625,10.47852 c 1.78319,0.1131 4.21796,0.5235 6.86133,1.0664 0.94536,0.82938 3.42266,3.17995 5.14063,8.09961 1.94287,5.56373 2.43673,13.6271 -5.02149,25.35742 -1.38046,-0.0133 -2.2846,0.0322 -5.00781,-0.19921 -3.12849,-0.26582 -6.20272,-0.95248 -8.32031,-1.59571 -0.67761,-5.68924 -1.75285,-19.58592 1.31836,-32.54492 0.14531,-0.0259 0.13014,-0.0465 0.29882,-0.0703 1.0665,-0.15082 2.6143,-0.24751 4.73047,-0.11328 z"
       id="path12885"
       inkscape:connector-curvature="0" />
    <path
       style="color:#000000;font-style:normal;font-variant:normal;font-weight:normal;font-stretch:normal;font-size:medium;line-height:normal;font-family:sans-serif;font-variant-ligatures:normal;font-variant-position:normal;font-variant-caps:normal;font-variant-numeric:normal;font-variant-alternates:normal;font-feature-settings:normal;text-indent:0;text-align:start;text-decoration:none;text-decoration-line:none;text-decoration-style:solid;text-decoration-color:#000000;letter-spacing:normal;word-spacing:normal;text-transform:none;writing-mode:lr-tb;direction:ltr;text-orientation:mixed;dominant-baseline:auto;baseline-shift:baseline;text-anchor:start;white-space:normal;shape-padding:0;clip-rule:nonzero;display:inline;overflow:visible;visibility:visible;opacity:1;isolation:auto;mix-blend-mode:normal;color-interpolation:sRGB;color-interpolation-filters:linearRGB;solid-color:#000000;solid-opacity:1;vector-effect:none;fill:#000000;fill-opacity:1;fill-rule:nonzero;stroke:none;stroke-width:10.49703503;stroke-linecap:butt;stroke-linejoin:miter;stroke-miterlimit:4;stroke-dasharray:none;stroke-dashoffset:0;stroke-opacity:1;color-rendering:auto;image-rendering:auto;shape-rendering:auto;text-rendering:auto;enable-background:accumulate"
       d="m 510.99219,909.10197 -4.40039,0.15234 c -10.26973,0.35183 -17.0454,4.57088 -20.67383,9.05664 -1.81421,2.24289 -2.88122,4.47418 -3.50586,6.25 -0.31232,0.88792 -0.51527,1.66008 -0.64649,2.31446 -0.0656,0.32718 -0.11305,0.61822 -0.14843,0.93164 -0.0354,0.31341 -0.33744,-0.1326 0.0586,1.84961 l 10.29297,-2.05664 c 0.38385,1.9212 0.0878,1.31605 0.0801,1.38476 -0.008,0.0687 -0.006,0.0319 0.01,-0.0449 0.0308,-0.15372 0.11115,-0.48507 0.25586,-0.89648 0.28943,-0.82283 0.83425,-1.97941 1.76563,-3.13086 1.48345,-1.83397 3.95958,-3.80167 8.7793,-4.6836 0.40647,1.43319 0.8846,2.93045 2.03906,4.66211 l 8.73242,-5.82226 c 0.17491,0.26236 -0.65547,-1.56573 -1.06055,-3.00196 -0.40508,-1.43622 -0.66406,-2.65625 -0.66406,-2.65625 z"
       id="path12887"
       inkscape:connector-curvature="0" />
    <path
       style="color:#000000;font-style:normal;font-variant:normal;font-weight:normal;font-stretch:normal;font-size:medium;line-height:normal;font-family:sans-serif;font-variant-ligatures:normal;font-variant-position:normal;font-variant-caps:normal;font-variant-numeric:normal;font-variant-alternates:normal;font-feature-settings:normal;text-indent:0;text-align:start;text-decoration:none;text-decoration-line:none;text-decoration-style:solid;text-decoration-color:#000000;letter-spacing:normal;word-spacing:normal;text-transform:none;writing-mode:lr-tb;direction:ltr;text-orientation:mixed;dominant-baseline:auto;baseline-shift:baseline;text-anchor:start;white-space:normal;shape-padding:0;clip-rule:nonzero;display:inline;overflow:visible;visibility:visible;opacity:1;isolation:auto;mix-blend-mode:normal;color-interpolation:sRGB;color-interpolation-filters:linearRGB;solid-color:#000000;solid-opacity:1;vector-effect:none;fill:#000000;fill-opacity:1;fill-rule:nonzero;stroke:none;stroke-width:10.49703503;stroke-linecap:butt;stroke-linejoin:miter;stroke-miterlimit:4;stroke-dasharray:none;stroke-dashoffset:0;stroke-opacity:1;color-rendering:auto;image-rendering:auto;shape-rendering:auto;text-rendering:auto;enable-background:accumulate"
       d="m 537.02539,921.99259 c -8.2838,0.80648 -13.60297,4.16933 -16.30469,8.40821 -3.60229,5.65183 -2.40039,11.65429 -2.40039,11.65429 l 10.32813,-1.87695 c 0,0 -0.29477,-2.2248 0.92383,-4.13672 1.03763,-1.628 3.63296,-3.75033 11.39843,-3.64062 0.0931,0.93967 0.0132,0.92504 0.1875,2.03125 0.60389,3.83222 1.39028,8.45755 4.83594,12.33398 l 7.8457,-6.97461 c -0.54391,-0.61191 -1.8358,-3.96712 -2.3125,-6.99219 -0.47669,-3.02506 -0.51953,-5.55664 -0.51953,-5.55664 l -0.0664,-4.65625 -4.63086,-0.48632 c -3.43334,-0.3614 -6.52389,-0.37625 -9.28516,-0.10743 z"
       id="path12889"
       inkscape:connector-curvature="0" />
    <path
       style="color:#000000;font-style:normal;font-variant:normal;font-weight:normal;font-stretch:normal;font-size:medium;line-height:normal;font-family:sans-serif;font-variant-ligatures:normal;font-variant-position:normal;font-variant-caps:normal;font-variant-numeric:normal;font-variant-alternates:normal;font-feature-settings:normal;text-indent:0;text-align:start;text-decoration:none;text-decoration-line:none;text-decoration-style:solid;text-decoration-color:#000000;letter-spacing:normal;word-spacing:normal;text-transform:none;writing-mode:lr-tb;direction:ltr;text-orientation:mixed;dominant-baseline:auto;baseline-shift:baseline;text-anchor:start;white-space:normal;shape-padding:0;clip-rule:nonzero;display:inline;overflow:visible;visibility:visible;opacity:1;isolation:auto;mix-blend-mode:normal;color-interpolation:sRGB;color-interpolation-filters:linearRGB;solid-color:#000000;solid-opacity:1;vector-effect:none;fill:#000000;fill-opacity:1;fill-rule:nonzero;stroke:none;stroke-width:10.49703503;stroke-linecap:butt;stroke-linejoin:miter;stroke-miterlimit:4;stroke-dasharray:none;stroke-dashoffset:0;stroke-opacity:1;color-rendering:auto;image-rendering:auto;shape-rendering:auto;text-rendering:auto;enable-background:accumulate"
       d="m 280.58594,952.23478 c -6.37637,3.79873 -15.87649,4.9903 -23.73438,4.91211 -7.85789,-0.0782 -13.80273,-1.23242 -13.80273,-1.23242 l -2.00586,10.30273 c 0,0 6.8562,1.33773 15.70508,1.42578 8.84888,0.0881 19.96112,-0.88003 29.21093,-6.39062 z"
       id="path12891"
       inkscape:connector-curvature="0" />
    <path
       style="color:#000000;font-style:normal;font-variant:normal;font-weight:normal;font-stretch:normal;font-size:medium;line-height:normal;font-family:sans-serif;font-variant-ligatures:normal;font-variant-position:normal;font-variant-caps:normal;font-variant-numeric:normal;font-variant-alternates:normal;font-feature-settings:normal;text-indent:0;text-align:start;text-decoration:none;text-decoration-line:none;text-decoration-style:solid;text-decoration-color:#000000;letter-spacing:normal;word-spacing:normal;text-transform:none;writing-mode:lr-tb;direction:ltr;text-orientation:mixed;dominant-baseline:auto;baseline-shift:baseline;text-anchor:start;white-space:normal;shape-padding:0;clip-rule:nonzero;display:inline;overflow:visible;visibility:visible;opacity:1;isolation:auto;mix-blend-mode:normal;color-interpolation:sRGB;color-interpolation-filters:linearRGB;solid-color:#000000;solid-opacity:1;vector-effect:none;fill:#000000;fill-opacity:1;fill-rule:nonzero;stroke:none;stroke-width:12.44686985;stroke-linecap:butt;stroke-linejoin:miter;stroke-miterlimit:4;stroke-dasharray:none;stroke-dashoffset:0;stroke-opacity:1;color-rendering:auto;image-rendering:auto;shape-rendering:auto;text-rendering:auto;enable-background:accumulate"
       d="m 221.43675,465.26509 c -9.89262,0.30371 -19.14913,1.49905 -27.65888,3.25568 -17.01952,3.51322 -31.08134,9.2104 -41.46654,14.34545 -10.38509,5.13504 -17.77726,10.07803 -18.99614,10.75911 l 6.07236,10.86552 c 3.20876,-1.79303 8.78058,-5.68962 18.4411,-10.46641 9.66064,-4.7768 22.72707,-10.06467 38.46553,-13.31345 31.47699,-6.4976 73.51472,-5.07819 121.65518,25.38394 L 324.6051,495.5772 C 286.51285,471.47333 251.11461,464.35401 221.43675,465.26509 Z"
       id="path29-8-7-9-6-2"
       inkscape:connector-curvature="0" />
    <path
       style="color:#000000;font-style:normal;font-variant:normal;font-weight:normal;font-stretch:normal;font-size:medium;line-height:normal;font-family:sans-serif;font-variant-ligatures:normal;font-variant-position:normal;font-variant-caps:normal;font-variant-numeric:normal;font-variant-alternates:normal;font-feature-settings:normal;text-indent:0;text-align:start;text-decoration:none;text-decoration-line:none;text-decoration-style:solid;text-decoration-color:#000000;letter-spacing:normal;word-spacing:normal;text-transform:none;writing-mode:lr-tb;direction:ltr;text-orientation:mixed;dominant-baseline:auto;baseline-shift:baseline;text-anchor:start;white-space:normal;shape-padding:0;clip-rule:nonzero;display:inline;overflow:visible;visibility:visible;opacity:1;isolation:auto;mix-blend-mode:normal;color-interpolation:sRGB;color-interpolation-filters:linearRGB;solid-color:#000000;solid-opacity:1;vector-effect:none;fill:#000000;fill-opacity:1;fill-rule:nonzero;stroke:none;stroke-width:12.44686985;stroke-linecap:butt;stroke-linejoin:miter;stroke-miterlimit:4;stroke-dasharray:none;stroke-dashoffset:0;stroke-opacity:1;color-rendering:auto;image-rendering:auto;shape-rendering:auto;text-rendering:auto;enable-background:accumulate"
       d="m 225.57813,322.74749 c 0,0 -1.40291,13.85342 -3.7251,28.40583 -1.16118,7.2762 -2.56048,14.72733 -4.06342,20.51659 -0.75151,2.89462 -1.53962,5.38076 -2.24463,7.09481 -0.7049,1.71403 -1.61561,2.61083 -0.9616,2.06591 -1.37741,1.14777 -2.8348,2.10425 -3.5978,5.15623 -0.38145,1.52599 -0.1626,3.80068 0.81156,5.38809 0.97406,1.58741 2.24092,2.36408 3.19863,2.81475 3.83077,1.80267 5.79582,1.109 8.40049,0.92936 5.20924,-0.35926 10.85219,-1.52045 10.85219,-1.52045 l -2.44217,-12.20352 c 0,0 -2.66043,0.33812 -4.2706,0.60248 0.82548,-2.21309 1.60667,-4.52264 2.30156,-7.19934 1.67964,-6.46963 3.11028,-14.1862 4.30669,-21.68354 2.39283,-14.99464 3.81831,-29.11474 3.8182,-29.11474 z"
       id="path971-3-7-2-6-7"
       inkscape:connector-curvature="0" />
    <path
       style="color:#000000;font-style:normal;font-variant:normal;font-weight:normal;font-stretch:normal;font-size:medium;line-height:normal;font-family:sans-serif;font-variant-ligatures:normal;font-variant-position:normal;font-variant-caps:normal;font-variant-numeric:normal;font-variant-alternates:normal;font-feature-settings:normal;text-indent:0;text-align:start;text-decoration:none;text-decoration-line:none;text-decoration-style:solid;text-decoration-color:#000000;letter-spacing:normal;word-spacing:normal;text-transform:none;writing-mode:lr-tb;direction:ltr;text-orientation:mixed;dominant-baseline:auto;baseline-shift:baseline;text-anchor:start;white-space:normal;shape-padding:0;clip-rule:nonzero;display:inline;overflow:visible;visibility:visible;opacity:1;isolation:auto;mix-blend-mode:normal;color-interpolation:sRGB;color-interpolation-filters:linearRGB;solid-color:#000000;solid-opacity:1;vector-effect:none;fill:#000000;fill-opacity:1;fill-rule:nonzero;stroke:none;stroke-width:15.44563389;stroke-linecap:butt;stroke-linejoin:miter;stroke-miterlimit:4;stroke-dasharray:none;stroke-dashoffset:0;stroke-opacity:1;color-rendering:auto;image-rendering:auto;shape-rendering:auto;text-rendering:auto;enable-background:accumulate"
       d="m 77.191596,200.73506 -0.10264,15.44398 c 0,0 33.627144,0.22479 67.545994,0.44854 33.91896,0.22374 67.1951,0.44662 69.34971,0.44662 v -15.44587 c -0.18576,0 -35.33062,-0.22289 -69.24889,-0.44664 -33.91839,-0.22373 -67.544154,-0.44663 -67.544154,-0.44663 z"
       id="path1039-4-5-6"
       inkscape:connector-curvature="0" />
    <path
       style="color:#000000;font-style:normal;font-variant:normal;font-weight:normal;font-stretch:normal;font-size:medium;line-height:normal;font-family:sans-serif;font-variant-ligatures:normal;font-variant-position:normal;font-variant-caps:normal;font-variant-numeric:normal;font-variant-alternates:normal;font-feature-settings:normal;text-indent:0;text-align:start;text-decoration:none;text-decoration-line:none;text-decoration-style:solid;text-decoration-color:#000000;letter-spacing:normal;word-spacing:normal;text-transform:none;writing-mode:lr-tb;direction:ltr;text-orientation:mixed;dominant-baseline:auto;baseline-shift:baseline;text-anchor:start;white-space:normal;shape-padding:0;clip-rule:nonzero;display:inline;overflow:visible;visibility:visible;opacity:1;isolation:auto;mix-blend-mode:normal;color-interpolation:sRGB;color-interpolation-filters:linearRGB;solid-color:#000000;solid-opacity:1;vector-effect:none;fill:#000000;fill-opacity:1;fill-rule:nonzero;stroke:none;stroke-width:15.44563389;stroke-linecap:butt;stroke-linejoin:miter;stroke-miterlimit:4;stroke-dasharray:none;stroke-dashoffset:0;stroke-opacity:1;color-rendering:auto;image-rendering:auto;shape-rendering:auto;text-rendering:auto;enable-background:accumulate"
       d="m 243.35792,201.52569 -0.10265,15.44398 c 0,0 33.62714,0.22479 67.54609,0.44855 33.91887,0.22374 67.19511,0.44662 69.3496,0.44662 v -15.44587 c -0.18565,0 -35.33049,-0.2229 -69.24889,-0.44664 -33.91836,-0.22374 -67.54413,-0.44664 -67.54413,-0.44664 z"
       id="path1039-4-5-6-9"
       inkscape:connector-curvature="0" />
    <path
       style="color:#000000;font-style:normal;font-variant:normal;font-weight:normal;font-stretch:normal;font-size:medium;line-height:normal;font-family:sans-serif;font-variant-ligatures:normal;font-variant-position:normal;font-variant-caps:normal;font-variant-numeric:normal;font-variant-alternates:normal;font-feature-settings:normal;text-indent:0;text-align:start;text-decoration:none;text-decoration-line:none;text-decoration-style:solid;text-decoration-color:#000000;letter-spacing:normal;word-spacing:normal;text-transform:none;writing-mode:lr-tb;direction:ltr;text-orientation:mixed;dominant-baseline:auto;baseline-shift:baseline;text-anchor:start;white-space:normal;shape-padding:0;clip-rule:nonzero;display:inline;overflow:visible;visibility:visible;opacity:1;isolation:auto;mix-blend-mode:normal;color-interpolation:sRGB;color-interpolation-filters:linearRGB;solid-color:#000000;solid-opacity:1;vector-effect:none;fill:#000000;fill-opacity:1;fill-rule:nonzero;stroke:none;stroke-width:12.35650539;stroke-linecap:butt;stroke-linejoin:miter;stroke-miterlimit:4;stroke-dasharray:none;stroke-dashoffset:0;stroke-opacity:1;color-rendering:auto;image-rendering:auto;shape-rendering:auto;text-rendering:auto;enable-background:accumulate"
       d="m 102.0585,255.85903 v 6.17872 c 0,27.97931 19.22941,43.83887 38.4085,43.59895 19.17919,-0.23992 37.88517,-16.57556 36.82917,-43.83841 l -0.22994,-5.93926 z m 12.81742,12.35746 h 49.84425 c -1.51637,17.47216 -12.91172,24.92085 -24.40711,25.06465 -11.49073,0.14373 -23.22822,-7.01573 -25.43714,-25.06465 z"
       id="path1479"
       inkscape:connector-curvature="0" />
    <path
       style="color:#000000;font-style:normal;font-variant:normal;font-weight:normal;font-stretch:normal;font-size:medium;line-height:normal;font-family:sans-serif;font-variant-ligatures:normal;font-variant-position:normal;font-variant-caps:normal;font-variant-numeric:normal;font-variant-alternates:normal;font-feature-settings:normal;text-indent:0;text-align:start;text-decoration:none;text-decoration-line:none;text-decoration-style:solid;text-decoration-color:#000000;letter-spacing:normal;word-spacing:normal;text-transform:none;writing-mode:lr-tb;direction:ltr;text-orientation:mixed;dominant-baseline:auto;baseline-shift:baseline;text-anchor:start;white-space:normal;shape-padding:0;clip-rule:nonzero;display:inline;overflow:visible;visibility:visible;opacity:1;isolation:auto;mix-blend-mode:normal;color-interpolation:sRGB;color-interpolation-filters:linearRGB;solid-color:#000000;solid-opacity:1;vector-effect:none;fill:#000000;fill-opacity:1;fill-rule:nonzero;stroke:none;stroke-width:12.35650539;stroke-linecap:butt;stroke-linejoin:miter;stroke-miterlimit:4;stroke-dasharray:none;stroke-dashoffset:0;stroke-opacity:1;color-rendering:auto;image-rendering:auto;shape-rendering:auto;text-rendering:auto;enable-background:accumulate"
       d="m 276.19392,256.7713 v 6.17874 c 0,27.97932 19.22941,43.83885 38.4085,43.59894 19.17919,-0.23992 37.88527,-16.57558 36.82919,-43.83842 l -0.23005,-5.93926 z m 12.81743,12.35745 h 49.84414 c -1.51626,17.47216 -12.91171,24.92085 -24.40702,25.06466 -11.49081,0.14375 -23.2283,-7.01543 -25.43712,-25.06466 z"
       id="path1479-5"
       inkscape:connector-curvature="0" />
  </g>
</svg>
