<?xml version="1.0" encoding="UTF-8" standalone="no"?>
<!-- Created with Inkscape (http://www.inkscape.org/) -->

<svg
   xmlns:dc="http://purl.org/dc/elements/1.1/"
   xmlns:cc="http://creativecommons.org/ns#"
   xmlns:rdf="http://www.w3.org/1999/02/22-rdf-syntax-ns#"
   xmlns:svg="http://www.w3.org/2000/svg"
   xmlns="http://www.w3.org/2000/svg"
   xmlns:sodipodi="http://sodipodi.sourceforge.net/DTD/sodipodi-0.dtd"
   xmlns:inkscape="http://www.inkscape.org/namespaces/inkscape"
   width="1000"
   height="1000"
   viewBox="0 0 1000 1000"
   version="1.1"
   id="svg31085"
   inkscape:version="0.92.4 (5da689c313, 2019-01-14)"
   sodipodi:docname="Aquele - Aquela - Aquilo.svg">
  <defs
     id="defs31079" />
  <sodipodi:namedview
     id="base"
     pagecolor="#ffffff"
     bordercolor="#666666"
     borderopacity="1.0"
     inkscape:pageopacity="0.0"
     inkscape:pageshadow="2"
     inkscape:zoom="256"
     inkscape:cx="975.45312"
     inkscape:cy="1000.2357"
     inkscape:document-units="px"
     inkscape:current-layer="layer1"
     showgrid="false"
     units="px"
     inkscape:window-width="1366"
     inkscape:window-height="715"
     inkscape:window-x="-8"
     inkscape:window-y="-8"
     inkscape:window-maximized="1" />
  <metadata
     id="metadata31082">
    <rdf:RDF>
      <cc:Work
         rdf:about="">
        <dc:format>image/svg+xml</dc:format>
        <dc:type
           rdf:resource="http://purl.org/dc/dcmitype/StillImage" />
        <dc:title></dc:title>
      </cc:Work>
    </rdf:RDF>
  </metadata>
  <g
     inkscape:label="Camada 1"
     inkscape:groupmode="layer"
     id="layer1"
     transform="translate(0,-32.416659)">
    <path
       style="color:#000000;font-style:normal;font-variant:normal;font-weight:normal;font-stretch:normal;font-size:medium;line-height:normal;font-family:sans-serif;font-variant-ligatures:normal;font-variant-position:normal;font-variant-caps:normal;font-variant-numeric:normal;font-variant-alternates:normal;font-feature-settings:normal;text-indent:0;text-align:start;text-decoration:none;text-decoration-line:none;text-decoration-style:solid;text-decoration-color:#000000;letter-spacing:normal;word-spacing:normal;text-transform:none;writing-mode:lr-tb;direction:ltr;text-orientation:mixed;dominant-baseline:auto;baseline-shift:baseline;text-anchor:start;white-space:normal;shape-padding:0;clip-rule:nonzero;display:inline;overflow:visible;visibility:visible;opacity:1;isolation:auto;mix-blend-mode:normal;color-interpolation:sRGB;color-interpolation-filters:linearRGB;solid-color:#000000;solid-opacity:1;vector-effect:none;fill:#000000;fill-opacity:1;fill-rule:nonzero;stroke:none;stroke-width:19.3620739;stroke-linecap:butt;stroke-linejoin:miter;stroke-miterlimit:4;stroke-dasharray:none;stroke-dashoffset:0;stroke-opacity:1;color-rendering:auto;image-rendering:auto;shape-rendering:auto;text-rendering:auto;enable-background:accumulate"
       d="m 29.283203,315.90292 -1.138672,0.12695 -1.078125,0.38868 c 0,0 -9.806247,3.31086 -17.7167966,11.86718 -7.9105496,8.55633 -13.0448503,24.78039 -3.8554688,42.18164 l 0.2382813,0.45313 0.2851562,0.42383 c 0,0 7.5612619,11.26401 18.1699219,24.30468 10.321994,12.6883 23.190853,27.12595 36.947266,35.59766 l 85.955074,81.41211 0.18164,0.15625 c 0,0 31.64564,27.16023 58.50586,55.93164 0.0255,0.0324 3.85341,4.97498 4.99414,7.87891 -0.82327,0.2432 -1.89627,0.55439 -4.19921,0.66406 l -0.58985,0.0273 -0.58203,0.0996 c 0,0 -38.1296,6.61383 -86.71289,35.09375 l -0.21875,0.12696 -0.21289,0.14062 c 0,0 -15.65607,9.84513 -24.302735,26.99024 -4.32333,8.57255 -6.855692,19.58169 -3.802734,31.26172 2.338825,8.9479 7.834749,17.84195 16.832029,26.42578 -4.50942,4.31642 -9.747534,10.11858 -13.882811,17.47266 -4.479694,7.96658 -7.715932,18.02625 -6.177734,29.11328 1.254943,9.04538 5.936019,18.25128 14.050785,26.95898 -2.224642,4.42712 -4.553918,10.50853 -5.205082,17.77149 -1.346695,15.02078 5.836642,34.85345 30.517582,50.23437 l 0.1914,0.11914 0.19727,0.11133 c 0,0 60.20089,34.19664 127.57422,27.53906 1.90699,0.87382 3.79301,1.3485 5.59961,1.65039 3.34715,4.08903 15.44519,18.80799 31.5625,36.85937 9.25743,10.36833 19.22783,21.10816 28.44336,30.10352 8.45544,8.25344 15.75805,14.83439 23.01562,18.93945 1.73392,2.15125 15.79695,19.44891 38.22852,37.74411 23.85597,19.45704 56.32121,39.54014 91.90625,38.43954 l -0.59961,-19.3535 c -27.6546,0.8553 -56.96152,-16.05954 -79.06836,-34.08994 -22.10684,-18.03036 -36.59571,-36.24997 -36.59571,-36.24997 l -1.33398,-1.67969 -1.91797,-0.95899 c -3.17313,-1.58656 -11.41651,-8.1613 -20.10937,-16.64648 -8.69286,-8.48518 -18.4466,-18.97432 -27.52539,-29.14258 -18.15759,-20.33651 -33.60938,-39.3457 -33.60938,-39.3457 l -3.0918,-3.80469 -4.89648,0.24024 c -1.79287,0.088 -1.34449,0.18172 -1.91211,-0.25586 l -3.12891,-2.41211 -3.92382,0.46679 c -60.43987,7.18123 -118.44607,-24.55786 -118.97071,-24.84564 -20.08795,-12.59116 -22.0368,-23.35378 -21.26758,-31.9336 0.77217,-8.61256 5.64454,-14.92773 5.64454,-14.92773 l 5.85937,-7.28907 -7.08203,-6.10742 c -9.36941,-8.08203 -12.56005,-14.92289 -13.375,-20.79687 -0.81495,-5.87399 0.81842,-11.52172 3.87695,-16.96094 6.11707,-10.87845 17.43946,-18.96094 17.43946,-18.96094 l 11.19336,-7.65039 -10.8711,-8.10351 c -12.24348,-9.12697 -17.17156,-17.12803 -18.85547,-23.57032 -1.6839,-6.44229 -0.44805,-12.07975 2.35938,-17.64648 5.56815,-11.04086 17.35715,-19.30896 17.55469,-19.44727 45.76954,-26.76254 79.83919,-32.53142 79.86132,-32.53516 1e-5,0 0.008,-0.002 0.008,-0.002 7.75284,-0.53701 14.32781,-2.62401 18.50976,-8.06055 4.3985,-5.71805 3.76467,-12.72967 2.26758,-17.3457 -2.99419,-9.23207 -9.40625,-15.45312 -9.40625,-15.45313 l -0.0293,-0.0312 -0.0293,-0.0313 c -27.64001,-29.61421 -59.1683,-56.64766 -59.74805,-57.14453 l -0.0117,-0.0117 -87.169922,-82.56446 -0.947266,-0.55664 C 62.493649,409.64372 49.21664,395.73429 39.207221,383.43022 29.60877,371.63134 23.039389,361.92848 22.486518,361.10991 c -5.873503,-11.32636 -2.945531,-15.3274 1.080078,-19.68164 2.650486,-2.86686 5.526969,-4.52101 7.625,-5.57812 0.804445,0.26277 1.895777,0.58056 3.185547,1.38867 3.033387,1.90058 6.881308,4.85318 10.492188,7.88476 7.221759,6.06318 13.517578,12.34766 13.517578,12.34766 l 1.470703,1.46875 1.941406,0.73828 c 0.610056,0.2314 4.664946,2.38342 8.97461,5.14453 4.309663,2.76111 9.347102,6.21541 14.105468,9.56836 9.342253,6.58296 17.272894,12.52955 17.572264,12.75391 16.68309,16.42728 44.32085,34.32228 68.41602,48.82812 24.41639,14.69922 45.00976,25.57032 45.00976,25.57032 l 0.40821,0.21484 0.42578,0.17578 c 10.33299,4.2548 94.06054,40.35938 94.06054,40.35938 l 2.06446,0.89062 2.24414,-0.11133 c 30.14901,-1.48077 51.84049,11.51868 58.42383,16.89649 l 0.55273,0.45312 0.61524,0.36719 c 20.10969,11.98443 25.61181,27.54993 28.02734,34.37109 2.2999,9.92824 5.49843,16.30521 9.03125,20.42969 1.82787,2.13399 3.74341,3.64664 5.47656,4.62891 0.003,0.002 0.004,0.002 0.008,0.004 6.91751,7.89374 12.94336,25.40821 12.94336,25.40821 l -0.0566,-0.20508 c 3.42206,12.8327 13.85018,31.72934 23.72852,49.34571 9.83454,17.53827 18.94628,32.51329 19.02734,32.64648 0.0115,0.0193 0.0217,0.0354 0.0332,0.0547 5e-5,8e-5 0.0195,0.0312 0.0195,0.0312 55.95296,94.10904 105.92773,141.51563 105.92773,141.51563 l 13.31055,-14.06055 c 0,0 -47.78933,-45.14636 -102.64649,-137.43555 l -0.0254,-0.043 -0.0273,-0.043 c 0,0 -9.0521,-14.87347 -18.73242,-32.13672 -9.68033,-17.26325 -20.1146,-38.13728 -21.90821,-44.86328 l -0.0273,-0.10352 -0.0293,-0.10156 c 0,0 -5.18123,-21.2183 -18.75,-34.78711 l -2.15039,-2.15039 -1.36914,-0.24414 c -0.0541,-0.0578 0.0226,0.0245 -0.0469,-0.0566 -0.93589,-1.09263 -3.24607,-4.58716 -5.08203,-12.95117 l -0.12891,-0.58985 -0.20117,-0.56836 c -2.43212,-6.86532 -10.69487,-28.90557 -35.60156,-44.15625 -10.32382,-8.32532 -34.52351,-21.93896 -68.77344,-20.98242 -3.00074,-1.29483 -79.67413,-34.37902 -92.01367,-39.47852 -0.43015,-0.22735 -20.12862,-10.64456 -43.7793,-24.88281 -23.90978,-14.39423 -51.71155,-32.8834 -65.42188,-46.59375 l -0.48632,-0.48633 -0.55079,-0.41211 c 0,0 -8.56781,-6.42639 -18.36523,-13.33007 -4.898708,-3.45184 -10.108806,-7.02816 -14.814453,-10.04297 -3.828267,-2.45269 -7.022862,-4.34258 -10.292969,-5.85352 -1.461979,-1.44493 -6.645807,-6.52797 -13.605469,-12.37109 -4.008846,-3.36571 -8.330438,-6.75082 -12.662109,-9.46485 -4.331671,-2.71402 -7.957641,-5.75164 -15.373047,-4.92773 z"
       id="path53564"
       inkscape:connector-curvature="0" />
    <path
       style="color:#000000;font-style:normal;font-variant:normal;font-weight:normal;font-stretch:normal;font-size:medium;line-height:normal;font-family:sans-serif;font-variant-ligatures:normal;font-variant-position:normal;font-variant-caps:normal;font-variant-numeric:normal;font-variant-alternates:normal;font-feature-settings:normal;text-indent:0;text-align:start;text-decoration:none;text-decoration-line:none;text-decoration-style:solid;text-decoration-color:#000000;letter-spacing:normal;word-spacing:normal;text-transform:none;writing-mode:lr-tb;direction:ltr;text-orientation:mixed;dominant-baseline:auto;baseline-shift:baseline;text-anchor:start;white-space:normal;shape-padding:0;clip-rule:nonzero;display:inline;overflow:visible;visibility:visible;opacity:1;isolation:auto;mix-blend-mode:normal;color-interpolation:sRGB;color-interpolation-filters:linearRGB;solid-color:#000000;solid-opacity:1;vector-effect:none;fill:#000000;fill-opacity:1;fill-rule:nonzero;stroke:none;stroke-width:19.3620739;stroke-linecap:butt;stroke-linejoin:miter;stroke-miterlimit:4;stroke-dasharray:none;stroke-dashoffset:0;stroke-opacity:1;color-rendering:auto;image-rendering:auto;shape-rendering:auto;text-rendering:auto;enable-background:accumulate"
       d="m 197.77539,814.66074 -3.26172,3.5625 c 0,0 -7.37397,8.49249 -23.17383,8.75586 l 0.32227,19.35937 c 15.94843,-0.26584 27.00395,-7.04532 32.68164,-11.4043 3.95938,0.52242 11.9044,1.7185 21.37891,4.96484 6.14735,2.10633 12.03009,4.98446 15.76953,8.08204 3.73944,3.09757 5.19856,5.61451 5.26172,9.08789 l 19.35937,-0.35352 c -0.18133,-9.97318 -5.69209,-18.19609 -12.26953,-23.64453 -6.57744,-5.44844 -14.35946,-8.9232 -21.8457,-11.48828 -14.97248,-5.13016 -29.41407,-6.45898 -29.41407,-6.45898 z"
       id="path53566"
       inkscape:connector-curvature="0" />
    <path
       style="color:#000000;font-style:normal;font-variant:normal;font-weight:normal;font-stretch:normal;font-size:medium;line-height:normal;font-family:sans-serif;font-variant-ligatures:normal;font-variant-position:normal;font-variant-caps:normal;font-variant-numeric:normal;font-variant-alternates:normal;font-feature-settings:normal;text-indent:0;text-align:start;text-decoration:none;text-decoration-line:none;text-decoration-style:solid;text-decoration-color:#000000;letter-spacing:normal;word-spacing:normal;text-transform:none;writing-mode:lr-tb;direction:ltr;text-orientation:mixed;dominant-baseline:auto;baseline-shift:baseline;text-anchor:start;white-space:normal;shape-padding:0;clip-rule:nonzero;display:inline;overflow:visible;visibility:visible;opacity:1;isolation:auto;mix-blend-mode:normal;color-interpolation:sRGB;color-interpolation-filters:linearRGB;solid-color:#000000;solid-opacity:1;vector-effect:none;fill:#000000;fill-opacity:1;fill-rule:nonzero;stroke:none;stroke-width:19.3620739;stroke-linecap:butt;stroke-linejoin:miter;stroke-miterlimit:4;stroke-dasharray:none;stroke-dashoffset:0;stroke-opacity:1;color-rendering:auto;image-rendering:auto;shape-rendering:auto;text-rendering:auto;enable-background:accumulate"
       d="m 221.57812,831.64707 c -0.28357,0.20622 -1.13888,2.21733 -2.52929,3.7246 -1.85389,2.00969 -3.68945,3.48047 -3.68945,3.48047 l 12.0332,15.16992 c 0,0 2.89172,-2.27673 5.88672,-5.52344 2.995,-3.24671 7.06299,-7.10442 7.6875,-14.80663 l -19.29883,-1.56446 c 0.0339,-0.4179 0.005,-0.5492 -0.0898,-0.48046 z"
       id="path53568"
       inkscape:connector-curvature="0" />
    <path
       style="color:#000000;font-style:normal;font-variant:normal;font-weight:normal;font-stretch:normal;font-size:medium;line-height:normal;font-family:sans-serif;font-variant-ligatures:normal;font-variant-position:normal;font-variant-caps:normal;font-variant-numeric:normal;font-variant-alternates:normal;font-feature-settings:normal;text-indent:0;text-align:start;text-decoration:none;text-decoration-line:none;text-decoration-style:solid;text-decoration-color:#000000;letter-spacing:normal;word-spacing:normal;text-transform:none;writing-mode:lr-tb;direction:ltr;text-orientation:mixed;dominant-baseline:auto;baseline-shift:baseline;text-anchor:start;white-space:normal;shape-padding:0;clip-rule:nonzero;display:inline;overflow:visible;visibility:visible;opacity:1;isolation:auto;mix-blend-mode:normal;color-interpolation:sRGB;color-interpolation-filters:linearRGB;solid-color:#000000;solid-opacity:1;vector-effect:none;fill:#000000;fill-opacity:1;fill-rule:nonzero;stroke:none;stroke-width:19.3620739;stroke-linecap:butt;stroke-linejoin:miter;stroke-miterlimit:4;stroke-dasharray:none;stroke-dashoffset:0;stroke-opacity:1;color-rendering:auto;image-rendering:auto;shape-rendering:auto;text-rendering:auto;enable-background:accumulate"
       d="m 182.40625,807.96738 c -0.86336,8.46072 3.46627,14.27118 6.75195,18.14453 3.28568,3.87334 6.6875,6.39258 6.6875,6.39258 l 11.61719,-15.48828 c 0,0 -1.81282,-1.39275 -3.53906,-3.42774 -1.72624,-2.03498 -2.20552,-4.13047 -2.25391,-3.65625 z"
       id="path53572"
       inkscape:connector-curvature="0" />
    <path
       style="color:#000000;font-style:normal;font-variant:normal;font-weight:normal;font-stretch:normal;font-size:medium;line-height:normal;font-family:sans-serif;font-variant-ligatures:normal;font-variant-position:normal;font-variant-caps:normal;font-variant-numeric:normal;font-variant-alternates:normal;font-feature-settings:normal;text-indent:0;text-align:start;text-decoration:none;text-decoration-line:none;text-decoration-style:solid;text-decoration-color:#000000;letter-spacing:normal;word-spacing:normal;text-transform:none;writing-mode:lr-tb;direction:ltr;text-orientation:mixed;dominant-baseline:auto;baseline-shift:baseline;text-anchor:start;white-space:normal;shape-padding:0;clip-rule:nonzero;display:inline;overflow:visible;visibility:visible;opacity:1;isolation:auto;mix-blend-mode:normal;color-interpolation:sRGB;color-interpolation-filters:linearRGB;solid-color:#000000;solid-opacity:1;vector-effect:none;fill:#000000;fill-opacity:1;fill-rule:nonzero;stroke:none;stroke-width:19.3620739;stroke-linecap:butt;stroke-linejoin:miter;stroke-miterlimit:4;stroke-dasharray:none;stroke-dashoffset:0;stroke-opacity:1;color-rendering:auto;image-rendering:auto;shape-rendering:auto;text-rendering:auto;enable-background:accumulate"
       d="m 206.12695,697.78574 c -4.18811,5.63784 -14.49685,12.72803 -23.61523,17.55859 -9.11838,4.83057 -16.77149,7.7461 -16.77149,7.7461 l 0.0801,-0.0293 c -32.29839,11.95282 -59.48635,39.57226 -59.48635,39.57226 l 13.63477,13.74805 c 0,0 26.3233,-25.44802 52.57227,-35.16211 l 0.041,-0.0156 0.0391,-0.0156 c 0,0 8.71138,-3.30766 18.95508,-8.73437 10.2437,-5.42672 22.29584,-12.62587 30.09375,-23.12305 z"
       id="path53576"
       inkscape:connector-curvature="0" />
    <path
       style="color:#000000;font-style:normal;font-variant:normal;font-weight:normal;font-stretch:normal;font-size:medium;line-height:normal;font-family:sans-serif;font-variant-ligatures:normal;font-variant-position:normal;font-variant-caps:normal;font-variant-numeric:normal;font-variant-alternates:normal;font-feature-settings:normal;text-indent:0;text-align:start;text-decoration:none;text-decoration-line:none;text-decoration-style:solid;text-decoration-color:#000000;letter-spacing:normal;word-spacing:normal;text-transform:none;writing-mode:lr-tb;direction:ltr;text-orientation:mixed;dominant-baseline:auto;baseline-shift:baseline;text-anchor:start;white-space:normal;shape-padding:0;clip-rule:nonzero;display:inline;overflow:visible;visibility:visible;opacity:1;isolation:auto;mix-blend-mode:normal;color-interpolation:sRGB;color-interpolation-filters:linearRGB;solid-color:#000000;solid-opacity:1;vector-effect:none;fill:#000000;fill-opacity:1;fill-rule:nonzero;stroke:none;stroke-width:19.3620739;stroke-linecap:butt;stroke-linejoin:miter;stroke-miterlimit:4;stroke-dasharray:none;stroke-dashoffset:0;stroke-opacity:1;color-rendering:auto;image-rendering:auto;shape-rendering:auto;text-rendering:auto;enable-background:accumulate"
       d="m 213.38477,633.67831 c -10.61322,10.99913 -24.50586,15.16212 -24.50586,15.16212 l -0.58399,0.16796 -0.55859,0.23829 c -48.49698,20.71717 -72.09961,40.88281 -72.09961,40.88281 l 12.63281,14.67187 c 0,0 20.54732,-17.83885 66.8457,-37.64843 2.40281,-0.71786 18.55,-5.87973 32.20313,-20.0293 z"
       id="path53578"
       inkscape:connector-curvature="0" />
    <path
       style="color:#000000;font-style:normal;font-variant:normal;font-weight:normal;font-stretch:normal;font-size:medium;line-height:normal;font-family:sans-serif;font-variant-ligatures:normal;font-variant-position:normal;font-variant-caps:normal;font-variant-numeric:normal;font-variant-alternates:normal;font-feature-settings:normal;text-indent:0;text-align:start;text-decoration:none;text-decoration-line:none;text-decoration-style:solid;text-decoration-color:#000000;letter-spacing:normal;word-spacing:normal;text-transform:none;writing-mode:lr-tb;direction:ltr;text-orientation:mixed;dominant-baseline:auto;baseline-shift:baseline;text-anchor:start;white-space:normal;shape-padding:0;clip-rule:nonzero;display:inline;overflow:visible;visibility:visible;opacity:1;isolation:auto;mix-blend-mode:normal;color-interpolation:sRGB;color-interpolation-filters:linearRGB;solid-color:#000000;solid-opacity:1;vector-effect:none;fill:#000000;fill-opacity:1;fill-rule:nonzero;stroke:none;stroke-width:19.3620739;stroke-linecap:butt;stroke-linejoin:miter;stroke-miterlimit:4;stroke-dasharray:none;stroke-dashoffset:0;stroke-opacity:1;color-rendering:auto;image-rendering:auto;shape-rendering:auto;text-rendering:auto;enable-background:accumulate"
       d="m 29.238281,320.18026 c -6.389018,5.95094 -10.013589,13.18465 -10.080078,20.22461 -0.06649,7.03997 3.056305,12.78458 6.408203,16.95118 6.703796,8.33319 15.558594,12.49414 15.558594,12.49414 l 8.761719,4.45312 4.320312,-8.82812 c 0,0 1.703668,-3.45723 3.910157,-6.98047 1.103244,-1.76162 2.334013,-3.50199 3.251953,-4.56641 0.917939,-1.06441 1.929387,-1.10148 -0.257813,-0.41797 l -5.77539,-18.48047 c -4.795016,1.49848 -6.67417,3.98725 -8.628907,6.25391 -1.639641,1.90128 -2.94312,3.88255 -4.193359,5.81641 -0.649917,-0.61647 -1.329041,-1.22163 -1.859375,-1.88086 -1.587957,-1.97392 -2.145039,-3.54504 -2.134766,-4.63282 0.01027,-1.08777 0.218672,-2.79432 3.914063,-6.23632 z"
       id="path53582"
       inkscape:connector-curvature="0" />
    <path
       style="color:#000000;font-style:normal;font-variant:normal;font-weight:normal;font-stretch:normal;font-size:medium;line-height:normal;font-family:sans-serif;font-variant-ligatures:normal;font-variant-position:normal;font-variant-caps:normal;font-variant-numeric:normal;font-variant-alternates:normal;font-feature-settings:normal;text-indent:0;text-align:start;text-decoration:none;text-decoration-line:none;text-decoration-style:solid;text-decoration-color:#000000;letter-spacing:normal;word-spacing:normal;text-transform:none;writing-mode:lr-tb;direction:ltr;text-orientation:mixed;dominant-baseline:auto;baseline-shift:baseline;text-anchor:start;white-space:normal;shape-padding:0;clip-rule:nonzero;display:inline;overflow:visible;visibility:visible;opacity:1;isolation:auto;mix-blend-mode:normal;color-interpolation:sRGB;color-interpolation-filters:linearRGB;solid-color:#000000;solid-opacity:1;vector-effect:none;fill:#000000;fill-opacity:1;fill-rule:nonzero;stroke:none;stroke-width:19.3620739;stroke-linecap:butt;stroke-linejoin:miter;stroke-miterlimit:4;stroke-dasharray:none;stroke-dashoffset:0;stroke-opacity:1;color-rendering:auto;image-rendering:auto;shape-rendering:auto;text-rendering:auto;enable-background:accumulate"
       d="m 299.94531,668.80136 -13.05664,14.29883 c 11.87481,10.84221 12.4937,25.22389 9.89649,38.78711 -2.59722,13.56322 -8.54883,24.29883 -8.54883,24.29883 l 16.88086,9.48047 c 0,0 7.4132,-13.06002 10.68359,-30.13867 3.27039,-17.07865 2.25964,-40.1867 -15.85547,-56.72657 z"
       id="path53584"
       inkscape:connector-curvature="0" />
    <path
       style="color:#000000;font-style:normal;font-variant:normal;font-weight:normal;font-stretch:normal;font-size:medium;line-height:normal;font-family:sans-serif;font-variant-ligatures:normal;font-variant-position:normal;font-variant-caps:normal;font-variant-numeric:normal;font-variant-alternates:normal;font-feature-settings:normal;text-indent:0;text-align:start;text-decoration:none;text-decoration-line:none;text-decoration-style:solid;text-decoration-color:#000000;letter-spacing:normal;word-spacing:normal;text-transform:none;writing-mode:lr-tb;direction:ltr;text-orientation:mixed;dominant-baseline:auto;baseline-shift:baseline;text-anchor:start;white-space:normal;shape-padding:0;clip-rule:nonzero;display:inline;overflow:visible;visibility:visible;opacity:1;isolation:auto;mix-blend-mode:normal;color-interpolation:sRGB;color-interpolation-filters:linearRGB;solid-color:#000000;solid-opacity:1;vector-effect:none;fill:#000000;fill-opacity:1;fill-rule:nonzero;stroke:none;stroke-width:19.3620739;stroke-linecap:butt;stroke-linejoin:miter;stroke-miterlimit:4;stroke-dasharray:none;stroke-dashoffset:0;stroke-opacity:1;color-rendering:auto;image-rendering:auto;shape-rendering:auto;text-rendering:auto;enable-background:accumulate"
       d="m 342.32227,597.73886 -13.05665,14.29883 c 6.0406,5.51533 8.00323,10.30898 8.54102,15.0664 0.5378,4.75743 -0.64962,9.84472 -2.84766,14.70704 -4.39606,9.72464 -12.27148,17.26758 -12.27148,17.26758 l 13.17383,14.1875 c 0,0 10.37904,-9.40874 16.74023,-23.48047 3.1806,-7.03587 5.49666,-15.55706 4.44532,-24.85743 -1.05135,-9.30037 -5.77025,-19.01371 -14.72461,-27.18945 z"
       id="path53586"
       inkscape:connector-curvature="0" />
    <path
       style="color:#000000;font-style:normal;font-variant:normal;font-weight:normal;font-stretch:normal;font-size:medium;line-height:normal;font-family:sans-serif;font-variant-ligatures:normal;font-variant-position:normal;font-variant-caps:normal;font-variant-numeric:normal;font-variant-alternates:normal;font-feature-settings:normal;text-indent:0;text-align:start;text-decoration:none;text-decoration-line:none;text-decoration-style:solid;text-decoration-color:#000000;letter-spacing:normal;word-spacing:normal;text-transform:none;writing-mode:lr-tb;direction:ltr;text-orientation:mixed;dominant-baseline:auto;baseline-shift:baseline;text-anchor:start;white-space:normal;shape-padding:0;clip-rule:nonzero;display:inline;overflow:visible;visibility:visible;opacity:1;isolation:auto;mix-blend-mode:normal;color-interpolation:sRGB;color-interpolation-filters:linearRGB;solid-color:#000000;solid-opacity:1;vector-effect:none;fill:#000000;fill-opacity:1;fill-rule:nonzero;stroke:none;stroke-width:19.3620739;stroke-linecap:butt;stroke-linejoin:miter;stroke-miterlimit:4;stroke-dasharray:none;stroke-dashoffset:0;stroke-opacity:1;color-rendering:auto;image-rendering:auto;shape-rendering:auto;text-rendering:auto;enable-background:accumulate"
       d="m 373.42188,555.32089 -12.48047,14.80273 c 9.04557,7.62667 7.89649,12.60635 5.71875,18.64649 -2.17775,6.04014 -6.78516,10.90039 -6.78516,10.90039 l 13.69141,13.69141 c 0,0 7.37804,-7.12372 11.30859,-18.0254 3.93055,-10.90167 3.01237,-27.81922 -11.45312,-40.01562 z"
       id="path53588"
       inkscape:connector-curvature="0" />
    <path
       style="color:#000000;font-style:normal;font-variant:normal;font-weight:normal;font-stretch:normal;font-size:medium;line-height:normal;font-family:sans-serif;font-variant-ligatures:normal;font-variant-position:normal;font-variant-caps:normal;font-variant-numeric:normal;font-variant-alternates:normal;font-feature-settings:normal;text-indent:0;text-align:start;text-decoration:none;text-decoration-line:none;text-decoration-style:solid;text-decoration-color:#000000;letter-spacing:normal;word-spacing:normal;text-transform:none;writing-mode:lr-tb;direction:ltr;text-orientation:mixed;dominant-baseline:auto;baseline-shift:baseline;text-anchor:start;white-space:normal;shape-padding:0;clip-rule:nonzero;display:inline;overflow:visible;visibility:visible;opacity:1;isolation:auto;mix-blend-mode:normal;color-interpolation:sRGB;color-interpolation-filters:linearRGB;solid-color:#000000;solid-opacity:1;vector-effect:none;fill:#000000;fill-opacity:1;fill-rule:nonzero;stroke:none;stroke-width:19.3620739;stroke-linecap:butt;stroke-linejoin:miter;stroke-miterlimit:4;stroke-dasharray:none;stroke-dashoffset:0;stroke-opacity:1;color-rendering:auto;image-rendering:auto;shape-rendering:auto;text-rendering:auto;enable-background:accumulate"
       d="m 402.86328,548.64315 c 0,0 -0.88842,2.2971 -2.56445,5.1836 -1.67604,2.88649 -4.25857,5.89084 -5.51758,6.67773 l 10.26172,16.41993 c 6.117,-3.82316 9.52701,-9.11598 12,-13.375 2.47299,-4.25903 3.89062,-7.95508 3.89062,-7.95508 z"
       id="path53590"
       inkscape:connector-curvature="0" />
    <path
       style="color:#000000;font-style:normal;font-variant:normal;font-weight:normal;font-stretch:normal;font-size:medium;line-height:normal;font-family:sans-serif;font-variant-ligatures:normal;font-variant-position:normal;font-variant-caps:normal;font-variant-numeric:normal;font-variant-alternates:normal;font-feature-settings:normal;text-indent:0;text-align:start;text-decoration:none;text-decoration-line:none;text-decoration-style:solid;text-decoration-color:#000000;letter-spacing:normal;word-spacing:normal;text-transform:none;writing-mode:lr-tb;direction:ltr;text-orientation:mixed;dominant-baseline:auto;baseline-shift:baseline;text-anchor:start;white-space:normal;shape-padding:0;clip-rule:nonzero;display:inline;overflow:visible;visibility:visible;opacity:1;isolation:auto;mix-blend-mode:normal;color-interpolation:sRGB;color-interpolation-filters:linearRGB;solid-color:#000000;solid-opacity:1;vector-effect:none;fill:#000000;fill-opacity:1;fill-rule:nonzero;stroke:none;stroke-width:19.3620739;stroke-linecap:butt;stroke-linejoin:miter;stroke-miterlimit:4;stroke-dasharray:none;stroke-dashoffset:0;stroke-opacity:1;color-rendering:auto;image-rendering:auto;shape-rendering:auto;text-rendering:auto;enable-background:accumulate"
       d="m 259.88672,561.06112 c -7.32879,5.05434 -21.27046,9.66688 -32.96875,12.39649 -11.69829,2.7296 -21.07617,3.89453 -21.07617,3.89453 l 2.38281,19.21484 c 0,0 10.34374,-1.27889 23.09375,-4.2539 12.75001,-2.97501 27.98262,-7.32774 39.56055,-15.3125 z"
       id="path53592"
       inkscape:connector-curvature="0" />
    <path
       style="color:#000000;font-style:normal;font-variant:normal;font-weight:normal;font-stretch:normal;font-size:medium;line-height:normal;font-family:sans-serif;font-variant-ligatures:normal;font-variant-position:normal;font-variant-caps:normal;font-variant-numeric:normal;font-variant-alternates:normal;font-feature-settings:normal;text-indent:0;text-align:start;text-decoration:none;text-decoration-line:none;text-decoration-style:solid;text-decoration-color:#000000;letter-spacing:normal;word-spacing:normal;text-transform:none;writing-mode:lr-tb;direction:ltr;text-orientation:mixed;dominant-baseline:auto;baseline-shift:baseline;text-anchor:start;white-space:normal;shape-padding:0;clip-rule:nonzero;display:inline;overflow:visible;visibility:visible;opacity:1;isolation:auto;mix-blend-mode:normal;color-interpolation:sRGB;color-interpolation-filters:linearRGB;solid-color:#000000;solid-opacity:1;vector-effect:none;fill:#000000;fill-opacity:1;fill-rule:nonzero;stroke:none;stroke-width:19.3620739;stroke-linecap:butt;stroke-linejoin:miter;stroke-miterlimit:4;stroke-dasharray:none;stroke-dashoffset:0;stroke-opacity:1;color-rendering:auto;image-rendering:auto;shape-rendering:auto;text-rendering:auto;enable-background:accumulate"
       d="m 260.85352,560.47519 c -14.75435,7.81111 -23.62795,6.82312 -29.18946,4.93164 -5.56151,-1.89149 -7.40039,-4.47266 -7.40039,-4.47266 l -15.22851,11.95703 c 0,0 5.90165,7.279 16.39453,10.84766 10.49288,3.56866 25.98707,3.6393 44.48242,-6.15235 z"
       id="path53594"
       inkscape:connector-curvature="0" />
    <path
       style="color:#000000;font-style:normal;font-variant:normal;font-weight:normal;font-stretch:normal;font-size:medium;line-height:normal;font-family:sans-serif;font-variant-ligatures:normal;font-variant-position:normal;font-variant-caps:normal;font-variant-numeric:normal;font-variant-alternates:normal;font-feature-settings:normal;text-indent:0;text-align:start;text-decoration:none;text-decoration-line:none;text-decoration-style:solid;text-decoration-color:#000000;letter-spacing:normal;word-spacing:normal;text-transform:none;writing-mode:lr-tb;direction:ltr;text-orientation:mixed;dominant-baseline:auto;baseline-shift:baseline;text-anchor:start;white-space:normal;shape-padding:0;clip-rule:nonzero;display:inline;overflow:visible;visibility:visible;opacity:1;isolation:auto;mix-blend-mode:normal;color-interpolation:sRGB;color-interpolation-filters:linearRGB;solid-color:#000000;solid-opacity:1;vector-effect:none;fill:#000000;fill-opacity:1;fill-rule:nonzero;stroke:none;stroke-width:40.98732758;stroke-linecap:butt;stroke-linejoin:miter;stroke-miterlimit:4;stroke-dasharray:none;stroke-dashoffset:0;stroke-opacity:1;color-rendering:auto;image-rendering:auto;shape-rendering:auto;text-rendering:auto;enable-background:accumulate"
       d="m 973.62109,32.617769 c -157.94971,-0.0466 -266.45431,63.367635 -328.86523,158.238281 -62.41617,94.87863 -79.833,218.76899 -66.19141,341.40234 13.6416,122.63335 58.40248,244.55195 124.48243,337.14062 66.07994,92.58868 155.04652,157.08729 256.23828,156.48439 101.14404,-0.6025 189.38274,-65.77861 255.07224,-158.6797 65.6896,-92.90108 110.3649,-214.77288 125.2012,-337.10156 14.8363,-122.32867 -0.025,-245.56354 -57.6641,-340.06641 C 1224.2612,95.542164 1122.1354,32.083609 973.62109,32.617769 Z m 0.0254,40.986325 h 0.041 0.041 c 137.16441,-0.50494 222.24041,54.264816 273.17381,137.773436 50.9334,83.50862 66.0027,198.06177 51.9668,313.79102 -14.0358,115.72924 -57.0348,232.18466 -117.9765,318.37109 -60.9417,86.18644 -138.2908,140.85962 -221.85161,141.35742 C 875.52789,985.39456 797.63749,931.3806 736.4082,845.58847 675.17891,759.79634 632.17551,643.46661 619.30078,527.72714 606.42605,411.98767 623.74037,297.38041 678.99805,213.38339 734.25572,129.38637 826.35653,73.550684 973.64648,73.604094 Z"
       id="path10-9-9"
       inkscape:connector-curvature="0" />
    <path
       style="color:#000000;font-style:normal;font-variant:normal;font-weight:normal;font-stretch:normal;font-size:medium;line-height:normal;font-family:sans-serif;font-variant-ligatures:normal;font-variant-position:normal;font-variant-caps:normal;font-variant-numeric:normal;font-variant-alternates:normal;font-feature-settings:normal;text-indent:0;text-align:start;text-decoration:none;text-decoration-line:none;text-decoration-style:solid;text-decoration-color:#000000;letter-spacing:normal;word-spacing:normal;text-transform:none;writing-mode:lr-tb;direction:ltr;text-orientation:mixed;dominant-baseline:auto;baseline-shift:baseline;text-anchor:start;white-space:normal;shape-padding:0;clip-rule:nonzero;display:inline;overflow:visible;visibility:visible;opacity:1;isolation:auto;mix-blend-mode:normal;color-interpolation:sRGB;color-interpolation-filters:linearRGB;solid-color:#000000;solid-opacity:1;vector-effect:none;fill:#000000;fill-opacity:1;fill-rule:nonzero;stroke:none;stroke-width:20.49366379;stroke-linecap:butt;stroke-linejoin:miter;stroke-miterlimit:4;stroke-dasharray:none;stroke-dashoffset:0;stroke-opacity:1;color-rendering:auto;image-rendering:auto;shape-rendering:auto;text-rendering:auto;enable-background:accumulate"
       d="m 958.60352,735.18619 c -21.38083,-0.57793 -41.25476,2.73945 -59.13475,8.38672 -28.608,9.03562 -52.1524,23.62907 -69.5489,36.87109 -17.3964,13.24202 -29.1027,25.60552 -32.3476,28.82031 l 14.4238,14.5586 c 4.2107,-4.17162 14.2716,-14.84269 30.3379,-27.07227 16.0664,-12.22957 37.6789,-25.5424 63.3066,-33.63672 51.25546,-16.18862 118.41623,-13.14229 196.43173,63.66016 l 14.3789,-14.60352 c -56.473,-55.59488 -110.8099,-75.71292 -157.84768,-76.98437 z"
       id="path29-8"
       inkscape:connector-curvature="0" />
    <path
       style="color:#000000;font-style:normal;font-variant:normal;font-weight:normal;font-stretch:normal;font-size:medium;line-height:normal;font-family:sans-serif;font-variant-ligatures:normal;font-variant-position:normal;font-variant-caps:normal;font-variant-numeric:normal;font-variant-alternates:normal;font-feature-settings:normal;text-indent:0;text-align:start;text-decoration:none;text-decoration-line:none;text-decoration-style:solid;text-decoration-color:#000000;letter-spacing:normal;word-spacing:normal;text-transform:none;writing-mode:lr-tb;direction:ltr;text-orientation:mixed;dominant-baseline:auto;baseline-shift:baseline;text-anchor:start;white-space:normal;shape-padding:0;clip-rule:nonzero;display:inline;overflow:visible;visibility:visible;opacity:1;isolation:auto;mix-blend-mode:normal;color-interpolation:sRGB;color-interpolation-filters:linearRGB;solid-color:#000000;solid-opacity:1;vector-effect:none;fill:#000000;fill-opacity:1;fill-rule:nonzero;stroke:none;stroke-width:20.49366379;stroke-linecap:butt;stroke-linejoin:miter;stroke-miterlimit:4;stroke-dasharray:none;stroke-dashoffset:0;stroke-opacity:1;color-rendering:auto;image-rendering:auto;shape-rendering:auto;text-rendering:auto;enable-background:accumulate"
       d="m 951.69531,526.25058 c 0,0 -2.31129,22.8109 -6.13476,46.77148 -1.91174,11.98029 -4.21481,24.24924 -6.68946,33.78125 -1.23732,4.76601 -2.53262,8.8575 -3.69336,11.67969 -1.16073,2.82219 -2.66069,4.29764 -1.58398,3.40039 -2.26777,1.88977 -4.66752,3.46715 -5.92383,8.49219 -0.62815,2.51252 -0.26989,6.25543 1.33399,8.86914 1.60388,2.61372 3.68879,3.89274 5.26562,4.63477 6.30732,2.96809 9.54548,1.82897 13.83399,1.5332 8.57702,-0.59153 17.86718,-2.50391 17.86718,-2.50391 l -4.01953,-20.0957 c 0,0 -3.16138,0.55144 -6.98242,1.1289 1.35755,-3.64124 2.59517,-7.58711 3.73828,-11.99023 2.76548,-10.65225 5.12197,-23.35487 7.0918,-35.69922 3.93966,-24.6887 6.28515,-47.93945 6.28515,-47.93945 z"
       id="path971-3"
       inkscape:connector-curvature="0" />
    <path
       style="color:#000000;font-style:normal;font-variant:normal;font-weight:normal;font-stretch:normal;font-size:medium;line-height:normal;font-family:sans-serif;font-variant-ligatures:normal;font-variant-position:normal;font-variant-caps:normal;font-variant-numeric:normal;font-variant-alternates:normal;font-feature-settings:normal;text-indent:0;text-align:start;text-decoration:none;text-decoration-line:none;text-decoration-style:solid;text-decoration-color:#000000;letter-spacing:normal;word-spacing:normal;text-transform:none;writing-mode:lr-tb;direction:ltr;text-orientation:mixed;dominant-baseline:auto;baseline-shift:baseline;text-anchor:start;white-space:normal;shape-padding:0;clip-rule:nonzero;display:inline;overflow:visible;visibility:visible;opacity:1;isolation:auto;mix-blend-mode:normal;color-interpolation:sRGB;color-interpolation-filters:linearRGB;solid-color:#000000;solid-opacity:1;vector-effect:none;fill:#000000;fill-opacity:1;fill-rule:nonzero;stroke:none;stroke-width:25.41542435;stroke-linecap:butt;stroke-linejoin:miter;stroke-miterlimit:4;stroke-dasharray:none;stroke-dashoffset:0;stroke-opacity:1;color-rendering:auto;image-rendering:auto;shape-rendering:auto;text-rendering:auto;enable-background:accumulate"
       d="m 707.51854,325.54024 -0.16903,25.41267 c 0,0 55.333,0.36989 111.14518,0.73808 55.81324,0.36819 110.56819,0.73493 114.11357,0.73493 v -25.41583 c -0.30561,0 -58.1357,-0.3668 -113.94764,-0.73499 -55.81186,-0.36811 -111.14208,-0.73486 -111.14208,-0.73486 z"
       id="path1039-4-5-6"
       inkscape:connector-curvature="0" />
    <path
       style="color:#000000;font-style:normal;font-variant:normal;font-weight:normal;font-stretch:normal;font-size:medium;line-height:normal;font-family:sans-serif;font-variant-ligatures:normal;font-variant-position:normal;font-variant-caps:normal;font-variant-numeric:normal;font-variant-alternates:normal;font-feature-settings:normal;text-indent:0;text-align:start;text-decoration:none;text-decoration-line:none;text-decoration-style:solid;text-decoration-color:#000000;letter-spacing:normal;word-spacing:normal;text-transform:none;writing-mode:lr-tb;direction:ltr;text-orientation:mixed;dominant-baseline:auto;baseline-shift:baseline;text-anchor:start;white-space:normal;shape-padding:0;clip-rule:nonzero;display:inline;overflow:visible;visibility:visible;opacity:1;isolation:auto;mix-blend-mode:normal;color-interpolation:sRGB;color-interpolation-filters:linearRGB;solid-color:#000000;solid-opacity:1;vector-effect:none;fill:#000000;fill-opacity:1;fill-rule:nonzero;stroke:none;stroke-width:25.41542435;stroke-linecap:butt;stroke-linejoin:miter;stroke-miterlimit:4;stroke-dasharray:none;stroke-dashoffset:0;stroke-opacity:1;color-rendering:auto;image-rendering:auto;shape-rendering:auto;text-rendering:auto;enable-background:accumulate"
       d="m 980.94121,326.8412 -0.16904,25.41268 c 0,0 55.33293,0.3699 111.14563,0.73809 55.8128,0.36818 110.5681,0.73487 114.1135,0.73487 v -25.41577 c -0.306,0 -58.1356,-0.36681 -113.9482,-0.73501 -55.8112,-0.36808 -111.14189,-0.73486 -111.14189,-0.73486 z"
       id="path1039-4-5-6-9"
       inkscape:connector-curvature="0" />
    <path
       style="color:#000000;font-style:normal;font-variant:normal;font-weight:normal;font-stretch:normal;font-size:medium;line-height:normal;font-family:sans-serif;font-variant-ligatures:normal;font-variant-position:normal;font-variant-caps:normal;font-variant-numeric:normal;font-variant-alternates:normal;font-feature-settings:normal;text-indent:0;text-align:start;text-decoration:none;text-decoration-line:none;text-decoration-style:solid;text-decoration-color:#000000;letter-spacing:normal;word-spacing:normal;text-transform:none;writing-mode:lr-tb;direction:ltr;text-orientation:mixed;dominant-baseline:auto;baseline-shift:baseline;text-anchor:start;white-space:normal;shape-padding:0;clip-rule:nonzero;display:inline;overflow:visible;visibility:visible;opacity:1;isolation:auto;mix-blend-mode:normal;color-interpolation:sRGB;color-interpolation-filters:linearRGB;solid-color:#000000;solid-opacity:1;vector-effect:none;fill:#000000;fill-opacity:1;fill-rule:nonzero;stroke:none;stroke-width:20.33234024;stroke-linecap:butt;stroke-linejoin:miter;stroke-miterlimit:4;stroke-dasharray:none;stroke-dashoffset:0;stroke-opacity:1;color-rendering:auto;image-rendering:auto;shape-rendering:auto;text-rendering:auto;enable-background:accumulate"
       d="m 748.43618,416.24543 v 10.16693 c 0,46.03928 31.64184,72.13577 63.20041,71.74103 31.55904,-0.39474 62.33914,-27.27466 60.60169,-72.13505 l -0.37822,-9.77291 z m 21.09117,20.33391 H 851.545 c -2.49531,28.75 -21.24627,41.00668 -40.16139,41.24331 -18.90779,0.23647 -38.22158,-11.54427 -41.85626,-41.24331 z"
       id="path1479"
       inkscape:connector-curvature="0" />
    <path
       style="color:#000000;font-style:normal;font-variant:normal;font-weight:normal;font-stretch:normal;font-size:medium;line-height:normal;font-family:sans-serif;font-variant-ligatures:normal;font-variant-position:normal;font-variant-caps:normal;font-variant-numeric:normal;font-variant-alternates:normal;font-feature-settings:normal;text-indent:0;text-align:start;text-decoration:none;text-decoration-line:none;text-decoration-style:solid;text-decoration-color:#000000;letter-spacing:normal;word-spacing:normal;text-transform:none;writing-mode:lr-tb;direction:ltr;text-orientation:mixed;dominant-baseline:auto;baseline-shift:baseline;text-anchor:start;white-space:normal;shape-padding:0;clip-rule:nonzero;display:inline;overflow:visible;visibility:visible;opacity:1;isolation:auto;mix-blend-mode:normal;color-interpolation:sRGB;color-interpolation-filters:linearRGB;solid-color:#000000;solid-opacity:1;vector-effect:none;fill:#000000;fill-opacity:1;fill-rule:nonzero;stroke:none;stroke-width:20.33234024;stroke-linecap:butt;stroke-linejoin:miter;stroke-miterlimit:4;stroke-dasharray:none;stroke-dashoffset:0;stroke-opacity:1;color-rendering:auto;image-rendering:auto;shape-rendering:auto;text-rendering:auto;enable-background:accumulate"
       d="m 1034.9725,417.7465 v 10.16702 c 0,46.03928 31.6414,72.13577 63.2,71.74105 31.5589,-0.39486 62.3393,-27.27478 60.6014,-72.13508 l -0.3785,-9.77299 z m 21.0906,20.33396 h 82.0175 c -2.4955,28.74994 -21.2461,41.00664 -40.1613,41.24329 -18.9084,0.23651 -38.2218,-11.54371 -41.8562,-41.24329 z"
       id="path1479-5"
       inkscape:connector-curvature="0" />
  </g>
</svg>
