<?xml version="1.0" encoding="UTF-8" standalone="no"?>
<!-- Created with Inkscape (http://www.inkscape.org/) -->

<svg
   xmlns:dc="http://purl.org/dc/elements/1.1/"
   xmlns:cc="http://creativecommons.org/ns#"
   xmlns:rdf="http://www.w3.org/1999/02/22-rdf-syntax-ns#"
   xmlns:svg="http://www.w3.org/2000/svg"
   xmlns="http://www.w3.org/2000/svg"
   xmlns:sodipodi="http://sodipodi.sourceforge.net/DTD/sodipodi-0.dtd"
   xmlns:inkscape="http://www.inkscape.org/namespaces/inkscape"
   width="1000"
   height="1000"
   viewBox="0 0 1000 1000"
   version="1.1"
   id="svg9223"
   inkscape:version="0.92.4 (5da689c313, 2019-01-14)"
   sodipodi:docname="Ainda.svg">
  <defs
     id="defs9217" />
  <sodipodi:namedview
     id="base"
     pagecolor="#ffffff"
     bordercolor="#666666"
     borderopacity="1.0"
     inkscape:pageopacity="0.0"
     inkscape:pageshadow="2"
     inkscape:zoom="0.125"
     inkscape:cx="1061.5723"
     inkscape:cy="192.65314"
     inkscape:document-units="px"
     inkscape:current-layer="layer1"
     showgrid="false"
     units="px"
     inkscape:window-width="1366"
     inkscape:window-height="715"
     inkscape:window-x="-8"
     inkscape:window-y="-8"
     inkscape:window-maximized="1" />
  <metadata
     id="metadata9220">
    <rdf:RDF>
      <cc:Work
         rdf:about="">
        <dc:format>image/svg+xml</dc:format>
        <dc:type
           rdf:resource="http://purl.org/dc/dcmitype/StillImage" />
        <dc:title></dc:title>
      </cc:Work>
    </rdf:RDF>
  </metadata>
  <g
     inkscape:label="Camada 1"
     inkscape:groupmode="layer"
     id="layer1"
     transform="translate(0,-32.416659)">
    <path
       style="color:#000000;font-style:normal;font-variant:normal;font-weight:normal;font-stretch:normal;font-size:medium;line-height:normal;font-family:sans-serif;font-variant-ligatures:normal;font-variant-position:normal;font-variant-caps:normal;font-variant-numeric:normal;font-variant-alternates:normal;font-feature-settings:normal;text-indent:0;text-align:start;text-decoration:none;text-decoration-line:none;text-decoration-style:solid;text-decoration-color:#000000;letter-spacing:normal;word-spacing:normal;text-transform:none;writing-mode:lr-tb;direction:ltr;text-orientation:mixed;dominant-baseline:auto;baseline-shift:baseline;text-anchor:start;white-space:normal;shape-padding:0;clip-rule:nonzero;display:inline;overflow:visible;visibility:visible;opacity:1;isolation:auto;mix-blend-mode:normal;color-interpolation:sRGB;color-interpolation-filters:linearRGB;solid-color:#000000;solid-opacity:1;vector-effect:none;fill:#000000;fill-opacity:1;fill-rule:nonzero;stroke:none;stroke-width:15.83362389;stroke-linecap:butt;stroke-linejoin:miter;stroke-miterlimit:4;stroke-dasharray:none;stroke-dashoffset:0;stroke-opacity:1;color-rendering:auto;image-rendering:auto;shape-rendering:auto;text-rendering:auto;enable-background:accumulate"
       d="m 263.36133,549.28711 c -8.75709,0.0472 -18.29537,0.45631 -27.36719,0.91406 -18.14363,0.91551 -33.76953,2.2461 -33.76953,2.2461 l 0.67187,-0.0293 c -15.17171,0 -25.4696,7.22836 -30.83984,14.38867 -3.73082,4.97442 -5.12746,9.1248 -5.85547,11.7793 -0.19868,0.37056 -0.36693,0.73666 -0.56836,1.0664 -0.55605,0.91029 -1.01597,1.80792 -1.51172,2.83594 -0.99149,2.05605 -2.07249,4.58728 -3.26757,7.53516 -2.39018,5.89576 -5.19177,13.39392 -7.89063,20.82617 -5.39772,14.8645 -10.36523,29.43945 -10.36523,29.43945 l -0.0898,0.26172 -0.0703,0.26953 c -4.52172,17.11793 -8.67171,27.73284 -11.56055,33.89063 -1.30794,2.78798 -2.14163,4.28202 -2.77343,5.35156 -39.911128,8.06779 -57.939015,27.46965 -63.841801,45.64648 -4.638365,14.28322 -2.338208,27.16202 -0.97461,32.5254 -2.297814,7.07437 -1.902525,14.45813 -1.365234,20.98242 0.563043,6.83698 1.541669,11.97856 1.732422,12.96093 1.846202,30.95011 -2.539447,71.43016 -2.59375,71.92969 -4.206773,15.61994 -4.359542,43.16917 -4.115235,68.74024 0.249344,26.09817 1.41211,49.00586 1.41211,49.00586 v 0.0176 l 0.002,0.0195 c 1.10302,19.85438 -13.515625,39.57028 -13.515625,39.57028 l 12.476562,9.7481 c 0,0 18.384867,-22.5275 16.847657,-50.19728 -0.0031,-0.0607 -1.145261,-22.63279 -1.390625,-48.31445 -0.245694,-25.71624 0.936627,-55.5634 3.730468,-65.21485 l 0.189454,-0.65234 0.07617,-0.67383 c 0,0 4.725174,-41.77957 2.673828,-75.28516 l -0.0332,-0.53906 -0.107421,-0.5293 c 0,0 -1.069608,-5.37785 -1.605469,-11.88476 -0.535861,-6.50691 0.132908,-14.32108 1.017578,-16.2168 l 1.361328,-2.91797 -1.060547,-3.03906 c 0,0 -4.014569,-11.84998 0.302735,-25.14453 4.317304,-13.29456 16.278286,-28.81405 55.001954,-35.74023 l 2.7793,-0.4961 1.83789,-2.14453 c 0,0 2.88979,-3.57487 6.27148,-10.7832 3.35646,-7.15456 7.7501,-18.56747 12.42969,-36.20508 0.0557,-0.16351 4.90531,-14.38523 10.20312,-28.97461 2.66409,-7.3365 5.4308,-14.73112 7.68164,-20.2832 1.12543,-2.77605 2.13237,-5.10793 2.85547,-6.60743 0.16936,-0.3512 0.22877,-0.43921 0.35742,-0.68359 l 1.6211,-0.97266 0.6289,-3.55468 c 0,0 0.6889,-3.78702 3.73438,-7.84766 3.04548,-4.06064 7.60137,-8.05469 18.17187,-8.05469 h 0.33594 l 0.33399,-0.0273 c 0,0 15.39713,-1.30933 33.22656,-2.20899 17.82943,-0.89965 38.74561,-1.16869 46.64844,0.14844 l 2.27148,0.37891 2.12109,-0.89844 c 0,0 0.62883,-1.09584 3.84961,1.21094 3.22079,2.30678 9.71103,10.87367 12.24219,36.50195 l 0.1543,1.55469 0.73242,1.38086 c 0,0 10.20662,20.45358 10.2832,35.71289 -0.0223,0.1422 -0.49311,3.1175 -1.45508,4.44726 -0.4925,0.68083 -0.61674,0.85626 -1.58984,1.04493 -0.9731,0.18866 -3.3333,0.20329 -7.63281,-1.67774 l -9.21289,12.3711 c 0,0 2.57264,2.8269 5.24219,10.84765 2.66955,8.02076 4.94479,20.62351 2.53125,38.61524 l -1.22657,9.13867 9.21875,-0.16992 c 0,0 3.98378,0.006 7.89063,2.56054 3.90685,2.55448 8.21429,6.96545 7.39648,21.27735 l -0.0586,1.00976 0.19922,0.99414 c 0,0 2.42967,17.40325 -2.06641,26.07422 l -0.0586,0.11328 -0.0547,0.11524 c 0,0 -6.20301,12.65703 -3.96289,28.33789 l 0.29297,2.04297 1.25195,1.64062 c 0,0 1.99753,2.29029 2.67969,8.74805 0.68216,6.45776 -0.34369,16.53013 -9.55469,30.66797 l -1.5293,2.3457 0.28711,2.78711 c 0,0 4.18127,43.54073 -14.17382,81.125 l -0.20899,0.42773 -0.15625,0.45118 c -11.43124,32.92209 -19.83222,43.55387 -30.61133,58.08203 -0.001,0.002 -0.002,0.004 -0.004,0.006 -0.61408,0.74577 -14.82131,18.13831 -20.4375,39.58201 l 15.3164,4.0117 c 4.52892,-17.2922 17.62696,-33.89059 17.62696,-33.89059 L 281.14258,995 l 0.10156,-0.13672 c 10.64869,-14.35257 20.88104,-27.97119 32.72852,-61.97461 18.76035,-38.83777 16.2295,-79.3078 15.6289,-86.38672 9.56569,-15.6407 11.64004,-29.00142 10.62305,-38.6289 -0.74687,-7.07033 -2.85174,-11.37695 -4.32227,-13.95117 -1.11283,-10.01468 2.59961,-18.32227 2.59961,-18.32227 l -0.11328,0.22851 c 8.10341,-15.62793 4.14599,-33.7345 3.67774,-35.73046 0.63297,-17.60429 -6.51094,-28.91558 -14.54102,-34.16602 -2.87814,-1.88186 -5.6735,-2.91839 -8.26172,-3.67578 1.23158,-16.45607 -0.83646,-29.33386 -3.79297,-38.2168 -0.12438,-0.37372 -0.26871,-0.63607 -0.39648,-0.99804 5.0864,-0.98923 9.08527,-4.11173 11.39648,-7.30664 4.62548,-6.39403 4.4668,-13.29297 4.4668,-13.29297 l 0.006,-0.12891 v -0.12891 c 0,-19.72112 -9.63873,-38.56708 -11.45898,-41.9707 -2.86311,-26.70623 -9.77417,-39.92212 -18.58204,-46.23047 -5.95941,-4.26823 -12.21781,-4.10206 -15.93554,-3.54297 -5.83574,-0.87326 -13.30721,-1.19703 -21.60547,-1.15234 z m -84.21485,38.61914 c 0.0561,-0.0918 0.10249,0.0474 -0.21093,0.4043 0.0554,-0.10009 0.18419,-0.36051 0.21093,-0.4043 z"
       id="path9779"
       inkscape:connector-curvature="0" />
    <path
       style="color:#000000;font-style:normal;font-variant:normal;font-weight:normal;font-stretch:normal;font-size:medium;line-height:normal;font-family:sans-serif;font-variant-ligatures:normal;font-variant-position:normal;font-variant-caps:normal;font-variant-numeric:normal;font-variant-alternates:normal;font-feature-settings:normal;text-indent:0;text-align:start;text-decoration:none;text-decoration-line:none;text-decoration-style:solid;text-decoration-color:#000000;letter-spacing:normal;word-spacing:normal;text-transform:none;writing-mode:lr-tb;direction:ltr;text-orientation:mixed;dominant-baseline:auto;baseline-shift:baseline;text-anchor:start;white-space:normal;shape-padding:0;clip-rule:nonzero;display:inline;overflow:visible;visibility:visible;opacity:1;isolation:auto;mix-blend-mode:normal;color-interpolation:sRGB;color-interpolation-filters:linearRGB;solid-color:#000000;solid-opacity:1;vector-effect:none;fill:#000000;fill-opacity:1;fill-rule:nonzero;stroke:none;stroke-width:15.83362389;stroke-linecap:butt;stroke-linejoin:miter;stroke-miterlimit:4;stroke-dasharray:none;stroke-dashoffset:0;stroke-opacity:1;color-rendering:auto;image-rendering:auto;shape-rendering:auto;text-rendering:auto;enable-background:accumulate"
       d="m 274.16016,634.96094 c -3.21771,0.17813 -6.65987,0.64885 -10.31836,1.48242 l 0.47265,-0.0918 c 0,0 -27.60383,4.36748 -42.13281,9.20899 -0.002,7.4e-4 -0.006,0.001 -0.008,0.002 -0.0399,0.013 -32.09583,10.43684 -53.21485,22.4043 l 0.55664,-0.28516 c 0,0 -5.90235,2.75125 -13.65624,5.59961 -7.7539,2.84836 -17.49846,5.62391 -23.27344,5.875 l 0.6875,15.82031 c 9.40629,-0.40898 19.62744,-3.73991 28.04492,-6.83203 8.41748,-3.09212 14.89258,-6.11523 14.89258,-6.11523 l 0.2832,-0.13282 0.27148,-0.15234 C 195.23689,671.27708 227.1582,660.5918 227.1582,660.5918 l 0.0117,-0.004 0.0117,-0.004 c 11.2149,-3.73829 39.70508,-8.60937 39.70508,-8.60937 l 0.23828,-0.0391 0.23438,-0.0547 c 11.43823,-2.60616 18.09493,-0.61684 22.15624,1.51758 4.06132,2.13441 5.07422,3.96289 5.07422,3.96289 l 13.3086,-8.57617 c 0,0 -3.77349,-5.59626 -11.01563,-9.40235 -5.4316,-2.85457 -13.06953,-4.95628 -22.72265,-4.42187 z"
       id="path9781"
       inkscape:connector-curvature="0" />
    <path
       style="color:#000000;font-style:normal;font-variant:normal;font-weight:normal;font-stretch:normal;font-size:medium;line-height:normal;font-family:sans-serif;font-variant-ligatures:normal;font-variant-position:normal;font-variant-caps:normal;font-variant-numeric:normal;font-variant-alternates:normal;font-feature-settings:normal;text-indent:0;text-align:start;text-decoration:none;text-decoration-line:none;text-decoration-style:solid;text-decoration-color:#000000;letter-spacing:normal;word-spacing:normal;text-transform:none;writing-mode:lr-tb;direction:ltr;text-orientation:mixed;dominant-baseline:auto;baseline-shift:baseline;text-anchor:start;white-space:normal;shape-padding:0;clip-rule:nonzero;display:inline;overflow:visible;visibility:visible;opacity:1;isolation:auto;mix-blend-mode:normal;color-interpolation:sRGB;color-interpolation-filters:linearRGB;solid-color:#000000;solid-opacity:1;vector-effect:none;fill:#000000;fill-opacity:1;fill-rule:nonzero;stroke:none;stroke-width:15.83362389;stroke-linecap:butt;stroke-linejoin:miter;stroke-miterlimit:4;stroke-dasharray:none;stroke-dashoffset:0;stroke-opacity:1;color-rendering:auto;image-rendering:auto;shape-rendering:auto;text-rendering:auto;enable-background:accumulate"
       d="m 249.9043,601.49414 c -3.56097,0.19426 -7.41279,0.75366 -11.35157,1.90039 -15.75511,4.58694 -32.17019,20.2064 -34.64062,53.38086 l 15.78906,1.17578 c 2.14995,-28.87081 12.96022,-36.35174 23.27735,-39.35547 7.27819,-2.11897 13.28253,-1.31453 17.01171,-0.58593 5.59069,18.09058 17.76563,30.36132 17.76563,30.36132 l 11.33398,-11.05664 c 0,0 -11.73979,-12.46945 -15.09375,-27.84179 l -0.97656,-4.47071 -4.35937,-1.38672 c 0,0 -8.07297,-2.70386 -18.75586,-2.12109 z"
       id="path9783"
       inkscape:connector-curvature="0" />
    <path
       style="color:#000000;font-style:normal;font-variant:normal;font-weight:normal;font-stretch:normal;font-size:medium;line-height:normal;font-family:sans-serif;font-variant-ligatures:normal;font-variant-position:normal;font-variant-caps:normal;font-variant-numeric:normal;font-variant-alternates:normal;font-feature-settings:normal;text-indent:0;text-align:start;text-decoration:none;text-decoration-line:none;text-decoration-style:solid;text-decoration-color:#000000;letter-spacing:normal;word-spacing:normal;text-transform:none;writing-mode:lr-tb;direction:ltr;text-orientation:mixed;dominant-baseline:auto;baseline-shift:baseline;text-anchor:start;white-space:normal;shape-padding:0;clip-rule:nonzero;display:inline;overflow:visible;visibility:visible;opacity:1;isolation:auto;mix-blend-mode:normal;color-interpolation:sRGB;color-interpolation-filters:linearRGB;solid-color:#000000;solid-opacity:1;vector-effect:none;fill:#000000;fill-opacity:1;fill-rule:nonzero;stroke:none;stroke-width:15.83362389;stroke-linecap:butt;stroke-linejoin:miter;stroke-miterlimit:4;stroke-dasharray:none;stroke-dashoffset:0;stroke-opacity:1;color-rendering:auto;image-rendering:auto;shape-rendering:auto;text-rendering:auto;enable-background:accumulate"
       d="m 262.9668,593.40625 c -7.17805,8.67355 -4.53907,18.89648 -4.53907,18.89648 l 15.66797,-2.28515 c 0,0 0.3277,-5.6183 1.07032,-6.51563 z"
       id="path9785"
       inkscape:connector-curvature="0" />
    <path
       style="color:#000000;font-style:normal;font-variant:normal;font-weight:normal;font-stretch:normal;font-size:medium;line-height:normal;font-family:sans-serif;font-variant-ligatures:normal;font-variant-position:normal;font-variant-caps:normal;font-variant-numeric:normal;font-variant-alternates:normal;font-feature-settings:normal;text-indent:0;text-align:start;text-decoration:none;text-decoration-line:none;text-decoration-style:solid;text-decoration-color:#000000;letter-spacing:normal;word-spacing:normal;text-transform:none;writing-mode:lr-tb;direction:ltr;text-orientation:mixed;dominant-baseline:auto;baseline-shift:baseline;text-anchor:start;white-space:normal;shape-padding:0;clip-rule:nonzero;display:inline;overflow:visible;visibility:visible;opacity:1;isolation:auto;mix-blend-mode:normal;color-interpolation:sRGB;color-interpolation-filters:linearRGB;solid-color:#000000;solid-opacity:1;vector-effect:none;fill:#000000;fill-opacity:1;fill-rule:nonzero;stroke:none;stroke-width:15.83362389;stroke-linecap:butt;stroke-linejoin:miter;stroke-miterlimit:4;stroke-dasharray:none;stroke-dashoffset:0;stroke-opacity:1;color-rendering:auto;image-rendering:auto;shape-rendering:auto;text-rendering:auto;enable-background:accumulate"
       d="m 217.48047,599.27734 -11.67188,10.69922 c 0,0 7.77316,9.0946 10.08789,15.04688 l 14.75782,-5.73828 c -4.21939,-10.85002 -13.17383,-20.00782 -13.17383,-20.00782 z"
       id="path9787"
       inkscape:connector-curvature="0" />
    <path
       style="color:#000000;font-style:normal;font-variant:normal;font-weight:normal;font-stretch:normal;font-size:medium;line-height:normal;font-family:sans-serif;font-variant-ligatures:normal;font-variant-position:normal;font-variant-caps:normal;font-variant-numeric:normal;font-variant-alternates:normal;font-feature-settings:normal;text-indent:0;text-align:start;text-decoration:none;text-decoration-line:none;text-decoration-style:solid;text-decoration-color:#000000;letter-spacing:normal;word-spacing:normal;text-transform:none;writing-mode:lr-tb;direction:ltr;text-orientation:mixed;dominant-baseline:auto;baseline-shift:baseline;text-anchor:start;white-space:normal;shape-padding:0;clip-rule:nonzero;display:inline;overflow:visible;visibility:visible;opacity:1;isolation:auto;mix-blend-mode:normal;color-interpolation:sRGB;color-interpolation-filters:linearRGB;solid-color:#000000;solid-opacity:1;vector-effect:none;fill:#000000;fill-opacity:1;fill-rule:nonzero;stroke:none;stroke-width:15.83362389;stroke-linecap:butt;stroke-linejoin:miter;stroke-miterlimit:4;stroke-dasharray:none;stroke-dashoffset:0;stroke-opacity:1;color-rendering:auto;image-rendering:auto;shape-rendering:auto;text-rendering:auto;enable-background:accumulate"
       d="m 309.78711,598.46094 c -5.19915,2.27461 -8.13277,6.56878 -10.05469,11.14062 -1.92192,4.57185 -2.79125,9.76069 -2.30859,15.14063 0.48265,5.37993 2.42249,11.05367 6.53711,15.69922 4.11462,4.64554 10.3399,7.92963 17.85547,8.92968 l 2.08789,-15.69531 c -4.39633,-0.585 -6.58663,-2.03524 -8.08985,-3.73242 -1.50321,-1.69718 -2.3822,-3.97616 -2.61914,-6.61719 -0.23694,-2.64103 0.27386,-5.54192 1.13477,-7.58984 0.86091,-2.04792 2.11245,-2.90503 1.80273,-2.76953 z"
       id="path9789"
       inkscape:connector-curvature="0" />
    <path
       style="color:#000000;font-style:normal;font-variant:normal;font-weight:normal;font-stretch:normal;font-size:medium;line-height:normal;font-family:sans-serif;font-variant-ligatures:normal;font-variant-position:normal;font-variant-caps:normal;font-variant-numeric:normal;font-variant-alternates:normal;font-feature-settings:normal;text-indent:0;text-align:start;text-decoration:none;text-decoration-line:none;text-decoration-style:solid;text-decoration-color:#000000;letter-spacing:normal;word-spacing:normal;text-transform:none;writing-mode:lr-tb;direction:ltr;text-orientation:mixed;dominant-baseline:auto;baseline-shift:baseline;text-anchor:start;white-space:normal;shape-padding:0;clip-rule:nonzero;display:inline;overflow:visible;visibility:visible;opacity:1;isolation:auto;mix-blend-mode:normal;color-interpolation:sRGB;color-interpolation-filters:linearRGB;solid-color:#000000;solid-opacity:1;vector-effect:none;fill:#000000;fill-opacity:1;fill-rule:nonzero;stroke:none;stroke-width:15.83362389;stroke-linecap:butt;stroke-linejoin:miter;stroke-miterlimit:4;stroke-dasharray:none;stroke-dashoffset:0;stroke-opacity:1;color-rendering:auto;image-rendering:auto;shape-rendering:auto;text-rendering:auto;enable-background:accumulate"
       d="m 257.91406,694.77344 c -10.17943,-0.21164 -21.0708,0.12717 -32.01758,1.40429 l -0.30468,0.0352 -0.30274,0.0586 c 0,0 -8.43325,1.6492 -19.08398,2.25782 -10.65074,0.60862 -23.41617,-0.27449 -30.10156,-3.49024 l -6.86329,14.26953 c 11.75048,5.6521 26.05651,5.70225 37.86719,5.02735 11.27006,-0.64401 19.85344,-2.27981 20.66211,-2.43555 40.21171,-4.68226 81.29688,4.52734 81.29688,4.52734 l 3.51562,-15.43945 c 0,0 -24.12968,-5.57994 -54.66797,-6.21484 z"
       id="path9791"
       inkscape:connector-curvature="0" />
    <path
       style="color:#000000;font-style:normal;font-variant:normal;font-weight:normal;font-stretch:normal;font-size:medium;line-height:normal;font-family:sans-serif;font-variant-ligatures:normal;font-variant-position:normal;font-variant-caps:normal;font-variant-numeric:normal;font-variant-alternates:normal;font-feature-settings:normal;text-indent:0;text-align:start;text-decoration:none;text-decoration-line:none;text-decoration-style:solid;text-decoration-color:#000000;letter-spacing:normal;word-spacing:normal;text-transform:none;writing-mode:lr-tb;direction:ltr;text-orientation:mixed;dominant-baseline:auto;baseline-shift:baseline;text-anchor:start;white-space:normal;shape-padding:0;clip-rule:nonzero;display:inline;overflow:visible;visibility:visible;opacity:1;isolation:auto;mix-blend-mode:normal;color-interpolation:sRGB;color-interpolation-filters:linearRGB;solid-color:#000000;solid-opacity:1;vector-effect:none;fill:#000000;fill-opacity:1;fill-rule:nonzero;stroke:none;stroke-width:15.83362389;stroke-linecap:butt;stroke-linejoin:miter;stroke-miterlimit:4;stroke-dasharray:none;stroke-dashoffset:0;stroke-opacity:1;color-rendering:auto;image-rendering:auto;shape-rendering:auto;text-rendering:auto;enable-background:accumulate"
       d="m 184.08008,730.71875 -9.89258,12.36328 c 12.34602,9.87682 31.16577,14.23225 31.52344,14.31445 15.69194,4.57856 70.77929,21.39844 70.77929,21.39844 l 0.16211,0.0508 0.16602,0.043 c 17.7043,4.58416 29.20945,10.42523 36.18359,14.94727 6.97414,4.52204 8.94532,7.13867 8.94532,7.13867 l 12.29296,-9.97656 c 0,0 -4.19411,-4.98067 -12.625,-10.44727 -8.43088,-5.4666 -21.56933,-12.00357 -40.82812,-16.99023 l 0.32812,0.0918 c 0,0 -54.98846,-16.79507 -71.05273,-21.48046 l -0.0996,-0.0293 -0.10156,-0.0273 c 0,0 -18.44368,-5.52642 -25.78125,-11.39648 z"
       id="path9793"
       inkscape:connector-curvature="0" />
    <path
       style="color:#000000;font-style:normal;font-variant:normal;font-weight:normal;font-stretch:normal;font-size:medium;line-height:normal;font-family:sans-serif;font-variant-ligatures:normal;font-variant-position:normal;font-variant-caps:normal;font-variant-numeric:normal;font-variant-alternates:normal;font-feature-settings:normal;text-indent:0;text-align:start;text-decoration:none;text-decoration-line:none;text-decoration-style:solid;text-decoration-color:#000000;letter-spacing:normal;word-spacing:normal;text-transform:none;writing-mode:lr-tb;direction:ltr;text-orientation:mixed;dominant-baseline:auto;baseline-shift:baseline;text-anchor:start;white-space:normal;shape-padding:0;clip-rule:nonzero;display:inline;overflow:visible;visibility:visible;opacity:1;isolation:auto;mix-blend-mode:normal;color-interpolation:sRGB;color-interpolation-filters:linearRGB;solid-color:#000000;solid-opacity:1;vector-effect:none;fill:#000000;fill-opacity:1;fill-rule:nonzero;stroke:none;stroke-width:15.83362389;stroke-linecap:butt;stroke-linejoin:miter;stroke-miterlimit:4;stroke-dasharray:none;stroke-dashoffset:0;stroke-opacity:1;color-rendering:auto;image-rendering:auto;shape-rendering:auto;text-rendering:auto;enable-background:accumulate"
       d="m 226.89844,818.0918 -12.36328,9.89258 c 2.86133,3.57669 7.66201,12.67184 11.19531,20.38085 2.49142,5.43583 3.33415,7.64336 4.30469,10.02344 -1.36325,0.90852 -3.29317,1.9408 -5.36719,2.81055 -4.46506,1.87244 -8.8711,3.00976 -8.87109,3.00976 l -5.08985,1.29493 -0.78711,5.1914 c -1.22216,8.06632 0.6927,16.73431 2.46485,24.38477 1.77214,7.65046 3.76171,13.86328 3.76171,13.86328 l 1.17969,3.69336 3.63867,1.33203 c 29.46915,10.79394 48.62478,10.4642 60.97266,6.39844 6.17394,-2.03289 10.53194,-5.00515 13.3418,-7.63672 1.7945,-1.68064 2.87756,-3.1768 3.58789,-4.25586 3.67368,-3.81928 6.48364,-8.7003 9.61719,-14.5957 3.33855,-6.28112 6.68997,-13.48836 9.71093,-20.35938 6.04192,-13.74204 10.76563,-26.18164 10.76563,-26.18164 l -14.80274,-5.62305 c 0,0 -4.60856,12.12959 -10.45703,25.43164 -2.92423,6.65103 -6.15864,13.58396 -9.19726,19.30079 -3.03863,5.71682 -6.27515,10.39171 -7.34571,11.42773 l -0.93945,0.91016 -0.59766,1.16211 c 0,0 0.0896,0.0525 -1.16406,1.22656 -1.25362,1.17407 -3.49626,2.84564 -7.4707,4.15429 -7.55871,2.48885 -21.92396,3.53508 -46.77344,-4.95312 -0.63061,-2.09551 -1.27049,-3.98285 -2.40234,-8.86914 -1.13386,-4.89492 -1.76807,-9.94114 -2.02735,-13.89648 1.61294,-0.54849 3.13498,-1.02322 5.00782,-1.8086 2.88292,-1.20897 5.92938,-2.67557 8.78515,-4.6914 2.85577,-2.01584 5.95822,-4.58308 7.25977,-9.35547 l 0.69336,-2.54102 -0.9668,-2.45117 c 0,0 -2.71017,-6.85984 -6.4375,-14.99219 -3.72733,-8.13235 -8.16723,-17.35353 -13.22656,-23.67773 z"
       id="path9795"
       inkscape:connector-curvature="0" />
    <path
       style="color:#000000;font-style:normal;font-variant:normal;font-weight:normal;font-stretch:normal;font-size:medium;line-height:normal;font-family:sans-serif;font-variant-ligatures:normal;font-variant-position:normal;font-variant-caps:normal;font-variant-numeric:normal;font-variant-alternates:normal;font-feature-settings:normal;text-indent:0;text-align:start;text-decoration:none;text-decoration-line:none;text-decoration-style:solid;text-decoration-color:#000000;letter-spacing:normal;word-spacing:normal;text-transform:none;writing-mode:lr-tb;direction:ltr;text-orientation:mixed;dominant-baseline:auto;baseline-shift:baseline;text-anchor:start;white-space:normal;shape-padding:0;clip-rule:nonzero;display:inline;overflow:visible;visibility:visible;opacity:1;isolation:auto;mix-blend-mode:normal;color-interpolation:sRGB;color-interpolation-filters:linearRGB;solid-color:#000000;solid-opacity:1;vector-effect:none;fill:#000000;fill-opacity:1;fill-rule:nonzero;stroke:none;stroke-width:15.83362389;stroke-linecap:butt;stroke-linejoin:miter;stroke-miterlimit:4;stroke-dasharray:none;stroke-dashoffset:0;stroke-opacity:1;color-rendering:auto;image-rendering:auto;shape-rendering:auto;text-rendering:auto;enable-background:accumulate"
       d="m 280.86719,844.8457 c -11.29537,8.80155 -20.78449,10.31765 -27.62305,10.05078 -6.83856,-0.26686 -10.33203,-2.21679 -10.33203,-2.21679 l -7.42773,13.98242 c 0,0 7.0672,3.66151 17.14257,4.05469 10.07537,0.39317 23.85582,-2.38077 37.97266,-13.38086 z"
       id="path9797"
       inkscape:connector-curvature="0" />
    <path
       style="color:#000000;font-style:normal;font-variant:normal;font-weight:normal;font-stretch:normal;font-size:medium;line-height:normal;font-family:sans-serif;font-variant-ligatures:normal;font-variant-position:normal;font-variant-caps:normal;font-variant-numeric:normal;font-variant-alternates:normal;font-feature-settings:normal;text-indent:0;text-align:start;text-decoration:none;text-decoration-line:none;text-decoration-style:solid;text-decoration-color:#000000;letter-spacing:normal;word-spacing:normal;text-transform:none;writing-mode:lr-tb;direction:ltr;text-orientation:mixed;dominant-baseline:auto;baseline-shift:baseline;text-anchor:start;white-space:normal;shape-padding:0;clip-rule:nonzero;display:inline;overflow:visible;visibility:visible;opacity:1;isolation:auto;mix-blend-mode:normal;color-interpolation:sRGB;color-interpolation-filters:linearRGB;solid-color:#000000;solid-opacity:1;vector-effect:none;fill:#000000;fill-opacity:1;fill-rule:nonzero;stroke:none;stroke-width:15.83362389;stroke-linecap:butt;stroke-linejoin:miter;stroke-miterlimit:4;stroke-dasharray:none;stroke-dashoffset:0;stroke-opacity:1;color-rendering:auto;image-rendering:auto;shape-rendering:auto;text-rendering:auto;enable-background:accumulate"
       d="m 231.60742,857.42188 c -3.87115,13.065 2.86631,25.07367 9.05078,33.80468 6.18448,8.73102 13.02149,14.90039 13.02149,14.90039 l 10.64258,-11.72461 c 0,0 -5.7057,-5.21778 -10.74219,-12.32812 -5.03649,-7.11034 -8.20035,-15.39786 -6.79102,-20.1543 z"
       id="path9799"
       inkscape:connector-curvature="0" />
    <path
       style="color:#000000;font-style:normal;font-variant:normal;font-weight:normal;font-stretch:normal;font-size:medium;line-height:normal;font-family:sans-serif;font-variant-ligatures:normal;font-variant-position:normal;font-variant-caps:normal;font-variant-numeric:normal;font-variant-alternates:normal;font-feature-settings:normal;text-indent:0;text-align:start;text-decoration:none;text-decoration-line:none;text-decoration-style:solid;text-decoration-color:#000000;letter-spacing:normal;word-spacing:normal;text-transform:none;writing-mode:lr-tb;direction:ltr;text-orientation:mixed;dominant-baseline:auto;baseline-shift:baseline;text-anchor:start;white-space:normal;shape-padding:0;clip-rule:nonzero;display:inline;overflow:visible;visibility:visible;opacity:1;isolation:auto;mix-blend-mode:normal;color-interpolation:sRGB;color-interpolation-filters:linearRGB;solid-color:#000000;solid-opacity:1;vector-effect:none;fill:#000000;fill-opacity:1;fill-rule:nonzero;stroke:none;stroke-width:15.83362389;stroke-linecap:butt;stroke-linejoin:miter;stroke-miterlimit:4;stroke-dasharray:none;stroke-dashoffset:0;stroke-opacity:1;color-rendering:auto;image-rendering:auto;shape-rendering:auto;text-rendering:auto;enable-background:accumulate"
       d="m 167.44922,850.25 -3.0332,15.54102 c 0,0 10.02101,1.95684 21.39843,4.63867 11.37743,2.68182 24.82111,6.64529 28.22852,8.44922 l 7.4082,-13.99414 c -7.8135,-4.13656 -20.27936,-7.10354 -32.0039,-9.86719 C 177.72272,852.25393 167.44922,850.25 167.44922,850.25 Z"
       id="path9801"
       inkscape:connector-curvature="0" />
    <path
       style="color:#000000;font-style:normal;font-variant:normal;font-weight:normal;font-stretch:normal;font-size:medium;line-height:normal;font-family:sans-serif;font-variant-ligatures:normal;font-variant-position:normal;font-variant-caps:normal;font-variant-numeric:normal;font-variant-alternates:normal;font-feature-settings:normal;text-indent:0;text-align:start;text-decoration:none;text-decoration-line:none;text-decoration-style:solid;text-decoration-color:#000000;letter-spacing:normal;word-spacing:normal;text-transform:none;writing-mode:lr-tb;direction:ltr;text-orientation:mixed;dominant-baseline:auto;baseline-shift:baseline;text-anchor:start;white-space:normal;shape-padding:0;clip-rule:nonzero;display:inline;overflow:visible;visibility:visible;opacity:1;isolation:auto;mix-blend-mode:normal;color-interpolation:sRGB;color-interpolation-filters:linearRGB;solid-color:#000000;solid-opacity:1;vector-effect:none;fill:#000000;fill-opacity:1;fill-rule:nonzero;stroke:none;stroke-width:15.83362389;stroke-linecap:butt;stroke-linejoin:miter;stroke-miterlimit:4;stroke-dasharray:none;stroke-dashoffset:0;stroke-opacity:1;color-rendering:auto;image-rendering:auto;shape-rendering:auto;text-rendering:auto;enable-background:accumulate"
       d="m 228.26367,900.07422 -9.15234,12.92187 c 0,0 1.02673,0.65453 3.32617,3.33008 2.29944,2.67556 5.41931,7.0437 8.26367,13.58203 5.68872,13.07666 10.38107,34.93144 4.32813,69.65625 l 15.59961,2.71875 c 6.48812,-37.22134 1.60916,-62.56058 -5.40821,-78.6914 -3.50868,-8.06542 -7.52623,-13.80532 -10.77539,-17.58594 -3.24916,-3.78062 -6.18164,-5.93164 -6.18164,-5.93164 z"
       id="path9803"
       inkscape:connector-curvature="0" />
    <path
       style="color:#000000;font-style:normal;font-variant:normal;font-weight:normal;font-stretch:normal;font-size:medium;line-height:normal;font-family:sans-serif;font-variant-ligatures:normal;font-variant-position:normal;font-variant-caps:normal;font-variant-numeric:normal;font-variant-alternates:normal;font-feature-settings:normal;text-indent:0;text-align:start;text-decoration:none;text-decoration-line:none;text-decoration-style:solid;text-decoration-color:#000000;letter-spacing:normal;word-spacing:normal;text-transform:none;writing-mode:lr-tb;direction:ltr;text-orientation:mixed;dominant-baseline:auto;baseline-shift:baseline;text-anchor:start;white-space:normal;shape-padding:0;clip-rule:nonzero;display:inline;overflow:visible;visibility:visible;opacity:1;isolation:auto;mix-blend-mode:normal;color-interpolation:sRGB;color-interpolation-filters:linearRGB;solid-color:#000000;solid-opacity:1;vector-effect:none;fill:#000000;fill-opacity:1;fill-rule:nonzero;stroke:none;stroke-width:15.83362389;stroke-linecap:butt;stroke-linejoin:miter;stroke-miterlimit:4;stroke-dasharray:none;stroke-dashoffset:0;stroke-opacity:1;color-rendering:auto;image-rendering:auto;shape-rendering:auto;text-rendering:auto;enable-background:accumulate"
       d="m 134.55469,730.97266 c -24.90791,1.11526 -38.654813,16.25226 -44.207034,30.13281 -5.55222,13.88055 -4.591797,27.12109 -4.591797,27.12109 l 15.800781,-1.00195 c 0,0 -0.5264,-10.19181 3.49219,-20.23828 4.01859,-10.04647 10.89895,-19.33239 30.21484,-20.19727 z"
       id="path9805"
       inkscape:connector-curvature="0" />
    <path
       style="color:#000000;font-style:normal;font-variant:normal;font-weight:normal;font-stretch:normal;font-size:medium;line-height:normal;font-family:sans-serif;font-variant-ligatures:normal;font-variant-position:normal;font-variant-caps:normal;font-variant-numeric:normal;font-variant-alternates:normal;font-feature-settings:normal;text-indent:0;text-align:start;text-decoration:none;text-decoration-line:none;text-decoration-style:solid;text-decoration-color:#000000;letter-spacing:normal;word-spacing:normal;text-transform:none;writing-mode:lr-tb;direction:ltr;text-orientation:mixed;dominant-baseline:auto;baseline-shift:baseline;text-anchor:start;white-space:normal;shape-padding:0;clip-rule:nonzero;display:inline;overflow:visible;visibility:visible;opacity:1;isolation:auto;mix-blend-mode:normal;color-interpolation:sRGB;color-interpolation-filters:linearRGB;solid-color:#000000;solid-opacity:1;vector-effect:none;fill:#000000;fill-opacity:1;fill-rule:nonzero;stroke:none;stroke-width:15.83362389;stroke-linecap:butt;stroke-linejoin:miter;stroke-miterlimit:4;stroke-dasharray:none;stroke-dashoffset:0;stroke-opacity:1;color-rendering:auto;image-rendering:auto;shape-rendering:auto;text-rendering:auto;enable-background:accumulate"
       d="m 119.83594,709.93555 c -25.221172,3.90751 -39.916912,15.41228 -47.582034,26.27929 -7.665121,10.86701 -8.601562,21.51172 -8.601562,21.51172 l 15.783203,1.25196 c 0,0 0.384859,-6.02214 5.755859,-13.63672 5.371001,-7.61459 15.425494,-16.40664 37.068364,-19.75977 z"
       id="path9807"
       inkscape:connector-curvature="0" />
    <path
       style="color:#000000;font-style:normal;font-variant:normal;font-weight:normal;font-stretch:normal;font-size:medium;line-height:normal;font-family:sans-serif;font-variant-ligatures:normal;font-variant-position:normal;font-variant-caps:normal;font-variant-numeric:normal;font-variant-alternates:normal;font-feature-settings:normal;text-indent:0;text-align:start;text-decoration:none;text-decoration-line:none;text-decoration-style:solid;text-decoration-color:#000000;letter-spacing:normal;word-spacing:normal;text-transform:none;writing-mode:lr-tb;direction:ltr;text-orientation:mixed;dominant-baseline:auto;baseline-shift:baseline;text-anchor:start;white-space:normal;shape-padding:0;clip-rule:nonzero;display:inline;overflow:visible;visibility:visible;opacity:1;isolation:auto;mix-blend-mode:normal;color-interpolation:sRGB;color-interpolation-filters:linearRGB;solid-color:#000000;solid-opacity:1;vector-effect:none;fill:#000000;fill-opacity:1;fill-rule:nonzero;stroke:none;stroke-width:25.47543716;stroke-linecap:butt;stroke-linejoin:miter;stroke-miterlimit:4;stroke-dasharray:none;stroke-dashoffset:0;stroke-opacity:1;color-rendering:auto;image-rendering:auto;shape-rendering:auto;text-rendering:auto;enable-background:accumulate"
       d="M 248.40092,32.623322 C 150.24542,32.603022 82.807885,72.015762 44.020925,130.97568 5.2265037,189.94694 -5.5926244,266.94922 2.8862271,343.17118 c 8.4788509,76.22195 36.2965369,151.9983 77.3681409,209.54615 19.935092,27.93227 43.221442,51.75122 69.101292,68.82649 l 4.96743,-14.34461 168.8784,1.37936 4.55331,13.13952 c 26.38996,-17.3635 50.06712,-41.74745 70.3019,-70.36434 40.82892,-57.74211 68.59868,-133.4902 77.82006,-209.52281 9.22141,-76.03264 -0.0189,-152.62407 -35.84382,-211.36175 C 404.21507,71.743542 340.74776,32.299782 248.45546,32.623322 Z m 0.0399,25.4725 h 0.0318 0.0238 c 85.2537,-0.31385 138.13332,33.73134 169.79067,85.635588 31.65734,51.90426 41.02234,123.10642 32.29838,195.03722 -8.72391,71.93077 -35.44609,144.31269 -73.32398,197.88133 -17.43763,24.66102 -37.03797,45.17022 -58.18148,60.15391 0.17355,4.33521 0.55931,3.7272 4.12123,11.7747 l -168.87841,-1.37936 3.96504,-10.39768 C 137.49717,582.0761 118.18756,562.01445 100.99153,537.92009 62.932534,484.59659 36.205092,412.29533 28.202883,340.3582 20.200674,268.42113 30.963943,197.18602 65.309045,144.97816 99.654144,92.770282 156.89265,58.062822 248.43986,58.095822 Z"
       id="path10-9-9-0-3-4-7"
       inkscape:connector-curvature="0"
       sodipodi:nodetypes="csssccccssccccccssscccccsscc" />
    <path
       style="color:#000000;font-style:normal;font-variant:normal;font-weight:normal;font-stretch:normal;font-size:medium;line-height:normal;font-family:sans-serif;font-variant-ligatures:normal;font-variant-position:normal;font-variant-caps:normal;font-variant-numeric:normal;font-variant-alternates:normal;font-feature-settings:normal;text-indent:0;text-align:start;text-decoration:none;text-decoration-line:none;text-decoration-style:solid;text-decoration-color:#000000;letter-spacing:normal;word-spacing:normal;text-transform:none;writing-mode:lr-tb;direction:ltr;text-orientation:mixed;dominant-baseline:auto;baseline-shift:baseline;text-anchor:start;white-space:normal;shape-padding:0;clip-rule:nonzero;display:inline;overflow:visible;visibility:visible;opacity:1;isolation:auto;mix-blend-mode:normal;color-interpolation:sRGB;color-interpolation-filters:linearRGB;solid-color:#000000;solid-opacity:1;vector-effect:none;fill:#000000;fill-opacity:1;fill-rule:nonzero;stroke:none;stroke-width:13.32086658;stroke-linecap:butt;stroke-linejoin:miter;stroke-miterlimit:4;stroke-dasharray:none;stroke-dashoffset:0;stroke-opacity:1;color-rendering:auto;image-rendering:auto;shape-rendering:auto;text-rendering:auto;enable-background:accumulate"
       d="m 241.52148,474.54883 c -31.78631,0.12562 -63.22347,15.16579 -94.4082,43.09375 l -12.89844,11.55273 17.31446,0.0684 195.73632,0.79102 -12.08984,-11.54492 C 304.58613,489.3007 273.30779,474.4232 241.52148,474.54883 Z m 0.0527,13.32226 c 23.39245,-0.0924 46.92591,9.13712 71.17187,28.72266 l -142.67578,-0.57617 c 24.57473,-18.70865 48.28289,-28.05471 71.50391,-28.14649 z"
       id="path29-3-1-9-3"
       inkscape:connector-curvature="0" />
    <path
       style="color:#000000;font-style:normal;font-variant:normal;font-weight:normal;font-stretch:normal;font-size:medium;line-height:normal;font-family:sans-serif;font-variant-ligatures:normal;font-variant-position:normal;font-variant-caps:normal;font-variant-numeric:normal;font-variant-alternates:normal;font-feature-settings:normal;text-indent:0;text-align:start;text-decoration:none;text-decoration-line:none;text-decoration-style:solid;text-decoration-color:#000000;letter-spacing:normal;word-spacing:normal;text-transform:none;writing-mode:lr-tb;direction:ltr;text-orientation:mixed;dominant-baseline:auto;baseline-shift:baseline;text-anchor:start;white-space:normal;shape-padding:0;clip-rule:nonzero;display:inline;overflow:visible;visibility:visible;opacity:1;isolation:auto;mix-blend-mode:normal;color-interpolation:sRGB;color-interpolation-filters:linearRGB;solid-color:#000000;solid-opacity:1;vector-effect:none;fill:#000000;fill-opacity:1;fill-rule:nonzero;stroke:none;stroke-width:13.32086658;stroke-linecap:butt;stroke-linejoin:miter;stroke-miterlimit:4;stroke-dasharray:none;stroke-dashoffset:0;stroke-opacity:1;color-rendering:auto;image-rendering:auto;shape-rendering:auto;text-rendering:auto;enable-background:accumulate"
       d="m 151.19336,202.21875 c -24.89292,0.23505 -49.74996,12.05455 -81.416016,34.70898 l 7.75,10.83399 c 30.755436,-22.00297 53.063146,-32.02694 73.791016,-32.22266 20.72787,-0.19572 41.32686,9.3375 68.98437,29.49805 l 7.84766,-10.76563 C 199.5642,213.43399 176.08627,201.9837 151.19336,202.21875 Z"
       id="path59-17-2-4-5"
       inkscape:connector-curvature="0" />
    <path
       style="color:#000000;font-style:normal;font-variant:normal;font-weight:normal;font-stretch:normal;font-size:medium;line-height:normal;font-family:sans-serif;font-variant-ligatures:normal;font-variant-position:normal;font-variant-caps:normal;font-variant-numeric:normal;font-variant-alternates:normal;font-feature-settings:normal;text-indent:0;text-align:start;text-decoration:none;text-decoration-line:none;text-decoration-style:solid;text-decoration-color:#000000;letter-spacing:normal;word-spacing:normal;text-transform:none;writing-mode:lr-tb;direction:ltr;text-orientation:mixed;dominant-baseline:auto;baseline-shift:baseline;text-anchor:start;white-space:normal;shape-padding:0;clip-rule:nonzero;display:inline;overflow:visible;visibility:visible;opacity:1;isolation:auto;mix-blend-mode:normal;color-interpolation:sRGB;color-interpolation-filters:linearRGB;solid-color:#000000;solid-opacity:1;vector-effect:none;fill:#000000;fill-opacity:1;fill-rule:nonzero;stroke:none;stroke-width:13.32086658;stroke-linecap:butt;stroke-linejoin:miter;stroke-miterlimit:4;stroke-dasharray:none;stroke-dashoffset:0;stroke-opacity:1;color-rendering:auto;image-rendering:auto;shape-rendering:auto;text-rendering:auto;enable-background:accumulate"
       d="m 232.88086,347.4375 c 0,0 -1.50301,14.82806 -3.98828,30.40234 -1.24264,7.78714 -2.73913,15.76126 -4.34766,21.95704 -0.80426,3.09788 -1.64786,5.75737 -2.40234,7.59179 -0.75448,1.83442 -1.72718,2.79414 -1.02735,2.21094 -1.47404,1.22836 -3.03497,2.25327 -3.85156,5.51953 -0.40829,1.63313 -0.17533,4.06672 0.86719,5.76563 1.04251,1.6989 2.39889,2.5294 3.42383,3.01171 4.09976,1.92928 6.20465,1.18835 8.99219,0.9961 5.57506,-0.3845 11.61132,-1.62696 11.61132,-1.62696 l -2.61132,-13.0625 c 0,0 -2.84774,0.36171 -4.57032,0.64454 0.88328,-2.36827 1.71927,-4.83883 2.46289,-7.70313 1.79757,-6.92393 3.32703,-15.18325 4.60743,-23.20703 2.56079,-16.04756 4.08593,-31.16016 4.08593,-31.16016 z"
       id="path971-9-5-8-6"
       inkscape:connector-curvature="0" />
    <path
       style="color:#000000;font-style:normal;font-variant:normal;font-weight:normal;font-stretch:normal;font-size:medium;line-height:normal;font-family:sans-serif;font-variant-ligatures:normal;font-variant-position:normal;font-variant-caps:normal;font-variant-numeric:normal;font-variant-alternates:normal;font-feature-settings:normal;text-indent:0;text-align:start;text-decoration:none;text-decoration-line:none;text-decoration-style:solid;text-decoration-color:#000000;letter-spacing:normal;word-spacing:normal;text-transform:none;writing-mode:lr-tb;direction:ltr;text-orientation:mixed;dominant-baseline:auto;baseline-shift:baseline;text-anchor:start;white-space:normal;shape-padding:0;clip-rule:nonzero;display:inline;overflow:visible;visibility:visible;opacity:1;isolation:auto;mix-blend-mode:normal;color-interpolation:sRGB;color-interpolation-filters:linearRGB;solid-color:#000000;solid-opacity:1;vector-effect:none;fill:#000000;fill-opacity:1;fill-rule:nonzero;stroke:none;stroke-width:13.32086658;stroke-linecap:butt;stroke-linejoin:miter;stroke-miterlimit:4;stroke-dasharray:none;stroke-dashoffset:0;stroke-opacity:1;color-rendering:auto;image-rendering:auto;shape-rendering:auto;text-rendering:auto;enable-background:accumulate"
       d="m 324.83984,202.19336 c -25.01019,0.45888 -47.94224,13.16564 -75.64843,33.83008 l 7.96289,10.67773 c 26.96323,-20.11031 47.3191,-30.81129 67.92968,-31.18945 20.61059,-0.37816 43.11735,9.4639 74.5879,33.80859 l 8.15039,-10.53515 c -32.52541,-25.1607 -57.97224,-37.05068 -82.98243,-36.5918 z"
       id="path59-17-5-5-9-3"
       inkscape:connector-curvature="0" />
    <path
       style="color:#000000;font-style:normal;font-variant:normal;font-weight:normal;font-stretch:normal;font-size:medium;line-height:normal;font-family:sans-serif;font-variant-ligatures:normal;font-variant-position:normal;font-variant-caps:normal;font-variant-numeric:normal;font-variant-alternates:normal;font-feature-settings:normal;text-indent:0;text-align:start;text-decoration:none;text-decoration-line:none;text-decoration-style:solid;text-decoration-color:#000000;letter-spacing:normal;word-spacing:normal;text-transform:none;writing-mode:lr-tb;direction:ltr;text-orientation:mixed;dominant-baseline:auto;baseline-shift:baseline;text-anchor:start;white-space:normal;shape-padding:0;clip-rule:nonzero;display:inline;overflow:visible;visibility:visible;opacity:1;isolation:auto;mix-blend-mode:normal;color-interpolation:sRGB;color-interpolation-filters:linearRGB;solid-color:#000000;solid-opacity:1;vector-effect:none;fill:#000000;fill-opacity:1;fill-rule:nonzero;stroke:none;stroke-width:13.32086658;stroke-linecap:butt;stroke-linejoin:miter;stroke-miterlimit:4;stroke-dasharray:none;stroke-dashoffset:0;stroke-opacity:1;color-rendering:auto;image-rendering:auto;shape-rendering:auto;text-rendering:auto;enable-background:accumulate"
       d="m 148.3125,244.16797 c -13.23662,0.1186 -23.93817,5.44 -30.83008,13.40039 -6.90545,7.97604 -10.11837,18.26989 -10.02539,28.40625 0.093,10.13636 3.48677,20.30655 10.47656,28.04101 6.97734,7.72067 17.69169,12.6648 30.66016,12.24805 12.67819,-0.0456 22.99111,-5.43734 29.54297,-13.38867 6.57973,-7.98516 9.60445,-18.2113 9.53906,-28.29492 -0.0654,-10.08362 -3.21638,-20.2158 -9.86719,-28.00391 -6.62895,-7.76251 -16.99025,-12.83246 -29.49609,-12.4082 z m 0.36914,13.30859 c 8.93254,-0.3286 14.759,2.78836 18.99609,7.75 4.2371,4.96165 6.63033,12.12806 6.67774,19.43946 0.0474,7.3114 -2.24628,14.57833 -6.49805,19.73828 -4.25177,5.15995 -10.2292,8.54492 -19.42187,8.54492 h -0.11133 l -0.11133,0.004 c -9.56108,0.3212 -15.90507,-2.90138 -20.39453,-7.86914 -4.48946,-4.96775 -6.9749,-12.02491 -7.04102,-19.23242 -0.0661,-7.20751 2.28113,-14.37342 6.77539,-19.56445 4.49427,-5.19103 11.00712,-8.73314 20.93165,-8.80664 h 0.0996 z"
       id="path87-11-8-6"
       inkscape:connector-curvature="0" />
    <path
       style="color:#000000;font-style:normal;font-variant:normal;font-weight:normal;font-stretch:normal;font-size:medium;line-height:normal;font-family:sans-serif;font-variant-ligatures:normal;font-variant-position:normal;font-variant-caps:normal;font-variant-numeric:normal;font-variant-alternates:normal;font-feature-settings:normal;text-indent:0;text-align:start;text-decoration:none;text-decoration-line:none;text-decoration-style:solid;text-decoration-color:#000000;letter-spacing:normal;word-spacing:normal;text-transform:none;writing-mode:lr-tb;direction:ltr;text-orientation:mixed;dominant-baseline:auto;baseline-shift:baseline;text-anchor:start;white-space:normal;shape-padding:0;clip-rule:nonzero;display:inline;overflow:visible;visibility:visible;opacity:1;isolation:auto;mix-blend-mode:normal;color-interpolation:sRGB;color-interpolation-filters:linearRGB;solid-color:#000000;solid-opacity:1;vector-effect:none;fill:#000000;fill-opacity:1;fill-rule:nonzero;stroke:none;stroke-width:13.32086658;stroke-linecap:butt;stroke-linejoin:miter;stroke-miterlimit:4;stroke-dasharray:none;stroke-dashoffset:0;stroke-opacity:1;color-rendering:auto;image-rendering:auto;shape-rendering:auto;text-rendering:auto;enable-background:accumulate"
       d="m 327.52734,244.16797 c -12.50587,-0.42428 -22.86713,4.64568 -29.49609,12.4082 -6.65081,7.78811 -9.8018,17.92028 -9.86719,28.00391 -0.0654,10.08362 2.95738,20.30977 9.53711,28.29492 6.55187,7.95133 16.86478,13.34308 29.54297,13.38867 12.96938,0.41735 23.68246,-4.52698 30.66016,-12.24805 6.9898,-7.73445 10.38357,-17.90464 10.47656,-28.04101 0.093,-10.13637 -3.11994,-20.43021 -10.02539,-28.40625 -6.8919,-7.9604 -17.5915,-13.28179 -30.82813,-13.40039 z m -0.36914,13.30859 0.0977,0.004 h 0.0977 c 9.92453,0.0735 16.43737,3.6156 20.93164,8.80664 4.49426,5.19104 6.8415,12.35694 6.77539,19.56445 -0.0661,7.20751 -2.5496,14.26468 -7.03907,19.23242 -4.48946,4.96775 -10.83347,8.19035 -20.39453,7.86914 l -0.11133,-0.004 h -0.11328 c -9.19267,0 -15.16814,-3.38497 -19.41992,-8.54492 -4.25178,-5.15995 -6.54545,-12.42689 -6.49804,-19.73828 0.0474,-7.3114 2.43868,-14.47781 6.67578,-19.43946 4.23709,-4.96164 10.06549,-8.0786 18.99804,-7.75 z"
       id="path87-1-3-3-7"
       inkscape:connector-curvature="0" />
  </g>
</svg>
