<?xml version="1.0" encoding="UTF-8" standalone="no"?>
<!-- Created with Inkscape (http://www.inkscape.org/) -->

<svg
   xmlns:dc="http://purl.org/dc/elements/1.1/"
   xmlns:cc="http://creativecommons.org/ns#"
   xmlns:rdf="http://www.w3.org/1999/02/22-rdf-syntax-ns#"
   xmlns:svg="http://www.w3.org/2000/svg"
   xmlns="http://www.w3.org/2000/svg"
   xmlns:sodipodi="http://sodipodi.sourceforge.net/DTD/sodipodi-0.dtd"
   xmlns:inkscape="http://www.inkscape.org/namespaces/inkscape"
   width="1000"
   height="1000"
   viewBox="0 0 1000 1000"
   version="1.1"
   id="svg8"
   sodipodi:docname="Aqui.svg"
   inkscape:version="0.92.4 (5da689c313, 2019-01-14)">
  <defs
     id="defs2" />
  <sodipodi:namedview
     id="base"
     pagecolor="#ffffff"
     bordercolor="#666666"
     borderopacity="1.0"
     inkscape:pageopacity="0.0"
     inkscape:pageshadow="2"
     inkscape:zoom="5.6568543"
     inkscape:cx="387.32821"
     inkscape:cy="1009.9104"
     inkscape:document-units="px"
     inkscape:current-layer="layer1"
     showgrid="false"
     units="px"
     inkscape:window-width="1366"
     inkscape:window-height="715"
     inkscape:window-x="-8"
     inkscape:window-y="-8"
     inkscape:window-maximized="1" />
  <metadata
     id="metadata5">
    <rdf:RDF>
      <cc:Work
         rdf:about="">
        <dc:format>image/svg+xml</dc:format>
        <dc:type
           rdf:resource="http://purl.org/dc/dcmitype/StillImage" />
        <dc:title></dc:title>
      </cc:Work>
    </rdf:RDF>
  </metadata>
  <g
     inkscape:label="Camada 1"
     inkscape:groupmode="layer"
     id="layer1"
     transform="translate(0,-32.416659)">
    <path
       style="color:#000000;font-style:normal;font-variant:normal;font-weight:normal;font-stretch:normal;font-size:medium;line-height:normal;font-family:sans-serif;font-variant-ligatures:normal;font-variant-position:normal;font-variant-caps:normal;font-variant-numeric:normal;font-variant-alternates:normal;font-feature-settings:normal;text-indent:0;text-align:start;text-decoration:none;text-decoration-line:none;text-decoration-style:solid;text-decoration-color:#000000;letter-spacing:normal;word-spacing:normal;text-transform:none;writing-mode:lr-tb;direction:ltr;text-orientation:mixed;dominant-baseline:auto;baseline-shift:baseline;text-anchor:start;white-space:normal;shape-padding:0;clip-rule:nonzero;display:inline;overflow:visible;visibility:visible;opacity:1;isolation:auto;mix-blend-mode:normal;color-interpolation:sRGB;color-interpolation-filters:linearRGB;solid-color:#000000;solid-opacity:1;vector-effect:none;fill:#000000;fill-opacity:1;fill-rule:nonzero;stroke:none;stroke-width:24.33374405;stroke-linecap:butt;stroke-linejoin:miter;stroke-miterlimit:4;stroke-dasharray:none;stroke-dashoffset:0;stroke-opacity:1;color-rendering:auto;image-rendering:auto;shape-rendering:auto;text-rendering:auto;enable-background:accumulate"
       d="m 386.09843,32.621408 c -93.75671,-0.0194 -158.16683,37.63131 -195.21556,93.948962 -37.05583,56.32846 -47.39578,129.87549 -39.29693,202.6816 8.09887,72.80606 34.6725,145.18936 73.90345,200.15826 39.23096,54.96889 92.04976,93.2604 152.12621,92.90253 60.04818,-0.35756 112.43682,-39.05432 151.43603,-94.20872 38.99919,-55.1544 65.51833,-127.50335 74.3265,-200.12858 8.80812,-72.62525 -0.0152,-145.78955 -34.23548,-201.8949 C 534.92999,69.986618 474.30662,32.312318 386.15036,32.621408 Z m 0.0444,24.33514 h 0.0228 0.0228 c 81.43301,-0.29976 131.94378,32.21434 162.18237,81.792532 30.23863,49.57818 39.18419,117.58765 30.85124,186.29486 -8.33297,68.70724 -33.8564,137.84318 -70.03684,189.01116 -36.18044,51.16797 -82.10787,83.62695 -131.71704,83.9225 -49.58188,0.29536 -95.81962,-31.77152 -132.17079,-82.70539 -36.35118,-50.93383 -61.88118,-119.99358 -69.52476,-188.70686 -7.64358,-68.71325 2.63183,-136.75324 35.43774,-186.62141 32.8059,-49.868162 87.48804,-83.018972 174.93252,-82.987392 z"
       id="path10-9-5"
       inkscape:connector-curvature="0" />
    <path
       style="color:#000000;font-style:normal;font-variant:normal;font-weight:normal;font-stretch:normal;font-size:medium;line-height:normal;font-family:sans-serif;font-variant-ligatures:normal;font-variant-position:normal;font-variant-caps:normal;font-variant-numeric:normal;font-variant-alternates:normal;font-feature-settings:normal;text-indent:0;text-align:start;text-decoration:none;text-decoration-line:none;text-decoration-style:solid;text-decoration-color:#000000;letter-spacing:normal;word-spacing:normal;text-transform:none;writing-mode:lr-tb;direction:ltr;text-orientation:mixed;dominant-baseline:auto;baseline-shift:baseline;text-anchor:start;white-space:normal;shape-padding:0;clip-rule:nonzero;display:inline;overflow:visible;visibility:visible;opacity:1;isolation:auto;mix-blend-mode:normal;color-interpolation:sRGB;color-interpolation-filters:linearRGB;solid-color:#000000;solid-opacity:1;vector-effect:none;fill:#000000;fill-opacity:1;fill-rule:nonzero;stroke:none;stroke-width:12.16687202;stroke-linecap:butt;stroke-linejoin:miter;stroke-miterlimit:4;stroke-dasharray:none;stroke-dashoffset:0;stroke-opacity:1;color-rendering:auto;image-rendering:auto;shape-rendering:auto;text-rendering:auto;enable-background:accumulate"
       d="m 373.11076,325.68964 c 0,0 -1.37402,13.53871 -3.64397,27.76389 -1.13498,7.11257 -2.50135,14.39385 -3.97051,20.05292 -0.73458,2.82953 -1.50765,5.26358 -2.19677,6.93911 -0.68912,1.67553 -1.57431,2.55134 -0.93511,2.01865 -1.34634,1.12197 -2.77196,2.05593 -3.5178,5.0392 -0.37291,1.49165 -0.15811,3.71755 0.7941,5.26928 0.95219,1.55173 2.18831,2.30542 3.12446,2.74597 3.74459,1.76217 5.66957,1.08842 8.21562,0.91284 5.09209,-0.3511 10.60533,-1.48429 10.60537,-1.48429 L 379.1964,383.0134 c 0,0 -2.59814,0.33552 -4.17089,0.59372 0.8076,-2.16457 1.56893,-4.42458 2.24871,-7.043 1.64183,-6.32415 3.03853,-13.85972 4.208,-21.18841 2.33894,-14.65746 3.73301,-28.46154 3.73301,-28.46154 z"
       id="path971-8"
       inkscape:connector-curvature="0" />
    <path
       style="color:#000000;font-style:normal;font-variant:normal;font-weight:normal;font-stretch:normal;font-size:medium;line-height:normal;font-family:sans-serif;font-variant-ligatures:normal;font-variant-position:normal;font-variant-caps:normal;font-variant-numeric:normal;font-variant-alternates:normal;font-feature-settings:normal;text-indent:0;text-align:start;text-decoration:none;text-decoration-line:none;text-decoration-style:solid;text-decoration-color:#000000;letter-spacing:normal;word-spacing:normal;text-transform:none;writing-mode:lr-tb;direction:ltr;text-orientation:mixed;dominant-baseline:auto;baseline-shift:baseline;text-anchor:start;white-space:normal;shape-padding:0;clip-rule:nonzero;display:inline;overflow:visible;visibility:visible;opacity:1;isolation:auto;mix-blend-mode:normal;color-interpolation:sRGB;color-interpolation-filters:linearRGB;solid-color:#000000;solid-opacity:1;vector-effect:none;fill:#000000;fill-opacity:1;fill-rule:nonzero;stroke:none;stroke-width:10.93356609;stroke-linecap:butt;stroke-linejoin:miter;stroke-miterlimit:4;stroke-dasharray:none;stroke-dashoffset:0;stroke-opacity:1;color-rendering:auto;image-rendering:auto;shape-rendering:auto;text-rendering:auto;enable-background:accumulate"
       d="m 106.62641,617.8153 -0.43045,10.92447 c 16.18513,0.64103 40.62094,8.08996 60.5373,15.4887 19.91636,7.39873 35.47485,14.62039 35.47485,14.62039 l -0.60115,-0.334 c 12.78982,8.03935 27.83373,11.65548 29.04039,11.94123 20.34955,8.7982 29.78695,25.87294 34.36904,41.50109 2.29583,7.83043 3.29774,15.21256 3.71075,20.65409 0.20652,2.72074 0.26443,4.95367 0.27461,6.52352 0.005,0.78493 10e-4,1.4059 -0.008,1.84052 -0.009,0.43462 -0.0224,0.25497 -0.0224,0.92769 l 0.0445,-0.6902 c -2.26205,17.71918 0.67535,45.07087 0.67535,45.07087 v 0.008 l 0.008,0.0152 c 5.11036,49.05755 -2.76809,111.09958 -2.76809,111.09958 l 0.0224,-0.18543 c -3.65983,22.3249 -5.98174,77.52516 -5.98174,77.52516 l -0.008,0.17822 0.008,0.17821 c 0.3313,15.72979 -2.8539,27.12359 -7.34731,34.50259 -4.49339,7.3791 -10.10298,10.7576 -15.41448,11.3995 -5.3115,0.6419 -10.69256,-1.3306 -15.30317,-6.6051 -4.60311,-5.266 -8.25646,-13.9807 -8.74996,-26.35387 -7.7e-4,-0.16681 -0.20641,-44.82506 1.16518,-71.5731 l 0.008,-0.22267 v -0.21507 c 0,0 -0.24597,-8.24024 -0.7941,-18.01941 -0.53952,-9.62494 -1.32173,-20.43579 -2.65691,-27.33344 -0.003,-0.0266 0.0186,-0.0531 0.0148,-0.0817 l -0.0224,0.008 c -0.0179,-0.0916 -0.019,-0.27359 -0.0372,-0.36364 l -10.78345,1.78861 c 0.11509,0.87217 0.65066,-0.18885 -0.42304,0.43044 -1.07368,0.61911 -3.90467,1.44272 -7.39925,2.0706 -6.98913,1.25572 -16.53332,1.8371 -24.24608,6.7981 l 0.20781,-0.12616 c 0,0 -3.99127,2.32606 -8.62381,4.9056 -4.51542,2.51438 -9.77733,5.25898 -11.70373,6.0634 -0.16502,0.0342 -3.17258,0.70168 -5.45481,-0.12615 -1.17215,-0.42516 -2.06385,-0.97253 -2.9686,-2.6569 -0.90475,-1.68435 -1.748,-4.79127 -1.43978,-10.10808 l 0.45272,-7.72579 -7.43637,2.15963 c 0,0 -6.2191,1.7611 -13.67043,0.0889 -7.45132,-1.67199 -15.8071,-6.13484 -21.025147,-21.31457 l -1.180022,-3.42876 -3.614278,-0.24509 c 0,0 -36.259905,-2.00581 -45.167339,-37.95362 l -0.482397,-1.94444 -1.625315,-1.17259 c 0,0 -4.527826,-3.8934 -5.106002,-7.5551 l -0.452694,-2.87956 -2.634636,-1.22453 c 0,0 -5.741813,-2.7179 -10.87252,-7.23599 -2.565353,-2.25903 -4.879847,-4.92308 -6.226651,-7.59222 -1.346805,-2.66911 -1.830524,-5.1749 -1.113227,-8.16364 l 0.437869,-1.84056 -0.794102,-1.72177 c 0,0 -15.4465033,-33.26693 0.504664,-75.80336 L 8.7515008,689.88595 C -7.885423,734.25104 6.6870925,769.607 8.1058289,772.88077 c -0.5977638,4.83781 0.1678189,9.49167 2.0928671,13.30676 2.240736,4.44073 5.495712,8.00028 8.757387,10.87253 5.452595,4.80152 9.530653,6.60347 11.273283,7.46603 1.966107,6.28957 5.563062,9.56816 7.221135,10.81313 10.117051,35.95242 43.016206,42.6896 51.030336,43.81663 6.564714,15.76433 17.780533,23.14699 27.474453,25.32223 4.79359,1.07562 9.02901,0.96542 12.42361,0.68275 0.36015,3.59388 1.05158,6.84279 2.42684,9.40307 2.16096,4.02309 5.61278,6.57915 8.87613,7.7629 6.52671,2.36756 12.49041,0.31159 12.49041,0.31159 l 0.23009,-0.0669 0.22262,-0.0889 c 3.43076,-1.3723 8.51616,-4.1817 13.25483,-6.82037 4.73866,-2.63867 8.81676,-5.00952 8.81676,-5.00952 l 0.10388,-0.0592 0.0965,-0.0669 c 4.12085,-2.6506 12.57945,-3.85207 20.26074,-5.23216 2.45323,-0.44078 4.69098,-1.36615 6.98364,-2.14481 0.53141,5.27308 1.15899,9.80269 1.47688,15.47385 0.53898,9.61527 0.77926,17.73001 0.77926,17.73001 -1.38055,27.5123 -1.18002,71.87735 -1.18002,71.87735 l 0.008,0.0965 v 0.0889 c 0.55965,14.34496 4.81361,25.59646 11.44396,33.18166 6.63036,7.5851 15.816,11.3563 24.85466,10.264 9.03867,-1.0924 17.55929,-6.9197 23.43714,-16.5723 5.87786,-9.6526 9.30739,-23.11482 8.94293,-40.41763 l -0.008,0.34883 c 0,0 2.55032,-56.11712 5.84815,-76.2338 l 0.0148,-0.0965 0.0148,-0.0889 c 0,0 8.12117,-62.4864 2.79792,-113.61596 v -0.0152 c -0.002,-0.0266 -2.62412,-27.60266 -0.71247,-42.57724 l 0.0445,-0.34123 v -0.34886 c 0,0.54216 0.0118,-0.19759 0.0224,-0.71247 0.0102,-0.51495 0.0133,-1.23661 0.008,-2.12998 -0.0114,-1.78668 -0.076,-4.27206 -0.3043,-7.28049 -0.45668,-6.01689 -1.5444,-14.11438 -4.11893,-22.89537 -5.14907,-17.56199 -16.57134,-38.18503 -40.66249,-48.53672 l -0.43045,-0.18543 -0.45271,-0.11133 c 0,0 -15.49552,-3.84903 -26.53934,-10.79091 l -0.29687,-0.18543 -0.3117,-0.14857 c 0,0 -15.92531,-7.38669 -36.27637,-14.94692 -20.35105,-7.56023 -44.96305,-15.4135 -63.91408,-16.16407 z"
       id="path749"
       inkscape:connector-curvature="0" />
    <path
       style="color:#000000;font-style:normal;font-variant:normal;font-weight:normal;font-stretch:normal;font-size:medium;line-height:normal;font-family:sans-serif;font-variant-ligatures:normal;font-variant-position:normal;font-variant-caps:normal;font-variant-numeric:normal;font-variant-alternates:normal;font-feature-settings:normal;text-indent:0;text-align:start;text-decoration:none;text-decoration-line:none;text-decoration-style:solid;text-decoration-color:#000000;letter-spacing:normal;word-spacing:normal;text-transform:none;writing-mode:lr-tb;direction:ltr;text-orientation:mixed;dominant-baseline:auto;baseline-shift:baseline;text-anchor:start;white-space:normal;shape-padding:0;clip-rule:nonzero;display:inline;overflow:visible;visibility:visible;opacity:1;isolation:auto;mix-blend-mode:normal;color-interpolation:sRGB;color-interpolation-filters:linearRGB;solid-color:#000000;solid-opacity:1;vector-effect:none;fill:#000000;fill-opacity:1;fill-rule:nonzero;stroke:none;stroke-width:10.93356609;stroke-linecap:butt;stroke-linejoin:miter;stroke-miterlimit:4;stroke-dasharray:none;stroke-dashoffset:0;stroke-opacity:1;color-rendering:auto;image-rendering:auto;shape-rendering:auto;text-rendering:auto;enable-background:accumulate"
       d="m 92.688803,793.34156 -10.82799,1.49173 c 1.206754,8.749 -0.67536,20.96579 -0.67536,20.96579 l 0.05195,-0.25991 c -2.056643,9.46055 -0.415924,19.44765 1.513991,27.25923 1.929915,7.81158 4.356427,13.58134 4.356427,13.58134 l 10.07842,-4.22281 c 0,0 -2.099236,-5.01233 -3.822083,-11.98576 -1.722845,-6.97342 -2.861961,-15.76699 -1.439773,-22.30906 l 0.02964,-0.13375 0.02242,-0.13376 c 0,0 2.288774,-12.82521 0.712466,-24.2535 z"
       id="path751"
       inkscape:connector-curvature="0" />
    <path
       style="color:#000000;font-style:normal;font-variant:normal;font-weight:normal;font-stretch:normal;font-size:medium;line-height:normal;font-family:sans-serif;font-variant-ligatures:normal;font-variant-position:normal;font-variant-caps:normal;font-variant-numeric:normal;font-variant-alternates:normal;font-feature-settings:normal;text-indent:0;text-align:start;text-decoration:none;text-decoration-line:none;text-decoration-style:solid;text-decoration-color:#000000;letter-spacing:normal;word-spacing:normal;text-transform:none;writing-mode:lr-tb;direction:ltr;text-orientation:mixed;dominant-baseline:auto;baseline-shift:baseline;text-anchor:start;white-space:normal;shape-padding:0;clip-rule:nonzero;display:inline;overflow:visible;visibility:visible;opacity:1;isolation:auto;mix-blend-mode:normal;color-interpolation:sRGB;color-interpolation-filters:linearRGB;solid-color:#000000;solid-opacity:1;vector-effect:none;fill:#000000;fill-opacity:1;fill-rule:nonzero;stroke:none;stroke-width:10.93356609;stroke-linecap:butt;stroke-linejoin:miter;stroke-miterlimit:4;stroke-dasharray:none;stroke-dashoffset:0;stroke-opacity:1;color-rendering:auto;image-rendering:auto;shape-rendering:auto;text-rendering:auto;enable-background:accumulate"
       d="m 135.1176,790.02413 c -1.70563,9.85486 -1.47616,21.24306 -0.898,30.53954 0.28909,4.64823 0.68032,8.75918 0.99449,11.80766 0.15708,1.52422 0.29668,2.78097 0.39333,3.68847 0.0967,0.90751 0.12616,1.94999 0.12616,1.16518 v 0.30437 l 0.0296,0.29676 c 2.42388,22.00919 11.47208,35.34844 22.4575,42.20615 10.98542,6.85776 23.13813,7.29192 31.8383,6.11535 l -1.46204,-10.83541 c -6.94875,0.9397 -16.56835,0.44918 -24.58748,-4.55681 -8.01912,-5.00599 -15.20965,-14.47376 -17.37376,-34.12413 l 0.0296,0.59372 c 0,-1.21966 -0.0926,-1.38066 -0.19295,-2.32294 -0.10039,-0.94228 -0.23315,-2.16916 -0.38592,-3.65139 -0.30551,-2.96439 -0.68115,-6.92821 -0.95737,-11.36973 -0.55246,-8.88314 -0.66831,-19.75886 0.75699,-27.99397 z"
       id="path753"
       inkscape:connector-curvature="0" />
    <path
       style="color:#000000;font-style:normal;font-variant:normal;font-weight:normal;font-stretch:normal;font-size:medium;line-height:normal;font-family:sans-serif;font-variant-ligatures:normal;font-variant-position:normal;font-variant-caps:normal;font-variant-numeric:normal;font-variant-alternates:normal;font-feature-settings:normal;text-indent:0;text-align:start;text-decoration:none;text-decoration-line:none;text-decoration-style:solid;text-decoration-color:#000000;letter-spacing:normal;word-spacing:normal;text-transform:none;writing-mode:lr-tb;direction:ltr;text-orientation:mixed;dominant-baseline:auto;baseline-shift:baseline;text-anchor:start;white-space:normal;shape-padding:0;clip-rule:nonzero;display:inline;overflow:visible;visibility:visible;opacity:1;isolation:auto;mix-blend-mode:normal;color-interpolation:sRGB;color-interpolation-filters:linearRGB;solid-color:#000000;solid-opacity:1;vector-effect:none;fill:#000000;fill-opacity:1;fill-rule:nonzero;stroke:none;stroke-width:10.93356609;stroke-linecap:butt;stroke-linejoin:miter;stroke-miterlimit:4;stroke-dasharray:none;stroke-dashoffset:0;stroke-opacity:1;color-rendering:auto;image-rendering:auto;shape-rendering:auto;text-rendering:auto;enable-background:accumulate"
       d="m 146.36862,864.93693 c -0.40518,1.38917 -3.46814,4.20491 -7.12466,6.01141 -3.6565,1.80652 -7.10238,2.73854 -7.10238,2.73854 l 2.80533,10.56824 c 0,0 4.37315,-1.14626 9.14331,-3.50295 4.77016,-2.35672 10.74244,-5.79756 12.77242,-12.75757 z"
       id="path755"
       inkscape:connector-curvature="0" />
    <path
       style="color:#000000;font-style:normal;font-variant:normal;font-weight:normal;font-stretch:normal;font-size:medium;line-height:normal;font-family:sans-serif;font-variant-ligatures:normal;font-variant-position:normal;font-variant-caps:normal;font-variant-numeric:normal;font-variant-alternates:normal;font-feature-settings:normal;text-indent:0;text-align:start;text-decoration:none;text-decoration-line:none;text-decoration-style:solid;text-decoration-color:#000000;letter-spacing:normal;word-spacing:normal;text-transform:none;writing-mode:lr-tb;direction:ltr;text-orientation:mixed;dominant-baseline:auto;baseline-shift:baseline;text-anchor:start;white-space:normal;shape-padding:0;clip-rule:nonzero;display:inline;overflow:visible;visibility:visible;opacity:1;isolation:auto;mix-blend-mode:normal;color-interpolation:sRGB;color-interpolation-filters:linearRGB;solid-color:#000000;solid-opacity:1;vector-effect:none;fill:#000000;fill-opacity:1;fill-rule:nonzero;stroke:none;stroke-width:10.93356609;stroke-linecap:butt;stroke-linejoin:miter;stroke-miterlimit:4;stroke-dasharray:none;stroke-dashoffset:0;stroke-opacity:1;color-rendering:auto;image-rendering:auto;shape-rendering:auto;text-rendering:auto;enable-background:accumulate"
       d="m 199.46956,764.64998 c -7.56719,45.04291 1.5882,107.44127 1.5882,107.44127 l 10.82058,-1.55108 c 0,0 -8.66918,-62.15149 -1.62531,-104.07935 z"
       id="path757"
       inkscape:connector-curvature="0" />
    <path
       style="color:#000000;font-style:normal;font-variant:normal;font-weight:normal;font-stretch:normal;font-size:medium;line-height:normal;font-family:sans-serif;font-variant-ligatures:normal;font-variant-position:normal;font-variant-caps:normal;font-variant-numeric:normal;font-variant-alternates:normal;font-feature-settings:normal;text-indent:0;text-align:start;text-decoration:none;text-decoration-line:none;text-decoration-style:solid;text-decoration-color:#000000;letter-spacing:normal;word-spacing:normal;text-transform:none;writing-mode:lr-tb;direction:ltr;text-orientation:mixed;dominant-baseline:auto;baseline-shift:baseline;text-anchor:start;white-space:normal;shape-padding:0;clip-rule:nonzero;display:inline;overflow:visible;visibility:visible;opacity:1;isolation:auto;mix-blend-mode:normal;color-interpolation:sRGB;color-interpolation-filters:linearRGB;solid-color:#000000;solid-opacity:1;vector-effect:none;fill:#000000;fill-opacity:1;fill-rule:nonzero;stroke:none;stroke-width:10.93356609;stroke-linecap:butt;stroke-linejoin:miter;stroke-miterlimit:4;stroke-dasharray:none;stroke-dashoffset:0;stroke-opacity:1;color-rendering:auto;image-rendering:auto;shape-rendering:auto;text-rendering:auto;enable-background:accumulate"
       d="m 244.24356,976.89789 c -5.19262,-1.06931 -10.23764,-0.63059 -14.42742,0.5121 -4.18979,1.14268 -7.69107,2.85241 -10.2417,4.2748 -1.2753,0.71116 -2.31488,1.35413 -3.02797,1.79597 -0.21784,0.1349 -0.31846,0.20292 -0.46013,0.28955 l -3.1393,0.77923 -0.31912,3.91115 c -1.48096,18.43161 7.16291,33.35671 20.07521,36.04631 6.45615,1.3449 13.59694,-1.2703 18.58347,-7.2211 4.98654,-5.9508 8.34723,-14.8964 9.7964,-27.40769 l 0.29688,-2.59011 -1.81827,-1.86281 c -4.77945,-4.8811 -10.12538,-7.45802 -15.31801,-8.52733 z m -2.33035,10.40495 c 2.49042,0.48414 5.06757,1.92101 7.69611,4.07444 -1.46053,9.25692 -4.01818,15.68542 -6.70163,18.88782 -2.98499,3.5622 -5.38807,4.078 -7.97071,3.54 -4.81873,-1.0037 -11.31759,-9.0304 -11.25843,-21.84151 0.41222,-0.24623 0.73677,-0.4553 1.22455,-0.72733 2.06968,-1.15415 4.8073,-2.46615 7.79258,-3.2803 2.9853,-0.81419 6.0501,-1.26883 9.21753,-0.65312 z"
       id="path759"
       inkscape:connector-curvature="0" />
    <path
       style="color:#000000;font-style:normal;font-variant:normal;font-weight:normal;font-stretch:normal;font-size:medium;line-height:normal;font-family:sans-serif;font-variant-ligatures:normal;font-variant-position:normal;font-variant-caps:normal;font-variant-numeric:normal;font-variant-alternates:normal;font-feature-settings:normal;text-indent:0;text-align:start;text-decoration:none;text-decoration-line:none;text-decoration-style:solid;text-decoration-color:#000000;letter-spacing:normal;word-spacing:normal;text-transform:none;writing-mode:lr-tb;direction:ltr;text-orientation:mixed;dominant-baseline:auto;baseline-shift:baseline;text-anchor:start;white-space:normal;shape-padding:0;clip-rule:nonzero;display:inline;overflow:visible;visibility:visible;opacity:1;isolation:auto;mix-blend-mode:normal;color-interpolation:sRGB;color-interpolation-filters:linearRGB;solid-color:#000000;solid-opacity:1;vector-effect:none;fill:#000000;fill-opacity:1;fill-rule:nonzero;stroke:none;stroke-width:10.93356609;stroke-linecap:butt;stroke-linejoin:miter;stroke-miterlimit:4;stroke-dasharray:none;stroke-dashoffset:0;stroke-opacity:1;color-rendering:auto;image-rendering:auto;shape-rendering:auto;text-rendering:auto;enable-background:accumulate"
       d="m 52.204437,725.30111 c -16.669923,-0.19607 -26.240761,9.32486 -30.094243,18.31629 -3.853482,8.99146 -3.258045,17.73001 -3.258045,17.73001 l 10.917049,-0.62339 c 0,0 -0.279591,-6.56631 2.389728,-12.79471 2.669317,-6.22839 7.019264,-11.84064 19.919345,-11.68888 z"
       id="path763"
       inkscape:connector-curvature="0" />
    <path
       style="color:#000000;font-style:normal;font-variant:normal;font-weight:normal;font-stretch:normal;font-size:medium;line-height:normal;font-family:sans-serif;font-variant-ligatures:normal;font-variant-position:normal;font-variant-caps:normal;font-variant-numeric:normal;font-variant-alternates:normal;font-feature-settings:normal;text-indent:0;text-align:start;text-decoration:none;text-decoration-line:none;text-decoration-style:solid;text-decoration-color:#000000;letter-spacing:normal;word-spacing:normal;text-transform:none;writing-mode:lr-tb;direction:ltr;text-orientation:mixed;dominant-baseline:auto;baseline-shift:baseline;text-anchor:start;white-space:normal;shape-padding:0;clip-rule:nonzero;display:inline;overflow:visible;visibility:visible;opacity:1;isolation:auto;mix-blend-mode:normal;color-interpolation:sRGB;color-interpolation-filters:linearRGB;solid-color:#000000;solid-opacity:1;vector-effect:none;fill:#000000;fill-opacity:1;fill-rule:nonzero;stroke:none;stroke-width:10.93356609;stroke-linecap:butt;stroke-linejoin:miter;stroke-miterlimit:4;stroke-dasharray:none;stroke-dashoffset:0;stroke-opacity:1;color-rendering:auto;image-rendering:auto;shape-rendering:auto;text-rendering:auto;enable-background:accumulate"
       d="m 100.91185,681.84812 c -14.507012,1.77817 -25.007278,8.41701 -31.860572,15.45161 -9.137725,9.37951 -12.379086,19.64475 -12.37909,19.64475 l 10.41981,3.30257 c 0,0 2.49668,-7.82515 9.796399,-15.31801 7.29972,-7.49282 18.814944,-14.47274 38.643833,-12.2158 l 1.23939,-10.85767 c -5.74016,-0.65338 -11.02411,-0.60014 -15.85977,-0.008 z"
       id="path765"
       inkscape:connector-curvature="0" />
    <path
       style="color:#000000;font-style:normal;font-variant:normal;font-weight:normal;font-stretch:normal;font-size:medium;line-height:normal;font-family:sans-serif;font-variant-ligatures:normal;font-variant-position:normal;font-variant-caps:normal;font-variant-numeric:normal;font-variant-alternates:normal;font-feature-settings:normal;text-indent:0;text-align:start;text-decoration:none;text-decoration-line:none;text-decoration-style:solid;text-decoration-color:#000000;letter-spacing:normal;word-spacing:normal;text-transform:none;writing-mode:lr-tb;direction:ltr;text-orientation:mixed;dominant-baseline:auto;baseline-shift:baseline;text-anchor:start;white-space:normal;shape-padding:0;clip-rule:nonzero;display:inline;overflow:visible;visibility:visible;opacity:1;isolation:auto;mix-blend-mode:normal;color-interpolation:sRGB;color-interpolation-filters:linearRGB;solid-color:#000000;solid-opacity:1;vector-effect:none;fill:#000000;fill-opacity:1;fill-rule:nonzero;stroke:none;stroke-width:10.93356609;stroke-linecap:butt;stroke-linejoin:miter;stroke-miterlimit:4;stroke-dasharray:none;stroke-dashoffset:0;stroke-opacity:1;color-rendering:auto;image-rendering:auto;shape-rendering:auto;text-rendering:auto;enable-background:accumulate"
       d="m 151.7789,662.32957 c -7.32967,0.20481 -13.53376,2.1616 -18.39793,4.79427 -9.72834,5.26536 -14.57585,13.11385 -14.57585,13.11385 l 9.29915,5.75166 c 0,0 3.33522,-5.38061 10.47918,-9.24723 7.14396,-3.86658 17.61713,-6.32791 33.68626,1.22457 l 4.65329,-9.8929 c -9.35957,-4.39897 -17.81441,-5.94899 -25.1441,-5.74422 z"
       id="path767"
       inkscape:connector-curvature="0" />
    <path
       style="color:#000000;font-style:normal;font-variant:normal;font-weight:normal;font-stretch:normal;font-size:medium;line-height:normal;font-family:sans-serif;font-variant-ligatures:normal;font-variant-position:normal;font-variant-caps:normal;font-variant-numeric:normal;font-variant-alternates:normal;font-feature-settings:normal;text-indent:0;text-align:start;text-decoration:none;text-decoration-line:none;text-decoration-style:solid;text-decoration-color:#000000;letter-spacing:normal;word-spacing:normal;text-transform:none;writing-mode:lr-tb;direction:ltr;text-orientation:mixed;dominant-baseline:auto;baseline-shift:baseline;text-anchor:start;white-space:normal;shape-padding:0;clip-rule:nonzero;display:inline;overflow:visible;visibility:visible;opacity:1;isolation:auto;mix-blend-mode:normal;color-interpolation:sRGB;color-interpolation-filters:linearRGB;solid-color:#000000;solid-opacity:1;vector-effect:none;fill:#000000;fill-opacity:1;fill-rule:nonzero;stroke:none;stroke-width:10.93356609;stroke-linecap:butt;stroke-linejoin:miter;stroke-miterlimit:4;stroke-dasharray:none;stroke-dashoffset:0;stroke-opacity:1;color-rendering:auto;image-rendering:auto;shape-rendering:auto;text-rendering:auto;enable-background:accumulate"
       d="m 234.5288,663.65803 c -17.62813,-3.00007 -32.55077,6.1079 -32.55077,6.1079 l 5.76652,9.29172 c 0,0 19.8267,-12.5501 38.33955,1.2023 l 6.52351,-8.77966 c -6.02569,-4.47622 -12.20276,-6.82227 -18.07881,-7.82226 z"
       id="path769"
       inkscape:connector-curvature="0" />
    <path
       style="color:#000000;font-style:normal;font-variant:normal;font-weight:normal;font-stretch:normal;font-size:medium;line-height:normal;font-family:sans-serif;font-variant-ligatures:normal;font-variant-position:normal;font-variant-caps:normal;font-variant-numeric:normal;font-variant-alternates:normal;font-feature-settings:normal;text-indent:0;text-align:start;text-decoration:none;text-decoration-line:none;text-decoration-style:solid;text-decoration-color:#000000;letter-spacing:normal;word-spacing:normal;text-transform:none;writing-mode:lr-tb;direction:ltr;text-orientation:mixed;dominant-baseline:auto;baseline-shift:baseline;text-anchor:start;white-space:normal;shape-padding:0;clip-rule:nonzero;display:inline;overflow:visible;visibility:visible;opacity:1;isolation:auto;mix-blend-mode:normal;color-interpolation:sRGB;color-interpolation-filters:linearRGB;solid-color:#000000;solid-opacity:1;vector-effect:none;fill:#000000;fill-opacity:1;fill-rule:nonzero;stroke:none;stroke-width:10.93356609;stroke-linecap:butt;stroke-linejoin:miter;stroke-miterlimit:4;stroke-dasharray:none;stroke-dashoffset:0;stroke-opacity:1;color-rendering:auto;image-rendering:auto;shape-rendering:auto;text-rendering:auto;enable-background:accumulate"
       d="m 77.801243,388.8096 v 5.46968 138.11437 H 46.875792 l 57.457358,57.4574 55.26804,-57.56128 H 130.15261 V 388.81705 Z m 10.931891,10.93932 h 30.487586 v 143.48017 h 14.72429 l -29.7677,30.99966 -30.910612,-30.90318 h 15.466436 z"
       id="path1576"
       inkscape:connector-curvature="0" />
    <path
       style="color:#000000;font-style:normal;font-variant:normal;font-weight:normal;font-stretch:normal;font-size:medium;line-height:normal;font-family:sans-serif;font-variant-ligatures:normal;font-variant-position:normal;font-variant-caps:normal;font-variant-numeric:normal;font-variant-alternates:normal;font-feature-settings:normal;text-indent:0;text-align:start;text-decoration:none;text-decoration-line:none;text-decoration-style:solid;text-decoration-color:#000000;letter-spacing:normal;word-spacing:normal;text-transform:none;writing-mode:lr-tb;direction:ltr;text-orientation:mixed;dominant-baseline:auto;baseline-shift:baseline;text-anchor:start;white-space:normal;shape-padding:0;clip-rule:nonzero;display:inline;overflow:visible;visibility:visible;opacity:1;isolation:auto;mix-blend-mode:normal;color-interpolation:sRGB;color-interpolation-filters:linearRGB;solid-color:#000000;solid-opacity:1;vector-effect:none;fill:#000000;fill-opacity:1;fill-rule:nonzero;stroke:none;stroke-width:12.18997765;stroke-linecap:butt;stroke-linejoin:miter;stroke-miterlimit:4;stroke-dasharray:none;stroke-dashoffset:0;stroke-opacity:1;color-rendering:auto;image-rendering:auto;shape-rendering:auto;text-rendering:auto;enable-background:accumulate"
       d="m 298.43075,182.14139 c -22.77954,0.21505 -45.52589,11.03249 -74.50386,31.76372 l 7.09367,9.91351 c 28.14451,-20.13505 48.55761,-29.30823 67.52553,-29.48731 18.96845,-0.17914 37.81796,8.54414 63.12725,26.99307 l 7.18119,-9.85016 C 342.6952,192.40577 321.21028,181.92631 298.43075,182.14139 Z"
       id="path59-17-2-4-5"
       inkscape:connector-curvature="0" />
    <path
       style="color:#000000;font-style:normal;font-variant:normal;font-weight:normal;font-stretch:normal;font-size:medium;line-height:normal;font-family:sans-serif;font-variant-ligatures:normal;font-variant-position:normal;font-variant-caps:normal;font-variant-numeric:normal;font-variant-alternates:normal;font-feature-settings:normal;text-indent:0;text-align:start;text-decoration:none;text-decoration-line:none;text-decoration-style:solid;text-decoration-color:#000000;letter-spacing:normal;word-spacing:normal;text-transform:none;writing-mode:lr-tb;direction:ltr;text-orientation:mixed;dominant-baseline:auto;baseline-shift:baseline;text-anchor:start;white-space:normal;shape-padding:0;clip-rule:nonzero;display:inline;overflow:visible;visibility:visible;opacity:1;isolation:auto;mix-blend-mode:normal;color-interpolation:sRGB;color-interpolation-filters:linearRGB;solid-color:#000000;solid-opacity:1;vector-effect:none;fill:#000000;fill-opacity:1;fill-rule:nonzero;stroke:none;stroke-width:12.18997765;stroke-linecap:butt;stroke-linejoin:miter;stroke-miterlimit:4;stroke-dasharray:none;stroke-dashoffset:0;stroke-opacity:1;color-rendering:auto;image-rendering:auto;shape-rendering:auto;text-rendering:auto;enable-background:accumulate"
       d="m 457.33699,182.1172 c -22.88696,0.41989 -43.87298,12.04763 -69.22717,30.95777 l 7.28736,9.77205 c 24.67436,-18.40306 43.30263,-28.19576 62.16337,-28.5418 18.86048,-0.34606 39.45631,8.66123 68.25488,30.93915 l 7.45886,-9.64173 C 503.51005,192.578 480.22396,181.69727 457.33699,182.1172 Z"
       id="path59-17-5-5-9-3"
       inkscape:connector-curvature="0" />
    <path
       style="color:#000000;font-style:normal;font-variant:normal;font-weight:normal;font-stretch:normal;font-size:medium;line-height:normal;font-family:sans-serif;font-variant-ligatures:normal;font-variant-position:normal;font-variant-caps:normal;font-variant-numeric:normal;font-variant-alternates:normal;font-feature-settings:normal;text-indent:0;text-align:start;text-decoration:none;text-decoration-line:none;text-decoration-style:solid;text-decoration-color:#000000;letter-spacing:normal;word-spacing:normal;text-transform:none;writing-mode:lr-tb;direction:ltr;text-orientation:mixed;dominant-baseline:auto;baseline-shift:baseline;text-anchor:start;white-space:normal;shape-padding:0;clip-rule:nonzero;display:inline;overflow:visible;visibility:visible;opacity:1;isolation:auto;mix-blend-mode:normal;color-interpolation:sRGB;color-interpolation-filters:linearRGB;solid-color:#000000;solid-opacity:1;vector-effect:none;fill:#000000;fill-opacity:1;fill-rule:nonzero;stroke:none;stroke-width:12.18997765;stroke-linecap:butt;stroke-linejoin:miter;stroke-miterlimit:4;stroke-dasharray:none;stroke-dashoffset:0;stroke-opacity:1;color-rendering:auto;image-rendering:auto;shape-rendering:auto;text-rendering:auto;enable-background:accumulate"
       d="m 295.75961,220.53334 c -12.095,0.1184 -21.87665,4.98187 -28.1764,12.25878 -6.31941,7.29889 -9.26003,16.71776 -9.1748,25.99358 0.0847,9.2758 3.19122,18.58444 9.58745,25.6623 6.37734,7.05654 16.16741,11.57227 28.01537,11.2034 11.62034,-0.0303 21.07432,-4.96282 27.07653,-12.24764 6.02133,-7.30725 8.78791,-16.66552 8.72794,-25.89306 -0.06,-9.22754 -2.94291,-18.49814 -9.02933,-25.62504 -6.07214,-7.11042 -15.56745,-11.75074 -27.02676,-11.35232 z m 0.37232,12.17502 c 8.17444,-0.30069 13.50777,2.55318 17.38496,7.09357 3.87744,4.54041 6.06575,11.09624 6.10888,17.78696 0.0442,6.69067 -2.05408,13.34055 -5.94505,18.06241 -3.89071,4.72187 -9.3598,7.82136 -17.77207,7.82136 h -0.10233 l -0.10234,0.004 c -8.74939,0.29396 -14.55534,-2.65554 -18.66348,-7.20154 -4.10839,-4.54601 -6.38193,-11.00521 -6.44216,-17.60082 -0.0609,-6.5956 2.0875,-13.15388 6.19998,-17.90417 4.11299,-4.75036 10.07307,-7.9905 19.15524,-8.05775 h 0.0893 z"
       id="path87-11-8-6"
       inkscape:connector-curvature="0" />
    <path
       style="color:#000000;font-style:normal;font-variant:normal;font-weight:normal;font-stretch:normal;font-size:medium;line-height:normal;font-family:sans-serif;font-variant-ligatures:normal;font-variant-position:normal;font-variant-caps:normal;font-variant-numeric:normal;font-variant-alternates:normal;font-feature-settings:normal;text-indent:0;text-align:start;text-decoration:none;text-decoration-line:none;text-decoration-style:solid;text-decoration-color:#000000;letter-spacing:normal;word-spacing:normal;text-transform:none;writing-mode:lr-tb;direction:ltr;text-orientation:mixed;dominant-baseline:auto;baseline-shift:baseline;text-anchor:start;white-space:normal;shape-padding:0;clip-rule:nonzero;display:inline;overflow:visible;visibility:visible;opacity:1;isolation:auto;mix-blend-mode:normal;color-interpolation:sRGB;color-interpolation-filters:linearRGB;solid-color:#000000;solid-opacity:1;vector-effect:none;fill:#000000;fill-opacity:1;fill-rule:nonzero;stroke:none;stroke-width:12.18997765;stroke-linecap:butt;stroke-linejoin:miter;stroke-miterlimit:4;stroke-dasharray:none;stroke-dashoffset:0;stroke-opacity:1;color-rendering:auto;image-rendering:auto;shape-rendering:auto;text-rendering:auto;enable-background:accumulate"
       d="m 459.82949,220.53334 c -11.4593,-0.39842 -20.95462,4.2419 -27.02674,11.35232 -6.08643,7.12693 -8.96988,16.3975 -9.02934,25.62504 -0.0602,9.22754 2.7066,18.58587 8.72795,25.89306 6.00246,7.28482 15.45821,12.21732 27.07855,12.24764 11.84797,0.36887 21.636,-4.14686 28.01334,-11.2034 6.39621,-7.07786 9.50272,-16.3865 9.58744,-25.6623 0.085,-9.27582 -2.85538,-18.69469 -9.17454,-25.99358 -6.30026,-7.27729 -16.0809,-12.14086 -28.17666,-12.25878 z m -0.37233,12.17502 0.0896,0.004 h 0.0893 c 9.08216,0.0672 15.04251,3.3074 19.15524,8.05773 4.11299,4.75031 6.2625,11.30859 6.20202,17.9042 -0.0601,6.59563 -2.33555,13.05482 -6.44394,17.60081 -4.1084,4.54601 -9.91231,7.49548 -18.66194,7.20152 l -0.10234,-0.004 h -0.10234 c -8.41202,0 -13.88111,-3.09949 -17.77207,-7.82137 -3.89098,-4.72189 -5.99021,-11.37173 -5.94683,-18.06243 0.0439,-6.69069 2.23143,-13.24654 6.10861,-17.78695 3.87745,-4.54037 9.21078,-7.39427 17.38496,-7.09358 z"
       id="path87-1-3-3-7"
       inkscape:connector-curvature="0" />
    <path
       style="color:#000000;font-style:normal;font-variant:normal;font-weight:normal;font-stretch:normal;font-size:medium;line-height:normal;font-family:sans-serif;font-variant-ligatures:normal;font-variant-position:normal;font-variant-caps:normal;font-variant-numeric:normal;font-variant-alternates:normal;font-feature-settings:normal;text-indent:0;text-align:start;text-decoration:none;text-decoration-line:none;text-decoration-style:solid;text-decoration-color:#000000;letter-spacing:normal;word-spacing:normal;text-transform:none;writing-mode:lr-tb;direction:ltr;text-orientation:mixed;dominant-baseline:auto;baseline-shift:baseline;text-anchor:start;white-space:normal;shape-padding:0;clip-rule:nonzero;display:inline;overflow:visible;visibility:visible;opacity:1;isolation:auto;mix-blend-mode:normal;color-interpolation:sRGB;color-interpolation-filters:linearRGB;solid-color:#000000;solid-opacity:1;vector-effect:none;fill:#000000;fill-opacity:1;fill-rule:nonzero;stroke:none;stroke-width:12.18997765;stroke-linecap:butt;stroke-linejoin:miter;stroke-miterlimit:4;stroke-dasharray:none;stroke-dashoffset:0;stroke-opacity:1;color-rendering:auto;image-rendering:auto;shape-rendering:auto;text-rendering:auto;enable-background:accumulate"
       d="m 373.77599,436.53646 c -10.33772,0.41119 -19.9364,3.2666 -28.38542,7.31133 -27.0367,12.94308 -43.73185,37.92291 -43.73185,37.92291 l -10.39922,15.29831 17.45563,-6.12005 c 0,0 65.39873,-22.70437 132.36514,-0.91579 l 18.48663,6.01586 -11.74309,-15.4938 c -18.43942,-24.32764 -37.00413,-37.08582 -54.729,-41.8466 -6.64683,-1.78529 -13.11604,-2.41889 -19.31882,-2.17217 z m 0.40576,12.14522 c 5.05006,-0.19717 10.30276,0.33663 15.75067,1.79991 10.99919,2.95427 23.04059,9.83269 35.75087,22.89634 -41.62598,-9.03503 -79.64681,-3.87335 -101.58088,0.95857 6.71854,-6.71531 15.77007,-14.33034 26.55209,-19.49193 7.2575,-3.47429 15.1109,-5.83428 23.52725,-6.16289 z"
       id="path29-3-1-5"
       inkscape:connector-curvature="0" />
  </g>
</svg>
