<?xml version="1.0" encoding="UTF-8" standalone="no"?>
<!-- Created with Inkscape (http://www.inkscape.org/) -->

<svg
   xmlns:dc="http://purl.org/dc/elements/1.1/"
   xmlns:cc="http://creativecommons.org/ns#"
   xmlns:rdf="http://www.w3.org/1999/02/22-rdf-syntax-ns#"
   xmlns:svg="http://www.w3.org/2000/svg"
   xmlns="http://www.w3.org/2000/svg"
   xmlns:sodipodi="http://sodipodi.sourceforge.net/DTD/sodipodi-0.dtd"
   xmlns:inkscape="http://www.inkscape.org/namespaces/inkscape"
   width="1000"
   height="1250"
   viewBox="0 0 1000 1250"
   version="1.1"
   id="svg9140"
   inkscape:version="0.92.4 (5da689c313, 2019-01-14)"
   sodipodi:docname="Oi - Olá.svg">
  <defs
     id="defs9134" />
  <sodipodi:namedview
     id="base"
     pagecolor="#ffffff"
     bordercolor="#666666"
     borderopacity="1.0"
     inkscape:pageopacity="0.0"
     inkscape:pageshadow="2"
     inkscape:zoom="0.5"
     inkscape:cx="739.81421"
     inkscape:cy="781.15418"
     inkscape:document-units="px"
     inkscape:current-layer="layer1"
     showgrid="false"
     units="px"
     inkscape:window-width="681"
     inkscape:window-height="706"
     inkscape:window-x="-7"
     inkscape:window-y="0"
     inkscape:window-maximized="0" />
  <metadata
     id="metadata9137">
    <rdf:RDF>
      <cc:Work
         rdf:about="">
        <dc:format>image/svg+xml</dc:format>
        <dc:type
           rdf:resource="http://purl.org/dc/dcmitype/StillImage" />
        <dc:title></dc:title>
      </cc:Work>
    </rdf:RDF>
  </metadata>
  <g
     inkscape:label="Camada 1"
     inkscape:groupmode="layer"
     id="layer1"
     transform="translate(0,33.729184)">
    <path
       style="color:#000000;font-style:normal;font-variant:normal;font-weight:normal;font-stretch:normal;font-size:medium;line-height:normal;font-family:sans-serif;font-variant-ligatures:normal;font-variant-position:normal;font-variant-caps:normal;font-variant-numeric:normal;font-variant-alternates:normal;font-feature-settings:normal;text-indent:0;text-align:start;text-decoration:none;text-decoration-line:none;text-decoration-style:solid;text-decoration-color:#000000;letter-spacing:normal;word-spacing:normal;text-transform:none;writing-mode:lr-tb;direction:ltr;text-orientation:mixed;dominant-baseline:auto;baseline-shift:baseline;text-anchor:start;white-space:normal;shape-padding:0;clip-rule:nonzero;display:inline;overflow:visible;visibility:visible;opacity:1;isolation:auto;mix-blend-mode:normal;color-interpolation:sRGB;color-interpolation-filters:linearRGB;solid-color:#000000;solid-opacity:1;vector-effect:none;fill:#000000;fill-opacity:1;fill-rule:nonzero;stroke:none;stroke-width:10.06088543;stroke-linecap:butt;stroke-linejoin:miter;stroke-miterlimit:4;stroke-dasharray:none;stroke-dashoffset:0;stroke-opacity:1;color-rendering:auto;image-rendering:auto;shape-rendering:auto;text-rendering:auto;enable-background:accumulate"
       d="m 7.3672978,138.94106 c -1.1478464,0.94337 -2.6324306,2.31639 -3.9808911,4.03363 -1.3484605,1.71725 -2.67871072,3.87132 -3.20690721,6.64725 -0.38362155,2.0158 -0.15876076,4.37327 0.73645681,6.57222 -0.13038907,0.60838 -0.39559401,1.06882 -0.40303907,1.76467 -0.0332009,3.14506 1.24261997,6.80435 4.52971237,11.37426 l -0.1205294,-0.17378 c 0,0 13.0746228,20.19435 16.6460368,28.68154 0,0.003 15.518009,37.32801 17.46288,41.96776 0.01207,0.0433 2.987881,7.90853 6.219237,16.65427 3.240007,8.76914 6.807597,18.68988 7.621322,21.47992 l 0.01006,0.0278 0.01006,0.0279 c 0,0 0.572163,2.42693 2.273157,5.0966 -0.05634,0.70429 -0.152926,0.78228 -0.101514,1.74103 0.08853,1.64274 0.394889,3.77831 1.547867,5.85805 -0.292269,2.12431 -0.2478,5.3836 1.950805,8.66199 0.116002,1.53286 0.575583,3.55462 2.501136,6.19984 -0.155038,2.16998 0.141355,5.10535 2.209471,7.95053 0.220635,0.50469 7.133067,16.29633 8.392489,23.73783 l 0.03521,0.20419 0.05332,0.20273 c 0,0 1.573019,6.15043 3.686308,13.27923 1.744256,5.88345 3.742045,11.87552 5.89407,16.65985 -1.163341,1.43919 -2.481619,2.96464 -5.161839,6.85705 -3.522919,5.11618 -7.372114,11.19806 -8.901066,17.37126 -0.158761,0.40961 -5.859158,15.35603 2.012076,34.73131 l -0.07948,-0.20412 c 0,0 7.455921,21.24235 8.021343,40.6575 v 0.18753 l 0.01911,0.18612 c 0,0 6.062589,58.32437 8.339769,78.8333 0.01006,0.10414 1.196844,20.48281 2.35787,42.47216 1.163943,22.04553 2.267723,46.18722 2.148099,51.33286 l -0.01006,0.203 0.01207,0.20435 c 0,0 0.415514,7.22271 0.450124,15.86225 0.03421,8.63958 -0.479803,18.95327 -1.697875,23.49325 l 9.715194,2.60667 c 1.88843,-7.03856 2.07988,-17.19993 2.04398,-26.14023 -0.0362,-8.94024 -0.46693,-16.40135 -0.46693,-16.40135 l 0.0101,0.40573 c 0.16278,-6.99778 -0.991908,-30.01802 -2.157865,-52.09843 -1.165792,-22.08055 -2.366257,-42.63621 -2.366257,-42.63621 l -0.01006,-0.13079 -0.01408,-0.13053 c -2.251022,-20.25877 -8.342787,-78.85315 -8.346611,-78.89034 0,-10e-6 -0.01006,-0.024 -0.01006,-0.024 -0.712512,-21.59887 -8.57449,-43.36972 -8.57449,-43.36972 l -0.03823,-0.10241 -0.04225,-0.10272 c -6.704675,-16.50351 -1.987025,-27.25042 -1.987025,-27.25042 l 0.169526,-0.41404 0.09557,-0.4377 c 0.723378,-3.32759 4.208166,-9.61599 7.575343,-14.50613 3.367379,-4.89016 6.476495,-8.61061 6.476495,-8.61061 l 2.216211,-2.64973 -1.67725,-3.0193 C 89.931645,363.13284 87.120131,354.9935 85.068213,348.07254 83.016195,341.15158 81.48181,335.16015 81.48181,335.16015 l 0.08753,0.4072 c -1.826956,-10.79573 -9.280261,-26.52373 -9.280261,-26.52373 l -0.323759,-0.71002 -0.522362,-0.57806 c -0.606872,-0.67064 -0.337643,-2.19397 -0.337643,-2.19397 l 1.010113,-3.25553 -2.648327,-2.14536 c -0.715731,-0.57945 -1.100459,-2.72616 -1.100459,-2.72616 v -1.93138 l -1.29222,-1.43394 c -0.03723,-0.0423 -0.240455,-3.45006 -0.240455,-3.45006 l 0.598924,-2.69697 -1.952215,-1.95222 c 0.03119,0.0315 -0.332713,-0.67695 -0.38674,-1.6728 -0.05332,-0.99597 0.07747,-1.74238 0.07747,-1.74238 l 0.445999,-2.35517 -1.549175,-1.82996 c -0.343278,-0.40544 -1.568794,-3.29722 -1.568794,-3.29722 l 0.01509,0.056 c -1.16324,-3.98765 -4.586859,-13.34039 -7.842159,-22.15104 -3.2554,-8.81062 -6.25958,-16.76682 -6.25958,-16.76682 l -0.0332,-0.0845 -0.03622,-0.0835 c -1.80131,-4.29526 -17.503333,-42.0636 -17.503333,-42.0636 v -0.009 -0.0104 C 26.214455,182.95382 13.320123,163.63421 13.320123,163.63421 l -0.05634,-0.0876 -0.06339,-0.0874 c -2.144981,-2.98206 -2.456466,-4.4228 -2.527395,-4.97297 l 2.317625,-2.09812 -2.603858,-3.64598 c -0.4998241,-0.69977 -0.4274863,-0.74562 -0.333115,-1.2395 0.09356,-0.49378 0.519946,-1.40219 1.236583,-2.31484 1.433274,-1.82533 3.557026,-3.29864 3.557026,-3.29864 l 0.277982,-0.18342 0.251422,-0.21816 c 4.646318,-4.02685 10.179201,-3.53953 15.553827,-1.74797 5.374625,1.79156 9.49979,4.80898 9.49979,4.80898 l 0.422456,0.314 0.477993,0.21955 c 2.815036,1.29214 7.17482,5.38288 11.35059,10.92543 4.17577,5.54259 8.347215,12.43055 11.998109,19.10949 7.301889,13.35788 12.517854,25.79564 12.517854,25.79564 l 0.561297,1.34224 1.193523,0.83507 c 0.14055,0.0983 3.504306,4.21144 6.412506,9.5304 2.9082,5.31896 6.103235,12.03951 9.03709,18.58844 5.867912,13.09778 10.705882,25.50385 10.705882,25.50385 l 0.38352,0.98374 0.74621,0.74613 c 0.0121,0.006 1.45531,1.90076 2.81786,4.12118 1.36254,2.22046 2.9245,4.96009 4.38514,7.60324 2.92148,5.28629 5.43559,10.17652 5.43559,10.17652 l 4.19629,8.15901 4.62419,-7.92559 c 4.4287,-7.59198 16.98087,-33.51557 16.98087,-33.51557 l 0.0473,-0.10002 0.0443,-0.10281 c 5.1881,-11.9776 11.9316,-15.51386 17.54075,-16.81265 5.60904,-1.29881 9.82908,-0.005 9.82908,-0.005 l 0.28482,0.0875 0.29459,0.0528 c 10.42368,1.89522 34.67164,3.04158 34.67164,3.04158 l 0.46269,0.0236 0.46132,-0.0611 c 2.73545,-0.36474 11.56169,0.26573 18.88854,1.20328 7.32686,0.93757 13.6266,2.01614 13.6266,2.01614 l 0.12643,0.0208 0.12641,0.0153 c 25.53426,3.04295 38.12897,9.49499 39.08042,9.9959 3.78674,2.81353 11.86714,10.99399 18.5648,18.27857 6.78461,7.37912 12.42331,13.9267 12.42331,13.9267 l 0.0513,0.0598 0.0527,0.0583 c 1.68629,1.83957 3.5762,3.0789 6.3263,5.02574 2.75008,1.94683 6.05545,4.17287 9.25808,6.29016 6.40527,4.23461 12.40246,8.03118 12.40246,8.03118 l 1.03657,0.65584 1.22133,0.10699 c 6.01547,0.5191 9.52425,2.40748 11.94951,4.7937 2.42522,2.38622 3.83967,5.51258 4.59916,8.86763 1.50002,6.62622 0.193,13.31879 0.1598,13.48766 -3.52976,9.02037 -1.33309,19.83197 1.06156,28.98169 2.46937,9.43507 5.70658,17.06693 5.70658,17.06693 l -0.011,-0.0251 c -0.56668,-1.36004 -0.10963,-0.31041 -0.38905,1.0143 -0.27946,1.32476 -0.82813,3.11363 -1.43674,4.82427 -1.21718,3.4213 -2.6261,6.51665 -2.6261,6.51665 l -0.01,0.0238 -0.011,0.0223 c -6.30503,14.18627 -34.21448,62.79045 -34.21448,62.79045 l 0.0806,-0.1362 c -19.50694,31.5112 -20.5184,77.61199 -20.5184,77.61199 l 0.008,-0.16674 c -2.07757,32.27133 -9.31494,50.08156 -15.60106,59.6558 -3.14305,4.78712 -6.05101,7.53714 -8.0534,9.0705 -2.00241,1.53337 -2.66362,1.69377 -2.66362,1.69377 l -1.28388,0.45576 -0.87676,1.04071 c 0,0 -3.54231,4.28669 -7.75049,13.0722 -4.20819,8.7855 -9.35087,22.38624 -13.38203,41.96635 l 9.85414,2.02864 c 3.87617,-18.82708 8.7608,-31.63107 12.60118,-39.64872 3.28313,-6.85427 5.25811,-9.45561 5.86358,-10.2182 0.98812,-0.51961 2.3216,-1.3042 3.75576,-2.40241 2.89558,-2.21734 6.60684,-5.83963 10.34743,-11.53683 7.48116,-11.39439 15.0696,-31.00221 17.22812,-64.53146 l 0.006,-0.0834 0.003,-0.0833 c 0,0 1.81196,-44.83533 19.01777,-72.62933 l 0.0416,-0.0667 0.0389,-0.0695 c 0,0 27.41774,-47.37352 34.67994,-63.70334 0.009,-0.0206 1.55346,-3.38946 2.94431,-7.2989 0.69752,-1.96063 1.36674,-4.05653 1.80214,-6.12065 0.43541,-2.06414 1.10317,-3.90682 -0.1695,-6.96129 l -0.004,-0.0126 -0.006,-0.014 c 0,0 -2.97736,-7.05384 -5.23833,-15.69275 -2.26095,-8.63891 -3.19451,-18.88356 -1.28109,-23.25706 l 0.20286,-0.46409 0.10699,-0.49604 c 0,0 1.94608,-8.57668 -0.17091,-17.92841 -1.05849,-4.67587 -3.20197,-9.72991 -7.35588,-13.81696 -3.88531,-3.82269 -9.53169,-6.51255 -16.69595,-7.41148 -0.71437,-0.45304 -5.53946,-3.50657 -11.4229,-7.39618 -3.15149,-2.0835 -6.39333,-4.27038 -8.99129,-6.10955 -2.59542,-1.83734 -4.84827,-3.7494 -4.72006,-3.60845 -0.0904,-0.10495 -5.6831,-6.60232 -12.54003,-14.06012 -6.91209,-7.51778 -14.66632,-15.72373 -20.26551,-19.79587 l -0.28069,-0.20286 -0.30433,-0.16532 c 0,0 -14.97527,-7.90329 -42.75559,-11.25335 l -0.18897,-0.0278 c -0.0232,-0.003 -0.0421,-0.007 -0.0653,-0.0101 -0.22852,-0.039 -6.36167,-1.0914 -13.79472,-2.04254 -7.25043,-0.92777 -15.01286,-1.83567 -20.70042,-1.24219 -0.23436,-0.0131 -25.08472,-1.39512 -33.26129,-2.88178 l 0.58081,0.14173 c 0,0 -6.79362,-2.0956 -15.05772,-0.18201 -8.26412,1.91357 -18.25418,8.18915 -24.50349,22.6165 l 0.0925,-0.20149 c 0,0 -7.18407,14.53239 -12.35527,24.56596 -0.51108,-0.94419 -0.47376,-0.91992 -1.02811,-1.92305 -1.50451,-2.72258 -3.12049,-5.55996 -4.61725,-7.99922 -1.20752,-1.96765 -2.21763,-3.50308 -3.42362,-4.92708 -0.3963,-1.01331 -4.88657,-12.47801 -10.62269,-25.28151 -2.99653,-6.68889 -6.261788,-13.57849 -9.390019,-19.29984 -2.764328,-5.0559 -4.912025,-8.97757 -8.183927,-11.81613 -0.633734,-1.4975 -5.39525,-12.68379 -12.502561,-25.68585 -3.797581,-6.94713 -8.149519,-14.17814 -12.790102,-20.33777 -4.413509,-5.85815 -8.953785,-10.77285 -14.372779,-13.53626 -0.12385,-0.0926 -5.196045,-3.87557 -12.231622,-6.22069 -7.121799,-2.37393 -17.262668,-3.29931 -25.3245564,3.68766 l 0.5308124,-0.40019 c 0,0 -0.8127183,0.5142 -1.9605648,1.4576 z"
       id="path9153"
       inkscape:connector-curvature="0" />
    <path
       style="color:#000000;font-style:normal;font-variant:normal;font-weight:normal;font-stretch:normal;font-size:medium;line-height:normal;font-family:sans-serif;font-variant-ligatures:normal;font-variant-position:normal;font-variant-caps:normal;font-variant-numeric:normal;font-variant-alternates:normal;font-feature-settings:normal;text-indent:0;text-align:start;text-decoration:none;text-decoration-line:none;text-decoration-style:solid;text-decoration-color:#000000;letter-spacing:normal;word-spacing:normal;text-transform:none;writing-mode:lr-tb;direction:ltr;text-orientation:mixed;dominant-baseline:auto;baseline-shift:baseline;text-anchor:start;white-space:normal;shape-padding:0;clip-rule:nonzero;display:inline;overflow:visible;visibility:visible;opacity:1;isolation:auto;mix-blend-mode:normal;color-interpolation:sRGB;color-interpolation-filters:linearRGB;solid-color:#000000;solid-opacity:1;vector-effect:none;fill:#000000;fill-opacity:1;fill-rule:nonzero;stroke:none;stroke-width:10.06088543;stroke-linecap:butt;stroke-linejoin:miter;stroke-miterlimit:4;stroke-dasharray:none;stroke-dashoffset:0;stroke-opacity:1;color-rendering:auto;image-rendering:auto;shape-rendering:auto;text-rendering:auto;enable-background:accumulate"
       d="m 201.4299,289.23517 -0.77811,7.78386 c -0.1394,1.39397 -1.12763,7.92989 -4.3435,15.02302 -3.21586,7.09313 -8.56623,14.80269 -17.4852,19.83616 l -5.76771,3.25554 4.68254,4.68256 c -0.41571,-0.41577 0.60688,0.74646 1.46588,2.23843 0.85909,1.49199 1.88239,3.5815 2.75255,6.10398 1.74043,5.04495 2.87742,11.76284 1.21445,19.37765 l 9.82776,2.14673 c 2.13112,-9.75831 0.6723,-18.41757 -1.5312,-24.80494 -1.02676,-2.97631 -2.20983,-5.35809 -3.30284,-7.31003 8.51214,-6.16925 14.03571,-14.15847 17.30599,-21.37155 1.88302,-4.15333 3.09886,-7.97963 3.88775,-11.11857 15.01252,7.00773 27.02318,7.10209 29.46106,7.04046 13.1447,5.00646 24.63364,2.68 30.30449,0.86703 1.1373,1.18638 2.40197,2.3694 3.85025,3.6585 2.6792,2.38478 5.79298,4.92116 8.77454,7.26835 5.2874,4.16243 9.08835,6.90279 10.12927,7.6588 0.52412,1.23775 1.17502,2.31688 1.89665,3.21108 1.17758,1.45918 2.49401,2.6742 3.74883,3.72934 2.50958,2.11033 4.90624,3.60568 4.90624,3.60568 l 0.30709,0.19312 0.3307,0.1473 c 17.66927,7.81732 31.96356,5.56428 41.35498,0.99625 9.39142,-4.56804 14.30745,-11.47291 14.30745,-11.47291 l 0.0722,-0.10289 0.0681,-0.10699 c 3.38909,-5.32573 4.31393,-10.9761 3.4459,-15.87058 -0.86803,-4.89451 -3.2921,-8.95755 -5.93862,-12.20518 -5.29303,-6.49524 -11.93977,-10.20571 -11.93977,-10.20571 l -4.99238,8.73285 c 0,0 5.28765,3.11093 9.13302,7.82972 1.92268,2.35938 3.37006,5.00032 3.83218,7.60598 0.4571,2.57746 0.15333,5.20338 -1.98417,8.60921 -0.12605,0.17626 -3.40719,4.73607 -10.40442,8.13954 -7.07205,3.43989 -17.43909,5.54745 -32.5068,-1.00457 -0.23778,-0.15229 -1.76467,-1.11802 -3.51676,-2.59139 -0.94182,-0.79197 -1.84931,-1.6718 -2.39405,-2.34682 -0.54473,-0.67506 -0.54875,-1.15919 -0.48202,-0.4934 l -0.22371,-2.25234 -1.8355,-1.32418 c 0,0 -5.32209,-3.84555 -11.0908,-8.38686 -2.88436,-2.27068 -5.87604,-4.71488 -8.30769,-6.87931 -2.43164,-2.16444 -4.38139,-4.29473 -4.69924,-4.77977 l -2.43992,-3.7238 -3.99335,1.9675 c 0,0 -12.04141,6.02514 -27.01142,-0.13895 l -1.07407,-0.44324 -1.15883,0.075 c 0,0 -14.14038,0.96505 -31.09927,-8.91211 z"
       id="path9155"
       inkscape:connector-curvature="0" />
    <path
       style="color:#000000;font-style:normal;font-variant:normal;font-weight:normal;font-stretch:normal;font-size:medium;line-height:normal;font-family:sans-serif;font-variant-ligatures:normal;font-variant-position:normal;font-variant-caps:normal;font-variant-numeric:normal;font-variant-alternates:normal;font-feature-settings:normal;text-indent:0;text-align:start;text-decoration:none;text-decoration-line:none;text-decoration-style:solid;text-decoration-color:#000000;letter-spacing:normal;word-spacing:normal;text-transform:none;writing-mode:lr-tb;direction:ltr;text-orientation:mixed;dominant-baseline:auto;baseline-shift:baseline;text-anchor:start;white-space:normal;shape-padding:0;clip-rule:nonzero;display:inline;overflow:visible;visibility:visible;opacity:1;isolation:auto;mix-blend-mode:normal;color-interpolation:sRGB;color-interpolation-filters:linearRGB;solid-color:#000000;solid-opacity:1;vector-effect:none;fill:#000000;fill-opacity:1;fill-rule:nonzero;stroke:none;stroke-width:10.06088543;stroke-linecap:butt;stroke-linejoin:miter;stroke-miterlimit:4;stroke-dasharray:none;stroke-dashoffset:0;stroke-opacity:1;color-rendering:auto;image-rendering:auto;shape-rendering:auto;text-rendering:auto;enable-background:accumulate"
       d="m 183.06517,368.9286 c 0,0 0.68866,10.86614 1.20187,22.73325 0.25675,5.93353 0.46943,12.11626 0.5295,17.26701 0.0483,4.16381 -0.11067,6.78386 -0.25152,8.59948 -1.36305,0.90703 -3.52343,2.40721 -7.62967,4.66724 -2.60617,1.43443 -5.39093,2.80616 -7.70191,3.67518 -2.31089,0.86904 -4.29208,0.95165 -4.03362,1.00175 l -1.91609,9.87778 c 3.60331,0.69919 6.44642,-0.31793 9.49154,-1.46309 3.04513,-1.14518 6.1479,-2.70252 9.01073,-4.2782 5.72565,-3.15136 10.51837,-6.43885 10.51837,-6.43885 l 1.75348,-1.2005 0.36128,-2.09533 c 0.52686,-3.05564 0.51926,-7.13064 0.45712,-12.4622 -0.0621,-5.3316 -0.27839,-11.59117 -0.5377,-17.58662 -0.51862,-11.99089 -1.2144,-22.9347 -1.2144,-22.9347 z"
       id="path9157"
       inkscape:connector-curvature="0" />
    <path
       style="color:#000000;font-style:normal;font-variant:normal;font-weight:normal;font-stretch:normal;font-size:medium;line-height:normal;font-family:sans-serif;font-variant-ligatures:normal;font-variant-position:normal;font-variant-caps:normal;font-variant-numeric:normal;font-variant-alternates:normal;font-feature-settings:normal;text-indent:0;text-align:start;text-decoration:none;text-decoration-line:none;text-decoration-style:solid;text-decoration-color:#000000;letter-spacing:normal;word-spacing:normal;text-transform:none;writing-mode:lr-tb;direction:ltr;text-orientation:mixed;dominant-baseline:auto;baseline-shift:baseline;text-anchor:start;white-space:normal;shape-padding:0;clip-rule:nonzero;display:inline;overflow:visible;visibility:visible;opacity:1;isolation:auto;mix-blend-mode:normal;color-interpolation:sRGB;color-interpolation-filters:linearRGB;solid-color:#000000;solid-opacity:1;vector-effect:none;fill:#000000;fill-opacity:1;fill-rule:nonzero;stroke:none;stroke-width:10.06088543;stroke-linecap:butt;stroke-linejoin:miter;stroke-miterlimit:4;stroke-dasharray:none;stroke-dashoffset:0;stroke-opacity:1;color-rendering:auto;image-rendering:auto;shape-rendering:auto;text-rendering:auto;enable-background:accumulate"
       d="m 213.19043,315.51297 -0.78784,6.90709 c -2.18265,19.1304 -13.56684,26.81133 -13.56684,26.81133 l -5.50789,3.86831 5.2689,4.18788 c 4.68824,3.72654 4.81345,5.80277 4.77562,6.7737 -0.0378,0.97094 -0.2765,1.14632 -0.2765,1.14632 l 0.23891,-0.24462 c -8.38873,8.0159 -4.96723,19.34138 -4.23232,21.47575 0.25172,6.35166 -0.61072,8.80257 -0.99626,9.6138 l -5.1369,-1.07686 0.94762,7.05299 0.9768,7.26002 2.92207,1.0157 c 10.93804,3.79954 30.68243,5.64405 30.68243,5.64405 l 0.54745,0.0556 0.54745,-0.0611 c 4.94851,-0.56663 11.72107,1.35979 17.04332,3.69044 5.32223,2.33066 9.0719,4.79787 9.0719,4.79787 l 1.76184,1.15883 2.06199,-0.44186 c 16.08659,-3.45565 25.29959,-18.11045 25.29959,-18.11045 l 0.0402,-0.0597 0.0375,-0.0598 c 4.01855,-6.43935 7.07929,-10.33135 9.04132,-12.54003 1.96203,-2.20867 2.44407,-2.46912 2.44407,-2.46912 l 1.91747,-1.3339 0.21816,-2.32736 c 0.58366,-6.24078 2.16964,-9.40131 3.26526,-10.93518 0.54782,-0.76694 0.9838,-1.14165 1.19216,-1.30058 0.20839,-0.15885 -0.17082,0.0489 -0.17082,0.0489 l 4.30321,-1.76325 -1.42005,-4.42965 c 0.15676,0.4886 -0.18676,-2.2138 0.0306,-5.15218 0.21733,-2.93837 0.67201,-6.55133 1.18384,-10.01256 1.02368,-6.9225 2.26068,-13.23478 2.26068,-13.23478 l 1.58956,-8.09509 -7.92418,2.29403 c -4.79405,1.38841 -11.97934,0.40104 -17.79226,-1.27971 -5.81292,-1.68075 -10.08065,-3.76965 -10.08065,-3.76965 l 0.27929,0.14868 c -6.1001,-3.48576 -13.23922,-4.60178 -18.9761,-5.09244 -5.73683,-0.49065 -10.22515,-0.22092 -10.22515,-0.22092 l -0.63221,0.0375 -0.60304,0.1945 c -0.249,0.0799 -2.5023,0.20891 -5.19385,-0.30848 -2.69157,-0.51737 -5.90011,-1.46239 -8.91073,-2.49967 -6.02124,-2.07453 -11.20056,-4.45605 -11.20056,-4.45605 z m 8.01171,14.39776 c 2.22387,0.93257 2.84875,1.31376 6.22627,2.47743 3.29055,1.13372 6.85152,2.20848 10.28907,2.86928 3.43754,0.66077 6.67392,1.1273 10.16679,0.007 l -1.23664,0.23063 c 0,0 3.77303,-0.22429 8.76761,0.20287 4.99456,0.42716 11.05686,1.64064 14.84099,3.803 l 0.13755,0.0792 0.14313,0.0708 c 0,0 5.01487,2.46428 11.71606,4.40187 4.65,1.3445 10.20815,2.48395 15.88173,2.3232 -0.45236,2.52503 -0.63938,3.24902 -1.17272,6.85569 -0.53292,3.60369 -1.01646,7.3881 -1.26443,10.74065 -0.14816,2.00309 -0.21921,3.71812 -0.12505,5.42451 -0.65469,0.63448 -1.28379,1.11424 -1.96469,2.06757 -2.07055,2.89876 -3.94735,7.43338 -4.81593,13.96701 -0.76153,0.6628 -1.01602,0.74936 -2.36354,2.26622 -2.40621,2.70872 -5.78699,7.05328 -10.05563,13.89337 l 0.0778,-0.11948 c 0,0 -7.32999,10.19243 -17.31428,13.28756 -1.80559,-1.0809 -4.49509,-2.60241 -8.46469,-4.34072 -5.87012,-2.57058 -13.41705,-5.07995 -21.17979,-4.48385 -0.0777,-0.009 -13.84582,-1.66531 -23.18897,-3.82244 2.2592,-3.39307 3.2678,-8.29161 2.84843,-16.67928 l -0.0334,-0.6864 -0.21815,-0.65166 c 0,0 -2.07226,-8.55529 1.3853,-11.85919 l 0.12374,-0.11804 0.11518,-0.12659 c 0,0 2.72865,-3.07253 2.90263,-7.5379 0.13036,-3.34621 -1.19714,-7.30163 -4.5311,-11.18946 3.99248,-4.2229 9.57422,-11.68893 12.3066,-23.35293 z"
       id="path9159"
       inkscape:connector-curvature="0" />
    <path
       style="color:#000000;font-style:normal;font-variant:normal;font-weight:normal;font-stretch:normal;font-size:medium;line-height:normal;font-family:sans-serif;font-variant-ligatures:normal;font-variant-position:normal;font-variant-caps:normal;font-variant-numeric:normal;font-variant-alternates:normal;font-feature-settings:normal;text-indent:0;text-align:start;text-decoration:none;text-decoration-line:none;text-decoration-style:solid;text-decoration-color:#000000;letter-spacing:normal;word-spacing:normal;text-transform:none;writing-mode:lr-tb;direction:ltr;text-orientation:mixed;dominant-baseline:auto;baseline-shift:baseline;text-anchor:start;white-space:normal;shape-padding:0;clip-rule:nonzero;display:inline;overflow:visible;visibility:visible;opacity:1;isolation:auto;mix-blend-mode:normal;color-interpolation:sRGB;color-interpolation-filters:linearRGB;solid-color:#000000;solid-opacity:1;vector-effect:none;fill:#000000;fill-opacity:1;fill-rule:nonzero;stroke:none;stroke-width:10.06088543;stroke-linecap:butt;stroke-linejoin:miter;stroke-miterlimit:4;stroke-dasharray:none;stroke-dashoffset:0;stroke-opacity:1;color-rendering:auto;image-rendering:auto;shape-rendering:auto;text-rendering:auto;enable-background:accumulate"
       d="m 238.22742,557.75015 c 15.27389,34.07255 40.27676,50.18373 40.27676,50.18373 l 5.43979,-8.46331 c 0,0 -22.43998,-14.38905 -36.53629,-45.83466 z"
       id="path9161"
       inkscape:connector-curvature="0" />
    <path
       style="color:#000000;font-style:normal;font-variant:normal;font-weight:normal;font-stretch:normal;font-size:medium;line-height:normal;font-family:sans-serif;font-variant-ligatures:normal;font-variant-position:normal;font-variant-caps:normal;font-variant-numeric:normal;font-variant-alternates:normal;font-feature-settings:normal;text-indent:0;text-align:start;text-decoration:none;text-decoration-line:none;text-decoration-style:solid;text-decoration-color:#000000;letter-spacing:normal;word-spacing:normal;text-transform:none;writing-mode:lr-tb;direction:ltr;text-orientation:mixed;dominant-baseline:auto;baseline-shift:baseline;text-anchor:start;white-space:normal;shape-padding:0;clip-rule:nonzero;display:inline;overflow:visible;visibility:visible;opacity:1;isolation:auto;mix-blend-mode:normal;color-interpolation:sRGB;color-interpolation-filters:linearRGB;solid-color:#000000;solid-opacity:1;vector-effect:none;fill:#000000;fill-opacity:1;fill-rule:nonzero;stroke:none;stroke-width:10.06088543;stroke-linecap:butt;stroke-linejoin:miter;stroke-miterlimit:4;stroke-dasharray:none;stroke-dashoffset:0;stroke-opacity:1;color-rendering:auto;image-rendering:auto;shape-rendering:auto;text-rendering:auto;enable-background:accumulate"
       d="m 222.98342,550.11222 c 20.81913,34.33792 19.88752,74.34952 19.88752,74.34952 l -10e-4,0.0818 -2.8e-4,0.0806 c 0,0 0.0991,13.27866 -9.17327,28.34806 -9.27239,15.06945 -27.6802,31.77727 -66.74484,37.47423 l 1.45048,9.95423 c 41.45094,-6.04498 63.15243,-24.74815 73.86334,-42.15539 10.65263,-17.31262 10.66293,-33.43337 10.66274,-33.60863 0.009,-0.29665 1.24947,-42.48031 -21.34186,-79.74219 z"
       id="path9163"
       inkscape:connector-curvature="0" />
    <path
       style="color:#000000;font-style:normal;font-variant:normal;font-weight:normal;font-stretch:normal;font-size:medium;line-height:normal;font-family:sans-serif;font-variant-ligatures:normal;font-variant-position:normal;font-variant-caps:normal;font-variant-numeric:normal;font-variant-alternates:normal;font-feature-settings:normal;text-indent:0;text-align:start;text-decoration:none;text-decoration-line:none;text-decoration-style:solid;text-decoration-color:#000000;letter-spacing:normal;word-spacing:normal;text-transform:none;writing-mode:lr-tb;direction:ltr;text-orientation:mixed;dominant-baseline:auto;baseline-shift:baseline;text-anchor:start;white-space:normal;shape-padding:0;clip-rule:nonzero;display:inline;overflow:visible;visibility:visible;opacity:1;isolation:auto;mix-blend-mode:normal;color-interpolation:sRGB;color-interpolation-filters:linearRGB;solid-color:#000000;solid-opacity:1;vector-effect:none;fill:#000000;fill-opacity:1;fill-rule:nonzero;stroke:none;stroke-width:10.06088543;stroke-linecap:butt;stroke-linejoin:miter;stroke-miterlimit:4;stroke-dasharray:none;stroke-dashoffset:0;stroke-opacity:1;color-rendering:auto;image-rendering:auto;shape-rendering:auto;text-rendering:auto;enable-background:accumulate"
       d="m 195.83725,406.80297 -9.97083,10.07927 3.93078,3.88914 c 0.0493,0.48654 0.10061,0.82982 0.14589,1.38253 0.23029,2.78181 0.41752,6.28937 0.5614,9.69577 0.28761,6.8128 0.40291,13.2306 0.40291,13.2306 l 0.0112,-0.43074 c -1.58202,23.27814 6.57358,49.33809 14.92018,69.85455 8.34662,20.51647 17.09892,35.53169 17.09892,35.53169 l 8.69396,-5.06465 c 0,0 -8.40402,-14.42525 -16.47221,-34.25755 -8.06829,-19.83226 -15.58652,-45.02965 -14.20331,-65.38319 l 0.0152,-0.21534 -0.005,-0.21528 c 0,0 -0.11722,-6.51008 -0.41123,-13.47514 -0.14707,-3.48253 -0.33634,-7.07733 -0.58637,-10.09871 -0.12503,-1.5107 -0.26322,-2.87428 -0.43214,-4.06422 -0.1689,-1.18996 -0.22736,-2.02184 -0.81145,-3.44035 z"
       id="path9165"
       inkscape:connector-curvature="0" />
    <path
       style="color:#000000;font-style:normal;font-variant:normal;font-weight:normal;font-stretch:normal;font-size:medium;line-height:normal;font-family:sans-serif;font-variant-ligatures:normal;font-variant-position:normal;font-variant-caps:normal;font-variant-numeric:normal;font-variant-alternates:normal;font-feature-settings:normal;text-indent:0;text-align:start;text-decoration:none;text-decoration-line:none;text-decoration-style:solid;text-decoration-color:#000000;letter-spacing:normal;word-spacing:normal;text-transform:none;writing-mode:lr-tb;direction:ltr;text-orientation:mixed;dominant-baseline:auto;baseline-shift:baseline;text-anchor:start;white-space:normal;shape-padding:0;clip-rule:nonzero;display:inline;overflow:visible;visibility:visible;opacity:1;isolation:auto;mix-blend-mode:normal;color-interpolation:sRGB;color-interpolation-filters:linearRGB;solid-color:#000000;solid-opacity:1;vector-effect:none;fill:#000000;fill-opacity:1;fill-rule:nonzero;stroke:none;stroke-width:10.06088543;stroke-linecap:butt;stroke-linejoin:miter;stroke-miterlimit:4;stroke-dasharray:none;stroke-dashoffset:0;stroke-opacity:1;color-rendering:auto;image-rendering:auto;shape-rendering:auto;text-rendering:auto;enable-background:accumulate"
       d="m 194.48111,406.22218 c -0.0722,-0.53399 -0.47736,1.48258 -1.61592,3.10547 -1.13856,1.62289 -2.35658,2.8623 -2.35658,2.8623 l 7.13494,7.09332 c 0,0 1.7589,-1.75604 3.45704,-4.1768 1.69827,-2.42062 3.98719,-5.49534 3.35143,-10.22376 z"
       id="path9167"
       inkscape:connector-curvature="0" />
    <path
       style="color:#000000;font-style:normal;font-variant:normal;font-weight:normal;font-stretch:normal;font-size:medium;line-height:normal;font-family:sans-serif;font-variant-ligatures:normal;font-variant-position:normal;font-variant-caps:normal;font-variant-numeric:normal;font-variant-alternates:normal;font-feature-settings:normal;text-indent:0;text-align:start;text-decoration:none;text-decoration-line:none;text-decoration-style:solid;text-decoration-color:#000000;letter-spacing:normal;word-spacing:normal;text-transform:none;writing-mode:lr-tb;direction:ltr;text-orientation:mixed;dominant-baseline:auto;baseline-shift:baseline;text-anchor:start;white-space:normal;shape-padding:0;clip-rule:nonzero;display:inline;overflow:visible;visibility:visible;opacity:1;isolation:auto;mix-blend-mode:normal;color-interpolation:sRGB;color-interpolation-filters:linearRGB;solid-color:#000000;solid-opacity:1;vector-effect:none;fill:#000000;fill-opacity:1;fill-rule:nonzero;stroke:none;stroke-width:10.06088543;stroke-linecap:butt;stroke-linejoin:miter;stroke-miterlimit:4;stroke-dasharray:none;stroke-dashoffset:0;stroke-opacity:1;color-rendering:auto;image-rendering:auto;shape-rendering:auto;text-rendering:auto;enable-background:accumulate"
       d="m 188.84826,400.28632 c -1.51336,1.52753 -2.84904,3.53924 -3.6849,6.047 l 9.54569,3.1819 c 0.79915,-2.3976 1.61322,-2.65128 2.38291,-2.93596 0.76968,-0.28467 1.16021,-0.23203 1.16021,-0.23203 l 1.30194,-9.97784 c 0,0 -2.85816,-0.37107 -5.95391,0.77395 -1.54784,0.57248 -3.23868,1.6155 -4.75194,3.14298 z"
       id="path9169"
       inkscape:connector-curvature="0" />
    <path
       style="color:#000000;font-style:normal;font-variant:normal;font-weight:normal;font-stretch:normal;font-size:medium;line-height:normal;font-family:sans-serif;font-variant-ligatures:normal;font-variant-position:normal;font-variant-caps:normal;font-variant-numeric:normal;font-variant-alternates:normal;font-feature-settings:normal;text-indent:0;text-align:start;text-decoration:none;text-decoration-line:none;text-decoration-style:solid;text-decoration-color:#000000;letter-spacing:normal;word-spacing:normal;text-transform:none;writing-mode:lr-tb;direction:ltr;text-orientation:mixed;dominant-baseline:auto;baseline-shift:baseline;text-anchor:start;white-space:normal;shape-padding:0;clip-rule:nonzero;display:inline;overflow:visible;visibility:visible;opacity:1;isolation:auto;mix-blend-mode:normal;color-interpolation:sRGB;color-interpolation-filters:linearRGB;solid-color:#000000;solid-opacity:1;vector-effect:none;fill:#000000;fill-opacity:1;fill-rule:nonzero;stroke:none;stroke-width:10.06088543;stroke-linecap:butt;stroke-linejoin:miter;stroke-miterlimit:4;stroke-dasharray:none;stroke-dashoffset:0;stroke-opacity:1;color-rendering:auto;image-rendering:auto;shape-rendering:auto;text-rendering:auto;enable-background:accumulate"
       d="m 260.97593,415.86514 -5.00073,8.73008 c 0,0 30.07785,17.32662 51.89,46.47382 l 8.05619,-6.02754 c -23.31805,-31.15951 -54.94546,-49.17636 -54.94546,-49.17636 z"
       id="path9171"
       inkscape:connector-curvature="0" />
    <path
       style="color:#000000;font-style:normal;font-variant:normal;font-weight:normal;font-stretch:normal;font-size:medium;line-height:normal;font-family:sans-serif;font-variant-ligatures:normal;font-variant-position:normal;font-variant-caps:normal;font-variant-numeric:normal;font-variant-alternates:normal;font-feature-settings:normal;text-indent:0;text-align:start;text-decoration:none;text-decoration-line:none;text-decoration-style:solid;text-decoration-color:#000000;letter-spacing:normal;word-spacing:normal;text-transform:none;writing-mode:lr-tb;direction:ltr;text-orientation:mixed;dominant-baseline:auto;baseline-shift:baseline;text-anchor:start;white-space:normal;shape-padding:0;clip-rule:nonzero;display:inline;overflow:visible;visibility:visible;opacity:1;isolation:auto;mix-blend-mode:normal;color-interpolation:sRGB;color-interpolation-filters:linearRGB;solid-color:#000000;solid-opacity:1;vector-effect:none;fill:#000000;fill-opacity:1;fill-rule:nonzero;stroke:none;stroke-width:10.06088543;stroke-linecap:butt;stroke-linejoin:miter;stroke-miterlimit:4;stroke-dasharray:none;stroke-dashoffset:0;stroke-opacity:1;color-rendering:auto;image-rendering:auto;shape-rendering:auto;text-rendering:auto;enable-background:accumulate"
       d="m 278.13874,413.83927 c 0,0 15.89703,18.59444 36.98926,28.60794 l 4.31433,-9.08856 c -18.44662,-8.7575 -33.70038,-26.10826 -33.70038,-26.10826 z"
       id="path9173"
       inkscape:connector-curvature="0" />
    <path
       style="color:#000000;font-style:normal;font-variant:normal;font-weight:normal;font-stretch:normal;font-size:medium;line-height:normal;font-family:sans-serif;font-variant-ligatures:normal;font-variant-position:normal;font-variant-caps:normal;font-variant-numeric:normal;font-variant-alternates:normal;font-feature-settings:normal;text-indent:0;text-align:start;text-decoration:none;text-decoration-line:none;text-decoration-style:solid;text-decoration-color:#000000;letter-spacing:normal;word-spacing:normal;text-transform:none;writing-mode:lr-tb;direction:ltr;text-orientation:mixed;dominant-baseline:auto;baseline-shift:baseline;text-anchor:start;white-space:normal;shape-padding:0;clip-rule:nonzero;display:inline;overflow:visible;visibility:visible;opacity:1;isolation:auto;mix-blend-mode:normal;color-interpolation:sRGB;color-interpolation-filters:linearRGB;solid-color:#000000;solid-opacity:1;vector-effect:none;fill:#000000;fill-opacity:1;fill-rule:nonzero;stroke:none;stroke-width:10.06088543;stroke-linecap:butt;stroke-linejoin:miter;stroke-miterlimit:4;stroke-dasharray:none;stroke-dashoffset:0;stroke-opacity:1;color-rendering:auto;image-rendering:auto;shape-rendering:auto;text-rendering:auto;enable-background:accumulate"
       d="m 295.91153,371.9674 c 0,0 0.27166,1.96928 1.21304,4.3032 0.94135,2.33393 2.60003,5.43068 5.4523,8.87598 5.70455,6.89062 16.13382,15.11304 34.95924,21.93984 l 3.43061,-9.45817 c -17.51838,-6.35284 -26.26087,-13.60636 -30.64073,-18.89688 -2.18995,-2.64527 -3.30228,-4.81458 -3.87109,-6.22486 -0.56881,-1.41027 -0.54607,-1.6632 -0.54607,-1.6632 z"
       id="path9175"
       inkscape:connector-curvature="0" />
    <path
       style="color:#000000;font-style:normal;font-variant:normal;font-weight:normal;font-stretch:normal;font-size:medium;line-height:normal;font-family:sans-serif;font-variant-ligatures:normal;font-variant-position:normal;font-variant-caps:normal;font-variant-numeric:normal;font-variant-alternates:normal;font-feature-settings:normal;text-indent:0;text-align:start;text-decoration:none;text-decoration-line:none;text-decoration-style:solid;text-decoration-color:#000000;letter-spacing:normal;word-spacing:normal;text-transform:none;writing-mode:lr-tb;direction:ltr;text-orientation:mixed;dominant-baseline:auto;baseline-shift:baseline;text-anchor:start;white-space:normal;shape-padding:0;clip-rule:nonzero;display:inline;overflow:visible;visibility:visible;opacity:1;isolation:auto;mix-blend-mode:normal;color-interpolation:sRGB;color-interpolation-filters:linearRGB;solid-color:#000000;solid-opacity:1;vector-effect:none;fill:#000000;fill-opacity:1;fill-rule:nonzero;stroke:none;stroke-width:10.06088543;stroke-linecap:butt;stroke-linejoin:miter;stroke-miterlimit:4;stroke-dasharray:none;stroke-dashoffset:0;stroke-opacity:1;color-rendering:auto;image-rendering:auto;shape-rendering:auto;text-rendering:auto;enable-background:accumulate"
       d="m 199.7,302.69227 c -0.2035,7.22467 3.84954,13.01035 7.41842,17.22812 3.56888,4.21777 7.1836,7.03352 7.1836,7.03352 l 6.19707,-7.92557 c 0,0 -2.86283,-2.2523 -5.70102,-5.60653 -2.83822,-3.35425 -5.11991,-7.64536 -5.04104,-10.4461 z"
       id="path9179"
       inkscape:connector-curvature="0" />
    <path
       style="color:#000000;font-style:normal;font-variant:normal;font-weight:normal;font-stretch:normal;font-size:medium;line-height:normal;font-family:sans-serif;font-variant-ligatures:normal;font-variant-position:normal;font-variant-caps:normal;font-variant-numeric:normal;font-variant-alternates:normal;font-feature-settings:normal;text-indent:0;text-align:start;text-decoration:none;text-decoration-line:none;text-decoration-style:solid;text-decoration-color:#000000;letter-spacing:normal;word-spacing:normal;text-transform:none;writing-mode:lr-tb;direction:ltr;text-orientation:mixed;dominant-baseline:auto;baseline-shift:baseline;text-anchor:start;white-space:normal;shape-padding:0;clip-rule:nonzero;display:inline;overflow:visible;visibility:visible;opacity:1;isolation:auto;mix-blend-mode:normal;color-interpolation:sRGB;color-interpolation-filters:linearRGB;solid-color:#000000;solid-opacity:1;vector-effect:none;fill:#000000;fill-opacity:1;fill-rule:nonzero;stroke:none;stroke-width:10.06088543;stroke-linecap:butt;stroke-linejoin:miter;stroke-miterlimit:4;stroke-dasharray:none;stroke-dashoffset:0;stroke-opacity:1;color-rendering:auto;image-rendering:auto;shape-rendering:auto;text-rendering:auto;enable-background:accumulate"
       d="m 183.3028,331.64757 -4.01419,9.22474 c 13.67493,5.95043 17.9548,14.75624 17.9548,14.75624 l 8.96907,-4.55887 c 0,0 -6.42338,-12.24835 -22.90968,-19.42211 z"
       id="path12886"
       inkscape:connector-curvature="0" />
    <path
       style="color:#000000;font-style:normal;font-variant:normal;font-weight:normal;font-stretch:normal;font-size:medium;line-height:normal;font-family:sans-serif;font-variant-ligatures:normal;font-variant-position:normal;font-variant-caps:normal;font-variant-numeric:normal;font-variant-alternates:normal;font-feature-settings:normal;text-indent:0;text-align:start;text-decoration:none;text-decoration-line:none;text-decoration-style:solid;text-decoration-color:#000000;letter-spacing:normal;word-spacing:normal;text-transform:none;writing-mode:lr-tb;direction:ltr;text-orientation:mixed;dominant-baseline:auto;baseline-shift:baseline;text-anchor:start;white-space:normal;shape-padding:0;clip-rule:nonzero;display:inline;overflow:visible;visibility:visible;opacity:1;isolation:auto;mix-blend-mode:normal;color-interpolation:sRGB;color-interpolation-filters:linearRGB;solid-color:#000000;solid-opacity:1;vector-effect:none;fill:#000000;fill-opacity:1;fill-rule:nonzero;stroke:none;stroke-width:10.06088543;stroke-linecap:butt;stroke-linejoin:miter;stroke-miterlimit:4;stroke-dasharray:none;stroke-dashoffset:0;stroke-opacity:1;color-rendering:auto;image-rendering:auto;shape-rendering:auto;text-rendering:auto;enable-background:accumulate"
       d="m 118.70186,283.94265 c 7.25853,17.79381 20.78096,39.40003 20.78096,39.40003 l 0.1663,0.26689 0.1974,0.24453 c 15.64749,19.27596 41.74402,17.42821 41.74402,17.42821 l -0.59057,-10.04451 c 0,0 -21.24869,0.91652 -33.18634,-13.5724 -0.36501,-0.59055 -13.22141,-21.40411 -19.79721,-37.52425 z"
       id="path12888"
       inkscape:connector-curvature="0" />
    <path
       style="color:#000000;font-style:normal;font-variant:normal;font-weight:normal;font-stretch:normal;font-size:medium;line-height:normal;font-family:sans-serif;font-variant-ligatures:normal;font-variant-position:normal;font-variant-caps:normal;font-variant-numeric:normal;font-variant-alternates:normal;font-feature-settings:normal;text-indent:0;text-align:start;text-decoration:none;text-decoration-line:none;text-decoration-style:solid;text-decoration-color:#000000;letter-spacing:normal;word-spacing:normal;text-transform:none;writing-mode:lr-tb;direction:ltr;text-orientation:mixed;dominant-baseline:auto;baseline-shift:baseline;text-anchor:start;white-space:normal;shape-padding:0;clip-rule:nonzero;display:inline;overflow:visible;visibility:visible;opacity:1;isolation:auto;mix-blend-mode:normal;color-interpolation:sRGB;color-interpolation-filters:linearRGB;solid-color:#000000;solid-opacity:1;vector-effect:none;fill:#000000;fill-opacity:1;fill-rule:nonzero;stroke:none;stroke-width:10.06088543;stroke-linecap:butt;stroke-linejoin:miter;stroke-miterlimit:4;stroke-dasharray:none;stroke-dashoffset:0;stroke-opacity:1;color-rendering:auto;image-rendering:auto;shape-rendering:auto;text-rendering:auto;enable-background:accumulate"
       d="m 180.28071,283.12844 c 2.87108,6.89054 8.91385,11.27764 13.99755,14.34774 5.08377,3.07008 9.61935,4.75617 9.61935,4.75617 l 3.51955,-9.42483 c 0,0 -3.71409,-1.39386 -7.93808,-3.94473 -4.22399,-2.55086 -8.54612,-6.32661 -9.91117,-9.60267 z"
       id="path12890"
       inkscape:connector-curvature="0" />
    <path
       style="color:#000000;font-style:normal;font-variant:normal;font-weight:normal;font-stretch:normal;font-size:medium;line-height:normal;font-family:sans-serif;font-variant-ligatures:normal;font-variant-position:normal;font-variant-caps:normal;font-variant-numeric:normal;font-variant-alternates:normal;font-feature-settings:normal;text-indent:0;text-align:start;text-decoration:none;text-decoration-line:none;text-decoration-style:solid;text-decoration-color:#000000;letter-spacing:normal;word-spacing:normal;text-transform:none;writing-mode:lr-tb;direction:ltr;text-orientation:mixed;dominant-baseline:auto;baseline-shift:baseline;text-anchor:start;white-space:normal;shape-padding:0;clip-rule:nonzero;display:inline;overflow:visible;visibility:visible;opacity:1;isolation:auto;mix-blend-mode:normal;color-interpolation:sRGB;color-interpolation-filters:linearRGB;solid-color:#000000;solid-opacity:1;vector-effect:none;fill:#000000;fill-opacity:1;fill-rule:nonzero;stroke:none;stroke-width:10.06088543;stroke-linecap:butt;stroke-linejoin:miter;stroke-miterlimit:4;stroke-dasharray:none;stroke-dashoffset:0;stroke-opacity:1;color-rendering:auto;image-rendering:auto;shape-rendering:auto;text-rendering:auto;enable-background:accumulate"
       d="m 268.83203,295.2641 c 0.34901,0.94726 0.14132,3.34552 -0.62667,5.48985 -0.76795,2.14431 -1.72295,3.69878 -1.72295,3.69878 l 8.54946,5.30364 c 0,0 1.4915,-2.38835 2.64555,-5.6107 1.15407,-3.22239 2.34387,-7.61546 0.59609,-12.35941 z"
       id="path12892"
       inkscape:connector-curvature="0" />
    <path
       style="color:#000000;font-style:normal;font-variant:normal;font-weight:normal;font-stretch:normal;font-size:medium;line-height:normal;font-family:sans-serif;font-variant-ligatures:normal;font-variant-position:normal;font-variant-caps:normal;font-variant-numeric:normal;font-variant-alternates:normal;font-feature-settings:normal;text-indent:0;text-align:start;text-decoration:none;text-decoration-line:none;text-decoration-style:solid;text-decoration-color:#000000;letter-spacing:normal;word-spacing:normal;text-transform:none;writing-mode:lr-tb;direction:ltr;text-orientation:mixed;dominant-baseline:auto;baseline-shift:baseline;text-anchor:start;white-space:normal;shape-padding:0;clip-rule:nonzero;display:inline;overflow:visible;visibility:visible;opacity:1;isolation:auto;mix-blend-mode:normal;color-interpolation:sRGB;color-interpolation-filters:linearRGB;solid-color:#000000;solid-opacity:1;vector-effect:none;fill:#000000;fill-opacity:1;fill-rule:nonzero;stroke:none;stroke-width:10.06088543;stroke-linecap:butt;stroke-linejoin:miter;stroke-miterlimit:4;stroke-dasharray:none;stroke-dashoffset:0;stroke-opacity:1;color-rendering:auto;image-rendering:auto;shape-rendering:auto;text-rendering:auto;enable-background:accumulate"
       d="m 147.5779,328.95061 c 0.38192,4.45591 -1.36143,8.16718 -5.17581,12.57058 -3.81429,4.40339 -9.61258,9.02519 -15.87327,14.14764 l 6.36935,7.78663 c 6.165,-5.04412 12.32921,-9.82937 17.10853,-15.34675 4.77932,-5.51739 8.26129,-12.24163 7.59497,-20.01681 z"
       id="path12894"
       inkscape:connector-curvature="0" />
    <path
       style="color:#000000;font-style:normal;font-variant:normal;font-weight:normal;font-stretch:normal;font-size:medium;line-height:normal;font-family:sans-serif;font-variant-ligatures:normal;font-variant-position:normal;font-variant-caps:normal;font-variant-numeric:normal;font-variant-alternates:normal;font-feature-settings:normal;text-indent:0;text-align:start;text-decoration:none;text-decoration-line:none;text-decoration-style:solid;text-decoration-color:#000000;letter-spacing:normal;word-spacing:normal;text-transform:none;writing-mode:lr-tb;direction:ltr;text-orientation:mixed;dominant-baseline:auto;baseline-shift:baseline;text-anchor:start;white-space:normal;shape-padding:0;clip-rule:nonzero;display:inline;overflow:visible;visibility:visible;opacity:1;isolation:auto;mix-blend-mode:normal;color-interpolation:sRGB;color-interpolation-filters:linearRGB;solid-color:#000000;solid-opacity:1;vector-effect:none;fill:#000000;fill-opacity:1;fill-rule:nonzero;stroke:none;stroke-width:10.06088543;stroke-linecap:butt;stroke-linejoin:miter;stroke-miterlimit:4;stroke-dasharray:none;stroke-dashoffset:0;stroke-opacity:1;color-rendering:auto;image-rendering:auto;shape-rendering:auto;text-rendering:auto;enable-background:accumulate"
       d="m 82.304494,369.92488 c 0,0 3.72454,11.04375 6.93356,23.65444 1.604107,6.30545 3.070683,12.99341 3.869618,18.7371 0.798934,5.74369 0.693899,10.72718 0.173751,12.39551 l 9.604017,2.99572 c 1.52724,-4.8976 1.06987,-10.43555 0.18763,-16.77794 -0.88234,-6.34237 -2.42436,-13.30413 -4.085113,-19.83061 -3.321601,-13.05295 -7.151579,-24.39226 -7.151579,-24.39226 z"
       id="path12898"
       inkscape:connector-curvature="0" />
    <path
       style="color:#000000;font-style:normal;font-variant:normal;font-weight:normal;font-stretch:normal;font-size:medium;line-height:normal;font-family:sans-serif;font-variant-ligatures:normal;font-variant-position:normal;font-variant-caps:normal;font-variant-numeric:normal;font-variant-alternates:normal;font-feature-settings:normal;text-indent:0;text-align:start;text-decoration:none;text-decoration-line:none;text-decoration-style:solid;text-decoration-color:#000000;letter-spacing:normal;word-spacing:normal;text-transform:none;writing-mode:lr-tb;direction:ltr;text-orientation:mixed;dominant-baseline:auto;baseline-shift:baseline;text-anchor:start;white-space:normal;shape-padding:0;clip-rule:nonzero;display:inline;overflow:visible;visibility:visible;opacity:1;isolation:auto;mix-blend-mode:normal;color-interpolation:sRGB;color-interpolation-filters:linearRGB;solid-color:#000000;solid-opacity:1;vector-effect:none;fill:#000000;fill-opacity:1;fill-rule:nonzero;stroke:none;stroke-width:10.06088543;stroke-linecap:butt;stroke-linejoin:miter;stroke-miterlimit:4;stroke-dasharray:none;stroke-dashoffset:0;stroke-opacity:1;color-rendering:auto;image-rendering:auto;shape-rendering:auto;text-rendering:auto;enable-background:accumulate"
       d="m 147.35012,238.74855 c -1.75481,1.9635 -3.39654,4.26487 -5.14382,6.79454 -3.49466,5.05932 -6.9901,11.06037 -10.14329,16.85991 -6.30636,11.59908 -11.23388,22.42476 -11.23388,22.42476 l 9.1552,4.16983 c 0,0 4.81535,-10.56554 10.91717,-21.78841 3.05087,-5.6114 6.42589,-11.37865 9.5833,-15.94981 3.15731,-4.57114 6.52096,-7.91973 7.44616,-8.41602 l 0.77529,-0.41686 0.58916,-0.65303 c 0,0 -0.43372,0.31829 0.20424,-0.0126 0.63796,-0.33083 1.97526,-0.88341 4.36713,-1.22966 4.78385,-0.69259 13.81621,-0.50185 29.16375,4.09755 l 0.25566,0.075 0.26262,0.0486 c 0,0 9.50115,1.78066 19.76391,3.47648 5.13138,0.8479 10.45148,1.67554 14.92993,2.25511 4.47844,0.57957 7.47079,1.07761 10.55723,0.71142 l -0.42516,0.0306 c 0,0 5.05673,0.0454 8.49386,1.83271 l 0.32236,0.16675 0.34044,0.11809 c 0,0 5.25594,1.83663 11.16859,3.76548 5.91268,1.92887 11.8022,3.91352 15.76501,4.45745 l 0.10278,0.0139 0.10144,0.0101 c 0,0 8.85934,0.833 17.89786,8.09926 l 0.10698,0.0875 20.34472,14.58117 5.86221,-8.17708 -20.23218,-14.50195 0.22091,0.16812 c -11.32997,-9.10833 -23.23761,-10.27093 -23.23761,-10.27093 l 0.20147,0.0236 c -1.12931,-0.15501 -8.21864,-2.16566 -14.01286,-4.05589 -5.79425,-1.89023 -10.97271,-3.69739 -10.97271,-3.69739 l 0.66278,0.28484 c -6.54743,-3.40467 -13.47097,-2.96098 -13.47097,-2.96098 l -0.21396,0.008 -0.21121,0.025 c 0.14098,-0.0167 -3.80755,-0.14446 -8.08119,-0.69753 -4.27363,-0.55305 -9.51581,-1.3667 -14.58116,-2.2037 -10.08256,-1.66601 -19.36932,-3.40701 -19.45823,-3.42366 -16.03743,-4.75701 -26.37005,-5.27454 -33.0696,-4.3046 -3.38196,0.48963 -5.84165,1.36475 -7.55593,2.25372 -1.71426,0.88898 -3.05549,2.21899 -3.05549,2.219 l 1.36174,-1.0699 c -2.20262,1.18153 -4.06993,2.80796 -5.82475,4.77147 z"
       id="path12900"
       inkscape:connector-curvature="0" />
    <path
       style="color:#000000;font-style:normal;font-variant:normal;font-weight:normal;font-stretch:normal;font-size:medium;line-height:normal;font-family:sans-serif;font-variant-ligatures:normal;font-variant-position:normal;font-variant-caps:normal;font-variant-numeric:normal;font-variant-alternates:normal;font-feature-settings:normal;text-indent:0;text-align:start;text-decoration:none;text-decoration-line:none;text-decoration-style:solid;text-decoration-color:#000000;letter-spacing:normal;word-spacing:normal;text-transform:none;writing-mode:lr-tb;direction:ltr;text-orientation:mixed;dominant-baseline:auto;baseline-shift:baseline;text-anchor:start;white-space:normal;shape-padding:0;clip-rule:nonzero;display:inline;overflow:visible;visibility:visible;opacity:1;isolation:auto;mix-blend-mode:normal;color-interpolation:sRGB;color-interpolation-filters:linearRGB;solid-color:#000000;solid-opacity:1;vector-effect:none;fill:#000000;fill-opacity:1;fill-rule:nonzero;stroke:none;stroke-width:10.06088543;stroke-linecap:butt;stroke-linejoin:miter;stroke-miterlimit:4;stroke-dasharray:none;stroke-dashoffset:0;stroke-opacity:1;color-rendering:auto;image-rendering:auto;shape-rendering:auto;text-rendering:auto;enable-background:accumulate"
       d="m 190.73233,433.36698 c 1.79695,5.75043 6.92628,16.78852 11.78968,27.09063 4.8634,10.30213 9.34977,19.40127 9.34977,19.40127 l 9.02469,-4.44772 c 0,0 -4.45598,-9.03921 -9.27615,-19.24981 -4.82015,-10.21061 -10.11572,-22.05718 -11.28399,-25.79563 z"
       id="path12902"
       inkscape:connector-curvature="0" />
    <path
       style="color:#000000;font-style:normal;font-variant:normal;font-weight:normal;font-stretch:normal;font-size:medium;line-height:normal;font-family:sans-serif;font-variant-ligatures:normal;font-variant-position:normal;font-variant-caps:normal;font-variant-numeric:normal;font-variant-alternates:normal;font-feature-settings:normal;text-indent:0;text-align:start;text-decoration:none;text-decoration-line:none;text-decoration-style:solid;text-decoration-color:#000000;letter-spacing:normal;word-spacing:normal;text-transform:none;writing-mode:lr-tb;direction:ltr;text-orientation:mixed;dominant-baseline:auto;baseline-shift:baseline;text-anchor:start;white-space:normal;shape-padding:0;clip-rule:nonzero;display:inline;overflow:visible;visibility:visible;opacity:1;isolation:auto;mix-blend-mode:normal;color-interpolation:sRGB;color-interpolation-filters:linearRGB;solid-color:#000000;solid-opacity:1;vector-effect:none;fill:#000000;fill-opacity:1;fill-rule:nonzero;stroke:none;stroke-width:10.06088543;stroke-linecap:butt;stroke-linejoin:miter;stroke-miterlimit:4;stroke-dasharray:none;stroke-dashoffset:0;stroke-opacity:1;color-rendering:auto;image-rendering:auto;shape-rendering:auto;text-rendering:auto;enable-background:accumulate"
       d="m 323.70523,287.06621 c 0,0 -1.88348,4.98843 -0.42656,11.16444 1.45691,6.17602 6.14933,13.75359 16.90437,20.31416 l 1.44088,0.87954 1.67988,-0.16813 c 0,0 2.77881,-0.34128 5.4676,-2.03557 2.68878,-1.69431 5.69049,-4.91641 7.31559,-9.91672 l -9.56795,-3.10964 c -0.90757,2.79258 -2.08205,3.81366 -2.98875,4.40603 -7.2845,-4.96225 -9.71227,-9.51069 -10.45998,-12.68037 -0.81646,-3.46109 -0.032,-5.09243 -0.032,-5.09243 z"
       id="path12904"
       inkscape:connector-curvature="0" />
    <path
       style="color:#000000;font-style:normal;font-variant:normal;font-weight:normal;font-stretch:normal;font-size:medium;line-height:normal;font-family:sans-serif;font-variant-ligatures:normal;font-variant-position:normal;font-variant-caps:normal;font-variant-numeric:normal;font-variant-alternates:normal;font-feature-settings:normal;text-indent:0;text-align:start;text-decoration:none;text-decoration-line:none;text-decoration-style:solid;text-decoration-color:#000000;letter-spacing:normal;word-spacing:normal;text-transform:none;writing-mode:lr-tb;direction:ltr;text-orientation:mixed;dominant-baseline:auto;baseline-shift:baseline;text-anchor:start;white-space:normal;shape-padding:0;clip-rule:nonzero;display:inline;overflow:visible;visibility:visible;opacity:1;isolation:auto;mix-blend-mode:normal;color-interpolation:sRGB;color-interpolation-filters:linearRGB;solid-color:#000000;solid-opacity:1;vector-effect:none;fill:#000000;fill-opacity:1;fill-rule:nonzero;stroke:none;stroke-width:10.06088543;stroke-linecap:butt;stroke-linejoin:miter;stroke-miterlimit:4;stroke-dasharray:none;stroke-dashoffset:0;stroke-opacity:1;color-rendering:auto;image-rendering:auto;shape-rendering:auto;text-rendering:auto;enable-background:accumulate"
       d="m 7.056014,150.69047 -1.5076236,9.94727 c 0,0 1.7916424,0.23181 3.7627711,2.23425 1.9710275,2.00248 4.2461965,5.74369 2.8317365,15.11474 l 9.950014,1.50204 c 1.748482,-11.58346 -1.382868,-19.37871 -5.610754,-23.6739 -4.227685,-4.29522 -9.426144,-5.1244 -9.426144,-5.1244 z"
       id="path12906"
       inkscape:connector-curvature="0" />
    <path
       style="color:#000000;font-style:normal;font-variant:normal;font-weight:normal;font-stretch:normal;font-size:medium;line-height:normal;font-family:sans-serif;font-variant-ligatures:normal;font-variant-position:normal;font-variant-caps:normal;font-variant-numeric:normal;font-variant-alternates:normal;font-feature-settings:normal;text-indent:0;text-align:start;text-decoration:none;text-decoration-line:none;text-decoration-style:solid;text-decoration-color:#000000;letter-spacing:normal;word-spacing:normal;text-transform:none;writing-mode:lr-tb;direction:ltr;text-orientation:mixed;dominant-baseline:auto;baseline-shift:baseline;text-anchor:start;white-space:normal;shape-padding:0;clip-rule:nonzero;display:inline;overflow:visible;visibility:visible;opacity:1;isolation:auto;mix-blend-mode:normal;color-interpolation:sRGB;color-interpolation-filters:linearRGB;solid-color:#000000;solid-opacity:1;vector-effect:none;fill:#000000;fill-opacity:1;fill-rule:nonzero;stroke:none;stroke-width:10.06088543;stroke-linecap:butt;stroke-linejoin:miter;stroke-miterlimit:4;stroke-dasharray:none;stroke-dashoffset:0;stroke-opacity:1;color-rendering:auto;image-rendering:auto;shape-rendering:auto;text-rendering:auto;enable-background:accumulate"
       d="m 70.65922,201.69678 5.923447,8.13259 c 1.486798,-1.08327 5.701001,-1.84939 5.701001,-1.84939 l -0.875398,-10.0237 c 0,0 -5.762573,0.10743 -10.74905,3.7405 z"
       id="path12908"
       inkscape:connector-curvature="0" />
    <path
       style="color:#000000;font-style:normal;font-variant:normal;font-weight:normal;font-stretch:normal;font-size:medium;line-height:normal;font-family:sans-serif;font-variant-ligatures:normal;font-variant-position:normal;font-variant-caps:normal;font-variant-numeric:normal;font-variant-alternates:normal;font-feature-settings:normal;text-indent:0;text-align:start;text-decoration:none;text-decoration-line:none;text-decoration-style:solid;text-decoration-color:#000000;letter-spacing:normal;word-spacing:normal;text-transform:none;writing-mode:lr-tb;direction:ltr;text-orientation:mixed;dominant-baseline:auto;baseline-shift:baseline;text-anchor:start;white-space:normal;shape-padding:0;clip-rule:nonzero;display:inline;overflow:visible;visibility:visible;opacity:1;isolation:auto;mix-blend-mode:normal;color-interpolation:sRGB;color-interpolation-filters:linearRGB;solid-color:#000000;solid-opacity:1;vector-effect:none;fill:#000000;fill-opacity:1;fill-rule:nonzero;stroke:none;stroke-width:10.06088543;stroke-linecap:butt;stroke-linejoin:miter;stroke-miterlimit:4;stroke-dasharray:none;stroke-dashoffset:0;stroke-opacity:1;color-rendering:auto;image-rendering:auto;shape-rendering:auto;text-rendering:auto;enable-background:accumulate"
       d="m 105.53648,268.37081 c -1.31837,1.26556 -2.5782,2.81433 -3.59445,4.69223 l 8.84814,4.78815 c 1.61126,-2.97721 6.36653,-4.9882 6.36653,-4.9882 l -3.18326,-9.54432 c 0,0 -4.48142,1.25547 -8.43696,5.05214 z"
       id="path12910"
       inkscape:connector-curvature="0" />
    <path
       inkscape:connector-curvature="0"
       id="path10-9-0-6"
       d="M 764.72626,-33.5279 C 648.91057,-33.55305 569.34799,12.952082 523.58263,82.519683 c -45.7735,69.580387 -58.5455,160.434697 -48.54136,250.369157 10.00415,89.93455 42.82758,179.34514 91.28805,247.24596 48.46057,67.90092 113.70631,115.20216 187.91641,114.76009 74.17509,-0.44188 138.8859,-48.23883 187.06013,-116.36883 48.17413,-68.13 80.93564,-157.50718 91.81604,-247.21839 10.8801,-89.711 -0.016,-180.08683 -42.2855,-249.39154 C 948.5661,12.611521 873.65858,-33.928827 764.72626,-33.5279 Z m 0.0513,30.058403 h 0.0282 0.0322 C 865.42877,-3.8397375 927.81924,36.325228 965.17179,97.567247 1002.5245,158.80926 1013.5763,242.81746 1003.2831,327.68867 992.98944,412.56008 961.456,497.96412 916.76354,561.16992 872.07147,624.37573 815.34599,664.47158 754.06604,664.83659 692.8205,665.20139 635.69742,625.58967 590.79448,562.67302 545.89123,499.75657 514.35498,414.44469 504.91304,329.56603 495.4711,244.68717 508.16855,160.63843 548.69238,99.038249 589.21622,37.438063 656.75937,-3.5084326 764.77595,-3.469497 Z"
       style="color:#000000;font-style:normal;font-variant:normal;font-weight:normal;font-stretch:normal;font-size:medium;line-height:normal;font-family:sans-serif;font-variant-ligatures:normal;font-variant-position:normal;font-variant-caps:normal;font-variant-numeric:normal;font-variant-alternates:normal;font-feature-settings:normal;text-indent:0;text-align:start;text-decoration:none;text-decoration-line:none;text-decoration-style:solid;text-decoration-color:#000000;letter-spacing:normal;word-spacing:normal;text-transform:none;writing-mode:lr-tb;direction:ltr;text-orientation:mixed;dominant-baseline:auto;baseline-shift:baseline;text-anchor:start;white-space:normal;shape-padding:0;clip-rule:nonzero;display:inline;overflow:visible;visibility:visible;opacity:1;isolation:auto;mix-blend-mode:normal;color-interpolation:sRGB;color-interpolation-filters:linearRGB;solid-color:#000000;solid-opacity:1;vector-effect:none;fill:#000000;fill-opacity:1;fill-rule:nonzero;stroke:none;stroke-width:30.05853271;stroke-linecap:butt;stroke-linejoin:miter;stroke-miterlimit:4;stroke-dasharray:none;stroke-dashoffset:0;stroke-opacity:1;color-rendering:auto;image-rendering:auto;shape-rendering:auto;text-rendering:auto;enable-background:accumulate" />
    <path
       inkscape:connector-curvature="0"
       id="path971-9-8"
       d="m 748.68075,328.48277 c 0,0 -1.69617,16.72995 -4.50023,34.30159 -1.40199,8.78577 -3.0894,17.78281 -4.90428,24.77322 -0.90739,3.49515 -1.85885,6.49471 -2.7102,8.56442 -0.85115,2.06973 -1.95081,3.15258 -1.16103,2.49461 -1.66327,1.38588 -3.42291,2.54308 -4.34419,6.22829 -0.46088,1.84255 -0.1989,4.58695 0.97762,6.50365 1.17601,1.9169 2.70577,2.85458 3.86217,3.39877 4.62549,2.17678 7.00066,1.34142 10.1457,1.1245 6.29026,-0.43382 13.10108,-1.83591 13.10108,-1.83591 l -2.94612,-14.73778 c 0,0 -3.21316,0.40837 -5.15661,0.7275 0.99643,-2.67227 1.94003,-5.46094 2.77881,-8.6929 2.02818,-7.81199 3.75332,-17.12726 5.19776,-26.18014 2.88939,-18.10557 4.6104,-35.15746 4.6104,-35.15746 z"
       style="color:#000000;font-style:normal;font-variant:normal;font-weight:normal;font-stretch:normal;font-size:medium;line-height:normal;font-family:sans-serif;font-variant-ligatures:normal;font-variant-position:normal;font-variant-caps:normal;font-variant-numeric:normal;font-variant-alternates:normal;font-feature-settings:normal;text-indent:0;text-align:start;text-decoration:none;text-decoration-line:none;text-decoration-style:solid;text-decoration-color:#000000;letter-spacing:normal;word-spacing:normal;text-transform:none;writing-mode:lr-tb;direction:ltr;text-orientation:mixed;dominant-baseline:auto;baseline-shift:baseline;text-anchor:start;white-space:normal;shape-padding:0;clip-rule:nonzero;display:inline;overflow:visible;visibility:visible;opacity:1;isolation:auto;mix-blend-mode:normal;color-interpolation:sRGB;color-interpolation-filters:linearRGB;solid-color:#000000;solid-opacity:1;vector-effect:none;fill:#000000;fill-opacity:1;fill-rule:nonzero;stroke:none;stroke-width:15.02926636;stroke-linecap:butt;stroke-linejoin:miter;stroke-miterlimit:4;stroke-dasharray:none;stroke-dashoffset:0;stroke-opacity:1;color-rendering:auto;image-rendering:auto;shape-rendering:auto;text-rendering:auto;enable-background:accumulate" />
    <path
       style="color:#000000;font-style:normal;font-variant:normal;font-weight:normal;font-stretch:normal;font-size:medium;line-height:normal;font-family:sans-serif;font-variant-ligatures:normal;font-variant-position:normal;font-variant-caps:normal;font-variant-numeric:normal;font-variant-alternates:normal;font-feature-settings:normal;text-indent:0;text-align:start;text-decoration:none;text-decoration-line:none;text-decoration-style:solid;text-decoration-color:#000000;letter-spacing:normal;word-spacing:normal;text-transform:none;writing-mode:lr-tb;direction:ltr;text-orientation:mixed;dominant-baseline:auto;baseline-shift:baseline;text-anchor:start;white-space:normal;shape-padding:0;clip-rule:nonzero;display:inline;overflow:visible;visibility:visible;opacity:1;isolation:auto;mix-blend-mode:normal;color-interpolation:sRGB;color-interpolation-filters:linearRGB;solid-color:#000000;solid-opacity:1;vector-effect:none;fill:#000000;fill-opacity:1;fill-rule:nonzero;stroke:none;stroke-width:12.0730629;stroke-linecap:butt;stroke-linejoin:miter;stroke-miterlimit:4;stroke-dasharray:none;stroke-dashoffset:0;stroke-opacity:1;color-rendering:auto;image-rendering:auto;shape-rendering:auto;text-rendering:auto;enable-background:accumulate"
       d="m 430.98438,516.42969 -141.3086,121.04297 118.14453,137.61328 -2.68554,-75.50977 C 713.931,746.82081 852.58594,966.27148 852.58594,966.27148 l 10.87695,-4.99023 c 0,0 -97.55747,-317.58556 -448.86328,-374.06055 z m -20.04688,33.06836 -11.00586,47.55664 6.45703,0.96875 C 678.39337,638.87023 796.34403,837.26817 835.56055,923.86328 780.28443,857.81342 639.34876,720.73003 399.69336,686.45898 l -7.14258,-1.02148 0.25586,7.21289 1.72266,48.41992 -87.81836,-102.29101 z"
       id="path13538"
       inkscape:connector-curvature="0" />
    <path
       style="font-style:normal;font-weight:normal;font-size:233.33332825px;line-height:1.25;font-family:sans-serif;letter-spacing:0px;word-spacing:0px;fill:#000000;fill-opacity:1;stroke:none"
       d="M 647.29688 1055.5176 L 626.90234 1098.1289 L 643.87891 1098.1289 L 674.98242 1055.5176 L 647.29688 1055.5176 z M 525.61719 1069.1895 L 525.61719 1246.4688 L 547.03516 1246.4688 L 547.03516 1069.1895 L 525.61719 1069.1895 z M 412.48242 1073.291 C 400.78537 1073.291 389.96181 1075.2652 380.01172 1079.2148 C 370.13759 1083.1645 361.85786 1088.8611 355.17383 1096.3047 C 348.18598 1104.128 342.86849 1113.5471 339.22266 1124.5605 C 335.57682 1135.498 333.75391 1147.8793 333.75391 1161.7031 C 333.75391 1175.7548 335.57682 1188.248 339.22266 1199.1855 C 342.94444 1210.123 348.22461 1219.3516 355.06055 1226.8711 C 361.89648 1234.3906 370.17426 1240.1265 379.89648 1244.0762 C 389.69466 1248.0258 400.55751 1250 412.48242 1250 C 424.71115 1250 435.57205 1248.0632 445.06641 1244.1895 C 454.63672 1240.3158 462.91645 1234.5425 469.9043 1226.8711 C 476.66428 1219.5035 481.90517 1210.3142 485.62695 1199.3008 C 489.4247 1188.2114 491.32227 1175.6788 491.32227 1161.7031 C 491.32227 1147.7274 489.46202 1135.2322 485.74023 1124.2188 C 482.0944 1113.2053 476.81619 1103.9002 469.9043 1096.3047 C 463.14431 1088.9371 454.90191 1083.2797 445.17969 1079.3301 C 435.53342 1075.3045 424.6352 1073.291 412.48242 1073.291 z M 412.5957 1092.7734 C 429.68555 1092.7734 443.16688 1098.7745 453.04102 1110.7754 C 462.91515 1122.7003 467.85352 1139.6762 467.85352 1161.7031 C 467.85352 1183.9579 462.84049 1201.0085 452.81445 1212.8574 C 442.86437 1224.6304 429.45768 1230.5176 412.5957 1230.5176 C 395.73372 1230.5176 382.28971 1224.6304 372.26367 1212.8574 C 362.23763 1201.0085 357.22461 1183.9579 357.22461 1161.7031 C 357.22461 1139.6762 362.1237 1122.7003 371.92188 1110.7754 C 381.79601 1098.7745 395.35395 1092.7734 412.5957 1092.7734 z M 633.16797 1116.1289 C 625.49653 1116.1289 617.71181 1116.8125 609.8125 1118.1797 C 601.91319 1119.5469 595.87478 1120.8001 591.69727 1121.9395 L 591.69727 1143.7012 L 592.83594 1143.7012 C 600.20356 1140.8908 607.34397 1138.7635 614.25586 1137.3203 C 621.16775 1135.8012 627.43403 1135.043 633.05469 1135.043 C 637.68793 1135.043 642.13129 1135.3455 646.38477 1135.9531 C 650.63824 1136.5608 654.28407 1137.7394 657.32227 1139.4863 C 660.51237 1141.3092 662.94227 1143.8158 664.61328 1147.0059 C 666.36024 1150.196 667.23438 1154.2209 667.23438 1159.082 L 667.23438 1162.3867 C 654.77778 1162.9944 643.11936 1163.9058 632.25781 1165.1211 C 621.39627 1166.3364 612.09115 1168.6523 604.34375 1172.0703 C 596.67231 1175.4883 590.74783 1180.1968 586.57031 1186.1973 C 582.46875 1192.1217 580.41797 1199.9084 580.41797 1209.5547 C 580.41797 1221.3277 584.4056 1231.0119 592.38086 1238.6074 C 600.35612 1246.2029 610.07769 1250 621.54688 1250 C 627.77517 1250 633.2066 1249.393 637.83984 1248.1777 C 642.47309 1247.0384 646.57465 1245.5946 650.14453 1243.8477 C 653.18273 1242.4805 656.29622 1240.6576 659.48633 1238.3789 C 662.75239 1236.0243 665.3355 1234.2014 667.23438 1232.9102 L 667.23438 1246.4688 L 688.53906 1246.4688 L 688.53906 1160.1074 C 688.53906 1151.9043 687.28581 1145.031 684.7793 1139.4863 C 682.27279 1133.9416 678.62695 1129.4217 673.8418 1125.9277 C 668.98069 1122.3579 663.20942 1119.8513 656.52539 1118.4082 C 649.91732 1116.8891 642.13064 1116.1289 633.16797 1116.1289 z M 667.23438 1179.7031 L 667.23438 1215.1367 C 661.91753 1219.2383 656.14431 1222.7702 649.91602 1225.7324 C 643.68772 1228.6187 636.81445 1230.0625 629.29492 1230.0625 C 620.25629 1230.0625 613.53429 1228.2396 609.12891 1224.5938 C 604.72352 1220.872 602.52148 1215.3639 602.52148 1208.0723 C 602.52148 1201.6161 604.41905 1196.5658 608.2168 1192.9199 C 612.01454 1189.1981 616.99023 1186.4638 623.14258 1184.7168 C 628.30751 1183.2737 635.29471 1182.1717 644.10547 1181.4121 C 652.99219 1180.6526 660.70226 1180.0829 667.23438 1179.7031 z "
       transform="translate(0,-33.729184)"
       id="text13542" />
    <path
       inkscape:connector-curvature="0"
       id="path29-8-7-9-1"
       d="m 858.21371,481.15891 c -56.8673,55.9831 -105.8237,58.2024 -143.1848,46.4022 -18.6806,-5.9001 -34.4333,-15.6039 -46.1445,-24.5183 -11.7111,-8.9145 -19.0449,-16.692 -22.1143,-19.733 l -10.5153,10.6113 c 2.3654,2.3433 10.9001,11.3555 23.581,21.0079 12.6806,9.6524 29.8419,20.2906 50.6951,26.8769 41.706,13.1726 98.2861,8.943 158.1615,-50.0016 z"
       style="color:#000000;font-style:normal;font-variant:normal;font-weight:normal;font-stretch:normal;font-size:medium;line-height:normal;font-family:sans-serif;font-variant-ligatures:normal;font-variant-position:normal;font-variant-caps:normal;font-variant-numeric:normal;font-variant-alternates:normal;font-feature-settings:normal;text-indent:0;text-align:start;text-decoration:none;text-decoration-line:none;text-decoration-style:solid;text-decoration-color:#000000;letter-spacing:normal;word-spacing:normal;text-transform:none;writing-mode:lr-tb;direction:ltr;text-orientation:mixed;dominant-baseline:auto;baseline-shift:baseline;text-anchor:start;white-space:normal;shape-padding:0;clip-rule:nonzero;display:inline;overflow:visible;visibility:visible;opacity:1;isolation:auto;mix-blend-mode:normal;color-interpolation:sRGB;color-interpolation-filters:linearRGB;solid-color:#000000;solid-opacity:1;vector-effect:none;fill:#000000;fill-opacity:1;fill-rule:nonzero;stroke:none;stroke-width:14.93831348;stroke-linecap:butt;stroke-linejoin:miter;stroke-miterlimit:4;stroke-dasharray:none;stroke-dashoffset:0;stroke-opacity:1;color-rendering:auto;image-rendering:auto;shape-rendering:auto;text-rendering:auto;enable-background:accumulate" />
    <path
       inkscape:connector-curvature="0"
       id="path87-11-5-36-8"
       d="m 653.74551,205.5463 c -14.8287,0.1414 -26.8201,6.1022 -34.543,15.0226 -7.7442,8.9445 -11.345,20.4892 -11.2409,31.8563 0.1039,11.3672 3.9107,22.7723 11.749,31.4458 7.8152,8.64751 19.8103,14.18141 34.3292,13.72931 14.2403,-0.037 25.8278,-6.0817 33.1839,-15.00891 7.3785,-8.9548 10.7689,-20.4229 10.6954,-31.7309 -0.073,-11.3081 -3.6068,-22.6687 -11.0651,-31.4024 -7.4389,-8.711 -19.0709,-14.3964 -33.1085,-13.9118 z m 0.445,14.9222 c 10.0172,-0.3685 16.5527,3.1265 21.3042,8.6906 4.7516,5.5642 7.4333,13.6003 7.4862,21.7995 0.052,8.1992 -2.5194,16.3482 -7.2876,22.1348 -4.7678,5.7864 -11.47,9.5824 -21.7789,9.5824 h -0.1254 l -0.1254,0.01 c -10.7223,0.3601 -17.8369,-3.2542 -22.8716,-8.8252 -5.0347,-5.5709 -7.8205,-13.4841 -7.8943,-21.5668 -0.074,-8.0827 2.56,-16.1195 7.6003,-21.9408 5.0397,-5.8214 12.3417,-9.7921 23.4711,-9.8745 l 0.1123,-0.01 z"
       style="color:#000000;font-style:normal;font-variant:normal;font-weight:normal;font-stretch:normal;font-size:medium;line-height:normal;font-family:sans-serif;font-variant-ligatures:normal;font-variant-position:normal;font-variant-caps:normal;font-variant-numeric:normal;font-variant-alternates:normal;font-feature-settings:normal;text-indent:0;text-align:start;text-decoration:none;text-decoration-line:none;text-decoration-style:solid;text-decoration-color:#000000;letter-spacing:normal;word-spacing:normal;text-transform:none;writing-mode:lr-tb;direction:ltr;text-orientation:mixed;dominant-baseline:auto;baseline-shift:baseline;text-anchor:start;white-space:normal;shape-padding:0;clip-rule:nonzero;display:inline;overflow:visible;visibility:visible;opacity:1;isolation:auto;mix-blend-mode:normal;color-interpolation:sRGB;color-interpolation-filters:linearRGB;solid-color:#000000;solid-opacity:1;vector-effect:none;fill:#000000;fill-opacity:1;fill-rule:nonzero;stroke:none;stroke-width:14.93831348;stroke-linecap:butt;stroke-linejoin:miter;stroke-miterlimit:4;stroke-dasharray:none;stroke-dashoffset:0;stroke-opacity:1;color-rendering:auto;image-rendering:auto;shape-rendering:auto;text-rendering:auto;enable-background:accumulate" />
    <path
       inkscape:connector-curvature="0"
       id="path1039-2-1"
       d="m 579.45371,156.5438 -8.4488,16.5007 c 0,0 37.3886,19.1414 75.1381,38.2887 18.8749,9.5736 37.8377,19.149 52.2893,26.3454 7.226,3.5982 13.3173,6.5995 17.7509,8.7294 2.2167,1.0649 4.009,1.9067 5.3965,2.5296 0.6943,0.3115 1.2738,0.565 1.8683,0.8006 0.2972,0.1179 0.586,0.2309 1.0245,0.3718 0.4379,0.141 0.4016,0.4996 3.077,0.4996 V 232.072 c 2.5872,0 2.3908,0.3227 2.6003,0.3901 0.2093,0.067 0.2002,0.07 0.1323,0.043 -0.1363,-0.054 -0.5557,-0.2298 -1.1111,-0.479 -1.1105,-0.4984 -2.8187,-1.3008 -4.9586,-2.3288 -4.2804,-2.0563 -10.3302,-5.035 -17.5159,-8.6131 -14.3712,-7.1563 -33.3147,-16.7184 -52.1685,-26.2815 -37.7079,-19.1264 -75.0743,-38.2591 -75.0743,-38.2591 z"
       style="color:#000000;font-style:normal;font-variant:normal;font-weight:normal;font-stretch:normal;font-size:medium;line-height:normal;font-family:sans-serif;font-variant-ligatures:normal;font-variant-position:normal;font-variant-caps:normal;font-variant-numeric:normal;font-variant-alternates:normal;font-feature-settings:normal;text-indent:0;text-align:start;text-decoration:none;text-decoration-line:none;text-decoration-style:solid;text-decoration-color:#000000;letter-spacing:normal;word-spacing:normal;text-transform:none;writing-mode:lr-tb;direction:ltr;text-orientation:mixed;dominant-baseline:auto;baseline-shift:baseline;text-anchor:start;white-space:normal;shape-padding:0;clip-rule:nonzero;display:inline;overflow:visible;visibility:visible;opacity:1;isolation:auto;mix-blend-mode:normal;color-interpolation:sRGB;color-interpolation-filters:linearRGB;solid-color:#000000;solid-opacity:1;vector-effect:none;fill:#000000;fill-opacity:1;fill-rule:nonzero;stroke:none;stroke-width:18.53732491;stroke-linecap:butt;stroke-linejoin:miter;stroke-miterlimit:4;stroke-dasharray:none;stroke-dashoffset:0;stroke-opacity:1;color-rendering:auto;image-rendering:auto;shape-rendering:auto;text-rendering:auto;enable-background:accumulate" />
    <path
       inkscape:connector-curvature="0"
       id="path87-11-5-3-7-2"
       d="m 852.62971,205.5463 c -14.037,-0.4846 -25.6693,5.2008 -33.1083,13.9118 -7.4587,8.7337 -10.9919,20.0943 -11.0654,31.4024 -0.073,11.308 3.3172,22.7761 10.6958,31.7309 7.3564,8.92771 18.9424,14.97241 33.1836,15.00891 14.5192,0.4521 26.514,-5.0818 34.3291,-13.72931 7.8387,-8.6735 11.6453,-20.0786 11.7494,-31.4458 0.1038,-11.3671 -3.4992,-22.9118 -11.243,-31.8563 -7.7229,-8.9204 -19.7121,-14.8812 -34.5412,-15.0226 z m -0.4447,14.9222 0.1097,0.01 0.1098,0.01 c 11.1298,0.082 18.434,4.0531 23.4736,9.8744 5.0403,5.8213 7.6723,13.8582 7.5982,21.9409 -0.073,8.0826 -2.86,15.9958 -7.8946,21.5668 -5.0347,5.5709 -12.1493,9.1853 -22.8714,8.8251 l -0.1257,-0.01 h -0.1254 c -10.3085,0 -17.0107,-3.796 -21.7786,-9.5825 -4.7682,-5.7865 -7.3386,-13.9356 -7.2858,-22.1347 0.054,-8.1993 2.7349,-16.2355 7.4866,-21.7995 4.7513,-5.5642 11.2871,-9.0592 21.3041,-8.6906 z"
       style="color:#000000;font-style:normal;font-variant:normal;font-weight:normal;font-stretch:normal;font-size:medium;line-height:normal;font-family:sans-serif;font-variant-ligatures:normal;font-variant-position:normal;font-variant-caps:normal;font-variant-numeric:normal;font-variant-alternates:normal;font-feature-settings:normal;text-indent:0;text-align:start;text-decoration:none;text-decoration-line:none;text-decoration-style:solid;text-decoration-color:#000000;letter-spacing:normal;word-spacing:normal;text-transform:none;writing-mode:lr-tb;direction:ltr;text-orientation:mixed;dominant-baseline:auto;baseline-shift:baseline;text-anchor:start;white-space:normal;shape-padding:0;clip-rule:nonzero;display:inline;overflow:visible;visibility:visible;opacity:1;isolation:auto;mix-blend-mode:normal;color-interpolation:sRGB;color-interpolation-filters:linearRGB;solid-color:#000000;solid-opacity:1;vector-effect:none;fill:#000000;fill-opacity:1;fill-rule:nonzero;stroke:none;stroke-width:14.93831348;stroke-linecap:butt;stroke-linejoin:miter;stroke-miterlimit:4;stroke-dasharray:none;stroke-dashoffset:0;stroke-opacity:1;color-rendering:auto;image-rendering:auto;shape-rendering:auto;text-rendering:auto;enable-background:accumulate" />
    <path
       inkscape:connector-curvature="0"
       id="path1039-7-0-3"
       d="m 926.92161,156.5438 c 0,0 -37.3683,19.1327 -75.0763,38.2591 -18.8539,9.5631 -37.7951,19.1252 -52.1664,26.2815 -7.1854,3.5782 -13.2352,6.5568 -17.5158,8.6131 -2.14,1.028 -3.8482,1.8305 -4.959,2.3288 -0.5551,0.2492 -0.9745,0.425 -1.1105,0.479 -0.068,0.027 -0.077,0.024 0.1323,-0.043 0.2092,-0.067 0.013,-0.39 2.6003,-0.39 v 18.5376 c 2.6748,0 2.6363,-0.3587 3.0745,-0.4996 0.4385,-0.1409 0.7293,-0.254 1.0264,-0.3718 0.5945,-0.2357 1.1721,-0.4891 1.8661,-0.8006 1.3878,-0.6229 3.1798,-1.4647 5.3968,-2.5296 4.4336,-2.1299 10.5272,-5.1311 17.7528,-8.7294 14.452,-7.1964 33.4151,-16.7718 52.2897,-26.3454 37.7495,-19.1474 75.136,-38.2888 75.136,-38.2888 z"
       style="color:#000000;font-style:normal;font-variant:normal;font-weight:normal;font-stretch:normal;font-size:medium;line-height:normal;font-family:sans-serif;font-variant-ligatures:normal;font-variant-position:normal;font-variant-caps:normal;font-variant-numeric:normal;font-variant-alternates:normal;font-feature-settings:normal;text-indent:0;text-align:start;text-decoration:none;text-decoration-line:none;text-decoration-style:solid;text-decoration-color:#000000;letter-spacing:normal;word-spacing:normal;text-transform:none;writing-mode:lr-tb;direction:ltr;text-orientation:mixed;dominant-baseline:auto;baseline-shift:baseline;text-anchor:start;white-space:normal;shape-padding:0;clip-rule:nonzero;display:inline;overflow:visible;visibility:visible;opacity:1;isolation:auto;mix-blend-mode:normal;color-interpolation:sRGB;color-interpolation-filters:linearRGB;solid-color:#000000;solid-opacity:1;vector-effect:none;fill:#000000;fill-opacity:1;fill-rule:nonzero;stroke:none;stroke-width:18.53732491;stroke-linecap:butt;stroke-linejoin:miter;stroke-miterlimit:4;stroke-dasharray:none;stroke-dashoffset:0;stroke-opacity:1;color-rendering:auto;image-rendering:auto;shape-rendering:auto;text-rendering:auto;enable-background:accumulate" />
  </g>
</svg>
