<?xml version="1.0" encoding="UTF-8" standalone="no"?>
<!-- Created with Inkscape (http://www.inkscape.org/) -->

<svg
   xmlns:dc="http://purl.org/dc/elements/1.1/"
   xmlns:cc="http://creativecommons.org/ns#"
   xmlns:rdf="http://www.w3.org/1999/02/22-rdf-syntax-ns#"
   xmlns:svg="http://www.w3.org/2000/svg"
   xmlns="http://www.w3.org/2000/svg"
   xmlns:sodipodi="http://sodipodi.sourceforge.net/DTD/sodipodi-0.dtd"
   xmlns:inkscape="http://www.inkscape.org/namespaces/inkscape"
   width="1000"
   height="1250"
   viewBox="0 0 1000 1250"
   version="1.1"
   id="svg10152"
   inkscape:version="0.92.4 (5da689c313, 2019-01-14)"
   sodipodi:docname="Sentir.svg">
  <defs
     id="defs10146" />
  <sodipodi:namedview
     id="base"
     pagecolor="#ffffff"
     bordercolor="#666666"
     borderopacity="1.0"
     inkscape:pageopacity="0.0"
     inkscape:pageshadow="2"
     inkscape:zoom="1.4142136"
     inkscape:cx="258.83036"
     inkscape:cy="695.61292"
     inkscape:document-units="px"
     inkscape:current-layer="layer1"
     showgrid="false"
     units="px"
     inkscape:window-width="681"
     inkscape:window-height="706"
     inkscape:window-x="-7"
     inkscape:window-y="0"
     inkscape:window-maximized="0" />
  <metadata
     id="metadata10149">
    <rdf:RDF>
      <cc:Work
         rdf:about="">
        <dc:format>image/svg+xml</dc:format>
        <dc:type
           rdf:resource="http://purl.org/dc/dcmitype/StillImage" />
        <dc:title></dc:title>
      </cc:Work>
    </rdf:RDF>
  </metadata>
  <g
     inkscape:label="Camada 1"
     inkscape:groupmode="layer"
     id="layer1"
     transform="translate(0,217.58335)">
    <path
       style="color:#000000;font-style:normal;font-variant:normal;font-weight:normal;font-stretch:normal;font-size:medium;line-height:normal;font-family:sans-serif;font-variant-ligatures:normal;font-variant-position:normal;font-variant-caps:normal;font-variant-numeric:normal;font-variant-alternates:normal;font-feature-settings:normal;text-indent:0;text-align:start;text-decoration:none;text-decoration-line:none;text-decoration-style:solid;text-decoration-color:#000000;letter-spacing:normal;word-spacing:normal;text-transform:none;writing-mode:lr-tb;direction:ltr;text-orientation:mixed;dominant-baseline:auto;baseline-shift:baseline;text-anchor:start;white-space:normal;shape-padding:0;clip-rule:nonzero;display:inline;overflow:visible;visibility:visible;opacity:1;isolation:auto;mix-blend-mode:normal;color-interpolation:sRGB;color-interpolation-filters:linearRGB;solid-color:#000000;solid-opacity:1;vector-effect:none;fill:#000000;fill-opacity:1;fill-rule:nonzero;stroke:none;stroke-width:11.06670856;stroke-linecap:butt;stroke-linejoin:miter;stroke-miterlimit:4;stroke-dasharray:none;stroke-dashoffset:0;stroke-opacity:1;color-rendering:auto;image-rendering:auto;shape-rendering:auto;text-rendering:auto;enable-background:accumulate"
       d="m 502.23828,589.41469 c -13.0842,4.43929 -54.30078,12.4082 -54.30078,12.4082 l -0.59961,0.11328 -0.5586,0.24024 c -8.6513,3.7267 -14.16467,6.91582 -17.86133,10.10156 -3.69665,3.18574 -5.99851,7.10453 -5.42773,11.18164 0.57078,4.07711 3.36765,6.27085 5.26367,7.45117 1.89602,1.18032 3.67774,1.70313 3.67774,1.70313 l 1.33593,0.4082 1.36719,-0.27344 c 3.22952,-0.6459 11.60731,-0.79111 18.57813,-0.57031 6.85849,0.21724 12.45359,0.63851 12.63867,0.65234 4.42146,1.1173 9.17456,0.91305 13.53711,0.69336 4.68505,-0.23592 8.58398,-0.70898 8.58398,-0.70898 l 0.40235,-0.0488 0.39062,-0.10547 c 10.12717,-2.76204 18.21289,-1.42383 18.21289,-1.42383 l -0.30859,-0.0605 c 17.75092,4.0082 33.43359,-1.73047 33.43359,-1.73047 l 0.35352,-0.125 0.33203,-0.17383 c 2.48218,-1.28705 3.70719,-1.18435 4.76562,-0.87305 1.05844,0.31131 2.20025,1.14342 3.2793,2.44727 2.0287,2.45134 3.14557,5.70652 3.2832,6.11523 0.8818,5.18826 -0.62383,8.29039 -2.38672,10.59571 -1.79692,2.34983 -3.59179,3.32812 -3.59179,3.32812 l -1.5918,0.86719 -0.76953,1.64062 c -0.85995,1.83455 -4.24397,4.25709 -7.86719,5.69532 -3.62322,1.43822 -6.83984,2.0039 -6.83984,2.0039 l -0.76758,0.13274 -0.69922,0.3379 c -2.38875,1.15447 -9.54147,2.76098 -17.97851,3.75976 -8.43705,0.99878 -18.43368,1.6633 -27.9668,2.09375 -19.06623,0.86091 -36.25586,0.79883 -36.25586,0.79883 l 0.58594,0.0332 c -7.45287,-0.8205 -12.95036,-0.55916 -17.30469,0.62696 -4.35433,1.18611 -7.67769,3.54962 -9.47266,6.49218 -3.55882,5.83411 -0.84448,11.71192 -0.79687,11.81446 4.71725,12.95033 15.64943,22.36207 25.16797,28.85351 9.58357,6.5358 18.17578,10.14258 18.17578,10.14258 l 3.12109,1.31445 2.58985,-2.18359 c 0.66838,-0.56317 0.95003,-0.75859 1.25586,-0.92774 2.15492,1.77797 3.43265,3.44815 3.92773,4.92188 0.61456,1.8294 0.52512,3.68704 -0.004,5.61914 -1.05805,3.8642 -3.84961,7.14062 -3.84961,7.14063 l -0.27148,0.30273 -0.22656,0.33789 c -2.25731,3.38596 -5.82505,5.08814 -11.09766,5.7168 -5.27261,0.62865 -11.87078,-0.123 -18.18945,-1.55078 -12.63736,-2.85557 -23.93555,-8.15821 -23.93555,-8.15821 l 0.75391,0.43164 C 391.6925,722.21862 365.62491,728.43422 365.62491,728.43422 l 0.10742,-0.0254 c -60.50135,13.21879 -106.55274,10.68554 -106.55274,10.68554 l 0.68555,0.0801 c -6.45337,-1.17334 -12.50135,1.37043 -18.11523,4.8086 -5.61389,3.43816 -10.9698,8.07979 -15.74805,12.75779 -9.5565,9.356 -16.81836,19.0176 -16.81836,19.0176 l 8.83984,6.6582 c 0,0 6.88531,-9.1176 15.72071,-17.7676 4.41769,-4.325 9.31887,-8.4932 13.78515,-11.2285 4.46628,-2.7353 8.32225,-3.72745 10.35742,-3.35741 l 0.33985,0.0625 0.3457,0.0176 c 0,0 47.58169,2.61111 109.52149,-10.92187 l 0.0527,-0.0117 0.0527,-0.0137 c 0,0 21.26552,-5.10303 41.89844,8.96484 l 0.35938,0.24609 0.39258,0.18555 c 0,0 12.11009,5.7579 26.2246,8.9472 7.05726,1.5947 14.67212,2.6126 21.93946,1.7461 7.22333,-0.8612 14.46603,-3.9003 18.90429,-10.46283 0.62772,-0.69952 4.16193,-4.74006 5.9043,-11.10352 0.95004,-3.46972 1.27966,-7.72034 -0.17969,-12.06445 -1.45934,-4.34411 -4.69641,-8.51441 -9.74023,-11.87695 l -1.47852,-0.98633 -1.77734,0.0586 c -2.05739,0.0695 -4.27497,0.82263 -6.42578,1.88868 -2.47802,-1.14149 -7.3397,-3.49512 -13.90235,-7.97071 -8.61539,-5.87552 -17.77717,-14.39225 -21.08789,-23.68359 l -0.0586,-0.16406 -0.0684,-0.15821 c 0,0 -0.27617,-1.21026 0.0566,-1.75586 0.16641,-0.27279 0.55781,-0.93149 2.93164,-1.57812 2.37384,-0.64663 6.6194,-1.02757 13.18555,-0.30469 l 0.29101,0.0312 0.29297,0.002 c 0,0 17.4073,0.065 36.79688,-0.81054 9.69479,-0.43776 19.89182,-1.10725 28.76953,-2.1582 8.42507,-0.99737 15.35655,-2.13144 20.60156,-4.44141 0.7685,-0.14131 4.1739,-0.79477 8.46485,-2.49805 4.33259,-1.71981 9.53321,-4.45531 12.73242,-9.64648 1.29548,-0.84254 3.46408,-2.39924 5.79492,-5.44727 3.21904,-4.20953 6.03056,-11.0911 4.45313,-19.60937 l -0.0508,-0.27344 -0.0781,-0.26758 c 0,0 -1.47092,-5.48789 -5.48633,-10.33984 -2.0077,-2.42598 -4.82056,-4.8722 -8.68164,-6.00782 -3.86108,-1.13561 -8.5194,-0.64813 -12.98242,1.66602 l 0.68554,-0.29883 c 0,0 -13.12793,4.55152 -27.27343,1.35742 l -0.1543,-0.0352 -0.1543,-0.0254 c 0,0 -10.43438,-1.74953 -22.94336,1.66211 l 0.79297,-0.1543 c 0,0 -3.56076,0.42837 -7.81445,0.64258 -4.25369,0.2142 -9.52077,-0.0699 -10.74805,-0.44336 l -0.58593,-0.17774 -0.60938,-0.0449 c 0,0 -6.08507,-0.46009 -13.32617,-0.68945 -6.45813,-0.20456 -13.37542,-0.20778 -18.9375,0.58398 0.2458,-0.28496 0.32372,-0.44083 1.01562,-1.03711 2.18685,-1.8846 6.84263,-4.73947 14.5918,-8.11523 1.29429,-0.2418 39.59496,-7.40769 55.05859,-12.6543 z"
       id="path10165"
       inkscape:connector-curvature="0" />
    <path
       style="color:#000000;font-style:normal;font-variant:normal;font-weight:normal;font-stretch:normal;font-size:medium;line-height:normal;font-family:sans-serif;font-variant-ligatures:normal;font-variant-position:normal;font-variant-caps:normal;font-variant-numeric:normal;font-variant-alternates:normal;font-feature-settings:normal;text-indent:0;text-align:start;text-decoration:none;text-decoration-line:none;text-decoration-style:solid;text-decoration-color:#000000;letter-spacing:normal;word-spacing:normal;text-transform:none;writing-mode:lr-tb;direction:ltr;text-orientation:mixed;dominant-baseline:auto;baseline-shift:baseline;text-anchor:start;white-space:normal;shape-padding:0;clip-rule:nonzero;display:inline;overflow:visible;visibility:visible;opacity:1;isolation:auto;mix-blend-mode:normal;color-interpolation:sRGB;color-interpolation-filters:linearRGB;solid-color:#000000;solid-opacity:1;vector-effect:none;fill:#000000;fill-opacity:1;fill-rule:nonzero;stroke:none;stroke-width:11.06670856;stroke-linecap:butt;stroke-linejoin:miter;stroke-miterlimit:4;stroke-dasharray:none;stroke-dashoffset:0;stroke-opacity:1;color-rendering:auto;image-rendering:auto;shape-rendering:auto;text-rendering:auto;enable-background:accumulate"
       d="m 457.53711,458.09242 -1.04102,0.1836 c 0,0 -4.3334,0.76296 -8.99414,1.49218 -2.33037,0.36462 -4.74294,0.72028 -6.67969,0.96094 -1.93675,0.24066 -3.98396,0.24186 -3.18555,0.31445 l -0.70898,-0.0644 -0.70117,0.11719 c 0,0 -11.10006,1.37491 -19.17578,8.33789 -0.066,0.044 -43.70019,29.13105 -51.59571,34.56836 -0.58921,0.20838 -9.97879,3.5312 -20.75781,7.21875 -4.82076,1.6492 -9.60782,3.24821 -13.94726,4.66797 0.51029,-2.91158 0.54661,-6.17618 -1.01954,-9.41797 -1.94052,-4.01673 -5.7652,-7.33127 -11.26953,-9.74414 l -0.5332,-0.23438 -0.56836,-0.11718 c 0,0 -7.34283,-1.51942 -15.70703,-3.69727 -8.36421,-2.17785 -18.19727,-5.49008 -20.76953,-7.12695 l -1.20313,-0.76563 -1.42383,-0.0898 c 0,0 -6.57972,-0.3438 -14.42382,2.96484 -7.62917,3.21798 -16.85899,10.12273 -23.90821,23.20117 -0.56501,0.57056 -9.66518,9.75369 -13.2539,12.54492 l -0.36914,0.28516 -0.31446,0.34375 c 0,0 -19.25116,21.01228 -41.21484,44.00977 -21.96367,22.99748 -47.24435,48.3516 -56.93359,55.45703 l -0.49609,0.36523 -0.4043,0.46289 c 0,0 -19.53092,22.36662 -27.9375,33.83008 l 8.92383,6.54492 c 7.52408,-10.26006 26.75699,-32.40953 27.14258,-32.85351 12.31261,-9.23942 35.98994,-33.42078 57.70898,-56.16211 22.02798,-23.06482 41.26164,-44.05955 41.31445,-44.11719 5.59232,-4.50091 14.08984,-13.31445 14.08984,-13.31445 l 0.57617,-0.5918 0.37696,-0.73437 c 6.00257,-11.65202 13.27527,-16.65953 19,-19.07422 4.74808,-2.00274 7.54798,-2.07629 8.55664,-2.06446 5.91559,3.23892 14.25301,5.53135 22.17383,7.59375 8.22994,2.14289 14.69148,3.47794 15.41601,3.62891 3.60725,1.64412 4.97866,3.21464 5.48828,4.26953 0.52629,1.08936 0.52395,2.11667 0.0898,3.58399 -0.8682,2.93463 -3.74805,6.11132 -3.74805,6.11132 l -13.01953,12.91211 17.98828,-3.55468 c 2.51321,-0.49654 6.08869,-1.63609 10.94922,-3.20704 4.86053,-1.57095 10.66216,-3.52716 16.25195,-5.43945 11.17959,-3.82458 21.50781,-7.47851 21.50782,-7.47851 l 0.69726,-0.2461 0.60742,-0.42187 c 6.32986,-4.3823 52.13672,-34.92774 52.13672,-34.92774 l 0.35547,-0.23633 0.31445,-0.28906 c 4.16466,-3.81761 13.6531,-5.95654 13.96875,-6.02734 1.45314,0.008 2.65149,-0.14615 4.32032,-0.35352 2.13871,-0.26575 4.62916,-0.63485 7.02539,-1.00976 4.11332,-0.64358 6.89832,-1.13692 7.90234,-1.3125 7.09838,1.69238 9.88413,5.25814 11.48242,8.75586 1.63803,3.58467 1.58764,6.61315 1.58594,6.70507 -0.46831,7.49537 -2.34884,8.73602 -2.71875,8.94532 -0.37205,0.2105 -0.2832,0.17773 -0.2832,0.17773 l -1.93555,-0.64648 -1.89063,0.76562 c -6.71347,2.71734 -13.48278,8.09299 -19.0664,12.84571 -5.58362,4.75271 -9.7793,8.94921 -9.7793,8.94921 l -1.49414,1.4961 -0.11719,2.10937 c 0.0874,-1.57371 -0.30051,0.55322 -1.53906,2.4375 -1.23855,1.88429 -3.01116,4.21197 -4.79297,6.41211 -3.56361,4.40029 -7.13672,8.29102 -7.13672,8.29102 l 0.25196,-0.25586 c -4.75005,4.53733 -7.54293,8.59247 -8.64258,12.80469 -1.09966,4.21221 0.0787,8.48167 2.12109,11.15039 4.08477,5.33743 10.08399,6.26367 10.08399,6.26367 l 0.46484,0.11133 0.47852,0.0293 c 1.99948,0.12497 3.81814,-0.11256 6.39453,-0.45312 2.57639,-0.34056 5.68257,-0.84191 9.15429,-1.45313 6.94346,-1.22244 15.33645,-2.88635 23.46875,-4.56445 16.26461,-3.3562 31.47657,-6.77148 31.47657,-6.77148 l 0.32617,-0.0742 0.3164,-0.11133 c 5.26729,-1.87281 9.0356,-2.33187 11.35352,-2.38281 2.31792,-0.051 2.67188,0.14843 2.67188,0.14843 l 0.5957,0.17969 0.62109,0.0449 c 8.56599,0.61196 20.74219,-1.33008 20.74219,-1.33008 l 0.85937,-0.125 0.77735,-0.38085 c 4.65829,-2.28349 8.04672,-1.07104 11.2793,0.92773 3.23257,1.99877 5.27734,4.63867 5.27734,4.63867 l 0.0117,0.0156 0.0117,0.0156 c 3.21351,4.19542 2.63743,8.53418 1.01367,12.85547 -1.56882,4.17507 -3.95323,7.16093 -4.11914,7.36719 -5.26422,5.53628 -9.65707,6.73078 -12.79688,6.93554 -3.16572,0.20646 -4.63086,-0.55273 -4.63086,-0.55273 l -2.48242,-1.1582 -2.42578,1.26953 c -9.88201,5.17626 -21.84561,7.63667 -21.84561,7.63667 l 2.83975,10.66997 c 0,0 10.9282,-2.20207 21.94922,-7.51758 1.80899,0.46679 4.30325,0.89182 7.31641,0.69531 5.70869,-0.3723 13.23502,-3.04401 20.25976,-10.50781 l 0.11719,-0.125 0.11133,-0.13086 c 0,0 3.70309,-4.40001 6.0664,-10.68945 2.36238,-6.28695 3.45665,-15.57448 -2.58203,-23.4668 -0.0269,-0.0362 -3.10249,-4.16913 -8.27148,-7.36523 -4.95907,-3.06631 -12.77454,-5.31532 -20.83789,-1.90235 -0.84697,0.11078 -12.15766,1.5758 -17.80078,1.1836 -1.03434,-0.2022 -2.61993,-0.44819 -4.97266,-0.39649 -3.53405,0.0777 -8.51034,0.77669 -14.81836,3.01953 l 0.64258,-0.18554 c 0,0 -15.14276,3.40063 -31.28906,6.73242 -8.07316,1.66589 -16.39833,3.31481 -23.15235,4.50391 -3.37701,0.59454 -6.36458,1.07432 -8.68359,1.38086 -2.03061,0.26841 -3.29786,0.3158 -3.72656,0.33203 -0.6094,-0.25441 -2.81094,-1.19484 -3.45704,-2.03907 -0.36914,-0.48234 -0.52627,-0.39108 -0.20312,-1.6289 0.32315,-1.23783 1.71293,-3.90369 5.58008,-7.59766 l 0.1289,-0.12305 0.1211,-0.13281 c 0,0 3.75811,-4.08505 7.58984,-8.8164 1.91587,-2.36568 3.85847,-4.8906 5.44141,-7.29883 1.19572,-1.81914 2.36201,-3.18712 2.95703,-5.41992 0.86987,-0.8573 3.38136,-3.37973 7.89844,-7.22461 4.89751,-4.16872 10.97625,-8.54516 15.10546,-10.46289 1.75146,0.0671 4.06132,-0.18101 6.34766,-1.47461 4.5153,-2.55475 7.75362,-8.39894 8.32813,-18.02149 l 0.006,-0.084 0.002,-0.084 c 0,0 0.18631,-5.62032 -2.58789,-11.6914 -2.7742,-6.07108 -9.08033,-12.97918 -20.09375,-15.24219 z"
       id="path10167"
       inkscape:connector-curvature="0"
       sodipodi:nodetypes="cccscccccscccccscccsccccsccccccsccccscsccccccsscccccccccccccccccccccccccscccsssccccccccccccccsccccccccscccscccccccsccccccccsccccccccscc" />
    <path
       style="color:#000000;font-style:normal;font-variant:normal;font-weight:normal;font-stretch:normal;font-size:medium;line-height:normal;font-family:sans-serif;font-variant-ligatures:normal;font-variant-position:normal;font-variant-caps:normal;font-variant-numeric:normal;font-variant-alternates:normal;font-feature-settings:normal;text-indent:0;text-align:start;text-decoration:none;text-decoration-line:none;text-decoration-style:solid;text-decoration-color:#000000;letter-spacing:normal;word-spacing:normal;text-transform:none;writing-mode:lr-tb;direction:ltr;text-orientation:mixed;dominant-baseline:auto;baseline-shift:baseline;text-anchor:start;white-space:normal;shape-padding:0;clip-rule:nonzero;display:inline;overflow:visible;visibility:visible;opacity:1;isolation:auto;mix-blend-mode:normal;color-interpolation:sRGB;color-interpolation-filters:linearRGB;solid-color:#000000;solid-opacity:1;vector-effect:none;fill:#000000;fill-opacity:1;fill-rule:nonzero;stroke:none;stroke-width:11.06670856;stroke-linecap:butt;stroke-linejoin:miter;stroke-miterlimit:4;stroke-dasharray:none;stroke-dashoffset:0;stroke-opacity:1;color-rendering:auto;image-rendering:auto;shape-rendering:auto;text-rendering:auto;enable-background:accumulate"
       d="m 318.61718,519.55531 c -1.70601,0.44222 -8.36481,1.47213 -17.9414,3.37696 -9.5766,1.90482 -22.4761,4.81578 -38.35547,9.50976 l 3.13672,10.61328 c 15.51035,-4.5849 28.05073,-7.4145 37.37695,-9.26953 9.32622,-1.85503 15.03205,-2.60296 18.56055,-3.51758 z"
       id="path10169"
       inkscape:connector-curvature="0" />
    <path
       style="color:#000000;font-style:normal;font-variant:normal;font-weight:normal;font-stretch:normal;font-size:medium;line-height:normal;font-family:sans-serif;font-variant-ligatures:normal;font-variant-position:normal;font-variant-caps:normal;font-variant-numeric:normal;font-variant-alternates:normal;font-feature-settings:normal;text-indent:0;text-align:start;text-decoration:none;text-decoration-line:none;text-decoration-style:solid;text-decoration-color:#000000;letter-spacing:normal;word-spacing:normal;text-transform:none;writing-mode:lr-tb;direction:ltr;text-orientation:mixed;dominant-baseline:auto;baseline-shift:baseline;text-anchor:start;white-space:normal;shape-padding:0;clip-rule:nonzero;display:inline;overflow:visible;visibility:visible;opacity:1;isolation:auto;mix-blend-mode:normal;color-interpolation:sRGB;color-interpolation-filters:linearRGB;solid-color:#000000;solid-opacity:1;vector-effect:none;fill:#000000;fill-opacity:1;fill-rule:nonzero;stroke:none;stroke-width:11.06670856;stroke-linecap:butt;stroke-linejoin:miter;stroke-miterlimit:4;stroke-dasharray:none;stroke-dashoffset:0;stroke-opacity:1;color-rendering:auto;image-rendering:auto;shape-rendering:auto;text-rendering:auto;enable-background:accumulate"
       d="m 298.85156,520.38148 -10.99414,1.26758 c 0,0 0.10717,-0.50139 -0.25781,0.44531 -0.36499,0.94671 -1.2959,2.70478 -4.10938,5 l 6.99609,8.57618 c 4.09828,-3.34336 6.34934,-6.76818 7.43946,-9.59571 1.09011,-2.82752 0.92578,-5.69336 0.92578,-5.69336 z"
       id="path10173"
       inkscape:connector-curvature="0" />
    <path
       style="color:#000000;font-style:normal;font-variant:normal;font-weight:normal;font-stretch:normal;font-size:medium;line-height:normal;font-family:sans-serif;font-variant-ligatures:normal;font-variant-position:normal;font-variant-caps:normal;font-variant-numeric:normal;font-variant-alternates:normal;font-feature-settings:normal;text-indent:0;text-align:start;text-decoration:none;text-decoration-line:none;text-decoration-style:solid;text-decoration-color:#000000;letter-spacing:normal;word-spacing:normal;text-transform:none;writing-mode:lr-tb;direction:ltr;text-orientation:mixed;dominant-baseline:auto;baseline-shift:baseline;text-anchor:start;white-space:normal;shape-padding:0;clip-rule:nonzero;display:inline;overflow:visible;visibility:visible;opacity:1;isolation:auto;mix-blend-mode:normal;color-interpolation:sRGB;color-interpolation-filters:linearRGB;solid-color:#000000;solid-opacity:1;vector-effect:none;fill:#000000;fill-opacity:1;fill-rule:nonzero;stroke:none;stroke-width:11.06670856;stroke-linecap:butt;stroke-linejoin:miter;stroke-miterlimit:4;stroke-dasharray:none;stroke-dashoffset:0;stroke-opacity:1;color-rendering:auto;image-rendering:auto;shape-rendering:auto;text-rendering:auto;enable-background:accumulate"
       d="m 523.74023,581.44008 c -0.0197,0.33546 -0.4082,0.8125 -0.4082,0.8125 l 6.64062,8.85351 c 0,0 4.47048,-3.16692 4.81446,-9.01562 z"
       id="path10179"
       inkscape:connector-curvature="0" />
    <path
       style="color:#000000;font-style:normal;font-variant:normal;font-weight:normal;font-stretch:normal;font-size:medium;line-height:normal;font-family:sans-serif;font-variant-ligatures:normal;font-variant-position:normal;font-variant-caps:normal;font-variant-numeric:normal;font-variant-alternates:normal;font-feature-settings:normal;text-indent:0;text-align:start;text-decoration:none;text-decoration-line:none;text-decoration-style:solid;text-decoration-color:#000000;letter-spacing:normal;word-spacing:normal;text-transform:none;writing-mode:lr-tb;direction:ltr;text-orientation:mixed;dominant-baseline:auto;baseline-shift:baseline;text-anchor:start;white-space:normal;shape-padding:0;clip-rule:nonzero;display:inline;overflow:visible;visibility:visible;opacity:1;isolation:auto;mix-blend-mode:normal;color-interpolation:sRGB;color-interpolation-filters:linearRGB;solid-color:#000000;solid-opacity:1;vector-effect:none;fill:#000000;fill-opacity:1;fill-rule:nonzero;stroke:none;stroke-width:11.06670856;stroke-linecap:butt;stroke-linejoin:miter;stroke-miterlimit:4;stroke-dasharray:none;stroke-dashoffset:0;stroke-opacity:1;color-rendering:auto;image-rendering:auto;shape-rendering:auto;text-rendering:auto;enable-background:accumulate"
       d="m 439.73046,507.72914 -9.81835,5.10742 c 1.53171,2.94524 2.29739,5.0129 2.67187,6.23633 0.37448,1.22343 0.32422,1.18555 0.32422,1.18555 l 11.0293,-0.91602 c 0,0 -0.17951,-1.58213 -0.76954,-3.50976 -0.59002,-1.92764 -1.62484,-4.61808 -3.4375,-8.10352 z"
       id="path10183"
       inkscape:connector-curvature="0" />
    <path
       style="color:#000000;font-style:normal;font-variant:normal;font-weight:normal;font-stretch:normal;font-size:medium;line-height:normal;font-family:sans-serif;font-variant-ligatures:normal;font-variant-position:normal;font-variant-caps:normal;font-variant-numeric:normal;font-variant-alternates:normal;font-feature-settings:normal;text-indent:0;text-align:start;text-decoration:none;text-decoration-line:none;text-decoration-style:solid;text-decoration-color:#000000;letter-spacing:normal;word-spacing:normal;text-transform:none;writing-mode:lr-tb;direction:ltr;text-orientation:mixed;dominant-baseline:auto;baseline-shift:baseline;text-anchor:start;white-space:normal;shape-padding:0;clip-rule:nonzero;display:inline;overflow:visible;visibility:visible;opacity:1;isolation:auto;mix-blend-mode:normal;color-interpolation:sRGB;color-interpolation-filters:linearRGB;solid-color:#000000;solid-opacity:1;vector-effect:none;fill:#000000;fill-opacity:1;fill-rule:nonzero;stroke:none;stroke-width:11.06670856;stroke-linecap:butt;stroke-linejoin:miter;stroke-miterlimit:4;stroke-dasharray:none;stroke-dashoffset:0;stroke-opacity:1;color-rendering:auto;image-rendering:auto;shape-rendering:auto;text-rendering:auto;enable-background:accumulate"
       d="m 367.04101,688.11391 c -17.12954,11.41961 -15.55078,33.29687 -15.55078,33.29687 l 11.04883,-0.63672 c 0,0 -0.60445,-15.95646 10.64062,-23.45312 z"
       id="path10185"
       inkscape:connector-curvature="0" />
    <path
       style="color:#000000;font-style:normal;font-variant:normal;font-weight:normal;font-stretch:normal;font-size:medium;line-height:normal;font-family:sans-serif;font-variant-ligatures:normal;font-variant-position:normal;font-variant-caps:normal;font-variant-numeric:normal;font-variant-alternates:normal;font-feature-settings:normal;text-indent:0;text-align:start;text-decoration:none;text-decoration-line:none;text-decoration-style:solid;text-decoration-color:#000000;letter-spacing:normal;word-spacing:normal;text-transform:none;writing-mode:lr-tb;direction:ltr;text-orientation:mixed;dominant-baseline:auto;baseline-shift:baseline;text-anchor:start;white-space:normal;shape-padding:0;clip-rule:nonzero;display:inline;overflow:visible;visibility:visible;opacity:1;isolation:auto;mix-blend-mode:normal;color-interpolation:sRGB;color-interpolation-filters:linearRGB;solid-color:#000000;solid-opacity:1;vector-effect:none;fill:#000000;fill-opacity:1;fill-rule:nonzero;stroke:none;stroke-width:11.06670856;stroke-linecap:butt;stroke-linejoin:miter;stroke-miterlimit:4;stroke-dasharray:none;stroke-dashoffset:0;stroke-opacity:1;color-rendering:auto;image-rendering:auto;shape-rendering:auto;text-rendering:auto;enable-background:accumulate"
       d="m 366.19921,635.69398 c -7.60298,7.60296 -8.08107,17.63716 -6.76171,24.86719 1.31935,7.23003 4.38671,12.66211 4.38671,12.66211 l 9.66407,-5.39062 c 0,0 -2.20785,-4.02846 -3.16211,-9.25782 -0.95427,-5.22935 -0.70443,-10.65496 3.69726,-15.05664 z"
       id="path10187"
       inkscape:connector-curvature="0" />
    <path
       style="color:#000000;font-style:normal;font-variant:normal;font-weight:normal;font-stretch:normal;font-size:medium;line-height:normal;font-family:sans-serif;font-variant-ligatures:normal;font-variant-position:normal;font-variant-caps:normal;font-variant-numeric:normal;font-variant-alternates:normal;font-feature-settings:normal;text-indent:0;text-align:start;text-decoration:none;text-decoration-line:none;text-decoration-style:solid;text-decoration-color:#000000;letter-spacing:normal;word-spacing:normal;text-transform:none;writing-mode:lr-tb;direction:ltr;text-orientation:mixed;dominant-baseline:auto;baseline-shift:baseline;text-anchor:start;white-space:normal;shape-padding:0;clip-rule:nonzero;display:inline;overflow:visible;visibility:visible;opacity:1;isolation:auto;mix-blend-mode:normal;color-interpolation:sRGB;color-interpolation-filters:linearRGB;solid-color:#000000;solid-opacity:1;vector-effect:none;fill:#000000;fill-opacity:1;fill-rule:nonzero;stroke:none;stroke-width:11.06670856;stroke-linecap:butt;stroke-linejoin:miter;stroke-miterlimit:4;stroke-dasharray:none;stroke-dashoffset:0;stroke-opacity:1;color-rendering:auto;image-rendering:auto;shape-rendering:auto;text-rendering:auto;enable-background:accumulate"
       d="m 350.1875,593.90492 c 0,0 -1.59268,6.24298 -1.00586,13.49805 0.29341,3.62753 1.11291,7.64834 3.2539,11.42383 2.14099,3.77549 5.80567,7.21432 10.79492,8.91797 l 3.57618,-10.47266 c -2.4682,-0.8428 -3.71344,-2.08672 -4.74414,-3.9043 -1.03071,-1.81758 -1.64477,-4.30074 -1.85157,-6.85742 -0.41359,-5.11335 0.72266,-9.96289 0.72266,-9.96289 z"
       id="path10189"
       inkscape:connector-curvature="0" />
    <path
       style="color:#000000;font-style:normal;font-variant:normal;font-weight:normal;font-stretch:normal;font-size:medium;line-height:normal;font-family:sans-serif;font-variant-ligatures:normal;font-variant-position:normal;font-variant-caps:normal;font-variant-numeric:normal;font-variant-alternates:normal;font-feature-settings:normal;text-indent:0;text-align:start;text-decoration:none;text-decoration-line:none;text-decoration-style:solid;text-decoration-color:#000000;letter-spacing:normal;word-spacing:normal;text-transform:none;writing-mode:lr-tb;direction:ltr;text-orientation:mixed;dominant-baseline:auto;baseline-shift:baseline;text-anchor:start;white-space:normal;shape-padding:0;clip-rule:nonzero;display:inline;overflow:visible;visibility:visible;opacity:1;isolation:auto;mix-blend-mode:normal;color-interpolation:sRGB;color-interpolation-filters:linearRGB;solid-color:#000000;solid-opacity:1;vector-effect:none;fill:#000000;fill-opacity:1;fill-rule:nonzero;stroke:none;stroke-width:11.06670856;stroke-linecap:butt;stroke-linejoin:miter;stroke-miterlimit:4;stroke-dasharray:none;stroke-dashoffset:0;stroke-opacity:1;color-rendering:auto;image-rendering:auto;shape-rendering:auto;text-rendering:auto;enable-background:accumulate"
       d="m 319.83398,538.39125 c 0,0 -0.14629,6.7728 2.44336,14.22461 2.58965,7.45181 8.63198,16.44007 20.11133,18.91601 l 2.33398,-10.81835 c -7.07321,-1.52561 -10.12555,-6.35914 -11.99219,-11.73047 -1.86664,-5.37133 -1.83203,-10.42188 -1.83203,-10.42188 z"
       id="path10191"
       inkscape:connector-curvature="0" />
    <path
       style="color:#000000;font-style:normal;font-variant:normal;font-weight:normal;font-stretch:normal;font-size:medium;line-height:normal;font-family:sans-serif;font-variant-ligatures:normal;font-variant-position:normal;font-variant-caps:normal;font-variant-numeric:normal;font-variant-alternates:normal;font-feature-settings:normal;text-indent:0;text-align:start;text-decoration:none;text-decoration-line:none;text-decoration-style:solid;text-decoration-color:#000000;letter-spacing:normal;word-spacing:normal;text-transform:none;writing-mode:lr-tb;direction:ltr;text-orientation:mixed;dominant-baseline:auto;baseline-shift:baseline;text-anchor:start;white-space:normal;shape-padding:0;clip-rule:nonzero;display:inline;overflow:visible;visibility:visible;opacity:1;isolation:auto;mix-blend-mode:normal;color-interpolation:sRGB;color-interpolation-filters:linearRGB;solid-color:#000000;solid-opacity:1;vector-effect:none;fill:#000000;fill-opacity:1;fill-rule:nonzero;stroke:none;stroke-width:23.00281143;stroke-linecap:butt;stroke-linejoin:miter;stroke-miterlimit:4;stroke-dasharray:none;stroke-dashoffset:0;stroke-opacity:1;color-rendering:auto;image-rendering:auto;shape-rendering:auto;text-rendering:auto;enable-background:accumulate"
       d="m 373.18554,-217.17711 c -88.64334,-0.0256 -149.53658,35.56583 -184.56249,88.80859 -35.02906,53.24755 -44.80434,122.77571 -37.14844,191.59961 7.6559,68.8239 32.7761,137.24668 69.86132,189.20899 37.08523,51.96231 87.0141,88.16055 143.80469,87.82226 56.76383,-0.33815 106.2862,-36.91504 143.15234,-89.05273 36.86615,-52.13769 61.93729,-120.53454 70.26368,-189.1875 8.32638,-68.65296 -0.0133,-137.81492 -32.36133,-190.85156 -32.34493,-53.03157 -89.66053,-88.64765 -173.00977,-88.34766 z m 0.0156,23.00391 h 0.0234 0.0234 c 76.97905,-0.28339 124.72583,30.45384 153.31055,77.32031 28.58472,46.86647 37.04125,111.15623 29.16406,176.10547 -7.87719,64.94924 -32.00938,130.30647 -66.21094,178.67578 -34.20155,48.36931 -77.61199,79.05266 -124.50781,79.33203 -46.86905,0.27919 -90.58236,-30.03562 -124.94531,-78.18359 -34.36285,-48.14798 -58.49703,-113.43375 -65.72255,-178.38867 -7.22552,-64.95493 2.49232,-129.27347 33.5039,-176.41407 31.01159,-47.1406 82.6996,-78.47707 165.36133,-78.44726 z"
       id="path10-9-0-2-5-7"
       inkscape:connector-curvature="0" />
    <path
       style="color:#000000;font-style:normal;font-variant:normal;font-weight:normal;font-stretch:normal;font-size:medium;line-height:normal;font-family:sans-serif;font-variant-ligatures:normal;font-variant-position:normal;font-variant-caps:normal;font-variant-numeric:normal;font-variant-alternates:normal;font-feature-settings:normal;text-indent:0;text-align:start;text-decoration:none;text-decoration-line:none;text-decoration-style:solid;text-decoration-color:#000000;letter-spacing:normal;word-spacing:normal;text-transform:none;writing-mode:lr-tb;direction:ltr;text-orientation:mixed;dominant-baseline:auto;baseline-shift:baseline;text-anchor:start;white-space:normal;shape-padding:0;clip-rule:nonzero;display:inline;overflow:visible;visibility:visible;opacity:1;isolation:auto;mix-blend-mode:normal;color-interpolation:sRGB;color-interpolation-filters:linearRGB;solid-color:#000000;solid-opacity:1;vector-effect:none;fill:#000000;fill-opacity:1;fill-rule:nonzero;stroke:none;stroke-width:11.50140572;stroke-linecap:butt;stroke-linejoin:miter;stroke-miterlimit:4;stroke-dasharray:none;stroke-dashoffset:0;stroke-opacity:1;color-rendering:auto;image-rendering:auto;shape-rendering:auto;text-rendering:auto;enable-background:accumulate"
       d="m 360.88281,59.86 c 0,0 -1.29756,12.80102 -3.44336,26.24805 -1.0729,6.72351 -2.36509,13.60947 -3.75391,18.95898 -0.69441,2.67476 -1.42279,4.97083 -2.07422,6.55469 -0.65142,1.58386 -1.49291,2.41174 -0.88867,1.9082 -1.27271,1.06059 -2.61918,1.94549 -3.32422,4.76563 -0.35252,1.41006 -0.15206,3.51166 0.74805,4.97851 0.90011,1.46685 2.07209,2.18512 2.95703,2.60157 3.53978,1.66577 5.35688,1.02536 7.76367,0.85937 4.81359,-0.33197 10.02539,-1.4043 10.02539,-1.4043 l -2.25586,-11.27929 c 0,0 -2.45822,0.31247 -3.94531,0.55664 0.76254,-2.04464 1.48497,-4.17756 2.12695,-6.65039 1.55204,-5.97821 2.87302,-13.10928 3.97852,-20.03711 2.21101,-13.85566 3.52734,-26.9043 3.52734,-26.9043 z"
       id="path971-9-5-8-6"
       inkscape:connector-curvature="0" />
    <path
       inkscape:connector-curvature="0"
       id="path29-8-7-4-5"
       d="m 364.75649,228.46781 c -11.99781,0.32432 -23.14933,-1.53712 -33.18261,-4.70598 -16.0535,-5.07026 -29.26463,-13.25993 -39.02661,-20.69072 -9.76191,-7.43071 -16.33249,-14.36849 -18.1533,-16.17251 l 8.095,-8.16883 c 2.36277,2.3409 8.00694,8.3284 17.02249,15.19099 9.01565,6.86256 21.14439,14.33462 35.52535,18.87678 28.76169,9.08414 66.44951,7.37388 110.22781,-35.72367 l 8.06705,8.19522 c -31.68975,31.19691 -62.18002,42.48524 -88.57518,43.19872 z"
       style="color:#000000;font-style:normal;font-variant:normal;font-weight:normal;font-stretch:normal;font-size:medium;line-height:normal;font-family:sans-serif;font-variant-ligatures:normal;font-variant-position:normal;font-variant-caps:normal;font-variant-numeric:normal;font-variant-alternates:normal;font-feature-settings:normal;text-indent:0;text-align:start;text-decoration:none;text-decoration-line:none;text-decoration-style:solid;text-decoration-color:#000000;letter-spacing:normal;word-spacing:normal;text-transform:none;writing-mode:lr-tb;direction:ltr;text-orientation:mixed;dominant-baseline:auto;baseline-shift:baseline;text-anchor:start;white-space:normal;shape-padding:0;clip-rule:nonzero;display:inline;overflow:visible;visibility:visible;opacity:1;isolation:auto;mix-blend-mode:normal;color-interpolation:sRGB;color-interpolation-filters:linearRGB;solid-color:#000000;solid-opacity:1;vector-effect:none;fill:#000000;fill-opacity:1;fill-rule:nonzero;stroke:none;stroke-width:11.49996376;stroke-linecap:butt;stroke-linejoin:miter;stroke-miterlimit:4;stroke-dasharray:none;stroke-dashoffset:0;stroke-opacity:1;color-rendering:auto;image-rendering:auto;shape-rendering:auto;text-rendering:auto;enable-background:accumulate" />
    <path
       inkscape:connector-curvature="0"
       id="path87-11-5-36-6"
       d="m 288.72968,-34.00203 c -11.41558,0.10887 -20.64691,4.69767 -26.59224,11.56486 -5.96172,6.88575 -8.73372,15.7732 -8.65359,24.52395 0.08,8.7508 3.01059,17.53079 9.04473,24.20791 6.01639,6.65711 15.25057,10.91727 26.42766,10.56924 10.96261,-0.0284 19.8831,-4.68187 25.54606,-11.55431 5.68017,-6.89367 8.29022,-15.72215 8.23363,-24.4274 -0.0563,-8.70532 -2.77663,-17.45104 -8.51824,-24.1745 -5.7267,-6.70599 -14.68144,-11.0828 -25.48801,-10.70975 z m 0.34258,11.48758 c 7.71153,-0.28369 12.74276,2.40687 16.40069,6.69028 3.65792,4.28349 5.72238,10.46992 5.7631,16.78192 0.0399,6.31199 -1.9395,12.58533 -5.61021,17.04003 -3.67047,4.45453 -8.83005,7.37681 -16.76614,7.37681 h -0.0965 l -0.0966,0.007 c -8.25434,0.27721 -13.73138,-2.50518 -17.60724,-6.79391 -3.87586,-4.28865 -6.02046,-10.38046 -6.07727,-16.60277 -0.057,-6.2223 1.97076,-12.40927 5.85094,-16.89067 3.87971,-4.48151 9.50102,-7.53828 18.06877,-7.6017 l 0.0864,-0.007 z"
       style="color:#000000;font-style:normal;font-variant:normal;font-weight:normal;font-stretch:normal;font-size:medium;line-height:normal;font-family:sans-serif;font-variant-ligatures:normal;font-variant-position:normal;font-variant-caps:normal;font-variant-numeric:normal;font-variant-alternates:normal;font-feature-settings:normal;text-indent:0;text-align:start;text-decoration:none;text-decoration-line:none;text-decoration-style:solid;text-decoration-color:#000000;letter-spacing:normal;word-spacing:normal;text-transform:none;writing-mode:lr-tb;direction:ltr;text-orientation:mixed;dominant-baseline:auto;baseline-shift:baseline;text-anchor:start;white-space:normal;shape-padding:0;clip-rule:nonzero;display:inline;overflow:visible;visibility:visible;opacity:1;isolation:auto;mix-blend-mode:normal;color-interpolation:sRGB;color-interpolation-filters:linearRGB;solid-color:#000000;solid-opacity:1;vector-effect:none;fill:#000000;fill-opacity:1;fill-rule:nonzero;stroke:none;stroke-width:11.49996376;stroke-linecap:butt;stroke-linejoin:miter;stroke-miterlimit:4;stroke-dasharray:none;stroke-dashoffset:0;stroke-opacity:1;color-rendering:auto;image-rendering:auto;shape-rendering:auto;text-rendering:auto;enable-background:accumulate" />
    <path
       inkscape:connector-curvature="0"
       id="path1039-2-2"
       d="m 231.53764,-71.72562 -6.50415,12.70275 c 0,0 28.78286,14.73562 57.84358,29.47578 14.53046,7.37006 29.12868,14.74148 40.25396,20.28148 5.56279,2.77002 10.25204,5.0805 13.66518,6.72016 1.70648,0.8198 3.08624,1.46785 4.15437,1.94737 0.5345,0.2398 0.98062,0.43496 1.43829,0.61632 0.22878,0.0907 0.45112,0.17775 0.78868,0.28622 0.33711,0.10852 0.30916,0.38461 2.36877,0.38461 v -14.2708 c 1.99171,0 1.84051,0.24842 2.00178,0.3003 0.16114,0.0517 0.15413,0.0539 0.10185,0.033 -0.10491,-0.0414 -0.42781,-0.1769 -0.85537,-0.36875 -0.85489,-0.38368 -2.16992,-1.00139 -3.81727,-1.79279 -3.29519,-1.58299 -7.95251,-3.87609 -13.48426,-6.63061 -11.06339,-5.50913 -25.64667,-12.87034 -40.16096,-20.2323 -29.0287,-14.72408 -57.79447,-29.453 -57.79447,-29.453 z"
       style="color:#000000;font-style:normal;font-variant:normal;font-weight:normal;font-stretch:normal;font-size:medium;line-height:normal;font-family:sans-serif;font-variant-ligatures:normal;font-variant-position:normal;font-variant-caps:normal;font-variant-numeric:normal;font-variant-alternates:normal;font-feature-settings:normal;text-indent:0;text-align:start;text-decoration:none;text-decoration-line:none;text-decoration-style:solid;text-decoration-color:#000000;letter-spacing:normal;word-spacing:normal;text-transform:none;writing-mode:lr-tb;direction:ltr;text-orientation:mixed;dominant-baseline:auto;baseline-shift:baseline;text-anchor:start;white-space:normal;shape-padding:0;clip-rule:nonzero;display:inline;overflow:visible;visibility:visible;opacity:1;isolation:auto;mix-blend-mode:normal;color-interpolation:sRGB;color-interpolation-filters:linearRGB;solid-color:#000000;solid-opacity:1;vector-effect:none;fill:#000000;fill-opacity:1;fill-rule:nonzero;stroke:none;stroke-width:14.27058983;stroke-linecap:butt;stroke-linejoin:miter;stroke-miterlimit:4;stroke-dasharray:none;stroke-dashoffset:0;stroke-opacity:1;color-rendering:auto;image-rendering:auto;shape-rendering:auto;text-rendering:auto;enable-background:accumulate" />
    <path
       inkscape:connector-curvature="0"
       id="path87-11-5-3-7-0"
       d="m 441.8368,-34.00203 c -10.80611,-0.37305 -19.76099,4.00376 -25.48776,10.70975 -5.74193,6.72346 -8.4619,15.46918 -8.51848,24.1745 -0.0563,8.70525 2.55368,17.53373 8.23394,24.4274 5.66319,6.87281 14.58244,11.52621 25.54574,11.55431 11.17731,0.34803 20.41128,-3.91213 26.42758,-10.56924 6.03447,-6.67712 8.96489,-15.45711 9.04504,-24.20791 0.0799,-8.75075 -2.69379,-17.6382 -8.6552,-24.52395 -5.94533,-6.86719 -15.17497,-11.45599 -26.59086,-11.56486 z m -0.34234,11.48758 0.0845,0.007 0.0846,0.007 c 8.56806,0.0631 14.19104,3.1202 18.07069,7.60162 3.88017,4.48141 5.90637,10.66846 5.84932,16.89076 -0.0563,6.22222 -2.20171,12.31405 -6.0775,16.60277 -3.87587,4.28864 -9.35289,7.07112 -17.6071,6.79384 l -0.0967,-0.007 h -0.0965 c -7.93579,0 -13.09534,-2.92227 -16.76582,-7.3769 -3.6707,-4.45462 -5.64947,-10.72803 -5.60882,-17.03995 0.0415,-6.31208 2.1054,-12.49858 5.7634,-16.78191 3.65769,-4.2835 8.68916,-6.97404 16.40054,-6.69029 z"
       style="color:#000000;font-style:normal;font-variant:normal;font-weight:normal;font-stretch:normal;font-size:medium;line-height:normal;font-family:sans-serif;font-variant-ligatures:normal;font-variant-position:normal;font-variant-caps:normal;font-variant-numeric:normal;font-variant-alternates:normal;font-feature-settings:normal;text-indent:0;text-align:start;text-decoration:none;text-decoration-line:none;text-decoration-style:solid;text-decoration-color:#000000;letter-spacing:normal;word-spacing:normal;text-transform:none;writing-mode:lr-tb;direction:ltr;text-orientation:mixed;dominant-baseline:auto;baseline-shift:baseline;text-anchor:start;white-space:normal;shape-padding:0;clip-rule:nonzero;display:inline;overflow:visible;visibility:visible;opacity:1;isolation:auto;mix-blend-mode:normal;color-interpolation:sRGB;color-interpolation-filters:linearRGB;solid-color:#000000;solid-opacity:1;vector-effect:none;fill:#000000;fill-opacity:1;fill-rule:nonzero;stroke:none;stroke-width:11.49996376;stroke-linecap:butt;stroke-linejoin:miter;stroke-miterlimit:4;stroke-dasharray:none;stroke-dashoffset:0;stroke-opacity:1;color-rendering:auto;image-rendering:auto;shape-rendering:auto;text-rendering:auto;enable-background:accumulate" />
    <path
       inkscape:connector-curvature="0"
       id="path1039-7-0-6"
       d="m 499.02899,-71.72562 c 0,0 -28.76723,14.72893 -57.79599,29.45301 -14.5143,7.36196 -29.0958,14.72317 -40.15927,20.2323 -5.53154,2.7546 -10.18885,5.04761 -13.48419,6.63061 -1.64744,0.79139 -2.96246,1.40918 -3.81758,1.79279 -0.42734,0.19184 -0.7502,0.32717 -0.8549,0.36875 -0.0524,0.0208 -0.0593,0.0185 0.10185,-0.033 0.16105,-0.0517 0.0102,-0.30023 2.00178,-0.30023 v 14.2708 c 2.05915,0 2.0295,-0.27615 2.36685,-0.38461 0.33756,-0.10841 0.56144,-0.19553 0.79015,-0.28622 0.45766,-0.18145 0.90232,-0.37652 1.43658,-0.61633 1.06837,-0.47953 2.44791,-1.12758 4.15462,-1.94737 3.41311,-1.63966 8.10416,-3.95007 13.66664,-6.72016 11.12558,-5.53999 25.72394,-12.91142 40.25418,-20.28148 29.0607,-14.74023 57.84195,-29.47586 57.84195,-29.47586 z"
       style="color:#000000;font-style:normal;font-variant:normal;font-weight:normal;font-stretch:normal;font-size:medium;line-height:normal;font-family:sans-serif;font-variant-ligatures:normal;font-variant-position:normal;font-variant-caps:normal;font-variant-numeric:normal;font-variant-alternates:normal;font-feature-settings:normal;text-indent:0;text-align:start;text-decoration:none;text-decoration-line:none;text-decoration-style:solid;text-decoration-color:#000000;letter-spacing:normal;word-spacing:normal;text-transform:none;writing-mode:lr-tb;direction:ltr;text-orientation:mixed;dominant-baseline:auto;baseline-shift:baseline;text-anchor:start;white-space:normal;shape-padding:0;clip-rule:nonzero;display:inline;overflow:visible;visibility:visible;opacity:1;isolation:auto;mix-blend-mode:normal;color-interpolation:sRGB;color-interpolation-filters:linearRGB;solid-color:#000000;solid-opacity:1;vector-effect:none;fill:#000000;fill-opacity:1;fill-rule:nonzero;stroke:none;stroke-width:14.27058983;stroke-linecap:butt;stroke-linejoin:miter;stroke-miterlimit:4;stroke-dasharray:none;stroke-dashoffset:0;stroke-opacity:1;color-rendering:auto;image-rendering:auto;shape-rendering:auto;text-rendering:auto;enable-background:accumulate" />
    <path
       inkscape:connector-curvature="0"
       style="font-style:normal;font-weight:normal;font-size:233.33332825px;line-height:1.25;font-family:sans-serif;letter-spacing:0px;word-spacing:0px;fill:#000000;fill-opacity:1;stroke:none"
       d="m 64.712891,856.61975 c -18.457031,0 -33.684679,4.5573 -45.685547,13.6719 -12.000868,9.0386 -18.001953,20.6597 -18.001953,34.8633 0,12.3806 3.608507,22.444 10.824218,30.1914 7.291667,7.6714 18.457032,13.1029 33.496094,16.293 7.443576,1.5191 14.468099,2.7723 21.076172,3.7597 6.684028,0.9874 12.875651,2.2407 18.572266,3.7598 7.519531,1.9748 13.102213,4.7465 16.748049,8.3164 3.72179,3.5699 5.58203,9.1152 5.58203,16.6348 0,8.7348 -3.91103,15.722 -11.734376,20.96285 -7.747396,5.2409 -18.610244,7.8614 -32.585938,7.8614 -9.874131,0 -20.430556,-1.9369 -31.671875,-5.8107 C 20.090712,1003.25 10.178602,997.74395 1.595703,990.60415 H 0 v 28.25395 c 10.101996,4.4812 20.014106,7.862 29.736328,10.1406 9.798177,2.2787 20.812283,3.418 33.041016,3.418 11.393229,0 21.1148,-1.3672 29.166015,-4.1016 8.127171,-2.7343 15.228301,-6.5314 21.304691,-11.3926 5.5447,-4.4813 9.8368,-9.9501 12.875,-16.4062 3.11415,-6.45625 4.67187,-12.98965 4.67187,-19.59765 0,-12.1528 -3.1901,-21.6092 -9.57031,-28.3692 -6.38021,-6.76 -15.87587,-11.8103 -28.484376,-15.1523 -6.228298,-1.5951 -13.822482,-3.1528 -22.785156,-4.6719 -8.962673,-1.5191 -15.875217,-2.8097 -20.736328,-3.8731 -9.190538,-2.1267 -15.608073,-5.2029 -19.253906,-9.2285 -3.645834,-4.0256 -5.46875,-9.5709 -5.46875,-16.6347 0,-7.8993 3.645833,-14.3542 10.9375,-19.3672 7.367621,-5.013 17.089193,-7.5196 29.166015,-7.5196 11.013455,0 21.760417,1.823 32.242188,5.4688 10.557723,3.5699 19.065323,8.0879 25.521483,13.5566 h 1.5957 v -26.6601 c -7.67144,-3.342 -16.4835,-6.1511 -26.433589,-8.4297 -9.950087,-2.2787 -20.887587,-3.418 -32.8125,-3.418 z m 478.173829,1.9356 v 22.2168 h 24.15431 v -22.2168 z m -90.46094,6.9511 v 36.5723 h -14.4707 v 18 h 14.4707 v 67.6758 c 0,15.41885 3.37869,26.62355 10.13867,33.61135 6.75999,6.9879 16.63477,10.4805 29.62305,10.4805 3.72178,0 7.93727,-0.3418 12.64647,-1.0254 4.78517,-0.6836 9.1912,-1.5558 13.21681,-2.6191 v -19.2559 h -1.14062 c -1.67102,0.6836 -4.40539,1.5577 -8.20314,2.6211 -3.79774,0.9874 -7.44358,1.4805 -10.9375,1.4805 -6.00043,0 -10.48112,-0.6836 -13.44336,-2.0508 -2.88628,-1.4432 -5.16493,-3.6825 -6.83594,-6.7207 -1.8229,-3.2661 -2.88562,-6.76075 -3.18945,-10.48245 -0.30381,-3.7978 -0.45702,-9.0387 -0.45702,-15.7227 v -57.9922 h 44.20703 v -18 h -44.20703 v -36.5723 z m -234.24609,33.0391 c -18.53299,0 -33.49545,6.115 -44.88867,18.3438 -11.31728,12.2287 -16.97657,28.7489 -16.97657,49.5605 0,21.0395 5.92448,37.29455 17.77344,48.76375 11.84896,11.3932 28.33182,17.0898 49.44727,17.0898 8.27908,0 16.17773,-1.0254 23.69726,-3.0762 7.51953,-2.0507 14.88781,-4.5965 22.10352,-7.6347 v -23.35555 h -1.13867 c -3.72179,3.34205 -9.98807,6.76005 -18.79883,10.25395 -8.73481,3.418 -17.43295,5.127 -26.0918,5.127 -6.53212,0 -12.53125,-0.9115 -18,-2.7344 -5.39279,-1.8229 -10.06402,-4.5573 -14.01367,-8.2031 -4.10156,-3.72185 -7.33095,-8.46965 -9.68555,-14.24225 -2.3546,-5.8485 -3.53125,-12.6845 -3.53125,-20.5078 h 93.76562 v -11.6211 c 0,-18.4571 -4.67123,-32.6986 -14.01367,-42.7246 -9.2665,-10.0261 -22.48264,-15.0391 -39.64843,-15.0391 z m 150.27734,0 c -7.51953,0 -14.84852,1.5577 -21.98828,4.6719 -7.13976,3.1141 -14.0523,7.4436 -20.73633,12.9883 v -14.127 H 304.3125 v 127.26175 h 21.41991 v -95.01955 c 5.84853,-4.4813 11.96355,-8.1645 18.34375,-11.0508 6.38021,-2.8863 12.49327,-4.3301 18.3418,-4.3301 5.69661,0 10.33051,0.7976 13.90039,2.3926 3.56988,1.5191 6.30426,3.8744 8.20312,7.0645 1.82293,2.8863 3.07619,6.9112 3.75977,12.0761 0.68359,5.089 1.0254,10.5578 1.0254,16.4063 v 72.46095 h 21.41992 v -82.60155 c 0,-15.5708 -3.6085,-27.4944 -10.82423,-35.7735 -7.21571,-8.2791 -17.69748,-12.4199 -31.4453,-12.4199 z m 175.79688,3.5332 v 127.26175 h 21.41992 V 902.07875 Z m 64.03125,0 v 127.26175 h 21.41796 v -90.34765 c 5.69662,-4.6333 11.62109,-8.393 17.77344,-11.2793 6.15235,-2.9623 12.53255,-4.4434 19.14063,-4.4434 4.10156,0 7.63346,0.1886 10.5957,0.5684 3.03819,0.3038 6.15364,0.8361 9.34375,1.5957 h 1.13867 v -21.9883 c -3.34201,-0.5317 -5.84852,-0.8735 -7.51953,-1.0254 -1.67101,-0.2279 -4.36806,-0.3418 -8.08984,-0.3418 -6.75998,0 -13.40538,1.4418 -19.9375,4.3281 -6.45617,2.8104 -13.93837,7.6348 -22.44532,14.4707 v -18.7988 z m -391.24414,14.127 c 11.39321,0 19.86153,3.0761 25.40625,9.2285 5.62065,6.1523 8.46896,14.8485 8.54491,26.0898 h -72.91601 c 0.91146,-10.026 4.74783,-18.4177 11.5078,-25.1777 6.83594,-6.76 15.98785,-10.1406 27.45705,-10.1406 z"
       id="text4145" />
  </g>
</svg>
