<?xml version="1.0" encoding="UTF-8" standalone="no"?>
<!-- Created with Inkscape (http://www.inkscape.org/) -->

<svg
   xmlns:dc="http://purl.org/dc/elements/1.1/"
   xmlns:cc="http://creativecommons.org/ns#"
   xmlns:rdf="http://www.w3.org/1999/02/22-rdf-syntax-ns#"
   xmlns:svg="http://www.w3.org/2000/svg"
   xmlns="http://www.w3.org/2000/svg"
   xmlns:sodipodi="http://sodipodi.sourceforge.net/DTD/sodipodi-0.dtd"
   xmlns:inkscape="http://www.inkscape.org/namespaces/inkscape"
   version="1.1"
   id="svg7403"
   width="1000"
   height="1000"
   viewBox="0 0 1000 1000"
   sodipodi:docname="3.svg"
   inkscape:version="0.92.4 (5da689c313, 2019-01-14)">
  <metadata
     id="metadata7409">
    <rdf:RDF>
      <cc:Work
         rdf:about="">
        <dc:format>image/svg+xml</dc:format>
        <dc:type
           rdf:resource="http://purl.org/dc/dcmitype/StillImage" />
        <dc:title />
      </cc:Work>
    </rdf:RDF>
  </metadata>
  <defs
     id="defs7407">
    <clipPath
       clipPathUnits="userSpaceOnUse"
       id="clipPath7415">
      <rect
         style="fill:none;stroke:#ff0000;stroke-width:1.0620985;stroke-miterlimit:4;stroke-dasharray:none"
         id="rect7417"
         width="998.93787"
         height="998.93793"
         x="0.53104925"
         y="0.53125"
         transform="rotate(-90)" />
    </clipPath>
  </defs>
  <sodipodi:namedview
     pagecolor="#ffffff"
     bordercolor="#666666"
     borderopacity="1"
     objecttolerance="10"
     gridtolerance="10"
     guidetolerance="10"
     inkscape:pageopacity="0"
     inkscape:pageshadow="2"
     inkscape:window-width="1366"
     inkscape:window-height="715"
     id="namedview7405"
     showgrid="false"
     inkscape:zoom="0.27314815"
     inkscape:cx="1188.48"
     inkscape:cy="439.85482"
     inkscape:window-x="-8"
     inkscape:window-y="-8"
     inkscape:window-maximized="1"
     inkscape:current-layer="svg7403" />
  <path
     style="color:#000000;font-style:normal;font-variant:normal;font-weight:normal;font-stretch:normal;font-size:medium;line-height:normal;font-family:sans-serif;font-variant-ligatures:normal;font-variant-position:normal;font-variant-caps:normal;font-variant-numeric:normal;font-variant-alternates:normal;font-feature-settings:normal;text-indent:0;text-align:start;text-decoration:none;text-decoration-line:none;text-decoration-style:solid;text-decoration-color:#000000;letter-spacing:normal;word-spacing:normal;text-transform:none;writing-mode:lr-tb;direction:ltr;text-orientation:mixed;dominant-baseline:auto;baseline-shift:baseline;text-anchor:start;white-space:normal;shape-padding:0;clip-rule:nonzero;display:inline;overflow:visible;visibility:visible;opacity:1;isolation:auto;mix-blend-mode:normal;color-interpolation:sRGB;color-interpolation-filters:linearRGB;solid-color:#000000;solid-opacity:1;vector-effect:none;fill:#000000;fill-opacity:1;fill-rule:nonzero;stroke:none;stroke-width:25.29630852;stroke-linecap:butt;stroke-linejoin:miter;stroke-miterlimit:4;stroke-dasharray:none;stroke-dashoffset:0;stroke-opacity:1;color-rendering:auto;image-rendering:auto;shape-rendering:auto;text-rendering:auto;enable-background:accumulate"
     d="m 50.347656,58.242188 c -5.675084,-0.0037 -11.203007,1.196864 -16.126953,3.205078 -9.847891,4.016428 -17.949899,10.900176 -23.863281,19.035156 -5.3087214,7.303154 -8.9301638,15.845303 -8.9121095,25.230468 -0.2444946,1.20601 -0.1548252,1.71589 -0.1679687,2.18555 -0.019831,0.7086 -0.00895,1.26946 0.00977,1.89258 0.037422,1.24622 0.1186201,2.67074 0.234375,4.40039 0.2315098,3.45929 0.6079574,8.06056 1.0859375,13.49218 0.9559601,10.86325 2.3181604,24.99428 3.7128906,39.03907 2.7894604,28.08958 5.7050785,55.8164 5.7050785,55.8164 l 0.01563,0.14453 0.01758,0.14453 c 0.742439,5.7787 0.618287,18.89163 0.455078,22.73243 -1.93086,45.47473 4.78125,68.63281 4.78125,68.63281 l -0.160156,-0.57617 c 10.960109,43.67191 14.908543,83.68433 16.140625,112.63672 0.616041,14.47619 0.556865,26.18329 0.367187,34.22656 -0.09484,4.02163 -0.222876,7.11932 -0.316406,9.23828 -0.04677,1.05948 -0.08415,1.85727 -0.109375,2.50781 -0.01261,0.32527 -0.02519,0.57461 -0.02734,1.03711 -1.6e-5,0.004 2.7e-5,0.016 0,0.0195 -3.731288,43.91655 -1.732327,86.28153 2.347656,127.34961 3.361405,33.83521 11.119013,62.66924 19.138672,105.01172 l 0.07031,0.36719 0.08984,0.36133 C 92.158849,854.88074 44.228516,989.49609 44.228516,989.49609 l 23.814453,8.53321 c 0,0 50.592701,-140.42376 11.486328,-297.09375 C 71.35125,657.75681 63.829081,629.5194 60.710938,598.13281 56.693035,557.68962 54.808748,516.67085 58.455078,474.5957 l 2.984375,-34.4375 -2.457031,2.44532 c -0.06205,-5.34113 -0.159169,-10.97715 -0.433594,-17.42579 -1.287291,-30.24974 -5.381384,-71.90349 -16.878906,-117.71679 l -0.07227,-0.29102 -0.08594,-0.28515 c 0,0 -5.54241,-17.438 -3.72461,-60.25 0.207585,-4.88507 0.622743,-17.22837 -0.636718,-27.03125 l 0.0332,0.28906 c 0,0 -2.911502,-27.67462 -5.691406,-55.66797 -1.389953,-13.99668 -2.74578,-28.07857 -3.685547,-38.75781 -0.469884,-5.33963 -0.835969,-9.8426 -1.044922,-12.96485 -0.07537,-1.12626 -0.104649,-1.80459 -0.136719,-2.5039 l 0.226562,-0.60157 -0.283203,-2.92773 c -0.185625,-1.91982 0.979669,-6.61432 4.25,-11.113281 3.270332,-4.498962 8.285598,-8.579944 12.955079,-10.484375 4.66948,-1.904432 8.319868,-1.99282 12.083984,-0.07227 3.764115,1.920554 8.782311,6.768284 13.052734,18.644532 l 0.05469,0.1543 0.06055,0.15234 c 9.171175,23.565 10.440978,42.7762 13.357421,60.53516 l 0.04297,0.25781 0.05273,0.25781 c 0,0 8.194155,40.03416 9.777343,71.63867 3.621851,72.30213 10.615581,135.37216 30.072261,191.43555 l 23.89844,-8.29492 C 128.09035,367.32157 121.09578,306.56562 117.51953,235.17383 115.7757,200.36244 107.25,159.66992 107.25,159.66992 l 0.0957,0.51563 C 104.75618,144.41728 103.17693,121.88417 92.683594,94.8125 86.973141,78.972659 78.35479,67.878774 67.353516,62.265625 61.844059,59.45455 56.02274,58.245909 50.347656,58.242188 Z M 26.5625,108.60547 c -0.0021,0.0766 0.124409,0.20601 0.0332,0.87109 -0.004,-0.10466 -0.02083,-0.35852 -0.02344,-0.44531 -0.01016,-0.33825 -0.0061,-0.55511 -0.0098,-0.42578 z"
     id="path7419"
     inkscape:connector-curvature="0" />
  <path
     style="color:#000000;font-style:normal;font-variant:normal;font-weight:normal;font-stretch:normal;font-size:medium;line-height:normal;font-family:sans-serif;font-variant-ligatures:normal;font-variant-position:normal;font-variant-caps:normal;font-variant-numeric:normal;font-variant-alternates:normal;font-feature-settings:normal;text-indent:0;text-align:start;text-decoration:none;text-decoration-line:none;text-decoration-style:solid;text-decoration-color:#000000;letter-spacing:normal;word-spacing:normal;text-transform:none;writing-mode:lr-tb;direction:ltr;text-orientation:mixed;dominant-baseline:auto;baseline-shift:baseline;text-anchor:start;white-space:normal;shape-padding:0;clip-rule:nonzero;display:inline;overflow:visible;visibility:visible;opacity:1;isolation:auto;mix-blend-mode:normal;color-interpolation:sRGB;color-interpolation-filters:linearRGB;solid-color:#000000;solid-opacity:1;vector-effect:none;fill:#000000;fill-opacity:1;fill-rule:nonzero;stroke:none;stroke-width:25.29630852;stroke-linecap:butt;stroke-linejoin:miter;stroke-miterlimit:4;stroke-dasharray:none;stroke-dashoffset:0;stroke-opacity:1;color-rendering:auto;image-rendering:auto;shape-rendering:auto;text-rendering:auto;enable-background:accumulate"
     d="M 151.92188,1.3710938 C 146.13627,1.5943467 140.47509,2.942223 135.28125,5.1875 114.50591,14.168608 99.507392,37.189443 102.49414,63.892578 l 0.0234,0.199219 0.0273,0.197265 c 8.34669,57.982368 9.84403,111.761018 12.71289,174.869138 -1.20266,21.02317 3.78516,50.17578 3.78516,50.17578 l 0.0586,0.3711 0.082,0.36719 c 1.54438,7.02278 -0.39159,19.5926 1.53125,33.24804 7.55006,53.61872 1.04688,98.58399 1.04688,98.58399 l 25.03125,3.64648 c 0,0 7.07445,-48.20492 -1.0293,-105.75586 -1.06177,-7.54036 1.27967,-20.81092 -1.875,-35.15625 l 0.14063,0.74024 c 0,0 -4.49321,-30.97474 -3.50196,-45.56836 l 0.0488,-0.7168 -0.0312,-0.7168 c -2.86197,-62.87207 -4.3429,-117.59979 -12.91015,-177.306638 -1.74741,-15.671472 7.49742,-28.260618 17.68359,-32.664062 5.09439,-2.202285 9.99594,-2.438976 14.67773,-0.585938 4.51432,1.786754 9.42187,5.824845 13.77539,14.53125 0.57374,2.228558 12.96541,50.488696 16.46875,85.021488 3.86887,38.13597 15.98253,114.58912 22.08985,146.98437 6.22289,33.00841 2.58271,57.15088 0.36133,80.58594 -2.10866,22.24581 -2.4044,45.00824 10.69726,68.60937 0.31635,1.74012 1.18534,2.19145 1.46289,2.76758 0.23938,0.4969 0.38368,0.67362 0.56641,0.97461 0.008,0.0131 0.0134,0.0259 0.0215,0.0391 0.16389,0.26763 0.36925,0.67058 0.51367,0.88086 0.62079,0.90387 1.16703,1.54061 1.83008,2.23047 1.32612,1.37973 2.94426,2.93596 6.1836,4.23047 3.23933,1.29451 9.45541,1.58439 13.90625,-1.41601 4.45083,-3.0004 6.0374,-6.98159 6.9707,-10.38282 l 0.53125,-1.93359 -0.0937,-2.00195 c -1.02689,-22.08868 4.03123,-77.74268 7.3457,-117.83594 3.58505,-29.01467 11.00722,-58.72894 14.30078,-89.99805 l 3.72852,-35.38672 -1.18555,1.17969 c 0.19407,-3.13999 0.40141,-5.10301 0.57422,-8.51953 1.23824,-24.47968 1.80337,-55.07028 -1.45117,-80.726563 l -0.0117,-0.09961 -0.0156,-0.09961 c -0.65418,-4.572527 0.68606,-8.434251 3.92968,-12.27539 3.24363,-3.84114 8.53393,-7.111289 14.11719,-8.470704 5.58326,-1.359414 11.15751,-0.906887 15.81641,1.503907 4.60747,2.38418 8.92344,6.680049 11.97851,15.714843 0.32597,1.236777 8.88879,34.244706 6.60547,87.468746 -1.35412,31.56573 -1.97913,67.26613 -3.08594,93.03321 -0.95402,22.20924 -1.79043,44.45909 -2.99609,64.95508 -0.0565,0.46672 -2.51681,20.74249 -7.42969,37.91601 -9.46152,33.0737 -19.3401,75.39324 -4.35351,113.93555 l 23.57617,-9.16797 c -11.20083,-28.80615 -3.98892,-66.04749 5.09766,-97.81055 5.79635,-20.26185 8.27929,-42.23242 8.27929,-42.23242 l 0.041,-0.35742 0.0215,-0.35938 c 1.24212,-21.00489 2.08095,-43.53396 3.03711,-65.79297 1.13196,-26.35266 1.75268,-61.95556 3.08594,-93.03515 2.46972,-57.5691 -7.53516,-95.509767 -7.53516,-95.509767 l -0.0977,-0.367187 -0.11914,-0.359375 C 343.77697,61.871957 334.8281,51.320902 324.05469,45.746094 313.28127,40.171285 301.3122,39.529689 290.62891,42.130859 c -10.6833,2.601171 -20.38331,8.345142 -27.46094,16.726563 -7.07763,8.381421 -11.39198,19.95189 -9.64258,32.179687 l -0.0273,-0.199218 c 2.88229,22.721769 2.48459,52.514509 1.2832,76.265629 -0.60069,11.87555 -1.38417,22.27726 -2.00391,29.6914 -0.30986,3.70707 -0.57919,6.66241 -0.76562,8.71289 -0.0932,1.02525 -0.16344,1.81479 -0.21484,2.41992 -0.0243,0.28553 -0.0448,0.51748 -0.0645,0.81836 -2.62386,24.68473 -8.25802,49.91255 -12.25976,76.08203 -0.57887,-4.8959 -1.2971,-9.91524 -2.28516,-15.15624 C 231.30202,238.45329 219.07932,161.00702 215.4082,124.82031 211.4528,85.831581 197.92383,34.597656 197.92383,34.597656 l -0.30078,-1.15625 -0.51367,-1.078125 C 190.51501,18.494629 180.67989,8.8010957 169.30469,4.2988281 163.61709,2.0476943 157.70748,1.1478408 151.92188,1.3710938 Z M 248.26367,416.15625 c 0.28084,0.26531 0.4897,0.47342 0.69727,1.13281 z"
     id="path7421"
     inkscape:connector-curvature="0" />
  <path
     style="color:#000000;font-style:normal;font-variant:normal;font-weight:normal;font-stretch:normal;font-size:medium;line-height:normal;font-family:sans-serif;font-variant-ligatures:normal;font-variant-position:normal;font-variant-caps:normal;font-variant-numeric:normal;font-variant-alternates:normal;font-feature-settings:normal;text-indent:0;text-align:start;text-decoration:none;text-decoration-line:none;text-decoration-style:solid;text-decoration-color:#000000;letter-spacing:normal;word-spacing:normal;text-transform:none;writing-mode:lr-tb;direction:ltr;text-orientation:mixed;dominant-baseline:auto;baseline-shift:baseline;text-anchor:start;white-space:normal;shape-padding:0;clip-rule:nonzero;display:inline;overflow:visible;visibility:visible;opacity:1;isolation:auto;mix-blend-mode:normal;color-interpolation:sRGB;color-interpolation-filters:linearRGB;solid-color:#000000;solid-opacity:1;vector-effect:none;fill:#000000;fill-opacity:1;fill-rule:nonzero;stroke:none;stroke-width:25.29630852;stroke-linecap:butt;stroke-linejoin:miter;stroke-miterlimit:4;stroke-dasharray:none;stroke-dashoffset:0;stroke-opacity:1;color-rendering:auto;image-rendering:auto;shape-rendering:auto;text-rendering:auto;enable-background:accumulate"
     d="m 331.01953,370.04297 -7.32031,24.21484 c 0,0 8.94359,2.51485 19.51367,13.48438 10.57008,10.96953 21.9832,29.81401 22.88086,64.41601 l 0.043,1.67188 0.47656,1.60156 c 0,0 34.48721,117.77191 23.79297,220.05664 -0.12007,0.81004 -10.36482,69.79821 -22.62891,102.07422 -7.98217,21.00706 -17.72789,38.48686 -24.18554,65.36328 -8.79668,36.6114 -22.24606,66.42015 -27.38477,130.54102 l 25.21485,2.02148 c 4.91019,-61.26941 17.35773,-87.4971 26.76562,-126.65234 5.67421,-23.61578 14.54189,-39.40555 23.23633,-62.28711 14.76538,-38.85882 24.07226,-107.7832 24.07226,-107.78321 l 0.0312,-0.2246 0.0234,-0.22657 C 426.88324,590.48617 392.51973,473.95157 391.25781,469.71484 389.83143,430.63813 375.83647,405.14068 361.42969,390.18945 346.79576,375.0025 331.01953,370.04297 331.01953,370.04297 Z"
     id="path7423"
     inkscape:connector-curvature="0" />
  <path
     style="color:#000000;font-style:normal;font-variant:normal;font-weight:normal;font-stretch:normal;font-size:medium;line-height:normal;font-family:sans-serif;font-variant-ligatures:normal;font-variant-position:normal;font-variant-caps:normal;font-variant-numeric:normal;font-variant-alternates:normal;font-feature-settings:normal;text-indent:0;text-align:start;text-decoration:none;text-decoration-line:none;text-decoration-style:solid;text-decoration-color:#000000;letter-spacing:normal;word-spacing:normal;text-transform:none;writing-mode:lr-tb;direction:ltr;text-orientation:mixed;dominant-baseline:auto;baseline-shift:baseline;text-anchor:start;white-space:normal;shape-padding:0;clip-rule:nonzero;display:inline;overflow:visible;visibility:visible;opacity:1;isolation:auto;mix-blend-mode:normal;color-interpolation:sRGB;color-interpolation-filters:linearRGB;solid-color:#000000;solid-opacity:1;vector-effect:none;fill:#000000;fill-opacity:1;fill-rule:nonzero;stroke:none;stroke-width:12.64815426;stroke-linecap:butt;stroke-linejoin:miter;stroke-miterlimit:4;stroke-dasharray:none;stroke-dashoffset:0;stroke-opacity:1;color-rendering:auto;image-rendering:auto;shape-rendering:auto;text-rendering:auto;enable-background:accumulate"
     d="M 50.935547,78.294922 C 39.962178,77.477659 31.013474,81.836785 25.251953,87.097656 17.569925,94.112152 14.273438,102.61719 14.273438,102.61719 l -0.507813,1.27734 0.06641,1.37109 c 0.640952,13.15425 5.391769,22.45536 13.203125,26.53907 7.811356,4.08371 16.762589,2.31826 24.035156,-1.83985 7.272568,-4.1581 13.498313,-10.87327 16.826172,-19.12695 3.32786,-8.25368 3.377827,-18.441499 -2.320312,-27.355468 l -1.111328,-1.738281 -1.923828,-0.748047 c -4.064774,-1.581442 -7.94768,-2.428751 -11.605469,-2.701172 z m -4.617188,12.291016 c 2.704372,-0.160306 5.859658,0.326516 9.46875,1.49414 2.385787,4.760447 2.256883,9.371582 0.378907,14.029302 -2.11293,5.24043 -6.621778,10.15845 -11.373047,12.875 -4.751269,2.71654 -9.113836,3.06709 -11.898438,1.61132 -2.633469,-1.37675 -5.501853,-5.13531 -6.25,-14.47851 0.688694,-1.4903 2.743175,-5.66792 7.136719,-9.67969 3.279101,-2.994162 7.127783,-5.530917 12.537109,-5.851562 z"
     id="path7974"
     inkscape:connector-curvature="0" />
  <path
     style="color:#000000;font-style:normal;font-variant:normal;font-weight:normal;font-stretch:normal;font-size:medium;line-height:normal;font-family:sans-serif;font-variant-ligatures:normal;font-variant-position:normal;font-variant-caps:normal;font-variant-numeric:normal;font-variant-alternates:normal;font-feature-settings:normal;text-indent:0;text-align:start;text-decoration:none;text-decoration-line:none;text-decoration-style:solid;text-decoration-color:#000000;letter-spacing:normal;word-spacing:normal;text-transform:none;writing-mode:lr-tb;direction:ltr;text-orientation:mixed;dominant-baseline:auto;baseline-shift:baseline;text-anchor:start;white-space:normal;shape-padding:0;clip-rule:nonzero;display:inline;overflow:visible;visibility:visible;opacity:1;isolation:auto;mix-blend-mode:normal;color-interpolation:sRGB;color-interpolation-filters:linearRGB;solid-color:#000000;solid-opacity:1;vector-effect:none;fill:#000000;fill-opacity:1;fill-rule:nonzero;stroke:none;stroke-width:12.64815426;stroke-linecap:butt;stroke-linejoin:miter;stroke-miterlimit:4;stroke-dasharray:none;stroke-dashoffset:0;stroke-opacity:1;color-rendering:auto;image-rendering:auto;shape-rendering:auto;text-rendering:auto;enable-background:accumulate"
     d="m 153.83398,23.433594 c -7.70761,-0.261983 -14.68742,1.961225 -20.15234,5.294922 -5.46492,3.333696 -9.64906,7.506275 -12.59961,11.18164 -1.47527,1.837683 -2.63624,3.54629 -3.51367,5.080078 -0.43872,0.766894 -0.80652,1.483087 -1.125,2.25 -0.31848,0.766914 -0.69681,1.35688 -0.75781,3.183594 l -0.0137,0.388672 0.0352,0.388672 c 1.35324,15.0693 6.79596,25.491467 15.08594,30.839844 8.28998,5.348376 18.35919,4.923672 26.86328,1.36914 8.50409,-3.554531 15.97582,-10.14393 20.60352,-18.564453 4.62769,-8.420523 6.22827,-19.035614 2.03125,-29.232422 l -0.63086,-1.53125 -1.29883,-1.02539 C 169.9788,26.443965 161.5416,23.695576 153.83398,23.433594 Z m -0.54101,12.105468 c 4.54262,0.127476 9.72163,1.99758 15.72265,6.390626 1.92171,5.871013 1.05707,11.553026 -1.83984,16.824218 -3.14479,5.722233 -8.7049,10.607366 -14.39648,12.986328 -5.69158,2.378963 -10.98414,2.347874 -15.12891,-0.326172 -3.98647,-2.571915 -7.83444,-8.387155 -9.13867,-20.076171 0.0186,-0.03329 0.0153,-0.03366 0.0352,-0.06836 0.47684,-0.83355 1.3048,-2.079122 2.39843,-3.441406 2.18726,-2.724569 5.45815,-5.942412 9.32422,-8.300781 3.86607,-2.358369 8.09397,-4.126612 13.02344,-3.988282 z"
     id="path7974-9"
     inkscape:connector-curvature="0" />
  <path
     style="color:#000000;font-style:normal;font-variant:normal;font-weight:normal;font-stretch:normal;font-size:medium;line-height:normal;font-family:sans-serif;font-variant-ligatures:normal;font-variant-position:normal;font-variant-caps:normal;font-variant-numeric:normal;font-variant-alternates:normal;font-feature-settings:normal;text-indent:0;text-align:start;text-decoration:none;text-decoration-line:none;text-decoration-style:solid;text-decoration-color:#000000;letter-spacing:normal;word-spacing:normal;text-transform:none;writing-mode:lr-tb;direction:ltr;text-orientation:mixed;dominant-baseline:auto;baseline-shift:baseline;text-anchor:start;white-space:normal;shape-padding:0;clip-rule:nonzero;display:inline;overflow:visible;visibility:visible;opacity:1;isolation:auto;mix-blend-mode:normal;color-interpolation:sRGB;color-interpolation-filters:linearRGB;solid-color:#000000;solid-opacity:1;vector-effect:none;fill:#000000;fill-opacity:1;fill-rule:nonzero;stroke:none;stroke-width:12.64815426;stroke-linecap:butt;stroke-linejoin:miter;stroke-miterlimit:4;stroke-dasharray:none;stroke-dashoffset:0;stroke-opacity:1;color-rendering:auto;image-rendering:auto;shape-rendering:auto;text-rendering:auto;enable-background:accumulate"
     d="m 300.69922,62.251953 c -5.25417,-0.09271 -10.03926,0.895195 -14.125,2.537109 -5.44766,2.18922 -9.6786,5.328394 -12.6875,8.289063 -1.50445,1.480335 -2.70203,2.90772 -3.64258,4.298828 -0.94055,1.391109 -1.97169,1.946219 -2.08984,5.484375 l -0.0117,0.367188 0.0312,0.363281 c 1.23364,14.959794 6.13558,25.516933 13.67578,31.654293 7.5402,6.13737 17.20984,7.14233 25.56641,4.70508 8.35656,-2.43725 15.79489,-8.04164 20.63671,-15.64844 4.84183,-7.606788 6.94357,-17.507139 3.87891,-27.513668 l -0.57812,-1.888671 -1.55079,-1.22461 C 319.51501,65.56016 309.45617,62.406474 300.69922,62.251953 Z m -0.11524,12.392578 c 5.41343,0.0078 11.88741,2.040014 19.60352,7.69336 1.1861,5.594573 0.0259,10.723791 -2.80664,15.173828 -3.14555,4.941851 -8.33004,8.789261 -13.50586,10.298831 -5.17582,1.50956 -9.95005,0.9568 -14.04102,-2.37305 -3.90206,-3.1761 -7.56985,-9.688632 -8.81836,-21.318359 0.39144,-0.535471 0.91373,-1.210205 1.74219,-2.025391 1.93613,-1.905095 4.90497,-4.111083 8.53125,-5.568359 2.71972,-1.092958 5.79448,-1.885898 9.29492,-1.88086 z"
     id="path7974-9-3"
     inkscape:connector-curvature="0" />
  <path
     style="color:#000000;font-style:normal;font-variant:normal;font-weight:normal;font-stretch:normal;font-size:medium;line-height:normal;font-family:sans-serif;font-variant-ligatures:normal;font-variant-position:normal;font-variant-caps:normal;font-variant-numeric:normal;font-variant-alternates:normal;font-feature-settings:normal;text-indent:0;text-align:start;text-decoration:none;text-decoration-line:none;text-decoration-style:solid;text-decoration-color:#000000;letter-spacing:normal;word-spacing:normal;text-transform:none;writing-mode:lr-tb;direction:ltr;text-orientation:mixed;dominant-baseline:auto;baseline-shift:baseline;text-anchor:start;white-space:normal;shape-padding:0;clip-rule:nonzero;display:inline;overflow:visible;visibility:visible;opacity:1;isolation:auto;mix-blend-mode:normal;color-interpolation:sRGB;color-interpolation-filters:linearRGB;solid-color:#000000;solid-opacity:1;vector-effect:none;fill:#000000;fill-opacity:1;fill-rule:nonzero;stroke:none;stroke-width:9.34660912;stroke-linecap:butt;stroke-linejoin:miter;stroke-miterlimit:4;stroke-dasharray:none;stroke-dashoffset:0;stroke-opacity:1;color-rendering:auto;image-rendering:auto;shape-rendering:auto;text-rendering:auto;enable-background:accumulate"
     d="m 132.99609,548.08789 c -28.35905,19.26625 -53.394528,0.65039 -53.394528,0.65039 l -5.457031,7.58789 c 0,0 31.214969,21.83562 64.103519,-0.50781 z"
     id="path3720"
     inkscape:connector-curvature="0" />
  <path
     style="color:#000000;font-style:normal;font-variant:normal;font-weight:normal;font-stretch:normal;font-size:medium;line-height:normal;font-family:sans-serif;font-variant-ligatures:normal;font-variant-position:normal;font-variant-caps:normal;font-variant-numeric:normal;font-variant-alternates:normal;font-feature-settings:normal;text-indent:0;text-align:start;text-decoration:none;text-decoration-line:none;text-decoration-style:solid;text-decoration-color:#000000;letter-spacing:normal;word-spacing:normal;text-transform:none;writing-mode:lr-tb;direction:ltr;text-orientation:mixed;dominant-baseline:auto;baseline-shift:baseline;text-anchor:start;white-space:normal;shape-padding:0;clip-rule:nonzero;display:inline;overflow:visible;visibility:visible;opacity:1;isolation:auto;mix-blend-mode:normal;color-interpolation:sRGB;color-interpolation-filters:linearRGB;solid-color:#000000;solid-opacity:1;vector-effect:none;fill:#000000;fill-opacity:1;fill-rule:nonzero;stroke:none;stroke-width:9.34660912;stroke-linecap:butt;stroke-linejoin:miter;stroke-miterlimit:4;stroke-dasharray:none;stroke-dashoffset:0;stroke-opacity:1;color-rendering:auto;image-rendering:auto;shape-rendering:auto;text-rendering:auto;enable-background:accumulate"
     d="m 208.58203,541.83789 c -8.52119,9.63265 -18.97864,9.66411 -28.41992,7.32813 -9.44128,-2.33599 -16.79102,-7.25 -16.79102,-7.25 l -5.23242,7.74414 c 0,0 8.47586,5.78139 19.7793,8.57812 11.30344,2.79673 26.50985,2.40012 37.66406,-10.20898 z"
     id="path3722"
     inkscape:connector-curvature="0" />
  <path
     style="color:#000000;font-style:normal;font-variant:normal;font-weight:normal;font-stretch:normal;font-size:medium;line-height:normal;font-family:sans-serif;font-variant-ligatures:normal;font-variant-position:normal;font-variant-caps:normal;font-variant-numeric:normal;font-variant-alternates:normal;font-feature-settings:normal;text-indent:0;text-align:start;text-decoration:none;text-decoration-line:none;text-decoration-style:solid;text-decoration-color:#000000;letter-spacing:normal;word-spacing:normal;text-transform:none;writing-mode:lr-tb;direction:ltr;text-orientation:mixed;dominant-baseline:auto;baseline-shift:baseline;text-anchor:start;white-space:normal;shape-padding:0;clip-rule:nonzero;display:inline;overflow:visible;visibility:visible;opacity:1;isolation:auto;mix-blend-mode:normal;color-interpolation:sRGB;color-interpolation-filters:linearRGB;solid-color:#000000;solid-opacity:1;vector-effect:none;fill:#000000;fill-opacity:1;fill-rule:nonzero;stroke:none;stroke-width:9.34660912;stroke-linecap:butt;stroke-linejoin:miter;stroke-miterlimit:4;stroke-dasharray:none;stroke-dashoffset:0;stroke-opacity:1;color-rendering:auto;image-rendering:auto;shape-rendering:auto;text-rendering:auto;enable-background:accumulate"
     d="m 236.875,547.71875 -5.9082,7.24219 c 0,0 8.47318,6.94546 20.24218,11.80468 11.76901,4.85923 27.69366,7.89544 41.57618,-1.20312 l -5.125,-7.81836 c -10.32776,6.76878 -22.55356,4.64759 -32.88282,0.38281 -10.32925,-4.26477 -17.90234,-10.4082 -17.90234,-10.4082 z"
     id="path3724"
     inkscape:connector-curvature="0" />
  <path
     style="color:#000000;font-style:normal;font-variant:normal;font-weight:normal;font-stretch:normal;font-size:medium;line-height:normal;font-family:sans-serif;font-variant-ligatures:normal;font-variant-position:normal;font-variant-caps:normal;font-variant-numeric:normal;font-variant-alternates:normal;font-feature-settings:normal;text-indent:0;text-align:start;text-decoration:none;text-decoration-line:none;text-decoration-style:solid;text-decoration-color:#000000;letter-spacing:normal;word-spacing:normal;text-transform:none;writing-mode:lr-tb;direction:ltr;text-orientation:mixed;dominant-baseline:auto;baseline-shift:baseline;text-anchor:start;white-space:normal;shape-padding:0;clip-rule:nonzero;display:inline;overflow:visible;visibility:visible;opacity:1;isolation:auto;mix-blend-mode:normal;color-interpolation:sRGB;color-interpolation-filters:linearRGB;solid-color:#000000;solid-opacity:1;vector-effect:none;fill:#000000;fill-opacity:1;fill-rule:nonzero;stroke:none;stroke-width:9.34660912;stroke-linecap:butt;stroke-linejoin:miter;stroke-miterlimit:4;stroke-dasharray:none;stroke-dashoffset:0;stroke-opacity:1;color-rendering:auto;image-rendering:auto;shape-rendering:auto;text-rendering:auto;enable-background:accumulate"
     d="m 318.48633,580.61523 -5.79102,7.33789 c 0,0 8.54912,6.7864 20.06446,11.46094 11.51533,4.67455 27.00803,7.53398 39.55273,-2 l -5.65625,-7.4414 c -8.8416,6.71961 -20.29602,4.87509 -30.38086,0.78125 -10.08483,-4.09385 -17.78906,-10.13868 -17.78906,-10.13868 z"
     id="path3726"
     inkscape:connector-curvature="0" />
</svg>
