<?xml version="1.0" encoding="UTF-8" standalone="no"?>
<!-- Created with Inkscape (http://www.inkscape.org/) -->

<svg
   xmlns:dc="http://purl.org/dc/elements/1.1/"
   xmlns:cc="http://creativecommons.org/ns#"
   xmlns:rdf="http://www.w3.org/1999/02/22-rdf-syntax-ns#"
   xmlns:svg="http://www.w3.org/2000/svg"
   xmlns="http://www.w3.org/2000/svg"
   xmlns:sodipodi="http://sodipodi.sourceforge.net/DTD/sodipodi-0.dtd"
   xmlns:inkscape="http://www.inkscape.org/namespaces/inkscape"
   version="1.1"
   id="svg4572"
   width="1000"
   height="1000"
   viewBox="0 0 1000 1000"
   sodipodi:docname="5.svg"
   inkscape:version="0.92.4 (5da689c313, 2019-01-14)">
  <metadata
     id="metadata4578">
    <rdf:RDF>
      <cc:Work
         rdf:about="">
        <dc:format>image/svg+xml</dc:format>
        <dc:type
           rdf:resource="http://purl.org/dc/dcmitype/StillImage" />
        <dc:title />
      </cc:Work>
    </rdf:RDF>
  </metadata>
  <defs
     id="defs4576">
    <clipPath
       clipPathUnits="userSpaceOnUse"
       id="clipPath4653">
      <rect
         style="opacity:1;fill:#d38d5f;fill-opacity:0;stroke:#ff0000;stroke-width:18.52108765;stroke-miterlimit:4;stroke-dasharray:none"
         id="rect4655"
         width="981.47888"
         height="981.47894"
         x="9.2605438"
         y="9.2605152"
         transform="rotate(-90)" />
    </clipPath>
  </defs>
  <sodipodi:namedview
     pagecolor="#ffffff"
     bordercolor="#666666"
     borderopacity="1"
     objecttolerance="10"
     gridtolerance="10"
     guidetolerance="10"
     inkscape:pageopacity="0"
     inkscape:pageshadow="2"
     inkscape:window-width="1366"
     inkscape:window-height="715"
     id="namedview4574"
     showgrid="false"
     inkscape:zoom="0.27314815"
     inkscape:cx="638.52939"
     inkscape:cy="798.4815"
     inkscape:window-x="-8"
     inkscape:window-y="-8"
     inkscape:window-maximized="1"
     inkscape:current-layer="svg4572" />
  <path
     style="color:#000000;font-style:normal;font-variant:normal;font-weight:normal;font-stretch:normal;font-size:medium;line-height:normal;font-family:sans-serif;font-variant-ligatures:normal;font-variant-position:normal;font-variant-caps:normal;font-variant-numeric:normal;font-variant-alternates:normal;font-feature-settings:normal;text-indent:0;text-align:start;text-decoration:none;text-decoration-line:none;text-decoration-style:solid;text-decoration-color:#000000;letter-spacing:normal;word-spacing:normal;text-transform:none;writing-mode:lr-tb;direction:ltr;text-orientation:mixed;dominant-baseline:auto;baseline-shift:baseline;text-anchor:start;white-space:normal;shape-padding:0;clip-rule:nonzero;display:inline;overflow:visible;visibility:visible;opacity:1;isolation:auto;mix-blend-mode:normal;color-interpolation:sRGB;color-interpolation-filters:linearRGB;solid-color:#000000;solid-opacity:1;vector-effect:none;fill:#000000;fill-opacity:1;fill-rule:nonzero;stroke:none;stroke-width:29.46523476;stroke-linecap:butt;stroke-linejoin:miter;stroke-miterlimit:4;stroke-dasharray:none;stroke-dashoffset:0;stroke-opacity:1;color-rendering:auto;image-rendering:auto;shape-rendering:auto;text-rendering:auto;enable-background:accumulate"
     d="m 258.61719,1.953125 c -2.99146,0.049974 -5.95545,0.2778528 -8.86524,0.6777344 -23.27832,3.1990524 -44.46773,15.6589486 -56.18554,34.5957026 -5.73332,9.265425 -7.56236,19.576909 -9.03907,31.484376 -1.4767,11.907466 -2.04931,25.301357 -2.3457,39.109372 -0.59277,27.61604 -0.13009,57.17962 -2.18164,75.63867 l -0.2168,1.94336 0.29883,1.93164 c 14.61491,94.69124 11.1299,91.48764 14.23633,138.19532 -1.90686,-1.0436 -3.8355,-2.04379 -5.81055,-2.91602 -18.34565,-8.10189 -39.57846,-9.80351 -59.39648,-4.96289 -19.81802,4.84062 -38.721213,16.87015 -48.949221,36.85547 -9.520353,18.60258 -10.572893,42.87501 -1.277343,70.9043 -5.682249,13.01702 -6.624025,26.95654 -5.666016,40.42187 -23.052202,3.08358 -39.621318,14.83478 -49.257812,26.93359 C 12.047673,507.72298 8.734375,523.5293 8.734375,523.5293 l -0.5722656,2.67773 0.4277344,2.70508 c 4.2981512,27.22201 0.070312,50.20508 0.070312,50.20508 l 0.4257813,-1.70313 c -10.4393883,33.21604 -6.1684767,80.93496 -0.75,122.47656 5.4184765,41.54161 13.0410155,76.01368 13.0410155,76.01368 l 0.539063,2.43945 1.3125,2.125 C 88.825349,886.67321 140.66016,1001.2422 140.66016,1001.2422 l 26.84961,-12.13673 c 0,0 -51.57368,-114.08827 -117.800786,-221.75781 -0.686011,-3.14817 -7.190934,-33.2002 -12.15625,-71.26758 -5.230628,-40.10144 -7.272176,-87.83067 -0.357422,-109.83203 l 0.263672,-0.83789 0.16211,-0.86328 c 0,0 4.757408,-25.52875 0.519531,-56.61133 0.59454,-2.20938 2.589403,-8.93062 8.867187,-16.8125 7.401751,-9.29305 18.330638,-18.03719 41.769532,-16.63086 l 18.212886,1.09375 -2.76757,-18.03321 c -2.72501,-17.75757 -2.3445,-34.01486 3.28515,-43.72656 l 3.51758,-6.06836 -2.49219,-6.55664 c -9.630316,-25.33248 -7.88231,-42.0543 -2.14062,-53.27344 5.74168,-11.21913 16.41252,-18.40658 29.70898,-21.65429 13.29647,-3.24771 28.71814,-1.9091 40.50196,3.29492 11.78381,5.20402 19.51074,13.20762 21.91601,24.51562 l 29.07227,-4.51367 C 217.58656,268.36771 227.4832,301.67845 209.44922,184.5 c 2.19673,-21.85648 1.63511,-50.13012 2.1914,-76.04688 0.28708,-13.374148 0.87601,-26.012392 2.12891,-36.115229 1.25291,-10.102838 3.72322,-17.780788 4.85352,-19.607422 5.912,-9.554191 20.329,-18.872697 35.14062,-20.908203 14.36027,-1.973478 27.80064,1.442131 38.2168,14.783203 12.59742,30.779316 10.6365,46.479822 6.72265,64.296871 -3.99311,18.17789 -11.5238,39.81368 -5.49023,70.98243 l 0.0801,0.41992 0.10547,0.41406 c 6.81036,26.75403 16.20484,58.43279 24.61328,85.20898 8.40844,26.7762 15.37089,47.59161 18.89648,56.09375 l 4.67383,11.26758 11.94141,-2.48828 c 14.40131,-3.00027 17.52822,-1.77415 20.95508,-0.93945 0.85671,0.20867 1.84429,0.5678 4.20703,0.83203 2.36273,0.26422 7.12429,-0.0159 10.93164,-2.36524 7.6147,-4.69873 7.418,-8.77369 8.71679,-12.10937 17.62721,-45.27165 28.00588,-66.0463 35.18164,-82.63672 7.17577,-16.59042 10.98515,-29.70255 13.53907,-53.72656 l 0.40039,-3.75977 -1.46094,-3.48632 c -8.04729,-19.22347 -10.62574,-44.69618 -5.88086,-63.80079 4.74489,-19.104607 13.67185,-30.678117 32.89453,-32.775387 14.70876,-1.604782 24.05122,3.378834 33.61328,18.287109 9.40536,14.663948 16.57523,39.547298 19.08399,72.255858 -7.06103,40.09886 -8.14532,55.81747 -9.90625,73.16211 -1.78996,17.63055 -4.42228,38.12369 -15.38672,92.39258 -0.47693,1.74038 -39.73962,145.1828 -52.52539,252.26367 l -0.16797,1.39649 0.10156,1.40039 c 0,0 8.25553,120.01063 -19.28125,225.56836 l -0.1875,0.7207 -0.11523,0.73633 c 0,0 -13.22455,85.08958 24.45117,184.1934 l 27.54297,-10.47075 C 445.55276,898.72179 457.17151,822.03626 457.31836,821.07812 485.61638,711.58589 477.64627,593.85121 477.29297,588.85742 489.8036,485.25679 528.99219,341.31055 528.99219,341.31055 l 0.13086,-0.47852 0.0976,-0.48633 c 11.14499,-55.12184 14.03528,-77.3178 15.89453,-95.63086 1.85926,-18.31305 2.63835,-31.93749 9.9375,-73.01172 l 0.32032,-1.80273 -0.13086,-1.82422 C 552.63758,131.56302 545.23736,101.94886 531.42383,80.412109 517.6103,58.875357 494.87993,46.007233 469.8125,48.742188 c -31.74848,3.463882 -51.62734,28.118788 -58.29492,54.964842 -6.32648,25.47269 -3.50345,53.91563 5.8164,78.31836 -2.2495,19.57347 -4.64251,27.47692 -10.86328,41.85938 -6.30179,14.56979 -16.85021,36.18199 -33.40039,78.18554 -3.46302,-0.28139 -7.54582,-0.39879 -12.71484,0.0234 -3.45442,-9.81237 -8.30027,-24.10354 -14.23242,-42.99414 -8.24678,-26.26139 -17.45808,-57.38307 -24.03321,-83.15234 -4.62192,-24.28521 0.87552,-38.16154 5.39258,-58.72461 4.53903,-20.663071 6.47047,-46.941104 -9.0293,-83.824222 l -0.66992,-1.59375 -1.02148,-1.396485 C 301.86957,10.048453 279.55742,1.6033065 258.61719,1.953125 Z M 370.63867,307.92969 c -0.60896,1.15174 -1.00863,1.07128 0,0 z"
     id="path3944"
     inkscape:connector-curvature="0" />
  <path
     style="color:#000000;font-style:normal;font-variant:normal;font-weight:normal;font-stretch:normal;font-size:medium;line-height:normal;font-family:sans-serif;font-variant-ligatures:normal;font-variant-position:normal;font-variant-caps:normal;font-variant-numeric:normal;font-variant-alternates:normal;font-feature-settings:normal;text-indent:0;text-align:start;text-decoration:none;text-decoration-line:none;text-decoration-style:solid;text-decoration-color:#000000;letter-spacing:normal;word-spacing:normal;text-transform:none;writing-mode:lr-tb;direction:ltr;text-orientation:mixed;dominant-baseline:auto;baseline-shift:baseline;text-anchor:start;white-space:normal;shape-padding:0;clip-rule:nonzero;display:inline;overflow:visible;visibility:visible;opacity:1;isolation:auto;mix-blend-mode:normal;color-interpolation:sRGB;color-interpolation-filters:linearRGB;solid-color:#000000;solid-opacity:1;vector-effect:none;fill:#000000;fill-opacity:1;fill-rule:nonzero;stroke:none;stroke-width:22.09892654;stroke-linecap:butt;stroke-linejoin:miter;stroke-miterlimit:4;stroke-dasharray:none;stroke-dashoffset:0;stroke-opacity:1;color-rendering:auto;image-rendering:auto;shape-rendering:auto;text-rendering:auto;enable-background:accumulate"
     d="m 205.07812,924.63281 c -24.43124,21.92549 -70.9707,7.27344 -70.9707,7.27344 l -7.37304,20.83398 c 0,0 56.00665,21.63192 93.10351,-11.66015 z"
     id="path3946"
     inkscape:connector-curvature="0" />
  <path
     style="color:#000000;font-style:normal;font-variant:normal;font-weight:normal;font-stretch:normal;font-size:medium;line-height:normal;font-family:sans-serif;font-variant-ligatures:normal;font-variant-position:normal;font-variant-caps:normal;font-variant-numeric:normal;font-variant-alternates:normal;font-feature-settings:normal;text-indent:0;text-align:start;text-decoration:none;text-decoration-line:none;text-decoration-style:solid;text-decoration-color:#000000;letter-spacing:normal;word-spacing:normal;text-transform:none;writing-mode:lr-tb;direction:ltr;text-orientation:mixed;dominant-baseline:auto;baseline-shift:baseline;text-anchor:start;white-space:normal;shape-padding:0;clip-rule:nonzero;display:inline;overflow:visible;visibility:visible;opacity:1;isolation:auto;mix-blend-mode:normal;color-interpolation:sRGB;color-interpolation-filters:linearRGB;solid-color:#000000;solid-opacity:1;vector-effect:none;fill:#000000;fill-opacity:1;fill-rule:nonzero;stroke:none;stroke-width:22.09892654;stroke-linecap:butt;stroke-linejoin:miter;stroke-miterlimit:4;stroke-dasharray:none;stroke-dashoffset:0;stroke-opacity:1;color-rendering:auto;image-rendering:auto;shape-rendering:auto;text-rendering:auto;enable-background:accumulate"
     d="m 207.46484,713.33008 c -14.13735,43.84634 -13.79616,78.33993 -4.0957,105.00586 9.70047,26.66593 28.57063,44.72767 48.57617,56.41992 40.01109,23.3845 85.83594,23.39844 85.83594,23.39844 l 0.19922,-22.09766 c 0,0 -41.33821,-0.77456 -74.88477,-20.38086 -16.77327,-9.80315 -31.2807,-23.78744 -38.95898,-44.89453 -7.67828,-21.10709 -8.71759,-50.11235 4.35937,-90.66992 z"
     id="path3948"
     inkscape:connector-curvature="0" />
  <path
     style="color:#000000;font-style:normal;font-variant:normal;font-weight:normal;font-stretch:normal;font-size:medium;line-height:normal;font-family:sans-serif;font-variant-ligatures:normal;font-variant-position:normal;font-variant-caps:normal;font-variant-numeric:normal;font-variant-alternates:normal;font-feature-settings:normal;text-indent:0;text-align:start;text-decoration:none;text-decoration-line:none;text-decoration-style:solid;text-decoration-color:#000000;letter-spacing:normal;word-spacing:normal;text-transform:none;writing-mode:lr-tb;direction:ltr;text-orientation:mixed;dominant-baseline:auto;baseline-shift:baseline;text-anchor:start;white-space:normal;shape-padding:0;clip-rule:nonzero;display:inline;overflow:visible;visibility:visible;opacity:1;isolation:auto;mix-blend-mode:normal;color-interpolation:sRGB;color-interpolation-filters:linearRGB;solid-color:#000000;solid-opacity:1;vector-effect:none;fill:#000000;fill-opacity:1;fill-rule:nonzero;stroke:none;stroke-width:29.46523476;stroke-linecap:butt;stroke-linejoin:miter;stroke-miterlimit:4;stroke-dasharray:none;stroke-dashoffset:0;stroke-opacity:1;color-rendering:auto;image-rendering:auto;shape-rendering:auto;text-rendering:auto;enable-background:accumulate"
     d="m 336.35742,306.11914 c 0,0 -18.65142,12.42485 -43.91211,25.02539 -25.26068,12.60054 -57.28515,24.73474 -79.7832,25.14453 l 0.53711,29.46094 c 31.61338,-0.57582 65.38703,-14.76445 92.39844,-28.23828 27.0114,-13.47383 47.10351,-26.875 47.10351,-26.875 z"
     id="path3956"
     inkscape:connector-curvature="0" />
  <path
     style="color:#000000;font-style:normal;font-variant:normal;font-weight:normal;font-stretch:normal;font-size:medium;line-height:normal;font-family:sans-serif;font-variant-ligatures:normal;font-variant-position:normal;font-variant-caps:normal;font-variant-numeric:normal;font-variant-alternates:normal;font-feature-settings:normal;text-indent:0;text-align:start;text-decoration:none;text-decoration-line:none;text-decoration-style:solid;text-decoration-color:#000000;letter-spacing:normal;word-spacing:normal;text-transform:none;writing-mode:lr-tb;direction:ltr;text-orientation:mixed;dominant-baseline:auto;baseline-shift:baseline;text-anchor:start;white-space:normal;shape-padding:0;clip-rule:nonzero;display:inline;overflow:visible;visibility:visible;opacity:1;isolation:auto;mix-blend-mode:normal;color-interpolation:sRGB;color-interpolation-filters:linearRGB;solid-color:#000000;solid-opacity:1;vector-effect:none;fill:#000000;fill-opacity:1;fill-rule:nonzero;stroke:none;stroke-width:29.46523476;stroke-linecap:butt;stroke-linejoin:miter;stroke-miterlimit:4;stroke-dasharray:none;stroke-dashoffset:0;stroke-opacity:1;color-rendering:auto;image-rendering:auto;shape-rendering:auto;text-rendering:auto;enable-background:accumulate"
     d="m 101.90625,471.59766 -24.492188,16.3789 c 0,0 6.839063,10.26015 17.042969,21.1543 8.101009,8.649 18.159759,18.39673 31.152349,23.86133 0.88039,6.48053 2.26712,15.31698 4.51171,25.71875 4.0423,18.73253 10.26542,41.11025 22.0918,59.00195 0.80963,3.43458 4.12531,17.28389 9.67188,34.10547 3.13763,9.51578 6.80794,19.40581 11.14257,28.11719 3.19123,6.41344 6.07964,12.46974 11.49414,17.39453 0.0677,2.17831 -0.0847,4.89297 -1.0039,7.51562 -1.88948,5.39134 -4.94566,11.64209 -25.60352,13.54883 -9.61364,-2.13437 -10.2344,1.01685 -19.60937,-6.75976 -10.59524,-8.78884 -29.67676,-33.30997 -57.662112,-92.69727 l -0.132812,-0.28125 -0.144532,-0.27539 c 0,0 -1.760944,-3.38812 -3.375,-7.74609 -1.614055,-4.35798 -2.081815,-9.98953 -2.242187,-9.02735 l -29.064453,-4.84375 c -1.738094,10.42804 1.345735,17.81236 3.675781,24.10352 2.330046,6.29116 4.90625,11.18554 4.90625,11.18554 l -0.277344,-0.55664 c 28.792246,61.09959 48.445059,88.66596 65.503909,102.81641 17.05884,14.15045 34.93456,13.52862 33.35547,13.03516 l 2.6875,0.83984 2.81054,-0.21094 c 30.04269,-2.25882 47.53025,-17.83899 52.97852,-33.38476 5.44827,-15.54578 1.10742,-29.50977 1.10742,-29.50977 l -1.73047,-6.08594 -5.60547,-2.93554 c 2.07826,1.08861 -2.40509,-2.65526 -5.6875,-9.25196 -3.2824,-6.5967 -6.66193,-15.49107 -9.53906,-24.21679 -5.75425,-17.45146 -9.59375,-34.08594 -9.59375,-34.08594 l -0.6543,-2.84961 -1.69336,-2.38281 c -8.31124,-11.69725 -15.15901,-32.95052 -19.00585,-50.77735 -3.84685,-17.82682 -5.15235,-31.96679 -5.15235,-31.96679 l -1.01562,-11.01172 -10.85547,-2.10156 c -6.04527,-1.17004 -17.53595,-9.45787 -25.9375,-18.42774 -8.40155,-8.96987 -14.05469,-17.39062 -14.05469,-17.39062 z"
     id="path3966"
     inkscape:connector-curvature="0" />
  <path
     style="color:#000000;font-style:normal;font-variant:normal;font-weight:normal;font-stretch:normal;font-size:medium;line-height:normal;font-family:sans-serif;font-variant-ligatures:normal;font-variant-position:normal;font-variant-caps:normal;font-variant-numeric:normal;font-variant-alternates:normal;font-feature-settings:normal;text-indent:0;text-align:start;text-decoration:none;text-decoration-line:none;text-decoration-style:solid;text-decoration-color:#000000;letter-spacing:normal;word-spacing:normal;text-transform:none;writing-mode:lr-tb;direction:ltr;text-orientation:mixed;dominant-baseline:auto;baseline-shift:baseline;text-anchor:start;white-space:normal;shape-padding:0;clip-rule:nonzero;display:inline;overflow:visible;visibility:visible;opacity:1;isolation:auto;mix-blend-mode:normal;color-interpolation:sRGB;color-interpolation-filters:linearRGB;solid-color:#000000;solid-opacity:1;vector-effect:none;fill:#000000;fill-opacity:1;fill-rule:nonzero;stroke:none;stroke-width:1.72372139px;stroke-linecap:butt;stroke-linejoin:miter;stroke-miterlimit:4;stroke-dasharray:none;stroke-dashoffset:0;stroke-opacity:1;color-rendering:auto;image-rendering:auto;shape-rendering:auto;text-rendering:auto;enable-background:accumulate"
     d="m 48.814453,620.52539 -0.861328,1.49414 c 0,0 10.57501,6.24119 19.017578,1.17578 l -0.886719,-1.47851 c -7.334012,4.40029 -17.269531,-1.19141 -17.269531,-1.19141 z"
     id="path3968"
     inkscape:connector-curvature="0" />
  <path
     style="color:#000000;font-style:normal;font-variant:normal;font-weight:normal;font-stretch:normal;font-size:medium;line-height:normal;font-family:sans-serif;font-variant-ligatures:normal;font-variant-position:normal;font-variant-caps:normal;font-variant-numeric:normal;font-variant-alternates:normal;font-feature-settings:normal;text-indent:0;text-align:start;text-decoration:none;text-decoration-line:none;text-decoration-style:solid;text-decoration-color:#000000;letter-spacing:normal;word-spacing:normal;text-transform:none;writing-mode:lr-tb;direction:ltr;text-orientation:mixed;dominant-baseline:auto;baseline-shift:baseline;text-anchor:start;white-space:normal;shape-padding:0;clip-rule:nonzero;display:inline;overflow:visible;visibility:visible;opacity:1;isolation:auto;mix-blend-mode:normal;color-interpolation:sRGB;color-interpolation-filters:linearRGB;solid-color:#000000;solid-opacity:1;vector-effect:none;fill:#000000;fill-opacity:1;fill-rule:nonzero;stroke:none;stroke-width:29.46523476;stroke-linecap:butt;stroke-linejoin:miter;stroke-miterlimit:4;stroke-dasharray:none;stroke-dashoffset:0;stroke-opacity:1;color-rendering:auto;image-rendering:auto;shape-rendering:auto;text-rendering:auto;enable-background:accumulate"
     d="m 155.17773,382.16797 c -13.68917,-0.29617 -25.46531,2.03926 -35.30273,5.9043 -26.233133,10.30677 -38.015625,31.25195 -38.015625,31.25195 l 25.804685,14.22461 c 0,0 6.04922,-11.39829 22.98633,-18.05274 16.93712,-6.65444 45.42117,-8.80115 93.49023,20.37696 l 3.14258,1.90625 3.66992,0.20898 c 0,0 16.68449,0.97778 35.73633,6.03125 19.05185,5.05347 38.70603,14.7964 45.6875,26.55469 l 0.92969,1.56836 1.28516,1.29297 c 0,0 21.36009,21.50519 45.82031,44.20312 12.23011,11.34897 25.23648,23.00647 36.96094,32.5918 11.72446,9.58533 20.77088,16.97647 31.30078,20.89453 l 10.27539,-27.61523 c -1.46243,-0.54416 -12.0078,-7.16581 -22.92578,-16.0918 -10.91798,-8.926 -23.60472,-20.27721 -35.56836,-31.37891 -23.34976,-21.66748 -43.32618,-41.73894 -44.30664,-42.72461 -14.54277,-22.27028 -40.36466,-32.06204 -61.9043,-37.77539 -19.01332,-5.04325 -33.43515,-6.26295 -37.97461,-6.59765 -31.89467,-18.78029 -59.02111,-26.29594 -81.0918,-26.77344 z"
     id="path3970"
     inkscape:connector-curvature="0" />
  <path
     style="color:#000000;font-style:normal;font-variant:normal;font-weight:normal;font-stretch:normal;font-size:medium;line-height:normal;font-family:sans-serif;font-variant-ligatures:normal;font-variant-position:normal;font-variant-caps:normal;font-variant-numeric:normal;font-variant-alternates:normal;font-feature-settings:normal;text-indent:0;text-align:start;text-decoration:none;text-decoration-line:none;text-decoration-style:solid;text-decoration-color:#000000;letter-spacing:normal;word-spacing:normal;text-transform:none;writing-mode:lr-tb;direction:ltr;text-orientation:mixed;dominant-baseline:auto;baseline-shift:baseline;text-anchor:start;white-space:normal;shape-padding:0;clip-rule:nonzero;display:inline;overflow:visible;visibility:visible;opacity:1;isolation:auto;mix-blend-mode:normal;color-interpolation:sRGB;color-interpolation-filters:linearRGB;solid-color:#000000;solid-opacity:1;vector-effect:none;fill:#000000;fill-opacity:1;fill-rule:nonzero;stroke:none;stroke-width:29.46523476;stroke-linecap:butt;stroke-linejoin:miter;stroke-miterlimit:4;stroke-dasharray:none;stroke-dashoffset:0;stroke-opacity:1;color-rendering:auto;image-rendering:auto;shape-rendering:auto;text-rendering:auto;enable-background:accumulate"
     d="m 147.70508,509.92383 -17.21485,23.91406 c 0,0 41.21244,29.64783 102.04297,36.77149 2.18936,3.44499 5.09882,7.77014 8.70313,12.34765 6.73948,8.55921 15.32221,18.61035 28.03711,23.86133 2.6636,4.67226 6.86653,11.8448 12.97851,20.83594 4.46902,6.57422 9.41247,13.28525 14.79102,19.00976 5.37855,5.72451 10.13327,11.97826 21.80664,12.91211 l 2.34961,-29.37305 c 4.70108,0.37609 0.87981,0.0778 -2.6836,-3.71484 -3.5634,-3.79261 -7.92903,-9.56205 -11.89648,-15.39844 -7.9349,-11.67277 -14.37891,-23.45507 -14.37891,-23.45507 l -3.09375,-5.67188 -6.26757,-1.56641 c -3.68776,-0.92196 -12.37386,-7.89762 -18.49219,-15.66796 -6.11833,-7.77035 -10.05859,-14.99219 -10.0586,-14.99219 l -3.79882,-7.00391 -7.93946,-0.6543 c -56.57119,-4.67096 -94.88476,-32.15429 -94.88476,-32.15429 z"
     id="path3972"
     inkscape:connector-curvature="0" />
  <path
     style="color:#000000;font-style:normal;font-variant:normal;font-weight:normal;font-stretch:normal;font-size:medium;line-height:normal;font-family:sans-serif;font-variant-ligatures:normal;font-variant-position:normal;font-variant-caps:normal;font-variant-numeric:normal;font-variant-alternates:normal;font-feature-settings:normal;text-indent:0;text-align:start;text-decoration:none;text-decoration-line:none;text-decoration-style:solid;text-decoration-color:#000000;letter-spacing:normal;word-spacing:normal;text-transform:none;writing-mode:lr-tb;direction:ltr;text-orientation:mixed;dominant-baseline:auto;baseline-shift:baseline;text-anchor:start;white-space:normal;shape-padding:0;clip-rule:nonzero;display:inline;overflow:visible;visibility:visible;opacity:1;isolation:auto;mix-blend-mode:normal;color-interpolation:sRGB;color-interpolation-filters:linearRGB;solid-color:#000000;solid-opacity:1;vector-effect:none;fill:#000000;fill-opacity:1;fill-rule:nonzero;stroke:none;stroke-width:29.46523476;stroke-linecap:butt;stroke-linejoin:miter;stroke-miterlimit:4;stroke-dasharray:none;stroke-dashoffset:0;stroke-opacity:1;color-rendering:auto;image-rendering:auto;shape-rendering:auto;text-rendering:auto;enable-background:accumulate"
     d="m 265.58203,569.44727 -28.33008,8.09375 c 3.78237,13.23838 16.93792,49.43805 19.07422,55.30664 -1.21357,7.68763 -1.24339,14.91066 -1.04297,20.36523 0.0787,2.14111 0.18603,3.38394 0.28907,4.83203 -7.00128,19.70238 -16.80709,21.78988 -28.16016,22.11719 -11.77002,0.33933 -23.05274,-4.46094 -23.05273,-4.46094 l -12.20118,26.82031 c 0,0 16.13546,7.66943 36.10352,7.09375 19.05519,-0.54935 43.37434,-11.94666 54.48047,-40.55468 0.0188,-0.0267 0.091,-0.0841 0.10742,-0.10938 0.85615,-1.3164 1.23343,-2.27278 1.50391,-3.01953 2.16382,-5.97403 0.88964,-4.7069 0.88671,-5.19726 -0.0117,-1.96146 -0.0846,-1.74976 -0.14062,-2.4629 -0.1121,-1.42627 -0.27523,-3.53177 -0.37109,-6.14062 -0.19173,-5.2177 0.02,-12.38724 1.14453,-17.41016 l 0.93945,-4.1875 -1.46094,-4.03906 c 0,0 -17.16955,-47.94689 -19.76953,-57.04687 z m -9.91992,90.08984 c 0.0194,0.25151 0.0464,0.8383 0.0625,1.04297 0.0568,0.72286 0.0601,1.89814 0.0508,0.33008 -0.001,-0.23655 -0.21727,-0.41268 -0.11328,-1.37305 z"
     id="path3974"
     inkscape:connector-curvature="0" />
  <path
     style="color:#000000;font-style:normal;font-variant:normal;font-weight:normal;font-stretch:normal;font-size:medium;line-height:normal;font-family:sans-serif;font-variant-ligatures:normal;font-variant-position:normal;font-variant-caps:normal;font-variant-numeric:normal;font-variant-alternates:normal;font-feature-settings:normal;text-indent:0;text-align:start;text-decoration:none;text-decoration-line:none;text-decoration-style:solid;text-decoration-color:#000000;letter-spacing:normal;word-spacing:normal;text-transform:none;writing-mode:lr-tb;direction:ltr;text-orientation:mixed;dominant-baseline:auto;baseline-shift:baseline;text-anchor:start;white-space:normal;shape-padding:0;clip-rule:nonzero;display:inline;overflow:visible;visibility:visible;opacity:1;isolation:auto;mix-blend-mode:normal;color-interpolation:sRGB;color-interpolation-filters:linearRGB;solid-color:#000000;solid-opacity:1;vector-effect:none;fill:#000000;fill-opacity:1;fill-rule:nonzero;stroke:none;stroke-width:1.72372139px;stroke-linecap:butt;stroke-linejoin:miter;stroke-miterlimit:4;stroke-dasharray:none;stroke-dashoffset:0;stroke-opacity:1;color-rendering:auto;image-rendering:auto;shape-rendering:auto;text-rendering:auto;enable-background:accumulate"
     d="m 279.39258,596.52344 c -0.97636,1.40351 -1.83704,4.09214 -2.79883,7.56445 -0.96179,3.47231 -1.94018,7.65309 -2.82031,11.68945 -1.76026,8.07273 -3.125,15.57227 -3.125,15.57227 l 1.69726,0.30664 c 0,0 1.35893,-7.47503 3.11133,-15.51172 0.8762,-4.01835 1.85176,-8.17653 2.79883,-11.5957 0.94707,-3.41917 1.9495,-6.17667 2.55078,-7.04102 z"
     id="path3976"
     inkscape:connector-curvature="0" />
  <path
     style="color:#000000;font-style:normal;font-variant:normal;font-weight:normal;font-stretch:normal;font-size:medium;line-height:normal;font-family:sans-serif;font-variant-ligatures:normal;font-variant-position:normal;font-variant-caps:normal;font-variant-numeric:normal;font-variant-alternates:normal;font-feature-settings:normal;text-indent:0;text-align:start;text-decoration:none;text-decoration-line:none;text-decoration-style:solid;text-decoration-color:#000000;letter-spacing:normal;word-spacing:normal;text-transform:none;writing-mode:lr-tb;direction:ltr;text-orientation:mixed;dominant-baseline:auto;baseline-shift:baseline;text-anchor:start;white-space:normal;shape-padding:0;clip-rule:nonzero;display:inline;overflow:visible;visibility:visible;opacity:1;isolation:auto;mix-blend-mode:normal;color-interpolation:sRGB;color-interpolation-filters:linearRGB;solid-color:#000000;solid-opacity:1;vector-effect:none;fill:#000000;fill-opacity:1;fill-rule:nonzero;stroke:none;stroke-width:29.46523476;stroke-linecap:butt;stroke-linejoin:miter;stroke-miterlimit:4;stroke-dasharray:none;stroke-dashoffset:0;stroke-opacity:1;color-rendering:auto;image-rendering:auto;shape-rendering:auto;text-rendering:auto;enable-background:accumulate"
     d="m 226.78906,366.01953 -27.71679,10 18.85351,52.25781 27.7168,-9.99804 z"
     id="path3978"
     inkscape:connector-curvature="0" />
  <path
     style="color:#000000;font-style:normal;font-variant:normal;font-weight:normal;font-stretch:normal;font-size:medium;line-height:normal;font-family:sans-serif;font-variant-ligatures:normal;font-variant-position:normal;font-variant-caps:normal;font-variant-numeric:normal;font-variant-alternates:normal;font-feature-settings:normal;text-indent:0;text-align:start;text-decoration:none;text-decoration-line:none;text-decoration-style:solid;text-decoration-color:#000000;letter-spacing:normal;word-spacing:normal;text-transform:none;writing-mode:lr-tb;direction:ltr;text-orientation:mixed;dominant-baseline:auto;baseline-shift:baseline;text-anchor:start;white-space:normal;shape-padding:0;clip-rule:nonzero;display:inline;overflow:visible;visibility:visible;opacity:1;isolation:auto;mix-blend-mode:normal;color-interpolation:sRGB;color-interpolation-filters:linearRGB;solid-color:#000000;solid-opacity:1;vector-effect:none;fill:#000000;fill-opacity:1;fill-rule:nonzero;stroke:none;stroke-width:22.09892654;stroke-linecap:butt;stroke-linejoin:miter;stroke-miterlimit:4;stroke-dasharray:none;stroke-dashoffset:0;stroke-opacity:1;color-rendering:auto;image-rendering:auto;shape-rendering:auto;text-rendering:auto;enable-background:accumulate"
     d="m 181.98047,649.28516 -10.60938,12.28906 c -2.91329,3.37478 -10.87057,8.42805 -19.66601,12.50586 -8.79545,4.0778 -18.26889,7.54448 -25.31641,10.48242 l -10.79687,4.5 5.10742,10.52344 c 7.23816,14.91269 16.52011,24.99117 27.17773,30.0957 10.65763,5.10453 22.73763,4.51508 31.88672,-1.0293 18.29819,-11.08875 23.83457,-38.15479 9.75781,-64.99023 z m -7.20899,37.64257 c 2.551,12.23471 -1.99405,20.11923 -6.46093,22.82618 -2.94613,1.78536 -6.1024,2.2885 -10.88867,-0.004 -3.06461,-1.46781 -6.78496,-4.60814 -10.55274,-9.58594 4.43368,-1.78125 9.28393,-3.78799 14.13086,-6.03515 4.68362,-2.17146 9.35965,-4.5002 13.77148,-7.20118 z"
     id="path3980"
     inkscape:connector-curvature="0" />
  <path
     style="color:#000000;font-style:normal;font-variant:normal;font-weight:normal;font-stretch:normal;font-size:medium;line-height:normal;font-family:sans-serif;font-variant-ligatures:normal;font-variant-position:normal;font-variant-caps:normal;font-variant-numeric:normal;font-variant-alternates:normal;font-feature-settings:normal;text-indent:0;text-align:start;text-decoration:none;text-decoration-line:none;text-decoration-style:solid;text-decoration-color:#000000;letter-spacing:normal;word-spacing:normal;text-transform:none;writing-mode:lr-tb;direction:ltr;text-orientation:mixed;dominant-baseline:auto;baseline-shift:baseline;text-anchor:start;white-space:normal;shape-padding:0;clip-rule:nonzero;display:inline;overflow:visible;visibility:visible;opacity:1;isolation:auto;mix-blend-mode:normal;color-interpolation:sRGB;color-interpolation-filters:linearRGB;solid-color:#000000;solid-opacity:1;vector-effect:none;fill:#000000;fill-opacity:1;fill-rule:nonzero;stroke:none;stroke-width:22.09892654;stroke-linecap:butt;stroke-linejoin:miter;stroke-miterlimit:4;stroke-dasharray:none;stroke-dashoffset:0;stroke-opacity:1;color-rendering:auto;image-rendering:auto;shape-rendering:auto;text-rendering:auto;enable-background:accumulate"
     d="m 244.70703,591.06641 -7.97851,5.48437 c -19.30109,13.2678 -30.08426,16.20244 -43.1504,21.84766 l -7.07226,3.05664 0.42187,7.69336 c 1.24264,22.58286 8.34414,38.41043 20.17969,46.85547 11.83555,8.44503 26.93742,7.54853 38.20313,1.10351 11.2657,-6.44502 19.88216,-18.18494 22.0625,-32.64648 2.18034,-14.46155 -2.64825,-31.20619 -16.17969,-46.20703 z m -4.39453,29.29687 c 5.06367,7.97102 6.09054,14.95565 5.20898,20.80274 -1.14215,7.57554 -5.87672,13.72263 -11.18554,16.75976 -5.30882,3.03713 -10.00665,3.21934 -14.39258,0.0898 -3.70114,-2.64087 -8.05995,-9.45354 -9.99609,-22.5332 8.29325,-3.35206 17.75175,-7.4044 30.36523,-15.11914 z"
     id="path3980-1"
     inkscape:connector-curvature="0" />
  <path
     style="color:#000000;font-style:normal;font-variant:normal;font-weight:normal;font-stretch:normal;font-size:medium;line-height:normal;font-family:sans-serif;font-variant-ligatures:normal;font-variant-position:normal;font-variant-caps:normal;font-variant-numeric:normal;font-variant-alternates:normal;font-feature-settings:normal;text-indent:0;text-align:start;text-decoration:none;text-decoration-line:none;text-decoration-style:solid;text-decoration-color:#000000;letter-spacing:normal;word-spacing:normal;text-transform:none;writing-mode:lr-tb;direction:ltr;text-orientation:mixed;dominant-baseline:auto;baseline-shift:baseline;text-anchor:start;white-space:normal;shape-padding:0;clip-rule:nonzero;display:inline;overflow:visible;visibility:visible;opacity:1;isolation:auto;mix-blend-mode:normal;color-interpolation:sRGB;color-interpolation-filters:linearRGB;solid-color:#000000;solid-opacity:1;vector-effect:none;fill:#000000;fill-opacity:1;fill-rule:nonzero;stroke:none;stroke-width:22.09892654;stroke-linecap:butt;stroke-linejoin:miter;stroke-miterlimit:4;stroke-dasharray:none;stroke-dashoffset:0;stroke-opacity:1;color-rendering:auto;image-rendering:auto;shape-rendering:auto;text-rendering:auto;enable-background:accumulate"
     d="m 160.70898,398.69141 c -4.6347,-0.10422 -9.18339,0.30334 -13.56054,1.17968 -17.50863,3.50537 -32.37462,13.88501 -41.45313,27.64258 -9.078501,13.75758 -12.18206,31.89716 -4.18359,48.1211 7.99847,16.22393 25.82012,28.98336 53.78125,36.03711 l 14.22461,3.58984 -0.47852,-14.66406 c -0.52128,-15.96388 0.63856,-30.29672 5.06641,-41.43946 4.42785,-11.14273 11.48294,-19.52153 25.78515,-25.77343 l 16.55079,-7.23633 -13.97852,-11.43946 c -13.16727,-10.77558 -27.8498,-15.70491 -41.75391,-16.01757 z m -0.41406,22.0039 c 4.50287,0.0492 9.1374,0.85801 13.85352,2.64063 -9.61134,7.69441 -16.43688,17.23375 -20.58008,27.66015 -4.38489,11.03464 -6.06731,22.82229 -6.53711,34.84766 -14.7158,-5.82356 -22.37785,-13.24346 -25.69922,-19.98047 -4.23182,-8.58375 -2.87609,-17.56611 2.80664,-26.17773 5.68273,-8.61162 15.88007,-15.84824 27.34961,-18.14453 2.86739,-0.57408 5.80725,-0.87846 8.80664,-0.84571 z"
     id="path3980-1-7"
     inkscape:connector-curvature="0" />
  <path
     style="color:#000000;font-style:normal;font-variant:normal;font-weight:normal;font-stretch:normal;font-size:medium;line-height:normal;font-family:sans-serif;font-variant-ligatures:normal;font-variant-position:normal;font-variant-caps:normal;font-variant-numeric:normal;font-variant-alternates:normal;font-feature-settings:normal;text-indent:0;text-align:start;text-decoration:none;text-decoration-line:none;text-decoration-style:solid;text-decoration-color:#000000;letter-spacing:normal;word-spacing:normal;text-transform:none;writing-mode:lr-tb;direction:ltr;text-orientation:mixed;dominant-baseline:auto;baseline-shift:baseline;text-anchor:start;white-space:normal;shape-padding:0;clip-rule:nonzero;display:inline;overflow:visible;visibility:visible;opacity:1;isolation:auto;mix-blend-mode:normal;color-interpolation:sRGB;color-interpolation-filters:linearRGB;solid-color:#000000;solid-opacity:1;vector-effect:none;fill:#000000;fill-opacity:1;fill-rule:nonzero;stroke:none;stroke-width:29.46523476;stroke-linecap:butt;stroke-linejoin:miter;stroke-miterlimit:4;stroke-dasharray:none;stroke-dashoffset:0;stroke-opacity:1;color-rendering:auto;image-rendering:auto;shape-rendering:auto;text-rendering:auto;enable-background:accumulate"
     d="M 385.5332,299.70312 368.25,323.56836 c 24.43765,17.69823 57.46179,29.36269 84.85742,37.34961 27.39563,7.98692 49.3457,11.95898 49.3457,11.95898 l 5.25,-28.99414 c 0,0 -20.48133,-3.71089 -46.34765,-11.25195 C 435.48915,325.0898 404.4197,313.3811 385.5332,299.70312 Z"
     id="path3956-2"
     inkscape:connector-curvature="0" />
  <path
     style="color:#000000;font-style:normal;font-variant:normal;font-weight:normal;font-stretch:normal;font-size:medium;line-height:normal;font-family:sans-serif;font-variant-ligatures:normal;font-variant-position:normal;font-variant-caps:normal;font-variant-numeric:normal;font-variant-alternates:normal;font-feature-settings:normal;text-indent:0;text-align:start;text-decoration:none;text-decoration-line:none;text-decoration-style:solid;text-decoration-color:#000000;letter-spacing:normal;word-spacing:normal;text-transform:none;writing-mode:lr-tb;direction:ltr;text-orientation:mixed;dominant-baseline:auto;baseline-shift:baseline;text-anchor:start;white-space:normal;shape-padding:0;clip-rule:nonzero;display:inline;overflow:visible;visibility:visible;opacity:1;isolation:auto;mix-blend-mode:normal;color-interpolation:sRGB;color-interpolation-filters:linearRGB;solid-color:#000000;solid-opacity:1;vector-effect:none;fill:#000000;fill-opacity:1;fill-rule:nonzero;stroke:none;stroke-width:14.73261738;stroke-linecap:butt;stroke-linejoin:miter;stroke-miterlimit:4;stroke-dasharray:none;stroke-dashoffset:0;stroke-opacity:1;color-rendering:auto;image-rendering:auto;shape-rendering:auto;text-rendering:auto;enable-background:accumulate"
     d="m 207.91602,99.652344 -11.66993,8.992186 c 0,0 40.40512,51.29917 104.14258,31.00586 l -4.4707,-14.03906 C 240.61359,143.21964 207.91602,99.652344 207.91602,99.652344 Z"
     id="path8219"
     inkscape:connector-curvature="0" />
  <path
     style="color:#000000;font-style:normal;font-variant:normal;font-weight:normal;font-stretch:normal;font-size:medium;line-height:normal;font-family:sans-serif;font-variant-ligatures:normal;font-variant-position:normal;font-variant-caps:normal;font-variant-numeric:normal;font-variant-alternates:normal;font-feature-settings:normal;text-indent:0;text-align:start;text-decoration:none;text-decoration-line:none;text-decoration-style:solid;text-decoration-color:#000000;letter-spacing:normal;word-spacing:normal;text-transform:none;writing-mode:lr-tb;direction:ltr;text-orientation:mixed;dominant-baseline:auto;baseline-shift:baseline;text-anchor:start;white-space:normal;shape-padding:0;clip-rule:nonzero;display:inline;overflow:visible;visibility:visible;opacity:1;isolation:auto;mix-blend-mode:normal;color-interpolation:sRGB;color-interpolation-filters:linearRGB;solid-color:#000000;solid-opacity:1;vector-effect:none;fill:#000000;fill-opacity:1;fill-rule:nonzero;stroke:none;stroke-width:14.73261738;stroke-linecap:butt;stroke-linejoin:miter;stroke-miterlimit:4;stroke-dasharray:none;stroke-dashoffset:0;stroke-opacity:1;color-rendering:auto;image-rendering:auto;shape-rendering:auto;text-rendering:auto;enable-background:accumulate"
     d="m 528.37305,130.27344 c -13.13553,23.78109 -34.46775,29.39222 -54.54883,28.16992 -10.04054,-0.61115 -19.56458,-3.15571 -26.5918,-6.17188 -3.51361,-1.50808 -6.40579,-3.14477 -8.33008,-4.54296 -1.92428,-1.3982 -2.72069,-2.77406 -2.47265,-2.19532 l -13.54102,5.80274 c 1.63421,3.81314 4.25042,6.05777 7.35352,8.3125 3.1031,2.25473 6.85403,4.30353 11.17969,6.16015 8.65131,3.71325 19.5983,6.61494 31.50781,7.33985 23.81902,1.44981 52.29729,-6.70787 68.33984,-35.75196 z"
     id="path8221"
     inkscape:connector-curvature="0" />
  <path
     style="color:#000000;font-style:normal;font-variant:normal;font-weight:normal;font-stretch:normal;font-size:medium;line-height:normal;font-family:sans-serif;font-variant-ligatures:normal;font-variant-position:normal;font-variant-caps:normal;font-variant-numeric:normal;font-variant-alternates:normal;font-feature-settings:normal;text-indent:0;text-align:start;text-decoration:none;text-decoration-line:none;text-decoration-style:solid;text-decoration-color:#000000;letter-spacing:normal;word-spacing:normal;text-transform:none;writing-mode:lr-tb;direction:ltr;text-orientation:mixed;dominant-baseline:auto;baseline-shift:baseline;text-anchor:start;white-space:normal;shape-padding:0;clip-rule:nonzero;display:inline;overflow:visible;visibility:visible;opacity:1;isolation:auto;mix-blend-mode:normal;color-interpolation:sRGB;color-interpolation-filters:linearRGB;solid-color:#000000;solid-opacity:1;vector-effect:none;fill:#000000;fill-opacity:1;fill-rule:nonzero;stroke:none;stroke-width:22.09892654;stroke-linecap:butt;stroke-linejoin:miter;stroke-miterlimit:4;stroke-dasharray:none;stroke-dashoffset:0;stroke-opacity:1;color-rendering:auto;image-rendering:auto;shape-rendering:auto;text-rendering:auto;enable-background:accumulate"
     d="m 455.7832,211.34961 -9.88281,19.76562 c 0,0 8.89308,4.4672 20.40234,7.8086 11.50927,3.3414 26.14124,6.55108 40.13282,0.55469 l -8.70508,-20.31055 c -4.88614,2.09406 -15.87455,1.25964 -25.26563,-1.4668 -9.39107,-2.72644 -16.68164,-6.35156 -16.68164,-6.35156 z"
     id="path8223"
     inkscape:connector-curvature="0" />
  <path
     style="color:#000000;font-style:normal;font-variant:normal;font-weight:normal;font-stretch:normal;font-size:medium;line-height:normal;font-family:sans-serif;font-variant-ligatures:normal;font-variant-position:normal;font-variant-caps:normal;font-variant-numeric:normal;font-variant-alternates:normal;font-feature-settings:normal;text-indent:0;text-align:start;text-decoration:none;text-decoration-line:none;text-decoration-style:solid;text-decoration-color:#000000;letter-spacing:normal;word-spacing:normal;text-transform:none;writing-mode:lr-tb;direction:ltr;text-orientation:mixed;dominant-baseline:auto;baseline-shift:baseline;text-anchor:start;white-space:normal;shape-padding:0;clip-rule:nonzero;display:inline;overflow:visible;visibility:visible;opacity:1;isolation:auto;mix-blend-mode:normal;color-interpolation:sRGB;color-interpolation-filters:linearRGB;solid-color:#000000;solid-opacity:1;vector-effect:none;fill:#000000;fill-opacity:1;fill-rule:nonzero;stroke:none;stroke-width:22.09892654;stroke-linecap:butt;stroke-linejoin:miter;stroke-miterlimit:4;stroke-dasharray:none;stroke-dashoffset:0;stroke-opacity:1;color-rendering:auto;image-rendering:auto;shape-rendering:auto;text-rendering:auto;enable-background:accumulate"
     d="m 274.54492,191.98047 c -19.27881,9.0724 -47.38086,8.39844 -47.38086,8.39844 l -1.0039,22.07617 c 0,0 31.22783,2.02171 57.79492,-10.48047 z"
     id="path8225"
     inkscape:connector-curvature="0" />
  <path
     style="color:#000000;font-style:normal;font-variant:normal;font-weight:normal;font-stretch:normal;font-size:medium;line-height:normal;font-family:sans-serif;font-variant-ligatures:normal;font-variant-position:normal;font-variant-caps:normal;font-variant-numeric:normal;font-variant-alternates:normal;font-feature-settings:normal;text-indent:0;text-align:start;text-decoration:none;text-decoration-line:none;text-decoration-style:solid;text-decoration-color:#000000;letter-spacing:normal;word-spacing:normal;text-transform:none;writing-mode:lr-tb;direction:ltr;text-orientation:mixed;dominant-baseline:auto;baseline-shift:baseline;text-anchor:start;white-space:normal;shape-padding:0;clip-rule:nonzero;display:inline;overflow:visible;visibility:visible;opacity:1;isolation:auto;mix-blend-mode:normal;color-interpolation:sRGB;color-interpolation-filters:linearRGB;solid-color:#000000;solid-opacity:1;vector-effect:none;fill:#000000;fill-opacity:1;fill-rule:nonzero;stroke:none;stroke-width:7.36630917;stroke-linecap:butt;stroke-linejoin:miter;stroke-miterlimit:4;stroke-dasharray:none;stroke-dashoffset:0;stroke-opacity:1;color-rendering:auto;image-rendering:auto;shape-rendering:auto;text-rendering:auto;enable-background:accumulate"
     d="m 265.03516,45.197266 c -4.70178,-0.251801 -9.40833,0.493632 -13.83204,1.800781 -17.6948,5.228595 -32.40624,19.273437 -32.40624,19.273437 l 3.63476,6.195313 c 0,0 11.77298,-3.721518 26.5332,-3.755859 14.76023,-0.03434 31.929,3.572346 43.45704,17.851562 l 2.86523,-2.314453 3.58789,-0.833985 C 294.7043,65.45841 287.63671,54.755024 278.83398,49.384766 c -4.40136,-2.68513 -9.09705,-3.935699 -13.79882,-4.1875 z m -0.49805,7.320312 c 3.65119,0.182185 7.17062,1.146982 10.46094,3.154297 4.55101,2.776425 8.87533,7.973392 12.43359,16.330078 -12.05289,-8.344022 -26.35965,-10.686408 -38.48242,-10.658203 -4.44342,0.01034 -8.5169,0.353914 -12.25586,0.8125 4.9061,-3.141062 10.52955,-6.301277 16.5957,-8.09375 3.81326,-1.12677 7.59686,-1.727106 11.24805,-1.544922 z"
     id="path9320-6"
     inkscape:connector-curvature="0" />
  <path
     style="color:#000000;font-style:normal;font-variant:normal;font-weight:normal;font-stretch:normal;font-size:medium;line-height:normal;font-family:sans-serif;font-variant-ligatures:normal;font-variant-position:normal;font-variant-caps:normal;font-variant-numeric:normal;font-variant-alternates:normal;font-feature-settings:normal;text-indent:0;text-align:start;text-decoration:none;text-decoration-line:none;text-decoration-style:solid;text-decoration-color:#000000;letter-spacing:normal;word-spacing:normal;text-transform:none;writing-mode:lr-tb;direction:ltr;text-orientation:mixed;dominant-baseline:auto;baseline-shift:baseline;text-anchor:start;white-space:normal;shape-padding:0;clip-rule:nonzero;display:inline;overflow:visible;visibility:visible;opacity:1;isolation:auto;mix-blend-mode:normal;color-interpolation:sRGB;color-interpolation-filters:linearRGB;solid-color:#000000;solid-opacity:1;vector-effect:none;fill:#000000;fill-opacity:1;fill-rule:nonzero;stroke:none;stroke-width:6.54202461;stroke-linecap:butt;stroke-linejoin:miter;stroke-miterlimit:4;stroke-dasharray:none;stroke-dashoffset:0;stroke-opacity:1;color-rendering:auto;image-rendering:auto;shape-rendering:auto;text-rendering:auto;enable-background:accumulate"
     d="m 473.26172,88.693359 c -2.13948,0.05156 -4.31724,0.371716 -6.51367,1.017579 -8.78572,2.583448 -17.30864,10.141534 -25.01367,24.585942 l 2.88671,1.53906 1.92579,2.64453 c 13.17138,-9.59947 28.72684,-8.74643 41.38085,-5.32422 12.65402,3.42221 21.89844,9.32227 21.89844,9.32227 l 4.54297,-4.48047 c 0,0 -9.39167,-15.42985 -23.36914,-23.982425 -5.24155,-3.207216 -11.31984,-5.476938 -17.73828,-5.322266 z m 0.22266,6.525391 c 4.85321,-0.120419 9.58331,1.614265 14.10156,4.378906 4.79255,2.932484 8.89001,6.936984 12.37695,10.759764 -3.10231,-1.25299 -6.51631,-2.48722 -10.32617,-3.51758 -10.39283,-2.81068 -23.2056,-4.08843 -35.46289,0.29883 4.97367,-6.35182 9.87733,-9.814637 14.41992,-11.150389 1.64198,-0.482825 3.27289,-0.729391 4.89063,-0.769531 z"
     id="path9320-6-3"
     inkscape:connector-curvature="0" />
</svg>
