<?xml version="1.0" encoding="UTF-8" standalone="no"?>
<!-- Created with Inkscape (http://www.inkscape.org/) -->

<svg
   xmlns:dc="http://purl.org/dc/elements/1.1/"
   xmlns:cc="http://creativecommons.org/ns#"
   xmlns:rdf="http://www.w3.org/1999/02/22-rdf-syntax-ns#"
   xmlns:svg="http://www.w3.org/2000/svg"
   xmlns="http://www.w3.org/2000/svg"
   xmlns:sodipodi="http://sodipodi.sourceforge.net/DTD/sodipodi-0.dtd"
   xmlns:inkscape="http://www.inkscape.org/namespaces/inkscape"
   version="1.1"
   id="svg9346"
   width="1000"
   height="1000"
   viewBox="0 0 1000 1000"
   sodipodi:docname="6.svg"
   inkscape:version="0.92.4 (5da689c313, 2019-01-14)">
  <metadata
     id="metadata9352">
    <rdf:RDF>
      <cc:Work
         rdf:about="">
        <dc:format>image/svg+xml</dc:format>
        <dc:type
           rdf:resource="http://purl.org/dc/dcmitype/StillImage" />
        <dc:title />
      </cc:Work>
    </rdf:RDF>
  </metadata>
  <defs
     id="defs9350">
    <clipPath
       clipPathUnits="userSpaceOnUse"
       id="clipPath9360">
      <rect
         style="opacity:0;fill:#1a1a1a;stroke:#ff0000;stroke-width:4.39503288;stroke-miterlimit:4;stroke-dasharray:none"
         id="rect9362"
         width="995.60498"
         height="995.60498"
         x="2.1975164"
         y="2.1975203" />
    </clipPath>
    <clipPath
       clipPathUnits="userSpaceOnUse"
       id="clipPath9364">
      <rect
         style="opacity:0;fill:#1a1a1a;stroke:#ff0000;stroke-width:4.39503288;stroke-miterlimit:4;stroke-dasharray:none"
         id="rect9366"
         width="995.60498"
         height="995.60498"
         x="2.1975164"
         y="2.1975203"
         transform="rotate(-90)" />
    </clipPath>
  </defs>
  <sodipodi:namedview
     pagecolor="#ffffff"
     bordercolor="#666666"
     borderopacity="1"
     objecttolerance="10"
     gridtolerance="10"
     guidetolerance="10"
     inkscape:pageopacity="0"
     inkscape:pageshadow="2"
     inkscape:window-width="1366"
     inkscape:window-height="715"
     id="namedview9348"
     showgrid="false"
     inkscape:zoom="0.38628981"
     inkscape:cx="1012.848"
     inkscape:cy="418.36796"
     inkscape:window-x="-8"
     inkscape:window-y="-8"
     inkscape:window-maximized="1"
     inkscape:current-layer="svg9346" />
  <path
     style="color:#000000;font-style:normal;font-variant:normal;font-weight:normal;font-stretch:normal;font-size:medium;line-height:normal;font-family:sans-serif;font-variant-ligatures:normal;font-variant-position:normal;font-variant-caps:normal;font-variant-numeric:normal;font-variant-alternates:normal;font-feature-settings:normal;text-indent:0;text-align:start;text-decoration:none;text-decoration-line:none;text-decoration-style:solid;text-decoration-color:#000000;letter-spacing:normal;word-spacing:normal;text-transform:none;writing-mode:lr-tb;direction:ltr;text-orientation:mixed;dominant-baseline:auto;baseline-shift:baseline;text-anchor:start;white-space:normal;shape-padding:0;clip-rule:nonzero;display:inline;overflow:visible;visibility:visible;opacity:0;isolation:auto;mix-blend-mode:normal;color-interpolation:sRGB;color-interpolation-filters:linearRGB;solid-color:#000000;solid-opacity:1;vector-effect:none;fill:#ff0000;fill-opacity:1;fill-rule:nonzero;stroke:none;stroke-width:0.99642718;stroke-linecap:butt;stroke-linejoin:miter;stroke-miterlimit:4;stroke-dasharray:none;stroke-dashoffset:0;stroke-opacity:1;color-rendering:auto;image-rendering:auto;shape-rendering:auto;text-rendering:auto;enable-background:accumulate"
     d="M 0,0 V 0.49804688 1000 H 1000 V 0 Z M 0.99609375,0.99609375 H 999.00391 V 999.00391 H 0.99609375 Z"
     clip-path="url(#clipPath9360)"
     id="rect9356"
     inkscape:connector-curvature="0" />
  <path
     style="color:#000000;font-style:normal;font-variant:normal;font-weight:normal;font-stretch:normal;font-size:medium;line-height:normal;font-family:sans-serif;font-variant-ligatures:normal;font-variant-position:normal;font-variant-caps:normal;font-variant-numeric:normal;font-variant-alternates:normal;font-feature-settings:normal;text-indent:0;text-align:start;text-decoration:none;text-decoration-line:none;text-decoration-style:solid;text-decoration-color:#000000;letter-spacing:normal;word-spacing:normal;text-transform:none;writing-mode:lr-tb;direction:ltr;text-orientation:mixed;dominant-baseline:auto;baseline-shift:baseline;text-anchor:start;white-space:normal;shape-padding:0;clip-rule:nonzero;display:inline;overflow:visible;visibility:visible;opacity:1;isolation:auto;mix-blend-mode:normal;color-interpolation:sRGB;color-interpolation-filters:linearRGB;solid-color:#000000;solid-opacity:1;vector-effect:none;fill:#000000;fill-opacity:1;fill-rule:nonzero;stroke:none;stroke-width:25.25932312;stroke-linecap:butt;stroke-linejoin:miter;stroke-miterlimit:4;stroke-dasharray:none;stroke-dashoffset:0;stroke-opacity:1;color-rendering:auto;image-rendering:auto;shape-rendering:auto;text-rendering:auto;enable-background:accumulate"
     d="m 360.89258,5.2265625 -2.86133,1.5898437 c -37.39849,20.7731208 -56.94455,52.1768808 -63.375,85.5683598 -6.43045,33.391474 -0.77335,68.539594 9.01367,100.644534 9.78702,32.10494 23.86354,61.27595 35.50391,82.54687 3.38145,6.17906 6.43971,11.44075 9.25,16.1543 -42.23301,3.2076 -84.74101,12.31816 -118.70508,21.49609 -19.92156,5.3833 -36.87025,10.78023 -49.08398,15.0586 -6.10687,2.13918 -11.0119,3.98868 -14.64063,5.48046 -1.81437,0.7459 -3.28697,1.38618 -4.62305,2.04102 -0.66803,0.32742 -1.28273,0.63781 -2.10156,1.13867 -0.70543,0.4315 -1.50293,0.01 -3.64648,3.08789 -14.3215,14.01443 -34.80708,43.21183 -56.142581,76.25977 -21.859562,33.85969 -43.2363,70.37879 -54.146485,94.92773 l -0.02148,0.0469 -0.02148,0.0469 C 5.9126206,601.9029 -1.7633764,656.69155 7.9707031,695.44531 17.704783,734.19907 45.02116,753.47057 65.8125,771.01758 l -0.800781,-0.73633 c 7.319194,7.34345 17.427139,12.92941 30.507812,19.58594 13.080669,6.65652 28.965279,13.86528 46.462889,21.82422 34.99523,15.91787 76.41963,34.8278 113.03125,57.01171 22.48218,13.62253 35.58662,27.56038 53.6211,43.27344 18.03447,15.71306 40.66218,32.47963 79.66992,49.02735 l 2.25195,0.95507 2.44531,0.0449 c 0,0 124.06725,2.30673 251.13282,8.70898 63.53278,3.20112 127.83272,7.43464 177.45117,12.87109 24.80922,2.71823 45.98664,5.75606 61.21484,8.9961 7.6141,1.62002 13.75854,3.31704 17.81445,4.83398 4.05591,1.51695 5.78159,3.60424 4.33204,1.69336 l 20.12304,-15.26562 c -4.56666,-6.01995 -9.64583,-7.85625 -15.60742,-10.08594 -5.96159,-2.22969 -13.04848,-4.10261 -21.40625,-5.88086 -16.71554,-3.55649 -38.44488,-6.63104 -63.7207,-9.40039 -50.55164,-5.5387 -115.13656,-9.77599 -178.92969,-12.99023 -125.46031,-6.32137 -245.29013,-8.59383 -249.33203,-8.66993 -35.24941,-15.20061 -54.24467,-29.41868 -70.8457,-43.88281 -16.94308,-14.76214 -31.8379,-30.50798 -57.125,-45.83008 C 229.72441,823.84668 187.44787,804.6222 152.44141,788.69922 134.93817,780.73773 119.2478,773.60009 106.97656,767.35547 94.705323,761.11085 85.685009,755.24111 82.902344,752.44922 l -0.382813,-0.38477 -0.416015,-0.34961 C 60.099147,733.14409 40.00948,719.31251 32.46875,689.29102 24.929898,659.277 30.107047,609.63028 68.431641,521.44727 c 9.669702,-21.74846 30.861395,-58.29268 52.269529,-91.45313 20.84178,-32.28319 42.91563,-62.1783 52.39063,-71.625 -0.24974,0.0536 -0.48975,0.076 -0.59571,0.11524 0.12628,-0.0618 0.59746,-0.25665 0.80469,-0.35157 0.20241,-0.19974 0.58139,-0.68932 0.77149,-0.86914 l 0.95898,-0.9082 c -0.54746,0.76912 -0.99024,1.31513 -1.31641,1.59765 0.57458,-0.25724 0.97573,-0.4505 1.88477,-0.82421 3.0008,-1.23365 7.59541,-2.97722 13.38672,-5.00586 11.58262,-4.05729 28.02364,-9.29675 47.32226,-14.51172 38.59726,-10.42994 88.75058,-20.72574 134.5586,-21.78321 l -8.97071,-5.84179 c 2.56964,-1.28426 20.34618,-11.62385 20.34571,-11.625 l -3.31446,-7.98438 -1.64062,0.0371 c -0.65437,-1.01602 -1.09123,-1.66383 -1.9043,-2.95898 -3.54871,-5.6528 -8.51163,-13.88394 -14.05078,-24.00586 -11.07831,-20.24385 -24.44477,-48.08075 -33.5,-77.78516 -9.05523,-29.70441 -13.63715,-61.16696 -8.37305,-88.501951 5.0974,-26.469313 18.61259,-49.231652 48.04883,-66.533203 13.16409,0.365274 20.15609,2.613292 23.51367,4.964844 3.65518,2.559974 5.52414,6.014418 7.88086,13.650391 4.6325,15.009673 8.7509,42.448466 34.04688,71.009769 3.41679,6.56774 90.62892,172.54596 230.76172,270.10937 32.58392,23.69843 84.90676,28.2676 145.41601,47.11719 60.50925,18.84958 128.62487,49.90795 190.36328,120.01172 l 18.95707,-16.69336 C 953.0331,466.52126 879.58239,432.97319 816.63867,413.36523 753.69496,393.75727 700.68031,386.01767 678.56836,369.93555 l -0.10938,-0.0781 -0.10937,-0.0762 C 542.51723,275.31906 454.72266,107.42188 454.72266,107.42188 l -0.75977,-1.4668 -1.11328,-1.2207 C 430.71058,80.42755 428.92441,60.863917 423.03906,41.794922 420.09639,32.260425 415.47741,21.883966 405.51172,14.904297 395.54603,7.9246281 382.38525,5.2258952 364.16406,5.2265625 Z"
     id="path9368"
     inkscape:connector-curvature="0" />
  <path
     style="color:#000000;font-style:normal;font-variant:normal;font-weight:normal;font-stretch:normal;font-size:medium;line-height:normal;font-family:sans-serif;font-variant-ligatures:normal;font-variant-position:normal;font-variant-caps:normal;font-variant-numeric:normal;font-variant-alternates:normal;font-feature-settings:normal;text-indent:0;text-align:start;text-decoration:none;text-decoration-line:none;text-decoration-style:solid;text-decoration-color:#000000;letter-spacing:normal;word-spacing:normal;text-transform:none;writing-mode:lr-tb;direction:ltr;text-orientation:mixed;dominant-baseline:auto;baseline-shift:baseline;text-anchor:start;white-space:normal;shape-padding:0;clip-rule:nonzero;display:inline;overflow:visible;visibility:visible;opacity:1;isolation:auto;mix-blend-mode:normal;color-interpolation:sRGB;color-interpolation-filters:linearRGB;solid-color:#000000;solid-opacity:1;vector-effect:none;fill:#000000;fill-opacity:1;fill-rule:nonzero;stroke:none;stroke-width:25.25932312;stroke-linecap:butt;stroke-linejoin:miter;stroke-miterlimit:4;stroke-dasharray:none;stroke-dashoffset:0;stroke-opacity:1;color-rendering:auto;image-rendering:auto;shape-rendering:auto;text-rendering:auto;enable-background:accumulate"
     d="m 351.11523,293.36523 c -15.31163,0.95944 -26.40039,8.31641 -26.40039,8.31641 l -1.44726,0.87695 -1.16406,1.22657 c -28.32816,29.81774 -95.00426,55.6451 -150.10743,112.81836 l -1.79297,1.86132 -0.91796,2.41602 c -21.63782,56.94141 -42.31675,118.20859 -53.71875,167.50391 -5.70101,24.64765 -9.16065,46.19171 -8.98243,63.67773 0.0891,8.74301 1.00064,16.5319 3.78125,23.65234 2.78062,7.12044 8.3431,14.06118 16.31836,16.90625 l -2.57617,-1.26562 c 82.90173,53.18452 170.85547,144.01758 170.85547,144.01758 l 18.17773,-17.53711 c 0,0 -88.37632,-91.9161 -175.39257,-147.74024 l -1.2168,-0.78125 -1.35937,-0.48437 c -0.0253,-0.009 -0.24069,0.34994 -1.27735,-2.30469 -1.03666,-2.65462 -1.98256,-7.83593 -2.05273,-14.7207 -0.14035,-13.76955 2.87316,-34.11729 8.33398,-57.72657 10.76109,-46.52439 30.74718,-106.11127 51.79688,-161.70898 49.41219,-50.29637 110.93074,-73.12862 146.71484,-109.49023 2.20894,-1.07088 13.07542,-6.01583 22.11719,-3.49805 5.03013,1.4007 10.09645,4.34498 15.24804,14.44726 5.1516,10.10229 9.58382,27.62674 10.11915,55.46485 l 25.25585,-0.48633 c -0.58134,-30.23164 -5.14956,-51.31315 -12.87109,-66.45508 -7.72153,-15.14193 -19.40086,-24.0813 -30.97656,-27.30468 -5.78785,-1.6117 -11.36097,-2.00146 -16.46485,-1.68165 z"
     id="path5022"
     inkscape:connector-curvature="0" />
  <path
     style="color:#000000;font-style:normal;font-variant:normal;font-weight:normal;font-stretch:normal;font-size:medium;line-height:normal;font-family:sans-serif;font-variant-ligatures:normal;font-variant-position:normal;font-variant-caps:normal;font-variant-numeric:normal;font-variant-alternates:normal;font-feature-settings:normal;text-indent:0;text-align:start;text-decoration:none;text-decoration-line:none;text-decoration-style:solid;text-decoration-color:#000000;letter-spacing:normal;word-spacing:normal;text-transform:none;writing-mode:lr-tb;direction:ltr;text-orientation:mixed;dominant-baseline:auto;baseline-shift:baseline;text-anchor:start;white-space:normal;shape-padding:0;clip-rule:nonzero;display:inline;overflow:visible;visibility:visible;opacity:1;isolation:auto;mix-blend-mode:normal;color-interpolation:sRGB;color-interpolation-filters:linearRGB;solid-color:#000000;solid-opacity:1;vector-effect:none;fill:#000000;fill-opacity:1;fill-rule:nonzero;stroke:none;stroke-width:25.25932312;stroke-linecap:butt;stroke-linejoin:miter;stroke-miterlimit:4;stroke-dasharray:none;stroke-dashoffset:0;stroke-opacity:1;color-rendering:auto;image-rendering:auto;shape-rendering:auto;text-rendering:auto;enable-background:accumulate"
     d="m 425.92383,352.33008 c -6.62322,10.74157 -14.35321,19.94631 -30.58594,24.57422 l -7.25195,2.0664 -1.6211,7.36524 c 0,0 -4.56282,20.7194 -22.65234,41.05078 -18.08952,20.33138 -48.5853,40.01141 -105.2793,35.73242 l -1.90039,25.1875 c 63.45619,4.78936 103.56934,-18.8613 126.05078,-44.12891 15.71215,-17.65938 23.0636,-35.71863 26.24414,-45.30468 19.26861,-7.49946 31.09564,-21.27989 38.49805,-33.28516 z"
     id="path5024"
     inkscape:connector-curvature="0" />
  <path
     style="color:#000000;font-style:normal;font-variant:normal;font-weight:normal;font-stretch:normal;font-size:medium;line-height:normal;font-family:sans-serif;font-variant-ligatures:normal;font-variant-position:normal;font-variant-caps:normal;font-variant-numeric:normal;font-variant-alternates:normal;font-feature-settings:normal;text-indent:0;text-align:start;text-decoration:none;text-decoration-line:none;text-decoration-style:solid;text-decoration-color:#000000;letter-spacing:normal;word-spacing:normal;text-transform:none;writing-mode:lr-tb;direction:ltr;text-orientation:mixed;dominant-baseline:auto;baseline-shift:baseline;text-anchor:start;white-space:normal;shape-padding:0;clip-rule:nonzero;display:inline;overflow:visible;visibility:visible;opacity:1;isolation:auto;mix-blend-mode:normal;color-interpolation:sRGB;color-interpolation-filters:linearRGB;solid-color:#000000;solid-opacity:1;vector-effect:none;fill:#000000;fill-opacity:1;fill-rule:nonzero;stroke:none;stroke-width:25.25932312;stroke-linecap:butt;stroke-linejoin:miter;stroke-miterlimit:4;stroke-dasharray:none;stroke-dashoffset:0;stroke-opacity:1;color-rendering:auto;image-rendering:auto;shape-rendering:auto;text-rendering:auto;enable-background:accumulate"
     d="m 286.56055,465.30664 -17.14844,18.54688 c 0,0 11.48917,10.53232 13.43359,30.09179 1.94443,19.55948 -5.25716,49.44625 -53.67578,89.16211 l 16.01953,19.5293 c 52.46217,-43.03262 65.66394,-82.29202 62.79102,-111.19141 -2.87292,-28.89939 -21.41992,-46.13867 -21.41992,-46.13867 z"
     id="path5026"
     inkscape:connector-curvature="0" />
  <path
     style="color:#000000;font-style:normal;font-variant:normal;font-weight:normal;font-stretch:normal;font-size:medium;line-height:normal;font-family:sans-serif;font-variant-ligatures:normal;font-variant-position:normal;font-variant-caps:normal;font-variant-numeric:normal;font-variant-alternates:normal;font-feature-settings:normal;text-indent:0;text-align:start;text-decoration:none;text-decoration-line:none;text-decoration-style:solid;text-decoration-color:#000000;letter-spacing:normal;word-spacing:normal;text-transform:none;writing-mode:lr-tb;direction:ltr;text-orientation:mixed;dominant-baseline:auto;baseline-shift:baseline;text-anchor:start;white-space:normal;shape-padding:0;clip-rule:nonzero;display:inline;overflow:visible;visibility:visible;opacity:1;isolation:auto;mix-blend-mode:normal;color-interpolation:sRGB;color-interpolation-filters:linearRGB;solid-color:#000000;solid-opacity:1;vector-effect:none;fill:#000000;fill-opacity:1;fill-rule:nonzero;stroke:none;stroke-width:25.25932312;stroke-linecap:butt;stroke-linejoin:miter;stroke-miterlimit:4;stroke-dasharray:none;stroke-dashoffset:0;stroke-opacity:1;color-rendering:auto;image-rendering:auto;shape-rendering:auto;text-rendering:auto;enable-background:accumulate"
     d="m 276.21875,560.50195 -0.47266,25.25391 c 0,0 10.8889,-0.3037 25.23633,12.22461 14.34744,12.52831 31.46128,38.53723 35.82031,95.20703 l 25.18555,-1.93555 C 357.27936,630.0335 337.68816,596.49804 317.5957,578.95312 297.50324,561.40821 276.21875,560.50195 276.21875,560.50195 Z"
     id="path5028"
     inkscape:connector-curvature="0" />
  <path
     style="color:#000000;font-style:normal;font-variant:normal;font-weight:normal;font-stretch:normal;font-size:medium;line-height:normal;font-family:sans-serif;font-variant-ligatures:normal;font-variant-position:normal;font-variant-caps:normal;font-variant-numeric:normal;font-variant-alternates:normal;font-feature-settings:normal;text-indent:0;text-align:start;text-decoration:none;text-decoration-line:none;text-decoration-style:solid;text-decoration-color:#000000;letter-spacing:normal;word-spacing:normal;text-transform:none;writing-mode:lr-tb;direction:ltr;text-orientation:mixed;dominant-baseline:auto;baseline-shift:baseline;text-anchor:start;white-space:normal;shape-padding:0;clip-rule:nonzero;display:inline;overflow:visible;visibility:visible;opacity:1;isolation:auto;mix-blend-mode:normal;color-interpolation:sRGB;color-interpolation-filters:linearRGB;solid-color:#000000;solid-opacity:1;vector-effect:none;fill:#000000;fill-opacity:1;fill-rule:nonzero;stroke:none;stroke-width:25.25932312;stroke-linecap:butt;stroke-linejoin:miter;stroke-miterlimit:4;stroke-dasharray:none;stroke-dashoffset:0;stroke-opacity:1;color-rendering:auto;image-rendering:auto;shape-rendering:auto;text-rendering:auto;enable-background:accumulate"
     d="m 419.32422,362.11719 c -1.89597,7.55084 0.0906,13.94236 2.62109,19.86523 2.53044,5.92287 6.08668,11.71707 10.26563,17.79492 8.35789,12.15572 19.31749,25.33931 29.71289,38.43164 10.39539,13.09234 20.20178,26.14824 25.85156,36.60157 2.82489,5.22666 4.54022,9.78515 5.08984,12.77539 0.50456,2.74507 0.19398,3.59862 -0.0586,4.0625 -33.944,42.11061 -47.82542,79.48138 -52.82617,106.68359 -1.74261,9.47912 -2.18991,17.3258 -2.28125,24.25977 -1.80634,-0.477 -3.64386,-1.05285 -5.41211,-1.50196 -8.49771,-2.15828 -16.78738,-4.3636 -18.50391,-5.16601 -19.13526,-8.94508 -33.82576,-13.30936 -45.93554,-14.44531 -12.10979,-1.13596 -22.10526,1.25646 -29.1875,6.41015 -14.16449,10.30738 -12.65039,27.59571 -12.65039,27.59571 l 25.17968,-2.01368 c 0,0 -0.13707,-3.36145 2.33203,-5.1582 1.23456,-0.89837 4.12558,-2.42109 11.9668,-1.68555 7.84123,0.73555 20.16578,4.02998 37.59961,12.17969 7.2232,3.37659 14.95729,4.72787 22.98047,6.76563 8.02318,2.03775 15.94211,4.68259 18.71875,6.39257 l 26.14453,16.10157 -7.24805,-29.83789 c 0,0 -3.16037,-11.93428 1.14063,-35.33008 4.301,-23.3958 16.33201,-56.984 48.52344,-96.54297 l 0.55078,-0.67774 0.45508,-0.75 c 4.17418,-6.89019 4.64064,-14.90551 3.35351,-21.9082 -1.28712,-7.00269 -4.11996,-13.57466 -7.71094,-20.21875 -7.18195,-13.28818 -17.67558,-26.93183 -28.28906,-40.29883 -10.61348,-13.367 -21.37264,-26.40495 -28.68164,-37.03515 -3.6545,-5.31511 -6.41889,-10.05483 -7.85156,-13.40821 -1.43267,-3.35337 -1.05076,-4.97927 -1.34961,-3.78906 z"
     id="path5030"
     inkscape:connector-curvature="0" />
  <path
     style="color:#000000;font-style:normal;font-variant:normal;font-weight:normal;font-stretch:normal;font-size:medium;line-height:normal;font-family:sans-serif;font-variant-ligatures:normal;font-variant-position:normal;font-variant-caps:normal;font-variant-numeric:normal;font-variant-alternates:normal;font-feature-settings:normal;text-indent:0;text-align:start;text-decoration:none;text-decoration-line:none;text-decoration-style:solid;text-decoration-color:#000000;letter-spacing:normal;word-spacing:normal;text-transform:none;writing-mode:lr-tb;direction:ltr;text-orientation:mixed;dominant-baseline:auto;baseline-shift:baseline;text-anchor:start;white-space:normal;shape-padding:0;clip-rule:nonzero;display:inline;overflow:visible;visibility:visible;opacity:1;isolation:auto;mix-blend-mode:normal;color-interpolation:sRGB;color-interpolation-filters:linearRGB;solid-color:#000000;solid-opacity:1;vector-effect:none;fill:#000000;fill-opacity:1;fill-rule:nonzero;stroke:none;stroke-width:25.25932312;stroke-linecap:butt;stroke-linejoin:miter;stroke-miterlimit:4;stroke-dasharray:none;stroke-dashoffset:0;stroke-opacity:1;color-rendering:auto;image-rendering:auto;shape-rendering:auto;text-rendering:auto;enable-background:accumulate"
     d="m 371.23047,290.58984 -1.30859,25.22461 c 0,0 13.85151,0.85233 27.56054,7.0918 13.70903,6.23947 25.59667,15.49288 26.57617,36.63672 l 25.23243,-1.16797 c -1.45033,-31.30704 -22.61299,-49.93305 -41.34571,-58.45898 -18.73272,-8.52594 -36.71484,-9.32618 -36.71484,-9.32618 z"
     id="path5032"
     inkscape:connector-curvature="0" />
  <path
     style="color:#000000;font-style:normal;font-variant:normal;font-weight:normal;font-stretch:normal;font-size:medium;line-height:normal;font-family:sans-serif;font-variant-ligatures:normal;font-variant-position:normal;font-variant-caps:normal;font-variant-numeric:normal;font-variant-alternates:normal;font-feature-settings:normal;text-indent:0;text-align:start;text-decoration:none;text-decoration-line:none;text-decoration-style:solid;text-decoration-color:#000000;letter-spacing:normal;word-spacing:normal;text-transform:none;writing-mode:lr-tb;direction:ltr;text-orientation:mixed;dominant-baseline:auto;baseline-shift:baseline;text-anchor:start;white-space:normal;shape-padding:0;clip-rule:nonzero;display:inline;overflow:visible;visibility:visible;opacity:1;isolation:auto;mix-blend-mode:normal;color-interpolation:sRGB;color-interpolation-filters:linearRGB;solid-color:#000000;solid-opacity:1;vector-effect:none;fill:#000000;fill-opacity:1;fill-rule:nonzero;stroke:none;stroke-width:25.25932312;stroke-linecap:butt;stroke-linejoin:miter;stroke-miterlimit:4;stroke-dasharray:none;stroke-dashoffset:0;stroke-opacity:1;color-rendering:auto;image-rendering:auto;shape-rendering:auto;text-rendering:auto;enable-background:accumulate"
     d="m 856.32227,605.99219 c 0,0 -119.07199,12.97049 -198.13868,56.43945 -62.81108,-14.99025 -115.21475,-2.37538 -135.55078,4 -24.57629,-34.03381 -69.88476,-37.7793 -69.88476,-37.7793 l -2.67578,25.11719 c 0,0 41.44036,5.77919 55.98632,33.60742 l 5.31055,10.16211 10.625,-4.30664 c 0,0 60.77162,-24.53876 134.79102,-5.22851 l 5.00586,1.30664 4.48437,-2.58203 c 70.66134,-40.68554 192.9375,-55.64258 192.9375,-55.64258 z"
     id="path5034"
     inkscape:connector-curvature="0" />
  <path
     style="color:#000000;font-style:normal;font-variant:normal;font-weight:normal;font-stretch:normal;font-size:medium;line-height:normal;font-family:sans-serif;font-variant-ligatures:normal;font-variant-position:normal;font-variant-caps:normal;font-variant-numeric:normal;font-variant-alternates:normal;font-feature-settings:normal;text-indent:0;text-align:start;text-decoration:none;text-decoration-line:none;text-decoration-style:solid;text-decoration-color:#000000;letter-spacing:normal;word-spacing:normal;text-transform:none;writing-mode:lr-tb;direction:ltr;text-orientation:mixed;dominant-baseline:auto;baseline-shift:baseline;text-anchor:start;white-space:normal;shape-padding:0;clip-rule:nonzero;display:inline;overflow:visible;visibility:visible;opacity:1;isolation:auto;mix-blend-mode:normal;color-interpolation:sRGB;color-interpolation-filters:linearRGB;solid-color:#000000;solid-opacity:1;vector-effect:none;fill:#000000;fill-opacity:1;fill-rule:nonzero;stroke:none;stroke-width:25.25932312;stroke-linecap:butt;stroke-linejoin:miter;stroke-miterlimit:4;stroke-dasharray:none;stroke-dashoffset:0;stroke-opacity:1;color-rendering:auto;image-rendering:auto;shape-rendering:auto;text-rendering:auto;enable-background:accumulate"
     d="m 604.71484,391.95508 c -31.68564,8.03997 -58.51919,33.38356 -78.61914,56.06836 -20.09994,22.68479 -33.24218,43.64648 -33.24218,43.64648 l 21.39453,13.42969 c 0,0 12.14225,-19.32131 30.75195,-40.32422 18.6097,-21.00291 43.9109,-42.7518 65.92578,-48.33789 z"
     id="path5036"
     inkscape:connector-curvature="0" />
  <path
     style="color:#000000;font-style:normal;font-variant:normal;font-weight:normal;font-stretch:normal;font-size:medium;line-height:normal;font-family:sans-serif;font-variant-ligatures:normal;font-variant-position:normal;font-variant-caps:normal;font-variant-numeric:normal;font-variant-alternates:normal;font-feature-settings:normal;text-indent:0;text-align:start;text-decoration:none;text-decoration-line:none;text-decoration-style:solid;text-decoration-color:#000000;letter-spacing:normal;word-spacing:normal;text-transform:none;writing-mode:lr-tb;direction:ltr;text-orientation:mixed;dominant-baseline:auto;baseline-shift:baseline;text-anchor:start;white-space:normal;shape-padding:0;clip-rule:nonzero;display:inline;overflow:visible;visibility:visible;opacity:1;isolation:auto;mix-blend-mode:normal;color-interpolation:sRGB;color-interpolation-filters:linearRGB;solid-color:#000000;solid-opacity:1;vector-effect:none;fill:#000000;fill-opacity:1;fill-rule:nonzero;stroke:none;stroke-width:18.94449234;stroke-linecap:butt;stroke-linejoin:miter;stroke-miterlimit:4;stroke-dasharray:none;stroke-dashoffset:0;stroke-opacity:1;color-rendering:auto;image-rendering:auto;shape-rendering:auto;text-rendering:auto;enable-background:accumulate"
     d="m 437.7207,217.40234 c 0,0 -14.72492,9.11413 -30.61523,22.30469 -15.89031,13.19057 -33.63346,29.8445 -39.23438,49.70313 l 18.23438,5.14257 c 3.21559,-11.4012 18.33449,-28.01136 33.10156,-40.26953 14.76707,-12.25816 28.49414,-20.77734 28.49414,-20.77734 z"
     id="path5038"
     inkscape:connector-curvature="0" />
  <path
     style="color:#000000;font-style:normal;font-variant:normal;font-weight:normal;font-stretch:normal;font-size:medium;line-height:normal;font-family:sans-serif;font-variant-ligatures:normal;font-variant-position:normal;font-variant-caps:normal;font-variant-numeric:normal;font-variant-alternates:normal;font-feature-settings:normal;text-indent:0;text-align:start;text-decoration:none;text-decoration-line:none;text-decoration-style:solid;text-decoration-color:#000000;letter-spacing:normal;word-spacing:normal;text-transform:none;writing-mode:lr-tb;direction:ltr;text-orientation:mixed;dominant-baseline:auto;baseline-shift:baseline;text-anchor:start;white-space:normal;shape-padding:0;clip-rule:nonzero;display:inline;overflow:visible;visibility:visible;opacity:1;isolation:auto;mix-blend-mode:normal;color-interpolation:sRGB;color-interpolation-filters:linearRGB;solid-color:#000000;solid-opacity:1;vector-effect:none;fill:#000000;fill-opacity:1;fill-rule:nonzero;stroke:none;stroke-width:18.94449234;stroke-linecap:butt;stroke-linejoin:miter;stroke-miterlimit:4;stroke-dasharray:none;stroke-dashoffset:0;stroke-opacity:1;color-rendering:auto;image-rendering:auto;shape-rendering:auto;text-rendering:auto;enable-background:accumulate"
     d="m 340.53906,310.57812 -18.55859,3.81055 c 0,0 4.37638,24.6408 -3.32813,42.46094 -3.85225,8.91007 -9.79051,15.93601 -21.73046,19.58984 -11.93996,3.65384 -30.83299,3.48905 -59.28711,-5.85742 l -5.91211,18 c 30.7152,10.08918 53.47873,11.25558 70.74218,5.97266 17.26346,-5.28293 28.07522,-17.46211 33.57618,-30.18555 11.00191,-25.44687 4.49804,-53.79102 4.49804,-53.79102 z"
     id="path5587"
     inkscape:connector-curvature="0" />
  <path
     style="color:#000000;font-style:normal;font-variant:normal;font-weight:normal;font-stretch:normal;font-size:medium;line-height:normal;font-family:sans-serif;font-variant-ligatures:normal;font-variant-position:normal;font-variant-caps:normal;font-variant-numeric:normal;font-variant-alternates:normal;font-feature-settings:normal;text-indent:0;text-align:start;text-decoration:none;text-decoration-line:none;text-decoration-style:solid;text-decoration-color:#000000;letter-spacing:normal;word-spacing:normal;text-transform:none;writing-mode:lr-tb;direction:ltr;text-orientation:mixed;dominant-baseline:auto;baseline-shift:baseline;text-anchor:start;white-space:normal;shape-padding:0;clip-rule:nonzero;display:inline;overflow:visible;visibility:visible;opacity:1;isolation:auto;mix-blend-mode:normal;color-interpolation:sRGB;color-interpolation-filters:linearRGB;solid-color:#000000;solid-opacity:1;vector-effect:none;fill:#000000;fill-opacity:1;fill-rule:nonzero;stroke:none;stroke-width:18.94449234;stroke-linecap:butt;stroke-linejoin:miter;stroke-miterlimit:4;stroke-dasharray:none;stroke-dashoffset:0;stroke-opacity:1;color-rendering:auto;image-rendering:auto;shape-rendering:auto;text-rendering:auto;enable-background:accumulate"
     d="m 255.86523,323.11328 -17.58984,7.03516 12.2168,30.54101 17.58984,-7.03711 z"
     id="path5589"
     inkscape:connector-curvature="0" />
</svg>
