<?xml version="1.0" encoding="UTF-8" standalone="no"?>
<!-- Created with Inkscape (http://www.inkscape.org/) -->

<svg
   xmlns:dc="http://purl.org/dc/elements/1.1/"
   xmlns:cc="http://creativecommons.org/ns#"
   xmlns:rdf="http://www.w3.org/1999/02/22-rdf-syntax-ns#"
   xmlns:svg="http://www.w3.org/2000/svg"
   xmlns="http://www.w3.org/2000/svg"
   xmlns:sodipodi="http://sodipodi.sourceforge.net/DTD/sodipodi-0.dtd"
   xmlns:inkscape="http://www.inkscape.org/namespaces/inkscape"
   version="1.1"
   id="svg9346"
   width="1000"
   height="1000"
   viewBox="0 0 1000 1000"
   sodipodi:docname="9.svg"
   inkscape:version="0.92.4 (5da689c313, 2019-01-14)">
  <metadata
     id="metadata9352">
    <rdf:RDF>
      <cc:Work
         rdf:about="">
        <dc:format>image/svg+xml</dc:format>
        <dc:type
           rdf:resource="http://purl.org/dc/dcmitype/StillImage" />
        <dc:title />
      </cc:Work>
    </rdf:RDF>
  </metadata>
  <defs
     id="defs9350">
    <clipPath
       clipPathUnits="userSpaceOnUse"
       id="clipPath9360">
      <rect
         style="opacity:0;fill:#1a1a1a;stroke:#ff0000;stroke-width:4.39503288;stroke-miterlimit:4;stroke-dasharray:none"
         id="rect9362"
         width="995.60498"
         height="995.60498"
         x="2.1975164"
         y="2.1975203" />
    </clipPath>
    <clipPath
       clipPathUnits="userSpaceOnUse"
       id="clipPath9364">
      <rect
         style="opacity:0;fill:#1a1a1a;stroke:#ff0000;stroke-width:4.39503288;stroke-miterlimit:4;stroke-dasharray:none"
         id="rect9366"
         width="995.60498"
         height="995.60498"
         x="2.1975164"
         y="2.1975203"
         transform="rotate(-90)" />
    </clipPath>
  </defs>
  <sodipodi:namedview
     pagecolor="#ffffff"
     bordercolor="#666666"
     borderopacity="1"
     objecttolerance="10"
     gridtolerance="10"
     guidetolerance="10"
     inkscape:pageopacity="0"
     inkscape:pageshadow="2"
     inkscape:window-width="1366"
     inkscape:window-height="715"
     id="namedview9348"
     showgrid="false"
     inkscape:zoom="0.27314814"
     inkscape:cx="608.62734"
     inkscape:cy="574.32287"
     inkscape:window-x="-8"
     inkscape:window-y="-8"
     inkscape:window-maximized="1"
     inkscape:current-layer="svg9346" />
  <path
     style="color:#000000;font-style:normal;font-variant:normal;font-weight:normal;font-stretch:normal;font-size:medium;line-height:normal;font-family:sans-serif;font-variant-ligatures:normal;font-variant-position:normal;font-variant-caps:normal;font-variant-numeric:normal;font-variant-alternates:normal;font-feature-settings:normal;text-indent:0;text-align:start;text-decoration:none;text-decoration-line:none;text-decoration-style:solid;text-decoration-color:#000000;letter-spacing:normal;word-spacing:normal;text-transform:none;writing-mode:lr-tb;direction:ltr;text-orientation:mixed;dominant-baseline:auto;baseline-shift:baseline;text-anchor:start;white-space:normal;shape-padding:0;clip-rule:nonzero;display:inline;overflow:visible;visibility:visible;opacity:0;isolation:auto;mix-blend-mode:normal;color-interpolation:sRGB;color-interpolation-filters:linearRGB;solid-color:#000000;solid-opacity:1;vector-effect:none;fill:#ff0000;fill-opacity:1;fill-rule:nonzero;stroke:none;stroke-width:0.99642718;stroke-linecap:butt;stroke-linejoin:miter;stroke-miterlimit:4;stroke-dasharray:none;stroke-dashoffset:0;stroke-opacity:1;color-rendering:auto;image-rendering:auto;shape-rendering:auto;text-rendering:auto;enable-background:accumulate"
     d="M 0,0 V 0.49804688 1000 H 1000 V 0 Z M 0.99609375,0.99609375 H 999.00391 V 999.00391 H 0.99609375 Z"
     clip-path="url(#clipPath9360)"
     id="rect9356"
     inkscape:connector-curvature="0" />
  <path
     style="color:#000000;font-style:normal;font-variant:normal;font-weight:normal;font-stretch:normal;font-size:medium;line-height:normal;font-family:sans-serif;font-variant-ligatures:normal;font-variant-position:normal;font-variant-caps:normal;font-variant-numeric:normal;font-variant-alternates:normal;font-feature-settings:normal;text-indent:0;text-align:start;text-decoration:none;text-decoration-line:none;text-decoration-style:solid;text-decoration-color:#000000;letter-spacing:normal;word-spacing:normal;text-transform:none;writing-mode:lr-tb;direction:ltr;text-orientation:mixed;dominant-baseline:auto;baseline-shift:baseline;text-anchor:start;white-space:normal;shape-padding:0;clip-rule:nonzero;display:inline;overflow:visible;visibility:visible;opacity:1;isolation:auto;mix-blend-mode:normal;color-interpolation:sRGB;color-interpolation-filters:linearRGB;solid-color:#000000;solid-opacity:1;vector-effect:none;fill:#000000;fill-opacity:1;fill-rule:nonzero;stroke:none;stroke-width:25.35086632;stroke-linecap:butt;stroke-linejoin:miter;stroke-miterlimit:4;stroke-dasharray:none;stroke-dashoffset:0;stroke-opacity:1;color-rendering:auto;image-rendering:auto;shape-rendering:auto;text-rendering:auto;enable-background:accumulate"
     d="m 906.12891,1.5761719 c -0.064,-0.1484459 -1.80056,1.3151987 -4.85352,2.4570312 -4.07061,1.5224434 -10.23721,3.2256713 -17.87891,4.8515625 -15.28339,3.2517824 -36.53836,6.3012194 -61.4375,9.0292964 -49.79827,5.456156 -114.32876,9.705243 -178.09179,12.917969 -127.52607,6.425453 -252.04492,8.740235 -252.04492,8.740235 l -2.45508,0.04492 -2.25977,0.958984 c -39.14911,16.607693 -61.85719,33.433119 -79.95703,49.203125 -18.09984,15.770003 -31.25274,29.759743 -53.81641,43.431643 -36.7443,22.26431 -78.31739,41.24124 -113.43945,57.21679 -17.56103,7.98778 -33.50473,15.22365 -46.632811,21.9043 -13.12808,6.68065 -23.271467,12.28619 -30.617188,19.65625 L 63.447266,231.25 c -20.866691,17.61061 -48.283377,36.95149 -58.0527348,75.8457 -9.7693575,38.89421 -2.064078,93.88208 37.4570308,184.79883 l 0.02148,0.0469 0.02148,0.0469 c 10.949726,24.63792 32.403012,61.28908 54.341797,95.27149 21.412002,33.16643 41.972372,62.4693 56.345702,76.53515 2.15224,3.09136 2.95204,2.66647 3.66016,3.09961 0.82179,0.50268 1.44087,0.81397 2.11133,1.14258 1.34091,0.65722 2.81772,1.30023 4.63867,2.04883 3.64188,1.49719 8.56436,3.35502 14.69336,5.50195 12.25799,4.29387 29.26991,9.70852 49.26367,15.11133 34.08679,9.2111 76.7472,18.35489 119.13281,21.57422 -2.82064,4.73088 -5.88728,10.0129 -9.28125,16.21484 -11.68255,21.34801 -25.81228,50.62246 -35.63476,82.84375 -9.82249,32.2213 -15.50063,67.49727 -9.04688,101.00977 6.45375,33.51249 26.07144,65.03245 63.60547,85.88086 l 2.87109,1.59375 h 3.28321 c 18.28722,6.6e-4 31.49624,-2.70793 41.49804,-9.71289 10.00181,-7.00497 14.63846,-17.41923 17.5918,-26.98829 5.90667,-19.1381 7.69871,-38.77305 29.91797,-63.16796 l 1.11719,-1.22461 0.76367,-1.47266 c 0,0 88.11282,-168.50404 224.4375,-263.30859 l 0.10937,-0.0762 0.10938,-0.0801 c 22.19208,-16.1404 75.39847,-23.90692 138.57031,-43.58594 63.17184,-19.67902 136.88977,-53.34973 202.54106,-127.89649 l -19.0254,-16.7539 c -61.9622,70.35783 -130.32617,101.52936 -191.05472,120.44726 -60.69359,18.90701 -113.1788,23.49951 -145.88477,47.24805 -140.6665,97.90565 -228.21511,264.5144 -231.65429,271.125 -25.39019,28.66596 -29.52242,56.2049 -34.17188,71.26953 -2.36526,7.66365 -4.24173,11.13192 -7.91016,13.70117 -3.36996,2.36022 -10.38618,4.61605 -23.5996,4.98243 -29.54226,-17.36419 -43.1049,-40.20848 -48.22071,-66.77344 -5.28318,-27.43406 -0.6857,-59.01216 8.40235,-88.82422 9.08804,-29.81207 22.50458,-57.74919 33.62304,-78.06641 5.55923,-10.1586 10.53999,-18.42046 14.10156,-24.09375 0.81578,-1.29946 1.25356,-1.94926 1.91016,-2.96875 l 1.64649,0.0371 3.32617,-8.01367 c 4.8e-4,-0.001 -17.84289,-10.38023 -20.41992,-11.66797 l 9.0039,-5.86328 c -45.97403,-1.0613 -96.30778,-11.39359 -135.04492,-21.86133 -19.36857,-5.23387 -35.8715,-10.49246 -47.49609,-14.56445 -5.8123,-2.036 -10.42387,-3.78532 -13.43555,-5.02344 -0.91316,-0.3754 -1.31575,-0.56985 -1.89258,-0.82812 0.32746,0.28324 0.77217,0.83081 1.32227,1.60351 l -0.96289,-0.91015 c -0.19123,-0.1809 -0.57175,-0.67402 -0.77539,-0.875 -0.20516,-0.094 -0.67095,-0.28801 -0.79688,-0.34961 0.10521,0.0354 0.34277,0.0619 0.58789,0.11328 -9.50983,-9.4819 -31.66144,-39.4836 -52.57812,-71.88281 C 97.049401,540.22908 75.7809,503.55188 66.076172,481.72461 27.61259,393.22186 22.416241,343.39431 29.982422,313.27148 c 7.568059,-30.1303 27.730336,-44.01036 49.814453,-62.64843 l 0.417969,-0.35157 0.384765,-0.38671 c 2.792751,-2.80201 11.844443,-8.69174 24.160161,-14.95899 12.31571,-6.26725 28.06419,-13.43153 45.63085,-21.42187 35.13334,-15.98069 77.56189,-35.27412 116.08008,-58.61329 25.37875,-15.37762 40.32756,-31.1824 57.33203,-45.99804 16.66098,-14.516353 35.72534,-28.78555 71.10157,-44.041018 4.05415,-0.07633 124.32199,-2.356828 250.23828,-8.701171 64.02432,-3.225892 128.84328,-7.476385 179.57812,-13.035157 25.36743,-2.779385 47.17505,-5.866163 63.95118,-9.435546 8.38806,-1.784692 15.50117,-3.664576 21.48437,-5.902344 5.9832,-2.237769 11.08085,-4.081285 15.66406,-10.123047 L 905.62305,2.3339844 c 0.3637,-0.4794464 0.52719,-0.7083306 0.50586,-0.7578125 z"
     id="path9368"
     inkscape:connector-curvature="0" />
  <path
     style="color:#000000;font-style:normal;font-variant:normal;font-weight:normal;font-stretch:normal;font-size:medium;line-height:normal;font-family:sans-serif;font-variant-ligatures:normal;font-variant-position:normal;font-variant-caps:normal;font-variant-numeric:normal;font-variant-alternates:normal;font-feature-settings:normal;text-indent:0;text-align:start;text-decoration:none;text-decoration-line:none;text-decoration-style:solid;text-decoration-color:#000000;letter-spacing:normal;word-spacing:normal;text-transform:none;writing-mode:lr-tb;direction:ltr;text-orientation:mixed;dominant-baseline:auto;baseline-shift:baseline;text-anchor:start;white-space:normal;shape-padding:0;clip-rule:nonzero;display:inline;overflow:visible;visibility:visible;opacity:1;isolation:auto;mix-blend-mode:normal;color-interpolation:sRGB;color-interpolation-filters:linearRGB;solid-color:#000000;solid-opacity:1;vector-effect:none;fill:#000000;fill-opacity:1;fill-rule:nonzero;stroke:none;stroke-width:25.35086632;stroke-linecap:butt;stroke-linejoin:miter;stroke-miterlimit:4;stroke-dasharray:none;stroke-dashoffset:0;stroke-opacity:1;color-rendering:auto;image-rendering:auto;shape-rendering:auto;text-rendering:auto;enable-background:accumulate"
     d="m 293.42773,166.66016 c 0,0 -88.27048,91.16374 -171.47265,144.54101 l 2.58398,-1.26953 c -8.00416,2.85538 -13.58625,9.82055 -16.37695,16.9668 -2.7907,7.14624 -3.70549,14.96358 -3.79492,23.73828 -0.17887,17.54939 3.29201,39.17122 9.01367,63.9082 11.44333,49.47397 32.19783,110.9616 53.91406,168.10938 l 0.91992,2.42578 1.80078,1.86914 c 55.30288,57.38045 122.22152,83.30075 150.65235,113.22656 l 1.16797,1.23047 1.45117,0.88086 c 0,0 19.78618,13.12833 43.02148,6.6582 11.61766,-3.23506 23.33838,-12.20748 31.08789,-27.40429 7.74952,-15.19681 12.33452,-36.35411 12.91797,-66.69532 l -25.3457,-0.48632 c -0.53726,27.939 -4.98599,45.52711 -10.15625,55.66601 -5.17026,10.1389 -10.25633,13.09227 -15.30469,14.49805 -9.07095,2.52591 -19.97003,-2.43024 -22.19336,-3.50782 -35.91315,-36.49515 -97.65734,-59.407 -147.25,-109.88671 -21.12634,-55.79996 -41.18411,-115.60314 -51.98437,-162.29688 -5.48062,-23.69484 -8.50414,-44.11804 -8.36328,-57.9375 0.0704,-6.90973 1.01817,-12.10919 2.05859,-14.77344 1.04042,-2.66424 1.25588,-2.30345 1.28125,-2.3125 l 1.36524,-0.48828 1.2207,-0.78125 c 87.33161,-56.02645 176.0293,-148.27539 176.0293,-148.27539 z"
     id="path5022"
     inkscape:connector-curvature="0" />
  <path
     style="color:#000000;font-style:normal;font-variant:normal;font-weight:normal;font-stretch:normal;font-size:medium;line-height:normal;font-family:sans-serif;font-variant-ligatures:normal;font-variant-position:normal;font-variant-caps:normal;font-variant-numeric:normal;font-variant-alternates:normal;font-feature-settings:normal;text-indent:0;text-align:start;text-decoration:none;text-decoration-line:none;text-decoration-style:solid;text-decoration-color:#000000;letter-spacing:normal;word-spacing:normal;text-transform:none;writing-mode:lr-tb;direction:ltr;text-orientation:mixed;dominant-baseline:auto;baseline-shift:baseline;text-anchor:start;white-space:normal;shape-padding:0;clip-rule:nonzero;display:inline;overflow:visible;visibility:visible;opacity:1;isolation:auto;mix-blend-mode:normal;color-interpolation:sRGB;color-interpolation-filters:linearRGB;solid-color:#000000;solid-opacity:1;vector-effect:none;fill:#000000;fill-opacity:1;fill-rule:nonzero;stroke:none;stroke-width:25.35086632;stroke-linecap:butt;stroke-linejoin:miter;stroke-miterlimit:4;stroke-dasharray:none;stroke-dashoffset:0;stroke-opacity:1;color-rendering:auto;image-rendering:auto;shape-rendering:auto;text-rendering:auto;enable-background:accumulate"
     d="m 266.62695,514.41211 c -3.79875,0.084 -7.68758,0.27184 -11.66797,0.57227 l 1.90821,25.27929 c 56.89946,-4.29449 87.50508,15.45822 105.66015,35.86328 18.15508,20.40506 22.73438,41.19922 22.73438,41.19922 l 1.62695,7.39063 7.27735,2.07617 c 16.29155,4.64468 24.05198,13.8816 30.69921,24.66211 l 21.57813,-13.30469 c -7.42921,-12.04872 -19.29843,-25.88154 -38.63672,-33.4082 -3.19223,-9.62104 -10.5712,-27.74392 -26.33984,-45.4668 -21.15274,-23.77423 -57.85849,-46.12316 -114.83985,-44.86328 z"
     id="path5024"
     inkscape:connector-curvature="0" />
  <path
     style="color:#000000;font-style:normal;font-variant:normal;font-weight:normal;font-stretch:normal;font-size:medium;line-height:normal;font-family:sans-serif;font-variant-ligatures:normal;font-variant-position:normal;font-variant-caps:normal;font-variant-numeric:normal;font-variant-alternates:normal;font-feature-settings:normal;text-indent:0;text-align:start;text-decoration:none;text-decoration-line:none;text-decoration-style:solid;text-decoration-color:#000000;letter-spacing:normal;word-spacing:normal;text-transform:none;writing-mode:lr-tb;direction:ltr;text-orientation:mixed;dominant-baseline:auto;baseline-shift:baseline;text-anchor:start;white-space:normal;shape-padding:0;clip-rule:nonzero;display:inline;overflow:visible;visibility:visible;opacity:1;isolation:auto;mix-blend-mode:normal;color-interpolation:sRGB;color-interpolation-filters:linearRGB;solid-color:#000000;solid-opacity:1;vector-effect:none;fill:#000000;fill-opacity:1;fill-rule:nonzero;stroke:none;stroke-width:25.35086632;stroke-linecap:butt;stroke-linejoin:miter;stroke-miterlimit:4;stroke-dasharray:none;stroke-dashoffset:0;stroke-opacity:1;color-rendering:auto;image-rendering:auto;shape-rendering:auto;text-rendering:auto;enable-background:accumulate"
     d="m 243.47461,380.16797 -16.07813,19.60156 c 48.5941,39.8598 55.82257,69.85402 53.8711,89.48438 -1.95148,19.63036 -13.48242,30.20117 -13.48242,30.20117 l 17.20898,18.61328 c 0,0 18.61667,-17.30251 21.5,-46.30664 2.88333,-29.00413 -10.36723,-68.40517 -63.01953,-111.59375 z"
     id="path5026"
     inkscape:connector-curvature="0" />
  <path
     style="color:#000000;font-style:normal;font-variant:normal;font-weight:normal;font-stretch:normal;font-size:medium;line-height:normal;font-family:sans-serif;font-variant-ligatures:normal;font-variant-position:normal;font-variant-caps:normal;font-variant-numeric:normal;font-variant-alternates:normal;font-feature-settings:normal;text-indent:0;text-align:start;text-decoration:none;text-decoration-line:none;text-decoration-style:solid;text-decoration-color:#000000;letter-spacing:normal;word-spacing:normal;text-transform:none;writing-mode:lr-tb;direction:ltr;text-orientation:mixed;dominant-baseline:auto;baseline-shift:baseline;text-anchor:start;white-space:normal;shape-padding:0;clip-rule:nonzero;display:inline;overflow:visible;visibility:visible;opacity:1;isolation:auto;mix-blend-mode:normal;color-interpolation:sRGB;color-interpolation-filters:linearRGB;solid-color:#000000;solid-opacity:1;vector-effect:none;fill:#000000;fill-opacity:1;fill-rule:nonzero;stroke:none;stroke-width:25.35086632;stroke-linecap:butt;stroke-linejoin:miter;stroke-miterlimit:4;stroke-dasharray:none;stroke-dashoffset:0;stroke-opacity:1;color-rendering:auto;image-rendering:auto;shape-rendering:auto;text-rendering:auto;enable-background:accumulate"
     d="m 335.41992,309.36133 c -4.37483,56.87518 -21.55173,82.98098 -35.95117,95.55469 -14.39944,12.57371 -25.32617,12.26562 -25.32617,12.26562 l 0.47265,25.34766 c 0,0 21.36207,-0.91104 41.52735,-18.51953 20.16528,-17.6085 39.8287,-51.26281 44.55469,-112.70313 z"
     id="path5028"
     inkscape:connector-curvature="0" />
  <path
     style="color:#000000;font-style:normal;font-variant:normal;font-weight:normal;font-stretch:normal;font-size:medium;line-height:normal;font-family:sans-serif;font-variant-ligatures:normal;font-variant-position:normal;font-variant-caps:normal;font-variant-numeric:normal;font-variant-alternates:normal;font-feature-settings:normal;text-indent:0;text-align:start;text-decoration:none;text-decoration-line:none;text-decoration-style:solid;text-decoration-color:#000000;letter-spacing:normal;word-spacing:normal;text-transform:none;writing-mode:lr-tb;direction:ltr;text-orientation:mixed;dominant-baseline:auto;baseline-shift:baseline;text-anchor:start;white-space:normal;shape-padding:0;clip-rule:nonzero;display:inline;overflow:visible;visibility:visible;opacity:1;isolation:auto;mix-blend-mode:normal;color-interpolation:sRGB;color-interpolation-filters:linearRGB;solid-color:#000000;solid-opacity:1;vector-effect:none;fill:#000000;fill-opacity:1;fill-rule:nonzero;stroke:none;stroke-width:25.35086632;stroke-linecap:butt;stroke-linejoin:miter;stroke-miterlimit:4;stroke-dasharray:none;stroke-dashoffset:0;stroke-opacity:1;color-rendering:auto;image-rendering:auto;shape-rendering:auto;text-rendering:auto;enable-background:accumulate"
     d="m 470.03516,334.57422 -26.24024,16.16016 c -2.7867,1.71618 -10.73289,4.37087 -18.78515,6.41601 -8.05226,2.04514 -15.81702,3.40219 -23.06641,6.79102 -17.49701,8.17925 -29.86473,11.48444 -37.73438,12.22265 -7.86964,0.73821 -10.77073,-0.78977 -12.00976,-1.6914 -2.47806,-1.80326 -2.3418,-5.17774 -2.3418,-5.17774 l -25.26953,-2.01953 c 0,0 -1.52051,17.35058 12.69531,27.69531 7.10792,5.17237 17.14125,7.57367 29.29492,6.4336 12.15368,-1.14008 26.89695,-5.52055 46.10157,-14.49805 1.72274,-0.80532 10.04181,-3.01945 18.57031,-5.18555 1.77474,-0.45075 3.61867,-1.02906 5.43164,-1.50781 0.0916,6.95939 0.54002,14.83546 2.28906,24.34961 5.01901,27.30149 18.95257,64.80576 53.02149,107.07031 0.25336,0.46595 0.56066,1.3234 0.0547,4.07617 -0.55162,3.00108 -2.2723,7.57667 -5.10743,12.82227 -5.67025,10.49121 -15.51224,23.59459 -25.94531,36.73437 -10.43307,13.13979 -21.43213,26.37055 -29.82031,38.57032 -4.19409,6.09988 -7.76313,11.91504 -10.30274,17.85937 -2.53961,5.94434 -4.53369,12.3593 -2.63086,19.9375 l 24.58789,-6.17383 c 0.29994,1.19453 -0.0824,-0.43915 1.35547,-3.80468 1.43787,-3.36553 4.21312,-8.12267 7.88086,-13.45703 7.33549,-10.66874 18.13126,-23.75253 28.78321,-37.16797 10.65194,-13.41545 21.18459,-27.10898 28.39257,-40.44532 3.60399,-6.66816 6.44845,-13.26294 7.74024,-20.29101 1.29179,-7.02807 0.82212,-15.07311 -3.36719,-21.98828 l -0.45508,-0.75196 -0.55468,-0.68164 c -32.30809,-39.70233 -44.38264,-73.41198 -48.69922,-96.89257 -4.31659,-23.4806 -1.14453,-35.45704 -1.14453,-35.45704 z"
     id="path5030"
     inkscape:connector-curvature="0" />
  <path
     style="color:#000000;font-style:normal;font-variant:normal;font-weight:normal;font-stretch:normal;font-size:medium;line-height:normal;font-family:sans-serif;font-variant-ligatures:normal;font-variant-position:normal;font-variant-caps:normal;font-variant-numeric:normal;font-variant-alternates:normal;font-feature-settings:normal;text-indent:0;text-align:start;text-decoration:none;text-decoration-line:none;text-decoration-style:solid;text-decoration-color:#000000;letter-spacing:normal;word-spacing:normal;text-transform:none;writing-mode:lr-tb;direction:ltr;text-orientation:mixed;dominant-baseline:auto;baseline-shift:baseline;text-anchor:start;white-space:normal;shape-padding:0;clip-rule:nonzero;display:inline;overflow:visible;visibility:visible;opacity:1;isolation:auto;mix-blend-mode:normal;color-interpolation:sRGB;color-interpolation-filters:linearRGB;solid-color:#000000;solid-opacity:1;vector-effect:none;fill:#000000;fill-opacity:1;fill-rule:nonzero;stroke:none;stroke-width:25.35086632;stroke-linecap:butt;stroke-linejoin:miter;stroke-miterlimit:4;stroke-dasharray:none;stroke-dashoffset:0;stroke-opacity:1;color-rendering:auto;image-rendering:auto;shape-rendering:auto;text-rendering:auto;enable-background:accumulate"
     d="m 422.99219,644.21484 c -0.98306,21.22048 -12.91512,30.50745 -26.67383,36.76954 -13.75871,6.26208 -27.66016,7.11718 -27.66016,7.11718 l 1.31446,25.31836 c 0,0 18.04704,-0.80449 36.84765,-9.36133 18.80061,-8.55683 40.03856,-27.24941 41.49414,-58.66992 z"
     id="path5032"
     inkscape:connector-curvature="0" />
  <path
     style="color:#000000;font-style:normal;font-variant:normal;font-weight:normal;font-stretch:normal;font-size:medium;line-height:normal;font-family:sans-serif;font-variant-ligatures:normal;font-variant-position:normal;font-variant-caps:normal;font-variant-numeric:normal;font-variant-alternates:normal;font-feature-settings:normal;text-indent:0;text-align:start;text-decoration:none;text-decoration-line:none;text-decoration-style:solid;text-decoration-color:#000000;letter-spacing:normal;word-spacing:normal;text-transform:none;writing-mode:lr-tb;direction:ltr;text-orientation:mixed;dominant-baseline:auto;baseline-shift:baseline;text-anchor:start;white-space:normal;shape-padding:0;clip-rule:nonzero;display:inline;overflow:visible;visibility:visible;opacity:1;isolation:auto;mix-blend-mode:normal;color-interpolation:sRGB;color-interpolation-filters:linearRGB;solid-color:#000000;solid-opacity:1;vector-effect:none;fill:#000000;fill-opacity:1;fill-rule:nonzero;stroke:none;stroke-width:25.35086632;stroke-linecap:butt;stroke-linejoin:miter;stroke-miterlimit:4;stroke-dasharray:none;stroke-dashoffset:0;stroke-opacity:1;color-rendering:auto;image-rendering:auto;shape-rendering:auto;text-rendering:auto;enable-background:accumulate"
     d="m 510.61914,304.99609 -5.33008,10.19727 c -14.59867,27.92909 -56.18945,33.73047 -56.18945,33.73047 l 2.68555,25.20898 c 0,0 45.4713,-3.7612 70.13672,-37.91797 20.40821,6.39824 73.00295,19.06014 136.04296,4.01563 79.35323,43.62646 198.85547,56.64258 198.85547,56.64258 l 2.90235,-25.1836 c 0,0 -122.7193,-15.01076 -193.63672,-55.84375 l -4.5,-2.59179 -5.02539,1.31054 C 582.27288,333.94468 521.2832,309.31836 521.2832,309.31836 Z"
     id="path5034"
     inkscape:connector-curvature="0" />
  <path
     style="color:#000000;font-style:normal;font-variant:normal;font-weight:normal;font-stretch:normal;font-size:medium;line-height:normal;font-family:sans-serif;font-variant-ligatures:normal;font-variant-position:normal;font-variant-caps:normal;font-variant-numeric:normal;font-variant-alternates:normal;font-feature-settings:normal;text-indent:0;text-align:start;text-decoration:none;text-decoration-line:none;text-decoration-style:solid;text-decoration-color:#000000;letter-spacing:normal;word-spacing:normal;text-transform:none;writing-mode:lr-tb;direction:ltr;text-orientation:mixed;dominant-baseline:auto;baseline-shift:baseline;text-anchor:start;white-space:normal;shape-padding:0;clip-rule:nonzero;display:inline;overflow:visible;visibility:visible;opacity:1;isolation:auto;mix-blend-mode:normal;color-interpolation:sRGB;color-interpolation-filters:linearRGB;solid-color:#000000;solid-opacity:1;vector-effect:none;fill:#000000;fill-opacity:1;fill-rule:nonzero;stroke:none;stroke-width:25.35086632;stroke-linecap:butt;stroke-linejoin:miter;stroke-miterlimit:4;stroke-dasharray:none;stroke-dashoffset:0;stroke-opacity:1;color-rendering:auto;image-rendering:auto;shape-rendering:auto;text-rendering:auto;enable-background:accumulate"
     d="m 513.50781,498.13281 -21.4707,13.47657 c 0,0 13.18854,21.03767 33.36133,43.80468 20.17279,22.76701 47.10381,48.20433 78.90429,56.27344 l 6.23438,-24.57227 c -22.09467,-5.60634 -47.48692,-27.43464 -66.16406,-48.51367 -18.67715,-21.07902 -30.86524,-40.46875 -30.86524,-40.46875 z"
     id="path5036"
     inkscape:connector-curvature="0" />
  <path
     style="color:#000000;font-style:normal;font-variant:normal;font-weight:normal;font-stretch:normal;font-size:medium;line-height:normal;font-family:sans-serif;font-variant-ligatures:normal;font-variant-position:normal;font-variant-caps:normal;font-variant-numeric:normal;font-variant-alternates:normal;font-feature-settings:normal;text-indent:0;text-align:start;text-decoration:none;text-decoration-line:none;text-decoration-style:solid;text-decoration-color:#000000;letter-spacing:normal;word-spacing:normal;text-transform:none;writing-mode:lr-tb;direction:ltr;text-orientation:mixed;dominant-baseline:auto;baseline-shift:baseline;text-anchor:start;white-space:normal;shape-padding:0;clip-rule:nonzero;display:inline;overflow:visible;visibility:visible;opacity:1;isolation:auto;mix-blend-mode:normal;color-interpolation:sRGB;color-interpolation-filters:linearRGB;solid-color:#000000;solid-opacity:1;vector-effect:none;fill:#000000;fill-opacity:1;fill-rule:nonzero;stroke:none;stroke-width:19.01315117;stroke-linecap:butt;stroke-linejoin:miter;stroke-miterlimit:4;stroke-dasharray:none;stroke-dashoffset:0;stroke-opacity:1;color-rendering:auto;image-rendering:auto;shape-rendering:auto;text-rendering:auto;enable-background:accumulate"
     d="m 384.90039,709.44141 -18.29883,5.16211 c 5.62122,19.93059 23.42906,36.64444 39.37696,49.88281 15.94789,13.23837 30.72656,22.38476 30.72656,22.38476 l 10.01562,-16.16015 c 0,0 -13.77902,-8.55093 -28.59961,-20.85352 -14.82058,-12.30259 -29.99346,-28.97349 -33.2207,-40.41601 z"
     id="path5038"
     inkscape:connector-curvature="0" />
  <path
     style="color:#000000;font-style:normal;font-variant:normal;font-weight:normal;font-stretch:normal;font-size:medium;line-height:normal;font-family:sans-serif;font-variant-ligatures:normal;font-variant-position:normal;font-variant-caps:normal;font-variant-numeric:normal;font-variant-alternates:normal;font-feature-settings:normal;text-indent:0;text-align:start;text-decoration:none;text-decoration-line:none;text-decoration-style:solid;text-decoration-color:#000000;letter-spacing:normal;word-spacing:normal;text-transform:none;writing-mode:lr-tb;direction:ltr;text-orientation:mixed;dominant-baseline:auto;baseline-shift:baseline;text-anchor:start;white-space:normal;shape-padding:0;clip-rule:nonzero;display:inline;overflow:visible;visibility:visible;opacity:1;isolation:auto;mix-blend-mode:normal;color-interpolation:sRGB;color-interpolation-filters:linearRGB;solid-color:#000000;solid-opacity:1;vector-effect:none;fill:#000000;fill-opacity:1;fill-rule:nonzero;stroke:none;stroke-width:19.01315117;stroke-linecap:butt;stroke-linejoin:miter;stroke-miterlimit:4;stroke-dasharray:none;stroke-dashoffset:0;stroke-opacity:1;color-rendering:auto;image-rendering:auto;shape-rendering:auto;text-rendering:auto;enable-background:accumulate"
     d="m 279.00586,605.97461 c -13.63273,-0.0614 -29.78225,2.76907 -49.04883,9.09766 l 5.93359,18.06445 c 28.55725,-9.38035 47.51873,-9.54599 59.50196,-5.87891 11.98322,3.66708 17.94433,10.7178 21.81054,19.66016 7.73244,17.88472 3.3418,42.61523 3.3418,42.61523 l 18.625,3.82422 c 0,0 6.52616,-28.44527 -4.51562,-53.98437 -5.5209,-12.76955 -16.37125,-24.99285 -33.69727,-30.29493 -6.49726,-1.98827 -13.77153,-3.06668 -21.95117,-3.10351 z"
     id="path5587"
     inkscape:connector-curvature="0" />
  <path
     style="color:#000000;font-style:normal;font-variant:normal;font-weight:normal;font-stretch:normal;font-size:medium;line-height:normal;font-family:sans-serif;font-variant-ligatures:normal;font-variant-position:normal;font-variant-caps:normal;font-variant-numeric:normal;font-variant-alternates:normal;font-feature-settings:normal;text-indent:0;text-align:start;text-decoration:none;text-decoration-line:none;text-decoration-style:solid;text-decoration-color:#000000;letter-spacing:normal;word-spacing:normal;text-transform:none;writing-mode:lr-tb;direction:ltr;text-orientation:mixed;dominant-baseline:auto;baseline-shift:baseline;text-anchor:start;white-space:normal;shape-padding:0;clip-rule:nonzero;display:inline;overflow:visible;visibility:visible;opacity:1;isolation:auto;mix-blend-mode:normal;color-interpolation:sRGB;color-interpolation-filters:linearRGB;solid-color:#000000;solid-opacity:1;vector-effect:none;fill:#000000;fill-opacity:1;fill-rule:nonzero;stroke:none;stroke-width:19.01315117;stroke-linecap:butt;stroke-linejoin:miter;stroke-miterlimit:4;stroke-dasharray:none;stroke-dashoffset:0;stroke-opacity:1;color-rendering:auto;image-rendering:auto;shape-rendering:auto;text-rendering:auto;enable-background:accumulate"
     d="m 248.79492,643.06641 -12.25976,30.65039 17.65429,7.06054 12.25977,-30.65039 z"
     id="path5589"
     inkscape:connector-curvature="0" />
</svg>
