<?xml version="1.0" encoding="UTF-8" standalone="no"?>
<!-- Created with Inkscape (http://www.inkscape.org/) -->

<svg
   xmlns:dc="http://purl.org/dc/elements/1.1/"
   xmlns:cc="http://creativecommons.org/ns#"
   xmlns:rdf="http://www.w3.org/1999/02/22-rdf-syntax-ns#"
   xmlns:svg="http://www.w3.org/2000/svg"
   xmlns="http://www.w3.org/2000/svg"
   xmlns:sodipodi="http://sodipodi.sourceforge.net/DTD/sodipodi-0.dtd"
   xmlns:inkscape="http://www.inkscape.org/namespaces/inkscape"
   version="1.1"
   id="svg7445"
   width="1000"
   height="1000"
   viewBox="0 0 1000 1000"
   sodipodi:docname="B.svg"
   inkscape:version="0.92.4 (5da689c313, 2019-01-14)">
  <metadata
     id="metadata7451">
    <rdf:RDF>
      <cc:Work
         rdf:about="">
        <dc:format>image/svg+xml</dc:format>
        <dc:type
           rdf:resource="http://purl.org/dc/dcmitype/StillImage" />
        <dc:title />
      </cc:Work>
    </rdf:RDF>
  </metadata>
  <defs
     id="defs7449">
    <clipPath
       clipPathUnits="userSpaceOnUse"
       id="clipPath7459">
      <rect
         style="opacity:1;fill:#00000a;fill-opacity:0.04705882;stroke:#000000;stroke-width:15;stroke-miterlimit:4;stroke-dasharray:none;stroke-opacity:1"
         id="rect7461"
         width="985"
         height="985"
         x="7.5"
         y="7.5000086"
         transform="rotate(-90)" />
    </clipPath>
  </defs>
  <sodipodi:namedview
     pagecolor="#ffffff"
     bordercolor="#666666"
     borderopacity="1"
     objecttolerance="10"
     gridtolerance="10"
     guidetolerance="10"
     inkscape:pageopacity="0"
     inkscape:pageshadow="2"
     inkscape:window-width="1366"
     inkscape:window-height="715"
     id="namedview7447"
     showgrid="false"
     inkscape:zoom="0.38628982"
     inkscape:cx="479.50278"
     inkscape:cy="412.1039"
     inkscape:window-x="-8"
     inkscape:window-y="-8"
     inkscape:window-maximized="1"
     inkscape:current-layer="svg7445" />
  <path
     style="color:#000000;font-style:normal;font-variant:normal;font-weight:normal;font-stretch:normal;font-size:medium;line-height:normal;font-family:sans-serif;font-variant-ligatures:normal;font-variant-position:normal;font-variant-caps:normal;font-variant-numeric:normal;font-variant-alternates:normal;font-feature-settings:normal;text-indent:0;text-align:start;text-decoration:none;text-decoration-line:none;text-decoration-style:solid;text-decoration-color:#000000;letter-spacing:normal;word-spacing:normal;text-transform:none;writing-mode:lr-tb;direction:ltr;text-orientation:mixed;dominant-baseline:auto;baseline-shift:baseline;text-anchor:start;white-space:normal;shape-padding:0;clip-rule:nonzero;display:inline;overflow:visible;visibility:visible;opacity:1;isolation:auto;mix-blend-mode:normal;color-interpolation:sRGB;color-interpolation-filters:linearRGB;solid-color:#000000;solid-opacity:1;vector-effect:none;fill:#000000;fill-opacity:1;fill-rule:nonzero;stroke:none;stroke-width:25.22925758;stroke-linecap:butt;stroke-linejoin:miter;stroke-miterlimit:4;stroke-dasharray:none;stroke-dashoffset:0;stroke-opacity:1;color-rendering:auto;image-rendering:auto;shape-rendering:auto;text-rendering:auto;enable-background:accumulate"
     d="M 237.70508,0.74023438 C 216.41906,0.77907292 196.74263,14.243168 189.12109,33.779297 175.62536,28.317141 163.00577,27.169778 151.72266,31.242188 136.11585,36.875149 126.44563,50.942342 120.375,67.179688 110.21898,94.344361 108.00353,131.0138 108.23047,168.79688 c -4.37995,-1.44722 -8.783607,-2.39918 -13.228517,-2.30274 -11.647774,0.25271 -21.747949,6.48054 -28.992187,14.64844 -14.488478,16.3358 -22.025894,40.93362 -27.730469,67.15039 -11.409151,52.43354 -12.644531,111.90234 -12.644531,111.90234 l -0.0039,0.21094 0.002,0.21094 C 26.566953,447.77168 35.853839,510.3145 8.3691406,629.51172 l -0.15625,0.67578 -0.080078,0.6875 c -16.7691039,143.00158 5.8650285,171.44427 14.8789065,228.23242 4.956226,31.22468 12.357527,47.71064 18.761719,64.63672 6.404191,16.92608 12.326486,35.14502 16.316406,74.95898 L 83.193359,996.1875 C 79.024025,954.58322 72.127068,932.6774 65.369141,914.81641 58.611214,896.95542 52.50582,883.9947 47.927734,855.15234 38.137754,793.47468 16.82696,773.9522 33.130859,634.36328 61.078624,512.66716 51.793902,445.72103 50.867188,360.54297 c 0.01653,-0.6573 1.488946,-58.2844 12.064453,-106.88672 5.31804,-24.44035 13.644688,-46.4037 21.953125,-55.77148 4.154218,-4.6839 7.186931,-6.09253 10.664062,-6.16797 3.477132,-0.0754 9.150692,1.57147 17.388672,8.53906 l 21.5293,18.20898 -0.77344,-28.18554 c -1.21482,-44.27769 0.93939,-89.19307 10.3125,-114.263675 4.68655,-12.535301 10.36186,-18.903826 16.2832,-21.041016 5.92135,-2.137189 15.49522,-1.468166 31.45508,8.376953 l 19.96875,12.31836 -0.73828,-23.451172 c -0.46689,-14.846716 15.23616,-27.663955 29.57031,-26.099609 7.16708,0.782173 14.30743,4.354965 20.75391,15.115234 6.44648,10.760269 11.55186,29.200308 11.05078,57.5625 l -0.49414,27.990235 21.29492,-18.17188 c 0,0 13.36831,-10.00106 25.09766,-8.31054 5.86467,0.84526 12.21148,3.64134 19.5957,14.81054 7.38422,11.16921 14.93182,30.96028 19.73828,63.06836 l 24.95117,-3.73632 C 377.38998,140.08953 369.32528,116.98736 358.88867,101.20117 348.45206,85.414988 334.76925,77.194384 321.84766,75.332031 312.45977,73.978982 303.98694,75.50386 296.94922,77.949219 295.26956,57.033462 290.39608,40.710685 282.94141,28.267578 273.12245,11.878074 258.20917,2.6662558 243.28125,1.0371094 241.41526,0.83346607 239.55473,0.73685949 237.70508,0.74023438 Z"
     id="path7463"
     inkscape:connector-curvature="0" />
  <path
     style="color:#000000;font-style:normal;font-variant:normal;font-weight:normal;font-stretch:normal;font-size:medium;line-height:normal;font-family:sans-serif;font-variant-ligatures:normal;font-variant-position:normal;font-variant-caps:normal;font-variant-numeric:normal;font-variant-alternates:normal;font-feature-settings:normal;text-indent:0;text-align:start;text-decoration:none;text-decoration-line:none;text-decoration-style:solid;text-decoration-color:#000000;letter-spacing:normal;word-spacing:normal;text-transform:none;writing-mode:lr-tb;direction:ltr;text-orientation:mixed;dominant-baseline:auto;baseline-shift:baseline;text-anchor:start;white-space:normal;shape-padding:0;clip-rule:nonzero;display:inline;overflow:visible;visibility:visible;opacity:1;isolation:auto;mix-blend-mode:normal;color-interpolation:sRGB;color-interpolation-filters:linearRGB;solid-color:#000000;solid-opacity:1;vector-effect:none;fill:#000000;fill-opacity:1;fill-rule:nonzero;stroke:none;stroke-width:25.22925758;stroke-linecap:butt;stroke-linejoin:miter;stroke-miterlimit:4;stroke-dasharray:none;stroke-dashoffset:0;stroke-opacity:1;color-rendering:auto;image-rendering:auto;shape-rendering:auto;text-rendering:auto;enable-background:accumulate"
     d="m 382.53906,174.49609 -24.96484,3.63868 c 16.85515,115.62568 33.67495,147.04508 38.32226,276.8789 l 0.0254,0.69727 0.10156,0.68945 c 5.17305,35.1453 8.16746,47.57062 15.5,56.59766 3.66626,4.51351 7.97087,6.53007 8.92968,7.13867 0.81631,0.51814 1.004,0.61118 2.02344,2.38672 0.57642,1.58336 16.99917,46.74331 30.66211,96.86914 6.95185,25.50456 13.06873,52.04309 15.83203,73.68359 2.76331,21.6405 -0.0148,38.598 -1.62304,40.81445 -22.72561,30.99804 -46.8598,69.39985 -70.42578,103.42969 -23.29542,33.63913 -46.66491,62.93854 -64.33204,75.35157 -2.02695,1.14456 -3.61269,2.65014 -4.56445,3.95898 -2.91207,4.00463 -3.21876,6.80369 -3.875,11.13086 -1.31249,8.65434 -1.88354,23.49701 -0.47851,54.56055 l 25.20507,-1.14063 c -1.3558,-29.97545 -0.57054,-44.14853 0.19141,-49.37695 23.14739,-16.99065 45.51899,-46.79779 68.5957,-80.1211 24.03881,-34.71259 48.18304,-73.08212 70.06641,-102.92578 l 0.0176,-0.0254 0.0195,-0.0254 c 11.11814,-15.32315 9.2534,-35.15247 6.23047,-58.82617 -3.02293,-23.6737 -9.39323,-50.97847 -16.51953,-77.12305 -14.25261,-52.28915 -31.65821,-99.92187 -31.65821,-99.92187 l -0.33398,-0.91602 -0.47071,-0.85351 c -3.31133,-5.99955 -7.88299,-10.22472 -11.04296,-12.23047 -3.15998,-2.00576 -2.68833,-1.52395 -2.86719,-1.74414 -0.35577,-0.43799 -5.05496,-10.25579 -10.04297,-43.90235 -4.77176,-131.03581 -21.96473,-165.1013 -38.52344,-278.69336 z"
     id="path7465"
     inkscape:connector-curvature="0" />
  <path
     style="color:#000000;font-style:normal;font-variant:normal;font-weight:normal;font-stretch:normal;font-size:medium;line-height:normal;font-family:sans-serif;font-variant-ligatures:normal;font-variant-position:normal;font-variant-caps:normal;font-variant-numeric:normal;font-variant-alternates:normal;font-feature-settings:normal;text-indent:0;text-align:start;text-decoration:none;text-decoration-line:none;text-decoration-style:solid;text-decoration-color:#000000;letter-spacing:normal;word-spacing:normal;text-transform:none;writing-mode:lr-tb;direction:ltr;text-orientation:mixed;dominant-baseline:auto;baseline-shift:baseline;text-anchor:start;white-space:normal;shape-padding:0;clip-rule:nonzero;display:inline;overflow:visible;visibility:visible;opacity:1;isolation:auto;mix-blend-mode:normal;color-interpolation:sRGB;color-interpolation-filters:linearRGB;solid-color:#000000;solid-opacity:1;vector-effect:none;fill:#000000;fill-opacity:1;fill-rule:nonzero;stroke:none;stroke-width:25.22925758;stroke-linecap:butt;stroke-linejoin:miter;stroke-miterlimit:4;stroke-dasharray:none;stroke-dashoffset:0;stroke-opacity:1;color-rendering:auto;image-rendering:auto;shape-rendering:auto;text-rendering:auto;enable-background:accumulate"
     d="m 133.68359,190.02148 -25.20117,1.20508 c 3.38763,70.79501 -5.70252,117.23829 3.9336,179.76563 4.08441,26.5032 5.30617,39.69238 7.75586,76.5039 l 25.17382,-1.67382 c -2.46075,-36.97794 -3.83002,-51.65149 -7.99414,-78.67188 -8.97127,-58.21326 -0.15625,-103.74072 -3.66797,-177.12891 z"
     id="path7467"
     inkscape:connector-curvature="0" />
  <path
     style="color:#000000;font-style:normal;font-variant:normal;font-weight:normal;font-stretch:normal;font-size:medium;line-height:normal;font-family:sans-serif;font-variant-ligatures:normal;font-variant-position:normal;font-variant-caps:normal;font-variant-numeric:normal;font-variant-alternates:normal;font-feature-settings:normal;text-indent:0;text-align:start;text-decoration:none;text-decoration-line:none;text-decoration-style:solid;text-decoration-color:#000000;letter-spacing:normal;word-spacing:normal;text-transform:none;writing-mode:lr-tb;direction:ltr;text-orientation:mixed;dominant-baseline:auto;baseline-shift:baseline;text-anchor:start;white-space:normal;shape-padding:0;clip-rule:nonzero;display:inline;overflow:visible;visibility:visible;opacity:1;isolation:auto;mix-blend-mode:normal;color-interpolation:sRGB;color-interpolation-filters:linearRGB;solid-color:#000000;solid-opacity:1;vector-effect:none;fill:#000000;fill-opacity:1;fill-rule:nonzero;stroke:none;stroke-width:25.22925758;stroke-linecap:butt;stroke-linejoin:miter;stroke-miterlimit:4;stroke-dasharray:none;stroke-dashoffset:0;stroke-opacity:1;color-rendering:auto;image-rendering:auto;shape-rendering:auto;text-rendering:auto;enable-background:accumulate"
     d="m 210.50977,49.197266 -24.28516,6.835937 c 5.59676,19.882913 -0.15023,59.955387 3.24414,130.123047 l 0.0176,0.35547 0.0371,0.35156 c 2.85513,27.20861 7.92861,75.84174 11.70703,122.73438 3.77842,46.89263 6.00189,93.17504 4.03515,110.8789 l 25.07618,2.78711 c 2.63592,-23.72774 -0.15147,-68.38909 -3.96289,-115.6914 -3.79534,-47.10267 -8.85316,-95.59273 -11.7168,-122.88477 -3.26103,-67.91762 4.39046,-105.141265 -4.15234,-135.490234 z"
     id="path7469"
     inkscape:connector-curvature="0" />
  <path
     style="color:#000000;font-style:normal;font-variant:normal;font-weight:normal;font-stretch:normal;font-size:medium;line-height:normal;font-family:sans-serif;font-variant-ligatures:normal;font-variant-position:normal;font-variant-caps:normal;font-variant-numeric:normal;font-variant-alternates:normal;font-feature-settings:normal;text-indent:0;text-align:start;text-decoration:none;text-decoration-line:none;text-decoration-style:solid;text-decoration-color:#000000;letter-spacing:normal;word-spacing:normal;text-transform:none;writing-mode:lr-tb;direction:ltr;text-orientation:mixed;dominant-baseline:auto;baseline-shift:baseline;text-anchor:start;white-space:normal;shape-padding:0;clip-rule:nonzero;display:inline;overflow:visible;visibility:visible;opacity:1;isolation:auto;mix-blend-mode:normal;color-interpolation:sRGB;color-interpolation-filters:linearRGB;solid-color:#000000;solid-opacity:1;vector-effect:none;fill:#000000;fill-opacity:1;fill-rule:nonzero;stroke:none;stroke-width:25.22925758;stroke-linecap:butt;stroke-linejoin:miter;stroke-miterlimit:4;stroke-dasharray:none;stroke-dashoffset:0;stroke-opacity:1;color-rendering:auto;image-rendering:auto;shape-rendering:auto;text-rendering:auto;enable-background:accumulate"
     d="m 276.63672,89.542969 c 0,0 -1.77811,1.749502 -2.7793,3.195312 -1.00118,1.44581 -2.03449,3.291974 -3.01562,5.638672 -1.96228,4.693397 -3.74044,11.373577 -4.70899,21.273437 -1.93709,19.79971 -0.68976,52.60678 10.56836,108.98438 l 24.74024,-4.93946 c -10.95515,-54.86037 -11.76102,-85.6262 -10.19922,-101.58984 0.78089,-7.98182 2.13881,-12.23061 2.87695,-13.99609 0.36907,-0.88275 0.57834,-1.14915 0.48047,-1.00782 -0.0979,0.14134 -1.31055,1.39453 -1.31055,1.39453 z"
     id="path7471"
     inkscape:connector-curvature="0" />
  <path
     style="color:#000000;font-style:normal;font-variant:normal;font-weight:normal;font-stretch:normal;font-size:medium;line-height:normal;font-family:sans-serif;font-variant-ligatures:normal;font-variant-position:normal;font-variant-caps:normal;font-variant-numeric:normal;font-variant-alternates:normal;font-feature-settings:normal;text-indent:0;text-align:start;text-decoration:none;text-decoration-line:none;text-decoration-style:solid;text-decoration-color:#000000;letter-spacing:normal;word-spacing:normal;text-transform:none;writing-mode:lr-tb;direction:ltr;text-orientation:mixed;dominant-baseline:auto;baseline-shift:baseline;text-anchor:start;white-space:normal;shape-padding:0;clip-rule:nonzero;display:inline;overflow:visible;visibility:visible;opacity:1;isolation:auto;mix-blend-mode:normal;color-interpolation:sRGB;color-interpolation-filters:linearRGB;solid-color:#000000;solid-opacity:1;vector-effect:none;fill:#000000;fill-opacity:1;fill-rule:nonzero;stroke:none;stroke-width:25.22925758;stroke-linecap:butt;stroke-linejoin:miter;stroke-miterlimit:4;stroke-dasharray:none;stroke-dashoffset:0;stroke-opacity:1;color-rendering:auto;image-rendering:auto;shape-rendering:auto;text-rendering:auto;enable-background:accumulate"
     d="m 301.41992,223.5918 -24.69726,5.14648 c 8.65527,41.54476 11.14748,83.59848 12.1289,119.38867 0.98142,35.7902 0.14154,64.47765 3.53906,83.36133 l 24.83008,-4.4668 C 314.87264,413.9708 315.06863,383.84189 314.07031,347.43555 313.072,311.0292 310.56896,267.50658 301.41992,223.5918 Z"
     id="path7473"
     inkscape:connector-curvature="0" />
  <path
     style="color:#000000;font-style:normal;font-variant:normal;font-weight:normal;font-stretch:normal;font-size:medium;line-height:normal;font-family:sans-serif;font-variant-ligatures:normal;font-variant-position:normal;font-variant-caps:normal;font-variant-numeric:normal;font-variant-alternates:normal;font-feature-settings:normal;text-indent:0;text-align:start;text-decoration:none;text-decoration-line:none;text-decoration-style:solid;text-decoration-color:#000000;letter-spacing:normal;word-spacing:normal;text-transform:none;writing-mode:lr-tb;direction:ltr;text-orientation:mixed;dominant-baseline:auto;baseline-shift:baseline;text-anchor:start;white-space:normal;shape-padding:0;clip-rule:nonzero;display:inline;overflow:visible;visibility:visible;opacity:1;isolation:auto;mix-blend-mode:normal;color-interpolation:sRGB;color-interpolation-filters:linearRGB;solid-color:#000000;solid-opacity:1;vector-effect:none;fill:#000000;fill-opacity:1;fill-rule:nonzero;stroke:none;stroke-width:25.22925758;stroke-linecap:butt;stroke-linejoin:miter;stroke-miterlimit:4;stroke-dasharray:none;stroke-dashoffset:0;stroke-opacity:1;color-rendering:auto;image-rendering:auto;shape-rendering:auto;text-rendering:auto;enable-background:accumulate"
     d="m 392.375,487.51953 c -13.74779,0.56918 -28.18717,3.87151 -42.5957,7.04297 -28.81707,6.34292 -58.87127,13.44567 -83.84766,9.18555 l -0.38086,-0.0645 -0.38086,-0.041 c -7.03258,-0.76242 -14.95567,1.56778 -19.92383,6.71484 -4.96815,5.14706 -6.80192,11.62323 -7.24218,17.81055 -0.88052,12.37464 3.25106,25.57941 10.96289,38.8457 14.02354,24.12402 41.99908,48.02414 81.4082,50.91602 0.18445,1.62058 0.21049,2.80591 0.49414,4.59179 1.18884,7.48493 3.13372,16.35984 8.0332,24.57422 -0.30165,1.31187 -0.61296,2.37414 -0.86718,3.93555 -0.95808,5.88434 -1.7624,13.62477 1.26172,22.125 l 23.76953,-8.45703 c -0.57545,-1.61748 -0.72714,-5.95105 -0.13086,-9.61328 0.59627,-3.66223 1.46093,-6.14453 1.46093,-6.14453 l 2.37891,-6.79883 -4.64648,-5.50391 c -2.35032,-2.78371 -5.20075,-10.87784 -6.34375,-18.07422 -1.14301,-7.19637 -1.15235,-12.95312 -1.15235,-12.95312 v -13.08594 l -13.07617,0.47852 c -35.86305,1.31324 -59.2525,-18.8443 -70.77734,-38.66993 -5.76242,-9.91281 -7.93131,-19.85068 -7.60938,-24.375 0.0435,-0.61104 0.13064,-0.78289 0.21094,-1.14062 31.87696,4.95329 64.04284,-3.50266 91.82226,-9.61719 28.27063,-6.22264 50.63695,-8.659 61.62696,-1.33398 L 430.82227,496.875 c -11.6437,-7.76072 -24.69948,-9.92465 -38.44727,-9.35547 z m -130.68555,41.09961 c 0.20759,0.0354 0.41544,0.04 0.62305,0.0742 0.0625,0.0101 0.0435,0.0212 0.13672,0.0312 z"
     id="path7475"
     inkscape:connector-curvature="0" />
  <path
     style="color:#000000;font-style:normal;font-variant:normal;font-weight:normal;font-stretch:normal;font-size:medium;line-height:normal;font-family:sans-serif;font-variant-ligatures:normal;font-variant-position:normal;font-variant-caps:normal;font-variant-numeric:normal;font-variant-alternates:normal;font-feature-settings:normal;text-indent:0;text-align:start;text-decoration:none;text-decoration-line:none;text-decoration-style:solid;text-decoration-color:#000000;letter-spacing:normal;word-spacing:normal;text-transform:none;writing-mode:lr-tb;direction:ltr;text-orientation:mixed;dominant-baseline:auto;baseline-shift:baseline;text-anchor:start;white-space:normal;shape-padding:0;clip-rule:nonzero;display:inline;overflow:visible;visibility:visible;opacity:1;isolation:auto;mix-blend-mode:normal;color-interpolation:sRGB;color-interpolation-filters:linearRGB;solid-color:#000000;solid-opacity:1;vector-effect:none;fill:#000000;fill-opacity:1;fill-rule:nonzero;stroke:none;stroke-width:25.22925758;stroke-linecap:butt;stroke-linejoin:miter;stroke-miterlimit:4;stroke-dasharray:none;stroke-dashoffset:0;stroke-opacity:1;color-rendering:auto;image-rendering:auto;shape-rendering:auto;text-rendering:auto;enable-background:accumulate"
     d="m 355.58984,653.20508 -18.07422,17.59961 c 0,0 2.34644,2.43268 4.6875,5.70898 2.34107,3.2763 3.56251,7.68648 3.5625,6.44922 v 13.12695 l 13.11719,-0.52343 c 0,0 4.22501,-0.11059 9.08985,1.32812 4.86484,1.43872 8.55331,3.51139 10.38476,8.24414 l 23.5293,-9.10351 c -5.36765,-13.8708 -17.55167,-20.61139 -26.75781,-23.33399 -2.34814,-0.69443 -4.60855,-1.1787 -6.69141,-1.52734 -1.65667,-3.67938 -3.81529,-6.68064 -5.70703,-9.32813 -3.57239,-4.99953 -7.14063,-8.64062 -7.14063,-8.64062 z"
     id="path7477"
     inkscape:connector-curvature="0" />
  <path
     style="color:#000000;font-style:normal;font-variant:normal;font-weight:normal;font-stretch:normal;font-size:medium;line-height:normal;font-family:sans-serif;font-variant-ligatures:normal;font-variant-position:normal;font-variant-caps:normal;font-variant-numeric:normal;font-variant-alternates:normal;font-feature-settings:normal;text-indent:0;text-align:start;text-decoration:none;text-decoration-line:none;text-decoration-style:solid;text-decoration-color:#000000;letter-spacing:normal;word-spacing:normal;text-transform:none;writing-mode:lr-tb;direction:ltr;text-orientation:mixed;dominant-baseline:auto;baseline-shift:baseline;text-anchor:start;white-space:normal;shape-padding:0;clip-rule:nonzero;display:inline;overflow:visible;visibility:visible;opacity:1;isolation:auto;mix-blend-mode:normal;color-interpolation:sRGB;color-interpolation-filters:linearRGB;solid-color:#000000;solid-opacity:1;vector-effect:none;fill:#000000;fill-opacity:1;fill-rule:nonzero;stroke:none;stroke-width:18.92194176;stroke-linecap:butt;stroke-linejoin:miter;stroke-miterlimit:4;stroke-dasharray:none;stroke-dashoffset:0;stroke-opacity:1;color-rendering:auto;image-rendering:auto;shape-rendering:auto;text-rendering:auto;enable-background:accumulate"
     d="m 398.3418,566.8457 c -16.56138,20.43033 -30.56709,27.18421 -39.89453,29.4336 -4.66373,1.12469 -8.22754,1.1128 -10.50782,0.89062 -2.28028,-0.22218 -2.6289,-0.42969 -2.6289,-0.42969 l -6.58399,17.74024 c 0,0 3.21408,1.11587 7.37696,1.52148 4.16287,0.40561 9.92122,0.32575 16.77929,-1.32812 13.71614,-3.30775 31.54857,-12.95698 50.15821,-35.91406 z"
     id="path8048"
     inkscape:connector-curvature="0" />
  <path
     style="color:#000000;font-style:normal;font-variant:normal;font-weight:normal;font-stretch:normal;font-size:medium;line-height:normal;font-family:sans-serif;font-variant-ligatures:normal;font-variant-position:normal;font-variant-caps:normal;font-variant-numeric:normal;font-variant-alternates:normal;font-feature-settings:normal;text-indent:0;text-align:start;text-decoration:none;text-decoration-line:none;text-decoration-style:solid;text-decoration-color:#000000;letter-spacing:normal;word-spacing:normal;text-transform:none;writing-mode:lr-tb;direction:ltr;text-orientation:mixed;dominant-baseline:auto;baseline-shift:baseline;text-anchor:start;white-space:normal;shape-padding:0;clip-rule:nonzero;display:inline;overflow:visible;visibility:visible;opacity:1;isolation:auto;mix-blend-mode:normal;color-interpolation:sRGB;color-interpolation-filters:linearRGB;solid-color:#000000;solid-opacity:1;vector-effect:none;fill:#000000;fill-opacity:1;fill-rule:nonzero;stroke:none;stroke-width:18.92194176;stroke-linecap:butt;stroke-linejoin:miter;stroke-miterlimit:4;stroke-dasharray:none;stroke-dashoffset:0;stroke-opacity:1;color-rendering:auto;image-rendering:auto;shape-rendering:auto;text-rendering:auto;enable-background:accumulate"
     d="m 356.30664,636.11914 -7.63476,17.31445 c 0,0 30.63338,13.94937 61.80664,0.0117 l -7.72266,-17.27539 c -22.50883,10.06376 -46.44922,-0.0508 -46.44922,-0.0508 z"
     id="path8050"
     inkscape:connector-curvature="0" />
  <path
     style="color:#000000;font-style:normal;font-variant:normal;font-weight:normal;font-stretch:normal;font-size:medium;line-height:normal;font-family:sans-serif;font-variant-ligatures:normal;font-variant-position:normal;font-variant-caps:normal;font-variant-numeric:normal;font-variant-alternates:normal;font-feature-settings:normal;text-indent:0;text-align:start;text-decoration:none;text-decoration-line:none;text-decoration-style:solid;text-decoration-color:#000000;letter-spacing:normal;word-spacing:normal;text-transform:none;writing-mode:lr-tb;direction:ltr;text-orientation:mixed;dominant-baseline:auto;baseline-shift:baseline;text-anchor:start;white-space:normal;shape-padding:0;clip-rule:nonzero;display:inline;overflow:visible;visibility:visible;opacity:1;isolation:auto;mix-blend-mode:normal;color-interpolation:sRGB;color-interpolation-filters:linearRGB;solid-color:#000000;solid-opacity:1;vector-effect:none;fill:#000000;fill-opacity:1;fill-rule:nonzero;stroke:none;stroke-width:18.92194176;stroke-linecap:butt;stroke-linejoin:miter;stroke-miterlimit:4;stroke-dasharray:none;stroke-dashoffset:0;stroke-opacity:1;color-rendering:auto;image-rendering:auto;shape-rendering:auto;text-rendering:auto;enable-background:accumulate"
     d="m 172.72656,819.96289 -17.20898,7.86523 c 29.80951,65.21793 76.52922,92.38736 115.27148,102.16993 38.74226,9.78256 70.29492,2.83789 70.29492,2.83789 l -4.06445,-18.48047 c 0,0 -27.22123,5.97705 -61.59765,-2.70313 -34.37643,-8.68017 -75.12056,-31.36078 -102.69532,-91.68945 z"
     id="path8052"
     inkscape:connector-curvature="0" />
  <path
     style="color:#000000;font-style:normal;font-variant:normal;font-weight:normal;font-stretch:normal;font-size:medium;line-height:normal;font-family:sans-serif;font-variant-ligatures:normal;font-variant-position:normal;font-variant-caps:normal;font-variant-numeric:normal;font-variant-alternates:normal;font-feature-settings:normal;text-indent:0;text-align:start;text-decoration:none;text-decoration-line:none;text-decoration-style:solid;text-decoration-color:#000000;letter-spacing:normal;word-spacing:normal;text-transform:none;writing-mode:lr-tb;direction:ltr;text-orientation:mixed;dominant-baseline:auto;baseline-shift:baseline;text-anchor:start;white-space:normal;shape-padding:0;clip-rule:nonzero;display:inline;overflow:visible;visibility:visible;opacity:1;isolation:auto;mix-blend-mode:normal;color-interpolation:sRGB;color-interpolation-filters:linearRGB;solid-color:#000000;solid-opacity:1;vector-effect:none;fill:#000000;fill-opacity:1;fill-rule:nonzero;stroke:none;stroke-width:18.92194176;stroke-linecap:butt;stroke-linejoin:miter;stroke-miterlimit:4;stroke-dasharray:none;stroke-dashoffset:0;stroke-opacity:1;color-rendering:auto;image-rendering:auto;shape-rendering:auto;text-rendering:auto;enable-background:accumulate"
     d="m 141.39844,901.79492 c -26.12969,39.90664 -77.150393,29.15625 -77.150393,29.15625 L 60.375,949.47266 c 0,0 63.74783,13.24824 96.85352,-37.3125 z"
     id="path8056"
     inkscape:connector-curvature="0" />
  <path
     style="color:#000000;font-style:normal;font-variant:normal;font-weight:normal;font-stretch:normal;font-size:medium;line-height:normal;font-family:sans-serif;font-variant-ligatures:normal;font-variant-position:normal;font-variant-caps:normal;font-variant-numeric:normal;font-variant-alternates:normal;font-feature-settings:normal;text-indent:0;text-align:start;text-decoration:none;text-decoration-line:none;text-decoration-style:solid;text-decoration-color:#000000;letter-spacing:normal;word-spacing:normal;text-transform:none;writing-mode:lr-tb;direction:ltr;text-orientation:mixed;dominant-baseline:auto;baseline-shift:baseline;text-anchor:start;white-space:normal;shape-padding:0;clip-rule:nonzero;display:inline;overflow:visible;visibility:visible;opacity:1;isolation:auto;mix-blend-mode:normal;color-interpolation:sRGB;color-interpolation-filters:linearRGB;solid-color:#000000;solid-opacity:1;vector-effect:none;fill:#000000;fill-opacity:1;fill-rule:nonzero;stroke:none;stroke-width:18.92194176;stroke-linecap:butt;stroke-linejoin:miter;stroke-miterlimit:4;stroke-dasharray:none;stroke-dashoffset:0;stroke-opacity:1;color-rendering:auto;image-rendering:auto;shape-rendering:auto;text-rendering:auto;enable-background:accumulate"
     d="m 283.2168,580.47266 c -25.91997,8.91498 -52.09384,30.6847 -78.48633,54.41406 -26.39249,23.72936 -52.73863,49.64327 -75.89453,66.96484 l 11.33594,15.15235 c 24.85278,-18.59092 51.27322,-44.72815 77.20898,-68.04688 25.93576,-23.31872 51.65051,-43.5961 71.99023,-50.5918 z"
     id="path8058"
     inkscape:connector-curvature="0" />
  <path
     style="color:#000000;font-style:normal;font-variant:normal;font-weight:normal;font-stretch:normal;font-size:medium;line-height:normal;font-family:sans-serif;font-variant-ligatures:normal;font-variant-position:normal;font-variant-caps:normal;font-variant-numeric:normal;font-variant-alternates:normal;font-feature-settings:normal;text-indent:0;text-align:start;text-decoration:none;text-decoration-line:none;text-decoration-style:solid;text-decoration-color:#000000;letter-spacing:normal;word-spacing:normal;text-transform:none;writing-mode:lr-tb;direction:ltr;text-orientation:mixed;dominant-baseline:auto;baseline-shift:baseline;text-anchor:start;white-space:normal;shape-padding:0;clip-rule:nonzero;display:inline;overflow:visible;visibility:visible;opacity:1;isolation:auto;mix-blend-mode:normal;color-interpolation:sRGB;color-interpolation-filters:linearRGB;solid-color:#000000;solid-opacity:1;vector-effect:none;fill:#000000;fill-opacity:1;fill-rule:nonzero;stroke:none;stroke-width:18.92194176;stroke-linecap:butt;stroke-linejoin:miter;stroke-miterlimit:4;stroke-dasharray:none;stroke-dashoffset:0;stroke-opacity:1;color-rendering:auto;image-rendering:auto;shape-rendering:auto;text-rendering:auto;enable-background:accumulate"
     d="m 290.2207,603.92773 c -14.22197,23.6416 -41.60441,51.97599 -68.64258,81.41993 -27.03816,29.44394 -53.87631,60.03473 -67.10351,91.49414 l 17.44336,7.33398 c 11.31336,-26.90757 36.81674,-56.86549 63.59765,-86.0293 26.78092,-29.1638 54.69536,-57.49753 70.91797,-84.46484 z"
     id="path8060"
     inkscape:connector-curvature="0" />
  <path
     style="color:#000000;font-style:normal;font-variant:normal;font-weight:normal;font-stretch:normal;font-size:medium;line-height:normal;font-family:sans-serif;font-variant-ligatures:normal;font-variant-position:normal;font-variant-caps:normal;font-variant-numeric:normal;font-variant-alternates:normal;font-feature-settings:normal;text-indent:0;text-align:start;text-decoration:none;text-decoration-line:none;text-decoration-style:solid;text-decoration-color:#000000;letter-spacing:normal;word-spacing:normal;text-transform:none;writing-mode:lr-tb;direction:ltr;text-orientation:mixed;dominant-baseline:auto;baseline-shift:baseline;text-anchor:start;white-space:normal;shape-padding:0;clip-rule:nonzero;display:inline;overflow:visible;visibility:visible;opacity:1;isolation:auto;mix-blend-mode:normal;color-interpolation:sRGB;color-interpolation-filters:linearRGB;solid-color:#000000;solid-opacity:1;vector-effect:none;fill:#000000;fill-opacity:1;fill-rule:nonzero;stroke:none;stroke-width:18.92194176;stroke-linecap:butt;stroke-linejoin:miter;stroke-miterlimit:4;stroke-dasharray:none;stroke-dashoffset:0;stroke-opacity:1;color-rendering:auto;image-rendering:auto;shape-rendering:auto;text-rendering:auto;enable-background:accumulate"
     d="M 213.59766,559.07227 C 144.7467,616.44314 40.53125,598.57031 40.53125,598.57031 l -3.353516,18.62305 c 0,0 111.146786,20.89916 188.533206,-43.58398 z"
     id="path8062"
     inkscape:connector-curvature="0" />
  <path
     style="color:#000000;font-style:normal;font-variant:normal;font-weight:normal;font-stretch:normal;font-size:medium;line-height:normal;font-family:sans-serif;font-variant-ligatures:normal;font-variant-position:normal;font-variant-caps:normal;font-variant-numeric:normal;font-variant-alternates:normal;font-feature-settings:normal;text-indent:0;text-align:start;text-decoration:none;text-decoration-line:none;text-decoration-style:solid;text-decoration-color:#000000;letter-spacing:normal;word-spacing:normal;text-transform:none;writing-mode:lr-tb;direction:ltr;text-orientation:mixed;dominant-baseline:auto;baseline-shift:baseline;text-anchor:start;white-space:normal;shape-padding:0;clip-rule:nonzero;display:inline;overflow:visible;visibility:visible;opacity:1;isolation:auto;mix-blend-mode:normal;color-interpolation:sRGB;color-interpolation-filters:linearRGB;solid-color:#000000;solid-opacity:1;vector-effect:none;fill:#000000;fill-opacity:1;fill-rule:nonzero;stroke:none;stroke-width:18.92194176;stroke-linecap:butt;stroke-linejoin:miter;stroke-miterlimit:4;stroke-dasharray:none;stroke-dashoffset:0;stroke-opacity:1;color-rendering:auto;image-rendering:auto;shape-rendering:auto;text-rendering:auto;enable-background:accumulate"
     d="m 347.70703,515.92773 -18.26367,4.95118 c 3.56345,13.14739 1.38792,20.64836 -3.03125,26.3125 -4.41917,5.66414 -12.31853,9.78172 -21.76953,11.77148 -9.45101,1.98976 -20.16207,1.77087 -28.53125,-0.0176 -8.36918,-1.78845 -13.68694,-5.96809 -13.90821,-6.37304 l -16.60546,9.07421 c 5.32705,9.74955 15.43075,13.42478 26.55859,15.80274 11.12784,2.37796 23.99003,2.63882 36.38477,0.0293 12.39473,-2.60952 24.61376,-8.16999 32.78906,-18.64844 8.1753,-10.47845 11.07028,-25.58623 6.37695,-42.90235 z"
     id="path8068"
     inkscape:connector-curvature="0" />
  <path
     style="color:#000000;font-style:normal;font-variant:normal;font-weight:normal;font-stretch:normal;font-size:medium;line-height:normal;font-family:sans-serif;font-variant-ligatures:normal;font-variant-position:normal;font-variant-caps:normal;font-variant-numeric:normal;font-variant-alternates:normal;font-feature-settings:normal;text-indent:0;text-align:start;text-decoration:none;text-decoration-line:none;text-decoration-style:solid;text-decoration-color:#000000;letter-spacing:normal;word-spacing:normal;text-transform:none;writing-mode:lr-tb;direction:ltr;text-orientation:mixed;dominant-baseline:auto;baseline-shift:baseline;text-anchor:start;white-space:normal;shape-padding:0;clip-rule:nonzero;display:inline;overflow:visible;visibility:visible;opacity:1;isolation:auto;mix-blend-mode:normal;color-interpolation:sRGB;color-interpolation-filters:linearRGB;solid-color:#000000;solid-opacity:1;vector-effect:none;fill:#000000;fill-opacity:1;fill-rule:nonzero;stroke:none;stroke-width:12.61462879;stroke-linecap:butt;stroke-linejoin:miter;stroke-miterlimit:4;stroke-dasharray:none;stroke-dashoffset:0;stroke-opacity:1;color-rendering:auto;image-rendering:auto;shape-rendering:auto;text-rendering:auto;enable-background:accumulate"
     d="m 217.16602,415.48633 -86.89649,25.32812 -93.312499,53.5918 6.28125,10.9375 92.007809,-52.83984 83.19532,-24.25 85.34375,7.24414 103.22265,25.19336 2.99024,-12.25586 -104.17188,-25.42383 z"
     id="path8072"
     inkscape:connector-curvature="0" />
  <path
     style="color:#000000;font-style:normal;font-variant:normal;font-weight:normal;font-stretch:normal;font-size:medium;line-height:normal;font-family:sans-serif;font-variant-ligatures:normal;font-variant-position:normal;font-variant-caps:normal;font-variant-numeric:normal;font-variant-alternates:normal;font-feature-settings:normal;text-indent:0;text-align:start;text-decoration:none;text-decoration-line:none;text-decoration-style:solid;text-decoration-color:#000000;letter-spacing:normal;word-spacing:normal;text-transform:none;writing-mode:lr-tb;direction:ltr;text-orientation:mixed;dominant-baseline:auto;baseline-shift:baseline;text-anchor:start;white-space:normal;shape-padding:0;clip-rule:nonzero;display:inline;overflow:visible;visibility:visible;opacity:1;isolation:auto;mix-blend-mode:normal;color-interpolation:sRGB;color-interpolation-filters:linearRGB;solid-color:#000000;solid-opacity:1;vector-effect:none;fill:#000000;fill-opacity:1;fill-rule:nonzero;stroke:none;stroke-width:12.61462879;stroke-linecap:butt;stroke-linejoin:miter;stroke-miterlimit:4;stroke-dasharray:none;stroke-dashoffset:0;stroke-opacity:1;color-rendering:auto;image-rendering:auto;shape-rendering:auto;text-rendering:auto;enable-background:accumulate"
     d="m 103.39258,341.46094 c -17.266845,0.0352 -32.256713,3.59459 -48.607424,15.74609 l 7.525391,10.125 C 76.799674,356.56402 87.67019,354.10629 103.41797,354.07422 Z"
     id="path8074"
     inkscape:connector-curvature="0" />
  <path
     style="color:#000000;font-style:normal;font-variant:normal;font-weight:normal;font-stretch:normal;font-size:medium;line-height:normal;font-family:sans-serif;font-variant-ligatures:normal;font-variant-position:normal;font-variant-caps:normal;font-variant-numeric:normal;font-variant-alternates:normal;font-feature-settings:normal;text-indent:0;text-align:start;text-decoration:none;text-decoration-line:none;text-decoration-style:solid;text-decoration-color:#000000;letter-spacing:normal;word-spacing:normal;text-transform:none;writing-mode:lr-tb;direction:ltr;text-orientation:mixed;dominant-baseline:auto;baseline-shift:baseline;text-anchor:start;white-space:normal;shape-padding:0;clip-rule:nonzero;display:inline;overflow:visible;visibility:visible;opacity:1;isolation:auto;mix-blend-mode:normal;color-interpolation:sRGB;color-interpolation-filters:linearRGB;solid-color:#000000;solid-opacity:1;vector-effect:none;fill:#000000;fill-opacity:1;fill-rule:nonzero;stroke:none;stroke-width:12.61462879;stroke-linecap:butt;stroke-linejoin:miter;stroke-miterlimit:4;stroke-dasharray:none;stroke-dashoffset:0;stroke-opacity:1;color-rendering:auto;image-rendering:auto;shape-rendering:auto;text-rendering:auto;enable-background:accumulate"
     d="m 179.18555,280.39453 c -12.36871,0.0432 -24.31122,2.85627 -37.61524,10.36914 l 6.20313,10.98438 c 15.71909,-8.87668 26.81259,-9.95781 42.4414,-8.02539 l 1.54883,-12.51954 c -4.2841,-0.5297 -8.45522,-0.82298 -12.57812,-0.80859 z"
     id="path8074-3"
     inkscape:connector-curvature="0" />
  <path
     style="color:#000000;font-style:normal;font-variant:normal;font-weight:normal;font-stretch:normal;font-size:medium;line-height:normal;font-family:sans-serif;font-variant-ligatures:normal;font-variant-position:normal;font-variant-caps:normal;font-variant-numeric:normal;font-variant-alternates:normal;font-feature-settings:normal;text-indent:0;text-align:start;text-decoration:none;text-decoration-line:none;text-decoration-style:solid;text-decoration-color:#000000;letter-spacing:normal;word-spacing:normal;text-transform:none;writing-mode:lr-tb;direction:ltr;text-orientation:mixed;dominant-baseline:auto;baseline-shift:baseline;text-anchor:start;white-space:normal;shape-padding:0;clip-rule:nonzero;display:inline;overflow:visible;visibility:visible;opacity:1;isolation:auto;mix-blend-mode:normal;color-interpolation:sRGB;color-interpolation-filters:linearRGB;solid-color:#000000;solid-opacity:1;vector-effect:none;fill:#000000;fill-opacity:1;fill-rule:nonzero;stroke:none;stroke-width:12.61462879;stroke-linecap:butt;stroke-linejoin:miter;stroke-miterlimit:4;stroke-dasharray:none;stroke-dashoffset:0;stroke-opacity:1;color-rendering:auto;image-rendering:auto;shape-rendering:auto;text-rendering:auto;enable-background:accumulate"
     d="m 261.42188,262.50977 c -10.26178,-0.26891 -20.66666,1.60484 -32.36915,6.62109 l 4.96875,11.59375 c 16.5922,-7.11222 27.73706,-6.97824 43.0625,-3.35547 l 2.90235,-12.27539 c -6.30142,-1.48959 -12.40739,-2.42264 -18.56445,-2.58398 z"
     id="path8074-2"
     inkscape:connector-curvature="0" />
  <path
     style="color:#000000;font-style:normal;font-variant:normal;font-weight:normal;font-stretch:normal;font-size:medium;line-height:normal;font-family:sans-serif;font-variant-ligatures:normal;font-variant-position:normal;font-variant-caps:normal;font-variant-numeric:normal;font-variant-alternates:normal;font-feature-settings:normal;text-indent:0;text-align:start;text-decoration:none;text-decoration-line:none;text-decoration-style:solid;text-decoration-color:#000000;letter-spacing:normal;word-spacing:normal;text-transform:none;writing-mode:lr-tb;direction:ltr;text-orientation:mixed;dominant-baseline:auto;baseline-shift:baseline;text-anchor:start;white-space:normal;shape-padding:0;clip-rule:nonzero;display:inline;overflow:visible;visibility:visible;opacity:1;isolation:auto;mix-blend-mode:normal;color-interpolation:sRGB;color-interpolation-filters:linearRGB;solid-color:#000000;solid-opacity:1;vector-effect:none;fill:#000000;fill-opacity:1;fill-rule:nonzero;stroke:none;stroke-width:12.61462879;stroke-linecap:butt;stroke-linejoin:miter;stroke-miterlimit:4;stroke-dasharray:none;stroke-dashoffset:0;stroke-opacity:1;color-rendering:auto;image-rendering:auto;shape-rendering:auto;text-rendering:auto;enable-background:accumulate"
     d="m 347.51758,296.7832 c -8.30755,0.0683 -16.93303,1.62299 -26.49219,5.14063 l 4.35547,11.83789 c 16.94163,-6.2343 28.06479,-5.51931 43.17969,-1.09961 l 3.54101,-12.10742 c -8.28645,-2.42302 -16.27643,-3.83974 -24.58398,-3.77149 z"
     id="path8074-6"
     inkscape:connector-curvature="0" />
  <path
     style="color:#000000;font-style:normal;font-variant:normal;font-weight:normal;font-stretch:normal;font-size:medium;line-height:normal;font-family:sans-serif;font-variant-ligatures:normal;font-variant-position:normal;font-variant-caps:normal;font-variant-numeric:normal;font-variant-alternates:normal;font-feature-settings:normal;text-indent:0;text-align:start;text-decoration:none;text-decoration-line:none;text-decoration-style:solid;text-decoration-color:#000000;letter-spacing:normal;word-spacing:normal;text-transform:none;writing-mode:lr-tb;direction:ltr;text-orientation:mixed;dominant-baseline:auto;baseline-shift:baseline;text-anchor:start;white-space:normal;shape-padding:0;clip-rule:nonzero;display:inline;overflow:visible;visibility:visible;opacity:1;isolation:auto;mix-blend-mode:normal;color-interpolation:sRGB;color-interpolation-filters:linearRGB;solid-color:#000000;solid-opacity:1;vector-effect:none;fill:#000000;fill-opacity:1;fill-rule:nonzero;stroke:none;stroke-width:8.85149097;stroke-linecap:butt;stroke-linejoin:miter;stroke-miterlimit:4;stroke-dasharray:none;stroke-dashoffset:0;stroke-opacity:1;color-rendering:auto;image-rendering:auto;shape-rendering:auto;text-rendering:auto;enable-background:accumulate"
     d="m 102.68359,258.79297 c -14.03537,0.0108 -26.0123,1.97439 -40.351559,9.06641 l 3.925781,7.93554 c 13.217244,-6.53708 23.163615,-8.14014 36.431638,-8.15039 z"
     id="path8074-7"
     inkscape:connector-curvature="0" />
  <path
     style="color:#000000;font-style:normal;font-variant:normal;font-weight:normal;font-stretch:normal;font-size:medium;line-height:normal;font-family:sans-serif;font-variant-ligatures:normal;font-variant-position:normal;font-variant-caps:normal;font-variant-numeric:normal;font-variant-alternates:normal;font-feature-settings:normal;text-indent:0;text-align:start;text-decoration:none;text-decoration-line:none;text-decoration-style:solid;text-decoration-color:#000000;letter-spacing:normal;word-spacing:normal;text-transform:none;writing-mode:lr-tb;direction:ltr;text-orientation:mixed;dominant-baseline:auto;baseline-shift:baseline;text-anchor:start;white-space:normal;shape-padding:0;clip-rule:nonzero;display:inline;overflow:visible;visibility:visible;opacity:1;isolation:auto;mix-blend-mode:normal;color-interpolation:sRGB;color-interpolation-filters:linearRGB;solid-color:#000000;solid-opacity:1;vector-effect:none;fill:#000000;fill-opacity:1;fill-rule:nonzero;stroke:none;stroke-width:12.61462879;stroke-linecap:butt;stroke-linejoin:miter;stroke-miterlimit:4;stroke-dasharray:none;stroke-dashoffset:0;stroke-opacity:1;color-rendering:auto;image-rendering:auto;shape-rendering:auto;text-rendering:auto;enable-background:accumulate"
     d="m 168.05664,161.14258 c -10.26374,0.17889 -20.57819,2.50548 -32.05078,8.02734 l 5.4707,11.36719 c 16.26625,-7.82909 27.40614,-8.18337 42.875,-5.23242 l 2.36524,-12.39063 c -6.36039,-1.21335 -12.50192,-1.87882 -18.66016,-1.77148 z"
     id="path8074-9"
     inkscape:connector-curvature="0" />
  <path
     style="color:#000000;font-style:normal;font-variant:normal;font-weight:normal;font-stretch:normal;font-size:medium;line-height:normal;font-family:sans-serif;font-variant-ligatures:normal;font-variant-position:normal;font-variant-caps:normal;font-variant-numeric:normal;font-variant-alternates:normal;font-feature-settings:normal;text-indent:0;text-align:start;text-decoration:none;text-decoration-line:none;text-decoration-style:solid;text-decoration-color:#000000;letter-spacing:normal;word-spacing:normal;text-transform:none;writing-mode:lr-tb;direction:ltr;text-orientation:mixed;dominant-baseline:auto;baseline-shift:baseline;text-anchor:start;white-space:normal;shape-padding:0;clip-rule:nonzero;display:inline;overflow:visible;visibility:visible;opacity:1;isolation:auto;mix-blend-mode:normal;color-interpolation:sRGB;color-interpolation-filters:linearRGB;solid-color:#000000;solid-opacity:1;vector-effect:none;fill:#000000;fill-opacity:1;fill-rule:nonzero;stroke:none;stroke-width:12.61462879;stroke-linecap:butt;stroke-linejoin:miter;stroke-miterlimit:4;stroke-dasharray:none;stroke-dashoffset:0;stroke-opacity:1;color-rendering:auto;image-rendering:auto;shape-rendering:auto;text-rendering:auto;enable-background:accumulate"
     d="m 243.64453,144.67969 c -8.30134,0.32837 -16.87405,2.15153 -26.31836,5.96679 l 4.72461,11.69727 c 16.73807,-6.76176 27.87719,-6.39541 43.12305,-2.45117 l 3.16015,-12.21289 c -8.35826,-2.16236 -16.38811,-3.32837 -24.68945,-3 z"
     id="path8074-67"
     inkscape:connector-curvature="0" />
  <path
     style="color:#000000;font-style:normal;font-variant:normal;font-weight:normal;font-stretch:normal;font-size:medium;line-height:normal;font-family:sans-serif;font-variant-ligatures:normal;font-variant-position:normal;font-variant-caps:normal;font-variant-numeric:normal;font-variant-alternates:normal;font-feature-settings:normal;text-indent:0;text-align:start;text-decoration:none;text-decoration-line:none;text-decoration-style:solid;text-decoration-color:#000000;letter-spacing:normal;word-spacing:normal;text-transform:none;writing-mode:lr-tb;direction:ltr;text-orientation:mixed;dominant-baseline:auto;baseline-shift:baseline;text-anchor:start;white-space:normal;shape-padding:0;clip-rule:nonzero;display:inline;overflow:visible;visibility:visible;opacity:1;isolation:auto;mix-blend-mode:normal;color-interpolation:sRGB;color-interpolation-filters:linearRGB;solid-color:#000000;solid-opacity:1;vector-effect:none;fill:#000000;fill-opacity:1;fill-rule:nonzero;stroke:none;stroke-width:12.61462879;stroke-linecap:butt;stroke-linejoin:miter;stroke-miterlimit:4;stroke-dasharray:none;stroke-dashoffset:0;stroke-opacity:1;color-rendering:auto;image-rendering:auto;shape-rendering:auto;text-rendering:auto;enable-background:accumulate"
     d="m 337.16406,198.21094 c -10.26474,-0.10662 -20.63999,1.93215 -32.26172,7.13281 l 5.15235,11.51367 c 16.47768,-7.37368 27.62311,-7.4171 43.0039,-4.03711 L 355.76758,200.5 c -6.32418,-1.38976 -12.44467,-2.22509 -18.60352,-2.28906 z"
     id="path8074-4"
     inkscape:connector-curvature="0" />
</svg>
