<?xml version="1.0" encoding="UTF-8" standalone="no"?>
<!-- Created with Inkscape (http://www.inkscape.org/) -->

<svg
   xmlns:dc="http://purl.org/dc/elements/1.1/"
   xmlns:cc="http://creativecommons.org/ns#"
   xmlns:rdf="http://www.w3.org/1999/02/22-rdf-syntax-ns#"
   xmlns:svg="http://www.w3.org/2000/svg"
   xmlns="http://www.w3.org/2000/svg"
   xmlns:sodipodi="http://sodipodi.sourceforge.net/DTD/sodipodi-0.dtd"
   xmlns:inkscape="http://www.inkscape.org/namespaces/inkscape"
   version="1.1"
   id="svg8101"
   width="1000"
   height="1000"
   viewBox="0 0 1000 1000"
   sodipodi:docname="C.svg"
   inkscape:version="0.92.4 (5da689c313, 2019-01-14)">
  <metadata
     id="metadata8107">
    <rdf:RDF>
      <cc:Work
         rdf:about="">
        <dc:format>image/svg+xml</dc:format>
        <dc:type
           rdf:resource="http://purl.org/dc/dcmitype/StillImage" />
        <dc:title />
      </cc:Work>
    </rdf:RDF>
  </metadata>
  <defs
     id="defs8105">
    <clipPath
       clipPathUnits="userSpaceOnUse"
       id="clipPath8113">
      <rect
         style="opacity:1;fill:#00000a;fill-opacity:0.04705882;stroke:#000000;stroke-width:10;stroke-miterlimit:4;stroke-dasharray:none;stroke-opacity:1"
         id="rect8115"
         width="990"
         height="990"
         x="5"
         y="5.0000048"
         transform="rotate(-90)" />
    </clipPath>
  </defs>
  <sodipodi:namedview
     pagecolor="#ffffff"
     bordercolor="#666666"
     borderopacity="1"
     objecttolerance="10"
     gridtolerance="10"
     guidetolerance="10"
     inkscape:pageopacity="0"
     inkscape:pageshadow="2"
     inkscape:window-width="1366"
     inkscape:window-height="715"
     id="namedview8103"
     showgrid="false"
     inkscape:zoom="0.27314815"
     inkscape:cx="446.36714"
     inkscape:cy="499.99774"
     inkscape:window-x="-8"
     inkscape:window-y="-8"
     inkscape:window-maximized="1"
     inkscape:current-layer="svg8101" />
  <path
     style="color:#000000;font-style:normal;font-variant:normal;font-weight:normal;font-stretch:normal;font-size:medium;line-height:normal;font-family:sans-serif;font-variant-ligatures:normal;font-variant-position:normal;font-variant-caps:normal;font-variant-numeric:normal;font-variant-alternates:normal;font-feature-settings:normal;text-indent:0;text-align:start;text-decoration:none;text-decoration-line:none;text-decoration-style:solid;text-decoration-color:#000000;letter-spacing:normal;word-spacing:normal;text-transform:none;writing-mode:lr-tb;direction:ltr;text-orientation:mixed;dominant-baseline:auto;baseline-shift:baseline;text-anchor:start;white-space:normal;shape-padding:0;clip-rule:nonzero;display:inline;overflow:visible;visibility:visible;opacity:1;isolation:auto;mix-blend-mode:normal;color-interpolation:sRGB;color-interpolation-filters:linearRGB;solid-color:#000000;solid-opacity:1;vector-effect:none;fill:#000000;fill-opacity:1;fill-rule:nonzero;stroke:none;stroke-width:25.63030815;stroke-linecap:butt;stroke-linejoin:miter;stroke-miterlimit:4;stroke-dasharray:none;stroke-dashoffset:0;stroke-opacity:1;color-rendering:auto;image-rendering:auto;shape-rendering:auto;text-rendering:auto;enable-background:accumulate"
     d="m 707.55273,944.2168 -25.47461,2.83008 c 0.29568,2.66111 0.72157,16.88264 0.85352,28.89062 0.13195,12.00798 0.13281,22.84766 0.13281,22.84766 h 25.62891 c 0,0 10e-4,-10.95177 -0.13281,-23.12891 -0.13382,-12.17714 -0.24043,-24.53283 -1.00782,-31.43945 z"
     id="path8119"
     inkscape:connector-curvature="0" />
  <path
     style="color:#000000;font-style:normal;font-variant:normal;font-weight:normal;font-stretch:normal;font-size:medium;line-height:normal;font-family:sans-serif;font-variant-ligatures:normal;font-variant-position:normal;font-variant-caps:normal;font-variant-numeric:normal;font-variant-alternates:normal;font-feature-settings:normal;text-indent:0;text-align:start;text-decoration:none;text-decoration-line:none;text-decoration-style:solid;text-decoration-color:#000000;letter-spacing:normal;word-spacing:normal;text-transform:none;writing-mode:lr-tb;direction:ltr;text-orientation:mixed;dominant-baseline:auto;baseline-shift:baseline;text-anchor:start;white-space:normal;shape-padding:0;clip-rule:nonzero;display:inline;overflow:visible;visibility:visible;opacity:1;isolation:auto;mix-blend-mode:normal;color-interpolation:sRGB;color-interpolation-filters:linearRGB;solid-color:#000000;solid-opacity:1;vector-effect:none;fill:#000000;fill-opacity:1;fill-rule:nonzero;stroke:none;stroke-width:25.63030815;stroke-linecap:butt;stroke-linejoin:miter;stroke-miterlimit:4;stroke-dasharray:none;stroke-dashoffset:0;stroke-opacity:1;color-rendering:auto;image-rendering:auto;shape-rendering:auto;text-rendering:auto;enable-background:accumulate"
     d="M 148.53711,627.00586 C 97.597789,627.00332 63.764096,639.75726 41.488281,656.61328 5.846978,683.58291 1.9746094,720.83594 1.9746094,720.83594 l -0.089844,0.99023 0.064453,0.99414 c 1.1697457,18.01467 10.2882892,32.38514 22.0761722,41.65039 11.787882,9.26526 25.868883,14.24882 39.283203,17.28125 21.496886,4.85957 41.455056,4.60098 48.804686,4.30078 39.26624,19.55252 68.83243,29.6932 88.82227,34.76368 20.55688,5.2143 32.35742,5.23828 32.35742,5.23828 l -0.82227,-0.0176 c 114.88873,5.99705 187.44641,14.14351 232.53125,23.31641 45.08485,9.17289 61.50023,19.7486 66.4961,26.38281 44.0141,58.4479 114.10717,78.55557 171.9375,84.57422 57.83032,6.01864 105.14453,-2.04493 105.14453,-2.04493 l -4.28711,-25.26953 c 0,0 -44.13524,7.44954 -98.20508,1.82227 -54.06984,-5.62727 -116.32841,-24.32153 -154.11523,-74.5 -11.7694,-15.62906 -34.44284,-26.43434 -81.86133,-36.08203 -47.41849,-9.64769 -120.77749,-17.76455 -236.30469,-23.79492 l -0.41211,-0.0215 -0.41015,0.006 c 0,0 -7.19787,0.25168 -25.7461,-4.45312 -18.54823,-4.70481 -47.27827,-14.38679 -86.75195,-34.3086 l -3.15039,-1.58984 -3.52149,0.24805 c 0,0 -22.634164,1.45453 -44.853512,-3.56836 -11.109675,-2.51145 -21.787836,-6.68809 -29.097657,-12.4336 -7.080901,-5.56557 -11.281866,-11.91403 -12.1875,-22.23242 0.292114,-2.81642 3.303969,-25.38316 29.277344,-45.03711 27.688861,-20.95205 83.481615,-37.93346 196.710935,-9.5332 l 3.64258,0.91211 3.55859,-1.19531 c 1.44613,-0.48604 9.04104,-1.13249 19.53711,-0.63282 10.49608,0.49967 24.19552,1.59568 40.41407,2.11914 32.43709,1.04693 75.07789,-0.24314 124.87695,-13.26367 l -6.48438,-24.79687 c -46.74806,12.22281 -86.51662,13.44544 -117.56445,12.44336 -15.52391,-0.50105 -28.8375,-1.57101 -40.02344,-2.10352 -9.4819,-0.45139 -17.21246,-0.77436 -24.81836,0.93359 -42.67067,-10.4865 -78.4383,-14.92624 -108.26562,-14.92773 z"
     id="path8121"
     inkscape:connector-curvature="0" />
  <path
     style="color:#000000;font-style:normal;font-variant:normal;font-weight:normal;font-stretch:normal;font-size:medium;line-height:normal;font-family:sans-serif;font-variant-ligatures:normal;font-variant-position:normal;font-variant-caps:normal;font-variant-numeric:normal;font-variant-alternates:normal;font-feature-settings:normal;text-indent:0;text-align:start;text-decoration:none;text-decoration-line:none;text-decoration-style:solid;text-decoration-color:#000000;letter-spacing:normal;word-spacing:normal;text-transform:none;writing-mode:lr-tb;direction:ltr;text-orientation:mixed;dominant-baseline:auto;baseline-shift:baseline;text-anchor:start;white-space:normal;shape-padding:0;clip-rule:nonzero;display:inline;overflow:visible;visibility:visible;opacity:1;isolation:auto;mix-blend-mode:normal;color-interpolation:sRGB;color-interpolation-filters:linearRGB;solid-color:#000000;solid-opacity:1;vector-effect:none;fill:#000000;fill-opacity:1;fill-rule:nonzero;stroke:none;stroke-width:25.63030815;stroke-linecap:butt;stroke-linejoin:miter;stroke-miterlimit:4;stroke-dasharray:none;stroke-dashoffset:0;stroke-opacity:1;color-rendering:auto;image-rendering:auto;shape-rendering:auto;text-rendering:auto;enable-background:accumulate"
     d="m 353.62891,0.21484375 c -10.11955,-0.0756843 -19.65422,0.09375 -27.69141,0.09375 H 325.75 l -0.1875,0.005859 C 271.43208,1.906576 165.48022,25.633008 163.66992,26.039062 132.54429,28.463923 109.79139,55.275553 90.59375,80.443359 80.840039,93.230324 72.073784,106.11672 64.544922,116.33984 57.016059,126.56296 49.759335,134.12249 47.984375,135.1875 l -2.140625,1.28516 -1.501953,1.99218 c -17.540321,23.28062 -26.011229,43.08188 -25.726563,61.01758 0.284667,17.9357 11.628183,32.64729 26.513672,39.24219 27.226151,12.06234 64.897054,5.78225 99.822264,-13.71094 22.65221,23.63509 55.05167,30.61377 81.62695,31.875 19.97235,0.94786 36.878,-1.26699 46.25391,-2.84375 13.26692,13.73628 33.64801,22.64645 52.31836,30.58789 14.80298,6.29646 25.92219,10.17405 32.98242,12.54102 7.3505,40.95182 25.36736,69.8872 31.38867,78.75 -3.07855,38.45291 1.95035,68.2036 8.16016,88.58008 6.466,21.21714 14.7168,33.29297 14.7168,33.29297 l 0.21875,0.3125 0.23633,0.30078 c 25.18612,31.85379 36.5893,50.96176 41.44336,61.20312 1.89087,3.98949 2.6246,6.25438 3.01757,7.6836 -13.30541,27.98815 -27.07812,71.88671 -27.07812,71.88671 l 24.42969,7.75 c 0,0 15.60642,-48.50131 27.30664,-71.90234 l 0.63672,-1.27148 0.34179,-1.38086 c 0,0 0.4366,-2.4572 0.42578,-3.91016 -0.0108,-1.45296 -0.1789,-3.06218 -0.55078,-4.91602 -0.74375,-3.70767 -2.28452,-8.40985 -5.36914,-14.91796 -6.1309,-12.93534 -18.47303,-33.13064 -44.07422,-65.56641 -0.0509,-0.0709 -5.64773,-7.87012 -11.18359,-26.03516 -5.56108,-18.24777 -10.42656,-45.97953 -6.83203,-83.36328 l 0.47265,-4.91797 -2.95117,-3.96289 c 0,0 -24.37987,-33.00843 -30.65429,-79.02148 l -1.09961,-8.06641 -7.76954,-2.43164 c 0,0 -18.08539,-5.67275 -38.18164,-14.2207 -20.09624,-8.54795 -42.24386,-21.84268 -46.94726,-28.38672 l -4.97071,-6.91602 -8.30273,1.9043 c 0,0 -21.40184,4.85964 -47.16992,3.63672 -25.76808,-1.22292 -53.8229,-8.54179 -69.64844,-30.26367 l -7.10547,-9.75196 -10.16211,6.50391 c -31.86334,20.398 -69.302683,24.63397 -85.365231,17.51758 -8.031274,-3.5582 -11.127532,-7.27196 -11.269531,-16.21875 -0.139011,-8.75847 4.828187,-23.86926 19.666015,-43.91992 8.121914,-5.78152 14.113327,-13.89213 21.275391,-23.61719 7.97598,-10.83024 16.590546,-23.49166 25.789066,-35.550782 18.39704,-24.118236 39.42409,-43.670674 55.51953,-44.505859 l 1.06054,-0.05469 1.03711,-0.230469 c 0,0 109.98623,-23.836088 157.6543,-25.255859 16.68222,-0.0062 37.8203,-0.563258 56.18359,1.167969 18.4659,1.740901 33.04009,7.121925 36.5918,11.443359 L 438.82031,22.277344 C 426.10981,6.8122259 405.59379,3.5470063 384.83398,1.5898438 374.45408,0.61126248 363.74845,0.29052808 353.62891,0.21484375 Z"
     id="path8123"
     inkscape:connector-curvature="0" />
  <path
     style="color:#000000;font-style:normal;font-variant:normal;font-weight:normal;font-stretch:normal;font-size:medium;line-height:normal;font-family:sans-serif;font-variant-ligatures:normal;font-variant-position:normal;font-variant-caps:normal;font-variant-numeric:normal;font-variant-alternates:normal;font-feature-settings:normal;text-indent:0;text-align:start;text-decoration:none;text-decoration-line:none;text-decoration-style:solid;text-decoration-color:#000000;letter-spacing:normal;word-spacing:normal;text-transform:none;writing-mode:lr-tb;direction:ltr;text-orientation:mixed;dominant-baseline:auto;baseline-shift:baseline;text-anchor:start;white-space:normal;shape-padding:0;clip-rule:nonzero;display:inline;overflow:visible;visibility:visible;opacity:1;isolation:auto;mix-blend-mode:normal;color-interpolation:sRGB;color-interpolation-filters:linearRGB;solid-color:#000000;solid-opacity:1;vector-effect:none;fill:#000000;fill-opacity:1;fill-rule:nonzero;stroke:none;stroke-width:25.63030815;stroke-linecap:butt;stroke-linejoin:miter;stroke-miterlimit:4;stroke-dasharray:none;stroke-dashoffset:0;stroke-opacity:1;color-rendering:auto;image-rendering:auto;shape-rendering:auto;text-rendering:auto;enable-background:accumulate"
     d="m 438.81445,22.269531 -19.78906,16.28711 c 0,0 60.83808,73.894549 149.21094,207.224609 l 0.81055,1.22266 1.0664,1.00781 c 77.52356,73.32277 115.94465,120.65055 158.1582,180.22656 42.11996,59.44391 87.97707,131.23247 178.45508,251.09961 12.30631,24.80316 40.53665,58.54389 66.96875,108.24805 26.92479,50.63069 51.45459,116.00996 52.73629,197.58008 l 25.627,-0.40235 c -1.3593,-86.50732 -27.5355,-156.18445 -55.73438,-209.21094 -28.19888,-53.02649 -58.85063,-91.15861 -67.24219,-108.70507 l -0.55664,-1.16407 -0.77734,-1.02929 C 837.32676,544.91135 791.95118,473.77703 749.18555,413.42188 706.62624,353.35791 666.51475,304.0398 588.79492,230.42188 500.28778,97.00289 438.81445,22.269531 438.81445,22.269531 Z"
     id="path8125"
     inkscape:connector-curvature="0" />
  <path
     style="color:#000000;font-style:normal;font-variant:normal;font-weight:normal;font-stretch:normal;font-size:medium;line-height:normal;font-family:sans-serif;font-variant-ligatures:normal;font-variant-position:normal;font-variant-caps:normal;font-variant-numeric:normal;font-variant-alternates:normal;font-feature-settings:normal;text-indent:0;text-align:start;text-decoration:none;text-decoration-line:none;text-decoration-style:solid;text-decoration-color:#000000;letter-spacing:normal;word-spacing:normal;text-transform:none;writing-mode:lr-tb;direction:ltr;text-orientation:mixed;dominant-baseline:auto;baseline-shift:baseline;text-anchor:start;white-space:normal;shape-padding:0;clip-rule:nonzero;display:inline;overflow:visible;visibility:visible;opacity:1;isolation:auto;mix-blend-mode:normal;color-interpolation:sRGB;color-interpolation-filters:linearRGB;solid-color:#000000;solid-opacity:1;vector-effect:none;fill:#000000;fill-opacity:1;fill-rule:nonzero;stroke:none;stroke-width:25.63030815;stroke-linecap:butt;stroke-linejoin:miter;stroke-miterlimit:4;stroke-dasharray:none;stroke-dashoffset:0;stroke-opacity:1;color-rendering:auto;image-rendering:auto;shape-rendering:auto;text-rendering:auto;enable-background:accumulate"
     d="m 282.90625,35.072266 c -41.84071,-0.148083 -58.82258,7.777019 -83.45898,9.623046 l -1.30469,0.09766 -1.25781,0.359375 c -50.54278,14.441162 -80.71094,44.605469 -80.71094,44.605468 l -0.84961,0.84961 -0.67578,0.992187 c -2.87157,4.211753 -13.84751,12.157021 -24.458987,17.462891 -5.305739,2.65294 -10.519772,4.88414 -14.574219,6.43945 -4.054447,1.55532 -8.507052,2.51664 -6.3125,2.20313 l 3.623047,25.37304 c 4.825478,-0.68936 7.044208,-1.7956 11.869141,-3.64648 4.824933,-1.85088 10.699835,-4.36644 16.857418,-7.44531 11.7835,-5.8919 24.55866,-13.0292 33.00586,-24.42774 0.95407,-0.94285 25.69247,-25.074355 68.55078,-37.521481 44.49629,-3.81197 55.42025,-20.786645 184.36329,2.306641 l 2.12695,0.380859 2.13281,-0.335937 c 0,0 0.85392,-0.331963 5.64844,0.529297 4.79451,0.861259 12.32642,3.09669 22.09961,9.101562 19.54638,12.009745 48.21515,39.401549 79.04687,101.433589 l 22.95313,-11.4082 C 489.26952,107.03751 457.80154,75.421478 432.99805,60.181641 420.5963,52.561722 409.90201,49.110728 402.01172,47.693359 397.02521,46.797612 393.39667,46.797244 390.87305,46.910156 341.54462,38.128167 307.79566,35.160354 282.90625,35.072266 Z"
     id="path8129"
     inkscape:connector-curvature="0" />
  <path
     style="color:#000000;font-style:normal;font-variant:normal;font-weight:normal;font-stretch:normal;font-size:medium;line-height:normal;font-family:sans-serif;font-variant-ligatures:normal;font-variant-position:normal;font-variant-caps:normal;font-variant-numeric:normal;font-variant-alternates:normal;font-feature-settings:normal;text-indent:0;text-align:start;text-decoration:none;text-decoration-line:none;text-decoration-style:solid;text-decoration-color:#000000;letter-spacing:normal;word-spacing:normal;text-transform:none;writing-mode:lr-tb;direction:ltr;text-orientation:mixed;dominant-baseline:auto;baseline-shift:baseline;text-anchor:start;white-space:normal;shape-padding:0;clip-rule:nonzero;display:inline;overflow:visible;visibility:visible;opacity:1;isolation:auto;mix-blend-mode:normal;color-interpolation:sRGB;color-interpolation-filters:linearRGB;solid-color:#000000;solid-opacity:1;vector-effect:none;fill:#000000;fill-opacity:1;fill-rule:nonzero;stroke:none;stroke-width:25.63030815;stroke-linecap:butt;stroke-linejoin:miter;stroke-miterlimit:4;stroke-dasharray:none;stroke-dashoffset:0;stroke-opacity:1;color-rendering:auto;image-rendering:auto;shape-rendering:auto;text-rendering:auto;enable-background:accumulate"
     d="m 243.18164,106.9375 -25.41602,3.30664 c 5.45277,41.91924 -11.5957,60.43286 -30.76562,72.04883 -19.16992,11.61597 -40.22656,13.50195 -40.22656,13.50195 l 2.02734,25.54883 c 0,0 26.30046,-1.87309 51.48047,-17.13086 25.18001,-15.25777 49.47471,-46.73396 42.90039,-97.27539 z"
     id="path8133"
     inkscape:connector-curvature="0" />
  <path
     style="color:#000000;font-style:normal;font-variant:normal;font-weight:normal;font-stretch:normal;font-size:medium;line-height:normal;font-family:sans-serif;font-variant-ligatures:normal;font-variant-position:normal;font-variant-caps:normal;font-variant-numeric:normal;font-variant-alternates:normal;font-feature-settings:normal;text-indent:0;text-align:start;text-decoration:none;text-decoration-line:none;text-decoration-style:solid;text-decoration-color:#000000;letter-spacing:normal;word-spacing:normal;text-transform:none;writing-mode:lr-tb;direction:ltr;text-orientation:mixed;dominant-baseline:auto;baseline-shift:baseline;text-anchor:start;white-space:normal;shape-padding:0;clip-rule:nonzero;display:inline;overflow:visible;visibility:visible;opacity:1;isolation:auto;mix-blend-mode:normal;color-interpolation:sRGB;color-interpolation-filters:linearRGB;solid-color:#000000;solid-opacity:1;vector-effect:none;fill:#000000;fill-opacity:1;fill-rule:nonzero;stroke:none;stroke-width:25.63030815;stroke-linecap:butt;stroke-linejoin:miter;stroke-miterlimit:4;stroke-dasharray:none;stroke-dashoffset:0;stroke-opacity:1;color-rendering:auto;image-rendering:auto;shape-rendering:auto;text-rendering:auto;enable-background:accumulate"
     d="m 381.47852,127.83008 c -20.96493,13.26069 -31.91726,29.94519 -41.41993,40.39062 -9.50267,10.44543 -15.09648,15.48208 -33.4082,14.27735 -26.51218,-1.74425 -42.96045,-1.13374 -54.4043,-2.43164 -11.44384,-1.29791 -18.19661,-3.60304 -31.13867,-13.15821 l -15.22265,20.61914 c 15.33326,11.3206 28.79757,16.34149 43.47265,18.00586 14.67509,1.66438 30.2478,0.87234 55.61133,2.54102 25.34395,1.66738 42.47369,-9.88391 54.04883,-22.60742 11.57514,-12.72351 20.05428,-25.78807 36.16211,-35.97657 z"
     id="path8137"
     inkscape:connector-curvature="0" />
  <path
     style="color:#000000;font-style:normal;font-variant:normal;font-weight:normal;font-stretch:normal;font-size:medium;line-height:normal;font-family:sans-serif;font-variant-ligatures:normal;font-variant-position:normal;font-variant-caps:normal;font-variant-numeric:normal;font-variant-alternates:normal;font-feature-settings:normal;text-indent:0;text-align:start;text-decoration:none;text-decoration-line:none;text-decoration-style:solid;text-decoration-color:#000000;letter-spacing:normal;word-spacing:normal;text-transform:none;writing-mode:lr-tb;direction:ltr;text-orientation:mixed;dominant-baseline:auto;baseline-shift:baseline;text-anchor:start;white-space:normal;shape-padding:0;clip-rule:nonzero;display:inline;overflow:visible;visibility:visible;opacity:1;isolation:auto;mix-blend-mode:normal;color-interpolation:sRGB;color-interpolation-filters:linearRGB;solid-color:#000000;solid-opacity:1;vector-effect:none;fill:#000000;fill-opacity:1;fill-rule:nonzero;stroke:none;stroke-width:25.63030815;stroke-linecap:butt;stroke-linejoin:miter;stroke-miterlimit:4;stroke-dasharray:none;stroke-dashoffset:0;stroke-opacity:1;color-rendering:auto;image-rendering:auto;shape-rendering:auto;text-rendering:auto;enable-background:accumulate"
     d="m 334.27734,178.0293 c -4.59642,24.51469 5.75724,53.99626 23.14258,79.66797 17.38535,25.6717 43.59351,48.06351 75.63477,47.12109 l -0.75196,-25.61914 c -19.07381,0.56101 -39.20462,-14.5247 -53.66211,-35.87305 -14.45748,-21.34834 -21.44903,-48.42915 -19.17187,-60.57422 z"
     id="path8141"
     inkscape:connector-curvature="0" />
  <path
     style="color:#000000;font-style:normal;font-variant:normal;font-weight:normal;font-stretch:normal;font-size:medium;line-height:normal;font-family:sans-serif;font-variant-ligatures:normal;font-variant-position:normal;font-variant-caps:normal;font-variant-numeric:normal;font-variant-alternates:normal;font-feature-settings:normal;text-indent:0;text-align:start;text-decoration:none;text-decoration-line:none;text-decoration-style:solid;text-decoration-color:#000000;letter-spacing:normal;word-spacing:normal;text-transform:none;writing-mode:lr-tb;direction:ltr;text-orientation:mixed;dominant-baseline:auto;baseline-shift:baseline;text-anchor:start;white-space:normal;shape-padding:0;clip-rule:nonzero;display:inline;overflow:visible;visibility:visible;opacity:1;isolation:auto;mix-blend-mode:normal;color-interpolation:sRGB;color-interpolation-filters:linearRGB;solid-color:#000000;solid-opacity:1;vector-effect:none;fill:#000000;fill-opacity:1;fill-rule:nonzero;stroke:none;stroke-width:19.22273254;stroke-linecap:butt;stroke-linejoin:miter;stroke-miterlimit:4;stroke-dasharray:none;stroke-dashoffset:0;stroke-opacity:1;color-rendering:auto;image-rendering:auto;shape-rendering:auto;text-rendering:auto;enable-background:accumulate"
     d="m 534.9668,558.38086 c -29.12355,47.84689 -96.10157,75.76172 -96.10157,75.76172 l 7.17188,17.83398 c 0,0 71.33265,-27.71209 105.35156,-83.60156 z"
     id="path8143"
     inkscape:connector-curvature="0" />
  <path
     style="color:#000000;font-style:normal;font-variant:normal;font-weight:normal;font-stretch:normal;font-size:medium;line-height:normal;font-family:sans-serif;font-variant-ligatures:normal;font-variant-position:normal;font-variant-caps:normal;font-variant-numeric:normal;font-variant-alternates:normal;font-feature-settings:normal;text-indent:0;text-align:start;text-decoration:none;text-decoration-line:none;text-decoration-style:solid;text-decoration-color:#000000;letter-spacing:normal;word-spacing:normal;text-transform:none;writing-mode:lr-tb;direction:ltr;text-orientation:mixed;dominant-baseline:auto;baseline-shift:baseline;text-anchor:start;white-space:normal;shape-padding:0;clip-rule:nonzero;display:inline;overflow:visible;visibility:visible;opacity:1;isolation:auto;mix-blend-mode:normal;color-interpolation:sRGB;color-interpolation-filters:linearRGB;solid-color:#000000;solid-opacity:1;vector-effect:none;fill:#000000;fill-opacity:1;fill-rule:nonzero;stroke:none;stroke-width:19.22273254;stroke-linecap:butt;stroke-linejoin:miter;stroke-miterlimit:4;stroke-dasharray:none;stroke-dashoffset:0;stroke-opacity:1;color-rendering:auto;image-rendering:auto;shape-rendering:auto;text-rendering:auto;enable-background:accumulate"
     d="m 520.94727,479.17578 -18.68165,4.5293 c 0.60685,2.50322 -0.26269,9.92196 -3.52734,18.51562 -3.26465,8.59367 -8.37364,18.44978 -13.72266,27.60157 -10.69803,18.30356 -22.20507,33.72461 -22.20507,33.72461 l 15.40039,11.50585 c 0,0 12.0472,-16.1048 23.40039,-35.52929 5.67659,-9.71225 11.21871,-20.27099 15.0957,-30.47656 3.877,-10.20558 6.64024,-19.97106 4.24024,-29.8711 z"
     id="path8145"
     inkscape:connector-curvature="0" />
  <path
     style="color:#000000;font-style:normal;font-variant:normal;font-weight:normal;font-stretch:normal;font-size:medium;line-height:normal;font-family:sans-serif;font-variant-ligatures:normal;font-variant-position:normal;font-variant-caps:normal;font-variant-numeric:normal;font-variant-alternates:normal;font-feature-settings:normal;text-indent:0;text-align:start;text-decoration:none;text-decoration-line:none;text-decoration-style:solid;text-decoration-color:#000000;letter-spacing:normal;word-spacing:normal;text-transform:none;writing-mode:lr-tb;direction:ltr;text-orientation:mixed;dominant-baseline:auto;baseline-shift:baseline;text-anchor:start;white-space:normal;shape-padding:0;clip-rule:nonzero;display:inline;overflow:visible;visibility:visible;opacity:1;isolation:auto;mix-blend-mode:normal;color-interpolation:sRGB;color-interpolation-filters:linearRGB;solid-color:#000000;solid-opacity:1;vector-effect:none;fill:#000000;fill-opacity:1;fill-rule:nonzero;stroke:none;stroke-width:25.63030815;stroke-linecap:butt;stroke-linejoin:miter;stroke-miterlimit:4;stroke-dasharray:none;stroke-dashoffset:0;stroke-opacity:1;color-rendering:auto;image-rendering:auto;shape-rendering:auto;text-rendering:auto;enable-background:accumulate"
     d="m 369.50391,268.44141 c -0.063,3.04413 -0.94194,3.81469 -2.42579,5.13867 -0.74192,0.66199 -1.58066,1.22437 -2.44726,1.74804 -0.4333,0.26184 -0.78901,0.44552 -1.66602,1.01172 -0.4385,0.2831 -0.93119,0.44533 -2.42187,1.92969 -0.74534,0.74218 -2.01295,1.71535 -3.14258,5.01367 -1.12963,3.29832 0.10816,10.31086 3.07422,13.27735 l 18.125,-18.12305 c 2.93147,2.9319 4.16154,9.90146 3.04883,13.15039 -1.11271,3.24893 -2.33939,4.16649 -3.01953,4.84375 -1.36029,1.35451 -1.62941,1.35472 -1.76368,1.44141 -0.26853,0.17336 0.30535,-0.17467 1.02149,-0.60743 1.43228,-0.8655 3.77011,-2.3426 6.25586,-4.56054 4.97149,-4.43589 10.75765,-12.78578 10.98437,-23.73438 z"
     id="path8155"
     inkscape:connector-curvature="0" />
  <path
     style="color:#000000;font-style:normal;font-variant:normal;font-weight:normal;font-stretch:normal;font-size:medium;line-height:normal;font-family:sans-serif;font-variant-ligatures:normal;font-variant-position:normal;font-variant-caps:normal;font-variant-numeric:normal;font-variant-alternates:normal;font-feature-settings:normal;text-indent:0;text-align:start;text-decoration:none;text-decoration-line:none;text-decoration-style:solid;text-decoration-color:#000000;letter-spacing:normal;word-spacing:normal;text-transform:none;writing-mode:lr-tb;direction:ltr;text-orientation:mixed;dominant-baseline:auto;baseline-shift:baseline;text-anchor:start;white-space:normal;shape-padding:0;clip-rule:nonzero;display:inline;overflow:visible;visibility:visible;opacity:1;isolation:auto;mix-blend-mode:normal;color-interpolation:sRGB;color-interpolation-filters:linearRGB;solid-color:#000000;solid-opacity:1;vector-effect:none;fill:#000000;fill-opacity:1;fill-rule:nonzero;stroke:none;stroke-width:25.63030815;stroke-linecap:butt;stroke-linejoin:miter;stroke-miterlimit:4;stroke-dasharray:none;stroke-dashoffset:0;stroke-opacity:1;color-rendering:auto;image-rendering:auto;shape-rendering:auto;text-rendering:auto;enable-background:accumulate"
     d="m 293.58008,195.03906 c 0,23.84235 -21.23633,33.52149 -21.23633,33.52149 l 10.97266,23.16211 c 0,0 35.89257,-17.38209 35.89257,-56.6836 z"
     id="path8157"
     inkscape:connector-curvature="0" />
  <path
     style="color:#000000;font-style:normal;font-variant:normal;font-weight:normal;font-stretch:normal;font-size:medium;line-height:normal;font-family:sans-serif;font-variant-ligatures:normal;font-variant-position:normal;font-variant-caps:normal;font-variant-numeric:normal;font-variant-alternates:normal;font-feature-settings:normal;text-indent:0;text-align:start;text-decoration:none;text-decoration-line:none;text-decoration-style:solid;text-decoration-color:#000000;letter-spacing:normal;word-spacing:normal;text-transform:none;writing-mode:lr-tb;direction:ltr;text-orientation:mixed;dominant-baseline:auto;baseline-shift:baseline;text-anchor:start;white-space:normal;shape-padding:0;clip-rule:nonzero;display:inline;overflow:visible;visibility:visible;opacity:1;isolation:auto;mix-blend-mode:normal;color-interpolation:sRGB;color-interpolation-filters:linearRGB;solid-color:#000000;solid-opacity:1;vector-effect:none;fill:#000000;fill-opacity:1;fill-rule:nonzero;stroke:none;stroke-width:19.22273254;stroke-linecap:butt;stroke-linejoin:miter;stroke-miterlimit:4;stroke-dasharray:none;stroke-dashoffset:0;stroke-opacity:1;color-rendering:auto;image-rendering:auto;shape-rendering:auto;text-rendering:auto;enable-background:accumulate"
     d="m 228.20312,738.99609 c -6.82885,44.38875 9.34766,77.92774 9.34766,77.92774 l 17.31055,-8.35547 c 0,0 -13.58796,-28.11868 -7.66016,-66.65039 z"
     id="path8159"
     inkscape:connector-curvature="0" />
  <path
     style="color:#000000;font-style:normal;font-variant:normal;font-weight:normal;font-stretch:normal;font-size:medium;line-height:normal;font-family:sans-serif;font-variant-ligatures:normal;font-variant-position:normal;font-variant-caps:normal;font-variant-numeric:normal;font-variant-alternates:normal;font-feature-settings:normal;text-indent:0;text-align:start;text-decoration:none;text-decoration-line:none;text-decoration-style:solid;text-decoration-color:#000000;letter-spacing:normal;word-spacing:normal;text-transform:none;writing-mode:lr-tb;direction:ltr;text-orientation:mixed;dominant-baseline:auto;baseline-shift:baseline;text-anchor:start;white-space:normal;shape-padding:0;clip-rule:nonzero;display:inline;overflow:visible;visibility:visible;opacity:1;isolation:auto;mix-blend-mode:normal;color-interpolation:sRGB;color-interpolation-filters:linearRGB;solid-color:#000000;solid-opacity:1;vector-effect:none;fill:#000000;fill-opacity:1;fill-rule:nonzero;stroke:none;stroke-width:19.22273254;stroke-linecap:butt;stroke-linejoin:miter;stroke-miterlimit:4;stroke-dasharray:none;stroke-dashoffset:0;stroke-opacity:1;color-rendering:auto;image-rendering:auto;shape-rendering:auto;text-rendering:auto;enable-background:accumulate"
     d="m 68.542969,682.39648 c -13.482548,-0.21964 -27.476203,0.99512 -39.595703,6.4336 -12.119501,5.43847 -22.3488864,16.68885 -23.7812504,32.2793 l 19.1425784,1.75976 c 0.832202,-9.05804 4.722951,-13.00576 12.509765,-16.5 7.786815,-3.49424 19.485187,-4.94626 31.41211,-4.75195 13.242782,0.21574 25.350433,2.0666 34.578121,3.83203 -17.791245,34.48577 3.52344,72.36328 3.52344,72.36328 l 16.75977,-9.41406 c 0,0 -20.29781,-36.44322 2.81054,-63.10742 l 10.0918,-11.64258 -14.89453,-3.94336 c 0,0 -25.591546,-6.8693 -52.556641,-7.3086 z"
     id="path8163"
     inkscape:connector-curvature="0" />
  <path
     style="color:#000000;font-style:normal;font-variant:normal;font-weight:normal;font-stretch:normal;font-size:medium;line-height:normal;font-family:sans-serif;font-variant-ligatures:normal;font-variant-position:normal;font-variant-caps:normal;font-variant-numeric:normal;font-variant-alternates:normal;font-feature-settings:normal;text-indent:0;text-align:start;text-decoration:none;text-decoration-line:none;text-decoration-style:solid;text-decoration-color:#000000;letter-spacing:normal;word-spacing:normal;text-transform:none;writing-mode:lr-tb;direction:ltr;text-orientation:mixed;dominant-baseline:auto;baseline-shift:baseline;text-anchor:start;white-space:normal;shape-padding:0;clip-rule:nonzero;display:inline;overflow:visible;visibility:visible;opacity:1;isolation:auto;mix-blend-mode:normal;color-interpolation:sRGB;color-interpolation-filters:linearRGB;solid-color:#000000;solid-opacity:1;vector-effect:none;fill:#000000;fill-opacity:1;fill-rule:nonzero;stroke:none;stroke-width:19.22273254;stroke-linecap:butt;stroke-linejoin:miter;stroke-miterlimit:4;stroke-dasharray:none;stroke-dashoffset:0;stroke-opacity:1;color-rendering:auto;image-rendering:auto;shape-rendering:auto;text-rendering:auto;enable-background:accumulate"
     d="m 75.017578,121.60742 -7.80664,17.56641 c 0,0 6.656784,3.46545 7.050781,8.85547 0.196998,2.69501 -0.65189,7.48851 -7.527344,15.40429 -6.875454,7.91579 -19.654642,18.35726 -41.140625,30.78321 l 9.625,16.64062 c 22.630798,-13.08802 36.998132,-24.42293 46.027344,-34.81836 9.029212,-10.39543 12.84267,-20.44915 12.1875,-29.41211 -1.310341,-17.92591 -18.416016,-25.01953 -18.416016,-25.01953 z"
     id="path8165"
     inkscape:connector-curvature="0" />
</svg>
