<?xml version="1.0" encoding="UTF-8" standalone="no"?>
<!-- Created with Inkscape (http://www.inkscape.org/) -->

<svg
   xmlns:dc="http://purl.org/dc/elements/1.1/"
   xmlns:cc="http://creativecommons.org/ns#"
   xmlns:rdf="http://www.w3.org/1999/02/22-rdf-syntax-ns#"
   xmlns:svg="http://www.w3.org/2000/svg"
   xmlns="http://www.w3.org/2000/svg"
   xmlns:sodipodi="http://sodipodi.sourceforge.net/DTD/sodipodi-0.dtd"
   xmlns:inkscape="http://www.inkscape.org/namespaces/inkscape"
   version="1.1"
   id="svg9337"
   width="1000"
   height="1000"
   viewBox="0 0 1000 1000"
   sodipodi:docname="E.svg"
   inkscape:version="0.92.4 (5da689c313, 2019-01-14)">
  <metadata
     id="metadata9343">
    <rdf:RDF>
      <cc:Work
         rdf:about="">
        <dc:format>image/svg+xml</dc:format>
        <dc:type
           rdf:resource="http://purl.org/dc/dcmitype/StillImage" />
        <dc:title />
      </cc:Work>
    </rdf:RDF>
  </metadata>
  <defs
     id="defs9341">
    <clipPath
       clipPathUnits="userSpaceOnUse"
       id="clipPath9364">
      <rect
         style="opacity:1;fill:#00000a;fill-opacity:0.04705882;stroke:#000000;stroke-width:15;stroke-miterlimit:4;stroke-dasharray:none;stroke-opacity:1"
         id="rect9366"
         width="985"
         height="985"
         x="7.5"
         y="7.5"
         transform="rotate(-90)" />
    </clipPath>
  </defs>
  <sodipodi:namedview
     pagecolor="#ffffff"
     bordercolor="#666666"
     borderopacity="1"
     objecttolerance="10"
     gridtolerance="10"
     guidetolerance="10"
     inkscape:pageopacity="0"
     inkscape:pageshadow="2"
     inkscape:window-width="1366"
     inkscape:window-height="715"
     id="namedview9339"
     showgrid="false"
     inkscape:zoom="0.5462963"
     inkscape:cx="571.96051"
     inkscape:cy="558.63594"
     inkscape:window-x="-8"
     inkscape:window-y="-8"
     inkscape:window-maximized="1"
     inkscape:current-layer="svg9337" />
  <path
     style="color:#000000;font-style:normal;font-variant:normal;font-weight:normal;font-stretch:normal;font-size:medium;line-height:normal;font-family:sans-serif;font-variant-ligatures:normal;font-variant-position:normal;font-variant-caps:normal;font-variant-numeric:normal;font-variant-alternates:normal;font-feature-settings:normal;text-indent:0;text-align:start;text-decoration:none;text-decoration-line:none;text-decoration-style:solid;text-decoration-color:#000000;letter-spacing:normal;word-spacing:normal;text-transform:none;writing-mode:lr-tb;direction:ltr;text-orientation:mixed;dominant-baseline:auto;baseline-shift:baseline;text-anchor:start;white-space:normal;shape-padding:0;clip-rule:nonzero;display:inline;overflow:visible;visibility:visible;opacity:1;isolation:auto;mix-blend-mode:normal;color-interpolation:sRGB;color-interpolation-filters:linearRGB;solid-color:#000000;solid-opacity:1;vector-effect:none;fill:#000000;fill-opacity:1;fill-rule:nonzero;stroke:none;stroke-width:25.65341187;stroke-linecap:butt;stroke-linejoin:miter;stroke-miterlimit:4;stroke-dasharray:none;stroke-dashoffset:0;stroke-opacity:1;color-rendering:auto;image-rendering:auto;shape-rendering:auto;text-rendering:auto;enable-background:accumulate"
     d="M 366.76758,1.6933594 C 346.7627,1.9525521 326.4841,7.847756 309.06055,17.353516 295.38728,24.813233 283.35464,34.507791 275.125,46.417969 c -27.7145,-8.97531 -50.33101,-10.665681 -68.88477,-6.794922 -20.79813,4.33899 -35.89296,15.956979 -45.50585,29.208984 -9.6129,13.252005 -14.23084,27.89744 -16.5918,39.972659 -0.72393,3.70254 -1.18811,6.98522 -1.54688,10.05664 -30.36697,-3.20386 -53.303761,3.62275 -68.37695,18.44336 -17.408545,17.11682 -22.938148,41.65847 -24.392578,66.38867 -1.454431,24.7302 1.30785,50.57409 3.427734,72.4082 2.11207,21.75363 2.295834,40.78558 1.041016,44.51758 C 0.78336664,439.23276 -3.93347,580.73553 4.1640625,691.76172 8.2239355,747.4271 15.573737,795.43708 21.90625,829.0625 c 3.166257,16.81271 6.075007,30.01713 8.214844,38.85352 1.069918,4.41819 1.933336,7.70252 2.611328,10.01562 0.338996,1.15655 0.517244,1.85565 1.08789,3.25391 0.142662,0.34956 0.291826,0.73899 0.708985,1.5039 0.324518,0.59505 -0.171163,1.5347 2.345703,3.41407 26.709964,39.79055 29.498047,112.12304 29.498047,112.12304 l 25.650391,-0.42773 c 0,0 0.211269,-77.02351 -34.746094,-127.36328 -0.477706,-1.64735 -1.249268,-4.53096 -2.22461,-8.5586 -2.014739,-8.31979 -4.846362,-21.15708 -7.935546,-37.56054 C 40.938818,791.50949 33.722236,744.38704 29.748047,689.89648 21.799669,580.91538 27.118037,442.49693 78.072266,330.23438 L 78.310547,329.71094 78.5,329.16797 c 5.486921,-15.68845 2.420003,-33.57682 0.287109,-55.54492 -2.132893,-21.96811 -4.628592,-46.71004 -3.351562,-68.42383 1.27703,-21.71379 6.468279,-39.47489 16.769531,-49.60352 10.301252,-10.12863 27.146212,-15.80497 60.095702,-9.375 l 16.42578,3.20508 -1.17383,-16.69531 c -0.0529,-0.75286 -0.11099,-9.40589 1.76563,-19.00391 1.87662,-9.59801 5.63351,-20.805012 12.18164,-29.832029 6.54813,-9.027016 15.39956,-16.116274 29.98047,-19.158203 14.58091,-3.041928 35.53545,-1.682866 64.94922,9.257813 l 11.23047,4.177734 4.93164,-10.919922 c 4.24033,-9.387322 14.87542,-19.807229 28.7539,-27.378906 13.87849,-7.571677 30.71301,-12.332467 45.75391,-12.527344 15.0409,-0.194877 27.68289,3.884461 36.16406,12.619141 8.48117,8.734679 14.27954,23.183335 12.13281,48.43164 l -1.88476,22.164066 20.12695,-9.47071 c 0,0 28.3213,-12.865891 56.94922,-11.744137 14.31396,0.560877 28.04566,4.352331 39.42773,14.169917 11.27587,9.72598 21.048,25.97036 25.57422,54.34376 -0.0287,2.06533 -0.55431,41.56518 2.68164,89.72656 3.3213,49.43155 9.64574,105.9946 27.45704,140.77734 l 0.70117,1.36914 1.00586,1.16602 c 7.05661,8.1751 5.70347,2.60522 9.63476,15.35351 l 0.0195,0.0664 0.0215,0.0684 c 0,0 20.84109,65.09801 35.90234,135.06055 7.53063,34.98126 13.56927,71.18665 14.89649,100.35742 0.6636,14.58538 0.11216,27.41479 -1.71875,37.04883 -1.83092,9.63403 -5.05128,15.56886 -7.61719,17.88476 l -0.23828,0.21484 -0.22656,0.22657 c -12.00879,11.98043 -139.98271,137.7255 -205.88477,199.33008 l 1.88477,-1.45899 c 0,0 -2.30867,1.73181 -3.37891,2.98047 -1.07024,1.24866 -2.05953,2.73837 -2.97461,4.52539 -1.83016,3.57405 -3.41256,8.33196 -4.6582,15.41602 -2.49128,14.16811 -3.64257,37.80003 0.0371,80.08203 l 25.55664,-2.22461 c -3.56481,-40.96199 -2.18365,-62.86156 -0.32813,-73.41406 0.86614,-4.92579 1.7829,-7.16239 2.11328,-7.86329 66.68396,-62.37335 192.85119,-186.34258 205.75196,-199.21289 l -0.46485,0.44141 c 8.97053,-8.09651 13.22033,-19.46506 15.62891,-32.13867 2.40858,-12.67361 2.86554,-27.15692 2.14453,-43.00391 -1.44202,-31.69397 -7.7472,-68.83249 -15.44531,-104.59179 -15.35073,-71.30722 -36.38337,-136.96522 -36.50782,-137.35352 l -0.006,-0.0156 c -4.30407,-13.94672 -9.31434,-18.60639 -13.54687,-23.25 -13.07574,-26.64281 -20.9671,-81.97945 -24.16406,-129.56054 -3.24207,-48.25234 -2.63282,-89.00977 -2.63281,-89.00977 l 0.0156,-1.08398 -0.16602,-1.07227 C 575.94752,121.5123 563.48377,98.505 546.77148,84.089844 530.0592,69.674687 509.93452,64.429677 491.5918,63.710938 471.87794,62.938471 453.96245,67.031221 441.14258,71.035156 439.75434,50.213703 432.90459,33.668197 421.66797,22.095703 407.10947,7.1020393 386.77245,1.4341667 366.76758,1.6933594 Z M 55.212891,867.41602 c 1.593254,1.26636 1.609463,1.88889 1.662109,2.40234 -0.189508,-0.26955 -0.347504,-0.56211 -0.539062,-0.83008 z"
     id="path9368"
     inkscape:connector-curvature="0" />
  <path
     style="color:#000000;font-style:normal;font-variant:normal;font-weight:normal;font-stretch:normal;font-size:medium;line-height:normal;font-family:sans-serif;font-variant-ligatures:normal;font-variant-position:normal;font-variant-caps:normal;font-variant-numeric:normal;font-variant-alternates:normal;font-feature-settings:normal;text-indent:0;text-align:start;text-decoration:none;text-decoration-line:none;text-decoration-style:solid;text-decoration-color:#000000;letter-spacing:normal;word-spacing:normal;text-transform:none;writing-mode:lr-tb;direction:ltr;text-orientation:mixed;dominant-baseline:auto;baseline-shift:baseline;text-anchor:start;white-space:normal;shape-padding:0;clip-rule:nonzero;display:inline;overflow:visible;visibility:visible;opacity:1;isolation:auto;mix-blend-mode:normal;color-interpolation:sRGB;color-interpolation-filters:linearRGB;solid-color:#000000;solid-opacity:1;vector-effect:none;fill:#000000;fill-opacity:1;fill-rule:nonzero;stroke:none;stroke-width:19.24006081;stroke-linecap:butt;stroke-linejoin:miter;stroke-miterlimit:4;stroke-dasharray:none;stroke-dashoffset:0;stroke-opacity:1;color-rendering:auto;image-rendering:auto;shape-rendering:auto;text-rendering:auto;enable-background:accumulate"
     d="m 224.4668,777.16211 -19.03711,2.79101 c 10.68524,72.85042 66.02752,114.46552 119.80469,133.39844 26.88858,9.46646 53.56491,13.55825 75.33789,13.4375 10.88648,-0.0604 20.53863,-1.14895 28.66406,-3.40039 8.12542,-2.25144 15.18529,-5.38149 19.73047,-12.14062 L 433,900.51172 c -0.1833,0.27258 -3.1037,2.72922 -8.90234,4.33594 -5.79864,1.60671 -14.01399,2.64783 -23.63086,2.70117 -19.23375,0.10667 -44.10618,-3.63458 -68.84375,-12.34375 C 282.14791,877.78674 233.92948,841.67731 224.4668,777.16211 Z"
     id="path9370"
     inkscape:connector-curvature="0" />
  <path
     style="color:#000000;font-style:normal;font-variant:normal;font-weight:normal;font-stretch:normal;font-size:medium;line-height:normal;font-family:sans-serif;font-variant-ligatures:normal;font-variant-position:normal;font-variant-caps:normal;font-variant-numeric:normal;font-variant-alternates:normal;font-feature-settings:normal;text-indent:0;text-align:start;text-decoration:none;text-decoration-line:none;text-decoration-style:solid;text-decoration-color:#000000;letter-spacing:normal;word-spacing:normal;text-transform:none;writing-mode:lr-tb;direction:ltr;text-orientation:mixed;dominant-baseline:auto;baseline-shift:baseline;text-anchor:start;white-space:normal;shape-padding:0;clip-rule:nonzero;display:inline;overflow:visible;visibility:visible;opacity:1;isolation:auto;mix-blend-mode:normal;color-interpolation:sRGB;color-interpolation-filters:linearRGB;solid-color:#000000;solid-opacity:1;vector-effect:none;fill:#000000;fill-opacity:1;fill-rule:nonzero;stroke:none;stroke-width:19.24006081;stroke-linecap:butt;stroke-linejoin:miter;stroke-miterlimit:4;stroke-dasharray:none;stroke-dashoffset:0;stroke-opacity:1;color-rendering:auto;image-rendering:auto;shape-rendering:auto;text-rendering:auto;enable-background:accumulate"
     d="M 152.26172,864.70703 C 118.74126,900.02725 95.979999,899.44301 79.802734,892.81836 63.625469,886.19371 54.074219,871.375 54.074219,871.375 l -16.345703,10.14844 c 0,0 11.900502,19.72905 34.783203,29.09961 22.8827,9.37055 56.789541,6.22765 93.705081,-32.66993 z"
     id="path9372"
     inkscape:connector-curvature="0" />
  <path
     style="color:#000000;font-style:normal;font-variant:normal;font-weight:normal;font-stretch:normal;font-size:medium;line-height:normal;font-family:sans-serif;font-variant-ligatures:normal;font-variant-position:normal;font-variant-caps:normal;font-variant-numeric:normal;font-variant-alternates:normal;font-feature-settings:normal;text-indent:0;text-align:start;text-decoration:none;text-decoration-line:none;text-decoration-style:solid;text-decoration-color:#000000;letter-spacing:normal;word-spacing:normal;text-transform:none;writing-mode:lr-tb;direction:ltr;text-orientation:mixed;dominant-baseline:auto;baseline-shift:baseline;text-anchor:start;white-space:normal;shape-padding:0;clip-rule:nonzero;display:inline;overflow:visible;visibility:visible;opacity:1;isolation:auto;mix-blend-mode:normal;color-interpolation:sRGB;color-interpolation-filters:linearRGB;solid-color:#000000;solid-opacity:1;vector-effect:none;fill:#000000;fill-opacity:1;fill-rule:nonzero;stroke:none;stroke-width:25.65341187;stroke-linecap:butt;stroke-linejoin:miter;stroke-miterlimit:4;stroke-dasharray:none;stroke-dashoffset:0;stroke-opacity:1;color-rendering:auto;image-rendering:auto;shape-rendering:auto;text-rendering:auto;enable-background:accumulate"
     d="m 167.42773,131.62891 -25.33984,4.0039 c 2.28323,14.45411 5.24193,31.59351 18.78711,113.32422 -0.21933,30.30841 -17.23613,47.76795 -33.6582,51.09375 -8.28023,1.67691 -16.51562,0.16945 -24.47852,-5.8789 -7.867957,-5.97624 -15.575338,-16.94995 -20.339842,-35.00196 -0.197521,-1.59398 -5.857072,-47.37401 -4.802735,-65.2832 l -25.609375,-1.50781 c -1.488583,25.28538 5.082031,71.09375 5.082031,71.09375 l 0.101563,0.75781 0.191406,0.74023 c 5.834173,22.65849 16.319316,39.34433 29.859375,49.62891 13.540057,10.28458 30.002017,13.65089 45.087887,10.5957 30.17174,-6.11038 54.35928,-36.31218 54.27149,-77.02343 l -0.002,-1.04102 -0.17187,-1.02734 C 172.43588,161.7896 169.69375,145.97402 167.42773,131.62891 Z"
     id="path9374"
     inkscape:connector-curvature="0" />
  <path
     style="color:#000000;font-style:normal;font-variant:normal;font-weight:normal;font-stretch:normal;font-size:medium;line-height:normal;font-family:sans-serif;font-variant-ligatures:normal;font-variant-position:normal;font-variant-caps:normal;font-variant-numeric:normal;font-variant-alternates:normal;font-feature-settings:normal;text-indent:0;text-align:start;text-decoration:none;text-decoration-line:none;text-decoration-style:solid;text-decoration-color:#000000;letter-spacing:normal;word-spacing:normal;text-transform:none;writing-mode:lr-tb;direction:ltr;text-orientation:mixed;dominant-baseline:auto;baseline-shift:baseline;text-anchor:start;white-space:normal;shape-padding:0;clip-rule:nonzero;display:inline;overflow:visible;visibility:visible;opacity:1;isolation:auto;mix-blend-mode:normal;color-interpolation:sRGB;color-interpolation-filters:linearRGB;solid-color:#000000;solid-opacity:1;vector-effect:none;fill:#000000;fill-opacity:1;fill-rule:nonzero;stroke:none;stroke-width:25.65341187;stroke-linecap:butt;stroke-linejoin:miter;stroke-miterlimit:4;stroke-dasharray:none;stroke-dashoffset:0;stroke-opacity:1;color-rendering:auto;image-rendering:auto;shape-rendering:auto;text-rendering:auto;enable-background:accumulate"
     d="m 269.35352,56.390625 c -1.87448,3.877957 -9.37305,14.002814 -9.93164,34.423828 -0.5586,20.421017 3.74747,52.768597 18.68359,114.265627 l 0.0293,0.11719 0.0293,0.11523 c 11.57018,44.03839 -10.0128,72.31439 -34.04101,81.35156 -12.01411,4.51859 -24.29768,4.02443 -34.48243,-1.83594 -10.18474,-5.86036 -19.29202,-17.40099 -23.27539,-38.95898 l -25.22656,4.66016 c 5.01007,27.11452 18.24761,46.48889 35.70703,56.53515 17.45943,10.04627 38.12106,10.45105 56.30664,3.61133 36.37117,-13.67944 64.20403,-57.14848 49.82422,-111.88086 l 0.0586,0.23047 c -14.70451,-60.5434 -18.40181,-91.67824 -17.96875,-107.509765 0.43305,-15.831522 2.9215,-14.727231 7.38476,-23.960937 z"
     id="path9376"
     inkscape:connector-curvature="0" />
  <path
     style="color:#000000;font-style:normal;font-variant:normal;font-weight:normal;font-stretch:normal;font-size:medium;line-height:normal;font-family:sans-serif;font-variant-ligatures:normal;font-variant-position:normal;font-variant-caps:normal;font-variant-numeric:normal;font-variant-alternates:normal;font-feature-settings:normal;text-indent:0;text-align:start;text-decoration:none;text-decoration-line:none;text-decoration-style:solid;text-decoration-color:#000000;letter-spacing:normal;word-spacing:normal;text-transform:none;writing-mode:lr-tb;direction:ltr;text-orientation:mixed;dominant-baseline:auto;baseline-shift:baseline;text-anchor:start;white-space:normal;shape-padding:0;clip-rule:nonzero;display:inline;overflow:visible;visibility:visible;opacity:1;isolation:auto;mix-blend-mode:normal;color-interpolation:sRGB;color-interpolation-filters:linearRGB;solid-color:#000000;solid-opacity:1;vector-effect:none;fill:#000000;fill-opacity:1;fill-rule:nonzero;stroke:none;stroke-width:25.65341187;stroke-linecap:butt;stroke-linejoin:miter;stroke-miterlimit:4;stroke-dasharray:none;stroke-dashoffset:0;stroke-opacity:1;color-rendering:auto;image-rendering:auto;shape-rendering:auto;text-rendering:auto;enable-background:accumulate"
     d="m 417.7793,81.974609 c -8.98831,12.444955 -14.49502,25.662161 -15.76953,44.072271 -1.27452,18.4101 0.57687,42.5279 3.91406,82.94335 2.83396,34.32111 -18.13034,51.52349 -42.07813,54.50782 -23.94778,2.98433 -49.62235,-8.60252 -57.09375,-44.59766 l -25.11914,5.21289 c 9.81668,47.29408 49.73096,69.28491 85.38477,64.8418 35.65381,-4.44312 68.30425,-35.67309 64.47265,-82.07617 -3.32837,-40.30876 -4.92505,-64.08826 -3.88867,-79.0586 1.03639,-14.97033 3.60012,-20.61565 10.97461,-30.826169 z"
     id="path9378"
     inkscape:connector-curvature="0" />
  <path
     style="color:#000000;font-style:normal;font-variant:normal;font-weight:normal;font-stretch:normal;font-size:medium;line-height:normal;font-family:sans-serif;font-variant-ligatures:normal;font-variant-position:normal;font-variant-caps:normal;font-variant-numeric:normal;font-variant-alternates:normal;font-feature-settings:normal;text-indent:0;text-align:start;text-decoration:none;text-decoration-line:none;text-decoration-style:solid;text-decoration-color:#000000;letter-spacing:normal;word-spacing:normal;text-transform:none;writing-mode:lr-tb;direction:ltr;text-orientation:mixed;dominant-baseline:auto;baseline-shift:baseline;text-anchor:start;white-space:normal;shape-padding:0;clip-rule:nonzero;display:inline;overflow:visible;visibility:visible;opacity:1;isolation:auto;mix-blend-mode:normal;color-interpolation:sRGB;color-interpolation-filters:linearRGB;solid-color:#000000;solid-opacity:1;vector-effect:none;fill:#000000;fill-opacity:1;fill-rule:nonzero;stroke:none;stroke-width:25.65341187;stroke-linecap:butt;stroke-linejoin:miter;stroke-miterlimit:4;stroke-dasharray:none;stroke-dashoffset:0;stroke-opacity:1;color-rendering:auto;image-rendering:auto;shape-rendering:auto;text-rendering:auto;enable-background:accumulate"
     d="m 547.01562,139.02148 c 0,0 -1.15964,1.50486 -1.77734,2.5918 -0.6177,1.08694 -1.25,2.4139 -1.87305,4.05274 -1.24609,3.27767 -2.46395,7.803 -3.39062,14.3164 -1.85297,13.02412 -2.5662,34.04766 0.89453,69.09961 1.88024,19.32944 -87.84479,75.25888 -109.13476,-20.26367 l -25.03907,5.58008 c 25.52287,114.51446 166.16589,78.60013 159.70703,12.20117 l -0.002,-0.01 v -0.01 c -3.32853,-33.70181 -2.4586,-52.93812 -1.0293,-62.98438 0.71465,-5.02312 1.56328,-7.73765 1.97266,-8.81445 0.20469,-0.5384 0.29674,-0.66723 0.19727,-0.49219 -0.0995,0.17505 -0.94727,1.3125 -0.94727,1.3125 z"
     id="path9380"
     inkscape:connector-curvature="0" />
  <path
     style="color:#000000;font-style:normal;font-variant:normal;font-weight:normal;font-stretch:normal;font-size:medium;line-height:normal;font-family:sans-serif;font-variant-ligatures:normal;font-variant-position:normal;font-variant-caps:normal;font-variant-numeric:normal;font-variant-alternates:normal;font-feature-settings:normal;text-indent:0;text-align:start;text-decoration:none;text-decoration-line:none;text-decoration-style:solid;text-decoration-color:#000000;letter-spacing:normal;word-spacing:normal;text-transform:none;writing-mode:lr-tb;direction:ltr;text-orientation:mixed;dominant-baseline:auto;baseline-shift:baseline;text-anchor:start;white-space:normal;shape-padding:0;clip-rule:nonzero;display:inline;overflow:visible;visibility:visible;opacity:1;isolation:auto;mix-blend-mode:normal;color-interpolation:sRGB;color-interpolation-filters:linearRGB;solid-color:#000000;solid-opacity:1;vector-effect:none;fill:#000000;fill-opacity:1;fill-rule:nonzero;stroke:none;stroke-width:25.65341187;stroke-linecap:butt;stroke-linejoin:miter;stroke-miterlimit:4;stroke-dasharray:none;stroke-dashoffset:0;stroke-opacity:1;color-rendering:auto;image-rendering:auto;shape-rendering:auto;text-rendering:auto;enable-background:accumulate"
     d="m 540.89844,353.46289 c -24.98351,0.8035 -57.51148,8.63134 -98.19727,29.56641 -21.57437,-5.17932 -42.5987,-4.50267 -60.42578,0.95312 -19.19311,5.87385 -35.34266,17.38607 -42.43359,34.44336 -7.09093,17.05729 -2.91328,38.11852 12.44531,56.59766 15.35859,18.47913 41.3311,36.03273 81.26172,52.4375 l 0.58398,0.24023 0.60742,0.18164 c 0,0 6.89383,2.07293 15.36719,3.80078 4.46951,0.91141 9.21057,1.88923 14.19922,2.31446 0.37079,2.52047 0.57861,4.64409 1.16992,7.52734 1.71871,8.3805 3.68448,18.04907 9.67969,26.35938 -2.49962,9.43845 -4.65625,26.27083 5.88672,41.41406 l 1.16992,1.67969 1.63281,1.23242 c 0,0 30.32391,22.30397 46.63282,78.43359 l 24.63476,-7.1582 c -16.42471,-56.52818 -47.04084,-84.2501 -53.33594,-89.53906 -4.26139,-7.42616 -0.10546,-24.61719 -0.10546,-24.61719 l 3.14648,-8.4668 -6.91211,-5.8164 c -0.99891,-0.84051 -5.51043,-9.95349 -7.29883,-18.67383 -1.7884,-8.72035 -2.24023,-16.38282 -2.24023,-16.38282 l -0.85352,-15.06835 -14.73242,3.27148 c -1.15048,0.25545 -10.33418,-0.1753 -17.54883,-1.64648 -6.93457,-1.41408 -12.18262,-2.9825 -12.61719,-3.11133 -37.08792,-15.32447 -59.44855,-31.39423 -70.59765,-44.8086 -11.22061,-13.5004 -11.68719,-22.65382 -8.48633,-30.35351 3.20086,-7.69969 12.27924,-15.48552 26.25195,-19.76172 13.97271,-4.2762 32.1837,-4.85232 50.92383,0.42578 l 4.95313,1.39648 4.54296,-2.41406 c 53.60217,-28.48209 88.8395,-31.09925 110.00977,-27.76758 10.58514,1.66584 17.76759,4.83842 22.20313,7.39649 4.43553,2.55806 5.39257,3.76172 5.39257,3.76172 l 18.67383,-17.58789 c 0,0 -4.31428,-4.39652 -11.25,-8.39649 -6.93571,-3.99997 -17.22333,-8.3426 -31.03125,-10.51562 -6.90396,-1.08651 -14.65928,-1.62564 -23.30273,-1.34766 z"
     id="path9382"
     inkscape:connector-curvature="0" />
  <path
     style="color:#000000;font-style:normal;font-variant:normal;font-weight:normal;font-stretch:normal;font-size:medium;line-height:normal;font-family:sans-serif;font-variant-ligatures:normal;font-variant-position:normal;font-variant-caps:normal;font-variant-numeric:normal;font-variant-alternates:normal;font-feature-settings:normal;text-indent:0;text-align:start;text-decoration:none;text-decoration-line:none;text-decoration-style:solid;text-decoration-color:#000000;letter-spacing:normal;word-spacing:normal;text-transform:none;writing-mode:lr-tb;direction:ltr;text-orientation:mixed;dominant-baseline:auto;baseline-shift:baseline;text-anchor:start;white-space:normal;shape-padding:0;clip-rule:nonzero;display:inline;overflow:visible;visibility:visible;opacity:1;isolation:auto;mix-blend-mode:normal;color-interpolation:sRGB;color-interpolation-filters:linearRGB;solid-color:#000000;solid-opacity:1;vector-effect:none;fill:#000000;fill-opacity:1;fill-rule:nonzero;stroke:none;stroke-width:19.24006081;stroke-linecap:butt;stroke-linejoin:miter;stroke-miterlimit:4;stroke-dasharray:none;stroke-dashoffset:0;stroke-opacity:1;color-rendering:auto;image-rendering:auto;shape-rendering:auto;text-rendering:auto;enable-background:accumulate"
     d="m 497.28125,594.23047 -11.42383,15.48047 c 0,0 14.85933,11.03307 34.26367,18.92578 19.40434,7.89271 45.35391,13.66753 65.63086,-1.73047 l -11.63476,-15.32227 c -11.73941,8.91472 -29.97195,6.05335 -46.7461,-0.76953 -16.77415,-6.82288 -30.08984,-16.58398 -30.08984,-16.58398 z"
     id="path9384"
     inkscape:connector-curvature="0" />
  <path
     style="color:#000000;font-style:normal;font-variant:normal;font-weight:normal;font-stretch:normal;font-size:medium;line-height:normal;font-family:sans-serif;font-variant-ligatures:normal;font-variant-position:normal;font-variant-caps:normal;font-variant-numeric:normal;font-variant-alternates:normal;font-feature-settings:normal;text-indent:0;text-align:start;text-decoration:none;text-decoration-line:none;text-decoration-style:solid;text-decoration-color:#000000;letter-spacing:normal;word-spacing:normal;text-transform:none;writing-mode:lr-tb;direction:ltr;text-orientation:mixed;dominant-baseline:auto;baseline-shift:baseline;text-anchor:start;white-space:normal;shape-padding:0;clip-rule:nonzero;display:inline;overflow:visible;visibility:visible;opacity:1;isolation:auto;mix-blend-mode:normal;color-interpolation:sRGB;color-interpolation-filters:linearRGB;solid-color:#000000;solid-opacity:1;vector-effect:none;fill:#000000;fill-opacity:1;fill-rule:nonzero;stroke:none;stroke-width:19.24006081;stroke-linecap:butt;stroke-linejoin:miter;stroke-miterlimit:4;stroke-dasharray:none;stroke-dashoffset:0;stroke-opacity:1;color-rendering:auto;image-rendering:auto;shape-rendering:auto;text-rendering:auto;enable-background:accumulate"
     d="m 493.50781,556.05078 -7.71875,17.62305 c 0,0 12.48411,5.48861 28.50196,8.91211 16.01784,3.42349 36.32803,5.57194 53.21093,-4.30274 l -9.71289,-16.60742 c -9.37052,5.48074 -25.5591,5.07028 -39.47656,2.0957 -13.91746,-2.97457 -24.80469,-7.7207 -24.80469,-7.7207 z"
     id="path9386"
     inkscape:connector-curvature="0" />
  <path
     style="color:#000000;font-style:normal;font-variant:normal;font-weight:normal;font-stretch:normal;font-size:medium;line-height:normal;font-family:sans-serif;font-variant-ligatures:normal;font-variant-position:normal;font-variant-caps:normal;font-variant-numeric:normal;font-variant-alternates:normal;font-feature-settings:normal;text-indent:0;text-align:start;text-decoration:none;text-decoration-line:none;text-decoration-style:solid;text-decoration-color:#000000;letter-spacing:normal;word-spacing:normal;text-transform:none;writing-mode:lr-tb;direction:ltr;text-orientation:mixed;dominant-baseline:auto;baseline-shift:baseline;text-anchor:start;white-space:normal;shape-padding:0;clip-rule:nonzero;display:inline;overflow:visible;visibility:visible;opacity:1;isolation:auto;mix-blend-mode:normal;color-interpolation:sRGB;color-interpolation-filters:linearRGB;solid-color:#000000;solid-opacity:1;vector-effect:none;fill:#000000;fill-opacity:1;fill-rule:nonzero;stroke:none;stroke-width:19.24006081;stroke-linecap:butt;stroke-linejoin:miter;stroke-miterlimit:4;stroke-dasharray:none;stroke-dashoffset:0;stroke-opacity:1;color-rendering:auto;image-rendering:auto;shape-rendering:auto;text-rendering:auto;enable-background:accumulate"
     d="m 561.06836,458.86523 c -26.23901,53.01808 -85.41211,52.23047 -85.41211,52.23047 l -0.18945,19.23828 c 0,0 71.45327,0.4915 102.84375,-62.93554 z"
     id="path9388"
     inkscape:connector-curvature="0" />
  <path
     style="color:#000000;font-style:normal;font-variant:normal;font-weight:normal;font-stretch:normal;font-size:medium;line-height:normal;font-family:sans-serif;font-variant-ligatures:normal;font-variant-position:normal;font-variant-caps:normal;font-variant-numeric:normal;font-variant-alternates:normal;font-feature-settings:normal;text-indent:0;text-align:start;text-decoration:none;text-decoration-line:none;text-decoration-style:solid;text-decoration-color:#000000;letter-spacing:normal;word-spacing:normal;text-transform:none;writing-mode:lr-tb;direction:ltr;text-orientation:mixed;dominant-baseline:auto;baseline-shift:baseline;text-anchor:start;white-space:normal;shape-padding:0;clip-rule:nonzero;display:inline;overflow:visible;visibility:visible;opacity:1;isolation:auto;mix-blend-mode:normal;color-interpolation:sRGB;color-interpolation-filters:linearRGB;solid-color:#000000;solid-opacity:1;vector-effect:none;fill:#000000;fill-opacity:1;fill-rule:nonzero;stroke:none;stroke-width:19.24006081;stroke-linecap:butt;stroke-linejoin:miter;stroke-miterlimit:4;stroke-dasharray:none;stroke-dashoffset:0;stroke-opacity:1;color-rendering:auto;image-rendering:auto;shape-rendering:auto;text-rendering:auto;enable-background:accumulate"
     d="m 429.1543,513.01562 -20.49024,73.57813 18.53516,5.16211 20.49023,-73.57813 z"
     id="path9390"
     inkscape:connector-curvature="0" />
  <path
     style="color:#000000;font-style:normal;font-variant:normal;font-weight:normal;font-stretch:normal;font-size:medium;line-height:normal;font-family:sans-serif;font-variant-ligatures:normal;font-variant-position:normal;font-variant-caps:normal;font-variant-numeric:normal;font-variant-alternates:normal;font-feature-settings:normal;text-indent:0;text-align:start;text-decoration:none;text-decoration-line:none;text-decoration-style:solid;text-decoration-color:#000000;letter-spacing:normal;word-spacing:normal;text-transform:none;writing-mode:lr-tb;direction:ltr;text-orientation:mixed;dominant-baseline:auto;baseline-shift:baseline;text-anchor:start;white-space:normal;shape-padding:0;clip-rule:nonzero;display:inline;overflow:visible;visibility:visible;opacity:1;isolation:auto;mix-blend-mode:normal;color-interpolation:sRGB;color-interpolation-filters:linearRGB;solid-color:#000000;solid-opacity:1;vector-effect:none;fill:#000000;fill-opacity:1;fill-rule:nonzero;stroke:none;stroke-width:19.24006081;stroke-linecap:butt;stroke-linejoin:miter;stroke-miterlimit:4;stroke-dasharray:none;stroke-dashoffset:0;stroke-opacity:1;color-rendering:auto;image-rendering:auto;shape-rendering:auto;text-rendering:auto;enable-background:accumulate"
     d="m 355.20117,454.82812 c -4.6062,0.46743 -8.67677,2.27527 -13.35156,4.42774 -6.23306,2.86996 -13.15876,6.86728 -20.67578,11.6582 -15.03404,9.58184 -32.34915,22.3419 -48.88672,35.15821 -33.07513,25.63261 -62.99219,51.51367 -62.99219,51.51367 l 12.58594,14.55273 c 0,0 29.63494,-25.62525 62.19336,-50.85742 16.27921,-12.61608 33.30053,-25.12803 47.4414,-34.14063 7.07044,-4.50629 13.44321,-8.13665 18.38086,-10.41015 4.93766,-2.2735 8.8218,-2.67805 8.11914,-2.75195 l 2.01172,-19.13477 c -1.69644,-0.17843 -3.29077,-0.17143 -4.82617,-0.0156 z"
     id="path9392"
     inkscape:connector-curvature="0" />
  <path
     style="color:#000000;font-style:normal;font-variant:normal;font-weight:normal;font-stretch:normal;font-size:medium;line-height:normal;font-family:sans-serif;font-variant-ligatures:normal;font-variant-position:normal;font-variant-caps:normal;font-variant-numeric:normal;font-variant-alternates:normal;font-feature-settings:normal;text-indent:0;text-align:start;text-decoration:none;text-decoration-line:none;text-decoration-style:solid;text-decoration-color:#000000;letter-spacing:normal;word-spacing:normal;text-transform:none;writing-mode:lr-tb;direction:ltr;text-orientation:mixed;dominant-baseline:auto;baseline-shift:baseline;text-anchor:start;white-space:normal;shape-padding:0;clip-rule:nonzero;display:inline;overflow:visible;visibility:visible;opacity:1;isolation:auto;mix-blend-mode:normal;color-interpolation:sRGB;color-interpolation-filters:linearRGB;solid-color:#000000;solid-opacity:1;vector-effect:none;fill:#000000;fill-opacity:1;fill-rule:nonzero;stroke:none;stroke-width:19.24006081;stroke-linecap:butt;stroke-linejoin:miter;stroke-miterlimit:4;stroke-dasharray:none;stroke-dashoffset:0;stroke-opacity:1;color-rendering:auto;image-rendering:auto;shape-rendering:auto;text-rendering:auto;enable-background:accumulate"
     d="m 398.08203,486.78125 c -12.10022,0 -22.40608,6.94847 -33.61328,15.60156 -11.2072,8.65309 -22.76792,19.79544 -33.36914,30.87696 -21.20244,22.16303 -38.54688,44.20507 -38.54688,44.20507 l 15.11719,11.90235 c 0,0 16.91319,-21.46466 37.33203,-42.8086 10.20942,-10.67196 21.30101,-21.28328 31.22461,-28.94531 9.9236,-7.66202 19.22818,-11.5918 21.85547,-11.5918 z"
     id="path9394"
     inkscape:connector-curvature="0" />
  <path
     style="color:#000000;font-style:normal;font-variant:normal;font-weight:normal;font-stretch:normal;font-size:medium;line-height:normal;font-family:sans-serif;font-variant-ligatures:normal;font-variant-position:normal;font-variant-caps:normal;font-variant-numeric:normal;font-variant-alternates:normal;font-feature-settings:normal;text-indent:0;text-align:start;text-decoration:none;text-decoration-line:none;text-decoration-style:solid;text-decoration-color:#000000;letter-spacing:normal;word-spacing:normal;text-transform:none;writing-mode:lr-tb;direction:ltr;text-orientation:mixed;dominant-baseline:auto;baseline-shift:baseline;text-anchor:start;white-space:normal;shape-padding:0;clip-rule:nonzero;display:inline;overflow:visible;visibility:visible;opacity:1;isolation:auto;mix-blend-mode:normal;color-interpolation:sRGB;color-interpolation-filters:linearRGB;solid-color:#000000;solid-opacity:1;vector-effect:none;fill:#000000;fill-opacity:1;fill-rule:nonzero;stroke:none;stroke-width:19.24006081;stroke-linecap:butt;stroke-linejoin:miter;stroke-miterlimit:4;stroke-dasharray:none;stroke-dashoffset:0;stroke-opacity:1;color-rendering:auto;image-rendering:auto;shape-rendering:auto;text-rendering:auto;enable-background:accumulate"
     d="M 292.01758,412.21094 C 150.39341,447.58829 31.005859,433.74219 31.005859,433.74219 l -2.224609,19.11133 c 0,0 122.65598,14.30462 267.89844,-21.97657 z"
     id="path9396"
     inkscape:connector-curvature="0" />
  <path
     style="color:#000000;font-style:normal;font-variant:normal;font-weight:normal;font-stretch:normal;font-size:medium;line-height:normal;font-family:sans-serif;font-variant-ligatures:normal;font-variant-position:normal;font-variant-caps:normal;font-variant-numeric:normal;font-variant-alternates:normal;font-feature-settings:normal;text-indent:0;text-align:start;text-decoration:none;text-decoration-line:none;text-decoration-style:solid;text-decoration-color:#000000;letter-spacing:normal;word-spacing:normal;text-transform:none;writing-mode:lr-tb;direction:ltr;text-orientation:mixed;dominant-baseline:auto;baseline-shift:baseline;text-anchor:start;white-space:normal;shape-padding:0;clip-rule:nonzero;display:inline;overflow:visible;visibility:visible;opacity:1;isolation:auto;mix-blend-mode:normal;color-interpolation:sRGB;color-interpolation-filters:linearRGB;solid-color:#000000;solid-opacity:1;vector-effect:none;fill:#000000;fill-opacity:1;fill-rule:nonzero;stroke:none;stroke-width:19.24006081;stroke-linecap:butt;stroke-linejoin:miter;stroke-miterlimit:4;stroke-dasharray:none;stroke-dashoffset:0;stroke-opacity:1;color-rendering:auto;image-rendering:auto;shape-rendering:auto;text-rendering:auto;enable-background:accumulate"
     d="m 237.38867,606.23633 c -0.16351,0.27653 -0.77538,2.46871 -1.85742,4.76172 -1.44271,3.05734 -3.57413,7.11918 -6.125,11.71875 -5.10174,9.19913 -11.89812,20.60214 -18.66211,31.65429 -13.52798,22.1043 -26.92578,42.82618 -26.92578,42.82618 l 16.15625,10.44726 c 0,0 13.49571,-20.86613 27.18164,-43.22851 6.84296,-11.1812 13.73258,-22.73197 19.07617,-32.36719 2.6718,-4.81761 4.95335,-9.14421 6.69727,-12.83985 1.74391,-3.69563 3.09716,-5.93275 3.5957,-10.41601 l -19.12109,-2.12695 c 0.0446,-0.40104 0.0389,-0.52187 -0.0156,-0.42969 z"
     id="path9398"
     inkscape:connector-curvature="0" />
  <path
     style="color:#000000;font-style:normal;font-variant:normal;font-weight:normal;font-stretch:normal;font-size:medium;line-height:normal;font-family:sans-serif;font-variant-ligatures:normal;font-variant-position:normal;font-variant-caps:normal;font-variant-numeric:normal;font-variant-alternates:normal;font-feature-settings:normal;text-indent:0;text-align:start;text-decoration:none;text-decoration-line:none;text-decoration-style:solid;text-decoration-color:#000000;letter-spacing:normal;word-spacing:normal;text-transform:none;writing-mode:lr-tb;direction:ltr;text-orientation:mixed;dominant-baseline:auto;baseline-shift:baseline;text-anchor:start;white-space:normal;shape-padding:0;clip-rule:nonzero;display:inline;overflow:visible;visibility:visible;opacity:1;isolation:auto;mix-blend-mode:normal;color-interpolation:sRGB;color-interpolation-filters:linearRGB;solid-color:#000000;solid-opacity:1;vector-effect:none;fill:#000000;fill-opacity:1;fill-rule:nonzero;stroke:none;stroke-width:19.24006081;stroke-linecap:butt;stroke-linejoin:miter;stroke-miterlimit:4;stroke-dasharray:none;stroke-dashoffset:0;stroke-opacity:1;color-rendering:auto;image-rendering:auto;shape-rendering:auto;text-rendering:auto;enable-background:accumulate"
     d="m 124.68164,220.74414 c -1.38859,-0.0685 -2.78091,-0.0419 -4.16992,0.084 -22.224176,2.01355 -39.235668,26.15874 -37.474611,61.08204 l 0.236329,4.67773 3.826171,2.69922 c 0,0 9.64841,6.87341 23.406251,9.79492 13.75784,2.92151 33.06978,1.53324 49.53125,-13.81836 l 3.13867,-2.92773 -0.0801,-4.28906 c -0.34785,-18.5486 -4.81815,-32.8949 -12.47265,-42.90235 -6.69769,-8.75652 -16.22129,-13.92059 -25.94141,-14.40039 z m -2.43359,19.24609 c 4.3358,-0.39283 8.72015,1.12829 13.09179,6.84375 3.92257,5.12835 7.28366,14.15536 8.17383,27.17383 -10.4385,8.02688 -20.33158,8.09715 -29.01172,6.25391 -5.27618,-1.12041 -9.3098,-2.87063 -12.20312,-4.36328 0.27081,-24.75999 11.82811,-35.17242 19.94922,-35.90821 z"
     id="path9400"
     inkscape:connector-curvature="0" />
  <path
     style="color:#000000;font-style:normal;font-variant:normal;font-weight:normal;font-stretch:normal;font-size:medium;line-height:normal;font-family:sans-serif;font-variant-ligatures:normal;font-variant-position:normal;font-variant-caps:normal;font-variant-numeric:normal;font-variant-alternates:normal;font-feature-settings:normal;text-indent:0;text-align:start;text-decoration:none;text-decoration-line:none;text-decoration-style:solid;text-decoration-color:#000000;letter-spacing:normal;word-spacing:normal;text-transform:none;writing-mode:lr-tb;direction:ltr;text-orientation:mixed;dominant-baseline:auto;baseline-shift:baseline;text-anchor:start;white-space:normal;shape-padding:0;clip-rule:nonzero;display:inline;overflow:visible;visibility:visible;opacity:1;isolation:auto;mix-blend-mode:normal;color-interpolation:sRGB;color-interpolation-filters:linearRGB;solid-color:#000000;solid-opacity:1;vector-effect:none;fill:#000000;fill-opacity:1;fill-rule:nonzero;stroke:none;stroke-width:19.24006081;stroke-linecap:butt;stroke-linejoin:miter;stroke-miterlimit:4;stroke-dasharray:none;stroke-dashoffset:0;stroke-opacity:1;color-rendering:auto;image-rendering:auto;shape-rendering:auto;text-rendering:auto;enable-background:accumulate"
     d="m 230.68945,193.62305 c -1.63519,0.0447 -3.26647,0.20326 -4.88476,0.47461 -25.89262,4.34148 -44.45162,34.51884 -39.03125,77.21679 l 0.58984,4.64453 4.01953,2.40235 c 0,0 12.3205,7.42555 29.26758,9.70117 16.94708,2.27562 39.93603,-1.06587 58.49805,-21.21484 l 2.90625,-3.15625 -0.40625,-4.27149 c -2.16295,-22.78619 -8.99775,-39.7883 -19.0625,-51.0625 -8.80666,-9.86492 -20.45013,-15.04753 -31.89649,-14.73437 z m 3.02539,19.2539 c 4.77446,0.43268 9.66758,2.86016 14.51758,8.29297 5.94786,6.6626 11.2773,18.45166 13.58399,35.69922 -13.17661,12.35692 -26.80195,13.70996 -38.60547,12.125 -8.35264,-1.12158 -13.96218,-3.38208 -17.68164,-5.125 -2.58326,-32.82312 11.59947,-48.80869 23.45703,-50.79687 1.55888,-0.26139 3.13703,-0.33954 4.72851,-0.19532 z"
     id="path9400-2"
     inkscape:connector-curvature="0" />
  <path
     style="color:#000000;font-style:normal;font-variant:normal;font-weight:normal;font-stretch:normal;font-size:medium;line-height:normal;font-family:sans-serif;font-variant-ligatures:normal;font-variant-position:normal;font-variant-caps:normal;font-variant-numeric:normal;font-variant-alternates:normal;font-feature-settings:normal;text-indent:0;text-align:start;text-decoration:none;text-decoration-line:none;text-decoration-style:solid;text-decoration-color:#000000;letter-spacing:normal;word-spacing:normal;text-transform:none;writing-mode:lr-tb;direction:ltr;text-orientation:mixed;dominant-baseline:auto;baseline-shift:baseline;text-anchor:start;white-space:normal;shape-padding:0;clip-rule:nonzero;display:inline;overflow:visible;visibility:visible;opacity:1;isolation:auto;mix-blend-mode:normal;color-interpolation:sRGB;color-interpolation-filters:linearRGB;solid-color:#000000;solid-opacity:1;vector-effect:none;fill:#000000;fill-opacity:1;fill-rule:nonzero;stroke:none;stroke-width:19.24006081;stroke-linecap:butt;stroke-linejoin:miter;stroke-miterlimit:4;stroke-dasharray:none;stroke-dashoffset:0;stroke-opacity:1;color-rendering:auto;image-rendering:auto;shape-rendering:auto;text-rendering:auto;enable-background:accumulate"
     d="m 353.12109,171.80859 c -1.62175,0.1008 -3.23488,0.31345 -4.83203,0.63868 -25.55437,5.20362 -42.90721,35.79013 -36.0625,77.91992 l 0.75196,4.62109 4.0996,2.25977 c 0,0 12.47197,6.93915 29.35352,8.61133 16.88155,1.67217 39.56915,-2.43946 57.27734,-23.05665 l 2.79688,-3.2539 -0.55469,-4.25586 c -2.92936,-22.50622 -10.29075,-39.1279 -20.66406,-49.96485 -9.07665,-9.48232 -20.81377,-14.22507 -32.16602,-13.51953 z m 3.66016,19.13672 c 4.72067,0.2621 9.6293,2.48689 14.60742,7.6875 6.09984,6.37247 11.77477,17.83687 14.6543,34.80274 -12.59429,12.64267 -25.99805,14.43793 -37.71485,13.27734 -8.25266,-0.81746 -13.86563,-2.84343 -17.61718,-4.43945 -3.66683,-32.35526 9.8066,-48.60824 21.41797,-50.97266 1.52732,-0.31101 3.07878,-0.44283 4.65234,-0.35547 z"
     id="path9400-6"
     inkscape:connector-curvature="0" />
  <path
     style="color:#000000;font-style:normal;font-variant:normal;font-weight:normal;font-stretch:normal;font-size:medium;line-height:normal;font-family:sans-serif;font-variant-ligatures:normal;font-variant-position:normal;font-variant-caps:normal;font-variant-numeric:normal;font-variant-alternates:normal;font-feature-settings:normal;text-indent:0;text-align:start;text-decoration:none;text-decoration-line:none;text-decoration-style:solid;text-decoration-color:#000000;letter-spacing:normal;word-spacing:normal;text-transform:none;writing-mode:lr-tb;direction:ltr;text-orientation:mixed;dominant-baseline:auto;baseline-shift:baseline;text-anchor:start;white-space:normal;shape-padding:0;clip-rule:nonzero;display:inline;overflow:visible;visibility:visible;opacity:1;isolation:auto;mix-blend-mode:normal;color-interpolation:sRGB;color-interpolation-filters:linearRGB;solid-color:#000000;solid-opacity:1;vector-effect:none;fill:#000000;fill-opacity:1;fill-rule:nonzero;stroke:none;stroke-width:19.24006081;stroke-linecap:butt;stroke-linejoin:miter;stroke-miterlimit:4;stroke-dasharray:none;stroke-dashoffset:0;stroke-opacity:1;color-rendering:auto;image-rendering:auto;shape-rendering:auto;text-rendering:auto;enable-background:accumulate"
     d="m 490.19336,171.40625 c -1.56061,0.0821 -3.11533,0.27179 -4.6543,0.57031 -24.62341,4.77629 -41.42298,33.96011 -35.27929,74.13282 l 0.70703,4.6289 4.08008,2.29688 c 0,0 11.8471,6.74022 27.94921,8.48632 16.10212,1.74611 37.86034,-2.00416 54.94532,-21.52539 l 2.82617,-3.22851 -0.51367,-4.25977 c -2.58834,-21.44323 -9.44847,-37.37437 -19.28516,-47.84375 -8.6071,-9.1607 -19.85114,-13.83271 -30.77539,-13.25781 z m 3.29492,19.16797 c 4.3437,0.27713 8.85412,2.36666 13.45703,7.26562 5.61066,5.97153 10.83271,16.72582 13.41797,32.625 -11.88315,11.60189 -24.3505,13.11629 -35.29297,11.92969 -7.48097,-0.81123 -12.67293,-2.67951 -16.25195,-4.20898 -3.06468,-30.34573 9.7155,-45.25076 20.38476,-47.32032 1.40791,-0.27309 2.83726,-0.38339 4.28516,-0.29101 z"
     id="path9400-7"
     inkscape:connector-curvature="0" />
  <path
     style="color:#000000;font-style:normal;font-variant:normal;font-weight:normal;font-stretch:normal;font-size:medium;line-height:normal;font-family:sans-serif;font-variant-ligatures:normal;font-variant-position:normal;font-variant-caps:normal;font-variant-numeric:normal;font-variant-alternates:normal;font-feature-settings:normal;text-indent:0;text-align:start;text-decoration:none;text-decoration-line:none;text-decoration-style:solid;text-decoration-color:#000000;letter-spacing:normal;word-spacing:normal;text-transform:none;writing-mode:lr-tb;direction:ltr;text-orientation:mixed;dominant-baseline:auto;baseline-shift:baseline;text-anchor:start;white-space:normal;shape-padding:0;clip-rule:nonzero;display:inline;overflow:visible;visibility:visible;opacity:1;isolation:auto;mix-blend-mode:normal;color-interpolation:sRGB;color-interpolation-filters:linearRGB;solid-color:#000000;solid-opacity:1;vector-effect:none;fill:#000000;fill-opacity:1;fill-rule:nonzero;stroke:none;stroke-width:19.24006081;stroke-linecap:butt;stroke-linejoin:miter;stroke-miterlimit:4;stroke-dasharray:none;stroke-dashoffset:0;stroke-opacity:1;color-rendering:auto;image-rendering:auto;shape-rendering:auto;text-rendering:auto;enable-background:accumulate"
     d="m 449.16016,388.35742 -9.94922,16.46875 c 0,0 18.47171,10.07934 17.88867,35.73242 -7.24623,0.43337 -18.70363,0.7219 -33.41406,-2.00195 -10.58397,-1.95978 -21.25091,-5.49759 -29.60547,-11.13867 -8.35456,-5.64108 -14.50402,-13.01685 -17.42188,-24.28125 l -18.625,4.82422 c 4.12575,15.92746 13.82569,27.66743 25.28125,35.40234 11.45557,7.73491 24.55946,11.83433 36.86719,14.11328 24.61547,4.55792 46.93164,1.76953 46.93164,1.76953 l 7.21094,-0.87304 1.13476,-7.17578 c 6.57069,-41.58079 -26.29882,-62.83985 -26.29882,-62.83985 z"
     id="path9437"
     inkscape:connector-curvature="0" />
</svg>
