<?xml version="1.0" encoding="UTF-8" standalone="no"?>
<!-- Created with Inkscape (http://www.inkscape.org/) -->

<svg
   xmlns:dc="http://purl.org/dc/elements/1.1/"
   xmlns:cc="http://creativecommons.org/ns#"
   xmlns:rdf="http://www.w3.org/1999/02/22-rdf-syntax-ns#"
   xmlns:svg="http://www.w3.org/2000/svg"
   xmlns="http://www.w3.org/2000/svg"
   xmlns:sodipodi="http://sodipodi.sourceforge.net/DTD/sodipodi-0.dtd"
   xmlns:inkscape="http://www.inkscape.org/namespaces/inkscape"
   version="1.1"
   id="svg10"
   width="1000"
   height="1000"
   viewBox="0 0 1000 1000"
   sodipodi:docname="I.svg"
   inkscape:version="0.92.4 (5da689c313, 2019-01-14)">
  <metadata
     id="metadata16">
    <rdf:RDF>
      <cc:Work
         rdf:about="">
        <dc:format>image/svg+xml</dc:format>
        <dc:type
           rdf:resource="http://purl.org/dc/dcmitype/StillImage" />
        <dc:title />
      </cc:Work>
    </rdf:RDF>
  </metadata>
  <defs
     id="defs14">
    <clipPath
       clipPathUnits="userSpaceOnUse"
       id="clipPath827">
      <rect
         style="opacity:1;fill:#d38d5f;fill-opacity:0;stroke:#ff0000;stroke-width:3.00974727;stroke-miterlimit:4;stroke-dasharray:none"
         id="rect829"
         width="996.99023"
         height="996.99023"
         x="1.5048736"
         y="1.5048529"
         transform="rotate(-90)" />
    </clipPath>
  </defs>
  <sodipodi:namedview
     pagecolor="#ffffff"
     bordercolor="#666666"
     borderopacity="1"
     objecttolerance="10"
     gridtolerance="10"
     guidetolerance="10"
     inkscape:pageopacity="0"
     inkscape:pageshadow="2"
     inkscape:window-width="1366"
     inkscape:window-height="715"
     id="namedview12"
     showgrid="false"
     inkscape:zoom="0.31597223"
     inkscape:cx="417.556"
     inkscape:cy="684.46054"
     inkscape:window-x="-8"
     inkscape:window-y="-8"
     inkscape:window-maximized="1"
     inkscape:current-layer="svg10" />
  <path
     style="color:#000000;font-style:normal;font-variant:normal;font-weight:normal;font-stretch:normal;font-size:medium;line-height:normal;font-family:sans-serif;font-variant-ligatures:normal;font-variant-position:normal;font-variant-caps:normal;font-variant-numeric:normal;font-variant-alternates:normal;font-feature-settings:normal;text-indent:0;text-align:start;text-decoration:none;text-decoration-line:none;text-decoration-style:solid;text-decoration-color:#000000;letter-spacing:normal;word-spacing:normal;text-transform:none;writing-mode:lr-tb;direction:ltr;text-orientation:mixed;dominant-baseline:auto;baseline-shift:baseline;text-anchor:start;white-space:normal;shape-padding:0;clip-rule:nonzero;display:inline;overflow:visible;visibility:visible;opacity:1;isolation:auto;mix-blend-mode:normal;color-interpolation:sRGB;color-interpolation-filters:linearRGB;solid-color:#000000;solid-opacity:1;vector-effect:none;fill:#000000;fill-opacity:1;fill-rule:nonzero;stroke:none;stroke-width:25.10970306;stroke-linecap:butt;stroke-linejoin:miter;stroke-miterlimit:4;stroke-dasharray:none;stroke-dashoffset:0;stroke-opacity:1;color-rendering:auto;image-rendering:auto;shape-rendering:auto;text-rendering:auto;enable-background:accumulate"
     d="m 227.83594,233.12109 c -17.9599,0.4408 -35.05732,7.20625 -49.08985,18.98243 -35.83313,30.07137 -53.55209,90.12717 -39.6914,164.79101 -11.57855,4.74024 -28.41501,9.27578 -46.457034,11.13086 -22.739399,2.33807 -47.208254,0.55996 -65.65625,-7.35937 l -5.947265,-2.55274 -5.529297,3.36133 c 0,0 -1.345453,0.92202 -1.851563,1.375 -0.50611,0.45298 -0.910609,0.887 -1.248047,1.28906 -0.674875,0.80413 -1.08824,1.47635 -1.40039,2.04297 -0.6243,1.13324 -0.864569,1.87614 -1.0625002,2.50977 -0.3958627,1.26726 -0.5380838,2.1258 -0.7050782,3.24414 -0.3339887,2.23666 -0.6291699,5.38376 -0.9316406,11.21679 -0.6049414,11.66607 -1.1627,33.88987 -1.0839844,77.47461 l 0.00195,1.14258 0.2089843,1.12109 c 4.4786179,24.17877 -0.7441406,51.78126 -0.7441406,51.78126 L 6.625,574.78906 6.6035156,574.90625 C -18.051754,710.47753 45.35842,809.94017 48.597656,814.91211 77.96677,871.9456 88.149759,915.50645 91.158203,945.61719 c 1.506701,15.08018 1.215682,26.78684 0.560547,35.26758 -0.327567,4.24036 -0.746536,7.66503 -1.103516,10.41796 -0.356979,2.75294 -0.730349,4.30193 -0.763672,7.38282 l 25.107418,0.27148 c -0.009,0.87119 0.18162,-1.51863 0.5586,-4.42578 0.37697,-2.90715 0.86175,-6.86393 1.23633,-11.71289 0.74916,-9.69792 1.05607,-23.00869 -0.61133,-39.69727 -3.3348,-33.37716 -14.57303,-80.27907 -45.363283,-139.99023 l -0.322266,-0.625 -0.390625,-0.58594 c 0,0 -62.2619264,-93.28003 -38.757812,-222.52148 l -0.04492,0.23242 c 0,0 6.229221,-29.60329 1.03125,-59.78516 -0.06204,-38.77487 0.405299,-58.99079 0.90625,-70.64648 20.152613,5.34534 41.799903,5.87805 61.964844,3.80469 25.682914,-2.64073 48.710824,-9.24678 64.199214,-17.87305 l 8.15821,-4.54297 -2.00586,-9.12109 c -16.03367,-72.93441 2.23351,-127.35653 29.36914,-150.12891 13.56781,-11.38619 28.8171,-15.6022 45.84961,-11.94922 17.03251,3.65298 36.40253,15.89928 55.25781,40.44922 l 4.46875,5.81836 7.26563,-1.03711 c 0.002,-3.1e-4 3.27253,-0.92241 3.73242,-1.14648 0.45988,-0.22408 0.66649,-0.34863 0.83594,-0.44727 0.33888,-0.19728 0.46816,-0.28481 0.58593,-0.36133 0.23555,-0.15303 0.34935,-0.2318 0.47852,-0.32031 0.25833,-0.17702 0.51666,-0.35691 0.85156,-0.58789 0.6698,-0.46197 1.60686,-1.10336 2.82031,-1.90039 2.42692,-1.59407 5.9362,-3.7967 10.25196,-6.18555 8.6315,-4.77769 20.50606,-10.25371 32.97851,-13.1582 12.47245,-2.90449 25.24191,-3.226 36.7461,1.17969 11.50418,4.40568 22.57958,13.38789 32.12304,32.61132 l 13.71289,27.6211 9.47852,-29.34571 c 2.46991,-7.64621 11.66156,-16.20721 25.27148,-21.07226 13.60993,-4.86505 30.72272,-5.84172 45.75391,-1.1582 15.03119,4.68351 28.07436,14.35302 36.26953,32.39648 8.19517,18.04347 11.36241,45.32166 2.91016,84.67383 l -0.57032,2.64844 0.57618,2.64843 c 7.40463,34.13809 33.65859,76.60283 53.89648,118.11524 10.11895,20.7562 18.72202,40.99546 22.88477,58.1582 4.16274,17.16274 3.62314,30.38216 -1.35352,39.03906 -19.50638,33.93123 -61.33942,65.5986 -84.54297,104.30469 -35.02717,58.42915 -73.19645,103.74813 -97.07031,122.99609 -1.86444,0.67531 -3.73272,1.57135 -5.40039,2.91797 -5.02307,4.05607 -8.26413,10.07736 -10.85547,19.37696 -5.18267,18.59919 -7.97309,52.28859 -2.89258,121.94726 l 25.04297,-1.82617 c -4.98354,-68.32905 -1.53421,-100.55734 2.03906,-113.38086 0.68883,-2.47202 1.26027,-3.57373 1.7793,-4.65039 l 3.83203,-2.9707 c 28.88147,-22.38766 68.0121,-69.69915 105.06055,-131.5 19.08727,-31.83969 61.29189,-63.85178 84.77539,-104.70117 9.74368,-16.94914 8.92536,-37.10736 3.98633,-57.47071 -4.93904,-20.36335 -14.25998,-41.79889 -24.71485,-63.24414 -20.38171,-41.80741 -44.97192,-84.57891 -51.33007,-110.33398 8.39238,-41.33821 5.62348,-73.32575 -5.18946,-97.13281 -11.09672,-24.43187 -30.74974,-39.46776 -51.66406,-45.98438 -20.91432,-6.51662 -42.99627,-5.19022 -61.67383,1.48633 -10.89755,3.89548 -20.87613,9.73786 -28.51953,17.47461 -10.08107,-13.33639 -22.00586,-22.25734 -34.63477,-27.09375 -17.60304,-6.74133 -35.67595,-5.85234 -51.42187,-2.18555 -15.74593,3.66679 -29.46625,10.12203 -39.44336,15.64453 -2.74163,1.51754 -4.39814,2.63088 -6.52734,3.93945 -19.55025,-22.54855 -40.93876,-36.15794 -62.59571,-40.80273 -6.09649,-1.30752 -12.17938,-1.86373 -18.16601,-1.7168 z"
     id="path6231"
     inkscape:connector-curvature="0" />
  <path
     style="color:#000000;font-style:normal;font-variant:normal;font-weight:normal;font-stretch:normal;font-size:medium;line-height:normal;font-family:sans-serif;font-variant-ligatures:normal;font-variant-position:normal;font-variant-caps:normal;font-variant-numeric:normal;font-variant-alternates:normal;font-feature-settings:normal;text-indent:0;text-align:start;text-decoration:none;text-decoration-line:none;text-decoration-style:solid;text-decoration-color:#000000;letter-spacing:normal;word-spacing:normal;text-transform:none;writing-mode:lr-tb;direction:ltr;text-orientation:mixed;dominant-baseline:auto;baseline-shift:baseline;text-anchor:start;white-space:normal;shape-padding:0;clip-rule:nonzero;display:inline;overflow:visible;visibility:visible;opacity:1;isolation:auto;mix-blend-mode:normal;color-interpolation:sRGB;color-interpolation-filters:linearRGB;solid-color:#000000;solid-opacity:1;vector-effect:none;fill:#000000;fill-opacity:1;fill-rule:nonzero;stroke:none;stroke-width:25.10970306;stroke-linecap:butt;stroke-linejoin:miter;stroke-miterlimit:4;stroke-dasharray:none;stroke-dashoffset:0;stroke-opacity:1;color-rendering:auto;image-rendering:auto;shape-rendering:auto;text-rendering:auto;enable-background:accumulate"
     d="m 318.36914,290.34961 -24.83789,3.67969 c 21.62032,145.9011 4.13086,117.53664 4.30273,159.21484 l 0.002,0.39453 0.0273,0.39453 c 0.80247,11.96806 4.70592,19.6748 6.68555,23.61328 1.97963,3.93848 2.80244,4.60411 2.51172,13.94727 l -0.0469,1.48242 0.30078,1.45313 c 0,0 0.67074,1.64393 -1.03125,8.24609 -1.70199,6.60216 -6.07032,16.79603 -18.0664,29.4375 -10.78808,11.3685 -20.61999,13.13989 -30.74414,11.99805 -10.12415,-1.14184 -20.28784,-6.44499 -26.1211,-10.65821 l -1.14844,-0.83007 -1.30273,-0.55274 c 0,0 -2.78811,-1.06592 -8.79883,-5.7207 -6.01072,-4.65478 -14.39033,-12.52196 -23.04687,-25.17188 C 179.7416,475.97752 161.13365,431.3875 159.63477,354.4707 l -25.10352,0.49024 c 1.57458,80.80106 21.42525,130.71822 41.80273,160.49609 10.18875,14.88894 20.46338,24.70371 28.39454,30.8457 6.38505,4.94468 10.85973,7.22586 12.73046,8.13282 8.52204,6.02831 21.35143,12.93919 37.19922,14.72656 16.30339,1.83876 35.96379,-3.00381 51.77344,-19.66406 14.60171,-15.38728 21.37516,-29.62912 24.16602,-40.45508 2.79085,-10.82596 1.30664,-19.60352 1.30664,-19.60352 l 0.2539,2.93555 c 0.3908,-12.55947 -2.71434,-21.11272 -5.17382,-26.00586 -2.40373,-4.78221 -3.45001,-5.69534 -4.02149,-13.55859 -0.006,-33.46871 17.17107,-15.58469 -4.59375,-162.46094 z"
     id="path6237"
     inkscape:connector-curvature="0" />
  <path
     style="color:#000000;font-style:normal;font-variant:normal;font-weight:normal;font-stretch:normal;font-size:medium;line-height:normal;font-family:sans-serif;font-variant-ligatures:normal;font-variant-position:normal;font-variant-caps:normal;font-variant-numeric:normal;font-variant-alternates:normal;font-feature-settings:normal;text-indent:0;text-align:start;text-decoration:none;text-decoration-line:none;text-decoration-style:solid;text-decoration-color:#000000;letter-spacing:normal;word-spacing:normal;text-transform:none;writing-mode:lr-tb;direction:ltr;text-orientation:mixed;dominant-baseline:auto;baseline-shift:baseline;text-anchor:start;white-space:normal;shape-padding:0;clip-rule:nonzero;display:inline;overflow:visible;visibility:visible;opacity:1;isolation:auto;mix-blend-mode:normal;color-interpolation:sRGB;color-interpolation-filters:linearRGB;solid-color:#000000;solid-opacity:1;vector-effect:none;fill:#000000;fill-opacity:1;fill-rule:nonzero;stroke:none;stroke-width:19.50530052;stroke-linecap:butt;stroke-linejoin:miter;stroke-miterlimit:4;stroke-dasharray:none;stroke-dashoffset:0;stroke-opacity:1;color-rendering:auto;image-rendering:auto;shape-rendering:auto;text-rendering:auto;enable-background:accumulate"
     d="m 449.9082,306.6543 -19.0625,4.13086 c 0,0 8.82465,42.45445 4.18946,74.89257 l 19.31054,2.75782 c 5.42897,-37.99312 -4.4375,-81.78125 -4.4375,-81.78125 z"
     id="path6239"
     inkscape:connector-curvature="0" />
  <path
     style="color:#000000;font-style:normal;font-variant:normal;font-weight:normal;font-stretch:normal;font-size:medium;line-height:normal;font-family:sans-serif;font-variant-ligatures:normal;font-variant-position:normal;font-variant-caps:normal;font-variant-numeric:normal;font-variant-alternates:normal;font-feature-settings:normal;text-indent:0;text-align:start;text-decoration:none;text-decoration-line:none;text-decoration-style:solid;text-decoration-color:#000000;letter-spacing:normal;word-spacing:normal;text-transform:none;writing-mode:lr-tb;direction:ltr;text-orientation:mixed;dominant-baseline:auto;baseline-shift:baseline;text-anchor:start;white-space:normal;shape-padding:0;clip-rule:nonzero;display:inline;overflow:visible;visibility:visible;opacity:1;isolation:auto;mix-blend-mode:normal;color-interpolation:sRGB;color-interpolation-filters:linearRGB;solid-color:#000000;solid-opacity:1;vector-effect:none;fill:#000000;fill-opacity:1;fill-rule:nonzero;stroke:none;stroke-width:25.10970306;stroke-linecap:butt;stroke-linejoin:miter;stroke-miterlimit:4;stroke-dasharray:none;stroke-dashoffset:0;stroke-opacity:1;color-rendering:auto;image-rendering:auto;shape-rendering:auto;text-rendering:auto;enable-background:accumulate"
     d="m 520.87695,358.72461 c -8.33373,-0.0516 -16.92467,1.16255 -25.80468,3.01172 -35.26919,7.34441 -78.73398,24.88924 -147.16993,31.34179 -0.10189,-0.003 -0.2458,-0.0252 -0.34179,-0.0273 -2.07331,-0.0457 -3.0625,0.23212 -3.99805,0.45703 -1.87111,0.44983 -3.21015,0.98873 -4.74414,1.65625 -3.06798,1.33505 -6.54611,3.22138 -10.39648,5.76758 -7.70076,5.09241 -16.7918,12.70116 -23.36719,23.57031 -6.57539,10.86915 -10.14675,25.77702 -5.20899,41.33985 4.79205,15.10356 16.65746,29.99306 37.2461,45.05273 0.27798,0.27854 0.44817,0.42406 0.5039,0.37891 0.23151,0.16816 0.43621,0.3357 0.66992,0.5039 0.14239,0.11952 0.27576,0.23028 0.40235,0.33204 0.33402,0.26849 0.70786,0.56036 1.17383,0.91406 0.93193,0.70738 2.20483,1.64163 3.82226,2.77148 3.23486,2.2597 7.82885,5.28488 13.56446,8.61328 11.4712,6.65681 27.49053,14.54391 46.34179,19.70313 37.70252,10.31844 88.53016,8.32978 128.88477,-37.34571 l -18.81836,-16.625 c -33.95951,38.43717 -71.38318,38.5246 -103.4375,29.75196 -16.02716,-4.38632 -30.26103,-11.33651 -40.36719,-17.20117 -5.05308,-2.93234 -9.08072,-5.58857 -11.78906,-7.48047 -1.02822,-0.71826 -1.66848,-1.19805 -2.29297,-1.66211 l -0.12305,-0.20508 -0.39648,-0.2832 c 0.022,0.0197 0.12614,0.19538 0.15234,0.22265 -0.0871,-0.0654 -0.28329,-0.20397 -0.35937,-0.26172 -0.0985,-0.0748 -0.11398,-0.0872 -0.19336,-0.14843 0.0236,-0.005 0.0781,0.009 0.0996,-0.0254 l -1.43164,-1.02149 c -19.02369,-13.57102 -27.05507,-25.18274 -29.71875,-33.57812 -2.66368,-8.39539 -1.04415,-14.46016 2.75976,-20.74805 3.80392,-6.28789 10.28265,-12.02114 15.73242,-15.625 2.6787,-1.77138 5.09176,-3.02452 6.45508,-3.625 l 0.0625,-0.006 c 72.56589,-6.63847 119.99376,-25.3857 151.40039,-31.92578 15.70332,-3.27004 26.49009,-3.435 35.42383,0.22461 8.93375,3.65961 17.89769,11.7847 28.32422,29.80078 l 21.73242,-12.57813 c -11.95536,-20.65776 -24.84565,-34.03114 -40.53711,-40.45898 -7.84573,-3.21392 -15.92212,-4.53039 -24.25586,-4.58203 z"
     id="path6241"
     inkscape:connector-curvature="0" />
  <path
     style="color:#000000;font-style:normal;font-variant:normal;font-weight:normal;font-stretch:normal;font-size:medium;line-height:normal;font-family:sans-serif;font-variant-ligatures:normal;font-variant-position:normal;font-variant-caps:normal;font-variant-numeric:normal;font-variant-alternates:normal;font-feature-settings:normal;text-indent:0;text-align:start;text-decoration:none;text-decoration-line:none;text-decoration-style:solid;text-decoration-color:#000000;letter-spacing:normal;word-spacing:normal;text-transform:none;writing-mode:lr-tb;direction:ltr;text-orientation:mixed;dominant-baseline:auto;baseline-shift:baseline;text-anchor:start;white-space:normal;shape-padding:0;clip-rule:nonzero;display:inline;overflow:visible;visibility:visible;opacity:1;isolation:auto;mix-blend-mode:normal;color-interpolation:sRGB;color-interpolation-filters:linearRGB;solid-color:#000000;solid-opacity:1;vector-effect:none;fill:#000000;fill-opacity:1;fill-rule:nonzero;stroke:none;stroke-width:25.10970306;stroke-linecap:butt;stroke-linejoin:miter;stroke-miterlimit:4;stroke-dasharray:none;stroke-dashoffset:0;stroke-opacity:1;color-rendering:auto;image-rendering:auto;shape-rendering:auto;text-rendering:auto;enable-background:accumulate"
     d="m 470.80078,534.93359 -24.90234,3.21875 c 2.92296,22.60206 19.85095,37.89211 35.78515,53.13282 15.93421,15.24071 32.00255,30.58747 39.91797,48.73632 l 23.01563,-10.0371 c -10.68356,-24.4958 -29.85122,-41.80514 -45.57617,-56.84571 -15.72496,-15.04056 -26.87613,-27.65704 -28.24024,-38.20508 z"
     id="path6243"
     inkscape:connector-curvature="0" />
  <path
     style="color:#000000;font-style:normal;font-variant:normal;font-weight:normal;font-stretch:normal;font-size:medium;line-height:normal;font-family:sans-serif;font-variant-ligatures:normal;font-variant-position:normal;font-variant-caps:normal;font-variant-numeric:normal;font-variant-alternates:normal;font-feature-settings:normal;text-indent:0;text-align:start;text-decoration:none;text-decoration-line:none;text-decoration-style:solid;text-decoration-color:#000000;letter-spacing:normal;word-spacing:normal;text-transform:none;writing-mode:lr-tb;direction:ltr;text-orientation:mixed;dominant-baseline:auto;baseline-shift:baseline;text-anchor:start;white-space:normal;shape-padding:0;clip-rule:nonzero;display:inline;overflow:visible;visibility:visible;opacity:1;isolation:auto;mix-blend-mode:normal;color-interpolation:sRGB;color-interpolation-filters:linearRGB;solid-color:#000000;solid-opacity:1;vector-effect:none;fill:#000000;fill-opacity:1;fill-rule:nonzero;stroke:none;stroke-width:25.10970306;stroke-linecap:butt;stroke-linejoin:miter;stroke-miterlimit:4;stroke-dasharray:none;stroke-dashoffset:0;stroke-opacity:1;color-rendering:auto;image-rendering:auto;shape-rendering:auto;text-rendering:auto;enable-background:accumulate"
     d="m 520.76172,592.42969 c -1.5236,-0.0566 -3.1731,0.0302 -5.13672,0.39648 -1.96362,0.36626 -4.50975,0.99932 -7.31836,3.36719 -2.80861,2.36787 -5.00391,7.10011 -5.00391,10.78125 h 25.10938 c 0,2.69295 -1.81879,6.64295 -3.92188,8.41601 -2.10308,1.77307 -3.61507,1.99853 -4.26171,2.11915 -1.29329,0.24122 -0.19838,0.0186 1.39257,0.24414 3.18191,0.45105 8.92637,1.90258 14.64649,3.65234 11.44023,3.49952 23.21289,8.05273 23.21289,8.05273 l 9.08203,-23.41015 c 0,0 -12.30962,-4.7873 -24.95117,-8.6543 -6.32078,-1.9335 -12.61803,-3.67285 -18.4668,-4.50195 -1.46219,-0.20728 -2.85922,-0.40634 -4.38281,-0.46289 z"
     id="path6245"
     inkscape:connector-curvature="0" />
  <path
     style="color:#000000;font-style:normal;font-variant:normal;font-weight:normal;font-stretch:normal;font-size:medium;line-height:normal;font-family:sans-serif;font-variant-ligatures:normal;font-variant-position:normal;font-variant-caps:normal;font-variant-numeric:normal;font-variant-alternates:normal;font-feature-settings:normal;text-indent:0;text-align:start;text-decoration:none;text-decoration-line:none;text-decoration-style:solid;text-decoration-color:#000000;letter-spacing:normal;word-spacing:normal;text-transform:none;writing-mode:lr-tb;direction:ltr;text-orientation:mixed;dominant-baseline:auto;baseline-shift:baseline;text-anchor:start;white-space:normal;shape-padding:0;clip-rule:nonzero;display:inline;overflow:visible;visibility:visible;opacity:1;isolation:auto;mix-blend-mode:normal;color-interpolation:sRGB;color-interpolation-filters:linearRGB;solid-color:#000000;solid-opacity:1;vector-effect:none;fill:#000000;fill-opacity:1;fill-rule:nonzero;stroke:none;stroke-width:18.8322773;stroke-linecap:butt;stroke-linejoin:miter;stroke-miterlimit:4;stroke-dasharray:none;stroke-dashoffset:0;stroke-opacity:1;color-rendering:auto;image-rendering:auto;shape-rendering:auto;text-rendering:auto;enable-background:accumulate"
     d="m 301.58398,533.37891 c -13.13817,11.37936 -37.4357,35.4246 -65.17578,59.42578 -27.74007,24.00117 -59.01671,47.67772 -82.75781,57.17187 l 6.99219,17.48633 c 28.22367,-11.28675 59.76184,-35.90784 88.08789,-60.41601 28.32605,-24.50818 53.34749,-49.18369 65.18164,-59.4336 z"
     id="path6247"
     inkscape:connector-curvature="0" />
  <path
     style="color:#000000;font-style:normal;font-variant:normal;font-weight:normal;font-stretch:normal;font-size:medium;line-height:normal;font-family:sans-serif;font-variant-ligatures:normal;font-variant-position:normal;font-variant-caps:normal;font-variant-numeric:normal;font-variant-alternates:normal;font-feature-settings:normal;text-indent:0;text-align:start;text-decoration:none;text-decoration-line:none;text-decoration-style:solid;text-decoration-color:#000000;letter-spacing:normal;word-spacing:normal;text-transform:none;writing-mode:lr-tb;direction:ltr;text-orientation:mixed;dominant-baseline:auto;baseline-shift:baseline;text-anchor:start;white-space:normal;shape-padding:0;clip-rule:nonzero;display:inline;overflow:visible;visibility:visible;opacity:1;isolation:auto;mix-blend-mode:normal;color-interpolation:sRGB;color-interpolation-filters:linearRGB;solid-color:#000000;solid-opacity:1;vector-effect:none;fill:#000000;fill-opacity:1;fill-rule:nonzero;stroke:none;stroke-width:18.8322773;stroke-linecap:butt;stroke-linejoin:miter;stroke-miterlimit:4;stroke-dasharray:none;stroke-dashoffset:0;stroke-opacity:1;color-rendering:auto;image-rendering:auto;shape-rendering:auto;text-rendering:auto;enable-background:accumulate"
     d="m 322.19336,550.59766 c -10.85821,19.22198 -32.90664,61.62028 -52.64648,99.85156 -9.86993,19.11564 -19.13788,37.14891 -26.0625,50.58594 -3.46232,6.71851 -6.3406,12.2897 -8.40626,16.25781 -1.03282,1.98405 -1.86386,3.57125 -2.45117,4.67578 -0.5873,1.10453 -1.53862,2.58107 -0.64453,1.24023 l 15.66797,10.44727 c 1.15281,-1.72884 0.96778,-1.65203 1.60352,-2.84766 0.63574,-1.19562 1.48335,-2.81106 2.52929,-4.82031 2.09189,-4.0185 4.97493,-9.59957 8.44141,-16.32617 6.93297,-13.45321 16.19488,-31.4762 26.05469,-50.57227 19.71962,-38.19212 41.92409,-80.84362 52.31054,-99.23046 z"
     id="path6249"
     inkscape:connector-curvature="0" />
  <path
     style="color:#000000;font-style:normal;font-variant:normal;font-weight:normal;font-stretch:normal;font-size:medium;line-height:normal;font-family:sans-serif;font-variant-ligatures:normal;font-variant-position:normal;font-variant-caps:normal;font-variant-numeric:normal;font-variant-alternates:normal;font-feature-settings:normal;text-indent:0;text-align:start;text-decoration:none;text-decoration-line:none;text-decoration-style:solid;text-decoration-color:#000000;letter-spacing:normal;word-spacing:normal;text-transform:none;writing-mode:lr-tb;direction:ltr;text-orientation:mixed;dominant-baseline:auto;baseline-shift:baseline;text-anchor:start;white-space:normal;shape-padding:0;clip-rule:nonzero;display:inline;overflow:visible;visibility:visible;opacity:1;isolation:auto;mix-blend-mode:normal;color-interpolation:sRGB;color-interpolation-filters:linearRGB;solid-color:#000000;solid-opacity:1;vector-effect:none;fill:#000000;fill-opacity:1;fill-rule:nonzero;stroke:none;stroke-width:25.10970306;stroke-linecap:butt;stroke-linejoin:miter;stroke-miterlimit:4;stroke-dasharray:none;stroke-dashoffset:0;stroke-opacity:1;color-rendering:auto;image-rendering:auto;shape-rendering:auto;text-rendering:auto;enable-background:accumulate"
     d="m 293.75,527.83594 c -1.71378,7.07155 0.31081,14.4892 3.83984,19.78906 3.52904,5.29986 8.27577,9.18715 13.63086,12.48438 10.71019,6.59445 24.28775,10.86737 38.84766,12.79687 14.55991,1.9295 30.06454,1.44994 44.28516,-3.23633 14.22061,-4.68627 27.58036,-14.37391 33.91406,-29.79492 l -23.22656,-9.53906 c -3.15735,7.68735 -9.20303,12.40715 -18.54688,15.48633 -9.34385,3.07917 -21.56128,3.7241 -33.12695,2.1914 -11.56567,-1.5327 -22.51626,-5.30698 -28.98047,-9.28711 -3.23211,-1.99006 -5.23467,-4.02367 -5.89649,-5.01758 -0.66181,-0.9939 -0.26865,-0.24468 -0.33789,0.041 z"
     id="path6251"
     inkscape:connector-curvature="0" />
  <path
     style="color:#000000;font-style:normal;font-variant:normal;font-weight:normal;font-stretch:normal;font-size:medium;line-height:normal;font-family:sans-serif;font-variant-ligatures:normal;font-variant-position:normal;font-variant-caps:normal;font-variant-numeric:normal;font-variant-alternates:normal;font-feature-settings:normal;text-indent:0;text-align:start;text-decoration:none;text-decoration-line:none;text-decoration-style:solid;text-decoration-color:#000000;letter-spacing:normal;word-spacing:normal;text-transform:none;writing-mode:lr-tb;direction:ltr;text-orientation:mixed;dominant-baseline:auto;baseline-shift:baseline;text-anchor:start;white-space:normal;shape-padding:0;clip-rule:nonzero;display:inline;overflow:visible;visibility:visible;opacity:1;isolation:auto;mix-blend-mode:normal;color-interpolation:sRGB;color-interpolation-filters:linearRGB;solid-color:#000000;solid-opacity:1;vector-effect:none;fill:#000000;fill-opacity:1;fill-rule:nonzero;stroke:none;stroke-width:18.8322773;stroke-linecap:butt;stroke-linejoin:miter;stroke-miterlimit:4;stroke-dasharray:none;stroke-dashoffset:0;stroke-opacity:1;color-rendering:auto;image-rendering:auto;shape-rendering:auto;text-rendering:auto;enable-background:accumulate"
     d="m 289.69141,765.45508 -16.36329,9.32226 c 67.03912,117.66269 180.34375,106.02735 180.34376,106.02735 l -2.14844,-18.70899 c 0,0 -99.47669,12.8014 -161.83203,-96.64062 z"
     id="path6253"
     inkscape:connector-curvature="0" />
  <path
     style="color:#000000;font-style:normal;font-variant:normal;font-weight:normal;font-stretch:normal;font-size:medium;line-height:normal;font-family:sans-serif;font-variant-ligatures:normal;font-variant-position:normal;font-variant-caps:normal;font-variant-numeric:normal;font-variant-alternates:normal;font-feature-settings:normal;text-indent:0;text-align:start;text-decoration:none;text-decoration-line:none;text-decoration-style:solid;text-decoration-color:#000000;letter-spacing:normal;word-spacing:normal;text-transform:none;writing-mode:lr-tb;direction:ltr;text-orientation:mixed;dominant-baseline:auto;baseline-shift:baseline;text-anchor:start;white-space:normal;shape-padding:0;clip-rule:nonzero;display:inline;overflow:visible;visibility:visible;opacity:1;isolation:auto;mix-blend-mode:normal;color-interpolation:sRGB;color-interpolation-filters:linearRGB;solid-color:#000000;solid-opacity:1;vector-effect:none;fill:#000000;fill-opacity:1;fill-rule:nonzero;stroke:none;stroke-width:18.8322773;stroke-linecap:butt;stroke-linejoin:miter;stroke-miterlimit:4;stroke-dasharray:none;stroke-dashoffset:0;stroke-opacity:1;color-rendering:auto;image-rendering:auto;shape-rendering:auto;text-rendering:auto;enable-background:accumulate"
     d="m 360.28711,551.64258 c -1.6207,-0.13385 -3.031,0.12873 -3.83594,0.39648 -1.60987,0.5355 -2.21476,1.04288 -2.71484,1.40821 -1.00016,0.73065 -1.34468,1.13831 -1.72461,1.54296 -0.75987,0.80932 -1.32142,1.52665 -1.99805,2.41797 -1.35326,1.78266 -2.98727,4.13948 -4.91015,7.09766 -3.84578,5.91636 -8.76875,14.15991 -13.73243,23.74219 -9.92736,19.16454 -20.21686,43.33009 -21.16992,65.75976 l 18.81641,0.79883 c 0.71856,-16.91104 9.77282,-39.9423 19.07422,-57.89844 4.6507,-8.97807 9.31397,-16.77454 12.80078,-22.13867 1.7434,-2.68206 3.2124,-4.77759 4.12109,-5.97461 0.45435,-0.59851 0.81273,-1.00375 0.72852,-0.91406 -0.0421,0.0448 -0.10925,0.19495 -0.89844,0.77148 -0.39459,0.28827 -0.91149,0.74436 -2.44922,1.25586 -1.53773,0.5115 -5.51107,1.02992 -8.76953,-1.57617 L 365.38672,553.625 c -1.64809,-1.31812 -3.47891,-1.84857 -5.09961,-1.98242 z"
     id="path6255"
     inkscape:connector-curvature="0" />
  <path
     style="color:#000000;font-style:normal;font-variant:normal;font-weight:normal;font-stretch:normal;font-size:medium;line-height:normal;font-family:sans-serif;font-variant-ligatures:normal;font-variant-position:normal;font-variant-caps:normal;font-variant-numeric:normal;font-variant-alternates:normal;font-feature-settings:normal;text-indent:0;text-align:start;text-decoration:none;text-decoration-line:none;text-decoration-style:solid;text-decoration-color:#000000;letter-spacing:normal;word-spacing:normal;text-transform:none;writing-mode:lr-tb;direction:ltr;text-orientation:mixed;dominant-baseline:auto;baseline-shift:baseline;text-anchor:start;white-space:normal;shape-padding:0;clip-rule:nonzero;display:inline;overflow:visible;visibility:visible;opacity:1;isolation:auto;mix-blend-mode:normal;color-interpolation:sRGB;color-interpolation-filters:linearRGB;solid-color:#000000;solid-opacity:1;vector-effect:none;fill:#000000;fill-opacity:1;fill-rule:nonzero;stroke:none;stroke-width:18.8322773;stroke-linecap:butt;stroke-linejoin:miter;stroke-miterlimit:4;stroke-dasharray:none;stroke-dashoffset:0;stroke-opacity:1;color-rendering:auto;image-rendering:auto;shape-rendering:auto;text-rendering:auto;enable-background:accumulate"
     d="m 97.955078,884.90234 -9.572266,16.21875 c 0,0 63.957978,38.44169 121.117188,3.51953 l -9.81836,-16.07031 C 153.32505,916.89247 97.955078,884.90234 97.955078,884.90234 Z"
     id="path6259"
     inkscape:connector-curvature="0" />
  <path
     style="color:#000000;font-style:normal;font-variant:normal;font-weight:normal;font-stretch:normal;font-size:medium;line-height:normal;font-family:sans-serif;font-variant-ligatures:normal;font-variant-position:normal;font-variant-caps:normal;font-variant-numeric:normal;font-variant-alternates:normal;font-feature-settings:normal;text-indent:0;text-align:start;text-decoration:none;text-decoration-line:none;text-decoration-style:solid;text-decoration-color:#000000;letter-spacing:normal;word-spacing:normal;text-transform:none;writing-mode:lr-tb;direction:ltr;text-orientation:mixed;dominant-baseline:auto;baseline-shift:baseline;text-anchor:start;white-space:normal;shape-padding:0;clip-rule:nonzero;display:inline;overflow:visible;visibility:visible;opacity:1;isolation:auto;mix-blend-mode:normal;color-interpolation:sRGB;color-interpolation-filters:linearRGB;solid-color:#000000;solid-opacity:1;vector-effect:none;fill:#000000;fill-opacity:1;fill-rule:nonzero;stroke:none;stroke-width:14.62897301;stroke-linecap:butt;stroke-linejoin:miter;stroke-miterlimit:4;stroke-dasharray:none;stroke-dashoffset:0;stroke-opacity:1;color-rendering:auto;image-rendering:auto;shape-rendering:auto;text-rendering:auto;enable-background:accumulate"
     d="m 440.51367,391.62891 -11.48047,9.0664 c 5.57058,7.05522 7.47555,12.42251 7.59375,16.05274 0.11821,3.63022 -1.07455,6.18055 -4.26953,9.21484 -6.38996,6.06858 -21.51365,11.41135 -38.56836,14.39258 -34.10941,5.96246 -75.1875,4.41797 -75.1875,4.41797 l -0.58008,14.61914 c 0,0 41.82677,1.74612 78.28516,-4.62696 18.22919,-3.18653 35.30481,-7.9193 46.125,-18.19531 5.4101,-5.138 9.07602,-12.32594 8.81641,-20.29883 -0.25962,-7.97288 -3.96793,-16.07277 -10.73438,-24.64257 z"
     id="path6820"
     inkscape:connector-curvature="0" />
  <path
     style="color:#000000;font-style:normal;font-variant:normal;font-weight:normal;font-stretch:normal;font-size:medium;line-height:normal;font-family:sans-serif;font-variant-ligatures:normal;font-variant-position:normal;font-variant-caps:normal;font-variant-numeric:normal;font-variant-alternates:normal;font-feature-settings:normal;text-indent:0;text-align:start;text-decoration:none;text-decoration-line:none;text-decoration-style:solid;text-decoration-color:#000000;letter-spacing:normal;word-spacing:normal;text-transform:none;writing-mode:lr-tb;direction:ltr;text-orientation:mixed;dominant-baseline:auto;baseline-shift:baseline;text-anchor:start;white-space:normal;shape-padding:0;clip-rule:nonzero;display:inline;overflow:visible;visibility:visible;opacity:1;isolation:auto;mix-blend-mode:normal;color-interpolation:sRGB;color-interpolation-filters:linearRGB;solid-color:#000000;solid-opacity:1;vector-effect:none;fill:#000000;fill-opacity:1;fill-rule:nonzero;stroke:none;stroke-width:25.10970306;stroke-linecap:butt;stroke-linejoin:miter;stroke-miterlimit:4;stroke-dasharray:none;stroke-dashoffset:0;stroke-opacity:1;color-rendering:auto;image-rendering:auto;shape-rendering:auto;text-rendering:auto;enable-background:accumulate"
     d="M 100.74023,0.40429688 C 96.781231,0.19878331 92.792172,0.42355278 88.871094,1.0488281 57.502469,6.0510309 26.789656,34.192583 20.226562,76.033203 l -0.08203,0.519531 -0.03906,0.523438 C 8.3875004,239.87231 8.2734375,454.27234 8.2734375,463.85938 H 33.382812 c 0,-9.32689 0.168441,-223.09591 11.722657,-384.242192 5.043204,-31.243158 28.960677,-50.781867 47.720703,-53.773438 9.412168,-1.500913 16.589468,0.521629 21.876948,6.072266 5.28749,5.550636 9.67351,16.225392 8.16993,35.367187 l -0.0508,0.646485 0.0156,0.646484 c 0,0 3.34838,148.287678 24.36719,238.072268 l 24.44922,-5.72266 C 151.98066,216.88728 147.9705,69.007735 147.94922,68.21875 149.5796,44.929881 144.26517,26.542503 132.88477,14.595703 124.22082,5.5005579 112.61725,1.0208376 100.74023,0.40429688 Z"
     id="path964"
     inkscape:connector-curvature="0" />
  <path
     style="color:#000000;font-style:normal;font-variant:normal;font-weight:normal;font-stretch:normal;font-size:medium;line-height:normal;font-family:sans-serif;font-variant-ligatures:normal;font-variant-position:normal;font-variant-caps:normal;font-variant-numeric:normal;font-variant-alternates:normal;font-feature-settings:normal;text-indent:0;text-align:start;text-decoration:none;text-decoration-line:none;text-decoration-style:solid;text-decoration-color:#000000;letter-spacing:normal;word-spacing:normal;text-transform:none;writing-mode:lr-tb;direction:ltr;text-orientation:mixed;dominant-baseline:auto;baseline-shift:baseline;text-anchor:start;white-space:normal;shape-padding:0;clip-rule:nonzero;display:inline;overflow:visible;visibility:visible;opacity:1;isolation:auto;mix-blend-mode:normal;color-interpolation:sRGB;color-interpolation-filters:linearRGB;solid-color:#000000;solid-opacity:1;vector-effect:none;fill:#000000;fill-opacity:1;fill-rule:nonzero;stroke:none;stroke-width:18.8322773;stroke-linecap:butt;stroke-linejoin:miter;stroke-miterlimit:4;stroke-dasharray:none;stroke-dashoffset:0;stroke-opacity:1;color-rendering:auto;image-rendering:auto;shape-rendering:auto;text-rendering:auto;enable-background:accumulate"
     d="m 108.08789,284.73633 c -5.79328,3.68664 -16.412223,5.49142 -25.416015,5.66797 -9.003792,0.17654 -15.972656,-0.86328 -15.972656,-0.86328 l -2.792969,18.625 c 0,0 8.461812,1.27567 19.134766,1.0664 10.672954,-0.20927 23.975444,-1.49111 35.158204,-8.60742 z"
     id="path966"
     inkscape:connector-curvature="0" />
  <path
     style="color:#000000;font-style:normal;font-variant:normal;font-weight:normal;font-stretch:normal;font-size:medium;line-height:normal;font-family:sans-serif;font-variant-ligatures:normal;font-variant-position:normal;font-variant-caps:normal;font-variant-numeric:normal;font-variant-alternates:normal;font-feature-settings:normal;text-indent:0;text-align:start;text-decoration:none;text-decoration-line:none;text-decoration-style:solid;text-decoration-color:#000000;letter-spacing:normal;word-spacing:normal;text-transform:none;writing-mode:lr-tb;direction:ltr;text-orientation:mixed;dominant-baseline:auto;baseline-shift:baseline;text-anchor:start;white-space:normal;shape-padding:0;clip-rule:nonzero;display:inline;overflow:visible;visibility:visible;opacity:1;isolation:auto;mix-blend-mode:normal;color-interpolation:sRGB;color-interpolation-filters:linearRGB;solid-color:#000000;solid-opacity:1;vector-effect:none;fill:#000000;fill-opacity:1;fill-rule:nonzero;stroke:none;stroke-width:18.8322773;stroke-linecap:butt;stroke-linejoin:miter;stroke-miterlimit:4;stroke-dasharray:none;stroke-dashoffset:0;stroke-opacity:1;color-rendering:auto;image-rendering:auto;shape-rendering:auto;text-rendering:auto;enable-background:accumulate"
     d="m 92.615234,162.54688 c -5.051978,-0.0814 -9.935173,0.96355 -14.189453,1.94531 -8.508559,1.96351 -15.353515,4.98437 -15.353515,4.98437 l 7.546875,17.25391 c 0,0 5.502618,-2.37981 12.041015,-3.88867 6.538397,-1.50886 13.257958,-0.84002 14.207032,-0.16211 l 10.947262,-15.32422 c -4.92692,-3.51924 -10.147237,-4.72718 -15.199216,-4.80859 z"
     id="path968"
     inkscape:connector-curvature="0" />
</svg>
