<?xml version="1.0" encoding="UTF-8" standalone="no"?>
<!-- Created with Inkscape (http://www.inkscape.org/) -->

<svg
   xmlns:dc="http://purl.org/dc/elements/1.1/"
   xmlns:cc="http://creativecommons.org/ns#"
   xmlns:rdf="http://www.w3.org/1999/02/22-rdf-syntax-ns#"
   xmlns:svg="http://www.w3.org/2000/svg"
   xmlns="http://www.w3.org/2000/svg"
   xmlns:sodipodi="http://sodipodi.sourceforge.net/DTD/sodipodi-0.dtd"
   xmlns:inkscape="http://www.inkscape.org/namespaces/inkscape"
   version="1.1"
   id="svg1227"
   width="1000"
   height="1000"
   viewBox="0 0 1000 1000"
   sodipodi:docname="L.svg"
   inkscape:version="0.92.4 (5da689c313, 2019-01-14)">
  <metadata
     id="metadata1233">
    <rdf:RDF>
      <cc:Work
         rdf:about="">
        <dc:format>image/svg+xml</dc:format>
        <dc:type
           rdf:resource="http://purl.org/dc/dcmitype/StillImage" />
        <dc:title />
      </cc:Work>
    </rdf:RDF>
  </metadata>
  <defs
     id="defs1231">
    <clipPath
       clipPathUnits="userSpaceOnUse"
       id="clipPath1267">
      <rect
         style="opacity:1;fill:#d38d5f;fill-opacity:0;stroke:#ff0000;stroke-width:5.09550858;stroke-miterlimit:4;stroke-dasharray:none"
         id="rect1269"
         width="994.90448"
         height="994.90448"
         x="-997.45221"
         y="2.5477657"
         transform="matrix(0,1,1,0,0,0)" />
    </clipPath>
  </defs>
  <sodipodi:namedview
     pagecolor="#ffffff"
     bordercolor="#666666"
     borderopacity="1"
     objecttolerance="10"
     gridtolerance="10"
     guidetolerance="10"
     inkscape:pageopacity="0"
     inkscape:pageshadow="2"
     inkscape:window-width="1366"
     inkscape:window-height="715"
     id="namedview1229"
     showgrid="false"
     inkscape:zoom="0.27314815"
     inkscape:cx="710.87337"
     inkscape:cy="361.16195"
     inkscape:window-x="-8"
     inkscape:window-y="-8"
     inkscape:window-maximized="1"
     inkscape:current-layer="svg1227" />
  <path
     style="color:#000000;font-style:normal;font-variant:normal;font-weight:normal;font-stretch:normal;font-size:medium;line-height:normal;font-family:sans-serif;font-variant-ligatures:normal;font-variant-position:normal;font-variant-caps:normal;font-variant-numeric:normal;font-variant-alternates:normal;font-feature-settings:normal;text-indent:0;text-align:start;text-decoration:none;text-decoration-line:none;text-decoration-style:solid;text-decoration-color:#000000;letter-spacing:normal;word-spacing:normal;text-transform:none;writing-mode:lr-tb;direction:ltr;text-orientation:mixed;dominant-baseline:auto;baseline-shift:baseline;text-anchor:start;white-space:normal;shape-padding:0;clip-rule:nonzero;display:inline;overflow:visible;visibility:visible;opacity:1;isolation:auto;mix-blend-mode:normal;color-interpolation:sRGB;color-interpolation-filters:linearRGB;solid-color:#000000;solid-opacity:1;vector-effect:none;fill:#000000;fill-opacity:1;fill-rule:nonzero;stroke:none;stroke-width:25.31727219;stroke-linecap:butt;stroke-linejoin:miter;stroke-miterlimit:4;stroke-dasharray:none;stroke-dashoffset:0;stroke-opacity:1;color-rendering:auto;image-rendering:auto;shape-rendering:auto;text-rendering:auto;enable-background:accumulate"
     d="m 28.392578,600.13086 c -1.560783,-0.2653 -3.270675,-0.30261 -4.947266,0.043 -3.35318,0.69116 -5.865034,2.60441 -7.302734,4.17578 -2.8754,3.14275 -3.198606,5.20236 -3.691406,6.98242 -0.9856,3.56012 -1.189124,6.56837 -1.388672,10.2168 -0.399096,7.29685 -0.214295,16.40748 0.158203,25.64453 0.708306,17.56428 2.099374,34.32138 2.242188,36.0293 -9.95e-4,0.0122 -9.47e-4,0.0188 -0.002,0.0312 -0.05278,0.65255 -0.119777,1.54105 -0.195313,2.66406 -0.151071,2.24601 -0.33728,5.41785 -0.501953,9.34375 -0.329347,7.85181 -0.575472,18.71875 -0.28711,31.1914 0.576726,24.94532 3.132599,56.19014 12.128907,83.2168 5.485698,16.48039 11.340112,31.2685 19.910156,57.16016 2.473032,7.47156 5.287281,18.65565 8.037109,29.14062 2.74852,10.47999 4.92407,19.63641 8.720704,27.12891 13.632015,26.94606 19.859331,39.2907 22.939453,47.45312 3.080121,8.16243 3.622151,13.19462 6.136718,28.25977 l 24.970701,-4.16797 c -2.45849,-14.72917 -3.42244,-22.43584 -7.41992,-33.0293 -3.99748,-10.59345 -10.417929,-23.02267 -24.037109,-49.94335 l -0.002,-0.006 -0.0039,-0.004 C 82.834973,909.6456 79.733389,899.81473 77.041016,889.54883 74.348643,879.28292 71.556534,867.95602 68.550781,858.875 59.804869,832.45201 53.834092,817.31754 48.626953,801.67383 41.071461,778.97565 38.332585,749.46082 37.787109,725.86719 c -0.272737,-11.79682 -0.03899,-22.14311 0.271485,-29.54492 0.155236,-3.70091 0.329789,-6.66817 0.466797,-8.70508 0.0685,-1.01846 0.128129,-1.80557 0.169921,-2.32227 0.01398,-0.17284 0.02207,-0.26183 0.03125,-0.36719 l 0.183594,-1.12109 -0.130859,-1.56641 c 0,0 -1.547427,-18.35369 -2.261719,-36.0664 -0.357146,-8.85636 -0.483132,-17.62276 -0.175781,-23.24219 0.153675,-2.80971 0.558005,-5.01995 0.509765,-4.8457 -0.02412,0.0871 0.20325,0.91339 -2.029296,3.35351 -1.116274,1.22006 -3.282886,2.91409 -6.267578,3.5293 -2.984693,0.61521 -6.079236,-0.16142 -7.81836,-1.06836 l 11.707031,-22.44922 c -1.078508,-0.56243 -2.489997,-1.05501 -4.050781,-1.32031 z"
     id="path6851"
     inkscape:connector-curvature="0" />
  <path
     style="color:#000000;font-style:normal;font-variant:normal;font-weight:normal;font-stretch:normal;font-size:medium;line-height:normal;font-family:sans-serif;font-variant-ligatures:normal;font-variant-position:normal;font-variant-caps:normal;font-variant-numeric:normal;font-variant-alternates:normal;font-feature-settings:normal;text-indent:0;text-align:start;text-decoration:none;text-decoration-line:none;text-decoration-style:solid;text-decoration-color:#000000;letter-spacing:normal;word-spacing:normal;text-transform:none;writing-mode:lr-tb;direction:ltr;text-orientation:mixed;dominant-baseline:auto;baseline-shift:baseline;text-anchor:start;white-space:normal;shape-padding:0;clip-rule:nonzero;display:inline;overflow:visible;visibility:visible;opacity:1;isolation:auto;mix-blend-mode:normal;color-interpolation:sRGB;color-interpolation-filters:linearRGB;solid-color:#000000;solid-opacity:1;vector-effect:none;fill:#000000;fill-opacity:1;fill-rule:nonzero;stroke:none;stroke-width:25.31727219;stroke-linecap:butt;stroke-linejoin:miter;stroke-miterlimit:4;stroke-dasharray:none;stroke-dashoffset:0;stroke-opacity:1;color-rendering:auto;image-rendering:auto;shape-rendering:auto;text-rendering:auto;enable-background:accumulate"
     d="m 91.275391,491.54297 -4.667969,0.0273 c -30.93153,0.1793 -52.69088,7.59927 -66.771484,20.57813 C 5.7553333,525.12729 0.85101527,542.67805 0.53515625,558.45117 -0.09656179,589.99742 15.345703,618.49219 15.345703,618.49219 l 22.486328,-11.63281 c 0,0 -12.437082,-25.39296 -11.986328,-47.90235 0.225377,-11.25469 3.102777,-20.77544 11.150391,-28.19336 7.363342,-6.78719 20.429946,-12.58021 43.255859,-13.64648 1.037893,2.26698 2.314406,5.6205 3.617188,10.92383 2.360092,9.60738 4.895657,23.60157 9.15039,41.54101 8.509469,35.87888 24.067859,87.66253 60.462889,157.2832 l 22.4375,-11.73046 C 140.53302,647.44257 125.83344,598.22634 117.6543,563.74023 113.56473,546.49718 111.1491,532.96674 108.45508,522 105.76106,511.03326 103.21247,501.6136 94.84375,494.55273 Z"
     id="path6853"
     inkscape:connector-curvature="0" />
  <path
     style="color:#000000;font-style:normal;font-variant:normal;font-weight:normal;font-stretch:normal;font-size:medium;line-height:normal;font-family:sans-serif;font-variant-ligatures:normal;font-variant-position:normal;font-variant-caps:normal;font-variant-numeric:normal;font-variant-alternates:normal;font-feature-settings:normal;text-indent:0;text-align:start;text-decoration:none;text-decoration-line:none;text-decoration-style:solid;text-decoration-color:#000000;letter-spacing:normal;word-spacing:normal;text-transform:none;writing-mode:lr-tb;direction:ltr;text-orientation:mixed;dominant-baseline:auto;baseline-shift:baseline;text-anchor:start;white-space:normal;shape-padding:0;clip-rule:nonzero;display:inline;overflow:visible;visibility:visible;opacity:1;isolation:auto;mix-blend-mode:normal;color-interpolation:sRGB;color-interpolation-filters:linearRGB;solid-color:#000000;solid-opacity:1;vector-effect:none;fill:#000000;fill-opacity:1;fill-rule:nonzero;stroke:none;stroke-width:25.31727219;stroke-linecap:butt;stroke-linejoin:miter;stroke-miterlimit:4;stroke-dasharray:none;stroke-dashoffset:0;stroke-opacity:1;color-rendering:auto;image-rendering:auto;shape-rendering:auto;text-rendering:auto;enable-background:accumulate"
     d="m 142.77539,416.17773 c -11.05496,-0.25215 -20.70046,1.32314 -29.11523,4.4961 -16.829549,6.34592 -27.486494,19.18987 -33.142582,32.08789 -11.312175,25.79604 -6.347656,53.40234 -6.347656,53.40234 l 25.021484,-3.87109 c 0,0 -2.810977,-22.66476 4.511714,-39.36328 3.66135,-8.34926 8.92417,-14.80836 18.89063,-18.56641 9.96646,-3.75805 25.88474,-4.70694 50.60352,2.57031 l 7.14843,-24.28711 c -14.05117,-4.13669 -26.51535,-6.2166 -37.57031,-6.46875 z"
     id="path6855"
     inkscape:connector-curvature="0" />
  <path
     style="color:#000000;font-style:normal;font-variant:normal;font-weight:normal;font-stretch:normal;font-size:medium;line-height:normal;font-family:sans-serif;font-variant-ligatures:normal;font-variant-position:normal;font-variant-caps:normal;font-variant-numeric:normal;font-variant-alternates:normal;font-feature-settings:normal;text-indent:0;text-align:start;text-decoration:none;text-decoration-line:none;text-decoration-style:solid;text-decoration-color:#000000;letter-spacing:normal;word-spacing:normal;text-transform:none;writing-mode:lr-tb;direction:ltr;text-orientation:mixed;dominant-baseline:auto;baseline-shift:baseline;text-anchor:start;white-space:normal;shape-padding:0;clip-rule:nonzero;display:inline;overflow:visible;visibility:visible;opacity:1;isolation:auto;mix-blend-mode:normal;color-interpolation:sRGB;color-interpolation-filters:linearRGB;solid-color:#000000;solid-opacity:1;vector-effect:none;fill:#000000;fill-opacity:1;fill-rule:nonzero;stroke:none;stroke-width:25.31727219;stroke-linecap:butt;stroke-linejoin:miter;stroke-miterlimit:4;stroke-dasharray:none;stroke-dashoffset:0;stroke-opacity:1;color-rendering:auto;image-rendering:auto;shape-rendering:auto;text-rendering:auto;enable-background:accumulate"
     d="m 238.08789,346.66016 c -11.87784,-0.41518 -23.34542,2.08417 -33.53125,7.24218 -27.16221,13.75471 -44.46495,45.2638 -40.36719,82.28125 l 0.76367,6.90039 6.23047,3.06446 c 0.28826,0.14179 6.60331,8.1945 10.70313,22.89062 4.09982,14.69612 7.43712,34.56274 10.59375,55.64844 6.31325,42.1714 10.96451,88.32402 25.51953,116.67969 7.16942,13.96728 8.35235,28.38622 10.47852,42.64648 1.06308,7.13013 2.30504,14.31368 5.79101,21.39844 3.48597,7.08476 9.97374,13.78776 18.53711,17.21484 l 9.40625,-23.5039 c -3.12251,-1.24964 -3.88424,-2.15467 -5.22851,-4.88672 -1.34428,-2.73206 -2.51339,-7.57362 -3.46485,-13.95508 -1.90292,-12.76292 -3.15965,-31.3115 -12.99609,-50.47461 -9.89262,-19.2725 -16.61896,-66.20573 -23.00586,-108.86914 -3.19346,-21.33171 -6.53633,-41.81864 -11.2461,-58.70117 -3.87858,-13.90309 -7.79026,-26.28686 -17.16015,-34.25586 -0.99265,-25.11193 10.75217,-43.32377 26.88281,-51.49219 17.28745,-8.75421 40.14743,-7.23221 62.91602,15.59766 l 17.92578,-17.87696 C 278.81653,356.14107 257.8843,347.35212 238.08789,346.66016 Z"
     id="path6857"
     inkscape:connector-curvature="0" />
  <path
     style="color:#000000;font-style:normal;font-variant:normal;font-weight:normal;font-stretch:normal;font-size:medium;line-height:normal;font-family:sans-serif;font-variant-ligatures:normal;font-variant-position:normal;font-variant-caps:normal;font-variant-numeric:normal;font-variant-alternates:normal;font-feature-settings:normal;text-indent:0;text-align:start;text-decoration:none;text-decoration-line:none;text-decoration-style:solid;text-decoration-color:#000000;letter-spacing:normal;word-spacing:normal;text-transform:none;writing-mode:lr-tb;direction:ltr;text-orientation:mixed;dominant-baseline:auto;baseline-shift:baseline;text-anchor:start;white-space:normal;shape-padding:0;clip-rule:nonzero;display:inline;overflow:visible;visibility:visible;opacity:1;isolation:auto;mix-blend-mode:normal;color-interpolation:sRGB;color-interpolation-filters:linearRGB;solid-color:#000000;solid-opacity:1;vector-effect:none;fill:#000000;fill-opacity:1;fill-rule:nonzero;stroke:none;stroke-width:25.31727219;stroke-linecap:butt;stroke-linejoin:miter;stroke-miterlimit:4;stroke-dasharray:none;stroke-dashoffset:0;stroke-opacity:1;color-rendering:auto;image-rendering:auto;shape-rendering:auto;text-rendering:auto;enable-background:accumulate"
     d="m 37.689453,606.58984 -22.199219,12.17188 c 26.929706,49.11025 52.259285,86.62152 77.921875,108.42969 12.831291,10.90408 26.155291,18.19614 40.515621,19.26562 14.36034,1.06949 28.61247,-5.12168 39.83204,-16.61328 l -18.11524,-17.6875 c -7.42919,7.60932 -13.11635,9.55513 -19.83594,9.05469 -6.71958,-0.50044 -15.61762,-4.48591 -26.00195,-13.31055 C 89.03799,690.25111 63.961083,654.5 37.689453,606.58984 Z"
     id="path6865"
     inkscape:connector-curvature="0" />
  <path
     style="color:#000000;font-style:normal;font-variant:normal;font-weight:normal;font-stretch:normal;font-size:medium;line-height:normal;font-family:sans-serif;font-variant-ligatures:normal;font-variant-position:normal;font-variant-caps:normal;font-variant-numeric:normal;font-variant-alternates:normal;font-feature-settings:normal;text-indent:0;text-align:start;text-decoration:none;text-decoration-line:none;text-decoration-style:solid;text-decoration-color:#000000;letter-spacing:normal;word-spacing:normal;text-transform:none;writing-mode:lr-tb;direction:ltr;text-orientation:mixed;dominant-baseline:auto;baseline-shift:baseline;text-anchor:start;white-space:normal;shape-padding:0;clip-rule:nonzero;display:inline;overflow:visible;visibility:visible;opacity:1;isolation:auto;mix-blend-mode:normal;color-interpolation:sRGB;color-interpolation-filters:linearRGB;solid-color:#000000;solid-opacity:1;vector-effect:none;fill:#000000;fill-opacity:1;fill-rule:nonzero;stroke:none;stroke-width:25.31727219;stroke-linecap:butt;stroke-linejoin:miter;stroke-miterlimit:4;stroke-dasharray:none;stroke-dashoffset:0;stroke-opacity:1;color-rendering:auto;image-rendering:auto;shape-rendering:auto;text-rendering:auto;enable-background:accumulate"
     d="m 269.91797,708.375 -24.81836,5 c 0.98315,4.88019 -0.0731,12.92618 -3.49414,20.1543 -3.42103,7.22811 -8.95153,13.41753 -14.65235,16.35547 -5.70081,2.93794 -11.24913,3.68999 -19.69726,-0.49805 -8.44814,-4.18804 -19.70296,-14.48213 -31.64063,-34.79883 l -21.82812,12.82422 c 13.50917,22.99125 27.43244,37.32521 42.22461,44.6582 14.79217,7.333 30.54559,6.49925 42.53906,0.31836 11.99347,-6.18089 20.54974,-16.64382 25.9375,-28.02734 5.38776,-11.38352 7.86272,-23.90914 5.42969,-35.98633 z"
     id="path6867"
     inkscape:connector-curvature="0" />
  <path
     style="color:#000000;font-style:normal;font-variant:normal;font-weight:normal;font-stretch:normal;font-size:medium;line-height:normal;font-family:sans-serif;font-variant-ligatures:normal;font-variant-position:normal;font-variant-caps:normal;font-variant-numeric:normal;font-variant-alternates:normal;font-feature-settings:normal;text-indent:0;text-align:start;text-decoration:none;text-decoration-line:none;text-decoration-style:solid;text-decoration-color:#000000;letter-spacing:normal;word-spacing:normal;text-transform:none;writing-mode:lr-tb;direction:ltr;text-orientation:mixed;dominant-baseline:auto;baseline-shift:baseline;text-anchor:start;white-space:normal;shape-padding:0;clip-rule:nonzero;display:inline;overflow:visible;visibility:visible;opacity:1;isolation:auto;mix-blend-mode:normal;color-interpolation:sRGB;color-interpolation-filters:linearRGB;solid-color:#000000;solid-opacity:1;vector-effect:none;fill:#000000;fill-opacity:1;fill-rule:nonzero;stroke:none;stroke-width:25.31727219;stroke-linecap:butt;stroke-linejoin:miter;stroke-miterlimit:4;stroke-dasharray:none;stroke-dashoffset:0;stroke-opacity:1;color-rendering:auto;image-rendering:auto;shape-rendering:auto;text-rendering:auto;enable-background:accumulate"
     d="m 317.01953,0.45117188 c -3.57439,0.11043787 -7.11751,0.54218613 -10.56641,1.25976562 -13.79556,2.8703179 -26.53508,10.1951695 -35.44335,21.2636715 -8.90828,11.068503 -13.57644,26.495289 -9.9375,42.535157 l -0.2461,-1.484375 c 0,0 11.51769,110.602189 10.84766,204.562499 v 0.0781 0.0781 c 0.31573,60.1455 3.5625,115.14844 3.5625,115.14844 l 0.20117,3.40039 1.88086,2.8418 c 1.81606,2.74329 6.47685,20.999 8.37109,45.10546 1.89424,24.10647 2.67808,55.04083 3.41797,88.7168 0.74767,34.03045 4.01674,44.49851 7.61328,56.63086 3.5372,11.93216 7.78191,27.60139 12.36133,78.02734 -0.37563,1.68382 -2.09196,8.72143 -8.68164,17.56836 -7.42369,9.96664 -19.53242,20.28727 -43.81641,22.06641 l 1.84961,25.25 c 31.28693,-2.2922 51.38332,-17.57356 62.27149,-32.19141 10.88816,-14.61784 13.65429,-29.30468 13.6543,-29.30468 l 0.32226,-1.7168 -0.1543,-1.73828 c -4.75542,-53.4669 -9.77438,-72.47649 -13.5332,-85.15625 -3.75882,-12.67976 -5.85645,-17.23355 -6.57617,-49.99219 -0.74092,-33.7224 -1.50729,-64.90725 -3.49024,-90.14258 -1.82382,-23.21035 -3.35033,-40.50883 -10.55273,-53.68945 -0.24181,-4.19344 -3.08418,-54.06772 -3.38281,-110.95703 l -0.002,0.15625 C 297.67594,172.60853 286.00781,61.392578 286.00781,61.392578 l -0.0781,-0.75 -0.16797,-0.734375 c -1.9357,-8.532261 0.18593,-15.115481 4.9707,-21.060547 4.78477,-5.945066 12.64121,-10.637619 20.87891,-12.351562 8.23769,-1.713943 16.42606,-0.586873 22.96875,3.691406 6.51627,4.261005 12.28305,11.821061 14.80859,26.462891 0.0927,0.827675 17.68345,157.822129 23.47266,210.546879 l 0.0117,0.0996 0.0117,0.0976 c 0,0 9.27919,73.77697 19.40429,148.64063 0.0392,0.41415 5.51275,58.18353 13.28321,115.76953 3.89916,28.8963 8.34698,57.64205 13.08984,79.39648 2.37143,10.87722 4.73567,19.91348 7.56055,27.05469 1.41243,3.57061 2.78698,6.66504 5.38281,9.89258 1.17248,1.45781 2.75322,3.01197 5.09375,4.375 1.59298,2.09232 3.82678,4.45996 7.04883,6.3125 7.50511,4.31511 17.89926,5.05104 31.46679,1.375 27.056,-7.33065 71.29102,-31.76235 155.51758,-99.60352 0.8129,-0.51877 20.27728,-12.82112 45.17578,-15.64648 25.42924,-2.88559 54.4199,2.28903 79.26953,43.70508 l 0.80274,1.33593 0.51172,0.51172 c 0.0717,0.22076 0.60589,0.48901 -0.85547,3.28125 -2.93579,5.60945 -18.08917,20.72791 -65.96875,37.88477 l -1.33594,0.47851 -1.19922,0.76368 c 0,0 -35.21764,22.45322 -76.32031,50.91992 -40.53174,28.07129 -86.39455,61.47809 -111.67578,86.94922 -45.94678,30.2283 -85.16516,54.22258 -112.72266,85.0371 -27.75175,31.03174 -42.28171,69.87094 -36.95508,123.17579 l 25.19141,-2.51758 c -4.78929,-47.92756 6.63463,-76.94454 30.63477,-103.78125 24.00013,-26.83672 62.00827,-50.6305 108.71093,-81.38281 l 1.13672,-0.74805 0.95117,-0.97266 c 21.71381,-22.19778 68.48192,-56.78473 109.14258,-84.94531 39.72002,-27.50911 72.91634,-48.713 74.47656,-49.70898 49.27403,-17.82696 69.92039,-33.28015 78.36329,-49.41211 4.26682,-8.15268 4.40439,-16.64838 2.6289,-22.44336 -1.04737,-3.41851 -2.6162,-5.87171 -3.91601,-7.61524 C 747.5625,526.92291 705.34393,516.14261 673.05469,519.80664 640.72718,523.47501 616.5293,539.625 616.5293,539.625 l -0.51172,0.33789 -0.47852,0.38477 c -83.57893,67.38443 -127.40337,90.13154 -146.94336,95.42578 -9.31837,2.52475 -11.8629,1.22977 -12.00586,1.15429 -0.1289,-0.27936 0.0797,-0.50966 -1.81836,-2.88085 l -5.19531,-6.48829 -0.23437,0.0645 c -1.76089,-4.76896 -3.87276,-12.31904 -5.94336,-21.81641 -4.45148,-20.41793 -8.88222,-48.82433 -12.73633,-77.38672 -7.70822,-57.12478 -13.19531,-115.0332 -13.19531,-115.0332 l -0.0254,-0.25195 -0.0332,-0.25 C 407.29986,338.15729 398.03363,264.46939 398.01562,264.32617 392.18978,211.27107 374.48633,53.277344 374.48633,53.277344 l -0.0391,-0.357422 -0.0605,-0.355469 C 370.96471,32.436936 361.33887,17.435562 348.43555,8.9980469 338.75806,2.6699109 327.74269,0.11985824 317.01953,0.45117188 Z"
     id="path6869"
     inkscape:connector-curvature="0" />
  <path
     style="color:#000000;font-style:normal;font-variant:normal;font-weight:normal;font-stretch:normal;font-size:medium;line-height:normal;font-family:sans-serif;font-variant-ligatures:normal;font-variant-position:normal;font-variant-caps:normal;font-variant-numeric:normal;font-variant-alternates:normal;font-feature-settings:normal;text-indent:0;text-align:start;text-decoration:none;text-decoration-line:none;text-decoration-style:solid;text-decoration-color:#000000;letter-spacing:normal;word-spacing:normal;text-transform:none;writing-mode:lr-tb;direction:ltr;text-orientation:mixed;dominant-baseline:auto;baseline-shift:baseline;text-anchor:start;white-space:normal;shape-padding:0;clip-rule:nonzero;display:inline;overflow:visible;visibility:visible;opacity:1;isolation:auto;mix-blend-mode:normal;color-interpolation:sRGB;color-interpolation-filters:linearRGB;solid-color:#000000;solid-opacity:1;vector-effect:none;fill:#000000;fill-opacity:1;fill-rule:nonzero;stroke:none;stroke-width:18.98795319;stroke-linecap:butt;stroke-linejoin:miter;stroke-miterlimit:4;stroke-dasharray:none;stroke-dashoffset:0;stroke-opacity:1;color-rendering:auto;image-rendering:auto;shape-rendering:auto;text-rendering:auto;enable-background:accumulate"
     d="m 225.80859,828.98828 -15.13867,11.46094 c 0,0 19.42661,25.82251 51.0625,44.64062 31.63589,18.81812 77.5052,30.62471 125.85938,1.82422 l -9.7168,-16.31445 c -42.0488,25.0449 -78.42448,14.83187 -106.43555,-1.83008 -28.01106,-16.66194 -45.63086,-39.78125 -45.63086,-39.78125 z"
     id="path6873"
     inkscape:connector-curvature="0" />
  <path
     style="color:#000000;font-style:normal;font-variant:normal;font-weight:normal;font-stretch:normal;font-size:medium;line-height:normal;font-family:sans-serif;font-variant-ligatures:normal;font-variant-position:normal;font-variant-caps:normal;font-variant-numeric:normal;font-variant-alternates:normal;font-feature-settings:normal;text-indent:0;text-align:start;text-decoration:none;text-decoration-line:none;text-decoration-style:solid;text-decoration-color:#000000;letter-spacing:normal;word-spacing:normal;text-transform:none;writing-mode:lr-tb;direction:ltr;text-orientation:mixed;dominant-baseline:auto;baseline-shift:baseline;text-anchor:start;white-space:normal;shape-padding:0;clip-rule:nonzero;display:inline;overflow:visible;visibility:visible;opacity:1;isolation:auto;mix-blend-mode:normal;color-interpolation:sRGB;color-interpolation-filters:linearRGB;solid-color:#000000;solid-opacity:1;vector-effect:none;fill:#000000;fill-opacity:1;fill-rule:nonzero;stroke:none;stroke-width:18.98795319;stroke-linecap:butt;stroke-linejoin:miter;stroke-miterlimit:4;stroke-dasharray:none;stroke-dashoffset:0;stroke-opacity:1;color-rendering:auto;image-rendering:auto;shape-rendering:auto;text-rendering:auto;enable-background:accumulate"
     d="m 155.37305,912.66992 c -17.52756,16.24927 -30.22197,16.75081 -41.4043,13.98633 -5.59117,-1.38224 -10.79097,-3.89762 -15.417969,-6.51563 -4.626997,-2.618 -8.187518,-5.27606 -12.929687,-7.19726 l -7.128906,17.59766 c 0.944438,0.38262 5.359381,3.09924 10.707031,6.125 5.34765,3.02575 12.121941,6.42359 20.212891,8.42382 16.18191,4.00046 37.68596,1.1422 58.86914,-18.49609 z"
     id="path6875"
     inkscape:connector-curvature="0" />
  <path
     style="color:#000000;font-style:normal;font-variant:normal;font-weight:normal;font-stretch:normal;font-size:medium;line-height:normal;font-family:sans-serif;font-variant-ligatures:normal;font-variant-position:normal;font-variant-caps:normal;font-variant-numeric:normal;font-variant-alternates:normal;font-feature-settings:normal;text-indent:0;text-align:start;text-decoration:none;text-decoration-line:none;text-decoration-style:solid;text-decoration-color:#000000;letter-spacing:normal;word-spacing:normal;text-transform:none;writing-mode:lr-tb;direction:ltr;text-orientation:mixed;dominant-baseline:auto;baseline-shift:baseline;text-anchor:start;white-space:normal;shape-padding:0;clip-rule:nonzero;display:inline;overflow:visible;visibility:visible;opacity:1;isolation:auto;mix-blend-mode:normal;color-interpolation:sRGB;color-interpolation-filters:linearRGB;solid-color:#000000;solid-opacity:1;vector-effect:none;fill:#000000;fill-opacity:1;fill-rule:nonzero;stroke:none;stroke-width:18.98795319;stroke-linecap:butt;stroke-linejoin:miter;stroke-miterlimit:4;stroke-dasharray:none;stroke-dashoffset:0;stroke-opacity:1;color-rendering:auto;image-rendering:auto;shape-rendering:auto;text-rendering:auto;enable-background:accumulate"
     d="m 136.8418,668.89453 -64.898441,24.95899 9.244141,10.25976 c 0,0 11.445671,12.91322 27.02148,21.97852 7.78791,4.53264 16.82015,8.36127 26.83399,8.44531 10.01384,0.084 20.83156,-4.57057 28.44922,-14.49219 l -15.06055,-11.56445 c -4.53964,5.91265 -8.26509,7.11197 -13.22852,7.07031 -4.96342,-0.0417 -11.34023,-2.31901 -17.44335,-5.87109 -4.42678,-2.57644 -8.36473,-5.61337 -11.88282,-8.53321 l 37.7793,-14.52929 z"
     id="path7424"
     inkscape:connector-curvature="0" />
  <path
     style="color:#000000;font-style:normal;font-variant:normal;font-weight:normal;font-stretch:normal;font-size:medium;line-height:normal;font-family:sans-serif;font-variant-ligatures:normal;font-variant-position:normal;font-variant-caps:normal;font-variant-numeric:normal;font-variant-alternates:normal;font-feature-settings:normal;text-indent:0;text-align:start;text-decoration:none;text-decoration-line:none;text-decoration-style:solid;text-decoration-color:#000000;letter-spacing:normal;word-spacing:normal;text-transform:none;writing-mode:lr-tb;direction:ltr;text-orientation:mixed;dominant-baseline:auto;baseline-shift:baseline;text-anchor:start;white-space:normal;shape-padding:0;clip-rule:nonzero;display:inline;overflow:visible;visibility:visible;opacity:1;isolation:auto;mix-blend-mode:normal;color-interpolation:sRGB;color-interpolation-filters:linearRGB;solid-color:#000000;solid-opacity:1;vector-effect:none;fill:#000000;fill-opacity:1;fill-rule:nonzero;stroke:none;stroke-width:18.98795319;stroke-linecap:butt;stroke-linejoin:miter;stroke-miterlimit:4;stroke-dasharray:none;stroke-dashoffset:0;stroke-opacity:1;color-rendering:auto;image-rendering:auto;shape-rendering:auto;text-rendering:auto;enable-background:accumulate"
     d="m 251.48047,689.33789 -85.0918,24.39649 6.11524,10.53515 c 11.18983,19.27307 22.07532,31.02917 33.63281,36.88086 11.55749,5.8517 24.34007,4.2964 32.9414,-2.20508 8.60134,-6.50148 13.70521,-16.47846 16.25977,-27.2539 2.55456,-10.77545 2.50667,-22.607 -1.03906,-33.60743 z m -13.62305,23.6582 c 0.37122,4.79727 0.0852,9.7536 -0.99609,14.31446 -1.79299,7.56305 -5.56481,13.71409 -9.23242,16.48633 -3.66762,2.77223 -6.54765,3.63745 -12.91407,0.41406 -4.93146,-2.49686 -11.64267,-8.48514 -19.11328,-19.09961 z"
     id="path7426"
     inkscape:connector-curvature="0" />
  <path
     style="color:#000000;font-style:normal;font-variant:normal;font-weight:normal;font-stretch:normal;font-size:medium;line-height:normal;font-family:sans-serif;font-variant-ligatures:normal;font-variant-position:normal;font-variant-caps:normal;font-variant-numeric:normal;font-variant-alternates:normal;font-feature-settings:normal;text-indent:0;text-align:start;text-decoration:none;text-decoration-line:none;text-decoration-style:solid;text-decoration-color:#000000;letter-spacing:normal;word-spacing:normal;text-transform:none;writing-mode:lr-tb;direction:ltr;text-orientation:mixed;dominant-baseline:auto;baseline-shift:baseline;text-anchor:start;white-space:normal;shape-padding:0;clip-rule:nonzero;display:inline;overflow:visible;visibility:visible;opacity:1;isolation:auto;mix-blend-mode:normal;color-interpolation:sRGB;color-interpolation-filters:linearRGB;solid-color:#000000;solid-opacity:1;vector-effect:none;fill:#000000;fill-opacity:1;fill-rule:nonzero;stroke:none;stroke-width:18.98795319;stroke-linecap:butt;stroke-linejoin:miter;stroke-miterlimit:4;stroke-dasharray:none;stroke-dashoffset:0;stroke-opacity:1;color-rendering:auto;image-rendering:auto;shape-rendering:auto;text-rendering:auto;enable-background:accumulate"
     d="m 310.33398,624.3457 -76.8496,24.33789 1.72851,8.38282 c 5.15402,25.00938 12.12424,39.76688 24.07031,46.6582 5.97304,3.44566 13.14181,3.92597 19.08008,2.13086 5.93827,-1.79511 10.8579,-5.35163 15.17774,-9.5957 8.63967,-8.48815 15.182,-20.09752 19.26367,-31.62891 4.08166,-11.53139 6.92891,-22.77216 1.2539,-33.3457 z m -13.2539,24.11524 c -0.3424,2.94405 -0.91502,6.27213 -2.17578,9.83398 -3.21345,9.07853 -9.00948,18.85683 -14.67188,24.41992 -2.8312,2.78155 -5.5533,4.4177 -7.36328,4.96485 -1.80998,0.54715 -2.49491,0.52028 -4.09766,-0.4043 -2.75489,-1.58921 -8.29032,-9.36242 -12.78906,-25.79883 z"
     id="path7430"
     inkscape:connector-curvature="0" />
  <path
     style="color:#000000;font-style:normal;font-variant:normal;font-weight:normal;font-stretch:normal;font-size:medium;line-height:normal;font-family:sans-serif;font-variant-ligatures:normal;font-variant-position:normal;font-variant-caps:normal;font-variant-numeric:normal;font-variant-alternates:normal;font-feature-settings:normal;text-indent:0;text-align:start;text-decoration:none;text-decoration-line:none;text-decoration-style:solid;text-decoration-color:#000000;letter-spacing:normal;word-spacing:normal;text-transform:none;writing-mode:lr-tb;direction:ltr;text-orientation:mixed;dominant-baseline:auto;baseline-shift:baseline;text-anchor:start;white-space:normal;shape-padding:0;clip-rule:nonzero;display:inline;overflow:visible;visibility:visible;opacity:1;isolation:auto;mix-blend-mode:normal;color-interpolation:sRGB;color-interpolation-filters:linearRGB;solid-color:#000000;solid-opacity:1;vector-effect:none;fill:#000000;fill-opacity:1;fill-rule:nonzero;stroke:none;stroke-width:18.98795319;stroke-linecap:butt;stroke-linejoin:miter;stroke-miterlimit:4;stroke-dasharray:none;stroke-dashoffset:0;stroke-opacity:1;color-rendering:auto;image-rendering:auto;shape-rendering:auto;text-rendering:auto;enable-background:accumulate"
     d="m 383.17773,482.30273 c -1.42005,2.83237 -6.75481,7.49974 -14.78906,11.40625 -8.03425,3.90652 -18.31177,7.28075 -28.3125,9.90235 -20.00145,5.24319 -38.68945,7.56055 -38.68945,7.56055 l 2.32031,18.8457 c 0,0 19.70959,-2.40935 41.18555,-8.03906 10.73798,-2.81486 21.96817,-6.41338 31.79883,-11.19336 9.83066,-4.77999 18.71864,-10.51392 23.46093,-19.97266 z"
     id="path12189"
     inkscape:connector-curvature="0" />
  <path
     style="color:#000000;font-style:normal;font-variant:normal;font-weight:normal;font-stretch:normal;font-size:medium;line-height:normal;font-family:sans-serif;font-variant-ligatures:normal;font-variant-position:normal;font-variant-caps:normal;font-variant-numeric:normal;font-variant-alternates:normal;font-feature-settings:normal;text-indent:0;text-align:start;text-decoration:none;text-decoration-line:none;text-decoration-style:solid;text-decoration-color:#000000;letter-spacing:normal;word-spacing:normal;text-transform:none;writing-mode:lr-tb;direction:ltr;text-orientation:mixed;dominant-baseline:auto;baseline-shift:baseline;text-anchor:start;white-space:normal;shape-padding:0;clip-rule:nonzero;display:inline;overflow:visible;visibility:visible;opacity:1;isolation:auto;mix-blend-mode:normal;color-interpolation:sRGB;color-interpolation-filters:linearRGB;solid-color:#000000;solid-opacity:1;vector-effect:none;fill:#000000;fill-opacity:1;fill-rule:nonzero;stroke:none;stroke-width:18.98795319;stroke-linecap:butt;stroke-linejoin:miter;stroke-miterlimit:4;stroke-dasharray:none;stroke-dashoffset:0;stroke-opacity:1;color-rendering:auto;image-rendering:auto;shape-rendering:auto;text-rendering:auto;enable-background:accumulate"
     d="m 356.27344,303.05078 c -5.80834,2.57445 -16.0874,3.17479 -24.57813,2.52344 -8.49072,-0.65135 -14.92969,-2.14453 -14.92969,-2.14453 l -4.30273,18.49414 c 0,0 7.783,1.81518 17.7793,2.58203 9.99629,0.76685 22.46992,0.89361 33.72656,-4.0957 z"
     id="path12193"
     inkscape:connector-curvature="0" />
  <path
     style="color:#000000;font-style:normal;font-variant:normal;font-weight:normal;font-stretch:normal;font-size:medium;line-height:normal;font-family:sans-serif;font-variant-ligatures:normal;font-variant-position:normal;font-variant-caps:normal;font-variant-numeric:normal;font-variant-alternates:normal;font-feature-settings:normal;text-indent:0;text-align:start;text-decoration:none;text-decoration-line:none;text-decoration-style:solid;text-decoration-color:#000000;letter-spacing:normal;word-spacing:normal;text-transform:none;writing-mode:lr-tb;direction:ltr;text-orientation:mixed;dominant-baseline:auto;baseline-shift:baseline;text-anchor:start;white-space:normal;shape-padding:0;clip-rule:nonzero;display:inline;overflow:visible;visibility:visible;opacity:1;isolation:auto;mix-blend-mode:normal;color-interpolation:sRGB;color-interpolation-filters:linearRGB;solid-color:#000000;solid-opacity:1;vector-effect:none;fill:#000000;fill-opacity:1;fill-rule:nonzero;stroke:none;stroke-width:18.98795319;stroke-linecap:butt;stroke-linejoin:miter;stroke-miterlimit:4;stroke-dasharray:none;stroke-dashoffset:0;stroke-opacity:1;color-rendering:auto;image-rendering:auto;shape-rendering:auto;text-rendering:auto;enable-background:accumulate"
     d="m 333.71875,139.97852 c -4.75891,0.18959 -9.25997,1.44595 -13.13867,2.5996 -7.75741,2.30732 -13.88281,5.52344 -13.88281,5.52344 l 8.76562,16.84571 c 0,0 4.77694,-2.45703 10.5293,-4.16797 5.75236,-1.71095 11.62004,-1.35667 12.23437,-0.9668 l 10.17383,-16.03125 c -4.90711,-3.1142 -9.92273,-3.99233 -14.68164,-3.80273 z"
     id="path12195"
     inkscape:connector-curvature="0" />
  <path
     style="color:#000000;font-style:normal;font-variant:normal;font-weight:normal;font-stretch:normal;font-size:medium;line-height:normal;font-family:sans-serif;font-variant-ligatures:normal;font-variant-position:normal;font-variant-caps:normal;font-variant-numeric:normal;font-variant-alternates:normal;font-feature-settings:normal;text-indent:0;text-align:start;text-decoration:none;text-decoration-line:none;text-decoration-style:solid;text-decoration-color:#000000;letter-spacing:normal;word-spacing:normal;text-transform:none;writing-mode:lr-tb;direction:ltr;text-orientation:mixed;dominant-baseline:auto;baseline-shift:baseline;text-anchor:start;white-space:normal;shape-padding:0;clip-rule:nonzero;display:inline;overflow:visible;visibility:visible;opacity:1;isolation:auto;mix-blend-mode:normal;color-interpolation:sRGB;color-interpolation-filters:linearRGB;solid-color:#000000;solid-opacity:1;vector-effect:none;fill:#000000;fill-opacity:1;fill-rule:nonzero;stroke:none;stroke-width:18.98795319;stroke-linecap:butt;stroke-linejoin:miter;stroke-miterlimit:4;stroke-dasharray:none;stroke-dashoffset:0;stroke-opacity:1;color-rendering:auto;image-rendering:auto;shape-rendering:auto;text-rendering:auto;enable-background:accumulate"
     d="m 577.13281,586.70898 -12.43554,14.34961 c 0,0 8.46609,7.34627 16.82812,15.84766 4.18102,4.2507 8.31589,8.79792 11.1543,12.53516 2.8384,3.73723 3.49804,7.66174 3.49804,4.99414 h 18.98829 c 0,-7.88126 -3.68659,-11.63497 -7.36524,-16.47852 -3.67865,-4.84355 -8.22989,-9.7817 -12.73828,-14.36523 -9.01678,-9.16706 -17.92969,-16.88282 -17.92969,-16.88282 z"
     id="path1973"
     inkscape:connector-curvature="0" />
  <path
     style="color:#000000;font-style:normal;font-variant:normal;font-weight:normal;font-stretch:normal;font-size:medium;line-height:normal;font-family:sans-serif;font-variant-ligatures:normal;font-variant-position:normal;font-variant-caps:normal;font-variant-numeric:normal;font-variant-alternates:normal;font-feature-settings:normal;text-indent:0;text-align:start;text-decoration:none;text-decoration-line:none;text-decoration-style:solid;text-decoration-color:#000000;letter-spacing:normal;word-spacing:normal;text-transform:none;writing-mode:lr-tb;direction:ltr;text-orientation:mixed;dominant-baseline:auto;baseline-shift:baseline;text-anchor:start;white-space:normal;shape-padding:0;clip-rule:nonzero;display:inline;overflow:visible;visibility:visible;opacity:1;isolation:auto;mix-blend-mode:normal;color-interpolation:sRGB;color-interpolation-filters:linearRGB;solid-color:#000000;solid-opacity:1;vector-effect:none;fill:#000000;fill-opacity:1;fill-rule:nonzero;stroke:none;stroke-width:18.98795319;stroke-linecap:butt;stroke-linejoin:miter;stroke-miterlimit:4;stroke-dasharray:none;stroke-dashoffset:0;stroke-opacity:1;color-rendering:auto;image-rendering:auto;shape-rendering:auto;text-rendering:auto;enable-background:accumulate"
     d="m 436.58984,651.77734 c 0,0 -3.34004,13.01151 -5.16015,28.9375 -1.82011,15.926 -3.0391,34.78158 4.79687,49.66993 l 16.80274,-8.84375 c -3.7499,-7.12482 -4.39002,-24.18301 -2.73438,-38.66993 1.65565,-14.48691 4.68946,-26.38671 4.68946,-26.38671 z"
     id="path1975"
     inkscape:connector-curvature="0" />
  <path
     style="color:#000000;font-style:normal;font-variant:normal;font-weight:normal;font-stretch:normal;font-size:medium;line-height:normal;font-family:sans-serif;font-variant-ligatures:normal;font-variant-position:normal;font-variant-caps:normal;font-variant-numeric:normal;font-variant-alternates:normal;font-feature-settings:normal;text-indent:0;text-align:start;text-decoration:none;text-decoration-line:none;text-decoration-style:solid;text-decoration-color:#000000;letter-spacing:normal;word-spacing:normal;text-transform:none;writing-mode:lr-tb;direction:ltr;text-orientation:mixed;dominant-baseline:auto;baseline-shift:baseline;text-anchor:start;white-space:normal;shape-padding:0;clip-rule:nonzero;display:inline;overflow:visible;visibility:visible;opacity:1;isolation:auto;mix-blend-mode:normal;color-interpolation:sRGB;color-interpolation-filters:linearRGB;solid-color:#000000;solid-opacity:1;vector-effect:none;fill:#000000;fill-opacity:1;fill-rule:nonzero;stroke:none;stroke-width:18.98795319;stroke-linecap:butt;stroke-linejoin:miter;stroke-miterlimit:4;stroke-dasharray:none;stroke-dashoffset:0;stroke-opacity:1;color-rendering:auto;image-rendering:auto;shape-rendering:auto;text-rendering:auto;enable-background:accumulate"
     d="m 711.30859,582.26953 c -15.17494,-0.84783 -28.63153,2.20063 -39.125,8.5625 -10.49346,6.36187 -17.9372,16.78112 -18.94336,28.95313 -1.00615,12.172 4.15833,25.04175 14.82227,37.14648 l 14.24805,-12.55273 c -8.304,-9.42595 -10.62087,-17.29049 -10.14649,-23.0293 0.47438,-5.73881 3.47504,-10.40825 9.86328,-14.28125 12.77649,-7.746 39.45325,-9.33555 69.80664,6.78711 l 8.90821,-16.76953 c -17.3655,-9.22395 -34.25866,-13.96857 -49.4336,-14.81641 z"
     id="path2522"
     inkscape:connector-curvature="0" />
</svg>
