<?xml version="1.0" encoding="UTF-8" standalone="no"?>
<!-- Created with Inkscape (http://www.inkscape.org/) -->

<svg
   xmlns:dc="http://purl.org/dc/elements/1.1/"
   xmlns:cc="http://creativecommons.org/ns#"
   xmlns:rdf="http://www.w3.org/1999/02/22-rdf-syntax-ns#"
   xmlns:svg="http://www.w3.org/2000/svg"
   xmlns="http://www.w3.org/2000/svg"
   xmlns:sodipodi="http://sodipodi.sourceforge.net/DTD/sodipodi-0.dtd"
   xmlns:inkscape="http://www.inkscape.org/namespaces/inkscape"
   version="1.1"
   id="svg10006"
   width="1000"
   height="1000"
   viewBox="0 0 1000 1000"
   sodipodi:docname="T.svg"
   inkscape:version="0.92.4 (5da689c313, 2019-01-14)">
  <metadata
     id="metadata10012">
    <rdf:RDF>
      <cc:Work
         rdf:about="">
        <dc:format>image/svg+xml</dc:format>
        <dc:type
           rdf:resource="http://purl.org/dc/dcmitype/StillImage" />
        <dc:title />
      </cc:Work>
    </rdf:RDF>
  </metadata>
  <defs
     id="defs10010">
    <clipPath
       clipPathUnits="userSpaceOnUse"
       id="clipPath10024">
      <rect
         style="opacity:1;fill:#00000a;fill-opacity:0.04705882;stroke:#000000;stroke-width:15;stroke-miterlimit:4;stroke-dasharray:none;stroke-opacity:1"
         id="rect10026"
         width="985"
         height="985"
         x="7.5"
         y="7.5"
         transform="rotate(-90)" />
    </clipPath>
  </defs>
  <sodipodi:namedview
     pagecolor="#ffffff"
     bordercolor="#666666"
     borderopacity="1"
     objecttolerance="10"
     gridtolerance="10"
     guidetolerance="10"
     inkscape:pageopacity="0"
     inkscape:pageshadow="2"
     inkscape:window-width="1366"
     inkscape:window-height="715"
     id="namedview10008"
     showgrid="false"
     inkscape:zoom="0.38628982"
     inkscape:cx="290.89901"
     inkscape:cy="478.1234"
     inkscape:window-x="-8"
     inkscape:window-y="-8"
     inkscape:window-maximized="1"
     inkscape:current-layer="svg10006" />
  <path
     style="color:#000000;font-style:normal;font-variant:normal;font-weight:normal;font-stretch:normal;font-size:medium;line-height:normal;font-family:sans-serif;font-variant-ligatures:normal;font-variant-position:normal;font-variant-caps:normal;font-variant-numeric:normal;font-variant-alternates:normal;font-feature-settings:normal;text-indent:0;text-align:start;text-decoration:none;text-decoration-line:none;text-decoration-style:solid;text-decoration-color:#000000;letter-spacing:normal;word-spacing:normal;text-transform:none;writing-mode:lr-tb;direction:ltr;text-orientation:mixed;dominant-baseline:auto;baseline-shift:baseline;text-anchor:start;white-space:normal;shape-padding:0;clip-rule:nonzero;display:inline;overflow:visible;visibility:visible;opacity:1;isolation:auto;mix-blend-mode:normal;color-interpolation:sRGB;color-interpolation-filters:linearRGB;solid-color:#000000;solid-opacity:1;vector-effect:none;fill:#000000;fill-opacity:1;fill-rule:nonzero;stroke:none;stroke-width:25.26788902;stroke-linecap:butt;stroke-linejoin:miter;stroke-miterlimit:4;stroke-dasharray:none;stroke-dashoffset:0;stroke-opacity:1;color-rendering:auto;image-rendering:auto;shape-rendering:auto;text-rendering:auto;enable-background:accumulate"
     d="M 468.92383,1.4433594 C 455.28004,2.3521555 441.73328,7.5347558 431.35547,17.328125 420.97766,27.121494 414.29842,42.005729 415.375,59.082031 l -0.0234,-1.001953 c -0.6916,42.174212 -17.9049,135.242462 -35.06836,216.050782 -15.91267,74.91942 -30.38524,134.73232 -32.59765,143.84766 -0.82338,-0.27866 -1.67343,-1.02317 -3.41407,-2.47657 -3.96741,-3.31272 -9.85617,-11.96261 -15.51757,-24.31445 C 317.43111,366.48381 305.92898,327.8562 291.91797,287.06055 262.69318,201.96742 245.80078,94.083984 245.80078,94.083984 l -0.0254,-0.164062 -0.0293,-0.16211 C 242.79037,77.548368 233.69017,65.241084 222.08203,58.978516 210.47389,52.715948 197.3694,52.059233 185.44141,54.527344 c -11.92799,2.46811 -23.02361,8.019068 -31.43555,16.376953 -8.02492,7.97335 -13.6315,19.592806 -11.97461,32.076173 1.49885,75.47987 20.05895,166.00147 38.54687,238.25976 9.25613,36.17671 18.50867,67.71188 25.66797,90.34375 3.57965,11.31594 6.62834,20.39113 8.93555,26.8086 1.15361,3.20873 2.10669,5.72652 2.9375,7.71484 0.36044,0.86262 0.7038,1.61516 1.12109,2.44922 0.83547,3.21688 0.51616,4.43194 0.41407,4.64648 -0.11521,0.24209 -0.41918,0.70441 -1.92969,1.40626 -1.06989,0.49711 -2.48442,0.71816 -3.82227,0.97265 -28.3769,-31.29606 -59.77551,-81.50789 -83.92382,-124.54101 -25.31545,-45.113 -42.908207,-82.11524 -42.908208,-82.11524 l -1.126953,-2.36914 -1.974609,-1.72461 C 69.518941,252.21796 56.516957,245.94726 43.888672,245.94727 c -12.628285,0 -22.744082,7.23679 -28.681641,14.98437 C 3.3319144,276.42681 1.6953125,295.67188 1.6953125,295.67188 l -0.2285156,1.75976 0.2675781,1.75391 c 13.297743,87.58052 77.964844,191.18164 77.964844,191.18164 l 0.07813,0.1289 0.08203,0.12696 c 28.979485,44.73872 41.624555,69.89248 46.783205,82.90234 2.13276,5.37873 2.8154,8.23251 3.10351,9.75586 l -0.50195,0.94922 0.7793,4.29883 c 15.55504,85.8364 42.31452,252.79516 154.43945,410.15429 l 20.57813,-14.66211 C 197.24043,832.73125 170.83433,672.17874 155.14062,585.42188 c 0.0507,-1.27262 0.1331,-2.51257 -0.041,-3.96876 -0.49731,-4.1593 -1.85931,-9.40033 -4.96875,-17.24218 -6.20598,-15.65118 -19.53761,-41.71305 -48.9043,-87.07227 0,0 -61.480757,-101.73969 -74.119138,-179.65234 0.429376,-2.17263 2.925991,-14.36343 8.154297,-21.18555 2.852069,-3.7215 4.809384,-5.08593 8.626953,-5.08594 3.611692,0 10.931269,2.31998 21.710937,11.28711 1.847944,3.8635 18.011862,37.54751 42.341801,80.9043 25.75691,45.89972 59.05071,99.94114 91.8125,134.25195 l 3.60742,3.77735 5.22265,0.1289 c 0,0 9.66997,0.65981 19.78711,-4.04101 5.05857,-2.35041 10.81463,-6.55993 14.09961,-13.46289 3.28499,-6.90297 3.38152,-15.47405 0.67774,-24.07422 l -2.24219,-7.13281 -0.87109,-0.17383 c -0.37882,-1.00369 -0.61135,-1.54305 -1.07618,-2.83594 -2.13778,-5.94619 -5.11743,-14.797 -8.62304,-25.87891 -7.01124,-22.16381 -16.15161,-53.31357 -25.2793,-88.98828 -18.25538,-71.34941 -36.39286,-161.04904 -37.77539,-232.78711 l -0.0215,-1.0625 -0.19727,-1.04492 c -0.68482,-3.618019 0.50903,-7.038247 4.75195,-11.253905 4.24293,-4.215658 11.41252,-8.039194 18.7461,-9.556641 7.33358,-1.517446 14.48853,-0.77101 19.52343,1.945313 5.03491,2.716322 8.96111,6.963863 10.80469,17.074219 0.14749,0.952879 16.89299,108.927954 47.13281,196.976564 13.7842,40.13523 25.04338,78.69882 37.76172,106.44726 6.35918,13.87423 12.81029,25.26572 22.29297,33.1836 9.48269,7.91788 24.58228,10.17478 36.40039,3.70117 l 4.88477,-2.67578 1.32031,-5.41016 c 0,0 17.0635,-69.89412 34.31836,-151.13281 17.25486,-81.23869 34.82843,-172.78817 35.61719,-220.886719 l 0.008,-0.5 -0.0312,-0.501953 c -0.63792,-10.118463 2.6343,-16.624054 8.10547,-21.78711 5.47117,-5.163056 13.67104,-8.502374 21.9043,-9.050781 8.23325,-0.548407 16.08779,1.673553 21.32031,5.925781 5.22985,4.250058 8.80939,10.271017 8.55078,21.703125 -0.003,0.111305 -1.66164,55.428347 -6.53711,120.996097 -4.88038,65.63373 -13.38812,142.12465 -25.44922,180.36328 l -5.92187,18.7793 18.84179,-2.35352 c 0.0215,0.0255 0.0389,0.0491 0.18164,0.0918 0.76236,0.22801 2.3487,0.77628 4.7461,3.42968 4.79479,5.30681 12.72789,20.39264 14.14453,56.85938 l 1.3125,33.79883 21.16601,-26.38477 c 0,0 11.85085,-14.39113 31.26954,-15.74219 19.41868,-1.35105 50.35119,9.40826 90.18945,75.06641 l 0.19922,0.32617 0.21679,0.31445 c 1.62621,2.34733 1.99265,5.18156 0.0391,9.76758 -1.95358,4.58603 -6.5863,10.00658 -13.48438,13.74024 -13.79616,7.46731 -36.34451,9.45544 -65.49805,-12.65235 l -27.97656,-21.21484 8.04492,34.17578 c 0,0 0.95949,3.48669 2.97071,7.64649 2.01121,4.15979 5.32694,10.0611 10.85937,18.08789 11.00725,15.96996 30.84811,40.41239 66.79492,76.02734 0.20693,0.2246 29.51575,32.13803 9.09375,74.88281 l -0.57617,1.20508 -0.31054,1.29883 c 0,0 -10.49383,43.78697 -24.16797,90.30078 -6.83707,23.25691 -14.47865,47.18877 -21.86328,66.36914 -7.38463,19.18037 -16.41062,34.31352 -18.1543,35.85742 l -2.69531,2.38867 -1.03321,3.44922 c 0,0 -10.24128,34.0291 -4.00586,76.33399 l 24.99805,-3.6836 c -4.64015,-31.48158 0.85784,-56.11737 2.52539,-62.61523 9.2888,-9.93091 14.88016,-24.30176 21.94531,-42.65234 7.81218,-20.29085 15.57663,-44.68543 22.52539,-68.32227 13.67826,-46.5278 23.94794,-89.28959 24.27539,-90.6543 25.34359,-55.51747 -13.71484,-101.00586 -13.71484,-101.00586 l -0.27344,-0.30664 -0.29101,-0.28906 c -24.64019,-24.37832 -40.91679,-42.84406 -52.09375,-56.83594 19.39025,4.39347 37.07837,1.77463 50.64844,-5.57031 11.50126,-6.22517 20.15788,-15.38866 24.70312,-26.05859 4.54524,-10.66994 4.61998,-23.76359 -2.51367,-34.06055 l 0.41601,0.64258 c -42.32161,-69.751 -82.44833,-89.32969 -113.54687,-87.16602 -11.45947,0.79729 -21.12201,4.43524 -28.80078,8.69336 -3.39161,-24.76581 -10.24346,-39.72152 -18.58789,-48.95703 -2.97073,-3.28796 -6.11946,-5.69461 -9.17774,-7.49805 11.75673,-44.87045 18.71604,-113.34024 23.22657,-174 4.92699,-66.26069 6.59961,-122.185543 6.59961,-122.185543 v -0.04492 l 0.002,-0.04297 C 526.14674,36.998498 518.99655,22.021375 507.85938,12.970703 496.7222,3.9200311 482.56761,0.53456329 468.92383,1.4433594 Z"
     id="path10028"
     inkscape:connector-curvature="0" />
  <path
     style="color:#000000;font-style:normal;font-variant:normal;font-weight:normal;font-stretch:normal;font-size:medium;line-height:normal;font-family:sans-serif;font-variant-ligatures:normal;font-variant-position:normal;font-variant-caps:normal;font-variant-numeric:normal;font-variant-alternates:normal;font-feature-settings:normal;text-indent:0;text-align:start;text-decoration:none;text-decoration-line:none;text-decoration-style:solid;text-decoration-color:#000000;letter-spacing:normal;word-spacing:normal;text-transform:none;writing-mode:lr-tb;direction:ltr;text-orientation:mixed;dominant-baseline:auto;baseline-shift:baseline;text-anchor:start;white-space:normal;shape-padding:0;clip-rule:nonzero;display:inline;overflow:visible;visibility:visible;opacity:1;isolation:auto;mix-blend-mode:normal;color-interpolation:sRGB;color-interpolation-filters:linearRGB;solid-color:#000000;solid-opacity:1;vector-effect:none;fill:#000000;fill-opacity:1;fill-rule:nonzero;stroke:none;stroke-width:18.95091629;stroke-linecap:butt;stroke-linejoin:miter;stroke-miterlimit:4;stroke-dasharray:none;stroke-dashoffset:0;stroke-opacity:1;color-rendering:auto;image-rendering:auto;shape-rendering:auto;text-rendering:auto;enable-background:accumulate"
     d="m 380.58789,814.79688 -16.23437,9.77929 c 0,0 23.16922,38.70094 61.21484,69.22461 19.02281,15.26183 41.96257,28.68515 68.08203,33.88477 26.11946,5.19961 55.38236,1.76292 84.98047,-15.79297 l -9.66797,-16.29883 c -25.91532,15.37148 -49.57542,17.89295 -71.61328,13.50586 -22.03786,-4.38709 -42.49164,-16.09595 -59.92188,-30.08008 -34.86046,-27.96825 -56.83984,-64.22266 -56.83984,-64.22265 z"
     id="path10030"
     inkscape:connector-curvature="0" />
  <path
     style="color:#000000;font-style:normal;font-variant:normal;font-weight:normal;font-stretch:normal;font-size:medium;line-height:normal;font-family:sans-serif;font-variant-ligatures:normal;font-variant-position:normal;font-variant-caps:normal;font-variant-numeric:normal;font-variant-alternates:normal;font-feature-settings:normal;text-indent:0;text-align:start;text-decoration:none;text-decoration-line:none;text-decoration-style:solid;text-decoration-color:#000000;letter-spacing:normal;word-spacing:normal;text-transform:none;writing-mode:lr-tb;direction:ltr;text-orientation:mixed;dominant-baseline:auto;baseline-shift:baseline;text-anchor:start;white-space:normal;shape-padding:0;clip-rule:nonzero;display:inline;overflow:visible;visibility:visible;opacity:1;isolation:auto;mix-blend-mode:normal;color-interpolation:sRGB;color-interpolation-filters:linearRGB;solid-color:#000000;solid-opacity:1;vector-effect:none;fill:#000000;fill-opacity:1;fill-rule:nonzero;stroke:none;stroke-width:18.95091629;stroke-linecap:butt;stroke-linejoin:miter;stroke-miterlimit:4;stroke-dasharray:none;stroke-dashoffset:0;stroke-opacity:1;color-rendering:auto;image-rendering:auto;shape-rendering:auto;text-rendering:auto;enable-background:accumulate"
     d="m 379.0957,954.31445 c -24.84704,24.83903 -46.4101,27.47949 -62.59765,25.07617 -16.18755,-2.40331 -26.25977,-10.29296 -26.25977,-10.29296 l -11.69726,14.91211 c 0,0 13.98232,10.98071 35.17382,14.12695 21.19151,3.14628 50.33344,-1.98324 78.7793,-30.41992 z"
     id="path10034"
     inkscape:connector-curvature="0" />
  <path
     style="color:#000000;font-style:normal;font-variant:normal;font-weight:normal;font-stretch:normal;font-size:medium;line-height:normal;font-family:sans-serif;font-variant-ligatures:normal;font-variant-position:normal;font-variant-caps:normal;font-variant-numeric:normal;font-variant-alternates:normal;font-feature-settings:normal;text-indent:0;text-align:start;text-decoration:none;text-decoration-line:none;text-decoration-style:solid;text-decoration-color:#000000;letter-spacing:normal;word-spacing:normal;text-transform:none;writing-mode:lr-tb;direction:ltr;text-orientation:mixed;dominant-baseline:auto;baseline-shift:baseline;text-anchor:start;white-space:normal;shape-padding:0;clip-rule:nonzero;display:inline;overflow:visible;visibility:visible;opacity:1;isolation:auto;mix-blend-mode:normal;color-interpolation:sRGB;color-interpolation-filters:linearRGB;solid-color:#000000;solid-opacity:1;vector-effect:none;fill:#000000;fill-opacity:1;fill-rule:nonzero;stroke:none;stroke-width:25.26788902;stroke-linecap:butt;stroke-linejoin:miter;stroke-miterlimit:4;stroke-dasharray:none;stroke-dashoffset:0;stroke-opacity:1;color-rendering:auto;image-rendering:auto;shape-rendering:auto;text-rendering:auto;enable-background:accumulate"
     d="m 477.08594,347.29102 c 0,0 -36.87389,10.64986 -55.33008,49.45898 -18.45619,38.80912 -17.58403,102.73292 44.2832,204.55469 l -0.32226,-0.5625 c 0,0 10.61709,19.75989 26.83789,39.78515 16.2208,20.02526 37.90111,42.55702 66.21679,43.0625 l 0.45118,-25.26367 c -13.13434,-0.23447 -32.53658,-15.80642 -47.03321,-33.70312 -14.49663,-17.89671 -24.23437,-35.875 -24.23437,-35.875 l -0.15235,-0.28711 -0.16992,-0.27735 c -59.52214,-97.9622 -56.79825,-151.68658 -43.05664,-180.58203 13.74161,-28.89544 39.41211,-36.0039 39.41211,-36.0039 z"
     id="path10036"
     inkscape:connector-curvature="0" />
  <path
     style="color:#000000;font-style:normal;font-variant:normal;font-weight:normal;font-stretch:normal;font-size:medium;line-height:normal;font-family:sans-serif;font-variant-ligatures:normal;font-variant-position:normal;font-variant-caps:normal;font-variant-numeric:normal;font-variant-alternates:normal;font-feature-settings:normal;text-indent:0;text-align:start;text-decoration:none;text-decoration-line:none;text-decoration-style:solid;text-decoration-color:#000000;letter-spacing:normal;word-spacing:normal;text-transform:none;writing-mode:lr-tb;direction:ltr;text-orientation:mixed;dominant-baseline:auto;baseline-shift:baseline;text-anchor:start;white-space:normal;shape-padding:0;clip-rule:nonzero;display:inline;overflow:visible;visibility:visible;opacity:1;isolation:auto;mix-blend-mode:normal;color-interpolation:sRGB;color-interpolation-filters:linearRGB;solid-color:#000000;solid-opacity:1;vector-effect:none;fill:#000000;fill-opacity:1;fill-rule:nonzero;stroke:none;stroke-width:18.95091629;stroke-linecap:butt;stroke-linejoin:miter;stroke-miterlimit:4;stroke-dasharray:none;stroke-dashoffset:0;stroke-opacity:1;color-rendering:auto;image-rendering:auto;shape-rendering:auto;text-rendering:auto;enable-background:accumulate"
     d="m 382.49219,569.13477 c -21.0352,18.52362 -68.04679,37.66272 -114.2793,54.26562 -46.23251,16.6029 -91.1776,30.60433 -114.08789,45.54102 l 10.34961,15.875 c 17.40462,-11.34719 63.54758,-26.8463 110.14453,-43.58008 46.59696,-16.73378 94.15541,-34.76926 120.39844,-57.87891 z"
     id="path10038"
     inkscape:connector-curvature="0" />
  <path
     style="color:#000000;font-style:normal;font-variant:normal;font-weight:normal;font-stretch:normal;font-size:medium;line-height:normal;font-family:sans-serif;font-variant-ligatures:normal;font-variant-position:normal;font-variant-caps:normal;font-variant-numeric:normal;font-variant-alternates:normal;font-feature-settings:normal;text-indent:0;text-align:start;text-decoration:none;text-decoration-line:none;text-decoration-style:solid;text-decoration-color:#000000;letter-spacing:normal;word-spacing:normal;text-transform:none;writing-mode:lr-tb;direction:ltr;text-orientation:mixed;dominant-baseline:auto;baseline-shift:baseline;text-anchor:start;white-space:normal;shape-padding:0;clip-rule:nonzero;display:inline;overflow:visible;visibility:visible;opacity:1;isolation:auto;mix-blend-mode:normal;color-interpolation:sRGB;color-interpolation-filters:linearRGB;solid-color:#000000;solid-opacity:1;vector-effect:none;fill:#000000;fill-opacity:1;fill-rule:nonzero;stroke:none;stroke-width:18.95091629;stroke-linecap:butt;stroke-linejoin:miter;stroke-miterlimit:4;stroke-dasharray:none;stroke-dashoffset:0;stroke-opacity:1;color-rendering:auto;image-rendering:auto;shape-rendering:auto;text-rendering:auto;enable-background:accumulate"
     d="m 470.05273,578.00586 c -41.34913,7.09807 -75.2028,43.43312 -99.76171,76.89453 -24.55892,33.46141 -39.68164,65.25977 -39.68164,65.25977 l 17.10742,8.14843 c 0,0 14.48388,-30.35695 37.85156,-62.19531 23.36768,-31.83835 55.76085,-63.94876 87.68945,-69.42969 z"
     id="path10040"
     inkscape:connector-curvature="0" />
  <path
     style="color:#000000;font-style:normal;font-variant:normal;font-weight:normal;font-stretch:normal;font-size:medium;line-height:normal;font-family:sans-serif;font-variant-ligatures:normal;font-variant-position:normal;font-variant-caps:normal;font-variant-numeric:normal;font-variant-alternates:normal;font-feature-settings:normal;text-indent:0;text-align:start;text-decoration:none;text-decoration-line:none;text-decoration-style:solid;text-decoration-color:#000000;letter-spacing:normal;word-spacing:normal;text-transform:none;writing-mode:lr-tb;direction:ltr;text-orientation:mixed;dominant-baseline:auto;baseline-shift:baseline;text-anchor:start;white-space:normal;shape-padding:0;clip-rule:nonzero;display:inline;overflow:visible;visibility:visible;opacity:1;isolation:auto;mix-blend-mode:normal;color-interpolation:sRGB;color-interpolation-filters:linearRGB;solid-color:#000000;solid-opacity:1;vector-effect:none;fill:#000000;fill-opacity:1;fill-rule:nonzero;stroke:none;stroke-width:18.95091629;stroke-linecap:butt;stroke-linejoin:miter;stroke-miterlimit:4;stroke-dasharray:none;stroke-dashoffset:0;stroke-opacity:1;color-rendering:auto;image-rendering:auto;shape-rendering:auto;text-rendering:auto;enable-background:accumulate"
     d="m 471.42188,585.01562 c -38.93042,17.76686 -57.87469,64.24735 -68.51954,105.00782 -10.64485,40.76046 -12.50781,77.3789 -12.50781,77.3789 l 18.92578,0.97852 c 0,0 1.83782,-34.97214 11.91797,-73.57031 10.08016,-38.59818 28.88667,-79.24403 58.05274,-92.55469 z"
     id="path10042"
     inkscape:connector-curvature="0" />
  <path
     style="color:#000000;font-style:normal;font-variant:normal;font-weight:normal;font-stretch:normal;font-size:medium;line-height:normal;font-family:sans-serif;font-variant-ligatures:normal;font-variant-position:normal;font-variant-caps:normal;font-variant-numeric:normal;font-variant-alternates:normal;font-feature-settings:normal;text-indent:0;text-align:start;text-decoration:none;text-decoration-line:none;text-decoration-style:solid;text-decoration-color:#000000;letter-spacing:normal;word-spacing:normal;text-transform:none;writing-mode:lr-tb;direction:ltr;text-orientation:mixed;dominant-baseline:auto;baseline-shift:baseline;text-anchor:start;white-space:normal;shape-padding:0;clip-rule:nonzero;display:inline;overflow:visible;visibility:visible;opacity:1;isolation:auto;mix-blend-mode:normal;color-interpolation:sRGB;color-interpolation-filters:linearRGB;solid-color:#000000;solid-opacity:1;vector-effect:none;fill:#000000;fill-opacity:1;fill-rule:nonzero;stroke:none;stroke-width:18.95091629;stroke-linecap:butt;stroke-linejoin:miter;stroke-miterlimit:4;stroke-dasharray:none;stroke-dashoffset:0;stroke-opacity:1;color-rendering:auto;image-rendering:auto;shape-rendering:auto;text-rendering:auto;enable-background:accumulate"
     d="m 472.36133,584.64453 c -10.83691,3.61114 -17.43462,12.87462 -23.14258,23.25977 -5.70796,10.38515 -10.27243,22.63701 -13.99219,34.50781 -7.43952,23.74161 -11.39062,46.13086 -11.39062,46.13086 l 18.66015,3.30859 c 0,0 3.8205,-21.45178 10.81446,-43.77148 3.49698,-11.15985 7.81482,-22.49417 12.51562,-31.04688 4.70081,-8.55271 10.03907,-13.57969 12.52539,-14.4082 z"
     id="path10044"
     inkscape:connector-curvature="0" />
  <path
     style="color:#000000;font-style:normal;font-variant:normal;font-weight:normal;font-stretch:normal;font-size:medium;line-height:normal;font-family:sans-serif;font-variant-ligatures:normal;font-variant-position:normal;font-variant-caps:normal;font-variant-numeric:normal;font-variant-alternates:normal;font-feature-settings:normal;text-indent:0;text-align:start;text-decoration:none;text-decoration-line:none;text-decoration-style:solid;text-decoration-color:#000000;letter-spacing:normal;word-spacing:normal;text-transform:none;writing-mode:lr-tb;direction:ltr;text-orientation:mixed;dominant-baseline:auto;baseline-shift:baseline;text-anchor:start;white-space:normal;shape-padding:0;clip-rule:nonzero;display:inline;overflow:visible;visibility:visible;opacity:1;isolation:auto;mix-blend-mode:normal;color-interpolation:sRGB;color-interpolation-filters:linearRGB;solid-color:#000000;solid-opacity:1;vector-effect:none;fill:#000000;fill-opacity:1;fill-rule:nonzero;stroke:none;stroke-width:18.95091629;stroke-linecap:butt;stroke-linejoin:miter;stroke-miterlimit:4;stroke-dasharray:none;stroke-dashoffset:0;stroke-opacity:1;color-rendering:auto;image-rendering:auto;shape-rendering:auto;text-rendering:auto;enable-background:accumulate"
     d="m 200.41797,484.69531 c 0,0 -7.6008,15.15959 -20.13672,31.48633 -12.53592,16.32674 -30.04541,32.88519 -46.80859,36.77539 l 4.2832,18.46094 c 24.68683,-5.72902 43.81619,-25.79784 57.55664,-43.69336 13.74045,-17.89552 22.05273,-34.55273 22.05273,-34.55273 z"
     id="path10048"
     inkscape:connector-curvature="0" />
  <path
     style="color:#000000;font-style:normal;font-variant:normal;font-weight:normal;font-stretch:normal;font-size:medium;line-height:normal;font-family:sans-serif;font-variant-ligatures:normal;font-variant-position:normal;font-variant-caps:normal;font-variant-numeric:normal;font-variant-alternates:normal;font-feature-settings:normal;text-indent:0;text-align:start;text-decoration:none;text-decoration-line:none;text-decoration-style:solid;text-decoration-color:#000000;letter-spacing:normal;word-spacing:normal;text-transform:none;writing-mode:lr-tb;direction:ltr;text-orientation:mixed;dominant-baseline:auto;baseline-shift:baseline;text-anchor:start;white-space:normal;shape-padding:0;clip-rule:nonzero;display:inline;overflow:visible;visibility:visible;opacity:1;isolation:auto;mix-blend-mode:normal;color-interpolation:sRGB;color-interpolation-filters:linearRGB;solid-color:#000000;solid-opacity:1;vector-effect:none;fill:#000000;fill-opacity:1;fill-rule:nonzero;stroke:none;stroke-width:18.95091629;stroke-linecap:butt;stroke-linejoin:miter;stroke-miterlimit:4;stroke-dasharray:none;stroke-dashoffset:0;stroke-opacity:1;color-rendering:auto;image-rendering:auto;shape-rendering:auto;text-rendering:auto;enable-background:accumulate"
     d="m 329.49805,417.2793 c -53.58518,39.18725 -98.23828,47.16211 -98.23828,47.16211 l 3.375,18.64648 c 0,0 49.34926,-9.04546 106.05078,-50.51172 z"
     id="path10050"
     inkscape:connector-curvature="0" />
  <path
     style="color:#000000;font-style:normal;font-variant:normal;font-weight:normal;font-stretch:normal;font-size:medium;line-height:normal;font-family:sans-serif;font-variant-ligatures:normal;font-variant-position:normal;font-variant-caps:normal;font-variant-numeric:normal;font-variant-alternates:normal;font-feature-settings:normal;text-indent:0;text-align:start;text-decoration:none;text-decoration-line:none;text-decoration-style:solid;text-decoration-color:#000000;letter-spacing:normal;word-spacing:normal;text-transform:none;writing-mode:lr-tb;direction:ltr;text-orientation:mixed;dominant-baseline:auto;baseline-shift:baseline;text-anchor:start;white-space:normal;shape-padding:0;clip-rule:nonzero;display:inline;overflow:visible;visibility:visible;opacity:1;isolation:auto;mix-blend-mode:normal;color-interpolation:sRGB;color-interpolation-filters:linearRGB;solid-color:#000000;solid-opacity:1;vector-effect:none;fill:#000000;fill-opacity:1;fill-rule:nonzero;stroke:none;stroke-width:18.95091629;stroke-linecap:butt;stroke-linejoin:miter;stroke-miterlimit:4;stroke-dasharray:none;stroke-dashoffset:0;stroke-opacity:1;color-rendering:auto;image-rendering:auto;shape-rendering:auto;text-rendering:auto;enable-background:accumulate"
     d="m 364.60938,415.82617 -10.18165,15.98438 c 0,0 9.99712,6.37649 23.37696,12.2832 13.37983,5.90671 30.1851,11.94853 46.57617,9.8418 l -2.41602,-18.79688 c -9.5152,1.22299 -24.5365,-3.09596 -36.50781,-8.38086 -11.97131,-5.28489 -20.84766,-10.93164 -20.84765,-10.93164 z"
     id="path10052"
     inkscape:connector-curvature="0" />
  <path
     style="color:#000000;font-style:normal;font-variant:normal;font-weight:normal;font-stretch:normal;font-size:medium;line-height:normal;font-family:sans-serif;font-variant-ligatures:normal;font-variant-position:normal;font-variant-caps:normal;font-variant-numeric:normal;font-variant-alternates:normal;font-feature-settings:normal;text-indent:0;text-align:start;text-decoration:none;text-decoration-line:none;text-decoration-style:solid;text-decoration-color:#000000;letter-spacing:normal;word-spacing:normal;text-transform:none;writing-mode:lr-tb;direction:ltr;text-orientation:mixed;dominant-baseline:auto;baseline-shift:baseline;text-anchor:start;white-space:normal;shape-padding:0;clip-rule:nonzero;display:inline;overflow:visible;visibility:visible;opacity:1;isolation:auto;mix-blend-mode:normal;color-interpolation:sRGB;color-interpolation-filters:linearRGB;solid-color:#000000;solid-opacity:1;vector-effect:none;fill:#000000;fill-opacity:1;fill-rule:nonzero;stroke:none;stroke-width:18.95091629;stroke-linecap:butt;stroke-linejoin:miter;stroke-miterlimit:4;stroke-dasharray:none;stroke-dashoffset:0;stroke-opacity:1;color-rendering:auto;image-rendering:auto;shape-rendering:auto;text-rendering:auto;enable-background:accumulate"
     d="m 144.06641,422.67773 c -15.62189,3.21523 -28.38116,13.25414 -37.72657,22.09961 -9.345407,8.84547 -15.380856,17.10157 -15.380856,17.10157 l 15.292966,11.19336 c 0,0 5.06645,-6.91304 13.11524,-14.53125 8.04879,-7.61822 18.97531,-15.33839 28.51953,-17.30274 z"
     id="path10056"
     inkscape:connector-curvature="0" />
  <path
     style="color:#000000;font-style:normal;font-variant:normal;font-weight:normal;font-stretch:normal;font-size:medium;line-height:normal;font-family:sans-serif;font-variant-ligatures:normal;font-variant-position:normal;font-variant-caps:normal;font-variant-numeric:normal;font-variant-alternates:normal;font-feature-settings:normal;text-indent:0;text-align:start;text-decoration:none;text-decoration-line:none;text-decoration-style:solid;text-decoration-color:#000000;letter-spacing:normal;word-spacing:normal;text-transform:none;writing-mode:lr-tb;direction:ltr;text-orientation:mixed;dominant-baseline:auto;baseline-shift:baseline;text-anchor:start;white-space:normal;shape-padding:0;clip-rule:nonzero;display:inline;overflow:visible;visibility:visible;opacity:1;isolation:auto;mix-blend-mode:normal;color-interpolation:sRGB;color-interpolation-filters:linearRGB;solid-color:#000000;solid-opacity:1;vector-effect:none;fill:#000000;fill-opacity:1;fill-rule:nonzero;stroke:none;stroke-width:18.95091629;stroke-linecap:butt;stroke-linejoin:miter;stroke-miterlimit:4;stroke-dasharray:none;stroke-dashoffset:0;stroke-opacity:1;color-rendering:auto;image-rendering:auto;shape-rendering:auto;text-rendering:auto;enable-background:accumulate"
     d="m 91.507812,341.09375 c -28.345227,-0.91404 -43.763671,22.7832 -43.763671,22.7832 L 63.603516,374.25 c 0,0 9.749065,-14.78064 27.294922,-14.21484 z"
     id="path10058"
     inkscape:connector-curvature="0" />
  <path
     style="color:#000000;font-style:normal;font-variant:normal;font-weight:normal;font-stretch:normal;font-size:medium;line-height:normal;font-family:sans-serif;font-variant-ligatures:normal;font-variant-position:normal;font-variant-caps:normal;font-variant-numeric:normal;font-variant-alternates:normal;font-feature-settings:normal;text-indent:0;text-align:start;text-decoration:none;text-decoration-line:none;text-decoration-style:solid;text-decoration-color:#000000;letter-spacing:normal;word-spacing:normal;text-transform:none;writing-mode:lr-tb;direction:ltr;text-orientation:mixed;dominant-baseline:auto;baseline-shift:baseline;text-anchor:start;white-space:normal;shape-padding:0;clip-rule:nonzero;display:inline;overflow:visible;visibility:visible;opacity:1;isolation:auto;mix-blend-mode:normal;color-interpolation:sRGB;color-interpolation-filters:linearRGB;solid-color:#000000;solid-opacity:1;vector-effect:none;fill:#000000;fill-opacity:1;fill-rule:nonzero;stroke:none;stroke-width:18.95091629;stroke-linecap:butt;stroke-linejoin:miter;stroke-miterlimit:4;stroke-dasharray:none;stroke-dashoffset:0;stroke-opacity:1;color-rendering:auto;image-rendering:auto;shape-rendering:auto;text-rendering:auto;enable-background:accumulate"
     d="m 226.63672,179.9375 c -10.06249,-0.54792 -19.8218,2.06543 -27.89063,4.7793 -10.75844,3.61849 -18.8457,8.07617 -18.8457,8.07617 l 9.13086,16.60742 c 0,0 6.71451,-3.68169 15.75586,-6.72266 9.04135,-3.04096 20.07725,-4.78162 26.58008,-2.85546 l 5.38086,-18.16993 c -3.3705,-0.99835 -6.75717,-1.5322 -10.11133,-1.71484 z"
     id="path10060"
     inkscape:connector-curvature="0" />
  <path
     style="color:#000000;font-style:normal;font-variant:normal;font-weight:normal;font-stretch:normal;font-size:medium;line-height:normal;font-family:sans-serif;font-variant-ligatures:normal;font-variant-position:normal;font-variant-caps:normal;font-variant-numeric:normal;font-variant-alternates:normal;font-feature-settings:normal;text-indent:0;text-align:start;text-decoration:none;text-decoration-line:none;text-decoration-style:solid;text-decoration-color:#000000;letter-spacing:normal;word-spacing:normal;text-transform:none;writing-mode:lr-tb;direction:ltr;text-orientation:mixed;dominant-baseline:auto;baseline-shift:baseline;text-anchor:start;white-space:normal;shape-padding:0;clip-rule:nonzero;display:inline;overflow:visible;visibility:visible;opacity:1;isolation:auto;mix-blend-mode:normal;color-interpolation:sRGB;color-interpolation-filters:linearRGB;solid-color:#000000;solid-opacity:1;vector-effect:none;fill:#000000;fill-opacity:1;fill-rule:nonzero;stroke:none;stroke-width:18.95091629;stroke-linecap:butt;stroke-linejoin:miter;stroke-miterlimit:4;stroke-dasharray:none;stroke-dashoffset:0;stroke-opacity:1;color-rendering:auto;image-rendering:auto;shape-rendering:auto;text-rendering:auto;enable-background:accumulate"
     d="m 263.45312,315.30078 c -11.39775,0.42511 -22.24383,4.11501 -31.12109,7.84375 -11.83634,4.97165 -20.46875,10.59961 -20.46875,10.59961 l 10.33984,15.88281 c 0,0 7.28282,-4.73216 17.4668,-9.00976 10.18398,-4.27761 22.97296,-7.51523 31.92188,-5.88867 l 3.39062,-18.64454 c -3.86925,-0.70327 -7.73004,-0.9249 -11.5293,-0.7832 z"
     id="path10062"
     inkscape:connector-curvature="0" />
  <path
     style="color:#000000;font-style:normal;font-variant:normal;font-weight:normal;font-stretch:normal;font-size:medium;line-height:normal;font-family:sans-serif;font-variant-ligatures:normal;font-variant-position:normal;font-variant-caps:normal;font-variant-numeric:normal;font-variant-alternates:normal;font-feature-settings:normal;text-indent:0;text-align:start;text-decoration:none;text-decoration-line:none;text-decoration-style:solid;text-decoration-color:#000000;letter-spacing:normal;word-spacing:normal;text-transform:none;writing-mode:lr-tb;direction:ltr;text-orientation:mixed;dominant-baseline:auto;baseline-shift:baseline;text-anchor:start;white-space:normal;shape-padding:0;clip-rule:nonzero;display:inline;overflow:visible;visibility:visible;opacity:1;isolation:auto;mix-blend-mode:normal;color-interpolation:sRGB;color-interpolation-filters:linearRGB;solid-color:#000000;solid-opacity:1;vector-effect:none;fill:#000000;fill-opacity:1;fill-rule:nonzero;stroke:none;stroke-width:18.95091629;stroke-linecap:butt;stroke-linejoin:miter;stroke-miterlimit:4;stroke-dasharray:none;stroke-dashoffset:0;stroke-opacity:1;color-rendering:auto;image-rendering:auto;shape-rendering:auto;text-rendering:auto;enable-background:accumulate"
     d="m 452.91406,140.38672 c -11.66675,0.40567 -21.16601,2.64648 -21.16601,2.64648 l 4.3164,18.45313 c 0,0 7.89441,-1.82589 17.50782,-2.16016 9.6134,-0.33427 20.10457,1.5423 24.5,5.3086 l 12.33203,-14.39063 c -11.14832,-9.55264 -25.82349,-10.26309 -37.49024,-9.85742 z"
     id="path10064"
     inkscape:connector-curvature="0" />
  <path
     style="color:#000000;font-style:normal;font-variant:normal;font-weight:normal;font-stretch:normal;font-size:medium;line-height:normal;font-family:sans-serif;font-variant-ligatures:normal;font-variant-position:normal;font-variant-caps:normal;font-variant-numeric:normal;font-variant-alternates:normal;font-feature-settings:normal;text-indent:0;text-align:start;text-decoration:none;text-decoration-line:none;text-decoration-style:solid;text-decoration-color:#000000;letter-spacing:normal;word-spacing:normal;text-transform:none;writing-mode:lr-tb;direction:ltr;text-orientation:mixed;dominant-baseline:auto;baseline-shift:baseline;text-anchor:start;white-space:normal;shape-padding:0;clip-rule:nonzero;display:inline;overflow:visible;visibility:visible;opacity:1;isolation:auto;mix-blend-mode:normal;color-interpolation:sRGB;color-interpolation-filters:linearRGB;solid-color:#000000;solid-opacity:1;vector-effect:none;fill:#000000;fill-opacity:1;fill-rule:nonzero;stroke:none;stroke-width:18.95091629;stroke-linecap:butt;stroke-linejoin:miter;stroke-miterlimit:4;stroke-dasharray:none;stroke-dashoffset:0;stroke-opacity:1;color-rendering:auto;image-rendering:auto;shape-rendering:auto;text-rendering:auto;enable-background:accumulate"
     d="m 430.50586,293.42969 c -11.87341,-0.24103 -20.70313,1.97461 -20.70313,1.97461 l 3.79688,18.5664 c 0,0 29.81117,-4.45621 43.96094,6.96875 l 11.90429,-14.74414 c -12.16978,-9.82627 -27.08558,-12.52459 -38.95898,-12.76562 z"
     id="path10066"
     inkscape:connector-curvature="0" />
  <path
     style="color:#000000;font-style:normal;font-variant:normal;font-weight:normal;font-stretch:normal;font-size:medium;line-height:normal;font-family:sans-serif;font-variant-ligatures:normal;font-variant-position:normal;font-variant-caps:normal;font-variant-numeric:normal;font-variant-alternates:normal;font-feature-settings:normal;text-indent:0;text-align:start;text-decoration:none;text-decoration-line:none;text-decoration-style:solid;text-decoration-color:#000000;letter-spacing:normal;word-spacing:normal;text-transform:none;writing-mode:lr-tb;direction:ltr;text-orientation:mixed;dominant-baseline:auto;baseline-shift:baseline;text-anchor:start;white-space:normal;shape-padding:0;clip-rule:nonzero;display:inline;overflow:visible;visibility:visible;opacity:1;isolation:auto;mix-blend-mode:normal;color-interpolation:sRGB;color-interpolation-filters:linearRGB;solid-color:#000000;solid-opacity:1;vector-effect:none;fill:#000000;fill-opacity:1;fill-rule:nonzero;stroke:none;stroke-width:18.95091629;stroke-linecap:butt;stroke-linejoin:miter;stroke-miterlimit:4;stroke-dasharray:none;stroke-dashoffset:0;stroke-opacity:1;color-rendering:auto;image-rendering:auto;shape-rendering:auto;text-rendering:auto;enable-background:accumulate"
     d="m 510.53125,529.33984 c -17.14723,12.34202 -30.92707,15.51721 -40.27344,15.98438 -9.34636,0.46717 -13.375,-1.46484 -13.375,-1.46484 l -7.46289,17.41796 c 0,0 8.92418,3.61736 21.7832,2.97461 12.85903,-0.64274 30.53672,-5.23542 50.39844,-19.53125 z"
     id="path10070"
     inkscape:connector-curvature="0" />
  <path
     style="color:#000000;font-style:normal;font-variant:normal;font-weight:normal;font-stretch:normal;font-size:medium;line-height:normal;font-family:sans-serif;font-variant-ligatures:normal;font-variant-position:normal;font-variant-caps:normal;font-variant-numeric:normal;font-variant-alternates:normal;font-feature-settings:normal;text-indent:0;text-align:start;text-decoration:none;text-decoration-line:none;text-decoration-style:solid;text-decoration-color:#000000;letter-spacing:normal;word-spacing:normal;text-transform:none;writing-mode:lr-tb;direction:ltr;text-orientation:mixed;dominant-baseline:auto;baseline-shift:baseline;text-anchor:start;white-space:normal;shape-padding:0;clip-rule:nonzero;display:inline;overflow:visible;visibility:visible;opacity:1;isolation:auto;mix-blend-mode:normal;color-interpolation:sRGB;color-interpolation-filters:linearRGB;solid-color:#000000;solid-opacity:1;vector-effect:none;fill:#000000;fill-opacity:1;fill-rule:nonzero;stroke:none;stroke-width:25.26788902;stroke-linecap:butt;stroke-linejoin:miter;stroke-miterlimit:4;stroke-dasharray:none;stroke-dashoffset:0;stroke-opacity:1;color-rendering:auto;image-rendering:auto;shape-rendering:auto;text-rendering:auto;enable-background:accumulate"
     d="m 525.72656,431.41211 -25.24414,1.0918 c 0,0 0.8051,71.32958 51.68555,99.3164 l 12.17773,-22.13867 c -33.75445,-18.56666 -38.61914,-78.26953 -38.61914,-78.26953 z"
     id="path10072"
     inkscape:connector-curvature="0" />
  <path
     style="color:#000000;font-style:normal;font-variant:normal;font-weight:normal;font-stretch:normal;font-size:medium;line-height:normal;font-family:sans-serif;font-variant-ligatures:normal;font-variant-position:normal;font-variant-caps:normal;font-variant-numeric:normal;font-variant-alternates:normal;font-feature-settings:normal;text-indent:0;text-align:start;text-decoration:none;text-decoration-line:none;text-decoration-style:solid;text-decoration-color:#000000;letter-spacing:normal;word-spacing:normal;text-transform:none;writing-mode:lr-tb;direction:ltr;text-orientation:mixed;dominant-baseline:auto;baseline-shift:baseline;text-anchor:start;white-space:normal;shape-padding:0;clip-rule:nonzero;display:inline;overflow:visible;visibility:visible;opacity:1;isolation:auto;mix-blend-mode:normal;color-interpolation:sRGB;color-interpolation-filters:linearRGB;solid-color:#000000;solid-opacity:1;vector-effect:none;fill:#000000;fill-opacity:1;fill-rule:nonzero;stroke:none;stroke-width:18.95091629;stroke-linecap:butt;stroke-linejoin:miter;stroke-miterlimit:4;stroke-dasharray:none;stroke-dashoffset:0;stroke-opacity:1;color-rendering:auto;image-rendering:auto;shape-rendering:auto;text-rendering:auto;enable-background:accumulate"
     d="m 612.56836,455.35742 c -7.79889,-0.1559 -14.83183,2.33715 -20.14063,5.95117 -14.15677,9.63741 -19.10937,25.67774 -19.10937,25.67774 l -3.6582,10.37695 10.80664,2.07813 c 0,0 10.86396,2.09084 24.92382,2.71093 14.05987,0.62009 31.56087,0.10614 46.60743,-6.47461 l 12.02539,-5.25781 -8.77539,-9.75976 c -12.42046,-13.81157 -23.72332,-21.4176 -34.66016,-24.20704 -2.73421,-0.69735 -5.4199,-1.04373 -8.01953,-1.0957 z m -0.60742,18.83008 c 1.19261,0.0576 2.49457,0.25939 3.94336,0.62891 3.44203,0.87789 7.97809,3.2323 13.2832,7.32812 -7.57733,1.07739 -15.69685,1.39663 -22.96289,1.07617 -3.44269,-0.15183 -5.77325,-0.48727 -8.62695,-0.76562 1.61537,-2.08322 3.41034,-4.0619 5.49414,-5.48047 2.68919,-1.8307 5.29129,-2.96001 8.86914,-2.78711 z"
     id="path10074"
     inkscape:connector-curvature="0" />
</svg>
