<?xml version="1.0" encoding="UTF-8" standalone="no"?>
<!-- Created with Inkscape (http://www.inkscape.org/) -->

<svg
   xmlns:dc="http://purl.org/dc/elements/1.1/"
   xmlns:cc="http://creativecommons.org/ns#"
   xmlns:rdf="http://www.w3.org/1999/02/22-rdf-syntax-ns#"
   xmlns:svg="http://www.w3.org/2000/svg"
   xmlns="http://www.w3.org/2000/svg"
   xmlns:sodipodi="http://sodipodi.sourceforge.net/DTD/sodipodi-0.dtd"
   xmlns:inkscape="http://www.inkscape.org/namespaces/inkscape"
   version="1.1"
   id="svg4572"
   width="1000"
   height="1000"
   viewBox="0 0 1000 1000"
   sodipodi:docname="X.svg"
   inkscape:version="0.92.4 (5da689c313, 2019-01-14)">
  <metadata
     id="metadata4578">
    <rdf:RDF>
      <cc:Work
         rdf:about="">
        <dc:format>image/svg+xml</dc:format>
        <dc:type
           rdf:resource="http://purl.org/dc/dcmitype/StillImage" />
        <dc:title />
      </cc:Work>
    </rdf:RDF>
  </metadata>
  <defs
     id="defs4576">
    <clipPath
       clipPathUnits="userSpaceOnUse"
       id="clipPath4653">
      <rect
         style="opacity:1;fill:#d38d5f;fill-opacity:0;stroke:#ff0000;stroke-width:18.52108765;stroke-miterlimit:4;stroke-dasharray:none"
         id="rect4655"
         width="981.47888"
         height="981.47894"
         x="9.2605438"
         y="9.2605152"
         transform="rotate(-90)" />
    </clipPath>
  </defs>
  <sodipodi:namedview
     pagecolor="#ffffff"
     bordercolor="#666666"
     borderopacity="1"
     objecttolerance="10"
     gridtolerance="10"
     guidetolerance="10"
     inkscape:pageopacity="0"
     inkscape:pageshadow="2"
     inkscape:window-width="1366"
     inkscape:window-height="715"
     id="namedview4574"
     showgrid="false"
     inkscape:zoom="0.38628982"
     inkscape:cx="637.00332"
     inkscape:cy="333.37377"
     inkscape:window-x="-8"
     inkscape:window-y="-8"
     inkscape:window-maximized="1"
     inkscape:current-layer="svg4572"
     showguides="false" />
  <path
     style="color:#000000;font-style:normal;font-variant:normal;font-weight:normal;font-stretch:normal;font-size:medium;line-height:normal;font-family:sans-serif;font-variant-ligatures:normal;font-variant-position:normal;font-variant-caps:normal;font-variant-numeric:normal;font-variant-alternates:normal;font-feature-settings:normal;text-indent:0;text-align:start;text-decoration:none;text-decoration-line:none;text-decoration-style:solid;text-decoration-color:#000000;letter-spacing:normal;word-spacing:normal;text-transform:none;writing-mode:lr-tb;direction:ltr;text-orientation:mixed;dominant-baseline:auto;baseline-shift:baseline;text-anchor:start;white-space:normal;shape-padding:0;clip-rule:nonzero;display:inline;overflow:visible;visibility:visible;opacity:1;isolation:auto;mix-blend-mode:normal;color-interpolation:sRGB;color-interpolation-filters:linearRGB;solid-color:#000000;solid-opacity:1;vector-effect:none;fill:#000000;fill-opacity:1;fill-rule:nonzero;stroke:none;stroke-width:27.43092346;stroke-linecap:butt;stroke-linejoin:miter;stroke-miterlimit:4;stroke-dasharray:none;stroke-dashoffset:0;stroke-opacity:1;color-rendering:auto;image-rendering:auto;shape-rendering:auto;text-rendering:auto;enable-background:accumulate"
     d="m 188.41992,325.46289 -18.28906,20.44531 145.99219,130.59961 18.28906,-20.44336 z"
     id="path8320"
     inkscape:connector-curvature="0" />
  <path
     style="color:#000000;font-style:normal;font-variant:normal;font-weight:normal;font-stretch:normal;font-size:medium;line-height:normal;font-family:sans-serif;font-variant-ligatures:normal;font-variant-position:normal;font-variant-caps:normal;font-variant-numeric:normal;font-variant-alternates:normal;font-feature-settings:normal;text-indent:0;text-align:start;text-decoration:none;text-decoration-line:none;text-decoration-style:solid;text-decoration-color:#000000;letter-spacing:normal;word-spacing:normal;text-transform:none;writing-mode:lr-tb;direction:ltr;text-orientation:mixed;dominant-baseline:auto;baseline-shift:baseline;text-anchor:start;white-space:normal;shape-padding:0;clip-rule:nonzero;display:inline;overflow:visible;visibility:visible;opacity:1;isolation:auto;mix-blend-mode:normal;color-interpolation:sRGB;color-interpolation-filters:linearRGB;solid-color:#000000;solid-opacity:1;vector-effect:none;fill:#000000;fill-opacity:1;fill-rule:nonzero;stroke:none;stroke-width:13.71546173;stroke-linecap:butt;stroke-linejoin:miter;stroke-miterlimit:4;stroke-dasharray:none;stroke-dashoffset:0;stroke-opacity:1;color-rendering:auto;image-rendering:auto;shape-rendering:auto;text-rendering:auto;enable-background:accumulate"
     d="m 141.0957,53.78125 c -2.15755,0.09204 -4.35633,0.317648 -6.57031,0.714844 -8.85592,1.588782 -18.23128,6.467083 -23.63086,16.320312 -5.39958,9.85323 -6.80273,23.633862 -3.16992,42.808594 l 6.73633,-1.27539 6.77734,1.0625 c 2.43343,-15.51301 13.62753,-25.619323 25.04492,-32.175782 11.4174,-6.556459 22.16797,-8.947265 22.16797,-8.947266 l 2.9375,-0.644531 1.51563,-2.597656 c 1.19919,-2.055801 0.96142,-4.716466 0.45703,-5.996094 -0.50439,-1.279627 -1.02179,-1.801322 -1.38281,-2.189453 -0.72206,-0.776262 -1.07365,-0.957407 -1.37305,-1.154297 -0.59881,-0.393779 -0.93755,-0.547885 -1.32422,-0.732422 -0.77335,-0.369074 -1.59966,-0.701258 -2.62305,-1.074218 -2.04677,-0.745921 -4.79619,-1.595322 -8.07812,-2.34375 -4.92289,-1.122644 -11.01173,-2.051511 -17.48438,-1.775391 z m 0.55664,13.728516 c 0.4658,-0.01734 0.93581,0.02533 1.4043,0.02344 -1.21941,0.62997 -2.36156,1.095402 -3.60352,1.808594 -6.43326,3.694314 -13.21963,8.711792 -18.93164,15.205078 0.61551,-2.808882 1.38769,-5.290665 2.4004,-7.138672 3.23432,-5.902047 7.95588,-8.323218 14.02539,-9.412109 1.51737,-0.272223 3.09972,-0.426578 4.70507,-0.486328 z"
     id="path8318"
     inkscape:connector-curvature="0" />
  <path
     style="color:#000000;font-style:normal;font-variant:normal;font-weight:normal;font-stretch:normal;font-size:medium;line-height:normal;font-family:sans-serif;font-variant-ligatures:normal;font-variant-position:normal;font-variant-caps:normal;font-variant-numeric:normal;font-variant-alternates:normal;font-feature-settings:normal;text-indent:0;text-align:start;text-decoration:none;text-decoration-line:none;text-decoration-style:solid;text-decoration-color:#000000;letter-spacing:normal;word-spacing:normal;text-transform:none;writing-mode:lr-tb;direction:ltr;text-orientation:mixed;dominant-baseline:auto;baseline-shift:baseline;text-anchor:start;white-space:normal;shape-padding:0;clip-rule:nonzero;display:inline;overflow:visible;visibility:visible;opacity:1;isolation:auto;mix-blend-mode:normal;color-interpolation:sRGB;color-interpolation-filters:linearRGB;solid-color:#000000;solid-opacity:1;vector-effect:none;fill:#000000;fill-opacity:1;fill-rule:nonzero;stroke:none;stroke-width:13.71546173;stroke-linecap:butt;stroke-linejoin:miter;stroke-miterlimit:4;stroke-dasharray:none;stroke-dashoffset:0;stroke-opacity:1;color-rendering:auto;image-rendering:auto;shape-rendering:auto;text-rendering:auto;enable-background:accumulate"
     d="m 214.72266,153.95117 c -0.0122,2.55588 -1.42097,5.37592 -4.67969,8.55078 -3.25872,3.17487 -8.12698,6.29953 -13.16406,8.85352 -5.03709,2.55399 -10.23416,4.58274 -14.17579,5.94141 -1.97081,0.67933 -3.63326,1.19491 -4.7832,1.52539 -0.57497,0.16523 -1.02618,0.28458 -1.28125,0.34765 -0.12753,0.0315 -0.2131,0.049 -0.18359,0.043 0.0295,-0.006 -0.33693,-0.10351 1.15039,-0.10351 v 13.71484 c 1.55765,0 1.34229,-0.12119 1.59961,-0.17383 0.25731,-0.0526 0.47715,-0.10483 0.72461,-0.16601 0.49492,-0.12238 1.07729,-0.27873 1.77929,-0.48047 1.40401,-0.40349 3.26765,-0.98287 5.46485,-1.74024 4.3944,-1.51473 10.10205,-3.73283 15.90625,-6.67578 5.8042,-2.94295 11.71341,-6.56596 16.5332,-11.26172 4.81979,-4.69576 8.79069,-10.87003 8.82617,-18.30859 z"
     id="path8316"
     inkscape:connector-curvature="0" />
  <path
     style="color:#000000;font-style:normal;font-variant:normal;font-weight:normal;font-stretch:normal;font-size:medium;line-height:normal;font-family:sans-serif;font-variant-ligatures:normal;font-variant-position:normal;font-variant-caps:normal;font-variant-numeric:normal;font-variant-alternates:normal;font-feature-settings:normal;text-indent:0;text-align:start;text-decoration:none;text-decoration-line:none;text-decoration-style:solid;text-decoration-color:#000000;letter-spacing:normal;word-spacing:normal;text-transform:none;writing-mode:lr-tb;direction:ltr;text-orientation:mixed;dominant-baseline:auto;baseline-shift:baseline;text-anchor:start;white-space:normal;shape-padding:0;clip-rule:nonzero;display:inline;overflow:visible;visibility:visible;opacity:1;isolation:auto;mix-blend-mode:normal;color-interpolation:sRGB;color-interpolation-filters:linearRGB;solid-color:#000000;solid-opacity:1;vector-effect:none;fill:#000000;fill-opacity:1;fill-rule:nonzero;stroke:none;stroke-width:27.43092346;stroke-linecap:butt;stroke-linejoin:miter;stroke-miterlimit:4;stroke-dasharray:none;stroke-dashoffset:0;stroke-opacity:1;color-rendering:auto;image-rendering:auto;shape-rendering:auto;text-rendering:auto;enable-background:accumulate"
     d="m 196.59375,43.210938 -23.66992,13.863281 c 5.77357,9.857719 5.67581,18.089505 2.23633,26.953125 -3.43948,8.86362 -11.107,17.906866 -20.73243,24.632816 -9.62542,6.72594 -21.06983,11.00587 -30.47851,11.71679 -9.40868,0.71093 -15.82298,-1.47127 -20.26172,-6.67187 l -20.865234,17.80859 c 11.029306,12.92237 27.679954,17.38704 43.193354,16.21485 15.51341,-1.1722 30.84964,-7.30563 44.125,-16.58204 13.27537,-9.27641 24.62908,-21.8242 30.59376,-37.195308 5.96467,-15.371111 5.65359,-34.017701 -4.14063,-50.740234 z"
     id="path8314"
     inkscape:connector-curvature="0" />
  <path
     style="color:#000000;font-style:normal;font-variant:normal;font-weight:normal;font-stretch:normal;font-size:medium;line-height:normal;font-family:sans-serif;font-variant-ligatures:normal;font-variant-position:normal;font-variant-caps:normal;font-variant-numeric:normal;font-variant-alternates:normal;font-feature-settings:normal;text-indent:0;text-align:start;text-decoration:none;text-decoration-line:none;text-decoration-style:solid;text-decoration-color:#000000;letter-spacing:normal;word-spacing:normal;text-transform:none;writing-mode:lr-tb;direction:ltr;text-orientation:mixed;dominant-baseline:auto;baseline-shift:baseline;text-anchor:start;white-space:normal;shape-padding:0;clip-rule:nonzero;display:inline;overflow:visible;visibility:visible;opacity:1;isolation:auto;mix-blend-mode:normal;color-interpolation:sRGB;color-interpolation-filters:linearRGB;solid-color:#000000;solid-opacity:1;vector-effect:none;fill:#000000;fill-opacity:1;fill-rule:nonzero;stroke:none;stroke-width:27.43092346;stroke-linecap:butt;stroke-linejoin:miter;stroke-miterlimit:4;stroke-dasharray:none;stroke-dashoffset:0;stroke-opacity:1;color-rendering:auto;image-rendering:auto;shape-rendering:auto;text-rendering:auto;enable-background:accumulate"
     d="m 314.78125,243.05469 c 0,0 -18.00414,12.47978 -42.84766,26.10742 -24.84352,13.62764 -56.62843,28.06034 -81.16211,31.98437 l 4.33204,27.0879 c 30.83442,-4.93182 63.87968,-20.68062 90.02343,-35.02149 26.14375,-14.34087 45.28516,-27.61523 45.28516,-27.61523 z"
     id="path8312"
     inkscape:connector-curvature="0" />
  <path
     style="color:#000000;font-style:normal;font-variant:normal;font-weight:normal;font-stretch:normal;font-size:medium;line-height:normal;font-family:sans-serif;font-variant-ligatures:normal;font-variant-position:normal;font-variant-caps:normal;font-variant-numeric:normal;font-variant-alternates:normal;font-feature-settings:normal;text-indent:0;text-align:start;text-decoration:none;text-decoration-line:none;text-decoration-style:solid;text-decoration-color:#000000;letter-spacing:normal;word-spacing:normal;text-transform:none;writing-mode:lr-tb;direction:ltr;text-orientation:mixed;dominant-baseline:auto;baseline-shift:baseline;text-anchor:start;white-space:normal;shape-padding:0;clip-rule:nonzero;display:inline;overflow:visible;visibility:visible;opacity:1;isolation:auto;mix-blend-mode:normal;color-interpolation:sRGB;color-interpolation-filters:linearRGB;solid-color:#000000;solid-opacity:1;vector-effect:none;fill:#000000;fill-opacity:1;fill-rule:nonzero;stroke:none;stroke-width:13.71546173;stroke-linecap:butt;stroke-linejoin:miter;stroke-miterlimit:4;stroke-dasharray:none;stroke-dashoffset:0;stroke-opacity:1;color-rendering:auto;image-rendering:auto;shape-rendering:auto;text-rendering:auto;enable-background:accumulate"
     d="m 151.67383,523.96289 -11.15625,1.11523 c -22.37218,2.23479 -38.88411,13.43807 -48.533205,27.91797 -9.649092,14.47991 -12.744577,32.01355 -9.541016,47.64844 3.203562,15.63489 13.22967,29.73102 29.458981,35.24219 16.22932,5.51116 37.42094,2.31848 62.63086,-12.73438 l 7.81836,-4.66796 -6.64453,-6.22461 c -12.43391,-11.64755 -22.67226,-23.53628 -28.06836,-36.04883 -5.3961,-12.51256 -6.41852,-25.55543 -0.0527,-41.8086 z m -20.27149,16.76563 c -3.34544,14.85301 -1.64817,28.65032 3.64063,40.91406 5.44951,12.6364 14.37435,23.68875 24.62695,34.04687 -19.08791,9.71229 -33.44884,10.57375 -43.35742,7.20899 -11.22333,-3.81123 -17.996162,-13.12153 -20.431641,-25.00782 -2.435478,-11.88628 -0.01182,-25.99007 7.517581,-37.28906 6.00602,-9.01294 15.12987,-16.31509 28.0039,-19.87304 z"
     id="path8310"
     inkscape:connector-curvature="0" />
  <path
     style="color:#000000;font-style:normal;font-variant:normal;font-weight:normal;font-stretch:normal;font-size:medium;line-height:normal;font-family:sans-serif;font-variant-ligatures:normal;font-variant-position:normal;font-variant-caps:normal;font-variant-numeric:normal;font-variant-alternates:normal;font-feature-settings:normal;text-indent:0;text-align:start;text-decoration:none;text-decoration-line:none;text-decoration-style:solid;text-decoration-color:#000000;letter-spacing:normal;word-spacing:normal;text-transform:none;writing-mode:lr-tb;direction:ltr;text-orientation:mixed;dominant-baseline:auto;baseline-shift:baseline;text-anchor:start;white-space:normal;shape-padding:0;clip-rule:nonzero;display:inline;overflow:visible;visibility:visible;opacity:1;isolation:auto;mix-blend-mode:normal;color-interpolation:sRGB;color-interpolation-filters:linearRGB;solid-color:#000000;solid-opacity:1;vector-effect:none;fill:#000000;fill-opacity:1;fill-rule:nonzero;stroke:none;stroke-width:13.71546173;stroke-linecap:butt;stroke-linejoin:miter;stroke-miterlimit:4;stroke-dasharray:none;stroke-dashoffset:0;stroke-opacity:1;color-rendering:auto;image-rendering:auto;shape-rendering:auto;text-rendering:auto;enable-background:accumulate"
     d="m 305.96875,624.71094 -1.0957,5.9082 c -4.56662,24.65161 -10.68058,35.54268 -16.04102,49.05859 l -1.76367,4.44532 3.5625,3.1914 c 17.01634,15.24134 32.65162,20.82131 45.75391,18.63086 13.10228,-2.19044 22.16574,-12.36658 25.35351,-24.07812 3.18777,-11.71155 1.1329,-25.36682 -7.08594,-36.50391 -8.21883,-11.13709 -22.66005,-19.31254 -42.68359,-20.34375 z m 10.98437,14.54883 c 13.36342,1.84416 21.68486,7.50087 26.66407,14.24804 5.65248,7.6595 6.95779,17.15413 4.88867,24.75586 -2.06912,7.60174 -6.88066,12.90041 -14.38086,14.1543 -6.87759,1.1498 -17.31888,-1.38752 -30.67969,-12.26172 4.28585,-10.21495 9.35299,-21.75253 13.50781,-40.89648 z"
     id="path8308"
     inkscape:connector-curvature="0" />
  <path
     style="color:#000000;font-style:normal;font-variant:normal;font-weight:normal;font-stretch:normal;font-size:medium;line-height:normal;font-family:sans-serif;font-variant-ligatures:normal;font-variant-position:normal;font-variant-caps:normal;font-variant-numeric:normal;font-variant-alternates:normal;font-feature-settings:normal;text-indent:0;text-align:start;text-decoration:none;text-decoration-line:none;text-decoration-style:solid;text-decoration-color:#000000;letter-spacing:normal;word-spacing:normal;text-transform:none;writing-mode:lr-tb;direction:ltr;text-orientation:mixed;dominant-baseline:auto;baseline-shift:baseline;text-anchor:start;white-space:normal;shape-padding:0;clip-rule:nonzero;display:inline;overflow:visible;visibility:visible;opacity:1;isolation:auto;mix-blend-mode:normal;color-interpolation:sRGB;color-interpolation-filters:linearRGB;solid-color:#000000;solid-opacity:1;vector-effect:none;fill:#000000;fill-opacity:1;fill-rule:nonzero;stroke:none;stroke-width:13.71546173;stroke-linecap:butt;stroke-linejoin:miter;stroke-miterlimit:4;stroke-dasharray:none;stroke-dashoffset:0;stroke-opacity:1;color-rendering:auto;image-rendering:auto;shape-rendering:auto;text-rendering:auto;enable-background:accumulate"
     d="m 303.95508,716.00391 0.73828,10.04687 c 0.44476,6.06001 -1.99615,16.03001 -5.58398,25.82031 -3.58784,9.7903 -8.09376,19.4916 -11.0625,26.70508 l -2.76172,6.71289 6.85937,2.37696 c 15.69997,5.43951 28.96373,5.82537 39.33399,2.17187 10.37025,-3.6535 17.55114,-11.68154 19.85351,-21.06641 4.60474,-18.76972 -9.07496,-40.82463 -37.75781,-49.76953 z m 13.8457,19.32421 c 17.23719,8.18641 22.35774,21.42308 20.21094,30.17383 -1.22982,5.01297 -4.53236,9.08751 -11.0918,11.39844 -5.33368,1.87909 -13.1399,2.21117 -23.14453,-0.20703 2.57059,-5.93584 5.48559,-12.6614 8.21289,-20.10352 2.57727,-7.03272 4.78238,-14.2283 5.8125,-21.26172 z"
     id="path8306"
     inkscape:connector-curvature="0" />
  <path
     style="color:#000000;font-style:normal;font-variant:normal;font-weight:normal;font-stretch:normal;font-size:medium;line-height:normal;font-family:sans-serif;font-variant-ligatures:normal;font-variant-position:normal;font-variant-caps:normal;font-variant-numeric:normal;font-variant-alternates:normal;font-feature-settings:normal;text-indent:0;text-align:start;text-decoration:none;text-decoration-line:none;text-decoration-style:solid;text-decoration-color:#000000;letter-spacing:normal;word-spacing:normal;text-transform:none;writing-mode:lr-tb;direction:ltr;text-orientation:mixed;dominant-baseline:auto;baseline-shift:baseline;text-anchor:start;white-space:normal;shape-padding:0;clip-rule:nonzero;display:inline;overflow:visible;visibility:visible;opacity:1;isolation:auto;mix-blend-mode:normal;color-interpolation:sRGB;color-interpolation-filters:linearRGB;solid-color:#000000;solid-opacity:1;vector-effect:none;fill:#000000;fill-opacity:1;fill-rule:nonzero;stroke:none;stroke-width:27.43092346;stroke-linecap:butt;stroke-linejoin:miter;stroke-miterlimit:4;stroke-dasharray:none;stroke-dashoffset:0;stroke-opacity:1;color-rendering:auto;image-rendering:auto;shape-rendering:auto;text-rendering:auto;enable-background:accumulate"
     d="m 122.66016,468.58203 -14.47071,23.30469 c 14.70673,9.13237 25.51473,13.38491 33.63867,16.26367 8.12395,2.87877 12.6097,4.19233 18.69336,8.25195 l 15.22657,-22.8164 c -9.22333,-6.15472 -17.26707,-8.63663 -24.75782,-11.29102 -7.49074,-2.65439 -15.38315,-5.67329 -28.33007,-13.71289 z"
     id="path8304"
     inkscape:connector-curvature="0" />
  <path
     style="color:#000000;font-style:normal;font-variant:normal;font-weight:normal;font-stretch:normal;font-size:medium;line-height:normal;font-family:sans-serif;font-variant-ligatures:normal;font-variant-position:normal;font-variant-caps:normal;font-variant-numeric:normal;font-variant-alternates:normal;font-feature-settings:normal;text-indent:0;text-align:start;text-decoration:none;text-decoration-line:none;text-decoration-style:solid;text-decoration-color:#000000;letter-spacing:normal;word-spacing:normal;text-transform:none;writing-mode:lr-tb;direction:ltr;text-orientation:mixed;dominant-baseline:auto;baseline-shift:baseline;text-anchor:start;white-space:normal;shape-padding:0;clip-rule:nonzero;display:inline;overflow:visible;visibility:visible;opacity:1;isolation:auto;mix-blend-mode:normal;color-interpolation:sRGB;color-interpolation-filters:linearRGB;solid-color:#000000;solid-opacity:1;vector-effect:none;fill:#000000;fill-opacity:1;fill-rule:nonzero;stroke:none;stroke-width:27.43092346;stroke-linecap:butt;stroke-linejoin:miter;stroke-miterlimit:4;stroke-dasharray:none;stroke-dashoffset:0;stroke-opacity:1;color-rendering:auto;image-rendering:auto;shape-rendering:auto;text-rendering:auto;enable-background:accumulate"
     d="m 346.00195,594.03906 c -0.0162,0.11234 0.0519,0.56642 0.21875,1.4961 l -27,4.8457 c 1.17906,6.569 2.93141,8.08725 4.99414,11.73047 2.06274,3.64321 4.52601,7.60383 6.93946,11.36328 4.82689,7.5189 9.47461,14.22656 9.47461,14.22656 l 22.55468,-15.61133 c 0,0 -4.43546,-6.41051 -8.94531,-13.43554 -2.25492,-3.51252 -4.52195,-7.17898 -6.15234,-10.0586 -1.2228,-2.15971 -2.03549,-4.89365 -2.08399,-4.55664 z"
     id="path8302"
     inkscape:connector-curvature="0" />
  <path
     style="color:#000000;font-style:normal;font-variant:normal;font-weight:normal;font-stretch:normal;font-size:medium;line-height:normal;font-family:sans-serif;font-variant-ligatures:normal;font-variant-position:normal;font-variant-caps:normal;font-variant-numeric:normal;font-variant-alternates:normal;font-feature-settings:normal;text-indent:0;text-align:start;text-decoration:none;text-decoration-line:none;text-decoration-style:solid;text-decoration-color:#000000;letter-spacing:normal;word-spacing:normal;text-transform:none;writing-mode:lr-tb;direction:ltr;text-orientation:mixed;dominant-baseline:auto;baseline-shift:baseline;text-anchor:start;white-space:normal;shape-padding:0;clip-rule:nonzero;display:inline;overflow:visible;visibility:visible;opacity:1;isolation:auto;mix-blend-mode:normal;color-interpolation:sRGB;color-interpolation-filters:linearRGB;solid-color:#000000;solid-opacity:1;vector-effect:none;fill:#000000;fill-opacity:1;fill-rule:nonzero;stroke:none;stroke-width:27.43092346;stroke-linecap:butt;stroke-linejoin:miter;stroke-miterlimit:4;stroke-dasharray:none;stroke-dashoffset:0;stroke-opacity:1;color-rendering:auto;image-rendering:auto;shape-rendering:auto;text-rendering:auto;enable-background:accumulate"
     d="m 300.6875,589.79297 -13.32227,23.97851 c 12.47444,6.9303 50.07343,24.49265 55.43946,26.9961 4.75727,6.61192 10.13089,12.05103 14.34961,15.9707 1.74475,1.62107 2.86172,2.56561 4.0332,3.57813 9.88143,20.58831 3.90363,30.46248 -4.63477,39.50781 -8.80252,9.32514 -21.04296,14.21094 -21.04296,14.21094 l 9.62304,25.6875 c 0,0 17.32358,-6.19096 31.36719,-21.06836 13.44703,-14.2454 22.8342,-39.85056 9.88867,-68.84375 -0.007,-0.047 0.007,-0.17355 -0.002,-0.21485 -0.30301,-1.4303 -0.68444,-2.30871 -0.99805,-2.97851 -2.50889,-5.35846 -2.51687,-3.68875 -2.8457,-4.01367 -1.31531,-1.29971 -1.26538,-1.14931 -1.83594,-1.63672 -1.14111,-0.97482 -2.84794,-2.43541 -4.88086,-4.32422 -4.06583,-3.77763 -9.30832,-9.31443 -12.33789,-14.0918 l -2.14062,-3.375 -3.61719,-1.69726 c 0,0 -48.09239,-22.71297 -57.04297,-27.68555 z m 61.60352,71.50195 c 0.14014,0.11995 0.47736,0.42654 0.59765,0.5293 0.57746,0.49331 1.39698,1.30088 0.375,0.29101 -0.15415,-0.15232 -0.41032,-0.12148 -0.97265,-0.82031 z"
     id="path8300"
     inkscape:connector-curvature="0" />
  <path
     style="color:#000000;font-style:normal;font-variant:normal;font-weight:normal;font-stretch:normal;font-size:medium;line-height:normal;font-family:sans-serif;font-variant-ligatures:normal;font-variant-position:normal;font-variant-caps:normal;font-variant-numeric:normal;font-variant-alternates:normal;font-feature-settings:normal;text-indent:0;text-align:start;text-decoration:none;text-decoration-line:none;text-decoration-style:solid;text-decoration-color:#000000;letter-spacing:normal;word-spacing:normal;text-transform:none;writing-mode:lr-tb;direction:ltr;text-orientation:mixed;dominant-baseline:auto;baseline-shift:baseline;text-anchor:start;white-space:normal;shape-padding:0;clip-rule:nonzero;display:inline;overflow:visible;visibility:visible;opacity:1;isolation:auto;mix-blend-mode:normal;color-interpolation:sRGB;color-interpolation-filters:linearRGB;solid-color:#000000;solid-opacity:1;vector-effect:none;fill:#000000;fill-opacity:1;fill-rule:nonzero;stroke:none;stroke-width:27.43092346;stroke-linecap:butt;stroke-linejoin:miter;stroke-miterlimit:4;stroke-dasharray:none;stroke-dashoffset:0;stroke-opacity:1;color-rendering:auto;image-rendering:auto;shape-rendering:auto;text-rendering:auto;enable-background:accumulate"
     d="m 270.97266,581.5625 -5.65821,4.79492 c -45.77227,38.79013 -95,46.88281 -95,46.88281 l 4.41016,27.07422 c 0,0 52.52984,-8.58603 102.7168,-48.52734 4.20484,0.95733 9.89667,2.08344 16.25586,2.83984 11.36078,1.35133 25.18024,2.37628 38.17773,-3.19336 5.19757,1.43466 13.87107,3.72976 25.47266,5.94141 8.13389,1.55059 16.70892,2.84607 24.7832,3.09766 8.07428,0.25158 15.9492,1.15397 24.56055,-6.18164 L 388.90234,593.4082 c 3.03005,-2.58115 -0.31032,-0.17879 -5.91796,-0.35351 -5.60765,-0.17473 -13.18199,-1.2319 -20.5,-2.62696 -14.63603,-2.79011 -28.20704,-6.76367 -28.20704,-6.76367 l -5.76953,-1.69726 -5.15625,3.09375 c -4.07513,2.44504 -15.95902,3.57171 -26.41406,2.32812 -10.45504,-1.24359 -18.85547,-3.7168 -18.85547,-3.71679 z"
     id="path8298"
     inkscape:connector-curvature="0" />
  <path
     style="color:#000000;font-style:normal;font-variant:normal;font-weight:normal;font-stretch:normal;font-size:medium;line-height:normal;font-family:sans-serif;font-variant-ligatures:normal;font-variant-position:normal;font-variant-caps:normal;font-variant-numeric:normal;font-variant-alternates:normal;font-feature-settings:normal;text-indent:0;text-align:start;text-decoration:none;text-decoration-line:none;text-decoration-style:solid;text-decoration-color:#000000;letter-spacing:normal;word-spacing:normal;text-transform:none;writing-mode:lr-tb;direction:ltr;text-orientation:mixed;dominant-baseline:auto;baseline-shift:baseline;text-anchor:start;white-space:normal;shape-padding:0;clip-rule:nonzero;display:inline;overflow:visible;visibility:visible;opacity:1;isolation:auto;mix-blend-mode:normal;color-interpolation:sRGB;color-interpolation-filters:linearRGB;solid-color:#000000;solid-opacity:1;vector-effect:none;fill:#000000;fill-opacity:1;fill-rule:nonzero;stroke:none;stroke-width:27.43092346;stroke-linecap:butt;stroke-linejoin:miter;stroke-miterlimit:4;stroke-dasharray:none;stroke-dashoffset:0;stroke-opacity:1;color-rendering:auto;image-rendering:auto;shape-rendering:auto;text-rendering:auto;enable-background:accumulate"
     d="m 411.51953,442.13086 c -2.00307,0.91667 -14.69762,3.73032 -29.4668,5.21289 -14.76917,1.48257 -32.61112,2.47361 -49.72851,3.11328 -33.51017,1.25227 -63.41061,1.17929 -64.69531,1.17578 -26.61804,-5.67724 -52.79817,5.97926 -72.89258,17.64844 -17.86785,10.37617 -29.53774,20.26237 -32.95313,23.21484 -60.95273,15.62026 -89.732191,43.94279 -101.107419,70.04102 -11.570684,26.54667 -4.9375,50.16992 -4.9375,50.16992 l 26.351563,-7.62109 c 0,0 -4.123092,-13.56496 3.732422,-31.58789 7.855513,-18.02294 27.966364,-41.09447 85.570314,-55.18164 l 3.32422,-0.8125 2.55273,-2.2793 c 0,0 13.206,-11.74872 31.24219,-22.22266 18.03619,-10.47393 40.14503,-18.10512 54.83984,-14.35937 l 1.64453,0.41797 1.69922,0.006 c 0,0 31.74315,0.10735 66.6543,-1.19727 17.45558,-0.65231 35.70925,-1.65299 51.44336,-3.23242 15.73411,-1.57943 27.9495,-2.89782 38.14258,-7.5625 z"
     id="path8296"
     inkscape:connector-curvature="0" />
  <path
     style="color:#000000;font-style:normal;font-variant:normal;font-weight:normal;font-stretch:normal;font-size:medium;line-height:normal;font-family:sans-serif;font-variant-ligatures:normal;font-variant-position:normal;font-variant-caps:normal;font-variant-numeric:normal;font-variant-alternates:normal;font-feature-settings:normal;text-indent:0;text-align:start;text-decoration:none;text-decoration-line:none;text-decoration-style:solid;text-decoration-color:#000000;letter-spacing:normal;word-spacing:normal;text-transform:none;writing-mode:lr-tb;direction:ltr;text-orientation:mixed;dominant-baseline:auto;baseline-shift:baseline;text-anchor:start;white-space:normal;shape-padding:0;clip-rule:nonzero;display:inline;overflow:visible;visibility:visible;opacity:1;isolation:auto;mix-blend-mode:normal;color-interpolation:sRGB;color-interpolation-filters:linearRGB;solid-color:#000000;solid-opacity:1;vector-effect:none;fill:#000000;fill-opacity:1;fill-rule:nonzero;stroke:none;stroke-width:27.43092346;stroke-linecap:butt;stroke-linejoin:miter;stroke-miterlimit:4;stroke-dasharray:none;stroke-dashoffset:0;stroke-opacity:1;color-rendering:auto;image-rendering:auto;shape-rendering:auto;text-rendering:auto;enable-background:accumulate"
     d="m 179.96875,771.78711 c 0.15614,-0.62454 -4.57227,2.65039 -4.57227,2.65039 l 7.10743,26.49414 c 0,0 19.24436,-3.15605 24.07812,-22.49023 z"
     id="path8294"
     inkscape:connector-curvature="0" />
  <path
     style="color:#000000;font-style:normal;font-variant:normal;font-weight:normal;font-stretch:normal;font-size:medium;line-height:normal;font-family:sans-serif;font-variant-ligatures:normal;font-variant-position:normal;font-variant-caps:normal;font-variant-numeric:normal;font-variant-alternates:normal;font-feature-settings:normal;text-indent:0;text-align:start;text-decoration:none;text-decoration-line:none;text-decoration-style:solid;text-decoration-color:#000000;letter-spacing:normal;word-spacing:normal;text-transform:none;writing-mode:lr-tb;direction:ltr;text-orientation:mixed;dominant-baseline:auto;baseline-shift:baseline;text-anchor:start;white-space:normal;shape-padding:0;clip-rule:nonzero;display:inline;overflow:visible;visibility:visible;opacity:1;isolation:auto;mix-blend-mode:normal;color-interpolation:sRGB;color-interpolation-filters:linearRGB;solid-color:#000000;solid-opacity:1;vector-effect:none;fill:#000000;fill-opacity:1;fill-rule:nonzero;stroke:none;stroke-width:27.43092346;stroke-linecap:butt;stroke-linejoin:miter;stroke-miterlimit:4;stroke-dasharray:none;stroke-dashoffset:0;stroke-opacity:1;color-rendering:auto;image-rendering:auto;shape-rendering:auto;text-rendering:auto;enable-background:accumulate"
     d="m 173.37109,629.65039 -8.53125,5.76367 c -5.95974,4.02688 -20.876,6.28568 -33.90625,5.85938 -13.03024,-0.4263 -23.58789,-2.50586 -23.58789,-2.50586 l -5.34179,26.90625 c 0,0 12.54976,2.50907 28.0332,3.01562 12.56672,0.41114 27.42856,0.0845 40.9707,-5.67773 5.4065,4.15715 12.93652,9.71721 23.0918,16.26758 16.87072,10.88197 38.09778,22.81373 59.81641,27.18164 2.84767,1.76379 15.84007,9.75725 32.58007,18.19531 9.33519,4.70555 19.33265,9.28437 28.8711,12.48437 7.23996,2.4289 13.93839,4.75079 21.51758,4.24415 1.91848,1.70409 4.19754,4.14683 5.73046,7.33398 2.8708,5.96876 5.05873,13.83551 -9.35351,31.10352 -8.52143,5.41669 -7.27963,8.67577 -20.52539,9.91015 -14.85777,1.3846 -47.32613,-2.74976 -112.19141,-26.0625 l -0.27148,-0.0977 -0.27539,-0.0879 c 0,0 -3.91486,-1.2341 -8.45117,-3.31836 -4.53632,-2.08427 -9.23595,-5.87487 -9.03516,-5.59375 l -22.32227,15.94335 c 6.04751,8.46665 13.62407,11.69065 19.9043,14.57618 6.28023,2.88553 11.72266,4.57617 11.72266,4.57617 l -0.54883,-0.18359 c 66.52363,23.90875 101.37151,29.67057 124.01367,27.56054 22.64216,-2.11003 34.42866,-15.23068 33.74219,-14.87109 l 2.32422,-1.2168 1.71093,-1.99023 c 20.30099,-23.60191 21.49262,-47.13522 14.27735,-62.13672 -7.21527,-15.0015 -20.33789,-21.93164 -20.33789,-21.93164 l -5.14453,-2.86719 -5.62305,1.75586 c 1.56145,-0.48795 -4.68496,-0.15173 -12.13867,-2.65234 -7.45372,-2.50061 -16.60443,-6.61766 -25.24805,-10.97461 -17.28724,-8.71391 -32.51367,-18.23243 -32.51367,-18.23243 l -2.30664,-1.44531 -2.6836,-0.45312 c -15.29702,-2.58869 -36.215,-13.37977 -52.37109,-23.80078 -16.15609,-10.42102 -27.68164,-19.99805 -27.68164,-19.99805 z"
     id="path8292"
     inkscape:connector-curvature="0" />
  <path
     style="color:#000000;font-style:normal;font-variant:normal;font-weight:normal;font-stretch:normal;font-size:medium;line-height:normal;font-family:sans-serif;font-variant-ligatures:normal;font-variant-position:normal;font-variant-caps:normal;font-variant-numeric:normal;font-variant-alternates:normal;font-feature-settings:normal;text-indent:0;text-align:start;text-decoration:none;text-decoration-line:none;text-decoration-style:solid;text-decoration-color:#000000;letter-spacing:normal;word-spacing:normal;text-transform:none;writing-mode:lr-tb;direction:ltr;text-orientation:mixed;dominant-baseline:auto;baseline-shift:baseline;text-anchor:start;white-space:normal;shape-padding:0;clip-rule:nonzero;display:inline;overflow:visible;visibility:visible;opacity:1;isolation:auto;mix-blend-mode:normal;color-interpolation:sRGB;color-interpolation-filters:linearRGB;solid-color:#000000;solid-opacity:1;vector-effect:none;fill:#000000;fill-opacity:1;fill-rule:nonzero;stroke:none;stroke-width:13.71546173;stroke-linecap:butt;stroke-linejoin:miter;stroke-miterlimit:4;stroke-dasharray:none;stroke-dashoffset:0;stroke-opacity:1;color-rendering:auto;image-rendering:auto;shape-rendering:auto;text-rendering:auto;enable-background:accumulate"
     d="m 381.50586,729.59766 -12.20703,6.25586 c 21.68351,42.32019 46.77906,66.69808 72.58789,78.73828 25.80883,12.0402 51.90667,11.48417 74.62695,5.52539 45.44057,-11.91757 78.85547,-45.08008 78.85547,-45.08008 l -9.61133,-9.78516 c 0,0 -31.7772,30.86096 -72.72265,41.59961 -20.47273,5.36933 -42.86778,5.79866 -65.34961,-4.68945 -22.48184,-10.48811 -45.47412,-32.15293 -66.17969,-72.56445 z"
     id="path8290"
     inkscape:connector-curvature="0" />
  <path
     style="color:#000000;font-style:normal;font-variant:normal;font-weight:normal;font-stretch:normal;font-size:medium;line-height:normal;font-family:sans-serif;font-variant-ligatures:normal;font-variant-position:normal;font-variant-caps:normal;font-variant-numeric:normal;font-variant-alternates:normal;font-feature-settings:normal;text-indent:0;text-align:start;text-decoration:none;text-decoration-line:none;text-decoration-style:solid;text-decoration-color:#000000;letter-spacing:normal;word-spacing:normal;text-transform:none;writing-mode:lr-tb;direction:ltr;text-orientation:mixed;dominant-baseline:auto;baseline-shift:baseline;text-anchor:start;white-space:normal;shape-padding:0;clip-rule:nonzero;display:inline;overflow:visible;visibility:visible;opacity:1;isolation:auto;mix-blend-mode:normal;color-interpolation:sRGB;color-interpolation-filters:linearRGB;solid-color:#000000;solid-opacity:1;vector-effect:none;fill:#000000;fill-opacity:1;fill-rule:nonzero;stroke:none;stroke-width:13.71546173;stroke-linecap:butt;stroke-linejoin:miter;stroke-miterlimit:4;stroke-dasharray:none;stroke-dashoffset:0;stroke-opacity:1;color-rendering:auto;image-rendering:auto;shape-rendering:auto;text-rendering:auto;enable-background:accumulate"
     d="m 524.66406,896.65039 c -2.05366,37.99274 -49.89648,62.00391 -49.89648,62.00391 l 5.90625,12.37695 c 0,0 55.06179,-25.10116 57.68555,-73.64063 z"
     id="path8288"
     inkscape:connector-curvature="0" />
  <path
     style="color:#000000;font-style:normal;font-variant:normal;font-weight:normal;font-stretch:normal;font-size:medium;line-height:normal;font-family:sans-serif;font-variant-ligatures:normal;font-variant-position:normal;font-variant-caps:normal;font-variant-numeric:normal;font-variant-alternates:normal;font-feature-settings:normal;text-indent:0;text-align:start;text-decoration:none;text-decoration-line:none;text-decoration-style:solid;text-decoration-color:#000000;letter-spacing:normal;word-spacing:normal;text-transform:none;writing-mode:lr-tb;direction:ltr;text-orientation:mixed;dominant-baseline:auto;baseline-shift:baseline;text-anchor:start;white-space:normal;shape-padding:0;clip-rule:nonzero;display:inline;overflow:visible;visibility:visible;opacity:1;isolation:auto;mix-blend-mode:normal;color-interpolation:sRGB;color-interpolation-filters:linearRGB;solid-color:#000000;solid-opacity:1;vector-effect:none;fill:#000000;fill-opacity:1;fill-rule:nonzero;stroke:none;stroke-width:27.43092346;stroke-linecap:butt;stroke-linejoin:miter;stroke-miterlimit:4;stroke-dasharray:none;stroke-dashoffset:0;stroke-opacity:1;color-rendering:auto;image-rendering:auto;shape-rendering:auto;text-rendering:auto;enable-background:accumulate"
     d="M 141.0625,2.0683594 C 126.04791,1.5174664 110.67563,5.8521889 96.037109,13.492188 67.3379,28.470621 55.477438,58.607577 59.833984,87.884766 c 4.266252,28.670384 22.021773,57.543944 49.884766,79.914064 5.25422,6.85217 30.19337,43.06556 47.69922,79.45117 8.95022,18.6029 16.03609,37.54473 18.33008,52.06445 1.14684,7.25893 1.05135,13.31263 0.0898,17.42188 -21.52952,-13.05102 -43.95741,-16.67757 -63.77344,-12.11524 -23.513735,5.41368 -42.721787,21.50823 -54.080075,42.46289 -17.462176,32.2156 -15.603719,76.7272 14.761719,113.79883 -3.634685,0.83931 -7.224234,1.84988 -10.677735,3.1875 -19.210814,7.44081 -35.954607,21.69021 -46.851562,39.63086 -10.896955,17.94065 -15.85158781,40.32514 -8.7968751,62.16992 6.6168741,20.48902 23.6343821,39.04453 51.3710941,52.80469 5.454887,14.28444 15.53808,25.60035 26.728515,35.11524 -15.420774,19.36455 -19.031202,40.41602 -17.203125,56.55273 2.208495,19.49471 11.25,33.34375 11.25,33.34375 l 1.384766,2.13867 2.0625,1.5 c 23.627148,17.18346 37.673828,37.58008 37.673828,37.58008 l -0.83984,-1.40039 c 16.5633,31.74646 55.00469,64.04298 89.74414,90.76562 34.73944,26.72265 65.88476,46.5879 65.88476,46.5879 l 1.95899,1.25195 2.26367,0.53515 c 127.48375,30.13253 250.89258,76.66016 250.89258,76.66016 l 9.68554,-25.66406 c 0,0 -122.91838,-46.38162 -251.7832,-77.06446 -2.54497,-1.63307 -30.02322,-19.31459 -62.17773,-44.04882 -33.66774,-25.89825 -70.6474,-59.66914 -82.14844,-81.71289 l -0.37891,-0.72461 -0.46289,-0.67578 c 0,0 -15.37692,-22.42002 -41.50586,-42.18946 -1.11982,-1.90956 -4.987339,-8.84227 -6.248044,-19.9707 -1.44963,-12.7961 0.396652,-28.09599 19.203124,-44.77344 l 12.70899,-11.26953 -13.69336,-10.04883 C 97.493542,629.93694 85.37178,617.40988 82.167969,605.36914 l -1.677735,-6.30859 -5.957031,-2.67578 C 48.310989,584.60809 36.760771,570.56223 32.523438,557.44141 c -4.237334,-13.12082 -1.513822,-26.90101 6.138671,-39.5 7.652494,-12.599 20.330845,-23.26411 33.314453,-28.29297 12.983609,-5.02886 25.29518,-4.84712 35.980468,2.08984 l 0.002,-0.004 c 0.039,0.0248 0.0723,0.0514 0.11133,0.0762 l 14.82227,-23.08008 c -0.0381,-0.0248 -0.079,-0.0398 -0.11719,-0.0645 l 0.004,-0.008 C 69.134061,434.57467 66.095726,389.68507 82.101562,360.15625 c 8.002919,-14.76441 21.040418,-25.33349 36.117188,-28.80469 15.07677,-3.47119 32.80439,-0.52493 52.54687,15.0918 l 8.22071,6.50195 8.43359,-6.22461 c 8.01947,-5.92031 13.0182,-14.72132 15.12696,-23.73047 2.10875,-9.00914 1.81278,-18.3621 0.29687,-27.95703 -3.03183,-19.18985 -11.11704,-39.74315 -20.70703,-59.67578 -19.17998,-39.86526 -43.7589,-75.61455 -51.50195,-85.41601 l -1.02344,-1.29493 -1.29883,-1.01367 C 104.24644,128.84265 90.026956,104.41277 86.966797,83.847656 c -3.060159,-20.565112 2.81418,-36.14818 21.761723,-46.037109 18.82151,-9.823146 32.81207,-11.316869 46.63086,-4.519531 13.81878,6.797337 29.33034,24.346395 44.25,58.220703 l 0.71874,1.630859 1.11133,1.394531 c 26.02829,32.629651 56.17488,73.511511 101.12305,144.240231 0.64019,1.12351 78.12812,137.04682 148.00781,225.87696 l 0.8086,1.02734 0.98828,0.85742 c 0,0 95.22819,82.91909 153.25976,181.91406 l 0.34961,0.59766 0.41016,0.56055 c 0,0 52.99801,72.50099 153.96094,117.84375 l 11.23828,-25.02344 C 677.76521,700.29646 629.23452,634.35387 628.72266,633.65625 568.59694,531.56906 475.07823,449.98017 471.54688,446.91602 403.86674,360.67182 326.16992,224.80469 326.16992,224.80469 l -0.16211,-0.28125 -0.17383,-0.27539 C 280.96653,153.63387 250.28492,111.89846 223.92383,78.771484 207.83882,42.809615 189.81533,19.670781 167.4668,8.6777344 158.95073,4.4887549 150.07125,2.3988951 141.0625,2.0683594 Z"
     id="path8283"
     inkscape:connector-curvature="0" />
  <path
     style="color:#000000;font-style:normal;font-variant:normal;font-weight:normal;font-stretch:normal;font-size:medium;line-height:normal;font-family:sans-serif;font-variant-ligatures:normal;font-variant-position:normal;font-variant-caps:normal;font-variant-numeric:normal;font-variant-alternates:normal;font-feature-settings:normal;text-indent:0;text-align:start;text-decoration:none;text-decoration-line:none;text-decoration-style:solid;text-decoration-color:#000000;letter-spacing:normal;word-spacing:normal;text-transform:none;writing-mode:lr-tb;direction:ltr;text-orientation:mixed;dominant-baseline:auto;baseline-shift:baseline;text-anchor:start;white-space:normal;shape-padding:0;clip-rule:nonzero;display:inline;overflow:visible;visibility:visible;opacity:1;isolation:auto;mix-blend-mode:normal;color-interpolation:sRGB;color-interpolation-filters:linearRGB;solid-color:#000000;solid-opacity:1;vector-effect:none;fill:#000000;fill-opacity:1;fill-rule:nonzero;stroke:none;stroke-width:18.99353981;stroke-linecap:butt;stroke-linejoin:miter;stroke-miterlimit:4;stroke-dasharray:none;stroke-dashoffset:0;stroke-opacity:1;color-rendering:auto;image-rendering:auto;shape-rendering:auto;text-rendering:auto;enable-background:accumulate"
     d="m 382.50391,66.115234 -15.47071,10.71875 89.62696,176.109376 -51.02735,34.69726 156.0293,43.11524 4.125,-148.47266 -47.83008,31.88672 z m 33.14648,64.369146 99.28906,108.52539 30.8418,-20.56055 -2.43164,87.54101 -93.09375,-25.72265 30.92187,-21.02735 z"
     id="path8324"
     inkscape:connector-curvature="0" />
</svg>
