<?xml version="1.0" encoding="UTF-8" standalone="no"?>
<!-- Created with Inkscape (http://www.inkscape.org/) -->

<svg
   xmlns:dc="http://purl.org/dc/elements/1.1/"
   xmlns:cc="http://creativecommons.org/ns#"
   xmlns:rdf="http://www.w3.org/1999/02/22-rdf-syntax-ns#"
   xmlns:svg="http://www.w3.org/2000/svg"
   xmlns="http://www.w3.org/2000/svg"
   xmlns:sodipodi="http://sodipodi.sourceforge.net/DTD/sodipodi-0.dtd"
   xmlns:inkscape="http://www.inkscape.org/namespaces/inkscape"
   width="1000"
   height="1250"
   viewBox="0 0 1000 1250"
   version="1.1"
   id="svg31085"
   inkscape:version="0.92.4 (5da689c313, 2019-01-14)"
   sodipodi:docname="Aquele - Aquela - Aquilo.svg">
  <defs
     id="defs31079" />
  <sodipodi:namedview
     id="base"
     pagecolor="#ffffff"
     bordercolor="#666666"
     borderopacity="1.0"
     inkscape:pageopacity="0.0"
     inkscape:pageshadow="2"
     inkscape:zoom="0.35355339"
     inkscape:cx="943.42668"
     inkscape:cy="436.0991"
     inkscape:document-units="px"
     inkscape:current-layer="layer1"
     showgrid="false"
     units="px"
     inkscape:window-width="681"
     inkscape:window-height="706"
     inkscape:window-x="-7"
     inkscape:window-y="0"
     inkscape:window-maximized="0" />
  <metadata
     id="metadata31082">
    <rdf:RDF>
      <cc:Work
         rdf:about="">
        <dc:format>image/svg+xml</dc:format>
        <dc:type
           rdf:resource="http://purl.org/dc/dcmitype/StillImage" />
        <dc:title></dc:title>
      </cc:Work>
    </rdf:RDF>
  </metadata>
  <g
     inkscape:label="Camada 1"
     inkscape:groupmode="layer"
     id="layer1"
     transform="translate(0,217.58334)">
    <path
       style="color:#000000;font-style:normal;font-variant:normal;font-weight:normal;font-stretch:normal;font-size:medium;line-height:normal;font-family:sans-serif;font-variant-ligatures:normal;font-variant-position:normal;font-variant-caps:normal;font-variant-numeric:normal;font-variant-alternates:normal;font-feature-settings:normal;text-indent:0;text-align:start;text-decoration:none;text-decoration-line:none;text-decoration-style:solid;text-decoration-color:#000000;letter-spacing:normal;word-spacing:normal;text-transform:none;writing-mode:lr-tb;direction:ltr;text-orientation:mixed;dominant-baseline:auto;baseline-shift:baseline;text-anchor:start;white-space:normal;shape-padding:0;clip-rule:nonzero;display:inline;overflow:visible;visibility:visible;opacity:1;isolation:auto;mix-blend-mode:normal;color-interpolation:sRGB;color-interpolation-filters:linearRGB;solid-color:#000000;solid-opacity:1;vector-effect:none;fill:#000000;fill-opacity:1;fill-rule:nonzero;stroke:none;stroke-width:19.3620739;stroke-linecap:butt;stroke-linejoin:miter;stroke-miterlimit:4;stroke-dasharray:none;stroke-dashoffset:0;stroke-opacity:1;color-rendering:auto;image-rendering:auto;shape-rendering:auto;text-rendering:auto;enable-background:accumulate"
       d="m 29.283203,67.763991 -1.138672,0.12695 -1.078125,0.38868 c 0,0 -9.806247,3.31086 -17.7167966,11.86718 -7.9105496,8.55633 -13.0448503,24.780389 -3.8554688,42.181639 l 0.2382813,0.45313 0.2851562,0.42383 c 0,0 7.5612619,11.26401 18.1699219,24.30468 10.321994,12.6883 23.190853,27.12595 36.947266,35.59766 l 85.955074,81.41211 0.18164,0.15625 c 0,0 31.64564,27.16023 58.50586,55.93164 0.0255,0.0324 3.85341,4.97498 4.99414,7.87891 -0.82327,0.2432 -1.89627,0.55439 -4.19921,0.66406 l -0.58985,0.0273 -0.58203,0.0996 c 0,0 -38.1296,6.61383 -86.71289,35.09375 l -0.21875,0.12696 -0.21289,0.14062 c 0,0 -15.65607,9.84513 -24.302735,26.99024 -4.32333,8.57255 -6.855692,19.58168 -3.802734,31.26172 2.338825,8.94789 7.834749,17.84195 16.832029,26.42578 -4.50942,4.31642 -9.747534,10.11857 -13.882811,17.47265 -4.479694,7.96659 -7.715932,18.02626 -6.177734,29.11328 1.254943,9.04539 5.936019,18.25129 14.050785,26.95899 -2.224642,4.42712 -4.553918,10.50852 -5.205082,17.77148 -1.346695,15.02079 5.836642,34.85346 30.517582,50.23438 l 0.1914,0.11914 0.19727,0.11133 c 0,0 60.20089,34.19664 127.57422,27.53906 1.90699,0.87382 3.79301,1.3485 5.59961,1.65039 3.34715,4.08903 15.44519,18.80799 31.5625,36.85937 9.25743,10.36833 19.22783,21.10816 28.44336,30.10352 8.45544,8.25344 15.75805,14.83439 23.01562,18.93945 1.73392,2.15125 15.79695,19.44891 38.22852,37.74414 23.85597,19.45703 56.32121,39.54003 91.90625,38.43953 l -0.59961,-19.3536 c -27.6546,0.8553 -56.96152,-16.05945 -79.06836,-34.08983 -22.10684,-18.03039 -36.59571,-36.25 -36.59571,-36.25 l -1.33398,-1.67969 -1.91797,-0.95899 c -3.17313,-1.58656 -11.41651,-8.1613 -20.10937,-16.64648 -8.69286,-8.48518 -18.4466,-18.97432 -27.52539,-29.14258 -18.15759,-20.33651 -33.60938,-39.3457 -33.60938,-39.3457 l -3.0918,-3.80469 -4.89648,0.24024 c -1.79287,0.088 -1.34449,0.18172 -1.91211,-0.25586 l -3.12891,-2.41211 -3.92382,0.46679 c -60.43987,7.18123 -118.44607,-24.55786 -118.97071,-24.84565 -20.08795,-12.59115 -22.0368,-23.35377 -21.26758,-31.93359 0.77217,-8.61256 5.64454,-14.92774 5.64454,-14.92774 l 5.85937,-7.28906 -7.08203,-6.10742 c -9.36941,-8.08203 -12.56005,-14.92289 -13.375,-20.79687 -0.81495,-5.87399 0.81842,-11.52172 3.87695,-16.96094 6.11707,-10.87845 17.43946,-18.96094 17.43946,-18.96094 l 11.19336,-7.65039 -10.8711,-8.10352 c -12.24348,-9.12696 -17.17156,-17.12802 -18.85547,-23.57031 -1.6839,-6.44229 -0.44805,-12.07976 2.35938,-17.64648 5.56815,-11.04086 17.35715,-19.30896 17.55469,-19.44727 45.76954,-26.76254 79.83919,-32.53142 79.86132,-32.53516 1e-5,0 0.008,-0.002 0.008,-0.002 7.75284,-0.53701 14.32781,-2.62401 18.50976,-8.06055 4.3985,-5.71805 3.76467,-12.72967 2.26758,-17.3457 -2.99419,-9.23207 -9.40625,-15.45312 -9.40625,-15.45313 l -0.0293,-0.0312 -0.0293,-0.0313 c -27.64001,-29.61421 -59.1683,-56.64766 -59.74805,-57.14453 l -0.0117,-0.0117 -87.169922,-82.56446 -0.947266,-0.55664 C 62.493649,161.50479 49.21664,147.59536 39.207221,135.29129 29.60877,123.49241 23.039389,113.78955 22.486518,112.97098 16.613015,101.64462 19.540987,97.643581 23.566596,93.289341 c 2.650486,-2.86686 5.526969,-4.52101 7.625,-5.57812 0.804445,0.26277 1.895777,0.58056 3.185547,1.38867 3.033387,1.90058 6.881308,4.85318 10.492188,7.88476 7.221759,6.063179 13.517578,12.347659 13.517578,12.347659 l 1.470703,1.46875 1.941406,0.73828 c 0.610056,0.2314 4.664946,2.38342 8.97461,5.14453 4.309663,2.76111 9.347102,6.21541 14.105468,9.56836 9.342253,6.58296 17.272894,12.52955 17.572264,12.75391 16.68309,16.42728 44.32085,34.32228 68.41602,48.82812 24.41639,14.69922 45.00976,25.57032 45.00976,25.57032 l 0.40821,0.21484 0.42578,0.17578 c 10.33299,4.2548 94.06054,40.35938 94.06054,40.35938 l 2.06446,0.89062 2.24414,-0.11133 c 30.14901,-1.48077 51.84049,11.51868 58.42383,16.89649 l 0.55273,0.45312 0.61524,0.36719 c 20.10969,11.98443 25.61181,27.54993 28.02734,34.37109 2.2999,9.92824 5.49843,16.30521 9.03125,20.42969 1.82787,2.13399 3.74341,3.64664 5.47656,4.62891 0.003,0.002 0.004,0.002 0.008,0.004 6.91751,7.89374 12.94336,25.40821 12.94336,25.40821 l -0.0566,-0.20508 c 3.42206,12.8327 13.85018,31.72934 23.72852,49.3457 9.83454,17.53828 18.94628,32.5133 19.02734,32.64649 0.0115,0.0193 0.0217,0.0354 0.0332,0.0547 5e-5,8e-5 0.0195,0.0312 0.0195,0.0312 55.95296,94.10904 105.92773,141.51562 105.92773,141.51562 l 13.31055,-14.06054 c 0,0 -47.78933,-45.14636 -102.64649,-137.43555 l -0.0254,-0.043 -0.0273,-0.043 c 0,0 -9.0521,-14.87348 -18.73242,-32.13672 -9.68033,-17.26325 -20.1146,-38.13728 -21.90821,-44.86328 l -0.0273,-0.10352 -0.0293,-0.10156 c 0,0 -5.18123,-21.2183 -18.75,-34.78711 l -2.15039,-2.15039 -1.36914,-0.24414 c -0.0541,-0.0578 0.0226,0.0245 -0.0469,-0.0566 -0.93589,-1.09263 -3.24607,-4.58716 -5.08203,-12.95117 l -0.12891,-0.58985 -0.20117,-0.56836 c -2.43212,-6.86532 -10.69487,-28.90557 -35.60156,-44.15625 -10.32382,-8.32532 -34.52351,-21.93896 -68.77344,-20.98242 -3.00074,-1.29483 -79.67413,-34.37902 -92.01367,-39.47852 -0.43015,-0.22735 -20.12862,-10.64456 -43.7793,-24.88281 -23.90978,-14.39423 -51.71155,-32.8834 -65.42188,-46.59375 l -0.48632,-0.48633 -0.55079,-0.41211 c 0,0 -8.56781,-6.42639 -18.36523,-13.33007 -4.898708,-3.45184 -10.108806,-7.02816 -14.814453,-10.04297 -3.828267,-2.452689 -7.022862,-4.342579 -10.292969,-5.853519 -1.461979,-1.44493 -6.645807,-6.52797 -13.605469,-12.37109 -4.008846,-3.36571 -8.330438,-6.75082 -12.662109,-9.46485 -4.331671,-2.71402 -7.957641,-5.75164 -15.373047,-4.92773 z"
       id="path53564"
       inkscape:connector-curvature="0" />
    <path
       style="color:#000000;font-style:normal;font-variant:normal;font-weight:normal;font-stretch:normal;font-size:medium;line-height:normal;font-family:sans-serif;font-variant-ligatures:normal;font-variant-position:normal;font-variant-caps:normal;font-variant-numeric:normal;font-variant-alternates:normal;font-feature-settings:normal;text-indent:0;text-align:start;text-decoration:none;text-decoration-line:none;text-decoration-style:solid;text-decoration-color:#000000;letter-spacing:normal;word-spacing:normal;text-transform:none;writing-mode:lr-tb;direction:ltr;text-orientation:mixed;dominant-baseline:auto;baseline-shift:baseline;text-anchor:start;white-space:normal;shape-padding:0;clip-rule:nonzero;display:inline;overflow:visible;visibility:visible;opacity:1;isolation:auto;mix-blend-mode:normal;color-interpolation:sRGB;color-interpolation-filters:linearRGB;solid-color:#000000;solid-opacity:1;vector-effect:none;fill:#000000;fill-opacity:1;fill-rule:nonzero;stroke:none;stroke-width:19.3620739;stroke-linecap:butt;stroke-linejoin:miter;stroke-miterlimit:4;stroke-dasharray:none;stroke-dashoffset:0;stroke-opacity:1;color-rendering:auto;image-rendering:auto;shape-rendering:auto;text-rendering:auto;enable-background:accumulate"
       d="m 197.77539,566.52181 -3.26172,3.5625 c 0,0 -7.37397,8.49249 -23.17383,8.75585 l 0.32227,19.35938 c 15.94843,-0.26584 27.00395,-7.04532 32.68164,-11.4043 3.95938,0.52242 11.9044,1.7185 21.37891,4.96484 6.14735,2.10633 12.03009,4.98446 15.76953,8.08204 3.73944,3.09757 5.19856,5.61451 5.26172,9.08789 l 19.35937,-0.35352 c -0.18133,-9.97318 -5.69209,-18.19609 -12.26953,-23.64453 -6.57744,-5.44844 -14.35946,-8.9232 -21.8457,-11.48828 -14.97248,-5.13016 -29.41407,-6.45898 -29.41407,-6.45898 z"
       id="path53566"
       inkscape:connector-curvature="0" />
    <path
       style="color:#000000;font-style:normal;font-variant:normal;font-weight:normal;font-stretch:normal;font-size:medium;line-height:normal;font-family:sans-serif;font-variant-ligatures:normal;font-variant-position:normal;font-variant-caps:normal;font-variant-numeric:normal;font-variant-alternates:normal;font-feature-settings:normal;text-indent:0;text-align:start;text-decoration:none;text-decoration-line:none;text-decoration-style:solid;text-decoration-color:#000000;letter-spacing:normal;word-spacing:normal;text-transform:none;writing-mode:lr-tb;direction:ltr;text-orientation:mixed;dominant-baseline:auto;baseline-shift:baseline;text-anchor:start;white-space:normal;shape-padding:0;clip-rule:nonzero;display:inline;overflow:visible;visibility:visible;opacity:1;isolation:auto;mix-blend-mode:normal;color-interpolation:sRGB;color-interpolation-filters:linearRGB;solid-color:#000000;solid-opacity:1;vector-effect:none;fill:#000000;fill-opacity:1;fill-rule:nonzero;stroke:none;stroke-width:19.3620739;stroke-linecap:butt;stroke-linejoin:miter;stroke-miterlimit:4;stroke-dasharray:none;stroke-dashoffset:0;stroke-opacity:1;color-rendering:auto;image-rendering:auto;shape-rendering:auto;text-rendering:auto;enable-background:accumulate"
       d="m 221.57812,583.50813 c -0.28357,0.20622 -1.13888,2.21734 -2.52929,3.72461 -1.85389,2.00969 -3.68945,3.48047 -3.68945,3.48047 l 12.0332,15.16992 c 0,0 2.89172,-2.27673 5.88672,-5.52344 2.995,-3.24671 7.06299,-7.10442 7.6875,-14.80663 l -19.29883,-1.56446 c 0.0339,-0.4179 0.005,-0.54921 -0.0898,-0.48047 z"
       id="path53568"
       inkscape:connector-curvature="0" />
    <path
       style="color:#000000;font-style:normal;font-variant:normal;font-weight:normal;font-stretch:normal;font-size:medium;line-height:normal;font-family:sans-serif;font-variant-ligatures:normal;font-variant-position:normal;font-variant-caps:normal;font-variant-numeric:normal;font-variant-alternates:normal;font-feature-settings:normal;text-indent:0;text-align:start;text-decoration:none;text-decoration-line:none;text-decoration-style:solid;text-decoration-color:#000000;letter-spacing:normal;word-spacing:normal;text-transform:none;writing-mode:lr-tb;direction:ltr;text-orientation:mixed;dominant-baseline:auto;baseline-shift:baseline;text-anchor:start;white-space:normal;shape-padding:0;clip-rule:nonzero;display:inline;overflow:visible;visibility:visible;opacity:1;isolation:auto;mix-blend-mode:normal;color-interpolation:sRGB;color-interpolation-filters:linearRGB;solid-color:#000000;solid-opacity:1;vector-effect:none;fill:#000000;fill-opacity:1;fill-rule:nonzero;stroke:none;stroke-width:19.3620739;stroke-linecap:butt;stroke-linejoin:miter;stroke-miterlimit:4;stroke-dasharray:none;stroke-dashoffset:0;stroke-opacity:1;color-rendering:auto;image-rendering:auto;shape-rendering:auto;text-rendering:auto;enable-background:accumulate"
       d="m 182.40625,559.82845 c -0.86336,8.46072 3.46627,14.27118 6.75195,18.14453 3.28568,3.87334 6.6875,6.39258 6.6875,6.39258 l 11.61719,-15.48829 c 0,0 -1.81282,-1.39275 -3.53906,-3.42773 -1.72624,-2.03498 -2.20552,-4.13048 -2.25391,-3.65625 z"
       id="path53572"
       inkscape:connector-curvature="0" />
    <path
       style="color:#000000;font-style:normal;font-variant:normal;font-weight:normal;font-stretch:normal;font-size:medium;line-height:normal;font-family:sans-serif;font-variant-ligatures:normal;font-variant-position:normal;font-variant-caps:normal;font-variant-numeric:normal;font-variant-alternates:normal;font-feature-settings:normal;text-indent:0;text-align:start;text-decoration:none;text-decoration-line:none;text-decoration-style:solid;text-decoration-color:#000000;letter-spacing:normal;word-spacing:normal;text-transform:none;writing-mode:lr-tb;direction:ltr;text-orientation:mixed;dominant-baseline:auto;baseline-shift:baseline;text-anchor:start;white-space:normal;shape-padding:0;clip-rule:nonzero;display:inline;overflow:visible;visibility:visible;opacity:1;isolation:auto;mix-blend-mode:normal;color-interpolation:sRGB;color-interpolation-filters:linearRGB;solid-color:#000000;solid-opacity:1;vector-effect:none;fill:#000000;fill-opacity:1;fill-rule:nonzero;stroke:none;stroke-width:19.3620739;stroke-linecap:butt;stroke-linejoin:miter;stroke-miterlimit:4;stroke-dasharray:none;stroke-dashoffset:0;stroke-opacity:1;color-rendering:auto;image-rendering:auto;shape-rendering:auto;text-rendering:auto;enable-background:accumulate"
       d="m 206.12695,449.64681 c -4.18811,5.63784 -14.49685,12.72802 -23.61523,17.55859 -9.11838,4.83056 -16.77149,7.74609 -16.77149,7.74609 l 0.0801,-0.0293 c -32.29839,11.95283 -59.48635,39.57227 -59.48635,39.57227 l 13.63477,13.74805 c 0,0 26.3233,-25.44802 52.57227,-35.16211 l 0.041,-0.0156 0.0391,-0.0156 c 0,0 8.71138,-3.30766 18.95508,-8.73438 10.2437,-5.42671 22.29584,-12.62586 30.09375,-23.12304 z"
       id="path53576"
       inkscape:connector-curvature="0" />
    <path
       style="color:#000000;font-style:normal;font-variant:normal;font-weight:normal;font-stretch:normal;font-size:medium;line-height:normal;font-family:sans-serif;font-variant-ligatures:normal;font-variant-position:normal;font-variant-caps:normal;font-variant-numeric:normal;font-variant-alternates:normal;font-feature-settings:normal;text-indent:0;text-align:start;text-decoration:none;text-decoration-line:none;text-decoration-style:solid;text-decoration-color:#000000;letter-spacing:normal;word-spacing:normal;text-transform:none;writing-mode:lr-tb;direction:ltr;text-orientation:mixed;dominant-baseline:auto;baseline-shift:baseline;text-anchor:start;white-space:normal;shape-padding:0;clip-rule:nonzero;display:inline;overflow:visible;visibility:visible;opacity:1;isolation:auto;mix-blend-mode:normal;color-interpolation:sRGB;color-interpolation-filters:linearRGB;solid-color:#000000;solid-opacity:1;vector-effect:none;fill:#000000;fill-opacity:1;fill-rule:nonzero;stroke:none;stroke-width:19.3620739;stroke-linecap:butt;stroke-linejoin:miter;stroke-miterlimit:4;stroke-dasharray:none;stroke-dashoffset:0;stroke-opacity:1;color-rendering:auto;image-rendering:auto;shape-rendering:auto;text-rendering:auto;enable-background:accumulate"
       d="m 213.38477,385.53938 c -10.61322,10.99913 -24.50586,15.16211 -24.50586,15.16211 l -0.58399,0.16797 -0.55859,0.23828 c -48.49698,20.71717 -72.09961,40.88282 -72.09961,40.88282 l 12.63281,14.67187 c 0,0 20.54732,-17.83886 66.8457,-37.64844 2.40281,-0.71785 18.55,-5.87972 32.20313,-20.02929 z"
       id="path53578"
       inkscape:connector-curvature="0" />
    <path
       style="color:#000000;font-style:normal;font-variant:normal;font-weight:normal;font-stretch:normal;font-size:medium;line-height:normal;font-family:sans-serif;font-variant-ligatures:normal;font-variant-position:normal;font-variant-caps:normal;font-variant-numeric:normal;font-variant-alternates:normal;font-feature-settings:normal;text-indent:0;text-align:start;text-decoration:none;text-decoration-line:none;text-decoration-style:solid;text-decoration-color:#000000;letter-spacing:normal;word-spacing:normal;text-transform:none;writing-mode:lr-tb;direction:ltr;text-orientation:mixed;dominant-baseline:auto;baseline-shift:baseline;text-anchor:start;white-space:normal;shape-padding:0;clip-rule:nonzero;display:inline;overflow:visible;visibility:visible;opacity:1;isolation:auto;mix-blend-mode:normal;color-interpolation:sRGB;color-interpolation-filters:linearRGB;solid-color:#000000;solid-opacity:1;vector-effect:none;fill:#000000;fill-opacity:1;fill-rule:nonzero;stroke:none;stroke-width:19.3620739;stroke-linecap:butt;stroke-linejoin:miter;stroke-miterlimit:4;stroke-dasharray:none;stroke-dashoffset:0;stroke-opacity:1;color-rendering:auto;image-rendering:auto;shape-rendering:auto;text-rendering:auto;enable-background:accumulate"
       d="m 29.238281,72.041331 c -6.389018,5.95094 -10.013589,13.18465 -10.080078,20.22461 -0.06649,7.03997 3.056305,12.784579 6.408203,16.951179 6.703796,8.33319 15.558594,12.49414 15.558594,12.49414 l 8.761719,4.45312 4.320312,-8.82812 c 0,0 1.703668,-3.45723 3.910157,-6.98047 1.103244,-1.76162 2.334013,-3.50199 3.251953,-4.56641 0.917939,-1.06441 1.929387,-1.10148 -0.257813,-0.41797 l -5.77539,-18.480469 c -4.795016,1.49848 -6.67417,3.98725 -8.628907,6.25391 -1.639641,1.90128 -2.94312,3.88255 -4.193359,5.81641 -0.649917,-0.61647 -1.329041,-1.22163 -1.859375,-1.88086 -1.587957,-1.97392 -2.145039,-3.54504 -2.134766,-4.63282 0.01027,-1.08777 0.218672,-2.79432 3.914063,-6.23632 z"
       id="path53582"
       inkscape:connector-curvature="0" />
    <path
       style="color:#000000;font-style:normal;font-variant:normal;font-weight:normal;font-stretch:normal;font-size:medium;line-height:normal;font-family:sans-serif;font-variant-ligatures:normal;font-variant-position:normal;font-variant-caps:normal;font-variant-numeric:normal;font-variant-alternates:normal;font-feature-settings:normal;text-indent:0;text-align:start;text-decoration:none;text-decoration-line:none;text-decoration-style:solid;text-decoration-color:#000000;letter-spacing:normal;word-spacing:normal;text-transform:none;writing-mode:lr-tb;direction:ltr;text-orientation:mixed;dominant-baseline:auto;baseline-shift:baseline;text-anchor:start;white-space:normal;shape-padding:0;clip-rule:nonzero;display:inline;overflow:visible;visibility:visible;opacity:1;isolation:auto;mix-blend-mode:normal;color-interpolation:sRGB;color-interpolation-filters:linearRGB;solid-color:#000000;solid-opacity:1;vector-effect:none;fill:#000000;fill-opacity:1;fill-rule:nonzero;stroke:none;stroke-width:19.3620739;stroke-linecap:butt;stroke-linejoin:miter;stroke-miterlimit:4;stroke-dasharray:none;stroke-dashoffset:0;stroke-opacity:1;color-rendering:auto;image-rendering:auto;shape-rendering:auto;text-rendering:auto;enable-background:accumulate"
       d="m 299.94531,420.66243 -13.05664,14.29883 c 11.87481,10.84221 12.4937,25.22389 9.89649,38.78711 -2.59722,13.56321 -8.54883,24.29883 -8.54883,24.29883 l 16.88086,9.48046 c 0,0 7.4132,-13.06002 10.68359,-30.13867 3.27039,-17.07865 2.25964,-40.1867 -15.85547,-56.72656 z"
       id="path53584"
       inkscape:connector-curvature="0" />
    <path
       style="color:#000000;font-style:normal;font-variant:normal;font-weight:normal;font-stretch:normal;font-size:medium;line-height:normal;font-family:sans-serif;font-variant-ligatures:normal;font-variant-position:normal;font-variant-caps:normal;font-variant-numeric:normal;font-variant-alternates:normal;font-feature-settings:normal;text-indent:0;text-align:start;text-decoration:none;text-decoration-line:none;text-decoration-style:solid;text-decoration-color:#000000;letter-spacing:normal;word-spacing:normal;text-transform:none;writing-mode:lr-tb;direction:ltr;text-orientation:mixed;dominant-baseline:auto;baseline-shift:baseline;text-anchor:start;white-space:normal;shape-padding:0;clip-rule:nonzero;display:inline;overflow:visible;visibility:visible;opacity:1;isolation:auto;mix-blend-mode:normal;color-interpolation:sRGB;color-interpolation-filters:linearRGB;solid-color:#000000;solid-opacity:1;vector-effect:none;fill:#000000;fill-opacity:1;fill-rule:nonzero;stroke:none;stroke-width:19.3620739;stroke-linecap:butt;stroke-linejoin:miter;stroke-miterlimit:4;stroke-dasharray:none;stroke-dashoffset:0;stroke-opacity:1;color-rendering:auto;image-rendering:auto;shape-rendering:auto;text-rendering:auto;enable-background:accumulate"
       d="m 342.32227,349.59993 -13.05665,14.29883 c 6.0406,5.51533 8.00323,10.30898 8.54102,15.0664 0.5378,4.75743 -0.64962,9.84472 -2.84766,14.70704 -4.39606,9.72463 -12.27148,17.26757 -12.27148,17.26757 l 13.17383,14.1875 c 0,0 10.37904,-9.40874 16.74023,-23.48046 3.1806,-7.03587 5.49666,-15.55706 4.44532,-24.85743 -1.05135,-9.30037 -5.77025,-19.01371 -14.72461,-27.18945 z"
       id="path53586"
       inkscape:connector-curvature="0" />
    <path
       style="color:#000000;font-style:normal;font-variant:normal;font-weight:normal;font-stretch:normal;font-size:medium;line-height:normal;font-family:sans-serif;font-variant-ligatures:normal;font-variant-position:normal;font-variant-caps:normal;font-variant-numeric:normal;font-variant-alternates:normal;font-feature-settings:normal;text-indent:0;text-align:start;text-decoration:none;text-decoration-line:none;text-decoration-style:solid;text-decoration-color:#000000;letter-spacing:normal;word-spacing:normal;text-transform:none;writing-mode:lr-tb;direction:ltr;text-orientation:mixed;dominant-baseline:auto;baseline-shift:baseline;text-anchor:start;white-space:normal;shape-padding:0;clip-rule:nonzero;display:inline;overflow:visible;visibility:visible;opacity:1;isolation:auto;mix-blend-mode:normal;color-interpolation:sRGB;color-interpolation-filters:linearRGB;solid-color:#000000;solid-opacity:1;vector-effect:none;fill:#000000;fill-opacity:1;fill-rule:nonzero;stroke:none;stroke-width:19.3620739;stroke-linecap:butt;stroke-linejoin:miter;stroke-miterlimit:4;stroke-dasharray:none;stroke-dashoffset:0;stroke-opacity:1;color-rendering:auto;image-rendering:auto;shape-rendering:auto;text-rendering:auto;enable-background:accumulate"
       d="m 373.42188,307.18196 -12.48047,14.80273 c 9.04557,7.62667 7.89649,12.60635 5.71875,18.64649 -2.17775,6.04014 -6.78516,10.90039 -6.78516,10.90039 l 13.69141,13.69141 c 0,0 7.37804,-7.12372 11.30859,-18.0254 3.93055,-10.90167 3.01237,-27.81922 -11.45312,-40.01562 z"
       id="path53588"
       inkscape:connector-curvature="0" />
    <path
       style="color:#000000;font-style:normal;font-variant:normal;font-weight:normal;font-stretch:normal;font-size:medium;line-height:normal;font-family:sans-serif;font-variant-ligatures:normal;font-variant-position:normal;font-variant-caps:normal;font-variant-numeric:normal;font-variant-alternates:normal;font-feature-settings:normal;text-indent:0;text-align:start;text-decoration:none;text-decoration-line:none;text-decoration-style:solid;text-decoration-color:#000000;letter-spacing:normal;word-spacing:normal;text-transform:none;writing-mode:lr-tb;direction:ltr;text-orientation:mixed;dominant-baseline:auto;baseline-shift:baseline;text-anchor:start;white-space:normal;shape-padding:0;clip-rule:nonzero;display:inline;overflow:visible;visibility:visible;opacity:1;isolation:auto;mix-blend-mode:normal;color-interpolation:sRGB;color-interpolation-filters:linearRGB;solid-color:#000000;solid-opacity:1;vector-effect:none;fill:#000000;fill-opacity:1;fill-rule:nonzero;stroke:none;stroke-width:19.3620739;stroke-linecap:butt;stroke-linejoin:miter;stroke-miterlimit:4;stroke-dasharray:none;stroke-dashoffset:0;stroke-opacity:1;color-rendering:auto;image-rendering:auto;shape-rendering:auto;text-rendering:auto;enable-background:accumulate"
       d="m 402.86328,300.50422 c 0,0 -0.88842,2.2971 -2.56445,5.1836 -1.67604,2.88649 -4.25857,5.89084 -5.51758,6.67773 l 10.26172,16.41993 c 6.117,-3.82316 9.52701,-9.11598 12,-13.375 2.47299,-4.25903 3.89062,-7.95508 3.89062,-7.95508 z"
       id="path53590"
       inkscape:connector-curvature="0" />
    <path
       style="color:#000000;font-style:normal;font-variant:normal;font-weight:normal;font-stretch:normal;font-size:medium;line-height:normal;font-family:sans-serif;font-variant-ligatures:normal;font-variant-position:normal;font-variant-caps:normal;font-variant-numeric:normal;font-variant-alternates:normal;font-feature-settings:normal;text-indent:0;text-align:start;text-decoration:none;text-decoration-line:none;text-decoration-style:solid;text-decoration-color:#000000;letter-spacing:normal;word-spacing:normal;text-transform:none;writing-mode:lr-tb;direction:ltr;text-orientation:mixed;dominant-baseline:auto;baseline-shift:baseline;text-anchor:start;white-space:normal;shape-padding:0;clip-rule:nonzero;display:inline;overflow:visible;visibility:visible;opacity:1;isolation:auto;mix-blend-mode:normal;color-interpolation:sRGB;color-interpolation-filters:linearRGB;solid-color:#000000;solid-opacity:1;vector-effect:none;fill:#000000;fill-opacity:1;fill-rule:nonzero;stroke:none;stroke-width:19.3620739;stroke-linecap:butt;stroke-linejoin:miter;stroke-miterlimit:4;stroke-dasharray:none;stroke-dashoffset:0;stroke-opacity:1;color-rendering:auto;image-rendering:auto;shape-rendering:auto;text-rendering:auto;enable-background:accumulate"
       d="m 259.88672,312.92219 c -7.32879,5.05434 -21.27046,9.66688 -32.96875,12.39649 -11.69829,2.7296 -21.07617,3.89453 -21.07617,3.89453 l 2.38281,19.21484 c 0,0 10.34374,-1.27889 23.09375,-4.2539 12.75001,-2.97501 27.98262,-7.32774 39.56055,-15.3125 z"
       id="path53592"
       inkscape:connector-curvature="0" />
    <path
       style="color:#000000;font-style:normal;font-variant:normal;font-weight:normal;font-stretch:normal;font-size:medium;line-height:normal;font-family:sans-serif;font-variant-ligatures:normal;font-variant-position:normal;font-variant-caps:normal;font-variant-numeric:normal;font-variant-alternates:normal;font-feature-settings:normal;text-indent:0;text-align:start;text-decoration:none;text-decoration-line:none;text-decoration-style:solid;text-decoration-color:#000000;letter-spacing:normal;word-spacing:normal;text-transform:none;writing-mode:lr-tb;direction:ltr;text-orientation:mixed;dominant-baseline:auto;baseline-shift:baseline;text-anchor:start;white-space:normal;shape-padding:0;clip-rule:nonzero;display:inline;overflow:visible;visibility:visible;opacity:1;isolation:auto;mix-blend-mode:normal;color-interpolation:sRGB;color-interpolation-filters:linearRGB;solid-color:#000000;solid-opacity:1;vector-effect:none;fill:#000000;fill-opacity:1;fill-rule:nonzero;stroke:none;stroke-width:19.3620739;stroke-linecap:butt;stroke-linejoin:miter;stroke-miterlimit:4;stroke-dasharray:none;stroke-dashoffset:0;stroke-opacity:1;color-rendering:auto;image-rendering:auto;shape-rendering:auto;text-rendering:auto;enable-background:accumulate"
       d="m 260.85352,312.33626 c -14.75435,7.81111 -23.62795,6.82312 -29.18946,4.93164 -5.56151,-1.89149 -7.40039,-4.47266 -7.40039,-4.47266 l -15.22851,11.95703 c 0,0 5.90165,7.279 16.39453,10.84766 10.49288,3.56866 25.98707,3.6393 44.48242,-6.15235 z"
       id="path53594"
       inkscape:connector-curvature="0" />
    <path
       style="color:#000000;font-style:normal;font-variant:normal;font-weight:normal;font-stretch:normal;font-size:medium;line-height:normal;font-family:sans-serif;font-variant-ligatures:normal;font-variant-position:normal;font-variant-caps:normal;font-variant-numeric:normal;font-variant-alternates:normal;font-feature-settings:normal;text-indent:0;text-align:start;text-decoration:none;text-decoration-line:none;text-decoration-style:solid;text-decoration-color:#000000;letter-spacing:normal;word-spacing:normal;text-transform:none;writing-mode:lr-tb;direction:ltr;text-orientation:mixed;dominant-baseline:auto;baseline-shift:baseline;text-anchor:start;white-space:normal;shape-padding:0;clip-rule:nonzero;display:inline;overflow:visible;visibility:visible;opacity:1;isolation:auto;mix-blend-mode:normal;color-interpolation:sRGB;color-interpolation-filters:linearRGB;solid-color:#000000;solid-opacity:1;vector-effect:none;fill:#000000;fill-opacity:1;fill-rule:nonzero;stroke:none;stroke-width:40.98732758;stroke-linecap:butt;stroke-linejoin:miter;stroke-miterlimit:4;stroke-dasharray:none;stroke-dashoffset:0;stroke-opacity:1;color-rendering:auto;image-rendering:auto;shape-rendering:auto;text-rendering:auto;enable-background:accumulate"
       d="m 973.62109,-215.52117 c -157.94971,-0.0466 -266.45431,63.36764 -328.86523,158.238291 -62.41617,94.87863 -79.833,218.768989 -66.19141,341.402339 13.6416,122.63335 58.40248,244.55195 124.48243,337.14062 66.07994,92.58868 155.04652,157.08721 256.23828,156.48441 101.14404,-0.6025 189.38274,-65.77863 255.07224,-158.67972 65.6896,-92.90108 110.3649,-214.77289 125.2012,-337.10156 14.8363,-122.32867 -0.025,-245.563539 -57.6641,-340.066409 -57.6333,-94.493571 -159.7591,-157.952131 -308.27341,-157.417971 z m 0.0254,40.98633 h 0.041 0.041 c 137.16441,-0.50494 222.24041,54.26482 273.17381,137.773441 50.9334,83.50862 66.0027,198.061769 51.9668,313.791019 -14.0358,115.72924 -57.0348,232.18465 -117.9765,318.37109 -60.9417,86.18644 -138.2908,140.85964 -221.85161,141.35742 C 875.52789,737.25566 797.63749,683.24167 736.4082,597.44954 675.17891,511.65741 632.17551,395.32768 619.30078,279.58821 606.42605,163.84874 623.74037,49.241481 678.99805,-34.755539 734.25572,-118.75256 826.35653,-174.58825 973.64648,-174.53484 Z"
       id="path10-9-9"
       inkscape:connector-curvature="0" />
    <path
       style="color:#000000;font-style:normal;font-variant:normal;font-weight:normal;font-stretch:normal;font-size:medium;line-height:normal;font-family:sans-serif;font-variant-ligatures:normal;font-variant-position:normal;font-variant-caps:normal;font-variant-numeric:normal;font-variant-alternates:normal;font-feature-settings:normal;text-indent:0;text-align:start;text-decoration:none;text-decoration-line:none;text-decoration-style:solid;text-decoration-color:#000000;letter-spacing:normal;word-spacing:normal;text-transform:none;writing-mode:lr-tb;direction:ltr;text-orientation:mixed;dominant-baseline:auto;baseline-shift:baseline;text-anchor:start;white-space:normal;shape-padding:0;clip-rule:nonzero;display:inline;overflow:visible;visibility:visible;opacity:1;isolation:auto;mix-blend-mode:normal;color-interpolation:sRGB;color-interpolation-filters:linearRGB;solid-color:#000000;solid-opacity:1;vector-effect:none;fill:#000000;fill-opacity:1;fill-rule:nonzero;stroke:none;stroke-width:20.49366379;stroke-linecap:butt;stroke-linejoin:miter;stroke-miterlimit:4;stroke-dasharray:none;stroke-dashoffset:0;stroke-opacity:1;color-rendering:auto;image-rendering:auto;shape-rendering:auto;text-rendering:auto;enable-background:accumulate"
       d="m 951.69531,278.11165 c 0,0 -2.31129,22.8109 -6.13476,46.77148 -1.91174,11.98029 -4.21481,24.24924 -6.68946,33.78125 -1.23732,4.76601 -2.53262,8.8575 -3.69336,11.67969 -1.16073,2.82219 -2.66069,4.29764 -1.58398,3.40039 -2.26777,1.88977 -4.66752,3.46715 -5.92383,8.49219 -0.62815,2.51252 -0.26989,6.25542 1.33399,8.86914 1.60388,2.61372 3.68879,3.89274 5.26562,4.63477 6.30732,2.96809 9.54548,1.82897 13.83399,1.5332 8.57702,-0.59154 17.86718,-2.50391 17.86718,-2.50391 l -4.01953,-20.0957 c 0,0 -3.16138,0.55144 -6.98242,1.1289 1.35755,-3.64124 2.59517,-7.58711 3.73828,-11.99023 2.76548,-10.65225 5.12197,-23.35487 7.0918,-35.69922 3.93966,-24.6887 6.28515,-47.93945 6.28515,-47.93945 z"
       id="path971-3"
       inkscape:connector-curvature="0" />
    <path
       inkscape:connector-curvature="0"
       id="path59-1-8-1-2"
       d="m 1086.1018,166.42278 c -27.6191,-0.99337 -56.5037,10.11377 -90.4249,35.16881 l 12.1734,16.48018 c 31.8102,-23.49657 55.8332,-31.95704 77.5162,-31.1772 21.6835,0.77984 42.5872,11.02591 67.5567,28.93726 l 11.9415,-16.64584 c -26.3502,-18.90169 -51.1425,-31.76995 -78.7629,-32.76321 z"
       style="color:#000000;font-style:normal;font-variant:normal;font-weight:normal;font-stretch:normal;font-size:medium;line-height:normal;font-family:sans-serif;font-variant-ligatures:normal;font-variant-position:normal;font-variant-caps:normal;font-variant-numeric:normal;font-variant-alternates:normal;font-feature-settings:normal;text-indent:0;text-align:start;text-decoration:none;text-decoration-line:none;text-decoration-style:solid;text-decoration-color:#000000;letter-spacing:normal;word-spacing:normal;text-transform:none;writing-mode:lr-tb;direction:ltr;text-orientation:mixed;dominant-baseline:auto;baseline-shift:baseline;text-anchor:start;white-space:normal;shape-padding:0;clip-rule:nonzero;display:inline;overflow:visible;visibility:visible;opacity:1;isolation:auto;mix-blend-mode:normal;color-interpolation:sRGB;color-interpolation-filters:linearRGB;solid-color:#000000;solid-opacity:1;vector-effect:none;fill:#000000;fill-opacity:1;fill-rule:nonzero;stroke:none;stroke-width:20.4876709;stroke-linecap:butt;stroke-linejoin:miter;stroke-miterlimit:4;stroke-dasharray:none;stroke-dashoffset:0;stroke-opacity:1;color-rendering:auto;image-rendering:auto;shape-rendering:auto;text-rendering:auto;enable-background:accumulate" />
    <path
       inkscape:connector-curvature="0"
       id="path59-1-8-3-29-8"
       d="m 828.26239,166.42278 c -27.61878,-0.99326 -56.50372,10.11721 -90.42472,35.17199 l 12.1723,16.48018 c 31.81155,-23.49658 55.83128,-31.95681 77.5148,-31.17709 21.68316,0.77998 42.59003,11.0259 67.55944,28.93717 l 11.94135,-16.64585 c -26.35047,-18.90145 -51.14276,-31.77314 -78.76317,-32.7664 z"
       style="color:#000000;font-style:normal;font-variant:normal;font-weight:normal;font-stretch:normal;font-size:medium;line-height:normal;font-family:sans-serif;font-variant-ligatures:normal;font-variant-position:normal;font-variant-caps:normal;font-variant-numeric:normal;font-variant-alternates:normal;font-feature-settings:normal;text-indent:0;text-align:start;text-decoration:none;text-decoration-line:none;text-decoration-style:solid;text-decoration-color:#000000;letter-spacing:normal;word-spacing:normal;text-transform:none;writing-mode:lr-tb;direction:ltr;text-orientation:mixed;dominant-baseline:auto;baseline-shift:baseline;text-anchor:start;white-space:normal;shape-padding:0;clip-rule:nonzero;display:inline;overflow:visible;visibility:visible;opacity:1;isolation:auto;mix-blend-mode:normal;color-interpolation:sRGB;color-interpolation-filters:linearRGB;solid-color:#000000;solid-opacity:1;vector-effect:none;fill:#000000;fill-opacity:1;fill-rule:nonzero;stroke:none;stroke-width:20.4876709;stroke-linecap:butt;stroke-linejoin:miter;stroke-miterlimit:4;stroke-dasharray:none;stroke-dashoffset:0;stroke-opacity:1;color-rendering:auto;image-rendering:auto;shape-rendering:auto;text-rendering:auto;enable-background:accumulate" />
    <path
       inkscape:connector-curvature="0"
       id="path29-2-7-1"
       d="m 1106.0323,582.87531 c -77.9937,-76.77984 -145.13359,-79.82696 -196.37342,-63.64307 -25.62114,8.092 -47.22849,21.40042 -63.29003,33.62664 -16.06127,12.22595 -26.11984,22.89616 -30.32897,27.06642 l -14.41856,-14.55616 c 3.24367,-3.2139 14.94658,-15.574 32.33705,-28.81215 17.39171,-13.23817 40.93178,-27.82838 69.53136,-36.86132 57.19913,-18.06597 134.79807,-12.26189 216.91557,68.57962 z"
       style="color:#000000;font-style:normal;font-variant:normal;font-weight:normal;font-stretch:normal;font-size:medium;line-height:normal;font-family:sans-serif;font-variant-ligatures:normal;font-variant-position:normal;font-variant-caps:normal;font-variant-numeric:normal;font-variant-alternates:normal;font-feature-settings:normal;text-indent:0;text-align:start;text-decoration:none;text-decoration-line:none;text-decoration-style:solid;text-decoration-color:#000000;letter-spacing:normal;word-spacing:normal;text-transform:none;writing-mode:lr-tb;direction:ltr;text-orientation:mixed;dominant-baseline:auto;baseline-shift:baseline;text-anchor:start;white-space:normal;shape-padding:0;clip-rule:nonzero;display:inline;overflow:visible;visibility:visible;opacity:1;isolation:auto;mix-blend-mode:normal;color-interpolation:sRGB;color-interpolation-filters:linearRGB;solid-color:#000000;solid-opacity:1;vector-effect:none;fill:#000000;fill-opacity:1;fill-rule:nonzero;stroke:none;stroke-width:20.4876709;stroke-linecap:butt;stroke-linejoin:miter;stroke-miterlimit:4;stroke-dasharray:none;stroke-dashoffset:0;stroke-opacity:1;color-rendering:auto;image-rendering:auto;shape-rendering:auto;text-rendering:auto;enable-background:accumulate" />
    <path
       inkscape:connector-curvature="0"
       id="path1039-2-2-0"
       d="m 714.76355,34.437961 -11.58765,22.63045 c 0,0 51.27686,26.25214 103.05071,52.512359 25.88674,13.13012 51.89419,26.26257 71.71354,36.13234 9.91034,4.93484 18.26548,9.05114 24.34534,11.97229 3.04068,1.46046 5.49816,2.61498 7.40185,3.46922 0.95164,0.42733 1.7459,0.77496 2.56195,1.09802 0.40712,0.16175 0.80361,0.31667 1.40434,0.50988 0.60081,0.19348 0.55098,0.68528 4.22019,0.68528 v -25.42412 c 3.54921,0 3.27942,0.4426 3.56727,0.53512 0.28656,0.0919 0.27422,0.0967 0.18089,0.0588 -0.18654,-0.0746 -0.76257,-0.31521 -1.52378,-0.657 -1.52362,-0.68354 -3.86607,-1.78398 -6.8014,-3.19391 -5.86961,-2.82019 -14.16711,-6.90541 -24.02291,-11.81271 -19.7094,-9.81476 -45.68944,-22.92906 -71.54734,-36.044699 -51.71582,-26.23157 -102.963,-52.4718 -102.963,-52.4718 z"
       style="color:#000000;font-style:normal;font-variant:normal;font-weight:normal;font-stretch:normal;font-size:medium;line-height:normal;font-family:sans-serif;font-variant-ligatures:normal;font-variant-position:normal;font-variant-caps:normal;font-variant-numeric:normal;font-variant-alternates:normal;font-feature-settings:normal;text-indent:0;text-align:start;text-decoration:none;text-decoration-line:none;text-decoration-style:solid;text-decoration-color:#000000;letter-spacing:normal;word-spacing:normal;text-transform:none;writing-mode:lr-tb;direction:ltr;text-orientation:mixed;dominant-baseline:auto;baseline-shift:baseline;text-anchor:start;white-space:normal;shape-padding:0;clip-rule:nonzero;display:inline;overflow:visible;visibility:visible;opacity:1;isolation:auto;mix-blend-mode:normal;color-interpolation:sRGB;color-interpolation-filters:linearRGB;solid-color:#000000;solid-opacity:1;vector-effect:none;fill:#000000;fill-opacity:1;fill-rule:nonzero;stroke:none;stroke-width:25.42366409;stroke-linecap:butt;stroke-linejoin:miter;stroke-miterlimit:4;stroke-dasharray:none;stroke-dashoffset:0;stroke-opacity:1;color-rendering:auto;image-rendering:auto;shape-rendering:auto;text-rendering:auto;enable-background:accumulate" />
    <path
       inkscape:connector-curvature="0"
       id="path1039-7-0-6-3"
       d="m 1188.5694,34.437961 c 0,0 -51.2511,26.24019 -102.9673,52.47178 -25.8564,13.115609 -51.8349,26.229909 -71.5445,36.044669 -9.8545,4.9074 -18.15199,8.99251 -24.02289,11.8127 -2.9349,1.40992 -5.2774,2.5105 -6.8014,3.19392 -0.7611,0.34177 -1.336,0.58296 -1.5221,0.65698 -0.097,0.0368 -0.1088,0.0331 0.1809,-0.0588 0.2868,-0.0918 0.014,-0.53486 3.5657,-0.53486 v 25.42398 c 3.6687,0 3.6166,-0.49192 4.2173,-0.68513 0.6008,-0.1932 0.9998,-0.34836 1.4071,-0.50991 0.8162,-0.32328 1.6075,-0.67081 2.5593,-1.09799 1.9039,-0.85437 4.3614,-2.0089 7.40189,-3.46936 6.081,-2.92114 14.4377,-7.03722 24.3479,-11.97227 19.8207,-9.86966 45.8286,-23.00223 71.7151,-36.13228 51.772,-26.260359 103.0479,-52.512519 103.0479,-52.512519 z"
       style="color:#000000;font-style:normal;font-variant:normal;font-weight:normal;font-stretch:normal;font-size:medium;line-height:normal;font-family:sans-serif;font-variant-ligatures:normal;font-variant-position:normal;font-variant-caps:normal;font-variant-numeric:normal;font-variant-alternates:normal;font-feature-settings:normal;text-indent:0;text-align:start;text-decoration:none;text-decoration-line:none;text-decoration-style:solid;text-decoration-color:#000000;letter-spacing:normal;word-spacing:normal;text-transform:none;writing-mode:lr-tb;direction:ltr;text-orientation:mixed;dominant-baseline:auto;baseline-shift:baseline;text-anchor:start;white-space:normal;shape-padding:0;clip-rule:nonzero;display:inline;overflow:visible;visibility:visible;opacity:1;isolation:auto;mix-blend-mode:normal;color-interpolation:sRGB;color-interpolation-filters:linearRGB;solid-color:#000000;solid-opacity:1;vector-effect:none;fill:#000000;fill-opacity:1;fill-rule:nonzero;stroke:none;stroke-width:25.42366409;stroke-linecap:butt;stroke-linejoin:miter;stroke-miterlimit:4;stroke-dasharray:none;stroke-dashoffset:0;stroke-opacity:1;color-rendering:auto;image-rendering:auto;shape-rendering:auto;text-rendering:auto;enable-background:accumulate" />
    <path
       style="font-style:normal;font-weight:normal;font-size:233.33332825px;line-height:1.25;font-family:sans-serif;letter-spacing:0px;word-spacing:0px;fill:#000000;fill-opacity:1;stroke:none"
       d="m 713.87896,852.19785 v 177.27935 h 21.4199 V 852.19785 Z m 245.0683,0 c -13.444,15.4189 -23.8865,32.2435 -31.3301,50.4727 -7.4435,18.2292 -11.166,38.7743 -11.166,61.6367 0,22.8624 3.7225,43.40765 11.166,61.63675 7.4436,18.2292 17.8861,35.0539 31.3301,50.4727 h 26.0918 v -1.1387 c -5.8485,-5.2409 -11.6983,-11.6603 -17.5469,-19.2558 -5.8485,-7.5196 -11.0501,-15.9506 -15.6074,-25.293 -4.7092,-9.7222 -8.469,-19.9761 -11.2793,-30.76175 -2.7344,-10.7856 -4.1015,-22.6719 -4.1015,-35.6602 0,-12.4566 1.4045,-24.3055 4.2148,-35.5468 2.8863,-11.2414 6.6087,-21.5326 11.166,-30.875 4.7852,-9.6463 9.9494,-18.0773 15.4942,-25.293 5.6206,-7.2917 11.5078,-13.7112 17.6601,-19.2559 v -1.1387 z m 200.17974,0 v 1.1387 c 6.1523,5.5447 12.0002,11.9642 17.5449,19.2559 5.6206,7.2157 10.8242,15.6467 15.6093,25.293 4.6333,9.3424 8.3557,19.6336 11.1661,30.875 2.8103,11.2413 4.2148,23.0902 4.2148,35.5468 0,12.9883 -1.4045,24.8746 -4.2148,35.6602 -2.7344,10.78565 -6.4568,21.03955 -11.1661,30.76175 -4.4813,9.3424 -9.6848,17.7734 -15.6093,25.293 -5.8485,7.5955 -11.6964,14.0149 -17.5449,19.2558 v 1.1387 h 26.0898 c 13.444,-15.4188 23.8885,-32.2435 31.332,-50.4727 7.4436,-18.2291 11.166,-38.77435 11.166,-61.63675 0,-22.8624 -3.7224,-43.4075 -11.166,-61.6367 -7.4435,-18.2292 -17.888,-35.0538 -31.332,-50.4727 z M 165.75195,859.83075 104,1029.4772 h 22.90039 l 16.63477,-47.28325 h 73.37109 l 16.63477,47.28325 h 24.03906 l -61.75,-169.64645 z m 14.46875,19.7109 29.73633,83.2852 h -59.58594 z m 148.91016,19.1406 c -7.51953,0 -14.65994,1.5185 -21.41992,4.5567 -6.75998,3.0382 -12.64714,7.3303 -17.66016,12.875 -5.16493,5.6966 -9.34114,12.7604 -12.53125,21.1914 -3.11415,8.355 -4.67187,18.0019 -4.67187,28.9394 0,20.5078 4.48068,36.60965 13.44336,48.30675 9.03862,11.6211 21.11545,17.4316 36.23046,17.4316 7.59549,0 14.65929,-1.3672 21.19141,-4.1016 6.53212,-2.8103 13.10287,-7.0631 19.71094,-12.7597 v 61.2949 h 21.41992 V 902.21355 h -20.05273 l -1.36719,5.4687 c -5.46875,-2.9622 -10.8609,-5.2016 -16.17774,-6.7207 -5.24088,-1.5191 -11.27929,-2.2793 -18.11523,-2.2793 z m 298.3887,0 c -18.533,0 -33.4974,6.115 -44.8906,18.3438 -11.3173,12.2287 -16.9747,28.7489 -16.9747,49.5605 0,21.0395 5.9245,37.29265 17.7735,48.76175 11.8489,11.3933 28.3298,17.0899 49.4453,17.0899 8.2791,0 16.1797,-1.0254 23.6992,-3.0762 7.5195,-2.0508 14.8859,-4.5946 22.1016,-7.6328 v -23.35555 h -1.1387 c -3.7218,3.34205 -9.9881,6.76005 -18.7988,10.25395 -8.7348,3.418 -17.431,5.127 -26.0899,5.127 -6.5321,0 -12.5332,-0.9115 -18.0019,-2.7344 -5.3928,-1.8229 -10.064,-4.5573 -14.0137,-8.2031 -4.1016,-3.72185 -7.329,-8.46965 -9.6836,-14.24225 -2.3546,-5.8485 -3.5332,-12.6845 -3.5332,-20.5078 h 93.7676 v -11.6211 c 0,-18.457 -4.6712,-32.6986 -14.0137,-42.7246 -9.2665,-10.0261 -22.4826,-15.0391 -39.6484,-15.0391 z m 203.2539,0 c -18.533,0 -33.4955,6.115 -44.8887,18.3438 -11.3173,12.2287 -16.9766,28.7489 -16.9766,49.5605 0,21.0395 5.9245,37.29265 17.7735,48.76175 11.8489,11.3933 28.3318,17.0899 49.4473,17.0899 8.279,0 16.1777,-1.0254 23.6972,-3.0762 7.5195,-2.0508 14.8878,-4.5946 22.1035,-7.6328 v -23.35555 h -1.1386 c -3.7218,3.34205 -9.9881,6.76005 -18.7989,10.25395 -8.7348,3.418 -17.4329,5.127 -26.0918,5.127 -6.5321,0 -12.5312,-0.9115 -18,-2.7344 -5.3928,-1.8229 -10.064,-4.5573 -14.0136,-8.2031 -4.1016,-3.72185 -7.331,-8.46965 -9.6856,-14.24225 -2.3546,-5.8485 -3.5312,-12.6845 -3.5312,-20.5078 h 93.7656 v -11.6211 c 0,-18.457 -4.6712,-32.6986 -14.0137,-42.7246 -9.2665,-10.0261 -22.4826,-15.0391 -39.6484,-15.0391 z m 235.83984,0.4551 c -7.6715,0 -15.4562,0.6836 -23.3555,2.0508 -7.8993,1.3672 -13.9377,2.6204 -18.1152,3.7597 v 21.7618 h 1.1387 c 7.3676,-2.8104 14.508,-4.9377 21.4199,-6.3809 6.9119,-1.5191 13.1781,-2.2773 18.7988,-2.2773 4.6332,0 9.0766,0.3025 13.3301,0.9101 4.2534,0.6077 7.8993,1.7863 10.9375,3.5332 3.1901,1.8229 5.62,4.3295 7.291,7.5196 1.747,3.1901 2.6211,7.215 2.6211,12.0761 v 3.3047 c -12.4566,0.6077 -24.115,1.5191 -34.9766,2.7344 -10.8615,1.2153 -20.1666,3.5312 -27.914,6.9492 -7.6715,3.418 -13.596,8.1265 -17.7735,14.127 -4.1015,5.9244 -6.1523,13.7111 -6.1523,23.3574 0,11.77305 3.9876,21.45725 11.9629,29.05275 7.9752,7.5955 17.6968,11.3926 29.166,11.3926 6.2283,0 11.6597,-0.607 16.293,-1.8223 4.6332,-1.1393 8.7348,-2.5831 12.3046,-4.33 3.0382,-1.3672 6.1517,-3.1902 9.3418,-5.4688 3.2661,-2.3546 5.8492,-4.1775 7.7481,-5.4687 v 13.5585 h 21.3047 v -86.36135 c 0,-8.2031 -1.2533,-15.0764 -3.7598,-20.6211 -2.5065,-5.5447 -6.1523,-10.0646 -10.9375,-13.5586 -4.8611,-3.5698 -10.6324,-6.0764 -17.3164,-7.5195 -6.6081,-1.5191 -14.3947,-2.2793 -23.3574,-2.2793 z m -640.52736,3.0762 v 82.6015 c 0,15.79865 3.72244,27.79895 11.16601,36.00205 7.44358,8.1272 17.84874,12.1914 31.2168,12.1914 7.97526,0 15.26693,-1.5184 21.875,-4.5566 6.60807,-3.0382 13.52062,-7.4069 20.73633,-13.1036 v 14.1289 H 532.5 V 902.21355 h -21.41992 v 95.0195 c -5.69662,4.48135 -11.84896,8.16655 -18.45703,11.05275 -6.53212,2.8863 -12.57053,4.3282 -18.11524,4.3282 -6.2283,0 -10.97613,-0.7583 -14.24219,-2.2774 -3.26605,-1.5191 -5.92382,-3.9509 -7.9746,-7.2929 -1.97483,-3.26615 -3.26541,-7.17715 -3.87305,-11.73445 -0.60764,-4.6333 -0.91211,-10.1786 -0.91211,-16.6348 v -72.4609 z m 200.29302,14.1289 c 11.3932,0 19.8634,3.0762 25.4082,9.2285 5.6206,6.1523 8.4689,14.8485 8.5449,26.0898 h -72.918 c 0.9115,-10.026 4.7478,-18.4197 11.5078,-25.1796 6.836,-6.76 15.9879,-10.1387 27.4571,-10.1387 z m 203.2558,0 c 11.3932,0 19.8616,3.0762 25.4063,9.2285 5.6206,6.1523 8.4689,14.8485 8.5449,26.0898 h -72.916 c 0.9114,-10.026 4.7478,-18.4197 11.5078,-25.1796 6.8359,-6.76 15.9878,-10.1387 27.457,-10.1387 z m -496.74414,1.5937 c 5.31685,0 10.25326,0.5324 14.81055,1.5957 4.55729,1.0634 9.79818,2.9236 15.72266,5.5821 v 72.0058 c -5.3928,4.25355 -11.20334,7.74815 -17.43164,10.48245 -6.2283,2.6585 -12.45725,3.9864 -18.68555,3.9864 -11.16536,0 -19.36849,-3.9877 -24.60937,-11.96295 -5.16493,-8.0512 -7.7461,-19.5191 -7.7461,-34.4063 0,-14.7352 3.22743,-26.2816 9.6836,-34.6367 6.45616,-8.431 15.87521,-12.6465 28.25585,-12.6465 z m 767.78908,44.7754 v 35.4336 c -5.3168,4.10165 -11.0901,7.63355 -17.3184,10.59575 -6.2283,2.8863 -13.1015,4.3301 -20.6211,4.3301 -9.0386,0 -15.7606,-1.8229 -20.166,-5.4688 -4.4054,-3.7217 -6.6074,-9.22985 -6.6074,-16.52145 0,-6.4562 1.8976,-11.5065 5.6953,-15.1524 3.7978,-3.7218 8.7735,-6.4561 14.9258,-8.2031 5.1649,-1.4431 12.1521,-2.5451 20.9629,-3.3047 8.8867,-0.7595 16.5968,-1.3292 23.1289,-1.709 z"
       id="text3460"
       inkscape:connector-curvature="0" />
  </g>
</svg>
