<?xml version="1.0" encoding="UTF-8" standalone="no"?>
<!-- Created with Inkscape (http://www.inkscape.org/) -->

<svg
   xmlns:dc="http://purl.org/dc/elements/1.1/"
   xmlns:cc="http://creativecommons.org/ns#"
   xmlns:rdf="http://www.w3.org/1999/02/22-rdf-syntax-ns#"
   xmlns:svg="http://www.w3.org/2000/svg"
   xmlns="http://www.w3.org/2000/svg"
   xmlns:sodipodi="http://sodipodi.sourceforge.net/DTD/sodipodi-0.dtd"
   xmlns:inkscape="http://www.inkscape.org/namespaces/inkscape"
   version="1.1"
   id="svg10990"
   width="1000"
   height="1250"
   viewBox="0 0 1000 1250"
   sodipodi:docname="Esposo - Esposa.svg"
   inkscape:version="0.92.4 (5da689c313, 2019-01-14)">
  <metadata
     id="metadata10996">
    <rdf:RDF>
      <cc:Work
         rdf:about="">
        <dc:format>image/svg+xml</dc:format>
        <dc:type
           rdf:resource="http://purl.org/dc/dcmitype/StillImage" />
        <dc:title></dc:title>
      </cc:Work>
    </rdf:RDF>
  </metadata>
  <defs
     id="defs10994" />
  <sodipodi:namedview
     pagecolor="#ffffff"
     bordercolor="#666666"
     borderopacity="1"
     objecttolerance="10"
     gridtolerance="10"
     guidetolerance="10"
     inkscape:pageopacity="0"
     inkscape:pageshadow="2"
     inkscape:window-width="681"
     inkscape:window-height="706"
     id="namedview10992"
     showgrid="false"
     showguides="false"
     inkscape:zoom="1.4142136"
     inkscape:cx="243.73682"
     inkscape:cy="724.23239"
     inkscape:window-x="-7"
     inkscape:window-y="0"
     inkscape:window-maximized="0"
     inkscape:current-layer="svg10990" />
  <path
     style="color:#000000;font-style:normal;font-variant:normal;font-weight:normal;font-stretch:normal;font-size:medium;line-height:normal;font-family:sans-serif;font-variant-ligatures:normal;font-variant-position:normal;font-variant-caps:normal;font-variant-numeric:normal;font-variant-alternates:normal;font-feature-settings:normal;text-indent:0;text-align:start;text-decoration:none;text-decoration-line:none;text-decoration-style:solid;text-decoration-color:#000000;letter-spacing:normal;word-spacing:normal;text-transform:none;writing-mode:lr-tb;direction:ltr;text-orientation:mixed;dominant-baseline:auto;baseline-shift:baseline;text-anchor:start;white-space:normal;shape-padding:0;clip-rule:nonzero;display:inline;overflow:visible;visibility:visible;opacity:1;isolation:auto;mix-blend-mode:normal;color-interpolation:sRGB;color-interpolation-filters:linearRGB;solid-color:#000000;solid-opacity:1;vector-effect:none;fill:#000000;fill-opacity:1;fill-rule:nonzero;stroke:none;stroke-width:15.43261147;stroke-linecap:butt;stroke-linejoin:miter;stroke-miterlimit:4;stroke-dasharray:none;stroke-dashoffset:0;stroke-opacity:1;color-rendering:auto;image-rendering:auto;shape-rendering:auto;text-rendering:auto;enable-background:accumulate"
     d="m 701.7207,710.22482 c -7.29305,0.43428 -15.83752,3.36584 -24.91602,10.19922 l 9.28125,12.33008 c 11.62275,-8.74843 17.86644,-7.94245 21.87891,-6.45117 4.01247,1.49128 5.82422,4.22461 5.82422,4.22461 l 0.14453,0.22461 0.16211,0.21289 c 3.69844,4.8933 4.56401,8.67169 4.43555,12.10352 -0.12847,3.43182 -1.46542,6.77437 -3.48243,9.85932 -4.03402,6.17 -10.25,10.3438 -10.25,10.3438 l -19.91406,12.8516 23.66211,1.3359 c 8.74316,0.4936 11.60512,3.6531 13.51367,6.6836 1.90855,3.0305 2.08985,5.6914 2.08985,5.6914 0.27387,4.6783 -5.49691,15.0255 -12.63477,23.041 -6.86721,7.7116 -13.5968,13.2208 -14.12109,13.6484 -5.54157,2.9792 -9.48394,6.2381 -11.62891,10.6973 -2.2771,4.7339 -1.3368,10.3174 0.63086,13.7071 3.93531,6.7792 10.20898,9.1601 10.20898,9.1601 l 1.41993,0.7051 1.58007,0.088 c 5.05766,0.2855 9.69025,3.4079 10.37305,3.8769 11.52245,15.0257 27.38281,32.0703 27.38281,32.0703 l 0.0391,0.043 0.0391,0.041 c 0,0 7.54297,7.87 17.88281,16.9551 10.33984,9.0851 23.31222,19.4934 35.90235,25.043 l 6.2246,-14.1211 c -9.43048,-4.1569 -22.12116,-13.8868 -31.93945,-22.5137 -9.7722,-8.5863 -16.81843,-15.9289 -16.88476,-15.998 -0.0603,-0.065 -16.52081,-17.8011 -27.24415,-31.9629 l -0.59765,-0.791 -0.7793,-0.6133 c 0,0 -7.00444,-5.7799 -17.13476,-7.1426 -0.68099,-0.4974 -2.11017,-1.5717 -2.77735,-2.2988 0.43014,-0.5424 1.64935,-1.8891 5.32422,-3.7735 l 0.70696,-0.3613 0.61719,-0.5 c 0,0 8.19014,-6.5893 16.30078,-15.6973 8.11064,-9.1079 17.31879,-20.4835 16.51563,-34.2031 v 0 c 0,0 -0.35901,-6.5376 -4.4375,-13.0137 -2.2429,-3.5613 -5.8948,-7.1413 -10.85352,-9.7968 1.26044,-1.4827 2.53589,-2.9688 3.69922,-4.7481 3.09703,-4.7369 5.72651,-10.7355 5.98828,-17.7285 0.25817,-6.89682 -2.02386,-14.50664 -7.35156,-21.68164 -0.15056,-0.22927 -4.55661,-6.89037 -13.25977,-10.125 -3.31997,-1.23391 -7.24526,-1.87385 -11.62109,-1.61329 z"
     id="path11015"
     inkscape:connector-curvature="0" />
  <path
     style="color:#000000;font-style:normal;font-variant:normal;font-weight:normal;font-stretch:normal;font-size:medium;line-height:normal;font-family:sans-serif;font-variant-ligatures:normal;font-variant-position:normal;font-variant-caps:normal;font-variant-numeric:normal;font-variant-alternates:normal;font-feature-settings:normal;text-indent:0;text-align:start;text-decoration:none;text-decoration-line:none;text-decoration-style:solid;text-decoration-color:#000000;letter-spacing:normal;word-spacing:normal;text-transform:none;writing-mode:lr-tb;direction:ltr;text-orientation:mixed;dominant-baseline:auto;baseline-shift:baseline;text-anchor:start;white-space:normal;shape-padding:0;clip-rule:nonzero;display:inline;overflow:visible;visibility:visible;opacity:1;isolation:auto;mix-blend-mode:normal;color-interpolation:sRGB;color-interpolation-filters:linearRGB;solid-color:#000000;solid-opacity:1;vector-effect:none;fill:#000000;fill-opacity:1;fill-rule:nonzero;stroke:none;stroke-width:15.43261147;stroke-linecap:butt;stroke-linejoin:miter;stroke-miterlimit:4;stroke-dasharray:none;stroke-dashoffset:0;stroke-opacity:1;color-rendering:auto;image-rendering:auto;shape-rendering:auto;text-rendering:auto;enable-background:accumulate"
     d="m 592.39648,599.26584 c -0.32648,0.0139 -1.60295,0.052 -3.32031,0.4082 -1.92344,0.39893 -4.54633,1.13605 -7.93555,2.49024 -6.77845,2.70838 -16.62521,7.8759 -30.17773,17.84961 l 9.14648,12.42969 c 12.72367,-9.36373 21.49068,-13.8447 26.75781,-15.94922 2.63357,-1.05227 4.39236,-1.51167 5.34375,-1.70899 0.9514,-0.19732 0.52344,-0.13476 0.52344,-0.13476 h 0.37695 l 0.375,-0.0352 c 2.34442,-0.21999 7.13278,1.8008 11.02735,4.75586 3.89456,2.95506 6.58008,6.02148 6.58008,6.02148 l 4.92187,5.66016 5.79883,-4.75977 c 6.07452,-4.98655 17.97266,-5.05468 17.97266,-5.05468 l 2.11132,0.11914 1.875,-0.97266 c 11.72308,-6.0763 16.65522,-3.43291 20.79688,-0.0566 4.14166,3.37627 6.17773,8.30469 6.17773,8.30469 l 0.32422,0.84765 0.50977,0.75 c 1.41652,2.08285 1.58817,4.16469 0.50195,7.80469 -1.08622,3.64001 -3.70814,8.16588 -6.85156,12.3125 -6.28685,8.29326 -14.16407,14.92578 -14.16407,14.92578 l 8.78907,12.61524 c 21.08683,-12.13631 30.48155,-9.23218 35.90039,-5.41992 5.41884,3.81225 7.26562,10.11132 7.26562,10.11132 l 0.24024,0.91602 0.45508,0.83008 c 1.30238,2.38116 1.23659,4.72023 -0.41407,8.58203 -1.65065,3.8618 -5.0702,8.48163 -8.99023,12.63086 -7.84006,8.29846 -17.18164,14.65234 -17.18164,14.65234 l 8.625,12.79688 c 0,0 10.45501,-6.9883 19.77344,-16.85157 4.65921,-4.93163 9.15883,-10.59728 11.96484,-17.16211 2.80601,-6.56482 3.73337,-14.79324 -0.23828,-22.05468 l 0.69531,1.74804 c 0,0 -2.79451,-11.41992 -13.31641,-18.82226 -5.73864,-4.03724 -13.72854,-6.28739 -23.65234,-5.35938 2.39228,-3.71954 4.57596,-7.64465 5.88672,-12.03711 1.93106,-6.47117 1.91703,-14.3615 -2.52734,-20.89648 l 0.83203,1.59766 c 0,0 -3.0294,-8.40537 -10.85547,-14.78516 -7.47281,-6.09181 -20.5411,-9.46817 -35.5332,-2.60352 -3.3672,-0.11574 -12.05292,0.13555 -20.92774,4.81446 -1.2654,-1.15297 -2.36544,-2.24447 -4.01758,-3.49805 -5.21952,-3.96039 -12.39989,-8.52045 -21.44531,-7.8125 z"
     id="path11017"
     inkscape:connector-curvature="0" />
  <path
     style="color:#000000;font-style:normal;font-variant:normal;font-weight:normal;font-stretch:normal;font-size:medium;line-height:normal;font-family:sans-serif;font-variant-ligatures:normal;font-variant-position:normal;font-variant-caps:normal;font-variant-numeric:normal;font-variant-alternates:normal;font-feature-settings:normal;text-indent:0;text-align:start;text-decoration:none;text-decoration-line:none;text-decoration-style:solid;text-decoration-color:#000000;letter-spacing:normal;word-spacing:normal;text-transform:none;writing-mode:lr-tb;direction:ltr;text-orientation:mixed;dominant-baseline:auto;baseline-shift:baseline;text-anchor:start;white-space:normal;shape-padding:0;clip-rule:nonzero;display:inline;overflow:visible;visibility:visible;opacity:1;isolation:auto;mix-blend-mode:normal;color-interpolation:sRGB;color-interpolation-filters:linearRGB;solid-color:#000000;solid-opacity:1;vector-effect:none;fill:#000000;fill-opacity:1;fill-rule:nonzero;stroke:none;stroke-width:15.43261147;stroke-linecap:butt;stroke-linejoin:miter;stroke-miterlimit:4;stroke-dasharray:none;stroke-dashoffset:0;stroke-opacity:1;color-rendering:auto;image-rendering:auto;shape-rendering:auto;text-rendering:auto;enable-background:accumulate"
     d="m 535.9707,610.2092 c -4.23235,-0.0651 -8.67081,0.93135 -12.86914,3.50391 -2.47409,0.50443 -7.086,1.70137 -12.59766,5.94921 -6.21641,4.791 -12.53977,13.17982 -15.97461,26.26172 -3.94249,-0.43232 -9.00923,-0.82531 -14.54297,-0.73437 -10.50403,0.17262 -23.41557,1.49389 -31.8164,10.13672 -5.4217,-0.16814 -14.4085,0.84366 -21.37696,8.24219 -0.69199,0.28675 -0.82622,0.24939 -1.65429,0.71874 -2.05093,1.16249 -4.63681,3.02336 -7.25391,5.8711 -5.08436,5.53244 -10.08478,14.82816 -12.27343,29.19922 -0.11419,0.32508 -4.62006,13.11154 -11.64649,21.64844 l -0.58984,0.71874 -0.4043,0.83594 c 0,0 -2.52239,5.21755 -4.59375,11.86719 -1.08431,3.48096 -2.19368,7.36571 -2.66015,11.47656 -1.34318,-0.22803 -2.78578,-0.41665 -4.33008,-0.47656 -6.55292,-0.25424 -16.10869,2.3905 -21.04688,11.24805 -0.25338,0.391 -3.35975,5.24 -4.23633,12.3477 -0.91251,7.399 0.93018,17.7335 9.44336,26.9277 l -0.16211,-0.1797 c 0,0 3.23819,2.7787 0.76954,8.627 l 0.22656,-0.4864 c 0,0 -1.68547,3.6404 -1.2793,7.7461 0.40618,4.1058 2.80279,9.1246 7.67578,13.1973 l 0.0957,0.08 0.0977,0.076 c 0,0 6.01971,4.7119 12.68555,10.2168 6.66584,5.5049 14.43382,12.5067 15.81836,14.1933 l 11.92969,-9.791 c -3.98148,-4.8501 -11.07043,-10.6442 -17.91993,-16.3008 -6.748,-5.5728 -12.63209,-10.1767 -12.81054,-10.3164 -2.36706,-1.9783 -2.20004,-2.7254 -2.21485,-2.875 -0.001,-0.012 -0.0208,0.06 -0.0254,0.061 5.49552,-13.3492 -3.40234,-24.5527 -3.40234,-24.5527 l -0.0781,-0.092 -0.082,-0.088 c -5.61248,-6.0615 -5.92072,-10.7474 -5.45117,-14.5547 0.46955,-3.8073 1.91601,-5.9727 1.91601,-5.9727 l 0.2129,-0.3203 0.17968,-0.3398 c 1.84271,-3.4791 3.7301,-3.5609 7.06055,-3.4317 3.33045,0.1292 6.4082,1.3555 6.4082,1.3555 l 0.0176,0.01 0.0176,0.01 c 1.51019,0.6375 2.7372,1.08 4.21289,1.3554 1.47569,0.2755 3.60026,0.8038 6.625,-1.1132 3.02474,-1.9171 3.93283,-6.2851 3.67969,-8.045 -0.25314,-1.7598 -0.93945,-2.8437 -0.93945,-2.8437 l 0.56836,1.3301 c -0.58818,-1.8418 0.035,-8.43551 1.73242,-13.88479 1.59638,-5.12484 3.39194,-8.94978 3.61523,-9.42187 9.10387,-11.63337 13.61523,-25.58203 13.61523,-25.58203 l 0.22266,-0.67188 0.0957,-0.70117 c 1.73206,-12.60213 5.65264,-18.84513 8.58789,-22.03906 1.46763,-1.59697 2.72739,-2.44964 3.50196,-2.88867 0.77456,-0.43903 0.5332,-0.3125 0.5332,-0.3125 l 2.47851,-0.67383 1.58008,-2.02539 c 3.67394,-4.7124 12.96094,-3.84993 12.96094,-3.84993 l 4.90625,0.82813 2.7793,-4.12891 c 2.70692,-4.02209 12.2796,-6.77166 22.25195,-6.93554 9.97235,-0.16389 18.89453,1.5039 18.89453,1.5039 l 7.84766,1.49219 1.21875,-7.89258 c 2.20888,-14.28936 7.48416,-20.56932 11.72265,-23.83594 4.2385,-3.26661 6.96875,-3.375 6.96875,-3.375 l 2.07227,-0.19531 1.69141,-1.21094 c 3.40146,-2.43269 7.35811,-1.80759 11.87695,0.13282 4.51884,1.9404 7.97265,4.84179 7.97265,4.84179 l 10.06055,-11.70312 c 0,0 -4.92879,-4.30629 -11.94336,-7.31836 -3.50728,-1.50604 -7.94346,-2.77723 -12.65234,-2.84961 z M 386.48437,756.5569 c 0.0175,0.064 0.0171,0.1269 0.0352,0.1914 -0.0145,-0.081 -0.0326,-0.049 -0.0449,-0.1348 -0.002,-0.012 0.0113,-0.044 0.01,-0.057 z"
     id="path11019"
     inkscape:connector-curvature="0" />
  <path
     style="color:#000000;font-style:normal;font-variant:normal;font-weight:normal;font-stretch:normal;font-size:medium;line-height:normal;font-family:sans-serif;font-variant-ligatures:normal;font-variant-position:normal;font-variant-caps:normal;font-variant-numeric:normal;font-variant-alternates:normal;font-feature-settings:normal;text-indent:0;text-align:start;text-decoration:none;text-decoration-line:none;text-decoration-style:solid;text-decoration-color:#000000;letter-spacing:normal;word-spacing:normal;text-transform:none;writing-mode:lr-tb;direction:ltr;text-orientation:mixed;dominant-baseline:auto;baseline-shift:baseline;text-anchor:start;white-space:normal;shape-padding:0;clip-rule:nonzero;display:inline;overflow:visible;visibility:visible;opacity:1;isolation:auto;mix-blend-mode:normal;color-interpolation:sRGB;color-interpolation-filters:linearRGB;solid-color:#000000;solid-opacity:1;vector-effect:none;fill:#000000;fill-opacity:1;fill-rule:nonzero;stroke:none;stroke-width:15.43261147;stroke-linecap:butt;stroke-linejoin:miter;stroke-miterlimit:4;stroke-dasharray:none;stroke-dashoffset:0;stroke-opacity:1;color-rendering:auto;image-rendering:auto;shape-rendering:auto;text-rendering:auto;enable-background:accumulate"
     d="m 413.47851,839.7229 -12.07812,9.6074 c 1.90934,2.4006 1.25535,1.4267 1.1582,1.1973 -0.0971,-0.2295 0.32325,0.1243 -0.42578,2.8711 -1.49806,5.4935 -8.41395,18.7985 -28.79101,42.9921 l -0.082,0.096 -53.25977,67.625 12.12305,9.5489 53.18164,-67.5254 c 20.85931,-24.7912 28.98751,-38.6672 31.71679,-48.6758 1.3687,-5.0192 1.20342,-9.5121 -0.25195,-12.9492 -1.45537,-3.4371 -4.23869,-5.9786 -3.29102,-4.7871 z"
     id="path11023"
     inkscape:connector-curvature="0" />
  <path
     style="color:#000000;font-style:normal;font-variant:normal;font-weight:normal;font-stretch:normal;font-size:medium;line-height:normal;font-family:sans-serif;font-variant-ligatures:normal;font-variant-position:normal;font-variant-caps:normal;font-variant-numeric:normal;font-variant-alternates:normal;font-feature-settings:normal;text-indent:0;text-align:start;text-decoration:none;text-decoration-line:none;text-decoration-style:solid;text-decoration-color:#000000;letter-spacing:normal;word-spacing:normal;text-transform:none;writing-mode:lr-tb;direction:ltr;text-orientation:mixed;dominant-baseline:auto;baseline-shift:baseline;text-anchor:start;white-space:normal;shape-padding:0;clip-rule:nonzero;display:inline;overflow:visible;visibility:visible;opacity:1;isolation:auto;mix-blend-mode:normal;color-interpolation:sRGB;color-interpolation-filters:linearRGB;solid-color:#000000;solid-opacity:1;vector-effect:none;fill:#000000;fill-opacity:1;fill-rule:nonzero;stroke:none;stroke-width:15.43261147;stroke-linecap:butt;stroke-linejoin:miter;stroke-miterlimit:4;stroke-dasharray:none;stroke-dashoffset:0;stroke-opacity:1;color-rendering:auto;image-rendering:auto;shape-rendering:auto;text-rendering:auto;enable-background:accumulate"
     d="m 583.19531,929.4299 -4.32031,2.8731 c -8.51324,5.6644 -25.48047,10.9218 -25.48047,10.9218 l -0.24414,0.07 -0.23828,0.086 c -41.82632,15.1964 -61.86719,48.3594 -61.86719,48.3594 l 13.19922,7.998 c 0,0 17.35539,-28.5604 53.9375,-41.8515 l -0.48047,0.1562 c 0,0 13.48044,-3.8645 25.06836,-10.3047 3.13509,2.1245 15.01428,10.2015 32.16015,21.3672 19.25549,12.5396 40.19125,25.9068 51.25391,30.8946 l 6.34375,-14.0684 C 664.62335,982.368 642.45712,968.6157 623.35156,956.1738 604.246,943.7319 587.48632,932.3457 587.48632,932.3457 Z"
     id="path11025"
     inkscape:connector-curvature="0" />
  <path
     style="color:#000000;font-style:normal;font-variant:normal;font-weight:normal;font-stretch:normal;font-size:medium;line-height:normal;font-family:sans-serif;font-variant-ligatures:normal;font-variant-position:normal;font-variant-caps:normal;font-variant-numeric:normal;font-variant-alternates:normal;font-feature-settings:normal;text-indent:0;text-align:start;text-decoration:none;text-decoration-line:none;text-decoration-style:solid;text-decoration-color:#000000;letter-spacing:normal;word-spacing:normal;text-transform:none;writing-mode:lr-tb;direction:ltr;text-orientation:mixed;dominant-baseline:auto;baseline-shift:baseline;text-anchor:start;white-space:normal;shape-padding:0;clip-rule:nonzero;display:inline;overflow:visible;visibility:visible;opacity:1;isolation:auto;mix-blend-mode:normal;color-interpolation:sRGB;color-interpolation-filters:linearRGB;solid-color:#000000;solid-opacity:1;vector-effect:none;fill:#000000;fill-opacity:1;fill-rule:nonzero;stroke:none;stroke-width:15.43261147;stroke-linecap:butt;stroke-linejoin:miter;stroke-miterlimit:4;stroke-dasharray:none;stroke-dashoffset:0;stroke-opacity:1;color-rendering:auto;image-rendering:auto;shape-rendering:auto;text-rendering:auto;enable-background:accumulate"
     d="m 685.24804,839.0158 c -13.19359,20.9654 -39.905,44.7839 -63.1875,62.7832 -23.2825,17.9994 -43.01562,30.3946 -43.01562,30.3946 l 8.20898,13.0683 c 0,0 20.33621,-12.7695 44.2461,-31.2539 23.90988,-18.4843 51.51378,-42.4672 66.80859,-66.7715 z"
     id="path11027"
     inkscape:connector-curvature="0" />
  <path
     style="color:#000000;font-style:normal;font-variant:normal;font-weight:normal;font-stretch:normal;font-size:medium;line-height:normal;font-family:sans-serif;font-variant-ligatures:normal;font-variant-position:normal;font-variant-caps:normal;font-variant-numeric:normal;font-variant-alternates:normal;font-feature-settings:normal;text-indent:0;text-align:start;text-decoration:none;text-decoration-line:none;text-decoration-style:solid;text-decoration-color:#000000;letter-spacing:normal;word-spacing:normal;text-transform:none;writing-mode:lr-tb;direction:ltr;text-orientation:mixed;dominant-baseline:auto;baseline-shift:baseline;text-anchor:start;white-space:normal;shape-padding:0;clip-rule:nonzero;display:inline;overflow:visible;visibility:visible;opacity:1;isolation:auto;mix-blend-mode:normal;color-interpolation:sRGB;color-interpolation-filters:linearRGB;solid-color:#000000;solid-opacity:1;vector-effect:none;fill:#000000;fill-opacity:1;fill-rule:nonzero;stroke:none;stroke-width:15.43261147;stroke-linecap:butt;stroke-linejoin:miter;stroke-miterlimit:4;stroke-dasharray:none;stroke-dashoffset:0;stroke-opacity:1;color-rendering:auto;image-rendering:auto;shape-rendering:auto;text-rendering:auto;enable-background:accumulate"
     d="m 705.51562,762.8615 c -14.89412,7.4919 -22.00161,12.0273 -26.53516,16.4239 -4.53354,4.3966 -5.55909,8.0741 -6.82031,10.0058 l 12.92188,8.4375 c 2.78515,-4.2658 2.31882,-5.1097 4.64258,-7.3632 2.32375,-2.2536 8.37231,-6.4975 22.7246,-13.7169 z"
     id="path11029"
     inkscape:connector-curvature="0" />
  <path
     style="color:#000000;font-style:normal;font-variant:normal;font-weight:normal;font-stretch:normal;font-size:medium;line-height:normal;font-family:sans-serif;font-variant-ligatures:normal;font-variant-position:normal;font-variant-caps:normal;font-variant-numeric:normal;font-variant-alternates:normal;font-feature-settings:normal;text-indent:0;text-align:start;text-decoration:none;text-decoration-line:none;text-decoration-style:solid;text-decoration-color:#000000;letter-spacing:normal;word-spacing:normal;text-transform:none;writing-mode:lr-tb;direction:ltr;text-orientation:mixed;dominant-baseline:auto;baseline-shift:baseline;text-anchor:start;white-space:normal;shape-padding:0;clip-rule:nonzero;display:inline;overflow:visible;visibility:visible;opacity:1;isolation:auto;mix-blend-mode:normal;color-interpolation:sRGB;color-interpolation-filters:linearRGB;solid-color:#000000;solid-opacity:1;vector-effect:none;fill:#000000;fill-opacity:1;fill-rule:nonzero;stroke:none;stroke-width:15.43261147;stroke-linecap:butt;stroke-linejoin:miter;stroke-miterlimit:4;stroke-dasharray:none;stroke-dashoffset:0;stroke-opacity:1;color-rendering:auto;image-rendering:auto;shape-rendering:auto;text-rendering:auto;enable-background:accumulate"
     d="m 677.00976,720.27561 c -6.00292,4.2167 -9.5678,7.3138 -11.9375,9.21484 -2.36969,1.90104 -3.08651,2.41843 -5.30859,3.15625 l 4.86328,14.64648 c 4.12249,-1.36882 7.29787,-3.51642 10.10156,-5.76562 2.80369,-2.2492 5.69223,-4.78763 11.15234,-8.62305 z"
     id="path11031"
     inkscape:connector-curvature="0" />
  <path
     style="color:#000000;font-style:normal;font-variant:normal;font-weight:normal;font-stretch:normal;font-size:medium;line-height:normal;font-family:sans-serif;font-variant-ligatures:normal;font-variant-position:normal;font-variant-caps:normal;font-variant-numeric:normal;font-variant-alternates:normal;font-feature-settings:normal;text-indent:0;text-align:start;text-decoration:none;text-decoration-line:none;text-decoration-style:solid;text-decoration-color:#000000;letter-spacing:normal;word-spacing:normal;text-transform:none;writing-mode:lr-tb;direction:ltr;text-orientation:mixed;dominant-baseline:auto;baseline-shift:baseline;text-anchor:start;white-space:normal;shape-padding:0;clip-rule:nonzero;display:inline;overflow:visible;visibility:visible;opacity:1;isolation:auto;mix-blend-mode:normal;color-interpolation:sRGB;color-interpolation-filters:linearRGB;solid-color:#000000;solid-opacity:1;vector-effect:none;fill:#000000;fill-opacity:1;fill-rule:nonzero;stroke:none;stroke-width:15.43261147;stroke-linecap:butt;stroke-linejoin:miter;stroke-miterlimit:4;stroke-dasharray:none;stroke-dashoffset:0;stroke-opacity:1;color-rendering:auto;image-rendering:auto;shape-rendering:auto;text-rendering:auto;enable-background:accumulate"
     d="m 651.08789,665.25803 c -8.66415,7.17478 -14.66751,11.5905 -19.01758,14.02539 -4.35007,2.43489 -6.73682,3.00423 -9.92969,3.09961 l 0.46094,15.42578 c 5.47008,-0.16341 11.10329,-1.75472 17.00586,-5.05859 5.90256,-3.30388 12.38695,-8.20648 21.32422,-15.60743 z"
     id="path11033"
     inkscape:connector-curvature="0" />
  <path
     style="color:#000000;font-style:normal;font-variant:normal;font-weight:normal;font-stretch:normal;font-size:medium;line-height:normal;font-family:sans-serif;font-variant-ligatures:normal;font-variant-position:normal;font-variant-caps:normal;font-variant-numeric:normal;font-variant-alternates:normal;font-feature-settings:normal;text-indent:0;text-align:start;text-decoration:none;text-decoration-line:none;text-decoration-style:solid;text-decoration-color:#000000;letter-spacing:normal;word-spacing:normal;text-transform:none;writing-mode:lr-tb;direction:ltr;text-orientation:mixed;dominant-baseline:auto;baseline-shift:baseline;text-anchor:start;white-space:normal;shape-padding:0;clip-rule:nonzero;display:inline;overflow:visible;visibility:visible;opacity:1;isolation:auto;mix-blend-mode:normal;color-interpolation:sRGB;color-interpolation-filters:linearRGB;solid-color:#000000;solid-opacity:1;vector-effect:none;fill:#000000;fill-opacity:1;fill-rule:nonzero;stroke:none;stroke-width:15.43261147;stroke-linecap:butt;stroke-linejoin:miter;stroke-miterlimit:4;stroke-dasharray:none;stroke-dashoffset:0;stroke-opacity:1;color-rendering:auto;image-rendering:auto;shape-rendering:auto;text-rendering:auto;enable-background:accumulate"
     d="M 399.77734,750.10373 388.2793,760.3967 c 0,0 3.37362,3.5093 6.44531,13.4746 3.07169,9.9654 5.29462,25.7659 0.80859,48.6934 l -0.0117,0.061 -0.0117,0.062 c 0,0 -2.33068,12.9809 5.30078,25.789 l 13.25782,-7.9004 c -4.66794,-7.8343 -3.36524,-15.1718 -3.36524,-15.1718 l -0.0234,0.123 c 4.93154,-25.2045 2.615,-43.8015 -1.20703,-56.2012 -3.82202,-12.3996 -9.69531,-19.22262 -9.69531,-19.22262 z"
     id="path11035"
     inkscape:connector-curvature="0" />
  <path
     style="color:#000000;font-style:normal;font-variant:normal;font-weight:normal;font-stretch:normal;font-size:medium;line-height:normal;font-family:sans-serif;font-variant-ligatures:normal;font-variant-position:normal;font-variant-caps:normal;font-variant-numeric:normal;font-variant-alternates:normal;font-feature-settings:normal;text-indent:0;text-align:start;text-decoration:none;text-decoration-line:none;text-decoration-style:solid;text-decoration-color:#000000;letter-spacing:normal;word-spacing:normal;text-transform:none;writing-mode:lr-tb;direction:ltr;text-orientation:mixed;dominant-baseline:auto;baseline-shift:baseline;text-anchor:start;white-space:normal;shape-padding:0;clip-rule:nonzero;display:inline;overflow:visible;visibility:visible;opacity:1;isolation:auto;mix-blend-mode:normal;color-interpolation:sRGB;color-interpolation-filters:linearRGB;solid-color:#000000;solid-opacity:1;vector-effect:none;fill:#000000;fill-opacity:1;fill-rule:nonzero;stroke:none;stroke-width:15.43261147;stroke-linecap:butt;stroke-linejoin:miter;stroke-miterlimit:4;stroke-dasharray:none;stroke-dashoffset:0;stroke-opacity:1;color-rendering:auto;image-rendering:auto;shape-rendering:auto;text-rendering:auto;enable-background:accumulate"
     d="m 614.125,613.13693 c 0,0 -2.53797,1.12698 -4.73047,3.02344 -2.1925,1.89647 -4.76343,4.84098 -7.14258,9.1875 l -0.20508,0.3711 -0.16016,0.39062 c 0,0 -1.41396,3.3967 -3.77148,7.10742 -2.35752,3.71072 -5.91236,7.00159 -7.07617,7.39258 l -3.76563,1.26367 -1.1582,3.79883 c 0,0 -3.28752,10.568 -9.33984,20.17578 -3.02617,4.80389 -6.72171,9.20871 -10.4375,11.82617 -3.7158,2.61746 -6.98224,3.62978 -11.28711,2.74805 l -3.09571,15.11914 c 8.76779,1.79583 17.0354,-0.86053 23.26954,-5.25195 6.23413,-4.39142 10.90333,-10.33478 14.60742,-16.21485 5.82099,-9.24055 8.64,-17.03424 9.86914,-20.66992 5.42534,-3.06828 8.84751,-7.83047 11.43945,-11.91015 2.7824,-4.37948 4.31765,-7.91673 4.69922,-8.81446 1.53009,-2.76977 2.88811,-4.18661 3.65234,-4.84765 0.77344,-0.66901 0.2168,-0.3086 0.2168,-0.3086 z"
     id="path11037"
     inkscape:connector-curvature="0" />
  <path
     style="color:#000000;font-style:normal;font-variant:normal;font-weight:normal;font-stretch:normal;font-size:medium;line-height:normal;font-family:sans-serif;font-variant-ligatures:normal;font-variant-position:normal;font-variant-caps:normal;font-variant-numeric:normal;font-variant-alternates:normal;font-feature-settings:normal;text-indent:0;text-align:start;text-decoration:none;text-decoration-line:none;text-decoration-style:solid;text-decoration-color:#000000;letter-spacing:normal;word-spacing:normal;text-transform:none;writing-mode:lr-tb;direction:ltr;text-orientation:mixed;dominant-baseline:auto;baseline-shift:baseline;text-anchor:start;white-space:normal;shape-padding:0;clip-rule:nonzero;display:inline;overflow:visible;visibility:visible;opacity:1;isolation:auto;mix-blend-mode:normal;color-interpolation:sRGB;color-interpolation-filters:linearRGB;solid-color:#000000;solid-opacity:1;vector-effect:none;fill:#000000;fill-opacity:1;fill-rule:nonzero;stroke:none;stroke-width:15.43261147;stroke-linecap:butt;stroke-linejoin:miter;stroke-miterlimit:4;stroke-dasharray:none;stroke-dashoffset:0;stroke-opacity:1;color-rendering:auto;image-rendering:auto;shape-rendering:auto;text-rendering:auto;enable-background:accumulate"
     d="m 550.1914,620.66232 c -10.21064,9.80445 -9.71484,23.85352 -9.71484,23.85352 l -0.0234,1.21094 0.34961,1.1582 c 0.63851,2.12131 0.81842,6.77754 0.52734,10.53906 -0.29098,3.76043 -0.83171,6.56867 -0.83203,6.57032 0,0 0,0.002 0,0.002 -3.55104,9.14391 -2.182,17.55282 1.01367,22.71484 3.40249,5.4961 8.37891,8.08985 8.37891,8.08985 l 7.22461,-13.63868 c 0,0 -1.35868,-0.76216 -2.48047,-2.57421 -1.12179,-1.81206 -2.28381,-3.93435 0.45508,-9.91602 l 0.38477,-0.8418 0.17578,-0.9082 c 0,0 0.70542,-3.64173 1.0664,-8.30664 0.32157,-4.15557 0.46585,-9.17476 -0.71679,-14.29883 0.0902,-0.80771 1.02857,-8.8244 4.88085,-12.52344 z"
     id="path11039"
     inkscape:connector-curvature="0" />
  <path
     style="color:#000000;font-style:normal;font-variant:normal;font-weight:normal;font-stretch:normal;font-size:medium;line-height:normal;font-family:sans-serif;font-variant-ligatures:normal;font-variant-position:normal;font-variant-caps:normal;font-variant-numeric:normal;font-variant-alternates:normal;font-feature-settings:normal;text-indent:0;text-align:start;text-decoration:none;text-decoration-line:none;text-decoration-style:solid;text-decoration-color:#000000;letter-spacing:normal;word-spacing:normal;text-transform:none;writing-mode:lr-tb;direction:ltr;text-orientation:mixed;dominant-baseline:auto;baseline-shift:baseline;text-anchor:start;white-space:normal;shape-padding:0;clip-rule:nonzero;display:inline;overflow:visible;visibility:visible;opacity:1;isolation:auto;mix-blend-mode:normal;color-interpolation:sRGB;color-interpolation-filters:linearRGB;solid-color:#000000;solid-opacity:1;vector-effect:none;fill:#000000;fill-opacity:1;fill-rule:nonzero;stroke:none;stroke-width:15.43261147;stroke-linecap:butt;stroke-linejoin:miter;stroke-miterlimit:4;stroke-dasharray:none;stroke-dashoffset:0;stroke-opacity:1;color-rendering:auto;image-rendering:auto;shape-rendering:auto;text-rendering:auto;enable-background:accumulate"
     d="m 604.91796,632.24631 -15.43359,0.0352 c 0.003,1.39237 -0.70035,5.04137 -1.53516,7.88867 -0.83481,2.8473 -1.65429,4.98242 -1.65429,4.98242 l 14.40234,5.54297 c 0,0 1.04116,-2.69814 2.0625,-6.18164 1.02134,-3.4835 2.16911,-7.66435 2.1582,-12.26758 z"
     id="path11041"
     inkscape:connector-curvature="0" />
  <path
     style="color:#000000;font-style:normal;font-variant:normal;font-weight:normal;font-stretch:normal;font-size:medium;line-height:normal;font-family:sans-serif;font-variant-ligatures:normal;font-variant-position:normal;font-variant-caps:normal;font-variant-numeric:normal;font-variant-alternates:normal;font-feature-settings:normal;text-indent:0;text-align:start;text-decoration:none;text-decoration-line:none;text-decoration-style:solid;text-decoration-color:#000000;letter-spacing:normal;word-spacing:normal;text-transform:none;writing-mode:lr-tb;direction:ltr;text-orientation:mixed;dominant-baseline:auto;baseline-shift:baseline;text-anchor:start;white-space:normal;shape-padding:0;clip-rule:nonzero;display:inline;overflow:visible;visibility:visible;opacity:1;isolation:auto;mix-blend-mode:normal;color-interpolation:sRGB;color-interpolation-filters:linearRGB;solid-color:#000000;solid-opacity:1;vector-effect:none;fill:#000000;fill-opacity:1;fill-rule:nonzero;stroke:none;stroke-width:15.43261147;stroke-linecap:butt;stroke-linejoin:miter;stroke-miterlimit:4;stroke-dasharray:none;stroke-dashoffset:0;stroke-opacity:1;color-rendering:auto;image-rendering:auto;shape-rendering:auto;text-rendering:auto;enable-background:accumulate"
     d="m 492.99414,653.10764 -7.81641,41.29297 0.0957,-0.43946 c 0,0 -4.5025,18.57112 2.33789,44.19532 l -0.11914,-0.50782 c 0,0 3.28116,18.83685 2.91016,25.40825 l -0.0195,0.3808 0.0156,0.3789 c 0,0 -0.18675,10.2278 7.29492,18.1739 3.74084,3.973 9.95723,6.9507 17.15626,6.6503 7.19902,-0.3003 15.20293,-3.2646 24.96093,-9.4609 l -8.27343,-13.0293 c -8.34655,5.3001 -14.09075,6.9371 -17.33008,7.0723 -3.23934,0.1351 -4.15265,-0.618 -5.27735,-1.8125 -2.24939,-2.389 -3.11328,-8.2442 -3.11328,-8.2442 l -0.006,0.7598 c 0.66098,-11.7074 -3.17187,-29.24024 -3.17187,-29.24024 l -0.0508,-0.25586 -0.0664,-0.2539 C 496.55445,711.82396 500.244,697.71311 500.244,697.71311 l 0.0547,-0.21875 7.85938,-41.51563 z"
     id="path11043"
     inkscape:connector-curvature="0" />
  <path
     style="color:#000000;font-style:normal;font-variant:normal;font-weight:normal;font-stretch:normal;font-size:medium;line-height:normal;font-family:sans-serif;font-variant-ligatures:normal;font-variant-position:normal;font-variant-caps:normal;font-variant-numeric:normal;font-variant-alternates:normal;font-feature-settings:normal;text-indent:0;text-align:start;text-decoration:none;text-decoration-line:none;text-decoration-style:solid;text-decoration-color:#000000;letter-spacing:normal;word-spacing:normal;text-transform:none;writing-mode:lr-tb;direction:ltr;text-orientation:mixed;dominant-baseline:auto;baseline-shift:baseline;text-anchor:start;white-space:normal;shape-padding:0;clip-rule:nonzero;display:inline;overflow:visible;visibility:visible;opacity:1;isolation:auto;mix-blend-mode:normal;color-interpolation:sRGB;color-interpolation-filters:linearRGB;solid-color:#000000;solid-opacity:1;vector-effect:none;fill:#000000;fill-opacity:1;fill-rule:nonzero;stroke:none;stroke-width:15.43261147;stroke-linecap:butt;stroke-linejoin:miter;stroke-miterlimit:4;stroke-dasharray:none;stroke-dashoffset:0;stroke-opacity:1;color-rendering:auto;image-rendering:auto;shape-rendering:auto;text-rendering:auto;enable-background:accumulate"
     d="m 546.27734,685.27561 c -8.59836,22.95834 -3.38728,46.48737 -2.94922,48.375 2.97205,24.08909 -9.89177,31.28919 -11.80664,32.51169 l 8.30469,13.0078 c 3.6053,-2.3017 22.61613,-16.979 18.8125,-47.49996 l -0.0469,-0.38282 -0.0859,-0.37695 c 0,0 -4.60021,-22.00502 2.22266,-40.22265 z"
     id="path11045"
     inkscape:connector-curvature="0" />
  <path
     style="color:#000000;font-style:normal;font-variant:normal;font-weight:normal;font-stretch:normal;font-size:medium;line-height:normal;font-family:sans-serif;font-variant-ligatures:normal;font-variant-position:normal;font-variant-caps:normal;font-variant-numeric:normal;font-variant-alternates:normal;font-feature-settings:normal;text-indent:0;text-align:start;text-decoration:none;text-decoration-line:none;text-decoration-style:solid;text-decoration-color:#000000;letter-spacing:normal;word-spacing:normal;text-transform:none;writing-mode:lr-tb;direction:ltr;text-orientation:mixed;dominant-baseline:auto;baseline-shift:baseline;text-anchor:start;white-space:normal;shape-padding:0;clip-rule:nonzero;display:inline;overflow:visible;visibility:visible;opacity:1;isolation:auto;mix-blend-mode:normal;color-interpolation:sRGB;color-interpolation-filters:linearRGB;solid-color:#000000;solid-opacity:1;vector-effect:none;fill:#000000;fill-opacity:1;fill-rule:nonzero;stroke:none;stroke-width:15.43261147;stroke-linecap:butt;stroke-linejoin:miter;stroke-miterlimit:4;stroke-dasharray:none;stroke-dashoffset:0;stroke-opacity:1;color-rendering:auto;image-rendering:auto;shape-rendering:auto;text-rendering:auto;enable-background:accumulate"
     d="m 447.76953,656.54123 c 0,0 -1.75582,1.10008 -3.17383,2.54883 -1.41802,1.44875 -3.06091,3.56779 -4.57031,6.5 -3.0185,5.86381 -5.48485,14.89009 -5.3086,28.55859 2e-5,10e-4 -2e-5,0.002 0,0.004 -0.002,0.27917 -0.31432,36.0805 1.10156,56.21875 v 0.023 l 0.002,0.023 c 0,0 1.21257,15.909 1.89648,28.502 l -0.002,-0.066 1.43945,31.6328 0.0937,0.5137 c 1.80037,9.8564 8.78708,18.5035 18.54102,23.2402 4.87697,2.3683 10.72778,3.5746 16.71289,2.3086 5.98511,-1.2661 11.7146,-5.035 16.25,-10.9238 l -12.22656,-9.418 c -2.76984,3.5964 -5.11938,4.7985 -7.2168,5.2422 -2.09742,0.4437 -4.33242,0.098 -6.7793,-1.0899 -4.80666,-2.3342 -9.29237,-8.6048 -10.01758,-11.9238 l -1.38281,-30.3184 -0.002,-0.035 c -0.69814,-12.8548 -1.91027,-28.74326 -1.91406,-28.79294 -1.31672,-18.72775 -1.06446,-55.17578 -1.06446,-55.17578 v -0.0801 -0.0801 c -0.15181,-11.73745 1.95751,-18.11263 3.59766,-21.29883 0.82007,-1.59309 1.52732,-2.41232 1.87695,-2.76953 0.34964,-0.35721 -0.2207,0.0684 -0.2207,0.0684 z"
     id="path11047"
     inkscape:connector-curvature="0" />
  <path
     style="color:#000000;font-style:normal;font-variant:normal;font-weight:normal;font-stretch:normal;font-size:medium;line-height:normal;font-family:sans-serif;font-variant-ligatures:normal;font-variant-position:normal;font-variant-caps:normal;font-variant-numeric:normal;font-variant-alternates:normal;font-feature-settings:normal;text-indent:0;text-align:start;text-decoration:none;text-decoration-line:none;text-decoration-style:solid;text-decoration-color:#000000;letter-spacing:normal;word-spacing:normal;text-transform:none;writing-mode:lr-tb;direction:ltr;text-orientation:mixed;dominant-baseline:auto;baseline-shift:baseline;text-anchor:start;white-space:normal;shape-padding:0;clip-rule:nonzero;display:inline;overflow:visible;visibility:visible;opacity:1;isolation:auto;mix-blend-mode:normal;color-interpolation:sRGB;color-interpolation-filters:linearRGB;solid-color:#000000;solid-opacity:1;vector-effect:none;fill:#000000;fill-opacity:1;fill-rule:nonzero;stroke:none;stroke-width:15.43261147;stroke-linecap:butt;stroke-linejoin:miter;stroke-miterlimit:4;stroke-dasharray:none;stroke-dashoffset:0;stroke-opacity:1;color-rendering:auto;image-rendering:auto;shape-rendering:auto;text-rendering:auto;enable-background:accumulate"
     d="m 505.79882,762.883 -15.38476,1.2168 c 2.43494,30.8052 -5.72519,44.052 -11.9043,52.127 l 12.25781,9.3789 c 7.53503,-9.8469 17.72549,-28.6371 15.03125,-62.7227 z"
     id="path11049"
     inkscape:connector-curvature="0" />
  <path
     style="color:#000000;font-style:normal;font-variant:normal;font-weight:normal;font-stretch:normal;font-size:medium;line-height:normal;font-family:sans-serif;font-variant-ligatures:normal;font-variant-position:normal;font-variant-caps:normal;font-variant-numeric:normal;font-variant-alternates:normal;font-feature-settings:normal;text-indent:0;text-align:start;text-decoration:none;text-decoration-line:none;text-decoration-style:solid;text-decoration-color:#000000;letter-spacing:normal;word-spacing:normal;text-transform:none;writing-mode:lr-tb;direction:ltr;text-orientation:mixed;dominant-baseline:auto;baseline-shift:baseline;text-anchor:start;white-space:normal;shape-padding:0;clip-rule:nonzero;display:inline;overflow:visible;visibility:visible;opacity:1;isolation:auto;mix-blend-mode:normal;color-interpolation:sRGB;color-interpolation-filters:linearRGB;solid-color:#000000;solid-opacity:1;vector-effect:none;fill:#000000;fill-opacity:1;fill-rule:nonzero;stroke:none;stroke-width:15.43261147;stroke-linecap:butt;stroke-linejoin:miter;stroke-miterlimit:4;stroke-dasharray:none;stroke-dashoffset:0;stroke-opacity:1;color-rendering:auto;image-rendering:auto;shape-rendering:auto;text-rendering:auto;enable-background:accumulate"
     d="m 405.57031,699.56272 c 0,0 -6.41881,24.32432 -1.53125,70.09568 -0.008,0.741 -0.23857,23.6852 4.50977,39.6992 l 0.46484,1.5684 1.0625,1.2461 c 0,0 4.51874,5.4612 12.05273,8.6543 7.534,3.1931 19.42613,3.4385 29.71875,-5.3418 l -10.01562,-11.7422 c -6.37902,5.4417 -9.93481,4.4622 -13.67969,2.875 -2.48043,-1.0513 -4.09424,-2.3861 -5.14453,-3.3574 -3.09458,-12.1333 -3.54883,-34.084 -3.54883,-34.084 l -0.002,-0.4063 -0.043,-0.4023 c -4.75764,-44.09792 1.04687,-64.75195 1.04687,-64.75195 z"
     id="path11051"
     inkscape:connector-curvature="0" />
  <path
     style="color:#000000;font-style:normal;font-variant:normal;font-weight:normal;font-stretch:normal;font-size:medium;line-height:normal;font-family:sans-serif;font-variant-ligatures:normal;font-variant-position:normal;font-variant-caps:normal;font-variant-numeric:normal;font-variant-alternates:normal;font-feature-settings:normal;text-indent:0;text-align:start;text-decoration:none;text-decoration-line:none;text-decoration-style:solid;text-decoration-color:#000000;letter-spacing:normal;word-spacing:normal;text-transform:none;writing-mode:lr-tb;direction:ltr;text-orientation:mixed;dominant-baseline:auto;baseline-shift:baseline;text-anchor:start;white-space:normal;shape-padding:0;clip-rule:nonzero;display:inline;overflow:visible;visibility:visible;opacity:1;isolation:auto;mix-blend-mode:normal;color-interpolation:sRGB;color-interpolation-filters:linearRGB;solid-color:#000000;solid-opacity:1;vector-effect:none;fill:#000000;fill-opacity:1;fill-rule:nonzero;stroke:none;stroke-width:10.10000229;stroke-linecap:butt;stroke-linejoin:miter;stroke-miterlimit:4;stroke-dasharray:none;stroke-dashoffset:0;stroke-opacity:1;color-rendering:auto;image-rendering:auto;shape-rendering:auto;text-rendering:auto;enable-background:accumulate"
     d="m 434.43554,774.6701 c -2.8908,-0.127 -5.67332,0.2055 -8.11914,0.6016 -4.89164,0.7922 -8.69531,2.1582 -8.69531,2.1582 l -3.46093,1.2383 0.11328,3.6758 c 0.29458,9.3984 2.04195,16.629 4.91015,21.9082 2.8682,5.2792 7.39547,9.0996 12.82812,8.8242 5.43266,-0.2754 9.5394,-4.5769 11.75586,-10.1074 2.21647,-5.5306 3.06386,-12.8411 2.20704,-22.0918 l -0.25782,-2.795 -2.50976,-1.2558 c -2.88177,-1.4423 -5.88069,-2.0292 -8.77149,-2.1563 z m -0.50781,10.2168 c 0.86906,0.042 1.40854,0.3059 2.1582,0.4414 0.22212,6.2602 -0.54164,11.0091 -1.69336,13.8828 -1.3637,3.4028 -2.65547,3.7654 -2.89257,3.7774 -0.23711,0.012 -1.65063,-0.2589 -3.44336,-3.5586 -1.47932,-2.7228 -2.80439,-7.2689 -3.38477,-13.3867 1.21939,-0.3338 1.41369,-0.5018 3.25977,-0.8008 1.9568,-0.3169 4.07951,-0.447 5.99609,-0.3555 z"
     id="path11059"
     inkscape:connector-curvature="0" />
  <path
     style="color:#000000;font-style:normal;font-variant:normal;font-weight:normal;font-stretch:normal;font-size:medium;line-height:normal;font-family:sans-serif;font-variant-ligatures:normal;font-variant-position:normal;font-variant-caps:normal;font-variant-numeric:normal;font-variant-alternates:normal;font-feature-settings:normal;text-indent:0;text-align:start;text-decoration:none;text-decoration-line:none;text-decoration-style:solid;text-decoration-color:#000000;letter-spacing:normal;word-spacing:normal;text-transform:none;writing-mode:lr-tb;direction:ltr;text-orientation:mixed;dominant-baseline:auto;baseline-shift:baseline;text-anchor:start;white-space:normal;shape-padding:0;clip-rule:nonzero;display:inline;overflow:visible;visibility:visible;opacity:1;isolation:auto;mix-blend-mode:normal;color-interpolation:sRGB;color-interpolation-filters:linearRGB;solid-color:#000000;solid-opacity:1;vector-effect:none;fill:#000000;fill-opacity:1;fill-rule:nonzero;stroke:none;stroke-width:10.10000229;stroke-linecap:butt;stroke-linejoin:miter;stroke-miterlimit:4;stroke-dasharray:none;stroke-dashoffset:0;stroke-opacity:1;color-rendering:auto;image-rendering:auto;shape-rendering:auto;text-rendering:auto;enable-background:accumulate"
     d="m 468.08398,781.26 c -4.32034,0.1338 -8.03593,1.2877 -10.92969,2.8691 -2.89375,1.5815 -5.00914,3.4829 -6.44336,5.0371 -0.7171,0.7771 -1.26283,1.4697 -1.66015,2.0176 -0.19866,0.274 -0.3587,0.5088 -0.4961,0.7246 -0.0687,0.108 -0.12853,0.206 -0.20507,0.3399 -0.0383,0.067 -0.0788,0.1372 -0.14649,0.2715 -0.0677,0.1342 -0.14896,-0.2035 -0.45117,1.2949 l -0.13867,0.6875 0.0547,0.6992 c 0.85104,11.0449 3.25688,18.597 7.49024,23.5176 4.23336,4.9205 11.11433,6.2013 16.28515,3.8613 10.34166,-4.68 16.39698,-18.5568 14.03516,-34.252 l -0.40039,-2.6699 -2.44141,-1.1484 c -5.30712,-2.4975 -10.23239,-3.3839 -14.55273,-3.25 z m 0.30469,9.9258 c 2.00961,-0.063 4.50882,0.5009 7.3125,1.5156 0.50874,10.6293 -4.94637,19.103 -8.42188,20.6758 -1.89297,0.8566 -2.53688,0.9948 -4.46484,-1.2461 -1.79705,-2.0888 -3.94349,-7.2729 -4.84766,-15.9121 0.0705,-0.08 0.0894,-0.118 0.16797,-0.2032 0.84815,-0.9191 2.16097,-2.0931 3.86328,-3.0234 1.70232,-0.9303 3.74951,-1.7243 6.39063,-1.8066 z"
     id="path11070"
     inkscape:connector-curvature="0" />
  <path
     style="color:#000000;font-style:normal;font-variant:normal;font-weight:normal;font-stretch:normal;font-size:medium;line-height:normal;font-family:sans-serif;font-variant-ligatures:normal;font-variant-position:normal;font-variant-caps:normal;font-variant-numeric:normal;font-variant-alternates:normal;font-feature-settings:normal;text-indent:0;text-align:start;text-decoration:none;text-decoration-line:none;text-decoration-style:solid;text-decoration-color:#000000;letter-spacing:normal;word-spacing:normal;text-transform:none;writing-mode:lr-tb;direction:ltr;text-orientation:mixed;dominant-baseline:auto;baseline-shift:baseline;text-anchor:start;white-space:normal;shape-padding:0;clip-rule:nonzero;display:inline;overflow:visible;visibility:visible;opacity:1;isolation:auto;mix-blend-mode:normal;color-interpolation:sRGB;color-interpolation-filters:linearRGB;solid-color:#000000;solid-opacity:1;vector-effect:none;fill:#000000;fill-opacity:1;fill-rule:nonzero;stroke:none;stroke-width:10.10000229;stroke-linecap:butt;stroke-linejoin:miter;stroke-miterlimit:4;stroke-dasharray:none;stroke-dashoffset:0;stroke-opacity:1;color-rendering:auto;image-rendering:auto;shape-rendering:auto;text-rendering:auto;enable-background:accumulate"
     d="m 524.88085,726.75803 c -8.23214,-0.46325 -14.72235,2.08948 -19.08203,5.32422 -5.81289,4.31297 -8.3125,9.8457 -8.3125,9.8457 l -0.4707,1.03711 0.0215,1.14062 c 0.16993,9.04272 2.70155,16.14932 7.00976,20.89842 4.30821,4.7492 10.59675,6.8585 16.41797,5.5332 5.82122,-1.3252 10.86664,-5.7777 13.92187,-12.2929 3.05524,-6.5153 4.27182,-15.13351 2.88282,-25.74028 l -0.42969,-3.26562 -3.16016,-0.92578 c -3.11685,-0.91148 -6.05478,-1.40027 -8.79883,-1.55469 z m -0.64257,9.99023 c 0.97124,0.0716 2.18873,0.42087 3.27929,0.625 0.48591,7.28477 -0.53445,12.86948 -2.27539,16.58204 -2.02201,4.3119 -4.72695,6.2105 -7.01953,6.7324 -2.29258,0.5219 -4.48011,-0.027 -6.69531,-2.4687 -2.07353,-2.2858 -3.93243,-6.5686 -4.28125,-13.03714 0.55392,-0.98848 1.74958,-2.8954 4.57031,-4.98828 2.7729,-2.0574 6.55296,-3.87786 12.42188,-3.44532 z"
     id="path11072"
     inkscape:connector-curvature="0" />
  <path
     style="color:#000000;font-style:normal;font-variant:normal;font-weight:normal;font-stretch:normal;font-size:medium;line-height:normal;font-family:sans-serif;font-variant-ligatures:normal;font-variant-position:normal;font-variant-caps:normal;font-variant-numeric:normal;font-variant-alternates:normal;font-feature-settings:normal;text-indent:0;text-align:start;text-decoration:none;text-decoration-line:none;text-decoration-style:solid;text-decoration-color:#000000;letter-spacing:normal;word-spacing:normal;text-transform:none;writing-mode:lr-tb;direction:ltr;text-orientation:mixed;dominant-baseline:auto;baseline-shift:baseline;text-anchor:start;white-space:normal;shape-padding:0;clip-rule:nonzero;display:inline;overflow:visible;visibility:visible;opacity:1;isolation:auto;mix-blend-mode:normal;color-interpolation:sRGB;color-interpolation-filters:linearRGB;solid-color:#000000;solid-opacity:1;vector-effect:none;fill:#000000;fill-opacity:1;fill-rule:nonzero;stroke:none;stroke-width:10.10000229;stroke-linecap:butt;stroke-linejoin:miter;stroke-miterlimit:4;stroke-dasharray:none;stroke-dashoffset:0;stroke-opacity:1;color-rendering:auto;image-rendering:auto;shape-rendering:auto;text-rendering:auto;enable-background:accumulate"
     d="m 562.6289,645.34201 c -2.4095,-0.12687 -4.71997,0.3247 -6.68359,1.28907 -3.92725,1.92872 -6.4523,5.18053 -8.34766,8.36523 -3.7907,6.3694 -5.23828,13.36133 -5.23828,13.36133 l -0.80664,3.6582 3.26758,1.83398 c 4.67605,2.62352 9.978,2.19787 15.0332,0.72657 5.0552,-1.47131 10.03444,-4.22265 13.97461,-8.12305 l 1.10938,-1.09766 0.29687,-1.5332 c 1.18212,-6.11991 -0.67157,-11.75272 -4.20508,-15.41992 l -0.5,-0.52148 -0.62695,-0.35743 c -2.35608,-1.34915 -4.86394,-2.05477 -7.27344,-2.18164 z m -0.47656,9.89453 c 0.46025,0.0296 1.19561,0.4014 1.90234,0.73243 0.69465,0.93855 1.34183,2.39627 1.36719,4.27734 -2.43616,2.03227 -5.45704,3.779 -8.39062,4.63281 -1.12854,0.32846 -2.05062,0.34294 -3.01954,0.42383 0.63448,-1.69092 1.26829,-3.46811 2.26368,-5.14063 1.32826,-2.23183 2.92787,-3.87883 4.12109,-4.46484 0.59661,-0.293 1.09529,-0.50341 1.75586,-0.46094 z"
     id="path11074"
     inkscape:connector-curvature="0" />
  <path
     style="color:#000000;font-style:normal;font-variant:normal;font-weight:normal;font-stretch:normal;font-size:medium;line-height:normal;font-family:sans-serif;font-variant-ligatures:normal;font-variant-position:normal;font-variant-caps:normal;font-variant-numeric:normal;font-variant-alternates:normal;font-feature-settings:normal;text-indent:0;text-align:start;text-decoration:none;text-decoration-line:none;text-decoration-style:solid;text-decoration-color:#000000;letter-spacing:normal;word-spacing:normal;text-transform:none;writing-mode:lr-tb;direction:ltr;text-orientation:mixed;dominant-baseline:auto;baseline-shift:baseline;text-anchor:start;white-space:normal;shape-padding:0;clip-rule:nonzero;display:inline;overflow:visible;visibility:visible;opacity:1;isolation:auto;mix-blend-mode:normal;color-interpolation:sRGB;color-interpolation-filters:linearRGB;solid-color:#000000;solid-opacity:1;vector-effect:none;fill:#000000;fill-opacity:1;fill-rule:nonzero;stroke:none;stroke-width:24.09645653;stroke-linecap:butt;stroke-linejoin:miter;stroke-miterlimit:4;stroke-dasharray:none;stroke-dashoffset:0;stroke-opacity:1;color-rendering:auto;image-rendering:auto;shape-rendering:auto;text-rendering:auto;enable-background:accumulate"
     d="m 579.16211,0.55295 c -92.85842,-0.0272 -156.64852,37.2569 -193.33985,93.03125 -36.69447,55.77913 -46.93395,128.61291 -38.91406,200.70898 8.01989,72.09608 34.33324,143.77226 73.18164,198.20508 38.8484,54.43282 91.15195,92.35049 150.64258,91.9961 59.4626,-0.35424 111.34008,-38.67059 149.95898,-93.28711 38.61891,-54.61652 64.88322,-126.26466 73.60547,-198.18164 8.72225,-71.91699 -0.0144,-144.36758 -33.90039,-199.92579 C 726.51386,37.54711 666.47362,0.23894 579.16211,0.55295 Z m 0.0137,24.09766 h 0.0254 0.0234 c 80.63892,-0.29686 130.65586,31.90336 160.5996,80.99804 29.94375,49.09468 38.80249,116.43939 30.55079,184.47657 -8.25171,68.03717 -33.53175,136.50094 -69.35938,187.16992 -35.82763,50.66898 -81.30036,82.81085 -130.42578,83.10351 -49.09738,0.29248 -94.89002,-31.4613 -130.88672,-81.89843 -35.9967,-50.43714 -61.27665,-118.82794 -68.8457,-186.8711 -7.56905,-68.04315 2.60971,-135.4209 35.0957,-184.80273 32.486,-49.38184 86.63087,-82.20707 173.22266,-82.17578 z"
     id="path10-9"
     inkscape:connector-curvature="0" />
  <path
     style="color:#000000;font-style:normal;font-variant:normal;font-weight:normal;font-stretch:normal;font-size:medium;line-height:normal;font-family:sans-serif;font-variant-ligatures:normal;font-variant-position:normal;font-variant-caps:normal;font-variant-numeric:normal;font-variant-alternates:normal;font-feature-settings:normal;text-indent:0;text-align:start;text-decoration:none;text-decoration-line:none;text-decoration-style:solid;text-decoration-color:#000000;letter-spacing:normal;word-spacing:normal;text-transform:none;writing-mode:lr-tb;direction:ltr;text-orientation:mixed;dominant-baseline:auto;baseline-shift:baseline;text-anchor:start;white-space:normal;shape-padding:0;clip-rule:nonzero;display:inline;overflow:visible;visibility:visible;opacity:1;isolation:auto;mix-blend-mode:normal;color-interpolation:sRGB;color-interpolation-filters:linearRGB;solid-color:#000000;solid-opacity:1;vector-effect:none;fill:#000000;fill-opacity:1;fill-rule:nonzero;stroke:none;stroke-width:12.04822826;stroke-linecap:butt;stroke-linejoin:miter;stroke-miterlimit:4;stroke-dasharray:none;stroke-dashoffset:0;stroke-opacity:1;color-rendering:auto;image-rendering:auto;shape-rendering:auto;text-rendering:auto;enable-background:accumulate"
     d="m 566.27148,290.76193 c 0,0 -1.3596,13.40974 -3.60742,27.4961 -1.12391,7.04318 -2.4768,14.25552 -3.93164,19.85937 -0.72742,2.80193 -1.48948,5.20803 -2.17188,6.86719 -0.68239,1.65917 -1.56462,2.52749 -0.93164,2 -1.33322,1.111 -2.74385,2.03797 -3.48242,4.99219 -0.36929,1.47711 -0.15776,3.67629 0.78516,5.21289 0.94291,1.5366 2.16868,2.28837 3.0957,2.72461 3.70807,1.74495 5.61159,1.07622 8.13281,0.90234 5.04244,-0.34776 10.50391,-1.47265 10.50391,-1.47265 l -2.36328,-11.81446 c 0,0 -2.57481,0.32818 -4.13282,0.58399 0.79898,-2.14217 1.55393,-4.37785 2.22657,-6.96875 1.62582,-6.26244 3.0099,-13.73107 4.16797,-20.98828 2.31613,-14.51442 3.69531,-28.1836 3.69531,-28.1836 z"
     id="path971"
     inkscape:connector-curvature="0" />
  <path
     inkscape:connector-curvature="0"
     id="path59-1-8-1-2"
     d="m 650.03701,225.21488 c -16.22191,-0.58345 -33.18732,5.94028 -53.11065,20.65622 l 7.14995,9.67956 c 18.6836,-13.8006 32.7934,-18.7698 45.52895,-18.31176 12.73553,0.45801 25.0135,6.47599 39.67913,16.99617 l 7.0138,-9.77687 c -15.47678,-11.10184 -30.03848,-18.65994 -46.26118,-19.24332 z"
     style="color:#000000;font-style:normal;font-variant:normal;font-weight:normal;font-stretch:normal;font-size:medium;line-height:normal;font-family:sans-serif;font-variant-ligatures:normal;font-variant-position:normal;font-variant-caps:normal;font-variant-numeric:normal;font-variant-alternates:normal;font-feature-settings:normal;text-indent:0;text-align:start;text-decoration:none;text-decoration-line:none;text-decoration-style:solid;text-decoration-color:#000000;letter-spacing:normal;word-spacing:normal;text-transform:none;writing-mode:lr-tb;direction:ltr;text-orientation:mixed;dominant-baseline:auto;baseline-shift:baseline;text-anchor:start;white-space:normal;shape-padding:0;clip-rule:nonzero;display:inline;overflow:visible;visibility:visible;opacity:1;isolation:auto;mix-blend-mode:normal;color-interpolation:sRGB;color-interpolation-filters:linearRGB;solid-color:#000000;solid-opacity:1;vector-effect:none;fill:#000000;fill-opacity:1;fill-rule:nonzero;stroke:none;stroke-width:12.03336239;stroke-linecap:butt;stroke-linejoin:miter;stroke-miterlimit:4;stroke-dasharray:none;stroke-dashoffset:0;stroke-opacity:1;color-rendering:auto;image-rendering:auto;shape-rendering:auto;text-rendering:auto;enable-background:accumulate" />
  <path
     inkscape:connector-curvature="0"
     id="path59-1-8-3-29-8"
     d="m 493.76285,225.21488 c -16.22188,-0.58337 -33.18731,5.94229 -53.11066,20.65815 l 7.14913,9.67957 c 18.68444,-13.80061 32.79264,-18.76972 45.52814,-18.31178 12.73555,0.45812 25.01516,6.47603 39.68077,16.99619 l 7.01381,-9.77688 c -15.47679,-11.10175 -30.03847,-18.66187 -46.26119,-19.24525 z"
     style="color:#000000;font-style:normal;font-variant:normal;font-weight:normal;font-stretch:normal;font-size:medium;line-height:normal;font-family:sans-serif;font-variant-ligatures:normal;font-variant-position:normal;font-variant-caps:normal;font-variant-numeric:normal;font-variant-alternates:normal;font-feature-settings:normal;text-indent:0;text-align:start;text-decoration:none;text-decoration-line:none;text-decoration-style:solid;text-decoration-color:#000000;letter-spacing:normal;word-spacing:normal;text-transform:none;writing-mode:lr-tb;direction:ltr;text-orientation:mixed;dominant-baseline:auto;baseline-shift:baseline;text-anchor:start;white-space:normal;shape-padding:0;clip-rule:nonzero;display:inline;overflow:visible;visibility:visible;opacity:1;isolation:auto;mix-blend-mode:normal;color-interpolation:sRGB;color-interpolation-filters:linearRGB;solid-color:#000000;solid-opacity:1;vector-effect:none;fill:#000000;fill-opacity:1;fill-rule:nonzero;stroke:none;stroke-width:12.03336239;stroke-linecap:butt;stroke-linejoin:miter;stroke-miterlimit:4;stroke-dasharray:none;stroke-dashoffset:0;stroke-opacity:1;color-rendering:auto;image-rendering:auto;shape-rendering:auto;text-rendering:auto;enable-background:accumulate" />
  <path
     inkscape:connector-curvature="0"
     id="path29-2-7-1"
     d="m 656.90986,469.8168 c -45.80927,-45.09637 -85.24352,-46.8861 -115.3392,-37.38053 -15.04824,4.75281 -27.73947,12.5695 -37.1731,19.75048 -9.43365,7.18087 -15.34145,13.44793 -17.81364,15.89734 l -8.46861,-8.54949 c 1.90508,-1.88769 8.77873,-9.14734 18.99293,-16.92273 10.21503,-7.77536 24.04126,-16.3449 40.83911,-21.65032 33.59573,-10.61101 79.17301,-7.20199 127.40453,40.27999 z"
     style="color:#000000;font-style:normal;font-variant:normal;font-weight:normal;font-stretch:normal;font-size:medium;line-height:normal;font-family:sans-serif;font-variant-ligatures:normal;font-variant-position:normal;font-variant-caps:normal;font-variant-numeric:normal;font-variant-alternates:normal;font-feature-settings:normal;text-indent:0;text-align:start;text-decoration:none;text-decoration-line:none;text-decoration-style:solid;text-decoration-color:#000000;letter-spacing:normal;word-spacing:normal;text-transform:none;writing-mode:lr-tb;direction:ltr;text-orientation:mixed;dominant-baseline:auto;baseline-shift:baseline;text-anchor:start;white-space:normal;shape-padding:0;clip-rule:nonzero;display:inline;overflow:visible;visibility:visible;opacity:1;isolation:auto;mix-blend-mode:normal;color-interpolation:sRGB;color-interpolation-filters:linearRGB;solid-color:#000000;solid-opacity:1;vector-effect:none;fill:#000000;fill-opacity:1;fill-rule:nonzero;stroke:none;stroke-width:12.03336239;stroke-linecap:butt;stroke-linejoin:miter;stroke-miterlimit:4;stroke-dasharray:none;stroke-dashoffset:0;stroke-opacity:1;color-rendering:auto;image-rendering:auto;shape-rendering:auto;text-rendering:auto;enable-background:accumulate" />
  <path
     inkscape:connector-curvature="0"
     id="path1039-2-2-0"
     d="m 427.09965,147.69405 -6.80598,13.29191 c 0,0 30.11742,15.41911 60.52644,30.84295 15.20451,7.71189 30.4799,15.42525 42.12072,21.2222 5.82081,2.89848 10.72814,5.31615 14.29908,7.03187 1.78589,0.85779 3.22941,1.53591 4.34749,2.03769 0.55904,0.2509 1.02545,0.45511 1.50474,0.6449 0.23924,0.0949 0.47205,0.18598 0.82487,0.2995 0.35282,0.11357 0.32382,0.40244 2.47864,0.40244 v -14.93272 c 2.08472,0 1.92603,0.25996 2.09521,0.31423 0.16834,0.054 0.16111,0.0565 0.10629,0.0345 -0.10963,-0.0436 -0.44789,-0.18511 -0.89495,-0.38585 -0.89496,-0.40149 -2.27081,-1.04784 -3.99466,-1.87593 -3.44771,-1.65644 -8.32119,-4.05589 -14.10979,-6.93817 -11.57636,-5.76469 -26.83566,-13.4673 -42.02325,-21.17074 -30.37518,-15.407 -60.47488,-30.8191 -60.47488,-30.8191 z"
     style="color:#000000;font-style:normal;font-variant:normal;font-weight:normal;font-stretch:normal;font-size:medium;line-height:normal;font-family:sans-serif;font-variant-ligatures:normal;font-variant-position:normal;font-variant-caps:normal;font-variant-numeric:normal;font-variant-alternates:normal;font-feature-settings:normal;text-indent:0;text-align:start;text-decoration:none;text-decoration-line:none;text-decoration-style:solid;text-decoration-color:#000000;letter-spacing:normal;word-spacing:normal;text-transform:none;writing-mode:lr-tb;direction:ltr;text-orientation:mixed;dominant-baseline:auto;baseline-shift:baseline;text-anchor:start;white-space:normal;shape-padding:0;clip-rule:nonzero;display:inline;overflow:visible;visibility:visible;opacity:1;isolation:auto;mix-blend-mode:normal;color-interpolation:sRGB;color-interpolation-filters:linearRGB;solid-color:#000000;solid-opacity:1;vector-effect:none;fill:#000000;fill-opacity:1;fill-rule:nonzero;stroke:none;stroke-width:14.93249893;stroke-linecap:butt;stroke-linejoin:miter;stroke-miterlimit:4;stroke-dasharray:none;stroke-dashoffset:0;stroke-opacity:1;color-rendering:auto;image-rendering:auto;shape-rendering:auto;text-rendering:auto;enable-background:accumulate" />
  <path
     inkscape:connector-curvature="0"
     id="path1039-7-0-6-3"
     d="m 710.22106,147.69405 c 0,0 -30.1021,15.41207 -60.47729,30.81911 -15.18678,7.70342 -30.44526,15.40604 -42.02164,21.1707 -5.78777,2.88239 -10.66129,5.28175 -14.1098,6.93817 -1.72383,0.8281 -3.0997,1.47455 -3.99464,1.87595 -0.44708,0.20073 -0.78459,0.34235 -0.89414,0.38587 -0.0564,0.0217 -0.0645,0.0193 0.1063,-0.0346 0.16835,-0.054 0.007,-0.31415 2.0944,-0.31415 v 14.93273 c 2.1548,0 2.12421,-0.28895 2.47703,-0.40247 0.35282,-0.11349 0.58722,-0.20461 0.82648,-0.29949 0.4793,-0.18987 0.94409,-0.39398 1.50313,-0.64492 1.11808,-0.50176 2.56162,-1.17986 4.34748,-2.03768 3.57175,-1.71571 8.4799,-4.13329 14.30069,-7.03185 11.64163,-5.79696 26.91703,-13.51031 42.12154,-21.2222 30.4082,-15.42393 60.52482,-30.84304 60.52482,-30.84304 z"
     style="color:#000000;font-style:normal;font-variant:normal;font-weight:normal;font-stretch:normal;font-size:medium;line-height:normal;font-family:sans-serif;font-variant-ligatures:normal;font-variant-position:normal;font-variant-caps:normal;font-variant-numeric:normal;font-variant-alternates:normal;font-feature-settings:normal;text-indent:0;text-align:start;text-decoration:none;text-decoration-line:none;text-decoration-style:solid;text-decoration-color:#000000;letter-spacing:normal;word-spacing:normal;text-transform:none;writing-mode:lr-tb;direction:ltr;text-orientation:mixed;dominant-baseline:auto;baseline-shift:baseline;text-anchor:start;white-space:normal;shape-padding:0;clip-rule:nonzero;display:inline;overflow:visible;visibility:visible;opacity:1;isolation:auto;mix-blend-mode:normal;color-interpolation:sRGB;color-interpolation-filters:linearRGB;solid-color:#000000;solid-opacity:1;vector-effect:none;fill:#000000;fill-opacity:1;fill-rule:nonzero;stroke:none;stroke-width:14.93249893;stroke-linecap:butt;stroke-linejoin:miter;stroke-miterlimit:4;stroke-dasharray:none;stroke-dashoffset:0;stroke-opacity:1;color-rendering:auto;image-rendering:auto;shape-rendering:auto;text-rendering:auto;enable-background:accumulate" />
  <path
     style="font-style:normal;font-weight:normal;font-size:233.33332825px;line-height:1.25;font-family:sans-serif;letter-spacing:0px;word-spacing:0px;fill:#000000;fill-opacity:1;stroke:none"
     d="m 860.18945,1069.7813 c -13.44401,15.4188 -23.88845,32.2435 -31.33203,50.4726 -7.44357,18.2292 -11.16601,38.7744 -11.16601,61.6368 0,22.8624 3.72244,43.4095 11.16601,61.6386 7.44358,18.2292 17.88802,35.0519 31.33203,50.4707 h 26.08985 v -1.1386 c -5.84853,-5.2409 -11.6964,-11.6585 -17.54492,-19.2539 -5.84853,-7.5196 -11.05209,-15.9506 -15.60938,-25.293 -4.7092,-9.7222 -8.46897,-19.9761 -11.2793,-30.7617 -2.73437,-10.7856 -4.10156,-22.6739 -4.10156,-35.6621 0,-12.4566 1.40451,-24.3056 4.21484,-35.5469 2.88629,-11.2413 6.60873,-21.5326 11.16602,-30.875 4.78516,-9.6463 9.94944,-18.0773 15.49414,-25.293 5.62066,-7.2916 11.50781,-13.7092 17.66016,-19.2539 v -1.1406 z m 200.17775,0 v 1.1406 c 6.1523,5.5447 12.0022,11.9623 17.5469,19.2539 5.6206,7.2157 10.8222,15.6467 15.6074,25.293 4.6332,9.3424 8.3557,19.6337 11.166,30.875 2.8103,11.2413 4.2148,23.0903 4.2148,35.5469 0,12.9882 -1.4045,24.8765 -4.2148,35.6621 -2.7344,10.7856 -6.4568,21.0395 -11.166,30.7617 -4.4814,9.3424 -9.683,17.7734 -15.6074,25.293 -5.8486,7.5954 -11.6984,14.013 -17.5469,19.2539 V 1294 h 26.0918 c 13.444,-15.4188 23.8865,-32.2415 31.3301,-50.4707 7.4435,-18.2291 11.166,-38.7762 11.166,-61.6386 0,-22.8624 -3.7225,-43.4076 -11.166,-61.6368 -7.4436,-18.2291 -17.8861,-35.0538 -31.3301,-50.4726 z M 0,1077.4161 v 169.6445 h 111.76758 v -20.0527 H 22.55859 v -63.004 h 89.20899 v -20.0527 H 22.55859 v -46.4844 h 89.20899 v -20.0507 z m 330.97266,38.8496 c -8.05122,0 -15.6454,1.6343 -22.78516,4.9004 -7.0638,3.1901 -13.44401,7.1777 -19.14062,11.9628 v -13.33 H 267.62695 V 1294 h 21.41993 v -53.3203 c 5.5447,3.0382 10.97417,5.2795 16.29101,6.7227 5.3928,1.4431 11.39388,2.164 18.00195,2.164 7.59549,0 14.77322,-1.5184 21.53321,-4.5566 6.83593,-3.1141 12.76041,-7.4809 17.77343,-13.1016 5.3928,-5.9244 9.57097,-13.1414 12.53321,-21.6484 2.96224,-8.5829 4.44336,-18.0393 4.44336,-28.3691 0,-20.5838 -4.2921,-36.6483 -12.875,-48.1934 -8.50695,-11.6211 -20.43251,-17.4316 -35.77539,-17.4316 z m 131.82031,0 c -18.0013,0 -32.31945,6.0384 -42.95313,18.1152 -10.55772,12.0009 -15.83593,28.3698 -15.83593,49.1055 0,20.7356 5.27821,37.1046 15.83593,49.1054 10.63368,12.0009 24.95183,18 42.95313,18 17.84939,0 32.09093,-5.9991 42.72461,-18 10.63368,-12.0008 15.95117,-28.3698 15.95117,-49.1054 0,-20.7357 -5.31749,-37.1046 -15.95117,-49.1055 -10.63368,-12.0768 -24.87522,-18.1152 -42.72461,-18.1152 z m 263.41211,0 c -18.0013,0 -32.31945,6.0384 -42.95313,18.1152 -10.55772,12.0009 -15.83593,28.3698 -15.83593,49.1055 0,20.7356 5.27821,37.1046 15.83593,49.1054 10.63368,12.0009 24.95183,18 42.95313,18 17.84939,0 32.09093,-5.9991 42.72461,-18 10.63368,-12.0008 15.94922,-28.3698 15.94922,-49.1054 0,-20.7357 -5.31554,-37.1046 -15.94922,-49.1055 -10.63368,-12.0768 -24.87522,-18.1152 -42.72461,-18.1152 z m -536.84961,0.457 c -8.12717,0 -15.49544,1.0627 -22.10352,3.1895 -6.53211,2.0507 -11.92426,4.8617 -16.17773,8.4316 -4.40538,3.6458 -7.70942,7.7847 -9.91211,12.418 -2.12674,4.6332 -3.18945,9.5696 -3.18945,14.8105 0,8.355 2.31597,15.4188 6.94922,21.1914 4.7092,5.6966 12.64713,10.0261 23.8125,12.9883 4.0256,1.0634 8.46896,2.0514 13.33007,2.9629 4.93707,0.9114 8.9247,1.709 11.96289,2.3926 8.20313,1.8229 13.74653,4.0249 16.63282,6.6074 2.88628,2.5824 4.33007,6.3815 4.33007,11.3945 0,6.5321 -2.65776,11.3173 -7.97461,14.3555 -5.31684,3.0382 -12.68511,4.5566 -22.10351,4.5566 -7.59549,0 -15.53342,-1.4811 -23.8125,-4.4433 -8.27908,-3.0382 -15.79861,-7.1025 -22.55859,-12.1914 h -1.13868 v 24.041 c 5.31684,2.6584 11.88759,5.1256 19.71094,7.4043 7.89931,2.2027 16.55816,3.3047 25.97656,3.3047 16.63412,0 29.73633,-3.7225 39.30664,-11.1661 9.64627,-7.4435 14.46875,-16.9746 14.46875,-28.5957 0,-9.2665 -2.69704,-16.7113 -8.08984,-22.332 -5.39279,-5.5447 -13.06358,-9.4557 -23.01367,-11.7344 -3.26606,-0.7595 -7.36762,-1.5944 -12.30469,-2.5058 -4.86111,-0.9115 -9.26714,-1.8229 -13.2168,-2.7344 -7.13975,-1.671 -12.30403,-3.8357 -15.49414,-6.4941 -3.26606,-2.6585 -4.89843,-6.6088 -4.89843,-11.8497 0,-5.9244 2.69509,-10.3678 8.08789,-13.33 5.39279,-3.0382 12.00087,-4.5567 19.82422,-4.5567 7.51953,0 15.19227,1.4045 23.01562,4.2149 7.82335,2.7343 14.46875,6.115 19.9375,10.1406 h 1.13867 v -22.9004 c -5.16493,-2.6584 -11.65907,-4.8997 -19.48242,-6.7226 -7.7474,-1.8989 -15.41819,-2.8477 -23.01367,-2.8477 z m 408.78906,0 c -8.12717,0 -15.49544,1.0627 -22.10351,3.1895 -6.53212,2.0507 -11.92427,4.8617 -16.17774,8.4316 -4.40538,3.6458 -7.70942,7.7847 -9.91211,12.418 -2.12673,4.6332 -3.18945,9.5696 -3.18945,14.8105 0,8.355 2.31597,15.4188 6.94922,21.1914 4.7092,5.6966 12.64713,10.0261 23.8125,12.9883 4.02561,1.0634 8.46896,2.0514 13.33008,2.9629 4.93706,0.9114 8.92469,1.709 11.96289,2.3926 8.20312,1.8229 13.74652,4.0249 16.63281,6.6074 2.88628,2.5824 4.33008,6.3815 4.33008,11.3945 0,6.5321 -2.65777,11.3173 -7.97461,14.3555 -5.31684,3.0382 -12.68512,4.5566 -22.10352,4.5566 -7.59548,0 -15.53342,-1.4811 -23.8125,-4.4433 -8.27908,-3.0382 -15.79861,-7.1025 -22.55859,-12.1914 h -1.13867 v 24.041 c 5.31684,2.6584 11.88758,5.1256 19.71093,7.4043 7.89931,2.2027 16.55816,3.3047 25.97657,3.3047 16.63411,0 29.73632,-3.7225 39.30664,-11.1661 9.64626,-7.4435 14.46875,-16.9746 14.46875,-28.5957 0,-9.2665 -2.69705,-16.7113 -8.08985,-22.332 -5.39279,-5.5447 -13.06358,-9.4557 -23.01367,-11.7344 -3.26606,-0.7595 -7.36762,-1.5944 -12.30469,-2.5058 -4.86111,-0.9115 -9.26714,-1.8229 -13.21679,-2.7344 -7.13976,-1.671 -12.30404,-3.8357 -15.49414,-6.4941 -3.26606,-2.6585 -4.89844,-6.6088 -4.89844,-11.8497 0,-5.9244 2.69509,-10.3678 8.08789,-13.33 5.39279,-3.0382 12.00087,-4.5567 19.82422,-4.5567 7.51953,0 15.19227,1.4045 23.01562,4.2149 7.82335,2.7343 14.46875,6.115 19.9375,10.1406 h 1.13867 v -22.9004 c -5.16493,-2.6584 -11.65907,-4.8997 -19.48242,-6.7226 -7.74739,-1.8989 -15.41818,-2.8477 -23.01367,-2.8477 z m 369.71094,0 c -7.67144,0 -15.45812,0.6836 -23.35742,2.0508 -7.89931,1.3672 -13.93772,2.6204 -18.11524,3.7597 v 21.7598 h 1.14063 c 7.36762,-2.8103 14.50607,-4.9358 21.41797,-6.3789 6.91189,-1.5191 13.17816,-2.2793 18.79882,-2.2793 4.63325,0 9.07661,0.3045 13.33008,0.9121 4.25347,0.6077 7.89931,1.7843 10.9375,3.5313 3.19011,1.8229 5.62196,4.3294 7.29297,7.5195 1.74692,3.1901 2.61912,7.2151 2.61912,12.0762 v 3.3047 c -12.45658,0.6076 -24.115,1.5191 -34.97654,2.7343 -10.86155,1.2153 -20.16667,3.5313 -27.91406,6.9493 -7.67144,3.4179 -13.59592,8.1284 -17.77344,14.1289 -4.10156,5.9244 -6.15234,13.7092 -6.15234,23.3554 0,11.773 3.98763,21.4573 11.96289,29.0528 7.97526,7.5954 17.69878,11.3925 29.16797,11.3925 6.22829,0 11.65776,-0.607 16.29101,-1.8222 4.63325,-1.1394 8.73481,-2.5831 12.30469,-4.3301 3.03819,-1.3672 6.15364,-3.1901 9.34375,-5.4688 3.26606,-2.3546 5.84727,-4.1775 7.74607,-5.4687 v 13.5586 h 21.3067 v -86.3613 c 0,-8.2032 -1.2533,-15.0764 -3.7598,-20.6211 -2.5065,-5.5447 -6.1523,-10.0647 -10.9375,-13.5586 -4.8611,-3.5699 -10.63433,-6.0764 -17.31836,-7.5196 -6.60808,-1.5191 -14.3928,-2.2773 -23.35547,-2.2773 z m -505.0625,18 c 11.46918,0 20.43251,4.0269 26.88867,12.0781 6.45616,7.9753 9.68359,20.2034 9.68359,36.6856 0,16.1024 -3.26671,28.2558 -9.79882,36.459 -6.45617,8.1271 -15.38021,12.1894 -26.77344,12.1894 -11.54514,0 -20.54579,-4.1016 -27.00195,-12.3047 -6.45617,-8.2791 -9.6836,-20.3932 -9.6836,-36.3437 0,-16.4822 3.19011,-28.7103 9.57031,-36.6856 6.45617,-8.0512 15.49415,-12.0781 27.11524,-12.0781 z m 263.41211,0 c 11.46918,0 20.43055,4.0269 26.88672,12.0781 6.45616,7.9753 9.68554,20.2034 9.68554,36.6856 0,16.1024 -3.26671,28.2558 -9.79882,36.459 -6.45617,8.1271 -15.38021,12.1894 -26.77344,12.1894 -11.54514,0 -20.54579,-4.1016 -27.00196,-12.3047 -6.45616,-8.2791 -9.68554,-20.3932 -9.68554,-36.3437 0,-16.4822 3.1901,-28.7103 9.57031,-36.6856 6.45616,-8.0512 15.49609,-12.0781 27.11719,-12.0781 z m -400.70117,1.9375 c 10.86154,0 18.91341,3.7971 24.15429,11.3926 5.24089,7.5955 7.86133,19.0653 7.86133,34.4082 0,15.7986 -3.34136,27.7242 -10.02539,35.7754 -6.68403,8.0512 -15.98915,12.0761 -27.91406,12.0761 -5.54471,0 -10.5204,-0.493 -14.92578,-1.4804 -4.32943,-0.9874 -9.53104,-2.8496 -15.60742,-5.584 v -72.1192 c 5.69661,-4.3294 11.65842,-7.822 17.88671,-10.4804 6.2283,-2.6584 12.41797,-3.9883 18.57032,-3.9883 z m 676.41599,43.6367 v 35.4317 c -5.31682,4.1015 -11.08809,7.6334 -17.31638,10.5957 -6.2283,2.8862 -13.10352,4.33 -20.62305,4.33 -9.03863,0 -15.76064,-1.8229 -20.16602,-5.4687 -4.40538,-3.7218 -6.60742,-9.2279 -6.60742,-16.5195 0,-6.4562 1.89952,-11.5085 5.69727,-15.1543 3.79774,-3.7218 8.77148,-6.4562 14.92382,-8.2032 5.16494,-1.4431 12.15409,-2.5432 20.96485,-3.3027 8.88672,-0.7595 16.59483,-1.3292 23.12693,-1.709 z"
     id="text3829"
     inkscape:connector-curvature="0" />
</svg>
