<?xml version="1.0" encoding="UTF-8" standalone="no"?>
<!-- Created with Inkscape (http://www.inkscape.org/) -->

<svg
   xmlns:dc="http://purl.org/dc/elements/1.1/"
   xmlns:cc="http://creativecommons.org/ns#"
   xmlns:rdf="http://www.w3.org/1999/02/22-rdf-syntax-ns#"
   xmlns:svg="http://www.w3.org/2000/svg"
   xmlns="http://www.w3.org/2000/svg"
   xmlns:sodipodi="http://sodipodi.sourceforge.net/DTD/sodipodi-0.dtd"
   xmlns:inkscape="http://www.inkscape.org/namespaces/inkscape"
   width="1000"
   height="1250"
   viewBox="0 0 1000 1250"
   version="1.1"
   id="svg2912"
   inkscape:version="0.92.4 (5da689c313, 2019-01-14)"
   sodipodi:docname="Oeste.svg">
  <defs
     id="defs2906" />
  <sodipodi:namedview
     id="base"
     pagecolor="#ffffff"
     bordercolor="#666666"
     borderopacity="1.0"
     inkscape:pageopacity="0.0"
     inkscape:pageshadow="2"
     inkscape:zoom="0.70710678"
     inkscape:cx="598.15049"
     inkscape:cy="606.49368"
     inkscape:document-units="px"
     inkscape:current-layer="layer1"
     showgrid="false"
     units="px"
     inkscape:window-width="681"
     inkscape:window-height="706"
     inkscape:window-x="-7"
     inkscape:window-y="0"
     inkscape:window-maximized="0" />
  <metadata
     id="metadata2909">
    <rdf:RDF>
      <cc:Work
         rdf:about="">
        <dc:format>image/svg+xml</dc:format>
        <dc:type
           rdf:resource="http://purl.org/dc/dcmitype/StillImage" />
        <dc:title></dc:title>
      </cc:Work>
    </rdf:RDF>
  </metadata>
  <g
     inkscape:label="Camada 1"
     inkscape:groupmode="layer"
     id="layer1"
     transform="translate(0,217.58335)">
    <path
       style="color:#000000;font-style:normal;font-variant:normal;font-weight:normal;font-stretch:normal;font-size:medium;line-height:normal;font-family:sans-serif;font-variant-ligatures:normal;font-variant-position:normal;font-variant-caps:normal;font-variant-numeric:normal;font-variant-alternates:normal;font-feature-settings:normal;text-indent:0;text-align:start;text-decoration:none;text-decoration-line:none;text-decoration-style:solid;text-decoration-color:#000000;letter-spacing:normal;word-spacing:normal;text-transform:none;writing-mode:lr-tb;direction:ltr;text-orientation:mixed;dominant-baseline:auto;baseline-shift:baseline;text-anchor:start;white-space:normal;shape-padding:0;clip-rule:nonzero;display:inline;overflow:visible;visibility:visible;opacity:1;isolation:auto;mix-blend-mode:normal;color-interpolation:sRGB;color-interpolation-filters:linearRGB;solid-color:#000000;solid-opacity:1;vector-effect:none;fill:#000000;fill-opacity:1;fill-rule:nonzero;stroke:none;stroke-width:10.00811195;stroke-linecap:butt;stroke-linejoin:miter;stroke-miterlimit:4;stroke-dasharray:none;stroke-dashoffset:0;stroke-opacity:1;color-rendering:auto;image-rendering:auto;shape-rendering:auto;text-rendering:auto;enable-background:accumulate"
       d="m 365.14258,416.62968 c -2.97129,0.10798 -6.16758,0.3331 -9.57617,0.6543 -13.63436,1.28479 -30.63785,4.13883 -49.02735,7.65235 -36.34923,6.94492 -78.01689,16.45394 -108.29883,21.62109 -5.21527,-1.9084 -10.92955,-1.59916 -16.35546,-0.59375 -6.07845,1.12632 -11.69638,3.14067 -15.65821,5.41211 -4.89534,2.80661 -8.54954,7.62594 -11.61718,11.85742 -2.87011,3.959 -4.6455,7.00357 -4.90235,7.43945 -36.92546,44.22544 -108.636309,130.56997 -109.564452,131.6875 l -40.13671862,19.08594 4.29882812,9.03711 42.1250005,-20.0293 0.705078,-0.84765 c 0,0 73.299384,-88.25769 110.396484,-132.6875 l 0.26758,-0.32227 0.21094,-0.35937 c 0,0 1.95201,-3.33601 4.70312,-7.13086 2.75111,-3.79486 6.61091,-7.97137 8.49023,-9.04883 2.47351,-1.41814 7.54583,-3.33519 12.50391,-4.25391 4.95809,-0.91872 9.86303,-0.65883 11.99805,0.39258 l 1.44922,0.71484 1.59375,-0.26953 c 30.89605,-5.21249 73.16819,-14.90094 109.66992,-21.875 18.25086,-3.48703 35.06182,-6.29029 48.08594,-7.51757 6.51205,-0.61365 12.08601,-0.82464 16.27734,-0.57813 4.19133,0.24651 6.97022,1.19555 7.48633,1.55469 3.01678,2.09927 9.53244,8.64565 16.77148,17.00781 7.23904,8.36216 15.51283,18.67383 23.40821,28.99023 7.89537,10.31641 15.4226,20.64814 21.18359,29.05079 2.8805,4.20132 5.32065,7.92517 7.125,10.88085 1.80435,2.95569 3.00142,5.35874 3.19141,5.90235 0.43575,1.24684 1.21343,7.49591 1.33789,15.03515 0.12445,7.53925 -0.1138,16.8272 -0.59766,26.23047 -0.24,4.66413 -0.69148,8.9041 -1.04883,13.47266 -0.99602,0.11309 -2.14678,0.52787 -3.27344,0.84961 -0.29977,-6.01612 -0.499,-12.30824 -0.97461,-17.57617 -0.8158,-9.03609 -1.56507,-15.86931 -3.50781,-20.58594 -1.6689,-4.05173 -5.40006,-10.33735 -10.63672,-18.53125 -5.23665,-8.1939 -11.87737,-17.95664 -18.91601,-27.58594 -7.03865,-9.62929 -14.46114,-19.11502 -21.32617,-26.78515 -6.86503,-7.67014 -12.71818,-13.52997 -18.76758,-16.19727 -2.05831,-0.90755 -3.53196,-0.87967 -5.44336,-0.91211 -1.9114,-0.0324 -4.11942,0.0816 -6.67774,0.30469 -5.11663,0.44617 -11.60982,1.33897 -19.09179,2.54297 -14.96395,2.408 -33.83967,6.06911 -52.64258,9.92383 -18.80291,3.85471 -37.52262,7.90355 -52.08789,11.07812 -14.56528,3.17457 -25.57328,5.566 -26.92578,5.78906 -5.47741,0.90335 -8.24543,-0.065 -12.6836,-1.05468 -4.43816,-0.9897 -10.34452,-1.7052 -18.36132,0.81445 -18.22203,5.72699 -25.56055,20.83984 -25.56055,20.83984 l 9.01758,4.33985 c 0,0 5.30125,-11.15618 19.54492,-15.63282 6.40444,-2.01288 9.25651,-1.46709 13.18164,-0.59179 3.92513,0.87529 9.12508,2.37483 16.49023,1.16015 3.05187,-0.50334 12.87791,-2.71509 27.42969,-5.88672 14.55178,-3.17162 33.23231,-7.21049 51.96484,-11.05078 18.73254,-3.84028 37.52708,-7.48284 52.22266,-9.84765 7.34779,-1.18241 13.68212,-2.04425 18.3711,-2.45313 2.34448,-0.20444 4.2852,-0.2925 5.63867,-0.26953 1.35346,0.023 2.26215,0.36496 1.57617,0.0625 2.61655,1.15369 8.82664,6.4332 15.3457,13.7168 6.51907,7.2836 13.79897,16.56568 20.70508,26.01367 6.90611,9.44798 13.45123,19.0726 18.5625,27.07031 5.11127,7.99772 8.89169,14.70811 9.81641,16.95313 0.65085,1.58016 2.00466,8.94431 2.79297,17.67578 0.50809,5.62776 0.7483,12.46396 1.05468,19.03906 -3.32024,1.59178 -7.71566,4.16862 -11.95898,9.31055 -5.38237,6.52219 -8.60121,16.86238 -4.76172,29.95312 -4.67329,-1.83651 -8.88465,-3.53982 -9.71484,-3.89843 -0.9065,-1.26598 -4.57514,-6.56208 -6.77344,-15.05665 -2.47805,-9.57551 -2.62659,-21.51065 7.3789,-33.77929 0.009,-0.0109 0.25534,-0.30307 0.61719,-0.65821 0.36849,-0.36165 1.04613,-0.65693 0.25,-0.33789 l -0.0195,-0.0469 7.44922,-9.11914 -10.44531,1.63867 -4.04297,0.53125 c -17.6666,2.22642 -27.91087,-5.5371 -34.48633,-15.22266 -3.38722,-4.98932 -5.61311,-10.50814 -6.79883,-15.10156 -1.18571,-4.59342 -0.99219,-8.55469 -0.99219,-8.55469 0.003,-0.006 -0.0594,-1.73131 0.13476,-4.17968 -3.95329,-0.71195 -5.293,-3.16639 -7.42383,-6.00196 -2.11429,1.58873 -2.20385,3.09076 -2.39844,4.08985 -0.19458,0.99909 -0.21679,1.80276 -0.21679,2.5332 0,0.3068 0.0219,0.2875 0.0332,0.56445 -9.5329,13.78093 -22.84811,21.09119 -35.38476,23.43946 -12.92453,2.42092 -24.68854,-0.78282 -29.85743,-6.14649 l -7.20703,6.94531 c 2.36235,2.45138 5.22426,4.41162 8.40235,5.96875 -1.48651,2.02535 -3.81045,4.69203 -7.79493,7.73438 -9.27408,7.08123 -26.39474,15.49346 -56.50195,18.54687 l 1.00977,9.95704 c 0.65161,-0.0661 1.21841,-0.16929 1.85937,-0.24024 -0.0676,0.64536 -0.17714,1.22097 -0.19922,1.92578 -0.18254,5.82724 1.14635,14.0564 6.45703,24.1836 2.55616,4.87452 7.80526,12.10625 12.99219,19.12695 5.18693,7.0207 10.35282,13.77671 11.63672,15.63477 0.17215,0.24912 0.41037,2.71278 0.94336,7.05273 0.15333,1.24849 0.44712,2.64259 0.8457,4.09375 -1.38569,-0.40226 -1.39443,-0.32092 -2.86523,-0.79102 -3.62716,-1.15931 -7.33825,-2.51082 -10.16211,-3.84179 -2.82387,-1.33098 -4.639,-3.15014 -4.3418,-2.64258 -1.94663,-3.32448 -5.06597,-5.96456 -9.69336,-9.5625 -4.62738,-3.59794 -10.57965,-7.57252 -17.28906,-11.15039 -13.41881,-7.15575 -29.8779,-13.03826 -44.99805,-9.46875 l 2.29883,9.74023 c 10.90803,-2.57512 25.67554,1.99358 37.99024,8.56055 6.15734,3.28348 11.69815,6.98826 15.85546,10.2207 4.15732,3.23244 7.11547,6.57376 7.19922,6.7168 2.13758,3.65057 5.22173,4.99513 8.71289,6.64062 3.49117,1.6455 7.50817,3.08252 11.38086,4.32032 7.74539,2.47559 14.94727,4.12109 14.94727,4.12109 0.80559,-0.02 1.65045,-0.0405 2.46875,-0.0605 18.57096,-5.21581 36.66519,-9.56736 50.41992,-11.72265 6.87737,-1.07765 12.69537,-1.58869 16.68945,-1.45703 1.99705,0.0658 3.5353,0.30904 4.36719,0.5625 0.83189,0.25345 0.73411,0.46876 0.38086,-0.0684 l 8.36133,-5.5 c -0.42432,-0.64517 -0.99882,-1.01163 -1.51953,-1.48243 2.14479,-2.39818 5.23832,-4.9028 9.18164,-7.20507 5.96647,-3.48348 13.44046,-6.54813 20.69726,-9.01172 13.36901,-4.5386 24.78394,-6.80653 26.67578,-7.17578 1.1189,0.48332 5.72275,2.41844 11.7754,4.72656 -2.2847,2.02779 -4.6738,4.3847 -6.90821,7.4707 -6.24042,8.61883 -10.42008,22.17683 -4.05078,38.51563 -2.09511,1.86018 -4.05153,4.15403 -6.31641,7.05273 -2.66273,3.4079 -5.55416,7.39435 -8.36718,11.27149 -2.81302,3.87713 -5.55125,7.649 -7.80664,10.52148 -1.1277,1.43624 -2.13869,2.6494 -2.91602,3.48828 -0.77732,0.83888 -1.50683,1.30899 -1.05469,1.06055 0.23553,-0.12941 -0.945,0.39145 -2.51757,0.87109 -1.57258,0.47964 -3.71813,1.06956 -6.3086,1.73438 -5.18093,1.32964 -12.15449,2.96812 -20.26562,4.78906 -16.22226,3.64187 -37.01514,8.01972 -57.51172,12.23438 -40.99316,8.4293 -80.8086,16.20703 -80.8086,16.20703 l -1.74414,0.34179 -1.13867,1.36328 c 0,0 -6.91474,8.46304 -23.23828,14.10544 -16.32354,5.6423 -41.76776,8.1709 -78.49609,-5.7989 l -1.48828,-0.5644 -1.54102,0.3965 c -23.185027,5.9833 -38.381556,11.2849 -47.863281,15.1386 -9.481725,3.8537 -13.56836,6.4668 -13.56836,6.4668 l 5.460938,8.3867 c 0,0 2.883325,-1.9275 11.875,-5.582 8.775554,-3.5667 23.327103,-8.6096 45.226563,-14.3242 37.68485,13.9531 65.40735,11.6504 83.66406,5.3398 14.89654,-5.149 23.42159,-12.8339 26.30664,-15.7558 1.47182,-0.2877 39.09342,-7.63613 79.36914,-15.91791 20.52788,-4.22109 41.3547,-8.6048 57.6875,-12.27149 8.1664,-1.83334 15.20401,-3.48661 20.56055,-4.86132 2.67827,-0.68736 4.93388,-1.30393 6.74219,-1.85547 1.80831,-0.55154 2.98935,-0.88796 4.41601,-1.67188 1.64959,-0.9064 2.49175,-1.85899 3.57617,-3.02929 1.08443,-1.1703 2.22454,-2.55157 3.44922,-4.11133 2.44937,-3.11954 5.22305,-6.94833 8.03516,-10.82422 2.81211,-3.87589 5.65905,-7.79529 8.15234,-10.98633 2.49286,-3.19049 4.86943,-5.74638 5.61719,-6.32031 4.74126,-3.63743 11.04179,-10.24814 16.83789,-17.07031 2.89805,-3.41109 5.61565,-6.83819 7.81055,-9.9336 2.1949,-3.0954 3.86564,-5.60941 4.80469,-8.41992 1.02924,-3.08042 1.29994,-6.61982 1.60742,-10.01172 0.24162,-2.66549 0.30581,-4.05603 0.35547,-4.94531 1.28138,-1.79226 7.18772,-10.24487 9.98047,-21.10938 2.24822,-8.74567 4.03067,-27.77444 5.01562,-46.91601 0.49248,-9.57079 0.74147,-19.02682 0.61133,-26.91016 -0.13014,-7.88334 -0.34708,-13.73489 -1.89844,-18.17383 -0.80357,-2.29928 -2.14907,-4.6257 -4.0957,-7.81445 -1.94663,-3.18875 -4.46629,-7.02476 -7.41406,-11.32422 -5.89555,-8.59891 -13.50073,-19.03521 -21.49024,-29.47461 -7.98951,-10.4394 -16.35398,-20.87262 -23.78711,-29.45898 -7.43313,-8.58636 -13.62145,-15.19144 -18.62304,-18.67188 -3.49309,-2.43071 -7.59622,-3.03684 -12.61524,-3.33203 -2.50951,-0.14759 -5.25528,-0.1568 -8.22656,-0.0488 z m -9.5957,112.29102 c 1.46006,5.57641 4.03325,11.97334 8.14062,18.02344 6.95401,10.24316 18.89689,19.22218 35.62695,19.86719 -6.39409,12.24749 -6.17783,24.57738 -3.73633,34.01171 1.38966,5.36983 3.42178,9.82206 5.22657,13.20899 -5.50711,1.2463 -13.07491,3.1282 -22.43164,6.30469 -7.65435,2.59855 -15.64682,5.82856 -22.52735,9.8457 -5.80334,3.38823 -10.84021,7.36208 -14.08008,12.43555 -0.44387,-0.028 -0.85314,-0.0883 -1.31445,-0.10352 -5.10514,-0.16829 -11.34042,0.44164 -18.56836,1.57422 -13.62232,2.13454 -30.75978,6.27491 -48.41406,11.1543 -1.99541,-2.71674 -2.55588,-5.07951 -2.87305,-7.66211 -0.39853,-3.24515 0.32034,-7.23079 -2.64453,-11.52149 -1.85309,-2.68178 -6.70382,-8.96722 -11.82031,-15.89258 -5.11649,-6.92536 -10.45609,-14.54498 -12.17774,-17.82812 -4.6047,-8.78093 -5.44543,-15.16418 -5.31835,-19.2207 0.0552,-1.76135 0.26202,-2.79266 0.45507,-3.6211 24.42149,-4.01958 39.97083,-11.6905 49.44922,-18.92773 5.48246,-4.18614 8.93032,-8.18892 10.95899,-11.2793 0.29789,-0.45379 0.37955,-0.78675 0.61914,-1.19727 6.38338,1.22339 13.4384,1.20759 20.64648,-0.14257 12.03511,-2.25433 24.56058,-8.39558 34.78321,-19.0293 z m 95.29882,56.08203 c -0.56639,5.77003 -1.12585,11.01604 -1.72656,14.97461 -0.0363,-4.08078 0.0707,-7.38343 -0.0566,-11.75977 -0.0205,-0.70404 -0.0905,-1.34004 -0.11328,-2.04687 0.66932,-0.48929 1.29846,-0.93215 1.89648,-1.16797 z m -11.7832,4.33203 c 0.27332,9.88062 0.33135,19.45729 0.13086,26.46094 -0.0847,2.95828 -0.23619,5.08768 -0.39453,6.94727 -1.10767,-0.16064 -1.26684,-0.0996 -2.8086,-0.52344 -0.53101,-0.14598 -1.22172,-0.4237 -1.78515,-0.5918 -7.51614,-14.65883 -4.4606,-22.49637 0.0312,-27.93945 1.49567,-1.81241 3.17781,-3.18004 4.82617,-4.35352 z m -7.70508,41.87891 c 0.64696,0.19307 1.3535,0.4839 1.98047,0.65625 1.48325,0.40774 2.78463,0.73296 4.09961,1.01758 -0.0407,0.50868 -0.0247,0.47105 -0.0742,1.01757 -0.28687,3.16465 -0.9211,7.11052 -1.13281,7.74415 -0.17812,0.5331 -1.52168,3.04582 -3.47656,5.80273 -1.95489,2.75691 -4.52311,6.00693 -7.27344,9.24414 -2.75277,3.24009 -5.74265,6.50194 -8.46485,9.27539 -3.33665,-11.3237 -0.12837,-19.25824 4.22266,-25.26758 4.03556,-5.57362 8.23258,-8.33662 10.11914,-9.49023 z"
       id="path4708"
       inkscape:connector-curvature="0"
       sodipodi:nodetypes="csscscccccccccccccscccscscscccccsccccscssccsssccccccccssssccssscscsccccccccccscccccscscccscccccscccccccsccsccccccsccccccsccccccccccssscccccccsccccccsscscccsscscccccsscscsscccccscccssccscccscccsccscccccccccccccccccccccccccc" />
    <path
       style="color:#000000;font-style:normal;font-variant:normal;font-weight:normal;font-stretch:normal;font-size:medium;line-height:normal;font-family:sans-serif;font-variant-ligatures:normal;font-variant-position:normal;font-variant-caps:normal;font-variant-numeric:normal;font-variant-alternates:normal;font-feature-settings:normal;text-indent:0;text-align:start;text-decoration:none;text-decoration-line:none;text-decoration-style:solid;text-decoration-color:#000000;letter-spacing:normal;word-spacing:normal;text-transform:none;writing-mode:lr-tb;direction:ltr;text-orientation:mixed;dominant-baseline:auto;baseline-shift:baseline;text-anchor:start;white-space:normal;shape-padding:0;clip-rule:nonzero;display:inline;overflow:visible;visibility:visible;opacity:1;isolation:auto;mix-blend-mode:normal;color-interpolation:sRGB;color-interpolation-filters:linearRGB;solid-color:#000000;solid-opacity:1;vector-effect:none;fill:#000000;fill-opacity:1;fill-rule:nonzero;stroke:none;stroke-width:23.95938873;stroke-linecap:butt;stroke-linejoin:miter;stroke-miterlimit:4;stroke-dasharray:none;stroke-dashoffset:0;stroke-opacity:1;color-rendering:auto;image-rendering:auto;shape-rendering:auto;text-rendering:auto;enable-background:accumulate"
       d="m 424.94336,-217.19063 c -92.33016,-0.027 -155.75762,37.0429 -192.24024,92.5 -36.48575,55.46189 -46.66762,127.88233 -38.69335,199.56836 7.97427,71.68603 34.14015,142.95488 72.76757,197.07813 38.62743,54.12324 90.63292,91.82501 149.78516,91.47265 59.12438,-0.35223 110.70623,-38.44996 149.10547,-92.75586 38.39924,-54.30589 64.5129,-125.54672 73.18555,-197.05468 8.67264,-71.50797 -0.0138,-143.54685 -33.70704,-198.78907 -33.68986,-55.23673 -93.38832,-92.33171 -180.20312,-92.01953 z m 0.0137,23.95899 h 0.0254 0.0234 c 80.18024,-0.29517 129.91213,31.72164 159.68555,80.53711 29.77342,48.81546 38.58172,115.7775 30.37695,183.42773 -8.20477,67.65023 -33.341,135.72661 -68.96484,186.10742 -35.62385,50.38081 -80.8376,82.33986 -129.6836,82.63086 -48.8181,0.2908 -94.34868,-31.28331 -130.14062,-81.43359 -35.79195,-50.15029 -60.93104,-118.15243 -68.45703,-185.8086 -7.526,-67.65617 2.59526,-134.65097 34.89648,-183.75195 32.30122,-49.10098 86.13903,-81.74009 172.23828,-81.70898 z"
       id="path10-9-5"
       inkscape:connector-curvature="0" />
    <path
       style="color:#000000;font-style:normal;font-variant:normal;font-weight:normal;font-stretch:normal;font-size:medium;line-height:normal;font-family:sans-serif;font-variant-ligatures:normal;font-variant-position:normal;font-variant-caps:normal;font-variant-numeric:normal;font-variant-alternates:normal;font-feature-settings:normal;text-indent:0;text-align:start;text-decoration:none;text-decoration-line:none;text-decoration-style:solid;text-decoration-color:#000000;letter-spacing:normal;word-spacing:normal;text-transform:none;writing-mode:lr-tb;direction:ltr;text-orientation:mixed;dominant-baseline:auto;baseline-shift:baseline;text-anchor:start;white-space:normal;shape-padding:0;clip-rule:nonzero;display:inline;overflow:visible;visibility:visible;opacity:1;isolation:auto;mix-blend-mode:normal;color-interpolation:sRGB;color-interpolation-filters:linearRGB;solid-color:#000000;solid-opacity:1;vector-effect:none;fill:#000000;fill-opacity:1;fill-rule:nonzero;stroke:none;stroke-width:11.97969437;stroke-linecap:butt;stroke-linejoin:miter;stroke-miterlimit:4;stroke-dasharray:none;stroke-dashoffset:0;stroke-opacity:1;color-rendering:auto;image-rendering:auto;shape-rendering:auto;text-rendering:auto;enable-background:accumulate"
       d="m 412.12695,71.36601 c 0,0 -1.35089,13.33353 -3.58593,27.33985 -1.11753,7.00315 -2.46359,14.17603 -3.91016,19.74804 -0.72329,2.78601 -1.48164,5.17838 -2.16016,6.82813 -0.67851,1.64974 -1.55514,2.51081 -0.92578,1.98633 -1.32563,1.10468 -2.72852,2.02742 -3.46289,4.96484 -0.36718,1.46871 -0.15826,3.65769 0.7793,5.18555 0.93756,1.52785 2.15638,2.27327 3.07812,2.70703 3.68698,1.73502 5.58102,1.06937 8.08789,0.89648 5.01376,-0.34578 10.44336,-1.46289 10.44336,-1.46289 l -2.34961,-11.74804 c 0,0 -2.56028,0.32573 -4.10937,0.58007 0.79412,-2.12946 1.54429,-4.35239 2.21289,-6.92773 1.61658,-6.22685 2.995,-13.65318 4.14648,-20.86914 2.30297,-14.43194 3.67383,-28.02344 3.67383,-28.02344 z"
       id="path971-8"
       inkscape:connector-curvature="0" />
    <path
       style="color:#000000;font-style:normal;font-variant:normal;font-weight:normal;font-stretch:normal;font-size:medium;line-height:normal;font-family:sans-serif;font-variant-ligatures:normal;font-variant-position:normal;font-variant-caps:normal;font-variant-numeric:normal;font-variant-alternates:normal;font-feature-settings:normal;text-indent:0;text-align:start;text-decoration:none;text-decoration-line:none;text-decoration-style:solid;text-decoration-color:#000000;letter-spacing:normal;word-spacing:normal;text-transform:none;writing-mode:lr-tb;direction:ltr;text-orientation:mixed;dominant-baseline:auto;baseline-shift:baseline;text-anchor:start;white-space:normal;shape-padding:0;clip-rule:nonzero;display:inline;overflow:visible;visibility:visible;opacity:1;isolation:auto;mix-blend-mode:normal;color-interpolation:sRGB;color-interpolation-filters:linearRGB;solid-color:#000000;solid-opacity:1;vector-effect:none;fill:#000000;fill-opacity:1;fill-rule:nonzero;stroke:none;stroke-width:23.95938873;stroke-linecap:butt;stroke-linejoin:miter;stroke-miterlimit:4;stroke-dasharray:none;stroke-dashoffset:0;stroke-opacity:1;color-rendering:auto;image-rendering:auto;shape-rendering:auto;text-rendering:auto;enable-background:accumulate"
       d="m 885.31641,-217.19063 c -92.33016,-0.027 -155.75763,37.0429 -192.24024,92.5 -36.48576,55.46189 -46.66567,127.88233 -38.6914,199.56836 7.97427,71.68603 34.1382,142.95489 72.76562,197.07813 38.62742,54.12324 90.63292,91.82502 149.78516,91.47265 59.12437,-0.35223 110.70624,-38.44996 149.10545,-92.75586 38.3992,-54.30589 64.5129,-125.54673 73.1856,-197.05468 8.6726,-71.50796 -0.014,-143.54685 -33.7071,-198.78907 -33.6898,-55.23672 -93.38833,-92.33171 -180.20309,-92.01953 z m 0.0137,23.95899 h 0.0254 0.0234 c 80.1802,-0.29518 129.91209,31.72165 159.68559,80.53711 29.7734,48.81546 38.5817,115.77751 30.3769,183.42773 -8.2048,67.65022 -33.3391,135.72466 -68.9629,186.10547 -35.62382,50.38081 -80.83953,82.33986 -129.68553,82.63086 -48.8181,0.2908 -94.34868,-31.28136 -130.14063,-81.43164 -35.79194,-50.15028 -60.92908,-118.15243 -68.45507,-185.8086 -7.526,-67.65616 2.59331,-134.65097 34.89453,-183.75195 32.30122,-49.10098 86.13903,-81.74009 172.23828,-81.70898 z"
       id="path10-9-5-9"
       inkscape:connector-curvature="0" />
    <path
       style="color:#000000;font-style:normal;font-variant:normal;font-weight:normal;font-stretch:normal;font-size:medium;line-height:normal;font-family:sans-serif;font-variant-ligatures:normal;font-variant-position:normal;font-variant-caps:normal;font-variant-numeric:normal;font-variant-alternates:normal;font-feature-settings:normal;text-indent:0;text-align:start;text-decoration:none;text-decoration-line:none;text-decoration-style:solid;text-decoration-color:#000000;letter-spacing:normal;word-spacing:normal;text-transform:none;writing-mode:lr-tb;direction:ltr;text-orientation:mixed;dominant-baseline:auto;baseline-shift:baseline;text-anchor:start;white-space:normal;shape-padding:0;clip-rule:nonzero;display:inline;overflow:visible;visibility:visible;opacity:1;isolation:auto;mix-blend-mode:normal;color-interpolation:sRGB;color-interpolation-filters:linearRGB;solid-color:#000000;solid-opacity:1;vector-effect:none;fill:#000000;fill-opacity:1;fill-rule:nonzero;stroke:none;stroke-width:11.97969437;stroke-linecap:butt;stroke-linejoin:miter;stroke-miterlimit:4;stroke-dasharray:none;stroke-dashoffset:0;stroke-opacity:1;color-rendering:auto;image-rendering:auto;shape-rendering:auto;text-rendering:auto;enable-background:accumulate"
       d="m 872.5,71.36601 c 0,0 -1.35089,13.33353 -3.58594,27.33985 -1.11752,7.00315 -2.46358,14.17603 -3.91015,19.74804 -0.72329,2.78601 -1.48164,5.17838 -2.16016,6.82813 -0.67852,1.64974 -1.55515,2.51081 -0.92578,1.98633 -1.32564,1.10468 -2.72853,2.02741 -3.46289,4.96484 -0.36718,1.46871 -0.15826,3.65575 0.7793,5.18359 0.93755,1.52785 2.15638,2.27523 3.07812,2.70899 3.68697,1.73502 5.58101,1.06937 8.08789,0.89648 5.01376,-0.34577 10.44336,-1.46289 10.44336,-1.46289 l -2.34961,-11.74804 c 0,0 -2.56028,0.32573 -4.10937,0.58007 0.79411,-2.12946 1.54429,-4.35239 2.21289,-6.92773 1.61657,-6.22685 2.995,-13.65318 4.14648,-20.86914 2.30297,-14.43194 3.67383,-28.02344 3.67383,-28.02344 z"
       id="path971-8-5"
       inkscape:connector-curvature="0" />
    <path
       style="color:#000000;font-style:normal;font-variant:normal;font-weight:normal;font-stretch:normal;font-size:medium;line-height:normal;font-family:sans-serif;font-variant-ligatures:normal;font-variant-position:normal;font-variant-caps:normal;font-variant-numeric:normal;font-variant-alternates:normal;font-feature-settings:normal;text-indent:0;text-align:start;text-decoration:none;text-decoration-line:none;text-decoration-style:solid;text-decoration-color:#000000;letter-spacing:normal;word-spacing:normal;text-transform:none;writing-mode:lr-tb;direction:ltr;text-orientation:mixed;dominant-baseline:auto;baseline-shift:baseline;text-anchor:start;white-space:normal;shape-padding:0;clip-rule:nonzero;display:inline;overflow:visible;visibility:visible;opacity:1;isolation:auto;mix-blend-mode:normal;color-interpolation:sRGB;color-interpolation-filters:linearRGB;solid-color:#000000;solid-opacity:1;vector-effect:none;fill:#000000;fill-opacity:1;fill-rule:nonzero;stroke:none;stroke-width:10.00811195;stroke-linecap:butt;stroke-linejoin:miter;stroke-miterlimit:4;stroke-dasharray:none;stroke-dashoffset:0;stroke-opacity:1;color-rendering:auto;image-rendering:auto;shape-rendering:auto;text-rendering:auto;enable-background:accumulate"
       d="m 818.34961,553.87968 v 29.37305 H 569.26367 v 5.00391 46.17578 h 250.63281 v 28.67969 l 68.46485,-54.16407 z m 10.00781,20.60547 43.84375,34.48633 -42.29687,33.46094 V 624.42461 H 579.27148 v -31.16407 h 249.08594 z"
       id="path2904"
       inkscape:connector-curvature="0" />
    <path
       style="color:#000000;font-style:normal;font-variant:normal;font-weight:normal;font-stretch:normal;font-size:medium;line-height:normal;font-family:sans-serif;font-variant-ligatures:normal;font-variant-position:normal;font-variant-caps:normal;font-variant-numeric:normal;font-variant-alternates:normal;font-feature-settings:normal;text-indent:0;text-align:start;text-decoration:none;text-decoration-line:none;text-decoration-style:solid;text-decoration-color:#000000;letter-spacing:normal;word-spacing:normal;text-transform:none;writing-mode:lr-tb;direction:ltr;text-orientation:mixed;dominant-baseline:auto;baseline-shift:baseline;text-anchor:start;white-space:normal;shape-padding:0;clip-rule:nonzero;display:inline;overflow:visible;visibility:visible;opacity:1;isolation:auto;mix-blend-mode:normal;color-interpolation:sRGB;color-interpolation-filters:linearRGB;solid-color:#000000;solid-opacity:1;vector-effect:none;fill:#000000;fill-opacity:1;fill-rule:nonzero;stroke:none;stroke-width:10.00811195;stroke-linecap:butt;stroke-linejoin:miter;stroke-miterlimit:4;stroke-dasharray:none;stroke-dashoffset:0;stroke-opacity:1;color-rendering:auto;image-rendering:auto;shape-rendering:auto;text-rendering:auto;enable-background:accumulate"
       d="m 1250.4403,416.62968 c -2.9713,0.10798 -6.1676,0.3331 -9.5762,0.6543 -13.6344,1.28479 -30.6379,4.13883 -49.0274,7.65235 -36.3492,6.94492 -78.0168,16.45394 -108.2988,21.62109 -5.2153,-1.9084 -10.9295,-1.59916 -16.3554,-0.59375 -6.0785,1.12632 -11.6964,3.14067 -15.6583,5.41211 -4.8953,2.80661 -8.5495,7.62594 -11.6171,11.85742 -2.8701,3.959 -4.6455,7.00357 -4.9024,7.43945 -36.92544,44.22544 -108.63629,130.56997 -109.56443,131.6875 l -40.13672,19.08594 4.29883,9.03711 42.125,-20.0293 0.70508,-0.84765 c 0,0 73.29934,-88.25769 110.39644,-132.6875 l 0.2676,-0.32227 0.211,-0.35937 c 0,0 1.952,-3.33601 4.7031,-7.13086 2.7511,-3.79486 6.6109,-7.97137 8.4902,-9.04883 2.4735,-1.41814 7.5458,-3.33519 12.5039,-4.25391 4.9581,-0.91872 9.863,-0.65883 11.9981,0.39258 l 1.4492,0.71484 1.5937,-0.26953 c 30.8961,-5.21249 73.1682,-14.90094 109.67,-21.875 18.2508,-3.48703 35.0618,-6.29029 48.0859,-7.51757 6.512,-0.61365 12.086,-0.82464 16.2773,-0.57813 4.1914,0.24651 6.9703,1.19555 7.4864,1.55469 3.0167,2.09927 9.5324,8.64565 16.7714,17.00781 7.2391,8.36216 15.5129,18.67383 23.4083,28.99023 7.8953,10.31641 15.4226,20.64814 21.1836,29.05079 2.8805,4.20132 5.3206,7.92517 7.125,10.88085 1.8043,2.95569 3.0014,5.35874 3.1914,5.90235 0.4357,1.24684 1.2134,7.49591 1.3379,15.03515 0.1244,7.53925 -0.1138,16.8272 -0.5977,26.23047 -0.24,4.66413 -0.6915,8.9041 -1.0488,13.47266 -0.9961,0.11309 -2.1468,0.52787 -3.2735,0.84961 -0.2997,-6.01612 -0.499,-12.30824 -0.9746,-17.57617 -0.8158,-9.03609 -1.5651,-15.86931 -3.5078,-20.58594 -1.6689,-4.05173 -5.4001,-10.33735 -10.6367,-18.53125 -5.2367,-8.1939 -11.8774,-17.95664 -18.916,-27.58594 -7.0387,-9.62929 -14.4612,-19.11502 -21.3262,-26.78515 -6.865,-7.67014 -12.7182,-13.52997 -18.7676,-16.19727 -2.0583,-0.90755 -3.5319,-0.87967 -5.4433,-0.91211 -1.9114,-0.0324 -4.1195,0.0816 -6.6778,0.30469 -5.1166,0.44617 -11.6098,1.33897 -19.0918,2.54297 -14.9639,2.408 -33.8396,6.06911 -52.6426,9.92383 -18.8029,3.85471 -37.5226,7.90355 -52.0878,11.07812 -14.5653,3.17457 -25.5733,5.566 -26.9258,5.78906 -5.4774,0.90335 -8.2455,-0.065 -12.6836,-1.05468 -4.4382,-0.9897 -10.3445,-1.7052 -18.3613,0.81445 -18.2221,5.72699 -25.5606,20.83984 -25.5606,20.83984 l 9.0176,4.33985 c 0,0 5.3012,-11.15618 19.5449,-15.63282 6.4044,-2.01288 9.2565,-1.46709 13.1816,-0.59179 3.9252,0.87529 9.1251,2.37483 16.4903,1.16015 3.0518,-0.50334 12.8779,-2.71509 27.4297,-5.88672 14.5517,-3.17162 33.2323,-7.21049 51.9648,-11.05078 18.7325,-3.84028 37.5271,-7.48284 52.2227,-9.84765 7.3478,-1.18241 13.6821,-2.04425 18.3711,-2.45313 2.3444,-0.20444 4.2852,-0.2925 5.6386,-0.26953 1.3535,0.023 2.2622,0.36496 1.5762,0.0625 2.6166,1.15369 8.8266,6.4332 15.3457,13.7168 6.5191,7.2836 13.799,16.56568 20.7051,26.01367 6.9061,9.44798 13.4512,19.0726 18.5625,27.07031 5.1113,7.99772 8.8917,14.70811 9.8164,16.95313 0.6509,1.58016 2.0047,8.94431 2.793,17.67578 0.5081,5.62776 0.7483,12.46396 1.0547,19.03906 -3.3203,1.59178 -7.7157,4.16862 -11.959,9.31055 -5.3824,6.52219 -8.6012,16.86238 -4.7617,29.95312 -4.6733,-1.83651 -8.8847,-3.53982 -9.7149,-3.89843 -0.9065,-1.26598 -4.5751,-6.56208 -6.7734,-15.05665 -2.4781,-9.57551 -2.6266,-21.51065 7.3789,-33.77929 0.01,-0.0109 0.2553,-0.30307 0.6172,-0.65821 0.3684,-0.36165 1.0461,-0.65693 0.25,-0.33789 l -0.02,-0.0469 7.4492,-9.11914 -10.4453,1.63867 -4.043,0.53125 c -17.6666,2.22642 -27.9109,-5.5371 -34.4863,-15.22266 -3.3873,-4.98932 -5.6131,-10.50814 -6.7989,-15.10156 -1.1857,-4.59342 -0.9922,-8.55469 -0.9922,-8.55469 0,-0.006 -0.059,-1.73131 0.1348,-4.17968 -3.9533,-0.71195 -5.293,-3.16639 -7.4238,-6.00196 -2.1143,1.58873 -2.2039,3.09076 -2.3985,4.08985 -0.1945,0.99909 -0.2168,1.80276 -0.2168,2.5332 0,0.3068 0.022,0.2875 0.033,0.56445 -9.5329,13.78093 -22.8481,21.09119 -35.3847,23.43946 -12.9245,2.42092 -24.6886,-0.78282 -29.8574,-6.14649 l -7.2071,6.94531 c 2.3624,2.45138 5.2243,4.41162 8.4024,5.96875 -1.4865,2.02535 -3.8105,4.69203 -7.795,7.73438 -9.274,7.08123 -26.3947,15.49346 -56.5019,18.54687 l 1.0098,9.95704 c 0.6516,-0.0661 1.2184,-0.16929 1.8593,-0.24024 -0.068,0.64536 -0.1771,1.22097 -0.1992,1.92578 -0.1825,5.82724 1.1464,14.0564 6.457,24.1836 2.5562,4.87452 7.8053,12.10625 12.9922,19.12695 5.187,7.0207 10.3529,13.77671 11.6368,15.63477 0.1721,0.24912 0.4103,2.71278 0.9433,7.05273 0.1533,1.24849 0.4471,2.64259 0.8457,4.09375 -1.3857,-0.40226 -1.3944,-0.32092 -2.8652,-0.79102 -3.6272,-1.15931 -7.3383,-2.51082 -10.1621,-3.84179 -2.8239,-1.33098 -4.639,-3.15014 -4.3418,-2.64258 -1.9467,-3.32448 -5.066,-5.96456 -9.6934,-9.5625 -4.6274,-3.59794 -10.5796,-7.57252 -17.289,-11.15039 -13.4189,-7.15575 -29.8779,-13.03826 -44.9981,-9.46875 l 2.2988,9.74023 c 10.9081,-2.57512 25.6756,1.99358 37.9903,8.56055 6.1573,3.28348 11.6981,6.98826 15.8554,10.2207 4.1574,3.23244 7.1155,6.57376 7.1993,6.7168 2.1375,3.65057 5.2217,4.99513 8.7128,6.64062 3.4912,1.6455 7.5082,3.08252 11.3809,4.32032 7.7454,2.47559 14.9473,4.12109 14.9473,4.12109 0.8056,-0.02 1.6504,-0.0405 2.4687,-0.0605 18.571,-5.21581 36.6652,-9.56736 50.4199,-11.72265 6.8774,-1.07765 12.6954,-1.58869 16.6895,-1.45703 1.997,0.0658 3.5353,0.30904 4.3672,0.5625 0.8319,0.25345 0.7341,0.46876 0.3808,-0.0684 l 8.3614,-5.5 c -0.4243,-0.64517 -0.9988,-1.01163 -1.5196,-1.48243 2.1448,-2.39818 5.2384,-4.9028 9.1817,-7.20507 5.9665,-3.48348 13.4404,-6.54813 20.6972,-9.01172 13.3691,-4.5386 24.784,-6.80653 26.6758,-7.17578 1.1189,0.48332 5.7228,2.41844 11.7754,4.72656 -2.2847,2.02779 -4.6738,4.3847 -6.9082,7.4707 -6.2404,8.61883 -10.4201,22.17683 -4.0508,38.51563 -2.0951,1.86018 -4.0515,4.15403 -6.3164,7.05273 -2.6627,3.4079 -5.5541,7.39435 -8.3672,11.27149 -2.813,3.87713 -5.5512,7.649 -7.8066,10.52148 -1.1277,1.43624 -2.1387,2.6494 -2.916,3.48828 -0.7773,0.83888 -1.5068,1.30899 -1.0547,1.06055 0.2355,-0.12941 -0.945,0.39145 -2.5176,0.87109 -1.5726,0.47964 -3.7181,1.06956 -6.3086,1.73438 -5.1809,1.32964 -12.1545,2.96812 -20.2656,4.78906 -16.2223,3.64187 -37.0151,8.01972 -57.5117,12.23438 -40.9932,8.4293 -80.8086,16.20703 -80.8086,16.20703 l -1.7442,0.34179 -1.1386,1.36328 c 0,0 -6.9148,8.46304 -23.2383,14.10544 -16.3235,5.6423 -41.7678,8.1709 -78.49609,-5.7989 l -1.48828,-0.5644 -1.54102,0.3965 c -23.18503,5.9833 -38.38156,11.2849 -47.86328,15.1386 -9.48173,3.8537 -13.56836,6.4668 -13.56836,6.4668 l 5.46094,8.3867 c 0,0 2.88332,-1.9275 11.875,-5.582 8.77555,-3.5667 23.3271,-8.6096 45.22656,-14.3242 37.68483,13.9531 65.40733,11.6504 83.66403,5.3398 14.8966,-5.149 23.4216,-12.8339 26.3067,-15.7558 1.4718,-0.2877 39.0934,-7.63613 79.3691,-15.91791 20.5279,-4.22109 41.3547,-8.6048 57.6875,-12.27149 8.1664,-1.83334 15.204,-3.48661 20.5606,-4.86132 2.6782,-0.68736 4.9338,-1.30393 6.7421,-1.85547 1.8084,-0.55154 2.9894,-0.88796 4.4161,-1.67188 1.6495,-0.9064 2.4917,-1.85899 3.5761,-3.02929 1.0845,-1.1703 2.2246,-2.55157 3.4492,-4.11133 2.4494,-3.11954 5.2231,-6.94833 8.0352,-10.82422 2.8121,-3.87589 5.6591,-7.79529 8.1523,-10.98633 2.4929,-3.19049 4.8695,-5.74638 5.6172,-6.32031 4.7413,-3.63743 11.0418,-10.24814 16.8379,-17.07031 2.8981,-3.41109 5.6157,-6.83819 7.8106,-9.9336 2.1949,-3.0954 3.8656,-5.60941 4.8047,-8.41992 1.0292,-3.08042 1.2999,-6.61982 1.6074,-10.01172 0.2416,-2.66549 0.3058,-4.05603 0.3555,-4.94531 1.2813,-1.79226 7.1877,-10.24487 9.9804,-21.10938 2.2483,-8.74567 4.0307,-27.77444 5.0157,-46.91601 0.4924,-9.57079 0.7414,-19.02682 0.6113,-26.91016 -0.1302,-7.88334 -0.3471,-13.73489 -1.8985,-18.17383 -0.8035,-2.29928 -2.149,-4.6257 -4.0957,-7.81445 -1.9466,-3.18875 -4.4662,-7.02476 -7.414,-11.32422 -5.8956,-8.59891 -13.5007,-19.03521 -21.4903,-29.47461 -7.9895,-10.4394 -16.3539,-20.87262 -23.7871,-29.45898 -7.4331,-8.58636 -13.6214,-15.19144 -18.623,-18.67188 -3.4931,-2.43071 -7.5962,-3.03684 -12.6153,-3.33203 -2.5095,-0.14759 -5.2552,-0.1568 -8.2265,-0.0488 z m -9.5957,112.29102 c 1.46,5.57641 4.0332,11.97334 8.1406,18.02344 6.954,10.24316 18.8969,19.22218 35.6269,19.86719 -6.3941,12.24749 -6.1778,24.57738 -3.7363,34.01171 1.3897,5.36983 3.4218,9.82206 5.2266,13.20899 -5.5071,1.2463 -13.0749,3.1282 -22.4317,6.30469 -7.6543,2.59855 -15.6468,5.82856 -22.5273,9.8457 -5.8034,3.38823 -10.8402,7.36208 -14.0801,12.43555 -0.4439,-0.028 -0.8531,-0.0883 -1.3144,-0.10352 -5.1052,-0.16829 -11.3405,0.44164 -18.5684,1.57422 -13.6223,2.13454 -30.7598,6.27491 -48.4141,11.1543 -1.9954,-2.71674 -2.5558,-5.07951 -2.873,-7.66211 -0.3985,-3.24515 0.3203,-7.23079 -2.6445,-11.52149 -1.8531,-2.68178 -6.7039,-8.96722 -11.8204,-15.89258 -5.1164,-6.92536 -10.456,-14.54498 -12.1777,-17.82812 -4.6047,-8.78093 -5.4454,-15.16418 -5.3183,-19.2207 0.055,-1.76135 0.262,-2.79266 0.455,-3.6211 24.4215,-4.01958 39.9709,-11.6905 49.4492,-18.92773 5.4825,-4.18614 8.9304,-8.18892 10.959,-11.2793 0.2979,-0.45379 0.3796,-0.78675 0.6192,-1.19727 6.3834,1.22339 13.4384,1.20759 20.6465,-0.14257 12.0351,-2.25433 24.5605,-8.39558 34.7832,-19.0293 z m 95.2988,56.08203 c -0.5664,5.77003 -1.1259,11.01604 -1.7266,14.97461 -0.036,-4.08078 0.071,-7.38343 -0.057,-11.75977 -0.021,-0.70404 -0.091,-1.34004 -0.1132,-2.04687 0.6693,-0.48929 1.2984,-0.93215 1.8964,-1.16797 z m -11.7832,4.33203 c 0.2733,9.88062 0.3313,19.45729 0.1309,26.46094 -0.085,2.95828 -0.2362,5.08768 -0.3946,6.94727 -1.1076,-0.16064 -1.2668,-0.0996 -2.8086,-0.52344 -0.531,-0.14598 -1.2217,-0.4237 -1.7851,-0.5918 -7.5162,-14.65883 -4.4606,-22.49637 0.031,-27.93945 1.4956,-1.81241 3.1778,-3.18004 4.8261,-4.35352 z m -7.7051,41.87891 c 0.647,0.19307 1.3535,0.4839 1.9805,0.65625 1.4832,0.40774 2.7846,0.73296 4.0996,1.01758 -0.041,0.50868 -0.025,0.47105 -0.074,1.01757 -0.2869,3.16465 -0.9211,7.11052 -1.1328,7.74415 -0.1781,0.5331 -1.5217,3.04582 -3.4766,5.80273 -1.9549,2.75691 -4.5231,6.00693 -7.2734,9.24414 -2.7528,3.24009 -5.7427,6.50194 -8.4649,9.27539 -3.3366,-11.3237 -0.1283,-19.25824 4.2227,-25.26758 4.0356,-5.57362 8.2326,-8.33662 10.1191,-9.49023 z"
       id="path4708-7"
       inkscape:connector-curvature="0"
       sodipodi:nodetypes="csscscccccccccccccscccscscscccccsccccscssccsssccccccccssssccssscscsccccccccccscccccscscccscccccscccccccsccsccccccsccccccsccccccccccssscccccccsccccccsscscccsscscccccsscscsscccccscccssccscccscccsccscccccccccccccccccccccccccc" />
    <path
       inkscape:connector-curvature="0"
       id="path59-1-8-3-29-8"
       d="M 800.36984,6.1244 C 784.2313,5.54403 767.35307,12.03615 747.5321,26.67639 l 7.11241,9.62984 c 18.58842,-13.7297 32.62409,-18.67328 45.29418,-18.21769 12.6701,0.45576 24.8866,6.44275 39.47684,16.90884 l 6.97776,-9.72663 C 830.99605,14.22604 816.50919,6.70477 800.36984,6.1244 Z"
       style="color:#000000;font-style:normal;font-variant:normal;font-weight:normal;font-stretch:normal;font-size:medium;line-height:normal;font-family:sans-serif;font-variant-ligatures:normal;font-variant-position:normal;font-variant-caps:normal;font-variant-numeric:normal;font-variant-alternates:normal;font-feature-settings:normal;text-indent:0;text-align:start;text-decoration:none;text-decoration-line:none;text-decoration-style:solid;text-decoration-color:#000000;letter-spacing:normal;word-spacing:normal;text-transform:none;writing-mode:lr-tb;direction:ltr;text-orientation:mixed;dominant-baseline:auto;baseline-shift:baseline;text-anchor:start;white-space:normal;shape-padding:0;clip-rule:nonzero;display:inline;overflow:visible;visibility:visible;opacity:1;isolation:auto;mix-blend-mode:normal;color-interpolation:sRGB;color-interpolation-filters:linearRGB;solid-color:#000000;solid-opacity:1;vector-effect:none;fill:#000000;fill-opacity:1;fill-rule:nonzero;stroke:none;stroke-width:11.97152424;stroke-linecap:butt;stroke-linejoin:miter;stroke-miterlimit:4;stroke-dasharray:none;stroke-dashoffset:0;stroke-opacity:1;color-rendering:auto;image-rendering:auto;shape-rendering:auto;text-rendering:auto;enable-background:accumulate" />
    <path
       inkscape:connector-curvature="0"
       id="path29-2-7-1"
       d="m 962.67842,249.46935 c -45.57383,-44.86463 -84.80543,-46.64518 -114.74644,-37.18845 -14.97091,4.72841 -27.59692,12.50493 -36.98208,19.64899 -9.38517,7.14398 -15.26263,13.37884 -17.72211,15.81566 l -8.4251,-8.50556 c 1.89531,-1.87799 8.73363,-9.10034 18.89535,-16.83576 10.16253,-7.7354 23.91772,-16.26091 40.62926,-21.53907 33.42307,-10.55649 78.76613,-7.16497 126.7498,40.07299 z"
       style="color:#000000;font-style:normal;font-variant:normal;font-weight:normal;font-stretch:normal;font-size:medium;line-height:normal;font-family:sans-serif;font-variant-ligatures:normal;font-variant-position:normal;font-variant-caps:normal;font-variant-numeric:normal;font-variant-alternates:normal;font-feature-settings:normal;text-indent:0;text-align:start;text-decoration:none;text-decoration-line:none;text-decoration-style:solid;text-decoration-color:#000000;letter-spacing:normal;word-spacing:normal;text-transform:none;writing-mode:lr-tb;direction:ltr;text-orientation:mixed;dominant-baseline:auto;baseline-shift:baseline;text-anchor:start;white-space:normal;shape-padding:0;clip-rule:nonzero;display:inline;overflow:visible;visibility:visible;opacity:1;isolation:auto;mix-blend-mode:normal;color-interpolation:sRGB;color-interpolation-filters:linearRGB;solid-color:#000000;solid-opacity:1;vector-effect:none;fill:#000000;fill-opacity:1;fill-rule:nonzero;stroke:none;stroke-width:11.97152424;stroke-linecap:butt;stroke-linejoin:miter;stroke-miterlimit:4;stroke-dasharray:none;stroke-dashoffset:0;stroke-opacity:1;color-rendering:auto;image-rendering:auto;shape-rendering:auto;text-rendering:auto;enable-background:accumulate" />
    <path
       inkscape:connector-curvature="0"
       id="path1039-2-2-0"
       d="m 734.0492,-70.99807 -6.771,13.22362 c 0,0 29.96264,15.33986 60.2154,30.68446 15.12637,7.67226 30.32327,15.34595 41.90427,21.11313 5.79089,2.88359 10.673,5.28883 14.2256,6.99572 1.77669,0.8534 3.21279,1.52803 4.32514,2.02721 0.55617,0.24964 1.02018,0.4528 1.49701,0.64161 0.23801,0.0945 0.46961,0.18503 0.82063,0.29795 0.35101,0.113 0.32216,0.40038 2.4659,0.40038 v -14.85598 c 2.07401,0 1.91614,0.25861 2.08444,0.31262 0.16749,0.0537 0.16027,0.0562 0.10577,0.0345 -0.10898,-0.0433 -0.44557,-0.18416 -0.89034,-0.38387 -0.89036,-0.39941 -2.25914,-1.04246 -3.97414,-1.86629 -3.42997,-1.64791 -8.27843,-4.03504 -14.03727,-6.90252 -11.51688,-5.73504 -26.69776,-13.39808 -41.8073,-21.06192 -30.2191,-15.32785 -60.16411,-30.66074 -60.16411,-30.66074 z"
       style="color:#000000;font-style:normal;font-variant:normal;font-weight:normal;font-stretch:normal;font-size:medium;line-height:normal;font-family:sans-serif;font-variant-ligatures:normal;font-variant-position:normal;font-variant-caps:normal;font-variant-numeric:normal;font-variant-alternates:normal;font-feature-settings:normal;text-indent:0;text-align:start;text-decoration:none;text-decoration-line:none;text-decoration-style:solid;text-decoration-color:#000000;letter-spacing:normal;word-spacing:normal;text-transform:none;writing-mode:lr-tb;direction:ltr;text-orientation:mixed;dominant-baseline:auto;baseline-shift:baseline;text-anchor:start;white-space:normal;shape-padding:0;clip-rule:nonzero;display:inline;overflow:visible;visibility:visible;opacity:1;isolation:auto;mix-blend-mode:normal;color-interpolation:sRGB;color-interpolation-filters:linearRGB;solid-color:#000000;solid-opacity:1;vector-effect:none;fill:#000000;fill-opacity:1;fill-rule:nonzero;stroke:none;stroke-width:14.85576248;stroke-linecap:butt;stroke-linejoin:miter;stroke-miterlimit:4;stroke-dasharray:none;stroke-dashoffset:0;stroke-opacity:1;color-rendering:auto;image-rendering:auto;shape-rendering:auto;text-rendering:auto;enable-background:accumulate" />
    <path
       inkscape:connector-curvature="0"
       id="path59-1-8-3-29-8-3"
       d="m 954.73902,6.1244 c 16.13855,-0.58037 33.01675,5.91175 52.83778,20.55199 l -7.1124,9.62984 C 981.87596,22.57653 967.84022,17.63295 955.17016,18.08854 942.5001,18.5443 930.28355,24.53129 915.69333,34.99738 l -6.97776,-9.72663 C 924.11281,14.22604 938.59966,6.70477 954.73902,6.1244 Z"
       style="color:#000000;font-style:normal;font-variant:normal;font-weight:normal;font-stretch:normal;font-size:medium;line-height:normal;font-family:sans-serif;font-variant-ligatures:normal;font-variant-position:normal;font-variant-caps:normal;font-variant-numeric:normal;font-variant-alternates:normal;font-feature-settings:normal;text-indent:0;text-align:start;text-decoration:none;text-decoration-line:none;text-decoration-style:solid;text-decoration-color:#000000;letter-spacing:normal;word-spacing:normal;text-transform:none;writing-mode:lr-tb;direction:ltr;text-orientation:mixed;dominant-baseline:auto;baseline-shift:baseline;text-anchor:start;white-space:normal;shape-padding:0;clip-rule:nonzero;display:inline;overflow:visible;visibility:visible;opacity:1;isolation:auto;mix-blend-mode:normal;color-interpolation:sRGB;color-interpolation-filters:linearRGB;solid-color:#000000;solid-opacity:1;vector-effect:none;fill:#000000;fill-opacity:1;fill-rule:nonzero;stroke:none;stroke-width:11.97152424;stroke-linecap:butt;stroke-linejoin:miter;stroke-miterlimit:4;stroke-dasharray:none;stroke-dashoffset:0;stroke-opacity:1;color-rendering:auto;image-rendering:auto;shape-rendering:auto;text-rendering:auto;enable-background:accumulate" />
    <path
       inkscape:connector-curvature="0"
       id="path1039-2-2-0-35"
       d="m 1021.0597,-70.99807 6.771,13.22362 c 0,0 -29.9626,15.33986 -60.21531,30.68446 -15.1264,7.67226 -30.32333,15.34595 -41.90442,21.11313 -5.7908,2.88359 -10.673,5.28883 -14.2255,6.99572 -1.7767,0.8534 -3.2128,1.52803 -4.3252,2.02721 -0.5562,0.24964 -1.0202,0.4528 -1.497,0.64161 -0.2381,0.0945 -0.4697,0.18503 -0.8207,0.29795 -0.351,0.113 -0.3221,0.40038 -2.4658,0.40038 v -14.85598 c -2.074,0 -1.9161,0.25861 -2.0844,0.31262 -0.1676,0.0537 -0.1604,0.0562 -0.1059,0.0345 0.109,-0.0433 0.4457,-0.18416 0.8904,-0.38387 0.8904,-0.39941 2.2591,-1.04246 3.9742,-1.86629 3.4299,-1.64791 8.2783,-4.03504 14.0372,-6.90252 11.51694,-5.73504 26.69778,-13.39808 41.80739,-21.06192 30.21901,-15.32785 60.16404,-30.66074 60.16404,-30.66074 z"
       style="color:#000000;font-style:normal;font-variant:normal;font-weight:normal;font-stretch:normal;font-size:medium;line-height:normal;font-family:sans-serif;font-variant-ligatures:normal;font-variant-position:normal;font-variant-caps:normal;font-variant-numeric:normal;font-variant-alternates:normal;font-feature-settings:normal;text-indent:0;text-align:start;text-decoration:none;text-decoration-line:none;text-decoration-style:solid;text-decoration-color:#000000;letter-spacing:normal;word-spacing:normal;text-transform:none;writing-mode:lr-tb;direction:ltr;text-orientation:mixed;dominant-baseline:auto;baseline-shift:baseline;text-anchor:start;white-space:normal;shape-padding:0;clip-rule:nonzero;display:inline;overflow:visible;visibility:visible;opacity:1;isolation:auto;mix-blend-mode:normal;color-interpolation:sRGB;color-interpolation-filters:linearRGB;solid-color:#000000;solid-opacity:1;vector-effect:none;fill:#000000;fill-opacity:1;fill-rule:nonzero;stroke:none;stroke-width:14.85576248;stroke-linecap:butt;stroke-linejoin:miter;stroke-miterlimit:4;stroke-dasharray:none;stroke-dashoffset:0;stroke-opacity:1;color-rendering:auto;image-rendering:auto;shape-rendering:auto;text-rendering:auto;enable-background:accumulate" />
    <path
       inkscape:connector-curvature="0"
       id="path59-1-8-3-29-8-4"
       d="m 339.99678,6.1244 c -16.13854,-0.58037 -33.01677,5.91175 -52.83774,20.55199 l 7.11241,9.62984 c 18.58842,-13.7297 32.62409,-18.67328 45.29418,-18.21769 12.6701,0.45576 24.8866,6.44275 39.47685,16.90884 l 6.97776,-9.72663 C 370.623,14.22604 356.13613,6.70477 339.99678,6.1244 Z"
       style="color:#000000;font-style:normal;font-variant:normal;font-weight:normal;font-stretch:normal;font-size:medium;line-height:normal;font-family:sans-serif;font-variant-ligatures:normal;font-variant-position:normal;font-variant-caps:normal;font-variant-numeric:normal;font-variant-alternates:normal;font-feature-settings:normal;text-indent:0;text-align:start;text-decoration:none;text-decoration-line:none;text-decoration-style:solid;text-decoration-color:#000000;letter-spacing:normal;word-spacing:normal;text-transform:none;writing-mode:lr-tb;direction:ltr;text-orientation:mixed;dominant-baseline:auto;baseline-shift:baseline;text-anchor:start;white-space:normal;shape-padding:0;clip-rule:nonzero;display:inline;overflow:visible;visibility:visible;opacity:1;isolation:auto;mix-blend-mode:normal;color-interpolation:sRGB;color-interpolation-filters:linearRGB;solid-color:#000000;solid-opacity:1;vector-effect:none;fill:#000000;fill-opacity:1;fill-rule:nonzero;stroke:none;stroke-width:11.97152424;stroke-linecap:butt;stroke-linejoin:miter;stroke-miterlimit:4;stroke-dasharray:none;stroke-dashoffset:0;stroke-opacity:1;color-rendering:auto;image-rendering:auto;shape-rendering:auto;text-rendering:auto;enable-background:accumulate" />
    <path
       inkscape:connector-curvature="0"
       id="path29-2-7-1-6"
       d="m 502.30537,249.46935 c -45.57383,-44.86463 -84.80543,-46.64518 -114.74644,-37.18845 -14.97091,4.72841 -27.59693,12.50493 -36.98209,19.64899 -9.38517,7.14398 -15.26263,13.37884 -17.72211,15.81566 l -8.4251,-8.50556 c 1.89531,-1.87799 8.73363,-9.10034 18.89535,-16.83576 10.16253,-7.7354 23.91773,-16.26091 40.62927,-21.53907 33.42307,-10.55649 78.76613,-7.16497 126.7498,40.07299 z"
       style="color:#000000;font-style:normal;font-variant:normal;font-weight:normal;font-stretch:normal;font-size:medium;line-height:normal;font-family:sans-serif;font-variant-ligatures:normal;font-variant-position:normal;font-variant-caps:normal;font-variant-numeric:normal;font-variant-alternates:normal;font-feature-settings:normal;text-indent:0;text-align:start;text-decoration:none;text-decoration-line:none;text-decoration-style:solid;text-decoration-color:#000000;letter-spacing:normal;word-spacing:normal;text-transform:none;writing-mode:lr-tb;direction:ltr;text-orientation:mixed;dominant-baseline:auto;baseline-shift:baseline;text-anchor:start;white-space:normal;shape-padding:0;clip-rule:nonzero;display:inline;overflow:visible;visibility:visible;opacity:1;isolation:auto;mix-blend-mode:normal;color-interpolation:sRGB;color-interpolation-filters:linearRGB;solid-color:#000000;solid-opacity:1;vector-effect:none;fill:#000000;fill-opacity:1;fill-rule:nonzero;stroke:none;stroke-width:11.97152424;stroke-linecap:butt;stroke-linejoin:miter;stroke-miterlimit:4;stroke-dasharray:none;stroke-dashoffset:0;stroke-opacity:1;color-rendering:auto;image-rendering:auto;shape-rendering:auto;text-rendering:auto;enable-background:accumulate" />
    <path
       inkscape:connector-curvature="0"
       id="path1039-2-2-0-3"
       d="m 273.67614,-70.99807 -6.771,13.22362 c 0,0 29.96265,15.33986 60.21541,30.68446 15.12637,7.67226 30.32327,15.34595 41.90427,21.11313 5.79089,2.88359 10.673,5.28883 14.2256,6.99572 1.77669,0.8534 3.21279,1.52803 4.32514,2.02721 0.55617,0.24964 1.02018,0.4528 1.49701,0.64161 0.23801,0.0945 0.46961,0.18503 0.82063,0.29795 0.35101,0.113 0.32216,0.40038 2.4659,0.40038 v -14.85598 c 2.07401,0 1.91614,0.25861 2.08444,0.31262 0.16749,0.0537 0.16027,0.0562 0.10577,0.0345 -0.10898,-0.0433 -0.44557,-0.18416 -0.89034,-0.38387 -0.89036,-0.39941 -2.25914,-1.04246 -3.97414,-1.86629 -3.42997,-1.64791 -8.27843,-4.03504 -14.03727,-6.90252 -11.51688,-5.73504 -26.69776,-13.39808 -41.8073,-21.06192 -30.2191,-15.32785 -60.16412,-30.66074 -60.16412,-30.66074 z"
       style="color:#000000;font-style:normal;font-variant:normal;font-weight:normal;font-stretch:normal;font-size:medium;line-height:normal;font-family:sans-serif;font-variant-ligatures:normal;font-variant-position:normal;font-variant-caps:normal;font-variant-numeric:normal;font-variant-alternates:normal;font-feature-settings:normal;text-indent:0;text-align:start;text-decoration:none;text-decoration-line:none;text-decoration-style:solid;text-decoration-color:#000000;letter-spacing:normal;word-spacing:normal;text-transform:none;writing-mode:lr-tb;direction:ltr;text-orientation:mixed;dominant-baseline:auto;baseline-shift:baseline;text-anchor:start;white-space:normal;shape-padding:0;clip-rule:nonzero;display:inline;overflow:visible;visibility:visible;opacity:1;isolation:auto;mix-blend-mode:normal;color-interpolation:sRGB;color-interpolation-filters:linearRGB;solid-color:#000000;solid-opacity:1;vector-effect:none;fill:#000000;fill-opacity:1;fill-rule:nonzero;stroke:none;stroke-width:14.85576248;stroke-linecap:butt;stroke-linejoin:miter;stroke-miterlimit:4;stroke-dasharray:none;stroke-dashoffset:0;stroke-opacity:1;color-rendering:auto;image-rendering:auto;shape-rendering:auto;text-rendering:auto;enable-background:accumulate" />
    <path
       inkscape:connector-curvature="0"
       id="path59-1-8-3-29-8-3-4"
       d="m 494.36597,6.1244 c 16.13855,-0.58037 33.01675,5.91175 52.83778,20.55199 l -7.1124,9.62984 C 521.50291,22.57653 507.46717,17.63295 494.79711,18.08854 482.12705,18.5443 469.9105,24.53129 455.32028,34.99738 l -6.97776,-9.72663 C 463.73976,14.22604 478.22661,6.70477 494.36597,6.1244 Z"
       style="color:#000000;font-style:normal;font-variant:normal;font-weight:normal;font-stretch:normal;font-size:medium;line-height:normal;font-family:sans-serif;font-variant-ligatures:normal;font-variant-position:normal;font-variant-caps:normal;font-variant-numeric:normal;font-variant-alternates:normal;font-feature-settings:normal;text-indent:0;text-align:start;text-decoration:none;text-decoration-line:none;text-decoration-style:solid;text-decoration-color:#000000;letter-spacing:normal;word-spacing:normal;text-transform:none;writing-mode:lr-tb;direction:ltr;text-orientation:mixed;dominant-baseline:auto;baseline-shift:baseline;text-anchor:start;white-space:normal;shape-padding:0;clip-rule:nonzero;display:inline;overflow:visible;visibility:visible;opacity:1;isolation:auto;mix-blend-mode:normal;color-interpolation:sRGB;color-interpolation-filters:linearRGB;solid-color:#000000;solid-opacity:1;vector-effect:none;fill:#000000;fill-opacity:1;fill-rule:nonzero;stroke:none;stroke-width:11.97152424;stroke-linecap:butt;stroke-linejoin:miter;stroke-miterlimit:4;stroke-dasharray:none;stroke-dashoffset:0;stroke-opacity:1;color-rendering:auto;image-rendering:auto;shape-rendering:auto;text-rendering:auto;enable-background:accumulate" />
    <path
       inkscape:connector-curvature="0"
       id="path1039-2-2-0-35-2"
       d="m 560.68668,-70.99807 6.77101,13.22362 c 0,0 -29.96264,15.33986 -60.21535,30.68446 -15.1264,7.67226 -30.32333,15.34595 -41.90442,21.11313 -5.7908,2.88359 -10.673,5.28883 -14.2255,6.99572 -1.7767,0.8534 -3.2128,1.52803 -4.3252,2.02721 -0.5562,0.24964 -1.0202,0.4528 -1.497,0.64161 -0.2381,0.0945 -0.4697,0.18503 -0.8207,0.29795 -0.351,0.113 -0.3221,0.40038 -2.4658,0.40038 v -14.85598 c -2.074,0 -1.9161,0.25861 -2.0844,0.31262 -0.1676,0.0537 -0.1604,0.0562 -0.1059,0.0345 0.109,-0.0433 0.4457,-0.18416 0.8904,-0.38387 0.8904,-0.39941 2.2591,-1.04246 3.9742,-1.86629 3.4299,-1.64791 8.2783,-4.03504 14.0372,-6.90252 11.51694,-5.73504 26.69778,-13.39808 41.80739,-21.06192 30.21901,-15.32785 60.16407,-30.66074 60.16407,-30.66074 z"
       style="color:#000000;font-style:normal;font-variant:normal;font-weight:normal;font-stretch:normal;font-size:medium;line-height:normal;font-family:sans-serif;font-variant-ligatures:normal;font-variant-position:normal;font-variant-caps:normal;font-variant-numeric:normal;font-variant-alternates:normal;font-feature-settings:normal;text-indent:0;text-align:start;text-decoration:none;text-decoration-line:none;text-decoration-style:solid;text-decoration-color:#000000;letter-spacing:normal;word-spacing:normal;text-transform:none;writing-mode:lr-tb;direction:ltr;text-orientation:mixed;dominant-baseline:auto;baseline-shift:baseline;text-anchor:start;white-space:normal;shape-padding:0;clip-rule:nonzero;display:inline;overflow:visible;visibility:visible;opacity:1;isolation:auto;mix-blend-mode:normal;color-interpolation:sRGB;color-interpolation-filters:linearRGB;solid-color:#000000;solid-opacity:1;vector-effect:none;fill:#000000;fill-opacity:1;fill-rule:nonzero;stroke:none;stroke-width:14.85576248;stroke-linecap:butt;stroke-linejoin:miter;stroke-miterlimit:4;stroke-dasharray:none;stroke-dashoffset:0;stroke-opacity:1;color-rendering:auto;image-rendering:auto;shape-rendering:auto;text-rendering:auto;enable-background:accumulate" />
    <path
       inkscape:connector-curvature="0"
       style="font-style:normal;font-weight:normal;font-size:233.33332825px;line-height:1.25;font-family:sans-serif;letter-spacing:0px;word-spacing:0px;fill:#000000;fill-opacity:1;stroke:none"
       d="m 426.72656,855.70765 c -11.69705,0 -22.52061,1.9742 -32.4707,5.9238 -9.87413,3.9497 -18.15191,9.6463 -24.83594,17.0899 -6.98785,7.8233 -12.30534,17.2424 -15.95117,28.2558 -3.64583,10.9375 -5.46875,23.3188 -5.46875,37.1426 0,14.0517 1.82292,26.5449 5.46875,37.4824 3.72179,10.9375 9,20.16605 15.83594,27.68555 6.83593,7.5196 15.11567,13.2554 24.83789,17.2052 9.79817,3.9496 20.65907,5.9238 32.58398,5.9238 12.22873,0 23.09158,-1.9368 32.58594,-5.8105 9.57031,-3.8738 17.84809,-9.647 24.83594,-17.3185 6.75998,-7.3675 12.00087,-16.55685 15.72265,-27.57025 3.79775,-11.0894 5.69727,-23.622 5.69727,-37.5977 0,-13.9757 -1.86024,-26.4709 -5.58203,-37.4843 -3.64584,-11.0135 -8.926,-20.3186 -15.83789,-27.9141 -6.75998,-7.3676 -15.00044,-13.025 -24.72266,-16.9746 -9.64627,-4.0256 -20.54644,-6.0391 -32.69922,-6.0391 z m 374.04102,9.3418 v 36.5723 h -14.4707 v 18.0019 h 14.4707 v 67.6758 c 0,15.41875 3.37869,26.62145 10.13867,33.60935 6.75998,6.9879 16.63477,10.4825 29.62305,10.4825 3.72178,0 7.93728,-0.3418 12.64648,-1.0254 4.78516,-0.6837 9.19119,-1.5578 13.2168,-2.6212 v -19.2539 h -1.14063 c -1.671,0.6836 -4.40538,1.5577 -8.20312,2.6211 -3.79774,0.9874 -7.44358,1.4805 -10.9375,1.4805 -6.00044,0 -10.48112,-0.6836 -13.44336,-2.0508 -2.88629,-1.4431 -5.16493,-3.6845 -6.83594,-6.7227 -1.82292,-3.266 -2.88563,-6.75855 -3.18945,-10.48035 -0.30382,-3.7978 -0.45703,-9.0387 -0.45703,-15.7227 v -57.9922 h 44.20703 v -18.0019 h -44.20703 v -36.5723 z m -373.92578,10.1406 c 17.08984,0 30.57118,6.0011 40.44531,18.002 9.87413,11.9249 14.81055,28.9008 14.81055,50.9277 0,22.2548 -5.01302,39.3054 -15.03907,51.1543 -9.95008,11.77305 -23.35481,17.66025 -40.21679,17.66025 -16.86198,0 -30.30599,-5.8873 -40.33203,-17.66025 -10.02605,-11.8489 -15.03907,-28.8995 -15.03907,-51.1543 0,-22.0269 4.89909,-39.0028 14.69727,-50.9277 9.87413,-12.0009 23.43207,-18.002 40.67383,-18.002 z m 165.65625,22.9004 c -18.53299,0 -33.49545,6.115 -44.88867,18.3438 -11.31728,12.2287 -16.97657,28.7489 -16.97657,49.5605 0,21.0395 5.92448,37.29255 17.77344,48.76165 11.84896,11.3934 28.33181,17.0899 49.44727,17.0899 8.27908,0 16.17773,-1.0254 23.69726,-3.0762 7.51953,-2.0508 14.88781,-4.5945 22.10352,-7.6328 v -23.35545 h -1.13868 c -3.72178,3.34195 -9.98806,6.75995 -18.79882,10.25385 -8.73481,3.418 -17.43295,5.127 -26.0918,5.127 -6.53212,0 -12.53125,-0.9114 -18,-2.7344 -5.3928,-1.8228 -10.06402,-4.5573 -14.01367,-8.2031 -4.10156,-3.72175 -7.33095,-8.46955 -9.68555,-14.24215 -2.3546,-5.8485 -3.53125,-12.6845 -3.53125,-20.5078 h 93.76563 v -11.6211 c 0,-18.457 -4.67123,-32.6986 -14.01368,-42.7246 -9.26649,-10.0261 -22.48263,-15.0391 -39.64843,-15.0391 z m 352.73437,0 c -18.53298,0 -33.49544,6.115 -44.88867,18.3438 -11.31727,12.2287 -16.97656,28.7489 -16.97656,49.5605 0,21.0395 5.92448,37.29255 17.77343,48.76165 11.84896,11.3934 28.33182,17.0899 49.44727,17.0899 8.27908,0 16.17774,-1.0254 23.69727,-3.0762 7.51953,-2.0508 14.8878,-4.5945 22.10351,-7.6328 V 997.78185 H 995.25 c -3.72179,3.34195 -9.98806,6.75995 -18.79883,10.25385 -8.73481,3.418 -17.43294,5.127 -26.09179,5.127 -6.53212,0 -12.53126,-0.9114 -18,-2.7344 -5.3928,-1.8228 -10.06402,-4.5573 -14.01368,-8.2031 -4.10156,-3.72175 -7.33094,-8.46955 -9.68554,-14.24215 -2.3546,-5.8485 -3.53125,-12.6845 -3.53125,-20.5078 h 93.76562 v -11.6211 c 0,-18.457 -4.67121,-32.6986 -14.01367,-42.7246 -9.26649,-10.0261 -22.48264,-15.0391 -39.64844,-15.0391 z m -223.19336,0.4551 c -8.12717,0 -15.49349,1.0647 -22.10156,3.1914 -6.53212,2.0508 -11.92622,4.8598 -16.17969,8.4297 -4.40538,3.6458 -7.70942,7.7867 -9.91211,12.4199 -2.12673,4.6333 -3.18945,9.5697 -3.18945,14.8106 0,8.355 2.31597,15.4188 6.94922,21.1914 4.7092,5.6966 12.64713,10.026 23.8125,12.9883 4.02561,1.0633 8.46897,2.0514 13.33008,2.9628 4.93706,0.9115 8.92469,1.709 11.96289,2.3926 8.20312,1.8229 13.74848,4.025 16.63476,6.6074 2.88629,2.5825 4.32813,6.3796 4.32813,11.3926 0,6.53205 -2.65777,11.31725 -7.97461,14.35545 -5.31684,3.0383 -12.68511,4.5587 -22.10352,4.5587 -7.59548,0 -15.53146,-1.4811 -23.81054,-4.4434 -8.27908,-3.0383 -15.79862,-7.1024 -22.5586,-12.19145 h -1.14062 v 24.03915 c 5.31684,2.6583 11.88758,5.1276 19.71094,7.4062 7.8993,2.2027 16.55815,3.3047 25.97656,3.3047 16.63411,0 29.73633,-3.7224 39.30664,-11.166 9.64627,-7.4436 14.46875,-16.9766 14.46875,-28.59775 0,-9.2664 -2.6951,-16.7094 -8.08789,-22.33 -5.3928,-5.5447 -13.06554,-9.4558 -23.01563,-11.7344 -3.26606,-0.7596 -7.36762,-1.5964 -12.30469,-2.5078 -4.86111,-0.9115 -9.26519,-1.8229 -13.21484,-2.7344 -7.13976,-1.671 -12.30599,-3.8357 -15.49609,-6.4941 -3.26606,-2.6585 -4.89844,-6.6068 -4.89844,-11.8477 0,-5.9245 2.69705,-10.3678 8.08984,-13.3301 5.3928,-3.0382 12.00087,-4.5586 19.82422,-4.5586 7.51953,0 15.19032,1.4065 23.01367,4.2168 7.82335,2.7344 14.46875,6.1131 19.9375,10.1387 h 1.14063 v -22.9004 c -5.16493,-2.6584 -11.65907,-4.8978 -19.48242,-6.7207 -7.7474,-1.8989 -15.42014,-2.8496 -23.01563,-2.8496 z m -130.67968,17.2051 c 11.39322,0 19.86154,3.0762 25.40624,9.2285 5.62066,6.1523 8.46897,14.8485 8.54493,26.0898 h -72.91602 c 0.91146,-10.026 4.74783,-18.4197 11.50781,-25.1796 6.83594,-6.76 15.98785,-10.1387 27.45704,-10.1387 z m 352.73437,0 c 11.39323,0 19.86155,3.0762 25.40625,9.2285 5.62067,6.1523 8.46897,14.8485 8.54493,26.0898 h -72.91602 c 0.91145,-10.026 4.74783,-18.4197 11.50781,-25.1796 6.83594,-6.76 15.98785,-10.1387 27.45703,-10.1387 z"
       id="text369" />
  </g>
</svg>
