<?xml version="1.0" encoding="UTF-8" standalone="no"?>
<!-- Created with Inkscape (http://www.inkscape.org/) -->

<svg
   xmlns:dc="http://purl.org/dc/elements/1.1/"
   xmlns:cc="http://creativecommons.org/ns#"
   xmlns:rdf="http://www.w3.org/1999/02/22-rdf-syntax-ns#"
   xmlns:svg="http://www.w3.org/2000/svg"
   xmlns="http://www.w3.org/2000/svg"
   xmlns:sodipodi="http://sodipodi.sourceforge.net/DTD/sodipodi-0.dtd"
   xmlns:inkscape="http://www.inkscape.org/namespaces/inkscape"
   width="1000"
   height="1250"
   viewBox="0 0 1000 1250"
   version="1.1"
   id="svg59398"
   inkscape:version="0.92.4 (5da689c313, 2019-01-14)"
   sodipodi:docname="Preferido - Preferir.svg">
  <defs
     id="defs59392" />
  <sodipodi:namedview
     id="base"
     pagecolor="#ffffff"
     bordercolor="#666666"
     borderopacity="1.0"
     inkscape:pageopacity="0.0"
     inkscape:pageshadow="2"
     inkscape:zoom="0.35355339"
     inkscape:cx="839.87362"
     inkscape:cy="637.01056"
     inkscape:document-units="px"
     inkscape:current-layer="layer1"
     showgrid="false"
     units="px"
     inkscape:window-width="1366"
     inkscape:window-height="715"
     inkscape:window-x="-8"
     inkscape:window-y="-8"
     inkscape:window-maximized="1" />
  <metadata
     id="metadata59395">
    <rdf:RDF>
      <cc:Work
         rdf:about="">
        <dc:format>image/svg+xml</dc:format>
        <dc:type
           rdf:resource="http://purl.org/dc/dcmitype/StillImage" />
        <dc:title />
      </cc:Work>
    </rdf:RDF>
  </metadata>
  <g
     inkscape:label="Camada 1"
     inkscape:groupmode="layer"
     id="layer1"
     transform="translate(0,217.58335)">
    <path
       style="color:#000000;font-style:normal;font-variant:normal;font-weight:normal;font-stretch:normal;font-size:medium;line-height:normal;font-family:sans-serif;font-variant-ligatures:normal;font-variant-position:normal;font-variant-caps:normal;font-variant-numeric:normal;font-variant-alternates:normal;font-feature-settings:normal;text-indent:0;text-align:start;text-decoration:none;text-decoration-line:none;text-decoration-style:solid;text-decoration-color:#000000;letter-spacing:normal;word-spacing:normal;text-transform:none;writing-mode:lr-tb;direction:ltr;text-orientation:mixed;dominant-baseline:auto;baseline-shift:baseline;text-anchor:start;white-space:normal;shape-padding:0;clip-rule:nonzero;display:inline;overflow:visible;visibility:visible;opacity:1;isolation:auto;mix-blend-mode:normal;color-interpolation:sRGB;color-interpolation-filters:linearRGB;solid-color:#000000;solid-opacity:1;vector-effect:none;fill:#000000;fill-opacity:1;fill-rule:nonzero;stroke:none;stroke-width:28.24440765;stroke-linecap:butt;stroke-linejoin:miter;stroke-miterlimit:4;stroke-dasharray:none;stroke-dashoffset:0;stroke-opacity:1;color-rendering:auto;image-rendering:auto;shape-rendering:auto;text-rendering:auto;enable-background:accumulate"
       d="M 275.21002,-217.17455 C 166.38077,-217.19975 91.615479,-173.50143 48.611459,-108.13115 5.6004388,-42.7502 -6.3982912,42.6268 3.0021388,127.13354 12.402589,211.64027 43.245749,295.65512 88.781469,359.45809 c 6.83346,9.5748 14.022071,18.71356 21.540951,27.3302 l 4.83395,-18.20781 323.14194,-34.74716 14.18102,7.17152 c 39.05845,-61.5194 65.57845,-138.30543 74.92345,-215.35609 10.2236,-84.29681 -0.019,-169.22387 -39.7363,-234.34589 -39.71228,-65.11069 -110.07619,-108.83881 -212.405,-108.47741 z m 0.044,28.24764 h 0.0301 0.03 c 94.52007,-0.34796 153.14588,37.39208 188.24409,94.93794 35.09827,57.54587 45.48337,136.48536 35.81117,216.23448 -9.1189,75.18672 -35.9823,150.81635 -74.21808,208.99373 l 13.14685,2.59408 -323.14194,34.74716 5.89175,-13.12594 c -3.14848,-4.01718 -6.24049,-8.15332 -9.27318,-12.4026 -42.193071,-59.11943 -71.828121,-139.28615 -80.700101,-219.0423 -8.87203,-79.75619 3.06213,-158.73429 41.14026,-216.61672 38.078131,-57.88244 101.542801,-96.35655 203.040471,-96.31983 z"
       id="path10-9-1"
       inkscape:connector-curvature="0"
       sodipodi:nodetypes="csssccccsccccccssccccssscc" />
    <path
       style="color:#000000;font-style:normal;font-variant:normal;font-weight:normal;font-stretch:normal;font-size:medium;line-height:normal;font-family:sans-serif;font-variant-ligatures:normal;font-variant-position:normal;font-variant-caps:normal;font-variant-numeric:normal;font-variant-alternates:normal;font-feature-settings:normal;text-indent:0;text-align:start;text-decoration:none;text-decoration-line:none;text-decoration-style:solid;text-decoration-color:#000000;letter-spacing:normal;word-spacing:normal;text-transform:none;writing-mode:lr-tb;direction:ltr;text-orientation:mixed;dominant-baseline:auto;baseline-shift:baseline;text-anchor:start;white-space:normal;shape-padding:0;clip-rule:nonzero;display:inline;overflow:visible;visibility:visible;opacity:1;isolation:auto;mix-blend-mode:normal;color-interpolation:sRGB;color-interpolation-filters:linearRGB;solid-color:#000000;solid-opacity:1;vector-effect:none;fill:#000000;fill-opacity:1;fill-rule:nonzero;stroke:none;stroke-width:14.12220383;stroke-linecap:butt;stroke-linejoin:miter;stroke-miterlimit:4;stroke-dasharray:none;stroke-dashoffset:0;stroke-opacity:1;color-rendering:auto;image-rendering:auto;shape-rendering:auto;text-rendering:auto;enable-background:accumulate"
       d="m 260.12698,122.99321 c 0,0 -1.59181,15.71921 -4.22657,32.23046 -1.31737,8.25563 -2.90409,16.70882 -4.60937,23.27735 -0.85264,3.28426 -1.74701,6.10404 -2.54688,8.04883 -0.79986,1.94478 -1.83373,2.96203 -1.09179,2.34375 -1.56272,1.30225 -3.21634,2.38878 -4.08203,5.85156 -0.43285,1.73139 -0.18532,4.31024 0.91992,6.11133 1.10524,1.80109 2.54231,2.68203 3.6289,3.19336 4.34637,2.0453 6.57798,1.26045 9.53321,1.05664 5.91044,-0.40763 12.31054,-1.72461 12.31054,-1.72461 l -2.76953,-13.84766 c 0,0 -3.01814,0.38383 -4.84375,0.6836 0.93652,-2.51094 1.82095,-5.13106 2.60938,-8.16797 1.90569,-7.34049 3.52931,-16.09506 4.88672,-24.60157 2.71481,-17.013 4.33203,-33.03515 4.33203,-33.03515 z"
       id="path971-0"
       inkscape:connector-curvature="0" />
    <path
       style="color:#000000;font-style:normal;font-variant:normal;font-weight:normal;font-stretch:normal;font-size:medium;line-height:normal;font-family:sans-serif;font-variant-ligatures:normal;font-variant-position:normal;font-variant-caps:normal;font-variant-numeric:normal;font-variant-alternates:normal;font-feature-settings:normal;text-indent:0;text-align:start;text-decoration:none;text-decoration-line:none;text-decoration-style:solid;text-decoration-color:#000000;letter-spacing:normal;word-spacing:normal;text-transform:none;writing-mode:lr-tb;direction:ltr;text-orientation:mixed;dominant-baseline:auto;baseline-shift:baseline;text-anchor:start;white-space:normal;shape-padding:0;clip-rule:nonzero;display:inline;overflow:visible;visibility:visible;opacity:1;isolation:auto;mix-blend-mode:normal;color-interpolation:sRGB;color-interpolation-filters:linearRGB;solid-color:#000000;solid-opacity:1;vector-effect:none;fill:#000000;fill-opacity:1;fill-rule:nonzero;stroke:none;stroke-width:28.45343208;stroke-linecap:butt;stroke-linejoin:miter;stroke-miterlimit:4;stroke-dasharray:none;stroke-dashoffset:0;stroke-opacity:1;color-rendering:auto;image-rendering:auto;shape-rendering:auto;text-rendering:auto;enable-background:accumulate"
       d="m 817.32498,-217.16922 c -109.6307,-0.0233 -184.9457,43.99934 -228.267,109.85193 -43.3293,65.86484 -55.4248,151.8673 -45.9548,236.99944 9.47,85.13214 40.5461,169.76943 86.4189,234.04452 16.8316,23.58402 35.8025,44.54272 56.5466,61.60681 l 5.5405,-16.28702 241.235,-9.43946 12.1827,9.35167 c 14.166,-13.9165 27.3565,-29.66244 39.4466,-46.76089 45.60182,-64.492 76.61202,-149.09448 86.91142,-234.01512 10.2992,-84.92063 -0.011,-170.46931 -40.0231,-236.07326 -40.00512,-65.59103 -110.89572,-109.64061 -213.97792,-109.27862 z m 0.044,28.45346 h 0.03 0.03 c 95.2195,-0.35053 154.2826,37.67185 189.64072,95.64359 35.3579,57.97172 45.8195,137.49024 36.0757,217.82952 -9.7437,80.33932 -39.5998,161.18893 -81.90562,221.01961 -12.9934,18.37592 -27.061,34.68801 -41.9976,48.48061 l 13.6016,5.34943 -241.235,9.43946 5.2603,-11.90028 c -15.7483,-14.03734 -30.5607,-30.8608 -44.1849,-49.95061 -42.5055,-59.55693 -72.358,-140.313 -81.2957,-220.65941 -8.9375,-80.34639 3.0818,-159.90829 41.4417,-218.21911 38.36,-58.3108 102.2912,-97.06981 204.54,-97.03281 z"
       id="path10-9-2"
       inkscape:connector-curvature="0"
       sodipodi:nodetypes="csssccccssccccccsssccccssscc" />
    <path
       style="color:#000000;font-style:normal;font-variant:normal;font-weight:normal;font-stretch:normal;font-size:medium;line-height:normal;font-family:sans-serif;font-variant-ligatures:normal;font-variant-position:normal;font-variant-caps:normal;font-variant-numeric:normal;font-variant-alternates:normal;font-feature-settings:normal;text-indent:0;text-align:start;text-decoration:none;text-decoration-line:none;text-decoration-style:solid;text-decoration-color:#000000;letter-spacing:normal;word-spacing:normal;text-transform:none;writing-mode:lr-tb;direction:ltr;text-orientation:mixed;dominant-baseline:auto;baseline-shift:baseline;text-anchor:start;white-space:normal;shape-padding:0;clip-rule:nonzero;display:inline;overflow:visible;visibility:visible;opacity:1;isolation:auto;mix-blend-mode:normal;color-interpolation:sRGB;color-interpolation-filters:linearRGB;solid-color:#000000;solid-opacity:1;vector-effect:none;fill:#000000;fill-opacity:1;fill-rule:nonzero;stroke:none;stroke-width:14.22671604;stroke-linecap:butt;stroke-linejoin:miter;stroke-miterlimit:4;stroke-dasharray:none;stroke-dashoffset:0;stroke-opacity:1;color-rendering:auto;image-rendering:auto;shape-rendering:auto;text-rendering:auto;enable-background:accumulate"
       d="m 802.13478,125.51078 c 0,0 -1.6055,15.83531 -4.2598,32.46875 -1.3271,8.31672 -2.9246,16.83405 -4.6425,23.45118 -0.859,3.30856 -1.7607,6.14825 -2.5664,8.10742 -0.8058,1.95917 -1.8451,2.98418 -1.0977,2.36133 -1.5743,1.31189 -3.2412,2.40614 -4.1133,5.89453 -0.436,1.74419 -0.1876,4.34377 0.9258,6.1582 1.1134,1.81443 2.5616,2.70168 3.6563,3.2168 4.3785,2.06046 6.6264,1.26977 9.6035,1.06445 5.9541,-0.41065 12.4023,-1.73828 12.4023,-1.73828 l -2.7891,-13.95117 c 0,0 -3.041,0.38738 -4.8808,0.68945 0.9433,-2.52934 1.8347,-5.1694 2.6289,-8.22851 1.9198,-7.39481 3.5544,-16.21376 4.9219,-24.78321 2.7349,-17.1389 4.3652,-33.27929 4.3652,-33.27929 z"
       id="path971-5"
       inkscape:connector-curvature="0" />
    <path
       style="color:#000000;font-style:normal;font-variant:normal;font-weight:normal;font-stretch:normal;font-size:medium;line-height:normal;font-family:sans-serif;font-variant-ligatures:normal;font-variant-position:normal;font-variant-caps:normal;font-variant-numeric:normal;font-variant-alternates:normal;font-feature-settings:normal;text-indent:0;text-align:start;text-decoration:none;text-decoration-line:none;text-decoration-style:solid;text-decoration-color:#000000;letter-spacing:normal;word-spacing:normal;text-transform:none;writing-mode:lr-tb;direction:ltr;text-orientation:mixed;dominant-baseline:auto;baseline-shift:baseline;text-anchor:start;white-space:normal;shape-padding:0;clip-rule:nonzero;display:inline;overflow:visible;visibility:visible;opacity:1;isolation:auto;mix-blend-mode:normal;color-interpolation:sRGB;color-interpolation-filters:linearRGB;solid-color:#000000;solid-opacity:1;vector-effect:none;fill:#000000;fill-opacity:1;fill-rule:nonzero;stroke:none;stroke-width:14.93604183;stroke-linecap:butt;stroke-linejoin:miter;stroke-miterlimit:4;stroke-dasharray:none;stroke-dashoffset:0;stroke-opacity:1;color-rendering:auto;image-rendering:auto;shape-rendering:auto;text-rendering:auto;enable-background:accumulate"
       d="m 253.56252,290.30961 c -12.03764,-0.15634 -28.32425,4.21492 -44.67773,19.79883 l -1.14258,1.08789 -0.51953,1.25586 c -7.5e-4,-0.0381 -0.0143,-0.0652 -0.27148,0.20898 -0.61869,0.65957 -1.98928,1.88917 -4.78321,3.25977 -5.58785,2.74121 -16.99045,5.97191 -38.39062,5.28711 l 0.79883,0.0684 c 0,0 -2.45387,-0.28794 -5.35547,0.0644 -2.90161,0.3524 -6.78981,1.28163 -11.14063,3.44336 -8.70164,4.32346 -19.00607,13.56121 -27.56445,31.62891 l 0.31641,-0.5957 c 0,0 -26.661671,45.43938 -0.0664,92.46289 l 0.13476,0.24023 0.1543,0.23047 c 0,0 7.14424,10.70133 14.51758,22.36914 3.68667,5.8339 7.4284,11.90948 10.31641,16.92187 2.85885,4.96181 4.91562,9.77761 4.83007,9.36524 0.13991,1.26888 0.67367,5.7509 2.38282,11.67187 1.75158,6.068 4.55223,13.30021 10.50586,18.63282 1.23678,3.42941 8.10307,23.27698 6.59179,38.99414 -0.39308,1.78371 -5.77335,27.44178 -0.29492,52.04883 -2.49476,6.02553 -21.13714,53.2183 -15.30078,113.52734 l 0.043,0.44336 0.0957,0.43554 c 5.03191,22.94399 21.21946,38.32739 38.98828,45.08599 17.76605,6.7575 37.71657,5.6278 51.10157,-5.795 0,0 54.38447,-47.47017 33.26367,-119.33981 2.03382,-0.9181 3.60622,-1.50534 4.99414,-2.02539 4.47797,1.84403 13.03186,4.68019 24.48047,4.58398 16.52677,-0.13888 38.91326,-6.50139 62.38476,-28.53906 1.21145,-0.59809 3.70334,-1.88645 6.87305,-4.23438 2.92616,-2.16752 6.43142,-5.07437 8.57422,-9.35742 5.78039,-0.79404 23.18556,-3.28855 44.57422,-8.5 12.63719,-3.07911 25.62328,-6.91107 36.46484,-11.75195 10.84151,-4.84089 20.26311,-10.19374 23.95501,-20.03906 l 0.1739,-0.46094 0.1093,-0.48242 c 0,0 3.3053,-12.05764 8.4024,-17.88282 l 0.834,-0.95507 0.4746,-1.17383 c 0,0 32.6154,-80.93233 -15.6739,-158.61524 l -0.4531,-0.73047 -0.6074,-0.60742 c 0,0 -8.3932,-8.1202 -12.041,-26.35937 l -0.098,-0.49414 -0.164,-0.47461 c 0,0 -3.0686,-8.84883 -11.07227,-17.28907 -8.00367,-8.44023 -21.58707,-16.91406 -41.25195,-16.91406 h -0.40625 l -0.40625,0.043 c 0,0 -8.06187,0.86523 -17.89648,-0.54687 -9.83462,-1.41211 -20.51462,-5.16945 -26.33789,-12.88868 l -0.59766,-0.79296 -0.78516,-0.60938 c 0,0 -26.07976,-20.56875 -54.47265,-8.62109 -2.14808,0.16433 -23.07592,1.41973 -43.84571,-12.01953 l -0.16406,-0.10547 -0.16797,-0.0977 c 0,0 -8.34907,-4.70499 -20.38672,-4.86133 z m -0.19336,14.93555 c 8.49941,0.11039 13.13086,2.87305 13.13086,2.87305 l -0.33203,-0.20313 c 26.47606,17.13155 54.22071,14.32031 54.22071,14.32031 l 1.25976,-0.125 1.15039,-0.5332 c 19.54343,-9.06363 39.25367,5.24488 40.27735,6.00195 9.48893,11.60725 23.67203,15.86586 35.12109,17.50977 11.84725,1.70109 21.64453,0.61133 21.64453,0.61133 l -0.8125,0.0449 c 15.53969,0 24.58736,6.11134 30.41406,12.25586 5.76081,6.07502 7.70588,11.66926 7.75,11.79687 3.99338,18.83044 12.8241,29.61584 15,32.05469 42.6376,68.90898 16.3073,139.72455 14.6348,144.04883 -7.3941,9.20525 -10.0706,20.21758 -10.5059,22.22852 -0.9636,2.27698 -6.6749,7.36886 -15.97069,11.51953 -9.4325,4.21172 -21.78036,7.92294 -33.91211,10.8789 -24.26351,5.91192 -47.58399,8.90039 -47.58399,8.90039 l -5.74609,0.73438 -0.71875,5.74804 c -0.0374,0.29923 -1.75098,2.98424 -4.45117,4.98438 -2.70019,2.00014 -5.34961,3.24219 -5.34961,3.24219 l -1.12891,0.52148 -0.90039,0.86133 c -21.45336,20.49987 -39.93824,25.1041 -53.11719,25.21484 -13.17894,0.11075 -20.51562,-4.18164 -20.51562,-4.18164 l -2.59961,-1.47656 -2.89844,0.72656 c -3.43228,0.85808 -6.70222,2.40705 -9.84961,3.84961 -3.14738,1.44257 -5.76172,2.75 -5.76172,2.75 l -5.89062,2.94531 2.1875,6.21485 c 23.69158,67.28418 -26.96875,109.51755 -26.96875,109.51755 h -0.004 -0.002 c -7.89376,6.7395 -22.447,8.3922 -36.09961,3.1992 -13.55906,-5.1573 -25.61482,-16.3593 -29.60938,-33.9746 -5.6583,-60.02895 15.04493,-107.92579 15.04493,-107.92579 l 1.01953,-2.3457 -0.63282,-2.47656 c -5.38808,-21.10345 0.0664,-48.38867 0.0664,-48.38867 l 0.0859,-0.40821 0.043,-0.41406 c 2.30293,-23.02921 -8.04102,-47.52148 -8.04102,-47.52148 l -0.82812,-2.06836 -1.82422,-1.27735 c -2.38081,-1.66657 -5.36353,-7.17733 -6.91406,-12.54882 -1.55053,-5.37149 -2.00391,-9.96094 -2.00391,-9.96094 l -0.0547,-0.55469 -0.13476,-0.54101 c -1.13762,-4.55046 -3.362,-7.97209 -6.42774,-13.29297 -3.06574,-5.32089 -6.88408,-11.51321 -10.63281,-17.44532 -7.3761,-11.67216 -14.25413,-21.97433 -14.48242,-22.3164 -22.38439,-39.71043 -0.0176,-77.41992 -0.0176,-77.41992 l 0.17187,-0.29102 0.14454,-0.30664 c 7.4445,-15.71619 15.27864,-21.94645 20.71289,-24.64649 2.71712,-1.35001 4.89575,-1.82226 6.29492,-1.99218 1.39917,-0.16993 1.47851,-0.10156 1.47851,-0.10156 l 0.39844,0.0566 0.40234,0.0117 c 23.05231,0.73767 36.89727,-2.6113 45.44532,-6.80468 4.27402,-2.09669 7.19366,-4.42137 9.09765,-6.45117 0.71822,-0.76568 1.21615,-1.53782 1.70508,-2.27344 13.71607,-12.91988 25.39565,-15.47075 33.82031,-15.36133 z"
       id="path66182"
       inkscape:connector-curvature="0" />
    <path
       style="color:#000000;font-style:normal;font-variant:normal;font-weight:normal;font-stretch:normal;font-size:medium;line-height:normal;font-family:sans-serif;font-variant-ligatures:normal;font-variant-position:normal;font-variant-caps:normal;font-variant-numeric:normal;font-variant-alternates:normal;font-feature-settings:normal;text-indent:0;text-align:start;text-decoration:none;text-decoration-line:none;text-decoration-style:solid;text-decoration-color:#000000;letter-spacing:normal;word-spacing:normal;text-transform:none;writing-mode:lr-tb;direction:ltr;text-orientation:mixed;dominant-baseline:auto;baseline-shift:baseline;text-anchor:start;white-space:normal;shape-padding:0;clip-rule:nonzero;display:inline;overflow:visible;visibility:visible;opacity:1;isolation:auto;mix-blend-mode:normal;color-interpolation:sRGB;color-interpolation-filters:linearRGB;solid-color:#000000;solid-opacity:1;vector-effect:none;fill:#000000;fill-opacity:1;fill-rule:nonzero;stroke:none;stroke-width:14.93604183;stroke-linecap:butt;stroke-linejoin:miter;stroke-miterlimit:4;stroke-dasharray:none;stroke-dashoffset:0;stroke-opacity:1;color-rendering:auto;image-rendering:auto;shape-rendering:auto;text-rendering:auto;enable-background:accumulate"
       d="m 213.7969,351.32914 -9.97852,11.11329 c 0,0 26.58431,24.87417 31.73828,51.74023 -0.0993,1.94647 -0.33134,8.53948 1.66211,20.10156 2.3189,13.44962 7.57666,32.64084 19.21094,56.16797 l 0.0723,0.14844 0.0801,0.14453 c 0,0 3.97524,7.35308 4.55664,17.02539 0.57045,9.49036 -1.52144,20.23452 -15.1211,29.99805 -2.08393,0.85226 -35.36869,13.79938 -70.8125,-19.59961 l -10.24414,10.86914 c 41.87024,39.45467 87.35742,22.37109 87.35742,22.37109 l 0.78321,-0.31445 0.69336,-0.48047 c 18.37368,-12.72026 23.05359,-30.40385 22.25195,-43.74023 -0.80164,-13.33639 -6.38086,-23.33399 -6.38086,-23.33399 l 0.15234,0.29102 c -10.99722,-22.23886 -15.79919,-40.01222 -17.88086,-52.08594 -2.08167,-12.07372 -1.49218,-17.86914 -1.49218,-17.86914 l 0.0898,-1.01367 -0.18359,-1.00196 c -6.32486,-34.36872 -36.55469,-60.53125 -36.55469,-60.53125 z"
       id="path66184"
       inkscape:connector-curvature="0" />
    <path
       style="color:#000000;font-style:normal;font-variant:normal;font-weight:normal;font-stretch:normal;font-size:medium;line-height:normal;font-family:sans-serif;font-variant-ligatures:normal;font-variant-position:normal;font-variant-caps:normal;font-variant-numeric:normal;font-variant-alternates:normal;font-feature-settings:normal;text-indent:0;text-align:start;text-decoration:none;text-decoration-line:none;text-decoration-style:solid;text-decoration-color:#000000;letter-spacing:normal;word-spacing:normal;text-transform:none;writing-mode:lr-tb;direction:ltr;text-orientation:mixed;dominant-baseline:auto;baseline-shift:baseline;text-anchor:start;white-space:normal;shape-padding:0;clip-rule:nonzero;display:inline;overflow:visible;visibility:visible;opacity:1;isolation:auto;mix-blend-mode:normal;color-interpolation:sRGB;color-interpolation-filters:linearRGB;solid-color:#000000;solid-opacity:1;vector-effect:none;fill:#000000;fill-opacity:1;fill-rule:nonzero;stroke:none;stroke-width:14.93604183;stroke-linecap:butt;stroke-linejoin:miter;stroke-miterlimit:4;stroke-dasharray:none;stroke-dashoffset:0;stroke-opacity:1;color-rendering:auto;image-rendering:auto;shape-rendering:auto;text-rendering:auto;enable-background:accumulate"
       d="m 138.07424,422.14555 -12.42773,8.28516 c 15.69519,23.54281 21.79965,40.0672 24.07031,50.28515 1.13533,5.10898 1.31789,8.64632 1.26953,10.75 -0.0484,2.10369 -0.15429,2.17383 -0.15429,2.17383 l 14.36132,4.10352 c 0,0 0.6492,-2.56995 0.72657,-5.93555 0.0774,-3.3656 -0.24376,-8.12524 -1.62305,-14.33203 -2.75858,-12.41358 -9.73083,-30.59231 -26.22266,-55.33008 z"
       id="path66186"
       inkscape:connector-curvature="0" />
    <path
       style="color:#000000;font-style:normal;font-variant:normal;font-weight:normal;font-stretch:normal;font-size:medium;line-height:normal;font-family:sans-serif;font-variant-ligatures:normal;font-variant-position:normal;font-variant-caps:normal;font-variant-numeric:normal;font-variant-alternates:normal;font-feature-settings:normal;text-indent:0;text-align:start;text-decoration:none;text-decoration-line:none;text-decoration-style:solid;text-decoration-color:#000000;letter-spacing:normal;word-spacing:normal;text-transform:none;writing-mode:lr-tb;direction:ltr;text-orientation:mixed;dominant-baseline:auto;baseline-shift:baseline;text-anchor:start;white-space:normal;shape-padding:0;clip-rule:nonzero;display:inline;overflow:visible;visibility:visible;opacity:1;isolation:auto;mix-blend-mode:normal;color-interpolation:sRGB;color-interpolation-filters:linearRGB;solid-color:#000000;solid-opacity:1;vector-effect:none;fill:#000000;fill-opacity:1;fill-rule:nonzero;stroke:none;stroke-width:14.93604183;stroke-linecap:butt;stroke-linejoin:miter;stroke-miterlimit:4;stroke-dasharray:none;stroke-dashoffset:0;stroke-opacity:1;color-rendering:auto;image-rendering:auto;shape-rendering:auto;text-rendering:auto;enable-background:accumulate"
       d="m 322.44338,367.31157 -13.02539,7.31054 c 0,0 8.00932,14.26648 16.63281,30.57617 8.6235,16.3097 18.02475,35.51258 19.94922,41.86329 l 0.38477,1.27148 0.79883,1.06055 c 0,0 4.62497,5.89474 6.70312,18.64453 2.07027,12.70139 1.26617,31.62431 -11.74804,56.60156 -0.23798,0.37595 -10.42917,16.4546 -24.49024,31.83203 -7.11297,7.77886 -15.16722,15.24518 -22.88086,20.12695 -7.71363,4.88178 -14.69291,6.90205 -20.12109,5.81641 l -0.91211,-0.18164 -0.92969,0.0469 c 0,0 -1.96034,0.16459 -6.25,-0.94727 -4.28965,-1.11186 -10.30599,-3.4978 -16.88086,-8.82031 l -1.51562,-1.22657 -1.92188,-0.33007 c 0,0 -9.5501,-1.67229 -19.6582,-6.59375 -10.1081,-4.92146 -19.60499,-12.49319 -21.74805,-23.79297 l -14.67578,2.7832 c 3.38909,17.86975 17.63423,28.47488 29.88477,34.43945 10.6469,5.18379 19.33762,6.97064 21.77929,7.43946 7.80278,5.95164 15.28699,9.08085 20.98828,10.55859 4.97872,1.29046 8.33265,1.36425 9.63086,1.36524 10.66277,1.86952 21.0303,-2.05859 30.31641,-7.93555 9.49575,-6.00964 18.25759,-14.29044 25.91797,-22.66797 15.32077,-16.75505 26.26758,-34.19141 26.26758,-34.19141 l 0.1582,-0.25 0.13867,-0.26367 c 14.50328,-27.68807 15.9645,-50.41985 13.39063,-66.21094 -2.15811,-13.24031 -7.1576,-21.63262 -8.79102,-24.12304 -3.39288,-10.38137 -12.15163,-27.35043 -20.58203,-43.29492 -8.7273,-16.50602 -16.81055,-30.90625 -16.81055,-30.90625 z"
       id="path66188"
       inkscape:connector-curvature="0" />
    <path
       style="color:#000000;font-style:normal;font-variant:normal;font-weight:normal;font-stretch:normal;font-size:medium;line-height:normal;font-family:sans-serif;font-variant-ligatures:normal;font-variant-position:normal;font-variant-caps:normal;font-variant-numeric:normal;font-variant-alternates:normal;font-feature-settings:normal;text-indent:0;text-align:start;text-decoration:none;text-decoration-line:none;text-decoration-style:solid;text-decoration-color:#000000;letter-spacing:normal;word-spacing:normal;text-transform:none;writing-mode:lr-tb;direction:ltr;text-orientation:mixed;dominant-baseline:auto;baseline-shift:baseline;text-anchor:start;white-space:normal;shape-padding:0;clip-rule:nonzero;display:inline;overflow:visible;visibility:visible;opacity:1;isolation:auto;mix-blend-mode:normal;color-interpolation:sRGB;color-interpolation-filters:linearRGB;solid-color:#000000;solid-opacity:1;vector-effect:none;fill:#000000;fill-opacity:1;fill-rule:nonzero;stroke:none;stroke-width:14.93604183;stroke-linecap:butt;stroke-linejoin:miter;stroke-miterlimit:4;stroke-dasharray:none;stroke-dashoffset:0;stroke-opacity:1;color-rendering:auto;image-rendering:auto;shape-rendering:auto;text-rendering:auto;enable-background:accumulate"
       d="m 410.30276,377.1143 -12.72266,7.82227 c 0,0 12.24321,19.92595 23.46875,44.28906 11.22554,24.3631 20.42974,53.79618 17.3418,67.88476 l -0.084,0.38282 -0.0449,0.39062 c 0,0 -1.98472,17.35389 -8.53515,34.34961 -3.27522,8.49786 -7.70497,16.75902 -13.05079,22.48242 -5.34581,5.72341 -11.10557,8.94531 -18.76953,8.94531 h -0.79297 l -0.77539,0.16797 c 0,0 -16.61929,3.55555 -34.84765,5.14063 -9.11418,0.79254 -18.60925,1.06143 -26.23242,0.25 -7.62318,-0.81143 -12.96365,-3.14213 -14.29688,-4.61328 l -11.0664,10.02929 c 5.95915,6.57561 14.57418,8.45728 23.7832,9.4375 9.20902,0.98023 19.42292,0.61931 29.10547,-0.22265 18.85497,-1.63957 35.22893,-5.12285 36.10742,-5.31055 11.75583,-0.3088 21.5655,-5.98923 28.70117,-13.62891 7.33726,-7.8555 12.36943,-17.69928 16.07227,-27.30664 7.16359,-18.58662 9.18408,-36.12351 9.3164,-37.29687 v -0.006 c 4.95577,-22.624 -6.71068,-52.02969 -18.36719,-77.32813 -11.65745,-25.3005 -24.31054,-45.85937 -24.31054,-45.85937 z"
       id="path66192"
       inkscape:connector-curvature="0" />
    <path
       style="color:#000000;font-style:normal;font-variant:normal;font-weight:normal;font-stretch:normal;font-size:medium;line-height:normal;font-family:sans-serif;font-variant-ligatures:normal;font-variant-position:normal;font-variant-caps:normal;font-variant-numeric:normal;font-variant-alternates:normal;font-feature-settings:normal;text-indent:0;text-align:start;text-decoration:none;text-decoration-line:none;text-decoration-style:solid;text-decoration-color:#000000;letter-spacing:normal;word-spacing:normal;text-transform:none;writing-mode:lr-tb;direction:ltr;text-orientation:mixed;dominant-baseline:auto;baseline-shift:baseline;text-anchor:start;white-space:normal;shape-padding:0;clip-rule:nonzero;display:inline;overflow:visible;visibility:visible;opacity:1;isolation:auto;mix-blend-mode:normal;color-interpolation:sRGB;color-interpolation-filters:linearRGB;solid-color:#000000;solid-opacity:1;vector-effect:none;fill:#000000;fill-opacity:1;fill-rule:nonzero;stroke:none;stroke-width:14.93604183;stroke-linecap:butt;stroke-linejoin:miter;stroke-miterlimit:4;stroke-dasharray:none;stroke-dashoffset:0;stroke-opacity:1;color-rendering:auto;image-rendering:auto;shape-rendering:auto;text-rendering:auto;enable-background:accumulate"
       d="m 486.24608,548.9268 c 0,0 -15.4423,6.60613 -34.2109,11.76367 -18.76857,5.15754 -41.02056,7.87982 -51.2168,3.5625 l -5.82226,13.75391 c 17.71592,7.50133 41.1025,2.55263 60.99609,-2.91406 19.89357,-5.4667 36.13677,-12.4375 36.13667,-12.4375 z"
       id="path66194"
       inkscape:connector-curvature="0" />
    <path
       style="color:#000000;font-style:normal;font-variant:normal;font-weight:normal;font-stretch:normal;font-size:medium;line-height:normal;font-family:sans-serif;font-variant-ligatures:normal;font-variant-position:normal;font-variant-caps:normal;font-variant-numeric:normal;font-variant-alternates:normal;font-feature-settings:normal;text-indent:0;text-align:start;text-decoration:none;text-decoration-line:none;text-decoration-style:solid;text-decoration-color:#000000;letter-spacing:normal;word-spacing:normal;text-transform:none;writing-mode:lr-tb;direction:ltr;text-orientation:mixed;dominant-baseline:auto;baseline-shift:baseline;text-anchor:start;white-space:normal;shape-padding:0;clip-rule:nonzero;display:inline;overflow:visible;visibility:visible;opacity:1;isolation:auto;mix-blend-mode:normal;color-interpolation:sRGB;color-interpolation-filters:linearRGB;solid-color:#000000;solid-opacity:1;vector-effect:none;fill:#000000;fill-opacity:1;fill-rule:nonzero;stroke:none;stroke-width:14.93604183;stroke-linecap:butt;stroke-linejoin:miter;stroke-miterlimit:4;stroke-dasharray:none;stroke-dashoffset:0;stroke-opacity:1;color-rendering:auto;image-rendering:auto;shape-rendering:auto;text-rendering:auto;enable-background:accumulate"
       d="m 221.77737,463.28227 c -19.18988,-1.20694 -38.04639,12.58922 -39.03711,34.07617 l -0.32422,7.02734 6.99609,0.74415 c 0,0 14.021,1.4919 29.20313,4.08398 7.59106,1.29604 15.46437,2.87362 21.81445,4.60547 6.35008,1.73184 11.4419,4.32349 11.66406,4.52344 l 15.16211,13.64648 -2.76758,-20.21094 c -4.25579,-31.07037 -23.52106,-47.28915 -42.71093,-48.49609 z m -0.9375,14.90625 c 9.45303,0.59454 19.76098,6.40705 25.42383,21.8125 -0.67239,-0.18587 -1.20642,-0.40147 -1.9043,-0.5918 -7.13452,-1.94578 -15.35667,-3.57366 -23.23047,-4.91797 -8.76806,-1.49699 -16.33801,-2.52702 -22.01563,-3.24023 3.31621,-8.92515 12.06831,-13.66995 21.72657,-13.0625 z"
       id="path66196"
       inkscape:connector-curvature="0" />
    <path
       style="color:#000000;font-style:normal;font-variant:normal;font-weight:normal;font-stretch:normal;font-size:medium;line-height:normal;font-family:sans-serif;font-variant-ligatures:normal;font-variant-position:normal;font-variant-caps:normal;font-variant-numeric:normal;font-variant-alternates:normal;font-feature-settings:normal;text-indent:0;text-align:start;text-decoration:none;text-decoration-line:none;text-decoration-style:solid;text-decoration-color:#000000;letter-spacing:normal;word-spacing:normal;text-transform:none;writing-mode:lr-tb;direction:ltr;text-orientation:mixed;dominant-baseline:auto;baseline-shift:baseline;text-anchor:start;white-space:normal;shape-padding:0;clip-rule:nonzero;display:inline;overflow:visible;visibility:visible;opacity:1;isolation:auto;mix-blend-mode:normal;color-interpolation:sRGB;color-interpolation-filters:linearRGB;solid-color:#000000;solid-opacity:1;vector-effect:none;fill:#000000;fill-opacity:1;fill-rule:nonzero;stroke:none;stroke-width:14.93604183;stroke-linecap:butt;stroke-linejoin:miter;stroke-miterlimit:4;stroke-dasharray:none;stroke-dashoffset:0;stroke-opacity:1;color-rendering:auto;image-rendering:auto;shape-rendering:auto;text-rendering:auto;enable-background:accumulate"
       d="m 202.7676,604.34672 c -6.16828,0.0695 -10.07617,0.62696 -10.07617,0.62695 l 2.05859,14.79297 c 0,0 13.28849,-1.79912 28.51758,1.47657 15.22909,3.27568 31.21558,10.92654 38.94141,30.57226 l 13.90039,-5.46484 c -9.87642,-25.11439 -31.60963,-35.81997 -49.69922,-39.71094 -9.04479,-1.94548 -17.4743,-2.36249 -23.64258,-2.29297 z"
       id="path66200"
       inkscape:connector-curvature="0" />
    <path
       style="color:#000000;font-style:normal;font-variant:normal;font-weight:normal;font-stretch:normal;font-size:medium;line-height:normal;font-family:sans-serif;font-variant-ligatures:normal;font-variant-position:normal;font-variant-caps:normal;font-variant-numeric:normal;font-variant-alternates:normal;font-feature-settings:normal;text-indent:0;text-align:start;text-decoration:none;text-decoration-line:none;text-decoration-style:solid;text-decoration-color:#000000;letter-spacing:normal;word-spacing:normal;text-transform:none;writing-mode:lr-tb;direction:ltr;text-orientation:mixed;dominant-baseline:auto;baseline-shift:baseline;text-anchor:start;white-space:normal;shape-padding:0;clip-rule:nonzero;display:inline;overflow:visible;visibility:visible;opacity:1;isolation:auto;mix-blend-mode:normal;color-interpolation:sRGB;color-interpolation-filters:linearRGB;solid-color:#000000;solid-opacity:1;vector-effect:none;fill:#000000;fill-opacity:1;fill-rule:nonzero;stroke:none;stroke-width:14.93604183;stroke-linecap:butt;stroke-linejoin:miter;stroke-miterlimit:4;stroke-dasharray:none;stroke-dashoffset:0;stroke-opacity:1;color-rendering:auto;image-rendering:auto;shape-rendering:auto;text-rendering:auto;enable-background:accumulate"
       d="m 279.80276,586.28032 -13.24024,6.91406 c 11.46302,21.95044 13.37517,34.19286 13.05664,39.74414 -0.15926,2.77564 -0.77168,3.88227 -0.97851,4.2168 -0.20683,0.33452 0.79297,-0.53125 0.79297,-0.53125 l 7.61523,12.84765 c 0,0 2.69632,-1.87223 4.29688,-4.46094 1.60055,-2.58871 2.90474,-6.32287 3.18554,-11.21679 0.56161,-9.78786 -2.55414,-24.20106 -14.72851,-47.51367 z"
       id="path66202"
       inkscape:connector-curvature="0" />
    <path
       style="color:#000000;font-style:normal;font-variant:normal;font-weight:normal;font-stretch:normal;font-size:medium;line-height:normal;font-family:sans-serif;font-variant-ligatures:normal;font-variant-position:normal;font-variant-caps:normal;font-variant-numeric:normal;font-variant-alternates:normal;font-feature-settings:normal;text-indent:0;text-align:start;text-decoration:none;text-decoration-line:none;text-decoration-style:solid;text-decoration-color:#000000;letter-spacing:normal;word-spacing:normal;text-transform:none;writing-mode:lr-tb;direction:ltr;text-orientation:mixed;dominant-baseline:auto;baseline-shift:baseline;text-anchor:start;white-space:normal;shape-padding:0;clip-rule:nonzero;display:inline;overflow:visible;visibility:visible;opacity:1;isolation:auto;mix-blend-mode:normal;color-interpolation:sRGB;color-interpolation-filters:linearRGB;solid-color:#000000;solid-opacity:1;vector-effect:none;fill:#000000;fill-opacity:1;fill-rule:nonzero;stroke:none;stroke-width:9.95736122;stroke-linecap:butt;stroke-linejoin:miter;stroke-miterlimit:4;stroke-dasharray:none;stroke-dashoffset:0;stroke-opacity:1;color-rendering:auto;image-rendering:auto;shape-rendering:auto;text-rendering:auto;enable-background:accumulate"
       d="m 798.35748,356.23149 c -8.6907,0.52722 -19.1093,3.92529 -29.9121,12.92773 l -0.375,0.3125 -0.3067,0.37891 c 0,0 -1.6141,2.06094 -5.5078,4.00781 -3.8937,1.94687 -9.6758,3.54677 -18.084,1.56836 l -0.8398,-0.19727 -0.8574,0.0957 c 0,0 -2.9839,0.33519 -6.7325,0.46093 -3.7486,0.12575 -8.3556,-0.10077 -10.3652,-0.66601 l 0.3262,0.10351 c 0,0 -1.4377,-0.45299 -2.9727,-0.50781 -1.535,-0.0548 -3.5714,0.15431 -5.8984,0.96875 -4.654,1.6289 -10.3196,5.60678 -16.2969,14.03906 l -0.1855,0.25977 -0.1504,0.2832 c 0,0 -7.8769,14.79499 -13.3692,31.79493 -2.7461,8.49997 -4.9456,17.56898 -5.1758,26.01171 -0.2057,7.54779 1.4182,14.92367 6.3223,20.2168 0.1143,2.37627 0.6964,13.15911 2.3301,20.30078 0,0.32646 0.097,8.39723 0.3906,18.07227 0.2898,9.56123 0.7257,19.92084 1.5781,25.9414 -0.023,0.32769 -0.49,6.93112 -0.832,15.08985 -0.3372,8.04475 -0.5564,16.8753 0.049,22.74023 -0.011,0.14169 -0.8888,11.97597 -1.5332,25.20899 -0.3241,6.65599 -0.5877,13.62868 -0.6445,19.63086 -0.057,6.00217 -0.018,10.73651 0.6855,14.2539 l -0.094,-0.79687 c 0,0 0.7512,21.67771 -1.1621,38.51562 l -0.031,0.28125 v 0.29102 0.008 c 0.061,18.12154 12.4055,35.62286 29.9063,41.5293 8.7504,2.95322 18.8857,2.76983 28.7637,-1.92383 9.856,-4.68325 19.3801,-13.68032 27.8554,-27.86719 0.2116,-0.30735 18.0455,-26.39714 12.0352,-53.11133 2.1258,1.60412 10.1035,7.08592 22.8242,8.67188 14.8324,1.84924 35.7977,-1.88721 60.0449,-21.92383 l 0.2696,-0.22266 0.2363,-0.25976 c 0,0 -0.043,-0.0256 0.8847,-0.63477 0.9281,-0.6092 2.5659,-1.51362 5.1524,-2.38086 5.173,-1.73447 14.1762,-3.32092 28.7559,-1.83593 l 0.2207,0.0234 0.2187,0.002 c 0,0 11.255,0.16975 23.8633,-2.83399 12.3663,-2.94609 26.9087,-9.05714 32.8691,-22.80078 0.4972,-0.69577 17.796,-25.19966 16.7012,-53.87695 0.088,-0.39951 1.3119,-5.92781 2.4863,-12.97461 1.216,-7.29608 2.4603,-15.35178 1.711,-21.3457 v -0.0234 -0.0234 c 0,0 -1.9439,-14.72342 -2.2012,-21.67187 v 0.42187 c 0,0 0.044,-2.57695 -0.9238,-5.65625 -0.9678,-3.0793 -2.9313,-7.14199 -6.7188,-11.56055 l 0.4161,0.5586 c 0,0 -12.8274,-20.08587 -24.209,-41.1836 l -0.076,-0.14257 -0.088,-0.13868 c 0,0 -11.8613,-18.58333 -37.2695,-21.64453 l -0.5664,-0.0684 -0.5645,0.0606 c 0,0 -17.893,2.0168 -29.4277,-13.19922 l -0.3809,-0.50391 -0.4941,-0.39062 c 0,0 -17.0345,-13.71381 -35.9356,-5.42383 l -0.1152,0.0488 -0.1133,0.0566 c 0,0 0.1913,-0.0368 -0.5019,0.0879 -0.6933,0.12469 -1.9043,0.23548 -3.6836,-0.0566 -3.5586,-0.58425 -9.5122,-2.80186 -17.666,-10.42969 l -0.17,-0.16015 -0.1855,-0.14258 c 0,0 -6.3533,-4.8747 -16.2051,-6.31641 -2.4629,-0.36042 -5.1675,-0.50386 -8.0644,-0.32812 z m 0.5507,9.88281 c 2.1965,-0.10905 4.224,0.0283 6.0723,0.29883 7.3933,1.08193 11.5567,4.33984 11.5567,4.33984 l -0.3575,-0.30273 c 9.2313,8.63573 17.0206,12.02639 22.8555,12.98437 2.9175,0.47899 5.3158,0.3447 7.0586,0.0312 1.7427,-0.31345 3.1934,-0.98242 3.1934,-0.98242 l -0.2266,0.10547 c 12.8984,-5.65725 25.3252,3.79351 25.6426,4.03711 13.9018,17.35462 34.0524,16.48047 36.6777,16.2832 20.9948,2.59316 29.843,16.95885 29.873,17.00781 11.5705,21.41368 24.4297,41.55079 24.4297,41.55079 l 0.1875,0.29492 0.2286,0.26367 c 2.9424,3.43279 4.2048,6.24055 4.7792,8.06836 0.5745,1.8278 0.4766,2.19531 0.4766,2.19531 l -0.01,0.21094 0.01,0.21094 c 0.3024,8.17016 2.2661,22.50226 2.2773,22.58398 0.3724,2.97906 -0.4849,11.46807 -1.6523,18.47266 -1.1675,7.00459 -2.4747,12.92383 -2.4747,12.92383 l -0.1445,0.6582 0.035,0.67187 c 1.285,24.9317 -15.0821,48.75196 -15.0821,48.75196 l -0.3359,0.47656 -0.2168,0.54101 c -3.8055,9.51377 -15.098,14.90756 -26.3242,17.58204 -11.2228,2.67367 -21.4138,2.56256 -21.4199,2.5625 -15.4423,-1.51918 -25.8197,0.0876 -32.4961,2.32617 -3.3721,1.13066 -5.801,2.41605 -7.4492,3.49804 -1.6483,1.082 -2.7793,2.25 -2.7793,2.25 l 0.5078,-0.48437 c -22.5806,18.65934 -40.3121,21.23439 -52.4688,19.71875 -12.1566,-1.51564 -18.5195,-7.04883 -18.5195,-7.04883 l -0.2715,-0.23242 -0.3027,-0.18945 c -3.6252,-2.28961 -7.3539,-2.70723 -10.0137,-2.23438 -2.6598,0.47285 -4.6523,1.93555 -4.6523,1.93555 l -2.9629,2.2793 1.3613,3.48242 c 8.8218,22.54441 -9.0996,50.94336 -9.0996,50.94336 l -0.066,0.0996 -0.061,0.10156 c -7.7549,13.00935 -15.9825,20.42149 -23.6328,24.05664 -7.6503,3.63515 -14.7974,3.68055 -21.3047,1.48437 -12.99,-4.38407 -23.0444,-18.64822 -23.1269,-32.05273 1.982,-17.963 1.1797,-39.5 1.1797,-39.5 l -0.016,-0.40039 -0.078,-0.39453 c -0.2879,-1.43953 -0.5469,-6.42218 -0.4922,-12.20508 0.055,-5.7829 0.3125,-12.66321 0.6328,-19.24219 0.6407,-13.15796 1.5293,-25.10351 1.5293,-25.10351 l 0.035,-0.48243 -0.059,-0.48046 c -0.4895,-4.07842 -0.3612,-13.75338 -0.018,-21.95118 0.3436,-8.19779 0.834,-15.17578 0.834,-15.17578 l 0.039,-0.55468 -0.084,-0.55079 c -0.6772,-4.40146 -1.2355,-15.70781 -1.5313,-25.46875 -0.2958,-9.76093 -0.3945,-18.24609 -0.3945,-18.24609 l -0.01,-0.58398 -0.1425,-0.56641 c -1.2263,-4.90535 -2.2969,-20.88086 -2.2969,-20.88086 l -0.1211,-2.17969 -1.6856,-1.38867 c -3.0966,-2.55021 -4.5815,-7.31127 -4.3945,-14.16992 0.187,-6.85865 2.1184,-15.24647 4.6953,-23.22266 5.0649,-15.67707 12.2844,-29.39198 12.5371,-29.87109 5.0345,-7.01941 9.0225,-9.37808 11.2793,-10.16797 1.1429,-0.4 1.8805,-0.42935 2.2539,-0.41602 0.1471,0.005 0.122,-0.008 0.1016,-0.0215 l 0.039,0.0137 0.164,0.0449 c 4.3353,1.21938 9.2298,1.17297 13.3965,1.03321 3.7962,-0.12734 6.32,-0.41402 6.8438,-0.47071 10.1563,2.12869 18.3404,0.22238 23.789,-2.50195 5.6401,-2.82002 8.793,-6.64844 8.793,-6.64844 l -0.6816,0.69141 c 9.3862,-7.8219 17.4986,-10.36621 24.0878,-10.69336 z"
       id="path66206"
       inkscape:connector-curvature="0" />
    <path
       style="color:#000000;font-style:normal;font-variant:normal;font-weight:normal;font-stretch:normal;font-size:medium;line-height:normal;font-family:sans-serif;font-variant-ligatures:normal;font-variant-position:normal;font-variant-caps:normal;font-variant-numeric:normal;font-variant-alternates:normal;font-feature-settings:normal;text-indent:0;text-align:start;text-decoration:none;text-decoration-line:none;text-decoration-style:solid;text-decoration-color:#000000;letter-spacing:normal;word-spacing:normal;text-transform:none;writing-mode:lr-tb;direction:ltr;text-orientation:mixed;dominant-baseline:auto;baseline-shift:baseline;text-anchor:start;white-space:normal;shape-padding:0;clip-rule:nonzero;display:inline;overflow:visible;visibility:visible;opacity:1;isolation:auto;mix-blend-mode:normal;color-interpolation:sRGB;color-interpolation-filters:linearRGB;solid-color:#000000;solid-opacity:1;vector-effect:none;fill:#000000;fill-opacity:1;fill-rule:nonzero;stroke:none;stroke-width:9.95736122;stroke-linecap:butt;stroke-linejoin:miter;stroke-miterlimit:4;stroke-dasharray:none;stroke-dashoffset:0;stroke-opacity:1;color-rendering:auto;image-rendering:auto;shape-rendering:auto;text-rendering:auto;enable-background:accumulate"
       d="m 761.03718,417.78422 -9.0938,4.05274 c 5.087,11.41464 8.1467,34.68432 9.5,54.5332 1.3164,19.30747 1.2799,35.04926 1.2773,35.92383 -0.7811,2.15754 -1.0199,4.13623 -1.3046,6.7539 -0.3607,3.31521 -0.6072,7.17997 -0.7852,10.90039 -0.356,7.44085 -0.4258,14.31055 -0.4258,14.31055 l -0.01,0.44922 0.076,0.44336 c 0.7152,4.17158 1.8371,17.22157 2.6758,28.71875 0.8387,11.49718 1.4688,21.7793 1.4688,21.7793 l 0.057,0.92968 0.3887,0.84571 c 2.4148,5.24959 3.2539,16.90486 2.9472,26.71679 -0.3066,9.81194 -1.3945,17.92774 -1.3945,17.92774 l -0.025,0.18555 -0.01,0.1875 c -1.0497,17.97506 -7.4217,23.72194 -13.17,26.26757 -5.7482,2.54564 -11.3652,1.4043 -11.3652,1.4043 l -0.4824,-0.10352 -0.4922,-0.01 c -14.2552,-0.2416 -24.3552,-10.28903 -31.2461,-21.11914 -6.8909,-10.83011 -9.9512,-21.66992 -9.9512,-21.66992 l -9.5898,2.67968 c 0,0 3.3502,12.09203 11.1406,24.33594 7.7904,12.24391 20.644,25.41129 39.4766,25.73047 l -0.9746,-0.11328 c 0,0 8.5425,1.94449 17.5156,-2.0293 8.9731,-3.97379 17.8845,-14.35245 19.0781,-34.79297 l -0.035,0.375 c 0,0 1.1542,-8.56805 1.4785,-18.94531 0.3101,-9.92274 0.097,-21.29006 -3.4414,-29.94141 -0.03,-0.48208 -0.6181,-10.07864 -1.4414,-21.36523 -0.8209,-11.25198 -1.7732,-23.14572 -2.7149,-28.99023 0,-0.19554 0.068,-6.62918 0.4082,-13.73243 0.1725,-3.60516 0.4174,-7.32924 0.7403,-10.29687 0.3228,-2.96763 1.2506,-5.75335 0.7832,-4.87695 l 0.58,-1.08985 0.01,-1.23242 c 0,0 0.072,-16.98331 -1.3086,-37.23242 -1.3806,-20.24911 -3.9301,-43.52747 -10.3398,-57.91016 z"
       id="path66208"
       inkscape:connector-curvature="0" />
    <path
       style="color:#000000;font-style:normal;font-variant:normal;font-weight:normal;font-stretch:normal;font-size:medium;line-height:normal;font-family:sans-serif;font-variant-ligatures:normal;font-variant-position:normal;font-variant-caps:normal;font-variant-numeric:normal;font-variant-alternates:normal;font-feature-settings:normal;text-indent:0;text-align:start;text-decoration:none;text-decoration-line:none;text-decoration-style:solid;text-decoration-color:#000000;letter-spacing:normal;word-spacing:normal;text-transform:none;writing-mode:lr-tb;direction:ltr;text-orientation:mixed;dominant-baseline:auto;baseline-shift:baseline;text-anchor:start;white-space:normal;shape-padding:0;clip-rule:nonzero;display:inline;overflow:visible;visibility:visible;opacity:1;isolation:auto;mix-blend-mode:normal;color-interpolation:sRGB;color-interpolation-filters:linearRGB;solid-color:#000000;solid-opacity:1;vector-effect:none;fill:#000000;fill-opacity:1;fill-rule:nonzero;stroke:none;stroke-width:9.95736122;stroke-linecap:butt;stroke-linejoin:miter;stroke-miterlimit:4;stroke-dasharray:none;stroke-dashoffset:0;stroke-opacity:1;color-rendering:auto;image-rendering:auto;shape-rendering:auto;text-rendering:auto;enable-background:accumulate"
       d="m 821.53318,556.79985 -5.1308,4.96289 c -16.0791,15.54747 -26.5764,15.2318 -33.7891,12.375 -7.2127,-2.85681 -11.2265,-9.16016 -11.2265,-9.16016 l -8.4825,5.21485 c 0,0 5.3799,8.97773 16.043,13.20117 9.8467,3.90007 24.1509,2.80501 40.3359,-10.95117 2.3183,2.19896 5.7573,4.66446 10.9219,6.60351 10.7277,4.02773 28.3079,5.72978 57.0508,-0.88477 0.69,0.37104 1.3131,0.74617 2.2402,1.09961 2.8194,1.0748 6.9694,2.09543 12.6914,2.30665 11.4441,0.42242 29.1343,-2.34802 55.7012,-14.20313 l -4.0586,-9.09375 c -25.5886,11.41855 -41.8291,13.69634 -51.2754,13.34766 -4.7231,-0.17435 -7.7569,-0.99314 -9.5117,-1.66211 -1.7548,-0.66898 -1.8418,-0.85743 -1.8418,-0.85743 l -1.9199,-1.61132 -2.4395,0.58203 c -28.6804,6.86135 -44.6907,4.82534 -53.1367,1.65429 -4.2229,-1.58552 -6.6038,-3.43708 -7.9219,-4.75195 -1.318,-1.31487 -1.3671,-1.64062 -1.3671,-1.64062 z"
       id="path66210"
       inkscape:connector-curvature="0" />
    <path
       style="color:#000000;font-style:normal;font-variant:normal;font-weight:normal;font-stretch:normal;font-size:medium;line-height:normal;font-family:sans-serif;font-variant-ligatures:normal;font-variant-position:normal;font-variant-caps:normal;font-variant-numeric:normal;font-variant-alternates:normal;font-feature-settings:normal;text-indent:0;text-align:start;text-decoration:none;text-decoration-line:none;text-decoration-style:solid;text-decoration-color:#000000;letter-spacing:normal;word-spacing:normal;text-transform:none;writing-mode:lr-tb;direction:ltr;text-orientation:mixed;dominant-baseline:auto;baseline-shift:baseline;text-anchor:start;white-space:normal;shape-padding:0;clip-rule:nonzero;display:inline;overflow:visible;visibility:visible;opacity:1;isolation:auto;mix-blend-mode:normal;color-interpolation:sRGB;color-interpolation-filters:linearRGB;solid-color:#000000;solid-opacity:1;vector-effect:none;fill:#000000;fill-opacity:1;fill-rule:nonzero;stroke:none;stroke-width:9.95736122;stroke-linecap:butt;stroke-linejoin:miter;stroke-miterlimit:4;stroke-dasharray:none;stroke-dashoffset:0;stroke-opacity:1;color-rendering:auto;image-rendering:auto;shape-rendering:auto;text-rendering:auto;enable-background:accumulate"
       d="m 839.03518,427.70024 -9.1836,3.84961 c 3.1937,7.61584 6.5686,23.96288 8.8613,37.92773 2.2787,13.8791 3.6432,25.48112 3.6602,25.625 1.982,32.01046 -26.334,67.04883 -26.334,67.04883 l 7.6445,6.38086 c 0,0 31.0632,-36.10923 28.627,-74.17188 l -0.01,-0.13086 -0.016,-0.13281 c 0,0 -1.4141,-12.01654 -3.7481,-26.23242 -2.3339,-14.21588 -5.4071,-30.39478 -9.5039,-40.16406 z"
       id="path66212"
       inkscape:connector-curvature="0" />
    <path
       style="color:#000000;font-style:normal;font-variant:normal;font-weight:normal;font-stretch:normal;font-size:medium;line-height:normal;font-family:sans-serif;font-variant-ligatures:normal;font-variant-position:normal;font-variant-caps:normal;font-variant-numeric:normal;font-variant-alternates:normal;font-feature-settings:normal;text-indent:0;text-align:start;text-decoration:none;text-decoration-line:none;text-decoration-style:solid;text-decoration-color:#000000;letter-spacing:normal;word-spacing:normal;text-transform:none;writing-mode:lr-tb;direction:ltr;text-orientation:mixed;dominant-baseline:auto;baseline-shift:baseline;text-anchor:start;white-space:normal;shape-padding:0;clip-rule:nonzero;display:inline;overflow:visible;visibility:visible;opacity:1;isolation:auto;mix-blend-mode:normal;color-interpolation:sRGB;color-interpolation-filters:linearRGB;solid-color:#000000;solid-opacity:1;vector-effect:none;fill:#000000;fill-opacity:1;fill-rule:nonzero;stroke:none;stroke-width:9.95736122;stroke-linecap:butt;stroke-linejoin:miter;stroke-miterlimit:4;stroke-dasharray:none;stroke-dashoffset:0;stroke-opacity:1;color-rendering:auto;image-rendering:auto;shape-rendering:auto;text-rendering:auto;enable-background:accumulate"
       d="m 894.64648,442.80571 c -0.7643,3.31241 -0.1423,6.08612 0.4004,8.29882 0.5427,2.21271 1.2305,3.92383 1.2305,3.92383 l -0.024,-0.0586 c 9.5518,24.779 12.9296,41.12361 13.959,51.05273 0.5148,4.96456 0.4441,8.32521 0.2754,10.34571 -0.1687,2.02049 -0.3144,2.32421 -0.3144,2.32422 l -0.2383,0.7539 0.01,0.78906 c 0.26,32.7632 -24.6211,48.48243 -24.6211,48.48243 l 5.3613,8.38867 c 0,0 29.4102,-18.99247 29.209,-56.76563 0.1671,-0.70096 0.3639,-1.25679 0.5215,-3.14453 0.2256,-2.70258 0.2769,-6.68363 -0.295,-12.19922 -1.1437,-11.03118 -4.7759,-28.19578 -14.5722,-53.60937 l -0.012,-0.0293 -0.012,-0.0273 c 0,0 -0.4341,-1.09498 -0.8027,-2.59766 -0.3686,-1.50267 -0.4479,-3.35464 -0.3711,-3.6875 z"
       id="path66214"
       inkscape:connector-curvature="0" />
    <path
       style="color:#000000;font-style:normal;font-variant:normal;font-weight:normal;font-stretch:normal;font-size:medium;line-height:normal;font-family:sans-serif;font-variant-ligatures:normal;font-variant-position:normal;font-variant-caps:normal;font-variant-numeric:normal;font-variant-alternates:normal;font-feature-settings:normal;text-indent:0;text-align:start;text-decoration:none;text-decoration-line:none;text-decoration-style:solid;text-decoration-color:#000000;letter-spacing:normal;word-spacing:normal;text-transform:none;writing-mode:lr-tb;direction:ltr;text-orientation:mixed;dominant-baseline:auto;baseline-shift:baseline;text-anchor:start;white-space:normal;shape-padding:0;clip-rule:nonzero;display:inline;overflow:visible;visibility:visible;opacity:1;isolation:auto;mix-blend-mode:normal;color-interpolation:sRGB;color-interpolation-filters:linearRGB;solid-color:#000000;solid-opacity:1;vector-effect:none;fill:#000000;fill-opacity:1;fill-rule:nonzero;stroke:none;stroke-width:9.95736122;stroke-linecap:butt;stroke-linejoin:miter;stroke-miterlimit:4;stroke-dasharray:none;stroke-dashoffset:0;stroke-opacity:1;color-rendering:auto;image-rendering:auto;shape-rendering:auto;text-rendering:auto;enable-background:accumulate"
       d="m 759.13478,419.65532 c 0,0 -2.4317,15.45735 -0.8476,27.17968 l 9.8671,-1.33203 c -1.2199,-9.02771 0.834,-24.41406 0.834,-24.41406 z"
       id="path66216"
       inkscape:connector-curvature="0" />
    <path
       style="color:#000000;font-style:normal;font-variant:normal;font-weight:normal;font-stretch:normal;font-size:medium;line-height:normal;font-family:sans-serif;font-variant-ligatures:normal;font-variant-position:normal;font-variant-caps:normal;font-variant-numeric:normal;font-variant-alternates:normal;font-feature-settings:normal;text-indent:0;text-align:start;text-decoration:none;text-decoration-line:none;text-decoration-style:solid;text-decoration-color:#000000;letter-spacing:normal;word-spacing:normal;text-transform:none;writing-mode:lr-tb;direction:ltr;text-orientation:mixed;dominant-baseline:auto;baseline-shift:baseline;text-anchor:start;white-space:normal;shape-padding:0;clip-rule:nonzero;display:inline;overflow:visible;visibility:visible;opacity:1;isolation:auto;mix-blend-mode:normal;color-interpolation:sRGB;color-interpolation-filters:linearRGB;solid-color:#000000;solid-opacity:1;vector-effect:none;fill:#000000;fill-opacity:1;fill-rule:nonzero;stroke:none;stroke-width:9.95736122;stroke-linecap:butt;stroke-linejoin:miter;stroke-miterlimit:4;stroke-dasharray:none;stroke-dashoffset:0;stroke-opacity:1;color-rendering:auto;image-rendering:auto;shape-rendering:auto;text-rendering:auto;enable-background:accumulate"
       d="m 742.80278,612.75493 c -5.5188,0.56898 -10.9023,3.04188 -15.1367,7.33984 -5.646,5.73062 -9.1331,14.54981 -9.0137,25.75976 l 0.031,2.90821 2.5489,1.40039 c 0,0 7.2762,4.01502 16.5097,7.10156 9.2335,3.08654 20.692,5.88103 30.3243,1.13086 l 2.2402,-1.10547 0.4531,-2.45703 c 2.238,-12.13898 0.553,-22.1199 -3.7851,-29.39648 -4.3382,-7.27659 -11.3176,-11.66782 -18.6465,-12.61329 -1.8323,-0.23636 -3.6858,-0.25802 -5.5254,-0.0684 z m 1.0039,9.89062 c 1.0797,-0.10527 2.1683,-0.0865 3.248,0.0527 4.3189,0.55715 8.4955,3.02102 11.3672,7.83789 2.5766,4.32186 3.9655,10.81626 2.8789,19.53516 -5.2133,1.25971 -13.2372,0.14512 -20.4023,-2.25 -5.6183,-1.87805 -9.5616,-3.73828 -12.0918,-5.00195 0.4713,-7.41959 2.8369,-12.57538 5.9512,-15.73633 2.6447,-2.6844 5.8098,-4.1217 9.0488,-4.4375 z"
       id="path66218"
       inkscape:connector-curvature="0" />
    <path
       style="color:#000000;font-style:normal;font-variant:normal;font-weight:normal;font-stretch:normal;font-size:medium;line-height:normal;font-family:sans-serif;font-variant-ligatures:normal;font-variant-position:normal;font-variant-caps:normal;font-variant-numeric:normal;font-variant-alternates:normal;font-feature-settings:normal;text-indent:0;text-align:start;text-decoration:none;text-decoration-line:none;text-decoration-style:solid;text-decoration-color:#000000;letter-spacing:normal;word-spacing:normal;text-transform:none;writing-mode:lr-tb;direction:ltr;text-orientation:mixed;dominant-baseline:auto;baseline-shift:baseline;text-anchor:start;white-space:normal;shape-padding:0;clip-rule:nonzero;display:inline;overflow:visible;visibility:visible;opacity:1;isolation:auto;mix-blend-mode:normal;color-interpolation:sRGB;color-interpolation-filters:linearRGB;solid-color:#000000;solid-opacity:1;vector-effect:none;fill:#000000;fill-opacity:1;fill-rule:nonzero;stroke:none;stroke-width:9.95736122;stroke-linecap:butt;stroke-linejoin:miter;stroke-miterlimit:4;stroke-dasharray:none;stroke-dashoffset:0;stroke-opacity:1;color-rendering:auto;image-rendering:auto;shape-rendering:auto;text-rendering:auto;enable-background:accumulate"
       d="m 782.44338,574.71977 -7.041,7.04101 c 7.292,7.29196 7.562,15.92244 6.0019,23.59766 -1.56,7.67522 -5.0507,13.47461 -5.0507,13.47461 l 8.5039,5.17773 c 0,0 4.3595,-7.09824 6.3047,-16.66796 1.9451,-9.56973 1.3744,-22.52986 -8.7188,-32.62305 z"
       id="path66220"
       inkscape:connector-curvature="0" />
    <path
       style="color:#000000;font-style:normal;font-variant:normal;font-weight:normal;font-stretch:normal;font-size:medium;line-height:normal;font-family:sans-serif;font-variant-ligatures:normal;font-variant-position:normal;font-variant-caps:normal;font-variant-numeric:normal;font-variant-alternates:normal;font-feature-settings:normal;text-indent:0;text-align:start;text-decoration:none;text-decoration-line:none;text-decoration-style:solid;text-decoration-color:#000000;letter-spacing:normal;word-spacing:normal;text-transform:none;writing-mode:lr-tb;direction:ltr;text-orientation:mixed;dominant-baseline:auto;baseline-shift:baseline;text-anchor:start;white-space:normal;shape-padding:0;clip-rule:nonzero;display:inline;overflow:visible;visibility:visible;opacity:1;isolation:auto;mix-blend-mode:normal;color-interpolation:sRGB;color-interpolation-filters:linearRGB;solid-color:#000000;solid-opacity:1;vector-effect:none;fill:#000000;fill-opacity:1;fill-rule:nonzero;stroke:none;stroke-width:9.95736122;stroke-linecap:butt;stroke-linejoin:miter;stroke-miterlimit:4;stroke-dasharray:none;stroke-dashoffset:0;stroke-opacity:1;color-rendering:auto;image-rendering:auto;shape-rendering:auto;text-rendering:auto;enable-background:accumulate"
       d="m 775.31648,607.26078 -5.8184,8.08008 c 3.4473,2.482 6.6445,8.28907 6.6445,8.28907 l 8.9258,-4.41407 c 0,0 -3.2852,-7.29908 -9.7519,-11.95508 z"
       id="path66222"
       inkscape:connector-curvature="0" />
    <path
       style="color:#000000;font-style:normal;font-variant:normal;font-weight:normal;font-stretch:normal;font-size:medium;line-height:normal;font-family:sans-serif;font-variant-ligatures:normal;font-variant-position:normal;font-variant-caps:normal;font-variant-numeric:normal;font-variant-alternates:normal;font-feature-settings:normal;text-indent:0;text-align:start;text-decoration:none;text-decoration-line:none;text-decoration-style:solid;text-decoration-color:#000000;letter-spacing:normal;word-spacing:normal;text-transform:none;writing-mode:lr-tb;direction:ltr;text-orientation:mixed;dominant-baseline:auto;baseline-shift:baseline;text-anchor:start;white-space:normal;shape-padding:0;clip-rule:nonzero;display:inline;overflow:visible;visibility:visible;opacity:1;isolation:auto;mix-blend-mode:normal;color-interpolation:sRGB;color-interpolation-filters:linearRGB;solid-color:#000000;solid-opacity:1;vector-effect:none;fill:#000000;fill-opacity:1;fill-rule:nonzero;stroke:none;stroke-width:9.95736122;stroke-linecap:butt;stroke-linejoin:miter;stroke-miterlimit:4;stroke-dasharray:none;stroke-dashoffset:0;stroke-opacity:1;color-rendering:auto;image-rendering:auto;shape-rendering:auto;text-rendering:auto;enable-background:accumulate"
       d="m 863.14068,624.21 -49.1934,32.78321 27.3809,-0.65039 -32.7168,40.24023 10.5586,-0.0723 96.6152,-0.66601 -32.3535,-40.32031 23.3262,-0.31836 z m -0.1817,12.08594 13.1836,9.36914 -13.2422,0.18164 32.2403,40.18164 -65.4825,0.45313 33.0137,-40.60352 -14.6113,0.3457 z"
       id="path66232"
       inkscape:connector-curvature="0" />
    <path
       inkscape:connector-curvature="0"
       id="path29-8-7-4-5"
       d="m 806.94008,270.60197 c -14.8512,-0.40147 -28.655,1.9027 -41.0748,5.82524 -19.8716,6.27617 -36.225,16.4137 -48.3088,25.61184 -12.0836,9.19804 -20.217,17.78592 -22.4708,20.01902 l 10.0204,10.1117 c 2.9246,-2.89766 9.9112,-10.30924 21.071,-18.80403 11.1599,-8.49477 26.1734,-17.74398 43.9748,-23.36645 35.6025,-11.24474 82.254,-9.12772 136.4446,44.22023 l 9.9857,-10.14439 c -39.2268,-38.61685 -76.9689,-52.58999 -109.6421,-53.47316 z"
       style="color:#000000;font-style:normal;font-variant:normal;font-weight:normal;font-stretch:normal;font-size:medium;line-height:normal;font-family:sans-serif;font-variant-ligatures:normal;font-variant-position:normal;font-variant-caps:normal;font-variant-numeric:normal;font-variant-alternates:normal;font-feature-settings:normal;text-indent:0;text-align:start;text-decoration:none;text-decoration-line:none;text-decoration-style:solid;text-decoration-color:#000000;letter-spacing:normal;word-spacing:normal;text-transform:none;writing-mode:lr-tb;direction:ltr;text-orientation:mixed;dominant-baseline:auto;baseline-shift:baseline;text-anchor:start;white-space:normal;shape-padding:0;clip-rule:nonzero;display:inline;overflow:visible;visibility:visible;opacity:1;isolation:auto;mix-blend-mode:normal;color-interpolation:sRGB;color-interpolation-filters:linearRGB;solid-color:#000000;solid-opacity:1;vector-effect:none;fill:#000000;fill-opacity:1;fill-rule:nonzero;stroke:none;stroke-width:14.23513508;stroke-linecap:butt;stroke-linejoin:miter;stroke-miterlimit:4;stroke-dasharray:none;stroke-dashoffset:0;stroke-opacity:1;color-rendering:auto;image-rendering:auto;shape-rendering:auto;text-rendering:auto;enable-background:accumulate" />
    <path
       inkscape:connector-curvature="0"
       id="path29-8-7-4-5-8"
       d="m 265.02407,267.59611 c -14.8512,-0.40147 -28.655,1.9027 -41.0748,5.82524 -19.8716,6.27617 -36.225,16.4137 -48.3088,25.61184 -12.0836,9.19804 -20.217,17.78592 -22.4708,20.01902 l 10.0204,10.1117 c 2.9246,-2.89766 9.9112,-10.30924 21.071,-18.80403 11.1599,-8.49477 26.1734,-17.74398 43.9748,-23.36645 33.48953,-10.57738 76.75548,-9.33194 126.87654,35.25523 l 19.55376,-1.17939 c -39.2268,-38.61685 -76.9689,-52.58999 -109.6421,-53.47316 z"
       style="color:#000000;font-style:normal;font-variant:normal;font-weight:normal;font-stretch:normal;font-size:medium;line-height:normal;font-family:sans-serif;font-variant-ligatures:normal;font-variant-position:normal;font-variant-caps:normal;font-variant-numeric:normal;font-variant-alternates:normal;font-feature-settings:normal;text-indent:0;text-align:start;text-decoration:none;text-decoration-line:none;text-decoration-style:solid;text-decoration-color:#000000;letter-spacing:normal;word-spacing:normal;text-transform:none;writing-mode:lr-tb;direction:ltr;text-orientation:mixed;dominant-baseline:auto;baseline-shift:baseline;text-anchor:start;white-space:normal;shape-padding:0;clip-rule:nonzero;display:inline;overflow:visible;visibility:visible;opacity:1;isolation:auto;mix-blend-mode:normal;color-interpolation:sRGB;color-interpolation-filters:linearRGB;solid-color:#000000;solid-opacity:1;vector-effect:none;fill:#000000;fill-opacity:1;fill-rule:nonzero;stroke:none;stroke-width:14.23513508;stroke-linecap:butt;stroke-linejoin:miter;stroke-miterlimit:4;stroke-dasharray:none;stroke-dashoffset:0;stroke-opacity:1;color-rendering:auto;image-rendering:auto;shape-rendering:auto;text-rendering:auto;enable-background:accumulate"
       sodipodi:nodetypes="cccccccccc" />
    <path
       inkscape:connector-curvature="0"
       id="path59-1-8-3-29-8-7"
       d="m 175.5782,47.03144 c -18.89857,-0.67963 -38.66334,6.92278 -61.87411,24.06682 l 8.32877,11.27675 c 21.76743,-16.07778 38.20351,-21.86682 53.04045,-21.33331 14.83695,0.5337 29.14275,7.54461 46.22823,19.80062 l 8.17111,-11.39011 C 211.44215,56.51865 194.47772,47.71106 175.5782,47.03144 Z"
       style="color:#000000;font-style:normal;font-variant:normal;font-weight:normal;font-stretch:normal;font-size:medium;line-height:normal;font-family:sans-serif;font-variant-ligatures:normal;font-variant-position:normal;font-variant-caps:normal;font-variant-numeric:normal;font-variant-alternates:normal;font-feature-settings:normal;text-indent:0;text-align:start;text-decoration:none;text-decoration-line:none;text-decoration-style:solid;text-decoration-color:#000000;letter-spacing:normal;word-spacing:normal;text-transform:none;writing-mode:lr-tb;direction:ltr;text-orientation:mixed;dominant-baseline:auto;baseline-shift:baseline;text-anchor:start;white-space:normal;shape-padding:0;clip-rule:nonzero;display:inline;overflow:visible;visibility:visible;opacity:1;isolation:auto;mix-blend-mode:normal;color-interpolation:sRGB;color-interpolation-filters:linearRGB;solid-color:#000000;solid-opacity:1;vector-effect:none;fill:#000000;fill-opacity:1;fill-rule:nonzero;stroke:none;stroke-width:14.01891232;stroke-linecap:butt;stroke-linejoin:miter;stroke-miterlimit:4;stroke-dasharray:none;stroke-dashoffset:0;stroke-opacity:1;color-rendering:auto;image-rendering:auto;shape-rendering:auto;text-rendering:auto;enable-background:accumulate" />
    <path
       inkscape:connector-curvature="0"
       id="path1039-2-2-0-9"
       d="m 97.915329,-43.28064 -7.92899,15.48515 c 0,0 35.086881,17.9633095 70.513521,35.9321595 17.7133,8.9843805 35.5092,17.9704405 49.07079,24.7239305 6.78126,3.37675 12.49832,6.19333 16.65849,8.19214 2.08055,0.99936 3.76225,1.78935 5.06483,2.37392 0.65129,0.29233 1.19465,0.53022 1.75303,0.75132 0.27872,0.11064 0.54994,0.21668 0.96098,0.34892 0.41104,0.13232 0.37725,0.46885 2.88762,0.46885 V 27.59907 c 2.42871,0 2.24383,0.30284 2.44092,0.36608 0.19613,0.0629 0.18768,0.0657 0.12387,0.0404 -0.12763,-0.0507 -0.52178,-0.21566 -1.04263,-0.44953 -1.04262,-0.46772 -2.64549,-1.22073 -4.65379,-2.18547 -4.01657,-1.92974 -9.69422,-4.7251 -16.43794,-8.08298 C 203.83951,10.57171 186.06239,1.5981195 168.36878,-7.3764105 132.98158,-25.32565 97.915329,-43.28079 97.915329,-43.28079 Z"
       style="color:#000000;font-style:normal;font-variant:normal;font-weight:normal;font-stretch:normal;font-size:medium;line-height:normal;font-family:sans-serif;font-variant-ligatures:normal;font-variant-position:normal;font-variant-caps:normal;font-variant-numeric:normal;font-variant-alternates:normal;font-feature-settings:normal;text-indent:0;text-align:start;text-decoration:none;text-decoration-line:none;text-decoration-style:solid;text-decoration-color:#000000;letter-spacing:normal;word-spacing:normal;text-transform:none;writing-mode:lr-tb;direction:ltr;text-orientation:mixed;dominant-baseline:auto;baseline-shift:baseline;text-anchor:start;white-space:normal;shape-padding:0;clip-rule:nonzero;display:inline;overflow:visible;visibility:visible;opacity:1;isolation:auto;mix-blend-mode:normal;color-interpolation:sRGB;color-interpolation-filters:linearRGB;solid-color:#000000;solid-opacity:1;vector-effect:none;fill:#000000;fill-opacity:1;fill-rule:nonzero;stroke:none;stroke-width:17.39641762;stroke-linecap:butt;stroke-linejoin:miter;stroke-miterlimit:4;stroke-dasharray:none;stroke-dashoffset:0;stroke-opacity:1;color-rendering:auto;image-rendering:auto;shape-rendering:auto;text-rendering:auto;enable-background:accumulate" />
    <path
       inkscape:connector-curvature="0"
       id="path59-1-8-3-29-8-3-0"
       d="m 356.34782,47.03144 c 18.89857,-0.67963 38.66333,6.92278 61.87411,24.06682 l -8.32878,11.27675 C 388.12572,66.29723 371.68965,60.50819 356.8527,61.0417 342.01575,61.5754 327.70996,68.58631 310.62448,80.84232 L 302.45336,69.45221 C 320.48387,56.51865 337.4483,47.71106 356.34782,47.03144 Z"
       style="color:#000000;font-style:normal;font-variant:normal;font-weight:normal;font-stretch:normal;font-size:medium;line-height:normal;font-family:sans-serif;font-variant-ligatures:normal;font-variant-position:normal;font-variant-caps:normal;font-variant-numeric:normal;font-variant-alternates:normal;font-feature-settings:normal;text-indent:0;text-align:start;text-decoration:none;text-decoration-line:none;text-decoration-style:solid;text-decoration-color:#000000;letter-spacing:normal;word-spacing:normal;text-transform:none;writing-mode:lr-tb;direction:ltr;text-orientation:mixed;dominant-baseline:auto;baseline-shift:baseline;text-anchor:start;white-space:normal;shape-padding:0;clip-rule:nonzero;display:inline;overflow:visible;visibility:visible;opacity:1;isolation:auto;mix-blend-mode:normal;color-interpolation:sRGB;color-interpolation-filters:linearRGB;solid-color:#000000;solid-opacity:1;vector-effect:none;fill:#000000;fill-opacity:1;fill-rule:nonzero;stroke:none;stroke-width:14.01891232;stroke-linecap:butt;stroke-linejoin:miter;stroke-miterlimit:4;stroke-dasharray:none;stroke-dashoffset:0;stroke-opacity:1;color-rendering:auto;image-rendering:auto;shape-rendering:auto;text-rendering:auto;enable-background:accumulate" />
    <path
       inkscape:connector-curvature="0"
       id="path1039-2-2-0-35-4"
       d="m 434.01069,-43.28064 7.929,15.48515 c 0,0 -35.08689,17.9633095 -70.51351,35.9321595 C 353.71286,17.12105 335.91696,26.10711 322.35537,32.8606 c -6.78126,3.37675 -12.49832,6.19333 -16.65848,8.19214 -2.08056,0.99936 -3.76226,1.78935 -5.06484,2.37392 -0.65127,0.29233 -1.19465,0.53022 -1.75302,0.75132 -0.2787,0.11064 -0.5499,0.21668 -0.961,0.34892 -0.411,0.13232 -0.3772,0.46885 -2.8876,0.46885 V 27.59907 c -2.4287,0 -2.2439,0.30284 -2.4409,0.36608 -0.1962,0.0629 -0.1877,0.0657 -0.1239,0.0404 0.1276,-0.0507 0.5218,-0.21566 1.0426,-0.44953 1.0426,-0.46772 2.6455,-1.22073 4.6538,-2.18547 4.01659,-1.92974 9.69425,-4.7251 16.43796,-8.08298 C 328.08652,10.57171 345.86364,1.5981195 363.55724,-7.3764105 398.94445,-25.32565 434.01069,-43.28079 434.01069,-43.28079 Z"
       style="color:#000000;font-style:normal;font-variant:normal;font-weight:normal;font-stretch:normal;font-size:medium;line-height:normal;font-family:sans-serif;font-variant-ligatures:normal;font-variant-position:normal;font-variant-caps:normal;font-variant-numeric:normal;font-variant-alternates:normal;font-feature-settings:normal;text-indent:0;text-align:start;text-decoration:none;text-decoration-line:none;text-decoration-style:solid;text-decoration-color:#000000;letter-spacing:normal;word-spacing:normal;text-transform:none;writing-mode:lr-tb;direction:ltr;text-orientation:mixed;dominant-baseline:auto;baseline-shift:baseline;text-anchor:start;white-space:normal;shape-padding:0;clip-rule:nonzero;display:inline;overflow:visible;visibility:visible;opacity:1;isolation:auto;mix-blend-mode:normal;color-interpolation:sRGB;color-interpolation-filters:linearRGB;solid-color:#000000;solid-opacity:1;vector-effect:none;fill:#000000;fill-opacity:1;fill-rule:nonzero;stroke:none;stroke-width:17.39641762;stroke-linecap:butt;stroke-linejoin:miter;stroke-miterlimit:4;stroke-dasharray:none;stroke-dashoffset:0;stroke-opacity:1;color-rendering:auto;image-rendering:auto;shape-rendering:auto;text-rendering:auto;enable-background:accumulate" />
    <path
       inkscape:connector-curvature="0"
       id="path59-1-8-3-29-8-8"
       d="m 717.49418,50.0373 c -18.8985,-0.67963 -38.6633,6.92278 -61.8741,24.06682 l 8.3288,11.27675 c 21.7674,-16.07778 38.2035,-21.86682 53.0405,-21.33331 14.8369,0.5337 29.1427,7.54461 46.2282,19.80062 l 8.1711,-11.39011 C 753.35818,59.52451 736.39378,50.71692 717.49418,50.0373 Z"
       style="color:#000000;font-style:normal;font-variant:normal;font-weight:normal;font-stretch:normal;font-size:medium;line-height:normal;font-family:sans-serif;font-variant-ligatures:normal;font-variant-position:normal;font-variant-caps:normal;font-variant-numeric:normal;font-variant-alternates:normal;font-feature-settings:normal;text-indent:0;text-align:start;text-decoration:none;text-decoration-line:none;text-decoration-style:solid;text-decoration-color:#000000;letter-spacing:normal;word-spacing:normal;text-transform:none;writing-mode:lr-tb;direction:ltr;text-orientation:mixed;dominant-baseline:auto;baseline-shift:baseline;text-anchor:start;white-space:normal;shape-padding:0;clip-rule:nonzero;display:inline;overflow:visible;visibility:visible;opacity:1;isolation:auto;mix-blend-mode:normal;color-interpolation:sRGB;color-interpolation-filters:linearRGB;solid-color:#000000;solid-opacity:1;vector-effect:none;fill:#000000;fill-opacity:1;fill-rule:nonzero;stroke:none;stroke-width:14.01891232;stroke-linecap:butt;stroke-linejoin:miter;stroke-miterlimit:4;stroke-dasharray:none;stroke-dashoffset:0;stroke-opacity:1;color-rendering:auto;image-rendering:auto;shape-rendering:auto;text-rendering:auto;enable-background:accumulate" />
    <path
       inkscape:connector-curvature="0"
       id="path1039-2-2-0-2"
       d="m 639.83138,-40.27478 -7.929,15.48515 c 0,0 35.0869,17.9633095 70.5135,35.93216 17.7133,8.98438 35.5092,17.97044 49.0708,24.72393 6.7813,3.37675 12.4983,6.19333 16.6585,8.19214 2.0805,0.99936 3.7622,1.78935 5.0648,2.37392 0.6513,0.29233 1.1947,0.53022 1.7531,0.75132 0.2787,0.11064 0.5499,0.21668 0.9609,0.34892 0.4111,0.13232 0.3773,0.46885 2.8877,0.46885 V 30.60493 c 2.4287,0 2.2438,0.30284 2.4409,0.36608 0.1961,0.0629 0.1877,0.0657 0.1238,0.0404 -0.1276,-0.0507 -0.5217,-0.21566 -1.0426,-0.44953 -1.0426,-0.46772 -2.6455,-1.22073 -4.6538,-2.18547 -4.0165,-1.92974 -9.6942,-4.7251 -16.4379,-8.08298 C 745.75558,13.57757 727.97838,4.6039795 710.28478,-4.3705505 674.89758,-22.31979 639.83138,-40.27493 639.83138,-40.27493 Z"
       style="color:#000000;font-style:normal;font-variant:normal;font-weight:normal;font-stretch:normal;font-size:medium;line-height:normal;font-family:sans-serif;font-variant-ligatures:normal;font-variant-position:normal;font-variant-caps:normal;font-variant-numeric:normal;font-variant-alternates:normal;font-feature-settings:normal;text-indent:0;text-align:start;text-decoration:none;text-decoration-line:none;text-decoration-style:solid;text-decoration-color:#000000;letter-spacing:normal;word-spacing:normal;text-transform:none;writing-mode:lr-tb;direction:ltr;text-orientation:mixed;dominant-baseline:auto;baseline-shift:baseline;text-anchor:start;white-space:normal;shape-padding:0;clip-rule:nonzero;display:inline;overflow:visible;visibility:visible;opacity:1;isolation:auto;mix-blend-mode:normal;color-interpolation:sRGB;color-interpolation-filters:linearRGB;solid-color:#000000;solid-opacity:1;vector-effect:none;fill:#000000;fill-opacity:1;fill-rule:nonzero;stroke:none;stroke-width:17.39641762;stroke-linecap:butt;stroke-linejoin:miter;stroke-miterlimit:4;stroke-dasharray:none;stroke-dashoffset:0;stroke-opacity:1;color-rendering:auto;image-rendering:auto;shape-rendering:auto;text-rendering:auto;enable-background:accumulate" />
    <path
       inkscape:connector-curvature="0"
       id="path59-1-8-3-29-8-3-2"
       d="m 898.26388,50.0373 c 18.8985,-0.67963 38.6633,6.92278 61.8741,24.06682 l -8.3288,11.27675 c -21.7674,-16.07778 -38.2035,-21.86682 -53.0405,-21.33331 -14.8369,0.5337 -29.1427,7.54461 -46.2282,19.80062 l -8.1711,-11.39011 c 18.0305,-12.93356 34.9949,-21.74115 53.8945,-22.42077 z"
       style="color:#000000;font-style:normal;font-variant:normal;font-weight:normal;font-stretch:normal;font-size:medium;line-height:normal;font-family:sans-serif;font-variant-ligatures:normal;font-variant-position:normal;font-variant-caps:normal;font-variant-numeric:normal;font-variant-alternates:normal;font-feature-settings:normal;text-indent:0;text-align:start;text-decoration:none;text-decoration-line:none;text-decoration-style:solid;text-decoration-color:#000000;letter-spacing:normal;word-spacing:normal;text-transform:none;writing-mode:lr-tb;direction:ltr;text-orientation:mixed;dominant-baseline:auto;baseline-shift:baseline;text-anchor:start;white-space:normal;shape-padding:0;clip-rule:nonzero;display:inline;overflow:visible;visibility:visible;opacity:1;isolation:auto;mix-blend-mode:normal;color-interpolation:sRGB;color-interpolation-filters:linearRGB;solid-color:#000000;solid-opacity:1;vector-effect:none;fill:#000000;fill-opacity:1;fill-rule:nonzero;stroke:none;stroke-width:14.01891232;stroke-linecap:butt;stroke-linejoin:miter;stroke-miterlimit:4;stroke-dasharray:none;stroke-dashoffset:0;stroke-opacity:1;color-rendering:auto;image-rendering:auto;shape-rendering:auto;text-rendering:auto;enable-background:accumulate" />
    <path
       inkscape:connector-curvature="0"
       id="path1039-2-2-0-35-2"
       d="m 975.92678,-40.27478 7.929,15.48515 c 0,0 -35.0869,17.9633095 -70.5135,35.93216 -17.7133,8.98438 -35.5092,17.97044 -49.0708,24.72393 -6.7813,3.37675 -12.4983,6.19333 -16.6585,8.19214 -2.0806,0.99936 -3.7623,1.78935 -5.0648,2.37392 -0.6513,0.29233 -1.1947,0.53022 -1.7531,0.75132 -0.2787,0.11064 -0.5499,0.21668 -0.9609,0.34892 -0.4111,0.13232 -0.3773,0.46885 -2.8877,0.46885 V 30.60493 c -2.4287,0 -2.2438,0.30284 -2.4409,0.36608 -0.1961,0.0629 -0.1877,0.0657 -0.1239,0.0404 0.1277,-0.0507 0.5218,-0.21566 1.0427,-0.44953 1.0426,-0.46772 2.6455,-1.22073 4.6538,-2.18547 4.0165,-1.92974 9.6942,-4.7251 16.4379,-8.08298 13.4865,-6.71586 31.2637,-15.6894505 48.9573,-24.6639805 35.3872,-17.9492395 70.4534,-35.9043795 70.4534,-35.9043795 z"
       style="color:#000000;font-style:normal;font-variant:normal;font-weight:normal;font-stretch:normal;font-size:medium;line-height:normal;font-family:sans-serif;font-variant-ligatures:normal;font-variant-position:normal;font-variant-caps:normal;font-variant-numeric:normal;font-variant-alternates:normal;font-feature-settings:normal;text-indent:0;text-align:start;text-decoration:none;text-decoration-line:none;text-decoration-style:solid;text-decoration-color:#000000;letter-spacing:normal;word-spacing:normal;text-transform:none;writing-mode:lr-tb;direction:ltr;text-orientation:mixed;dominant-baseline:auto;baseline-shift:baseline;text-anchor:start;white-space:normal;shape-padding:0;clip-rule:nonzero;display:inline;overflow:visible;visibility:visible;opacity:1;isolation:auto;mix-blend-mode:normal;color-interpolation:sRGB;color-interpolation-filters:linearRGB;solid-color:#000000;solid-opacity:1;vector-effect:none;fill:#000000;fill-opacity:1;fill-rule:nonzero;stroke:none;stroke-width:17.39641762;stroke-linecap:butt;stroke-linejoin:miter;stroke-miterlimit:4;stroke-dasharray:none;stroke-dashoffset:0;stroke-opacity:1;color-rendering:auto;image-rendering:auto;shape-rendering:auto;text-rendering:auto;enable-background:accumulate" />
    <path
       style="font-style:normal;font-weight:normal;font-size:233.33332825px;line-height:1.25;font-family:sans-serif;letter-spacing:0px;word-spacing:0px;fill:#000000;fill-opacity:1;stroke:none"
       d="m 452.91602,850.4674 c -14.20356,0 -25.06446,4.0623 -32.58399,12.1894 -7.51953,8.0512 -11.2793,19.635 -11.2793,34.75 v 4.21491 h -14.46875 v 18.0019 h 14.46875 v 109.26189 h 21.41993 V 919.62361 h 37.93945 v -18.0019 h -38.62305 v -4.32811 c 0,-10.6337 2.05078,-17.9647 6.15235,-21.99029 4.17751,-4.1015 10.86024,-6.1523 20.05078,-6.1523 2.88628,0 6.2296,0.3811 10.02734,1.1406 3.79774,0.6836 6.87392,1.3672 9.22852,2.05079 h 1.13867 v -19.59769 c -3.19011,-0.6076 -6.72201,-1.138 -10.5957,-1.5937 -3.79775,-0.45581 -8.08985,-0.68361 -12.875,-0.68361 z m 421.89258,1.1387 v 55.14251 c -5.6967,-2.9622 -11.1281,-5.1269 -16.293,-6.49411 -5.1649,-1.44319 -11.0894,-2.16409 -17.7734,-2.16409 -7.3677,0 -14.508,1.51849 -21.4199,4.5567 -6.8359,3.03819 -12.835,7.4442 -18,13.2168 -5.2409,5.9244 -9.419,13.1022 -12.5332,21.5332 -3.0382,8.43099 -4.5567,18.03859 -4.5567,28.8242 0,20.73569 4.4433,36.95339 13.3301,48.65049 8.9626,11.697 21.0396,17.5449 36.2305,17.5449 7.8234,0 15.0757,-1.4811 21.7597,-4.4434 6.684,-2.9622 13.1035,-7.1011 19.2559,-12.4179 v 13.3301 h 21.418 V 851.60611 Z m -147.20117,6.4941 V 880.317 H 751.7617 V 858.1002 Z M 30,859.2389 v 169.6466 h 22.55859 v -63.2326 h 22.5586 c 12.15277,0 22.21614,-1.44369 30.1914,-4.3301 7.97526,-2.9621 14.88781,-7.3682 20.73633,-13.2167 4.7092,-4.7092 8.35504,-10.2527 10.9375,-16.63289 2.65842,-6.4561 3.98828,-13.44531 3.98828,-20.96481 0,-9.8741 -1.78559,-18.038 -5.35547,-24.4941 -3.49392,-6.4562 -8.46962,-11.8503 -14.92578,-16.17969 -5.46875,-3.64591 -11.73503,-6.30361 -18.79883,-7.9746 C 94.82682,860.113 86.20726,859.2389 76.0293,859.2389 Z m 22.55859,19.3691 h 22.33008 c 7.13976,0 13.02691,0.53231 17.66016,1.59571 4.7092,0.98739 8.88737,2.65709 12.5332,5.01169 4.17752,2.7344 7.29101,6.2663 9.3418,10.59571 2.05078,4.32949 3.07617,9.41909 3.07617,15.26759 0,5.013 -0.7602,9.533 -2.2793,13.5586 -1.44314,4.0256 -3.94965,7.86 -7.51953,11.5059 -3.56988,3.5698 -8.20182,6.1903 -13.89844,7.8613 -5.69661,1.595 -13.10221,2.3926 -22.21679,2.3926 H 52.55859 Z m 269.22266,19.4824 c -18.53299,0 -33.49739,6.115 -44.89063,18.3438 -11.31727,12.2287 -16.9746,28.7489 -16.9746,49.5605 0,21.0395 5.92448,37.2926 17.77343,48.7617 11.84896,11.3934 28.32986,17.09 49.44532,17.09 8.27908,0 16.17968,-1.0254 23.69921,-3.0763 7.51954,-2.0508 14.88586,-4.5945 22.10157,-7.6328 v -23.3555 h -1.13867 c -3.7218,3.3421 -9.98807,6.7602 -18.79883,10.2539 -8.73481,3.4181 -17.43099,5.127 -26.08985,5.127 -6.53211,0 -12.5332,-0.9114 -18.00195,-2.7344 -5.3928,-1.8228 -10.06402,-4.5573 -14.01367,-8.2031 -4.10156,-3.7219 -7.32899,-8.4696 -9.6836,-14.2422 -2.3546,-5.8485 -3.5332,-12.6845 -3.5332,-20.5078 h 93.76758 v -11.6211 c 0,-18.457 -4.67122,-32.6986 -14.01367,-42.7246 -9.2665,-10.0261 -22.48264,-15.0391 -39.64844,-15.0391 z m 221.02734,0 c -18.53298,0 -33.49544,6.115 -44.88867,18.3438 -11.31727,12.2287 -16.97656,28.7489 -16.97656,49.5605 0,21.0395 5.92448,37.2926 17.77344,48.7617 11.84895,11.3934 28.33181,17.09 49.44726,17.09 8.27908,0 16.17774,-1.0254 23.69727,-3.0763 7.51953,-2.0508 14.8878,-4.5945 22.10351,-7.6328 v -23.3555 h -1.13867 c -3.72179,3.3421 -9.98806,6.7602 -18.79883,10.2539 -8.73481,3.4181 -17.43294,5.127 -26.09179,5.127 -6.53212,0 -12.53125,-0.9114 -18,-2.7344 -5.3928,-1.8228 -10.06403,-4.5573 -14.01367,-8.2031 -4.10158,-3.7219 -7.33095,-8.4696 -9.68555,-14.2422 -2.3546,-5.8485 -3.53125,-12.6845 -3.53125,-20.5078 h 93.76562 v -11.6211 c 0,-18.457 -4.67122,-32.6986 -14.01367,-42.7246 -9.26649,-10.0261 -22.48264,-15.0391 -39.64844,-15.0391 z m 445.36131,0 c -18.0013,0 -32.3175,6.0384 -42.9511,18.1153 -10.5578,12.0008 -15.8379,28.3698 -15.8379,49.10541 0,20.73569 5.2802,37.10269 15.8379,49.10349 10.6337,12.001 24.9498,18.0021 42.9511,18.0021 17.8494,0 32.0909,-6.0011 42.7246,-18.0021 10.6337,-12.0008 15.9512,-28.3678 15.9512,-49.10349 0,-20.73561 -5.3175,-37.10461 -15.9512,-49.10541 -10.6337,-12.0769 -24.8752,-18.1153 -42.7246,-18.1153 z m -819.05857,3.5313 v 127.2638 h 21.41992 v -90.34979 c 5.69661,-4.6332 11.62109,-8.39301 17.77344,-11.27931 6.15234,-2.9622 12.53255,-4.4433 19.14062,-4.4433 4.10156,0 7.63347,0.1905 10.59571,0.5703 3.03819,0.3038 6.15169,0.83621 9.34179,1.59571 h 1.13867 V 902.9889 c -3.34201,-0.5317 -5.84852,-0.87349 -7.51953,-1.02539 -1.671,-0.22791 -4.3661,-0.3418 -8.08789,-0.3418 -6.75998,0 -13.40733,1.4438 -19.93945,4.33009 -6.45616,2.81031 -13.93642,7.63281 -22.44336,14.4687 v -18.79879 z m 459.83008,0 v 127.2638 h 21.41992 v -90.34979 c 5.69661,-4.6332 11.62109,-8.39301 17.77344,-11.27931 6.15234,-2.9622 12.53255,-4.4433 19.14062,-4.4433 4.10156,0 7.63346,0.1905 10.5957,0.5703 3.03824,0.3038 6.15174,0.83621 9.34184,1.59571 h 1.1406 V 902.9889 c -3.342,-0.5317 -5.8485,-0.87349 -7.5195,-1.02539 -1.6711,-0.22791 -4.3681,-0.3418 -8.08989,-0.3418 -6.75998,0 -13.40538,1.4438 -19.9375,4.33009 -6.45616,2.81031 -13.93837,7.63281 -22.44531,14.4687 v -18.79879 z m 100.03322,0 v 127.2638 H 750.3945 V 901.6217 Z m -408.33401,14.1289 c 11.39324,0 19.8635,3.0762 25.40821,9.2285 5.62066,6.1523 8.46897,14.8485 8.54492,26.0898 h -72.91797 c 0.91146,-10.026 4.74783,-18.4197 11.50781,-25.1796 6.83594,-6.76 15.98786,-10.1387 27.45703,-10.1387 z m 221.0293,0 c 11.39323,0 19.86155,3.0762 25.40625,9.2285 5.62066,6.1523 8.46897,14.8485 8.54492,26.0898 h -72.91601 c 0.91146,-10.026 4.74783,-18.4197 11.50781,-25.1796 6.83594,-6.76 15.98785,-10.1387 27.45703,-10.1387 z m 446.49998,0.7969 c 11.4692,0 20.4325,4.0249 26.8887,12.0761 6.4561,7.9753 9.6836,20.2053 9.6836,36.6875 0,16.1025 -3.2648,28.2538 -9.7969,36.4571 -6.4562,8.1271 -15.3822,12.1914 -26.7754,12.1914 -11.5452,0 -20.5457,-4.1015 -27.0019,-12.3047 -6.4561,-8.2792 -9.6836,-20.3932 -9.6836,-36.3438 0,-16.4822 3.19,-28.7122 9.5703,-36.6875 6.4561,-8.0512 15.4941,-12.0761 27.1152,-12.0761 z m -143.7812,1.1386 c 5.3928,0 10.3665,0.495 14.9238,1.4825 4.5573,0.9874 9.7235,2.771 15.4961,5.3535 v 73.0312 c -5.3928,4.2536 -11.2033,7.7482 -17.4316,10.4824 -6.2283,2.6585 -12.3807,3.9864 -18.4571,3.9864 -11.3932,0 -19.673,-3.9111 -24.8379,-11.7344 -5.1649,-7.8994 -7.748,-19.4065 -7.748,-34.5215 0,-15.3429 3.3433,-27.1918 10.0273,-35.5469 6.684,-8.355 16.0266,-12.5332 28.0274,-12.5332 z"
       id="text2778"
       inkscape:connector-curvature="0" />
  </g>
</svg>
