<?xml version="1.0" encoding="UTF-8" standalone="no"?>
<!-- Created with Inkscape (http://www.inkscape.org/) -->

<svg
   xmlns:dc="http://purl.org/dc/elements/1.1/"
   xmlns:cc="http://creativecommons.org/ns#"
   xmlns:rdf="http://www.w3.org/1999/02/22-rdf-syntax-ns#"
   xmlns:svg="http://www.w3.org/2000/svg"
   xmlns="http://www.w3.org/2000/svg"
   xmlns:sodipodi="http://sodipodi.sourceforge.net/DTD/sodipodi-0.dtd"
   xmlns:inkscape="http://www.inkscape.org/namespaces/inkscape"
   width="1000"
   height="1000"
   viewBox="0 0 1000 1000"
   version="1.1"
   id="svg4207"
   inkscape:version="0.92.4 (5da689c313, 2019-01-14)"
   sodipodi:docname="Esse - Este - Essa - Esta - Isso - Isto.svg">
  <defs
     id="defs4201" />
  <sodipodi:namedview
     id="base"
     pagecolor="#ffffff"
     bordercolor="#666666"
     borderopacity="1.0"
     inkscape:pageopacity="0.0"
     inkscape:pageshadow="2"
     inkscape:zoom="1"
     inkscape:cx="323.58947"
     inkscape:cy="669.39255"
     inkscape:document-units="px"
     inkscape:current-layer="layer1"
     showgrid="false"
     units="px"
     inkscape:window-width="681"
     inkscape:window-height="706"
     inkscape:window-x="-7"
     inkscape:window-y="0"
     inkscape:window-maximized="1" />
  <metadata
     id="metadata4204">
    <rdf:RDF>
      <cc:Work
         rdf:about="">
        <dc:format>image/svg+xml</dc:format>
        <dc:type
           rdf:resource="http://purl.org/dc/dcmitype/StillImage" />
        <dc:title></dc:title>
      </cc:Work>
    </rdf:RDF>
  </metadata>
  <g
     inkscape:label="Camada 1"
     inkscape:groupmode="layer"
     id="layer1"
     transform="translate(0,-32.41665)">
    <path
       style="color:#000000;font-style:normal;font-variant:normal;font-weight:normal;font-stretch:normal;font-size:medium;line-height:normal;font-family:sans-serif;font-variant-ligatures:normal;font-variant-position:normal;font-variant-caps:normal;font-variant-numeric:normal;font-variant-alternates:normal;font-feature-settings:normal;text-indent:0;text-align:start;text-decoration:none;text-decoration-line:none;text-decoration-style:solid;text-decoration-color:#000000;letter-spacing:normal;word-spacing:normal;text-transform:none;writing-mode:lr-tb;direction:ltr;text-orientation:mixed;dominant-baseline:auto;baseline-shift:baseline;text-anchor:start;white-space:normal;shape-padding:0;clip-rule:nonzero;display:inline;overflow:visible;visibility:visible;opacity:1;isolation:auto;mix-blend-mode:normal;color-interpolation:sRGB;color-interpolation-filters:linearRGB;solid-color:#000000;solid-opacity:1;vector-effect:none;fill:#000000;fill-opacity:1;fill-rule:nonzero;stroke:none;stroke-width:26.58952141;stroke-linecap:butt;stroke-linejoin:miter;stroke-miterlimit:4;stroke-dasharray:none;stroke-dashoffset:0;stroke-opacity:1;color-rendering:auto;image-rendering:auto;shape-rendering:auto;text-rendering:auto;enable-background:accumulate"
       d="M 327.38477,32.667969 C 224.91986,32.638409 154.53026,73.777648 114.04297,135.32227 73.552008,196.87246 62.253873,277.24348 71.103516,356.79883 c 8.849642,79.55534 37.886174,158.64633 80.753904,218.71094 42.86774,60.0646 100.58285,101.90666 166.22852,101.51562 65.61471,-0.3909 122.85817,-42.67214 165.47265,-102.93945 42.61449,-60.26731 71.59408,-139.32782 81.21875,-218.68555 9.62468,-79.35773 -0.0144,-159.30491 -37.40625,-220.61133 C 489.98283,73.488558 423.73008,32.321272 327.38477,32.667969 Z m 0.0176,26.589843 h 0.0254 0.0274 c 88.98199,-0.327574 144.17306,35.20279 177.21484,89.376958 33.04179,54.17416 42.81833,128.48794 33.71289,203.56445 -9.10544,75.07651 -37.00073,150.62381 -76.53515,206.53516 C 422.31323,614.64572 372.1338,650.11455 317.92578,650.4375 263.74868,650.76022 213.22099,615.71997 173.5,560.06445 133.77901,504.40894 105.88145,428.94248 97.529297,353.85938 89.177141,278.77627 100.40879,204.42657 136.25586,149.93555 172.10293,95.44452 231.85161,59.223288 327.40234,59.257812 Z"
       id="path10-9-5"
       inkscape:connector-curvature="0" />
    <path
       style="color:#000000;font-style:normal;font-variant:normal;font-weight:normal;font-stretch:normal;font-size:medium;line-height:normal;font-family:sans-serif;font-variant-ligatures:normal;font-variant-position:normal;font-variant-caps:normal;font-variant-numeric:normal;font-variant-alternates:normal;font-feature-settings:normal;text-indent:0;text-align:start;text-decoration:none;text-decoration-line:none;text-decoration-style:solid;text-decoration-color:#000000;letter-spacing:normal;word-spacing:normal;text-transform:none;writing-mode:lr-tb;direction:ltr;text-orientation:mixed;dominant-baseline:auto;baseline-shift:baseline;text-anchor:start;white-space:normal;shape-padding:0;clip-rule:nonzero;display:inline;overflow:visible;visibility:visible;opacity:1;isolation:auto;mix-blend-mode:normal;color-interpolation:sRGB;color-interpolation-filters:linearRGB;solid-color:#000000;solid-opacity:1;vector-effect:none;fill:#000000;fill-opacity:1;fill-rule:nonzero;stroke:none;stroke-width:13.2947607;stroke-linecap:butt;stroke-linejoin:miter;stroke-miterlimit:4;stroke-dasharray:none;stroke-dashoffset:0;stroke-opacity:1;color-rendering:auto;image-rendering:auto;shape-rendering:auto;text-rendering:auto;enable-background:accumulate"
       d="m 313.16211,352.90039 c 0,0 -1.50007,14.79988 -3.98047,30.34375 -1.2402,7.77193 -2.73252,15.72843 -4.33789,21.91211 -0.80269,3.09184 -1.64543,5.74728 -2.39844,7.57813 -0.753,1.83084 -1.72581,2.78909 -1.02734,2.20703 -1.47115,1.22595 -3.02683,2.24793 -3.8418,5.50781 -0.40748,1.62994 -0.17524,4.05834 0.86524,5.7539 1.04048,1.69557 2.39309,2.5245 3.41601,3.00586 4.09171,1.92547 6.19255,1.18797 8.97461,0.9961 5.56413,-0.38375 11.58985,-1.625 11.58985,-1.625 l -2.60743,-13.03711 c 0,0 -2.84119,0.36223 -4.56054,0.64453 0.88167,-2.36387 1.71478,-4.8304 2.45703,-7.68945 1.79404,-6.9104 3.32172,-15.15205 4.59961,-23.16016 2.55577,-16.01621 4.07812,-31.09961 4.07812,-31.09961 z"
       id="path971-8"
       inkscape:connector-curvature="0" />
    <path
       style="color:#000000;font-style:normal;font-variant:normal;font-weight:normal;font-stretch:normal;font-size:medium;line-height:normal;font-family:sans-serif;font-variant-ligatures:normal;font-variant-position:normal;font-variant-caps:normal;font-variant-numeric:normal;font-variant-alternates:normal;font-feature-settings:normal;text-indent:0;text-align:start;text-decoration:none;text-decoration-line:none;text-decoration-style:solid;text-decoration-color:#000000;letter-spacing:normal;word-spacing:normal;text-transform:none;writing-mode:lr-tb;direction:ltr;text-orientation:mixed;dominant-baseline:auto;baseline-shift:baseline;text-anchor:start;white-space:normal;shape-padding:0;clip-rule:nonzero;display:inline;overflow:visible;visibility:visible;opacity:1;isolation:auto;mix-blend-mode:normal;color-interpolation:sRGB;color-interpolation-filters:linearRGB;solid-color:#000000;solid-opacity:1;vector-effect:none;fill:#000000;fill-opacity:1;fill-rule:nonzero;stroke:none;stroke-width:12.86418247;stroke-linecap:butt;stroke-linejoin:miter;stroke-miterlimit:4;stroke-dasharray:none;stroke-dashoffset:0;stroke-opacity:1;color-rendering:auto;image-rendering:auto;shape-rendering:auto;text-rendering:auto;enable-background:accumulate"
       d="m 237.55273,680.0332 c -6.06304,-0.0816 -9.83398,0.13086 -9.83398,0.13086 l -0.49219,0.0274 -0.48242,0.10351 c -1.51906,0.32223 -8.94415,1.16514 -17.88281,1.90625 -8.93866,0.74111 -19.91047,1.52307 -30.55078,2.23242 -21.28063,1.41871 -41.23633,2.55274 -41.23633,2.55274 l -0.008,0.002 h -0.006 c -56.473718,3.34165 -90.125418,26.43996 -109.064456,48.89258 -18.6328968,22.08968 -23.3389635,43.6471 -23.4882815,44.3457 -9.5529049,25.8386 -0.00391,48.26367 -0.00391,48.26367 l -0.1894531,-0.5 c 2.2964008,6.88921 2.8763511,11.04639 2.9648438,13.14063 0.040377,0.95555 -0.020782,1.37356 -0.046875,1.54883 l -0.1210938,0.26367 -0.1347656,0.91602 c -1.9009669,12.88428 4.9371202,24.31815 11.3964842,32.62304 5.07531,6.52539 9.446958,10.47495 11.490234,12.25391 6.849329,39.71572 15.611397,62.41469 23.16211,75.32812 3.854265,6.59167 7.400344,10.69441 10.214843,13.23633 1.621697,1.46464 3.069289,2.38015 4.166016,2.9961 16.696947,15.96426 35.487754,15.84912 48.625004,11.00195 8.26239,-3.04852 13.74347,-6.98525 17.5,-10.07813 9.45798,7.24626 18.89379,9.30831 26.10547,9.00782 1.3273,-0.0553 2.46526,-0.28351 3.6543,-0.46875 0.19214,2.95262 0.83913,5.64767 1.96679,8.02343 2.33679,4.9231 6.4368,8.0386 10.28907,9.7598 7.70452,3.4424 15.4082,2.5234 15.4082,2.5234 l 0.1875,-0.016 0.1875,-0.027 c 20.51506,-3.0215 35.64487,-3.0834 45.53906,-2.4238 9.89419,0.6596 14.13281,1.9199 14.13281,1.9199 l -0.28906,-0.09 c 13.9869,4.7185 21.79653,5.6342 27.38867,4.7148 0.10163,-0.017 0.17696,-0.064 0.27735,-0.082 0.64114,0.796 1.18042,1.6485 1.91015,2.4004 2.82578,2.9117 6.44015,5.5736 10.67578,7.9297 8.47127,4.7121 19.45995,8.195 31.14649,7.7676 11.68654,-0.4274 24.14351,-5.146 33.66992,-16.3614 9.52641,-11.2154 16.09055,-28.40536 18.12695,-53.48825 l 0.0176,-0.20117 0.002,-0.20508 c 0.93515,-52.83789 -9.27734,-112.83008 -9.27734,-112.83008 l -0.0625,-0.36914 -0.10547,-0.36133 c -11.67517,-39.96474 -13.53125,-79.80664 -13.53125,-79.80664 l -0.0137,-0.32031 -0.0469,-0.31641 c -3.3815,-23.18752 -12.13605,-39.48346 -20.15234,-49.92773 -7.28894,-9.49663 -13.64027,-13.88327 -14.85937,-14.70313 -14.53386,-14.03572 -36.47094,-19.25529 -54.73829,-21.60156 -9.16929,-1.17771 -17.52484,-1.55311 -23.58789,-1.63477 z m 0.0156,12.86328 c 5.63226,0.0808 13.3975,0.43487 21.93359,1.53125 17.0722,2.19277 36.77261,7.67668 47.58008,18.20704 l 0.48633,0.47461 0.57617,0.36132 c 0,0 5.53506,3.40455 12.38867,12.33399 6.83559,8.90595 14.53063,22.96542 17.59766,43.79297 0.0625,1.34388 1.99372,40.91522 13.87109,81.84765 0.10996,0.65541 9.92369,59.32722 9.0625,109.98242 -1.90923,23.22293 -7.91389,37.59708 -15.08789,46.04297 -7.1917,8.4667 -15.5826,11.5139 -24.33594,11.834 -8.75333,0.3201 -17.79786,-2.4697 -24.42187,-6.1543 -3.31201,-1.8423 -6.01149,-3.9094 -7.69727,-5.6465 -1.68577,-1.737 -2.0419,-3.2181 -1.99023,-2.6328 l -12.7168,-0.6895 c 0.20715,-1.0005 0.80917,-1.8952 1.19917,-2.7304 -1.84441,0.3032 -8.21217,0.1669 -21.18945,-4.21097 l -0.14258,-0.0488 -0.14648,-0.041 c 0,0 -5.99429,-1.66563 -16.81055,-2.38672 -10.75203,-0.7168 -26.70707,-0.60795 -47.91016,2.48828 -0.0297,10e-4 -5.28297,0.21443 -9.01953,-1.45507 -1.87356,-0.83712 -3.11579,-1.84339 -3.91601,-3.5293 -0.80023,-1.68592 -1.3537,-4.55213 -0.0566,-9.8086 l -6.5899,-7.96293 -2.93549,0.88872 c 0,0 -2.88779,1.76908 -8.19532,1.99023 -5.30752,0.22115 -12.51911,-1.06102 -21.13086,-9.24219 l -4.58984,-4.36133 -4.43359,4.52344 c 0,0 -7.15163,7.1637 -17.36915,10.9336 -10.21751,3.76989 -22.233642,4.77928 -35.888667,-8.73047 l -0.980469,-0.97071 -1.294922,-0.48242 c 0,0 0.142282,0.23808 -1.550781,-1.29101 -1.693063,-1.5291 -4.439561,-4.55206 -7.732422,-10.1836 -6.585721,-11.26308 -15.295131,-32.96826 -22.03125,-73.22461 l -0.398437,-2.38086 -1.865234,-1.53125 c 0,0 -5.827038,-4.80246 -11.306641,-11.84765 -5.479603,-7.0452 -9.849049,-15.9168 -8.826172,-22.84961 l -0.523437,1.75781 c 0,0 0.53571,-1.37265 0.728515,-2.50195 0.192805,-1.12931 0.300241,-2.56821 0.222656,-4.4043 -0.155169,-3.67219 -1.036642,-8.93609 -3.613281,-16.66601 l -0.08398,-0.25391 -0.105469,-0.24609 c 0,0 -6.5817648,-15.81075 -0.832031,-35.2168 h 0.484375 l 1.060547,-5.13086 c 0,0 3.830007,-18.79313 20.789062,-38.89844 16.959055,-20.10531 46.657986,-41.18994 99.990228,-44.3457 0.0151,-8.6e-4 19.99523,-1.13914 41.34571,-2.5625 10.67925,-0.71195 21.69861,-1.49483 30.75976,-2.2461 8.53155,-0.70735 14.66012,-1.27128 18.57813,-2.01367 0.0504,-0.003 3.47315,-0.19153 9.06445,-0.11133 z"
       id="path4253"
       inkscape:connector-curvature="0"
       sodipodi:nodetypes="ccccsscccscccscccscsscsccccscccsccccccsscccccccccscscccscccsccccsscccccccsccccccscccsccccscccscccsccccccscscccc" />
    <path
       style="color:#000000;font-style:normal;font-variant:normal;font-weight:normal;font-stretch:normal;font-size:medium;line-height:normal;font-family:sans-serif;font-variant-ligatures:normal;font-variant-position:normal;font-variant-caps:normal;font-variant-numeric:normal;font-variant-alternates:normal;font-feature-settings:normal;text-indent:0;text-align:start;text-decoration:none;text-decoration-line:none;text-decoration-style:solid;text-decoration-color:#000000;letter-spacing:normal;word-spacing:normal;text-transform:none;writing-mode:lr-tb;direction:ltr;text-orientation:mixed;dominant-baseline:auto;baseline-shift:baseline;text-anchor:start;white-space:normal;shape-padding:0;clip-rule:nonzero;display:inline;overflow:visible;visibility:visible;opacity:1;isolation:auto;mix-blend-mode:normal;color-interpolation:sRGB;color-interpolation-filters:linearRGB;solid-color:#000000;solid-opacity:1;vector-effect:none;fill:#000000;fill-opacity:1;fill-rule:nonzero;stroke:none;stroke-width:12.86418247;stroke-linecap:butt;stroke-linejoin:miter;stroke-miterlimit:4;stroke-dasharray:none;stroke-dashoffset:0;stroke-opacity:1;color-rendering:auto;image-rendering:auto;shape-rendering:auto;text-rendering:auto;enable-background:accumulate"
       d="m 252.76562,776.11328 c -6.73943,42.24182 9.53228,117.14105 9.53321,117.15625 l 0.0527,0.86524 0.28125,0.82031 c 6.06645,17.76601 7.39627,32.11893 7.44141,32.61328 -1.59066,13.40954 -0.38655,32.29675 1.14258,48.55078 1.56722,16.65899 3.48716,28.26136 3.48716,28.26136 l 12.82729,0.4906 c 0,0 -1.97384,-13.65151 -3.50781,-29.95704 -1.53397,-16.30552 -2.55627,-35.84245 -1.11719,-46.73828 l 0.0918,-0.70312 -0.0605,-0.70508 c 0,0 -1.44178,-16.25353 -8.06641,-35.75 -0.83376,-4.2658 -15.03421,-77.57718 -9.40234,-112.87696 z"
       id="path4255"
       inkscape:connector-curvature="0"
       sodipodi:nodetypes="cccccsccscccccc" />
    <path
       style="color:#000000;font-style:normal;font-variant:normal;font-weight:normal;font-stretch:normal;font-size:medium;line-height:normal;font-family:sans-serif;font-variant-ligatures:normal;font-variant-position:normal;font-variant-caps:normal;font-variant-numeric:normal;font-variant-alternates:normal;font-feature-settings:normal;text-indent:0;text-align:start;text-decoration:none;text-decoration-line:none;text-decoration-style:solid;text-decoration-color:#000000;letter-spacing:normal;word-spacing:normal;text-transform:none;writing-mode:lr-tb;direction:ltr;text-orientation:mixed;dominant-baseline:auto;baseline-shift:baseline;text-anchor:start;white-space:normal;shape-padding:0;clip-rule:nonzero;display:inline;overflow:visible;visibility:visible;opacity:1;isolation:auto;mix-blend-mode:normal;color-interpolation:sRGB;color-interpolation-filters:linearRGB;solid-color:#000000;solid-opacity:1;vector-effect:none;fill:#000000;fill-opacity:1;fill-rule:nonzero;stroke:none;stroke-width:12.86418247;stroke-linecap:butt;stroke-linejoin:miter;stroke-miterlimit:4;stroke-dasharray:none;stroke-dashoffset:0;stroke-opacity:1;color-rendering:auto;image-rendering:auto;shape-rendering:auto;text-rendering:auto;enable-background:accumulate"
       d="m 110.77148,849.30273 -11.222652,6.28516 c 2.146782,3.83351 2.830962,10.5455 2.519532,16.20313 -0.31143,5.65763 -1.32813,9.94726 -1.32813,9.94726 l -0.19726,0.83008 0.0254,0.85352 c 0.94399,31.38811 7.78346,54.61984 14.49023,70.0664 6.70678,15.44656 13.625,23.52539 13.625,23.52539 l 9.71485,-8.43359 c 0,0 -5.43352,-6.15299 -11.53906,-20.21485 -6.06137,-13.96009 -12.43191,-35.32264 -13.39844,-64.70703 0.28431,-1.29013 1.13192,-5.32491 1.45312,-11.16015 0.37772,-6.86196 0.14276,-15.54297 -4.14258,-23.19532 z"
       id="path4257"
       inkscape:connector-curvature="0" />
    <path
       style="color:#000000;font-style:normal;font-variant:normal;font-weight:normal;font-stretch:normal;font-size:medium;line-height:normal;font-family:sans-serif;font-variant-ligatures:normal;font-variant-position:normal;font-variant-caps:normal;font-variant-numeric:normal;font-variant-alternates:normal;font-feature-settings:normal;text-indent:0;text-align:start;text-decoration:none;text-decoration-line:none;text-decoration-style:solid;text-decoration-color:#000000;letter-spacing:normal;word-spacing:normal;text-transform:none;writing-mode:lr-tb;direction:ltr;text-orientation:mixed;dominant-baseline:auto;baseline-shift:baseline;text-anchor:start;white-space:normal;shape-padding:0;clip-rule:nonzero;display:inline;overflow:visible;visibility:visible;opacity:1;isolation:auto;mix-blend-mode:normal;color-interpolation:sRGB;color-interpolation-filters:linearRGB;solid-color:#000000;solid-opacity:1;vector-effect:none;fill:#000000;fill-opacity:1;fill-rule:nonzero;stroke:none;stroke-width:12.86418247;stroke-linecap:butt;stroke-linejoin:miter;stroke-miterlimit:4;stroke-dasharray:none;stroke-dashoffset:0;stroke-opacity:1;color-rendering:auto;image-rendering:auto;shape-rendering:auto;text-rendering:auto;enable-background:accumulate"
       d="m 175.23047,830.43164 c -0.30318,2.68201 0.17388,4.34783 0.70312,6.61719 0.52925,2.26935 1.28466,4.85957 2.20703,7.79687 1.84476,5.87461 4.36807,13.10491 7.04493,20.95899 5.35371,15.70815 11.29637,34.00259 13.43164,47.38086 l 0.0566,0.35156 0.0937,0.34375 c 6.16045,22.36146 6.94369,38.00568 6.97265,38.60352 -0.41208,4.74341 -2.28936,8.05167 -5.29882,10.98046 -3.08414,3.00146 -7.4529,5.39532 -11.99024,7.0918 -9.07468,3.39295 -18.21875,3.93945 -18.21875,3.93945 l 0.6875,12.84571 c 0,0 10.75329,-0.51813 22.03516,-4.73633 5.64093,-2.1091 11.56485,-5.15894 16.45898,-9.92188 4.89414,-4.76293 8.63846,-11.47293 9.21094,-19.63086 l 0.0254,-0.37304 -0.0176,-0.37305 c 0,0 -0.8398,-17.66578 -7.40625,-41.60547 -2.46936,-15.09352 -8.52748,-33.38556 -13.86523,-49.04687 -2.69472,-7.90648 -5.20694,-15.11385 -6.94922,-20.66211 -0.87114,-2.77413 -1.54745,-5.14249 -1.94922,-6.86524 -0.40177,-1.72274 -0.44922,-2.25 -0.44922,-2.25 z"
       id="path4259"
       inkscape:connector-curvature="0"
       sodipodi:nodetypes="cccscccccsccscccccssccc" />
    <path
       style="color:#000000;font-style:normal;font-variant:normal;font-weight:normal;font-stretch:normal;font-size:medium;line-height:normal;font-family:sans-serif;font-variant-ligatures:normal;font-variant-position:normal;font-variant-caps:normal;font-variant-numeric:normal;font-variant-alternates:normal;font-feature-settings:normal;text-indent:0;text-align:start;text-decoration:none;text-decoration-line:none;text-decoration-style:solid;text-decoration-color:#000000;letter-spacing:normal;word-spacing:normal;text-transform:none;writing-mode:lr-tb;direction:ltr;text-orientation:mixed;dominant-baseline:auto;baseline-shift:baseline;text-anchor:start;white-space:normal;shape-padding:0;clip-rule:nonzero;display:inline;overflow:visible;visibility:visible;opacity:1;isolation:auto;mix-blend-mode:normal;color-interpolation:sRGB;color-interpolation-filters:linearRGB;solid-color:#000000;solid-opacity:1;vector-effect:none;fill:#000000;fill-opacity:1;fill-rule:nonzero;stroke:none;stroke-width:12.86418247;stroke-linecap:butt;stroke-linejoin:miter;stroke-miterlimit:4;stroke-dasharray:none;stroke-dashoffset:0;stroke-opacity:1;color-rendering:auto;image-rendering:auto;shape-rendering:auto;text-rendering:auto;enable-background:accumulate"
       d="m 273.35547,949.33594 c -25.35072,9.49258 -40.16071,9.79626 -48.02149,8.29101 -3.93038,-0.75262 -6.16058,-1.92638 -7.3457,-2.72461 -1.18512,-0.79823 -0.94336,-0.66601 -0.94336,-0.66601 l -10.5918,7.29883 c 0,0 1.70654,2.25819 4.34766,4.03711 2.64112,1.77891 6.59849,3.63305 12.11524,4.68945 11.03349,2.11279 28.15408,1.15454 54.94921,-8.87891 z"
       id="path4261"
       inkscape:connector-curvature="0" />
    <path
       style="color:#000000;font-style:normal;font-variant:normal;font-weight:normal;font-stretch:normal;font-size:medium;line-height:normal;font-family:sans-serif;font-variant-ligatures:normal;font-variant-position:normal;font-variant-caps:normal;font-variant-numeric:normal;font-variant-alternates:normal;font-feature-settings:normal;text-indent:0;text-align:start;text-decoration:none;text-decoration-line:none;text-decoration-style:solid;text-decoration-color:#000000;letter-spacing:normal;word-spacing:normal;text-transform:none;writing-mode:lr-tb;direction:ltr;text-orientation:mixed;dominant-baseline:auto;baseline-shift:baseline;text-anchor:start;white-space:normal;shape-padding:0;clip-rule:nonzero;display:inline;overflow:visible;visibility:visible;opacity:1;isolation:auto;mix-blend-mode:normal;color-interpolation:sRGB;color-interpolation-filters:linearRGB;solid-color:#000000;solid-opacity:1;vector-effect:none;fill:#000000;fill-opacity:1;fill-rule:nonzero;stroke:none;stroke-width:12.86418247;stroke-linecap:butt;stroke-linejoin:miter;stroke-miterlimit:4;stroke-dasharray:none;stroke-dashoffset:0;stroke-opacity:1;color-rendering:auto;image-rendering:auto;shape-rendering:auto;text-rendering:auto;enable-background:accumulate"
       d="m 321.5293,946.74609 c -2.13254,-0.21402 -4.29195,-0.18584 -6.45508,0.0937 -17.30504,2.23677 -31.93663,19.56817 -33.9336,47.33985 l -0.31835,4.43359 4.03515,1.86522 c 2.22302,1.0279 4.58244,1.6047 8.51953,2.2442 3.9371,0.6395 9.02214,1.0844 14.95899,0.8496 11.87369,-0.4697 27.18729,-3.70479 42.84375,-13.60355 l 3.67773,-2.32422 -0.79101,-4.2793 c -4.01934,-21.77344 -17.60933,-35.12095 -32.53711,-36.61914 z m -1.09571,12.76953 c 7.93892,0.68147 15.98462,7.09478 19.87891,21.72266 -12.057,6.67868 -23.48086,9.12437 -32.48438,9.48047 -5.0006,0.19778 -9.25697,-0.18468 -12.38867,-0.69336 -0.47802,-0.0776 -0.35301,-0.0972 -0.79101,-0.1875 2.90719,-20.01223 13.081,-29.07781 22.07422,-30.24023 1.22075,-0.15779 2.4642,-0.18905 3.71093,-0.082 z"
       id="path4263"
       inkscape:connector-curvature="0" />
    <path
       style="color:#000000;font-style:normal;font-variant:normal;font-weight:normal;font-stretch:normal;font-size:medium;line-height:normal;font-family:sans-serif;font-variant-ligatures:normal;font-variant-position:normal;font-variant-caps:normal;font-variant-numeric:normal;font-variant-alternates:normal;font-feature-settings:normal;text-indent:0;text-align:start;text-decoration:none;text-decoration-line:none;text-decoration-style:solid;text-decoration-color:#000000;letter-spacing:normal;word-spacing:normal;text-transform:none;writing-mode:lr-tb;direction:ltr;text-orientation:mixed;dominant-baseline:auto;baseline-shift:baseline;text-anchor:start;white-space:normal;shape-padding:0;clip-rule:nonzero;display:inline;overflow:visible;visibility:visible;opacity:1;isolation:auto;mix-blend-mode:normal;color-interpolation:sRGB;color-interpolation-filters:linearRGB;solid-color:#000000;solid-opacity:1;vector-effect:none;fill:#000000;fill-opacity:1;fill-rule:nonzero;stroke:none;stroke-width:12.86418247;stroke-linecap:butt;stroke-linejoin:miter;stroke-miterlimit:4;stroke-dasharray:none;stroke-dashoffset:0;stroke-opacity:1;color-rendering:auto;image-rendering:auto;shape-rendering:auto;text-rendering:auto;enable-background:accumulate"
       d="m 46.423828,746.33008 c -8.751171,-0.18116 -15.914008,2.83113 -20.833984,6.82031 -7.871963,6.38269 -10.972656,14.75391 -10.972656,14.75391 l 12.013671,4.60547 c 0,0 2.183199,-5.41257 7.060547,-9.36719 4.877349,-3.95462 11.479818,-6.96575 24.667969,-0.87891 L 63.75,750.58398 c -6.253166,-2.88608 -12.075469,-4.1452 -17.326172,-4.2539 z"
       id="path4265"
       inkscape:connector-curvature="0" />
    <path
       style="color:#000000;font-style:normal;font-variant:normal;font-weight:normal;font-stretch:normal;font-size:medium;line-height:normal;font-family:sans-serif;font-variant-ligatures:normal;font-variant-position:normal;font-variant-caps:normal;font-variant-numeric:normal;font-variant-alternates:normal;font-feature-settings:normal;text-indent:0;text-align:start;text-decoration:none;text-decoration-line:none;text-decoration-style:solid;text-decoration-color:#000000;letter-spacing:normal;word-spacing:normal;text-transform:none;writing-mode:lr-tb;direction:ltr;text-orientation:mixed;dominant-baseline:auto;baseline-shift:baseline;text-anchor:start;white-space:normal;shape-padding:0;clip-rule:nonzero;display:inline;overflow:visible;visibility:visible;opacity:1;isolation:auto;mix-blend-mode:normal;color-interpolation:sRGB;color-interpolation-filters:linearRGB;solid-color:#000000;solid-opacity:1;vector-effect:none;fill:#000000;fill-opacity:1;fill-rule:nonzero;stroke:none;stroke-width:12.86418247;stroke-linecap:butt;stroke-linejoin:miter;stroke-miterlimit:4;stroke-dasharray:none;stroke-dashoffset:0;stroke-opacity:1;color-rendering:auto;image-rendering:auto;shape-rendering:auto;text-rendering:auto;enable-background:accumulate"
       d="m 120.09961,715.34766 c -9.70568,-0.33247 -17.3553,1.89603 -22.955079,5.02148 -8.959644,5.00072 -12.875,12.45703 -12.875,12.45703 l 11.458985,5.84571 c 0,0 1.828415,-3.80123 7.685544,-7.07032 5.85713,-3.26909 15.5389,-5.8451 32.35547,-0.31054 l 4.02149,-12.21875 c -7.30455,-2.40403 -13.868,-3.52513 -19.69141,-3.72461 z"
       id="path4267"
       inkscape:connector-curvature="0" />
    <path
       style="color:#000000;font-style:normal;font-variant:normal;font-weight:normal;font-stretch:normal;font-size:medium;line-height:normal;font-family:sans-serif;font-variant-ligatures:normal;font-variant-position:normal;font-variant-caps:normal;font-variant-numeric:normal;font-variant-alternates:normal;font-feature-settings:normal;text-indent:0;text-align:start;text-decoration:none;text-decoration-line:none;text-decoration-style:solid;text-decoration-color:#000000;letter-spacing:normal;word-spacing:normal;text-transform:none;writing-mode:lr-tb;direction:ltr;text-orientation:mixed;dominant-baseline:auto;baseline-shift:baseline;text-anchor:start;white-space:normal;shape-padding:0;clip-rule:nonzero;display:inline;overflow:visible;visibility:visible;opacity:1;isolation:auto;mix-blend-mode:normal;color-interpolation:sRGB;color-interpolation-filters:linearRGB;solid-color:#000000;solid-opacity:1;vector-effect:none;fill:#000000;fill-opacity:1;fill-rule:nonzero;stroke:none;stroke-width:12.86418247;stroke-linecap:butt;stroke-linejoin:miter;stroke-miterlimit:4;stroke-dasharray:none;stroke-dashoffset:0;stroke-opacity:1;color-rendering:auto;image-rendering:auto;shape-rendering:auto;text-rendering:auto;enable-background:accumulate"
       d="m 209.30469,698.95312 c -6.06316,0.29733 -11.3609,1.74576 -15.77539,3.80079 -11.77199,5.48005 -17.57617,14.91406 -17.57618,14.91406 l 10.94532,6.75976 c 0,0 3.84514,-6.18821 12.05859,-10.01171 8.21345,-3.82351 20.47341,-5.64079 39.76172,6.14648 l 6.70703,-10.97656 c -13.78804,-8.42601 -26.01584,-11.12836 -36.12109,-10.63282 z"
       id="path4269"
       inkscape:connector-curvature="0" />
    <path
       style="color:#000000;font-style:normal;font-variant:normal;font-weight:normal;font-stretch:normal;font-size:medium;line-height:normal;font-family:sans-serif;font-variant-ligatures:normal;font-variant-position:normal;font-variant-caps:normal;font-variant-numeric:normal;font-variant-alternates:normal;font-feature-settings:normal;text-indent:0;text-align:start;text-decoration:none;text-decoration-line:none;text-decoration-style:solid;text-decoration-color:#000000;letter-spacing:normal;word-spacing:normal;text-transform:none;writing-mode:lr-tb;direction:ltr;text-orientation:mixed;dominant-baseline:auto;baseline-shift:baseline;text-anchor:start;white-space:normal;shape-padding:0;clip-rule:nonzero;display:inline;overflow:visible;visibility:visible;opacity:1;isolation:auto;mix-blend-mode:normal;color-interpolation:sRGB;color-interpolation-filters:linearRGB;solid-color:#000000;solid-opacity:1;vector-effect:none;fill:#000000;fill-opacity:1;fill-rule:nonzero;stroke:none;stroke-width:12.86418247;stroke-linecap:butt;stroke-linejoin:miter;stroke-miterlimit:4;stroke-dasharray:none;stroke-dashoffset:0;stroke-opacity:1;color-rendering:auto;image-rendering:auto;shape-rendering:auto;text-rendering:auto;enable-background:accumulate"
       d="m 170.53125,790.77734 c -1.81814,20.71755 4.93555,42.24024 4.93555,42.24024 l 12.54677,-1.14063 c 0,0 -6.16186,-22.9284 -4.66591,-39.97461 z"
       id="path4271"
       inkscape:connector-curvature="0"
       sodipodi:nodetypes="ccccc" />
    <path
       style="color:#000000;font-style:normal;font-variant:normal;font-weight:normal;font-stretch:normal;font-size:medium;line-height:normal;font-family:sans-serif;font-variant-ligatures:normal;font-variant-position:normal;font-variant-caps:normal;font-variant-numeric:normal;font-variant-alternates:normal;font-feature-settings:normal;text-indent:0;text-align:start;text-decoration:none;text-decoration-line:none;text-decoration-style:solid;text-decoration-color:#000000;letter-spacing:normal;word-spacing:normal;text-transform:none;writing-mode:lr-tb;direction:ltr;text-orientation:mixed;dominant-baseline:auto;baseline-shift:baseline;text-anchor:start;white-space:normal;shape-padding:0;clip-rule:nonzero;display:inline;overflow:visible;visibility:visible;opacity:1;isolation:auto;mix-blend-mode:normal;color-interpolation:sRGB;color-interpolation-filters:linearRGB;solid-color:#000000;solid-opacity:1;vector-effect:none;fill:#000000;fill-opacity:1;fill-rule:nonzero;stroke:none;stroke-width:12.86418247;stroke-linecap:butt;stroke-linejoin:miter;stroke-miterlimit:4;stroke-dasharray:none;stroke-dashoffset:0;stroke-opacity:1;color-rendering:auto;image-rendering:auto;shape-rendering:auto;text-rendering:auto;enable-background:accumulate"
       d="m 100.40039,809.37891 -12.783202,1.44921 c 2.287714,20.15589 11.93164,44.75977 11.93164,44.75977 l 11.619142,-5.43945 c 0,0 -8.80333,-23.46354 -10.76758,-40.76953 z"
       id="path4273"
       inkscape:connector-curvature="0"
       sodipodi:nodetypes="ccccc" />
    <path
       style="color:#000000;font-style:normal;font-variant:normal;font-weight:normal;font-stretch:normal;font-size:medium;line-height:normal;font-family:sans-serif;font-variant-ligatures:normal;font-variant-position:normal;font-variant-caps:normal;font-variant-numeric:normal;font-variant-alternates:normal;font-feature-settings:normal;text-indent:0;text-align:start;text-decoration:none;text-decoration-line:none;text-decoration-style:solid;text-decoration-color:#000000;letter-spacing:normal;word-spacing:normal;text-transform:none;writing-mode:lr-tb;direction:ltr;text-orientation:mixed;dominant-baseline:auto;baseline-shift:baseline;text-anchor:start;white-space:normal;shape-padding:0;clip-rule:nonzero;display:inline;overflow:visible;visibility:visible;opacity:1;isolation:auto;mix-blend-mode:normal;color-interpolation:sRGB;color-interpolation-filters:linearRGB;solid-color:#000000;solid-opacity:1;vector-effect:none;fill:#000000;fill-opacity:1;fill-rule:nonzero;stroke:none;stroke-width:12.86418247;stroke-linecap:butt;stroke-linejoin:miter;stroke-miterlimit:4;stroke-dasharray:none;stroke-dashoffset:0;stroke-opacity:1;color-rendering:auto;image-rendering:auto;shape-rendering:auto;text-rendering:auto;enable-background:accumulate"
       d="m 296.24609,701.18555 c -3.51118,0.0583 -6.82902,0.6546 -9.82031,1.6289 -11.96514,3.8972 -19.67578,12.49219 -19.67578,12.49219 l 9.45117,8.72461 c 0,0 6.07386,-6.33662 14.20899,-8.98633 8.13513,-2.64971 17.35775,-2.96885 28.76367,12.16992 l 10.27344,-7.74023 c -10.39726,-13.8 -22.66762,-18.46393 -33.20118,-18.28906 z"
       id="path4277"
       inkscape:connector-curvature="0" />
    <path
       inkscape:connector-curvature="0"
       id="path1039-4-5-6-98-9"
       d="m 155.01488,223.03409 -0.11134,16.45888 c 0,0 35.83272,0.2375 71.97612,0.47589 36.14347,0.23848 71.60418,0.47803 73.89993,0.47803 V 223.988 c -0.19764,0 -37.64751,-0.23963 -73.79046,-0.47802 -36.14294,-0.23839 -71.97425,-0.47589 -71.97425,-0.47589 z"
       style="color:#000000;font-style:normal;font-variant:normal;font-weight:normal;font-stretch:normal;font-size:medium;line-height:normal;font-family:sans-serif;font-variant-ligatures:normal;font-variant-position:normal;font-variant-caps:normal;font-variant-numeric:normal;font-variant-alternates:normal;font-feature-settings:normal;text-indent:0;text-align:start;text-decoration:none;text-decoration-line:none;text-decoration-style:solid;text-decoration-color:#000000;letter-spacing:normal;word-spacing:normal;text-transform:none;writing-mode:lr-tb;direction:ltr;text-orientation:mixed;dominant-baseline:auto;baseline-shift:baseline;text-anchor:start;white-space:normal;shape-padding:0;clip-rule:nonzero;display:inline;overflow:visible;visibility:visible;opacity:1;isolation:auto;mix-blend-mode:normal;color-interpolation:sRGB;color-interpolation-filters:linearRGB;solid-color:#000000;solid-opacity:1;vector-effect:none;fill:#000000;fill-opacity:1;fill-rule:nonzero;stroke:none;stroke-width:16.45864296;stroke-linecap:butt;stroke-linejoin:miter;stroke-miterlimit:4;stroke-dasharray:none;stroke-dashoffset:0;stroke-opacity:1;color-rendering:auto;image-rendering:auto;shape-rendering:auto;text-rendering:auto;enable-background:accumulate" />
    <path
       inkscape:connector-curvature="0"
       id="path1479-6-5"
       d="m 194.16431,285.81165 -12.65341,2.54568 c 0,29.81442 20.49068,46.71609 40.92757,46.46038 20.43687,-0.25561 40.37006,-17.66264 39.2447,-46.71351 l -13.00412,-1.17873 c -4.66618,20.93284 -43.82803,24.35317 -54.51474,-1.11382 z m 7.40826,26.00778 c 12.40383,6.35907 27.46264,6.74166 39.5424,1.58981 -5.00489,5.56799 -11.90875,8.15593 -18.84058,8.24259 -7.65242,0.0957 -15.35705,-2.94948 -20.70182,-9.8324 z"
       style="color:#000000;font-style:normal;font-variant:normal;font-weight:normal;font-stretch:normal;font-size:medium;line-height:normal;font-family:sans-serif;font-variant-ligatures:normal;font-variant-position:normal;font-variant-caps:normal;font-variant-numeric:normal;font-variant-alternates:normal;font-feature-settings:normal;text-indent:0;text-align:start;text-decoration:none;text-decoration-line:none;text-decoration-style:solid;text-decoration-color:#000000;letter-spacing:normal;word-spacing:normal;text-transform:none;writing-mode:lr-tb;direction:ltr;text-orientation:mixed;dominant-baseline:auto;baseline-shift:baseline;text-anchor:start;white-space:normal;shape-padding:0;clip-rule:nonzero;display:inline;overflow:visible;visibility:visible;opacity:1;isolation:auto;mix-blend-mode:normal;color-interpolation:sRGB;color-interpolation-filters:linearRGB;solid-color:#000000;solid-opacity:1;vector-effect:none;fill:#000000;fill-opacity:1;fill-rule:nonzero;stroke:none;stroke-width:13.16691494;stroke-linecap:butt;stroke-linejoin:miter;stroke-miterlimit:4;stroke-dasharray:none;stroke-dashoffset:0;stroke-opacity:1;color-rendering:auto;image-rendering:auto;shape-rendering:auto;text-rendering:auto;enable-background:accumulate" />
    <path
       inkscape:connector-curvature="0"
       id="path1479-5-1-6"
       d="m 367.0692,277.93362 v 11.39584 c 0,29.81433 20.49015,46.71609 40.92703,46.46038 20.43777,-0.25562 40.37034,-17.66266 39.24541,-46.71351 l -0.3951,-10.19696 -9.12814,4.56274 c -9.09618,4.54703 -17.69248,8.30598 -27.10297,9.13978 -9.41137,0.83397 -19.93701,-1.02993 -33.67317,-8.9535 z m 66.20189,22.02412 c -2.93263,15.69603 -14.12505,22.5246 -25.44089,22.66622 -11.18888,0.13992 -22.55266,-6.28245 -26.24618,-22.04046 11.03083,4.54712 21.05838,5.92295 30.19185,5.11366 7.87981,-0.69813 14.91258,-2.9778 21.49522,-5.73942 z"
       style="color:#000000;font-style:normal;font-variant:normal;font-weight:normal;font-stretch:normal;font-size:medium;line-height:normal;font-family:sans-serif;font-variant-ligatures:normal;font-variant-position:normal;font-variant-caps:normal;font-variant-numeric:normal;font-variant-alternates:normal;font-feature-settings:normal;text-indent:0;text-align:start;text-decoration:none;text-decoration-line:none;text-decoration-style:solid;text-decoration-color:#000000;letter-spacing:normal;word-spacing:normal;text-transform:none;writing-mode:lr-tb;direction:ltr;text-orientation:mixed;dominant-baseline:auto;baseline-shift:baseline;text-anchor:start;white-space:normal;shape-padding:0;clip-rule:nonzero;display:inline;overflow:visible;visibility:visible;opacity:1;isolation:auto;mix-blend-mode:normal;color-interpolation:sRGB;color-interpolation-filters:linearRGB;solid-color:#000000;solid-opacity:1;vector-effect:none;fill:#000000;fill-opacity:1;fill-rule:nonzero;stroke:none;stroke-width:13.16691494;stroke-linecap:butt;stroke-linejoin:miter;stroke-miterlimit:4;stroke-dasharray:none;stroke-dashoffset:0;stroke-opacity:1;color-rendering:auto;image-rendering:auto;shape-rendering:auto;text-rendering:auto;enable-background:accumulate" />
    <path
       inkscape:connector-curvature="0"
       id="path29-3-1-9-7-2"
       d="m 319.33047,509.46202 c -30.95746,-0.6881 -62.36009,5.62134 -93.2546,20.68148 l -13.57945,6.62064 14.06538,5.51461 c 57.5863,22.57797 121.43872,23.53029 182.96599,0.76331 l 15.29881,-5.66041 -14.90992,-6.62037 c -29.11576,-12.92723 -59.62813,-20.61117 -90.58621,-21.29926 z m -0.16959,13.14573 c 23.09693,0.52695 45.97011,5.42077 68.38515,13.57493 -47.40401,13.88869 -95.36709,13.24401 -140.16113,-0.80379 23.93569,-9.28813 47.96193,-13.31451 71.77598,-12.77114 z"
       style="color:#000000;font-style:normal;font-variant:normal;font-weight:normal;font-stretch:normal;font-size:medium;line-height:normal;font-family:sans-serif;font-variant-ligatures:normal;font-variant-position:normal;font-variant-caps:normal;font-variant-numeric:normal;font-variant-alternates:normal;font-feature-settings:normal;text-indent:0;text-align:start;text-decoration:none;text-decoration-line:none;text-decoration-style:solid;text-decoration-color:#000000;letter-spacing:normal;word-spacing:normal;text-transform:none;writing-mode:lr-tb;direction:ltr;text-orientation:mixed;dominant-baseline:auto;baseline-shift:baseline;text-anchor:start;white-space:normal;shape-padding:0;clip-rule:nonzero;display:inline;overflow:visible;visibility:visible;opacity:1;isolation:auto;mix-blend-mode:normal;color-interpolation:sRGB;color-interpolation-filters:linearRGB;solid-color:#000000;solid-opacity:1;vector-effect:none;fill:#000000;fill-opacity:1;fill-rule:nonzero;stroke:none;stroke-width:13.26320648;stroke-linecap:butt;stroke-linejoin:miter;stroke-miterlimit:4;stroke-dasharray:none;stroke-dashoffset:0;stroke-opacity:1;color-rendering:auto;image-rendering:auto;shape-rendering:auto;text-rendering:auto;enable-background:accumulate" />
    <path
       inkscape:connector-curvature="0"
       id="path59-1-3-2-4-7"
       d="m 411.25558,190.51522 c -25.44266,-0.46488 -49.99746,13.99596 -79.88655,43.54819 l 9.32347,9.43143 c 28.84763,-28.52266 50.0747,-40.08843 70.31981,-39.71846 20.24509,0.36998 41.84507,13.00758 70.65719,37.38533 l 8.56701,-10.12406 C 460.69014,206.03946 436.69736,190.9802 411.25558,190.51522 Z"
       style="color:#000000;font-style:normal;font-variant:normal;font-weight:normal;font-stretch:normal;font-size:medium;line-height:normal;font-family:sans-serif;font-variant-ligatures:normal;font-variant-position:normal;font-variant-caps:normal;font-variant-numeric:normal;font-variant-alternates:normal;font-feature-settings:normal;text-indent:0;text-align:start;text-decoration:none;text-decoration-line:none;text-decoration-style:solid;text-decoration-color:#000000;letter-spacing:normal;word-spacing:normal;text-transform:none;writing-mode:lr-tb;direction:ltr;text-orientation:mixed;dominant-baseline:auto;baseline-shift:baseline;text-anchor:start;white-space:normal;shape-padding:0;clip-rule:nonzero;display:inline;overflow:visible;visibility:visible;opacity:1;isolation:auto;mix-blend-mode:normal;color-interpolation:sRGB;color-interpolation-filters:linearRGB;solid-color:#000000;solid-opacity:1;vector-effect:none;fill:#000000;fill-opacity:1;fill-rule:nonzero;stroke:none;stroke-width:13.26320648;stroke-linecap:butt;stroke-linejoin:miter;stroke-miterlimit:4;stroke-dasharray:none;stroke-dashoffset:0;stroke-opacity:1;color-rendering:auto;image-rendering:auto;shape-rendering:auto;text-rendering:auto;enable-background:accumulate" />
    <path
       inkscape:connector-curvature="0"
       id="path2346-92"
       d="m 398.12583,551.82951 c -1.97461,7.66104 -1.3318,8.91977 -6.05701,15.6956 l -0.14384,0.20651 -0.11808,0.22073 c 0,0 -2.37771,4.13417 -2.67514,9.13987 -0.14828,2.50288 0.285,5.61441 2.52331,8.07637 2.23831,2.46205 5.79776,3.60828 10.0453,3.51994 l -0.17046,-8.22856 c -2.80655,0.0585 -3.54347,-0.56024 -3.78498,-0.82625 -0.24149,-0.26573 -0.47056,-0.84578 -0.39864,-2.05363 0.14295,-2.41259 1.72778,-5.76455 1.73133,-5.77183 0,0 0,0 0,0 4.98359,-7.28582 5.23308,-11.00464 7.01502,-17.92103 z"
       style="color:#000000;font-style:normal;font-variant:normal;font-weight:normal;font-stretch:normal;font-size:medium;line-height:normal;font-family:sans-serif;font-variant-ligatures:normal;font-variant-position:normal;font-variant-caps:normal;font-variant-numeric:normal;font-variant-alternates:normal;font-feature-settings:normal;text-indent:0;text-align:start;text-decoration:none;text-decoration-line:none;text-decoration-style:solid;text-decoration-color:#000000;letter-spacing:normal;word-spacing:normal;text-transform:none;writing-mode:lr-tb;direction:ltr;text-orientation:mixed;dominant-baseline:auto;baseline-shift:baseline;text-anchor:start;white-space:normal;shape-padding:0;clip-rule:nonzero;display:inline;overflow:visible;visibility:visible;opacity:1;isolation:auto;mix-blend-mode:normal;color-interpolation:sRGB;color-interpolation-filters:linearRGB;solid-color:#000000;solid-opacity:1;vector-effect:none;fill:#000000;fill-opacity:1;fill-rule:nonzero;stroke:none;stroke-width:8.22932148;stroke-linecap:butt;stroke-linejoin:miter;stroke-miterlimit:4;stroke-dasharray:none;stroke-dashoffset:0;stroke-opacity:1;color-rendering:auto;image-rendering:auto;shape-rendering:auto;text-rendering:auto;enable-background:accumulate" />
    <path
       sodipodi:nodetypes="cccsccccscccc"
       inkscape:connector-curvature="0"
       id="path2346-9-7"
       d="m 405.74283,552.05451 -8.0707,1.60374 c 1.3833,6.95936 2.85449,11.52973 7.01325,18.05483 0.0356,0.093 1.26609,3.01546 1.26609,5.29203 0,1.15644 -0.24238,1.83646 -0.63216,2.26814 -0.38976,0.43186 -1.23058,1.07352 -3.88174,1.18876 l 0.2628,8.22652 c 4.10816,-0.17856 7.58593,-1.52402 9.73101,-3.90252 2.14508,-2.37868 2.74794,-5.33696 2.74794,-7.7809 0,-4.88805 -2.09359,-8.90501 -2.09359,-8.90501 l -0.11364,-0.2368 -0.14206,-0.21886 c -3.97142,-6.13941 -4.73232,-8.77362 -6.0872,-15.58993 z"
       style="color:#000000;font-style:normal;font-variant:normal;font-weight:normal;font-stretch:normal;font-size:medium;line-height:normal;font-family:sans-serif;font-variant-ligatures:normal;font-variant-position:normal;font-variant-caps:normal;font-variant-numeric:normal;font-variant-alternates:normal;font-feature-settings:normal;text-indent:0;text-align:start;text-decoration:none;text-decoration-line:none;text-decoration-style:solid;text-decoration-color:#000000;letter-spacing:normal;word-spacing:normal;text-transform:none;writing-mode:lr-tb;direction:ltr;text-orientation:mixed;dominant-baseline:auto;baseline-shift:baseline;text-anchor:start;white-space:normal;shape-padding:0;clip-rule:nonzero;display:inline;overflow:visible;visibility:visible;opacity:1;isolation:auto;mix-blend-mode:normal;color-interpolation:sRGB;color-interpolation-filters:linearRGB;solid-color:#000000;solid-opacity:1;vector-effect:none;fill:#000000;fill-opacity:1;fill-rule:nonzero;stroke:none;stroke-width:8.22932148;stroke-linecap:butt;stroke-linejoin:miter;stroke-miterlimit:4;stroke-dasharray:none;stroke-dashoffset:0;stroke-opacity:1;color-rendering:auto;image-rendering:auto;shape-rendering:auto;text-rendering:auto;enable-background:accumulate" />
  </g>
</svg>
