<?xml version="1.0" encoding="UTF-8" standalone="no"?>
<!-- Created with Inkscape (http://www.inkscape.org/) -->

<svg
   xmlns:dc="http://purl.org/dc/elements/1.1/"
   xmlns:cc="http://creativecommons.org/ns#"
   xmlns:rdf="http://www.w3.org/1999/02/22-rdf-syntax-ns#"
   xmlns:svg="http://www.w3.org/2000/svg"
   xmlns="http://www.w3.org/2000/svg"
   xmlns:sodipodi="http://sodipodi.sourceforge.net/DTD/sodipodi-0.dtd"
   xmlns:inkscape="http://www.inkscape.org/namespaces/inkscape"
   width="1000"
   height="1250"
   viewBox="0 0 1000 1250"
   version="1.1"
   id="svg11332"
   inkscape:version="0.92.4 (5da689c313, 2019-01-14)"
   sodipodi:docname="Amigável.svg">
  <defs
     id="defs11326" />
  <sodipodi:namedview
     id="base"
     pagecolor="#ffffff"
     bordercolor="#666666"
     borderopacity="1.0"
     inkscape:pageopacity="0.0"
     inkscape:pageshadow="2"
     inkscape:zoom="256"
     inkscape:cx="236.8449"
     inkscape:cy="998.46163"
     inkscape:document-units="px"
     inkscape:current-layer="layer1"
     showgrid="false"
     inkscape:window-width="1366"
     inkscape:window-height="715"
     inkscape:window-x="-8"
     inkscape:window-y="-8"
     inkscape:window-maximized="1"
     units="px" />
  <metadata
     id="metadata11329">
    <rdf:RDF>
      <cc:Work
         rdf:about="">
        <dc:format>image/svg+xml</dc:format>
        <dc:type
           rdf:resource="http://purl.org/dc/dcmitype/StillImage" />
        <dc:title></dc:title>
      </cc:Work>
    </rdf:RDF>
  </metadata>
  <g
     inkscape:label="Camada 1"
     inkscape:groupmode="layer"
     id="layer1"
     transform="translate(0,217.58334)">
    <path
       style="color:#000000;font-style:normal;font-variant:normal;font-weight:normal;font-stretch:normal;font-size:medium;line-height:normal;font-family:sans-serif;font-variant-ligatures:normal;font-variant-position:normal;font-variant-caps:normal;font-variant-numeric:normal;font-variant-alternates:normal;font-feature-settings:normal;text-indent:0;text-align:start;text-decoration:none;text-decoration-line:none;text-decoration-style:solid;text-decoration-color:#000000;letter-spacing:normal;word-spacing:normal;text-transform:none;writing-mode:lr-tb;direction:ltr;text-orientation:mixed;dominant-baseline:auto;baseline-shift:baseline;text-anchor:start;white-space:normal;shape-padding:0;clip-rule:nonzero;display:inline;overflow:visible;visibility:visible;opacity:1;isolation:auto;mix-blend-mode:normal;color-interpolation:sRGB;color-interpolation-filters:linearRGB;solid-color:#000000;solid-opacity:1;vector-effect:none;fill:#000000;fill-opacity:1;fill-rule:nonzero;stroke:none;stroke-width:24.21989822;stroke-linecap:butt;stroke-linejoin:miter;stroke-miterlimit:4;stroke-dasharray:none;stroke-dashoffset:0;stroke-opacity:1;color-rendering:auto;image-rendering:auto;shape-rendering:auto;text-rendering:auto;enable-background:accumulate"
       d="m 486.01741,-215.12633 c -93.33417,-0.0273 -157.45076,37.44574 -194.33007,93.50585 -36.88246,56.0649 -47.17426,129.27288 -39.11328,201.73829 8.06097,72.4654 34.50922,144.50708 73.55664,199.21875 39.04741,54.71166 91.62062,92.82494 151.41601,92.46875 59.76721,-0.35606 111.90786,-38.86931 150.72461,-93.76563 38.81675,-54.89632 65.21548,-126.9099 73.98242,-199.19531 8.76694,-72.28542 -0.0147,-145.10834 -34.07422,-200.95117 -34.05621,-55.83734 -94.40322,-93.33519 -182.16211,-93.01953 z m 0.0156,24.21875 h 0.0234 0.0254 c 81.05203,-0.29838 131.32473,32.06591 161.42187,81.4121 30.09714,49.3462 39.00101,117.0381 30.70703,185.42383 -8.29398,68.38574 -33.70367,137.20035 -69.71484,188.12891 -36.01117,50.92856 -81.71667,83.23514 -131.09375,83.5293 -49.3489,0.29396 -95.37554,-31.62286 -131.55664,-82.31836 -36.18104,-50.69551 -61.59134,-119.4364 -69.19916,-187.82813 -7.60782,-68.39172 2.62297,-136.11516 35.27539,-185.75 32.65242,-49.63483 87.07594,-82.62903 174.11133,-82.59765 z"
       id="path10-9-0"
       inkscape:connector-curvature="0" />
    <path
       style="color:#000000;font-style:normal;font-variant:normal;font-weight:normal;font-stretch:normal;font-size:medium;line-height:normal;font-family:sans-serif;font-variant-ligatures:normal;font-variant-position:normal;font-variant-caps:normal;font-variant-numeric:normal;font-variant-alternates:normal;font-feature-settings:normal;text-indent:0;text-align:start;text-decoration:none;text-decoration-line:none;text-decoration-style:solid;text-decoration-color:#000000;letter-spacing:normal;word-spacing:normal;text-transform:none;writing-mode:lr-tb;direction:ltr;text-orientation:mixed;dominant-baseline:auto;baseline-shift:baseline;text-anchor:start;white-space:normal;shape-padding:0;clip-rule:nonzero;display:inline;overflow:visible;visibility:visible;opacity:1;isolation:auto;mix-blend-mode:normal;color-interpolation:sRGB;color-interpolation-filters:linearRGB;solid-color:#000000;solid-opacity:1;vector-effect:none;fill:#000000;fill-opacity:1;fill-rule:nonzero;stroke:none;stroke-width:10.49703503;stroke-linecap:butt;stroke-linejoin:miter;stroke-miterlimit:4;stroke-dasharray:none;stroke-dashoffset:0;stroke-opacity:1;color-rendering:auto;image-rendering:auto;shape-rendering:auto;text-rendering:auto;enable-background:accumulate"
       d="m 550.30257,732.48499 c -24.69325,17.32861 -47.54688,7.00782 -47.54687,7.00782 l -1.4375,-0.62696 -1.54493,0.26367 c -8.71334,1.48766 -31.80073,2.8049 -52.11914,3.61915 -20.31841,0.81424 -38.24414,1.21875 -38.24414,1.21875 h 0.11914 c -12.84628,0 -24.50484,8.43184 -33.45898,16.25584 -8.95415,7.824 -15.19141,15.6367 -15.19141,15.6367 l 8.19727,6.5567 c 0,0 5.73209,-7.1498 13.90039,-14.2871 8.16829,-7.1374 18.78568,-13.666 26.55273,-13.666 h 0.0586 0.0586 c 0,0 18.00143,-0.4041 38.42773,-1.2227 19.73895,-0.791 41.16064,-1.89562 52.12891,-3.59571 4.20633,1.57989 29.61822,10.03901 56.13086,-8.56641 z"
       id="path12865"
       inkscape:connector-curvature="0" />
    <path
       style="color:#000000;font-style:normal;font-variant:normal;font-weight:normal;font-stretch:normal;font-size:medium;line-height:normal;font-family:sans-serif;font-variant-ligatures:normal;font-variant-position:normal;font-variant-caps:normal;font-variant-numeric:normal;font-variant-alternates:normal;font-feature-settings:normal;text-indent:0;text-align:start;text-decoration:none;text-decoration-line:none;text-decoration-style:solid;text-decoration-color:#000000;letter-spacing:normal;word-spacing:normal;text-transform:none;writing-mode:lr-tb;direction:ltr;text-orientation:mixed;dominant-baseline:auto;baseline-shift:baseline;text-anchor:start;white-space:normal;shape-padding:0;clip-rule:nonzero;display:inline;overflow:visible;visibility:visible;opacity:1;isolation:auto;mix-blend-mode:normal;color-interpolation:sRGB;color-interpolation-filters:linearRGB;solid-color:#000000;solid-opacity:1;vector-effect:none;fill:#000000;fill-opacity:1;fill-rule:nonzero;stroke:none;stroke-width:10.49703503;stroke-linecap:butt;stroke-linejoin:miter;stroke-miterlimit:4;stroke-dasharray:none;stroke-dashoffset:0;stroke-opacity:1;color-rendering:auto;image-rendering:auto;shape-rendering:auto;text-rendering:auto;enable-background:accumulate"
       d="m 633.17171,708.0514 c -33.55989,3.52829 -53.41258,8.97126 -65.49414,13.99219 -6.04078,2.51046 -10.14434,4.93125 -12.94531,6.9082 -2.80098,1.97695 -4.82761,3.81043 -4.41602,3.52344 l 6.00391,8.61133 c 1.85578,-1.29396 2.29903,-2.02995 4.46484,-3.5586 2.16582,-1.52864 5.52667,-3.54884 10.92188,-5.79101 10.79041,-4.48435 29.6941,-9.7905 62.5625,-13.2461 z"
       id="path12867"
       inkscape:connector-curvature="0" />
    <path
       style="color:#000000;font-style:normal;font-variant:normal;font-weight:normal;font-stretch:normal;font-size:medium;line-height:normal;font-family:sans-serif;font-variant-ligatures:normal;font-variant-position:normal;font-variant-caps:normal;font-variant-numeric:normal;font-variant-alternates:normal;font-feature-settings:normal;text-indent:0;text-align:start;text-decoration:none;text-decoration-line:none;text-decoration-style:solid;text-decoration-color:#000000;letter-spacing:normal;word-spacing:normal;text-transform:none;writing-mode:lr-tb;direction:ltr;text-orientation:mixed;dominant-baseline:auto;baseline-shift:baseline;text-anchor:start;white-space:normal;shape-padding:0;clip-rule:nonzero;display:inline;overflow:visible;visibility:visible;opacity:1;isolation:auto;mix-blend-mode:normal;color-interpolation:sRGB;color-interpolation-filters:linearRGB;solid-color:#000000;solid-opacity:1;vector-effect:none;fill:#000000;fill-opacity:1;fill-rule:nonzero;stroke:none;stroke-width:10.49703503;stroke-linecap:butt;stroke-linejoin:miter;stroke-miterlimit:4;stroke-dasharray:none;stroke-dashoffset:0;stroke-opacity:1;color-rendering:auto;image-rendering:auto;shape-rendering:auto;text-rendering:auto;enable-background:accumulate"
       d="m 794.98226,657.39906 -5.90039,8.68164 c 6.51859,4.43049 10.2363,8.54969 12.0625,11.8164 1.8262,3.26671 1.89552,5.54508 1.39062,7.37305 -1.00198,3.62767 -5.62544,6.47331 -9.98242,6.29102 -31.34968,-6.52498 -67.52441,-2.26688 -97.84375,3.47656 -15.27374,2.89333 -29.05262,6.1859 -39.84961,8.73633 -10.79699,2.55042 -19.31028,4.24804 -21.13867,4.24804 v 10.49805 c 5.38973,0 12.73412,-1.97572 23.55273,-4.53125 10.81861,-2.55553 24.41183,-5.80159 39.38867,-8.63867 29.9537,-5.67417 65.45948,-9.59407 94.41407,-3.40235 l 0.40625,0.0859 0.41406,0.0215 c 8.96452,0.4735 18.18524,-4.68329 20.75586,-13.99024 1.28531,-4.65347 0.56205,-10.08767 -2.3457,-15.28906 -2.90776,-5.2014 -7.8637,-10.30626 -15.32422,-15.37695 z"
       id="path12869"
       inkscape:connector-curvature="0" />
    <path
       style="color:#000000;font-style:normal;font-variant:normal;font-weight:normal;font-stretch:normal;font-size:medium;line-height:normal;font-family:sans-serif;font-variant-ligatures:normal;font-variant-position:normal;font-variant-caps:normal;font-variant-numeric:normal;font-variant-alternates:normal;font-feature-settings:normal;text-indent:0;text-align:start;text-decoration:none;text-decoration-line:none;text-decoration-style:solid;text-decoration-color:#000000;letter-spacing:normal;word-spacing:normal;text-transform:none;writing-mode:lr-tb;direction:ltr;text-orientation:mixed;dominant-baseline:auto;baseline-shift:baseline;text-anchor:start;white-space:normal;shape-padding:0;clip-rule:nonzero;display:inline;overflow:visible;visibility:visible;opacity:1;isolation:auto;mix-blend-mode:normal;color-interpolation:sRGB;color-interpolation-filters:linearRGB;solid-color:#000000;solid-opacity:1;vector-effect:none;fill:#000000;fill-opacity:1;fill-rule:nonzero;stroke:none;stroke-width:10.49703503;stroke-linecap:butt;stroke-linejoin:miter;stroke-miterlimit:4;stroke-dasharray:none;stroke-dashoffset:0;stroke-opacity:1;color-rendering:auto;image-rendering:auto;shape-rendering:auto;text-rendering:auto;enable-background:accumulate"
       d="m 695.36898,642.10413 c -11.65006,-0.0689 -28.79249,1.5943 -54.02735,6.67969 -1.51235,-0.34297 -10.65642,-2.39238 -22.60742,-3.99219 -12.97513,-1.7369 -27.9028,-3.12901 -38.65039,0.50196 l 3.36133,9.94531 c 6.64935,-2.24642 21.47172,-1.7062 33.89648,-0.043 12.42476,1.66323 22.73828,4.04492 22.73828,4.04492 l 1.11329,0.25782 1.11718,-0.22852 c 33.92135,-6.91601 52.43633,-7.3031 61.91211,-6.16602 4.73789,0.56855 7.19077,1.50875 8.22852,2.04297 0.38504,0.19822 0.42666,0.25068 0.48828,0.29883 l 1.89648,3.10156 4.04493,-1.49023 c 11.81121,-4.35146 20.00199,-4.07095 25.17187,-2.95313 5.16988,1.11783 6.89063,2.72657 6.89063,2.72657 l 1.76562,1.4707 2.2793,-0.29883 c 1.97309,-0.2591 3.49734,-0.27561 5.24218,-0.4082 l -0.14453,3.77344 c 16.40067,0.63077 30.24414,5.33789 30.24414,5.33789 l 10.375,3.55468 -3.74023,-10.31054 c 0,0 -0.74876,-1.84708 -2.14258,-3.54492 -1.39381,-1.69784 -3.60796,-3.70055 -6.88281,-5.41016 -6.28017,-3.27851 -16.43958,-5.36243 -32.39453,-3.54883 -1.82945,-1.12239 -4.64338,-2.60004 -9.27539,-3.60156 -6.60242,-1.42756 -16.15057,-1.3979 -28.19141,2.52148 -0.30628,-0.18523 -0.46826,-0.36854 -0.82226,-0.55078 -2.474,-1.27359 -6.12936,-2.45459 -11.78126,-3.13281 -2.82594,-0.33911 -6.15817,-0.55477 -10.10546,-0.57813 z"
       id="path12871"
       inkscape:connector-curvature="0" />
    <path
       style="color:#000000;font-style:normal;font-variant:normal;font-weight:normal;font-stretch:normal;font-size:medium;line-height:normal;font-family:sans-serif;font-variant-ligatures:normal;font-variant-position:normal;font-variant-caps:normal;font-variant-numeric:normal;font-variant-alternates:normal;font-feature-settings:normal;text-indent:0;text-align:start;text-decoration:none;text-decoration-line:none;text-decoration-style:solid;text-decoration-color:#000000;letter-spacing:normal;word-spacing:normal;text-transform:none;writing-mode:lr-tb;direction:ltr;text-orientation:mixed;dominant-baseline:auto;baseline-shift:baseline;text-anchor:start;white-space:normal;shape-padding:0;clip-rule:nonzero;display:inline;overflow:visible;visibility:visible;opacity:1;isolation:auto;mix-blend-mode:normal;color-interpolation:sRGB;color-interpolation-filters:linearRGB;solid-color:#000000;solid-opacity:1;vector-effect:none;fill:#000000;fill-opacity:1;fill-rule:nonzero;stroke:none;stroke-width:10.49703503;stroke-linecap:butt;stroke-linejoin:miter;stroke-miterlimit:4;stroke-dasharray:none;stroke-dashoffset:0;stroke-opacity:1;color-rendering:auto;image-rendering:auto;shape-rendering:auto;text-rendering:auto;enable-background:accumulate"
       d="m 448.50765,569.89515 -4.78516,9.34179 c 30.39061,15.57211 75.89453,15.85743 75.89453,15.85743 h 0.0234 0.0234 c 32.44996,0.22692 51.13952,7.64294 51.53906,7.80273 10.55834,4.94754 15.6439,10.12347 17.86133,14.5918 2.22693,4.48748 1.97522,8.65345 0.51758,12.91797 -2.9153,8.52903 -11.19532,15.8418 -11.19532,15.8418 l 6.75586,8.03515 c 0,0 10.17477,-8.20362 14.3711,-20.48047 2.09816,-6.13842 2.56682,-13.69853 -1.04688,-20.98047 -3.61369,-7.28193 -10.91156,-13.8914 -22.94726,-19.5039 l -0.13282,-0.0625 -0.13671,-0.0547 c 0,0 -21.07789,-8.36271 -55.51368,-8.60352 h 0.0449 c 0,0 -44.77129,-1.12345 -71.27344,-14.70312 z"
       id="path12873"
       inkscape:connector-curvature="0" />
    <path
       style="color:#000000;font-style:normal;font-variant:normal;font-weight:normal;font-stretch:normal;font-size:medium;line-height:normal;font-family:sans-serif;font-variant-ligatures:normal;font-variant-position:normal;font-variant-caps:normal;font-variant-numeric:normal;font-variant-alternates:normal;font-feature-settings:normal;text-indent:0;text-align:start;text-decoration:none;text-decoration-line:none;text-decoration-style:solid;text-decoration-color:#000000;letter-spacing:normal;word-spacing:normal;text-transform:none;writing-mode:lr-tb;direction:ltr;text-orientation:mixed;dominant-baseline:auto;baseline-shift:baseline;text-anchor:start;white-space:normal;shape-padding:0;clip-rule:nonzero;display:inline;overflow:visible;visibility:visible;opacity:1;isolation:auto;mix-blend-mode:normal;color-interpolation:sRGB;color-interpolation-filters:linearRGB;solid-color:#000000;solid-opacity:1;vector-effect:none;fill:#000000;fill-opacity:1;fill-rule:nonzero;stroke:none;stroke-width:10.49703503;stroke-linecap:butt;stroke-linejoin:miter;stroke-miterlimit:4;stroke-dasharray:none;stroke-dashoffset:0;stroke-opacity:1;color-rendering:auto;image-rendering:auto;shape-rendering:auto;text-rendering:auto;enable-background:accumulate"
       d="m 423.50179,566.62952 c -11.41591,0.35922 -24.85498,3.04454 -33.93555,12.66797 -0.0538,0.041 -0.59078,0.46408 -2.91211,1.47656 -2.38292,1.03935 -6.27723,2.42572 -11.88476,3.63282 -0.54496,0.0281 -1.08529,0.0396 -1.69727,0.19531 -1.72537,0.43906 -3.6202,1.40065 -5.76367,3.11914 -4.28695,3.43697 -9.75105,9.92693 -17.22656,23.31055 l 0.13867,-0.23633 c 0,0 -6.87408,10.75174 -18.02148,17.98242 l 5.71093,8.80664 c 13.45565,-8.72791 21.19531,-21.19726 21.19531,-21.19726 l 0.0742,-0.11719 0.0664,-0.11914 c 7.10027,-12.71182 12.09811,-18.21122 14.62891,-20.24023 0.97779,-0.78393 1.20377,-0.80749 1.38086,-0.87696 l 0.0234,0.008 1.39453,-0.29492 c 6.44509,-1.36334 11.08052,-2.99871 14.17774,-4.34961 3.09721,-1.3509 4.94726,-2.62695 4.94726,-2.62695 l 0.48633,-0.34766 0.39453,-0.44531 c 6.04355,-6.83291 16.9246,-9.53364 27.15235,-9.85547 5.11387,-0.16092 9.97196,0.2376 13.68945,0.78711 1.85875,0.27475 3.43783,0.58872 4.58008,0.86719 1.14224,0.27847 2.0505,0.68404 1.5918,0.44531 l 4.8457,-9.31055 c -1.41519,-0.73651 -2.41973,-0.96063 -3.95117,-1.33398 -1.53145,-0.37336 -3.38888,-0.7341 -5.53125,-1.05078 -4.28475,-0.63336 -9.69531,-1.08086 -15.55469,-0.89649 z"
       id="path12875"
       inkscape:connector-curvature="0" />
    <path
       style="color:#000000;font-style:normal;font-variant:normal;font-weight:normal;font-stretch:normal;font-size:medium;line-height:normal;font-family:sans-serif;font-variant-ligatures:normal;font-variant-position:normal;font-variant-caps:normal;font-variant-numeric:normal;font-variant-alternates:normal;font-feature-settings:normal;text-indent:0;text-align:start;text-decoration:none;text-decoration-line:none;text-decoration-style:solid;text-decoration-color:#000000;letter-spacing:normal;word-spacing:normal;text-transform:none;writing-mode:lr-tb;direction:ltr;text-orientation:mixed;dominant-baseline:auto;baseline-shift:baseline;text-anchor:start;white-space:normal;shape-padding:0;clip-rule:nonzero;display:inline;overflow:visible;visibility:visible;opacity:1;isolation:auto;mix-blend-mode:normal;color-interpolation:sRGB;color-interpolation-filters:linearRGB;solid-color:#000000;solid-opacity:1;vector-effect:none;fill:#000000;fill-opacity:1;fill-rule:nonzero;stroke:none;stroke-width:10.49703503;stroke-linecap:butt;stroke-linejoin:miter;stroke-miterlimit:4;stroke-dasharray:none;stroke-dashoffset:0;stroke-opacity:1;color-rendering:auto;image-rendering:auto;shape-rendering:auto;text-rendering:auto;enable-background:accumulate"
       d="m 451.65413,635.0807 c -6.02467,-10e-6 -11.22853,0.25379 -15.71484,2.30468 l 4.36523,9.54688 c 1.33197,-0.6089 5.93513,-1.35352 11.34961,-1.35352 5.41449,10e-6 11.80621,0.4802 17.86328,1.13282 11.8683,1.27874 22.14726,3.14562 22.57032,3.22265 51.13597,17.88385 91.25586,5.33789 91.25586,5.33789 l -3.15821,-10.01172 c 0,0 -36.77152,11.69425 -85.125,-5.39062 l -0.39258,-0.13867 -0.41015,-0.0762 c 0,0 -11.04323,-2.02434 -23.61524,-3.37891 -6.286,-0.67729 -12.96361,-1.19531 -18.98828,-1.19531 z"
       id="path12877"
       inkscape:connector-curvature="0" />
    <path
       style="color:#000000;font-style:normal;font-variant:normal;font-weight:normal;font-stretch:normal;font-size:medium;line-height:normal;font-family:sans-serif;font-variant-ligatures:normal;font-variant-position:normal;font-variant-caps:normal;font-variant-numeric:normal;font-variant-alternates:normal;font-feature-settings:normal;text-indent:0;text-align:start;text-decoration:none;text-decoration-line:none;text-decoration-style:solid;text-decoration-color:#000000;letter-spacing:normal;word-spacing:normal;text-transform:none;writing-mode:lr-tb;direction:ltr;text-orientation:mixed;dominant-baseline:auto;baseline-shift:baseline;text-anchor:start;white-space:normal;shape-padding:0;clip-rule:nonzero;display:inline;overflow:visible;visibility:visible;opacity:1;isolation:auto;mix-blend-mode:normal;color-interpolation:sRGB;color-interpolation-filters:linearRGB;solid-color:#000000;solid-opacity:1;vector-effect:none;fill:#000000;fill-opacity:1;fill-rule:nonzero;stroke:none;stroke-width:10.49703503;stroke-linecap:butt;stroke-linejoin:miter;stroke-miterlimit:4;stroke-dasharray:none;stroke-dashoffset:0;stroke-opacity:1;color-rendering:auto;image-rendering:auto;shape-rendering:auto;text-rendering:auto;enable-background:accumulate"
       d="m 426.57991,636.21546 -3.51367,9.89063 c 5.03658,1.78911 10.96093,3.64061 17.20313,0.84179 l -4.29493,-9.57812 c -2.70774,1.21407 -4.51224,0.58001 -9.39453,-1.1543 z"
       id="path12879"
       inkscape:connector-curvature="0" />
    <path
       style="color:#000000;font-style:normal;font-variant:normal;font-weight:normal;font-stretch:normal;font-size:medium;line-height:normal;font-family:sans-serif;font-variant-ligatures:normal;font-variant-position:normal;font-variant-caps:normal;font-variant-numeric:normal;font-variant-alternates:normal;font-feature-settings:normal;text-indent:0;text-align:start;text-decoration:none;text-decoration-line:none;text-decoration-style:solid;text-decoration-color:#000000;letter-spacing:normal;word-spacing:normal;text-transform:none;writing-mode:lr-tb;direction:ltr;text-orientation:mixed;dominant-baseline:auto;baseline-shift:baseline;text-anchor:start;white-space:normal;shape-padding:0;clip-rule:nonzero;display:inline;overflow:visible;visibility:visible;opacity:1;isolation:auto;mix-blend-mode:normal;color-interpolation:sRGB;color-interpolation-filters:linearRGB;solid-color:#000000;solid-opacity:1;vector-effect:none;fill:#000000;fill-opacity:1;fill-rule:nonzero;stroke:none;stroke-width:10.49703503;stroke-linecap:butt;stroke-linejoin:miter;stroke-miterlimit:4;stroke-dasharray:none;stroke-dashoffset:0;stroke-opacity:1;color-rendering:auto;image-rendering:auto;shape-rendering:auto;text-rendering:auto;enable-background:accumulate"
       d="m 756.46859,648.01624 -4.33008,9.5625 c 7.62816,3.45361 10.80421,6.82133 11.51758,8.42188 0.71336,1.60055 0.5367,2.19404 -1.36915,4.24023 -3.81169,4.09238 -15.34555,8.64457 -23.65234,9.24024 l -1.1914,0.084 -1.03711,0.59375 c 0.69498,-0.39713 0.10166,-0.06 -0.61133,0.15039 -0.71299,0.21043 -1.76164,0.48638 -3.04297,0.79688 -2.56267,0.62099 -6.07545,1.39158 -10.17383,2.24219 -8.19676,1.7012 -18.7544,3.73365 -29.16797,5.68359 -20.82713,3.89988 -41.08984,7.4707 -41.08984,7.4707 l -0.33985,0.0606 -0.32812,0.10351 c -11.10437,3.50666 -33.48633,4.41407 -33.48633,4.41407 l 0.64649,0.0195 c -3.4734,-0.32563 -8.49956,-0.12311 -14.78711,0.24023 -6.28755,0.36335 -13.59805,0.93777 -20.56836,1.54297 -13.94063,1.2104 -26.53125,2.54492 -26.53125,2.54492 l 1.10742,10.43946 c 0,0 12.51111,-1.32539 26.33203,-2.52539 6.91046,-0.60001 14.14775,-1.16795 20.26563,-1.52149 6.11787,-0.35354 11.35497,-0.44261 13.20117,-0.26953 l 0.32226,0.0312 0.32422,-0.01 c 0,0 22.1704,-0.42375 36.33399,-4.89648 l -0.66993,0.16406 c 0,0 20.30089,-3.57702 41.19922,-7.49023 10.44917,-1.95661 21.0461,-3.99719 29.36914,-5.72461 4.16152,-0.86371 7.74897,-1.64646 10.51367,-2.31641 1.38236,-0.33497 2.5543,-0.64043 3.54102,-0.93164 0.47949,-0.14151 0.96947,-0.3954 1.38477,-0.53711 10.60746,-0.89974 22.71382,-4.81761 29.81836,-12.44531 3.63606,-3.90382 5.75519,-10.10417 3.27539,-15.66797 -2.4798,-5.56379 -7.98588,-9.73153 -16.77539,-13.71094 z"
       id="path12881"
       inkscape:connector-curvature="0" />
    <path
       style="color:#000000;font-style:normal;font-variant:normal;font-weight:normal;font-stretch:normal;font-size:medium;line-height:normal;font-family:sans-serif;font-variant-ligatures:normal;font-variant-position:normal;font-variant-caps:normal;font-variant-numeric:normal;font-variant-alternates:normal;font-feature-settings:normal;text-indent:0;text-align:start;text-decoration:none;text-decoration-line:none;text-decoration-style:solid;text-decoration-color:#000000;letter-spacing:normal;word-spacing:normal;text-transform:none;writing-mode:lr-tb;direction:ltr;text-orientation:mixed;dominant-baseline:auto;baseline-shift:baseline;text-anchor:start;white-space:normal;shape-padding:0;clip-rule:nonzero;display:inline;overflow:visible;visibility:visible;opacity:1;isolation:auto;mix-blend-mode:normal;color-interpolation:sRGB;color-interpolation-filters:linearRGB;solid-color:#000000;solid-opacity:1;vector-effect:none;fill:#000000;fill-opacity:1;fill-rule:nonzero;stroke:none;stroke-width:10.49703503;stroke-linecap:butt;stroke-linejoin:miter;stroke-miterlimit:4;stroke-dasharray:none;stroke-dashoffset:0;stroke-opacity:1;color-rendering:auto;image-rendering:auto;shape-rendering:auto;text-rendering:auto;enable-background:accumulate"
       d="m 669.94124,646.14906 c -8.33946,0.0646 -18.16428,0.84956 -29.5664,2.80664 l 1.77539,10.3457 c 21.74719,-3.73271 37.00458,-2.92794 46.69336,-1.28711 9.68877,1.64083 13.32226,3.83203 13.32226,3.83203 l 2.33008,1.32813 2.44141,-1.10938 c 3.34083,-1.51858 12.0957,-5.0664 12.0957,-5.0664 l -3.93164,-9.73243 c 0,0 -6.08539,2.50445 -10.35352,4.33985 -2.42882,-1.06624 -6.55999,-2.65595 -14.15039,-3.94141 -5.46229,-0.92506 -12.31679,-1.58019 -20.65625,-1.51562 z"
       id="path12883"
       inkscape:connector-curvature="0" />
    <path
       style="color:#000000;font-style:normal;font-variant:normal;font-weight:normal;font-stretch:normal;font-size:medium;line-height:normal;font-family:sans-serif;font-variant-ligatures:normal;font-variant-position:normal;font-variant-caps:normal;font-variant-numeric:normal;font-variant-alternates:normal;font-feature-settings:normal;text-indent:0;text-align:start;text-decoration:none;text-decoration-line:none;text-decoration-style:solid;text-decoration-color:#000000;letter-spacing:normal;word-spacing:normal;text-transform:none;writing-mode:lr-tb;direction:ltr;text-orientation:mixed;dominant-baseline:auto;baseline-shift:baseline;text-anchor:start;white-space:normal;shape-padding:0;clip-rule:nonzero;display:inline;overflow:visible;visibility:visible;opacity:1;isolation:auto;mix-blend-mode:normal;color-interpolation:sRGB;color-interpolation-filters:linearRGB;solid-color:#000000;solid-opacity:1;vector-effect:none;fill:#000000;fill-opacity:1;fill-rule:nonzero;stroke:none;stroke-width:10.49703503;stroke-linecap:butt;stroke-linejoin:miter;stroke-miterlimit:4;stroke-dasharray:none;stroke-dashoffset:0;stroke-opacity:1;color-rendering:auto;image-rendering:auto;shape-rendering:auto;text-rendering:auto;enable-background:accumulate"
       d="m 563.93538,596.38343 c -2.75468,-0.17434 -5.01268,-0.0633 -6.85547,0.19727 -1.84278,0.26059 -3.26583,0.67469 -4.31836,1.0957 -1.05252,0.42101 -2.08593,1.11133 -2.08593,1.11133 l -1.4375,1.05859 -0.49414,1.71485 c -5.88104,20.45571 -1.77149,42.78711 -1.77149,42.78711 l 0.41016,2.36523 2.06055,1.23437 c 4.67717,2.8065 10.13245,3.29246 14.91992,3.69922 4.78746,0.40677 8.78515,0.33985 8.78515,0.33985 l 2.67969,-0.041 1.53711,-2.19726 c 10.61582,-15.16539 10.92589,-28.30511 7.82617,-37.18165 -3.09972,-8.87653 -9.40039,-13.71874 -9.40039,-13.71874 l -0.90625,-0.69532 -1.11523,-0.25586 c -3.82898,-0.87877 -7.0793,-1.33933 -9.83399,-1.51367 z m -0.65625,10.47852 c 1.78319,0.1131 4.21796,0.5235 6.86133,1.0664 0.94536,0.82938 3.42266,3.17995 5.14063,8.09961 1.94287,5.56373 2.43673,13.6271 -5.02149,25.35742 -1.38046,-0.0133 -2.2846,0.0322 -5.00781,-0.19921 -3.12849,-0.26582 -6.20272,-0.95248 -8.32031,-1.59571 -0.67761,-5.68924 -1.75285,-19.58592 1.31836,-32.54492 0.14531,-0.0259 0.13014,-0.0465 0.29882,-0.0703 1.0665,-0.15082 2.6143,-0.24751 4.73047,-0.11328 z"
       id="path12885"
       inkscape:connector-curvature="0" />
    <path
       style="color:#000000;font-style:normal;font-variant:normal;font-weight:normal;font-stretch:normal;font-size:medium;line-height:normal;font-family:sans-serif;font-variant-ligatures:normal;font-variant-position:normal;font-variant-caps:normal;font-variant-numeric:normal;font-variant-alternates:normal;font-feature-settings:normal;text-indent:0;text-align:start;text-decoration:none;text-decoration-line:none;text-decoration-style:solid;text-decoration-color:#000000;letter-spacing:normal;word-spacing:normal;text-transform:none;writing-mode:lr-tb;direction:ltr;text-orientation:mixed;dominant-baseline:auto;baseline-shift:baseline;text-anchor:start;white-space:normal;shape-padding:0;clip-rule:nonzero;display:inline;overflow:visible;visibility:visible;opacity:1;isolation:auto;mix-blend-mode:normal;color-interpolation:sRGB;color-interpolation-filters:linearRGB;solid-color:#000000;solid-opacity:1;vector-effect:none;fill:#000000;fill-opacity:1;fill-rule:nonzero;stroke:none;stroke-width:10.49703503;stroke-linecap:butt;stroke-linejoin:miter;stroke-miterlimit:4;stroke-dasharray:none;stroke-dashoffset:0;stroke-opacity:1;color-rendering:auto;image-rendering:auto;shape-rendering:auto;text-rendering:auto;enable-background:accumulate"
       d="m 760.26351,661.34437 -4.40039,0.15234 c -10.26973,0.35183 -17.0454,4.57088 -20.67383,9.05664 -1.81421,2.24289 -2.88122,4.47418 -3.50586,6.25 -0.31232,0.88792 -0.51527,1.66008 -0.64649,2.31446 -0.0656,0.32718 -0.11305,0.61822 -0.14843,0.93164 -0.0354,0.31341 -0.33744,-0.1326 0.0586,1.84961 l 10.29297,-2.05664 c 0.38385,1.9212 0.0878,1.31605 0.0801,1.38476 -0.008,0.0687 -0.006,0.0319 0.01,-0.0449 0.0308,-0.15372 0.11115,-0.48507 0.25586,-0.89648 0.28943,-0.82283 0.83425,-1.97941 1.76563,-3.13086 1.48345,-1.83397 3.95958,-3.80167 8.7793,-4.6836 0.40647,1.43319 0.8846,2.93045 2.03906,4.66211 l 8.73242,-5.82226 c 0.17491,0.26236 -0.65547,-1.56573 -1.06055,-3.00196 -0.40508,-1.43622 -0.66406,-2.65625 -0.66406,-2.65625 z"
       id="path12887"
       inkscape:connector-curvature="0" />
    <path
       style="color:#000000;font-style:normal;font-variant:normal;font-weight:normal;font-stretch:normal;font-size:medium;line-height:normal;font-family:sans-serif;font-variant-ligatures:normal;font-variant-position:normal;font-variant-caps:normal;font-variant-numeric:normal;font-variant-alternates:normal;font-feature-settings:normal;text-indent:0;text-align:start;text-decoration:none;text-decoration-line:none;text-decoration-style:solid;text-decoration-color:#000000;letter-spacing:normal;word-spacing:normal;text-transform:none;writing-mode:lr-tb;direction:ltr;text-orientation:mixed;dominant-baseline:auto;baseline-shift:baseline;text-anchor:start;white-space:normal;shape-padding:0;clip-rule:nonzero;display:inline;overflow:visible;visibility:visible;opacity:1;isolation:auto;mix-blend-mode:normal;color-interpolation:sRGB;color-interpolation-filters:linearRGB;solid-color:#000000;solid-opacity:1;vector-effect:none;fill:#000000;fill-opacity:1;fill-rule:nonzero;stroke:none;stroke-width:10.49703503;stroke-linecap:butt;stroke-linejoin:miter;stroke-miterlimit:4;stroke-dasharray:none;stroke-dashoffset:0;stroke-opacity:1;color-rendering:auto;image-rendering:auto;shape-rendering:auto;text-rendering:auto;enable-background:accumulate"
       d="m 786.29671,674.23499 c -8.2838,0.80648 -13.60297,4.16933 -16.30469,8.40821 -3.60229,5.65183 -2.40039,11.65429 -2.40039,11.65429 l 10.32813,-1.87695 c 0,0 -0.29477,-2.2248 0.92383,-4.13672 1.03763,-1.628 3.63296,-3.75033 11.39843,-3.64062 0.0931,0.93967 0.0132,0.92504 0.1875,2.03125 0.60389,3.83222 1.39028,8.45755 4.83594,12.33398 l 7.8457,-6.97461 c -0.54391,-0.61191 -1.8358,-3.96712 -2.3125,-6.99219 -0.47669,-3.02506 -0.51953,-5.55664 -0.51953,-5.55664 l -0.0664,-4.65625 -4.63086,-0.48632 c -3.43334,-0.3614 -6.52389,-0.37625 -9.28516,-0.10743 z"
       id="path12889"
       inkscape:connector-curvature="0" />
    <path
       style="color:#000000;font-style:normal;font-variant:normal;font-weight:normal;font-stretch:normal;font-size:medium;line-height:normal;font-family:sans-serif;font-variant-ligatures:normal;font-variant-position:normal;font-variant-caps:normal;font-variant-numeric:normal;font-variant-alternates:normal;font-feature-settings:normal;text-indent:0;text-align:start;text-decoration:none;text-decoration-line:none;text-decoration-style:solid;text-decoration-color:#000000;letter-spacing:normal;word-spacing:normal;text-transform:none;writing-mode:lr-tb;direction:ltr;text-orientation:mixed;dominant-baseline:auto;baseline-shift:baseline;text-anchor:start;white-space:normal;shape-padding:0;clip-rule:nonzero;display:inline;overflow:visible;visibility:visible;opacity:1;isolation:auto;mix-blend-mode:normal;color-interpolation:sRGB;color-interpolation-filters:linearRGB;solid-color:#000000;solid-opacity:1;vector-effect:none;fill:#000000;fill-opacity:1;fill-rule:nonzero;stroke:none;stroke-width:10.49703503;stroke-linecap:butt;stroke-linejoin:miter;stroke-miterlimit:4;stroke-dasharray:none;stroke-dashoffset:0;stroke-opacity:1;color-rendering:auto;image-rendering:auto;shape-rendering:auto;text-rendering:auto;enable-background:accumulate"
       d="m 529.85726,704.47718 c -6.37637,3.79873 -15.87649,4.9903 -23.73438,4.91211 -7.85789,-0.0782 -13.80273,-1.23242 -13.80273,-1.23242 l -2.00586,10.30273 c 0,0 6.8562,1.33773 15.70508,1.42578 8.84888,0.0881 19.96112,-0.88003 29.21093,-6.39062 z"
       id="path12891"
       inkscape:connector-curvature="0" />
    <path
       style="color:#000000;font-style:normal;font-variant:normal;font-weight:normal;font-stretch:normal;font-size:medium;line-height:normal;font-family:sans-serif;font-variant-ligatures:normal;font-variant-position:normal;font-variant-caps:normal;font-variant-numeric:normal;font-variant-alternates:normal;font-feature-settings:normal;text-indent:0;text-align:start;text-decoration:none;text-decoration-line:none;text-decoration-style:solid;text-decoration-color:#000000;letter-spacing:normal;word-spacing:normal;text-transform:none;writing-mode:lr-tb;direction:ltr;text-orientation:mixed;dominant-baseline:auto;baseline-shift:baseline;text-anchor:start;white-space:normal;shape-padding:0;clip-rule:nonzero;display:inline;overflow:visible;visibility:visible;opacity:1;isolation:auto;mix-blend-mode:normal;color-interpolation:sRGB;color-interpolation-filters:linearRGB;solid-color:#000000;solid-opacity:1;vector-effect:none;fill:#000000;fill-opacity:1;fill-rule:nonzero;stroke:none;stroke-width:12.54447174;stroke-linecap:butt;stroke-linejoin:miter;stroke-miterlimit:4;stroke-dasharray:none;stroke-dashoffset:0;stroke-opacity:1;color-rendering:auto;image-rendering:auto;shape-rendering:auto;text-rendering:auto;enable-background:accumulate"
       d="m 399.07168,-27.85881 c -12.44787,0.12133 -22.5126,5.12632 -28.99633,12.61527 -6.50296,7.51116 -9.52887,17.20392 -9.44128,26.7495 0.0873,9.54558 3.28413,19.12489 9.86652,26.40855 6.56268,7.26178 16.63731,11.90881 28.82972,11.52921 11.95831,-0.0312 21.68714,-5.10716 27.86429,-12.60378 6.1962,-7.51975 9.04322,-17.15016 8.98163,-26.64607 -0.0617,-9.49592 -3.02875,-19.03605 -9.29193,-26.37025 -6.24864,-7.31718 -16.02024,-12.09246 -27.81262,-11.68243 z m 0.38319,12.52907 c 8.41181,-0.30947 13.90031,2.62739 17.89037,7.29984 3.99015,4.67246 6.24199,11.41894 6.28661,18.30422 0.0442,6.88527 -2.11403,13.72849 -6.11801,18.58769 -4.004,4.85921 -9.63204,8.0488 -18.28886,8.0488 h -0.10536 l -0.10549,0.004 c -9.00378,0.30246 -14.97852,-2.73274 -19.20641,-7.41096 -4.22778,-4.67821 -6.56709,-11.32523 -6.62936,-18.11265 -0.0617,-6.78744 2.14807,-13.53451 6.38037,-18.42297 4.23239,-4.88848 10.366,-8.22476 19.71215,-8.29397 h 0.0922 z"
       id="path87-11-5-68"
       inkscape:connector-curvature="0" />
    <path
       style="color:#000000;font-style:normal;font-variant:normal;font-weight:normal;font-stretch:normal;font-size:medium;line-height:normal;font-family:sans-serif;font-variant-ligatures:normal;font-variant-position:normal;font-variant-caps:normal;font-variant-numeric:normal;font-variant-alternates:normal;font-feature-settings:normal;text-indent:0;text-align:start;text-decoration:none;text-decoration-line:none;text-decoration-style:solid;text-decoration-color:#000000;letter-spacing:normal;word-spacing:normal;text-transform:none;writing-mode:lr-tb;direction:ltr;text-orientation:mixed;dominant-baseline:auto;baseline-shift:baseline;text-anchor:start;white-space:normal;shape-padding:0;clip-rule:nonzero;display:inline;overflow:visible;visibility:visible;opacity:1;isolation:auto;mix-blend-mode:normal;color-interpolation:sRGB;color-interpolation-filters:linearRGB;solid-color:#000000;solid-opacity:1;vector-effect:none;fill:#000000;fill-opacity:1;fill-rule:nonzero;stroke:none;stroke-width:12.54447174;stroke-linecap:butt;stroke-linejoin:miter;stroke-miterlimit:4;stroke-dasharray:none;stroke-dashoffset:0;stroke-opacity:1;color-rendering:auto;image-rendering:auto;shape-rendering:auto;text-rendering:auto;enable-background:accumulate"
       d="m 477.78591,74.53442 c 0,0 -1.41578,13.96196 -3.75617,28.62859 -1.1702,7.33331 -2.5786,14.84278 -4.09342,20.67746 -0.75731,2.91735 -1.5516,5.42293 -2.26214,7.15044 -0.71051,1.72751 -1.62829,2.63135 -0.96924,2.08212 -1.38812,1.15675 -2.85693,2.12079 -3.6259,5.19666 -0.38455,1.53793 -0.16389,3.83045 0.81781,5.43035 0.98181,1.5999 2.25664,2.3826 3.22186,2.83681 3.86081,1.81685 5.84322,1.11963 8.46831,0.93858 5.2501,-0.36209 10.93532,-1.53238 10.93542,-1.53238 l -2.45955,-12.30113 c 0,0 -2.68118,0.34077 -4.30398,0.60721 0.83184,-2.23046 1.61926,-4.5581 2.3196,-7.25579 1.69281,-6.5204 3.13467,-14.29743 4.34047,-21.85358 2.41149,-15.1123 3.84814,-29.34305 3.84814,-29.34305 z"
       id="path971-3-7-5"
       inkscape:connector-curvature="0" />
    <path
       style="color:#000000;font-style:normal;font-variant:normal;font-weight:normal;font-stretch:normal;font-size:medium;line-height:normal;font-family:sans-serif;font-variant-ligatures:normal;font-variant-position:normal;font-variant-caps:normal;font-variant-numeric:normal;font-variant-alternates:normal;font-feature-settings:normal;text-indent:0;text-align:start;text-decoration:none;text-decoration-line:none;text-decoration-style:solid;text-decoration-color:#000000;letter-spacing:normal;word-spacing:normal;text-transform:none;writing-mode:lr-tb;direction:ltr;text-orientation:mixed;dominant-baseline:auto;baseline-shift:baseline;text-anchor:start;white-space:normal;shape-padding:0;clip-rule:nonzero;display:inline;overflow:visible;visibility:visible;opacity:1;isolation:auto;mix-blend-mode:normal;color-interpolation:sRGB;color-interpolation-filters:linearRGB;solid-color:#000000;solid-opacity:1;vector-effect:none;fill:#000000;fill-opacity:1;fill-rule:nonzero;stroke:none;stroke-width:15.56675053;stroke-linecap:butt;stroke-linejoin:miter;stroke-miterlimit:4;stroke-dasharray:none;stroke-dashoffset:0;stroke-opacity:1;color-rendering:auto;image-rendering:auto;shape-rendering:auto;text-rendering:auto;enable-background:accumulate"
       d="m 336.69451,-69.00881 -7.09296,13.85651 c 0,0 31.39724,16.07398 63.09743,32.15303 15.8501,8.03953 31.77226,16.07852 43.90828,22.12174 6.068,3.0216 11.18491,5.54189 14.90802,7.33048 1.8616,0.8943 3.36641,1.6031 4.53199,2.12617 0.58285,0.26155 1.06967,0.47443 1.56876,0.67234 0.24959,0.099 0.49212,0.19194 0.86009,0.3103 0.36797,0.11836 0.3356,0.42141 2.58204,0.42141 V -5.58384 c 2.17278,0 2.00782,0.27099 2.18366,0.32754 0.17584,0.0566 0.1682,0.059 0.11113,0.0364 -0.11435,-0.0454 -0.46654,-0.1949 -0.93286,-0.40417 -0.93267,-0.41853 -2.36708,-1.09038 -4.16425,-1.95376 -3.59442,-1.72677 -8.67474,-4.23 -14.70892,-7.23473 -12.06823,-6.00947 -27.97404,-14.03932 -43.80667,-22.07003 C 368.07488,-52.944 336.69451,-69.0088 336.69451,-69.0088 Z"
       id="path1039-49"
       inkscape:connector-curvature="0" />
    <path
       style="color:#000000;font-style:normal;font-variant:normal;font-weight:normal;font-stretch:normal;font-size:medium;line-height:normal;font-family:sans-serif;font-variant-ligatures:normal;font-variant-position:normal;font-variant-caps:normal;font-variant-numeric:normal;font-variant-alternates:normal;font-feature-settings:normal;text-indent:0;text-align:start;text-decoration:none;text-decoration-line:none;text-decoration-style:solid;text-decoration-color:#000000;letter-spacing:normal;word-spacing:normal;text-transform:none;writing-mode:lr-tb;direction:ltr;text-orientation:mixed;dominant-baseline:auto;baseline-shift:baseline;text-anchor:start;white-space:normal;shape-padding:0;clip-rule:nonzero;display:inline;overflow:visible;visibility:visible;opacity:1;isolation:auto;mix-blend-mode:normal;color-interpolation:sRGB;color-interpolation-filters:linearRGB;solid-color:#000000;solid-opacity:1;vector-effect:none;fill:#000000;fill-opacity:1;fill-rule:nonzero;stroke:none;stroke-width:12.54447174;stroke-linecap:butt;stroke-linejoin:miter;stroke-miterlimit:4;stroke-dasharray:none;stroke-dashoffset:0;stroke-opacity:1;color-rendering:auto;image-rendering:auto;shape-rendering:auto;text-rendering:auto;enable-background:accumulate"
       d="m 564.52405,-25.11586 c -11.78785,-0.40694 -21.5561,4.36729 -27.80299,11.68244 -6.26318,7.3342 -9.23034,16.87433 -9.29192,26.37024 -0.0617,9.4959 2.78532,19.12631 8.98161,26.64606 6.17716,7.49663 15.90786,12.57256 27.86626,12.60378 12.19241,0.37956 22.26518,-4.26743 28.82777,-11.5292 6.58239,-7.28368 9.77905,-16.86106 9.86652,-26.40664 0.0874,-9.54557 -2.93832,-19.24025 -9.44128,-26.75142 -6.48551,-7.49098 -16.55337,-12.49652 -29.00597,-12.61526 z m -0.37355,12.52907 0.0922,0.004 h 0.0922 c 9.34617,0.0692 15.47977,3.40549 19.71216,8.29397 4.2323,4.88848 6.44265,11.63555 6.38038,18.42297 -0.0628,6.78743 -2.4016,13.43444 -6.62948,18.11267 -4.22778,4.67821 -10.20252,7.71337 -19.20631,7.41093 l -0.10537,-0.004 h -0.10335 c -8.6569,0 -14.28682,-3.18957 -18.29081,-8.04878 -4.00398,-4.85923 -6.16264,-11.70243 -6.11802,-18.58771 0.0451,-6.88527 2.29645,-13.63173 6.28661,-18.3042 3.99006,-4.67247 9.47856,-7.6093 17.89038,-7.29985 z"
       id="path87-11-5-8-60"
       inkscape:connector-curvature="0" />
    <path
       style="color:#000000;font-style:normal;font-variant:normal;font-weight:normal;font-stretch:normal;font-size:medium;line-height:normal;font-family:sans-serif;font-variant-ligatures:normal;font-variant-position:normal;font-variant-caps:normal;font-variant-numeric:normal;font-variant-alternates:normal;font-feature-settings:normal;text-indent:0;text-align:start;text-decoration:none;text-decoration-line:none;text-decoration-style:solid;text-decoration-color:#000000;letter-spacing:normal;word-spacing:normal;text-transform:none;writing-mode:lr-tb;direction:ltr;text-orientation:mixed;dominant-baseline:auto;baseline-shift:baseline;text-anchor:start;white-space:normal;shape-padding:0;clip-rule:nonzero;display:inline;overflow:visible;visibility:visible;opacity:1;isolation:auto;mix-blend-mode:normal;color-interpolation:sRGB;color-interpolation-filters:linearRGB;solid-color:#000000;solid-opacity:1;vector-effect:none;fill:#000000;fill-opacity:1;fill-rule:nonzero;stroke:none;stroke-width:15.56675053;stroke-linecap:butt;stroke-linejoin:miter;stroke-miterlimit:4;stroke-dasharray:none;stroke-dashoffset:0;stroke-opacity:1;color-rendering:auto;image-rendering:auto;shape-rendering:auto;text-rendering:auto;enable-background:accumulate"
       d="m 626.91085,-66.26585 c 0,0 -31.38036,16.06482 -63.04574,32.12623 -15.83263,8.03069 -31.73843,16.06246 -43.80668,22.07193 -6.03417,3.00472 -11.11449,5.50605 -14.70892,7.23279 -1.79717,0.86339 -3.23156,1.53525 -4.16424,1.95378 -0.46633,0.20928 -0.81851,0.35883 -0.93275,0.40416 -0.0569,0.0226 -0.0648,0.0202 0.11101,-0.0364 0.17585,-0.0566 0.0108,-0.32755 2.18367,-0.32755 v 15.567 c 2.24643,0 2.21604,-0.30114 2.58401,-0.41948 0.36785,-0.11835 0.61049,-0.21329 0.85998,-0.31223 0.49909,-0.19791 0.98602,-0.41079 1.56876,-0.67233 1.16559,-0.52307 2.66854,-1.23186 4.53014,-2.12616 3.72311,-1.78859 8.84,-4.30891 14.90801,-7.3305 12.13601,-6.04318 28.06015,-14.08222 43.91025,-22.12173 31.70007,-16.07902 63.09545,-32.15305 63.09545,-32.15305 z"
       id="path1039-1-7"
       inkscape:connector-curvature="0" />
    <path
       style="color:#000000;font-style:normal;font-variant:normal;font-weight:normal;font-stretch:normal;font-size:medium;line-height:normal;font-family:sans-serif;font-variant-ligatures:normal;font-variant-position:normal;font-variant-caps:normal;font-variant-numeric:normal;font-variant-alternates:normal;font-feature-settings:normal;text-indent:0;text-align:start;text-decoration:none;text-decoration-line:none;text-decoration-style:solid;text-decoration-color:#000000;letter-spacing:normal;word-spacing:normal;text-transform:none;writing-mode:lr-tb;direction:ltr;text-orientation:mixed;dominant-baseline:auto;baseline-shift:baseline;text-anchor:start;white-space:normal;shape-padding:0;clip-rule:nonzero;display:inline;overflow:visible;visibility:visible;opacity:1;isolation:auto;mix-blend-mode:normal;color-interpolation:sRGB;color-interpolation-filters:linearRGB;solid-color:#000000;solid-opacity:1;vector-effect:none;fill:#000000;fill-opacity:1;fill-rule:nonzero;stroke:none;stroke-width:12.45339966;stroke-linecap:butt;stroke-linejoin:miter;stroke-miterlimit:4;stroke-dasharray:none;stroke-dashoffset:0;stroke-opacity:1;color-rendering:auto;image-rendering:auto;shape-rendering:auto;text-rendering:auto;enable-background:accumulate"
       d="m 401.88174,214.12028 v 12.45247 h 152.53061 v -12.45247 z"
       id="path1681-8"
       inkscape:connector-curvature="0" />
    <path
       style="font-style:normal;font-weight:normal;font-size:233.33332825px;line-height:1.25;font-family:sans-serif;letter-spacing:0px;word-spacing:0px;fill:#000000;fill-opacity:1;stroke:none"
       d="m 671.85937,837.27412 -20.39453,42.6093 h 16.97656 l 31.10352,-42.6093 z m 358.20313,13.6718 v 177.27748 h 21.4199 V 850.94592 Z m -626.62696,6.4942 v 22.2168 h 24.15235 v -22.2168 z M 61.75196,858.57872 0,1028.2234 h 22.9004 l 16.63476,-47.28138 h 73.37304 l 16.63281,47.28138 h 24.04102 L 91.83008,858.57872 Z m 14.46875,19.711 29.73632,83.2832 H 46.3711 Z m 164.06249,19.1406 c -7.51953,0 -14.62065,1.5558 -21.30468,4.6699 -6.60807,3.1142 -13.25347,7.4436 -19.9375,12.9883 v -14.1269 h -21.41993 v 127.26178 h 21.41993 v -95.01968 c 5.84853,-4.4813 11.6964,-8.1645 17.54492,-11.0507 5.92448,-2.8863 11.81164,-4.3301 17.66016,-4.3301 6.15234,0 10.86089,0.8368 14.12695,2.5078 3.26606,1.595 5.77257,4.025 7.51953,7.291 1.59506,3.0382 2.62045,7.1024 3.07618,12.1914 0.53168,5.013 0.79687,10.3286 0.79687,15.9492 v 72.46108 h 21.41992 v -81.46108 c 0,-2.2786 -0.0766,-4.5573 -0.22851,-6.8359 -0.15191,-2.3546 -0.3405,-4.4054 -0.56836,-6.1523 6.00043,-4.6333 11.99956,-8.4304 18,-11.3926 6.00043,-3.0382 12.00152,-4.5586 18.00195,-4.5586 6.15234,0 10.8609,0.8368 14.12695,2.5078 3.26606,1.671 5.77257,4.1382 7.51954,7.4043 1.59505,3.0382 2.62044,7.1024 3.07617,12.1914 0.53168,5.089 0.79883,10.3672 0.79883,15.8359 v 72.46108 h 21.41796 v -82.59968 c 0,-15.191 -3.34136,-27.0026 -10.02539,-35.4336 -6.60807,-8.507 -16.8993,-12.7598 -30.875,-12.7598 -8.12717,0 -15.76063,1.6324 -22.90039,4.8984 -7.13975,3.1901 -15.04036,8.431 -23.69922,15.7227 -2.96224,-6.4562 -7.48025,-11.5065 -13.55664,-15.1523 -6.00043,-3.6459 -13.33138,-5.4688 -21.99024,-5.4688 z m 276.05859,0 c -6.98784,0 -14.01432,1.5185 -21.07812,4.5566 -7.0638,2.9623 -13.06294,7.1405 -18,12.5332 -5.31684,5.7726 -9.53234,12.6459 -12.64649,20.6211 -3.03819,7.8993 -4.55859,17.3184 -4.55859,28.2559 0,19.9761 4.44336,35.4709 13.33008,46.48448 8.96267,10.9375 21.03949,16.4062 36.23047,16.4062 9.11459,0 16.5968,-1.2532 22.44531,-3.7597 5.92448,-2.5825 12.11415,-6.4562 18.57031,-11.6211 v 11.6211 c 0,5.1649 -0.56966,9.8361 -1.70898,14.0136 -1.13933,4.1776 -3.03689,7.7468 -5.69532,10.709 -2.65842,3.1142 -6.38085,5.5441 -11.16601,7.291 -4.78516,1.747 -10.82357,2.6211 -18.11523,2.6211 -7.59549,0 -15.19163,-1.0254 -22.78711,-3.0761 -7.59549,-1.9749 -13.13889,-3.6465 -16.63282,-5.0137 h -1.14062 v 21.875 c 6.2283,1.7469 12.53385,3.0768 18.91406,3.9883 6.45616,0.9874 13.06424,1.4804 19.82422,1.4804 20.3559,0 35.43229,-5.0503 45.23047,-15.1523 9.79817,-10.102 14.69726,-25.9386 14.69726,-47.5098 V 900.96162 h -20.05273 l -1.36719,5.4687 c -5.5447,-3.0382 -10.82291,-5.2795 -15.83594,-6.7226 -4.93706,-1.5191 -11.08941,-2.2774 -18.45703,-2.2774 z m 427.35938,0 c -18.53299,0 -33.49544,6.1131 -44.88867,18.3418 -11.31728,12.2287 -16.97657,28.7489 -16.97657,49.5606 0,21.0394 5.92448,37.29448 17.77344,48.76368 11.84896,11.3933 28.33182,17.0899 49.44727,17.0899 8.27908,0 16.17773,-1.0254 23.69726,-3.0762 7.51953,-2.0508 14.88781,-4.5946 22.10352,-7.6328 v -23.35748 h -1.13867 c -3.72179,3.34208 -9.98807,6.75998 -18.79883,10.25398 -8.73481,3.4179 -17.43294,5.1269 -26.0918,5.1269 -6.53212,0 -12.53125,-0.9114 -18,-2.7344 -5.39279,-1.8229 -10.06402,-4.5572 -14.01367,-8.2031 -4.10156,-3.72188 -7.33095,-8.46768 -9.68555,-14.24028 -2.3546,-5.8485 -3.53125,-12.6845 -3.53125,-20.5078 h 93.76563 v -11.6211 c 0,-18.4571 -4.67123,-32.6986 -14.01367,-42.7246 -9.2665,-10.0261 -22.48264,-15.0391 -39.64844,-15.0391 z m -285.96875,0.4551 c -7.67144,0 -15.45812,0.6836 -23.35742,2.0508 -7.89931,1.3672 -13.93772,2.6204 -18.11524,3.7597 v 21.7618 h 1.14063 c 7.36762,-2.8104 14.50607,-4.9378 21.41797,-6.3809 6.91189,-1.5191 13.17816,-2.2793 18.79882,-2.2793 4.63325,0 9.07661,0.3045 13.33008,0.9121 4.25347,0.6076 7.89931,1.7843 10.9375,3.5313 3.19011,1.8229 5.62196,4.3294 7.29297,7.5195 1.74696,3.1901 2.61914,7.217 2.61914,12.0781 v 3.3027 c -12.4566,0.6077 -24.11502,1.5191 -34.97656,2.7344 -10.86155,1.2153 -20.16667,3.5332 -27.91406,6.9512 -7.67144,3.418 -13.59592,8.1265 -17.77344,14.1269 -4.10156,5.9245 -6.15235,13.7092 -6.15235,23.3555 0,11.77308 3.98764,21.45738 11.9629,29.05278 7.97526,7.5955 17.69878,11.3946 29.16796,11.3946 6.2283,0 11.65777,-0.609 16.29102,-1.8242 4.63325,-1.1394 8.73481,-2.5812 12.30469,-4.3282 3.03819,-1.3672 6.15364,-3.1901 9.34375,-5.4687 3.26606,-2.3546 5.84722,-4.1775 7.74609,-5.4688 v 13.5567 h 21.30664 v -86.35948 c 0,-8.2031 -1.25325,-15.0783 -3.75976,-20.623 -2.50651,-5.5448 -6.15235,-10.0628 -10.9375,-13.5567 -4.86111,-3.5699 -10.63434,-6.0764 -17.31836,-7.5195 -6.60808,-1.5191 -14.3928,-2.2793 -23.35547,-2.2793 z m -252.92969,3.0762 V 1028.2234 H 426.2207 V 900.96162 Z m 335.64453,0 51.1543,127.26178 h 21.5332 L 864.63281,900.96162 H 842.1875 L 803.10937,1002.2468 763.68945,900.96162 Z m 202.11524,14.1269 c 11.39323,0 19.86154,3.0762 25.40625,9.2285 5.62066,6.1524 8.46896,14.8505 8.54492,26.0918 h -72.91602 c 0.91146,-10.026 4.74783,-18.4197 11.50781,-25.1797 6.83594,-6.7599 15.98785,-10.1406 27.45704,-10.1406 z m -422.46094,1.5957 c 4.86111,0 9.72287,0.5697 14.58398,1.709 4.93707,1.0634 10.25261,2.8863 15.94922,5.4687 v 69.3848 c -5.24088,4.0256 -11.01215,7.25318 -17.3164,9.68368 -6.2283,2.3546 -12.45725,3.5332 -18.68555,3.5332 -11.62109,0 -19.93815,-3.6851 -24.95117,-11.05278 -5.01302,-7.3676 -7.51953,-18.1912 -7.51953,-32.4707 0,-15.0391 3.38064,-26.507 10.14062,-34.4063 6.75998,-7.8993 16.02583,-11.8496 27.79883,-11.8496 z m 171.69531,44.7754 v 35.4336 c -5.31684,4.10168 -11.08811,7.63358 -17.31641,10.59578 -6.22829,2.8863 -13.10351,4.3281 -20.62304,4.3281 -9.03863,0 -15.76064,-1.8229 -20.16602,-5.4687 -4.40538,-3.7218 -6.60742,-9.22798 -6.60742,-16.51968 0,-6.4561 1.89952,-11.5065 5.69727,-15.1523 3.79774,-3.7218 8.77148,-6.4562 14.92382,-8.2031 5.16493,-1.4432 12.15408,-2.5452 20.96485,-3.3047 8.88672,-0.7596 16.59483,-1.3292 23.12695,-1.709 z"
       id="text2632"
       inkscape:connector-curvature="0" />
  </g>
</svg>
