<?xml version="1.0" encoding="UTF-8" standalone="no"?>
<!-- Created with Inkscape (http://www.inkscape.org/) -->

<svg
   xmlns:dc="http://purl.org/dc/elements/1.1/"
   xmlns:cc="http://creativecommons.org/ns#"
   xmlns:rdf="http://www.w3.org/1999/02/22-rdf-syntax-ns#"
   xmlns:svg="http://www.w3.org/2000/svg"
   xmlns="http://www.w3.org/2000/svg"
   xmlns:sodipodi="http://sodipodi.sourceforge.net/DTD/sodipodi-0.dtd"
   xmlns:inkscape="http://www.inkscape.org/namespaces/inkscape"
   width="1000"
   height="1250"
   viewBox="0 0 1000 1250"
   version="1.1"
   id="svg8"
   inkscape:version="0.92.4 (5da689c313, 2019-01-14)"
   sodipodi:docname="Caverna.svg">
  <defs
     id="defs2" />
  <sodipodi:namedview
     id="base"
     pagecolor="#ffffff"
     bordercolor="#666666"
     borderopacity="1.0"
     inkscape:pageopacity="0.0"
     inkscape:pageshadow="2"
     inkscape:zoom="0.70710678"
     inkscape:cx="233.64673"
     inkscape:cy="653.97057"
     inkscape:document-units="px"
     inkscape:current-layer="layer1"
     showgrid="false"
     units="px"
     inkscape:window-width="681"
     inkscape:window-height="706"
     inkscape:window-x="-7"
     inkscape:window-y="0"
     inkscape:window-maximized="0" />
  <metadata
     id="metadata5">
    <rdf:RDF>
      <cc:Work
         rdf:about="">
        <dc:format>image/svg+xml</dc:format>
        <dc:type
           rdf:resource="http://purl.org/dc/dcmitype/StillImage" />
        <dc:title></dc:title>
      </cc:Work>
    </rdf:RDF>
  </metadata>
  <g
     inkscape:label="Camada 1"
     inkscape:groupmode="layer"
     id="layer1"
     transform="translate(0,217.58335)">
    <path
       style="color:#000000;font-style:normal;font-variant:normal;font-weight:normal;font-stretch:normal;font-size:medium;line-height:normal;font-family:sans-serif;font-variant-ligatures:normal;font-variant-position:normal;font-variant-caps:normal;font-variant-numeric:normal;font-variant-alternates:normal;font-feature-settings:normal;text-indent:0;text-align:start;text-decoration:none;text-decoration-line:none;text-decoration-style:solid;text-decoration-color:#000000;letter-spacing:normal;word-spacing:normal;text-transform:none;writing-mode:lr-tb;direction:ltr;text-orientation:mixed;dominant-baseline:auto;baseline-shift:baseline;text-anchor:start;white-space:normal;shape-padding:0;clip-rule:nonzero;display:inline;overflow:visible;visibility:visible;opacity:1;isolation:auto;mix-blend-mode:normal;color-interpolation:sRGB;color-interpolation-filters:linearRGB;solid-color:#000000;solid-opacity:1;vector-effect:none;fill:#000000;fill-opacity:1;fill-rule:nonzero;stroke:none;stroke-width:11.41926098;stroke-linecap:butt;stroke-linejoin:miter;stroke-miterlimit:4;stroke-dasharray:none;stroke-dashoffset:0;stroke-opacity:1;color-rendering:auto;image-rendering:auto;shape-rendering:auto;text-rendering:auto;enable-background:accumulate"
       d="M 190.31028,410.02023 190,421.43393 c 123.49122,3.35216 239.86644,8.35557 265.2117,9.68505 l 0.16991,0.008 h 0.17729 c 4.39189,-0.039 14.87983,1.61871 27.76227,4.98657 12.88243,3.36785 28.48383,8.38117 44.56886,14.82673 32.17006,12.89112 66.27463,31.74097 84.76433,53.61119 l 0.23639,0.28065 0.27347,0.25116 c 0,0 15.87147,14.48972 31.64074,29.43925 7.88462,7.47476 15.74752,15.06643 21.52719,20.95836 2.88983,2.946 5.26779,5.4871 6.78912,7.26191 0.45056,0.52561 0.62413,0.77933 0.9013,1.13772 l -0.14789,0.90127 2.08327,2.06848 c 0,0 14.59722,14.48333 30.39225,29.83078 7.89751,7.67376 16.09134,15.56559 22.93822,21.99261 6.84691,6.42708 11.95456,11.14456 15.18136,13.46745 l 0.31772,0.22885 0.34723,0.18457 c 0,0 3.91967,2.03241 6.84082,7.45399 2.92116,5.42155 4.92519,14.01389 -1.57352,28.76698 l -0.37672,0.85694 -0.0813,0.93823 c 0,0 -1.53902,17.06422 -8.1041,35.71863 -6.56505,18.65437 -17.99605,37.91359 -36.39088,43.95575 l -1.52922,0.5097 -1.04164,1.2263 c 0,0 -5.66192,6.2412 -11.08865,8.5695 -2.71335,1.1642 -4.72215,1.3389 -6.55273,0.4655 -1.76505,-0.8421 -4.27313,-3.4056 -6.53054,-9.8033 -0.0809,-0.8893 -2.1455,-24.27946 9.78103,-34.77302 l -7.54264,-8.56954 c -18.47622,16.25629 -13.57086,45.38156 -13.57086,45.38156 l 0.0738,0.5319 0.16983,0.5098 c 2.89513,8.6721 7.13891,14.3754 12.69912,17.0282 5.56022,2.6527 11.44572,1.6643 15.9792,-0.2807 8.27897,-3.5521 13.5884,-9.7631 14.55337,-10.9187 22.42147,-8.4083 34.86316,-30.44138 41.76163,-50.0431 6.88182,-19.55447 8.4982,-36.66998 8.59907,-37.76498 7.01481,-16.66774 5.23069,-29.5345 0.81999,-37.72062 -4.5095,-8.36952 -11.54667,-12.13029 -11.54667,-12.13029 l 0.66488,0.41368 c -1.52768,-1.09973 -7.28137,-6.18158 -14.04367,-12.52921 -6.7623,-6.34764 -14.92699,-14.21179 -22.79784,-21.85967 -15.29046,-14.85718 -28.6315,-28.09867 -29.43185,-28.89256 -0.25154,-0.49715 -0.50575,-0.94121 -0.76832,-1.32974 -0.64952,-0.96114 -1.40143,-1.88375 -2.31968,-2.955 -1.83654,-2.14251 -4.32212,-4.78131 -7.30625,-7.82338 -5.96822,-6.08415 -13.88665,-13.73033 -21.8227,-21.25388 -15.87212,-15.04705 -31.79586,-29.58696 -31.79586,-29.58696 l 0.50972,0.53188 c -20.8001,-24.60311 -56.13092,-43.57464 -89.23374,-56.8395 -16.55142,-6.63246 -32.54674,-11.7791 -45.92817,-15.27741 -13.38143,-3.49827 -23.83374,-5.41754 -30.75422,-5.35593 l 0.3546,0.008 c -25.67235,-1.34663 -141.89509,-6.33717 -265.4997,-9.69243 z"
       id="path1244"
       inkscape:connector-curvature="0" />
    <path
       style="color:#000000;font-style:normal;font-variant:normal;font-weight:normal;font-stretch:normal;font-size:medium;line-height:normal;font-family:sans-serif;font-variant-ligatures:normal;font-variant-position:normal;font-variant-caps:normal;font-variant-numeric:normal;font-variant-alternates:normal;font-feature-settings:normal;text-indent:0;text-align:start;text-decoration:none;text-decoration-line:none;text-decoration-style:solid;text-decoration-color:#000000;letter-spacing:normal;word-spacing:normal;text-transform:none;writing-mode:lr-tb;direction:ltr;text-orientation:mixed;dominant-baseline:auto;baseline-shift:baseline;text-anchor:start;white-space:normal;shape-padding:0;clip-rule:nonzero;display:inline;overflow:visible;visibility:visible;opacity:1;isolation:auto;mix-blend-mode:normal;color-interpolation:sRGB;color-interpolation-filters:linearRGB;solid-color:#000000;solid-opacity:1;vector-effect:none;fill:#000000;fill-opacity:1;fill-rule:nonzero;stroke:none;stroke-width:11.41926098;stroke-linecap:butt;stroke-linejoin:miter;stroke-miterlimit:4;stroke-dasharray:none;stroke-dashoffset:0;stroke-opacity:1;color-rendering:auto;image-rendering:auto;shape-rendering:auto;text-rendering:auto;enable-background:accumulate"
       d="m 664.463,628.52807 -11.39893,0.76091 c 1.4209,21.33602 17.90857,34.63485 26.12225,39.98862 -4.52278,10.80339 -4.80483,21.35002 -3.62726,29.36535 0.68224,4.64378 1.75674,8.49873 2.57824,11.15516 0.41073,1.32823 0.76496,2.38488 0.93081,2.92546 0.0828,0.27044 0.11385,0.46554 0.059,0.16983 -0.0265,-0.14789 -0.12406,-0.36992 -0.059,-1.2485 0.034,-0.43932 0.0741,-1.09458 0.57622,-2.09065 0.50226,-0.99605 1.81227,-2.36665 3.36135,-2.85159 l 3.41301,10.89659 c 1.57621,-0.49342 2.90296,-1.8771 3.42043,-2.90331 0.51748,-1.02621 0.57678,-1.71808 0.61317,-2.20885 0.0726,-0.98157 -0.0413,-1.35054 -0.10364,-1.68434 -0.12406,-0.66767 -0.24131,-1.00809 -0.36916,-1.42581 -0.25645,-0.83546 -0.57357,-1.76835 -0.93823,-2.9476 -0.72936,-2.35852 -1.62295,-5.60393 -2.18672,-9.44126 -1.12749,-7.67466 -0.93751,-17.49076 4.52856,-27.28946 l 2.88114,-5.15648 -5.25993,-2.70385 c 0,0 -23.15525,-12.49753 -24.54131,-33.3103 z"
       id="path1246"
       inkscape:connector-curvature="0" />
    <path
       style="color:#000000;font-style:normal;font-variant:normal;font-weight:normal;font-stretch:normal;font-size:medium;line-height:normal;font-family:sans-serif;font-variant-ligatures:normal;font-variant-position:normal;font-variant-caps:normal;font-variant-numeric:normal;font-variant-alternates:normal;font-feature-settings:normal;text-indent:0;text-align:start;text-decoration:none;text-decoration-line:none;text-decoration-style:solid;text-decoration-color:#000000;letter-spacing:normal;word-spacing:normal;text-transform:none;writing-mode:lr-tb;direction:ltr;text-orientation:mixed;dominant-baseline:auto;baseline-shift:baseline;text-anchor:start;white-space:normal;shape-padding:0;clip-rule:nonzero;display:inline;overflow:visible;visibility:visible;opacity:1;isolation:auto;mix-blend-mode:normal;color-interpolation:sRGB;color-interpolation-filters:linearRGB;solid-color:#000000;solid-opacity:1;vector-effect:none;fill:#000000;fill-opacity:1;fill-rule:nonzero;stroke:none;stroke-width:11.41926098;stroke-linecap:butt;stroke-linejoin:miter;stroke-miterlimit:4;stroke-dasharray:none;stroke-dashoffset:0;stroke-opacity:1;color-rendering:auto;image-rendering:auto;shape-rendering:auto;text-rendering:auto;enable-background:accumulate"
       d="m 608.54693,594.28697 -8.59908,7.44661 c 17.79244,24.45318 32.28356,34.7703 43.1357,38.77704 5.42605,2.00339 9.91433,2.37615 13.16455,2.12023 3.25022,-0.25607 5.7844,-1.39624 5.7844,-1.39624 l -5.06782,-10.23171 c 0,0 0.0113,0.11612 -1.61047,0.24397 -1.62205,0.12784 -4.35288,0.0152 -8.31835,-1.44794 -18.70821,-9.13098 -28.85172,-22.23951 -38.48893,-35.51196 z"
       id="path1248"
       inkscape:connector-curvature="0"
       sodipodi:nodetypes="ccccccccc" />
    <path
       style="color:#000000;font-style:normal;font-variant:normal;font-weight:normal;font-stretch:normal;font-size:medium;line-height:normal;font-family:sans-serif;font-variant-ligatures:normal;font-variant-position:normal;font-variant-caps:normal;font-variant-numeric:normal;font-variant-alternates:normal;font-feature-settings:normal;text-indent:0;text-align:start;text-decoration:none;text-decoration-line:none;text-decoration-style:solid;text-decoration-color:#000000;letter-spacing:normal;word-spacing:normal;text-transform:none;writing-mode:lr-tb;direction:ltr;text-orientation:mixed;dominant-baseline:auto;baseline-shift:baseline;text-anchor:start;white-space:normal;shape-padding:0;clip-rule:nonzero;display:inline;overflow:visible;visibility:visible;opacity:1;isolation:auto;mix-blend-mode:normal;color-interpolation:sRGB;color-interpolation-filters:linearRGB;solid-color:#000000;solid-opacity:1;vector-effect:none;fill:#000000;fill-opacity:1;fill-rule:nonzero;stroke:none;stroke-width:11.41926098;stroke-linecap:butt;stroke-linejoin:miter;stroke-miterlimit:4;stroke-dasharray:none;stroke-dashoffset:0;stroke-opacity:1;color-rendering:auto;image-rendering:auto;shape-rendering:auto;text-rendering:auto;enable-background:accumulate"
       d="m 667.73568,734.99692 c 0,0 -3.71455,5.74789 -6.16857,13.4896 -2.44957,7.72763 -4.00171,18.25423 1.8395,27.42243 0.0405,0.057 4.17297,5.9061 11.67965,6.4567 7.54341,0.5533 17.21094,-3.3051 30.06715,-16.0309 l -8.0302,-8.1115 c -11.63082,11.5129 -18.4182,12.9551 -21.20217,12.7509 -2.78397,-0.2043 -2.82205,-1.0934 -2.82201,-1.0934 l -0.0227,-0.038 -0.0302,-0.044 c -3.12658,-4.8821 -2.53834,-11.7197 -0.59101,-17.8629 1.94734,-6.14328 4.89054,-10.77106 4.89054,-10.77106 z"
       id="path1250"
       inkscape:connector-curvature="0" />
    <path
       style="color:#000000;font-style:normal;font-variant:normal;font-weight:normal;font-stretch:normal;font-size:medium;line-height:normal;font-family:sans-serif;font-variant-ligatures:normal;font-variant-position:normal;font-variant-caps:normal;font-variant-numeric:normal;font-variant-alternates:normal;font-feature-settings:normal;text-indent:0;text-align:start;text-decoration:none;text-decoration-line:none;text-decoration-style:solid;text-decoration-color:#000000;letter-spacing:normal;word-spacing:normal;text-transform:none;writing-mode:lr-tb;direction:ltr;text-orientation:mixed;dominant-baseline:auto;baseline-shift:baseline;text-anchor:start;white-space:normal;shape-padding:0;clip-rule:nonzero;display:inline;overflow:visible;visibility:visible;opacity:1;isolation:auto;mix-blend-mode:normal;color-interpolation:sRGB;color-interpolation-filters:linearRGB;solid-color:#000000;solid-opacity:1;vector-effect:none;fill:#000000;fill-opacity:1;fill-rule:nonzero;stroke:none;stroke-width:11.41926098;stroke-linecap:butt;stroke-linejoin:miter;stroke-miterlimit:4;stroke-dasharray:none;stroke-dashoffset:0;stroke-opacity:1;color-rendering:auto;image-rendering:auto;shape-rendering:auto;text-rendering:auto;enable-background:accumulate"
       d="m 729.87928,662.45894 -11.40616,0.42847 c 0.26741,27.73201 -2.12477,42.52084 -4.35866,50.28679 -1.1169,3.88298 -2.15102,5.9759 -2.91067,7.32104 -0.3798,0.67256 -0.69132,1.14585 -1.07856,1.79513 -0.10704,0.17929 -0.19971,0.83437 -0.34722,1.07859 -14.49381,15.76413 -11.78308,36.42779 -11.78308,36.42779 l 11.31765,-1.5292 c 0,0 -2.05838,-16.35557 9.34523,-27.96169 l 1.59568,-1.62526 0.0152,-1.10076 c 0.23489,-0.37786 0.47042,-0.74642 0.87912,-1.47011 1.12874,-1.9987 2.5999,-5.09773 3.94493,-9.77366 4.03246,-21.66244 4.87619,-38.15073 4.78654,-53.87713 z"
       id="path1254"
       inkscape:connector-curvature="0"
       sodipodi:nodetypes="cccccccccccccc" />
    <path
       style="color:#000000;font-style:normal;font-variant:normal;font-weight:normal;font-stretch:normal;font-size:medium;line-height:normal;font-family:sans-serif;font-variant-ligatures:normal;font-variant-position:normal;font-variant-caps:normal;font-variant-numeric:normal;font-variant-alternates:normal;font-feature-settings:normal;text-indent:0;text-align:start;text-decoration:none;text-decoration-line:none;text-decoration-style:solid;text-decoration-color:#000000;letter-spacing:normal;word-spacing:normal;text-transform:none;writing-mode:lr-tb;direction:ltr;text-orientation:mixed;dominant-baseline:auto;baseline-shift:baseline;text-anchor:start;white-space:normal;shape-padding:0;clip-rule:nonzero;display:inline;overflow:visible;visibility:visible;opacity:1;isolation:auto;mix-blend-mode:normal;color-interpolation:sRGB;color-interpolation-filters:linearRGB;solid-color:#000000;solid-opacity:1;vector-effect:none;fill:#000000;fill-opacity:1;fill-rule:nonzero;stroke:none;stroke-width:11.41926098;stroke-linecap:butt;stroke-linejoin:miter;stroke-miterlimit:4;stroke-dasharray:none;stroke-dashoffset:0;stroke-opacity:1;color-rendering:auto;image-rendering:auto;shape-rendering:auto;text-rendering:auto;enable-background:accumulate"
       d="m 691.37572,587.43873 -9.27873,6.64875 c 19.78694,27.60684 28.00574,41.45067 31.13836,47.96712 1.54322,3.2102 1.74922,4.53941 1.75084,4.52856 -0.0265,0.14033 -0.0428,0.12331 -0.0666,0.5393 -0.0428,0.74718 0.14904,2.17333 0.68704,3.19878 l -0.4728,-1.23371 c 3.30004,12.83333 3.32319,13.64594 3.35395,14.11754 l 11.3915,-0.74613 c -0.0643,-0.98736 -0.56092,-3.90685 -3.54601,-15.59505 0.0302,-0.47438 0.1044,-0.78118 0.0518,-1.32236 -0.21143,-2.16472 -0.98736,-4.53587 -2.85896,-8.42918 -3.74326,-7.78657 -12.18809,-21.82202 -32.15046,-49.67362 z m 34.92815,60.25257 c -6.4e-4,0.0189 0.0152,0.064 0.0152,0.0813 -0.034,0.59043 -0.0741,0.61967 -0.0378,0.41372 0.0152,-0.0771 0.008,-0.37143 0.0227,-0.49497 z"
       id="path1256"
       inkscape:connector-curvature="0" />
    <path
       style="color:#000000;font-style:normal;font-variant:normal;font-weight:normal;font-stretch:normal;font-size:medium;line-height:normal;font-family:sans-serif;font-variant-ligatures:normal;font-variant-position:normal;font-variant-caps:normal;font-variant-numeric:normal;font-variant-alternates:normal;font-feature-settings:normal;text-indent:0;text-align:start;text-decoration:none;text-decoration-line:none;text-decoration-style:solid;text-decoration-color:#000000;letter-spacing:normal;word-spacing:normal;text-transform:none;writing-mode:lr-tb;direction:ltr;text-orientation:mixed;dominant-baseline:auto;baseline-shift:baseline;text-anchor:start;white-space:normal;shape-padding:0;clip-rule:nonzero;display:inline;overflow:visible;visibility:visible;opacity:1;isolation:auto;mix-blend-mode:normal;color-interpolation:sRGB;color-interpolation-filters:linearRGB;solid-color:#000000;solid-opacity:1;vector-effect:none;fill:#000000;fill-opacity:1;fill-rule:nonzero;stroke:none;stroke-width:11.41926098;stroke-linecap:butt;stroke-linejoin:miter;stroke-miterlimit:4;stroke-dasharray:none;stroke-dashoffset:0;stroke-opacity:1;color-rendering:auto;image-rendering:auto;shape-rendering:auto;text-rendering:auto;enable-background:accumulate"
       d="m 329.1438,529.03308 c -10.77499,-0.44776 -25.14875,0.0189 -41.14844,0.88648 -31.9994,1.73806 -70.41492,5.12765 -97.09408,6.41977 l 0.55406,11.40629 c 27.11018,-1.31298 65.4711,-4.69853 97.16057,-6.41972 15.84473,-0.86061 30.04279,-1.29518 40.05509,-0.87914 5.00615,0.20803 9.00418,0.66109 11.28812,1.21157 0.91996,0.22166 1.26609,0.39825 1.47011,0.48755 1.1031,3.34343 3.20763,5.70009 5.82876,7.95638 3.3363,2.87193 7.56989,5.66657 12.22633,8.22968 8.28642,4.5612 17.39251,8.01802 25.78981,8.62124 1.08894,1.37365 7.99217,10.21583 20.2861,21.80055 12.60669,11.8794 29.50926,25.12402 48.14442,31.95096 0.61807,1.20943 3.15159,5.96142 5.3855,13.82942 2.49657,8.79316 3.52225,19.27212 0.14037,26.19612 l -0.37677,0.7757 -0.13298,0.84956 c 0,0 -1.36913,8.77919 -1.95771,18.7643 -0.29427,4.99254 -0.40583,10.30309 -0.0148,15.18133 0.3139,3.91563 1.03862,7.44782 2.60041,10.76359 -0.12035,1.19006 -1.23019,11.93841 -1.75823,25.15448 -0.2782,6.96322 -0.37473,14.26875 -0.0148,20.67026 0.35873,6.3797 0.69717,11.5405 3.31699,16.127 0.0645,0.1176 3.41884,6.2208 10.771,9.3451 7.42324,3.1547 19.91458,1.6118 33.44333,-7.6977 l -7.71266,-8.2445 c -11.40986,7.8514 -17.53776,7.0153 -21.26864,5.4298 -3.73089,-1.5855 -5.25253,-4.3586 -5.25253,-4.3586 l -0.0371,-0.059 -0.0295,-0.059 c -0.27835,-0.4839 -1.50672,-5.3387 -1.8321,-11.1255 -0.32536,-5.78674 -0.24003,-12.82277 0.0295,-19.56952 0.53912,-13.49351 1.80255,-25.79719 1.80255,-25.79719 l 0.21424,-2.09069 -1.19678,-1.72867 c -0.32392,-0.47038 -1.36911,-3.65112 -1.69174,-7.67563 -0.32264,-4.02453 -0.24567,-8.92407 0.0295,-13.59303 0.54791,-9.29503 1.82035,-17.52098 1.83211,-17.59705 4.65629,-10.95592 2.81114,-23.16349 0.0812,-32.7784 -2.85629,-10.0601 -6.9221,-17.69308 -6.9221,-17.69308 l -2.46705,-2.42337 -0.79084,-0.32477 c -16.87476,-5.54441 -33.93425,-18.68762 -46.50439,-30.53261 -12.57014,-11.84498 -20.62594,-22.14777 -20.62594,-22.14777 l -1.78778,-2.29013 -2.8959,0.0961 c -4.48984,0.1479 -14.86853,-3.24432 -23.09337,-7.77164 -4.11241,-2.26365 -7.823,-4.76722 -10.28341,-6.88518 -2.46042,-2.11792 -2.9445,-4.41335 -2.84419,-2.60778 l -0.0148,-0.22165 -0.0295,-0.21408 c -0.38138,-2.86722 -2.39884,-4.84826 -4.05574,-5.86569 -1.65692,-1.01743 -3.29998,-1.53955 -5.12694,-1.97986 -3.65391,-0.88066 -8.10211,-1.29797 -13.4896,-1.52181 z m 11.31028,10.43116 c 0.0253,0.4574 0.31901,0.64762 0.38415,1.06379 -0.14033,-0.30448 -0.28564,-0.22051 -0.33981,-0.62794 z"
       id="path1258"
       inkscape:connector-curvature="0"
       sodipodi:nodetypes="ccccscccccccccccccccccccccscccccccccccccccscccscccccccccccc" />
    <path
       style="color:#000000;font-style:normal;font-variant:normal;font-weight:normal;font-stretch:normal;font-size:medium;line-height:normal;font-family:sans-serif;font-variant-ligatures:normal;font-variant-position:normal;font-variant-caps:normal;font-variant-numeric:normal;font-variant-alternates:normal;font-feature-settings:normal;text-indent:0;text-align:start;text-decoration:none;text-decoration-line:none;text-decoration-style:solid;text-decoration-color:#000000;letter-spacing:normal;word-spacing:normal;text-transform:none;writing-mode:lr-tb;direction:ltr;text-orientation:mixed;dominant-baseline:auto;baseline-shift:baseline;text-anchor:start;white-space:normal;shape-padding:0;clip-rule:nonzero;display:inline;overflow:visible;visibility:visible;opacity:1;isolation:auto;mix-blend-mode:normal;color-interpolation:sRGB;color-interpolation-filters:linearRGB;solid-color:#000000;solid-opacity:1;vector-effect:none;fill:#000000;fill-opacity:1;fill-rule:nonzero;stroke:none;stroke-width:11.41926098;stroke-linecap:butt;stroke-linejoin:miter;stroke-miterlimit:4;stroke-dasharray:none;stroke-dashoffset:0;stroke-opacity:1;color-rendering:auto;image-rendering:auto;shape-rendering:auto;text-rendering:auto;enable-background:accumulate"
       d="m 576.22657,607.1043 c -12.61775,-0.49694 -22.56887,2.30491 -22.56887,2.30491 l -3.05843,0.79783 -0.93822,3.0215 c -1.53825,4.9343 -6.60075,7.35618 -12.6548,8.56953 -6.05406,1.21333 -11.7757,0.77566 -11.7757,0.77566 l -1.86165,0.15515 -4.29215,6.10946 c 0.0268,0.26628 -0.10461,0.62568 -0.82001,1.34454 -0.71539,0.71887 -1.44057,1.13029 -1.44057,1.13029 l -4.54332,2.37879 1.88383,4.77234 c 1.88048,4.75486 1.13285,17.44847 -0.98254,28.07991 -2.11541,10.63144 -4.94964,19.49565 -4.94964,19.49565 l -0.54668,1.70652 0.52451,1.7065 c 13.05679,42.63578 -12.04164,74.11897 -12.04164,74.11897 l 8.94627,7.092 c 0,0 27.81736,-35.55259 14.39088,-82.72541 0.40379,-1.28235 2.7886,-8.68111 4.87576,-19.17059 1.95351,-9.81777 3.57427,-20.77045 1.45534,-30.13365 0.25169,-0.22466 0.26469,-0.13805 0.51713,-0.39155 1.08769,-1.09297 2.22588,-2.69462 3.05843,-4.61718 2.6983,0.064 4.63518,0.41523 9.84017,-0.62796 6.91209,-1.38531 15.23321,-5.0699 19.48826,-12.92814 5.53104,-1.12891 33.03123,-5.81058 47.19143,11.69444 l -1.15984,-2.46741 c 0.57144,2.84134 1.36704,3.11911 2.17193,4.11484 0.80486,0.99571 1.76934,2.01809 2.91805,3.13228 2.29748,2.22844 5.31511,4.77457 8.82069,7.225 7.01119,4.90087 15.76904,9.79783 25.22835,9.04971 l 4.15917,-9.0645 c -4.31823,0.34155 -16.88799,-5.18314 -22.84218,-9.34519 -2.9771,-2.081 -5.61018,-4.31255 -7.41707,-6.06517 -0.90343,-0.87627 -1.6064,-1.64171 -1.98724,-2.1128 -0.38081,-0.47111 -0.29314,-1.33557 0.14032,0.82002 l -0.27346,-1.37407 -0.88653,-1.09338 C 604.12749,611.39388 588.84411,607.60123 576.22638,607.1043 Z"
       id="path1260"
       inkscape:connector-curvature="0"
       sodipodi:nodetypes="cccccccccccccccccccsccccccccsccccccccccc" />
    <path
       style="color:#000000;font-style:normal;font-variant:normal;font-weight:normal;font-stretch:normal;font-size:medium;line-height:normal;font-family:sans-serif;font-variant-ligatures:normal;font-variant-position:normal;font-variant-caps:normal;font-variant-numeric:normal;font-variant-alternates:normal;font-feature-settings:normal;text-indent:0;text-align:start;text-decoration:none;text-decoration-line:none;text-decoration-style:solid;text-decoration-color:#000000;letter-spacing:normal;word-spacing:normal;text-transform:none;writing-mode:lr-tb;direction:ltr;text-orientation:mixed;dominant-baseline:auto;baseline-shift:baseline;text-anchor:start;white-space:normal;shape-padding:0;clip-rule:nonzero;display:inline;overflow:visible;visibility:visible;opacity:1;isolation:auto;mix-blend-mode:normal;color-interpolation:sRGB;color-interpolation-filters:linearRGB;solid-color:#000000;solid-opacity:1;vector-effect:none;fill:#000000;fill-opacity:1;fill-rule:nonzero;stroke:none;stroke-width:11.41926098;stroke-linecap:butt;stroke-linejoin:miter;stroke-miterlimit:4;stroke-dasharray:none;stroke-dashoffset:0;stroke-opacity:1;color-rendering:auto;image-rendering:auto;shape-rendering:auto;text-rendering:auto;enable-background:accumulate"
       d="m 648.06271,643.75373 -9.2122,6.74482 c 0,0 4.85812,6.64237 11.31027,13.46004 3.22608,3.40882 6.85637,6.89575 10.69713,9.73675 3.84077,2.841 7.82742,5.25206 12.7065,5.62928 l 6.14641,-5.9248 c -1.01856,-0.0787 -9.07108,-6.67345 -12.06379,-8.88718 -2.99272,-2.2137 -6.25365,-5.29681 -9.19007,-8.3996 -5.87284,-6.20553 -10.39425,-12.35931 -10.39425,-12.35931 z"
       id="path1262"
       inkscape:connector-curvature="0"
       sodipodi:nodetypes="ccccccccc" />
    <path
       style="color:#000000;font-style:normal;font-variant:normal;font-weight:normal;font-stretch:normal;font-size:medium;line-height:normal;font-family:sans-serif;font-variant-ligatures:normal;font-variant-position:normal;font-variant-caps:normal;font-variant-numeric:normal;font-variant-alternates:normal;font-feature-settings:normal;text-indent:0;text-align:start;text-decoration:none;text-decoration-line:none;text-decoration-style:solid;text-decoration-color:#000000;letter-spacing:normal;word-spacing:normal;text-transform:none;writing-mode:lr-tb;direction:ltr;text-orientation:mixed;dominant-baseline:auto;baseline-shift:baseline;text-anchor:start;white-space:normal;shape-padding:0;clip-rule:nonzero;display:inline;overflow:visible;visibility:visible;opacity:1;isolation:auto;mix-blend-mode:normal;color-interpolation:sRGB;color-interpolation-filters:linearRGB;solid-color:#000000;solid-opacity:1;vector-effect:none;fill:#000000;fill-opacity:1;fill-rule:nonzero;stroke:none;stroke-width:11.41926098;stroke-linecap:butt;stroke-linejoin:miter;stroke-miterlimit:4;stroke-dasharray:none;stroke-dashoffset:0;stroke-opacity:1;color-rendering:auto;image-rendering:auto;shape-rendering:auto;text-rendering:auto;enable-background:accumulate"
       d="m 679.71082,673.39982 -11.41371,0.45805 c 0,0 0.32756,8.19825 1.64743,17.61182 1.31987,9.41355 2.77219,19.79879 8.61382,26.728 l 8.72469,-7.35794 c -1.79665,-2.13113 -4.79912,-12.1923 -6.02825,-20.95836 -1.22909,-8.7661 -1.54398,-16.48157 -1.54398,-16.48157 z"
       id="path1264"
       inkscape:connector-curvature="0" />
    <path
       style="color:#000000;font-style:normal;font-variant:normal;font-weight:normal;font-stretch:normal;font-size:medium;line-height:normal;font-family:sans-serif;font-variant-ligatures:normal;font-variant-position:normal;font-variant-caps:normal;font-variant-numeric:normal;font-variant-alternates:normal;font-feature-settings:normal;text-indent:0;text-align:start;text-decoration:none;text-decoration-line:none;text-decoration-style:solid;text-decoration-color:#000000;letter-spacing:normal;word-spacing:normal;text-transform:none;writing-mode:lr-tb;direction:ltr;text-orientation:mixed;dominant-baseline:auto;baseline-shift:baseline;text-anchor:start;white-space:normal;shape-padding:0;clip-rule:nonzero;display:inline;overflow:visible;visibility:visible;opacity:1;isolation:auto;mix-blend-mode:normal;color-interpolation:sRGB;color-interpolation-filters:linearRGB;solid-color:#000000;solid-opacity:1;vector-effect:none;fill:#000000;fill-opacity:1;fill-rule:nonzero;stroke:none;stroke-width:11.41926098;stroke-linecap:butt;stroke-linejoin:miter;stroke-miterlimit:4;stroke-dasharray:none;stroke-dashoffset:0;stroke-opacity:1;color-rendering:auto;image-rendering:auto;shape-rendering:auto;text-rendering:auto;enable-background:accumulate"
       d="m 434.63748,521.74896 c -15.08122,0.56751 -29.23303,4.04812 -41.51782,11.53192 l 5.93956,9.75153 c 27.27894,-16.61816 70.17446,-9.95738 110.22908,5.65882 40.05461,15.6162 77.08802,39.93877 91.29488,53.77372 l 7.96375,-8.17798 C 592.15564,578.3248 554.96359,554.2421 513.44008,538.05321 487.48789,527.93516 459.77286,520.80313 434.63748,521.74896 Z"
       id="path1266"
       inkscape:connector-curvature="0" />
    <path
       style="color:#000000;font-style:normal;font-variant:normal;font-weight:normal;font-stretch:normal;font-size:medium;line-height:normal;font-family:sans-serif;font-variant-ligatures:normal;font-variant-position:normal;font-variant-caps:normal;font-variant-numeric:normal;font-variant-alternates:normal;font-feature-settings:normal;text-indent:0;text-align:start;text-decoration:none;text-decoration-line:none;text-decoration-style:solid;text-decoration-color:#000000;letter-spacing:normal;word-spacing:normal;text-transform:none;writing-mode:lr-tb;direction:ltr;text-orientation:mixed;dominant-baseline:auto;baseline-shift:baseline;text-anchor:start;white-space:normal;shape-padding:0;clip-rule:nonzero;display:inline;overflow:visible;visibility:visible;opacity:1;isolation:auto;mix-blend-mode:normal;color-interpolation:sRGB;color-interpolation-filters:linearRGB;solid-color:#000000;solid-opacity:1;vector-effect:none;fill:#000000;fill-opacity:1;fill-rule:nonzero;stroke:none;stroke-width:11.41926098;stroke-linecap:butt;stroke-linejoin:miter;stroke-miterlimit:4;stroke-dasharray:none;stroke-dashoffset:0;stroke-opacity:1;color-rendering:auto;image-rendering:auto;shape-rendering:auto;text-rendering:auto;enable-background:accumulate"
       d="m 460.68586,611.30042 -5.14171,10.20214 c 0,0 9.90854,4.99402 23.47751,9.01275 13.56897,4.01877 31.00894,7.33284 47.12494,3.28744 l -2.7777,-11.07387 c -12.6658,3.17934 -28.54647,0.55738 -41.10412,-3.16185 -12.55765,-3.71925 -21.57892,-8.26661 -21.57892,-8.26661 z"
       id="path1268"
       inkscape:connector-curvature="0" />
    <path
       style="color:#000000;font-style:normal;font-variant:normal;font-weight:normal;font-stretch:normal;font-size:medium;line-height:normal;font-family:sans-serif;font-variant-ligatures:normal;font-variant-position:normal;font-variant-caps:normal;font-variant-numeric:normal;font-variant-alternates:normal;font-feature-settings:normal;text-indent:0;text-align:start;text-decoration:none;text-decoration-line:none;text-decoration-style:solid;text-decoration-color:#000000;letter-spacing:normal;word-spacing:normal;text-transform:none;writing-mode:lr-tb;direction:ltr;text-orientation:mixed;dominant-baseline:auto;baseline-shift:baseline;text-anchor:start;white-space:normal;shape-padding:0;clip-rule:nonzero;display:inline;overflow:visible;visibility:visible;opacity:1;isolation:auto;mix-blend-mode:normal;color-interpolation:sRGB;color-interpolation-filters:linearRGB;solid-color:#000000;solid-opacity:1;vector-effect:none;fill:#000000;fill-opacity:1;fill-rule:nonzero;stroke:none;stroke-width:11.41926098;stroke-linecap:butt;stroke-linejoin:miter;stroke-miterlimit:4;stroke-dasharray:none;stroke-dashoffset:0;stroke-opacity:1;color-rendering:auto;image-rendering:auto;shape-rendering:auto;text-rendering:auto;enable-background:accumulate"
       d="m 510.89139,682.78196 c -4.55624,2.52272 -14.05105,1.65481 -14.05105,1.65481 l -1.82471,11.27334 c 0,0 11.53732,2.53293 21.40901,-2.93283 z"
       id="path1270"
       inkscape:connector-curvature="0" />
    <path
       style="color:#000000;font-style:normal;font-variant:normal;font-weight:normal;font-stretch:normal;font-size:medium;line-height:normal;font-family:sans-serif;font-variant-ligatures:normal;font-variant-position:normal;font-variant-caps:normal;font-variant-numeric:normal;font-variant-alternates:normal;font-feature-settings:normal;text-indent:0;text-align:start;text-decoration:none;text-decoration-line:none;text-decoration-style:solid;text-decoration-color:#000000;letter-spacing:normal;word-spacing:normal;text-transform:none;writing-mode:lr-tb;direction:ltr;text-orientation:mixed;dominant-baseline:auto;baseline-shift:baseline;text-anchor:start;white-space:normal;shape-padding:0;clip-rule:nonzero;display:inline;overflow:visible;visibility:visible;opacity:1;isolation:auto;mix-blend-mode:normal;color-interpolation:sRGB;color-interpolation-filters:linearRGB;solid-color:#000000;solid-opacity:1;vector-effect:none;fill:#000000;fill-opacity:1;fill-rule:nonzero;stroke:none;stroke-width:24.16413498;stroke-linecap:butt;stroke-linejoin:miter;stroke-miterlimit:4;stroke-dasharray:none;stroke-dashoffset:0;stroke-opacity:1;color-rendering:auto;image-rendering:auto;shape-rendering:auto;text-rendering:auto;enable-background:accumulate"
       d="m 440.94642,-217.37906 c -93.10726,-0.0213 -157.07163,37.36289 -193.86311,93.2895 -36.79754,55.935835 -47.06325,128.9741849 -39.02084,201.272805 8.04241,72.298575 34.43005,144.175265 73.38755,198.761035 38.9575,54.58572 91.40953,92.61801 151.06725,92.26261 59.6296,-0.35516 111.65284,-38.78548 150.38021,-93.55544 38.72738,-54.76997 65.06189,-126.61984 73.80863,-198.738875 8.74674,-72.1190201 -0.008,-144.76802 -33.98995,-200.482315 -33.97517,-55.70453 -94.17955,-93.11843 -181.72542,-92.80932 z m 0.0371,24.16455 h 0.0223 0.0295 c 80.86539,-0.29767 131.01994,31.99309 161.04774,81.2257 30.02785,49.232615 38.91091,116.7697749 30.63603,184.998095 -8.27486,68.228325 -33.62519,136.883195 -69.55341,187.694545 -35.92825,50.81134 -81.52514,83.04504 -130.78853,83.33851 -49.2353,0.29314 -95.15618,-31.55552 -131.25397,-82.13435 -36.09801,-50.57883 -61.4536,-119.15734 -69.04391,-187.391645 -7.5903,-68.2343101 2.61687,-135.80258 35.19411,-185.323155 32.57724,-49.52056 86.87499,-82.43907 173.70998,-82.4077 z"
       id="path10-9-5"
       inkscape:connector-curvature="0" />
    <path
       style="color:#000000;font-style:normal;font-variant:normal;font-weight:normal;font-stretch:normal;font-size:medium;line-height:normal;font-family:sans-serif;font-variant-ligatures:normal;font-variant-position:normal;font-variant-caps:normal;font-variant-numeric:normal;font-variant-alternates:normal;font-feature-settings:normal;text-indent:0;text-align:start;text-decoration:none;text-decoration-line:none;text-decoration-style:solid;text-decoration-color:#000000;letter-spacing:normal;word-spacing:normal;text-transform:none;writing-mode:lr-tb;direction:ltr;text-orientation:mixed;dominant-baseline:auto;baseline-shift:baseline;text-anchor:start;white-space:normal;shape-padding:0;clip-rule:nonzero;display:inline;overflow:visible;visibility:visible;opacity:1;isolation:auto;mix-blend-mode:normal;color-interpolation:sRGB;color-interpolation-filters:linearRGB;solid-color:#000000;solid-opacity:1;vector-effect:none;fill:#000000;fill-opacity:1;fill-rule:nonzero;stroke:none;stroke-width:12.08206749;stroke-linecap:butt;stroke-linejoin:miter;stroke-miterlimit:4;stroke-dasharray:none;stroke-dashoffset:0;stroke-opacity:1;color-rendering:auto;image-rendering:auto;shape-rendering:auto;text-rendering:auto;enable-background:accumulate"
       d="m 428.04043,73.644615 c 0,0 -1.35835,13.4516 -3.61249,27.577595 -1.12707,7.063 -2.486,14.2897 -3.94493,19.90934 -0.72947,2.8098 -1.495,5.22131 -2.17932,6.88515 -0.68431,1.66384 -1.56558,2.53838 -0.93083,2.0094 -1.33696,1.11415 -2.75366,2.04625 -3.49429,5.00874 -0.3703,1.48123 -0.15508,3.68206 0.79046,5.22298 0.94556,1.54091 2.17314,2.29592 3.10276,2.73339 3.7185,1.74986 5.62752,1.08302 8.15581,0.90865 5.05661,-0.34874 10.5346,-1.47752 10.5346,-1.47752 l -2.37139,-11.84956 c 0,0 -2.58327,0.32717 -4.14439,0.58362 0.80065,-2.14723 1.55689,-4.3919 2.23102,-6.9886 1.63039,-6.28005 3.02002,-13.76939 4.18133,-21.04702 2.32264,-14.555255 3.70854,-28.257205 3.70854,-28.257205 z"
       id="path971-8"
       inkscape:connector-curvature="0" />
    <path
       style="color:#000000;font-style:normal;font-variant:normal;font-weight:normal;font-stretch:normal;font-size:medium;line-height:normal;font-family:sans-serif;font-variant-ligatures:normal;font-variant-position:normal;font-variant-caps:normal;font-variant-numeric:normal;font-variant-alternates:normal;font-feature-settings:normal;text-indent:0;text-align:start;text-decoration:none;text-decoration-line:none;text-decoration-style:solid;text-decoration-color:#000000;letter-spacing:normal;word-spacing:normal;text-transform:none;writing-mode:lr-tb;direction:ltr;text-orientation:mixed;dominant-baseline:auto;baseline-shift:baseline;text-anchor:start;white-space:normal;shape-padding:0;clip-rule:nonzero;display:inline;overflow:visible;visibility:visible;opacity:1;isolation:auto;mix-blend-mode:normal;color-interpolation:sRGB;color-interpolation-filters:linearRGB;solid-color:#000000;solid-opacity:1;vector-effect:none;fill:#000000;fill-opacity:1;fill-rule:nonzero;stroke:none;stroke-width:12.10399532;stroke-linecap:butt;stroke-linejoin:miter;stroke-miterlimit:4;stroke-dasharray:none;stroke-dashoffset:0;stroke-opacity:1;color-rendering:auto;image-rendering:auto;shape-rendering:auto;text-rendering:auto;enable-background:accumulate"
       d="m 352.11436,-25.254955 c -12.01098,0.11716 -21.72208,4.94635 -27.97814,12.17237 -6.2746,7.2473299 -9.19457,16.5998299 -9.10988,25.81018 0.0844,9.21036 3.16869,18.45338 9.52012,25.48131 6.33237,7.00675 16.05306,11.49068 27.81753,11.12436 11.53833,-0.0299 20.92535,-4.92779 26.88574,-12.16118 5.97861,-7.25577 8.72566,-16.54804 8.66635,-25.71044 -0.0599,-9.1624901 -2.92238,-18.3676601 -8.9659,-25.44437 -6.02904,-7.06023 -15.4576,-11.66781 -26.83582,-11.27223 z m 0.36963,12.08915 c 8.11659,-0.29857 13.41224,2.53515 17.26214,7.0435599 3.85005,4.50831 6.02293,11.0179 6.06596,17.6614301 0.0421,6.64353 -2.03975,13.24646 -5.90303,17.93514 -3.86358,4.68851 -9.29405,7.76614 -17.64667,7.76614 h -0.10191 l -0.10161,0.009 c -8.68742,0.29148 -14.45262,-2.63715 -18.53206,-7.15105 -4.07919,-4.51406 -6.33644,-10.92763 -6.39648,-17.47668 -0.0591,-6.5491301 2.0725,-13.0592801 6.15625,-17.7761501 4.08397,-4.71683 10.00206,-7.9359999 19.01991,-8.0027699 h 0.0889 z"
       id="path87-11-5-68-0"
       inkscape:connector-curvature="0" />
    <path
       style="color:#000000;font-style:normal;font-variant:normal;font-weight:normal;font-stretch:normal;font-size:medium;line-height:normal;font-family:sans-serif;font-variant-ligatures:normal;font-variant-position:normal;font-variant-caps:normal;font-variant-numeric:normal;font-variant-alternates:normal;font-feature-settings:normal;text-indent:0;text-align:start;text-decoration:none;text-decoration-line:none;text-decoration-style:solid;text-decoration-color:#000000;letter-spacing:normal;word-spacing:normal;text-transform:none;writing-mode:lr-tb;direction:ltr;text-orientation:mixed;dominant-baseline:auto;baseline-shift:baseline;text-anchor:start;white-space:normal;shape-padding:0;clip-rule:nonzero;display:inline;overflow:visible;visibility:visible;opacity:1;isolation:auto;mix-blend-mode:normal;color-interpolation:sRGB;color-interpolation-filters:linearRGB;solid-color:#000000;solid-opacity:1;vector-effect:none;fill:#000000;fill-opacity:1;fill-rule:nonzero;stroke:none;stroke-width:15.02014828;stroke-linecap:butt;stroke-linejoin:miter;stroke-miterlimit:4;stroke-dasharray:none;stroke-dashoffset:0;stroke-opacity:1;color-rendering:auto;image-rendering:auto;shape-rendering:auto;text-rendering:auto;enable-background:accumulate"
       d="m 291.92738,-64.960055 -6.84375,13.36995 c 0,0 30.29469,15.50959 60.88178,31.024 15.29351,7.75731 30.65662,15.5140599 42.36651,21.3450499 5.85496,2.91549 10.79216,5.34734 14.38447,7.07305 1.79635,0.86301 3.24834,1.54687 4.37283,2.05151 0.56241,0.2524101 1.03212,0.4578001 1.51381,0.6487701 0.24082,0.0955 0.47466,0.18523 0.82964,0.2994 0.3553,0.11425 0.3241,0.40658 2.4914,0.40658 V -3.7621151 c 2.09656,0 1.93742,0.26148 2.10693,0.31608 0.16984,0.0542 0.16246,0.0566 0.10752,0.0349 -0.11026,-0.0437 -0.45034,-0.18813 -0.90003,-0.38997 -0.90013,-0.40385 -2.28423,-1.05214 -4.01812,-1.88517 -3.46825,-1.66614 -8.37019,-4.08156 -14.19252,-6.9806699 -11.64455,-5.79852 -26.99195,-13.54643 -42.26836,-21.29508 -30.55373,-15.49754 -60.83211,-30.99823 -60.83211,-30.99823 z"
       id="path1039-49-3"
       inkscape:connector-curvature="0" />
    <path
       style="color:#000000;font-style:normal;font-variant:normal;font-weight:normal;font-stretch:normal;font-size:medium;line-height:normal;font-family:sans-serif;font-variant-ligatures:normal;font-variant-position:normal;font-variant-caps:normal;font-variant-numeric:normal;font-variant-alternates:normal;font-feature-settings:normal;text-indent:0;text-align:start;text-decoration:none;text-decoration-line:none;text-decoration-style:solid;text-decoration-color:#000000;letter-spacing:normal;word-spacing:normal;text-transform:none;writing-mode:lr-tb;direction:ltr;text-orientation:mixed;dominant-baseline:auto;baseline-shift:baseline;text-anchor:start;white-space:normal;shape-padding:0;clip-rule:nonzero;display:inline;overflow:visible;visibility:visible;opacity:1;isolation:auto;mix-blend-mode:normal;color-interpolation:sRGB;color-interpolation-filters:linearRGB;solid-color:#000000;solid-opacity:1;vector-effect:none;fill:#000000;fill-opacity:1;fill-rule:nonzero;stroke:none;stroke-width:12.016119;stroke-linecap:butt;stroke-linejoin:miter;stroke-miterlimit:4;stroke-dasharray:none;stroke-dashoffset:0;stroke-opacity:1;color-rendering:auto;image-rendering:auto;shape-rendering:auto;text-rendering:auto;enable-background:accumulate"
       d="m 354.82567,208.22747 v 12.01526 h 147.17469 v -12.01526 z"
       id="path1681-8-1"
       inkscape:connector-curvature="0" />
    <path
       style="color:#000000;font-style:normal;font-variant:normal;font-weight:normal;font-stretch:normal;font-size:medium;line-height:normal;font-family:sans-serif;font-variant-ligatures:normal;font-variant-position:normal;font-variant-caps:normal;font-variant-numeric:normal;font-variant-alternates:normal;font-feature-settings:normal;text-indent:0;text-align:start;text-decoration:none;text-decoration-line:none;text-decoration-style:solid;text-decoration-color:#000000;letter-spacing:normal;word-spacing:normal;text-transform:none;writing-mode:lr-tb;direction:ltr;text-orientation:mixed;dominant-baseline:auto;baseline-shift:baseline;text-anchor:start;white-space:normal;shape-padding:0;clip-rule:nonzero;display:inline;overflow:visible;visibility:visible;opacity:1;isolation:auto;mix-blend-mode:normal;color-interpolation:sRGB;color-interpolation-filters:linearRGB;solid-color:#000000;solid-opacity:1;vector-effect:none;fill:#000000;fill-opacity:1;fill-rule:nonzero;stroke:none;stroke-width:12.10399532;stroke-linecap:butt;stroke-linejoin:miter;stroke-miterlimit:4;stroke-dasharray:none;stroke-dashoffset:0;stroke-opacity:1;color-rendering:auto;image-rendering:auto;shape-rendering:auto;text-rendering:auto;enable-background:accumulate"
       d="m 513.27414,-25.254875 c -11.3737,-0.39266 -20.79893,4.21402 -26.8265,11.27224 -6.04352,7.0766199 -8.90636,16.2817099 -8.9659,25.44428 -0.0591,9.16248 2.68781,18.45467 8.66642,25.71044 5.96064,7.2338 15.34838,12.13159 26.88752,12.16118 11.7644,0.36632 21.48336,-4.11761 27.81567,-11.12436 6.35143,-7.02785 9.43578,-16.269 9.52013,-25.47944 0.0841,-9.2103701 -2.83528,-18.5646301 -9.1098,-25.81205 -6.25761,-7.2279 -15.97204,-12.05772 -27.98754,-12.17229 z m -0.36032,12.09094 0.0889,0.009 0.089,0.009 c 9.0181,0.0665 14.93644,3.2840999 19.01985,8.0008899 4.08397,4.71679 6.21659,11.22881 6.15655,17.7779401 -0.0591,6.54904 -2.31737,12.96085 -6.39671,17.47483 -4.07944,4.51391 -9.84416,7.44253 -18.53191,7.15066 l -0.10181,-0.009 h -0.10159 c -8.35263,0 -13.78319,-3.07576 -17.64643,-7.76435 -3.86352,-4.6886 -5.94622,-11.29154 -5.90343,-17.93498 0.0437,-6.6436101 2.21598,-13.1550701 6.06613,-17.6633801 3.8498,-4.5084799 9.14553,-7.3403499 17.26197,-7.0416899 z"
       id="path87-11-5-3-7-4"
       inkscape:connector-curvature="0" />
    <path
       style="color:#000000;font-style:normal;font-variant:normal;font-weight:normal;font-stretch:normal;font-size:medium;line-height:normal;font-family:sans-serif;font-variant-ligatures:normal;font-variant-position:normal;font-variant-caps:normal;font-variant-numeric:normal;font-variant-alternates:normal;font-feature-settings:normal;text-indent:0;text-align:start;text-decoration:none;text-decoration-line:none;text-decoration-style:solid;text-decoration-color:#000000;letter-spacing:normal;word-spacing:normal;text-transform:none;writing-mode:lr-tb;direction:ltr;text-orientation:mixed;dominant-baseline:auto;baseline-shift:baseline;text-anchor:start;white-space:normal;shape-padding:0;clip-rule:nonzero;display:inline;overflow:visible;visibility:visible;opacity:1;isolation:auto;mix-blend-mode:normal;color-interpolation:sRGB;color-interpolation-filters:linearRGB;solid-color:#000000;solid-opacity:1;vector-effect:none;fill:#000000;fill-opacity:1;fill-rule:nonzero;stroke:none;stroke-width:15.02014828;stroke-linecap:butt;stroke-linejoin:miter;stroke-miterlimit:4;stroke-dasharray:none;stroke-dashoffset:0;stroke-opacity:1;color-rendering:auto;image-rendering:auto;shape-rendering:auto;text-rendering:auto;enable-background:accumulate"
       d="m 573.47028,-64.959895 c 0,0 -30.27824,15.50257 -60.83172,31.00003 -15.27664,7.74863 -30.62404,15.49647 -42.26861,21.29497 -5.82208,2.8992999 -10.72402,5.3127399 -14.19244,6.9788899 -1.73395,0.83297 -3.11806,1.48319 -4.0181,1.88695 -0.44978,0.20192 -0.7896,0.34437 -0.89981,0.3881 -0.055,0.0219 -0.0624,0.0195 0.1072,-0.0348 0.16951,-0.0542 0.0106,-0.316 2.10694,-0.316 V 11.258625 c 2.1673,0 2.13609,-0.29065 2.49116,-0.40481 0.3553,-0.11418 0.59093,-0.20581 0.83165,-0.30126 0.48171,-0.19097 0.94971,-0.3963 1.51203,-0.6487101 1.12449,-0.50471 2.57648,-1.18678 4.37285,-2.04964 3.59239,-1.72578 8.52983,-4.15755 14.38448,-7.07312 11.70995,-5.831 27.07508,-13.5896099 42.36852,-21.3467699 30.5871,-15.51446 60.88007,-31.02408 60.88007,-31.02408 z"
       id="path1039-7-0-9"
       inkscape:connector-curvature="0" />
    <path
       style="font-style:normal;font-weight:normal;font-size:233.33332825px;line-height:1.25;font-family:sans-serif;letter-spacing:0px;word-spacing:0px;fill:#000000;fill-opacity:1;stroke:none"
       d="m 83.169919,856.16269 c -12.456589,0 -23.810539,1.93685 -34.064449,5.81055 -10.17795,3.8737 -18.87608,9.49371 -26.0918,16.86133 C 15.5701,886.43005 9.87348,895.73518 5.92383,906.74863 1.97418,917.76209 0,930.25731 0,944.23301 c 0,14.73524 2.05078,27.68424 6.15235,38.84961 4.10156,11.08941 9.79817,20.24328 17.08984,27.45898 7.44358,7.3677 16.17904,12.7971 26.20508,16.2911 10.10199,3.4179 21.30469,5.1269 33.609369,5.1269 6.53212,0 12.49393,-0.5304 17.886721,-1.5937 5.46875,-0.9874 10.52105,-2.2034 15.1543,-3.6465 5.46875,-1.747 9.87283,-3.4187 13.21484,-5.0138 3.41797,-1.595 7.21702,-3.3039 11.39453,-5.1268 v -26.43173 h -1.5957 c -8.27908,7.44357 -17.1658,13.02633 -26.66016,16.74813 -9.49435,3.7217 -19.671651,5.5819 -30.533201,5.5819 -7.899299,0 -15.418839,-1.3279 -22.558589,-3.9862 -7.0638,-2.7345 -13.25543,-6.9126 -18.57227,-12.53328 -5.08897,-5.3928 -9.26519,-12.38 -12.53125,-20.96289 -3.1901,-8.5829 -4.78515,-18.83681 -4.78515,-30.76172 0,-11.39323 1.44184,-21.41927 4.32812,-30.07813 2.96224,-8.73481 7.0638,-15.95182 12.30469,-21.64844 5.39279,-5.84852 11.50781,-10.13867 18.34375,-12.87304 6.91189,-2.81033 14.65929,-4.2168 23.242189,-4.2168 10.48177,0 20.317271,1.78559 29.507811,5.35547 9.19054,3.56988 18.45833,9.26649 27.80078,17.08984 h 1.70898 v -26.77344 c -11.08941,-5.5447 -21.19205,-9.4184 -30.30664,-11.62109 -9.03863,-2.20269 -18.115881,-3.30469 -27.230471,-3.30469 z m 415.625001,41.92774 c -18.53298,0 -33.49544,6.11306 -44.88867,18.3418 -11.31727,12.22873 -16.97656,28.74891 -16.97656,49.56054 0,21.0395 5.92448,37.29443 17.77344,48.76363 11.84896,11.3933 28.33181,17.0899 49.44726,17.0899 8.27908,0 16.17774,-1.0253 23.69727,-3.0761 7.51953,-2.0508 14.8878,-4.5946 22.10351,-7.6329 v -23.35742 h -1.13867 c -3.72179,3.34202 -9.98806,6.75992 -18.79883,10.25392 -8.7348,3.4179 -17.43294,5.1269 -26.09179,5.1269 -6.53212,0 -12.53125,-0.9114 -18,-2.7344 -5.3928,-1.8228 -10.06402,-4.5572 -14.01367,-8.2031 -4.10157,-3.72175 -7.33095,-8.46762 -9.68555,-14.24019 -2.3546,-5.84853 -3.53125,-12.68447 -3.53125,-20.50782 h 93.76562 V 955.8541 c 0,-18.45703 -4.67122,-32.69857 -14.01367,-42.72461 -9.26649,-10.02604 -22.48264,-15.03906 -39.64844,-15.03906 z m 250.08204,0 c -7.51954,0 -14.84853,1.55577 -21.98829,4.66992 -7.13975,3.11415 -14.0523,7.44358 -20.73632,12.98828 v -14.12695 h -21.41993 v 127.26182 h 21.41993 v -95.01963 c 5.84852,-4.48134 11.96354,-8.1645 18.34375,-11.05079 6.3802,-2.88628 12.49327,-4.33007 18.34179,-4.33007 5.69662,0 10.33052,0.79752 13.90039,2.39257 3.56988,1.5191 6.30426,3.87435 8.20313,7.06446 1.82292,2.88628 3.07617,6.91124 3.75976,12.07617 0.6836,5.08897 1.02539,10.55773 1.02539,16.40625 v 72.46104 h 21.41993 v -82.59971 c 0,-15.57075 -3.60851,-27.49631 -10.82422,-35.77539 -7.21571,-8.27908 -17.69748,-12.41797 -31.44531,-12.41797 z m -534.22852,0.45508 c -7.67144,0 -15.45616,0.68359 -23.35547,2.05078 -7.8993,1.36718 -13.93772,2.62044 -18.11523,3.75976 v 21.76172 h 1.13867 c 7.36762,-2.81033 14.50803,-4.93772 21.41992,-6.38086 6.91189,-1.51909 13.17817,-2.27929 18.79883,-2.27929 4.63325,0 9.0766,0.30447 13.33008,0.91211 4.25347,0.60763 7.8993,1.78428 10.9375,3.53124 3.1901,1.82292 5.62001,4.32943 7.29101,7.51954 1.74696,3.1901 2.6211,7.21701 2.6211,12.07812 v 3.30274 c -12.4566,0.60763 -24.11697,1.51909 -34.97852,2.73437 -10.86154,1.21528 -20.16471,3.5332 -27.91211,6.95117 -7.67144,3.41797 -13.59592,8.12652 -17.77344,14.12696 -4.10156,5.92447 -6.15234,13.7092 -6.15234,23.35546 0,11.77297 3.98763,21.45727 11.96289,29.05277 7.97526,7.5955 17.69683,11.3946 29.16602,11.3946 6.22829,0 11.65972,-0.609 16.29297,-1.8244 4.63324,-1.1392 8.7348,-2.581 12.30468,-4.328 3.0382,-1.3672 6.1517,-3.1901 9.3418,-5.4687 3.26606,-2.3547 5.84917,-4.1777 7.74805,-5.4689 v 13.5568 h 21.30468 v -86.35948 c 0,-8.20312 -1.25325,-15.07834 -3.75976,-20.62305 -2.50651,-5.5447 -6.15235,-10.06271 -10.9375,-13.55664 -4.86111,-3.56987 -10.63433,-6.07638 -17.31836,-7.51953 -6.60807,-1.51909 -14.3928,-2.27929 -23.35547,-2.27929 z m 661.26367,0 c -7.67144,0 -15.45811,0.68359 -23.35742,2.05078 -7.89931,1.36718 -13.93772,2.62044 -18.11523,3.75976 v 21.76172 h 1.14062 c 7.36762,-2.81033 14.50608,-4.93772 21.41797,-6.38086 6.91189,-1.51909 13.17817,-2.27929 18.79883,-2.27929 4.63324,0 9.0766,0.30447 13.33008,0.91211 4.25347,0.60763 7.8993,1.78428 10.9375,3.53124 3.1901,1.82292 5.62196,4.32943 7.29296,7.51954 1.74697,3.1901 2.61914,7.21701 2.61914,12.07812 v 3.30274 c -12.45659,0.60763 -24.11501,1.51909 -34.97656,2.73437 -10.86154,1.21528 -20.16666,3.5332 -27.91406,6.95117 -7.67144,3.41797 -13.59592,8.12652 -17.77344,14.12696 -4.10156,5.92447 -6.15234,13.7092 -6.15234,23.35546 0,11.77297 3.98763,21.45727 11.96289,29.05277 7.97526,7.5955 17.69878,11.3946 29.16797,11.3946 6.2283,0 11.65777,-0.609 16.29101,-1.8244 4.63325,-1.1392 8.73481,-2.581 12.30469,-4.328 3.0382,-1.3672 6.15365,-3.1901 9.34375,-5.4687 3.26606,-2.3547 5.84722,-4.1777 7.74609,-5.4689 v 13.5568 h 21.30665 v -86.35948 c 0,-8.20312 -1.25326,-15.07834 -3.75977,-20.62305 -2.50651,-5.5447 -6.15234,-10.06271 -10.9375,-13.55664 -4.86111,-3.56987 -10.63433,-6.07638 -17.31836,-7.51953 -6.60807,-1.51909 -14.39279,-2.27929 -23.35547,-2.27929 z m -580.37109,3.07617 51.1543,127.26182 h 21.5332 L 419.72656,901.62168 H 397.28125 L 358.20313,1002.9069 318.78321,901.62168 Z m 289.38672,0 v 127.26182 h 21.41992 v -90.34776 c 5.69661,-4.63325 11.62109,-8.39301 17.77344,-11.2793 6.15234,-2.96224 12.53255,-4.44336 19.14062,-4.44336 4.10156,0 7.63346,0.19054 10.5957,0.57032 3.0382,0.30382 6.1517,0.8342 9.3418,1.59375 h 1.14063 v -21.98828 c -3.34202,-0.53169 -5.84853,-0.87349 -7.51954,-1.0254 -1.671,-0.22786 -4.36805,-0.34179 -8.08984,-0.34179 -6.75998,0 -13.40538,1.44379 -19.9375,4.33008 -6.45616,2.81033 -13.93837,7.63281 -22.44531,14.46875 v -18.79883 z m -87.27149,14.12695 c 11.39323,0 19.86155,3.07617 25.40625,9.22852 5.62066,6.15234 8.46897,14.85047 8.54492,26.09179 h -72.91601 c 0.91146,-10.02604 4.74783,-18.4197 11.50781,-25.17968 6.83594,-6.75999 15.98785,-10.14063 27.45703,-10.14063 z m -248.9414,46.3711 v 35.43359 c -5.31684,4.10148 -11.09006,7.63348 -17.31836,10.59568 -6.2283,2.8863 -13.10157,4.3282 -20.6211,4.3282 -9.03863,0 -15.76063,-1.8229 -20.16601,-5.4687 C 186.204,1003.2866 184,997.78053 184,990.48887 c 0,-6.45617 1.89953,-11.50651 5.69727,-15.15235 3.79774,-3.72179 8.77344,-6.45616 14.92578,-8.20312 5.16493,-1.44315 12.15213,-2.54514 20.96289,-3.30469 8.88672,-0.75955 16.59679,-1.32921 23.12891,-1.70898 z m 661.26171,0 v 35.43359 c -5.31684,4.10148 -11.0881,7.63348 -17.3164,10.59568 -6.2283,2.8863 -13.10352,4.3282 -20.62305,4.3282 -9.03863,0 -15.76063,-1.8229 -20.16601,-5.4687 -4.40539,-3.7219 -6.60743,-9.22797 -6.60743,-16.51963 0,-6.45617 1.89953,-11.50651 5.69727,-15.15235 3.79774,-3.72179 8.77148,-6.45616 14.92383,-8.20312 5.16493,-1.44315 12.15408,-2.54514 20.96484,-3.30469 8.88672,-0.75955 16.59484,-1.32921 23.12695,-1.70898 z"
       id="text5636"
       inkscape:connector-curvature="0" />
  </g>
</svg>
