<?xml version="1.0" encoding="UTF-8" standalone="no"?>
<!-- Created with Inkscape (http://www.inkscape.org/) -->

<svg
   xmlns:dc="http://purl.org/dc/elements/1.1/"
   xmlns:cc="http://creativecommons.org/ns#"
   xmlns:rdf="http://www.w3.org/1999/02/22-rdf-syntax-ns#"
   xmlns:svg="http://www.w3.org/2000/svg"
   xmlns="http://www.w3.org/2000/svg"
   xmlns:sodipodi="http://sodipodi.sourceforge.net/DTD/sodipodi-0.dtd"
   xmlns:inkscape="http://www.inkscape.org/namespaces/inkscape"
   width="1000"
   height="1250"
   viewBox="0 0 1000 1250"
   version="1.1"
   id="svg8"
   inkscape:version="0.92.4 (5da689c313, 2019-01-14)"
   sodipodi:docname="Diarreia.svg">
  <defs
     id="defs2" />
  <sodipodi:namedview
     id="base"
     pagecolor="#ffffff"
     bordercolor="#666666"
     borderopacity="1.0"
     inkscape:pageopacity="0.0"
     inkscape:pageshadow="2"
     inkscape:zoom="0.70710678"
     inkscape:cx="536.84179"
     inkscape:cy="744.49884"
     inkscape:document-units="px"
     inkscape:current-layer="layer1"
     showgrid="false"
     units="px"
     inkscape:window-width="681"
     inkscape:window-height="706"
     inkscape:window-x="-7"
     inkscape:window-y="0"
     inkscape:window-maximized="0" />
  <metadata
     id="metadata5">
    <rdf:RDF>
      <cc:Work
         rdf:about="">
        <dc:format>image/svg+xml</dc:format>
        <dc:type
           rdf:resource="http://purl.org/dc/dcmitype/StillImage" />
        <dc:title></dc:title>
      </cc:Work>
    </rdf:RDF>
  </metadata>
  <g
     inkscape:label="Camada 1"
     inkscape:groupmode="layer"
     id="layer1"
     transform="translate(0,217.58335)">
    <path
       style="color:#000000;font-style:normal;font-variant:normal;font-weight:normal;font-stretch:normal;font-size:medium;line-height:normal;font-family:sans-serif;font-variant-ligatures:normal;font-variant-position:normal;font-variant-caps:normal;font-variant-numeric:normal;font-variant-alternates:normal;font-feature-settings:normal;text-indent:0;text-align:start;text-decoration:none;text-decoration-line:none;text-decoration-style:solid;text-decoration-color:#000000;letter-spacing:normal;word-spacing:normal;text-transform:none;writing-mode:lr-tb;direction:ltr;text-orientation:mixed;dominant-baseline:auto;baseline-shift:baseline;text-anchor:start;white-space:normal;shape-padding:0;clip-rule:nonzero;display:inline;overflow:visible;visibility:visible;opacity:1;isolation:auto;mix-blend-mode:normal;color-interpolation:sRGB;color-interpolation-filters:linearRGB;solid-color:#000000;solid-opacity:1;vector-effect:none;fill:#000000;fill-opacity:1;fill-rule:nonzero;stroke:none;stroke-width:21.47336388;stroke-linecap:butt;stroke-linejoin:miter;stroke-miterlimit:4;stroke-dasharray:none;stroke-dashoffset:0;stroke-opacity:1;color-rendering:auto;image-rendering:auto;shape-rendering:auto;text-rendering:auto;enable-background:accumulate"
       d="m 299.93555,-217.24701 c -82.74972,-0.024 -139.59391,33.20154 -172.29102,82.9043 C 94.944534,-84.635574 85.819933,-19.731174 92.966797,44.516656 100.11366,108.7645 123.56219,172.63821 158.18164,221.14557 c 34.61945,48.50736 81.22953,82.29825 134.24414,81.98242 52.98962,-0.31567 99.21984,-34.46173 133.63477,-83.13281 34.41492,-48.67108 57.81903,-112.51917 65.59179,-176.607424 7.77277,-64.08825 -0.0118,-128.65186 -30.20898,-178.162106 -30.19437,-49.50561 -83.70023,-82.75282 -161.50781,-82.47266 z m 0.0156,21.47461 h 0.0215 0.0215 c 71.86073,-0.26454 116.43111,28.42935 143.11524,72.17969 26.68412,43.750336 34.57999,103.765686 27.22656,164.396476 -7.35344,60.630804 -29.8811,121.641674 -61.8086,166.794934 -31.9275,45.15325 -72.45079,73.79584 -116.22851,74.05664 -43.75276,0.26064 -84.56049,-28.03775 -116.63867,-72.98438 C 143.58199,163.72433 121.0537,102.77972 114.3086,42.143616 c -6.7451,-60.63611 2.32575,-120.6793 31.27539,-164.685546 28.94965,-44.00625 77.20159,-73.25829 154.36719,-73.23047 z"
       id="path10-9-9-0-1"
       inkscape:connector-curvature="0" />
    <path
       style="color:#000000;font-style:normal;font-variant:normal;font-weight:normal;font-stretch:normal;font-size:medium;line-height:normal;font-family:sans-serif;font-variant-ligatures:normal;font-variant-position:normal;font-variant-caps:normal;font-variant-numeric:normal;font-variant-alternates:normal;font-feature-settings:normal;text-indent:0;text-align:start;text-decoration:none;text-decoration-line:none;text-decoration-style:solid;text-decoration-color:#000000;letter-spacing:normal;word-spacing:normal;text-transform:none;writing-mode:lr-tb;direction:ltr;text-orientation:mixed;dominant-baseline:auto;baseline-shift:baseline;text-anchor:start;white-space:normal;shape-padding:0;clip-rule:nonzero;display:inline;overflow:visible;visibility:visible;opacity:1;isolation:auto;mix-blend-mode:normal;color-interpolation:sRGB;color-interpolation-filters:linearRGB;solid-color:#000000;solid-opacity:1;vector-effect:none;fill:#000000;fill-opacity:1;fill-rule:nonzero;stroke:none;stroke-width:10.73668194;stroke-linecap:butt;stroke-linejoin:miter;stroke-miterlimit:4;stroke-dasharray:none;stroke-dashoffset:0;stroke-opacity:1;color-rendering:auto;image-rendering:auto;shape-rendering:auto;text-rendering:auto;enable-background:accumulate"
       d="m 288.44922,41.370176 c 0,0 -1.20976,11.95097 -3.21289,24.50391 -1.00157,6.27647 -2.20743,12.70344 -3.50391,17.69726 -0.64824,2.49691 -1.32743,4.6406 -1.93554,6.11914 -0.60812,1.47855 -1.39416,2.25131 -0.83008,1.78125 -1.18809,0.99007 -2.44537,1.81656 -3.10352,4.44922 -0.32907,1.31633 -0.14106,3.27718 0.69922,4.646494 0.84028,1.3693 1.93171,2.03899 2.75781,2.42773 3.3044,1.55497 5.00129,0.95769 7.24805,0.80274 4.49352,-0.30991 9.35937,-1.31055 9.35937,-1.31055 l -2.10546,-10.529304 c 0,0 -2.29398,0.29168 -3.68165,0.51953 0.71179,-1.9086 1.38511,-3.90071 1.98438,-6.20898 1.44885,-5.58072 2.68089,-12.23593 3.71289,-18.70313 2.06401,-12.9344 3.29492,-25.11523 3.29492,-25.11523 z"
       id="path971-3-7-7"
       inkscape:connector-curvature="0" />
    <path
       style="color:#000000;font-style:normal;font-variant:normal;font-weight:normal;font-stretch:normal;font-size:medium;line-height:normal;font-family:sans-serif;font-variant-ligatures:normal;font-variant-position:normal;font-variant-caps:normal;font-variant-numeric:normal;font-variant-alternates:normal;font-feature-settings:normal;text-indent:0;text-align:start;text-decoration:none;text-decoration-line:none;text-decoration-style:solid;text-decoration-color:#000000;letter-spacing:normal;word-spacing:normal;text-transform:none;writing-mode:lr-tb;direction:ltr;text-orientation:mixed;dominant-baseline:auto;baseline-shift:baseline;text-anchor:start;white-space:normal;shape-padding:0;clip-rule:nonzero;display:inline;overflow:visible;visibility:visible;opacity:1;isolation:auto;mix-blend-mode:normal;color-interpolation:sRGB;color-interpolation-filters:linearRGB;solid-color:#000000;solid-opacity:1;vector-effect:none;fill:#000000;fill-opacity:1;fill-rule:nonzero;stroke:none;stroke-width:9.75135612;stroke-linecap:butt;stroke-linejoin:miter;stroke-miterlimit:4;stroke-dasharray:none;stroke-dashoffset:0;stroke-opacity:1;color-rendering:auto;image-rendering:auto;shape-rendering:auto;text-rendering:auto;enable-background:accumulate"
       d="m 149,276.2569 c -0.91213,-0.0412 -1.79616,0.015 -2.63281,0.16406 -6.69323,1.19285 -9.9043,6.71289 -9.9043,6.71289 l -1.01953,1.54492 0.26172,1.83008 c 2.0144,14.101 -4.79556,32.92647 -12.55469,47.88477 -7.48346,14.42686 -15.14452,24.71925 -15.70312,25.4668 -1.35278,0.90958 -2.45282,1.93946 -3.6543,3.24414 -1.63586,1.77637 -3.40192,3.96273 -5.291017,6.45507 -3.778185,4.98468 -8.022655,11.18186 -12.037109,17.26563 -8.028909,12.16754 -15.125,23.88476 -15.125,23.88476 l -0.283203,0.4668 -0.171875,0.51758 C 64.928449,429.5633 47.419424,445.25983 31.099609,456.13971 14.779795,467.01959 0.08789062,473.09479 0.08789062,473.09479 l 3.72265628,9.01367 c 0,0 15.5208111,-6.40449 32.6972651,-17.85547 16.967809,-11.31187 35.934042,-27.55733 43.314454,-48.71289 0.130844,-0.21591 6.957572,-11.48918 14.78125,-23.3457 3.949121,-5.98476 8.120814,-12.06169 11.669924,-16.74414 1.77455,-2.34123 3.39995,-4.33785 4.6914,-5.74024 1.29146,-1.40238 2.56018,-2.19248 2.0293,-1.95117 l 1.12891,-0.51367 0.74804,-0.99023 c 0,0 8.76752,-11.62452 16.93555,-27.3711 2.15045,-4.14569 4.25374,-8.60171 6.1875,-13.21679 l -0.14258,1.71484 c 0,0 1.57981,0.13384 3.3086,0.46484 0.86439,0.1655 1.74438,0.3856 2.32422,0.58789 0.57983,0.2023 0.82133,0.54829 0.26367,-0.0351 l 4.72265,4.9414 3.13477,-6.07422 c 0,0 3.11428,-5.91994 4.46875,-13.02929 0.67723,-3.55468 0.988,-7.51559 -0.0918,-11.5 -1.07979,-3.98441 -3.95597,-7.97368 -8.49804,-10.04883 l -1.89063,4.13867 c 0.23857,-3.11259 0.21978,-6.19938 -0.0586,-9.25195 0.69452,-0.65575 1.59857,-1.38443 2.54296,-1.55274 0.79937,-0.14246 1.64202,-0.20481 3.5254,1.20508 1.85185,1.3863 4.50807,4.47551 7.4375,10.11328 0.27551,0.71999 15.14723,40.01528 -13.08008,74.37891 l -0.45117,0.54883 -0.27539,0.6543 c 0,0 -2.0196,4.78978 -3.92774,10.25976 -0.95407,2.73499 -1.88712,5.64406 -2.54883,8.3418 -0.12883,0.52525 -0.20328,0.99182 -0.32226,1.48633 -2.70713,-0.47257 -5.1396,-1.1173 -8.08399,-1.84571 -4.45816,-1.10289 -10.17377,-1.77023 -19.04492,-0.22265 l 1.67578,9.60742 c 7.82038,-1.36427 11.36051,-0.8251 15.02735,0.082 3.56437,0.88178 7.7162,2.42139 14.18359,2.66016 6.9e-4,2e-5 10e-4,-3e-5 0.002,0 0.002,2.2e-4 5.81685,0.76836 12.80274,2 6.98692,1.23181 15.29902,3.04754 19.20312,4.5957 l 0.91602,0.36328 0.98633,-0.0215 c 0,0 10.90235,-0.21834 23.5957,2.93554 12.59115,3.12849 26.24225,9.50989 32.89062,21.77149 0.36636,0.98518 3.83645,11.3831 -5.81836,19.87695 -10.91906,0.76946 -17.46563,2.49486 -29.28125,-1.09961 l -2.83789,9.33008 c 13.4954,4.10548 22.09704,2.29225 32.25977,1.53125 0.41673,0.50815 0.82575,0.98597 1.36914,1.77734 1.53544,2.23618 3.33504,5.47434 4.43359,9.1543 2.10267,7.04355 2.18368,15.30275 -6.94336,24.375 -9.15107,0.36739 -17.0727,1.28764 -25.2832,-2.25781 l -3.86523,8.95312 c 11.44718,4.94312 21.87349,3.29301 30.98242,3.00391 0.0494,0.0275 0.18128,0.0857 0.45117,0.33594 0.60538,0.56127 1.5006,1.71521 2.30859,3.24609 1.616,3.06177 2.92404,7.59072 3.00586,12.02734 0.0818,4.43663 -0.97783,8.67097 -3.5957,11.97461 -2.61096,3.29493 -6.88305,6.01988 -14.60156,7.01367 -0.0477,0.005 -2.75769,0.28672 -6.48047,0.084 -3.75532,-0.20451 -8.30135,-1.03391 -11.0918,-2.60352 l -4.78125,8.49805 c 5.09103,2.86367 10.80516,3.59474 15.3418,3.8418 2.26777,0.12349 2.58533,6.7e-4 4.03711,-0.0606 0.0255,0.57837 0.11559,0.95534 0.0371,1.73242 -0.29604,2.93132 -1.48212,6.93523 -4.22656,10.83789 -5.48889,7.80533 -17.20531,15.89238 -42.86524,15.05469 l -1.97265,-0.0644 -1.46094,1.32617 c 0,0 -10.70569,9.8289 -30.57617,11.55859 -0.002,1.8e-4 -0.004,-1.7e-4 -0.006,0 -0.0457,0.004 -15.52332,1.2448 -32.97266,0.36524 -8.737547,-0.44044 -17.93735,-1.42655 -25.71875,-3.28711 -7.7814,-1.86056 -14.02076,-4.74006 -16.992188,-7.87891 L 54.240234,582.30963 52.5,582.09479 c 0,0 -18.713736,-2.87639 -31.130859,8.97656 l 6.732421,7.05274 c 7.029913,-6.71051 18.99193,-6.53542 21.97461,-6.39063 5.195278,4.59312 12.24065,7.33519 20.09375,9.21289 8.698251,2.07978 18.382497,3.08358 27.496094,3.54297 18.227194,0.91878 34.279294,-0.38867 34.279294,-0.38867 h 0.0137 l 0.0156,-0.002 c 19.16029,-1.66612 31.14728,-10.02864 34.69922,-12.8125 26.68352,0.42466 41.95086,-8.69954 49.3125,-19.16797 3.76877,-5.35929 5.48982,-10.87927 5.95312,-15.4668 0.1461,-1.44665 -0.0442,-2.65454 -0.14062,-3.92578 6.87882,-1.81776 12.16065,-5.13944 15.61914,-9.50391 4.33105,-5.4656 5.8161,-12.08768 5.70312,-18.21289 -0.11297,-6.12521 -1.73821,-11.86519 -4.13086,-16.39843 -0.98608,-1.8683 -2.14931,-3.47755 -3.47656,-4.9043 8.70381,-10.67396 9.11997,-22.36236 6.54492,-30.98828 -1.47484,-4.94044 -3.75049,-8.98981 -5.73828,-11.88477 -0.30299,-0.44126 -0.52954,-0.66992 -0.8164,-1.05664 11.20479,-12.42807 6.17187,-28.46484 6.17187,-28.46484 l -0.11914,-0.33594 -0.16602,-0.31445 c -8.51926,-16.11252 -25.26902,-23.46285 -39.33984,-26.95899 -13.30983,-3.30705 -24.10393,-3.20636 -25.3125,-3.18945 -5.57759,-2.05058 -13.21432,-3.61962 -20.04687,-4.82422 -4.6654,-0.82252 -6.19135,-0.9972 -8.54883,-1.33398 0.0545,-0.29236 0.0111,-0.2026 0.0859,-0.50782 0.53898,-2.19738 1.392,-4.89079 2.28515,-7.45117 1.70243,-4.8803 3.36557,-8.83395 3.53321,-9.23437 31.11333,-38.71315 14.02343,-83.56836 14.02343,-83.56836 l -0.0937,-0.24414 -0.11914,-0.23243 c -3.41484,-6.65452 -6.78265,-10.9778 -10.41015,-13.69335 -2.72064,-2.03667 -5.71088,-3.04241 -8.44727,-3.16602 z m -4.10742,26.34766 c 0.8018,0.69809 1.3545,1.49086 1.67773,2.68359 0.49051,1.80997 0.43496,4.45245 -0.0742,7.125 -0.44409,2.33094 -1.19921,4.45384 -1.88476,6.27539 -0.53837,-0.12993 -1.10995,-0.32085 -1.61719,-0.41797 -1.18612,-0.2271 -1.41653,-0.21477 -2.21484,-0.31055 1.75461,-5.05463 3.26544,-10.16193 4.11328,-15.35546 z"
       id="path4477-1-8-2"
       inkscape:connector-curvature="0" />
    <path
       style="color:#000000;font-style:normal;font-variant:normal;font-weight:normal;font-stretch:normal;font-size:medium;line-height:normal;font-family:sans-serif;font-variant-ligatures:normal;font-variant-position:normal;font-variant-caps:normal;font-variant-numeric:normal;font-variant-alternates:normal;font-feature-settings:normal;text-indent:0;text-align:start;text-decoration:none;text-decoration-line:none;text-decoration-style:solid;text-decoration-color:#000000;letter-spacing:normal;word-spacing:normal;text-transform:none;writing-mode:lr-tb;direction:ltr;text-orientation:mixed;dominant-baseline:auto;baseline-shift:baseline;text-anchor:start;white-space:normal;shape-padding:0;clip-rule:nonzero;display:inline;overflow:visible;visibility:visible;opacity:1;isolation:auto;mix-blend-mode:normal;color-interpolation:sRGB;color-interpolation-filters:linearRGB;solid-color:#000000;solid-opacity:1;vector-effect:none;fill:#000000;fill-opacity:1;fill-rule:nonzero;stroke:none;stroke-width:9.75135612;stroke-linecap:butt;stroke-linejoin:miter;stroke-miterlimit:4;stroke-dasharray:none;stroke-dashoffset:0;stroke-opacity:1;color-rendering:auto;image-rendering:auto;shape-rendering:auto;text-rendering:auto;enable-background:accumulate"
       d="m 154.28516,416.19245 c 0,0 -3.68907,3.87275 -5.91016,9.59375 -2.22109,5.72099 -2.75099,14.42507 3.66992,21.40429 l 7.17774,-6.60156 c -3.7701,-4.09791 -3.19219,-7.57883 -1.75782,-11.27344 1.43438,-3.69461 3.94922,-6.46875 3.94922,-6.46875 z"
       id="path1186"
       inkscape:connector-curvature="0" />
    <path
       style="color:#000000;font-style:normal;font-variant:normal;font-weight:normal;font-stretch:normal;font-size:medium;line-height:normal;font-family:sans-serif;font-variant-ligatures:normal;font-variant-position:normal;font-variant-caps:normal;font-variant-numeric:normal;font-variant-alternates:normal;font-feature-settings:normal;text-indent:0;text-align:start;text-decoration:none;text-decoration-line:none;text-decoration-style:solid;text-decoration-color:#000000;letter-spacing:normal;word-spacing:normal;text-transform:none;writing-mode:lr-tb;direction:ltr;text-orientation:mixed;dominant-baseline:auto;baseline-shift:baseline;text-anchor:start;white-space:normal;shape-padding:0;clip-rule:nonzero;display:inline;overflow:visible;visibility:visible;opacity:1;isolation:auto;mix-blend-mode:normal;color-interpolation:sRGB;color-interpolation-filters:linearRGB;solid-color:#000000;solid-opacity:1;vector-effect:none;fill:#000000;fill-opacity:1;fill-rule:nonzero;stroke:none;stroke-width:9.75135612;stroke-linecap:butt;stroke-linejoin:miter;stroke-miterlimit:4;stroke-dasharray:none;stroke-dashoffset:0;stroke-opacity:1;color-rendering:auto;image-rendering:auto;shape-rendering:auto;text-rendering:auto;enable-background:accumulate"
       d="m 148.76953,456.0401 c 0,0 -4.64502,5.27887 -7.26953,12.88086 -2.62451,7.60199 -2.98864,18.60865 5.55469,27.52344 l 7.03906,-6.74805 c -5.86896,-6.12414 -5.2935,-12.03672 -3.375,-17.59375 1.9185,-5.55702 5.41992,-9.67773 5.41992,-9.67773 z"
       id="path1188"
       inkscape:connector-curvature="0" />
    <path
       style="color:#000000;font-style:normal;font-variant:normal;font-weight:normal;font-stretch:normal;font-size:medium;line-height:normal;font-family:sans-serif;font-variant-ligatures:normal;font-variant-position:normal;font-variant-caps:normal;font-variant-numeric:normal;font-variant-alternates:normal;font-feature-settings:normal;text-indent:0;text-align:start;text-decoration:none;text-decoration-line:none;text-decoration-style:solid;text-decoration-color:#000000;letter-spacing:normal;word-spacing:normal;text-transform:none;writing-mode:lr-tb;direction:ltr;text-orientation:mixed;dominant-baseline:auto;baseline-shift:baseline;text-anchor:start;white-space:normal;shape-padding:0;clip-rule:nonzero;display:inline;overflow:visible;visibility:visible;opacity:1;isolation:auto;mix-blend-mode:normal;color-interpolation:sRGB;color-interpolation-filters:linearRGB;solid-color:#000000;solid-opacity:1;vector-effect:none;fill:#000000;fill-opacity:1;fill-rule:nonzero;stroke:none;stroke-width:9.75135612;stroke-linecap:butt;stroke-linejoin:miter;stroke-miterlimit:4;stroke-dasharray:none;stroke-dashoffset:0;stroke-opacity:1;color-rendering:auto;image-rendering:auto;shape-rendering:auto;text-rendering:auto;enable-background:accumulate"
       d="m 148.88281,510.01471 c 0,0 -9.37178,16.86118 2.29688,34.89453 l 8.1875,-5.29882 c -9.00989,-13.92436 -2.08985,-24.63477 -2.08985,-24.63477 z"
       id="path1190"
       inkscape:connector-curvature="0" />
    <path
       style="color:#000000;font-style:normal;font-variant:normal;font-weight:normal;font-stretch:normal;font-size:medium;line-height:normal;font-family:sans-serif;font-variant-ligatures:normal;font-variant-position:normal;font-variant-caps:normal;font-variant-numeric:normal;font-variant-alternates:normal;font-feature-settings:normal;text-indent:0;text-align:start;text-decoration:none;text-decoration-line:none;text-decoration-style:solid;text-decoration-color:#000000;letter-spacing:normal;word-spacing:normal;text-transform:none;writing-mode:lr-tb;direction:ltr;text-orientation:mixed;dominant-baseline:auto;baseline-shift:baseline;text-anchor:start;white-space:normal;shape-padding:0;clip-rule:nonzero;display:inline;overflow:visible;visibility:visible;opacity:1;isolation:auto;mix-blend-mode:normal;color-interpolation:sRGB;color-interpolation-filters:linearRGB;solid-color:#000000;solid-opacity:1;vector-effect:none;fill:#000000;fill-opacity:1;fill-rule:nonzero;stroke:none;stroke-width:9.75135612;stroke-linecap:butt;stroke-linejoin:miter;stroke-miterlimit:4;stroke-dasharray:none;stroke-dashoffset:0;stroke-opacity:1;color-rendering:auto;image-rendering:auto;shape-rendering:auto;text-rendering:auto;enable-background:accumulate"
       d="m 157.76367,555.45612 c 0,0 -1.22998,1.11998 -2.125,2.62695 -0.89501,1.50698 -1.77731,3.69286 -2.11328,6.50977 -0.67193,5.6338 0.79894,13.55096 7.2793,24.35156 l 8.36328,-5.01563 c -5.73878,-9.56463 -6.30532,-15.27777 -5.95899,-18.18164 0.17317,-1.45193 0.56393,-2.26176 0.81446,-2.68359 0.25053,-0.42183 0.0391,-0.16211 0.0391,-0.16211 z"
       id="path1192"
       inkscape:connector-curvature="0" />
    <path
       style="color:#000000;font-style:normal;font-variant:normal;font-weight:normal;font-stretch:normal;font-size:medium;line-height:normal;font-family:sans-serif;font-variant-ligatures:normal;font-variant-position:normal;font-variant-caps:normal;font-variant-numeric:normal;font-variant-alternates:normal;font-feature-settings:normal;text-indent:0;text-align:start;text-decoration:none;text-decoration-line:none;text-decoration-style:solid;text-decoration-color:#000000;letter-spacing:normal;word-spacing:normal;text-transform:none;writing-mode:lr-tb;direction:ltr;text-orientation:mixed;dominant-baseline:auto;baseline-shift:baseline;text-anchor:start;white-space:normal;shape-padding:0;clip-rule:nonzero;display:inline;overflow:visible;visibility:visible;opacity:1;isolation:auto;mix-blend-mode:normal;color-interpolation:sRGB;color-interpolation-filters:linearRGB;solid-color:#000000;solid-opacity:1;vector-effect:none;fill:#000000;fill-opacity:1;fill-rule:nonzero;stroke:none;stroke-width:9.75135612;stroke-linecap:butt;stroke-linejoin:miter;stroke-miterlimit:4;stroke-dasharray:none;stroke-dashoffset:0;stroke-opacity:1;color-rendering:auto;image-rendering:auto;shape-rendering:auto;text-rendering:auto;enable-background:accumulate"
       d="m 668.79297,487.23346 c -4.25575,-0.0833 -7.37305,1.70313 -7.37305,1.70313 l -1.6543,0.82812 -0.68945,1.71485 c -5.30597,13.21902 -20.61569,26.11668 -34.81445,35.1914 -13.69715,8.75413 -25.48492,13.83897 -26.33789,14.20508 -1.6246,0.11182 -3.09175,0.45371 -4.78321,0.98242 -2.30488,0.72045 -4.92642,1.72948 -7.80859,2.94336 -5.76434,2.42776 -12.53814,5.67213 -19.05664,8.9336 -13.037,6.52293 -25.04297,13.12304 -25.04297,13.12304 l -0.47656,0.26367 -0.4082,0.36133 c -14.09278,12.49678 -37.10443,17.33531 -56.67774,18.59766 -19.57331,1.26235 -35.33398,-0.82031 -35.33398,-0.82031 l -1.28321,9.66601 c 0,0 16.64341,2.21533 37.24415,0.88672 20.35244,-1.3126 44.90152,-5.90076 61.87109,-20.53516 0.22459,-0.12339 11.76879,-6.46698 24.4707,-12.82226 6.41242,-3.20839 13.06367,-6.38545 18.47852,-8.66602 2.70742,-1.14028 5.11201,-2.05623 6.93164,-2.625 1.81963,-0.56877 3.31479,-0.61932 2.73437,-0.67578 l 1.23438,0.11914 1.14258,-0.48437 c 0,0 13.4065,-5.68339 28.35351,-15.23633 3.93768,-2.51665 7.98606,-5.32723 11.97071,-8.35938 L 640.5,527.95026 c 0,0 1.29918,0.90559 2.63086,2.05664 0.66584,0.57553 1.3197,1.20676 1.7207,1.67187 0.40101,0.46511 0.43537,0.88372 0.24414,0.0996 l 1.61914,6.64258 5.75196,-3.69531 c 0,0 5.65708,-3.56723 10.38476,-9.04688 2.36384,-2.73982 4.61285,-6.01536 5.66992,-10.00585 1.05708,-3.9905 0.56005,-8.883 -2.33593,-12.95118 l -3.70313,2.63672 c 1.76237,-2.57575 3.28934,-5.25887 4.57422,-8.04101 0.92928,-0.22051 2.07693,-0.39855 2.97852,-0.0723 0.7635,0.27631 1.52311,0.64395 2.44922,2.80664 0.9104,2.12605 1.66814,6.12785 1.38671,12.47266 -0.11905,0.74699 -6.88481,42.22807 -48.51953,57.87695 l -0.66406,0.25 -0.56641,0.42969 c 0,0 -4.14376,3.13879 -8.53125,6.92187 -2.19374,1.89154 -4.45502,3.94376 -6.37695,5.94922 -0.37404,0.39031 -0.67328,0.75639 -1.02344,1.125 -2.10773,-1.76259 -3.89269,-3.53593 -6.07812,-5.63867 -3.30944,-3.18423 -7.92444,-6.61951 -16.38086,-9.71484 l -3.35156,9.15625 c 7.45476,2.72869 10.24869,4.96691 12.9707,7.58593 2.64144,2.5415 5.46476,5.94247 10.92773,9.37696 l 0.0254,0.0195 c 0,0 4.65491,3.57257 10.08985,8.13281 5.43494,4.56024 11.72701,10.28922 14.33398,13.58203 l 0.61133,0.77344 0.86328,0.47461 c 0,0 9.55098,5.26184 18.9668,14.33984 9.33939,9.00432 17.97151,21.35498 17.59961,35.29688 -0.1738,1.02875 -2.36363,11.78064 -14.98047,14.30859 -9.8395,-4.79224 -16.37192,-6.57379 -24.80664,-15.59375 l -7.12305,6.66016 c 9.63466,10.30316 17.99215,13.03275 27.17383,17.45508 0.10686,0.64855 0.22195,1.26915 0.29687,2.22656 0.21165,2.70432 0.15031,6.40832 -0.73828,10.14453 -1.70081,7.15132 -5.76039,14.34351 -18.20117,17.63672 -8.10856,-4.25723 -15.42796,-7.42208 -20.76562,-14.59766 l -7.82422,5.82031 c 7.44132,10.0036 17.29339,13.78816 25.32617,18.0918 7.3e-4,3.9e-4 10e-4,0.002 0.002,0.002 0.0289,0.0484 0.11593,0.16574 0.22461,0.51758 0.24364,0.78877 0.44266,2.23506 0.37696,3.96485 -0.1314,3.45956 -1.2627,8.03482 -3.41016,11.91796 -2.14746,3.8832 -5.18455,7.0202 -9.10352,8.5723 -3.90754,1.5476 -8.96835,1.7733 -16.14648,-1.2227 -0.0399,-0.018 -2.53312,-1.1333 -5.6582,-3.1718 -3.14995,-2.05484 -6.67487,-5.04629 -8.30664,-7.80084 l -8.38868,4.9707 c 2.9771,5.02554 7.56188,8.51574 11.36719,10.99804 1.90243,1.241 2.23942,1.292 3.52735,1.9649 -0.26717,0.514 -0.37894,0.8851 -0.83594,1.5195 -1.72204,2.3906 -4.752,5.2659 -9.08008,7.2734 -8.65617,4.0152 -22.84513,5.159 -44.64844,-8.3964 l -1.67578,-1.0411 -1.92969,0.418 c 0,0 -14.18709,3.1598 -32.26172,-5.2793 -8.1e-4,-4e-4 -0.001,0 -0.002,0 -0.0431,-0.02 -14.06737,-6.68415 -28.73828,-16.16998 -7.34672,-4.75021 -14.82029,-10.20309 -20.62891,-15.70508 -5.80861,-5.502 -9.77344,-11.11628 -10.77734,-15.32031 l -0.40625,-1.70508 -1.40039,-1.05664 c 0,0 -14.76723,-11.84936 -31.44727,-7.79297 l 2.30469,9.47656 c 9.44172,-2.29612 19.71152,3.83111 22.22461,5.44922 2.20234,6.57626 6.93216,12.47601 12.79492,18.0293 6.49302,6.15027 14.3781,11.8598 22.04102,16.81445 15.32583,9.90933 29.88086,16.80473 29.88086,16.80473 l 0.0137,0.01 0.0137,0.01 c 17.42337,8.1359 31.98418,6.889 36.45508,6.2539 22.89728,13.7108 40.68108,13.4419 52.29102,8.0566 5.94349,-2.7568 10.19366,-6.6786 12.88867,-10.4199 0.84987,-1.1798 1.28971,-2.3195 1.84179,-3.4687 6.86596,1.865 13.10202,1.6286 18.2793,-0.4219 6.48359,-2.5678 11.08014,-7.5589 14.04492,-12.9199 2.96478,-5.36111 4.42655,-11.1454 4.6211,-16.26762 0.0802,-2.11038 -0.12288,-4.08569 -0.5586,-5.98438 12.87539,-4.89188 19.07918,-14.80644 21.16211,-23.56445 1.19296,-5.01597 1.24665,-9.66112 0.97266,-13.16211 -0.0417,-0.53337 -0.12465,-0.84413 -0.17969,-1.32227 15.9193,-5.15991 19.58008,-21.5664 19.58008,-21.5664 l 0.0645,-0.34961 0.0137,-0.35547 c 0.67836,-18.21348 -10.15222,-32.95443 -20.58984,-43.01758 -9.8743,-9.52003 -19.27503,-14.83143 -20.32812,-15.41992 -3.80507,-4.56457 -9.63452,-9.74182 -14.94922,-14.20117 -3.62873,-3.04472 -4.86104,-3.95921 -6.73438,-5.42969 0.19252,-0.22474 0.1099,-0.16886 0.32617,-0.39453 1.56546,-1.6335 3.6514,-3.54173 5.70508,-5.3125 3.91331,-3.37422 7.32841,-5.96405 7.67578,-6.22852 46.30409,-17.96905 53.93164,-65.36132 53.93164,-65.36132 l 0.041,-0.25782 0.0117,-0.26172 c 0.36992,-7.4704 -0.38424,-12.89895 -2.16797,-17.06445 -1.78373,-4.1655 -4.89924,-6.98187 -8.0957,-8.13867 -1.59824,-0.5784 -3.14197,-0.81405 -4.56055,-0.8418 z m -9.80664,22.7793 c 0.34493,1.00507 0.4257,1.96991 0.10937,3.16406 -0.48019,1.81273 -1.84972,4.07096 -3.62695,6.13086 -1.55009,1.79664 -3.26503,3.25941 -4.76953,4.49414 -0.40138,-0.38182 -0.80058,-0.83406 -1.19141,-1.17187 -0.91401,-0.79005 -1.12013,-0.89483 -1.76367,-1.37696 4.04688,-3.50021 7.9112,-7.16633 11.24219,-11.24023 z"
       id="path4477-1-8-2-3"
       inkscape:connector-curvature="0" />
    <path
       style="color:#000000;font-style:normal;font-variant:normal;font-weight:normal;font-stretch:normal;font-size:medium;line-height:normal;font-family:sans-serif;font-variant-ligatures:normal;font-variant-position:normal;font-variant-caps:normal;font-variant-numeric:normal;font-variant-alternates:normal;font-feature-settings:normal;text-indent:0;text-align:start;text-decoration:none;text-decoration-line:none;text-decoration-style:solid;text-decoration-color:#000000;letter-spacing:normal;word-spacing:normal;text-transform:none;writing-mode:lr-tb;direction:ltr;text-orientation:mixed;dominant-baseline:auto;baseline-shift:baseline;text-anchor:start;white-space:normal;shape-padding:0;clip-rule:nonzero;display:inline;overflow:visible;visibility:visible;opacity:1;isolation:auto;mix-blend-mode:normal;color-interpolation:sRGB;color-interpolation-filters:linearRGB;solid-color:#000000;solid-opacity:1;vector-effect:none;fill:#000000;fill-opacity:1;fill-rule:nonzero;stroke:none;stroke-width:9.75135612;stroke-linecap:butt;stroke-linejoin:miter;stroke-miterlimit:4;stroke-dasharray:none;stroke-dashoffset:0;stroke-opacity:1;color-rendering:auto;image-rendering:auto;shape-rendering:auto;text-rendering:auto;enable-background:accumulate"
       d="m 610.32422,613.07916 c 0,0 -5.13004,1.50954 -9.91406,5.35352 -4.78403,3.84398 -9.59451,11.1184 -7.52344,20.37305 l 9.51562,-2.13086 c -1.21604,-5.43395 1.02573,-8.1582 4.11524,-10.64063 3.08951,-2.48243 6.6543,-3.62695 6.6543,-3.62695 z"
       id="path1186-3"
       inkscape:connector-curvature="0" />
    <path
       style="color:#000000;font-style:normal;font-variant:normal;font-weight:normal;font-stretch:normal;font-size:medium;line-height:normal;font-family:sans-serif;font-variant-ligatures:normal;font-variant-position:normal;font-variant-caps:normal;font-variant-numeric:normal;font-variant-alternates:normal;font-feature-settings:normal;text-indent:0;text-align:start;text-decoration:none;text-decoration-line:none;text-decoration-style:solid;text-decoration-color:#000000;letter-spacing:normal;word-spacing:normal;text-transform:none;writing-mode:lr-tb;direction:ltr;text-orientation:mixed;dominant-baseline:auto;baseline-shift:baseline;text-anchor:start;white-space:normal;shape-padding:0;clip-rule:nonzero;display:inline;overflow:visible;visibility:visible;opacity:1;isolation:auto;mix-blend-mode:normal;color-interpolation:sRGB;color-interpolation-filters:linearRGB;solid-color:#000000;solid-opacity:1;vector-effect:none;fill:#000000;fill-opacity:1;fill-rule:nonzero;stroke:none;stroke-width:9.75135612;stroke-linecap:butt;stroke-linejoin:miter;stroke-miterlimit:4;stroke-dasharray:none;stroke-dashoffset:0;stroke-opacity:1;color-rendering:auto;image-rendering:auto;shape-rendering:auto;text-rendering:auto;enable-background:accumulate"
       d="m 585.625,644.82916 c 0,0 -6.66245,2.25023 -12.73633,7.52149 -6.07388,5.27126 -11.8925,14.61921 -8.95117,26.61133 l 9.4707,-2.32227 c -2.02059,-8.23816 1.43307,-13.07056 5.87305,-16.92383 4.43998,-3.85326 9.53125,-5.66992 9.53125,-5.66992 z"
       id="path1188-3"
       inkscape:connector-curvature="0" />
    <path
       style="color:#000000;font-style:normal;font-variant:normal;font-weight:normal;font-stretch:normal;font-size:medium;line-height:normal;font-family:sans-serif;font-variant-ligatures:normal;font-variant-position:normal;font-variant-caps:normal;font-variant-numeric:normal;font-variant-alternates:normal;font-feature-settings:normal;text-indent:0;text-align:start;text-decoration:none;text-decoration-line:none;text-decoration-style:solid;text-decoration-color:#000000;letter-spacing:normal;word-spacing:normal;text-transform:none;writing-mode:lr-tb;direction:ltr;text-orientation:mixed;dominant-baseline:auto;baseline-shift:baseline;text-anchor:start;white-space:normal;shape-padding:0;clip-rule:nonzero;display:inline;overflow:visible;visibility:visible;opacity:1;isolation:auto;mix-blend-mode:normal;color-interpolation:sRGB;color-interpolation-filters:linearRGB;solid-color:#000000;solid-opacity:1;vector-effect:none;fill:#000000;fill-opacity:1;fill-rule:nonzero;stroke:none;stroke-width:9.75135612;stroke-linecap:butt;stroke-linejoin:miter;stroke-miterlimit:4;stroke-dasharray:none;stroke-dashoffset:0;stroke-opacity:1;color-rendering:auto;image-rendering:auto;shape-rendering:auto;text-rendering:auto;enable-background:accumulate"
       d="m 558.73633,691.62995 c 0,0 -16.5476,9.91558 -15.45899,31.36718 l 9.74024,-0.49414 c -0.84057,-16.56372 10.50781,-22.3789 10.50781,-22.3789 z"
       id="path1190-9"
       inkscape:connector-curvature="0" />
    <path
       style="color:#000000;font-style:normal;font-variant:normal;font-weight:normal;font-stretch:normal;font-size:medium;line-height:normal;font-family:sans-serif;font-variant-ligatures:normal;font-variant-position:normal;font-variant-caps:normal;font-variant-numeric:normal;font-variant-alternates:normal;font-feature-settings:normal;text-indent:0;text-align:start;text-decoration:none;text-decoration-line:none;text-decoration-style:solid;text-decoration-color:#000000;letter-spacing:normal;word-spacing:normal;text-transform:none;writing-mode:lr-tb;direction:ltr;text-orientation:mixed;dominant-baseline:auto;baseline-shift:baseline;text-anchor:start;white-space:normal;shape-padding:0;clip-rule:nonzero;display:inline;overflow:visible;visibility:visible;opacity:1;isolation:auto;mix-blend-mode:normal;color-interpolation:sRGB;color-interpolation-filters:linearRGB;solid-color:#000000;solid-opacity:1;vector-effect:none;fill:#000000;fill-opacity:1;fill-rule:nonzero;stroke:none;stroke-width:9.75135612;stroke-linecap:butt;stroke-linejoin:miter;stroke-miterlimit:4;stroke-dasharray:none;stroke-dashoffset:0;stroke-opacity:1;color-rendering:auto;image-rendering:auto;shape-rendering:auto;text-rendering:auto;enable-background:accumulate"
       d="m 543.70508,735.42487 c 0,0 -1.62375,0.35532 -3.15235,1.21289 -1.52859,0.85757 -3.38652,2.30855 -5.08593,4.58008 -3.39883,4.54305 -6.08294,12.1348 -5.8711,24.7285 l 9.75,-0.1641 c -0.1876,-11.1525 2.17781,-16.38095 3.92969,-18.72261 0.87594,-1.17083 1.61899,-1.67791 2.04688,-1.91797 0.42788,-0.24005 0.11718,-0.12109 0.11718,-0.12109 z"
       id="path1192-8"
       inkscape:connector-curvature="0" />
    <path
       style="color:#000000;font-style:normal;font-variant:normal;font-weight:normal;font-stretch:normal;font-size:medium;line-height:normal;font-family:sans-serif;font-variant-ligatures:normal;font-variant-position:normal;font-variant-caps:normal;font-variant-numeric:normal;font-variant-alternates:normal;font-feature-settings:normal;text-indent:0;text-align:start;text-decoration:none;text-decoration-line:none;text-decoration-style:solid;text-decoration-color:#000000;letter-spacing:normal;word-spacing:normal;text-transform:none;writing-mode:lr-tb;direction:ltr;text-orientation:mixed;dominant-baseline:auto;baseline-shift:baseline;text-anchor:start;white-space:normal;shape-padding:0;clip-rule:nonzero;display:inline;overflow:visible;visibility:visible;opacity:1;isolation:auto;mix-blend-mode:normal;color-interpolation:sRGB;color-interpolation-filters:linearRGB;solid-color:#000000;solid-opacity:1;vector-effect:none;fill:#000000;fill-opacity:1;fill-rule:nonzero;stroke:none;stroke-width:21.47336388;stroke-linecap:butt;stroke-linejoin:miter;stroke-miterlimit:4;stroke-dasharray:none;stroke-dashoffset:0;stroke-opacity:1;color-rendering:auto;image-rendering:auto;shape-rendering:auto;text-rendering:auto;enable-background:accumulate"
       d="m 742.65625,-217.24701 c -82.74972,-0.024 -139.59586,33.20154 -172.29297,82.9043 -32.7,49.707136 -41.8246,114.611536 -34.67773,178.859366 7.14686,64.247844 30.59734,128.121554 65.21679,176.628914 34.61946,48.50736 81.22953,82.29825 134.24414,81.98242 52.98962,-0.31566 99.21789,-34.46173 133.63282,-83.13281 34.41492,-48.67108 57.82098,-112.51917 65.59375,-176.607424 7.77276,-64.08825 -0.0137,-128.65186 -30.21094,-178.162106 -30.19438,-49.50562 -83.69826,-82.75282 -161.50586,-82.47266 z m 0.0137,21.47461 h 0.0215 0.0215 c 71.86074,-0.26455 116.43306,28.42935 143.11719,72.17969 26.68413,43.750336 34.57805,103.765686 27.22461,164.396476 -7.35344,60.630804 -29.88109,121.641674 -61.8086,166.794934 -31.9275,45.15325 -72.45079,73.79585 -116.22851,74.05664 C 691.26488,281.91598 650.4591,253.61759 618.38092,208.67096 586.30274,163.72433 563.7725,102.77972 557.0274,42.143616 c -6.7451,-60.63611 2.32575,-120.6793 31.27539,-164.685546 28.94965,-44.00625 77.20159,-73.2583 154.36719,-73.23047 z"
       id="path10-9-9-0-1-5"
       inkscape:connector-curvature="0" />
    <path
       style="color:#000000;font-style:normal;font-variant:normal;font-weight:normal;font-stretch:normal;font-size:medium;line-height:normal;font-family:sans-serif;font-variant-ligatures:normal;font-variant-position:normal;font-variant-caps:normal;font-variant-numeric:normal;font-variant-alternates:normal;font-feature-settings:normal;text-indent:0;text-align:start;text-decoration:none;text-decoration-line:none;text-decoration-style:solid;text-decoration-color:#000000;letter-spacing:normal;word-spacing:normal;text-transform:none;writing-mode:lr-tb;direction:ltr;text-orientation:mixed;dominant-baseline:auto;baseline-shift:baseline;text-anchor:start;white-space:normal;shape-padding:0;clip-rule:nonzero;display:inline;overflow:visible;visibility:visible;opacity:1;isolation:auto;mix-blend-mode:normal;color-interpolation:sRGB;color-interpolation-filters:linearRGB;solid-color:#000000;solid-opacity:1;vector-effect:none;fill:#000000;fill-opacity:1;fill-rule:nonzero;stroke:none;stroke-width:10.73668194;stroke-linecap:butt;stroke-linejoin:miter;stroke-miterlimit:4;stroke-dasharray:none;stroke-dashoffset:0;stroke-opacity:1;color-rendering:auto;image-rendering:auto;shape-rendering:auto;text-rendering:auto;enable-background:accumulate"
       d="m 731.16992,41.370176 c 0,0 -1.20975,11.95097 -3.21289,24.50391 -1.00157,6.27647 -2.20938,12.70344 -3.50586,17.69726 -0.64824,2.49691 -1.32743,4.6406 -1.93555,6.11914 -0.60811,1.47855 -1.39415,2.25131 -0.83007,1.78125 -1.18809,0.99007 -2.44537,1.81657 -3.10352,4.44922 -0.32908,1.31633 -0.14106,3.27718 0.69922,4.646494 0.84028,1.3693 1.93367,2.03899 2.75977,2.42773 3.30439,1.55497 5.00128,0.95769 7.24804,0.80274 4.49353,-0.30991 9.35938,-1.31055 9.35938,-1.31055 l -2.10547,-10.529304 c 0,0 -2.29531,0.29159 -3.68359,0.51953 0.71178,-1.9086 1.3851,-3.90071 1.98437,-6.20898 1.44885,-5.58072 2.68284,-12.23593 3.71484,-18.70313 2.06401,-12.9344 3.29297,-25.11523 3.29297,-25.11523 z"
       id="path971-3-7-7-3"
       inkscape:connector-curvature="0" />
    <path
       style="color:#000000;font-style:normal;font-variant:normal;font-weight:normal;font-stretch:normal;font-size:medium;line-height:normal;font-family:sans-serif;font-variant-ligatures:normal;font-variant-position:normal;font-variant-caps:normal;font-variant-numeric:normal;font-variant-alternates:normal;font-feature-settings:normal;text-indent:0;text-align:start;text-decoration:none;text-decoration-line:none;text-decoration-style:solid;text-decoration-color:#000000;letter-spacing:normal;word-spacing:normal;text-transform:none;writing-mode:lr-tb;direction:ltr;text-orientation:mixed;dominant-baseline:auto;baseline-shift:baseline;text-anchor:start;white-space:normal;shape-padding:0;clip-rule:nonzero;display:inline;overflow:visible;visibility:visible;opacity:1;isolation:auto;mix-blend-mode:normal;color-interpolation:sRGB;color-interpolation-filters:linearRGB;solid-color:#000000;solid-opacity:1;vector-effect:none;fill:#000000;fill-opacity:1;fill-rule:nonzero;stroke:none;stroke-width:10.00616837;stroke-linecap:butt;stroke-linejoin:miter;stroke-miterlimit:4;stroke-dasharray:none;stroke-dashoffset:0;stroke-opacity:1;color-rendering:auto;image-rendering:auto;shape-rendering:auto;text-rendering:auto;enable-background:accumulate"
       d="m 607.98047,331.68463 -8.26367,5.63086 c 0,0 43.59303,68.95099 2.17578,146.17578 l -18.28125,-10.55468 15.04101,51.19531 47.98633,-17.95508 -15.30078,-7.71875 C 672.66194,419.1882 607.98047,331.68463 607.98047,331.68463 Z m 21.03906,68.29688 c 8.15607,29.30507 10.32165,64.97083 -8.83008,98.14258 l -2.64648,4.58398 4.17773,2.10742 -16.5,6.17383 -4.96093,-16.88672 5.51757,3.18555 2.50196,-4.33203 c 19.40329,-33.60751 23.11975,-66.04883 20.74023,-92.97461 z"
       id="path1256"
       inkscape:connector-curvature="0" />
    <path
       style="color:#000000;font-style:normal;font-variant:normal;font-weight:normal;font-stretch:normal;font-size:medium;line-height:normal;font-family:sans-serif;font-variant-ligatures:normal;font-variant-position:normal;font-variant-caps:normal;font-variant-numeric:normal;font-variant-alternates:normal;font-feature-settings:normal;text-indent:0;text-align:start;text-decoration:none;text-decoration-line:none;text-decoration-style:solid;text-decoration-color:#000000;letter-spacing:normal;word-spacing:normal;text-transform:none;writing-mode:lr-tb;direction:ltr;text-orientation:mixed;dominant-baseline:auto;baseline-shift:baseline;text-anchor:start;white-space:normal;shape-padding:0;clip-rule:nonzero;display:inline;overflow:visible;visibility:visible;opacity:1;isolation:auto;mix-blend-mode:normal;color-interpolation:sRGB;color-interpolation-filters:linearRGB;solid-color:#000000;solid-opacity:1;vector-effect:none;fill:#000000;fill-opacity:1;fill-rule:nonzero;stroke:none;stroke-width:10.00616837;stroke-linecap:butt;stroke-linejoin:miter;stroke-miterlimit:4;stroke-dasharray:none;stroke-dashoffset:0;stroke-opacity:1;color-rendering:auto;image-rendering:auto;shape-rendering:auto;text-rendering:auto;enable-background:accumulate"
       d="m 457.94727,214.48932 -51.69922,55.56445 51.94531,55.41211 -0.25391,-31.94531 h 99.54102 v 31.74805 l 53.40625,-54.33399 -53.89844,-56.16211 v 34.13282 h -99.04101 z m 109.04687,25.1582 29.94336,31.20313 -29.45117,29.96484 V 283.51471 H 447.85352 l 0.041,5.04297 0.0899,11.38867 -28.04493,-29.91797 28.00196,-30.0957 v 18.98047 h 119.05273 z"
       id="path22068"
       inkscape:connector-curvature="0" />
    <path
       inkscape:connector-curvature="0"
       id="path87-11-5-68-0"
       d="m 220.87278,-46.761574 c -10.69232,0.1043 -19.33728,4.4033 -24.90651,10.83601 -5.58574,6.45167 -8.18511,14.77739 -8.10975,22.97657 0.0751,8.1991902 2.82083,16.4274602 8.47495,22.6838002 5.63718,6.2375298 14.29064,10.2291698 24.76356,9.9030698 10.27157,-0.0267 18.62801,-4.38679 23.93403,-10.8260498 5.32226,-6.45919 7.7677,-14.7313 7.71491,-22.8877902 -0.0534,-8.15656 -2.60155,-16.35113 -7.98158,-22.65091 -5.36712,-6.28512 -13.76055,-10.38684 -23.88961,-10.0347 z m 0.32907,10.76193 c 7.22549,-0.2658 11.93975,2.25683 15.36698,6.27027 3.42737,4.01336 5.36171,9.80829 5.40001,15.72244 0.0375,5.9141602 -1.81582,11.7921802 -5.25495,15.9661002 -3.43942,4.17379 -8.27371,6.91353 -15.70932,6.91353 h -0.0907 l -0.0905,0.007 c -7.73365,0.25982 -12.8659,-2.34728 -16.49748,-6.36562 -3.63137,-4.01849 -5.64079,-9.72794 -5.69424,-15.5579802 -0.0527,-5.83013 1.84497,-11.62556 5.48036,-15.82459 3.63562,-4.19895 8.904,-7.06471 16.9318,-7.12415 h 0.0791 z"
       style="color:#000000;font-style:normal;font-variant:normal;font-weight:normal;font-stretch:normal;font-size:medium;line-height:normal;font-family:sans-serif;font-variant-ligatures:normal;font-variant-position:normal;font-variant-caps:normal;font-variant-numeric:normal;font-variant-alternates:normal;font-feature-settings:normal;text-indent:0;text-align:start;text-decoration:none;text-decoration-line:none;text-decoration-style:solid;text-decoration-color:#000000;letter-spacing:normal;word-spacing:normal;text-transform:none;writing-mode:lr-tb;direction:ltr;text-orientation:mixed;dominant-baseline:auto;baseline-shift:baseline;text-anchor:start;white-space:normal;shape-padding:0;clip-rule:nonzero;display:inline;overflow:visible;visibility:visible;opacity:1;isolation:auto;mix-blend-mode:normal;color-interpolation:sRGB;color-interpolation-filters:linearRGB;solid-color:#000000;solid-opacity:1;vector-effect:none;fill:#000000;fill-opacity:1;fill-rule:nonzero;stroke:none;stroke-width:10.77513981;stroke-linecap:butt;stroke-linejoin:miter;stroke-miterlimit:4;stroke-dasharray:none;stroke-dashoffset:0;stroke-opacity:1;color-rendering:auto;image-rendering:auto;shape-rendering:auto;text-rendering:auto;enable-background:accumulate" />
    <path
       inkscape:connector-curvature="0"
       id="path1039-49-3"
       d="m 167.29353,-82.107584 -6.0924,11.9021 c 0,0 26.96873,13.80686 54.19779,27.61798 13.61449,6.90567 27.29094,13.81083 37.71522,19.00166 5.21219,2.59541 9.60734,4.76028 12.80525,6.29652 1.59915,0.76827 2.89173,1.37706 3.89277,1.82628 0.50065,0.2247 0.9188,0.40754 1.34761,0.57755 0.21438,0.085 0.42255,0.16489 0.73856,0.26653 0.31629,0.1017 0.28852,0.36196 2.21788,0.36196 v -13.37134 c 1.86639,0 1.72473,0.23277 1.87562,0.28137 0.15118,0.0484 0.14462,0.0505 0.0957,0.031 -0.0982,-0.039 -0.40089,-0.16748 -0.80123,-0.34715 -0.8013,-0.35951 -2.03344,-0.93663 -3.57697,-1.67821 -3.08749,-1.48323 -7.45126,-3.63345 -12.63437,-6.21429 -10.36615,-5.16189 -24.02861,-12.05921 -37.62788,-18.95716 -27.19936,-13.79611 -54.15359,-27.59505 -54.15359,-27.59505 z"
       style="color:#000000;font-style:normal;font-variant:normal;font-weight:normal;font-stretch:normal;font-size:medium;line-height:normal;font-family:sans-serif;font-variant-ligatures:normal;font-variant-position:normal;font-variant-caps:normal;font-variant-numeric:normal;font-variant-alternates:normal;font-feature-settings:normal;text-indent:0;text-align:start;text-decoration:none;text-decoration-line:none;text-decoration-style:solid;text-decoration-color:#000000;letter-spacing:normal;word-spacing:normal;text-transform:none;writing-mode:lr-tb;direction:ltr;text-orientation:mixed;dominant-baseline:auto;baseline-shift:baseline;text-anchor:start;white-space:normal;shape-padding:0;clip-rule:nonzero;display:inline;overflow:visible;visibility:visible;opacity:1;isolation:auto;mix-blend-mode:normal;color-interpolation:sRGB;color-interpolation-filters:linearRGB;solid-color:#000000;solid-opacity:1;vector-effect:none;fill:#000000;fill-opacity:1;fill-rule:nonzero;stroke:none;stroke-width:13.37113857;stroke-linecap:butt;stroke-linejoin:miter;stroke-miterlimit:4;stroke-dasharray:none;stroke-dashoffset:0;stroke-opacity:1;color-rendering:auto;image-rendering:auto;shape-rendering:auto;text-rendering:auto;enable-background:accumulate" />
    <path
       inkscape:connector-curvature="0"
       id="path1681-8-1"
       d="m 223.28643,161.08765 v 10.69615 h 131.0169 v -10.69615 z"
       style="color:#000000;font-style:normal;font-variant:normal;font-weight:normal;font-stretch:normal;font-size:medium;line-height:normal;font-family:sans-serif;font-variant-ligatures:normal;font-variant-position:normal;font-variant-caps:normal;font-variant-numeric:normal;font-variant-alternates:normal;font-feature-settings:normal;text-indent:0;text-align:start;text-decoration:none;text-decoration-line:none;text-decoration-style:solid;text-decoration-color:#000000;letter-spacing:normal;word-spacing:normal;text-transform:none;writing-mode:lr-tb;direction:ltr;text-orientation:mixed;dominant-baseline:auto;baseline-shift:baseline;text-anchor:start;white-space:normal;shape-padding:0;clip-rule:nonzero;display:inline;overflow:visible;visibility:visible;opacity:1;isolation:auto;mix-blend-mode:normal;color-interpolation:sRGB;color-interpolation-filters:linearRGB;solid-color:#000000;solid-opacity:1;vector-effect:none;fill:#000000;fill-opacity:1;fill-rule:nonzero;stroke:none;stroke-width:10.69691181;stroke-linecap:butt;stroke-linejoin:miter;stroke-miterlimit:4;stroke-dasharray:none;stroke-dashoffset:0;stroke-opacity:1;color-rendering:auto;image-rendering:auto;shape-rendering:auto;text-rendering:auto;enable-background:accumulate" />
    <path
       inkscape:connector-curvature="0"
       id="path87-11-5-3-7-4"
       d="m 364.33941,-46.761504 c -10.12501,-0.34954 -18.5155,3.75138 -23.88132,10.03471 -5.38002,6.2997 -7.92856,14.4942 -7.98157,22.65083 -0.0527,8.1565602 2.39273,16.4286002 7.71498,22.8877902 5.30624,6.4396298 13.66333,10.7997198 23.93563,10.8260498 10.47283,0.3261 19.12479,-3.66554 24.76189,-9.9030698 5.65412,-6.25627 8.39985,-14.48287 8.47494,-22.6821302 0.0749,-8.1992 -2.52401,-16.52649 -8.10967,-22.97824 -5.5706,-6.43436 -14.21851,-10.73394 -24.91488,-10.83594 z m -0.32076,10.76351 0.0791,0.007 0.0792,0.007 c 8.02802,0.0591 13.29661,2.92353 16.9317,7.12249 3.63562,4.19896 5.53411,9.99604 5.48066,15.82617 -0.0527,5.8300402 -2.06294,11.5379102 -5.69444,15.5563302 -3.63158,4.01834 -8.7634,6.62543 -16.49735,6.36561 l -0.0906,-0.007 h -0.0905 c -7.43561,0 -12.26997,-2.73809 -15.70911,-6.91194 -3.43934,-4.17385 -5.2934,-10.05187 -5.25531,-15.9659602 0.0389,-5.91422 1.97271,-11.71081 5.40016,-15.72417 3.42716,-4.01351 8.14149,-6.53449 15.36683,-6.26861 z"
       style="color:#000000;font-style:normal;font-variant:normal;font-weight:normal;font-stretch:normal;font-size:medium;line-height:normal;font-family:sans-serif;font-variant-ligatures:normal;font-variant-position:normal;font-variant-caps:normal;font-variant-numeric:normal;font-variant-alternates:normal;font-feature-settings:normal;text-indent:0;text-align:start;text-decoration:none;text-decoration-line:none;text-decoration-style:solid;text-decoration-color:#000000;letter-spacing:normal;word-spacing:normal;text-transform:none;writing-mode:lr-tb;direction:ltr;text-orientation:mixed;dominant-baseline:auto;baseline-shift:baseline;text-anchor:start;white-space:normal;shape-padding:0;clip-rule:nonzero;display:inline;overflow:visible;visibility:visible;opacity:1;isolation:auto;mix-blend-mode:normal;color-interpolation:sRGB;color-interpolation-filters:linearRGB;solid-color:#000000;solid-opacity:1;vector-effect:none;fill:#000000;fill-opacity:1;fill-rule:nonzero;stroke:none;stroke-width:10.77513981;stroke-linecap:butt;stroke-linejoin:miter;stroke-miterlimit:4;stroke-dasharray:none;stroke-dashoffset:0;stroke-opacity:1;color-rendering:auto;image-rendering:auto;shape-rendering:auto;text-rendering:auto;enable-background:accumulate" />
    <path
       inkscape:connector-curvature="0"
       id="path1039-7-0-9"
       d="m 417.92682,-82.107444 c 0,0 -26.95409,13.80059 -54.15321,27.59664 -13.59949,6.89794 -27.26194,13.79517 -37.62809,18.95707 -5.18288,2.581 -9.54667,4.72949 -12.6343,6.21271 -1.54361,0.74151 -2.77575,1.32036 -3.57697,1.67979 -0.40039,0.17975 -0.70292,0.30656 -0.80102,0.3455 -0.0491,0.0195 -0.0555,0.0173 0.0954,-0.031 0.15091,-0.0484 0.01,-0.28132 1.87562,-0.28132 v 13.37134 c 1.92938,0 1.90159,-0.25873 2.21768,-0.36036 0.31629,-0.10164 0.52605,-0.18322 0.74036,-0.26819 0.42881,-0.17001 0.84544,-0.35279 1.34602,-0.57748 1.00104,-0.4493 2.29363,-1.05649 3.89277,-1.82462 3.19798,-1.53632 7.59336,-3.70112 12.80525,-6.29659 10.42435,-5.19084 24.10261,-12.09766 37.71703,-19.00318 27.22905,-13.81119 54.19628,-27.61805 54.19628,-27.61805 z"
       style="color:#000000;font-style:normal;font-variant:normal;font-weight:normal;font-stretch:normal;font-size:medium;line-height:normal;font-family:sans-serif;font-variant-ligatures:normal;font-variant-position:normal;font-variant-caps:normal;font-variant-numeric:normal;font-variant-alternates:normal;font-feature-settings:normal;text-indent:0;text-align:start;text-decoration:none;text-decoration-line:none;text-decoration-style:solid;text-decoration-color:#000000;letter-spacing:normal;word-spacing:normal;text-transform:none;writing-mode:lr-tb;direction:ltr;text-orientation:mixed;dominant-baseline:auto;baseline-shift:baseline;text-anchor:start;white-space:normal;shape-padding:0;clip-rule:nonzero;display:inline;overflow:visible;visibility:visible;opacity:1;isolation:auto;mix-blend-mode:normal;color-interpolation:sRGB;color-interpolation-filters:linearRGB;solid-color:#000000;solid-opacity:1;vector-effect:none;fill:#000000;fill-opacity:1;fill-rule:nonzero;stroke:none;stroke-width:13.37113857;stroke-linecap:butt;stroke-linejoin:miter;stroke-miterlimit:4;stroke-dasharray:none;stroke-dashoffset:0;stroke-opacity:1;color-rendering:auto;image-rendering:auto;shape-rendering:auto;text-rendering:auto;enable-background:accumulate" />
    <path
       inkscape:connector-curvature="0"
       id="path87-11-5-68-0-5"
       d="m 663.59153,-46.761574 c -10.69232,0.1043 -19.33728,4.4033 -24.90651,10.83601 -5.58574,6.45167 -8.18511,14.77739 -8.10975,22.97657 0.0751,8.1991902 2.82083,16.4274602 8.47495,22.6838002 5.63718,6.2375298 14.29064,10.2291698 24.76356,9.9030698 10.27157,-0.0267 18.62801,-4.38679 23.93403,-10.8260498 5.32226,-6.45919 7.7677,-14.7313 7.71491,-22.8877902 -0.0534,-8.15656 -2.60155,-16.35113 -7.98158,-22.65091 -5.36712,-6.28512 -13.76055,-10.38684 -23.88961,-10.0347 z m 0.32907,10.76193 c 7.22549,-0.2658 11.93975,2.25683 15.36698,6.27027 3.42737,4.01336 5.36171,9.80829 5.40001,15.72244 0.0375,5.9141602 -1.81582,11.7921802 -5.25495,15.9661002 -3.43942,4.17379 -8.27371,6.91353 -15.70932,6.91353 h -0.0907 l -0.0905,0.007 c -7.73365,0.25982 -12.8659,-2.34728 -16.49748,-6.36562 -3.63137,-4.01849 -5.64079,-9.72794 -5.69424,-15.5579802 -0.0527,-5.83013 1.84497,-11.62556 5.48036,-15.82459 3.63562,-4.19895 8.904,-7.06471 16.9318,-7.12415 h 0.0791 z"
       style="color:#000000;font-style:normal;font-variant:normal;font-weight:normal;font-stretch:normal;font-size:medium;line-height:normal;font-family:sans-serif;font-variant-ligatures:normal;font-variant-position:normal;font-variant-caps:normal;font-variant-numeric:normal;font-variant-alternates:normal;font-feature-settings:normal;text-indent:0;text-align:start;text-decoration:none;text-decoration-line:none;text-decoration-style:solid;text-decoration-color:#000000;letter-spacing:normal;word-spacing:normal;text-transform:none;writing-mode:lr-tb;direction:ltr;text-orientation:mixed;dominant-baseline:auto;baseline-shift:baseline;text-anchor:start;white-space:normal;shape-padding:0;clip-rule:nonzero;display:inline;overflow:visible;visibility:visible;opacity:1;isolation:auto;mix-blend-mode:normal;color-interpolation:sRGB;color-interpolation-filters:linearRGB;solid-color:#000000;solid-opacity:1;vector-effect:none;fill:#000000;fill-opacity:1;fill-rule:nonzero;stroke:none;stroke-width:10.77513981;stroke-linecap:butt;stroke-linejoin:miter;stroke-miterlimit:4;stroke-dasharray:none;stroke-dashoffset:0;stroke-opacity:1;color-rendering:auto;image-rendering:auto;shape-rendering:auto;text-rendering:auto;enable-background:accumulate" />
    <path
       inkscape:connector-curvature="0"
       id="path1039-49-3-8"
       d="m 610.01228,-82.107584 -6.0924,11.9021 c 0,0 26.96873,13.80686 54.19779,27.61798 13.61449,6.90567 27.29094,13.81083 37.71522,19.00166 5.21219,2.59541 9.60734,4.76028 12.80525,6.29652 1.59915,0.76827 2.89173,1.37706 3.89277,1.82628 0.50065,0.2247 0.9188,0.40754 1.34761,0.57755 0.21438,0.085 0.42255,0.16489 0.73856,0.26653 0.31629,0.1017 0.28852,0.36196 2.21788,0.36196 v -13.37134 c 1.86639,0 1.72473,0.23277 1.87562,0.28137 0.15118,0.0484 0.14462,0.0505 0.0957,0.031 -0.0982,-0.039 -0.40089,-0.16748 -0.80123,-0.34715 -0.8013,-0.35951 -2.03344,-0.93663 -3.57697,-1.67821 -3.08749,-1.48323 -7.45126,-3.63345 -12.63437,-6.21429 -10.36615,-5.16189 -24.02861,-12.05921 -37.62788,-18.95716 -27.19936,-13.79611 -54.15359,-27.59505 -54.15359,-27.59505 z"
       style="color:#000000;font-style:normal;font-variant:normal;font-weight:normal;font-stretch:normal;font-size:medium;line-height:normal;font-family:sans-serif;font-variant-ligatures:normal;font-variant-position:normal;font-variant-caps:normal;font-variant-numeric:normal;font-variant-alternates:normal;font-feature-settings:normal;text-indent:0;text-align:start;text-decoration:none;text-decoration-line:none;text-decoration-style:solid;text-decoration-color:#000000;letter-spacing:normal;word-spacing:normal;text-transform:none;writing-mode:lr-tb;direction:ltr;text-orientation:mixed;dominant-baseline:auto;baseline-shift:baseline;text-anchor:start;white-space:normal;shape-padding:0;clip-rule:nonzero;display:inline;overflow:visible;visibility:visible;opacity:1;isolation:auto;mix-blend-mode:normal;color-interpolation:sRGB;color-interpolation-filters:linearRGB;solid-color:#000000;solid-opacity:1;vector-effect:none;fill:#000000;fill-opacity:1;fill-rule:nonzero;stroke:none;stroke-width:13.37113857;stroke-linecap:butt;stroke-linejoin:miter;stroke-miterlimit:4;stroke-dasharray:none;stroke-dashoffset:0;stroke-opacity:1;color-rendering:auto;image-rendering:auto;shape-rendering:auto;text-rendering:auto;enable-background:accumulate" />
    <path
       inkscape:connector-curvature="0"
       id="path1681-8-1-3"
       d="m 666.00518,161.08765 v 10.69615 h 131.0169 v -10.69615 z"
       style="color:#000000;font-style:normal;font-variant:normal;font-weight:normal;font-stretch:normal;font-size:medium;line-height:normal;font-family:sans-serif;font-variant-ligatures:normal;font-variant-position:normal;font-variant-caps:normal;font-variant-numeric:normal;font-variant-alternates:normal;font-feature-settings:normal;text-indent:0;text-align:start;text-decoration:none;text-decoration-line:none;text-decoration-style:solid;text-decoration-color:#000000;letter-spacing:normal;word-spacing:normal;text-transform:none;writing-mode:lr-tb;direction:ltr;text-orientation:mixed;dominant-baseline:auto;baseline-shift:baseline;text-anchor:start;white-space:normal;shape-padding:0;clip-rule:nonzero;display:inline;overflow:visible;visibility:visible;opacity:1;isolation:auto;mix-blend-mode:normal;color-interpolation:sRGB;color-interpolation-filters:linearRGB;solid-color:#000000;solid-opacity:1;vector-effect:none;fill:#000000;fill-opacity:1;fill-rule:nonzero;stroke:none;stroke-width:10.69691181;stroke-linecap:butt;stroke-linejoin:miter;stroke-miterlimit:4;stroke-dasharray:none;stroke-dashoffset:0;stroke-opacity:1;color-rendering:auto;image-rendering:auto;shape-rendering:auto;text-rendering:auto;enable-background:accumulate" />
    <path
       inkscape:connector-curvature="0"
       id="path87-11-5-3-7-4-8"
       d="m 807.05816,-46.761504 c -10.12501,-0.34954 -18.5155,3.75138 -23.88132,10.03471 -5.38002,6.2997 -7.92856,14.4942 -7.98157,22.65083 -0.0527,8.1565602 2.39273,16.4286002 7.71498,22.8877902 5.30624,6.4396298 13.66333,10.7997198 23.93563,10.8260498 10.47283,0.3261 19.12479,-3.66554 24.76189,-9.9030698 5.65412,-6.25627 8.39985,-14.48287 8.47494,-22.6821302 0.0749,-8.1992 -2.52401,-16.52649 -8.10967,-22.97824 -5.5706,-6.43436 -14.21851,-10.73394 -24.91488,-10.83594 z m -0.32076,10.76351 0.0791,0.007 0.0792,0.007 c 8.02802,0.0591 13.29661,2.92353 16.9317,7.12249 3.63562,4.19896 5.53411,9.99604 5.48066,15.82617 -0.0527,5.8300402 -2.06294,11.5379102 -5.69444,15.5563302 -3.63158,4.01834 -8.7634,6.62543 -16.49735,6.36561 l -0.0906,-0.007 h -0.0905 c -7.43561,0 -12.26997,-2.73809 -15.70911,-6.91194 -3.43934,-4.17385 -5.2934,-10.05187 -5.25531,-15.9659602 0.0389,-5.91422 1.97271,-11.71081 5.40016,-15.72417 3.42716,-4.01351 8.14149,-6.53449 15.36683,-6.26861 z"
       style="color:#000000;font-style:normal;font-variant:normal;font-weight:normal;font-stretch:normal;font-size:medium;line-height:normal;font-family:sans-serif;font-variant-ligatures:normal;font-variant-position:normal;font-variant-caps:normal;font-variant-numeric:normal;font-variant-alternates:normal;font-feature-settings:normal;text-indent:0;text-align:start;text-decoration:none;text-decoration-line:none;text-decoration-style:solid;text-decoration-color:#000000;letter-spacing:normal;word-spacing:normal;text-transform:none;writing-mode:lr-tb;direction:ltr;text-orientation:mixed;dominant-baseline:auto;baseline-shift:baseline;text-anchor:start;white-space:normal;shape-padding:0;clip-rule:nonzero;display:inline;overflow:visible;visibility:visible;opacity:1;isolation:auto;mix-blend-mode:normal;color-interpolation:sRGB;color-interpolation-filters:linearRGB;solid-color:#000000;solid-opacity:1;vector-effect:none;fill:#000000;fill-opacity:1;fill-rule:nonzero;stroke:none;stroke-width:10.77513981;stroke-linecap:butt;stroke-linejoin:miter;stroke-miterlimit:4;stroke-dasharray:none;stroke-dashoffset:0;stroke-opacity:1;color-rendering:auto;image-rendering:auto;shape-rendering:auto;text-rendering:auto;enable-background:accumulate" />
    <path
       inkscape:connector-curvature="0"
       id="path1039-7-0-9-1"
       d="m 860.64557,-82.107444 c 0,0 -26.95409,13.80059 -54.15321,27.59664 -13.59949,6.89794 -27.26194,13.79517 -37.62809,18.95707 -5.18288,2.581 -9.54667,4.72949 -12.6343,6.21271 -1.54361,0.74151 -2.77575,1.32036 -3.57697,1.67979 -0.40039,0.17975 -0.70292,0.30656 -0.80102,0.3455 -0.0491,0.0195 -0.0555,0.0173 0.0954,-0.031 0.15091,-0.0484 0.01,-0.28132 1.87562,-0.28132 v 13.37134 c 1.92938,0 1.90159,-0.25873 2.21768,-0.36036 0.31629,-0.10164 0.52605,-0.18322 0.74036,-0.26819 0.42881,-0.17001 0.84544,-0.35279 1.34602,-0.57748 1.00104,-0.4493 2.29363,-1.05649 3.89277,-1.82462 3.19798,-1.53632 7.59336,-3.70112 12.80525,-6.29659 10.42435,-5.19084 24.10261,-12.09766 37.71703,-19.00318 27.22905,-13.81119 54.19628,-27.61805 54.19628,-27.61805 z"
       style="color:#000000;font-style:normal;font-variant:normal;font-weight:normal;font-stretch:normal;font-size:medium;line-height:normal;font-family:sans-serif;font-variant-ligatures:normal;font-variant-position:normal;font-variant-caps:normal;font-variant-numeric:normal;font-variant-alternates:normal;font-feature-settings:normal;text-indent:0;text-align:start;text-decoration:none;text-decoration-line:none;text-decoration-style:solid;text-decoration-color:#000000;letter-spacing:normal;word-spacing:normal;text-transform:none;writing-mode:lr-tb;direction:ltr;text-orientation:mixed;dominant-baseline:auto;baseline-shift:baseline;text-anchor:start;white-space:normal;shape-padding:0;clip-rule:nonzero;display:inline;overflow:visible;visibility:visible;opacity:1;isolation:auto;mix-blend-mode:normal;color-interpolation:sRGB;color-interpolation-filters:linearRGB;solid-color:#000000;solid-opacity:1;vector-effect:none;fill:#000000;fill-opacity:1;fill-rule:nonzero;stroke:none;stroke-width:13.37113857;stroke-linecap:butt;stroke-linejoin:miter;stroke-miterlimit:4;stroke-dasharray:none;stroke-dashoffset:0;stroke-opacity:1;color-rendering:auto;image-rendering:auto;shape-rendering:auto;text-rendering:auto;enable-background:accumulate" />
    <path
       inkscape:connector-curvature="0"
       style="font-style:normal;font-weight:normal;font-size:233.33332825px;line-height:1.25;font-family:sans-serif;letter-spacing:0px;word-spacing:0px;fill:#000000;fill-opacity:1;stroke:none"
       d="m 209.16406,858.10025 v 22.2168 h 24.1543 v -22.2168 z m 543.23047,0 v 22.2168 h 24.15234 v -22.2168 z M 32,859.23895 v 169.64645 h 42.837895 c 15.57074,0 28.103295,-1.0647 37.597645,-3.1915 9.57031,-2.1267 18.22916,-5.582 25.97656,-10.3671 11.16536,-6.9119 20.09136,-16.63345 26.7754,-29.16605 6.75998,-12.5325 10.13866,-26.5089 10.13866,-41.9277 0,-16.4822 -3.22743,-30.7237 -9.68359,-42.7246 -6.45616,-12.0009 -15.45682,-21.6085 -27.00196,-28.8242 -6.75998,-4.1775 -15.0397,-7.4442 -24.83788,-9.7988 -9.72222,-2.4306 -22.861755,-3.6465 -39.419915,-3.6465 z m 22.558595,19.3691 h 21.1914 c 10.48178,0 19.48243,0.7602 27.001955,2.2793 7.51953,1.4431 14.62066,4.0636 21.30469,7.8613 9.19053,5.2409 16.10307,12.4187 20.73632,21.5332 4.63326,9.1146 6.94922,20.3173 6.94922,33.6094 0,13.2162 -2.12544,24.2303 -6.3789,33.041 -4.17752,8.8108 -10.48307,15.9119 -18.91406,21.3047 -6.75999,4.32935 -14.20291,7.29165 -22.33008,8.88665 -8.051215,1.5951 -17.507595,2.3926 -28.369145,2.3926 h -21.1914 z m 612.841785,19.4824 c -18.53299,0 -33.49544,6.115 -44.88867,18.3438 -11.31728,12.2287 -16.97656,28.7489 -16.97656,49.5605 0,21.0395 5.92448,37.29255 17.77343,48.76165 11.84896,11.3934 28.33182,17.0899 49.44727,17.0899 8.27908,0 16.17773,-1.0254 23.69726,-3.0762 7.51954,-2.0508 14.88781,-4.5945 22.10352,-7.6328 v -23.35545 h -1.14062 c -3.72179,3.34195 -9.98807,6.75995 -18.79883,10.25385 -8.73481,3.418 -17.43099,5.127 -26.08985,5.127 -6.53211,0 -12.53319,-0.9114 -18.00194,-2.7344 -5.39279,-1.8228 -10.06403,-4.5573 -14.01368,-8.2031 -4.10155,-3.72175 -7.32899,-8.46955 -9.68359,-14.24215 -2.3546,-5.8485 -3.53125,-12.6845 -3.53125,-20.5078 h 93.76563 v -11.6211 c 0,-18.457 -4.67122,-32.6986 -14.01368,-42.7246 -9.26649,-10.0261 -22.48263,-15.0391 -39.64844,-15.0391 z m -349.31641,0.4551 c -7.67144,0 -15.45616,0.6836 -23.35546,2.0508 -7.89931,1.3672 -13.93772,2.6204 -18.11524,3.7598 v 21.7617 h 1.13867 c 7.36762,-2.8104 14.50803,-4.9377 21.41993,-6.3809 6.91189,-1.5191 13.17816,-2.2773 18.79882,-2.2773 4.63325,0 9.07661,0.3025 13.33008,0.9101 4.25347,0.6077 7.89931,1.7863 10.9375,3.5332 3.19011,1.8229 5.62001,4.3295 7.29102,7.5196 1.74696,3.1901 2.62109,7.215 2.62109,12.0761 v 3.3047 c -12.4566,0.6077 -24.11697,1.5191 -34.97851,2.7344 -10.86155,1.2153 -20.16472,3.5312 -27.91211,6.9492 -7.67145,3.418 -13.59592,8.1265 -17.77344,14.127 -4.10156,5.9244 -6.15235,13.7111 -6.15235,23.3574 0,11.77295 3.98763,21.45715 11.9629,29.05265 7.97526,7.5955 17.69683,11.3927 29.16601,11.3927 6.2283,0 11.65972,-0.607 16.29297,-1.8223 4.63325,-1.1393 8.73481,-2.5831 12.30469,-4.33 3.03819,-1.3672 6.15169,-3.1901 9.34179,-5.4688 3.26606,-2.3546 5.84918,-4.1775 7.74805,-5.4687 v 13.5586 h 21.30469 v -86.36145 c 0,-8.2031 -1.25326,-15.0764 -3.75977,-20.6211 -2.50651,-5.5447 -6.15234,-10.0646 -10.9375,-13.5586 -4.86111,-3.5698 -10.63433,-6.0764 -17.31836,-7.5195 -6.60807,-1.5191 -14.39279,-2.2793 -23.35547,-2.2793 z m 543.22852,0 c -7.67144,0 -15.45616,0.6836 -23.35547,2.0508 -7.8993,1.3672 -13.93772,2.6204 -18.11523,3.7598 v 21.7617 h 1.13867 c 7.36762,-2.8104 14.50803,-4.9377 21.41993,-6.3809 6.91188,-1.5191 13.17818,-2.2773 18.79882,-2.2773 4.63325,0 9.0766,0.3025 13.33008,0.9101 4.25347,0.6077 7.8993,1.7863 10.9375,3.5332 3.1901,1.8229 5.62001,4.3295 7.29101,7.5196 1.74696,3.1901 2.6211,7.215 2.6211,12.0761 v 3.3047 c -12.4566,0.6077 -24.11502,1.5191 -34.97657,2.7344 -10.86154,1.2153 -20.16666,3.5312 -27.91406,6.9492 -7.67144,3.418 -13.59592,8.1265 -17.77344,14.127 -4.10156,5.9244 -6.15234,13.7111 -6.15234,23.3574 0,11.77295 3.98763,21.45715 11.96289,29.05265 7.97526,7.5955 17.69683,11.3927 29.16602,11.3927 6.22829,0 11.65972,-0.607 16.29297,-1.8223 4.63324,-1.1393 8.7348,-2.5831 12.30468,-4.33 3.0382,-1.3672 6.1517,-3.1901 9.3418,-5.4688 3.26606,-2.3546 5.84917,-4.1775 7.74805,-5.4687 v 13.5586 h 21.30468 v -86.36145 c 0,-8.2031 -1.25325,-15.0764 -3.75976,-20.6211 -2.50651,-5.5447 -6.15235,-10.0646 -10.9375,-13.5586 -4.86111,-3.5698 -10.63238,-6.0764 -17.31641,-7.5195 -6.60807,-1.5191 -14.39475,-2.2793 -23.35742,-2.2793 z m -650.78125,3.0762 v 127.26365 h 21.41992 V 901.62175 Z m 204.39453,0 v 127.26365 h 21.41992 v -90.34965 c 5.69662,-4.6332 11.6211,-8.393 17.77344,-11.2793 6.15234,-2.9622 12.53255,-4.4433 19.14063,-4.4433 4.10156,0 7.63346,0.1905 10.5957,0.5703 3.03819,0.3038 6.15169,0.8362 9.3418,1.5957 h 1.14062 v -21.9902 c -3.34201,-0.5317 -5.84852,-0.8735 -7.51953,-1.0254 -1.67101,-0.2279 -4.36806,-0.3418 -8.08984,-0.3418 -6.75999,0 -13.40539,1.4438 -19.9375,4.3301 -6.45617,2.8103 -13.93837,7.6328 -22.44532,14.4687 v -18.7988 z m 99.80469,0 v 127.26365 h 21.41992 v -90.34965 c 5.69662,-4.6332 11.62109,-8.393 17.77344,-11.2793 6.15234,-2.9622 12.53255,-4.4433 19.14062,-4.4433 4.10158,0 7.63347,0.1905 10.59572,0.5703 3.03819,0.3038 6.15169,0.8362 9.34178,1.5957 h 1.14063 v -21.9902 c -3.34202,-0.5317 -5.84853,-0.8735 -7.51953,-1.0254 -1.67101,-0.2279 -4.36806,-0.3418 -8.08985,-0.3418 -6.75998,0 -13.40538,1.4438 -19.9375,4.3301 -6.45615,2.8103 -13.93836,7.6328 -22.4453,14.4687 v -18.7988 z m 239.03125,0 v 127.26365 h 21.41797 V 901.62175 Z m -87.5,14.1289 c 11.39323,0 19.86154,3.0762 25.40625,9.2285 5.62066,6.1523 8.46897,14.8485 8.54492,26.0898 h -72.91601 c 0.91145,-10.026 4.74587,-18.4197 11.50585,-25.1796 6.83594,-6.76 15.9898,-10.1387 27.45899,-10.1387 z m -314.11133,46.3691 v 35.4336 c -5.31684,4.10155 -11.09006,7.63345 -17.31836,10.59565 -6.2283,2.8863 -13.10156,4.3301 -20.62109,4.3301 -9.03863,0 -15.76064,-1.8229 -20.16602,-5.4687 -4.40538,-3.7218 -6.60937,-9.22985 -6.60937,-16.52145 0,-6.4562 1.89952,-11.5065 5.69726,-15.1524 3.79775,-3.7218 8.77344,-6.4561 14.92578,-8.2031 5.16493,-1.4431 12.15213,-2.5451 20.96289,-3.3047 8.88672,-0.7595 16.59679,-1.3292 23.12891,-1.709 z m 543.22852,0 v 35.4336 c -5.31684,4.10155 -11.09006,7.63345 -17.31836,10.59565 -6.2283,2.8863 -13.10157,4.3301 -20.6211,4.3301 -9.03863,0 -15.76063,-1.8229 -20.16601,-5.4687 -4.40538,-3.7218 -6.60742,-9.22985 -6.60742,-16.52145 0,-6.4562 1.89757,-11.5065 5.69531,-15.1524 3.79774,-3.7218 8.77344,-6.4561 14.92578,-8.2031 5.16493,-1.4431 12.15213,-2.5451 20.96289,-3.3047 8.88672,-0.7595 16.59679,-1.3292 23.12891,-1.709 z"
       id="text1006" />
  </g>
</svg>
