<?xml version="1.0" encoding="UTF-8" standalone="no"?>
<!-- Created with Inkscape (http://www.inkscape.org/) -->

<svg
   xmlns:dc="http://purl.org/dc/elements/1.1/"
   xmlns:cc="http://creativecommons.org/ns#"
   xmlns:rdf="http://www.w3.org/1999/02/22-rdf-syntax-ns#"
   xmlns:svg="http://www.w3.org/2000/svg"
   xmlns="http://www.w3.org/2000/svg"
   xmlns:sodipodi="http://sodipodi.sourceforge.net/DTD/sodipodi-0.dtd"
   xmlns:inkscape="http://www.inkscape.org/namespaces/inkscape"
   width="1000"
   height="1250"
   viewBox="0 0 1000 1250"
   version="1.1"
   id="svg2551"
   inkscape:version="0.92.4 (5da689c313, 2019-01-14)"
   sodipodi:docname="Paz.svg">
  <defs
     id="defs2545" />
  <sodipodi:namedview
     id="base"
     pagecolor="#ffffff"
     bordercolor="#666666"
     borderopacity="1.0"
     inkscape:pageopacity="0.0"
     inkscape:pageshadow="2"
     inkscape:zoom="1.4142136"
     inkscape:cx="532.43803"
     inkscape:cy="987.11658"
     inkscape:document-units="px"
     inkscape:current-layer="layer1"
     showgrid="false"
     units="px"
     inkscape:window-width="681"
     inkscape:window-height="706"
     inkscape:window-x="-7"
     inkscape:window-y="0"
     inkscape:window-maximized="0" />
  <metadata
     id="metadata2548">
    <rdf:RDF>
      <cc:Work
         rdf:about="">
        <dc:format>image/svg+xml</dc:format>
        <dc:type
           rdf:resource="http://purl.org/dc/dcmitype/StillImage" />
        <dc:title></dc:title>
      </cc:Work>
    </rdf:RDF>
  </metadata>
  <g
     inkscape:label="Camada 1"
     inkscape:groupmode="layer"
     id="layer1"
     transform="translate(0,33.729184)">
    <path
       style="color:#000000;font-style:normal;font-variant:normal;font-weight:normal;font-stretch:normal;font-size:medium;line-height:normal;font-family:sans-serif;font-variant-ligatures:normal;font-variant-position:normal;font-variant-caps:normal;font-variant-numeric:normal;font-variant-alternates:normal;font-feature-settings:normal;text-indent:0;text-align:start;text-decoration:none;text-decoration-line:none;text-decoration-style:solid;text-decoration-color:#000000;letter-spacing:normal;word-spacing:normal;text-transform:none;writing-mode:lr-tb;direction:ltr;text-orientation:mixed;dominant-baseline:auto;baseline-shift:baseline;text-anchor:start;white-space:normal;shape-padding:0;clip-rule:nonzero;display:inline;overflow:visible;visibility:visible;opacity:1;isolation:auto;mix-blend-mode:normal;color-interpolation:sRGB;color-interpolation-filters:linearRGB;solid-color:#000000;solid-opacity:1;vector-effect:none;fill:#000000;fill-opacity:1;fill-rule:nonzero;stroke:none;stroke-width:9.3289299;stroke-linecap:butt;stroke-linejoin:miter;stroke-miterlimit:4;stroke-dasharray:none;stroke-dashoffset:0;stroke-opacity:1;color-rendering:auto;image-rendering:auto;shape-rendering:auto;text-rendering:auto;enable-background:accumulate"
       d="m 225.05172,604.78812 c -21.4072,-5.98895 -35.21261,2.10477 -42.05165,11.7908 -6.26475,8.87261 -7.41296,17.88288 -7.59562,19.48404 -0.37931,0.79137 -0.59546,1.51866 -0.73288,2.20683 -0.21316,1.06838 -0.31774,2.16506 -0.3837,3.3963 -0.1319,2.46249 -0.0802,5.43528 0.0831,8.83343 0.3279,6.79629 1.1217,15.24117 2.03314,23.53539 1.74358,15.86712 3.75826,29.83624 3.94465,31.1364 -2.12794,4.33537 -3.24722,9.63194 -4.13123,14.45341 -0.67355,3.67348 -0.79128,5.03386 -1.00668,6.77005 -13.02077,3.33177 -21.30765,-5.56979 -21.30765,-5.56979 l -0.42998,-0.45097 -0.53249,-0.32187 c -12.56346,-7.59201 -22.9558,-7.06789 -29.68727,-3.90661 -6.73148,3.16128 -9.95415,8.69418 -9.95415,8.69418 l 0.34404,-0.50957 c -7.65989,9.84889 -27.285253,10.18468 -27.285253,10.18468 l -0.149727,-0.005 -0.150851,0.006 c -11.873865,0.47306 -19.984809,5.27224 -24.835758,10.0261 -4.850949,4.75385 -6.749581,9.75843 -6.749581,9.75843 l -0.07558,0.20601 -0.05692,0.21296 c -1.150446,4.29344 -6.10877,8.7011 -11.285018,11.68959 -5.176161,2.98849 -9.974215,4.53126 -9.974215,4.53126 l -0.188071,0.0607 -0.182937,0.0774 c -10.964667,4.55719 -16.816803,9.68456 -19.868201,14.14144 -1.525748,2.2284 -2.327757,4.26958 -2.717982,5.84935 -0.3903209,1.57975 -0.3461973,3.1083 -0.3461973,3.1083 l 0.027971,0.39611 0.092354,0.38687 c -0.1254749,-0.51814 0.012126,0.41195 -0.1013113,1.44807 -0.1135345,1.03607 -0.3381702,2.34628 -0.589031,3.59213 -0.5018026,2.49171 -1.0887802,4.69006 -1.0887802,4.69006 l -0.1438503,0.53679 -0.013096,0.55498 c -0.3406035,13.79738 -1.8024452,22.0752 -3.0721094,26.71351 -0.6348362,2.31912 -1.2189197,3.72924 -1.5796691,4.47355 -0.3608464,0.74448 -0.2379827,0.50785 -0.2379827,0.50785 l 0.1712799,-0.19547 c -2.60995992,2.83359 -3.47876091,6.29015 -3.18975073,8.79949 0.15178087,1.31724 0.57997674,2.40731 0.97337813,3.196 3.7147874,27.36268 22.135504,44.20102 24.85283,46.55328 5.071397,15.16548 17.384282,26.24528 17.384282,26.24528 l -0.386594,-0.40162 c 7.307819,8.54791 18.059321,10.31318 26.414399,10.15812 6.305523,-0.11698 10.642074,-1.13599 12.890631,-1.7297 6.703768,4.34671 13.260418,5.27794 18.081891,4.61309 2.4105,-0.3325 4.40755,-1.01869 5.9457,-1.66841 0.76487,0.37429 1.5265,0.71197 2.23325,0.97196 0.74558,0.27421 0.84725,0.27566 1.41474,0.45069 6.12565,10.20315 18.48154,11.67367 18.76252,11.70318 8.33466,1.32071 15.14478,-2.59269 19.46155,-6.43527 0.31327,-0.2789 0.43007,-0.5102 0.72309,-0.79096 1.58648,3.82706 2.96827,6.02361 3.29787,6.50301 5.56975,14.25059 18.6782,19.38963 29.40442,20.50606 10.84302,1.12864 20.20339,-1.22241 20.22203,-1.22702 15.06334,-3.60289 22.92641,-12.84466 26.36291,-20.984 3.37511,-7.99414 2.90933,-15.05545 2.89141,-15.31753 0.10085,-5.86841 -1.90916,-13.10425 -3.83642,-19.57251 -1.54273,-5.17792 -2.51648,-7.7888 -3.10989,-9.45002 0.84053,-0.74722 2.04882,-1.66802 3.25019,-2.51321 2.40939,-1.69518 4.74797,-3.09092 4.74797,-3.09092 l -0.44995,0.23598 c 7.8685,-3.59577 12.58539,-10.98036 15.65265,-17.18362 3.05122,-6.17107 4.43525,-11.58013 4.44971,-11.63664 2.08726,-7.80392 0.60993,-17.14481 -1.02263,-24.99069 -1.55327,-7.46511 -3.39107,-13.12866 -3.57802,-13.70086 -1.70505,-14.77153 -7.13682,-24.86328 -9.5491,-28.72778 0.97917,-3.95968 1.54618,-7.71747 1.85451,-10.77204 0.36699,-3.63549 0.74518,-6.64323 0.85666,-6.97058 l -0.11921,0.3113 c 3.18499,-7.5374 2.98441,-14.18147 2.8456,-16.58984 5.21432,-6.22156 8.17047,-14.87096 10.20715,-22.47206 2.21665,-8.27279 3.16494,-15.26123 3.16494,-15.26123 v -0.0367 l 0.009,-0.0345 c 0.77524,-6.43496 0.34126,-16.03154 -0.19702,-24.39023 -0.53296,-8.27645 -1.22087,-15.01143 -1.2346,-15.14606 0.45377,-17.62314 -3.24693,-40.47733 -3.24693,-40.47733 l -0.0168,-0.10059 -0.0187,-0.0975 c -3.37017,-16.46892 -9.5921,-26.68772 -15.20206,-32.74938 -5.60986,-6.06164 -11.09732,-8.13076 -11.09732,-8.13076 l -0.14459,-0.052 z m -2.71603,8.93969 c 0.12856,0.0412 2.93908,0.9548 7.25772,5.62115 4.41035,4.76546 9.81339,13.2409 12.88951,28.20806 0.0327,0.21116 3.60619,23.07755 3.12752,39.06454 l -0.009,0.3088 0.0317,0.3046 c 0,0 0.69184,6.78425 1.2176,14.94911 0.52541,8.15878 0.81807,17.87757 0.24424,22.65805 -0.0121,0.0882 -0.88764,6.45257 -2.92313,14.04898 -2.04956,7.64919 -5.57907,16.39277 -9.17547,20.05103 l -1.50195,1.52917 0.18023,2.13645 c 0,0 0.49704,7.89456 -2.13689,14.12758 l -0.0663,0.15403 -0.0532,0.15738 c -0.99456,2.91921 -0.96143,5.60715 -1.30829,9.04337 -0.34694,3.43622 -0.86181,7.35073 -2.02279,11.28714 l -0.66274,2.2483 1.41017,1.87561 c 0,0 7.2248,9.4949 9.06325,26.58482 l 0.0532,0.49144 0.15468,0.47155 c 0,0 1.91028,5.79557 3.42586,13.07919 1.51549,7.28354 2.35864,16.15369 1.14364,20.68819 l -0.009,0.0243 -0.009,0.0243 c 0,0 -1.18281,4.58657 -3.78735,9.85423 -2.60456,5.26768 -6.65405,10.77018 -11.16674,12.83238 l -0.23202,0.10567 -0.21783,0.13031 c 0,0 -2.58271,1.53592 -5.33969,3.47556 -1.37844,0.96986 -2.80903,2.03924 -4.09092,3.18017 -1.28189,1.14084 -2.52442,1.96551 -3.40777,4.47427 l -0.5574,1.58038 0.57765,1.57521 c 0,0 1.89918,5.18593 3.76488,11.44772 1.86578,6.26186 3.55628,13.9429 3.46886,16.93122 l -0.009,0.2342 0.0159,0.23452 c 0,0 0.35673,5.17608 -2.18511,11.19647 -2.54186,6.02046 -7.5306,12.57884 -19.95776,15.54535 h -0.0159 -0.0159 c 0,0 -8.07083,1.94246 -17.03621,1.00931 -8.96529,-0.93317 -17.82769,-4.14938 -21.85331,-14.95901 l -0.21232,-0.56622 -0.34889,-0.49337 c 0,0 -3.50835,-5.04972 -4.67427,-12.05921 l -2.12421,-12.77005 -6.50842,11.18878 c 0,0 -1.75057,2.97248 -4.87231,5.75126 -3.12174,2.77871 -7.03028,4.95659 -11.81649,4.19045 l -0.0654,-0.01 -0.0635,-0.01 c 0,0 -9.75378,-1.72242 -12.78623,-8.33247 l -0.91275,-1.99316 -2.11906,-0.56775 c 0,0 -1.21267,-0.32798 -2.45174,-0.78337 -0.57093,-0.21002 -1.09681,-0.44211 -1.43358,-0.61237 l -3.53474,-1.63447 -2.73094,0.8081 c 0,0 -1.70701,1.19865 -4.974843,1.64934 -3.267828,0.4507 -7.675747,0.14956 -13.216949,-4.06392 l -1.913643,-1.45411 -2.294353,0.71319 c 0,0 -5.551002,1.7073 -12.447319,1.83519 -6.896316,0.12797 -14.40881,-1.34747 -19.149774,-6.89299 l -0.180698,-0.21245 -0.205896,-0.1891 c 0,0 -11.526454,-10.96427 -15.253731,-23.3694 l -0.404227,-1.3495 -1.087187,-0.89863 c 0,0 -19.657083,-16.47496 -22.757931,-42.47407 l -0.149728,-1.2436 -0.7499551,-1.00268 c 0,0 0.1540202,0.25239 0.141239,0.14164 -0.013015,-0.11076 -0.2680155,-0.26888 0.7862451,-1.41352 l 0.08769,-0.0952 0.08396,-0.10024 c 0,0 0.780643,-1.03502 1.426675,-2.36803 0.646122,-1.333 1.417435,-3.2804 2.183066,-6.07762 1.510816,-5.51932 2.99337,-14.39699 3.373521,-28.42275 0.117924,-0.44738 0.582879,-2.16819 1.091585,-4.69313 0.284993,-1.41537 0.554229,-2.93941 0.716552,-4.42019 0.162234,-1.48075 0.35758,-2.75143 -0.104205,-4.65874 l 0.11988,0.78474 c 0,0 -0.03824,0.29621 0.09506,-0.24245 0.133025,-0.53865 0.46029,-1.50178 1.360062,-2.81593 1.799454,-2.62825 5.981524,-6.7395 15.748913,-10.79899 l -0.372222,0.13602 c 0,0 5.66359,-1.79555 11.803985,-5.34072 6.140395,-3.54518 13.35586,-8.86554 15.630252,-17.35378 l -0.134706,0.41851 c 0,0 1.059394,-2.94141 4.536287,-6.34871 3.476142,-3.40654 9.062211,-6.98137 18.671386,-7.36567 0,-1.3e-4 0,6e-5 0.0093,-3.6e-4 0.883547,0.0469 23.014939,1.08795 34.579649,-13.78164 l 0.18797,-0.24391 0.15607,-0.26564 c 0,0 1.7907,-3.04402 5.86706,-4.9584 4.05958,-1.90646 10.24681,-2.93559 20.77731,3.38854 2.12121,1.9773 15.0582,13.14474 32.99092,6.51593 l 2.71107,-1.00143 0.30833,-2.87518 c 0,0 0.46076,-4.26603 1.38572,-9.31122 0.92495,-5.04519 2.60081,-11.04596 3.76337,-13.00328 l 0.8397,-1.4161 -0.23462,-1.63043 c 0,0 -2.28223,-15.85229 -4.08299,-32.23923 -0.90033,-8.1935 -1.67854,-16.52779 -1.98921,-22.96719 -0.15532,-3.21968 -0.1891,-5.97832 -0.0867,-7.88366 0.0495,-0.93241 0.13947,-1.64642 0.21307,-2.0273 l 0.50219,-0.60677 0.14133,-1.41461 c 0,0 1.01153,-8.86166 6.16287,-16.15751 5.1313,-7.26736 13.28459,-13.3229 31.7137,-8.23222 z"
       id="path2564"
       inkscape:connector-curvature="0"
       sodipodi:nodetypes="csccsssccccccscccccsccsscccccccccccccccccsccccscccccccccscscccsccccsccccccscccsccccscccccccccscsccccccscccccccsccccccsccccscccccccccccscccccccccccccccccccccccccccccccccccsccscccsccccccccsccccccccssccccccc" />
    <path
       style="color:#000000;font-style:normal;font-variant:normal;font-weight:normal;font-stretch:normal;font-size:medium;line-height:normal;font-family:sans-serif;font-variant-ligatures:normal;font-variant-position:normal;font-variant-caps:normal;font-variant-numeric:normal;font-variant-alternates:normal;font-feature-settings:normal;text-indent:0;text-align:start;text-decoration:none;text-decoration-line:none;text-decoration-style:solid;text-decoration-color:#000000;letter-spacing:normal;word-spacing:normal;text-transform:none;writing-mode:lr-tb;direction:ltr;text-orientation:mixed;dominant-baseline:auto;baseline-shift:baseline;text-anchor:start;white-space:normal;shape-padding:0;clip-rule:nonzero;display:inline;overflow:visible;visibility:visible;opacity:1;isolation:auto;mix-blend-mode:normal;color-interpolation:sRGB;color-interpolation-filters:linearRGB;solid-color:#000000;solid-opacity:1;vector-effect:none;fill:#000000;fill-opacity:1;fill-rule:nonzero;stroke:none;stroke-width:9.3289299;stroke-linecap:butt;stroke-linejoin:miter;stroke-miterlimit:4;stroke-dasharray:none;stroke-dashoffset:0;stroke-opacity:1;color-rendering:auto;image-rendering:auto;shape-rendering:auto;text-rendering:auto;enable-background:accumulate"
       d="m 219.41844,753.80419 c -5.79494,-1.66795 -19.18718,-3.86714 -33.6167,5.22482 l -0.36542,0.23032 -0.31606,0.29257 c 0,0 -5.07027,4.66903 -9.70312,10.72128 -2.31647,3.02622 -4.56558,6.40647 -6.07183,10.03066 -1.50624,3.6242 -2.43392,7.79059 -0.74109,11.89653 l -0.2572,-0.8423 c 0,0 2.25863,13.57913 12.41065,21.12491 0.16941,0.2123 3.45208,4.31309 7.03634,9.77017 3.6756,5.59612 7.27424,12.7563 7.6418,15.76128 l 0.0308,0.25158 0.0588,0.24576 c 0,0 1.26482,5.38845 2.80297,11.53906 1.53814,6.15071 3.25383,12.8458 4.54729,16.43357 v 4.9e-4 c 0,0 9.76124,27.21336 11.45014,33.24183 l 8.98394,-2.51791 c -2.17419,-7.76083 -11.65881,-33.8859 -11.65984,-33.88849 h 5.6e-4 c -0.87459,-2.42615 -2.75567,-9.45746 -4.27433,-15.53047 -1.51884,-6.07358 -2.7707,-11.40576 -2.7707,-11.40576 l 0.0887,0.49903 c -0.83643,-6.83752 -5.15844,-13.74257 -9.10438,-19.75034 -3.94596,-6.00762 -7.72875,-10.72726 -7.72875,-10.72726 l -0.44367,-0.55457 -0.58951,-0.39758 c -6.31381,-4.25819 -9.34357,-15.96445 -9.34357,-15.96445 l -0.0876,-0.43286 -0.16942,-0.40945 c -0.28108,-0.68185 -0.2738,-2.33942 0.73195,-4.75926 1.00575,-2.41991 2.84514,-5.30265 4.86494,-7.94143 3.78839,-4.949 7.76485,-8.71093 8.28177,-9.19694 14.49902,-8.95163 25.2507,-4.39909 26.6951,-3.71611 11.19566,9.44278 5.95847,27.81658 5.95847,27.81658 l -0.65087,2.11935 5.57693,8.32477 7.74983,-5.19147 -3.21587,-4.80225 c 1.33982,-5.33269 4.85888,-24.07557 -9.90434,-35.88536 l -0.40861,-0.32642 -0.47084,-0.22803 c 0,0 -1.08709,-0.49809 -3.01865,-1.05407 z"
       id="path2566"
       inkscape:connector-curvature="0" />
    <path
       style="color:#000000;font-style:normal;font-variant:normal;font-weight:normal;font-stretch:normal;font-size:medium;line-height:normal;font-family:sans-serif;font-variant-ligatures:normal;font-variant-position:normal;font-variant-caps:normal;font-variant-numeric:normal;font-variant-alternates:normal;font-feature-settings:normal;text-indent:0;text-align:start;text-decoration:none;text-decoration-line:none;text-decoration-style:solid;text-decoration-color:#000000;letter-spacing:normal;word-spacing:normal;text-transform:none;writing-mode:lr-tb;direction:ltr;text-orientation:mixed;dominant-baseline:auto;baseline-shift:baseline;text-anchor:start;white-space:normal;shape-padding:0;clip-rule:nonzero;display:inline;overflow:visible;visibility:visible;opacity:1;isolation:auto;mix-blend-mode:normal;color-interpolation:sRGB;color-interpolation-filters:linearRGB;solid-color:#000000;solid-opacity:1;vector-effect:none;fill:#000000;fill-opacity:1;fill-rule:nonzero;stroke:none;stroke-width:9.3289299;stroke-linecap:butt;stroke-linejoin:miter;stroke-miterlimit:4;stroke-dasharray:none;stroke-dashoffset:0;stroke-opacity:1;color-rendering:auto;image-rendering:auto;shape-rendering:auto;text-rendering:auto;enable-background:accumulate"
       d="m 127.33294,803.26094 -9.00102,2.45492 c -0.0914,-0.33533 0.20506,1.5225 0.30581,3.46983 0.10074,1.94732 0.16297,4.34582 0.19917,6.65547 0.0728,4.61931 0.043,8.88091 0.043,8.88091 v -0.13517 c -0.68194,18.94266 9.64789,38.06405 9.99483,38.70133 1.39207,3.01185 4.77819,14.09262 7.45027,23.7344 2.65585,9.5831 4.8268,18.07329 4.85338,18.17749 2.31423,15.26411 5.10824,25.41382 5.10824,25.41382 l 8.98759,-2.49624 c 0,0 -2.68309,-9.6476 -4.93444,-24.65423 l -0.0354,-0.23396 -0.0598,-0.22902 c 0,0 -2.22794,-8.72051 -4.92987,-18.46965 -2.70185,-9.74906 -5.62666,-20.08147 -7.9726,-25.15706 l -0.0522,-0.11399 -0.057,-0.10979 c 0,0 -9.58314,-18.86682 -9.03012,-34.22688 v -0.0671 l 8e-4,-0.0671 c 0,0 0.0308,-4.3447 -0.0438,-9.0944 -0.0374,-2.37489 -0.10056,-4.85133 -0.21121,-6.99073 -0.11064,-2.13941 -0.11204,-3.57815 -0.62046,-5.44229 z"
       id="path2570"
       inkscape:connector-curvature="0" />
    <path
       style="color:#000000;font-style:normal;font-variant:normal;font-weight:normal;font-stretch:normal;font-size:medium;line-height:normal;font-family:sans-serif;font-variant-ligatures:normal;font-variant-position:normal;font-variant-caps:normal;font-variant-numeric:normal;font-variant-alternates:normal;font-feature-settings:normal;text-indent:0;text-align:start;text-decoration:none;text-decoration-line:none;text-decoration-style:solid;text-decoration-color:#000000;letter-spacing:normal;word-spacing:normal;text-transform:none;writing-mode:lr-tb;direction:ltr;text-orientation:mixed;dominant-baseline:auto;baseline-shift:baseline;text-anchor:start;white-space:normal;shape-padding:0;clip-rule:nonzero;display:inline;overflow:visible;visibility:visible;opacity:1;isolation:auto;mix-blend-mode:normal;color-interpolation:sRGB;color-interpolation-filters:linearRGB;solid-color:#000000;solid-opacity:1;vector-effect:none;fill:#000000;fill-opacity:1;fill-rule:nonzero;stroke:none;stroke-width:9.3289299;stroke-linecap:butt;stroke-linejoin:miter;stroke-miterlimit:4;stroke-dasharray:none;stroke-dashoffset:0;stroke-opacity:1;color-rendering:auto;image-rendering:auto;shape-rendering:auto;text-rendering:auto;enable-background:accumulate"
       d="m 121.46309,804.15352 -8.88768,2.83423 c 0,0 1.61391,5.06079 3.23574,10.53638 0.81087,2.73788 1.62342,5.58012 2.22514,7.89439 0.60171,2.31442 0.94324,4.60613 0.9299,4.17476 l 9.32343,-0.2861 c -0.0672,-2.17853 -0.57699,-3.74549 -1.22451,-6.23607 -0.64753,-2.49067 -1.4806,-5.40073 -2.30846,-8.19593 -1.65578,-5.59054 -3.29356,-10.72166 -3.29356,-10.72166 z"
       id="path2572"
       inkscape:connector-curvature="0" />
    <path
       style="color:#000000;font-style:normal;font-variant:normal;font-weight:normal;font-stretch:normal;font-size:medium;line-height:normal;font-family:sans-serif;font-variant-ligatures:normal;font-variant-position:normal;font-variant-caps:normal;font-variant-numeric:normal;font-variant-alternates:normal;font-feature-settings:normal;text-indent:0;text-align:start;text-decoration:none;text-decoration-line:none;text-decoration-style:solid;text-decoration-color:#000000;letter-spacing:normal;word-spacing:normal;text-transform:none;writing-mode:lr-tb;direction:ltr;text-orientation:mixed;dominant-baseline:auto;baseline-shift:baseline;text-anchor:start;white-space:normal;shape-padding:0;clip-rule:nonzero;display:inline;overflow:visible;visibility:visible;opacity:1;isolation:auto;mix-blend-mode:normal;color-interpolation:sRGB;color-interpolation-filters:linearRGB;solid-color:#000000;solid-opacity:1;vector-effect:none;fill:#000000;fill-opacity:1;fill-rule:nonzero;stroke:none;stroke-width:9.3289299;stroke-linecap:butt;stroke-linejoin:miter;stroke-miterlimit:4;stroke-dasharray:none;stroke-dashoffset:0;stroke-opacity:1;color-rendering:auto;image-rendering:auto;shape-rendering:auto;text-rendering:auto;enable-background:accumulate"
       d="m 67.610054,809.64519 -9.057458,2.23609 c 0,0 7.274892,29.81081 8.445202,48.15928 l 0.01957,0.31456 0.06249,0.30906 c 3.389576,16.82872 6.997822,33.88339 12.607676,47.27511 2.805024,6.69574 6.106345,12.5213 10.444579,16.93099 4.338329,4.40969 9.964327,7.33496 16.358657,7.47497 l 0.20505,-9.32577 c -3.83074,-0.084 -6.840257,-1.56769 -9.913669,-4.69175 -3.073418,-3.12398 -5.960909,-7.95711 -8.489235,-13.99262 C 83.245119,892.28545 79.61346,875.62868 76.244684,858.90773 74.873523,838.81921 67.6102,809.64519 67.6102,809.64519 Z"
       id="path2574"
       inkscape:connector-curvature="0" />
    <path
       style="color:#000000;font-style:normal;font-variant:normal;font-weight:normal;font-stretch:normal;font-size:medium;line-height:normal;font-family:sans-serif;font-variant-ligatures:normal;font-variant-position:normal;font-variant-caps:normal;font-variant-numeric:normal;font-variant-alternates:normal;font-feature-settings:normal;text-indent:0;text-align:start;text-decoration:none;text-decoration-line:none;text-decoration-style:solid;text-decoration-color:#000000;letter-spacing:normal;word-spacing:normal;text-transform:none;writing-mode:lr-tb;direction:ltr;text-orientation:mixed;dominant-baseline:auto;baseline-shift:baseline;text-anchor:start;white-space:normal;shape-padding:0;clip-rule:nonzero;display:inline;overflow:visible;visibility:visible;opacity:1;isolation:auto;mix-blend-mode:normal;color-interpolation:sRGB;color-interpolation-filters:linearRGB;solid-color:#000000;solid-opacity:1;vector-effect:none;fill:#000000;fill-opacity:1;fill-rule:nonzero;stroke:none;stroke-width:9.3289299;stroke-linecap:butt;stroke-linejoin:miter;stroke-miterlimit:4;stroke-dasharray:none;stroke-dashoffset:0;stroke-opacity:1;color-rendering:auto;image-rendering:auto;shape-rendering:auto;text-rendering:auto;enable-background:accumulate"
       d="m 17.965219,859.97459 -8.3827909,4.08997 c 1.6145609,3.30911 4.1312209,5.4422 6.2207199,6.91466 0.831485,0.58594 1.530315,0.98368 2.187916,1.35968 2.278306,10.50687 7.589545,22.70027 7.589545,22.70027 l 8.561161,-3.70652 c 0,0 -6.000458,-14.18988 -7.520514,-22.89495 l -0.383417,-2.19461 -1.947694,-1.0803 c -0.66516,-0.36928 -0.730642,-0.36815 -1.2526,-0.65441 -0.522045,-0.28635 -1.183559,-0.67826 -1.859907,-1.15475 -1.352511,-0.95312 -2.670777,-2.26907 -3.212419,-3.37904 z"
       id="path2576"
       inkscape:connector-curvature="0" />
    <path
       style="color:#000000;font-style:normal;font-variant:normal;font-weight:normal;font-stretch:normal;font-size:medium;line-height:normal;font-family:sans-serif;font-variant-ligatures:normal;font-variant-position:normal;font-variant-caps:normal;font-variant-numeric:normal;font-variant-alternates:normal;font-feature-settings:normal;text-indent:0;text-align:start;text-decoration:none;text-decoration-line:none;text-decoration-style:solid;text-decoration-color:#000000;letter-spacing:normal;word-spacing:normal;text-transform:none;writing-mode:lr-tb;direction:ltr;text-orientation:mixed;dominant-baseline:auto;baseline-shift:baseline;text-anchor:start;white-space:normal;shape-padding:0;clip-rule:nonzero;display:inline;overflow:visible;visibility:visible;opacity:1;isolation:auto;mix-blend-mode:normal;color-interpolation:sRGB;color-interpolation-filters:linearRGB;solid-color:#000000;solid-opacity:1;vector-effect:none;fill:#000000;fill-opacity:1;fill-rule:nonzero;stroke:none;stroke-width:9.3289299;stroke-linecap:butt;stroke-linejoin:miter;stroke-miterlimit:4;stroke-dasharray:none;stroke-dashoffset:0;stroke-opacity:1;color-rendering:auto;image-rendering:auto;shape-rendering:auto;text-rendering:auto;enable-background:accumulate"
       d="m 197.28107,894.50084 c -5.56125,-1.83971 -11.22558,-1.88773 -16.4441,-0.29208 -13.91588,4.2552 -23.86153,19.21631 -21.52623,36.92911 l 0.85725,6.50181 5.85921,-2.94403 c 0,0 26.50573,-12.9251 50.63547,-8.85123 l 8.60818,1.45387 -3.57597,-7.96399 c -6.16185,-13.72173 -15.14496,-21.76712 -24.41381,-24.83346 z m -2.55482,8.65463 c 4.95683,1.58442 9.99027,5.53412 14.50807,12.67781 -16.8388,-0.6372 -32.33388,4.27985 -40.75622,7.63908 0.90192,-10.39386 7.36472,-17.98136 15.08609,-20.34244 3.46859,-1.06057 7.28841,-1.21255 11.16206,0.0251 z"
       id="path2578"
       inkscape:connector-curvature="0" />
    <path
       style="color:#000000;font-style:normal;font-variant:normal;font-weight:normal;font-stretch:normal;font-size:medium;line-height:normal;font-family:sans-serif;font-variant-ligatures:normal;font-variant-position:normal;font-variant-caps:normal;font-variant-numeric:normal;font-variant-alternates:normal;font-feature-settings:normal;text-indent:0;text-align:start;text-decoration:none;text-decoration-line:none;text-decoration-style:solid;text-decoration-color:#000000;letter-spacing:normal;word-spacing:normal;text-transform:none;writing-mode:lr-tb;direction:ltr;text-orientation:mixed;dominant-baseline:auto;baseline-shift:baseline;text-anchor:start;white-space:normal;shape-padding:0;clip-rule:nonzero;display:inline;overflow:visible;visibility:visible;opacity:1;isolation:auto;mix-blend-mode:normal;color-interpolation:sRGB;color-interpolation-filters:linearRGB;solid-color:#000000;solid-opacity:1;vector-effect:none;fill:#000000;fill-opacity:1;fill-rule:nonzero;stroke:none;stroke-width:9.3289299;stroke-linecap:butt;stroke-linejoin:miter;stroke-miterlimit:4;stroke-dasharray:none;stroke-dashoffset:0;stroke-opacity:1;color-rendering:auto;image-rendering:auto;shape-rendering:auto;text-rendering:auto;enable-background:accumulate"
       d="m 95.458504,919.62743 c 0,0 -1.469215,0.27002 -3.143663,0.48934 -1.67436,0.21949 -4.146622,0.10234 -3.294797,0.27923 l -5.160761,-0.43712 0.789044,8.1711 c 0,0 5.060572,5.76898 13.182526,6.76915 l 1.139621,-9.25826 c -0.89847,-0.11068 -1.737141,-0.39508 -2.536911,-0.7119 z"
       id="path2580"
       inkscape:connector-curvature="0"
       sodipodi:nodetypes="ccccccccc" />
    <path
       style="color:#000000;font-style:normal;font-variant:normal;font-weight:normal;font-stretch:normal;font-size:medium;line-height:normal;font-family:sans-serif;font-variant-ligatures:normal;font-variant-position:normal;font-variant-caps:normal;font-variant-numeric:normal;font-variant-alternates:normal;font-feature-settings:normal;text-indent:0;text-align:start;text-decoration:none;text-decoration-line:none;text-decoration-style:solid;text-decoration-color:#000000;letter-spacing:normal;word-spacing:normal;text-transform:none;writing-mode:lr-tb;direction:ltr;text-orientation:mixed;dominant-baseline:auto;baseline-shift:baseline;text-anchor:start;white-space:normal;shape-padding:0;clip-rule:nonzero;display:inline;overflow:visible;visibility:visible;opacity:1;isolation:auto;mix-blend-mode:normal;color-interpolation:sRGB;color-interpolation-filters:linearRGB;solid-color:#000000;solid-opacity:1;vector-effect:none;fill:#000000;fill-opacity:1;fill-rule:nonzero;stroke:none;stroke-width:9.3289299;stroke-linecap:butt;stroke-linejoin:miter;stroke-miterlimit:4;stroke-dasharray:none;stroke-dashoffset:0;stroke-opacity:1;color-rendering:auto;image-rendering:auto;shape-rendering:auto;text-rendering:auto;enable-background:accumulate"
       d="m 150.22791,915.65074 -8.41516,6.82225 c -4.06667,3.29641 -9.79762,4.92093 -14.77946,5.5055 -2.49091,0.29224 -4.77417,0.3384 -6.48594,0.28424 -1.71176,-0.0542 -3.3668,-0.38909 -2.66079,-0.19993 l -4.43256,7.87612 c 6.88634,6.59291 14.95989,9.76629 22.32937,8.23352 7.36957,-1.53269 12.90639,-8.43652 13.61753,-17.71952 z"
       id="path2582"
       inkscape:connector-curvature="0" />
    <path
       style="color:#000000;font-style:normal;font-variant:normal;font-weight:normal;font-stretch:normal;font-size:medium;line-height:normal;font-family:sans-serif;font-variant-ligatures:normal;font-variant-position:normal;font-variant-caps:normal;font-variant-numeric:normal;font-variant-alternates:normal;font-feature-settings:normal;text-indent:0;text-align:start;text-decoration:none;text-decoration-line:none;text-decoration-style:solid;text-decoration-color:#000000;letter-spacing:normal;word-spacing:normal;text-transform:none;writing-mode:lr-tb;direction:ltr;text-orientation:mixed;dominant-baseline:auto;baseline-shift:baseline;text-anchor:start;white-space:normal;shape-padding:0;clip-rule:nonzero;display:inline;overflow:visible;visibility:visible;opacity:1;isolation:auto;mix-blend-mode:normal;color-interpolation:sRGB;color-interpolation-filters:linearRGB;solid-color:#000000;solid-opacity:1;vector-effect:none;fill:#000000;fill-opacity:1;fill-rule:nonzero;stroke:none;stroke-width:9.3289299;stroke-linecap:butt;stroke-linejoin:miter;stroke-miterlimit:4;stroke-dasharray:none;stroke-dashoffset:0;stroke-opacity:1;color-rendering:auto;image-rendering:auto;shape-rendering:auto;text-rendering:auto;enable-background:accumulate"
       d="m 230.41454,779.96193 -6.14347,9.76991 c 0,0 -3.16017,5.01813 -6.13955,11.01596 -1.48975,2.99892 -2.95009,6.25014 -3.98421,9.42044 -1.03419,3.1703 -1.87922,6.15725 -1.09885,9.62011 l 0.35655,1.58386 1.26239,1.01926 c 0,0 1.589,1.29937 3.81059,2.37166 2.2216,1.07229 5.49363,2.35428 9.33397,0.9769 3.84043,-1.37755 6.41971,-5.55045 7.1177,-10.93502 0.69808,-5.38456 0.13275,-12.69551 -2.14472,-23.54835 z m -4.76073,26.89106 c 0.18928,2.78549 0.22855,5.1903 0.0261,6.75249 -0.46131,3.55842 -1.09299,3.38008 -1.01732,3.35292 0.0756,-0.0267 -0.97142,-0.038 -2.12821,-0.59654 -0.14133,-0.0679 -0.11344,-0.0801 -0.24452,-0.15052 0.12073,-0.84124 0.33361,-1.94385 0.72692,-3.1496 0.61374,-1.88136 1.64208,-4.07703 2.63701,-6.20875 z"
       id="path2584"
       inkscape:connector-curvature="0" />
    <path
       style="color:#000000;font-style:normal;font-variant:normal;font-weight:normal;font-stretch:normal;font-size:medium;line-height:normal;font-family:sans-serif;font-variant-ligatures:normal;font-variant-position:normal;font-variant-caps:normal;font-variant-numeric:normal;font-variant-alternates:normal;font-feature-settings:normal;text-indent:0;text-align:start;text-decoration:none;text-decoration-line:none;text-decoration-style:solid;text-decoration-color:#000000;letter-spacing:normal;word-spacing:normal;text-transform:none;writing-mode:lr-tb;direction:ltr;text-orientation:mixed;dominant-baseline:auto;baseline-shift:baseline;text-anchor:start;white-space:normal;shape-padding:0;clip-rule:nonzero;display:inline;overflow:visible;visibility:visible;opacity:1;isolation:auto;mix-blend-mode:normal;color-interpolation:sRGB;color-interpolation-filters:linearRGB;solid-color:#000000;solid-opacity:1;vector-effect:none;fill:#000000;fill-opacity:1;fill-rule:nonzero;stroke:none;stroke-width:9.3289299;stroke-linecap:butt;stroke-linejoin:miter;stroke-miterlimit:4;stroke-dasharray:none;stroke-dashoffset:0;stroke-opacity:1;color-rendering:auto;image-rendering:auto;shape-rendering:auto;text-rendering:auto;enable-background:accumulate"
       d="m 237.5787,703.62894 c -16.07711,12.54704 -34.72694,5.17255 -34.72694,5.17255 l -3.42327,8.67851 c 0,0 23.6454,9.3045 43.89059,-6.49548 z"
       id="path2586"
       inkscape:connector-curvature="0" />
    <path
       style="color:#000000;font-style:normal;font-variant:normal;font-weight:normal;font-stretch:normal;font-size:medium;line-height:normal;font-family:sans-serif;font-variant-ligatures:normal;font-variant-position:normal;font-variant-caps:normal;font-variant-numeric:normal;font-variant-alternates:normal;font-feature-settings:normal;text-indent:0;text-align:start;text-decoration:none;text-decoration-line:none;text-decoration-style:solid;text-decoration-color:#000000;letter-spacing:normal;word-spacing:normal;text-transform:none;writing-mode:lr-tb;direction:ltr;text-orientation:mixed;dominant-baseline:auto;baseline-shift:baseline;text-anchor:start;white-space:normal;shape-padding:0;clip-rule:nonzero;display:inline;overflow:visible;visibility:visible;opacity:1;isolation:auto;mix-blend-mode:normal;color-interpolation:sRGB;color-interpolation-filters:linearRGB;solid-color:#000000;solid-opacity:1;vector-effect:none;fill:#000000;fill-opacity:1;fill-rule:nonzero;stroke:none;stroke-width:9.3289299;stroke-linecap:butt;stroke-linejoin:miter;stroke-miterlimit:4;stroke-dasharray:none;stroke-dashoffset:0;stroke-opacity:1;color-rendering:auto;image-rendering:auto;shape-rendering:auto;text-rendering:auto;enable-background:accumulate"
       d="m 233.40858,744.19761 c -11.00358,5.36343 -18.35197,5.63113 -23.99299,4.77591 -5.64111,-0.85523 -9.2475,-3.41515 -14.76752,-3.508 l -0.15653,9.32748 c 1.13057,0.0191 6.24721,2.30007 13.52602,3.40357 7.2788,1.10353 17.04508,0.44723 29.4783,-5.61309 z"
       id="path2588"
       inkscape:connector-curvature="0" />
    <path
       style="color:#000000;font-style:normal;font-variant:normal;font-weight:normal;font-stretch:normal;font-size:medium;line-height:normal;font-family:sans-serif;font-variant-ligatures:normal;font-variant-position:normal;font-variant-caps:normal;font-variant-numeric:normal;font-variant-alternates:normal;font-feature-settings:normal;text-indent:0;text-align:start;text-decoration:none;text-decoration-line:none;text-decoration-style:solid;text-decoration-color:#000000;letter-spacing:normal;word-spacing:normal;text-transform:none;writing-mode:lr-tb;direction:ltr;text-orientation:mixed;dominant-baseline:auto;baseline-shift:baseline;text-anchor:start;white-space:normal;shape-padding:0;clip-rule:nonzero;display:inline;overflow:visible;visibility:visible;opacity:1;isolation:auto;mix-blend-mode:normal;color-interpolation:sRGB;color-interpolation-filters:linearRGB;solid-color:#000000;solid-opacity:1;vector-effect:none;fill:#000000;fill-opacity:1;fill-rule:nonzero;stroke:none;stroke-width:9.3289299;stroke-linecap:butt;stroke-linejoin:miter;stroke-miterlimit:4;stroke-dasharray:none;stroke-dashoffset:0;stroke-opacity:1;color-rendering:auto;image-rendering:auto;shape-rendering:auto;text-rendering:auto;enable-background:accumulate"
       d="m 174.92038,757.16026 -9.10523,2.0271 c 0,0 0.9258,4.16381 2.15032,8.7157 0.61226,2.27595 1.29653,4.65114 2.01336,6.74176 0.71685,2.09051 1.07909,3.63604 2.67228,5.59222 l 7.23393,-5.89187 c 0.46216,0.56748 -0.47922,-0.97049 -1.08075,-2.72488 -0.60153,-1.75433 -1.25111,-3.9839 -1.83127,-6.1402 -1.16014,-4.31262 -2.05264,-8.31983 -2.05264,-8.31983 z"
       id="path2590"
       inkscape:connector-curvature="0" />
    <path
       style="color:#000000;font-style:normal;font-variant:normal;font-weight:normal;font-stretch:normal;font-size:medium;line-height:normal;font-family:sans-serif;font-variant-ligatures:normal;font-variant-position:normal;font-variant-caps:normal;font-variant-numeric:normal;font-variant-alternates:normal;font-feature-settings:normal;text-indent:0;text-align:start;text-decoration:none;text-decoration-line:none;text-decoration-style:solid;text-decoration-color:#000000;letter-spacing:normal;word-spacing:normal;text-transform:none;writing-mode:lr-tb;direction:ltr;text-orientation:mixed;dominant-baseline:auto;baseline-shift:baseline;text-anchor:start;white-space:normal;shape-padding:0;clip-rule:nonzero;display:inline;overflow:visible;visibility:visible;opacity:1;isolation:auto;mix-blend-mode:normal;color-interpolation:sRGB;color-interpolation-filters:linearRGB;solid-color:#000000;solid-opacity:1;vector-effect:none;fill:#000000;fill-opacity:1;fill-rule:nonzero;stroke:none;stroke-width:9.3289299;stroke-linecap:butt;stroke-linejoin:miter;stroke-miterlimit:4;stroke-dasharray:none;stroke-dashoffset:0;stroke-opacity:1;color-rendering:auto;image-rendering:auto;shape-rendering:auto;text-rendering:auto;enable-background:accumulate"
       d="m 138.43932,912.92967 c -1.66122,5.32127 -7.46548,8.76044 -13.70617,10.72207 -6.24068,1.96155 -12.03255,2.24434 -12.03255,2.24434 l 0.4173,9.31906 c 0,0 6.84014,-0.28319 14.41215,-2.66317 7.57202,-2.37999 16.76074,-7.05897 19.81466,-16.8419 z"
       id="path2592"
       inkscape:connector-curvature="0" />
    <path
       style="color:#000000;font-style:normal;font-variant:normal;font-weight:normal;font-stretch:normal;font-size:medium;line-height:normal;font-family:sans-serif;font-variant-ligatures:normal;font-variant-position:normal;font-variant-caps:normal;font-variant-numeric:normal;font-variant-alternates:normal;font-feature-settings:normal;text-indent:0;text-align:start;text-decoration:none;text-decoration-line:none;text-decoration-style:solid;text-decoration-color:#000000;letter-spacing:normal;word-spacing:normal;text-transform:none;writing-mode:lr-tb;direction:ltr;text-orientation:mixed;dominant-baseline:auto;baseline-shift:baseline;text-anchor:start;white-space:normal;shape-padding:0;clip-rule:nonzero;display:inline;overflow:visible;visibility:visible;opacity:1;isolation:auto;mix-blend-mode:normal;color-interpolation:sRGB;color-interpolation-filters:linearRGB;solid-color:#000000;solid-opacity:1;vector-effect:none;fill:#000000;fill-opacity:1;fill-rule:nonzero;stroke:none;stroke-width:9.3289299;stroke-linecap:butt;stroke-linejoin:miter;stroke-miterlimit:4;stroke-dasharray:none;stroke-dashoffset:0;stroke-opacity:1;color-rendering:auto;image-rendering:auto;shape-rendering:auto;text-rendering:auto;enable-background:accumulate"
       d="m 88.158988,918.87875 c 0.03452,-0.0453 7.43e-4,0.01 -0.184151,0.12426 -0.369989,0.2325 -1.163882,0.57284 -2.013281,0.81868 -1.698798,0.49177 -3.411217,0.65725 -3.411217,0.65725 l 0.799212,9.29497 c 0,0 2.457516,-0.19467 5.207689,-0.9908 1.375082,-0.39807 2.875177,-0.93421 4.382453,-1.88159 1.507275,-0.94731 3.20663,-2.44807 3.932891,-4.87114 l -8.936842,-2.67749 c 0.08396,-0.28254 0.188452,-0.4283 0.223246,-0.47414 z"
       id="path2594"
       inkscape:connector-curvature="0" />
    <path
       style="color:#000000;font-style:normal;font-variant:normal;font-weight:normal;font-stretch:normal;font-size:medium;line-height:normal;font-family:sans-serif;font-variant-ligatures:normal;font-variant-position:normal;font-variant-caps:normal;font-variant-numeric:normal;font-variant-alternates:normal;font-feature-settings:normal;text-indent:0;text-align:start;text-decoration:none;text-decoration-line:none;text-decoration-style:solid;text-decoration-color:#000000;letter-spacing:normal;word-spacing:normal;text-transform:none;writing-mode:lr-tb;direction:ltr;text-orientation:mixed;dominant-baseline:auto;baseline-shift:baseline;text-anchor:start;white-space:normal;shape-padding:0;clip-rule:nonzero;display:inline;overflow:visible;visibility:visible;opacity:1;isolation:auto;mix-blend-mode:normal;color-interpolation:sRGB;color-interpolation-filters:linearRGB;solid-color:#000000;solid-opacity:1;vector-effect:none;fill:#000000;fill-opacity:1;fill-rule:nonzero;stroke:none;stroke-width:9.3289299;stroke-linecap:butt;stroke-linejoin:miter;stroke-miterlimit:4;stroke-dasharray:none;stroke-dashoffset:0;stroke-opacity:1;color-rendering:auto;image-rendering:auto;shape-rendering:auto;text-rendering:auto;enable-background:accumulate"
       d="m 175.09874,728.24343 c 0,0 -2.72871,6.1695 -0.95865,13.68691 l 9.08061,-2.13933 c -1.04214,-4.42615 0.4198,-7.7969 0.4198,-7.7969 z"
       id="path2596"
       inkscape:connector-curvature="0" />
    <path
       inkscape:connector-curvature="0"
       id="path10-9-0-6"
       d="M 548.85495,-33.529329 C 473.86568,-33.545659 422.34986,-3.4340961 392.71733,41.610086 363.07954,86.66257 354.80982,145.48966 361.28738,203.72114 c 6.47757,58.23156 27.73035,116.12385 59.10792,160.08882 31.37765,43.96503 73.62349,74.59204 121.67364,74.30579 48.02749,-0.28611 89.92697,-31.23406 121.11921,-75.34743 31.19218,-44.11337 52.40483,-101.98403 59.44979,-160.07096 7.0447,-58.08682 -0.0104,-116.604072 -27.37935,-161.478065 -27.36953,-44.8738958 -75.87125,-75.008224 -146.40364,-74.748624 z m 0.0332,19.462455 h 0.0183 0.0209 c 65.13137,-0.23972 105.52846,25.766612 129.71378,65.420078 24.18541,39.6535 31.34137,94.047786 24.67657,149.000896 -6.66498,54.95322 -27.08249,110.25133 -56.02033,151.17634 -28.93758,40.925 -65.66666,66.88658 -105.34469,67.12292 -39.65576,0.23621 -76.64229,-25.4119 -105.7164,-66.14969 -29.07436,-40.73765 -49.49371,-95.97609 -55.60725,-150.934 -6.11353,-54.95806 2.10791,-109.378607 28.3466,-149.264009 26.23871,-39.885378 69.97209,-66.397741 139.91155,-66.372535 z"
       style="color:#000000;font-style:normal;font-variant:normal;font-weight:normal;font-stretch:normal;font-size:medium;line-height:normal;font-family:sans-serif;font-variant-ligatures:normal;font-variant-position:normal;font-variant-caps:normal;font-variant-numeric:normal;font-variant-alternates:normal;font-feature-settings:normal;text-indent:0;text-align:start;text-decoration:none;text-decoration-line:none;text-decoration-style:solid;text-decoration-color:#000000;letter-spacing:normal;word-spacing:normal;text-transform:none;writing-mode:lr-tb;direction:ltr;text-orientation:mixed;dominant-baseline:auto;baseline-shift:baseline;text-anchor:start;white-space:normal;shape-padding:0;clip-rule:nonzero;display:inline;overflow:visible;visibility:visible;opacity:1;isolation:auto;mix-blend-mode:normal;color-interpolation:sRGB;color-interpolation-filters:linearRGB;solid-color:#000000;solid-opacity:1;vector-effect:none;fill:#000000;fill-opacity:1;fill-rule:nonzero;stroke:none;stroke-width:19.46254158;stroke-linecap:butt;stroke-linejoin:miter;stroke-miterlimit:4;stroke-dasharray:none;stroke-dashoffset:0;stroke-opacity:1;color-rendering:auto;image-rendering:auto;shape-rendering:auto;text-rendering:auto;enable-background:accumulate" />
    <path
       inkscape:connector-curvature="0"
       id="path971-9-8"
       d="m 538.46568,200.86827 c 0,0 -1.09825,10.83244 -2.91385,22.20986 -0.90776,5.68868 -2.00034,11.51417 -3.17546,16.04037 -0.58752,2.26307 -1.20358,4.20525 -1.75482,5.54537 -0.55111,1.34012 -1.26313,2.04125 -0.75175,1.61522 -1.07694,0.89735 -2.21629,1.64661 -2.81281,4.03274 -0.29842,1.19303 -0.12879,2.97001 0.633,4.21105 0.76145,1.24116 1.75195,1.8483 2.50071,2.20066 2.99495,1.40943 4.53285,0.86855 6.56921,0.7281 4.07288,-0.2809 8.4828,-1.18873 8.4828,-1.18873 l -1.90758,-9.54255 c 0,0 -2.08048,0.26443 -3.33884,0.47105 0.64517,-1.73026 1.25615,-3.53589 1.79926,-5.62855 1.3132,-5.05816 2.43022,-11.08968 3.36547,-16.95132 1.87085,-11.72314 2.98517,-22.76404 2.98517,-22.76404 z"
       style="color:#000000;font-style:normal;font-variant:normal;font-weight:normal;font-stretch:normal;font-size:medium;line-height:normal;font-family:sans-serif;font-variant-ligatures:normal;font-variant-position:normal;font-variant-caps:normal;font-variant-numeric:normal;font-variant-alternates:normal;font-feature-settings:normal;text-indent:0;text-align:start;text-decoration:none;text-decoration-line:none;text-decoration-style:solid;text-decoration-color:#000000;letter-spacing:normal;word-spacing:normal;text-transform:none;writing-mode:lr-tb;direction:ltr;text-orientation:mixed;dominant-baseline:auto;baseline-shift:baseline;text-anchor:start;white-space:normal;shape-padding:0;clip-rule:nonzero;display:inline;overflow:visible;visibility:visible;opacity:1;isolation:auto;mix-blend-mode:normal;color-interpolation:sRGB;color-interpolation-filters:linearRGB;solid-color:#000000;solid-opacity:1;vector-effect:none;fill:#000000;fill-opacity:1;fill-rule:nonzero;stroke:none;stroke-width:9.73127079;stroke-linecap:butt;stroke-linejoin:miter;stroke-miterlimit:4;stroke-dasharray:none;stroke-dashoffset:0;stroke-opacity:1;color-rendering:auto;image-rendering:auto;shape-rendering:auto;text-rendering:auto;enable-background:accumulate" />
    <path
       style="color:#000000;font-style:normal;font-variant:normal;font-weight:normal;font-stretch:normal;font-size:medium;line-height:normal;font-family:sans-serif;font-variant-ligatures:normal;font-variant-position:normal;font-variant-caps:normal;font-variant-numeric:normal;font-variant-alternates:normal;font-feature-settings:normal;text-indent:0;text-align:start;text-decoration:none;text-decoration-line:none;text-decoration-style:solid;text-decoration-color:#000000;letter-spacing:normal;word-spacing:normal;text-transform:none;writing-mode:lr-tb;direction:ltr;text-orientation:mixed;dominant-baseline:auto;baseline-shift:baseline;text-anchor:start;white-space:normal;shape-padding:0;clip-rule:nonzero;display:inline;overflow:visible;visibility:visible;opacity:1;isolation:auto;mix-blend-mode:normal;color-interpolation:sRGB;color-interpolation-filters:linearRGB;solid-color:#000000;solid-opacity:1;vector-effect:none;fill:#000000;fill-opacity:1;fill-rule:nonzero;stroke:none;stroke-width:9.3289299;stroke-linecap:butt;stroke-linejoin:miter;stroke-miterlimit:4;stroke-dasharray:none;stroke-dashoffset:0;stroke-opacity:1;color-rendering:auto;image-rendering:auto;shape-rendering:auto;text-rendering:auto;enable-background:accumulate"
       d="m 850.67395,604.78812 c 21.40729,-5.98889 35.21268,2.1048 42.05175,11.79084 6.26469,8.87257 7.41289,17.8829 7.59559,19.48403 0.37931,0.79137 0.59549,1.51865 0.73284,2.20685 0.21317,1.06835 0.31779,2.16506 0.38375,3.39629 0.13186,2.46246 0.0809,5.43522 -0.0834,8.83338 -0.3279,6.79631 -1.12176,15.24123 -2.03317,23.5354 -1.7436,15.86712 -3.75827,29.83626 -3.94461,31.13643 2.12792,4.33534 3.24726,9.63193 4.13119,14.4534 0.6735,3.67346 0.79137,5.03389 1.00673,6.7701 13.02081,3.33174 21.30769,-5.56984 21.30769,-5.56984 l 0.42991,-0.45095 0.53251,-0.32185 c 12.56341,-7.59208 22.95573,-7.06788 29.68721,-3.90668 6.73147,3.16129 9.95416,8.69419 9.95416,8.69419 l -0.34407,-0.50955 c 7.65994,9.84893 27.28531,10.18468 27.28531,10.18468 h 0.14971 l 0.15086,0.009 c 11.87389,0.47307 19.98469,5.27224 24.83569,10.02608 4.851,4.75393 6.7496,9.75844 6.7496,9.75844 l 0.076,0.20608 0.057,0.21288 c 1.1505,4.29345 6.1088,8.70119 11.2849,11.68962 5.1763,2.98852 9.9745,4.53124 9.9745,4.53124 l 0.188,0.0607 0.183,0.0775 c 10.9646,4.55718 16.8167,9.68455 19.8681,14.14146 1.5257,2.22839 2.3278,4.26955 2.718,5.84932 0.3904,1.57976 0.3463,3.1083 0.3463,3.1083 l -0.028,0.39612 -0.093,0.38687 c 0.1256,-0.51814 -0.012,0.41196 0.1014,1.44807 0.1134,1.03607 0.338,2.34628 0.589,3.59221 0.5017,2.49164 1.0887,4.68997 1.0887,4.68997 l 0.1439,0.53679 0.013,0.55498 c 0.3406,13.79739 1.8024,22.07528 3.0721,26.71352 0.6349,2.31919 1.2191,3.72924 1.5797,4.47355 0.3608,0.74447 0.238,0.50794 0.238,0.50794 l -0.1712,-0.19557 c 2.6099,2.83368 3.4788,6.29025 3.1896,8.7995 -0.1516,1.31724 -0.5799,2.40731 -0.9734,3.19601 -3.7148,27.36267 -22.1353,44.20102 -24.8527,46.55335 -5.0714,15.16547 -17.3843,26.24527 -17.3843,26.24527 l 0.3867,-0.40162 c -7.3078,8.54791 -18.0595,10.3131 -26.4146,10.15804 -6.3054,-0.11698 -10.64203,-1.13599 -12.89057,-1.72969 -6.70374,4.3468 -13.26036,5.27801 -18.08186,4.61309 -2.41054,-0.3325 -4.40758,-1.0187 -5.94568,-1.66834 -0.76493,0.37422 -1.52655,0.71198 -2.23334,0.97196 -0.74553,0.27414 -0.84723,0.27568 -1.41465,0.4507 -6.12573,10.20315 -18.48155,11.67367 -18.76263,11.70309 -8.33456,1.32072 -15.14478,-2.59268 -19.4615,-6.43526 -0.31326,-0.27883 -0.43008,-0.5102 -0.72313,-0.79088 -1.58644,3.82698 -2.9682,6.02354 -3.29779,6.50301 -5.56977,14.25059 -18.67822,19.38964 -29.40442,20.50598 -10.84302,1.12864 -20.20339,-1.22233 -20.22206,-1.22702 -15.0633,-3.6028 -22.9264,-12.84466 -26.36283,-20.98392 -3.37515,-7.99414 -2.90942,-15.05552 -2.89147,-15.31754 -0.10089,-5.86848 1.90917,-13.10424 3.83636,-19.57257 1.54279,-5.17794 2.51653,-7.78872 3.10991,-9.45003 -0.84043,-0.74714 -2.04878,-1.66801 -3.25018,-2.51322 -2.40941,-1.69518 -4.74793,-3.09083 -4.74793,-3.09083 l 0.44989,0.23589 c -7.86843,-3.59577 -12.5854,-10.98036 -15.65255,-17.1836 -3.0513,-6.17108 -4.43532,-11.58006 -4.44979,-11.63665 -2.08717,-7.80393 -0.60986,-17.14481 1.02265,-24.99069 1.5533,-7.46512 3.39108,-13.12858 3.57799,-13.70086 1.70512,-14.77154 7.13681,-24.86329 9.54914,-28.72777 -0.97916,-3.9597 -1.54618,-7.71748 -1.85452,-10.77206 -0.36702,-3.63548 -0.74512,-6.64322 -0.85668,-6.97057 l 0.11924,0.31131 c -3.18501,-7.53741 -2.98444,-14.18147 -2.84564,-16.58983 -5.2143,-6.22156 -8.17037,-14.87097 -10.20711,-22.47208 -2.21669,-8.27271 -3.16496,-15.2612 -3.16496,-15.2612 v -0.0364 l -0.008,-0.0345 c -0.77528,-6.43501 -0.34123,-16.03159 0.19701,-24.39022 0.533,-8.27644 1.22096,-15.01146 1.23471,-15.14607 -0.45385,-17.62319 3.24686,-40.47739 3.24686,-40.47739 l 0.0162,-0.10057 0.0194,-0.0975 c 3.37015,-16.46893 9.59215,-26.68775 15.20202,-32.74941 5.60995,-6.06157 11.09734,-8.13072 11.09734,-8.13072 l 0.14455,-0.0523 z m 2.71605,8.93974 c -0.12854,0.0411 -2.9391,0.95481 -7.25768,5.62114 -4.41033,4.7654 -9.81332,13.24092 -12.88952,28.20807 -0.0332,0.21112 -3.6062,23.07754 -3.12746,39.06453 l 0.009,0.30879 -0.0316,0.30458 c 0,0 -0.69185,6.78428 -1.21765,14.94915 -0.52547,8.15871 -0.81804,17.87759 -0.24422,22.65802 0.0121,0.0886 0.88765,6.45263 2.92309,14.04899 2.04959,7.64916 5.57906,16.3928 9.17548,20.05104 l 1.50189,1.52911 -0.18013,2.13652 c 0,0 -0.49709,7.89451 2.13682,14.12753 l 0.0655,0.15403 0.0534,0.15738 c 0.99452,2.91921 0.96146,5.60715 1.30835,9.04337 0.3469,3.43622 0.86178,7.35073 2.02275,11.28714 l 0.66274,2.2483 -1.41013,1.87561 c 0,0 -7.22484,9.4949 -9.06327,26.58482 l -0.0534,0.49144 -0.15474,0.47155 c 0,0 -1.91029,5.79557 -3.42584,13.07919 -1.51545,7.28354 -2.35864,16.15369 -1.14358,20.68819 l 0.008,0.0243 0.008,0.0243 c 0,0 1.18279,4.58657 3.78728,9.85423 2.60457,5.26768 6.65411,10.77018 11.16679,12.83238 l 0.23201,0.10567 0.21787,0.13031 c 0,0 2.58266,1.53592 5.33962,3.47556 1.37851,0.96986 2.80902,2.03924 4.09101,3.18017 1.28183,1.14084 2.52429,1.96551 3.40773,4.47427 l 0.5574,1.58038 -0.57769,1.57521 c 0,0 -1.89914,5.18593 -3.76489,11.44772 -1.86576,6.26186 -3.55624,13.9429 -3.46885,16.93122 l 0.008,0.2342 -0.0162,0.23452 c 0,0 -0.35668,5.17608 2.18516,11.19647 2.54192,6.02046 7.53052,12.57884 19.95779,15.54535 h 0.0162 0.0162 c 0,0 8.07078,1.94246 17.03608,1.00931 8.96538,-0.93317 17.82776,-4.14938 21.85338,-14.95901 l 0.21237,-0.56622 0.34883,-0.49337 c 0,0 3.50838,-5.04972 4.67428,-12.05921 l 2.12412,-12.77005 6.50852,11.18878 c 0,0 1.75054,2.97248 4.87227,5.75126 3.12179,2.77871 7.03034,4.95659 11.81651,4.19045 l 0.0655,-0.01 0.0639,-0.01 c 0,0 9.75383,-1.72242 12.7863,-8.33247 l 0.9127,-1.99316 2.11904,-0.56775 c 0,0 1.21271,-0.32798 2.45169,-0.78337 0.57099,-0.21002 1.09687,-0.44211 1.43366,-0.61237 l 3.53473,-1.63447 2.73093,0.8081 c 0,0 1.70697,1.19865 4.97485,1.64934 3.2678,0.4507 7.6757,0.14956 13.21694,-4.06392 l 1.91361,-1.45411 2.29438,0.71319 c 0,0 5.55104,1.7073 12.44728,1.83519 6.8963,0.12797 14.4089,-1.34747 19.1498,-6.89299 l 0.1808,-0.21245 0.2058,-0.1891 c 0,0 11.5264,-10.96427 15.2538,-23.3694 l 0.4042,-1.3495 1.0871,-0.89863 c 0,0 19.6572,-16.47496 22.7581,-42.47407 l 0.1497,-1.2436 0.7498,-1.00268 c 0,0 -0.154,0.25239 -0.1412,0.14164 0.013,-0.11076 0.2681,-0.26888 -0.7862,-1.41352 l -0.088,-0.0952 -0.084,-0.10024 c 0,0 -0.7805,-1.03502 -1.4267,-2.36803 -0.6461,-1.333 -1.4174,-3.2804 -2.1831,-6.07762 -1.5107,-5.51932 -2.9934,-14.39699 -3.3734,-28.42275 -0.118,-0.44738 -0.5829,-2.16819 -1.0916,-4.69313 -0.2849,-1.41537 -0.5543,-2.93941 -0.7165,-4.42019 -0.1624,-1.48075 -0.3577,-2.75143 0.1042,-4.65874 l -0.1199,0.78474 c 0,0 0.038,0.29621 -0.095,-0.24245 -0.1331,-0.53865 -0.4603,-1.50178 -1.3601,-2.81593 -1.7995,-2.62825 -5.9816,-6.7395 -15.7489,-10.79899 l 0.3722,0.13602 c 0,0 -5.6637,-1.79555 -11.804,-5.34072 -6.1404,-3.54518 -13.3559,-8.86557 -15.6303,-17.35377 l 0.1347,0.41849 c 0,0 -1.0594,-2.94141 -4.5363,-6.34871 -3.4761,-3.40655 -9.06222,-6.9813 -18.67142,-7.36566 0,-9e-5 0,10e-5 -0.008,-3.7e-4 -0.88352,0.0467 -23.01491,1.08804 -34.5796,-13.78163 l -0.18796,-0.24386 -0.15611,-0.26569 c 0,0 -1.79072,-3.04402 -5.8671,-4.95842 -4.05949,-1.90645 -10.24673,-2.93553 -20.77729,3.38855 -2.12113,1.97737 -15.0582,13.14475 -32.99089,6.51598 l -2.71112,-1.00146 -0.30825,-2.87518 c 0,0 -0.4608,-4.26603 -1.3858,-9.3112 -0.92499,-5.04519 -2.60076,-11.04592 -3.76336,-13.00332 l -0.8397,-1.41603 0.23468,-1.63042 c 0,0 2.28217,-15.85237 4.08293,-32.23929 0.90033,-8.19352 1.67852,-16.52779 1.98928,-22.96718 0.15529,-3.21969 0.189,-5.97836 0.0869,-7.88369 -0.0502,-0.93234 -0.13944,-1.64637 -0.2131,-2.02727 l -0.5021,-0.60676 -0.1414,-1.41464 c 0,0 -1.01149,-8.86164 -6.16291,-16.15752 -5.13128,-7.26732 -13.28452,-13.32282 -31.71367,-8.23223 z"
       id="path2564-1"
       inkscape:connector-curvature="0"
       sodipodi:nodetypes="csccsssccccccscccccsccsscccccccccccccccccsccccscccccccccscscccsccccsccccccscccsccccscccccccccscsccccccscccccccsccccccsccccscccccccccccscccccccccccccccccccccccccccccccccccsccscccsccccccccsccccccccssccccccc" />
    <path
       style="color:#000000;font-style:normal;font-variant:normal;font-weight:normal;font-stretch:normal;font-size:medium;line-height:normal;font-family:sans-serif;font-variant-ligatures:normal;font-variant-position:normal;font-variant-caps:normal;font-variant-numeric:normal;font-variant-alternates:normal;font-feature-settings:normal;text-indent:0;text-align:start;text-decoration:none;text-decoration-line:none;text-decoration-style:solid;text-decoration-color:#000000;letter-spacing:normal;word-spacing:normal;text-transform:none;writing-mode:lr-tb;direction:ltr;text-orientation:mixed;dominant-baseline:auto;baseline-shift:baseline;text-anchor:start;white-space:normal;shape-padding:0;clip-rule:nonzero;display:inline;overflow:visible;visibility:visible;opacity:1;isolation:auto;mix-blend-mode:normal;color-interpolation:sRGB;color-interpolation-filters:linearRGB;solid-color:#000000;solid-opacity:1;vector-effect:none;fill:#000000;fill-opacity:1;fill-rule:nonzero;stroke:none;stroke-width:9.3289299;stroke-linecap:butt;stroke-linejoin:miter;stroke-miterlimit:4;stroke-dasharray:none;stroke-dashoffset:0;stroke-opacity:1;color-rendering:auto;image-rendering:auto;shape-rendering:auto;text-rendering:auto;enable-background:accumulate"
       d="m 856.30726,753.80417 c 5.79492,-1.66792 19.18713,-3.86712 33.61669,5.22485 l 0.36542,0.23034 0.31609,0.29256 c 0,0 5.07025,4.66903 9.70314,10.72126 2.31645,3.02622 4.56555,6.40647 6.0718,10.03066 1.50625,3.6242 2.43392,7.79059 0.74108,11.89653 l 0.25724,-0.8423 c 0,0 -2.25864,13.57913 -12.41071,21.12491 -0.16936,0.2123 -3.45203,4.31309 -7.03632,9.77017 -3.67557,5.59612 -7.27417,12.7563 -7.64184,15.76128 l -0.0307,0.25158 -0.0582,0.24576 c 0,0 -1.26477,5.38845 -2.80288,11.53906 -1.53818,6.15071 -3.25389,12.8458 -4.54728,16.43357 v 4.9e-4 c 0,0 -9.76126,27.21336 -11.45022,33.24183 l -8.98397,-2.51791 c 2.17433,-7.76083 11.65887,-33.8859 11.65985,-33.88849 h -4.9e-4 c 0.87455,-2.42615 2.75558,-9.45746 4.27427,-15.53047 1.51887,-6.07358 2.7707,-11.40576 2.7707,-11.40576 l -0.0887,0.49903 c 0.83639,-6.83752 5.15844,-13.74257 9.10434,-19.75034 3.9459,-6.00762 7.72874,-10.72726 7.72874,-10.72726 l 0.44367,-0.55457 0.58958,-0.39758 c 6.31376,-4.25819 9.34347,-15.96445 9.34347,-15.96445 l 0.0879,-0.43286 0.16945,-0.40945 c 0.28116,-0.68185 0.2738,-2.33942 -0.73195,-4.75926 -1.00576,-2.41991 -2.84507,-5.30265 -4.86491,-7.94143 -3.78842,-4.949 -7.76487,-8.71089 -8.28178,-9.19692 -14.49901,-8.95158 -25.25068,-4.39906 -26.69516,-3.7161 -11.19557,9.44275 -5.95838,27.81655 -5.95838,27.81655 l 0.65085,2.11935 -5.57688,8.32477 -7.74992,-5.19147 3.21589,-4.80225 c -1.33979,-5.33269 -4.85884,-24.07554 9.90436,-35.88532 l 0.40866,-0.32641 0.47082,-0.2281 c 0,0 1.087,-0.49807 3.01864,-1.05408 z"
       id="path2566-2"
       inkscape:connector-curvature="0" />
    <path
       style="color:#000000;font-style:normal;font-variant:normal;font-weight:normal;font-stretch:normal;font-size:medium;line-height:normal;font-family:sans-serif;font-variant-ligatures:normal;font-variant-position:normal;font-variant-caps:normal;font-variant-numeric:normal;font-variant-alternates:normal;font-feature-settings:normal;text-indent:0;text-align:start;text-decoration:none;text-decoration-line:none;text-decoration-style:solid;text-decoration-color:#000000;letter-spacing:normal;word-spacing:normal;text-transform:none;writing-mode:lr-tb;direction:ltr;text-orientation:mixed;dominant-baseline:auto;baseline-shift:baseline;text-anchor:start;white-space:normal;shape-padding:0;clip-rule:nonzero;display:inline;overflow:visible;visibility:visible;opacity:1;isolation:auto;mix-blend-mode:normal;color-interpolation:sRGB;color-interpolation-filters:linearRGB;solid-color:#000000;solid-opacity:1;vector-effect:none;fill:#000000;fill-opacity:1;fill-rule:nonzero;stroke:none;stroke-width:9.3289299;stroke-linecap:butt;stroke-linejoin:miter;stroke-miterlimit:4;stroke-dasharray:none;stroke-dashoffset:0;stroke-opacity:1;color-rendering:auto;image-rendering:auto;shape-rendering:auto;text-rendering:auto;enable-background:accumulate"
       d="m 948.39278,803.26094 9.00103,2.45492 c 0.0915,-0.33533 -0.20509,1.5225 -0.30582,3.46983 -0.10073,1.94732 -0.16299,4.34582 -0.1992,6.65547 -0.0728,4.61931 -0.0429,8.88091 -0.0429,8.88091 v -0.13517 c 0.68198,18.94266 -9.64784,38.06405 -9.99482,38.70133 -1.39202,3.01185 -4.77816,14.09262 -7.45024,23.7344 -2.6559,9.5831 -4.82675,18.07329 -4.85343,18.17749 -2.31418,15.26411 -5.10816,25.41382 -5.10816,25.41382 l -8.98762,-2.49624 c 0,0 2.68308,-9.6476 4.93453,-24.65423 l 0.0356,-0.23396 0.059,-0.22902 c 0,0 2.22792,-8.72051 4.92974,-18.46965 2.7019,-9.74906 5.62677,-20.08147 7.97265,-25.15706 l 0.0526,-0.11399 0.0574,-0.10979 c 0,0 9.58309,-18.86682 9.03013,-34.22688 v -0.0671 l -8.1e-4,-0.0671 c 0,0 -0.0307,-4.3447 0.0437,-9.0944 0.0372,-2.37489 0.10049,-4.85133 0.21116,-6.99073 0.11068,-2.13941 0.11204,-3.57815 0.62054,-5.44229 z"
       id="path2570-4"
       inkscape:connector-curvature="0" />
    <path
       style="color:#000000;font-style:normal;font-variant:normal;font-weight:normal;font-stretch:normal;font-size:medium;line-height:normal;font-family:sans-serif;font-variant-ligatures:normal;font-variant-position:normal;font-variant-caps:normal;font-variant-numeric:normal;font-variant-alternates:normal;font-feature-settings:normal;text-indent:0;text-align:start;text-decoration:none;text-decoration-line:none;text-decoration-style:solid;text-decoration-color:#000000;letter-spacing:normal;word-spacing:normal;text-transform:none;writing-mode:lr-tb;direction:ltr;text-orientation:mixed;dominant-baseline:auto;baseline-shift:baseline;text-anchor:start;white-space:normal;shape-padding:0;clip-rule:nonzero;display:inline;overflow:visible;visibility:visible;opacity:1;isolation:auto;mix-blend-mode:normal;color-interpolation:sRGB;color-interpolation-filters:linearRGB;solid-color:#000000;solid-opacity:1;vector-effect:none;fill:#000000;fill-opacity:1;fill-rule:nonzero;stroke:none;stroke-width:9.3289299;stroke-linecap:butt;stroke-linejoin:miter;stroke-miterlimit:4;stroke-dasharray:none;stroke-dashoffset:0;stroke-opacity:1;color-rendering:auto;image-rendering:auto;shape-rendering:auto;text-rendering:auto;enable-background:accumulate"
       d="m 954.26264,804.15352 8.88769,2.83423 c 0,0 -1.61393,5.06079 -3.23571,10.53638 -0.81092,2.73788 -1.62346,5.58012 -2.22517,7.89439 -0.6017,2.31442 -0.94327,4.60613 -0.92993,4.17476 l -9.32343,-0.2861 c 0.0671,-2.17853 0.57697,-3.74549 1.22452,-6.23607 0.64754,-2.49067 1.48054,-5.40073 2.30844,-8.19593 1.6558,-5.59054 3.29359,-10.72166 3.29359,-10.72166 z"
       id="path2572-8"
       inkscape:connector-curvature="0" />
    <path
       style="color:#000000;font-style:normal;font-variant:normal;font-weight:normal;font-stretch:normal;font-size:medium;line-height:normal;font-family:sans-serif;font-variant-ligatures:normal;font-variant-position:normal;font-variant-caps:normal;font-variant-numeric:normal;font-variant-alternates:normal;font-feature-settings:normal;text-indent:0;text-align:start;text-decoration:none;text-decoration-line:none;text-decoration-style:solid;text-decoration-color:#000000;letter-spacing:normal;word-spacing:normal;text-transform:none;writing-mode:lr-tb;direction:ltr;text-orientation:mixed;dominant-baseline:auto;baseline-shift:baseline;text-anchor:start;white-space:normal;shape-padding:0;clip-rule:nonzero;display:inline;overflow:visible;visibility:visible;opacity:1;isolation:auto;mix-blend-mode:normal;color-interpolation:sRGB;color-interpolation-filters:linearRGB;solid-color:#000000;solid-opacity:1;vector-effect:none;fill:#000000;fill-opacity:1;fill-rule:nonzero;stroke:none;stroke-width:9.3289299;stroke-linecap:butt;stroke-linejoin:miter;stroke-miterlimit:4;stroke-dasharray:none;stroke-dashoffset:0;stroke-opacity:1;color-rendering:auto;image-rendering:auto;shape-rendering:auto;text-rendering:auto;enable-background:accumulate"
       d="m 1008.1157,809.64519 9.0574,2.23609 c 0,0 -7.2749,29.81081 -8.4452,48.15928 l -0.019,0.31456 -0.062,0.30906 c -3.3895,16.82872 -6.9977,33.88339 -12.60765,47.27511 -2.80489,6.69574 -6.10631,12.5213 -10.44454,16.93099 -4.33831,4.40969 -9.96435,7.33496 -16.35871,7.47497 l -0.20502,-9.32577 c 3.83079,-0.084 6.84029,-1.56769 9.91375,-4.69175 3.07337,-3.12398 5.96088,-7.95711 8.48921,-13.99262 5.04778,-12.04966 8.67945,-28.70643 12.04824,-45.42738 1.37122,-20.08852 8.63442,-49.26254 8.63442,-49.26254 z"
       id="path2574-9"
       inkscape:connector-curvature="0" />
    <path
       style="color:#000000;font-style:normal;font-variant:normal;font-weight:normal;font-stretch:normal;font-size:medium;line-height:normal;font-family:sans-serif;font-variant-ligatures:normal;font-variant-position:normal;font-variant-caps:normal;font-variant-numeric:normal;font-variant-alternates:normal;font-feature-settings:normal;text-indent:0;text-align:start;text-decoration:none;text-decoration-line:none;text-decoration-style:solid;text-decoration-color:#000000;letter-spacing:normal;word-spacing:normal;text-transform:none;writing-mode:lr-tb;direction:ltr;text-orientation:mixed;dominant-baseline:auto;baseline-shift:baseline;text-anchor:start;white-space:normal;shape-padding:0;clip-rule:nonzero;display:inline;overflow:visible;visibility:visible;opacity:1;isolation:auto;mix-blend-mode:normal;color-interpolation:sRGB;color-interpolation-filters:linearRGB;solid-color:#000000;solid-opacity:1;vector-effect:none;fill:#000000;fill-opacity:1;fill-rule:nonzero;stroke:none;stroke-width:9.3289299;stroke-linecap:butt;stroke-linejoin:miter;stroke-miterlimit:4;stroke-dasharray:none;stroke-dashoffset:0;stroke-opacity:1;color-rendering:auto;image-rendering:auto;shape-rendering:auto;text-rendering:auto;enable-background:accumulate"
       d="m 1057.7606,859.97459 8.3827,4.08997 c -1.6146,3.30911 -4.1313,5.4422 -6.2207,6.91466 -0.8315,0.58594 -1.5304,0.98368 -2.1879,1.35968 -2.2784,10.50687 -7.5896,22.70027 -7.5896,22.70027 l -8.5611,-3.70652 c 0,0 6.0004,-14.18988 7.5204,-22.89495 l 0.3834,-2.19461 1.9478,-1.0803 c 0.6651,-0.36928 0.7306,-0.36815 1.2526,-0.65441 0.522,-0.28635 1.1836,-0.67826 1.8599,-1.15475 1.3525,-0.95312 2.6708,-2.26907 3.2125,-3.37904 z"
       id="path2576-4"
       inkscape:connector-curvature="0" />
    <path
       style="color:#000000;font-style:normal;font-variant:normal;font-weight:normal;font-stretch:normal;font-size:medium;line-height:normal;font-family:sans-serif;font-variant-ligatures:normal;font-variant-position:normal;font-variant-caps:normal;font-variant-numeric:normal;font-variant-alternates:normal;font-feature-settings:normal;text-indent:0;text-align:start;text-decoration:none;text-decoration-line:none;text-decoration-style:solid;text-decoration-color:#000000;letter-spacing:normal;word-spacing:normal;text-transform:none;writing-mode:lr-tb;direction:ltr;text-orientation:mixed;dominant-baseline:auto;baseline-shift:baseline;text-anchor:start;white-space:normal;shape-padding:0;clip-rule:nonzero;display:inline;overflow:visible;visibility:visible;opacity:1;isolation:auto;mix-blend-mode:normal;color-interpolation:sRGB;color-interpolation-filters:linearRGB;solid-color:#000000;solid-opacity:1;vector-effect:none;fill:#000000;fill-opacity:1;fill-rule:nonzero;stroke:none;stroke-width:9.3289299;stroke-linecap:butt;stroke-linejoin:miter;stroke-miterlimit:4;stroke-dasharray:none;stroke-dashoffset:0;stroke-opacity:1;color-rendering:auto;image-rendering:auto;shape-rendering:auto;text-rendering:auto;enable-background:accumulate"
       d="m 878.44463,894.50084 c 5.56129,-1.83971 11.22565,-1.88773 16.44408,-0.29208 13.9159,4.2552 23.86157,19.21631 21.52629,36.92911 l -0.85725,6.50181 -5.85927,-2.94403 c 0,0 -26.50575,-12.9251 -50.6354,-8.85123 l -8.60821,1.45387 3.57596,-7.96399 c 6.16186,-13.72173 15.14503,-21.76712 24.4138,-24.83346 z m 2.55477,8.65463 c -4.95674,1.58442 -9.99021,5.53412 -14.50806,12.67781 16.8389,-0.6372 32.33389,4.27985 40.75633,7.63908 -0.90195,-10.39386 -7.36479,-17.98136 -15.08609,-20.34244 -3.4686,-1.06057 -7.28847,-1.21255 -11.16218,0.0251 z"
       id="path2578-0"
       inkscape:connector-curvature="0" />
    <path
       style="color:#000000;font-style:normal;font-variant:normal;font-weight:normal;font-stretch:normal;font-size:medium;line-height:normal;font-family:sans-serif;font-variant-ligatures:normal;font-variant-position:normal;font-variant-caps:normal;font-variant-numeric:normal;font-variant-alternates:normal;font-feature-settings:normal;text-indent:0;text-align:start;text-decoration:none;text-decoration-line:none;text-decoration-style:solid;text-decoration-color:#000000;letter-spacing:normal;word-spacing:normal;text-transform:none;writing-mode:lr-tb;direction:ltr;text-orientation:mixed;dominant-baseline:auto;baseline-shift:baseline;text-anchor:start;white-space:normal;shape-padding:0;clip-rule:nonzero;display:inline;overflow:visible;visibility:visible;opacity:1;isolation:auto;mix-blend-mode:normal;color-interpolation:sRGB;color-interpolation-filters:linearRGB;solid-color:#000000;solid-opacity:1;vector-effect:none;fill:#000000;fill-opacity:1;fill-rule:nonzero;stroke:none;stroke-width:9.3289299;stroke-linecap:butt;stroke-linejoin:miter;stroke-miterlimit:4;stroke-dasharray:none;stroke-dashoffset:0;stroke-opacity:1;color-rendering:auto;image-rendering:auto;shape-rendering:auto;text-rendering:auto;enable-background:accumulate"
       d="m 980.26725,919.62743 c 0,0 1.46922,0.27002 3.14362,0.48934 1.6744,0.21949 4.14663,0.10234 3.2948,0.27923 l 5.16079,-0.43712 -0.78901,8.1711 c 0,0 -5.06064,5.76898 -13.18259,6.76915 l -1.13964,-9.25826 c 0.89849,-0.11068 1.73714,-0.39508 2.53691,-0.7119 z"
       id="path2580-4"
       inkscape:connector-curvature="0"
       sodipodi:nodetypes="ccccccccc" />
    <path
       style="color:#000000;font-style:normal;font-variant:normal;font-weight:normal;font-stretch:normal;font-size:medium;line-height:normal;font-family:sans-serif;font-variant-ligatures:normal;font-variant-position:normal;font-variant-caps:normal;font-variant-numeric:normal;font-variant-alternates:normal;font-feature-settings:normal;text-indent:0;text-align:start;text-decoration:none;text-decoration-line:none;text-decoration-style:solid;text-decoration-color:#000000;letter-spacing:normal;word-spacing:normal;text-transform:none;writing-mode:lr-tb;direction:ltr;text-orientation:mixed;dominant-baseline:auto;baseline-shift:baseline;text-anchor:start;white-space:normal;shape-padding:0;clip-rule:nonzero;display:inline;overflow:visible;visibility:visible;opacity:1;isolation:auto;mix-blend-mode:normal;color-interpolation:sRGB;color-interpolation-filters:linearRGB;solid-color:#000000;solid-opacity:1;vector-effect:none;fill:#000000;fill-opacity:1;fill-rule:nonzero;stroke:none;stroke-width:9.3289299;stroke-linecap:butt;stroke-linejoin:miter;stroke-miterlimit:4;stroke-dasharray:none;stroke-dashoffset:0;stroke-opacity:1;color-rendering:auto;image-rendering:auto;shape-rendering:auto;text-rendering:auto;enable-background:accumulate"
       d="m 925.49784,915.65074 8.41509,6.82225 c 4.06676,3.29641 9.79772,4.92093 14.77945,5.5055 2.4909,0.29224 4.7742,0.3384 6.48595,0.28424 1.71175,-0.0542 3.36683,-0.38909 2.66084,-0.19993 l 4.43249,7.87612 c -6.88629,6.59291 -14.95982,9.76629 -22.32937,8.23352 -7.36948,-1.53269 -12.90636,-8.43652 -13.61744,-17.71952 z"
       id="path2582-4"
       inkscape:connector-curvature="0" />
    <path
       style="color:#000000;font-style:normal;font-variant:normal;font-weight:normal;font-stretch:normal;font-size:medium;line-height:normal;font-family:sans-serif;font-variant-ligatures:normal;font-variant-position:normal;font-variant-caps:normal;font-variant-numeric:normal;font-variant-alternates:normal;font-feature-settings:normal;text-indent:0;text-align:start;text-decoration:none;text-decoration-line:none;text-decoration-style:solid;text-decoration-color:#000000;letter-spacing:normal;word-spacing:normal;text-transform:none;writing-mode:lr-tb;direction:ltr;text-orientation:mixed;dominant-baseline:auto;baseline-shift:baseline;text-anchor:start;white-space:normal;shape-padding:0;clip-rule:nonzero;display:inline;overflow:visible;visibility:visible;opacity:1;isolation:auto;mix-blend-mode:normal;color-interpolation:sRGB;color-interpolation-filters:linearRGB;solid-color:#000000;solid-opacity:1;vector-effect:none;fill:#000000;fill-opacity:1;fill-rule:nonzero;stroke:none;stroke-width:9.3289299;stroke-linecap:butt;stroke-linejoin:miter;stroke-miterlimit:4;stroke-dasharray:none;stroke-dashoffset:0;stroke-opacity:1;color-rendering:auto;image-rendering:auto;shape-rendering:auto;text-rendering:auto;enable-background:accumulate"
       d="m 845.31121,779.96193 6.14343,9.76991 c 0,0 3.16019,5.01813 6.13963,11.01596 1.48967,2.99892 2.95,6.25014 3.98422,9.42044 1.03413,3.1703 1.87917,6.15725 1.0988,9.62011 l -0.3566,1.58386 -1.26234,1.01926 c 0,0 -1.58903,1.29937 -3.81058,2.37166 -2.22161,1.07229 -5.49361,2.35428 -9.33401,0.9769 -3.84048,-1.37755 -6.41966,-5.55045 -7.11774,-10.93502 -0.69798,-5.38456 -0.13274,-12.69551 2.14482,-23.54835 z m 4.76071,26.89106 c -0.18933,2.78549 -0.22855,5.1903 -0.0259,6.75249 0.46137,3.55842 1.09298,3.38008 1.01732,3.35292 -0.076,-0.0267 0.97148,-0.038 2.12824,-0.59654 0.14132,-0.0679 0.11342,-0.0801 0.24455,-0.15052 -0.12077,-0.84124 -0.33372,-1.94385 -0.72701,-3.1496 -0.61376,-1.88136 -1.64206,-4.07703 -2.63699,-6.20875 z"
       id="path2584-1"
       inkscape:connector-curvature="0" />
    <path
       style="color:#000000;font-style:normal;font-variant:normal;font-weight:normal;font-stretch:normal;font-size:medium;line-height:normal;font-family:sans-serif;font-variant-ligatures:normal;font-variant-position:normal;font-variant-caps:normal;font-variant-numeric:normal;font-variant-alternates:normal;font-feature-settings:normal;text-indent:0;text-align:start;text-decoration:none;text-decoration-line:none;text-decoration-style:solid;text-decoration-color:#000000;letter-spacing:normal;word-spacing:normal;text-transform:none;writing-mode:lr-tb;direction:ltr;text-orientation:mixed;dominant-baseline:auto;baseline-shift:baseline;text-anchor:start;white-space:normal;shape-padding:0;clip-rule:nonzero;display:inline;overflow:visible;visibility:visible;opacity:1;isolation:auto;mix-blend-mode:normal;color-interpolation:sRGB;color-interpolation-filters:linearRGB;solid-color:#000000;solid-opacity:1;vector-effect:none;fill:#000000;fill-opacity:1;fill-rule:nonzero;stroke:none;stroke-width:9.3289299;stroke-linecap:butt;stroke-linejoin:miter;stroke-miterlimit:4;stroke-dasharray:none;stroke-dashoffset:0;stroke-opacity:1;color-rendering:auto;image-rendering:auto;shape-rendering:auto;text-rendering:auto;enable-background:accumulate"
       d="m 838.14708,703.62899 c 16.07705,12.54703 34.7269,5.17251 34.7269,5.17251 l 3.42317,8.67852 c 0,0 -23.64532,9.30449 -43.8905,-6.49545 z"
       id="path2586-1"
       inkscape:connector-curvature="0" />
    <path
       style="color:#000000;font-style:normal;font-variant:normal;font-weight:normal;font-stretch:normal;font-size:medium;line-height:normal;font-family:sans-serif;font-variant-ligatures:normal;font-variant-position:normal;font-variant-caps:normal;font-variant-numeric:normal;font-variant-alternates:normal;font-feature-settings:normal;text-indent:0;text-align:start;text-decoration:none;text-decoration-line:none;text-decoration-style:solid;text-decoration-color:#000000;letter-spacing:normal;word-spacing:normal;text-transform:none;writing-mode:lr-tb;direction:ltr;text-orientation:mixed;dominant-baseline:auto;baseline-shift:baseline;text-anchor:start;white-space:normal;shape-padding:0;clip-rule:nonzero;display:inline;overflow:visible;visibility:visible;opacity:1;isolation:auto;mix-blend-mode:normal;color-interpolation:sRGB;color-interpolation-filters:linearRGB;solid-color:#000000;solid-opacity:1;vector-effect:none;fill:#000000;fill-opacity:1;fill-rule:nonzero;stroke:none;stroke-width:9.3289299;stroke-linecap:butt;stroke-linejoin:miter;stroke-miterlimit:4;stroke-dasharray:none;stroke-dashoffset:0;stroke-opacity:1;color-rendering:auto;image-rendering:auto;shape-rendering:auto;text-rendering:auto;enable-background:accumulate"
       d="m 842.31715,744.19761 c 11.00356,5.36349 18.35195,5.63113 23.99302,4.77596 5.64108,-0.85528 9.24743,-3.41515 14.76749,-3.50806 l 0.15651,9.32753 c -1.13058,0.0187 -6.24723,2.30005 -13.526,3.40356 -7.27885,1.10353 -17.04505,0.44724 -29.47831,-5.61312 z"
       id="path2588-6"
       inkscape:connector-curvature="0" />
    <path
       style="color:#000000;font-style:normal;font-variant:normal;font-weight:normal;font-stretch:normal;font-size:medium;line-height:normal;font-family:sans-serif;font-variant-ligatures:normal;font-variant-position:normal;font-variant-caps:normal;font-variant-numeric:normal;font-variant-alternates:normal;font-feature-settings:normal;text-indent:0;text-align:start;text-decoration:none;text-decoration-line:none;text-decoration-style:solid;text-decoration-color:#000000;letter-spacing:normal;word-spacing:normal;text-transform:none;writing-mode:lr-tb;direction:ltr;text-orientation:mixed;dominant-baseline:auto;baseline-shift:baseline;text-anchor:start;white-space:normal;shape-padding:0;clip-rule:nonzero;display:inline;overflow:visible;visibility:visible;opacity:1;isolation:auto;mix-blend-mode:normal;color-interpolation:sRGB;color-interpolation-filters:linearRGB;solid-color:#000000;solid-opacity:1;vector-effect:none;fill:#000000;fill-opacity:1;fill-rule:nonzero;stroke:none;stroke-width:9.3289299;stroke-linecap:butt;stroke-linejoin:miter;stroke-miterlimit:4;stroke-dasharray:none;stroke-dashoffset:0;stroke-opacity:1;color-rendering:auto;image-rendering:auto;shape-rendering:auto;text-rendering:auto;enable-background:accumulate"
       d="m 900.80537,757.16025 9.10524,2.02718 c 0,0 -0.92581,4.16378 -2.1504,8.71565 -0.61221,2.27598 -1.29654,4.65112 -2.01337,6.74174 -0.71682,2.09051 -1.079,3.63604 -2.67223,5.59222 l -7.23391,-5.89187 c -0.46225,0.56748 0.47916,-0.97049 1.0807,-2.72488 0.60155,-1.75431 1.25119,-3.98384 1.83124,-6.14021 1.16016,-4.31259 2.05273,-8.31983 2.05273,-8.31983 z"
       id="path2590-4"
       inkscape:connector-curvature="0" />
    <path
       style="color:#000000;font-style:normal;font-variant:normal;font-weight:normal;font-stretch:normal;font-size:medium;line-height:normal;font-family:sans-serif;font-variant-ligatures:normal;font-variant-position:normal;font-variant-caps:normal;font-variant-numeric:normal;font-variant-alternates:normal;font-feature-settings:normal;text-indent:0;text-align:start;text-decoration:none;text-decoration-line:none;text-decoration-style:solid;text-decoration-color:#000000;letter-spacing:normal;word-spacing:normal;text-transform:none;writing-mode:lr-tb;direction:ltr;text-orientation:mixed;dominant-baseline:auto;baseline-shift:baseline;text-anchor:start;white-space:normal;shape-padding:0;clip-rule:nonzero;display:inline;overflow:visible;visibility:visible;opacity:1;isolation:auto;mix-blend-mode:normal;color-interpolation:sRGB;color-interpolation-filters:linearRGB;solid-color:#000000;solid-opacity:1;vector-effect:none;fill:#000000;fill-opacity:1;fill-rule:nonzero;stroke:none;stroke-width:9.3289299;stroke-linecap:butt;stroke-linejoin:miter;stroke-miterlimit:4;stroke-dasharray:none;stroke-dashoffset:0;stroke-opacity:1;color-rendering:auto;image-rendering:auto;shape-rendering:auto;text-rendering:auto;enable-background:accumulate"
       d="m 937.28646,912.92967 c 1.66114,5.32127 7.46543,8.76044 13.70612,10.72207 6.24068,1.96155 12.0326,2.24434 12.0326,2.24434 l -0.41738,9.31906 c 0,0 -6.84021,-0.28319 -14.41212,-2.66317 -7.57198,-2.37999 -16.76073,-7.05897 -19.8147,-16.8419 z"
       id="path2592-2"
       inkscape:connector-curvature="0" />
    <path
       style="color:#000000;font-style:normal;font-variant:normal;font-weight:normal;font-stretch:normal;font-size:medium;line-height:normal;font-family:sans-serif;font-variant-ligatures:normal;font-variant-position:normal;font-variant-caps:normal;font-variant-numeric:normal;font-variant-alternates:normal;font-feature-settings:normal;text-indent:0;text-align:start;text-decoration:none;text-decoration-line:none;text-decoration-style:solid;text-decoration-color:#000000;letter-spacing:normal;word-spacing:normal;text-transform:none;writing-mode:lr-tb;direction:ltr;text-orientation:mixed;dominant-baseline:auto;baseline-shift:baseline;text-anchor:start;white-space:normal;shape-padding:0;clip-rule:nonzero;display:inline;overflow:visible;visibility:visible;opacity:1;isolation:auto;mix-blend-mode:normal;color-interpolation:sRGB;color-interpolation-filters:linearRGB;solid-color:#000000;solid-opacity:1;vector-effect:none;fill:#000000;fill-opacity:1;fill-rule:nonzero;stroke:none;stroke-width:9.3289299;stroke-linecap:butt;stroke-linejoin:miter;stroke-miterlimit:4;stroke-dasharray:none;stroke-dashoffset:0;stroke-opacity:1;color-rendering:auto;image-rendering:auto;shape-rendering:auto;text-rendering:auto;enable-background:accumulate"
       d="m 987.56672,918.87875 c -0.0348,-0.0453 -8.1e-4,0.01 0.18416,0.12426 0.37001,0.2325 1.16387,0.57284 2.01329,0.81868 1.69881,0.49177 3.41121,0.65725 3.41121,0.65725 l -0.79921,9.29497 c 0,0 -2.45751,-0.19467 -5.20769,-0.9908 -1.37512,-0.39807 -2.87521,-0.93421 -4.38244,-1.88159 -1.5073,-0.94731 -3.20668,-2.44807 -3.93288,-4.87114 l 8.93676,-2.67749 c -0.0844,-0.28254 -0.18844,-0.4283 -0.2232,-0.47414 z"
       id="path2594-1"
       inkscape:connector-curvature="0" />
    <path
       style="color:#000000;font-style:normal;font-variant:normal;font-weight:normal;font-stretch:normal;font-size:medium;line-height:normal;font-family:sans-serif;font-variant-ligatures:normal;font-variant-position:normal;font-variant-caps:normal;font-variant-numeric:normal;font-variant-alternates:normal;font-feature-settings:normal;text-indent:0;text-align:start;text-decoration:none;text-decoration-line:none;text-decoration-style:solid;text-decoration-color:#000000;letter-spacing:normal;word-spacing:normal;text-transform:none;writing-mode:lr-tb;direction:ltr;text-orientation:mixed;dominant-baseline:auto;baseline-shift:baseline;text-anchor:start;white-space:normal;shape-padding:0;clip-rule:nonzero;display:inline;overflow:visible;visibility:visible;opacity:1;isolation:auto;mix-blend-mode:normal;color-interpolation:sRGB;color-interpolation-filters:linearRGB;solid-color:#000000;solid-opacity:1;vector-effect:none;fill:#000000;fill-opacity:1;fill-rule:nonzero;stroke:none;stroke-width:9.3289299;stroke-linecap:butt;stroke-linejoin:miter;stroke-miterlimit:4;stroke-dasharray:none;stroke-dashoffset:0;stroke-opacity:1;color-rendering:auto;image-rendering:auto;shape-rendering:auto;text-rendering:auto;enable-background:accumulate"
       d="m 900.62695,728.24346 c 0,0 2.72875,6.1695 0.95863,13.68694 l -9.08058,-2.13939 c 1.04222,-4.42613 -0.41981,-7.79685 -0.41981,-7.79685 z"
       id="path2596-3"
       inkscape:connector-curvature="0" />
    <path
       style="color:#000000;font-style:normal;font-variant:normal;font-weight:normal;font-stretch:normal;font-size:medium;line-height:normal;font-family:sans-serif;font-variant-ligatures:normal;font-variant-position:normal;font-variant-caps:normal;font-variant-numeric:normal;font-variant-alternates:normal;font-feature-settings:normal;text-indent:0;text-align:start;text-decoration:none;text-decoration-line:none;text-decoration-style:solid;text-decoration-color:#000000;letter-spacing:normal;word-spacing:normal;text-transform:none;writing-mode:lr-tb;direction:ltr;text-orientation:mixed;dominant-baseline:auto;baseline-shift:baseline;text-anchor:start;white-space:normal;shape-padding:0;clip-rule:nonzero;display:inline;overflow:visible;visibility:visible;opacity:1;isolation:auto;mix-blend-mode:normal;color-interpolation:sRGB;color-interpolation-filters:linearRGB;solid-color:#000000;solid-opacity:1;vector-effect:none;fill:#000000;fill-opacity:1;fill-rule:nonzero;stroke:none;stroke-width:8.08420086;stroke-linecap:butt;stroke-linejoin:miter;stroke-miterlimit:4;stroke-dasharray:none;stroke-dashoffset:0;stroke-opacity:1;color-rendering:auto;image-rendering:auto;shape-rendering:auto;text-rendering:auto;enable-background:accumulate"
       d="M 284.07744,466.46939 445.40148,688.20701 H 311.39954 v -31.12575 l -48.95994,55.26626 48.95994,55.4794 v -30.5368 H 533.94402 L 371.94415,513.80617 h 158.72196 v -47.33678 z m 15.88102,8.0842 h 222.62346 v 31.16838 H 356.09943 l 161.9998,223.48395 H 303.31534 V 746.448 l -30.08528,-34.08944 30.08528,-33.95995 v 17.89261 h 4.0421 153.92342 z"
       id="path3266"
       inkscape:connector-curvature="0" />
    <path
       style="color:#000000;font-style:normal;font-variant:normal;font-weight:normal;font-stretch:normal;font-size:medium;line-height:normal;font-family:sans-serif;font-variant-ligatures:normal;font-variant-position:normal;font-variant-caps:normal;font-variant-numeric:normal;font-variant-alternates:normal;font-feature-settings:normal;text-indent:0;text-align:start;text-decoration:none;text-decoration-line:none;text-decoration-style:solid;text-decoration-color:#000000;letter-spacing:normal;word-spacing:normal;text-transform:none;writing-mode:lr-tb;direction:ltr;text-orientation:mixed;dominant-baseline:auto;baseline-shift:baseline;text-anchor:start;white-space:normal;shape-padding:0;clip-rule:nonzero;display:inline;overflow:visible;visibility:visible;opacity:1;isolation:auto;mix-blend-mode:normal;color-interpolation:sRGB;color-interpolation-filters:linearRGB;solid-color:#000000;solid-opacity:1;vector-effect:none;fill:#000000;fill-opacity:1;fill-rule:nonzero;stroke:none;stroke-width:8.08420086;stroke-linecap:butt;stroke-linejoin:miter;stroke-miterlimit:4;stroke-dasharray:none;stroke-dashoffset:0;stroke-opacity:1;color-rendering:auto;image-rendering:auto;shape-rendering:auto;text-rendering:auto;enable-background:accumulate"
       d="m 544.83401,466.46939 v 47.33678 H 703.55589 L 541.5561,737.29012 h 222.54446 v 30.5368 l 48.95995,-55.4794 -48.95995,-55.26626 v 31.12575 H 630.09703 L 791.42105,466.46939 Z m 8.08416,8.0842 H 775.54159 L 614.21914,696.29122 h 157.96562 v -4.0421 -13.84893 l 30.08365,33.95837 -30.08365,34.08944 V 729.20592 H 557.39922 L 719.39903,505.72197 H 552.91817 Z"
       id="path3266-8"
       inkscape:connector-curvature="0" />
    <path
       style="font-style:normal;font-weight:normal;font-size:233.33332825px;line-height:1.25;font-family:sans-serif;letter-spacing:0px;word-spacing:0px;fill:#000000;fill-opacity:1;stroke:none"
       d="M 354.78711 1076.8223 L 354.78711 1246.4688 L 377.3457 1246.4688 L 377.3457 1183.2363 L 399.9043 1183.2363 C 412.05707 1183.2363 422.12044 1181.7925 430.0957 1178.9062 C 438.07096 1175.944 444.98351 1171.538 450.83203 1165.6895 C 455.54123 1160.9803 459.18707 1155.4368 461.76953 1149.0566 C 464.42795 1142.6005 465.75586 1135.6113 465.75586 1128.0918 C 465.75586 1118.2177 463.97222 1110.0538 460.40234 1103.5977 C 456.90842 1097.1415 451.93273 1091.7474 445.47656 1087.418 C 440.00781 1083.7721 433.74154 1081.1144 426.67773 1079.4434 C 419.61393 1077.6964 410.9924 1076.8223 400.81445 1076.8223 L 354.78711 1076.8223 z M 377.3457 1096.1914 L 399.67578 1096.1914 C 406.81554 1096.1914 412.70269 1096.7237 417.33594 1097.7871 C 422.04514 1098.7745 426.22135 1100.4442 429.86719 1102.7988 C 434.0447 1105.5332 437.16016 1109.0651 439.21094 1113.3945 C 441.26172 1117.724 442.28711 1122.8136 442.28711 1128.6621 C 442.28711 1133.6751 441.52691 1138.1951 440.00781 1142.2207 C 438.56467 1146.2463 436.05816 1150.0807 432.48828 1153.7266 C 428.9184 1157.2964 424.28451 1159.9169 418.58789 1161.5879 C 412.89128 1163.1829 405.48568 1163.9805 396.37109 1163.9805 L 377.3457 1163.9805 L 377.3457 1096.1914 z M 531.95117 1116.1289 C 524.27973 1116.1289 516.49501 1116.8125 508.5957 1118.1797 C 500.6964 1119.5469 494.65799 1120.8001 490.48047 1121.9395 L 490.48047 1143.7012 L 491.61914 1143.7012 C 498.98676 1140.8908 506.12717 1138.7635 513.03906 1137.3203 C 519.95095 1135.8012 526.21723 1135.043 531.83789 1135.043 C 536.47114 1135.043 540.9145 1135.3455 545.16797 1135.9531 C 549.42144 1136.5608 553.06727 1137.7394 556.10547 1139.4863 C 559.29557 1141.3092 561.72548 1143.8158 563.39648 1147.0059 C 565.14345 1150.196 566.01758 1154.2209 566.01758 1159.082 L 566.01758 1162.3867 C 553.56098 1162.9944 541.90061 1163.9058 531.03906 1165.1211 C 520.17752 1166.3364 510.87435 1168.6523 503.12695 1172.0703 C 495.45551 1175.4883 489.53103 1180.1968 485.35352 1186.1973 C 481.25195 1192.1217 479.20117 1199.9084 479.20117 1209.5547 C 479.20117 1221.3277 483.1888 1231.0119 491.16406 1238.6074 C 499.13932 1246.2029 508.86089 1250 520.33008 1250 C 526.55838 1250 531.9898 1249.393 536.62305 1248.1777 C 541.25629 1247.0384 545.35786 1245.5946 548.92773 1243.8477 C 551.96593 1242.4805 555.07943 1240.6576 558.26953 1238.3789 C 561.53559 1236.0243 564.11871 1234.2014 566.01758 1232.9102 L 566.01758 1246.4688 L 587.32227 1246.4688 L 587.32227 1160.1074 C 587.32227 1151.9043 586.06901 1145.031 583.5625 1139.4863 C 581.05599 1133.9416 577.41016 1129.4217 572.625 1125.9277 C 567.76389 1122.3579 561.99067 1119.8513 555.30664 1118.4082 C 548.69857 1116.8891 540.91385 1116.1289 531.95117 1116.1289 z M 619.90625 1119.2051 L 619.90625 1137.0938 L 692.48242 1137.0938 L 618.3125 1230.6309 L 618.3125 1246.4688 L 721.07812 1246.4688 L 721.07812 1228.3535 L 644.63086 1228.3535 L 719.14258 1134.4727 L 719.14258 1119.2051 L 619.90625 1119.2051 z M 566.01758 1179.7031 L 566.01758 1215.1367 C 560.70074 1219.2383 554.92752 1222.7702 548.69922 1225.7324 C 542.47092 1228.6187 535.59766 1230.0625 528.07812 1230.0625 C 519.0395 1230.0625 512.31749 1228.2396 507.91211 1224.5938 C 503.50673 1220.872 501.30273 1215.3639 501.30273 1208.0723 C 501.30273 1201.6161 503.20226 1196.5658 507 1192.9199 C 510.79774 1189.1981 515.77344 1186.4638 521.92578 1184.7168 C 527.09071 1183.2737 534.07791 1182.1717 542.88867 1181.4121 C 551.77539 1180.6526 559.48546 1180.0829 566.01758 1179.7031 z "
       transform="translate(0,-33.729184)"
       id="text3289" />
    <path
       inkscape:connector-curvature="0"
       id="path87-11-5-68-0"
       d="m 477.64938,122.02184 c -9.61128,0.0937 -17.3822,3.95811 -22.38834,9.74044 -5.021,5.79939 -7.35757,13.28331 -7.28981,20.65353 0.0673,7.37021 2.53562,14.76656 7.61809,20.39035 5.06723,5.60689 12.84579,9.19497 22.25983,8.90182 9.23307,-0.024 16.74463,-3.94327 21.51418,-9.73148 4.78415,-5.80613 6.98236,-13.24189 6.9349,-20.57372 -0.0479,-7.3319 -2.33851,-14.69795 -7.17461,-20.36079 -4.82447,-5.64967 -12.36928,-9.33668 -21.47424,-9.02015 z m 0.29579,9.67386 c 6.49497,-0.23893 10.73258,2.02865 13.8133,5.6363 3.08085,3.60759 4.81961,8.81663 4.85404,14.13283 0.0337,5.31621 -1.63223,10.59992 -4.72365,14.35186 -3.09167,3.75177 -7.43718,6.21454 -14.12101,6.21454 h -0.0816 l -0.0813,0.007 c -6.95174,0.23355 -11.56511,-2.10996 -14.82951,-5.72202 -3.26421,-3.61219 -5.07048,-8.7444 -5.11851,-13.98499 -0.0474,-5.24068 1.65842,-10.45015 4.92625,-14.22464 3.26805,-3.77442 8.00375,-6.35045 15.21992,-6.40387 h 0.0712 z"
       style="color:#000000;font-style:normal;font-variant:normal;font-weight:normal;font-stretch:normal;font-size:medium;line-height:normal;font-family:sans-serif;font-variant-ligatures:normal;font-variant-position:normal;font-variant-caps:normal;font-variant-numeric:normal;font-variant-alternates:normal;font-feature-settings:normal;text-indent:0;text-align:start;text-decoration:none;text-decoration-line:none;text-decoration-style:solid;text-decoration-color:#000000;letter-spacing:normal;word-spacing:normal;text-transform:none;writing-mode:lr-tb;direction:ltr;text-orientation:mixed;dominant-baseline:auto;baseline-shift:baseline;text-anchor:start;white-space:normal;shape-padding:0;clip-rule:nonzero;display:inline;overflow:visible;visibility:visible;opacity:1;isolation:auto;mix-blend-mode:normal;color-interpolation:sRGB;color-interpolation-filters:linearRGB;solid-color:#000000;solid-opacity:1;vector-effect:none;fill:#000000;fill-opacity:1;fill-rule:nonzero;stroke:none;stroke-width:9.68571949;stroke-linecap:butt;stroke-linejoin:miter;stroke-miterlimit:4;stroke-dasharray:none;stroke-dashoffset:0;stroke-opacity:1;color-rendering:auto;image-rendering:auto;shape-rendering:auto;text-rendering:auto;enable-background:accumulate" />
    <path
       inkscape:connector-curvature="0"
       id="path1039-49-3"
       d="m 429.48724,90.249488 -5.47642,10.698742 c 0,0 24.24206,12.41093 48.71812,24.82567 12.238,6.20747 24.5317,12.41449 33.90204,17.08049 4.6852,2.33302 8.63598,4.279 11.51058,5.65991 1.43745,0.69061 2.59936,1.23783 3.49918,1.64164 0.45004,0.20198 0.8259,0.36634 1.21137,0.51916 0.19271,0.0764 0.37982,0.14823 0.66388,0.23957 0.2843,0.0914 0.25934,0.32538 1.99364,0.32538 v -12.01944 c 1.67768,0 1.55034,0.20923 1.68598,0.25293 0.1359,0.0435 0.13,0.0454 0.086,0.028 -0.0883,-0.035 -0.36037,-0.15054 -0.72022,-0.31205 -0.72028,-0.32317 -1.82785,-0.84194 -3.21532,-1.50854 -2.77532,-1.33325 -6.69791,-3.26608 -11.35697,-5.58599 -9.31811,-4.64006 -21.59922,-10.84 -33.82354,-17.04053 -24.44929,-12.40135 -48.67832,-24.805137 -48.67832,-24.805137 z"
       style="color:#000000;font-style:normal;font-variant:normal;font-weight:normal;font-stretch:normal;font-size:medium;line-height:normal;font-family:sans-serif;font-variant-ligatures:normal;font-variant-position:normal;font-variant-caps:normal;font-variant-numeric:normal;font-variant-alternates:normal;font-feature-settings:normal;text-indent:0;text-align:start;text-decoration:none;text-decoration-line:none;text-decoration-style:solid;text-decoration-color:#000000;letter-spacing:normal;word-spacing:normal;text-transform:none;writing-mode:lr-tb;direction:ltr;text-orientation:mixed;dominant-baseline:auto;baseline-shift:baseline;text-anchor:start;white-space:normal;shape-padding:0;clip-rule:nonzero;display:inline;overflow:visible;visibility:visible;opacity:1;isolation:auto;mix-blend-mode:normal;color-interpolation:sRGB;color-interpolation-filters:linearRGB;solid-color:#000000;solid-opacity:1;vector-effect:none;fill:#000000;fill-opacity:1;fill-rule:nonzero;stroke:none;stroke-width:12.01925087;stroke-linecap:butt;stroke-linejoin:miter;stroke-miterlimit:4;stroke-dasharray:none;stroke-dashoffset:0;stroke-opacity:1;color-rendering:auto;image-rendering:auto;shape-rendering:auto;text-rendering:auto;enable-background:accumulate" />
    <path
       inkscape:connector-curvature="0"
       id="path1681-8-1"
       d="m 479.81898,308.85649 v 9.61471 h 117.77045 v -9.61471 z"
       style="color:#000000;font-style:normal;font-variant:normal;font-weight:normal;font-stretch:normal;font-size:medium;line-height:normal;font-family:sans-serif;font-variant-ligatures:normal;font-variant-position:normal;font-variant-caps:normal;font-variant-numeric:normal;font-variant-alternates:normal;font-feature-settings:normal;text-indent:0;text-align:start;text-decoration:none;text-decoration-line:none;text-decoration-style:solid;text-decoration-color:#000000;letter-spacing:normal;word-spacing:normal;text-transform:none;writing-mode:lr-tb;direction:ltr;text-orientation:mixed;dominant-baseline:auto;baseline-shift:baseline;text-anchor:start;white-space:normal;shape-padding:0;clip-rule:nonzero;display:inline;overflow:visible;visibility:visible;opacity:1;isolation:auto;mix-blend-mode:normal;color-interpolation:sRGB;color-interpolation-filters:linearRGB;solid-color:#000000;solid-opacity:1;vector-effect:none;fill:#000000;fill-opacity:1;fill-rule:nonzero;stroke:none;stroke-width:9.61540127;stroke-linecap:butt;stroke-linejoin:miter;stroke-miterlimit:4;stroke-dasharray:none;stroke-dashoffset:0;stroke-opacity:1;color-rendering:auto;image-rendering:auto;shape-rendering:auto;text-rendering:auto;enable-background:accumulate" />
    <path
       inkscape:connector-curvature="0"
       id="path87-11-5-3-7-4"
       d="m 606.61082,122.02191 c -9.10133,-0.31421 -16.64348,3.37211 -21.4668,9.02015 -4.83608,5.66277 -7.12693,13.02875 -7.1746,20.36072 -0.0474,7.3319 2.15081,14.76759 6.93496,20.57372 4.76975,5.78856 12.28189,9.70782 21.51562,9.73148 9.41397,0.29315 17.19118,-3.29493 22.25834,-8.90182 5.08246,-5.62373 7.55059,-13.01858 7.61808,-20.38886 0.0673,-7.37021 -2.2688,-14.85558 -7.28974,-20.65502 -5.00739,-5.78382 -12.78096,-9.64869 -22.39586,-9.74037 z m -0.28834,9.67527 0.0712,0.007 0.0713,0.007 c 7.21635,0.0532 11.95227,2.62795 15.21984,6.40237 3.26803,3.77443 4.97457,8.9854 4.92653,14.22607 -0.0474,5.24061 -1.85438,10.37137 -5.11872,13.9835 -3.26438,3.61209 -7.87736,5.95559 -14.82938,5.72204 l -0.0815,-0.007 h -0.0813 c -6.68384,0 -11.02942,-2.46124 -14.12084,-6.2131 -3.09162,-3.75185 -4.75821,-9.03558 -4.72398,-14.35172 0.035,-5.31627 1.77327,-10.52678 4.85418,-14.13438 3.08065,-3.60772 7.31835,-5.87383 13.81317,-5.63482 z"
       style="color:#000000;font-style:normal;font-variant:normal;font-weight:normal;font-stretch:normal;font-size:medium;line-height:normal;font-family:sans-serif;font-variant-ligatures:normal;font-variant-position:normal;font-variant-caps:normal;font-variant-numeric:normal;font-variant-alternates:normal;font-feature-settings:normal;text-indent:0;text-align:start;text-decoration:none;text-decoration-line:none;text-decoration-style:solid;text-decoration-color:#000000;letter-spacing:normal;word-spacing:normal;text-transform:none;writing-mode:lr-tb;direction:ltr;text-orientation:mixed;dominant-baseline:auto;baseline-shift:baseline;text-anchor:start;white-space:normal;shape-padding:0;clip-rule:nonzero;display:inline;overflow:visible;visibility:visible;opacity:1;isolation:auto;mix-blend-mode:normal;color-interpolation:sRGB;color-interpolation-filters:linearRGB;solid-color:#000000;solid-opacity:1;vector-effect:none;fill:#000000;fill-opacity:1;fill-rule:nonzero;stroke:none;stroke-width:9.68571949;stroke-linecap:butt;stroke-linejoin:miter;stroke-miterlimit:4;stroke-dasharray:none;stroke-dashoffset:0;stroke-opacity:1;color-rendering:auto;image-rendering:auto;shape-rendering:auto;text-rendering:auto;enable-background:accumulate" />
    <path
       inkscape:connector-curvature="0"
       id="path1039-7-0-9"
       d="m 654.78027,90.249618 c 0,0 -24.22888,12.405282 -48.67805,24.806472 -12.2245,6.20054 -24.50562,12.40043 -33.8237,17.04045 -4.65887,2.32001 -8.58146,4.25128 -11.35691,5.58455 -1.38754,0.66654 -2.49511,1.18687 -3.21532,1.50994 -0.35993,0.16159 -0.63184,0.27557 -0.72003,0.31059 -0.0441,0.0175 -0.05,0.0156 0.0857,-0.028 0.13566,-0.0435 0.009,-0.25287 1.686,-0.25287 v 12.01943 c 1.73427,0 1.70933,-0.23257 1.99344,-0.32394 0.28433,-0.0913 0.47286,-0.16468 0.6655,-0.24105 0.38546,-0.15283 0.75996,-0.31714 1.20994,-0.5191 0.89983,-0.40388 2.06172,-0.94969 3.49919,-1.64015 2.87467,-1.38098 6.82562,-3.32691 11.51059,-5.65997 9.3704,-4.66601 21.6657,-10.87452 33.90363,-17.08188 24.47607,-12.41479 48.71677,-24.82572 48.71677,-24.82572 z"
       style="color:#000000;font-style:normal;font-variant:normal;font-weight:normal;font-stretch:normal;font-size:medium;line-height:normal;font-family:sans-serif;font-variant-ligatures:normal;font-variant-position:normal;font-variant-caps:normal;font-variant-numeric:normal;font-variant-alternates:normal;font-feature-settings:normal;text-indent:0;text-align:start;text-decoration:none;text-decoration-line:none;text-decoration-style:solid;text-decoration-color:#000000;letter-spacing:normal;word-spacing:normal;text-transform:none;writing-mode:lr-tb;direction:ltr;text-orientation:mixed;dominant-baseline:auto;baseline-shift:baseline;text-anchor:start;white-space:normal;shape-padding:0;clip-rule:nonzero;display:inline;overflow:visible;visibility:visible;opacity:1;isolation:auto;mix-blend-mode:normal;color-interpolation:sRGB;color-interpolation-filters:linearRGB;solid-color:#000000;solid-opacity:1;vector-effect:none;fill:#000000;fill-opacity:1;fill-rule:nonzero;stroke:none;stroke-width:12.01925087;stroke-linecap:butt;stroke-linejoin:miter;stroke-miterlimit:4;stroke-dasharray:none;stroke-dashoffset:0;stroke-opacity:1;color-rendering:auto;image-rendering:auto;shape-rendering:auto;text-rendering:auto;enable-background:accumulate" />
  </g>
</svg>
