<?xml version="1.0" encoding="UTF-8" standalone="no"?>
<!-- Created with Inkscape (http://www.inkscape.org/) -->

<svg
   xmlns:dc="http://purl.org/dc/elements/1.1/"
   xmlns:cc="http://creativecommons.org/ns#"
   xmlns:rdf="http://www.w3.org/1999/02/22-rdf-syntax-ns#"
   xmlns:svg="http://www.w3.org/2000/svg"
   xmlns="http://www.w3.org/2000/svg"
   xmlns:sodipodi="http://sodipodi.sourceforge.net/DTD/sodipodi-0.dtd"
   xmlns:inkscape="http://www.inkscape.org/namespaces/inkscape"
   version="1.1"
   id="svg7445"
   width="1000"
   height="1250"
   viewBox="0 0 1000 1250"
   sodipodi:docname="Soldado(a).svg"
   inkscape:version="0.92.4 (5da689c313, 2019-01-14)">
  <metadata
     id="metadata7451">
    <rdf:RDF>
      <cc:Work
         rdf:about="">
        <dc:format>image/svg+xml</dc:format>
        <dc:type
           rdf:resource="http://purl.org/dc/dcmitype/StillImage" />
        <dc:title></dc:title>
      </cc:Work>
    </rdf:RDF>
  </metadata>
  <defs
     id="defs7449">
    <clipPath
       clipPathUnits="userSpaceOnUse"
       id="clipPath7459">
      <rect
         style="opacity:1;fill:#00000a;fill-opacity:0.04705882;stroke:#000000;stroke-width:15;stroke-miterlimit:4;stroke-dasharray:none;stroke-opacity:1"
         id="rect7461"
         width="985"
         height="985"
         x="7.5"
         y="7.5000086"
         transform="rotate(-90)" />
    </clipPath>
    <pattern
       y="0"
       x="0"
       height="6"
       width="6"
       patternUnits="userSpaceOnUse"
       id="EMFhbasepattern" />
  </defs>
  <sodipodi:namedview
     pagecolor="#ffffff"
     bordercolor="#666666"
     borderopacity="1"
     objecttolerance="10"
     gridtolerance="10"
     guidetolerance="10"
     inkscape:pageopacity="0"
     inkscape:pageshadow="2"
     inkscape:window-width="1366"
     inkscape:window-height="715"
     id="namedview7447"
     showgrid="false"
     inkscape:zoom="0.35355339"
     inkscape:cx="1272.8845"
     inkscape:cy="701.28224"
     inkscape:window-x="-8"
     inkscape:window-y="-8"
     inkscape:window-maximized="1"
     inkscape:current-layer="svg7445" />
  <path
     style="color:#000000;font-style:normal;font-variant:normal;font-weight:normal;font-stretch:normal;font-size:medium;line-height:normal;font-family:sans-serif;font-variant-ligatures:normal;font-variant-position:normal;font-variant-caps:normal;font-variant-numeric:normal;font-variant-alternates:normal;font-feature-settings:normal;text-indent:0;text-align:start;text-decoration:none;text-decoration-line:none;text-decoration-style:solid;text-decoration-color:#000000;letter-spacing:normal;word-spacing:normal;text-transform:none;writing-mode:lr-tb;direction:ltr;text-orientation:mixed;dominant-baseline:auto;baseline-shift:baseline;text-anchor:start;white-space:normal;shape-padding:0;clip-rule:nonzero;display:inline;overflow:visible;visibility:visible;opacity:1;isolation:auto;mix-blend-mode:normal;color-interpolation:sRGB;color-interpolation-filters:linearRGB;solid-color:#000000;solid-opacity:1;vector-effect:none;fill:#000000;fill-opacity:1;fill-rule:nonzero;stroke:none;stroke-width:23.11939621;stroke-linecap:butt;stroke-linejoin:miter;stroke-miterlimit:4;stroke-dasharray:none;stroke-dashoffset:0;stroke-opacity:1;color-rendering:auto;image-rendering:auto;shape-rendering:auto;text-rendering:auto;enable-background:accumulate"
     d="M 763.03776,81.69656 C 749.21988,67.928944 727.7456,63.903501 710.14823,71.623859 704.94268,59.339675 697.50898,50.419054 687.55901,45.74672 c -13.76282,-6.462781 -29.14404,-3.613714 -43.59899,2.974067 -24.18278,11.021162 -49.37917,33.346392 -73.71454,57.975903 -1.90037,-3.77588 -4.13687,-7.246141 -7.07953,-10.063822 -7.71127,-7.383717 -18.29134,-9.892908 -28.27797,-9.294375 -19.97334,1.197001 -40.79608,12.251694 -61.48034,25.543037 -41.36835,26.58267 -80.703,64.31643 -80.703,64.31643 l -0.13663,0.13667 -0.13672,0.13668 c -55.86848,57.07905 -90.37696,103.62272 -185.42293,163.04998 l -0.53911,0.33667 -0.49731,0.39364 C 102.44485,423.04688 98.681035,456.14327 67.724598,498.78121 50.703347,522.22546 44.816662,537.70378 37.998851,552.82114 31.180948,567.93854 23.212997,583.58146 0,611.96514 l 17.896388,14.63636 c 24.256929,-29.66007 33.982297,-48.32345 41.176738,-64.2759 7.194532,-15.95238 11.636555,-28.3067 27.359216,-49.96229 33.621698,-46.3091 32.462948,-72.76798 133.477348,-152.65336 96.96522,-60.74641 134.32829,-110.14193 188.92091,-165.93551 0.43628,-0.41555 38.73148,-36.80197 77.07709,-61.44233 19.28268,-12.3907 38.90981,-21.22695 50.36346,-21.91341 5.72697,-0.34316 8.60483,0.7092 10.90676,2.91338 2.30193,2.20421 4.91112,6.94768 5.7343,16.8005 l 2.15154,25.74933 17.76223,-18.76468 c 27.90364,-29.47791 58.40341,-57.186011 80.72204,-67.357577 11.15931,-5.085747 18.96333,-5.534935 24.18509,-3.082933 5.22168,2.452067 10.99179,9.089205 14.954,25.810101 l 4.95731,20.921209 14.7173,-15.674128 c 9.31769,-9.92281 27.79816,-8.052844 36.07265,2.24892 4.13723,5.150918 6.44887,12.092718 3.65366,23.242238 -2.79521,11.14952 -11.43568,26.40634 -30.1383,44.45958 l -18.45711,17.81675 25.57339,2.02364 c 0,0 15.14269,2.18188 21.64756,10.87757 3.25248,4.34787 5.5533,10.27222 3.10072,22.29432 -2.45257,12.02218 -10.38598,29.7369 -28.07673,53.65649 l 18.58871,13.74668 c 18.93023,-25.59555 28.67411,-45.79085 32.14048,-62.78251 3.46636,-16.99173 -0.0733,-31.18455 -7.23907,-40.76416 -5.20637,-6.95977 -11.68467,-11.46191 -17.8294,-14.43762 12.4645,-14.64126 19.88336,-28.37581 23.11568,-41.26905 4.25755,-16.98241 0.56319,-32.614767 -8.05409,-43.343361 -1.0772,-1.341071 -2.2201,-2.609226 -3.42082,-3.805532 z"
     id="path7463"
     inkscape:connector-curvature="0" />
  <path
     style="color:#000000;font-style:normal;font-variant:normal;font-weight:normal;font-stretch:normal;font-size:medium;line-height:normal;font-family:sans-serif;font-variant-ligatures:normal;font-variant-position:normal;font-variant-caps:normal;font-variant-numeric:normal;font-variant-alternates:normal;font-feature-settings:normal;text-indent:0;text-align:start;text-decoration:none;text-decoration-line:none;text-decoration-style:solid;text-decoration-color:#000000;letter-spacing:normal;word-spacing:normal;text-transform:none;writing-mode:lr-tb;direction:ltr;text-orientation:mixed;dominant-baseline:auto;baseline-shift:baseline;text-anchor:start;white-space:normal;shape-padding:0;clip-rule:nonzero;display:inline;overflow:visible;visibility:visible;opacity:1;isolation:auto;mix-blend-mode:normal;color-interpolation:sRGB;color-interpolation-filters:linearRGB;solid-color:#000000;solid-opacity:1;vector-effect:none;fill:#000000;fill-opacity:1;fill-rule:nonzero;stroke:none;stroke-width:23.11939621;stroke-linecap:butt;stroke-linejoin:miter;stroke-miterlimit:4;stroke-dasharray:none;stroke-dashoffset:0;stroke-opacity:1;color-rendering:auto;image-rendering:auto;shape-rendering:auto;text-rendering:auto;enable-background:accumulate"
     d="M 744.32498,288.0988 725.76285,274.31543 C 661.7622,360.15949 652.30203,391.4172 571.18457,478.55735 l -0.43563,0.46802 -0.38094,0.51251 c -19.42123,26.12524 -25.53224,36.1168 -26.63024,46.71735 -0.54891,5.3003 0.9336,9.39625 1.16058,10.41188 0.19318,0.86468 0.25448,1.04659 -0.23542,2.8577 -0.65245,1.39948 -19.27342,41.30336 -42.90034,82.63683 -12.0217,21.03085 -25.25439,42.19069 -37.48632,58.0037 -12.23193,15.813 -25.02018,25.00074 -27.49832,25.39501 -34.81144,5.36034 -75.33315,14.60536 -112.6537,21.38562 -36.89196,6.70244 -71.02006,10.54492 -90.51121,7.14034 -2.05506,-0.57177 -4.05806,-0.62367 -5.52297,-0.39227 -4.4818,0.70791 -6.49434,2.32291 -9.72336,4.70155 -6.45832,4.75736 -16.44586,14.00498 -35.66384,35.04376 l 17.07138,15.59308 c 18.54472,-20.30177 28.23728,-28.97678 32.11895,-31.87089 26.00839,3.98939 59.81878,-0.82862 96.36444,-7.46815 38.06932,-6.91632 78.57655,-16.13395 112.09434,-21.292 l 0.0284,-0.005 0.0293,-0.004 c 17.13314,-2.72477 28.77373,-16.78191 42.15488,-34.08066 13.38115,-17.29868 26.94612,-39.11922 39.2695,-60.67785 24.64665,-43.11727 44.23301,-85.26037 44.23301,-85.26037 l 0.37709,-0.80998 0.24806,-0.85805 c 1.74194,-6.03318 1.51743,-11.73332 0.76957,-15.08052 -0.74794,-3.34727 -0.75453,-2.72949 -0.72778,-2.98802 0.0532,-0.51435 3.36996,-9.92098 21.93998,-34.95515 C 656.68987,422.23566 703.54895,343.21483 744.3255,288.0984 Z"
     id="path7465"
     inkscape:connector-curvature="0"
     sodipodi:nodetypes="cccccsccsscsccccccscccsscccsccc" />
  <path
     style="color:#000000;font-style:normal;font-variant:normal;font-weight:normal;font-stretch:normal;font-size:medium;line-height:normal;font-family:sans-serif;font-variant-ligatures:normal;font-variant-position:normal;font-variant-caps:normal;font-variant-numeric:normal;font-variant-alternates:normal;font-feature-settings:normal;text-indent:0;text-align:start;text-decoration:none;text-decoration-line:none;text-decoration-style:solid;text-decoration-color:#000000;letter-spacing:normal;word-spacing:normal;text-transform:none;writing-mode:lr-tb;direction:ltr;text-orientation:mixed;dominant-baseline:auto;baseline-shift:baseline;text-anchor:start;white-space:normal;shape-padding:0;clip-rule:nonzero;display:inline;overflow:visible;visibility:visible;opacity:1;isolation:auto;mix-blend-mode:normal;color-interpolation:sRGB;color-interpolation-filters:linearRGB;solid-color:#000000;solid-opacity:1;vector-effect:none;fill:#000000;fill-opacity:1;fill-rule:nonzero;stroke:none;stroke-width:23.11939621;stroke-linecap:butt;stroke-linejoin:miter;stroke-miterlimit:4;stroke-dasharray:none;stroke-dashoffset:0;stroke-opacity:1;color-rendering:auto;image-rendering:auto;shape-rendering:auto;text-rendering:auto;enable-background:accumulate"
     d="m 572.98544,136.94259 -17.11051,-15.54885 c -43.67816,48.06842 -79.66237,72.27222 -113.93451,119.03219 -14.52671,19.81995 -22.28132,29.15787 -44.5468,54.59809 l 17.39651,15.22735 c 22.36627,-25.55518 30.98705,-35.95051 45.79727,-56.15722 31.90755,-43.5338 67.11998,-67.32249 112.39804,-117.15156 z"
     id="path7467"
     inkscape:connector-curvature="0" />
  <path
     style="color:#000000;font-style:normal;font-variant:normal;font-weight:normal;font-stretch:normal;font-size:medium;line-height:normal;font-family:sans-serif;font-variant-ligatures:normal;font-variant-position:normal;font-variant-caps:normal;font-variant-numeric:normal;font-variant-alternates:normal;font-feature-settings:normal;text-indent:0;text-align:start;text-decoration:none;text-decoration-line:none;text-decoration-style:solid;text-decoration-color:#000000;letter-spacing:normal;word-spacing:normal;text-transform:none;writing-mode:lr-tb;direction:ltr;text-orientation:mixed;dominant-baseline:auto;baseline-shift:baseline;text-anchor:start;white-space:normal;shape-padding:0;clip-rule:nonzero;display:inline;overflow:visible;visibility:visible;opacity:1;isolation:auto;mix-blend-mode:normal;color-interpolation:sRGB;color-interpolation-filters:linearRGB;solid-color:#000000;solid-opacity:1;vector-effect:none;fill:#000000;fill-opacity:1;fill-rule:nonzero;stroke:none;stroke-width:23.11939621;stroke-linecap:butt;stroke-linejoin:miter;stroke-miterlimit:4;stroke-dasharray:none;stroke-dashoffset:0;stroke-opacity:1;color-rendering:auto;image-rendering:auto;shape-rendering:auto;text-rendering:auto;enable-background:accumulate"
     d="M 714.01706,95.473595 693.85137,84.166936 c -9.25701,16.510174 -38.94674,38.752164 -82.21399,86.418404 l -0.21874,0.24199 -0.20379,0.25178 c -15.7804,19.48049 -44.00586,54.28094 -71.94276,87.11443 -27.9369,32.83346 -56.48583,64.264 -69.23194,74.46118 l 14.44276,18.05467 c 17.08292,-13.66694 44.21608,-44.41245 72.39709,-77.53277 28.06198,-32.98052 56.20489,-67.6781 72.03381,-87.21821 41.89574,-46.12185 70.97362,-65.2838 85.10344,-90.484621 z"
     id="path7469"
     inkscape:connector-curvature="0" />
  <path
     style="color:#000000;font-style:normal;font-variant:normal;font-weight:normal;font-stretch:normal;font-size:medium;line-height:normal;font-family:sans-serif;font-variant-ligatures:normal;font-variant-position:normal;font-variant-caps:normal;font-variant-numeric:normal;font-variant-alternates:normal;font-feature-settings:normal;text-indent:0;text-align:start;text-decoration:none;text-decoration-line:none;text-decoration-style:solid;text-decoration-color:#000000;letter-spacing:normal;word-spacing:normal;text-transform:none;writing-mode:lr-tb;direction:ltr;text-orientation:mixed;dominant-baseline:auto;baseline-shift:baseline;text-anchor:start;white-space:normal;shape-padding:0;clip-rule:nonzero;display:inline;overflow:visible;visibility:visible;opacity:1;isolation:auto;mix-blend-mode:normal;color-interpolation:sRGB;color-interpolation-filters:linearRGB;solid-color:#000000;solid-opacity:1;vector-effect:none;fill:#000000;fill-opacity:1;fill-rule:nonzero;stroke:none;stroke-width:23.11939621;stroke-linecap:butt;stroke-linejoin:miter;stroke-miterlimit:4;stroke-dasharray:none;stroke-dashoffset:0;stroke-opacity:1;color-rendering:auto;image-rendering:auto;shape-rendering:auto;text-rendering:auto;enable-background:accumulate"
     d="m 730.72262,164.46499 c 0,0 -2.28579,-0.0185 -3.87139,0.26955 -1.58561,0.2881 -3.45143,0.81481 -5.60775,1.69969 -4.31272,1.76968 -9.79345,4.94609 -16.83595,10.73332 -14.08483,11.57449 -34.53469,33.64087 -63.77092,77.46699 l 19.23164,12.83035 c 28.44942,-42.64666 47.86268,-63.1043 59.21874,-72.4363 5.67793,-4.66601 9.31098,-6.53923 10.93324,-7.20495 0.81116,-0.33282 1.11934,-0.36982 0.96438,-0.34168 -0.15513,0.0281 -1.75284,0.0545 -1.75284,0.0545 z"
     id="path7471"
     inkscape:connector-curvature="0" />
  <path
     style="color:#000000;font-style:normal;font-variant:normal;font-weight:normal;font-stretch:normal;font-size:medium;line-height:normal;font-family:sans-serif;font-variant-ligatures:normal;font-variant-position:normal;font-variant-caps:normal;font-variant-numeric:normal;font-variant-alternates:normal;font-feature-settings:normal;text-indent:0;text-align:start;text-decoration:none;text-decoration-line:none;text-decoration-style:solid;text-decoration-color:#000000;letter-spacing:normal;word-spacing:normal;text-transform:none;writing-mode:lr-tb;direction:ltr;text-orientation:mixed;dominant-baseline:auto;baseline-shift:baseline;text-anchor:start;white-space:normal;shape-padding:0;clip-rule:nonzero;display:inline;overflow:visible;visibility:visible;opacity:1;isolation:auto;mix-blend-mode:normal;color-interpolation:sRGB;color-interpolation-filters:linearRGB;solid-color:#000000;solid-opacity:1;vector-effect:none;fill:#000000;fill-opacity:1;fill-rule:nonzero;stroke:none;stroke-width:23.11939621;stroke-linecap:butt;stroke-linejoin:miter;stroke-miterlimit:4;stroke-dasharray:none;stroke-dashoffset:0;stroke-opacity:1;color-rendering:auto;image-rendering:auto;shape-rendering:auto;text-rendering:auto;enable-background:accumulate"
     d="m 659.92139,267.38388 -19.28478,-12.74934 c -21.31151,32.52822 -46.99944,61.4738 -69.55457,85.30086 -22.55514,23.82702 -41.68808,41.87148 -51.72273,56.30909 l 18.98358,13.19487 c 6.93501,-9.978 26.58479,-29.37371 49.52819,-53.61092 22.94349,-24.23722 49.52311,-54.06058 72.05031,-88.44456 z"
     id="path7473"
     inkscape:connector-curvature="0"
     sodipodi:nodetypes="ccsccsc" />
  <path
     style="color:#000000;font-style:normal;font-variant:normal;font-weight:normal;font-stretch:normal;font-size:medium;line-height:normal;font-family:sans-serif;font-variant-ligatures:normal;font-variant-position:normal;font-variant-caps:normal;font-variant-numeric:normal;font-variant-alternates:normal;font-feature-settings:normal;text-indent:0;text-align:start;text-decoration:none;text-decoration-line:none;text-decoration-style:solid;text-decoration-color:#000000;letter-spacing:normal;word-spacing:normal;text-transform:none;writing-mode:lr-tb;direction:ltr;text-orientation:mixed;dominant-baseline:auto;baseline-shift:baseline;text-anchor:start;white-space:normal;shape-padding:0;clip-rule:nonzero;display:inline;overflow:visible;visibility:visible;opacity:1;isolation:auto;mix-blend-mode:normal;color-interpolation:sRGB;color-interpolation-filters:linearRGB;solid-color:#000000;solid-opacity:1;vector-effect:none;fill:#000000;fill-opacity:1;fill-rule:nonzero;stroke:none;stroke-width:23.11939621;stroke-linecap:butt;stroke-linejoin:miter;stroke-miterlimit:4;stroke-dasharray:none;stroke-dashoffset:0;stroke-opacity:1;color-rendering:auto;image-rendering:auto;shape-rendering:auto;text-rendering:auto;enable-background:accumulate"
     d="m 547.83981,497.33845 c -9.27708,-8.53939 -20.77315,-15.75591 -32.16459,-23.03723 -22.78267,-14.56265 -46.85943,-29.43458 -60.283,-48.37906 l -0.205,-0.28854 -0.22021,-0.27338 c -4.06291,-5.05096 -10.70671,-8.67495 -17.26116,-8.55905 -6.55435,0.1159 -11.93895,3.12409 -16.23344,6.848 -8.58898,7.4479 -14.46815,18.6814 -18.06738,32.27464 -6.54482,24.71856 -3.90402,58.33265 19.75818,85.74255 -0.93058,1.16963 -1.68182,1.95455 -2.65519,3.29552 -4.07969,5.62041 -8.57019,12.63136 -10.71817,21.12873 -1.04549,0.65462 -1.93556,1.14124 -3.112,1.98827 -4.43368,3.19207 -9.9705,7.6865 -13.51888,15.15396 l 20.88194,9.92207 c 0.67527,-1.42093 3.38498,-4.32727 6.14446,-6.31391 2.75928,-1.9867 4.92807,-3.03486 4.92807,-3.03486 l 5.94688,-2.864 0.5556,-6.5772 c 0.28087,-3.32669 3.67868,-10.41845 7.60113,-15.82216 3.92234,-5.40368 7.64648,-9.13998 7.64648,-9.13998 l 8.47938,-8.47935 -8.78316,-8.16295 c -24.08913,-22.38733 -26.18341,-50.60463 -20.80467,-70.91888 2.68937,-10.15711 7.72346,-18.00197 10.86369,-20.72502 0.42382,-0.36809 0.59197,-0.42261 0.87577,-0.60237 17.44581,23.86497 43.76769,39.22838 65.73003,53.26664 22.35078,14.28654 38.42221,27.20062 40.79698,39.06825 l 22.66895,-4.53578 c -2.51608,-12.57354 -9.5737,-22.43552 -18.85069,-30.97491 z M 436.52768,439.28919 c 0.11152,0.1574 0.2432,0.29509 0.35555,0.45176 0.0339,0.0467 0.0138,0.0416 0.0687,0.10881 z"
     id="path7475"
     inkscape:connector-curvature="0" />
  <path
     style="color:#000000;font-style:normal;font-variant:normal;font-weight:normal;font-stretch:normal;font-size:medium;line-height:normal;font-family:sans-serif;font-variant-ligatures:normal;font-variant-position:normal;font-variant-caps:normal;font-variant-numeric:normal;font-variant-alternates:normal;font-feature-settings:normal;text-indent:0;text-align:start;text-decoration:none;text-decoration-line:none;text-decoration-style:solid;text-decoration-color:#000000;letter-spacing:normal;word-spacing:normal;text-transform:none;writing-mode:lr-tb;direction:ltr;text-orientation:mixed;dominant-baseline:auto;baseline-shift:baseline;text-anchor:start;white-space:normal;shape-padding:0;clip-rule:nonzero;display:inline;overflow:visible;visibility:visible;opacity:1;isolation:auto;mix-blend-mode:normal;color-interpolation:sRGB;color-interpolation-filters:linearRGB;solid-color:#000000;solid-opacity:1;vector-effect:none;fill:#000000;fill-opacity:1;fill-rule:nonzero;stroke:none;stroke-width:23.11939621;stroke-linecap:butt;stroke-linejoin:miter;stroke-miterlimit:4;stroke-dasharray:none;stroke-dashoffset:0;stroke-opacity:1;color-rendering:auto;image-rendering:auto;shape-rendering:auto;text-rendering:auto;enable-background:accumulate"
     d="m 416.64413,580.86241 -23.11567,-0.30751 c 0,0 -0.0559,3.09678 -0.66181,6.73664 -0.60599,3.63992 -2.67223,7.28904 -1.87058,6.48732 l -8.50587,8.50591 8.83878,8.16043 c 0,0 2.80933,2.66602 5.02942,6.75059 2.22,4.08451 3.26696,7.8176 1.38702,12.07099 l 21.1452,9.34752 c 5.50978,-12.46596 1.98267,-24.72859 -2.21853,-32.45813 -1.07161,-1.97148 -2.22248,-3.74995 -3.34624,-5.32552 1.3107,-3.45764 1.85667,-6.80109 2.34638,-9.74236 0.9248,-5.55438 0.9719,-10.22588 0.9719,-10.22588 z"
     id="path7477"
     inkscape:connector-curvature="0" />
  <path
     style="color:#000000;font-style:normal;font-variant:normal;font-weight:normal;font-stretch:normal;font-size:medium;line-height:normal;font-family:sans-serif;font-variant-ligatures:normal;font-variant-position:normal;font-variant-caps:normal;font-variant-numeric:normal;font-variant-alternates:normal;font-feature-settings:normal;text-indent:0;text-align:start;text-decoration:none;text-decoration-line:none;text-decoration-style:solid;text-decoration-color:#000000;letter-spacing:normal;word-spacing:normal;text-transform:none;writing-mode:lr-tb;direction:ltr;text-orientation:mixed;dominant-baseline:auto;baseline-shift:baseline;text-anchor:start;white-space:normal;shape-padding:0;clip-rule:nonzero;display:inline;overflow:visible;visibility:visible;opacity:1;isolation:auto;mix-blend-mode:normal;color-interpolation:sRGB;color-interpolation-filters:linearRGB;solid-color:#000000;solid-opacity:1;vector-effect:none;fill:#000000;fill-opacity:1;fill-rule:nonzero;stroke:none;stroke-width:17.3395462;stroke-linecap:butt;stroke-linejoin:miter;stroke-miterlimit:4;stroke-dasharray:none;stroke-dashoffset:0;stroke-opacity:1;color-rendering:auto;image-rendering:auto;shape-rendering:auto;text-rendering:auto;enable-background:accumulate"
     d="m 500.30491,552.60601 c -23.96965,2.50696 -37.46048,-7.09611 -44.962,-11.68254 -14.39951,-10.02052 -3.26934,-5.8331 -24.53312,3.91953 0,0 1.35953,2.80564 3.79414,5.76592 2.43463,2.96027 6.21759,6.63975 11.73315,10.01194 11.03101,6.74441 28.83842,12.04687 55.77253,9.22982 z"
     id="path8048"
     inkscape:connector-curvature="0"
     sodipodi:nodetypes="cccsscc" />
  <path
     style="color:#000000;font-style:normal;font-variant:normal;font-weight:normal;font-stretch:normal;font-size:medium;line-height:normal;font-family:sans-serif;font-variant-ligatures:normal;font-variant-position:normal;font-variant-caps:normal;font-variant-numeric:normal;font-variant-alternates:normal;font-feature-settings:normal;text-indent:0;text-align:start;text-decoration:none;text-decoration-line:none;text-decoration-style:solid;text-decoration-color:#000000;letter-spacing:normal;word-spacing:normal;text-transform:none;writing-mode:lr-tb;direction:ltr;text-orientation:mixed;dominant-baseline:auto;baseline-shift:baseline;text-anchor:start;white-space:normal;shape-padding:0;clip-rule:nonzero;display:inline;overflow:visible;visibility:visible;opacity:1;isolation:auto;mix-blend-mode:normal;color-interpolation:sRGB;color-interpolation-filters:linearRGB;solid-color:#000000;solid-opacity:1;vector-effect:none;fill:#000000;fill-opacity:1;fill-rule:nonzero;stroke:none;stroke-width:17.3395462;stroke-linecap:butt;stroke-linejoin:miter;stroke-miterlimit:4;stroke-dasharray:none;stroke-dashoffset:0;stroke-opacity:1;color-rendering:auto;image-rendering:auto;shape-rendering:auto;text-rendering:auto;enable-background:accumulate"
     d="m 428.17989,570.25565 -16.16637,6.27222 c 0,0 10.81082,28.88844 40.04145,40.0566 l 6.18991,-16.19802 c -21.10617,-8.06412 -30.06499,-30.13082 -30.06499,-30.13082 z"
     id="path8050"
     inkscape:connector-curvature="0" />
  <path
     style="color:#000000;font-style:normal;font-variant:normal;font-weight:normal;font-stretch:normal;font-size:medium;line-height:normal;font-family:sans-serif;font-variant-ligatures:normal;font-variant-position:normal;font-variant-caps:normal;font-variant-numeric:normal;font-variant-alternates:normal;font-feature-settings:normal;text-indent:0;text-align:start;text-decoration:none;text-decoration-line:none;text-decoration-style:solid;text-decoration-color:#000000;letter-spacing:normal;word-spacing:normal;text-transform:none;writing-mode:lr-tb;direction:ltr;text-orientation:mixed;dominant-baseline:auto;baseline-shift:baseline;text-anchor:start;white-space:normal;shape-padding:0;clip-rule:nonzero;display:inline;overflow:visible;visibility:visible;opacity:1;isolation:auto;mix-blend-mode:normal;color-interpolation:sRGB;color-interpolation-filters:linearRGB;solid-color:#000000;solid-opacity:1;vector-effect:none;fill:#000000;fill-opacity:1;fill-rule:nonzero;stroke:none;stroke-width:17.3395462;stroke-linecap:butt;stroke-linejoin:miter;stroke-miterlimit:4;stroke-dasharray:none;stroke-dashoffset:0;stroke-opacity:1;color-rendering:auto;image-rendering:auto;shape-rendering:auto;text-rendering:auto;enable-background:accumulate"
     d="m 190.09908,570.42656 -16.24737,-6.05454 c -22.94376,61.57528 -10.27565,109.45344 8.48945,140.89627 18.76511,31.44271 43.71034,47.38803 43.71034,47.38803 l 9.34113,-14.60849 c 0,0 -21.51148,-13.76567 -38.16197,-41.66519 -16.65048,-27.89947 -28.35522,-68.99703 -7.13158,-125.95608 z"
     id="path8052"
     inkscape:connector-curvature="0" />
  <path
     style="color:#000000;font-style:normal;font-variant:normal;font-weight:normal;font-stretch:normal;font-size:medium;line-height:normal;font-family:sans-serif;font-variant-ligatures:normal;font-variant-position:normal;font-variant-caps:normal;font-variant-numeric:normal;font-variant-alternates:normal;font-feature-settings:normal;text-indent:0;text-align:start;text-decoration:none;text-decoration-line:none;text-decoration-style:solid;text-decoration-color:#000000;letter-spacing:normal;word-spacing:normal;text-transform:none;writing-mode:lr-tb;direction:ltr;text-orientation:mixed;dominant-baseline:auto;baseline-shift:baseline;text-anchor:start;white-space:normal;shape-padding:0;clip-rule:nonzero;display:inline;overflow:visible;visibility:visible;opacity:1;isolation:auto;mix-blend-mode:normal;color-interpolation:sRGB;color-interpolation-filters:linearRGB;solid-color:#000000;solid-opacity:1;vector-effect:none;fill:#000000;fill-opacity:1;fill-rule:nonzero;stroke:none;stroke-width:17.3395462;stroke-linecap:butt;stroke-linejoin:miter;stroke-miterlimit:4;stroke-dasharray:none;stroke-dashoffset:0;stroke-opacity:1;color-rendering:auto;image-rendering:auto;shape-rendering:auto;text-rendering:auto;enable-background:accumulate"
     d="m 116.77436,603.15167 c -42.789746,8.92719 -68.88391,-31.0989 -68.88391,-31.0989 l -14.511033,9.49184 c 0,0 32.722377,49.89135 86.935983,38.58098 z"
     id="path8056"
     inkscape:connector-curvature="0" />
  <path
     style="color:#000000;font-style:normal;font-variant:normal;font-weight:normal;font-stretch:normal;font-size:medium;line-height:normal;font-family:sans-serif;font-variant-ligatures:normal;font-variant-position:normal;font-variant-caps:normal;font-variant-numeric:normal;font-variant-alternates:normal;font-feature-settings:normal;text-indent:0;text-align:start;text-decoration:none;text-decoration-line:none;text-decoration-style:solid;text-decoration-color:#000000;letter-spacing:normal;word-spacing:normal;text-transform:none;writing-mode:lr-tb;direction:ltr;text-orientation:mixed;dominant-baseline:auto;baseline-shift:baseline;text-anchor:start;white-space:normal;shape-padding:0;clip-rule:nonzero;display:inline;overflow:visible;visibility:visible;opacity:1;isolation:auto;mix-blend-mode:normal;color-interpolation:sRGB;color-interpolation-filters:linearRGB;solid-color:#000000;solid-opacity:1;vector-effect:none;fill:#000000;fill-opacity:1;fill-rule:nonzero;stroke:none;stroke-width:17.3395462;stroke-linecap:butt;stroke-linejoin:miter;stroke-miterlimit:4;stroke-dasharray:none;stroke-dashoffset:0;stroke-opacity:1;color-rendering:auto;image-rendering:auto;shape-rendering:auto;text-rendering:auto;enable-background:accumulate"
     d="m 416.87708,486.83799 c -22.57218,-11.01879 -53.63821,-13.87252 -86.11593,-15.59816 -32.47761,-1.72564 -66.34069,-2.00576 -92.569,-5.78624 l -2.47293,17.16373 c 28.15032,4.05754 62.2063,4.24103 94.1219,5.93682 31.91561,1.69573 61.71723,5.21903 79.42988,13.86558 z"
     id="path8058"
     inkscape:connector-curvature="0" />
  <path
     style="color:#000000;font-style:normal;font-variant:normal;font-weight:normal;font-stretch:normal;font-size:medium;line-height:normal;font-family:sans-serif;font-variant-ligatures:normal;font-variant-position:normal;font-variant-caps:normal;font-variant-numeric:normal;font-variant-alternates:normal;font-feature-settings:normal;text-indent:0;text-align:start;text-decoration:none;text-decoration-line:none;text-decoration-style:solid;text-decoration-color:#000000;letter-spacing:normal;word-spacing:normal;text-transform:none;writing-mode:lr-tb;direction:ltr;text-orientation:mixed;dominant-baseline:auto;baseline-shift:baseline;text-anchor:start;white-space:normal;shape-padding:0;clip-rule:nonzero;display:inline;overflow:visible;visibility:visible;opacity:1;isolation:auto;mix-blend-mode:normal;color-interpolation:sRGB;color-interpolation-filters:linearRGB;solid-color:#000000;solid-opacity:1;vector-effect:none;fill:#000000;fill-opacity:1;fill-rule:nonzero;stroke:none;stroke-width:17.3395462;stroke-linecap:butt;stroke-linejoin:miter;stroke-miterlimit:4;stroke-dasharray:none;stroke-dashoffset:0;stroke-opacity:1;color-rendering:auto;image-rendering:auto;shape-rendering:auto;text-rendering:auto;enable-background:accumulate"
     d="m 406.21719,506.57459 c -24.53468,6.10365 -60.63765,6.72051 -97.23656,8.27937 -36.59881,1.55892 -73.81123,3.99049 -102.76696,15.80448 l 6.55061,16.05509 c 24.76606,-10.10469 60.70354,-12.99109 96.95422,-14.53515 36.25069,-1.54406 72.69803,-1.81572 100.68395,-8.77799 z"
     id="path8060"
     inkscape:connector-curvature="0" />
  <path
     style="color:#000000;font-style:normal;font-variant:normal;font-weight:normal;font-stretch:normal;font-size:medium;line-height:normal;font-family:sans-serif;font-variant-ligatures:normal;font-variant-position:normal;font-variant-caps:normal;font-variant-numeric:normal;font-variant-alternates:normal;font-feature-settings:normal;text-indent:0;text-align:start;text-decoration:none;text-decoration-line:none;text-decoration-style:solid;text-decoration-color:#000000;letter-spacing:normal;word-spacing:normal;text-transform:none;writing-mode:lr-tb;direction:ltr;text-orientation:mixed;dominant-baseline:auto;baseline-shift:baseline;text-anchor:start;white-space:normal;shape-padding:0;clip-rule:nonzero;display:inline;overflow:visible;visibility:visible;opacity:1;isolation:auto;mix-blend-mode:normal;color-interpolation:sRGB;color-interpolation-filters:linearRGB;solid-color:#000000;solid-opacity:1;vector-effect:none;fill:#000000;fill-opacity:1;fill-rule:nonzero;stroke:none;stroke-width:17.3395462;stroke-linecap:butt;stroke-linejoin:miter;stroke-miterlimit:4;stroke-dasharray:none;stroke-dashoffset:0;stroke-opacity:1;color-rendering:auto;image-rendering:auto;shape-rendering:auto;text-rendering:auto;enable-background:accumulate"
     d="m 385.63262,427.85981 c -81.78834,-7.43882 -137.736,-86.54872 -137.736,-86.54872 l -14.24034,9.89419 c 0,0 58.47804,85.56225 150.40577,93.92321 z"
     id="path8062"
     inkscape:connector-curvature="0" />
  <path
     style="color:#000000;font-style:normal;font-variant:normal;font-weight:normal;font-stretch:normal;font-size:medium;line-height:normal;font-family:sans-serif;font-variant-ligatures:normal;font-variant-position:normal;font-variant-caps:normal;font-variant-numeric:normal;font-variant-alternates:normal;font-feature-settings:normal;text-indent:0;text-align:start;text-decoration:none;text-decoration-line:none;text-decoration-style:solid;text-decoration-color:#000000;letter-spacing:normal;word-spacing:normal;text-transform:none;writing-mode:lr-tb;direction:ltr;text-orientation:mixed;dominant-baseline:auto;baseline-shift:baseline;text-anchor:start;white-space:normal;shape-padding:0;clip-rule:nonzero;display:inline;overflow:visible;visibility:visible;opacity:1;isolation:auto;mix-blend-mode:normal;color-interpolation:sRGB;color-interpolation-filters:linearRGB;solid-color:#000000;solid-opacity:1;vector-effect:none;fill:#000000;fill-opacity:1;fill-rule:nonzero;stroke:none;stroke-width:17.3395462;stroke-linecap:butt;stroke-linejoin:miter;stroke-miterlimit:4;stroke-dasharray:none;stroke-dashoffset:0;stroke-opacity:1;color-rendering:auto;image-rendering:auto;shape-rendering:auto;text-rendering:auto;enable-background:accumulate"
     d="m 500.48837,486.80253 -15.04253,-8.6261 c -6.21017,10.82816 -12.48026,14.27891 -19.014,15.08561 -6.53373,0.80668 -14.32034,-1.64377 -21.7337,-6.47845 -7.41326,-4.83468 -14.21192,-11.91702 -18.47608,-18.49893 -4.26407,-6.58181 -5.00156,-12.7359 -4.88262,-13.14169 l -16.63967,-4.88001 c -2.86568,9.7692 1.29978,18.69757 6.96947,27.44901 5.66969,8.75137 13.83502,17.25475 23.55737,23.59529 9.72244,6.34061 21.24298,10.65515 33.33011,9.16277 12.08714,-1.49238 23.75247,-9.40594 31.93165,-23.66751 z"
     id="path8068"
     inkscape:connector-curvature="0" />
  <path
     style="color:#000000;font-style:normal;font-variant:normal;font-weight:normal;font-stretch:normal;font-size:medium;line-height:normal;font-family:sans-serif;font-variant-ligatures:normal;font-variant-position:normal;font-variant-caps:normal;font-variant-numeric:normal;font-variant-alternates:normal;font-feature-settings:normal;text-indent:0;text-align:start;text-decoration:none;text-decoration-line:none;text-decoration-style:solid;text-decoration-color:#000000;letter-spacing:normal;word-spacing:normal;text-transform:none;writing-mode:lr-tb;direction:ltr;text-orientation:mixed;dominant-baseline:auto;baseline-shift:baseline;text-anchor:start;white-space:normal;shape-padding:0;clip-rule:nonzero;display:inline;overflow:visible;visibility:visible;opacity:1;isolation:auto;mix-blend-mode:normal;color-interpolation:sRGB;color-interpolation-filters:linearRGB;solid-color:#000000;solid-opacity:1;vector-effect:none;fill:#000000;fill-opacity:1;fill-rule:nonzero;stroke:none;stroke-width:11.5596981;stroke-linecap:butt;stroke-linejoin:miter;stroke-miterlimit:4;stroke-dasharray:none;stroke-dashoffset:0;stroke-opacity:1;color-rendering:auto;image-rendering:auto;shape-rendering:auto;text-rendering:auto;enable-background:accumulate"
     d="M 455.229,215.44356 C 444.01774,204.27787 431.99833,196.87127 413.52966,194.1503 l -1.68457,11.43693 c 16.36605,2.41123 25.00241,7.86247 35.22729,18.04584 z"
     id="path8074"
     inkscape:connector-curvature="0" />
  <path
     style="color:#000000;font-style:normal;font-variant:normal;font-weight:normal;font-stretch:normal;font-size:medium;line-height:normal;font-family:sans-serif;font-variant-ligatures:normal;font-variant-position:normal;font-variant-caps:normal;font-variant-numeric:normal;font-variant-alternates:normal;font-feature-settings:normal;text-indent:0;text-align:start;text-decoration:none;text-decoration-line:none;text-decoration-style:solid;text-decoration-color:#000000;letter-spacing:normal;word-spacing:normal;text-transform:none;writing-mode:lr-tb;direction:ltr;text-orientation:mixed;dominant-baseline:auto;baseline-shift:baseline;text-anchor:start;white-space:normal;shape-padding:0;clip-rule:nonzero;display:inline;overflow:visible;visibility:visible;opacity:1;isolation:auto;mix-blend-mode:normal;color-interpolation:sRGB;color-interpolation-filters:linearRGB;solid-color:#000000;solid-opacity:1;vector-effect:none;fill:#000000;fill-opacity:1;fill-rule:nonzero;stroke:none;stroke-width:11.5596981;stroke-linecap:butt;stroke-linejoin:miter;stroke-miterlimit:4;stroke-dasharray:none;stroke-dashoffset:0;stroke-opacity:1;color-rendering:auto;image-rendering:auto;shape-rendering:auto;text-rendering:auto;enable-background:accumulate"
     d="m 543.91022,224.98599 c -8.04264,-7.98666 -17.60388,-13.90228 -31.09261,-17.65479 l -3.09817,11.13704 c 15.93737,4.4337 23.82623,10.92144 32.70113,22.30064 l 9.11598,-7.10868 c -2.43279,-3.11921 -4.94549,-6.01201 -7.62633,-8.67421 z"
     id="path8074-3"
     inkscape:connector-curvature="0" />
  <path
     style="color:#000000;font-style:normal;font-variant:normal;font-weight:normal;font-stretch:normal;font-size:medium;line-height:normal;font-family:sans-serif;font-variant-ligatures:normal;font-variant-position:normal;font-variant-caps:normal;font-variant-numeric:normal;font-variant-alternates:normal;font-feature-settings:normal;text-indent:0;text-align:start;text-decoration:none;text-decoration-line:none;text-decoration-style:solid;text-decoration-color:#000000;letter-spacing:normal;word-spacing:normal;text-transform:none;writing-mode:lr-tb;direction:ltr;text-orientation:mixed;dominant-baseline:auto;baseline-shift:baseline;text-anchor:start;white-space:normal;shape-padding:0;clip-rule:nonzero;display:inline;overflow:visible;visibility:visible;opacity:1;isolation:auto;mix-blend-mode:normal;color-interpolation:sRGB;color-interpolation-filters:linearRGB;solid-color:#000000;solid-opacity:1;vector-effect:none;fill:#000000;fill-opacity:1;fill-rule:nonzero;stroke:none;stroke-width:11.5596981;stroke-linecap:butt;stroke-linejoin:miter;stroke-miterlimit:4;stroke-dasharray:none;stroke-dashoffset:0;stroke-opacity:1;color-rendering:auto;image-rendering:auto;shape-rendering:auto;text-rendering:auto;enable-background:accumulate"
     d="m 608.786,266.68407 c -6.47518,-6.82363 -14.43141,-12.35159 -25.26467,-16.6841 l -4.29284,10.73209 c 15.35988,6.14278 22.49456,13.45113 30.07764,25.7291 l 9.83469,-6.07352 c -3.11787,-5.04835 -6.46977,-9.60946 -10.35482,-13.70357 z"
     id="path8074-2"
     inkscape:connector-curvature="0" />
  <path
     style="color:#000000;font-style:normal;font-variant:normal;font-weight:normal;font-stretch:normal;font-size:medium;line-height:normal;font-family:sans-serif;font-variant-ligatures:normal;font-variant-position:normal;font-variant-caps:normal;font-variant-numeric:normal;font-variant-alternates:normal;font-feature-settings:normal;text-indent:0;text-align:start;text-decoration:none;text-decoration-line:none;text-decoration-style:solid;text-decoration-color:#000000;letter-spacing:normal;word-spacing:normal;text-transform:none;writing-mode:lr-tb;direction:ltr;text-orientation:mixed;dominant-baseline:auto;baseline-shift:baseline;text-anchor:start;white-space:normal;shape-padding:0;clip-rule:nonzero;display:inline;overflow:visible;visibility:visible;opacity:1;isolation:auto;mix-blend-mode:normal;color-interpolation:sRGB;color-interpolation-filters:linearRGB;solid-color:#000000;solid-opacity:1;vector-effect:none;fill:#000000;fill-opacity:1;fill-rule:nonzero;stroke:none;stroke-width:11.5596981;stroke-linecap:butt;stroke-linejoin:miter;stroke-miterlimit:4;stroke-dasharray:none;stroke-dashoffset:0;stroke-opacity:1;color-rendering:auto;image-rendering:auto;shape-rendering:auto;text-rendering:auto;enable-background:accumulate"
     d="m 642.36544,344.68003 c -5.42742,-5.33885 -12.02383,-9.92049 -20.49722,-13.83524 l -4.84844,10.49287 c 15.01739,6.93805 21.76161,14.60888 28.6918,27.26677 l 10.13975,-5.55081 c -3.79938,-6.93948 -8.05867,-13.03478 -13.48589,-18.37359 z"
     id="path8074-6"
     inkscape:connector-curvature="0" />
  <path
     style="color:#000000;font-style:normal;font-variant:normal;font-weight:normal;font-stretch:normal;font-size:medium;line-height:normal;font-family:sans-serif;font-variant-ligatures:normal;font-variant-position:normal;font-variant-caps:normal;font-variant-numeric:normal;font-variant-alternates:normal;font-feature-settings:normal;text-indent:0;text-align:start;text-decoration:none;text-decoration-line:none;text-decoration-style:solid;text-decoration-color:#000000;letter-spacing:normal;word-spacing:normal;text-transform:none;writing-mode:lr-tb;direction:ltr;text-orientation:mixed;dominant-baseline:auto;baseline-shift:baseline;text-anchor:start;white-space:normal;shape-padding:0;clip-rule:nonzero;display:inline;overflow:visible;visibility:visible;opacity:1;isolation:auto;mix-blend-mode:normal;color-interpolation:sRGB;color-interpolation-filters:linearRGB;solid-color:#000000;solid-opacity:1;vector-effect:none;fill:#000000;fill-opacity:1;fill-rule:nonzero;stroke:none;stroke-width:8.11126328;stroke-linecap:butt;stroke-linejoin:miter;stroke-miterlimit:4;stroke-dasharray:none;stroke-dashoffset:0;stroke-opacity:1;color-rendering:auto;image-rendering:auto;shape-rendering:auto;text-rendering:auto;enable-background:accumulate"
     d="m 508.33618,161.4175 c -9.1015,-9.08756 -18.13455,-15.57591 -32.02154,-20.27196 l -2.59819,7.68583 c 12.80035,4.3286 20.284,9.7348 28.888,18.32553 z"
     id="path8074-7"
     inkscape:connector-curvature="0" />
  <path
     style="color:#000000;font-style:normal;font-variant:normal;font-weight:normal;font-stretch:normal;font-size:medium;line-height:normal;font-family:sans-serif;font-variant-ligatures:normal;font-variant-position:normal;font-variant-caps:normal;font-variant-numeric:normal;font-variant-alternates:normal;font-feature-settings:normal;text-indent:0;text-align:start;text-decoration:none;text-decoration-line:none;text-decoration-style:solid;text-decoration-color:#000000;letter-spacing:normal;word-spacing:normal;text-transform:none;writing-mode:lr-tb;direction:ltr;text-orientation:mixed;dominant-baseline:auto;baseline-shift:baseline;text-anchor:start;white-space:normal;shape-padding:0;clip-rule:nonzero;display:inline;overflow:visible;visibility:visible;opacity:1;isolation:auto;mix-blend-mode:normal;color-interpolation:sRGB;color-interpolation-filters:linearRGB;solid-color:#000000;solid-opacity:1;vector-effect:none;fill:#000000;fill-opacity:1;fill-rule:nonzero;stroke:none;stroke-width:11.5596981;stroke-linecap:butt;stroke-linejoin:miter;stroke-miterlimit:4;stroke-dasharray:none;stroke-dashoffset:0;stroke-opacity:1;color-rendering:auto;image-rendering:auto;shape-rendering:auto;text-rendering:auto;enable-background:accumulate"
     d="m 613.97101,140.50261 c -6.76649,-6.53468 -14.95757,-11.71057 -25.96954,-15.56648 l -3.82072,10.9105 c 15.61307,5.46702 23.06097,12.45581 31.17234,24.39138 l 9.5613,-6.49621 c -3.3351,-4.90759 -6.88338,-9.31832 -10.94338,-13.23919 z"
     id="path8074-9"
     inkscape:connector-curvature="0" />
  <path
     style="color:#000000;font-style:normal;font-variant:normal;font-weight:normal;font-stretch:normal;font-size:medium;line-height:normal;font-family:sans-serif;font-variant-ligatures:normal;font-variant-position:normal;font-variant-caps:normal;font-variant-numeric:normal;font-variant-alternates:normal;font-feature-settings:normal;text-indent:0;text-align:start;text-decoration:none;text-decoration-line:none;text-decoration-style:solid;text-decoration-color:#000000;letter-spacing:normal;word-spacing:normal;text-transform:none;writing-mode:lr-tb;direction:ltr;text-orientation:mixed;dominant-baseline:auto;baseline-shift:baseline;text-anchor:start;white-space:normal;shape-padding:0;clip-rule:nonzero;display:inline;overflow:visible;visibility:visible;opacity:1;isolation:auto;mix-blend-mode:normal;color-interpolation:sRGB;color-interpolation-filters:linearRGB;solid-color:#000000;solid-opacity:1;vector-effect:none;fill:#000000;fill-opacity:1;fill-rule:nonzero;stroke:none;stroke-width:11.5596981;stroke-linecap:butt;stroke-linejoin:miter;stroke-miterlimit:4;stroke-dasharray:none;stroke-dashoffset:0;stroke-opacity:1;color-rendering:auto;image-rendering:auto;shape-rendering:auto;text-rendering:auto;enable-background:accumulate"
     d="m 673.61741,178.81405 c -5.5918,-5.16625 -12.32805,-9.53977 -20.91987,-13.18724 l -4.51809,10.64093 c 15.22727,6.46441 22.20774,13.91963 29.53084,26.35426 l 9.96134,-5.8659 c -4.01481,-6.8171 -8.46233,-12.77574 -14.05422,-17.94205 z"
     id="path8074-67"
     inkscape:connector-curvature="0" />
  <path
     style="color:#000000;font-style:normal;font-variant:normal;font-weight:normal;font-stretch:normal;font-size:medium;line-height:normal;font-family:sans-serif;font-variant-ligatures:normal;font-variant-position:normal;font-variant-caps:normal;font-variant-numeric:normal;font-variant-alternates:normal;font-feature-settings:normal;text-indent:0;text-align:start;text-decoration:none;text-decoration-line:none;text-decoration-style:solid;text-decoration-color:#000000;letter-spacing:normal;word-spacing:normal;text-transform:none;writing-mode:lr-tb;direction:ltr;text-orientation:mixed;dominant-baseline:auto;baseline-shift:baseline;text-anchor:start;white-space:normal;shape-padding:0;clip-rule:nonzero;display:inline;overflow:visible;visibility:visible;opacity:1;isolation:auto;mix-blend-mode:normal;color-interpolation:sRGB;color-interpolation-filters:linearRGB;solid-color:#000000;solid-opacity:1;vector-effect:none;fill:#000000;fill-opacity:1;fill-rule:nonzero;stroke:none;stroke-width:11.5596981;stroke-linecap:butt;stroke-linejoin:miter;stroke-miterlimit:4;stroke-dasharray:none;stroke-dashoffset:0;stroke-opacity:1;color-rendering:auto;image-rendering:auto;shape-rendering:auto;text-rendering:auto;enable-background:accumulate"
     d="m 699.52875,274.09906 c -6.58221,-6.7204 -14.62613,-12.1222 -25.52656,-16.28292 l -4.12193,10.79917 c 15.45499,5.89916 22.70505,13.09294 30.48129,25.24943 l 9.73857,-6.22787 c -3.19741,-4.99843 -6.62207,-9.50563 -10.57137,-13.53781 z"
     id="path8074-4"
     inkscape:connector-curvature="0" />
  <path
     id="path145"
     d="M 1002.7111,0.2044204 C 893.62444,0.15412984 808.00037,30.190963 744.70253,79.899682 l 9.94889,14.5433 -135.4339,345.652968 -17.40118,24.20326 c 0.73457,12.92729 1.82835,25.87464 3.26522,38.80669 13.70884,123.45279 58.79405,246.17247 125.28555,339.34849 66.49149,93.24943 156.0754,158.12821 257.90202,157.54167 101.82647,-0.58648 190.67737,-66.19821 256.80227,-159.74086 66.125,-93.46935 111.0636,-216.18902 126.0187,-339.27526 14.8818,-123.15955 -0.073,-247.1988 -58.0611,-342.35422 C 1255.0414,63.543618 1152.1885,-0.30874826 1002.7111,0.2044204 Z m 0.073,41.2731136 v 0 h 0.073 c 138.0412,-0.513168 223.6664,54.615384 274.983,138.627806 51.2431,84.08571 66.4182,199.40116 52.2695,315.88957 -14.1487,116.48841 -57.4011,233.70993 -118.761,320.43478 -61.3598,86.79817 -139.2143,141.78014 -223.3,142.29332 C 903.96346,959.23607 825.59583,904.84057 763.94275,818.55558 702.28966,732.19728 659.0372,615.04914 646.06146,498.56073 c -2.96366,-26.60602 -4.34024,-53.15467 -4.03714,-79.29133 0.36901,-31.81943 -22.8068,20.82655 -22.8068,20.82655 L 754.65142,94.442982 767.80154,113.62664 C 823.38403,68.618151 899.62251,41.426539 1002.7844,41.477534 Z"
     style="fill:#000000;fill-opacity:1;fill-rule:nonzero;stroke:none;stroke-width:0.91637248"
     inkscape:connector-curvature="0"
     sodipodi:nodetypes="cccccccsccccccccscccsccccc" />
  <path
     id="path157"
     d="m 980.64491,497.09455 c 0,0 -2.34583,22.9458 -6.15794,47.06453 -1.90605,12.09604 -4.25197,24.412 -6.7445,34.0155 -1.24627,4.76511 -2.56575,8.94373 -3.73871,11.72948 -1.17296,2.85906 -2.63915,4.32525 -1.5395,3.44554 -2.34592,1.90604 -4.76514,3.51885 -6.01141,8.57719 -0.58648,2.49251 -0.29323,6.23128 1.39289,8.87041 1.61282,2.63913 3.66549,3.9587 5.27831,4.69179 6.30455,3.00568 9.60349,1.83273 13.92877,1.5395 8.65046,-0.58647 17.96071,-2.49252 17.96071,-2.49252 l -4.03194,-20.23335 c 0,0 -4.39859,0.51316 -7.11105,0.95302 1.39288,-3.66547 2.71246,-7.47755 3.81211,-11.8761 2.78576,-10.77647 5.2049,-23.53227 7.18426,-35.99484 3.95873,-24.85184 6.30469,-48.23749 6.30469,-48.23749 z"
     style="fill:#000000;fill-opacity:1;fill-rule:nonzero;stroke:none;stroke-width:0.91637248"
     inkscape:connector-curvature="0" />
  <path
     style="font-style:normal;font-weight:normal;font-size:233.33332825px;line-height:1.25;font-family:sans-serif;letter-spacing:0px;word-spacing:0px;fill:#000000;fill-opacity:1;stroke:none"
     d="M 367.27539 1069.7812 L 367.27539 1247.0605 L 388.69531 1247.0605 L 388.69531 1069.7812 L 367.27539 1069.7812 z M 513.10938 1069.7812 L 513.10938 1124.9238 C 507.41276 1121.9616 501.98134 1119.7969 496.81641 1118.4297 C 491.65148 1116.9865 485.727 1116.2656 479.04297 1116.2656 C 471.67535 1116.2656 464.53494 1117.7841 457.62305 1120.8223 C 450.78711 1123.8605 444.78798 1128.2665 439.62305 1134.0391 C 434.38216 1139.9635 430.20399 1147.1413 427.08984 1155.5723 C 424.05165 1164.0033 422.5332 1173.6109 422.5332 1184.3965 C 422.5332 1205.1322 426.97656 1221.3498 435.86328 1233.0469 C 444.82595 1244.7439 456.90278 1250.5918 472.09375 1250.5918 C 479.9171 1250.5918 487.16949 1249.1107 493.85352 1246.1484 C 500.53754 1243.1862 506.95703 1239.0473 513.10938 1233.7305 L 513.10938 1247.0605 L 534.52734 1247.0605 L 534.52734 1069.7812 L 513.10938 1069.7812 z M 798.85156 1069.7812 L 798.85156 1124.9238 C 793.15495 1121.9616 787.72352 1119.7969 782.55859 1118.4297 C 777.39366 1116.9865 771.46918 1116.2656 764.78516 1116.2656 C 757.41753 1116.2656 750.27713 1117.7841 743.36523 1120.8223 C 736.5293 1123.8605 730.53016 1128.2665 725.36523 1134.0391 C 720.12435 1139.9635 715.94618 1147.1413 712.83203 1155.5723 C 709.79384 1164.0033 708.27539 1173.6109 708.27539 1184.3965 C 708.27539 1205.1322 712.71875 1221.3498 721.60547 1233.0469 C 730.56814 1244.7439 742.64497 1250.5918 757.83594 1250.5918 C 765.65929 1250.5918 772.91168 1249.1107 779.5957 1246.1484 C 786.27973 1243.1862 792.69922 1239.0473 798.85156 1233.7305 L 798.85156 1247.0605 L 820.26953 1247.0605 L 820.26953 1069.7812 L 798.85156 1069.7812 z M 1046.1973 1069.7812 C 1032.7533 1085.2001 1022.3108 1102.0247 1014.8672 1120.2539 C 1007.4236 1138.4831 1003.7012 1159.0282 1003.7012 1181.8906 C 1003.7012 1204.753 1007.4236 1225.2982 1014.8672 1243.5273 C 1022.3108 1261.7565 1032.7533 1278.5812 1046.1973 1294 L 1072.2891 1294 L 1072.2891 1292.8613 C 1066.4405 1287.6204 1060.5907 1281.201 1054.7422 1273.6055 C 1048.8937 1266.0859 1043.6921 1257.6549 1039.1348 1248.3125 C 1034.4256 1238.5903 1030.6658 1228.3364 1027.8555 1217.5508 C 1025.1211 1206.7652 1023.7539 1194.8789 1023.7539 1181.8906 C 1023.7539 1169.434 1025.1584 1157.5851 1027.9688 1146.3438 C 1030.855 1135.1024 1034.5775 1124.8112 1039.1348 1115.4688 C 1043.9199 1105.8225 1049.0842 1097.3915 1054.6289 1090.1758 C 1060.2496 1082.8841 1066.1367 1076.4646 1072.2891 1070.9199 L 1072.2891 1069.7812 L 1046.1973 1069.7812 z M 1246.377 1069.7812 L 1246.377 1070.9199 C 1252.5293 1076.4646 1258.3772 1082.8841 1263.9219 1090.1758 C 1269.5425 1097.3915 1274.7461 1105.8225 1279.5312 1115.4688 C 1284.1645 1124.8112 1287.8869 1135.1024 1290.6973 1146.3438 C 1293.5076 1157.5851 1294.9121 1169.434 1294.9121 1181.8906 C 1294.9121 1194.8789 1293.5076 1206.7652 1290.6973 1217.5508 C 1287.9629 1228.3364 1284.2405 1238.5903 1279.5312 1248.3125 C 1275.0499 1257.6549 1269.8464 1266.0859 1263.9219 1273.6055 C 1258.0734 1281.201 1252.2255 1287.6204 1246.377 1292.8613 L 1246.377 1294 L 1272.4668 1294 C 1285.9108 1278.5812 1296.3553 1261.7565 1303.7988 1243.5273 C 1311.2424 1225.2982 1314.9648 1204.753 1314.9648 1181.8906 C 1314.9648 1159.0282 1311.2424 1138.4831 1303.7988 1120.2539 C 1296.3553 1102.0247 1285.9108 1085.2001 1272.4668 1069.7812 L 1246.377 1069.7812 z M 124.71289 1074.3379 C 106.25586 1074.3379 91.028212 1078.8952 79.027344 1088.0098 C 67.026476 1097.0484 61.025391 1108.6695 61.025391 1122.873 C 61.025391 1135.2537 64.633898 1145.319 71.849609 1153.0664 C 79.141276 1160.7378 90.306641 1166.1673 105.3457 1169.3574 C 112.78928 1170.8765 119.8138 1172.1298 126.42188 1173.1172 C 133.1059 1174.1046 139.29753 1175.3579 144.99414 1176.877 C 152.51367 1178.8518 158.09635 1181.6254 161.74219 1185.1953 C 165.46398 1188.7652 167.32422 1194.3086 167.32422 1201.8281 C 167.32422 1210.5629 163.41319 1217.5521 155.58984 1222.793 C 147.84245 1228.0339 136.9796 1230.6543 123.00391 1230.6543 C 113.12977 1230.6543 102.57335 1228.7174 91.332031 1224.8438 C 80.090712 1220.9701 70.178602 1215.462 61.595703 1208.3223 L 60 1208.3223 L 60 1236.5781 C 70.101996 1241.0595 80.014106 1244.4401 89.736328 1246.7188 C 99.534505 1248.9974 110.54861 1250.1367 122.77734 1250.1367 C 134.17057 1250.1367 143.89214 1248.7695 151.94336 1246.0352 C 160.07053 1243.3008 167.17166 1239.5017 173.24805 1234.6406 C 178.79275 1230.1593 183.08485 1224.6905 186.12305 1218.2344 C 189.2372 1211.7782 190.79492 1205.2467 190.79492 1198.6387 C 190.79492 1186.4859 187.60482 1177.0295 181.22461 1170.2695 C 174.8444 1163.5095 165.34874 1158.4592 152.74023 1155.1172 C 146.51194 1153.5221 138.91775 1151.9644 129.95508 1150.4453 C 120.9924 1148.9262 114.07986 1147.6356 109.21875 1146.5723 C 100.02821 1144.4455 93.610677 1141.3694 89.964844 1137.3438 C 86.31901 1133.3181 84.496094 1127.7728 84.496094 1120.709 C 84.496094 1112.8097 88.141927 1106.3529 95.433594 1101.3398 C 102.80122 1096.3268 112.52279 1093.8203 124.59961 1093.8203 C 135.61306 1093.8203 146.36003 1095.6432 156.8418 1099.2891 C 167.39952 1102.8589 175.90712 1107.3789 182.36328 1112.8477 L 183.95898 1112.8477 L 183.95898 1086.1875 C 176.28754 1082.8455 167.47548 1080.0345 157.52539 1077.7559 C 147.5753 1075.4772 136.6378 1074.3379 124.71289 1074.3379 z M 275.10352 1116.2656 C 257.10221 1116.2656 242.78602 1122.304 232.15234 1134.3809 C 221.59462 1146.3817 216.31445 1162.7507 216.31445 1183.4863 C 216.31445 1204.222 221.59462 1220.589 232.15234 1232.5898 C 242.78602 1244.5907 257.10221 1250.5918 275.10352 1250.5918 C 292.95291 1250.5918 307.19444 1244.5907 317.82812 1232.5898 C 328.46181 1220.589 333.7793 1204.222 333.7793 1183.4863 C 333.7793 1162.7507 328.46181 1146.3817 317.82812 1134.3809 C 307.19444 1122.304 292.95291 1116.2656 275.10352 1116.2656 z M 912.21289 1116.2656 C 894.21159 1116.2656 879.8954 1122.304 869.26172 1134.3809 C 858.70399 1146.3817 853.42383 1162.7507 853.42383 1183.4863 C 853.42383 1204.222 858.70399 1220.589 869.26172 1232.5898 C 879.8954 1244.5907 894.21159 1250.5918 912.21289 1250.5918 C 930.06228 1250.5918 944.30382 1244.5907 954.9375 1232.5898 C 965.57118 1220.589 970.88867 1204.222 970.88867 1183.4863 C 970.88867 1162.7507 965.57118 1146.3817 954.9375 1134.3809 C 944.30382 1122.304 930.06228 1116.2656 912.21289 1116.2656 z M 620.20508 1116.7207 C 612.53364 1116.7207 604.74891 1117.4043 596.84961 1118.7715 C 588.9503 1120.1387 582.91189 1121.3919 578.73438 1122.5312 L 578.73438 1144.293 L 579.87305 1144.293 C 587.24067 1141.4826 594.38108 1139.3553 601.29297 1137.9121 C 608.20486 1136.393 614.47114 1135.6348 620.0918 1135.6348 C 624.72504 1135.6348 629.1684 1135.9373 633.42188 1136.5449 C 637.67535 1137.1526 641.32118 1138.3312 644.35938 1140.0781 C 647.54948 1141.901 649.97938 1144.4076 651.65039 1147.5977 C 653.39735 1150.7878 654.27148 1154.8127 654.27148 1159.6738 L 654.27148 1162.9785 C 641.81489 1163.5862 630.15451 1164.4976 619.29297 1165.7129 C 608.43142 1166.9282 599.12826 1169.2441 591.38086 1172.6621 C 583.70942 1176.0801 577.78494 1180.7886 573.60742 1186.7891 C 569.50586 1192.7135 567.45508 1200.5002 567.45508 1210.1465 C 567.45508 1221.9195 571.44271 1231.6037 579.41797 1239.1992 C 587.39323 1246.7947 597.1148 1250.5918 608.58398 1250.5918 C 614.81228 1250.5918 620.24371 1249.9848 624.87695 1248.7695 C 629.5102 1247.6302 633.61176 1246.1864 637.18164 1244.4395 C 640.21984 1243.0723 643.33333 1241.2493 646.52344 1238.9707 C 649.7895 1236.6161 652.37261 1234.7932 654.27148 1233.502 L 654.27148 1247.0605 L 675.57617 1247.0605 L 675.57617 1160.6992 C 675.57617 1152.4961 674.32292 1145.6228 671.81641 1140.0781 C 669.3099 1134.5334 665.66406 1130.0135 660.87891 1126.5195 C 656.0178 1122.9497 650.24457 1120.4431 643.56055 1119 C 636.95247 1117.4809 629.16775 1116.7207 620.20508 1116.7207 z M 1153.8633 1116.7207 C 1146.1918 1116.7207 1138.4071 1117.4043 1130.5078 1118.7715 C 1122.6085 1120.1387 1116.5701 1121.3919 1112.3926 1122.5312 L 1112.3926 1144.293 L 1113.5312 1144.293 C 1120.8989 1141.4826 1128.0393 1139.3553 1134.9512 1137.9121 C 1141.8631 1136.393 1148.1293 1135.6348 1153.75 1135.6348 C 1158.3832 1135.6348 1162.8266 1135.9373 1167.0801 1136.5449 C 1171.3336 1137.1526 1174.9794 1138.3312 1178.0176 1140.0781 C 1181.2077 1141.901 1183.6376 1144.4076 1185.3086 1147.5977 C 1187.0556 1150.7878 1187.9297 1154.8127 1187.9297 1159.6738 L 1187.9297 1162.9785 C 1175.4731 1163.5862 1163.8147 1164.4976 1152.9531 1165.7129 C 1142.0916 1166.9282 1132.7865 1169.2441 1125.0391 1172.6621 C 1117.3676 1176.0801 1111.4431 1180.7886 1107.2656 1186.7891 C 1103.1641 1192.7135 1101.1133 1200.5002 1101.1133 1210.1465 C 1101.1133 1221.9195 1105.1009 1231.6037 1113.0762 1239.1992 C 1121.0514 1246.7947 1130.773 1250.5918 1142.2422 1250.5918 C 1148.4705 1250.5918 1153.9019 1249.9848 1158.5352 1248.7695 C 1163.1684 1247.6302 1167.27 1246.1864 1170.8398 1244.4395 C 1173.878 1243.0723 1176.9915 1241.2493 1180.1816 1238.9707 C 1183.4477 1236.6161 1186.0308 1234.7932 1187.9297 1233.502 L 1187.9297 1247.0605 L 1209.2344 1247.0605 L 1209.2344 1160.6992 C 1209.2344 1152.4961 1207.9811 1145.6228 1205.4746 1140.0781 C 1202.9681 1134.5334 1199.3223 1130.0135 1194.5371 1126.5195 C 1189.676 1122.9497 1183.9047 1120.4431 1177.2207 1119 C 1170.6126 1117.4809 1162.826 1116.7207 1153.8633 1116.7207 z M 275.10352 1134.7227 C 286.5727 1134.7227 295.53602 1138.7476 301.99219 1146.7988 C 308.44835 1154.7741 311.67578 1167.0041 311.67578 1183.4863 C 311.67578 1199.5888 308.41102 1211.7402 301.87891 1219.9434 C 295.42274 1228.0705 286.49674 1232.1348 275.10352 1232.1348 C 263.55838 1232.1348 254.55773 1228.0332 248.10156 1219.8301 C 241.6454 1211.551 238.41797 1199.4368 238.41797 1183.4863 C 238.41797 1167.0041 241.60807 1154.7741 247.98828 1146.7988 C 254.44444 1138.7476 263.48242 1134.7227 275.10352 1134.7227 z M 912.21289 1134.7227 C 923.68207 1134.7227 932.6454 1138.7476 939.10156 1146.7988 C 945.55773 1154.7741 948.78516 1167.0041 948.78516 1183.4863 C 948.78516 1199.5888 945.5204 1211.7402 938.98828 1219.9434 C 932.53212 1228.0705 923.60612 1232.1348 912.21289 1232.1348 C 900.66775 1232.1348 891.6671 1228.0332 885.21094 1219.8301 C 878.75477 1211.551 875.52734 1199.4368 875.52734 1183.4863 C 875.52734 1167.0041 878.71745 1154.7741 885.09766 1146.7988 C 891.55382 1138.7476 900.5918 1134.7227 912.21289 1134.7227 z M 482.68945 1135.8613 C 488.08225 1135.8613 493.05599 1136.3563 497.61328 1137.3438 C 502.17057 1138.3312 507.33681 1140.1148 513.10938 1142.6973 L 513.10938 1215.7285 C 507.71658 1219.982 501.90603 1223.4766 495.67773 1226.2109 C 489.44944 1228.8694 483.29709 1230.1973 477.2207 1230.1973 C 465.82747 1230.1973 457.54774 1226.2862 452.38281 1218.4629 C 447.21788 1210.5636 444.63477 1199.0564 444.63477 1183.9414 C 444.63477 1168.5985 447.97808 1156.7496 454.66211 1148.3945 C 461.34614 1140.0395 470.68859 1135.8613 482.68945 1135.8613 z M 768.43164 1135.8613 C 773.82444 1135.8613 778.79818 1136.3563 783.35547 1137.3438 C 787.91276 1138.3312 793.07899 1140.1148 798.85156 1142.6973 L 798.85156 1215.7285 C 793.45877 1219.982 787.64822 1223.4766 781.41992 1226.2109 C 775.19162 1228.8694 769.03928 1230.1973 762.96289 1230.1973 C 751.56966 1230.1973 743.28993 1226.2862 738.125 1218.4629 C 732.96007 1210.5636 730.37695 1199.0564 730.37695 1183.9414 C 730.37695 1168.5985 733.72027 1156.7496 740.4043 1148.3945 C 747.08832 1140.0395 756.43077 1135.8613 768.43164 1135.8613 z M 654.27148 1180.2949 L 654.27148 1215.7285 C 648.95464 1219.8301 643.18142 1223.362 636.95312 1226.3242 C 630.72483 1229.2105 623.85156 1230.6543 616.33203 1230.6543 C 607.2934 1230.6543 600.5714 1228.8314 596.16602 1225.1855 C 591.76063 1221.4638 589.55664 1215.9557 589.55664 1208.6641 C 589.55664 1202.2079 591.45616 1197.1576 595.25391 1193.5117 C 599.05165 1189.7899 604.02734 1187.0556 610.17969 1185.3086 C 615.34462 1183.8655 622.33181 1182.7635 631.14258 1182.0039 C 640.0293 1181.2444 647.73937 1180.6747 654.27148 1180.2949 z M 1187.9297 1180.2949 L 1187.9297 1215.7285 C 1182.6128 1219.8301 1176.8396 1223.362 1170.6113 1226.3242 C 1164.383 1229.2105 1157.5098 1230.6543 1149.9902 1230.6543 C 1140.9516 1230.6543 1134.2296 1228.8314 1129.8242 1225.1855 C 1125.4188 1221.4638 1123.2168 1215.9557 1123.2168 1208.6641 C 1123.2168 1202.2079 1125.1144 1197.1576 1128.9121 1193.5117 C 1132.7099 1189.7899 1137.6855 1187.0556 1143.8379 1185.3086 C 1149.0028 1183.8655 1155.99 1182.7635 1164.8008 1182.0039 C 1173.6875 1181.2444 1181.3976 1180.6747 1187.9297 1180.2949 z "
     id="text222" />
  <path
     inkscape:connector-curvature="0"
     id="path87-11-5-68-0-7-8-3-2-7-7-0-3-4-5-0"
     d="m 851.67386,329.7266 c -20.3899,0.202 -36.8776,8.399 -47.4976,20.67 -10.6525,12.302 -15.6097,28.175 -15.4657,43.816 0.1433,15.634 5.3788,31.329 16.1623,43.257 10.7495,11.895 27.2526,19.506 47.2251,18.888 19.5896,-0.06 35.525,-8.365 45.6446,-20.65 10.1503,-12.317 14.8136,-28.089 14.7118,-43.649 -0.1009,-15.552 -4.9595,-31.183 -15.2199,-43.192 -10.2364,-11.988 -26.2428,-19.811 -45.5606,-19.14 z m 0.6283,20.524 c 13.7792,-0.508 22.7699,4.306 29.3062,11.961 6.5365,7.649 10.2242,18.7 10.2974,29.983 0.073,11.277 -3.462,22.486 -10.0207,30.445 -6.5604,7.96 -15.7787,13.187 -29.9585,13.187 h -0.1729 l -0.1731,0.02 c -14.7488,0.494 -24.5361,-4.479 -31.4626,-12.141 -6.9257,-7.665 -10.7567,-18.554 -10.8591,-29.669 -0.1,-11.124 3.5189,-22.176 10.4516,-30.181 6.9338,-8.009 16.9808,-13.47 32.29,-13.585 h 0.1509 z"
     style="color:#000000;font-style:normal;font-variant:normal;font-weight:normal;font-stretch:normal;font-size:medium;line-height:normal;font-family:sans-serif;font-variant-ligatures:normal;font-variant-position:normal;font-variant-caps:normal;font-variant-numeric:normal;font-variant-alternates:normal;font-feature-settings:normal;text-indent:0;text-align:start;text-decoration:none;text-decoration-line:none;text-decoration-style:solid;text-decoration-color:#000000;letter-spacing:normal;word-spacing:normal;text-transform:none;writing-mode:lr-tb;direction:ltr;text-orientation:mixed;dominant-baseline:auto;baseline-shift:baseline;text-anchor:start;white-space:normal;shape-padding:0;clip-rule:nonzero;display:inline;overflow:visible;visibility:visible;opacity:1;isolation:auto;mix-blend-mode:normal;color-interpolation:sRGB;color-interpolation-filters:linearRGB;solid-color:#000000;solid-opacity:1;vector-effect:none;fill:#000000;fill-opacity:1;fill-rule:nonzero;stroke:none;stroke-width:20.54899406;stroke-linecap:butt;stroke-linejoin:miter;stroke-miterlimit:4;stroke-dasharray:none;stroke-dashoffset:0;stroke-opacity:1;color-rendering:auto;image-rendering:auto;shape-rendering:auto;text-rendering:auto;enable-background:accumulate" />
  <path
     inkscape:connector-curvature="0"
     id="path1039-49-3-6-2-7-9-9-4-0-2-1-6-8"
     d="m 749.49536,262.3226 -11.6188,22.698 c 0,0 51.4308,26.331 103.3591,52.666 25.9634,13.172 52.0461,26.339 71.9257,36.241 9.9401,4.95 18.322,9.075 24.4206,12.002 3.0494,1.469 5.5138,2.63 7.4239,3.488 0.9551,0.428 1.7519,0.778 2.5709,1.101 0.4072,0.164 0.8042,0.313 1.4076,0.51 0.6034,0.19 0.5498,0.685 4.2282,0.685 v -25.495 c 3.5604,0 3.2902,0.439 3.5778,0.532 0.2888,0.1 0.2759,0.1 0.1824,0.07 -0.1869,-0.08 -0.7634,-0.325 -1.5279,-0.668 -1.5271,-0.681 -3.8775,-1.782 -6.8205,-3.196 -5.8886,-2.832 -14.2112,-6.933 -24.0958,-11.853 -19.7692,-9.841 -45.8233,-22.994 -71.7588,-36.149 -51.8711,-26.311 -103.2744,-52.626 -103.2744,-52.626 z"
     style="color:#000000;font-style:normal;font-variant:normal;font-weight:normal;font-stretch:normal;font-size:medium;line-height:normal;font-family:sans-serif;font-variant-ligatures:normal;font-variant-position:normal;font-variant-caps:normal;font-variant-numeric:normal;font-variant-alternates:normal;font-feature-settings:normal;text-indent:0;text-align:start;text-decoration:none;text-decoration-line:none;text-decoration-style:solid;text-decoration-color:#000000;letter-spacing:normal;word-spacing:normal;text-transform:none;writing-mode:lr-tb;direction:ltr;text-orientation:mixed;dominant-baseline:auto;baseline-shift:baseline;text-anchor:start;white-space:normal;shape-padding:0;clip-rule:nonzero;display:inline;overflow:visible;visibility:visible;opacity:1;isolation:auto;mix-blend-mode:normal;color-interpolation:sRGB;color-interpolation-filters:linearRGB;solid-color:#000000;solid-opacity:1;vector-effect:none;fill:#000000;fill-opacity:1;fill-rule:nonzero;stroke:none;stroke-width:25.49975586;stroke-linecap:butt;stroke-linejoin:miter;stroke-miterlimit:4;stroke-dasharray:none;stroke-dashoffset:0;stroke-opacity:1;color-rendering:auto;image-rendering:auto;shape-rendering:auto;text-rendering:auto;enable-background:accumulate" />
  <path
     inkscape:connector-curvature="0"
     id="path1681-8-1-8-6-0-3-8-2-2-9-9-1-3"
     d="m 856.27816,726.1096 v 20.402 h 249.85854 v -20.402 z"
     style="color:#000000;font-style:normal;font-variant:normal;font-weight:normal;font-stretch:normal;font-size:medium;line-height:normal;font-family:sans-serif;font-variant-ligatures:normal;font-variant-position:normal;font-variant-caps:normal;font-variant-numeric:normal;font-variant-alternates:normal;font-feature-settings:normal;text-indent:0;text-align:start;text-decoration:none;text-decoration-line:none;text-decoration-style:solid;text-decoration-color:#000000;letter-spacing:normal;word-spacing:normal;text-transform:none;writing-mode:lr-tb;direction:ltr;text-orientation:mixed;dominant-baseline:auto;baseline-shift:baseline;text-anchor:start;white-space:normal;shape-padding:0;clip-rule:nonzero;display:inline;overflow:visible;visibility:visible;opacity:1;isolation:auto;mix-blend-mode:normal;color-interpolation:sRGB;color-interpolation-filters:linearRGB;solid-color:#000000;solid-opacity:1;vector-effect:none;fill:#000000;fill-opacity:1;fill-rule:nonzero;stroke:none;stroke-width:20.3998127;stroke-linecap:butt;stroke-linejoin:miter;stroke-miterlimit:4;stroke-dasharray:none;stroke-dashoffset:0;stroke-opacity:1;color-rendering:auto;image-rendering:auto;shape-rendering:auto;text-rendering:auto;enable-background:accumulate" />
  <path
     inkscape:connector-curvature="0"
     id="path87-11-5-3-7-4-6-6-9-9-0-9-7-4-1-0-4"
     d="m 1125.2757,329.7266 c -19.3083,-0.665 -35.3102,7.156 -45.5428,19.14 -10.2604,12.009 -15.1208,27.64 -15.2217,43.192 -0.1,15.56 4.5633,31.332 14.7127,43.649 10.1198,12.285 26.0577,20.597 45.6466,20.65 19.9729,0.618 36.4734,-6.993 47.2233,-18.888 10.7824,-11.928 16.0194,-27.619 16.163,-43.254 0.1425,-15.641 -4.8132,-31.517 -15.466,-43.819 -10.6231,-12.274 -27.1155,-20.473 -47.5151,-20.67 z m -0.6107,20.528 0.1499,0.02 0.1518,0.02 c 15.3105,0.11 25.3571,5.572 32.2896,13.583 6.9335,8.005 10.5538,19.06 10.452,30.177 -0.1,11.122 -3.9342,22.007 -10.8601,29.668 -6.925,7.665 -16.7116,12.64 -31.4604,12.139 l -0.174,-0.02 h -0.1722 c -14.1805,0 -23.3988,-5.224 -29.9583,-13.183 -6.5587,-7.96 -10.0948,-19.169 -10.0227,-30.451 0.083,-11.278 3.7619,-22.332 10.2993,-29.987 6.5346,-7.651 15.5261,-12.46 29.3051,-11.951 z"
     style="color:#000000;font-style:normal;font-variant:normal;font-weight:normal;font-stretch:normal;font-size:medium;line-height:normal;font-family:sans-serif;font-variant-ligatures:normal;font-variant-position:normal;font-variant-caps:normal;font-variant-numeric:normal;font-variant-alternates:normal;font-feature-settings:normal;text-indent:0;text-align:start;text-decoration:none;text-decoration-line:none;text-decoration-style:solid;text-decoration-color:#000000;letter-spacing:normal;word-spacing:normal;text-transform:none;writing-mode:lr-tb;direction:ltr;text-orientation:mixed;dominant-baseline:auto;baseline-shift:baseline;text-anchor:start;white-space:normal;shape-padding:0;clip-rule:nonzero;display:inline;overflow:visible;visibility:visible;opacity:1;isolation:auto;mix-blend-mode:normal;color-interpolation:sRGB;color-interpolation-filters:linearRGB;solid-color:#000000;solid-opacity:1;vector-effect:none;fill:#000000;fill-opacity:1;fill-rule:nonzero;stroke:none;stroke-width:20.54899406;stroke-linecap:butt;stroke-linejoin:miter;stroke-miterlimit:4;stroke-dasharray:none;stroke-dashoffset:0;stroke-opacity:1;color-rendering:auto;image-rendering:auto;shape-rendering:auto;text-rendering:auto;enable-background:accumulate" />
  <path
     inkscape:connector-curvature="0"
     id="path1039-7-0-9-2-2-4-2-9-2-4-7-7-9-0"
     d="m 1227.4716,262.3236 c 0,0 -51.4028,26.318 -103.2749,52.629 -25.9355,13.155 -51.9905,26.307 -71.7589,36.148 -9.8838,4.921 -18.2062,9.019 -24.0949,11.851 -2.9436,1.412 -5.2935,2.518 -6.8213,3.2 -0.7636,0.342 -1.341,0.587 -1.5279,0.662 -0.094,0.04 -0.1055,0.03 0.1822,-0.07 0.2879,-0.1 0.02,-0.532 3.5758,-0.532 v 25.496 c 3.6807,0 3.6277,-0.492 4.2304,-0.683 0.6025,-0.197 1.0032,-0.349 1.4122,-0.512 0.817,-0.324 1.6122,-0.673 2.5672,-1.102 1.9083,-0.858 4.3727,-2.016 7.424,-3.483 6.0986,-2.93 14.4812,-7.054 24.4196,-12.003 19.8803,-9.902 45.9658,-23.073 71.9291,-36.244 51.9285,-26.335 103.3563,-52.667 103.3563,-52.667 z"
     style="color:#000000;font-style:normal;font-variant:normal;font-weight:normal;font-stretch:normal;font-size:medium;line-height:normal;font-family:sans-serif;font-variant-ligatures:normal;font-variant-position:normal;font-variant-caps:normal;font-variant-numeric:normal;font-variant-alternates:normal;font-feature-settings:normal;text-indent:0;text-align:start;text-decoration:none;text-decoration-line:none;text-decoration-style:solid;text-decoration-color:#000000;letter-spacing:normal;word-spacing:normal;text-transform:none;writing-mode:lr-tb;direction:ltr;text-orientation:mixed;dominant-baseline:auto;baseline-shift:baseline;text-anchor:start;white-space:normal;shape-padding:0;clip-rule:nonzero;display:inline;overflow:visible;visibility:visible;opacity:1;isolation:auto;mix-blend-mode:normal;color-interpolation:sRGB;color-interpolation-filters:linearRGB;solid-color:#000000;solid-opacity:1;vector-effect:none;fill:#000000;fill-opacity:1;fill-rule:nonzero;stroke:none;stroke-width:25.49975586;stroke-linecap:butt;stroke-linejoin:miter;stroke-miterlimit:4;stroke-dasharray:none;stroke-dashoffset:0;stroke-opacity:1;color-rendering:auto;image-rendering:auto;shape-rendering:auto;text-rendering:auto;enable-background:accumulate" />
</svg>
