<?xml version="1.0" encoding="UTF-8" standalone="no"?>
<!-- Created with Inkscape (http://www.inkscape.org/) -->

<svg
   xmlns:dc="http://purl.org/dc/elements/1.1/"
   xmlns:cc="http://creativecommons.org/ns#"
   xmlns:rdf="http://www.w3.org/1999/02/22-rdf-syntax-ns#"
   xmlns:svg="http://www.w3.org/2000/svg"
   xmlns="http://www.w3.org/2000/svg"
   xmlns:sodipodi="http://sodipodi.sourceforge.net/DTD/sodipodi-0.dtd"
   xmlns:inkscape="http://www.inkscape.org/namespaces/inkscape"
   width="1000"
   height="1000"
   viewBox="0 0 1000 1000"
   version="1.1"
   id="svg11332"
   inkscape:version="0.92.4 (5da689c313, 2019-01-14)"
   sodipodi:docname="Amigável.svg">
  <defs
     id="defs11326" />
  <sodipodi:namedview
     id="base"
     pagecolor="#ffffff"
     bordercolor="#666666"
     borderopacity="1.0"
     inkscape:pageopacity="0.0"
     inkscape:pageshadow="2"
     inkscape:zoom="0.35355339"
     inkscape:cx="462.97313"
     inkscape:cy="557.64146"
     inkscape:document-units="px"
     inkscape:current-layer="layer1"
     showgrid="false"
     inkscape:window-width="681"
     inkscape:window-height="706"
     inkscape:window-x="-7"
     inkscape:window-y="0"
     inkscape:window-maximized="0"
     units="px" />
  <metadata
     id="metadata11329">
    <rdf:RDF>
      <cc:Work
         rdf:about="">
        <dc:format>image/svg+xml</dc:format>
        <dc:type
           rdf:resource="http://purl.org/dc/dcmitype/StillImage" />
        <dc:title></dc:title>
      </cc:Work>
    </rdf:RDF>
  </metadata>
  <g
     inkscape:label="Camada 1"
     inkscape:groupmode="layer"
     id="layer1"
     transform="translate(0,-32.416659)">
    <path
       style="color:#000000;font-style:normal;font-variant:normal;font-weight:normal;font-stretch:normal;font-size:medium;line-height:normal;font-family:sans-serif;font-variant-ligatures:normal;font-variant-position:normal;font-variant-caps:normal;font-variant-numeric:normal;font-variant-alternates:normal;font-feature-settings:normal;text-indent:0;text-align:start;text-decoration:none;text-decoration-line:none;text-decoration-style:solid;text-decoration-color:#000000;letter-spacing:normal;word-spacing:normal;text-transform:none;writing-mode:lr-tb;direction:ltr;text-orientation:mixed;dominant-baseline:auto;baseline-shift:baseline;text-anchor:start;white-space:normal;shape-padding:0;clip-rule:nonzero;display:inline;overflow:visible;visibility:visible;opacity:1;isolation:auto;mix-blend-mode:normal;color-interpolation:sRGB;color-interpolation-filters:linearRGB;solid-color:#000000;solid-opacity:1;vector-effect:none;fill:#000000;fill-opacity:1;fill-rule:nonzero;stroke:none;stroke-width:24.21989822;stroke-linecap:butt;stroke-linejoin:miter;stroke-miterlimit:4;stroke-dasharray:none;stroke-dashoffset:0;stroke-opacity:1;color-rendering:auto;image-rendering:auto;shape-rendering:auto;text-rendering:auto;enable-background:accumulate"
       d="M 236.74609,32.624374 C 143.41192,32.597074 79.295327,70.070114 42.416016,126.13022 5.5335574,182.19512 -4.7582407,255.4031 3.3027344,327.86851 11.363709,400.33391 37.81196,472.37559 76.859375,527.08726 115.90679,581.79893 168.48,619.9122 228.27539,619.55601 288.0426,619.19996 340.18325,580.6867 379,525.79039 417.81675,470.89406 444.21548,398.88049 452.98242,326.59507 461.74936,254.30965 452.96772,181.48673 418.9082,125.64391 384.85199,69.806564 324.50498,32.308714 236.74609,32.624374 Z m 0.0156,24.21875 h 0.0234 0.0254 c 81.05203,-0.29838 131.32473,32.065907 161.42187,81.412096 30.09714,49.3462 39.00101,117.0381 30.70703,185.42383 -8.29398,68.38574 -33.70367,137.20036 -69.71484,188.12891 -36.01117,50.92856 -81.71667,83.23514 -131.09375,83.5293 C 178.7819,595.63122 132.75526,563.71441 96.574159,513.01891 60.393115,462.32339 34.982823,393.58251 27.375,325.19077 19.767177,256.79905 29.997969,189.07561 62.650391,139.44077 95.302812,89.805941 149.72633,56.811744 236.76172,56.843124 Z"
       id="path10-9-0"
       inkscape:connector-curvature="0" />
    <path
       style="color:#000000;font-style:normal;font-variant:normal;font-weight:normal;font-stretch:normal;font-size:medium;line-height:normal;font-family:sans-serif;font-variant-ligatures:normal;font-variant-position:normal;font-variant-caps:normal;font-variant-numeric:normal;font-variant-alternates:normal;font-feature-settings:normal;text-indent:0;text-align:start;text-decoration:none;text-decoration-line:none;text-decoration-style:solid;text-decoration-color:#000000;letter-spacing:normal;word-spacing:normal;text-transform:none;writing-mode:lr-tb;direction:ltr;text-orientation:mixed;dominant-baseline:auto;baseline-shift:baseline;text-anchor:start;white-space:normal;shape-padding:0;clip-rule:nonzero;display:inline;overflow:visible;visibility:visible;opacity:1;isolation:auto;mix-blend-mode:normal;color-interpolation:sRGB;color-interpolation-filters:linearRGB;solid-color:#000000;solid-opacity:1;vector-effect:none;fill:#000000;fill-opacity:1;fill-rule:nonzero;stroke:none;stroke-width:12.10994911;stroke-linecap:butt;stroke-linejoin:miter;stroke-miterlimit:4;stroke-dasharray:none;stroke-dashoffset:0;stroke-opacity:1;color-rendering:auto;image-rendering:auto;shape-rendering:auto;text-rendering:auto;enable-background:accumulate"
       d="m 149.69727,173.55015 c -23.84924,-0.43767 -46.55601,16.94225 -75.306645,51.3457 l 9.292969,7.76563 c 27.996556,-33.50111 48.166546,-47.32734 65.791016,-47.00391 17.62447,0.32343 36.58394,14.98075 61.8418,44.60351 l 9.21484,-7.85742 C 194.65819,192.05939 173.5465,173.98781 149.69727,173.55015 Z"
       id="path59-17"
       inkscape:connector-curvature="0" />
    <path
       style="color:#000000;font-style:normal;font-variant:normal;font-weight:normal;font-stretch:normal;font-size:medium;line-height:normal;font-family:sans-serif;font-variant-ligatures:normal;font-variant-position:normal;font-variant-caps:normal;font-variant-numeric:normal;font-variant-alternates:normal;font-feature-settings:normal;text-indent:0;text-align:start;text-decoration:none;text-decoration-line:none;text-decoration-style:solid;text-decoration-color:#000000;letter-spacing:normal;word-spacing:normal;text-transform:none;writing-mode:lr-tb;direction:ltr;text-orientation:mixed;dominant-baseline:auto;baseline-shift:baseline;text-anchor:start;white-space:normal;shape-padding:0;clip-rule:nonzero;display:inline;overflow:visible;visibility:visible;opacity:1;isolation:auto;mix-blend-mode:normal;color-interpolation:sRGB;color-interpolation-filters:linearRGB;solid-color:#000000;solid-opacity:1;vector-effect:none;fill:#000000;fill-opacity:1;fill-rule:nonzero;stroke:none;stroke-width:12.10994911;stroke-linecap:butt;stroke-linejoin:miter;stroke-miterlimit:4;stroke-dasharray:none;stroke-dashoffset:0;stroke-opacity:1;color-rendering:auto;image-rendering:auto;shape-rendering:auto;text-rendering:auto;enable-background:accumulate"
       d="m 148.40234,258.28257 c -16.32543,-0.58712 -33.3991,5.97947 -53.449215,20.78907 l 7.195315,9.74023 c 18.80306,-13.88848 33.00196,-18.88866 45.81836,-18.42773 12.8164,0.46091 25.1726,6.51832 39.93164,17.10547 l 7.05859,-9.83984 c -15.57495,-11.17242 -30.22925,-18.78008 -46.55469,-19.3672 z"
       id="path59-1-8"
       inkscape:connector-curvature="0" />
    <path
       style="color:#000000;font-style:normal;font-variant:normal;font-weight:normal;font-stretch:normal;font-size:medium;line-height:normal;font-family:sans-serif;font-variant-ligatures:normal;font-variant-position:normal;font-variant-caps:normal;font-variant-numeric:normal;font-variant-alternates:normal;font-feature-settings:normal;text-indent:0;text-align:start;text-decoration:none;text-decoration-line:none;text-decoration-style:solid;text-decoration-color:#000000;letter-spacing:normal;word-spacing:normal;text-transform:none;writing-mode:lr-tb;direction:ltr;text-orientation:mixed;dominant-baseline:auto;baseline-shift:baseline;text-anchor:start;white-space:normal;shape-padding:0;clip-rule:nonzero;display:inline;overflow:visible;visibility:visible;opacity:1;isolation:auto;mix-blend-mode:normal;color-interpolation:sRGB;color-interpolation-filters:linearRGB;solid-color:#000000;solid-opacity:1;vector-effect:none;fill:#000000;fill-opacity:1;fill-rule:nonzero;stroke:none;stroke-width:12.10994911;stroke-linecap:butt;stroke-linejoin:miter;stroke-miterlimit:4;stroke-dasharray:none;stroke-dashoffset:0;stroke-opacity:1;color-rendering:auto;image-rendering:auto;shape-rendering:auto;text-rendering:auto;enable-background:accumulate"
       d="m 223.78906,324.31772 c 0,0 -1.3637,13.48016 -3.62304,27.63869 -1.12968,7.07925 -2.49082,14.32837 -3.95313,19.96093 -0.73115,2.81628 -1.4977,5.23273 -2.18359,6.90039 -0.6859,1.66767 -1.57177,2.53995 -0.93555,2.00977 -1.34005,1.1167 -2.75961,2.05018 -3.50195,5.01953 -0.37117,1.48468 -0.15868,3.69576 0.78906,5.24023 0.94774,1.54447 2.17956,2.2998 3.11133,2.73828 3.72707,1.75391 5.64164,1.08102 8.17578,0.90625 5.06827,-0.34954 10.55664,-1.48047 10.55664,-1.48047 l -2.375,-11.87305 c 0,0 -2.58837,0.32883 -4.1543,0.58594 0.80305,-2.15309 1.56222,-4.39982 2.23828,-7.00391 1.63417,-6.29452 3.02545,-13.80131 4.18946,-21.0957 2.328,-14.58878 3.71484,-28.32813 3.71484,-28.32812 z"
       id="path971-9"
       inkscape:connector-curvature="0" />
    <path
       style="color:#000000;font-style:normal;font-variant:normal;font-weight:normal;font-stretch:normal;font-size:medium;line-height:normal;font-family:sans-serif;font-variant-ligatures:normal;font-variant-position:normal;font-variant-caps:normal;font-variant-numeric:normal;font-variant-alternates:normal;font-feature-settings:normal;text-indent:0;text-align:start;text-decoration:none;text-decoration-line:none;text-decoration-style:solid;text-decoration-color:#000000;letter-spacing:normal;word-spacing:normal;text-transform:none;writing-mode:lr-tb;direction:ltr;text-orientation:mixed;dominant-baseline:auto;baseline-shift:baseline;text-anchor:start;white-space:normal;shape-padding:0;clip-rule:nonzero;display:inline;overflow:visible;visibility:visible;opacity:1;isolation:auto;mix-blend-mode:normal;color-interpolation:sRGB;color-interpolation-filters:linearRGB;solid-color:#000000;solid-opacity:1;vector-effect:none;fill:#000000;fill-opacity:1;fill-rule:nonzero;stroke:none;stroke-width:12.10994911;stroke-linecap:butt;stroke-linejoin:miter;stroke-miterlimit:4;stroke-dasharray:none;stroke-dashoffset:0;stroke-opacity:1;color-rendering:auto;image-rendering:auto;shape-rendering:auto;text-rendering:auto;enable-background:accumulate"
       d="m 311.18359,171.85679 c -23.84923,-0.43766 -46.556,16.94421 -75.30664,51.34766 l 9.29297,7.76368 c 27.99656,-33.50111 48.16655,-47.32734 65.79102,-47.00391 17.62447,0.32343 36.58393,14.98076 61.84179,44.60351 l 9.21485,-7.85742 c -25.87306,-30.34427 -46.98475,-48.41585 -70.83399,-48.85352 z"
       id="path59-17-5"
       inkscape:connector-curvature="0" />
    <path
       style="color:#000000;font-style:normal;font-variant:normal;font-weight:normal;font-stretch:normal;font-size:medium;line-height:normal;font-family:sans-serif;font-variant-ligatures:normal;font-variant-position:normal;font-variant-caps:normal;font-variant-numeric:normal;font-variant-alternates:normal;font-feature-settings:normal;text-indent:0;text-align:start;text-decoration:none;text-decoration-line:none;text-decoration-style:solid;text-decoration-color:#000000;letter-spacing:normal;word-spacing:normal;text-transform:none;writing-mode:lr-tb;direction:ltr;text-orientation:mixed;dominant-baseline:auto;baseline-shift:baseline;text-anchor:start;white-space:normal;shape-padding:0;clip-rule:nonzero;display:inline;overflow:visible;visibility:visible;opacity:1;isolation:auto;mix-blend-mode:normal;color-interpolation:sRGB;color-interpolation-filters:linearRGB;solid-color:#000000;solid-opacity:1;vector-effect:none;fill:#000000;fill-opacity:1;fill-rule:nonzero;stroke:none;stroke-width:12.10994911;stroke-linecap:butt;stroke-linejoin:miter;stroke-miterlimit:4;stroke-dasharray:none;stroke-dashoffset:0;stroke-opacity:1;color-rendering:auto;image-rendering:auto;shape-rendering:auto;text-rendering:auto;enable-background:accumulate"
       d="m 309.88867,256.59116 c -16.32545,-0.58711 -33.39715,5.97754 -53.44726,20.78711 l 7.19336,9.74219 c 18.80306,-13.88846 33.00194,-18.88865 45.81835,-18.42774 12.81642,0.46092 25.17457,6.51637 39.9336,17.10352 l 7.05859,-9.83983 c -15.57495,-11.17244 -30.23119,-18.77812 -46.55664,-19.36525 z"
       id="path59-1-8-3"
       inkscape:connector-curvature="0" />
    <path
       style="color:#000000;font-style:normal;font-variant:normal;font-weight:normal;font-stretch:normal;font-size:medium;line-height:normal;font-family:sans-serif;font-variant-ligatures:normal;font-variant-position:normal;font-variant-caps:normal;font-variant-numeric:normal;font-variant-alternates:normal;font-feature-settings:normal;text-indent:0;text-align:start;text-decoration:none;text-decoration-line:none;text-decoration-style:solid;text-decoration-color:#000000;letter-spacing:normal;word-spacing:normal;text-transform:none;writing-mode:lr-tb;direction:ltr;text-orientation:mixed;dominant-baseline:auto;baseline-shift:baseline;text-anchor:start;white-space:normal;shape-padding:0;clip-rule:nonzero;display:inline;overflow:visible;visibility:visible;opacity:1;isolation:auto;mix-blend-mode:normal;color-interpolation:sRGB;color-interpolation-filters:linearRGB;solid-color:#000000;solid-opacity:1;vector-effect:none;fill:#000000;fill-opacity:1;fill-rule:nonzero;stroke:none;stroke-width:12.10994911;stroke-linecap:butt;stroke-linejoin:miter;stroke-miterlimit:4;stroke-dasharray:none;stroke-dashoffset:0;stroke-opacity:1;color-rendering:auto;image-rendering:auto;shape-rendering:auto;text-rendering:auto;enable-background:accumulate"
       d="m 315.01953,457.87437 c -46.10022,45.38343 -85.7868,47.18323 -116.07422,37.61718 -15.14371,-4.78302 -27.9144,-12.65035 -37.4082,-19.87695 -9.4938,-7.2266 -15.43958,-13.53299 -17.92773,-15.99805 l -8.52344,8.60352 c 1.91747,1.89968 8.83547,9.20639 19.11523,17.03125 10.27976,7.82486 24.19284,16.44786 41.09766,21.78711 33.80963,10.67851 79.67787,7.24907 128.21679,-40.53516 z"
       id="path29-2"
       inkscape:connector-curvature="0" />
    <path
       style="color:#000000;font-style:normal;font-variant:normal;font-weight:normal;font-stretch:normal;font-size:medium;line-height:normal;font-family:sans-serif;font-variant-ligatures:normal;font-variant-position:normal;font-variant-caps:normal;font-variant-numeric:normal;font-variant-alternates:normal;font-feature-settings:normal;text-indent:0;text-align:start;text-decoration:none;text-decoration-line:none;text-decoration-style:solid;text-decoration-color:#000000;letter-spacing:normal;word-spacing:normal;text-transform:none;writing-mode:lr-tb;direction:ltr;text-orientation:mixed;dominant-baseline:auto;baseline-shift:baseline;text-anchor:start;white-space:normal;shape-padding:0;clip-rule:nonzero;display:inline;overflow:visible;visibility:visible;opacity:1;isolation:auto;mix-blend-mode:normal;color-interpolation:sRGB;color-interpolation-filters:linearRGB;solid-color:#000000;solid-opacity:1;vector-effect:none;fill:#000000;fill-opacity:1;fill-rule:nonzero;stroke:none;stroke-width:10.49703503;stroke-linecap:butt;stroke-linejoin:miter;stroke-miterlimit:4;stroke-dasharray:none;stroke-dashoffset:0;stroke-opacity:1;color-rendering:auto;image-rendering:auto;shape-rendering:auto;text-rendering:auto;enable-background:accumulate"
       d="m 301.03125,980.23572 c -24.69325,17.3286 -47.54688,7.00779 -47.54687,7.00779 l -1.4375,-0.62699 -1.54493,0.2637 c -8.71334,1.4877 -31.80073,2.80489 -52.11914,3.61919 -20.31841,0.81421 -38.24414,1.2187 -38.24414,1.2187 h 0.11914 c -12.84628,0 -24.50484,8.43189 -33.45898,16.25589 -8.95415,7.824 -15.19141,15.6367 -15.19141,15.6367 l 8.19727,6.5566 c 0,0 5.73209,-7.1497 13.90039,-14.2871 8.16829,-7.1373 18.78568,-13.666 26.55273,-13.666 h 0.0586 0.0586 c 0,0 18.00143,-0.4041 38.42773,-1.2227 19.73895,-0.791 41.16064,-1.89559 52.12891,-3.59569 4.20633,1.5799 29.61822,10.03899 56.13086,-8.5664 z"
       id="path12865"
       inkscape:connector-curvature="0" />
    <path
       style="color:#000000;font-style:normal;font-variant:normal;font-weight:normal;font-stretch:normal;font-size:medium;line-height:normal;font-family:sans-serif;font-variant-ligatures:normal;font-variant-position:normal;font-variant-caps:normal;font-variant-numeric:normal;font-variant-alternates:normal;font-feature-settings:normal;text-indent:0;text-align:start;text-decoration:none;text-decoration-line:none;text-decoration-style:solid;text-decoration-color:#000000;letter-spacing:normal;word-spacing:normal;text-transform:none;writing-mode:lr-tb;direction:ltr;text-orientation:mixed;dominant-baseline:auto;baseline-shift:baseline;text-anchor:start;white-space:normal;shape-padding:0;clip-rule:nonzero;display:inline;overflow:visible;visibility:visible;opacity:1;isolation:auto;mix-blend-mode:normal;color-interpolation:sRGB;color-interpolation-filters:linearRGB;solid-color:#000000;solid-opacity:1;vector-effect:none;fill:#000000;fill-opacity:1;fill-rule:nonzero;stroke:none;stroke-width:10.49703503;stroke-linecap:butt;stroke-linejoin:miter;stroke-miterlimit:4;stroke-dasharray:none;stroke-dashoffset:0;stroke-opacity:1;color-rendering:auto;image-rendering:auto;shape-rendering:auto;text-rendering:auto;enable-background:accumulate"
       d="m 383.90039,955.8021 c -33.55989,3.52829 -53.41258,8.97126 -65.49414,13.9922 -6.04078,2.51045 -10.14434,4.93124 -12.94531,6.90822 -2.80098,1.9769 -4.82761,3.8104 -4.41602,3.5234 l 6.00391,8.6114 c 1.85578,-1.294 2.29903,-2.03 4.46484,-3.5586 2.16582,-1.5287 5.52667,-3.5489 10.92188,-5.7911 10.79041,-4.48431 29.6941,-9.79046 62.5625,-13.24606 z"
       id="path12867"
       inkscape:connector-curvature="0" />
    <path
       style="color:#000000;font-style:normal;font-variant:normal;font-weight:normal;font-stretch:normal;font-size:medium;line-height:normal;font-family:sans-serif;font-variant-ligatures:normal;font-variant-position:normal;font-variant-caps:normal;font-variant-numeric:normal;font-variant-alternates:normal;font-feature-settings:normal;text-indent:0;text-align:start;text-decoration:none;text-decoration-line:none;text-decoration-style:solid;text-decoration-color:#000000;letter-spacing:normal;word-spacing:normal;text-transform:none;writing-mode:lr-tb;direction:ltr;text-orientation:mixed;dominant-baseline:auto;baseline-shift:baseline;text-anchor:start;white-space:normal;shape-padding:0;clip-rule:nonzero;display:inline;overflow:visible;visibility:visible;opacity:1;isolation:auto;mix-blend-mode:normal;color-interpolation:sRGB;color-interpolation-filters:linearRGB;solid-color:#000000;solid-opacity:1;vector-effect:none;fill:#000000;fill-opacity:1;fill-rule:nonzero;stroke:none;stroke-width:10.49703503;stroke-linecap:butt;stroke-linejoin:miter;stroke-miterlimit:4;stroke-dasharray:none;stroke-dashoffset:0;stroke-opacity:1;color-rendering:auto;image-rendering:auto;shape-rendering:auto;text-rendering:auto;enable-background:accumulate"
       d="m 545.71094,905.14976 -5.90039,8.68165 c 6.51859,4.43048 10.2363,8.54969 12.0625,11.8164 1.8262,3.26671 1.89552,5.54508 1.39062,7.37305 -1.00198,3.62767 -5.62544,6.47331 -9.98242,6.29102 -31.34968,-6.52498 -67.52441,-2.26688 -97.84375,3.47656 -15.27374,2.89333 -29.05262,6.18589 -39.84961,8.73632 -10.79699,2.55043 -19.31028,4.24804 -21.13867,4.24804 v 10.49805 c 5.38973,0 12.73412,-1.97572 23.55273,-4.53125 10.81861,-2.55553 24.41183,-5.80159 39.38867,-8.63867 29.9537,-5.67417 65.45948,-9.59407 94.41407,-3.40235 l 0.40625,0.0859 0.41406,0.0215 c 8.96452,0.4735 18.18524,-4.68329 20.75586,-13.99024 1.28531,-4.65346 0.56205,-10.08767 -2.3457,-15.28905 -2.90776,-5.20141 -7.8637,-10.30626 -15.32422,-15.37695 z"
       id="path12869"
       inkscape:connector-curvature="0" />
    <path
       style="color:#000000;font-style:normal;font-variant:normal;font-weight:normal;font-stretch:normal;font-size:medium;line-height:normal;font-family:sans-serif;font-variant-ligatures:normal;font-variant-position:normal;font-variant-caps:normal;font-variant-numeric:normal;font-variant-alternates:normal;font-feature-settings:normal;text-indent:0;text-align:start;text-decoration:none;text-decoration-line:none;text-decoration-style:solid;text-decoration-color:#000000;letter-spacing:normal;word-spacing:normal;text-transform:none;writing-mode:lr-tb;direction:ltr;text-orientation:mixed;dominant-baseline:auto;baseline-shift:baseline;text-anchor:start;white-space:normal;shape-padding:0;clip-rule:nonzero;display:inline;overflow:visible;visibility:visible;opacity:1;isolation:auto;mix-blend-mode:normal;color-interpolation:sRGB;color-interpolation-filters:linearRGB;solid-color:#000000;solid-opacity:1;vector-effect:none;fill:#000000;fill-opacity:1;fill-rule:nonzero;stroke:none;stroke-width:10.49703503;stroke-linecap:butt;stroke-linejoin:miter;stroke-miterlimit:4;stroke-dasharray:none;stroke-dashoffset:0;stroke-opacity:1;color-rendering:auto;image-rendering:auto;shape-rendering:auto;text-rendering:auto;enable-background:accumulate"
       d="m 446.09766,889.85483 c -11.65006,-0.0689 -28.79249,1.5943 -54.02735,6.6797 -1.51235,-0.34298 -10.65642,-2.39238 -22.60742,-3.9922 -12.97513,-1.7369 -27.9028,-3.12901 -38.65039,0.50197 l 3.36133,9.9453 c 6.64935,-2.24641 21.47172,-1.70619 33.89648,-0.043 12.42476,1.66323 22.73828,4.04493 22.73828,4.04493 l 1.11329,0.25782 1.11718,-0.22852 c 33.92135,-6.91601 52.43633,-7.3031 61.91211,-6.16602 4.73789,0.56855 7.19077,1.50875 8.22852,2.04297 0.38504,0.19822 0.42666,0.25068 0.48828,0.29882 l 1.89648,3.10156 4.04493,-1.49023 c 11.81121,-4.35146 20.00199,-4.07095 25.17187,-2.95313 5.16988,1.11783 6.89063,2.72657 6.89063,2.72657 l 1.76562,1.4707 2.2793,-0.29883 c 1.97309,-0.2591 3.49734,-0.27561 5.24218,-0.40819 l -0.14453,3.77344 c 16.40067,0.63077 30.24414,5.33789 30.24414,5.33789 l 10.375,3.55468 -3.74023,-10.31054 c 0,0 -0.74876,-1.84708 -2.14258,-3.54492 -1.39381,-1.69784 -3.60796,-3.70055 -6.88281,-5.41016 -6.28017,-3.27851 -16.43958,-5.36243 -32.39453,-3.54883 -1.82945,-1.12239 -4.64338,-2.60004 -9.27539,-3.60156 -6.60242,-1.42756 -16.15057,-1.3979 -28.19141,2.52148 -0.30628,-0.18523 -0.46826,-0.36854 -0.82226,-0.55078 -2.474,-1.27359 -6.12936,-2.45459 -11.78126,-3.13281 -2.82594,-0.33911 -6.15817,-0.55477 -10.10546,-0.57813 z"
       id="path12871"
       inkscape:connector-curvature="0" />
    <path
       style="color:#000000;font-style:normal;font-variant:normal;font-weight:normal;font-stretch:normal;font-size:medium;line-height:normal;font-family:sans-serif;font-variant-ligatures:normal;font-variant-position:normal;font-variant-caps:normal;font-variant-numeric:normal;font-variant-alternates:normal;font-feature-settings:normal;text-indent:0;text-align:start;text-decoration:none;text-decoration-line:none;text-decoration-style:solid;text-decoration-color:#000000;letter-spacing:normal;word-spacing:normal;text-transform:none;writing-mode:lr-tb;direction:ltr;text-orientation:mixed;dominant-baseline:auto;baseline-shift:baseline;text-anchor:start;white-space:normal;shape-padding:0;clip-rule:nonzero;display:inline;overflow:visible;visibility:visible;opacity:1;isolation:auto;mix-blend-mode:normal;color-interpolation:sRGB;color-interpolation-filters:linearRGB;solid-color:#000000;solid-opacity:1;vector-effect:none;fill:#000000;fill-opacity:1;fill-rule:nonzero;stroke:none;stroke-width:10.49703503;stroke-linecap:butt;stroke-linejoin:miter;stroke-miterlimit:4;stroke-dasharray:none;stroke-dashoffset:0;stroke-opacity:1;color-rendering:auto;image-rendering:auto;shape-rendering:auto;text-rendering:auto;enable-background:accumulate"
       d="m 199.23633,817.64585 -4.78516,9.34181 c 30.39061,15.57209 75.89453,15.85742 75.89453,15.85742 h 0.0234 0.0234 c 32.44996,0.22692 51.13952,7.64294 51.53906,7.80273 10.55834,4.94754 15.6439,10.12347 17.86133,14.5918 2.22693,4.48748 1.97522,8.65345 0.51758,12.91797 -2.9153,8.52903 -11.19532,15.8418 -11.19532,15.8418 l 6.75586,8.03515 c 0,0 10.17477,-8.20362 14.3711,-20.48047 2.09816,-6.13842 2.56682,-13.69853 -1.04688,-20.98047 -3.61369,-7.28193 -10.91156,-13.8914 -22.94726,-19.5039 l -0.13282,-0.0625 -0.13671,-0.0547 c 0,0 -21.07789,-8.36271 -55.51368,-8.60351 h 0.0449 c 0,0 -44.77129,-1.12346 -71.27344,-14.70313 z"
       id="path12873"
       inkscape:connector-curvature="0" />
    <path
       style="color:#000000;font-style:normal;font-variant:normal;font-weight:normal;font-stretch:normal;font-size:medium;line-height:normal;font-family:sans-serif;font-variant-ligatures:normal;font-variant-position:normal;font-variant-caps:normal;font-variant-numeric:normal;font-variant-alternates:normal;font-feature-settings:normal;text-indent:0;text-align:start;text-decoration:none;text-decoration-line:none;text-decoration-style:solid;text-decoration-color:#000000;letter-spacing:normal;word-spacing:normal;text-transform:none;writing-mode:lr-tb;direction:ltr;text-orientation:mixed;dominant-baseline:auto;baseline-shift:baseline;text-anchor:start;white-space:normal;shape-padding:0;clip-rule:nonzero;display:inline;overflow:visible;visibility:visible;opacity:1;isolation:auto;mix-blend-mode:normal;color-interpolation:sRGB;color-interpolation-filters:linearRGB;solid-color:#000000;solid-opacity:1;vector-effect:none;fill:#000000;fill-opacity:1;fill-rule:nonzero;stroke:none;stroke-width:10.49703503;stroke-linecap:butt;stroke-linejoin:miter;stroke-miterlimit:4;stroke-dasharray:none;stroke-dashoffset:0;stroke-opacity:1;color-rendering:auto;image-rendering:auto;shape-rendering:auto;text-rendering:auto;enable-background:accumulate"
       d="m 174.23047,814.38023 c -11.41591,0.35923 -24.85498,3.04453 -33.93555,12.66797 -0.0538,0.041 -0.59078,0.46407 -2.91211,1.47656 -2.38292,1.03935 -6.27723,2.42571 -11.88476,3.63281 -0.54496,0.0281 -1.08529,0.0396 -1.69727,0.19531 -1.72537,0.43907 -3.6202,1.40066 -5.76367,3.11914 -4.28695,3.43697 -9.75105,9.92693 -17.22656,23.31055 l 0.13867,-0.23633 c 0,0 -6.874079,10.75174 -18.021486,17.98242 l 5.710938,8.80664 c 13.455648,-8.72791 21.195308,-21.19726 21.195308,-21.19726 l 0.0742,-0.11719 0.0664,-0.11914 c 7.10027,-12.71182 12.09811,-18.21122 14.62891,-20.24023 0.97779,-0.78393 1.20377,-0.80749 1.38086,-0.87696 l 0.0234,0.008 1.39453,-0.29492 c 6.44509,-1.36334 11.08052,-2.99871 14.17774,-4.34961 3.09721,-1.3509 4.94726,-2.62695 4.94726,-2.62695 l 0.48633,-0.34765 0.39453,-0.44532 c 6.04355,-6.83291 16.9246,-9.53363 27.15235,-9.85547 5.11387,-0.16091 9.97196,0.23761 13.68945,0.78711 1.85875,0.27476 3.43783,0.58872 4.58008,0.86719 1.14224,0.27847 2.0505,0.68404 1.5918,0.44531 l 4.8457,-9.31054 c -1.41519,-0.73651 -2.41973,-0.96063 -3.95117,-1.33399 -1.53145,-0.37335 -3.38888,-0.7341 -5.53125,-1.05078 -4.28475,-0.63336 -9.69531,-1.08086 -15.55469,-0.89648 z"
       id="path12875"
       inkscape:connector-curvature="0" />
    <path
       style="color:#000000;font-style:normal;font-variant:normal;font-weight:normal;font-stretch:normal;font-size:medium;line-height:normal;font-family:sans-serif;font-variant-ligatures:normal;font-variant-position:normal;font-variant-caps:normal;font-variant-numeric:normal;font-variant-alternates:normal;font-feature-settings:normal;text-indent:0;text-align:start;text-decoration:none;text-decoration-line:none;text-decoration-style:solid;text-decoration-color:#000000;letter-spacing:normal;word-spacing:normal;text-transform:none;writing-mode:lr-tb;direction:ltr;text-orientation:mixed;dominant-baseline:auto;baseline-shift:baseline;text-anchor:start;white-space:normal;shape-padding:0;clip-rule:nonzero;display:inline;overflow:visible;visibility:visible;opacity:1;isolation:auto;mix-blend-mode:normal;color-interpolation:sRGB;color-interpolation-filters:linearRGB;solid-color:#000000;solid-opacity:1;vector-effect:none;fill:#000000;fill-opacity:1;fill-rule:nonzero;stroke:none;stroke-width:10.49703503;stroke-linecap:butt;stroke-linejoin:miter;stroke-miterlimit:4;stroke-dasharray:none;stroke-dashoffset:0;stroke-opacity:1;color-rendering:auto;image-rendering:auto;shape-rendering:auto;text-rendering:auto;enable-background:accumulate"
       d="m 202.38281,882.83141 c -6.02467,-10e-6 -11.22853,0.25378 -15.71484,2.30467 l 4.36523,9.54688 c 1.33197,-0.60889 5.93513,-1.35352 11.34961,-1.35352 5.41449,10e-6 11.80621,0.4802 17.86328,1.13282 11.8683,1.27874 22.14726,3.14562 22.57032,3.22266 51.13597,17.88385 91.25586,5.33789 91.25586,5.33789 l -3.15821,-10.01172 c 0,0 -36.77152,11.69425 -85.125,-5.39062 l -0.39258,-0.13867 -0.41015,-0.0762 c 0,0 -11.04323,-2.02435 -23.61524,-3.37891 -6.286,-0.67729 -12.96361,-1.19531 -18.98828,-1.19531 z"
       id="path12877"
       inkscape:connector-curvature="0" />
    <path
       style="color:#000000;font-style:normal;font-variant:normal;font-weight:normal;font-stretch:normal;font-size:medium;line-height:normal;font-family:sans-serif;font-variant-ligatures:normal;font-variant-position:normal;font-variant-caps:normal;font-variant-numeric:normal;font-variant-alternates:normal;font-feature-settings:normal;text-indent:0;text-align:start;text-decoration:none;text-decoration-line:none;text-decoration-style:solid;text-decoration-color:#000000;letter-spacing:normal;word-spacing:normal;text-transform:none;writing-mode:lr-tb;direction:ltr;text-orientation:mixed;dominant-baseline:auto;baseline-shift:baseline;text-anchor:start;white-space:normal;shape-padding:0;clip-rule:nonzero;display:inline;overflow:visible;visibility:visible;opacity:1;isolation:auto;mix-blend-mode:normal;color-interpolation:sRGB;color-interpolation-filters:linearRGB;solid-color:#000000;solid-opacity:1;vector-effect:none;fill:#000000;fill-opacity:1;fill-rule:nonzero;stroke:none;stroke-width:10.49703503;stroke-linecap:butt;stroke-linejoin:miter;stroke-miterlimit:4;stroke-dasharray:none;stroke-dashoffset:0;stroke-opacity:1;color-rendering:auto;image-rendering:auto;shape-rendering:auto;text-rendering:auto;enable-background:accumulate"
       d="m 177.30859,883.96617 -3.51367,9.89063 c 5.03658,1.78911 10.96093,3.64061 17.20313,0.84178 l -4.29493,-9.57812 c -2.70774,1.21407 -4.51224,0.58001 -9.39453,-1.15429 z"
       id="path12879"
       inkscape:connector-curvature="0" />
    <path
       style="color:#000000;font-style:normal;font-variant:normal;font-weight:normal;font-stretch:normal;font-size:medium;line-height:normal;font-family:sans-serif;font-variant-ligatures:normal;font-variant-position:normal;font-variant-caps:normal;font-variant-numeric:normal;font-variant-alternates:normal;font-feature-settings:normal;text-indent:0;text-align:start;text-decoration:none;text-decoration-line:none;text-decoration-style:solid;text-decoration-color:#000000;letter-spacing:normal;word-spacing:normal;text-transform:none;writing-mode:lr-tb;direction:ltr;text-orientation:mixed;dominant-baseline:auto;baseline-shift:baseline;text-anchor:start;white-space:normal;shape-padding:0;clip-rule:nonzero;display:inline;overflow:visible;visibility:visible;opacity:1;isolation:auto;mix-blend-mode:normal;color-interpolation:sRGB;color-interpolation-filters:linearRGB;solid-color:#000000;solid-opacity:1;vector-effect:none;fill:#000000;fill-opacity:1;fill-rule:nonzero;stroke:none;stroke-width:10.49703503;stroke-linecap:butt;stroke-linejoin:miter;stroke-miterlimit:4;stroke-dasharray:none;stroke-dashoffset:0;stroke-opacity:1;color-rendering:auto;image-rendering:auto;shape-rendering:auto;text-rendering:auto;enable-background:accumulate"
       d="m 507.19727,895.76694 -4.33008,9.5625 c 7.62816,3.45361 10.80421,6.82133 11.51758,8.42188 0.71336,1.60055 0.5367,2.19404 -1.36915,4.24023 -3.81169,4.09238 -15.34555,8.64457 -23.65234,9.24024 l -1.1914,0.084 -1.03711,0.59375 c 0.69498,-0.39713 0.10166,-0.06 -0.61133,0.15039 -0.71299,0.21043 -1.76164,0.48638 -3.04297,0.79688 -2.56267,0.62099 -6.07545,1.39158 -10.17383,2.24219 -8.19676,1.7012 -18.7544,3.73365 -29.16797,5.68359 -20.82713,3.89988 -41.08984,7.4707 -41.08984,7.4707 l -0.33985,0.0606 -0.32812,0.10351 c -11.10437,3.50666 -33.48633,4.41407 -33.48633,4.41407 l 0.64649,0.0195 c -3.4734,-0.32563 -8.49956,-0.12311 -14.78711,0.24023 -6.28755,0.36335 -13.59805,0.93777 -20.56836,1.54297 -13.94063,1.2104 -26.53125,2.54492 -26.53125,2.54492 l 1.10742,10.43947 c 0,0 12.51111,-1.32539 26.33203,-2.5254 6.91046,-0.60001 14.14775,-1.16795 20.26563,-1.52148 6.11787,-0.35354 11.35497,-0.44261 13.20117,-0.26954 l 0.32226,0.0312 0.32422,-0.01 c 0,0 22.1704,-0.42376 36.33399,-4.89648 l -0.66993,0.16405 c 0,0 20.30089,-3.57701 41.19922,-7.49023 10.44917,-1.9566 21.0461,-3.99719 29.36914,-5.72461 4.16152,-0.8637 7.74897,-1.64646 10.51367,-2.31641 1.38236,-0.33497 2.5543,-0.64043 3.54102,-0.93164 0.47949,-0.14151 0.96947,-0.3954 1.38477,-0.53711 10.60746,-0.89973 22.71382,-4.8176 29.81836,-12.4453 3.63606,-3.90382 5.75519,-10.10417 3.27539,-15.66797 -2.4798,-5.5638 -7.98588,-9.73153 -16.77539,-13.71095 z"
       id="path12881"
       inkscape:connector-curvature="0" />
    <path
       style="color:#000000;font-style:normal;font-variant:normal;font-weight:normal;font-stretch:normal;font-size:medium;line-height:normal;font-family:sans-serif;font-variant-ligatures:normal;font-variant-position:normal;font-variant-caps:normal;font-variant-numeric:normal;font-variant-alternates:normal;font-feature-settings:normal;text-indent:0;text-align:start;text-decoration:none;text-decoration-line:none;text-decoration-style:solid;text-decoration-color:#000000;letter-spacing:normal;word-spacing:normal;text-transform:none;writing-mode:lr-tb;direction:ltr;text-orientation:mixed;dominant-baseline:auto;baseline-shift:baseline;text-anchor:start;white-space:normal;shape-padding:0;clip-rule:nonzero;display:inline;overflow:visible;visibility:visible;opacity:1;isolation:auto;mix-blend-mode:normal;color-interpolation:sRGB;color-interpolation-filters:linearRGB;solid-color:#000000;solid-opacity:1;vector-effect:none;fill:#000000;fill-opacity:1;fill-rule:nonzero;stroke:none;stroke-width:10.49703503;stroke-linecap:butt;stroke-linejoin:miter;stroke-miterlimit:4;stroke-dasharray:none;stroke-dashoffset:0;stroke-opacity:1;color-rendering:auto;image-rendering:auto;shape-rendering:auto;text-rendering:auto;enable-background:accumulate"
       d="m 420.66992,893.89976 c -8.33946,0.0646 -18.16428,0.84956 -29.5664,2.80665 l 1.77539,10.34569 c 21.74719,-3.73271 37.00458,-2.92794 46.69336,-1.28711 9.68877,1.64084 13.32226,3.83204 13.32226,3.83204 l 2.33008,1.32813 2.44141,-1.10938 c 3.34083,-1.51859 12.0957,-5.06641 12.0957,-5.06641 l -3.93164,-9.73243 c 0,0 -6.08539,2.50445 -10.35352,4.33985 -2.42882,-1.06624 -6.55999,-2.65595 -14.15039,-3.94141 -5.46229,-0.92506 -12.31679,-1.58019 -20.65625,-1.51562 z"
       id="path12883"
       inkscape:connector-curvature="0" />
    <path
       style="color:#000000;font-style:normal;font-variant:normal;font-weight:normal;font-stretch:normal;font-size:medium;line-height:normal;font-family:sans-serif;font-variant-ligatures:normal;font-variant-position:normal;font-variant-caps:normal;font-variant-numeric:normal;font-variant-alternates:normal;font-feature-settings:normal;text-indent:0;text-align:start;text-decoration:none;text-decoration-line:none;text-decoration-style:solid;text-decoration-color:#000000;letter-spacing:normal;word-spacing:normal;text-transform:none;writing-mode:lr-tb;direction:ltr;text-orientation:mixed;dominant-baseline:auto;baseline-shift:baseline;text-anchor:start;white-space:normal;shape-padding:0;clip-rule:nonzero;display:inline;overflow:visible;visibility:visible;opacity:1;isolation:auto;mix-blend-mode:normal;color-interpolation:sRGB;color-interpolation-filters:linearRGB;solid-color:#000000;solid-opacity:1;vector-effect:none;fill:#000000;fill-opacity:1;fill-rule:nonzero;stroke:none;stroke-width:10.49703503;stroke-linecap:butt;stroke-linejoin:miter;stroke-miterlimit:4;stroke-dasharray:none;stroke-dashoffset:0;stroke-opacity:1;color-rendering:auto;image-rendering:auto;shape-rendering:auto;text-rendering:auto;enable-background:accumulate"
       d="m 314.66406,844.13414 c -2.75468,-0.17435 -5.01268,-0.0633 -6.85547,0.19727 -1.84278,0.26058 -3.26583,0.67469 -4.31836,1.09569 -1.05252,0.42101 -2.08593,1.11133 -2.08593,1.11133 l -1.4375,1.05859 -0.49414,1.71485 c -5.88104,20.45571 -1.77149,42.78711 -1.77149,42.78711 l 0.41016,2.36523 2.06055,1.23437 c 4.67717,2.8065 10.13245,3.29246 14.91992,3.69922 4.78746,0.40677 8.78515,0.33985 8.78515,0.33985 l 2.67969,-0.041 1.53711,-2.19726 c 10.61582,-15.16539 10.92589,-28.30511 7.82617,-37.18165 -3.09972,-8.87653 -9.40039,-13.71874 -9.40039,-13.71874 l -0.90625,-0.69532 -1.11523,-0.25586 c -3.82898,-0.87877 -7.0793,-1.33933 -9.83399,-1.51367 z m -0.65625,10.47852 c 1.78319,0.1131 4.21796,0.5235 6.86133,1.0664 0.94536,0.82938 3.42266,3.17995 5.14063,8.09961 1.94287,5.56372 2.43673,13.6271 -5.02149,25.35742 -1.38046,-0.0133 -2.2846,0.0322 -5.00781,-0.19921 -3.12849,-0.26582 -6.20272,-0.95248 -8.32031,-1.59571 -0.67761,-5.68925 -1.75285,-19.58592 1.31836,-32.54493 0.14531,-0.0259 0.13014,-0.0465 0.29882,-0.0703 1.0665,-0.15082 2.6143,-0.24752 4.73047,-0.11329 z"
       id="path12885"
       inkscape:connector-curvature="0" />
    <path
       style="color:#000000;font-style:normal;font-variant:normal;font-weight:normal;font-stretch:normal;font-size:medium;line-height:normal;font-family:sans-serif;font-variant-ligatures:normal;font-variant-position:normal;font-variant-caps:normal;font-variant-numeric:normal;font-variant-alternates:normal;font-feature-settings:normal;text-indent:0;text-align:start;text-decoration:none;text-decoration-line:none;text-decoration-style:solid;text-decoration-color:#000000;letter-spacing:normal;word-spacing:normal;text-transform:none;writing-mode:lr-tb;direction:ltr;text-orientation:mixed;dominant-baseline:auto;baseline-shift:baseline;text-anchor:start;white-space:normal;shape-padding:0;clip-rule:nonzero;display:inline;overflow:visible;visibility:visible;opacity:1;isolation:auto;mix-blend-mode:normal;color-interpolation:sRGB;color-interpolation-filters:linearRGB;solid-color:#000000;solid-opacity:1;vector-effect:none;fill:#000000;fill-opacity:1;fill-rule:nonzero;stroke:none;stroke-width:10.49703503;stroke-linecap:butt;stroke-linejoin:miter;stroke-miterlimit:4;stroke-dasharray:none;stroke-dashoffset:0;stroke-opacity:1;color-rendering:auto;image-rendering:auto;shape-rendering:auto;text-rendering:auto;enable-background:accumulate"
       d="m 510.99219,909.09507 -4.40039,0.15234 c -10.26973,0.35183 -17.0454,4.57088 -20.67383,9.05664 -1.81421,2.24289 -2.88122,4.47418 -3.50586,6.25 -0.31232,0.88792 -0.51527,1.66008 -0.64649,2.31446 -0.0656,0.32718 -0.11305,0.61822 -0.14843,0.93165 -0.0354,0.3134 -0.33744,-0.13261 0.0586,1.8496 l 10.29297,-2.05664 c 0.38385,1.9212 0.0878,1.31605 0.0801,1.38477 -0.008,0.0687 -0.006,0.0319 0.01,-0.0449 0.0308,-0.15373 0.11115,-0.48507 0.25586,-0.89648 0.28943,-0.82283 0.83425,-1.97942 1.76563,-3.13086 1.48345,-1.83397 3.95958,-3.80167 8.7793,-4.6836 0.40647,1.43319 0.8846,2.93045 2.03906,4.66211 l 8.73242,-5.82226 c 0.17491,0.26235 -0.65547,-1.56573 -1.06055,-3.00197 -0.40508,-1.43622 -0.66406,-2.65625 -0.66406,-2.65625 z"
       id="path12887"
       inkscape:connector-curvature="0" />
    <path
       style="color:#000000;font-style:normal;font-variant:normal;font-weight:normal;font-stretch:normal;font-size:medium;line-height:normal;font-family:sans-serif;font-variant-ligatures:normal;font-variant-position:normal;font-variant-caps:normal;font-variant-numeric:normal;font-variant-alternates:normal;font-feature-settings:normal;text-indent:0;text-align:start;text-decoration:none;text-decoration-line:none;text-decoration-style:solid;text-decoration-color:#000000;letter-spacing:normal;word-spacing:normal;text-transform:none;writing-mode:lr-tb;direction:ltr;text-orientation:mixed;dominant-baseline:auto;baseline-shift:baseline;text-anchor:start;white-space:normal;shape-padding:0;clip-rule:nonzero;display:inline;overflow:visible;visibility:visible;opacity:1;isolation:auto;mix-blend-mode:normal;color-interpolation:sRGB;color-interpolation-filters:linearRGB;solid-color:#000000;solid-opacity:1;vector-effect:none;fill:#000000;fill-opacity:1;fill-rule:nonzero;stroke:none;stroke-width:10.49703503;stroke-linecap:butt;stroke-linejoin:miter;stroke-miterlimit:4;stroke-dasharray:none;stroke-dashoffset:0;stroke-opacity:1;color-rendering:auto;image-rendering:auto;shape-rendering:auto;text-rendering:auto;enable-background:accumulate"
       d="m 537.02539,921.98569 c -8.2838,0.80648 -13.60297,4.16933 -16.30469,8.40822 -3.60229,5.65183 -2.40039,11.65428 -2.40039,11.65428 l 10.32813,-1.87695 c 0,0 -0.29477,-2.22479 0.92383,-4.13671 1.03763,-1.62801 3.63296,-3.75033 11.39843,-3.64062 0.0931,0.93966 0.0132,0.92503 0.1875,2.03125 0.60389,3.83222 1.39028,8.45754 4.83594,12.33398 l 7.8457,-6.97461 c -0.54391,-0.61191 -1.8358,-3.96713 -2.3125,-6.9922 -0.47669,-3.02506 -0.51953,-5.55664 -0.51953,-5.55664 l -0.0664,-4.65625 -4.63086,-0.48632 c -3.43334,-0.3614 -6.52389,-0.37625 -9.28516,-0.10743 z"
       id="path12889"
       inkscape:connector-curvature="0" />
    <path
       style="color:#000000;font-style:normal;font-variant:normal;font-weight:normal;font-stretch:normal;font-size:medium;line-height:normal;font-family:sans-serif;font-variant-ligatures:normal;font-variant-position:normal;font-variant-caps:normal;font-variant-numeric:normal;font-variant-alternates:normal;font-feature-settings:normal;text-indent:0;text-align:start;text-decoration:none;text-decoration-line:none;text-decoration-style:solid;text-decoration-color:#000000;letter-spacing:normal;word-spacing:normal;text-transform:none;writing-mode:lr-tb;direction:ltr;text-orientation:mixed;dominant-baseline:auto;baseline-shift:baseline;text-anchor:start;white-space:normal;shape-padding:0;clip-rule:nonzero;display:inline;overflow:visible;visibility:visible;opacity:1;isolation:auto;mix-blend-mode:normal;color-interpolation:sRGB;color-interpolation-filters:linearRGB;solid-color:#000000;solid-opacity:1;vector-effect:none;fill:#000000;fill-opacity:1;fill-rule:nonzero;stroke:none;stroke-width:10.49703503;stroke-linecap:butt;stroke-linejoin:miter;stroke-miterlimit:4;stroke-dasharray:none;stroke-dashoffset:0;stroke-opacity:1;color-rendering:auto;image-rendering:auto;shape-rendering:auto;text-rendering:auto;enable-background:accumulate"
       d="m 280.58594,952.22789 c -6.37637,3.79872 -15.87649,4.9903 -23.73438,4.9121 -7.85789,-0.0782 -13.80273,-1.23242 -13.80273,-1.23242 l -2.00586,10.30273 c 0,0 6.8562,1.33773 15.70508,1.42578 8.84888,0.0881 19.96112,-0.88003 29.21093,-6.39062 z"
       id="path12891"
       inkscape:connector-curvature="0" />
  </g>
</svg>
