<?xml version="1.0" encoding="UTF-8" standalone="no"?>
<!-- Created with Inkscape (http://www.inkscape.org/) -->

<svg
   xmlns:dc="http://purl.org/dc/elements/1.1/"
   xmlns:cc="http://creativecommons.org/ns#"
   xmlns:rdf="http://www.w3.org/1999/02/22-rdf-syntax-ns#"
   xmlns:svg="http://www.w3.org/2000/svg"
   xmlns="http://www.w3.org/2000/svg"
   xmlns:sodipodi="http://sodipodi.sourceforge.net/DTD/sodipodi-0.dtd"
   xmlns:inkscape="http://www.inkscape.org/namespaces/inkscape"
   width="1000"
   height="1000"
   viewBox="0 0 1000 1000"
   version="1.1"
   id="svg26569"
   inkscape:version="0.92.4 (5da689c313, 2019-01-14)"
   sodipodi:docname="Desculpa.svg">
  <defs
     id="defs26563" />
  <sodipodi:namedview
     id="base"
     pagecolor="#ffffff"
     bordercolor="#666666"
     borderopacity="1.0"
     inkscape:pageopacity="0.0"
     inkscape:pageshadow="2"
     inkscape:zoom="0.70710678"
     inkscape:cx="294.71778"
     inkscape:cy="527.9418"
     inkscape:document-units="px"
     inkscape:current-layer="layer1"
     showgrid="false"
     units="px"
     inkscape:window-width="681"
     inkscape:window-height="706"
     inkscape:window-x="-7"
     inkscape:window-y="0"
     inkscape:window-maximized="0" />
  <metadata
     id="metadata26566">
    <rdf:RDF>
      <cc:Work
         rdf:about="">
        <dc:format>image/svg+xml</dc:format>
        <dc:type
           rdf:resource="http://purl.org/dc/dcmitype/StillImage" />
        <dc:title></dc:title>
      </cc:Work>
    </rdf:RDF>
  </metadata>
  <g
     inkscape:label="Camada 1"
     inkscape:groupmode="layer"
     id="layer1"
     transform="translate(0,-32.41665)">
    <path
       style="color:#000000;font-style:normal;font-variant:normal;font-weight:normal;font-stretch:normal;font-size:medium;line-height:normal;font-family:sans-serif;font-variant-ligatures:normal;font-variant-position:normal;font-variant-caps:normal;font-variant-numeric:normal;font-variant-alternates:normal;font-feature-settings:normal;text-indent:0;text-align:start;text-decoration:none;text-decoration-line:none;text-decoration-style:solid;text-decoration-color:#000000;letter-spacing:normal;word-spacing:normal;text-transform:none;writing-mode:lr-tb;direction:ltr;text-orientation:mixed;dominant-baseline:auto;baseline-shift:baseline;text-anchor:start;white-space:normal;shape-padding:0;clip-rule:nonzero;display:inline;overflow:visible;visibility:visible;opacity:1;isolation:auto;mix-blend-mode:normal;color-interpolation:sRGB;color-interpolation-filters:linearRGB;solid-color:#000000;solid-opacity:1;vector-effect:none;fill:#000000;fill-opacity:1;fill-rule:nonzero;stroke:none;stroke-width:28.89344215;stroke-linecap:butt;stroke-linejoin:miter;stroke-miterlimit:4;stroke-dasharray:none;stroke-dashoffset:0;stroke-opacity:1;color-rendering:auto;image-rendering:auto;shape-rendering:auto;text-rendering:auto;enable-background:accumulate"
       d="M 281.62528,32.53973 C 170.29814,32.515648 93.819336,77.217407 49.827831,144.08875 5.8284281,210.97211 -6.4468946,298.31042 3.1695565,384.75898 12.786004,471.20752 44.332751,557.14755 90.914852,622.41655 c 30.407778,42.6062 67.690878,76.77785 109.758148,95.25317 2.35375,-5.77734 3.1232,-9.45707 5.76318,-13.87247 l 127.06859,1.6161 c 1.45434,1.98556 2.86611,4.22982 5.26278,8.98693 5.05268,-0.22121 6.42644,-0.77246 8.83479,0.005 39.68724,-19.32379 74.82779,-52.61358 103.76068,-93.53169 46.30689,-65.4893 77.79839,-151.39903 88.257,-237.63284 10.45863,-86.23386 -0.0153,-173.11088 -40.64958,-239.7293 C 458.34644,76.905324 386.36036,32.171596 281.68309,32.539771 Z m 0.0494,28.896268 h 0.0253 0.0337 c 96.69207,-0.355936 156.66274,38.253348 192.56751,97.121522 35.9048,58.86819 46.53267,139.61807 36.63831,221.1997 -9.89442,81.58163 -40.21278,163.67926 -83.17274,224.43513 -30.21478,42.7311 -66.1511,74.47288 -105.30821,89.66801 6.02567,4.38888 9.54966,9.27178 11.04601,11.55299 l -127.06859,-1.6161 c 1.07104,-2.78931 3.98414,-7.49333 7.66041,-11.82994 -36.9006,-15.65992 -70.88671,-46.01855 -99.65712,-86.33044 C 71.275225,545.15893 40.960101,463.15357 31.884249,381.56477 22.808391,299.97597 35.008581,219.18143 73.961711,159.96891 112.91483,100.75639 177.84485,61.398568 281.67481,61.435998 Z"
       id="path10-9-9-0-1"
       inkscape:connector-curvature="0"
       sodipodi:nodetypes="cssscccccssccccccssscccccsscc" />
    <path
       style="color:#000000;font-style:normal;font-variant:normal;font-weight:normal;font-stretch:normal;font-size:medium;line-height:normal;font-family:sans-serif;font-variant-ligatures:normal;font-variant-position:normal;font-variant-caps:normal;font-variant-numeric:normal;font-variant-alternates:normal;font-feature-settings:normal;text-indent:0;text-align:start;text-decoration:none;text-decoration-line:none;text-decoration-style:solid;text-decoration-color:#000000;letter-spacing:normal;word-spacing:normal;text-transform:none;writing-mode:lr-tb;direction:ltr;text-orientation:mixed;dominant-baseline:auto;baseline-shift:baseline;text-anchor:start;white-space:normal;shape-padding:0;clip-rule:nonzero;display:inline;overflow:visible;visibility:visible;opacity:1;isolation:auto;mix-blend-mode:normal;color-interpolation:sRGB;color-interpolation-filters:linearRGB;solid-color:#000000;solid-opacity:1;vector-effect:none;fill:#000000;fill-opacity:1;fill-rule:nonzero;stroke:none;stroke-width:14.44672108;stroke-linecap:butt;stroke-linejoin:miter;stroke-miterlimit:4;stroke-dasharray:none;stroke-dashoffset:0;stroke-opacity:1;color-rendering:auto;image-rendering:auto;shape-rendering:auto;text-rendering:auto;enable-background:accumulate"
       d="m 266.19922,380.52344 c 0,0 -1.62892,16.08011 -4.32422,32.9707 -1.34765,8.4453 -2.97038,17.09308 -4.71484,23.8125 -0.87224,3.35971 -1.78723,6.24493 -2.60547,8.23438 -0.81825,1.98944 -1.87425,3.02899 -1.11524,2.39648 -1.59863,1.33218 -3.29018,2.44401 -4.17578,5.98633 -0.4428,1.77116 -0.19117,4.41141 0.93945,6.2539 1.13063,1.8425 2.60133,2.74255 3.7129,3.26563 4.44626,2.09234 6.72882,1.28858 9.75195,1.08008 6.04626,-0.417 12.59375,-1.76367 12.59375,-1.76367 l -2.83203,-14.16602 c 0,0 -3.08845,0.39243 -4.95703,0.69922 0.95807,-2.56868 1.86335,-5.24869 2.66992,-8.35547 1.94948,-7.50912 3.60944,-16.46408 4.99804,-25.16602 2.77721,-17.40387 4.43165,-33.79492 4.43165,-33.79492 z"
       id="path971-3-7-7"
       inkscape:connector-curvature="0" />
    <path
       style="color:#000000;font-style:normal;font-variant:normal;font-weight:normal;font-stretch:normal;font-size:medium;line-height:normal;font-family:sans-serif;font-variant-ligatures:normal;font-variant-position:normal;font-variant-caps:normal;font-variant-numeric:normal;font-variant-alternates:normal;font-feature-settings:normal;text-indent:0;text-align:start;text-decoration:none;text-decoration-line:none;text-decoration-style:solid;text-decoration-color:#000000;letter-spacing:normal;word-spacing:normal;text-transform:none;writing-mode:lr-tb;direction:ltr;text-orientation:mixed;dominant-baseline:auto;baseline-shift:baseline;text-anchor:start;white-space:normal;shape-padding:0;clip-rule:nonzero;display:inline;overflow:visible;visibility:visible;opacity:1;isolation:auto;mix-blend-mode:normal;color-interpolation:sRGB;color-interpolation-filters:linearRGB;solid-color:#000000;solid-opacity:1;vector-effect:none;fill:#000000;fill-opacity:1;fill-rule:nonzero;stroke:none;stroke-width:11.1810379;stroke-linecap:butt;stroke-linejoin:miter;stroke-miterlimit:4;stroke-dasharray:none;stroke-dashoffset:0;stroke-opacity:1;color-rendering:auto;image-rendering:auto;shape-rendering:auto;text-rendering:auto;enable-background:accumulate"
       d="m 63.314453,637.06055 c -2.179912,-0.069 -4.222533,0.0178 -6.138672,0.25195 -7.664555,0.93652 -13.764824,4.89415 -16.076172,10.75586 -2.311348,5.86171 -0.941362,12.26672 2.19336,18.03711 2.962339,5.45307 7.701054,10.5804 13.773437,14.87891 1.154253,1.63822 20.729503,29.77746 27.046875,66.4121 2.21e-4,0.001 -2.2e-4,0.003 0,0.004 0.0098,0.0609 3.554346,22.17968 8.38086,48.25977 4.833158,26.11599 10.842579,55.93286 16.162109,72.24609 l -0.0273,-0.0918 c 0,0 6.93797,22.59307 11.94336,48.6211 2.50269,13.01401 4.50596,26.8692 4.93359,38.96484 0.42762,12.09564 -0.98074,22.4362 -3.92383,27.81055 l 9.80664,5.36914 c 4.83549,-8.83005 5.75117,-20.55853 5.29102,-33.57422 -0.46015,-13.01569 -2.55666,-27.31608 -5.12696,-40.68164 -5.14059,-26.73113 -12.23632,-49.79492 -12.23632,-49.79492 l -0.0137,-0.0449 -0.0156,-0.0449 c -4.82645,-14.80113 -10.99134,-44.84577 -15.79688,-70.8125 -4.805531,-25.96673 -8.347652,-48.0625 -8.347652,-48.0625 l -0.0059,-0.0312 -0.0059,-0.0332 C 88.108911,704.77275 65.751953,673.85547 65.751953,673.85547 l -0.585937,-0.81445 -0.830078,-0.5586 c -5.252449,-3.53677 -9.118642,-7.85256 -11.216797,-11.71484 -2.098156,-3.86228 -2.259742,-6.96811 -1.617188,-8.59766 0.642554,-1.62955 1.980987,-3.14292 7.029297,-3.75976 5.04831,-0.61685 13.36441,0.31774 24.892578,4.24023 l 0.330078,0.11133 0.339844,0.0703 c 38.35825,7.92526 45.45898,36.26172 45.45898,36.26172 l 0.0137,0.0488 0.0137,0.0488 c 11.41257,38.49617 20.99366,59.83164 27.96484,71.82031 3.48559,5.99434 6.32228,9.65715 8.4707,11.93945 1.07422,1.14115 1.97772,1.93688 2.70508,2.49414 0.72737,0.55727 1.64258,1.05469 1.64258,1.05469 l 2.05469,1.00391 2.16797,-0.72266 c 4.13913,-1.3797 7.07113,-4.14339 10.31836,-7.39063 3.24723,-3.24723 6.48751,-7.0912 9.42382,-10.81054 5.87264,-7.43869 10.53711,-14.43945 10.53711,-14.43946 l 0.68555,-1.02929 0.1875,-1.22266 c 3.78228,-24.58462 14.34279,-40.03295 14.79688,-40.68945 14.07887,-16.18449 26.35667,-17.02629 36.14453,-13.41797 4.91688,1.81262 9.21624,5.0206 12.2539,8.47852 3.03767,3.45792 4.66384,7.25279 4.85547,9.15234 l 1.1211,11.10742 8.22265,-7.55078 c 8.62878,-7.9228 15.45625,-10.39903 20.79883,-10.50781 5.34258,-0.10879 9.79036,2.11535 13.77344,5.57812 7.96615,6.92554 12.56445,18.35938 12.56445,18.35938 l 1.7168,4.51172 4.71484,-1.04297 c 8.52655,-1.88642 14.15877,-0.7566 18.40039,1.57812 4.24163,2.33472 7.30198,6.16325 9.51172,10.56446 4.41948,8.8024 4.86133,19.09179 4.86133,19.09179 l 10.9375,1.45313 c 1.21735,-4.01734 8.46232,-19.36536 15.11328,-32.54102 6.65096,-13.17566 12.88867,-24.97656 12.88867,-24.97656 l 0.51758,-0.97852 0.10547,-1.10351 c 0.0347,-0.36439 0.71113,-2.72172 1.88477,-5.25781 1.17363,-2.53609 2.75952,-5.46478 4.33789,-8.19336 3.15672,-5.45717 6.24804,-10.08594 6.24804,-10.08594 l 0.10157,-0.15039 0.0898,-0.15625 c 6.85445,-11.8425 15.63352,-13.21008 21.70312,-10.72852 6.06961,2.48156 10.27255,8.73489 6.05664,19.23633 l 0.0918,-0.21484 c -11.45002,25.38908 -57.52344,146.66601 -57.52344,146.66601 l -0.26757,0.69922 -0.0723,0.74609 c -1.74066,17.84229 -14.04102,49.5 -14.04102,49.5 l -0.21875,0.54883 -0.0996,0.58399 c -13.1557,77.61864 -72.33398,142.58006 -72.33398,142.58006 l 8.23828,7.5586 c 0,0 60.90613,-65.94602 75,-147.68358 0.3631,-0.89506 12.15134,-30.07813 14.45117,-51.09766 0.38885,-1.02085 46.55162,-122.20788 57.0586,-145.50586 l 0.0488,-0.10547 0.043,-0.10937 c 6.01405,-14.98043 -0.77126,-29.07963 -12.19921,-33.75196 -11.42266,-4.67016 -26.6414,0.003 -35.59766,15.45703 -0.004,0.007 -0.01,0.0124 -0.0137,0.0195 -0.17949,0.26884 -3.17067,4.73886 -6.44336,10.39648 -1.6847,2.91241 -3.40419,6.06742 -4.80469,9.09375 -1.15765,2.50156 -2.0313,4.82157 -2.51367,7.33203 -0.25129,0.47565 -6.14734,11.62837 -12.7168,24.64258 -3.03876,6.01983 -6.04389,12.05741 -8.7168,17.64453 -0.6756,-1.87103 -1.27186,-3.73324 -2.22265,-5.62695 -2.90555,-5.78707 -7.35088,-11.62064 -14.11133,-15.3418 -5.74926,-3.16457 -13.10104,-4.43485 -21.65625,-3.35156 -2.24297,-4.67245 -6.59141,-12.43304 -13.79687,-18.69727 -5.40196,-4.6963 -12.66438,-8.49493 -21.33594,-8.31836 -6.77824,0.13802 -14.06774,2.78338 -21.68555,8.26172 -1.25081,-2.29229 -2.80568,-4.52412 -4.68555,-6.66406 -4.19331,-4.77345 -9.89154,-9.04973 -16.7871,-11.5918 -13.79114,-5.08414 -32.32811,-2.1241 -48.66993,16.80664 l -0.18554,0.21485 -0.16211,0.23242 c 0,0 -12.11227,17.43915 -16.57032,44.26172 -0.7912,1.17356 -4.43372,6.54911 -9.40625,12.84765 -2.77079,3.50968 -5.80944,7.08679 -8.55468,9.83204 -1.24427,1.24426 -2.44918,2.21974 -3.48438,3.00976 -1.44569,-1.63903 -3.51259,-4.29987 -6.30469,-9.10156 -6.30313,-10.83981 -15.66142,-31.44196 -26.9082,-69.37891 l 0.0273,0.0996 c 0,0 -10.43398,-34.98727 -53.542964,-44.12109 -9.273471,-3.13661 -16.990033,-4.72655 -23.470703,-4.93164 z"
       id="path26639"
       inkscape:connector-curvature="0" />
    <path
       style="color:#000000;font-style:normal;font-variant:normal;font-weight:normal;font-stretch:normal;font-size:medium;line-height:normal;font-family:sans-serif;font-variant-ligatures:normal;font-variant-position:normal;font-variant-caps:normal;font-variant-numeric:normal;font-variant-alternates:normal;font-feature-settings:normal;text-indent:0;text-align:start;text-decoration:none;text-decoration-line:none;text-decoration-style:solid;text-decoration-color:#000000;letter-spacing:normal;word-spacing:normal;text-transform:none;writing-mode:lr-tb;direction:ltr;text-orientation:mixed;dominant-baseline:auto;baseline-shift:baseline;text-anchor:start;white-space:normal;shape-padding:0;clip-rule:nonzero;display:inline;overflow:visible;visibility:visible;opacity:1;isolation:auto;mix-blend-mode:normal;color-interpolation:sRGB;color-interpolation-filters:linearRGB;solid-color:#000000;solid-opacity:1;vector-effect:none;fill:#000000;fill-opacity:1;fill-rule:nonzero;stroke:none;stroke-width:11.1810379;stroke-linecap:butt;stroke-linejoin:miter;stroke-miterlimit:4;stroke-dasharray:none;stroke-dashoffset:0;stroke-opacity:1;color-rendering:auto;image-rendering:auto;shape-rendering:auto;text-rendering:auto;enable-background:accumulate"
       d="m 273.92773,703.49609 -9.5625,38.24414 10.84766,2.71289 9.5625,-38.24609 z"
       id="path26641"
       inkscape:connector-curvature="0" />
    <path
       style="color:#000000;font-style:normal;font-variant:normal;font-weight:normal;font-stretch:normal;font-size:medium;line-height:normal;font-family:sans-serif;font-variant-ligatures:normal;font-variant-position:normal;font-variant-caps:normal;font-variant-numeric:normal;font-variant-alternates:normal;font-feature-settings:normal;text-indent:0;text-align:start;text-decoration:none;text-decoration-line:none;text-decoration-style:solid;text-decoration-color:#000000;letter-spacing:normal;word-spacing:normal;text-transform:none;writing-mode:lr-tb;direction:ltr;text-orientation:mixed;dominant-baseline:auto;baseline-shift:baseline;text-anchor:start;white-space:normal;shape-padding:0;clip-rule:nonzero;display:inline;overflow:visible;visibility:visible;opacity:1;isolation:auto;mix-blend-mode:normal;color-interpolation:sRGB;color-interpolation-filters:linearRGB;solid-color:#000000;solid-opacity:1;vector-effect:none;fill:#000000;fill-opacity:1;fill-rule:nonzero;stroke:none;stroke-width:11.1810379;stroke-linecap:butt;stroke-linejoin:miter;stroke-miterlimit:4;stroke-dasharray:none;stroke-dashoffset:0;stroke-opacity:1;color-rendering:auto;image-rendering:auto;shape-rendering:auto;text-rendering:auto;enable-background:accumulate"
       d="m 341.07422,720.0957 -11.16406,0.625 c 0,0 1.29931,26.14162 -5.65625,47.68164 l 10.64062,3.43555 c 7.87118,-24.37549 6.17969,-51.74219 6.17969,-51.74219 z"
       id="path26643"
       inkscape:connector-curvature="0" />
    <path
       style="color:#000000;font-style:normal;font-variant:normal;font-weight:normal;font-stretch:normal;font-size:medium;line-height:normal;font-family:sans-serif;font-variant-ligatures:normal;font-variant-position:normal;font-variant-caps:normal;font-variant-numeric:normal;font-variant-alternates:normal;font-feature-settings:normal;text-indent:0;text-align:start;text-decoration:none;text-decoration-line:none;text-decoration-style:solid;text-decoration-color:#000000;letter-spacing:normal;word-spacing:normal;text-transform:none;writing-mode:lr-tb;direction:ltr;text-orientation:mixed;dominant-baseline:auto;baseline-shift:baseline;text-anchor:start;white-space:normal;shape-padding:0;clip-rule:nonzero;display:inline;overflow:visible;visibility:visible;opacity:1;isolation:auto;mix-blend-mode:normal;color-interpolation:sRGB;color-interpolation-filters:linearRGB;solid-color:#000000;solid-opacity:1;vector-effect:none;fill:#000000;fill-opacity:1;fill-rule:nonzero;stroke:none;stroke-width:11.1810379;stroke-linecap:butt;stroke-linejoin:miter;stroke-miterlimit:4;stroke-dasharray:none;stroke-dashoffset:0;stroke-opacity:1;color-rendering:auto;image-rendering:auto;shape-rendering:auto;text-rendering:auto;enable-background:accumulate"
       d="m 369.50977,756.28906 c 0,0 -1.03588,8.90335 -2.04102,19.31641 -1.00514,10.41305 -2.00768,22.09413 -1.87305,28.82422 l 11.17969,-0.22461 c -0.10456,-5.22707 0.83102,-17.23603 1.82422,-27.52539 0.9932,-10.28937 2.01562,-19.09961 2.01562,-19.09961 z"
       id="path26645"
       inkscape:connector-curvature="0" />
    <path
       style="color:#000000;font-style:normal;font-variant:normal;font-weight:normal;font-stretch:normal;font-size:medium;line-height:normal;font-family:sans-serif;font-variant-ligatures:normal;font-variant-position:normal;font-variant-caps:normal;font-variant-numeric:normal;font-variant-alternates:normal;font-feature-settings:normal;text-indent:0;text-align:start;text-decoration:none;text-decoration-line:none;text-decoration-style:solid;text-decoration-color:#000000;letter-spacing:normal;word-spacing:normal;text-transform:none;writing-mode:lr-tb;direction:ltr;text-orientation:mixed;dominant-baseline:auto;baseline-shift:baseline;text-anchor:start;white-space:normal;shape-padding:0;clip-rule:nonzero;display:inline;overflow:visible;visibility:visible;opacity:1;isolation:auto;mix-blend-mode:normal;color-interpolation:sRGB;color-interpolation-filters:linearRGB;solid-color:#000000;solid-opacity:1;vector-effect:none;fill:#000000;fill-opacity:1;fill-rule:nonzero;stroke:none;stroke-width:11.1810379;stroke-linecap:butt;stroke-linejoin:miter;stroke-miterlimit:4;stroke-dasharray:none;stroke-dashoffset:0;stroke-opacity:1;color-rendering:auto;image-rendering:auto;shape-rendering:auto;text-rendering:auto;enable-background:accumulate"
       d="m 55.392578,654.25391 c -6.405915,-0.47672 -11.113281,2.75 -11.113281,2.75 l 6.472656,9.11523 c 0,0 1.127358,-0.91452 3.810547,-0.71484 2.565493,0.19092 6.792789,1.6506 12.285156,9.35742 -0.166902,0.47075 -0.76488,1.74379 -4.060547,4.00195 l 6.320313,9.22461 c 5.314413,-3.64139 8.046083,-7.49617 8.853516,-11.16992 0.403716,-1.83688 0.285285,-3.51806 -0.01563,-4.76563 -0.30091,-1.24756 -1.009765,-2.47851 -1.009765,-2.47851 l -0.04883,-0.0762 -0.04883,-0.0742 C 69.686041,658.83544 61.798493,654.73062 55.392578,654.25391 Z"
       id="path26647"
       inkscape:connector-curvature="0" />
    <path
       style="color:#000000;font-style:normal;font-variant:normal;font-weight:normal;font-stretch:normal;font-size:medium;line-height:normal;font-family:sans-serif;font-variant-ligatures:normal;font-variant-position:normal;font-variant-caps:normal;font-variant-numeric:normal;font-variant-alternates:normal;font-feature-settings:normal;text-indent:0;text-align:start;text-decoration:none;text-decoration-line:none;text-decoration-style:solid;text-decoration-color:#000000;letter-spacing:normal;word-spacing:normal;text-transform:none;writing-mode:lr-tb;direction:ltr;text-orientation:mixed;dominant-baseline:auto;baseline-shift:baseline;text-anchor:start;white-space:normal;shape-padding:0;clip-rule:nonzero;display:inline;overflow:visible;visibility:visible;opacity:1;isolation:auto;mix-blend-mode:normal;color-interpolation:sRGB;color-interpolation-filters:linearRGB;solid-color:#000000;solid-opacity:1;vector-effect:none;fill:#000000;fill-opacity:1;fill-rule:nonzero;stroke:none;stroke-width:11.1810379;stroke-linecap:butt;stroke-linejoin:miter;stroke-miterlimit:4;stroke-dasharray:none;stroke-dashoffset:0;stroke-opacity:1;color-rendering:auto;image-rendering:auto;shape-rendering:auto;text-rendering:auto;enable-background:accumulate"
       d="m 442.89648,658.63477 c -1.04647,-0.066 -2.06481,-0.0439 -3.03125,0.0449 -7.7315,0.7106 -13.44335,5.10547 -13.44335,5.10547 l -1.32032,0.94531 -0.60547,1.50781 c -4.50491,11.18911 1.49576,22.09155 10.30664,25.80469 8.81089,3.71314 20.91739,0.22022 26.1836,-11.43945 l 0.82031,-1.8125 -0.51172,-1.92383 c -1.82421,-6.8648 -4.84133,-11.78626 -8.85547,-14.79688 -3.0106,-2.25796 -6.40355,-3.23748 -9.54297,-3.43554 z m -2.00781,11.17773 c 1.88364,-0.17313 3.33906,0.0761 4.8418,1.20312 1.24793,0.93596 2.69724,3.14849 3.96484,6.72266 -3.12343,5.18362 -7.04605,5.47699 -10.55078,4 -3.53472,-1.48962 -5.98485,-4.61136 -4.63672,-9.72461 1.47644,-0.82049 3.76565,-1.96081 6.38086,-2.20117 z"
       id="path26649"
       inkscape:connector-curvature="0" />
    <path
       style="color:#000000;font-style:normal;font-variant:normal;font-weight:normal;font-stretch:normal;font-size:medium;line-height:normal;font-family:sans-serif;font-variant-ligatures:normal;font-variant-position:normal;font-variant-caps:normal;font-variant-numeric:normal;font-variant-alternates:normal;font-feature-settings:normal;text-indent:0;text-align:start;text-decoration:none;text-decoration-line:none;text-decoration-style:solid;text-decoration-color:#000000;letter-spacing:normal;word-spacing:normal;text-transform:none;writing-mode:lr-tb;direction:ltr;text-orientation:mixed;dominant-baseline:auto;baseline-shift:baseline;text-anchor:start;white-space:normal;shape-padding:0;clip-rule:nonzero;display:inline;overflow:visible;visibility:visible;opacity:1;isolation:auto;mix-blend-mode:normal;color-interpolation:sRGB;color-interpolation-filters:linearRGB;solid-color:#000000;solid-opacity:1;vector-effect:none;fill:#000000;fill-opacity:1;fill-rule:nonzero;stroke:none;stroke-width:11.1810379;stroke-linecap:butt;stroke-linejoin:miter;stroke-miterlimit:4;stroke-dasharray:none;stroke-dashoffset:0;stroke-opacity:1;color-rendering:auto;image-rendering:auto;shape-rendering:auto;text-rendering:auto;enable-background:accumulate"
       d="m 214.67188,790.16211 -9.81641,5.35351 c 0,0 3.34792,6.31763 10.03515,10.94727 6.68724,4.62965 17.82262,7.2189 29.72852,0.29688 l -5.62109,-9.66602 c -8.66043,5.03513 -13.54843,3.07916 -17.74219,0.17578 -4.19376,-2.90338 -6.58398,-7.10742 -6.58398,-7.10742 z"
       id="path26651"
       inkscape:connector-curvature="0" />
    <path
       style="color:#000000;font-style:normal;font-variant:normal;font-weight:normal;font-stretch:normal;font-size:medium;line-height:normal;font-family:sans-serif;font-variant-ligatures:normal;font-variant-position:normal;font-variant-caps:normal;font-variant-numeric:normal;font-variant-alternates:normal;font-feature-settings:normal;text-indent:0;text-align:start;text-decoration:none;text-decoration-line:none;text-decoration-style:solid;text-decoration-color:#000000;letter-spacing:normal;word-spacing:normal;text-transform:none;writing-mode:lr-tb;direction:ltr;text-orientation:mixed;dominant-baseline:auto;baseline-shift:baseline;text-anchor:start;white-space:normal;shape-padding:0;clip-rule:nonzero;display:inline;overflow:visible;visibility:visible;opacity:1;isolation:auto;mix-blend-mode:normal;color-interpolation:sRGB;color-interpolation-filters:linearRGB;solid-color:#000000;solid-opacity:1;vector-effect:none;fill:#000000;fill-opacity:1;fill-rule:nonzero;stroke:none;stroke-width:11.1810379;stroke-linecap:butt;stroke-linejoin:miter;stroke-miterlimit:4;stroke-dasharray:none;stroke-dashoffset:0;stroke-opacity:1;color-rendering:auto;image-rendering:auto;shape-rendering:auto;text-rendering:auto;enable-background:accumulate"
       d="m 277.29688,820.95703 -8.79883,6.89649 c 0,0 16.72363,20.30756 45.76757,13.9707 l -2.38476,-10.92383 c -23.56755,5.14202 -34.58399,-9.94336 -34.58398,-9.94336 z"
       id="path26653"
       inkscape:connector-curvature="0" />
    <path
       style="color:#000000;font-style:normal;font-variant:normal;font-weight:normal;font-stretch:normal;font-size:medium;line-height:normal;font-family:sans-serif;font-variant-ligatures:normal;font-variant-position:normal;font-variant-caps:normal;font-variant-numeric:normal;font-variant-alternates:normal;font-feature-settings:normal;text-indent:0;text-align:start;text-decoration:none;text-decoration-line:none;text-decoration-style:solid;text-decoration-color:#000000;letter-spacing:normal;word-spacing:normal;text-transform:none;writing-mode:lr-tb;direction:ltr;text-orientation:mixed;dominant-baseline:auto;baseline-shift:baseline;text-anchor:start;white-space:normal;shape-padding:0;clip-rule:nonzero;display:inline;overflow:visible;visibility:visible;opacity:1;isolation:auto;mix-blend-mode:normal;color-interpolation:sRGB;color-interpolation-filters:linearRGB;solid-color:#000000;solid-opacity:1;vector-effect:none;fill:#000000;fill-opacity:1;fill-rule:nonzero;stroke:none;stroke-width:11.1810379;stroke-linecap:butt;stroke-linejoin:miter;stroke-miterlimit:4;stroke-dasharray:none;stroke-dashoffset:0;stroke-opacity:1;color-rendering:auto;image-rendering:auto;shape-rendering:auto;text-rendering:auto;enable-background:accumulate"
       d="m 339.41406,840.96875 -8.67773,7.05078 c 0,0 3.62351,4.5162 9.43945,8.0625 5.81594,3.54631 14.83262,6.38595 24.04688,2.08594 l -4.72852,-10.13086 c -5.13431,2.39602 -9.50913,0.93031 -13.49805,-1.50195 -3.98891,-2.43227 -6.58203,-5.56641 -6.58203,-5.56641 z"
       id="path26655"
       inkscape:connector-curvature="0" />
    <path
       style="color:#000000;font-style:normal;font-variant:normal;font-weight:normal;font-stretch:normal;font-size:medium;line-height:normal;font-family:sans-serif;font-variant-ligatures:normal;font-variant-position:normal;font-variant-caps:normal;font-variant-numeric:normal;font-variant-alternates:normal;font-feature-settings:normal;text-indent:0;text-align:start;text-decoration:none;text-decoration-line:none;text-decoration-style:solid;text-decoration-color:#000000;letter-spacing:normal;word-spacing:normal;text-transform:none;writing-mode:lr-tb;direction:ltr;text-orientation:mixed;dominant-baseline:auto;baseline-shift:baseline;text-anchor:start;white-space:normal;shape-padding:0;clip-rule:nonzero;display:inline;overflow:visible;visibility:visible;opacity:1;isolation:auto;mix-blend-mode:normal;color-interpolation:sRGB;color-interpolation-filters:linearRGB;solid-color:#000000;solid-opacity:1;vector-effect:none;fill:#000000;fill-opacity:1;fill-rule:nonzero;stroke:none;stroke-width:14.48576546;stroke-linecap:butt;stroke-linejoin:miter;stroke-miterlimit:4;stroke-dasharray:none;stroke-dashoffset:0;stroke-opacity:1;color-rendering:auto;image-rendering:auto;shape-rendering:auto;text-rendering:auto;enable-background:accumulate"
       d="m 177.60457,199.99329 c -28.52841,-0.52356 -55.69057,20.26685 -90.08146,61.41979 l 11.116805,9.28997 c 33.489075,-40.07366 57.617165,-56.61315 78.699255,-56.22634 21.08198,0.38691 43.75894,17.91871 73.97226,53.35309 l 11.02408,-9.39838 c -30.94902,-36.29733 -56.20287,-57.91459 -84.73094,-58.43813 z"
       id="path59-17-20"
       inkscape:connector-curvature="0" />
    <path
       style="color:#000000;font-style:normal;font-variant:normal;font-weight:normal;font-stretch:normal;font-size:medium;line-height:normal;font-family:sans-serif;font-variant-ligatures:normal;font-variant-position:normal;font-variant-caps:normal;font-variant-numeric:normal;font-variant-alternates:normal;font-feature-settings:normal;text-indent:0;text-align:start;text-decoration:none;text-decoration-line:none;text-decoration-style:solid;text-decoration-color:#000000;letter-spacing:normal;word-spacing:normal;text-transform:none;writing-mode:lr-tb;direction:ltr;text-orientation:mixed;dominant-baseline:auto;baseline-shift:baseline;text-anchor:start;white-space:normal;shape-padding:0;clip-rule:nonzero;display:inline;overflow:visible;visibility:visible;opacity:1;isolation:auto;mix-blend-mode:normal;color-interpolation:sRGB;color-interpolation-filters:linearRGB;solid-color:#000000;solid-opacity:1;vector-effect:none;fill:#000000;fill-opacity:1;fill-rule:nonzero;stroke:none;stroke-width:14.48576546;stroke-linecap:butt;stroke-linejoin:miter;stroke-miterlimit:4;stroke-dasharray:none;stroke-dashoffset:0;stroke-opacity:1;color-rendering:auto;image-rendering:auto;shape-rendering:auto;text-rendering:auto;enable-background:accumulate"
       d="m 176.05617,301.35108 c -19.52832,-0.70236 -39.95082,7.15091 -63.93452,24.86596 l 8.60641,11.65229 c 22.49193,-16.61319 39.47739,-22.59512 54.80834,-22.04375 15.33086,0.55139 30.11139,7.79587 47.76585,20.46002 l 8.44274,-11.76942 c -18.63047,-13.36439 -36.1605,-22.46283 -55.68882,-23.1651 z"
       id="path59-1-8-1"
       inkscape:connector-curvature="0" />
    <path
       style="color:#000000;font-style:normal;font-variant:normal;font-weight:normal;font-stretch:normal;font-size:medium;line-height:normal;font-family:sans-serif;font-variant-ligatures:normal;font-variant-position:normal;font-variant-caps:normal;font-variant-numeric:normal;font-variant-alternates:normal;font-feature-settings:normal;text-indent:0;text-align:start;text-decoration:none;text-decoration-line:none;text-decoration-style:solid;text-decoration-color:#000000;letter-spacing:normal;word-spacing:normal;text-transform:none;writing-mode:lr-tb;direction:ltr;text-orientation:mixed;dominant-baseline:auto;baseline-shift:baseline;text-anchor:start;white-space:normal;shape-padding:0;clip-rule:nonzero;display:inline;overflow:visible;visibility:visible;opacity:1;isolation:auto;mix-blend-mode:normal;color-interpolation:sRGB;color-interpolation-filters:linearRGB;solid-color:#000000;solid-opacity:1;vector-effect:none;fill:#000000;fill-opacity:1;fill-rule:nonzero;stroke:none;stroke-width:14.48576546;stroke-linecap:butt;stroke-linejoin:miter;stroke-miterlimit:4;stroke-dasharray:none;stroke-dashoffset:0;stroke-opacity:1;color-rendering:auto;image-rendering:auto;shape-rendering:auto;text-rendering:auto;enable-background:accumulate"
       d="m 370.77324,197.96942 c -28.52815,-0.52355 -55.6903,20.26684 -90.08148,61.41979 l 11.1171,9.28764 c 33.48907,-40.07347 57.61679,-56.61082 78.69897,-56.22392 21.08217,0.38683 43.75913,17.91861 73.97243,53.35301 l 11.02401,-9.39837 c -30.94922,-36.29735 -56.20278,-57.91452 -84.73103,-58.43815 z"
       id="path59-17-5-2"
       inkscape:connector-curvature="0" />
    <path
       style="color:#000000;font-style:normal;font-variant:normal;font-weight:normal;font-stretch:normal;font-size:medium;line-height:normal;font-family:sans-serif;font-variant-ligatures:normal;font-variant-position:normal;font-variant-caps:normal;font-variant-numeric:normal;font-variant-alternates:normal;font-feature-settings:normal;text-indent:0;text-align:start;text-decoration:none;text-decoration-line:none;text-decoration-style:solid;text-decoration-color:#000000;letter-spacing:normal;word-spacing:normal;text-transform:none;writing-mode:lr-tb;direction:ltr;text-orientation:mixed;dominant-baseline:auto;baseline-shift:baseline;text-anchor:start;white-space:normal;shape-padding:0;clip-rule:nonzero;display:inline;overflow:visible;visibility:visible;opacity:1;isolation:auto;mix-blend-mode:normal;color-interpolation:sRGB;color-interpolation-filters:linearRGB;solid-color:#000000;solid-opacity:1;vector-effect:none;fill:#000000;fill-opacity:1;fill-rule:nonzero;stroke:none;stroke-width:14.48576546;stroke-linecap:butt;stroke-linejoin:miter;stroke-miterlimit:4;stroke-dasharray:none;stroke-dashoffset:0;stroke-opacity:1;color-rendering:auto;image-rendering:auto;shape-rendering:auto;text-rendering:auto;enable-background:accumulate"
       d="m 369.22511,299.32489 c -19.52832,-0.70227 -39.95121,7.15331 -63.93492,24.86828 l 8.60641,11.65227 c 22.49203,-16.61318 39.47575,-22.59501 54.80631,-22.04373 15.33075,0.55147 30.11344,7.79585 47.76791,20.46002 l 8.44302,-11.76942 c -18.63075,-13.36427 -36.16051,-22.46515 -55.68873,-23.16742 z"
       id="path59-1-8-3-29"
       inkscape:connector-curvature="0" />
    <path
       style="color:#000000;font-style:normal;font-variant:normal;font-weight:normal;font-stretch:normal;font-size:medium;line-height:normal;font-family:sans-serif;font-variant-ligatures:normal;font-variant-position:normal;font-variant-caps:normal;font-variant-numeric:normal;font-variant-alternates:normal;font-feature-settings:normal;text-indent:0;text-align:start;text-decoration:none;text-decoration-line:none;text-decoration-style:solid;text-decoration-color:#000000;letter-spacing:normal;word-spacing:normal;text-transform:none;writing-mode:lr-tb;direction:ltr;text-orientation:mixed;dominant-baseline:auto;baseline-shift:baseline;text-anchor:start;white-space:normal;shape-padding:0;clip-rule:nonzero;display:inline;overflow:visible;visibility:visible;opacity:1;isolation:auto;mix-blend-mode:normal;color-interpolation:sRGB;color-interpolation-filters:linearRGB;solid-color:#000000;solid-opacity:1;vector-effect:none;fill:#000000;fill-opacity:1;fill-rule:nonzero;stroke:none;stroke-width:14.48576546;stroke-linecap:butt;stroke-linejoin:miter;stroke-miterlimit:4;stroke-dasharray:none;stroke-dashoffset:0;stroke-opacity:1;color-rendering:auto;image-rendering:auto;shape-rendering:auto;text-rendering:auto;enable-background:accumulate"
       d="m 375.36091,531.01838 c -55.14473,54.28704 -102.61549,56.44151 -138.84476,44.99871 -18.11478,-5.72145 -33.39251,-15.13119 -44.74882,-23.77563 -11.35642,-8.64434 -18.46814,-16.18865 -21.44426,-19.13724 l -10.19462,10.29188 c 2.29356,2.2724 10.56766,11.01158 22.86412,20.37157 12.29653,9.35999 28.94019,19.67599 49.16185,26.06268 40.44243,12.77354 95.30847,8.66975 153.36987,-48.48907 z"
       id="path29-2-7"
       inkscape:connector-curvature="0" />
  </g>
</svg>
