<?xml version="1.0" encoding="UTF-8" standalone="no"?>
<!-- Created with Inkscape (http://www.inkscape.org/) -->

<svg
   xmlns:dc="http://purl.org/dc/elements/1.1/"
   xmlns:cc="http://creativecommons.org/ns#"
   xmlns:rdf="http://www.w3.org/1999/02/22-rdf-syntax-ns#"
   xmlns:svg="http://www.w3.org/2000/svg"
   xmlns="http://www.w3.org/2000/svg"
   xmlns:sodipodi="http://sodipodi.sourceforge.net/DTD/sodipodi-0.dtd"
   xmlns:inkscape="http://www.inkscape.org/namespaces/inkscape"
   width="1000"
   height="1000"
   viewBox="0 0 1000 1000"
   version="1.1"
   id="svg58798"
   inkscape:version="0.92.4 (5da689c313, 2019-01-14)"
   sodipodi:docname="Rato.svg">
  <defs
     id="defs58792" />
  <sodipodi:namedview
     id="base"
     pagecolor="#ffffff"
     bordercolor="#666666"
     borderopacity="1.0"
     inkscape:pageopacity="0.0"
     inkscape:pageshadow="2"
     inkscape:zoom="0.1767767"
     inkscape:cx="583.91348"
     inkscape:cy="455.26384"
     inkscape:document-units="px"
     inkscape:current-layer="layer1"
     showgrid="false"
     units="px"
     inkscape:window-width="1366"
     inkscape:window-height="715"
     inkscape:window-x="-8"
     inkscape:window-y="-8"
     inkscape:window-maximized="1"
     inkscape:snap-global="true" />
  <metadata
     id="metadata58795">
    <rdf:RDF>
      <cc:Work
         rdf:about="">
        <dc:format>image/svg+xml</dc:format>
        <dc:type
           rdf:resource="http://purl.org/dc/dcmitype/StillImage" />
        <dc:title></dc:title>
      </cc:Work>
    </rdf:RDF>
  </metadata>
  <g
     inkscape:label="Camada 1"
     inkscape:groupmode="layer"
     id="layer1"
     transform="translate(0,-32.41665)">
    <path
       style="color:#000000;font-style:normal;font-variant:normal;font-weight:normal;font-stretch:normal;font-size:medium;line-height:normal;font-family:sans-serif;font-variant-ligatures:normal;font-variant-position:normal;font-variant-caps:normal;font-variant-numeric:normal;font-variant-alternates:normal;font-feature-settings:normal;text-indent:0;text-align:start;text-decoration:none;text-decoration-line:none;text-decoration-style:solid;text-decoration-color:#000000;letter-spacing:normal;word-spacing:normal;text-transform:none;writing-mode:lr-tb;direction:ltr;text-orientation:mixed;dominant-baseline:auto;baseline-shift:baseline;text-anchor:start;white-space:normal;shape-padding:0;clip-rule:nonzero;display:inline;overflow:visible;visibility:visible;opacity:1;isolation:auto;mix-blend-mode:normal;color-interpolation:sRGB;color-interpolation-filters:linearRGB;solid-color:#000000;solid-opacity:1;vector-effect:none;fill:#000000;fill-opacity:1;fill-rule:nonzero;stroke:none;stroke-width:38.60507965;stroke-linecap:butt;stroke-linejoin:miter;stroke-miterlimit:4;stroke-dasharray:none;stroke-dashoffset:0;stroke-opacity:1;color-rendering:auto;image-rendering:auto;shape-rendering:auto;text-rendering:auto;enable-background:accumulate"
       d="M 673.1088,32.471534 C 524.36077,32.438275 422.17456,92.167981 363.39627,181.51669 c -58.78844,89.36415 -75.19547,206.05194 -62.34675,321.55767 2.75674,24.78214 6.86274,49.5333 12.22685,73.98721 l 21.69954,8.57135 70.86015,179.19371 c -5.87936,2.80541 -10.82349,5.88109 -16.32979,11.06946 9.03697,15.56365 18.64714,30.51027 28.79078,44.7231 62.23935,87.20719 146.03633,147.95584 241.34657,147.38804 95.26545,-0.56755 178.37529,-61.95239 240.24687,-149.45384 61.87154,-87.50154 103.94971,-202.28899 117.92371,-317.5077 13.974,-115.21876 -0.027,-231.29164 -54.31372,-320.30183 C 909.22156,91.750001 813.0461,31.978743 673.1831,32.471534 Z m 0.0593,38.604454 h 0.0442 0.0378 c 129.19212,-0.475599 209.32066,51.113962 257.29372,129.768942 47.97308,78.65494 62.16865,186.54597 48.94855,295.54892 -13.22012,109.00281 -53.72472,218.69659 -111.12438,299.87372 -57.39962,81.1771 -130.25038,132.66633 -208.95453,133.13524 -78.65919,0.4685 -152.01961,-50.40484 -209.69023,-131.21059 -9.57036,-13.40946 -18.66786,-27.61093 -27.24152,-42.47043 -7.40267,5.68832 -14.11689,7.97506 -16.64624,9.10484 L 334.97595,585.63292 c 7.2986,2.62642 14.56568,5.28441 21.97622,7.7988 -8.06333,-31.10562 -13.99833,-62.8877 -17.52852,-94.62285 C 327.29723,389.79653 343.60118,281.84743 395.64716,202.73242 447.69325,123.61741 534.43901,71.025865 673.16824,71.075988 Z"
       id="path10-9-5"
       inkscape:connector-curvature="0"
       sodipodi:nodetypes="cssccccssssccccccsssscccccsscc" />
    <path
       style="color:#000000;font-style:normal;font-variant:normal;font-weight:normal;font-stretch:normal;font-size:medium;line-height:normal;font-family:sans-serif;font-variant-ligatures:normal;font-variant-position:normal;font-variant-caps:normal;font-variant-numeric:normal;font-variant-alternates:normal;font-feature-settings:normal;text-indent:0;text-align:start;text-decoration:none;text-decoration-line:none;text-decoration-style:solid;text-decoration-color:#000000;letter-spacing:normal;word-spacing:normal;text-transform:none;writing-mode:lr-tb;direction:ltr;text-orientation:mixed;dominant-baseline:auto;baseline-shift:baseline;text-anchor:start;white-space:normal;shape-padding:0;clip-rule:nonzero;display:inline;overflow:visible;visibility:visible;opacity:1;isolation:auto;mix-blend-mode:normal;color-interpolation:sRGB;color-interpolation-filters:linearRGB;solid-color:#000000;solid-opacity:1;vector-effect:none;fill:#000000;fill-opacity:1;fill-rule:nonzero;stroke:none;stroke-width:19.30253983;stroke-linecap:butt;stroke-linejoin:miter;stroke-miterlimit:4;stroke-dasharray:none;stroke-dashoffset:0;stroke-opacity:1;color-rendering:auto;image-rendering:auto;shape-rendering:auto;text-rendering:auto;enable-background:accumulate"
       d="m 652.49228,497.41659 c 0,0 -2.17222,21.48598 -5.77348,44.05395 -1.80063,11.28396 -3.96679,22.83499 -6.29761,31.81301 -1.16544,4.48901 -2.39148,8.34977 -3.48476,11.00795 -1.09327,2.65821 -2.50542,4.0419 -1.49134,3.19683 -2.13597,1.77992 -4.39822,3.27009 -5.58149,8.00306 -0.59166,2.36651 -0.24834,5.88831 1.26246,8.35011 1.51066,2.46181 3.46877,3.66439 4.95397,4.36329 5.94074,2.79562 8.99157,1.72563 13.03084,1.44708 8.07855,-0.55718 16.83309,-2.35517 16.83309,-2.35517 l -3.78744,-18.92981 c 0,0 -4.12698,0.52789 -6.62251,0.93761 1.28042,-3.43256 2.48812,-7.01851 3.56596,-11.17034 2.60477,-10.03315 4.82623,-21.99499 6.68156,-33.62188 3.71069,-23.25375 5.92112,-45.15398 5.92112,-45.15398 z"
       id="path971-8"
       inkscape:connector-curvature="0" />
    <path
       style="color:#000000;font-style:normal;font-variant:normal;font-weight:normal;font-stretch:normal;font-size:medium;line-height:normal;font-family:sans-serif;font-variant-ligatures:normal;font-variant-position:normal;font-variant-caps:normal;font-variant-numeric:normal;font-variant-alternates:normal;font-feature-settings:normal;text-indent:0;text-align:start;text-decoration:none;text-decoration-line:none;text-decoration-style:solid;text-decoration-color:#000000;letter-spacing:normal;word-spacing:normal;text-transform:none;writing-mode:lr-tb;direction:ltr;text-orientation:mixed;dominant-baseline:auto;baseline-shift:baseline;text-anchor:start;white-space:normal;shape-padding:0;clip-rule:nonzero;display:inline;overflow:visible;visibility:visible;opacity:1;isolation:auto;mix-blend-mode:normal;color-interpolation:sRGB;color-interpolation-filters:linearRGB;solid-color:#000000;solid-opacity:1;vector-effect:none;fill:#000000;fill-opacity:1;fill-rule:nonzero;stroke:none;stroke-width:21.04351997;stroke-linecap:butt;stroke-linejoin:miter;stroke-miterlimit:4;stroke-dasharray:none;stroke-dashoffset:0;stroke-opacity:1;color-rendering:auto;image-rendering:auto;shape-rendering:auto;text-rendering:auto;enable-background:accumulate"
       d="m 275.81535,572.87013 -0.78259,0.0303 -0.77521,0.14022 c 0,0 -19.02597,3.46564 -39.12952,6.62988 -10.05176,1.58211 -20.3803,3.08976 -28.57193,4.03106 -4.09579,0.47065 -7.67385,0.79683 -10.26964,0.93028 -2.59578,0.13344 -4.9043,-0.33681 -3.08606,0.14025 l -0.5168,-0.14025 -0.53158,-0.0813 c 0,0 -48.26988,-6.79745 -71.0459,34.8548 l -0.53895,0.98129 -0.32486,1.07792 c 0,0 -1.24519,4.21413 -5.3674,8.91118 -4.12218,4.69707 -10.11641,9.26841 -22.045407,9.2508 h -0.620167 l -0.6054,0.0737 c 0,0 -12.486379,1.39634 -24.599909,9.95217 -12.113534,8.55578 -24.116001,25.40714 -23.905918,51.63617 l 0.03705,4.71769 0.664463,0.58327 c -0.871474,2.86828 -4.645666,10.68056 -17.615664,24.15693 l -0.221489,0.22906 -0.214107,0.24342 c 0,0 -22.4045914,28.09488 -7.59703,61.16018 -0.106552,-0.0994 0.0812,0.12551 -3.373997,3.94249 l 0.287934,-0.30996 c 0,0 -9.4976634,9.88671 -13.3409486,26.48993 -3.72549,16.09435 -2.02850889,39.15733 14.2047496,66.02552 0.236515,1.61296 4.417572,30.13229 8.896428,58.46538 l 0.162426,1.06314 0.383912,1.00409 c 0,0 6.942718,18.99898 3.824355,40.1262 l -0.0443,0.33945 -0.02953,0.33227 c -0.413742,5.02894 -0.739303,7.05463 -2.687385,10.45414 -1.948083,3.3995 -6.188746,8.4638 -14.839683,16.3679 l 14.19724,15.534 c 9.347479,-8.5407 15.117924,-14.8396 18.900293,-21.4401 3.69129,-6.4416 4.819883,-12.88042 5.330471,-18.73781 3.678549,-25.36637 -3.36486,-45.44496 -4.414986,-48.32864 v -0.008 C 41.031367,914.7456 36.505164,883.84639 36.505164,883.84639 l -0.324847,-2.21489 -1.203418,-1.89004 C 19.747544,855.71092 19.589813,838.63987 22.226585,827.24886 24.863358,815.85783 30.082019,810.7554 30.082019,810.7554 l 0.147661,-0.15498 0.14766,-0.15499 c 5.651547,-6.24333 8.464279,-9.70797 9.546125,-15.45987 0.476318,-2.5324 -0.112041,-5.98798 -1.734987,-8.76354 l 0.02231,0.0151 c -12.618532,-23.7491 3.565956,-41.37393 3.565956,-41.37393 l -0.435595,0.47989 c 14.82545,-15.40423 20.959313,-25.60695 23.152854,-34.12388 1.096773,-4.25847 1.050051,-8.23203 0.07382,-11.45093 -0.06441,-0.21244 -0.179628,-0.33454 -0.251034,-0.53896 0.371279,-18.73356 7.52133,-27.23037 14.824917,-32.3889 7.57587,-5.35083 14.876598,-6.23857 14.876598,-6.23857 l -1.225567,0.0737 c 17.971013,0.0265 30.739443,-8.25598 37.903953,-16.41962 5.82261,-6.63466 8.06489,-12.44335 8.9038,-14.81754 16.41507,-29.92246 49.31056,-24.09049 49.31056,-24.09049 l -1.04851,-0.22182 c 4.09955,1.07591 6.17527,0.69553 9.5092,0.52418 3.33396,-0.17124 7.23275,-0.54755 11.59121,-1.04836 8.71687,-1.00168 19.22414,-2.53457 29.43573,-4.1418 19.83741,-3.12238 37.44575,-6.33422 38.50195,-6.52654 17.72687,-0.47625 32.28478,3.78879 32.32984,3.80221 7e-5,4e-5 0.0295,0.008 0.0295,0.008 39.0123,16.77022 91.28251,31.33312 91.28251,31.33312 l 0.36175,0.10321 0.36176,0.0737 c 13.61022,2.77558 25.75902,7.75947 25.75902,7.75947 l 0.5168,0.21395 0.5316,0.15498 c 25.60168,7.55936 33.86547,19.18065 37.39448,28.5941 3.2944,8.7875 2.07133,15.01281 1.89004,15.8733 -4.0797,10.77639 -19.93645,27.65036 -35.17964,40.22953 -15.45367,12.7529 -29.63506,21.86824 -29.63506,21.86824 l 2.51756,-1.18126 c -56.70329,17.89033 -63.53746,90.0348 -63.53746,90.0348 l -0.14028,1.18125 0.14028,1.18864 c 4.15867,36.75283 -5.85325,58.73078 -16.36795,72.24933 -10.51468,13.51854 -21.03396,17.94053 -21.03396,17.94053 l -1.65377,0.70876 -1.32155,1.22557 c -10.66562,9.86603 -15.49205,23.45303 -21.18899,37.0549 -5.69696,13.60188 -11.84207,27.43752 -21.63197,38.65692 l 15.85851,13.8356 c 12.49529,-14.3198 19.4086,-30.57677 25.18318,-44.36393 5.69856,-13.60575 10.69771,-24.48883 15.86589,-29.43573 3.57878,-1.77806 14.95151,-7.8108 26.53425,-22.70251 13.29235,-17.08972 24.74134,-45.06029 20.71649,-85.41306 0.10429,-0.75562 8.29007,-59.27041 48.9119,-72.08688 l 1.33629,-0.42821 1.18128,-0.75306 c 0,0 15.12484,-9.70851 31.65799,-23.35222 16.53314,-13.64367 34.99661,-30.39443 41.90551,-49.93809 l 0.19202,-0.55374 0.13305,-0.56848 c 0,0 3.08339,-13.425 -2.62835,-28.66052 -5.71171,-15.23552 -20.69927,-32.40008 -51.14151,-41.38869 l 1.041,0.36932 c 0,0 -13.58179,-5.6671 -29.59817,-8.93337 l 0.71613,0.17727 c 0,0 -52.9318,-14.83529 -89.70256,-30.7868 l -0.55371,-0.24343 -0.58324,-0.17729 c 0,0 -17.73106,-5.42541 -39.53558,-4.73243 z"
       id="path1627"
       inkscape:connector-curvature="0" />
    <path
       style="color:#000000;font-style:normal;font-variant:normal;font-weight:normal;font-stretch:normal;font-size:medium;line-height:normal;font-family:sans-serif;font-variant-ligatures:normal;font-variant-position:normal;font-variant-caps:normal;font-variant-numeric:normal;font-variant-alternates:normal;font-feature-settings:normal;text-indent:0;text-align:start;text-decoration:none;text-decoration-line:none;text-decoration-style:solid;text-decoration-color:#000000;letter-spacing:normal;word-spacing:normal;text-transform:none;writing-mode:lr-tb;direction:ltr;text-orientation:mixed;dominant-baseline:auto;baseline-shift:baseline;text-anchor:start;white-space:normal;shape-padding:0;clip-rule:nonzero;display:inline;overflow:visible;visibility:visible;opacity:1;isolation:auto;mix-blend-mode:normal;color-interpolation:sRGB;color-interpolation-filters:linearRGB;solid-color:#000000;solid-opacity:1;vector-effect:none;fill:#000000;fill-opacity:1;fill-rule:nonzero;stroke:none;stroke-width:21.04351997;stroke-linecap:butt;stroke-linejoin:miter;stroke-miterlimit:4;stroke-dasharray:none;stroke-dashoffset:0;stroke-opacity:1;color-rendering:auto;image-rendering:auto;shape-rendering:auto;text-rendering:auto;enable-background:accumulate"
       d="m 219.00372,626.84667 c -25.71963,-0.32054 -49.08169,3.4626 -49.08169,3.4626 l 3.3297,20.77555 c 0,0 22.00902,-3.48936 45.4936,-3.19679 11.74228,0.14629 23.78486,1.30446 32.96476,3.94986 9.17989,2.6454 14.57993,6.52658 16.49347,10.46161 l 0.037,0.0665 0.0295,0.0665 c 0,0 8.69042,17.26245 17.0324,38.14758 8.32555,20.84398 15.55042,46.33651 14.66988,56.59751 -0.02,0.1667 -1.33755,11.15832 -4.82106,21.52861 -1.7549,5.22431 -4.13206,10.10673 -6.24595,12.7208 -2.1139,2.61402 -2.54776,2.63829 -3.66193,2.53233 l -11.57643,-1.10006 0.0517,11.62072 c 0,0 0.0352,22.67949 -3.94987,43.27872 -1.9926,10.29965 -5.2221,19.97316 -8.62325,25.03554 -1.70058,2.53116 -3.24803,3.76208 -4.26735,4.2304 -1.0193,0.46827 -1.71349,0.6942 -4.03106,-0.0151 l -13.59944,9.95992 0.13291,1.80128 c 0,0 2.56258,16.64451 0.45035,31.54723 -1.0561,7.45137 -3.40849,14.05917 -6.34931,17.63045 -2.94083,3.57127 -5.61578,5.3627 -13.43693,4.46668 l -6.28288,-0.72354 -3.00484,4.36332 c -0.22982,0.14137 -0.82575,0.57268 -2.99009,0.5168 -4.47756,-0.11567 -16.10834,-3.31484 -36.05083,-21.02658 l 1.41013,1.52826 c 0,0 0.0159,-1.56991 0.0665,0.76783 l -21.03396,0.45036 c 0.16728,7.73275 4.17136,11.45093 4.17136,11.45093 l 0.62756,0.84163 0.78257,0.69397 c 21.94468,19.48999 37.37232,26.01498 49.48038,26.32756 6.05403,0.15611 11.08343,-1.48901 14.47792,-3.52903 0.51012,-0.30656 0.41019,-0.44585 0.87119,-0.78999 11.32391,-0.10055 21.18652,-4.70414 27.16178,-11.96033 6.84224,-8.30903 9.57255,-18.44866 10.93412,-28.05515 1.35926,-9.5902 1.22695,-19.04321 0.76043,-26.1134 1.41325,-0.35873 2.93902,-0.41479 4.23781,-1.01147 5.63924,-2.59078 9.78156,-6.89788 12.94966,-11.61331 6.33617,-9.43096 9.55017,-21.08548 11.81267,-32.78021 3.24256,-16.76056 3.86946,-30.58889 4.07538,-38.9154 4.35129,-1.93366 8.10776,-4.89522 10.76431,-8.18028 4.74524,-5.86797 7.62451,-12.66955 9.83404,-19.2473 4.41909,-13.15551 5.81776,-26.01005 5.81776,-26.01005 l 0.0147,-0.12551 0.0147,-0.12549 c 1.77609,-19.85185 -7.37421,-44.52104 -16.10216,-66.37249 -8.70546,-21.79512 -17.68728,-39.6131 -17.73379,-39.70541 -5.76455,-11.8197 -17.43905,-17.94982 -29.57602,-21.44737 -12.14875,-3.50097 -25.67167,-4.61654 -38.53149,-4.77678 z"
       id="path1629"
       inkscape:connector-curvature="0"
       sodipodi:nodetypes="cccsscccsccccccccccccscccccccccccccccsscccsccscccscccc" />
    <path
       style="color:#000000;font-style:normal;font-variant:normal;font-weight:normal;font-stretch:normal;font-size:medium;line-height:normal;font-family:sans-serif;font-variant-ligatures:normal;font-variant-position:normal;font-variant-caps:normal;font-variant-numeric:normal;font-variant-alternates:normal;font-feature-settings:normal;text-indent:0;text-align:start;text-decoration:none;text-decoration-line:none;text-decoration-style:solid;text-decoration-color:#000000;letter-spacing:normal;word-spacing:normal;text-transform:none;writing-mode:lr-tb;direction:ltr;text-orientation:mixed;dominant-baseline:auto;baseline-shift:baseline;text-anchor:start;white-space:normal;shape-padding:0;clip-rule:nonzero;display:inline;overflow:visible;visibility:visible;opacity:1;isolation:auto;mix-blend-mode:normal;color-interpolation:sRGB;color-interpolation-filters:linearRGB;solid-color:#000000;solid-opacity:1;vector-effect:none;fill:#000000;fill-opacity:1;fill-rule:nonzero;stroke:none;stroke-width:21.04351997;stroke-linecap:butt;stroke-linejoin:miter;stroke-miterlimit:4;stroke-dasharray:none;stroke-dashoffset:0;stroke-opacity:1;color-rendering:auto;image-rendering:auto;shape-rendering:auto;text-rendering:auto;enable-background:accumulate"
       d="m 93.619482,893.87975 -12.595271,16.85526 c 0,0 10.068738,7.56308 22.451479,14.05708 6.19137,3.24695 12.99242,6.30151 20.07418,8.04736 7.08175,1.74591 15.09906,2.5761 22.68034,-1.85309 l -10.61664,-18.16938 c -0.0988,0.0578 -2.62079,0.68056 -7.02855,-0.40607 -4.40774,-1.08663 -10.04642,-3.48755 -15.33433,-6.2607 -10.57583,-5.54638 -19.631208,-12.27046 -19.631208,-12.27046 z"
       id="path1631"
       inkscape:connector-curvature="0" />
    <path
       style="color:#000000;font-style:normal;font-variant:normal;font-weight:normal;font-stretch:normal;font-size:medium;line-height:normal;font-family:sans-serif;font-variant-ligatures:normal;font-variant-position:normal;font-variant-caps:normal;font-variant-numeric:normal;font-variant-alternates:normal;font-feature-settings:normal;text-indent:0;text-align:start;text-decoration:none;text-decoration-line:none;text-decoration-style:solid;text-decoration-color:#000000;letter-spacing:normal;word-spacing:normal;text-transform:none;writing-mode:lr-tb;direction:ltr;text-orientation:mixed;dominant-baseline:auto;baseline-shift:baseline;text-anchor:start;white-space:normal;shape-padding:0;clip-rule:nonzero;display:inline;overflow:visible;visibility:visible;opacity:1;isolation:auto;mix-blend-mode:normal;color-interpolation:sRGB;color-interpolation-filters:linearRGB;solid-color:#000000;solid-opacity:1;vector-effect:none;fill:#000000;fill-opacity:1;fill-rule:nonzero;stroke:none;stroke-width:21.04351997;stroke-linecap:butt;stroke-linejoin:miter;stroke-miterlimit:4;stroke-dasharray:none;stroke-dashoffset:0;stroke-opacity:1;color-rendering:auto;image-rendering:auto;shape-rendering:auto;text-rendering:auto;enable-background:accumulate"
       d="m 99.045934,782.95866 -9.89312,18.57547 c 0,0 23.666566,12.59675 51.348266,25.71473 27.68168,13.11797 57.81773,26.89288 77.72743,29.37664 l 1.27726,0.16254 1.26985,-0.15498 c 0,0 4.1358,-0.42696 8.54206,2.26657 4.40624,2.69348 10.11667,8.21024 9.93002,28.06987 l 21.04135,0.19922 c 0.23195,-24.6813 -9.17624,-39.605 -19.99296,-46.21712 -10.81672,-6.61215 -22.01589,-5.21236 -22.01589,-5.21236 l 2.55449,0.008 c -11.5723,-1.44367 -44.15608,-14.63665 -71.31908,-27.5088 -27.16299,-12.87217 -50.469676,-25.27916 -50.469676,-25.27916 z"
       id="path1633"
       inkscape:connector-curvature="0" />
    <path
       style="color:#000000;font-style:normal;font-variant:normal;font-weight:normal;font-stretch:normal;font-size:medium;line-height:normal;font-family:sans-serif;font-variant-ligatures:normal;font-variant-position:normal;font-variant-caps:normal;font-variant-numeric:normal;font-variant-alternates:normal;font-feature-settings:normal;text-indent:0;text-align:start;text-decoration:none;text-decoration-line:none;text-decoration-style:solid;text-decoration-color:#000000;letter-spacing:normal;word-spacing:normal;text-transform:none;writing-mode:lr-tb;direction:ltr;text-orientation:mixed;dominant-baseline:auto;baseline-shift:baseline;text-anchor:start;white-space:normal;shape-padding:0;clip-rule:nonzero;display:inline;overflow:visible;visibility:visible;opacity:1;isolation:auto;mix-blend-mode:normal;color-interpolation:sRGB;color-interpolation-filters:linearRGB;solid-color:#000000;solid-opacity:1;vector-effect:none;fill:#000000;fill-opacity:1;fill-rule:nonzero;stroke:none;stroke-width:21.04351997;stroke-linecap:butt;stroke-linejoin:miter;stroke-miterlimit:4;stroke-dasharray:none;stroke-dashoffset:0;stroke-opacity:1;color-rendering:auto;image-rendering:auto;shape-rendering:auto;text-rendering:auto;enable-background:accumulate"
       d="m 147.30812,711.23353 -4.68816,20.51717 c 0,0 19.29785,4.41091 40.38462,8.80044 10.54338,2.19477 21.53761,4.38576 30.89017,6.03187 9.35253,1.64606 16.21079,2.86388 22.07493,2.76118 h 0.25104 l 0.25104,-0.0151 c 0,0 6.44264,-0.64817 14.97996,5.3083 8.53731,5.9565 19.13977,18.79256 22.31858,50.83146 l 20.94536,-2.07459 c -3.59986,-36.28291 -17.2255,-56.25254 -31.2224,-66.01813 -13.99688,-9.76559 -28.39472,-9.05146 -28.39472,-9.05146 l 0.50203,-0.0227 c -1.1039,0.0189 -9.07567,-0.86271 -18.05863,-2.44377 -8.98297,-1.58104 -19.82791,-3.73725 -30.24786,-5.90633 -20.83989,-4.33814 -39.98593,-8.71924 -39.98593,-8.71924 z"
       id="path1635"
       inkscape:connector-curvature="0" />
    <path
       style="color:#000000;font-style:normal;font-variant:normal;font-weight:normal;font-stretch:normal;font-size:medium;line-height:normal;font-family:sans-serif;font-variant-ligatures:normal;font-variant-position:normal;font-variant-caps:normal;font-variant-numeric:normal;font-variant-alternates:normal;font-feature-settings:normal;text-indent:0;text-align:start;text-decoration:none;text-decoration-line:none;text-decoration-style:solid;text-decoration-color:#000000;letter-spacing:normal;word-spacing:normal;text-transform:none;writing-mode:lr-tb;direction:ltr;text-orientation:mixed;dominant-baseline:auto;baseline-shift:baseline;text-anchor:start;white-space:normal;shape-padding:0;clip-rule:nonzero;display:inline;overflow:visible;visibility:visible;opacity:1;isolation:auto;mix-blend-mode:normal;color-interpolation:sRGB;color-interpolation-filters:linearRGB;solid-color:#000000;solid-opacity:1;vector-effect:none;fill:#000000;fill-opacity:1;fill-rule:nonzero;stroke:none;stroke-width:21.04351997;stroke-linecap:butt;stroke-linejoin:miter;stroke-miterlimit:4;stroke-dasharray:none;stroke-dashoffset:0;stroke-opacity:1;color-rendering:auto;image-rendering:auto;shape-rendering:auto;text-rendering:auto;enable-background:accumulate"
       d="m 470.66554,637.28614 -15.68873,14.02757 c 0,0 6.04186,7.59856 6.50439,15.09071 0.23135,3.74608 -0.37688,7.2142 -4.18615,11.7167 -3.77102,4.45742 -11.37794,9.88202 -25.27174,14.67725 -1.21437,0.31035 -33.86602,8.40391 -72.12381,-12.78721 l -0.67922,-0.37649 -0.71615,-0.2733 c 0,0 -52.45179,-19.9357 -75.29109,-25.44896 l -4.9318,20.45811 c 18.30583,4.41888 72.54404,24.58545 72.72183,24.65157 45.28754,24.44413 86.71249,14.07924 86.71249,14.07924 l 0.3839,-0.096 0.38391,-0.1327 c 16.54463,-5.64211 27.72729,-12.70844 34.87693,-21.15947 7.14968,-8.451 9.63699,-18.31911 9.12532,-26.60806 -1.02342,-16.57794 -11.82008,-27.81889 -11.82008,-27.81889 z"
       id="path1637"
       inkscape:connector-curvature="0" />
    <path
       style="color:#000000;font-style:normal;font-variant:normal;font-weight:normal;font-stretch:normal;font-size:medium;line-height:normal;font-family:sans-serif;font-variant-ligatures:normal;font-variant-position:normal;font-variant-caps:normal;font-variant-numeric:normal;font-variant-alternates:normal;font-feature-settings:normal;text-indent:0;text-align:start;text-decoration:none;text-decoration-line:none;text-decoration-style:solid;text-decoration-color:#000000;letter-spacing:normal;word-spacing:normal;text-transform:none;writing-mode:lr-tb;direction:ltr;text-orientation:mixed;dominant-baseline:auto;baseline-shift:baseline;text-anchor:start;white-space:normal;shape-padding:0;clip-rule:nonzero;display:inline;overflow:visible;visibility:visible;opacity:1;isolation:auto;mix-blend-mode:normal;color-interpolation:sRGB;color-interpolation-filters:linearRGB;solid-color:#000000;solid-opacity:1;vector-effect:none;fill:#000000;fill-opacity:1;fill-rule:nonzero;stroke:none;stroke-width:21.04351997;stroke-linecap:butt;stroke-linejoin:miter;stroke-miterlimit:4;stroke-dasharray:none;stroke-dashoffset:0;stroke-opacity:1;color-rendering:auto;image-rendering:auto;shape-rendering:auto;text-rendering:auto;enable-background:accumulate"
       d="m 333.85991,676.59285 c -18.89438,17.57636 -34.91385,13.10471 -34.91385,13.10471 l -4.48882,20.55406 c 0,0 28.4662,5.25356 53.73293,-18.2506 z"
       id="path1639"
       inkscape:connector-curvature="0" />
    <path
       style="color:#000000;font-style:normal;font-variant:normal;font-weight:normal;font-stretch:normal;font-size:medium;line-height:normal;font-family:sans-serif;font-variant-ligatures:normal;font-variant-position:normal;font-variant-caps:normal;font-variant-numeric:normal;font-variant-alternates:normal;font-feature-settings:normal;text-indent:0;text-align:start;text-decoration:none;text-decoration-line:none;text-decoration-style:solid;text-decoration-color:#000000;letter-spacing:normal;word-spacing:normal;text-transform:none;writing-mode:lr-tb;direction:ltr;text-orientation:mixed;dominant-baseline:auto;baseline-shift:baseline;text-anchor:start;white-space:normal;shape-padding:0;clip-rule:nonzero;display:inline;overflow:visible;visibility:visible;opacity:1;isolation:auto;mix-blend-mode:normal;color-interpolation:sRGB;color-interpolation-filters:linearRGB;solid-color:#000000;solid-opacity:1;vector-effect:none;fill:#000000;fill-opacity:1;fill-rule:nonzero;stroke:none;stroke-width:21.04351997;stroke-linecap:butt;stroke-linejoin:miter;stroke-miterlimit:4;stroke-dasharray:none;stroke-dashoffset:0;stroke-opacity:1;color-rendering:auto;image-rendering:auto;shape-rendering:auto;text-rendering:auto;enable-background:accumulate"
       d="m 418.29105,626.54401 c -3.13121,0.0941 -6.1192,0.50689 -8.96286,1.22552 -11.37473,2.87463 -19.71006,11.51444 -22.37028,21.381 -5.32038,19.73304 8.82853,42.52294 34.9877,48.07758 l 5.67745,1.20341 4.05324,-4.15654 c 0,0 6.24278,-6.39589 12.35166,-15.50418 6.10884,-9.10828 12.90285,-21.11862 12.48449,-35.15011 l -0.19202,-6.50435 -5.90633,-2.73169 c -12.03211,-5.56739 -22.72942,-8.1232 -32.12313,-7.84064 z m 6.62988,21.52859 c 2.43311,0.38845 5.94172,1.91766 8.97765,2.91625 -1.49507,5.22415 -3.93002,10.95367 -7.35339,16.05788 -2.92052,4.35447 -3.93089,5.17122 -5.8473,7.37554 -11.46628,-4.86574 -14.87756,-14.3956 -13.42216,-19.79365 0.84374,-3.12938 2.32913,-5.22577 7.21311,-6.46003 2.44202,-0.61713 5.91794,-0.81665 10.43209,-0.096 z"
       id="path1641"
       inkscape:connector-curvature="0" />
    <path
       style="color:#000000;font-style:normal;font-variant:normal;font-weight:normal;font-stretch:normal;font-size:medium;line-height:normal;font-family:sans-serif;font-variant-ligatures:normal;font-variant-position:normal;font-variant-caps:normal;font-variant-numeric:normal;font-variant-alternates:normal;font-feature-settings:normal;text-indent:0;text-align:start;text-decoration:none;text-decoration-line:none;text-decoration-style:solid;text-decoration-color:#000000;letter-spacing:normal;word-spacing:normal;text-transform:none;writing-mode:lr-tb;direction:ltr;text-orientation:mixed;dominant-baseline:auto;baseline-shift:baseline;text-anchor:start;white-space:normal;shape-padding:0;clip-rule:nonzero;display:inline;overflow:visible;visibility:visible;opacity:1;isolation:auto;mix-blend-mode:normal;color-interpolation:sRGB;color-interpolation-filters:linearRGB;solid-color:#000000;solid-opacity:1;vector-effect:none;fill:#000000;fill-opacity:1;fill-rule:nonzero;stroke:none;stroke-width:21.04351997;stroke-linecap:butt;stroke-linejoin:miter;stroke-miterlimit:4;stroke-dasharray:none;stroke-dashoffset:0;stroke-opacity:1;color-rendering:auto;image-rendering:auto;shape-rendering:auto;text-rendering:auto;enable-background:accumulate"
       d="m 116.15955,891.84944 -15.52628,14.21217 c 0,0 28.59459,32.68974 66.79334,32.11571 1.29358,2.60768 2.68919,5.4285 4.98346,8.2615 l 16.35318,-13.24498 c -1.66664,-2.05799 -4.69553,-9.16222 -4.69553,-9.16222 l -2.8941,-8.13597 -8.54205,1.24771 c -27.46463,4.00832 -56.47202,-25.29392 -56.47202,-25.29392 z"
       id="path1643"
       inkscape:connector-curvature="0" />
    <path
       style="color:#000000;font-style:normal;font-variant:normal;font-weight:normal;font-stretch:normal;font-size:medium;line-height:normal;font-family:sans-serif;font-variant-ligatures:normal;font-variant-position:normal;font-variant-caps:normal;font-variant-numeric:normal;font-variant-alternates:normal;font-feature-settings:normal;text-indent:0;text-align:start;text-decoration:none;text-decoration-line:none;text-decoration-style:solid;text-decoration-color:#000000;letter-spacing:normal;word-spacing:normal;text-transform:none;writing-mode:lr-tb;direction:ltr;text-orientation:mixed;dominant-baseline:auto;baseline-shift:baseline;text-anchor:start;white-space:normal;shape-padding:0;clip-rule:nonzero;display:inline;overflow:visible;visibility:visible;opacity:1;isolation:auto;mix-blend-mode:normal;color-interpolation:sRGB;color-interpolation-filters:linearRGB;solid-color:#000000;solid-opacity:1;vector-effect:none;fill:#000000;fill-opacity:1;fill-rule:nonzero;stroke:none;stroke-width:21.04351997;stroke-linecap:butt;stroke-linejoin:miter;stroke-miterlimit:4;stroke-dasharray:none;stroke-dashoffset:0;stroke-opacity:1;color-rendering:auto;image-rendering:auto;shape-rendering:auto;text-rendering:auto;enable-background:accumulate"
       d="m 330.72218,702.08609 c -5.10209,34.69599 29.64982,56.11025 29.64982,56.11025 l 11.65027,-17.52708 c 0,0 -23.19032,-17.08976 -20.48025,-35.51923 z"
       id="path1645"
       inkscape:connector-curvature="0" />
    <path
       style="color:#000000;font-style:normal;font-variant:normal;font-weight:normal;font-stretch:normal;font-size:medium;line-height:normal;font-family:sans-serif;font-variant-ligatures:normal;font-variant-position:normal;font-variant-caps:normal;font-variant-numeric:normal;font-variant-alternates:normal;font-feature-settings:normal;text-indent:0;text-align:start;text-decoration:none;text-decoration-line:none;text-decoration-style:solid;text-decoration-color:#000000;letter-spacing:normal;word-spacing:normal;text-transform:none;writing-mode:lr-tb;direction:ltr;text-orientation:mixed;dominant-baseline:auto;baseline-shift:baseline;text-anchor:start;white-space:normal;shape-padding:0;clip-rule:nonzero;display:inline;overflow:visible;visibility:visible;opacity:1;isolation:auto;mix-blend-mode:normal;color-interpolation:sRGB;color-interpolation-filters:linearRGB;solid-color:#000000;solid-opacity:1;vector-effect:none;fill:#000000;fill-opacity:1;fill-rule:nonzero;stroke:none;stroke-width:21.04351997;stroke-linecap:butt;stroke-linejoin:miter;stroke-miterlimit:4;stroke-dasharray:none;stroke-dashoffset:0;stroke-opacity:1;color-rendering:auto;image-rendering:auto;shape-rendering:auto;text-rendering:auto;enable-background:accumulate"
       d="m 264.23892,922.31142 -18.74525,9.56828 c 13.41403,26.28093 45.79629,28.32087 45.79629,28.32087 L 293.47531,939.27 c 0,0 -22.46683,-3.69559 -29.23639,-16.95858 z"
       id="path1647"
       inkscape:connector-curvature="0" />
    <path
       style="color:#000000;font-style:normal;font-variant:normal;font-weight:normal;font-stretch:normal;font-size:medium;line-height:normal;font-family:sans-serif;font-variant-ligatures:normal;font-variant-position:normal;font-variant-caps:normal;font-variant-numeric:normal;font-variant-alternates:normal;font-feature-settings:normal;text-indent:0;text-align:start;text-decoration:none;text-decoration-line:none;text-decoration-style:solid;text-decoration-color:#000000;letter-spacing:normal;word-spacing:normal;text-transform:none;writing-mode:lr-tb;direction:ltr;text-orientation:mixed;dominant-baseline:auto;baseline-shift:baseline;text-anchor:start;white-space:normal;shape-padding:0;clip-rule:nonzero;display:inline;overflow:visible;visibility:visible;opacity:1;isolation:auto;mix-blend-mode:normal;color-interpolation:sRGB;color-interpolation-filters:linearRGB;solid-color:#000000;solid-opacity:1;vector-effect:none;fill:#000000;fill-opacity:1;fill-rule:nonzero;stroke:none;stroke-width:5.03331709;stroke-linecap:butt;stroke-linejoin:miter;stroke-miterlimit:4;stroke-dasharray:none;stroke-dashoffset:0;stroke-opacity:1;color-rendering:auto;image-rendering:auto;shape-rendering:auto;text-rendering:auto;enable-background:accumulate"
       d="m 483.51921,683.59927 c 0,0 -7.68732,12.87086 -13.47384,28.63098 -2.89324,7.88002 -5.32711,16.49959 -6.07613,24.74019 -0.74902,8.24056 0.17237,16.21214 4.41499,22.481 l 4.16396,-2.82029 c -3.30724,-4.88662 -4.25379,-11.64314 -3.56596,-19.21035 0.68781,-7.56728 2.99067,-15.83621 5.78822,-23.45557 1.46522,-3.99068 2.97087,-6.82489 4.52575,-10.26967 -0.4352,2.91231 -1.05906,5.06547 -1.28465,8.35012 -1.07188,15.60676 0.92222,34.80468 13.91681,48.24004 l 3.61763,-3.49953 c -11.49048,-11.88017 -13.52937,-29.50302 -12.50667,-44.39354 1.0227,-14.89049 5.02041,-26.69666 5.02041,-26.69666 z"
       id="path60719"
       inkscape:connector-curvature="0" />
    <path
       style="color:#000000;font-style:normal;font-variant:normal;font-weight:normal;font-stretch:normal;font-size:medium;line-height:normal;font-family:sans-serif;font-variant-ligatures:normal;font-variant-position:normal;font-variant-caps:normal;font-variant-numeric:normal;font-variant-alternates:normal;font-feature-settings:normal;text-indent:0;text-align:start;text-decoration:none;text-decoration-line:none;text-decoration-style:solid;text-decoration-color:#000000;letter-spacing:normal;word-spacing:normal;text-transform:none;writing-mode:lr-tb;direction:ltr;text-orientation:mixed;dominant-baseline:auto;baseline-shift:baseline;text-anchor:start;white-space:normal;shape-padding:0;clip-rule:nonzero;display:inline;overflow:visible;visibility:visible;opacity:1;isolation:auto;mix-blend-mode:normal;color-interpolation:sRGB;color-interpolation-filters:linearRGB;solid-color:#000000;solid-opacity:1;vector-effect:none;fill:#000000;fill-opacity:1;fill-rule:nonzero;stroke:none;stroke-width:5.03331709;stroke-linecap:butt;stroke-linejoin:miter;stroke-miterlimit:4;stroke-dasharray:none;stroke-dashoffset:0;stroke-opacity:1;color-rendering:auto;image-rendering:auto;shape-rendering:auto;text-rendering:auto;enable-background:accumulate"
       d="m 468.47284,599.95807 c -1.72844,13.14367 2.18812,31.69045 6.40095,47.23598 4.21288,15.54549 8.83,27.98865 8.83,27.98865 l 4.82105,-1.41011 c 0,0 -2.28743,-10.64141 -1.86048,-24.02405 0.42693,-13.38269 3.63287,-29.22213 14.09399,-39.68325 l -3.55859,-3.55858 c -11.87154,11.87158 -15.1152,29.04381 -15.56316,43.08676 -0.034,1.06647 0.12888,1.68693 0.12548,2.71693 -0.94872,-3.12207 -1.0623,-2.85863 -2.03031,-6.43053 -4.14714,-15.30302 -7.77978,-33.7691 -6.26808,-45.26473 z"
       id="path60719-5"
       inkscape:connector-curvature="0" />
    <path
       inkscape:connector-curvature="0"
       id="path59-17-20"
       d="m 534.20982,256.49691 c -38.08382,-0.6989 -74.34369,27.05509 -120.2536,81.9919 l 14.84033,12.40161 c 44.70596,-53.49605 76.9156,-75.57534 105.059,-75.05896 28.14325,0.51651 58.41568,23.92044 98.7487,71.22334 l 14.71653,-12.54628 C 606.00562,286.05362 572.2932,257.1958 534.20982,256.49691 Z"
       style="color:#000000;font-style:normal;font-variant:normal;font-weight:normal;font-stretch:normal;font-size:medium;line-height:normal;font-family:sans-serif;font-variant-ligatures:normal;font-variant-position:normal;font-variant-caps:normal;font-variant-numeric:normal;font-variant-alternates:normal;font-feature-settings:normal;text-indent:0;text-align:start;text-decoration:none;text-decoration-line:none;text-decoration-style:solid;text-decoration-color:#000000;letter-spacing:normal;word-spacing:normal;text-transform:none;writing-mode:lr-tb;direction:ltr;text-orientation:mixed;dominant-baseline:auto;baseline-shift:baseline;text-anchor:start;white-space:normal;shape-padding:0;clip-rule:nonzero;display:inline;overflow:visible;visibility:visible;opacity:1;isolation:auto;mix-blend-mode:normal;color-interpolation:sRGB;color-interpolation-filters:linearRGB;solid-color:#000000;solid-opacity:1;vector-effect:none;fill:#000000;fill-opacity:1;fill-rule:nonzero;stroke:none;stroke-width:19.33767128;stroke-linecap:butt;stroke-linejoin:miter;stroke-miterlimit:4;stroke-dasharray:none;stroke-dashoffset:0;stroke-opacity:1;color-rendering:auto;image-rendering:auto;shape-rendering:auto;text-rendering:auto;enable-background:accumulate" />
    <path
       inkscape:connector-curvature="0"
       id="path59-1-8-1"
       d="m 532.14274,391.80378 c -26.06914,-0.9376 -53.33202,9.54608 -85.34892,33.1947 l 11.48915,15.55507 c 30.02538,-22.17762 52.69999,-30.1632 73.16598,-29.42711 20.4658,0.73607 40.19699,10.407 63.76467,27.31294 l 11.27062,-15.71148 c -24.87063,-17.8407 -48.27228,-29.98663 -74.3415,-30.92412 z"
       style="color:#000000;font-style:normal;font-variant:normal;font-weight:normal;font-stretch:normal;font-size:medium;line-height:normal;font-family:sans-serif;font-variant-ligatures:normal;font-variant-position:normal;font-variant-caps:normal;font-variant-numeric:normal;font-variant-alternates:normal;font-feature-settings:normal;text-indent:0;text-align:start;text-decoration:none;text-decoration-line:none;text-decoration-style:solid;text-decoration-color:#000000;letter-spacing:normal;word-spacing:normal;text-transform:none;writing-mode:lr-tb;direction:ltr;text-orientation:mixed;dominant-baseline:auto;baseline-shift:baseline;text-anchor:start;white-space:normal;shape-padding:0;clip-rule:nonzero;display:inline;overflow:visible;visibility:visible;opacity:1;isolation:auto;mix-blend-mode:normal;color-interpolation:sRGB;color-interpolation-filters:linearRGB;solid-color:#000000;solid-opacity:1;vector-effect:none;fill:#000000;fill-opacity:1;fill-rule:nonzero;stroke:none;stroke-width:19.33767128;stroke-linecap:butt;stroke-linejoin:miter;stroke-miterlimit:4;stroke-dasharray:none;stroke-dashoffset:0;stroke-opacity:1;color-rendering:auto;image-rendering:auto;shape-rendering:auto;text-rendering:auto;enable-background:accumulate" />
    <path
       inkscape:connector-curvature="0"
       id="path59-17-5-2"
       d="m 792.07898,253.79516 c -38.08343,-0.69891 -74.34343,27.05508 -120.25367,81.99193 l 14.84069,12.39843 c 44.706,-53.49579 76.91512,-75.57219 105.05864,-75.05568 28.14351,0.51635 58.41597,23.92031 98.74901,71.2232 l 14.71641,-12.54628 c -41.31543,-48.45491 -75.02751,-77.31257 -113.11108,-78.0116 z"
       style="color:#000000;font-style:normal;font-variant:normal;font-weight:normal;font-stretch:normal;font-size:medium;line-height:normal;font-family:sans-serif;font-variant-ligatures:normal;font-variant-position:normal;font-variant-caps:normal;font-variant-numeric:normal;font-variant-alternates:normal;font-feature-settings:normal;text-indent:0;text-align:start;text-decoration:none;text-decoration-line:none;text-decoration-style:solid;text-decoration-color:#000000;letter-spacing:normal;word-spacing:normal;text-transform:none;writing-mode:lr-tb;direction:ltr;text-orientation:mixed;dominant-baseline:auto;baseline-shift:baseline;text-anchor:start;white-space:normal;shape-padding:0;clip-rule:nonzero;display:inline;overflow:visible;visibility:visible;opacity:1;isolation:auto;mix-blend-mode:normal;color-interpolation:sRGB;color-interpolation-filters:linearRGB;solid-color:#000000;solid-opacity:1;vector-effect:none;fill:#000000;fill-opacity:1;fill-rule:nonzero;stroke:none;stroke-width:19.33767128;stroke-linecap:butt;stroke-linejoin:miter;stroke-miterlimit:4;stroke-dasharray:none;stroke-dashoffset:0;stroke-opacity:1;color-rendering:auto;image-rendering:auto;shape-rendering:auto;text-rendering:auto;enable-background:accumulate" />
    <path
       inkscape:connector-curvature="0"
       id="path59-1-8-3-29"
       d="m 790.01228,389.09891 c -26.06921,-0.93745 -53.33252,9.54926 -85.34941,33.19777 l 11.48903,15.55508 c 30.02557,-22.17763 52.6979,-30.16304 73.1633,-29.42711 20.46569,0.73617 40.19971,10.40708 63.76739,27.31297 l 11.27099,-15.71147 c -24.871,-17.8406 -48.27223,-29.9897 -74.3413,-30.92724 z"
       style="color:#000000;font-style:normal;font-variant:normal;font-weight:normal;font-stretch:normal;font-size:medium;line-height:normal;font-family:sans-serif;font-variant-ligatures:normal;font-variant-position:normal;font-variant-caps:normal;font-variant-numeric:normal;font-variant-alternates:normal;font-feature-settings:normal;text-indent:0;text-align:start;text-decoration:none;text-decoration-line:none;text-decoration-style:solid;text-decoration-color:#000000;letter-spacing:normal;word-spacing:normal;text-transform:none;writing-mode:lr-tb;direction:ltr;text-orientation:mixed;dominant-baseline:auto;baseline-shift:baseline;text-anchor:start;white-space:normal;shape-padding:0;clip-rule:nonzero;display:inline;overflow:visible;visibility:visible;opacity:1;isolation:auto;mix-blend-mode:normal;color-interpolation:sRGB;color-interpolation-filters:linearRGB;solid-color:#000000;solid-opacity:1;vector-effect:none;fill:#000000;fill-opacity:1;fill-rule:nonzero;stroke:none;stroke-width:19.33767128;stroke-linecap:butt;stroke-linejoin:miter;stroke-miterlimit:4;stroke-dasharray:none;stroke-dashoffset:0;stroke-opacity:1;color-rendering:auto;image-rendering:auto;shape-rendering:auto;text-rendering:auto;enable-background:accumulate" />
    <path
       inkscape:connector-curvature="0"
       id="path29-2-7"
       d="m 798.20328,698.39653 c -73.61512,72.47011 -136.98587,75.34619 -185.34987,60.07076 -24.18216,-7.63788 -44.57705,-20.19935 -59.73713,-31.7391 -15.16011,-11.53977 -24.65388,-21.61098 -28.62683,-25.54715 l -13.60928,13.73904 c 3.06181,3.03353 14.10726,14.69984 30.52232,27.19486 16.4152,12.49511 38.63348,26.26635 65.62824,34.79219 53.98838,17.05199 127.2314,11.57367 204.74009,-64.73014 z"
       style="color:#000000;font-style:normal;font-variant:normal;font-weight:normal;font-stretch:normal;font-size:medium;line-height:normal;font-family:sans-serif;font-variant-ligatures:normal;font-variant-position:normal;font-variant-caps:normal;font-variant-numeric:normal;font-variant-alternates:normal;font-feature-settings:normal;text-indent:0;text-align:start;text-decoration:none;text-decoration-line:none;text-decoration-style:solid;text-decoration-color:#000000;letter-spacing:normal;word-spacing:normal;text-transform:none;writing-mode:lr-tb;direction:ltr;text-orientation:mixed;dominant-baseline:auto;baseline-shift:baseline;text-anchor:start;white-space:normal;shape-padding:0;clip-rule:nonzero;display:inline;overflow:visible;visibility:visible;opacity:1;isolation:auto;mix-blend-mode:normal;color-interpolation:sRGB;color-interpolation-filters:linearRGB;solid-color:#000000;solid-opacity:1;vector-effect:none;fill:#000000;fill-opacity:1;fill-rule:nonzero;stroke:none;stroke-width:19.33767128;stroke-linecap:butt;stroke-linejoin:miter;stroke-miterlimit:4;stroke-dasharray:none;stroke-dashoffset:0;stroke-opacity:1;color-rendering:auto;image-rendering:auto;shape-rendering:auto;text-rendering:auto;enable-background:accumulate" />
  </g>
</svg>
