<?xml version="1.0" encoding="UTF-8" standalone="no"?>
<!-- Created with Inkscape (http://www.inkscape.org/) -->

<svg
   xmlns:dc="http://purl.org/dc/elements/1.1/"
   xmlns:cc="http://creativecommons.org/ns#"
   xmlns:rdf="http://www.w3.org/1999/02/22-rdf-syntax-ns#"
   xmlns:svg="http://www.w3.org/2000/svg"
   xmlns="http://www.w3.org/2000/svg"
   xmlns:sodipodi="http://sodipodi.sourceforge.net/DTD/sodipodi-0.dtd"
   xmlns:inkscape="http://www.inkscape.org/namespaces/inkscape"
   width="1000"
   height="1000"
   viewBox="0 0 1000 1000"
   version="1.1"
   id="svg31085"
   inkscape:version="0.92.4 (5da689c313, 2019-01-14)"
   sodipodi:docname="Aquele - Aquela - Aquilo.svg">
  <defs
     id="defs31079" />
  <sodipodi:namedview
     id="base"
     pagecolor="#ffffff"
     bordercolor="#666666"
     borderopacity="1.0"
     inkscape:pageopacity="0.0"
     inkscape:pageshadow="2"
     inkscape:zoom="64"
     inkscape:cx="979.68576"
     inkscape:cy="997.46135"
     inkscape:document-units="px"
     inkscape:current-layer="layer1"
     showgrid="false"
     units="px"
     inkscape:window-width="1366"
     inkscape:window-height="715"
     inkscape:window-x="-8"
     inkscape:window-y="-8"
     inkscape:window-maximized="1" />
  <metadata
     id="metadata31082">
    <rdf:RDF>
      <cc:Work
         rdf:about="">
        <dc:format>image/svg+xml</dc:format>
        <dc:type
           rdf:resource="http://purl.org/dc/dcmitype/StillImage" />
        <dc:title></dc:title>
      </cc:Work>
    </rdf:RDF>
  </metadata>
  <g
     inkscape:label="Camada 1"
     inkscape:groupmode="layer"
     id="layer1"
     transform="translate(0,-32.416659)">
    <path
       style="color:#000000;font-style:normal;font-variant:normal;font-weight:normal;font-stretch:normal;font-size:medium;line-height:normal;font-family:sans-serif;font-variant-ligatures:normal;font-variant-position:normal;font-variant-caps:normal;font-variant-numeric:normal;font-variant-alternates:normal;font-feature-settings:normal;text-indent:0;text-align:start;text-decoration:none;text-decoration-line:none;text-decoration-style:solid;text-decoration-color:#000000;letter-spacing:normal;word-spacing:normal;text-transform:none;writing-mode:lr-tb;direction:ltr;text-orientation:mixed;dominant-baseline:auto;baseline-shift:baseline;text-anchor:start;white-space:normal;shape-padding:0;clip-rule:nonzero;display:inline;overflow:visible;visibility:visible;opacity:1;isolation:auto;mix-blend-mode:normal;color-interpolation:sRGB;color-interpolation-filters:linearRGB;solid-color:#000000;solid-opacity:1;vector-effect:none;fill:#000000;fill-opacity:1;fill-rule:nonzero;stroke:none;stroke-width:19.3620739;stroke-linecap:butt;stroke-linejoin:miter;stroke-miterlimit:4;stroke-dasharray:none;stroke-dashoffset:0;stroke-opacity:1;color-rendering:auto;image-rendering:auto;shape-rendering:auto;text-rendering:auto;enable-background:accumulate"
       d="m 29.283203,315.9058 -1.138672,0.12695 -1.078125,0.38868 c 0,0 -9.806247,3.31086 -17.7167966,11.86718 -7.9105496,8.55633 -13.0448503,24.78039 -3.8554688,42.18164 l 0.2382813,0.45313 0.2851562,0.42383 c 0,0 7.5612619,11.26401 18.1699219,24.30468 10.321994,12.6883 23.190853,27.12595 36.947266,35.59766 l 85.955074,81.41211 0.18164,0.15625 c 0,0 31.64564,27.16023 58.50586,55.93164 0.0255,0.0324 3.85341,4.97498 4.99414,7.87891 -0.82327,0.2432 -1.89627,0.55439 -4.19921,0.66406 l -0.58985,0.0273 -0.58203,0.0996 c 0,0 -38.1296,6.61383 -86.71289,35.09375 l -0.21875,0.12696 -0.21289,0.14062 c 0,0 -15.65607,9.84513 -24.302735,26.99024 -4.32333,8.57255 -6.855692,19.58168 -3.802734,31.26171 2.338825,8.9479 7.834749,17.84196 16.832029,26.42579 -4.50942,4.31642 -9.747534,10.11857 -13.882811,17.47265 -4.479694,7.96659 -7.715932,18.02625 -6.177734,29.11328 1.254943,9.04539 5.936019,18.25129 14.050785,26.95899 -2.224642,4.42711 -4.553918,10.50852 -5.205082,17.77148 -1.346695,15.02079 5.836642,34.85346 30.517582,50.23438 l 0.1914,0.11914 0.19727,0.11133 c 0,0 60.20089,34.19664 127.57422,27.53906 1.90699,0.87382 3.79301,1.3485 5.59961,1.65039 3.34715,4.08903 15.44519,18.80799 31.5625,36.85937 9.25743,10.36833 19.22783,21.10816 28.44336,30.10352 8.45544,8.25344 15.75805,14.83439 23.01562,18.93945 1.73392,2.15125 15.79695,19.44891 38.22852,37.74414 23.85597,19.45703 56.32121,39.54003 91.90625,38.43943 l -0.59961,-19.3535 c -27.6546,0.8553 -56.96152,-16.05945 -79.06836,-34.08983 -22.10684,-18.03039 -36.59571,-36.25 -36.59571,-36.25 l -1.33398,-1.67969 -1.91797,-0.95899 c -3.17313,-1.58656 -11.41651,-8.1613 -20.10937,-16.64648 -8.69286,-8.48518 -18.4466,-18.97432 -27.52539,-29.14258 -18.15759,-20.33651 -33.60938,-39.3457 -33.60938,-39.3457 l -3.0918,-3.80469 -4.89648,0.24024 c -1.79287,0.088 -1.34449,0.18172 -1.91211,-0.25586 l -3.12891,-2.41211 -3.92382,0.46679 c -60.43987,7.18123 -118.44607,-24.55787 -118.97071,-24.84565 -20.08795,-12.59116 -22.0368,-23.35377 -21.26758,-31.93359 0.77217,-8.61256 5.64454,-14.92774 5.64454,-14.92774 l 5.85937,-7.28906 -7.08203,-6.10742 c -9.36941,-8.08203 -12.56005,-14.92289 -13.375,-20.79688 -0.81495,-5.87398 0.81842,-11.52171 3.87695,-16.96093 6.11707,-10.87845 17.43946,-18.96094 17.43946,-18.96094 l 11.19336,-7.65039 -10.8711,-8.10352 c -12.24348,-9.12696 -17.17156,-17.12802 -18.85547,-23.57031 -1.6839,-6.44229 -0.44805,-12.07976 2.35938,-17.64649 5.56815,-11.04085 17.35715,-19.30895 17.55469,-19.44726 45.76954,-26.76254 79.83919,-32.53142 79.86132,-32.53516 1e-5,0 0.008,-0.002 0.008,-0.002 7.75284,-0.53701 14.32781,-2.62401 18.50976,-8.06055 4.3985,-5.71805 3.76467,-12.72967 2.26758,-17.3457 -2.99419,-9.23207 -9.40625,-15.45312 -9.40625,-15.45313 l -0.0293,-0.0312 -0.0293,-0.0313 c -27.64001,-29.61421 -59.1683,-56.64766 -59.74805,-57.14453 l -0.0117,-0.0117 -87.169922,-82.56446 -0.947266,-0.55664 C 62.493649,409.6466 49.21664,395.73717 39.207221,383.4331 29.60877,371.63422 23.039389,361.93136 22.486518,361.11279 c -5.873503,-11.32636 -2.945531,-15.3274 1.080078,-19.68164 2.650486,-2.86686 5.526969,-4.52101 7.625,-5.57812 0.804445,0.26277 1.895777,0.58056 3.185547,1.38867 3.033387,1.90058 6.881308,4.85318 10.492188,7.88476 7.221759,6.06318 13.517578,12.34766 13.517578,12.34766 l 1.470703,1.46875 1.941406,0.73828 c 0.610056,0.2314 4.664946,2.38342 8.97461,5.14453 4.309663,2.76111 9.347102,6.21541 14.105468,9.56836 9.342253,6.58296 17.272894,12.52955 17.572264,12.75391 16.68309,16.42728 44.32085,34.32228 68.41602,48.82812 24.41639,14.69922 45.00976,25.57032 45.00976,25.57032 l 0.40821,0.21484 0.42578,0.17578 c 10.33299,4.2548 94.06054,40.35938 94.06054,40.35938 l 2.06446,0.89062 2.24414,-0.11133 c 30.14901,-1.48077 51.84049,11.51868 58.42383,16.89649 l 0.55273,0.45312 0.61524,0.36719 c 20.10969,11.98443 25.61181,27.54993 28.02734,34.37109 2.2999,9.92824 5.49843,16.30521 9.03125,20.42969 1.82787,2.13399 3.74341,3.64664 5.47656,4.62891 0.003,0.002 0.004,0.002 0.008,0.004 6.91751,7.89374 12.94336,25.40821 12.94336,25.40821 l -0.0566,-0.20508 c 3.42206,12.8327 13.85018,31.72933 23.72852,49.3457 9.83454,17.53827 18.94628,32.5133 19.02734,32.64649 0.0115,0.0193 0.0217,0.0354 0.0332,0.0547 5e-5,7e-5 0.0195,0.0312 0.0195,0.0312 55.95296,94.10904 105.92773,141.51562 105.92773,141.51562 l 13.31055,-14.06055 c 0,0 -47.78933,-45.14636 -102.64649,-137.43554 l -0.0254,-0.043 -0.0273,-0.043 c 0,0 -9.0521,-14.87348 -18.73242,-32.13672 -9.68033,-17.26325 -20.1146,-38.13728 -21.90821,-44.86328 l -0.0273,-0.10352 -0.0293,-0.10156 c 0,0 -5.18123,-21.2183 -18.75,-34.78711 l -2.15039,-2.15039 -1.36914,-0.24414 c -0.0541,-0.0578 0.0226,0.0245 -0.0469,-0.0566 -0.93589,-1.09263 -3.24607,-4.58716 -5.08203,-12.95117 l -0.12891,-0.58985 -0.20117,-0.56836 c -2.43212,-6.86532 -10.69487,-28.90557 -35.60156,-44.15625 -10.32382,-8.32532 -34.52351,-21.93896 -68.77344,-20.98242 -3.00074,-1.29483 -79.67413,-34.37902 -92.01367,-39.47852 -0.43015,-0.22735 -20.12862,-10.64456 -43.7793,-24.88281 -23.90978,-14.39423 -51.71155,-32.8834 -65.42188,-46.59375 l -0.48632,-0.48633 -0.55079,-0.41211 c 0,0 -8.56781,-6.42639 -18.36523,-13.33007 -4.898708,-3.45184 -10.108806,-7.02816 -14.814453,-10.04297 -3.828267,-2.45269 -7.022862,-4.34258 -10.292969,-5.85352 -1.461979,-1.44493 -6.645807,-6.52797 -13.605469,-12.37109 -4.008846,-3.36571 -8.330438,-6.75082 -12.662109,-9.46485 -4.331671,-2.71402 -7.957641,-5.75164 -15.373047,-4.92773 z"
       id="path53564"
       inkscape:connector-curvature="0" />
    <path
       style="color:#000000;font-style:normal;font-variant:normal;font-weight:normal;font-stretch:normal;font-size:medium;line-height:normal;font-family:sans-serif;font-variant-ligatures:normal;font-variant-position:normal;font-variant-caps:normal;font-variant-numeric:normal;font-variant-alternates:normal;font-feature-settings:normal;text-indent:0;text-align:start;text-decoration:none;text-decoration-line:none;text-decoration-style:solid;text-decoration-color:#000000;letter-spacing:normal;word-spacing:normal;text-transform:none;writing-mode:lr-tb;direction:ltr;text-orientation:mixed;dominant-baseline:auto;baseline-shift:baseline;text-anchor:start;white-space:normal;shape-padding:0;clip-rule:nonzero;display:inline;overflow:visible;visibility:visible;opacity:1;isolation:auto;mix-blend-mode:normal;color-interpolation:sRGB;color-interpolation-filters:linearRGB;solid-color:#000000;solid-opacity:1;vector-effect:none;fill:#000000;fill-opacity:1;fill-rule:nonzero;stroke:none;stroke-width:19.3620739;stroke-linecap:butt;stroke-linejoin:miter;stroke-miterlimit:4;stroke-dasharray:none;stroke-dashoffset:0;stroke-opacity:1;color-rendering:auto;image-rendering:auto;shape-rendering:auto;text-rendering:auto;enable-background:accumulate"
       d="m 197.77539,814.66361 -3.26172,3.5625 c 0,0 -7.37397,8.4925 -23.17383,8.75586 l 0.32227,19.35938 c 15.94843,-0.26584 27.00395,-7.04532 32.68164,-11.4043 3.95938,0.52242 11.9044,1.7185 21.37891,4.96484 6.14735,2.10633 12.03009,4.98446 15.76953,8.08204 3.73944,3.09757 5.19856,5.61451 5.26172,9.08789 l 19.35937,-0.35352 c -0.18133,-9.97318 -5.69209,-18.19609 -12.26953,-23.64453 -6.57744,-5.44844 -14.35946,-8.9232 -21.8457,-11.48828 -14.97248,-5.13017 -29.41407,-6.45899 -29.41407,-6.45899 z"
       id="path53566"
       inkscape:connector-curvature="0" />
    <path
       style="color:#000000;font-style:normal;font-variant:normal;font-weight:normal;font-stretch:normal;font-size:medium;line-height:normal;font-family:sans-serif;font-variant-ligatures:normal;font-variant-position:normal;font-variant-caps:normal;font-variant-numeric:normal;font-variant-alternates:normal;font-feature-settings:normal;text-indent:0;text-align:start;text-decoration:none;text-decoration-line:none;text-decoration-style:solid;text-decoration-color:#000000;letter-spacing:normal;word-spacing:normal;text-transform:none;writing-mode:lr-tb;direction:ltr;text-orientation:mixed;dominant-baseline:auto;baseline-shift:baseline;text-anchor:start;white-space:normal;shape-padding:0;clip-rule:nonzero;display:inline;overflow:visible;visibility:visible;opacity:1;isolation:auto;mix-blend-mode:normal;color-interpolation:sRGB;color-interpolation-filters:linearRGB;solid-color:#000000;solid-opacity:1;vector-effect:none;fill:#000000;fill-opacity:1;fill-rule:nonzero;stroke:none;stroke-width:19.3620739;stroke-linecap:butt;stroke-linejoin:miter;stroke-miterlimit:4;stroke-dasharray:none;stroke-dashoffset:0;stroke-opacity:1;color-rendering:auto;image-rendering:auto;shape-rendering:auto;text-rendering:auto;enable-background:accumulate"
       d="m 221.57812,831.64994 c -0.28357,0.20622 -1.13888,2.21734 -2.52929,3.72461 -1.85389,2.00969 -3.68945,3.48047 -3.68945,3.48047 l 12.0332,15.16992 c 0,0 2.89172,-2.27673 5.88672,-5.52344 2.995,-3.24671 7.06299,-7.10442 7.6875,-14.80664 l -19.29883,-1.56445 c 0.0339,-0.41791 0.005,-0.54921 -0.0898,-0.48047 z"
       id="path53568"
       inkscape:connector-curvature="0" />
    <path
       style="color:#000000;font-style:normal;font-variant:normal;font-weight:normal;font-stretch:normal;font-size:medium;line-height:normal;font-family:sans-serif;font-variant-ligatures:normal;font-variant-position:normal;font-variant-caps:normal;font-variant-numeric:normal;font-variant-alternates:normal;font-feature-settings:normal;text-indent:0;text-align:start;text-decoration:none;text-decoration-line:none;text-decoration-style:solid;text-decoration-color:#000000;letter-spacing:normal;word-spacing:normal;text-transform:none;writing-mode:lr-tb;direction:ltr;text-orientation:mixed;dominant-baseline:auto;baseline-shift:baseline;text-anchor:start;white-space:normal;shape-padding:0;clip-rule:nonzero;display:inline;overflow:visible;visibility:visible;opacity:1;isolation:auto;mix-blend-mode:normal;color-interpolation:sRGB;color-interpolation-filters:linearRGB;solid-color:#000000;solid-opacity:1;vector-effect:none;fill:#000000;fill-opacity:1;fill-rule:nonzero;stroke:none;stroke-width:19.3620739;stroke-linecap:butt;stroke-linejoin:miter;stroke-miterlimit:4;stroke-dasharray:none;stroke-dashoffset:0;stroke-opacity:1;color-rendering:auto;image-rendering:auto;shape-rendering:auto;text-rendering:auto;enable-background:accumulate"
       d="m 182.40625,807.97025 c -0.86336,8.46073 3.46627,14.27119 6.75195,18.14453 3.28568,3.87335 6.6875,6.39258 6.6875,6.39258 l 11.61719,-15.48828 c 0,0 -1.81282,-1.39275 -3.53906,-3.42773 -1.72624,-2.03499 -2.20552,-4.13048 -2.25391,-3.65625 z"
       id="path53572"
       inkscape:connector-curvature="0" />
    <path
       style="color:#000000;font-style:normal;font-variant:normal;font-weight:normal;font-stretch:normal;font-size:medium;line-height:normal;font-family:sans-serif;font-variant-ligatures:normal;font-variant-position:normal;font-variant-caps:normal;font-variant-numeric:normal;font-variant-alternates:normal;font-feature-settings:normal;text-indent:0;text-align:start;text-decoration:none;text-decoration-line:none;text-decoration-style:solid;text-decoration-color:#000000;letter-spacing:normal;word-spacing:normal;text-transform:none;writing-mode:lr-tb;direction:ltr;text-orientation:mixed;dominant-baseline:auto;baseline-shift:baseline;text-anchor:start;white-space:normal;shape-padding:0;clip-rule:nonzero;display:inline;overflow:visible;visibility:visible;opacity:1;isolation:auto;mix-blend-mode:normal;color-interpolation:sRGB;color-interpolation-filters:linearRGB;solid-color:#000000;solid-opacity:1;vector-effect:none;fill:#000000;fill-opacity:1;fill-rule:nonzero;stroke:none;stroke-width:19.3620739;stroke-linecap:butt;stroke-linejoin:miter;stroke-miterlimit:4;stroke-dasharray:none;stroke-dashoffset:0;stroke-opacity:1;color-rendering:auto;image-rendering:auto;shape-rendering:auto;text-rendering:auto;enable-background:accumulate"
       d="m 206.12695,697.78861 c -4.18811,5.63784 -14.49685,12.72803 -23.61523,17.5586 -9.11838,4.83056 -16.77149,7.74609 -16.77149,7.74609 l 0.0801,-0.0293 c -32.29839,11.95283 -59.48635,39.57227 -59.48635,39.57227 l 13.63477,13.74805 c 0,0 26.3233,-25.44802 52.57227,-35.16211 l 0.041,-0.0156 0.0391,-0.0156 c 0,0 8.71138,-3.30766 18.95508,-8.73438 10.2437,-5.42672 22.29584,-12.62586 30.09375,-23.12305 z"
       id="path53576"
       inkscape:connector-curvature="0" />
    <path
       style="color:#000000;font-style:normal;font-variant:normal;font-weight:normal;font-stretch:normal;font-size:medium;line-height:normal;font-family:sans-serif;font-variant-ligatures:normal;font-variant-position:normal;font-variant-caps:normal;font-variant-numeric:normal;font-variant-alternates:normal;font-feature-settings:normal;text-indent:0;text-align:start;text-decoration:none;text-decoration-line:none;text-decoration-style:solid;text-decoration-color:#000000;letter-spacing:normal;word-spacing:normal;text-transform:none;writing-mode:lr-tb;direction:ltr;text-orientation:mixed;dominant-baseline:auto;baseline-shift:baseline;text-anchor:start;white-space:normal;shape-padding:0;clip-rule:nonzero;display:inline;overflow:visible;visibility:visible;opacity:1;isolation:auto;mix-blend-mode:normal;color-interpolation:sRGB;color-interpolation-filters:linearRGB;solid-color:#000000;solid-opacity:1;vector-effect:none;fill:#000000;fill-opacity:1;fill-rule:nonzero;stroke:none;stroke-width:19.3620739;stroke-linecap:butt;stroke-linejoin:miter;stroke-miterlimit:4;stroke-dasharray:none;stroke-dashoffset:0;stroke-opacity:1;color-rendering:auto;image-rendering:auto;shape-rendering:auto;text-rendering:auto;enable-background:accumulate"
       d="m 213.38477,633.68119 c -10.61322,10.99913 -24.50586,15.16211 -24.50586,15.16211 l -0.58399,0.16797 -0.55859,0.23828 c -48.49698,20.71717 -72.09961,40.88281 -72.09961,40.88281 l 12.63281,14.67188 c 0,0 20.54732,-17.83886 66.8457,-37.64844 2.40281,-0.71785 18.55,-5.87972 32.20313,-20.0293 z"
       id="path53578"
       inkscape:connector-curvature="0" />
    <path
       style="color:#000000;font-style:normal;font-variant:normal;font-weight:normal;font-stretch:normal;font-size:medium;line-height:normal;font-family:sans-serif;font-variant-ligatures:normal;font-variant-position:normal;font-variant-caps:normal;font-variant-numeric:normal;font-variant-alternates:normal;font-feature-settings:normal;text-indent:0;text-align:start;text-decoration:none;text-decoration-line:none;text-decoration-style:solid;text-decoration-color:#000000;letter-spacing:normal;word-spacing:normal;text-transform:none;writing-mode:lr-tb;direction:ltr;text-orientation:mixed;dominant-baseline:auto;baseline-shift:baseline;text-anchor:start;white-space:normal;shape-padding:0;clip-rule:nonzero;display:inline;overflow:visible;visibility:visible;opacity:1;isolation:auto;mix-blend-mode:normal;color-interpolation:sRGB;color-interpolation-filters:linearRGB;solid-color:#000000;solid-opacity:1;vector-effect:none;fill:#000000;fill-opacity:1;fill-rule:nonzero;stroke:none;stroke-width:19.3620739;stroke-linecap:butt;stroke-linejoin:miter;stroke-miterlimit:4;stroke-dasharray:none;stroke-dashoffset:0;stroke-opacity:1;color-rendering:auto;image-rendering:auto;shape-rendering:auto;text-rendering:auto;enable-background:accumulate"
       d="m 29.238281,320.18314 c -6.389018,5.95094 -10.013589,13.18465 -10.080078,20.22461 -0.06649,7.03997 3.056305,12.78458 6.408203,16.95118 6.703796,8.33319 15.558594,12.49414 15.558594,12.49414 l 8.761719,4.45312 4.320312,-8.82812 c 0,0 1.703668,-3.45723 3.910157,-6.98047 1.103244,-1.76162 2.334013,-3.50199 3.251953,-4.56641 0.917939,-1.06441 1.929387,-1.10148 -0.257813,-0.41797 l -5.77539,-18.48047 c -4.795016,1.49848 -6.67417,3.98725 -8.628907,6.25391 -1.639641,1.90128 -2.94312,3.88255 -4.193359,5.81641 -0.649917,-0.61647 -1.329041,-1.22163 -1.859375,-1.88086 -1.587957,-1.97392 -2.145039,-3.54504 -2.134766,-4.63282 0.01027,-1.08777 0.218672,-2.79432 3.914063,-6.23632 z"
       id="path53582"
       inkscape:connector-curvature="0" />
    <path
       style="color:#000000;font-style:normal;font-variant:normal;font-weight:normal;font-stretch:normal;font-size:medium;line-height:normal;font-family:sans-serif;font-variant-ligatures:normal;font-variant-position:normal;font-variant-caps:normal;font-variant-numeric:normal;font-variant-alternates:normal;font-feature-settings:normal;text-indent:0;text-align:start;text-decoration:none;text-decoration-line:none;text-decoration-style:solid;text-decoration-color:#000000;letter-spacing:normal;word-spacing:normal;text-transform:none;writing-mode:lr-tb;direction:ltr;text-orientation:mixed;dominant-baseline:auto;baseline-shift:baseline;text-anchor:start;white-space:normal;shape-padding:0;clip-rule:nonzero;display:inline;overflow:visible;visibility:visible;opacity:1;isolation:auto;mix-blend-mode:normal;color-interpolation:sRGB;color-interpolation-filters:linearRGB;solid-color:#000000;solid-opacity:1;vector-effect:none;fill:#000000;fill-opacity:1;fill-rule:nonzero;stroke:none;stroke-width:19.3620739;stroke-linecap:butt;stroke-linejoin:miter;stroke-miterlimit:4;stroke-dasharray:none;stroke-dashoffset:0;stroke-opacity:1;color-rendering:auto;image-rendering:auto;shape-rendering:auto;text-rendering:auto;enable-background:accumulate"
       d="m 299.94531,668.80424 -13.05664,14.29883 c 11.87481,10.8422 12.4937,25.22389 9.89649,38.78711 -2.59722,13.56321 -8.54883,24.29882 -8.54883,24.29882 l 16.88086,9.48047 c 0,0 7.4132,-13.06002 10.68359,-30.13867 3.27039,-17.07865 2.25964,-40.1867 -15.85547,-56.72656 z"
       id="path53584"
       inkscape:connector-curvature="0" />
    <path
       style="color:#000000;font-style:normal;font-variant:normal;font-weight:normal;font-stretch:normal;font-size:medium;line-height:normal;font-family:sans-serif;font-variant-ligatures:normal;font-variant-position:normal;font-variant-caps:normal;font-variant-numeric:normal;font-variant-alternates:normal;font-feature-settings:normal;text-indent:0;text-align:start;text-decoration:none;text-decoration-line:none;text-decoration-style:solid;text-decoration-color:#000000;letter-spacing:normal;word-spacing:normal;text-transform:none;writing-mode:lr-tb;direction:ltr;text-orientation:mixed;dominant-baseline:auto;baseline-shift:baseline;text-anchor:start;white-space:normal;shape-padding:0;clip-rule:nonzero;display:inline;overflow:visible;visibility:visible;opacity:1;isolation:auto;mix-blend-mode:normal;color-interpolation:sRGB;color-interpolation-filters:linearRGB;solid-color:#000000;solid-opacity:1;vector-effect:none;fill:#000000;fill-opacity:1;fill-rule:nonzero;stroke:none;stroke-width:19.3620739;stroke-linecap:butt;stroke-linejoin:miter;stroke-miterlimit:4;stroke-dasharray:none;stroke-dashoffset:0;stroke-opacity:1;color-rendering:auto;image-rendering:auto;shape-rendering:auto;text-rendering:auto;enable-background:accumulate"
       d="m 342.32227,597.74174 -13.05665,14.29883 c 6.0406,5.51533 8.00323,10.30898 8.54102,15.0664 0.5378,4.75743 -0.64962,9.84472 -2.84766,14.70703 -4.39606,9.72464 -12.27148,17.26758 -12.27148,17.26758 l 13.17383,14.1875 c 0,0 10.37904,-9.40874 16.74023,-23.48047 3.1806,-7.03586 5.49666,-15.55705 4.44532,-24.85742 -1.05135,-9.30037 -5.77025,-19.01371 -14.72461,-27.18945 z"
       id="path53586"
       inkscape:connector-curvature="0" />
    <path
       style="color:#000000;font-style:normal;font-variant:normal;font-weight:normal;font-stretch:normal;font-size:medium;line-height:normal;font-family:sans-serif;font-variant-ligatures:normal;font-variant-position:normal;font-variant-caps:normal;font-variant-numeric:normal;font-variant-alternates:normal;font-feature-settings:normal;text-indent:0;text-align:start;text-decoration:none;text-decoration-line:none;text-decoration-style:solid;text-decoration-color:#000000;letter-spacing:normal;word-spacing:normal;text-transform:none;writing-mode:lr-tb;direction:ltr;text-orientation:mixed;dominant-baseline:auto;baseline-shift:baseline;text-anchor:start;white-space:normal;shape-padding:0;clip-rule:nonzero;display:inline;overflow:visible;visibility:visible;opacity:1;isolation:auto;mix-blend-mode:normal;color-interpolation:sRGB;color-interpolation-filters:linearRGB;solid-color:#000000;solid-opacity:1;vector-effect:none;fill:#000000;fill-opacity:1;fill-rule:nonzero;stroke:none;stroke-width:19.3620739;stroke-linecap:butt;stroke-linejoin:miter;stroke-miterlimit:4;stroke-dasharray:none;stroke-dashoffset:0;stroke-opacity:1;color-rendering:auto;image-rendering:auto;shape-rendering:auto;text-rendering:auto;enable-background:accumulate"
       d="m 373.42188,555.32377 -12.48047,14.80273 c 9.04557,7.62667 7.89649,12.60635 5.71875,18.64649 -2.17775,6.04014 -6.78516,10.90039 -6.78516,10.90039 l 13.69141,13.69141 c 0,0 7.37804,-7.12372 11.30859,-18.0254 3.93055,-10.90167 3.01237,-27.81922 -11.45312,-40.01562 z"
       id="path53588"
       inkscape:connector-curvature="0" />
    <path
       style="color:#000000;font-style:normal;font-variant:normal;font-weight:normal;font-stretch:normal;font-size:medium;line-height:normal;font-family:sans-serif;font-variant-ligatures:normal;font-variant-position:normal;font-variant-caps:normal;font-variant-numeric:normal;font-variant-alternates:normal;font-feature-settings:normal;text-indent:0;text-align:start;text-decoration:none;text-decoration-line:none;text-decoration-style:solid;text-decoration-color:#000000;letter-spacing:normal;word-spacing:normal;text-transform:none;writing-mode:lr-tb;direction:ltr;text-orientation:mixed;dominant-baseline:auto;baseline-shift:baseline;text-anchor:start;white-space:normal;shape-padding:0;clip-rule:nonzero;display:inline;overflow:visible;visibility:visible;opacity:1;isolation:auto;mix-blend-mode:normal;color-interpolation:sRGB;color-interpolation-filters:linearRGB;solid-color:#000000;solid-opacity:1;vector-effect:none;fill:#000000;fill-opacity:1;fill-rule:nonzero;stroke:none;stroke-width:19.3620739;stroke-linecap:butt;stroke-linejoin:miter;stroke-miterlimit:4;stroke-dasharray:none;stroke-dashoffset:0;stroke-opacity:1;color-rendering:auto;image-rendering:auto;shape-rendering:auto;text-rendering:auto;enable-background:accumulate"
       d="m 402.86328,548.64603 c 0,0 -0.88842,2.2971 -2.56445,5.1836 -1.67604,2.88649 -4.25857,5.89084 -5.51758,6.67773 l 10.26172,16.41993 c 6.117,-3.82316 9.52701,-9.11598 12,-13.375 2.47299,-4.25903 3.89062,-7.95508 3.89062,-7.95508 z"
       id="path53590"
       inkscape:connector-curvature="0" />
    <path
       style="color:#000000;font-style:normal;font-variant:normal;font-weight:normal;font-stretch:normal;font-size:medium;line-height:normal;font-family:sans-serif;font-variant-ligatures:normal;font-variant-position:normal;font-variant-caps:normal;font-variant-numeric:normal;font-variant-alternates:normal;font-feature-settings:normal;text-indent:0;text-align:start;text-decoration:none;text-decoration-line:none;text-decoration-style:solid;text-decoration-color:#000000;letter-spacing:normal;word-spacing:normal;text-transform:none;writing-mode:lr-tb;direction:ltr;text-orientation:mixed;dominant-baseline:auto;baseline-shift:baseline;text-anchor:start;white-space:normal;shape-padding:0;clip-rule:nonzero;display:inline;overflow:visible;visibility:visible;opacity:1;isolation:auto;mix-blend-mode:normal;color-interpolation:sRGB;color-interpolation-filters:linearRGB;solid-color:#000000;solid-opacity:1;vector-effect:none;fill:#000000;fill-opacity:1;fill-rule:nonzero;stroke:none;stroke-width:19.3620739;stroke-linecap:butt;stroke-linejoin:miter;stroke-miterlimit:4;stroke-dasharray:none;stroke-dashoffset:0;stroke-opacity:1;color-rendering:auto;image-rendering:auto;shape-rendering:auto;text-rendering:auto;enable-background:accumulate"
       d="m 259.88672,561.064 c -7.32879,5.05434 -21.27046,9.66688 -32.96875,12.39649 -11.69829,2.7296 -21.07617,3.89453 -21.07617,3.89453 l 2.38281,19.21484 c 0,0 10.34374,-1.27889 23.09375,-4.2539 12.75001,-2.97501 27.98262,-7.32774 39.56055,-15.3125 z"
       id="path53592"
       inkscape:connector-curvature="0" />
    <path
       style="color:#000000;font-style:normal;font-variant:normal;font-weight:normal;font-stretch:normal;font-size:medium;line-height:normal;font-family:sans-serif;font-variant-ligatures:normal;font-variant-position:normal;font-variant-caps:normal;font-variant-numeric:normal;font-variant-alternates:normal;font-feature-settings:normal;text-indent:0;text-align:start;text-decoration:none;text-decoration-line:none;text-decoration-style:solid;text-decoration-color:#000000;letter-spacing:normal;word-spacing:normal;text-transform:none;writing-mode:lr-tb;direction:ltr;text-orientation:mixed;dominant-baseline:auto;baseline-shift:baseline;text-anchor:start;white-space:normal;shape-padding:0;clip-rule:nonzero;display:inline;overflow:visible;visibility:visible;opacity:1;isolation:auto;mix-blend-mode:normal;color-interpolation:sRGB;color-interpolation-filters:linearRGB;solid-color:#000000;solid-opacity:1;vector-effect:none;fill:#000000;fill-opacity:1;fill-rule:nonzero;stroke:none;stroke-width:19.3620739;stroke-linecap:butt;stroke-linejoin:miter;stroke-miterlimit:4;stroke-dasharray:none;stroke-dashoffset:0;stroke-opacity:1;color-rendering:auto;image-rendering:auto;shape-rendering:auto;text-rendering:auto;enable-background:accumulate"
       d="m 260.85352,560.47807 c -14.75435,7.81111 -23.62795,6.82312 -29.18946,4.93164 -5.56151,-1.89149 -7.40039,-4.47266 -7.40039,-4.47266 l -15.22851,11.95703 c 0,0 5.90165,7.279 16.39453,10.84766 10.49288,3.56866 25.98707,3.6393 44.48242,-6.15235 z"
       id="path53594"
       inkscape:connector-curvature="0" />
    <path
       style="color:#000000;font-style:normal;font-variant:normal;font-weight:normal;font-stretch:normal;font-size:medium;line-height:normal;font-family:sans-serif;font-variant-ligatures:normal;font-variant-position:normal;font-variant-caps:normal;font-variant-numeric:normal;font-variant-alternates:normal;font-feature-settings:normal;text-indent:0;text-align:start;text-decoration:none;text-decoration-line:none;text-decoration-style:solid;text-decoration-color:#000000;letter-spacing:normal;word-spacing:normal;text-transform:none;writing-mode:lr-tb;direction:ltr;text-orientation:mixed;dominant-baseline:auto;baseline-shift:baseline;text-anchor:start;white-space:normal;shape-padding:0;clip-rule:nonzero;display:inline;overflow:visible;visibility:visible;opacity:1;isolation:auto;mix-blend-mode:normal;color-interpolation:sRGB;color-interpolation-filters:linearRGB;solid-color:#000000;solid-opacity:1;vector-effect:none;fill:#000000;fill-opacity:1;fill-rule:nonzero;stroke:none;stroke-width:40.98732758;stroke-linecap:butt;stroke-linejoin:miter;stroke-miterlimit:4;stroke-dasharray:none;stroke-dashoffset:0;stroke-opacity:1;color-rendering:auto;image-rendering:auto;shape-rendering:auto;text-rendering:auto;enable-background:accumulate"
       d="m 973.62109,32.620643 c -157.94971,-0.0466 -266.45431,63.36764 -328.86523,158.238287 -62.41617,94.87863 -79.833,218.76899 -66.19141,341.40234 13.6416,122.63335 58.40248,244.55195 124.48243,337.14062 66.07994,92.58868 155.04652,157.08721 256.23828,156.48441 101.14404,-0.6026 189.38274,-65.77863 255.07224,-158.67972 65.6896,-92.90109 110.3649,-214.77289 125.2012,-337.10156 14.8363,-122.32867 -0.025,-245.56354 -57.6641,-340.06641 C 1224.2612,95.545043 1122.1354,32.086483 973.62109,32.620643 Z m 0.0254,40.98633 h 0.041 0.041 c 137.16441,-0.50494 222.24041,54.264817 273.17381,137.773437 50.9334,83.50862 66.0027,198.06177 51.9668,313.79102 -14.0358,115.72924 -57.0348,232.18465 -117.9765,318.37109 -60.9417,86.18644 -138.2908,140.85964 -221.85161,141.35742 C 875.52789,985.39747 797.63749,931.38348 736.4082,845.59135 675.17891,759.79922 632.17551,643.46949 619.30078,527.73002 606.42605,411.99055 623.74037,297.38329 678.99805,213.38627 734.25572,129.38925 826.35653,73.553563 973.64648,73.606973 Z"
       id="path10-9-9"
       inkscape:connector-curvature="0" />
    <path
       style="color:#000000;font-style:normal;font-variant:normal;font-weight:normal;font-stretch:normal;font-size:medium;line-height:normal;font-family:sans-serif;font-variant-ligatures:normal;font-variant-position:normal;font-variant-caps:normal;font-variant-numeric:normal;font-variant-alternates:normal;font-feature-settings:normal;text-indent:0;text-align:start;text-decoration:none;text-decoration-line:none;text-decoration-style:solid;text-decoration-color:#000000;letter-spacing:normal;word-spacing:normal;text-transform:none;writing-mode:lr-tb;direction:ltr;text-orientation:mixed;dominant-baseline:auto;baseline-shift:baseline;text-anchor:start;white-space:normal;shape-padding:0;clip-rule:nonzero;display:inline;overflow:visible;visibility:visible;opacity:1;isolation:auto;mix-blend-mode:normal;color-interpolation:sRGB;color-interpolation-filters:linearRGB;solid-color:#000000;solid-opacity:1;vector-effect:none;fill:#000000;fill-opacity:1;fill-rule:nonzero;stroke:none;stroke-width:20.49366379;stroke-linecap:butt;stroke-linejoin:miter;stroke-miterlimit:4;stroke-dasharray:none;stroke-dashoffset:0;stroke-opacity:1;color-rendering:auto;image-rendering:auto;shape-rendering:auto;text-rendering:auto;enable-background:accumulate"
       d="m 958.60352,735.18906 c -21.38083,-0.57793 -41.25476,2.73946 -59.13475,8.38672 -28.608,9.03563 -52.1524,23.62908 -69.5489,36.8711 -17.3964,13.24202 -29.1027,25.60551 -32.3476,28.82031 l 14.4238,14.55859 c 4.2107,-4.17162 14.2716,-14.84269 30.3379,-27.07226 16.0664,-12.22958 37.6789,-25.54241 63.3066,-33.63672 51.25546,-16.18863 118.41623,-13.14229 196.43173,63.66015 l 14.3789,-14.60351 c -56.473,-55.59489 -110.8099,-75.71292 -157.84768,-76.98438 z"
       id="path29-8"
       inkscape:connector-curvature="0" />
    <path
       style="color:#000000;font-style:normal;font-variant:normal;font-weight:normal;font-stretch:normal;font-size:medium;line-height:normal;font-family:sans-serif;font-variant-ligatures:normal;font-variant-position:normal;font-variant-caps:normal;font-variant-numeric:normal;font-variant-alternates:normal;font-feature-settings:normal;text-indent:0;text-align:start;text-decoration:none;text-decoration-line:none;text-decoration-style:solid;text-decoration-color:#000000;letter-spacing:normal;word-spacing:normal;text-transform:none;writing-mode:lr-tb;direction:ltr;text-orientation:mixed;dominant-baseline:auto;baseline-shift:baseline;text-anchor:start;white-space:normal;shape-padding:0;clip-rule:nonzero;display:inline;overflow:visible;visibility:visible;opacity:1;isolation:auto;mix-blend-mode:normal;color-interpolation:sRGB;color-interpolation-filters:linearRGB;solid-color:#000000;solid-opacity:1;vector-effect:none;fill:#000000;fill-opacity:1;fill-rule:nonzero;stroke:none;stroke-width:20.49366379;stroke-linecap:butt;stroke-linejoin:miter;stroke-miterlimit:4;stroke-dasharray:none;stroke-dashoffset:0;stroke-opacity:1;color-rendering:auto;image-rendering:auto;shape-rendering:auto;text-rendering:auto;enable-background:accumulate"
       d="m 951.69531,526.25346 c 0,0 -2.31129,22.8109 -6.13476,46.77148 -1.91174,11.98029 -4.21481,24.24924 -6.68946,33.78125 -1.23732,4.76601 -2.53262,8.8575 -3.69336,11.67969 -1.16073,2.82219 -2.66069,4.29764 -1.58398,3.40039 -2.26777,1.88977 -4.66752,3.46715 -5.92383,8.49219 -0.62815,2.51252 -0.26989,6.25542 1.33399,8.86914 1.60388,2.61371 3.68879,3.89274 5.26562,4.63476 6.30732,2.9681 9.54548,1.82897 13.83399,1.53321 8.57702,-0.59154 17.86718,-2.50391 17.86718,-2.50391 l -4.01953,-20.0957 c 0,0 -3.16138,0.55144 -6.98242,1.1289 1.35755,-3.64124 2.59517,-7.58711 3.73828,-11.99023 2.76548,-10.65225 5.12197,-23.35487 7.0918,-35.69922 3.93966,-24.6887 6.28515,-47.93945 6.28515,-47.93945 z"
       id="path971-3"
       inkscape:connector-curvature="0" />
    <path
       style="color:#000000;font-style:normal;font-variant:normal;font-weight:normal;font-stretch:normal;font-size:medium;line-height:normal;font-family:sans-serif;font-variant-ligatures:normal;font-variant-position:normal;font-variant-caps:normal;font-variant-numeric:normal;font-variant-alternates:normal;font-feature-settings:normal;text-indent:0;text-align:start;text-decoration:none;text-decoration-line:none;text-decoration-style:solid;text-decoration-color:#000000;letter-spacing:normal;word-spacing:normal;text-transform:none;writing-mode:lr-tb;direction:ltr;text-orientation:mixed;dominant-baseline:auto;baseline-shift:baseline;text-anchor:start;white-space:normal;shape-padding:0;clip-rule:nonzero;display:inline;overflow:visible;visibility:visible;opacity:1;isolation:auto;mix-blend-mode:normal;color-interpolation:sRGB;color-interpolation-filters:linearRGB;solid-color:#000000;solid-opacity:1;vector-effect:none;fill:#000000;fill-opacity:1;fill-rule:nonzero;stroke:none;stroke-width:20.51568985;stroke-linecap:butt;stroke-linejoin:miter;stroke-miterlimit:4;stroke-dasharray:none;stroke-dashoffset:0;stroke-opacity:1;color-rendering:auto;image-rendering:auto;shape-rendering:auto;text-rendering:auto;enable-background:accumulate"
       d="m 823.00909,358.68637 c -20.36529,0.19418 -36.83378,8.38363 -47.44055,20.63462 -10.63511,12.28402 -15.58375,28.136 -15.44028,43.74714 0.14253,15.61118 5.37082,31.2744 16.13563,43.18641 10.72961,11.87226 27.19938,19.47362 47.13088,18.85836 19.56601,-0.0455 35.48302,-8.34818 45.589,-20.61266 10.13349,-12.2981 14.79262,-28.05114 14.69211,-43.58105 -0.10133,-15.53001 -4.95378,-31.13234 -15.19675,-43.12684 -10.21638,-11.9635 -26.1918,-19.77147 -45.47004,-19.10598 z m 0.60774,20.49367 c 13.7571,-0.50617 22.73309,4.29382 29.25878,11.93531 6.52573,7.64146 10.21166,18.67812 10.28425,29.93847 0.0738,11.2605 -3.46001,22.45211 -10.00849,30.39904 -6.54806,7.94692 -15.75254,13.16014 -29.91034,13.16014 h -0.17224 l -0.17222,0.006 c -14.72518,0.49464 -24.49657,-4.46917 -31.41099,-12.12013 -6.91442,-7.65092 -10.74035,-18.51854 -10.84216,-29.61893 -0.10224,-11.10049 3.51328,-22.13804 10.435,-30.13272 6.92171,-7.99484 16.95294,-13.44803 32.23776,-13.56115 h 0.15081 z"
       id="path87-11-5-1-3"
       inkscape:connector-curvature="0" />
    <path
       style="color:#000000;font-style:normal;font-variant:normal;font-weight:normal;font-stretch:normal;font-size:medium;line-height:normal;font-family:sans-serif;font-variant-ligatures:normal;font-variant-position:normal;font-variant-caps:normal;font-variant-numeric:normal;font-variant-alternates:normal;font-feature-settings:normal;text-indent:0;text-align:start;text-decoration:none;text-decoration-line:none;text-decoration-style:solid;text-decoration-color:#000000;letter-spacing:normal;word-spacing:normal;text-transform:none;writing-mode:lr-tb;direction:ltr;text-orientation:mixed;dominant-baseline:auto;baseline-shift:baseline;text-anchor:start;white-space:normal;shape-padding:0;clip-rule:nonzero;display:inline;overflow:visible;visibility:visible;opacity:1;isolation:auto;mix-blend-mode:normal;color-interpolation:sRGB;color-interpolation-filters:linearRGB;solid-color:#000000;solid-opacity:1;vector-effect:none;fill:#000000;fill-opacity:1;fill-rule:nonzero;stroke:none;stroke-width:20.51428604;stroke-linecap:butt;stroke-linejoin:miter;stroke-miterlimit:4;stroke-dasharray:none;stroke-dashoffset:0;stroke-opacity:1;color-rendering:auto;image-rendering:auto;shape-rendering:auto;text-rendering:auto;enable-background:accumulate"
       d="m 689.12697,322.36366 -0.1378,20.51552 c 0,0 55.42353,0.36734 111.33068,0.73611 55.90673,0.36889 111.05712,0.73936 114.29335,0.73936 v -20.51557 c -0.62062,0 -58.2496,-0.36738 -114.15546,-0.73617 -55.9063,-0.36883 -111.3307,-0.73925 -111.3307,-0.73925 z"
       id="path1039-4-5"
       inkscape:connector-curvature="0" />
    <path
       style="color:#000000;font-style:normal;font-variant:normal;font-weight:normal;font-stretch:normal;font-size:medium;line-height:normal;font-family:sans-serif;font-variant-ligatures:normal;font-variant-position:normal;font-variant-caps:normal;font-variant-numeric:normal;font-variant-alternates:normal;font-feature-settings:normal;text-indent:0;text-align:start;text-decoration:none;text-decoration-line:none;text-decoration-style:solid;text-decoration-color:#000000;letter-spacing:normal;word-spacing:normal;text-transform:none;writing-mode:lr-tb;direction:ltr;text-orientation:mixed;dominant-baseline:auto;baseline-shift:baseline;text-anchor:start;white-space:normal;shape-padding:0;clip-rule:nonzero;display:inline;overflow:visible;visibility:visible;opacity:1;isolation:auto;mix-blend-mode:normal;color-interpolation:sRGB;color-interpolation-filters:linearRGB;solid-color:#000000;solid-opacity:1;vector-effect:none;fill:#000000;fill-opacity:1;fill-rule:nonzero;stroke:none;stroke-width:20.51568985;stroke-linecap:butt;stroke-linejoin:miter;stroke-miterlimit:4;stroke-dasharray:none;stroke-dashoffset:0;stroke-opacity:1;color-rendering:auto;image-rendering:auto;shape-rendering:auto;text-rendering:auto;enable-background:accumulate"
       d="m 1093.5775,363.1723 c -19.2787,-0.66549 -35.2541,7.14242 -45.4706,19.10593 -10.2424,11.99464 -15.0953,27.59997 -15.1958,43.12999 -0.1017,15.52992 4.5583,31.27984 14.6916,43.57794 10.1026,12.26028 26.0131,20.56163 45.5706,20.6127 19.9401,0.6208 36.4133,-6.98227 47.146,-18.85844 10.7653,-11.91194 15.9928,-27.57513 16.136,-43.18637 0.1425,-15.61119 -4.802,-31.46311 -15.4377,-43.74711 -10.6063,-12.25106 -27.0748,-20.44047 -47.4401,-20.63464 z m -0.6112,20.49367 0.1539,0.006 h 0.1506 c 15.2852,0.11317 25.3131,5.56634 32.2347,13.56114 6.9223,7.9948 10.5399,19.03225 10.4381,30.13274 -0.1018,11.10038 -3.9278,21.96803 -10.8419,29.61899 -6.9142,7.65094 -16.6857,12.61475 -31.4108,12.12012 l -0.1724,-0.006 h -0.172 c -14.1578,0 -23.3624,-5.21631 -29.9104,-13.16333 -6.5485,-7.94696 -10.082,-19.13852 -10.0089,-30.39897 0.072,-11.26042 3.7588,-22.29698 10.2845,-29.93854 6.5259,-7.64151 15.4985,-12.44134 29.2555,-11.93526 z"
       id="path87-11-5-8-6-5"
       inkscape:connector-curvature="0" />
    <path
       style="color:#000000;font-style:normal;font-variant:normal;font-weight:normal;font-stretch:normal;font-size:medium;line-height:normal;font-family:sans-serif;font-variant-ligatures:normal;font-variant-position:normal;font-variant-caps:normal;font-variant-numeric:normal;font-variant-alternates:normal;font-feature-settings:normal;text-indent:0;text-align:start;text-decoration:none;text-decoration-line:none;text-decoration-style:solid;text-decoration-color:#000000;letter-spacing:normal;word-spacing:normal;text-transform:none;writing-mode:lr-tb;direction:ltr;text-orientation:mixed;dominant-baseline:auto;baseline-shift:baseline;text-anchor:start;white-space:normal;shape-padding:0;clip-rule:nonzero;display:inline;overflow:visible;visibility:visible;opacity:1;isolation:auto;mix-blend-mode:normal;color-interpolation:sRGB;color-interpolation-filters:linearRGB;solid-color:#000000;solid-opacity:1;vector-effect:none;fill:#000000;fill-opacity:1;fill-rule:nonzero;stroke:none;stroke-width:20.51428604;stroke-linecap:butt;stroke-linejoin:miter;stroke-miterlimit:4;stroke-dasharray:none;stroke-dashoffset:0;stroke-opacity:1;color-rendering:auto;image-rendering:auto;shape-rendering:auto;text-rendering:auto;enable-background:accumulate"
       d="m 1092.3929,274.20262 c -39.3533,-0.71917 -77.3367,21.64922 -123.56953,67.36089 l 14.42582,14.58859 c 44.62231,-44.11909 77.45521,-62.01244 108.77131,-61.44018 31.3158,0.57229 64.7256,20.12341 109.294,57.83141 l 13.2479,-15.65997 c -45.7026,-38.66758 -82.8154,-61.96158 -122.1695,-62.68074 z"
       id="path59-1-3-2"
       inkscape:connector-curvature="0" />
  </g>
</svg>
