<?xml version="1.0" encoding="UTF-8" standalone="no"?>
<!-- Created with Inkscape (http://www.inkscape.org/) -->

<svg
   xmlns:dc="http://purl.org/dc/elements/1.1/"
   xmlns:cc="http://creativecommons.org/ns#"
   xmlns:rdf="http://www.w3.org/1999/02/22-rdf-syntax-ns#"
   xmlns:svg="http://www.w3.org/2000/svg"
   xmlns="http://www.w3.org/2000/svg"
   xmlns:sodipodi="http://sodipodi.sourceforge.net/DTD/sodipodi-0.dtd"
   xmlns:inkscape="http://www.inkscape.org/namespaces/inkscape"
   width="1000"
   height="1000"
   viewBox="0 0 1000 1000"
   version="1.1"
   id="svg8"
   inkscape:version="0.92.4 (5da689c313, 2019-01-14)"
   sodipodi:docname="Caverna.svg">
  <defs
     id="defs2" />
  <sodipodi:namedview
     id="base"
     pagecolor="#ffffff"
     bordercolor="#666666"
     borderopacity="1.0"
     inkscape:pageopacity="0.0"
     inkscape:pageshadow="2"
     inkscape:zoom="1.4142136"
     inkscape:cx="250.9231"
     inkscape:cy="720.67956"
     inkscape:document-units="px"
     inkscape:current-layer="layer1"
     showgrid="false"
     units="px"
     inkscape:window-width="681"
     inkscape:window-height="706"
     inkscape:window-x="-7"
     inkscape:window-y="0"
     inkscape:window-maximized="0" />
  <metadata
     id="metadata5">
    <rdf:RDF>
      <cc:Work
         rdf:about="">
        <dc:format>image/svg+xml</dc:format>
        <dc:type
           rdf:resource="http://purl.org/dc/dcmitype/StillImage" />
        <dc:title></dc:title>
      </cc:Work>
    </rdf:RDF>
  </metadata>
  <g
     inkscape:label="Camada 1"
     inkscape:groupmode="layer"
     id="layer1"
     transform="translate(0,-32.41665)">
    <path
       style="color:#000000;font-style:normal;font-variant:normal;font-weight:normal;font-stretch:normal;font-size:medium;line-height:normal;font-family:sans-serif;font-variant-ligatures:normal;font-variant-position:normal;font-variant-caps:normal;font-variant-numeric:normal;font-variant-alternates:normal;font-feature-settings:normal;text-indent:0;text-align:start;text-decoration:none;text-decoration-line:none;text-decoration-style:solid;text-decoration-color:#000000;letter-spacing:normal;word-spacing:normal;text-transform:none;writing-mode:lr-tb;direction:ltr;text-orientation:mixed;dominant-baseline:auto;baseline-shift:baseline;text-anchor:start;white-space:normal;shape-padding:0;clip-rule:nonzero;display:inline;overflow:visible;visibility:visible;opacity:1;isolation:auto;mix-blend-mode:normal;color-interpolation:sRGB;color-interpolation-filters:linearRGB;solid-color:#000000;solid-opacity:1;vector-effect:none;fill:#000000;fill-opacity:1;fill-rule:nonzero;stroke:none;stroke-width:11.41926098;stroke-linecap:butt;stroke-linejoin:miter;stroke-miterlimit:4;stroke-dasharray:none;stroke-dashoffset:0;stroke-opacity:1;color-rendering:auto;image-rendering:auto;shape-rendering:auto;text-rendering:auto;enable-background:accumulate"
       d="m 1.0719945,659.98468 -0.3102758,11.4137 c 123.4912213,3.35216 239.8664413,8.35557 265.2117013,9.68505 l 0.16991,0.008 h 0.17729 c 4.39189,-0.039 14.87983,1.61871 27.76227,4.98657 12.88243,3.36785 28.48383,8.38117 44.56886,14.82673 32.17006,12.89112 66.27463,31.74097 84.76433,53.61119 l 0.23639,0.28065 0.27347,0.25116 c 0,0 15.87147,14.48972 31.64074,29.43925 7.88462,7.47476 15.74752,15.06643 21.52719,20.95836 2.88983,2.946 5.26779,5.4871 6.78912,7.26191 0.45056,0.52561 0.62413,0.77933 0.9013,1.13772 l -0.14789,0.90127 2.08327,2.06848 c 0,0 14.59722,14.48333 30.39225,29.83078 7.89751,7.67376 16.09134,15.56559 22.93822,21.99261 6.84691,6.42708 11.95456,11.14456 15.18136,13.46745 l 0.31772,0.22885 0.34723,0.18457 c 0,0 3.91967,2.03241 6.84082,7.45399 2.92116,5.42155 4.92519,14.01389 -1.57352,28.76698 l -0.37672,0.85694 -0.0813,0.93823 c 0,0 -1.53902,17.06422 -8.1041,35.71863 -6.56505,18.65437 -17.99605,37.91359 -36.39088,43.95575 l -1.52922,0.5097 -1.04164,1.2263 c 0,0 -5.66192,6.2412 -11.08865,8.5695 -2.71335,1.1642 -4.72215,1.3389 -6.55273,0.4655 -1.76505,-0.8421 -4.27313,-3.4056 -6.53054,-9.8033 -0.0809,-0.8893 -2.1455,-24.27946 9.78103,-34.77302 l -7.54264,-8.56954 c -18.47622,16.25629 -13.57086,45.38156 -13.57086,45.38156 l 0.0738,0.5319 0.16983,0.5098 c 2.89513,8.6721 7.13891,14.3754 12.69912,17.0282 5.56022,2.6527 11.44572,1.6643 15.9792,-0.2807 8.27897,-3.5521 13.5884,-9.7631 14.55337,-10.9187 22.42147,-8.4083 34.86316,-30.44138 41.76163,-50.0431 6.88182,-19.55447 8.4982,-36.66998 8.59907,-37.76498 7.01481,-16.66774 5.23069,-29.5345 0.81999,-37.72062 -4.5095,-8.36952 -11.54667,-12.13029 -11.54667,-12.13029 l 0.66488,0.41368 c -1.52768,-1.09973 -7.28137,-6.18158 -14.04367,-12.52921 -6.7623,-6.34764 -14.92699,-14.21179 -22.79784,-21.85967 -15.29046,-14.85718 -28.6315,-28.09867 -29.43185,-28.89256 -0.25154,-0.49715 -0.50575,-0.94121 -0.76832,-1.32974 -0.64952,-0.96114 -1.40143,-1.88375 -2.31968,-2.955 -1.83654,-2.14251 -4.32212,-4.78131 -7.30625,-7.82338 -5.96822,-6.08415 -13.88665,-13.73033 -21.8227,-21.25388 -15.87212,-15.04705 -31.79586,-29.58696 -31.79586,-29.58696 l 0.50972,0.53188 c -20.8001,-24.60311 -56.13092,-43.57464 -89.23374,-56.8395 -16.55142,-6.63246 -32.54674,-11.7791 -45.92817,-15.27741 -13.38143,-3.49827 -23.83374,-5.41754 -30.75422,-5.35593 l 0.3546,0.008 C 240.89939,668.3314 124.67665,663.34086 1.0720346,659.9856 Z"
       id="path1244"
       inkscape:connector-curvature="0" />
    <path
       style="color:#000000;font-style:normal;font-variant:normal;font-weight:normal;font-stretch:normal;font-size:medium;line-height:normal;font-family:sans-serif;font-variant-ligatures:normal;font-variant-position:normal;font-variant-caps:normal;font-variant-numeric:normal;font-variant-alternates:normal;font-feature-settings:normal;text-indent:0;text-align:start;text-decoration:none;text-decoration-line:none;text-decoration-style:solid;text-decoration-color:#000000;letter-spacing:normal;word-spacing:normal;text-transform:none;writing-mode:lr-tb;direction:ltr;text-orientation:mixed;dominant-baseline:auto;baseline-shift:baseline;text-anchor:start;white-space:normal;shape-padding:0;clip-rule:nonzero;display:inline;overflow:visible;visibility:visible;opacity:1;isolation:auto;mix-blend-mode:normal;color-interpolation:sRGB;color-interpolation-filters:linearRGB;solid-color:#000000;solid-opacity:1;vector-effect:none;fill:#000000;fill-opacity:1;fill-rule:nonzero;stroke:none;stroke-width:11.41926098;stroke-linecap:butt;stroke-linejoin:miter;stroke-miterlimit:4;stroke-dasharray:none;stroke-dashoffset:0;stroke-opacity:1;color-rendering:auto;image-rendering:auto;shape-rendering:auto;text-rendering:auto;enable-background:accumulate"
       d="m 475.22472,878.49252 -11.39893,0.76091 c 1.4209,21.33602 17.90857,34.63485 26.12225,39.98862 -4.52278,10.80339 -4.80483,21.35002 -3.62726,29.36535 0.68224,4.64378 1.75674,8.49873 2.57824,11.15516 0.41073,1.32823 0.76496,2.38488 0.93081,2.92546 0.0828,0.27044 0.11385,0.46554 0.059,0.16983 -0.0265,-0.14789 -0.12406,-0.36992 -0.059,-1.2485 0.034,-0.43932 0.0741,-1.09458 0.57622,-2.09065 0.50226,-0.99605 1.81227,-2.36665 3.36135,-2.85159 l 3.41301,10.89659 c 1.57621,-0.49342 2.90296,-1.8771 3.42043,-2.90331 0.51748,-1.02621 0.57678,-1.71808 0.61317,-2.20885 0.0726,-0.98157 -0.0413,-1.35054 -0.10364,-1.68434 -0.12406,-0.66767 -0.24131,-1.00809 -0.36916,-1.42581 -0.25645,-0.83546 -0.57357,-1.76835 -0.93823,-2.9476 -0.72936,-2.35852 -1.62295,-5.60393 -2.18672,-9.44126 -1.12749,-7.67466 -0.93751,-17.49076 4.52856,-27.28946 l 2.88114,-5.15648 -5.25993,-2.70385 c 0,0 -23.15525,-12.49753 -24.54131,-33.3103 z"
       id="path1246"
       inkscape:connector-curvature="0" />
    <path
       style="color:#000000;font-style:normal;font-variant:normal;font-weight:normal;font-stretch:normal;font-size:medium;line-height:normal;font-family:sans-serif;font-variant-ligatures:normal;font-variant-position:normal;font-variant-caps:normal;font-variant-numeric:normal;font-variant-alternates:normal;font-feature-settings:normal;text-indent:0;text-align:start;text-decoration:none;text-decoration-line:none;text-decoration-style:solid;text-decoration-color:#000000;letter-spacing:normal;word-spacing:normal;text-transform:none;writing-mode:lr-tb;direction:ltr;text-orientation:mixed;dominant-baseline:auto;baseline-shift:baseline;text-anchor:start;white-space:normal;shape-padding:0;clip-rule:nonzero;display:inline;overflow:visible;visibility:visible;opacity:1;isolation:auto;mix-blend-mode:normal;color-interpolation:sRGB;color-interpolation-filters:linearRGB;solid-color:#000000;solid-opacity:1;vector-effect:none;fill:#000000;fill-opacity:1;fill-rule:nonzero;stroke:none;stroke-width:11.41926098;stroke-linecap:butt;stroke-linejoin:miter;stroke-miterlimit:4;stroke-dasharray:none;stroke-dashoffset:0;stroke-opacity:1;color-rendering:auto;image-rendering:auto;shape-rendering:auto;text-rendering:auto;enable-background:accumulate"
       d="m 419.30865,844.25142 -8.59908,7.44661 c 17.79244,24.45318 32.28356,34.7703 43.1357,38.77704 5.42605,2.00339 9.91433,2.37615 13.16455,2.12023 3.25022,-0.25607 5.7844,-1.39624 5.7844,-1.39624 l -5.06782,-10.23171 c 0,0 0.0113,0.11612 -1.61047,0.24397 -1.62205,0.12784 -4.35288,0.0152 -8.31835,-1.44794 -18.70821,-9.13098 -28.85172,-22.23951 -38.48893,-35.51196 z"
       id="path1248"
       inkscape:connector-curvature="0"
       sodipodi:nodetypes="ccccccccc" />
    <path
       style="color:#000000;font-style:normal;font-variant:normal;font-weight:normal;font-stretch:normal;font-size:medium;line-height:normal;font-family:sans-serif;font-variant-ligatures:normal;font-variant-position:normal;font-variant-caps:normal;font-variant-numeric:normal;font-variant-alternates:normal;font-feature-settings:normal;text-indent:0;text-align:start;text-decoration:none;text-decoration-line:none;text-decoration-style:solid;text-decoration-color:#000000;letter-spacing:normal;word-spacing:normal;text-transform:none;writing-mode:lr-tb;direction:ltr;text-orientation:mixed;dominant-baseline:auto;baseline-shift:baseline;text-anchor:start;white-space:normal;shape-padding:0;clip-rule:nonzero;display:inline;overflow:visible;visibility:visible;opacity:1;isolation:auto;mix-blend-mode:normal;color-interpolation:sRGB;color-interpolation-filters:linearRGB;solid-color:#000000;solid-opacity:1;vector-effect:none;fill:#000000;fill-opacity:1;fill-rule:nonzero;stroke:none;stroke-width:11.41926098;stroke-linecap:butt;stroke-linejoin:miter;stroke-miterlimit:4;stroke-dasharray:none;stroke-dashoffset:0;stroke-opacity:1;color-rendering:auto;image-rendering:auto;shape-rendering:auto;text-rendering:auto;enable-background:accumulate"
       d="m 478.4974,984.96137 c 0,0 -3.71455,5.74789 -6.16857,13.4896 -2.44957,7.72763 -4.00171,18.25423 1.8395,27.42243 0.0405,0.057 4.17297,5.9061 11.67965,6.4567 7.54341,0.5533 17.21094,-3.3051 30.06715,-16.0309 l -8.0302,-8.1115 c -11.63082,11.5129 -18.4182,12.9551 -21.20217,12.7509 -2.78397,-0.2043 -2.82205,-1.0934 -2.82201,-1.0934 l -0.0227,-0.038 -0.0302,-0.044 c -3.12658,-4.8821 -2.53834,-11.7197 -0.59101,-17.8629 1.94734,-6.14328 4.89054,-10.77106 4.89054,-10.77106 z"
       id="path1250"
       inkscape:connector-curvature="0" />
    <path
       style="color:#000000;font-style:normal;font-variant:normal;font-weight:normal;font-stretch:normal;font-size:medium;line-height:normal;font-family:sans-serif;font-variant-ligatures:normal;font-variant-position:normal;font-variant-caps:normal;font-variant-numeric:normal;font-variant-alternates:normal;font-feature-settings:normal;text-indent:0;text-align:start;text-decoration:none;text-decoration-line:none;text-decoration-style:solid;text-decoration-color:#000000;letter-spacing:normal;word-spacing:normal;text-transform:none;writing-mode:lr-tb;direction:ltr;text-orientation:mixed;dominant-baseline:auto;baseline-shift:baseline;text-anchor:start;white-space:normal;shape-padding:0;clip-rule:nonzero;display:inline;overflow:visible;visibility:visible;opacity:1;isolation:auto;mix-blend-mode:normal;color-interpolation:sRGB;color-interpolation-filters:linearRGB;solid-color:#000000;solid-opacity:1;vector-effect:none;fill:#000000;fill-opacity:1;fill-rule:nonzero;stroke:none;stroke-width:11.41926098;stroke-linecap:butt;stroke-linejoin:miter;stroke-miterlimit:4;stroke-dasharray:none;stroke-dashoffset:0;stroke-opacity:1;color-rendering:auto;image-rendering:auto;shape-rendering:auto;text-rendering:auto;enable-background:accumulate"
       d="m 540.641,912.42339 -11.40616,0.42847 c 0.26741,27.73201 -2.12477,42.52084 -4.35866,50.28679 -1.1169,3.88298 -2.15102,5.9759 -2.91067,7.32104 -0.3798,0.67256 -0.69132,1.14585 -1.07856,1.79513 -0.10704,0.17929 -0.19971,0.83437 -0.34722,1.07859 -14.49381,15.76413 -11.78308,36.42779 -11.78308,36.42779 l 11.31765,-1.5292 c 0,0 -2.05838,-16.35557 9.34523,-27.96169 l 1.59568,-1.62526 0.0152,-1.10076 c 0.23489,-0.37786 0.47042,-0.74642 0.87912,-1.47011 1.12874,-1.9987 2.5999,-5.09773 3.94493,-9.77366 4.03246,-21.66244 4.87619,-38.15073 4.78654,-53.87713 z"
       id="path1254"
       inkscape:connector-curvature="0"
       sodipodi:nodetypes="cccccccccccccc" />
    <path
       style="color:#000000;font-style:normal;font-variant:normal;font-weight:normal;font-stretch:normal;font-size:medium;line-height:normal;font-family:sans-serif;font-variant-ligatures:normal;font-variant-position:normal;font-variant-caps:normal;font-variant-numeric:normal;font-variant-alternates:normal;font-feature-settings:normal;text-indent:0;text-align:start;text-decoration:none;text-decoration-line:none;text-decoration-style:solid;text-decoration-color:#000000;letter-spacing:normal;word-spacing:normal;text-transform:none;writing-mode:lr-tb;direction:ltr;text-orientation:mixed;dominant-baseline:auto;baseline-shift:baseline;text-anchor:start;white-space:normal;shape-padding:0;clip-rule:nonzero;display:inline;overflow:visible;visibility:visible;opacity:1;isolation:auto;mix-blend-mode:normal;color-interpolation:sRGB;color-interpolation-filters:linearRGB;solid-color:#000000;solid-opacity:1;vector-effect:none;fill:#000000;fill-opacity:1;fill-rule:nonzero;stroke:none;stroke-width:11.41926098;stroke-linecap:butt;stroke-linejoin:miter;stroke-miterlimit:4;stroke-dasharray:none;stroke-dashoffset:0;stroke-opacity:1;color-rendering:auto;image-rendering:auto;shape-rendering:auto;text-rendering:auto;enable-background:accumulate"
       d="m 502.13744,837.40318 -9.27873,6.64875 c 19.78694,27.60684 28.00574,41.45067 31.13836,47.96712 1.54322,3.2102 1.74922,4.53941 1.75084,4.52856 -0.0265,0.14033 -0.0428,0.12331 -0.0666,0.5393 -0.0428,0.74718 0.14904,2.17333 0.68704,3.19878 l -0.4728,-1.23371 c 3.30004,12.83333 3.32319,13.64594 3.35395,14.11754 l 11.3915,-0.74613 c -0.0643,-0.98736 -0.56092,-3.90685 -3.54601,-15.59505 0.0302,-0.47438 0.1044,-0.78118 0.0518,-1.32236 -0.21143,-2.16472 -0.98736,-4.53587 -2.85896,-8.42918 -3.74326,-7.78657 -12.18809,-21.82202 -32.15046,-49.67362 z m 34.92815,60.25257 c -6.4e-4,0.0189 0.0152,0.064 0.0152,0.0813 -0.034,0.59043 -0.0741,0.61967 -0.0378,0.41372 0.0152,-0.0771 0.008,-0.37143 0.0227,-0.49497 z"
       id="path1256"
       inkscape:connector-curvature="0" />
    <path
       style="color:#000000;font-style:normal;font-variant:normal;font-weight:normal;font-stretch:normal;font-size:medium;line-height:normal;font-family:sans-serif;font-variant-ligatures:normal;font-variant-position:normal;font-variant-caps:normal;font-variant-numeric:normal;font-variant-alternates:normal;font-feature-settings:normal;text-indent:0;text-align:start;text-decoration:none;text-decoration-line:none;text-decoration-style:solid;text-decoration-color:#000000;letter-spacing:normal;word-spacing:normal;text-transform:none;writing-mode:lr-tb;direction:ltr;text-orientation:mixed;dominant-baseline:auto;baseline-shift:baseline;text-anchor:start;white-space:normal;shape-padding:0;clip-rule:nonzero;display:inline;overflow:visible;visibility:visible;opacity:1;isolation:auto;mix-blend-mode:normal;color-interpolation:sRGB;color-interpolation-filters:linearRGB;solid-color:#000000;solid-opacity:1;vector-effect:none;fill:#000000;fill-opacity:1;fill-rule:nonzero;stroke:none;stroke-width:11.41926098;stroke-linecap:butt;stroke-linejoin:miter;stroke-miterlimit:4;stroke-dasharray:none;stroke-dashoffset:0;stroke-opacity:1;color-rendering:auto;image-rendering:auto;shape-rendering:auto;text-rendering:auto;enable-background:accumulate"
       d="m 139.90552,778.99753 c -10.77499,-0.44776 -25.14875,0.0189 -41.148444,0.88648 -31.999398,1.73806 -70.414914,5.12765 -97.0940806,6.41977 l 0.5540636,11.40629 c 27.110184,-1.31298 65.471102,-4.69853 97.160566,-6.41972 15.844735,-0.86061 30.042795,-1.29518 40.055095,-0.87914 5.00615,0.20803 9.00418,0.66109 11.28812,1.21157 0.91996,0.22166 1.26609,0.39825 1.47011,0.48755 1.1031,3.34343 3.20763,5.70009 5.82876,7.95638 3.3363,2.87193 7.56989,5.66657 12.22633,8.22968 8.28642,4.5612 17.39251,8.01802 25.78981,8.62124 1.08894,1.37365 7.99217,10.21583 20.2861,21.80055 12.60669,11.8794 29.50926,25.12402 48.14442,31.95096 0.61807,1.20943 3.15159,5.96142 5.3855,13.82942 2.49657,8.79316 3.52225,19.27212 0.14037,26.19612 l -0.37677,0.7757 -0.13298,0.84956 c 0,0 -1.36913,8.77919 -1.95771,18.7643 -0.29427,4.99254 -0.40583,10.30309 -0.0148,15.18133 0.3139,3.91563 1.03862,7.44782 2.60041,10.76359 -0.12035,1.19006 -1.23019,11.93841 -1.75823,25.15448 -0.2782,6.96322 -0.37473,14.26875 -0.0148,20.67026 0.35873,6.3797 0.69717,11.5405 3.31699,16.127 0.0645,0.1176 3.41884,6.2208 10.771,9.3451 7.42324,3.1547 19.91458,1.6118 33.44333,-7.6977 l -7.71266,-8.2445 c -11.40986,7.8514 -17.53776,7.0153 -21.26864,5.4298 -3.73089,-1.5855 -5.25253,-4.3586 -5.25253,-4.3586 l -0.0371,-0.059 -0.0295,-0.059 c -0.27835,-0.4839 -1.50672,-5.3387 -1.8321,-11.1255 -0.32536,-5.78674 -0.24003,-12.82277 0.0295,-19.56952 0.53912,-13.49351 1.80255,-25.79719 1.80255,-25.79719 l 0.21424,-2.09069 -1.19678,-1.72867 c -0.32392,-0.47038 -1.36911,-3.65112 -1.69174,-7.67563 -0.32264,-4.02453 -0.24567,-8.92407 0.0295,-13.59303 0.54791,-9.29503 1.82035,-17.52098 1.83211,-17.59705 4.65629,-10.95592 2.81114,-23.16349 0.0812,-32.7784 -2.85629,-10.0601 -6.9221,-17.69308 -6.9221,-17.69308 l -2.46705,-2.42337 -0.79084,-0.32477 c -16.87476,-5.54441 -33.93425,-18.68762 -46.50439,-30.53261 -12.57014,-11.84498 -20.62594,-22.14777 -20.62594,-22.14777 l -1.78778,-2.29013 -2.8959,0.0961 c -4.48984,0.1479 -14.86853,-3.24432 -23.09337,-7.77164 -4.11241,-2.26365 -7.823,-4.76722 -10.28341,-6.88518 -2.46042,-2.11792 -2.9445,-4.41335 -2.84419,-2.60778 l -0.0148,-0.22165 -0.0295,-0.21408 c -0.38138,-2.86722 -2.39884,-4.84826 -4.05574,-5.86569 -1.65692,-1.01743 -3.29998,-1.53955 -5.12694,-1.97986 -3.65391,-0.88066 -8.10211,-1.29797 -13.4896,-1.52181 z m 11.31028,10.43116 c 0.0253,0.4574 0.31901,0.64762 0.38415,1.06379 -0.14033,-0.30448 -0.28564,-0.22051 -0.33981,-0.62794 z"
       id="path1258"
       inkscape:connector-curvature="0"
       sodipodi:nodetypes="ccccscccccccccccccccccccccscccccccccccccccscccscccccccccccc" />
    <path
       style="color:#000000;font-style:normal;font-variant:normal;font-weight:normal;font-stretch:normal;font-size:medium;line-height:normal;font-family:sans-serif;font-variant-ligatures:normal;font-variant-position:normal;font-variant-caps:normal;font-variant-numeric:normal;font-variant-alternates:normal;font-feature-settings:normal;text-indent:0;text-align:start;text-decoration:none;text-decoration-line:none;text-decoration-style:solid;text-decoration-color:#000000;letter-spacing:normal;word-spacing:normal;text-transform:none;writing-mode:lr-tb;direction:ltr;text-orientation:mixed;dominant-baseline:auto;baseline-shift:baseline;text-anchor:start;white-space:normal;shape-padding:0;clip-rule:nonzero;display:inline;overflow:visible;visibility:visible;opacity:1;isolation:auto;mix-blend-mode:normal;color-interpolation:sRGB;color-interpolation-filters:linearRGB;solid-color:#000000;solid-opacity:1;vector-effect:none;fill:#000000;fill-opacity:1;fill-rule:nonzero;stroke:none;stroke-width:11.41926098;stroke-linecap:butt;stroke-linejoin:miter;stroke-miterlimit:4;stroke-dasharray:none;stroke-dashoffset:0;stroke-opacity:1;color-rendering:auto;image-rendering:auto;shape-rendering:auto;text-rendering:auto;enable-background:accumulate"
       d="m 386.98829,857.06875 c -12.61775,-0.49694 -22.56887,2.30491 -22.56887,2.30491 l -3.05843,0.79783 -0.93822,3.0215 c -1.53825,4.9343 -6.60075,7.35618 -12.6548,8.56953 -6.05406,1.21333 -11.7757,0.77566 -11.7757,0.77566 l -1.86165,0.15515 -4.29215,6.10946 c 0.0268,0.26628 -0.10461,0.62568 -0.82001,1.34454 -0.71539,0.71887 -1.44057,1.13029 -1.44057,1.13029 l -4.54332,2.37879 1.88383,4.77234 c 1.88048,4.75486 1.13285,17.44847 -0.98254,28.07991 -2.11541,10.63144 -4.94964,19.49565 -4.94964,19.49565 l -0.54668,1.70652 0.52451,1.7065 c 13.05679,42.63578 -12.04164,74.11897 -12.04164,74.11897 l 8.94627,7.092 c 0,0 27.81736,-35.55259 14.39088,-82.72541 0.40379,-1.28235 2.7886,-8.68111 4.87576,-19.17059 1.95351,-9.81777 3.57427,-20.77045 1.45534,-30.13365 0.25169,-0.22466 0.26469,-0.13805 0.51713,-0.39155 1.08769,-1.09297 2.22588,-2.69462 3.05843,-4.61718 2.6983,0.064 4.63518,0.41523 9.84017,-0.62796 6.91209,-1.38531 15.23321,-5.0699 19.48826,-12.92814 5.53104,-1.12891 33.03123,-5.81058 47.19143,11.69444 l -1.15984,-2.46741 c 0.57144,2.84134 1.36704,3.11911 2.17193,4.11484 0.80486,0.99571 1.76934,2.01809 2.91805,3.13228 2.29748,2.22844 5.31511,4.77457 8.82069,7.225 7.01119,4.90087 15.76904,9.79783 25.22835,9.04971 l 4.15917,-9.0645 c -4.31823,0.34155 -16.88799,-5.18314 -22.84218,-9.34519 -2.9771,-2.081 -5.61018,-4.31255 -7.41707,-6.06517 -0.90343,-0.87627 -1.6064,-1.64171 -1.98724,-2.1128 -0.38081,-0.47111 -0.29314,-1.33557 0.14032,0.82002 l -0.27346,-1.37407 -0.88653,-1.09338 C 414.88921,861.35833 399.60583,857.56568 386.9881,857.06875 Z"
       id="path1260"
       inkscape:connector-curvature="0"
       sodipodi:nodetypes="cccccccccccccccccccsccccccccsccccccccccc" />
    <path
       style="color:#000000;font-style:normal;font-variant:normal;font-weight:normal;font-stretch:normal;font-size:medium;line-height:normal;font-family:sans-serif;font-variant-ligatures:normal;font-variant-position:normal;font-variant-caps:normal;font-variant-numeric:normal;font-variant-alternates:normal;font-feature-settings:normal;text-indent:0;text-align:start;text-decoration:none;text-decoration-line:none;text-decoration-style:solid;text-decoration-color:#000000;letter-spacing:normal;word-spacing:normal;text-transform:none;writing-mode:lr-tb;direction:ltr;text-orientation:mixed;dominant-baseline:auto;baseline-shift:baseline;text-anchor:start;white-space:normal;shape-padding:0;clip-rule:nonzero;display:inline;overflow:visible;visibility:visible;opacity:1;isolation:auto;mix-blend-mode:normal;color-interpolation:sRGB;color-interpolation-filters:linearRGB;solid-color:#000000;solid-opacity:1;vector-effect:none;fill:#000000;fill-opacity:1;fill-rule:nonzero;stroke:none;stroke-width:11.41926098;stroke-linecap:butt;stroke-linejoin:miter;stroke-miterlimit:4;stroke-dasharray:none;stroke-dashoffset:0;stroke-opacity:1;color-rendering:auto;image-rendering:auto;shape-rendering:auto;text-rendering:auto;enable-background:accumulate"
       d="m 458.82443,893.71818 -9.2122,6.74482 c 0,0 4.85812,6.64237 11.31027,13.46004 3.22608,3.40882 6.85637,6.89575 10.69713,9.73675 3.84077,2.841 7.82742,5.25206 12.7065,5.62928 l 6.14641,-5.9248 c -1.01856,-0.0787 -9.07108,-6.67345 -12.06379,-8.88718 -2.99272,-2.2137 -6.25365,-5.29681 -9.19007,-8.3996 -5.87284,-6.20553 -10.39425,-12.35931 -10.39425,-12.35931 z"
       id="path1262"
       inkscape:connector-curvature="0"
       sodipodi:nodetypes="ccccccccc" />
    <path
       style="color:#000000;font-style:normal;font-variant:normal;font-weight:normal;font-stretch:normal;font-size:medium;line-height:normal;font-family:sans-serif;font-variant-ligatures:normal;font-variant-position:normal;font-variant-caps:normal;font-variant-numeric:normal;font-variant-alternates:normal;font-feature-settings:normal;text-indent:0;text-align:start;text-decoration:none;text-decoration-line:none;text-decoration-style:solid;text-decoration-color:#000000;letter-spacing:normal;word-spacing:normal;text-transform:none;writing-mode:lr-tb;direction:ltr;text-orientation:mixed;dominant-baseline:auto;baseline-shift:baseline;text-anchor:start;white-space:normal;shape-padding:0;clip-rule:nonzero;display:inline;overflow:visible;visibility:visible;opacity:1;isolation:auto;mix-blend-mode:normal;color-interpolation:sRGB;color-interpolation-filters:linearRGB;solid-color:#000000;solid-opacity:1;vector-effect:none;fill:#000000;fill-opacity:1;fill-rule:nonzero;stroke:none;stroke-width:11.41926098;stroke-linecap:butt;stroke-linejoin:miter;stroke-miterlimit:4;stroke-dasharray:none;stroke-dashoffset:0;stroke-opacity:1;color-rendering:auto;image-rendering:auto;shape-rendering:auto;text-rendering:auto;enable-background:accumulate"
       d="m 490.47254,923.36427 -11.41371,0.45805 c 0,0 0.32756,8.19825 1.64743,17.61182 1.31987,9.41355 2.77219,19.79879 8.61382,26.728 l 8.72469,-7.35794 c -1.79665,-2.13113 -4.79912,-12.1923 -6.02825,-20.95836 -1.22909,-8.7661 -1.54398,-16.48157 -1.54398,-16.48157 z"
       id="path1264"
       inkscape:connector-curvature="0" />
    <path
       style="color:#000000;font-style:normal;font-variant:normal;font-weight:normal;font-stretch:normal;font-size:medium;line-height:normal;font-family:sans-serif;font-variant-ligatures:normal;font-variant-position:normal;font-variant-caps:normal;font-variant-numeric:normal;font-variant-alternates:normal;font-feature-settings:normal;text-indent:0;text-align:start;text-decoration:none;text-decoration-line:none;text-decoration-style:solid;text-decoration-color:#000000;letter-spacing:normal;word-spacing:normal;text-transform:none;writing-mode:lr-tb;direction:ltr;text-orientation:mixed;dominant-baseline:auto;baseline-shift:baseline;text-anchor:start;white-space:normal;shape-padding:0;clip-rule:nonzero;display:inline;overflow:visible;visibility:visible;opacity:1;isolation:auto;mix-blend-mode:normal;color-interpolation:sRGB;color-interpolation-filters:linearRGB;solid-color:#000000;solid-opacity:1;vector-effect:none;fill:#000000;fill-opacity:1;fill-rule:nonzero;stroke:none;stroke-width:11.41926098;stroke-linecap:butt;stroke-linejoin:miter;stroke-miterlimit:4;stroke-dasharray:none;stroke-dashoffset:0;stroke-opacity:1;color-rendering:auto;image-rendering:auto;shape-rendering:auto;text-rendering:auto;enable-background:accumulate"
       d="m 245.3992,771.71341 c -15.08122,0.56751 -29.23303,4.04812 -41.51782,11.53192 l 5.93956,9.75153 c 27.27894,-16.61816 70.17446,-9.95738 110.22908,5.65882 40.05461,15.6162 77.08802,39.93877 91.29488,53.77372 l 7.96375,-8.17798 C 402.91736,828.28925 365.72531,804.20655 324.2018,788.01766 298.24961,777.89961 270.53458,770.76758 245.3992,771.71341 Z"
       id="path1266"
       inkscape:connector-curvature="0" />
    <path
       style="color:#000000;font-style:normal;font-variant:normal;font-weight:normal;font-stretch:normal;font-size:medium;line-height:normal;font-family:sans-serif;font-variant-ligatures:normal;font-variant-position:normal;font-variant-caps:normal;font-variant-numeric:normal;font-variant-alternates:normal;font-feature-settings:normal;text-indent:0;text-align:start;text-decoration:none;text-decoration-line:none;text-decoration-style:solid;text-decoration-color:#000000;letter-spacing:normal;word-spacing:normal;text-transform:none;writing-mode:lr-tb;direction:ltr;text-orientation:mixed;dominant-baseline:auto;baseline-shift:baseline;text-anchor:start;white-space:normal;shape-padding:0;clip-rule:nonzero;display:inline;overflow:visible;visibility:visible;opacity:1;isolation:auto;mix-blend-mode:normal;color-interpolation:sRGB;color-interpolation-filters:linearRGB;solid-color:#000000;solid-opacity:1;vector-effect:none;fill:#000000;fill-opacity:1;fill-rule:nonzero;stroke:none;stroke-width:11.41926098;stroke-linecap:butt;stroke-linejoin:miter;stroke-miterlimit:4;stroke-dasharray:none;stroke-dashoffset:0;stroke-opacity:1;color-rendering:auto;image-rendering:auto;shape-rendering:auto;text-rendering:auto;enable-background:accumulate"
       d="m 271.44758,861.26487 -5.14171,10.20214 c 0,0 9.90854,4.99402 23.47751,9.01275 13.56897,4.01877 31.00894,7.33284 47.12494,3.28744 l -2.7777,-11.07387 c -12.6658,3.17934 -28.54647,0.55738 -41.10412,-3.16185 -12.55765,-3.71925 -21.57892,-8.26661 -21.57892,-8.26661 z"
       id="path1268"
       inkscape:connector-curvature="0" />
    <path
       style="color:#000000;font-style:normal;font-variant:normal;font-weight:normal;font-stretch:normal;font-size:medium;line-height:normal;font-family:sans-serif;font-variant-ligatures:normal;font-variant-position:normal;font-variant-caps:normal;font-variant-numeric:normal;font-variant-alternates:normal;font-feature-settings:normal;text-indent:0;text-align:start;text-decoration:none;text-decoration-line:none;text-decoration-style:solid;text-decoration-color:#000000;letter-spacing:normal;word-spacing:normal;text-transform:none;writing-mode:lr-tb;direction:ltr;text-orientation:mixed;dominant-baseline:auto;baseline-shift:baseline;text-anchor:start;white-space:normal;shape-padding:0;clip-rule:nonzero;display:inline;overflow:visible;visibility:visible;opacity:1;isolation:auto;mix-blend-mode:normal;color-interpolation:sRGB;color-interpolation-filters:linearRGB;solid-color:#000000;solid-opacity:1;vector-effect:none;fill:#000000;fill-opacity:1;fill-rule:nonzero;stroke:none;stroke-width:11.41926098;stroke-linecap:butt;stroke-linejoin:miter;stroke-miterlimit:4;stroke-dasharray:none;stroke-dashoffset:0;stroke-opacity:1;color-rendering:auto;image-rendering:auto;shape-rendering:auto;text-rendering:auto;enable-background:accumulate"
       d="m 321.65311,932.74641 c -4.55624,2.52272 -14.05105,1.65481 -14.05105,1.65481 l -1.82471,11.27334 c 0,0 11.53732,2.53293 21.40901,-2.93283 z"
       id="path1270"
       inkscape:connector-curvature="0" />
    <path
       style="color:#000000;font-style:normal;font-variant:normal;font-weight:normal;font-stretch:normal;font-size:medium;line-height:normal;font-family:sans-serif;font-variant-ligatures:normal;font-variant-position:normal;font-variant-caps:normal;font-variant-numeric:normal;font-variant-alternates:normal;font-feature-settings:normal;text-indent:0;text-align:start;text-decoration:none;text-decoration-line:none;text-decoration-style:solid;text-decoration-color:#000000;letter-spacing:normal;word-spacing:normal;text-transform:none;writing-mode:lr-tb;direction:ltr;text-orientation:mixed;dominant-baseline:auto;baseline-shift:baseline;text-anchor:start;white-space:normal;shape-padding:0;clip-rule:nonzero;display:inline;overflow:visible;visibility:visible;opacity:1;isolation:auto;mix-blend-mode:normal;color-interpolation:sRGB;color-interpolation-filters:linearRGB;solid-color:#000000;solid-opacity:1;vector-effect:none;fill:#000000;fill-opacity:1;fill-rule:nonzero;stroke:none;stroke-width:24.16413498;stroke-linecap:butt;stroke-linejoin:miter;stroke-miterlimit:4;stroke-dasharray:none;stroke-dashoffset:0;stroke-opacity:1;color-rendering:auto;image-rendering:auto;shape-rendering:auto;text-rendering:auto;enable-background:accumulate"
       d="M 251.70814,32.585383 C 158.60088,32.564061 94.636507,69.948278 57.845031,125.87489 21.047493,181.81072 10.781774,254.84907 18.824187,327.14769 c 8.042414,72.29858 34.430047,144.17527 73.387552,198.76104 38.957501,54.58572 91.409531,92.61801 151.067251,92.26261 59.6296,-0.35516 111.65284,-38.78548 150.38021,-93.55544 38.72738,-54.76997 65.06189,-126.61984 73.80863,-198.73888 C 476.21457,253.758 467.46027,181.109 433.47788,125.39471 399.50271,69.690174 339.29833,32.276272 251.75246,32.585383 Z m 0.0371,24.164554 h 0.0223 0.0295 c 80.86539,-0.297675 131.01994,31.993093 161.04774,81.225703 30.02785,49.23261 38.91091,116.76977 30.63603,184.99809 -8.27486,68.22833 -33.62519,136.8832 -69.55341,187.69455 -35.92825,50.81134 -81.52514,83.04504 -130.78853,83.33851 -49.2353,0.29314 -95.15618,-31.55552 -131.25397,-82.13435 C 75.786888,461.29361 50.431295,392.7151 42.840992,324.48079 35.250687,256.24648 45.457861,188.67821 78.035101,139.15764 110.61234,89.63708 164.91009,56.718566 251.74508,56.749937 Z"
       id="path10-9-5"
       inkscape:connector-curvature="0" />
    <path
       style="color:#000000;font-style:normal;font-variant:normal;font-weight:normal;font-stretch:normal;font-size:medium;line-height:normal;font-family:sans-serif;font-variant-ligatures:normal;font-variant-position:normal;font-variant-caps:normal;font-variant-numeric:normal;font-variant-alternates:normal;font-feature-settings:normal;text-indent:0;text-align:start;text-decoration:none;text-decoration-line:none;text-decoration-style:solid;text-decoration-color:#000000;letter-spacing:normal;word-spacing:normal;text-transform:none;writing-mode:lr-tb;direction:ltr;text-orientation:mixed;dominant-baseline:auto;baseline-shift:baseline;text-anchor:start;white-space:normal;shape-padding:0;clip-rule:nonzero;display:inline;overflow:visible;visibility:visible;opacity:1;isolation:auto;mix-blend-mode:normal;color-interpolation:sRGB;color-interpolation-filters:linearRGB;solid-color:#000000;solid-opacity:1;vector-effect:none;fill:#000000;fill-opacity:1;fill-rule:nonzero;stroke:none;stroke-width:12.08206749;stroke-linecap:butt;stroke-linejoin:miter;stroke-miterlimit:4;stroke-dasharray:none;stroke-dashoffset:0;stroke-opacity:1;color-rendering:auto;image-rendering:auto;shape-rendering:auto;text-rendering:auto;enable-background:accumulate"
       d="m 238.80215,323.60906 c 0,0 -1.35835,13.4516 -3.61249,27.5776 -1.12707,7.063 -2.486,14.2897 -3.94493,19.90934 -0.72947,2.8098 -1.495,5.22131 -2.17932,6.88515 -0.68431,1.66384 -1.56558,2.53838 -0.93083,2.0094 -1.33696,1.11415 -2.75366,2.04625 -3.49429,5.00874 -0.3703,1.48123 -0.15508,3.68206 0.79046,5.22298 0.94556,1.54091 2.17314,2.29592 3.10276,2.73339 3.7185,1.74986 5.62752,1.08302 8.15581,0.90865 5.05661,-0.34874 10.5346,-1.47752 10.5346,-1.47752 l -2.37139,-11.84956 c 0,0 -2.58327,0.32717 -4.14439,0.58362 0.80065,-2.14723 1.55689,-4.3919 2.23102,-6.9886 1.63039,-6.28005 3.02002,-13.76939 4.18133,-21.04702 2.32264,-14.55526 3.70854,-28.25721 3.70854,-28.25721 z"
       id="path971-8"
       inkscape:connector-curvature="0" />
    <path
       style="color:#000000;font-style:normal;font-variant:normal;font-weight:normal;font-stretch:normal;font-size:medium;line-height:normal;font-family:sans-serif;font-variant-ligatures:normal;font-variant-position:normal;font-variant-caps:normal;font-variant-numeric:normal;font-variant-alternates:normal;font-feature-settings:normal;text-indent:0;text-align:start;text-decoration:none;text-decoration-line:none;text-decoration-style:solid;text-decoration-color:#000000;letter-spacing:normal;word-spacing:normal;text-transform:none;writing-mode:lr-tb;direction:ltr;text-orientation:mixed;dominant-baseline:auto;baseline-shift:baseline;text-anchor:start;white-space:normal;shape-padding:0;clip-rule:nonzero;display:inline;overflow:visible;visibility:visible;opacity:1;isolation:auto;mix-blend-mode:normal;color-interpolation:sRGB;color-interpolation-filters:linearRGB;solid-color:#000000;solid-opacity:1;vector-effect:none;fill:#000000;fill-opacity:1;fill-rule:nonzero;stroke:none;stroke-width:12.0983305;stroke-linecap:butt;stroke-linejoin:miter;stroke-miterlimit:4;stroke-dasharray:none;stroke-dashoffset:0;stroke-opacity:1;color-rendering:auto;image-rendering:auto;shape-rendering:auto;text-rendering:auto;enable-background:accumulate"
       d="m 162.9215,224.77865 c -12.00964,0.11451 -21.72131,4.94395 -27.97621,12.16845 -6.27168,7.24412 -9.18994,16.59214 -9.1053,25.7982 0.0841,9.20613 3.16721,18.44289 9.51534,25.46751 6.3274,7.00123 16.03971,11.48379 27.79358,11.12104 11.53829,-0.0267 20.92471,-4.92305 26.88433,-12.15558 5.97591,-7.25229 8.72345,-16.54209 8.66415,-25.70019 -0.0599,-9.15828 -2.92124,-18.35907 -8.96177,-25.43238 -6.02467,-7.05507 -15.44552,-11.6595 -26.81412,-11.26705 z m 0.3583,12.08535 c 8.11278,-0.29852 13.40604,2.53211 17.25429,7.0384 3.84834,4.5063 6.02198,11.01471 6.06475,17.65504 0.0438,6.64042 -2.04043,13.24026 -5.90213,17.92666 -3.86146,4.68634 -9.28947,7.76074 -17.63842,7.76074 h -0.10158 l -0.10167,0.008 c -8.6836,0.29172 -14.44585,-2.63553 -18.52338,-7.1474 -4.07745,-4.5118 -6.33363,-10.92051 -6.39373,-17.46657 -0.0608,-6.54607 2.07185,-13.05514 6.15359,-17.76965 4.08183,-4.71458 9.99741,-7.9304 19.01095,-7.99713 h 0.089 z"
       id="path87-11-5-1-3-9"
       inkscape:connector-curvature="0" />
    <path
       style="color:#000000;font-style:normal;font-variant:normal;font-weight:normal;font-stretch:normal;font-size:medium;line-height:normal;font-family:sans-serif;font-variant-ligatures:normal;font-variant-position:normal;font-variant-caps:normal;font-variant-numeric:normal;font-variant-alternates:normal;font-feature-settings:normal;text-indent:0;text-align:start;text-decoration:none;text-decoration-line:none;text-decoration-style:solid;text-decoration-color:#000000;letter-spacing:normal;word-spacing:normal;text-transform:none;writing-mode:lr-tb;direction:ltr;text-orientation:mixed;dominant-baseline:auto;baseline-shift:baseline;text-anchor:start;white-space:normal;shape-padding:0;clip-rule:nonzero;display:inline;overflow:visible;visibility:visible;opacity:1;isolation:auto;mix-blend-mode:normal;color-interpolation:sRGB;color-interpolation-filters:linearRGB;solid-color:#000000;solid-opacity:1;vector-effect:none;fill:#000000;fill-opacity:1;fill-rule:nonzero;stroke:none;stroke-width:12.09750271;stroke-linecap:butt;stroke-linejoin:miter;stroke-miterlimit:4;stroke-dasharray:none;stroke-dashoffset:0;stroke-opacity:1;color-rendering:auto;image-rendering:auto;shape-rendering:auto;text-rendering:auto;enable-background:accumulate"
       d="m 83.969684,203.35878 -0.08131,12.09824 c 0,0 32.683916,0.21666 65.652916,0.4341 32.96892,0.21755 65.49168,0.43597 67.40017,0.43597 v -12.09824 c -0.36599,0 -34.3505,-0.21673 -67.31877,-0.43418 -32.9686,-0.21747 -65.653002,-0.43589 -65.653002,-0.43589 z"
       id="path1039-4-5-9"
       inkscape:connector-curvature="0" />
    <path
       style="color:#000000;font-style:normal;font-variant:normal;font-weight:normal;font-stretch:normal;font-size:medium;line-height:normal;font-family:sans-serif;font-variant-ligatures:normal;font-variant-position:normal;font-variant-caps:normal;font-variant-numeric:normal;font-variant-alternates:normal;font-feature-settings:normal;text-indent:0;text-align:start;text-decoration:none;text-decoration-line:none;text-decoration-style:solid;text-decoration-color:#000000;letter-spacing:normal;word-spacing:normal;text-transform:none;writing-mode:lr-tb;direction:ltr;text-orientation:mixed;dominant-baseline:auto;baseline-shift:baseline;text-anchor:start;white-space:normal;shape-padding:0;clip-rule:nonzero;display:inline;overflow:visible;visibility:visible;opacity:1;isolation:auto;mix-blend-mode:normal;color-interpolation:sRGB;color-interpolation-filters:linearRGB;solid-color:#000000;solid-opacity:1;vector-effect:none;fill:#000000;fill-opacity:1;fill-rule:nonzero;stroke:none;stroke-width:12.0983305;stroke-linecap:butt;stroke-linejoin:miter;stroke-miterlimit:4;stroke-dasharray:none;stroke-dashoffset:0;stroke-opacity:1;color-rendering:auto;image-rendering:auto;shape-rendering:auto;text-rendering:auto;enable-background:accumulate"
       d="m 322.47876,227.42406 c -11.36895,-0.39248 -20.78978,4.21197 -26.81444,11.26697 -6.04021,7.0734 -8.90194,16.27604 -8.96122,25.43424 -0.06,9.15819 2.68802,18.44612 8.66383,25.69849 5.95753,7.22994 15.34022,12.12537 26.87348,12.1555 11.7589,0.36606 21.47331,-4.11755 27.80249,-11.1211 6.34829,-7.02456 9.4312,-16.26132 9.5156,-25.46745 0.0841,-9.20605 -2.83193,-18.55408 -9.10376,-25.7982 -6.25476,-7.22458 -15.96634,-12.05393 -27.97598,-12.16845 z m -0.36049,12.08536 0.0908,0.008 h 0.0889 c 9.01379,0.0664 14.92742,3.28248 19.00916,7.99714 4.08206,4.71459 6.21539,11.22357 6.15546,17.76964 -0.0591,6.54598 -2.31628,12.95477 -6.39381,17.46665 -4.07729,4.51178 -9.83955,7.43904 -18.52315,7.14732 l -0.10156,-0.008 h -0.10157 c -8.34903,0 -13.77698,-3.07617 -17.63852,-7.76258 -3.8617,-4.68641 -5.94536,-11.28617 -5.90228,-17.92668 0.0421,-6.64032 2.21665,-13.14864 6.06492,-17.65502 3.84832,-4.50629 9.13946,-7.33677 17.25227,-7.03839 z"
       id="path87-11-5-8-6-5-1"
       inkscape:connector-curvature="0" />
    <path
       style="color:#000000;font-style:normal;font-variant:normal;font-weight:normal;font-stretch:normal;font-size:medium;line-height:normal;font-family:sans-serif;font-variant-ligatures:normal;font-variant-position:normal;font-variant-caps:normal;font-variant-numeric:normal;font-variant-alternates:normal;font-feature-settings:normal;text-indent:0;text-align:start;text-decoration:none;text-decoration-line:none;text-decoration-style:solid;text-decoration-color:#000000;letter-spacing:normal;word-spacing:normal;text-transform:none;writing-mode:lr-tb;direction:ltr;text-orientation:mixed;dominant-baseline:auto;baseline-shift:baseline;text-anchor:start;white-space:normal;shape-padding:0;clip-rule:nonzero;display:inline;overflow:visible;visibility:visible;opacity:1;isolation:auto;mix-blend-mode:normal;color-interpolation:sRGB;color-interpolation-filters:linearRGB;solid-color:#000000;solid-opacity:1;vector-effect:none;fill:#000000;fill-opacity:1;fill-rule:nonzero;stroke:none;stroke-width:12.09750271;stroke-linecap:butt;stroke-linejoin:miter;stroke-miterlimit:4;stroke-dasharray:none;stroke-dashoffset:0;stroke-opacity:1;color-rendering:auto;image-rendering:auto;shape-rendering:auto;text-rendering:auto;enable-background:accumulate"
       d="m 321.78015,174.9577 c -23.20704,-0.42412 -45.6063,12.76681 -72.87029,39.72337 l 8.50711,8.6031 c 26.31416,-26.0175 45.6762,-36.56935 64.14362,-36.23188 18.46718,0.33749 38.16937,11.86695 64.45194,34.10383 l 7.81233,-9.23489 C 366.87363,189.11849 344.98768,175.38177 321.78015,174.9577 Z"
       id="path59-1-3-2-9"
       inkscape:connector-curvature="0" />
    <path
       style="color:#000000;font-style:normal;font-variant:normal;font-weight:normal;font-stretch:normal;font-size:medium;line-height:normal;font-family:sans-serif;font-variant-ligatures:normal;font-variant-position:normal;font-variant-caps:normal;font-variant-numeric:normal;font-variant-alternates:normal;font-feature-settings:normal;text-indent:0;text-align:start;text-decoration:none;text-decoration-line:none;text-decoration-style:solid;text-decoration-color:#000000;letter-spacing:normal;word-spacing:normal;text-transform:none;writing-mode:lr-tb;direction:ltr;text-orientation:mixed;dominant-baseline:auto;baseline-shift:baseline;text-anchor:start;white-space:normal;shape-padding:0;clip-rule:nonzero;display:inline;overflow:visible;visibility:visible;opacity:1;isolation:auto;mix-blend-mode:normal;color-interpolation:sRGB;color-interpolation-filters:linearRGB;solid-color:#000000;solid-opacity:1;vector-effect:none;fill:#000000;fill-opacity:1;fill-rule:nonzero;stroke:none;stroke-width:12.0983305;stroke-linecap:butt;stroke-linejoin:miter;stroke-miterlimit:4;stroke-dasharray:none;stroke-dashoffset:0;stroke-opacity:1;color-rendering:auto;image-rendering:auto;shape-rendering:auto;text-rendering:auto;enable-background:accumulate"
       d="m 243.91196,454.84128 c -12.62208,-0.34113 -24.35392,1.61693 -34.90941,4.95083 -16.88855,5.33399 -30.78742,13.94971 -41.05733,21.76713 -10.26984,7.81735 -17.18027,15.11637 -19.09606,17.0141 l 8.51467,8.59394 c 2.48593,-2.46287 8.42524,-8.76184 17.90973,-15.98157 9.48464,-7.21957 22.24465,-15.07853 37.37389,-19.8571 30.25846,-9.55666 69.90546,-7.75944 115.96158,37.58073 l 8.48857,-8.62156 c -33.33862,-32.82014 -65.41716,-44.696 -93.18564,-45.4465 z"
       id="path29-8-7-0-7-2"
       inkscape:connector-curvature="0" />
  </g>
</svg>
