<?xml version="1.0" encoding="UTF-8" standalone="no"?>
<!-- Created with Inkscape (http://www.inkscape.org/) -->

<svg
   xmlns:dc="http://purl.org/dc/elements/1.1/"
   xmlns:cc="http://creativecommons.org/ns#"
   xmlns:rdf="http://www.w3.org/1999/02/22-rdf-syntax-ns#"
   xmlns:svg="http://www.w3.org/2000/svg"
   xmlns="http://www.w3.org/2000/svg"
   xmlns:sodipodi="http://sodipodi.sourceforge.net/DTD/sodipodi-0.dtd"
   xmlns:inkscape="http://www.inkscape.org/namespaces/inkscape"
   width="1000"
   height="1000"
   viewBox="0 0 1000 1000"
   version="1.1"
   id="svg28529"
   inkscape:version="0.92.4 (5da689c313, 2019-01-14)"
   sodipodi:docname="Experiência.svg">
  <defs
     id="defs28523" />
  <sodipodi:namedview
     id="base"
     pagecolor="#ffffff"
     bordercolor="#666666"
     borderopacity="1.0"
     inkscape:pageopacity="0.0"
     inkscape:pageshadow="2"
     inkscape:zoom="0.70710678"
     inkscape:cx="724.90538"
     inkscape:cy="531.15607"
     inkscape:document-units="px"
     inkscape:current-layer="layer1"
     showgrid="false"
     units="px"
     inkscape:window-width="681"
     inkscape:window-height="706"
     inkscape:window-x="-7"
     inkscape:window-y="0"
     inkscape:window-maximized="0" />
  <metadata
     id="metadata28526">
    <rdf:RDF>
      <cc:Work
         rdf:about="">
        <dc:format>image/svg+xml</dc:format>
        <dc:type
           rdf:resource="http://purl.org/dc/dcmitype/StillImage" />
        <dc:title></dc:title>
      </cc:Work>
    </rdf:RDF>
  </metadata>
  <g
     inkscape:label="Camada 1"
     inkscape:groupmode="layer"
     id="layer1"
     transform="translate(0,-32.41665)">
    <path
       style="color:#000000;font-style:normal;font-variant:normal;font-weight:normal;font-stretch:normal;font-size:medium;line-height:normal;font-family:sans-serif;font-variant-ligatures:normal;font-variant-position:normal;font-variant-caps:normal;font-variant-numeric:normal;font-variant-alternates:normal;font-feature-settings:normal;text-indent:0;text-align:start;text-decoration:none;text-decoration-line:none;text-decoration-style:solid;text-decoration-color:#000000;letter-spacing:normal;word-spacing:normal;text-transform:none;writing-mode:lr-tb;direction:ltr;text-orientation:mixed;dominant-baseline:auto;baseline-shift:baseline;text-anchor:start;white-space:normal;shape-padding:0;clip-rule:nonzero;display:inline;overflow:visible;visibility:visible;opacity:1;isolation:auto;mix-blend-mode:normal;color-interpolation:sRGB;color-interpolation-filters:linearRGB;solid-color:#000000;solid-opacity:1;vector-effect:none;fill:#000000;fill-opacity:1;fill-rule:nonzero;stroke:none;stroke-width:34.51847458;stroke-linecap:butt;stroke-linejoin:miter;stroke-miterlimit:4;stroke-dasharray:none;stroke-dashoffset:0;stroke-opacity:1;color-rendering:auto;image-rendering:auto;shape-rendering:auto;text-rendering:auto;enable-background:accumulate"
       d="M 840.68659,32.615687 C 707.68426,32.585856 616.31698,85.99419 563.7607,165.88487 c -52.56531,79.90435 -67.2369,184.24184 -55.74838,287.52042 1.81232,16.29222 4.27682,32.56933 7.36109,48.73675 0,0 4.6731,3.44795 17.92681,8.79595 l 76.5409,189.19837 -18.51657,4.34663 c 6.83405,11.35957 14.01507,22.32876 21.52295,32.84849 55.65077,77.97574 130.5745,132.29964 215.79559,131.79197 85.18091,-0.50747 159.49496,-55.39717 214.81701,-133.63618 55.3221,-78.2389 92.9427,-180.87589 105.4374,-283.89793 12.4947,-103.02206 -0.018,-206.81286 -48.56,-286.40075 C 1051.8043,85.615212 965.81042,32.17489 840.75246,32.615687 Z m 0.0567,34.521646 h 0.0305 0.0382 c 115.51627,-0.425282 187.16481,45.703067 230.05971,116.031877 42.8949,70.32881 55.5819,166.79717 43.7613,264.26132 -11.8208,97.46426 -48.0262,195.5445 -99.3496,268.12851 -51.32361,72.58398 -116.47134,118.62353 -186.84417,119.04274 -70.3326,0.41909 -135.9275,-45.069 -187.49326,-117.32089 -5.20612,-7.29463 -10.25583,-14.85144 -15.13878,-22.64341 l -15.9644,5.49888 -76.5409,-189.19837 c 0,0 12.36472,4.52762 20.70826,6.9844 -5.20638,-22.58086 -9.14598,-45.47272 -11.6894,-68.33717 -10.84273,-97.47274 3.73571,-193.99165 50.27234,-264.7318 C 639.12964,114.11326 716.7024,67.092513 840.7462,67.137333 Z"
       id="path10-9-5"
       inkscape:connector-curvature="0"
       sodipodi:nodetypes="cssccccssssccccccssscsccccsscc" />
    <path
       style="color:#000000;font-style:normal;font-variant:normal;font-weight:normal;font-stretch:normal;font-size:medium;line-height:normal;font-family:sans-serif;font-variant-ligatures:normal;font-variant-position:normal;font-variant-caps:normal;font-variant-numeric:normal;font-variant-alternates:normal;font-feature-settings:normal;text-indent:0;text-align:start;text-decoration:none;text-decoration-line:none;text-decoration-style:solid;text-decoration-color:#000000;letter-spacing:normal;word-spacing:normal;text-transform:none;writing-mode:lr-tb;direction:ltr;text-orientation:mixed;dominant-baseline:auto;baseline-shift:baseline;text-anchor:start;white-space:normal;shape-padding:0;clip-rule:nonzero;display:inline;overflow:visible;visibility:visible;opacity:1;isolation:auto;mix-blend-mode:normal;color-interpolation:sRGB;color-interpolation-filters:linearRGB;solid-color:#000000;solid-opacity:1;vector-effect:none;fill:#000000;fill-opacity:1;fill-rule:nonzero;stroke:none;stroke-width:17.25923729;stroke-linecap:butt;stroke-linejoin:miter;stroke-miterlimit:4;stroke-dasharray:none;stroke-dashoffset:0;stroke-opacity:1;color-rendering:auto;image-rendering:auto;shape-rendering:auto;text-rendering:auto;enable-background:accumulate"
       d="m 822.25391,448.34375 c 0,0 -1.94599,19.20966 -5.16602,39.38867 -1.61001,10.08951 -3.55069,20.42158 -5.63477,28.44922 -1.04203,4.01382 -2.13378,7.46109 -3.11132,9.83789 -0.97755,2.3768 -2.24072,3.61891 -1.33399,2.86328 -1.90985,1.59154 -3.93027,2.92039 -4.98828,7.15235 -0.529,2.11597 -0.22574,5.26755 1.125,7.46875 1.35074,2.20119 3.10563,3.27742 4.43359,3.90234 5.31187,2.49968 8.03871,1.5401 11.6504,1.29102 7.22336,-0.49818 15.04687,-2.10743 15.04687,-2.10743 l -3.38477,-16.92382 c 0,0 -2.70685,0.46898 -5.96093,0.95898 1.16194,-3.098 2.25308,-6.3482 3.22851,-10.10547 2.32901,-8.97106 4.31372,-19.6703 5.97266,-30.06641 3.31788,-20.7922 5.29492,-40.37304 5.29492,-40.37304 z"
       id="path971-8"
       inkscape:connector-curvature="0" />
    <path
       style="color:#000000;font-style:normal;font-variant:normal;font-weight:normal;font-stretch:normal;font-size:medium;line-height:normal;font-family:sans-serif;font-variant-ligatures:normal;font-variant-position:normal;font-variant-caps:normal;font-variant-numeric:normal;font-variant-alternates:normal;font-feature-settings:normal;text-indent:0;text-align:start;text-decoration:none;text-decoration-line:none;text-decoration-style:solid;text-decoration-color:#000000;letter-spacing:normal;word-spacing:normal;text-transform:none;writing-mode:lr-tb;direction:ltr;text-orientation:mixed;dominant-baseline:auto;baseline-shift:baseline;text-anchor:start;white-space:normal;shape-padding:0;clip-rule:nonzero;display:inline;overflow:visible;visibility:visible;opacity:1;isolation:auto;mix-blend-mode:normal;color-interpolation:sRGB;color-interpolation-filters:linearRGB;solid-color:#000000;solid-opacity:1;vector-effect:none;fill:#000000;fill-opacity:1;fill-rule:nonzero;stroke:none;stroke-width:12.74606895;stroke-linecap:butt;stroke-linejoin:miter;stroke-miterlimit:4;stroke-dasharray:none;stroke-dashoffset:0;stroke-opacity:1;color-rendering:auto;image-rendering:auto;shape-rendering:auto;text-rendering:auto;enable-background:accumulate"
       d="m 312.07227,454.97661 c -4.2087,-0.3917 -8.89189,-0.31562 -13.73716,0.17865 h -0.0382 c -0.0114,-10e-4 -1.46263,-0.13808 -3.94899,-0.23107 l 2.34289,7.04554 -98.05489,86.80846 -1.92898,-9.77095 c -0.67065,0.97695 -1.34711,1.88975 -2.02241,2.7118 l -0.30107,0.36727 -0.24473,0.41382 c 0,0 -7.84221,13.15187 -16.30581,28.37752 -8.46358,15.22575 -17.42845,31.77958 -20.38933,41.7196 l 0.47982,-1.16675 C 121.01087,680.91086 116.8905,748.40684 116.8905,748.40684 l -0.0103,0.12239 v 0.12205 c -1.0325,44.65537 22.47199,72.03635 45.71835,87.14623 9.64184,6.26706 19.27529,10.58557 27.24889,13.4939 l 1.78765,-6.74354 122.02243,-14.8016 -1.6204,7.96435 c 13.46569,-6.48084 27.8345,-14.89088 42.84392,-25.75978 l 1.21376,-0.8845 0.69627,-1.33604 c 0,0 -0.0382,-0.0793 1.20436,-1.47724 1.24394,-1.39834 3.51831,-3.62606 7.39547,-6.46396 7.75441,-5.67589 21.91518,-13.75229 46.76278,-22.26172 l 0.085,-0.0306 0.0752,-0.0306 c 0,0 31.46258,-11.72855 67.83898,-26.50513 35.75679,-14.52488 75.58986,-31.67571 96.53637,-44.3917 2.09845,-0.17599 25.63687,-2.22626 47.73193,-11.31904 11.54619,-4.75162 22.6949,-11.35981 29.31848,-21.67838 5.97626,-9.31025 6.87299,-21.72541 1.23253,-35.21788 2.86916,-3.05819 6.88611,-7.94632 9.82301,-16.10821 4.1658,-11.57702 3.32873,-28.21663 -10.94265,-44.37291 0.019,-3.123 -0.33168,-8.48896 -4.27173,-15.54365 -5.39955,-9.66792 -17.07935,-20.42251 -39.91297,-27.36143 -0.0548,9.9e-4 -0.38332,-0.19892 -0.49867,-0.24484 -0.40714,-0.16176 -0.87007,-0.33705 -1.43962,-0.54574 -1.13903,-0.41764 -2.66461,-0.95809 -4.49748,-1.59012 -3.66573,-1.26409 -8.55822,-2.89637 -13.86887,-4.601 -10.62133,-3.40933 -22.67031,-7.06323 -30.30642,-8.59043 l 0.46103,0.11243 c 0,0 -8.82535,-2.46635 -19.16612,-6.15348 -10.34078,-3.68707 -22.3735,-8.98867 -27.08856,-12.78685 l -1.30786,-1.04438 -1.64653,-0.28232 c 2.20334,0.36727 0.98825,0.29074 0.29152,-0.0662 -0.69658,-0.35694 -1.76961,-0.93709 -3.13325,-1.63716 -2.72726,-1.40027 -6.63111,-3.31441 -11.64831,-5.33493 -10.03439,-4.04101 -24.57814,-8.53829 -43.75192,-10.68862 -0.19014,-0.0306 -25.77721,-3.71202 -53.16081,-8.2329 -13.74271,-2.26881 -27.89412,-4.74872 -39.33915,-7.04734 -5.7225,-1.14934 -10.76868,-2.25041 -14.69689,-3.24616 -3.92814,-0.99561 -6.93574,-2.05179 -7.51778,-2.34282 l -2.85087,-1.42072 -0.92212,0.46101 c -0.3049,-0.09 -0.42203,-0.11584 -0.80919,-0.23526 -1.96114,-0.60224 -4.86288,-1.51412 -8.38337,-2.37112 -3.5206,-0.85698 -7.68407,-1.6763 -12.31641,-2.10762 z m -1.17613,12.70215 c 3.86307,0.35998 7.41384,1.04092 10.48164,1.78768 3.06779,0.74681 5.62302,1.55122 7.64949,2.17349 1.01327,0.31105 1.87698,0.57757 2.79452,0.79976 0.4586,0.11127 0.91675,0.22153 1.61831,0.2919 0.0344,0.003 0.15342,-0.0344 0.1882,-0.0306 2.32995,0.95499 4.68252,1.77493 8.11057,2.64387 4.26385,1.08077 9.47689,2.22168 15.32727,3.39663 11.70076,2.35005 25.93821,4.8309 39.76253,7.1133 27.64856,4.56457 53.62193,8.29867 53.62193,8.29867 l 0.0942,0.019 0.10359,0.008 c 17.929,2.01076 31.28798,6.17701 40.41167,9.85123 4.56191,1.83717 8.05702,3.54773 10.58515,4.84566 1.26412,0.64902 2.28144,1.19096 3.15205,1.63718 0.37147,0.19013 1.16052,0.37301 1.45837,0.5551 7.79083,5.94166 19.37978,10.57077 29.81712,14.29228 10.81125,3.85485 20.02239,6.41696 20.02239,6.41696 l 0.23527,0.0662 0.22572,0.0482 c 6.23402,1.24678 18.46993,4.88047 28.91383,8.23288 5.22198,1.67616 10.05301,3.28807 13.61485,4.5163 1.78092,0.61414 3.24235,1.13483 4.2529,1.50541 0.45043,0.16528 0.77599,0.28616 1.00677,0.37646 l 0.31024,0.20698 0.9127,0.27276 c 20.86731,6.2438 29.22176,14.97937 32.88448,21.53722 3.66263,6.55788 2.86033,10.62279 2.86033,10.62279 l -0.4514,3.09554 2.17347,2.25818 c 13.55114,14.02382 12.86517,24.8094 9.76653,33.42075 -3.09865,8.61142 -9.37135,14.20762 -9.37135,14.20762 l -3.78245,3.30256 2.32405,4.45046 c 6.45292,12.3616 5.37615,20.03923 1.04436,26.78749 -4.3317,6.74823 -13.1819,12.55561 -23.43777,16.77626 -20.51191,8.44123 -45.29501,10.59456 -45.29501,10.59456 l -1.53362,0.12203 -1.30788,0.80921 c -18.5608,11.49781 -59.90291,29.45892 -96.08479,44.15641 -36.09716,14.6632 -67.18488,26.26259 -67.33082,26.31704 -25.77852,8.82822 -41.09628,17.39676 -50.15944,24.03059 -4.53158,3.31691 -7.4917,6.15512 -9.39018,8.28934 -1.01277,1.13852 -1.08253,1.40726 -1.59013,2.16405 -11.07456,7.98326 -21.73192,14.54799 -31.86691,19.93692 l -1.36066,7.85962 -122.02241,14.80159 1.51489,-5.63064 c -7.01515,-2.62853 -15.33156,-6.43035 -23.60614,-11.80877 -20.77662,-13.50454 -40.7973,-35.9415 -39.91302,-76.04362 0.0145,-0.2085 4.10959,-64.95789 39.54609,-131.66018 l 0.30107,-0.55517 0.17873,-0.61153 c 1.89369,-6.35747 10.96271,-24.13174 19.31667,-39.1603 4.17281,-7.50674 8.19595,-14.5146 11.17784,-19.64905 l -1.51619,-8.65065 98.0549,-86.80843 1.84199,5.85016 c 4.32178,-0.54023 8.50035,-0.50091 12.36345,-0.14086 z"
       id="path29241"
       inkscape:connector-curvature="0"
       sodipodi:nodetypes="ccccccccccccccccsccccccccscccscsccccccccsccccccccccccccccccccccccccccccccccccccccccccccccccccccccscccscsccccccsccccccccccc" />
    <path
       style="color:#000000;font-style:normal;font-variant:normal;font-weight:normal;font-stretch:normal;font-size:medium;line-height:normal;font-family:sans-serif;font-variant-ligatures:normal;font-variant-position:normal;font-variant-caps:normal;font-variant-numeric:normal;font-variant-alternates:normal;font-feature-settings:normal;text-indent:0;text-align:start;text-decoration:none;text-decoration-line:none;text-decoration-style:solid;text-decoration-color:#000000;letter-spacing:normal;word-spacing:normal;text-transform:none;writing-mode:lr-tb;direction:ltr;text-orientation:mixed;dominant-baseline:auto;baseline-shift:baseline;text-anchor:start;white-space:normal;shape-padding:0;clip-rule:nonzero;display:inline;overflow:visible;visibility:visible;opacity:1;isolation:auto;mix-blend-mode:normal;color-interpolation:sRGB;color-interpolation-filters:linearRGB;solid-color:#000000;solid-opacity:1;vector-effect:none;fill:#000000;fill-opacity:1;fill-rule:nonzero;stroke:none;stroke-width:12.74606895;stroke-linecap:butt;stroke-linejoin:miter;stroke-miterlimit:4;stroke-dasharray:none;stroke-dashoffset:0;stroke-opacity:1;color-rendering:auto;image-rendering:auto;shape-rendering:auto;text-rendering:auto;enable-background:accumulate"
       d="m 573.00977,694.29492 c 0,0 -16.33402,4.77838 -33.73243,10.17188 -8.6992,2.69674 -17.66288,5.5462 -25.03906,8.04882 -7.37617,2.50263 -12.52236,4.19326 -16.16211,6.31641 l 1.1543,-0.52539 c 0,0 -27.96887,9.42591 -59.64258,2.24219 l -0.36133,-0.082 -0.36718,-0.0391 c 0,0 -61.43554,-6.68564 -105.51563,-3.48632 l 0.92383,12.71289 c 41.8909,-3.04043 103.13696,3.4379 103.20703,3.44531 35.2936,7.76925 65.87109,-2.73047 65.87109,-2.73047 l 0.60352,-0.20508 0.55078,-0.32226 c 0.52132,-0.3041 6.64454,-2.81726 13.83203,-5.25586 7.18749,-2.43861 16.08222,-5.26739 24.7207,-7.94532 17.27698,-5.35585 33.53711,-10.11328 33.53711,-10.11328 z"
       id="path29245"
       inkscape:connector-curvature="0" />
    <path
       style="color:#000000;font-style:normal;font-variant:normal;font-weight:normal;font-stretch:normal;font-size:medium;line-height:normal;font-family:sans-serif;font-variant-ligatures:normal;font-variant-position:normal;font-variant-caps:normal;font-variant-numeric:normal;font-variant-alternates:normal;font-feature-settings:normal;text-indent:0;text-align:start;text-decoration:none;text-decoration-line:none;text-decoration-style:solid;text-decoration-color:#000000;letter-spacing:normal;word-spacing:normal;text-transform:none;writing-mode:lr-tb;direction:ltr;text-orientation:mixed;dominant-baseline:auto;baseline-shift:baseline;text-anchor:start;white-space:normal;shape-padding:0;clip-rule:nonzero;display:inline;overflow:visible;visibility:visible;opacity:1;isolation:auto;mix-blend-mode:normal;color-interpolation:sRGB;color-interpolation-filters:linearRGB;solid-color:#000000;solid-opacity:1;vector-effect:none;fill:#000000;fill-opacity:1;fill-rule:nonzero;stroke:none;stroke-width:12.74606895;stroke-linecap:butt;stroke-linejoin:miter;stroke-miterlimit:4;stroke-dasharray:none;stroke-dashoffset:0;stroke-opacity:1;color-rendering:auto;image-rendering:auto;shape-rendering:auto;text-rendering:auto;enable-background:accumulate"
       d="m 430.5918,621.80273 c -11.71895,-0.1142 -26.43991,0.73015 -38.90039,4.36133 0,0 -0.008,0 -0.008,0 -0.0233,0.003 -23.66732,3.31851 -38.1289,-3.62304 l -5.51563,11.49218 c 20.20668,9.69921 45.77735,4.69922 45.77735,4.69922 l 0.39843,-0.0684 0.38672,-0.11718 c 20.35197,-6.16724 54.54031,-2.95934 55.16211,-2.9004 26.67675,7.07453 49.85742,1.61914 49.85742,1.61914 l -0.30859,0.0645 c 14.35605,-2.62423 42.11291,-0.86828 65.52344,1.83789 23.37442,2.702 42.73709,6.1281 42.79687,6.13867 16.68279,4.70374 27.49547,4.44237 34.6211,2.30469 3.61002,-1.08301 6.23917,-2.66144 7.99804,-4.15039 1.75888,-1.48895 2.96094,-3.45313 2.96094,-3.45313 l -11.18945,-6.10351 c 0,0 0.42219,-0.53589 -0.008,-0.17188 -0.43,0.36401 -1.3991,1.06251 -3.42382,1.66992 -4.04945,1.21484 -12.51925,1.96898 -28.05078,-2.49218 l -0.32032,-0.0918 -0.32812,-0.0586 c 0,0 -19.75908,-3.49676 -43.59375,-6.25196 -23.83468,-2.7552 -51.38528,-4.98739 -69.27735,-1.71679 l -0.15429,0.0293 -0.1543,0.0352 c 0,0 -20.75285,4.79382 -44.36719,-1.67578 l -0.48828,-0.13281 -0.50586,-0.0547 c 0,0 -8.80241,-1.07293 -20.75976,-1.18946 z"
       id="path29247"
       inkscape:connector-curvature="0" />
    <path
       style="color:#000000;font-style:normal;font-variant:normal;font-weight:normal;font-stretch:normal;font-size:medium;line-height:normal;font-family:sans-serif;font-variant-ligatures:normal;font-variant-position:normal;font-variant-caps:normal;font-variant-numeric:normal;font-variant-alternates:normal;font-feature-settings:normal;text-indent:0;text-align:start;text-decoration:none;text-decoration-line:none;text-decoration-style:solid;text-decoration-color:#000000;letter-spacing:normal;word-spacing:normal;text-transform:none;writing-mode:lr-tb;direction:ltr;text-orientation:mixed;dominant-baseline:auto;baseline-shift:baseline;text-anchor:start;white-space:normal;shape-padding:0;clip-rule:nonzero;display:inline;overflow:visible;visibility:visible;opacity:1;isolation:auto;mix-blend-mode:normal;color-interpolation:sRGB;color-interpolation-filters:linearRGB;solid-color:#000000;solid-opacity:1;vector-effect:none;fill:#000000;fill-opacity:1;fill-rule:nonzero;stroke:none;stroke-width:12.74606895;stroke-linecap:butt;stroke-linejoin:miter;stroke-miterlimit:4;stroke-dasharray:none;stroke-dashoffset:0;stroke-opacity:1;color-rendering:auto;image-rendering:auto;shape-rendering:auto;text-rendering:auto;enable-background:accumulate"
       d="m 465.71484,625.73047 c 0,0 -30.01077,0.94719 -48.9082,2.96289 l -0.68555,0.0742 -0.26171,0.0859 c -0.16466,0.0237 -0.38987,0.0548 -0.72266,0.0937 -0.7698,0.0902 -1.88958,0.20454 -3.22461,0.32812 -2.67006,0.24716 -6.22255,0.53508 -9.94531,0.80859 -7.44553,0.54702 -15.84129,1.0254 -18.81055,1.0254 h -0.20117 l -0.19922,0.0137 c 0,0 -7.66271,0.47967 -16.08789,0.59961 -4.21259,0.06 -8.61104,0.0267 -12.19922,-0.1875 -3.58818,-0.21422 -6.76394,-0.98168 -6.48437,-0.85743 l -5.17579,11.64844 c 3.58963,1.59539 6.78803,1.68613 10.90039,1.93164 4.11237,0.24551 8.74085,0.27357 13.14063,0.21094 8.79956,-0.12526 16.70703,-0.625 16.70703,-0.625 l -0.40039,0.0117 c 4.1413,0 12.17361,-0.50225 19.74609,-1.05859 3.78624,-0.27818 7.39048,-0.57153 10.1836,-0.83008 1.39656,-0.12928 2.5857,-0.2484 3.5332,-0.35938 0.47375,-0.0555 0.88207,-0.10834 1.27344,-0.16797 0.0838,-0.0128 0.27373,-0.0715 0.34375,-0.0781 17.88935,-1.90268 47.88867,-2.89063 47.88867,-2.89063 z"
       id="path29249"
       inkscape:connector-curvature="0" />
    <path
       style="color:#000000;font-style:normal;font-variant:normal;font-weight:normal;font-stretch:normal;font-size:medium;line-height:normal;font-family:sans-serif;font-variant-ligatures:normal;font-variant-position:normal;font-variant-caps:normal;font-variant-numeric:normal;font-variant-alternates:normal;font-feature-settings:normal;text-indent:0;text-align:start;text-decoration:none;text-decoration-line:none;text-decoration-style:solid;text-decoration-color:#000000;letter-spacing:normal;word-spacing:normal;text-transform:none;writing-mode:lr-tb;direction:ltr;text-orientation:mixed;dominant-baseline:auto;baseline-shift:baseline;text-anchor:start;white-space:normal;shape-padding:0;clip-rule:nonzero;display:inline;overflow:visible;visibility:visible;opacity:1;isolation:auto;mix-blend-mode:normal;color-interpolation:sRGB;color-interpolation-filters:linearRGB;solid-color:#000000;solid-opacity:1;vector-effect:none;fill:#000000;fill-opacity:1;fill-rule:nonzero;stroke:none;stroke-width:12.74606895;stroke-linecap:butt;stroke-linejoin:miter;stroke-miterlimit:4;stroke-dasharray:none;stroke-dashoffset:0;stroke-opacity:1;color-rendering:auto;image-rendering:auto;shape-rendering:auto;text-rendering:auto;enable-background:accumulate"
       d="m 466.37891,521.23633 c -8.66994,-0.32245 -18.88402,0.0409 -30.74219,1.55664 l 0.31836,-0.0312 c 0,0 -22.51303,1.7365 -46.88086,4.2168 -12.18392,1.24014 -24.83204,2.66491 -35.44141,4.16406 -10.60936,1.49915 -18.60152,2.7292 -23.95117,4.89453 l 4.78125,11.81641 c 1.93217,-0.78207 10.62723,-2.63076 20.95313,-4.08985 10.32589,-1.45909 22.86036,-2.87304 34.94921,-4.10351 24.17771,-2.46095 46.57032,-4.19141 46.57032,-4.19141 l 0.16015,-0.0117 0.15821,-0.0195 c 22.40195,-2.86341 38.02802,-1.32052 47.90625,0.81641 9.87822,2.13692 13.44336,4.50781 13.44336,4.50781 l 0.60351,0.375 0.66992,0.23437 c 7.92201,2.77271 25.41261,6.94577 41.80469,10.72852 8.19604,1.89138 16.00519,3.63929 21.87695,4.9375 5.87177,1.2982 9.34787,2.05578 10.33789,2.25391 l 0.12891,0.0254 0.13086,0.0195 c 26.98554,4.24301 44.44524,10.81466 55.02539,16.16601 10.58015,5.35136 13.80078,8.95899 13.80078,8.95899 l 9.27149,-8.7461 c 0,0 -5.44816,-5.5811 -17.32032,-11.58593 -11.87215,-6.00484 -30.64856,-12.95697 -58.79687,-17.38282 l 0.25976,0.0469 c 0.12314,0.0246 -4.24588,-0.90955 -10.08789,-2.20117 -5.842,-1.29163 -13.61504,-3.03258 -21.75976,-4.91211 -16.28944,-3.75907 -34.51283,-8.25605 -40.46094,-10.33789 -1.47727,-0.81393 -6.48021,-3.43526 -16.23242,-5.54492 -5.68024,-1.22879 -12.80663,-2.2381 -21.47656,-2.56055 z"
       id="path29251"
       inkscape:connector-curvature="0" />
    <path
       style="color:#000000;font-style:normal;font-variant:normal;font-weight:normal;font-stretch:normal;font-size:medium;line-height:normal;font-family:sans-serif;font-variant-ligatures:normal;font-variant-position:normal;font-variant-caps:normal;font-variant-numeric:normal;font-variant-alternates:normal;font-feature-settings:normal;text-indent:0;text-align:start;text-decoration:none;text-decoration-line:none;text-decoration-style:solid;text-decoration-color:#000000;letter-spacing:normal;word-spacing:normal;text-transform:none;writing-mode:lr-tb;direction:ltr;text-orientation:mixed;dominant-baseline:auto;baseline-shift:baseline;text-anchor:start;white-space:normal;shape-padding:0;clip-rule:nonzero;display:inline;overflow:visible;visibility:visible;opacity:1;isolation:auto;mix-blend-mode:normal;color-interpolation:sRGB;color-interpolation-filters:linearRGB;solid-color:#000000;solid-opacity:1;vector-effect:none;fill:#000000;fill-opacity:1;fill-rule:nonzero;stroke:none;stroke-width:12.74606895;stroke-linecap:butt;stroke-linejoin:miter;stroke-miterlimit:4;stroke-dasharray:none;stroke-dashoffset:0;stroke-opacity:1;color-rendering:auto;image-rendering:auto;shape-rendering:auto;text-rendering:auto;enable-background:accumulate"
       d="m 317.7168,523.21484 -7.35157,10.41407 c 3.98964,2.81626 17.44018,11.14356 34.48829,11.73828 l 0.44336,-12.73828 c -12.77278,-0.44558 -25.67492,-8.06923 -27.58008,-9.41407 z"
       id="path29253"
       inkscape:connector-curvature="0" />
    <path
       style="color:#000000;font-style:normal;font-variant:normal;font-weight:normal;font-stretch:normal;font-size:medium;line-height:normal;font-family:sans-serif;font-variant-ligatures:normal;font-variant-position:normal;font-variant-caps:normal;font-variant-numeric:normal;font-variant-alternates:normal;font-feature-settings:normal;text-indent:0;text-align:start;text-decoration:none;text-decoration-line:none;text-decoration-style:solid;text-decoration-color:#000000;letter-spacing:normal;word-spacing:normal;text-transform:none;writing-mode:lr-tb;direction:ltr;text-orientation:mixed;dominant-baseline:auto;baseline-shift:baseline;text-anchor:start;white-space:normal;shape-padding:0;clip-rule:nonzero;display:inline;overflow:visible;visibility:visible;opacity:1;isolation:auto;mix-blend-mode:normal;color-interpolation:sRGB;color-interpolation-filters:linearRGB;solid-color:#000000;solid-opacity:1;vector-effect:none;fill:#000000;fill-opacity:1;fill-rule:nonzero;stroke:none;stroke-width:12.74606895;stroke-linecap:butt;stroke-linejoin:miter;stroke-miterlimit:4;stroke-dasharray:none;stroke-dashoffset:0;stroke-opacity:1;color-rendering:auto;image-rendering:auto;shape-rendering:auto;text-rendering:auto;enable-background:accumulate"
       d="m 197.24414,570.66211 c -17.39695,17.12508 -16.88416,37.31028 -11.54687,51.47461 5.33728,14.16433 14.91211,23.74414 14.91211,23.74414 l 9.07617,-8.94922 c 0,0 -7.83536,-8.07605 -12.06055,-19.28906 -4.22519,-11.21301 -5.42713,-24.12741 8.56055,-37.89649 z"
       id="path29259"
       inkscape:connector-curvature="0" />
    <path
       style="color:#000000;font-style:normal;font-variant:normal;font-weight:normal;font-stretch:normal;font-size:medium;line-height:normal;font-family:sans-serif;font-variant-ligatures:normal;font-variant-position:normal;font-variant-caps:normal;font-variant-numeric:normal;font-variant-alternates:normal;font-feature-settings:normal;text-indent:0;text-align:start;text-decoration:none;text-decoration-line:none;text-decoration-style:solid;text-decoration-color:#000000;letter-spacing:normal;word-spacing:normal;text-transform:none;writing-mode:lr-tb;direction:ltr;text-orientation:mixed;dominant-baseline:auto;baseline-shift:baseline;text-anchor:start;white-space:normal;shape-padding:0;clip-rule:nonzero;display:inline;overflow:visible;visibility:visible;opacity:1;isolation:auto;mix-blend-mode:normal;color-interpolation:sRGB;color-interpolation-filters:linearRGB;solid-color:#000000;solid-opacity:1;vector-effect:none;fill:#000000;fill-opacity:1;fill-rule:nonzero;stroke:none;stroke-width:12.74606895;stroke-linecap:butt;stroke-linejoin:miter;stroke-miterlimit:4;stroke-dasharray:none;stroke-dashoffset:0;stroke-opacity:1;color-rendering:auto;image-rendering:auto;shape-rendering:auto;text-rendering:auto;enable-background:accumulate"
       d="m 647.04492,635.96094 -8.61133,9.39844 c -1.08189,-0.99124 -0.3263,-0.36952 0.0645,0.39062 0.39075,0.76014 0.88986,1.91678 1.32422,3.27539 0.8687,2.71723 1.45988,6.24336 1.06054,9.56641 -0.39933,3.32305 -1.59157,6.41367 -4.68554,9.38086 -1.86762,1.79108 -4.67513,3.53581 -8.47657,5.04492 1.02695,-8.65942 1.80448,-21.24069 -0.89258,-32.70313 l -12.40624,2.91993 c 3.36751,14.3119 -0.66602,37.41601 -0.66602,37.41601 l -1.79297,9.25 9.25195,-1.7793 c 10.73465,-2.06382 18.5082,-5.86976 23.80469,-10.94921 5.2965,-5.07946 7.83069,-11.3446 8.51758,-17.06055 0.68689,-5.71595 -0.27738,-10.91042 -1.57422,-14.9668 -0.64842,-2.02819 -1.38379,-3.77122 -2.12891,-5.2207 -0.74512,-1.44949 -1.02474,-2.34642 -2.78906,-3.96289 z"
       id="path29263"
       inkscape:connector-curvature="0" />
    <path
       style="color:#000000;font-style:normal;font-variant:normal;font-weight:normal;font-stretch:normal;font-size:medium;line-height:normal;font-family:sans-serif;font-variant-ligatures:normal;font-variant-position:normal;font-variant-caps:normal;font-variant-numeric:normal;font-variant-alternates:normal;font-feature-settings:normal;text-indent:0;text-align:start;text-decoration:none;text-decoration-line:none;text-decoration-style:solid;text-decoration-color:#000000;letter-spacing:normal;word-spacing:normal;text-transform:none;writing-mode:lr-tb;direction:ltr;text-orientation:mixed;dominant-baseline:auto;baseline-shift:baseline;text-anchor:start;white-space:normal;shape-padding:0;clip-rule:nonzero;display:inline;overflow:visible;visibility:visible;opacity:1;isolation:auto;mix-blend-mode:normal;color-interpolation:sRGB;color-interpolation-filters:linearRGB;solid-color:#000000;solid-opacity:1;vector-effect:none;fill:#000000;fill-opacity:1;fill-rule:nonzero;stroke:none;stroke-width:12.74606895;stroke-linecap:butt;stroke-linejoin:miter;stroke-miterlimit:4;stroke-dasharray:none;stroke-dashoffset:0;stroke-opacity:1;color-rendering:auto;image-rendering:auto;shape-rendering:auto;text-rendering:auto;enable-background:accumulate"
       d="m 617.84961,570.72461 2.63086,9.70312 c 0,0 6.30083,23.74502 -3.56641,48.25391 l -3.16797,7.86719 8.4375,0.85351 c 19.7558,1.99703 34.45631,-11.75714 36.95313,-27.44726 1.24841,-7.84506 -0.47304,-16.33402 -5.76367,-23.2832 -5.29064,-6.94919 -13.97879,-12.11559 -25.625,-14.1875 z m 16.57031,17.08203 c 3.98266,1.81199 6.90791,4.08428 8.8125,6.58594 3.10496,4.07832 4.06817,8.83452 3.31641,13.55859 -1.16221,7.3034 -6.27157,14.09577 -14.76563,16.19727 4.06977,-14.78995 3.65722,-27.60442 2.63672,-36.3418 z"
       id="path29265"
       inkscape:connector-curvature="0" />
    <path
       style="color:#000000;font-style:normal;font-variant:normal;font-weight:normal;font-stretch:normal;font-size:medium;line-height:normal;font-family:sans-serif;font-variant-ligatures:normal;font-variant-position:normal;font-variant-caps:normal;font-variant-numeric:normal;font-variant-alternates:normal;font-feature-settings:normal;text-indent:0;text-align:start;text-decoration:none;text-decoration-line:none;text-decoration-style:solid;text-decoration-color:#000000;letter-spacing:normal;word-spacing:normal;text-transform:none;writing-mode:lr-tb;direction:ltr;text-orientation:mixed;dominant-baseline:auto;baseline-shift:baseline;text-anchor:start;white-space:normal;shape-padding:0;clip-rule:nonzero;display:inline;overflow:visible;visibility:visible;opacity:1;isolation:auto;mix-blend-mode:normal;color-interpolation:sRGB;color-interpolation-filters:linearRGB;solid-color:#000000;solid-opacity:1;vector-effect:none;fill:#000000;fill-opacity:1;fill-rule:nonzero;stroke:none;stroke-width:12.74606895;stroke-linecap:butt;stroke-linejoin:miter;stroke-miterlimit:4;stroke-dasharray:none;stroke-dashoffset:0;stroke-opacity:1;color-rendering:auto;image-rendering:auto;shape-rendering:auto;text-rendering:auto;enable-background:accumulate"
       d="m 610.69922,544.9707 0.75976,8.25977 c 0,0 0.16638,1.83017 0.23243,3.98242 0.066,2.15225 -0.2897,5.05901 -0.14649,4.58008 l 12.21289,3.65234 c 0.44892,-1.50125 0.57897,-2.78728 0.65625,-4.03125 4.30482,2.0943 7.00565,4.91764 8.77149,7.67774 2.64275,4.13078 3.06054,7.52539 3.06054,7.52539 l 12.64649,-1.59961 c 0,0 -0.80743,-6.29053 -4.96875,-12.79492 -4.16133,-6.5044 -12.16393,-13.66468 -25.04883,-15.85938 z"
       id="path29267"
       inkscape:connector-curvature="0" />
    <path
       style="color:#000000;font-style:normal;font-variant:normal;font-weight:normal;font-stretch:normal;font-size:medium;line-height:normal;font-family:sans-serif;font-variant-ligatures:normal;font-variant-position:normal;font-variant-caps:normal;font-variant-numeric:normal;font-variant-alternates:normal;font-feature-settings:normal;text-indent:0;text-align:start;text-decoration:none;text-decoration-line:none;text-decoration-style:solid;text-decoration-color:#000000;letter-spacing:normal;word-spacing:normal;text-transform:none;writing-mode:lr-tb;direction:ltr;text-orientation:mixed;dominant-baseline:auto;baseline-shift:baseline;text-anchor:start;white-space:normal;shape-padding:0;clip-rule:nonzero;display:inline;overflow:visible;visibility:visible;opacity:1;isolation:auto;mix-blend-mode:normal;color-interpolation:sRGB;color-interpolation-filters:linearRGB;solid-color:#000000;solid-opacity:1;vector-effect:none;fill:#000000;fill-opacity:1;fill-rule:nonzero;stroke:none;stroke-width:10.68463421;stroke-linecap:butt;stroke-linejoin:miter;stroke-miterlimit:4;stroke-dasharray:none;stroke-dashoffset:0;stroke-opacity:1;color-rendering:auto;image-rendering:auto;shape-rendering:auto;text-rendering:auto;enable-background:accumulate"
       d="m 179.47099,365.99684 c -0.007,-5.8e-4 -0.96316,-0.0228 -1.29576,0.0228 -0.66526,0.0922 -1.02995,0.22724 -1.30703,0.33702 -1.10854,0.44262 -1.20145,0.64634 -1.47605,0.84514 -0.85606,0.61974 -1.20352,0.98254 -1.45349,1.21688 -0.32114,0.20201 -35.54926,23.33716 -63.48131,42.27577 0.56126,-0.9382 1.29366,-2.12082 1.76899,-2.92948 0.78424,-1.33434 1.41879,-2.44388 1.89289,-3.32401 0.23733,-0.44036 0.42235,-0.78789 0.63099,-1.26192 0.10459,-0.23718 0.22325,-0.42461 0.39479,-1.13808 0.0394,-0.1783 0.0901,-0.40438 0.12424,-0.73235 0.0164,-0.16375 0.0337,-0.34698 0.0337,-0.58601 -10e-4,-0.23874 -0.0787,-0.88683 -0.0793,-0.89008 -5.8e-4,-0.003 -0.40437,-1.30469 -0.40549,-1.30719 -9.9e-4,-0.003 -1.15897,-1.64347 -1.16054,-1.64506 -0.002,-9.9e-4 -2.00345,-1.22735 -2.00566,-1.22811 -0.001,-7.4e-4 -1.93529,-0.27048 -1.93798,-0.27048 h -0.0119 -0.0119 c -27.614521,1.234 -49.162845,23.93255 -65.05874,57.44194 -15.89578,33.50935 -22.522931,75.95348 -28.632598,125.65851 -7.409122,50.64206 -10.573761,101.43945 1.411146,210.0618 6.345332,46.45479 13.757605,88.69539 29.756359,119.10527 15.998687,30.40975 37.679403,50.39962 64.878503,50.39962 17.72838,0 33.45588,-8.1918 46.46734,-21.85903 13.0114,-13.66712 23.62752,-32.78476 32.30398,-55.68415 17.35288,-45.79861 26.87676,-106.89322 29.11533,-170.34262 0.19958,-5.65724 0.34098,-11.33262 0.4243,-17.01693 0.0103,-0.56253 0.0162,-1.12508 0.0228,-1.68772 0.29272,-23.1799 -0.38019,-46.49284 -2.01326,-69.30835 -0.0991,-1.38157 -0.20128,-2.76126 -0.30718,-4.13895 -2.4861,-32.33435 -6.91084,-63.587 -13.25904,-91.94845 -11.61721,-51.90121 -29.57779,-93.60725 -55.35751,-115.27826 19.42231,-20.18688 28.50717,-31.10586 31.21567,-34.37882 0.13937,-0.16873 -1.27361,-1.46397 0.24065,-1.05607 v 0 l 1.39952,-7.97873 c -0.40828,-0.37529 -0.83199,-0.7653 -0.83374,-0.76617 -0.005,-0.003 -1.98879,-0.60799 -1.9944,-0.60855 z m -35.94349,35.4928 c -2.99141,3.11858 -1.66073,1.85678 -5.31829,5.64498 l -4.29286,4.43947 5.01401,3.60559 c 23.98414,17.2557 43.40686,59.47442 55.43625,113.21631 6.20846,27.73666 10.56167,58.47904 13.01717,90.34476 0.0827,1.0707 0.16292,2.14272 0.24115,3.21595 1.67447,22.97377 2.36637,46.49597 2.05992,69.86615 -0.007,0.44224 -0.0114,0.88366 -0.0187,1.32542 -0.0818,5.55668 -0.22026,11.10404 -0.41527,16.63248 -2.20923,62.61723 -11.7258,122.88825 -28.4167,166.9399 -8.34546,22.02587 -18.49712,39.9536 -30.06188,52.10122 -11.56473,12.14749 -24.22069,18.54625 -38.72649,18.54625 -21.979048,0 -40.354445,-16.05256 -55.424976,-44.69823 C 44.085436,873.69331 31.69977,831.88729 25.027224,786.83883 17.896655,724.6498 16.774591,620.45327 22.390361,582.07346 28.4078,533.11945 39.186192,489.23624 54.288708,457.39916 c 12.471398,-26.29031 27.604125,-42.83127 44.822361,-48.58559 -0.657597,1.08229 -1.15542,1.92971 -1.836651,3.04217 -4.253507,6.94746 -8.597153,13.91543 -8.597153,13.91543 l 7.695872,7.12112 c 16.301243,-12.0312 28.888533,-19.59125 47.154683,-31.40265 z"
       id="path7491"
       inkscape:connector-curvature="0"
       sodipodi:nodetypes="ccccccccccccccsssccsccsscsssssssccccccccccccssssssscscccccccccc" />
    <path
       style="color:#000000;font-style:normal;font-variant:normal;font-weight:normal;font-stretch:normal;font-size:medium;line-height:normal;font-family:sans-serif;font-variant-ligatures:normal;font-variant-position:normal;font-variant-caps:normal;font-variant-numeric:normal;font-variant-alternates:normal;font-feature-settings:normal;text-indent:0;text-align:start;text-decoration:none;text-decoration-line:none;text-decoration-style:solid;text-decoration-color:#000000;letter-spacing:normal;word-spacing:normal;text-transform:none;writing-mode:lr-tb;direction:ltr;text-orientation:mixed;dominant-baseline:auto;baseline-shift:baseline;text-anchor:start;white-space:normal;shape-padding:0;clip-rule:nonzero;display:inline;overflow:visible;visibility:visible;opacity:1;isolation:auto;mix-blend-mode:normal;color-interpolation:sRGB;color-interpolation-filters:linearRGB;solid-color:#000000;solid-opacity:1;vector-effect:none;fill:#000000;fill-opacity:1;fill-rule:nonzero;stroke:none;stroke-width:10.68463421;stroke-linecap:butt;stroke-linejoin:miter;stroke-miterlimit:4;stroke-dasharray:none;stroke-dashoffset:0;stroke-opacity:1;color-rendering:auto;image-rendering:auto;shape-rendering:auto;text-rendering:auto;enable-background:accumulate"
       d="m 189.23994,290.5382 -23.39147,26.78289 c -5.75856,-0.4657 -11.90886,-0.32556 -15.75195,0.11175 h -0.0225 -0.0337 c -40.96351,5.09676 -73.241923,37.20273 -97.013438,83.7291 -23.77149,46.52625 -38.748501,102.18824 -46.660514,168.58635 -8.5579126,68.85458 -8.1500463,151.55076 0.7866686,222.27665 8.8543494,65.59627 25.5326844,124.07241 50.9101494,167.93938 25.377464,43.86698 60.055564,72.23618 103.481074,72.23618 52.43872,0 92.15739,-38.93987 119.04158,-96.72059 26.88423,-57.7807 41.80762,-135.10256 45.52082,-215.55924 0.34242,-7.41884 0.58911,-14.86399 0.7403,-22.32247 0.0147,-0.76181 0.0306,-1.52379 0.0437,-2.28591 0.48681,-27.58324 -0.33168,-55.33111 -2.44754,-82.58806 -3.46048,-44.57476 -10.39117,-87.83693 -20.75849,-126.9205 -18.59687,-70.10757 -48.04062,-127.06481 -89.93756,-153.58784 l -3.72953,-2.36626 -25.01393,26.64776 c 1.32898,-6.6341 2.84118,-13.96136 4.59712,-21.9717 4.30069,-19.6197 8.86755,-39.25615 8.86755,-39.25615 z m -5.83657,22.92939 c -1.65441,7.25447 -2.18887,9.37872 -4.24788,18.77176 -2.16036,9.85524 -4.24649,19.71056 -5.67883,27.1773 -0.71614,3.73345 -1.26789,6.85382 -1.58874,9.19428 -0.16031,1.17026 -0.26655,2.11032 -0.29301,3.07606 -0.0114,0.48305 -0.0579,0.91501 0.11193,1.80285 0.0849,0.44431 0.16982,1.03348 0.78875,2.01683 0.61896,0.9835 2.54188,2.54654 4.60843,2.54654 l -3.77461,-1.56626 3.89856,3.89861 3.77465,-4.01126 30.28714,-32.27024 c 36.22036,25.04675 64.37695,77.77076 82.06148,144.4386 10.11529,38.1334 16.93091,80.54486 20.37041,124.31201 2.11861,26.9581 2.95622,54.4306 2.49514,81.73435 -0.0114,0.64175 -0.0228,1.28335 -0.0344,1.92487 -0.14657,7.65685 -0.39515,15.29919 -0.74648,22.91193 -3.66667,79.44805 -18.55081,155.714 -44.5294,211.54806 -25.97838,55.83422 -62.18975,90.53482 -109.36264,90.53482 -38.81005,0 -69.942605,-24.91198 -94.230431,-66.89558 C 43.025212,912.62968 26.138411,853.20775 17.409988,788.54393 7.7437783,697.06936 7.0476458,641.58169 15.998842,578.48213 24.108904,513.27535 39.635702,450.8509 62.535631,406.03046 c 22.89241,-44.80572 52.627959,-73.46703 88.788309,-77.98268 4.43234,-0.50386 11.70284,-1.03448 16.10128,-0.2368 l 2.97462,0.53997 z"
       id="path7491-0"
       inkscape:connector-curvature="0"
       sodipodi:nodetypes="cccccsccsssssssscccccccccccccccccccsssssscccscccc" />
    <path
       inkscape:connector-curvature="0"
       id="path87-11-5-1-3-9"
       d="m 713.8242,307.09893 c -17.16071,0.16362 -31.0378,7.06444 -39.97551,17.38761 -8.96167,10.35119 -13.1316,23.70869 -13.01067,36.86332 0.12013,13.15474 4.52567,26.35323 13.59659,36.39079 9.04128,10.00413 22.9193,16.4093 39.71449,15.89095 16.48723,-0.0382 29.89955,-7.0346 38.41531,-17.36921 8.53903,-10.36288 12.4651,-23.63717 12.38036,-36.72329 -0.0861,-13.08635 -4.17418,-26.23346 -12.80563,-36.34057 -8.60867,-10.08108 -22.07019,-16.6604 -38.31494,-16.0996 z m 0.512,17.26889 c 11.59245,-0.42656 19.15606,3.61815 24.65479,10.05723 5.49897,6.43909 8.60491,15.73901 8.66605,25.22746 0.063,9.48857 -2.9156,18.91914 -8.43364,25.6156 -5.51773,6.69635 -13.27378,11.0894 -25.20372,11.0894 h -0.14514 l -0.14524,0.0115 c -12.40809,0.41685 -20.64183,-3.76593 -26.46826,-10.21301 -5.82632,-6.44694 -9.0502,-15.6044 -9.13607,-24.95816 -0.0869,-9.35373 2.96049,-18.6546 8.79294,-25.3912 5.83256,-6.73673 14.28538,-11.33183 27.16492,-11.42719 h 0.1272 z"
       style="color:#000000;font-style:normal;font-variant:normal;font-weight:normal;font-stretch:normal;font-size:medium;line-height:normal;font-family:sans-serif;font-variant-ligatures:normal;font-variant-position:normal;font-variant-caps:normal;font-variant-numeric:normal;font-variant-alternates:normal;font-feature-settings:normal;text-indent:0;text-align:start;text-decoration:none;text-decoration-line:none;text-decoration-style:solid;text-decoration-color:#000000;letter-spacing:normal;word-spacing:normal;text-transform:none;writing-mode:lr-tb;direction:ltr;text-orientation:mixed;dominant-baseline:auto;baseline-shift:baseline;text-anchor:start;white-space:normal;shape-padding:0;clip-rule:nonzero;display:inline;overflow:visible;visibility:visible;opacity:1;isolation:auto;mix-blend-mode:normal;color-interpolation:sRGB;color-interpolation-filters:linearRGB;solid-color:#000000;solid-opacity:1;vector-effect:none;fill:#000000;fill-opacity:1;fill-rule:nonzero;stroke:none;stroke-width:17.28742981;stroke-linecap:butt;stroke-linejoin:miter;stroke-miterlimit:4;stroke-dasharray:none;stroke-dashoffset:0;stroke-opacity:1;color-rendering:auto;image-rendering:auto;shape-rendering:auto;text-rendering:auto;enable-background:accumulate" />
    <path
       inkscape:connector-curvature="0"
       id="path1039-4-5-9"
       d="m 601.00912,276.49184 -0.11618,17.28731 c 0,0 46.70239,0.30956 93.81213,0.62029 47.10966,0.31084 93.5817,0.62295 96.30884,0.62295 v -17.2873 c -0.52301,0 -49.08381,-0.30966 -96.19253,-0.62041 -47.10917,-0.31072 -93.81226,-0.62284 -93.81226,-0.62284 z"
       style="color:#000000;font-style:normal;font-variant:normal;font-weight:normal;font-stretch:normal;font-size:medium;line-height:normal;font-family:sans-serif;font-variant-ligatures:normal;font-variant-position:normal;font-variant-caps:normal;font-variant-numeric:normal;font-variant-alternates:normal;font-feature-settings:normal;text-indent:0;text-align:start;text-decoration:none;text-decoration-line:none;text-decoration-style:solid;text-decoration-color:#000000;letter-spacing:normal;word-spacing:normal;text-transform:none;writing-mode:lr-tb;direction:ltr;text-orientation:mixed;dominant-baseline:auto;baseline-shift:baseline;text-anchor:start;white-space:normal;shape-padding:0;clip-rule:nonzero;display:inline;overflow:visible;visibility:visible;opacity:1;isolation:auto;mix-blend-mode:normal;color-interpolation:sRGB;color-interpolation-filters:linearRGB;solid-color:#000000;solid-opacity:1;vector-effect:none;fill:#000000;fill-opacity:1;fill-rule:nonzero;stroke:none;stroke-width:17.28624535;stroke-linecap:butt;stroke-linejoin:miter;stroke-miterlimit:4;stroke-dasharray:none;stroke-dashoffset:0;stroke-opacity:1;color-rendering:auto;image-rendering:auto;shape-rendering:auto;text-rendering:auto;enable-background:accumulate" />
    <path
       inkscape:connector-curvature="0"
       id="path87-11-5-8-6-5-1"
       d="m 941.81722,310.87897 c -16.24518,-0.56079 -29.70669,6.01854 -38.31547,16.0995 -8.63092,10.10724 -12.72005,23.257 -12.80479,36.34325 -0.0861,13.08621 3.84102,26.35784 12.37984,36.72083 8.51283,10.33093 21.91981,17.32605 38.39978,17.36911 16.80248,0.52308 30.68348,-5.88359 39.72729,-15.89106 9.07118,-10.03745 13.47641,-23.23594 13.59701,-36.39069 0.12009,-13.15462 -4.04666,-26.51212 -13.00855,-36.8633 -8.93748,-10.32329 -22.81439,-17.224 -39.97511,-17.38764 z m -0.51515,17.2689 0.12964,0.0115 h 0.12709 c 12.87989,0.095 21.32989,4.69036 27.16235,11.4272 5.83298,6.73672 8.88125,16.03747 8.79566,25.39122 -0.085,9.35361 -3.30981,18.5112 -9.13619,24.95827 -5.82606,6.44694 -14.05981,10.62973 -26.46797,10.21288 l -0.14515,-0.0115 h -0.14503 c -11.93003,0 -19.6861,-4.3956 -25.20382,-11.09206 -5.51805,-6.69644 -8.49542,-16.12692 -8.43386,-25.61558 0.0598,-9.48846 3.16742,-18.78827 8.66614,-25.22747 5.49896,-6.43906 13.05954,-10.48356 24.65199,-10.05723 z"
       style="color:#000000;font-style:normal;font-variant:normal;font-weight:normal;font-stretch:normal;font-size:medium;line-height:normal;font-family:sans-serif;font-variant-ligatures:normal;font-variant-position:normal;font-variant-caps:normal;font-variant-numeric:normal;font-variant-alternates:normal;font-feature-settings:normal;text-indent:0;text-align:start;text-decoration:none;text-decoration-line:none;text-decoration-style:solid;text-decoration-color:#000000;letter-spacing:normal;word-spacing:normal;text-transform:none;writing-mode:lr-tb;direction:ltr;text-orientation:mixed;dominant-baseline:auto;baseline-shift:baseline;text-anchor:start;white-space:normal;shape-padding:0;clip-rule:nonzero;display:inline;overflow:visible;visibility:visible;opacity:1;isolation:auto;mix-blend-mode:normal;color-interpolation:sRGB;color-interpolation-filters:linearRGB;solid-color:#000000;solid-opacity:1;vector-effect:none;fill:#000000;fill-opacity:1;fill-rule:nonzero;stroke:none;stroke-width:17.28742981;stroke-linecap:butt;stroke-linejoin:miter;stroke-miterlimit:4;stroke-dasharray:none;stroke-dashoffset:0;stroke-opacity:1;color-rendering:auto;image-rendering:auto;shape-rendering:auto;text-rendering:auto;enable-background:accumulate" />
    <path
       inkscape:connector-curvature="0"
       id="path59-1-3-2-9"
       d="m 940.81893,235.90926 c -33.16071,-0.60606 -65.16728,18.2426 -104.12511,56.76114 l 12.15594,12.29303 c 37.60054,-37.17666 65.26722,-52.25432 91.65549,-51.77209 26.38795,0.48223 54.54062,16.95679 92.09595,48.7313 l 11.1633,-13.19581 C 1005.2533,256.14374 973.98046,236.5152 940.81893,235.90926 Z"
       style="color:#000000;font-style:normal;font-variant:normal;font-weight:normal;font-stretch:normal;font-size:medium;line-height:normal;font-family:sans-serif;font-variant-ligatures:normal;font-variant-position:normal;font-variant-caps:normal;font-variant-numeric:normal;font-variant-alternates:normal;font-feature-settings:normal;text-indent:0;text-align:start;text-decoration:none;text-decoration-line:none;text-decoration-style:solid;text-decoration-color:#000000;letter-spacing:normal;word-spacing:normal;text-transform:none;writing-mode:lr-tb;direction:ltr;text-orientation:mixed;dominant-baseline:auto;baseline-shift:baseline;text-anchor:start;white-space:normal;shape-padding:0;clip-rule:nonzero;display:inline;overflow:visible;visibility:visible;opacity:1;isolation:auto;mix-blend-mode:normal;color-interpolation:sRGB;color-interpolation-filters:linearRGB;solid-color:#000000;solid-opacity:1;vector-effect:none;fill:#000000;fill-opacity:1;fill-rule:nonzero;stroke:none;stroke-width:17.28624535;stroke-linecap:butt;stroke-linejoin:miter;stroke-miterlimit:4;stroke-dasharray:none;stroke-dashoffset:0;stroke-opacity:1;color-rendering:auto;image-rendering:auto;shape-rendering:auto;text-rendering:auto;enable-background:accumulate" />
    <path
       inkscape:connector-curvature="0"
       id="path29-8-7-0-7-2"
       d="m 829.55233,635.83776 c -18.03578,-0.48744 -34.79957,2.31046 -49.88242,7.0743 -24.13223,7.62179 -43.9925,19.93289 -58.66731,31.10329 -14.67463,11.17028 -24.54903,21.59993 -27.28652,24.3116 l 12.16667,12.27999 c 3.55216,-3.51922 12.03898,-12.51988 25.59141,-22.83623 13.55276,-10.31611 31.78561,-21.54589 53.40399,-28.37402 43.23656,-13.65561 99.88861,-11.08755 165.69866,53.69949 l 12.12941,-12.31943 C 915.06829,653.8797 869.23095,636.9102 829.55233,635.83776 Z"
       style="color:#000000;font-style:normal;font-variant:normal;font-weight:normal;font-stretch:normal;font-size:medium;line-height:normal;font-family:sans-serif;font-variant-ligatures:normal;font-variant-position:normal;font-variant-caps:normal;font-variant-numeric:normal;font-variant-alternates:normal;font-feature-settings:normal;text-indent:0;text-align:start;text-decoration:none;text-decoration-line:none;text-decoration-style:solid;text-decoration-color:#000000;letter-spacing:normal;word-spacing:normal;text-transform:none;writing-mode:lr-tb;direction:ltr;text-orientation:mixed;dominant-baseline:auto;baseline-shift:baseline;text-anchor:start;white-space:normal;shape-padding:0;clip-rule:nonzero;display:inline;overflow:visible;visibility:visible;opacity:1;isolation:auto;mix-blend-mode:normal;color-interpolation:sRGB;color-interpolation-filters:linearRGB;solid-color:#000000;solid-opacity:1;vector-effect:none;fill:#000000;fill-opacity:1;fill-rule:nonzero;stroke:none;stroke-width:17.28742981;stroke-linecap:butt;stroke-linejoin:miter;stroke-miterlimit:4;stroke-dasharray:none;stroke-dashoffset:0;stroke-opacity:1;color-rendering:auto;image-rendering:auto;shape-rendering:auto;text-rendering:auto;enable-background:accumulate" />
  </g>
</svg>
