<?xml version="1.0" encoding="UTF-8" standalone="no"?>
<!-- Created with Inkscape (http://www.inkscape.org/) -->

<svg
   xmlns:dc="http://purl.org/dc/elements/1.1/"
   xmlns:cc="http://creativecommons.org/ns#"
   xmlns:rdf="http://www.w3.org/1999/02/22-rdf-syntax-ns#"
   xmlns:svg="http://www.w3.org/2000/svg"
   xmlns="http://www.w3.org/2000/svg"
   xmlns:sodipodi="http://sodipodi.sourceforge.net/DTD/sodipodi-0.dtd"
   xmlns:inkscape="http://www.inkscape.org/namespaces/inkscape"
   width="1000"
   height="1000"
   viewBox="0 0 1000 1000"
   version="1.1"
   id="svg58798"
   inkscape:version="0.92.4 (5da689c313, 2019-01-14)"
   sodipodi:docname="Rato.svg">
  <defs
     id="defs58792" />
  <sodipodi:namedview
     id="base"
     pagecolor="#ffffff"
     bordercolor="#666666"
     borderopacity="1.0"
     inkscape:pageopacity="0.0"
     inkscape:pageshadow="2"
     inkscape:zoom="0.1767767"
     inkscape:cx="597.42624"
     inkscape:cy="841.45593"
     inkscape:document-units="px"
     inkscape:current-layer="layer1"
     showgrid="false"
     units="px"
     inkscape:window-width="1366"
     inkscape:window-height="715"
     inkscape:window-x="-8"
     inkscape:window-y="-8"
     inkscape:window-maximized="1"
     inkscape:snap-global="true" />
  <metadata
     id="metadata58795">
    <rdf:RDF>
      <cc:Work
         rdf:about="">
        <dc:format>image/svg+xml</dc:format>
        <dc:type
           rdf:resource="http://purl.org/dc/dcmitype/StillImage" />
        <dc:title></dc:title>
      </cc:Work>
    </rdf:RDF>
  </metadata>
  <g
     inkscape:label="Camada 1"
     inkscape:groupmode="layer"
     id="layer1"
     transform="translate(0,-32.41665)">
    <path
       style="color:#000000;font-style:normal;font-variant:normal;font-weight:normal;font-stretch:normal;font-size:medium;line-height:normal;font-family:sans-serif;font-variant-ligatures:normal;font-variant-position:normal;font-variant-caps:normal;font-variant-numeric:normal;font-variant-alternates:normal;font-feature-settings:normal;text-indent:0;text-align:start;text-decoration:none;text-decoration-line:none;text-decoration-style:solid;text-decoration-color:#000000;letter-spacing:normal;word-spacing:normal;text-transform:none;writing-mode:lr-tb;direction:ltr;text-orientation:mixed;dominant-baseline:auto;baseline-shift:baseline;text-anchor:start;white-space:normal;shape-padding:0;clip-rule:nonzero;display:inline;overflow:visible;visibility:visible;opacity:1;isolation:auto;mix-blend-mode:normal;color-interpolation:sRGB;color-interpolation-filters:linearRGB;solid-color:#000000;solid-opacity:1;vector-effect:none;fill:#000000;fill-opacity:1;fill-rule:nonzero;stroke:none;stroke-width:38.60417557;stroke-linecap:butt;stroke-linejoin:miter;stroke-miterlimit:4;stroke-dasharray:none;stroke-dashoffset:0;stroke-opacity:1;color-rendering:auto;image-rendering:auto;shape-rendering:auto;text-rendering:auto;enable-background:accumulate"
       d="M 673.09302,32.471533 C 524.34849,32.438274 422.16468,92.166582 363.38776,181.51321 c -58.78706,89.36204 -75.19371,206.0471 -62.34529,321.55013 2.75668,24.78156 6.86259,49.53212 12.22657,73.98547 l 21.69902,8.57116 70.85848,179.1895 c -5.87921,2.80535 -10.82322,5.88095 -16.32939,11.06919 9.03673,15.56331 18.64671,30.50958 28.7901,44.72207 62.2379,87.20514 146.0329,147.95236 241.34092,147.38457 95.2632,-0.56751 178.37111,-61.95094 240.24124,-149.45033 C 961.73949,731.03548 1003.8167,616.25072 1017.7903,501.0347 1031.764,385.81866 1017.7633,269.7485 963.4779,180.74038 909.20025,91.748612 813.02706,31.978754 673.16734,32.471533 Z m 0.0594,38.603551 h 0.0443 0.0378 c 129.189,-0.475588 209.31566,51.112776 257.28759,129.765896 47.97194,78.65311 62.1672,186.5416 48.94739,295.54198 C 966.2497,605.38324 925.74603,715.07445 868.34772,796.24968 810.94945,877.42486 738.10039,928.9129 659.3981,929.3818 580.74073,929.85029 507.38203,878.97812 449.71277,798.17429 c -9.57013,-13.40916 -18.66741,-27.61031 -27.24087,-42.46945 -7.40251,5.68818 -14.11656,7.97488 -16.64586,9.10463 L 334.9681,585.61997 c 7.29844,2.62636 14.56535,5.28427 21.97569,7.79861 -8.06312,-31.1049 -13.99799,-62.88623 -17.52808,-94.62063 C 327.28957,389.78816 343.59312,281.84158 395.6379,202.72843 447.68276,123.61527 534.42649,71.024962 673.15248,71.075084 Z"
       id="path10-9-5"
       inkscape:connector-curvature="0"
       sodipodi:nodetypes="cssccccssssccccccsssscccccsscc" />
    <path
       style="color:#000000;font-style:normal;font-variant:normal;font-weight:normal;font-stretch:normal;font-size:medium;line-height:normal;font-family:sans-serif;font-variant-ligatures:normal;font-variant-position:normal;font-variant-caps:normal;font-variant-numeric:normal;font-variant-alternates:normal;font-feature-settings:normal;text-indent:0;text-align:start;text-decoration:none;text-decoration-line:none;text-decoration-style:solid;text-decoration-color:#000000;letter-spacing:normal;word-spacing:normal;text-transform:none;writing-mode:lr-tb;direction:ltr;text-orientation:mixed;dominant-baseline:auto;baseline-shift:baseline;text-anchor:start;white-space:normal;shape-padding:0;clip-rule:nonzero;display:inline;overflow:visible;visibility:visible;opacity:1;isolation:auto;mix-blend-mode:normal;color-interpolation:sRGB;color-interpolation-filters:linearRGB;solid-color:#000000;solid-opacity:1;vector-effect:none;fill:#000000;fill-opacity:1;fill-rule:nonzero;stroke:none;stroke-width:19.30208778;stroke-linecap:butt;stroke-linejoin:miter;stroke-miterlimit:4;stroke-dasharray:none;stroke-dashoffset:0;stroke-opacity:1;color-rendering:auto;image-rendering:auto;shape-rendering:auto;text-rendering:auto;enable-background:accumulate"
       d="m 652.47699,497.40572 c 0,0 -2.17216,21.48546 -5.77334,44.05289 -1.8006,11.2837 -3.96669,22.83446 -6.29746,31.81227 -1.16541,4.4889 -2.39144,8.34958 -3.48468,11.00768 -1.09324,2.65816 -2.50536,4.04181 -1.49131,3.19676 -2.13592,1.77987 -4.39812,3.27001 -5.58136,8.00289 -0.59164,2.36645 -0.24834,5.88816 1.26244,8.34991 1.51062,2.46174 3.46869,3.66429 4.95384,4.36317 5.94059,2.79556 8.99137,1.72559 13.03054,1.44706 8.07835,-0.55716 16.83269,-2.35512 16.83269,-2.35512 L 662.141,588.35386 c 0,0 -4.12689,0.52787 -6.62234,0.93759 1.28039,-3.43248 2.48804,-7.01835 3.56586,-11.17008 2.60472,-10.03291 4.82612,-21.99447 6.68141,-33.62109 3.7106,-23.25319 5.92097,-45.15292 5.92097,-45.15292 z"
       id="path971-8"
       inkscape:connector-curvature="0" />
    <path
       style="color:#000000;font-style:normal;font-variant:normal;font-weight:normal;font-stretch:normal;font-size:medium;line-height:normal;font-family:sans-serif;font-variant-ligatures:normal;font-variant-position:normal;font-variant-caps:normal;font-variant-numeric:normal;font-variant-alternates:normal;font-feature-settings:normal;text-indent:0;text-align:start;text-decoration:none;text-decoration-line:none;text-decoration-style:solid;text-decoration-color:#000000;letter-spacing:normal;word-spacing:normal;text-transform:none;writing-mode:lr-tb;direction:ltr;text-orientation:mixed;dominant-baseline:auto;baseline-shift:baseline;text-anchor:start;white-space:normal;shape-padding:0;clip-rule:nonzero;display:inline;overflow:visible;visibility:visible;opacity:1;isolation:auto;mix-blend-mode:normal;color-interpolation:sRGB;color-interpolation-filters:linearRGB;solid-color:#000000;solid-opacity:1;vector-effect:none;fill:#000000;fill-opacity:1;fill-rule:nonzero;stroke:none;stroke-width:21.04302597;stroke-linecap:butt;stroke-linejoin:miter;stroke-miterlimit:4;stroke-dasharray:none;stroke-dashoffset:0;stroke-opacity:1;color-rendering:auto;image-rendering:auto;shape-rendering:auto;text-rendering:auto;enable-background:accumulate"
       d="m 275.80888,572.85746 -0.78256,0.0303 -0.77519,0.14025 c 0,0 -19.02553,3.46555 -39.1286,6.62972 -10.05153,1.58207 -20.37983,3.08969 -28.57126,4.03097 -4.09572,0.47064 -7.67369,0.79682 -10.2694,0.93024 -2.59572,0.13345 -4.90419,-0.33679 -3.086,0.14024 l -0.51679,-0.14024 -0.53155,-0.0812 c 0,0 -48.26876,-6.79729 -71.04425,34.85397 l -0.53893,0.98127 -0.32486,1.0779 c 0,0 -1.24517,4.21403 -5.36726,8.91098 -4.12208,4.69696 -10.11618,9.26818 -22.044901,9.25056 h -0.620153 l -0.605384,0.0737 c 0,0 -12.486087,1.39632 -24.599334,9.95194 -12.113249,8.55558 -24.115437,25.40653 -23.905357,51.63495 l 0.03704,4.7176 0.664447,0.58325 c -0.871453,2.8682 -4.645556,10.6803 -17.615252,24.15635 l -0.221482,0.22906 -0.214102,0.24342 c 0,0 -22.4040671,28.09423 -7.596852,61.15876 -0.106551,-0.0994 0.08119,0.12549 -3.37392,3.94239 l 0.287929,-0.30996 c 0,0 -9.4974413,9.88647 -13.3406364,26.4893 -3.7254027,16.09399 -2.02846132,39.15642 14.2044174,66.02399 0.236509,1.61291 4.417467,30.13158 8.896219,58.46401 l 0.162421,1.06311 0.383903,1.00406 c 0,0 6.942557,18.99854 3.824267,40.12525 l -0.0443,0.33944 -0.02952,0.33226 c -0.413732,5.02885 -0.739285,7.05449 -2.687322,10.4539 -1.948037,3.3995 -6.188601,8.4636 -14.839335,16.3677 l 14.196908,15.5334 c 9.347259,-8.5405 15.117569,-14.8392 18.899848,-21.4395 3.691205,-6.4415 4.819772,-12.88014 5.330348,-18.73739 3.678463,-25.3658 -3.364782,-45.4439 -4.414884,-48.32753 v -0.008 C 41.030411,914.72459 36.504314,883.8261 36.504314,883.8261 l -0.324839,-2.21484 -1.20339,-1.88998 c -15.229003,-24.02964 -15.386732,-41.10029 -12.75002,-52.49104 2.636711,-11.39076 7.855249,-16.49307 7.855249,-16.49307 l 0.147658,-0.15497 0.147657,-0.15498 c 5.651414,-6.24319 8.464081,-9.70776 9.545902,-15.45952 0.476307,-2.53235 -0.112039,-5.98784 -1.734946,-8.76332 l 0.0223,0.0151 c -12.618237,-23.74849 3.565871,-41.37292 3.565871,-41.37292 l -0.435584,0.47987 c 14.825103,-15.40386 20.958821,-25.60634 23.152312,-34.12307 1.096746,-4.25836 1.050027,-8.23184 0.07382,-11.45067 -0.06441,-0.21242 -0.179624,-0.33453 -0.251027,-0.53894 0.371268,-18.73311 7.521152,-27.22973 14.824569,-32.38814 7.575691,-5.3507 14.876248,-6.23843 14.876248,-6.23843 l -1.225538,0.0737 c 17.970604,0.0265 30.738724,-8.25581 37.903054,-16.41925 5.8225,-6.63449 8.0647,-12.44306 8.9036,-14.81718 16.41469,-29.92176 49.30942,-24.08994 49.30942,-24.08994 l -1.04849,-0.22181 c 4.09944,1.0759 6.17511,0.69551 9.50898,0.52417 3.33385,-0.17124 7.23259,-0.54752 11.59092,-1.04834 8.71668,-1.00165 19.22371,-2.53451 29.43505,-4.14171 19.83695,-3.1223 37.44488,-6.33406 38.50104,-6.52638 17.72647,-0.47623 32.28403,3.7887 32.32909,3.80212 7e-5,3e-5 0.0295,0.008 0.0295,0.008 39.01139,16.76983 91.28037,31.33239 91.28037,31.33239 l 0.36175,0.10319 0.36175,0.0737 c 13.60989,2.77551 25.75841,7.75929 25.75841,7.75929 l 0.5168,0.21394 0.53158,0.15499 c 25.60109,7.55918 33.86466,19.18021 37.39362,28.59343 3.29431,8.78729 2.07127,15.01245 1.88998,15.87292 -4.0796,10.77613 -19.93598,27.64972 -35.17881,40.2286 -15.45332,12.75259 -29.63436,21.86773 -29.63436,21.86773 l 2.51749,-1.18124 c -56.70197,17.88992 -63.53598,90.03268 -63.53598,90.03268 l -0.14027,1.18125 0.14027,1.18861 c 4.15858,36.75196 -5.85311,58.72938 -16.36756,72.24762 -10.51443,13.51822 -21.03346,17.94011 -21.03346,17.94011 l -1.65374,0.70874 -1.32151,1.22554 c -10.66538,9.8658 -15.49169,23.45249 -21.18851,37.05403 -5.69681,13.60157 -11.84177,27.43687 -21.63146,38.65602 l 15.85816,13.8354 c 12.495,-14.3195 19.40814,-30.57617 25.18257,-44.36302 5.69845,-13.60542 10.69746,-24.48826 15.86554,-29.43504 3.57868,-1.77802 14.95115,-7.81062 26.53362,-22.70197 13.29205,-17.08931 24.74076,-45.05923 20.71599,-85.41106 0.1043,-0.75561 8.2899,-59.26902 48.91077,-72.08519 l 1.33627,-0.4282 1.18123,-0.75304 c 0,0 15.12449,-9.70829 31.65725,-23.35168 16.53275,-13.64334 34.99579,-30.39372 41.90453,-49.93691 l 0.19202,-0.55373 0.13305,-0.56847 c 0,0 3.08333,-13.42467 -2.62828,-28.65984 -5.71158,-15.23518 -20.69879,-32.39934 -51.14032,-41.38773 l 1.04097,0.36931 c 0,0 -13.58147,-5.66698 -29.59746,-8.93316 l 0.71611,0.17727 c 0,0 -52.93057,-14.83494 -89.70046,-30.78607 l -0.5537,-0.24343 -0.58324,-0.17728 c 0,0 -17.73064,-5.42529 -39.53464,-4.73234 z"
       id="path1627"
       inkscape:connector-curvature="0" />
    <path
       style="color:#000000;font-style:normal;font-variant:normal;font-weight:normal;font-stretch:normal;font-size:medium;line-height:normal;font-family:sans-serif;font-variant-ligatures:normal;font-variant-position:normal;font-variant-caps:normal;font-variant-numeric:normal;font-variant-alternates:normal;font-feature-settings:normal;text-indent:0;text-align:start;text-decoration:none;text-decoration-line:none;text-decoration-style:solid;text-decoration-color:#000000;letter-spacing:normal;word-spacing:normal;text-transform:none;writing-mode:lr-tb;direction:ltr;text-orientation:mixed;dominant-baseline:auto;baseline-shift:baseline;text-anchor:start;white-space:normal;shape-padding:0;clip-rule:nonzero;display:inline;overflow:visible;visibility:visible;opacity:1;isolation:auto;mix-blend-mode:normal;color-interpolation:sRGB;color-interpolation-filters:linearRGB;solid-color:#000000;solid-opacity:1;vector-effect:none;fill:#000000;fill-opacity:1;fill-rule:nonzero;stroke:none;stroke-width:21.04302597;stroke-linecap:butt;stroke-linejoin:miter;stroke-miterlimit:4;stroke-dasharray:none;stroke-dashoffset:0;stroke-opacity:1;color-rendering:auto;image-rendering:auto;shape-rendering:auto;text-rendering:auto;enable-background:accumulate"
       d="m 218.99858,626.83275 c -25.71902,-0.32055 -49.08054,3.46253 -49.08054,3.46253 l 3.32964,20.77505 c 0,0 22.00849,-3.48929 45.49252,-3.19672 11.74201,0.14629 23.78432,1.30443 32.964,3.94976 9.17967,2.64535 14.57958,6.52642 16.49306,10.46137 l 0.0371,0.0666 0.0295,0.0665 c 0,0 8.69021,17.26201 17.03202,38.14665 8.32535,20.84352 15.55005,46.33544 14.66952,56.5962 -0.0201,0.1667 -1.33751,11.15807 -4.82094,21.52811 -1.75486,5.22417 -4.13196,10.1065 -6.24581,12.72049 -2.11386,2.61397 -2.54769,2.63824 -3.66185,2.53229 l -11.57614,-1.10005 0.0517,11.62046 c 0,0 0.0352,22.67895 -3.94977,43.2777 -1.99256,10.2994 -5.22199,19.97268 -8.62306,25.03494 -1.70054,2.5311 -3.24794,3.76201 -4.26724,4.23031 -1.01929,0.46827 -1.71346,0.6942 -4.03098,-0.0151 l -13.5991,9.95969 0.13288,1.80124 c 0,0 2.56254,16.6441 0.45035,31.54649 -1.05608,7.45119 -3.4084,14.05884 -6.34916,17.63004 -2.94076,3.57116 -5.61565,5.36256 -13.43662,4.46656 l -6.28273,-0.72351 -3.00476,4.36321 c -0.22983,0.14137 -0.82574,0.57267 -2.99002,0.51679 -4.47746,-0.11566 -16.10798,-3.31476 -36.04999,-21.02607 l 1.4101,1.5282 c 0,0 0.0159,-1.56986 0.0664,0.76782 l -21.03348,0.45035 c 0.16727,7.73258 4.17127,11.45065 4.17127,11.45065 l 0.62753,0.84162 0.78257,0.69396 c 21.94418,19.48953 37.37144,26.01437 49.47921,26.32694 6.05389,0.15611 11.08319,-1.48898 14.47759,-3.52894 0.5101,-0.30656 0.41018,-0.44587 0.87116,-0.78999 11.32365,-0.10054 21.18603,-4.70401 27.16115,-11.96005 6.84207,-8.30883 9.57232,-18.44821 10.93386,-28.05448 1.35923,-9.58997 1.22693,-19.04277 0.76043,-26.11278 1.41321,-0.35872 2.93895,-0.41479 4.23769,-1.01145 5.63913,-2.59072 9.78133,-6.89773 12.94936,-11.61306 6.33603,-9.43071 9.54995,-21.08497 11.8124,-32.77943 3.24248,-16.76017 3.86937,-30.58818 4.07529,-38.91449 4.35119,-1.93362 8.10755,-4.89509 10.76405,-8.18008 4.74514,-5.86784 7.62433,-12.66927 9.83381,-19.24686 4.41898,-13.15519 5.81761,-26.00945 5.81761,-26.00945 l 0.0147,-0.12548 0.0148,-0.1255 c 1.77605,-19.85138 -7.37405,-44.51999 -16.1018,-66.37095 -8.70523,-21.79459 -17.68685,-39.61214 -17.73337,-39.70446 -5.76441,-11.81943 -17.43862,-17.9494 -29.57531,-21.44685 -12.14845,-3.5009 -25.67106,-4.61645 -38.5306,-4.77668 z"
       id="path1629"
       inkscape:connector-curvature="0"
       sodipodi:nodetypes="cccsscccsccccccccccccscccccccccccccccsscccsccscccscccc" />
    <path
       style="color:#000000;font-style:normal;font-variant:normal;font-weight:normal;font-stretch:normal;font-size:medium;line-height:normal;font-family:sans-serif;font-variant-ligatures:normal;font-variant-position:normal;font-variant-caps:normal;font-variant-numeric:normal;font-variant-alternates:normal;font-feature-settings:normal;text-indent:0;text-align:start;text-decoration:none;text-decoration-line:none;text-decoration-style:solid;text-decoration-color:#000000;letter-spacing:normal;word-spacing:normal;text-transform:none;writing-mode:lr-tb;direction:ltr;text-orientation:mixed;dominant-baseline:auto;baseline-shift:baseline;text-anchor:start;white-space:normal;shape-padding:0;clip-rule:nonzero;display:inline;overflow:visible;visibility:visible;opacity:1;isolation:auto;mix-blend-mode:normal;color-interpolation:sRGB;color-interpolation-filters:linearRGB;solid-color:#000000;solid-opacity:1;vector-effect:none;fill:#000000;fill-opacity:1;fill-rule:nonzero;stroke:none;stroke-width:21.04302597;stroke-linecap:butt;stroke-linejoin:miter;stroke-miterlimit:4;stroke-dasharray:none;stroke-dashoffset:0;stroke-opacity:1;color-rendering:auto;image-rendering:auto;shape-rendering:auto;text-rendering:auto;enable-background:accumulate"
       d="m 93.61729,893.85957 -12.594976,16.85484 c 0,0 10.068501,7.56294 22.450956,14.05677 6.19122,3.24689 12.99211,6.30136 20.07371,8.04718 7.08158,1.74585 15.0987,2.57604 22.67982,-1.85306 l -10.61641,-18.16895 c -0.0988,0.0579 -2.62073,0.68055 -7.02839,-0.40605 -4.40764,-1.08662 -10.04618,-3.48747 -15.33396,-6.26057 -10.57559,-5.54623 -19.63075,-12.27016 -19.63075,-12.27016 z"
       id="path1631"
       inkscape:connector-curvature="0" />
    <path
       style="color:#000000;font-style:normal;font-variant:normal;font-weight:normal;font-stretch:normal;font-size:medium;line-height:normal;font-family:sans-serif;font-variant-ligatures:normal;font-variant-position:normal;font-variant-caps:normal;font-variant-numeric:normal;font-variant-alternates:normal;font-feature-settings:normal;text-indent:0;text-align:start;text-decoration:none;text-decoration-line:none;text-decoration-style:solid;text-decoration-color:#000000;letter-spacing:normal;word-spacing:normal;text-transform:none;writing-mode:lr-tb;direction:ltr;text-orientation:mixed;dominant-baseline:auto;baseline-shift:baseline;text-anchor:start;white-space:normal;shape-padding:0;clip-rule:nonzero;display:inline;overflow:visible;visibility:visible;opacity:1;isolation:auto;mix-blend-mode:normal;color-interpolation:sRGB;color-interpolation-filters:linearRGB;solid-color:#000000;solid-opacity:1;vector-effect:none;fill:#000000;fill-opacity:1;fill-rule:nonzero;stroke:none;stroke-width:21.04302597;stroke-linecap:butt;stroke-linejoin:miter;stroke-miterlimit:4;stroke-dasharray:none;stroke-dashoffset:0;stroke-opacity:1;color-rendering:auto;image-rendering:auto;shape-rendering:auto;text-rendering:auto;enable-background:accumulate"
       d="m 99.043615,782.94108 -9.892888,18.57503 c 0,0 23.666003,12.59645 51.347043,25.71412 27.68105,13.11767 57.8164,26.89226 77.72564,29.37595 l 1.27721,0.16255 1.26984,-0.15498 c 0,0 4.1357,-0.42694 8.54184,2.26651 4.40614,2.69341 10.11644,8.21006 9.92981,28.06922 l 21.04084,0.19921 c 0.23194,-24.68071 -9.17604,-39.60408 -19.99249,-46.21604 -10.81646,-6.61198 -22.01537,-5.21223 -22.01537,-5.21223 l 2.55442,0.008 C 209.25749,834.28477 176.67448,821.09211 149.51212,808.22026 122.34976,795.3484 99.043615,782.94171 99.043615,782.94171 Z"
       id="path1633"
       inkscape:connector-curvature="0" />
    <path
       style="color:#000000;font-style:normal;font-variant:normal;font-weight:normal;font-stretch:normal;font-size:medium;line-height:normal;font-family:sans-serif;font-variant-ligatures:normal;font-variant-position:normal;font-variant-caps:normal;font-variant-numeric:normal;font-variant-alternates:normal;font-feature-settings:normal;text-indent:0;text-align:start;text-decoration:none;text-decoration-line:none;text-decoration-style:solid;text-decoration-color:#000000;letter-spacing:normal;word-spacing:normal;text-transform:none;writing-mode:lr-tb;direction:ltr;text-orientation:mixed;dominant-baseline:auto;baseline-shift:baseline;text-anchor:start;white-space:normal;shape-padding:0;clip-rule:nonzero;display:inline;overflow:visible;visibility:visible;opacity:1;isolation:auto;mix-blend-mode:normal;color-interpolation:sRGB;color-interpolation-filters:linearRGB;solid-color:#000000;solid-opacity:1;vector-effect:none;fill:#000000;fill-opacity:1;fill-rule:nonzero;stroke:none;stroke-width:21.04302597;stroke-linecap:butt;stroke-linejoin:miter;stroke-miterlimit:4;stroke-dasharray:none;stroke-dashoffset:0;stroke-opacity:1;color-rendering:auto;image-rendering:auto;shape-rendering:auto;text-rendering:auto;enable-background:accumulate"
       d="m 147.30467,711.21763 -4.68805,20.51669 c 0,0 19.29741,4.4108 40.38367,8.80022 10.54314,2.19473 21.53711,4.38568 30.88944,6.03174 9.35233,1.64603 16.21042,2.86382 22.07444,2.76112 h 0.25102 l 0.25102,-0.0151 c 0,0 6.44249,-0.64814 14.97962,5.30819 8.53711,5.95635 19.13932,18.79212 22.31806,50.83026 l 20.94487,-2.07456 c -3.59979,-36.28204 -17.22511,-56.2512 -31.22166,-66.01657 -13.99656,-9.76536 -28.39408,-9.05125 -28.39408,-9.05125 l 0.50203,-0.0227 c -1.10387,0.0189 -9.07546,-0.8627 -18.05821,-2.4437 -8.98275,-1.58101 -19.82744,-3.7372 -30.24716,-5.90621 -20.83939,-4.33804 -39.98498,-8.71903 -39.98498,-8.71903 z"
       id="path1635"
       inkscape:connector-curvature="0" />
    <path
       style="color:#000000;font-style:normal;font-variant:normal;font-weight:normal;font-stretch:normal;font-size:medium;line-height:normal;font-family:sans-serif;font-variant-ligatures:normal;font-variant-position:normal;font-variant-caps:normal;font-variant-numeric:normal;font-variant-alternates:normal;font-feature-settings:normal;text-indent:0;text-align:start;text-decoration:none;text-decoration-line:none;text-decoration-style:solid;text-decoration-color:#000000;letter-spacing:normal;word-spacing:normal;text-transform:none;writing-mode:lr-tb;direction:ltr;text-orientation:mixed;dominant-baseline:auto;baseline-shift:baseline;text-anchor:start;white-space:normal;shape-padding:0;clip-rule:nonzero;display:inline;overflow:visible;visibility:visible;opacity:1;isolation:auto;mix-blend-mode:normal;color-interpolation:sRGB;color-interpolation-filters:linearRGB;solid-color:#000000;solid-opacity:1;vector-effect:none;fill:#000000;fill-opacity:1;fill-rule:nonzero;stroke:none;stroke-width:21.04302597;stroke-linecap:butt;stroke-linejoin:miter;stroke-miterlimit:4;stroke-dasharray:none;stroke-dashoffset:0;stroke-opacity:1;color-rendering:auto;image-rendering:auto;shape-rendering:auto;text-rendering:auto;enable-background:accumulate"
       d="m 470.6545,637.27197 -15.68835,14.02723 c 0,0 6.04173,7.5984 6.50424,15.09036 0.23133,3.74598 -0.37686,7.21404 -4.18606,11.71644 -3.77093,4.45729 -11.37766,9.88178 -25.27113,14.6769 -1.21435,0.31033 -33.86524,8.4037 -72.12214,-12.78692 l -0.67921,-0.37648 -0.71612,-0.2733 c 0,0 -52.45055,-19.93522 -75.28933,-25.44834 l -4.93167,20.45762 c 18.3054,4.41877 72.54233,24.58487 72.72012,24.65099 45.28647,24.44356 86.71045,14.07891 86.71045,14.07891 l 0.38389,-0.096 0.38389,-0.13268 c 16.54425,-5.64198 27.72666,-12.70815 34.87613,-21.15899 7.14951,-8.4508 9.63677,-18.31868 9.12511,-26.60743 -1.02339,-16.57756 -11.81982,-27.81823 -11.81982,-27.81823 z"
       id="path1637"
       inkscape:connector-curvature="0" />
    <path
       style="color:#000000;font-style:normal;font-variant:normal;font-weight:normal;font-stretch:normal;font-size:medium;line-height:normal;font-family:sans-serif;font-variant-ligatures:normal;font-variant-position:normal;font-variant-caps:normal;font-variant-numeric:normal;font-variant-alternates:normal;font-feature-settings:normal;text-indent:0;text-align:start;text-decoration:none;text-decoration-line:none;text-decoration-style:solid;text-decoration-color:#000000;letter-spacing:normal;word-spacing:normal;text-transform:none;writing-mode:lr-tb;direction:ltr;text-orientation:mixed;dominant-baseline:auto;baseline-shift:baseline;text-anchor:start;white-space:normal;shape-padding:0;clip-rule:nonzero;display:inline;overflow:visible;visibility:visible;opacity:1;isolation:auto;mix-blend-mode:normal;color-interpolation:sRGB;color-interpolation-filters:linearRGB;solid-color:#000000;solid-opacity:1;vector-effect:none;fill:#000000;fill-opacity:1;fill-rule:nonzero;stroke:none;stroke-width:21.04302597;stroke-linecap:butt;stroke-linejoin:miter;stroke-miterlimit:4;stroke-dasharray:none;stroke-dashoffset:0;stroke-opacity:1;color-rendering:auto;image-rendering:auto;shape-rendering:auto;text-rendering:auto;enable-background:accumulate"
       d="m 333.85209,676.57775 c -18.89393,17.57596 -34.91303,13.10441 -34.91303,13.10441 l -4.48873,20.55358 c 0,0 28.46554,5.25344 53.73168,-18.25019 z"
       id="path1639"
       inkscape:connector-curvature="0" />
    <path
       style="color:#000000;font-style:normal;font-variant:normal;font-weight:normal;font-stretch:normal;font-size:medium;line-height:normal;font-family:sans-serif;font-variant-ligatures:normal;font-variant-position:normal;font-variant-caps:normal;font-variant-numeric:normal;font-variant-alternates:normal;font-feature-settings:normal;text-indent:0;text-align:start;text-decoration:none;text-decoration-line:none;text-decoration-style:solid;text-decoration-color:#000000;letter-spacing:normal;word-spacing:normal;text-transform:none;writing-mode:lr-tb;direction:ltr;text-orientation:mixed;dominant-baseline:auto;baseline-shift:baseline;text-anchor:start;white-space:normal;shape-padding:0;clip-rule:nonzero;display:inline;overflow:visible;visibility:visible;opacity:1;isolation:auto;mix-blend-mode:normal;color-interpolation:sRGB;color-interpolation-filters:linearRGB;solid-color:#000000;solid-opacity:1;vector-effect:none;fill:#000000;fill-opacity:1;fill-rule:nonzero;stroke:none;stroke-width:21.04302597;stroke-linecap:butt;stroke-linejoin:miter;stroke-miterlimit:4;stroke-dasharray:none;stroke-dashoffset:0;stroke-opacity:1;color-rendering:auto;image-rendering:auto;shape-rendering:auto;text-rendering:auto;enable-background:accumulate"
       d="m 418.28124,626.53009 c -3.13113,0.0941 -6.11905,0.50689 -8.96264,1.2255 -11.37447,2.87456 -19.70959,11.51415 -22.36975,21.38048 -5.32028,19.73258 8.82831,42.52195 34.98688,48.07646 l 5.67732,1.20339 4.05314,-4.15645 c 0,0 6.24262,-6.39575 12.35136,-15.50381 6.1087,-9.10805 12.90256,-21.11813 12.48421,-35.14929 l -0.19201,-6.50419 -5.90621,-2.73164 c -12.03183,-5.56726 -22.72888,-8.12301 -32.12238,-7.84045 z m 6.62974,21.5281 c 2.43304,0.38842 5.94158,1.91761 8.97743,2.91617 -1.49502,5.22404 -3.92992,10.9534 -7.35322,16.0575 -2.92045,4.35438 -3.9308,5.17111 -5.84717,7.37536 -11.466,-4.86561 -14.8772,-14.39525 -13.42183,-19.79318 0.84373,-3.12931 2.32906,-5.22564 7.21294,-6.45987 2.44196,-0.61713 5.91781,-0.81664 10.43185,-0.096 z"
       id="path1641"
       inkscape:connector-curvature="0" />
    <path
       style="color:#000000;font-style:normal;font-variant:normal;font-weight:normal;font-stretch:normal;font-size:medium;line-height:normal;font-family:sans-serif;font-variant-ligatures:normal;font-variant-position:normal;font-variant-caps:normal;font-variant-numeric:normal;font-variant-alternates:normal;font-feature-settings:normal;text-indent:0;text-align:start;text-decoration:none;text-decoration-line:none;text-decoration-style:solid;text-decoration-color:#000000;letter-spacing:normal;word-spacing:normal;text-transform:none;writing-mode:lr-tb;direction:ltr;text-orientation:mixed;dominant-baseline:auto;baseline-shift:baseline;text-anchor:start;white-space:normal;shape-padding:0;clip-rule:nonzero;display:inline;overflow:visible;visibility:visible;opacity:1;isolation:auto;mix-blend-mode:normal;color-interpolation:sRGB;color-interpolation-filters:linearRGB;solid-color:#000000;solid-opacity:1;vector-effect:none;fill:#000000;fill-opacity:1;fill-rule:nonzero;stroke:none;stroke-width:21.04302597;stroke-linecap:butt;stroke-linejoin:miter;stroke-miterlimit:4;stroke-dasharray:none;stroke-dashoffset:0;stroke-opacity:1;color-rendering:auto;image-rendering:auto;shape-rendering:auto;text-rendering:auto;enable-background:accumulate"
       d="m 116.15683,891.82931 -15.52593,14.21181 c 0,0 28.59394,32.68901 66.79178,32.11497 1.29354,2.60762 2.68914,5.42837 4.98336,8.26131 l 16.3528,-13.24467 c -1.66662,-2.05793 -4.69543,-9.16201 -4.69543,-9.16201 l -2.89404,-8.13577 -8.54185,1.24769 c -27.46401,4.0082 -56.47069,-25.29333 -56.47069,-25.29333 z"
       id="path1643"
       inkscape:connector-curvature="0" />
    <path
       style="color:#000000;font-style:normal;font-variant:normal;font-weight:normal;font-stretch:normal;font-size:medium;line-height:normal;font-family:sans-serif;font-variant-ligatures:normal;font-variant-position:normal;font-variant-caps:normal;font-variant-numeric:normal;font-variant-alternates:normal;font-feature-settings:normal;text-indent:0;text-align:start;text-decoration:none;text-decoration-line:none;text-decoration-style:solid;text-decoration-color:#000000;letter-spacing:normal;word-spacing:normal;text-transform:none;writing-mode:lr-tb;direction:ltr;text-orientation:mixed;dominant-baseline:auto;baseline-shift:baseline;text-anchor:start;white-space:normal;shape-padding:0;clip-rule:nonzero;display:inline;overflow:visible;visibility:visible;opacity:1;isolation:auto;mix-blend-mode:normal;color-interpolation:sRGB;color-interpolation-filters:linearRGB;solid-color:#000000;solid-opacity:1;vector-effect:none;fill:#000000;fill-opacity:1;fill-rule:nonzero;stroke:none;stroke-width:21.04302597;stroke-linecap:butt;stroke-linejoin:miter;stroke-miterlimit:4;stroke-dasharray:none;stroke-dashoffset:0;stroke-opacity:1;color-rendering:auto;image-rendering:auto;shape-rendering:auto;text-rendering:auto;enable-background:accumulate"
       d="m 330.71442,702.0704 c -5.10195,34.69517 29.64915,56.10892 29.64915,56.10892 l 11.64998,-17.52664 c 0,0 -23.18977,-17.08937 -20.47976,-35.51843 z"
       id="path1645"
       inkscape:connector-curvature="0" />
    <path
       style="color:#000000;font-style:normal;font-variant:normal;font-weight:normal;font-stretch:normal;font-size:medium;line-height:normal;font-family:sans-serif;font-variant-ligatures:normal;font-variant-position:normal;font-variant-caps:normal;font-variant-numeric:normal;font-variant-alternates:normal;font-feature-settings:normal;text-indent:0;text-align:start;text-decoration:none;text-decoration-line:none;text-decoration-style:solid;text-decoration-color:#000000;letter-spacing:normal;word-spacing:normal;text-transform:none;writing-mode:lr-tb;direction:ltr;text-orientation:mixed;dominant-baseline:auto;baseline-shift:baseline;text-anchor:start;white-space:normal;shape-padding:0;clip-rule:nonzero;display:inline;overflow:visible;visibility:visible;opacity:1;isolation:auto;mix-blend-mode:normal;color-interpolation:sRGB;color-interpolation-filters:linearRGB;solid-color:#000000;solid-opacity:1;vector-effect:none;fill:#000000;fill-opacity:1;fill-rule:nonzero;stroke:none;stroke-width:21.04302597;stroke-linecap:butt;stroke-linejoin:miter;stroke-miterlimit:4;stroke-dasharray:none;stroke-dashoffset:0;stroke-opacity:1;color-rendering:auto;image-rendering:auto;shape-rendering:auto;text-rendering:auto;enable-background:accumulate"
       d="m 264.23273,922.29057 -18.74483,9.56805 c 13.41374,26.28032 45.79524,28.32021 45.79524,28.32021 l 2.18529,-20.93006 c 0,0 -22.46629,-3.69552 -29.2357,-16.9582 z"
       id="path1647"
       inkscape:connector-curvature="0" />
    <path
       style="color:#000000;font-style:normal;font-variant:normal;font-weight:normal;font-stretch:normal;font-size:medium;line-height:normal;font-family:sans-serif;font-variant-ligatures:normal;font-variant-position:normal;font-variant-caps:normal;font-variant-numeric:normal;font-variant-alternates:normal;font-feature-settings:normal;text-indent:0;text-align:start;text-decoration:none;text-decoration-line:none;text-decoration-style:solid;text-decoration-color:#000000;letter-spacing:normal;word-spacing:normal;text-transform:none;writing-mode:lr-tb;direction:ltr;text-orientation:mixed;dominant-baseline:auto;baseline-shift:baseline;text-anchor:start;white-space:normal;shape-padding:0;clip-rule:nonzero;display:inline;overflow:visible;visibility:visible;opacity:1;isolation:auto;mix-blend-mode:normal;color-interpolation:sRGB;color-interpolation-filters:linearRGB;solid-color:#000000;solid-opacity:1;vector-effect:none;fill:#000000;fill-opacity:1;fill-rule:nonzero;stroke:none;stroke-width:5.03319931;stroke-linecap:butt;stroke-linejoin:miter;stroke-miterlimit:4;stroke-dasharray:none;stroke-dashoffset:0;stroke-opacity:1;color-rendering:auto;image-rendering:auto;shape-rendering:auto;text-rendering:auto;enable-background:accumulate"
       d="m 483.50787,683.584 c 0,0 -7.68712,12.87059 -13.4735,28.63032 -2.89318,7.87984 -5.32701,16.49921 -6.076,24.73961 -0.74901,8.24037 0.17236,16.21176 4.41489,22.48046 l 4.16386,-2.8202 c -3.30717,-4.88651 -4.25367,-11.64287 -3.56588,-19.20991 0.68781,-7.56709 2.99061,-15.83585 5.78809,-23.45501 1.46519,-3.9906 2.97079,-6.82475 4.52565,-10.26943 -0.4352,2.91223 -1.05905,5.06534 -1.28464,8.34992 -1.07184,15.60638 0.92221,34.80388 13.9165,48.23891 l 3.61754,-3.49947 c -11.4902,-11.87986 -13.52904,-29.50231 -12.50637,-44.39249 1.02268,-14.89012 5.02029,-26.69603 5.02029,-26.69603 z"
       id="path60719"
       inkscape:connector-curvature="0" />
    <path
       style="color:#000000;font-style:normal;font-variant:normal;font-weight:normal;font-stretch:normal;font-size:medium;line-height:normal;font-family:sans-serif;font-variant-ligatures:normal;font-variant-position:normal;font-variant-caps:normal;font-variant-numeric:normal;font-variant-alternates:normal;font-feature-settings:normal;text-indent:0;text-align:start;text-decoration:none;text-decoration-line:none;text-decoration-style:solid;text-decoration-color:#000000;letter-spacing:normal;word-spacing:normal;text-transform:none;writing-mode:lr-tb;direction:ltr;text-orientation:mixed;dominant-baseline:auto;baseline-shift:baseline;text-anchor:start;white-space:normal;shape-padding:0;clip-rule:nonzero;display:inline;overflow:visible;visibility:visible;opacity:1;isolation:auto;mix-blend-mode:normal;color-interpolation:sRGB;color-interpolation-filters:linearRGB;solid-color:#000000;solid-opacity:1;vector-effect:none;fill:#000000;fill-opacity:1;fill-rule:nonzero;stroke:none;stroke-width:5.03319931;stroke-linecap:butt;stroke-linejoin:miter;stroke-miterlimit:4;stroke-dasharray:none;stroke-dashoffset:0;stroke-opacity:1;color-rendering:auto;image-rendering:auto;shape-rendering:auto;text-rendering:auto;enable-background:accumulate"
       d="m 468.46186,599.94476 c -1.72839,13.14337 2.18807,31.68972 6.40082,47.23488 4.21276,15.54514 8.82979,27.988 8.82979,27.988 l 4.82092,-1.41008 c 0,0 -2.28737,-10.64115 -1.86043,-24.02348 0.42691,-13.38239 3.63278,-29.22144 14.09366,-39.68232 l -3.5585,-3.5585 c -11.87126,11.8713 -15.11486,29.04313 -15.56282,43.08576 -0.0341,1.06643 0.12889,1.68689 0.12549,2.71685 -0.94869,-3.12199 -1.06228,-2.85856 -2.03026,-6.43037 -4.14703,-15.30268 -7.77958,-33.76832 -6.26794,-45.26367 z"
       id="path60719-5"
       inkscape:connector-curvature="0" />
    <path
       inkscape:connector-curvature="0"
       id="path87-11-5-1-3-9"
       d="m 531.57405,340.29032 c -19.12608,0.18256 -34.59247,7.87356 -44.55387,19.37907 -9.98807,11.5367 -14.63555,26.42407 -14.50082,41.08526 0.13419,14.6614 5.04403,29.37149 15.15382,40.55869 10.07675,11.14989 25.54428,18.28866 44.2631,17.71097 18.37542,-0.0443 33.32395,-7.84029 42.81505,-19.35854 9.51701,-11.54974 13.89267,-26.34435 13.79824,-40.92922 -0.0956,-14.5852 -4.65231,-29.23799 -14.27226,-40.50271 -9.5947,-11.2357 -24.59796,-18.56854 -42.70326,-17.94352 z m 0.57069,19.24674 c 12.92009,-0.47534 21.34997,4.03255 27.47859,11.20909 6.12872,7.17657 9.59034,17.54154 9.65845,28.11676 0.0695,10.5753 -3.24952,21.086 -9.39945,28.5494 -6.14968,7.46325 -14.79413,12.35949 -28.09037,12.35949 h -0.16178 l -0.16178,0.0151 c -13.82917,0.46459 -23.00595,-4.19728 -29.49964,-11.38265 -6.49364,-7.18536 -10.08673,-17.39164 -10.18244,-27.81664 -0.0967,-10.42507 3.29948,-20.79118 9.79998,-28.29932 6.50056,-7.50831 15.9215,-12.62972 30.27612,-12.73597 h 0.14214 z"
       style="color:#000000;font-style:normal;font-variant:normal;font-weight:normal;font-stretch:normal;font-size:medium;line-height:normal;font-family:sans-serif;font-variant-ligatures:normal;font-variant-position:normal;font-variant-caps:normal;font-variant-numeric:normal;font-variant-alternates:normal;font-feature-settings:normal;text-indent:0;text-align:start;text-decoration:none;text-decoration-line:none;text-decoration-style:solid;text-decoration-color:#000000;letter-spacing:normal;word-spacing:normal;text-transform:none;writing-mode:lr-tb;direction:ltr;text-orientation:mixed;dominant-baseline:auto;baseline-shift:baseline;text-anchor:start;white-space:normal;shape-padding:0;clip-rule:nonzero;display:inline;overflow:visible;visibility:visible;opacity:1;isolation:auto;mix-blend-mode:normal;color-interpolation:sRGB;color-interpolation-filters:linearRGB;solid-color:#000000;solid-opacity:1;vector-effect:none;fill:#000000;fill-opacity:1;fill-rule:nonzero;stroke:none;stroke-width:19.26737595;stroke-linecap:butt;stroke-linejoin:miter;stroke-miterlimit:4;stroke-dasharray:none;stroke-dashoffset:0;stroke-opacity:1;color-rendering:auto;image-rendering:auto;shape-rendering:auto;text-rendering:auto;enable-background:accumulate" />
    <path
       inkscape:connector-curvature="0"
       id="path1039-4-5-9"
       d="m 405.83823,306.17783 -0.13003,19.26723 c 0,0 52.05121,0.34511 104.55653,0.69132 52.50511,0.34661 104.29973,0.69426 107.33916,0.69426 v -19.26727 c -0.58295,0 -54.70546,-0.34548 -107.20954,-0.69139 -52.50462,-0.34625 -104.55665,-0.69415 -104.55665,-0.69415 z"
       style="color:#000000;font-style:normal;font-variant:normal;font-weight:normal;font-stretch:normal;font-size:medium;line-height:normal;font-family:sans-serif;font-variant-ligatures:normal;font-variant-position:normal;font-variant-caps:normal;font-variant-numeric:normal;font-variant-alternates:normal;font-feature-settings:normal;text-indent:0;text-align:start;text-decoration:none;text-decoration-line:none;text-decoration-style:solid;text-decoration-color:#000000;letter-spacing:normal;word-spacing:normal;text-transform:none;writing-mode:lr-tb;direction:ltr;text-orientation:mixed;dominant-baseline:auto;baseline-shift:baseline;text-anchor:start;white-space:normal;shape-padding:0;clip-rule:nonzero;display:inline;overflow:visible;visibility:visible;opacity:1;isolation:auto;mix-blend-mode:normal;color-interpolation:sRGB;color-interpolation-filters:linearRGB;solid-color:#000000;solid-opacity:1;vector-effect:none;fill:#000000;fill-opacity:1;fill-rule:nonzero;stroke:none;stroke-width:19.26605606;stroke-linecap:butt;stroke-linejoin:miter;stroke-miterlimit:4;stroke-dasharray:none;stroke-dashoffset:0;stroke-opacity:1;color-rendering:auto;image-rendering:auto;shape-rendering:auto;text-rendering:auto;enable-background:accumulate" />
    <path
       inkscape:connector-curvature="0"
       id="path87-11-5-8-6-5-1"
       d="m 785.67942,344.50335 c -18.10583,-0.62505 -33.1091,6.70775 -42.70376,17.94338 -9.61945,11.26476 -14.17689,25.92058 -14.27134,40.50563 -0.0956,14.585 4.28085,29.37664 13.79771,40.92652 9.48777,11.51413 24.43026,19.31039 42.79777,19.3584 18.72684,0.58301 34.19765,-6.55746 44.27725,-17.71105 10.11009,-11.18709 15.01978,-25.89722 15.15421,-40.55859 0.13417,-14.66126 -4.51005,-29.54855 -14.49835,-41.08532 -9.96105,-11.50555 -25.4274,-19.19665 -44.55349,-19.37897 z m -0.57413,19.24667 0.14439,0.0151 h 0.14176 c 14.35499,0.10546 23.77282,5.22755 30.27328,12.73592 6.50093,7.50827 9.89845,17.87427 9.80297,28.29927 -0.0941,10.42494 -3.68887,20.63135 -10.18255,27.81678 -6.49332,7.18533 -15.67014,11.84718 -29.49927,11.38261 l -0.16178,-0.0151 h -0.1618 c -13.29634,0 -21.94074,-4.89903 -28.09045,-12.36247 -6.15005,-7.46334 -9.46846,-17.97393 -9.39978,-28.54935 0.0673,-10.57515 3.53012,-20.94005 9.65878,-28.11681 6.12873,-7.17658 14.55515,-11.68422 27.47532,-11.20908 z"
       style="color:#000000;font-style:normal;font-variant:normal;font-weight:normal;font-stretch:normal;font-size:medium;line-height:normal;font-family:sans-serif;font-variant-ligatures:normal;font-variant-position:normal;font-variant-caps:normal;font-variant-numeric:normal;font-variant-alternates:normal;font-feature-settings:normal;text-indent:0;text-align:start;text-decoration:none;text-decoration-line:none;text-decoration-style:solid;text-decoration-color:#000000;letter-spacing:normal;word-spacing:normal;text-transform:none;writing-mode:lr-tb;direction:ltr;text-orientation:mixed;dominant-baseline:auto;baseline-shift:baseline;text-anchor:start;white-space:normal;shape-padding:0;clip-rule:nonzero;display:inline;overflow:visible;visibility:visible;opacity:1;isolation:auto;mix-blend-mode:normal;color-interpolation:sRGB;color-interpolation-filters:linearRGB;solid-color:#000000;solid-opacity:1;vector-effect:none;fill:#000000;fill-opacity:1;fill-rule:nonzero;stroke:none;stroke-width:19.26737595;stroke-linecap:butt;stroke-linejoin:miter;stroke-miterlimit:4;stroke-dasharray:none;stroke-dashoffset:0;stroke-opacity:1;color-rendering:auto;image-rendering:auto;shape-rendering:auto;text-rendering:auto;enable-background:accumulate" />
    <path
       inkscape:connector-curvature="0"
       id="path59-1-3-2-9"
       d="m 784.56682,260.94722 c -36.95874,-0.67546 -72.63102,20.33194 -116.05066,63.26204 l 13.54813,13.701 c 41.90701,-41.43459 72.74228,-58.23905 102.15285,-57.70161 29.41017,0.53746 60.78713,18.89886 102.64391,54.31261 l 12.44162,-14.70727 C 856.38112,283.4992 821.52628,261.62257 784.56682,260.94722 Z"
       style="color:#000000;font-style:normal;font-variant:normal;font-weight:normal;font-stretch:normal;font-size:medium;line-height:normal;font-family:sans-serif;font-variant-ligatures:normal;font-variant-position:normal;font-variant-caps:normal;font-variant-numeric:normal;font-variant-alternates:normal;font-feature-settings:normal;text-indent:0;text-align:start;text-decoration:none;text-decoration-line:none;text-decoration-style:solid;text-decoration-color:#000000;letter-spacing:normal;word-spacing:normal;text-transform:none;writing-mode:lr-tb;direction:ltr;text-orientation:mixed;dominant-baseline:auto;baseline-shift:baseline;text-anchor:start;white-space:normal;shape-padding:0;clip-rule:nonzero;display:inline;overflow:visible;visibility:visible;opacity:1;isolation:auto;mix-blend-mode:normal;color-interpolation:sRGB;color-interpolation-filters:linearRGB;solid-color:#000000;solid-opacity:1;vector-effect:none;fill:#000000;fill-opacity:1;fill-rule:nonzero;stroke:none;stroke-width:19.26605606;stroke-linecap:butt;stroke-linejoin:miter;stroke-miterlimit:4;stroke-dasharray:none;stroke-dashoffset:0;stroke-opacity:1;color-rendering:auto;image-rendering:auto;shape-rendering:auto;text-rendering:auto;enable-background:accumulate" />
    <path
       inkscape:connector-curvature="0"
       id="path29-8-7-0-7-2"
       d="m 660.55671,706.67997 c -20.10157,-0.54327 -38.78525,2.5751 -55.59556,7.88451 -26.89611,8.49474 -49.03091,22.21583 -65.38649,34.66561 -16.35532,12.44961 -27.36066,24.07385 -30.41167,27.09604 l 13.5601,13.6864 c 3.95903,-3.92228 13.41777,-13.95379 28.52244,-25.45166 15.10497,-11.49762 35.42604,-24.01359 59.52036,-31.62377 48.18861,-15.21955 111.329,-12.35743 184.67636,59.84979 l 13.51858,-13.7304 C 755.86692,726.78826 704.77975,707.87522 660.55671,706.67997 Z"
       style="color:#000000;font-style:normal;font-variant:normal;font-weight:normal;font-stretch:normal;font-size:medium;line-height:normal;font-family:sans-serif;font-variant-ligatures:normal;font-variant-position:normal;font-variant-caps:normal;font-variant-numeric:normal;font-variant-alternates:normal;font-feature-settings:normal;text-indent:0;text-align:start;text-decoration:none;text-decoration-line:none;text-decoration-style:solid;text-decoration-color:#000000;letter-spacing:normal;word-spacing:normal;text-transform:none;writing-mode:lr-tb;direction:ltr;text-orientation:mixed;dominant-baseline:auto;baseline-shift:baseline;text-anchor:start;white-space:normal;shape-padding:0;clip-rule:nonzero;display:inline;overflow:visible;visibility:visible;opacity:1;isolation:auto;mix-blend-mode:normal;color-interpolation:sRGB;color-interpolation-filters:linearRGB;solid-color:#000000;solid-opacity:1;vector-effect:none;fill:#000000;fill-opacity:1;fill-rule:nonzero;stroke:none;stroke-width:19.26737595;stroke-linecap:butt;stroke-linejoin:miter;stroke-miterlimit:4;stroke-dasharray:none;stroke-dashoffset:0;stroke-opacity:1;color-rendering:auto;image-rendering:auto;shape-rendering:auto;text-rendering:auto;enable-background:accumulate" />
  </g>
</svg>
