<?xml version="1.0" encoding="UTF-8" standalone="no"?>
<!-- Created with Inkscape (http://www.inkscape.org/) -->

<svg
   xmlns:dc="http://purl.org/dc/elements/1.1/"
   xmlns:cc="http://creativecommons.org/ns#"
   xmlns:rdf="http://www.w3.org/1999/02/22-rdf-syntax-ns#"
   xmlns:svg="http://www.w3.org/2000/svg"
   xmlns="http://www.w3.org/2000/svg"
   xmlns:sodipodi="http://sodipodi.sourceforge.net/DTD/sodipodi-0.dtd"
   xmlns:inkscape="http://www.inkscape.org/namespaces/inkscape"
   width="1000"
   height="1000"
   viewBox="0 0 1000 1000"
   version="1.1"
   id="svg9223"
   inkscape:version="0.92.4 (5da689c313, 2019-01-14)"
   sodipodi:docname="Ainda.svg">
  <defs
     id="defs9217" />
  <sodipodi:namedview
     id="base"
     pagecolor="#ffffff"
     bordercolor="#666666"
     borderopacity="1.0"
     inkscape:pageopacity="0.0"
     inkscape:pageshadow="2"
     inkscape:zoom="0.5"
     inkscape:cx="411.85243"
     inkscape:cy="669.53847"
     inkscape:document-units="px"
     inkscape:current-layer="layer1"
     showgrid="false"
     units="px"
     inkscape:window-width="716"
     inkscape:window-height="706"
     inkscape:window-x="-7"
     inkscape:window-y="0"
     inkscape:window-maximized="0" />
  <metadata
     id="metadata9220">
    <rdf:RDF>
      <cc:Work
         rdf:about="">
        <dc:format>image/svg+xml</dc:format>
        <dc:type
           rdf:resource="http://purl.org/dc/dcmitype/StillImage" />
        <dc:title></dc:title>
      </cc:Work>
    </rdf:RDF>
  </metadata>
  <g
     inkscape:label="Camada 1"
     inkscape:groupmode="layer"
     id="layer1"
     transform="translate(0,-2076.5276)">
    <path
       style="color:#000000;font-style:normal;font-variant:normal;font-weight:normal;font-stretch:normal;font-size:medium;line-height:normal;font-family:sans-serif;font-variant-ligatures:normal;font-variant-position:normal;font-variant-caps:normal;font-variant-numeric:normal;font-variant-alternates:normal;font-feature-settings:normal;text-indent:0;text-align:start;text-decoration:none;text-decoration-line:none;text-decoration-style:solid;text-decoration-color:#000000;letter-spacing:normal;word-spacing:normal;text-transform:none;writing-mode:lr-tb;direction:ltr;text-orientation:mixed;dominant-baseline:auto;baseline-shift:baseline;text-anchor:start;white-space:normal;shape-padding:0;clip-rule:nonzero;display:inline;overflow:visible;visibility:visible;opacity:1;isolation:auto;mix-blend-mode:normal;color-interpolation:sRGB;color-interpolation-filters:linearRGB;solid-color:#000000;solid-opacity:1;vector-effect:none;fill:#000000;fill-opacity:1;fill-rule:nonzero;stroke:none;stroke-width:15.83362389;stroke-linecap:butt;stroke-linejoin:miter;stroke-miterlimit:4;stroke-dasharray:none;stroke-dashoffset:0;stroke-opacity:1;color-rendering:auto;image-rendering:auto;shape-rendering:auto;text-rendering:auto;enable-background:accumulate"
       d="m 263.36133,2593.3262 c -8.75708,0.047 -18.29537,0.4582 -27.36719,0.916 -18.14363,0.9155 -33.76953,2.2461 -33.76953,2.2461 l 0.67187,-0.029 c -15.17171,0 -25.4696,7.2264 -30.83984,14.3867 -3.73017,4.9736 -5.12723,9.1244 -5.85547,11.7793 -0.19908,0.371 -0.36672,0.7363 -0.56836,1.0664 -0.55605,0.9103 -1.01597,1.8099 -1.51172,2.8379 -0.99149,2.056 -2.07249,4.5873 -3.26757,7.5352 -2.39018,5.8957 -5.19177,13.3939 -7.89063,20.8261 -5.39772,14.8645 -10.36523,29.4375 -10.36523,29.4375 l -0.0898,0.2637 -0.0703,0.2695 c -4.52172,17.118 -8.67171,27.7309 -11.56055,33.8887 -1.3074,2.7868 -2.13969,4.2819 -2.77148,5.3516 -39.912479,8.0675 -57.940869,27.4713 -63.843751,45.6484 -4.638415,14.2834 -2.338202,27.1621 -0.97461,32.5254 -2.297812,7.0744 -1.902525,14.4562 -1.365234,20.9805 0.563043,6.8369 1.541669,11.9785 1.732422,12.9609 1.846349,30.9526 -2.540138,71.4404 -2.59375,71.9336 -4.206312,15.6202 -4.359533,43.1681 -4.115235,68.7383 0.249344,26.0982 1.41211,49.0039 1.41211,49.0039 v 0.019 l 0.002,0.019 c 1.103018,19.8543 -13.515625,39.5704 -13.515625,39.5704 l 12.476562,9.748 c 0,0 18.384868,-22.5275 16.847657,-50.1973 -0.0029,-0.058 -1.145245,-22.633 -1.390625,-48.3164 -0.245694,-25.7162 0.936626,-55.5614 3.730468,-65.2129 l 0.189454,-0.6523 0.07617,-0.6758 c 0,0 4.725174,-41.7776 2.673828,-75.2832 l -0.0332,-0.5391 -0.107421,-0.5292 c 0,0 -1.069608,-5.3799 -1.605469,-11.8868 -0.535861,-6.5069 0.132904,-14.321 1.017578,-16.2168 l 1.361328,-2.916 -1.060547,-3.039 c 0,0 -4.014569,-11.85 0.302735,-25.1446 4.317303,-13.2945 16.278287,-28.814 55.001954,-35.7402 l 2.7793,-0.4981 1.83789,-2.1425 c 0,0 2.88979,-3.5749 6.27148,-10.7832 3.35577,-7.1531 7.74728,-18.5659 12.42578,-36.1973 0.053,-0.1555 4.90772,-14.3909 10.20703,-28.9844 2.66409,-7.3365 5.4308,-14.7311 7.68164,-20.2832 1.12543,-2.776 2.13237,-5.106 2.85547,-6.6055 0.16977,-0.352 0.23055,-0.4408 0.35938,-0.6855 l 1.61914,-0.9727 0.6289,-3.5546 c 0,0 0.6889,-3.7851 3.73438,-7.8457 3.04548,-4.0607 7.60137,-8.0547 18.17187,-8.0547 h 0.33594 l 0.33399,-0.029 c 0,0 15.39713,-1.3094 33.22656,-2.209 17.82943,-0.8997 38.74559,-1.1667 46.64844,0.1504 l 2.27148,0.3789 2.12109,-0.9004 c 0,0 0.62882,-1.0959 3.84961,1.2109 3.22079,2.3068 9.71103,10.8757 12.24219,36.5039 l 0.1543,1.5547 0.73242,1.3809 c 0,0 10.20659,20.4517 10.2832,35.7109 -0.0223,0.1422 -0.49312,3.1195 -1.45508,4.4492 -0.4925,0.6809 -0.61674,0.8563 -1.58984,1.045 -0.9731,0.1886 -3.3333,0.2033 -7.63281,-1.6778 l -9.21289,12.3711 c 0,0 2.57264,2.825 5.24219,10.8457 2.66955,8.0208 4.94479,20.6255 2.53125,38.6172 l -1.22657,9.1387 9.21875,-0.1699 c 0,0 3.98379,0.01 7.89063,2.5605 3.90684,2.5545 8.21429,6.9635 7.39648,21.2754 l -0.0586,1.0117 0.19922,0.9942 c 0,0 2.42967,17.4013 -2.06641,26.0722 l -0.0586,0.1133 -0.0547,0.1152 c 0,0 -6.20301,12.659 -3.96289,28.3399 l 0.29297,2.043 1.25195,1.6406 c 0,0 1.99753,2.2883 2.67969,8.7461 0.68216,6.4577 -0.34369,16.5301 -9.55469,30.6679 l -1.5293,2.3477 0.28711,2.7871 c 0,0 4.18127,43.5407 -14.17382,81.125 l -0.20899,0.4277 -0.15625,0.4493 c -11.43218,32.9248 -19.83289,43.5559 -30.61328,58.0859 -5.6e-4,8e-4 -0.001,0 -0.002,0 -0.61385,0.7454 -14.82126,18.14 -20.4375,39.5839 l 15.3164,4.0118 c 4.52892,-17.2923 17.62696,-33.8926 17.62696,-33.8926 l 0.10742,-0.1309 0.10156,-0.1367 c 10.64759,-14.3511 20.87869,-27.9711 32.72461,-61.9668 18.76329,-38.8373 16.23368,-79.3109 15.63281,-86.3945 9.56569,-15.6407 11.64004,-29.0015 10.62305,-38.6289 -0.7468,-7.0697 -2.85167,-11.3767 -4.32227,-13.9512 -1.11358,-10.0157 2.59961,-18.3242 2.59961,-18.3242 l -0.11328,0.2285 c 8.1034,-15.6279 4.14599,-33.7326 3.67774,-35.7285 0.63309,-17.6046 -6.51088,-28.9156 -14.54102,-34.166 -2.87826,-1.882 -5.67342,-2.9204 -8.26172,-3.6778 1.23125,-16.4551 -0.83657,-29.3342 -3.79297,-38.2168 -0.12438,-0.3737 -0.26871,-0.6361 -0.39648,-0.998 5.0864,-0.9892 9.08526,-4.1118 11.39648,-7.3067 4.62548,-6.394 4.4668,-13.291 4.4668,-13.291 l 0.006,-0.1289 v -0.1308 c 0,-19.7211 -9.63873,-38.5671 -11.45898,-41.9707 -2.86324,-26.7049 -9.7744,-39.9223 -18.58204,-46.2305 -5.9546,-4.2648 -12.20654,-4.0989 -15.92578,-3.541 -5.83689,-0.8743 -13.31278,-1.199 -21.61523,-1.1543 z m -84.21485,38.6191 c 0.0561,-0.092 0.10188,0.046 -0.21093,0.4024 0.055,-0.099 0.18432,-0.3588 0.21093,-0.4024 z"
       id="path9779"
       inkscape:connector-curvature="0" />
    <path
       style="color:#000000;font-style:normal;font-variant:normal;font-weight:normal;font-stretch:normal;font-size:medium;line-height:normal;font-family:sans-serif;font-variant-ligatures:normal;font-variant-position:normal;font-variant-caps:normal;font-variant-numeric:normal;font-variant-alternates:normal;font-feature-settings:normal;text-indent:0;text-align:start;text-decoration:none;text-decoration-line:none;text-decoration-style:solid;text-decoration-color:#000000;letter-spacing:normal;word-spacing:normal;text-transform:none;writing-mode:lr-tb;direction:ltr;text-orientation:mixed;dominant-baseline:auto;baseline-shift:baseline;text-anchor:start;white-space:normal;shape-padding:0;clip-rule:nonzero;display:inline;overflow:visible;visibility:visible;opacity:1;isolation:auto;mix-blend-mode:normal;color-interpolation:sRGB;color-interpolation-filters:linearRGB;solid-color:#000000;solid-opacity:1;vector-effect:none;fill:#000000;fill-opacity:1;fill-rule:nonzero;stroke:none;stroke-width:15.83362389;stroke-linecap:butt;stroke-linejoin:miter;stroke-miterlimit:4;stroke-dasharray:none;stroke-dashoffset:0;stroke-opacity:1;color-rendering:auto;image-rendering:auto;shape-rendering:auto;text-rendering:auto;enable-background:accumulate"
       d="m 274.16016,2679.002 c -3.21771,0.1781 -6.65987,0.6488 -10.31836,1.4824 l 0.47265,-0.094 c 0,0 -27.60387,4.3695 -42.13281,9.211 -0.002,7e-4 -0.006,0 -0.008,0 -0.0399,0.013 -32.09582,10.4368 -53.21485,22.4043 l 0.55664,-0.2871 c 0,0 -5.90234,2.7532 -13.65624,5.6016 -7.75391,2.8483 -17.49844,5.6239 -23.27344,5.875 l 0.6875,15.8183 c 9.40628,-0.409 19.62744,-3.7379 28.04492,-6.8301 8.41748,-3.0921 14.89258,-6.1152 14.89258,-6.1152 l 0.2832,-0.1328 0.27148,-0.1543 c 18.47126,-10.4671 50.39258,-21.1504 50.39258,-21.1504 l 0.0117,-0 0.0117,-0 c 11.21494,-3.7383 39.70508,-8.6113 39.70508,-8.6113 l 0.23828,-0.039 0.23438,-0.053 c 11.43823,-2.6062 18.09493,-0.6169 22.15624,1.5176 4.06132,2.1344 5.07422,3.9628 5.07422,3.9628 l 13.3086,-8.5781 c 0,0 -3.77349,-5.5962 -11.01563,-9.4023 -5.4316,-2.8546 -13.06953,-4.9543 -22.72265,-4.4199 z"
       id="path9781"
       inkscape:connector-curvature="0" />
    <path
       style="color:#000000;font-style:normal;font-variant:normal;font-weight:normal;font-stretch:normal;font-size:medium;line-height:normal;font-family:sans-serif;font-variant-ligatures:normal;font-variant-position:normal;font-variant-caps:normal;font-variant-numeric:normal;font-variant-alternates:normal;font-feature-settings:normal;text-indent:0;text-align:start;text-decoration:none;text-decoration-line:none;text-decoration-style:solid;text-decoration-color:#000000;letter-spacing:normal;word-spacing:normal;text-transform:none;writing-mode:lr-tb;direction:ltr;text-orientation:mixed;dominant-baseline:auto;baseline-shift:baseline;text-anchor:start;white-space:normal;shape-padding:0;clip-rule:nonzero;display:inline;overflow:visible;visibility:visible;opacity:1;isolation:auto;mix-blend-mode:normal;color-interpolation:sRGB;color-interpolation-filters:linearRGB;solid-color:#000000;solid-opacity:1;vector-effect:none;fill:#000000;fill-opacity:1;fill-rule:nonzero;stroke:none;stroke-width:15.83362389;stroke-linecap:butt;stroke-linejoin:miter;stroke-miterlimit:4;stroke-dasharray:none;stroke-dashoffset:0;stroke-opacity:1;color-rendering:auto;image-rendering:auto;shape-rendering:auto;text-rendering:auto;enable-background:accumulate"
       d="m 249.9043,2645.5332 c -3.56097,0.1943 -7.41279,0.7537 -11.35157,1.9004 -15.75511,4.5869 -32.17019,20.2083 -34.64062,53.3828 l 15.78906,1.1758 c 2.14995,-28.8708 12.96022,-36.3518 23.27735,-39.3555 7.27803,-2.1189 13.28246,-1.3165 17.01171,-0.5879 5.59044,18.0916 17.76563,30.3633 17.76563,30.3633 l 11.33398,-11.0586 c 0,0 -11.73979,-12.4694 -15.09375,-27.8418 l -0.97656,-4.4707 -4.35937,-1.3848 c 0,0 -8.07297,-2.7058 -18.75586,-2.123 z"
       id="path9783"
       inkscape:connector-curvature="0" />
    <path
       style="color:#000000;font-style:normal;font-variant:normal;font-weight:normal;font-stretch:normal;font-size:medium;line-height:normal;font-family:sans-serif;font-variant-ligatures:normal;font-variant-position:normal;font-variant-caps:normal;font-variant-numeric:normal;font-variant-alternates:normal;font-feature-settings:normal;text-indent:0;text-align:start;text-decoration:none;text-decoration-line:none;text-decoration-style:solid;text-decoration-color:#000000;letter-spacing:normal;word-spacing:normal;text-transform:none;writing-mode:lr-tb;direction:ltr;text-orientation:mixed;dominant-baseline:auto;baseline-shift:baseline;text-anchor:start;white-space:normal;shape-padding:0;clip-rule:nonzero;display:inline;overflow:visible;visibility:visible;opacity:1;isolation:auto;mix-blend-mode:normal;color-interpolation:sRGB;color-interpolation-filters:linearRGB;solid-color:#000000;solid-opacity:1;vector-effect:none;fill:#000000;fill-opacity:1;fill-rule:nonzero;stroke:none;stroke-width:15.83362389;stroke-linecap:butt;stroke-linejoin:miter;stroke-miterlimit:4;stroke-dasharray:none;stroke-dashoffset:0;stroke-opacity:1;color-rendering:auto;image-rendering:auto;shape-rendering:auto;text-rendering:auto;enable-background:accumulate"
       d="m 262.9668,2637.4473 c -7.17809,8.6735 -4.53907,18.8945 -4.53907,18.8945 l 15.66797,-2.2832 c 0,0 0.32774,-5.6203 1.07032,-6.5176 z"
       id="path9785"
       inkscape:connector-curvature="0" />
    <path
       style="color:#000000;font-style:normal;font-variant:normal;font-weight:normal;font-stretch:normal;font-size:medium;line-height:normal;font-family:sans-serif;font-variant-ligatures:normal;font-variant-position:normal;font-variant-caps:normal;font-variant-numeric:normal;font-variant-alternates:normal;font-feature-settings:normal;text-indent:0;text-align:start;text-decoration:none;text-decoration-line:none;text-decoration-style:solid;text-decoration-color:#000000;letter-spacing:normal;word-spacing:normal;text-transform:none;writing-mode:lr-tb;direction:ltr;text-orientation:mixed;dominant-baseline:auto;baseline-shift:baseline;text-anchor:start;white-space:normal;shape-padding:0;clip-rule:nonzero;display:inline;overflow:visible;visibility:visible;opacity:1;isolation:auto;mix-blend-mode:normal;color-interpolation:sRGB;color-interpolation-filters:linearRGB;solid-color:#000000;solid-opacity:1;vector-effect:none;fill:#000000;fill-opacity:1;fill-rule:nonzero;stroke:none;stroke-width:15.83362389;stroke-linecap:butt;stroke-linejoin:miter;stroke-miterlimit:4;stroke-dasharray:none;stroke-dashoffset:0;stroke-opacity:1;color-rendering:auto;image-rendering:auto;shape-rendering:auto;text-rendering:auto;enable-background:accumulate"
       d="m 217.48047,2643.3184 -11.67188,10.6972 c 0,0 7.77316,9.0947 10.08789,15.0469 l 14.75782,-5.7383 c -4.21939,-10.85 -13.17383,-20.0058 -13.17383,-20.0058 z"
       id="path9787"
       inkscape:connector-curvature="0" />
    <path
       style="color:#000000;font-style:normal;font-variant:normal;font-weight:normal;font-stretch:normal;font-size:medium;line-height:normal;font-family:sans-serif;font-variant-ligatures:normal;font-variant-position:normal;font-variant-caps:normal;font-variant-numeric:normal;font-variant-alternates:normal;font-feature-settings:normal;text-indent:0;text-align:start;text-decoration:none;text-decoration-line:none;text-decoration-style:solid;text-decoration-color:#000000;letter-spacing:normal;word-spacing:normal;text-transform:none;writing-mode:lr-tb;direction:ltr;text-orientation:mixed;dominant-baseline:auto;baseline-shift:baseline;text-anchor:start;white-space:normal;shape-padding:0;clip-rule:nonzero;display:inline;overflow:visible;visibility:visible;opacity:1;isolation:auto;mix-blend-mode:normal;color-interpolation:sRGB;color-interpolation-filters:linearRGB;solid-color:#000000;solid-opacity:1;vector-effect:none;fill:#000000;fill-opacity:1;fill-rule:nonzero;stroke:none;stroke-width:15.83362389;stroke-linecap:butt;stroke-linejoin:miter;stroke-miterlimit:4;stroke-dasharray:none;stroke-dashoffset:0;stroke-opacity:1;color-rendering:auto;image-rendering:auto;shape-rendering:auto;text-rendering:auto;enable-background:accumulate"
       d="m 309.78711,2642.502 c -5.19916,2.2746 -8.13277,6.5668 -10.05469,11.1386 -1.92192,4.5719 -2.79125,9.7607 -2.30859,15.1406 0.48265,5.38 2.42249,11.0537 6.53711,15.6993 4.11462,4.6455 10.3399,7.9296 17.85547,8.9297 l 2.08789,-15.6954 c -4.39633,-0.585 -6.58663,-2.0352 -8.08985,-3.7324 -1.50321,-1.6972 -2.3822,-3.9742 -2.61914,-6.6152 -0.23694,-2.641 0.27386,-5.5419 1.13477,-7.5899 0.8609,-2.0479 2.11246,-2.905 1.80273,-2.7695 z"
       id="path9789"
       inkscape:connector-curvature="0" />
    <path
       style="color:#000000;font-style:normal;font-variant:normal;font-weight:normal;font-stretch:normal;font-size:medium;line-height:normal;font-family:sans-serif;font-variant-ligatures:normal;font-variant-position:normal;font-variant-caps:normal;font-variant-numeric:normal;font-variant-alternates:normal;font-feature-settings:normal;text-indent:0;text-align:start;text-decoration:none;text-decoration-line:none;text-decoration-style:solid;text-decoration-color:#000000;letter-spacing:normal;word-spacing:normal;text-transform:none;writing-mode:lr-tb;direction:ltr;text-orientation:mixed;dominant-baseline:auto;baseline-shift:baseline;text-anchor:start;white-space:normal;shape-padding:0;clip-rule:nonzero;display:inline;overflow:visible;visibility:visible;opacity:1;isolation:auto;mix-blend-mode:normal;color-interpolation:sRGB;color-interpolation-filters:linearRGB;solid-color:#000000;solid-opacity:1;vector-effect:none;fill:#000000;fill-opacity:1;fill-rule:nonzero;stroke:none;stroke-width:15.83362389;stroke-linecap:butt;stroke-linejoin:miter;stroke-miterlimit:4;stroke-dasharray:none;stroke-dashoffset:0;stroke-opacity:1;color-rendering:auto;image-rendering:auto;shape-rendering:auto;text-rendering:auto;enable-background:accumulate"
       d="m 257.91406,2738.8145 c -10.17943,-0.2117 -21.0708,0.1252 -32.01758,1.4023 l -0.30468,0.035 -0.30274,0.061 c 0,0 -8.43325,1.6472 -19.08398,2.2559 -10.65073,0.6086 -23.41617,-0.2726 -30.10156,-3.4883 l -6.86329,14.2676 c 11.75048,5.6521 26.05651,5.7042 37.86719,5.0293 11.2885,-0.6451 19.8988,-2.2867 20.68164,-2.4375 40.2055,-4.6771 81.27735,4.5273 81.27735,4.5273 l 3.51562,-15.4375 c 0,0 -24.12968,-5.58 -54.66797,-6.2148 z"
       id="path9791"
       inkscape:connector-curvature="0" />
    <path
       style="color:#000000;font-style:normal;font-variant:normal;font-weight:normal;font-stretch:normal;font-size:medium;line-height:normal;font-family:sans-serif;font-variant-ligatures:normal;font-variant-position:normal;font-variant-caps:normal;font-variant-numeric:normal;font-variant-alternates:normal;font-feature-settings:normal;text-indent:0;text-align:start;text-decoration:none;text-decoration-line:none;text-decoration-style:solid;text-decoration-color:#000000;letter-spacing:normal;word-spacing:normal;text-transform:none;writing-mode:lr-tb;direction:ltr;text-orientation:mixed;dominant-baseline:auto;baseline-shift:baseline;text-anchor:start;white-space:normal;shape-padding:0;clip-rule:nonzero;display:inline;overflow:visible;visibility:visible;opacity:1;isolation:auto;mix-blend-mode:normal;color-interpolation:sRGB;color-interpolation-filters:linearRGB;solid-color:#000000;solid-opacity:1;vector-effect:none;fill:#000000;fill-opacity:1;fill-rule:nonzero;stroke:none;stroke-width:15.83362389;stroke-linecap:butt;stroke-linejoin:miter;stroke-miterlimit:4;stroke-dasharray:none;stroke-dashoffset:0;stroke-opacity:1;color-rendering:auto;image-rendering:auto;shape-rendering:auto;text-rendering:auto;enable-background:accumulate"
       d="m 184.08008,2774.7598 -9.89258,12.3632 c 12.34603,9.8769 31.16577,14.2323 31.52344,14.3145 15.69198,4.5786 70.77929,21.3984 70.77929,21.3984 l 0.16211,0.049 0.16602,0.043 c 17.7043,4.5842 29.20945,10.4272 36.18359,14.9493 6.97414,4.522 8.94532,7.1386 8.94532,7.1386 l 12.29296,-9.9785 c 0,0 -4.19411,-4.9787 -12.625,-10.4453 -8.43088,-5.4666 -21.56933,-12.0055 -40.82812,-16.9922 l 0.32812,0.092 c 0,0 -54.9885,-16.795 -71.05273,-21.4805 l -0.0996,-0.029 -0.10156,-0.025 c 0,0 -18.44369,-5.5264 -25.78125,-11.3964 z"
       id="path9793"
       inkscape:connector-curvature="0" />
    <path
       style="color:#000000;font-style:normal;font-variant:normal;font-weight:normal;font-stretch:normal;font-size:medium;line-height:normal;font-family:sans-serif;font-variant-ligatures:normal;font-variant-position:normal;font-variant-caps:normal;font-variant-numeric:normal;font-variant-alternates:normal;font-feature-settings:normal;text-indent:0;text-align:start;text-decoration:none;text-decoration-line:none;text-decoration-style:solid;text-decoration-color:#000000;letter-spacing:normal;word-spacing:normal;text-transform:none;writing-mode:lr-tb;direction:ltr;text-orientation:mixed;dominant-baseline:auto;baseline-shift:baseline;text-anchor:start;white-space:normal;shape-padding:0;clip-rule:nonzero;display:inline;overflow:visible;visibility:visible;opacity:1;isolation:auto;mix-blend-mode:normal;color-interpolation:sRGB;color-interpolation-filters:linearRGB;solid-color:#000000;solid-opacity:1;vector-effect:none;fill:#000000;fill-opacity:1;fill-rule:nonzero;stroke:none;stroke-width:15.83362389;stroke-linecap:butt;stroke-linejoin:miter;stroke-miterlimit:4;stroke-dasharray:none;stroke-dashoffset:0;stroke-opacity:1;color-rendering:auto;image-rendering:auto;shape-rendering:auto;text-rendering:auto;enable-background:accumulate"
       d="m 226.89844,2862.1328 -12.36328,9.8906 c 2.86133,3.5767 7.66201,12.6738 11.19531,20.3828 2.49142,5.4359 3.33415,7.6434 4.30469,10.0235 -1.36325,0.9085 -3.29319,1.9388 -5.36719,2.8086 -4.46506,1.8724 -8.8711,3.0117 -8.87109,3.0117 l -5.08985,1.293 -0.78711,5.1933 c -1.22216,8.0663 0.6927,16.7324 2.46485,24.3828 1.77214,7.6505 3.76171,13.8653 3.76171,13.8653 l 1.17969,3.6914 3.63867,1.334 c 29.46915,10.7939 48.62478,10.4622 60.97266,6.3964 6.17394,-2.0328 10.53194,-5.0031 13.3418,-7.6347 1.79055,-1.677 2.87456,-3.1721 3.58593,-4.252 3.67525,-3.8197 6.48471,-8.7025 9.61915,-14.5996 3.33855,-6.2811 6.68997,-13.4903 9.71093,-20.3613 6.04192,-13.7421 10.76563,-26.1816 10.76563,-26.1816 l -14.80274,-5.6211 c 0,0 -4.60856,12.1276 -10.45703,25.4296 -2.92423,6.6511 -6.15864,13.586 -9.19726,19.3028 -3.03863,5.7168 -6.27516,10.3917 -7.34571,11.4277 l -0.93945,0.9082 -0.59766,1.1621 c 0,0 0.0896,0.055 -1.16406,1.2285 -1.25362,1.1741 -3.49626,2.8437 -7.4707,4.1524 -7.55867,2.4888 -21.92419,3.5369 -46.77344,-4.9512 -0.63053,-2.0952 -1.27033,-3.9821 -2.40234,-8.8691 -1.13398,-4.8955 -1.76817,-9.9431 -2.02735,-13.8985 1.61284,-0.5484 3.13513,-1.0232 5.00782,-1.8086 2.88292,-1.2089 5.92939,-2.6736 8.78515,-4.6894 2.85577,-2.0158 5.95822,-4.5831 7.25977,-9.3555 l 0.69336,-2.5429 -0.9668,-2.4493 c 0,0 -2.71017,-6.8617 -6.4375,-14.9941 -3.72733,-8.1324 -8.16723,-17.3516 -13.22656,-23.6758 z"
       id="path9795"
       inkscape:connector-curvature="0" />
    <path
       style="color:#000000;font-style:normal;font-variant:normal;font-weight:normal;font-stretch:normal;font-size:medium;line-height:normal;font-family:sans-serif;font-variant-ligatures:normal;font-variant-position:normal;font-variant-caps:normal;font-variant-numeric:normal;font-variant-alternates:normal;font-feature-settings:normal;text-indent:0;text-align:start;text-decoration:none;text-decoration-line:none;text-decoration-style:solid;text-decoration-color:#000000;letter-spacing:normal;word-spacing:normal;text-transform:none;writing-mode:lr-tb;direction:ltr;text-orientation:mixed;dominant-baseline:auto;baseline-shift:baseline;text-anchor:start;white-space:normal;shape-padding:0;clip-rule:nonzero;display:inline;overflow:visible;visibility:visible;opacity:1;isolation:auto;mix-blend-mode:normal;color-interpolation:sRGB;color-interpolation-filters:linearRGB;solid-color:#000000;solid-opacity:1;vector-effect:none;fill:#000000;fill-opacity:1;fill-rule:nonzero;stroke:none;stroke-width:15.83362389;stroke-linecap:butt;stroke-linejoin:miter;stroke-miterlimit:4;stroke-dasharray:none;stroke-dashoffset:0;stroke-opacity:1;color-rendering:auto;image-rendering:auto;shape-rendering:auto;text-rendering:auto;enable-background:accumulate"
       d="m 280.86719,2888.8867 c -11.29536,8.8015 -20.78449,10.3157 -27.62305,10.0488 -6.83856,-0.2668 -10.33203,-2.2148 -10.33203,-2.2148 l -7.42773,13.9824 c 0,0 7.06721,3.6615 17.14257,4.0547 10.07537,0.3932 23.85582,-2.3827 37.97266,-13.3828 z"
       id="path9797"
       inkscape:connector-curvature="0" />
    <path
       style="color:#000000;font-style:normal;font-variant:normal;font-weight:normal;font-stretch:normal;font-size:medium;line-height:normal;font-family:sans-serif;font-variant-ligatures:normal;font-variant-position:normal;font-variant-caps:normal;font-variant-numeric:normal;font-variant-alternates:normal;font-feature-settings:normal;text-indent:0;text-align:start;text-decoration:none;text-decoration-line:none;text-decoration-style:solid;text-decoration-color:#000000;letter-spacing:normal;word-spacing:normal;text-transform:none;writing-mode:lr-tb;direction:ltr;text-orientation:mixed;dominant-baseline:auto;baseline-shift:baseline;text-anchor:start;white-space:normal;shape-padding:0;clip-rule:nonzero;display:inline;overflow:visible;visibility:visible;opacity:1;isolation:auto;mix-blend-mode:normal;color-interpolation:sRGB;color-interpolation-filters:linearRGB;solid-color:#000000;solid-opacity:1;vector-effect:none;fill:#000000;fill-opacity:1;fill-rule:nonzero;stroke:none;stroke-width:15.83362389;stroke-linecap:butt;stroke-linejoin:miter;stroke-miterlimit:4;stroke-dasharray:none;stroke-dashoffset:0;stroke-opacity:1;color-rendering:auto;image-rendering:auto;shape-rendering:auto;text-rendering:auto;enable-background:accumulate"
       d="m 231.60742,2901.4629 c -3.87114,13.065 2.86631,25.0737 9.05078,33.8047 6.18448,8.731 13.02149,14.8984 13.02149,14.8984 l 10.64258,-11.7226 c 0,0 -5.7057,-5.2178 -10.74219,-12.3282 -5.03649,-7.1103 -8.20035,-15.3978 -6.79102,-20.1543 z"
       id="path9799"
       inkscape:connector-curvature="0" />
    <path
       style="color:#000000;font-style:normal;font-variant:normal;font-weight:normal;font-stretch:normal;font-size:medium;line-height:normal;font-family:sans-serif;font-variant-ligatures:normal;font-variant-position:normal;font-variant-caps:normal;font-variant-numeric:normal;font-variant-alternates:normal;font-feature-settings:normal;text-indent:0;text-align:start;text-decoration:none;text-decoration-line:none;text-decoration-style:solid;text-decoration-color:#000000;letter-spacing:normal;word-spacing:normal;text-transform:none;writing-mode:lr-tb;direction:ltr;text-orientation:mixed;dominant-baseline:auto;baseline-shift:baseline;text-anchor:start;white-space:normal;shape-padding:0;clip-rule:nonzero;display:inline;overflow:visible;visibility:visible;opacity:1;isolation:auto;mix-blend-mode:normal;color-interpolation:sRGB;color-interpolation-filters:linearRGB;solid-color:#000000;solid-opacity:1;vector-effect:none;fill:#000000;fill-opacity:1;fill-rule:nonzero;stroke:none;stroke-width:15.83362389;stroke-linecap:butt;stroke-linejoin:miter;stroke-miterlimit:4;stroke-dasharray:none;stroke-dashoffset:0;stroke-opacity:1;color-rendering:auto;image-rendering:auto;shape-rendering:auto;text-rendering:auto;enable-background:accumulate"
       d="m 167.44922,2894.291 -3.0332,15.541 c 0,0 10.02101,1.9569 21.39843,4.6387 11.37742,2.6818 24.82112,6.6453 28.22852,8.4492 l 7.4082,-13.9941 c -7.81351,-4.1366 -20.27936,-7.1036 -32.0039,-9.8672 -11.72455,-2.7637 -21.99805,-4.7676 -21.99805,-4.7676 z"
       id="path9801"
       inkscape:connector-curvature="0" />
    <path
       style="color:#000000;font-style:normal;font-variant:normal;font-weight:normal;font-stretch:normal;font-size:medium;line-height:normal;font-family:sans-serif;font-variant-ligatures:normal;font-variant-position:normal;font-variant-caps:normal;font-variant-numeric:normal;font-variant-alternates:normal;font-feature-settings:normal;text-indent:0;text-align:start;text-decoration:none;text-decoration-line:none;text-decoration-style:solid;text-decoration-color:#000000;letter-spacing:normal;word-spacing:normal;text-transform:none;writing-mode:lr-tb;direction:ltr;text-orientation:mixed;dominant-baseline:auto;baseline-shift:baseline;text-anchor:start;white-space:normal;shape-padding:0;clip-rule:nonzero;display:inline;overflow:visible;visibility:visible;opacity:1;isolation:auto;mix-blend-mode:normal;color-interpolation:sRGB;color-interpolation-filters:linearRGB;solid-color:#000000;solid-opacity:1;vector-effect:none;fill:#000000;fill-opacity:1;fill-rule:nonzero;stroke:none;stroke-width:15.83362389;stroke-linecap:butt;stroke-linejoin:miter;stroke-miterlimit:4;stroke-dasharray:none;stroke-dashoffset:0;stroke-opacity:1;color-rendering:auto;image-rendering:auto;shape-rendering:auto;text-rendering:auto;enable-background:accumulate"
       d="m 228.26367,2944.1152 -9.15234,12.92 c 0,0 1.02673,0.6545 3.32617,3.33 2.29944,2.6756 5.41931,7.0437 8.26367,13.5821 5.68872,13.0766 10.38107,34.9314 4.32813,69.6562 l 15.59961,2.7188 c 6.48812,-37.2213 1.60916,-62.5606 -5.40821,-78.6914 -3.50868,-8.0655 -7.52623,-13.8034 -10.77539,-17.584 -3.24916,-3.7806 -6.18164,-5.9317 -6.18164,-5.9317 z"
       id="path9803"
       inkscape:connector-curvature="0" />
    <path
       style="color:#000000;font-style:normal;font-variant:normal;font-weight:normal;font-stretch:normal;font-size:medium;line-height:normal;font-family:sans-serif;font-variant-ligatures:normal;font-variant-position:normal;font-variant-caps:normal;font-variant-numeric:normal;font-variant-alternates:normal;font-feature-settings:normal;text-indent:0;text-align:start;text-decoration:none;text-decoration-line:none;text-decoration-style:solid;text-decoration-color:#000000;letter-spacing:normal;word-spacing:normal;text-transform:none;writing-mode:lr-tb;direction:ltr;text-orientation:mixed;dominant-baseline:auto;baseline-shift:baseline;text-anchor:start;white-space:normal;shape-padding:0;clip-rule:nonzero;display:inline;overflow:visible;visibility:visible;opacity:1;isolation:auto;mix-blend-mode:normal;color-interpolation:sRGB;color-interpolation-filters:linearRGB;solid-color:#000000;solid-opacity:1;vector-effect:none;fill:#000000;fill-opacity:1;fill-rule:nonzero;stroke:none;stroke-width:15.83362389;stroke-linecap:butt;stroke-linejoin:miter;stroke-miterlimit:4;stroke-dasharray:none;stroke-dashoffset:0;stroke-opacity:1;color-rendering:auto;image-rendering:auto;shape-rendering:auto;text-rendering:auto;enable-background:accumulate"
       d="m 134.55469,2775.0117 c -24.90791,1.1153 -38.654815,16.2523 -44.207034,30.1328 -5.552218,13.8806 -4.591797,27.1211 -4.591797,27.1211 l 15.800781,-1.0019 c 0,0 -0.5264,-10.1918 3.49219,-20.2383 4.01859,-10.0465 10.89895,-19.3304 30.21484,-20.1953 z"
       id="path9805"
       inkscape:connector-curvature="0" />
    <path
       style="color:#000000;font-style:normal;font-variant:normal;font-weight:normal;font-stretch:normal;font-size:medium;line-height:normal;font-family:sans-serif;font-variant-ligatures:normal;font-variant-position:normal;font-variant-caps:normal;font-variant-numeric:normal;font-variant-alternates:normal;font-feature-settings:normal;text-indent:0;text-align:start;text-decoration:none;text-decoration-line:none;text-decoration-style:solid;text-decoration-color:#000000;letter-spacing:normal;word-spacing:normal;text-transform:none;writing-mode:lr-tb;direction:ltr;text-orientation:mixed;dominant-baseline:auto;baseline-shift:baseline;text-anchor:start;white-space:normal;shape-padding:0;clip-rule:nonzero;display:inline;overflow:visible;visibility:visible;opacity:1;isolation:auto;mix-blend-mode:normal;color-interpolation:sRGB;color-interpolation-filters:linearRGB;solid-color:#000000;solid-opacity:1;vector-effect:none;fill:#000000;fill-opacity:1;fill-rule:nonzero;stroke:none;stroke-width:15.83362389;stroke-linecap:butt;stroke-linejoin:miter;stroke-miterlimit:4;stroke-dasharray:none;stroke-dashoffset:0;stroke-opacity:1;color-rendering:auto;image-rendering:auto;shape-rendering:auto;text-rendering:auto;enable-background:accumulate"
       d="m 119.83594,2753.9766 c -25.221167,3.9075 -39.916912,15.4123 -47.582034,26.2793 -7.665121,10.867 -8.601562,21.5117 -8.601562,21.5117 l 15.783203,1.25 c 0,0 0.384859,-6.0202 5.755859,-13.6348 5.371001,-7.6146 15.425494,-16.4066 37.068364,-19.7598 z"
       id="path9807"
       inkscape:connector-curvature="0" />
    <path
       style="color:#000000;font-style:normal;font-variant:normal;font-weight:normal;font-stretch:normal;font-size:medium;line-height:normal;font-family:sans-serif;font-variant-ligatures:normal;font-variant-position:normal;font-variant-caps:normal;font-variant-numeric:normal;font-variant-alternates:normal;font-feature-settings:normal;text-indent:0;text-align:start;text-decoration:none;text-decoration-line:none;text-decoration-style:solid;text-decoration-color:#000000;letter-spacing:normal;word-spacing:normal;text-transform:none;writing-mode:lr-tb;direction:ltr;text-orientation:mixed;dominant-baseline:auto;baseline-shift:baseline;text-anchor:start;white-space:normal;shape-padding:0;clip-rule:nonzero;display:inline;overflow:visible;visibility:visible;opacity:1;isolation:auto;mix-blend-mode:normal;color-interpolation:sRGB;color-interpolation-filters:linearRGB;solid-color:#000000;solid-opacity:1;vector-effect:none;fill:#000000;fill-opacity:1;fill-rule:nonzero;stroke:none;stroke-width:25.47543716;stroke-linecap:butt;stroke-linejoin:miter;stroke-miterlimit:4;stroke-dasharray:none;stroke-dashoffset:0;stroke-opacity:1;color-rendering:auto;image-rendering:auto;shape-rendering:auto;text-rendering:auto;enable-background:accumulate"
       d="m 248.40092,2076.6635 c -98.1555,-0.02 -165.593035,39.3924 -204.379995,98.3523 -38.7944213,58.9713 -49.6135494,135.9736 -41.1346979,212.1955 8.4788509,76.222 36.2965369,151.9983 77.3681409,209.5462 19.935092,27.9322 43.221442,51.7512 69.101292,68.8265 l 4.96743,-14.3447 168.8784,1.3794 4.55331,13.1395 c 26.38996,-17.3635 50.06712,-41.7474 70.3019,-70.3643 40.82892,-57.7421 68.59868,-133.4902 77.82006,-209.5228 9.22141,-76.0327 -0.0189,-152.6241 -35.84382,-211.3618 -35.81787,-58.7256 -99.28518,-98.1694 -191.57748,-97.8458 z m 0.0399,25.4725 h 0.0318 0.0238 c 85.2537,-0.3139 138.13332,33.7313 169.79067,85.6355 31.65734,51.9043 41.02234,123.1065 32.29838,195.0373 -8.72391,71.9307 -35.44609,144.3127 -73.32398,197.8813 -17.43763,24.661 -37.03797,45.1702 -58.18148,60.1539 0.17355,4.3352 0.55931,3.7272 4.12123,11.7747 l -168.87841,-1.3794 3.96504,-10.3976 c -20.7907,-14.7255 -40.10031,-34.7871 -57.29634,-58.8815 -38.058996,-53.3235 -64.786438,-125.6247 -72.788647,-197.5619 -8.002209,-71.937 2.76106,-143.1721 37.106162,-195.38 34.345099,-52.2079 91.583605,-86.9153 183.130815,-86.8823 z"
       id="path10-9-9-0-3-4-7"
       inkscape:connector-curvature="0"
       sodipodi:nodetypes="csssccccssccccccssscccccsscc" />
    <path
       style="color:#000000;font-style:normal;font-variant:normal;font-weight:normal;font-stretch:normal;font-size:medium;line-height:normal;font-family:sans-serif;font-variant-ligatures:normal;font-variant-position:normal;font-variant-caps:normal;font-variant-numeric:normal;font-variant-alternates:normal;font-feature-settings:normal;text-indent:0;text-align:start;text-decoration:none;text-decoration-line:none;text-decoration-style:solid;text-decoration-color:#000000;letter-spacing:normal;word-spacing:normal;text-transform:none;writing-mode:lr-tb;direction:ltr;text-orientation:mixed;dominant-baseline:auto;baseline-shift:baseline;text-anchor:start;white-space:normal;shape-padding:0;clip-rule:nonzero;display:inline;overflow:visible;visibility:visible;opacity:1;isolation:auto;mix-blend-mode:normal;color-interpolation:sRGB;color-interpolation-filters:linearRGB;solid-color:#000000;solid-opacity:1;vector-effect:none;fill:#000000;fill-opacity:1;fill-rule:nonzero;stroke:none;stroke-width:13.2128706;stroke-linecap:butt;stroke-linejoin:miter;stroke-miterlimit:4;stroke-dasharray:none;stroke-dashoffset:0;stroke-opacity:1;color-rendering:auto;image-rendering:auto;shape-rendering:auto;text-rendering:auto;enable-background:accumulate"
       d="m 237.4707,2391.4844 c 0,0 -1.48997,14.7062 -3.95508,30.1543 -1.23255,7.724 -2.71702,15.6337 -4.3125,21.7793 -0.79773,3.0727 -1.63444,5.7097 -2.38281,7.5293 -0.74836,1.8195 -1.71562,2.7718 -1.02148,2.1933 -1.46209,1.2184 -3.00838,2.2348 -3.81836,5.4746 -0.40499,1.6199 -0.17471,4.0336 0.85937,5.7188 1.03409,1.6851 2.37986,2.5099 3.39649,2.9883 4.06651,1.9135 6.15304,1.1789 8.91797,0.9882 5.52985,-0.3814 11.51953,-1.6152 11.51953,-1.6152 l -2.5918,-12.9551 c 0,0 -2.82406,0.36 -4.5332,0.6407 0.8762,-2.3493 1.70376,-4.8013 2.4414,-7.6426 1.78299,-6.8678 3.30226,-15.0589 4.57227,-23.0176 2.54002,-15.9175 4.05273,-30.9082 4.05273,-30.9082 z"
       id="path971-9"
       inkscape:connector-curvature="0" />
    <path
       inkscape:connector-curvature="0"
       id="path59-1-8-1-2"
       d="m 324.25137,2319.3024 c -17.82964,-0.6413 -36.47647,6.5291 -58.37438,22.7035 l 7.85857,10.6388 c 20.53532,-15.1684 36.04351,-20.63 50.04126,-20.1266 13.99773,0.5033 27.49257,7.1178 43.61168,18.6807 l 7.70894,-10.746 c -17.01067,-12.202 -33.01555,-20.5092 -50.84607,-21.1504 z"
       style="color:#000000;font-style:normal;font-variant:normal;font-weight:normal;font-stretch:normal;font-size:medium;line-height:normal;font-family:sans-serif;font-variant-ligatures:normal;font-variant-position:normal;font-variant-caps:normal;font-variant-numeric:normal;font-variant-alternates:normal;font-feature-settings:normal;text-indent:0;text-align:start;text-decoration:none;text-decoration-line:none;text-decoration-style:solid;text-decoration-color:#000000;letter-spacing:normal;word-spacing:normal;text-transform:none;writing-mode:lr-tb;direction:ltr;text-orientation:mixed;dominant-baseline:auto;baseline-shift:baseline;text-anchor:start;white-space:normal;shape-padding:0;clip-rule:nonzero;display:inline;overflow:visible;visibility:visible;opacity:1;isolation:auto;mix-blend-mode:normal;color-interpolation:sRGB;color-interpolation-filters:linearRGB;solid-color:#000000;solid-opacity:1;vector-effect:none;fill:#000000;fill-opacity:1;fill-rule:nonzero;stroke:none;stroke-width:13.22597218;stroke-linecap:butt;stroke-linejoin:miter;stroke-miterlimit:4;stroke-dasharray:none;stroke-dashoffset:0;stroke-opacity:1;color-rendering:auto;image-rendering:auto;shape-rendering:auto;text-rendering:auto;enable-background:accumulate" />
    <path
       inkscape:connector-curvature="0"
       id="path59-1-8-3-29-8"
       d="m 157.80134,2319.3024 c -17.82964,-0.6412 -36.47646,6.5312 -58.37439,22.7054 l 7.85767,10.639 c 20.53623,-15.1683 36.04265,-20.63 50.04038,-20.1265 13.99774,0.5036 27.49435,7.1178 43.61346,18.6805 l 7.70894,-10.7457 c -17.01067,-12.2021 -33.01554,-20.5115 -50.84606,-21.1527 z"
       style="color:#000000;font-style:normal;font-variant:normal;font-weight:normal;font-stretch:normal;font-size:medium;line-height:normal;font-family:sans-serif;font-variant-ligatures:normal;font-variant-position:normal;font-variant-caps:normal;font-variant-numeric:normal;font-variant-alternates:normal;font-feature-settings:normal;text-indent:0;text-align:start;text-decoration:none;text-decoration-line:none;text-decoration-style:solid;text-decoration-color:#000000;letter-spacing:normal;word-spacing:normal;text-transform:none;writing-mode:lr-tb;direction:ltr;text-orientation:mixed;dominant-baseline:auto;baseline-shift:baseline;text-anchor:start;white-space:normal;shape-padding:0;clip-rule:nonzero;display:inline;overflow:visible;visibility:visible;opacity:1;isolation:auto;mix-blend-mode:normal;color-interpolation:sRGB;color-interpolation-filters:linearRGB;solid-color:#000000;solid-opacity:1;vector-effect:none;fill:#000000;fill-opacity:1;fill-rule:nonzero;stroke:none;stroke-width:13.22597218;stroke-linecap:butt;stroke-linejoin:miter;stroke-miterlimit:4;stroke-dasharray:none;stroke-dashoffset:0;stroke-opacity:1;color-rendering:auto;image-rendering:auto;shape-rendering:auto;text-rendering:auto;enable-background:accumulate" />
    <path
       inkscape:connector-curvature="0"
       id="path29-2-7-1"
       d="m 337.1176,2588.1465 c -50.34936,-49.5659 -93.69189,-51.5329 -126.7703,-41.0853 -16.53963,5.2239 -30.48868,13.8154 -40.85729,21.7079 -10.36859,7.8927 -16.86191,14.7808 -19.57912,17.4729 l -9.30792,-9.3968 c 2.09392,-2.0747 9.64879,-10.0539 20.87531,-18.5999 11.22742,-8.546 26.42394,-17.9648 44.88664,-23.796 36.92532,-11.6627 87.01972,-7.9158 140.03139,44.2721 z"
       style="color:#000000;font-style:normal;font-variant:normal;font-weight:normal;font-stretch:normal;font-size:medium;line-height:normal;font-family:sans-serif;font-variant-ligatures:normal;font-variant-position:normal;font-variant-caps:normal;font-variant-numeric:normal;font-variant-alternates:normal;font-feature-settings:normal;text-indent:0;text-align:start;text-decoration:none;text-decoration-line:none;text-decoration-style:solid;text-decoration-color:#000000;letter-spacing:normal;word-spacing:normal;text-transform:none;writing-mode:lr-tb;direction:ltr;text-orientation:mixed;dominant-baseline:auto;baseline-shift:baseline;text-anchor:start;white-space:normal;shape-padding:0;clip-rule:nonzero;display:inline;overflow:visible;visibility:visible;opacity:1;isolation:auto;mix-blend-mode:normal;color-interpolation:sRGB;color-interpolation-filters:linearRGB;solid-color:#000000;solid-opacity:1;vector-effect:none;fill:#000000;fill-opacity:1;fill-rule:nonzero;stroke:none;stroke-width:13.22597218;stroke-linecap:butt;stroke-linejoin:miter;stroke-miterlimit:4;stroke-dasharray:none;stroke-dashoffset:0;stroke-opacity:1;color-rendering:auto;image-rendering:auto;shape-rendering:auto;text-rendering:auto;enable-background:accumulate" />
    <path
       inkscape:connector-curvature="0"
       id="path1039-2-2-0"
       d="m 210.62796,2234.0986 7.48051,14.6092 c 0,0 -33.1023,16.9474 -66.52511,33.8998 -16.7114,8.4762 -33.50072,16.954 -46.29524,23.3254 -6.39771,3.186 -11.7914,5.843 -15.71625,7.729 -1.96287,0.9427 -3.54946,1.6882 -4.77835,2.2396 -0.61446,0.2757 -1.12709,0.5001 -1.65388,0.7087 -0.26296,0.1045 -0.51883,0.2045 -0.90662,0.3292 -0.38779,0.1248 -0.35592,0.4424 -2.72429,0.4424 v -16.4126 c -2.29135,0 -2.11692,0.2856 -2.30286,0.3452 -0.18504,0.06 -0.17708,0.062 -0.11687,0.039 0.12041,-0.048 0.49227,-0.2035 0.98365,-0.4241 0.98365,-0.4413 2.49586,-1.1517 4.39056,-2.0617 3.7894,-1.8207 9.14591,-4.4579 15.50819,-7.6258 12.7237,-6.336 29.4953,-14.8021 46.18811,-23.269 33.38564,-16.934 66.46845,-33.8736 66.46845,-33.8736 z"
       style="color:#000000;font-style:normal;font-variant:normal;font-weight:normal;font-stretch:normal;font-size:medium;line-height:normal;font-family:sans-serif;font-variant-ligatures:normal;font-variant-position:normal;font-variant-caps:normal;font-variant-numeric:normal;font-variant-alternates:normal;font-feature-settings:normal;text-indent:0;text-align:start;text-decoration:none;text-decoration-line:none;text-decoration-style:solid;text-decoration-color:#000000;letter-spacing:normal;word-spacing:normal;text-transform:none;writing-mode:lr-tb;direction:ltr;text-orientation:mixed;dominant-baseline:auto;baseline-shift:baseline;text-anchor:start;white-space:normal;shape-padding:0;clip-rule:nonzero;display:inline;overflow:visible;visibility:visible;opacity:1;isolation:auto;mix-blend-mode:normal;color-interpolation:sRGB;color-interpolation-filters:linearRGB;solid-color:#000000;solid-opacity:1;vector-effect:none;fill:#000000;fill-opacity:1;fill-rule:nonzero;stroke:none;stroke-width:16.41243935;stroke-linecap:butt;stroke-linejoin:miter;stroke-miterlimit:4;stroke-dasharray:none;stroke-dashoffset:0;stroke-opacity:1;color-rendering:auto;image-rendering:auto;shape-rendering:auto;text-rendering:auto;enable-background:accumulate" />
    <path
       inkscape:connector-curvature="0"
       id="path1039-7-0-6-3"
       d="m 264.30015,2234.0986 c 0,0 33.08547,16.9396 66.4711,33.8737 16.69193,8.4668 33.46265,16.9327 46.18633,23.2688 6.36141,3.1681 11.71793,5.8051 15.5082,7.6258 1.89471,0.9101 3.40692,1.6206 4.39057,2.0618 0.49138,0.2207 0.86235,0.3762 0.98275,0.4242 0.062,0.023 0.0708,0.02 -0.11686,-0.039 -0.18505,-0.06 -0.008,-0.3452 -2.30197,-0.3452 v 16.4126 c -2.36836,0 -2.33473,-0.3176 -2.72253,-0.4423 -0.38778,-0.1248 -0.64544,-0.225 -0.90838,-0.3292 -0.5268,-0.2087 -1.03767,-0.4331 -1.6521,-0.7087 -1.22892,-0.5514 -2.81549,-1.2969 -4.77837,-2.2396 -3.92574,-1.886 -9.32032,-4.543 -15.718,-7.729 -12.79541,-6.3714 -29.58473,-14.8492 -46.29615,-23.3255 -33.42191,-16.9524 -66.52333,-33.8998 -66.52333,-33.8998 z"
       style="color:#000000;font-style:normal;font-variant:normal;font-weight:normal;font-stretch:normal;font-size:medium;line-height:normal;font-family:sans-serif;font-variant-ligatures:normal;font-variant-position:normal;font-variant-caps:normal;font-variant-numeric:normal;font-variant-alternates:normal;font-feature-settings:normal;text-indent:0;text-align:start;text-decoration:none;text-decoration-line:none;text-decoration-style:solid;text-decoration-color:#000000;letter-spacing:normal;word-spacing:normal;text-transform:none;writing-mode:lr-tb;direction:ltr;text-orientation:mixed;dominant-baseline:auto;baseline-shift:baseline;text-anchor:start;white-space:normal;shape-padding:0;clip-rule:nonzero;display:inline;overflow:visible;visibility:visible;opacity:1;isolation:auto;mix-blend-mode:normal;color-interpolation:sRGB;color-interpolation-filters:linearRGB;solid-color:#000000;solid-opacity:1;vector-effect:none;fill:#000000;fill-opacity:1;fill-rule:nonzero;stroke:none;stroke-width:16.41243935;stroke-linecap:butt;stroke-linejoin:miter;stroke-miterlimit:4;stroke-dasharray:none;stroke-dashoffset:0;stroke-opacity:1;color-rendering:auto;image-rendering:auto;shape-rendering:auto;text-rendering:auto;enable-background:accumulate" />
  </g>
</svg>
