<?xml version="1.0" encoding="UTF-8" standalone="no"?>
<!-- Created with Inkscape (http://www.inkscape.org/) -->

<svg
   xmlns:dc="http://purl.org/dc/elements/1.1/"
   xmlns:cc="http://creativecommons.org/ns#"
   xmlns:rdf="http://www.w3.org/1999/02/22-rdf-syntax-ns#"
   xmlns:svg="http://www.w3.org/2000/svg"
   xmlns="http://www.w3.org/2000/svg"
   xmlns:sodipodi="http://sodipodi.sourceforge.net/DTD/sodipodi-0.dtd"
   xmlns:inkscape="http://www.inkscape.org/namespaces/inkscape"
   width="1000"
   height="1000"
   viewBox="0 0 1000 1000"
   version="1.1"
   id="svg58798"
   inkscape:version="0.92.4 (5da689c313, 2019-01-14)"
   sodipodi:docname="Rato.svg">
  <defs
     id="defs58792" />
  <sodipodi:namedview
     id="base"
     pagecolor="#ffffff"
     bordercolor="#666666"
     borderopacity="1.0"
     inkscape:pageopacity="0.0"
     inkscape:pageshadow="2"
     inkscape:zoom="0.125"
     inkscape:cx="1057.8714"
     inkscape:cy="970.19364"
     inkscape:document-units="px"
     inkscape:current-layer="layer1"
     showgrid="false"
     units="px"
     inkscape:window-width="1366"
     inkscape:window-height="715"
     inkscape:window-x="-8"
     inkscape:window-y="-8"
     inkscape:window-maximized="1"
     inkscape:snap-global="true" />
  <metadata
     id="metadata58795">
    <rdf:RDF>
      <cc:Work
         rdf:about="">
        <dc:format>image/svg+xml</dc:format>
        <dc:type
           rdf:resource="http://purl.org/dc/dcmitype/StillImage" />
        <dc:title></dc:title>
      </cc:Work>
    </rdf:RDF>
  </metadata>
  <g
     inkscape:label="Camada 1"
     inkscape:groupmode="layer"
     id="layer1"
     transform="translate(0,-32.41665)">
    <path
       style="color:#000000;font-style:normal;font-variant:normal;font-weight:normal;font-stretch:normal;font-size:medium;line-height:normal;font-family:sans-serif;font-variant-ligatures:normal;font-variant-position:normal;font-variant-caps:normal;font-variant-numeric:normal;font-variant-alternates:normal;font-feature-settings:normal;text-indent:0;text-align:start;text-decoration:none;text-decoration-line:none;text-decoration-style:solid;text-decoration-color:#000000;letter-spacing:normal;word-spacing:normal;text-transform:none;writing-mode:lr-tb;direction:ltr;text-orientation:mixed;dominant-baseline:auto;baseline-shift:baseline;text-anchor:start;white-space:normal;shape-padding:0;clip-rule:nonzero;display:inline;overflow:visible;visibility:visible;opacity:1;isolation:auto;mix-blend-mode:normal;color-interpolation:sRGB;color-interpolation-filters:linearRGB;solid-color:#000000;solid-opacity:1;vector-effect:none;fill:#000000;fill-opacity:1;fill-rule:nonzero;stroke:none;stroke-width:38.60496902;stroke-linecap:butt;stroke-linejoin:miter;stroke-miterlimit:4;stroke-dasharray:none;stroke-dashoffset:0;stroke-opacity:1;color-rendering:auto;image-rendering:auto;shape-rendering:auto;text-rendering:auto;enable-background:accumulate"
       d="M 673.10684,32.471533 C 524.35926,32.438281 422.17336,92.167809 363.39523,181.51625 c -58.78829,89.36389 -75.19526,206.05136 -62.34657,321.55676 2.75673,24.78208 6.86273,49.53314 12.22682,73.98699 l 21.69946,8.57134 70.85995,179.19317 c -5.87935,2.80541 -10.82345,5.88108 -16.32974,11.06942 9.03692,15.56363 18.6471,30.51021 28.79071,44.723 62.23914,87.20694 146.03589,147.9554 241.34584,147.3876 95.26519,-0.56754 178.37479,-61.95222 240.24619,-149.4534 61.87136,-87.50131 103.94941,-202.28842 117.92331,-317.5068 13.9741,-115.21841 -0.026,-231.29095 -54.3135,-320.3009 C 909.21894,91.749829 813.04376,31.978744 673.18116,32.471533 Z m 0.0593,38.604343 h 0.0442 0.0377 c 129.19177,-0.475597 209.32008,51.113824 257.293,129.768554 47.97292,78.65474 62.16848,186.54544 48.94841,295.54806 -13.22008,109.00252 -53.72457,218.69598 -111.12407,299.87288 -57.39945,81.17686 -130.25001,132.66594 -208.95392,133.13486 -78.65896,0.4685 -152.01918,-50.40471 -209.68962,-131.21022 -9.57033,-13.40941 -18.66781,-27.61086 -27.24145,-42.47031 -7.40266,5.6883 -14.11684,7.97504 -16.64619,9.10481 L 334.97498,585.63134 c 7.2986,2.6264 14.56565,5.28438 21.97616,7.79875 -8.0633,-31.10552 -13.99828,-62.88751 -17.52845,-94.62255 C 327.2963,389.79549 343.6002,281.84671 395.64604,202.73193 447.69197,123.61716 534.43749,71.025754 673.16632,71.075876 Z"
       id="path10-9-5"
       inkscape:connector-curvature="0"
       sodipodi:nodetypes="cssccccssssccccccsssscccccsscc" />
    <path
       style="color:#000000;font-style:normal;font-variant:normal;font-weight:normal;font-stretch:normal;font-size:medium;line-height:normal;font-family:sans-serif;font-variant-ligatures:normal;font-variant-position:normal;font-variant-caps:normal;font-variant-numeric:normal;font-variant-alternates:normal;font-feature-settings:normal;text-indent:0;text-align:start;text-decoration:none;text-decoration-line:none;text-decoration-style:solid;text-decoration-color:#000000;letter-spacing:normal;word-spacing:normal;text-transform:none;writing-mode:lr-tb;direction:ltr;text-orientation:mixed;dominant-baseline:auto;baseline-shift:baseline;text-anchor:start;white-space:normal;shape-padding:0;clip-rule:nonzero;display:inline;overflow:visible;visibility:visible;opacity:1;isolation:auto;mix-blend-mode:normal;color-interpolation:sRGB;color-interpolation-filters:linearRGB;solid-color:#000000;solid-opacity:1;vector-effect:none;fill:#000000;fill-opacity:1;fill-rule:nonzero;stroke:none;stroke-width:19.30248451;stroke-linecap:butt;stroke-linejoin:miter;stroke-miterlimit:4;stroke-dasharray:none;stroke-dashoffset:0;stroke-opacity:1;color-rendering:auto;image-rendering:auto;shape-rendering:auto;text-rendering:auto;enable-background:accumulate"
       d="m 652.49039,497.41526 c 0,0 -2.1722,21.4859 -5.77345,44.05381 -1.80063,11.28394 -3.96679,22.83493 -6.29759,31.81291 -1.16544,4.48901 -2.39149,8.34976 -3.48476,11.00792 -1.09327,2.65821 -2.50542,4.0419 -1.49135,3.19682 -2.13595,1.77992 -4.39819,3.27008 -5.58145,8.00305 -0.59166,2.3665 -0.24835,5.8883 1.26244,8.35009 1.51068,2.46179 3.46877,3.66437 4.95395,4.36326 5.94073,2.79562 8.99156,1.72564 13.03081,1.44708 8.07852,-0.55718 16.83303,-2.35516 16.83303,-2.35516 l -3.78741,-18.92976 c 0,0 -4.12697,0.52788 -6.62249,0.9376 1.28041,-3.43253 2.4881,-7.01848 3.56594,-11.17029 2.60477,-10.03312 4.82622,-21.99494 6.68155,-33.62178 3.71068,-23.2537 5.9211,-45.15385 5.9211,-45.15385 z"
       id="path971-8"
       inkscape:connector-curvature="0" />
    <path
       style="color:#000000;font-style:normal;font-variant:normal;font-weight:normal;font-stretch:normal;font-size:medium;line-height:normal;font-family:sans-serif;font-variant-ligatures:normal;font-variant-position:normal;font-variant-caps:normal;font-variant-numeric:normal;font-variant-alternates:normal;font-feature-settings:normal;text-indent:0;text-align:start;text-decoration:none;text-decoration-line:none;text-decoration-style:solid;text-decoration-color:#000000;letter-spacing:normal;word-spacing:normal;text-transform:none;writing-mode:lr-tb;direction:ltr;text-orientation:mixed;dominant-baseline:auto;baseline-shift:baseline;text-anchor:start;white-space:normal;shape-padding:0;clip-rule:nonzero;display:inline;overflow:visible;visibility:visible;opacity:1;isolation:auto;mix-blend-mode:normal;color-interpolation:sRGB;color-interpolation-filters:linearRGB;solid-color:#000000;solid-opacity:1;vector-effect:none;fill:#000000;fill-opacity:1;fill-rule:nonzero;stroke:none;stroke-width:21.04345512;stroke-linecap:butt;stroke-linejoin:miter;stroke-miterlimit:4;stroke-dasharray:none;stroke-dashoffset:0;stroke-opacity:1;color-rendering:auto;image-rendering:auto;shape-rendering:auto;text-rendering:auto;enable-background:accumulate"
       d="m 275.81455,572.86856 -0.78259,0.0302 -0.77521,0.14023 c 0,0 -19.0259,3.46563 -39.12939,6.62987 -10.05175,1.5821 -20.38024,3.08974 -28.57184,4.03104 -4.09581,0.47065 -7.67385,0.79683 -10.26962,0.93027 -2.59578,0.13344 -4.90428,-0.33681 -3.08606,0.14024 l -0.5168,-0.14024 -0.53157,-0.0813 c 0,0 -48.26975,-6.79744 -71.0457,34.85469 l -0.53895,0.98129 -0.32485,1.07792 c 0,0 -1.24521,4.21411 -5.36738,8.91116 -4.12217,4.69705 -10.11639,9.26837 -22.045355,9.25075 h -0.620166 l -0.605397,0.0738 c 0,0 -12.486343,1.39635 -24.599839,9.95214 -12.113498,8.55576 -24.115931,25.40707 -23.905849,51.63602 l 0.03704,4.71769 0.66446,0.58327 c -0.871471,2.86825 -4.645651,10.68052 -17.615613,24.15684 l -0.221488,0.22908 -0.214105,0.24342 c 0,0 -22.4045279,28.09479 -7.597009,61.16 -0.106553,-0.0994 0.08118,0.1255 -3.373989,3.94248 l 0.287934,-0.30996 c 0,0 -9.4976354,9.88667 -13.3409093,26.48985 -3.7254793,16.09431 -2.02850311,39.1572 14.2047093,66.02534 0.236514,1.61293 4.417559,30.13218 8.8964,58.46519 l 0.162426,1.06314 0.383911,1.00411 c 0,0 6.942699,18.99892 3.824345,40.12605 l -0.0443,0.33946 -0.02953,0.33227 c -0.41374,5.02893 -0.739299,7.05463 -2.687377,10.45413 -1.948078,3.3996 -6.188729,8.4638 -14.839641,16.3679 l 14.197199,15.534 c 9.347451,-8.5408 15.117881,-14.8395 18.900237,-21.4401 3.691282,-6.4417 4.819871,-12.88044 5.330458,-18.73779 3.678537,-25.36631 -3.364851,-45.44483 -4.414974,-48.32853 v -0.008 c -4.57693,-28.95341 -9.10312,-59.85254 -9.10312,-59.85254 l -0.324846,-2.21489 -1.203413,-1.89002 C 19.747481,855.70859 19.58975,838.63758 22.226515,827.24661 c 2.636766,-11.39099 7.855412,-16.4934 7.855412,-16.4934 l 0.147659,-0.15499 0.147661,-0.15498 c 5.65153,-6.24332 8.464255,-9.70795 9.546098,-15.45982 0.476316,-2.53241 -0.112041,-5.98799 -1.734983,-8.76352 l 0.02231,0.0151 c -12.618496,-23.74902 3.565946,-41.37379 3.565946,-41.37379 l -0.435594,0.47988 c 14.825406,-15.40419 20.959252,-25.60687 23.152788,-34.12378 1.096769,-4.25846 1.050047,-8.23199 0.07382,-11.45089 -0.06441,-0.21245 -0.179627,-0.33454 -0.251032,-0.53896 0.371276,-18.7335 7.521307,-27.2303 14.824874,-32.38882 7.57585,-5.35081 14.876557,-6.23855 14.876557,-6.23855 l -1.225562,0.0738 c 17.970961,0.0264 30.739351,-8.25596 37.903851,-16.41957 5.82261,-6.63463 8.06487,-12.44332 8.90378,-14.81749 16.41501,-29.92236 49.31043,-24.09042 49.31043,-24.09042 l -1.04852,-0.22183 c 4.09953,1.07592 6.17525,0.69554 9.50919,0.52419 3.33391,-0.17124 7.23272,-0.54755 11.59115,-1.04837 8.71686,-1.00167 19.22409,-2.53455 29.43565,-4.14178 19.83736,-3.12236 37.44565,-6.33419 38.50186,-6.52653 17.7268,-0.47624 32.28468,3.78879 32.32973,3.8022 7e-5,4e-5 0.0295,0.008 0.0295,0.008 39.01218,16.77018 91.28224,31.33305 91.28224,31.33305 l 0.36175,0.10318 0.36175,0.0738 c 13.61018,2.77558 25.75894,7.75946 25.75894,7.75946 l 0.51681,0.21395 0.53158,0.15498 c 25.60164,7.55934 33.86537,19.18061 37.39439,28.59402 3.29439,8.78747 2.07131,15.01275 1.89002,15.87325 -4.07968,10.77635 -19.93637,27.65029 -35.17953,40.22942 -15.45362,12.75287 -29.63497,21.86818 -29.63497,21.86818 l 2.51756,-1.18125 c -56.70318,17.88988 -63.53732,90.03412 -63.53732,90.03412 l -0.14027,1.18126 0.14027,1.18864 c 4.15867,36.75272 -5.85323,58.7306 -16.36791,72.24911 -10.51465,13.51851 -21.03389,17.94048 -21.03389,17.94048 l -1.65377,0.70876 -1.32154,1.22557 c -10.6656,9.866 -15.49199,23.45296 -21.18893,37.05478 -5.69695,13.60186 -11.84203,27.43744 -21.63191,38.65705 l 15.85848,13.8355 c 12.49524,-14.32 19.40854,-30.57685 25.18308,-44.36397 5.69857,-13.60571 10.69769,-24.48877 15.86587,-29.43565 3.57876,-1.77806 14.95147,-7.81078 26.53416,-22.70244 13.29232,-17.08966 24.74128,-45.06016 20.71642,-85.41281 0.1043,-0.75564 8.29007,-59.27024 48.91179,-72.08668 l 1.33628,-0.4282 1.18126,-0.75307 c 0,0 15.1248,-9.70848 31.6579,-23.35214 16.5331,-13.64363 34.99651,-30.39434 41.90538,-49.93794 l 0.19203,-0.55375 0.13306,-0.56848 c 0,0 3.08338,-13.42494 -2.62835,-28.66043 -5.71169,-15.23548 -20.6992,-32.4 -51.14135,-41.38858 l 1.04098,0.36931 c 0,0 -13.58176,-5.66708 -29.59807,-8.93334 l 0.71612,0.17728 c 0,0 -52.93164,-14.83524 -89.70228,-30.78671 l -0.55373,-0.24344 -0.58326,-0.17727 c 0,0 -17.731,-5.4254 -39.53545,-4.73244 z"
       id="path1627"
       inkscape:connector-curvature="0" />
    <path
       style="color:#000000;font-style:normal;font-variant:normal;font-weight:normal;font-stretch:normal;font-size:medium;line-height:normal;font-family:sans-serif;font-variant-ligatures:normal;font-variant-position:normal;font-variant-caps:normal;font-variant-numeric:normal;font-variant-alternates:normal;font-feature-settings:normal;text-indent:0;text-align:start;text-decoration:none;text-decoration-line:none;text-decoration-style:solid;text-decoration-color:#000000;letter-spacing:normal;word-spacing:normal;text-transform:none;writing-mode:lr-tb;direction:ltr;text-orientation:mixed;dominant-baseline:auto;baseline-shift:baseline;text-anchor:start;white-space:normal;shape-padding:0;clip-rule:nonzero;display:inline;overflow:visible;visibility:visible;opacity:1;isolation:auto;mix-blend-mode:normal;color-interpolation:sRGB;color-interpolation-filters:linearRGB;solid-color:#000000;solid-opacity:1;vector-effect:none;fill:#000000;fill-opacity:1;fill-rule:nonzero;stroke:none;stroke-width:21.04345512;stroke-linecap:butt;stroke-linejoin:miter;stroke-miterlimit:4;stroke-dasharray:none;stroke-dashoffset:0;stroke-opacity:1;color-rendering:auto;image-rendering:auto;shape-rendering:auto;text-rendering:auto;enable-background:accumulate"
       d="m 219.0031,626.84496 c -25.71957,-0.32055 -49.08156,3.4626 -49.08156,3.4626 l 3.32969,20.77548 c 0,0 22.00895,-3.48937 45.49346,-3.19678 11.74226,0.14628 23.7848,1.30445 32.96467,3.94984 9.17987,2.64539 14.5799,6.52655 16.49341,10.46158 l 0.0369,0.0666 0.0295,0.0665 c 0,0 8.69041,17.26238 17.03238,38.14743 8.32552,20.84394 15.55036,46.3364 14.66982,56.59737 -0.02,0.1667 -1.33754,11.15829 -4.82104,21.52855 -1.75489,5.22428 -4.13204,10.1067 -6.24594,12.72077 -2.11389,2.61401 -2.54774,2.63827 -3.66192,2.53232 l -11.57639,-1.10007 0.0516,11.6207 c 0,0 0.0351,22.67941 -3.94985,43.27861 -1.9926,10.2996 -5.2221,19.97307 -8.62324,25.03543 -1.70056,2.53116 -3.248,3.7621 -4.26731,4.2304 -1.01932,0.46827 -1.71351,0.6942 -4.03108,-0.0151 l -13.59938,9.95989 0.13289,1.80127 c 0,0 2.56256,16.64446 0.45035,31.54715 -1.0561,7.45133 -3.40847,14.05913 -6.34929,17.63039 -2.94082,3.57125 -5.61575,5.36267 -13.43689,4.46666 l -6.28285,-0.72355 -3.00484,4.36331 c -0.22983,0.14139 -0.82574,0.57269 -2.99007,0.51682 -4.47755,-0.11567 -16.10832,-3.31483 -36.05074,-21.02651 l 1.41014,1.52823 c 0,0 0.0158,-1.56989 0.0665,0.76785 l -21.0339,0.45034 c 0.16727,7.73273 4.17133,11.45091 4.17133,11.45091 l 0.62756,0.84162 0.78257,0.69398 c 21.94463,19.48993 37.37222,26.0149 49.48025,26.32746 6.05401,0.15612 11.08341,-1.48899 14.47787,-3.52902 0.51011,-0.30656 0.41019,-0.44585 0.87118,-0.78999 11.3239,-0.10054 21.18646,-4.70411 27.16172,-11.96029 6.84221,-8.309 9.57251,-18.44859 10.93407,-28.05505 1.35925,-9.59018 1.22696,-19.04318 0.76045,-26.11332 1.41324,-0.35874 2.939,-0.41481 4.23777,-1.01147 5.63924,-2.59078 9.78155,-6.89787 12.94963,-11.6133 6.33615,-9.43092 9.55016,-21.0854 11.81265,-32.78012 3.24253,-16.7605 3.86945,-30.58879 4.07536,-38.91527 4.35129,-1.93366 8.10773,-4.89522 10.76428,-8.18025 4.74523,-5.86797 7.62449,-12.66952 9.83402,-19.24726 4.41907,-13.15546 5.81773,-26.00997 5.81773,-26.00997 l 0.0147,-0.1255 0.0147,-0.1255 c 1.77609,-19.85179 -7.37419,-44.52091 -16.10212,-66.3723 -8.70542,-21.79504 -17.68722,-39.61298 -17.73373,-39.70528 -5.76455,-11.81969 -17.43899,-17.94978 -29.57592,-21.4473 -12.14871,-3.50099 -25.67161,-4.61654 -38.53139,-4.77679 z"
       id="path1629"
       inkscape:connector-curvature="0"
       sodipodi:nodetypes="cccsscccsccccccccccccscccccccccccccccsscccsccscccscccc" />
    <path
       style="color:#000000;font-style:normal;font-variant:normal;font-weight:normal;font-stretch:normal;font-size:medium;line-height:normal;font-family:sans-serif;font-variant-ligatures:normal;font-variant-position:normal;font-variant-caps:normal;font-variant-numeric:normal;font-variant-alternates:normal;font-feature-settings:normal;text-indent:0;text-align:start;text-decoration:none;text-decoration-line:none;text-decoration-style:solid;text-decoration-color:#000000;letter-spacing:normal;word-spacing:normal;text-transform:none;writing-mode:lr-tb;direction:ltr;text-orientation:mixed;dominant-baseline:auto;baseline-shift:baseline;text-anchor:start;white-space:normal;shape-padding:0;clip-rule:nonzero;display:inline;overflow:visible;visibility:visible;opacity:1;isolation:auto;mix-blend-mode:normal;color-interpolation:sRGB;color-interpolation-filters:linearRGB;solid-color:#000000;solid-opacity:1;vector-effect:none;fill:#000000;fill-opacity:1;fill-rule:nonzero;stroke:none;stroke-width:21.04345512;stroke-linecap:butt;stroke-linejoin:miter;stroke-miterlimit:4;stroke-dasharray:none;stroke-dashoffset:0;stroke-opacity:1;color-rendering:auto;image-rendering:auto;shape-rendering:auto;text-rendering:auto;enable-background:accumulate"
       d="m 93.619212,893.87726 -12.595236,16.85519 c 0,0 10.06871,7.56309 22.451414,14.05706 6.19136,3.24696 12.99239,6.30149 20.07413,8.04736 7.08172,1.74588 15.09901,2.57608 22.68027,-1.85311 l -10.61661,-18.16933 c -0.0989,0.0577 -2.62079,0.68058 -7.02853,-0.40605 -4.40774,-1.08665 -10.04639,-3.48755 -15.33429,-6.2607 -10.57581,-5.54634 -19.631148,-12.27042 -19.631148,-12.27042 z"
       id="path1631"
       inkscape:connector-curvature="0" />
    <path
       style="color:#000000;font-style:normal;font-variant:normal;font-weight:normal;font-stretch:normal;font-size:medium;line-height:normal;font-family:sans-serif;font-variant-ligatures:normal;font-variant-position:normal;font-variant-caps:normal;font-variant-numeric:normal;font-variant-alternates:normal;font-feature-settings:normal;text-indent:0;text-align:start;text-decoration:none;text-decoration-line:none;text-decoration-style:solid;text-decoration-color:#000000;letter-spacing:normal;word-spacing:normal;text-transform:none;writing-mode:lr-tb;direction:ltr;text-orientation:mixed;dominant-baseline:auto;baseline-shift:baseline;text-anchor:start;white-space:normal;shape-padding:0;clip-rule:nonzero;display:inline;overflow:visible;visibility:visible;opacity:1;isolation:auto;mix-blend-mode:normal;color-interpolation:sRGB;color-interpolation-filters:linearRGB;solid-color:#000000;solid-opacity:1;vector-effect:none;fill:#000000;fill-opacity:1;fill-rule:nonzero;stroke:none;stroke-width:21.04345512;stroke-linecap:butt;stroke-linejoin:miter;stroke-miterlimit:4;stroke-dasharray:none;stroke-dashoffset:0;stroke-opacity:1;color-rendering:auto;image-rendering:auto;shape-rendering:auto;text-rendering:auto;enable-background:accumulate"
       d="m 99.045648,782.95649 -9.893092,18.57542 c 0,0 23.666494,12.5967 51.348114,25.71465 27.68161,13.11794 57.81756,26.89281 77.72723,29.37656 l 1.27723,0.16255 1.26986,-0.15499 c 0,0 4.13579,-0.42696 8.54202,2.26655 4.40625,2.69348 10.11665,8.21023 9.93001,28.06981 l 21.04128,0.19921 c 0.23194,-24.68122 -9.17623,-39.60488 -19.9929,-46.21698 -10.81669,-6.61213 -22.01584,-5.21234 -22.01584,-5.21234 l 2.5545,0.008 C 209.26178,834.3008 176.67811,821.10787 149.51519,808.23575 122.35228,795.36363 99.045648,782.95669 99.045648,782.95669 Z"
       id="path1633"
       inkscape:connector-curvature="0" />
    <path
       style="color:#000000;font-style:normal;font-variant:normal;font-weight:normal;font-stretch:normal;font-size:medium;line-height:normal;font-family:sans-serif;font-variant-ligatures:normal;font-variant-position:normal;font-variant-caps:normal;font-variant-numeric:normal;font-variant-alternates:normal;font-feature-settings:normal;text-indent:0;text-align:start;text-decoration:none;text-decoration-line:none;text-decoration-style:solid;text-decoration-color:#000000;letter-spacing:normal;word-spacing:normal;text-transform:none;writing-mode:lr-tb;direction:ltr;text-orientation:mixed;dominant-baseline:auto;baseline-shift:baseline;text-anchor:start;white-space:normal;shape-padding:0;clip-rule:nonzero;display:inline;overflow:visible;visibility:visible;opacity:1;isolation:auto;mix-blend-mode:normal;color-interpolation:sRGB;color-interpolation-filters:linearRGB;solid-color:#000000;solid-opacity:1;vector-effect:none;fill:#000000;fill-opacity:1;fill-rule:nonzero;stroke:none;stroke-width:21.04345512;stroke-linecap:butt;stroke-linejoin:miter;stroke-miterlimit:4;stroke-dasharray:none;stroke-dashoffset:0;stroke-opacity:1;color-rendering:auto;image-rendering:auto;shape-rendering:auto;text-rendering:auto;enable-background:accumulate"
       d="m 147.30769,711.23158 -4.68814,20.5171 c 0,0 19.2978,4.41091 40.3845,8.80041 10.54336,2.19477 21.53756,4.38576 30.89006,6.03186 9.35253,1.64606 16.21078,2.86388 22.0749,2.76118 h 0.25103 l 0.25103,-0.0151 c 0,0 6.44263,-0.64818 14.97992,5.30828 8.5373,5.95648 19.13972,18.79249 22.31852,50.83132 l 20.94531,-2.07461 c -3.59987,-36.28279 -17.22546,-56.25235 -31.22233,-66.01792 -13.99683,-9.76557 -28.39464,-9.05144 -28.39464,-9.05144 l 0.50204,-0.0226 c -1.10389,0.0189 -9.07566,-0.86272 -18.05859,-2.44377 -8.98293,-1.58104 -19.82784,-3.73726 -30.24775,-5.90632 -20.83984,-4.33814 -39.98583,-8.71921 -39.98583,-8.71921 z"
       id="path1635"
       inkscape:connector-curvature="0" />
    <path
       style="color:#000000;font-style:normal;font-variant:normal;font-weight:normal;font-stretch:normal;font-size:medium;line-height:normal;font-family:sans-serif;font-variant-ligatures:normal;font-variant-position:normal;font-variant-caps:normal;font-variant-numeric:normal;font-variant-alternates:normal;font-feature-settings:normal;text-indent:0;text-align:start;text-decoration:none;text-decoration-line:none;text-decoration-style:solid;text-decoration-color:#000000;letter-spacing:normal;word-spacing:normal;text-transform:none;writing-mode:lr-tb;direction:ltr;text-orientation:mixed;dominant-baseline:auto;baseline-shift:baseline;text-anchor:start;white-space:normal;shape-padding:0;clip-rule:nonzero;display:inline;overflow:visible;visibility:visible;opacity:1;isolation:auto;mix-blend-mode:normal;color-interpolation:sRGB;color-interpolation-filters:linearRGB;solid-color:#000000;solid-opacity:1;vector-effect:none;fill:#000000;fill-opacity:1;fill-rule:nonzero;stroke:none;stroke-width:21.04345512;stroke-linecap:butt;stroke-linejoin:miter;stroke-miterlimit:4;stroke-dasharray:none;stroke-dashoffset:0;stroke-opacity:1;color-rendering:auto;image-rendering:auto;shape-rendering:auto;text-rendering:auto;enable-background:accumulate"
       d="m 470.66418,637.28439 -15.68867,14.02754 c 0,0 6.04183,7.59852 6.50436,15.09066 0.23133,3.74607 -0.37688,7.21419 -4.18614,11.71667 -3.77101,4.4574 -11.3779,9.88199 -25.27166,14.67721 -1.21438,0.31034 -33.86594,8.40387 -72.12361,-12.78718 l -0.67923,-0.37649 -0.71614,-0.27331 c 0,0 -52.45162,-19.93562 -75.29087,-25.44887 l -4.93178,20.45803 c 18.30577,4.41888 72.54383,24.58541 72.72162,24.65151 45.2874,24.44406 86.71224,14.07921 86.71224,14.07921 l 0.3839,-0.0961 0.38389,-0.13268 c 16.54459,-5.6421 27.72722,-12.70841 34.87684,-21.15943 7.14966,-8.45098 9.63697,-18.31905 9.12531,-26.60797 -1.02343,-16.5779 -11.82006,-27.81881 -11.82006,-27.81881 z"
       id="path1637"
       inkscape:connector-curvature="0" />
    <path
       style="color:#000000;font-style:normal;font-variant:normal;font-weight:normal;font-stretch:normal;font-size:medium;line-height:normal;font-family:sans-serif;font-variant-ligatures:normal;font-variant-position:normal;font-variant-caps:normal;font-variant-numeric:normal;font-variant-alternates:normal;font-feature-settings:normal;text-indent:0;text-align:start;text-decoration:none;text-decoration-line:none;text-decoration-style:solid;text-decoration-color:#000000;letter-spacing:normal;word-spacing:normal;text-transform:none;writing-mode:lr-tb;direction:ltr;text-orientation:mixed;dominant-baseline:auto;baseline-shift:baseline;text-anchor:start;white-space:normal;shape-padding:0;clip-rule:nonzero;display:inline;overflow:visible;visibility:visible;opacity:1;isolation:auto;mix-blend-mode:normal;color-interpolation:sRGB;color-interpolation-filters:linearRGB;solid-color:#000000;solid-opacity:1;vector-effect:none;fill:#000000;fill-opacity:1;fill-rule:nonzero;stroke:none;stroke-width:21.04345512;stroke-linecap:butt;stroke-linejoin:miter;stroke-miterlimit:4;stroke-dasharray:none;stroke-dashoffset:0;stroke-opacity:1;color-rendering:auto;image-rendering:auto;shape-rendering:auto;text-rendering:auto;enable-background:accumulate"
       d="m 333.85895,676.59099 c -18.89434,17.57632 -34.91375,13.10467 -34.91375,13.10467 l -4.48881,20.55401 c 0,0 28.46612,5.25355 53.73278,-18.25056 z"
       id="path1639"
       inkscape:connector-curvature="0" />
    <path
       style="color:#000000;font-style:normal;font-variant:normal;font-weight:normal;font-stretch:normal;font-size:medium;line-height:normal;font-family:sans-serif;font-variant-ligatures:normal;font-variant-position:normal;font-variant-caps:normal;font-variant-numeric:normal;font-variant-alternates:normal;font-feature-settings:normal;text-indent:0;text-align:start;text-decoration:none;text-decoration-line:none;text-decoration-style:solid;text-decoration-color:#000000;letter-spacing:normal;word-spacing:normal;text-transform:none;writing-mode:lr-tb;direction:ltr;text-orientation:mixed;dominant-baseline:auto;baseline-shift:baseline;text-anchor:start;white-space:normal;shape-padding:0;clip-rule:nonzero;display:inline;overflow:visible;visibility:visible;opacity:1;isolation:auto;mix-blend-mode:normal;color-interpolation:sRGB;color-interpolation-filters:linearRGB;solid-color:#000000;solid-opacity:1;vector-effect:none;fill:#000000;fill-opacity:1;fill-rule:nonzero;stroke:none;stroke-width:21.04345512;stroke-linecap:butt;stroke-linejoin:miter;stroke-miterlimit:4;stroke-dasharray:none;stroke-dashoffset:0;stroke-opacity:1;color-rendering:auto;image-rendering:auto;shape-rendering:auto;text-rendering:auto;enable-background:accumulate"
       d="m 418.28984,626.54229 c -3.13121,0.0942 -6.11918,0.50692 -8.96283,1.22553 -11.3747,2.87461 -19.71,11.5144 -22.37021,21.38092 -5.32037,19.73299 8.82849,42.52282 34.98758,48.07746 l 5.67744,1.2034 4.05325,-4.15653 c 0,0 6.24275,-6.39589 12.35161,-15.50413 6.10881,-9.10825 12.9028,-21.11856 12.48447,-35.15003 l -0.19204,-6.50433 -5.90632,-2.73167 c -12.03207,-5.56737 -22.72935,-8.12317 -32.12303,-7.84062 z m 6.62985,21.52855 c 2.43312,0.38842 5.94172,1.91764 8.97762,2.91622 -1.49505,5.22414 -3.93,10.95363 -7.35336,16.05784 -2.9205,4.35446 -3.93087,5.17121 -5.84728,7.37551 -11.46625,-4.86572 -14.8775,-14.39555 -13.42212,-19.79357 0.84374,-3.1294 2.32912,-5.22576 7.21309,-6.46003 2.44202,-0.61714 5.91793,-0.81665 10.43205,-0.0961 z"
       id="path1641"
       inkscape:connector-curvature="0" />
    <path
       style="color:#000000;font-style:normal;font-variant:normal;font-weight:normal;font-stretch:normal;font-size:medium;line-height:normal;font-family:sans-serif;font-variant-ligatures:normal;font-variant-position:normal;font-variant-caps:normal;font-variant-numeric:normal;font-variant-alternates:normal;font-feature-settings:normal;text-indent:0;text-align:start;text-decoration:none;text-decoration-line:none;text-decoration-style:solid;text-decoration-color:#000000;letter-spacing:normal;word-spacing:normal;text-transform:none;writing-mode:lr-tb;direction:ltr;text-orientation:mixed;dominant-baseline:auto;baseline-shift:baseline;text-anchor:start;white-space:normal;shape-padding:0;clip-rule:nonzero;display:inline;overflow:visible;visibility:visible;opacity:1;isolation:auto;mix-blend-mode:normal;color-interpolation:sRGB;color-interpolation-filters:linearRGB;solid-color:#000000;solid-opacity:1;vector-effect:none;fill:#000000;fill-opacity:1;fill-rule:nonzero;stroke:none;stroke-width:21.04345512;stroke-linecap:butt;stroke-linejoin:miter;stroke-miterlimit:4;stroke-dasharray:none;stroke-dashoffset:0;stroke-opacity:1;color-rendering:auto;image-rendering:auto;shape-rendering:auto;text-rendering:auto;enable-background:accumulate"
       d="m 116.15923,891.84697 -15.52626,14.2121 c 0,0 28.59452,32.68967 66.79314,32.11563 1.29357,2.60766 2.6892,5.42849 4.98347,8.26149 l 16.35314,-13.24496 c -1.66665,-2.05796 -4.69553,-9.16219 -4.69553,-9.16219 l -2.89409,-8.13594 -8.54203,1.24771 c -27.46456,4.00829 -56.47184,-25.29384 -56.47184,-25.29384 z"
       id="path1643"
       inkscape:connector-curvature="0" />
    <path
       style="color:#000000;font-style:normal;font-variant:normal;font-weight:normal;font-stretch:normal;font-size:medium;line-height:normal;font-family:sans-serif;font-variant-ligatures:normal;font-variant-position:normal;font-variant-caps:normal;font-variant-numeric:normal;font-variant-alternates:normal;font-feature-settings:normal;text-indent:0;text-align:start;text-decoration:none;text-decoration-line:none;text-decoration-style:solid;text-decoration-color:#000000;letter-spacing:normal;word-spacing:normal;text-transform:none;writing-mode:lr-tb;direction:ltr;text-orientation:mixed;dominant-baseline:auto;baseline-shift:baseline;text-anchor:start;white-space:normal;shape-padding:0;clip-rule:nonzero;display:inline;overflow:visible;visibility:visible;opacity:1;isolation:auto;mix-blend-mode:normal;color-interpolation:sRGB;color-interpolation-filters:linearRGB;solid-color:#000000;solid-opacity:1;vector-effect:none;fill:#000000;fill-opacity:1;fill-rule:nonzero;stroke:none;stroke-width:21.04345512;stroke-linecap:butt;stroke-linejoin:miter;stroke-miterlimit:4;stroke-dasharray:none;stroke-dashoffset:0;stroke-opacity:1;color-rendering:auto;image-rendering:auto;shape-rendering:auto;text-rendering:auto;enable-background:accumulate"
       d="m 330.72122,702.08415 c -5.10206,34.6959 29.64975,56.11009 29.64975,56.11009 l 11.65022,-17.52703 c 0,0 -23.19025,-17.08969 -20.48018,-35.51914 z"
       id="path1645"
       inkscape:connector-curvature="0" />
    <path
       style="color:#000000;font-style:normal;font-variant:normal;font-weight:normal;font-stretch:normal;font-size:medium;line-height:normal;font-family:sans-serif;font-variant-ligatures:normal;font-variant-position:normal;font-variant-caps:normal;font-variant-numeric:normal;font-variant-alternates:normal;font-feature-settings:normal;text-indent:0;text-align:start;text-decoration:none;text-decoration-line:none;text-decoration-style:solid;text-decoration-color:#000000;letter-spacing:normal;word-spacing:normal;text-transform:none;writing-mode:lr-tb;direction:ltr;text-orientation:mixed;dominant-baseline:auto;baseline-shift:baseline;text-anchor:start;white-space:normal;shape-padding:0;clip-rule:nonzero;display:inline;overflow:visible;visibility:visible;opacity:1;isolation:auto;mix-blend-mode:normal;color-interpolation:sRGB;color-interpolation-filters:linearRGB;solid-color:#000000;solid-opacity:1;vector-effect:none;fill:#000000;fill-opacity:1;fill-rule:nonzero;stroke:none;stroke-width:21.04345512;stroke-linecap:butt;stroke-linejoin:miter;stroke-miterlimit:4;stroke-dasharray:none;stroke-dashoffset:0;stroke-opacity:1;color-rendering:auto;image-rendering:auto;shape-rendering:auto;text-rendering:auto;enable-background:accumulate"
       d="m 264.23816,922.30887 -18.7452,9.56823 c 13.414,26.28086 45.79616,28.3208 45.79616,28.3208 l 2.18533,-20.93051 c 0,0 -22.46675,-3.6956 -29.23629,-16.95852 z"
       id="path1647"
       inkscape:connector-curvature="0" />
    <path
       style="color:#000000;font-style:normal;font-variant:normal;font-weight:normal;font-stretch:normal;font-size:medium;line-height:normal;font-family:sans-serif;font-variant-ligatures:normal;font-variant-position:normal;font-variant-caps:normal;font-variant-numeric:normal;font-variant-alternates:normal;font-feature-settings:normal;text-indent:0;text-align:start;text-decoration:none;text-decoration-line:none;text-decoration-style:solid;text-decoration-color:#000000;letter-spacing:normal;word-spacing:normal;text-transform:none;writing-mode:lr-tb;direction:ltr;text-orientation:mixed;dominant-baseline:auto;baseline-shift:baseline;text-anchor:start;white-space:normal;shape-padding:0;clip-rule:nonzero;display:inline;overflow:visible;visibility:visible;opacity:1;isolation:auto;mix-blend-mode:normal;color-interpolation:sRGB;color-interpolation-filters:linearRGB;solid-color:#000000;solid-opacity:1;vector-effect:none;fill:#000000;fill-opacity:1;fill-rule:nonzero;stroke:none;stroke-width:5.03330278;stroke-linecap:butt;stroke-linejoin:miter;stroke-miterlimit:4;stroke-dasharray:none;stroke-dashoffset:0;stroke-opacity:1;color-rendering:auto;image-rendering:auto;shape-rendering:auto;text-rendering:auto;enable-background:accumulate"
       d="m 483.51781,683.59738 c 0,0 -7.68728,12.87084 -13.47379,28.63091 -2.89324,7.88 -5.32711,16.49954 -6.07613,24.74011 -0.74902,8.24054 0.17238,16.2121 4.41499,22.48092 l 4.16395,-2.82025 c -3.30725,-4.88661 -4.25377,-11.64312 -3.56595,-19.21031 0.68782,-7.56724 2.99066,-15.83617 5.7882,-23.4555 1.46522,-3.99067 2.97085,-6.82488 4.52573,-10.26963 -0.43519,2.91229 -1.05905,5.06545 -1.28464,8.35008 -1.07188,15.60672 0.92222,34.8046 13.91678,48.23992 l 3.6176,-3.49954 c -11.49042,-11.88013 -13.52931,-29.50293 -12.50661,-44.3934 1.02268,-14.89044 5.02039,-26.69659 5.02039,-26.69659 z"
       id="path60719"
       inkscape:connector-curvature="0" />
    <path
       style="color:#000000;font-style:normal;font-variant:normal;font-weight:normal;font-stretch:normal;font-size:medium;line-height:normal;font-family:sans-serif;font-variant-ligatures:normal;font-variant-position:normal;font-variant-caps:normal;font-variant-numeric:normal;font-variant-alternates:normal;font-feature-settings:normal;text-indent:0;text-align:start;text-decoration:none;text-decoration-line:none;text-decoration-style:solid;text-decoration-color:#000000;letter-spacing:normal;word-spacing:normal;text-transform:none;writing-mode:lr-tb;direction:ltr;text-orientation:mixed;dominant-baseline:auto;baseline-shift:baseline;text-anchor:start;white-space:normal;shape-padding:0;clip-rule:nonzero;display:inline;overflow:visible;visibility:visible;opacity:1;isolation:auto;mix-blend-mode:normal;color-interpolation:sRGB;color-interpolation-filters:linearRGB;solid-color:#000000;solid-opacity:1;vector-effect:none;fill:#000000;fill-opacity:1;fill-rule:nonzero;stroke:none;stroke-width:5.03330278;stroke-linecap:butt;stroke-linejoin:miter;stroke-miterlimit:4;stroke-dasharray:none;stroke-dashoffset:0;stroke-opacity:1;color-rendering:auto;image-rendering:auto;shape-rendering:auto;text-rendering:auto;enable-background:accumulate"
       d="m 468.47148,599.95643 c -1.72842,13.14363 2.18811,31.69036 6.40094,47.23584 4.21287,15.54545 8.82997,27.98857 8.82997,27.98857 l 4.82104,-1.4101 c 0,0 -2.28743,-10.64138 -1.86047,-24.02398 0.42692,-13.38266 3.63285,-29.22204 14.09395,-39.68313 l -3.55857,-3.55858 c -11.87151,11.87154 -15.11517,29.04373 -15.56314,43.08665 -0.034,1.06647 0.1289,1.68693 0.12549,2.71691 -0.94871,-3.12205 -1.0623,-2.85862 -2.03031,-6.4305 -4.14712,-15.30299 -7.77974,-33.76903 -6.26806,-45.2646 z"
       id="path60719-5"
       inkscape:connector-curvature="0" />
    <path
       inkscape:connector-curvature="0"
       id="path59-1-8-3-29-8"
       d="m 536.39648,392.53497 c -25.97105,-0.93398 -53.13245,9.51351 -85.02941,33.07341 l 11.44568,15.49687 c 29.91348,-22.09456 52.50051,-30.05009 72.88997,-29.31691 20.38941,0.73345 40.0489,10.36807 63.52831,27.21071 l 11.22906,-15.65268 c -24.77814,-17.77374 -48.09118,-29.87743 -74.06361,-30.8114 z"
       style="color:#000000;font-style:normal;font-variant:normal;font-weight:normal;font-stretch:normal;font-size:medium;line-height:normal;font-family:sans-serif;font-variant-ligatures:normal;font-variant-position:normal;font-variant-caps:normal;font-variant-numeric:normal;font-variant-alternates:normal;font-feature-settings:normal;text-indent:0;text-align:start;text-decoration:none;text-decoration-line:none;text-decoration-style:solid;text-decoration-color:#000000;letter-spacing:normal;word-spacing:normal;text-transform:none;writing-mode:lr-tb;direction:ltr;text-orientation:mixed;dominant-baseline:auto;baseline-shift:baseline;text-anchor:start;white-space:normal;shape-padding:0;clip-rule:nonzero;display:inline;overflow:visible;visibility:visible;opacity:1;isolation:auto;mix-blend-mode:normal;color-interpolation:sRGB;color-interpolation-filters:linearRGB;solid-color:#000000;solid-opacity:1;vector-effect:none;fill:#000000;fill-opacity:1;fill-rule:nonzero;stroke:none;stroke-width:19.26525879;stroke-linecap:butt;stroke-linejoin:miter;stroke-miterlimit:4;stroke-dasharray:none;stroke-dashoffset:0;stroke-opacity:1;color-rendering:auto;image-rendering:auto;shape-rendering:auto;text-rendering:auto;enable-background:accumulate" />
    <path
       inkscape:connector-curvature="0"
       id="path29-2-7-1"
       d="m 797.59277,784.13947 c -73.3401,-72.19872 -136.47381,-75.06408 -184.65661,-59.8458 -24.09198,7.60928 -44.41048,20.12369 -59.51368,31.6203 -15.1031,11.49652 -24.56145,21.52998 -28.51932,25.45144 l -13.55819,-13.68763 c 3.05,-3.02216 14.05467,-14.64478 30.4075,-27.093 16.35408,-12.4483 38.48972,-26.16799 65.38287,-34.66191 53.7863,-16.9881 126.7549,-11.53028 203.973,64.48772 z"
       style="color:#000000;font-style:normal;font-variant:normal;font-weight:normal;font-stretch:normal;font-size:medium;line-height:normal;font-family:sans-serif;font-variant-ligatures:normal;font-variant-position:normal;font-variant-caps:normal;font-variant-numeric:normal;font-variant-alternates:normal;font-feature-settings:normal;text-indent:0;text-align:start;text-decoration:none;text-decoration-line:none;text-decoration-style:solid;text-decoration-color:#000000;letter-spacing:normal;word-spacing:normal;text-transform:none;writing-mode:lr-tb;direction:ltr;text-orientation:mixed;dominant-baseline:auto;baseline-shift:baseline;text-anchor:start;white-space:normal;shape-padding:0;clip-rule:nonzero;display:inline;overflow:visible;visibility:visible;opacity:1;isolation:auto;mix-blend-mode:normal;color-interpolation:sRGB;color-interpolation-filters:linearRGB;solid-color:#000000;solid-opacity:1;vector-effect:none;fill:#000000;fill-opacity:1;fill-rule:nonzero;stroke:none;stroke-width:19.26525879;stroke-linecap:butt;stroke-linejoin:miter;stroke-miterlimit:4;stroke-dasharray:none;stroke-dashoffset:0;stroke-opacity:1;color-rendering:auto;image-rendering:auto;shape-rendering:auto;text-rendering:auto;enable-background:accumulate" />
    <path
       inkscape:connector-curvature="0"
       id="path1039-2-2-0"
       d="m 613.34501,268.42511 10.89631,21.28022 c 0,0 -48.21754,24.68581 -96.90206,49.37913 -24.34222,12.34666 -48.79789,24.69561 -67.4347,33.9765 -9.31901,4.64039 -17.17558,8.51108 -22.89263,11.25789 -2.85915,1.37336 -5.17024,2.45896 -6.96029,3.26229 -0.895,0.40163 -1.64171,0.72868 -2.40905,1.03252 -0.38312,0.15196 -0.75579,0.29749 -1.3206,0.47966 -0.5649,0.18182 -0.51847,0.64422 -3.96834,0.64422 v -23.90705 c -3.33759,0 -3.08349,0.41629 -3.35434,0.50312 -0.26951,0.0862 -0.25817,0.0904 -0.17009,0.0555 0.17576,-0.0696 0.71699,-0.29636 1.43278,-0.61781 1.43279,-0.64277 3.63554,-1.67759 6.39539,-3.00332 5.5197,-2.65193 13.3221,-6.49344 22.58956,-11.10794 18.53361,-9.2291 42.96357,-21.56094 67.27865,-33.89403 48.63031,-24.66646 96.81952,-49.34101 96.81952,-49.34101 z"
       style="color:#000000;font-style:normal;font-variant:normal;font-weight:normal;font-stretch:normal;font-size:medium;line-height:normal;font-family:sans-serif;font-variant-ligatures:normal;font-variant-position:normal;font-variant-caps:normal;font-variant-numeric:normal;font-variant-alternates:normal;font-feature-settings:normal;text-indent:0;text-align:start;text-decoration:none;text-decoration-line:none;text-decoration-style:solid;text-decoration-color:#000000;letter-spacing:normal;word-spacing:normal;text-transform:none;writing-mode:lr-tb;direction:ltr;text-orientation:mixed;dominant-baseline:auto;baseline-shift:baseline;text-anchor:start;white-space:normal;shape-padding:0;clip-rule:nonzero;display:inline;overflow:visible;visibility:visible;opacity:1;isolation:auto;mix-blend-mode:normal;color-interpolation:sRGB;color-interpolation-filters:linearRGB;solid-color:#000000;solid-opacity:1;vector-effect:none;fill:#000000;fill-opacity:1;fill-rule:nonzero;stroke:none;stroke-width:23.90673637;stroke-linecap:butt;stroke-linejoin:miter;stroke-miterlimit:4;stroke-dasharray:none;stroke-dashoffset:0;stroke-opacity:1;color-rendering:auto;image-rendering:auto;shape-rendering:auto;text-rendering:auto;enable-background:accumulate" />
    <path
       inkscape:connector-curvature="0"
       id="path59-1-8-3-29-8-3"
       d="m 784.81613,392.53497 c 25.97108,-0.93398 53.13247,9.51351 85.02953,33.07341 l -11.44572,15.49687 c -29.91355,-22.09456 -52.50052,-30.05009 -72.88997,-29.31691 -20.38943,0.73345 -40.04893,10.36807 -63.52835,27.21071 L 710.7526,423.34637 c 24.7781,-17.77374 48.09125,-29.87743 74.06353,-30.8114 z"
       style="color:#000000;font-style:normal;font-variant:normal;font-weight:normal;font-stretch:normal;font-size:medium;line-height:normal;font-family:sans-serif;font-variant-ligatures:normal;font-variant-position:normal;font-variant-caps:normal;font-variant-numeric:normal;font-variant-alternates:normal;font-feature-settings:normal;text-indent:0;text-align:start;text-decoration:none;text-decoration-line:none;text-decoration-style:solid;text-decoration-color:#000000;letter-spacing:normal;word-spacing:normal;text-transform:none;writing-mode:lr-tb;direction:ltr;text-orientation:mixed;dominant-baseline:auto;baseline-shift:baseline;text-anchor:start;white-space:normal;shape-padding:0;clip-rule:nonzero;display:inline;overflow:visible;visibility:visible;opacity:1;isolation:auto;mix-blend-mode:normal;color-interpolation:sRGB;color-interpolation-filters:linearRGB;solid-color:#000000;solid-opacity:1;vector-effect:none;fill:#000000;fill-opacity:1;fill-rule:nonzero;stroke:none;stroke-width:19.26525879;stroke-linecap:butt;stroke-linejoin:miter;stroke-miterlimit:4;stroke-dasharray:none;stroke-dashoffset:0;stroke-opacity:1;color-rendering:auto;image-rendering:auto;shape-rendering:auto;text-rendering:auto;enable-background:accumulate" />
    <path
       inkscape:connector-curvature="0"
       id="path1039-2-2-0-35"
       d="m 707.86764,268.42511 -10.89625,21.28022 c 0,0 48.21752,24.68581 96.90197,49.37913 24.34225,12.34666 48.79795,24.69561 67.4348,33.9765 9.31898,4.64039 17.17555,8.51108 22.89253,11.25789 2.85923,1.37336 5.17028,2.45896 6.96035,3.26229 0.89496,0.40163 1.64171,0.72868 2.40902,1.03252 0.38315,0.15196 0.75579,0.29749 1.32064,0.47966 0.56482,0.18182 0.51845,0.64422 3.96826,0.64422 v -23.90705 c 3.3376,0 3.08362,0.41629 3.35437,0.50312 0.26953,0.0862 0.25818,0.0904 0.17011,0.0555 -0.17577,-0.0696 -0.717,-0.29636 -1.43275,-0.61781 -1.43287,-0.64277 -3.63562,-1.67759 -6.39547,-3.00332 -5.51967,-2.65193 -13.32209,-6.49344 -22.58956,-11.10794 -18.53361,-9.2291 -42.96353,-21.56094 -67.27869,-33.89403 C 756.05674,293.09955 707.86749,268.425 707.86749,268.425 Z"
       style="color:#000000;font-style:normal;font-variant:normal;font-weight:normal;font-stretch:normal;font-size:medium;line-height:normal;font-family:sans-serif;font-variant-ligatures:normal;font-variant-position:normal;font-variant-caps:normal;font-variant-numeric:normal;font-variant-alternates:normal;font-feature-settings:normal;text-indent:0;text-align:start;text-decoration:none;text-decoration-line:none;text-decoration-style:solid;text-decoration-color:#000000;letter-spacing:normal;word-spacing:normal;text-transform:none;writing-mode:lr-tb;direction:ltr;text-orientation:mixed;dominant-baseline:auto;baseline-shift:baseline;text-anchor:start;white-space:normal;shape-padding:0;clip-rule:nonzero;display:inline;overflow:visible;visibility:visible;opacity:1;isolation:auto;mix-blend-mode:normal;color-interpolation:sRGB;color-interpolation-filters:linearRGB;solid-color:#000000;solid-opacity:1;vector-effect:none;fill:#000000;fill-opacity:1;fill-rule:nonzero;stroke:none;stroke-width:23.90673637;stroke-linecap:butt;stroke-linejoin:miter;stroke-miterlimit:4;stroke-dasharray:none;stroke-dashoffset:0;stroke-opacity:1;color-rendering:auto;image-rendering:auto;shape-rendering:auto;text-rendering:auto;enable-background:accumulate" />
  </g>
</svg>
