<?xml version="1.0" encoding="UTF-8" standalone="no"?>
<!-- Created with Inkscape (http://www.inkscape.org/) -->

<svg
   xmlns:dc="http://purl.org/dc/elements/1.1/"
   xmlns:cc="http://creativecommons.org/ns#"
   xmlns:rdf="http://www.w3.org/1999/02/22-rdf-syntax-ns#"
   xmlns:svg="http://www.w3.org/2000/svg"
   xmlns="http://www.w3.org/2000/svg"
   xmlns:sodipodi="http://sodipodi.sourceforge.net/DTD/sodipodi-0.dtd"
   xmlns:inkscape="http://www.inkscape.org/namespaces/inkscape"
   width="1000"
   height="1000"
   viewBox="0 0 1000 1000"
   version="1.1"
   id="svg54401"
   inkscape:version="0.92.4 (5da689c313, 2019-01-14)"
   sodipodi:docname="Tornar.svg">
  <defs
     id="defs54395" />
  <sodipodi:namedview
     id="base"
     pagecolor="#ffffff"
     bordercolor="#666666"
     borderopacity="1.0"
     inkscape:pageopacity="0.0"
     inkscape:pageshadow="2"
     inkscape:zoom="1"
     inkscape:cx="571.23512"
     inkscape:cy="704.34595"
     inkscape:document-units="px"
     inkscape:current-layer="layer1"
     showgrid="false"
     units="px"
     inkscape:window-width="681"
     inkscape:window-height="706"
     inkscape:window-x="-7"
     inkscape:window-y="0"
     inkscape:window-maximized="0"
     showguides="false" />
  <metadata
     id="metadata54398">
    <rdf:RDF>
      <cc:Work
         rdf:about="">
        <dc:format>image/svg+xml</dc:format>
        <dc:type
           rdf:resource="http://purl.org/dc/dcmitype/StillImage" />
        <dc:title></dc:title>
      </cc:Work>
    </rdf:RDF>
  </metadata>
  <g
     inkscape:label="Camada 1"
     inkscape:groupmode="layer"
     id="layer1"
     transform="translate(0,-32.41665)">
    <path
       style="color:#000000;font-style:normal;font-variant:normal;font-weight:normal;font-stretch:normal;font-size:medium;line-height:normal;font-family:sans-serif;font-variant-ligatures:normal;font-variant-position:normal;font-variant-caps:normal;font-variant-numeric:normal;font-variant-alternates:normal;font-feature-settings:normal;text-indent:0;text-align:start;text-decoration:none;text-decoration-line:none;text-decoration-style:solid;text-decoration-color:#000000;letter-spacing:normal;word-spacing:normal;text-transform:none;writing-mode:lr-tb;direction:ltr;text-orientation:mixed;dominant-baseline:auto;baseline-shift:baseline;text-anchor:start;white-space:normal;shape-padding:0;clip-rule:nonzero;display:inline;overflow:visible;visibility:visible;opacity:1;isolation:auto;mix-blend-mode:normal;color-interpolation:sRGB;color-interpolation-filters:linearRGB;solid-color:#000000;solid-opacity:1;vector-effect:none;fill:#000000;fill-opacity:1;fill-rule:nonzero;stroke:none;stroke-width:22.38819504;stroke-linecap:butt;stroke-linejoin:miter;stroke-miterlimit:4;stroke-dasharray:none;stroke-dashoffset:0;stroke-opacity:1;color-rendering:auto;image-rendering:auto;shape-rendering:auto;text-rendering:auto;enable-background:accumulate"
       d="m 515.78516,32.617188 c -86.27551,-0.02531 -145.54458,34.613143 -179.63477,86.433592 -34.09307,51.82484 -43.60562,119.49543 -36.1543,186.48047 7.45133,66.98504 31.89985,133.58032 67.99414,184.1543 36.0943,50.57397 84.68976,85.80582 139.96289,85.47656 55.24714,-0.32913 103.44702,-35.93113 139.32813,-86.67578 35.88111,-50.74465 60.2828,-117.31221 68.38672,-184.13086 8.10391,-66.81865 -0.0143,-134.13433 -31.49805,-185.75391 C 652.68931,66.987056 596.90703,32.325392 515.78516,32.617188 Z m 0.0137,22.386718 h 0.0215 0.0234 c 74.92224,-0.275817 121.39194,29.641595 149.21289,75.255864 27.82096,45.61426 36.05149,108.18649 28.38477,171.40039 -7.66673,63.21389 -31.15369,126.82343 -64.44141,173.90039 -33.28772,47.07696 -75.5369,76.94098 -121.17969,77.21289 -45.61667,0.27174 -88.16266,-29.2322 -121.60742,-76.09375 -33.44476,-46.86155 -56.93239,-110.4036 -63.96484,-173.62305 -7.03245,-63.21945 2.42447,-125.82011 32.60742,-171.70117 30.18295,-45.881063 80.49039,-76.380635 160.94336,-76.351564 z"
       id="path10-9"
       inkscape:connector-curvature="0" />
    <path
       style="color:#000000;font-style:normal;font-variant:normal;font-weight:normal;font-stretch:normal;font-size:medium;line-height:normal;font-family:sans-serif;font-variant-ligatures:normal;font-variant-position:normal;font-variant-caps:normal;font-variant-numeric:normal;font-variant-alternates:normal;font-feature-settings:normal;text-indent:0;text-align:start;text-decoration:none;text-decoration-line:none;text-decoration-style:solid;text-decoration-color:#000000;letter-spacing:normal;word-spacing:normal;text-transform:none;writing-mode:lr-tb;direction:ltr;text-orientation:mixed;dominant-baseline:auto;baseline-shift:baseline;text-anchor:start;white-space:normal;shape-padding:0;clip-rule:nonzero;display:inline;overflow:visible;visibility:visible;opacity:1;isolation:auto;mix-blend-mode:normal;color-interpolation:sRGB;color-interpolation-filters:linearRGB;solid-color:#000000;solid-opacity:1;vector-effect:none;fill:#000000;fill-opacity:1;fill-rule:nonzero;stroke:none;stroke-width:11.19409752;stroke-linecap:butt;stroke-linejoin:miter;stroke-miterlimit:4;stroke-dasharray:none;stroke-dashoffset:0;stroke-opacity:1;color-rendering:auto;image-rendering:auto;shape-rendering:auto;text-rendering:auto;enable-background:accumulate"
       d="m 503.80859,302.25 c 0,0 -1.26309,12.46104 -3.35156,25.54883 -1.04423,6.54389 -2.30259,13.24458 -3.6543,18.45117 -0.67585,2.6033 -1.38355,4.83932 -2.01757,6.38086 -0.63403,1.54154 -1.45336,2.34752 -0.86524,1.85742 -1.2387,1.03225 -2.55012,1.89389 -3.23633,4.63867 -0.3431,1.37239 -0.1456,3.41609 0.73047,4.84375 0.87607,1.42766 2.0137,2.12594 2.875,2.53125 3.4452,1.62125 5.21416,0.99945 7.55664,0.83789 4.68496,-0.32311 9.75977,-1.36718 9.75977,-1.36718 l -2.19531,-10.97657 c 0,0 -2.39263,0.30339 -3.83985,0.54102 0.74219,-1.99006 1.44351,-4.06777 2.06836,-6.47461 1.51057,-5.81849 2.79708,-12.75725 3.87305,-19.5 2.15193,-13.4855 3.43359,-26.18555 3.43359,-26.18555 z"
       id="path971"
       inkscape:connector-curvature="0" />
    <path
       style="color:#000000;font-style:normal;font-variant:normal;font-weight:normal;font-stretch:normal;font-size:medium;line-height:normal;font-family:sans-serif;font-variant-ligatures:normal;font-variant-position:normal;font-variant-caps:normal;font-variant-numeric:normal;font-variant-alternates:normal;font-feature-settings:normal;text-indent:0;text-align:start;text-decoration:none;text-decoration-line:none;text-decoration-style:solid;text-decoration-color:#000000;letter-spacing:normal;word-spacing:normal;text-transform:none;writing-mode:lr-tb;direction:ltr;text-orientation:mixed;dominant-baseline:auto;baseline-shift:baseline;text-anchor:start;white-space:normal;shape-padding:0;clip-rule:nonzero;display:inline;overflow:visible;visibility:visible;opacity:1;isolation:auto;mix-blend-mode:normal;color-interpolation:sRGB;color-interpolation-filters:linearRGB;solid-color:#000000;solid-opacity:1;vector-effect:none;fill:#000000;fill-opacity:1;fill-rule:nonzero;stroke:none;stroke-width:11.35405922;stroke-linecap:butt;stroke-linejoin:miter;stroke-miterlimit:4;stroke-dasharray:none;stroke-dashoffset:0;stroke-opacity:1;color-rendering:auto;image-rendering:auto;shape-rendering:auto;text-rendering:auto;enable-background:accumulate"
       d="m 641.69336,754.49805 c -3.34929,0.14356 -6.51674,0.71571 -9.39258,1.57422 -5.75167,1.71701 -10.46562,4.36746 -13.83594,6.68164 -0.46522,0.31944 -0.70014,0.55708 -1.11328,0.86132 -14.4794,-13.13663 -33.2539,-7.0957 -33.2539,-7.0957 l -0.39258,0.13867 -0.36719,0.19336 c -18.75823,9.91811 -27.3146,29.41774 -31.38477,45.79883 -3.84872,15.48985 -3.7326,28.04814 -3.71289,29.46289 -2.38818,6.49381 -4.21251,15.38938 -5.61523,23.3457 -0.95734,5.43013 -1.16255,7.20435 -1.55469,9.94922 -0.33877,-0.0633 -0.23433,-0.0129 -0.58789,-0.0996 -2.55811,-0.62745 -5.69506,-1.62037 -8.67578,-2.66015 -5.68163,-1.98197 -10.28598,-3.9182 -10.75195,-4.11328 -45.06958,-36.2221 -97.28907,-16.32618 -97.28907,-16.32618 l -0.2832,0.10938 -0.26953,0.13867 c -7.74716,3.97552 -12.78184,7.89787 -15.94336,12.12109 -3.16152,4.22323 -4.18853,9.00215 -3.49414,12.89844 1.38878,7.79259 7.81641,11.53125 7.81641,11.53125 l 1.79687,1.18555 2.13086,-0.30469 c 16.41568,-2.34509 38.33197,5.58417 55.74609,14.61719 16.79659,8.71269 28.78166,17.63208 29.6504,18.28125 1.05883,1.5744 2.25684,2.85742 3.77539,4.25586 2.06804,1.90447 4.61213,3.95895 7.51367,6.1582 5.80308,4.39852 13.017,9.34011 20.09961,14.01367 14.16521,9.34713 27.80859,17.60743 27.80859,17.60743 l 0.32617,0.19921 0.34961,0.15235 c 30.21645,13.14041 43.11036,32.09447 48.95899,47.84956 5.84863,15.7552 4.39843,27.877 4.39843,27.877 l 11.27735,1.3184 c 0,0 1.71928,-14.9618 -5.03125,-33.14652 -6.70935,-18.07376 -22.07181,-39.74315 -54.51172,-54.03321 -0.11105,-0.0673 -13.44527,-8.14384 -27.32227,-17.30078 -6.96732,-4.59749 -14.04295,-9.45415 -19.49414,-13.58594 -2.72559,-2.06589 -5.04904,-3.95747 -6.68164,-5.46093 -1.63259,-1.50346 -2.55253,-2.9816 -2.27148,-2.36329 l -0.59766,-1.31445 -1.15429,-0.86914 c 0,0 -13.53328,-10.20768 -31.86524,-19.7168 -4.80299,-2.49139 -8.04584,-4.79447 -13.39062,-7.03711 0.19145,-1.5056 0.31152,-2.62053 0.54296,-3.85156 0.19267,-1.00629 0.44811,-2.03205 0.6836,-2.70703 0.23549,-0.67498 0.63839,-0.95408 -0.041,-0.30469 l 5.75196,-5.5 -7.07227,-3.64843 c 0,0 -6.89124,-3.62627 -15.16797,-5.20313 -4.13836,-0.78843 -8.74795,-1.14971 -13.38672,0.10742 -4.63876,1.25714 -10.34392,5.842 -12.18536,12.0139 0,0 -2.3366,-0.12727 -5.46893,0.1482 -0.76315,-0.80848 -1.61085,-1.86233 -1.80665,-2.96093 -0.16581,-0.93039 -0.23695,-1.9111 1.4043,-4.10352 1.61366,-2.15556 5.20917,-5.2482 11.77149,-8.6582 0.83378,-0.31908 46.58269,-17.6345 86.58984,15.22851 l 0.63867,0.52539 0.76367,0.32032 c 0,0 5.57725,2.35084 11.94532,4.57226 3.18403,1.11071 6.57023,2.19644 9.71093,2.9668 0.61095,0.14985 1.15331,0.23853 1.72852,0.37695 -0.5502,3.15037 -1.29872,5.98323 -2.14648,9.41016 -1.28397,5.19019 -2.06142,11.84221 -0.25977,22.16992 l 11.18359,-1.95117 c -1.58822,-9.10428 -0.95837,-13.22341 0.0977,-17.49219 1.02619,-4.14818 2.81676,-8.98073 3.0957,-16.50586 1.1e-4,-0.003 0.002,-0.005 0.002,-0.008 0,0 0.89407,-6.77222 2.32812,-14.90625 1.43405,-8.13403 3.54733,-17.81247 5.34961,-22.35742 l 0.42187,-1.06641 -0.0234,-1.14844 c 0,0 -0.25369,-12.69153 3.41797,-27.46875 3.642,-14.65786 11.07008,-30.5491 25.34375,-38.28906 1.14593,-0.42618 13.25196,-4.46812 23.14062,6.77344 0.89589,12.70976 2.90295,20.3337 -1.28125,34.08789 l 10.86328,3.30468 c 4.77946,-15.71088 2.66916,-25.72584 1.78321,-37.55664 0.59156,-0.48512 1.14908,-0.96315 2.07031,-1.5957 2.60327,-1.7875 6.37224,-3.88127 10.65625,-5.16016 8.1996,-2.44778 17.81369,-2.54286 28.375,8.08204 0.42758,10.65399 1.49872,19.87501 -2.62891,29.43359 l 10.42383,4.50195 c 5.75379,-13.32434 3.84284,-25.47546 3.50586,-36.07812 0.0339,-0.0612 0.0983,-0.20865 0.38477,-0.51758 0.65331,-0.70467 1.99518,-1.74687 3.77734,-2.6875 3.56431,-1.88125 8.8351,-3.40278 14,-3.49805 5.1649,-0.0953 10.09555,1.13802 13.9414,4.18555 3.83404,3.03816 7.00588,8.01013 8.16407,16.98828 0.005,0.0477 0.33395,3.21542 0.0976,7.55469 -0.23806,4.3718 -1.20405,9.66566 -3.03125,12.91406 l 9.89649,5.56641 c 3.33394,-5.92709 4.18505,-12.58174 4.47265,-17.86328 0.10118,-1.85804 0.0517,-3.25943 0.0254,-4.70118 0.65424,-0.0244 1.05848,-0.12801 1.91993,-0.041 3.41244,0.34462 8.07391,1.72694 12.61718,4.92187 9.08656,6.38988 18.50062,20.02777 17.52539,49.90039 l -0.0742,2.29688 1.54297,1.70312 c 0,0 11.4446,12.4638 13.45703,35.59961 6e-5,6.8e-4 -6e-5,10e-4 0,0.002 0.004,0.0548 1.44969,18.07349 0.42578,38.38672 -0.51274,10.17205 -1.66018,20.88057 -3.82617,29.93945 -2.166,9.05888 -5.51987,16.32412 -9.17383,19.7832 l -1.01563,0.96094 -0.45312,1.32227 c 0,0 -9.90027,28.11856 -6.15235,55.53326 l 11.24805,-1.5371 c -3.0815,-22.5401 4.66458,-47.20258 5.40039,-49.48249 5.64432,-6.0872 8.93905,-14.52757 11.18945,-23.93946 2.42125,-10.12642 3.58825,-21.3979 4.12305,-32.00781 1.06961,-21.21981 -0.45117,-39.9082 -0.45117,-39.9082 l -0.002,-0.0176 v -0.0176 c -1.93948,-22.30391 -11.67589,-36.25955 -14.91797,-40.39648 0.49446,-31.06485 -10.12702,-48.83967 -22.31446,-57.41016 -6.23931,-4.38763 -12.66693,-6.39031 -18.00781,-6.92969 -1.64912,-0.16654 -3.16028,-0.15093 -4.61328,-0.0469 -2.12907,-7.90843 -5.98307,-13.98012 -11.02148,-17.97266 -6.36316,-5.04228 -14.07016,-6.77215 -21.20118,-6.64062 -7.13101,0.13153 -13.81414,2.02499 -19.09179,4.81054 -2.17433,1.14762 -4.04636,2.50236 -5.70703,4.04688 -8.86819,-7.23168 -18.339,-9.55307 -26.68555,-9.19531 z M 441.15234,866.84766 c 1.42102,0.0191 2.96782,0.18409 4.52344,0.48046 2.71298,0.51688 5.18435,1.39542 7.30469,2.19336 -0.1512,0.62655 -0.3733,1.29248 -0.48633,1.88282 -0.24527,1.28105 -0.22145,1.48363 -0.33398,2.39258 -5.86745,-2.03405 -11.87461,-3.6214 -17.90235,-4.60547 0.81235,-0.93239 1.73725,-1.57509 3.125,-1.95118 1.05347,-0.28549 2.34852,-0.41164 3.76953,-0.39257 z"
       id="path4477-1-8"
       inkscape:connector-curvature="0"
       sodipodi:nodetypes="cccccccsccccccccccscccscscsccccccscsscccccccscccscccccccccsccccccccscccscccccsccccccccccccccccscccccscccccccssccccscccscccccccccccc" />
    <path
       style="color:#000000;font-style:normal;font-variant:normal;font-weight:normal;font-stretch:normal;font-size:medium;line-height:normal;font-family:sans-serif;font-variant-ligatures:normal;font-variant-position:normal;font-variant-caps:normal;font-variant-numeric:normal;font-variant-alternates:normal;font-feature-settings:normal;text-indent:0;text-align:start;text-decoration:none;text-decoration-line:none;text-decoration-style:solid;text-decoration-color:#000000;letter-spacing:normal;word-spacing:normal;text-transform:none;writing-mode:lr-tb;direction:ltr;text-orientation:mixed;dominant-baseline:auto;baseline-shift:baseline;text-anchor:start;white-space:normal;shape-padding:0;clip-rule:nonzero;display:inline;overflow:visible;visibility:visible;opacity:1;isolation:auto;mix-blend-mode:normal;color-interpolation:sRGB;color-interpolation-filters:linearRGB;solid-color:#000000;solid-opacity:1;vector-effect:none;fill:#000000;fill-opacity:1;fill-rule:nonzero;stroke:none;stroke-width:11.35405922;stroke-linecap:butt;stroke-linejoin:miter;stroke-miterlimit:4;stroke-dasharray:none;stroke-dashoffset:0;stroke-opacity:1;color-rendering:auto;image-rendering:auto;shape-rendering:auto;text-rendering:auto;enable-background:accumulate"
       d="m 322.11133,519.25586 c -8.34583,-0.35773 -17.81412,1.96311 -26.68164,9.19336 -1.66091,-1.54496 -3.53614,-2.89706 -5.71094,-4.04492 -5.27765,-2.78556 -11.95882,-4.67902 -19.08984,-4.81055 -7.13102,-0.13153 -14.83997,1.5964 -21.20313,6.63867 -5.03843,3.99254 -8.89242,10.06615 -11.02148,17.97461 -1.45242,-0.10388 -2.96296,-0.1196 -4.61133,0.0469 -5.34087,0.53938 -11.76851,2.54206 -18.00781,6.92968 -12.18722,8.57035 -22.81046,26.34439 -22.31641,57.40821 -3.24074,4.1348 -12.97629,18.09171 -14.91602,40.39843 l -0.002,0.0176 -0.002,0.0156 c 0,0 -1.51884,18.68838 -0.44922,39.9082 0.53481,10.60991 1.7018,21.88334 4.12305,32.00977 2.25078,9.41348 5.54334,17.85596 11.18945,23.94336 0.73864,2.289 8.4793,26.94311 5.39844,49.47851 l 11.25,1.53711 c 3.74792,-27.41471 -6.1543,-55.5332 -6.1543,-55.5332 l -0.45313,-1.32227 -1.01367,-0.96094 c -3.65396,-3.45907 -7.00783,-10.72432 -9.17383,-19.7832 -2.16599,-9.05888 -3.31343,-19.76739 -3.82617,-29.93945 -1.02495,-20.33385 0.42627,-38.39193 0.42774,-38.41016 v -0.0117 c 2.02094,-23.11329 13.45312,-35.5664 13.45312,-35.5664 l 1.54492,-1.70313 -0.0742,-2.29687 c -0.97522,-29.87262 8.43884,-43.51247 17.52539,-49.90235 4.54327,-3.19493 9.20474,-4.57529 12.61718,-4.91992 0.86145,-0.087 1.26569,0.0166 1.91993,0.041 -0.0263,1.44175 -0.0758,2.84314 0.0254,4.70117 0.28761,5.28154 1.13871,11.93619 4.47265,17.86328 l 9.89453,-5.56641 c -1.8272,-3.2484 -2.79122,-8.54226 -3.02929,-12.91406 -0.236,-4.33366 0.09,-7.48906 0.0957,-7.54492 1.15702,-8.98505 4.33042,-13.95866 8.16602,-16.99805 3.84586,-3.04752 8.77455,-4.28276 13.93945,-4.1875 5.1649,0.0953 10.43764,1.61875 14.00195,3.5 1.78216,0.94063 3.12403,1.98283 3.77735,2.6875 0.28519,0.30762 0.3484,0.45345 0.38281,0.51563 -0.33696,10.60267 -2.24597,22.75569 3.50781,36.08008 l 10.42188,-4.50196 c -4.12763,-9.55859 -3.05452,-18.77958 -2.62696,-29.43359 10.56114,-10.62454 20.17555,-10.52979 28.375,-8.08203 4.28398,1.27888 8.053,3.37265 10.65625,5.16015 0.9211,0.63247 1.47879,1.10867 2.07032,1.59375 -0.88594,11.83093 -2.99628,21.84563 1.7832,37.55664 l 10.86133,-3.30468 c -4.18419,-13.7542 -2.17518,-21.37619 -1.2793,-34.08594 9.89228,-11.24546 22.00476,-7.19686 23.14258,-6.77344 14.27264,7.74028 21.69993,23.63174 25.34179,38.28906 3.67166,14.77723 3.41797,27.46875 3.41797,27.46875 l -0.0254,1.14844 0.42383,1.06641 c 1.80228,4.54495 3.91556,14.22339 5.34961,22.35742 1.43405,8.13403 2.32813,14.90625 2.32812,14.90625 l 0.002,0.01 c 0.27944,7.52285 2.06969,12.3545 3.0957,16.50195 1.05602,4.26878 1.68392,8.38986 0.0957,17.49414 l 11.18555,1.95117 c 1.80164,-10.32771 1.0242,-16.98168 -0.25976,-22.17187 -0.84778,-3.42698 -1.59824,-6.25777 -2.14844,-9.40821 0.5758,-0.13854 1.11886,-0.22693 1.73047,-0.37695 3.1407,-0.77036 6.5269,-1.85609 9.71093,-2.9668 6.36807,-2.22141 11.94532,-4.57226 11.94532,-4.57226 l 0.76172,-0.32031 0.63867,-0.5254 c 40.01015,-32.86548 85.76472,-15.5431 86.59179,-15.22656 6.56158,3.40977 10.15597,6.50081 11.76954,8.65625 1.64125,2.19243 1.5701,3.17313 1.40429,4.10352 -0.19569,1.09805 -1.04367,2.1505 -1.80664,2.95898 -3.20485,-0.58469 -17.30023,0.62299 -5.68795,0.0305 -2.06241,-6.17191 -7.32563,-10.93549 -11.96439,-12.19263 -4.63877,-1.25713 -9.25031,-0.89585 -13.38867,-0.10742 -8.27674,1.57686 -15.16797,5.20313 -15.16797,5.20313 l -7.07227,3.65039 5.75391,5.5 c -0.67938,-0.64938 -0.27651,-0.3703 -0.041,0.30468 0.23549,0.67499 0.49093,1.70074 0.6836,2.70704 0.38534,2.01258 0.54296,3.85156 0.54296,3.85156 -5.0052,2.08153 -9.56948,5.03585 -13.39062,7.03515 -18.33196,9.50912 -31.86523,19.7168 -31.86523,19.7168 l -1.1543,0.87109 -0.59766,1.31446 c 0.28105,-0.61831 -0.63889,0.85787 -2.27148,2.36133 -1.6326,1.50345 -3.95605,3.39699 -6.68164,5.46289 -5.45119,4.13178 -12.52682,8.98844 -19.49414,13.58593 -13.87327,9.15448 -27.19823,17.22528 -27.31641,17.29688 -32.4438,14.29004 -47.80784,35.96225 -54.51758,54.03711 -6.75051,18.18472 -5.0332,33.14648 -5.0332,33.14648 l 11.27734,-1.31836 c 0,0 -1.44822,-12.12179 4.40039,-27.87695 5.84862,-15.75516 18.7407,-34.71115 48.95703,-47.85156 l 0.34961,-0.15235 0.32813,-0.19726 c 0,0 13.64142,-8.2603 27.80664,-17.60742 7.08261,-4.67357 14.29652,-9.61516 20.09961,-14.01368 2.90154,-2.19925 5.44758,-4.25373 7.51562,-6.1582 1.51848,-1.39837 2.71659,-2.68158 3.77539,-4.25586 0.87052,-0.6505 12.85319,-9.56925 29.64844,-18.28125 17.41412,-9.03301 39.3304,-16.96228 55.7461,-14.61719 l 2.13281,0.30469 1.79687,-1.18555 c 0,0 6.42569,-3.74061 7.81446,-11.5332 0.69438,-3.89629 -0.33067,-8.67521 -3.49219,-12.89844 -3.16152,-4.22323 -8.1962,-8.14362 -15.94336,-12.11914 l -0.27148,-0.13867 -0.28321,-0.10937 c 0,0 -52.21778,-19.8947 -97.28711,16.32617 -0.46464,0.19453 -5.06946,2.13102 -10.75195,4.11328 -2.98072,1.03978 -6.11767,2.0327 -8.67578,2.66016 -0.35473,0.087 -0.25002,0.0362 -0.58984,0.0996 -0.39211,-2.74472 -0.59529,-4.51848 -1.55274,-9.94922 -1.4027,-7.95626 -3.22707,-16.85191 -5.61523,-23.34571 0.0197,-1.41474 0.13583,-13.97303 -3.71289,-29.46289 -4.07017,-16.38109 -12.6285,-35.88071 -31.38672,-45.79882 l -0.36719,-0.19532 -0.39063,-0.13867 c 0,0 -18.77647,-6.03952 -33.25586,7.09766 -0.41302,-0.30416 -0.6482,-0.54199 -1.11328,-0.86133 -3.37029,-2.31419 -8.08234,-4.96462 -13.83398,-6.68164 -2.87582,-0.85851 -6.04525,-1.43066 -9.39453,-1.57422 z m 200.54101,112.34961 c 1.42101,-0.0191 2.71607,0.10708 3.76954,0.39258 1.38775,0.37609 2.31264,1.01878 3.125,1.95117 -6.02774,0.98407 -12.0349,2.57142 -17.90235,4.60547 -0.11253,-0.90907 -0.0886,-1.11104 -0.33398,-2.39258 -0.11314,-0.59091 -0.33493,-1.25758 -0.48633,-1.88477 2.12033,-0.79793 4.59173,-1.67454 7.30469,-2.1914 1.55562,-0.29638 3.10242,-0.46141 4.52343,-0.48047 z"
       id="path4477-1-8-2"
       inkscape:connector-curvature="0"
       sodipodi:nodetypes="cccssccsccccsscccccccscccccssccccccsccccccccccccccscccsccccccccccccccscccsccccccccccccscsccscccscccsccccscccccccscscccccscccccccccc" />
    <path
       style="color:#000000;font-style:normal;font-variant:normal;font-weight:normal;font-stretch:normal;font-size:medium;line-height:normal;font-family:sans-serif;font-variant-ligatures:normal;font-variant-position:normal;font-variant-caps:normal;font-variant-numeric:normal;font-variant-alternates:normal;font-feature-settings:normal;text-indent:0;text-align:start;text-decoration:none;text-decoration-line:none;text-decoration-style:solid;text-decoration-color:#000000;letter-spacing:normal;word-spacing:normal;text-transform:none;writing-mode:lr-tb;direction:ltr;text-orientation:mixed;dominant-baseline:auto;baseline-shift:baseline;text-anchor:start;white-space:normal;shape-padding:0;clip-rule:nonzero;display:inline;overflow:visible;visibility:visible;opacity:1;isolation:auto;mix-blend-mode:normal;color-interpolation:sRGB;color-interpolation-filters:linearRGB;solid-color:#000000;solid-opacity:1;vector-effect:none;fill:#000000;fill-opacity:1;fill-rule:nonzero;stroke:none;stroke-width:9.03511524;stroke-linecap:butt;stroke-linejoin:miter;stroke-miterlimit:4;stroke-dasharray:none;stroke-dashoffset:0;stroke-opacity:1;color-rendering:auto;image-rendering:auto;shape-rendering:auto;text-rendering:auto;enable-background:accumulate"
       d="m 861.87891,569.05078 -8.29102,3.00586 12.54102,97.13281 -23.07032,-30.41797 -2.85156,7.74414 c -16.79358,45.60377 -20.76468,114.02707 -12.80859,171.72657 3.97804,28.84975 10.93047,54.97869 21.17968,74.33008 10.24922,19.35138 24.43042,32.48046 42.31836,32.48046 11.79895,0 22.21075,-5.83959 30.61524,-15.23632 8.40449,-9.39674 15.12364,-22.36798 20.50976,-37.71094 10.77225,-30.68592 16.14746,-70.98395 16.28516,-111.32031 0.1377,-40.33637 -4.95965,-80.63699 -15.66797,-111.33985 -5.35416,-15.35143 -12.09868,-28.3395 -20.60937,-37.74219 -8.5107,-9.40268 -19.09849,-15.21484 -31.13282,-15.21484 -2.7444,0 -5.2651,0.71227 -8.13281,1.34766 -1.17814,0.26103 -1.30599,0.30323 -2.21875,0.51953 z m 3.26562,21.94531 11.24805,17.66016 3.15625,-0.78711 c 0,0 2.44063,-0.60817 5.16992,-1.21289 2.72929,-0.60472 6.42697,-1.13281 6.17773,-1.13281 9.20215,0 17.12968,4.17255 24.43555,12.24414 7.30587,8.07159 13.68176,20.04788 18.77539,34.65234 10.18727,29.20892 15.29907,68.78993 15.16406,108.33594 -0.135,39.54601 -5.51569,79.13156 -15.77539,108.35742 -5.12984,14.61293 -11.49416,26.60216 -18.71875,34.67969 -7.22459,8.07753 -14.98874,12.22461 -23.88086,12.22461 -13.48099,0 -24.87927,-9.82254 -34.33398,-27.67383 -9.45471,-17.85129 -16.33019,-43.17766 -20.21289,-71.33594 -7.30857,-53.00351 -3.90251,-115.92138 9.78516,-159.22851 l 33.30078,43.90625 z"
       id="path62275"
       inkscape:connector-curvature="0" />
    <path
       style="color:#000000;font-style:normal;font-variant:normal;font-weight:normal;font-stretch:normal;font-size:medium;line-height:normal;font-family:sans-serif;font-variant-ligatures:normal;font-variant-position:normal;font-variant-caps:normal;font-variant-numeric:normal;font-variant-alternates:normal;font-feature-settings:normal;text-indent:0;text-align:start;text-decoration:none;text-decoration-line:none;text-decoration-style:solid;text-decoration-color:#000000;letter-spacing:normal;word-spacing:normal;text-transform:none;writing-mode:lr-tb;direction:ltr;text-orientation:mixed;dominant-baseline:auto;baseline-shift:baseline;text-anchor:start;white-space:normal;shape-padding:0;clip-rule:nonzero;display:inline;overflow:visible;visibility:visible;opacity:1;isolation:auto;mix-blend-mode:normal;color-interpolation:sRGB;color-interpolation-filters:linearRGB;solid-color:#000000;solid-opacity:1;vector-effect:none;fill:#000000;fill-opacity:1;fill-rule:nonzero;stroke:none;stroke-width:9.03511524;stroke-linecap:butt;stroke-linejoin:miter;stroke-miterlimit:4;stroke-dasharray:none;stroke-dashoffset:0;stroke-opacity:1;color-rendering:auto;image-rendering:auto;shape-rendering:auto;text-rendering:auto;enable-background:accumulate"
       d="m 869.53906,530.76367 c -1.18085,0 -6.1012,-0.16141 -12.10351,0.81641 -6.00232,0.97782 -13.4081,3.09673 -20.46094,7.77539 l -3.74414,2.48437 16.26562,24.80274 -88.52148,-3.25 37.54883,40.83594 c -22.21555,63.8624 -27.32945,157.9182 -16.23633,237.13281 5.62147,40.14221 15.38689,76.41931 29.60351,103.0957 14.21663,26.6764 33.51761,44.29688 57.64844,44.29688 15.98939,0 30.08064,-7.86118 41.65039,-20.79688 11.56976,-12.93569 20.93922,-30.9633 28.45508,-52.37305 15.03172,-42.81948 22.58441,-99.29413 22.77735,-155.80859 0.19293,-56.51446 -6.97194,-112.9956 -21.91211,-155.83203 -7.47009,-21.41822 -16.87006,-39.4607 -28.58399,-52.40234 -11.71393,-12.94165 -26.0515,-20.77735 -42.38672,-20.77735 z m 0,9.03516 c 13.50304,0 25.17839,6.19609 35.6875,17.80664 10.50911,11.61054 19.54239,28.64321 26.75196,49.31445 14.41913,41.34249 21.59843,97.10012 21.4082,152.82422 -0.19023,55.7241 -7.74841,111.48822 -22.26758,152.84766 -7.25958,20.67971 -16.27421,37.7253 -26.66406,49.34179 -10.38986,11.61649 -21.83347,17.78516 -34.91602,17.78516 -19.74389,0 -36.25849,-14.33327 -49.67578,-39.50977 -13.41728,-25.17649 -23.10423,-60.65057 -28.6289,-100.10156 -11.04935,-78.90197 -5.48966,-173.86749 16.66601,-235.45117 l 0.92578,-2.57227 -26.54492,-28.86914 84.35937,3.09766 -20.76171,-31.66211 c 4.48863,-2.25876 9.05553,-3.51044 13.00781,-4.1543 5.11016,-0.83248 8.86547,-0.69726 10.65234,-0.69726 z"
       id="path62275-7"
       inkscape:connector-curvature="0" />
    <path
       style="color:#000000;font-style:normal;font-variant:normal;font-weight:normal;font-stretch:normal;font-size:medium;line-height:normal;font-family:sans-serif;font-variant-ligatures:normal;font-variant-position:normal;font-variant-caps:normal;font-variant-numeric:normal;font-variant-alternates:normal;font-feature-settings:normal;text-indent:0;text-align:start;text-decoration:none;text-decoration-line:none;text-decoration-style:solid;text-decoration-color:#000000;letter-spacing:normal;word-spacing:normal;text-transform:none;writing-mode:lr-tb;direction:ltr;text-orientation:mixed;dominant-baseline:auto;baseline-shift:baseline;text-anchor:start;white-space:normal;shape-padding:0;clip-rule:nonzero;display:inline;overflow:visible;visibility:visible;opacity:1;isolation:auto;mix-blend-mode:normal;color-interpolation:sRGB;color-interpolation-filters:linearRGB;solid-color:#000000;solid-opacity:1;vector-effect:none;fill:#000000;fill-opacity:1;fill-rule:nonzero;stroke:none;stroke-width:8.79595757;stroke-linecap:butt;stroke-linejoin:miter;stroke-miterlimit:4;stroke-dasharray:none;stroke-dashoffset:0;stroke-opacity:1;color-rendering:auto;image-rendering:auto;shape-rendering:auto;text-rendering:auto;enable-background:accumulate"
       d="m 68.119141,591.56055 c -11.518136,0 -21.609575,5.86769 -29.669922,15.26367 -8.060347,9.39598 -14.433175,22.35135 -19.5,37.67969 -10.1336504,30.65666 -14.9624388,70.92661 -14.8320315,111.23242 0.1304073,40.30581 5.2214839,80.57198 15.4160155,111.21289 5.097266,15.32045 11.44891,28.26286 19.408203,37.65234 7.959293,9.38948 17.879712,15.28516 29.177735,15.28516 17.128515,0 30.559217,-13.18476 40.255859,-32.50195 9.69664,-19.31719 16.27806,-45.41241 20.04492,-74.23633 7.40942,-56.6967 3.8239,-123.66731 -11.41211,-169.18164 l 26.89063,-34.07618 -78.61719,21.68946 21.398438,-35.9082 -5.648438,-1.48633 c 0,0 -2.404111,-0.633 -5.126953,-1.26953 -1.361421,-0.31827 -2.806009,-0.6396 -4.119141,-0.89063 -1.313131,-0.25102 -2.304101,-0.46484 -3.664062,-0.46484 z m 0,8.79492 h 0.002 c -0.17753,0 0.894159,0.0965 2.013672,0.31055 0.876291,0.16751 1.927577,0.40434 2.949218,0.63671 l -26.5625,44.57618 73.849606,-20.37305 -13.17382,16.69336 0.79492,2.2793 c 15.11945,43.32063 19.07352,111.16109 11.70703,167.52929 -3.68325,28.18411 -10.20758,53.5442 -19.18555,71.42969 -8.97797,17.88549 -19.792785,27.65234 -32.394529,27.65234 -8.312149,0 -15.613464,-4.09099 -22.466797,-12.17578 C 38.79901,890.82927 32.748261,878.80927 27.878906,864.17383 18.140197,834.90295 13.040157,795.28555 12.912109,755.70898 c -0.128048,-39.57656 4.718309,-79.18824 14.388672,-108.44336 4.835182,-14.62755 10.896205,-26.63655 17.826172,-34.71484 6.929968,-8.07829 14.383241,-12.19531 22.992188,-12.19531 z"
       id="path62275-9"
       inkscape:connector-curvature="0" />
    <path
       style="color:#000000;font-style:normal;font-variant:normal;font-weight:normal;font-stretch:normal;font-size:medium;line-height:normal;font-family:sans-serif;font-variant-ligatures:normal;font-variant-position:normal;font-variant-caps:normal;font-variant-numeric:normal;font-variant-alternates:normal;font-feature-settings:normal;text-indent:0;text-align:start;text-decoration:none;text-decoration-line:none;text-decoration-style:solid;text-decoration-color:#000000;letter-spacing:normal;word-spacing:normal;text-transform:none;writing-mode:lr-tb;direction:ltr;text-orientation:mixed;dominant-baseline:auto;baseline-shift:baseline;text-anchor:start;white-space:normal;shape-padding:0;clip-rule:nonzero;display:inline;overflow:visible;visibility:visible;opacity:1;isolation:auto;mix-blend-mode:normal;color-interpolation:sRGB;color-interpolation-filters:linearRGB;solid-color:#000000;solid-opacity:1;vector-effect:none;fill:#000000;fill-opacity:1;fill-rule:nonzero;stroke:none;stroke-width:8.79595757;stroke-linecap:butt;stroke-linejoin:miter;stroke-miterlimit:4;stroke-dasharray:none;stroke-dashoffset:0;stroke-opacity:1;color-rendering:auto;image-rendering:auto;shape-rendering:auto;text-rendering:auto;enable-background:accumulate"
       d="m 145.79688,485.61719 -30.3086,46.50195 c -5.47779,-3.04064 -10.97409,-4.66816 -15.597655,-5.46289 -5.722187,-0.98357 -10.432244,-0.82031 -11.527344,-0.82031 -15.594353,0 -29.239692,7.89123 -40.335937,20.82617 -11.096246,12.93494 -19.988328,30.94668 -27.060547,52.3418 C 6.8223592,641.79415 0.03209228,698.24266 0.21484375,754.72656 0.39759522,811.21047 7.5556181,867.65326 21.787109,910.42773 c 7.115746,21.38724 15.978296,39.38602 26.9375,52.31446 10.959205,12.92843 24.36912,20.8457 39.638672,20.8457 23.044479,0 41.326399,-17.67787 54.783199,-44.32031 13.45681,-26.64244 22.70492,-62.88553 28.0293,-103.00196 10.64877,-80.23284 5.55706,-175.78732 -16.20312,-239.60546 l -2.34375,-6.8711 -15.25391,16.02539 z m -11.14454,33.20703 -7.75976,110.75976 21.96094,-23.07031 c 19.13573,61.68491 23.6977,152.53935 13.60351,228.59375 -5.23949,39.47677 -14.42663,74.98486 -27.16015,100.19531 -12.73353,25.21046 -28.39533,39.48829 -46.933599,39.48829 -12.283678,0 -23.076442,-6.11258 -32.929687,-17.73633 C 45.580348,945.43094 37.020647,928.35457 30.132812,907.65234 16.357144,866.2479 9.1921108,810.45193 9.0117188,754.69727 8.8313267,698.9426 15.637209,643.15236 29.318359,601.76367 c 6.840576,-20.69434 15.4189,-37.75775 25.384766,-49.375 9.965866,-11.61725 20.974992,-17.75586 33.660156,-17.75586 1.717588,0 5.22732,-0.13533 10.03711,0.69141 4.809789,0.82674 10.587709,2.60841 15.935549,6.35156 l 3.72461,2.60742 z"
       id="path62275-7-3"
       inkscape:connector-curvature="0" />
    <path
       style="color:#000000;font-style:normal;font-variant:normal;font-weight:normal;font-stretch:normal;font-size:medium;line-height:normal;font-family:sans-serif;font-variant-ligatures:normal;font-variant-position:normal;font-variant-caps:normal;font-variant-numeric:normal;font-variant-alternates:normal;font-feature-settings:normal;text-indent:0;text-align:start;text-decoration:none;text-decoration-line:none;text-decoration-style:solid;text-decoration-color:#000000;letter-spacing:normal;word-spacing:normal;text-transform:none;writing-mode:lr-tb;direction:ltr;text-orientation:mixed;dominant-baseline:auto;baseline-shift:baseline;text-anchor:start;white-space:normal;shape-padding:0;clip-rule:nonzero;display:inline;overflow:visible;visibility:visible;opacity:1;isolation:auto;mix-blend-mode:normal;color-interpolation:sRGB;color-interpolation-filters:linearRGB;solid-color:#000000;solid-opacity:1;vector-effect:none;fill:#000000;fill-opacity:1;fill-rule:nonzero;stroke:none;stroke-width:10.05499744;stroke-linecap:butt;stroke-linejoin:miter;stroke-miterlimit:4;stroke-dasharray:none;stroke-dashoffset:0;stroke-opacity:1;color-rendering:auto;image-rendering:auto;shape-rendering:auto;text-rendering:auto;enable-background:accumulate"
       d="m 395.55273,602.95703 c 0,0 -4.78439,2.86696 -10.7832,4.73633 -5.99881,1.86937 -12.38614,2.27838 -16.07422,-0.4707 l -6.00976,8.0625 c 7.89334,5.88367 17.73871,4.29433 25.07617,2.00781 7.33746,-2.28652 12.99414,-5.73242 12.99414,-5.73242 z"
       id="path6651-0"
       inkscape:connector-curvature="0" />
    <path
       style="color:#000000;font-style:normal;font-variant:normal;font-weight:normal;font-stretch:normal;font-size:medium;line-height:normal;font-family:sans-serif;font-variant-ligatures:normal;font-variant-position:normal;font-variant-caps:normal;font-variant-numeric:normal;font-variant-alternates:normal;font-feature-settings:normal;text-indent:0;text-align:start;text-decoration:none;text-decoration-line:none;text-decoration-style:solid;text-decoration-color:#000000;letter-spacing:normal;word-spacing:normal;text-transform:none;writing-mode:lr-tb;direction:ltr;text-orientation:mixed;dominant-baseline:auto;baseline-shift:baseline;text-anchor:start;white-space:normal;shape-padding:0;clip-rule:nonzero;display:inline;overflow:visible;visibility:visible;opacity:1;isolation:auto;mix-blend-mode:normal;color-interpolation:sRGB;color-interpolation-filters:linearRGB;solid-color:#000000;solid-opacity:1;vector-effect:none;fill:#000000;fill-opacity:1;fill-rule:nonzero;stroke:none;stroke-width:10.05499744;stroke-linecap:butt;stroke-linejoin:miter;stroke-miterlimit:4;stroke-dasharray:none;stroke-dashoffset:0;stroke-opacity:1;color-rendering:auto;image-rendering:auto;shape-rendering:auto;text-rendering:auto;enable-background:accumulate"
       d="m 341.08398,605.32812 c 0,0 -19.25976,9.5878 -31.11914,1.60352 l -5.61523,8.3418 c 18.39055,12.38136 41.54101,-1.11328 41.54101,-1.11328 z"
       id="path6653-2"
       inkscape:connector-curvature="0" />
    <path
       style="color:#000000;font-style:normal;font-variant:normal;font-weight:normal;font-stretch:normal;font-size:medium;line-height:normal;font-family:sans-serif;font-variant-ligatures:normal;font-variant-position:normal;font-variant-caps:normal;font-variant-numeric:normal;font-variant-alternates:normal;font-feature-settings:normal;text-indent:0;text-align:start;text-decoration:none;text-decoration-line:none;text-decoration-style:solid;text-decoration-color:#000000;letter-spacing:normal;word-spacing:normal;text-transform:none;writing-mode:lr-tb;direction:ltr;text-orientation:mixed;dominant-baseline:auto;baseline-shift:baseline;text-anchor:start;white-space:normal;shape-padding:0;clip-rule:nonzero;display:inline;overflow:visible;visibility:visible;opacity:1;isolation:auto;mix-blend-mode:normal;color-interpolation:sRGB;color-interpolation-filters:linearRGB;solid-color:#000000;solid-opacity:1;vector-effect:none;fill:#000000;fill-opacity:1;fill-rule:nonzero;stroke:none;stroke-width:10.05499744;stroke-linecap:butt;stroke-linejoin:miter;stroke-miterlimit:4;stroke-dasharray:none;stroke-dashoffset:0;stroke-opacity:1;color-rendering:auto;image-rendering:auto;shape-rendering:auto;text-rendering:auto;enable-background:accumulate"
       d="m 286.87109,608.61914 c 0,0 -14.5199,13.37123 -31.41406,4.24024 l -4.78125,8.8457 c 22.6649,12.24998 42.91406,-5.60547 42.91406,-5.60547 z"
       id="path6657-5"
       inkscape:connector-curvature="0" />
    <path
       style="color:#000000;font-style:normal;font-variant:normal;font-weight:normal;font-stretch:normal;font-size:medium;line-height:normal;font-family:sans-serif;font-variant-ligatures:normal;font-variant-position:normal;font-variant-caps:normal;font-variant-numeric:normal;font-variant-alternates:normal;font-feature-settings:normal;text-indent:0;text-align:start;text-decoration:none;text-decoration-line:none;text-decoration-style:solid;text-decoration-color:#000000;letter-spacing:normal;word-spacing:normal;text-transform:none;writing-mode:lr-tb;direction:ltr;text-orientation:mixed;dominant-baseline:auto;baseline-shift:baseline;text-anchor:start;white-space:normal;shape-padding:0;clip-rule:nonzero;display:inline;overflow:visible;visibility:visible;opacity:1;isolation:auto;mix-blend-mode:normal;color-interpolation:sRGB;color-interpolation-filters:linearRGB;solid-color:#000000;solid-opacity:1;vector-effect:none;fill:#000000;fill-opacity:1;fill-rule:nonzero;stroke:none;stroke-width:10.05499744;stroke-linecap:butt;stroke-linejoin:miter;stroke-miterlimit:4;stroke-dasharray:none;stroke-dashoffset:0;stroke-opacity:1;color-rendering:auto;image-rendering:auto;shape-rendering:auto;text-rendering:auto;enable-background:accumulate"
       d="m 237.44531,626.48633 c 0,0 -14.04381,10.97969 -30.95117,0.0879 l -5.44531,8.45312 c 21.81935,14.05613 42.36133,-0.44726 42.36133,-0.44726 z"
       id="path6661-5"
       inkscape:connector-curvature="0" />
    <path
       style="color:#000000;font-style:normal;font-variant:normal;font-weight:normal;font-stretch:normal;font-size:medium;line-height:normal;font-family:sans-serif;font-variant-ligatures:normal;font-variant-position:normal;font-variant-caps:normal;font-variant-numeric:normal;font-variant-alternates:normal;font-feature-settings:normal;text-indent:0;text-align:start;text-decoration:none;text-decoration-line:none;text-decoration-style:solid;text-decoration-color:#000000;letter-spacing:normal;word-spacing:normal;text-transform:none;writing-mode:lr-tb;direction:ltr;text-orientation:mixed;dominant-baseline:auto;baseline-shift:baseline;text-anchor:start;white-space:normal;shape-padding:0;clip-rule:nonzero;display:inline;overflow:visible;visibility:visible;opacity:1;isolation:auto;mix-blend-mode:normal;color-interpolation:sRGB;color-interpolation-filters:linearRGB;solid-color:#000000;solid-opacity:1;vector-effect:none;fill:#000000;fill-opacity:1;fill-rule:nonzero;stroke:none;stroke-width:10.05499744;stroke-linecap:butt;stroke-linejoin:miter;stroke-miterlimit:4;stroke-dasharray:none;stroke-dashoffset:0;stroke-opacity:1;color-rendering:auto;image-rendering:auto;shape-rendering:auto;text-rendering:auto;enable-background:accumulate"
       d="m 567.91992,839.40234 -5.20312,8.60547 c 0,0 5.65667,3.44591 12.99414,5.73242 7.33747,2.28652 17.18087,3.87392 25.07422,-2.00976 l -6.00782,-8.06055 c -3.68808,2.74909 -10.07539,2.34007 -16.07422,0.4707 -5.99882,-1.86936 -10.7832,-4.73828 -10.7832,-4.73828 z"
       id="path6651-4"
       inkscape:connector-curvature="0" />
    <path
       style="color:#000000;font-style:normal;font-variant:normal;font-weight:normal;font-stretch:normal;font-size:medium;line-height:normal;font-family:sans-serif;font-variant-ligatures:normal;font-variant-position:normal;font-variant-caps:normal;font-variant-numeric:normal;font-variant-alternates:normal;font-feature-settings:normal;text-indent:0;text-align:start;text-decoration:none;text-decoration-line:none;text-decoration-style:solid;text-decoration-color:#000000;letter-spacing:normal;word-spacing:normal;text-transform:none;writing-mode:lr-tb;direction:ltr;text-orientation:mixed;dominant-baseline:auto;baseline-shift:baseline;text-anchor:start;white-space:normal;shape-padding:0;clip-rule:nonzero;display:inline;overflow:visible;visibility:visible;opacity:1;isolation:auto;mix-blend-mode:normal;color-interpolation:sRGB;color-interpolation-filters:linearRGB;solid-color:#000000;solid-opacity:1;vector-effect:none;fill:#000000;fill-opacity:1;fill-rule:nonzero;stroke:none;stroke-width:10.05499744;stroke-linecap:butt;stroke-linejoin:miter;stroke-miterlimit:4;stroke-dasharray:none;stroke-dashoffset:0;stroke-opacity:1;color-rendering:auto;image-rendering:auto;shape-rendering:auto;text-rendering:auto;enable-background:accumulate"
       d="m 622.38672,841.77539 -4.80469,8.83203 c 0,0 23.1505,13.49269 41.54102,1.11133 l -5.61524,-8.33984 c -11.85932,7.98426 -31.12109,-1.60352 -31.12109,-1.60352 z"
       id="path6653-5"
       inkscape:connector-curvature="0" />
    <path
       style="color:#000000;font-style:normal;font-variant:normal;font-weight:normal;font-stretch:normal;font-size:medium;line-height:normal;font-family:sans-serif;font-variant-ligatures:normal;font-variant-position:normal;font-variant-caps:normal;font-variant-numeric:normal;font-variant-alternates:normal;font-feature-settings:normal;text-indent:0;text-align:start;text-decoration:none;text-decoration-line:none;text-decoration-style:solid;text-decoration-color:#000000;letter-spacing:normal;word-spacing:normal;text-transform:none;writing-mode:lr-tb;direction:ltr;text-orientation:mixed;dominant-baseline:auto;baseline-shift:baseline;text-anchor:start;white-space:normal;shape-padding:0;clip-rule:nonzero;display:inline;overflow:visible;visibility:visible;opacity:1;isolation:auto;mix-blend-mode:normal;color-interpolation:sRGB;color-interpolation-filters:linearRGB;solid-color:#000000;solid-opacity:1;vector-effect:none;fill:#000000;fill-opacity:1;fill-rule:nonzero;stroke:none;stroke-width:10.05499744;stroke-linecap:butt;stroke-linejoin:miter;stroke-miterlimit:4;stroke-dasharray:none;stroke-dashoffset:0;stroke-opacity:1;color-rendering:auto;image-rendering:auto;shape-rendering:auto;text-rendering:auto;enable-background:accumulate"
       d="m 676.60156,845.06641 -6.71875,7.48047 c 0,0 20.24915,17.85545 42.91407,5.60546 l -4.78126,-8.8457 c -16.89416,9.131 -31.41406,-4.24023 -31.41406,-4.24023 z"
       id="path6657-0"
       inkscape:connector-curvature="0" />
    <path
       style="color:#000000;font-style:normal;font-variant:normal;font-weight:normal;font-stretch:normal;font-size:medium;line-height:normal;font-family:sans-serif;font-variant-ligatures:normal;font-variant-position:normal;font-variant-caps:normal;font-variant-numeric:normal;font-variant-alternates:normal;font-feature-settings:normal;text-indent:0;text-align:start;text-decoration:none;text-decoration-line:none;text-decoration-style:solid;text-decoration-color:#000000;letter-spacing:normal;word-spacing:normal;text-transform:none;writing-mode:lr-tb;direction:ltr;text-orientation:mixed;dominant-baseline:auto;baseline-shift:baseline;text-anchor:start;white-space:normal;shape-padding:0;clip-rule:nonzero;display:inline;overflow:visible;visibility:visible;opacity:1;isolation:auto;mix-blend-mode:normal;color-interpolation:sRGB;color-interpolation-filters:linearRGB;solid-color:#000000;solid-opacity:1;vector-effect:none;fill:#000000;fill-opacity:1;fill-rule:nonzero;stroke:none;stroke-width:10.05499744;stroke-linecap:butt;stroke-linejoin:miter;stroke-miterlimit:4;stroke-dasharray:none;stroke-dashoffset:0;stroke-opacity:1;color-rendering:auto;image-rendering:auto;shape-rendering:auto;text-rendering:auto;enable-background:accumulate"
       d="m 726.02734,862.93164 -5.96484,8.0957 c 0,0 20.54197,14.50338 42.36133,0.44727 l -5.44531,-8.45313 c -16.90737,10.89179 -30.95118,-0.0898 -30.95118,-0.0898 z"
       id="path6661-0"
       inkscape:connector-curvature="0" />
    <path
       inkscape:connector-curvature="0"
       id="path59-1-8-3-29-8"
       d="m 436.233,240.94426 c -15.12609,-0.54397 -30.94547,5.54087 -49.52297,19.26267 l 6.6662,9.02571 c 17.42228,-12.86838 30.57743,-17.50182 42.45267,-17.07481 11.87523,0.42716 23.32534,6.03857 37.00026,15.84807 l 6.54002,-9.11644 c -14.4313,-10.35181 -28.00934,-17.40124 -43.13618,-17.9452 z"
       style="color:#000000;font-style:normal;font-variant:normal;font-weight:normal;font-stretch:normal;font-size:medium;line-height:normal;font-family:sans-serif;font-variant-ligatures:normal;font-variant-position:normal;font-variant-caps:normal;font-variant-numeric:normal;font-variant-alternates:normal;font-feature-settings:normal;text-indent:0;text-align:start;text-decoration:none;text-decoration-line:none;text-decoration-style:solid;text-decoration-color:#000000;letter-spacing:normal;word-spacing:normal;text-transform:none;writing-mode:lr-tb;direction:ltr;text-orientation:mixed;dominant-baseline:auto;baseline-shift:baseline;text-anchor:start;white-space:normal;shape-padding:0;clip-rule:nonzero;display:inline;overflow:visible;visibility:visible;opacity:1;isolation:auto;mix-blend-mode:normal;color-interpolation:sRGB;color-interpolation-filters:linearRGB;solid-color:#000000;solid-opacity:1;vector-effect:none;fill:#000000;fill-opacity:1;fill-rule:nonzero;stroke:none;stroke-width:11.22049522;stroke-linecap:butt;stroke-linejoin:miter;stroke-miterlimit:4;stroke-dasharray:none;stroke-dashoffset:0;stroke-opacity:1;color-rendering:auto;image-rendering:auto;shape-rendering:auto;text-rendering:auto;enable-background:accumulate" />
    <path
       inkscape:connector-curvature="0"
       id="path29-2-7-1"
       d="m 588.35923,469.02304 c -42.7148,-42.05006 -79.48523,-43.7189 -107.54789,-34.85544 -14.03171,4.43177 -25.86564,11.72043 -34.66203,18.41631 -8.79639,6.6958 -14.30512,12.53953 -16.61031,14.82347 l -7.89654,-7.97196 c 1.7764,-1.76018 8.18572,-8.52944 17.70995,-15.77957 9.52498,-7.25013 22.41723,-15.24079 38.08038,-20.18783 31.32629,-9.89423 73.82477,-6.71548 118.7982,37.55903 z"
       style="color:#000000;font-style:normal;font-variant:normal;font-weight:normal;font-stretch:normal;font-size:medium;line-height:normal;font-family:sans-serif;font-variant-ligatures:normal;font-variant-position:normal;font-variant-caps:normal;font-variant-numeric:normal;font-variant-alternates:normal;font-feature-settings:normal;text-indent:0;text-align:start;text-decoration:none;text-decoration-line:none;text-decoration-style:solid;text-decoration-color:#000000;letter-spacing:normal;word-spacing:normal;text-transform:none;writing-mode:lr-tb;direction:ltr;text-orientation:mixed;dominant-baseline:auto;baseline-shift:baseline;text-anchor:start;white-space:normal;shape-padding:0;clip-rule:nonzero;display:inline;overflow:visible;visibility:visible;opacity:1;isolation:auto;mix-blend-mode:normal;color-interpolation:sRGB;color-interpolation-filters:linearRGB;solid-color:#000000;solid-opacity:1;vector-effect:none;fill:#000000;fill-opacity:1;fill-rule:nonzero;stroke:none;stroke-width:11.22049522;stroke-linecap:butt;stroke-linejoin:miter;stroke-miterlimit:4;stroke-dasharray:none;stroke-dashoffset:0;stroke-opacity:1;color-rendering:auto;image-rendering:auto;shape-rendering:auto;text-rendering:auto;enable-background:accumulate" />
    <path
       inkscape:connector-curvature="0"
       id="path1039-2-2-0"
       d="m 481.04944,168.66003 6.34623,12.39404 c 0,0 -28.08295,14.37753 -56.4378,28.75949 -14.17743,7.19094 -28.42095,14.38323 -39.27542,19.78861 -5.4276,2.70268 -10.00344,4.95702 -13.33316,6.55684 -1.66524,0.79987 -3.01125,1.43216 -4.05381,1.90004 -0.52128,0.23397 -0.95618,0.42438 -1.40309,0.60135 -0.22309,0.0885 -0.44016,0.17343 -0.76915,0.27926 -0.32899,0.10591 -0.30195,0.37526 -2.3112,0.37526 v -13.924 c -1.94391,0 -1.79594,0.24239 -1.95367,0.29302 -0.15699,0.0503 -0.15023,0.0526 -0.0991,0.0323 0.10215,-0.0406 0.41762,-0.17261 0.8345,-0.35979 0.83449,-0.37436 2.11741,-0.97706 3.72481,-1.74921 3.2148,-1.54454 7.75909,-3.7819 13.15665,-6.46949 10.79438,-5.37526 25.02288,-12.55756 39.18453,-19.74061 28.32331,-14.36627 56.38973,-28.73726 56.38973,-28.73726 z"
       style="color:#000000;font-style:normal;font-variant:normal;font-weight:normal;font-stretch:normal;font-size:medium;line-height:normal;font-family:sans-serif;font-variant-ligatures:normal;font-variant-position:normal;font-variant-caps:normal;font-variant-numeric:normal;font-variant-alternates:normal;font-feature-settings:normal;text-indent:0;text-align:start;text-decoration:none;text-decoration-line:none;text-decoration-style:solid;text-decoration-color:#000000;letter-spacing:normal;word-spacing:normal;text-transform:none;writing-mode:lr-tb;direction:ltr;text-orientation:mixed;dominant-baseline:auto;baseline-shift:baseline;text-anchor:start;white-space:normal;shape-padding:0;clip-rule:nonzero;display:inline;overflow:visible;visibility:visible;opacity:1;isolation:auto;mix-blend-mode:normal;color-interpolation:sRGB;color-interpolation-filters:linearRGB;solid-color:#000000;solid-opacity:1;vector-effect:none;fill:#000000;fill-opacity:1;fill-rule:nonzero;stroke:none;stroke-width:13.92379189;stroke-linecap:butt;stroke-linejoin:miter;stroke-miterlimit:4;stroke-dasharray:none;stroke-dashoffset:0;stroke-opacity:1;color-rendering:auto;image-rendering:auto;shape-rendering:auto;text-rendering:auto;enable-background:accumulate" />
    <path
       inkscape:connector-curvature="0"
       id="path59-1-8-3-29-8-3"
       d="m 580.91787,240.94426 c 15.12609,-0.54397 30.94547,5.54087 49.52297,19.26267 l -6.66621,9.02571 c -17.42227,-12.86838 -30.57742,-17.50182 -42.45266,-17.07481 -11.87524,0.42716 -23.32534,6.03857 -37.00027,15.84807 l -6.54002,-9.11644 c 14.43131,-10.35181 28.00934,-17.40124 43.13619,-17.9452 z"
       style="color:#000000;font-style:normal;font-variant:normal;font-weight:normal;font-stretch:normal;font-size:medium;line-height:normal;font-family:sans-serif;font-variant-ligatures:normal;font-variant-position:normal;font-variant-caps:normal;font-variant-numeric:normal;font-variant-alternates:normal;font-feature-settings:normal;text-indent:0;text-align:start;text-decoration:none;text-decoration-line:none;text-decoration-style:solid;text-decoration-color:#000000;letter-spacing:normal;word-spacing:normal;text-transform:none;writing-mode:lr-tb;direction:ltr;text-orientation:mixed;dominant-baseline:auto;baseline-shift:baseline;text-anchor:start;white-space:normal;shape-padding:0;clip-rule:nonzero;display:inline;overflow:visible;visibility:visible;opacity:1;isolation:auto;mix-blend-mode:normal;color-interpolation:sRGB;color-interpolation-filters:linearRGB;solid-color:#000000;solid-opacity:1;vector-effect:none;fill:#000000;fill-opacity:1;fill-rule:nonzero;stroke:none;stroke-width:11.22049522;stroke-linecap:butt;stroke-linejoin:miter;stroke-miterlimit:4;stroke-dasharray:none;stroke-dashoffset:0;stroke-opacity:1;color-rendering:auto;image-rendering:auto;shape-rendering:auto;text-rendering:auto;enable-background:accumulate" />
    <path
       inkscape:connector-curvature="0"
       id="path1039-2-2-0-35"
       d="m 536.10142,168.66003 -6.34623,12.39404 c 0,0 28.08295,14.37753 56.43781,28.75949 14.17742,7.19094 28.42095,14.38323 39.27541,19.78861 5.42761,2.70268 10.00344,4.95702 13.33317,6.55684 1.66523,0.79987 3.01125,1.43216 4.0538,1.90004 0.52128,0.23397 0.95618,0.42438 1.4031,0.60135 0.22308,0.0885 0.44016,0.17343 0.76915,0.27926 0.32899,0.10591 0.30195,0.37526 2.3112,0.37526 v -13.924 c 1.9439,0 1.79593,0.24239 1.95367,0.29302 0.15698,0.0503 0.15022,0.0526 0.0992,0.0323 -0.10216,-0.0406 -0.41763,-0.17261 -0.8345,-0.35979 -0.8345,-0.37436 -2.11741,-0.97706 -3.72481,-1.74921 -3.21481,-1.54454 -7.75909,-3.7819 -13.15666,-6.46949 -10.79437,-5.37526 -25.02287,-12.55756 -39.18453,-19.74061 -28.3233,-14.36627 -56.38973,-28.73726 -56.38973,-28.73726 z"
       style="color:#000000;font-style:normal;font-variant:normal;font-weight:normal;font-stretch:normal;font-size:medium;line-height:normal;font-family:sans-serif;font-variant-ligatures:normal;font-variant-position:normal;font-variant-caps:normal;font-variant-numeric:normal;font-variant-alternates:normal;font-feature-settings:normal;text-indent:0;text-align:start;text-decoration:none;text-decoration-line:none;text-decoration-style:solid;text-decoration-color:#000000;letter-spacing:normal;word-spacing:normal;text-transform:none;writing-mode:lr-tb;direction:ltr;text-orientation:mixed;dominant-baseline:auto;baseline-shift:baseline;text-anchor:start;white-space:normal;shape-padding:0;clip-rule:nonzero;display:inline;overflow:visible;visibility:visible;opacity:1;isolation:auto;mix-blend-mode:normal;color-interpolation:sRGB;color-interpolation-filters:linearRGB;solid-color:#000000;solid-opacity:1;vector-effect:none;fill:#000000;fill-opacity:1;fill-rule:nonzero;stroke:none;stroke-width:13.92379189;stroke-linecap:butt;stroke-linejoin:miter;stroke-miterlimit:4;stroke-dasharray:none;stroke-dashoffset:0;stroke-opacity:1;color-rendering:auto;image-rendering:auto;shape-rendering:auto;text-rendering:auto;enable-background:accumulate" />
  </g>
</svg>
