<?xml version="1.0" encoding="UTF-8" standalone="no"?>
<!-- Created with Inkscape (http://www.inkscape.org/) -->

<svg
   xmlns:dc="http://purl.org/dc/elements/1.1/"
   xmlns:cc="http://creativecommons.org/ns#"
   xmlns:rdf="http://www.w3.org/1999/02/22-rdf-syntax-ns#"
   xmlns:svg="http://www.w3.org/2000/svg"
   xmlns="http://www.w3.org/2000/svg"
   xmlns:sodipodi="http://sodipodi.sourceforge.net/DTD/sodipodi-0.dtd"
   xmlns:inkscape="http://www.inkscape.org/namespaces/inkscape"
   version="1.1"
   id="svg3580"
   width="1000"
   height="1250"
   viewBox="0 0 1000 1250"
   sodipodi:docname="Bom - Bem.svg"
   inkscape:version="0.92.4 (5da689c313, 2019-01-14)">
  <metadata
     id="metadata3586">
    <rdf:RDF>
      <cc:Work
         rdf:about="">
        <dc:format>image/svg+xml</dc:format>
        <dc:type
           rdf:resource="http://purl.org/dc/dcmitype/StillImage" />
        <dc:title></dc:title>
      </cc:Work>
    </rdf:RDF>
  </metadata>
  <defs
     id="defs3584" />
  <sodipodi:namedview
     pagecolor="#ffffff"
     bordercolor="#666666"
     borderopacity="1"
     objecttolerance="10"
     gridtolerance="10"
     guidetolerance="10"
     inkscape:pageopacity="0"
     inkscape:pageshadow="2"
     inkscape:window-width="681"
     inkscape:window-height="706"
     id="namedview3582"
     showgrid="false"
     inkscape:zoom="0.48861284"
     inkscape:cx="549.82672"
     inkscape:cy="766.43851"
     inkscape:window-x="-7"
     inkscape:window-y="0"
     inkscape:window-maximized="0"
     inkscape:current-layer="svg3580" />
  <path
     style="color:#000000;font-style:normal;font-variant:normal;font-weight:normal;font-stretch:normal;font-size:medium;line-height:normal;font-family:sans-serif;font-variant-ligatures:normal;font-variant-position:normal;font-variant-caps:normal;font-variant-numeric:normal;font-variant-alternates:normal;font-feature-settings:normal;text-indent:0;text-align:start;text-decoration:none;text-decoration-line:none;text-decoration-style:solid;text-decoration-color:#000000;letter-spacing:normal;word-spacing:normal;text-transform:none;writing-mode:lr-tb;direction:ltr;text-orientation:mixed;dominant-baseline:auto;baseline-shift:baseline;text-anchor:start;white-space:normal;shape-padding:0;clip-rule:nonzero;display:inline;overflow:visible;visibility:visible;opacity:1;isolation:auto;mix-blend-mode:normal;color-interpolation:sRGB;color-interpolation-filters:linearRGB;solid-color:#000000;solid-opacity:1;vector-effect:none;fill:#000000;fill-opacity:1;fill-rule:nonzero;stroke:none;stroke-width:27.86916733;stroke-linecap:butt;stroke-linejoin:miter;stroke-miterlimit:4;stroke-dasharray:none;stroke-dashoffset:0;stroke-opacity:1;color-rendering:auto;image-rendering:auto;shape-rendering:auto;text-rendering:auto;enable-background:accumulate"
     d="M 276.25096,0.59383 C 185.38374,0.56727 118.08728,30.79071 73.315067,78.97823 28.538213,127.17075 6.4380496,192.25169 1.5205693,260.89031 -8.3143912,398.16751 48.652484,551.52777 142.87325,626.67297 l 4.18491,3.3396 5.34575,-0.32344 c 35.91589,-2.17465 55.62382,-9.61164 69.15337,-15.04905 13.52957,-5.43741 18.63602,-8.34922 36.31098,-5.9331 28.04816,3.8341 45.06765,10.19028 92.83419,35.72164 l 7.39355,3.95276 6.95702,-4.681 C 465.95914,575.78062 530.30882,417.97946 528.65978,274.91743 527.83525,203.38642 510.09675,134.99769 469.26527,83.88545 428.43846,32.77907 364.24122,0.27741 276.25096,0.59383 Z m 0.0158,27.8697 h 0.0297 0.0277 c 81.26711,-0.29917 135.48941,28.15575 171.16701,72.81643 35.67759,44.66066 52.52726,106.85922 53.30067,173.95694 1.50804,130.8289 -59.69595,278.18452 -144.70418,340.64934 -42.83956,-22.47703 -65.36006,-30.8171 -94.44544,-34.79299 -22.62746,-3.09308 -37.1955,2.34952 -50.477,7.68724 -12.43662,4.99816 -26.31116,10.24742 -54.98338,12.54683 C 74.739428,533.0607 20.30732,388.66407 29.318837,262.88057 33.900392,198.93084 54.380772,140.30309 93.733669,97.94829 133.08657,55.59348 191.4586,28.4329 276.26682,28.46353 Z"
     id="path10-9"
     inkscape:connector-curvature="0" />
  <path
     style="color:#000000;font-style:normal;font-variant:normal;font-weight:normal;font-stretch:normal;font-size:medium;line-height:normal;font-family:sans-serif;font-variant-ligatures:normal;font-variant-position:normal;font-variant-caps:normal;font-variant-numeric:normal;font-variant-alternates:normal;font-feature-settings:normal;text-indent:0;text-align:start;text-decoration:none;text-decoration-line:none;text-decoration-style:solid;text-decoration-color:#000000;letter-spacing:normal;word-spacing:normal;text-transform:none;writing-mode:lr-tb;direction:ltr;text-orientation:mixed;dominant-baseline:auto;baseline-shift:baseline;text-anchor:start;white-space:normal;shape-padding:0;clip-rule:nonzero;display:inline;overflow:visible;visibility:visible;opacity:1;isolation:auto;mix-blend-mode:normal;color-interpolation:sRGB;color-interpolation-filters:linearRGB;solid-color:#000000;solid-opacity:1;vector-effect:none;fill:#000000;fill-opacity:1;fill-rule:nonzero;stroke:none;stroke-width:13.93458366;stroke-linecap:butt;stroke-linejoin:miter;stroke-miterlimit:4;stroke-dasharray:none;stroke-dashoffset:0;stroke-opacity:1;color-rendering:auto;image-rendering:auto;shape-rendering:auto;text-rendering:auto;enable-background:accumulate"
     d="m 261.34279,336.23871 c 0,0 -1.57126,15.51081 -4.17103,31.80263 -1.29988,8.14589 -2.86541,16.4872 -4.54804,22.96843 -0.84132,3.24063 -1.7229,6.02229 -2.51215,7.94123 -0.78925,1.91895 -1.80954,2.92178 -1.07749,2.31173 -1.54195,1.28494 -3.17394,2.3576 -4.02815,5.77436 -0.42712,1.70838 -0.18175,4.25315 0.90882,6.03033 1.09056,1.77718 2.50754,2.64656 3.5797,3.1511 4.28862,2.01813 6.4897,1.24485 9.40565,1.04374 5.83192,-0.40221 12.14798,-1.70254 12.14798,-1.70254 l -2.7324,-13.66399 c 0,0 -2.97836,0.37882 -4.78022,0.67465 0.92408,-2.47756 1.7977,-5.06371 2.57565,-8.06028 1.88037,-7.24292 3.48052,-15.88067 4.81989,-24.27412 2.67876,-16.78689 4.27621,-32.59633 4.27621,-32.59633 z"
     id="path971"
     inkscape:connector-curvature="0" />
  <path
     style="color:#000000;font-style:normal;font-variant:normal;font-weight:normal;font-stretch:normal;font-size:medium;line-height:normal;font-family:sans-serif;font-variant-ligatures:normal;font-variant-position:normal;font-variant-caps:normal;font-variant-numeric:normal;font-variant-alternates:normal;font-feature-settings:normal;text-indent:0;text-align:start;text-decoration:none;text-decoration-line:none;text-decoration-style:solid;text-decoration-color:#000000;letter-spacing:normal;word-spacing:normal;text-transform:none;writing-mode:lr-tb;direction:ltr;text-orientation:mixed;dominant-baseline:auto;baseline-shift:baseline;text-anchor:start;white-space:normal;shape-padding:0;clip-rule:nonzero;display:inline;overflow:visible;visibility:visible;opacity:1;isolation:auto;mix-blend-mode:normal;color-interpolation:sRGB;color-interpolation-filters:linearRGB;solid-color:#000000;solid-opacity:1;vector-effect:none;fill:#000000;fill-opacity:1;fill-rule:nonzero;stroke:none;stroke-width:27.4610672;stroke-linecap:butt;stroke-linejoin:miter;stroke-miterlimit:4;stroke-dasharray:none;stroke-dashoffset:0;stroke-opacity:1;color-rendering:auto;image-rendering:auto;shape-rendering:auto;text-rendering:auto;enable-background:accumulate"
     d="m 258.16194,581.79174 c -2.24395,0.0241 -4.42873,0.15774 -6.53434,0.36511 -11.2952,1.11241 -19.22289,3.92091 -24.39915,6.03628 -6.74568,-1.63521 -12.80224,-0.32098 -19.06132,0.90287 -8.25717,1.61454 -16.82618,4.36742 -24.85553,7.30227 -14.31996,5.2342 -25.49226,10.52328 -28.06218,11.75112 -31.27864,4.64158 -41.21821,34.10243 -41.21821,34.10243 l -0.24406,0.90485 -0.11706,0.93064 C 108.29514,686.31902 77.751793,774.643 77.400773,775.6573 c -20.789104,41.6942 3.803932,80.5176 3.803932,80.5176 l -0.78579,-1.401 47.456875,97.5053 1.92478,1.7641 c -1.53508,-1.4072 0.86739,1.5448 2.16092,6.1692 1.29353,4.6244 2.39809,10.7917 3.18879,16.7714 1.58142,11.9594 1.99622,23.0161 1.99622,23.0161 l 27.44309,-0.9981 c 0,0 -0.42754,-12.1035 -2.2145,-25.6175 -0.89348,-6.757 -2.10431,-13.9045 -3.96863,-20.5694 -1.59655,-5.7077 -3.19429,-11.1428 -7.70113,-16.3825 l -45.94682,-94.3998 -0.43455,-0.6767 c 0,0 -16.058096,-27.7517 -1.13701,-56.2375 l -12.945676,-4.5619 12.945676,4.5619 c 0,0 30.81057,-86.01496 37.51545,-136.34225 0.27868,-1.65694 2.62529,-12.03707 19.90863,-13.70963 l 2.45064,-0.23614 2.21249,-1.07351 c 0,0 1.0567,-0.48053 1.18464,-0.54171 -2.59063,6.87805 -2.73239,12.47142 -2.73239,12.47142 l 0.24208,-3.30191 -21.43656,108.96673 26.94502,5.3001 21.75802,-110.60377 -0.0793,-1.66683 c 0,0 -1.66892,-3.10611 5.36558,-6.94311 l 0.24408,-0.13295 37.04716,-22.20649 c 0.39694,-0.18556 9.78966,-4.55824 20.50591,-5.61361 5.47207,-0.53893 10.83324,-0.10451 15.06293,1.55371 2.2905,0.89798 4.33347,2.10012 6.24464,3.90514 -1.52896,2.12379 -3.18687,4.44661 -4.92506,6.46489 -4.39159,5.09923 -8.46906,9.33422 -8.46906,9.33422 l 1.01795,-0.95444 c -7.01496,5.9357 -10.20002,12.92137 -12.61032,18.5454 -2.4103,5.62401 -3.68885,10.39978 -3.68885,10.39978 l -0.0615,0.22424 -22.67876,97.28502 26.74263,6.2347 22.53587,-96.66391 c 0.0141,-0.052 0.79836,-2.94036 2.39307,-6.66135 1.609,-3.75433 4.37972,-7.78537 5.10565,-8.39962 l 0.53179,-0.45042 0.48616,-0.50403 c 0,0 4.53332,-4.69891 9.50288,-10.46925 3.37616,-3.92018 6.84087,-7.6256 9.81244,-12.30671 3.42387,-0.42471 7.92577,-0.71067 12.50713,-0.1131 4.42953,0.57777 8.32712,1.94093 11.06256,4.01823 2.66502,2.02381 4.78386,4.6306 6.10376,10.5506 0.72313,5.25117 -0.69443,13.64995 -2.84353,20.36305 -2.18497,6.82513 -4.56193,11.51497 -4.56193,11.51497 l -0.56554,1.1132 -30.72314,103.61494 26.32788,7.8083 30.10801,-101.54134 c 0.82834,-1.70303 3.16645,-6.63465 5.56799,-14.13628 1.88678,-5.89369 3.65662,-13.02364 4.17897,-20.76584 0.41816,1.19314 0.83387,2.67795 1.2402,4.34366 0.20541,2.31433 3.11372,38.04266 -7.15941,124.7936 l -0.0813,0.6826 -0.0119,0.6885 c 0,0 -0.40153,35.8051 20.47812,124.869 0.0514,0.2716 5.55432,29.5685 -5.90135,84.5556 l 26.88549,5.5998 c 12.30897,-59.083 6.02042,-95.1678 6.02042,-95.1678 l -0.0616,-0.3452 -0.0813,-0.3394 C 379.4763,812.5646 379.9212,781.7683 379.93934,780.8284 c 10.65977,-90.56092 7.07605,-130.52621 7.07605,-130.5262 l -0.0832,-0.87906 -0.19446,-0.86318 c -2.42148,-10.72366 -5.79056,-18.67158 -12.00908,-24.51223 -6.21851,-5.84066 -15.73661,-7.45193 -22.13701,-5.90334 -0.74684,0.18069 -1.38831,0.44072 -2.08751,0.65879 -2.61919,-3.8229 -5.62492,-7.18028 -9.00482,-9.74696 -7.76442,-5.89629 -16.44376,-8.37472 -24.11934,-9.37588 -7.12364,-0.92918 -13.63022,-0.58368 -18.72201,0.006 -5.51857,-6.67112 -12.27414,-11.4773 -19.25382,-14.21364 -7.24864,-2.84179 -14.51027,-3.75317 -21.24208,-3.6809 z"
     id="path3633-19"
     inkscape:connector-curvature="0"
     sodipodi:nodetypes="ccccscccccccccccccsscccccccccccccccccccccsccccsccccccccccccccscccccccccccccccccccccscccscscc" />
  <path
     style="color:#000000;font-style:normal;font-variant:normal;font-weight:normal;font-stretch:normal;font-size:medium;line-height:normal;font-family:sans-serif;font-variant-ligatures:normal;font-variant-position:normal;font-variant-caps:normal;font-variant-numeric:normal;font-variant-alternates:normal;font-feature-settings:normal;text-indent:0;text-align:start;text-decoration:none;text-decoration-line:none;text-decoration-style:solid;text-decoration-color:#000000;letter-spacing:normal;word-spacing:normal;text-transform:none;writing-mode:lr-tb;direction:ltr;text-orientation:mixed;dominant-baseline:auto;baseline-shift:baseline;text-anchor:start;white-space:normal;shape-padding:0;clip-rule:nonzero;display:inline;overflow:visible;visibility:visible;opacity:1;isolation:auto;mix-blend-mode:normal;color-interpolation:sRGB;color-interpolation-filters:linearRGB;solid-color:#000000;solid-opacity:1;vector-effect:none;fill:#000000;fill-opacity:1;fill-rule:nonzero;stroke:none;stroke-width:27.90187454;stroke-linecap:butt;stroke-linejoin:miter;stroke-miterlimit:4;stroke-dasharray:none;stroke-dashoffset:0;stroke-opacity:1;color-rendering:auto;image-rendering:auto;shape-rendering:auto;text-rendering:auto;enable-background:accumulate"
     d="M 806.4425,0.56208 C 698.91984,0.53088 625.0558,43.70223 582.5701,108.28459 c -42.48943,64.58802 -54.34625,148.92512 -45.05982,232.40692 9.28644,83.48181 39.75666,166.47678 84.74018,229.50586 44.9835,63.02909 105.54753,106.93633 174.43318,106.52596 68.8532,-0.41017 128.92169,-44.77834 173.63947,-108.02014 44.71769,-63.24182 75.12859,-146.20564 85.22819,-229.48008 10.0998,-83.27443 -0.016,-167.16589 -39.2537,-231.49809 C 977.06422,43.39924 907.54246,0.19859 806.4425,0.56208 Z m 0.0735,27.90145 c 93.37378,-0.34374 151.28942,36.9427 185.96202,93.79064 34.67248,56.84791 44.92908,134.82758 35.37428,213.60951 -9.5548,78.78191 -38.82539,158.05998 -80.31108,216.73083 -41.48568,58.67087 -94.14069,95.8885 -151.02422,96.22738 -56.85102,0.33866 -109.87454,-36.432 -151.556,-94.83439 C 603.27955,495.58512 574.00555,416.39474 565.24116,337.60589 556.47676,258.81707 568.2636,180.7998 605.87992,123.61937 643.49621,66.43893 706.19366,28.4293 806.46039,28.46551 h 0.0278 z"
     id="path10-9-2"
     inkscape:connector-curvature="0" />
  <path
     style="color:#000000;font-style:normal;font-variant:normal;font-weight:normal;font-stretch:normal;font-size:medium;line-height:normal;font-family:sans-serif;font-variant-ligatures:normal;font-variant-position:normal;font-variant-caps:normal;font-variant-numeric:normal;font-variant-alternates:normal;font-feature-settings:normal;text-indent:0;text-align:start;text-decoration:none;text-decoration-line:none;text-decoration-style:solid;text-decoration-color:#000000;letter-spacing:normal;word-spacing:normal;text-transform:none;writing-mode:lr-tb;direction:ltr;text-orientation:mixed;dominant-baseline:auto;baseline-shift:baseline;text-anchor:start;white-space:normal;shape-padding:0;clip-rule:nonzero;display:inline;overflow:visible;visibility:visible;opacity:1;isolation:auto;mix-blend-mode:normal;color-interpolation:sRGB;color-interpolation-filters:linearRGB;solid-color:#000000;solid-opacity:1;vector-effect:none;fill:#000000;fill-opacity:1;fill-rule:nonzero;stroke:none;stroke-width:13.95093727;stroke-linecap:butt;stroke-linejoin:miter;stroke-miterlimit:4;stroke-dasharray:none;stroke-dashoffset:0;stroke-opacity:1;color-rendering:auto;image-rendering:auto;shape-rendering:auto;text-rendering:auto;enable-background:accumulate"
     d="m 794.72665,338.2647 c 0,0 -1.57216,15.52739 -4.175,31.83833 -1.30142,8.15548 -2.86939,16.50739 -4.55401,22.99624 -0.84229,3.24441 -1.72593,6.02996 -2.5161,7.95114 -0.79017,1.92118 -1.81042,2.92648 -1.07749,2.31569 -1.54376,1.28646 -3.17693,2.35954 -4.03212,5.78031 -0.42761,1.71039 -0.18302,4.25902 0.90881,6.03828 1.09183,1.77924 2.51025,2.64795 3.58368,3.15307 4.29366,2.02052 6.49817,1.2451 9.41755,1.04375 5.83877,-0.40268 12.16187,-1.70453 12.16187,-1.70453 l -2.73637,-13.67986 c 0,0 -2.98183,0.3804 -4.78617,0.67664 0.92515,-2.48046 1.80075,-5.06816 2.57961,-8.06822 1.88259,-7.25143 3.48488,-15.90058 4.82586,-24.30389 2.68192,-16.80661 4.28016,-32.63405 4.28016,-32.63405 z"
     id="path971-5"
     inkscape:connector-curvature="0" />
  <path
     style="color:#000000;font-style:normal;font-variant:normal;font-weight:normal;font-stretch:normal;font-size:medium;line-height:normal;font-family:sans-serif;font-variant-ligatures:normal;font-variant-position:normal;font-variant-caps:normal;font-variant-numeric:normal;font-variant-alternates:normal;font-feature-settings:normal;text-indent:0;text-align:start;text-decoration:none;text-decoration-line:none;text-decoration-style:solid;text-decoration-color:#000000;letter-spacing:normal;word-spacing:normal;text-transform:none;writing-mode:lr-tb;direction:ltr;text-orientation:mixed;dominant-baseline:auto;baseline-shift:baseline;text-anchor:start;white-space:normal;shape-padding:0;clip-rule:nonzero;display:inline;overflow:visible;visibility:visible;opacity:1;isolation:auto;mix-blend-mode:normal;color-interpolation:sRGB;color-interpolation-filters:linearRGB;solid-color:#000000;solid-opacity:1;vector-effect:none;fill:#000000;fill-opacity:1;fill-rule:nonzero;stroke:none;stroke-width:20.31938553;stroke-linecap:butt;stroke-linejoin:miter;stroke-miterlimit:4;stroke-dasharray:none;stroke-dashoffset:0;stroke-opacity:1;color-rendering:auto;image-rendering:auto;shape-rendering:auto;text-rendering:auto;enable-background:accumulate"
     d="m 554.50349,482.93118 c -3.17141,0.10783 -6.22824,0.53236 -9.12388,1.23226 -11.58248,2.79961 -20.46921,9.38212 -26.55411,15.8904 -3.04243,3.25412 -5.40173,6.4906 -7.12367,9.67948 -1.72195,3.18888 -4.22057,5.27273 -2.36531,12.41983 l 19.66854,-5.10366 c 1.34235,5.17122 -0.11684,3.62324 0.57743,2.33751 0.69426,-1.2857 2.1284,-3.36548 4.08372,-5.45685 3.91064,-4.18275 9.83393,-8.40655 16.48767,-10.01483 6.65376,-1.6083 14.17095,-1.21608 24.00227,4.96475 9.83132,6.18084 21.79566,18.67829 34.43978,41.3174 l 17.73977,-9.90768 c -13.7317,-24.58642 -27.49802,-39.89497 -41.36304,-48.61175 -10.39877,-6.53758 -20.9549,-9.07033 -30.46917,-8.74686 z"
     id="path4328"
     inkscape:connector-curvature="0" />
  <path
     style="color:#000000;font-style:normal;font-variant:normal;font-weight:normal;font-stretch:normal;font-size:medium;line-height:normal;font-family:sans-serif;font-variant-ligatures:normal;font-variant-position:normal;font-variant-caps:normal;font-variant-numeric:normal;font-variant-alternates:normal;font-feature-settings:normal;text-indent:0;text-align:start;text-decoration:none;text-decoration-line:none;text-decoration-style:solid;text-decoration-color:#000000;letter-spacing:normal;word-spacing:normal;text-transform:none;writing-mode:lr-tb;direction:ltr;text-orientation:mixed;dominant-baseline:auto;baseline-shift:baseline;text-anchor:start;white-space:normal;shape-padding:0;clip-rule:nonzero;display:inline;overflow:visible;visibility:visible;opacity:1;isolation:auto;mix-blend-mode:normal;color-interpolation:sRGB;color-interpolation-filters:linearRGB;solid-color:#000000;solid-opacity:1;vector-effect:none;fill:#000000;fill-opacity:1;fill-rule:nonzero;stroke:none;stroke-width:20.31938553;stroke-linecap:butt;stroke-linejoin:miter;stroke-miterlimit:4;stroke-dasharray:none;stroke-dashoffset:0;stroke-opacity:1;color-rendering:auto;image-rendering:auto;shape-rendering:auto;text-rendering:auto;enable-background:accumulate"
     d="m 528.98123,516.96218 -19.62089,5.27828 c 9.21264,34.25127 23.35955,65.97951 34.82076,93.57831 10.36662,24.96306 18.1122,46.68238 19.15458,62.1785 -6.89576,6.13118 -10.32484,15.33125 -12.66587,25.22858 -2.9215,12.35136 -4.08438,26.95282 -4.71672,42.49411 -1.26468,31.08254 -0.344,66.12554 -3.70869,88.63344 l -0.29764,1.9843 0.48019,1.9486 c 5.20126,21.0939 14.37921,35.7709 25.75643,45.03 11.3772,9.2591 24.50848,12.7636 36.26135,13.3049 17.46428,0.8042 32.72546,-4.4929 39.45414,-7.2765 0.63826,0.2093 1.26702,0.3844 2.0994,0.8076 2.37607,1.2082 5.36479,3.0368 8.16745,4.9052 3.45637,2.3042 4.51601,3.1996 6.42917,4.6453 -0.4434,22.9312 4.86633,40.5264 14.80696,52.7292 10.75661,13.2044 26.34936,19.1996 41.73213,19.8392 30.76552,1.2791 62.87258,-15.4367 75.11625,-41.246 l -0.0912,0.1885 c 0.24705,-0.4941 0.46382,-0.89 2.90505,-1.4644 2.44121,-0.5744 6.45995,-0.6507 10.50892,-0.1945 8.09795,0.9125 15.8646,3.5182 15.8646,3.5182 l 1.24021,0.4267 1.30566,0.097 c 38.47731,2.8714 65.22513,-10.9855 81.44224,-25.7148 14.42117,-13.0981 20.86843,-26.6317 22.1906,-29.6119 6.26143,-10.3677 29.37409,-28.2512 50.47502,-41.4067 21.20064,-13.2177 40.35297,-22.9308 40.35307,-22.9308 l 1.522,-0.7719 1.1866,-1.2263 c 17.9304,-18.5304 39.5743,-30.6809 59.1703,-39.849 19.596,-9.1681 36.4734,-14.3369 47.7863,-23.38711 l 5.175,-4.14126 -1.7045,-6.40338 c -8.0853,-30.39056 -21.8319,-48.84113 -39.7102,-56.54901 -17.8783,-7.70788 -37.3261,-4.06897 -55.2572,3.16102 -17.9311,7.22998 -35.1333,18.33014 -50.02651,28.33205 -8.02148,5.38698 -15.43989,10.37953 -21.63896,14.31683 -5.87217,-32.11757 -30.35534,-52.97874 -57.07484,-54.46151 -28.55477,-1.58463 -57.6081,19.69351 -66.64919,62.18249 -3.97121,-0.18 -7.70302,0.21853 -11.04866,0.85919 -0.23564,0.0451 -0.37244,0.10964 -0.60521,0.15677 -4.08671,-31.43085 -19.32591,-48.03303 -35.00927,-54.24721 -10.90361,-4.32031 -20.92929,-4.09685 -27.41133,-3.34159 -14.56344,-17.76336 -37.78179,-28.03473 -58.31307,-34.36833 -11.26419,-3.47484 -21.75853,-5.6494 -29.9572,-6.70897 -4.09932,-0.52979 -7.57397,-0.79692 -10.66369,-0.73221 -0.61075,0.0128 -1.27266,0.15852 -1.8732,0.2024 -11.87322,-8.08782 -22.85541,-29.39975 -29.28453,-50.23492 -6.91222,-22.40079 -10.7213,-46.43094 -10.7213,-46.43094 l -18.94818,6.22873 c 0,0 2.74151,21.85012 10.25295,46.19286 7.51147,24.34273 18.85437,52.46999 42.29171,64.18863 l 8.83616,4.41707 2.18275,-4.07579 c 1.5231,0.064 2.93886,0.0867 5.32392,0.39488 6.84144,0.88418 16.44236,2.85057 26.56998,5.97478 20.2552,6.24843 42.33633,17.69302 51.45327,31.4752 l 8.70515,4.55202 2.409,-0.34725 c 0,0 11.05955,-2.69717 21.66277,1.50411 10.60323,4.20128 22.24024,13.94535 23.23632,48.8082 l 0.41472,14.54705 13.5132,-5.4053 c 0,0 4.61863,-1.808 9.75687,-2.7919 2.56912,-0.492 5.18185,-0.7061 6.82406,-0.5715 1.6422,0.1346 1.83456,0.5705 1.30964,0.046 0,0 17.22773,-5.61957 17.25357,-5.82993 4.92427,-43.46361 27.34738,-57.46722 47.36169,-56.35655 20.01431,1.11068 39.9354,17.96631 39.25372,50.51669 l -0.32147,15.34669 14.25136,-5.7009 c 11.11627,-4.44655 23.37235,-13.62286 37.98573,-23.43678 14.61327,-9.81392 30.94007,-20.16403 46.29607,-26.35566 15.3559,-6.19166 28.9529,-7.94336 39.6128,-3.34754 9.6429,4.15732 18.9542,14.12966 25.959,35.93395 -8.0958,4.21878 -22.1861,10.05283 -38.0691,17.48383 -20.1924,9.4471 -43.6526,22.4368 -63.8832,42.887 -2.057,1.0496 -19.66056,10.0688 -40.4879,23.0537 -22.07054,13.7601 -46.35643,29.9466 -57.3209,48.4491 l -0.3929,0.6607 -0.28773,0.7144 c 0,0 -4.67966,11.6809 -17.57706,23.3951 -12.77944,11.607 -32.83111,22.7163 -65.40302,20.5158 -2.11159,-0.6968 -9.16328,-2.9411 -18.51168,-3.9944 -5.4333,-0.6122 -11.36535,-0.8217 -17.43815,0.6072 -6.07282,1.4289 -12.93372,5.173 -16.42616,12.1579 l -0.0477,0.093 -0.0436,0.095 c -7.18705,15.1501 -34.0224,30.5619 -55.916,29.6516 -10.94679,-0.4551 -20.11228,-4.1341 -26.82001,-12.3682 -6.70771,-8.2342 -11.45205,-22.0023 -10.12794,-44.3812 l 0.31352,-5.2902 -4.1611,-3.2841 c 0,0 -5.32868,-4.2165 -11.74318,-8.4928 -3.20726,-2.1382 -6.69548,-4.3149 -10.22915,-6.1117 -3.53365,-1.7968 -6.60412,-3.6075 -12.10233,-3.6075 h -2.36531 l -2.12321,1.0457 c 0,0 -16.14497,7.6312 -33.23926,6.8439 -8.54715,-0.3936 -16.9176,-2.6986 -24.37136,-8.7647 -7.23806,-5.8905 -13.9869,-15.7877 -18.41642,-32.7412 3.4639,-25.637 2.48193,-59.193 3.66503,-88.27024 0.61009,-14.99452 1.83635,-28.705 4.18691,-38.64254 2.35055,-9.93754 5.98733,-14.85165 7.78644,-15.75745 l 5.39931,-2.71851 0.18654,-6.04423 C 584.51286,660.75567 574.55435,635.9771 562.94684,608.026 551.33933,580.07488 537.6514,549.19588 528.98131,516.96181 Z"
     id="path4330"
     inkscape:connector-curvature="0"
     sodipodi:nodetypes="ccscsscccssccscsscccscccscscccscccscscscccscssccsccsccccccccsccccsccscccscscscscccscsscccscccccssccsscsscccscc" />
  <path
     style="color:#000000;font-style:normal;font-variant:normal;font-weight:normal;font-stretch:normal;font-size:medium;line-height:normal;font-family:sans-serif;font-variant-ligatures:normal;font-variant-position:normal;font-variant-caps:normal;font-variant-numeric:normal;font-variant-alternates:normal;font-feature-settings:normal;text-indent:0;text-align:start;text-decoration:none;text-decoration-line:none;text-decoration-style:solid;text-decoration-color:#000000;letter-spacing:normal;word-spacing:normal;text-transform:none;writing-mode:lr-tb;direction:ltr;text-orientation:mixed;dominant-baseline:auto;baseline-shift:baseline;text-anchor:start;white-space:normal;shape-padding:0;clip-rule:nonzero;display:inline;overflow:visible;visibility:visible;opacity:1;isolation:auto;mix-blend-mode:normal;color-interpolation:sRGB;color-interpolation-filters:linearRGB;solid-color:#000000;solid-opacity:1;vector-effect:none;fill:#000000;fill-opacity:1;fill-rule:nonzero;stroke:none;stroke-width:20.31938553;stroke-linecap:butt;stroke-linejoin:miter;stroke-miterlimit:4;stroke-dasharray:none;stroke-dashoffset:0;stroke-opacity:1;color-rendering:auto;image-rendering:auto;shape-rendering:auto;text-rendering:auto;enable-background:accumulate"
     d="m 603.71651,665.11114 c -19.21456,0.92058 -34.54694,8.84607 -34.54694,8.84607 l 8.98101,18.22593 c 0,0 16.83633,-7.81044 32.60627,-6.72286 7.88496,0.5438 14.95481,2.91311 20.9246,9.14571 5.90891,6.16907 11.19507,16.93208 12.98139,35.85459 -0.10781,1.62828 -1.16603,17.73983 -1.29775,31.30652 -0.0347,3.5654 -0.004,6.8923 0.15081,9.8045 0.15452,2.9123 -0.0676,4.738 1.41085,8.5822 0.36961,0.961 0.81406,2.1914 2.40697,3.8773 1.59291,1.686 5.54181,3.7527 9.18341,3.2325 3.64161,-0.5203 5.48152,-2.3701 6.51847,-3.5162 1.03696,-1.1462 1.5158,-2.0126 1.93471,-2.8058 1.67566,-3.1731 2.34329,-5.8947 3.48643,-10.4673 l -4.66908,-1.1668 c -0.0815,-2.0809 -0.13086,-4.4909 -0.10318,-7.342 0.12865,-13.25034 1.3136,-31.20926 1.3136,-31.20926 l 0.0535,-0.79175 -0.0714,-0.79173 c -2.00842,-22.3797 -8.66838,-38.22891 -18.62478,-48.62366 -9.9564,-10.39474 -22.71946,-14.56884 -34.19966,-15.36058 -2.87006,-0.19794 -5.69436,-0.20889 -8.43929,-0.0774 z"
     id="path4332"
     inkscape:connector-curvature="0"
     sodipodi:nodetypes="cccssccccssccccccccsccc" />
  <path
     style="color:#000000;font-style:normal;font-variant:normal;font-weight:normal;font-stretch:normal;font-size:medium;line-height:normal;font-family:sans-serif;font-variant-ligatures:normal;font-variant-position:normal;font-variant-caps:normal;font-variant-numeric:normal;font-variant-alternates:normal;font-feature-settings:normal;text-indent:0;text-align:start;text-decoration:none;text-decoration-line:none;text-decoration-style:solid;text-decoration-color:#000000;letter-spacing:normal;word-spacing:normal;text-transform:none;writing-mode:lr-tb;direction:ltr;text-orientation:mixed;dominant-baseline:auto;baseline-shift:baseline;text-anchor:start;white-space:normal;shape-padding:0;clip-rule:nonzero;display:inline;overflow:visible;visibility:visible;opacity:1;isolation:auto;mix-blend-mode:normal;color-interpolation:sRGB;color-interpolation-filters:linearRGB;solid-color:#000000;solid-opacity:1;vector-effect:none;fill:#000000;fill-opacity:1;fill-rule:nonzero;stroke:none;stroke-width:20.31938553;stroke-linecap:butt;stroke-linejoin:miter;stroke-miterlimit:4;stroke-dasharray:none;stroke-dashoffset:0;stroke-opacity:1;color-rendering:auto;image-rendering:auto;shape-rendering:auto;text-rendering:auto;enable-background:accumulate"
     d="m 668.44088,833.8831 c -2.27664,7.3447 -9.98099,17.2022 -17.36673,24.4587 -7.38573,7.2564 -13.94378,12.0348 -13.94378,12.0348 l 11.95551,16.4301 c 0,0 7.71671,-5.6075 16.22772,-13.9695 8.51101,-8.3621 18.32604,-19.3564 22.53586,-32.9377 z"
     id="path4336"
     inkscape:connector-curvature="0" />
  <path
     style="color:#000000;font-style:normal;font-variant:normal;font-weight:normal;font-stretch:normal;font-size:medium;line-height:normal;font-family:sans-serif;font-variant-ligatures:normal;font-variant-position:normal;font-variant-caps:normal;font-variant-numeric:normal;font-variant-alternates:normal;font-feature-settings:normal;text-indent:0;text-align:start;text-decoration:none;text-decoration-line:none;text-decoration-style:solid;text-decoration-color:#000000;letter-spacing:normal;word-spacing:normal;text-transform:none;writing-mode:lr-tb;direction:ltr;text-orientation:mixed;dominant-baseline:auto;baseline-shift:baseline;text-anchor:start;white-space:normal;shape-padding:0;clip-rule:nonzero;display:inline;overflow:visible;visibility:visible;opacity:1;isolation:auto;mix-blend-mode:normal;color-interpolation:sRGB;color-interpolation-filters:linearRGB;solid-color:#000000;solid-opacity:1;vector-effect:none;fill:#000000;fill-opacity:1;fill-rule:nonzero;stroke:none;stroke-width:20.31938553;stroke-linecap:butt;stroke-linejoin:miter;stroke-miterlimit:4;stroke-dasharray:none;stroke-dashoffset:0;stroke-opacity:1;color-rendering:auto;image-rendering:auto;shape-rendering:auto;text-rendering:auto;enable-background:accumulate"
     d="m 762.54107,679.3228 c -30.31168,0.68889 -49.09594,28.72295 -49.09594,28.72295 l -0.52981,0.7223 -0.39486,0.80166 C 691.11277,753.0934 688.12827,804.2627 661.17828,891.6227 l 19.41654,5.9906 c 27.24778,-88.3254 31.30245,-139.9279 49.75271,-178.124 1.40398,-1.66866 16.71971,-19.4889 32.65588,-19.85109 z"
     id="path4338"
     inkscape:connector-curvature="0" />
  <path
     style="color:#000000;font-style:normal;font-variant:normal;font-weight:normal;font-stretch:normal;font-size:medium;line-height:normal;font-family:sans-serif;font-variant-ligatures:normal;font-variant-position:normal;font-variant-caps:normal;font-variant-numeric:normal;font-variant-alternates:normal;font-feature-settings:normal;text-indent:0;text-align:start;text-decoration:none;text-decoration-line:none;text-decoration-style:solid;text-decoration-color:#000000;letter-spacing:normal;word-spacing:normal;text-transform:none;writing-mode:lr-tb;direction:ltr;text-orientation:mixed;dominant-baseline:auto;baseline-shift:baseline;text-anchor:start;white-space:normal;shape-padding:0;clip-rule:nonzero;display:inline;overflow:visible;visibility:visible;opacity:1;isolation:auto;mix-blend-mode:normal;color-interpolation:sRGB;color-interpolation-filters:linearRGB;solid-color:#000000;solid-opacity:1;vector-effect:none;fill:#000000;fill-opacity:1;fill-rule:nonzero;stroke:none;stroke-width:20.31938553;stroke-linecap:butt;stroke-linejoin:miter;stroke-miterlimit:4;stroke-dasharray:none;stroke-dashoffset:0;stroke-opacity:1;color-rendering:auto;image-rendering:auto;shape-rendering:auto;text-rendering:auto;enable-background:accumulate"
     d="M 810.41266,747.85309 C 800.60248,815.4091 777.55432,864.9533 775.05812,921.4152 l 20.29954,0.8969 c 2.26725,-51.2832 24.91994,-101.0096 35.16206,-171.5401 z"
     id="path4340"
     inkscape:connector-curvature="0" />
  <path
     style="color:#000000;font-style:normal;font-variant:normal;font-weight:normal;font-stretch:normal;font-size:medium;line-height:normal;font-family:sans-serif;font-variant-ligatures:normal;font-variant-position:normal;font-variant-caps:normal;font-variant-numeric:normal;font-variant-alternates:normal;font-feature-settings:normal;text-indent:0;text-align:start;text-decoration:none;text-decoration-line:none;text-decoration-style:solid;text-decoration-color:#000000;letter-spacing:normal;word-spacing:normal;text-transform:none;writing-mode:lr-tb;direction:ltr;text-orientation:mixed;dominant-baseline:auto;baseline-shift:baseline;text-anchor:start;white-space:normal;shape-padding:0;clip-rule:nonzero;display:inline;overflow:visible;visibility:visible;opacity:1;isolation:auto;mix-blend-mode:normal;color-interpolation:sRGB;color-interpolation-filters:linearRGB;solid-color:#000000;solid-opacity:1;vector-effect:none;fill:#000000;fill-opacity:1;fill-rule:nonzero;stroke:none;stroke-width:20.31938553;stroke-linecap:butt;stroke-linejoin:miter;stroke-miterlimit:4;stroke-dasharray:none;stroke-dashoffset:0;stroke-opacity:1;color-rendering:auto;image-rendering:auto;shape-rendering:auto;text-rendering:auto;enable-background:accumulate"
     d="m 839.24476,746.89071 c 0,0 -10.45176,69.99229 -43.00408,107.40299 l -1.24813,1.4367 -0.64491,1.7918 c 0,0 -4.15638,11.3867 -4.53813,25.7406 -0.38172,14.3538 3.26277,33.4062 19.6229,46.0936 l 12.45157,-16.0551 c -9.81631,-7.6126 -12.04703,-18.7447 -11.76102,-29.4988 0.25295,-9.5116 2.42447,-16.3993 2.98043,-18.089 37.6788,-44.9903 46.28017,-116.11619 46.28017,-116.11619 z"
     id="path4342"
     inkscape:connector-curvature="0" />
  <path
     style="color:#000000;font-style:normal;font-variant:normal;font-weight:normal;font-stretch:normal;font-size:medium;line-height:normal;font-family:sans-serif;font-variant-ligatures:normal;font-variant-position:normal;font-variant-caps:normal;font-variant-numeric:normal;font-variant-alternates:normal;font-feature-settings:normal;text-indent:0;text-align:start;text-decoration:none;text-decoration-line:none;text-decoration-style:solid;text-decoration-color:#000000;letter-spacing:normal;word-spacing:normal;text-transform:none;writing-mode:lr-tb;direction:ltr;text-orientation:mixed;dominant-baseline:auto;baseline-shift:baseline;text-anchor:start;white-space:normal;shape-padding:0;clip-rule:nonzero;display:inline;overflow:visible;visibility:visible;opacity:1;isolation:auto;mix-blend-mode:normal;color-interpolation:sRGB;color-interpolation-filters:linearRGB;solid-color:#000000;solid-opacity:1;vector-effect:none;fill:#000000;fill-opacity:1;fill-rule:nonzero;stroke:none;stroke-width:20.31938553;stroke-linecap:butt;stroke-linejoin:miter;stroke-miterlimit:4;stroke-dasharray:none;stroke-dashoffset:0;stroke-opacity:1;color-rendering:auto;image-rendering:auto;shape-rendering:auto;text-rendering:auto;enable-background:accumulate"
     d="M 946.32831,741.39217 C 932.75483,793.1083 914.10283,842.9935 893.37092,892.2815 l 18.72996,7.8777 c 20.94231,-49.7882 39.963,-100.577 53.88207,-153.6098 z"
     id="path4344"
     inkscape:connector-curvature="0" />
  <path
     style="color:#000000;font-style:normal;font-variant:normal;font-weight:normal;font-stretch:normal;font-size:medium;line-height:normal;font-family:sans-serif;font-variant-ligatures:normal;font-variant-position:normal;font-variant-caps:normal;font-variant-numeric:normal;font-variant-alternates:normal;font-feature-settings:normal;text-indent:0;text-align:start;text-decoration:none;text-decoration-line:none;text-decoration-style:solid;text-decoration-color:#000000;letter-spacing:normal;word-spacing:normal;text-transform:none;writing-mode:lr-tb;direction:ltr;text-orientation:mixed;dominant-baseline:auto;baseline-shift:baseline;text-anchor:start;white-space:normal;shape-padding:0;clip-rule:nonzero;display:inline;overflow:visible;visibility:visible;opacity:1;isolation:auto;mix-blend-mode:normal;color-interpolation:sRGB;color-interpolation-filters:linearRGB;solid-color:#000000;solid-opacity:1;vector-effect:none;fill:#000000;fill-opacity:1;fill-rule:nonzero;stroke:none;stroke-width:20.31938553;stroke-linecap:butt;stroke-linejoin:miter;stroke-miterlimit:4;stroke-dasharray:none;stroke-dashoffset:0;stroke-opacity:1;color-rendering:auto;image-rendering:auto;shape-rendering:auto;text-rendering:auto;enable-background:accumulate"
     d="m 593.75722,697.23124 c -14.11808,0.74699 -25.40718,4.50043 -25.40718,4.50043 l -6.29821,2.07162 -0.64093,6.59982 c -3.05087,31.44382 13.62303,54.17389 34.95768,57.32689 10.66731,1.5765 22.03495,-2.0564 30.42947,-10.3958 8.3945,-8.33944 13.83684,-20.93799 15.21373,-37.073 l 0.38297,-4.47065 -3.04591,-3.292 c -12.954,-14.00429 -31.47356,-16.01429 -45.59162,-15.26731 z m 1.07351,20.2916 c 9.45213,-0.50011 19.26685,0.90313 26.19098,5.84381 -1.58435,9.58737 -4.92117,15.95396 -8.54447,19.55343 -4.22325,4.19554 -8.65114,5.37164 -13.13617,4.7088 -8.03237,-1.1871 -17.66379,-9.36972 -17.93423,-28.28047 3.57349,-0.75957 8.21578,-1.55 13.42389,-1.82557 z"
     id="path4346"
     inkscape:connector-curvature="0" />
  <path
     style="color:#000000;font-style:normal;font-variant:normal;font-weight:normal;font-stretch:normal;font-size:medium;line-height:normal;font-family:sans-serif;font-variant-ligatures:normal;font-variant-position:normal;font-variant-caps:normal;font-variant-numeric:normal;font-variant-alternates:normal;font-feature-settings:normal;text-indent:0;text-align:start;text-decoration:none;text-decoration-line:none;text-decoration-style:solid;text-decoration-color:#000000;letter-spacing:normal;word-spacing:normal;text-transform:none;writing-mode:lr-tb;direction:ltr;text-orientation:mixed;dominant-baseline:auto;baseline-shift:baseline;text-anchor:start;white-space:normal;shape-padding:0;clip-rule:nonzero;display:inline;overflow:visible;visibility:visible;opacity:1;isolation:auto;mix-blend-mode:normal;color-interpolation:sRGB;color-interpolation-filters:linearRGB;solid-color:#000000;solid-opacity:1;vector-effect:none;fill:#000000;fill-opacity:1;fill-rule:nonzero;stroke:none;stroke-width:20.31938553;stroke-linecap:butt;stroke-linejoin:miter;stroke-miterlimit:4;stroke-dasharray:none;stroke-dashoffset:0;stroke-opacity:1;color-rendering:auto;image-rendering:auto;shape-rendering:auto;text-rendering:auto;enable-background:accumulate"
     d="m 757.71124,716.20327 c -16.97865,0.89834 -30.57035,5.40925 -30.57035,5.40925 l -6.29823,2.07162 -0.63894,6.59785 c -3.66054,37.72691 16.15746,64.15931 40.92649,67.81991 12.38452,1.8303 25.53999,-2.3463 35.36446,-12.1063 9.82448,-9.76 16.33767,-24.6563 17.99179,-44.03988 l 0.38099,-4.46868 -3.04592,-3.29397 c -15.19406,-16.42594 -37.13165,-18.88814 -54.11029,-17.9898 z m 1.07351,20.28962 c 12.36836,-0.6544 25.58045,1.21024 34.73544,8.41549 -1.88804,12.95132 -6.30753,21.66552 -11.34632,26.67112 -5.6532,5.6161 -11.87091,7.3379 -18.07314,6.4213 -11.39138,-1.6835 -24.13372,-13.4993 -23.89116,-38.84099 4.63532,-1.07962 10.93828,-2.26285 18.57518,-2.66692 z"
     id="path4346-0"
     inkscape:connector-curvature="0" />
  <path
     style="color:#000000;font-style:normal;font-variant:normal;font-weight:normal;font-stretch:normal;font-size:medium;line-height:normal;font-family:sans-serif;font-variant-ligatures:normal;font-variant-position:normal;font-variant-caps:normal;font-variant-numeric:normal;font-variant-alternates:normal;font-feature-settings:normal;text-indent:0;text-align:start;text-decoration:none;text-decoration-line:none;text-decoration-style:solid;text-decoration-color:#000000;letter-spacing:normal;word-spacing:normal;text-transform:none;writing-mode:lr-tb;direction:ltr;text-orientation:mixed;dominant-baseline:auto;baseline-shift:baseline;text-anchor:start;white-space:normal;shape-padding:0;clip-rule:nonzero;display:inline;overflow:visible;visibility:visible;opacity:1;isolation:auto;mix-blend-mode:normal;color-interpolation:sRGB;color-interpolation-filters:linearRGB;solid-color:#000000;solid-opacity:1;vector-effect:none;fill:#000000;fill-opacity:1;fill-rule:nonzero;stroke:none;stroke-width:20.31938553;stroke-linecap:butt;stroke-linejoin:miter;stroke-miterlimit:4;stroke-dasharray:none;stroke-dashoffset:0;stroke-opacity:1;color-rendering:auto;image-rendering:auto;shape-rendering:auto;text-rendering:auto;enable-background:accumulate"
     d="m 899.21473,723.02336 c -14.11809,0.747 -25.40916,4.50044 -25.40916,4.50044 l -6.29623,2.07162 -0.64094,6.59785 c -3.05086,31.44383 13.62303,54.17583 34.95768,57.32883 10.66731,1.5765 22.03297,-2.0564 30.42748,-10.3958 8.39453,-8.3394 13.83884,-20.9399 15.21573,-37.07495 l 0.38099,-4.46868 -3.04592,-3.29397 c -12.954,-14.00429 -31.47156,-16.01232 -45.58963,-15.26534 z m 1.07351,20.29161 c 9.45315,-0.50017 19.26672,0.9038 26.19097,5.84579 -1.58449,9.58624 -4.92339,15.95024 -8.54644,19.54944 -4.22326,4.1955 -8.65114,5.3736 -13.13617,4.7108 -8.03209,-1.187 -17.66307,-9.3693 -17.93424,-28.27848 3.57373,-0.7597 8.21677,-1.55194 13.42588,-1.82755 z"
     id="path4346-5"
     inkscape:connector-curvature="0" />
  <path
     style="color:#000000;font-style:normal;font-variant:normal;font-weight:normal;font-stretch:normal;font-size:medium;line-height:normal;font-family:sans-serif;font-variant-ligatures:normal;font-variant-position:normal;font-variant-caps:normal;font-variant-numeric:normal;font-variant-alternates:normal;font-feature-settings:normal;text-indent:0;text-align:start;text-decoration:none;text-decoration-line:none;text-decoration-style:solid;text-decoration-color:#000000;letter-spacing:normal;word-spacing:normal;text-transform:none;writing-mode:lr-tb;direction:ltr;text-orientation:mixed;dominant-baseline:auto;baseline-shift:baseline;text-anchor:start;white-space:normal;shape-padding:0;clip-rule:nonzero;display:inline;overflow:visible;visibility:visible;opacity:1;isolation:auto;mix-blend-mode:normal;color-interpolation:sRGB;color-interpolation-filters:linearRGB;solid-color:#000000;solid-opacity:1;vector-effect:none;fill:#000000;fill-opacity:1;fill-rule:nonzero;stroke:none;stroke-width:20.31938553;stroke-linecap:butt;stroke-linejoin:miter;stroke-miterlimit:4;stroke-dasharray:none;stroke-dashoffset:0;stroke-opacity:1;color-rendering:auto;image-rendering:auto;shape-rendering:auto;text-rendering:auto;enable-background:accumulate"
     d="m 1083.6766,719.82267 c -3.9054,0.17676 -7.5552,0.87221 -10.8125,1.93668 -13.0292,4.25793 -21.0656,13.17785 -21.0656,13.17785 l -2.0933,2.2641 -0.4822,3.0479 c -1.5137,9.58641 2.4412,16.9375 5.6512,22.6529 3.21,5.7155 6.6595,9.9236 6.6595,9.9236 l 15.7515,-12.8365 c 0,0 -2.4273,-3.0045 -4.6931,-7.0384 -1.4025,-2.4975 -2.205,-4.95621 -2.7144,-6.8935 2.2013,-1.6851 5.2817,-3.67189 9.2985,-4.9846 7.4044,-2.41975 15.8803,-3.25564 28.3915,9.483 l 14.4974,-14.23941 c -12.6529,-12.88288 -26.6724,-17.02389 -38.3885,-16.49362 z"
     id="path4369"
     inkscape:connector-curvature="0" />
  <path
     style="color:#000000;font-style:normal;font-variant:normal;font-weight:normal;font-stretch:normal;font-size:medium;line-height:normal;font-family:sans-serif;font-variant-ligatures:normal;font-variant-position:normal;font-variant-caps:normal;font-variant-numeric:normal;font-variant-alternates:normal;font-feature-settings:normal;text-indent:0;text-align:start;text-decoration:none;text-decoration-line:none;text-decoration-style:solid;text-decoration-color:#000000;letter-spacing:normal;word-spacing:normal;text-transform:none;writing-mode:lr-tb;direction:ltr;text-orientation:mixed;dominant-baseline:auto;baseline-shift:baseline;text-anchor:start;white-space:normal;shape-padding:0;clip-rule:nonzero;display:inline;overflow:visible;visibility:visible;opacity:1;isolation:auto;mix-blend-mode:normal;color-interpolation:sRGB;color-interpolation-filters:linearRGB;solid-color:#000000;solid-opacity:1;vector-effect:none;fill:#000000;fill-opacity:1;fill-rule:nonzero;stroke:none;stroke-width:20.31938553;stroke-linecap:butt;stroke-linejoin:miter;stroke-miterlimit:4;stroke-dasharray:none;stroke-dashoffset:0;stroke-opacity:1;color-rendering:auto;image-rendering:auto;shape-rendering:auto;text-rendering:auto;enable-background:accumulate"
     d="m 655.09834,643.90476 c 0,0 -4.82684,11.56454 -9.12784,25.23057 -2.1505,6.833 -4.19204,14.21644 -5.46482,21.27184 -1.27274,7.05543 -2.15379,13.5564 -0.24604,20.47219 l 19.58717,-5.40328 c -0.22904,-0.8303 -0.37624,-5.74583 0.65482,-11.46141 1.03107,-5.71559 2.86199,-12.4576 4.85164,-18.77956 3.97933,-12.6439 8.50081,-23.51611 8.50081,-23.51611 z"
     id="path4371"
     inkscape:connector-curvature="0" />
  <path
     style="color:#000000;font-style:normal;font-variant:normal;font-weight:normal;font-stretch:normal;font-size:medium;line-height:normal;font-family:sans-serif;font-variant-ligatures:normal;font-variant-position:normal;font-variant-caps:normal;font-variant-numeric:normal;font-variant-alternates:normal;font-feature-settings:normal;text-indent:0;text-align:start;text-decoration:none;text-decoration-line:none;text-decoration-style:solid;text-decoration-color:#000000;letter-spacing:normal;word-spacing:normal;text-transform:none;writing-mode:lr-tb;direction:ltr;text-orientation:mixed;dominant-baseline:auto;baseline-shift:baseline;text-anchor:start;white-space:normal;shape-padding:0;clip-rule:nonzero;display:inline;overflow:visible;visibility:visible;opacity:1;isolation:auto;mix-blend-mode:normal;color-interpolation:sRGB;color-interpolation-filters:linearRGB;solid-color:#000000;solid-opacity:1;vector-effect:none;fill:#000000;fill-opacity:1;fill-rule:nonzero;stroke:none;stroke-width:10.15969276;stroke-linecap:butt;stroke-linejoin:miter;stroke-miterlimit:4;stroke-dasharray:none;stroke-dashoffset:0;stroke-opacity:1;color-rendering:auto;image-rendering:auto;shape-rendering:auto;text-rendering:auto;enable-background:accumulate"
     d="m 128.91755,821.1319 c -12.33442,2.2655 -19.72389,2.0724 -23.7324,1.4684 -2.00426,-0.302 -3.16478,-0.7029 -3.71464,-0.9346 -0.54985,-0.2318 -0.0932,0.04 -0.0932,0.04 l -6.504593,7.8062 c 0,0 1.237309,0.9194 2.653031,1.5161 1.415734,0.5967 3.406282,1.2044 6.145422,1.6172 5.47827,0.8255 13.94499,0.8929 27.08192,-1.52 z"
     id="path7650"
     inkscape:connector-curvature="0" />
  <path
     style="color:#000000;font-style:normal;font-variant:normal;font-weight:normal;font-stretch:normal;font-size:medium;line-height:normal;font-family:sans-serif;font-variant-ligatures:normal;font-variant-position:normal;font-variant-caps:normal;font-variant-numeric:normal;font-variant-alternates:normal;font-feature-settings:normal;text-indent:0;text-align:start;text-decoration:none;text-decoration-line:none;text-decoration-style:solid;text-decoration-color:#000000;letter-spacing:normal;word-spacing:normal;text-transform:none;writing-mode:lr-tb;direction:ltr;text-orientation:mixed;dominant-baseline:auto;baseline-shift:baseline;text-anchor:start;white-space:normal;shape-padding:0;clip-rule:nonzero;display:inline;overflow:visible;visibility:visible;opacity:1;isolation:auto;mix-blend-mode:normal;color-interpolation:sRGB;color-interpolation-filters:linearRGB;solid-color:#000000;solid-opacity:1;vector-effect:none;fill:#000000;fill-opacity:1;fill-rule:nonzero;stroke:none;stroke-width:10.15969276;stroke-linecap:butt;stroke-linejoin:miter;stroke-miterlimit:4;stroke-dasharray:none;stroke-dashoffset:0;stroke-opacity:1;color-rendering:auto;image-rendering:auto;shape-rendering:auto;text-rendering:auto;enable-background:accumulate"
     d="m 161.85321,824.4576 -6.85581,7.4987 c 0,0 20.91774,18.4461 52.28472,8.3639 l -3.10744,-9.6716 c -26.85322,8.6314 -42.32147,-6.191 -42.32147,-6.191 z"
     id="path7652"
     inkscape:connector-curvature="0" />
  <path
     style="color:#000000;font-style:normal;font-variant:normal;font-weight:normal;font-stretch:normal;font-size:medium;line-height:normal;font-family:sans-serif;font-variant-ligatures:normal;font-variant-position:normal;font-variant-caps:normal;font-variant-numeric:normal;font-variant-alternates:normal;font-feature-settings:normal;text-indent:0;text-align:start;text-decoration:none;text-decoration-line:none;text-decoration-style:solid;text-decoration-color:#000000;letter-spacing:normal;word-spacing:normal;text-transform:none;writing-mode:lr-tb;direction:ltr;text-orientation:mixed;dominant-baseline:auto;baseline-shift:baseline;text-anchor:start;white-space:normal;shape-padding:0;clip-rule:nonzero;display:inline;overflow:visible;visibility:visible;opacity:1;isolation:auto;mix-blend-mode:normal;color-interpolation:sRGB;color-interpolation-filters:linearRGB;solid-color:#000000;solid-opacity:1;vector-effect:none;fill:#000000;fill-opacity:1;fill-rule:nonzero;stroke:none;stroke-width:10.15969276;stroke-linecap:butt;stroke-linejoin:miter;stroke-miterlimit:4;stroke-dasharray:none;stroke-dashoffset:0;stroke-opacity:1;color-rendering:auto;image-rendering:auto;shape-rendering:auto;text-rendering:auto;enable-background:accumulate"
     d="m 238.50135,835.6035 -7.32411,7.0403 c 0,0 4.33562,4.3284 12.52102,7.2983 8.18541,2.97 20.60492,4.9776 37.75954,1.9824 l -1.74819,-10.0069 c -15.59424,2.7228 -26.04714,0.8323 -32.54672,-1.526 -6.4996,-2.3582 -8.66154,-4.7881 -8.66154,-4.7881 z"
     id="path7654"
     inkscape:connector-curvature="0" />
  <path
     style="color:#000000;font-style:normal;font-variant:normal;font-weight:normal;font-stretch:normal;font-size:medium;line-height:normal;font-family:sans-serif;font-variant-ligatures:normal;font-variant-position:normal;font-variant-caps:normal;font-variant-numeric:normal;font-variant-alternates:normal;font-feature-settings:normal;text-indent:0;text-align:start;text-decoration:none;text-decoration-line:none;text-decoration-style:solid;text-decoration-color:#000000;letter-spacing:normal;word-spacing:normal;text-transform:none;writing-mode:lr-tb;direction:ltr;text-orientation:mixed;dominant-baseline:auto;baseline-shift:baseline;text-anchor:start;white-space:normal;shape-padding:0;clip-rule:nonzero;display:inline;overflow:visible;visibility:visible;opacity:1;isolation:auto;mix-blend-mode:normal;color-interpolation:sRGB;color-interpolation-filters:linearRGB;solid-color:#000000;solid-opacity:1;vector-effect:none;fill:#000000;fill-opacity:1;fill-rule:nonzero;stroke:none;stroke-width:10.15969276;stroke-linecap:butt;stroke-linejoin:miter;stroke-miterlimit:4;stroke-dasharray:none;stroke-dashoffset:0;stroke-opacity:1;color-rendering:auto;image-rendering:auto;shape-rendering:auto;text-rendering:auto;enable-background:accumulate"
     d="m 351.99622,858.56 c -19.03848,10.2158 -33.82462,0.2104 -33.82463,0.2104 l -5.52037,8.5305 c 0,0 20.56201,12.8668 44.14903,0.2104 z"
     id="path7656"
     inkscape:connector-curvature="0" />
  <path
     style="color:#000000;font-style:normal;font-variant:normal;font-weight:normal;font-stretch:normal;font-size:medium;line-height:normal;font-family:sans-serif;font-variant-ligatures:normal;font-variant-position:normal;font-variant-caps:normal;font-variant-numeric:normal;font-variant-alternates:normal;font-feature-settings:normal;text-indent:0;text-align:start;text-decoration:none;text-decoration-line:none;text-decoration-style:solid;text-decoration-color:#000000;letter-spacing:normal;word-spacing:normal;text-transform:none;writing-mode:lr-tb;direction:ltr;text-orientation:mixed;dominant-baseline:auto;baseline-shift:baseline;text-anchor:start;white-space:normal;shape-padding:0;clip-rule:nonzero;display:inline;overflow:visible;visibility:visible;opacity:1;isolation:auto;mix-blend-mode:normal;color-interpolation:sRGB;color-interpolation-filters:linearRGB;solid-color:#000000;solid-opacity:1;vector-effect:none;fill:#000000;fill-opacity:1;fill-rule:nonzero;stroke:none;stroke-width:13.9711504;stroke-linecap:butt;stroke-linejoin:miter;stroke-miterlimit:4;stroke-dasharray:none;stroke-dashoffset:0;stroke-opacity:1;color-rendering:auto;image-rendering:auto;shape-rendering:auto;text-rendering:auto;enable-background:accumulate"
     d="m 897.26165,540.94227 c -53.1855,-52.35854 -98.9723,-54.43416 -133.9145,-43.39794 -17.4711,5.5181 -32.2039,14.59364 -43.1569,22.93088 -10.9529,8.33736 -17.8118,15.6113 -20.6825,18.45543 l -9.8345,-9.92429 c 2.2122,-2.19159 10.1944,-10.62031 22.0542,-19.64777 11.8597,-9.02749 27.9099,-18.9769 47.413,-25.1368 39.0058,-12.31974 91.9226,-8.36399 147.9214,46.76431 z"
     id="path29-8-7-9-1"
     inkscape:connector-curvature="0" />
  <path
     style="color:#000000;font-style:normal;font-variant:normal;font-weight:normal;font-stretch:normal;font-size:medium;line-height:normal;font-family:sans-serif;font-variant-ligatures:normal;font-variant-position:normal;font-variant-caps:normal;font-variant-numeric:normal;font-variant-alternates:normal;font-feature-settings:normal;text-indent:0;text-align:start;text-decoration:none;text-decoration-line:none;text-decoration-style:solid;text-decoration-color:#000000;letter-spacing:normal;word-spacing:normal;text-transform:none;writing-mode:lr-tb;direction:ltr;text-orientation:mixed;dominant-baseline:auto;baseline-shift:baseline;text-anchor:start;white-space:normal;shape-padding:0;clip-rule:nonzero;display:inline;overflow:visible;visibility:visible;opacity:1;isolation:auto;mix-blend-mode:normal;color-interpolation:sRGB;color-interpolation-filters:linearRGB;solid-color:#000000;solid-opacity:1;vector-effect:none;fill:#000000;fill-opacity:1;fill-rule:nonzero;stroke:none;stroke-width:13.9711504;stroke-linecap:butt;stroke-linejoin:miter;stroke-miterlimit:4;stroke-dasharray:none;stroke-dashoffset:0;stroke-opacity:1;color-rendering:auto;image-rendering:auto;shape-rendering:auto;text-rendering:auto;enable-background:accumulate"
     d="m 167.95956,224.12939 c 13.8689,0.13227 25.0817,5.70917 32.3048,14.05204 7.2425,8.36559 10.6126,19.16059 10.515,29.79185 -0.097,10.63113 -3.6574,21.29988 -10.9886,29.41202 -7.3092,8.08755 -18.5272,13.26315 -32.1065,12.84033 -13.3183,-0.0346 -24.1556,-5.68795 -31.0351,-14.03717 -6.9011,-8.37494 -10.0718,-19.10065 -10.0033,-29.67652 0.069,-10.5759 3.3732,-21.20105 10.3487,-29.3694 6.9574,-8.14701 17.8366,-13.46637 30.965,-13.01315 z m -0.416,13.95607 c -9.3686,-0.34454 -15.4812,2.92623 -19.9251,8.13011 -4.4438,5.20384 -6.9517,12.71761 -7.0015,20.38595 -0.05,7.66827 2.3567,15.28986 6.816,20.70163 4.4593,5.41185 10.7274,8.96423 20.3688,8.96423 h 0.1172 l 0.1175,0.0101 c 10.0278,0.33688 16.6799,-3.04349 21.3886,-8.25372 4.7087,-5.21031 7.316,-12.61333 7.3855,-20.17262 0.069,-7.5593 -2.3945,-15.07585 -7.1082,-20.52037 -4.7138,-5.4444 -11.545,-9.15803 -21.9539,-9.23509 h -0.1027 z"
     id="path87-11-5-1-2"
     inkscape:connector-curvature="0" />
  <path
     style="color:#000000;font-style:normal;font-variant:normal;font-weight:normal;font-stretch:normal;font-size:medium;line-height:normal;font-family:sans-serif;font-variant-ligatures:normal;font-variant-position:normal;font-variant-caps:normal;font-variant-numeric:normal;font-variant-alternates:normal;font-feature-settings:normal;text-indent:0;text-align:start;text-decoration:none;text-decoration-line:none;text-decoration-style:solid;text-decoration-color:#000000;letter-spacing:normal;word-spacing:normal;text-transform:none;writing-mode:lr-tb;direction:ltr;text-orientation:mixed;dominant-baseline:auto;baseline-shift:baseline;text-anchor:start;white-space:normal;shape-padding:0;clip-rule:nonzero;display:inline;overflow:visible;visibility:visible;opacity:1;isolation:auto;mix-blend-mode:normal;color-interpolation:sRGB;color-interpolation-filters:linearRGB;solid-color:#000000;solid-opacity:1;vector-effect:none;fill:#000000;fill-opacity:1;fill-rule:nonzero;stroke:none;stroke-width:17.33714676;stroke-linecap:butt;stroke-linejoin:miter;stroke-miterlimit:4;stroke-dasharray:none;stroke-dashoffset:0;stroke-opacity:1;color-rendering:auto;image-rendering:auto;shape-rendering:auto;text-rendering:auto;enable-background:accumulate"
     d="m 237.44166,178.30154 7.8996,15.4324 c 0,0 -34.9659,17.90211 -70.2712,35.80984 -17.6527,8.95376 -35.3881,17.90706 -48.9042,24.63763 -6.7582,3.36524 -12.4547,6.17205 -16.6014,8.16404 -2.0733,0.99614 -3.7492,1.7855 -5.0475,2.36806 -0.6491,0.29127 -1.1913,0.52628 -1.7472,0.74674 -0.2779,0.11015 -0.5481,0.21594 -0.9578,0.34771 -0.4097,0.13177 -0.3761,0.4693 -2.877704,0.4693 v -17.33749 c -2.4199,0 -2.2362,0.30181 -2.432,0.36484 -0.1959,0.0628 -0.1875,0.0654 -0.1238,0.0402 0.1272,-0.0505 0.5195,-0.21716 1.039,-0.45023 1.0386,-0.46611 2.636104,-1.21434 4.637804,-2.17598 4.0032,-1.92306 9.6613,-4.71097 16.3815,-8.0575 13.4409,-6.69288 31.1577,-15.63589 48.7912,-24.57994 35.2667,-17.88808 70.2137,-35.78 70.2137,-35.78 z"
     id="path1039-4-3"
     inkscape:connector-curvature="0" />
  <path
     style="color:#000000;font-style:normal;font-variant:normal;font-weight:normal;font-stretch:normal;font-size:medium;line-height:normal;font-family:sans-serif;font-variant-ligatures:normal;font-variant-position:normal;font-variant-caps:normal;font-variant-numeric:normal;font-variant-alternates:normal;font-feature-settings:normal;text-indent:0;text-align:start;text-decoration:none;text-decoration-line:none;text-decoration-style:solid;text-decoration-color:#000000;letter-spacing:normal;word-spacing:normal;text-transform:none;writing-mode:lr-tb;direction:ltr;text-orientation:mixed;dominant-baseline:auto;baseline-shift:baseline;text-anchor:start;white-space:normal;shape-padding:0;clip-rule:nonzero;display:inline;overflow:visible;visibility:visible;opacity:1;isolation:auto;mix-blend-mode:normal;color-interpolation:sRGB;color-interpolation-filters:linearRGB;solid-color:#000000;solid-opacity:1;vector-effect:none;fill:#000000;fill-opacity:1;fill-rule:nonzero;stroke:none;stroke-width:13.9711504;stroke-linecap:butt;stroke-linejoin:miter;stroke-miterlimit:4;stroke-dasharray:none;stroke-dashoffset:0;stroke-opacity:1;color-rendering:auto;image-rendering:auto;shape-rendering:auto;text-rendering:auto;enable-background:accumulate"
     d="m 363.74054,227.18647 c 13.1273,-0.45258 24.0059,4.86444 30.9629,13.011 6.9753,8.16825 10.28,18.7935 10.3487,29.36938 0.068,10.57587 -3.1024,21.30158 -10.0032,29.67652 -6.8797,8.34922 -17.7149,14.00239 -31.0332,14.03717 -13.5791,0.42274 -24.7996,-4.75269 -32.1085,-12.84042 -7.3311,-8.11203 -10.8912,-18.78079 -10.9886,-29.41203 -0.097,-10.63114 3.2724,-21.42625 10.515,-29.79176 7.2231,-8.34284 18.4379,-13.91772 32.3069,-14.04986 z m 0.4138,13.95392 -0.1027,0.0101 h -0.1027 c -10.4089,0.0767 -17.2401,3.79275 -21.9538,9.23724 -4.7138,5.44441 -7.1755,12.95883 -7.106,20.51822 0.069,7.5593 2.6746,14.96232 7.3832,20.17254 4.7088,5.21031 11.3631,8.59069 21.3908,8.25381 l 0.1173,-0.0101 h 0.1175 c 9.6413,0 15.9094,-3.55229 20.3689,-8.96414 4.4593,-5.41186 6.8634,-13.03337 6.8137,-20.70163 -0.05,-7.66834 -2.5576,-15.1821 -7.0015,-20.38595 -4.4439,-5.20387 -10.5566,-8.47484 -19.9252,-8.1301 z"
     id="path87-11-5-8-6-8"
     inkscape:connector-curvature="0" />
  <path
     style="color:#000000;font-style:normal;font-variant:normal;font-weight:normal;font-stretch:normal;font-size:medium;line-height:normal;font-family:sans-serif;font-variant-ligatures:normal;font-variant-position:normal;font-variant-caps:normal;font-variant-numeric:normal;font-variant-alternates:normal;font-feature-settings:normal;text-indent:0;text-align:start;text-decoration:none;text-decoration-line:none;text-decoration-style:solid;text-decoration-color:#000000;letter-spacing:normal;word-spacing:normal;text-transform:none;writing-mode:lr-tb;direction:ltr;text-orientation:mixed;dominant-baseline:auto;baseline-shift:baseline;text-anchor:start;white-space:normal;shape-padding:0;clip-rule:nonzero;display:inline;overflow:visible;visibility:visible;opacity:1;isolation:auto;mix-blend-mode:normal;color-interpolation:sRGB;color-interpolation-filters:linearRGB;solid-color:#000000;solid-opacity:1;vector-effect:none;fill:#000000;fill-opacity:1;fill-rule:nonzero;stroke:none;stroke-width:17.33714676;stroke-linecap:butt;stroke-linejoin:miter;stroke-miterlimit:4;stroke-dasharray:none;stroke-dashoffset:0;stroke-opacity:1;color-rendering:auto;image-rendering:auto;shape-rendering:auto;text-rendering:auto;enable-background:accumulate"
     d="m 294.25854,181.35648 c 0,0 34.9468,17.89183 70.2137,35.7799 17.6333,8.94406 35.3481,17.88931 48.7888,24.58218 6.7203,3.34654 12.3785,6.1322 16.3817,8.05537 2.0016,0.96153 3.5992,1.70984 4.6378,2.17597 0.5195,0.23306 0.9116,0.39963 1.0391,0.45014 0.063,0.0253 0.072,0.0224 -0.1239,-0.0402 -0.1958,-0.0627 -0.012,-0.36475 -2.432,-0.36475 v 17.3373 c -2.5021,0 -2.4658,-0.33527 -2.8758,-0.46704 -0.4096,-0.13188 -0.6798,-0.23767 -0.9577,-0.34783 -0.556,-0.22036 -1.0982,-0.45753 -1.7472,-0.74877 -1.2981,-0.58258 -2.9741,-1.37192 -5.0475,-2.36797 -4.1464,-1.99201 -9.8433,-4.79901 -16.6014,-8.16413 -13.5161,-6.73049 -31.2515,-15.68388 -48.904,-24.63764 -35.3054,-17.90773 -70.2734,-35.80985 -70.2734,-35.80985 z"
     id="path1039-1-4-4"
     inkscape:connector-curvature="0" />
  <path
     style="color:#000000;font-style:normal;font-variant:normal;font-weight:normal;font-stretch:normal;font-size:medium;line-height:normal;font-family:sans-serif;font-variant-ligatures:normal;font-variant-position:normal;font-variant-caps:normal;font-variant-numeric:normal;font-variant-alternates:normal;font-feature-settings:normal;text-indent:0;text-align:start;text-decoration:none;text-decoration-line:none;text-decoration-style:solid;text-decoration-color:#000000;letter-spacing:normal;word-spacing:normal;text-transform:none;writing-mode:lr-tb;direction:ltr;text-orientation:mixed;dominant-baseline:auto;baseline-shift:baseline;text-anchor:start;white-space:normal;shape-padding:0;clip-rule:nonzero;display:inline;overflow:visible;visibility:visible;opacity:1;isolation:auto;mix-blend-mode:normal;color-interpolation:sRGB;color-interpolation-filters:linearRGB;solid-color:#000000;solid-opacity:1;vector-effect:none;fill:#000000;fill-opacity:1;fill-rule:nonzero;stroke:none;stroke-width:13.9711504;stroke-linecap:butt;stroke-linejoin:miter;stroke-miterlimit:4;stroke-dasharray:none;stroke-dashoffset:0;stroke-opacity:1;color-rendering:auto;image-rendering:auto;shape-rendering:auto;text-rendering:auto;enable-background:accumulate"
     d="M 363.89164,543.04564 C 310.70613,490.6871 264.91939,488.61148 229.9772,499.6477 c -17.47115,5.5181 -32.20397,14.59364 -43.15694,22.93088 -10.95287,8.33736 -17.81185,15.6113 -20.68253,18.45543 l -9.8345,-9.92429 c 2.21225,-2.19159 10.19439,-10.62031 22.05427,-19.64777 11.85962,-9.02749 27.90983,-18.9769 47.41291,-25.1368 39.0058,-12.31974 91.92265,-8.36399 147.92149,46.76431 z"
     id="path29-8-7-9-1-1"
     inkscape:connector-curvature="0" />
  <path
     style="color:#000000;font-style:normal;font-variant:normal;font-weight:normal;font-stretch:normal;font-size:medium;line-height:normal;font-family:sans-serif;font-variant-ligatures:normal;font-variant-position:normal;font-variant-caps:normal;font-variant-numeric:normal;font-variant-alternates:normal;font-feature-settings:normal;text-indent:0;text-align:start;text-decoration:none;text-decoration-line:none;text-decoration-style:solid;text-decoration-color:#000000;letter-spacing:normal;word-spacing:normal;text-transform:none;writing-mode:lr-tb;direction:ltr;text-orientation:mixed;dominant-baseline:auto;baseline-shift:baseline;text-anchor:start;white-space:normal;shape-padding:0;clip-rule:nonzero;display:inline;overflow:visible;visibility:visible;opacity:1;isolation:auto;mix-blend-mode:normal;color-interpolation:sRGB;color-interpolation-filters:linearRGB;solid-color:#000000;solid-opacity:1;vector-effect:none;fill:#000000;fill-opacity:1;fill-rule:nonzero;stroke:none;stroke-width:13.9711504;stroke-linecap:butt;stroke-linejoin:miter;stroke-miterlimit:4;stroke-dasharray:none;stroke-dashoffset:0;stroke-opacity:1;color-rendering:auto;image-rendering:auto;shape-rendering:auto;text-rendering:auto;enable-background:accumulate"
     d="m 701.32954,222.02602 c 13.86893,0.13227 25.08171,5.70917 32.30478,14.05204 7.24252,8.36559 10.61264,19.16059 10.51508,29.79185 -0.0972,10.63113 -3.65749,21.29988 -10.98861,29.41202 -7.3092,8.08755 -18.52722,13.26315 -32.10658,12.84033 -13.31823,-0.0346 -24.15552,-5.68795 -31.03509,-14.03717 -6.90105,-8.37494 -10.07177,-19.10065 -10.0033,-29.67652 0.0693,-10.5759 3.37319,-21.20105 10.34878,-29.3694 6.95739,-8.14701 17.83657,-13.46637 30.96494,-13.01315 z m -0.41599,13.95607 c -9.36857,-0.34454 -15.48123,2.92623 -19.92509,8.13011 -4.44376,5.20384 -6.95173,12.71761 -7.00151,20.38595 -0.0496,7.66827 2.35666,15.28986 6.81597,20.70163 4.45929,5.41185 10.72748,8.96423 20.36885,8.96423 h 0.11719 l 0.11747,0.0101 c 10.02781,0.33688 16.67992,-3.04349 21.38864,-8.25372 4.70866,-5.21031 7.31603,-12.61333 7.38545,-20.17262 0.0693,-7.5593 -2.39444,-15.07585 -7.10814,-20.52037 -4.71379,-5.4444 -11.54498,-9.15803 -21.95392,-9.23509 h -0.10266 z"
     id="path87-11-5-1-2-8"
     inkscape:connector-curvature="0" />
  <path
     style="color:#000000;font-style:normal;font-variant:normal;font-weight:normal;font-stretch:normal;font-size:medium;line-height:normal;font-family:sans-serif;font-variant-ligatures:normal;font-variant-position:normal;font-variant-caps:normal;font-variant-numeric:normal;font-variant-alternates:normal;font-feature-settings:normal;text-indent:0;text-align:start;text-decoration:none;text-decoration-line:none;text-decoration-style:solid;text-decoration-color:#000000;letter-spacing:normal;word-spacing:normal;text-transform:none;writing-mode:lr-tb;direction:ltr;text-orientation:mixed;dominant-baseline:auto;baseline-shift:baseline;text-anchor:start;white-space:normal;shape-padding:0;clip-rule:nonzero;display:inline;overflow:visible;visibility:visible;opacity:1;isolation:auto;mix-blend-mode:normal;color-interpolation:sRGB;color-interpolation-filters:linearRGB;solid-color:#000000;solid-opacity:1;vector-effect:none;fill:#000000;fill-opacity:1;fill-rule:nonzero;stroke:none;stroke-width:17.33714676;stroke-linecap:butt;stroke-linejoin:miter;stroke-miterlimit:4;stroke-dasharray:none;stroke-dashoffset:0;stroke-opacity:1;color-rendering:auto;image-rendering:auto;shape-rendering:auto;text-rendering:auto;enable-background:accumulate"
     d="m 770.81169,176.19817 7.89955,15.4324 c 0,0 -34.96587,17.90211 -70.27122,35.80984 -17.65269,8.95376 -35.38804,17.90706 -48.90417,24.63763 -6.75817,3.36524 -12.45472,6.17205 -16.60136,8.16404 -2.07329,0.99614 -3.74926,1.7855 -5.04749,2.36806 -0.64915,0.29127 -1.19134,0.52628 -1.74724,0.74674 -0.27787,0.11015 -0.54807,0.21594 -0.9578,0.34771 -0.40973,0.13177 -0.37607,0.4693 -2.87768,0.4693 V 246.8364 c -2.4199,0 -2.23619,0.30181 -2.43203,0.36484 -0.19585,0.0628 -0.18754,0.0654 -0.12384,0.0402 0.12727,-0.0505 0.51953,-0.21716 1.03906,-0.45023 1.03861,-0.46611 2.63611,-1.21434 4.63775,-2.17598 4.00326,-1.92306 9.66138,-4.71097 16.38157,-8.0575 13.44085,-6.69288 31.15769,-15.63589 48.79119,-24.57994 35.26665,-17.88808 70.21371,-35.78 70.21371,-35.78 z"
     id="path1039-4-3-1"
     inkscape:connector-curvature="0" />
  <path
     style="color:#000000;font-style:normal;font-variant:normal;font-weight:normal;font-stretch:normal;font-size:medium;line-height:normal;font-family:sans-serif;font-variant-ligatures:normal;font-variant-position:normal;font-variant-caps:normal;font-variant-numeric:normal;font-variant-alternates:normal;font-feature-settings:normal;text-indent:0;text-align:start;text-decoration:none;text-decoration-line:none;text-decoration-style:solid;text-decoration-color:#000000;letter-spacing:normal;word-spacing:normal;text-transform:none;writing-mode:lr-tb;direction:ltr;text-orientation:mixed;dominant-baseline:auto;baseline-shift:baseline;text-anchor:start;white-space:normal;shape-padding:0;clip-rule:nonzero;display:inline;overflow:visible;visibility:visible;opacity:1;isolation:auto;mix-blend-mode:normal;color-interpolation:sRGB;color-interpolation-filters:linearRGB;solid-color:#000000;solid-opacity:1;vector-effect:none;fill:#000000;fill-opacity:1;fill-rule:nonzero;stroke:none;stroke-width:13.9711504;stroke-linecap:butt;stroke-linejoin:miter;stroke-miterlimit:4;stroke-dasharray:none;stroke-dashoffset:0;stroke-opacity:1;color-rendering:auto;image-rendering:auto;shape-rendering:auto;text-rendering:auto;enable-background:accumulate"
     d="m 897.11053,225.0831 c 13.12726,-0.45258 24.00588,4.86444 30.96287,13.011 6.97534,8.16825 10.28007,18.7935 10.34872,29.36938 0.0682,10.57587 -3.10235,21.30158 -10.00323,29.67652 -6.87966,8.34922 -17.71487,14.00239 -31.03311,14.03717 -13.57918,0.42274 -24.79962,-4.75269 -32.10856,-12.84042 -7.3311,-8.11203 -10.89115,-18.78079 -10.98862,-29.41203 -0.0971,-10.63114 3.27248,-21.42625 10.515,-29.79176 7.22309,-8.34284 18.43793,-13.91772 32.30693,-14.04986 z m 0.41377,13.95392 -0.10266,0.0101 h -0.10266 c -10.40892,0.0767 -17.24013,3.79275 -21.95382,9.23724 -4.71378,5.44441 -7.17557,12.95883 -7.10607,20.51822 0.0692,7.5593 2.67463,14.96232 7.38327,20.17254 4.70875,5.21031 11.36308,8.59069 21.39081,8.25381 l 0.11728,-0.0101 h 0.11747 c 9.64136,0 15.90946,-3.55229 20.36895,-8.96414 4.4593,-5.41186 6.86337,-13.03337 6.81371,-20.70163 -0.0496,-7.66834 -2.55764,-15.1821 -7.00152,-20.38595 -4.44396,-5.20387 -10.55661,-8.47484 -19.92525,-8.1301 z"
     id="path87-11-5-8-6-8-6"
     inkscape:connector-curvature="0" />
  <path
     style="color:#000000;font-style:normal;font-variant:normal;font-weight:normal;font-stretch:normal;font-size:medium;line-height:normal;font-family:sans-serif;font-variant-ligatures:normal;font-variant-position:normal;font-variant-caps:normal;font-variant-numeric:normal;font-variant-alternates:normal;font-feature-settings:normal;text-indent:0;text-align:start;text-decoration:none;text-decoration-line:none;text-decoration-style:solid;text-decoration-color:#000000;letter-spacing:normal;word-spacing:normal;text-transform:none;writing-mode:lr-tb;direction:ltr;text-orientation:mixed;dominant-baseline:auto;baseline-shift:baseline;text-anchor:start;white-space:normal;shape-padding:0;clip-rule:nonzero;display:inline;overflow:visible;visibility:visible;opacity:1;isolation:auto;mix-blend-mode:normal;color-interpolation:sRGB;color-interpolation-filters:linearRGB;solid-color:#000000;solid-opacity:1;vector-effect:none;fill:#000000;fill-opacity:1;fill-rule:nonzero;stroke:none;stroke-width:17.33714676;stroke-linecap:butt;stroke-linejoin:miter;stroke-miterlimit:4;stroke-dasharray:none;stroke-dashoffset:0;stroke-opacity:1;color-rendering:auto;image-rendering:auto;shape-rendering:auto;text-rendering:auto;enable-background:accumulate"
     d="m 827.62857,179.25311 c 0,0 34.94679,17.89183 70.21362,35.7799 17.63333,8.94406 35.34819,17.88931 48.78885,24.58218 6.72028,3.34654 12.37848,6.1322 16.38173,8.05537 2.00153,0.96153 3.59915,1.70984 4.63775,2.17597 0.51953,0.23306 0.91159,0.39963 1.03907,0.45014 0.0628,0.0253 0.072,0.0224 -0.12383,-0.0402 -0.19584,-0.0627 -0.0122,-0.36475 -2.43204,-0.36475 v 17.3373 c -2.5021,0 -2.46582,-0.33527 -2.87575,-0.46704 -0.40963,-0.13188 -0.67982,-0.23767 -0.95778,-0.34783 -0.55591,-0.22036 -1.09817,-0.45753 -1.74719,-0.74877 -1.29805,-0.58258 -2.97402,-1.37192 -5.04751,-2.36797 -4.14636,-1.99201 -9.84328,-4.79901 -16.60134,-8.16413 -13.51615,-6.73049 -31.25151,-15.68388 -48.904,-24.63764 -35.30544,-17.90773 -70.27337,-35.80985 -70.27337,-35.80985 z"
     id="path1039-1-4-4-5"
     inkscape:connector-curvature="0" />
  <path
     inkscape:connector-curvature="0"
     style="font-style:normal;font-weight:normal;font-size:233.33332825px;line-height:1.25;font-family:sans-serif;letter-spacing:0px;word-spacing:0px;fill:#000000;fill-opacity:1;stroke:none"
     d="m 0,1076.8223 v 169.6465 h 60.15625 c 11.77301,0 21.45725,-1.0647 29.05274,-3.1915 7.67144,-2.1267 14.69791,-5.6959 21.07812,-10.7089 5.39279,-4.1776 9.68294,-9.495 12.87305,-15.9512 3.1901,-6.4562 4.78515,-13.8991 4.78515,-22.3301 0,-11.773 -3.30403,-21.4946 -9.91211,-29.166 -6.60807,-7.7474 -15.64605,-12.7997 -27.11523,-15.1543 v -0.9102 c 6.83594,-3.4179 12.30469,-7.9379 16.40625,-13.5586 4.10156,-5.6966 6.15234,-12.5698 6.15234,-20.621 0,-7.1398 -1.40451,-13.2548 -4.21484,-18.3438 -2.81033,-5.1649 -7.3303,-9.3804 -13.55859,-12.6465 -5.62066,-2.8863 -11.50781,-4.7858 -17.66016,-5.6972 -6.15234,-0.9115 -15.41818,-1.3672 -27.79882,-1.3672 z m 634.83008,0 v 169.6465 h 60.15625 c 11.773,0 21.45725,-1.0647 29.05273,-3.1915 7.67144,-2.1267 14.69792,-5.6959 21.07813,-10.7089 5.39279,-4.1776 9.68489,-9.495 12.875,-15.9512 3.1901,-6.4562 4.78515,-13.8991 4.78515,-22.3301 0,-11.773 -3.30403,-21.4946 -9.91211,-29.166 -6.60807,-7.7474 -15.648,-12.7997 -27.11718,-15.1543 v -0.9102 c 6.83593,-3.4179 12.30468,-7.9379 16.40625,-13.5586 4.10156,-5.6966 6.15234,-12.5698 6.15234,-20.621 0,-7.1398 -1.40451,-13.2548 -4.21484,-18.3438 -2.81033,-5.1649 -7.3303,-9.3804 -13.5586,-12.6465 -5.62066,-2.8863 -11.50586,-4.7858 -17.6582,-5.6972 -6.15234,-0.9115 -15.42014,-1.3672 -27.80078,-1.3672 z M 22.5586,1096.0781 h 26.88867 c 7.51953,0 13.82313,0.2652 18.91211,0.7969 5.08898,0.4557 9.4184,1.709 12.98828,3.7598 3.0382,1.7469 5.24024,4.0256 6.60742,6.8359 1.36719,2.8103 2.05078,6.2656 2.05078,10.3672 0,4.9371 -0.75824,9.2292 -2.27734,12.875 -1.44314,3.5699 -3.94965,6.4948 -7.51953,8.7734 -3.56988,2.2787 -7.44358,3.7971 -11.62109,4.5567 -4.17752,0.6836 -9.79948,1.0254 -16.86329,1.0254 H 22.5586 Z m 634.83007,0 h 26.88867 c 7.51953,0 13.82314,0.2652 18.91211,0.7969 5.08898,0.4557 9.41841,1.709 12.98828,3.7598 3.0382,1.7469 5.24219,4.0256 6.60938,6.8359 1.36719,2.8103 2.05078,6.2656 2.05078,10.3672 0,4.9371 -0.7602,9.2292 -2.2793,12.875 -1.44314,3.5699 -3.94965,6.4948 -7.51953,8.7734 -3.56988,2.2787 -7.44357,3.7971 -11.62109,4.5567 -4.17752,0.6836 -9.79753,1.0254 -16.86133,1.0254 h -29.16797 z m -449.34765,19.5957 c -18.00131,0 -32.31945,6.0384 -42.95313,18.1153 -10.55772,12.0008 -15.83594,28.3698 -15.83594,49.1054 0,20.7357 5.27822,37.1027 15.83594,49.1035 10.63368,12.0009 24.95182,18.002 42.95313,18.002 17.84939,0 32.09092,-6.0011 42.7246,-18.002 10.63369,-12.0008 15.94922,-28.3678 15.94922,-49.1035 0,-20.7356 -5.31553,-37.1046 -15.94922,-49.1054 -10.63368,-12.0769 -24.87521,-18.1153 -42.7246,-18.1153 z m 154.60546,0 c -7.51953,0 -14.62066,1.5578 -21.30468,4.6719 -6.60808,3.1142 -13.25543,7.4436 -19.93946,12.9883 v -14.1289 h -21.41796 v 127.2637 h 21.41796 v -95.0196 c 5.84853,-4.4813 11.69835,-8.1664 17.54688,-11.0527 5.92448,-2.8863 11.80968,-4.3281 17.6582,-4.3281 6.15235,0 10.86285,0.8348 14.12891,2.5058 3.26606,1.5951 5.77257,4.025 7.51953,7.291 1.59505,3.0382 2.62044,7.1025 3.07617,12.1914 0.53169,5.0131 0.79688,10.3306 0.79688,15.9512 v 72.461 h 21.41992 v -81.4629 c 0,-2.2787 -0.0766,-4.5573 -0.22852,-6.836 -0.15191,-2.3546 -0.34245,-4.4054 -0.57031,-6.1523 6.00043,-4.6333 12.00152,-8.4304 18.00195,-11.3926 6.00044,-3.0382 12.00152,-4.5566 18.00196,-4.5566 6.15234,0 10.86089,0.8348 14.12695,2.5058 3.26606,1.671 5.77257,4.1402 7.51953,7.4063 1.59505,3.0382 2.62044,7.1004 3.07617,12.1894 0.53169,5.089 0.79688,10.3692 0.79688,15.8379 v 72.461 h 21.41992 v -82.6016 c 0,-15.191 -3.34136,-27.0026 -10.02539,-35.4336 -6.60807,-8.507 -16.90126,-12.7598 -30.87695,-12.7598 -8.12717,0 -15.76064,1.6324 -22.9004,4.8985 -7.13975,3.1901 -15.03841,8.431 -23.69726,15.7226 -2.96224,-6.4561 -7.48221,-11.5065 -13.55859,-15.1523 -6.00044,-3.6459 -13.32943,-5.4688 -21.98829,-5.4688 z m 483.30077,0 c -18.53297,0 -33.49543,6.115 -44.88866,18.3438 -11.31727,12.2287 -16.97656,28.7489 -16.97656,49.5605 0,21.0395 5.92448,37.2926 17.77344,48.7617 11.84896,11.3933 28.33181,17.0899 49.44728,17.0899 8.2791,0 16.1777,-1.0254 23.6973,-3.0762 7.5195,-2.0508 14.8878,-4.5946 22.1035,-7.6328 v -23.3555 h -1.1407 c -3.7217,3.342 -9.988,6.76 -18.7988,10.2539 -8.7348,3.418 -17.431,5.127 -26.0898,5.127 -6.5321,0 -12.5332,-0.9115 -18.002,-2.7344 -5.39278,-1.8229 -10.064,-4.5573 -14.01366,-8.2031 -4.10156,-3.7218 -7.32899,-8.4696 -9.68359,-14.2422 -2.3546,-5.8485 -3.53125,-12.6845 -3.53125,-20.5078 h 93.7656 v -11.6211 c 0,-18.457 -4.6712,-32.6986 -14.0136,-42.7246 -9.2665,-10.0261 -22.4827,-15.0391 -39.6485,-15.0391 z m 148.7949,0 c -7.5195,0 -14.6206,1.5578 -21.3046,4.6719 -6.6081,3.1142 -13.2535,7.4436 -19.9375,12.9883 v -14.1289 h -21.42 v 127.2637 h 21.42 v -95.0196 c 5.8485,-4.4813 11.6964,-8.1664 17.5449,-11.0527 5.9245,-2.8863 11.8116,-4.3281 17.6601,-4.3281 6.1524,0 10.8609,0.8348 14.12705,2.5058 3.2661,1.5951 5.7726,4.025 7.5196,7.291 1.595,3.0382 2.6204,7.1025 3.0761,12.1914 0.5317,5.0131 0.7969,10.3306 0.7969,15.9512 v 72.461 h 21.4199 v -81.4629 c 0,-2.2787 -0.077,-4.5573 -0.2285,-6.836 -0.1519,-2.3546 -0.3405,-4.4054 -0.5683,-6.1523 6.0004,-4.6333 11.9995,-8.4304 18,-11.3926 6.0004,-3.0382 12.0015,-4.5566 18.0019,-4.5566 6.1524,0 10.8609,0.8348 14.127,2.5058 3.266,1.671 5.7725,4.1402 7.5195,7.4063 1.595,3.0382 2.6204,7.1004 3.0762,12.1894 0.5316,5.089 0.7988,10.3692 0.7988,15.8379 v 72.461 h 21.418 v -82.6016 c 0,-15.191 -3.3414,-27.0026 -10.0254,-35.4336 -6.6081,-8.507 -16.8993,-12.7598 -30.875,-12.7598 -8.1272,0 -15.7607,1.6324 -22.9004,4.8985 -7.1398,3.1901 -15.0404,8.431 -23.6992,15.7226 -2.9623,-6.4561 -7.4803,-11.5065 -13.5567,-15.1523 -6.0004,-3.6459 -13.3314,-5.4688 -21.99035,-5.4688 z m -149.9336,17.6602 c 11.3933,0 19.8616,3.0762 25.4063,9.2285 5.6207,6.1523 8.469,14.8485 8.5449,26.0898 h -72.916 c 0.91146,-10.026 4.74588,-18.4197 11.50586,-25.1796 6.83594,-6.76 15.98984,-10.1387 27.45894,-10.1387 z m -636.76753,0.7969 c 11.46918,0 20.43055,4.0249 26.88671,12.0761 6.45617,7.9753 9.68555,20.2053 9.68555,36.6875 0,16.1025 -3.26671,28.2539 -9.79883,36.4571 -6.45616,8.1271 -15.38021,12.1914 -26.77343,12.1914 -11.54514,0 -20.54579,-4.1016 -27.00196,-12.3047 -6.45616,-8.2791 -9.68554,-20.3932 -9.68554,-36.3438 0,-16.4822 3.1901,-28.7122 9.57031,-36.6875 6.45616,-8.0512 15.49609,-12.0761 27.11719,-12.0761 z m 315.25,27.7988 v 20.623 h 71.09375 v -20.623 z m -500.73242,2.166 h 35.43359 c 7.44358,0 13.74718,0.3025 18.91211,0.9102 5.24089,0.5316 9.68425,1.7476 13.33008,3.6464 5.39279,2.8104 9.11523,6.2283 11.16601,10.2539 2.05078,4.0257 3.07617,9.4571 3.07617,16.293 0,6.0005 -0.98806,10.8995 -2.96289,14.6973 -1.97482,3.7977 -5.08832,7.1764 -9.34179,10.1387 -4.02561,2.7343 -9.19184,4.6339 -15.49609,5.6972 -6.30426,0.9874 -14.39345,1.4805 -24.26758,1.4805 H 22.5586 Z m 634.83007,0 h 35.4336 c 7.44357,0 13.74717,0.3025 18.91211,0.9102 5.24088,0.5316 9.68424,1.7476 13.33007,3.6464 5.3928,2.8104 9.11524,6.2283 11.16602,10.2539 2.05078,4.0257 3.07617,9.4571 3.07617,16.293 0,6.0005 -0.98806,10.8995 -2.96289,14.6973 -1.97483,3.7977 -5.08832,7.1764 -9.3418,10.1387 -4.0256,2.7343 -9.18988,4.6339 -15.49414,5.6972 -6.30425,0.9874 -14.39344,1.4805 -24.26758,1.4805 h -29.85156 z"
     id="text4711" />
</svg>
