<?xml version="1.0" encoding="UTF-8" standalone="no"?>
<!-- Created with Inkscape (http://www.inkscape.org/) -->

<svg
   xmlns:dc="http://purl.org/dc/elements/1.1/"
   xmlns:cc="http://creativecommons.org/ns#"
   xmlns:rdf="http://www.w3.org/1999/02/22-rdf-syntax-ns#"
   xmlns:svg="http://www.w3.org/2000/svg"
   xmlns="http://www.w3.org/2000/svg"
   xmlns:sodipodi="http://sodipodi.sourceforge.net/DTD/sodipodi-0.dtd"
   xmlns:inkscape="http://www.inkscape.org/namespaces/inkscape"
   width="1000"
   height="1250"
   viewBox="0 0 1000 1250"
   version="1.1"
   id="svg58798"
   inkscape:version="0.92.4 (5da689c313, 2019-01-14)"
   sodipodi:docname="Rato.svg">
  <defs
     id="defs58792" />
  <sodipodi:namedview
     id="base"
     pagecolor="#ffffff"
     bordercolor="#666666"
     borderopacity="1.0"
     inkscape:pageopacity="0.0"
     inkscape:pageshadow="2"
     inkscape:zoom="2.8284271"
     inkscape:cx="1041.4659"
     inkscape:cy="45.827073"
     inkscape:document-units="px"
     inkscape:current-layer="layer1"
     showgrid="false"
     units="px"
     inkscape:window-width="1366"
     inkscape:window-height="715"
     inkscape:window-x="-8"
     inkscape:window-y="-8"
     inkscape:window-maximized="1"
     inkscape:snap-global="true" />
  <metadata
     id="metadata58795">
    <rdf:RDF>
      <cc:Work
         rdf:about="">
        <dc:format>image/svg+xml</dc:format>
        <dc:type
           rdf:resource="http://purl.org/dc/dcmitype/StillImage" />
        <dc:title></dc:title>
      </cc:Work>
    </rdf:RDF>
  </metadata>
  <g
     inkscape:label="Camada 1"
     inkscape:groupmode="layer"
     id="layer1"
     transform="translate(0,217.58335)">
    <path
       style="color:#000000;font-style:normal;font-variant:normal;font-weight:normal;font-stretch:normal;font-size:medium;line-height:normal;font-family:sans-serif;font-variant-ligatures:normal;font-variant-position:normal;font-variant-caps:normal;font-variant-numeric:normal;font-variant-alternates:normal;font-feature-settings:normal;text-indent:0;text-align:start;text-decoration:none;text-decoration-line:none;text-decoration-style:solid;text-decoration-color:#000000;letter-spacing:normal;word-spacing:normal;text-transform:none;writing-mode:lr-tb;direction:ltr;text-orientation:mixed;dominant-baseline:auto;baseline-shift:baseline;text-anchor:start;white-space:normal;shape-padding:0;clip-rule:nonzero;display:inline;overflow:visible;visibility:visible;opacity:1;isolation:auto;mix-blend-mode:normal;color-interpolation:sRGB;color-interpolation-filters:linearRGB;solid-color:#000000;solid-opacity:1;vector-effect:none;fill:#000000;fill-opacity:1;fill-rule:nonzero;stroke:none;stroke-width:38.60461044;stroke-linecap:butt;stroke-linejoin:miter;stroke-miterlimit:4;stroke-dasharray:none;stroke-dashoffset:0;stroke-opacity:1;color-rendering:auto;image-rendering:auto;shape-rendering:auto;text-rendering:auto;enable-background:accumulate"
       d="m 673.10067,-217.31342 c -148.74623,-0.0332 -250.9312,59.69573 -309.70879,149.04336 -58.78773,89.36307 -75.19456,206.04946 -62.34599,321.55379 2.7567,24.78184 6.86266,49.53269 12.22671,73.98631 l 21.69926,8.57125 70.8593,179.19155 c -5.87929,2.80537 -10.82335,5.88102 -16.32959,11.06931 9.03685,15.56349 18.64692,30.50992 28.79044,44.72258 62.23858,87.20614 146.03455,147.95404 241.34364,147.38625 95.2643,-0.56753 178.37314,-61.95165 240.24397,-149.45203 61.8708,-87.50048 103.94848,-202.28655 117.92228,-317.50387 13.9738,-115.21736 -0.027,-231.28884 -54.31305,-320.29797 -54.27827,-88.99277 -150.45257,-148.76331 -290.31387,-148.27053 z m 0.0593,38.60399 h 0.0442 0.0378 c 129.19055,-0.47559 209.31812,51.11335 257.29061,129.76737 47.97248,78.65401 62.1679,186.54372 48.94795,295.54535 -13.21995,109.0015 -53.72407,218.69396 -111.12303,299.87011 -57.39893,81.17612 -130.24881,132.66473 -208.95201,133.13363 -78.65824,0.4685 -152.01778,-50.40424 -209.6877,-131.20901 -9.57023,-13.40928 -18.66763,-27.6106 -27.24119,-42.46991 -7.40258,5.68824 -14.11673,7.97496 -16.64604,9.10473 L 334.9719,335.84129 c 7.29852,2.62639 14.56551,5.28435 21.97596,7.79871 -8.06323,-31.10524 -13.99816,-62.88694 -17.5283,-94.6217 -12.12628,-109.01104 4.17747,-216.95883 56.22283,-296.07288 52.04546,-79.11406 138.79017,-131.70497 277.51773,-131.65485 z"
       id="path10-9-5"
       inkscape:connector-curvature="0"
       sodipodi:nodetypes="cssccccssssccccccsssscccccsscc" />
    <path
       style="color:#000000;font-style:normal;font-variant:normal;font-weight:normal;font-stretch:normal;font-size:medium;line-height:normal;font-family:sans-serif;font-variant-ligatures:normal;font-variant-position:normal;font-variant-caps:normal;font-variant-numeric:normal;font-variant-alternates:normal;font-feature-settings:normal;text-indent:0;text-align:start;text-decoration:none;text-decoration-line:none;text-decoration-style:solid;text-decoration-color:#000000;letter-spacing:normal;word-spacing:normal;text-transform:none;writing-mode:lr-tb;direction:ltr;text-orientation:mixed;dominant-baseline:auto;baseline-shift:baseline;text-anchor:start;white-space:normal;shape-padding:0;clip-rule:nonzero;display:inline;overflow:visible;visibility:visible;opacity:1;isolation:auto;mix-blend-mode:normal;color-interpolation:sRGB;color-interpolation-filters:linearRGB;solid-color:#000000;solid-opacity:1;vector-effect:none;fill:#000000;fill-opacity:1;fill-rule:nonzero;stroke:none;stroke-width:19.30230522;stroke-linecap:butt;stroke-linejoin:miter;stroke-miterlimit:4;stroke-dasharray:none;stroke-dashoffset:0;stroke-opacity:1;color-rendering:auto;image-rendering:auto;shape-rendering:auto;text-rendering:auto;enable-background:accumulate"
       d="m 652.4844,247.62604 c 0,0 -2.17218,21.48571 -5.7734,44.0534 -1.80062,11.28383 -3.96675,22.83472 -6.29754,31.81263 -1.16542,4.48896 -2.39146,8.34967 -3.48472,11.00782 -1.09325,2.65817 -2.50539,4.04184 -1.49133,3.19679 -2.13593,1.7799 -4.39816,3.27005 -5.58142,8.00296 -0.59165,2.36648 -0.24834,5.88824 1.26245,8.35001 1.51064,2.46178 3.46874,3.66435 4.9539,4.36324 5.94067,2.79558 8.99148,1.72561 13.03069,1.44706 8.07846,-0.55718 16.83289,-2.35514 16.83289,-2.35514 l -3.78739,-18.92958 c 0,0 -4.12694,0.52788 -6.62243,0.93759 1.28041,-3.43251 2.48808,-7.01842 3.56592,-11.1702 2.60473,-10.03302 4.82617,-21.99472 6.68147,-33.62147 3.71064,-23.25347 5.92105,-45.15343 5.92105,-45.15343 z"
       id="path971-8"
       inkscape:connector-curvature="0" />
    <path
       style="color:#000000;font-style:normal;font-variant:normal;font-weight:normal;font-stretch:normal;font-size:medium;line-height:normal;font-family:sans-serif;font-variant-ligatures:normal;font-variant-position:normal;font-variant-caps:normal;font-variant-numeric:normal;font-variant-alternates:normal;font-feature-settings:normal;text-indent:0;text-align:start;text-decoration:none;text-decoration-line:none;text-decoration-style:solid;text-decoration-color:#000000;letter-spacing:normal;word-spacing:normal;text-transform:none;writing-mode:lr-tb;direction:ltr;text-orientation:mixed;dominant-baseline:auto;baseline-shift:baseline;text-anchor:start;white-space:normal;shape-padding:0;clip-rule:nonzero;display:inline;overflow:visible;visibility:visible;opacity:1;isolation:auto;mix-blend-mode:normal;color-interpolation:sRGB;color-interpolation-filters:linearRGB;solid-color:#000000;solid-opacity:1;vector-effect:none;fill:#000000;fill-opacity:1;fill-rule:nonzero;stroke:none;stroke-width:21.04326439;stroke-linecap:butt;stroke-linejoin:miter;stroke-miterlimit:4;stroke-dasharray:none;stroke-dashoffset:0;stroke-opacity:1;color-rendering:auto;image-rendering:auto;shape-rendering:auto;text-rendering:auto;enable-background:accumulate"
       d="m 275.81202,323.07865 -0.78258,0.0303 -0.7752,0.14023 c 0,0 -19.02573,3.4656 -39.12904,6.62981 -10.05165,1.58209 -20.38006,3.08971 -28.57159,4.03101 -4.09575,0.47064 -7.67377,0.79682 -10.26951,0.93026 -2.59576,0.13343 -4.90424,-0.3368 -3.08603,0.14024 l -0.5168,-0.14024 -0.53157,-0.0813 c 0,0 -48.26931,-6.79737 -71.04504,34.85436 l -0.53895,0.98129 -0.32485,1.07791 c 0,0 -1.24518,4.21408 -5.36733,8.91107 -4.12214,4.69701 -10.1163,9.2683 -22.045147,9.25068 h -0.62016 l -0.605392,0.0737 c 0,0 -12.486229,1.39634 -24.599612,9.95206 -12.113388,8.55568 -24.11571,25.40682 -23.905629,51.63554 l 0.03705,4.71764 0.664455,0.58326 c -0.871464,2.86824 -4.64561,10.68043 -17.615451,24.15663 l -0.221487,0.22907 -0.214104,0.24342 c 0,0 -22.404321,28.09454 -7.596939,61.15944 -0.106551,-0.0994 0.0812,0.1255 -3.373956,3.94244 l 0.28793,-0.30996 c 0,0 -9.4975478,9.88659 -13.3407866,26.48961 -3.725445,16.09416 -2.02848437,39.15686 14.2045786,66.02473 0.236512,1.61293 4.417518,30.13192 8.89632,58.46467 l 0.162423,1.06312 0.383908,1.00408 c 0,0 6.942634,18.99876 3.824309,40.12572 l -0.04429,0.33944 -0.02953,0.33226 c -0.413736,5.0289 -0.739294,7.05456 -2.687352,10.45401 -1.94806,3.3996 -6.188672,8.4637 -14.839504,16.3678 l 14.197068,15.5337 c 9.347366,-8.5406 15.117742,-14.8393 18.900065,-21.4398 3.691246,-6.4415 4.819826,-12.88028 5.330407,-18.73759 3.678505,-25.36608 -3.36482,-45.44441 -4.414933,-48.32807 v -0.008 C 41.030871,664.95 36.504723,634.05115 36.504723,634.05115 l -0.324842,-2.21486 -1.203403,-1.89001 c -15.229172,-24.03025 -15.386901,-41.1011 -12.75016,-52.49197 2.63674,-11.39088 7.855339,-16.49325 7.855339,-16.49325 l 0.147659,-0.15499 0.147658,-0.15498 c 5.65148,-6.24326 8.464178,-9.70786 9.54601,-15.45969 0.476312,-2.53237 -0.11204,-5.98791 -1.734966,-8.76343 l 0.02231,0.0151 c -12.618379,-23.7488 3.565913,-41.37341 3.565913,-41.37341 l -0.435589,0.47987 c 14.825271,-15.40404 20.959059,-25.60664 23.152574,-34.12346 1.09676,-4.25842 1.050038,-8.23193 0.07382,-11.4508 -0.06441,-0.21244 -0.179627,-0.33453 -0.251031,-0.53895 0.371273,-18.73333 7.521239,-27.23004 14.824738,-32.38851 7.575777,-5.35076 14.876417,-6.2385 14.876417,-6.2385 l -1.225551,0.0737 c 17.970791,0.0265 30.739071,-8.25588 37.903491,-16.41942 5.82255,-6.63457 8.06479,-12.4432 8.9037,-14.81736 16.41486,-29.92209 49.30997,-24.0902 49.30997,-24.0902 l -1.0485,-0.22181 c 4.09949,1.0759 6.17519,0.69552 9.50909,0.52417 3.3339,-0.17123 7.23266,-0.54754 11.59105,-1.04835 8.71678,-1.00166 19.22392,-2.53453 29.43538,-4.14175 19.83717,-3.12234 37.44531,-6.33414 38.50149,-6.52646 17.72666,-0.47625 32.28439,3.78874 32.32945,3.80216 7e-5,4e-5 0.0295,0.008 0.0295,0.008 39.01181,16.77002 91.28139,31.33275 91.28139,31.33275 l 0.36175,0.1032 0.36176,0.0737 c 13.61004,2.77555 25.7587,7.75938 25.7587,7.75938 l 0.5168,0.21395 0.53159,0.15498 c 25.60138,7.55926 33.86506,19.18042 37.39404,28.59376 3.29435,8.78738 2.07129,15.01261 1.89001,15.87309 -4.07966,10.77626 -19.93621,27.65004 -35.17922,40.22906 -15.45349,12.75274 -29.6347,21.86797 -29.6347,21.86797 l 2.51753,-1.18125 c -56.70261,17.89013 -63.53669,90.03371 -63.53669,90.03371 l -0.14028,1.18125 0.14028,1.18863 c 4.15862,36.75238 -5.85318,58.73006 -16.36776,72.24844 -10.51456,13.51839 -21.0337,17.94031 -21.0337,17.94031 l -1.65375,0.70876 -1.32153,1.22556 c -10.6655,9.86591 -15.49186,23.45274 -21.18875,37.05444 -5.69688,13.60173 -11.84192,27.43719 -21.63171,38.65657 l 15.85833,13.8354 c 12.49515,-14.3198 19.40837,-30.57648 25.18287,-44.36347 5.6985,-13.60559 10.69758,-24.48854 15.86571,-29.43537 3.57873,-1.77804 14.95134,-7.81072 26.53392,-22.70223 13.2922,-17.08951 24.74105,-45.05976 20.71624,-85.41204 0.10429,-0.75562 8.28998,-59.26968 48.91132,-72.08601 l 1.33628,-0.4282 1.18126,-0.75305 c 0,0 15.12466,-9.7084 31.6576,-23.35194 16.53295,-13.6435 34.99619,-30.39406 41.905,-49.93749 l 0.19202,-0.55373 0.13305,-0.56847 c 0,0 3.08336,-13.42484 -2.62832,-28.66017 -5.71163,-15.23535 -20.69901,-32.3997 -51.14089,-41.38819 l 1.04098,0.36931 c 0,0 -13.58162,-5.66704 -29.5978,-8.93327 l 0.71612,0.17727 c 0,0 -52.93117,-14.83511 -89.70147,-30.78642 l -0.55372,-0.24343 -0.58324,-0.17729 c 0,0 -17.73084,-5.42534 -39.53509,-4.73238 z"
       id="path1627"
       inkscape:connector-curvature="0" />
    <path
       style="color:#000000;font-style:normal;font-variant:normal;font-weight:normal;font-stretch:normal;font-size:medium;line-height:normal;font-family:sans-serif;font-variant-ligatures:normal;font-variant-position:normal;font-variant-caps:normal;font-variant-numeric:normal;font-variant-alternates:normal;font-feature-settings:normal;text-indent:0;text-align:start;text-decoration:none;text-decoration-line:none;text-decoration-style:solid;text-decoration-color:#000000;letter-spacing:normal;word-spacing:normal;text-transform:none;writing-mode:lr-tb;direction:ltr;text-orientation:mixed;dominant-baseline:auto;baseline-shift:baseline;text-anchor:start;white-space:normal;shape-padding:0;clip-rule:nonzero;display:inline;overflow:visible;visibility:visible;opacity:1;isolation:auto;mix-blend-mode:normal;color-interpolation:sRGB;color-interpolation-filters:linearRGB;solid-color:#000000;solid-opacity:1;vector-effect:none;fill:#000000;fill-opacity:1;fill-rule:nonzero;stroke:none;stroke-width:21.04326439;stroke-linecap:butt;stroke-linejoin:miter;stroke-miterlimit:4;stroke-dasharray:none;stroke-dashoffset:0;stroke-opacity:1;color-rendering:auto;image-rendering:auto;shape-rendering:auto;text-rendering:auto;enable-background:accumulate"
       d="m 219.00108,377.05455 c -25.71932,-0.32055 -49.0811,3.46256 -49.0811,3.46256 l 3.32966,20.77529 c 0,0 22.00875,-3.48932 45.49305,-3.19675 11.74214,0.14629 23.78458,1.30444 32.96437,3.94981 9.17977,2.64537 14.57974,6.5265 16.49325,10.46149 l 0.037,0.0665 0.0295,0.0665 c 0,0 8.69032,17.26223 17.0322,38.1471 8.32546,20.84374 15.55025,46.33597 14.66971,56.59684 -0.02,0.1667 -1.33754,11.15819 -4.821,21.52835 -1.75488,5.22424 -4.13201,10.10662 -6.24588,12.72065 -2.11387,2.61399 -2.54772,2.63826 -3.66189,2.5323 l -11.57629,-1.10006 0.0517,11.62059 c 0,0 0.0352,22.67921 -3.94982,43.27821 -1.99258,10.29951 -5.22205,19.9729 -8.62315,25.03521 -1.70056,2.53114 -3.24799,3.76206 -4.26729,4.23036 -1.0193,0.46827 -1.71349,0.6942 -4.03103,-0.0151 l -13.59926,9.95979 0.13289,1.80126 c 0,0 2.56255,16.6443 0.45036,31.54685 -1.0561,7.45127 -3.40845,14.059 -6.34924,17.63024 -2.9408,3.57121 -5.61571,5.36264 -13.43676,4.46662 l -6.2828,-0.72353 -3.00481,4.36326 c -0.22983,0.14137 -0.82575,0.57268 -2.99005,0.51681 -4.47751,-0.11567 -16.10816,-3.3148 -36.0504,-21.02632 l 1.41011,1.52822 c 0,0 0.0159,-1.56988 0.0665,0.76783 l -21.0337,0.45035 c 0.16727,7.73267 4.1713,11.4508 4.1713,11.4508 l 0.62755,0.84162 0.78257,0.69397 c 21.94442,19.48974 37.37187,26.01465 49.47978,26.32723 6.05395,0.15611 11.08331,-1.48899 14.47774,-3.52899 0.51012,-0.30656 0.41019,-0.44585 0.87118,-0.78998 11.32377,-0.10055 21.18628,-4.70408 27.16146,-11.96019 6.84215,-8.30892 9.57243,-18.44843 10.93398,-28.0548 1.35925,-9.59009 1.22693,-19.04299 0.76043,-26.11309 1.41324,-0.35872 2.93898,-0.41478 4.23775,-1.01145 5.63918,-2.59075 9.78144,-6.89781 12.9495,-11.61318 6.3361,-9.43083 9.55006,-21.08522 11.81253,-32.77982 3.24252,-16.76035 3.86942,-30.58851 4.07534,-38.91493 4.35124,-1.93363 8.10766,-4.89516 10.76417,-8.18018 4.74519,-5.8679 7.62442,-12.66939 9.83394,-19.24707 4.41902,-13.15535 5.81767,-26.00973 5.81767,-26.00973 l 0.0147,-0.1255 0.0147,-0.1255 c 1.77608,-19.8516 -7.37411,-44.5205 -16.10197,-66.37169 -8.70534,-21.79484 -17.68706,-39.61261 -17.73357,-39.70492 -5.76449,-11.81956 -17.43883,-17.94961 -29.57565,-21.44711 -12.14861,-3.50093 -25.67137,-4.61649 -38.53103,-4.77672 z"
       id="path1629"
       inkscape:connector-curvature="0"
       sodipodi:nodetypes="cccsscccsccccccccccccscccccccccccccccsscccsccscccscccc" />
    <path
       style="color:#000000;font-style:normal;font-variant:normal;font-weight:normal;font-stretch:normal;font-size:medium;line-height:normal;font-family:sans-serif;font-variant-ligatures:normal;font-variant-position:normal;font-variant-caps:normal;font-variant-numeric:normal;font-variant-alternates:normal;font-feature-settings:normal;text-indent:0;text-align:start;text-decoration:none;text-decoration-line:none;text-decoration-style:solid;text-decoration-color:#000000;letter-spacing:normal;word-spacing:normal;text-transform:none;writing-mode:lr-tb;direction:ltr;text-orientation:mixed;dominant-baseline:auto;baseline-shift:baseline;text-anchor:start;white-space:normal;shape-padding:0;clip-rule:nonzero;display:inline;overflow:visible;visibility:visible;opacity:1;isolation:auto;mix-blend-mode:normal;color-interpolation:sRGB;color-interpolation-filters:linearRGB;solid-color:#000000;solid-opacity:1;vector-effect:none;fill:#000000;fill-opacity:1;fill-rule:nonzero;stroke:none;stroke-width:21.04326439;stroke-linecap:butt;stroke-linejoin:miter;stroke-miterlimit:4;stroke-dasharray:none;stroke-dashoffset:0;stroke-opacity:1;color-rendering:auto;image-rendering:auto;shape-rendering:auto;text-rendering:auto;enable-background:accumulate"
       d="m 93.618353,644.0844 -12.59512,16.85504 c 0,0 10.068616,7.56301 22.451207,14.05692 6.1913,3.24692 12.99226,6.30144 20.07393,8.04727 7.08168,1.74588 15.09888,2.57608 22.68008,-1.85308 L 135.61193,663.0214 c -0.0988,0.0578 -2.62076,0.68056 -7.02845,-0.40606 -4.4077,-1.08663 -10.04631,-3.48751 -15.33416,-6.26064 -10.5757,-5.5463 -19.630967,-12.2703 -19.630967,-12.2703 z"
       id="path1631"
       inkscape:connector-curvature="0" />
    <path
       style="color:#000000;font-style:normal;font-variant:normal;font-weight:normal;font-stretch:normal;font-size:medium;line-height:normal;font-family:sans-serif;font-variant-ligatures:normal;font-variant-position:normal;font-variant-caps:normal;font-variant-numeric:normal;font-variant-alternates:normal;font-feature-settings:normal;text-indent:0;text-align:start;text-decoration:none;text-decoration-line:none;text-decoration-style:solid;text-decoration-color:#000000;letter-spacing:normal;word-spacing:normal;text-transform:none;writing-mode:lr-tb;direction:ltr;text-orientation:mixed;dominant-baseline:auto;baseline-shift:baseline;text-anchor:start;white-space:normal;shape-padding:0;clip-rule:nonzero;display:inline;overflow:visible;visibility:visible;opacity:1;isolation:auto;mix-blend-mode:normal;color-interpolation:sRGB;color-interpolation-filters:linearRGB;solid-color:#000000;solid-opacity:1;vector-effect:none;fill:#000000;fill-opacity:1;fill-rule:nonzero;stroke:none;stroke-width:21.04326439;stroke-linecap:butt;stroke-linejoin:miter;stroke-miterlimit:4;stroke-dasharray:none;stroke-dashoffset:0;stroke-opacity:1;color-rendering:auto;image-rendering:auto;shape-rendering:auto;text-rendering:auto;enable-background:accumulate"
       d="m 99.044739,533.16466 -9.893,18.57524 c 0,0 23.666281,12.59659 51.347641,25.71441 27.68135,13.11782 57.81704,26.89255 77.72651,29.37629 l 1.27723,0.16254 1.26984,-0.15498 c 0,0 4.13575,-0.42695 8.54195,2.26653 4.40619,2.69345 10.11655,8.21015 9.92991,28.06954 l 21.04108,0.19922 c 0.23195,-24.681 -9.17613,-39.60453 -19.99271,-46.21656 -10.81658,-6.61207 -22.01562,-5.2123 -22.01562,-5.2123 l 2.55446,0.008 C 209.25986,584.50894 176.67648,571.31612 149.51381,558.44412 122.35115,545.57211 99.044739,533.16528 99.044739,533.16528 Z"
       id="path1633"
       inkscape:connector-curvature="0" />
    <path
       style="color:#000000;font-style:normal;font-variant:normal;font-weight:normal;font-stretch:normal;font-size:medium;line-height:normal;font-family:sans-serif;font-variant-ligatures:normal;font-variant-position:normal;font-variant-caps:normal;font-variant-numeric:normal;font-variant-alternates:normal;font-feature-settings:normal;text-indent:0;text-align:start;text-decoration:none;text-decoration-line:none;text-decoration-style:solid;text-decoration-color:#000000;letter-spacing:normal;word-spacing:normal;text-transform:none;writing-mode:lr-tb;direction:ltr;text-orientation:mixed;dominant-baseline:auto;baseline-shift:baseline;text-anchor:start;white-space:normal;shape-padding:0;clip-rule:nonzero;display:inline;overflow:visible;visibility:visible;opacity:1;isolation:auto;mix-blend-mode:normal;color-interpolation:sRGB;color-interpolation-filters:linearRGB;solid-color:#000000;solid-opacity:1;vector-effect:none;fill:#000000;fill-opacity:1;fill-rule:nonzero;stroke:none;stroke-width:21.04326439;stroke-linecap:butt;stroke-linejoin:miter;stroke-miterlimit:4;stroke-dasharray:none;stroke-dashoffset:0;stroke-opacity:1;color-rendering:auto;image-rendering:auto;shape-rendering:auto;text-rendering:auto;enable-background:accumulate"
       d="m 147.30634,461.44039 -4.68809,20.51692 c 0,0 19.29761,4.41086 40.38412,8.80033 10.54325,2.19475 21.53736,4.38572 30.88979,6.0318 9.35243,1.64605 16.21061,2.86385 22.07468,2.76114 h 0.25104 l 0.25102,-0.0151 c 0,0 6.44257,-0.64816 14.97978,5.30823 8.53722,5.95644 19.13956,18.79233 22.31831,50.83085 l 20.94512,-2.07458 c -3.59983,-36.28246 -17.2253,-56.25184 -31.22202,-66.01732 -13.99672,-9.76547 -28.39439,-9.05135 -28.39439,-9.05135 l 0.50203,-0.0227 c -1.10389,0.0189 -9.07557,-0.86271 -18.05842,-2.44373 -8.98286,-1.58103 -19.82767,-3.73722 -30.24749,-5.90628 -20.83964,-4.33808 -39.98545,-8.71912 -39.98545,-8.71912 z"
       id="path1635"
       inkscape:connector-curvature="0" />
    <path
       style="color:#000000;font-style:normal;font-variant:normal;font-weight:normal;font-stretch:normal;font-size:medium;line-height:normal;font-family:sans-serif;font-variant-ligatures:normal;font-variant-position:normal;font-variant-caps:normal;font-variant-numeric:normal;font-variant-alternates:normal;font-feature-settings:normal;text-indent:0;text-align:start;text-decoration:none;text-decoration-line:none;text-decoration-style:solid;text-decoration-color:#000000;letter-spacing:normal;word-spacing:normal;text-transform:none;writing-mode:lr-tb;direction:ltr;text-orientation:mixed;dominant-baseline:auto;baseline-shift:baseline;text-anchor:start;white-space:normal;shape-padding:0;clip-rule:nonzero;display:inline;overflow:visible;visibility:visible;opacity:1;isolation:auto;mix-blend-mode:normal;color-interpolation:sRGB;color-interpolation-filters:linearRGB;solid-color:#000000;solid-opacity:1;vector-effect:none;fill:#000000;fill-opacity:1;fill-rule:nonzero;stroke:none;stroke-width:21.04326439;stroke-linecap:butt;stroke-linejoin:miter;stroke-miterlimit:4;stroke-dasharray:none;stroke-dashoffset:0;stroke-opacity:1;color-rendering:auto;image-rendering:auto;shape-rendering:auto;text-rendering:auto;enable-background:accumulate"
       d="m 470.65985,387.49389 -15.68853,14.0274 c 0,0 6.04178,7.59846 6.50431,15.09053 0.23134,3.74602 -0.37687,7.21411 -4.1861,11.71656 -3.77098,4.45736 -11.3778,9.8819 -25.27143,14.67707 -1.21437,0.31035 -33.86562,8.4038 -72.12295,-12.78706 l -0.67922,-0.37649 -0.71614,-0.27329 c 0,0 -52.45113,-19.93546 -75.29017,-25.44864 l -4.93174,20.45785 c 18.30561,4.41883 72.54316,24.58516 72.72095,24.65128 45.28701,24.44382 86.71144,14.07906 86.71144,14.07906 l 0.3839,-0.096 0.3839,-0.13268 c 16.54443,-5.64205 27.72696,-12.70829 34.87652,-21.15922 7.14959,-8.4509 9.63687,-18.31889 9.12521,-26.60774 -1.0234,-16.57774 -11.81995,-27.81855 -11.81995,-27.81855 z"
       id="path1637"
       inkscape:connector-curvature="0" />
    <path
       style="color:#000000;font-style:normal;font-variant:normal;font-weight:normal;font-stretch:normal;font-size:medium;line-height:normal;font-family:sans-serif;font-variant-ligatures:normal;font-variant-position:normal;font-variant-caps:normal;font-variant-numeric:normal;font-variant-alternates:normal;font-feature-settings:normal;text-indent:0;text-align:start;text-decoration:none;text-decoration-line:none;text-decoration-style:solid;text-decoration-color:#000000;letter-spacing:normal;word-spacing:normal;text-transform:none;writing-mode:lr-tb;direction:ltr;text-orientation:mixed;dominant-baseline:auto;baseline-shift:baseline;text-anchor:start;white-space:normal;shape-padding:0;clip-rule:nonzero;display:inline;overflow:visible;visibility:visible;opacity:1;isolation:auto;mix-blend-mode:normal;color-interpolation:sRGB;color-interpolation-filters:linearRGB;solid-color:#000000;solid-opacity:1;vector-effect:none;fill:#000000;fill-opacity:1;fill-rule:nonzero;stroke:none;stroke-width:21.04326439;stroke-linecap:butt;stroke-linejoin:miter;stroke-miterlimit:4;stroke-dasharray:none;stroke-dashoffset:0;stroke-opacity:1;color-rendering:auto;image-rendering:auto;shape-rendering:auto;text-rendering:auto;enable-background:accumulate"
       d="m 333.85588,426.80012 c -18.89415,17.57615 -34.91343,13.10455 -34.91343,13.10455 l -4.48877,20.55382 c 0,0 28.46586,5.2535 53.73229,-18.25039 z"
       id="path1639"
       inkscape:connector-curvature="0" />
    <path
       style="color:#000000;font-style:normal;font-variant:normal;font-weight:normal;font-stretch:normal;font-size:medium;line-height:normal;font-family:sans-serif;font-variant-ligatures:normal;font-variant-position:normal;font-variant-caps:normal;font-variant-numeric:normal;font-variant-alternates:normal;font-feature-settings:normal;text-indent:0;text-align:start;text-decoration:none;text-decoration-line:none;text-decoration-style:solid;text-decoration-color:#000000;letter-spacing:normal;word-spacing:normal;text-transform:none;writing-mode:lr-tb;direction:ltr;text-orientation:mixed;dominant-baseline:auto;baseline-shift:baseline;text-anchor:start;white-space:normal;shape-padding:0;clip-rule:nonzero;display:inline;overflow:visible;visibility:visible;opacity:1;isolation:auto;mix-blend-mode:normal;color-interpolation:sRGB;color-interpolation-filters:linearRGB;solid-color:#000000;solid-opacity:1;vector-effect:none;fill:#000000;fill-opacity:1;fill-rule:nonzero;stroke:none;stroke-width:21.04326439;stroke-linecap:butt;stroke-linejoin:miter;stroke-miterlimit:4;stroke-dasharray:none;stroke-dashoffset:0;stroke-opacity:1;color-rendering:auto;image-rendering:auto;shape-rendering:auto;text-rendering:auto;enable-background:accumulate"
       d="m 418.286,376.75188 c -3.13117,0.0941 -6.11913,0.5069 -8.96276,1.22552 -11.37458,2.87459 -19.70981,11.5143 -22.37,21.38074 -5.32032,19.7328 8.82841,42.52242 34.98728,48.07699 l 5.67738,1.20341 4.0532,-4.1565 c 0,0 6.24269,-6.39582 12.3515,-15.50398 6.10876,-9.10818 12.90269,-21.11838 12.48435,-35.14971 l -0.19202,-6.50427 -5.90627,-2.73165 c -12.03197,-5.56732 -22.72914,-8.1231 -32.12274,-7.84055 z m 6.6298,21.52834 c 2.43308,0.38844 5.94165,1.91764 8.97753,2.91622 -1.49503,5.22408 -3.92997,10.95353 -7.35329,16.05768 -2.92048,4.35441 -3.93084,5.17116 -5.84723,7.37544 -11.46614,-4.86566 -14.87738,-14.39542 -13.422,-19.79339 0.84374,-3.12936 2.32909,-5.22572 7.21303,-6.45997 2.44199,-0.61712 5.91787,-0.81663 10.43196,-0.096 z"
       id="path1641"
       inkscape:connector-curvature="0" />
    <path
       style="color:#000000;font-style:normal;font-variant:normal;font-weight:normal;font-stretch:normal;font-size:medium;line-height:normal;font-family:sans-serif;font-variant-ligatures:normal;font-variant-position:normal;font-variant-caps:normal;font-variant-numeric:normal;font-variant-alternates:normal;font-feature-settings:normal;text-indent:0;text-align:start;text-decoration:none;text-decoration-line:none;text-decoration-style:solid;text-decoration-color:#000000;letter-spacing:normal;word-spacing:normal;text-transform:none;writing-mode:lr-tb;direction:ltr;text-orientation:mixed;dominant-baseline:auto;baseline-shift:baseline;text-anchor:start;white-space:normal;shape-padding:0;clip-rule:nonzero;display:inline;overflow:visible;visibility:visible;opacity:1;isolation:auto;mix-blend-mode:normal;color-interpolation:sRGB;color-interpolation-filters:linearRGB;solid-color:#000000;solid-opacity:1;vector-effect:none;fill:#000000;fill-opacity:1;fill-rule:nonzero;stroke:none;stroke-width:21.04326439;stroke-linecap:butt;stroke-linejoin:miter;stroke-miterlimit:4;stroke-dasharray:none;stroke-dashoffset:0;stroke-opacity:1;color-rendering:auto;image-rendering:auto;shape-rendering:auto;text-rendering:auto;enable-background:accumulate"
       d="m 116.15815,642.05412 -15.5261,14.21198 c 0,0 28.59426,32.68936 66.79253,32.11533 1.29357,2.60764 2.68917,5.42844 4.98341,8.2614 l 16.35299,-13.24482 c -1.66664,-2.05796 -4.69548,-9.1621 -4.69548,-9.1621 l -2.89408,-8.13588 -8.54194,1.24771 c -27.4643,4.00825 -56.47133,-25.29362 -56.47133,-25.29362 z"
       id="path1643"
       inkscape:connector-curvature="0" />
    <path
       style="color:#000000;font-style:normal;font-variant:normal;font-weight:normal;font-stretch:normal;font-size:medium;line-height:normal;font-family:sans-serif;font-variant-ligatures:normal;font-variant-position:normal;font-variant-caps:normal;font-variant-numeric:normal;font-variant-alternates:normal;font-feature-settings:normal;text-indent:0;text-align:start;text-decoration:none;text-decoration-line:none;text-decoration-style:solid;text-decoration-color:#000000;letter-spacing:normal;word-spacing:normal;text-transform:none;writing-mode:lr-tb;direction:ltr;text-orientation:mixed;dominant-baseline:auto;baseline-shift:baseline;text-anchor:start;white-space:normal;shape-padding:0;clip-rule:nonzero;display:inline;overflow:visible;visibility:visible;opacity:1;isolation:auto;mix-blend-mode:normal;color-interpolation:sRGB;color-interpolation-filters:linearRGB;solid-color:#000000;solid-opacity:1;vector-effect:none;fill:#000000;fill-opacity:1;fill-rule:nonzero;stroke:none;stroke-width:21.04326439;stroke-linecap:butt;stroke-linejoin:miter;stroke-miterlimit:4;stroke-dasharray:none;stroke-dashoffset:0;stroke-opacity:1;color-rendering:auto;image-rendering:auto;shape-rendering:auto;text-rendering:auto;enable-background:accumulate"
       d="m 330.71818,452.29306 c -5.10201,34.69556 29.64948,56.10956 29.64948,56.10956 l 11.65011,-17.52686 c 0,0 -23.19002,-17.08955 -20.48,-35.51881 z"
       id="path1645"
       inkscape:connector-curvature="0" />
    <path
       style="color:#000000;font-style:normal;font-variant:normal;font-weight:normal;font-stretch:normal;font-size:medium;line-height:normal;font-family:sans-serif;font-variant-ligatures:normal;font-variant-position:normal;font-variant-caps:normal;font-variant-numeric:normal;font-variant-alternates:normal;font-feature-settings:normal;text-indent:0;text-align:start;text-decoration:none;text-decoration-line:none;text-decoration-style:solid;text-decoration-color:#000000;letter-spacing:normal;word-spacing:normal;text-transform:none;writing-mode:lr-tb;direction:ltr;text-orientation:mixed;dominant-baseline:auto;baseline-shift:baseline;text-anchor:start;white-space:normal;shape-padding:0;clip-rule:nonzero;display:inline;overflow:visible;visibility:visible;opacity:1;isolation:auto;mix-blend-mode:normal;color-interpolation:sRGB;color-interpolation-filters:linearRGB;solid-color:#000000;solid-opacity:1;vector-effect:none;fill:#000000;fill-opacity:1;fill-rule:nonzero;stroke:none;stroke-width:21.04326439;stroke-linecap:butt;stroke-linejoin:miter;stroke-miterlimit:4;stroke-dasharray:none;stroke-dashoffset:0;stroke-opacity:1;color-rendering:auto;image-rendering:auto;shape-rendering:auto;text-rendering:auto;enable-background:accumulate"
       d="m 264.23572,672.51573 -18.74501,9.56816 c 13.41387,26.28061 45.79573,28.32054 45.79573,28.32054 l 2.18533,-20.93032 c 0,0 -22.46656,-3.69556 -29.23605,-16.95838 z"
       id="path1647"
       inkscape:connector-curvature="0" />
    <path
       style="color:#000000;font-style:normal;font-variant:normal;font-weight:normal;font-stretch:normal;font-size:medium;line-height:normal;font-family:sans-serif;font-variant-ligatures:normal;font-variant-position:normal;font-variant-caps:normal;font-variant-numeric:normal;font-variant-alternates:normal;font-feature-settings:normal;text-indent:0;text-align:start;text-decoration:none;text-decoration-line:none;text-decoration-style:solid;text-decoration-color:#000000;letter-spacing:normal;word-spacing:normal;text-transform:none;writing-mode:lr-tb;direction:ltr;text-orientation:mixed;dominant-baseline:auto;baseline-shift:baseline;text-anchor:start;white-space:normal;shape-padding:0;clip-rule:nonzero;display:inline;overflow:visible;visibility:visible;opacity:1;isolation:auto;mix-blend-mode:normal;color-interpolation:sRGB;color-interpolation-filters:linearRGB;solid-color:#000000;solid-opacity:1;vector-effect:none;fill:#000000;fill-opacity:1;fill-rule:nonzero;stroke:none;stroke-width:5.03325653;stroke-linecap:butt;stroke-linejoin:miter;stroke-miterlimit:4;stroke-dasharray:none;stroke-dashoffset:0;stroke-opacity:1;color-rendering:auto;image-rendering:auto;shape-rendering:auto;text-rendering:auto;enable-background:accumulate"
       d="m 483.51337,433.80646 c 0,0 -7.68722,12.87071 -13.47367,28.63064 -2.89322,7.87992 -5.32705,16.49937 -6.07607,24.73988 -0.74901,8.24047 0.17238,16.21195 4.41495,22.48072 l 4.16391,-2.82023 c -3.30721,-4.88657 -4.25373,-11.64301 -3.56592,-19.21013 0.68781,-7.56718 2.99064,-15.83603 5.78814,-23.45529 1.46521,-3.99063 2.97084,-6.82481 4.5257,-10.26954 -0.43519,2.91227 -1.05904,5.0654 -1.28463,8.35002 -1.07186,15.60657 0.9222,34.80427 13.91665,48.23946 l 3.61758,-3.4995 c -11.49034,-11.88002 -13.5292,-29.50266 -12.50652,-44.393 1.02269,-14.89031 5.02036,-26.69634 5.02036,-26.69634 z"
       id="path60719"
       inkscape:connector-curvature="0" />
    <path
       style="color:#000000;font-style:normal;font-variant:normal;font-weight:normal;font-stretch:normal;font-size:medium;line-height:normal;font-family:sans-serif;font-variant-ligatures:normal;font-variant-position:normal;font-variant-caps:normal;font-variant-numeric:normal;font-variant-alternates:normal;font-feature-settings:normal;text-indent:0;text-align:start;text-decoration:none;text-decoration-line:none;text-decoration-style:solid;text-decoration-color:#000000;letter-spacing:normal;word-spacing:normal;text-transform:none;writing-mode:lr-tb;direction:ltr;text-orientation:mixed;dominant-baseline:auto;baseline-shift:baseline;text-anchor:start;white-space:normal;shape-padding:0;clip-rule:nonzero;display:inline;overflow:visible;visibility:visible;opacity:1;isolation:auto;mix-blend-mode:normal;color-interpolation:sRGB;color-interpolation-filters:linearRGB;solid-color:#000000;solid-opacity:1;vector-effect:none;fill:#000000;fill-opacity:1;fill-rule:nonzero;stroke:none;stroke-width:5.03325653;stroke-linecap:butt;stroke-linejoin:miter;stroke-miterlimit:4;stroke-dasharray:none;stroke-dashoffset:0;stroke-opacity:1;color-rendering:auto;image-rendering:auto;shape-rendering:auto;text-rendering:auto;enable-background:accumulate"
       d="m 468.46717,350.16626 c -1.7284,13.14352 2.18811,31.69008 6.40089,47.23541 4.21283,15.54531 8.82989,27.98832 8.82989,27.98832 l 4.82099,-1.4101 c 0,0 -2.28741,-10.64127 -1.86045,-24.02376 0.42692,-13.38253 3.63282,-29.22176 14.09382,-39.68276 l -3.55854,-3.55854 c -11.8714,11.87143 -15.11503,29.04347 -15.563,43.08625 -0.034,1.06645 0.1289,1.68691 0.1255,2.71688 -0.94871,-3.12203 -1.0623,-2.85859 -2.03029,-6.43045 -4.14709,-15.30284 -7.77968,-33.7687 -6.26801,-45.26418 z"
       id="path60719-5"
       inkscape:connector-curvature="0" />
    <path
       inkscape:connector-curvature="0"
       id="path1039-4-5-6-0"
       d="m 422.05365,57.9896 -0.15952,23.98604 c 0,0 52.22662,0.34927 104.90576,0.69661 52.67987,0.34815 104.36093,0.6936 107.70749,0.6936 V 59.37694 c -0.28879,0 -54.87214,-0.34662 -107.55089,-0.69374 -52.67864,-0.34701 -104.90296,-0.6936 -104.90296,-0.6936 z"
       style="color:#000000;font-style:normal;font-variant:normal;font-weight:normal;font-stretch:normal;font-size:medium;line-height:normal;font-family:sans-serif;font-variant-ligatures:normal;font-variant-position:normal;font-variant-caps:normal;font-variant-numeric:normal;font-variant-alternates:normal;font-feature-settings:normal;text-indent:0;text-align:start;text-decoration:none;text-decoration-line:none;text-decoration-style:solid;text-decoration-color:#000000;letter-spacing:normal;word-spacing:normal;text-transform:none;writing-mode:lr-tb;direction:ltr;text-orientation:mixed;dominant-baseline:auto;baseline-shift:baseline;text-anchor:start;white-space:normal;shape-padding:0;clip-rule:nonzero;display:inline;overflow:visible;visibility:visible;opacity:1;isolation:auto;mix-blend-mode:normal;color-interpolation:sRGB;color-interpolation-filters:linearRGB;solid-color:#000000;solid-opacity:1;vector-effect:none;fill:#000000;fill-opacity:1;fill-rule:nonzero;stroke:none;stroke-width:23.98865891;stroke-linecap:butt;stroke-linejoin:miter;stroke-miterlimit:4;stroke-dasharray:none;stroke-dashoffset:0;stroke-opacity:1;color-rendering:auto;image-rendering:auto;shape-rendering:auto;text-rendering:auto;enable-background:accumulate" />
    <path
       inkscape:connector-curvature="0"
       id="path1039-4-5-6-9-9"
       d="m 680.12699,59.21743 -0.15952,23.9861 c 0,0 52.22674,0.34928 104.90609,0.69667 52.67955,0.34776 104.36109,0.69359 107.70753,0.69359 V 60.6048 c -0.28917,0 -54.87221,-0.34662 -107.55119,-0.69374 -52.67836,-0.347 -104.90302,-0.69363 -104.90302,-0.69363 z"
       style="color:#000000;font-style:normal;font-variant:normal;font-weight:normal;font-stretch:normal;font-size:medium;line-height:normal;font-family:sans-serif;font-variant-ligatures:normal;font-variant-position:normal;font-variant-caps:normal;font-variant-numeric:normal;font-variant-alternates:normal;font-feature-settings:normal;text-indent:0;text-align:start;text-decoration:none;text-decoration-line:none;text-decoration-style:solid;text-decoration-color:#000000;letter-spacing:normal;word-spacing:normal;text-transform:none;writing-mode:lr-tb;direction:ltr;text-orientation:mixed;dominant-baseline:auto;baseline-shift:baseline;text-anchor:start;white-space:normal;shape-padding:0;clip-rule:nonzero;display:inline;overflow:visible;visibility:visible;opacity:1;isolation:auto;mix-blend-mode:normal;color-interpolation:sRGB;color-interpolation-filters:linearRGB;solid-color:#000000;solid-opacity:1;vector-effect:none;fill:#000000;fill-opacity:1;fill-rule:nonzero;stroke:none;stroke-width:23.98865891;stroke-linecap:butt;stroke-linejoin:miter;stroke-miterlimit:4;stroke-dasharray:none;stroke-dashoffset:0;stroke-opacity:1;color-rendering:auto;image-rendering:auto;shape-rendering:auto;text-rendering:auto;enable-background:accumulate" />
    <path
       inkscape:connector-curvature="0"
       id="path1479-55"
       d="m 460.67438,143.60277 v 9.59621 c 0,43.45473 29.86551,68.08623 59.65234,67.71367 29.78753,-0.37308 58.83954,-25.74355 57.19969,-68.08563 l -0.35721,-9.22425 z m 19.90714,19.19238 h 77.41341 c -2.35537,27.13611 -20.05365,38.70471 -37.90692,38.92808 -17.8463,0.22302 -36.0759,-10.89623 -39.50649,-38.92808 z"
       style="color:#000000;font-style:normal;font-variant:normal;font-weight:normal;font-stretch:normal;font-size:medium;line-height:normal;font-family:sans-serif;font-variant-ligatures:normal;font-variant-position:normal;font-variant-caps:normal;font-variant-numeric:normal;font-variant-alternates:normal;font-feature-settings:normal;text-indent:0;text-align:start;text-decoration:none;text-decoration-line:none;text-decoration-style:solid;text-decoration-color:#000000;letter-spacing:normal;word-spacing:normal;text-transform:none;writing-mode:lr-tb;direction:ltr;text-orientation:mixed;dominant-baseline:auto;baseline-shift:baseline;text-anchor:start;white-space:normal;shape-padding:0;clip-rule:nonzero;display:inline;overflow:visible;visibility:visible;opacity:1;isolation:auto;mix-blend-mode:normal;color-interpolation:sRGB;color-interpolation-filters:linearRGB;solid-color:#000000;solid-opacity:1;vector-effect:none;fill:#000000;fill-opacity:1;fill-rule:nonzero;stroke:none;stroke-width:19.19092751;stroke-linecap:butt;stroke-linejoin:miter;stroke-miterlimit:4;stroke-dasharray:none;stroke-dashoffset:0;stroke-opacity:1;color-rendering:auto;image-rendering:auto;shape-rendering:auto;text-rendering:auto;enable-background:accumulate" />
    <path
       inkscape:connector-curvature="0"
       id="path1479-5-3"
       d="m 731.12499,145.01949 v 9.59639 c 0,43.45468 29.86502,68.08624 59.65209,67.7136 29.78736,-0.37309 58.83975,-25.74359 57.1996,-68.08555 l -0.35759,-9.22444 z m 19.90672,19.19255 h 77.41327 c -2.35525,27.13611 -20.05346,38.70454 -37.9068,38.9279 -17.84677,0.22302 -36.07592,-10.89555 -39.50647,-38.9279 z"
       style="color:#000000;font-style:normal;font-variant:normal;font-weight:normal;font-stretch:normal;font-size:medium;line-height:normal;font-family:sans-serif;font-variant-ligatures:normal;font-variant-position:normal;font-variant-caps:normal;font-variant-numeric:normal;font-variant-alternates:normal;font-feature-settings:normal;text-indent:0;text-align:start;text-decoration:none;text-decoration-line:none;text-decoration-style:solid;text-decoration-color:#000000;letter-spacing:normal;word-spacing:normal;text-transform:none;writing-mode:lr-tb;direction:ltr;text-orientation:mixed;dominant-baseline:auto;baseline-shift:baseline;text-anchor:start;white-space:normal;shape-padding:0;clip-rule:nonzero;display:inline;overflow:visible;visibility:visible;opacity:1;isolation:auto;mix-blend-mode:normal;color-interpolation:sRGB;color-interpolation-filters:linearRGB;solid-color:#000000;solid-opacity:1;vector-effect:none;fill:#000000;fill-opacity:1;fill-rule:nonzero;stroke:none;stroke-width:19.19092751;stroke-linecap:butt;stroke-linejoin:miter;stroke-miterlimit:4;stroke-dasharray:none;stroke-dashoffset:0;stroke-opacity:1;color-rendering:auto;image-rendering:auto;shape-rendering:auto;text-rendering:auto;enable-background:accumulate" />
    <path
       inkscape:connector-curvature="0"
       id="path29-8-7-35-3"
       d="m 666.09612,454.17274 c -20.16811,-0.54523 -38.91373,2.58365 -55.7795,7.91055 -26.98555,8.52298 -49.19339,22.29002 -65.60318,34.78054 -16.40957,12.49101 -27.45454,24.15372 -30.51529,27.18604 l 13.60763,13.73177 c 3.97163,-3.9353 13.45938,-14.00019 28.61436,-25.53607 15.1552,-11.53588 35.54343,-24.09603 59.71766,-31.73143 48.34814,-15.27053 111.70062,-12.39561 185.29131,60.05106 l 13.56061,-13.77595 C 761.71974,474.34773 710.46605,455.37181 666.09612,454.17274 Z"
       style="color:#000000;font-style:normal;font-variant:normal;font-weight:normal;font-stretch:normal;font-size:medium;line-height:normal;font-family:sans-serif;font-variant-ligatures:normal;font-variant-position:normal;font-variant-caps:normal;font-variant-numeric:normal;font-variant-alternates:normal;font-feature-settings:normal;text-indent:0;text-align:start;text-decoration:none;text-decoration-line:none;text-decoration-style:solid;text-decoration-color:#000000;letter-spacing:normal;word-spacing:normal;text-transform:none;writing-mode:lr-tb;direction:ltr;text-orientation:mixed;dominant-baseline:auto;baseline-shift:baseline;text-anchor:start;white-space:normal;shape-padding:0;clip-rule:nonzero;display:inline;overflow:visible;visibility:visible;opacity:1;isolation:auto;mix-blend-mode:normal;color-interpolation:sRGB;color-interpolation-filters:linearRGB;solid-color:#000000;solid-opacity:1;vector-effect:none;fill:#000000;fill-opacity:1;fill-rule:nonzero;stroke:none;stroke-width:19.33127403;stroke-linecap:butt;stroke-linejoin:miter;stroke-miterlimit:4;stroke-dasharray:none;stroke-dashoffset:0;stroke-opacity:1;color-rendering:auto;image-rendering:auto;shape-rendering:auto;text-rendering:auto;enable-background:accumulate" />
    <path
       style="font-style:normal;font-weight:normal;font-size:233.33332825px;line-height:1.25;font-family:sans-serif;letter-spacing:0px;word-spacing:0px;fill:#000000;fill-opacity:1;stroke:none"
       d="m 278,859.23885 v 169.64665 h 22.5586 v -67.44945 h 31.78711 l 56.73828,67.44945 h 29.28125 L 354.5625,954.71535 c 10.78559,-4.1775 19.25586,-10.3691 25.40821,-18.5722 6.15234,-8.2791 9.22851,-18.533 9.22851,-30.7618 0,-9.0386 -1.74826,-16.4815 -5.24218,-22.33 -3.41797,-5.9245 -8.20313,-10.8236 -14.35547,-14.6973 -5.46875,-3.418 -11.6211,-5.7732 -18.45703,-7.0645 -6.83594,-1.3671 -15.38086,-2.0507 -25.63477,-2.0507 z m 296.79489,5.8105 v 36.5723 h -14.4707 v 18.0019 h 14.4707 v 67.6758 c 0,15.41895 3.3787,26.62165 10.1387,33.60955 6.76,6.9878 16.6348,10.4824 29.6231,10.4824 3.7217,0 7.9372,-0.3418 12.6464,-1.0254 4.7852,-0.6836 9.1912,-1.5577 13.2168,-2.6211 v -19.2539 h -1.1406 c -1.671,0.6836 -4.4054,1.5577 -8.2031,2.6211 -3.7978,0.9874 -7.4436,1.4805 -10.9375,1.4805 -6.0004,0 -10.4811,-0.6836 -13.4434,-2.0508 -2.8863,-1.4431 -5.1649,-3.6845 -6.8359,-6.7227 -1.8229,-3.2661 -2.8856,-6.75875 -3.1895,-10.48055 -0.3038,-3.7978 -0.457,-9.0387 -0.457,-15.7227 v -57.9922 h 44.207 v -18.0019 h -44.207 v -36.5723 z m -274.23629,13.5586 h 26.54687 c 6.07639,0 11.3546,0.4557 15.83594,1.3672 4.48134,0.8355 8.35503,2.3539 11.62109,4.5566 3.94966,2.5825 6.76064,5.7726 8.43164,9.5703 1.74697,3.7218 2.6211,8.0139 2.6211,12.875 0,6.3803 -0.83681,11.6585 -2.50781,15.836 -1.59506,4.1015 -4.10157,7.7474 -7.51954,10.9375 -3.72178,3.418 -8.2398,5.7732 -13.55664,7.0644 -5.31684,1.2153 -11.54579,1.8223 -18.68554,1.8223 H 300.5586 Z m 415.62499,19.4824 c -18.0013,0 -32.3175,6.0384 -42.9512,18.1153 -10.5577,12.0008 -15.8378,28.3698 -15.8378,49.1054 0,20.7357 5.2801,37.10285 15.8378,49.10365 10.6337,12.0009 24.9499,18.002 42.9512,18.002 17.8494,0 32.0909,-6.0011 42.7246,-18.002 10.6337,-12.0008 15.9512,-28.36795 15.9512,-49.10365 0,-20.7356 -5.3175,-37.1046 -15.9512,-49.1054 -10.6337,-12.0769 -24.8752,-18.1153 -42.7246,-18.1153 z m -238.68749,0.4551 c -7.67144,0 -15.45617,0.6836 -23.35547,2.0508 -7.89931,1.3672 -13.93772,2.6204 -18.11524,3.7598 v 21.7617 h 1.13868 c 7.36762,-2.8104 14.50803,-4.9377 21.41992,-6.3809 6.91189,-1.5191 13.17817,-2.2773 18.79883,-2.2773 4.63324,0 9.07657,0.3025 13.33007,0.9101 4.2535,0.6077 7.8993,1.7863 10.9375,3.5332 3.1901,1.8229 5.62,4.3295 7.291,7.5196 1.747,3.1901 2.6211,7.215 2.6211,12.0761 v 3.3047 c -12.4566,0.6077 -24.117,1.5191 -34.9785,2.7344 -10.86155,1.2153 -20.16472,3.5312 -27.91211,6.9492 -7.67144,3.418 -13.59592,8.1265 -17.77344,14.127 -4.10156,5.9244 -6.15234,13.7111 -6.15234,23.3574 0,11.77315 3.98763,21.45735 11.96289,29.05285 7.97526,7.5955 17.69683,11.3926 29.16601,11.3926 6.2283,0 11.65973,-0.607 16.29297,-1.8223 4.63322,-1.1393 8.73482,-2.5831 12.30472,-4.33 3.0382,-1.3672 6.1517,-3.1901 9.3418,-5.4688 3.266,-2.3546 5.8491,-4.1775 7.748,-5.4687 v 13.5586 h 21.3047 v -86.36155 c 0,-8.2031 -1.2532,-15.0764 -3.7598,-20.6211 -2.5065,-5.5447 -6.1523,-10.0646 -10.9375,-13.5586 -4.8611,-3.5698 -10.6343,-6.0764 -17.3183,-7.5195 -6.6081,-1.5191 -14.3928,-2.2793 -23.35549,-2.2793 z m 238.68749,18.002 c 11.4692,0 20.4325,4.0249 26.8887,12.0761 6.4561,7.9753 9.6836,20.2053 9.6836,36.6875 0,16.1025 -3.2648,28.2539 -9.7969,36.45725 -6.4562,8.127 -15.3822,12.1913 -26.7754,12.1913 -11.5451,0 -20.5458,-4.1015 -27.0019,-12.3046 -6.4562,-8.27925 -9.6836,-20.39335 -9.6836,-36.34395 0,-16.4822 3.1901,-28.7122 9.5703,-36.6875 6.4561,-8.0512 15.4941,-12.0761 27.1152,-12.0761 z m -204.6211,45.5722 v 35.4336 c -5.3168,4.10175 -11.09,7.63365 -17.3183,10.59585 -6.2283,2.8863 -13.10161,4.3301 -20.62114,4.3301 -9.03863,0 -15.76063,-1.8229 -20.16601,-5.4687 -4.40539,-3.7218 -6.60938,-9.23005 -6.60938,-16.52165 0,-6.4562 1.89952,-11.5065 5.69727,-15.1524 3.79774,-3.7218 8.77343,-6.4561 14.92578,-8.2031 5.16493,-1.4431 12.15212,-2.5451 20.96288,-3.3047 8.8867,-0.7595 16.5968,-1.3292 23.1289,-1.709 z"
       id="text3377"
       inkscape:connector-curvature="0" />
  </g>
</svg>
