<?xml version="1.0" encoding="UTF-8" standalone="no"?>
<!-- Created with Inkscape (http://www.inkscape.org/) -->

<svg
   xmlns:dc="http://purl.org/dc/elements/1.1/"
   xmlns:cc="http://creativecommons.org/ns#"
   xmlns:rdf="http://www.w3.org/1999/02/22-rdf-syntax-ns#"
   xmlns:svg="http://www.w3.org/2000/svg"
   xmlns="http://www.w3.org/2000/svg"
   xmlns:sodipodi="http://sodipodi.sourceforge.net/DTD/sodipodi-0.dtd"
   xmlns:inkscape="http://www.inkscape.org/namespaces/inkscape"
   width="1000"
   height="1250"
   viewBox="0 0 1000 1250"
   version="1.1"
   id="svg6249"
   inkscape:version="0.92.4 (5da689c313, 2019-01-14)"
   sodipodi:docname="Acontecer.svg">
  <defs
     id="defs6243" />
  <sodipodi:namedview
     id="base"
     pagecolor="#ffffff"
     bordercolor="#666666"
     borderopacity="1.0"
     inkscape:pageopacity="0.0"
     inkscape:pageshadow="2"
     inkscape:zoom="0.1767767"
     inkscape:cx="1141.6007"
     inkscape:cy="775.03735"
     inkscape:document-units="px"
     inkscape:current-layer="layer1"
     showgrid="false"
     units="px"
     inkscape:window-width="681"
     inkscape:window-height="706"
     inkscape:window-x="676"
     inkscape:window-y="0"
     inkscape:window-maximized="0" />
  <metadata
     id="metadata6246">
    <rdf:RDF>
      <cc:Work
         rdf:about="">
        <dc:format>image/svg+xml</dc:format>
        <dc:type
           rdf:resource="http://purl.org/dc/dcmitype/StillImage" />
        <dc:title></dc:title>
      </cc:Work>
    </rdf:RDF>
  </metadata>
  <g
     inkscape:label="Camada 1"
     inkscape:groupmode="layer"
     id="layer1"
     transform="translate(0,217.58335)">
    <path
       style="fill:none;stroke:#000000;stroke-width:15.94830418;stroke-linecap:butt;stroke-linejoin:miter;stroke-miterlimit:4;stroke-dasharray:none;stroke-opacity:1"
       d="m 202.87122,780.75716 c 0,0 -9.64716,-45.34153 122.51825,-142.7773 0,0 24.11781,-22.18833 28.94136,-76.21216 0,0 1.92941,-28.94129 9.6471,-42.44724 0,0 18.32953,-28.94133 -4.82361,-51.12974 0,0 -22.18835,-30.87068 -24.1177,-43.41197 -1.22067,-33.53548 -31.94997,-57.89484 -38.82963,2.17057 0,0 -7.99979,44.334 5.64327,75.71307 0,0 -17.05384,32.06126 -21.82893,62.076 0,0 -23.87538,-26.60395 -2.04645,-144.61654 l 19.78249,-154.84894 c 0.47499,-37.80146 -42.37814,-44.6443 -51.84375,-0.68211 0,0 -10.23227,92.77287 -17.73604,112.55539 0,0 -10.23227,27.96828 -11.59657,55.25437 0,0 -18.41814,16.37176 -17.05389,-7.50362 0,0 2.04652,-131.65572 17.05389,-199.8711 2.72861,-51.26114 -53.20804,-62.30065 -61.39384,-5.4572 0,0 -5.45724,93.45503 -9.55017,116.64826 0,0 -1.36425,-64.8046 8.18581,-108.46241 0.54067,-57.44464 -57.25308,-38.68714 -57.300881,-0.34086 0,0 -8.18587,107.43923 -6.139343,138.13619 0,0 -9.550174,34.10763 -6.82155,74.35474 0,0 -8.86802,12.96085 -12.960956,-41.61137 0,0 -0.682155,-68.89757 10.232332,-109.14464 1.208676,-41.95836 -41.879474,-48.2438 -51.843692,-1.3643 0,0 -16.371731,90.72642 -13.643109,160.30615 0,0 -17.7359446,152.12022 5.457244,230.5679 0,0 12.278797,30.01481 8.868021,99.59446"
       id="path6302"
       inkscape:connector-curvature="0"
       sodipodi:nodetypes="ccccccccccccccccccccccccc" />
    <path
       style="fill:none;stroke:#000000;stroke-width:15.94830418;stroke-linecap:butt;stroke-linejoin:miter;stroke-miterlimit:4;stroke-dasharray:none;stroke-opacity:1"
       d="m 145.637,336.2169 c 0,0 -2.72862,61.39387 -0.68221,89.36219"
       id="path6304"
       inkscape:connector-curvature="0" />
    <path
       style="fill:none;stroke:#000000;stroke-width:15.94830418;stroke-linecap:butt;stroke-linejoin:miter;stroke-miterlimit:4;stroke-dasharray:none;stroke-opacity:1"
       d="m 29.670876,725.04453 c 0,0 74.354764,14.32512 92.772964,-17.05395"
       id="path6306"
       inkscape:connector-curvature="0"
       sodipodi:nodetypes="cc" />
    <path
       style="fill:none;stroke:#000000;stroke-width:15.94830418;stroke-linecap:butt;stroke-linejoin:miter;stroke-miterlimit:4;stroke-dasharray:none;stroke-opacity:1"
       d="m 301.85026,502.66239 c 0,0 10.91448,6.82151 36.15417,6.82151"
       id="path6308"
       inkscape:connector-curvature="0" />
    <path
       style="fill:none;stroke:#000000;stroke-width:15.94830418;stroke-linecap:butt;stroke-linejoin:miter;stroke-miterlimit:4;stroke-dasharray:none;stroke-opacity:1"
       d="m 250.00662,315.07015 c 0,0 17.05382,8.86799 32.06112,4.09291"
       id="path6310"
       inkscape:connector-curvature="0" />
    <path
       style="fill:none;stroke:#000000;stroke-width:15.94830418;stroke-linecap:butt;stroke-linejoin:miter;stroke-miterlimit:4;stroke-dasharray:none;stroke-opacity:1"
       d="m 239.77429,379.19256 c 0,0 19.10029,12.27879 32.06118,5.45724"
       id="path6312"
       inkscape:connector-curvature="0" />
    <path
       style="fill:none;stroke:#000000;stroke-width:15.94830418;stroke-linecap:butt;stroke-linejoin:miter;stroke-miterlimit:4;stroke-dasharray:none;stroke-opacity:1"
       d="m 164.05519,272.7766 c 0,0 12.9609,8.18581 33.42552,2.04649"
       id="path6314"
       inkscape:connector-curvature="0" />
    <path
       style="fill:none;stroke:#000000;stroke-width:15.94830418;stroke-linecap:butt;stroke-linejoin:miter;stroke-miterlimit:4;stroke-dasharray:none;stroke-opacity:1"
       d="m 162.00867,352.58862 c 0,0 12.27885,6.8215 27.28617,1.36433"
       id="path6316"
       inkscape:connector-curvature="0" />
    <path
       style="fill:none;stroke:#000000;stroke-width:15.94830418;stroke-linecap:butt;stroke-linejoin:miter;stroke-miterlimit:4;stroke-dasharray:none;stroke-opacity:1"
       d="m 105.38995,282.32671 c 0,0 16.37167,7.50373 30.01478,2.04652"
       id="path6318"
       inkscape:connector-curvature="0" />
    <path
       style="fill:none;stroke:#000000;stroke-width:15.94830418;stroke-linecap:butt;stroke-linejoin:miter;stroke-miterlimit:4;stroke-dasharray:none;stroke-opacity:1"
       d="m 103.34342,357.36367 c 3.94335,2.24708 13.91557,10.02923 29.10381,-1.56175"
       id="path6320"
       inkscape:connector-curvature="0"
       sodipodi:nodetypes="cc" />
    <path
       style="fill:none;stroke:#000000;stroke-width:15.94830418;stroke-linecap:butt;stroke-linejoin:miter;stroke-miterlimit:4;stroke-dasharray:none;stroke-opacity:1"
       d="m 35.976155,327.82532 c 0,0 13.023578,6.75292 25.082431,1.44706"
       id="path6322"
       inkscape:connector-curvature="0" />
    <path
       style="fill:none;stroke:#000000;stroke-width:15.94830418;stroke-linecap:butt;stroke-linejoin:miter;stroke-miterlimit:4;stroke-dasharray:none;stroke-opacity:1"
       d="m 32.11728,389.08446 c 0,0 10.129498,11.5766 25.082548,0.48224"
       id="path6324"
       inkscape:connector-curvature="0" />
    <path
       style="fill:none;stroke:#000000;stroke-width:15.94830418;stroke-linecap:butt;stroke-linejoin:miter;stroke-miterlimit:4;stroke-dasharray:none;stroke-opacity:1"
       d="m 280.02133,564.73839 c 0,0 15.00736,21.14681 17.73604,48.4329"
       id="path6326"
       inkscape:connector-curvature="0" />
    <path
       style="fill:none;stroke:#000000;stroke-width:15.94830418;stroke-linecap:butt;stroke-linejoin:miter;stroke-miterlimit:4;stroke-dasharray:none;stroke-opacity:1"
       d="m 131.31179,661.6042 c 0,0 15.68951,66.85096 98.91232,62.75814"
       id="path6328"
       inkscape:connector-curvature="0" />
    <path
       style="fill:none;stroke:#000000;stroke-width:15.94830418;stroke-linecap:butt;stroke-linejoin:miter;stroke-miterlimit:4;stroke-dasharray:none;stroke-opacity:1"
       d="m 10.911631,513.5768 c 0,0 92.772899,-4.77505 122.787679,13.64312"
       id="path6330"
       inkscape:connector-curvature="0"
       sodipodi:nodetypes="cc" />
    <path
       style="fill:none;stroke:#000000;stroke-width:15.94830418;stroke-linecap:butt;stroke-linejoin:miter;stroke-miterlimit:4;stroke-dasharray:none;stroke-opacity:1"
       d="m 130.51782,554.5324 c 0,0 61.74151,-39.07084 95.02402,-41.48266"
       id="path6332"
       inkscape:connector-curvature="0" />
    <path
       style="fill:none;stroke:#000000;stroke-width:15.94830418;stroke-linecap:butt;stroke-linejoin:miter;stroke-miterlimit:4;stroke-dasharray:none;stroke-opacity:1"
       d="m 270.88328,539.57936 c 0,0 -21.70602,-11.09416 -57.40028,2.41175"
       id="path6334"
       inkscape:connector-curvature="0" />
    <path
       style="fill:none;stroke:#000000;stroke-width:15.94830418;stroke-linecap:butt;stroke-linejoin:miter;stroke-miterlimit:4;stroke-dasharray:none;stroke-opacity:1"
       d="m 235.18901,525.10872 c 0,0 19.77655,-5.78826 33.76491,0.48223"
       id="path6336"
       inkscape:connector-curvature="0" />
    <path
       style="fill:none;stroke:#000000;stroke-width:15.94830418;stroke-linecap:butt;stroke-linejoin:miter;stroke-miterlimit:4;stroke-dasharray:none;stroke-opacity:1"
       d="m 1166.5397,383.49559 c 0,0 24.9709,-93.43935 37.859,-107.13303 0,0 12.8883,-37.05346 3.2221,-64.4409 0,0 -14.4992,-37.05342 26.5819,-117.604476 0,0 22.5543,-74.10701 -24.9709,-63.6354 0,0 -39.4701,21.74882 -45.9142,91.022676 0,0 7.2496,69.27398 -57.9968,-7.24957 0,0 3.2221,-40.275486 -9.6661,-60.413286 0,0 4.0276,-48.3306703 0.8055,-66.05187 0,0 24.9709,-35.4425 22.5543,-51.55268 0,0 62.83,-38.664604 28.193,-77.329134 19.9293,-24.98555 26.0651,-63.16806 -6.0211,-62.99457 0,0 -15.7277,-11.53541 -25.3939,3.38677 0,0 -85.3842,103.910954 -91.0227,115.993614 0,0 -24.1654,23.35983 -16.9157,60.41333 0,0 -3.2221,82.16209 -7.2497,112.77156 0,0 -11.27709,20.137626 9.6662,59.607726 34.5077,117.42074 42.9244,145.26209 18.5267,231.98717"
       id="path6338"
       inkscape:connector-curvature="0"
       sodipodi:nodetypes="cccccccccccccccccc" />
    <path
       style="fill:none;stroke:#000000;stroke-width:15.94830418;stroke-linecap:butt;stroke-linejoin:miter;stroke-miterlimit:4;stroke-dasharray:none;stroke-opacity:1"
       d="m 1147.2075,-140.89208 c 0,0 -24.1653,-16.91572 -112.7716,106.327524 0,0 -16.1102,45.91411 -12.8882,102.29985"
       id="path6340"
       inkscape:connector-curvature="0" />
    <path
       style="fill:none;stroke:#000000;stroke-width:15.94830418;stroke-linecap:butt;stroke-linejoin:miter;stroke-miterlimit:4;stroke-dasharray:none;stroke-opacity:1"
       d="m 1141.1864,-203.88665 c -32.3175,11.95209 -67.4967,64.80909 -116.4166,119.380384"
       id="path6342"
       inkscape:connector-curvature="0"
       sodipodi:nodetypes="cc" />
    <path
       style="fill:none;stroke:#000000;stroke-width:15.94830418;stroke-linecap:butt;stroke-linejoin:miter;stroke-miterlimit:4;stroke-dasharray:none;stroke-opacity:1"
       d="m 1171.3727,101.96954 c 0,0 26.582,17.31844 44.3032,15.70742"
       id="path6344"
       inkscape:connector-curvature="0" />
    <path
       style="fill:none;stroke:#000000;stroke-width:15.94830418;stroke-linecap:butt;stroke-linejoin:miter;stroke-miterlimit:4;stroke-dasharray:none;stroke-opacity:1"
       d="m 1074.7114,-21.273646 c 0,0 9.2634,8.8606 21.7488,9.26338"
       id="path6346"
       inkscape:connector-curvature="0" />
    <path
       style="fill:none;stroke:#000000;stroke-width:15.94830418;stroke-linecap:butt;stroke-linejoin:miter;stroke-miterlimit:4;stroke-dasharray:none;stroke-opacity:1"
       d="m 1109.3484,-75.645666 c 0,0 1.2083,9.66615 9.6661,12.08272"
       id="path6348"
       inkscape:connector-curvature="0" />
    <path
       style="fill:none;stroke:#000000;stroke-width:15.94830418;stroke-linecap:butt;stroke-linejoin:miter;stroke-miterlimit:4;stroke-dasharray:none;stroke-opacity:1"
       d="m 1095.6547,54.041604 c 0,0 -12.4854,10.47165 -27.7902,6.04132"
       id="path6350"
       inkscape:connector-curvature="0" />
    <path
       style="fill:none;stroke:#000000;stroke-width:15.94830418;stroke-linecap:butt;stroke-linejoin:miter;stroke-miterlimit:4;stroke-dasharray:none;stroke-opacity:1"
       d="m 1162.1094,159.16075 c 0,0 16.1103,20.13779 33.026,27.79011"
       id="path6352"
       inkscape:connector-curvature="0" />
    <path
       style="fill:none;stroke:#000000;stroke-width:15.94830418;stroke-linecap:butt;stroke-linejoin:miter;stroke-miterlimit:4;stroke-dasharray:none;stroke-opacity:1"
       d="m 1159.641,275.61114 c 2.2784,-60.94527 -42.1491,-121.32101 -42.1491,-121.32101 0,0 -14.0896,-14.16856 -12.1711,-39.83524"
       id="path6354"
       inkscape:connector-curvature="0" />
    <path
       style="fill:none;stroke:#000000;stroke-width:15.94830418;stroke-linecap:butt;stroke-linejoin:miter;stroke-miterlimit:4;stroke-dasharray:none;stroke-opacity:1"
       d="m 1204.3987,276.36256 c 0,0 -17.9873,24.31021 -37.3531,26.01892"
       id="path6356"
       inkscape:connector-curvature="0" />
    <path
       style="fill:none;stroke:#000000;stroke-width:15.94830418;stroke-linecap:butt;stroke-linejoin:miter;stroke-miterlimit:4;stroke-dasharray:none;stroke-opacity:1"
       d="m 1105.5796,-119.12658 c 0,0 3.511,8.4186 10.7732,9.84257 0,0 28.3367,-21.50172 19.6506,-30.89988"
       id="path6358"
       inkscape:connector-curvature="0"
       sodipodi:nodetypes="ccc" />
    <path
       style="fill:none;stroke:#000000;stroke-width:15.94830418;stroke-linecap:butt;stroke-linejoin:miter;stroke-miterlimit:4;stroke-dasharray:none;stroke-opacity:1"
       d="m 1102.3002,-174.72354 c 0,0 4.0276,10.8744 11.2772,11.47857 0,0 38.0604,-26.58188 22.957,-38.66454"
       id="path6362"
       inkscape:connector-curvature="0" />
    <path
       style="fill:none;stroke:#000000;stroke-width:15.94830418;stroke-linecap:butt;stroke-linejoin:miter;stroke-miterlimit:4;stroke-dasharray:none;stroke-opacity:1"
       d="m 1094.851,-174.78598 c 0,0 1.424,4.12946 4.1294,4.12946"
       id="path6364"
       inkscape:connector-curvature="0" />
    <path
       style="fill:none;stroke:#000000;stroke-width:15.94830418;stroke-linecap:butt;stroke-linejoin:miter;stroke-miterlimit:4;stroke-dasharray:none;stroke-opacity:1"
       d="m 1118.0616,-203.40753 c 0,0 5.2685,2.99036 5.5534,9.54055"
       id="path6366"
       inkscape:connector-curvature="0" />
    <path
       style="fill:none;stroke:#000000;stroke-width:15.94830418;stroke-linecap:butt;stroke-linejoin:miter;stroke-miterlimit:4;stroke-dasharray:none;stroke-opacity:1"
       d="m 1037.6579,128.55132 c 0,0 -13.6936,-12.48538 -8.8606,-42.692016"
       id="path6370"
       inkscape:connector-curvature="0" />
    <path
       style="fill:none;stroke:#000000;stroke-width:15.94830418;stroke-linecap:butt;stroke-linejoin:miter;stroke-miterlimit:4;stroke-dasharray:none;stroke-opacity:1"
       d="m 1107.3346,137.41192 c 0,0 -6.4441,8.05519 -14.9019,7.24961"
       id="path6372"
       inkscape:connector-curvature="0" />
    <path
       style="fill:none;stroke:#000000;stroke-width:33.50713348;stroke-linecap:butt;stroke-linejoin:miter;stroke-miterlimit:4;stroke-dasharray:none;stroke-opacity:1"
       d="M 685.88759,-15.565116 C 186.7855,-15.745336 372.04865,764.72276 674.04102,762.92376 976.03339,761.12466 1153.0108,-17.284756 685.88759,-15.565116 Z"
       id="path10-9"
       inkscape:connector-curvature="0"
       sodipodi:nodetypes="czc" />
    <path
       style="fill:none;stroke:#000000;stroke-width:33.50713348;stroke-linecap:butt;stroke-linejoin:miter;stroke-miterlimit:4;stroke-dasharray:none;stroke-opacity:1"
       d="m 1557.108,-15.565116 c -499.1022,-0.18021 -313.8391,780.287876 -11.8465,778.488876 301.9923,-1.7991 478.9697,-780.208516 11.8465,-778.488876 z"
       id="path10-9-3"
       inkscape:connector-curvature="0"
       sodipodi:nodetypes="czc" />
    <path
       style="fill:none;stroke:#000000;stroke-width:12.17606449;stroke-linecap:butt;stroke-linejoin:miter;stroke-miterlimit:4;stroke-dasharray:none;stroke-opacity:1"
       d="m 1083.6229,714.93491 c 0,-11.06969 0,-198.0249 0,-198.0249 h -38.1291 l 60.2685,-60.26844 59.6534,59.65351 h -33.8241 v 198.63983 z"
       id="path6983"
       inkscape:connector-curvature="0" />
    <path
       style="fill:none;stroke:#000000;stroke-width:17.00710106;stroke-linecap:butt;stroke-linejoin:miter;stroke-miterlimit:4;stroke-dasharray:none;stroke-opacity:1"
       d="m 1424.1605,601.43235 c 12.3739,-12.25952 119.7666,-128.41422 252.6769,2.42957 -129.0289,-32.18995 -252.6769,-2.42957 -252.6769,-2.42957 z"
       id="path29-3-1"
       inkscape:connector-curvature="0"
       sodipodi:nodetypes="cc" />
    <path
       style="fill:none;stroke:#000000;stroke-width:17.00710106;stroke-linecap:butt;stroke-linejoin:miter;stroke-miterlimit:4;stroke-dasharray:none;stroke-opacity:1"
       d="m 1338.2645,225.5294 c 79.695,-95.36455 120.4343,-87.65309 192.2421,-3.43597"
       id="path59-17-2"
       inkscape:connector-curvature="0"
       sodipodi:nodetypes="cc" />
    <path
       style="fill:none;stroke:#000000;stroke-width:17.00710106;stroke-linecap:butt;stroke-linejoin:miter;stroke-miterlimit:4;stroke-dasharray:none;stroke-opacity:1"
       d="m 1365.671,303.00022 c 54.565,-40.30328 87.835,-32.4874 130.436,-1.92848"
       id="path59-1-8-7"
       inkscape:connector-curvature="0"
       sodipodi:nodetypes="cc" />
    <path
       style="fill:none;stroke:#000000;stroke-width:17.00710106;stroke-linecap:butt;stroke-linejoin:miter;stroke-miterlimit:4;stroke-dasharray:none;stroke-opacity:1"
       d="m 1550.0156,360.55903 c 0,0 -7.7309,76.44989 -18.0389,85.03991 -10.3081,8.58975 19.757,2.5768 19.757,2.5768"
       id="path971-9-5"
       inkscape:connector-curvature="0" />
    <path
       style="fill:none;stroke:#000000;stroke-width:17.00710106;stroke-linecap:butt;stroke-linejoin:miter;stroke-miterlimit:4;stroke-dasharray:none;stroke-opacity:1"
       d="m 1565.0552,223.15248 c 79.695,-95.36456 120.4343,-87.65309 192.2422,-3.43597"
       id="path59-17-5-5"
       inkscape:connector-curvature="0"
       sodipodi:nodetypes="cc" />
    <path
       style="fill:none;stroke:#000000;stroke-width:17.00710106;stroke-linecap:butt;stroke-linejoin:miter;stroke-miterlimit:4;stroke-dasharray:none;stroke-opacity:1"
       d="m 1592.4618,300.6233 c 54.565,-40.30327 87.835,-32.48741 130.4352,-1.92848"
       id="path59-1-8-3-2"
       inkscape:connector-curvature="0"
       sodipodi:nodetypes="cc" />
    <path
       style="fill:none;stroke:#000000;stroke-width:17.00710106;stroke-linecap:butt;stroke-linejoin:miter;stroke-miterlimit:4;stroke-dasharray:none;stroke-opacity:1"
       d="m 556.32717,601.43235 c 12.3739,-12.25952 119.7666,-128.41422 252.6769,2.42957 -129.0289,-32.18995 -252.6769,-2.42957 -252.6769,-2.42957 z"
       id="path29-3-1-6"
       inkscape:connector-curvature="0"
       sodipodi:nodetypes="cc" />
    <path
       style="fill:none;stroke:#000000;stroke-width:17.00710106;stroke-linecap:butt;stroke-linejoin:miter;stroke-miterlimit:4;stroke-dasharray:none;stroke-opacity:1"
       d="m 470.43117,225.5294 c 79.695,-95.36455 120.4343,-87.65309 192.2421,-3.43597"
       id="path59-17-2-7"
       inkscape:connector-curvature="0"
       sodipodi:nodetypes="cc" />
    <path
       style="fill:none;stroke:#000000;stroke-width:17.00710106;stroke-linecap:butt;stroke-linejoin:miter;stroke-miterlimit:4;stroke-dasharray:none;stroke-opacity:1"
       d="m 497.83767,303.00022 c 54.565,-40.30328 87.835,-32.4874 130.436,-1.92848"
       id="path59-1-8-7-3"
       inkscape:connector-curvature="0"
       sodipodi:nodetypes="cc" />
    <path
       style="fill:none;stroke:#000000;stroke-width:17.00710106;stroke-linecap:butt;stroke-linejoin:miter;stroke-miterlimit:4;stroke-dasharray:none;stroke-opacity:1"
       d="m 682.18227,360.55903 c 0,0 -7.7309,76.44989 -18.0389,85.03991 -10.3081,8.58975 19.757,2.5768 19.757,2.5768"
       id="path971-9-5-9"
       inkscape:connector-curvature="0" />
    <path
       style="fill:none;stroke:#000000;stroke-width:17.00710106;stroke-linecap:butt;stroke-linejoin:miter;stroke-miterlimit:4;stroke-dasharray:none;stroke-opacity:1"
       d="m 697.22187,223.15248 c 79.695,-95.36456 120.4343,-87.65309 192.2422,-3.43597"
       id="path59-17-5-5-3"
       inkscape:connector-curvature="0"
       sodipodi:nodetypes="cc" />
    <path
       style="fill:none;stroke:#000000;stroke-width:17.00710106;stroke-linecap:butt;stroke-linejoin:miter;stroke-miterlimit:4;stroke-dasharray:none;stroke-opacity:1"
       d="m 724.62847,300.6233 c 54.565,-40.30327 87.835,-32.48741 130.4352,-1.92848"
       id="path59-1-8-3-2-6"
       inkscape:connector-curvature="0"
       sodipodi:nodetypes="cc" />
    <path
       style="font-style:normal;font-weight:normal;font-size:233.33332825px;line-height:1.25;font-family:sans-serif;letter-spacing:0px;word-spacing:0px;fill:#000000;fill-opacity:1;stroke:none"
       d="M 404.12495,859.23895 342.373,1028.8854 h 22.90039 l 16.63476,-47.28325 h 73.37305 l 16.63281,47.28325 h 24.04102 L 434.20307,859.23895 Z m 527.39258,5.8105 v 36.5723 h -14.46875 v 18.0019 h 14.46875 v 67.6758 c 0,15.41875 3.38064,26.62145 10.14062,33.60935 6.75999,6.9879 16.63282,10.4825 29.6211,10.4825 3.72178,0 7.93728,-0.3418 12.64648,-1.0254 4.78516,-0.6837 9.19119,-1.5578 13.2168,-2.6212 v -19.2539 h -1.13867 c -1.67101,0.6836 -4.40539,1.5577 -8.20313,2.6211 -3.79774,0.9874 -7.44358,1.4805 -10.9375,1.4805 -6.00043,0 -10.48307,-0.6836 -13.44531,-2.0508 -2.88629,-1.4431 -5.16493,-3.6845 -6.83594,-6.7227 -1.82292,-3.266 -2.88563,-6.75855 -3.18945,-10.48035 -0.30382,-3.7978 -0.45508,-9.0387 -0.45508,-15.7227 v -57.9922 h 44.20508 v -18.0019 h -44.20508 v -36.5723 z m -512.92383,13.9004 29.73633,83.2852 h -59.58594 z m 272.86914,19.1406 c -18.0013,0 -32.31944,6.0384 -42.95312,18.1153 -10.55773,12.0008 -15.83594,28.3698 -15.83594,49.1054 0,20.7357 5.27821,37.10265 15.83594,49.10345 10.63368,12.001 24.95182,18.002 42.95312,18.002 17.84939,0 32.09093,-6.001 42.72461,-18.002 10.63368,-12.0008 15.94922,-28.36775 15.94922,-49.10345 0,-20.7356 -5.31554,-37.1046 -15.94922,-49.1054 -10.63368,-12.0769 -24.87522,-18.1153 -42.72461,-18.1153 z m 156.08594,0 c -7.51953,0 -14.84853,1.5578 -21.98828,4.6719 -7.13976,3.1142 -14.0523,7.4436 -20.73633,12.9883 v -14.1289 H 783.4062 v 127.26365 h 21.41797 v -95.01955 c 5.84852,-4.4813 11.96354,-8.1664 18.34375,-11.0527 6.38021,-2.8863 12.49522,-4.3281 18.34375,-4.3281 5.69661,0 10.32856,0.7975 13.89844,2.3925 3.56987,1.5191 6.30425,3.8724 8.20312,7.0625 1.82292,2.8863 3.07617,6.9132 3.75977,12.0782 0.68359,5.0889 1.02539,10.5577 1.02539,16.4062 v 72.46105 h 21.41992 v -82.60165 c 0,-15.5708 -3.60851,-27.4963 -10.82422,-35.7754 -7.21571,-8.2791 -17.69748,-12.418 -31.44531,-12.418 z m 228.43562,0 c -18.5331,0 -33.4974,6.115 -44.8906,18.3438 -11.3174,12.2287 -16.9747,28.7489 -16.9747,49.5605 0,21.0395 5.9244,37.29255 17.7735,48.76165 11.8489,11.3933 28.3298,17.0899 49.4452,17.0899 8.2791,0 16.1798,-1.0254 23.6993,-3.0762 7.5195,-2.0508 14.8859,-4.5945 22.1015,-7.6328 V 997.78185 H 1126 c -3.7219,3.34195 -9.9882,6.75995 -18.7989,10.25385 -8.7347,3.418 -17.431,5.127 -26.0898,5.127 -6.5321,0 -12.5332,-0.9115 -18.0019,-2.7344 -5.3928,-1.8229 -10.064,-4.5573 -14.0137,-8.2031 -4.1016,-3.72175 -7.329,-8.46955 -9.6836,-14.24215 -2.3546,-5.8485 -3.5332,-12.6845 -3.5332,-20.5078 h 93.7676 v -11.6211 c 0,-18.457 -4.6712,-32.6986 -14.0137,-42.7246 -9.2665,-10.0261 -22.4826,-15.0391 -39.6484,-15.0391 z m 260.6757,0 c -18.533,0 -33.4955,6.115 -44.8887,18.3438 -11.3173,12.2287 -16.9766,28.7489 -16.9766,49.5605 0,21.0395 5.9245,37.29255 17.7735,48.76165 11.8489,11.3933 28.3318,17.0899 49.4472,17.0899 8.2792,0 16.1779,-1.0254 23.6974,-3.0762 7.5195,-2.0508 14.8878,-4.5945 22.1035,-7.6328 v -23.35545 h -1.1387 c -3.7218,3.34195 -9.988,6.75995 -18.7988,10.25385 -8.7348,3.418 -17.4329,5.127 -26.0919,5.127 -6.5321,0 -12.5312,-0.9115 -18,-2.7344 -5.3928,-1.8229 -10.064,-4.5573 -14.0137,-8.2031 -4.1015,-3.72175 -7.3309,-8.46955 -9.6855,-14.24215 -2.3546,-5.8485 -3.5313,-12.6845 -3.5313,-20.5078 h 93.7658 v -11.6211 c 0,-18.457 -4.6713,-32.6986 -14.0137,-42.7246 -9.2665,-10.0261 -22.4826,-15.0391 -39.6485,-15.0391 z m -763.3457,0.5703 c -18.76085,0 -33.87652,5.9245 -45.3457,17.7735 -11.39323,11.8489 -17.08984,28.1786 -17.08984,48.9902 0,11.1654 1.5204,20.9262 4.55859,29.2813 3.03819,8.35495 7.32834,15.26555 12.87305,20.73425 5.46875,5.4688 12.03949,9.5704 19.71093,12.3047 7.67145,2.6584 16.10244,3.9883 25.29297,3.9883 7.21571,0 14.01433,-0.9488 20.39453,-2.8476 6.45617,-1.8989 13.25283,-4.5585 20.39258,-7.9766 v -23.58395 h -1.13867 c -1.59505,1.2912 -3.75977,2.84895 -6.49414,4.67185 -2.73437,1.7469 -5.65929,3.4186 -8.77344,5.0137 -3.56988,1.8229 -7.59483,3.304 -12.07617,4.4433 -4.48134,1.1393 -8.88737,1.709 -13.2168,1.709 -12.45659,0 -22.14084,-4.1016 -29.05273,-12.3047 -6.83594,-8.27905 -10.25391,-20.09065 -10.25391,-35.43355 0,-15.7986 3.49458,-27.7615 10.48242,-35.8887 7.06381,-8.2031 16.67145,-12.3046 28.82422,-12.3046 6.60808,0 13.36936,1.3671 20.28125,4.1015 6.98785,2.7344 13.74718,6.6454 20.2793,11.7344 h 1.13867 v -23.8106 c -5.84852,-2.9622 -12.30338,-5.4687 -19.36718,-7.5195 -6.98785,-2.0508 -14.12826,-3.0762 -21.41993,-3.0762 z m 642.123,0 c -18.7609,0 -33.8765,5.9245 -45.3457,17.7735 -11.3932,11.8489 -17.0898,28.1786 -17.0898,48.9902 0,11.1654 1.5184,20.9262 4.5566,29.2813 3.0382,8.35495 7.3303,15.26555 12.875,20.73425 5.4687,5.4688 12.0395,9.5704 19.7109,12.3047 7.6716,2.6584 16.1025,3.9883 25.293,3.9883 7.2157,0 14.0124,-0.9488 20.3926,-2.8476 6.4561,-1.8989 13.2548,-4.5585 20.3945,-7.9766 v -23.58395 h -1.1387 c -1.595,1.2912 -3.7597,2.84895 -6.4941,4.67185 -2.7344,1.7469 -5.6593,3.4186 -8.7734,5.0137 -3.5699,1.8229 -7.5949,3.304 -12.0762,4.4433 -4.4813,1.1393 -8.8874,1.709 -13.2168,1.709 -12.4565,0 -22.1409,-4.1016 -29.0526,-12.3047 -6.836,-8.27905 -10.254,-20.09065 -10.254,-35.43355 0,-15.7986 3.4945,-27.7615 10.4824,-35.8887 7.0638,-8.2031 16.6714,-12.3046 28.8242,-12.3046 6.6081,0 13.3674,1.3671 20.2793,4.1015 6.9878,2.7344 13.7491,6.6454 20.2812,11.7344 h 1.1387 v -23.8106 c -5.8485,-2.9622 -12.3053,-5.4687 -19.3691,-7.5195 -6.9879,-2.0508 -14.1263,-3.0762 -21.418,-3.0762 z m 207.3556,2.961 v 127.26365 h 21.4199 v -90.34965 c 5.6966,-4.6332 11.6211,-8.393 17.7734,-11.2793 6.1524,-2.9622 12.5326,-4.4433 19.1407,-4.4433 4.1015,0 7.6334,0.1905 10.5957,0.5703 3.0382,0.3038 6.1516,0.8362 9.3418,1.5957 h 1.1406 v -21.9902 c -3.342,-0.5317 -5.8485,-0.8735 -7.5196,-1.0254 -1.671,-0.2279 -4.368,-0.3418 -8.0898,-0.3418 -6.76,0 -13.4054,1.4438 -19.9375,4.3301 -6.4562,2.8103 -13.9384,7.6328 -22.4453,14.4687 v -18.7988 z m -347.9493,14.1289 c 11.3932,0 19.8634,3.0762 25.4082,9.2285 5.6206,6.1523 8.4689,14.8485 8.5449,26.0898 h -72.918 c 0.9115,-10.026 4.7478,-18.4197 11.5078,-25.1796 6.836,-6.76 15.9879,-10.1387 27.4571,-10.1387 z m 260.6777,0 c 11.3933,0 19.8616,3.0762 25.4063,9.2285 5.6207,6.1523 8.469,14.8485 8.545,26.0898 h -72.9162 c 0.9115,-10.026 4.7479,-18.4197 11.5079,-25.1796 6.8359,-6.76 15.9878,-10.1387 27.457,-10.1387 z m -644.05856,0.7969 c 11.46918,0 20.43056,4.0249 26.88672,12.0761 6.45616,7.9753 9.68555,20.2053 9.68555,36.6875 0,16.1025 -3.26671,28.2539 -9.79883,36.45705 -6.45616,8.1271 -15.38021,12.1914 -26.77344,12.1914 -11.54514,0 -20.54579,-4.1016 -27.00195,-12.3047 -6.45617,-8.27905 -9.68555,-20.39315 -9.68555,-36.34375 0,-16.4822 3.1901,-28.7122 9.57031,-36.6875 6.45617,-8.0512 15.4961,-12.0761 27.11719,-12.0761 z"
       id="text623"
       inkscape:connector-curvature="0" />
  </g>
</svg>
