<?xml version="1.0" encoding="UTF-8" standalone="no"?>
<!-- Created with Inkscape (http://www.inkscape.org/) -->

<svg
   xmlns:dc="http://purl.org/dc/elements/1.1/"
   xmlns:cc="http://creativecommons.org/ns#"
   xmlns:rdf="http://www.w3.org/1999/02/22-rdf-syntax-ns#"
   xmlns:svg="http://www.w3.org/2000/svg"
   xmlns="http://www.w3.org/2000/svg"
   xmlns:sodipodi="http://sodipodi.sourceforge.net/DTD/sodipodi-0.dtd"
   xmlns:inkscape="http://www.inkscape.org/namespaces/inkscape"
   width="1000"
   height="1250"
   viewBox="0 0 1000 1250"
   version="1.1"
   id="svg9223"
   inkscape:version="0.92.4 (5da689c313, 2019-01-14)"
   sodipodi:docname="Ainda.svg">
  <defs
     id="defs9217" />
  <sodipodi:namedview
     id="base"
     pagecolor="#ffffff"
     bordercolor="#666666"
     borderopacity="1.0"
     inkscape:pageopacity="0.0"
     inkscape:pageshadow="2"
     inkscape:zoom="0.1767767"
     inkscape:cx="650.02085"
     inkscape:cy="829.04977"
     inkscape:document-units="px"
     inkscape:current-layer="layer1"
     showgrid="false"
     units="px"
     inkscape:window-width="681"
     inkscape:window-height="706"
     inkscape:window-x="676"
     inkscape:window-y="0"
     inkscape:window-maximized="0" />
  <metadata
     id="metadata9220">
    <rdf:RDF>
      <cc:Work
         rdf:about="">
        <dc:format>image/svg+xml</dc:format>
        <dc:type
           rdf:resource="http://purl.org/dc/dcmitype/StillImage" />
        <dc:title></dc:title>
      </cc:Work>
    </rdf:RDF>
  </metadata>
  <g
     inkscape:label="Camada 1"
     inkscape:groupmode="layer"
     id="layer1"
     transform="translate(0,217.58334)">
    <path
       style="fill:none;stroke:#000000;stroke-width:15.83362389;stroke-linecap:butt;stroke-linejoin:miter;stroke-miterlimit:4;stroke-dasharray:none;stroke-opacity:1"
       d="m 140.90455,777.54274 c 0,0 16.50141,-21.1219 15.1813,-44.88394 0,0 -4.62038,-91.08777 2.64023,-116.16986 0,0 4.62038,-41.58358 2.64023,-73.92627 0,0 -4.62038,-23.10202 0,-33.00281 0,0 -19.80167,-56.76489 61.38525,-71.28613 0,0 7.92066,-9.24074 17.16147,-44.22377 0,0 19.80166,-58.0849 23.10195,-60.06509 0,0 3.96033,-22.4419 29.70255,-22.4419 0,0 62.0453,-5.28045 81.84695,-1.98019 0,0 21.78189,-9.24074 27.06229,44.22378 0,0 11.221,21.12183 11.221,39.60336 0,0 -0.66008,20.13172 -21.78189,10.89094 0,0 14.71475,17.36232 9.58069,55.63415 0,0 25.20342,-0.46674 23.33653,32.2044 0,0 3.73385,18.66923 -2.80039,31.27093 0,0 -5.13403,10.73482 -3.26711,23.80326 0,0 13.53519,17.73572 -6.5342,48.53995 0,0 4.66728,45.27279 -14.93538,85.4116 -11.66822,33.60458 -21.00291,45.73961 -31.73766,60.20817 0,0 -14.00189,17.26912 -19.13591,36.87182"
       id="path9779"
       inkscape:connector-curvature="0" />
    <path
       style="fill:none;stroke:#000000;stroke-width:15.83362389;stroke-linecap:butt;stroke-linejoin:miter;stroke-miterlimit:4;stroke-dasharray:none;stroke-opacity:1"
       d="m 391.06588,404.28086 c 0,0 -9.57079,-14.85124 -35.64301,-8.91079 0,0 -28.05241,4.62045 -40.92346,8.91079 0,0 -32.01274,10.56089 -51.81445,21.78187 0,0 -24.75212,11.55093 -39.9334,12.211"
       id="path9781"
       inkscape:connector-curvature="0" />
    <path
       style="fill:none;stroke:#000000;stroke-width:15.83362389;stroke-linecap:butt;stroke-linejoin:miter;stroke-miterlimit:4;stroke-dasharray:none;stroke-opacity:1"
       d="m 373.24438,394.04996 c 0,0 -13.2011,-13.53112 -17.16143,-31.6827 0,0 -49.8343,-15.8413 -54.45467,46.20397"
       id="path9783"
       inkscape:connector-curvature="0" />
    <path
       style="fill:none;stroke:#000000;stroke-width:15.83362389;stroke-linecap:butt;stroke-linejoin:miter;stroke-miterlimit:4;stroke-dasharray:none;stroke-opacity:1"
       d="m 356.08295,362.36726 c 0,0 -1.15511,-7.92063 2.80522,-12.70607"
       id="path9785"
       inkscape:connector-curvature="0" />
    <path
       style="fill:none;stroke:#000000;stroke-width:15.83362389;stroke-linecap:butt;stroke-linejoin:miter;stroke-miterlimit:4;stroke-dasharray:none;stroke-opacity:1"
       d="m 301.46642,355.8342 c 0,0 8.36375,9.12573 11.63081,17.52688"
       id="path9787"
       inkscape:connector-curvature="0"
       sodipodi:nodetypes="cc" />
    <path
       style="fill:none;stroke:#000000;stroke-width:15.83362389;stroke-linecap:butt;stroke-linejoin:miter;stroke-miterlimit:4;stroke-dasharray:none;stroke-opacity:1"
       d="m 402.78192,356.92182 c -9.77886,4.27823 -13.92295,32.63792 9.90084,35.80803"
       id="path9789"
       inkscape:connector-curvature="0"
       sodipodi:nodetypes="cc" />
    <path
       style="fill:none;stroke:#000000;stroke-width:15.83362389;stroke-linecap:butt;stroke-linejoin:miter;stroke-miterlimit:4;stroke-dasharray:none;stroke-opacity:1"
       d="m 400.64657,459.91501 c 0,0 -42.00572,-9.56795 -84.01138,-4.66729 0,0 -35.7049,7.00097 -54.14077,-1.86687"
       id="path9791"
       inkscape:connector-curvature="0" />
    <path
       style="fill:none;stroke:#000000;stroke-width:15.83362389;stroke-linecap:butt;stroke-linejoin:miter;stroke-miterlimit:4;stroke-dasharray:none;stroke-opacity:1"
       d="m 417.9156,547.1936 c 0,0 -12.32851,-15.19187 -49.2916,-24.76269 0,0 -55.11473,-16.83142 -70.95605,-21.45179 0,0 -18.81161,-4.95042 -28.71245,-12.87109"
       id="path9793"
       inkscape:connector-curvature="0" />
    <path
       style="fill:none;stroke:#000000;stroke-width:15.83362389;stroke-linecap:butt;stroke-linejoin:miter;stroke-miterlimit:4;stroke-dasharray:none;stroke-opacity:1"
       d="m 411.3814,595.73355 c 0,0 -18.66534,49.13778 -28.89621,59.0386 0,0 -12.21109,23.76206 -68.97592,2.97027 0,0 -7.59064,-23.76202 -5.94052,-34.65292 0,0 19.47173,-4.95045 21.45187,-12.21104 0,0 -10.56092,-26.73228 -18.48158,-36.63318"
       id="path9795"
       inkscape:connector-curvature="0" />
    <path
       style="fill:none;stroke:#000000;stroke-width:15.83362389;stroke-linecap:butt;stroke-linejoin:miter;stroke-miterlimit:4;stroke-dasharray:none;stroke-opacity:1"
       d="m 329.02062,610.87846 c 0,0 21.12176,11.22089 46.53396,-8.58075"
       id="path9797"
       inkscape:connector-curvature="0" />
    <path
       style="fill:none;stroke:#000000;stroke-width:15.83362389;stroke-linecap:butt;stroke-linejoin:miter;stroke-miterlimit:4;stroke-dasharray:none;stroke-opacity:1"
       d="m 348.82231,651.47189 c 0,0 -25.08217,-22.77198 -19.80169,-40.59343"
       id="path9799"
       inkscape:connector-curvature="0" />
    <path
       style="fill:none;stroke:#000000;stroke-width:15.83362389;stroke-linecap:butt;stroke-linejoin:miter;stroke-miterlimit:4;stroke-dasharray:none;stroke-opacity:1"
       d="m 255.75436,609.22831 c 0,0 40.59348,7.92071 51.81439,13.86119"
       id="path9801"
       inkscape:connector-curvature="0" />
    <path
       style="fill:none;stroke:#000000;stroke-width:15.83362389;stroke-linecap:butt;stroke-linejoin:miter;stroke-miterlimit:4;stroke-dasharray:none;stroke-opacity:1"
       d="m 313.50927,657.74242 c 0,0 31.6827,22.4419 19.14163,94.38802"
       id="path9803"
       inkscape:connector-curvature="0" />
    <path
       style="fill:none;stroke:#000000;stroke-width:15.83362389;stroke-linecap:butt;stroke-linejoin:miter;stroke-miterlimit:4;stroke-dasharray:none;stroke-opacity:1"
       d="m 183.47823,538.93229 c 0,0 -2.97028,-46.86396 41.25352,-48.84411"
       id="path9805"
       inkscape:connector-curvature="0" />
    <path
       style="fill:none;stroke:#000000;stroke-width:15.83362389;stroke-linecap:butt;stroke-linejoin:miter;stroke-miterlimit:4;stroke-dasharray:none;stroke-opacity:1"
       d="m 161.36631,509.55986 c 0,0 2.64023,-33.33287 49.50426,-40.59351"
       id="path9807"
       inkscape:connector-curvature="0" />
    <path
       style="color:#000000;font-style:normal;font-variant:normal;font-weight:normal;font-stretch:normal;font-size:medium;line-height:normal;font-family:sans-serif;font-variant-ligatures:normal;font-variant-position:normal;font-variant-caps:normal;font-variant-numeric:normal;font-variant-alternates:normal;font-feature-settings:normal;text-indent:0;text-align:start;text-decoration:none;text-decoration-line:none;text-decoration-style:solid;text-decoration-color:#000000;letter-spacing:normal;word-spacing:normal;text-transform:none;writing-mode:lr-tb;direction:ltr;text-orientation:mixed;dominant-baseline:auto;baseline-shift:baseline;text-anchor:start;white-space:normal;shape-padding:0;clip-rule:nonzero;display:inline;overflow:visible;visibility:visible;opacity:1;isolation:auto;mix-blend-mode:normal;color-interpolation:sRGB;color-interpolation-filters:linearRGB;solid-color:#000000;solid-opacity:1;vector-effect:none;fill:#000000;fill-opacity:1;fill-rule:nonzero;stroke:none;stroke-width:25.47543716;stroke-linecap:butt;stroke-linejoin:miter;stroke-miterlimit:4;stroke-dasharray:none;stroke-dashoffset:0;stroke-opacity:1;color-rendering:auto;image-rendering:auto;shape-rendering:auto;text-rendering:auto;enable-background:accumulate"
       d="m 338.22289,-216.16941 c -98.1555,-0.0203 -165.59304,39.39244 -204.38,98.35236 C 95.048473,-58.845794 84.229344,18.156486 92.708196,94.378446 101.18705,170.6004 129.00473,246.37675 170.07634,303.9246 c 19.93509,27.93227 43.22144,51.75122 69.10129,68.82649 l 4.96743,-14.34461 168.8784,1.37936 4.55331,13.13952 c 26.38996,-17.3635 50.06712,-41.74745 70.3019,-70.36434 40.82892,-57.74211 68.59868,-133.4902 77.82006,-209.522814 9.22141,-76.03264 -0.0189,-152.62407 -35.84382,-211.361746 -35.81787,-58.72565 -99.28518,-98.16941 -191.57748,-97.84587 z m 0.0399,25.4725 h 0.0318 0.0238 c 85.2537,-0.31385 138.13332,33.73134 169.79067,85.63559 31.65734,51.904256 41.02234,123.106416 32.29838,195.037216 -8.72391,71.930774 -35.44609,144.312694 -73.32398,197.881334 -17.43763,24.66102 -37.03797,45.17022 -58.18148,60.15391 0.17355,4.33521 0.55931,3.7272 4.12123,11.7747 l -168.87841,-1.37936 3.96504,-10.39768 c -20.7907,-14.72543 -40.10031,-34.78708 -57.29634,-58.88144 -38.059,-53.3235 -64.78644,-125.62476 -72.78865,-197.561894 -8.00221,-71.93707 2.76106,-143.17218 37.10616,-195.380036 34.3451,-52.20788 91.58361,-86.91534 183.13082,-86.88234 z"
       id="path10-9-9-0-3-4-7"
       inkscape:connector-curvature="0"
       sodipodi:nodetypes="csssccccssccccccssscccccsscc" />
    <path
       style="fill:none;stroke:#000000;stroke-width:13.43322563;stroke-linecap:butt;stroke-linejoin:miter;stroke-miterlimit:4;stroke-dasharray:none;stroke-opacity:1"
       d="m 256.9427,291.95292 c 0,0 71.38049,-105.00127 150.16584,-1.05776 -76.31486,-24.83018 -150.16584,1.05776 -150.16584,1.05776 z"
       id="path29-3-1"
       inkscape:connector-curvature="0"
       sodipodi:nodetypes="ccc" />
    <path
       style="fill:none;stroke:#000000;stroke-width:13.43322563;stroke-linecap:butt;stroke-linejoin:miter;stroke-miterlimit:4;stroke-dasharray:none;stroke-opacity:1"
       d="M 166.47423,-7.3391245 C 229.42221,-82.663754 261.60035,-76.572774 318.31845,-10.053044"
       id="path59-17-2"
       inkscape:connector-curvature="0"
       sodipodi:nodetypes="cc" />
    <path
       style="fill:none;stroke:#000000;stroke-width:13.43322563;stroke-linecap:butt;stroke-linejoin:miter;stroke-miterlimit:4;stroke-dasharray:none;stroke-opacity:1"
       d="m 188.12134,53.851966 c 43.09875,-31.83393 69.37756,-25.66049 103.02613,-1.52323"
       id="path59-1-8-7"
       inkscape:connector-curvature="0"
       sodipodi:nodetypes="cc" />
    <path
       style="fill:none;stroke:#000000;stroke-width:13.43322563;stroke-linecap:butt;stroke-linejoin:miter;stroke-miterlimit:4;stroke-dasharray:none;stroke-opacity:1"
       d="m 333.72768,99.315346 c 0,0 -6.10628,60.384724 -14.24808,67.169614 -8.14178,6.7847 15.60505,2.03533 15.60505,2.03533"
       id="path971-9-5"
       inkscape:connector-curvature="0" />
    <path
       style="fill:none;stroke:#000000;stroke-width:13.43322563;stroke-linecap:butt;stroke-linejoin:miter;stroke-miterlimit:4;stroke-dasharray:none;stroke-opacity:1"
       d="M 345.6069,-9.2165545 C 408.55496,-84.541184 440.73308,-78.450214 497.45115,-11.930494"
       id="path59-17-5-5"
       inkscape:connector-curvature="0"
       sodipodi:nodetypes="cc" />
    <path
       style="fill:none;stroke:#000000;stroke-width:13.43322563;stroke-linecap:butt;stroke-linejoin:miter;stroke-miterlimit:4;stroke-dasharray:none;stroke-opacity:1"
       d="m 367.25408,51.974536 c 43.09873,-31.83394 69.37755,-25.66049 103.02611,-1.52323"
       id="path59-1-8-3-2"
       inkscape:connector-curvature="0"
       sodipodi:nodetypes="cc" />
    <path
       inkscape:connector-curvature="0"
       style="font-style:normal;font-weight:normal;font-size:233.33332825px;line-height:1.25;font-family:sans-serif;letter-spacing:0px;word-spacing:0px;fill:#000000;fill-opacity:1;stroke:none"
       d="m 471.33789,851.60614 v 55.1425 c -5.69661,-2.9622 -11.12804,-5.1269 -16.29297,-6.4941 -5.16493,-1.4432 -11.08941,-2.1641 -17.77344,-2.1641 -7.36762,0 -14.50607,1.5185 -21.41796,4.5567 -6.83594,3.0382 -12.83703,7.4442 -18.00196,13.2168 -5.24088,5.9244 -9.41905,13.1022 -12.5332,21.5332 -3.03819,8.431 -4.55664,18.0386 -4.55664,28.82422 0,20.7357 4.44336,36.95334 13.33008,48.65044 8.96267,11.697 21.03949,17.5449 36.23047,17.5449 7.82335,0 15.07769,-1.4811 21.76171,-4.4434 6.68403,-2.9622 13.10157,-7.1011 19.25391,-12.4179 v 13.3301 h 21.41992 V 851.60614 Z m -294.85742,6.4941 v 22.2168 h 24.1543 v -22.2168 z M 61.75195,859.23894 0,1028.8855 h 22.90039 l 16.63477,-47.28334 h 73.37109 l 16.63477,47.28334 h 24.03906 L 91.830079,859.23894 Z m 14.468753,19.7109 29.736327,83.2852 H 46.37109 Z m 229.800777,19.1406 c -7.51953,0 -14.84852,1.5578 -21.98828,4.6719 -7.13975,3.1142 -14.0523,7.4436 -20.73632,12.9883 v -14.1289 h -21.41797 v 127.26376 h 21.41797 v -95.01966 c 5.84852,-4.4813 11.96354,-8.1664 18.34375,-11.0527 6.3802,-2.8863 12.49522,-4.3281 18.34375,-4.3281 5.69661,0 10.32855,0.7975 13.89843,2.3925 3.56988,1.5191 6.30426,3.8724 8.20313,7.0625 1.82291,2.8863 3.07617,6.9132 3.75976,12.0782 0.6836,5.0889 1.02539,10.5577 1.02539,16.4062 v 72.46106 h 21.41993 v -82.60166 c 0,-15.5708 -3.60851,-27.4963 -10.82422,-35.7754 -7.21571,-8.2791 -17.69749,-12.418 -31.44532,-12.418 z m 272.41211,0.4551 c -7.67144,0 -15.45616,0.6836 -23.35546,2.0508 -7.89931,1.3672 -13.93772,2.6204 -18.11524,3.7598 v 21.7617 h 1.13867 c 7.36762,-2.8104 14.50803,-4.9377 21.41992,-6.3809 6.9119,-1.5191 13.17817,-2.2773 18.79883,-2.2773 4.63325,0 9.07661,0.3025 13.33008,0.9101 4.25347,0.6077 7.89931,1.7863 10.9375,3.5332 3.19011,1.8229 5.62001,4.3295 7.29102,7.5196 1.74696,3.1901 2.62109,7.215 2.62109,12.0761 v 3.3047 c -12.4566,0.6077 -24.11502,1.5191 -34.97656,2.7344 -10.86155,1.2153 -20.16667,3.5312 -27.91406,6.9492 -7.67145,3.418 -13.59592,8.1265 -17.77344,14.12702 -4.10156,5.9244 -6.15235,13.7111 -6.15235,23.3574 0,11.77304 3.98763,21.45724 11.96289,29.05274 7.97527,7.5955 17.69684,11.3926 29.16602,11.3926 6.2283,0 11.65972,-0.607 16.29297,-1.8223 4.63325,-1.1393 8.73481,-2.5831 12.30469,-4.33 3.03819,-1.3672 6.15169,-3.1901 9.34179,-5.4688 3.26606,-2.3546 5.84918,-4.1775 7.74805,-5.4687 v 13.5586 h 21.30469 v -86.36146 c 0,-8.2031 -1.25326,-15.0764 -3.75977,-20.6211 -2.50651,-5.5447 -6.15234,-10.0646 -10.9375,-13.5586 -4.86111,-3.5698 -10.63238,-6.0764 -17.3164,-7.5195 -6.60808,-1.5191 -14.39475,-2.2793 -23.35743,-2.2793 z m -400.58593,3.0762 v 127.26376 h 21.41992 V 901.62174 Z m 263.07031,16.0644 c 5.39279,0 10.36849,0.495 14.92578,1.4825 4.55729,0.9874 9.72157,2.771 15.49414,5.3535 v 73.03122 c -5.39279,4.25354 -11.20334,7.74814 -17.43164,10.48244 -6.2283,2.6585 -12.38064,3.9864 -18.45703,3.9864 -11.39323,0 -19.67296,-3.9111 -24.83789,-11.7344 -5.16493,-7.89934 -7.74609,-19.40654 -7.74609,-34.52154 -10e-6,-15.34292 3.34136,-27.19182 10.02539,-35.54692 6.68402,-8.355 16.02647,-12.5332 28.02734,-12.5332 z M 612.5,962.11974 v 35.43362 c -5.31684,4.10164 -11.09006,7.63354 -17.31836,10.59574 -6.2283,2.8863 -13.10156,4.3301 -20.62109,4.3301 -9.03863,0 -15.76064,-1.8229 -20.16602,-5.4687 -4.40538,-3.7218 -6.60742,-9.22994 -6.60742,-16.52154 0,-6.4562 1.89757,-11.5065 5.69531,-15.1524 3.79775,-3.7218 8.77344,-6.4561 14.92578,-8.2031 5.16493,-1.4431 12.15213,-2.5451 20.96289,-3.3047 8.88672,-0.7595 16.59679,-1.32922 23.12891,-1.70902 z"
       id="text175" />
  </g>
</svg>
