<?xml version="1.0" encoding="UTF-8" standalone="no"?>
<!-- Created with Inkscape (http://www.inkscape.org/) -->

<svg
   xmlns:dc="http://purl.org/dc/elements/1.1/"
   xmlns:cc="http://creativecommons.org/ns#"
   xmlns:rdf="http://www.w3.org/1999/02/22-rdf-syntax-ns#"
   xmlns:svg="http://www.w3.org/2000/svg"
   xmlns="http://www.w3.org/2000/svg"
   xmlns:sodipodi="http://sodipodi.sourceforge.net/DTD/sodipodi-0.dtd"
   xmlns:inkscape="http://www.inkscape.org/namespaces/inkscape"
   version="1.1"
   id="svg10"
   width="1000"
   height="1250"
   viewBox="0 0 1000 1250"
   sodipodi:docname="Eu.svg"
   inkscape:version="0.92.4 (5da689c313, 2019-01-14)">
  <metadata
     id="metadata16">
    <rdf:RDF>
      <cc:Work
         rdf:about="">
        <dc:format>image/svg+xml</dc:format>
        <dc:type
           rdf:resource="http://purl.org/dc/dcmitype/StillImage" />
        <dc:title></dc:title>
      </cc:Work>
    </rdf:RDF>
  </metadata>
  <defs
     id="defs14" />
  <sodipodi:namedview
     pagecolor="#ffffff"
     bordercolor="#666666"
     borderopacity="1"
     objecttolerance="10"
     gridtolerance="10"
     guidetolerance="10"
     inkscape:pageopacity="0"
     inkscape:pageshadow="2"
     inkscape:window-width="681"
     inkscape:window-height="706"
     id="namedview12"
     showgrid="false"
     inkscape:zoom="1.4142136"
     inkscape:cx="252.18827"
     inkscape:cy="675.22442"
     inkscape:window-x="-7"
     inkscape:window-y="0"
     inkscape:window-maximized="0"
     inkscape:current-layer="svg10" />
  <path
     style="color:#000000;font-style:normal;font-variant:normal;font-weight:normal;font-stretch:normal;font-size:medium;line-height:normal;font-family:sans-serif;font-variant-ligatures:normal;font-variant-position:normal;font-variant-caps:normal;font-variant-numeric:normal;font-variant-alternates:normal;font-feature-settings:normal;text-indent:0;text-align:start;text-decoration:none;text-decoration-line:none;text-decoration-style:solid;text-decoration-color:#000000;letter-spacing:normal;word-spacing:normal;text-transform:none;writing-mode:lr-tb;direction:ltr;text-orientation:mixed;dominant-baseline:auto;baseline-shift:baseline;text-anchor:start;white-space:normal;shape-padding:0;clip-rule:nonzero;display:inline;overflow:visible;visibility:visible;opacity:1;isolation:auto;mix-blend-mode:normal;color-interpolation:sRGB;color-interpolation-filters:linearRGB;solid-color:#000000;solid-opacity:1;vector-effect:none;fill:#000000;fill-opacity:1;fill-rule:nonzero;stroke:none;stroke-width:15.57319927;stroke-linecap:butt;stroke-linejoin:miter;stroke-miterlimit:4;stroke-dasharray:none;stroke-dashoffset:0;stroke-opacity:1;color-rendering:auto;image-rendering:auto;shape-rendering:auto;text-rendering:auto;enable-background:accumulate"
     d="m 232.41612,629.2676 c -3.96145,-0.12429 -7.71705,0.74269 -11.04493,2.15821 -4.43716,1.88735 -8.37927,4.60034 -10.75586,9.35351 l 0.5,-0.85937 -44.00195,65.52539 -46.94922,91.98046 -0.11914,0.2871 c -12.4006,29.9681 -5.03515,55.5567 -5.03515,55.5567 l -0.12891,-0.5098 C 132.80919,934.3602 132.88291,1000 132.88291,1000 l 15.57227,-0.016 c 0,0 -0.0605,-67.2611 -18.36328,-150.5664 l -0.0566,-0.2558 -0.0742,-0.252 c 0,0 -5.90728,-19.9693 4.41601,-45.0742 l 46.1836,-90.48049 43.75976,-65.16601 0.22266,-0.44531 c -0.1369,0.27379 1.03889,-1.18457 2.92383,-1.98633 1.88494,-0.80176 4.21317,-1.09587 5.84375,-0.76172 1.63057,0.33415 2.65178,0.82229 3.83593,2.92773 1.13615,2.02007 2.19661,6.10365 1.70899,12.91602 -0.54387,1.62197 -11.81762,35.20105 -21.25391,56.32031 l -10.99218,24.60156 22.42187,-14.94726 c 0,0 6.7737,-4.30406 14.24805,-5.36524 3.73717,-0.53058 7.32685,-0.26488 10.54687,1.28711 3.22003,1.552 6.49024,4.41114 9.46094,10.84766 l 5.11914,11.0957 7.89453,-9.32812 c 0,0 7.07471,-7.59783 14.42774,-9.49805 3.67651,-0.95011 6.93271,-0.91025 11.11523,1.78516 4.18252,2.6954 9.49622,8.74062 14.58203,20.90234 l 3.19531,7.64454 7.43164,-3.666 c 0,0 6.88959,-3.09185 13.71289,-1.5801 3.41166,0.7559 6.7702,2.3871 10.18946,6.793 3.41926,4.4059 6.81798,11.8827 8.69922,24.166 l 0.0508,0.334 0.0801,0.3281 c 0,0 0.84532,3.2046 0.79101,10.6445 -0.0543,7.44 -1.13647,18.5661 -5.43359,32.8145 l -0.42578,1.4082 0.11914,1.4668 c 0,0 2.15237,26.6171 1.40429,60.7637 -0.74807,34.1465 -4.61513,75.8019 -15.69726,104.2988 l 14.51562,5.6445 c 12.45231,-32.0202 15.98367,-74.6217 16.75,-109.6016 0.7363,-33.6087 -1.21176,-58.9121 -1.37109,-60.9453 4.36714,-14.9996 5.64848,-27.1801 5.71094,-35.7363 0.0642,-8.7985 -1.21119,-14.3383 -1.22461,-14.3965 -2.18589,-13.76 -6.2128,-23.7115 -11.66602,-30.73826 -5.54033,-7.13904 -12.61127,-11.00606 -19.125,-12.44922 -6.33949,-1.40456 -12.12966,-0.74924 -16.46093,0.26758 -5.12533,-10.1982 -10.88034,-17.25635 -17.39258,-21.45313 -7.85275,-5.06066 -16.54463,-5.55531 -23.44727,-3.77148 -6.14537,1.58813 -11.05157,4.63902 -14.83789,7.53515 -3.36776,-4.29532 -7.22153,-7.58655 -11.40625,-9.60351 -6.67564,-3.21754 -13.607,-3.51607 -19.49805,-2.67969 -0.81469,0.11567 -1.48424,0.3782 -2.26953,0.5332 8.00884,-20.39333 15.15039,-41.77148 15.15039,-41.77148 l 0.28711,-0.86523 0.082,-0.91016 c 0.83368,-9.40924 -0.34344,-16.90234 -3.61914,-22.72656 -3.27569,-5.82423 -8.85162,-9.4377 -14.2832,-10.55078 -1.3579,-0.27828 -2.701,-0.42927 -4.02148,-0.47071 z"
     id="path20"
     inkscape:connector-curvature="0" />
  <path
     style="color:#000000;font-style:normal;font-variant:normal;font-weight:normal;font-stretch:normal;font-size:medium;line-height:normal;font-family:sans-serif;font-variant-ligatures:normal;font-variant-position:normal;font-variant-caps:normal;font-variant-numeric:normal;font-variant-alternates:normal;font-feature-settings:normal;text-indent:0;text-align:start;text-decoration:none;text-decoration-line:none;text-decoration-style:solid;text-decoration-color:#000000;letter-spacing:normal;word-spacing:normal;text-transform:none;writing-mode:lr-tb;direction:ltr;text-orientation:mixed;dominant-baseline:auto;baseline-shift:baseline;text-anchor:start;white-space:normal;shape-padding:0;clip-rule:nonzero;display:inline;overflow:visible;visibility:visible;opacity:1;isolation:auto;mix-blend-mode:normal;color-interpolation:sRGB;color-interpolation-filters:linearRGB;solid-color:#000000;solid-opacity:1;vector-effect:none;fill:#000000;fill-opacity:1;fill-rule:nonzero;stroke:none;stroke-width:15.57319927;stroke-linecap:butt;stroke-linejoin:miter;stroke-miterlimit:4;stroke-dasharray:none;stroke-dashoffset:0;stroke-opacity:1;color-rendering:auto;image-rendering:auto;shape-rendering:auto;text-rendering:auto;enable-background:accumulate"
     d="m 221.37119,713.30276 c 0,0 -1.07077,0.57009 -1.72656,1.05664 -0.65579,0.48655 -1.38584,1.12143 -2.1875,1.95117 -1.60332,1.65949 -3.49549,4.09797 -5.67383,7.83594 -4.35667,7.47595 -9.88851,20.16884 -16.05859,42.62109 l 15.01562,4.127 c 5.93335,-21.59083 11.14099,-33.14565 14.49805,-38.90629 1.67853,-2.88033 2.8851,-4.30589 3.41797,-4.85743 0.26643,-0.27576 0.36335,-0.33473 0.26758,-0.26367 -0.0958,0.0711 -0.87305,0.50391 -0.87305,0.50391 z"
     id="path22"
     inkscape:connector-curvature="0" />
  <path
     style="color:#000000;font-style:normal;font-variant:normal;font-weight:normal;font-stretch:normal;font-size:medium;line-height:normal;font-family:sans-serif;font-variant-ligatures:normal;font-variant-position:normal;font-variant-caps:normal;font-variant-numeric:normal;font-variant-alternates:normal;font-feature-settings:normal;text-indent:0;text-align:start;text-decoration:none;text-decoration-line:none;text-decoration-style:solid;text-decoration-color:#000000;letter-spacing:normal;word-spacing:normal;text-transform:none;writing-mode:lr-tb;direction:ltr;text-orientation:mixed;dominant-baseline:auto;baseline-shift:baseline;text-anchor:start;white-space:normal;shape-padding:0;clip-rule:nonzero;display:inline;overflow:visible;visibility:visible;opacity:1;isolation:auto;mix-blend-mode:normal;color-interpolation:sRGB;color-interpolation-filters:linearRGB;solid-color:#000000;solid-opacity:1;vector-effect:none;fill:#000000;fill-opacity:1;fill-rule:nonzero;stroke:none;stroke-width:15.57319927;stroke-linecap:butt;stroke-linejoin:miter;stroke-miterlimit:4;stroke-dasharray:none;stroke-dashoffset:0;stroke-opacity:1;color-rendering:auto;image-rendering:auto;shape-rendering:auto;text-rendering:auto;enable-background:accumulate"
     d="m 263.0626,727.59378 c 0,0 -7.01494,18.9079 -9.09766,49.10742 l 15.53516,1.0703 c 1.95174,-28.30039 8.15039,-44.72265 8.15039,-44.72265 z"
     id="path24"
     inkscape:connector-curvature="0" />
  <path
     style="color:#000000;font-style:normal;font-variant:normal;font-weight:normal;font-stretch:normal;font-size:medium;line-height:normal;font-family:sans-serif;font-variant-ligatures:normal;font-variant-position:normal;font-variant-caps:normal;font-variant-numeric:normal;font-variant-alternates:normal;font-feature-settings:normal;text-indent:0;text-align:start;text-decoration:none;text-decoration-line:none;text-decoration-style:solid;text-decoration-color:#000000;letter-spacing:normal;word-spacing:normal;text-transform:none;writing-mode:lr-tb;direction:ltr;text-orientation:mixed;dominant-baseline:auto;baseline-shift:baseline;text-anchor:start;white-space:normal;shape-padding:0;clip-rule:nonzero;display:inline;overflow:visible;visibility:visible;opacity:1;isolation:auto;mix-blend-mode:normal;color-interpolation:sRGB;color-interpolation-filters:linearRGB;solid-color:#000000;solid-opacity:1;vector-effect:none;fill:#000000;fill-opacity:1;fill-rule:nonzero;stroke:none;stroke-width:15.57319927;stroke-linecap:butt;stroke-linejoin:miter;stroke-miterlimit:4;stroke-dasharray:none;stroke-dashoffset:0;stroke-opacity:1;color-rendering:auto;image-rendering:auto;shape-rendering:auto;text-rendering:auto;enable-background:accumulate"
     d="m 324.55088,737.80667 c 0,0 -2.01273,-0.0491 -2.98828,0.20898 -0.97555,0.25808 -1.84459,0.68983 -2.54688,1.16797 -1.40456,0.95627 -2.19616,2.01233 -2.83203,3.04101 -1.27174,2.05738 -2.05342,4.29584 -3,8.13477 -1.89315,7.6779 -4.06454,21.7247 -6.09765,49.8496 l 15.5332,1.1231 c 2.00133,-27.6854 4.20936,-41.2573 5.68555,-47.2442 0.73809,-2.9934 1.38734,-4.09701 1.12695,-3.6758 -0.13019,0.2107 -0.52174,0.8748 -1.65234,1.6446 -0.5653,0.3848 -1.328,0.7744 -2.23242,1.0136 -0.90443,0.2393 -2.88086,0.1953 -2.88086,0.1953 z"
     id="path26"
     inkscape:connector-curvature="0" />
  <path
     style="color:#000000;font-style:normal;font-variant:normal;font-weight:normal;font-stretch:normal;font-size:medium;line-height:normal;font-family:sans-serif;font-variant-ligatures:normal;font-variant-position:normal;font-variant-caps:normal;font-variant-numeric:normal;font-variant-alternates:normal;font-feature-settings:normal;text-indent:0;text-align:start;text-decoration:none;text-decoration-line:none;text-decoration-style:solid;text-decoration-color:#000000;letter-spacing:normal;word-spacing:normal;text-transform:none;writing-mode:lr-tb;direction:ltr;text-orientation:mixed;dominant-baseline:auto;baseline-shift:baseline;text-anchor:start;white-space:normal;shape-padding:0;clip-rule:nonzero;display:inline;overflow:visible;visibility:visible;opacity:1;isolation:auto;mix-blend-mode:normal;color-interpolation:sRGB;color-interpolation-filters:linearRGB;solid-color:#000000;solid-opacity:1;vector-effect:none;fill:#000000;fill-opacity:1;fill-rule:nonzero;stroke:none;stroke-width:7.78659964;stroke-linecap:butt;stroke-linejoin:miter;stroke-miterlimit:4;stroke-dasharray:none;stroke-dashoffset:0;stroke-opacity:1;color-rendering:auto;image-rendering:auto;shape-rendering:auto;text-rendering:auto;enable-background:accumulate"
     d="m 230.01768,643.99417 c -2.81913,0.37026 -5.58458,1.84686 -8.16016,4.08007 -3.4341,2.97762 -6.66473,7.44123 -9.45898,13.57032 l -1.35742,2.97851 2.70312,1.84961 c 0,0 2.63185,1.73973 6.64844,2.55469 4.01658,0.81496 9.73887,0.86312 16.48437,-1.74805 l 1.61524,-0.625 0.61719,-1.61523 c 1.97351,-5.16802 2.52136,-9.66812 1.56054,-13.48828 -0.96081,-3.82017 -4.03375,-7.00343 -7.82031,-7.54493 -0.94664,-0.13537 -1.89232,-0.13514 -2.83203,-0.0117 z m 1.73047,7.71875 c 0.67714,0.0968 0.97016,0.15194 1.36914,1.73828 0.3363,1.33713 0.11627,3.91977 -0.84571,7.12304 -4.44895,1.38642 -7.93412,1.3088 -10.33203,0.82227 -0.1976,-0.0401 -0.24333,-0.0866 -0.42383,-0.12891 1.85685,-3.22013 3.74631,-5.83907 5.44336,-7.31054 2.32053,-2.01207 4.11193,-2.34098 4.78907,-2.24414 z"
     id="path28"
     inkscape:connector-curvature="0" />
  <path
     style="color:#000000;font-style:normal;font-variant:normal;font-weight:normal;font-stretch:normal;font-size:medium;line-height:normal;font-family:sans-serif;font-variant-ligatures:normal;font-variant-position:normal;font-variant-caps:normal;font-variant-numeric:normal;font-variant-alternates:normal;font-feature-settings:normal;text-indent:0;text-align:start;text-decoration:none;text-decoration-line:none;text-decoration-style:solid;text-decoration-color:#000000;letter-spacing:normal;word-spacing:normal;text-transform:none;writing-mode:lr-tb;direction:ltr;text-orientation:mixed;dominant-baseline:auto;baseline-shift:baseline;text-anchor:start;white-space:normal;shape-padding:0;clip-rule:nonzero;display:inline;overflow:visible;visibility:visible;opacity:1;isolation:auto;mix-blend-mode:normal;color-interpolation:sRGB;color-interpolation-filters:linearRGB;solid-color:#000000;solid-opacity:1;vector-effect:none;fill:#000000;fill-opacity:1;fill-rule:nonzero;stroke:none;stroke-width:25.7209053;stroke-linecap:butt;stroke-linejoin:miter;stroke-miterlimit:4;stroke-dasharray:none;stroke-dashoffset:0;stroke-opacity:1;color-rendering:auto;image-rendering:auto;shape-rendering:auto;text-rendering:auto;enable-background:accumulate"
     d="M 250.84776,0.44143 C 151.72955,0.41255 83.639522,40.20794 44.47471,99.74221 5.3064906,159.28166 -5.6229454,237.02606 2.9376014,313.98245 11.498148,390.93884 39.587443,467.44647 81.054789,525.54885 122.52213,583.65123 178.35051,624.12636 241.85166,623.74807 305.3229,623.36995 360.69765,582.47036 401.92002,524.1719 443.1424,465.87344 471.17617,389.39611 480.48643,312.63088 489.79669,235.86566 480.47123,158.53022 444.30088,99.22659 408.13386,39.92845 344.04627,0.10575 250.84776,0.44143 Z m 0.0176,25.7207 h 0.0254 0.0254 c 86.07514,-0.31687 139.4634,34.05267 171.42578,86.45704 31.96238,52.40436 41.41931,124.29019 32.61132,196.91406 -8.80798,72.62386 -35.79222,145.70426 -74.03515,199.78906 -38.24293,54.0848 -86.78157,88.39269 -139.21875,88.70508 -52.40725,0.31219 -101.28559,-33.5826 -139.70899,-87.41992 C 63.566938,456.77013 36.581365,383.76894 28.502054,311.1387 20.422743,238.50845 31.286965,166.58982 65.962992,113.87893 100.63902,61.16805 158.436,26.12874 250.86533,26.16213 Z"
     id="path10-9"
     inkscape:connector-curvature="0" />
  <path
     style="color:#000000;font-style:normal;font-variant:normal;font-weight:normal;font-stretch:normal;font-size:medium;line-height:normal;font-family:sans-serif;font-variant-ligatures:normal;font-variant-position:normal;font-variant-caps:normal;font-variant-numeric:normal;font-variant-alternates:normal;font-feature-settings:normal;text-indent:0;text-align:start;text-decoration:none;text-decoration-line:none;text-decoration-style:solid;text-decoration-color:#000000;letter-spacing:normal;word-spacing:normal;text-transform:none;writing-mode:lr-tb;direction:ltr;text-orientation:mixed;dominant-baseline:auto;baseline-shift:baseline;text-anchor:start;white-space:normal;shape-padding:0;clip-rule:nonzero;display:inline;overflow:visible;visibility:visible;opacity:1;isolation:auto;mix-blend-mode:normal;color-interpolation:sRGB;color-interpolation-filters:linearRGB;solid-color:#000000;solid-opacity:1;vector-effect:none;fill:#000000;fill-opacity:1;fill-rule:nonzero;stroke:none;stroke-width:12.86045265;stroke-linecap:butt;stroke-linejoin:miter;stroke-miterlimit:4;stroke-dasharray:none;stroke-dashoffset:0;stroke-opacity:1;color-rendering:auto;image-rendering:auto;shape-rendering:auto;text-rendering:auto;enable-background:accumulate"
     d="m 237.08994,310.21292 c 0,0 -1.45025,14.31362 -3.84961,29.3496 -1.19968,7.518 -2.64434,15.21759 -4.19726,21.19922 -0.77646,2.99082 -1.58996,5.55906 -2.31836,7.33008 -0.7284,1.77102 -1.66978,2.69585 -0.99414,2.13281 -1.4231,1.18591 -2.93039,2.1767 -3.71875,5.33008 -0.39418,1.57669 -0.1686,3.92427 0.83789,5.56446 1.00649,1.64018 2.31517,2.44255 3.30469,2.9082 3.95805,1.86258 5.99045,1.1485 8.68164,0.96289 5.38237,-0.37121 11.21093,-1.57031 11.21094,-1.57031 l -2.52149,-12.61133 c 0,0 -2.74887,0.34996 -4.41211,0.62305 0.8529,-2.28669 1.65893,-4.67374 2.37695,-7.43946 1.73543,-6.68462 3.21309,-14.65589 4.44922,-22.40234 2.47228,-15.49291 3.94532,-30.08399 3.94532,-30.08399 z"
     id="path971"
     inkscape:connector-curvature="0" />
  <path
     style="color:#000000;font-style:normal;font-variant:normal;font-weight:normal;font-stretch:normal;font-size:medium;line-height:normal;font-family:sans-serif;font-variant-ligatures:normal;font-variant-position:normal;font-variant-caps:normal;font-variant-numeric:normal;font-variant-alternates:normal;font-feature-settings:normal;text-indent:0;text-align:start;text-decoration:none;text-decoration-line:none;text-decoration-style:solid;text-decoration-color:#000000;letter-spacing:normal;word-spacing:normal;text-transform:none;writing-mode:lr-tb;direction:ltr;text-orientation:mixed;dominant-baseline:auto;baseline-shift:baseline;text-anchor:start;white-space:normal;shape-padding:0;clip-rule:nonzero;display:inline;overflow:visible;visibility:visible;opacity:1;isolation:auto;mix-blend-mode:normal;color-interpolation:sRGB;color-interpolation-filters:linearRGB;solid-color:#000000;solid-opacity:1;vector-effect:none;fill:#000000;fill-opacity:1;fill-rule:nonzero;stroke:none;stroke-width:10.18055344;stroke-linecap:butt;stroke-linejoin:miter;stroke-miterlimit:4;stroke-dasharray:none;stroke-dashoffset:0;stroke-opacity:1;color-rendering:auto;image-rendering:auto;shape-rendering:auto;text-rendering:auto;enable-background:accumulate"
     d="m 131.26182,831.793 -5.81445,8.3555 c 0,0 22.43789,14.9529 50.75,0.7968 l -4.55274,-9.1054 c -24.004,12.002 -40.38281,-0.047 -40.38281,-0.047 z"
     id="path5935"
     inkscape:connector-curvature="0" />
  <path
     style="color:#000000;font-style:normal;font-variant:normal;font-weight:normal;font-stretch:normal;font-size:medium;line-height:normal;font-family:sans-serif;font-variant-ligatures:normal;font-variant-position:normal;font-variant-caps:normal;font-variant-numeric:normal;font-variant-alternates:normal;font-feature-settings:normal;text-indent:0;text-align:start;text-decoration:none;text-decoration-line:none;text-decoration-style:solid;text-decoration-color:#000000;letter-spacing:normal;word-spacing:normal;text-transform:none;writing-mode:lr-tb;direction:ltr;text-orientation:mixed;dominant-baseline:auto;baseline-shift:baseline;text-anchor:start;white-space:normal;shape-padding:0;clip-rule:nonzero;display:inline;overflow:visible;visibility:visible;opacity:1;isolation:auto;mix-blend-mode:normal;color-interpolation:sRGB;color-interpolation-filters:linearRGB;solid-color:#000000;solid-opacity:1;vector-effect:none;fill:#000000;fill-opacity:1;fill-rule:nonzero;stroke:none;stroke-width:10.18055344;stroke-linecap:butt;stroke-linejoin:miter;stroke-miterlimit:4;stroke-dasharray:none;stroke-dashoffset:0;stroke-opacity:1;color-rendering:auto;image-rendering:auto;shape-rendering:auto;text-rendering:auto;enable-background:accumulate"
     d="m 195.4376,834.2559 v 10.1797 c -0.65187,0 1.19682,0.3889 3.61914,1.459 2.42232,1.07 5.68776,2.5313 9.70117,3.6738 8.02683,2.285 19.14755,3.14 32.80078,-2.0938 l -3.64257,-9.5058 c -11.66102,4.47 -19.94772,3.6371 -26.3711,1.8086 -3.21169,-0.9143 -5.93223,-2.1163 -8.375,-3.1953 -2.44276,-1.0791 -4.33818,-2.3262 -7.73242,-2.3262 z"
     id="path5937"
     inkscape:connector-curvature="0" />
  <path
     style="color:#000000;font-style:normal;font-variant:normal;font-weight:normal;font-stretch:normal;font-size:medium;line-height:normal;font-family:sans-serif;font-variant-ligatures:normal;font-variant-position:normal;font-variant-caps:normal;font-variant-numeric:normal;font-variant-alternates:normal;font-feature-settings:normal;text-indent:0;text-align:start;text-decoration:none;text-decoration-line:none;text-decoration-style:solid;text-decoration-color:#000000;letter-spacing:normal;word-spacing:normal;text-transform:none;writing-mode:lr-tb;direction:ltr;text-orientation:mixed;dominant-baseline:auto;baseline-shift:baseline;text-anchor:start;white-space:normal;shape-padding:0;clip-rule:nonzero;display:inline;overflow:visible;visibility:visible;opacity:1;isolation:auto;mix-blend-mode:normal;color-interpolation:sRGB;color-interpolation-filters:linearRGB;solid-color:#000000;solid-opacity:1;vector-effect:none;fill:#000000;fill-opacity:1;fill-rule:nonzero;stroke:none;stroke-width:10.18055344;stroke-linecap:butt;stroke-linejoin:miter;stroke-miterlimit:4;stroke-dasharray:none;stroke-dashoffset:0;stroke-opacity:1;color-rendering:auto;image-rendering:auto;shape-rendering:auto;text-rendering:auto;enable-background:accumulate"
     d="m 258.69541,839.8203 -5.85156,8.3321 c 0,0 22.22848,15.585 47.2168,4.2695 l -4.20117,-9.2754 c -19.7335,8.9359 -37.16407,-3.3262 -37.16407,-3.3262 z"
     id="path5939"
     inkscape:connector-curvature="0" />
  <path
     style="color:#000000;font-style:normal;font-variant:normal;font-weight:normal;font-stretch:normal;font-size:medium;line-height:normal;font-family:sans-serif;font-variant-ligatures:normal;font-variant-position:normal;font-variant-caps:normal;font-variant-numeric:normal;font-variant-alternates:normal;font-feature-settings:normal;text-indent:0;text-align:start;text-decoration:none;text-decoration-line:none;text-decoration-style:solid;text-decoration-color:#000000;letter-spacing:normal;word-spacing:normal;text-transform:none;writing-mode:lr-tb;direction:ltr;text-orientation:mixed;dominant-baseline:auto;baseline-shift:baseline;text-anchor:start;white-space:normal;shape-padding:0;clip-rule:nonzero;display:inline;overflow:visible;visibility:visible;opacity:1;isolation:auto;mix-blend-mode:normal;color-interpolation:sRGB;color-interpolation-filters:linearRGB;solid-color:#000000;solid-opacity:1;vector-effect:none;fill:#000000;fill-opacity:1;fill-rule:nonzero;stroke:none;stroke-width:10.18055344;stroke-linecap:butt;stroke-linejoin:miter;stroke-miterlimit:4;stroke-dasharray:none;stroke-dashoffset:0;stroke-opacity:1;color-rendering:auto;image-rendering:auto;shape-rendering:auto;text-rendering:auto;enable-background:accumulate"
     d="m 314.88096,855.2071 -5.15234,8.7812 c 0,0 21.04224,12.7972 42.76757,4.5899 l -3.59765,-9.5235 c -16.24603,6.1374 -34.01758,-3.8476 -34.01758,-3.8476 z"
     id="path5941"
     inkscape:connector-curvature="0" />
  <path
     inkscape:connector-curvature="0"
     id="path29-3-1-2"
     d="m 240.72713,443.86687 c -10.89453,0.43336 -21.01052,3.44266 -29.91492,7.70533 -28.49368,13.64058 -46.08879,39.96664 -46.08879,39.96664 l -10.95972,16.12271 18.39637,-6.44981 c 0,0 68.9231,-23.92794 139.49842,-0.96516 l 19.48289,6.34006 -12.37588,-16.32876 c -19.43319,-25.63876 -38.99837,-39.08447 -57.67838,-44.10177 -7.0051,-1.88152 -13.8229,-2.5492 -20.35999,-2.28924 z m 0.42758,12.79977 c 5.32227,-0.20778 10.85806,0.35466 16.59958,1.8969 11.59191,3.11353 24.28228,10.36254 37.67751,24.13023 -43.86923,-9.52197 -83.9389,-4.08214 -107.05493,1.01023 7.08061,-7.07716 16.61987,-15.10266 27.98292,-20.5424 7.64873,-3.66144 15.92535,-6.14872 24.79492,-6.49496 z"
     style="color:#000000;font-style:normal;font-variant:normal;font-weight:normal;font-stretch:normal;font-size:medium;line-height:normal;font-family:sans-serif;font-variant-ligatures:normal;font-variant-position:normal;font-variant-caps:normal;font-variant-numeric:normal;font-variant-alternates:normal;font-feature-settings:normal;text-indent:0;text-align:start;text-decoration:none;text-decoration-line:none;text-decoration-style:solid;text-decoration-color:#000000;letter-spacing:normal;word-spacing:normal;text-transform:none;writing-mode:lr-tb;direction:ltr;text-orientation:mixed;dominant-baseline:auto;baseline-shift:baseline;text-anchor:start;white-space:normal;shape-padding:0;clip-rule:nonzero;display:inline;overflow:visible;visibility:visible;opacity:1;isolation:auto;mix-blend-mode:normal;color-interpolation:sRGB;color-interpolation-filters:linearRGB;solid-color:#000000;solid-opacity:1;vector-effect:none;fill:#000000;fill-opacity:1;fill-rule:nonzero;stroke:none;stroke-width:12.84690666;stroke-linecap:butt;stroke-linejoin:miter;stroke-miterlimit:4;stroke-dasharray:none;stroke-dashoffset:0;stroke-opacity:1;color-rendering:auto;image-rendering:auto;shape-rendering:auto;text-rendering:auto;enable-background:accumulate" />
  <path
     inkscape:connector-curvature="0"
     id="path59-17-2-08"
     d="m 158.47571,150.33173 c -25.30076,-0.46423 -49.38997,17.97402 -79.89029,54.4711 l 9.85935,8.23695 c 29.70026,-35.5399 51.09828,-50.20619 69.79531,-49.86306 18.69702,0.34306 38.80848,15.89138 65.60358,47.31678 l 9.77653,-8.335 c -27.44732,-32.1909 -49.84405,-51.36238 -75.14448,-51.82677 z"
     style="color:#000000;font-style:normal;font-variant:normal;font-weight:normal;font-stretch:normal;font-size:medium;line-height:normal;font-family:sans-serif;font-variant-ligatures:normal;font-variant-position:normal;font-variant-caps:normal;font-variant-numeric:normal;font-variant-alternates:normal;font-feature-settings:normal;text-indent:0;text-align:start;text-decoration:none;text-decoration-line:none;text-decoration-style:solid;text-decoration-color:#000000;letter-spacing:normal;word-spacing:normal;text-transform:none;writing-mode:lr-tb;direction:ltr;text-orientation:mixed;dominant-baseline:auto;baseline-shift:baseline;text-anchor:start;white-space:normal;shape-padding:0;clip-rule:nonzero;display:inline;overflow:visible;visibility:visible;opacity:1;isolation:auto;mix-blend-mode:normal;color-interpolation:sRGB;color-interpolation-filters:linearRGB;solid-color:#000000;solid-opacity:1;vector-effect:none;fill:#000000;fill-opacity:1;fill-rule:nonzero;stroke:none;stroke-width:12.84690666;stroke-linecap:butt;stroke-linejoin:miter;stroke-miterlimit:4;stroke-dasharray:none;stroke-dashoffset:0;stroke-opacity:1;color-rendering:auto;image-rendering:auto;shape-rendering:auto;text-rendering:auto;enable-background:accumulate" />
  <path
     inkscape:connector-curvature="0"
     id="path59-1-8-7-1"
     d="m 157.10247,240.22033 c -17.31897,-0.6228 -35.43128,6.34403 -56.70159,22.05481 l 7.63307,10.33397 c 19.94703,-14.73372 35.00928,-20.0387 48.60541,-19.54979 13.59638,0.48899 26.70678,6.91386 42.3639,18.14533 l 7.48755,-10.44001 C 189.9682,248.91233 174.42135,240.84323 157.10247,240.22033 Z"
     style="color:#000000;font-style:normal;font-variant:normal;font-weight:normal;font-stretch:normal;font-size:medium;line-height:normal;font-family:sans-serif;font-variant-ligatures:normal;font-variant-position:normal;font-variant-caps:normal;font-variant-numeric:normal;font-variant-alternates:normal;font-feature-settings:normal;text-indent:0;text-align:start;text-decoration:none;text-decoration-line:none;text-decoration-style:solid;text-decoration-color:#000000;letter-spacing:normal;word-spacing:normal;text-transform:none;writing-mode:lr-tb;direction:ltr;text-orientation:mixed;dominant-baseline:auto;baseline-shift:baseline;text-anchor:start;white-space:normal;shape-padding:0;clip-rule:nonzero;display:inline;overflow:visible;visibility:visible;opacity:1;isolation:auto;mix-blend-mode:normal;color-interpolation:sRGB;color-interpolation-filters:linearRGB;solid-color:#000000;solid-opacity:1;vector-effect:none;fill:#000000;fill-opacity:1;fill-rule:nonzero;stroke:none;stroke-width:12.84690666;stroke-linecap:butt;stroke-linejoin:miter;stroke-miterlimit:4;stroke-dasharray:none;stroke-dashoffset:0;stroke-opacity:1;color-rendering:auto;image-rendering:auto;shape-rendering:auto;text-rendering:auto;enable-background:accumulate" />
  <path
     inkscape:connector-curvature="0"
     id="path59-17-5-5-94"
     d="m 329.78998,148.53493 c -25.3006,-0.46432 -49.38973,17.97393 -79.89003,54.471 l 9.8572,8.23895 c 29.70016,-35.53989 51.10041,-50.20826 69.79744,-49.86503 18.69703,0.34305 38.80815,15.89334 65.60326,47.31884 l 9.77489,-8.3351 c -27.4475,-32.19088 -49.84234,-51.36434 -75.14276,-51.82866 z"
     style="color:#000000;font-style:normal;font-variant:normal;font-weight:normal;font-stretch:normal;font-size:medium;line-height:normal;font-family:sans-serif;font-variant-ligatures:normal;font-variant-position:normal;font-variant-caps:normal;font-variant-numeric:normal;font-variant-alternates:normal;font-feature-settings:normal;text-indent:0;text-align:start;text-decoration:none;text-decoration-line:none;text-decoration-style:solid;text-decoration-color:#000000;letter-spacing:normal;word-spacing:normal;text-transform:none;writing-mode:lr-tb;direction:ltr;text-orientation:mixed;dominant-baseline:auto;baseline-shift:baseline;text-anchor:start;white-space:normal;shape-padding:0;clip-rule:nonzero;display:inline;overflow:visible;visibility:visible;opacity:1;isolation:auto;mix-blend-mode:normal;color-interpolation:sRGB;color-interpolation-filters:linearRGB;solid-color:#000000;solid-opacity:1;vector-effect:none;fill:#000000;fill-opacity:1;fill-rule:nonzero;stroke:none;stroke-width:12.84690666;stroke-linecap:butt;stroke-linejoin:miter;stroke-miterlimit:4;stroke-dasharray:none;stroke-dashoffset:0;stroke-opacity:1;color-rendering:auto;image-rendering:auto;shape-rendering:auto;text-rendering:auto;enable-background:accumulate" />
  <path
     inkscape:connector-curvature="0"
     id="path59-1-8-3-2-9"
     d="m 328.41674,238.42544 c -17.31897,-0.6229 -35.43113,6.34393 -56.70143,22.05479 l 7.63283,10.33209 c 19.94736,-14.73381 35.00927,-20.0369 48.60565,-19.5479 13.59647,0.48899 26.70473,6.91378 42.36183,18.14525 l 7.48963,-10.43993 c -16.52278,-11.85223 -32.06964,-19.9214 -49.38851,-20.5443 z"
     style="color:#000000;font-style:normal;font-variant:normal;font-weight:normal;font-stretch:normal;font-size:medium;line-height:normal;font-family:sans-serif;font-variant-ligatures:normal;font-variant-position:normal;font-variant-caps:normal;font-variant-numeric:normal;font-variant-alternates:normal;font-feature-settings:normal;text-indent:0;text-align:start;text-decoration:none;text-decoration-line:none;text-decoration-style:solid;text-decoration-color:#000000;letter-spacing:normal;word-spacing:normal;text-transform:none;writing-mode:lr-tb;direction:ltr;text-orientation:mixed;dominant-baseline:auto;baseline-shift:baseline;text-anchor:start;white-space:normal;shape-padding:0;clip-rule:nonzero;display:inline;overflow:visible;visibility:visible;opacity:1;isolation:auto;mix-blend-mode:normal;color-interpolation:sRGB;color-interpolation-filters:linearRGB;solid-color:#000000;solid-opacity:1;vector-effect:none;fill:#000000;fill-opacity:1;fill-rule:nonzero;stroke:none;stroke-width:12.84690666;stroke-linecap:butt;stroke-linejoin:miter;stroke-miterlimit:4;stroke-dasharray:none;stroke-dashoffset:0;stroke-opacity:1;color-rendering:auto;image-rendering:auto;shape-rendering:auto;text-rendering:auto;enable-background:accumulate" />
  <path
     style="font-style:normal;font-weight:normal;font-size:233.33332825px;line-height:1.25;font-family:sans-serif;letter-spacing:0px;word-spacing:0px;fill:#000000;fill-opacity:1;stroke:none"
     d="m 120,1076.8242 v 169.6446 H 231.76759 V 1226.416 H 142.5586 v -63.0039 h 89.20899 v -20.0527 H 142.5586 v -46.4844 h 89.20899 v -20.0508 z m 145.03517,42.3828 v 82.5996 c 0,15.7987 3.72244,27.8008 11.16601,36.0039 7.44358,8.1272 17.84874,12.1895 31.2168,12.1895 7.97526,0 15.26693,-1.5184 21.875,-4.5566 6.60807,-3.0382 13.52061,-7.405 20.73633,-13.1016 v 14.127 h 21.41797 V 1119.207 h -21.41797 v 95.0196 c -5.69662,4.4813 -11.84896,8.1645 -18.45703,11.0507 -6.53212,2.8863 -12.57053,4.3301 -18.11524,4.3301 -6.2283,0 -10.97613,-0.7602 -14.24219,-2.2793 -3.26606,-1.5191 -5.92383,-3.949 -7.97461,-7.291 -1.97482,-3.266 -3.26736,-7.179 -3.875,-11.7363 -0.60764,-4.6333 -0.91015,-10.1767 -0.91015,-16.6328 v -72.461 z"
     id="text4000"
     inkscape:connector-curvature="0" />
</svg>
