<?xml version="1.0" encoding="UTF-8" standalone="no"?>
<!-- Created with Inkscape (http://www.inkscape.org/) -->

<svg
   xmlns:dc="http://purl.org/dc/elements/1.1/"
   xmlns:cc="http://creativecommons.org/ns#"
   xmlns:rdf="http://www.w3.org/1999/02/22-rdf-syntax-ns#"
   xmlns:svg="http://www.w3.org/2000/svg"
   xmlns="http://www.w3.org/2000/svg"
   xmlns:sodipodi="http://sodipodi.sourceforge.net/DTD/sodipodi-0.dtd"
   xmlns:inkscape="http://www.inkscape.org/namespaces/inkscape"
   width="1000"
   height="1250"
   viewBox="0 0 1000 1250"
   version="1.1"
   id="svg25132"
   inkscape:version="0.92.4 (5da689c313, 2019-01-14)"
   sodipodi:docname="Nojo - Nojento - Vomitar.svg">
  <defs
     id="defs25126" />
  <sodipodi:namedview
     id="base"
     pagecolor="#ffffff"
     bordercolor="#666666"
     borderopacity="1.0"
     inkscape:pageopacity="0.0"
     inkscape:pageshadow="2"
     inkscape:zoom="0.5"
     inkscape:cx="550.46292"
     inkscape:cy="617.07534"
     inkscape:document-units="px"
     inkscape:current-layer="layer1"
     showgrid="false"
     units="px"
     inkscape:window-width="1366"
     inkscape:window-height="715"
     inkscape:window-x="-8"
     inkscape:window-y="-8"
     inkscape:window-maximized="1" />
  <metadata
     id="metadata25129">
    <rdf:RDF>
      <cc:Work
         rdf:about="">
        <dc:format>image/svg+xml</dc:format>
        <dc:type
           rdf:resource="http://purl.org/dc/dcmitype/StillImage" />
        <dc:title></dc:title>
      </cc:Work>
    </rdf:RDF>
  </metadata>
  <g
     inkscape:label="Camada 1"
     inkscape:groupmode="layer"
     id="layer1"
     transform="translate(0,217.58335)">
    <path
       style="color:#000000;font-style:normal;font-variant:normal;font-weight:normal;font-stretch:normal;font-size:medium;line-height:normal;font-family:sans-serif;font-variant-ligatures:normal;font-variant-position:normal;font-variant-caps:normal;font-variant-numeric:normal;font-variant-alternates:normal;font-feature-settings:normal;text-indent:0;text-align:start;text-decoration:none;text-decoration-line:none;text-decoration-style:solid;text-decoration-color:#000000;letter-spacing:normal;word-spacing:normal;text-transform:none;writing-mode:lr-tb;direction:ltr;text-orientation:mixed;dominant-baseline:auto;baseline-shift:baseline;text-anchor:start;white-space:normal;shape-padding:0;clip-rule:nonzero;display:inline;overflow:visible;visibility:visible;opacity:1;isolation:auto;mix-blend-mode:normal;color-interpolation:sRGB;color-interpolation-filters:linearRGB;solid-color:#000000;solid-opacity:1;vector-effect:none;fill:#000000;fill-opacity:1;fill-rule:nonzero;stroke:none;stroke-width:9.7552166;stroke-linecap:butt;stroke-linejoin:miter;stroke-miterlimit:4;stroke-dasharray:none;stroke-dashoffset:0;stroke-opacity:1;color-rendering:auto;image-rendering:auto;shape-rendering:auto;text-rendering:auto;enable-background:accumulate"
       d="m 456.98639,213.49737 c -2.37319,0.10689 -4.9656,0.38299 -7.66211,0.93164 -10.78604,2.19461 -23.78764,9.30522 -30.23438,26.27735 l -0.0234,0.0664 -0.0234,0.0664 c 0,0 -4.69064,13.33633 1.01953,28.01953 l 0.33789,0.86914 0.63281,0.68359 c 0,0 0.23538,0.50627 0.45508,0.99805 -0.64619,-0.88549 -1.30109,-1.78795 -2.04297,-3.01367 l 0.0488,0.084 c -4.50357,-7.78625 -11.63504,-12.65179 -19.41992,-14.51757 -7.78489,-1.86579 -16.18565,-0.90638 -23.95703,2.30468 -14.98233,6.19056 -27.77899,21.18352 -28.95118,41.75782 -2.23194,1.92847 -14.71774,12.84064 -21.95507,22.53515 -0.14281,0.12747 -3.79712,3.39496 -8.38477,7.09375 -4.67623,3.77021 -10.68173,7.91291 -12.48437,8.6211 l -0.56446,0.2207 -0.49218,0.35351 c 0,0 -21.93374,15.65002 -36.87696,43.29493 l 0.19727,-0.33203 c 0,0 -5.48727,8.4677 -11.68164,17.66992 -3.09719,4.60111 -6.36993,9.38587 -9.19922,13.35351 -2.82929,3.96764 -5.39376,7.26963 -6.31055,8.22461 l -0.30664,0.31836 -0.24414,0.3711 c -6.28563,9.52199 -8.28713,17.90176 -5.86719,24.81835 2.41995,6.9166 8.9,10.87781 15.85938,12.46485 13.91875,3.17408 31.93906,-0.98156 42.59375,-12.06641 l 0.10742,-0.11328 0.10156,-0.11719 c 0,0 6.91939,-8.1824 14.30469,-17.46679 3.69265,-4.6422 7.50382,-9.5616 10.66211,-13.92579 2.71986,-3.75835 4.75241,-6.80857 6.15625,-9.63867 1.04941,-0.77274 7.78083,-5.78293 13.88281,-11.07617 2.76708,4.3936 7.00697,10.4968 14.1543,17.38867 11.1863,10.78649 28.14882,21.00466 48.68359,16.30274 l 0.0332,-0.006 0.0332,-0.01 c 0,0 4.90756,-1.19446 10.74218,-3.07031 4.66468,-1.49971 9.80561,-3.30912 14.09766,-5.72266 3.49656,2.62171 17.31229,12.84392 38.10352,24.38868 23.3908,12.98822 52.9959,26.08134 79.66015,25.83203 0.33639,0.0639 11.11628,2.12148 22.99024,6.49609 12.06007,4.44318 24.35762,11.72708 27.27929,18.77344 l -0.1582,-0.44141 c 7.6101,24.87489 25.03807,40.96043 41.34766,44.44531 8.15479,1.74245 16.64338,-0.0951 21.89258,-6.45507 5.24919,-6.35997 6.86546,-16.07515 4.63281,-28.77149 l -0.0879,-0.49219 -0.1836,-0.46289 c 0,0 -1.29357,-3.29843 -1.89062,-7.42578 -0.59705,-4.12735 -0.18953,-8.46302 1.61133,-10.66406 l 0.44922,-0.55078 0.27343,-0.6543 c 0,0 2.36031,-5.68587 1.38477,-13.05664 -0.97554,-7.37077 -5.48071,-16.72037 -17.16797,-24.07422 l -0.29492,-0.18359 -0.31836,-0.14258 c 0,0 -23.63128,-10.68401 -39.4668,-26.51953 l 0.19336,0.20508 c 0,0 -13.58365,-15.57012 -27.29492,-23.48047 l -0.0508,-0.0293 -0.0508,-0.0293 c 0,0 -2.57883,-1.44655 -4.77735,-3.99218 -2.19851,-2.54563 -3.70752,-5.31736 -2.46093,-9.47266 l 0.0371,-0.12109 0.0293,-0.125 c 0,0 1.2288,-5.03157 2.27735,-10.92188 0.9028,-5.07161 1.85204,-10.28407 1.36328,-15.07226 0.33994,-0.48779 0.53733,-0.77835 1.0625,-1.58594 11.97437,17.57968 27.00166,23.72209 39.79492,21.83594 14.43471,-2.12816 25.60258,-13.78649 25.75195,-27.26953 0.16727,-0.65799 0.30995,-0.93891 0.41211,-2.12891 0.17396,-2.02622 0.15979,-4.91108 -0.41211,-8.81641 -1.14112,-7.79242 -4.49903,-19.65556 -13.12109,-37.04492 -0.2651,-0.78827 -4.83246,-14.27144 -14.26563,-28.17773 -9.71126,-14.31626 -24.98235,-29.41262 -46.08203,-28.73633 l 1.48242,0.18164 c 0,0 -1.88407,-0.42198 -3.85156,-0.20898 -1.96749,0.21299 -4.53681,0.90651 -7.53711,2.52343 -6.00059,3.23384 -13.72814,10.05025 -22.99609,24.38477 l -0.082,0.1289 -0.0762,0.13282 c 0,0 -3.23281,5.70051 -7.07421,10.30468 -1.9207,2.30209 -4.06252,4.25245 -5.31446,4.93946 -0.46629,0.25588 -0.53372,0.23781 -0.59765,0.2539 l -0.16016,-0.16015 -0.41797,-0.27539 c 0,0 -6.63804,-4.56209 -15.18555,-5.1875 h -0.008 c 0.0661,0.041 -0.16243,0.0536 -0.85547,-1.06641 -1.53822,-2.48587 -4.10363,-9.91687 -4.43359,-26.66211 l -0.004,0.31641 c 0,0 0.36137,-7.649 -3.29492,-16.09961 -3.65628,-8.45062 -11.8111,-18.0664 -27.19726,-21.70313 l -0.0117,-0.002 -0.0117,-0.004 c 0,0 -5.13825,-1.20933 -12.25781,-0.88867 z m 0.3457,9.74414 c 5.62287,-0.2709 9.67701,0.64192 9.69727,0.64649 12.53604,2.96495 17.74984,9.76439 20.48242,16.08007 2.73303,6.31676 2.5039,11.78516 2.5039,11.78516 l -0.008,0.1582 0.004,0.15821 c 0.34706,17.6132 2.68974,26.43066 5.89062,31.60351 1.60044,2.58643 3.57151,4.25376 5.48438,5.05274 0.95643,0.39948 1.86552,0.57704 2.60937,0.625 0.74385,0.048 1.68164,-0.10156 1.68164,-0.10156 l -1.33008,0.0859 c 5.33124,0.39009 10.54102,3.61133 10.54102,3.61133 l -0.76953,-0.62695 c 1.64163,1.64162 4.01917,2.68892 6.24023,2.74804 2.22107,0.0591 4.12699,-0.6452 5.75586,-1.53906 3.25775,-1.78772 5.7963,-4.46942 8.11133,-7.24414 4.4711,-5.3589 7.70669,-11.11229 7.93359,-11.51758 8.68401,-13.43134 15.43894,-18.942 19.43165,-21.09375 1.99635,-1.07587 3.30098,-1.34087 3.95898,-1.41211 0.658,-0.0712 0.15039,-0.10351 0.15039,-0.10351 l 0.72656,0.20508 0.75586,-0.0234 c 16.24066,-0.52055 28.85612,11.43223 37.69531,24.46289 8.8392,13.03066 13.29297,26.30078 13.29297,26.30078 l 0.10743,0.32227 0.15039,0.30273 c 8.32764,16.77254 11.30724,27.74126 12.25781,34.23242 0.47528,3.24559 0.44852,5.37264 0.3457,6.57031 -0.10282,1.19768 -0.11523,1.03516 -0.11523,1.03516 l -0.3086,0.82031 -0.002,0.87891 c -0.0214,7.96843 -7.401,16.36737 -17.44141,17.84766 -10.04041,1.48029 -23.13573,-3.30296 -34.41601,-24.43946 l -5.61524,-10.52539 -3.36718,11.44531 c -0.31643,1.07585 -1.59513,3.56543 -2.78125,5.46876 -1.18613,1.90332 -2.22071,3.32226 -2.22071,3.32226 l -1.30273,1.78125 0.47851,2.1543 c 0.24228,1.09017 -0.19169,8.01747 -1.17773,13.55664 -0.98604,5.53917 -2.15039,10.32031 -2.15039,10.32031 l 0.0664,-0.24609 c -2.34385,7.8128 0.93553,14.61555 4.42187,18.65234 3.48634,4.03679 7.48828,6.17969 7.48828,6.17969 l -0.10156,-0.0566 c 11.18227,6.45131 24.88672,21.51953 24.88672,21.51953 l 0.0937,0.10547 0.0996,0.0996 c 17.14537,17.14538 40.4891,27.66725 41.89844,28.29492 9.49805,6.02213 11.93918,12.19307 12.57617,17.00586 0.64014,4.83664 -0.71094,8.00781 -0.71094,8.00781 l 0.72266,-1.20312 c -4.66191,5.69785 -4.49415,12.85105 -3.71485,18.23828 0.67738,4.68265 1.8832,7.9783 2.23047,8.89648 1.87357,10.90287 0.0916,17.42326 -2.57031,20.64844 -2.68189,3.24939 -6.63114,4.34311 -12.33203,3.125 -11.40179,-2.43623 -27.35214,-15.84301 -34.05664,-37.75781 l -0.0684,-0.22461 -0.0898,-0.2168 c -5.21662,-12.58121 -19.96485,-19.41921 -32.91797,-24.19141 -12.95312,-4.77219 -24.78515,-6.97851 -24.78515,-6.97851 l -0.49024,-0.0918 -0.5,0.01 c -23.40413,0.44577 -52.57075,-11.90219 -75.51172,-24.64063 -22.94096,-12.73844 -39.66992,-25.57617 -39.66992,-25.57617 l -2.90234,-2.22852 -2.95313,2.16407 c -2.48513,1.82242 -8.93086,4.457 -14.39843,6.21484 -5.44432,1.75037 -9.98455,2.85964 -10.02344,2.86914 -16.42016,3.74897 -29.79701,-4.26268 -39.71094,-13.82226 -9.91877,-9.56426 -15.55664,-20.17383 -15.55664,-20.17383 l -3.08789,-5.84766 -4.67383,4.67578 c -5.07407,5.07404 -18.125,14.84766 -18.125,14.84766 l -1.08203,0.80273 -0.51758,1.24219 c -0.46591,1.1182 -2.81149,4.92094 -5.82421,9.08399 -3.01273,4.16304 -6.75678,8.99712 -10.39454,13.57031 -7.20032,9.05185 -13.83333,16.89962 -13.97265,17.06445 -7.38024,7.616 -23.4513,11.51495 -33.33203,9.26172 -4.95239,-1.12936 -7.80172,-3.26253 -8.82032,-6.17383 -1.01859,-2.9113 -0.56597,-8.09264 4.80079,-16.22265 l -0.55274,0.68945 c 1.95556,-2.03704 4.29948,-5.22611 7.21485,-9.31445 2.91536,-4.08835 6.22537,-8.92612 9.35156,-13.57032 6.25237,-9.28838 11.77539,-17.8125 11.77539,-17.8125 l 0.10547,-0.16406 0.0918,-0.16992 c 13.59274,-25.14653 33.25226,-39.4689 33.78906,-39.85742 4.64879,-2.05804 9.55791,-5.95931 14.16992,-9.67774 4.8982,-3.94917 8.92578,-7.55078 8.92578,-7.55078 l 0.39062,-0.34961 0.3086,-0.42383 c 6.15249,-8.4862 22.46484,-22.87695 22.46484,-22.87695 l 1.65039,-1.43164 0.0293,-2.1875 c 0.23887,-17.90393 10.93394,-30.10811 23.12305,-35.14453 6.09455,-2.51821 12.4892,-3.14492 17.95898,-1.83399 5.46978,1.31094 10.05144,4.38599 13.25,9.91602 l 0.0234,0.041 0.0254,0.041 c 4.44443,7.343 8.26365,10.78923 12.16211,12.11524 1.94923,0.663 3.87211,0.64946 5.29492,0.2832 1.42281,-0.36627 2.73633,-1.33985 2.73633,-1.33985 l 1.89062,-1.55078 -0.11328,-2.44531 c -0.26101,-5.61164 -1.25335,-9.56831 -2.30859,-12.24414 -0.54648,-1.38574 -1.19576,-2.50324 -1.7168,-3.29492 -4.09069,-10.91301 -0.8733,-20.66528 -0.80664,-20.86328 5.28614,-13.85246 14.51572,-18.38456 23.03125,-20.11719 2.13234,-0.43386 4.18353,-0.65752 6.0625,-0.74805 z"
       id="path2267"
       inkscape:connector-curvature="0" />
    <path
       style="color:#000000;font-style:normal;font-variant:normal;font-weight:normal;font-stretch:normal;font-size:medium;line-height:normal;font-family:sans-serif;font-variant-ligatures:normal;font-variant-position:normal;font-variant-caps:normal;font-variant-numeric:normal;font-variant-alternates:normal;font-feature-settings:normal;text-indent:0;text-align:start;text-decoration:none;text-decoration-line:none;text-decoration-style:solid;text-decoration-color:#000000;letter-spacing:normal;word-spacing:normal;text-transform:none;writing-mode:lr-tb;direction:ltr;text-orientation:mixed;dominant-baseline:auto;baseline-shift:baseline;text-anchor:start;white-space:normal;shape-padding:0;clip-rule:nonzero;display:inline;overflow:visible;visibility:visible;opacity:1;isolation:auto;mix-blend-mode:normal;color-interpolation:sRGB;color-interpolation-filters:linearRGB;solid-color:#000000;solid-opacity:1;vector-effect:none;fill:#000000;fill-opacity:1;fill-rule:nonzero;stroke:none;stroke-width:9.7552166;stroke-linecap:butt;stroke-linejoin:miter;stroke-miterlimit:4;stroke-dasharray:none;stroke-dashoffset:0;stroke-opacity:1;color-rendering:auto;image-rendering:auto;shape-rendering:auto;text-rendering:auto;enable-background:accumulate"
       d="m 550.961,291.85089 -5.68555,7.92773 c 1.63312,1.17159 4.62403,4.76241 7.46094,9.31641 2.83691,4.55399 5.72596,10.07546 8.28125,15.37695 5.11056,10.60299 8.88672,20.26953 8.88672,20.26953 l 9.08789,-3.54492 c 0,0 -3.88592,-9.96164 -9.1875,-20.96094 -2.6508,-5.49965 -5.65498,-11.27092 -8.78711,-16.29882 -3.13213,-5.02791 -6.18449,-9.30808 -10.05664,-12.08594 z"
       id="path2269"
       inkscape:connector-curvature="0" />
    <path
       style="color:#000000;font-style:normal;font-variant:normal;font-weight:normal;font-stretch:normal;font-size:medium;line-height:normal;font-family:sans-serif;font-variant-ligatures:normal;font-variant-position:normal;font-variant-caps:normal;font-variant-numeric:normal;font-variant-alternates:normal;font-feature-settings:normal;text-indent:0;text-align:start;text-decoration:none;text-decoration-line:none;text-decoration-style:solid;text-decoration-color:#000000;letter-spacing:normal;word-spacing:normal;text-transform:none;writing-mode:lr-tb;direction:ltr;text-orientation:mixed;dominant-baseline:auto;baseline-shift:baseline;text-anchor:start;white-space:normal;shape-padding:0;clip-rule:nonzero;display:inline;overflow:visible;visibility:visible;opacity:1;isolation:auto;mix-blend-mode:normal;color-interpolation:sRGB;color-interpolation-filters:linearRGB;solid-color:#000000;solid-opacity:1;vector-effect:none;fill:#000000;fill-opacity:1;fill-rule:nonzero;stroke:none;stroke-width:9.7552166;stroke-linecap:butt;stroke-linejoin:miter;stroke-miterlimit:4;stroke-dasharray:none;stroke-dashoffset:0;stroke-opacity:1;color-rendering:auto;image-rendering:auto;shape-rendering:auto;text-rendering:auto;enable-background:accumulate"
       d="m 495.66412,270.30401 -9.50586,2.19336 c 1.57091,6.80729 2.5741,21.72932 3.01953,34.46875 0.44543,12.73943 0.44531,23.55664 0.44531,23.55664 v 0.125 l 0.008,0.125 c 0.19003,3.70753 -1.6453,7.56038 -5.39258,11.26563 -3.74729,3.70524 -9.28271,6.97829 -15.18555,9.02344 -5.90284,2.04514 -12.16177,2.8524 -17.1875,2.15624 -4.92535,-0.68225 -8.39711,-2.57427 -10.48828,-5.88476 -5.74818,-13.42553 -7.637,-23.80734 -8.10351,-30.72266 -0.47144,-6.98826 0.37109,-10.02148 0.37109,-10.02148 l 0.0762,-0.30078 0.0371,-0.3086 c 1.34396,-11.02088 -0.72266,-25.86914 -0.72266,-25.86914 l -9.67382,1.24805 c 0,0 1.76245,14.83276 0.71289,23.43945 l 0.11523,-0.60742 c 0,0 -1.19429,4.98471 -0.64844,13.07617 0.54586,8.09146 2.72175,19.72781 9.03711,34.33985 l 0.13086,0.30273 0.16992,0.2832 c 3.85872,6.39162 10.61313,9.71325 17.64649,10.6875 7.03336,0.97426 14.60532,-0.13436 21.7207,-2.59961 7.11538,-2.46524 13.78719,-6.29712 18.85156,-11.30468 5.06438,-5.00756 8.64594,-11.47382 8.27539,-18.70313 l 0.006,0.25 c 0,0 10e-4,-10.96642 -0.45117,-23.89843 -0.45216,-12.93202 -1.2442,-27.56923 -3.26367,-36.32032 z"
       id="path2271"
       inkscape:connector-curvature="0" />
    <path
       style="color:#000000;font-style:normal;font-variant:normal;font-weight:normal;font-stretch:normal;font-size:medium;line-height:normal;font-family:sans-serif;font-variant-ligatures:normal;font-variant-position:normal;font-variant-caps:normal;font-variant-numeric:normal;font-variant-alternates:normal;font-feature-settings:normal;text-indent:0;text-align:start;text-decoration:none;text-decoration-line:none;text-decoration-style:solid;text-decoration-color:#000000;letter-spacing:normal;word-spacing:normal;text-transform:none;writing-mode:lr-tb;direction:ltr;text-orientation:mixed;dominant-baseline:auto;baseline-shift:baseline;text-anchor:start;white-space:normal;shape-padding:0;clip-rule:nonzero;display:inline;overflow:visible;visibility:visible;opacity:1;isolation:auto;mix-blend-mode:normal;color-interpolation:sRGB;color-interpolation-filters:linearRGB;solid-color:#000000;solid-opacity:1;vector-effect:none;fill:#000000;fill-opacity:1;fill-rule:nonzero;stroke:none;stroke-width:9.7552166;stroke-linecap:butt;stroke-linejoin:miter;stroke-miterlimit:4;stroke-dasharray:none;stroke-dashoffset:0;stroke-opacity:1;color-rendering:auto;image-rendering:auto;shape-rendering:auto;text-rendering:auto;enable-background:accumulate"
       d="m 347.11529,299.15948 c 0,0 -9.99003,37.84504 -6.61523,64.4043 -2.20741,12.00792 0.68805,21.8152 6.97656,27.99414 6.46948,6.35675 15.66933,8.81622 24.79297,8.49609 9.12363,-0.32013 18.39946,-3.39197 25.65039,-9.0957 7.25093,-5.70373 12.42143,-14.40355 12.17578,-24.88477 l -0.002,0.29493 c 0,0 0.47582,-12.72505 2.00976,-26.91407 0.76698,-7.0945 1.80324,-14.54551 3.13868,-20.82422 1.33544,-6.27871 3.22192,-11.49847 4.49414,-13.30078 l -7.96875,-5.625 c -3.03629,4.3014 -4.62123,10.09264 -6.06836,16.89649 -1.44714,6.80384 -2.50606,14.50764 -3.29492,21.80468 -1.57774,14.5941 -2.0586,27.59961 -2.0586,27.59961 l -0.006,0.14844 0.004,0.14844 c 0.17034,7.26829 -3.10026,12.77802 -8.45508,16.99023 -5.35482,4.21221 -12.84956,6.7622 -19.96094,7.01172 -7.11137,0.24953 -13.6129,-1.77248 -17.61523,-5.70508 -4.00233,-3.93259 -6.25949,-9.88095 -4.15625,-20.05664 l 0.16797,-0.81836 -0.11133,-0.82617 c -3.08849,-22.72263 6.35547,-61.33203 6.35547,-61.33203 z"
       id="path2273"
       inkscape:connector-curvature="0" />
    <path
       style="color:#000000;font-style:normal;font-variant:normal;font-weight:normal;font-stretch:normal;font-size:medium;line-height:normal;font-family:sans-serif;font-variant-ligatures:normal;font-variant-position:normal;font-variant-caps:normal;font-variant-numeric:normal;font-variant-alternates:normal;font-feature-settings:normal;text-indent:0;text-align:start;text-decoration:none;text-decoration-line:none;text-decoration-style:solid;text-decoration-color:#000000;letter-spacing:normal;word-spacing:normal;text-transform:none;writing-mode:lr-tb;direction:ltr;text-orientation:mixed;dominant-baseline:auto;baseline-shift:baseline;text-anchor:start;white-space:normal;shape-padding:0;clip-rule:nonzero;display:inline;overflow:visible;visibility:visible;opacity:1;isolation:auto;mix-blend-mode:normal;color-interpolation:sRGB;color-interpolation-filters:linearRGB;solid-color:#000000;solid-opacity:1;vector-effect:none;fill:#000000;fill-opacity:1;fill-rule:nonzero;stroke:none;stroke-width:9.7552166;stroke-linecap:butt;stroke-linejoin:miter;stroke-miterlimit:4;stroke-dasharray:none;stroke-dashoffset:0;stroke-opacity:1;color-rendering:auto;image-rendering:auto;shape-rendering:auto;text-rendering:auto;enable-background:accumulate"
       d="m 265.25397,403.25714 c -1.8693,0.0192 -3.67036,0.2836 -5.34961,0.65039 -6.71703,1.46715 -12.09961,4.85547 -12.09961,4.85547 l 5.09765,8.31836 c 0,0 4.43137,-2.62634 9.08399,-3.64258 2.32631,-0.50812 4.55173,-0.54101 6.08398,-0.0566 1.11301,0.35184 1.9575,1.06068 2.75977,2.21679 -0.6321,1.95538 -2.10884,6.00002 -5.80664,9.92774 -4.73188,5.02609 -11.48696,8.93705 -25.76563,3.16016 l -3.66015,9.04296 c 17.0775,6.90925 29.712,1.72359 36.52929,-5.51757 6.81729,-7.24117 8.82032,-16.05665 8.82032,-16.05665 l 0.38476,-1.5996 -0.66406,-1.50586 c -2.04041,-4.63015 -5.75995,-7.73646 -9.6582,-8.96875 -1.94913,-0.61615 -3.88657,-0.84345 -5.75586,-0.82422 z"
       id="path2275"
       inkscape:connector-curvature="0" />
    <path
       style="color:#000000;font-style:normal;font-variant:normal;font-weight:normal;font-stretch:normal;font-size:medium;line-height:normal;font-family:sans-serif;font-variant-ligatures:normal;font-variant-position:normal;font-variant-caps:normal;font-variant-numeric:normal;font-variant-alternates:normal;font-feature-settings:normal;text-indent:0;text-align:start;text-decoration:none;text-decoration-line:none;text-decoration-style:solid;text-decoration-color:#000000;letter-spacing:normal;word-spacing:normal;text-transform:none;writing-mode:lr-tb;direction:ltr;text-orientation:mixed;dominant-baseline:auto;baseline-shift:baseline;text-anchor:start;white-space:normal;shape-padding:0;clip-rule:nonzero;display:inline;overflow:visible;visibility:visible;opacity:1;isolation:auto;mix-blend-mode:normal;color-interpolation:sRGB;color-interpolation-filters:linearRGB;solid-color:#000000;solid-opacity:1;vector-effect:none;fill:#000000;fill-opacity:1;fill-rule:nonzero;stroke:none;stroke-width:9.7552166;stroke-linecap:butt;stroke-linejoin:miter;stroke-miterlimit:4;stroke-dasharray:none;stroke-dashoffset:0;stroke-opacity:1;color-rendering:auto;image-rendering:auto;shape-rendering:auto;text-rendering:auto;enable-background:accumulate"
       d="m 372.67584,333.64386 c -13.58368,0.93724 -25.30311,15.08701 -23.64063,36.83984 l 0.19532,2.54492 2.19922,1.29102 c 0,0 4.91537,2.80989 12.61328,3.80469 7.69791,0.99479 18.59747,0.34955 31.36133,-5.625 l 2.70312,-1.26563 0.10352,-2.98242 c 0.38917,-11.26055 -2.27292,-20.04699 -7.03711,-26.0586 -4.7642,-6.0116 -11.70621,-9.01745 -18.49805,-8.54882 z m 0.67187,9.73242 c 3.62854,-0.25036 7.20954,1.12471 10.18165,4.875 2.61891,3.30462 4.59633,8.78103 4.83007,16.53711 -9.69252,3.93831 -17.57031,4.37041 -23.0664,3.66015 -2.94979,-0.38119 -5.08604,-0.9966 -6.56055,-1.52539 -0.28442,-16.07911 7.76179,-23.074 14.61523,-23.54687 z"
       id="path2277"
       inkscape:connector-curvature="0" />
    <path
       style="color:#000000;font-style:normal;font-variant:normal;font-weight:normal;font-stretch:normal;font-size:medium;line-height:normal;font-family:sans-serif;font-variant-ligatures:normal;font-variant-position:normal;font-variant-caps:normal;font-variant-numeric:normal;font-variant-alternates:normal;font-feature-settings:normal;text-indent:0;text-align:start;text-decoration:none;text-decoration-line:none;text-decoration-style:solid;text-decoration-color:#000000;letter-spacing:normal;word-spacing:normal;text-transform:none;writing-mode:lr-tb;direction:ltr;text-orientation:mixed;dominant-baseline:auto;baseline-shift:baseline;text-anchor:start;white-space:normal;shape-padding:0;clip-rule:nonzero;display:inline;overflow:visible;visibility:visible;opacity:1;isolation:auto;mix-blend-mode:normal;color-interpolation:sRGB;color-interpolation-filters:linearRGB;solid-color:#000000;solid-opacity:1;vector-effect:none;fill:#000000;fill-opacity:1;fill-rule:nonzero;stroke:none;stroke-width:9.7552166;stroke-linecap:butt;stroke-linejoin:miter;stroke-miterlimit:4;stroke-dasharray:none;stroke-dashoffset:0;stroke-opacity:1;color-rendering:auto;image-rendering:auto;shape-rendering:auto;text-rendering:auto;enable-background:accumulate"
       d="m 462.21881,294.36261 c -1.7519,0.14517 -3.47842,0.51422 -5.13281,1.09765 -13.23515,4.66745 -22.48358,21.40295 -17.54297,41.6211 l 0.95312,3.90625 4.01758,-0.19141 c 0,0 7.36628,-0.3476 16.20117,-1.81641 8.8349,-1.4688 19.15932,-3.72851 26.29492,-9.16015 l 2.22852,-1.69727 -0.3418,-2.7793 c -1.5046,-12.2348 -5.56458,-20.84765 -11.49218,-25.98437 -4.44571,-3.85254 -9.92986,-5.43163 -15.18555,-4.99609 z m 0.87305,9.64257 c 2.72148,-0.3042 5.33399,0.48032 7.92382,2.72461 3.08239,2.67113 6.06372,8.06113 7.61914,16.72461 -4.81566,2.57545 -12.55193,4.74398 -19.51953,5.90235 -4.24216,0.70526 -8.00088,1.12114 -10.75976,1.37109 -1.8717,-14.0829 5.14048,-23.65827 11.97461,-26.06836 0.93459,-0.32959 1.85455,-0.5529 2.76172,-0.6543 z"
       id="path2279"
       inkscape:connector-curvature="0" />
    <path
       style="color:#000000;font-style:normal;font-variant:normal;font-weight:normal;font-stretch:normal;font-size:medium;line-height:normal;font-family:sans-serif;font-variant-ligatures:normal;font-variant-position:normal;font-variant-caps:normal;font-variant-numeric:normal;font-variant-alternates:normal;font-feature-settings:normal;text-indent:0;text-align:start;text-decoration:none;text-decoration-line:none;text-decoration-style:solid;text-decoration-color:#000000;letter-spacing:normal;word-spacing:normal;text-transform:none;writing-mode:lr-tb;direction:ltr;text-orientation:mixed;dominant-baseline:auto;baseline-shift:baseline;text-anchor:start;white-space:normal;shape-padding:0;clip-rule:nonzero;display:inline;overflow:visible;visibility:visible;opacity:1;isolation:auto;mix-blend-mode:normal;color-interpolation:sRGB;color-interpolation-filters:linearRGB;solid-color:#000000;solid-opacity:1;vector-effect:none;fill:#000000;fill-opacity:1;fill-rule:nonzero;stroke:none;stroke-width:9.7552166;stroke-linecap:butt;stroke-linejoin:miter;stroke-miterlimit:4;stroke-dasharray:none;stroke-dashoffset:0;stroke-opacity:1;color-rendering:auto;image-rendering:auto;shape-rendering:auto;text-rendering:auto;enable-background:accumulate"
       d="m 607.06256,314.25323 c -1.60102,0.18541 -3.16007,0.5753 -4.64063,1.16406 -11.84448,4.71015 -17.95529,20.56641 -10.81445,37.46875 l 1.07227,2.53516 2.72461,0.39453 c 0,0 8.82547,1.30089 18.09374,0.84766 4.63414,-0.22662 9.4171,-0.8272 13.68165,-2.60156 4.26454,-1.77437 8.50001,-5.5346 8.98437,-10.93165 l 0.084,-0.9414 -0.27343,-0.9043 c -3.35279,-11.10724 -8.35752,-18.66906 -14.40039,-23.03125 -4.53215,-3.27164 -9.70865,-4.55622 -14.51172,-4 z m 1.20117,9.62695 c 2.30207,-0.31957 4.80935,0.26759 7.60156,2.28321 3.5468,2.56034 7.42724,7.84535 10.31836,16.70703 -0.25839,0.78187 -0.81558,1.37987 -2.75195,2.18555 -2.44741,1.0183 -6.39122,1.66675 -10.41016,1.86328 -5.74421,0.2809 -10.46089,-0.14585 -13.31445,-0.45899 -3.85265,-11.75673 0.92133,-19.83152 6.32031,-21.97851 0.72496,-0.2883 1.46897,-0.49504 2.23633,-0.60157 z"
       id="path2281"
       inkscape:connector-curvature="0" />
    <path
       style="color:#000000;font-style:normal;font-variant:normal;font-weight:normal;font-stretch:normal;font-size:medium;line-height:normal;font-family:sans-serif;font-variant-ligatures:normal;font-variant-position:normal;font-variant-caps:normal;font-variant-numeric:normal;font-variant-alternates:normal;font-feature-settings:normal;text-indent:0;text-align:start;text-decoration:none;text-decoration-line:none;text-decoration-style:solid;text-decoration-color:#000000;letter-spacing:normal;word-spacing:normal;text-transform:none;writing-mode:lr-tb;direction:ltr;text-orientation:mixed;dominant-baseline:auto;baseline-shift:baseline;text-anchor:start;white-space:normal;shape-padding:0;clip-rule:nonzero;display:inline;overflow:visible;visibility:visible;opacity:1;isolation:auto;mix-blend-mode:normal;color-interpolation:sRGB;color-interpolation-filters:linearRGB;solid-color:#000000;solid-opacity:1;vector-effect:none;fill:#000000;fill-opacity:1;fill-rule:nonzero;stroke:none;stroke-width:9.7552166;stroke-linecap:butt;stroke-linejoin:miter;stroke-miterlimit:4;stroke-dasharray:none;stroke-dashoffset:0;stroke-opacity:1;color-rendering:auto;image-rendering:auto;shape-rendering:auto;text-rendering:auto;enable-background:accumulate"
       d="m 615.88092,446.93487 c -25.48048,14.34459 -23.80274,44.47266 -23.80274,44.47266 l 9.74024,-0.54883 c 0,0 -1.37029,-24.04185 18.84765,-35.42383 z"
       id="path2283"
       inkscape:connector-curvature="0" />
    <path
       style="color:#000000;font-style:normal;font-variant:normal;font-weight:normal;font-stretch:normal;font-size:medium;line-height:normal;font-family:sans-serif;font-variant-ligatures:normal;font-variant-position:normal;font-variant-caps:normal;font-variant-numeric:normal;font-variant-alternates:normal;font-feature-settings:normal;text-indent:0;text-align:start;text-decoration:none;text-decoration-line:none;text-decoration-style:solid;text-decoration-color:#000000;letter-spacing:normal;word-spacing:normal;text-transform:none;writing-mode:lr-tb;direction:ltr;text-orientation:mixed;dominant-baseline:auto;baseline-shift:baseline;text-anchor:start;white-space:normal;shape-padding:0;clip-rule:nonzero;display:inline;overflow:visible;visibility:visible;opacity:1;isolation:auto;mix-blend-mode:normal;color-interpolation:sRGB;color-interpolation-filters:linearRGB;solid-color:#000000;solid-opacity:1;vector-effect:none;fill:#000000;fill-opacity:1;fill-rule:nonzero;stroke:none;stroke-width:9.7552166;stroke-linecap:butt;stroke-linejoin:miter;stroke-miterlimit:4;stroke-dasharray:none;stroke-dashoffset:0;stroke-opacity:1;color-rendering:auto;image-rendering:auto;shape-rendering:auto;text-rendering:auto;enable-background:accumulate"
       d="m 554.8985,415.86651 c -23.35949,16.2166 -16.83204,47.96094 -16.83204,47.96094 l 9.57227,-1.87695 c 0,0 -4.77548,-25.85227 12.82422,-38.07032 z"
       id="path2285"
       inkscape:connector-curvature="0" />
    <path
       style="color:#000000;font-style:normal;font-variant:normal;font-weight:normal;font-stretch:normal;font-size:medium;line-height:normal;font-family:sans-serif;font-variant-ligatures:normal;font-variant-position:normal;font-variant-caps:normal;font-variant-numeric:normal;font-variant-alternates:normal;font-feature-settings:normal;text-indent:0;text-align:start;text-decoration:none;text-decoration-line:none;text-decoration-style:solid;text-decoration-color:#000000;letter-spacing:normal;word-spacing:normal;text-transform:none;writing-mode:lr-tb;direction:ltr;text-orientation:mixed;dominant-baseline:auto;baseline-shift:baseline;text-anchor:start;white-space:normal;shape-padding:0;clip-rule:nonzero;display:inline;overflow:visible;visibility:visible;opacity:1;isolation:auto;mix-blend-mode:normal;color-interpolation:sRGB;color-interpolation-filters:linearRGB;solid-color:#000000;solid-opacity:1;vector-effect:none;fill:#000000;fill-opacity:1;fill-rule:nonzero;stroke:none;stroke-width:9.7552166;stroke-linecap:butt;stroke-linejoin:miter;stroke-miterlimit:4;stroke-dasharray:none;stroke-dashoffset:0;stroke-opacity:1;color-rendering:auto;image-rendering:auto;shape-rendering:auto;text-rendering:auto;enable-background:accumulate"
       d="m 340.63873,375.80011 c 0.20457,-0.49098 -1.35214,1.66196 -2.87305,2.99609 -1.5209,1.33413 -2.92382,2.36133 -2.92382,2.36133 l 5.75585,7.87695 c 0,0 1.70963,-1.24641 3.59961,-2.9043 1.88999,-1.65788 4.04398,-3.21486 5.44532,-6.57812 z"
       id="path2289"
       inkscape:connector-curvature="0" />
    <path
       style="color:#000000;font-style:normal;font-variant:normal;font-weight:normal;font-stretch:normal;font-size:medium;line-height:normal;font-family:sans-serif;font-variant-ligatures:normal;font-variant-position:normal;font-variant-caps:normal;font-variant-numeric:normal;font-variant-alternates:normal;font-feature-settings:normal;text-indent:0;text-align:start;text-decoration:none;text-decoration-line:none;text-decoration-style:solid;text-decoration-color:#000000;letter-spacing:normal;word-spacing:normal;text-transform:none;writing-mode:lr-tb;direction:ltr;text-orientation:mixed;dominant-baseline:auto;baseline-shift:baseline;text-anchor:start;white-space:normal;shape-padding:0;clip-rule:nonzero;display:inline;overflow:visible;visibility:visible;opacity:1;isolation:auto;mix-blend-mode:normal;color-interpolation:sRGB;color-interpolation-filters:linearRGB;solid-color:#000000;solid-opacity:1;vector-effect:none;fill:#000000;fill-opacity:1;fill-rule:nonzero;stroke:none;stroke-width:10.57810307;stroke-linecap:butt;stroke-linejoin:miter;stroke-miterlimit:4;stroke-dasharray:none;stroke-dashoffset:0;stroke-opacity:1;color-rendering:auto;image-rendering:auto;shape-rendering:auto;text-rendering:auto;enable-background:accumulate"
       d="m 946.37115,413.93487 -0.41211,0.004 -0.40625,0.0664 c 0,0 -7.22244,1.19319 -15.66992,3.63672 -8.44748,2.44353 -18.18453,5.70805 -24.39648,12.06446 l 0.25586,-0.24414 c 0.64034,-0.57294 -0.10178,0.04 -1.31055,0.49414 -1.20877,0.45413 -2.9802,1.01394 -5.13477,1.62695 -4.30913,1.22602 -10.17584,2.68757 -16.91992,4.39062 -13.34301,3.36945 -30.13843,7.70457 -45.98242,13.38868 -1.44767,0.1886 -12.91416,1.88336 -22.47852,8.69726 -0.30226,0.12934 -6.62326,2.83984 -14.49804,5.88477 -8.06043,3.1167 -17.75264,6.43859 -21.8125,7.11523 l -0.38672,0.0645 -0.37305,0.11914 c 0,0 -15.77589,5.21686 -29.59375,21.3457 -1.04493,0.64646 -41.47199,25.65498 -53.4082,31.62305 l 0.37109,-0.16797 c 0,0 -2.35054,1.01936 -4.92578,3.12109 -2.57524,2.10173 -5.7777,5.46133 -8.66602,10.53125 -5.57586,9.78742 -9.84023,25.88932 -7.31054,51.39844 -0.54793,0.42865 -1.09569,0.86021 -1.93164,1.44726 -2.27206,1.59556 -5.41432,3.62207 -8.82617,5.70118 -6.82372,4.1582 -14.8952,8.59938 -19.37891,10.54882 l 0.69922,-0.24804 c 0,0 -7.00309,2.06529 -12.16016,9.09765 -5.15707,7.03236 -8.58135,18.9251 -4.6582,37.15625 l -0.0606,-0.32226 c 0,0 2.67863,22.17908 -4.58398,34.88867 l -0.2168,0.37695 -0.15039,0.40821 c 0,0 -4.30993,11.0942 -3.80859,22.6875 0.25066,5.79664 1.75457,12.1481 6.50781,16.87304 4.67108,4.64328 12.05884,6.81526 21.52734,5.85352 0.0996,-0.003 1.97316,-0.0532 4.47656,-0.70313 2.56887,-0.66691 6.10395,-1.94628 10.4043,-4.36523 7.3048,-4.10896 16.88763,-11.85526 27.79883,-25.07617 3.82323,9.54029 13.51528,33.63619 16.64648,42.33398 l 0.0781,0.2207 0.0996,0.2129 c 6.69932,14.44319 22.16009,24.36369 37.90625,24.11909 7.87308,-0.1223 15.89569,-3.0772 22.11719,-9.4609 6.22149,-6.3838 10.55797,-15.92791 12.25976,-28.81445 l 0.0332,-0.23828 0.008,-0.24218 c 0,0 0.44623,-11.07508 -0.10742,-24.58399 -0.54023,-13.18123 -1.85897,-28.47134 -6.10157,-39.42969 -0.007,-0.0359 -3.12791,-15.84411 -3.60351,-28.30078 3.28209,-0.24327 7.82529,-0.64744 12.91797,-1.29101 10.13293,-1.28052 22.33794,-3.38607 31.63867,-7.54688 l -0.48828,0.19141 c 0,0 6.47637,-2.15908 13.15625,-4.3125 2.85803,-0.92136 5.58581,-1.7754 8.00586,-2.51953 0.50132,10.41554 0.91613,34.41853 -2.85352,74 l -0.006,0.0605 -0.006,0.0586 c 0,0 -2.36196,29.7787 0.49024,47.36719 l 0.0664,0.40625 0.12891,0.39257 c 8.03941,24.55267 27.94769,36.79427 46.69726,36.36327 18.74958,-0.4309 36.42333,-13.9833 38.88672,-37.0117 l 0.0195,-0.17969 0.008,-0.1836 c 0,0 0.21332,-5.59522 0.94922,-12.06054 0.73589,-6.46532 2.51032,-14.16167 3.54687,-15.92383 l 0.52539,-0.89258 0.15039,-1.02539 c 0,0 8.39876,-56.61655 5.26172,-96.50195 l 0.0117,0.20117 c 0,0 -0.31969,-7.94123 -0.21289,-16.75195 0.0534,-4.40536 0.21571,-9.02153 0.5625,-12.85547 0.31291,-3.45937 0.93275,-5.94856 1.19922,-6.79883 2.24398,-2.05595 14.65085,-12.12516 33.98047,-7.14063 -0.0159,6.17631 -0.12005,35.11931 -1.25586,49.88477 l -0.0156,0.20313 v 0.20312 c 0,0 -0.1183,42.50905 -13.18554,79.18164 l 0.0859,-0.22266 c 0,0 -9.09765,21.88733 -9.09765,44.6543 v 0.23438 l 0.0195,0.23632 c 3.27816,36.72599 67.72022,40.07269 76.16992,-0.25781 l -0.1191,0.4668 c 0,0 2.0173,-6.57936 5.0996,-14.55078 3.0823,-7.97142 7.4024,-17.38859 11.0097,-22.07813 l 0.3614,-0.46875 0.25,-0.53906 c 0,0 13.4118,-28.82483 16.1328,-60.5 0,-5e-5 0,-0.0253 0,-0.0254 0.01,-0.0699 1.0863,-10.86822 2.1738,-22.99414 0.4057,-4.52373 0.7688,-8.9585 1.1211,-13.30859 0.9302,1.18315 1.9561,2.29156 3.0625,3.33789 -0.081,1.93882 -0.3893,8.72818 -0.4863,19.29882 -0.1053,11.47896 0.063,24.62039 1.3418,33.69922 -0.3975,1.43354 -3.563,12.90343 -6.668,27.54883 -3.3039,15.58354 -6.4991,33.35933 -4.9688,45.34766 l 0.01,0.0508 0.01,0.0508 c 2.941,19.91183 15.2539,31.42553 28.627,32.82223 13.3731,1.3967 27.0013,-7.1278 32.1035,-22.414 l 0.084,-0.252 0.059,-0.2617 c 0,0 1.3537,-6.00643 3.3731,-12.8125 2.0194,-6.80607 5.3131,-14.7681 6.6406,-16.39062 l 0.541,-0.66016 0.3047,-0.79688 c 0,0 14.2898,-36.19244 13.8652,-62.91406 0,0 1.8799,-18.42124 1.4883,-39.5664 -0.1958,-10.57258 -0.9481,-21.85087 -2.8496,-32.05274 -1.9015,-10.20186 -4.78,-19.39168 -10.3398,-25.91015 l 0.3046,0.39257 c 0,0 -5.1193,-7.29257 -11.4082,-15.67773 -6.2889,-8.38516 -13.4988,-17.69603 -18.8593,-22.69922 l -0.029,-0.0273 -0.031,-0.0274 c 0,0 -12.2353,-11.0925 -21.6231,-29.28125 l -0.084,-0.16015 -0.094,-0.15625 c 0,0 -3.2174,-5.31409 -7.8789,-11.3418 -4.2469,-5.49164 -9.5411,-11.58197 -15.8476,-15.34766 -1.6595,-3.71918 -7.4277,-15.37867 -19.8438,-27.25195 -14.8879,-14.23708 -39.3578,-28.33125 -76.10546,-28.01172 z m 0.46485,10.5918 c 33.81396,-0.19606 55.1074,12.41977 68.3301,25.06445 13.2735,12.69328 18.0332,25.0918 18.0332,25.0918 l 0.7383,1.9082 1.83,0.91602 c 3.9281,1.96402 9.7692,7.9959 14.0332,13.50976 4.251,5.49689 7.1715,10.30432 7.1895,10.33399 10.2902,19.79267 23.7617,31.97851 23.7617,31.97851 l -0.061,-0.0547 c 3.8727,3.61453 11.4372,13.07778 17.6133,21.3125 6.1761,8.23471 11.2129,15.4082 11.2129,15.4082 l 0.1426,0.20312 0.1621,0.18946 c 3.3656,3.94591 6.2562,11.6829 7.9902,20.98633 1.7341,9.30342 2.483,20.10827 2.6719,30.31054 0.3779,20.40455 -1.4356,38.30078 -1.4356,38.30078 l -0.033,0.33203 0.01,0.33399 c 0.5535,22.13959 -12.6841,58.12826 -13.0703,59.17383 -3.7144,5.11687 -5.8741,12.24338 -7.873,18.98047 -2.0621,6.94984 -3.3343,12.6241 -3.4278,13.0371 -3.7415,11.142 -12.649,16.0585 -20.9511,15.1914 -8.302,-0.8671 -16.7949,-7.3254 -19.2481,-23.77343 -1.0727,-8.4795 1.6024,-26.587 4.8242,-41.7832 3.225,-15.21111 6.7735,-27.91016 6.7735,-27.91016 l 0.3105,-1.10937 -0.1797,-1.13867 c -1.1772,-7.45576 -1.4574,-21.42933 -1.3496,-33.1875 0.1079,-11.75818 0.5391,-21.4668 0.5391,-21.4668 l 0.125,-2.82617 -2.2813,-1.67383 c -1.9249,-1.4116 -5.1122,-5.70581 -7.2988,-9.51953 -2.1865,-3.81372 -3.6054,-7.05078 -3.6055,-7.05078 l -10.1347,2.11914 c 0,4.23895 -1.0691,17.95013 -2.1543,30.05078 -1.0853,12.10065 -2.1719,22.95898 -2.1719,22.95898 l -0,0.0371 -0,0.0391 c -2.4742,28.86606 -14.7678,56.02572 -15.0937,56.74218 -4.8603,6.60049 -8.8725,15.89383 -11.9903,23.95704 -3.229,8.35085 -5.3476,15.26562 -5.3476,15.26562 l -0.07,0.22852 -0.049,0.23632 c -6.1992,29.58856 -52.88319,25.52566 -55.24418,1.6543 0.083,-19.79658 8.29883,-40.35547 8.29883,-40.35547 l 0.0449,-0.11133 0.041,-0.11328 c 13.83201,-38.81886 13.7939,-82.00705 13.79297,-82.54687 1.33736,-17.64148 1.3125,-54.59375 1.3125,-54.59375 v -3.75196 l -3.54297,-1.24023 c -28.80129,-10.08044 -49.40039,9.47656 -49.40039,9.47656 l -0.68555,0.66797 -0.4082,0.86524 c -1.55421,3.30271 -1.9033,6.79955 -2.29102,11.08593 -0.38771,4.28639 -0.55005,9.10976 -0.60547,13.68164 -0.11083,9.14376 0.22266,17.30664 0.22266,17.30664 l 0.004,0.10157 0.008,0.0996 c 2.90925,36.98925 -4.85385,91.77639 -5.10547,93.53906 -2.75591,5.47241 -3.61311,12.36021 -4.34375,18.7793 -0.78752,6.91887 -1.00977,12.85742 -1.00977,12.85742 l 0.0254,-0.36328 c -1.96467,18.3662 -14.5248,27.2387 -28.61133,27.5625 -13.98987,0.3216 -29.38193,-8.2587 -36.24219,-28.6836 -2.28717,-14.74374 -0.34766,-44.50586 -0.34766,-44.50586 l -0.01,0.11914 c 5.25496,-55.17738 2.46875,-82.39062 2.46875,-82.39062 l -0.49414,-4.74414 h -4.76758 c -1.20428,0 -1.3265,0.13049 -1.74219,0.22265 -0.41569,0.0922 -0.84122,0.20116 -1.32617,0.33204 -0.96989,0.26174 -2.16075,0.61107 -3.5293,1.02539 -2.7371,0.82863 -6.16539,1.91695 -9.53711,3.0039 -6.74343,2.17392 -13.2539,4.3418 -13.2539,4.3418 l -0.24805,0.084 -0.24023,0.10743 c -7.23918,3.23854 -18.97313,5.48483 -28.64454,6.70703 -9.6714,1.22219 -17.29492,1.54101 -17.29492,1.54101 l -4.91211,0.20508 -0.15429,4.91406 c -0.47469,15.19023 4.03125,35.65235 4.03125,35.65235 l 0.0976,0.46289 0.17969,0.4375 c 3.33368,8.14901 5.06119,23.69241 5.5957,36.73437 0.52292,12.75893 0.13268,22.97779 0.11524,23.42774 -1.50219,11.14205 -5.08233,18.29421 -9.31446,22.63674 -4.25697,4.368 -9.24639,6.1808 -14.70507,6.2656 -10.89455,0.1692 -23.33419,-7.7096 -28.11133,-17.92969 -4.20259,-11.616 -19.94727,-50.73632 -19.94727,-50.73632 l -3.52929,-8.77344 -5.62891,7.59961 c -12.70647,17.15373 -23.26532,25.41059 -30.33398,29.38672 -3.53434,1.98806 -6.20204,2.91282 -7.87696,3.34765 -1.67492,0.43484 -1.93554,0.38086 -1.93554,0.38086 h -0.29688 l -0.29297,0.0332 c -7.70015,0.86626 -11.26116,-0.73851 -13.36328,-2.82812 -2.10212,-2.08961 -3.21189,-5.55743 -3.39648,-9.82617 -0.3692,-8.53749 3.1582,-18.55274 3.1582,-18.55274 l -0.36719,0.78321 c 10.14779,-17.75864 5.86133,-41.71485 5.86133,-41.71485 l -0.0254,-0.16406 -0.0352,-0.16016 c -3.47625,-16.15442 -0.37209,-24.28255 2.84961,-28.67578 3.22171,-4.39323 6.44922,-5.1582 6.44922,-5.1582 l 0.35742,-0.0977 0.33985,-0.14843 c 5.52729,-2.40318 13.5614,-6.88743 20.66601,-11.2168 3.55231,-2.16469 6.83018,-4.27124 9.40039,-6.07617 1.28511,-0.90247 2.38858,-1.72311 3.32617,-2.50586 0.9376,-0.78276 1.64796,-0.9521 2.74415,-3.14453 l 0.70507,-1.40821 -0.18164,-1.56445 c -2.95339,-25.52562 1.30974,-39.82988 5.76172,-47.64453 2.22599,-3.90733 4.52077,-6.23467 6.16211,-7.57422 1.64134,-1.33955 2.22852,-1.51758 2.22852,-1.51758 l 0.1875,-0.0762 0.18164,-0.0918 c 14.02503,-7.01247 54.83398,-32.44726 54.83398,-32.44726 l 0.72461,-0.44922 0.54688,-0.65625 c 12.13885,-14.56662 25.42187,-18.8125 25.42187,-18.8125 l -0.75781,0.18555 c 6.3864,-1.06441 15.62683,-4.48901 23.88867,-7.6836 8.26184,-3.19458 15.19336,-6.16601 15.19336,-6.16601 l 0.58203,-0.24805 0.50781,-0.38086 c 7.10296,-5.32721 18.87696,-7.26172 18.87696,-7.26172 l 0.55078,-0.0762 0.52344,-0.18945 c 15.34398,-5.54086 32.05642,-9.86298 45.5,-13.25782 6.72178,-1.69742 12.6177,-3.15996 17.2246,-4.4707 2.30346,-0.65537 4.28016,-1.26892 5.96094,-1.90039 1.68078,-0.63147 2.97045,-1.0158 4.64453,-2.51367 l 0.13086,-0.11914 0.125,-0.12696 c 3.14614,-3.21929 11.98331,-7.04266 19.76953,-9.29492 7.38414,-2.13594 13.37418,-3.16859 14.01368,-3.27734 z"
       id="path35582"
       inkscape:connector-curvature="0" />
    <path
       style="color:#000000;font-style:normal;font-variant:normal;font-weight:normal;font-stretch:normal;font-size:medium;line-height:normal;font-family:sans-serif;font-variant-ligatures:normal;font-variant-position:normal;font-variant-caps:normal;font-variant-numeric:normal;font-variant-alternates:normal;font-feature-settings:normal;text-indent:0;text-align:start;text-decoration:none;text-decoration-line:none;text-decoration-style:solid;text-decoration-color:#000000;letter-spacing:normal;word-spacing:normal;text-transform:none;writing-mode:lr-tb;direction:ltr;text-orientation:mixed;dominant-baseline:auto;baseline-shift:baseline;text-anchor:start;white-space:normal;shape-padding:0;clip-rule:nonzero;display:inline;overflow:visible;visibility:visible;opacity:1;isolation:auto;mix-blend-mode:normal;color-interpolation:sRGB;color-interpolation-filters:linearRGB;solid-color:#000000;solid-opacity:1;vector-effect:none;fill:#000000;fill-opacity:1;fill-rule:nonzero;stroke:none;stroke-width:10.57810307;stroke-linecap:butt;stroke-linejoin:miter;stroke-miterlimit:4;stroke-dasharray:none;stroke-dashoffset:0;stroke-opacity:1;color-rendering:auto;image-rendering:auto;shape-rendering:auto;text-rendering:auto;enable-background:accumulate"
       d="m 1015.6739,477.50323 -6.9297,7.99219 c 20.9999,18.21419 29.7713,30.4306 33.209,37.44922 1.7188,3.5093 2.1175,5.69418 2.1953,6.74804 0.034,0.45368 0.01,0.6141 -0,0.68946 l -0.4062,0.9707 0.25,1.50586 c 0.098,0.58779 0.3098,6.16643 0.2089,12.62305 -0.1008,6.45661 -0.3579,14.40054 -0.6562,22.10351 -0.5967,15.40595 -1.3574,29.85157 -1.3574,29.85157 l 10.5625,0.55468 c 0,0 0.763,-14.49855 1.3632,-29.99609 0.3002,-7.74877 0.561,-15.74647 0.6641,-22.34766 0.092,-5.87724 0.1151,-9.9835 -0.2578,-13.20312 0.027,-0.1237 0.053,-0.14024 0.072,-0.26172 0.139,-0.85857 0.2085,-1.95341 0.1113,-3.26953 -0.1942,-2.63226 -1.0476,-6.13248 -3.2461,-10.6211 -4.397,-8.97722 -14.1236,-22.0061 -35.7793,-40.78906 z"
       id="path35584"
       inkscape:connector-curvature="0" />
    <path
       style="color:#000000;font-style:normal;font-variant:normal;font-weight:normal;font-stretch:normal;font-size:medium;line-height:normal;font-family:sans-serif;font-variant-ligatures:normal;font-variant-position:normal;font-variant-caps:normal;font-variant-numeric:normal;font-variant-alternates:normal;font-feature-settings:normal;text-indent:0;text-align:start;text-decoration:none;text-decoration-line:none;text-decoration-style:solid;text-decoration-color:#000000;letter-spacing:normal;word-spacing:normal;text-transform:none;writing-mode:lr-tb;direction:ltr;text-orientation:mixed;dominant-baseline:auto;baseline-shift:baseline;text-anchor:start;white-space:normal;shape-padding:0;clip-rule:nonzero;display:inline;overflow:visible;visibility:visible;opacity:1;isolation:auto;mix-blend-mode:normal;color-interpolation:sRGB;color-interpolation-filters:linearRGB;solid-color:#000000;solid-opacity:1;vector-effect:none;fill:#000000;fill-opacity:1;fill-rule:nonzero;stroke:none;stroke-width:10.57810307;stroke-linecap:butt;stroke-linejoin:miter;stroke-miterlimit:4;stroke-dasharray:none;stroke-dashoffset:0;stroke-opacity:1;color-rendering:auto;image-rendering:auto;shape-rendering:auto;text-rendering:auto;enable-background:accumulate"
       d="m 915.9981,476.62042 -7.79687,7.14648 c 13.05386,14.24062 14.29102,31.17969 14.29102,31.17969 l 0.0195,0.28711 0.0508,0.2832 c 1.748,9.7111 1.01224,25.82268 -0.32813,39.11914 -1.34036,13.29646 -3.16015,23.90235 -3.16015,23.90235 l 10.42578,1.78906 c 0,0 1.87781,-10.93921 3.25781,-24.62891 1.37211,-13.61135 2.3631,-29.80273 0.24219,-41.83398 -0.0745,-0.981 -1.7191,-20.57189 -17.00196,-37.24414 z"
       id="path35586"
       inkscape:connector-curvature="0" />
    <path
       style="color:#000000;font-style:normal;font-variant:normal;font-weight:normal;font-stretch:normal;font-size:medium;line-height:normal;font-family:sans-serif;font-variant-ligatures:normal;font-variant-position:normal;font-variant-caps:normal;font-variant-numeric:normal;font-variant-alternates:normal;font-feature-settings:normal;text-indent:0;text-align:start;text-decoration:none;text-decoration-line:none;text-decoration-style:solid;text-decoration-color:#000000;letter-spacing:normal;word-spacing:normal;text-transform:none;writing-mode:lr-tb;direction:ltr;text-orientation:mixed;dominant-baseline:auto;baseline-shift:baseline;text-anchor:start;white-space:normal;shape-padding:0;clip-rule:nonzero;display:inline;overflow:visible;visibility:visible;opacity:1;isolation:auto;mix-blend-mode:normal;color-interpolation:sRGB;color-interpolation-filters:linearRGB;solid-color:#000000;solid-opacity:1;vector-effect:none;fill:#000000;fill-opacity:1;fill-rule:nonzero;stroke:none;stroke-width:10.57810307;stroke-linecap:butt;stroke-linejoin:miter;stroke-miterlimit:4;stroke-dasharray:none;stroke-dashoffset:0;stroke-opacity:1;color-rendering:auto;image-rendering:auto;shape-rendering:auto;text-rendering:auto;enable-background:accumulate"
       d="m 684.03131,590.40948 -10.46289,1.55078 c 3.41662,23.06218 4.72363,49.3178 4.73047,49.45508 -1.06674,9.76205 0.75745,22.31696 2.7539,33.05469 2.05142,11.03339 4.38282,19.9082 4.38281,19.9082 l 10.23243,-2.68555 c 0,0 -2.24013,-8.53543 -4.21485,-19.15625 -1.97471,-10.62081 -3.5305,-23.51428 -2.61914,-30.62304 l 0.0586,-0.46485 -0.0234,-0.46875 c 0,0 -1.29927,-26.68465 -4.83789,-50.57031 z"
       id="path35588"
       inkscape:connector-curvature="0" />
    <path
       style="color:#000000;font-style:normal;font-variant:normal;font-weight:normal;font-stretch:normal;font-size:medium;line-height:normal;font-family:sans-serif;font-variant-ligatures:normal;font-variant-position:normal;font-variant-caps:normal;font-variant-numeric:normal;font-variant-alternates:normal;font-feature-settings:normal;text-indent:0;text-align:start;text-decoration:none;text-decoration-line:none;text-decoration-style:solid;text-decoration-color:#000000;letter-spacing:normal;word-spacing:normal;text-transform:none;writing-mode:lr-tb;direction:ltr;text-orientation:mixed;dominant-baseline:auto;baseline-shift:baseline;text-anchor:start;white-space:normal;shape-padding:0;clip-rule:nonzero;display:inline;overflow:visible;visibility:visible;opacity:1;isolation:auto;mix-blend-mode:normal;color-interpolation:sRGB;color-interpolation-filters:linearRGB;solid-color:#000000;solid-opacity:1;vector-effect:none;fill:#000000;fill-opacity:1;fill-rule:nonzero;stroke:none;stroke-width:10.57810307;stroke-linecap:butt;stroke-linejoin:miter;stroke-miterlimit:4;stroke-dasharray:none;stroke-dashoffset:0;stroke-opacity:1;color-rendering:auto;image-rendering:auto;shape-rendering:auto;text-rendering:auto;enable-background:accumulate"
       d="m 794.93756,546.94464 c -13.29576,20.37252 -22.36793,29.60782 -27.5332,33.50976 -2.58264,1.95097 -4.15943,2.56116 -4.75586,2.73047 -0.011,0.003 0.003,-8.9e-4 -0.008,0.002 l -3.8125,-0.99219 -1.70117,4.39648 c -1.45893,3.76893 -1.6884,7.98904 -1.79687,12.97071 -0.10848,4.98166 0.10761,10.52084 0.4375,15.73828 0.65977,10.43487 1.78711,19.61914 1.78711,19.61914 l 10.5,-1.28711 c 0,0 -1.09197,-8.93239 -1.72852,-19 -0.31827,-5.03381 -0.51977,-10.34413 -0.42187,-14.83985 0.0608,-2.79456 0.3163,-5.04715 0.59374,-6.82422 2.01501,-0.70183 4.35267,-1.86044 7.28321,-4.07421 6.74213,-5.09312 16.32329,-15.19078 30.01367,-36.16797 z"
       id="path35592"
       inkscape:connector-curvature="0" />
    <path
       style="color:#000000;font-style:normal;font-variant:normal;font-weight:normal;font-stretch:normal;font-size:medium;line-height:normal;font-family:sans-serif;font-variant-ligatures:normal;font-variant-position:normal;font-variant-caps:normal;font-variant-numeric:normal;font-variant-alternates:normal;font-feature-settings:normal;text-indent:0;text-align:start;text-decoration:none;text-decoration-line:none;text-decoration-style:solid;text-decoration-color:#000000;letter-spacing:normal;word-spacing:normal;text-transform:none;writing-mode:lr-tb;direction:ltr;text-orientation:mixed;dominant-baseline:auto;baseline-shift:baseline;text-anchor:start;white-space:normal;shape-padding:0;clip-rule:nonzero;display:inline;overflow:visible;visibility:visible;opacity:1;isolation:auto;mix-blend-mode:normal;color-interpolation:sRGB;color-interpolation-filters:linearRGB;solid-color:#000000;solid-opacity:1;vector-effect:none;fill:#000000;fill-opacity:1;fill-rule:nonzero;stroke:none;stroke-width:10.57810307;stroke-linecap:butt;stroke-linejoin:miter;stroke-miterlimit:4;stroke-dasharray:none;stroke-dashoffset:0;stroke-opacity:1;color-rendering:auto;image-rendering:auto;shape-rendering:auto;text-rendering:auto;enable-background:accumulate"
       d="m 833.211,561.86456 c -10.0408,8.30297 -25.08316,12.45845 -37.63282,14.23633 -12.54966,1.77787 -22.29101,1.31445 -22.29101,1.31445 l -0.50586,10.56445 c 0,0 10.7153,0.5156 24.28125,-1.40625 13.56595,-1.92184 30.29588,-6.14337 42.88867,-16.55664 z"
       id="path35594"
       inkscape:connector-curvature="0" />
    <path
       style="color:#000000;font-style:normal;font-variant:normal;font-weight:normal;font-stretch:normal;font-size:medium;line-height:normal;font-family:sans-serif;font-variant-ligatures:normal;font-variant-position:normal;font-variant-caps:normal;font-variant-numeric:normal;font-variant-alternates:normal;font-feature-settings:normal;text-indent:0;text-align:start;text-decoration:none;text-decoration-line:none;text-decoration-style:solid;text-decoration-color:#000000;letter-spacing:normal;word-spacing:normal;text-transform:none;writing-mode:lr-tb;direction:ltr;text-orientation:mixed;dominant-baseline:auto;baseline-shift:baseline;text-anchor:start;white-space:normal;shape-padding:0;clip-rule:nonzero;display:inline;overflow:visible;visibility:visible;opacity:1;isolation:auto;mix-blend-mode:normal;color-interpolation:sRGB;color-interpolation-filters:linearRGB;solid-color:#000000;solid-opacity:1;vector-effect:none;fill:#000000;fill-opacity:1;fill-rule:nonzero;stroke:none;stroke-width:10.57810307;stroke-linecap:butt;stroke-linejoin:miter;stroke-miterlimit:4;stroke-dasharray:none;stroke-dashoffset:0;stroke-opacity:1;color-rendering:auto;image-rendering:auto;shape-rendering:auto;text-rendering:auto;enable-background:accumulate"
       d="m 838.92779,481.17706 c -6.1577,9.23653 -7.7678,20.70528 -7.77734,20.77344 -2.90296,8.52026 -2.89652,19.47589 -2.46485,28.97265 0.44748,9.84445 1.56836,17.89844 1.56836,17.89844 l 0.006,0.043 0.008,0.041 c 3.75481,24.19767 2.8457,67.88868 2.8457,67.88868 l 10.57422,0.24414 c 0,0 1.11114,-43.46327 -2.96875,-69.75586 l 0.0137,0.084 c 0,0 -1.05547,-7.61486 -1.47852,-16.92187 -0.42304,-9.30701 0.0784,-20.46896 2.0625,-25.75977 l 0.18555,-0.49804 0.084,-0.52344 c 0,0 1.87229,-10.21374 6.14257,-16.61914 z"
       id="path35596"
       inkscape:connector-curvature="0" />
    <path
       style="color:#000000;font-style:normal;font-variant:normal;font-weight:normal;font-stretch:normal;font-size:medium;line-height:normal;font-family:sans-serif;font-variant-ligatures:normal;font-variant-position:normal;font-variant-caps:normal;font-variant-numeric:normal;font-variant-alternates:normal;font-feature-settings:normal;text-indent:0;text-align:start;text-decoration:none;text-decoration-line:none;text-decoration-style:solid;text-decoration-color:#000000;letter-spacing:normal;word-spacing:normal;text-transform:none;writing-mode:lr-tb;direction:ltr;text-orientation:mixed;dominant-baseline:auto;baseline-shift:baseline;text-anchor:start;white-space:normal;shape-padding:0;clip-rule:nonzero;display:inline;overflow:visible;visibility:visible;opacity:1;isolation:auto;mix-blend-mode:normal;color-interpolation:sRGB;color-interpolation-filters:linearRGB;solid-color:#000000;solid-opacity:1;vector-effect:none;fill:#000000;fill-opacity:1;fill-rule:nonzero;stroke:none;stroke-width:10.57810307;stroke-linecap:butt;stroke-linejoin:miter;stroke-miterlimit:4;stroke-dasharray:none;stroke-dashoffset:0;stroke-opacity:1;color-rendering:auto;image-rendering:auto;shape-rendering:auto;text-rendering:auto;enable-background:accumulate"
       d="m 952.69146,542.60675 -4.29882,1.99609 c -1.34213,0.6231 -7.02047,1.59895 -11.69727,1.88477 -4.6768,0.28581 -8.64062,0.23632 -8.64062,0.23632 l -0.13868,10.57618 c 0,0 4.30724,0.0588 9.42383,-0.25391 3.61308,-0.22081 7.47583,-0.48442 11.11328,-1.37695 1.08215,1.70295 1.61148,2.66533 3.83594,5.74804 3.59118,4.97677 7.90204,10.63446 12.9668,14.10743 l 5.98242,-8.72461 c -2.55232,-1.75016 -7.05254,-6.97332 -10.37109,-11.57227 -3.31856,-4.59895 -5.72266,-8.56641 -5.72266,-8.56641 z"
       id="path35598"
       inkscape:connector-curvature="0" />
    <path
       style="color:#000000;font-style:normal;font-variant:normal;font-weight:normal;font-stretch:normal;font-size:medium;line-height:normal;font-family:sans-serif;font-variant-ligatures:normal;font-variant-position:normal;font-variant-caps:normal;font-variant-numeric:normal;font-variant-alternates:normal;font-feature-settings:normal;text-indent:0;text-align:start;text-decoration:none;text-decoration-line:none;text-decoration-style:solid;text-decoration-color:#000000;letter-spacing:normal;word-spacing:normal;text-transform:none;writing-mode:lr-tb;direction:ltr;text-orientation:mixed;dominant-baseline:auto;baseline-shift:baseline;text-anchor:start;white-space:normal;shape-padding:0;clip-rule:nonzero;display:inline;overflow:visible;visibility:visible;opacity:1;isolation:auto;mix-blend-mode:normal;color-interpolation:sRGB;color-interpolation-filters:linearRGB;solid-color:#000000;solid-opacity:1;vector-effect:none;fill:#000000;fill-opacity:1;fill-rule:nonzero;stroke:none;stroke-width:10.57810307;stroke-linecap:butt;stroke-linejoin:miter;stroke-miterlimit:4;stroke-dasharray:none;stroke-dashoffset:0;stroke-opacity:1;color-rendering:auto;image-rendering:auto;shape-rendering:auto;text-rendering:auto;enable-background:accumulate"
       d="m 704.53912,717.69854 1.20313,7.66016 c 4.05676,25.80185 19.78672,39.49525 35.30468,38.97075 7.75899,-0.2623 15.1586,-4.2159 19.95508,-11.0547 4.79648,-6.83885 7.02634,-16.36581 5.69531,-27.81058 l -0.68359,-5.87695 -5.76563,1.33593 c -19.20379,4.45306 -48.13867,-1.55078 -48.13867,-1.55078 z m 13.27539,13.42383 c 8.96857,1.47495 24.06706,3.19209 38.61914,1.13477 -0.0728,6.55821 -1.70391,11.53871 -4.09179,14.94336 -3.02843,4.31795 -7.13203,6.40385 -11.65235,6.55665 -7.95767,0.269 -18.14543,-5.89833 -22.875,-22.63478 z"
       id="path35600"
       inkscape:connector-curvature="0" />
    <path
       style="color:#000000;font-style:normal;font-variant:normal;font-weight:normal;font-stretch:normal;font-size:medium;line-height:normal;font-family:sans-serif;font-variant-ligatures:normal;font-variant-position:normal;font-variant-caps:normal;font-variant-numeric:normal;font-variant-alternates:normal;font-feature-settings:normal;text-indent:0;text-align:start;text-decoration:none;text-decoration-line:none;text-decoration-style:solid;text-decoration-color:#000000;letter-spacing:normal;word-spacing:normal;text-transform:none;writing-mode:lr-tb;direction:ltr;text-orientation:mixed;dominant-baseline:auto;baseline-shift:baseline;text-anchor:start;white-space:normal;shape-padding:0;clip-rule:nonzero;display:inline;overflow:visible;visibility:visible;opacity:1;isolation:auto;mix-blend-mode:normal;color-interpolation:sRGB;color-interpolation-filters:linearRGB;solid-color:#000000;solid-opacity:1;vector-effect:none;fill:#000000;fill-opacity:1;fill-rule:nonzero;stroke:none;stroke-width:10.57810307;stroke-linecap:butt;stroke-linejoin:miter;stroke-miterlimit:4;stroke-dasharray:none;stroke-dashoffset:0;stroke-opacity:1;color-rendering:auto;image-rendering:auto;shape-rendering:auto;text-rendering:auto;enable-background:accumulate"
       d="m 846.18951,718.91925 -0.45898,6.47461 c -1.06632,15.04756 2.20046,26.81559 8.24414,34.92769 6.04367,8.1122 14.89608,12.3534 23.72265,12.2579 17.65316,-0.1911 33.90672,-17.6383 31.51563,-46.02348 l -0.54688,-6.51172 -6.2539,1.89258 c -21.1107,6.3888 -49.97461,-1.25977 -49.97461,-1.25977 z m 10.08008,13.48632 c 9.00353,1.90786 25.87683,4.37904 42.49805,1.15235 -0.36635,19.81173 -11.24651,28.33583 -21.1836,28.44333 -5.46213,0.059 -10.92594,-2.3612 -15.12695,-8 -3.47869,-4.66924 -5.92847,-11.85294 -6.1875,-21.59568 z"
       id="path35602"
       inkscape:connector-curvature="0" />
    <path
       style="color:#000000;font-style:normal;font-variant:normal;font-weight:normal;font-stretch:normal;font-size:medium;line-height:normal;font-family:sans-serif;font-variant-ligatures:normal;font-variant-position:normal;font-variant-caps:normal;font-variant-numeric:normal;font-variant-alternates:normal;font-feature-settings:normal;text-indent:0;text-align:start;text-decoration:none;text-decoration-line:none;text-decoration-style:solid;text-decoration-color:#000000;letter-spacing:normal;word-spacing:normal;text-transform:none;writing-mode:lr-tb;direction:ltr;text-orientation:mixed;dominant-baseline:auto;baseline-shift:baseline;text-anchor:start;white-space:normal;shape-padding:0;clip-rule:nonzero;display:inline;overflow:visible;visibility:visible;opacity:1;isolation:auto;mix-blend-mode:normal;color-interpolation:sRGB;color-interpolation-filters:linearRGB;solid-color:#000000;solid-opacity:1;vector-effect:none;fill:#000000;fill-opacity:1;fill-rule:nonzero;stroke:none;stroke-width:10.57810307;stroke-linecap:butt;stroke-linejoin:miter;stroke-miterlimit:4;stroke-dasharray:none;stroke-dashoffset:0;stroke-opacity:1;color-rendering:auto;image-rendering:auto;shape-rendering:auto;text-rendering:auto;enable-background:accumulate"
       d="m 965.80865,721.62628 -2.10156,2.8457 c -7.0822,9.58552 -9.06338,19.21325 -6.70703,27.09767 2.35635,7.8844 8.86739,13.4477 16.48633,15.3711 15.23788,3.8468 34.68321,-6.9318 40.28711,-34.90041 l 1.5352,-7.66797 -7.6875,1.42774 c -9.9638,1.85043 -19.18044,1.14235 -26.03325,-0.084 -3.42641,-0.61317 -6.25597,-1.35191 -8.29297,-1.95312 -1.0185,-0.30061 -1.83527,-0.56502 -2.45117,-0.76953 -0.61591,-0.20452 -0.59008,-0.25725 -1.60156,-0.50977 z m 4.46289,12.27344 c 0.0122,0.004 0.017,0.006 0.0293,0.01 2.32956,0.68756 5.54056,1.52578 9.42383,2.2207 5.90293,1.05636 13.38479,1.77203 21.71483,1.11915 -5.89188,17.76088 -17.50058,21.42048 -25.36327,19.43548 -4.42453,-1.117 -7.70598,-4.0107 -8.94141,-8.14447 -1.05718,-3.53736 -0.53734,-8.48688 3.13672,-14.64062 z"
       id="path35604"
       inkscape:connector-curvature="0" />
    <path
       style="color:#000000;font-style:normal;font-variant:normal;font-weight:normal;font-stretch:normal;font-size:medium;line-height:normal;font-family:sans-serif;font-variant-ligatures:normal;font-variant-position:normal;font-variant-caps:normal;font-variant-numeric:normal;font-variant-alternates:normal;font-feature-settings:normal;text-indent:0;text-align:start;text-decoration:none;text-decoration-line:none;text-decoration-style:solid;text-decoration-color:#000000;letter-spacing:normal;word-spacing:normal;text-transform:none;writing-mode:lr-tb;direction:ltr;text-orientation:mixed;dominant-baseline:auto;baseline-shift:baseline;text-anchor:start;white-space:normal;shape-padding:0;clip-rule:nonzero;display:inline;overflow:visible;visibility:visible;opacity:1;isolation:auto;mix-blend-mode:normal;color-interpolation:sRGB;color-interpolation-filters:linearRGB;solid-color:#000000;solid-opacity:1;vector-effect:none;fill:#000000;fill-opacity:1;fill-rule:nonzero;stroke:none;stroke-width:10.57810307;stroke-linecap:butt;stroke-linejoin:miter;stroke-miterlimit:4;stroke-dasharray:none;stroke-dashoffset:0;stroke-opacity:1;color-rendering:auto;image-rendering:auto;shape-rendering:auto;text-rendering:auto;enable-background:accumulate"
       d="m 1066.2637,725.97784 -1.7148,4.77344 c -5.6159,15.62499 0.9871,30.30917 12.6719,33.51567 5.8423,1.6032 12.6357,-0.3156 17.6367,-5.504 5.0009,-5.1883 8.5814,-13.27728 10.3652,-24.79878 l 1.2246,-7.91211 -7.7578,1.97851 c -13.9833,3.56435 -27.5859,-0.53906 -27.5859,-0.53906 z m 7.0938,12.80078 c 4.5847,0.89579 11.5105,1.76906 19.8066,0.89063 -1.6534,5.77625 -3.8502,9.60067 -5.9238,11.752 -2.8526,2.9594 -5.0724,3.234 -7.2207,2.6445 -3.7001,-1.0154 -8.0994,-6.55079 -6.6621,-15.28713 z"
       id="path35606"
       inkscape:connector-curvature="0" />
    <path
       style="color:#000000;font-style:normal;font-variant:normal;font-weight:normal;font-stretch:normal;font-size:medium;line-height:normal;font-family:sans-serif;font-variant-ligatures:normal;font-variant-position:normal;font-variant-caps:normal;font-variant-numeric:normal;font-variant-alternates:normal;font-feature-settings:normal;text-indent:0;text-align:start;text-decoration:none;text-decoration-line:none;text-decoration-style:solid;text-decoration-color:#000000;letter-spacing:normal;word-spacing:normal;text-transform:none;writing-mode:lr-tb;direction:ltr;text-orientation:mixed;dominant-baseline:auto;baseline-shift:baseline;text-anchor:start;white-space:normal;shape-padding:0;clip-rule:nonzero;display:inline;overflow:visible;visibility:visible;opacity:1;isolation:auto;mix-blend-mode:normal;color-interpolation:sRGB;color-interpolation-filters:linearRGB;solid-color:#000000;solid-opacity:1;vector-effect:none;fill:#000000;fill-opacity:1;fill-rule:nonzero;stroke:none;stroke-width:10.57810307;stroke-linecap:butt;stroke-linejoin:miter;stroke-miterlimit:4;stroke-dasharray:none;stroke-dashoffset:0;stroke-opacity:1;color-rendering:auto;image-rendering:auto;shape-rendering:auto;text-rendering:auto;enable-background:accumulate"
       d="m 654.85553,662.1419 -7.17774,1.92969 c 0,0 -1.61683,0.43363 -3.7539,0.7832 -2.13708,0.34957 -4.82549,0.45874 -5.72461,0.28516 l -2.00391,10.38672 c 2.41234,0.46572 4.61425,0.33774 6.68164,0.10156 -1.24412,6.33481 -3.43698,11.23962 -5.75781,14.48242 -3.09687,4.32713 -5.9391,4.94991 -6.44141,4.82813 l -2.49219,10.27929 c 6.80717,1.65035 13.02471,-2.6489 17.53516,-8.95117 4.51045,-6.30227 7.79801,-15.3549 8.60742,-26.71093 z"
       id="path35608"
       inkscape:connector-curvature="0" />
    <path
       style="color:#000000;font-style:normal;font-variant:normal;font-weight:normal;font-stretch:normal;font-size:medium;line-height:normal;font-family:sans-serif;font-variant-ligatures:normal;font-variant-position:normal;font-variant-caps:normal;font-variant-numeric:normal;font-variant-alternates:normal;font-feature-settings:normal;text-indent:0;text-align:start;text-decoration:none;text-decoration-line:none;text-decoration-style:solid;text-decoration-color:#000000;letter-spacing:normal;word-spacing:normal;text-transform:none;writing-mode:lr-tb;direction:ltr;text-orientation:mixed;dominant-baseline:auto;baseline-shift:baseline;text-anchor:start;white-space:normal;shape-padding:0;clip-rule:nonzero;display:inline;overflow:visible;visibility:visible;opacity:1;isolation:auto;mix-blend-mode:normal;color-interpolation:sRGB;color-interpolation-filters:linearRGB;solid-color:#000000;solid-opacity:1;vector-effect:none;fill:#000000;fill-opacity:1;fill-rule:nonzero;stroke:none;stroke-width:13.96879005;stroke-linecap:butt;stroke-linejoin:miter;stroke-miterlimit:4;stroke-dasharray:none;stroke-dashoffset:0;stroke-opacity:1;color-rendering:auto;image-rendering:auto;shape-rendering:auto;text-rendering:auto;enable-background:accumulate"
       d="m 338.33795,-81.463566 -6.27344,12.48243 114.78125,57.68164 6.27149,-12.48047 z"
       id="path1039-49-8"
       inkscape:connector-curvature="0" />
    <path
       style="color:#000000;font-style:normal;font-variant:normal;font-weight:normal;font-stretch:normal;font-size:medium;line-height:normal;font-family:sans-serif;font-variant-ligatures:normal;font-variant-position:normal;font-variant-caps:normal;font-variant-numeric:normal;font-variant-alternates:normal;font-feature-settings:normal;text-indent:0;text-align:start;text-decoration:none;text-decoration-line:none;text-decoration-style:solid;text-decoration-color:#000000;letter-spacing:normal;word-spacing:normal;text-transform:none;writing-mode:lr-tb;direction:ltr;text-orientation:mixed;dominant-baseline:auto;baseline-shift:baseline;text-anchor:start;white-space:normal;shape-padding:0;clip-rule:nonzero;display:inline;overflow:visible;visibility:visible;opacity:1;isolation:auto;mix-blend-mode:normal;color-interpolation:sRGB;color-interpolation-filters:linearRGB;solid-color:#000000;solid-opacity:1;vector-effect:none;fill:#000000;fill-opacity:1;fill-rule:nonzero;stroke:none;stroke-width:13.96879005;stroke-linecap:butt;stroke-linejoin:miter;stroke-miterlimit:4;stroke-dasharray:none;stroke-dashoffset:0;stroke-opacity:1;color-rendering:auto;image-rendering:auto;shape-rendering:auto;text-rendering:auto;enable-background:accumulate"
       d="m 601.09967,-81.496766 -114.7793,57.6836 6.27149,12.48046 114.78124,-57.68164 z"
       id="path1039-1-7-1"
       inkscape:connector-curvature="0" />
    <path
       style="color:#000000;font-style:normal;font-variant:normal;font-weight:normal;font-stretch:normal;font-size:medium;line-height:normal;font-family:sans-serif;font-variant-ligatures:normal;font-variant-position:normal;font-variant-caps:normal;font-variant-numeric:normal;font-variant-alternates:normal;font-feature-settings:normal;text-indent:0;text-align:start;text-decoration:none;text-decoration-line:none;text-decoration-style:solid;text-decoration-color:#000000;letter-spacing:normal;word-spacing:normal;text-transform:none;writing-mode:lr-tb;direction:ltr;text-orientation:mixed;dominant-baseline:auto;baseline-shift:baseline;text-anchor:start;white-space:normal;shape-padding:0;clip-rule:nonzero;display:inline;overflow:visible;visibility:visible;opacity:1;isolation:auto;mix-blend-mode:normal;color-interpolation:sRGB;color-interpolation-filters:linearRGB;solid-color:#000000;solid-opacity:1;vector-effect:none;fill:#000000;fill-opacity:1;fill-rule:nonzero;stroke:none;stroke-width:22.51350784;stroke-linecap:butt;stroke-linejoin:miter;stroke-miterlimit:4;stroke-dasharray:none;stroke-dashoffset:0;stroke-opacity:1;color-rendering:auto;image-rendering:auto;shape-rendering:auto;text-rendering:auto;enable-background:accumulate"
       d="m 479.50237,-217.18386 c -86.74406,-0.0184 -146.33629,34.8128 -180.61382,86.91796 -34.28393,52.114904 -43.85008,120.164564 -36.35702,187.524454 7.49305,67.359936 32.07606,134.324906 68.37243,185.181906 7.76672,10.88241 15.96876,20.93453 24.82957,30.20511 l 7.94939,-8.44337 227.06854,-15.07401 9.54669,7.28311 c 3.9484,-4.88368 7.77263,-9.94867 11.46696,-15.17336 36.08194,-51.02867 60.61357,-117.97366 68.76285,-185.166246 8.14927,-67.19264 -0.0113,-134.88201 -31.67185,-186.790494 -31.65361,-51.89817 -87.74428,-86.75139 -169.30688,-86.46506 z m 0.04,22.5123 h 0.0239 0.0239 c 75.34162,-0.27735 122.07412,29.80397 150.05079,75.67353 27.97667,45.869564 36.25016,108.792424 28.54058,172.360074 -7.70962,63.567726 -31.32983,127.534096 -64.80389,174.874516 -4.03948,5.71282 -8.21013,11.17363 -12.50212,16.36054 l 9.87575,4.53109 -227.06854,15.07401 9.07324,-6.34237 c -8.24277,-8.56145 -16.10557,-18.10579 -23.52306,-28.49882 -33.63203,-47.12385 -57.24795,-111.02012 -64.31978,-174.593356 -7.07182,-63.5732696 2.43656,-126.51899 32.78851,-172.656854 30.35192,-46.13786 80.93847,-76.81152 161.84183,-76.78236 z"
       id="path10-9-0-2-7-4"
       inkscape:connector-curvature="0"
       sodipodi:nodetypes="csssccccssscccccsssccccssscc" />
    <path
       style="color:#000000;font-style:normal;font-variant:normal;font-weight:normal;font-stretch:normal;font-size:medium;line-height:normal;font-family:sans-serif;font-variant-ligatures:normal;font-variant-position:normal;font-variant-caps:normal;font-variant-numeric:normal;font-variant-alternates:normal;font-feature-settings:normal;text-indent:0;text-align:start;text-decoration:none;text-decoration-line:none;text-decoration-style:solid;text-decoration-color:#000000;letter-spacing:normal;word-spacing:normal;text-transform:none;writing-mode:lr-tb;direction:ltr;text-orientation:mixed;dominant-baseline:auto;baseline-shift:baseline;text-anchor:start;white-space:normal;shape-padding:0;clip-rule:nonzero;display:inline;overflow:visible;visibility:visible;opacity:1;isolation:auto;mix-blend-mode:normal;color-interpolation:sRGB;color-interpolation-filters:linearRGB;solid-color:#000000;solid-opacity:1;vector-effect:none;fill:#000000;fill-opacity:1;fill-rule:nonzero;stroke:none;stroke-width:11.25675392;stroke-linecap:butt;stroke-linejoin:miter;stroke-miterlimit:4;stroke-dasharray:none;stroke-dashoffset:0;stroke-opacity:1;color-rendering:auto;image-rendering:auto;shape-rendering:auto;text-rendering:auto;enable-background:accumulate"
       d="m 397.41021,-7.4244956 c -15.17525,-0.54574 -31.04608,5.55802 -49.68359,19.3242196 l 6.6875,9.05468 C 371.89244,8.0444244 385.09053,3.3970644 397.00396,3.8255044 c 11.91344,0.42844 23.39996,6.05717 37.11914,15.8984296 l 6.5625,-9.14648 C 426.20799,0.19213436 412.58547,-6.8787556 397.41021,-7.4244956 Z"
       id="path59-1-8-7-8-3"
       inkscape:connector-curvature="0" />
    <path
       style="color:#000000;font-style:normal;font-variant:normal;font-weight:normal;font-stretch:normal;font-size:medium;line-height:normal;font-family:sans-serif;font-variant-ligatures:normal;font-variant-position:normal;font-variant-caps:normal;font-variant-numeric:normal;font-variant-alternates:normal;font-feature-settings:normal;text-indent:0;text-align:start;text-decoration:none;text-decoration-line:none;text-decoration-style:solid;text-decoration-color:#000000;letter-spacing:normal;word-spacing:normal;text-transform:none;writing-mode:lr-tb;direction:ltr;text-orientation:mixed;dominant-baseline:auto;baseline-shift:baseline;text-anchor:start;white-space:normal;shape-padding:0;clip-rule:nonzero;display:inline;overflow:visible;visibility:visible;opacity:1;isolation:auto;mix-blend-mode:normal;color-interpolation:sRGB;color-interpolation-filters:linearRGB;solid-color:#000000;solid-opacity:1;vector-effect:none;fill:#000000;fill-opacity:1;fill-rule:nonzero;stroke:none;stroke-width:11.25675392;stroke-linecap:butt;stroke-linejoin:miter;stroke-miterlimit:4;stroke-dasharray:none;stroke-dashoffset:0;stroke-opacity:1;color-rendering:auto;image-rendering:auto;shape-rendering:auto;text-rendering:auto;enable-background:accumulate"
       d="m 467.48639,53.958314 c 0,0 -1.27094,12.53041 -3.3711,25.69141 -1.05008,6.5805 -2.31455,13.31895 -3.67383,18.55468 -0.67963,2.617866 -1.39172,4.865836 -2.02929,6.416016 -0.63758,1.55018 -1.4605,2.35999 -0.86914,1.86719 -1.24564,1.03801 -2.56385,1.90389 -3.25391,4.66406 -0.34503,1.38009 -0.14857,3.4374 0.73242,4.87305 0.88099,1.43564 2.02646,2.13734 2.89258,2.54492 3.46447,1.63029 5.24402,1.00425 7.59961,0.84179 4.71118,-0.32491 9.8125,-1.375 9.8125,-1.375 l -2.20703,-11.0371 c 0,0 -2.40678,0.3058 -3.86328,0.54492 0.74657,-2.00159 1.45352,-4.09081 2.08203,-6.51172 1.51902,-5.851056 2.81254,-12.828906 3.89453,-19.609376 2.16398,-13.56094 3.45313,-26.33203 3.45312,-26.33203 z"
       id="path971-9-5-1-1"
       inkscape:connector-curvature="0" />
    <path
       style="color:#000000;font-style:normal;font-variant:normal;font-weight:normal;font-stretch:normal;font-size:medium;line-height:normal;font-family:sans-serif;font-variant-ligatures:normal;font-variant-position:normal;font-variant-caps:normal;font-variant-numeric:normal;font-variant-alternates:normal;font-feature-settings:normal;text-indent:0;text-align:start;text-decoration:none;text-decoration-line:none;text-decoration-style:solid;text-decoration-color:#000000;letter-spacing:normal;word-spacing:normal;text-transform:none;writing-mode:lr-tb;direction:ltr;text-orientation:mixed;dominant-baseline:auto;baseline-shift:baseline;text-anchor:start;white-space:normal;shape-padding:0;clip-rule:nonzero;display:inline;overflow:visible;visibility:visible;opacity:1;isolation:auto;mix-blend-mode:normal;color-interpolation:sRGB;color-interpolation-filters:linearRGB;solid-color:#000000;solid-opacity:1;vector-effect:none;fill:#000000;fill-opacity:1;fill-rule:nonzero;stroke:none;stroke-width:11.25675392;stroke-linecap:butt;stroke-linejoin:miter;stroke-miterlimit:4;stroke-dasharray:none;stroke-dashoffset:0;stroke-opacity:1;color-rendering:auto;image-rendering:auto;shape-rendering:auto;text-rendering:auto;enable-background:accumulate"
       d="m 547.51959,-8.9967656 c -15.17524,-0.54574 -31.04606,5.55805 -49.68359,19.3242196 l 6.6875,9.05469 C 522.00183,6.4721844 535.1999,1.8247944 547.11334,2.2532344 c 11.91344,0.42844 23.39997,6.05723 37.11914,15.8984396 l 6.5625,-9.1464896 c -14.47761,-10.38525 -28.10015,-17.4562 -43.27539,-18.00195 z"
       id="path59-1-8-3-2-7-1"
       inkscape:connector-curvature="0" />
    <path
       style="color:#000000;font-style:normal;font-variant:normal;font-weight:normal;font-stretch:normal;font-size:medium;line-height:normal;font-family:sans-serif;font-variant-ligatures:normal;font-variant-position:normal;font-variant-caps:normal;font-variant-numeric:normal;font-variant-alternates:normal;font-feature-settings:normal;text-indent:0;text-align:start;text-decoration:none;text-decoration-line:none;text-decoration-style:solid;text-decoration-color:#000000;letter-spacing:normal;word-spacing:normal;text-transform:none;writing-mode:lr-tb;direction:ltr;text-orientation:mixed;dominant-baseline:auto;baseline-shift:baseline;text-anchor:start;white-space:normal;shape-padding:0;clip-rule:nonzero;display:inline;overflow:visible;visibility:visible;opacity:1;isolation:auto;mix-blend-mode:normal;color-interpolation:sRGB;color-interpolation-filters:linearRGB;solid-color:#000000;solid-opacity:1;vector-effect:none;fill:#000000;fill-opacity:1;fill-rule:nonzero;stroke:none;stroke-width:11.25675392;stroke-linecap:butt;stroke-linejoin:miter;stroke-miterlimit:4;stroke-dasharray:none;stroke-dashoffset:0;stroke-opacity:1;color-rendering:auto;image-rendering:auto;shape-rendering:auto;text-rendering:auto;enable-background:accumulate"
       d="m 475.88482,168.06378 c -11.74405,-0.31745 -22.65934,1.50353 -32.48046,4.60547 -15.71381,4.96309 -28.64567,12.98032 -38.20118,20.2539 -9.55551,7.27359 -15.98713,14.06422 -17.76953,15.83008 l 7.92383,7.9961 c 2.31284,-2.29139 7.83719,-8.15168 16.66211,-14.86915 8.82492,-6.71747 20.69861,-14.03051 34.77539,-18.47656 28.15355,-8.8921 65.04222,-7.21926 107.89453,34.9668 l 7.89844,-8.02149 c -31.01944,-30.53716 -60.8662,-41.58677 -86.70313,-42.28515 z"
       id="path29-8-0-6"
       inkscape:connector-curvature="0" />
    <path
       style="color:#000000;font-style:normal;font-variant:normal;font-weight:normal;font-stretch:normal;font-size:medium;line-height:normal;font-family:sans-serif;font-variant-ligatures:normal;font-variant-position:normal;font-variant-caps:normal;font-variant-numeric:normal;font-variant-alternates:normal;font-feature-settings:normal;text-indent:0;text-align:start;text-decoration:none;text-decoration-line:none;text-decoration-style:solid;text-decoration-color:#000000;letter-spacing:normal;word-spacing:normal;text-transform:none;writing-mode:lr-tb;direction:ltr;text-orientation:mixed;dominant-baseline:auto;baseline-shift:baseline;text-anchor:start;white-space:normal;shape-padding:0;clip-rule:nonzero;display:inline;overflow:visible;visibility:visible;opacity:1;isolation:auto;mix-blend-mode:normal;color-interpolation:sRGB;color-interpolation-filters:linearRGB;solid-color:#000000;solid-opacity:1;vector-effect:none;fill:#000000;fill-opacity:1;fill-rule:nonzero;stroke:none;stroke-width:13.96879005;stroke-linecap:butt;stroke-linejoin:miter;stroke-miterlimit:4;stroke-dasharray:none;stroke-dashoffset:0;stroke-opacity:1;color-rendering:auto;image-rendering:auto;shape-rendering:auto;text-rendering:auto;enable-background:accumulate"
       d="m 769.17779,-81.463566 -6.27343,12.48243 114.78124,57.68164 6.27149,-12.48047 z"
       id="path1039-49-8-4"
       inkscape:connector-curvature="0" />
    <path
       style="color:#000000;font-style:normal;font-variant:normal;font-weight:normal;font-stretch:normal;font-size:medium;line-height:normal;font-family:sans-serif;font-variant-ligatures:normal;font-variant-position:normal;font-variant-caps:normal;font-variant-numeric:normal;font-variant-alternates:normal;font-feature-settings:normal;text-indent:0;text-align:start;text-decoration:none;text-decoration-line:none;text-decoration-style:solid;text-decoration-color:#000000;letter-spacing:normal;word-spacing:normal;text-transform:none;writing-mode:lr-tb;direction:ltr;text-orientation:mixed;dominant-baseline:auto;baseline-shift:baseline;text-anchor:start;white-space:normal;shape-padding:0;clip-rule:nonzero;display:inline;overflow:visible;visibility:visible;opacity:1;isolation:auto;mix-blend-mode:normal;color-interpolation:sRGB;color-interpolation-filters:linearRGB;solid-color:#000000;solid-opacity:1;vector-effect:none;fill:#000000;fill-opacity:1;fill-rule:nonzero;stroke:none;stroke-width:13.96879005;stroke-linecap:butt;stroke-linejoin:miter;stroke-miterlimit:4;stroke-dasharray:none;stroke-dashoffset:0;stroke-opacity:1;color-rendering:auto;image-rendering:auto;shape-rendering:auto;text-rendering:auto;enable-background:accumulate"
       d="m 1031.9395,-81.496766 -114.78124,57.6836 6.27344,12.48046 114.7793,-57.68164 z"
       id="path1039-1-7-1-2"
       inkscape:connector-curvature="0" />
    <path
       style="color:#000000;font-style:normal;font-variant:normal;font-weight:normal;font-stretch:normal;font-size:medium;line-height:normal;font-family:sans-serif;font-variant-ligatures:normal;font-variant-position:normal;font-variant-caps:normal;font-variant-numeric:normal;font-variant-alternates:normal;font-feature-settings:normal;text-indent:0;text-align:start;text-decoration:none;text-decoration-line:none;text-decoration-style:solid;text-decoration-color:#000000;letter-spacing:normal;word-spacing:normal;text-transform:none;writing-mode:lr-tb;direction:ltr;text-orientation:mixed;dominant-baseline:auto;baseline-shift:baseline;text-anchor:start;white-space:normal;shape-padding:0;clip-rule:nonzero;display:inline;overflow:visible;visibility:visible;opacity:1;isolation:auto;mix-blend-mode:normal;color-interpolation:sRGB;color-interpolation-filters:linearRGB;solid-color:#000000;solid-opacity:1;vector-effect:none;fill:#000000;fill-opacity:1;fill-rule:nonzero;stroke:none;stroke-width:22.51350784;stroke-linecap:butt;stroke-linejoin:miter;stroke-miterlimit:4;stroke-dasharray:none;stroke-dashoffset:0;stroke-opacity:1;color-rendering:auto;image-rendering:auto;shape-rendering:auto;text-rendering:auto;enable-background:accumulate"
       d="m 910.34465,-217.18386 c -86.74408,-0.0186 -146.33628,34.81279 -180.61381,86.91796 -34.28395,52.114904 -43.85007,120.164564 -36.35702,187.524454 7.49303,67.359936 32.07606,134.324866 68.37241,185.181906 32.38233,45.37276 74.77405,78.46756 123.01069,84.84248 l 2.05319,-13.1668 39.0867,0.68299 2.18457,10.90616 c 44.86254,-9.23697 84.09262,-41.43813 114.51822,-84.46735 36.082,-51.02867 60.6214,-117.97366 68.7707,-185.166246 8.1492,-67.19264 -0.011,-134.88201 -31.6719,-186.790494 -31.6536,-51.89817 -87.74424,-86.75139 -169.30687,-86.46506 z m 0.0398,22.5123 h 0.0228 0.0228 c 75.34165,-0.27735 122.06635,29.80397 150.04305,75.67353 27.9767,45.869564 36.258,108.792424 28.5484,172.360074 -7.7096,63.567726 -31.3299,127.534096 -64.8039,174.874516 -28.29774,40.0199 -63.03817,67.67276 -100.83433,75.43327 l 2.51099,11.1293 -39.0867,-0.68299 c 0,0 2.15659,-8.99994 1.64611,-9.06428 -40.58204,-5.11317 -78.17164,-33.36268 -108.381,-75.69085 -33.63419,-47.12385 -57.25797,-111.02012 -64.32978,-174.593356 -7.07183,-63.5732696 2.43653,-126.51899 32.78845,-172.656854 30.35197,-46.13787 80.94631,-76.81152 161.84972,-76.78236 z"
       id="path10-9-0-2-7-4-1"
       inkscape:connector-curvature="0"
       sodipodi:nodetypes="csssccccssccccccssscccccsscc" />
    <path
       style="color:#000000;font-style:normal;font-variant:normal;font-weight:normal;font-stretch:normal;font-size:medium;line-height:normal;font-family:sans-serif;font-variant-ligatures:normal;font-variant-position:normal;font-variant-caps:normal;font-variant-numeric:normal;font-variant-alternates:normal;font-feature-settings:normal;text-indent:0;text-align:start;text-decoration:none;text-decoration-line:none;text-decoration-style:solid;text-decoration-color:#000000;letter-spacing:normal;word-spacing:normal;text-transform:none;writing-mode:lr-tb;direction:ltr;text-orientation:mixed;dominant-baseline:auto;baseline-shift:baseline;text-anchor:start;white-space:normal;shape-padding:0;clip-rule:nonzero;display:inline;overflow:visible;visibility:visible;opacity:1;isolation:auto;mix-blend-mode:normal;color-interpolation:sRGB;color-interpolation-filters:linearRGB;solid-color:#000000;solid-opacity:1;vector-effect:none;fill:#000000;fill-opacity:1;fill-rule:nonzero;stroke:none;stroke-width:11.25675392;stroke-linecap:butt;stroke-linejoin:miter;stroke-miterlimit:4;stroke-dasharray:none;stroke-dashoffset:0;stroke-opacity:1;color-rendering:auto;image-rendering:auto;shape-rendering:auto;text-rendering:auto;enable-background:accumulate"
       d="m 828.2481,-7.4244956 c -15.17524,-0.54574 -31.04413,5.55802 -49.68164,19.3242196 l 6.6875,9.05468 C 802.73227,8.0444244 815.93037,3.3970644 827.84381,3.8255044 c 11.91343,0.42844 23.39996,6.05717 37.11914,15.8984296 l 6.56055,-9.14648 C 857.04588,0.19213436 843.42335,-6.8787556 828.2481,-7.4244956 Z"
       id="path59-1-8-7-8-3-4"
       inkscape:connector-curvature="0" />
    <path
       style="color:#000000;font-style:normal;font-variant:normal;font-weight:normal;font-stretch:normal;font-size:medium;line-height:normal;font-family:sans-serif;font-variant-ligatures:normal;font-variant-position:normal;font-variant-caps:normal;font-variant-numeric:normal;font-variant-alternates:normal;font-feature-settings:normal;text-indent:0;text-align:start;text-decoration:none;text-decoration-line:none;text-decoration-style:solid;text-decoration-color:#000000;letter-spacing:normal;word-spacing:normal;text-transform:none;writing-mode:lr-tb;direction:ltr;text-orientation:mixed;dominant-baseline:auto;baseline-shift:baseline;text-anchor:start;white-space:normal;shape-padding:0;clip-rule:nonzero;display:inline;overflow:visible;visibility:visible;opacity:1;isolation:auto;mix-blend-mode:normal;color-interpolation:sRGB;color-interpolation-filters:linearRGB;solid-color:#000000;solid-opacity:1;vector-effect:none;fill:#000000;fill-opacity:1;fill-rule:nonzero;stroke:none;stroke-width:11.25675392;stroke-linecap:butt;stroke-linejoin:miter;stroke-miterlimit:4;stroke-dasharray:none;stroke-dashoffset:0;stroke-opacity:1;color-rendering:auto;image-rendering:auto;shape-rendering:auto;text-rendering:auto;enable-background:accumulate"
       d="m 898.32428,53.958314 c 0,0 -1.26899,12.5304 -3.36914,25.69141 -1.05008,6.5805 -2.31456,13.31895 -3.67383,18.55468 -0.67964,2.617866 -1.39173,4.865836 -2.0293,6.416016 -0.63757,1.55018 -1.4605,2.36 -0.86914,1.86719 -1.24564,1.038 -2.56382,1.90391 -3.25391,4.66406 -0.34504,1.38007 -0.14856,3.43737 0.73243,4.87305 0.88098,1.43567 2.02645,2.13734 2.89257,2.54492 3.46449,1.63031 5.24207,1.00425 7.59766,0.84179 4.71118,-0.32491 9.81445,-1.375 9.81445,-1.375 l -2.20703,-11.0371 c 0,0 -2.40678,0.3058 -3.86328,0.54492 0.74657,-2.00159 1.45353,-4.09081 2.08203,-6.51172 1.51902,-5.851046 2.81255,-12.828906 3.89453,-19.609376 2.16398,-13.56094 3.45313,-26.33203 3.45313,-26.33203 z"
       id="path971-9-5-1-1-8"
       inkscape:connector-curvature="0" />
    <path
       style="color:#000000;font-style:normal;font-variant:normal;font-weight:normal;font-stretch:normal;font-size:medium;line-height:normal;font-family:sans-serif;font-variant-ligatures:normal;font-variant-position:normal;font-variant-caps:normal;font-variant-numeric:normal;font-variant-alternates:normal;font-feature-settings:normal;text-indent:0;text-align:start;text-decoration:none;text-decoration-line:none;text-decoration-style:solid;text-decoration-color:#000000;letter-spacing:normal;word-spacing:normal;text-transform:none;writing-mode:lr-tb;direction:ltr;text-orientation:mixed;dominant-baseline:auto;baseline-shift:baseline;text-anchor:start;white-space:normal;shape-padding:0;clip-rule:nonzero;display:inline;overflow:visible;visibility:visible;opacity:1;isolation:auto;mix-blend-mode:normal;color-interpolation:sRGB;color-interpolation-filters:linearRGB;solid-color:#000000;solid-opacity:1;vector-effect:none;fill:#000000;fill-opacity:1;fill-rule:nonzero;stroke:none;stroke-width:11.25675392;stroke-linecap:butt;stroke-linejoin:miter;stroke-miterlimit:4;stroke-dasharray:none;stroke-dashoffset:0;stroke-opacity:1;color-rendering:auto;image-rendering:auto;shape-rendering:auto;text-rendering:auto;enable-background:accumulate"
       d="m 978.35748,-8.9967656 c -15.17524,-0.54574 -31.04412,5.55805 -49.68164,19.3242196 l 6.6875,9.05469 C 952.84167,6.4721844 966.03975,1.8247944 977.95318,2.2532344 c 11.91343,0.42844 23.40002,6.05723 37.11912,15.8984396 l 6.5606,-9.1464896 c -14.4776,-10.38525 -28.10018,-17.4562 -43.27542,-18.00195 z"
       id="path59-1-8-3-2-7-1-7"
       inkscape:connector-curvature="0" />
    <path
       style="color:#000000;font-style:normal;font-variant:normal;font-weight:normal;font-stretch:normal;font-size:medium;line-height:normal;font-family:sans-serif;font-variant-ligatures:normal;font-variant-position:normal;font-variant-caps:normal;font-variant-numeric:normal;font-variant-alternates:normal;font-feature-settings:normal;text-indent:0;text-align:start;text-decoration:none;text-decoration-line:none;text-decoration-style:solid;text-decoration-color:#000000;letter-spacing:normal;word-spacing:normal;text-transform:none;writing-mode:lr-tb;direction:ltr;text-orientation:mixed;dominant-baseline:auto;baseline-shift:baseline;text-anchor:start;white-space:normal;shape-padding:0;clip-rule:nonzero;display:inline;overflow:visible;visibility:visible;opacity:1;isolation:auto;mix-blend-mode:normal;color-interpolation:sRGB;color-interpolation-filters:linearRGB;solid-color:#000000;solid-opacity:1;vector-effect:none;fill:#000000;fill-opacity:1;fill-rule:nonzero;stroke:none;stroke-width:11.25721645;stroke-linecap:butt;stroke-linejoin:miter;stroke-miterlimit:4;stroke-dasharray:none;stroke-dashoffset:0;stroke-opacity:1;color-rendering:auto;image-rendering:auto;shape-rendering:auto;text-rendering:auto;enable-background:accumulate"
       d="m 906.72467,168.06378 c -11.74408,-0.31745 -22.66128,1.50353 -32.48242,4.60547 -15.71384,4.9631 -28.64565,12.97835 -38.20118,20.25195 -9.55552,7.2736 -15.9852,14.0662 -17.76757,15.83203 l 7.92187,7.9961 c 2.31287,-2.29141 7.83915,-8.15169 16.66406,-14.86915 8.82491,-6.71745 20.6967,-14.03052 34.77344,-18.47656 28.15348,-8.89207 65.04422,-7.21922 107.89649,34.9668 l 7.89648,-8.02149 c -31.01948,-30.53719 -60.8642,-41.58676 -86.70117,-42.28515 z"
       id="path29-8-0-6-9"
       inkscape:connector-curvature="0" />
    <path
       style="color:#000000;font-style:normal;font-variant:normal;font-weight:normal;font-stretch:normal;font-size:medium;line-height:normal;font-family:sans-serif;font-variant-ligatures:normal;font-variant-position:normal;font-variant-caps:normal;font-variant-numeric:normal;font-variant-alternates:normal;font-feature-settings:normal;text-indent:0;text-align:start;text-decoration:none;text-decoration-line:none;text-decoration-style:solid;text-decoration-color:#000000;letter-spacing:normal;word-spacing:normal;text-transform:none;writing-mode:lr-tb;direction:ltr;text-orientation:mixed;dominant-baseline:auto;baseline-shift:baseline;text-anchor:start;white-space:normal;shape-padding:0;clip-rule:nonzero;display:inline;overflow:visible;visibility:visible;opacity:1;isolation:auto;mix-blend-mode:normal;color-interpolation:sRGB;color-interpolation-filters:linearRGB;solid-color:#000000;solid-opacity:1;vector-effect:none;fill:#000000;fill-opacity:1;fill-rule:nonzero;stroke:none;stroke-width:10.57810307;stroke-linecap:butt;stroke-linejoin:miter;stroke-miterlimit:4;stroke-dasharray:none;stroke-dashoffset:0;stroke-opacity:1;color-rendering:auto;image-rendering:auto;shape-rendering:auto;text-rendering:auto;enable-background:accumulate"
       d="m 904.9317,249.24933 -4.72656,12.91601 c -16.9345,46.26608 -18.19246,90.20339 -18.2168,102.71289 h -29.11133 l 54.28125,60.42578 54.10938,-60.42578 h -28.29883 c -0.62944,-12.00655 -4.02639,-56.10001 -22.89258,-102.875 z m 0.53125,31.14257 c 15.95425,46.98464 17.23242,89.90625 17.23242,89.90625 l 0.12695,5.15821 h 14.77344 l -30.44922,34.0039 -30.54687,-34.0039 h 16.07812 l -0.15234,-5.4375 c 0,0 -0.97239,-42.95897 12.9375,-89.62696 z"
       id="path17671"
       inkscape:connector-curvature="0" />
    <path
       style="color:#000000;font-style:normal;font-variant:normal;font-weight:normal;font-stretch:normal;font-size:medium;line-height:normal;font-family:sans-serif;font-variant-ligatures:normal;font-variant-position:normal;font-variant-caps:normal;font-variant-numeric:normal;font-variant-alternates:normal;font-feature-settings:normal;text-indent:0;text-align:start;text-decoration:none;text-decoration-line:none;text-decoration-style:solid;text-decoration-color:#000000;letter-spacing:normal;word-spacing:normal;text-transform:none;writing-mode:lr-tb;direction:ltr;text-orientation:mixed;dominant-baseline:auto;baseline-shift:baseline;text-anchor:start;white-space:normal;shape-padding:0;clip-rule:nonzero;display:inline;overflow:visible;visibility:visible;opacity:1;isolation:auto;mix-blend-mode:normal;color-interpolation:sRGB;color-interpolation-filters:linearRGB;solid-color:#000000;solid-opacity:1;vector-effect:none;fill:#000000;fill-opacity:1;fill-rule:nonzero;stroke:none;stroke-width:11.25721645;stroke-linecap:butt;stroke-linejoin:miter;stroke-miterlimit:4;stroke-dasharray:none;stroke-dashoffset:0;stroke-opacity:1;color-rendering:auto;image-rendering:auto;shape-rendering:auto;text-rendering:auto;enable-background:accumulate"
       d="m 942.23053,182.65557 -11.25782,0.0215 c 0.0323,17.25753 -3.98811,29.65132 -9.4414,37.43945 -5.45329,7.78814 -12.08337,11.0444 -18.4961,11.00586 -6.41272,-0.0385 -13.1053,-3.4035 -18.58789,-11.23437 -5.48258,-7.83088 -9.51757,-20.17743 -9.51757,-37.22266 h -11.25782 c 0,18.80961 4.39532,33.45662 11.55274,43.67969 7.15741,10.22307 17.31486,15.97248 27.74414,16.03515 10.42927,0.0627 20.63242,-5.59339 27.78515,-15.80859 7.15274,-10.2152 11.51218,-24.91384 11.47657,-43.91602 z"
       id="path37012"
       inkscape:connector-curvature="0" />
    <path
       style="color:#000000;font-style:normal;font-variant:normal;font-weight:normal;font-stretch:normal;font-size:medium;line-height:normal;font-family:sans-serif;font-variant-ligatures:normal;font-variant-position:normal;font-variant-caps:normal;font-variant-numeric:normal;font-variant-alternates:normal;font-feature-settings:normal;text-indent:0;text-align:start;text-decoration:none;text-decoration-line:none;text-decoration-style:solid;text-decoration-color:#000000;letter-spacing:normal;word-spacing:normal;text-transform:none;writing-mode:lr-tb;direction:ltr;text-orientation:mixed;dominant-baseline:auto;baseline-shift:baseline;text-anchor:start;white-space:normal;shape-padding:0;clip-rule:nonzero;display:inline;overflow:visible;visibility:visible;opacity:1;isolation:auto;mix-blend-mode:normal;color-interpolation:sRGB;color-interpolation-filters:linearRGB;solid-color:#000000;solid-opacity:1;vector-effect:none;fill:#000000;fill-opacity:1;fill-rule:nonzero;stroke:none;stroke-width:5.28905153;stroke-linecap:butt;stroke-linejoin:miter;stroke-miterlimit:4;stroke-dasharray:none;stroke-dashoffset:0;stroke-opacity:1;color-rendering:auto;image-rendering:auto;shape-rendering:auto;text-rendering:auto;enable-background:accumulate"
       d="m 900.21881,179.11651 v 38.08203 h 5.28906 v -38.08203 z"
       id="path37014"
       inkscape:connector-curvature="0" />
    <path
       style="font-style:normal;font-weight:normal;font-size:233.33332825px;line-height:1.25;font-family:sans-serif;letter-spacing:0px;word-spacing:0px;fill:#000000;fill-opacity:1;stroke:none"
       d="m 833.52734,837.27187 -25.97656,43.1817 h 17.66016 l 20.96289,-29.168 21.07812,29.168 h 18.11524 l -25.97657,-43.1817 z m -503.46679,20.166 v 22.2168 h 24.15429 v -22.2168 z m 834.21285,0 v 22.2168 h 24.1543 v -22.2168 z M 0,858.57857 V 1028.2233 H 21.07617 V 876.46527 l 80.4375,151.75803 h 27.91211 V 858.57857 H 108.34961 V 997.11962 L 34.97656,858.57857 Z m 619.10742,0 61.75195,169.64473 h 30.07813 l 61.75,-169.64473 H 749.67383 L 696.4668,1007.8287 643.26172,858.57857 Z m 611.01958,5.8105 v 36.5723 h -14.4707 v 18 h 14.4707 v 67.67585 c 0,15.41888 3.3786,26.62348 10.1386,33.61138 6.76,6.9878 16.6348,10.4805 29.6231,10.4805 3.7218,0 7.9373,-0.3417 12.6465,-1.0253 4.7851,-0.6837 9.1911,-1.5558 13.2167,-2.6192 v -19.2559 h -1.1406 c -1.671,0.6836 -4.4053,1.5577 -8.2031,2.6211 -3.7977,0.9874 -7.4436,1.4804 -10.9375,1.4804 -6.0004,0 -10.4811,-0.6836 -13.4434,-2.0508 -2.8862,-1.4431 -5.1649,-3.6824 -6.8359,-6.7207 -1.8229,-3.266 -2.8856,-6.76068 -3.1894,-10.48248 -0.3039,-3.7977 -0.4571,-9.0386 -0.4571,-15.7227 v -57.99215 h 44.207 v -18 h -44.207 v -36.5723 z m -1007.50395,33.0391 c -18.00131,0 -32.31945,6.0384 -42.95313,18.1152 -10.55772,12.0009 -15.83594,28.3698 -15.83594,49.10555 0,20.7357 5.27822,37.10468 15.83594,49.10548 10.63368,12.001 24.95182,18.0001 42.95313,18.0001 17.84939,0 32.09093,-5.9991 42.72461,-18.0001 10.63368,-12.0008 15.95117,-28.36978 15.95117,-49.10548 0,-20.73575 -5.31749,-37.10465 -15.95117,-49.10555 -10.63368,-12.0768 -24.87522,-18.1152 -42.72461,-18.1152 z m 221.93945,0 c -18.0013,0 -32.31749,6.0384 -42.95117,18.1152 -10.55773,12.0009 -15.83789,28.3698 -15.83789,49.10555 0,20.7357 5.28016,37.10468 15.83789,49.10548 10.63368,12.001 24.94987,18.0001 42.95117,18.0001 17.84939,0 32.09093,-5.9991 42.72461,-18.0001 10.63368,-12.0008 15.95117,-28.36978 15.95117,-49.10548 0,-20.73575 -5.31749,-37.10465 -15.95117,-49.10555 -10.63368,-12.0768 -24.87522,-18.1152 -42.72461,-18.1152 z m 401.95312,0 c -18.0013,0 -32.31749,6.0384 -42.95117,18.1152 -10.55772,12.0009 -15.83789,28.3698 -15.83789,49.10555 0,20.7357 5.28017,37.10468 15.83789,49.10548 10.63368,12.001 24.94987,18.0001 42.95117,18.0001 17.8494,0 32.09093,-5.9991 42.72461,-18.0001 10.63368,-12.0008 15.95118,-28.36978 15.95118,-49.10548 0,-20.73575 -5.3175,-37.10465 -15.95118,-49.10555 -10.63368,-12.0768 -24.87521,-18.1152 -42.72461,-18.1152 z m 154.60748,0 c -7.51958,0 -14.62267,1.5577 -21.30669,4.6719 -6.60808,3.1141 -13.25348,7.4435 -19.9375,12.9882 v -14.1269 h -21.41993 v 127.26193 h 21.41993 v -95.01973 c 5.84852,-4.4814 11.69639,-8.1645 17.54492,-11.0508 5.92448,-2.8863 11.81163,-4.3301 17.66015,-4.3301 6.15232,0 10.86092,0.8349 14.12692,2.5059 3.2661,1.595 5.7726,4.0269 7.5196,7.2929 1.595,3.0382 2.6204,7.1005 3.0761,12.1895 0.5317,5.013 0.7989,10.3305 0.7989,15.9512 v 72.46113 h 21.4179 v -81.46113 c 0,-2.2787 -0.075,-4.5573 -0.2265,-6.836 -0.1519,-2.3546 -0.3425,-4.4054 -0.5703,-6.1523 6.0004,-4.6333 12.0015,-8.4323 18.0019,-11.3946 6.0005,-3.0381 11.9996,-4.5566 18,-4.5566 6.1524,0 10.8629,0.8349 14.1289,2.5059 3.2661,1.671 5.7726,4.1402 7.5196,7.4062 1.595,3.0382 2.6204,7.1024 3.0761,12.1914 0.5317,5.089 0.7969,10.3672 0.7969,15.836 v 72.46113 h 21.4199 v -82.60183 c 0,-15.1909 -3.3433,-27.0006 -10.0273,-35.4316 -6.6081,-8.5069 -16.8993,-12.7617 -30.875,-12.7617 -8.1272,0 -15.7607,1.6343 -22.9004,4.9004 -7.1398,3.1901 -15.0384,8.431 -23.6973,15.7226 -2.9622,-6.4561 -7.4822,-11.5084 -13.5586,-15.1543 -6.0004,-3.6458 -13.3294,-5.4687 -21.9882,-5.4687 z m 370.3925,0 c -18.0013,0 -32.3175,6.0384 -42.9512,18.1152 -10.5577,12.0009 -15.8378,28.3698 -15.8378,49.10555 0,20.7357 5.2801,37.10468 15.8378,49.10548 10.6337,12.001 24.9499,18.0001 42.9512,18.0001 17.8494,0 32.091,-5.9991 42.7246,-18.0001 10.6337,-12.0008 15.9512,-28.36978 15.9512,-49.10548 0,-20.73575 -5.3175,-37.10465 -15.9512,-49.10555 -10.6336,-12.0768 -24.8752,-18.1152 -42.7246,-18.1152 z m -1066.63279,3.5332 v 18 h 26.54492 v 102.53913 c 0,6.1525 -0.26519,11.356 -0.79687,15.6095 -0.45573,4.3293 -1.51845,8.0126 -3.18945,11.0508 -1.67101,3.0382 -4.17752,5.3167 -7.51954,6.8359 -3.34201,1.5191 -7.74804,2.2793 -13.21679,2.2793 -3.41797,0 -6.94987,-0.5324 -10.59571,-1.5958 -3.56987,-1.0632 -6.41818,-2.012 -8.54492,-2.8475 h -1.13867 v 20.3945 c 3.34201,0.9115 7.4809,1.6697 12.41797,2.2773 5.01302,0.6077 9.03798,0.9122 12.07617,0.9122 12.76042,0 22.93967,-3.7972 30.53516,-11.3926 7.59548,-7.5955 11.39258,-18.8376 11.39258,-33.7246 V 900.96137 Z m 860.75779,0 v 127.26193 h 21.42 V 900.96137 Z m -943.01755,14.9238 c 11.46918,0 20.43251,4.0269 26.88867,12.0781 6.45616,7.9753 9.68359,20.2034 9.68359,36.68565 0,16.1024 -3.26671,28.2558 -9.79883,36.45918 -6.45616,8.127 -15.3802,12.1894 -26.77343,12.1894 -11.54514,0 -20.54579,-4.1015 -27.00196,-12.3048 -6.45616,-8.27908 -9.68359,-20.39328 -9.68359,-36.34378 0,-16.48225 3.1901,-28.71035 9.57031,-36.68565 6.45616,-8.0512 15.49414,-12.0781 27.11524,-12.0781 z m 221.93945,0 c 11.46918,0 20.43251,4.0269 26.88867,12.0781 6.45616,7.9753 9.6836,20.2034 9.6836,36.68565 0,16.1024 -3.26476,28.2558 -9.79688,36.45918 -6.45616,8.127 -15.38216,12.1894 -26.77539,12.1894 -11.54514,0 -20.54579,-4.1015 -27.00195,-12.3048 -6.45617,-8.27908 -9.6836,-20.39328 -9.6836,-36.34378 0,-16.48225 3.19011,-28.71035 9.57032,-36.68565 6.45616,-8.0512 15.49414,-12.0781 27.11523,-12.0781 z m 401.95312,0 c 11.46919,0 20.43251,4.0269 26.88868,12.0781 6.45616,7.9753 9.68359,20.2034 9.68359,36.68565 0,16.1024 -3.26476,28.2558 -9.79687,36.45918 -6.45617,8.127 -15.38217,12.1894 -26.7754,12.1894 -11.54513,0 -20.54579,-4.1015 -27.00195,-12.3048 -6.45616,-8.27908 -9.68359,-20.39328 -9.68359,-36.34378 0,-16.48225 3.1901,-28.71035 9.57031,-36.68565 6.45616,-8.0512 15.49414,-12.0781 27.11523,-12.0781 z m 524.99998,0 c 11.4692,0 20.4325,4.0269 26.8887,12.0781 6.4562,7.9753 9.6836,20.2034 9.6836,36.68565 0,16.1024 -3.2648,28.2558 -9.7969,36.45918 -6.4561,8.127 -15.3821,12.1894 -26.7754,12.1894 -11.5451,0 -20.5458,-4.1015 -27.0019,-12.3048 -6.4562,-8.27908 -9.6836,-20.39328 -9.6836,-36.34378 0,-16.48225 3.1901,-28.71035 9.5703,-36.68565 6.4562,-8.0512 15.4941,-12.0781 27.1152,-12.0781 z m -838.65427,27.8008 v 20.62115 h 71.09375 v -20.62115 z"
       id="text10776"
       inkscape:connector-curvature="0" />
  </g>
</svg>
