<?xml version="1.0" encoding="UTF-8" standalone="no"?>
<!-- Created with Inkscape (http://www.inkscape.org/) -->

<svg
   xmlns:dc="http://purl.org/dc/elements/1.1/"
   xmlns:cc="http://creativecommons.org/ns#"
   xmlns:rdf="http://www.w3.org/1999/02/22-rdf-syntax-ns#"
   xmlns:svg="http://www.w3.org/2000/svg"
   xmlns="http://www.w3.org/2000/svg"
   xmlns:sodipodi="http://sodipodi.sourceforge.net/DTD/sodipodi-0.dtd"
   xmlns:inkscape="http://www.inkscape.org/namespaces/inkscape"
   width="1000"
   height="1250"
   viewBox="0 0 1000 1250"
   version="1.1"
   id="svg2515"
   inkscape:version="0.92.4 (5da689c313, 2019-01-14)"
   sodipodi:docname="Preguiçoso.svg">
  <defs
     id="defs2509" />
  <sodipodi:namedview
     id="base"
     pagecolor="#ffffff"
     bordercolor="#666666"
     borderopacity="1.0"
     inkscape:pageopacity="0.0"
     inkscape:pageshadow="2"
     inkscape:zoom="0.25"
     inkscape:cx="1754.9522"
     inkscape:cy="654.18427"
     inkscape:document-units="px"
     inkscape:current-layer="layer1"
     showgrid="false"
     units="px"
     inkscape:window-width="1366"
     inkscape:window-height="715"
     inkscape:window-x="-8"
     inkscape:window-y="-8"
     inkscape:window-maximized="1" />
  <metadata
     id="metadata2512">
    <rdf:RDF>
      <cc:Work
         rdf:about="">
        <dc:format>image/svg+xml</dc:format>
        <dc:type
           rdf:resource="http://purl.org/dc/dcmitype/StillImage" />
        <dc:title></dc:title>
      </cc:Work>
    </rdf:RDF>
  </metadata>
  <g
     inkscape:label="Camada 1"
     inkscape:groupmode="layer"
     id="layer1"
     transform="translate(0,33.729184)">
    <path
       style="fill:none;stroke:#000000;stroke-width:19.98514557;stroke-linecap:butt;stroke-linejoin:miter;stroke-miterlimit:4;stroke-dasharray:none;stroke-opacity:1"
       d="m 900.85295,814.49777 c 0,0 -7.80071,-56.4314 -23.24361,-79.00407 0,0 -39.84831,-90.46135 -19.08543,-202.74289 0,0 1.53801,-49.1425 8.01846,-71.88576 0,0 6.97063,-66.69253 2.14214,-99.01386 0,0 -2.47678,-50.14689 -1.05118,-67.63009 0,0 2.9317,-39.15399 2.64229,-85.0726 0,0 5.13062,-79.41124 18.37808,-92.98054 0,0 30.91608,-34.84527 58.98056,8.84292 7.44234,19.46952 7.17624,31.35004 4.08229,62.16167 0,0 -1.29735,71.777 1.09421,91.17686 0,0 5.65961,52.48759 6.49814,67.23513 0,0 37.75318,-37.47858 78.5336,2.85162 0,0 43.5193,-58.48094 95.1388,1.99816 0,0 29.9339,-62.17744 88.9222,-14.54286 0,0 27.1548,16.94388 38.0177,66.33354 0,0 9.5825,68.04849 21.2108,99.43946 11.6283,31.39099 13.5932,42.48815 13.5932,42.48815 0,0 0.9259,17.19332 26.4382,6.28974 0,0 97.4263,-47.2222 133.3998,-74.9324 0,0 47.0786,-34.45053 103.1842,-19.88196 2.9392,-0.36235 9.6958,1.192 26.1483,3.93826 0,0 39.5805,11.23443 43.6471,39.37996 0,0 -1.2724,13.88347 -12.8126,17.09651 0,0 -34.8376,7.87554 -52.5465,9.46183 0,0 -36.4642,14.04413 -53.5289,25.69676 0,0 -14.3507,14.3021 -21.3327,15.75963 0,0 -10.1551,9.60721 -29.2731,19.12571 0,0 -56.7989,47.585 -71.4475,64.31107 0,0 -40.1047,37.76847 -76.9396,53.64871 0,0 -86.265,50.62068 -94.5277,70.73714"
       id="path2528"
       inkscape:connector-curvature="0"
       sodipodi:nodetypes="ccccccccccccccccscccccccccccccc" />
    <path
       style="fill:none;stroke:#000000;stroke-width:19.98514557;stroke-linecap:butt;stroke-linejoin:miter;stroke-miterlimit:4;stroke-dasharray:none;stroke-opacity:1"
       d="m 1132.9813,350.43432 c 0,0 1.715,28.43542 8.423,58.64256 0,0 3.8733,12.05547 4.1389,28.73339 0,0 4.0989,9.04361 7.6262,8.6088"
       id="path2530"
       inkscape:connector-curvature="0" />
    <path
       style="fill:none;stroke:#000000;stroke-width:19.98514557;stroke-linecap:butt;stroke-linejoin:miter;stroke-miterlimit:4;stroke-dasharray:none;stroke-opacity:1"
       d="m 1037.8425,348.43616 c 0,0 -8.3996,14.16524 -2.3846,62.95887 0.6362,14.84181 -3.2134,32.02702 6.6194,39.17021"
       id="path2532"
       inkscape:connector-curvature="0" />
    <path
       style="fill:none;stroke:#000000;stroke-width:19.98514557;stroke-linecap:butt;stroke-linejoin:miter;stroke-miterlimit:4;stroke-dasharray:none;stroke-opacity:1"
       d="m 959.3089,345.58454 c 0,0 1.56149,75.60222 -11.29168,116.57611"
       id="path2534"
       inkscape:connector-curvature="0" />
    <path
       style="fill:none;stroke:#000000;stroke-width:19.98514557;stroke-linecap:butt;stroke-linejoin:miter;stroke-miterlimit:4;stroke-dasharray:none;stroke-opacity:1"
       d="m 948.58543,606.04979 c 0,0 42.78748,11.60563 68.27577,-7.57279"
       id="path2536"
       inkscape:connector-curvature="0" />
    <path
       style="fill:none;stroke:#000000;stroke-width:19.98514557;stroke-linecap:butt;stroke-linejoin:miter;stroke-miterlimit:4;stroke-dasharray:none;stroke-opacity:1"
       d="m 1058.5326,594.18388 c 0,0 42.685,10.7742 71.4987,-8.81415"
       id="path2538"
       inkscape:connector-curvature="0" />
    <path
       style="fill:none;stroke:#000000;stroke-width:19.98514557;stroke-linecap:butt;stroke-linejoin:miter;stroke-miterlimit:4;stroke-dasharray:none;stroke-opacity:1"
       d="m 1294.7252,544.15261 c 0.5031,6.50286 18.3163,29.96969 23.3531,70.827"
       id="path2540"
       inkscape:connector-curvature="0" />
    <path
       style="fill:none;stroke:#000000;stroke-width:19.98514557;stroke-linecap:butt;stroke-linejoin:miter;stroke-miterlimit:4;stroke-dasharray:none;stroke-opacity:1"
       d="m 1202.3844,562.94603 c 0,0 37.8106,5.46704 63.5153,-18.80216"
       id="path2542"
       inkscape:connector-curvature="0" />
    <path
       style="fill:none;stroke:#000000;stroke-width:19.98514557;stroke-linecap:butt;stroke-linejoin:miter;stroke-miterlimit:4;stroke-dasharray:none;stroke-opacity:1"
       d="m 939.41682,131.15554 c 0,0 -11.138,-18.46127 -46.95006,-7.71638 -5.81147,34.55944 40.32227,54.11656 46.95006,7.71638 z"
       id="path2544"
       inkscape:connector-curvature="0"
       sodipodi:nodetypes="ccc" />
    <path
       style="fill:none;stroke:#000000;stroke-width:19.98514557;stroke-linecap:butt;stroke-linejoin:miter;stroke-miterlimit:4;stroke-dasharray:none;stroke-opacity:1"
       d="m 1549.3191,530.07453 c 0,0 -7.0262,-15.8445 18.9167,-20.83312 0,0 24.5459,-4.21953 38.3728,8.69775"
       id="path2546"
       inkscape:connector-curvature="0" />
    <path
       inkscape:connector-curvature="0"
       id="path10-9-09-4-6-4-4-6-4-4-7-1-0-8-1-2-6-2-4-1-2-4-8-0-6-3-8-9-8-6-4-6-2-3-1-6-2-8"
       d="M 401.60911,-33.528039 C 242.79191,-33.594655 133.68739,30.188602 70.9339,125.59503 8.1750805,220.97747 -9.3369703,345.55154 4.3805675,468.85711 18.097573,592.16612 63.103188,714.74968 129.54702,807.84714 195.98949,900.94462 285.4442,965.80041 387.19129,965.20219 488.8921,964.59064 577.61922,899.05801 643.66973,805.64743 709.72063,712.23422 754.63793,589.70261 769.5575,466.70537 784.47441,343.70493 769.51753,219.78102 711.57792,124.75564 653.62767,29.731609 550.93932,-34.054315 401.60911,-33.528039 Z m 0.0373,41.2120351 h 0.0492 0.0492 C 539.66326,7.1830353 625.20874,62.24611 676.42135,146.21705 c 51.2126,83.96824 66.36401,199.1573 52.25049,315.51601 C 714.5597,578.09524 671.32384,695.18954 610.04712,781.85447 548.76959,868.51405 470.99514,923.4812 386.97465,923.98615 303.0038,924.48045 224.68576,870.17415 163.12072,783.90627 101.55382,697.64505 58.315413,580.67598 45.369702,464.29783 32.424125,347.92579 49.833451,232.6941 105.39495,148.23288 160.95659,63.767646 253.56269,7.6373641 401.66347,7.6839961 Z"
       style="color:#000000;font-style:normal;font-variant:normal;font-weight:normal;font-stretch:normal;font-size:medium;line-height:normal;font-family:sans-serif;font-variant-ligatures:normal;font-variant-position:normal;font-variant-caps:normal;font-variant-numeric:normal;font-variant-alternates:normal;font-feature-settings:normal;text-indent:0;text-align:start;text-decoration:none;text-decoration-line:none;text-decoration-style:solid;text-decoration-color:#000000;letter-spacing:normal;word-spacing:normal;text-transform:none;writing-mode:lr-tb;direction:ltr;text-orientation:mixed;dominant-baseline:auto;baseline-shift:baseline;text-anchor:start;white-space:normal;shape-padding:0;clip-rule:nonzero;display:inline;overflow:visible;visibility:visible;opacity:1;isolation:auto;mix-blend-mode:normal;color-interpolation:sRGB;color-interpolation-filters:linearRGB;solid-color:#000000;solid-opacity:1;vector-effect:none;fill:#000000;fill-opacity:1;fill-rule:nonzero;stroke:none;stroke-width:41.21273804;stroke-linecap:butt;stroke-linejoin:miter;stroke-miterlimit:4;stroke-dasharray:none;stroke-dashoffset:0;stroke-opacity:1;color-rendering:auto;image-rendering:auto;shape-rendering:auto;text-rendering:auto;enable-background:accumulate" />
    <path
       inkscape:connector-curvature="0"
       id="path971-95-7-3-8-8-4-0-5-4-4-3-3-8-3-3-7-4-8-7-3-1-2-0-0-8-1-8-0-4-0-9-8-6-9-7-6"
       d="m 379.5621,462.81094 c 0,0 -2.3224,22.94959 -6.16754,47.0397 -1.92204,12.04703 -4.23871,24.38187 -6.72739,33.95876 -1.24321,4.80243 -2.54545,8.92069 -3.71218,11.74927 -1.16687,2.83122 -2.67481,4.32477 -1.59255,3.41479 -2.27951,1.90525 -4.69652,3.49206 -5.95877,8.55364 -0.63206,2.51812 -0.26967,6.282 1.343,8.90805 1.61267,2.63005 3.71058,3.90775 5.29513,4.6632 6.34262,2.98312 9.59859,1.82396 13.91113,1.54418 8.62483,-0.60222 17.96336,-2.52479 17.96336,-2.52479 l -4.03992,-20.20232 c 0,0 -4.40526,0.56624 -7.07021,0.9966 1.36698,-3.66395 2.65708,-7.48111 3.80783,-11.92581 2.7794,-10.69271 5.14791,-23.46989 7.12924,-35.88466 3.96132,-24.83221 6.32089,-48.20684 6.32089,-48.20684 z"
       style="color:#000000;font-style:normal;font-variant:normal;font-weight:normal;font-stretch:normal;font-size:medium;line-height:normal;font-family:sans-serif;font-variant-ligatures:normal;font-variant-position:normal;font-variant-caps:normal;font-variant-numeric:normal;font-variant-alternates:normal;font-feature-settings:normal;text-indent:0;text-align:start;text-decoration:none;text-decoration-line:none;text-decoration-style:solid;text-decoration-color:#000000;letter-spacing:normal;word-spacing:normal;text-transform:none;writing-mode:lr-tb;direction:ltr;text-orientation:mixed;dominant-baseline:auto;baseline-shift:baseline;text-anchor:start;white-space:normal;shape-padding:0;clip-rule:nonzero;display:inline;overflow:visible;visibility:visible;opacity:1;isolation:auto;mix-blend-mode:normal;color-interpolation:sRGB;color-interpolation-filters:linearRGB;solid-color:#000000;solid-opacity:1;vector-effect:none;fill:#000000;fill-opacity:1;fill-rule:nonzero;stroke:none;stroke-width:20.60636902;stroke-linecap:butt;stroke-linejoin:miter;stroke-miterlimit:4;stroke-dasharray:none;stroke-dashoffset:0;stroke-opacity:1;color-rendering:auto;image-rendering:auto;shape-rendering:auto;text-rendering:auto;enable-background:accumulate" />
    <path
       style="fill:none;stroke:#000000;stroke-width:19.98514557;stroke-linecap:butt;stroke-linejoin:miter;stroke-miterlimit:4;stroke-dasharray:none;stroke-opacity:1"
       d="m 2437.8996,864.09983 c 0,0 -16.5136,-54.52198 -35.2906,-74.4074 0,0 -53.4805,-83.13236 -50.4987,-197.27855 0,0 -6.1517,-48.78018 -3.3009,-72.25622 0,0 -3.525,-66.96308 -13.3397,-98.13455 0,0 -10.2739,-49.14557 -11.5949,-66.63697 0,0 -3.2159,-39.13168 -10.6696,-84.44223 0,0 -7.3279,-79.23871 3.6391,-94.70951 0,0 25.0979,-39.244 59.6379,-0.47209 10.3901,18.06918 11.9817,29.84561 13.7351,60.7625 0,0 9.9228,71.09966 15.3134,89.88841 0,0 13.7833,50.96077 16.9135,65.39665 0,0 31.44,-42.91225 78.0158,-9.44203 0,0 33.8574,-64.55722 94.2846,-12.87703 0,0 19.8615,-66.08781 85.5622,-28.24491 0,0 29.4667,12.49749 47.9062,59.58603 0,0 20.0869,65.71859 36.4725,94.90967 16.3859,29.1911 20.0588,39.84553 20.0588,39.84553 0,0 3.5983,16.83802 27.0958,2.08574 0,0 88.8611,-61.85112 120.0682,-94.83693 0,0 41.124,-41.37697 98.8159,-35.74476 2.8468,-0.81673 9.763,-0.3361 26.4424,-0.19164 0,0 40.8492,4.91836 49.2592,32.08416 0,0 0.9102,13.9119 -9.9868,18.88691 0,0 -33.1812,13.21697 -50.4253,17.54805 0,0 -33.8254,19.56391 -48.8619,33.73739 0,0 -11.9422,16.36689 -18.6111,18.89641 0,0 -8.5309,11.07457 -25.9291,23.46065 0,0 -48.6745,55.8677 -60.5329,74.67531 0,0 -33.7175,43.56566 -67.6221,65.00099 0,0 -77.3059,63.46571 -82.3273,84.62535"
       id="path2528-5"
       inkscape:connector-curvature="0"
       sodipodi:nodetypes="ccccccccccccccccscccccccccccccc" />
    <path
       style="fill:none;stroke:#000000;stroke-width:19.98514557;stroke-linecap:butt;stroke-linejoin:miter;stroke-miterlimit:4;stroke-dasharray:none;stroke-opacity:1"
       d="m 2594.7446,369.49081 c 0,0 6.1329,27.81914 17.4736,56.60896 0,0 5.7075,11.30305 8.5734,27.73507 0,0 5.4603,8.29296 8.8764,7.31289"
       id="path2530-2"
       inkscape:connector-curvature="0" />
    <path
       style="fill:none;stroke:#000000;stroke-width:19.98514557;stroke-linecap:butt;stroke-linejoin:miter;stroke-miterlimit:4;stroke-dasharray:none;stroke-opacity:1"
       d="m 2500.46,382.36784 c 0,0 -6.0853,15.30275 7.4725,62.55931 2.945,14.56061 1.8252,32.13605 12.6523,37.65684"
       id="path2532-8"
       inkscape:connector-curvature="0" />
    <path
       style="fill:none;stroke:#000000;stroke-width:19.98514557;stroke-linecap:butt;stroke-linejoin:miter;stroke-miterlimit:4;stroke-dasharray:none;stroke-opacity:1"
       d="m 2422.4442,391.80987 c 0,0 13.3434,74.43175 7.0436,116.9097"
       id="path2534-1"
       inkscape:connector-curvature="0" />
    <path
       style="fill:none;stroke:#000000;stroke-width:19.98514557;stroke-linecap:butt;stroke-linejoin:miter;stroke-miterlimit:4;stroke-dasharray:none;stroke-opacity:1"
       d="m 2452.5095,650.75621 c 0,0 44.0745,4.78448 66.2566,-18.13745"
       id="path2536-2"
       inkscape:connector-curvature="0" />
    <path
       style="fill:none;stroke:#000000;stroke-width:19.98514557;stroke-linecap:butt;stroke-linejoin:miter;stroke-miterlimit:4;stroke-dasharray:none;stroke-opacity:1"
       d="m 2559.2566,621.87355 c 0,0 43.8436,3.97923 69.2465,-19.86666"
       id="path2538-8"
       inkscape:connector-curvature="0" />
    <path
       style="fill:none;stroke:#000000;stroke-width:19.98514557;stroke-linecap:butt;stroke-linejoin:miter;stroke-miterlimit:4;stroke-dasharray:none;stroke-opacity:1"
       d="m 2784.7443,535.58713 c 1.5121,6.34458 22.7699,26.7432 34.1224,66.31348"
       id="path2540-9"
       inkscape:connector-curvature="0" />
    <path
       style="fill:none;stroke:#000000;stroke-width:19.98514557;stroke-linecap:butt;stroke-linejoin:miter;stroke-miterlimit:4;stroke-dasharray:none;stroke-opacity:1"
       d="m 2696.4691,568.56407 c 0,0 38.2005,-0.50203 59.8017,-28.4861"
       id="path2542-9"
       inkscape:connector-curvature="0" />
    <path
       style="fill:none;stroke:#000000;stroke-width:19.98514557;stroke-linecap:butt;stroke-linejoin:miter;stroke-miterlimit:4;stroke-dasharray:none;stroke-opacity:1"
       d="m 2369.3246,183.11438 c 0,0 -13.8832,-16.49639 -47.5789,-0.29314 -0.3457,35.04298 48.2752,47.15912 47.5789,0.29314 z"
       id="path2544-3"
       inkscape:connector-curvature="0"
       sodipodi:nodetypes="ccc" />
    <path
       style="fill:none;stroke:#000000;stroke-width:19.98514557;stroke-linecap:butt;stroke-linejoin:miter;stroke-miterlimit:4;stroke-dasharray:none;stroke-opacity:1"
       d="m 3034.02,481.94075 c 0,0 -9.4134,-14.5535 15.433,-23.53054 0,0 23.5861,-7.99931 39.2601,2.6013"
       id="path2546-9"
       inkscape:connector-curvature="0" />
    <path
       inkscape:connector-curvature="0"
       id="path10-9-09-4-6-4-4-6-4-4-7-1-0-8-1-2-6-2-4-1-2-4-8-0-6-3-8-9-8-6-4-6-2-3-1-6-2-8-3"
       d="m 2038.1785,-32.463511 c -158.8173,-0.06661 -267.9219,63.716643 -330.6754,159.123081 -62.7588,95.38244 -80.2708,219.95653 -66.5533,343.26207 13.717,123.30902 58.7226,245.89258 125.1664,338.99005 66.4426,93.09747 155.8973,157.95325 257.6444,157.35502 101.7008,-0.61154 190.4278,-66.14415 256.4783,-159.55472 30.2762,-42.81844 56.112,-91.75491 76.6538,-144.04992 l -4.7824,-70.24819 -4.7306,-424.31722 20.1025,-6.20827 c -5.8194,-12.41783 -12.2565,-24.45869 -19.335,-36.06819 -57.9504,-95.024062 -160.6387,-158.809985 -309.9687,-158.283711 z m 0.037,41.2120362 h 0.05 0.049 c 137.9182,-0.5009617 223.4637,54.5621118 274.6763,138.5330548 3.6029,5.90728 7.0273,11.96907 10.2756,18.17492 l 24.1135,2.64016 4.7306,424.31722 -5.0914,-33.30975 c -21.2559,82.65654 -56.118,161.18224 -100.4026,223.81487 -61.2776,86.65959 -139.0518,141.62674 -223.0723,142.1317 -83.971,0.4943 -162.289,-53.81201 -223.8541,-140.07989 -61.5666,-86.26122 -104.805,-203.23027 -117.7507,-319.60844 -12.9456,-116.37204 4.4637,-231.60373 60.0252,-316.06496 C 1797.5263,64.832173 1890.1323,8.7018933 2038.2332,8.7485252 Z"
       style="color:#000000;font-style:normal;font-variant:normal;font-weight:normal;font-stretch:normal;font-size:medium;line-height:normal;font-family:sans-serif;font-variant-ligatures:normal;font-variant-position:normal;font-variant-caps:normal;font-variant-numeric:normal;font-variant-alternates:normal;font-feature-settings:normal;text-indent:0;text-align:start;text-decoration:none;text-decoration-line:none;text-decoration-style:solid;text-decoration-color:#000000;letter-spacing:normal;word-spacing:normal;text-transform:none;writing-mode:lr-tb;direction:ltr;text-orientation:mixed;dominant-baseline:auto;baseline-shift:baseline;text-anchor:start;white-space:normal;shape-padding:0;clip-rule:nonzero;display:inline;overflow:visible;visibility:visible;opacity:1;isolation:auto;mix-blend-mode:normal;color-interpolation:sRGB;color-interpolation-filters:linearRGB;solid-color:#000000;solid-opacity:1;vector-effect:none;fill:#000000;fill-opacity:1;fill-rule:nonzero;stroke:none;stroke-width:41.21273804;stroke-linecap:butt;stroke-linejoin:miter;stroke-miterlimit:4;stroke-dasharray:none;stroke-dashoffset:0;stroke-opacity:1;color-rendering:auto;image-rendering:auto;shape-rendering:auto;text-rendering:auto;enable-background:accumulate"
       sodipodi:nodetypes="ccccccccccccccccccccccccccc" />
    <path
       inkscape:connector-curvature="0"
       id="path971-95-7-3-8-8-4-0-5-4-4-3-3-8-3-3-7-4-8-7-3-1-2-0-0-8-1-8-0-4-0-9-8-6-9-7-6-6"
       d="m 2016.1315,463.87547 c 0,0 -2.3226,22.94961 -6.1676,47.0397 -1.9222,12.04705 -4.2388,24.38189 -6.7275,33.95876 -1.2432,4.80244 -2.5455,8.92071 -3.7122,11.74927 -1.1669,2.83123 -2.6748,4.32479 -1.5925,3.4148 -2.2795,1.90524 -4.6965,3.49208 -5.9588,8.55365 -0.632,2.51812 -0.2696,6.28198 1.3431,8.90804 1.6125,2.63004 3.7106,3.90777 5.295,4.6632 6.3426,2.98311 9.5986,1.82398 13.9112,1.54419 8.6249,-0.60223 17.9634,-2.52479 17.9634,-2.52479 l -4.0399,-20.20232 c 0,0 -4.4053,0.56624 -7.0703,0.99658 1.3671,-3.66393 2.6571,-7.4811 3.808,-11.9258 2.7793,-10.69272 5.1478,-23.46989 7.1291,-35.88467 3.9613,-24.83219 6.321,-48.20681 6.321,-48.20681 z"
       style="color:#000000;font-style:normal;font-variant:normal;font-weight:normal;font-stretch:normal;font-size:medium;line-height:normal;font-family:sans-serif;font-variant-ligatures:normal;font-variant-position:normal;font-variant-caps:normal;font-variant-numeric:normal;font-variant-alternates:normal;font-feature-settings:normal;text-indent:0;text-align:start;text-decoration:none;text-decoration-line:none;text-decoration-style:solid;text-decoration-color:#000000;letter-spacing:normal;word-spacing:normal;text-transform:none;writing-mode:lr-tb;direction:ltr;text-orientation:mixed;dominant-baseline:auto;baseline-shift:baseline;text-anchor:start;white-space:normal;shape-padding:0;clip-rule:nonzero;display:inline;overflow:visible;visibility:visible;opacity:1;isolation:auto;mix-blend-mode:normal;color-interpolation:sRGB;color-interpolation-filters:linearRGB;solid-color:#000000;solid-opacity:1;vector-effect:none;fill:#000000;fill-opacity:1;fill-rule:nonzero;stroke:none;stroke-width:20.60636902;stroke-linecap:butt;stroke-linejoin:miter;stroke-miterlimit:4;stroke-dasharray:none;stroke-dashoffset:0;stroke-opacity:1;color-rendering:auto;image-rendering:auto;shape-rendering:auto;text-rendering:auto;enable-background:accumulate" />
    <path
       style="fill:none;stroke:#000000;stroke-width:15;stroke-linecap:butt;stroke-linejoin:miter;stroke-miterlimit:4;stroke-dasharray:none;stroke-opacity:1"
       d="m 1004.0425,199.90047 324.5511,-86.96321 -14.4939,-54.091842 120.025,69.296462 -68.5893,118.80025 -12.1645,-45.39851 -323.5852,86.70439 z"
       id="path3172"
       inkscape:connector-curvature="0" />
    <path
       style="fill:none;stroke:#000000;stroke-width:15;stroke-linecap:butt;stroke-linejoin:miter;stroke-miterlimit:4;stroke-dasharray:none;stroke-opacity:1"
       d="m 2858.1328,164.79615 -324.5511,86.96321 14.4939,54.09184 -120.025,-69.29646 68.5893,-118.80025 12.1645,45.39851 323.5852,-86.70439 z"
       id="path3172-8"
       inkscape:connector-curvature="0"
       inkscape:transform-center-x="-11.76391"
       inkscape:transform-center-y="-184.22166" />
    <path
       style="font-style:normal;font-weight:normal;font-size:233.33332825px;line-height:1.25;font-family:sans-serif;letter-spacing:0px;word-spacing:0px;fill:#000000;fill-opacity:1;stroke:none"
       d="M 1633.8086 1075.0215 L 1633.8086 1097.2383 L 1657.9609 1097.2383 L 1657.9609 1075.0215 L 1633.8086 1075.0215 z M 964 1076.1621 L 964 1245.8066 L 986.55859 1245.8066 L 986.55859 1182.5742 L 1009.1172 1182.5742 C 1021.27 1182.5742 1031.3333 1181.1304 1039.3086 1178.2441 C 1047.2839 1175.2819 1054.1964 1170.8778 1060.0449 1165.0293 C 1064.7541 1160.3201 1068.4 1154.7747 1070.9824 1148.3945 C 1073.6408 1141.9384 1074.9707 1134.9512 1074.9707 1127.4316 C 1074.9707 1117.5575 1073.1851 1109.3917 1069.6152 1102.9355 C 1066.1213 1096.4794 1061.1456 1091.0872 1054.6895 1086.7578 C 1049.2207 1083.112 1042.9544 1080.4523 1035.8906 1078.7812 C 1028.8268 1077.0343 1020.2072 1076.1621 1010.0293 1076.1621 L 964 1076.1621 z M 986.55859 1095.5293 L 1008.8887 1095.5293 C 1016.0284 1095.5293 1021.9156 1096.0616 1026.5488 1097.125 C 1031.258 1098.1124 1035.4362 1099.7841 1039.082 1102.1387 C 1043.2595 1104.873 1046.373 1108.4049 1048.4238 1112.7344 C 1050.4746 1117.0638 1051.5 1122.1515 1051.5 1128 C 1051.5 1133.013 1050.7398 1137.533 1049.2207 1141.5586 C 1047.7776 1145.5842 1045.2711 1149.4206 1041.7012 1153.0664 C 1038.1313 1156.6363 1033.4993 1159.2567 1027.8027 1160.9277 C 1022.1061 1162.5228 1014.7005 1163.3203 1005.5859 1163.3203 L 986.55859 1163.3203 L 986.55859 1095.5293 z M 1255.7812 1115.0117 C 1237.2483 1115.0117 1222.2839 1121.1267 1210.8906 1133.3555 C 1199.5734 1145.5842 1193.916 1162.1044 1193.916 1182.916 C 1193.916 1203.9555 1199.8405 1220.2105 1211.6895 1231.6797 C 1223.5384 1243.0729 1240.0193 1248.7695 1261.1348 1248.7695 C 1269.4138 1248.7695 1277.3145 1247.7441 1284.834 1245.6934 C 1292.3535 1243.6426 1299.7198 1241.0968 1306.9355 1238.0586 L 1306.9355 1214.7031 L 1305.7969 1214.7031 C 1302.0751 1218.0451 1295.8088 1221.4631 1286.998 1224.957 C 1278.2632 1228.375 1269.5671 1230.084 1260.9082 1230.084 C 1254.3761 1230.084 1248.375 1229.1725 1242.9062 1227.3496 C 1237.5135 1225.5267 1232.8422 1222.7923 1228.8926 1219.1465 C 1224.791 1215.4247 1221.5636 1210.6769 1219.209 1204.9043 C 1216.8544 1199.0558 1215.6758 1192.2198 1215.6758 1184.3965 L 1309.4434 1184.3965 L 1309.4434 1172.7754 C 1309.4434 1154.3184 1304.7721 1140.0768 1295.4297 1130.0508 C 1286.1632 1120.0247 1272.947 1115.0117 1255.7812 1115.0117 z M 1389.4238 1115.0117 C 1382.436 1115.0117 1375.4095 1116.5321 1368.3457 1119.5703 C 1361.2819 1122.5326 1355.2808 1126.7088 1350.3438 1132.1016 C 1345.0269 1137.8741 1340.8114 1144.7493 1337.6973 1152.7246 C 1334.6591 1160.6239 1333.1406 1170.041 1333.1406 1180.9785 C 1333.1406 1200.9546 1337.584 1216.4494 1346.4707 1227.4629 C 1355.4334 1238.4004 1367.5102 1243.8691 1382.7012 1243.8691 C 1391.8158 1243.8691 1399.298 1242.6159 1405.1465 1240.1094 C 1411.071 1237.5269 1417.2606 1233.6532 1423.7168 1228.4883 L 1423.7168 1240.1094 C 1423.7168 1245.2743 1423.1471 1249.9455 1422.0078 1254.123 C 1420.8685 1258.3006 1418.969 1261.8717 1416.3105 1264.834 C 1413.6521 1267.9481 1409.9316 1270.378 1405.1465 1272.125 C 1400.3613 1273.872 1394.3229 1274.7461 1387.0312 1274.7461 C 1379.4358 1274.7461 1371.8396 1273.7207 1364.2441 1271.6699 C 1356.6487 1269.6951 1351.1033 1268.0234 1347.6094 1266.6562 L 1346.4707 1266.6562 L 1346.4707 1288.5312 C 1352.699 1290.2782 1359.0026 1291.6081 1365.3828 1292.5195 C 1371.839 1293.5069 1378.447 1294 1385.207 1294 C 1405.5629 1294 1420.6413 1288.9497 1430.4395 1278.8477 C 1440.2376 1268.7457 1445.1367 1252.9091 1445.1367 1231.3379 L 1445.1367 1118.5449 L 1425.084 1118.5449 L 1423.7168 1124.0137 C 1418.1721 1120.9755 1412.8939 1118.7342 1407.8809 1117.291 C 1402.9438 1115.7719 1396.7914 1115.0117 1389.4238 1115.0117 z M 1870.6738 1115.0117 C 1852.6725 1115.0117 1838.3544 1121.0501 1827.7207 1133.127 C 1817.163 1145.1278 1811.8848 1161.4967 1811.8848 1182.2324 C 1811.8848 1202.9681 1817.163 1219.337 1827.7207 1231.3379 C 1838.3544 1243.3388 1852.6725 1249.3379 1870.6738 1249.3379 C 1888.5232 1249.3379 1902.7648 1243.3388 1913.3984 1231.3379 C 1924.0321 1219.337 1929.3477 1202.9681 1929.3477 1182.2324 C 1929.3477 1161.4967 1924.0321 1145.1278 1913.3984 1133.127 C 1902.7648 1121.0501 1888.5232 1115.0117 1870.6738 1115.0117 z M 2134.084 1115.0117 C 2116.0827 1115.0117 2101.7665 1121.0501 2091.1328 1133.127 C 2080.5751 1145.1278 2075.2949 1161.4967 2075.2949 1182.2324 C 2075.2949 1202.9681 2080.5751 1219.337 2091.1328 1231.3379 C 2101.7665 1243.3388 2116.0827 1249.3379 2134.084 1249.3379 C 2151.9334 1249.3379 2166.1749 1243.3388 2176.8086 1231.3379 C 2187.4423 1219.337 2192.7598 1202.9681 2192.7598 1182.2324 C 2192.7598 1161.4967 2187.4423 1145.1278 2176.8086 1133.127 C 2166.1749 1121.0501 2151.9334 1115.0117 2134.084 1115.0117 z M 2006.0254 1115.4688 C 1997.8982 1115.4688 1990.5299 1116.5315 1983.9219 1118.6582 C 1977.3898 1120.709 1971.9976 1123.52 1967.7441 1127.0898 C 1963.3388 1130.7357 1960.0347 1134.8746 1957.832 1139.5078 C 1955.7053 1144.1411 1954.6406 1149.0775 1954.6406 1154.3184 C 1954.6406 1162.6734 1956.9586 1169.7372 1961.5918 1175.5098 C 1966.301 1181.2064 1974.237 1185.5358 1985.4023 1188.498 C 1989.428 1189.5614 1993.8713 1190.5495 1998.7324 1191.4609 C 2003.6695 1192.3724 2007.6571 1193.1699 2010.6953 1193.8535 C 2018.8984 1195.6764 2024.4438 1197.8785 2027.3301 1200.4609 C 2030.2164 1203.0434 2031.6602 1206.8424 2031.6602 1211.8555 C 2031.6602 1218.3876 2029.0004 1223.1727 2023.6836 1226.2109 C 2018.3668 1229.2491 2011.0004 1230.7676 2001.582 1230.7676 C 1993.9865 1230.7676 1986.0486 1229.2865 1977.7695 1226.3242 C 1969.4905 1223.286 1961.9709 1219.2218 1955.2109 1214.1328 L 1954.0723 1214.1328 L 1954.0723 1238.1738 C 1959.3891 1240.8322 1965.9579 1243.2995 1973.7812 1245.5781 C 1981.6806 1247.7808 1990.3394 1248.8828 1999.7578 1248.8828 C 2016.3919 1248.8828 2029.4941 1245.1604 2039.0645 1237.7168 C 2048.7107 1230.2732 2053.5352 1220.7422 2053.5352 1209.1211 C 2053.5352 1199.8546 2050.8381 1192.4097 2045.4453 1186.7891 C 2040.0525 1181.2444 2032.3817 1177.3333 2022.4316 1175.0547 C 2019.1656 1174.2951 2015.064 1173.4603 2010.127 1172.5488 C 2005.2658 1171.6374 2000.8598 1170.7259 1996.9102 1169.8145 C 1989.7704 1168.1434 1984.6061 1165.9787 1981.416 1163.3203 C 1978.15 1160.6619 1976.5156 1156.7116 1976.5156 1151.4707 C 1976.5156 1145.5462 1979.2127 1141.1029 1984.6055 1138.1406 C 1989.9983 1135.1024 1996.6063 1133.584 2004.4297 1133.584 C 2011.9492 1133.584 2019.62 1134.9885 2027.4434 1137.7988 C 2035.2667 1140.5332 2041.9141 1143.9138 2047.3828 1147.9395 L 2048.5215 1147.9395 L 2048.5215 1125.0391 C 2043.3566 1122.3806 2036.8624 1120.1393 2029.0391 1118.3164 C 2021.2917 1116.4175 2013.6209 1115.4688 2006.0254 1115.4688 z M 1752.5254 1115.582 C 1733.7645 1115.582 1718.6489 1121.5065 1707.1797 1133.3555 C 1695.7865 1145.2044 1690.0898 1161.5341 1690.0898 1182.3457 C 1690.0898 1193.5111 1691.6102 1203.2719 1694.6484 1211.627 C 1697.6866 1219.982 1701.9768 1226.8945 1707.5215 1232.3633 C 1712.9902 1237.832 1719.561 1241.9336 1727.2324 1244.668 C 1734.9039 1247.3264 1743.3349 1248.6543 1752.5254 1248.6543 C 1754.4243 1248.6543 1755.9054 1248.5796 1756.9688 1248.4277 C 1758.1081 1248.2758 1759.2847 1248.1226 1760.5 1247.9707 C 1760.6519 1249.4898 1760.7658 1251.1241 1760.8418 1252.8711 C 1760.9937 1254.6181 1761.0703 1256.327 1761.0703 1257.998 C 1761.0703 1264.6821 1759.2101 1269.5046 1755.4883 1272.4668 C 1751.7665 1275.429 1745.9559 1276.9102 1738.0566 1276.9102 C 1734.2589 1276.9102 1730.6877 1276.4171 1727.3457 1275.4297 C 1724.0037 1274.4423 1721.3459 1273.5681 1719.3711 1272.8086 L 1718.3457 1272.8086 L 1718.3457 1291.0371 C 1721.7637 1291.9486 1725.6747 1292.6714 1730.0801 1293.2031 C 1734.4855 1293.7348 1738.094 1294 1740.9043 1294 C 1751.9937 1294 1760.9944 1290.7333 1767.9062 1284.2012 C 1774.8941 1277.6691 1778.3887 1268.252 1778.3887 1255.9473 C 1778.3887 1253.8205 1778.2747 1251.6558 1778.0469 1249.4531 C 1777.895 1247.3264 1777.7044 1245.5408 1777.4766 1244.0977 C 1779.6793 1243.4141 1782.2231 1242.5026 1785.1094 1241.3633 C 1788.0716 1240.148 1790.806 1238.9714 1793.3125 1237.832 L 1793.3125 1214.248 L 1792.1738 1214.248 C 1790.5788 1215.5393 1788.4141 1217.0951 1785.6797 1218.918 C 1782.9453 1220.6649 1780.0204 1222.3366 1776.9062 1223.9316 C 1773.3364 1225.7546 1769.3114 1227.2357 1764.8301 1228.375 C 1760.3487 1229.5143 1755.9427 1230.084 1751.6133 1230.084 C 1739.1567 1230.084 1729.4724 1225.9824 1722.5605 1217.7793 C 1715.7246 1209.5002 1712.3066 1197.6886 1712.3066 1182.3457 C 1712.3066 1166.5471 1715.8012 1154.5842 1722.7891 1146.457 C 1729.8529 1138.2539 1739.4605 1134.1523 1751.6133 1134.1523 C 1758.2214 1134.1523 1764.9826 1135.5195 1771.8945 1138.2539 C 1778.8824 1140.9883 1785.6417 1144.9013 1792.1738 1149.9902 L 1793.3125 1149.9902 L 1793.3125 1126.1777 C 1787.464 1123.2155 1781.0091 1120.709 1773.9453 1118.6582 C 1766.9575 1116.6074 1759.8171 1115.582 1752.5254 1115.582 z M 1103.1113 1118.5449 L 1103.1113 1245.8066 L 1124.5312 1245.8066 L 1124.5312 1155.459 C 1130.2279 1150.8257 1136.1523 1147.066 1142.3047 1144.1797 C 1148.457 1141.2174 1154.8372 1139.7363 1161.4453 1139.7363 C 1165.5469 1139.7363 1169.0788 1139.9249 1172.041 1140.3047 C 1175.0792 1140.6085 1178.1927 1141.1408 1181.3828 1141.9004 L 1182.5215 1141.9004 L 1182.5215 1119.9121 C 1179.1795 1119.3804 1176.673 1119.0386 1175.002 1118.8867 C 1173.3309 1118.6589 1170.6359 1118.5449 1166.9141 1118.5449 C 1160.1541 1118.5449 1153.5067 1119.9868 1146.9746 1122.873 C 1140.5184 1125.6834 1133.0382 1130.5078 1124.5312 1137.3438 L 1124.5312 1118.5449 L 1103.1113 1118.5449 z M 1486.3789 1118.5449 L 1486.3789 1201.1445 C 1486.3789 1216.9431 1490.1013 1228.9453 1497.5449 1237.1484 C 1504.9885 1245.2756 1515.3937 1249.3379 1528.7617 1249.3379 C 1536.737 1249.3379 1544.0286 1247.8194 1550.6367 1244.7812 C 1557.2448 1241.7431 1564.1573 1237.3763 1571.373 1231.6797 L 1571.373 1245.8066 L 1592.793 1245.8066 L 1592.793 1118.5449 L 1571.373 1118.5449 L 1571.373 1213.5645 C 1565.6764 1218.0458 1559.5241 1221.7289 1552.916 1224.6152 C 1546.3839 1227.5015 1540.3455 1228.9453 1534.8008 1228.9453 C 1528.5725 1228.9453 1523.8247 1228.1851 1520.5586 1226.666 C 1517.2925 1225.1469 1514.6348 1222.717 1512.584 1219.375 C 1510.6092 1216.1089 1509.3186 1212.196 1508.7109 1207.6387 C 1508.1033 1203.0054 1507.7988 1197.462 1507.7988 1191.0059 L 1507.7988 1118.5449 L 1486.3789 1118.5449 z M 1635.1758 1118.5449 L 1635.1758 1245.8066 L 1656.5938 1245.8066 L 1656.5938 1118.5449 L 1635.1758 1118.5449 z M 1254.6406 1132.6719 C 1266.0339 1132.6719 1274.5041 1135.748 1280.0488 1141.9004 C 1285.6695 1148.0527 1288.5178 1156.7489 1288.5938 1167.9902 L 1215.6758 1167.9902 C 1216.5872 1157.9642 1220.4236 1149.5725 1227.1836 1142.8125 C 1234.0195 1136.0525 1243.1714 1132.6719 1254.6406 1132.6719 z M 1870.6738 1133.4688 C 1882.143 1133.4688 1891.1044 1137.4957 1897.5605 1145.5469 C 1904.0167 1153.5221 1907.2461 1165.7502 1907.2461 1182.2324 C 1907.2461 1198.3349 1903.9794 1210.4883 1897.4473 1218.6914 C 1890.9911 1226.8186 1882.0671 1230.8809 1870.6738 1230.8809 C 1859.1287 1230.8809 1850.128 1226.7793 1843.6719 1218.5762 C 1837.2157 1210.2971 1833.9863 1198.1829 1833.9863 1182.2324 C 1833.9863 1165.7502 1837.1764 1153.5221 1843.5566 1145.5469 C 1850.0128 1137.4957 1859.0527 1133.4688 1870.6738 1133.4688 z M 2134.084 1133.4688 C 2145.5532 1133.4688 2154.5165 1137.4957 2160.9727 1145.5469 C 2167.4288 1153.5221 2170.6562 1165.7502 2170.6562 1182.2324 C 2170.6562 1198.3349 2167.3915 1210.4883 2160.8594 1218.6914 C 2154.4032 1226.8186 2145.4772 1230.8809 2134.084 1230.8809 C 2122.5388 1230.8809 2113.5382 1226.7793 2107.082 1218.5762 C 2100.6259 1210.2971 2097.3984 1198.1829 2097.3984 1182.2324 C 2097.3984 1165.7502 2100.5885 1153.5221 2106.9688 1145.5469 C 2113.4249 1137.4957 2122.4629 1133.4688 2134.084 1133.4688 z M 1393.1836 1134.2676 C 1398.0447 1134.2676 1402.9045 1134.8372 1407.7656 1135.9766 C 1412.7027 1137.0399 1418.0202 1138.8628 1423.7168 1141.4453 L 1423.7168 1210.8301 C 1418.4759 1214.8557 1412.7027 1218.0831 1406.3984 1220.5137 C 1400.1701 1222.8683 1393.9431 1224.0449 1387.7148 1224.0449 C 1376.0938 1224.0449 1367.7767 1220.3618 1362.7637 1212.9941 C 1357.7507 1205.6265 1355.2441 1194.803 1355.2441 1180.5234 C 1355.2441 1165.4844 1358.6228 1154.0145 1365.3828 1146.1152 C 1372.1428 1138.2159 1381.4106 1134.2676 1393.1836 1134.2676 z "
       transform="translate(0,-33.729184)"
       id="text3191" />
    <path
       inkscape:connector-curvature="0"
       id="path59-17-20-3-7-3-7-9-0-6-3-2-8-7"
       d="m 253.78544,207.24945 c -40.4697,-0.741 -79.0002,28.751 -127.7848,87.128 l 15.7674,13.179 c 47.5077,-56.849 81.7343,-80.312 111.6408,-79.759 29.9083,0.546 62.0765,25.415 104.9356,75.68 l 15.6369,-13.332 c -43.903,-51.488 -79.7272,-82.154 -120.1959,-82.896 z"
       style="color:#000000;font-style:normal;font-variant:normal;font-weight:normal;font-stretch:normal;font-size:medium;line-height:normal;font-family:sans-serif;font-variant-ligatures:normal;font-variant-position:normal;font-variant-caps:normal;font-variant-numeric:normal;font-variant-alternates:normal;font-feature-settings:normal;text-indent:0;text-align:start;text-decoration:none;text-decoration-line:none;text-decoration-style:solid;text-decoration-color:#000000;letter-spacing:normal;word-spacing:normal;text-transform:none;writing-mode:lr-tb;direction:ltr;text-orientation:mixed;dominant-baseline:auto;baseline-shift:baseline;text-anchor:start;white-space:normal;shape-padding:0;clip-rule:nonzero;display:inline;overflow:visible;visibility:visible;opacity:1;isolation:auto;mix-blend-mode:normal;color-interpolation:sRGB;color-interpolation-filters:linearRGB;solid-color:#000000;solid-opacity:1;vector-effect:none;fill:#000000;fill-opacity:1;fill-rule:nonzero;stroke:none;stroke-width:20.54899406;stroke-linecap:butt;stroke-linejoin:miter;stroke-miterlimit:4;stroke-dasharray:none;stroke-dashoffset:0;stroke-opacity:1;color-rendering:auto;image-rendering:auto;shape-rendering:auto;text-rendering:auto;enable-background:accumulate" />
    <path
       inkscape:connector-curvature="0"
       id="path59-1-8-1-3-0-7-1-4-6-0-4-5-1-3"
       d="m 251.58954,351.03146 c -27.7029,-0.995 -56.6729,10.144 -90.6954,35.275 l 12.2073,16.525 c 31.9078,-23.563 56.0029,-32.05 77.7503,-31.267 21.7471,0.778 42.7158,11.059 67.7588,29.021 l 11.976,-16.693 c -26.4276,-18.957 -51.2934,-31.865 -78.997,-32.861 z"
       style="color:#000000;font-style:normal;font-variant:normal;font-weight:normal;font-stretch:normal;font-size:medium;line-height:normal;font-family:sans-serif;font-variant-ligatures:normal;font-variant-position:normal;font-variant-caps:normal;font-variant-numeric:normal;font-variant-alternates:normal;font-feature-settings:normal;text-indent:0;text-align:start;text-decoration:none;text-decoration-line:none;text-decoration-style:solid;text-decoration-color:#000000;letter-spacing:normal;word-spacing:normal;text-transform:none;writing-mode:lr-tb;direction:ltr;text-orientation:mixed;dominant-baseline:auto;baseline-shift:baseline;text-anchor:start;white-space:normal;shape-padding:0;clip-rule:nonzero;display:inline;overflow:visible;visibility:visible;opacity:1;isolation:auto;mix-blend-mode:normal;color-interpolation:sRGB;color-interpolation-filters:linearRGB;solid-color:#000000;solid-opacity:1;vector-effect:none;fill:#000000;fill-opacity:1;fill-rule:nonzero;stroke:none;stroke-width:20.54899406;stroke-linecap:butt;stroke-linejoin:miter;stroke-miterlimit:4;stroke-dasharray:none;stroke-dashoffset:0;stroke-opacity:1;color-rendering:auto;image-rendering:auto;shape-rendering:auto;text-rendering:auto;enable-background:accumulate" />
    <path
       inkscape:connector-curvature="0"
       id="path59-17-5-2-8-4-5-3-5-5-8-7-8-4-6"
       d="m 527.80734,204.37745 c -40.4687,-0.743 -79,28.75 -127.7847,87.127 l 15.7674,13.177 c 47.5068,-56.849 81.7354,-80.308 111.6407,-79.756 29.9075,0.545 62.0765,25.414 104.9358,75.684 l 15.6369,-13.331 c -43.9022,-51.494 -79.7273,-82.16 -120.1961,-82.901 z"
       style="color:#000000;font-style:normal;font-variant:normal;font-weight:normal;font-stretch:normal;font-size:medium;line-height:normal;font-family:sans-serif;font-variant-ligatures:normal;font-variant-position:normal;font-variant-caps:normal;font-variant-numeric:normal;font-variant-alternates:normal;font-feature-settings:normal;text-indent:0;text-align:start;text-decoration:none;text-decoration-line:none;text-decoration-style:solid;text-decoration-color:#000000;letter-spacing:normal;word-spacing:normal;text-transform:none;writing-mode:lr-tb;direction:ltr;text-orientation:mixed;dominant-baseline:auto;baseline-shift:baseline;text-anchor:start;white-space:normal;shape-padding:0;clip-rule:nonzero;display:inline;overflow:visible;visibility:visible;opacity:1;isolation:auto;mix-blend-mode:normal;color-interpolation:sRGB;color-interpolation-filters:linearRGB;solid-color:#000000;solid-opacity:1;vector-effect:none;fill:#000000;fill-opacity:1;fill-rule:nonzero;stroke:none;stroke-width:20.54899406;stroke-linecap:butt;stroke-linejoin:miter;stroke-miterlimit:4;stroke-dasharray:none;stroke-dashoffset:0;stroke-opacity:1;color-rendering:auto;image-rendering:auto;shape-rendering:auto;text-rendering:auto;enable-background:accumulate" />
    <path
       inkscape:connector-curvature="0"
       id="path59-1-8-3-29-5-0-4-6-0-2-0-9-9-0-5"
       d="m 525.61244,348.15546 c -27.7027,-0.996 -56.6739,10.149 -90.6952,35.278 l 12.2073,16.531 c 31.9078,-23.569 55.999,-32.055 77.7473,-31.271 21.7451,0.783 42.7168,11.058 67.7608,29.024 l 11.977,-16.696 c -26.4286,-18.959 -51.2954,-31.87 -78.9972,-32.866 z"
       style="color:#000000;font-style:normal;font-variant:normal;font-weight:normal;font-stretch:normal;font-size:medium;line-height:normal;font-family:sans-serif;font-variant-ligatures:normal;font-variant-position:normal;font-variant-caps:normal;font-variant-numeric:normal;font-variant-alternates:normal;font-feature-settings:normal;text-indent:0;text-align:start;text-decoration:none;text-decoration-line:none;text-decoration-style:solid;text-decoration-color:#000000;letter-spacing:normal;word-spacing:normal;text-transform:none;writing-mode:lr-tb;direction:ltr;text-orientation:mixed;dominant-baseline:auto;baseline-shift:baseline;text-anchor:start;white-space:normal;shape-padding:0;clip-rule:nonzero;display:inline;overflow:visible;visibility:visible;opacity:1;isolation:auto;mix-blend-mode:normal;color-interpolation:sRGB;color-interpolation-filters:linearRGB;solid-color:#000000;solid-opacity:1;vector-effect:none;fill:#000000;fill-opacity:1;fill-rule:nonzero;stroke:none;stroke-width:20.54899406;stroke-linecap:butt;stroke-linejoin:miter;stroke-miterlimit:4;stroke-dasharray:none;stroke-dashoffset:0;stroke-opacity:1;color-rendering:auto;image-rendering:auto;shape-rendering:auto;text-rendering:auto;enable-background:accumulate" />
    <path
       inkscape:connector-curvature="0"
       id="path59-17-20-3-7-3-7-9-0-6-3-2-8-7-0"
       d="m 1890.3547,208.31399 c -40.4697,-0.741 -79.0002,28.751 -127.7848,87.128 l 15.7674,13.179 c 47.5077,-56.849 81.7343,-80.312 111.6408,-79.759 29.9083,0.546 62.0765,25.415 104.9356,75.68 l 15.6369,-13.332 c -43.903,-51.488 -79.7272,-82.154 -120.1959,-82.896 z"
       style="color:#000000;font-style:normal;font-variant:normal;font-weight:normal;font-stretch:normal;font-size:medium;line-height:normal;font-family:sans-serif;font-variant-ligatures:normal;font-variant-position:normal;font-variant-caps:normal;font-variant-numeric:normal;font-variant-alternates:normal;font-feature-settings:normal;text-indent:0;text-align:start;text-decoration:none;text-decoration-line:none;text-decoration-style:solid;text-decoration-color:#000000;letter-spacing:normal;word-spacing:normal;text-transform:none;writing-mode:lr-tb;direction:ltr;text-orientation:mixed;dominant-baseline:auto;baseline-shift:baseline;text-anchor:start;white-space:normal;shape-padding:0;clip-rule:nonzero;display:inline;overflow:visible;visibility:visible;opacity:1;isolation:auto;mix-blend-mode:normal;color-interpolation:sRGB;color-interpolation-filters:linearRGB;solid-color:#000000;solid-opacity:1;vector-effect:none;fill:#000000;fill-opacity:1;fill-rule:nonzero;stroke:none;stroke-width:20.54899406;stroke-linecap:butt;stroke-linejoin:miter;stroke-miterlimit:4;stroke-dasharray:none;stroke-dashoffset:0;stroke-opacity:1;color-rendering:auto;image-rendering:auto;shape-rendering:auto;text-rendering:auto;enable-background:accumulate" />
    <path
       inkscape:connector-curvature="0"
       id="path59-1-8-1-3-0-7-1-4-6-0-4-5-1-3-4"
       d="m 1888.1588,352.096 c -27.7029,-0.995 -56.6729,10.144 -90.6954,35.275 l 12.2073,16.525 c 31.9078,-23.563 56.0029,-32.05 77.7503,-31.267 21.7471,0.778 42.7158,11.059 67.7588,29.021 l 11.976,-16.693 c -26.4276,-18.957 -51.2934,-31.865 -78.997,-32.861 z"
       style="color:#000000;font-style:normal;font-variant:normal;font-weight:normal;font-stretch:normal;font-size:medium;line-height:normal;font-family:sans-serif;font-variant-ligatures:normal;font-variant-position:normal;font-variant-caps:normal;font-variant-numeric:normal;font-variant-alternates:normal;font-feature-settings:normal;text-indent:0;text-align:start;text-decoration:none;text-decoration-line:none;text-decoration-style:solid;text-decoration-color:#000000;letter-spacing:normal;word-spacing:normal;text-transform:none;writing-mode:lr-tb;direction:ltr;text-orientation:mixed;dominant-baseline:auto;baseline-shift:baseline;text-anchor:start;white-space:normal;shape-padding:0;clip-rule:nonzero;display:inline;overflow:visible;visibility:visible;opacity:1;isolation:auto;mix-blend-mode:normal;color-interpolation:sRGB;color-interpolation-filters:linearRGB;solid-color:#000000;solid-opacity:1;vector-effect:none;fill:#000000;fill-opacity:1;fill-rule:nonzero;stroke:none;stroke-width:20.54899406;stroke-linecap:butt;stroke-linejoin:miter;stroke-miterlimit:4;stroke-dasharray:none;stroke-dashoffset:0;stroke-opacity:1;color-rendering:auto;image-rendering:auto;shape-rendering:auto;text-rendering:auto;enable-background:accumulate" />
    <path
       inkscape:connector-curvature="0"
       id="path59-17-5-2-8-4-5-3-5-5-8-7-8-4-6-0"
       d="m 2164.3766,205.44199 c -40.4687,-0.743 -79,28.75 -127.7847,87.127 l 15.7674,13.177 c 47.5068,-56.849 81.7354,-80.308 111.6407,-79.756 29.9075,0.545 62.0765,25.414 104.9358,75.684 l 15.6369,-13.331 c -43.9022,-51.494 -79.7273,-82.16 -120.1961,-82.901 z"
       style="color:#000000;font-style:normal;font-variant:normal;font-weight:normal;font-stretch:normal;font-size:medium;line-height:normal;font-family:sans-serif;font-variant-ligatures:normal;font-variant-position:normal;font-variant-caps:normal;font-variant-numeric:normal;font-variant-alternates:normal;font-feature-settings:normal;text-indent:0;text-align:start;text-decoration:none;text-decoration-line:none;text-decoration-style:solid;text-decoration-color:#000000;letter-spacing:normal;word-spacing:normal;text-transform:none;writing-mode:lr-tb;direction:ltr;text-orientation:mixed;dominant-baseline:auto;baseline-shift:baseline;text-anchor:start;white-space:normal;shape-padding:0;clip-rule:nonzero;display:inline;overflow:visible;visibility:visible;opacity:1;isolation:auto;mix-blend-mode:normal;color-interpolation:sRGB;color-interpolation-filters:linearRGB;solid-color:#000000;solid-opacity:1;vector-effect:none;fill:#000000;fill-opacity:1;fill-rule:nonzero;stroke:none;stroke-width:20.54899406;stroke-linecap:butt;stroke-linejoin:miter;stroke-miterlimit:4;stroke-dasharray:none;stroke-dashoffset:0;stroke-opacity:1;color-rendering:auto;image-rendering:auto;shape-rendering:auto;text-rendering:auto;enable-background:accumulate" />
    <path
       inkscape:connector-curvature="0"
       id="path59-1-8-3-29-5-0-4-6-0-2-0-9-9-0-5-9"
       d="m 2162.1817,349.22 c -27.7027,-0.996 -56.6739,10.149 -90.6952,35.278 l 12.2073,16.531 c 31.9078,-23.569 55.999,-32.055 77.7473,-31.271 21.7451,0.783 42.7168,11.058 67.7608,29.024 l 11.977,-16.696 c -26.4286,-18.959 -51.2954,-31.87 -78.9972,-32.866 z"
       style="color:#000000;font-style:normal;font-variant:normal;font-weight:normal;font-stretch:normal;font-size:medium;line-height:normal;font-family:sans-serif;font-variant-ligatures:normal;font-variant-position:normal;font-variant-caps:normal;font-variant-numeric:normal;font-variant-alternates:normal;font-feature-settings:normal;text-indent:0;text-align:start;text-decoration:none;text-decoration-line:none;text-decoration-style:solid;text-decoration-color:#000000;letter-spacing:normal;word-spacing:normal;text-transform:none;writing-mode:lr-tb;direction:ltr;text-orientation:mixed;dominant-baseline:auto;baseline-shift:baseline;text-anchor:start;white-space:normal;shape-padding:0;clip-rule:nonzero;display:inline;overflow:visible;visibility:visible;opacity:1;isolation:auto;mix-blend-mode:normal;color-interpolation:sRGB;color-interpolation-filters:linearRGB;solid-color:#000000;solid-opacity:1;vector-effect:none;fill:#000000;fill-opacity:1;fill-rule:nonzero;stroke:none;stroke-width:20.54899406;stroke-linecap:butt;stroke-linejoin:miter;stroke-miterlimit:4;stroke-dasharray:none;stroke-dashoffset:0;stroke-opacity:1;color-rendering:auto;image-rendering:auto;shape-rendering:auto;text-rendering:auto;enable-background:accumulate" />
    <path
       inkscape:connector-curvature="0"
       id="path29-3-1-2-0-1-4-9-5-5-3-3-5-2-5"
       d="m 2021.921,677.831 c -17.427,0.695 -33.6078,5.505 -47.8508,12.324 -45.576,21.821 -73.7192,63.929 -73.7192,63.929 l -17.5296,25.787 29.4246,-10.317 c 0,0 110.2454,-38.272 223.1328,-1.54 l 31.163,10.142 -19.7964,-26.123 c -31.083,-41.007 -62.379,-62.513 -92.2587,-70.542 -11.2045,-3.009 -22.1103,-4.076 -32.5657,-3.66 z m 0.6838,20.476 c 8.5128,-0.332 17.3684,0.565 26.5531,3.033 18.5405,4.979 38.8389,16.576 60.2655,38.597 -70.171,-15.23 -134.2642,-6.529 -171.2376,1.618 11.3248,-11.321 26.5835,-24.16 44.7576,-32.859 12.234,-5.857 25.475,-9.837 39.6614,-10.389 z"
       style="color:#000000;font-style:normal;font-variant:normal;font-weight:normal;font-stretch:normal;font-size:medium;line-height:normal;font-family:sans-serif;font-variant-ligatures:normal;font-variant-position:normal;font-variant-caps:normal;font-variant-numeric:normal;font-variant-alternates:normal;font-feature-settings:normal;text-indent:0;text-align:start;text-decoration:none;text-decoration-line:none;text-decoration-style:solid;text-decoration-color:#000000;letter-spacing:normal;word-spacing:normal;text-transform:none;writing-mode:lr-tb;direction:ltr;text-orientation:mixed;dominant-baseline:auto;baseline-shift:baseline;text-anchor:start;white-space:normal;shape-padding:0;clip-rule:nonzero;display:inline;overflow:visible;visibility:visible;opacity:1;isolation:auto;mix-blend-mode:normal;color-interpolation:sRGB;color-interpolation-filters:linearRGB;solid-color:#000000;solid-opacity:1;vector-effect:none;fill:#000000;fill-opacity:1;fill-rule:nonzero;stroke:none;stroke-width:20.54899406;stroke-linecap:butt;stroke-linejoin:miter;stroke-miterlimit:4;stroke-dasharray:none;stroke-dashoffset:0;stroke-opacity:1;color-rendering:auto;image-rendering:auto;shape-rendering:auto;text-rendering:auto;enable-background:accumulate" />
    <path
       inkscape:connector-curvature="0"
       id="path29-3-1-2-0-1-4-9-5-5-3-3-5-2-5-5"
       d="m 385.35174,676.76646 c -17.427,0.695 -33.6078,5.505 -47.8508,12.324 -45.576,21.821 -73.7192,63.929 -73.7192,63.929 l -17.5296,25.787 29.4246,-10.317 c 0,0 110.2454,-38.272 223.1328,-1.54 l 31.163,10.142 -19.7964,-26.123 c -31.083,-41.007 -62.379,-62.513 -92.2587,-70.542 -11.2045,-3.009 -22.1103,-4.076 -32.5657,-3.66 z m 0.6838,20.476 c 8.5128,-0.332 17.3684,0.565 26.5531,3.033 18.5405,4.979 38.8389,16.576 60.2655,38.597 -70.171,-15.23 -134.2642,-6.529 -171.2376,1.618 11.3248,-11.321 26.5835,-24.16 44.7576,-32.859 12.234,-5.857 25.475,-9.837 39.6614,-10.389 z"
       style="color:#000000;font-style:normal;font-variant:normal;font-weight:normal;font-stretch:normal;font-size:medium;line-height:normal;font-family:sans-serif;font-variant-ligatures:normal;font-variant-position:normal;font-variant-caps:normal;font-variant-numeric:normal;font-variant-alternates:normal;font-feature-settings:normal;text-indent:0;text-align:start;text-decoration:none;text-decoration-line:none;text-decoration-style:solid;text-decoration-color:#000000;letter-spacing:normal;word-spacing:normal;text-transform:none;writing-mode:lr-tb;direction:ltr;text-orientation:mixed;dominant-baseline:auto;baseline-shift:baseline;text-anchor:start;white-space:normal;shape-padding:0;clip-rule:nonzero;display:inline;overflow:visible;visibility:visible;opacity:1;isolation:auto;mix-blend-mode:normal;color-interpolation:sRGB;color-interpolation-filters:linearRGB;solid-color:#000000;solid-opacity:1;vector-effect:none;fill:#000000;fill-opacity:1;fill-rule:nonzero;stroke:none;stroke-width:20.54899406;stroke-linecap:butt;stroke-linejoin:miter;stroke-miterlimit:4;stroke-dasharray:none;stroke-dashoffset:0;stroke-opacity:1;color-rendering:auto;image-rendering:auto;shape-rendering:auto;text-rendering:auto;enable-background:accumulate" />
  </g>
</svg>
