<?xml version="1.0" encoding="UTF-8" standalone="no"?>
<!-- Created with Inkscape (http://www.inkscape.org/) -->

<svg
   xmlns:dc="http://purl.org/dc/elements/1.1/"
   xmlns:cc="http://creativecommons.org/ns#"
   xmlns:rdf="http://www.w3.org/1999/02/22-rdf-syntax-ns#"
   xmlns:svg="http://www.w3.org/2000/svg"
   xmlns="http://www.w3.org/2000/svg"
   xmlns:sodipodi="http://sodipodi.sourceforge.net/DTD/sodipodi-0.dtd"
   xmlns:inkscape="http://www.inkscape.org/namespaces/inkscape"
   width="1000"
   height="1250"
   viewBox="0 0 1000 1250"
   version="1.1"
   id="svg6922"
   inkscape:version="0.92.4 (5da689c313, 2019-01-14)"
   sodipodi:docname="Senhor (Autoridade).svg">
  <defs
     id="defs6916" />
  <sodipodi:namedview
     id="base"
     pagecolor="#ffffff"
     bordercolor="#666666"
     borderopacity="1.0"
     inkscape:pageopacity="0.0"
     inkscape:pageshadow="2"
     inkscape:zoom="0.25"
     inkscape:cx="1306.1089"
     inkscape:cy="641.95243"
     inkscape:document-units="px"
     inkscape:current-layer="layer1"
     showgrid="false"
     units="px"
     inkscape:window-width="681"
     inkscape:window-height="706"
     inkscape:window-x="-7"
     inkscape:window-y="0"
     inkscape:window-maximized="0" />
  <metadata
     id="metadata6919">
    <rdf:RDF>
      <cc:Work
         rdf:about="">
        <dc:format>image/svg+xml</dc:format>
        <dc:type
           rdf:resource="http://purl.org/dc/dcmitype/StillImage" />
        <dc:title></dc:title>
      </cc:Work>
    </rdf:RDF>
  </metadata>
  <g
     inkscape:label="Camada 1"
     inkscape:groupmode="layer"
     id="layer1"
     transform="translate(0,217.58335)">
    <path
       style="color:#000000;font-style:normal;font-variant:normal;font-weight:normal;font-stretch:normal;font-size:medium;line-height:normal;font-family:sans-serif;font-variant-ligatures:normal;font-variant-position:normal;font-variant-caps:normal;font-variant-numeric:normal;font-variant-alternates:normal;font-feature-settings:normal;text-indent:0;text-align:start;text-decoration:none;text-decoration-line:none;text-decoration-style:solid;text-decoration-color:#000000;letter-spacing:normal;word-spacing:normal;text-transform:none;writing-mode:lr-tb;direction:ltr;text-orientation:mixed;dominant-baseline:auto;baseline-shift:baseline;text-anchor:start;white-space:normal;shape-padding:0;clip-rule:nonzero;display:inline;overflow:visible;visibility:visible;opacity:1;isolation:auto;mix-blend-mode:normal;color-interpolation:sRGB;color-interpolation-filters:linearRGB;solid-color:#000000;solid-opacity:1;vector-effect:none;fill:#000000;fill-opacity:1;fill-rule:nonzero;stroke:none;stroke-width:35.76883698;stroke-linecap:butt;stroke-linejoin:miter;stroke-miterlimit:4;stroke-dasharray:none;stroke-dashoffset:0;stroke-opacity:1;color-rendering:auto;image-rendering:auto;shape-rendering:auto;text-rendering:auto;enable-background:accumulate"
       d="m 713.75137,-84.392957 c -120.46314,-0.0253 -207.96409,42.25373 -264.45853,108.18567 6.08385,0.66212 11.57166,1.33233 18.38438,2.66764 L 392.89667,181.27893 c -4.30543,0.7283 -9.7893,0.99237 -17.6669,0.89942 -11.15997,54.06568 -12.59503,111.91914 -6.19466,169.45635 11.90477,107.01965 50.96409,213.41225 108.63077,294.21248 57.66665,80.80027 135.30611,137.09191 223.61419,136.56581 88.26645,-0.5259 165.27679,-57.40698 222.60279,-138.47995 57.32599,-81.07296 96.31034,-187.42525 109.25764,-294.17906 12.9474,-106.75386 -0.021,-214.2995 -50.31988,-296.770297 -50.29029,-82.45425 -139.41003,-137.83131 -268.99402,-137.37664 z m 0.0667,35.76725 h 0.0342 0.0342 c 119.70062,-0.44066 193.94396,47.3564302 238.39251,120.23276 44.44861,72.876327 57.60352,172.847487 45.35479,273.842137 -12.24864,100.99462 -49.77231,202.62444 -102.95495,277.83765 -53.18266,75.2132 -120.68427,122.92451 -193.60617,123.35894 -72.8803,0.43418 -140.85799,-46.70112 -194.29161,-121.57015 -53.43506,-74.86904 -90.96045,-176.39114 -102.19597,-277.39466 -6.51046,-58.52678 -4.17661,-116.72083 8.31998,-169.57827 -7.82817,2.30107 -20.00833,3.17623 -20.00833,3.17623 L 467.67727,26.460353 c 4.5491,0.4071 8.61209,2.43308 22.42361,5.55436 49.36631,-49.70774 121.23656,-80.67737 223.71739,-80.64042 z"
       id="path10-9-9-0-9"
       inkscape:connector-curvature="0"
       sodipodi:nodetypes="cccccsssssccccccsssscscccccc" />
    <path
       style="color:#000000;font-style:normal;font-variant:normal;font-weight:normal;font-stretch:normal;font-size:medium;line-height:normal;font-family:sans-serif;font-variant-ligatures:normal;font-variant-position:normal;font-variant-caps:normal;font-variant-numeric:normal;font-variant-alternates:normal;font-feature-settings:normal;text-indent:0;text-align:start;text-decoration:none;text-decoration-line:none;text-decoration-style:solid;text-decoration-color:#000000;letter-spacing:normal;word-spacing:normal;text-transform:none;writing-mode:lr-tb;direction:ltr;text-orientation:mixed;dominant-baseline:auto;baseline-shift:baseline;text-anchor:start;white-space:normal;shape-padding:0;clip-rule:nonzero;display:inline;overflow:visible;visibility:visible;opacity:1;isolation:auto;mix-blend-mode:normal;color-interpolation:sRGB;color-interpolation-filters:linearRGB;solid-color:#000000;solid-opacity:1;vector-effect:none;fill:#000000;fill-opacity:1;fill-rule:nonzero;stroke:none;stroke-width:17.88441849;stroke-linecap:butt;stroke-linejoin:miter;stroke-miterlimit:4;stroke-dasharray:none;stroke-dashoffset:0;stroke-opacity:1;color-rendering:auto;image-rendering:auto;shape-rendering:auto;text-rendering:auto;enable-background:accumulate"
       d="m 694.6582,346.39294 c 0,0 -2.01684,19.90649 -5.35351,40.81641 -1.66834,10.45496 -3.67636,21.16012 -5.83594,29.47852 -1.07979,4.15919 -2.21166,7.73049 -3.22461,10.19335 -1.01295,2.46287 -2.32245,3.75178 -1.38281,2.96875 -1.97904,1.6492 -4.07359,3.02494 -5.16992,7.41016 -0.54817,2.19261 -0.23365,5.4593 1.16601,7.74024 1.39966,2.28093 3.21768,3.39736 4.59375,4.04492 5.50431,2.59024 8.33171,1.59601 12.07422,1.33789 7.48502,-0.51624 15.58984,-2.18555 15.58984,-2.18555 l -3.50585,-17.53711 c 0,0 -2.80492,0.48825 -6.17774,0.99609 1.20437,-3.21077 2.33666,-6.58038 3.34766,-10.4746 2.41338,-9.29601 4.46846,-20.38163 6.1875,-31.1543 3.43807,-21.54534 5.48632,-41.83594 5.48632,-41.83594 z"
       id="path971-3-7-5"
       inkscape:connector-curvature="0" />
    <path
       style="color:#000000;font-style:normal;font-variant:normal;font-weight:normal;font-stretch:normal;font-size:medium;line-height:normal;font-family:sans-serif;font-variant-ligatures:normal;font-variant-position:normal;font-variant-caps:normal;font-variant-numeric:normal;font-variant-alternates:normal;font-feature-settings:normal;text-indent:0;text-align:start;text-decoration:none;text-decoration-line:none;text-decoration-style:solid;text-decoration-color:#000000;letter-spacing:normal;word-spacing:normal;text-transform:none;writing-mode:lr-tb;direction:ltr;text-orientation:mixed;dominant-baseline:auto;baseline-shift:baseline;text-anchor:start;white-space:normal;shape-padding:0;clip-rule:nonzero;display:inline;overflow:visible;visibility:visible;opacity:1;isolation:auto;mix-blend-mode:normal;color-interpolation:sRGB;color-interpolation-filters:linearRGB;solid-color:#000000;solid-opacity:1;vector-effect:none;fill:#000000;fill-opacity:1;fill-rule:nonzero;stroke:none;stroke-width:20.54706573;stroke-linecap:butt;stroke-linejoin:miter;stroke-miterlimit:4;stroke-dasharray:none;stroke-dashoffset:0;stroke-opacity:1;color-rendering:auto;image-rendering:auto;shape-rendering:auto;text-rendering:auto;enable-background:accumulate"
       d="m 1743.6172,-217.1344 c -6.9183,-0.37096 -12.0098,1.6211 -12.0098,1.6211 l -1.8535,0.72461 -1.4492,1.36718 c -6.9867,6.58746 -30.8754,23.7897 -51.9727,38.24414 -15.7343,10.7801 -23.4975,15.84283 -29.8769,20.05664 -6.8854,-12.36238 -16.5265,-18.5158 -25.4199,-19.33789 -11.4957,-1.06262 -19.9317,4.95704 -19.9317,4.95704 l -0.9863,0.65625 -0.8106,0.86523 c -27.258,29.07525 -74.8214,58.13731 -77.0937,59.51953 -16.9463,5.39255 -36.888,18.323643 -54.0508,30.220703 -15.3174,10.61788 -26.1466,19.09386 -29.2519,21.54102 -8.1466,0.74992 -16.5116,3.58171 -25.6446,7.33007 -10.5987,4.34995 -21.8381,9.99478 -32.2207,15.60938 -18.5304,10.0207 -32.5355,18.88172 -35.7324,20.91601 -6.6211,0.36903 -12.9135,2.71331 -19.5879,6.0371102 -7.9668,3.96739 -16.4483,9.48946 -25.3867,16.07032 -17.8769,13.1617198 -37.5067,30.5915298 -55.9063,48.0644498 -36.799,34.94585 -68.6289,70.128907 -68.6289,70.128907 l -0.1347,0.14843 -0.1289,0.1543 c -30.1783,36.07537 -50.3244,56.17472 -62.6426,67.06836 -6.1591,5.44682 -10.3579,8.59069 -12.8438,10.28516 -1.3721,0.93531 -1.108,0.72741 -1.3945,0.89453 -14.0911,0.64862 -26.3555,8.02348 -35.875,14.81054 -10.2548,7.31128 -17.4766,14.74219 -17.4766,14.74219 l 14.7168,14.33985 c 0,0 6.0633,-6.20479 14.6875,-12.35352 8.6242,-6.14873 19.6851,-11.33456 26.5782,-11.11914 l 2.2988,0.0723 2.1074,-0.91407 c 0,0 2.5814,-1.21178 5.9297,-3.49414 3.3483,-2.28235 8.1957,-5.95556 14.8848,-11.87109 13.3428,-11.79978 34.0439,-32.55424 64.5644,-69.01758 0.059,-0.0647 31.4448,-34.72954 67.5059,-68.974607 18.0474,-17.13852 37.2704,-34.14554 53.9394,-46.41797 8.3345,-6.13621 16.048,-11.07962 22.3633,-14.22461 6.3154,-3.1449798 11.2934,-4.1453498 12.8086,-4.0351498 l 3.418,0.24804 2.8828,-1.85351 c 0,0 16.8616,-10.8346 36.8262,-21.6308602 9.9822,-5.39813 20.7242,-10.76424 30.25,-14.67383 9.5257,-3.90959 18.2093,-6.11523 21.7617,-6.11523 h 3.5937 l 2.8106,-2.24024 c 0,0 13.5626,-10.80577 30.6328,-22.63867 17.0702,-11.8329 38.3241,-24.59735 49.7266,-27.93945 l 1.2578,-0.36914 1.1269,-0.67188 c 0,0 49.4713,-29.303713 80.9649,-62.261713 0.6069,-0.31432 3.3219,-1.67026 6.1992,-1.4043 3.2135,0.29705 7.963,1.08422 12.9414,17.31835 l 4.0117,13.08399 11.4434,-7.50586 c 0,0 19.1067,-12.53004 40.4062,-27.12304 20.1017,-13.77234 41.2097,-28.55256 52.2344,-38.36914 0.9525,-0.18682 2.4174,-0.32536 4.7148,0.39257 3.4789,1.08714 8.8757,3.8907 13.2012,19.2461 l 6.959,24.70508 12.0078,-22.6836 c 0,0 2.8918,-4.94071 6.168,-7.68359 1.6381,-1.37145 2.9784,-1.85789 3.5097,-1.90039 0.5313,-0.0425 1.0188,-0.33312 3.3887,1.88867 l 0.5996,0.5625 0.6817,0.46094 c 0,0 4.7454,2.84813 6.289,11.45117 1.5436,8.60304 -0.4507,24.41314 -23.9121,50.2207 l -7.3809,8.11719 8.584,6.83203 c 0,0 3.6826,2.6711 4.7871,9.839843 1.1029,7.15823 -0.4847,19.76182 -19.8144,39.77344 -0.1486,0.14529 -29.0298,28.37459 -50,42.05078 l -0.5918,0.38672 -0.5332,0.46289 c 0,0 -48.4628,42.03701 -105.2774,75.54297 l -6.6621,3.92773 1.9336,7.48828 c 0,0 0.3949,1.14198 0.3028,5.26172 -0.092,4.11975 -0.8609,10.43533 -3.8809,18.57031 -6.04,16.269967 -21.1509,40.055487 -59.1738,67.078127 l 1.6074,-0.93555 c 0,0 -9.6047,4.74946 -21.8848,17.42774 -12.1966,12.59217 -28.1314,33.55559 -44.498,67.38281 0,0 -10.1567,17.78157 -25.6836,37.25 -15.4287,19.34531 -36.5047,39.59435 -54.6172,45.40234 -3.281,0.53564 -14.7817,2.83092 -26.7305,10.79688 l 0.037,-0.0254 c 0,0 -22.7509,14.85724 -51.4257,8.4375 l -0.029,-0.008 -0.031,-0.006 c 0,0 -8.2661,-1.54855 -20.6289,0.52343 -12.3628,2.07198 -29.9895,7.48695 -52.4316,20.38477 l 10.2383,17.81445 c 20.5726,-11.82338 35.8252,-16.29739 45.5878,-17.93359 9.7627,-1.6362 12.8692,-0.71094 12.8692,-0.71094 l -0.062,-0.0137 c 37.5786,8.41312 67.2363,-11.3418 67.2363,-11.3418 l 0.019,-0.0117 0.02,-0.0137 c 9.729,-6.48614 19.3066,-7.74805 19.3066,-7.74805 l 0.9063,-0.11328 0.8711,-0.26953 c 26.3089,-8.185 48.3191,-31.52637 64.9296,-52.35351 16.6106,-20.82714 27.4668,-39.87891 27.4668,-39.87891 l 0.1778,-0.3125 0.1543,-0.32227 c 15.6532,-32.51052 30.489,-51.70431 41.0761,-62.63476 10.5872,-10.93046 15.8165,-13.10352 15.8165,-13.10352 l 0.8457,-0.39453 0.7597,-0.54101 c 40.5905,-28.84733 58.8549,-55.98757 66.5352,-76.67579 3.8401,-10.344097 5.0185,-19.014017 5.1582,-25.261707 0.026,-1.14465 -0.1117,-1.83142 -0.1543,-2.84766 55.608,-33.61448 101.1096,-72.8755498 102.3379,-73.9414098 24.3177,-16.0360002 52.6289,-44.2539002 52.6289,-44.2539002 l 0.084,-0.082 0.08,-0.084 c 22.1934,-22.93931 27.6689,-42.75308 25.4317,-57.27344 -0.9261,-6.010873 -3.2296,-10.654043 -5.5684,-14.378903 21.111,-25.49613 26.1123,-46.06044 23.4082,-61.13086 -2.6895,-14.98937 -12.6704,-23.03583 -14.3808,-24.33008 -5.4474,-4.83196 -12.2502,-7.38187 -18.4395,-6.88671 -6.011,0.48089 -10.6984,3.18373 -14.2949,6.05078 -5.6679,-9.24701 -12.8325,-14.6906 -19.7852,-16.86328 -2.5912,-0.80977 -5.1001,-1.19666 -7.4062,-1.32032 z"
       id="path7162"
       inkscape:connector-curvature="0" />
    <path
       style="color:#000000;font-style:normal;font-variant:normal;font-weight:normal;font-stretch:normal;font-size:medium;line-height:normal;font-family:sans-serif;font-variant-ligatures:normal;font-variant-position:normal;font-variant-caps:normal;font-variant-numeric:normal;font-variant-alternates:normal;font-feature-settings:normal;text-indent:0;text-align:start;text-decoration:none;text-decoration-line:none;text-decoration-style:solid;text-decoration-color:#000000;letter-spacing:normal;word-spacing:normal;text-transform:none;writing-mode:lr-tb;direction:ltr;text-orientation:mixed;dominant-baseline:auto;baseline-shift:baseline;text-anchor:start;white-space:normal;shape-padding:0;clip-rule:nonzero;display:inline;overflow:visible;visibility:visible;opacity:1;isolation:auto;mix-blend-mode:normal;color-interpolation:sRGB;color-interpolation-filters:linearRGB;solid-color:#000000;solid-opacity:1;vector-effect:none;fill:#000000;fill-opacity:1;fill-rule:nonzero;stroke:none;stroke-width:20.54706573;stroke-linecap:butt;stroke-linejoin:miter;stroke-miterlimit:4;stroke-dasharray:none;stroke-dashoffset:0;stroke-opacity:1;color-rendering:auto;image-rendering:auto;shape-rendering:auto;text-rendering:auto;enable-background:accumulate"
       d="m 1651.9688,-141.75745 -20.127,4.12696 c 0,0 0.2655,0.74959 -0.057,4.20898 -0.3222,3.45939 -1.3871,8.79297 -4.6993,15.60547 -6.6244,13.62499 -22.3964,33.442283 -60.541,54.371093 l -1.4121,0.77539 -1.1094,1.17188 c 0,0 -23.6224,24.79149 -55.3164,41.29883 l -2.2031,1.14648 -1.4355,2.02734 c 0,0 -21.8655,30.74423 -63.8614,43.66602 l 6.043,19.63867 c 44.6752,-13.74621 68.8938,-44.0283798 72.9336,-49.3808598 32.1441,-17.2227802 54.7575,-40.1546902 57.6309,-43.1425802 39.8649,-22.16082 59.0269,-44.64246 67.7519,-62.587893 4.4158,-9.08232 6.1402,-16.9333 6.6758,-22.68554 0.5356,-5.75225 -0.2734,-10.24024 -0.2734,-10.24024 z"
       id="path7164"
       inkscape:connector-curvature="0" />
    <path
       style="color:#000000;font-style:normal;font-variant:normal;font-weight:normal;font-stretch:normal;font-size:medium;line-height:normal;font-family:sans-serif;font-variant-ligatures:normal;font-variant-position:normal;font-variant-caps:normal;font-variant-numeric:normal;font-variant-alternates:normal;font-feature-settings:normal;text-indent:0;text-align:start;text-decoration:none;text-decoration-line:none;text-decoration-style:solid;text-decoration-color:#000000;letter-spacing:normal;word-spacing:normal;text-transform:none;writing-mode:lr-tb;direction:ltr;text-orientation:mixed;dominant-baseline:auto;baseline-shift:baseline;text-anchor:start;white-space:normal;shape-padding:0;clip-rule:nonzero;display:inline;overflow:visible;visibility:visible;opacity:1;isolation:auto;mix-blend-mode:normal;color-interpolation:sRGB;color-interpolation-filters:linearRGB;solid-color:#000000;solid-opacity:1;vector-effect:none;fill:#000000;fill-opacity:1;fill-rule:nonzero;stroke:none;stroke-width:20.54706573;stroke-linecap:butt;stroke-linejoin:miter;stroke-miterlimit:4;stroke-dasharray:none;stroke-dashoffset:0;stroke-opacity:1;color-rendering:auto;image-rendering:auto;shape-rendering:auto;text-rendering:auto;enable-background:accumulate"
       d="m 1775.0508,-187.19885 -14.1348,14.91406 c 0,0 -0.8633,-0.95224 -0.9883,-1.16601 -0.125,-0.21378 -0.086,-0.26168 -0.027,0.0801 0.1182,0.6835 0.4128,3.26087 -2.5469,9.01757 -5.9194,11.51341 -25.4723,34.33431 -78.2519,69.175783 l -0.6407,0.42383 -0.5722,0.51367 c 0,0 -34.277,30.85741 -88.0918,64.66406 l -0.541,0.33985 -0.4942,0.40234 c 0,0 -12.3236,10.0662 -28.1797,21.7070302 -15.8561,11.64083 -35.5429,24.8610498 -48.1347,30.4648498 l 8.3535,18.77148 c 15.9912,-7.11665 35.6226,-20.69475 51.9394,-32.6738298 15.8465,-11.63372 27.8313,-21.3968002 28.5352,-21.9707002 53.6358,-33.75939 88.1248,-64.45223 89.7519,-65.9082 53.7266,-35.540023 75.6891,-59.184553 84.5997,-76.515623 4.4732,-8.70049 5.5148,-16.16657 4.5214,-21.91211 -0.4967,-2.87278 -1.4779,-5.23008 -2.4843,-6.95118 -1.0064,-1.72109 -2.6133,-3.37695 -2.6133,-3.37695 z"
       id="path7166"
       inkscape:connector-curvature="0" />
    <path
       style="color:#000000;font-style:normal;font-variant:normal;font-weight:normal;font-stretch:normal;font-size:medium;line-height:normal;font-family:sans-serif;font-variant-ligatures:normal;font-variant-position:normal;font-variant-caps:normal;font-variant-numeric:normal;font-variant-alternates:normal;font-feature-settings:normal;text-indent:0;text-align:start;text-decoration:none;text-decoration-line:none;text-decoration-style:solid;text-decoration-color:#000000;letter-spacing:normal;word-spacing:normal;text-transform:none;writing-mode:lr-tb;direction:ltr;text-orientation:mixed;dominant-baseline:auto;baseline-shift:baseline;text-anchor:start;white-space:normal;shape-padding:0;clip-rule:nonzero;display:inline;overflow:visible;visibility:visible;opacity:1;isolation:auto;mix-blend-mode:normal;color-interpolation:sRGB;color-interpolation-filters:linearRGB;solid-color:#000000;solid-opacity:1;vector-effect:none;fill:#000000;fill-opacity:1;fill-rule:nonzero;stroke:none;stroke-width:20.54706573;stroke-linecap:butt;stroke-linejoin:miter;stroke-miterlimit:4;stroke-dasharray:none;stroke-dashoffset:0;stroke-opacity:1;color-rendering:auto;image-rendering:auto;shape-rendering:auto;text-rendering:auto;enable-background:accumulate"
       d="m 1773.5488,-119.66565 c 0,0 -36.4604,42.921583 -88.1406,76.921873 l -0.5273,0.34766 -0.4805,0.4082 c 0,0 -35.6833,30.13969 -65.2832,46.5839902 l -0.6367,0.35547 -0.5821,0.43945 c 0,0 -45.3793,33.6372298 -75.5683,43.4042998 l 6.3261,19.54882 c 36.4439,-11.79068 79.7326,-45.11017 81.1602,-46.21289 31.997,-17.9287098 66.4371,-47.23162 67.5137,-48.15039 54.2493,-35.84869 91.8965,-80.365233 91.8965,-80.365233 z"
       id="path7168"
       inkscape:connector-curvature="0" />
    <path
       style="color:#000000;font-style:normal;font-variant:normal;font-weight:normal;font-stretch:normal;font-size:medium;line-height:normal;font-family:sans-serif;font-variant-ligatures:normal;font-variant-position:normal;font-variant-caps:normal;font-variant-numeric:normal;font-variant-alternates:normal;font-feature-settings:normal;text-indent:0;text-align:start;text-decoration:none;text-decoration-line:none;text-decoration-style:solid;text-decoration-color:#000000;letter-spacing:normal;word-spacing:normal;text-transform:none;writing-mode:lr-tb;direction:ltr;text-orientation:mixed;dominant-baseline:auto;baseline-shift:baseline;text-anchor:start;white-space:normal;shape-padding:0;clip-rule:nonzero;display:inline;overflow:visible;visibility:visible;opacity:1;isolation:auto;mix-blend-mode:normal;color-interpolation:sRGB;color-interpolation-filters:linearRGB;solid-color:#000000;solid-opacity:1;vector-effect:none;fill:#000000;fill-opacity:1;fill-rule:nonzero;stroke:none;stroke-width:20.54706573;stroke-linecap:butt;stroke-linejoin:miter;stroke-miterlimit:4;stroke-dasharray:none;stroke-dashoffset:0;stroke-opacity:1;color-rendering:auto;image-rendering:auto;shape-rendering:auto;text-rendering:auto;enable-background:accumulate"
       d="m 1603.0801,63.371463 c 0,0 -37.0013,24.24714 -65.0469,32.8418 l -0.3672,0.11132 -0.3574,0.14063 c 0,0 -43.9768,16.653387 -64.8301,59.451167 -9e-4,0.002 -10e-4,0.004 0,0.006 -0.084,0.1664 -16.7283,33.28001 -24.1055,52.77734 l 19.2168,7.27149 c 6.4478,-17.04108 23.3125,-50.95508 23.3125,-50.95508 l 0.023,-0.0469 0.024,-0.0488 c 16.724,-34.32836 53.83,-49.31446 53.83,-49.31446 l -0.7246,0.25196 c 33.2626,-10.19341 70.4258,-35.390627 70.4258,-35.390627 z"
       id="path7170"
       inkscape:connector-curvature="0" />
    <path
       style="color:#000000;font-style:normal;font-variant:normal;font-weight:normal;font-stretch:normal;font-size:medium;line-height:normal;font-family:sans-serif;font-variant-ligatures:normal;font-variant-position:normal;font-variant-caps:normal;font-variant-numeric:normal;font-variant-alternates:normal;font-feature-settings:normal;text-indent:0;text-align:start;text-decoration:none;text-decoration-line:none;text-decoration-style:solid;text-decoration-color:#000000;letter-spacing:normal;word-spacing:normal;text-transform:none;writing-mode:lr-tb;direction:ltr;text-orientation:mixed;dominant-baseline:auto;baseline-shift:baseline;text-anchor:start;white-space:normal;shape-padding:0;clip-rule:nonzero;display:inline;overflow:visible;visibility:visible;opacity:1;isolation:auto;mix-blend-mode:normal;color-interpolation:sRGB;color-interpolation-filters:linearRGB;solid-color:#000000;solid-opacity:1;vector-effect:none;fill:#000000;fill-opacity:1;fill-rule:nonzero;stroke:none;stroke-width:20.54706573;stroke-linecap:butt;stroke-linejoin:miter;stroke-miterlimit:4;stroke-dasharray:none;stroke-dashoffset:0;stroke-opacity:1;color-rendering:auto;image-rendering:auto;shape-rendering:auto;text-rendering:auto;enable-background:accumulate"
       d="m 1506.6172,125.12341 -11.2442,17.19727 c 0,0 10.8326,7.17381 18.4219,20.66601 l 17.9082,-10.07422 c -10.2098,-18.15083 -25.0859,-27.78906 -25.0859,-27.78906 z"
       id="path7172"
       inkscape:connector-curvature="0" />
    <path
       style="color:#000000;font-style:normal;font-variant:normal;font-weight:normal;font-stretch:normal;font-size:medium;line-height:normal;font-family:sans-serif;font-variant-ligatures:normal;font-variant-position:normal;font-variant-caps:normal;font-variant-numeric:normal;font-variant-alternates:normal;font-feature-settings:normal;text-indent:0;text-align:start;text-decoration:none;text-decoration-line:none;text-decoration-style:solid;text-decoration-color:#000000;letter-spacing:normal;word-spacing:normal;text-transform:none;writing-mode:lr-tb;direction:ltr;text-orientation:mixed;dominant-baseline:auto;baseline-shift:baseline;text-anchor:start;white-space:normal;shape-padding:0;clip-rule:nonzero;display:inline;overflow:visible;visibility:visible;opacity:1;isolation:auto;mix-blend-mode:normal;color-interpolation:sRGB;color-interpolation-filters:linearRGB;solid-color:#000000;solid-opacity:1;vector-effect:none;fill:#000000;fill-opacity:1;fill-rule:nonzero;stroke:none;stroke-width:20.54706573;stroke-linecap:butt;stroke-linejoin:miter;stroke-miterlimit:4;stroke-dasharray:none;stroke-dashoffset:0;stroke-opacity:1;color-rendering:auto;image-rendering:auto;shape-rendering:auto;text-rendering:auto;enable-background:accumulate"
       d="m 1461.5859,120.28357 c -9.3197,0.0367 -18.9858,1.1124 -28.25,2.58594 -24.7043,3.92941 -46.6992,10.95117 -46.6992,10.95117 l 6.2246,19.58203 c 0,0 20.8901,-6.61164 43.7032,-10.24024 11.4065,-1.81429 23.258,-2.81516 32.5429,-2.06445 9.285,0.75071 15.0183,3.47644 16.7715,5.77539 l 16.3399,-12.45898 c -7.5116,-9.85004 -19.4468,-12.82597 -31.4551,-13.79688 -3.0021,-0.24272 -6.0712,-0.3462 -9.1778,-0.33398 z"
       id="path7174"
       inkscape:connector-curvature="0" />
    <path
       style="color:#000000;font-style:normal;font-variant:normal;font-weight:normal;font-stretch:normal;font-size:medium;line-height:normal;font-family:sans-serif;font-variant-ligatures:normal;font-variant-position:normal;font-variant-caps:normal;font-variant-numeric:normal;font-variant-alternates:normal;font-feature-settings:normal;text-indent:0;text-align:start;text-decoration:none;text-decoration-line:none;text-decoration-style:solid;text-decoration-color:#000000;letter-spacing:normal;word-spacing:normal;text-transform:none;writing-mode:lr-tb;direction:ltr;text-orientation:mixed;dominant-baseline:auto;baseline-shift:baseline;text-anchor:start;white-space:normal;shape-padding:0;clip-rule:nonzero;display:inline;overflow:visible;visibility:visible;opacity:1;isolation:auto;mix-blend-mode:normal;color-interpolation:sRGB;color-interpolation-filters:linearRGB;solid-color:#000000;solid-opacity:1;vector-effect:none;fill:#000000;fill-opacity:1;fill-rule:nonzero;stroke:none;stroke-width:20.54706573;stroke-linecap:butt;stroke-linejoin:miter;stroke-miterlimit:4;stroke-dasharray:none;stroke-dashoffset:0;stroke-opacity:1;color-rendering:auto;image-rendering:auto;shape-rendering:auto;text-rendering:auto;enable-background:accumulate"
       d="m 1483.8125,131.1449 c -12.2118,0.27045 -24.5434,5.10951 -37.7676,10.49023 -17.6322,7.1743 -37.2595,16.19303 -59.6054,21.91992 l 5.1015,19.9043 c 24.5441,-6.29025 45.307,-15.8999 62.2481,-22.79297 16.941,-6.89307 29.653,-10.18773 36.9843,-8.25391 l 5.2403,-19.86718 c -4.0727,-1.07427 -8.1306,-1.49054 -12.2012,-1.40039 z"
       id="path7176"
       inkscape:connector-curvature="0" />
    <path
       style="color:#000000;font-style:normal;font-variant:normal;font-weight:normal;font-stretch:normal;font-size:medium;line-height:normal;font-family:sans-serif;font-variant-ligatures:normal;font-variant-position:normal;font-variant-caps:normal;font-variant-numeric:normal;font-variant-alternates:normal;font-feature-settings:normal;text-indent:0;text-align:start;text-decoration:none;text-decoration-line:none;text-decoration-style:solid;text-decoration-color:#000000;letter-spacing:normal;word-spacing:normal;text-transform:none;writing-mode:lr-tb;direction:ltr;text-orientation:mixed;dominant-baseline:auto;baseline-shift:baseline;text-anchor:start;white-space:normal;shape-padding:0;clip-rule:nonzero;display:inline;overflow:visible;visibility:visible;opacity:1;isolation:auto;mix-blend-mode:normal;color-interpolation:sRGB;color-interpolation-filters:linearRGB;solid-color:#000000;solid-opacity:1;vector-effect:none;fill:#000000;fill-opacity:1;fill-rule:nonzero;stroke:none;stroke-width:20.54706573;stroke-linecap:butt;stroke-linejoin:miter;stroke-miterlimit:4;stroke-dasharray:none;stroke-dashoffset:0;stroke-opacity:1;color-rendering:auto;image-rendering:auto;shape-rendering:auto;text-rendering:auto;enable-background:accumulate"
       d="m 1468.1855,211.15857 -19.8125,-2.45885 c 0,0 -0.1255,9.16084 1.711,14.0858 1.8364,4.92496 5.1534,11.77108 13.1719,15.2793 l 8.2363,-18.82422 c 0.1078,0.0472 -1.2733,-1.26501 -2.1563,-3.63281 -0.8829,-2.36781 -1.1504,-4.44922 -1.1504,-4.44922 z"
       id="path7178"
       inkscape:connector-curvature="0"
       sodipodi:nodetypes="ccccccc" />
    <path
       style="color:#000000;font-style:normal;font-variant:normal;font-weight:normal;font-stretch:normal;font-size:medium;line-height:normal;font-family:sans-serif;font-variant-ligatures:normal;font-variant-position:normal;font-variant-caps:normal;font-variant-numeric:normal;font-variant-alternates:normal;font-feature-settings:normal;text-indent:0;text-align:start;text-decoration:none;text-decoration-line:none;text-decoration-style:solid;text-decoration-color:#000000;letter-spacing:normal;word-spacing:normal;text-transform:none;writing-mode:lr-tb;direction:ltr;text-orientation:mixed;dominant-baseline:auto;baseline-shift:baseline;text-anchor:start;white-space:normal;shape-padding:0;clip-rule:nonzero;display:inline;overflow:visible;visibility:visible;opacity:1;isolation:auto;mix-blend-mode:normal;color-interpolation:sRGB;color-interpolation-filters:linearRGB;solid-color:#000000;solid-opacity:1;vector-effect:none;fill:#000000;fill-opacity:1;fill-rule:nonzero;stroke:none;stroke-width:20.54706573;stroke-linecap:butt;stroke-linejoin:miter;stroke-miterlimit:4;stroke-dasharray:none;stroke-dashoffset:0;stroke-opacity:1;color-rendering:auto;image-rendering:auto;shape-rendering:auto;text-rendering:auto;enable-background:accumulate"
       d="m 1311.9141,67.226933 -15.0567,13.98242 c 0,0 37.5851,42.421437 86.5117,42.437497 12.4477,0.0539 23.4957,-4.00573 34.7129,-6.39063 11.2239,-2.38631 22.272,-3.52184 35.0508,0.35547 l 5.9668,-19.662107 c -17.1426,-5.20138 -32.575,-3.49457 -45.291,-0.79101 -12.716,2.70355 -23.0629,5.977827 -30.3633,5.943357 h -0.023 -0.025 c -36.365,0 -71.4824,-35.874997 -71.4824,-35.874997 z"
       id="path7180"
       inkscape:connector-curvature="0" />
    <path
       style="color:#000000;font-style:normal;font-variant:normal;font-weight:normal;font-stretch:normal;font-size:medium;line-height:normal;font-family:sans-serif;font-variant-ligatures:normal;font-variant-position:normal;font-variant-caps:normal;font-variant-numeric:normal;font-variant-alternates:normal;font-feature-settings:normal;text-indent:0;text-align:start;text-decoration:none;text-decoration-line:none;text-decoration-style:solid;text-decoration-color:#000000;letter-spacing:normal;word-spacing:normal;text-transform:none;writing-mode:lr-tb;direction:ltr;text-orientation:mixed;dominant-baseline:auto;baseline-shift:baseline;text-anchor:start;white-space:normal;shape-padding:0;clip-rule:nonzero;display:inline;overflow:visible;visibility:visible;opacity:1;isolation:auto;mix-blend-mode:normal;color-interpolation:sRGB;color-interpolation-filters:linearRGB;solid-color:#000000;solid-opacity:1;vector-effect:none;fill:#000000;fill-opacity:1;fill-rule:nonzero;stroke:none;stroke-width:20.54706573;stroke-linecap:butt;stroke-linejoin:miter;stroke-miterlimit:4;stroke-dasharray:none;stroke-dashoffset:0;stroke-opacity:1;color-rendering:auto;image-rendering:auto;shape-rendering:auto;text-rendering:auto;enable-background:accumulate"
       d="m 1132.4238,258.74841 -17.3496,11.00586 c 0,0 44.5339,71.44288 120.0899,66.55078 l -1.3282,-20.5039 c -61.8942,4.00753 -101.4121,-57.05274 -101.4121,-57.05274 z"
       id="path7182"
       inkscape:connector-curvature="0" />
    <path
       style="color:#000000;font-style:normal;font-variant:normal;font-weight:normal;font-stretch:normal;font-size:medium;line-height:normal;font-family:sans-serif;font-variant-ligatures:normal;font-variant-position:normal;font-variant-caps:normal;font-variant-numeric:normal;font-variant-alternates:normal;font-feature-settings:normal;text-indent:0;text-align:start;text-decoration:none;text-decoration-line:none;text-decoration-style:solid;text-decoration-color:#000000;letter-spacing:normal;word-spacing:normal;text-transform:none;writing-mode:lr-tb;direction:ltr;text-orientation:mixed;dominant-baseline:auto;baseline-shift:baseline;text-anchor:start;white-space:normal;shape-padding:0;clip-rule:nonzero;display:inline;overflow:visible;visibility:visible;opacity:1;isolation:auto;mix-blend-mode:normal;color-interpolation:sRGB;color-interpolation-filters:linearRGB;solid-color:#000000;solid-opacity:1;vector-effect:none;fill:#000000;fill-opacity:1;fill-rule:nonzero;stroke:none;stroke-width:20.54706573;stroke-linecap:butt;stroke-linejoin:miter;stroke-miterlimit:4;stroke-dasharray:none;stroke-dashoffset:0;stroke-opacity:1;color-rendering:auto;image-rendering:auto;shape-rendering:auto;text-rendering:auto;enable-background:accumulate"
       d="m 1561.9824,-82.126587 -19.1367,7.48242 c 0,0 2.3691,6.12189 6.3379,12.69532 3.9688,6.57342 8.8528,15.14796 20.1621,17.55859 l 4.2832,-20.0957 c 0.7168,0.15279 -3.936,-3.24662 -6.8555,-8.08203 -2.9194,-4.83542 -4.791,-9.5586 -4.791,-9.5586 z"
       id="path7184"
       inkscape:connector-curvature="0" />
    <path
       style="color:#000000;font-style:normal;font-variant:normal;font-weight:normal;font-stretch:normal;font-size:medium;line-height:normal;font-family:sans-serif;font-variant-ligatures:normal;font-variant-position:normal;font-variant-caps:normal;font-variant-numeric:normal;font-variant-alternates:normal;font-feature-settings:normal;text-indent:0;text-align:start;text-decoration:none;text-decoration-line:none;text-decoration-style:solid;text-decoration-color:#000000;letter-spacing:normal;word-spacing:normal;text-transform:none;writing-mode:lr-tb;direction:ltr;text-orientation:mixed;dominant-baseline:auto;baseline-shift:baseline;text-anchor:start;white-space:normal;shape-padding:0;clip-rule:nonzero;display:inline;overflow:visible;visibility:visible;opacity:1;isolation:auto;mix-blend-mode:normal;color-interpolation:sRGB;color-interpolation-filters:linearRGB;solid-color:#000000;solid-opacity:1;vector-effect:none;fill:#000000;fill-opacity:1;fill-rule:nonzero;stroke:none;stroke-width:20.54706573;stroke-linecap:butt;stroke-linejoin:miter;stroke-miterlimit:4;stroke-dasharray:none;stroke-dashoffset:0;stroke-opacity:1;color-rendering:auto;image-rendering:auto;shape-rendering:auto;text-rendering:auto;enable-background:accumulate"
       d="m 1497.7051,-36.237917 -18.1426,9.64649 c 0,0 3.1249,5.9374 8.4277,11.96289 5.3029,6.0254902 13.3279,13.4472002 25.1465,13.81055025 l 0.6309,-20.53711025 c -2.4226,-0.0745 -6.8076,-2.81856 -10.3535,-6.84766 -3.5459,-4.0291 -5.709,-8.03516 -5.709,-8.03516 z"
       id="path7186"
       inkscape:connector-curvature="0" />
    <path
       style="color:#000000;font-style:normal;font-variant:normal;font-weight:normal;font-stretch:normal;font-size:medium;line-height:normal;font-family:sans-serif;font-variant-ligatures:normal;font-variant-position:normal;font-variant-caps:normal;font-variant-numeric:normal;font-variant-alternates:normal;font-feature-settings:normal;text-indent:0;text-align:start;text-decoration:none;text-decoration-line:none;text-decoration-style:solid;text-decoration-color:#000000;letter-spacing:normal;word-spacing:normal;text-transform:none;writing-mode:lr-tb;direction:ltr;text-orientation:mixed;dominant-baseline:auto;baseline-shift:baseline;text-anchor:start;white-space:normal;shape-padding:0;clip-rule:nonzero;display:inline;overflow:visible;visibility:visible;opacity:1;isolation:auto;mix-blend-mode:normal;color-interpolation:sRGB;color-interpolation-filters:linearRGB;solid-color:#000000;solid-opacity:1;vector-effect:none;fill:#000000;fill-opacity:1;fill-rule:nonzero;stroke:none;stroke-width:20.54706573;stroke-linecap:butt;stroke-linejoin:miter;stroke-miterlimit:4;stroke-dasharray:none;stroke-dashoffset:0;stroke-opacity:1;color-rendering:auto;image-rendering:auto;shape-rendering:auto;text-rendering:auto;enable-background:accumulate"
       d="m 1678.3398,-109.9762 -20.4609,1.87305 c 0,0 0.6166,5.42902 3.584,11.287113 2.9674,5.85808 8.4848,13.05728 17.8437,18.91992 l 10.9082,-17.41211 c -6.1272,-3.83823 -8.9351,-7.857903 -10.4218,-10.792973 -1.4868,-2.93507 -1.4532,-3.875 -1.4532,-3.875 z"
       id="path7188"
       inkscape:connector-curvature="0" />
    <path
       style="color:#000000;font-style:normal;font-variant:normal;font-weight:normal;font-stretch:normal;font-size:medium;line-height:normal;font-family:sans-serif;font-variant-ligatures:normal;font-variant-position:normal;font-variant-caps:normal;font-variant-numeric:normal;font-variant-alternates:normal;font-feature-settings:normal;text-indent:0;text-align:start;text-decoration:none;text-decoration-line:none;text-decoration-style:solid;text-decoration-color:#000000;letter-spacing:normal;word-spacing:normal;text-transform:none;writing-mode:lr-tb;direction:ltr;text-orientation:mixed;dominant-baseline:auto;baseline-shift:baseline;text-anchor:start;white-space:normal;shape-padding:0;clip-rule:nonzero;display:inline;overflow:visible;visibility:visible;opacity:1;isolation:auto;mix-blend-mode:normal;color-interpolation:sRGB;color-interpolation-filters:linearRGB;solid-color:#000000;solid-opacity:1;vector-effect:none;fill:#000000;fill-opacity:1;fill-rule:nonzero;stroke:none;stroke-width:20.54706573;stroke-linecap:butt;stroke-linejoin:miter;stroke-miterlimit:4;stroke-dasharray:none;stroke-dashoffset:0;stroke-opacity:1;color-rendering:auto;image-rendering:auto;shape-rendering:auto;text-rendering:auto;enable-background:accumulate"
       d="m 1586.2891,-40.970337 -20.2832,3.28906 c 0,0 1.0308,5.71484 4.8046,11.33008 3.7739,5.61524 10.7137,11.96077 21.3985,15.28516 l 6.1035,-19.61914 c -6.2941,-1.9583 -8.9109,-4.838 -10.4492,-7.12695 -1.5384,-2.28896 -1.5742,-3.15821 -1.5742,-3.15821 z"
       id="path7190"
       inkscape:connector-curvature="0" />
    <path
       style="color:#000000;font-style:normal;font-variant:normal;font-weight:normal;font-stretch:normal;font-size:medium;line-height:normal;font-family:sans-serif;font-variant-ligatures:normal;font-variant-position:normal;font-variant-caps:normal;font-variant-numeric:normal;font-variant-alternates:normal;font-feature-settings:normal;text-indent:0;text-align:start;text-decoration:none;text-decoration-line:none;text-decoration-style:solid;text-decoration-color:#000000;letter-spacing:normal;word-spacing:normal;text-transform:none;writing-mode:lr-tb;direction:ltr;text-orientation:mixed;dominant-baseline:auto;baseline-shift:baseline;text-anchor:start;white-space:normal;shape-padding:0;clip-rule:nonzero;display:inline;overflow:visible;visibility:visible;opacity:1;isolation:auto;mix-blend-mode:normal;color-interpolation:sRGB;color-interpolation-filters:linearRGB;solid-color:#000000;solid-opacity:1;vector-effect:none;fill:#000000;fill-opacity:1;fill-rule:nonzero;stroke:none;stroke-width:20.54706573;stroke-linecap:butt;stroke-linejoin:miter;stroke-miterlimit:4;stroke-dasharray:none;stroke-dashoffset:0;stroke-opacity:1;color-rendering:auto;image-rendering:auto;shape-rendering:auto;text-rendering:auto;enable-background:accumulate"
       d="m 1725.7578,-91.692987 -19.3769,6.83789 c 0,0 1.7902,5.09994 5.166,10.82421 3.3758,5.72428 8.2909,12.86929 17.082,16.86524 l 8.502,-18.70508 c -2.0862,-0.94826 -5.5768,-4.68066 -7.8868,-8.59766 -2.31,-3.91699 -3.4863,-7.2246 -3.4863,-7.2246 z"
       id="path7194"
       inkscape:connector-curvature="0" />
    <path
       style="color:#000000;font-style:normal;font-variant:normal;font-weight:normal;font-stretch:normal;font-size:medium;line-height:normal;font-family:sans-serif;font-variant-ligatures:normal;font-variant-position:normal;font-variant-caps:normal;font-variant-numeric:normal;font-variant-alternates:normal;font-feature-settings:normal;text-indent:0;text-align:start;text-decoration:none;text-decoration-line:none;text-decoration-style:solid;text-decoration-color:#000000;letter-spacing:normal;word-spacing:normal;text-transform:none;writing-mode:lr-tb;direction:ltr;text-orientation:mixed;dominant-baseline:auto;baseline-shift:baseline;text-anchor:start;white-space:normal;shape-padding:0;clip-rule:nonzero;display:inline;overflow:visible;visibility:visible;opacity:1;isolation:auto;mix-blend-mode:normal;color-interpolation:sRGB;color-interpolation-filters:linearRGB;solid-color:#000000;solid-opacity:1;vector-effect:none;fill:#000000;fill-opacity:1;fill-rule:nonzero;stroke:none;stroke-width:20.54706573;stroke-linecap:butt;stroke-linejoin:miter;stroke-miterlimit:4;stroke-dasharray:none;stroke-dashoffset:0;stroke-opacity:1;color-rendering:auto;image-rendering:auto;shape-rendering:auto;text-rendering:auto;enable-background:accumulate"
       d="m 1627.3184,-13.821897 -20.2676,3.37891 c 0,0 3.1491,20.59566 22.3867,27.7207 l 7.1367,-19.2675798 c -7.4615,-2.76354 -9.2558,-11.8320302 -9.2558,-11.8320302 z"
       id="path7196"
       inkscape:connector-curvature="0" />
    <path
       style="color:#000000;font-style:normal;font-variant:normal;font-weight:normal;font-stretch:normal;font-size:medium;line-height:normal;font-family:sans-serif;font-variant-ligatures:normal;font-variant-position:normal;font-variant-caps:normal;font-variant-numeric:normal;font-variant-alternates:normal;font-feature-settings:normal;text-indent:0;text-align:start;text-decoration:none;text-decoration-line:none;text-decoration-style:solid;text-decoration-color:#000000;letter-spacing:normal;word-spacing:normal;text-transform:none;writing-mode:lr-tb;direction:ltr;text-orientation:mixed;dominant-baseline:auto;baseline-shift:baseline;text-anchor:start;white-space:normal;shape-padding:0;clip-rule:nonzero;display:inline;overflow:visible;visibility:visible;opacity:1;isolation:auto;mix-blend-mode:normal;color-interpolation:sRGB;color-interpolation-filters:linearRGB;solid-color:#000000;solid-opacity:1;vector-effect:none;fill:#000000;fill-opacity:1;fill-rule:nonzero;stroke:none;stroke-width:20.54706573;stroke-linecap:butt;stroke-linejoin:miter;stroke-miterlimit:4;stroke-dasharray:none;stroke-dashoffset:0;stroke-opacity:1;color-rendering:auto;image-rendering:auto;shape-rendering:auto;text-rendering:auto;enable-background:accumulate"
       d="m 1717.209,-31.124627 -20.0781,4.36328 c 0,0 1.0952,5.13929 3.9082,10.84961 2.8129,5.71031 7.564,13.1325202 16.7226,16.67773025 l 7.418,-19.16211025 c -1.6796,-0.65013 -4.0789,-3.29064 -5.707,-6.5957 -1.6281,-3.30506 -2.2637,-6.13281 -2.2637,-6.13281 z"
       id="path7198"
       inkscape:connector-curvature="0" />
    <path
       style="color:#000000;font-style:normal;font-variant:normal;font-weight:normal;font-stretch:normal;font-size:medium;line-height:normal;font-family:sans-serif;font-variant-ligatures:normal;font-variant-position:normal;font-variant-caps:normal;font-variant-numeric:normal;font-variant-alternates:normal;font-feature-settings:normal;text-indent:0;text-align:start;text-decoration:none;text-decoration-line:none;text-decoration-style:solid;text-decoration-color:#000000;letter-spacing:normal;word-spacing:normal;text-transform:none;writing-mode:lr-tb;direction:ltr;text-orientation:mixed;dominant-baseline:auto;baseline-shift:baseline;text-anchor:start;white-space:normal;shape-padding:0;clip-rule:nonzero;display:inline;overflow:visible;visibility:visible;opacity:1;isolation:auto;mix-blend-mode:normal;color-interpolation:sRGB;color-interpolation-filters:linearRGB;solid-color:#000000;solid-opacity:1;vector-effect:none;fill:#000000;fill-opacity:1;fill-rule:nonzero;stroke:none;stroke-width:20.54706573;stroke-linecap:butt;stroke-linejoin:miter;stroke-miterlimit:4;stroke-dasharray:none;stroke-dashoffset:0;stroke-opacity:1;color-rendering:auto;image-rendering:auto;shape-rendering:auto;text-rendering:auto;enable-background:accumulate"
       d="m 1637.0098,34.211303 -19.875,5.20899 c 0,0 1.0579,4.08673 3.291,8.70898 2.2331,4.62225 5.4805,10.65376 12.7773,14.39258 l 9.3692,-18.28711 c -0.1814,-0.0929 -2.3395,-2.34157 -3.6446,-5.04297 -1.305,-2.70139 -1.9179,-4.98047 -1.9179,-4.98047 z"
       id="path7200"
       inkscape:connector-curvature="0" />
    <path
       style="color:#000000;font-style:normal;font-variant:normal;font-weight:normal;font-stretch:normal;font-size:medium;line-height:normal;font-family:sans-serif;font-variant-ligatures:normal;font-variant-position:normal;font-variant-caps:normal;font-variant-numeric:normal;font-variant-alternates:normal;font-feature-settings:normal;text-indent:0;text-align:start;text-decoration:none;text-decoration-line:none;text-decoration-style:solid;text-decoration-color:#000000;letter-spacing:normal;word-spacing:normal;text-transform:none;writing-mode:lr-tb;direction:ltr;text-orientation:mixed;dominant-baseline:auto;baseline-shift:baseline;text-anchor:start;white-space:normal;shape-padding:0;clip-rule:nonzero;display:inline;overflow:visible;visibility:visible;opacity:1;isolation:auto;mix-blend-mode:normal;color-interpolation:sRGB;color-interpolation-filters:linearRGB;solid-color:#000000;solid-opacity:1;vector-effect:none;fill:#000000;fill-opacity:1;fill-rule:nonzero;stroke:none;stroke-width:35.76883698;stroke-linecap:butt;stroke-linejoin:miter;stroke-miterlimit:4;stroke-dasharray:none;stroke-dashoffset:0;stroke-opacity:1;color-rendering:auto;image-rendering:auto;shape-rendering:auto;text-rendering:auto;enable-background:accumulate"
       d="m 2035.4531,-84.392207 c -137.8391,-0.0401 -232.5294,55.30215 -286.9941,138.09375 -54.4694,82.798767 -69.6684,190.913917 -57.7637,297.933587 11.9048,107.01968 50.9661,213.41654 108.6328,294.2168 57.6667,80.80026 135.3052,137.08666 223.6133,136.56056 88.2665,-0.5258 165.2717,-57.40361 222.5977,-138.47658 57.326,-81.07297 96.3124,-187.42779 109.2597,-294.18164 12.9474,-106.75385 -0.02,-214.29872 -50.3203,-296.769527 -50.2955,-82.46279 -139.4196,-137.84323 -269.0254,-137.37695 z m 0.022,35.76758 h 0.037 0.035 c 119.7006,-0.44066 193.9459,47.3580302 238.3945,120.23437 44.4486,72.876337 57.5985,172.843227 45.3496,273.837887 -12.2488,100.99466 -49.7744,202.62466 -102.957,277.83789 -53.1827,75.21323 -120.6836,122.923 -193.6055,123.35742 -72.8803,0.43417 -140.8535,-46.70126 -194.2871,-121.57031 -53.4336,-74.86905 -90.9617,-176.38906 -102.1973,-277.39258 -11.2355,-101.00351 3.8754,-201.01769 52.0977,-274.320307 48.2223,-73.30261975 128.5957,-122.03073 257.1328,-121.98437 z"
       id="path10-9-9-0-9-1"
       inkscape:connector-curvature="0" />
    <path
       style="color:#000000;font-style:normal;font-variant:normal;font-weight:normal;font-stretch:normal;font-size:medium;line-height:normal;font-family:sans-serif;font-variant-ligatures:normal;font-variant-position:normal;font-variant-caps:normal;font-variant-numeric:normal;font-variant-alternates:normal;font-feature-settings:normal;text-indent:0;text-align:start;text-decoration:none;text-decoration-line:none;text-decoration-style:solid;text-decoration-color:#000000;letter-spacing:normal;word-spacing:normal;text-transform:none;writing-mode:lr-tb;direction:ltr;text-orientation:mixed;dominant-baseline:auto;baseline-shift:baseline;text-anchor:start;white-space:normal;shape-padding:0;clip-rule:nonzero;display:inline;overflow:visible;visibility:visible;opacity:1;isolation:auto;mix-blend-mode:normal;color-interpolation:sRGB;color-interpolation-filters:linearRGB;solid-color:#000000;solid-opacity:1;vector-effect:none;fill:#000000;fill-opacity:1;fill-rule:nonzero;stroke:none;stroke-width:17.88441849;stroke-linecap:butt;stroke-linejoin:miter;stroke-miterlimit:4;stroke-dasharray:none;stroke-dashoffset:0;stroke-opacity:1;color-rendering:auto;image-rendering:auto;shape-rendering:auto;text-rendering:auto;enable-background:accumulate"
       d="m 2016.3184,346.39294 c 0,0 -2.0169,19.90649 -5.3536,40.81641 -1.6683,10.45496 -3.6783,21.16012 -5.8378,29.47852 -1.0798,4.15919 -2.2097,7.73049 -3.2227,10.19335 -1.013,2.46287 -2.3224,3.75177 -1.3828,2.96875 -1.979,1.64919 -4.0736,3.02491 -5.1699,7.41016 -0.5482,2.19262 -0.2337,5.45931 1.166,7.74024 1.3996,2.28092 3.2177,3.39736 4.5937,4.04492 5.5043,2.59021 8.3317,1.596 12.0742,1.33789 7.4851,-0.51623 15.5899,-2.18555 15.5899,-2.18555 l -3.5078,-17.53711 c 0,0 -2.8032,0.48827 -6.1758,0.99609 1.2044,-3.21075 2.3347,-6.58041 3.3457,-10.4746 2.4134,-9.29601 4.4704,-20.38163 6.1895,-31.1543 3.438,-21.54534 5.4863,-41.83594 5.4863,-41.83594 z"
       id="path971-3-7-5-3"
       inkscape:connector-curvature="0" />
    <path
       style="color:#000000;font-style:normal;font-variant:normal;font-weight:normal;font-stretch:normal;font-size:medium;line-height:normal;font-family:sans-serif;font-variant-ligatures:normal;font-variant-position:normal;font-variant-caps:normal;font-variant-numeric:normal;font-variant-alternates:normal;font-feature-settings:normal;text-indent:0;text-align:start;text-decoration:none;text-decoration-line:none;text-decoration-style:solid;text-decoration-color:#000000;letter-spacing:normal;word-spacing:normal;text-transform:none;writing-mode:lr-tb;direction:ltr;text-orientation:mixed;dominant-baseline:auto;baseline-shift:baseline;text-anchor:start;white-space:normal;shape-padding:0;clip-rule:nonzero;display:inline;overflow:visible;visibility:visible;opacity:1;isolation:auto;mix-blend-mode:normal;color-interpolation:sRGB;color-interpolation-filters:linearRGB;solid-color:#000000;solid-opacity:1;vector-effect:none;fill:#000000;fill-opacity:1;fill-rule:nonzero;stroke:none;stroke-width:12.5549612;stroke-linecap:butt;stroke-linejoin:miter;stroke-miterlimit:4;stroke-dasharray:none;stroke-dashoffset:0;stroke-opacity:1;color-rendering:auto;image-rendering:auto;shape-rendering:auto;text-rendering:auto;enable-background:accumulate"
       d="m 1.8535156,-33.169557 0.2578125,12.55078 c 0,0 52.3808819,-1.08757 156.3593719,10.8535202 L 288.10938,15.217163 c 0.11684,0.029 5.50123,1.36574 11.72265,3.78321 6.28914,2.44378 13.12966,6.50687 14.86328,8.89062 l 1.39453,1.91406 2.31055,0.51953 c 2.09906,0.47057 12.45458,2.50835 29.56641,5.60157 17.11182,3.09321 40.21645,7.06863 65.40429,10.86523 50.3757,7.59321 108.75528,14.55601 145.28907,12.09961 l 1.53515,-0.10352 1.3125,-0.80078 c 6.53397,-3.98752 11.75102,-1.85532 14.21289,1.98828 2.46187,3.84361 3.06333,10.65576 -7.13867,19.75586 l -0.004,0.004 -0.006,0.006 c 0,0 -3.30531,3.15017 -13.43946,6.91211 -10.13414,3.76194 -26.57683,7.6519 -51.25195,7.50586 h -0.19727 l -0.19921,0.01 c 0,0 -30.77338,1.76928 -63.32813,2.16407 -16.27737,0.19739 -33.00258,0.0465 -46.38281,-0.82032 -6.69012,-0.43339 -12.55265,-1.05246 -16.97071,-1.8457 -4.41806,-0.79324 -7.57354,-2.19585 -7.62866,-2.2368 l -7.43384,10.117657 c 3.65763,2.71706 7.66479,3.5467 12.84375,4.47656 5.17897,0.92986 11.39958,1.56363 18.37696,2.01563 13.95475,0.904 30.89114,1.04722 47.34765,0.84765 32.91303,-0.39913 63.89649,-2.18359 63.89649,-2.18359 l -0.39844,0.01 c 26.03104,0.15406 44.04753,-3.96719 55.69531,-8.291017 11.63113,-4.31764 17.42093,-9.30797 17.4375,-9.32227 l 0.006,-0.006 c 13.15032,-11.73406 15.48707,-26.30543 9.34766,-35.89062 -5.82894,-9.10047 -18.47074,-12.4592 -29.54492,-6.80469 -34.13115,2.0919 -91.93005,-4.5508 -141.50586,-12.02343 -25.02957,-3.77275 -48.02517,-7.72848 -65.04297,-10.80469 -16.00873,-2.89381 -25.84124,-4.86955 -27.33008,-5.17188 -5.07982,-5.48605 -12.17168,-8.6463498 -18.49023,-11.1015598 -7.13454,-2.77228 -13.34961,-4.29492 -13.34961,-4.29492 l -0.1543,-0.0371 -130.51758,-25.1523402 -0.23828,-0.0273 C 55.424331,-34.248327 1.8535156,-33.169557 1.8535156,-33.169557 Z"
       id="path8287"
       inkscape:connector-curvature="0"
       sodipodi:nodetypes="ccccscccsscccccccscccscsccsssccsccscsscsccccc" />
    <path
       style="color:#000000;font-style:normal;font-variant:normal;font-weight:normal;font-stretch:normal;font-size:medium;line-height:normal;font-family:sans-serif;font-variant-ligatures:normal;font-variant-position:normal;font-variant-caps:normal;font-variant-numeric:normal;font-variant-alternates:normal;font-feature-settings:normal;text-indent:0;text-align:start;text-decoration:none;text-decoration-line:none;text-decoration-style:solid;text-decoration-color:#000000;letter-spacing:normal;word-spacing:normal;text-transform:none;writing-mode:lr-tb;direction:ltr;text-orientation:mixed;dominant-baseline:auto;baseline-shift:baseline;text-anchor:start;white-space:normal;shape-padding:0;clip-rule:nonzero;display:inline;overflow:visible;visibility:visible;opacity:1;isolation:auto;mix-blend-mode:normal;color-interpolation:sRGB;color-interpolation-filters:linearRGB;solid-color:#000000;solid-opacity:1;vector-effect:none;fill:#000000;fill-opacity:1;fill-rule:nonzero;stroke:none;stroke-width:12.5549612;stroke-linecap:butt;stroke-linejoin:miter;stroke-miterlimit:4;stroke-dasharray:none;stroke-dashoffset:0;stroke-opacity:1;color-rendering:auto;image-rendering:auto;shape-rendering:auto;text-rendering:auto;enable-background:accumulate"
       d="m 160.11914,-22.214477 -1.43359,12.4726602 c 65.50927,7.52775 101.60964,10.47652005 123.10351,13.17383 21.49387,2.6973 27.18283,4.63339 35.22071,10.7792898 l -0.72852,-0.65234 c 4.73813,4.96371 11.52658,7.63111 19.40039,10.12695 7.87381,2.49584 16.83662,4.44126 25.36328,5.9707 17.05332,3.05889 32.42969,4.42383 32.42969,4.42383 l 0.31055,0.0273 0.31445,-0.004 c 55.29338,-0.59445 76.79492,5.75391 76.79492,5.75391 l -0.29492,-0.0937 c 21.14541,7.26872 64.19575,11.34154 103.07617,14.12695 38.23661,2.73928 71.09453,3.84789 72.19531,3.88477 5.4187,1.05068 9.68627,6.61913 9.94922,13.23046 0.26561,6.67819 -2.87544,13.99363 -14.95117,18.31836 l -2.44531,0.87696 -0.83203,1.7539 c -0.0523,0.0479 -0.12535,0.13465 -0.45118,0.29883 -0.81147,0.40891 -2.3368,0.95005 -4.23046,1.40625 -3.78734,0.91241 -9.0345,1.55955 -14.20313,1.94336 -10.33726,0.76762 -20.35547,0.56836 -20.35547,0.56836 l -6.04492,-0.125 -0.35352,6.033197 c -0.2203,3.762 -1.69084,6.38103 -4.24609,8.86524 -2.55525,2.48421 -6.27908,4.57215 -10.16211,6.0664 -3.88302,1.49426 -7.89221,2.41442 -10.8164,2.88282 -1.24833,0.19995 -2.15415,0.28271 -2.86329,0.33789 l -97.1289,-1.26758 0.23828,0.008 c -12.7557,-0.65337 -19.04307,-0.99717 -24.75391,1.93555 -2.85541,1.46636 -5.33716,5.41935 -5.33203,8.46484 0.005,3.0455 0.9801,4.93887 1.77539,6.75586 1.59059,3.63398 3.1523,6.85641 3.26953,9.99805 0.11176,2.99463 -0.69177,6.33491 -5.60742,11.26172 -20.08076,9.39076 -42.48893,12.1601 -59.75195,12.4375 -17.0038,0.27347 -28.69336,-1.74219 -28.69336,-1.74219 l 0.24219,0.0449 c -27.47202,-5.84311 -58.64011,0.85676 -84.17774,8.95508 -12.76881,4.04916 -24.12251,8.50382 -32.7832,12.0918 -8.66069,3.58797 -15.57417,6.54384 -15.96094,6.66015 l -1.97461,0.59571 -1.23828,1.65039 c -0.36198,0.48264 -4.51608,3.06515 -10.55078,4.57812 -6.0347,1.51297 -13.72503,2.54882 -21.21875,3.13086 -7.49372,0.58204 -14.83,0.72723 -20.25586,0.58399 -2.71293,-0.0716 -4.96784,-0.22214 -6.38281,-0.39063 -0.0192,-0.002 -0.0163,-0.004 -0.0352,-0.006 l -0.6289,-0.83789 -3.17774,0.0312 C 93.222059,205.74896 56.59375,175.41052 56.59375,175.41052 l 0.169922,0.14649 C 40.145281,160.76653 24.469066,158.69954 0.33984375,158.43201 L 0.20117188,170.98474 C 23.85974,171.24706 34.055983,172.15539 48.416016,184.93591 l 0.08398,0.0742 0.08594,0.0703 c 0,0 39.570223,32.69906 99.847654,32.61328 0.25754,0.082 0.56155,0.20712 0.79493,0.26563 0.95208,0.23869 1.84242,0.37016 2.86718,0.49219 2.04953,0.24405 4.56614,0.39622 7.53516,0.47461 5.93803,0.15677 13.6024,9.2e-4 21.56055,-0.61719 7.95814,-0.61811 16.16944,-1.68329 23.29882,-3.4707 6.31005,-1.58201 11.85728,-3.41341 15.93946,-7.60547 3.55612,-1.2594 8.07186,-3.36432 15.53711,-6.45703 8.47095,-3.50937 19.4912,-7.82975 31.77343,-11.72461 24.56448,-7.78972 54.21261,-13.65144 77.77149,-8.64063 l 0.12109,0.0254 0.1211,0.0215 c 0,0 12.91761,2.21306 31.02343,1.92187 18.68004,-0.30017 43.21291,-3.16873 65.97071,-14.09961 l 0.89453,-0.42969 0.71875,-0.68359 c 7.48806,-7.1378 10.36373,-14.90105 10.11719,-21.50781 -0.23177,-6.2106 -2.65252,-10.88011 -4.00782,-13.85547 2.44124,-0.30483 7.00394,-0.74471 15.86133,-0.29102 l 0.11914,0.006 95.13672,1.24219 c 0.23093,0.0263 0.54094,0.0813 0.7168,0.0898 0.65083,0.0318 1.17645,0.0129 1.80078,-0.0234 1.24866,-0.0727 2.782,-0.24081 4.60742,-0.53321 3.65085,-0.58479 8.39916,-1.66048 13.3418,-3.5625 4.94264,-1.90201 10.11222,-4.61235 14.40234,-8.7832 3.01998,-2.93601 5.49995,-6.76459 6.88477,-11.2168 4.07235,-0.0135 9.60683,-0.10883 16.29492,-0.60546 5.5453,-0.41178 11.24873,-1.06386 16.21289,-2.25977 2.48208,-0.59796 4.78267,-1.31259 6.94141,-2.40039 1.48636,-0.74899 3.01903,-1.7159 4.30273,-3.19727 14.71757,-6.119297 21.72282,-18.411707 21.27148,-29.759757 -0.47212,-11.87066 -8.33426,-23.02259 -20.47265,-25.16016 l -0.43555,-0.0762 -0.44531,-0.0156 c 0,0 -33.8391,-1.12332 -72.43945,-3.88867 -38.60036,-2.76534 -82.63136,-7.5437 -99.89063,-13.47656 l -0.14648,-0.0488 -0.14844,-0.043 c 0,0 -24.00457,-6.80951 -79.9961,-6.24609 -0.30487,-0.0274 -14.90017,-1.34454 -31.13085,-4.25586 -8.20036,-1.47091 -16.75092,-3.35036 -23.78516,-5.58008 -7.03425,-2.2297098 -12.54867,-5.1891098 -14.11133,-6.8261698 l -0.33789,-0.35547 -0.39062,-0.29687 c -9.60683,-7.34555 -19.19353,-10.49184 -41.28125,-13.26368 C 261.26579,-11.796737 225.4776,-14.703927 160.11914,-22.214357 Z"
       id="path8289"
       inkscape:connector-curvature="0" />
    <path
       style="color:#000000;font-style:normal;font-variant:normal;font-weight:normal;font-stretch:normal;font-size:medium;line-height:normal;font-family:sans-serif;font-variant-ligatures:normal;font-variant-position:normal;font-variant-caps:normal;font-variant-numeric:normal;font-variant-alternates:normal;font-feature-settings:normal;text-indent:0;text-align:start;text-decoration:none;text-decoration-line:none;text-decoration-style:solid;text-decoration-color:#000000;letter-spacing:normal;word-spacing:normal;text-transform:none;writing-mode:lr-tb;direction:ltr;text-orientation:mixed;dominant-baseline:auto;baseline-shift:baseline;text-anchor:start;white-space:normal;shape-padding:0;clip-rule:nonzero;display:inline;overflow:visible;visibility:visible;opacity:1;isolation:auto;mix-blend-mode:normal;color-interpolation:sRGB;color-interpolation-filters:linearRGB;solid-color:#000000;solid-opacity:1;vector-effect:none;fill:#000000;fill-opacity:1;fill-rule:nonzero;stroke:none;stroke-width:12.5549612;stroke-linecap:butt;stroke-linejoin:miter;stroke-miterlimit:4;stroke-dasharray:none;stroke-dashoffset:0;stroke-opacity:1;color-rendering:auto;image-rendering:auto;shape-rendering:auto;text-rendering:auto;enable-background:accumulate"
       d="m 516.70312,94.051153 -0.32617,12.550777 81.67969,2.12109 0.32617,-12.550777 z"
       id="path8291"
       inkscape:connector-curvature="0" />
    <path
       style="color:#000000;font-style:normal;font-variant:normal;font-weight:normal;font-stretch:normal;font-size:medium;line-height:normal;font-family:sans-serif;font-variant-ligatures:normal;font-variant-position:normal;font-variant-caps:normal;font-variant-numeric:normal;font-variant-alternates:normal;font-feature-settings:normal;text-indent:0;text-align:start;text-decoration:none;text-decoration-line:none;text-decoration-style:solid;text-decoration-color:#000000;letter-spacing:normal;word-spacing:normal;text-transform:none;writing-mode:lr-tb;direction:ltr;text-orientation:mixed;dominant-baseline:auto;baseline-shift:baseline;text-anchor:start;white-space:normal;shape-padding:0;clip-rule:nonzero;display:inline;overflow:visible;visibility:visible;opacity:1;isolation:auto;mix-blend-mode:normal;color-interpolation:sRGB;color-interpolation-filters:linearRGB;solid-color:#000000;solid-opacity:1;vector-effect:none;fill:#000000;fill-opacity:1;fill-rule:nonzero;stroke:none;stroke-width:12.5549612;stroke-linecap:butt;stroke-linejoin:miter;stroke-miterlimit:4;stroke-dasharray:none;stroke-dashoffset:0;stroke-opacity:1;color-rendering:auto;image-rendering:auto;shape-rendering:auto;text-rendering:auto;enable-background:accumulate"
       d="m 365.18164,89.916383 c -1.32974,-0.15418 -2.59033,-0.0215 -3.57422,0.20508 -1.96777,0.45323 -3.52062,1.19223 -5.21289,2.04101 -3.38454,1.69757 -7.22447,3.99538 -12.17383,6.45704 -9.8987,4.923297 -23.96116,10.490047 -44.1914,11.753897 l 0.78125,12.5293 c 22.18644,-1.38606 38.19914,-7.66901 49,-13.04102 5.40042,-2.686 9.5651,-5.14853 12.21289,-6.47656 1.32389,-0.66402 2.29433,-1.00442 2.40234,-1.0293 0.10801,-0.0249 -1.33385,0.17471 -2.63281,-0.76953 l 7.38086,-10.156247 c -1.26351,-0.91847 -2.66245,-1.35949 -3.99219,-1.51367 z"
       id="path8295"
       inkscape:connector-curvature="0" />
    <path
       style="color:#000000;font-style:normal;font-variant:normal;font-weight:normal;font-stretch:normal;font-size:medium;line-height:normal;font-family:sans-serif;font-variant-ligatures:normal;font-variant-position:normal;font-variant-caps:normal;font-variant-numeric:normal;font-variant-alternates:normal;font-feature-settings:normal;text-indent:0;text-align:start;text-decoration:none;text-decoration-line:none;text-decoration-style:solid;text-decoration-color:#000000;letter-spacing:normal;word-spacing:normal;text-transform:none;writing-mode:lr-tb;direction:ltr;text-orientation:mixed;dominant-baseline:auto;baseline-shift:baseline;text-anchor:start;white-space:normal;shape-padding:0;clip-rule:nonzero;display:inline;overflow:visible;visibility:visible;opacity:1;isolation:auto;mix-blend-mode:normal;color-interpolation:sRGB;color-interpolation-filters:linearRGB;solid-color:#000000;solid-opacity:1;vector-effect:none;fill:#000000;fill-opacity:1;fill-rule:nonzero;stroke:none;stroke-width:12.556633;stroke-linecap:butt;stroke-linejoin:miter;stroke-miterlimit:4;stroke-dasharray:none;stroke-dashoffset:0;stroke-opacity:1;color-rendering:auto;image-rendering:auto;shape-rendering:auto;text-rendering:auto;enable-background:accumulate"
       d="m 295.35938,118.7113 c -3.47035,0.0662 -6.75718,1.27313 -9.97071,2.86524 -4.2847,2.12281 -8.61114,5.17605 -13.09961,8.85156 -8.97693,7.35102 -18.53564,17.24471 -27.43554,27.24219 -17.7998,19.99494 -32.89454,40.44922 -32.89454,40.44922 l 10.10157,7.45898 c 0,0 14.85687,-20.10823 32.17187,-39.55859 8.6575,-9.72519 17.9468,-19.27276 26.01172,-25.87696 4.03246,-3.30209 7.7732,-5.85511 10.71875,-7.31445 2.94555,-1.45934 4.92319,-1.5793 5.28125,-1.50195 l 2.65039,-12.27344 c -1.20175,-0.25959 -2.37837,-0.36388 -3.53515,-0.3418 z"
       id="path8301"
       inkscape:connector-curvature="0" />
    <path
       style="color:#000000;font-style:normal;font-variant:normal;font-weight:normal;font-stretch:normal;font-size:medium;line-height:normal;font-family:sans-serif;font-variant-ligatures:normal;font-variant-position:normal;font-variant-caps:normal;font-variant-numeric:normal;font-variant-alternates:normal;font-feature-settings:normal;text-indent:0;text-align:start;text-decoration:none;text-decoration-line:none;text-decoration-style:solid;text-decoration-color:#000000;letter-spacing:normal;word-spacing:normal;text-transform:none;writing-mode:lr-tb;direction:ltr;text-orientation:mixed;dominant-baseline:auto;baseline-shift:baseline;text-anchor:start;white-space:normal;shape-padding:0;clip-rule:nonzero;display:inline;overflow:visible;visibility:visible;opacity:1;isolation:auto;mix-blend-mode:normal;color-interpolation:sRGB;color-interpolation-filters:linearRGB;solid-color:#000000;solid-opacity:1;vector-effect:none;fill:#000000;fill-opacity:1;fill-rule:nonzero;stroke:none;stroke-width:12.5549612;stroke-linecap:butt;stroke-linejoin:miter;stroke-miterlimit:4;stroke-dasharray:none;stroke-dashoffset:0;stroke-opacity:1;color-rendering:auto;image-rendering:auto;shape-rendering:auto;text-rendering:auto;enable-background:accumulate"
       d="M 266.66797,97.238653 C 190.66256,117.91468 134.47987,130.40757 94.216797,134.98279 53.953724,139.558 30.09613,135.78102 18.275391,126.65857 l -7.671875,9.93945 c 16.593202,12.80552 43.53107,15.57517 85.03125,10.85938 41.500184,-4.7158 98.049294,-17.3531 174.328124,-38.10352 z"
       id="path8305"
       inkscape:connector-curvature="0" />
    <path
       style="color:#000000;font-style:normal;font-variant:normal;font-weight:normal;font-stretch:normal;font-size:medium;line-height:normal;font-family:sans-serif;font-variant-ligatures:normal;font-variant-position:normal;font-variant-caps:normal;font-variant-numeric:normal;font-variant-alternates:normal;font-feature-settings:normal;text-indent:0;text-align:start;text-decoration:none;text-decoration-line:none;text-decoration-style:solid;text-decoration-color:#000000;letter-spacing:normal;word-spacing:normal;text-transform:none;writing-mode:lr-tb;direction:ltr;text-orientation:mixed;dominant-baseline:auto;baseline-shift:baseline;text-anchor:start;white-space:normal;shape-padding:0;clip-rule:nonzero;display:inline;overflow:visible;visibility:visible;opacity:1;isolation:auto;mix-blend-mode:normal;color-interpolation:sRGB;color-interpolation-filters:linearRGB;solid-color:#000000;solid-opacity:1;vector-effect:none;fill:#000000;fill-opacity:1;fill-rule:nonzero;stroke:none;stroke-width:12.556633;stroke-linecap:butt;stroke-linejoin:miter;stroke-miterlimit:4;stroke-dasharray:none;stroke-dashoffset:0;stroke-opacity:1;color-rendering:auto;image-rendering:auto;shape-rendering:auto;text-rendering:auto;enable-background:accumulate"
       d="m 298.89453,119.0531 -2.87695,12.21875 c 29.5302,7.53811 67.5014,7.54507 98.38867,5.85547 30.88727,-1.68961 54.68945,-5.20899 54.68945,-5.20899 l -1.83593,-12.42187 c 0,0 -23.24826,3.43482 -53.53907,5.0918 -30.2908,1.65697 -67.85155,1.3506 -94.82617,-5.53516 z"
       id="path7830"
       inkscape:connector-curvature="0"
       sodipodi:nodetypes="ccsccsc" />
    <path
       style="color:#000000;font-style:normal;font-variant:normal;font-weight:normal;font-stretch:normal;font-size:medium;line-height:normal;font-family:sans-serif;font-variant-ligatures:normal;font-variant-position:normal;font-variant-caps:normal;font-variant-numeric:normal;font-variant-alternates:normal;font-feature-settings:normal;text-indent:0;text-align:start;text-decoration:none;text-decoration-line:none;text-decoration-style:solid;text-decoration-color:#000000;letter-spacing:normal;word-spacing:normal;text-transform:none;writing-mode:lr-tb;direction:ltr;text-orientation:mixed;dominant-baseline:auto;baseline-shift:baseline;text-anchor:start;white-space:normal;shape-padding:0;clip-rule:nonzero;display:inline;overflow:visible;visibility:visible;opacity:1;isolation:auto;mix-blend-mode:normal;color-interpolation:sRGB;color-interpolation-filters:linearRGB;solid-color:#000000;solid-opacity:1;vector-effect:none;fill:#000000;fill-opacity:1;fill-rule:nonzero;stroke:none;stroke-width:11.32336712;stroke-linecap:butt;stroke-linejoin:miter;stroke-miterlimit:4;stroke-dasharray:none;stroke-dashoffset:0;stroke-opacity:1;color-rendering:auto;image-rendering:auto;shape-rendering:auto;text-rendering:auto;enable-background:accumulate"
       d="m 1514.0801,225.4906 2.2969,119.64844 40.3359,-35.73633 89.416,102.72266 4.2754,-3.79493 37.4941,-33.2832 -91.5468,-98.0625 38.0019,-33.38281 z m 11.5801,13.19336 82.9179,12.48828 -28.4687,25.00977 91.5879,98.10546 -24.5352,21.7793 -89.4082,-102.71484 -30.5254,27.04492 z"
       id="path7867"
       inkscape:connector-curvature="0" />
    <path
       inkscape:connector-curvature="0"
       id="path29-3-1-2"
       d="m 699.67738,532.06956 c -15.12223,0.60152 -29.16376,4.7786 -41.52359,10.69541 -39.55085,18.93391 -63.97385,55.47597 -63.97385,55.47597 l -15.21271,22.37923 25.5352,-8.9527 c 0,0 95.66915,-33.21336 193.63169,-1.33971 l 27.04335,8.80037 -17.17841,-22.66525 c -26.97436,-35.58803 -54.13195,-54.25143 -80.06084,-61.21575 -9.72349,-2.61163 -19.18698,-3.53843 -28.26084,-3.17757 z m 0.59352,17.76679 c 7.3876,-0.28839 15.0716,0.4923 23.04115,2.633 16.09022,4.32177 33.70517,14.38379 52.29851,33.49413 -60.89297,-13.21704 -116.51194,-5.66626 -148.59831,1.40226 9.8283,-9.82351 23.06933,-20.96335 38.8419,-28.51401 10.61686,-5.08229 22.10526,-8.53478 34.41675,-9.01538 z"
       style="color:#000000;font-style:normal;font-variant:normal;font-weight:normal;font-stretch:normal;font-size:medium;line-height:normal;font-family:sans-serif;font-variant-ligatures:normal;font-variant-position:normal;font-variant-caps:normal;font-variant-numeric:normal;font-variant-alternates:normal;font-feature-settings:normal;text-indent:0;text-align:start;text-decoration:none;text-decoration-line:none;text-decoration-style:solid;text-decoration-color:#000000;letter-spacing:normal;word-spacing:normal;text-transform:none;writing-mode:lr-tb;direction:ltr;text-orientation:mixed;dominant-baseline:auto;baseline-shift:baseline;text-anchor:start;white-space:normal;shape-padding:0;clip-rule:nonzero;display:inline;overflow:visible;visibility:visible;opacity:1;isolation:auto;mix-blend-mode:normal;color-interpolation:sRGB;color-interpolation-filters:linearRGB;solid-color:#000000;solid-opacity:1;vector-effect:none;fill:#000000;fill-opacity:1;fill-rule:nonzero;stroke:none;stroke-width:17.83223152;stroke-linecap:butt;stroke-linejoin:miter;stroke-miterlimit:4;stroke-dasharray:none;stroke-dashoffset:0;stroke-opacity:1;color-rendering:auto;image-rendering:auto;shape-rendering:auto;text-rendering:auto;enable-background:accumulate" />
    <path
       inkscape:connector-curvature="0"
       id="path59-17-2-08"
       d="m 585.50776,124.62614 c -35.1189,-0.64437 -68.55608,24.94897 -110.89224,75.60896 l 13.68534,11.4334 c 41.22563,-49.33141 70.9273,-69.68907 96.87983,-69.21277 25.95253,0.47618 53.86836,22.05812 91.06149,65.67839 l 13.57037,-11.56948 c -38.09844,-44.68278 -69.18637,-71.29389 -104.30479,-71.9385 z"
       style="color:#000000;font-style:normal;font-variant:normal;font-weight:normal;font-stretch:normal;font-size:medium;line-height:normal;font-family:sans-serif;font-variant-ligatures:normal;font-variant-position:normal;font-variant-caps:normal;font-variant-numeric:normal;font-variant-alternates:normal;font-feature-settings:normal;text-indent:0;text-align:start;text-decoration:none;text-decoration-line:none;text-decoration-style:solid;text-decoration-color:#000000;letter-spacing:normal;word-spacing:normal;text-transform:none;writing-mode:lr-tb;direction:ltr;text-orientation:mixed;dominant-baseline:auto;baseline-shift:baseline;text-anchor:start;white-space:normal;shape-padding:0;clip-rule:nonzero;display:inline;overflow:visible;visibility:visible;opacity:1;isolation:auto;mix-blend-mode:normal;color-interpolation:sRGB;color-interpolation-filters:linearRGB;solid-color:#000000;solid-opacity:1;vector-effect:none;fill:#000000;fill-opacity:1;fill-rule:nonzero;stroke:none;stroke-width:17.83223152;stroke-linecap:butt;stroke-linejoin:miter;stroke-miterlimit:4;stroke-dasharray:none;stroke-dashoffset:0;stroke-opacity:1;color-rendering:auto;image-rendering:auto;shape-rendering:auto;text-rendering:auto;enable-background:accumulate" />
    <path
       inkscape:connector-curvature="0"
       id="path59-1-8-7-1"
       d="m 583.60163,249.39664 c -24.03971,-0.8645 -49.18063,8.80586 -78.70502,30.61331 l 10.59514,14.34415 c 27.68761,-20.45125 48.59487,-27.81486 67.46705,-27.13622 18.87255,0.67875 37.07052,9.59683 58.80348,25.18675 l 10.39316,-14.49134 c -22.93431,-16.45167 -44.51423,-27.65204 -68.55381,-28.51665 z"
       style="color:#000000;font-style:normal;font-variant:normal;font-weight:normal;font-stretch:normal;font-size:medium;line-height:normal;font-family:sans-serif;font-variant-ligatures:normal;font-variant-position:normal;font-variant-caps:normal;font-variant-numeric:normal;font-variant-alternates:normal;font-feature-settings:normal;text-indent:0;text-align:start;text-decoration:none;text-decoration-line:none;text-decoration-style:solid;text-decoration-color:#000000;letter-spacing:normal;word-spacing:normal;text-transform:none;writing-mode:lr-tb;direction:ltr;text-orientation:mixed;dominant-baseline:auto;baseline-shift:baseline;text-anchor:start;white-space:normal;shape-padding:0;clip-rule:nonzero;display:inline;overflow:visible;visibility:visible;opacity:1;isolation:auto;mix-blend-mode:normal;color-interpolation:sRGB;color-interpolation-filters:linearRGB;solid-color:#000000;solid-opacity:1;vector-effect:none;fill:#000000;fill-opacity:1;fill-rule:nonzero;stroke:none;stroke-width:17.83223152;stroke-linecap:butt;stroke-linejoin:miter;stroke-miterlimit:4;stroke-dasharray:none;stroke-dashoffset:0;stroke-opacity:1;color-rendering:auto;image-rendering:auto;shape-rendering:auto;text-rendering:auto;enable-background:accumulate" />
    <path
       inkscape:connector-curvature="0"
       id="path59-17-5-5-94"
       d="m 823.30165,122.13209 c -35.11866,-0.64449 -68.55572,24.94885 -110.89189,75.60884 l 13.68235,11.43614 c 41.22552,-49.3314 70.93029,-69.69192 96.88282,-69.21551 25.95253,0.47618 53.8679,22.06087 91.06101,65.68125 l 13.56811,-11.56959 c -38.09867,-44.68279 -69.18398,-71.29664 -104.3024,-71.94113 z"
       style="color:#000000;font-style:normal;font-variant:normal;font-weight:normal;font-stretch:normal;font-size:medium;line-height:normal;font-family:sans-serif;font-variant-ligatures:normal;font-variant-position:normal;font-variant-caps:normal;font-variant-numeric:normal;font-variant-alternates:normal;font-feature-settings:normal;text-indent:0;text-align:start;text-decoration:none;text-decoration-line:none;text-decoration-style:solid;text-decoration-color:#000000;letter-spacing:normal;word-spacing:normal;text-transform:none;writing-mode:lr-tb;direction:ltr;text-orientation:mixed;dominant-baseline:auto;baseline-shift:baseline;text-anchor:start;white-space:normal;shape-padding:0;clip-rule:nonzero;display:inline;overflow:visible;visibility:visible;opacity:1;isolation:auto;mix-blend-mode:normal;color-interpolation:sRGB;color-interpolation-filters:linearRGB;solid-color:#000000;solid-opacity:1;vector-effect:none;fill:#000000;fill-opacity:1;fill-rule:nonzero;stroke:none;stroke-width:17.83223152;stroke-linecap:butt;stroke-linejoin:miter;stroke-miterlimit:4;stroke-dasharray:none;stroke-dashoffset:0;stroke-opacity:1;color-rendering:auto;image-rendering:auto;shape-rendering:auto;text-rendering:auto;enable-background:accumulate" />
    <path
       inkscape:connector-curvature="0"
       id="path59-1-8-3-2-9"
       d="m 821.39551,246.90522 c -24.0397,-0.86461 -49.18038,8.80575 -78.70477,30.6133 l 10.59478,14.34154 c 27.68808,-20.45138 48.59486,-27.81236 67.4674,-27.13361 18.87268,0.67875 37.06766,9.59671 58.80062,25.18663 l 10.39602,-14.49121 C 867.01501,258.97031 845.4351,247.76983 821.39551,246.90522 Z"
       style="color:#000000;font-style:normal;font-variant:normal;font-weight:normal;font-stretch:normal;font-size:medium;line-height:normal;font-family:sans-serif;font-variant-ligatures:normal;font-variant-position:normal;font-variant-caps:normal;font-variant-numeric:normal;font-variant-alternates:normal;font-feature-settings:normal;text-indent:0;text-align:start;text-decoration:none;text-decoration-line:none;text-decoration-style:solid;text-decoration-color:#000000;letter-spacing:normal;word-spacing:normal;text-transform:none;writing-mode:lr-tb;direction:ltr;text-orientation:mixed;dominant-baseline:auto;baseline-shift:baseline;text-anchor:start;white-space:normal;shape-padding:0;clip-rule:nonzero;display:inline;overflow:visible;visibility:visible;opacity:1;isolation:auto;mix-blend-mode:normal;color-interpolation:sRGB;color-interpolation-filters:linearRGB;solid-color:#000000;solid-opacity:1;vector-effect:none;fill:#000000;fill-opacity:1;fill-rule:nonzero;stroke:none;stroke-width:17.83223152;stroke-linecap:butt;stroke-linejoin:miter;stroke-miterlimit:4;stroke-dasharray:none;stroke-dashoffset:0;stroke-opacity:1;color-rendering:auto;image-rendering:auto;shape-rendering:auto;text-rendering:auto;enable-background:accumulate" />
    <path
       inkscape:connector-curvature="0"
       id="path29-3-1-2-4"
       d="m 2021.3376,532.06956 c -15.1223,0.60152 -29.1638,4.7786 -41.5236,10.69541 -39.5509,18.93391 -63.9739,55.47597 -63.9739,55.47597 l -15.2127,22.37923 25.5352,-8.9527 c 0,0 95.6692,-33.21336 193.6317,-1.33971 l 27.0433,8.80037 -17.1784,-22.66525 c -26.9743,-35.58803 -54.1319,-54.25143 -80.0608,-61.21575 -9.7235,-2.61163 -19.187,-3.53843 -28.2608,-3.17757 z m 0.5935,17.76679 c 7.3876,-0.28839 15.0716,0.4923 23.0411,2.633 16.0902,4.32177 33.7052,14.38379 52.2985,33.49413 -60.8929,-13.21704 -116.5119,-5.66626 -148.5983,1.40226 9.8283,-9.82351 23.0694,-20.96335 38.8419,-28.51401 10.6169,-5.08229 22.1053,-8.53478 34.4168,-9.01538 z"
       style="color:#000000;font-style:normal;font-variant:normal;font-weight:normal;font-stretch:normal;font-size:medium;line-height:normal;font-family:sans-serif;font-variant-ligatures:normal;font-variant-position:normal;font-variant-caps:normal;font-variant-numeric:normal;font-variant-alternates:normal;font-feature-settings:normal;text-indent:0;text-align:start;text-decoration:none;text-decoration-line:none;text-decoration-style:solid;text-decoration-color:#000000;letter-spacing:normal;word-spacing:normal;text-transform:none;writing-mode:lr-tb;direction:ltr;text-orientation:mixed;dominant-baseline:auto;baseline-shift:baseline;text-anchor:start;white-space:normal;shape-padding:0;clip-rule:nonzero;display:inline;overflow:visible;visibility:visible;opacity:1;isolation:auto;mix-blend-mode:normal;color-interpolation:sRGB;color-interpolation-filters:linearRGB;solid-color:#000000;solid-opacity:1;vector-effect:none;fill:#000000;fill-opacity:1;fill-rule:nonzero;stroke:none;stroke-width:17.83223152;stroke-linecap:butt;stroke-linejoin:miter;stroke-miterlimit:4;stroke-dasharray:none;stroke-dashoffset:0;stroke-opacity:1;color-rendering:auto;image-rendering:auto;shape-rendering:auto;text-rendering:auto;enable-background:accumulate" />
    <path
       inkscape:connector-curvature="0"
       id="path59-17-2-08-0"
       d="m 1907.1679,124.62614 c -35.1189,-0.64437 -68.556,24.94897 -110.8922,75.60895 l 13.6853,11.4334 c 41.2257,-49.3314 70.9273,-69.68906 96.8799,-69.21276 25.9525,0.47618 53.8683,22.05812 91.0615,65.67838 l 13.5703,-11.56948 c -38.0984,-44.68277 -69.1863,-71.29388 -104.3048,-71.93849 z"
       style="color:#000000;font-style:normal;font-variant:normal;font-weight:normal;font-stretch:normal;font-size:medium;line-height:normal;font-family:sans-serif;font-variant-ligatures:normal;font-variant-position:normal;font-variant-caps:normal;font-variant-numeric:normal;font-variant-alternates:normal;font-feature-settings:normal;text-indent:0;text-align:start;text-decoration:none;text-decoration-line:none;text-decoration-style:solid;text-decoration-color:#000000;letter-spacing:normal;word-spacing:normal;text-transform:none;writing-mode:lr-tb;direction:ltr;text-orientation:mixed;dominant-baseline:auto;baseline-shift:baseline;text-anchor:start;white-space:normal;shape-padding:0;clip-rule:nonzero;display:inline;overflow:visible;visibility:visible;opacity:1;isolation:auto;mix-blend-mode:normal;color-interpolation:sRGB;color-interpolation-filters:linearRGB;solid-color:#000000;solid-opacity:1;vector-effect:none;fill:#000000;fill-opacity:1;fill-rule:nonzero;stroke:none;stroke-width:17.83223152;stroke-linecap:butt;stroke-linejoin:miter;stroke-miterlimit:4;stroke-dasharray:none;stroke-dashoffset:0;stroke-opacity:1;color-rendering:auto;image-rendering:auto;shape-rendering:auto;text-rendering:auto;enable-background:accumulate" />
    <path
       inkscape:connector-curvature="0"
       id="path59-1-8-7-1-8"
       d="m 1905.2618,249.39664 c -24.0397,-0.8645 -49.1806,8.80586 -78.705,30.61331 l 10.5951,14.34415 c 27.6876,-20.45125 48.5949,-27.81486 67.4671,-27.13622 18.8725,0.67875 37.0705,9.59683 58.8035,25.18675 l 10.3931,-14.49134 c -22.9343,-16.45167 -44.5142,-27.65204 -68.5538,-28.51665 z"
       style="color:#000000;font-style:normal;font-variant:normal;font-weight:normal;font-stretch:normal;font-size:medium;line-height:normal;font-family:sans-serif;font-variant-ligatures:normal;font-variant-position:normal;font-variant-caps:normal;font-variant-numeric:normal;font-variant-alternates:normal;font-feature-settings:normal;text-indent:0;text-align:start;text-decoration:none;text-decoration-line:none;text-decoration-style:solid;text-decoration-color:#000000;letter-spacing:normal;word-spacing:normal;text-transform:none;writing-mode:lr-tb;direction:ltr;text-orientation:mixed;dominant-baseline:auto;baseline-shift:baseline;text-anchor:start;white-space:normal;shape-padding:0;clip-rule:nonzero;display:inline;overflow:visible;visibility:visible;opacity:1;isolation:auto;mix-blend-mode:normal;color-interpolation:sRGB;color-interpolation-filters:linearRGB;solid-color:#000000;solid-opacity:1;vector-effect:none;fill:#000000;fill-opacity:1;fill-rule:nonzero;stroke:none;stroke-width:17.83223152;stroke-linecap:butt;stroke-linejoin:miter;stroke-miterlimit:4;stroke-dasharray:none;stroke-dashoffset:0;stroke-opacity:1;color-rendering:auto;image-rendering:auto;shape-rendering:auto;text-rendering:auto;enable-background:accumulate" />
    <path
       inkscape:connector-curvature="0"
       id="path59-17-5-5-94-4"
       d="m 2144.9618,122.13209 c -35.1186,-0.64449 -68.5557,24.94885 -110.8919,75.60883 l 13.6824,11.43614 c 41.2255,-49.33139 70.9303,-69.69191 96.8828,-69.2155 25.9525,0.47618 53.8679,22.06087 91.061,65.68124 l 13.5681,-11.56959 c -38.0986,-44.68278 -69.184,-71.29663 -104.3024,-71.94112 z"
       style="color:#000000;font-style:normal;font-variant:normal;font-weight:normal;font-stretch:normal;font-size:medium;line-height:normal;font-family:sans-serif;font-variant-ligatures:normal;font-variant-position:normal;font-variant-caps:normal;font-variant-numeric:normal;font-variant-alternates:normal;font-feature-settings:normal;text-indent:0;text-align:start;text-decoration:none;text-decoration-line:none;text-decoration-style:solid;text-decoration-color:#000000;letter-spacing:normal;word-spacing:normal;text-transform:none;writing-mode:lr-tb;direction:ltr;text-orientation:mixed;dominant-baseline:auto;baseline-shift:baseline;text-anchor:start;white-space:normal;shape-padding:0;clip-rule:nonzero;display:inline;overflow:visible;visibility:visible;opacity:1;isolation:auto;mix-blend-mode:normal;color-interpolation:sRGB;color-interpolation-filters:linearRGB;solid-color:#000000;solid-opacity:1;vector-effect:none;fill:#000000;fill-opacity:1;fill-rule:nonzero;stroke:none;stroke-width:17.83223152;stroke-linecap:butt;stroke-linejoin:miter;stroke-miterlimit:4;stroke-dasharray:none;stroke-dashoffset:0;stroke-opacity:1;color-rendering:auto;image-rendering:auto;shape-rendering:auto;text-rendering:auto;enable-background:accumulate" />
    <path
       inkscape:connector-curvature="0"
       id="path59-1-8-3-2-9-2"
       d="m 2143.0557,246.90522 c -24.0397,-0.86461 -49.1804,8.80575 -78.7048,30.6133 l 10.5948,14.34154 c 27.6881,-20.45138 48.5949,-27.81236 67.4674,-27.13361 18.8727,0.67875 37.0677,9.59671 58.8006,25.18663 l 10.396,-14.49121 c -22.9345,-16.45156 -44.5144,-27.65204 -68.554,-28.51665 z"
       style="color:#000000;font-style:normal;font-variant:normal;font-weight:normal;font-stretch:normal;font-size:medium;line-height:normal;font-family:sans-serif;font-variant-ligatures:normal;font-variant-position:normal;font-variant-caps:normal;font-variant-numeric:normal;font-variant-alternates:normal;font-feature-settings:normal;text-indent:0;text-align:start;text-decoration:none;text-decoration-line:none;text-decoration-style:solid;text-decoration-color:#000000;letter-spacing:normal;word-spacing:normal;text-transform:none;writing-mode:lr-tb;direction:ltr;text-orientation:mixed;dominant-baseline:auto;baseline-shift:baseline;text-anchor:start;white-space:normal;shape-padding:0;clip-rule:nonzero;display:inline;overflow:visible;visibility:visible;opacity:1;isolation:auto;mix-blend-mode:normal;color-interpolation:sRGB;color-interpolation-filters:linearRGB;solid-color:#000000;solid-opacity:1;vector-effect:none;fill:#000000;fill-opacity:1;fill-rule:nonzero;stroke:none;stroke-width:17.83223152;stroke-linecap:butt;stroke-linejoin:miter;stroke-miterlimit:4;stroke-dasharray:none;stroke-dashoffset:0;stroke-opacity:1;color-rendering:auto;image-rendering:auto;shape-rendering:auto;text-rendering:auto;enable-background:accumulate" />
    <path
       style="font-style:normal;font-weight:normal;font-size:233.33332825px;line-height:1.25;font-family:sans-serif;letter-spacing:0px;word-spacing:0px;fill:#000000;fill-opacity:1;stroke:none"
       d="m 451.96875,852.1979 v 177.2794 h 21.41992 v -95.0196 c 5.84853,-4.4814 11.96354,-8.1665 18.34375,-11.0528 6.38021,-2.8863 12.49327,-4.3281 18.3418,-4.3281 5.69661,0 10.33051,0.7975 13.90039,2.3926 3.56988,1.5191 6.30425,3.8724 8.20312,7.0625 1.82292,2.8863 3.07618,6.9132 3.75977,12.0781 0.68359,5.089 1.02539,10.5577 1.02539,16.4063 v 72.461 h 21.41992 v -82.6017 c 0,-15.5707 -3.6085,-27.4963 -10.82422,-35.7754 -7.21571,-8.279 -17.69748,-12.4179 -31.44531,-12.4179 -7.51953,0 -14.84852,1.5577 -21.98828,4.6719 -7.13976,3.1141 -14.0523,7.4435 -20.73633,12.9882 v -64.1445 z m 513.2656,0 c -13.444,15.4188 -23.8884,32.2435 -31.332,50.4727 -7.4436,18.2291 -11.1641,38.7743 -11.1641,61.6367 0,22.8624 3.7205,43.4075 11.1641,61.6368 7.4436,18.2291 17.888,35.0538 31.332,50.4725 h 26.0899 v -1.1386 c -5.8486,-5.2409 -11.6964,-11.6603 -17.5449,-19.2558 -5.8486,-7.5195 -11.0521,-15.9506 -15.6094,-25.293 -4.7092,-9.7223 -8.469,-19.9761 -11.2793,-30.7618 -2.7344,-10.7856 -4.1016,-22.6718 -4.1016,-35.6601 0,-12.4566 1.4065,-24.3056 4.2168,-35.5469 2.8863,-11.2413 6.6068,-21.5326 11.1641,-30.875 4.7851,-9.6463 9.9514,-18.0773 15.4961,-25.293 5.6206,-7.2916 11.5058,-13.7111 17.6582,-19.2558 v -1.1387 z m 850.04895,0 v 55.1426 c -5.6966,-2.9623 -11.128,-5.127 -16.293,-6.4942 -5.1649,-1.4431 -11.0894,-2.164 -17.7734,-2.164 -7.3676,0 -14.5061,1.5184 -21.418,4.5566 -6.8359,3.0382 -12.837,7.4442 -18.0019,13.2168 -5.2409,5.9245 -9.4191,13.1022 -12.5332,21.5332 -3.0382,8.431 -4.5567,18.0386 -4.5567,28.8242 0,20.7357 4.4434,36.9535 13.33,48.6504 8.9628,11.6972 21.0396,17.545 36.2304,17.545 7.8233,0 15.0777,-1.4812 21.7617,-4.4433 6.684,-2.9623 13.1016,-7.1011 19.2539,-12.4181 v 13.3302 h 21.4199 V 852.1979 Z m 285.742,0 v 55.1426 c -5.6966,-2.9623 -11.1278,-5.127 -16.2928,-6.4942 -5.165,-1.4431 -11.0894,-2.164 -17.7734,-2.164 -7.3677,0 -14.5062,1.5184 -21.418,4.5566 -6.8359,3.0382 -12.837,7.4442 -18.002,13.2168 -5.2408,5.9245 -9.4191,13.1022 -12.5331,21.5332 -3.0382,8.431 -4.5568,18.0386 -4.5568,28.8242 0,20.7357 4.4435,36.9535 13.33,48.6504 8.9627,11.6972 21.0396,17.545 36.2306,17.545 7.8233,0 15.0777,-1.4812 21.7617,-4.4433 6.684,-2.9623 13.1015,-7.1011 19.2538,-12.4181 v 13.3302 h 21.4199 V 852.1979 Z m 198.2423,0 v 1.1387 c 6.1524,5.5447 12.0002,11.9642 17.5449,19.2558 5.6206,7.2157 10.8242,15.6467 15.6093,25.293 4.6333,9.3424 8.3557,19.6337 11.166,30.875 2.8104,11.2413 4.2149,23.0903 4.2149,35.5469 0,12.9883 -1.4045,24.8745 -4.2149,35.6601 -2.7343,10.7857 -6.4567,21.0395 -11.166,30.7618 -4.4813,9.3424 -9.6849,17.7735 -15.6093,25.293 -5.8485,7.5955 -11.6964,14.0149 -17.5449,19.2558 v 1.1386 h 26.0899 c 13.444,-15.4187 23.8885,-32.2434 31.3321,-50.4725 7.4435,-18.2293 11.166,-38.7744 11.166,-61.6368 0,-22.8624 -3.7225,-43.4076 -11.166,-61.6367 -7.4436,-18.2292 -17.8881,-35.0539 -31.3321,-50.4727 z M 64.71289,856.7545 c -18.45703,0 -33.68468,4.5573 -45.68555,13.6719 -12.00086,9.0386 -18.00195,20.6597 -18.00195,34.8633 0,12.3806 3.60851,22.446 10.82422,30.1934 7.29167,7.6714 18.45703,13.1009 33.49609,16.291 7.44358,1.5191 14.4681,2.7723 21.07618,3.7597 6.68402,0.9875 12.87565,2.2407 18.57226,3.7598 7.51953,1.9748 13.10221,4.7485 16.74805,8.3184 3.72179,3.5698 5.58203,9.1132 5.58203,16.6328 0,8.7348 -3.91103,15.7239 -11.73438,20.9648 -7.74739,5.2409 -18.61024,7.8613 -32.58593,7.8613 -9.87413,0 -20.43056,-1.9368 -31.67188,-5.8105 C 20.09071,1003.3867 10.1786,997.8787 1.5957,990.7389 H 0 v 28.2559 c 10.102,4.4813 20.01411,7.862 29.73633,10.1407 9.79818,2.2785 20.81228,3.4179 33.04101,3.4179 11.39323,0 21.1148,-1.3671 29.16602,-4.1015 8.12717,-2.7345 15.2283,-6.5335 21.30469,-11.3946 5.5447,-4.4814 9.8368,-9.9501 12.875,-16.4063 3.11415,-6.4561 4.67187,-12.9876 4.67187,-19.5957 0,-12.1528 -3.1901,-21.6091 -9.57031,-28.3691 -6.38021,-6.76 -15.87587,-11.8103 -28.48438,-15.1524 -6.22829,-1.595 -13.82248,-3.1527 -22.78515,-4.6718 -8.96267,-1.5191 -15.87522,-2.8097 -20.73633,-3.8731 -9.19054,-2.1267 -15.60807,-5.2029 -19.25391,-9.2285 -3.64583,-4.0256 -5.46875,-9.571 -5.46875,-16.6348 0,-7.8993 3.64584,-14.3561 10.9375,-19.3691 7.36763,-5.013 17.0892,-7.5195 29.16602,-7.5195 11.01345,0 21.76042,1.8229 32.24219,5.4687 10.55772,3.5699 19.06532,8.0899 25.52148,13.5586 h 1.5957 v -26.6601 c -7.67144,-3.3421 -16.4835,-6.15299 -26.43359,-8.4317 -9.95009,-2.2786 -20.88759,-3.418 -32.8125,-3.418 z m 1603.36921,1.9375 v 22.2168 h 24.1543 V 858.692 Z m -595.0684,1.1387 -61.75,169.6466 h 22.9004 l 16.6329,-47.2833 h 73.373 l 16.6348,47.2833 h 24.0391 l -61.752,-169.6466 z m 263.0703,5.8106 v 36.5722 h -14.4689 v 18.002 h 14.4689 v 67.6758 c 0,15.4189 3.3806,26.6216 10.1405,33.6093 6.76,6.988 16.6329,10.4826 29.6212,10.4826 3.7218,0 7.9373,-0.3418 12.6465,-1.0254 4.7851,-0.6836 9.1912,-1.5578 13.2168,-2.6211 v -19.2539 h -1.1387 c -1.671,0.6836 -4.4055,1.5577 -8.2031,2.6211 -3.7978,0.9874 -7.4436,1.4804 -10.9375,1.4804 -6.0004,0 -10.4831,-0.6837 -13.4453,-2.0508 -2.8863,-1.4431 -5.165,-3.6844 -6.836,-6.7227 -1.8229,-3.266 -2.8857,-6.7587 -3.1894,-10.4805 -0.3038,-3.7977 -0.4551,-9.0386 -0.4551,-15.7226 v -57.9922 h 44.2051 v -18.002 h -44.2051 v -36.5722 z m -248.5996,13.9003 29.7363,83.2852 h -59.5879 z m -869.30471,19.1407 c -18.53299,0 -33.49545,6.115 -44.88867,18.3437 -11.31728,12.2288 -16.97657,28.7489 -16.97657,49.5606 0,21.0395 5.92448,37.2925 17.77344,48.7617 11.84896,11.3933 28.33182,17.0899 49.44727,17.0899 8.27908,0 16.17773,-1.0254 23.69726,-3.0761 7.51953,-2.0508 14.88781,-4.5947 22.10352,-7.6328 v -23.3556 h -1.13867 c -3.72179,3.3421 -9.98807,6.7601 -18.79883,10.254 -8.73481,3.418 -17.43295,5.1269 -26.0918,5.1269 -6.53212,0 -12.53125,-0.9114 -18,-2.7343 -5.39279,-1.823 -10.06402,-4.5573 -14.01367,-8.2032 -4.10156,-3.7218 -7.33095,-8.4697 -9.68555,-14.2422 -2.3546,-5.8486 -3.53125,-12.6845 -3.53125,-20.5079 h 93.76563 v -11.6211 c 0,-18.457 -4.67123,-32.6985 -14.01368,-42.7246 -9.26649,-10.026 -22.48263,-15.039 -39.64843,-15.039 z m 150.27734,0 c -7.51953,0 -14.84852,1.5577 -21.98828,4.6719 -7.13976,3.1141 -14.0523,7.4435 -20.73633,12.9882 V 902.2135 H 304.3125 v 127.2638 h 21.41992 v -95.0196 c 5.84853,-4.4814 11.96354,-8.1665 18.34375,-11.0528 6.38021,-2.8863 12.49327,-4.3281 18.3418,-4.3281 5.69661,0 10.33051,0.7975 13.90039,2.3926 3.56988,1.5191 6.30425,3.8724 8.20312,7.0625 1.82292,2.8863 3.07618,6.9132 3.75977,12.0781 0.68359,5.089 1.02539,10.5577 1.02539,16.4063 v 72.461 h 21.41992 v -82.6017 c 0,-15.5707 -3.6085,-27.4963 -10.82422,-35.7754 -7.21571,-8.279 -17.69748,-12.4179 -31.44531,-12.4179 z m 280.95703,0 c -18.0013,0 -32.31944,6.0384 -42.95312,18.1152 -10.55773,12.0009 -15.83594,28.3698 -15.83594,49.1055 0,20.7357 5.27821,37.1027 15.83594,49.1036 10.63368,12.0009 24.95182,18.0019 42.95312,18.0019 17.84939,0 32.09093,-6.001 42.72461,-18.0019 10.63368,-12.0009 15.95117,-28.3679 15.95117,-49.1036 0,-20.7357 -5.31749,-37.1046 -15.95117,-49.1055 -10.63368,-12.0768 -24.87522,-18.1152 -42.72461,-18.1152 z m 828.06044,0 c -18.0012,0 -32.3194,6.0384 -42.953,18.1152 -10.5578,12.0009 -15.836,28.3698 -15.836,49.1055 0,20.7357 5.2782,37.1027 15.836,49.1036 10.6337,12.0009 24.9518,18.0019 42.953,18.0019 17.8495,0 32.0909,-6.001 42.7247,-18.0019 10.6337,-12.0009 15.9492,-28.3679 15.9492,-49.1036 0,-20.7357 -5.3155,-37.1046 -15.9492,-49.1055 -10.6338,-12.0768 -24.8752,-18.1152 -42.7247,-18.1152 z m 739.9903,0 c -18.5329,0 -33.4975,6.115 -44.8907,18.3437 -11.3173,12.2288 -16.9746,28.7489 -16.9746,49.5606 0,21.0395 5.9246,37.2925 17.7735,48.7617 11.849,11.3933 28.3298,17.0899 49.4453,17.0899 8.2791,0 16.1797,-1.0254 23.6992,-3.0761 7.5195,-2.0508 14.8858,-4.5947 22.1016,-7.6328 v -23.3556 h -1.1386 c -3.7219,3.3421 -9.9882,6.7601 -18.7989,10.254 -8.7348,3.418 -17.4309,5.1269 -26.0899,5.1269 -6.532,0 -12.5332,-0.9114 -18.0019,-2.7343 -5.3929,-1.823 -10.0641,-4.5573 -14.0137,-8.2032 -4.1016,-3.7218 -7.329,-8.4697 -9.6836,-14.2422 -2.3545,-5.8486 -3.5332,-12.6845 -3.5332,-20.5079 h 93.7676 v -11.6211 c 0,-18.457 -4.6713,-32.6985 -14.0136,-42.7246 -9.2666,-10.026 -22.4828,-15.039 -39.6485,-15.039 z m -295.086,0.4551 c -7.6714,0 -15.4562,0.6835 -23.3554,2.0507 -7.8994,1.3672 -13.9377,2.6205 -18.1152,3.7598 v 21.7617 h 1.1387 c 7.3676,-2.8103 14.508,-4.9377 21.4199,-6.3808 6.9119,-1.5191 13.1782,-2.2774 18.7988,-2.2774 4.6334,0 9.0767,0.3025 13.3301,0.9102 4.2535,0.6076 7.8993,1.7862 10.9375,3.5332 3.1901,1.8229 5.62,4.3294 7.291,7.5195 1.747,3.1901 2.6211,7.2151 2.6211,12.0762 v 3.3047 c -12.4565,0.6076 -24.1149,1.5191 -34.9764,2.7343 -10.8616,1.2153 -20.1667,3.5313 -27.9141,6.9493 -7.6715,3.4179 -13.5959,8.1265 -17.7735,14.1269 -4.1015,5.9245 -6.1523,13.7112 -6.1523,23.3574 0,11.7731 3.9876,21.4573 11.9629,29.0528 7.9753,7.5956 17.6968,11.3926 29.166,11.3926 6.2283,0 11.6596,-0.6069 16.2929,-1.8222 4.6332,-1.1393 8.7348,-2.5831 12.3048,-4.3301 3.0382,-1.3672 6.1516,-3.1901 9.3417,-5.4688 3.266,-2.3546 5.849,-4.1776 7.748,-5.4688 v 13.5587 h 21.3047 v -86.3614 c 0,-8.2032 -1.2533,-15.0764 -3.7598,-20.6211 -2.5065,-5.5447 -6.1523,-10.0647 -10.9375,-13.5586 -4.8611,-3.5699 -10.6323,-6.0764 -17.3163,-7.5196 -6.6081,-1.519 -14.3948,-2.2792 -23.3576,-2.2792 z m -1181.02138,3.0761 v 127.2638 h 21.41992 v -90.3497 c 5.69662,-4.6333 11.6211,-8.393 17.77344,-11.2793 6.15234,-2.9622 12.53255,-4.4434 19.14063,-4.4434 4.10156,0 7.63346,0.1906 10.5957,0.5703 3.03819,0.3039 6.15169,0.8362 9.3418,1.5957 h 1.13867 v -21.9902 c -3.34202,-0.5317 -5.84853,-0.8735 -7.51953,-1.0254 -1.67101,-0.2278 -4.36611,-0.3418 -8.08789,-0.3418 -6.75999,0 -13.40734,1.4438 -19.93946,4.3301 -6.45616,2.8103 -13.93641,7.6328 -22.44336,14.4688 v -18.7989 z m 445.70298,0 v 82.6016 c 0,15.7986 3.7225,27.7989 11.1661,36.002 7.4435,8.1272 17.8487,12.1914 31.2168,12.1914 7.9752,0 15.2669,-1.5184 21.875,-4.5566 6.608,-3.0382 13.5206,-7.407 20.7363,-13.1036 v 14.129 h 21.418 V 902.2135 h -21.418 v 95.0196 c -5.6966,4.4813 -11.849,8.1664 -18.457,11.0527 -6.5322,2.8863 -12.5706,4.3281 -18.1153,4.3281 -6.2283,0 -10.9761,-0.7582 -14.2422,-2.2773 -3.266,-1.5191 -5.9238,-3.951 -7.9746,-7.293 -1.9748,-3.2661 -3.2673,-7.1771 -3.875,-11.7344 -0.6076,-4.6332 -0.9101,-10.1786 -0.9101,-16.6347 v -72.461 z m 382.3575,0 v 127.2638 h 21.4179 v -90.3497 c 5.6967,-4.6333 11.6211,-8.393 17.7735,-11.2793 6.1523,-2.9622 12.5325,-4.4434 19.1406,-4.4434 4.1016,0 7.6335,0.1906 10.5957,0.5703 3.0382,0.3039 6.1536,0.8362 9.3438,1.5957 h 1.1386 v -21.9902 c -3.342,-0.5317 -5.8485,-0.8735 -7.5195,-1.0254 -1.671,-0.2278 -4.3681,-0.3418 -8.0898,-0.3418 -6.76,0 -13.4054,1.4438 -19.9376,4.3301 -6.4561,2.8103 -13.9383,7.6328 -22.4453,14.4688 v -18.7989 z m 100.0312,0 v 127.2638 h 21.4199 V 902.2135 Z M 217.04102,916.3424 c 11.39322,0 19.86154,3.0762 25.40625,9.2285 5.62066,6.1524 8.46896,14.8486 8.54492,26.0899 h -72.91602 c 0.91146,-10.0261 4.74783,-18.4197 11.50781,-25.1797 6.83594,-6.76 15.98785,-10.1387 27.45704,-10.1387 z m 1999.28308,0 c 11.3932,0 19.8635,3.0762 25.4082,9.2285 5.6207,6.1524 8.469,14.8486 8.5449,26.0899 h -72.9179 c 0.9114,-10.0261 4.7478,-18.4197 11.5078,-25.1797 6.8359,-6.76 15.9878,-10.1387 27.457,-10.1387 z m -1566.91004,0.7969 c 11.46919,0 20.43251,4.025 26.88867,12.0762 6.45617,7.9752 9.6836,20.2053 9.6836,36.6875 0,16.1024 -3.26671,28.2539 -9.79883,36.457 -6.45616,8.1273 -15.38021,12.1914 -26.77344,12.1914 -11.54514,0 -20.54579,-4.1015 -27.00195,-12.3046 -6.45616,-8.2792 -9.68359,-20.3933 -9.68359,-36.3438 0,-16.4822 3.1901,-28.7123 9.57031,-36.6875 6.45616,-8.0512 15.49414,-12.0762 27.11523,-12.0762 z m 828.06044,0 c 11.4692,0 20.4306,4.025 26.8867,12.0762 6.4562,7.9752 9.6856,20.2053 9.6856,36.6875 0,16.1024 -3.2667,28.2539 -9.7989,36.457 -6.4561,8.1273 -15.3802,12.1914 -26.7734,12.1914 -11.5451,0 -20.5458,-4.1015 -27.0019,-12.3046 -6.4562,-8.2792 -9.6856,-20.3933 -9.6856,-36.3438 0,-16.4822 3.1901,-28.7123 9.5703,-36.6875 6.4562,-8.0512 15.4961,-12.0762 27.1172,-12.0762 z m 307.3887,1.1387 c 5.3928,0 10.3685,0.495 14.9258,1.4824 4.5573,0.9874 9.7215,2.7711 15.4941,5.3535 v 73.0313 c -5.3928,4.2534 -11.2033,7.748 -17.4316,10.4825 -6.2283,2.6583 -12.3807,3.9863 -18.4571,3.9863 -11.3932,0 -19.6729,-3.911 -24.8379,-11.7344 -5.1649,-7.8994 -7.7461,-19.4065 -7.7461,-34.5215 0,-15.3429 3.3414,-27.1919 10.0254,-35.5469 6.6841,-8.3551 16.0265,-12.5332 28.0274,-12.5332 z m 285.7423,0 c 5.3927,0 10.3684,0.495 14.9256,1.4824 4.5573,0.9874 9.7216,2.7711 15.4942,5.3535 v 73.0313 c -5.3928,4.2534 -11.2034,7.748 -17.4315,10.4825 -6.2284,2.6583 -12.3808,3.9863 -18.4572,3.9863 -11.3931,0 -19.6729,-3.911 -24.8377,-11.7344 -5.165,-7.8994 -7.7463,-19.4065 -7.7463,-34.5215 0,-15.3429 3.3414,-27.1919 10.0254,-35.5469 6.6841,-8.3551 16.0266,-12.5332 28.0275,-12.5332 z m -114.1603,44.4336 v 35.4336 c -5.3168,4.1016 -11.09,7.6334 -17.3183,10.5958 -6.2282,2.8862 -13.1016,4.33 -20.6211,4.33 -9.0387,0 -15.7607,-1.8229 -20.1661,-5.4687 -4.4052,-3.7218 -6.6074,-9.2299 -6.6074,-16.5216 0,-6.4562 1.8976,-11.5065 5.6953,-15.1523 3.7979,-3.7218 8.7735,-6.4562 14.9258,-8.2032 5.1649,-1.4431 12.1521,-2.5451 20.963,-3.3046 8.8867,-0.7596 16.5967,-1.3293 23.1288,-1.709 z"
       id="text3569"
       inkscape:connector-curvature="0" />
  </g>
</svg>
