<?xml version="1.0" encoding="UTF-8" standalone="no"?>
<!-- Created with Inkscape (http://www.inkscape.org/) -->

<svg
   xmlns:dc="http://purl.org/dc/elements/1.1/"
   xmlns:cc="http://creativecommons.org/ns#"
   xmlns:rdf="http://www.w3.org/1999/02/22-rdf-syntax-ns#"
   xmlns:svg="http://www.w3.org/2000/svg"
   xmlns="http://www.w3.org/2000/svg"
   xmlns:sodipodi="http://sodipodi.sourceforge.net/DTD/sodipodi-0.dtd"
   xmlns:inkscape="http://www.inkscape.org/namespaces/inkscape"
   width="1000"
   height="1000"
   viewBox="0 0 1000 1000"
   version="1.1"
   id="svg57331"
   inkscape:version="0.92.4 (5da689c313, 2019-01-14)"
   sodipodi:docname="Morcego.svg">
  <defs
     id="defs57325" />
  <sodipodi:namedview
     id="base"
     pagecolor="#ffffff"
     bordercolor="#666666"
     borderopacity="1.0"
     inkscape:pageopacity="0.0"
     inkscape:pageshadow="2"
     inkscape:zoom="0.70710678"
     inkscape:cx="296.40007"
     inkscape:cy="669.80014"
     inkscape:document-units="px"
     inkscape:current-layer="layer1"
     showgrid="false"
     units="px"
     inkscape:window-width="681"
     inkscape:window-height="706"
     inkscape:window-x="-7"
     inkscape:window-y="0"
     inkscape:window-maximized="0" />
  <metadata
     id="metadata57328">
    <rdf:RDF>
      <cc:Work
         rdf:about="">
        <dc:format>image/svg+xml</dc:format>
        <dc:type
           rdf:resource="http://purl.org/dc/dcmitype/StillImage" />
        <dc:title></dc:title>
      </cc:Work>
    </rdf:RDF>
  </metadata>
  <g
     inkscape:label="Camada 1"
     inkscape:groupmode="layer"
     id="layer1"
     transform="translate(0,-32.41665)">
    <path
       style="color:#000000;font-style:normal;font-variant:normal;font-weight:normal;font-stretch:normal;font-size:medium;line-height:normal;font-family:sans-serif;font-variant-ligatures:normal;font-variant-position:normal;font-variant-caps:normal;font-variant-numeric:normal;font-variant-alternates:normal;font-feature-settings:normal;text-indent:0;text-align:start;text-decoration:none;text-decoration-line:none;text-decoration-style:solid;text-decoration-color:#000000;letter-spacing:normal;word-spacing:normal;text-transform:none;writing-mode:lr-tb;direction:ltr;text-orientation:mixed;dominant-baseline:auto;baseline-shift:baseline;text-anchor:start;white-space:normal;shape-padding:0;clip-rule:nonzero;display:inline;overflow:visible;visibility:visible;opacity:1;isolation:auto;mix-blend-mode:normal;color-interpolation:sRGB;color-interpolation-filters:linearRGB;solid-color:#000000;solid-opacity:1;vector-effect:none;fill:#000000;fill-opacity:1;fill-rule:nonzero;stroke:none;stroke-width:10.08224773;stroke-linecap:butt;stroke-linejoin:miter;stroke-miterlimit:4;stroke-dasharray:none;stroke-dashoffset:0;stroke-opacity:1;color-rendering:auto;image-rendering:auto;shape-rendering:auto;text-rendering:auto;enable-background:accumulate"
       d="m 167.32422,552.18164 c -10.39542,0.36615 -22.08383,6.25678 -33.5293,19.28125 -0.0852,0.0871 -14.47084,14.81454 -8.36719,34.75195 l 0.11719,0.38086 0.17578,0.35742 c 0,0 8.02293,16.78529 10.08399,28.91407 l 0.0156,0.0937 0.0195,0.0918 c 0,0 2.50454,11.99565 4.46875,24.77735 0.98211,6.39085 1.82429,12.98188 2.15039,18.21094 0.14826,2.37726 0.15032,4.34622 0.0723,5.92968 -0.7232,-0.13989 -1.25058,-0.14979 -2.27734,-0.52734 -3.63137,-1.33527 -8.77538,-4.54994 -13.94727,-13.38281 l 0.27539,0.54101 c 0,0 -2.25298,-5.09259 -7.58008,-9.71679 -5.32709,-4.62421 -14.06357,-9.08325 -26.505856,-8.90235 l -0.527344,0.008 -0.515625,0.11719 c 0,0 -11.907634,2.50317 -20.666016,11.79102 -4.379191,4.64392 -7.965987,11.22203 -8.458984,19.55859 -0.379116,6.41085 1.062236,13.73641 4.767578,22.04883 -1.820771,0.22026 -3.796056,0.62258 -5.832031,1.31055 -8.104882,2.7387 -17.139326,10.50591 -20.654297,26.39453 l -0.04102,0.18554 -0.02539,0.18946 c 0,0 -4.913696,30.59367 11.845703,52.14062 0.558483,1.60403 8.815203,25.71246 6.505859,45.91016 l -0.01563,0.13672 -0.0078,0.13476 c 0,0 -1.096506,18.71118 4.484375,46.61914 l 0.0098,0.0469 0.0098,0.0488 c 0,0 4.998047,22.68889 9.404297,47.19336 2.203125,12.25223 4.255619,24.95946 5.455078,35.40429 0.599729,5.22242 0.984539,9.88478 1.078125,13.5625 0.09359,3.67773 -0.244152,6.51736 -0.455078,7.1875 l 9.617187,3.02735 c 0.96136,-3.0544 1.021698,-6.31763 0.916016,-10.47071 C 89.284943,971.37427 88.871088,966.47872 88.25,961.07031 87.007824,950.25351 84.925846,937.40528 82.701172,925.0332 78.26682,900.37245 73.275921,877.70395 73.242188,877.55078 67.87756,850.72422 68.935547,833.51172 68.935547,833.51172 l -0.02344,0.27148 c 2.804553,-24.52884 -7.238281,-51.09765 -7.238281,-51.09765 l -0.291016,-0.79493 -0.533203,-0.65429 C 47.215705,764.49625 50.436005,736.84154 50.509766,736.22266 c 2.944241,-13.08411 8.795185,-17.10071 13.982422,-18.85352 5.213311,-1.76162 9.732421,-0.73047 9.732421,-0.73047 l 11.369141,2.70117 -5.835938,-10.12304 c -6.005162,-10.41711 -7.712037,-18.29964 -7.365234,-24.16407 0.346803,-5.86442 2.640622,-9.95969 5.730469,-13.23632 5.920158,-6.27805 14.368008,-8.52079 15.101562,-8.71094 9.665111,0.001 15.504891,3.21478 19.167971,6.39453 3.74318,3.24929 4.9375,6.11133 4.9375,6.11133 l 0.12109,0.27929 0.1543,0.26368 c 6.14572,10.49604 13.31487,15.59974 19.16797,17.75195 5.85309,2.15221 10.80859,1.28125 10.80859,1.28125 l 2.12109,-0.42773 1.1504,-1.83399 c 1.48419,-2.36407 1.58469,-4.34364 1.74414,-6.67578 0.15944,-2.33214 0.10368,-4.95392 -0.0762,-7.83789 -0.35971,-5.76793 -1.2382,-12.55468 -2.24609,-19.11328 -2.01577,-13.11721 -4.56641,-25.3086 -4.56641,-25.3086 l 0.0352,0.1875 c -2.42755,-14.2855 -10.23949,-30.123 -10.70312,-31.05859 -4.306,-14.36842 5.9414,-24.5918 5.9414,-24.5918 l 0.11133,-0.11132 0.10547,-0.1211 c 11.754,-13.46043 21.94789,-16.79585 29.33594,-15.92187 7.38804,0.87397 12.87758,6.11726 15.14257,12.56445 1.30202,4.75233 6.63282,21.51758 6.63282,21.51758 l 0.10351,0.32226 0.14258,0.30469 c 2.92974,6.21628 2.99465,10.37998 2.5957,12.92188 -0.39894,2.54189 -0.95312,3.04882 -0.95312,3.04882 l -1.34375,1.74415 0.36719,2.16992 c 0.89959,5.34156 3.86503,15.11857 6.67773,24.17578 2.79556,9.00203 5.37067,16.79863 5.40234,16.89453 2e-4,6.5e-4 -2e-4,0.001 0,0.002 4.53117,14.77805 9.75825,22.21987 14.74024,26.04102 2.4911,1.91066 4.92023,2.8387 6.84961,3.17578 1.92937,0.33708 3.86523,-0.0273 3.86523,-0.0273 l 1.20508,-0.29102 0.93359,-0.81641 c 12.56347,-10.99284 21.30692,-27.45412 27.19727,-41.19921 5.89035,-13.7451 8.8418,-24.97071 8.8418,-24.97071 l 0.16406,-0.6289 0.002,-0.64844 c 0.003,-2.57621 1.5349,-8.43819 3.21289,-13.11914 1.67799,-4.68096 3.35352,-8.39453 3.35352,-8.39453 l 0.48633,-1.08008 -0.043,-1.1836 c -0.27477,-7.31101 2.43815,-11.25241 5.24805,-13.90039 2.80989,-2.64798 5.44921,-3.51757 5.44921,-3.51757 l 0.17188,-0.0566 0.16797,-0.0703 c 9.90028,-4.08698 18.3349,0.85703 19.13086,1.34375 12.26462,10.61058 8.76758,21.5625 8.76758,21.5625 l -0.53711,2.0586 1.10156,1.82031 c 2.14023,3.54163 2.73703,9.44514 2.42578,14.45117 -0.30248,4.86498 -1.21675,8.45982 -1.26953,8.66602 -4.52204,10.23114 -9.81161,29.96767 -14.33203,47.97851 -4.60418,18.34454 -8.17774,34.41602 -8.17774,34.41602 l -0.0293,0.1289 -0.0215,0.13086 c -4.19842,25.01453 -1.48047,69.46289 -1.48047,69.46289 l 0.0274,0.48047 0.11914,0.46485 c 1.40583,5.57837 2.79805,22.36967 3.5664,36.94921 0.76054,14.43126 1.08694,26.92338 1.09375,27.18165 -2.74945,16.91774 -3.47656,51.81054 -3.47656,51.81054 l -0.004,0.13672 0.006,0.13477 c 1.93149,63.97162 -19.59375,132.6191 -19.59375,132.6191 l 9.61524,3.0332 c 0,0 21.99481,-69.33901 20.05664,-135.68746 v -0.008 c 3.7e-4,-0.0142 0.96035,-36.55492 3.41797,-51.04883 l 0.082,-0.48242 -0.0137,-0.49219 c 0,0 -0.34059,-12.99242 -1.11719,-27.72851 -0.75676,-14.35964 -1.76109,-29.76543 -3.71875,-38.11915 -0.0169,-0.32084 -2.35413,-44.72613 1.35156,-66.94726 0.0346,-0.15572 3.5312,-15.88154 8.07422,-33.98242 4.56545,-18.19025 10.3717,-38.9732 13.99219,-46.92774 l 0.17969,-0.39648 0.10937,-0.41992 c 0,0 1.23061,-4.69742 1.60547,-10.72657 0.34195,-5.49989 0.0213,-12.32918 -3.03906,-18.5 0.55801,-4.60269 1.01983,-18.48126 -12.49805,-29.94726 l -0.25391,-0.2168 -0.28125,-0.17969 c 0,0 -13.33041,-8.56168 -28.54687,-2.39257 -0.25197,0.0854 -4.72691,1.62165 -9.03516,5.68164 -4.20884,3.96631 -8.22847,10.80053 -8.30469,20.19726 -0.29217,0.65499 -1.65895,3.67127 -3.3164,8.29492 -1.71659,4.78863 -3.50196,10.30406 -3.72266,15.50782 -0.10761,0.40589 -2.79656,10.5062 -8.27539,23.29101 -5.30167,12.37142 -13.28177,26.67001 -23.02734,35.95313 -0.43971,-0.15075 -0.76999,-0.17143 -1.6211,-0.82422 -2.5713,-1.97217 -7.07187,-7.41522 -11.23632,-20.99805 l -0.0156,-0.0527 -0.0176,-0.0508 c 0,0 -2.59976,-7.87072 -5.38086,-16.82618 -2.56723,-8.26677 -5.13228,-17.27488 -6,-21.41992 0.60379,-1.31746 1.25351,-3.05838 1.58399,-5.16406 0.69446,-4.42482 0.21163,-10.65349 -3.1875,-18.1582 0,0 -5.82589,-18.48881 -6.61914,-21.44922 l -0.0508,-0.18555 -0.0625,-0.18164 c -3.41298,-9.71488 -11.98771,-17.87403 -23.47071,-19.23242 -1.43537,-0.1698 -2.90317,-0.23229 -4.39648,-0.17969 z"
       id="path58203"
       inkscape:connector-curvature="0" />
    <path
       style="color:#000000;font-style:normal;font-variant:normal;font-weight:normal;font-stretch:normal;font-size:medium;line-height:normal;font-family:sans-serif;font-variant-ligatures:normal;font-variant-position:normal;font-variant-caps:normal;font-variant-numeric:normal;font-variant-alternates:normal;font-feature-settings:normal;text-indent:0;text-align:start;text-decoration:none;text-decoration-line:none;text-decoration-style:solid;text-decoration-color:#000000;letter-spacing:normal;word-spacing:normal;text-transform:none;writing-mode:lr-tb;direction:ltr;text-orientation:mixed;dominant-baseline:auto;baseline-shift:baseline;text-anchor:start;white-space:normal;shape-padding:0;clip-rule:nonzero;display:inline;overflow:visible;visibility:visible;opacity:1;isolation:auto;mix-blend-mode:normal;color-interpolation:sRGB;color-interpolation-filters:linearRGB;solid-color:#000000;solid-opacity:1;vector-effect:none;fill:#000000;fill-opacity:1;fill-rule:nonzero;stroke:none;stroke-width:10.08224773;stroke-linecap:butt;stroke-linejoin:miter;stroke-miterlimit:4;stroke-dasharray:none;stroke-dashoffset:0;stroke-opacity:1;color-rendering:auto;image-rendering:auto;shape-rendering:auto;text-rendering:auto;enable-background:accumulate"
       d="m 79.558594,708.89648 -8.335938,5.67383 c 0,0 4.640263,6.81949 9.283203,14.50781 2.321471,3.84417 4.63748,7.90304 6.326172,11.31836 1.688692,3.41533 2.556595,6.70101 2.550781,6.51172 l 10.076172,-0.30859 c -0.119346,-3.88579 -1.687219,-6.82587 -3.58789,-10.66992 -1.900672,-3.84405 -4.326794,-8.0777 -6.734375,-12.06446 -4.815162,-7.97351 -9.578125,-14.96875 -9.578125,-14.96875 z"
       id="path58205"
       inkscape:connector-curvature="0" />
    <path
       style="color:#000000;font-style:normal;font-variant:normal;font-weight:normal;font-stretch:normal;font-size:medium;line-height:normal;font-family:sans-serif;font-variant-ligatures:normal;font-variant-position:normal;font-variant-caps:normal;font-variant-numeric:normal;font-variant-alternates:normal;font-feature-settings:normal;text-indent:0;text-align:start;text-decoration:none;text-decoration-line:none;text-decoration-style:solid;text-decoration-color:#000000;letter-spacing:normal;word-spacing:normal;text-transform:none;writing-mode:lr-tb;direction:ltr;text-orientation:mixed;dominant-baseline:auto;baseline-shift:baseline;text-anchor:start;white-space:normal;shape-padding:0;clip-rule:nonzero;display:inline;overflow:visible;visibility:visible;opacity:1;isolation:auto;mix-blend-mode:normal;color-interpolation:sRGB;color-interpolation-filters:linearRGB;solid-color:#000000;solid-opacity:1;vector-effect:none;fill:#000000;fill-opacity:1;fill-rule:nonzero;stroke:none;stroke-width:10.08224773;stroke-linecap:butt;stroke-linejoin:miter;stroke-miterlimit:4;stroke-dasharray:none;stroke-dashoffset:0;stroke-opacity:1;color-rendering:auto;image-rendering:auto;shape-rendering:auto;text-rendering:auto;enable-background:accumulate"
       d="m 196.45117,592.26367 -9.44726,3.52149 c 1.89739,5.09128 6.31445,21.62695 6.31445,21.62695 l 9.75,-2.56641 c 0,0 -4.10235,-15.83396 -6.61719,-22.58203 z"
       id="path58207"
       inkscape:connector-curvature="0" />
    <path
       style="color:#000000;font-style:normal;font-variant:normal;font-weight:normal;font-stretch:normal;font-size:medium;line-height:normal;font-family:sans-serif;font-variant-ligatures:normal;font-variant-position:normal;font-variant-caps:normal;font-variant-numeric:normal;font-variant-alternates:normal;font-feature-settings:normal;text-indent:0;text-align:start;text-decoration:none;text-decoration-line:none;text-decoration-style:solid;text-decoration-color:#000000;letter-spacing:normal;word-spacing:normal;text-transform:none;writing-mode:lr-tb;direction:ltr;text-orientation:mixed;dominant-baseline:auto;baseline-shift:baseline;text-anchor:start;white-space:normal;shape-padding:0;clip-rule:nonzero;display:inline;overflow:visible;visibility:visible;opacity:1;isolation:auto;mix-blend-mode:normal;color-interpolation:sRGB;color-interpolation-filters:linearRGB;solid-color:#000000;solid-opacity:1;vector-effect:none;fill:#000000;fill-opacity:1;fill-rule:nonzero;stroke:none;stroke-width:10.08224773;stroke-linecap:butt;stroke-linejoin:miter;stroke-miterlimit:4;stroke-dasharray:none;stroke-dashoffset:0;stroke-opacity:1;color-rendering:auto;image-rendering:auto;shape-rendering:auto;text-rendering:auto;enable-background:accumulate"
       d="m 276.23242,580.59961 c -3.56143,2.05048 -5.49501,5.07558 -7.09375,7.60547 -1.59874,2.52989 -2.63281,4.74609 -2.63281,4.74609 l 9.13281,4.27149 c 0,0 0.78985,-1.68384 2.02149,-3.63282 1.23163,-1.94897 3.13596,-3.98276 3.60351,-4.25195 z"
       id="path58209"
       inkscape:connector-curvature="0" />
    <path
       style="color:#000000;font-style:normal;font-variant:normal;font-weight:normal;font-stretch:normal;font-size:medium;line-height:normal;font-family:sans-serif;font-variant-ligatures:normal;font-variant-position:normal;font-variant-caps:normal;font-variant-numeric:normal;font-variant-alternates:normal;font-feature-settings:normal;text-indent:0;text-align:start;text-decoration:none;text-decoration-line:none;text-decoration-style:solid;text-decoration-color:#000000;letter-spacing:normal;word-spacing:normal;text-transform:none;writing-mode:lr-tb;direction:ltr;text-orientation:mixed;dominant-baseline:auto;baseline-shift:baseline;text-anchor:start;white-space:normal;shape-padding:0;clip-rule:nonzero;display:inline;overflow:visible;visibility:visible;opacity:1;isolation:auto;mix-blend-mode:normal;color-interpolation:sRGB;color-interpolation-filters:linearRGB;solid-color:#000000;solid-opacity:1;vector-effect:none;fill:#000000;fill-opacity:1;fill-rule:nonzero;stroke:none;stroke-width:10.08224773;stroke-linecap:butt;stroke-linejoin:miter;stroke-miterlimit:4;stroke-dasharray:none;stroke-dashoffset:0;stroke-opacity:1;color-rendering:auto;image-rendering:auto;shape-rendering:auto;text-rendering:auto;enable-background:accumulate"
       d="m 97.212891,801.51172 c -4.83881,5.49779 -8.911778,7.82091 -12.126953,8.63086 -3.215176,0.80994 -5.831894,0.28523 -8.476563,-0.97852 l -4.347656,9.09766 c 4.237127,2.02469 9.594379,3.09228 15.287109,1.6582 5.69273,-1.43407 11.461772,-5.19151 17.232422,-11.74804 z"
       id="path58211"
       inkscape:connector-curvature="0" />
    <path
       style="color:#000000;font-style:normal;font-variant:normal;font-weight:normal;font-stretch:normal;font-size:medium;line-height:normal;font-family:sans-serif;font-variant-ligatures:normal;font-variant-position:normal;font-variant-caps:normal;font-variant-numeric:normal;font-variant-alternates:normal;font-feature-settings:normal;text-indent:0;text-align:start;text-decoration:none;text-decoration-line:none;text-decoration-style:solid;text-decoration-color:#000000;letter-spacing:normal;word-spacing:normal;text-transform:none;writing-mode:lr-tb;direction:ltr;text-orientation:mixed;dominant-baseline:auto;baseline-shift:baseline;text-anchor:start;white-space:normal;shape-padding:0;clip-rule:nonzero;display:inline;overflow:visible;visibility:visible;opacity:1;isolation:auto;mix-blend-mode:normal;color-interpolation:sRGB;color-interpolation-filters:linearRGB;solid-color:#000000;solid-opacity:1;vector-effect:none;fill:#000000;fill-opacity:1;fill-rule:nonzero;stroke:none;stroke-width:10.08224773;stroke-linecap:butt;stroke-linejoin:miter;stroke-miterlimit:4;stroke-dasharray:none;stroke-dashoffset:0;stroke-opacity:1;color-rendering:auto;image-rendering:auto;shape-rendering:auto;text-rendering:auto;enable-background:accumulate"
       d="m 146.81836,780.70898 c -9.15337,13.36887 -25.39844,8.86719 -25.39844,8.86719 l -2.5664,9.75 c 0,0 23.37721,5.92784 36.2832,-12.92187 z"
       id="path58213"
       inkscape:connector-curvature="0" />
    <path
       style="color:#000000;font-style:normal;font-variant:normal;font-weight:normal;font-stretch:normal;font-size:medium;line-height:normal;font-family:sans-serif;font-variant-ligatures:normal;font-variant-position:normal;font-variant-caps:normal;font-variant-numeric:normal;font-variant-alternates:normal;font-feature-settings:normal;text-indent:0;text-align:start;text-decoration:none;text-decoration-line:none;text-decoration-style:solid;text-decoration-color:#000000;letter-spacing:normal;word-spacing:normal;text-transform:none;writing-mode:lr-tb;direction:ltr;text-orientation:mixed;dominant-baseline:auto;baseline-shift:baseline;text-anchor:start;white-space:normal;shape-padding:0;clip-rule:nonzero;display:inline;overflow:visible;visibility:visible;opacity:1;isolation:auto;mix-blend-mode:normal;color-interpolation:sRGB;color-interpolation-filters:linearRGB;solid-color:#000000;solid-opacity:1;vector-effect:none;fill:#000000;fill-opacity:1;fill-rule:nonzero;stroke:none;stroke-width:10.08224773;stroke-linecap:butt;stroke-linejoin:miter;stroke-miterlimit:4;stroke-dasharray:none;stroke-dashoffset:0;stroke-opacity:1;color-rendering:auto;image-rendering:auto;shape-rendering:auto;text-rendering:auto;enable-background:accumulate"
       d="m 213.38281,776.16211 c -10.88945,9.35025 -19.83587,9.49169 -26.99219,7.54687 -7.15631,-1.94481 -12.72616,-7.01383 -12.98828,-7.29492 l -7.37304,6.875 c 2.05796,2.2069 7.97444,7.5003 17.71875,10.14844 9.7443,2.64814 23.11223,1.61357 36.20312,-9.62695 z"
       id="path58215"
       inkscape:connector-curvature="0" />
    <path
       style="color:#000000;font-style:normal;font-variant:normal;font-weight:normal;font-stretch:normal;font-size:medium;line-height:normal;font-family:sans-serif;font-variant-ligatures:normal;font-variant-position:normal;font-variant-caps:normal;font-variant-numeric:normal;font-variant-alternates:normal;font-feature-settings:normal;text-indent:0;text-align:start;text-decoration:none;text-decoration-line:none;text-decoration-style:solid;text-decoration-color:#000000;letter-spacing:normal;word-spacing:normal;text-transform:none;writing-mode:lr-tb;direction:ltr;text-orientation:mixed;dominant-baseline:auto;baseline-shift:baseline;text-anchor:start;white-space:normal;shape-padding:0;clip-rule:nonzero;display:inline;overflow:visible;visibility:visible;opacity:1;isolation:auto;mix-blend-mode:normal;color-interpolation:sRGB;color-interpolation-filters:linearRGB;solid-color:#000000;solid-opacity:1;vector-effect:none;fill:#000000;fill-opacity:1;fill-rule:nonzero;stroke:none;stroke-width:10.08224773;stroke-linecap:butt;stroke-linejoin:miter;stroke-miterlimit:4;stroke-dasharray:none;stroke-dashoffset:0;stroke-opacity:1;color-rendering:auto;image-rendering:auto;shape-rendering:auto;text-rendering:auto;enable-background:accumulate"
       d="m 240.47852,772.82422 1.20703,10.00976 c -2.36438,0.28486 -1.31336,-0.10121 -0.51953,0.23047 0.79382,0.33168 2.03706,0.91151 3.54101,1.5918 3.0079,1.36058 7.11067,3.14151 11.91602,4.50586 9.61069,2.72869 22.50475,3.74773 34.5,-3.98828 l -5.46289,-8.47266 c -8.94073,5.76609 -18.21634,5.05209 -26.28321,2.76172 -4.03343,-1.14518 -7.64546,-2.69586 -10.51562,-3.99414 -1.43508,-0.64914 -2.67183,-1.23206 -3.8086,-1.70703 -1.13676,-0.47497 -1.46653,-1.31191 -4.57421,-0.9375 z"
       id="path58217"
       inkscape:connector-curvature="0" />
    <path
       style="color:#000000;font-style:normal;font-variant:normal;font-weight:normal;font-stretch:normal;font-size:medium;line-height:normal;font-family:sans-serif;font-variant-ligatures:normal;font-variant-position:normal;font-variant-caps:normal;font-variant-numeric:normal;font-variant-alternates:normal;font-feature-settings:normal;text-indent:0;text-align:start;text-decoration:none;text-decoration-line:none;text-decoration-style:solid;text-decoration-color:#000000;letter-spacing:normal;word-spacing:normal;text-transform:none;writing-mode:lr-tb;direction:ltr;text-orientation:mixed;dominant-baseline:auto;baseline-shift:baseline;text-anchor:start;white-space:normal;shape-padding:0;clip-rule:nonzero;display:inline;overflow:visible;visibility:visible;opacity:1;isolation:auto;mix-blend-mode:normal;color-interpolation:sRGB;color-interpolation-filters:linearRGB;solid-color:#000000;solid-opacity:1;vector-effect:none;fill:#000000;fill-opacity:1;fill-rule:nonzero;stroke:none;stroke-width:26.58761024;stroke-linecap:butt;stroke-linejoin:miter;stroke-miterlimit:4;stroke-dasharray:none;stroke-dashoffset:0;stroke-opacity:1;color-rendering:auto;image-rendering:auto;shape-rendering:auto;text-rendering:auto;enable-background:accumulate"
       d="M 259.26703,32.618721 C 156.82369,32.596266 86.442928,73.732192 45.961997,135.26712 5.4739449,196.81288 -5.8233913,277.1797 3.025614,356.72924 c 8.849005,79.54957 37.915453,158.63329 80.780102,218.69351 15.56684,21.81164 33.091594,41.22031 52.243094,57.07597 -2.71918,-11.74999 -7.61095,-21.15466 -10.03007,-27.63609 l 89.61471,55.24333 c 2.07095,4.89973 3.90692,10.02927 7.92062,14.68158 2.26774,0.38319 4.58626,0.72043 6.87644,1.00268 4.55904,-4.96374 5.21283,-5.96543 9.07148,-11.4409 l 80.83341,-19.80684 c -1.70029,5.58296 -5.05859,17.6927 -5.05859,17.6927 25.3648,-11.47256 48.77462,-29.10748 69.6214,-50.9242 35.96987,-37.64344 64.62294,-88.11445 84.59265,-143.42645 13.73284,-1.77087 24.9357,-6.82722 32.09249,-15.5848 8.70775,-10.65543 10.40484,-23.96419 9.80936,-36.60274 -1.17787,-24.99968 -10.85195,-51.88683 -13.70925,-70.98753 7.65147,-77.15622 -3.07258,-154.11748 -40.35383,-213.08177 C 419.64719,72.028894 354.0043,32.28537 259.31913,32.618721 Z m 0.0446,26.592428 h 0.0225 0.0297 c 87.46188,-0.321959 142.24586,34.034864 175.49664,86.624471 33.25072,52.58961 43.97444,124.89911 36.27524,198.63567 l -0.16386,1.62992 0.23094,1.62992 c 3.39482,23.77171 12.76246,50.70055 13.63483,69.21624 0.43619,9.25785 -1.14803,15.23007 -3.84038,18.52462 -2.69236,3.29456 -7.73056,6.44572 -21.12212,6.68346 l -9.3256,0.16386 -2.67116,8.82694 c -18.98448,55.53733 -47.54008,105.88624 -81.85378,141.79648 -12.465,13.04499 -25.93397,24.17025 -39.62985,33.04114 -4.01545,12.53124 -6.08726,18.55861 -6.08726,18.55861 l -80.83339,19.80684 c 4.42796,-6.96406 5.10575,-8.37578 8.19081,-14.01049 -12.53253,-0.16615 -25.09176,-2.22067 -37.1317,-5.98007 2.06399,6.73472 2.36356,7.67206 5.07235,15.7472 l -89.61471,-55.24333 c -1.32863,-4.99305 -1.77389,-12.50449 0.3211,-18.6592 -7.2458,-8.11345 -14.22072,-16.87805 -20.89085,-26.224 C 65.70283,504.3279 37.805854,428.86705 29.454301,353.78942 21.102747,278.71179 32.333679,204.37149 68.17817,149.88439 104.02265,95.397301 163.76781,59.176701 259.3117,59.211149 Z"
       id="path10-9-7-8"
       inkscape:connector-curvature="0"
       sodipodi:nodetypes="csssccccccccsccccscccccsccccccccscccccccccssc" />
    <path
       style="color:#000000;font-style:normal;font-variant:normal;font-weight:normal;font-stretch:normal;font-size:medium;line-height:normal;font-family:sans-serif;font-variant-ligatures:normal;font-variant-position:normal;font-variant-caps:normal;font-variant-numeric:normal;font-variant-alternates:normal;font-feature-settings:normal;text-indent:0;text-align:start;text-decoration:none;text-decoration-line:none;text-decoration-style:solid;text-decoration-color:#000000;letter-spacing:normal;word-spacing:normal;text-transform:none;writing-mode:lr-tb;direction:ltr;text-orientation:mixed;dominant-baseline:auto;baseline-shift:baseline;text-anchor:start;white-space:normal;shape-padding:0;clip-rule:nonzero;display:inline;overflow:visible;visibility:visible;opacity:1;isolation:auto;mix-blend-mode:normal;color-interpolation:sRGB;color-interpolation-filters:linearRGB;solid-color:#000000;solid-opacity:1;vector-effect:none;fill:#000000;fill-opacity:1;fill-rule:nonzero;stroke:none;stroke-width:13.29380512;stroke-linecap:butt;stroke-linejoin:miter;stroke-miterlimit:4;stroke-dasharray:none;stroke-dashoffset:0;stroke-opacity:1;color-rendering:auto;image-rendering:auto;shape-rendering:auto;text-rendering:auto;enable-background:accumulate"
       d="m 374.73438,244.7793 c -13.21726,0.1141 -23.90247,5.42555 -30.78321,13.37304 -6.89142,7.95984 -10.09865,18.23384 -10.00586,28.34961 0.0928,10.11578 3.48144,20.26561 10.45703,27.98438 6.9635,7.70537 17.65469,12.63908 30.59766,12.22265 12.6523,-0.0456 22.94392,-5.42621 29.48242,-13.36132 6.56638,-7.96894 9.58479,-18.17514 9.51953,-28.23828 -0.0653,-10.06315 -3.21034,-20.17302 -9.84765,-27.94532 -6.61263,-7.74339 -16.94674,-12.80321 -29.41992,-12.38476 z m 0.35156,13.2832 c 8.91442,-0.32793 14.73049,2.7828 18.95898,7.73438 4.2285,4.95157 6.6148,12.10188 6.66211,19.39843 0.0473,7.29655 -2.24123,14.54975 -6.48437,19.69922 -4.24315,5.14947 -10.20684,8.52735 -19.38086,8.52735 h -0.11133 l -0.11133,0.004 c -9.54164,0.32053 -15.87317,-2.89584 -20.35352,-7.85351 -4.48034,-4.95768 -6.95941,-12.00049 -7.02539,-19.19336 -0.066,-7.19288 2.27659,-14.34491 6.76172,-19.52539 4.48513,-5.18049 10.98431,-8.71377 20.88867,-8.78711 h 0.0977 z"
       id="path87-1-37-7"
       inkscape:connector-curvature="0" />
    <path
       inkscape:connector-curvature="0"
       id="path29-4-2-9-0-2-65"
       d="m 425.7045,526.32415 c -44.09426,0.18553 -70.82433,-2.37232 -120.87153,-31.15957 l 6.5625,-11.40722 c 48.66777,27.99382 70.5963,29.59104 114.25476,29.40704 z"
       style="color:#000000;font-style:normal;font-variant:normal;font-weight:normal;font-stretch:normal;font-size:medium;line-height:normal;font-family:sans-serif;font-variant-ligatures:normal;font-variant-position:normal;font-variant-caps:normal;font-variant-numeric:normal;font-variant-alternates:normal;font-feature-settings:normal;text-indent:0;text-align:start;text-decoration:none;text-decoration-line:none;text-decoration-style:solid;text-decoration-color:#000000;letter-spacing:normal;word-spacing:normal;text-transform:none;writing-mode:lr-tb;direction:ltr;text-orientation:mixed;dominant-baseline:auto;baseline-shift:baseline;text-anchor:start;white-space:normal;shape-padding:0;clip-rule:nonzero;display:inline;overflow:visible;visibility:visible;opacity:1;isolation:auto;mix-blend-mode:normal;color-interpolation:sRGB;color-interpolation-filters:linearRGB;solid-color:#000000;solid-opacity:1;vector-effect:none;fill:#000000;fill-opacity:1;fill-rule:nonzero;stroke:none;stroke-width:13.15944099;stroke-linecap:butt;stroke-linejoin:miter;stroke-miterlimit:4;stroke-dasharray:none;stroke-dashoffset:0;stroke-opacity:1;color-rendering:auto;image-rendering:auto;shape-rendering:auto;text-rendering:auto;enable-background:accumulate" />
    <path
       sodipodi:nodetypes="ccccc"
       inkscape:connector-curvature="0"
       id="path59-1-6-1-1-8-6-2"
       d="m 281.62485,194.85936 -6.59249,14.36173 144.93176,62.09958 4.33179,-15.21182 z"
       style="color:#000000;font-style:normal;font-variant:normal;font-weight:normal;font-stretch:normal;font-size:medium;line-height:normal;font-family:sans-serif;font-variant-ligatures:normal;font-variant-position:normal;font-variant-caps:normal;font-variant-numeric:normal;font-variant-alternates:normal;font-feature-settings:normal;text-indent:0;text-align:start;text-decoration:none;text-decoration-line:none;text-decoration-style:solid;text-decoration-color:#000000;letter-spacing:normal;word-spacing:normal;text-transform:none;writing-mode:lr-tb;direction:ltr;text-orientation:mixed;dominant-baseline:auto;baseline-shift:baseline;text-anchor:start;white-space:normal;shape-padding:0;clip-rule:nonzero;display:inline;overflow:visible;visibility:visible;opacity:1;isolation:auto;mix-blend-mode:normal;color-interpolation:sRGB;color-interpolation-filters:linearRGB;solid-color:#000000;solid-opacity:1;vector-effect:none;fill:#000000;fill-opacity:1;fill-rule:nonzero;stroke:none;stroke-width:13.15944099;stroke-linecap:butt;stroke-linejoin:miter;stroke-miterlimit:4;stroke-dasharray:none;stroke-dashoffset:0;stroke-opacity:1;color-rendering:auto;image-rendering:auto;shape-rendering:auto;text-rendering:auto;enable-background:accumulate" />
  </g>
</svg>
