<?xml version="1.0" encoding="UTF-8" standalone="no"?>
<!-- Created with Inkscape (http://www.inkscape.org/) -->

<svg
   xmlns:dc="http://purl.org/dc/elements/1.1/"
   xmlns:cc="http://creativecommons.org/ns#"
   xmlns:rdf="http://www.w3.org/1999/02/22-rdf-syntax-ns#"
   xmlns:svg="http://www.w3.org/2000/svg"
   xmlns="http://www.w3.org/2000/svg"
   xmlns:sodipodi="http://sodipodi.sourceforge.net/DTD/sodipodi-0.dtd"
   xmlns:inkscape="http://www.inkscape.org/namespaces/inkscape"
   width="1000"
   height="1000"
   viewBox="0 0 1000 1000"
   version="1.1"
   id="svg58798"
   inkscape:version="0.92.4 (5da689c313, 2019-01-14)"
   sodipodi:docname="Rato.svg">
  <defs
     id="defs58792" />
  <sodipodi:namedview
     id="base"
     pagecolor="#ffffff"
     bordercolor="#666666"
     borderopacity="1.0"
     inkscape:pageopacity="0.0"
     inkscape:pageshadow="2"
     inkscape:zoom="32"
     inkscape:cx="1020.9721"
     inkscape:cy="3.6700636"
     inkscape:document-units="px"
     inkscape:current-layer="layer1"
     showgrid="false"
     units="px"
     inkscape:window-width="1366"
     inkscape:window-height="715"
     inkscape:window-x="-8"
     inkscape:window-y="-8"
     inkscape:window-maximized="1"
     inkscape:snap-global="true" />
  <metadata
     id="metadata58795">
    <rdf:RDF>
      <cc:Work
         rdf:about="">
        <dc:format>image/svg+xml</dc:format>
        <dc:type
           rdf:resource="http://purl.org/dc/dcmitype/StillImage" />
        <dc:title></dc:title>
      </cc:Work>
    </rdf:RDF>
  </metadata>
  <g
     inkscape:label="Camada 1"
     inkscape:groupmode="layer"
     id="layer1"
     transform="translate(0,-32.41665)">
    <path
       style="color:#000000;font-style:normal;font-variant:normal;font-weight:normal;font-stretch:normal;font-size:medium;line-height:normal;font-family:sans-serif;font-variant-ligatures:normal;font-variant-position:normal;font-variant-caps:normal;font-variant-numeric:normal;font-variant-alternates:normal;font-feature-settings:normal;text-indent:0;text-align:start;text-decoration:none;text-decoration-line:none;text-decoration-style:solid;text-decoration-color:#000000;letter-spacing:normal;word-spacing:normal;text-transform:none;writing-mode:lr-tb;direction:ltr;text-orientation:mixed;dominant-baseline:auto;baseline-shift:baseline;text-anchor:start;white-space:normal;shape-padding:0;clip-rule:nonzero;display:inline;overflow:visible;visibility:visible;opacity:1;isolation:auto;mix-blend-mode:normal;color-interpolation:sRGB;color-interpolation-filters:linearRGB;solid-color:#000000;solid-opacity:1;vector-effect:none;fill:#000000;fill-opacity:1;fill-rule:nonzero;stroke:none;stroke-width:38.60493851;stroke-linecap:butt;stroke-linejoin:miter;stroke-miterlimit:4;stroke-dasharray:none;stroke-dashoffset:0;stroke-opacity:1;color-rendering:auto;image-rendering:auto;shape-rendering:auto;text-rendering:auto;enable-background:accumulate"
       d="M 673.10634,32.471533 C 524.35887,32.438273 422.17303,92.167764 363.39496,181.51615 c -58.78823,89.36382 -75.19522,206.05119 -62.34652,321.55651 2.75672,24.78205 6.86271,49.5331 12.22679,73.98693 l 21.69947,8.57133 70.85989,179.19304 c -5.87934,2.80541 -10.82345,5.88109 -16.32973,11.06942 9.03692,15.56362 18.64709,30.51018 28.79067,44.72296 62.23913,87.20687 146.0358,147.9553 241.3457,147.3875 95.2651,-0.56754 178.37464,-61.95218 240.24599,-149.4533 C 961.75854,731.04932 1003.8366,616.26229 1017.8104,501.04399 1031.7845,385.82566 1017.7844,269.7532 963.49698,180.74333 909.21826,91.749787 813.04315,31.978745 673.18067,32.471533 Z m 0.0594,38.604316 h 0.0443 0.0378 c 129.19165,-0.475597 209.3199,51.113781 257.29278,129.768461 47.97289,78.65467 62.16843,186.54529 48.94837,295.54784 -13.22006,109.00242 -53.72453,218.6958 -111.12398,299.87264 -57.39941,81.1768 -130.24991,132.66586 -208.95376,133.13477 -78.65891,0.46849 -152.01907,-50.40466 -209.68947,-131.21011 -9.57032,-13.40942 -18.6678,-27.61085 -27.24142,-42.47029 -7.40265,5.68831 -14.11684,7.97504 -16.64618,9.1048 L 334.97474,585.63092 c 7.29858,2.62641 14.56563,5.28439 21.97613,7.79876 -8.0633,-31.10551 -13.99827,-62.88747 -17.52845,-94.6225 C 327.29605,389.79524 343.59992,281.84651 395.64574,202.7318 447.69163,123.61707 534.43706,71.025725 673.16581,71.075849 Z"
       id="path10-9-5"
       inkscape:connector-curvature="0"
       sodipodi:nodetypes="cssccccssssccccccsssscccccsscc" />
    <path
       style="color:#000000;font-style:normal;font-variant:normal;font-weight:normal;font-stretch:normal;font-size:medium;line-height:normal;font-family:sans-serif;font-variant-ligatures:normal;font-variant-position:normal;font-variant-caps:normal;font-variant-numeric:normal;font-variant-alternates:normal;font-feature-settings:normal;text-indent:0;text-align:start;text-decoration:none;text-decoration-line:none;text-decoration-style:solid;text-decoration-color:#000000;letter-spacing:normal;word-spacing:normal;text-transform:none;writing-mode:lr-tb;direction:ltr;text-orientation:mixed;dominant-baseline:auto;baseline-shift:baseline;text-anchor:start;white-space:normal;shape-padding:0;clip-rule:nonzero;display:inline;overflow:visible;visibility:visible;opacity:1;isolation:auto;mix-blend-mode:normal;color-interpolation:sRGB;color-interpolation-filters:linearRGB;solid-color:#000000;solid-opacity:1;vector-effect:none;fill:#000000;fill-opacity:1;fill-rule:nonzero;stroke:none;stroke-width:19.30246925;stroke-linecap:butt;stroke-linejoin:miter;stroke-miterlimit:4;stroke-dasharray:none;stroke-dashoffset:0;stroke-opacity:1;color-rendering:auto;image-rendering:auto;shape-rendering:auto;text-rendering:auto;enable-background:accumulate"
       d="m 652.48991,497.41492 c 0,0 -2.1722,21.48589 -5.77345,44.05378 -1.80063,11.28391 -3.96678,22.83489 -6.2976,31.81288 -1.16543,4.489 -2.39148,8.34975 -3.48475,11.00791 -1.09326,2.65821 -2.5054,4.04189 -1.49133,3.19683 -2.13596,1.7799 -4.3982,3.27007 -5.58147,8.00302 -0.59164,2.36651 -0.24834,5.8883 1.26246,8.35009 1.51065,2.46179 3.46876,3.66436 4.95395,4.36327 5.94071,2.79561 8.99155,1.72562 13.03079,1.44708 8.07853,-0.55718 16.83302,-2.35517 16.83302,-2.35517 l -3.78742,-18.92974 c 0,0 -4.12696,0.52789 -6.62248,0.9376 1.28042,-3.43253 2.48811,-7.01848 3.56595,-11.17028 2.60476,-10.03312 4.8262,-21.99492 6.68153,-33.62177 3.71068,-23.25366 5.9211,-45.15381 5.9211,-45.15381 z"
       id="path971-8"
       inkscape:connector-curvature="0" />
    <path
       style="color:#000000;font-style:normal;font-variant:normal;font-weight:normal;font-stretch:normal;font-size:medium;line-height:normal;font-family:sans-serif;font-variant-ligatures:normal;font-variant-position:normal;font-variant-caps:normal;font-variant-numeric:normal;font-variant-alternates:normal;font-feature-settings:normal;text-indent:0;text-align:start;text-decoration:none;text-decoration-line:none;text-decoration-style:solid;text-decoration-color:#000000;letter-spacing:normal;word-spacing:normal;text-transform:none;writing-mode:lr-tb;direction:ltr;text-orientation:mixed;dominant-baseline:auto;baseline-shift:baseline;text-anchor:start;white-space:normal;shape-padding:0;clip-rule:nonzero;display:inline;overflow:visible;visibility:visible;opacity:1;isolation:auto;mix-blend-mode:normal;color-interpolation:sRGB;color-interpolation-filters:linearRGB;solid-color:#000000;solid-opacity:1;vector-effect:none;fill:#000000;fill-opacity:1;fill-rule:nonzero;stroke:none;stroke-width:21.04344368;stroke-linecap:butt;stroke-linejoin:miter;stroke-miterlimit:4;stroke-dasharray:none;stroke-dashoffset:0;stroke-opacity:1;color-rendering:auto;image-rendering:auto;shape-rendering:auto;text-rendering:auto;enable-background:accumulate"
       d="m 275.81434,572.86817 -0.78258,0.0303 -0.77521,0.14024 c 0,0 -19.02589,3.46561 -39.12936,6.62984 -10.05174,1.5821 -20.38024,3.08975 -28.57182,4.03106 -4.0958,0.47064 -7.67385,0.79683 -10.26962,0.93026 -2.59576,0.13344 -4.90428,-0.3368 -3.08606,0.14024 l -0.5168,-0.14024 -0.53156,-0.0812 c 0,0 -48.26972,-6.79743 -71.04566,34.85465 l -0.53893,0.9813 -0.32486,1.07793 c 0,0 -1.2452,4.2141 -5.36738,8.91115 -4.12217,4.69704 -10.11638,9.26837 -22.045334,9.25075 h -0.620165 l -0.605397,0.0738 c 0,0 -12.486334,1.39634 -24.59982,9.95213 -12.113491,8.55575 -24.115915,25.40705 -23.905831,51.63598 l 0.03704,4.71768 0.66446,0.58327 c -0.871471,2.86825 -4.645649,10.6805 -17.6156,24.15682 l -0.221488,0.22907 -0.214106,0.24343 c 0,0 -22.4045103,28.09477 -7.597004,61.15996 -0.106551,-0.0994 0.08118,0.1255 -3.373984,3.94247 l 0.287934,-0.30997 c 0,0 -9.4976294,9.88668 -13.3409006,26.48984 -3.7254764,16.0943 -2.02850154,39.15719 14.2046986,66.02529 0.236515,1.61294 4.417555,30.13218 8.896395,58.46516 l 0.162424,1.06314 0.383912,1.00408 c 0,0 6.942692,18.99892 3.824341,40.12605 l -0.0443,0.33945 -0.02952,0.33226 c -0.413742,5.02894 -0.7393,7.05463 -2.687375,10.45424 -1.948077,3.3994 -6.188725,8.4637 -14.83963,16.3677 l 14.197189,15.534 c 9.347444,-8.5407 15.117869,-14.8395 18.900223,-21.4401 3.691278,-6.4416 4.819866,-12.88033 5.330453,-18.7377 3.678535,-25.36629 -3.364849,-45.4448 -4.414971,-48.32848 v -0.008 c -4.576931,-28.95386 -9.103118,-59.85297 -9.103118,-59.85297 l -0.324844,-2.21488 -1.203415,-1.89003 c -15.229299,-24.0301 -15.387031,-41.10109 -12.750268,-52.49208 2.636765,-11.39097 7.855405,-16.49339 7.855405,-16.49339 l 0.147661,-0.15497 0.14766,-0.155 c 5.651527,-6.2433 8.464249,-9.70793 9.54609,-15.45981 0.476317,-2.5324 -0.112039,-5.98796 -1.73498,-8.7635 l 0.02231,0.0151 c -12.618489,-23.74909 3.565942,-41.37385 3.565942,-41.37385 l -0.435594,0.47988 c 14.825396,-15.40417 20.959237,-25.60686 23.15277,-34.12375 1.096768,-4.25846 1.050047,-8.232 0.07383,-11.45089 -0.06442,-0.21244 -0.179629,-0.33454 -0.251034,-0.53896 0.371277,-18.73348 7.521302,-27.23027 14.824864,-32.38878 7.57584,-5.35081 14.876543,-6.23855 14.876543,-6.23855 l -1.225563,0.0738 c 17.970957,0.0265 30.739337,-8.25596 37.903817,-16.41957 5.8226,-6.63462 8.06486,-12.4433 8.90378,-14.81747 16.415,-29.92235 49.31038,-24.09041 49.31038,-24.09041 l -1.04851,-0.22183 c 4.09953,1.07592 6.17525,0.69554 9.50918,0.5242 3.33392,-0.17124 7.23272,-0.54755 11.59115,-1.04837 8.71685,-1.00167 19.22408,-2.53456 29.43563,-4.14179 19.83733,-3.12236 37.44562,-6.33418 38.50181,-6.52651 17.72681,-0.47625 32.28466,3.78878 32.32972,3.8022 7e-5,3e-5 0.0295,0.008 0.0295,0.008 39.01216,16.77017 91.28219,31.33301 91.28219,31.33301 l 0.36174,0.10319 0.36176,0.0738 c 13.61017,2.77557 25.75893,7.75946 25.75893,7.75946 l 0.51681,0.21395 0.53159,0.15498 c 25.60158,7.55933 33.86534,19.18059 37.39435,28.594 3.29438,8.78747 2.07131,15.01274 1.89002,15.87323 -4.07968,10.77635 -19.93637,27.65027 -35.17952,40.22939 -15.45361,12.75285 -29.63494,21.86816 -29.63494,21.86816 l 2.51755,-1.18126 c -56.70309,17.89027 -63.53722,90.03446 -63.53722,90.03446 l -0.14029,1.18127 0.14029,1.18864 c 4.15864,36.75268 -5.85324,58.73055 -16.3679,72.24905 -10.51465,13.51849 -21.03389,17.94047 -21.03389,17.94047 l -1.65376,0.70876 -1.32154,1.22556 c -10.66558,9.866 -15.49199,23.45294 -21.18891,37.05477 -5.69694,13.60183 -11.84204,27.43741 -21.6319,38.65677 l 15.85847,13.8355 c 12.49525,-14.3198 19.40852,-30.5766 25.18306,-44.36371 5.69856,-13.6057 10.69768,-24.48876 15.86585,-29.43563 3.57876,-1.77806 14.95146,-7.81078 26.53415,-22.70243 13.29231,-17.08965 24.74126,-45.06011 20.71642,-85.41275 0.10429,-0.75561 8.29005,-59.27019 48.91171,-72.08661 l 1.33629,-0.42821 1.18127,-0.75306 c 0,0 15.12479,-9.70847 31.65788,-23.35214 16.53309,-13.64361 34.99649,-30.39431 41.90535,-49.9379 l 0.19203,-0.55373 0.13305,-0.56848 c 0,0 3.08339,-13.42495 -2.62834,-28.66042 -5.7117,-15.23548 -20.69919,-32.39997 -51.14132,-41.38854 l 1.04099,0.36932 c 0,0 -13.58174,-5.66708 -29.59806,-8.93336 l 0.71612,0.17728 c 0,0 -52.9316,-14.83522 -89.70222,-30.78667 l -0.55371,-0.24344 -0.58324,-0.17729 c 0,0 -17.73101,-5.42538 -39.53544,-4.73241 z"
       id="path1627"
       inkscape:connector-curvature="0" />
    <path
       style="color:#000000;font-style:normal;font-variant:normal;font-weight:normal;font-stretch:normal;font-size:medium;line-height:normal;font-family:sans-serif;font-variant-ligatures:normal;font-variant-position:normal;font-variant-caps:normal;font-variant-numeric:normal;font-variant-alternates:normal;font-feature-settings:normal;text-indent:0;text-align:start;text-decoration:none;text-decoration-line:none;text-decoration-style:solid;text-decoration-color:#000000;letter-spacing:normal;word-spacing:normal;text-transform:none;writing-mode:lr-tb;direction:ltr;text-orientation:mixed;dominant-baseline:auto;baseline-shift:baseline;text-anchor:start;white-space:normal;shape-padding:0;clip-rule:nonzero;display:inline;overflow:visible;visibility:visible;opacity:1;isolation:auto;mix-blend-mode:normal;color-interpolation:sRGB;color-interpolation-filters:linearRGB;solid-color:#000000;solid-opacity:1;vector-effect:none;fill:#000000;fill-opacity:1;fill-rule:nonzero;stroke:none;stroke-width:21.04344368;stroke-linecap:butt;stroke-linejoin:miter;stroke-miterlimit:4;stroke-dasharray:none;stroke-dashoffset:0;stroke-opacity:1;color-rendering:auto;image-rendering:auto;shape-rendering:auto;text-rendering:auto;enable-background:accumulate"
       d="m 219.00292,626.84452 c -25.71952,-0.32055 -49.08152,3.46259 -49.08152,3.46259 l 3.3297,20.77547 c 0,0 22.00893,-3.48936 45.49343,-3.19679 11.74225,0.14629 23.78478,1.30445 32.96464,3.94985 9.17986,2.64539 14.57989,6.52654 16.49341,10.46157 l 0.0371,0.0666 0.0295,0.0666 c 0,0 8.69039,17.26237 17.03235,38.14742 8.32551,20.84392 15.55036,46.33636 14.66981,56.59732 -0.0201,0.16671 -1.33753,11.15828 -4.82103,21.52854 -1.75489,5.22427 -4.13205,10.1067 -6.24593,12.72075 -2.11389,2.61402 -2.54774,2.63827 -3.66191,2.53233 l -11.57639,-1.10006 0.0517,11.62068 c 0,0 0.0352,22.6794 -3.94985,43.27855 -1.9926,10.29961 -5.2221,19.97309 -8.62324,25.03544 -1.70056,2.53115 -3.24799,3.76207 -4.26731,4.23039 -1.01931,0.46828 -1.7135,0.69421 -4.03107,-0.0151 l -13.59937,9.95989 0.1329,1.80127 c 0,0 2.56257,16.64445 0.45035,31.54711 -1.0561,7.45135 -3.40847,14.05914 -6.34929,17.6304 -2.94082,3.57124 -5.61576,5.36267 -13.43688,4.46666 l -6.28286,-0.72354 -3.00482,4.36331 c -0.22983,0.14137 -0.82576,0.57267 -2.99008,0.51679 -4.47754,-0.11567 -16.10829,-3.31483 -36.05071,-21.02649 l 1.41013,1.52824 c 0,0 0.0159,-1.5699 0.0665,0.76784 l -21.03389,0.45035 c 0.16727,7.73273 4.17135,11.45089 4.17135,11.45089 l 0.62755,0.84162 0.78258,0.69397 c 21.9446,19.48991 37.37218,26.01489 49.48019,26.32746 6.05401,0.15611 11.08341,-1.489 14.47788,-3.529 0.51011,-0.30657 0.41019,-0.44587 0.87117,-0.79001 11.32389,-0.10054 21.18646,-4.70411 27.1617,-11.96029 6.84221,-8.30899 9.57251,-18.44857 10.93408,-28.05503 1.35924,-9.59017 1.22694,-19.04314 0.76043,-26.1133 1.41324,-0.35874 2.93901,-0.41479 4.23778,-1.01146 5.63922,-2.59078 9.78153,-6.89787 12.94961,-11.61329 6.33616,-9.43091 9.55015,-21.0854 11.81264,-32.78008 3.24254,-16.76051 3.86944,-30.58879 4.07537,-38.91528 4.35127,-1.93363 8.10771,-4.89518 10.76425,-8.18022 4.74523,-5.86796 7.6245,-12.66952 9.83402,-19.24725 4.41906,-13.15546 5.81773,-26.00995 5.81773,-26.00995 l 0.0147,-0.12551 0.0148,-0.1255 c 1.77609,-19.85176 -7.37418,-44.52087 -16.1021,-66.37225 -8.70542,-21.79501 -17.68722,-39.61294 -17.73372,-39.70525 -5.76455,-11.81966 -17.43897,-17.94976 -29.57591,-21.44729 -12.1487,-3.50096 -25.67157,-4.61653 -38.53136,-4.77676 z"
       id="path1629"
       inkscape:connector-curvature="0"
       sodipodi:nodetypes="cccsscccsccccccccccccscccccccccccccccsscccsccscccscccc" />
    <path
       style="color:#000000;font-style:normal;font-variant:normal;font-weight:normal;font-stretch:normal;font-size:medium;line-height:normal;font-family:sans-serif;font-variant-ligatures:normal;font-variant-position:normal;font-variant-caps:normal;font-variant-numeric:normal;font-variant-alternates:normal;font-feature-settings:normal;text-indent:0;text-align:start;text-decoration:none;text-decoration-line:none;text-decoration-style:solid;text-decoration-color:#000000;letter-spacing:normal;word-spacing:normal;text-transform:none;writing-mode:lr-tb;direction:ltr;text-orientation:mixed;dominant-baseline:auto;baseline-shift:baseline;text-anchor:start;white-space:normal;shape-padding:0;clip-rule:nonzero;display:inline;overflow:visible;visibility:visible;opacity:1;isolation:auto;mix-blend-mode:normal;color-interpolation:sRGB;color-interpolation-filters:linearRGB;solid-color:#000000;solid-opacity:1;vector-effect:none;fill:#000000;fill-opacity:1;fill-rule:nonzero;stroke:none;stroke-width:21.04344368;stroke-linecap:butt;stroke-linejoin:miter;stroke-miterlimit:4;stroke-dasharray:none;stroke-dashoffset:0;stroke-opacity:1;color-rendering:auto;image-rendering:auto;shape-rendering:auto;text-rendering:auto;enable-background:accumulate"
       d="m 93.619143,893.87662 -12.595226,16.85519 c 0,0 10.068701,7.56308 22.451403,14.05704 6.19134,3.24694 12.99237,6.30148 20.07409,8.04733 7.08174,1.74589 15.09901,2.57611 22.68028,-1.85309 l -10.61661,-18.16931 c -0.0988,0.0579 -2.62079,0.68056 -7.02853,-0.40605 -4.40772,-1.08665 -10.04638,-3.48755 -15.33427,-6.2607 -10.57579,-5.54635 -19.631137,-12.27041 -19.631137,-12.27041 z"
       id="path1631"
       inkscape:connector-curvature="0" />
    <path
       style="color:#000000;font-style:normal;font-variant:normal;font-weight:normal;font-stretch:normal;font-size:medium;line-height:normal;font-family:sans-serif;font-variant-ligatures:normal;font-variant-position:normal;font-variant-caps:normal;font-variant-numeric:normal;font-variant-alternates:normal;font-feature-settings:normal;text-indent:0;text-align:start;text-decoration:none;text-decoration-line:none;text-decoration-style:solid;text-decoration-color:#000000;letter-spacing:normal;word-spacing:normal;text-transform:none;writing-mode:lr-tb;direction:ltr;text-orientation:mixed;dominant-baseline:auto;baseline-shift:baseline;text-anchor:start;white-space:normal;shape-padding:0;clip-rule:nonzero;display:inline;overflow:visible;visibility:visible;opacity:1;isolation:auto;mix-blend-mode:normal;color-interpolation:sRGB;color-interpolation-filters:linearRGB;solid-color:#000000;solid-opacity:1;vector-effect:none;fill:#000000;fill-opacity:1;fill-rule:nonzero;stroke:none;stroke-width:21.04344368;stroke-linecap:butt;stroke-linejoin:miter;stroke-miterlimit:4;stroke-dasharray:none;stroke-dashoffset:0;stroke-opacity:1;color-rendering:auto;image-rendering:auto;shape-rendering:auto;text-rendering:auto;enable-background:accumulate"
       d="m 99.045574,782.95593 -9.893084,18.57541 c 0,0 23.66647,12.5967 51.34807,25.71462 27.68159,13.11793 57.81752,26.8928 77.72717,29.37655 l 1.27723,0.16254 1.26987,-0.15498 c 0,0 4.13577,-0.42696 8.54201,2.26655 4.40623,2.69347 10.11664,8.21023 9.93,28.06978 l 21.04127,0.19921 c 0.23195,-24.6812 -9.17622,-39.60485 -19.9929,-46.21694 -10.81668,-6.61213 -22.0158,-5.21234 -22.0158,-5.21234 l 2.55447,0.008 c -11.57224,-1.44369 -44.1559,-14.63661 -71.3188,-27.50871 C 122.35217,795.3635 99.045574,782.95656 99.045574,782.95656 Z"
       id="path1633"
       inkscape:connector-curvature="0" />
    <path
       style="color:#000000;font-style:normal;font-variant:normal;font-weight:normal;font-stretch:normal;font-size:medium;line-height:normal;font-family:sans-serif;font-variant-ligatures:normal;font-variant-position:normal;font-variant-caps:normal;font-variant-numeric:normal;font-variant-alternates:normal;font-feature-settings:normal;text-indent:0;text-align:start;text-decoration:none;text-decoration-line:none;text-decoration-style:solid;text-decoration-color:#000000;letter-spacing:normal;word-spacing:normal;text-transform:none;writing-mode:lr-tb;direction:ltr;text-orientation:mixed;dominant-baseline:auto;baseline-shift:baseline;text-anchor:start;white-space:normal;shape-padding:0;clip-rule:nonzero;display:inline;overflow:visible;visibility:visible;opacity:1;isolation:auto;mix-blend-mode:normal;color-interpolation:sRGB;color-interpolation-filters:linearRGB;solid-color:#000000;solid-opacity:1;vector-effect:none;fill:#000000;fill-opacity:1;fill-rule:nonzero;stroke:none;stroke-width:21.04344368;stroke-linecap:butt;stroke-linejoin:miter;stroke-miterlimit:4;stroke-dasharray:none;stroke-dashoffset:0;stroke-opacity:1;color-rendering:auto;image-rendering:auto;shape-rendering:auto;text-rendering:auto;enable-background:accumulate"
       d="m 147.30758,711.23107 -4.68812,20.5171 c 0,0 19.29777,4.41089 40.38445,8.80039 10.54335,2.19477 21.53753,4.38576 30.89005,6.03186 9.35251,1.64606 16.21075,2.86387 22.07487,2.76117 h 0.25104 l 0.25103,-0.0151 c 0,0 6.44261,-0.64817 14.97991,5.30828 8.53727,5.95648 19.1397,18.79249 22.31849,50.83128 l 20.94529,-2.0746 c -3.59986,-36.28277 -17.22544,-56.25232 -31.22229,-66.01788 -13.99683,-9.76556 -28.39462,-9.05142 -28.39462,-9.05142 l 0.50204,-0.0227 c -1.10391,0.0189 -9.07565,-0.86272 -18.05858,-2.44376 -8.98292,-1.58104 -19.82783,-3.73725 -30.24774,-5.90632 -20.83982,-4.33812 -39.98579,-8.7192 -39.98579,-8.7192 z"
       id="path1635"
       inkscape:connector-curvature="0" />
    <path
       style="color:#000000;font-style:normal;font-variant:normal;font-weight:normal;font-stretch:normal;font-size:medium;line-height:normal;font-family:sans-serif;font-variant-ligatures:normal;font-variant-position:normal;font-variant-caps:normal;font-variant-numeric:normal;font-variant-alternates:normal;font-feature-settings:normal;text-indent:0;text-align:start;text-decoration:none;text-decoration-line:none;text-decoration-style:solid;text-decoration-color:#000000;letter-spacing:normal;word-spacing:normal;text-transform:none;writing-mode:lr-tb;direction:ltr;text-orientation:mixed;dominant-baseline:auto;baseline-shift:baseline;text-anchor:start;white-space:normal;shape-padding:0;clip-rule:nonzero;display:inline;overflow:visible;visibility:visible;opacity:1;isolation:auto;mix-blend-mode:normal;color-interpolation:sRGB;color-interpolation-filters:linearRGB;solid-color:#000000;solid-opacity:1;vector-effect:none;fill:#000000;fill-opacity:1;fill-rule:nonzero;stroke:none;stroke-width:21.04344368;stroke-linecap:butt;stroke-linejoin:miter;stroke-miterlimit:4;stroke-dasharray:none;stroke-dashoffset:0;stroke-opacity:1;color-rendering:auto;image-rendering:auto;shape-rendering:auto;text-rendering:auto;enable-background:accumulate"
       d="m 470.66382,637.28394 -15.68866,14.02752 c 0,0 6.04184,7.59853 6.50437,15.09065 0.23133,3.74606 -0.37687,7.21418 -4.18615,11.71666 -3.771,4.45741 -11.37788,9.88199 -25.27162,14.67721 -1.21438,0.31033 -33.86593,8.40388 -72.12357,-12.78718 l -0.67923,-0.37649 -0.71613,-0.2733 c 0,0 -52.45158,-19.93561 -75.29082,-25.44884 l -4.93178,20.45801 c 18.30576,4.41888 72.54378,24.58537 72.72157,24.65148 45.28737,24.44406 86.71216,14.07921 86.71216,14.07921 l 0.38392,-0.096 0.38389,-0.13268 c 16.54458,-5.6421 27.7272,-12.7084 34.87681,-21.1594 7.14965,-8.45098 9.63697,-18.31904 9.12529,-26.60797 -1.0234,-16.57788 -11.82005,-27.81878 -11.82005,-27.81878 z"
       id="path1637"
       inkscape:connector-curvature="0" />
    <path
       style="color:#000000;font-style:normal;font-variant:normal;font-weight:normal;font-stretch:normal;font-size:medium;line-height:normal;font-family:sans-serif;font-variant-ligatures:normal;font-variant-position:normal;font-variant-caps:normal;font-variant-numeric:normal;font-variant-alternates:normal;font-feature-settings:normal;text-indent:0;text-align:start;text-decoration:none;text-decoration-line:none;text-decoration-style:solid;text-decoration-color:#000000;letter-spacing:normal;word-spacing:normal;text-transform:none;writing-mode:lr-tb;direction:ltr;text-orientation:mixed;dominant-baseline:auto;baseline-shift:baseline;text-anchor:start;white-space:normal;shape-padding:0;clip-rule:nonzero;display:inline;overflow:visible;visibility:visible;opacity:1;isolation:auto;mix-blend-mode:normal;color-interpolation:sRGB;color-interpolation-filters:linearRGB;solid-color:#000000;solid-opacity:1;vector-effect:none;fill:#000000;fill-opacity:1;fill-rule:nonzero;stroke:none;stroke-width:21.04344368;stroke-linecap:butt;stroke-linejoin:miter;stroke-miterlimit:4;stroke-dasharray:none;stroke-dashoffset:0;stroke-opacity:1;color-rendering:auto;image-rendering:auto;shape-rendering:auto;text-rendering:auto;enable-background:accumulate"
       d="m 333.8587,676.5905 c -18.89432,17.57631 -34.91373,13.10467 -34.91373,13.10467 l -4.4888,20.554 c 0,0 28.4661,5.25353 53.73275,-18.25055 z"
       id="path1639"
       inkscape:connector-curvature="0" />
    <path
       style="color:#000000;font-style:normal;font-variant:normal;font-weight:normal;font-stretch:normal;font-size:medium;line-height:normal;font-family:sans-serif;font-variant-ligatures:normal;font-variant-position:normal;font-variant-caps:normal;font-variant-numeric:normal;font-variant-alternates:normal;font-feature-settings:normal;text-indent:0;text-align:start;text-decoration:none;text-decoration-line:none;text-decoration-style:solid;text-decoration-color:#000000;letter-spacing:normal;word-spacing:normal;text-transform:none;writing-mode:lr-tb;direction:ltr;text-orientation:mixed;dominant-baseline:auto;baseline-shift:baseline;text-anchor:start;white-space:normal;shape-padding:0;clip-rule:nonzero;display:inline;overflow:visible;visibility:visible;opacity:1;isolation:auto;mix-blend-mode:normal;color-interpolation:sRGB;color-interpolation-filters:linearRGB;solid-color:#000000;solid-opacity:1;vector-effect:none;fill:#000000;fill-opacity:1;fill-rule:nonzero;stroke:none;stroke-width:21.04344368;stroke-linecap:butt;stroke-linejoin:miter;stroke-miterlimit:4;stroke-dasharray:none;stroke-dashoffset:0;stroke-opacity:1;color-rendering:auto;image-rendering:auto;shape-rendering:auto;text-rendering:auto;enable-background:accumulate"
       d="m 418.28953,626.54186 c -3.13121,0.0941 -6.11917,0.5069 -8.96283,1.22552 -11.37468,2.87461 -19.70997,11.51439 -22.37018,21.38091 -5.32039,19.73297 8.82848,42.52279 34.98755,48.07741 l 5.67745,1.20341 4.05322,-4.15653 c 0,0 6.24274,-6.39588 12.3516,-15.50412 6.10882,-9.10824 12.9028,-21.11855 12.48446,-35.14998 l -0.19201,-6.50433 -5.90633,-2.73168 c -12.03206,-5.56737 -22.72933,-8.12318 -32.12301,-7.84061 z m 6.62986,21.52851 c 2.4331,0.38844 5.9417,1.91766 8.9776,2.91623 -1.49504,5.22414 -3.92999,10.95364 -7.35335,16.05783 -2.9205,4.35446 -3.93087,5.17121 -5.84729,7.37551 -11.46623,-4.86572 -14.87749,-14.39555 -13.4221,-19.79357 0.84375,-3.12938 2.32912,-5.22576 7.21309,-6.46002 2.44201,-0.61712 5.91791,-0.81664 10.43205,-0.096 z"
       id="path1641"
       inkscape:connector-curvature="0" />
    <path
       style="color:#000000;font-style:normal;font-variant:normal;font-weight:normal;font-stretch:normal;font-size:medium;line-height:normal;font-family:sans-serif;font-variant-ligatures:normal;font-variant-position:normal;font-variant-caps:normal;font-variant-numeric:normal;font-variant-alternates:normal;font-feature-settings:normal;text-indent:0;text-align:start;text-decoration:none;text-decoration-line:none;text-decoration-style:solid;text-decoration-color:#000000;letter-spacing:normal;word-spacing:normal;text-transform:none;writing-mode:lr-tb;direction:ltr;text-orientation:mixed;dominant-baseline:auto;baseline-shift:baseline;text-anchor:start;white-space:normal;shape-padding:0;clip-rule:nonzero;display:inline;overflow:visible;visibility:visible;opacity:1;isolation:auto;mix-blend-mode:normal;color-interpolation:sRGB;color-interpolation-filters:linearRGB;solid-color:#000000;solid-opacity:1;vector-effect:none;fill:#000000;fill-opacity:1;fill-rule:nonzero;stroke:none;stroke-width:21.04344368;stroke-linecap:butt;stroke-linejoin:miter;stroke-miterlimit:4;stroke-dasharray:none;stroke-dashoffset:0;stroke-opacity:1;color-rendering:auto;image-rendering:auto;shape-rendering:auto;text-rendering:auto;enable-background:accumulate"
       d="m 116.15913,891.84632 -15.52623,14.2121 c 0,0 28.5945,32.68964 66.7931,32.11562 1.29357,2.60765 2.68918,5.42846 4.98344,8.26145 l 16.35313,-13.24493 c -1.66664,-2.05797 -4.69552,-9.16218 -4.69552,-9.16218 l -2.8941,-8.13593 -8.542,1.2477 c -27.46455,4.0083 -56.47182,-25.29383 -56.47182,-25.29383 z"
       id="path1643"
       inkscape:connector-curvature="0" />
    <path
       style="color:#000000;font-style:normal;font-variant:normal;font-weight:normal;font-stretch:normal;font-size:medium;line-height:normal;font-family:sans-serif;font-variant-ligatures:normal;font-variant-position:normal;font-variant-caps:normal;font-variant-numeric:normal;font-variant-alternates:normal;font-feature-settings:normal;text-indent:0;text-align:start;text-decoration:none;text-decoration-line:none;text-decoration-style:solid;text-decoration-color:#000000;letter-spacing:normal;word-spacing:normal;text-transform:none;writing-mode:lr-tb;direction:ltr;text-orientation:mixed;dominant-baseline:auto;baseline-shift:baseline;text-anchor:start;white-space:normal;shape-padding:0;clip-rule:nonzero;display:inline;overflow:visible;visibility:visible;opacity:1;isolation:auto;mix-blend-mode:normal;color-interpolation:sRGB;color-interpolation-filters:linearRGB;solid-color:#000000;solid-opacity:1;vector-effect:none;fill:#000000;fill-opacity:1;fill-rule:nonzero;stroke:none;stroke-width:21.04344368;stroke-linecap:butt;stroke-linejoin:miter;stroke-miterlimit:4;stroke-dasharray:none;stroke-dashoffset:0;stroke-opacity:1;color-rendering:auto;image-rendering:auto;shape-rendering:auto;text-rendering:auto;enable-background:accumulate"
       d="m 330.72098,702.08365 c -5.10206,34.69587 29.64971,56.11005 29.64971,56.11005 l 11.65021,-17.52701 c 0,0 -23.19022,-17.08969 -20.48015,-35.5191 z"
       id="path1645"
       inkscape:connector-curvature="0" />
    <path
       style="color:#000000;font-style:normal;font-variant:normal;font-weight:normal;font-stretch:normal;font-size:medium;line-height:normal;font-family:sans-serif;font-variant-ligatures:normal;font-variant-position:normal;font-variant-caps:normal;font-variant-numeric:normal;font-variant-alternates:normal;font-feature-settings:normal;text-indent:0;text-align:start;text-decoration:none;text-decoration-line:none;text-decoration-style:solid;text-decoration-color:#000000;letter-spacing:normal;word-spacing:normal;text-transform:none;writing-mode:lr-tb;direction:ltr;text-orientation:mixed;dominant-baseline:auto;baseline-shift:baseline;text-anchor:start;white-space:normal;shape-padding:0;clip-rule:nonzero;display:inline;overflow:visible;visibility:visible;opacity:1;isolation:auto;mix-blend-mode:normal;color-interpolation:sRGB;color-interpolation-filters:linearRGB;solid-color:#000000;solid-opacity:1;vector-effect:none;fill:#000000;fill-opacity:1;fill-rule:nonzero;stroke:none;stroke-width:21.04344368;stroke-linecap:butt;stroke-linejoin:miter;stroke-miterlimit:4;stroke-dasharray:none;stroke-dashoffset:0;stroke-opacity:1;color-rendering:auto;image-rendering:auto;shape-rendering:auto;text-rendering:auto;enable-background:accumulate"
       d="m 264.23797,922.3082 -18.7452,9.56823 c 13.414,26.28084 45.79613,28.32078 45.79613,28.32078 l 2.18534,-20.93049 c 0,0 -22.46675,-3.69558 -29.23627,-16.95852 z"
       id="path1647"
       inkscape:connector-curvature="0" />
    <path
       style="color:#000000;font-style:normal;font-variant:normal;font-weight:normal;font-stretch:normal;font-size:medium;line-height:normal;font-family:sans-serif;font-variant-ligatures:normal;font-variant-position:normal;font-variant-caps:normal;font-variant-numeric:normal;font-variant-alternates:normal;font-feature-settings:normal;text-indent:0;text-align:start;text-decoration:none;text-decoration-line:none;text-decoration-style:solid;text-decoration-color:#000000;letter-spacing:normal;word-spacing:normal;text-transform:none;writing-mode:lr-tb;direction:ltr;text-orientation:mixed;dominant-baseline:auto;baseline-shift:baseline;text-anchor:start;white-space:normal;shape-padding:0;clip-rule:nonzero;display:inline;overflow:visible;visibility:visible;opacity:1;isolation:auto;mix-blend-mode:normal;color-interpolation:sRGB;color-interpolation-filters:linearRGB;solid-color:#000000;solid-opacity:1;vector-effect:none;fill:#000000;fill-opacity:1;fill-rule:nonzero;stroke:none;stroke-width:5.03329897;stroke-linecap:butt;stroke-linejoin:miter;stroke-miterlimit:4;stroke-dasharray:none;stroke-dashoffset:0;stroke-opacity:1;color-rendering:auto;image-rendering:auto;shape-rendering:auto;text-rendering:auto;enable-background:accumulate"
       d="m 483.51746,683.5969 c 0,0 -7.6873,12.87082 -13.47379,28.63088 -2.89324,7.88 -5.3271,16.49954 -6.07611,24.7401 -0.74902,8.24053 0.17236,16.21208 4.41497,22.4809 l 4.16395,-2.82025 c -3.30724,-4.88662 -4.25377,-11.64311 -3.56596,-19.2103 0.68783,-7.56723 2.99067,-15.83615 5.78822,-23.45547 1.46521,-3.99067 2.97084,-6.82488 4.52573,-10.26963 -0.4352,2.9123 -1.05907,5.06545 -1.28467,8.35008 -1.07186,15.6067 0.92224,34.80458 13.91678,48.23987 l 3.61761,-3.49953 c -11.49043,-11.88012 -13.52931,-29.50291 -12.50661,-44.39337 1.02269,-14.89043 5.02038,-26.69657 5.02038,-26.69657 z"
       id="path60719"
       inkscape:connector-curvature="0" />
    <path
       style="color:#000000;font-style:normal;font-variant:normal;font-weight:normal;font-stretch:normal;font-size:medium;line-height:normal;font-family:sans-serif;font-variant-ligatures:normal;font-variant-position:normal;font-variant-caps:normal;font-variant-numeric:normal;font-variant-alternates:normal;font-feature-settings:normal;text-indent:0;text-align:start;text-decoration:none;text-decoration-line:none;text-decoration-style:solid;text-decoration-color:#000000;letter-spacing:normal;word-spacing:normal;text-transform:none;writing-mode:lr-tb;direction:ltr;text-orientation:mixed;dominant-baseline:auto;baseline-shift:baseline;text-anchor:start;white-space:normal;shape-padding:0;clip-rule:nonzero;display:inline;overflow:visible;visibility:visible;opacity:1;isolation:auto;mix-blend-mode:normal;color-interpolation:sRGB;color-interpolation-filters:linearRGB;solid-color:#000000;solid-opacity:1;vector-effect:none;fill:#000000;fill-opacity:1;fill-rule:nonzero;stroke:none;stroke-width:5.03329897;stroke-linecap:butt;stroke-linejoin:miter;stroke-miterlimit:4;stroke-dasharray:none;stroke-dashoffset:0;stroke-opacity:1;color-rendering:auto;image-rendering:auto;shape-rendering:auto;text-rendering:auto;enable-background:accumulate"
       d="m 468.47114,599.95599 c -1.72843,13.14364 2.18811,31.69036 6.40093,47.23583 4.21286,15.54543 8.82996,27.98855 8.82996,27.98855 l 4.82102,-1.41011 c 0,0 -2.2874,-10.64136 -1.86045,-24.02396 0.42691,-13.38264 3.63285,-29.22203 14.09393,-39.68312 l -3.55858,-3.55855 c -11.87149,11.87154 -15.11515,29.0437 -15.56311,43.08661 -0.0341,1.06645 0.1289,1.68692 0.1255,2.7169 -0.94873,-3.12205 -1.06231,-2.8586 -2.03031,-6.43049 -4.14713,-15.30298 -7.77975,-33.76899 -6.26806,-45.26457 z"
       id="path60719-5"
       inkscape:connector-curvature="0" />
    <path
       inkscape:connector-curvature="0"
       id="path29-8-7-9-1"
       d="M 793.8282,780.10041 C 720.48694,707.89953 657.34822,705.0373 609.16394,720.25589 c -24.09223,7.60929 -44.40838,20.12419 -59.51218,31.62109 -15.10374,11.49689 -24.5621,21.5275 -28.52064,25.44945 l -13.56155,-13.68527 c 3.05068,-3.02216 14.05784,-14.64511 30.41224,-27.09373 16.3541,-12.44864 38.48687,-26.16864 65.38106,-34.6629 53.78787,-16.98862 126.75884,-11.53371 203.97966,64.48665 z"
       style="color:#000000;font-style:normal;font-variant:normal;font-weight:normal;font-stretch:normal;font-size:medium;line-height:normal;font-family:sans-serif;font-variant-ligatures:normal;font-variant-position:normal;font-variant-caps:normal;font-variant-numeric:normal;font-variant-alternates:normal;font-feature-settings:normal;text-indent:0;text-align:start;text-decoration:none;text-decoration-line:none;text-decoration-style:solid;text-decoration-color:#000000;letter-spacing:normal;word-spacing:normal;text-transform:none;writing-mode:lr-tb;direction:ltr;text-orientation:mixed;dominant-baseline:auto;baseline-shift:baseline;text-anchor:start;white-space:normal;shape-padding:0;clip-rule:nonzero;display:inline;overflow:visible;visibility:visible;opacity:1;isolation:auto;mix-blend-mode:normal;color-interpolation:sRGB;color-interpolation-filters:linearRGB;solid-color:#000000;solid-opacity:1;vector-effect:none;fill:#000000;fill-opacity:1;fill-rule:nonzero;stroke:none;stroke-width:19.26581955;stroke-linecap:butt;stroke-linejoin:miter;stroke-miterlimit:4;stroke-dasharray:none;stroke-dashoffset:0;stroke-opacity:1;color-rendering:auto;image-rendering:auto;shape-rendering:auto;text-rendering:auto;enable-background:accumulate" />
    <path
       inkscape:connector-curvature="0"
       id="path87-11-5-36-8"
       d="m 530.12722,338.48508 c -19.12445,0.18222 -34.58965,7.86999 -44.5498,19.37452 -9.98767,11.53564 -14.63157,26.42481 -14.49733,41.08482 0.13418,14.66017 5.04355,29.36928 15.15257,40.55545 10.07923,11.15256 25.54921,18.28963 44.27411,17.70648 18.36557,-0.0488 33.30987,-7.84352 42.79699,-19.35689 9.51599,-11.54889 13.88856,-26.33916 13.79379,-40.92298 -0.0937,-14.58403 -4.65164,-29.23566 -14.27057,-40.49944 -9.59386,-11.23453 -24.59558,-18.56693 -42.69976,-17.94196 z m 0.57392,19.24504 c 12.91905,-0.47526 21.34788,4.03223 27.47586,11.20822 6.12809,7.17608 9.58664,17.54016 9.65491,28.11458 0.0673,10.57445 -3.24929,21.08419 -9.39885,28.54708 -6.14895,7.46272 -14.79272,12.3584 -28.088,12.3584 h -0.16178 l -0.16179,0.0151 c -13.82847,0.4645 -23.00415,-4.1969 -29.49735,-11.38186 -6.49318,-7.18473 -10.08603,-17.39028 -10.18122,-27.81446 -0.0952,-10.4242 3.30165,-20.78924 9.80208,-28.29694 6.49964,-7.50781 15.91693,-12.62875 30.27048,-12.73505 l 0.14439,-0.0151 z"
       style="color:#000000;font-style:normal;font-variant:normal;font-weight:normal;font-stretch:normal;font-size:medium;line-height:normal;font-family:sans-serif;font-variant-ligatures:normal;font-variant-position:normal;font-variant-caps:normal;font-variant-numeric:normal;font-variant-alternates:normal;font-feature-settings:normal;text-indent:0;text-align:start;text-decoration:none;text-decoration-line:none;text-decoration-style:solid;text-decoration-color:#000000;letter-spacing:normal;word-spacing:normal;text-transform:none;writing-mode:lr-tb;direction:ltr;text-orientation:mixed;dominant-baseline:auto;baseline-shift:baseline;text-anchor:start;white-space:normal;shape-padding:0;clip-rule:nonzero;display:inline;overflow:visible;visibility:visible;opacity:1;isolation:auto;mix-blend-mode:normal;color-interpolation:sRGB;color-interpolation-filters:linearRGB;solid-color:#000000;solid-opacity:1;vector-effect:none;fill:#000000;fill-opacity:1;fill-rule:nonzero;stroke:none;stroke-width:19.26581955;stroke-linecap:butt;stroke-linejoin:miter;stroke-miterlimit:4;stroke-dasharray:none;stroke-dashoffset:0;stroke-opacity:1;color-rendering:auto;image-rendering:auto;shape-rendering:auto;text-rendering:auto;enable-background:accumulate" />
    <path
       inkscape:connector-curvature="0"
       id="path1039-2-1"
       d="m 617.99511,275.28695 10.89636,21.28076 c 0,0 -48.21981,24.68658 -96.90505,49.38066 -24.34276,12.34707 -48.79893,24.69636 -67.43704,33.97749 -9.31929,4.64054 -17.17524,8.51128 -22.89324,11.25824 -2.85882,1.37337 -5.17031,2.45903 -6.95978,3.26236 -0.89542,0.40167 -1.64281,0.72869 -2.40951,1.03256 -0.38326,0.15233 -0.75578,0.29787 -1.32132,0.47969 -0.56474,0.18182 -0.51787,0.64427 -3.96837,0.64427 v -23.9078 c -3.33668,0 -3.08338,0.41629 -3.35354,0.50317 -0.26989,0.0862 -0.25818,0.0899 -0.17048,0.0552 0.17616,-0.07 0.71662,-0.29637 1.43294,-0.6178 1.43223,-0.64277 3.63531,-1.67763 6.39508,-3.00341 5.52042,-2.65207 13.32277,-6.49362 22.59015,-11.1083 18.53444,-9.22936 42.96565,-21.56156 67.28124,-33.89502 48.63159,-24.66717 96.82275,-49.34244 96.82275,-49.34244 z"
       style="color:#000000;font-style:normal;font-variant:normal;font-weight:normal;font-stretch:normal;font-size:medium;line-height:normal;font-family:sans-serif;font-variant-ligatures:normal;font-variant-position:normal;font-variant-caps:normal;font-variant-numeric:normal;font-variant-alternates:normal;font-feature-settings:normal;text-indent:0;text-align:start;text-decoration:none;text-decoration-line:none;text-decoration-style:solid;text-decoration-color:#000000;letter-spacing:normal;word-spacing:normal;text-transform:none;writing-mode:lr-tb;direction:ltr;text-orientation:mixed;dominant-baseline:auto;baseline-shift:baseline;text-anchor:start;white-space:normal;shape-padding:0;clip-rule:nonzero;display:inline;overflow:visible;visibility:visible;opacity:1;isolation:auto;mix-blend-mode:normal;color-interpolation:sRGB;color-interpolation-filters:linearRGB;solid-color:#000000;solid-opacity:1;vector-effect:none;fill:#000000;fill-opacity:1;fill-rule:nonzero;stroke:none;stroke-width:23.90743637;stroke-linecap:butt;stroke-linejoin:miter;stroke-miterlimit:4;stroke-dasharray:none;stroke-dashoffset:0;stroke-opacity:1;color-rendering:auto;image-rendering:auto;shape-rendering:auto;text-rendering:auto;enable-background:accumulate" />
    <path
       inkscape:connector-curvature="0"
       id="path87-11-5-3-7-2"
       d="m 786.62662,338.48508 c -18.10344,-0.62497 -33.10553,6.70743 -42.69959,17.94196 -9.61942,11.26378 -14.17611,25.91541 -14.27091,40.49944 -0.0937,14.58382 4.27814,29.37409 13.79426,40.92298 9.48752,11.51409 24.42985,19.30983 42.7966,19.35689 18.72533,0.58315 34.19492,-6.55392 44.274,-17.70648 10.1095,-11.18617 15.01885,-25.89528 15.15307,-40.55545 0.13419,-14.66001 -4.51286,-29.54918 -14.49998,-41.08482 -9.96017,-11.50453 -25.42252,-19.19211 -44.54745,-19.37452 z m -0.57355,19.24504 0.14099,0.0151 0.141,0.0151 c 14.35396,0.10585 23.7742,5.22724 30.27369,12.73489 6.50047,7.50771 9.89495,17.87282 9.79938,28.29709 -0.0937,10.42404 -3.68852,20.62959 -10.18158,27.81446 -6.49325,7.18474 -15.66889,11.84621 -29.49708,11.38169 l -0.16217,-0.0151 h -0.16179 c -13.29475,0 -21.93851,-4.89569 -28.08766,-12.35847 -6.14953,-7.46279 -9.46452,-17.9726 -9.39643,-28.5469 0.07,-10.57461 3.5272,-20.93884 9.65541,-28.11465 6.12768,-7.17611 14.55691,-11.6836 27.47571,-11.20826 z"
       style="color:#000000;font-style:normal;font-variant:normal;font-weight:normal;font-stretch:normal;font-size:medium;line-height:normal;font-family:sans-serif;font-variant-ligatures:normal;font-variant-position:normal;font-variant-caps:normal;font-variant-numeric:normal;font-variant-alternates:normal;font-feature-settings:normal;text-indent:0;text-align:start;text-decoration:none;text-decoration-line:none;text-decoration-style:solid;text-decoration-color:#000000;letter-spacing:normal;word-spacing:normal;text-transform:none;writing-mode:lr-tb;direction:ltr;text-orientation:mixed;dominant-baseline:auto;baseline-shift:baseline;text-anchor:start;white-space:normal;shape-padding:0;clip-rule:nonzero;display:inline;overflow:visible;visibility:visible;opacity:1;isolation:auto;mix-blend-mode:normal;color-interpolation:sRGB;color-interpolation-filters:linearRGB;solid-color:#000000;solid-opacity:1;vector-effect:none;fill:#000000;fill-opacity:1;fill-rule:nonzero;stroke:none;stroke-width:19.26581955;stroke-linecap:butt;stroke-linejoin:miter;stroke-miterlimit:4;stroke-dasharray:none;stroke-dashoffset:0;stroke-opacity:1;color-rendering:auto;image-rendering:auto;shape-rendering:auto;text-rendering:auto;enable-background:accumulate" />
    <path
       inkscape:connector-curvature="0"
       id="path1039-7-0-3"
       d="m 698.75667,275.28695 c 0,0 48.19365,24.67526 96.82532,49.34247 24.31566,12.33346 48.74406,24.66562 67.27856,33.89501 9.26696,4.6148 17.06935,8.45623 22.58995,11.10827 2.76001,1.32582 4.96301,2.36079 6.39561,3.00341 0.71592,0.32128 1.25679,0.54814 1.4322,0.6178 0.0877,0.034 0.099,0.0303 -0.17049,-0.0552 -0.26988,-0.0862 -0.0151,-0.50299 -3.3535,-0.50299 v 23.90777 c -3.44971,0 -3.40004,-0.46256 -3.96523,-0.64435 -0.56554,-0.18182 -0.94054,-0.32736 -1.32369,-0.47965 -0.76671,-0.30391 -1.51165,-0.63077 -2.40669,-1.03252 -1.78981,-0.80333 -4.10096,-1.889 -6.96027,-3.2624 -5.71788,-2.74692 -13.57683,-6.61751 -22.89561,-11.2582 -18.63857,-9.28113 -43.09517,-21.63042 -67.43755,-33.97749 -48.68525,-24.69423 -96.90236,-49.38077 -96.90236,-49.38077 z"
       style="color:#000000;font-style:normal;font-variant:normal;font-weight:normal;font-stretch:normal;font-size:medium;line-height:normal;font-family:sans-serif;font-variant-ligatures:normal;font-variant-position:normal;font-variant-caps:normal;font-variant-numeric:normal;font-variant-alternates:normal;font-feature-settings:normal;text-indent:0;text-align:start;text-decoration:none;text-decoration-line:none;text-decoration-style:solid;text-decoration-color:#000000;letter-spacing:normal;word-spacing:normal;text-transform:none;writing-mode:lr-tb;direction:ltr;text-orientation:mixed;dominant-baseline:auto;baseline-shift:baseline;text-anchor:start;white-space:normal;shape-padding:0;clip-rule:nonzero;display:inline;overflow:visible;visibility:visible;opacity:1;isolation:auto;mix-blend-mode:normal;color-interpolation:sRGB;color-interpolation-filters:linearRGB;solid-color:#000000;solid-opacity:1;vector-effect:none;fill:#000000;fill-opacity:1;fill-rule:nonzero;stroke:none;stroke-width:23.90743637;stroke-linecap:butt;stroke-linejoin:miter;stroke-miterlimit:4;stroke-dasharray:none;stroke-dashoffset:0;stroke-opacity:1;color-rendering:auto;image-rendering:auto;shape-rendering:auto;text-rendering:auto;enable-background:accumulate" />
  </g>
</svg>
