<?xml version="1.0" encoding="UTF-8" standalone="no"?>
<!-- Created with Inkscape (http://www.inkscape.org/) -->

<svg
   xmlns:dc="http://purl.org/dc/elements/1.1/"
   xmlns:cc="http://creativecommons.org/ns#"
   xmlns:rdf="http://www.w3.org/1999/02/22-rdf-syntax-ns#"
   xmlns:svg="http://www.w3.org/2000/svg"
   xmlns="http://www.w3.org/2000/svg"
   xmlns:sodipodi="http://sodipodi.sourceforge.net/DTD/sodipodi-0.dtd"
   xmlns:inkscape="http://www.inkscape.org/namespaces/inkscape"
   width="1000"
   height="1000"
   viewBox="0 0 1000 1000"
   version="1.1"
   id="svg11332"
   inkscape:version="0.92.4 (5da689c313, 2019-01-14)"
   sodipodi:docname="Amigável.svg">
  <defs
     id="defs11326" />
  <sodipodi:namedview
     id="base"
     pagecolor="#ffffff"
     bordercolor="#666666"
     borderopacity="1.0"
     inkscape:pageopacity="0.0"
     inkscape:pageshadow="2"
     inkscape:zoom="0.5"
     inkscape:cx="840.59615"
     inkscape:cy="530.85666"
     inkscape:document-units="px"
     inkscape:current-layer="layer1"
     showgrid="false"
     inkscape:window-width="1366"
     inkscape:window-height="715"
     inkscape:window-x="-8"
     inkscape:window-y="-8"
     inkscape:window-maximized="1"
     units="px" />
  <metadata
     id="metadata11329">
    <rdf:RDF>
      <cc:Work
         rdf:about="">
        <dc:format>image/svg+xml</dc:format>
        <dc:type
           rdf:resource="http://purl.org/dc/dcmitype/StillImage" />
        <dc:title />
      </cc:Work>
    </rdf:RDF>
  </metadata>
  <g
     inkscape:label="Camada 1"
     inkscape:groupmode="layer"
     id="layer1"
     transform="translate(0,-32.416659)">
    <path
       style="color:#000000;font-style:normal;font-variant:normal;font-weight:normal;font-stretch:normal;font-size:medium;line-height:normal;font-family:sans-serif;font-variant-ligatures:normal;font-variant-position:normal;font-variant-caps:normal;font-variant-numeric:normal;font-variant-alternates:normal;font-feature-settings:normal;text-indent:0;text-align:start;text-decoration:none;text-decoration-line:none;text-decoration-style:solid;text-decoration-color:#000000;letter-spacing:normal;word-spacing:normal;text-transform:none;writing-mode:lr-tb;direction:ltr;text-orientation:mixed;dominant-baseline:auto;baseline-shift:baseline;text-anchor:start;white-space:normal;shape-padding:0;clip-rule:nonzero;display:inline;overflow:visible;visibility:visible;opacity:1;isolation:auto;mix-blend-mode:normal;color-interpolation:sRGB;color-interpolation-filters:linearRGB;solid-color:#000000;solid-opacity:1;vector-effect:none;fill:#000000;fill-opacity:1;fill-rule:nonzero;stroke:none;stroke-width:24.21989822;stroke-linecap:butt;stroke-linejoin:miter;stroke-miterlimit:4;stroke-dasharray:none;stroke-dashoffset:0;stroke-opacity:1;color-rendering:auto;image-rendering:auto;shape-rendering:auto;text-rendering:auto;enable-background:accumulate"
       d="M 236.74609,32.622473 C 143.41192,32.595173 79.295327,70.068213 42.416016,126.12833 5.5335574,182.19322 -4.7582407,255.4012 3.3027344,327.86662 11.363709,400.33201 37.81196,472.37369 76.859375,527.08537 115.90679,581.79702 168.48,619.9103 228.27539,619.55412 288.0426,619.19805 340.18325,580.6848 379,525.78849 417.81675,470.89216 444.21548,398.87858 452.98242,326.59317 461.74936,254.30775 452.96772,181.48483 418.9082,125.642 384.85199,69.804663 324.50498,32.306813 236.74609,32.622473 Z m 0.0156,24.21875 h 0.0234 0.0254 c 81.05203,-0.29838 131.32473,32.06591 161.42187,81.412107 30.09714,49.3462 39.00101,117.03809 30.70703,185.42383 -8.29398,68.38574 -33.70367,137.20035 -69.71484,188.1289 C 323.21338,562.73462 277.50788,595.0412 228.1308,595.33537 178.7819,595.62932 132.75526,563.7125 96.574159,513.01701 60.393115,462.3215 34.982823,393.5806 27.375,325.18887 19.767177,256.79715 29.997969,189.07371 62.650391,139.43887 95.302812,89.804043 149.72633,56.809843 236.76172,56.841223 Z"
       id="path10-9-0"
       inkscape:connector-curvature="0" />
    <path
       style="color:#000000;font-style:normal;font-variant:normal;font-weight:normal;font-stretch:normal;font-size:medium;line-height:normal;font-family:sans-serif;font-variant-ligatures:normal;font-variant-position:normal;font-variant-caps:normal;font-variant-numeric:normal;font-variant-alternates:normal;font-feature-settings:normal;text-indent:0;text-align:start;text-decoration:none;text-decoration-line:none;text-decoration-style:solid;text-decoration-color:#000000;letter-spacing:normal;word-spacing:normal;text-transform:none;writing-mode:lr-tb;direction:ltr;text-orientation:mixed;dominant-baseline:auto;baseline-shift:baseline;text-anchor:start;white-space:normal;shape-padding:0;clip-rule:nonzero;display:inline;overflow:visible;visibility:visible;opacity:1;isolation:auto;mix-blend-mode:normal;color-interpolation:sRGB;color-interpolation-filters:linearRGB;solid-color:#000000;solid-opacity:1;vector-effect:none;fill:#000000;fill-opacity:1;fill-rule:nonzero;stroke:none;stroke-width:10.49703503;stroke-linecap:butt;stroke-linejoin:miter;stroke-miterlimit:4;stroke-dasharray:none;stroke-dashoffset:0;stroke-opacity:1;color-rendering:auto;image-rendering:auto;shape-rendering:auto;text-rendering:auto;enable-background:accumulate"
       d="m 301.03125,980.23379 c -24.69325,17.32861 -47.54688,7.00783 -47.54687,7.00783 l -1.4375,-0.62697 -1.54493,0.26368 c -8.71334,1.48766 -31.80073,2.80489 -52.11914,3.61914 -20.31841,0.81425 -38.24414,1.21875 -38.24414,1.21875 h 0.11914 c -12.84628,0 -24.50484,8.43188 -33.45898,16.25588 -8.95415,7.824 -15.19141,15.6367 -15.19141,15.6367 l 8.19727,6.5567 c 0,0 5.73209,-7.1498 13.90039,-14.2871 8.16829,-7.1374 18.78568,-13.6661 26.55273,-13.6661 h 0.0586 0.0586 c 0,0 18.00143,-0.4041 38.42773,-1.2226 19.73895,-0.791 41.16064,-1.89564 52.12891,-3.59575 4.20633,1.57981 29.61822,10.03895 56.13086,-8.56641 z"
       id="path12865"
       inkscape:connector-curvature="0" />
    <path
       style="color:#000000;font-style:normal;font-variant:normal;font-weight:normal;font-stretch:normal;font-size:medium;line-height:normal;font-family:sans-serif;font-variant-ligatures:normal;font-variant-position:normal;font-variant-caps:normal;font-variant-numeric:normal;font-variant-alternates:normal;font-feature-settings:normal;text-indent:0;text-align:start;text-decoration:none;text-decoration-line:none;text-decoration-style:solid;text-decoration-color:#000000;letter-spacing:normal;word-spacing:normal;text-transform:none;writing-mode:lr-tb;direction:ltr;text-orientation:mixed;dominant-baseline:auto;baseline-shift:baseline;text-anchor:start;white-space:normal;shape-padding:0;clip-rule:nonzero;display:inline;overflow:visible;visibility:visible;opacity:1;isolation:auto;mix-blend-mode:normal;color-interpolation:sRGB;color-interpolation-filters:linearRGB;solid-color:#000000;solid-opacity:1;vector-effect:none;fill:#000000;fill-opacity:1;fill-rule:nonzero;stroke:none;stroke-width:10.49703503;stroke-linecap:butt;stroke-linejoin:miter;stroke-miterlimit:4;stroke-dasharray:none;stroke-dashoffset:0;stroke-opacity:1;color-rendering:auto;image-rendering:auto;shape-rendering:auto;text-rendering:auto;enable-background:accumulate"
       d="m 383.90039,955.8002 c -33.55989,3.52829 -53.41258,8.97127 -65.49414,13.9922 -6.04078,2.51046 -10.14434,4.93125 -12.94531,6.9082 -2.80098,1.97694 -4.82761,3.81043 -4.41602,3.52344 l 6.00391,8.61133 c 1.85578,-1.29396 2.29903,-2.02995 4.46484,-3.5586 2.16582,-1.52864 5.52667,-3.54884 10.92188,-5.79101 10.79041,-4.48435 29.6941,-9.7905 62.5625,-13.2461 z"
       id="path12867"
       inkscape:connector-curvature="0" />
    <path
       style="color:#000000;font-style:normal;font-variant:normal;font-weight:normal;font-stretch:normal;font-size:medium;line-height:normal;font-family:sans-serif;font-variant-ligatures:normal;font-variant-position:normal;font-variant-caps:normal;font-variant-numeric:normal;font-variant-alternates:normal;font-feature-settings:normal;text-indent:0;text-align:start;text-decoration:none;text-decoration-line:none;text-decoration-style:solid;text-decoration-color:#000000;letter-spacing:normal;word-spacing:normal;text-transform:none;writing-mode:lr-tb;direction:ltr;text-orientation:mixed;dominant-baseline:auto;baseline-shift:baseline;text-anchor:start;white-space:normal;shape-padding:0;clip-rule:nonzero;display:inline;overflow:visible;visibility:visible;opacity:1;isolation:auto;mix-blend-mode:normal;color-interpolation:sRGB;color-interpolation-filters:linearRGB;solid-color:#000000;solid-opacity:1;vector-effect:none;fill:#000000;fill-opacity:1;fill-rule:nonzero;stroke:none;stroke-width:10.49703503;stroke-linecap:butt;stroke-linejoin:miter;stroke-miterlimit:4;stroke-dasharray:none;stroke-dashoffset:0;stroke-opacity:1;color-rendering:auto;image-rendering:auto;shape-rendering:auto;text-rendering:auto;enable-background:accumulate"
       d="m 545.71094,905.14787 -5.90039,8.68164 c 6.51859,4.43048 10.2363,8.54969 12.0625,11.8164 1.8262,3.26671 1.89552,5.54508 1.39062,7.37305 -1.00198,3.62767 -5.62544,6.47331 -9.98242,6.29102 -31.34968,-6.52498 -67.52441,-2.26688 -97.84375,3.47656 -15.27374,2.89333 -29.05262,6.1859 -39.84961,8.73633 -10.79699,2.55042 -19.31028,4.24803 -21.13867,4.24803 v 10.49805 c 5.38973,0 12.73412,-1.97572 23.55273,-4.53125 10.81861,-2.55552 24.41183,-5.80159 39.38867,-8.63867 29.9537,-5.67417 65.45948,-9.59407 94.41407,-3.40235 l 0.40625,0.0859 0.41406,0.0215 c 8.96452,0.4735 18.18524,-4.68329 20.75586,-13.99023 1.28531,-4.65347 0.56205,-10.08768 -2.3457,-15.28906 -2.90776,-5.2014 -7.8637,-10.30626 -15.32422,-15.37695 z"
       id="path12869"
       inkscape:connector-curvature="0" />
    <path
       style="color:#000000;font-style:normal;font-variant:normal;font-weight:normal;font-stretch:normal;font-size:medium;line-height:normal;font-family:sans-serif;font-variant-ligatures:normal;font-variant-position:normal;font-variant-caps:normal;font-variant-numeric:normal;font-variant-alternates:normal;font-feature-settings:normal;text-indent:0;text-align:start;text-decoration:none;text-decoration-line:none;text-decoration-style:solid;text-decoration-color:#000000;letter-spacing:normal;word-spacing:normal;text-transform:none;writing-mode:lr-tb;direction:ltr;text-orientation:mixed;dominant-baseline:auto;baseline-shift:baseline;text-anchor:start;white-space:normal;shape-padding:0;clip-rule:nonzero;display:inline;overflow:visible;visibility:visible;opacity:1;isolation:auto;mix-blend-mode:normal;color-interpolation:sRGB;color-interpolation-filters:linearRGB;solid-color:#000000;solid-opacity:1;vector-effect:none;fill:#000000;fill-opacity:1;fill-rule:nonzero;stroke:none;stroke-width:10.49703503;stroke-linecap:butt;stroke-linejoin:miter;stroke-miterlimit:4;stroke-dasharray:none;stroke-dashoffset:0;stroke-opacity:1;color-rendering:auto;image-rendering:auto;shape-rendering:auto;text-rendering:auto;enable-background:accumulate"
       d="m 446.09766,889.85293 c -11.65006,-0.0689 -28.79249,1.5943 -54.02735,6.6797 -1.51235,-0.34297 -10.65642,-2.39238 -22.60742,-3.9922 -12.97513,-1.7369 -27.9028,-3.12901 -38.65039,0.50197 l 3.36133,9.9453 c 6.64935,-2.24641 21.47172,-1.70619 33.89648,-0.043 12.42476,1.66323 22.73828,4.04493 22.73828,4.04493 l 1.11329,0.25782 1.11718,-0.22852 c 33.92135,-6.91601 52.43633,-7.3031 61.91211,-6.16602 4.73789,0.56855 7.19077,1.50875 8.22852,2.04297 0.38504,0.19822 0.42666,0.25068 0.48828,0.29882 l 1.89648,3.10156 4.04493,-1.49023 c 11.81121,-4.35146 20.00199,-4.07095 25.17187,-2.95313 5.16988,1.11783 6.89063,2.72657 6.89063,2.72657 l 1.76562,1.4707 2.2793,-0.29882 c 1.97309,-0.2591 3.49734,-0.27562 5.24218,-0.4082 l -0.14453,3.77344 c 16.40067,0.63077 30.24414,5.33789 30.24414,5.33789 l 10.375,3.55468 -3.74023,-10.31054 c 0,0 -0.74876,-1.84708 -2.14258,-3.54492 -1.39381,-1.69784 -3.60796,-3.70055 -6.88281,-5.41016 -6.28017,-3.27851 -16.43958,-5.36243 -32.39453,-3.54883 -1.82945,-1.12239 -4.64338,-2.60004 -9.27539,-3.60156 -6.60242,-1.42756 -16.15057,-1.3979 -28.19141,2.52148 -0.30628,-0.18523 -0.46826,-0.36854 -0.82226,-0.55078 -2.474,-1.27359 -6.12936,-2.45459 -11.78126,-3.13281 -2.82594,-0.33911 -6.15817,-0.55477 -10.10546,-0.57813 z"
       id="path12871"
       inkscape:connector-curvature="0" />
    <path
       style="color:#000000;font-style:normal;font-variant:normal;font-weight:normal;font-stretch:normal;font-size:medium;line-height:normal;font-family:sans-serif;font-variant-ligatures:normal;font-variant-position:normal;font-variant-caps:normal;font-variant-numeric:normal;font-variant-alternates:normal;font-feature-settings:normal;text-indent:0;text-align:start;text-decoration:none;text-decoration-line:none;text-decoration-style:solid;text-decoration-color:#000000;letter-spacing:normal;word-spacing:normal;text-transform:none;writing-mode:lr-tb;direction:ltr;text-orientation:mixed;dominant-baseline:auto;baseline-shift:baseline;text-anchor:start;white-space:normal;shape-padding:0;clip-rule:nonzero;display:inline;overflow:visible;visibility:visible;opacity:1;isolation:auto;mix-blend-mode:normal;color-interpolation:sRGB;color-interpolation-filters:linearRGB;solid-color:#000000;solid-opacity:1;vector-effect:none;fill:#000000;fill-opacity:1;fill-rule:nonzero;stroke:none;stroke-width:10.49703503;stroke-linecap:butt;stroke-linejoin:miter;stroke-miterlimit:4;stroke-dasharray:none;stroke-dashoffset:0;stroke-opacity:1;color-rendering:auto;image-rendering:auto;shape-rendering:auto;text-rendering:auto;enable-background:accumulate"
       d="m 199.23633,817.64395 -4.78516,9.34179 c 30.39061,15.57211 75.89453,15.85743 75.89453,15.85743 h 0.0234 0.0234 c 32.44996,0.22692 51.13952,7.64294 51.53906,7.80273 10.55834,4.94754 15.6439,10.12347 17.86133,14.5918 2.22693,4.48748 1.97522,8.65346 0.51758,12.91797 -2.9153,8.52903 -11.19532,15.8418 -11.19532,15.8418 l 6.75586,8.03516 c 0,0 10.17477,-8.20362 14.3711,-20.48047 2.09816,-6.13842 2.56682,-13.69853 -1.04688,-20.98047 -3.61369,-7.28193 -10.91156,-13.8914 -22.94726,-19.5039 l -0.13282,-0.0625 -0.13671,-0.0547 c 0,0 -21.07789,-8.36271 -55.51368,-8.60352 h 0.0449 c 0,0 -44.77129,-1.12346 -71.27344,-14.70312 z"
       id="path12873"
       inkscape:connector-curvature="0" />
    <path
       style="color:#000000;font-style:normal;font-variant:normal;font-weight:normal;font-stretch:normal;font-size:medium;line-height:normal;font-family:sans-serif;font-variant-ligatures:normal;font-variant-position:normal;font-variant-caps:normal;font-variant-numeric:normal;font-variant-alternates:normal;font-feature-settings:normal;text-indent:0;text-align:start;text-decoration:none;text-decoration-line:none;text-decoration-style:solid;text-decoration-color:#000000;letter-spacing:normal;word-spacing:normal;text-transform:none;writing-mode:lr-tb;direction:ltr;text-orientation:mixed;dominant-baseline:auto;baseline-shift:baseline;text-anchor:start;white-space:normal;shape-padding:0;clip-rule:nonzero;display:inline;overflow:visible;visibility:visible;opacity:1;isolation:auto;mix-blend-mode:normal;color-interpolation:sRGB;color-interpolation-filters:linearRGB;solid-color:#000000;solid-opacity:1;vector-effect:none;fill:#000000;fill-opacity:1;fill-rule:nonzero;stroke:none;stroke-width:10.49703503;stroke-linecap:butt;stroke-linejoin:miter;stroke-miterlimit:4;stroke-dasharray:none;stroke-dashoffset:0;stroke-opacity:1;color-rendering:auto;image-rendering:auto;shape-rendering:auto;text-rendering:auto;enable-background:accumulate"
       d="m 174.23047,814.37833 c -11.41591,0.35922 -24.85498,3.04453 -33.93555,12.66796 -0.0538,0.041 -0.59078,0.46408 -2.91211,1.47656 -2.38292,1.03935 -6.27723,2.42572 -11.88476,3.63282 -0.54496,0.0281 -1.08529,0.0396 -1.69727,0.19531 -1.72537,0.43906 -3.6202,1.40065 -5.76367,3.11914 -4.28695,3.43697 -9.75105,9.92693 -17.22656,23.31055 l 0.13867,-0.23632 c 0,0 -6.874079,10.75174 -18.021486,17.98242 l 5.710938,8.80664 c 13.455648,-8.72791 21.195308,-21.19726 21.195308,-21.19726 l 0.0742,-0.1172 0.0664,-0.11914 c 7.10027,-12.71182 12.09811,-18.21122 14.62891,-20.24023 0.97779,-0.78393 1.20377,-0.80749 1.38086,-0.87696 l 0.0234,0.008 1.39453,-0.29492 c 6.44509,-1.36334 11.08052,-2.99871 14.17774,-4.34961 3.09721,-1.3509 4.94726,-2.62695 4.94726,-2.62695 l 0.48633,-0.34766 0.39453,-0.44531 c 6.04355,-6.8329 16.9246,-9.53363 27.15235,-9.85546 5.11387,-0.16093 9.97196,0.2376 13.68945,0.78711 1.85875,0.27475 3.43783,0.58871 4.58008,0.86719 1.14224,0.27847 2.0505,0.68404 1.5918,0.44531 l 4.8457,-9.31056 c -1.41519,-0.7365 -2.41973,-0.96063 -3.95117,-1.33398 -1.53145,-0.37336 -3.38888,-0.7341 -5.53125,-1.05078 -4.28475,-0.63336 -9.69531,-1.08086 -15.55469,-0.89649 z"
       id="path12875"
       inkscape:connector-curvature="0" />
    <path
       style="color:#000000;font-style:normal;font-variant:normal;font-weight:normal;font-stretch:normal;font-size:medium;line-height:normal;font-family:sans-serif;font-variant-ligatures:normal;font-variant-position:normal;font-variant-caps:normal;font-variant-numeric:normal;font-variant-alternates:normal;font-feature-settings:normal;text-indent:0;text-align:start;text-decoration:none;text-decoration-line:none;text-decoration-style:solid;text-decoration-color:#000000;letter-spacing:normal;word-spacing:normal;text-transform:none;writing-mode:lr-tb;direction:ltr;text-orientation:mixed;dominant-baseline:auto;baseline-shift:baseline;text-anchor:start;white-space:normal;shape-padding:0;clip-rule:nonzero;display:inline;overflow:visible;visibility:visible;opacity:1;isolation:auto;mix-blend-mode:normal;color-interpolation:sRGB;color-interpolation-filters:linearRGB;solid-color:#000000;solid-opacity:1;vector-effect:none;fill:#000000;fill-opacity:1;fill-rule:nonzero;stroke:none;stroke-width:10.49703503;stroke-linecap:butt;stroke-linejoin:miter;stroke-miterlimit:4;stroke-dasharray:none;stroke-dashoffset:0;stroke-opacity:1;color-rendering:auto;image-rendering:auto;shape-rendering:auto;text-rendering:auto;enable-background:accumulate"
       d="m 202.38281,882.82951 c -6.02467,-10e-6 -11.22853,0.25379 -15.71484,2.30467 l 4.36523,9.54688 c 1.33197,-0.60889 5.93513,-1.35352 11.34961,-1.35352 5.41449,10e-6 11.80621,0.4802 17.86328,1.13283 11.8683,1.27873 22.14726,3.14562 22.57032,3.22265 51.13597,17.88385 91.25586,5.33789 91.25586,5.33789 l -3.15821,-10.01172 c 0,0 -36.77152,11.69425 -85.125,-5.39062 l -0.39258,-0.13867 -0.41015,-0.0762 c 0,0 -11.04323,-2.02434 -23.61524,-3.37891 -6.286,-0.67729 -12.96361,-1.19531 -18.98828,-1.19531 z"
       id="path12877"
       inkscape:connector-curvature="0" />
    <path
       style="color:#000000;font-style:normal;font-variant:normal;font-weight:normal;font-stretch:normal;font-size:medium;line-height:normal;font-family:sans-serif;font-variant-ligatures:normal;font-variant-position:normal;font-variant-caps:normal;font-variant-numeric:normal;font-variant-alternates:normal;font-feature-settings:normal;text-indent:0;text-align:start;text-decoration:none;text-decoration-line:none;text-decoration-style:solid;text-decoration-color:#000000;letter-spacing:normal;word-spacing:normal;text-transform:none;writing-mode:lr-tb;direction:ltr;text-orientation:mixed;dominant-baseline:auto;baseline-shift:baseline;text-anchor:start;white-space:normal;shape-padding:0;clip-rule:nonzero;display:inline;overflow:visible;visibility:visible;opacity:1;isolation:auto;mix-blend-mode:normal;color-interpolation:sRGB;color-interpolation-filters:linearRGB;solid-color:#000000;solid-opacity:1;vector-effect:none;fill:#000000;fill-opacity:1;fill-rule:nonzero;stroke:none;stroke-width:10.49703503;stroke-linecap:butt;stroke-linejoin:miter;stroke-miterlimit:4;stroke-dasharray:none;stroke-dashoffset:0;stroke-opacity:1;color-rendering:auto;image-rendering:auto;shape-rendering:auto;text-rendering:auto;enable-background:accumulate"
       d="m 177.30859,883.96426 -3.51367,9.89063 c 5.03658,1.78911 10.96093,3.64061 17.20313,0.84179 l -4.29493,-9.57812 c -2.70774,1.21407 -4.51224,0.58001 -9.39453,-1.1543 z"
       id="path12879"
       inkscape:connector-curvature="0" />
    <path
       style="color:#000000;font-style:normal;font-variant:normal;font-weight:normal;font-stretch:normal;font-size:medium;line-height:normal;font-family:sans-serif;font-variant-ligatures:normal;font-variant-position:normal;font-variant-caps:normal;font-variant-numeric:normal;font-variant-alternates:normal;font-feature-settings:normal;text-indent:0;text-align:start;text-decoration:none;text-decoration-line:none;text-decoration-style:solid;text-decoration-color:#000000;letter-spacing:normal;word-spacing:normal;text-transform:none;writing-mode:lr-tb;direction:ltr;text-orientation:mixed;dominant-baseline:auto;baseline-shift:baseline;text-anchor:start;white-space:normal;shape-padding:0;clip-rule:nonzero;display:inline;overflow:visible;visibility:visible;opacity:1;isolation:auto;mix-blend-mode:normal;color-interpolation:sRGB;color-interpolation-filters:linearRGB;solid-color:#000000;solid-opacity:1;vector-effect:none;fill:#000000;fill-opacity:1;fill-rule:nonzero;stroke:none;stroke-width:10.49703503;stroke-linecap:butt;stroke-linejoin:miter;stroke-miterlimit:4;stroke-dasharray:none;stroke-dashoffset:0;stroke-opacity:1;color-rendering:auto;image-rendering:auto;shape-rendering:auto;text-rendering:auto;enable-background:accumulate"
       d="m 507.19727,895.76504 -4.33008,9.5625 c 7.62816,3.45361 10.80421,6.82133 11.51758,8.42188 0.71336,1.60055 0.5367,2.19404 -1.36915,4.24023 -3.81169,4.09239 -15.34555,8.64458 -23.65234,9.24024 l -1.1914,0.084 -1.03711,0.59375 c 0.69498,-0.39713 0.10166,-0.06 -0.61133,0.15039 -0.71299,0.21043 -1.76164,0.48638 -3.04297,0.79688 -2.56267,0.62099 -6.07545,1.39158 -10.17383,2.24219 -8.19676,1.7012 -18.7544,3.73365 -29.16797,5.68359 -20.82713,3.89988 -41.08984,7.4707 -41.08984,7.4707 l -0.33985,0.0606 -0.32812,0.10351 c -11.10437,3.50666 -33.48633,4.41407 -33.48633,4.41407 l 0.64649,0.0195 c -3.4734,-0.32563 -8.49956,-0.12311 -14.78711,0.24023 -6.28755,0.36335 -13.59805,0.93777 -20.56836,1.54297 -13.94063,1.2104 -26.53125,2.54492 -26.53125,2.54492 l 1.10742,10.43947 c 0,0 12.51111,-1.32539 26.33203,-2.52539 6.91046,-0.60001 14.14775,-1.16796 20.26563,-1.52149 6.11787,-0.35354 11.35497,-0.44261 13.20117,-0.26953 l 0.32226,0.0312 0.32422,-0.01 c 0,0 22.1704,-0.42376 36.33399,-4.89648 l -0.66993,0.16405 c 0,0 20.30089,-3.57701 41.19922,-7.49023 10.44917,-1.9566 21.0461,-3.99719 29.36914,-5.72461 4.16152,-0.8637 7.74897,-1.64646 10.51367,-2.31641 1.38236,-0.33497 2.5543,-0.64043 3.54102,-0.93164 0.47949,-0.14151 0.96947,-0.3954 1.38477,-0.53711 10.60746,-0.89973 22.71382,-4.8176 29.81836,-12.4453 3.63606,-3.90382 5.75519,-10.10417 3.27539,-15.66797 -2.4798,-5.56379 -7.98588,-9.73153 -16.77539,-13.71094 z"
       id="path12881"
       inkscape:connector-curvature="0" />
    <path
       style="color:#000000;font-style:normal;font-variant:normal;font-weight:normal;font-stretch:normal;font-size:medium;line-height:normal;font-family:sans-serif;font-variant-ligatures:normal;font-variant-position:normal;font-variant-caps:normal;font-variant-numeric:normal;font-variant-alternates:normal;font-feature-settings:normal;text-indent:0;text-align:start;text-decoration:none;text-decoration-line:none;text-decoration-style:solid;text-decoration-color:#000000;letter-spacing:normal;word-spacing:normal;text-transform:none;writing-mode:lr-tb;direction:ltr;text-orientation:mixed;dominant-baseline:auto;baseline-shift:baseline;text-anchor:start;white-space:normal;shape-padding:0;clip-rule:nonzero;display:inline;overflow:visible;visibility:visible;opacity:1;isolation:auto;mix-blend-mode:normal;color-interpolation:sRGB;color-interpolation-filters:linearRGB;solid-color:#000000;solid-opacity:1;vector-effect:none;fill:#000000;fill-opacity:1;fill-rule:nonzero;stroke:none;stroke-width:10.49703503;stroke-linecap:butt;stroke-linejoin:miter;stroke-miterlimit:4;stroke-dasharray:none;stroke-dashoffset:0;stroke-opacity:1;color-rendering:auto;image-rendering:auto;shape-rendering:auto;text-rendering:auto;enable-background:accumulate"
       d="m 420.66992,893.89787 c -8.33946,0.0646 -18.16428,0.84956 -29.5664,2.80664 l 1.77539,10.34569 c 21.74719,-3.73271 37.00458,-2.92794 46.69336,-1.2871 9.68877,1.64083 13.32226,3.83203 13.32226,3.83203 l 2.33008,1.32813 2.44141,-1.10938 c 3.34083,-1.51859 12.0957,-5.06641 12.0957,-5.06641 l -3.93164,-9.73243 c 0,0 -6.08539,2.50445 -10.35352,4.33985 -2.42882,-1.06624 -6.55999,-2.65595 -14.15039,-3.94141 -5.46229,-0.92506 -12.31679,-1.58019 -20.65625,-1.51561 z"
       id="path12883"
       inkscape:connector-curvature="0" />
    <path
       style="color:#000000;font-style:normal;font-variant:normal;font-weight:normal;font-stretch:normal;font-size:medium;line-height:normal;font-family:sans-serif;font-variant-ligatures:normal;font-variant-position:normal;font-variant-caps:normal;font-variant-numeric:normal;font-variant-alternates:normal;font-feature-settings:normal;text-indent:0;text-align:start;text-decoration:none;text-decoration-line:none;text-decoration-style:solid;text-decoration-color:#000000;letter-spacing:normal;word-spacing:normal;text-transform:none;writing-mode:lr-tb;direction:ltr;text-orientation:mixed;dominant-baseline:auto;baseline-shift:baseline;text-anchor:start;white-space:normal;shape-padding:0;clip-rule:nonzero;display:inline;overflow:visible;visibility:visible;opacity:1;isolation:auto;mix-blend-mode:normal;color-interpolation:sRGB;color-interpolation-filters:linearRGB;solid-color:#000000;solid-opacity:1;vector-effect:none;fill:#000000;fill-opacity:1;fill-rule:nonzero;stroke:none;stroke-width:10.49703503;stroke-linecap:butt;stroke-linejoin:miter;stroke-miterlimit:4;stroke-dasharray:none;stroke-dashoffset:0;stroke-opacity:1;color-rendering:auto;image-rendering:auto;shape-rendering:auto;text-rendering:auto;enable-background:accumulate"
       d="m 314.66406,844.13224 c -2.75468,-0.17435 -5.01268,-0.0633 -6.85547,0.19727 -1.84278,0.26059 -3.26583,0.67469 -4.31836,1.09569 -1.05252,0.42102 -2.08593,1.11133 -2.08593,1.11133 l -1.4375,1.05859 -0.49414,1.71485 c -5.88104,20.45571 -1.77149,42.78711 -1.77149,42.78711 l 0.41016,2.36523 2.06055,1.23437 c 4.67717,2.8065 10.13245,3.29246 14.91992,3.69922 4.78746,0.40677 8.78515,0.33985 8.78515,0.33985 l 2.67969,-0.041 1.53711,-2.19726 c 10.61582,-15.16539 10.92589,-28.30511 7.82617,-37.18165 -3.09972,-8.87653 -9.40039,-13.71874 -9.40039,-13.71874 l -0.90625,-0.69532 -1.11523,-0.25586 c -3.82898,-0.87877 -7.0793,-1.33933 -9.83399,-1.51367 z m -0.65625,10.47852 c 1.78319,0.1131 4.21796,0.5235 6.86133,1.0664 0.94536,0.82938 3.42266,3.17995 5.14063,8.09961 1.94287,5.56373 2.43673,13.6271 -5.02149,25.35742 -1.38046,-0.0133 -2.2846,0.0322 -5.00781,-0.19921 -3.12849,-0.26582 -6.20272,-0.95248 -8.32031,-1.59571 -0.67761,-5.68924 -1.75285,-19.58592 1.31836,-32.54492 0.14531,-0.0259 0.13014,-0.0465 0.29882,-0.0703 1.0665,-0.15082 2.6143,-0.24752 4.73047,-0.11328 z"
       id="path12885"
       inkscape:connector-curvature="0" />
    <path
       style="color:#000000;font-style:normal;font-variant:normal;font-weight:normal;font-stretch:normal;font-size:medium;line-height:normal;font-family:sans-serif;font-variant-ligatures:normal;font-variant-position:normal;font-variant-caps:normal;font-variant-numeric:normal;font-variant-alternates:normal;font-feature-settings:normal;text-indent:0;text-align:start;text-decoration:none;text-decoration-line:none;text-decoration-style:solid;text-decoration-color:#000000;letter-spacing:normal;word-spacing:normal;text-transform:none;writing-mode:lr-tb;direction:ltr;text-orientation:mixed;dominant-baseline:auto;baseline-shift:baseline;text-anchor:start;white-space:normal;shape-padding:0;clip-rule:nonzero;display:inline;overflow:visible;visibility:visible;opacity:1;isolation:auto;mix-blend-mode:normal;color-interpolation:sRGB;color-interpolation-filters:linearRGB;solid-color:#000000;solid-opacity:1;vector-effect:none;fill:#000000;fill-opacity:1;fill-rule:nonzero;stroke:none;stroke-width:10.49703503;stroke-linecap:butt;stroke-linejoin:miter;stroke-miterlimit:4;stroke-dasharray:none;stroke-dashoffset:0;stroke-opacity:1;color-rendering:auto;image-rendering:auto;shape-rendering:auto;text-rendering:auto;enable-background:accumulate"
       d="m 510.99219,909.09317 -4.40039,0.15234 c -10.26973,0.35183 -17.0454,4.57088 -20.67383,9.05664 -1.81421,2.24289 -2.88122,4.47419 -3.50586,6.25 -0.31232,0.88792 -0.51527,1.66008 -0.64649,2.31447 -0.0656,0.32718 -0.11305,0.61821 -0.14843,0.93164 -0.0354,0.31341 -0.33744,-0.1326 0.0586,1.84961 l 10.29297,-2.05665 c 0.38385,1.9212 0.0878,1.31606 0.0801,1.38477 -0.008,0.0687 -0.006,0.0319 0.01,-0.0449 0.0308,-0.15372 0.11115,-0.48507 0.25586,-0.89648 0.28943,-0.82283 0.83425,-1.97941 1.76563,-3.13086 1.48345,-1.83397 3.95958,-3.80167 8.7793,-4.6836 0.40647,1.43319 0.8846,2.93045 2.03906,4.66211 l 8.73242,-5.82226 c 0.17491,0.26236 -0.65547,-1.56573 -1.06055,-3.00196 -0.40508,-1.43623 -0.66406,-2.65625 -0.66406,-2.65625 z"
       id="path12887"
       inkscape:connector-curvature="0" />
    <path
       style="color:#000000;font-style:normal;font-variant:normal;font-weight:normal;font-stretch:normal;font-size:medium;line-height:normal;font-family:sans-serif;font-variant-ligatures:normal;font-variant-position:normal;font-variant-caps:normal;font-variant-numeric:normal;font-variant-alternates:normal;font-feature-settings:normal;text-indent:0;text-align:start;text-decoration:none;text-decoration-line:none;text-decoration-style:solid;text-decoration-color:#000000;letter-spacing:normal;word-spacing:normal;text-transform:none;writing-mode:lr-tb;direction:ltr;text-orientation:mixed;dominant-baseline:auto;baseline-shift:baseline;text-anchor:start;white-space:normal;shape-padding:0;clip-rule:nonzero;display:inline;overflow:visible;visibility:visible;opacity:1;isolation:auto;mix-blend-mode:normal;color-interpolation:sRGB;color-interpolation-filters:linearRGB;solid-color:#000000;solid-opacity:1;vector-effect:none;fill:#000000;fill-opacity:1;fill-rule:nonzero;stroke:none;stroke-width:10.49703503;stroke-linecap:butt;stroke-linejoin:miter;stroke-miterlimit:4;stroke-dasharray:none;stroke-dashoffset:0;stroke-opacity:1;color-rendering:auto;image-rendering:auto;shape-rendering:auto;text-rendering:auto;enable-background:accumulate"
       d="m 537.02539,921.98379 c -8.2838,0.80648 -13.60297,4.16933 -16.30469,8.40822 -3.60229,5.65183 -2.40039,11.65428 -2.40039,11.65428 l 10.32813,-1.87694 c 0,0 -0.29477,-2.2248 0.92383,-4.13672 1.03763,-1.62801 3.63296,-3.75033 11.39843,-3.64062 0.0931,0.93967 0.0132,0.92503 0.1875,2.03125 0.60389,3.83222 1.39028,8.45754 4.83594,12.33398 l 7.8457,-6.97461 c -0.54391,-0.61191 -1.8358,-3.96712 -2.3125,-6.9922 -0.47669,-3.02506 -0.51953,-5.55664 -0.51953,-5.55664 l -0.0664,-4.65625 -4.63086,-0.48632 c -3.43334,-0.3614 -6.52389,-0.37625 -9.28516,-0.10743 z"
       id="path12889"
       inkscape:connector-curvature="0" />
    <path
       style="color:#000000;font-style:normal;font-variant:normal;font-weight:normal;font-stretch:normal;font-size:medium;line-height:normal;font-family:sans-serif;font-variant-ligatures:normal;font-variant-position:normal;font-variant-caps:normal;font-variant-numeric:normal;font-variant-alternates:normal;font-feature-settings:normal;text-indent:0;text-align:start;text-decoration:none;text-decoration-line:none;text-decoration-style:solid;text-decoration-color:#000000;letter-spacing:normal;word-spacing:normal;text-transform:none;writing-mode:lr-tb;direction:ltr;text-orientation:mixed;dominant-baseline:auto;baseline-shift:baseline;text-anchor:start;white-space:normal;shape-padding:0;clip-rule:nonzero;display:inline;overflow:visible;visibility:visible;opacity:1;isolation:auto;mix-blend-mode:normal;color-interpolation:sRGB;color-interpolation-filters:linearRGB;solid-color:#000000;solid-opacity:1;vector-effect:none;fill:#000000;fill-opacity:1;fill-rule:nonzero;stroke:none;stroke-width:10.49703503;stroke-linecap:butt;stroke-linejoin:miter;stroke-miterlimit:4;stroke-dasharray:none;stroke-dashoffset:0;stroke-opacity:1;color-rendering:auto;image-rendering:auto;shape-rendering:auto;text-rendering:auto;enable-background:accumulate"
       d="m 280.58594,952.22599 c -6.37637,3.79873 -15.87649,4.9903 -23.73438,4.91211 -7.85789,-0.0782 -13.80273,-1.23243 -13.80273,-1.23243 l -2.00586,10.30273 c 0,0 6.8562,1.33773 15.70508,1.42578 8.84888,0.0881 19.96112,-0.88003 29.21093,-6.39062 z"
       id="path12891"
       inkscape:connector-curvature="0" />
    <path
       style="color:#000000;font-style:normal;font-variant:normal;font-weight:normal;font-stretch:normal;font-size:medium;line-height:normal;font-family:sans-serif;font-variant-ligatures:normal;font-variant-position:normal;font-variant-caps:normal;font-variant-numeric:normal;font-variant-alternates:normal;font-feature-settings:normal;text-indent:0;text-align:start;text-decoration:none;text-decoration-line:none;text-decoration-style:solid;text-decoration-color:#000000;letter-spacing:normal;word-spacing:normal;text-transform:none;writing-mode:lr-tb;direction:ltr;text-orientation:mixed;dominant-baseline:auto;baseline-shift:baseline;text-anchor:start;white-space:normal;shape-padding:0;clip-rule:nonzero;display:inline;overflow:visible;visibility:visible;opacity:1;isolation:auto;mix-blend-mode:normal;color-interpolation:sRGB;color-interpolation-filters:linearRGB;solid-color:#000000;solid-opacity:1;vector-effect:none;fill:#000000;fill-opacity:1;fill-rule:nonzero;stroke:none;stroke-width:12.58830643;stroke-linecap:butt;stroke-linejoin:miter;stroke-miterlimit:4;stroke-dasharray:none;stroke-dashoffset:0;stroke-opacity:1;color-rendering:auto;image-rendering:auto;shape-rendering:auto;text-rendering:auto;enable-background:accumulate"
       d="m 315.33485,450.38283 c -47.92122,47.17608 -89.176,49.04836 -120.65979,39.10442 -15.74191,-4.97196 -29.01842,-13.14924 -38.88724,-20.66129 -9.86881,-7.51206 -16.04892,-14.06812 -18.63535,-16.63054 l -8.85923,8.94381 c 1.99322,1.97473 9.18548,9.56915 19.87129,17.70309 10.68582,8.13398 25.14746,17.09867 42.72003,22.64882 35.14513,11.10034 82.82444,7.53409 133.2807,-42.13759 z"
       id="path29"
       inkscape:connector-curvature="0" />
    <path
       style="color:#000000;font-style:normal;font-variant:normal;font-weight:normal;font-stretch:normal;font-size:medium;line-height:normal;font-family:sans-serif;font-variant-ligatures:normal;font-variant-position:normal;font-variant-caps:normal;font-variant-numeric:normal;font-variant-alternates:normal;font-feature-settings:normal;text-indent:0;text-align:start;text-decoration:none;text-decoration-line:none;text-decoration-style:solid;text-decoration-color:#000000;letter-spacing:normal;word-spacing:normal;text-transform:none;writing-mode:lr-tb;direction:ltr;text-orientation:mixed;dominant-baseline:auto;baseline-shift:baseline;text-anchor:start;white-space:normal;shape-padding:0;clip-rule:nonzero;display:inline;overflow:visible;visibility:visible;opacity:1;isolation:auto;mix-blend-mode:normal;color-interpolation:sRGB;color-interpolation-filters:linearRGB;solid-color:#000000;solid-opacity:1;vector-effect:none;fill:#000000;fill-opacity:1;fill-rule:nonzero;stroke:none;stroke-width:12.58830643;stroke-linecap:butt;stroke-linejoin:miter;stroke-miterlimit:4;stroke-dasharray:none;stroke-dashoffset:0;stroke-opacity:1;color-rendering:auto;image-rendering:auto;shape-rendering:auto;text-rendering:auto;enable-background:accumulate"
       d="m 143.98575,219.33139 c -12.49612,0.11922 -22.60104,5.14218 -29.1092,12.65936 -6.52569,7.53743 -9.5622,17.26598 -9.47433,26.84489 0.0879,9.57894 3.29564,19.18982 9.90105,26.49892 6.58338,7.28474 16.68928,11.9489 28.91891,11.57141 12.00573,-0.0279 21.77233,-5.12245 27.9732,-12.64782 6.21789,-7.54603 9.07674,-17.212 9.01494,-26.74109 -0.0618,-9.52911 -3.03935,-19.10257 -9.3244,-26.46241 -6.26872,-7.34069 -16.07113,-12.13161 -27.90017,-11.72326 z m 0.3729,12.57478 c 8.44132,-0.31051 13.94889,2.63464 17.95298,7.32344 4.00409,4.6888 6.26565,11.46075 6.31046,18.37008 0.0448,6.90936 -2.12335,13.77648 -6.1413,18.65267 -4.01797,4.87619 -9.66565,8.07499 -18.3528,8.07499 h -0.10571 l -0.10572,0.004 c -9.03529,0.30352 -15.03095,-2.7423 -19.27351,-7.43685 -4.24257,-4.69454 -6.59012,-11.36288 -6.6526,-18.17403 -0.0625,-6.81114 2.1556,-13.58367 6.40272,-18.48926 4.24712,-4.90559 10.40221,-8.25151 19.78095,-8.32104 l 0.0922,-0.002 z"
       id="path87"
       inkscape:connector-curvature="0" />
    <path
       style="color:#000000;font-style:normal;font-variant:normal;font-weight:normal;font-stretch:normal;font-size:medium;line-height:normal;font-family:sans-serif;font-variant-ligatures:normal;font-variant-position:normal;font-variant-caps:normal;font-variant-numeric:normal;font-variant-alternates:normal;font-feature-settings:normal;text-indent:0;text-align:start;text-decoration:none;text-decoration-line:none;text-decoration-style:solid;text-decoration-color:#000000;letter-spacing:normal;word-spacing:normal;text-transform:none;writing-mode:lr-tb;direction:ltr;text-orientation:mixed;dominant-baseline:auto;baseline-shift:baseline;text-anchor:start;white-space:normal;shape-padding:0;clip-rule:nonzero;display:inline;overflow:visible;visibility:visible;opacity:1;isolation:auto;mix-blend-mode:normal;color-interpolation:sRGB;color-interpolation-filters:linearRGB;solid-color:#000000;solid-opacity:1;vector-effect:none;fill:#000000;fill-opacity:1;fill-rule:nonzero;stroke:none;stroke-width:12.58830643;stroke-linecap:butt;stroke-linejoin:miter;stroke-miterlimit:4;stroke-dasharray:none;stroke-dashoffset:0;stroke-opacity:1;color-rendering:auto;image-rendering:auto;shape-rendering:auto;text-rendering:auto;enable-background:accumulate"
       d="m 143.44371,193.20639 c -23.64108,0.63153 -46.212029,12.03207 -73.587999,32.36343 l 7.50603,10.10673 c 26.519399,-19.69521 46.622209,-29.35696 66.418339,-29.88577 19.79613,-0.52881 40.54617,8.00713 68.52888,27.45807 L 219.494,222.91146 C 190.53369,202.781 167.08477,192.57486 143.44371,193.20639 Z"
       id="path59"
       inkscape:connector-curvature="0" />
    <path
       style="color:#000000;font-style:normal;font-variant:normal;font-weight:normal;font-stretch:normal;font-size:medium;line-height:normal;font-family:sans-serif;font-variant-ligatures:normal;font-variant-position:normal;font-variant-caps:normal;font-variant-numeric:normal;font-variant-alternates:normal;font-feature-settings:normal;text-indent:0;text-align:start;text-decoration:none;text-decoration-line:none;text-decoration-style:solid;text-decoration-color:#000000;letter-spacing:normal;word-spacing:normal;text-transform:none;writing-mode:lr-tb;direction:ltr;text-orientation:mixed;dominant-baseline:auto;baseline-shift:baseline;text-anchor:start;white-space:normal;shape-padding:0;clip-rule:nonzero;display:inline;overflow:visible;visibility:visible;opacity:1;isolation:auto;mix-blend-mode:normal;color-interpolation:sRGB;color-interpolation-filters:linearRGB;solid-color:#000000;solid-opacity:1;vector-effect:none;fill:#000000;fill-opacity:1;fill-rule:nonzero;stroke:none;stroke-width:12.58830643;stroke-linecap:butt;stroke-linejoin:miter;stroke-miterlimit:4;stroke-dasharray:none;stroke-dashoffset:0;stroke-opacity:1;color-rendering:auto;image-rendering:auto;shape-rendering:auto;text-rendering:auto;enable-background:accumulate"
       d="m 314.90429,217.5361 c -12.49612,0.11922 -22.60104,5.14409 -29.1092,12.66127 -6.52569,7.53744 -9.56219,17.26404 -9.47433,26.84297 0.0879,9.57896 3.29564,19.18982 9.90104,26.49892 6.58555,7.28715 16.69541,11.9523 28.93045,11.57142 12.00015,-0.0313 21.76294,-5.12498 27.96168,-12.64783 6.21784,-7.54603 9.07482,-17.21006 9.01301,-26.73916 -0.062,-9.52913 -3.03934,-19.10447 -9.32439,-26.46432 -6.26832,-7.3403 -16.07013,-12.13102 -27.89826,-11.72327 z m 0.3729,12.57477 c 8.4413,-0.31051 13.94886,2.63462 17.95296,7.32344 4.0041,4.68882 6.2638,11.46074 6.30858,18.37008 0.0443,6.90936 -2.12143,13.77646 -6.1394,18.65267 -4.01798,4.87621 -9.66567,8.07693 -18.35281,8.07693 h -0.10571 l -0.10572,0.002 c -9.03529,0.30351 -15.03093,-2.74227 -19.2735,-7.43683 -4.24258,-4.69457 -6.59013,-11.36289 -6.6526,-18.17404 -0.0625,-6.81114 2.15559,-13.58367 6.40271,-18.48926 4.24713,-4.90559 10.40221,-8.25151 19.78096,-8.32103 h 0.0922 z"
       id="path87-1"
       inkscape:connector-curvature="0" />
    <path
       style="color:#000000;font-style:normal;font-variant:normal;font-weight:normal;font-stretch:normal;font-size:medium;line-height:normal;font-family:sans-serif;font-variant-ligatures:normal;font-variant-position:normal;font-variant-caps:normal;font-variant-numeric:normal;font-variant-alternates:normal;font-feature-settings:normal;text-indent:0;text-align:start;text-decoration:none;text-decoration-line:none;text-decoration-style:solid;text-decoration-color:#000000;letter-spacing:normal;word-spacing:normal;text-transform:none;writing-mode:lr-tb;direction:ltr;text-orientation:mixed;dominant-baseline:auto;baseline-shift:baseline;text-anchor:start;white-space:normal;shape-padding:0;clip-rule:nonzero;display:inline;overflow:visible;visibility:visible;opacity:1;isolation:auto;mix-blend-mode:normal;color-interpolation:sRGB;color-interpolation-filters:linearRGB;solid-color:#000000;solid-opacity:1;vector-effect:none;fill:#000000;fill-opacity:1;fill-rule:nonzero;stroke:none;stroke-width:12.58830643;stroke-linecap:butt;stroke-linejoin:miter;stroke-miterlimit:4;stroke-dasharray:none;stroke-dashoffset:0;stroke-opacity:1;color-rendering:auto;image-rendering:auto;shape-rendering:auto;text-rendering:auto;enable-background:accumulate"
       d="m 315.79425,191.65521 c -23.59126,0.048 -46.68057,10.8469 -75.04693,32.13853 l 7.55794,10.06828 c 27.38156,-20.55244 47.74473,-29.57837 67.5159,-29.61859 19.77114,-0.0403 40.20576,8.98631 67.49476,27.26971 l 7.0082,-10.45655 C 362.2235,202.22944 339.3855,191.60722 315.79425,191.65521 Z"
       id="path59-1"
       inkscape:connector-curvature="0" />
    <path
       style="color:#000000;font-style:normal;font-variant:normal;font-weight:normal;font-stretch:normal;font-size:medium;line-height:normal;font-family:sans-serif;font-variant-ligatures:normal;font-variant-position:normal;font-variant-caps:normal;font-variant-numeric:normal;font-variant-alternates:normal;font-feature-settings:normal;text-indent:0;text-align:start;text-decoration:none;text-decoration-line:none;text-decoration-style:solid;text-decoration-color:#000000;letter-spacing:normal;word-spacing:normal;text-transform:none;writing-mode:lr-tb;direction:ltr;text-orientation:mixed;dominant-baseline:auto;baseline-shift:baseline;text-anchor:start;white-space:normal;shape-padding:0;clip-rule:nonzero;display:inline;overflow:visible;visibility:visible;opacity:1;isolation:auto;mix-blend-mode:normal;color-interpolation:sRGB;color-interpolation-filters:linearRGB;solid-color:#000000;solid-opacity:1;vector-effect:none;fill:#000000;fill-opacity:1;fill-rule:nonzero;stroke:none;stroke-width:12.58830643;stroke-linecap:butt;stroke-linejoin:miter;stroke-miterlimit:4;stroke-dasharray:none;stroke-dashoffset:0;stroke-opacity:1;color-rendering:auto;image-rendering:auto;shape-rendering:auto;text-rendering:auto;enable-background:accumulate"
       d="m 222.9635,322.08243 c 0,0 -1.41886,14.01267 -3.76744,28.73054 -1.1743,7.35895 -2.58952,14.89466 -4.10958,20.74973 -0.76003,2.92753 -1.55516,5.44189 -2.26815,7.17542 -0.71299,1.73354 -1.63399,2.63861 -0.97262,2.08747 -1.39298,1.16081 -2.8689,2.13009 -3.64057,5.21674 -0.38583,1.54333 -0.16442,3.84193 0.82077,5.4474 0.98519,1.60548 2.26642,2.39094 3.23499,2.84672 3.87429,1.82316 5.86364,1.12354 8.49787,0.94187 5.26848,-0.36336 10.97362,-1.53774 10.97362,-1.53774 l -2.46805,-12.34411 c 0,0 -2.69102,0.34393 -4.3191,0.61125 0.83474,-2.23811 1.62307,-4.57423 2.32582,-7.28115 1.6987,-6.54318 3.14563,-14.34737 4.35561,-21.92994 2.41996,-15.16511 3.86162,-29.44751 3.86162,-29.44751 z"
       id="path971"
       inkscape:connector-curvature="0" />
  </g>
</svg>
