<?xml version="1.0" encoding="UTF-8" standalone="no"?>
<!-- Created with Inkscape (http://www.inkscape.org/) -->

<svg
   xmlns:dc="http://purl.org/dc/elements/1.1/"
   xmlns:cc="http://creativecommons.org/ns#"
   xmlns:rdf="http://www.w3.org/1999/02/22-rdf-syntax-ns#"
   xmlns:svg="http://www.w3.org/2000/svg"
   xmlns="http://www.w3.org/2000/svg"
   xmlns:sodipodi="http://sodipodi.sourceforge.net/DTD/sodipodi-0.dtd"
   xmlns:inkscape="http://www.inkscape.org/namespaces/inkscape"
   width="1000"
   height="1000"
   viewBox="0 0 1000 1000"
   version="1.1"
   id="svg58798"
   inkscape:version="0.92.4 (5da689c313, 2019-01-14)"
   sodipodi:docname="Rato.svg">
  <defs
     id="defs58792" />
  <sodipodi:namedview
     id="base"
     pagecolor="#ffffff"
     bordercolor="#666666"
     borderopacity="1.0"
     inkscape:pageopacity="0.0"
     inkscape:pageshadow="2"
     inkscape:zoom="0.25"
     inkscape:cx="964.4189"
     inkscape:cy="237.01849"
     inkscape:document-units="px"
     inkscape:current-layer="layer1"
     showgrid="false"
     units="px"
     inkscape:window-width="1366"
     inkscape:window-height="715"
     inkscape:window-x="-8"
     inkscape:window-y="-8"
     inkscape:window-maximized="1"
     inkscape:snap-global="true" />
  <metadata
     id="metadata58795">
    <rdf:RDF>
      <cc:Work
         rdf:about="">
        <dc:format>image/svg+xml</dc:format>
        <dc:type
           rdf:resource="http://purl.org/dc/dcmitype/StillImage" />
        <dc:title></dc:title>
      </cc:Work>
    </rdf:RDF>
  </metadata>
  <g
     inkscape:label="Camada 1"
     inkscape:groupmode="layer"
     id="layer1"
     transform="translate(0,-32.41665)">
    <path
       style="color:#000000;font-style:normal;font-variant:normal;font-weight:normal;font-stretch:normal;font-size:medium;line-height:normal;font-family:sans-serif;font-variant-ligatures:normal;font-variant-position:normal;font-variant-caps:normal;font-variant-numeric:normal;font-variant-alternates:normal;font-feature-settings:normal;text-indent:0;text-align:start;text-decoration:none;text-decoration-line:none;text-decoration-style:solid;text-decoration-color:#000000;letter-spacing:normal;word-spacing:normal;text-transform:none;writing-mode:lr-tb;direction:ltr;text-orientation:mixed;dominant-baseline:auto;baseline-shift:baseline;text-anchor:start;white-space:normal;shape-padding:0;clip-rule:nonzero;display:inline;overflow:visible;visibility:visible;opacity:1;isolation:auto;mix-blend-mode:normal;color-interpolation:sRGB;color-interpolation-filters:linearRGB;solid-color:#000000;solid-opacity:1;vector-effect:none;fill:#000000;fill-opacity:1;fill-rule:nonzero;stroke:none;stroke-width:38.60506439;stroke-linecap:butt;stroke-linejoin:miter;stroke-miterlimit:4;stroke-dasharray:none;stroke-dashoffset:0;stroke-opacity:1;color-rendering:auto;image-rendering:auto;shape-rendering:auto;text-rendering:auto;enable-background:accumulate"
       d="M 673.10856,32.471534 C 524.36059,32.438278 422.17441,92.16796 363.39614,181.51663 c -58.78842,89.36412 -75.19545,206.05188 -62.34672,321.55758 2.75673,24.78212 6.86274,49.53326 12.22685,73.98717 l 21.69952,8.57135 70.86013,179.19364 c -5.87936,2.80541 -10.82348,5.8811 -16.32978,11.06945 9.03695,15.56366 18.64714,30.51027 28.79077,44.7231 C 480.53623,907.82608 564.33318,968.5747 659.64338,968.0069 754.9088,967.43936 838.01861,906.05452 899.89017,818.55311 961.76169,731.0516 1003.8399,616.2642 1017.8138,501.04552 1031.7878,385.82681 1017.7869,269.75397 963.50014,180.7438 909.22124,91.74998 813.04581,31.978742 673.18287,32.471534 Z m 0.0593,38.604441 h 0.0442 0.0378 c 129.19207,-0.4756 209.32059,51.113945 257.29363,129.768895 47.97304,78.65492 62.16863,186.5459 48.94852,295.5488 C 966.27188,605.39646 925.76729,715.0902 868.36766,796.2673 810.96805,877.44437 738.11732,928.93358 659.4132,929.40249 580.75404,929.871 507.39364,878.99767 449.72304,798.19196 c -9.57034,-13.40945 -18.66785,-27.61094 -27.2415,-42.47042 -7.40268,5.68831 -14.1169,7.97505 -16.64624,9.10483 L 334.97583,585.63273 c 7.2986,2.62642 14.56567,5.28441 21.97621,7.79879 -8.06332,-31.1056 -13.99832,-62.88768 -17.5285,-94.62281 C 327.29712,389.7964 343.60106,281.84734 395.64703,202.73236 447.69309,123.61737 534.43883,71.025851 673.16801,71.075975 Z"
       id="path10-9-5"
       inkscape:connector-curvature="0"
       sodipodi:nodetypes="cssccccssssccccccsssscccccsscc" />
    <path
       style="color:#000000;font-style:normal;font-variant:normal;font-weight:normal;font-stretch:normal;font-size:medium;line-height:normal;font-family:sans-serif;font-variant-ligatures:normal;font-variant-position:normal;font-variant-caps:normal;font-variant-numeric:normal;font-variant-alternates:normal;font-feature-settings:normal;text-indent:0;text-align:start;text-decoration:none;text-decoration-line:none;text-decoration-style:solid;text-decoration-color:#000000;letter-spacing:normal;word-spacing:normal;text-transform:none;writing-mode:lr-tb;direction:ltr;text-orientation:mixed;dominant-baseline:auto;baseline-shift:baseline;text-anchor:start;white-space:normal;shape-padding:0;clip-rule:nonzero;display:inline;overflow:visible;visibility:visible;opacity:1;isolation:auto;mix-blend-mode:normal;color-interpolation:sRGB;color-interpolation-filters:linearRGB;solid-color:#000000;solid-opacity:1;vector-effect:none;fill:#000000;fill-opacity:1;fill-rule:nonzero;stroke:none;stroke-width:19.3025322;stroke-linecap:butt;stroke-linejoin:miter;stroke-miterlimit:4;stroke-dasharray:none;stroke-dashoffset:0;stroke-opacity:1;color-rendering:auto;image-rendering:auto;shape-rendering:auto;text-rendering:auto;enable-background:accumulate"
       d="m 652.49205,497.41645 c 0,0 -2.17221,21.48595 -5.77347,44.05391 -1.80064,11.28397 -3.9668,22.83498 -6.29761,31.813 -1.16544,4.48901 -2.3915,8.34977 -3.48477,11.00794 -1.09326,2.65821 -2.50542,4.0419 -1.49134,3.19683 -2.13596,1.77992 -4.39821,3.2701 -5.58148,8.00306 -0.59166,2.36651 -0.24835,5.88831 1.26246,8.35011 1.51067,2.4618 3.46877,3.66439 4.95396,4.36328 5.94074,2.79563 8.99158,1.72564 13.03084,1.44708 8.07855,-0.55718 16.83308,-2.35516 16.83308,-2.35516 l -3.78743,-18.92981 c 0,0 -4.12699,0.52789 -6.6225,0.93761 1.28042,-3.43255 2.48811,-7.0185 3.56595,-11.17034 2.60476,-10.03313 4.82623,-21.99498 6.68155,-33.62186 3.71069,-23.25374 5.92112,-45.15396 5.92112,-45.15396 z"
       id="path971-8"
       inkscape:connector-curvature="0" />
    <path
       style="color:#000000;font-style:normal;font-variant:normal;font-weight:normal;font-stretch:normal;font-size:medium;line-height:normal;font-family:sans-serif;font-variant-ligatures:normal;font-variant-position:normal;font-variant-caps:normal;font-variant-numeric:normal;font-variant-alternates:normal;font-feature-settings:normal;text-indent:0;text-align:start;text-decoration:none;text-decoration-line:none;text-decoration-style:solid;text-decoration-color:#000000;letter-spacing:normal;word-spacing:normal;text-transform:none;writing-mode:lr-tb;direction:ltr;text-orientation:mixed;dominant-baseline:auto;baseline-shift:baseline;text-anchor:start;white-space:normal;shape-padding:0;clip-rule:nonzero;display:inline;overflow:visible;visibility:visible;opacity:1;isolation:auto;mix-blend-mode:normal;color-interpolation:sRGB;color-interpolation-filters:linearRGB;solid-color:#000000;solid-opacity:1;vector-effect:none;fill:#000000;fill-opacity:1;fill-rule:nonzero;stroke:none;stroke-width:21.04351234;stroke-linecap:butt;stroke-linejoin:miter;stroke-miterlimit:4;stroke-dasharray:none;stroke-dashoffset:0;stroke-opacity:1;color-rendering:auto;image-rendering:auto;shape-rendering:auto;text-rendering:auto;enable-background:accumulate"
       d="m 275.81525,572.86993 -0.78259,0.0303 -0.7752,0.14023 c 0,0 -19.02596,3.46564 -39.12951,6.62988 -10.05176,1.58211 -20.38029,3.08975 -28.57192,4.03106 -4.0958,0.47065 -7.67386,0.79684 -10.26963,0.93027 -2.59579,0.13344 -4.9043,-0.33681 -3.08607,0.14024 l -0.5168,-0.14024 -0.53158,-0.0813 c 0,0 -48.26987,-6.79745 -71.04587,34.85477 l -0.53896,0.9813 -0.32486,1.07793 c 0,0 -1.24519,4.21412 -5.36738,8.91117 -4.12219,4.69707 -10.11642,9.2684 -22.04541,9.25079 h -0.620167 l -0.605399,0.0737 c 0,0 -12.486375,1.39635 -24.599901,9.95217 -12.113529,8.55578 -24.115993,25.40713 -23.905909,51.63615 l 0.03705,4.7177 0.664462,0.58326 c -0.871474,2.86827 -4.645664,10.68056 -17.615657,24.15691 l -0.221489,0.22907 -0.214106,0.24343 c 0,0 -22.4045846,28.09487 -7.597029,61.16016 -0.106552,-0.0994 0.0812,0.1255 -3.373996,3.94248 l 0.287934,-0.30996 c 0,0 -9.4976593,9.88671 -13.3409432,26.48992 -3.7254887,16.09435 -2.02850816,39.15731 14.2047452,66.02551 0.236515,1.61294 4.41757,30.13227 8.896424,58.46535 l 0.162426,1.06313 0.383911,1.0041 c 0,0 6.942716,18.99898 3.824354,40.12618 l -0.04429,0.33945 -0.02953,0.33227 c -0.413742,5.02895 -0.739303,7.05463 -2.687384,10.45419 -1.948083,3.3996 -6.188745,8.4637 -14.839678,16.3679 l 14.197235,15.5339 c 9.347475,-8.5406 15.117919,-14.8394 18.900286,-21.44 3.691289,-6.4416 4.819882,-12.88047 5.330469,-18.73786 3.678548,-25.36636 -3.364859,-45.44493 -4.414985,-48.32862 v -0.008 C 41.031352,914.74529 36.50515,883.84608 36.50515,883.84608 l -0.324846,-2.21488 -1.203416,-1.89004 c -15.229351,-24.03053 -15.387083,-41.10158 -12.75031,-52.49258 2.636771,-11.39102 7.855431,-16.49345 7.855431,-16.49345 l 0.14766,-0.15498 0.147661,-0.15499 c 5.651545,-6.24333 8.464276,-9.70798 9.546121,-15.45987 0.476318,-2.5324 -0.112041,-5.98798 -1.734986,-8.76353 l 0.02231,0.0151 c -12.618528,-23.74908 3.565954,-41.37389 3.565954,-41.37389 l -0.435594,0.47988 c 14.825444,-15.40423 20.959304,-25.60694 23.152845,-34.12387 1.096773,-4.25845 1.050051,-8.23202 0.07382,-11.45092 -0.06441,-0.21245 -0.179629,-0.33454 -0.251034,-0.53897 0.371278,-18.73354 7.521328,-27.23035 14.824912,-32.38889 7.575865,-5.35082 14.876592,-6.23857 14.876592,-6.23857 l -1.225566,0.0737 c 17.971006,0.0265 30.739426,-8.25597 37.903936,-16.41961 5.82262,-6.63464 8.06489,-12.44335 8.9038,-14.81753 16.41506,-29.92244 49.31055,-24.09049 49.31055,-24.09049 l -1.04851,-0.22181 c 4.09954,1.07592 6.17527,0.69553 9.5092,0.52417 3.33394,-0.17122 7.23275,-0.54754 11.59119,-1.04835 8.71688,-1.00168 19.22415,-2.53457 29.43572,-4.14181 19.83741,-3.12237 37.44575,-6.33421 38.50195,-6.52653 17.72686,-0.47625 32.28476,3.78879 32.32983,3.8022 7e-5,4e-5 0.0295,0.008 0.0295,0.008 39.01227,16.77023 91.28247,31.33312 91.28247,31.33312 l 0.36175,0.1032 0.36176,0.0737 c 13.61021,2.77559 25.75901,7.75947 25.75901,7.75947 l 0.5168,0.21396 0.5316,0.15498 c 25.60167,7.55935 33.86545,19.18065 37.39447,28.59409 3.2944,8.78749 2.07132,15.01279 1.89003,15.87329 -4.0797,10.77638 -19.93643,27.65036 -35.17963,40.22953 -15.45367,12.75288 -29.63504,21.86822 -29.63504,21.86822 l 2.51755,-1.18126 c -56.70328,17.8903 -63.53744,90.03473 -63.53744,90.03473 l -0.14027,1.18127 0.14027,1.18864 c 4.15867,36.75281 -5.85325,58.73074 -16.36795,72.24928 -10.51468,13.51855 -21.03395,17.94054 -21.03395,17.94054 l -1.65377,0.70875 -1.32154,1.22558 c -10.66563,9.86602 -15.49205,23.45302 -21.18899,37.05488 -5.69695,13.60188 -11.84206,27.4375 -21.63197,38.65706 l 15.85852,13.8355 c 12.49528,-14.3199 19.40859,-30.57682 25.18316,-44.36397 5.69857,-13.60575 10.6977,-24.48883 15.86589,-29.43572 3.57878,-1.77806 14.95152,-7.8108 26.53424,-22.70249 13.29236,-17.08972 24.74133,-45.06029 20.71648,-85.41304 0.10429,-0.75563 8.29008,-59.27038 48.91189,-72.08686 l 1.33629,-0.42821 1.18128,-0.75305 c 0,0 15.12484,-9.70852 31.65797,-23.35221 16.53314,-13.64367 34.9966,-30.39442 41.90549,-49.93808 l 0.19202,-0.55374 0.13306,-0.56848 c 0,0 3.08339,-13.42499 -2.62834,-28.6605 -5.71171,-15.23553 -20.69927,-32.40008 -51.1415,-41.38868 l 1.04099,0.36931 c 0,0 -13.58178,-5.6671 -29.59815,-8.93337 l 0.71613,0.17728 c 0,0 -52.93179,-14.83529 -89.70252,-30.78678 l -0.55372,-0.24344 -0.58325,-0.17729 c 0,0 -17.73105,-5.4254 -39.53556,-4.73244 z"
       id="path1627"
       inkscape:connector-curvature="0" />
    <path
       style="color:#000000;font-style:normal;font-variant:normal;font-weight:normal;font-stretch:normal;font-size:medium;line-height:normal;font-family:sans-serif;font-variant-ligatures:normal;font-variant-position:normal;font-variant-caps:normal;font-variant-numeric:normal;font-variant-alternates:normal;font-feature-settings:normal;text-indent:0;text-align:start;text-decoration:none;text-decoration-line:none;text-decoration-style:solid;text-decoration-color:#000000;letter-spacing:normal;word-spacing:normal;text-transform:none;writing-mode:lr-tb;direction:ltr;text-orientation:mixed;dominant-baseline:auto;baseline-shift:baseline;text-anchor:start;white-space:normal;shape-padding:0;clip-rule:nonzero;display:inline;overflow:visible;visibility:visible;opacity:1;isolation:auto;mix-blend-mode:normal;color-interpolation:sRGB;color-interpolation-filters:linearRGB;solid-color:#000000;solid-opacity:1;vector-effect:none;fill:#000000;fill-opacity:1;fill-rule:nonzero;stroke:none;stroke-width:21.04351234;stroke-linecap:butt;stroke-linejoin:miter;stroke-miterlimit:4;stroke-dasharray:none;stroke-dashoffset:0;stroke-opacity:1;color-rendering:auto;image-rendering:auto;shape-rendering:auto;text-rendering:auto;enable-background:accumulate"
       d="m 219.00365,626.84646 c -25.71963,-0.32055 -49.08168,3.46261 -49.08168,3.46261 l 3.3297,20.77553 c 0,0 22.009,-3.48936 45.49358,-3.19679 11.74228,0.14629 23.78486,1.30446 32.96476,3.94986 9.17988,2.6454 14.57991,6.52657 16.49344,10.46161 l 0.037,0.0665 0.0295,0.0665 c 0,0 8.69042,17.26244 17.0324,38.14755 8.32556,20.84399 15.55042,46.33651 14.66987,56.59751 -0.02,0.1667 -1.33755,11.15831 -4.82105,21.5286 -1.75491,5.2243 -4.13206,10.10673 -6.24595,12.7208 -2.1139,2.61402 -2.54776,2.63829 -3.66194,2.53233 l -11.57642,-1.10007 0.0517,11.62072 c 0,0 0.0352,22.67948 -3.94987,43.27871 -1.9926,10.29963 -5.22211,19.97315 -8.62325,25.03551 -1.70058,2.53117 -3.24803,3.7621 -4.26734,4.23041 -1.01931,0.46828 -1.7135,0.69421 -4.03108,-0.0151 l -13.59941,9.95991 0.13289,1.80127 c 0,0 2.56258,16.6445 0.45036,31.54723 -1.05612,7.45136 -3.40849,14.05916 -6.34931,17.63045 -2.94084,3.57125 -5.61578,5.3627 -13.43692,4.46667 l -6.28288,-0.72354 -3.00484,4.36331 c -0.22983,0.14138 -0.82576,0.57268 -2.99009,0.51682 -4.47756,-0.11568 -16.10834,-3.31485 -36.05082,-21.02657 l 1.41013,1.52824 c 0,0 0.0159,-1.5699 0.0665,0.76784 l -21.03395,0.45035 c 0.16727,7.73276 4.17135,11.45093 4.17135,11.45093 l 0.62755,0.84164 0.78259,0.69397 c 21.94467,19.48997 37.3723,26.01496 49.48036,26.32754 6.05402,0.15611 11.08343,-1.48901 14.47791,-3.52903 0.51013,-0.30656 0.41019,-0.44585 0.87119,-0.78999 11.3239,-0.10055 21.18652,-4.70413 27.16177,-11.96033 6.84224,-8.30902 9.57255,-18.44865 10.93412,-28.05513 1.35926,-9.5902 1.22694,-19.04321 0.76043,-26.11339 1.41326,-0.35873 2.93901,-0.41479 4.2378,-1.01147 5.63925,-2.59077 9.78156,-6.89788 12.94965,-11.61332 6.33618,-9.43094 9.55018,-21.08546 11.81268,-32.7802 3.24255,-16.76054 3.86946,-30.58886 4.07538,-38.91538 4.35129,-1.93366 8.10775,-4.89522 10.7643,-8.18028 4.74525,-5.86796 7.62452,-12.66953 9.83405,-19.24729 4.41908,-13.15551 5.81774,-26.01004 5.81774,-26.01004 l 0.0147,-0.1255 0.0147,-0.1255 c 1.7761,-19.85184 -7.3742,-44.52102 -16.10216,-66.37247 -8.70544,-21.79509 -17.68727,-39.61307 -17.73378,-39.70539 -5.76455,-11.8197 -17.43903,-17.94982 -29.57599,-21.44735 -12.14875,-3.50098 -25.67167,-4.61655 -38.53148,-4.77679 z"
       id="path1629"
       inkscape:connector-curvature="0"
       sodipodi:nodetypes="cccsscccsccccccccccccscccccccccccccccsscccsccscccscccc" />
    <path
       style="color:#000000;font-style:normal;font-variant:normal;font-weight:normal;font-stretch:normal;font-size:medium;line-height:normal;font-family:sans-serif;font-variant-ligatures:normal;font-variant-position:normal;font-variant-caps:normal;font-variant-numeric:normal;font-variant-alternates:normal;font-feature-settings:normal;text-indent:0;text-align:start;text-decoration:none;text-decoration-line:none;text-decoration-style:solid;text-decoration-color:#000000;letter-spacing:normal;word-spacing:normal;text-transform:none;writing-mode:lr-tb;direction:ltr;text-orientation:mixed;dominant-baseline:auto;baseline-shift:baseline;text-anchor:start;white-space:normal;shape-padding:0;clip-rule:nonzero;display:inline;overflow:visible;visibility:visible;opacity:1;isolation:auto;mix-blend-mode:normal;color-interpolation:sRGB;color-interpolation-filters:linearRGB;solid-color:#000000;solid-opacity:1;vector-effect:none;fill:#000000;fill-opacity:1;fill-rule:nonzero;stroke:none;stroke-width:21.04351234;stroke-linecap:butt;stroke-linejoin:miter;stroke-miterlimit:4;stroke-dasharray:none;stroke-dashoffset:0;stroke-opacity:1;color-rendering:auto;image-rendering:auto;shape-rendering:auto;text-rendering:auto;enable-background:accumulate"
       d="m 93.619449,893.87945 -12.595267,16.85524 c 0,0 10.068734,7.56309 22.451468,14.05708 6.19138,3.24697 12.99242,6.30151 20.07417,8.04736 7.08176,1.74591 15.09905,2.57611 22.68035,-1.85309 l -10.61665,-18.16937 c -0.0988,0.0578 -2.62079,0.68056 -7.02854,-0.40606 -4.40775,-1.08664 -10.04642,-3.48755 -15.33433,-6.26072 -10.57583,-5.54636 -19.631201,-12.27044 -19.631201,-12.27044 z"
       id="path1631"
       inkscape:connector-curvature="0" />
    <path
       style="color:#000000;font-style:normal;font-variant:normal;font-weight:normal;font-stretch:normal;font-size:medium;line-height:normal;font-family:sans-serif;font-variant-ligatures:normal;font-variant-position:normal;font-variant-caps:normal;font-variant-numeric:normal;font-variant-alternates:normal;font-feature-settings:normal;text-indent:0;text-align:start;text-decoration:none;text-decoration-line:none;text-decoration-style:solid;text-decoration-color:#000000;letter-spacing:normal;word-spacing:normal;text-transform:none;writing-mode:lr-tb;direction:ltr;text-orientation:mixed;dominant-baseline:auto;baseline-shift:baseline;text-anchor:start;white-space:normal;shape-padding:0;clip-rule:nonzero;display:inline;overflow:visible;visibility:visible;opacity:1;isolation:auto;mix-blend-mode:normal;color-interpolation:sRGB;color-interpolation-filters:linearRGB;solid-color:#000000;solid-opacity:1;vector-effect:none;fill:#000000;fill-opacity:1;fill-rule:nonzero;stroke:none;stroke-width:21.04351234;stroke-linecap:butt;stroke-linejoin:miter;stroke-miterlimit:4;stroke-dasharray:none;stroke-dashoffset:0;stroke-opacity:1;color-rendering:auto;image-rendering:auto;shape-rendering:auto;text-rendering:auto;enable-background:accumulate"
       d="m 99.045899,782.9584 -9.893116,18.57546 c 0,0 23.666557,12.59675 51.348237,25.71472 27.68168,13.11797 57.81772,26.89286 77.72742,29.37663 l 1.27725,0.16254 1.26985,-0.15498 c 0,0 4.13581,-0.42695 8.54206,2.26656 4.40624,2.69348 10.11666,8.21024 9.93003,28.06987 l 21.04132,0.19922 c 0.23196,-24.68129 -9.17624,-39.60499 -19.99295,-46.21711 -10.8167,-6.61214 -22.01587,-5.21235 -22.01587,-5.21235 l 2.55449,0.008 C 209.26231,834.30328 176.67855,821.1103 149.51556,808.23815 122.35258,795.366 99.045899,782.95901 99.045899,782.95901 Z"
       id="path1633"
       inkscape:connector-curvature="0" />
    <path
       style="color:#000000;font-style:normal;font-variant:normal;font-weight:normal;font-stretch:normal;font-size:medium;line-height:normal;font-family:sans-serif;font-variant-ligatures:normal;font-variant-position:normal;font-variant-caps:normal;font-variant-numeric:normal;font-variant-alternates:normal;font-feature-settings:normal;text-indent:0;text-align:start;text-decoration:none;text-decoration-line:none;text-decoration-style:solid;text-decoration-color:#000000;letter-spacing:normal;word-spacing:normal;text-transform:none;writing-mode:lr-tb;direction:ltr;text-orientation:mixed;dominant-baseline:auto;baseline-shift:baseline;text-anchor:start;white-space:normal;shape-padding:0;clip-rule:nonzero;display:inline;overflow:visible;visibility:visible;opacity:1;isolation:auto;mix-blend-mode:normal;color-interpolation:sRGB;color-interpolation-filters:linearRGB;solid-color:#000000;solid-opacity:1;vector-effect:none;fill:#000000;fill-opacity:1;fill-rule:nonzero;stroke:none;stroke-width:21.04351234;stroke-linecap:butt;stroke-linejoin:miter;stroke-miterlimit:4;stroke-dasharray:none;stroke-dashoffset:0;stroke-opacity:1;color-rendering:auto;image-rendering:auto;shape-rendering:auto;text-rendering:auto;enable-background:accumulate"
       d="m 147.30807,711.23329 -4.68815,20.51717 c 0,0 19.29783,4.41091 40.3846,8.80043 10.54337,2.19477 21.5376,4.38577 30.89015,6.03187 9.35254,1.64607 16.2108,2.86388 22.07494,2.76118 h 0.25103 l 0.25103,-0.0151 c 0,0 6.44265,-0.64817 14.97996,5.3083 8.53731,5.9565 19.13978,18.79255 22.31857,50.83144 l 20.94536,-2.0746 c -3.59987,-36.28288 -17.2255,-56.25251 -31.22239,-66.0181 -13.99688,-9.76558 -28.39472,-9.05145 -28.39472,-9.05145 l 0.50204,-0.0227 c -1.1039,0.0189 -9.07567,-0.86273 -18.05863,-2.44378 -8.98297,-1.58104 -19.8279,-3.73726 -30.24785,-5.90634 -20.83988,-4.33813 -39.98591,-8.71923 -39.98591,-8.71923 z"
       id="path1635"
       inkscape:connector-curvature="0" />
    <path
       style="color:#000000;font-style:normal;font-variant:normal;font-weight:normal;font-stretch:normal;font-size:medium;line-height:normal;font-family:sans-serif;font-variant-ligatures:normal;font-variant-position:normal;font-variant-caps:normal;font-variant-numeric:normal;font-variant-alternates:normal;font-feature-settings:normal;text-indent:0;text-align:start;text-decoration:none;text-decoration-line:none;text-decoration-style:solid;text-decoration-color:#000000;letter-spacing:normal;word-spacing:normal;text-transform:none;writing-mode:lr-tb;direction:ltr;text-orientation:mixed;dominant-baseline:auto;baseline-shift:baseline;text-anchor:start;white-space:normal;shape-padding:0;clip-rule:nonzero;display:inline;overflow:visible;visibility:visible;opacity:1;isolation:auto;mix-blend-mode:normal;color-interpolation:sRGB;color-interpolation-filters:linearRGB;solid-color:#000000;solid-opacity:1;vector-effect:none;fill:#000000;fill-opacity:1;fill-rule:nonzero;stroke:none;stroke-width:21.04351234;stroke-linecap:butt;stroke-linejoin:miter;stroke-miterlimit:4;stroke-dasharray:none;stroke-dashoffset:0;stroke-opacity:1;color-rendering:auto;image-rendering:auto;shape-rendering:auto;text-rendering:auto;enable-background:accumulate"
       d="m 470.66537,637.28593 -15.68872,14.02756 c 0,0 6.04186,7.59855 6.50439,15.09071 0.23134,3.74607 -0.37687,7.2142 -4.18615,11.7167 -3.77103,4.45741 -11.37794,9.88202 -25.27173,14.67724 -1.21438,0.31035 -33.86601,8.4039 -72.12379,-12.78721 l -0.67923,-0.3765 -0.71615,-0.27329 c 0,0 -52.45175,-19.93569 -75.29105,-25.44894 l -4.9318,20.45809 c 18.30583,4.41889 72.54401,24.58545 72.7218,24.65157 45.28754,24.44411 86.71246,14.07923 86.71246,14.07923 l 0.3839,-0.096 0.3839,-0.13268 c 16.54464,-5.64212 27.7273,-12.70844 34.87693,-21.15948 7.14968,-8.45099 9.63699,-18.3191 9.12532,-26.60804 -1.02341,-16.57794 -11.82008,-27.81888 -11.82008,-27.81888 z"
       id="path1637"
       inkscape:connector-curvature="0" />
    <path
       style="color:#000000;font-style:normal;font-variant:normal;font-weight:normal;font-stretch:normal;font-size:medium;line-height:normal;font-family:sans-serif;font-variant-ligatures:normal;font-variant-position:normal;font-variant-caps:normal;font-variant-numeric:normal;font-variant-alternates:normal;font-feature-settings:normal;text-indent:0;text-align:start;text-decoration:none;text-decoration-line:none;text-decoration-style:solid;text-decoration-color:#000000;letter-spacing:normal;word-spacing:normal;text-transform:none;writing-mode:lr-tb;direction:ltr;text-orientation:mixed;dominant-baseline:auto;baseline-shift:baseline;text-anchor:start;white-space:normal;shape-padding:0;clip-rule:nonzero;display:inline;overflow:visible;visibility:visible;opacity:1;isolation:auto;mix-blend-mode:normal;color-interpolation:sRGB;color-interpolation-filters:linearRGB;solid-color:#000000;solid-opacity:1;vector-effect:none;fill:#000000;fill-opacity:1;fill-rule:nonzero;stroke:none;stroke-width:21.04351234;stroke-linecap:butt;stroke-linejoin:miter;stroke-miterlimit:4;stroke-dasharray:none;stroke-dashoffset:0;stroke-opacity:1;color-rendering:auto;image-rendering:auto;shape-rendering:auto;text-rendering:auto;enable-background:accumulate"
       d="m 333.8598,676.59262 c -18.89438,17.57636 -34.91385,13.10471 -34.91385,13.10471 l -4.48882,20.55406 c 0,0 28.46619,5.25356 53.73292,-18.25061 z"
       id="path1639"
       inkscape:connector-curvature="0" />
    <path
       style="color:#000000;font-style:normal;font-variant:normal;font-weight:normal;font-stretch:normal;font-size:medium;line-height:normal;font-family:sans-serif;font-variant-ligatures:normal;font-variant-position:normal;font-variant-caps:normal;font-variant-numeric:normal;font-variant-alternates:normal;font-feature-settings:normal;text-indent:0;text-align:start;text-decoration:none;text-decoration-line:none;text-decoration-style:solid;text-decoration-color:#000000;letter-spacing:normal;word-spacing:normal;text-transform:none;writing-mode:lr-tb;direction:ltr;text-orientation:mixed;dominant-baseline:auto;baseline-shift:baseline;text-anchor:start;white-space:normal;shape-padding:0;clip-rule:nonzero;display:inline;overflow:visible;visibility:visible;opacity:1;isolation:auto;mix-blend-mode:normal;color-interpolation:sRGB;color-interpolation-filters:linearRGB;solid-color:#000000;solid-opacity:1;vector-effect:none;fill:#000000;fill-opacity:1;fill-rule:nonzero;stroke:none;stroke-width:21.04351234;stroke-linecap:butt;stroke-linejoin:miter;stroke-miterlimit:4;stroke-dasharray:none;stroke-dashoffset:0;stroke-opacity:1;color-rendering:auto;image-rendering:auto;shape-rendering:auto;text-rendering:auto;enable-background:accumulate"
       d="m 418.2909,626.54379 c -3.13121,0.0941 -6.1192,0.50691 -8.96286,1.22554 -11.37472,2.87462 -19.71005,11.51443 -22.37026,21.38099 -5.32039,19.73303 8.82851,42.52292 34.98768,48.07755 l 5.67745,1.20342 4.05325,-4.15655 c 0,0 6.24276,-6.39589 12.35164,-15.50416 6.10884,-9.10828 12.90285,-21.11862 12.4845,-35.15011 l -0.19203,-6.50434 -5.90633,-2.7317 c -12.03211,-5.56738 -22.72941,-8.12319 -32.12311,-7.84064 z m 6.62988,21.5286 c 2.43311,0.38844 5.94172,1.91766 8.97764,2.91625 -1.49506,5.22414 -3.93002,10.95366 -7.35338,16.05787 -2.92052,4.35446 -3.93089,5.17122 -5.8473,7.37553 -11.46628,-4.86573 -14.87755,-14.39559 -13.42215,-19.79363 0.84374,-3.1294 2.32912,-5.22578 7.2131,-6.46004 2.44203,-0.61713 5.91794,-0.81664 10.43209,-0.096 z"
       id="path1641"
       inkscape:connector-curvature="0" />
    <path
       style="color:#000000;font-style:normal;font-variant:normal;font-weight:normal;font-stretch:normal;font-size:medium;line-height:normal;font-family:sans-serif;font-variant-ligatures:normal;font-variant-position:normal;font-variant-caps:normal;font-variant-numeric:normal;font-variant-alternates:normal;font-feature-settings:normal;text-indent:0;text-align:start;text-decoration:none;text-decoration-line:none;text-decoration-style:solid;text-decoration-color:#000000;letter-spacing:normal;word-spacing:normal;text-transform:none;writing-mode:lr-tb;direction:ltr;text-orientation:mixed;dominant-baseline:auto;baseline-shift:baseline;text-anchor:start;white-space:normal;shape-padding:0;clip-rule:nonzero;display:inline;overflow:visible;visibility:visible;opacity:1;isolation:auto;mix-blend-mode:normal;color-interpolation:sRGB;color-interpolation-filters:linearRGB;solid-color:#000000;solid-opacity:1;vector-effect:none;fill:#000000;fill-opacity:1;fill-rule:nonzero;stroke:none;stroke-width:21.04351234;stroke-linecap:butt;stroke-linejoin:miter;stroke-miterlimit:4;stroke-dasharray:none;stroke-dashoffset:0;stroke-opacity:1;color-rendering:auto;image-rendering:auto;shape-rendering:auto;text-rendering:auto;enable-background:accumulate"
       d="m 116.15952,891.84914 -15.52629,14.21215 c 0,0 28.59459,32.68975 66.79332,32.11571 1.29357,2.60767 2.68919,5.4285 4.98346,8.26149 l 16.35318,-13.24497 c -1.66665,-2.05798 -4.69554,-9.16221 -4.69554,-9.16221 l -2.8941,-8.13598 -8.54205,1.24773 c -27.46462,4.0083 -56.47198,-25.29392 -56.47198,-25.29392 z"
       id="path1643"
       inkscape:connector-curvature="0" />
    <path
       style="color:#000000;font-style:normal;font-variant:normal;font-weight:normal;font-stretch:normal;font-size:medium;line-height:normal;font-family:sans-serif;font-variant-ligatures:normal;font-variant-position:normal;font-variant-caps:normal;font-variant-numeric:normal;font-variant-alternates:normal;font-feature-settings:normal;text-indent:0;text-align:start;text-decoration:none;text-decoration-line:none;text-decoration-style:solid;text-decoration-color:#000000;letter-spacing:normal;word-spacing:normal;text-transform:none;writing-mode:lr-tb;direction:ltr;text-orientation:mixed;dominant-baseline:auto;baseline-shift:baseline;text-anchor:start;white-space:normal;shape-padding:0;clip-rule:nonzero;display:inline;overflow:visible;visibility:visible;opacity:1;isolation:auto;mix-blend-mode:normal;color-interpolation:sRGB;color-interpolation-filters:linearRGB;solid-color:#000000;solid-opacity:1;vector-effect:none;fill:#000000;fill-opacity:1;fill-rule:nonzero;stroke:none;stroke-width:21.04351234;stroke-linecap:butt;stroke-linejoin:miter;stroke-miterlimit:4;stroke-dasharray:none;stroke-dashoffset:0;stroke-opacity:1;color-rendering:auto;image-rendering:auto;shape-rendering:auto;text-rendering:auto;enable-background:accumulate"
       d="m 330.72206,702.08586 c -5.10207,34.69597 29.64982,56.11022 29.64982,56.11022 l 11.65025,-17.52707 c 0,0 -23.1903,-17.08975 -20.48024,-35.51923 z"
       id="path1645"
       inkscape:connector-curvature="0" />
    <path
       style="color:#000000;font-style:normal;font-variant:normal;font-weight:normal;font-stretch:normal;font-size:medium;line-height:normal;font-family:sans-serif;font-variant-ligatures:normal;font-variant-position:normal;font-variant-caps:normal;font-variant-numeric:normal;font-variant-alternates:normal;font-feature-settings:normal;text-indent:0;text-align:start;text-decoration:none;text-decoration-line:none;text-decoration-style:solid;text-decoration-color:#000000;letter-spacing:normal;word-spacing:normal;text-transform:none;writing-mode:lr-tb;direction:ltr;text-orientation:mixed;dominant-baseline:auto;baseline-shift:baseline;text-anchor:start;white-space:normal;shape-padding:0;clip-rule:nonzero;display:inline;overflow:visible;visibility:visible;opacity:1;isolation:auto;mix-blend-mode:normal;color-interpolation:sRGB;color-interpolation-filters:linearRGB;solid-color:#000000;solid-opacity:1;vector-effect:none;fill:#000000;fill-opacity:1;fill-rule:nonzero;stroke:none;stroke-width:21.04351234;stroke-linecap:butt;stroke-linejoin:miter;stroke-miterlimit:4;stroke-dasharray:none;stroke-dashoffset:0;stroke-opacity:1;color-rendering:auto;image-rendering:auto;shape-rendering:auto;text-rendering:auto;enable-background:accumulate"
       d="m 264.23882,922.31111 -18.74524,9.56827 c 13.41404,26.28093 45.79628,28.32087 45.79628,28.32087 l 2.18535,-20.93056 c 0,0 -22.46683,-3.69561 -29.23639,-16.95858 z"
       id="path1647"
       inkscape:connector-curvature="0" />
    <path
       style="color:#000000;font-style:normal;font-variant:normal;font-weight:normal;font-stretch:normal;font-size:medium;line-height:normal;font-family:sans-serif;font-variant-ligatures:normal;font-variant-position:normal;font-variant-caps:normal;font-variant-numeric:normal;font-variant-alternates:normal;font-feature-settings:normal;text-indent:0;text-align:start;text-decoration:none;text-decoration-line:none;text-decoration-style:solid;text-decoration-color:#000000;letter-spacing:normal;word-spacing:normal;text-transform:none;writing-mode:lr-tb;direction:ltr;text-orientation:mixed;dominant-baseline:auto;baseline-shift:baseline;text-anchor:start;white-space:normal;shape-padding:0;clip-rule:nonzero;display:inline;overflow:visible;visibility:visible;opacity:1;isolation:auto;mix-blend-mode:normal;color-interpolation:sRGB;color-interpolation-filters:linearRGB;solid-color:#000000;solid-opacity:1;vector-effect:none;fill:#000000;fill-opacity:1;fill-rule:nonzero;stroke:none;stroke-width:5.03331566;stroke-linecap:butt;stroke-linejoin:miter;stroke-miterlimit:4;stroke-dasharray:none;stroke-dashoffset:0;stroke-opacity:1;color-rendering:auto;image-rendering:auto;shape-rendering:auto;text-rendering:auto;enable-background:accumulate"
       d="m 483.51903,683.59904 c 0,0 -7.68731,12.87086 -13.47382,28.63098 -2.89325,7.88001 -5.32712,16.49957 -6.07614,24.74016 -0.74902,8.24057 0.17238,16.21215 4.415,22.48099 l 4.16396,-2.82026 c -3.30725,-4.88663 -4.25378,-11.64315 -3.56596,-19.21036 0.68782,-7.56727 2.99067,-15.83621 5.78822,-23.45556 1.46521,-3.99068 2.97086,-6.8249 4.52574,-10.26966 -0.43519,2.9123 -1.05906,5.06546 -1.28465,8.35011 -1.07187,15.60676 0.92222,34.80468 13.91681,48.24003 l 3.61763,-3.49954 c -11.49047,-11.88016 -13.52936,-29.503 -12.50667,-44.39352 1.02271,-14.89048 5.02042,-26.69665 5.02042,-26.69665 z"
       id="path60719"
       inkscape:connector-curvature="0" />
    <path
       style="color:#000000;font-style:normal;font-variant:normal;font-weight:normal;font-stretch:normal;font-size:medium;line-height:normal;font-family:sans-serif;font-variant-ligatures:normal;font-variant-position:normal;font-variant-caps:normal;font-variant-numeric:normal;font-variant-alternates:normal;font-feature-settings:normal;text-indent:0;text-align:start;text-decoration:none;text-decoration-line:none;text-decoration-style:solid;text-decoration-color:#000000;letter-spacing:normal;word-spacing:normal;text-transform:none;writing-mode:lr-tb;direction:ltr;text-orientation:mixed;dominant-baseline:auto;baseline-shift:baseline;text-anchor:start;white-space:normal;shape-padding:0;clip-rule:nonzero;display:inline;overflow:visible;visibility:visible;opacity:1;isolation:auto;mix-blend-mode:normal;color-interpolation:sRGB;color-interpolation-filters:linearRGB;solid-color:#000000;solid-opacity:1;vector-effect:none;fill:#000000;fill-opacity:1;fill-rule:nonzero;stroke:none;stroke-width:5.03331566;stroke-linecap:butt;stroke-linejoin:miter;stroke-miterlimit:4;stroke-dasharray:none;stroke-dashoffset:0;stroke-opacity:1;color-rendering:auto;image-rendering:auto;shape-rendering:auto;text-rendering:auto;enable-background:accumulate"
       d="m 468.47266,599.95787 c -1.72842,13.14366 2.18813,31.69044 6.40096,47.23596 4.21289,15.54549 8.83,27.98864 8.83,27.98864 l 4.82105,-1.41011 c 0,0 -2.28744,-10.64139 -1.86048,-24.02404 0.42693,-13.38269 3.63287,-29.22211 14.09399,-39.68323 l -3.55859,-3.55858 c -11.87153,11.87157 -15.1152,29.04381 -15.56317,43.08675 -0.034,1.06647 0.12889,1.68693 0.12549,2.71692 -0.94872,-3.12207 -1.0623,-2.85863 -2.0303,-6.43053 -4.14714,-15.30302 -7.77978,-33.76909 -6.26809,-45.2647 z"
       id="path60719-5"
       inkscape:connector-curvature="0" />
    <path
       inkscape:connector-curvature="0"
       id="path29-0"
       d="m 793.79652,693.89292 c -73.30185,72.16201 -136.40651,75.02589 -184.56499,59.81528 -24.07927,-7.60517 -44.38755,-20.11345 -59.48318,-31.60403 -15.09554,-11.49073 -24.54893,-21.51919 -28.5051,-25.43862 l -13.55139,13.68063 c 3.04888,3.02069 14.05031,14.63741 30.39559,27.07928 16.34557,12.44198 38.46646,26.15459 65.346,34.64434 53.75902,16.97929 126.69076,11.52441 203.87019,-64.455 z"
       style="color:#000000;font-style:normal;font-variant:normal;font-weight:normal;font-stretch:normal;font-size:medium;line-height:normal;font-family:sans-serif;font-variant-ligatures:normal;font-variant-position:normal;font-variant-caps:normal;font-variant-numeric:normal;font-variant-alternates:normal;font-feature-settings:normal;text-indent:0;text-align:start;text-decoration:none;text-decoration-line:none;text-decoration-style:solid;text-decoration-color:#000000;letter-spacing:normal;word-spacing:normal;text-transform:none;writing-mode:lr-tb;direction:ltr;text-orientation:mixed;dominant-baseline:auto;baseline-shift:baseline;text-anchor:start;white-space:normal;shape-padding:0;clip-rule:nonzero;display:inline;overflow:visible;visibility:visible;opacity:1;isolation:auto;mix-blend-mode:normal;color-interpolation:sRGB;color-interpolation-filters:linearRGB;solid-color:#000000;solid-opacity:1;vector-effect:none;fill:#000000;fill-opacity:1;fill-rule:nonzero;stroke:none;stroke-width:19.25545692;stroke-linecap:butt;stroke-linejoin:miter;stroke-miterlimit:4;stroke-dasharray:none;stroke-dashoffset:0;stroke-opacity:1;color-rendering:auto;image-rendering:auto;shape-rendering:auto;text-rendering:auto;enable-background:accumulate" />
    <path
       inkscape:connector-curvature="0"
       id="path87-4"
       d="m 531.69556,340.46945 c -19.11442,0.18258 -34.57116,7.86566 -44.52635,19.36429 -9.98188,11.52944 -14.62655,26.41051 -14.49221,41.06268 0.13457,14.65234 5.04112,29.35335 15.14492,40.5336 10.07026,11.143 25.52853,18.27748 44.23535,17.70015 18.36424,-0.0435 33.30363,-7.83561 42.78873,-19.34656 9.51094,-11.54262 13.88386,-26.3281 13.78943,-40.90407 -0.0938,-14.57601 -4.64917,-29.21977 -14.26292,-40.47768 -9.58871,-11.22867 -24.58287,-18.55691 -42.67695,-17.93241 z m 0.57041,19.23483 c 12.91214,-0.47501 21.33665,4.03003 27.46137,11.20219 6.12489,7.17225 9.58414,17.53073 9.65278,28.09955 0.0684,10.5687 -3.24805,21.07276 -9.39405,28.53175 -6.14592,7.45855 -14.78486,12.3518 -28.07293,12.3518 h -0.16179 l -0.16179,0.0151 c -13.82064,0.4643 -22.99173,-4.1947 -29.4813,-11.37563 -6.48972,-7.18078 -10.08047,-17.3809 -10.17603,-27.79963 -0.0953,-10.41841 3.29731,-20.77785 9.79368,-28.2816 6.49655,-7.50379 15.91155,-12.62172 30.25765,-12.72829 l 0.14138,-0.0151 z"
       style="color:#000000;font-style:normal;font-variant:normal;font-weight:normal;font-stretch:normal;font-size:medium;line-height:normal;font-family:sans-serif;font-variant-ligatures:normal;font-variant-position:normal;font-variant-caps:normal;font-variant-numeric:normal;font-variant-alternates:normal;font-feature-settings:normal;text-indent:0;text-align:start;text-decoration:none;text-decoration-line:none;text-decoration-style:solid;text-decoration-color:#000000;letter-spacing:normal;word-spacing:normal;text-transform:none;writing-mode:lr-tb;direction:ltr;text-orientation:mixed;dominant-baseline:auto;baseline-shift:baseline;text-anchor:start;white-space:normal;shape-padding:0;clip-rule:nonzero;display:inline;overflow:visible;visibility:visible;opacity:1;isolation:auto;mix-blend-mode:normal;color-interpolation:sRGB;color-interpolation-filters:linearRGB;solid-color:#000000;solid-opacity:1;vector-effect:none;fill:#000000;fill-opacity:1;fill-rule:nonzero;stroke:none;stroke-width:19.25545692;stroke-linecap:butt;stroke-linejoin:miter;stroke-miterlimit:4;stroke-dasharray:none;stroke-dashoffset:0;stroke-opacity:1;color-rendering:auto;image-rendering:auto;shape-rendering:auto;text-rendering:auto;enable-background:accumulate" />
    <path
       inkscape:connector-curvature="0"
       id="path59-4"
       d="m 530.86648,303.85522 c -36.16218,0.96611 -70.68737,18.40472 -112.56239,49.50423 l 11.48139,15.45934 c 40.56474,-30.12619 71.31468,-44.90508 101.59543,-45.71405 30.28079,-0.80886 62.02068,12.24795 104.82393,42.00075 l 10.99052,-15.81247 c -44.29875,-30.7922 -80.16678,-46.40364 -116.32888,-45.4378 z"
       style="color:#000000;font-style:normal;font-variant:normal;font-weight:normal;font-stretch:normal;font-size:medium;line-height:normal;font-family:sans-serif;font-variant-ligatures:normal;font-variant-position:normal;font-variant-caps:normal;font-variant-numeric:normal;font-variant-alternates:normal;font-feature-settings:normal;text-indent:0;text-align:start;text-decoration:none;text-decoration-line:none;text-decoration-style:solid;text-decoration-color:#000000;letter-spacing:normal;word-spacing:normal;text-transform:none;writing-mode:lr-tb;direction:ltr;text-orientation:mixed;dominant-baseline:auto;baseline-shift:baseline;text-anchor:start;white-space:normal;shape-padding:0;clip-rule:nonzero;display:inline;overflow:visible;visibility:visible;opacity:1;isolation:auto;mix-blend-mode:normal;color-interpolation:sRGB;color-interpolation-filters:linearRGB;solid-color:#000000;solid-opacity:1;vector-effect:none;fill:#000000;fill-opacity:1;fill-rule:nonzero;stroke:none;stroke-width:19.25545692;stroke-linecap:butt;stroke-linejoin:miter;stroke-miterlimit:4;stroke-dasharray:none;stroke-dashoffset:0;stroke-opacity:1;color-rendering:auto;image-rendering:auto;shape-rendering:auto;text-rendering:auto;enable-background:accumulate" />
    <path
       inkscape:connector-curvature="0"
       id="path87-1-31"
       d="m 793.13776,337.72343 c -19.11442,0.1822 -34.57115,7.86857 -44.52634,19.36708 -9.98185,11.52952 -14.62663,26.40767 -14.49222,41.05971 0.13457,14.65248 5.0412,29.35343 15.14503,40.53374 10.07333,11.14659 25.53768,18.28243 44.25294,17.7 18.35577,-0.0488 33.28911,-7.83946 42.77101,-19.34652 9.51104,-11.54267 13.88112,-26.32503 13.78647,-40.9012 -0.0938,-14.5759 -4.64898,-29.22272 -14.26287,-40.4806 -9.58835,-11.22793 -24.58134,-18.55584 -42.67402,-17.93221 z m 0.57038,19.23482 c 12.91204,-0.475 21.33668,4.02992 27.46151,11.20213 6.12482,7.17212 9.58112,17.53066 9.64969,28.0995 0.0684,10.56862 -3.24506,21.07284 -9.39099,28.53161 -6.14592,7.45877 -14.78482,12.35462 -28.07297,12.35462 h -0.16179 l -0.16178,0.0151 c -13.82076,0.4643 -22.99182,-4.19455 -29.4815,-11.37552 -6.48945,-7.18101 -10.08039,-17.38111 -10.17584,-27.79963 -0.0953,-10.41852 3.29708,-20.77792 9.79364,-28.2816 6.49656,-7.50391 15.91166,-12.62191 30.25774,-12.7282 h 0.14137 z"
       style="color:#000000;font-style:normal;font-variant:normal;font-weight:normal;font-stretch:normal;font-size:medium;line-height:normal;font-family:sans-serif;font-variant-ligatures:normal;font-variant-position:normal;font-variant-caps:normal;font-variant-numeric:normal;font-variant-alternates:normal;font-feature-settings:normal;text-indent:0;text-align:start;text-decoration:none;text-decoration-line:none;text-decoration-style:solid;text-decoration-color:#000000;letter-spacing:normal;word-spacing:normal;text-transform:none;writing-mode:lr-tb;direction:ltr;text-orientation:mixed;dominant-baseline:auto;baseline-shift:baseline;text-anchor:start;white-space:normal;shape-padding:0;clip-rule:nonzero;display:inline;overflow:visible;visibility:visible;opacity:1;isolation:auto;mix-blend-mode:normal;color-interpolation:sRGB;color-interpolation-filters:linearRGB;solid-color:#000000;solid-opacity:1;vector-effect:none;fill:#000000;fill-opacity:1;fill-rule:nonzero;stroke:none;stroke-width:19.25545692;stroke-linecap:butt;stroke-linejoin:miter;stroke-miterlimit:4;stroke-dasharray:none;stroke-dashoffset:0;stroke-opacity:1;color-rendering:auto;image-rendering:auto;shape-rendering:auto;text-rendering:auto;enable-background:accumulate" />
    <path
       inkscape:connector-curvature="0"
       id="path59-1-31"
       d="m 794.499,301.48255 c -36.08579,0.0737 -71.40395,16.59177 -114.79391,49.1601 l 11.56074,15.4007 c 41.88368,-31.43764 73.0318,-45.24399 103.27453,-45.30549 30.24245,-0.0605 61.49979,13.74576 103.24194,41.71251 l 10.71994,-15.99448 C 865.51871,317.65719 830.58505,301.40925 794.499,301.48255 Z"
       style="color:#000000;font-style:normal;font-variant:normal;font-weight:normal;font-stretch:normal;font-size:medium;line-height:normal;font-family:sans-serif;font-variant-ligatures:normal;font-variant-position:normal;font-variant-caps:normal;font-variant-numeric:normal;font-variant-alternates:normal;font-feature-settings:normal;text-indent:0;text-align:start;text-decoration:none;text-decoration-line:none;text-decoration-style:solid;text-decoration-color:#000000;letter-spacing:normal;word-spacing:normal;text-transform:none;writing-mode:lr-tb;direction:ltr;text-orientation:mixed;dominant-baseline:auto;baseline-shift:baseline;text-anchor:start;white-space:normal;shape-padding:0;clip-rule:nonzero;display:inline;overflow:visible;visibility:visible;opacity:1;isolation:auto;mix-blend-mode:normal;color-interpolation:sRGB;color-interpolation-filters:linearRGB;solid-color:#000000;solid-opacity:1;vector-effect:none;fill:#000000;fill-opacity:1;fill-rule:nonzero;stroke:none;stroke-width:19.25545692;stroke-linecap:butt;stroke-linejoin:miter;stroke-miterlimit:4;stroke-dasharray:none;stroke-dashoffset:0;stroke-opacity:1;color-rendering:auto;image-rendering:auto;shape-rendering:auto;text-rendering:auto;enable-background:accumulate" />
  </g>
</svg>
