<?xml version="1.0" encoding="UTF-8" standalone="no"?>
<!-- Created with Inkscape (http://www.inkscape.org/) -->

<svg
   xmlns:dc="http://purl.org/dc/elements/1.1/"
   xmlns:cc="http://creativecommons.org/ns#"
   xmlns:rdf="http://www.w3.org/1999/02/22-rdf-syntax-ns#"
   xmlns:svg="http://www.w3.org/2000/svg"
   xmlns="http://www.w3.org/2000/svg"
   xmlns:sodipodi="http://sodipodi.sourceforge.net/DTD/sodipodi-0.dtd"
   xmlns:inkscape="http://www.inkscape.org/namespaces/inkscape"
   width="1000"
   height="1250"
   viewBox="0 0 1000 1250"
   version="1.1"
   id="svg31085"
   inkscape:version="0.92.4 (5da689c313, 2019-01-14)"
   sodipodi:docname="Aquele - Aquela - Aquilo.svg">
  <defs
     id="defs31079" />
  <sodipodi:namedview
     id="base"
     pagecolor="#ffffff"
     bordercolor="#666666"
     borderopacity="1.0"
     inkscape:pageopacity="0.0"
     inkscape:pageshadow="2"
     inkscape:zoom="256"
     inkscape:cx="981.11453"
     inkscape:cy="998.81773"
     inkscape:document-units="px"
     inkscape:current-layer="layer1"
     showgrid="false"
     units="px"
     inkscape:window-width="1366"
     inkscape:window-height="715"
     inkscape:window-x="-8"
     inkscape:window-y="-8"
     inkscape:window-maximized="1" />
  <metadata
     id="metadata31082">
    <rdf:RDF>
      <cc:Work
         rdf:about="">
        <dc:format>image/svg+xml</dc:format>
        <dc:type
           rdf:resource="http://purl.org/dc/dcmitype/StillImage" />
        <dc:title></dc:title>
      </cc:Work>
    </rdf:RDF>
  </metadata>
  <g
     inkscape:label="Camada 1"
     inkscape:groupmode="layer"
     id="layer1"
     transform="translate(0,217.58334)">
    <path
       style="color:#000000;font-style:normal;font-variant:normal;font-weight:normal;font-stretch:normal;font-size:medium;line-height:normal;font-family:sans-serif;font-variant-ligatures:normal;font-variant-position:normal;font-variant-caps:normal;font-variant-numeric:normal;font-variant-alternates:normal;font-feature-settings:normal;text-indent:0;text-align:start;text-decoration:none;text-decoration-line:none;text-decoration-style:solid;text-decoration-color:#000000;letter-spacing:normal;word-spacing:normal;text-transform:none;writing-mode:lr-tb;direction:ltr;text-orientation:mixed;dominant-baseline:auto;baseline-shift:baseline;text-anchor:start;white-space:normal;shape-padding:0;clip-rule:nonzero;display:inline;overflow:visible;visibility:visible;opacity:1;isolation:auto;mix-blend-mode:normal;color-interpolation:sRGB;color-interpolation-filters:linearRGB;solid-color:#000000;solid-opacity:1;vector-effect:none;fill:#000000;fill-opacity:1;fill-rule:nonzero;stroke:none;stroke-width:19.3620739;stroke-linecap:butt;stroke-linejoin:miter;stroke-miterlimit:4;stroke-dasharray:none;stroke-dashoffset:0;stroke-opacity:1;color-rendering:auto;image-rendering:auto;shape-rendering:auto;text-rendering:auto;enable-background:accumulate"
       d="m 29.283203,67.763991 -1.138672,0.12695 -1.078125,0.38868 c 0,0 -9.806247,3.31086 -17.7167966,11.86718 -7.9105496,8.55633 -13.0448503,24.780389 -3.8554688,42.181639 l 0.2382813,0.45313 0.2851562,0.42383 c 0,0 7.5612619,11.26401 18.1699219,24.30468 10.321994,12.6883 23.190853,27.12595 36.947266,35.59766 l 85.955074,81.41211 0.18164,0.15625 c 0,0 31.64564,27.16023 58.50586,55.93164 0.0255,0.0324 3.85341,4.97498 4.99414,7.87891 -0.82327,0.2432 -1.89627,0.55439 -4.19921,0.66406 l -0.58985,0.0273 -0.58203,0.0996 c 0,0 -38.1296,6.61383 -86.71289,35.09375 l -0.21875,0.12696 -0.21289,0.14062 c 0,0 -15.65607,9.84513 -24.302735,26.99023 -4.32333,8.57256 -6.855692,19.58169 -3.802734,31.26172 2.338825,8.9479 7.834749,17.84196 16.832029,26.42578 -4.50942,4.31642 -9.747534,10.11858 -13.882811,17.47266 -4.479694,7.96658 -7.715932,18.02625 -6.177734,29.11328 1.254943,9.04538 5.936019,18.25128 14.050785,26.95898 -2.224642,4.42712 -4.553918,10.50853 -5.205082,17.77149 -1.346695,15.02079 5.836642,34.85345 30.517582,50.23438 l 0.1914,0.11914 0.19727,0.11133 c 0,0 60.20089,34.19664 127.57422,27.53906 1.90699,0.87382 3.79301,1.3485 5.59961,1.65039 3.34715,4.08903 15.44519,18.80799 31.5625,36.85937 9.25743,10.36833 19.22783,21.10816 28.44336,30.10352 8.45544,8.25344 15.75805,14.83439 23.01562,18.93945 1.73392,2.15125 15.79695,19.44891 38.22852,37.74414 23.85597,19.45703 56.32121,39.54003 91.90625,38.43953 l -0.59961,-19.3535 c -27.6546,0.8552 -56.96152,-16.05955 -79.06836,-34.08993 -22.10684,-18.03039 -36.59571,-36.25 -36.59571,-36.25 l -1.33398,-1.67969 -1.91797,-0.95899 c -3.17313,-1.58656 -11.41651,-8.1613 -20.10937,-16.64648 -8.69286,-8.48518 -18.4466,-18.97432 -27.52539,-29.14258 -18.15759,-20.33651 -33.60938,-39.3457 -33.60938,-39.3457 l -3.0918,-3.80469 -4.89648,0.24024 c -1.79287,0.088 -1.34449,0.18172 -1.91211,-0.25586 l -3.12891,-2.41211 -3.92382,0.46679 c -60.43987,7.18123 -118.44607,-24.55787 -118.97071,-24.84565 -20.08795,-12.59116 -22.0368,-23.35378 -21.26758,-31.9336 0.77217,-8.61256 5.64454,-14.92773 5.64454,-14.92773 l 5.85937,-7.28906 -7.08203,-6.10743 c -9.36941,-8.08202 -12.56005,-14.92289 -13.375,-20.79687 -0.81495,-5.87399 0.81842,-11.52171 3.87695,-16.96094 6.11707,-10.87845 17.43946,-18.96094 17.43946,-18.96094 l 11.19336,-7.65039 -10.8711,-8.10351 c -12.24348,-9.12697 -17.17156,-17.12802 -18.85547,-23.57031 -1.6839,-6.44229 -0.44805,-12.07976 2.35938,-17.64649 5.56815,-11.04086 17.35715,-19.30895 17.55469,-19.44726 45.76954,-26.76254 79.83919,-32.53142 79.86132,-32.53516 1e-5,0 0.008,-0.002 0.008,-0.002 7.75284,-0.53701 14.32781,-2.62401 18.50976,-8.06055 4.3985,-5.71805 3.76467,-12.72967 2.26758,-17.3457 -2.99419,-9.23207 -9.40625,-15.45312 -9.40625,-15.45313 l -0.0293,-0.0312 -0.0293,-0.0313 c -27.64001,-29.61421 -59.1683,-56.64766 -59.74805,-57.14453 l -0.0117,-0.0117 -87.169922,-82.56446 -0.947266,-0.55664 C 62.493649,161.50479 49.21664,147.59536 39.207221,135.29129 29.60877,123.49241 23.039389,113.78955 22.486518,112.97098 16.613015,101.64462 19.540987,97.643581 23.566596,93.289341 c 2.650486,-2.86686 5.526969,-4.52101 7.625,-5.57812 0.804445,0.26277 1.895777,0.58056 3.185547,1.38867 3.033387,1.90058 6.881308,4.85318 10.492188,7.88476 7.221759,6.063179 13.517578,12.347659 13.517578,12.347659 l 1.470703,1.46875 1.941406,0.73828 c 0.610056,0.2314 4.664946,2.38342 8.97461,5.14453 4.309663,2.76111 9.347102,6.21541 14.105468,9.56836 9.342253,6.58296 17.272894,12.52955 17.572264,12.75391 16.68309,16.42728 44.32085,34.32228 68.41602,48.82812 24.41639,14.69922 45.00976,25.57032 45.00976,25.57032 l 0.40821,0.21484 0.42578,0.17578 c 10.33299,4.2548 94.06054,40.35938 94.06054,40.35938 l 2.06446,0.89062 2.24414,-0.11133 c 30.14901,-1.48077 51.84049,11.51868 58.42383,16.89649 l 0.55273,0.45312 0.61524,0.36719 c 20.10969,11.98443 25.61181,27.54993 28.02734,34.37109 2.2999,9.92824 5.49843,16.30521 9.03125,20.42969 1.82787,2.13399 3.74341,3.64664 5.47656,4.62891 0.003,0.002 0.004,0.002 0.008,0.004 6.91751,7.89374 12.94336,25.40821 12.94336,25.40821 l -0.0566,-0.20508 c 3.42206,12.8327 13.85018,31.72933 23.72852,49.3457 9.83454,17.53827 18.94628,32.51329 19.02734,32.64648 0.0115,0.0193 0.0217,0.0354 0.0332,0.0547 5e-5,8e-5 0.0195,0.0312 0.0195,0.0312 55.95296,94.10905 105.92773,141.51563 105.92773,141.51563 l 13.31055,-14.06055 c 0,0 -47.78933,-45.14636 -102.64649,-137.43555 l -0.0254,-0.043 -0.0273,-0.043 c 0,0 -9.0521,-14.87347 -18.73242,-32.13672 -9.68033,-17.26324 -20.1146,-38.13727 -21.90821,-44.86327 l -0.0273,-0.10352 -0.0293,-0.10156 c 0,0 -5.18123,-21.2183 -18.75,-34.78711 l -2.15039,-2.15039 -1.36914,-0.24414 c -0.0541,-0.0578 0.0226,0.0245 -0.0469,-0.0566 -0.93589,-1.09263 -3.24607,-4.58716 -5.08203,-12.95117 l -0.12891,-0.58985 -0.20117,-0.56836 c -2.43212,-6.86532 -10.69487,-28.90557 -35.60156,-44.15625 -10.32382,-8.32532 -34.52351,-21.93896 -68.77344,-20.98242 -3.00074,-1.29483 -79.67413,-34.37902 -92.01367,-39.47852 -0.43015,-0.22735 -20.12862,-10.64456 -43.7793,-24.88281 -23.90978,-14.39423 -51.71155,-32.8834 -65.42188,-46.59375 l -0.48632,-0.48633 -0.55079,-0.41211 c 0,0 -8.56781,-6.42639 -18.36523,-13.33007 -4.898708,-3.45184 -10.108806,-7.02816 -14.814453,-10.04297 -3.828267,-2.452689 -7.022862,-4.342579 -10.292969,-5.853519 -1.461979,-1.44493 -6.645807,-6.52797 -13.605469,-12.37109 -4.008846,-3.36571 -8.330438,-6.75082 -12.662109,-9.46485 -4.331671,-2.71402 -7.957641,-5.75164 -15.373047,-4.92773 z"
       id="path53564"
       inkscape:connector-curvature="0" />
    <path
       style="color:#000000;font-style:normal;font-variant:normal;font-weight:normal;font-stretch:normal;font-size:medium;line-height:normal;font-family:sans-serif;font-variant-ligatures:normal;font-variant-position:normal;font-variant-caps:normal;font-variant-numeric:normal;font-variant-alternates:normal;font-feature-settings:normal;text-indent:0;text-align:start;text-decoration:none;text-decoration-line:none;text-decoration-style:solid;text-decoration-color:#000000;letter-spacing:normal;word-spacing:normal;text-transform:none;writing-mode:lr-tb;direction:ltr;text-orientation:mixed;dominant-baseline:auto;baseline-shift:baseline;text-anchor:start;white-space:normal;shape-padding:0;clip-rule:nonzero;display:inline;overflow:visible;visibility:visible;opacity:1;isolation:auto;mix-blend-mode:normal;color-interpolation:sRGB;color-interpolation-filters:linearRGB;solid-color:#000000;solid-opacity:1;vector-effect:none;fill:#000000;fill-opacity:1;fill-rule:nonzero;stroke:none;stroke-width:19.3620739;stroke-linecap:butt;stroke-linejoin:miter;stroke-miterlimit:4;stroke-dasharray:none;stroke-dashoffset:0;stroke-opacity:1;color-rendering:auto;image-rendering:auto;shape-rendering:auto;text-rendering:auto;enable-background:accumulate"
       d="m 197.77539,566.5218 -3.26172,3.5625 c 0,0 -7.37397,8.49249 -23.17383,8.75586 l 0.32227,19.35938 c 15.94843,-0.26584 27.00395,-7.04532 32.68164,-11.4043 3.95938,0.52242 11.9044,1.7185 21.37891,4.96484 6.14735,2.10633 12.03009,4.98446 15.76953,8.08204 3.73944,3.09757 5.19856,5.61451 5.26172,9.08789 l 19.35937,-0.35352 c -0.18133,-9.97318 -5.69209,-18.19609 -12.26953,-23.64453 -6.57744,-5.44844 -14.35946,-8.9232 -21.8457,-11.48829 -14.97248,-5.13016 -29.41407,-6.45898 -29.41407,-6.45898 z"
       id="path53566"
       inkscape:connector-curvature="0" />
    <path
       style="color:#000000;font-style:normal;font-variant:normal;font-weight:normal;font-stretch:normal;font-size:medium;line-height:normal;font-family:sans-serif;font-variant-ligatures:normal;font-variant-position:normal;font-variant-caps:normal;font-variant-numeric:normal;font-variant-alternates:normal;font-feature-settings:normal;text-indent:0;text-align:start;text-decoration:none;text-decoration-line:none;text-decoration-style:solid;text-decoration-color:#000000;letter-spacing:normal;word-spacing:normal;text-transform:none;writing-mode:lr-tb;direction:ltr;text-orientation:mixed;dominant-baseline:auto;baseline-shift:baseline;text-anchor:start;white-space:normal;shape-padding:0;clip-rule:nonzero;display:inline;overflow:visible;visibility:visible;opacity:1;isolation:auto;mix-blend-mode:normal;color-interpolation:sRGB;color-interpolation-filters:linearRGB;solid-color:#000000;solid-opacity:1;vector-effect:none;fill:#000000;fill-opacity:1;fill-rule:nonzero;stroke:none;stroke-width:19.3620739;stroke-linecap:butt;stroke-linejoin:miter;stroke-miterlimit:4;stroke-dasharray:none;stroke-dashoffset:0;stroke-opacity:1;color-rendering:auto;image-rendering:auto;shape-rendering:auto;text-rendering:auto;enable-background:accumulate"
       d="m 221.57812,583.50813 c -0.28357,0.20622 -1.13888,2.21734 -2.52929,3.72461 -1.85389,2.00969 -3.68945,3.48047 -3.68945,3.48047 l 12.0332,15.16992 c 0,0 2.89172,-2.27673 5.88672,-5.52344 2.995,-3.24671 7.06299,-7.10442 7.6875,-14.80664 l -19.29883,-1.56445 c 0.0339,-0.41791 0.005,-0.54921 -0.0898,-0.48047 z"
       id="path53568"
       inkscape:connector-curvature="0" />
    <path
       style="color:#000000;font-style:normal;font-variant:normal;font-weight:normal;font-stretch:normal;font-size:medium;line-height:normal;font-family:sans-serif;font-variant-ligatures:normal;font-variant-position:normal;font-variant-caps:normal;font-variant-numeric:normal;font-variant-alternates:normal;font-feature-settings:normal;text-indent:0;text-align:start;text-decoration:none;text-decoration-line:none;text-decoration-style:solid;text-decoration-color:#000000;letter-spacing:normal;word-spacing:normal;text-transform:none;writing-mode:lr-tb;direction:ltr;text-orientation:mixed;dominant-baseline:auto;baseline-shift:baseline;text-anchor:start;white-space:normal;shape-padding:0;clip-rule:nonzero;display:inline;overflow:visible;visibility:visible;opacity:1;isolation:auto;mix-blend-mode:normal;color-interpolation:sRGB;color-interpolation-filters:linearRGB;solid-color:#000000;solid-opacity:1;vector-effect:none;fill:#000000;fill-opacity:1;fill-rule:nonzero;stroke:none;stroke-width:19.3620739;stroke-linecap:butt;stroke-linejoin:miter;stroke-miterlimit:4;stroke-dasharray:none;stroke-dashoffset:0;stroke-opacity:1;color-rendering:auto;image-rendering:auto;shape-rendering:auto;text-rendering:auto;enable-background:accumulate"
       d="m 182.40625,559.82844 c -0.86336,8.46072 3.46627,14.27119 6.75195,18.14453 3.28568,3.87335 6.6875,6.39258 6.6875,6.39258 l 11.61719,-15.48828 c 0,0 -1.81282,-1.39275 -3.53906,-3.42774 -1.72624,-2.03498 -2.20552,-4.13047 -2.25391,-3.65625 z"
       id="path53572"
       inkscape:connector-curvature="0" />
    <path
       style="color:#000000;font-style:normal;font-variant:normal;font-weight:normal;font-stretch:normal;font-size:medium;line-height:normal;font-family:sans-serif;font-variant-ligatures:normal;font-variant-position:normal;font-variant-caps:normal;font-variant-numeric:normal;font-variant-alternates:normal;font-feature-settings:normal;text-indent:0;text-align:start;text-decoration:none;text-decoration-line:none;text-decoration-style:solid;text-decoration-color:#000000;letter-spacing:normal;word-spacing:normal;text-transform:none;writing-mode:lr-tb;direction:ltr;text-orientation:mixed;dominant-baseline:auto;baseline-shift:baseline;text-anchor:start;white-space:normal;shape-padding:0;clip-rule:nonzero;display:inline;overflow:visible;visibility:visible;opacity:1;isolation:auto;mix-blend-mode:normal;color-interpolation:sRGB;color-interpolation-filters:linearRGB;solid-color:#000000;solid-opacity:1;vector-effect:none;fill:#000000;fill-opacity:1;fill-rule:nonzero;stroke:none;stroke-width:19.3620739;stroke-linecap:butt;stroke-linejoin:miter;stroke-miterlimit:4;stroke-dasharray:none;stroke-dashoffset:0;stroke-opacity:1;color-rendering:auto;image-rendering:auto;shape-rendering:auto;text-rendering:auto;enable-background:accumulate"
       d="m 206.12695,449.6468 c -4.18811,5.63784 -14.49685,12.72803 -23.61523,17.55859 -9.11838,4.83057 -16.77149,7.7461 -16.77149,7.7461 l 0.0801,-0.0293 c -32.29839,11.95282 -59.48635,39.57227 -59.48635,39.57227 l 13.63477,13.74804 c 0,0 26.3233,-25.44801 52.57227,-35.16211 l 0.041,-0.0156 0.0391,-0.0156 c 0,0 8.71138,-3.30765 18.95508,-8.73437 10.2437,-5.42672 22.29584,-12.62587 30.09375,-23.12305 z"
       id="path53576"
       inkscape:connector-curvature="0" />
    <path
       style="color:#000000;font-style:normal;font-variant:normal;font-weight:normal;font-stretch:normal;font-size:medium;line-height:normal;font-family:sans-serif;font-variant-ligatures:normal;font-variant-position:normal;font-variant-caps:normal;font-variant-numeric:normal;font-variant-alternates:normal;font-feature-settings:normal;text-indent:0;text-align:start;text-decoration:none;text-decoration-line:none;text-decoration-style:solid;text-decoration-color:#000000;letter-spacing:normal;word-spacing:normal;text-transform:none;writing-mode:lr-tb;direction:ltr;text-orientation:mixed;dominant-baseline:auto;baseline-shift:baseline;text-anchor:start;white-space:normal;shape-padding:0;clip-rule:nonzero;display:inline;overflow:visible;visibility:visible;opacity:1;isolation:auto;mix-blend-mode:normal;color-interpolation:sRGB;color-interpolation-filters:linearRGB;solid-color:#000000;solid-opacity:1;vector-effect:none;fill:#000000;fill-opacity:1;fill-rule:nonzero;stroke:none;stroke-width:19.3620739;stroke-linecap:butt;stroke-linejoin:miter;stroke-miterlimit:4;stroke-dasharray:none;stroke-dashoffset:0;stroke-opacity:1;color-rendering:auto;image-rendering:auto;shape-rendering:auto;text-rendering:auto;enable-background:accumulate"
       d="m 213.38477,385.53938 c -10.61322,10.99912 -24.50586,15.16211 -24.50586,15.16211 l -0.58399,0.16797 -0.55859,0.23828 c -48.49698,20.71717 -72.09961,40.88281 -72.09961,40.88281 l 12.63281,14.67187 c 0,0 20.54732,-17.83885 66.8457,-37.64843 2.40281,-0.71786 18.55,-5.87973 32.20313,-20.0293 z"
       id="path53578"
       inkscape:connector-curvature="0" />
    <path
       style="color:#000000;font-style:normal;font-variant:normal;font-weight:normal;font-stretch:normal;font-size:medium;line-height:normal;font-family:sans-serif;font-variant-ligatures:normal;font-variant-position:normal;font-variant-caps:normal;font-variant-numeric:normal;font-variant-alternates:normal;font-feature-settings:normal;text-indent:0;text-align:start;text-decoration:none;text-decoration-line:none;text-decoration-style:solid;text-decoration-color:#000000;letter-spacing:normal;word-spacing:normal;text-transform:none;writing-mode:lr-tb;direction:ltr;text-orientation:mixed;dominant-baseline:auto;baseline-shift:baseline;text-anchor:start;white-space:normal;shape-padding:0;clip-rule:nonzero;display:inline;overflow:visible;visibility:visible;opacity:1;isolation:auto;mix-blend-mode:normal;color-interpolation:sRGB;color-interpolation-filters:linearRGB;solid-color:#000000;solid-opacity:1;vector-effect:none;fill:#000000;fill-opacity:1;fill-rule:nonzero;stroke:none;stroke-width:19.3620739;stroke-linecap:butt;stroke-linejoin:miter;stroke-miterlimit:4;stroke-dasharray:none;stroke-dashoffset:0;stroke-opacity:1;color-rendering:auto;image-rendering:auto;shape-rendering:auto;text-rendering:auto;enable-background:accumulate"
       d="m 29.238281,72.041331 c -6.389018,5.95094 -10.013589,13.18465 -10.080078,20.22461 -0.06649,7.03997 3.056305,12.784579 6.408203,16.951179 6.703796,8.33319 15.558594,12.49414 15.558594,12.49414 l 8.761719,4.45312 4.320312,-8.82812 c 0,0 1.703668,-3.45723 3.910157,-6.98047 1.103244,-1.76162 2.334013,-3.50199 3.251953,-4.56641 0.917939,-1.06441 1.929387,-1.10148 -0.257813,-0.41797 l -5.77539,-18.480469 c -4.795016,1.49848 -6.67417,3.98725 -8.628907,6.25391 -1.639641,1.90128 -2.94312,3.88255 -4.193359,5.81641 -0.649917,-0.61647 -1.329041,-1.22163 -1.859375,-1.88086 -1.587957,-1.97392 -2.145039,-3.54504 -2.134766,-4.63282 0.01027,-1.08777 0.218672,-2.79432 3.914063,-6.23632 z"
       id="path53582"
       inkscape:connector-curvature="0" />
    <path
       style="color:#000000;font-style:normal;font-variant:normal;font-weight:normal;font-stretch:normal;font-size:medium;line-height:normal;font-family:sans-serif;font-variant-ligatures:normal;font-variant-position:normal;font-variant-caps:normal;font-variant-numeric:normal;font-variant-alternates:normal;font-feature-settings:normal;text-indent:0;text-align:start;text-decoration:none;text-decoration-line:none;text-decoration-style:solid;text-decoration-color:#000000;letter-spacing:normal;word-spacing:normal;text-transform:none;writing-mode:lr-tb;direction:ltr;text-orientation:mixed;dominant-baseline:auto;baseline-shift:baseline;text-anchor:start;white-space:normal;shape-padding:0;clip-rule:nonzero;display:inline;overflow:visible;visibility:visible;opacity:1;isolation:auto;mix-blend-mode:normal;color-interpolation:sRGB;color-interpolation-filters:linearRGB;solid-color:#000000;solid-opacity:1;vector-effect:none;fill:#000000;fill-opacity:1;fill-rule:nonzero;stroke:none;stroke-width:19.3620739;stroke-linecap:butt;stroke-linejoin:miter;stroke-miterlimit:4;stroke-dasharray:none;stroke-dashoffset:0;stroke-opacity:1;color-rendering:auto;image-rendering:auto;shape-rendering:auto;text-rendering:auto;enable-background:accumulate"
       d="m 299.94531,420.66242 -13.05664,14.29883 c 11.87481,10.84221 12.4937,25.2239 9.89649,38.78711 -2.59722,13.56322 -8.54883,24.29883 -8.54883,24.29883 l 16.88086,9.48047 c 0,0 7.4132,-13.06002 10.68359,-30.13867 3.27039,-17.07865 2.25964,-40.1867 -15.85547,-56.72657 z"
       id="path53584"
       inkscape:connector-curvature="0" />
    <path
       style="color:#000000;font-style:normal;font-variant:normal;font-weight:normal;font-stretch:normal;font-size:medium;line-height:normal;font-family:sans-serif;font-variant-ligatures:normal;font-variant-position:normal;font-variant-caps:normal;font-variant-numeric:normal;font-variant-alternates:normal;font-feature-settings:normal;text-indent:0;text-align:start;text-decoration:none;text-decoration-line:none;text-decoration-style:solid;text-decoration-color:#000000;letter-spacing:normal;word-spacing:normal;text-transform:none;writing-mode:lr-tb;direction:ltr;text-orientation:mixed;dominant-baseline:auto;baseline-shift:baseline;text-anchor:start;white-space:normal;shape-padding:0;clip-rule:nonzero;display:inline;overflow:visible;visibility:visible;opacity:1;isolation:auto;mix-blend-mode:normal;color-interpolation:sRGB;color-interpolation-filters:linearRGB;solid-color:#000000;solid-opacity:1;vector-effect:none;fill:#000000;fill-opacity:1;fill-rule:nonzero;stroke:none;stroke-width:19.3620739;stroke-linecap:butt;stroke-linejoin:miter;stroke-miterlimit:4;stroke-dasharray:none;stroke-dashoffset:0;stroke-opacity:1;color-rendering:auto;image-rendering:auto;shape-rendering:auto;text-rendering:auto;enable-background:accumulate"
       d="m 342.32227,349.59993 -13.05665,14.29883 c 6.0406,5.51533 8.00323,10.30898 8.54102,15.0664 0.5378,4.75743 -0.64962,9.84471 -2.84766,14.70703 -4.39606,9.72464 -12.27148,17.26758 -12.27148,17.26758 l 13.17383,14.1875 c 0,0 10.37904,-9.40874 16.74023,-23.48047 3.1806,-7.03586 5.49666,-15.55706 4.44532,-24.85742 -1.05135,-9.30037 -5.77025,-19.01371 -14.72461,-27.18945 z"
       id="path53586"
       inkscape:connector-curvature="0" />
    <path
       style="color:#000000;font-style:normal;font-variant:normal;font-weight:normal;font-stretch:normal;font-size:medium;line-height:normal;font-family:sans-serif;font-variant-ligatures:normal;font-variant-position:normal;font-variant-caps:normal;font-variant-numeric:normal;font-variant-alternates:normal;font-feature-settings:normal;text-indent:0;text-align:start;text-decoration:none;text-decoration-line:none;text-decoration-style:solid;text-decoration-color:#000000;letter-spacing:normal;word-spacing:normal;text-transform:none;writing-mode:lr-tb;direction:ltr;text-orientation:mixed;dominant-baseline:auto;baseline-shift:baseline;text-anchor:start;white-space:normal;shape-padding:0;clip-rule:nonzero;display:inline;overflow:visible;visibility:visible;opacity:1;isolation:auto;mix-blend-mode:normal;color-interpolation:sRGB;color-interpolation-filters:linearRGB;solid-color:#000000;solid-opacity:1;vector-effect:none;fill:#000000;fill-opacity:1;fill-rule:nonzero;stroke:none;stroke-width:19.3620739;stroke-linecap:butt;stroke-linejoin:miter;stroke-miterlimit:4;stroke-dasharray:none;stroke-dashoffset:0;stroke-opacity:1;color-rendering:auto;image-rendering:auto;shape-rendering:auto;text-rendering:auto;enable-background:accumulate"
       d="m 373.42188,307.18196 -12.48047,14.80273 c 9.04557,7.62667 7.89649,12.60635 5.71875,18.64649 -2.17775,6.04014 -6.78516,10.90039 -6.78516,10.90039 l 13.69141,13.69141 c 0,0 7.37804,-7.12372 11.30859,-18.0254 3.93055,-10.90167 3.01237,-27.81922 -11.45312,-40.01562 z"
       id="path53588"
       inkscape:connector-curvature="0" />
    <path
       style="color:#000000;font-style:normal;font-variant:normal;font-weight:normal;font-stretch:normal;font-size:medium;line-height:normal;font-family:sans-serif;font-variant-ligatures:normal;font-variant-position:normal;font-variant-caps:normal;font-variant-numeric:normal;font-variant-alternates:normal;font-feature-settings:normal;text-indent:0;text-align:start;text-decoration:none;text-decoration-line:none;text-decoration-style:solid;text-decoration-color:#000000;letter-spacing:normal;word-spacing:normal;text-transform:none;writing-mode:lr-tb;direction:ltr;text-orientation:mixed;dominant-baseline:auto;baseline-shift:baseline;text-anchor:start;white-space:normal;shape-padding:0;clip-rule:nonzero;display:inline;overflow:visible;visibility:visible;opacity:1;isolation:auto;mix-blend-mode:normal;color-interpolation:sRGB;color-interpolation-filters:linearRGB;solid-color:#000000;solid-opacity:1;vector-effect:none;fill:#000000;fill-opacity:1;fill-rule:nonzero;stroke:none;stroke-width:19.3620739;stroke-linecap:butt;stroke-linejoin:miter;stroke-miterlimit:4;stroke-dasharray:none;stroke-dashoffset:0;stroke-opacity:1;color-rendering:auto;image-rendering:auto;shape-rendering:auto;text-rendering:auto;enable-background:accumulate"
       d="m 402.86328,300.50422 c 0,0 -0.88842,2.2971 -2.56445,5.1836 -1.67604,2.88649 -4.25857,5.89084 -5.51758,6.67773 l 10.26172,16.41993 c 6.117,-3.82316 9.52701,-9.11598 12,-13.375 2.47299,-4.25903 3.89062,-7.95508 3.89062,-7.95508 z"
       id="path53590"
       inkscape:connector-curvature="0" />
    <path
       style="color:#000000;font-style:normal;font-variant:normal;font-weight:normal;font-stretch:normal;font-size:medium;line-height:normal;font-family:sans-serif;font-variant-ligatures:normal;font-variant-position:normal;font-variant-caps:normal;font-variant-numeric:normal;font-variant-alternates:normal;font-feature-settings:normal;text-indent:0;text-align:start;text-decoration:none;text-decoration-line:none;text-decoration-style:solid;text-decoration-color:#000000;letter-spacing:normal;word-spacing:normal;text-transform:none;writing-mode:lr-tb;direction:ltr;text-orientation:mixed;dominant-baseline:auto;baseline-shift:baseline;text-anchor:start;white-space:normal;shape-padding:0;clip-rule:nonzero;display:inline;overflow:visible;visibility:visible;opacity:1;isolation:auto;mix-blend-mode:normal;color-interpolation:sRGB;color-interpolation-filters:linearRGB;solid-color:#000000;solid-opacity:1;vector-effect:none;fill:#000000;fill-opacity:1;fill-rule:nonzero;stroke:none;stroke-width:19.3620739;stroke-linecap:butt;stroke-linejoin:miter;stroke-miterlimit:4;stroke-dasharray:none;stroke-dashoffset:0;stroke-opacity:1;color-rendering:auto;image-rendering:auto;shape-rendering:auto;text-rendering:auto;enable-background:accumulate"
       d="m 259.88672,312.92219 c -7.32879,5.05434 -21.27046,9.66688 -32.96875,12.39649 -11.69829,2.7296 -21.07617,3.89453 -21.07617,3.89453 l 2.38281,19.21484 c 0,0 10.34374,-1.27889 23.09375,-4.2539 12.75001,-2.97501 27.98262,-7.32774 39.56055,-15.3125 z"
       id="path53592"
       inkscape:connector-curvature="0" />
    <path
       style="color:#000000;font-style:normal;font-variant:normal;font-weight:normal;font-stretch:normal;font-size:medium;line-height:normal;font-family:sans-serif;font-variant-ligatures:normal;font-variant-position:normal;font-variant-caps:normal;font-variant-numeric:normal;font-variant-alternates:normal;font-feature-settings:normal;text-indent:0;text-align:start;text-decoration:none;text-decoration-line:none;text-decoration-style:solid;text-decoration-color:#000000;letter-spacing:normal;word-spacing:normal;text-transform:none;writing-mode:lr-tb;direction:ltr;text-orientation:mixed;dominant-baseline:auto;baseline-shift:baseline;text-anchor:start;white-space:normal;shape-padding:0;clip-rule:nonzero;display:inline;overflow:visible;visibility:visible;opacity:1;isolation:auto;mix-blend-mode:normal;color-interpolation:sRGB;color-interpolation-filters:linearRGB;solid-color:#000000;solid-opacity:1;vector-effect:none;fill:#000000;fill-opacity:1;fill-rule:nonzero;stroke:none;stroke-width:19.3620739;stroke-linecap:butt;stroke-linejoin:miter;stroke-miterlimit:4;stroke-dasharray:none;stroke-dashoffset:0;stroke-opacity:1;color-rendering:auto;image-rendering:auto;shape-rendering:auto;text-rendering:auto;enable-background:accumulate"
       d="m 260.85352,312.33626 c -14.75435,7.81111 -23.62795,6.82312 -29.18946,4.93164 -5.56151,-1.89149 -7.40039,-4.47266 -7.40039,-4.47266 l -15.22851,11.95703 c 0,0 5.90165,7.279 16.39453,10.84766 10.49288,3.56866 25.98707,3.6393 44.48242,-6.15235 z"
       id="path53594"
       inkscape:connector-curvature="0" />
    <path
       style="color:#000000;font-style:normal;font-variant:normal;font-weight:normal;font-stretch:normal;font-size:medium;line-height:normal;font-family:sans-serif;font-variant-ligatures:normal;font-variant-position:normal;font-variant-caps:normal;font-variant-numeric:normal;font-variant-alternates:normal;font-feature-settings:normal;text-indent:0;text-align:start;text-decoration:none;text-decoration-line:none;text-decoration-style:solid;text-decoration-color:#000000;letter-spacing:normal;word-spacing:normal;text-transform:none;writing-mode:lr-tb;direction:ltr;text-orientation:mixed;dominant-baseline:auto;baseline-shift:baseline;text-anchor:start;white-space:normal;shape-padding:0;clip-rule:nonzero;display:inline;overflow:visible;visibility:visible;opacity:1;isolation:auto;mix-blend-mode:normal;color-interpolation:sRGB;color-interpolation-filters:linearRGB;solid-color:#000000;solid-opacity:1;vector-effect:none;fill:#000000;fill-opacity:1;fill-rule:nonzero;stroke:none;stroke-width:40.98732758;stroke-linecap:butt;stroke-linejoin:miter;stroke-miterlimit:4;stroke-dasharray:none;stroke-dashoffset:0;stroke-opacity:1;color-rendering:auto;image-rendering:auto;shape-rendering:auto;text-rendering:auto;enable-background:accumulate"
       d="m 973.62109,-215.52116 c -157.94971,-0.0466 -266.45431,63.36764 -328.86523,158.238281 -62.41617,94.87863 -79.833,218.768989 -66.19141,341.402339 13.6416,122.63334 58.40248,244.55194 124.48243,337.14062 66.07994,92.58868 155.04652,157.08731 256.23828,156.48441 101.14404,-0.6025 189.38274,-65.77863 255.07224,-158.67972 65.6896,-92.90109 110.3649,-214.77289 125.2012,-337.10156 14.8363,-122.32867 -0.025,-245.563539 -57.6641,-340.066409 -57.6333,-94.493561 -159.7591,-157.952121 -308.27341,-157.417961 z m 0.0254,40.98633 h 0.041 0.041 c 137.16441,-0.50494 222.24041,54.26481 273.17381,137.773431 50.9334,83.50862 66.0027,198.061769 51.9668,313.791019 -14.0358,115.72924 -57.0348,232.18465 -117.9765,318.37109 -60.9417,86.18644 -138.2908,140.85964 -221.85161,141.35742 C 875.52789,737.25566 797.63749,683.24167 736.4082,597.44954 675.17891,511.6574 632.17551,395.32767 619.30078,279.58821 606.42605,163.84874 623.74037,49.241481 678.99805,-34.755539 734.25572,-118.75256 826.35653,-174.58824 973.64648,-174.53483 Z"
       id="path10-9-9"
       inkscape:connector-curvature="0" />
    <path
       style="color:#000000;font-style:normal;font-variant:normal;font-weight:normal;font-stretch:normal;font-size:medium;line-height:normal;font-family:sans-serif;font-variant-ligatures:normal;font-variant-position:normal;font-variant-caps:normal;font-variant-numeric:normal;font-variant-alternates:normal;font-feature-settings:normal;text-indent:0;text-align:start;text-decoration:none;text-decoration-line:none;text-decoration-style:solid;text-decoration-color:#000000;letter-spacing:normal;word-spacing:normal;text-transform:none;writing-mode:lr-tb;direction:ltr;text-orientation:mixed;dominant-baseline:auto;baseline-shift:baseline;text-anchor:start;white-space:normal;shape-padding:0;clip-rule:nonzero;display:inline;overflow:visible;visibility:visible;opacity:1;isolation:auto;mix-blend-mode:normal;color-interpolation:sRGB;color-interpolation-filters:linearRGB;solid-color:#000000;solid-opacity:1;vector-effect:none;fill:#000000;fill-opacity:1;fill-rule:nonzero;stroke:none;stroke-width:20.49366379;stroke-linecap:butt;stroke-linejoin:miter;stroke-miterlimit:4;stroke-dasharray:none;stroke-dashoffset:0;stroke-opacity:1;color-rendering:auto;image-rendering:auto;shape-rendering:auto;text-rendering:auto;enable-background:accumulate"
       d="m 958.60352,487.04722 c -21.38083,-0.57793 -41.25476,2.73945 -59.13475,8.38672 -28.608,9.03562 -52.1524,23.62907 -69.5489,36.87109 -17.3964,13.24202 -29.1027,25.60552 -32.3476,28.82032 l 14.4238,14.55859 c 4.2107,-4.17162 14.2716,-14.84269 30.3379,-27.07227 16.0664,-12.22957 37.6789,-25.5424 63.3066,-33.63672 51.25546,-16.18862 118.41623,-13.14228 196.43173,63.66016 l 14.3789,-14.60351 c -56.473,-55.59489 -110.8099,-75.71293 -157.84768,-76.98438 z"
       id="path29-8"
       inkscape:connector-curvature="0" />
    <path
       style="color:#000000;font-style:normal;font-variant:normal;font-weight:normal;font-stretch:normal;font-size:medium;line-height:normal;font-family:sans-serif;font-variant-ligatures:normal;font-variant-position:normal;font-variant-caps:normal;font-variant-numeric:normal;font-variant-alternates:normal;font-feature-settings:normal;text-indent:0;text-align:start;text-decoration:none;text-decoration-line:none;text-decoration-style:solid;text-decoration-color:#000000;letter-spacing:normal;word-spacing:normal;text-transform:none;writing-mode:lr-tb;direction:ltr;text-orientation:mixed;dominant-baseline:auto;baseline-shift:baseline;text-anchor:start;white-space:normal;shape-padding:0;clip-rule:nonzero;display:inline;overflow:visible;visibility:visible;opacity:1;isolation:auto;mix-blend-mode:normal;color-interpolation:sRGB;color-interpolation-filters:linearRGB;solid-color:#000000;solid-opacity:1;vector-effect:none;fill:#000000;fill-opacity:1;fill-rule:nonzero;stroke:none;stroke-width:20.49366379;stroke-linecap:butt;stroke-linejoin:miter;stroke-miterlimit:4;stroke-dasharray:none;stroke-dashoffset:0;stroke-opacity:1;color-rendering:auto;image-rendering:auto;shape-rendering:auto;text-rendering:auto;enable-background:accumulate"
       d="m 951.69531,278.11165 c 0,0 -2.31129,22.8109 -6.13476,46.77148 -1.91174,11.98029 -4.21481,24.24924 -6.68946,33.78125 -1.23732,4.76601 -2.53262,8.8575 -3.69336,11.67969 -1.16073,2.82219 -2.66069,4.29764 -1.58398,3.40039 -2.26777,1.88977 -4.66752,3.46715 -5.92383,8.49219 -0.62815,2.51252 -0.26989,6.25542 1.33399,8.86913 1.60388,2.61372 3.68879,3.89275 5.26562,4.63477 6.30732,2.9681 9.54548,1.82897 13.83399,1.5332 8.57702,-0.59153 17.86718,-2.5039 17.86718,-2.5039 l -4.01953,-20.0957 c 0,0 -3.16138,0.55144 -6.98242,1.1289 1.35755,-3.64124 2.59517,-7.58711 3.73828,-11.99023 2.76548,-10.65225 5.12197,-23.35487 7.0918,-35.69922 3.93966,-24.6887 6.28515,-47.93945 6.28515,-47.93945 z"
       id="path971-3"
       inkscape:connector-curvature="0" />
    <path
       style="color:#000000;font-style:normal;font-variant:normal;font-weight:normal;font-stretch:normal;font-size:medium;line-height:normal;font-family:sans-serif;font-variant-ligatures:normal;font-variant-position:normal;font-variant-caps:normal;font-variant-numeric:normal;font-variant-alternates:normal;font-feature-settings:normal;text-indent:0;text-align:start;text-decoration:none;text-decoration-line:none;text-decoration-style:solid;text-decoration-color:#000000;letter-spacing:normal;word-spacing:normal;text-transform:none;writing-mode:lr-tb;direction:ltr;text-orientation:mixed;dominant-baseline:auto;baseline-shift:baseline;text-anchor:start;white-space:normal;shape-padding:0;clip-rule:nonzero;display:inline;overflow:visible;visibility:visible;opacity:1;isolation:auto;mix-blend-mode:normal;color-interpolation:sRGB;color-interpolation-filters:linearRGB;solid-color:#000000;solid-opacity:1;vector-effect:none;fill:#000000;fill-opacity:1;fill-rule:nonzero;stroke:none;stroke-width:20.51024437;stroke-linecap:butt;stroke-linejoin:miter;stroke-miterlimit:4;stroke-dasharray:none;stroke-dashoffset:0;stroke-opacity:1;color-rendering:auto;image-rendering:auto;shape-rendering:auto;text-rendering:auto;enable-background:accumulate"
       d="m 823.02905,110.61735 c -20.3602,0.19414 -36.821,8.38137 -47.4249,20.62905 -10.6323,12.28087 -15.5798,28.12858 -15.4365,43.7356 0.1426,15.60701 5.3694,31.26918 16.1317,43.17805 10.7302,11.87294 27.1987,19.47094 47.1338,18.85028 19.5518,-0.0511 35.4615,-8.35027 45.561,-20.60725 10.1311,-12.29481 14.7857,-28.04058 14.6851,-43.56643 -0.1006,-15.52579 -4.9519,-31.12394 -15.1923,-43.1154 -10.2137,-11.96024 -26.1849,-19.76926 -45.4579,-19.1039 z m 0.6108,20.48818 c 13.7533,-0.50589 22.7268,4.29577 29.2509,11.93523 6.5235,7.6395 10.2053,18.67004 10.2784,29.92746 0.072,11.25743 -3.4595,22.44614 -10.0061,30.39091 -6.5464,7.94485 -15.7485,13.15983 -29.9023,13.15983 h -0.1722 l -0.1724,0.006 c -14.7212,0.49447 -24.4869,-4.46808 -31.3994,-12.11696 -6.9125,-7.6489 -10.7403,-18.5168 -10.8422,-29.61425 -0.1011,-11.09744 3.5152,-22.13202 10.4352,-30.12474 6.9199,-7.99267 16.9484,-13.44438 32.2292,-13.55757 h 0.1507 z"
       id="path87-11-5-1"
       inkscape:connector-curvature="0" />
    <path
       style="color:#000000;font-style:normal;font-variant:normal;font-weight:normal;font-stretch:normal;font-size:medium;line-height:normal;font-family:sans-serif;font-variant-ligatures:normal;font-variant-position:normal;font-variant-caps:normal;font-variant-numeric:normal;font-variant-alternates:normal;font-feature-settings:normal;text-indent:0;text-align:start;text-decoration:none;text-decoration-line:none;text-decoration-style:solid;text-decoration-color:#000000;letter-spacing:normal;word-spacing:normal;text-transform:none;writing-mode:lr-tb;direction:ltr;text-orientation:mixed;dominant-baseline:auto;baseline-shift:baseline;text-anchor:start;white-space:normal;shape-padding:0;clip-rule:nonzero;display:inline;overflow:visible;visibility:visible;opacity:1;isolation:auto;mix-blend-mode:normal;color-interpolation:sRGB;color-interpolation-filters:linearRGB;solid-color:#000000;solid-opacity:1;vector-effect:none;fill:#000000;fill-opacity:1;fill-rule:nonzero;stroke:none;stroke-width:25.45167351;stroke-linecap:butt;stroke-linejoin:miter;stroke-miterlimit:4;stroke-dasharray:none;stroke-dashoffset:0;stroke-opacity:1;color-rendering:auto;image-rendering:auto;shape-rendering:auto;text-rendering:auto;enable-background:accumulate"
       d="m 721.02625,43.340141 -11.5969,22.65539 c 0,0 51.3315,26.28107 103.1612,52.570279 25.9149,13.14463 51.9511,26.28842 71.7934,36.16916 9.9213,4.94032 18.2841,9.06094 24.3715,11.98531 3.0438,1.46225 5.504,2.62107 7.4099,3.47629 0.9529,0.42763 1.7489,0.7726 2.5651,1.09613 0.408,0.16179 0.8046,0.31701 1.406,0.51053 0.6016,0.19347 0.5521,0.68897 4.2248,0.68897 v -25.45209 c 3.5524,0 3.2827,0.44307 3.5703,0.53553 0.2874,0.0924 0.2752,0.0966 0.1816,0.0594 -0.1867,-0.0742 -0.7626,-0.31869 -1.5254,-0.66087 -1.5246,-0.6843 -3.87,-1.78278 -6.8083,-3.1944 -5.877,-2.82326 -14.1834,-6.91602 -24.0489,-11.8288 -19.7317,-9.82549 -45.7408,-22.95429 -71.6275,-36.084489 -51.773,-26.26048 -103.0768,-52.52656 -103.0768,-52.52656 z"
       id="path1039-4"
       inkscape:connector-curvature="0" />
    <path
       style="color:#000000;font-style:normal;font-variant:normal;font-weight:normal;font-stretch:normal;font-size:medium;line-height:normal;font-family:sans-serif;font-variant-ligatures:normal;font-variant-position:normal;font-variant-caps:normal;font-variant-numeric:normal;font-variant-alternates:normal;font-feature-settings:normal;text-indent:0;text-align:start;text-decoration:none;text-decoration-line:none;text-decoration-style:solid;text-decoration-color:#000000;letter-spacing:normal;word-spacing:normal;text-transform:none;writing-mode:lr-tb;direction:ltr;text-orientation:mixed;dominant-baseline:auto;baseline-shift:baseline;text-anchor:start;white-space:normal;shape-padding:0;clip-rule:nonzero;display:inline;overflow:visible;visibility:visible;opacity:1;isolation:auto;mix-blend-mode:normal;color-interpolation:sRGB;color-interpolation-filters:linearRGB;solid-color:#000000;solid-opacity:1;vector-effect:none;fill:#000000;fill-opacity:1;fill-rule:nonzero;stroke:none;stroke-width:20.51024437;stroke-linecap:butt;stroke-linejoin:miter;stroke-miterlimit:4;stroke-dasharray:none;stroke-dashoffset:0;stroke-opacity:1;color-rendering:auto;image-rendering:auto;shape-rendering:auto;text-rendering:auto;enable-background:accumulate"
       d="m 1093.5252,115.10519 c -19.2716,-0.66439 -35.2417,7.14126 -45.455,19.10084 -10.2401,11.99138 -15.0915,27.58956 -15.1922,43.11541 -0.1007,15.52585 4.5542,31.27156 14.685,43.56634 10.0996,12.25707 26.0063,20.55619 45.558,20.60725 19.935,0.62066 36.4069,-6.97726 47.1367,-18.85028 10.7626,-11.90878 15.989,-27.57101 16.1317,-43.17804 0.143,-15.60705 -4.804,-31.45475 -15.4364,-43.73552 -10.604,-12.24779 -27.0677,-20.43193 -47.4278,-20.626 z m -0.6075,20.48509 0.1509,0.006 h 0.1511 c 15.2806,0.11311 25.3091,5.56797 32.2291,13.56065 6.9198,7.99264 10.5339,19.02409 10.4317,30.12157 -0.1005,11.09748 -3.9263,21.96536 -10.8389,29.6142 -6.9123,7.64897 -16.6812,12.61148 -31.4024,12.11696 l -0.1722,-0.006 h -0.1725 c -14.1539,0 -23.3558,-5.21498 -29.9024,-13.15975 -6.5465,-7.94484 -10.0756,-19.13353 -10.0028,-30.39095 0.072,-11.25743 3.7545,-22.28792 10.2785,-29.92744 6.5238,-7.63947 15.4974,-12.44126 29.251,-11.93524 z"
       id="path87-11-5-8-6"
       inkscape:connector-curvature="0" />
    <path
       style="color:#000000;font-style:normal;font-variant:normal;font-weight:normal;font-stretch:normal;font-size:medium;line-height:normal;font-family:sans-serif;font-variant-ligatures:normal;font-variant-position:normal;font-variant-caps:normal;font-variant-numeric:normal;font-variant-alternates:normal;font-feature-settings:normal;text-indent:0;text-align:start;text-decoration:none;text-decoration-line:none;text-decoration-style:solid;text-decoration-color:#000000;letter-spacing:normal;word-spacing:normal;text-transform:none;writing-mode:lr-tb;direction:ltr;text-orientation:mixed;dominant-baseline:auto;baseline-shift:baseline;text-anchor:start;white-space:normal;shape-padding:0;clip-rule:nonzero;display:inline;overflow:visible;visibility:visible;opacity:1;isolation:auto;mix-blend-mode:normal;color-interpolation:sRGB;color-interpolation-filters:linearRGB;solid-color:#000000;solid-opacity:1;vector-effect:none;fill:#000000;fill-opacity:1;fill-rule:nonzero;stroke:none;stroke-width:25.45167351;stroke-linecap:butt;stroke-linejoin:miter;stroke-miterlimit:4;stroke-dasharray:none;stroke-dashoffset:0;stroke-opacity:1;color-rendering:auto;image-rendering:auto;shape-rendering:auto;text-rendering:auto;enable-background:accumulate"
       d="m 1195.5277,47.824831 c 0,0 -51.3035,26.26604 -103.0769,52.526499 -25.8862,13.13025 -51.8925,26.26216 -71.624,36.08769 -9.8658,4.91275 -18.1721,9.00234 -24.04905,11.8256 -2.9385,1.41166 -5.2837,2.5101 -6.8083,3.19448 -0.7628,0.34213 -1.3384,0.58663 -1.5253,0.66077 -0.092,0.0369 -0.1055,0.033 0.1815,-0.0593 0.2876,-0.0925 0.018,-0.53555 3.5703,-0.53555 v 25.45206 c 3.6732,0 3.62,-0.49233 4.2219,-0.68585 0.6014,-0.19353 0.998,-0.34871 1.406,-0.51045 0.8161,-0.32362 1.6121,-0.67169 2.56485,-1.09926 1.9056,-0.85528 4.3659,-2.01414 7.41,-3.47634 6.0871,-2.92433 14.4503,-7.04505 24.3715,-11.98534 19.8424,-9.88064 45.8784,-23.02444 71.7931,-36.16909 51.8302,-26.289309 103.1645,-52.570269 103.1645,-52.570269 z"
       id="path1039-1-4"
       inkscape:connector-curvature="0" />
    <path
       style="font-style:normal;font-weight:normal;font-size:233.33332825px;line-height:1.25;font-family:sans-serif;letter-spacing:0px;word-spacing:0px;fill:#000000;fill-opacity:1;stroke:none"
       d="m 713.87888,852.19785 v 177.27935 h 21.4199 V 852.19785 Z m 245.0684,0 c -13.444,15.4189 -23.8865,32.2435 -31.3301,50.4727 -7.4436,18.2292 -11.166,38.7743 -11.166,61.6367 0,22.8624 3.7224,43.40765 11.166,61.63675 7.4436,18.2292 17.8861,35.0539 31.3301,50.4727 h 26.0918 v -1.1387 c -5.8485,-5.2409 -11.6984,-11.6603 -17.5469,-19.2558 -5.8485,-7.5196 -11.0501,-15.9506 -15.6074,-25.293 -4.7092,-9.7222 -8.469,-19.9761 -11.2793,-30.76175 -2.7344,-10.7856 -4.1016,-22.6719 -4.1016,-35.6602 0,-12.4566 1.4045,-24.3055 4.2149,-35.5468 2.8862,-11.2414 6.6087,-21.5326 11.166,-30.875 4.7851,-9.6463 9.9494,-18.0773 15.4941,-25.293 5.6207,-7.2917 11.5078,-13.7112 17.6602,-19.2559 v -1.1387 z m 200.17972,0 v 1.1387 c 6.1523,5.5447 12.0002,11.9642 17.5449,19.2559 5.6206,7.2157 10.8242,15.6467 15.6093,25.293 4.6333,9.3424 8.3557,19.6336 11.1661,30.875 2.8103,11.2413 4.2148,23.0902 4.2148,35.5468 0,12.9883 -1.4045,24.8746 -4.2148,35.6602 -2.7344,10.78565 -6.4568,21.03955 -11.1661,30.76175 -4.4813,9.3424 -9.6848,17.7734 -15.6093,25.293 -5.8485,7.5955 -11.6964,14.0149 -17.5449,19.2558 v 1.1387 h 26.0898 c 13.444,-15.4188 23.8885,-32.2435 31.332,-50.4727 7.4436,-18.2291 11.166,-38.77435 11.166,-61.63675 0,-22.8624 -3.7224,-43.4075 -11.166,-61.6367 -7.4435,-18.2292 -17.888,-35.0538 -31.332,-50.4727 z M 165.75195,859.83075 104,1029.4772 h 22.90039 l 16.63477,-47.28325 h 73.37109 l 16.63477,47.28325 h 24.03906 l -61.75,-169.64645 z m 14.46875,19.7109 29.73633,83.2852 h -59.58594 z m 148.91016,19.1406 c -7.51953,0 -14.65994,1.5185 -21.41992,4.5567 -6.75998,3.0382 -12.64714,7.3303 -17.66016,12.875 -5.16493,5.6966 -9.34114,12.7604 -12.53125,21.1914 -3.11415,8.355 -4.67187,18.0019 -4.67187,28.9394 0,20.5078 4.48068,36.60965 13.44336,48.30675 9.03862,11.6211 21.11545,17.4316 36.23046,17.4316 7.59549,0 14.65929,-1.3672 21.19141,-4.1016 6.53212,-2.8103 13.10287,-7.0631 19.71094,-12.7597 v 61.2949 h 21.41992 V 902.21355 h -20.05273 l -1.36719,5.4687 c -5.46875,-2.9622 -10.8609,-5.2016 -16.17774,-6.7207 -5.24088,-1.5191 -11.27929,-2.2793 -18.11523,-2.2793 z m 298.38867,0 c -18.53298,0 -33.49739,6.115 -44.89062,18.3438 -11.31728,12.2287 -16.97461,28.7489 -16.97461,49.5605 0,21.0395 5.92448,37.29265 17.77343,48.76175 11.84896,11.3933 28.32987,17.0899 49.44532,17.0899 8.27908,0 16.17968,-1.0254 23.69922,-3.0762 7.51953,-2.0508 14.88585,-4.5946 22.10156,-7.6328 v -23.35555 h -1.13867 c -3.72179,3.34205 -9.98807,6.76005 -18.79883,10.25395 -8.73481,3.418 -17.43099,5.127 -26.08985,5.127 -6.53211,0 -12.5332,-0.9115 -18.00195,-2.7344 -5.39279,-1.8229 -10.06402,-4.5573 -14.01367,-8.2031 -4.10156,-3.72185 -7.32899,-8.46965 -9.68359,-14.24225 -2.35461,-5.8485 -3.53321,-12.6845 -3.53321,-20.5078 h 93.76758 v -11.6211 c 0,-18.457 -4.67122,-32.6986 -14.01367,-42.7246 -9.26649,-10.0261 -22.48264,-15.0391 -39.64844,-15.0391 z m 203.25395,0 c -18.533,0 -33.4955,6.115 -44.8887,18.3438 -11.3173,12.2287 -16.9766,28.7489 -16.9766,49.5605 0,21.0395 5.9245,37.29265 17.7735,48.76175 11.8489,11.3933 28.3318,17.0899 49.4472,17.0899 8.2791,0 16.1778,-1.0254 23.6973,-3.0762 7.5195,-2.0508 14.8878,-4.5946 22.1035,-7.6328 v -23.35555 h -1.1387 c -3.7218,3.34205 -9.988,6.76005 -18.7988,10.25395 -8.7348,3.418 -17.4329,5.127 -26.0918,5.127 -6.5321,0 -12.5312,-0.9115 -18,-2.7344 -5.3928,-1.8229 -10.064,-4.5573 -14.0137,-8.2031 -4.1015,-3.72185 -7.3309,-8.46965 -9.6855,-14.24225 -2.3546,-5.8485 -3.5313,-12.6845 -3.5313,-20.5078 h 93.7657 v -11.6211 c 0,-18.457 -4.6713,-32.6986 -14.0137,-42.7246 -9.2665,-10.0261 -22.4826,-15.0391 -39.6484,-15.0391 z m 235.83982,0.4551 c -7.6715,0 -15.4562,0.6836 -23.3555,2.0508 -7.8993,1.3672 -13.9377,2.6204 -18.1152,3.7597 v 21.7618 h 1.1387 c 7.3676,-2.8104 14.508,-4.9377 21.4199,-6.3809 6.9119,-1.5191 13.1781,-2.2773 18.7988,-2.2773 4.6332,0 9.0766,0.3025 13.3301,0.9101 4.2534,0.6077 7.8993,1.7863 10.9375,3.5332 3.1901,1.8229 5.62,4.3295 7.291,7.5196 1.747,3.1901 2.6211,7.215 2.6211,12.0761 v 3.3047 c -12.4566,0.6077 -24.115,1.5191 -34.9766,2.7344 -10.8615,1.2153 -20.1666,3.5312 -27.914,6.9492 -7.6715,3.418 -13.596,8.1265 -17.7735,14.127 -4.1015,5.9244 -6.1523,13.7111 -6.1523,23.3574 0,11.77305 3.9876,21.45725 11.9629,29.05275 7.9752,7.5955 17.6968,11.3926 29.166,11.3926 6.2283,0 11.6597,-0.607 16.293,-1.8223 4.6332,-1.1393 8.7348,-2.5831 12.3046,-4.33 3.0382,-1.3672 6.1517,-3.1902 9.3418,-5.4688 3.2661,-2.3546 5.8492,-4.1775 7.7481,-5.4687 v 13.5585 h 21.3047 v -86.36135 c 0,-8.2031 -1.2533,-15.0764 -3.7598,-20.6211 -2.5065,-5.5447 -6.1523,-10.06459 -10.9375,-13.5586 -4.8611,-3.5698 -10.6324,-6.0764 -17.3164,-7.5195 -6.6081,-1.5191 -14.3947,-2.2793 -23.3574,-2.2793 z m -640.52736,3.0762 v 82.6015 c 0,15.79865 3.72244,27.79895 11.16601,36.00205 7.44358,8.1272 17.84874,12.1914 31.2168,12.1914 7.97526,0 15.26693,-1.5184 21.875,-4.5566 6.60807,-3.0382 13.52062,-7.4069 20.73633,-13.1036 v 14.1289 H 532.5 V 902.21355 h -21.41992 v 95.0195 c -5.69662,4.48135 -11.84896,8.16655 -18.45703,11.05275 -6.53212,2.8863 -12.57053,4.3282 -18.11524,4.3282 -6.2283,0 -10.97613,-0.7583 -14.24219,-2.2774 -3.26605,-1.5191 -5.92382,-3.9509 -7.9746,-7.2929 -1.97483,-3.26615 -3.26541,-7.17715 -3.87305,-11.73445 -0.60764,-4.6333 -0.91211,-10.1786 -0.91211,-16.6348 v -72.4609 z m 200.29297,14.1289 c 11.39323,0 19.86349,3.0762 25.4082,9.2285 5.62066,6.1523 8.46897,14.8485 8.54492,26.0898 h -72.91797 c 0.91146,-10.026 4.74783,-18.4197 11.50782,-25.1796 6.83593,-6.76 15.98784,-10.1387 27.45703,-10.1387 z m 203.25587,0 c 11.3932,0 19.8615,3.0762 25.4062,9.2285 5.6207,6.1523 8.469,14.8485 8.545,26.0898 h -72.9161 c 0.9115,-10.026 4.7479,-18.4197 11.5078,-25.1796 6.836,-6.76 15.9879,-10.1387 27.4571,-10.1387 z m -496.74416,1.5937 c 5.31685,0 10.25326,0.5324 14.81055,1.5957 4.55729,1.0634 9.79818,2.9236 15.72266,5.5821 v 72.0058 c -5.3928,4.25355 -11.20334,7.74815 -17.43164,10.48245 -6.2283,2.6585 -12.45725,3.9864 -18.68555,3.9864 -11.16536,0 -19.36849,-3.9877 -24.60937,-11.96295 -5.16493,-8.0512 -7.7461,-19.5191 -7.7461,-34.4063 0,-14.7352 3.22743,-26.2816 9.6836,-34.6367 6.45616,-8.431 15.87521,-12.6465 28.25585,-12.6465 z m 767.78908,44.7754 v 35.4336 c -5.3168,4.10165 -11.0901,7.63355 -17.3184,10.59575 -6.2283,2.8863 -13.1015,4.3301 -20.6211,4.3301 -9.0386,0 -15.7606,-1.8229 -20.166,-5.4688 -4.4054,-3.7217 -6.6074,-9.22985 -6.6074,-16.52145 0,-6.4562 1.8976,-11.5065 5.6953,-15.1524 3.7978,-3.7218 8.7735,-6.4561 14.9258,-8.2031 5.1649,-1.4431 12.1521,-2.5451 20.9629,-3.3047 8.8867,-0.7595 16.5968,-1.3292 23.1289,-1.709 z"
       id="text3460"
       inkscape:connector-curvature="0" />
  </g>
</svg>
