<?xml version="1.0" encoding="UTF-8" standalone="no"?>
<!-- Created with Inkscape (http://www.inkscape.org/) -->

<svg
   xmlns:dc="http://purl.org/dc/elements/1.1/"
   xmlns:cc="http://creativecommons.org/ns#"
   xmlns:rdf="http://www.w3.org/1999/02/22-rdf-syntax-ns#"
   xmlns:svg="http://www.w3.org/2000/svg"
   xmlns="http://www.w3.org/2000/svg"
   xmlns:sodipodi="http://sodipodi.sourceforge.net/DTD/sodipodi-0.dtd"
   xmlns:inkscape="http://www.inkscape.org/namespaces/inkscape"
   width="1000"
   height="1250"
   viewBox="0 0 1000 1250"
   version="1.1"
   id="svg28529"
   inkscape:version="0.92.4 (5da689c313, 2019-01-14)"
   sodipodi:docname="Experiência.svg">
  <defs
     id="defs28523" />
  <sodipodi:namedview
     id="base"
     pagecolor="#ffffff"
     bordercolor="#666666"
     borderopacity="1.0"
     inkscape:pageopacity="0.0"
     inkscape:pageshadow="2"
     inkscape:zoom="1"
     inkscape:cx="858.66118"
     inkscape:cy="544.9595"
     inkscape:document-units="px"
     inkscape:current-layer="layer1"
     showgrid="false"
     units="px"
     inkscape:window-width="681"
     inkscape:window-height="706"
     inkscape:window-x="-7"
     inkscape:window-y="0"
     inkscape:window-maximized="0" />
  <metadata
     id="metadata28526">
    <rdf:RDF>
      <cc:Work
         rdf:about="">
        <dc:format>image/svg+xml</dc:format>
        <dc:type
           rdf:resource="http://purl.org/dc/dcmitype/StillImage" />
        <dc:title></dc:title>
      </cc:Work>
    </rdf:RDF>
  </metadata>
  <g
     inkscape:label="Camada 1"
     inkscape:groupmode="layer"
     id="layer1"
     transform="translate(0,217.58335)">
    <path
       style="color:#000000;font-style:normal;font-variant:normal;font-weight:normal;font-stretch:normal;font-size:medium;line-height:normal;font-family:sans-serif;font-variant-ligatures:normal;font-variant-position:normal;font-variant-caps:normal;font-variant-numeric:normal;font-variant-alternates:normal;font-feature-settings:normal;text-indent:0;text-align:start;text-decoration:none;text-decoration-line:none;text-decoration-style:solid;text-decoration-color:#000000;letter-spacing:normal;word-spacing:normal;text-transform:none;writing-mode:lr-tb;direction:ltr;text-orientation:mixed;dominant-baseline:auto;baseline-shift:baseline;text-anchor:start;white-space:normal;shape-padding:0;clip-rule:nonzero;display:inline;overflow:visible;visibility:visible;opacity:1;isolation:auto;mix-blend-mode:normal;color-interpolation:sRGB;color-interpolation-filters:linearRGB;solid-color:#000000;solid-opacity:1;vector-effect:none;fill:#000000;fill-opacity:1;fill-rule:nonzero;stroke:none;stroke-width:34.51847458;stroke-linecap:butt;stroke-linejoin:miter;stroke-miterlimit:4;stroke-dasharray:none;stroke-dashoffset:0;stroke-opacity:1;color-rendering:auto;image-rendering:auto;shape-rendering:auto;text-rendering:auto;enable-background:accumulate"
       d="m 908.49502,-217.16816 c -133.00233,-0.0298 -224.36961,53.3785 -276.92589,133.26918 -52.56531,79.90435 -67.2369,184.24184 -55.74838,287.52042 1.81232,16.29222 4.27682,32.56933 7.36109,48.73675 0,0 4.6731,3.44795 17.92681,8.79595 l 76.5409,189.19837 -18.51657,4.34663 c 6.83405,11.35957 14.01507,22.32876 21.52295,32.84849 55.65077,77.97574 130.5745,132.29964 215.79559,131.79197 85.18091,-0.50747 159.49498,-55.39717 214.81698,-133.63618 55.3221,-78.2389 92.9427,-180.87589 105.4374,-283.89793 12.4947,-103.02206 -0.018,-206.81286 -48.56,-286.40075 -48.5332,-79.57338 -134.5271,-133.0137 -259.58501,-132.5729 z m 0.0567,34.52164 h 0.0305 0.0382 c 115.51628,-0.42528 187.16478,45.70307 230.05968,116.03188 42.8949,70.32881 55.5819,166.79717 43.7613,264.26132 -11.8208,97.46426 -48.0262,195.5445 -99.3496,268.12851 -51.3236,72.58398 -116.47131,118.62353 -186.84414,119.04274 -70.3326,0.41909 -135.9275,-45.069 -187.49326,-117.32089 -5.20612,-7.29463 -10.25583,-14.85144 -15.13878,-22.64341 l -15.9644,5.49888 -76.5409,-189.19837 c 0,0 12.36472,4.52762 20.70826,6.9844 -5.20638,-22.58086 -9.14598,-45.47272 -11.6894,-68.33717 -10.84273,-97.47274 3.73571,-193.99165 50.27234,-264.7318 46.53655,-70.74016 124.10931,-117.76091 248.15311,-117.71609 z"
       id="path10-9-5"
       inkscape:connector-curvature="0"
       sodipodi:nodetypes="cssccccssssccccccssscsccccsscc" />
    <path
       style="color:#000000;font-style:normal;font-variant:normal;font-weight:normal;font-stretch:normal;font-size:medium;line-height:normal;font-family:sans-serif;font-variant-ligatures:normal;font-variant-position:normal;font-variant-caps:normal;font-variant-numeric:normal;font-variant-alternates:normal;font-feature-settings:normal;text-indent:0;text-align:start;text-decoration:none;text-decoration-line:none;text-decoration-style:solid;text-decoration-color:#000000;letter-spacing:normal;word-spacing:normal;text-transform:none;writing-mode:lr-tb;direction:ltr;text-orientation:mixed;dominant-baseline:auto;baseline-shift:baseline;text-anchor:start;white-space:normal;shape-padding:0;clip-rule:nonzero;display:inline;overflow:visible;visibility:visible;opacity:1;isolation:auto;mix-blend-mode:normal;color-interpolation:sRGB;color-interpolation-filters:linearRGB;solid-color:#000000;solid-opacity:1;vector-effect:none;fill:#000000;fill-opacity:1;fill-rule:nonzero;stroke:none;stroke-width:17.25923729;stroke-linecap:butt;stroke-linejoin:miter;stroke-miterlimit:4;stroke-dasharray:none;stroke-dashoffset:0;stroke-opacity:1;color-rendering:auto;image-rendering:auto;shape-rendering:auto;text-rendering:auto;enable-background:accumulate"
       d="m 890.06234,198.5599 c 0,0 -1.94599,19.20966 -5.16602,39.38867 -1.61001,10.08951 -3.55069,20.42158 -5.63477,28.44922 -1.04203,4.01382 -2.13378,7.46109 -3.11132,9.83789 -0.97755,2.3768 -2.24072,3.61891 -1.33399,2.86328 -1.90985,1.59154 -3.93027,2.92039 -4.98828,7.15235 -0.529,2.11597 -0.22574,5.26755 1.125,7.46875 1.35074,2.20119 3.10563,3.27742 4.43359,3.90234 5.31187,2.49968 8.03871,1.5401 11.6504,1.29102 7.22336,-0.49818 15.04687,-2.10743 15.04687,-2.10743 l -3.38477,-16.92382 c 0,0 -2.70685,0.46898 -5.96093,0.95898 1.16194,-3.098 2.25308,-6.3482 3.22851,-10.10547 2.32901,-8.97106 4.31372,-19.6703 5.97266,-30.06641 3.31788,-20.7922 5.29492,-40.37304 5.29492,-40.37304 z"
       id="path971-8"
       inkscape:connector-curvature="0" />
    <path
       style="color:#000000;font-style:normal;font-variant:normal;font-weight:normal;font-stretch:normal;font-size:medium;line-height:normal;font-family:sans-serif;font-variant-ligatures:normal;font-variant-position:normal;font-variant-caps:normal;font-variant-numeric:normal;font-variant-alternates:normal;font-feature-settings:normal;text-indent:0;text-align:start;text-decoration:none;text-decoration-line:none;text-decoration-style:solid;text-decoration-color:#000000;letter-spacing:normal;word-spacing:normal;text-transform:none;writing-mode:lr-tb;direction:ltr;text-orientation:mixed;dominant-baseline:auto;baseline-shift:baseline;text-anchor:start;white-space:normal;shape-padding:0;clip-rule:nonzero;display:inline;overflow:visible;visibility:visible;opacity:1;isolation:auto;mix-blend-mode:normal;color-interpolation:sRGB;color-interpolation-filters:linearRGB;solid-color:#000000;solid-opacity:1;vector-effect:none;fill:#000000;fill-opacity:1;fill-rule:nonzero;stroke:none;stroke-width:12.74606895;stroke-linecap:butt;stroke-linejoin:miter;stroke-miterlimit:4;stroke-dasharray:none;stroke-dashoffset:0;stroke-opacity:1;color-rendering:auto;image-rendering:auto;shape-rendering:auto;text-rendering:auto;enable-background:accumulate"
       d="m 379.8807,205.19276 c -4.2087,-0.3917 -8.89189,-0.31562 -13.73716,0.17865 h -0.0382 c -0.0114,-0.001 -1.46263,-0.13808 -3.94899,-0.23107 l 2.34289,7.04554 -98.05489,86.80846 -1.92898,-9.77095 c -0.67065,0.97695 -1.34711,1.88975 -2.02241,2.7118 l -0.30107,0.36727 -0.24473,0.41382 c 0,0 -7.84221,13.15187 -16.30581,28.37752 -8.46358,15.22575 -17.42845,31.77958 -20.38933,41.7196 l 0.47982,-1.16675 c -36.91254,69.48036 -41.03291,136.97634 -41.03291,136.97634 l -0.0103,0.12239 v 0.12205 c -1.0325,44.65537 22.47199,72.03635 45.71835,87.14623 9.64184,6.26706 19.27529,10.58557 27.24889,13.4939 l 1.78765,-6.74354 122.02243,-14.8016 -1.6204,7.96435 c 13.46569,-6.48084 27.8345,-14.89088 42.84392,-25.75978 l 1.21376,-0.8845 0.69627,-1.33604 c 0,0 -0.0382,-0.0793 1.20436,-1.47724 1.24394,-1.39834 3.51831,-3.62606 7.39547,-6.46396 7.75441,-5.67589 21.91518,-13.75229 46.76278,-22.26172 l 0.085,-0.0306 0.0752,-0.0306 c 0,0 31.46258,-11.72855 67.83898,-26.50513 35.75679,-14.52488 75.58986,-31.67571 96.53637,-44.3917 2.09845,-0.17599 25.63687,-2.22626 47.73193,-11.31904 11.54619,-4.75162 22.6949,-11.35981 29.31848,-21.67838 5.97626,-9.31025 6.87299,-21.72541 1.23253,-35.21788 2.86916,-3.05819 6.88611,-7.94632 9.82301,-16.10821 4.1658,-11.57702 3.32873,-28.21663 -10.94265,-44.37291 0.019,-3.123 -0.33168,-8.48896 -4.27173,-15.54365 -5.39955,-9.66792 -17.07935,-20.42251 -39.91297,-27.36143 -0.0548,9.9e-4 -0.38332,-0.19892 -0.49867,-0.24484 -0.40714,-0.16176 -0.87007,-0.33705 -1.43962,-0.54574 -1.13903,-0.41764 -2.66461,-0.95809 -4.49748,-1.59012 -3.66573,-1.26409 -8.55822,-2.89637 -13.86887,-4.601 -10.62133,-3.40933 -22.67031,-7.06323 -30.30642,-8.59043 l 0.46103,0.11243 c 0,0 -8.82535,-2.46635 -19.16612,-6.15348 -10.34078,-3.68707 -22.3735,-8.98867 -27.08856,-12.78685 l -1.30786,-1.04438 -1.64653,-0.28232 c 2.20334,0.36727 0.98825,0.29074 0.29152,-0.0662 -0.69658,-0.35694 -1.76961,-0.93709 -3.13325,-1.63716 -2.72726,-1.40027 -6.63111,-3.31441 -11.64831,-5.33493 -10.03439,-4.04101 -24.57814,-8.53829 -43.75192,-10.68862 -0.19014,-0.0306 -25.77721,-3.71202 -53.16081,-8.2329 -13.74271,-2.26881 -27.89412,-4.74872 -39.33915,-7.04734 -5.7225,-1.14934 -10.76868,-2.25041 -14.69689,-3.24616 -3.92814,-0.99561 -6.93574,-2.05179 -7.51778,-2.34282 l -2.85087,-1.42072 -0.92212,0.46101 c -0.3049,-0.09 -0.42203,-0.11584 -0.80919,-0.23526 -1.96114,-0.60224 -4.86288,-1.51412 -8.38337,-2.37112 -3.5206,-0.85698 -7.68407,-1.6763 -12.31641,-2.10762 z m -1.17613,12.70215 c 3.86307,0.35998 7.41384,1.04092 10.48164,1.78768 3.06779,0.74681 5.62302,1.55122 7.64949,2.17349 1.01327,0.31105 1.87698,0.57757 2.79452,0.79976 0.4586,0.11127 0.91675,0.22153 1.61831,0.2919 0.0344,0.003 0.15342,-0.0344 0.1882,-0.0306 2.32995,0.95499 4.68252,1.77493 8.11057,2.64387 4.26385,1.08077 9.47689,2.22168 15.32727,3.39663 11.70076,2.35005 25.93821,4.8309 39.76253,7.1133 27.64856,4.56457 53.62193,8.29867 53.62193,8.29867 l 0.0942,0.019 0.10359,0.008 c 17.929,2.01076 31.28798,6.17701 40.41167,9.85123 4.56191,1.83717 8.05702,3.54773 10.58515,4.84566 1.26412,0.64902 2.28144,1.19096 3.15205,1.63718 0.37147,0.19013 1.16052,0.37301 1.45837,0.5551 7.79083,5.94166 19.37978,10.57077 29.81712,14.29228 10.81125,3.85485 20.02239,6.41696 20.02239,6.41696 l 0.23527,0.0662 0.22572,0.0482 c 6.23402,1.24678 18.46993,4.88047 28.91383,8.23288 5.22198,1.67616 10.05301,3.28807 13.61485,4.5163 1.78092,0.61414 3.24235,1.13483 4.2529,1.50541 0.45043,0.16528 0.77599,0.28616 1.00677,0.37646 l 0.31024,0.20698 0.9127,0.27276 c 20.86731,6.2438 29.22176,14.97937 32.88448,21.53722 3.66263,6.55788 2.86033,10.62279 2.86033,10.62279 l -0.4514,3.09554 2.17347,2.25818 c 13.55114,14.02382 12.86517,24.8094 9.76653,33.42075 -3.09865,8.61142 -9.37135,14.20762 -9.37135,14.20762 l -3.78245,3.30256 2.32405,4.45046 c 6.45292,12.3616 5.37615,20.03923 1.04436,26.78749 -4.3317,6.74823 -13.1819,12.55561 -23.43777,16.77626 -20.51191,8.44123 -45.29501,10.59456 -45.29501,10.59456 l -1.53362,0.12203 -1.30788,0.80921 c -18.5608,11.49781 -59.90291,29.45892 -96.08479,44.15641 -36.09716,14.6632 -67.18488,26.26259 -67.33082,26.31704 -25.77852,8.82822 -41.09628,17.39676 -50.15944,24.03059 -4.53158,3.31691 -7.4917,6.15512 -9.39018,8.28934 -1.01277,1.13852 -1.08253,1.40726 -1.59013,2.16405 -11.07456,7.98326 -21.73192,14.54799 -31.86691,19.93692 l -1.36066,7.85962 -122.02241,14.80159 1.51489,-5.63064 c -7.01515,-2.62853 -15.33156,-6.43035 -23.60614,-11.80877 -20.77662,-13.50454 -40.7973,-35.9415 -39.91302,-76.04362 0.0145,-0.2085 4.10959,-64.95789 39.54609,-131.66018 l 0.30107,-0.55517 0.17873,-0.61153 c 1.89369,-6.35747 10.96271,-24.13174 19.31667,-39.1603 4.17281,-7.50674 8.19595,-14.5146 11.17784,-19.64905 l -1.51619,-8.65065 98.0549,-86.80843 1.84199,5.85016 c 4.32178,-0.54023 8.50035,-0.50091 12.36345,-0.14086 z"
       id="path29241"
       inkscape:connector-curvature="0"
       sodipodi:nodetypes="ccccccccccccccccsccccccccscccscsccccccccsccccccccccccccccccccccccccccccccccccccccccccccccccccccccscccscsccccccsccccccccccc" />
    <path
       style="color:#000000;font-style:normal;font-variant:normal;font-weight:normal;font-stretch:normal;font-size:medium;line-height:normal;font-family:sans-serif;font-variant-ligatures:normal;font-variant-position:normal;font-variant-caps:normal;font-variant-numeric:normal;font-variant-alternates:normal;font-feature-settings:normal;text-indent:0;text-align:start;text-decoration:none;text-decoration-line:none;text-decoration-style:solid;text-decoration-color:#000000;letter-spacing:normal;word-spacing:normal;text-transform:none;writing-mode:lr-tb;direction:ltr;text-orientation:mixed;dominant-baseline:auto;baseline-shift:baseline;text-anchor:start;white-space:normal;shape-padding:0;clip-rule:nonzero;display:inline;overflow:visible;visibility:visible;opacity:1;isolation:auto;mix-blend-mode:normal;color-interpolation:sRGB;color-interpolation-filters:linearRGB;solid-color:#000000;solid-opacity:1;vector-effect:none;fill:#000000;fill-opacity:1;fill-rule:nonzero;stroke:none;stroke-width:12.74606895;stroke-linecap:butt;stroke-linejoin:miter;stroke-miterlimit:4;stroke-dasharray:none;stroke-dashoffset:0;stroke-opacity:1;color-rendering:auto;image-rendering:auto;shape-rendering:auto;text-rendering:auto;enable-background:accumulate"
       d="m 640.8182,444.51107 c 0,0 -16.33402,4.77838 -33.73243,10.17188 -8.6992,2.69674 -17.66288,5.5462 -25.03906,8.04882 -7.37617,2.50263 -12.52236,4.19326 -16.16211,6.31641 l 1.1543,-0.52539 c 0,0 -27.96887,9.42591 -59.64258,2.24219 l -0.36133,-0.082 -0.36718,-0.0391 c 0,0 -61.43554,-6.68564 -105.51563,-3.48632 l 0.92383,12.71289 c 41.8909,-3.04043 103.13696,3.4379 103.20703,3.44531 35.2936,7.76925 65.87109,-2.73047 65.87109,-2.73047 l 0.60352,-0.20508 0.55078,-0.32226 c 0.52132,-0.3041 6.64454,-2.81726 13.83203,-5.25586 7.18749,-2.43861 16.08222,-5.26739 24.7207,-7.94532 17.27698,-5.35585 33.53711,-10.11328 33.53711,-10.11328 z"
       id="path29245"
       inkscape:connector-curvature="0" />
    <path
       style="color:#000000;font-style:normal;font-variant:normal;font-weight:normal;font-stretch:normal;font-size:medium;line-height:normal;font-family:sans-serif;font-variant-ligatures:normal;font-variant-position:normal;font-variant-caps:normal;font-variant-numeric:normal;font-variant-alternates:normal;font-feature-settings:normal;text-indent:0;text-align:start;text-decoration:none;text-decoration-line:none;text-decoration-style:solid;text-decoration-color:#000000;letter-spacing:normal;word-spacing:normal;text-transform:none;writing-mode:lr-tb;direction:ltr;text-orientation:mixed;dominant-baseline:auto;baseline-shift:baseline;text-anchor:start;white-space:normal;shape-padding:0;clip-rule:nonzero;display:inline;overflow:visible;visibility:visible;opacity:1;isolation:auto;mix-blend-mode:normal;color-interpolation:sRGB;color-interpolation-filters:linearRGB;solid-color:#000000;solid-opacity:1;vector-effect:none;fill:#000000;fill-opacity:1;fill-rule:nonzero;stroke:none;stroke-width:12.74606895;stroke-linecap:butt;stroke-linejoin:miter;stroke-miterlimit:4;stroke-dasharray:none;stroke-dashoffset:0;stroke-opacity:1;color-rendering:auto;image-rendering:auto;shape-rendering:auto;text-rendering:auto;enable-background:accumulate"
       d="m 498.40023,372.01888 c -11.71895,-0.1142 -26.43991,0.73015 -38.90039,4.36133 0,0 -0.008,0 -0.008,0 -0.0233,0.003 -23.66732,3.31851 -38.1289,-3.62304 l -5.51563,11.49218 c 20.20668,9.69921 45.77735,4.69922 45.77735,4.69922 l 0.39843,-0.0684 0.38672,-0.11718 c 20.35197,-6.16724 54.54031,-2.95934 55.16211,-2.9004 26.67675,7.07453 49.85742,1.61914 49.85742,1.61914 l -0.30859,0.0645 c 14.35605,-2.62423 42.11291,-0.86828 65.52344,1.83789 23.37442,2.702 42.73709,6.1281 42.79687,6.13867 16.68279,4.70374 27.49547,4.44237 34.6211,2.30469 3.61002,-1.08301 6.23917,-2.66144 7.99804,-4.15039 1.75888,-1.48895 2.96094,-3.45313 2.96094,-3.45313 l -11.18945,-6.10351 c 0,0 0.42219,-0.53589 -0.008,-0.17188 -0.43,0.36401 -1.3991,1.06251 -3.42382,1.66992 -4.04945,1.21484 -12.51925,1.96898 -28.05078,-2.49218 l -0.32032,-0.0918 -0.32812,-0.0586 c 0,0 -19.75908,-3.49676 -43.59375,-6.25196 -23.83468,-2.7552 -51.38528,-4.98739 -69.27735,-1.71679 l -0.15429,0.0293 -0.1543,0.0352 c 0,0 -20.75285,4.79382 -44.36719,-1.67578 l -0.48828,-0.13281 -0.50586,-0.0547 c 0,0 -8.80241,-1.07293 -20.75976,-1.18946 z"
       id="path29247"
       inkscape:connector-curvature="0" />
    <path
       style="color:#000000;font-style:normal;font-variant:normal;font-weight:normal;font-stretch:normal;font-size:medium;line-height:normal;font-family:sans-serif;font-variant-ligatures:normal;font-variant-position:normal;font-variant-caps:normal;font-variant-numeric:normal;font-variant-alternates:normal;font-feature-settings:normal;text-indent:0;text-align:start;text-decoration:none;text-decoration-line:none;text-decoration-style:solid;text-decoration-color:#000000;letter-spacing:normal;word-spacing:normal;text-transform:none;writing-mode:lr-tb;direction:ltr;text-orientation:mixed;dominant-baseline:auto;baseline-shift:baseline;text-anchor:start;white-space:normal;shape-padding:0;clip-rule:nonzero;display:inline;overflow:visible;visibility:visible;opacity:1;isolation:auto;mix-blend-mode:normal;color-interpolation:sRGB;color-interpolation-filters:linearRGB;solid-color:#000000;solid-opacity:1;vector-effect:none;fill:#000000;fill-opacity:1;fill-rule:nonzero;stroke:none;stroke-width:12.74606895;stroke-linecap:butt;stroke-linejoin:miter;stroke-miterlimit:4;stroke-dasharray:none;stroke-dashoffset:0;stroke-opacity:1;color-rendering:auto;image-rendering:auto;shape-rendering:auto;text-rendering:auto;enable-background:accumulate"
       d="m 533.52327,375.94662 c 0,0 -30.01077,0.94719 -48.9082,2.96289 l -0.68555,0.0742 -0.26171,0.0859 c -0.16466,0.0237 -0.38987,0.0548 -0.72266,0.0937 -0.7698,0.0902 -1.88958,0.20454 -3.22461,0.32812 -2.67006,0.24716 -6.22255,0.53508 -9.94531,0.80859 -7.44553,0.54702 -15.84129,1.0254 -18.81055,1.0254 h -0.20117 l -0.19922,0.0137 c 0,0 -7.66271,0.47967 -16.08789,0.59961 -4.21259,0.06 -8.61104,0.0267 -12.19922,-0.1875 -3.58818,-0.21422 -6.76394,-0.98168 -6.48437,-0.85743 l -5.17579,11.64844 c 3.58963,1.59539 6.78803,1.68613 10.90039,1.93164 4.11237,0.24551 8.74085,0.27357 13.14063,0.21094 8.79956,-0.12526 16.70703,-0.625 16.70703,-0.625 l -0.40039,0.0117 c 4.1413,0 12.17361,-0.50225 19.74609,-1.05859 3.78624,-0.27818 7.39048,-0.57153 10.1836,-0.83008 1.39656,-0.12928 2.5857,-0.2484 3.5332,-0.35938 0.47375,-0.0555 0.88207,-0.10834 1.27344,-0.16797 0.0838,-0.0128 0.27373,-0.0715 0.34375,-0.0781 17.88935,-1.90268 47.88867,-2.89063 47.88867,-2.89063 z"
       id="path29249"
       inkscape:connector-curvature="0" />
    <path
       style="color:#000000;font-style:normal;font-variant:normal;font-weight:normal;font-stretch:normal;font-size:medium;line-height:normal;font-family:sans-serif;font-variant-ligatures:normal;font-variant-position:normal;font-variant-caps:normal;font-variant-numeric:normal;font-variant-alternates:normal;font-feature-settings:normal;text-indent:0;text-align:start;text-decoration:none;text-decoration-line:none;text-decoration-style:solid;text-decoration-color:#000000;letter-spacing:normal;word-spacing:normal;text-transform:none;writing-mode:lr-tb;direction:ltr;text-orientation:mixed;dominant-baseline:auto;baseline-shift:baseline;text-anchor:start;white-space:normal;shape-padding:0;clip-rule:nonzero;display:inline;overflow:visible;visibility:visible;opacity:1;isolation:auto;mix-blend-mode:normal;color-interpolation:sRGB;color-interpolation-filters:linearRGB;solid-color:#000000;solid-opacity:1;vector-effect:none;fill:#000000;fill-opacity:1;fill-rule:nonzero;stroke:none;stroke-width:12.74606895;stroke-linecap:butt;stroke-linejoin:miter;stroke-miterlimit:4;stroke-dasharray:none;stroke-dashoffset:0;stroke-opacity:1;color-rendering:auto;image-rendering:auto;shape-rendering:auto;text-rendering:auto;enable-background:accumulate"
       d="m 534.18734,271.45248 c -8.66994,-0.32245 -18.88402,0.0409 -30.74219,1.55664 l 0.31836,-0.0312 c 0,0 -22.51303,1.7365 -46.88086,4.2168 -12.18392,1.24014 -24.83204,2.66491 -35.44141,4.16406 -10.60936,1.49915 -18.60152,2.7292 -23.95117,4.89453 l 4.78125,11.81641 c 1.93217,-0.78207 10.62723,-2.63076 20.95313,-4.08985 10.32589,-1.45909 22.86036,-2.87304 34.94921,-4.10351 24.17771,-2.46095 46.57032,-4.19141 46.57032,-4.19141 l 0.16015,-0.0117 0.15821,-0.0195 c 22.40195,-2.86341 38.02802,-1.32052 47.90625,0.81641 9.87822,2.13692 13.44336,4.50781 13.44336,4.50781 l 0.60351,0.375 0.66992,0.23437 c 7.92201,2.77271 25.41261,6.94577 41.80469,10.72852 8.19604,1.89138 16.00519,3.63929 21.87695,4.9375 5.87177,1.2982 9.34787,2.05578 10.33789,2.25391 l 0.12891,0.0254 0.13086,0.0195 c 26.98554,4.24301 44.44524,10.81466 55.02539,16.16601 10.58015,5.35136 13.80078,8.95899 13.80078,8.95899 l 9.27149,-8.7461 c 0,0 -5.44816,-5.5811 -17.32032,-11.58593 -11.87215,-6.00484 -30.64856,-12.95697 -58.79687,-17.38282 l 0.25976,0.0469 c 0.12314,0.0246 -4.24588,-0.90955 -10.08789,-2.20117 -5.842,-1.29163 -13.61504,-3.03258 -21.75976,-4.91211 -16.28944,-3.75907 -34.51283,-8.25605 -40.46094,-10.33789 -1.47727,-0.81393 -6.48021,-3.43526 -16.23242,-5.54492 -5.68024,-1.22879 -12.80663,-2.2381 -21.47656,-2.56055 z"
       id="path29251"
       inkscape:connector-curvature="0" />
    <path
       style="color:#000000;font-style:normal;font-variant:normal;font-weight:normal;font-stretch:normal;font-size:medium;line-height:normal;font-family:sans-serif;font-variant-ligatures:normal;font-variant-position:normal;font-variant-caps:normal;font-variant-numeric:normal;font-variant-alternates:normal;font-feature-settings:normal;text-indent:0;text-align:start;text-decoration:none;text-decoration-line:none;text-decoration-style:solid;text-decoration-color:#000000;letter-spacing:normal;word-spacing:normal;text-transform:none;writing-mode:lr-tb;direction:ltr;text-orientation:mixed;dominant-baseline:auto;baseline-shift:baseline;text-anchor:start;white-space:normal;shape-padding:0;clip-rule:nonzero;display:inline;overflow:visible;visibility:visible;opacity:1;isolation:auto;mix-blend-mode:normal;color-interpolation:sRGB;color-interpolation-filters:linearRGB;solid-color:#000000;solid-opacity:1;vector-effect:none;fill:#000000;fill-opacity:1;fill-rule:nonzero;stroke:none;stroke-width:12.74606895;stroke-linecap:butt;stroke-linejoin:miter;stroke-miterlimit:4;stroke-dasharray:none;stroke-dashoffset:0;stroke-opacity:1;color-rendering:auto;image-rendering:auto;shape-rendering:auto;text-rendering:auto;enable-background:accumulate"
       d="m 385.52523,273.43099 -7.35157,10.41407 c 3.98964,2.81626 17.44018,11.14356 34.48829,11.73828 l 0.44336,-12.73828 c -12.77278,-0.44558 -25.67492,-8.06923 -27.58008,-9.41407 z"
       id="path29253"
       inkscape:connector-curvature="0" />
    <path
       style="color:#000000;font-style:normal;font-variant:normal;font-weight:normal;font-stretch:normal;font-size:medium;line-height:normal;font-family:sans-serif;font-variant-ligatures:normal;font-variant-position:normal;font-variant-caps:normal;font-variant-numeric:normal;font-variant-alternates:normal;font-feature-settings:normal;text-indent:0;text-align:start;text-decoration:none;text-decoration-line:none;text-decoration-style:solid;text-decoration-color:#000000;letter-spacing:normal;word-spacing:normal;text-transform:none;writing-mode:lr-tb;direction:ltr;text-orientation:mixed;dominant-baseline:auto;baseline-shift:baseline;text-anchor:start;white-space:normal;shape-padding:0;clip-rule:nonzero;display:inline;overflow:visible;visibility:visible;opacity:1;isolation:auto;mix-blend-mode:normal;color-interpolation:sRGB;color-interpolation-filters:linearRGB;solid-color:#000000;solid-opacity:1;vector-effect:none;fill:#000000;fill-opacity:1;fill-rule:nonzero;stroke:none;stroke-width:12.74606895;stroke-linecap:butt;stroke-linejoin:miter;stroke-miterlimit:4;stroke-dasharray:none;stroke-dashoffset:0;stroke-opacity:1;color-rendering:auto;image-rendering:auto;shape-rendering:auto;text-rendering:auto;enable-background:accumulate"
       d="m 265.05257,320.87826 c -17.39695,17.12508 -16.88416,37.31028 -11.54687,51.47461 5.33728,14.16433 14.91211,23.74414 14.91211,23.74414 l 9.07617,-8.94922 c 0,0 -7.83536,-8.07605 -12.06055,-19.28906 -4.22519,-11.21301 -5.42713,-24.12741 8.56055,-37.89649 z"
       id="path29259"
       inkscape:connector-curvature="0" />
    <path
       style="color:#000000;font-style:normal;font-variant:normal;font-weight:normal;font-stretch:normal;font-size:medium;line-height:normal;font-family:sans-serif;font-variant-ligatures:normal;font-variant-position:normal;font-variant-caps:normal;font-variant-numeric:normal;font-variant-alternates:normal;font-feature-settings:normal;text-indent:0;text-align:start;text-decoration:none;text-decoration-line:none;text-decoration-style:solid;text-decoration-color:#000000;letter-spacing:normal;word-spacing:normal;text-transform:none;writing-mode:lr-tb;direction:ltr;text-orientation:mixed;dominant-baseline:auto;baseline-shift:baseline;text-anchor:start;white-space:normal;shape-padding:0;clip-rule:nonzero;display:inline;overflow:visible;visibility:visible;opacity:1;isolation:auto;mix-blend-mode:normal;color-interpolation:sRGB;color-interpolation-filters:linearRGB;solid-color:#000000;solid-opacity:1;vector-effect:none;fill:#000000;fill-opacity:1;fill-rule:nonzero;stroke:none;stroke-width:12.74606895;stroke-linecap:butt;stroke-linejoin:miter;stroke-miterlimit:4;stroke-dasharray:none;stroke-dashoffset:0;stroke-opacity:1;color-rendering:auto;image-rendering:auto;shape-rendering:auto;text-rendering:auto;enable-background:accumulate"
       d="m 714.85335,386.17709 -8.61133,9.39844 c -1.08189,-0.99124 -0.3263,-0.36952 0.0645,0.39062 0.39075,0.76014 0.88986,1.91678 1.32422,3.27539 0.8687,2.71723 1.45988,6.24336 1.06054,9.56641 -0.39933,3.32305 -1.59157,6.41367 -4.68554,9.38086 -1.86762,1.79108 -4.67513,3.53581 -8.47657,5.04492 1.02695,-8.65942 1.80448,-21.24069 -0.89258,-32.70313 l -12.40624,2.91993 c 3.36751,14.3119 -0.66602,37.41601 -0.66602,37.41601 l -1.79297,9.25 9.25195,-1.7793 c 10.73465,-2.06382 18.5082,-5.86976 23.80469,-10.94921 5.2965,-5.07946 7.83069,-11.3446 8.51758,-17.06055 0.68689,-5.71595 -0.27738,-10.91042 -1.57422,-14.9668 -0.64842,-2.02819 -1.38379,-3.77122 -2.12891,-5.2207 -0.74512,-1.44949 -1.02474,-2.34642 -2.78906,-3.96289 z"
       id="path29263"
       inkscape:connector-curvature="0" />
    <path
       style="color:#000000;font-style:normal;font-variant:normal;font-weight:normal;font-stretch:normal;font-size:medium;line-height:normal;font-family:sans-serif;font-variant-ligatures:normal;font-variant-position:normal;font-variant-caps:normal;font-variant-numeric:normal;font-variant-alternates:normal;font-feature-settings:normal;text-indent:0;text-align:start;text-decoration:none;text-decoration-line:none;text-decoration-style:solid;text-decoration-color:#000000;letter-spacing:normal;word-spacing:normal;text-transform:none;writing-mode:lr-tb;direction:ltr;text-orientation:mixed;dominant-baseline:auto;baseline-shift:baseline;text-anchor:start;white-space:normal;shape-padding:0;clip-rule:nonzero;display:inline;overflow:visible;visibility:visible;opacity:1;isolation:auto;mix-blend-mode:normal;color-interpolation:sRGB;color-interpolation-filters:linearRGB;solid-color:#000000;solid-opacity:1;vector-effect:none;fill:#000000;fill-opacity:1;fill-rule:nonzero;stroke:none;stroke-width:12.74606895;stroke-linecap:butt;stroke-linejoin:miter;stroke-miterlimit:4;stroke-dasharray:none;stroke-dashoffset:0;stroke-opacity:1;color-rendering:auto;image-rendering:auto;shape-rendering:auto;text-rendering:auto;enable-background:accumulate"
       d="m 685.65804,320.94076 2.63086,9.70312 c 0,0 6.30083,23.74502 -3.56641,48.25391 l -3.16797,7.86719 8.4375,0.85351 c 19.7558,1.99703 34.45631,-11.75714 36.95313,-27.44726 1.24841,-7.84506 -0.47304,-16.33402 -5.76367,-23.2832 -5.29064,-6.94919 -13.97879,-12.11559 -25.625,-14.1875 z m 16.57031,17.08203 c 3.98266,1.81199 6.90791,4.08428 8.8125,6.58594 3.10496,4.07832 4.06817,8.83452 3.31641,13.55859 -1.16221,7.3034 -6.27157,14.09577 -14.76563,16.19727 4.06977,-14.78995 3.65722,-27.60442 2.63672,-36.3418 z"
       id="path29265"
       inkscape:connector-curvature="0" />
    <path
       style="color:#000000;font-style:normal;font-variant:normal;font-weight:normal;font-stretch:normal;font-size:medium;line-height:normal;font-family:sans-serif;font-variant-ligatures:normal;font-variant-position:normal;font-variant-caps:normal;font-variant-numeric:normal;font-variant-alternates:normal;font-feature-settings:normal;text-indent:0;text-align:start;text-decoration:none;text-decoration-line:none;text-decoration-style:solid;text-decoration-color:#000000;letter-spacing:normal;word-spacing:normal;text-transform:none;writing-mode:lr-tb;direction:ltr;text-orientation:mixed;dominant-baseline:auto;baseline-shift:baseline;text-anchor:start;white-space:normal;shape-padding:0;clip-rule:nonzero;display:inline;overflow:visible;visibility:visible;opacity:1;isolation:auto;mix-blend-mode:normal;color-interpolation:sRGB;color-interpolation-filters:linearRGB;solid-color:#000000;solid-opacity:1;vector-effect:none;fill:#000000;fill-opacity:1;fill-rule:nonzero;stroke:none;stroke-width:12.74606895;stroke-linecap:butt;stroke-linejoin:miter;stroke-miterlimit:4;stroke-dasharray:none;stroke-dashoffset:0;stroke-opacity:1;color-rendering:auto;image-rendering:auto;shape-rendering:auto;text-rendering:auto;enable-background:accumulate"
       d="m 678.50765,295.18685 0.75976,8.25977 c 0,0 0.16638,1.83017 0.23243,3.98242 0.066,2.15225 -0.2897,5.05901 -0.14649,4.58008 l 12.21289,3.65234 c 0.44892,-1.50125 0.57897,-2.78728 0.65625,-4.03125 4.30482,2.0943 7.00565,4.91764 8.77149,7.67774 2.64275,4.13078 3.06054,7.52539 3.06054,7.52539 l 12.64649,-1.59961 c 0,0 -0.80743,-6.29053 -4.96875,-12.79492 -4.16133,-6.5044 -12.16393,-13.66468 -25.04883,-15.85938 z"
       id="path29267"
       inkscape:connector-curvature="0" />
    <path
       style="color:#000000;font-style:normal;font-variant:normal;font-weight:normal;font-stretch:normal;font-size:medium;line-height:normal;font-family:sans-serif;font-variant-ligatures:normal;font-variant-position:normal;font-variant-caps:normal;font-variant-numeric:normal;font-variant-alternates:normal;font-feature-settings:normal;text-indent:0;text-align:start;text-decoration:none;text-decoration-line:none;text-decoration-style:solid;text-decoration-color:#000000;letter-spacing:normal;word-spacing:normal;text-transform:none;writing-mode:lr-tb;direction:ltr;text-orientation:mixed;dominant-baseline:auto;baseline-shift:baseline;text-anchor:start;white-space:normal;shape-padding:0;clip-rule:nonzero;display:inline;overflow:visible;visibility:visible;opacity:1;isolation:auto;mix-blend-mode:normal;color-interpolation:sRGB;color-interpolation-filters:linearRGB;solid-color:#000000;solid-opacity:1;vector-effect:none;fill:#000000;fill-opacity:1;fill-rule:nonzero;stroke:none;stroke-width:10.68463421;stroke-linecap:butt;stroke-linejoin:miter;stroke-miterlimit:4;stroke-dasharray:none;stroke-dashoffset:0;stroke-opacity:1;color-rendering:auto;image-rendering:auto;shape-rendering:auto;text-rendering:auto;enable-background:accumulate"
       d="m 247.27942,116.21299 c -0.007,-5.8e-4 -0.96316,-0.0228 -1.29576,0.0228 -0.66526,0.0922 -1.02995,0.22724 -1.30703,0.33702 -1.10854,0.44262 -1.20145,0.64634 -1.47605,0.84514 -0.85606,0.61974 -1.20352,0.98254 -1.45349,1.21688 -0.32114,0.20201 -35.54926,23.33716 -63.48131,42.27577 0.56126,-0.9382 1.29366,-2.12082 1.76899,-2.92948 0.78424,-1.33434 1.41879,-2.44388 1.89289,-3.32401 0.23733,-0.44036 0.42235,-0.78789 0.63099,-1.26192 0.10459,-0.23718 0.22325,-0.42461 0.39479,-1.13808 0.0394,-0.1783 0.0901,-0.40438 0.12424,-0.73235 0.0164,-0.16375 0.0337,-0.34698 0.0337,-0.58601 -0.001,-0.23874 -0.0787,-0.88683 -0.0793,-0.89008 -5.8e-4,-0.003 -0.40437,-1.30469 -0.40549,-1.30719 -9.9e-4,-0.003 -1.15897,-1.64347 -1.16054,-1.64506 -0.002,-9.9e-4 -2.00345,-1.22735 -2.00566,-1.22811 -10e-4,-7.4e-4 -1.93529,-0.27048 -1.93798,-0.27048 h -0.0119 -0.0119 c -27.61452,1.234 -49.16285,23.93255 -65.05874,57.44194 -15.895783,33.50935 -22.522934,75.95348 -28.632601,125.65851 -7.409122,50.64206 -10.573761,101.43945 1.411146,210.0618 6.345332,46.45479 13.757605,88.69539 29.756355,119.10527 15.99869,30.40975 37.67941,50.39962 64.87851,50.39962 17.72838,0 33.45588,-8.1918 46.46734,-21.85903 13.0114,-13.66712 23.62752,-32.78476 32.30398,-55.68415 17.35288,-45.79861 26.87676,-106.89322 29.11533,-170.34262 0.19958,-5.65724 0.34098,-11.33262 0.4243,-17.01693 0.0103,-0.56253 0.0162,-1.12508 0.0228,-1.68772 0.29272,-23.1799 -0.38019,-46.49284 -2.01326,-69.30835 -0.0991,-1.38157 -0.20128,-2.76126 -0.30718,-4.13895 -2.4861,-32.33435 -6.91084,-63.587 -13.25904,-91.94845 -11.61721,-51.90121 -29.57779,-93.60725 -55.35751,-115.27826 19.42231,-20.18688 28.50717,-31.10586 31.21567,-34.37882 0.13937,-0.16873 -1.27361,-1.46397 0.24065,-1.05607 v 0 l 1.39952,-7.97873 c -0.40828,-0.37529 -0.83199,-0.7653 -0.83374,-0.76617 -0.005,-0.003 -1.98879,-0.60799 -1.9944,-0.60855 z m -35.94349,35.4928 c -2.99141,3.11858 -1.66073,1.85678 -5.31829,5.64498 l -4.29286,4.43947 5.01401,3.60559 c 23.98414,17.2557 43.40686,59.47442 55.43625,113.21631 6.20846,27.73666 10.56167,58.47904 13.01717,90.34476 0.0827,1.0707 0.16292,2.14272 0.24115,3.21595 1.67447,22.97377 2.36637,46.49597 2.05992,69.86615 -0.007,0.44224 -0.0114,0.88366 -0.0187,1.32542 -0.0818,5.55668 -0.22026,11.10404 -0.41527,16.63248 -2.20923,62.61723 -11.7258,122.88825 -28.4167,166.9399 -8.34546,22.02587 -18.49712,39.9536 -30.06188,52.10122 -11.56473,12.14749 -24.22069,18.54625 -38.72649,18.54625 -21.97905,0 -40.35445,-16.05256 -55.42498,-44.69823 -12.5354,-28.97658 -24.921063,-70.7826 -31.593609,-115.83106 -7.130569,-62.18903 -8.252633,-166.38556 -2.636863,-204.76537 6.017439,-48.95401 16.795832,-92.83722 31.898352,-124.6743 12.47139,-26.29031 27.60412,-42.83127 44.82236,-48.58559 -0.6576,1.08229 -1.15542,1.92971 -1.83665,3.04217 -4.25351,6.94746 -8.59716,13.91543 -8.59716,13.91543 l 7.69587,7.12112 c 16.30125,-12.0312 28.88854,-19.59125 47.15469,-31.40265 z"
       id="path7491"
       inkscape:connector-curvature="0"
       sodipodi:nodetypes="ccccccccccccccsssccsccsscsssssssccccccccccccssssssscscccccccccc" />
    <path
       style="color:#000000;font-style:normal;font-variant:normal;font-weight:normal;font-stretch:normal;font-size:medium;line-height:normal;font-family:sans-serif;font-variant-ligatures:normal;font-variant-position:normal;font-variant-caps:normal;font-variant-numeric:normal;font-variant-alternates:normal;font-feature-settings:normal;text-indent:0;text-align:start;text-decoration:none;text-decoration-line:none;text-decoration-style:solid;text-decoration-color:#000000;letter-spacing:normal;word-spacing:normal;text-transform:none;writing-mode:lr-tb;direction:ltr;text-orientation:mixed;dominant-baseline:auto;baseline-shift:baseline;text-anchor:start;white-space:normal;shape-padding:0;clip-rule:nonzero;display:inline;overflow:visible;visibility:visible;opacity:1;isolation:auto;mix-blend-mode:normal;color-interpolation:sRGB;color-interpolation-filters:linearRGB;solid-color:#000000;solid-opacity:1;vector-effect:none;fill:#000000;fill-opacity:1;fill-rule:nonzero;stroke:none;stroke-width:10.68463421;stroke-linecap:butt;stroke-linejoin:miter;stroke-miterlimit:4;stroke-dasharray:none;stroke-dashoffset:0;stroke-opacity:1;color-rendering:auto;image-rendering:auto;shape-rendering:auto;text-rendering:auto;enable-background:accumulate"
       d="M 257.04837,40.75435 233.6569,67.53724 c -5.75856,-0.4657 -11.90886,-0.32556 -15.75195,0.11175 h -0.0225 -0.0337 c -40.96351,5.09676 -73.24193,37.20273 -97.01344,83.7291 -23.771491,46.52625 -38.748502,102.18824 -46.660515,168.58635 -8.557912,68.85458 -8.150046,151.55076 0.786669,222.27665 8.854349,65.59627 25.532686,124.07241 50.910146,167.93938 25.37747,43.86698 60.05557,72.23618 103.48108,72.23618 52.43872,0 92.15739,-38.93987 119.04158,-96.72059 26.88423,-57.7807 41.80762,-135.10256 45.52082,-215.55924 0.34242,-7.41884 0.58911,-14.86399 0.7403,-22.32247 0.0147,-0.76181 0.0306,-1.52379 0.0437,-2.28591 0.48681,-27.58324 -0.33168,-55.33111 -2.44754,-82.58806 -3.46048,-44.57476 -10.39117,-87.83693 -20.75849,-126.9205 C 352.89619,165.91231 323.45244,108.95507 281.5555,82.43204 l -3.72953,-2.36626 -25.01393,26.64776 c 1.32898,-6.6341 2.84118,-13.96136 4.59712,-21.9717 4.30069,-19.6197 8.86755,-39.25615 8.86755,-39.25615 z m -5.83657,22.92939 c -1.65441,7.25447 -2.18887,9.37872 -4.24788,18.77176 -2.16036,9.85524 -4.24649,19.71056 -5.67883,27.1773 -0.71614,3.73345 -1.26789,6.85382 -1.58874,9.19428 -0.16031,1.17026 -0.26655,2.11032 -0.29301,3.07606 -0.0114,0.48305 -0.0579,0.91501 0.11193,1.80285 0.0849,0.44431 0.16982,1.03348 0.78875,2.01683 0.61896,0.9835 2.54188,2.54654 4.60843,2.54654 l -3.77461,-1.56626 3.89856,3.89861 3.77465,-4.01126 30.28714,-32.27024 c 36.22036,25.04675 64.37695,77.77076 82.06148,144.4386 10.11529,38.1334 16.93091,80.54486 20.37041,124.31201 2.11861,26.9581 2.95622,54.4306 2.49514,81.73435 -0.0114,0.64175 -0.0228,1.28335 -0.0344,1.92487 -0.14657,7.65685 -0.39515,15.29919 -0.74648,22.91193 -3.66667,79.44805 -18.55081,155.714 -44.5294,211.54806 -25.97838,55.83422 -62.18975,90.53482 -109.36264,90.53482 -38.81005,0 -69.94261,-24.91198 -94.23043,-66.89558 C 110.83364,662.84583 93.946838,603.4239 85.218415,538.76008 75.552206,447.28551 74.856073,391.79784 83.807269,328.69828 91.917331,263.4915 107.44413,201.06705 130.34406,156.24661 c 22.89241,-44.80572 52.62796,-73.46703 88.78831,-77.98268 4.43234,-0.50386 11.70284,-1.03448 16.10128,-0.2368 l 2.97462,0.53997 z"
       id="path7491-0"
       inkscape:connector-curvature="0"
       sodipodi:nodetypes="cccccsccsssssssscccccccccccccccccccsssssscccscccc" />
    <path
       inkscape:connector-curvature="0"
       id="path29-8-7-9-1"
       d="m 1017.1738,452.22153 c -65.91956,-64.89458 -122.66886,-67.46715 -165.97716,-53.78857 -21.6542,6.83928 -39.91447,18.08775 -53.48988,28.42116 -13.57529,10.33352 -22.0765,19.34906 -25.63449,22.87413 l -12.18914,-12.30042 c 2.74193,-2.71631 12.63519,-13.16309 27.33466,-24.35198 14.69912,-11.18888 34.59215,-23.52049 58.76485,-31.15521 48.3448,-15.26943 113.9314,-10.36656 183.33786,57.96094 z"
       style="color:#000000;font-style:normal;font-variant:normal;font-weight:normal;font-stretch:normal;font-size:medium;line-height:normal;font-family:sans-serif;font-variant-ligatures:normal;font-variant-position:normal;font-variant-caps:normal;font-variant-numeric:normal;font-variant-alternates:normal;font-feature-settings:normal;text-indent:0;text-align:start;text-decoration:none;text-decoration-line:none;text-decoration-style:solid;text-decoration-color:#000000;letter-spacing:normal;word-spacing:normal;text-transform:none;writing-mode:lr-tb;direction:ltr;text-orientation:mixed;dominant-baseline:auto;baseline-shift:baseline;text-anchor:start;white-space:normal;shape-padding:0;clip-rule:nonzero;display:inline;overflow:visible;visibility:visible;opacity:1;isolation:auto;mix-blend-mode:normal;color-interpolation:sRGB;color-interpolation-filters:linearRGB;solid-color:#000000;solid-opacity:1;vector-effect:none;fill:#000000;fill-opacity:1;fill-rule:nonzero;stroke:none;stroke-width:17.31621933;stroke-linecap:butt;stroke-linejoin:miter;stroke-miterlimit:4;stroke-dasharray:none;stroke-dashoffset:0;stroke-opacity:1;color-rendering:auto;image-rendering:auto;shape-rendering:auto;text-rendering:auto;enable-background:accumulate" />
    <path
       inkscape:connector-curvature="0"
       id="path87-11-5-36-8"
       d="m 780.15803,55.29541 c -17.18916,0.16391 -31.08937,7.07356 -40.04162,17.41392 -8.97693,10.3683 -13.15091,23.7507 -13.03024,36.92724 0.12044,13.17665 4.53321,26.39723 13.61922,36.45139 9.05924,10.02403 22.96374,16.43882 39.79378,15.91475 16.5071,-0.0429 29.93911,-7.04979 38.46617,-17.39804 8.553,-10.38024 12.4831,-23.67385 12.3979,-36.78187 -0.085,-13.10815 -4.1809,-26.27715 -12.8264,-36.40109 -8.62309,-10.09763 -22.10669,-16.68804 -38.37881,-16.1263 z m 0.51583,17.29754 c 11.61176,-0.42716 19.18759,3.62418 24.69544,10.07398 5.50797,6.44992 8.61654,15.76522 8.67786,25.26958 0.0603,9.50436 -2.92044,18.95054 -8.44765,25.65826 -5.52674,6.70748 -13.29581,11.10774 -25.2457,11.10774 h -0.14536 l -0.14536,0.0116 c -12.42909,0.41742 -20.67621,-3.77221 -26.51234,-10.23001 -5.83613,-6.45769 -9.06538,-15.63052 -9.15093,-24.99984 -0.0858,-9.36932 2.96751,-18.68543 8.81013,-25.43337 5.84193,-6.74806 14.30627,-11.35082 27.20727,-11.44634 l 0.13017,-0.0116 z"
       style="color:#000000;font-style:normal;font-variant:normal;font-weight:normal;font-stretch:normal;font-size:medium;line-height:normal;font-family:sans-serif;font-variant-ligatures:normal;font-variant-position:normal;font-variant-caps:normal;font-variant-numeric:normal;font-variant-alternates:normal;font-feature-settings:normal;text-indent:0;text-align:start;text-decoration:none;text-decoration-line:none;text-decoration-style:solid;text-decoration-color:#000000;letter-spacing:normal;word-spacing:normal;text-transform:none;writing-mode:lr-tb;direction:ltr;text-orientation:mixed;dominant-baseline:auto;baseline-shift:baseline;text-anchor:start;white-space:normal;shape-padding:0;clip-rule:nonzero;display:inline;overflow:visible;visibility:visible;opacity:1;isolation:auto;mix-blend-mode:normal;color-interpolation:sRGB;color-interpolation-filters:linearRGB;solid-color:#000000;solid-opacity:1;vector-effect:none;fill:#000000;fill-opacity:1;fill-rule:nonzero;stroke:none;stroke-width:17.31621933;stroke-linecap:butt;stroke-linejoin:miter;stroke-miterlimit:4;stroke-dasharray:none;stroke-dashoffset:0;stroke-opacity:1;color-rendering:auto;image-rendering:auto;shape-rendering:auto;text-rendering:auto;enable-background:accumulate" />
    <path
       inkscape:connector-curvature="0"
       id="path1039-2-1"
       d="m 694.04033,-1.50739 -9.79369,19.12731 c 0,0 43.34018,22.18836 87.09871,44.38356 21.87943,11.09754 43.86076,22.19716 60.61279,30.5391 8.3763,4.17097 15.4372,7.65002 20.5765,10.11896 2.5696,1.23441 4.6472,2.21021 6.2555,2.93227 0.8049,0.36108 1.4766,0.65493 2.1657,0.92804 0.3446,0.13666 0.6793,0.26765 1.1876,0.43098 0.5076,0.16344 0.4656,0.57913 3.5668,0.57913 V 86.04351 c 2.9991,0 2.7714,0.37407 3.0142,0.4522 0.2427,0.0777 0.2321,0.0811 0.1534,0.0498 -0.158,-0.0626 -0.6441,-0.26638 -1.288,-0.55524 -1.2872,-0.57774 -3.2673,-1.50787 -5.7479,-2.69951 -4.9617,-2.38362 -11.9746,-5.83648 -20.3041,-9.98414 C 824.87904,65.01116 802.92006,53.92695 781.06509,42.84158 737.35478,20.67061 694.04033,-1.50766 694.04033,-1.50766 Z"
       style="color:#000000;font-style:normal;font-variant:normal;font-weight:normal;font-stretch:normal;font-size:medium;line-height:normal;font-family:sans-serif;font-variant-ligatures:normal;font-variant-position:normal;font-variant-caps:normal;font-variant-numeric:normal;font-variant-alternates:normal;font-feature-settings:normal;text-indent:0;text-align:start;text-decoration:none;text-decoration-line:none;text-decoration-style:solid;text-decoration-color:#000000;letter-spacing:normal;word-spacing:normal;text-transform:none;writing-mode:lr-tb;direction:ltr;text-orientation:mixed;dominant-baseline:auto;baseline-shift:baseline;text-anchor:start;white-space:normal;shape-padding:0;clip-rule:nonzero;display:inline;overflow:visible;visibility:visible;opacity:1;isolation:auto;mix-blend-mode:normal;color-interpolation:sRGB;color-interpolation-filters:linearRGB;solid-color:#000000;solid-opacity:1;vector-effect:none;fill:#000000;fill-opacity:1;fill-rule:nonzero;stroke:none;stroke-width:21.48812675;stroke-linecap:butt;stroke-linejoin:miter;stroke-miterlimit:4;stroke-dasharray:none;stroke-dashoffset:0;stroke-opacity:1;color-rendering:auto;image-rendering:auto;shape-rendering:auto;text-rendering:auto;enable-background:accumulate" />
    <path
       inkscape:connector-curvature="0"
       id="path87-11-5-3-7-2"
       d="m 1010.7009,55.29541 c -16.27136,-0.56174 -29.75536,6.02867 -38.37846,16.1263 -8.646,10.12394 -12.7416,23.29294 -12.8268,36.40109 -0.085,13.10802 3.8452,26.40163 12.3983,36.78187 8.5274,10.34883 21.9577,17.35573 38.46586,17.39804 16.8303,0.52407 30.7345,-5.89072 39.7936,-15.91475 9.0865,-10.05416 13.499,-23.27474 13.6197,-36.45139 0.1203,-13.17654 -4.0562,-26.55894 -13.0327,-36.92724 -8.9522,-10.34036 -22.8499,-17.25001 -40.0395,-17.41392 z m -0.5155,17.29754 0.1272,0.0116 0.1273,0.0116 c 12.9014,0.095 21.3683,4.69828 27.2101,11.44622 5.8426,6.74795 8.8936,16.06418 8.8077,25.43349 -0.085,9.3692 -3.3152,18.54204 -9.1513,24.99984 -5.8361,6.45769 -14.0832,10.64743 -26.5121,10.2299 l -0.1457,-0.0116 h -0.1453 c -11.94946,0 -19.71846,-4.40025 -25.24536,-11.10785 -5.5272,-6.70761 -8.5068,-16.1539 -8.4456,-25.65814 0.063,-9.50448 3.1703,-18.8199 8.6784,-25.26958 5.5076,-6.44992 13.0838,-10.50126 24.69526,-10.07399 z"
       style="color:#000000;font-style:normal;font-variant:normal;font-weight:normal;font-stretch:normal;font-size:medium;line-height:normal;font-family:sans-serif;font-variant-ligatures:normal;font-variant-position:normal;font-variant-caps:normal;font-variant-numeric:normal;font-variant-alternates:normal;font-feature-settings:normal;text-indent:0;text-align:start;text-decoration:none;text-decoration-line:none;text-decoration-style:solid;text-decoration-color:#000000;letter-spacing:normal;word-spacing:normal;text-transform:none;writing-mode:lr-tb;direction:ltr;text-orientation:mixed;dominant-baseline:auto;baseline-shift:baseline;text-anchor:start;white-space:normal;shape-padding:0;clip-rule:nonzero;display:inline;overflow:visible;visibility:visible;opacity:1;isolation:auto;mix-blend-mode:normal;color-interpolation:sRGB;color-interpolation-filters:linearRGB;solid-color:#000000;solid-opacity:1;vector-effect:none;fill:#000000;fill-opacity:1;fill-rule:nonzero;stroke:none;stroke-width:17.31621933;stroke-linecap:butt;stroke-linejoin:miter;stroke-miterlimit:4;stroke-dasharray:none;stroke-dashoffset:0;stroke-opacity:1;color-rendering:auto;image-rendering:auto;shape-rendering:auto;text-rendering:auto;enable-background:accumulate" />
    <path
       inkscape:connector-curvature="0"
       id="path1039-7-0-3"
       d="m 1096.8187,-1.50739 c 0,0 -43.3166,22.17827 -87.0271,44.34924 -21.85506,11.08537 -43.81126,22.16959 -60.47026,30.46504 -8.3292,4.14778 -15.342,7.60052 -20.304,9.98414 -2.4806,1.19164 -4.4608,2.12189 -5.7484,2.69951 -0.6434,0.28887 -1.1296,0.49265 -1.2872,0.55525 -0.079,0.0313 -0.089,0.0278 0.1533,-0.0498 0.2425,-0.0777 0.015,-0.45208 3.0142,-0.45208 v 21.48845 c 3.1006,0 3.056,-0.4158 3.5639,-0.57913 0.5083,-0.16333 0.8454,-0.29443 1.1898,-0.43099 0.6892,-0.27321 1.3587,-0.56695 2.1632,-0.92804 1.6087,-0.72205 3.6859,-1.69785 6.2558,-2.93226 5.1394,-2.46894 12.203,-5.94788 20.5788,-10.11896 16.7525,-8.34194 38.7341,-19.44157 60.61316,-30.53911 43.7586,-22.19531 87.0963,-44.38367 87.0963,-44.38367 z"
       style="color:#000000;font-style:normal;font-variant:normal;font-weight:normal;font-stretch:normal;font-size:medium;line-height:normal;font-family:sans-serif;font-variant-ligatures:normal;font-variant-position:normal;font-variant-caps:normal;font-variant-numeric:normal;font-variant-alternates:normal;font-feature-settings:normal;text-indent:0;text-align:start;text-decoration:none;text-decoration-line:none;text-decoration-style:solid;text-decoration-color:#000000;letter-spacing:normal;word-spacing:normal;text-transform:none;writing-mode:lr-tb;direction:ltr;text-orientation:mixed;dominant-baseline:auto;baseline-shift:baseline;text-anchor:start;white-space:normal;shape-padding:0;clip-rule:nonzero;display:inline;overflow:visible;visibility:visible;opacity:1;isolation:auto;mix-blend-mode:normal;color-interpolation:sRGB;color-interpolation-filters:linearRGB;solid-color:#000000;solid-opacity:1;vector-effect:none;fill:#000000;fill-opacity:1;fill-rule:nonzero;stroke:none;stroke-width:21.48812675;stroke-linecap:butt;stroke-linejoin:miter;stroke-miterlimit:4;stroke-dasharray:none;stroke-dashoffset:0;stroke-opacity:1;color-rendering:auto;image-rendering:auto;shape-rendering:auto;text-rendering:auto;enable-background:accumulate" />
    <path
       style="font-style:normal;font-weight:normal;font-size:233.33332825px;line-height:1.25;font-family:sans-serif;letter-spacing:0px;word-spacing:0px;fill:#000000;fill-opacity:1;stroke:none"
       d="m 771.89067,838.52611 -25.97656,43.17969 h 17.66015 l 20.96289,-29.16602 21.07812,29.16602 h 18.1152 l -25.9765,-43.17969 z m -104.81836,20.16602 v 22.21679 h 24.1543 v -22.21679 z m 472.59179,0 v 22.21679 h 24.1543 V 858.69213 Z M 0,859.8308 v 169.6446 h 111.7676 v -20.0508 h -89.209 v -63.00591 h 89.209 v -20.05078 h -89.209 v -46.48438 h 89.209 V 859.8308 Z m 347.3789,38.85156 c -8.0512,0 -15.6473,1.63238 -22.7871,4.89844 -7.0638,3.1901 -13.444,7.17773 -19.1406,11.96289 v -13.33008 h -21.418 v 174.20309 h 21.418 v -53.3203 c 5.5447,3.0383 10.9761,5.2776 16.293,6.7207 5.3928,1.4432 11.3939,2.1661 18.0019,2.1661 7.5955,0 14.7733,-1.5204 21.5332,-4.5586 6.836,-3.1142 12.7605,-7.4809 17.7735,-13.1016 5.3928,-5.9245 9.569,-13.1395 12.5312,-21.6465 2.9623,-8.5829 4.4434,-18.03928 4.4434,-28.36914 0,-20.58377 -4.2902,-36.64822 -12.8731,-48.19336 -8.5069,-11.62109 -20.4325,-17.43164 -35.7754,-17.43164 z m 134.8965,0 c -18.533,0 -33.4974,6.11307 -44.8906,18.3418 -11.3173,12.22873 -16.9746,28.74891 -16.9746,49.56055 0,21.03949 5.9245,37.29439 17.7734,48.76359 11.849,11.3934 28.3299,17.09 49.4453,17.09 8.2791,0 16.1797,-1.0254 23.6993,-3.0761 7.5195,-2.0508 14.8858,-4.5948 22.10153,-7.633 v -23.35738 h -1.13863 c -3.7218,3.34188 -9.9881,6.75988 -18.7989,10.25378 -8.7348,3.418 -17.431,5.127 -26.0898,5.127 -6.5321,0 -12.5332,-0.9115 -18.002,-2.7344 -5.3928,-1.8229 -10.064,-4.5573 -14.0136,-8.2031 -4.1016,-3.72171 -7.329,-8.46759 -9.6836,-14.24016 -2.3546,-5.84852 -3.5332,-12.68446 -3.5332,-20.50781 h 93.76754 v -11.6211 c 0,-18.45703 -4.67124,-32.69856 -14.01364,-42.72461 -9.2665,-10.02604 -22.4827,-15.03906 -39.6485,-15.03906 z m 303.05863,0 c -18.53299,0 -33.49544,6.11307 -44.88867,18.3418 -11.31728,12.22873 -16.97657,28.74891 -16.97657,49.56055 0,21.03949 5.92448,37.29439 17.77344,48.76359 11.84896,11.3934 28.33182,17.09 49.44727,17.09 8.27907,0 16.17777,-1.0254 23.69727,-3.0761 7.5195,-2.0508 14.8878,-4.5948 22.1035,-7.633 v -23.35738 h -1.1387 c -3.7217,3.34188 -9.988,6.75988 -18.7988,10.25378 -8.7348,3.418 -17.4329,5.127 -26.09179,5.127 -6.53212,0 -12.53125,-0.9115 -18,-2.7344 -5.39279,-1.8229 -10.06402,-4.5573 -14.01367,-8.2031 -4.10156,-3.72171 -7.33095,-8.46759 -9.68555,-14.24016 -2.3546,-5.84852 -3.53125,-12.68446 -3.53125,-20.50781 h 93.76566 v -11.6211 c 0,-18.45703 -4.6713,-32.69856 -14.0137,-42.72461 -9.2665,-10.02604 -22.4826,-15.03906 -39.64844,-15.03906 z m 150.27734,0 c -7.5195,0 -14.8485,1.55577 -21.9883,4.66992 -7.1397,3.11415 -14.0523,7.44358 -20.7363,12.98828 v -14.12695 h -21.4199 v 127.26179 h 21.4199 v -95.0196 c 5.8485,-4.48134 11.9635,-8.1645 18.3437,-11.05078 6.3803,-2.88629 12.4933,-4.33008 18.3418,-4.33008 5.6967,0 10.3306,0.79753 13.9004,2.39258 3.5699,1.5191 6.3043,3.87435 8.2032,7.06445 1.8229,2.88629 3.0761,6.91124 3.7597,12.07617 0.6836,5.08898 1.0254,10.55773 1.0254,16.40625 v 72.46101 h 21.4199 v -82.59968 c 0,-15.57074 -3.6085,-27.49631 -10.8242,-35.77539 -7.2157,-8.27908 -17.6975,-12.41797 -31.4453,-12.41797 z m 312.97263,0.45508 c -7.6714,0 -15.4581,0.68359 -23.3574,2.05078 -7.8993,1.36719 -13.9377,2.62044 -18.1152,3.75977 v 21.76172 h 1.1406 c 7.3676,-2.81033 14.5061,-4.93772 21.418,-6.38086 6.9119,-1.5191 13.1781,-2.2793 18.7988,-2.2793 4.6332,0 9.0766,0.30447 13.3301,0.91211 4.2534,0.60764 7.8993,1.78429 10.9375,3.53125 3.1901,1.82292 5.6219,4.32943 7.2929,7.51953 1.747,3.1901 2.6192,7.21701 2.6192,12.07812 v 3.30274 c -12.4566,0.60764 -24.115,1.5191 -34.9766,2.73437 -10.8615,1.21528 -20.1666,3.53321 -27.914,6.95118 -7.6715,3.41796 -13.596,8.12652 -17.7735,14.12695 -4.1015,5.92448 -6.1523,13.7092 -6.1523,23.35547 0,11.77303 3.9876,21.45723 11.9629,29.05273 7.9752,7.5955 17.6988,11.3945 29.1679,11.3945 6.2283,0 11.6578,-0.6089 16.2911,-1.8242 4.6332,-1.1393 8.7348,-2.5811 12.3046,-4.3281 3.0382,-1.3671 6.1537,-3.1901 9.3438,-5.4687 3.2661,-2.3546 5.8472,-4.1776 7.7461,-5.4688 v 13.5566 h 21.3066 v -86.35934 c 0,-8.20313 -1.2532,-15.07835 -3.7597,-20.62305 -2.5065,-5.54471 -6.1524,-10.06272 -10.9375,-13.55664 -4.8611,-3.56988 -10.6344,-6.07639 -17.3184,-7.51953 -6.6081,-1.5191 -14.3928,-2.2793 -23.3555,-2.2793 z m -176.1406,0.11328 c -18.7608,0 -33.8746,5.92448 -45.3437,17.77344 -11.3933,11.84896 -17.0899,28.18055 -17.0899,48.99219 0,11.16536 1.5185,20.92426 4.5567,29.27929 3.0381,8.35496 7.3303,15.26746 12.875,20.73626 5.4687,5.4687 12.0375,9.5704 19.7089,12.3048 7.6715,2.6584 16.1025,3.9883 25.293,3.9883 7.2157,0 14.0143,-0.9508 20.3945,-2.8497 6.4562,-1.8988 13.2548,-4.5566 20.3946,-7.9747 v -23.58386 h -1.1407 c -1.595,1.29123 -3.7597,2.84896 -6.4941,4.67186 -2.7344,1.7469 -5.6573,3.4167 -8.7715,5.0117 -3.5699,1.823 -7.5968,3.3041 -12.0781,4.4434 -4.4813,1.1393 -8.8854,1.709 -13.2148,1.709 -12.4566,0 -22.1409,-4.1016 -29.0528,-12.3048 -6.8359,-8.27899 -10.2539,-20.08867 -10.2539,-35.43155 0,-15.79861 3.4926,-27.76151 10.4805,-35.88868 7.0638,-8.20312 16.6734,-12.30468 28.8262,-12.30468 6.608,0 13.3674,1.36718 20.2792,4.10156 6.9879,2.73437 13.7472,6.6454 20.2793,11.73437 h 1.1407 v -23.8125 c -5.8486,-2.96224 -12.3054,-5.46875 -19.3692,-7.51953 -6.9878,-2.05078 -14.1282,-3.07617 -21.4199,-3.07617 z m -940.2832,2.96289 49.2187,63.80274 -49.6738,63.45895 h 24.9512 L 193,980.59838 l 36.1172,48.87692 h 27.002 l -50.0156,-64.59958 50.0156,-62.66211 h -25.0645 l -36.0039,48.08008 -35.8886,-48.08008 z m 436.24805,0 v 127.26169 h 21.41797 v -90.34763 c 5.69661,-4.63324 11.62109,-8.39301 17.77343,-11.27929 6.15235,-2.96224 12.53256,-4.44336 19.14063,-4.44336 4.10156,0 7.63346,0.19054 10.5957,0.57031 3.0382,0.30382 6.15365,0.8342 9.34375,1.59375 h 1.13867 V 903.5808 c -3.34201,-0.53168 -5.84852,-0.87348 -7.51953,-1.02539 -1.67101,-0.22787 -4.36805,-0.3418 -8.08984,-0.3418 -6.75998,0 -13.40538,1.4438 -19.9375,4.33008 -6.45616,2.81033 -13.93837,7.63281 -22.44531,14.46875 v -18.79883 z m 100.03125,0 v 127.26169 h 21.41992 V 902.21361 Z m 472.5918,0 v 127.26169 h 21.4199 V 902.21361 Z m -659.8965,14.12695 c 11.3932,0 19.8635,3.07618 25.4082,9.22852 5.6207,6.15234 8.469,14.85048 8.5449,26.0918 H 442.17 c 0.9114,-10.02604 4.7478,-18.41971 11.5078,-25.17969 6.8359,-6.75998 15.9878,-10.14063 27.457,-10.14063 z m 303.06056,0 c 11.39321,0 19.86151,3.07618 25.40621,9.22852 5.6207,6.15234 8.469,14.85048 8.545,26.0918 h -72.91606 c 0.91146,-10.02604 4.74783,-18.41971 11.50781,-25.17969 6.83594,-6.75998 15.98785,-10.14063 27.45704,-10.14063 z m -442.28516,2.73438 c 10.8615,0 18.9134,3.79905 24.1543,11.39453 5.2409,7.59549 7.8613,19.06337 7.8613,34.40625 0,15.79861 -3.3433,27.72418 -10.0273,35.77528 -6.684,8.0512 -15.9872,12.0762 -27.9121,12.0762 -5.5447,0 -10.5204,-0.4931 -14.9258,-1.4805 -4.3294,-0.9874 -9.533,-2.8476 -15.6094,-5.582 v -72.11906 c 5.6966,-4.32942 11.6604,-7.824 17.8887,-10.48242 6.2283,-2.65842 12.418,-3.98828 18.5703,-3.98828 z m 940.7383,43.63672 v 35.43359 c -5.3169,4.10155 -11.0881,7.63345 -17.3164,10.59565 -6.2283,2.8863 -13.1035,4.3281 -20.6231,4.3281 -9.0386,0 -15.7606,-1.8229 -20.166,-5.4688 -4.4054,-3.7217 -6.6074,-9.22773 -6.6074,-16.5194 0,-6.45616 1.8995,-11.50651 5.6973,-15.15234 3.7977,-3.72179 8.7714,-6.45617 14.9238,-8.20313 5.1649,-1.44314 12.1541,-2.54514 20.9648,-3.30469 8.8868,-0.75955 16.5949,-1.32921 23.127,-1.70898 z"
       id="text4053"
       inkscape:connector-curvature="0" />
  </g>
</svg>
