<?xml version="1.0" encoding="UTF-8" standalone="no"?>
<!-- Created with Inkscape (http://www.inkscape.org/) -->

<svg
   xmlns:dc="http://purl.org/dc/elements/1.1/"
   xmlns:cc="http://creativecommons.org/ns#"
   xmlns:rdf="http://www.w3.org/1999/02/22-rdf-syntax-ns#"
   xmlns:svg="http://www.w3.org/2000/svg"
   xmlns="http://www.w3.org/2000/svg"
   xmlns:sodipodi="http://sodipodi.sourceforge.net/DTD/sodipodi-0.dtd"
   xmlns:inkscape="http://www.inkscape.org/namespaces/inkscape"
   width="1000"
   height="1250"
   viewBox="0 0 1000 1250"
   version="1.1"
   id="svg1483"
   inkscape:version="0.92.4 (5da689c313, 2019-01-14)"
   sodipodi:docname="Pouco.svg">
  <defs
     id="defs1477" />
  <sodipodi:namedview
     id="base"
     pagecolor="#ffffff"
     bordercolor="#666666"
     borderopacity="1.0"
     inkscape:pageopacity="0.0"
     inkscape:pageshadow="2"
     inkscape:zoom="0.5"
     inkscape:cx="673.41396"
     inkscape:cy="752.28158"
     inkscape:document-units="px"
     inkscape:current-layer="layer1"
     showgrid="false"
     units="px"
     inkscape:window-width="681"
     inkscape:window-height="706"
     inkscape:window-x="-7"
     inkscape:window-y="0"
     inkscape:window-maximized="0" />
  <metadata
     id="metadata1480">
    <rdf:RDF>
      <cc:Work
         rdf:about="">
        <dc:format>image/svg+xml</dc:format>
        <dc:type
           rdf:resource="http://purl.org/dc/dcmitype/StillImage" />
        <dc:title></dc:title>
      </cc:Work>
    </rdf:RDF>
  </metadata>
  <g
     inkscape:label="Camada 1"
     inkscape:groupmode="layer"
     id="layer1"
     transform="translate(0,33.729184)">
    <path
       style="color:#000000;font-style:normal;font-variant:normal;font-weight:normal;font-stretch:normal;font-size:medium;line-height:normal;font-family:sans-serif;font-variant-ligatures:normal;font-variant-position:normal;font-variant-caps:normal;font-variant-numeric:normal;font-variant-alternates:normal;font-feature-settings:normal;text-indent:0;text-align:start;text-decoration:none;text-decoration-line:none;text-decoration-style:solid;text-decoration-color:#000000;letter-spacing:normal;word-spacing:normal;text-transform:none;writing-mode:lr-tb;direction:ltr;text-orientation:mixed;dominant-baseline:auto;baseline-shift:baseline;text-anchor:start;white-space:normal;shape-padding:0;clip-rule:nonzero;display:inline;overflow:visible;visibility:visible;opacity:1;isolation:auto;mix-blend-mode:normal;color-interpolation:sRGB;color-interpolation-filters:linearRGB;solid-color:#000000;solid-opacity:1;vector-effect:none;fill:#000000;fill-opacity:1;fill-rule:nonzero;stroke:none;stroke-width:12.3337822;stroke-linecap:butt;stroke-linejoin:miter;stroke-miterlimit:4;stroke-dasharray:none;stroke-dashoffset:0;stroke-opacity:1;color-rendering:auto;image-rendering:auto;shape-rendering:auto;text-rendering:auto;enable-background:accumulate"
       d="m 189.13555,618.81025 c -11.17311,-0.11165 -20.37075,0.76569 -21.34917,0.8608 -32.72206,-4.48489 -53.33275,17.28087 -53.33275,17.28087 l -0.17073,0.18344 -0.15664,0.19757 c -10.73022,13.57505 -21.653638,33.42941 -30.030585,50.05609 -4.188438,8.31333 -7.709354,15.79382 -10.157419,21.21512 -1.223995,2.71065 -2.176911,4.89932 -2.827883,6.46304 -0.32556,0.78186 -0.571218,1.39009 -0.76911,1.92905 -0.07232,0.19642 -0.144865,0.4289 -0.221516,0.67875 -4.777787,11.57943 -9.583607,18.30076 -14.244136,24.16867 -4.709868,5.93008 -9.590311,11.1981 -13.206891,19.1873 l -0.32455,0.71546 -0.134021,0.77332 c -7.199626,41.49885 -18.339428,65.47474 -27.332452,78.90126 -4.496522,6.71327 -8.457803,10.79964 -11.1692143,13.1575 C 0.99706207,856.93626 0,857.34291 0,857.34291 l 5.3750097,11.10005 c 0,0 2.8736957,-1.46856 6.4263953,-4.55802 3.552708,-3.08937 8.249279,-8.02365 13.32402,-15.6002 10.067024,-15.03002 21.607602,-40.46699 29.044135,-82.66615 2.708022,-5.73904 6.496628,-9.97394 11.365374,-16.10397 5.015926,-6.31542 10.835061,-14.49882 16.153348,-27.50601 l 2.198591,-5.37646 c 0.439134,-1.00353 0.720705,-1.68567 1.292553,-2.95212 2.373868,-5.25701 5.8302,-12.60319 9.930262,-20.74099 8.152972,-16.18218 18.971042,-35.57024 28.523442,-47.72066 0.4257,-0.45825 16.25977,-17.30752 43.17108,-13.2605 l 0.76347,0.1143 0.76766,-0.0776 c 0,0 9.68981,-0.96072 20.67746,-0.85092 5.49386,0.0549 11.28662,0.38892 16.12799,1.18395 4.84137,0.795 8.69485,2.28152 9.96262,3.27667 l 3.00433,2.35802 3.45024,-1.63834 c 0,0 29.14538,-14.05733 60.33204,5.03074 l 1.00761,0.61666 1.16562,0.20039 c 0,0 15.27666,2.63227 31.35558,4.97287 8.03947,1.17029 16.27509,2.26951 23.00725,2.93659 3.36616,0.33353 6.34533,0.56119 8.84369,0.62794 2.0293,0.0543 3.39419,0.2768 5.4823,-0.27376 5.48822,0.59666 11.00752,-0.82452 18.40974,-2.44551 8.2703,-1.81106 18.03951,-4.23217 27.86587,-6.16386 9.8263,-1.9317 19.71977,-3.34938 27.85172,-3.26399 8.13195,0.0854 14.09934,1.82856 16.97043,4.52131 l 1.21641,1.14162 1.62564,0.37254 c 0,0 20.08211,4.60006 43.18662,11.24117 22.59058,6.49339 48.34392,15.37903 59.33721,22.40473 0.67576,0.91017 4.60381,6.27797 5.28895,10.69788 0.37238,2.40219 0.21459,3.66248 -1.45628,5.30308 -1.60382,1.57473 -5.72347,3.66449 -13.85036,4.56505 -1.78364,-0.48047 -13.38311,-3.58909 -26.83856,-6.3812 -7.26052,-1.5066 -14.74827,-2.85229 -21.12764,-3.48552 -3.18972,-0.3166 -6.08804,-0.46627 -8.74202,-0.3048 -1.93814,0.1179 -3.79714,0.18556 -5.79277,1.13597 -2.35349,-0.0338 -18.40272,-0.29227 -40.11878,-2.01511 l -1.22495,-0.0974 -29.00035,9.43068 -50.72076,65.63369 3.38957,3.82138 c 0,0 1.58995,1.67599 3.79459,2.86464 2.20459,1.18864 5.41598,2.28396 9.48145,2.41587 8.0482,0.26112 19.02992,-3.13118 33.63457,-14.6392 0.48149,-0.29378 24.11356,-14.67404 52.37747,-22.81536 14.27722,-4.11254 29.5926,-6.52707 43.21625,-4.9362 13.10378,1.53018 24.4654,6.51346 33.2804,17.31192 0.20411,1.73981 0.64442,6.3526 -0.71116,11.30466 -0.81911,2.99214 -2.18333,5.5408 -4.33786,7.32384 -2.1246,1.75819 -5.22986,3.10503 -10.87009,2.99163 -2.73397,-0.55501 -19.16736,-3.42501 -43.32208,3.6351 -26.1487,7.64293 -61.11522,26.92059 -97.69063,72.09813 -4.52419,1.70795 -39.50704,15.66215 -59.85655,48.19766 -0.5017,0.55657 -31.6128,34.86837 -81.49494,33.58233 l -0.54607,-0.0139 -0.54051,0.0833 c 0,0 -4.48408,0.81002 -13.38325,4.84167 -8.89925,4.03156 -23.00299,11.42232 -44.49761,25.06472 l 6.60977,10.41282 c 21.13408,-13.41356 34.78236,-20.53068 42.97781,-24.24348 7.8027,-3.53481 9.76936,-3.80828 9.95707,-3.83125 55.62512,1.00118 90.30047,-37.8567 90.30047,-37.8567 l 0.36971,-0.41349 0.2893,-0.47137 c 18.77979,-30.63661 55.71615,-44.46792 55.71615,-44.46792 l 1.62146,-0.59129 1.07949,-1.34623 c 35.61461,-44.42735 68.66158,-62.22485 92.54847,-69.20667 23.88684,-6.98183 38.00069,-3.31338 38.00069,-3.31338 l 0.64629,0.15946 0.66462,0.0183 c 8.07972,0.21964 14.6629,-2.00315 19.28468,-5.82802 4.62181,-3.82485 7.09018,-8.89452 8.36951,-13.56815 2.55877,-9.34721 0.85373,-18.12614 0.85373,-18.12614 l -0.26105,-1.47887 -0.91158,-1.19383 c -11.11409,-14.54703 -26.65685,-21.44959 -42.71533,-23.3248 -16.05848,-1.87522 -32.79438,0.93669 -48.06071,5.33413 -30.53279,8.79488 -55.59341,24.25755 -55.59341,24.25755 l -0.31753,0.19616 -0.29212,0.23141 c -12.47867,9.92545 -20.41049,12.04728 -24.90382,12.1937 l 39.99602,-51.7551 23.08203,-7.50589 c 23.16065,1.79063 41.40159,2.01513 41.40159,2.01513 l 2.24939,0.0254 1.73712,-1.42948 c -1.23809,1.01854 -0.5887,0.29463 0.98354,0.19897 1.57218,-0.0956 3.97624,-0.01 6.77349,0.26812 5.59444,0.5553 12.81356,1.82978 19.84065,3.28796 14.05426,2.91635 27.37198,6.53219 27.37198,6.53219 l 1.08094,0.29352 1.11338,-0.10443 c 10.41514,-0.97764 17.58578,-3.58183 22.26928,-8.1804 4.68343,-4.59858 5.78106,-10.98038 5.00386,-15.9939 -1.55432,-10.02705 -8.51906,-17.44457 -8.51906,-17.44457 l -0.54469,-0.63783 -0.69571,-0.4685 c -13.98099,-9.41088 -40.17167,-17.76957 -63.64682,-24.51721 -22.22123,-6.38723 -40.42736,-10.60596 -42.44011,-11.07042 -6.40082,-5.12199 -14.89041,-6.58922 -23.83705,-6.68318 -9.62174,-0.10103 -20.14288,1.48532 -30.36077,3.49399 -10.21782,2.00866 -20.12208,4.46519 -28.1241,6.2175 -8.00197,1.75231 -14.94908,2.28833 -15.23606,2.2296 -1.1516,0.29658 -2.30305,0.29192 -3.47994,0.29777 0,0 -0.21661,-0.0357 -2.20842,-0.0889 -1.9918,-0.0532 -4.76333,-0.25644 -7.95746,-0.57293 -6.38817,-0.63298 -14.50892,-1.7119 -22.44701,-2.86743 -15.38541,-2.23964 -29.18338,-4.61588 -30.07857,-4.76967 -31.03124,-18.27435 -59.68141,-9.24761 -67.47096,-6.23303 -3.73513,-2.02235 -7.97754,-3.03547 -12.50555,-3.77905 -5.8174,-0.95528 -12.11527,-1.28877 -18.00485,-1.34762 z"
       id="path2978-0"
       inkscape:connector-curvature="0"
       sodipodi:nodetypes="scccccccccccccscccsccccccccccccsccccccscccccscccsccccccscccccccsccsccccsccccccccccccccccccccsccccscccccccccccccccccccccscsscccccscccs" />
    <path
       style="color:#000000;font-style:normal;font-variant:normal;font-weight:normal;font-stretch:normal;font-size:medium;line-height:normal;font-family:sans-serif;font-variant-ligatures:normal;font-variant-position:normal;font-variant-caps:normal;font-variant-numeric:normal;font-variant-alternates:normal;font-feature-settings:normal;text-indent:0;text-align:start;text-decoration:none;text-decoration-line:none;text-decoration-style:solid;text-decoration-color:#000000;letter-spacing:normal;word-spacing:normal;text-transform:none;writing-mode:lr-tb;direction:ltr;text-orientation:mixed;dominant-baseline:auto;baseline-shift:baseline;text-anchor:start;white-space:normal;shape-padding:0;clip-rule:nonzero;display:inline;overflow:visible;visibility:visible;opacity:1;isolation:auto;mix-blend-mode:normal;color-interpolation:sRGB;color-interpolation-filters:linearRGB;solid-color:#000000;solid-opacity:1;vector-effect:none;fill:#000000;fill-opacity:1;fill-rule:nonzero;stroke:none;stroke-width:12.3337822;stroke-linecap:butt;stroke-linejoin:miter;stroke-miterlimit:4;stroke-dasharray:none;stroke-dashoffset:0;stroke-opacity:1;color-rendering:auto;image-rendering:auto;shape-rendering:auto;text-rendering:auto;enable-background:accumulate"
       d="m 320.51164,642.74607 -3.11156,11.93403 c 0,0 18.98551,5.14926 32.13171,14.61946 6.57314,4.73511 11.23821,10.27201 12.36164,15.90641 1.12342,5.6344 -0.47165,12.58188 -9.92319,22.35674 l -0.24695,0.25543 -0.21587,0.28222 c 0,0 -14.32022,18.69548 -30.35934,39.29331 -15.90797,20.42938 -33.65445,42.84686 -40.18092,50.11677 -1.01468,0.75677 -30.80748,23.04027 -45.75917,38.63149 -2.12141,0.33719 -8.63364,1.26826 -15.56775,0.0157 -4.07804,-0.73679 -7.63406,-2.22581 -9.88502,-4.45357 -2.14318,-2.12116 -3.59569,-5.01401 -3.47425,-10.56812 0.20541,-0.32622 0.6491,-0.94279 1.88669,-1.93605 2.9614,-2.37668 10.07389,-6.28114 25.16074,-9.56332 l 0.88052,-0.19192 0.78883,-0.43464 c 6.31441,-3.48544 12.1235,-5.87783 20.01001,-15.87254 7.88651,-9.99472 18.56349,-27.53219 38.58353,-63.71032 l -0.44737,0.69429 c 0,0 2.14323,-3.15245 2.75882,-7.4452 0.61549,-4.29274 0.0817,-10.24335 -3.24565,-17.26534 -6.65457,-14.04399 -23.85887,-32.58338 -66.02884,-56.50925 l -6.08624,10.7261 c 41.0149,23.27056 56.11526,40.81976 60.96985,51.06505 2.42734,5.12267 2.44923,8.36625 2.1816,10.23221 -0.26753,1.86597 -0.44729,1.83731 -0.44729,1.83731 l -0.24695,0.33163 -0.19898,0.36126 c -19.93271,36.02037 -30.62159,53.35773 -37.47434,62.04232 -6.57885,8.33753 -9.06406,8.82277 -15.55504,12.32635 -15.58958,3.49171 -24.27141,7.70411 -29.32217,11.75766 -2.58094,2.07137 -4.22051,4.13074 -5.19582,5.9409 -0.97531,1.81016 -1.30673,4.1657 -1.30673,4.1657 v 0.0339 0.0324 c -0.43366,8.80754 2.40234,16.0319 7.13619,20.71698 4.73385,4.68508 10.76656,6.81124 16.36923,7.82335 11.20548,2.02439 21.85723,-0.25819 21.85723,-0.25819 l 1.96999,-0.39654 1.3589,-1.48172 c 12.36524,-13.48061 46.34338,-39.25375 46.34338,-39.25375 l 0.47273,-0.35702 0.39796,-0.43887 c 7.41276,-8.20531 24.95635,-30.49253 41.03181,-51.13702 16.02083,-20.57435 30.21857,-39.11162 30.31561,-39.23827 10.8633,-11.40616 14.80343,-22.8577 12.79341,-32.93891 -2.03372,-10.2002 -9.3074,-17.78212 -17.24838,-23.5026 -15.88205,-11.44098 -36.22975,-16.54566 -36.22975,-16.54566 z"
       id="path2980-6"
       inkscape:connector-curvature="0" />
    <path
       style="color:#000000;font-style:normal;font-variant:normal;font-weight:normal;font-stretch:normal;font-size:medium;line-height:normal;font-family:sans-serif;font-variant-ligatures:normal;font-variant-position:normal;font-variant-caps:normal;font-variant-numeric:normal;font-variant-alternates:normal;font-feature-settings:normal;text-indent:0;text-align:start;text-decoration:none;text-decoration-line:none;text-decoration-style:solid;text-decoration-color:#000000;letter-spacing:normal;word-spacing:normal;text-transform:none;writing-mode:lr-tb;direction:ltr;text-orientation:mixed;dominant-baseline:auto;baseline-shift:baseline;text-anchor:start;white-space:normal;shape-padding:0;clip-rule:nonzero;display:inline;overflow:visible;visibility:visible;opacity:1;isolation:auto;mix-blend-mode:normal;color-interpolation:sRGB;color-interpolation-filters:linearRGB;solid-color:#000000;solid-opacity:1;vector-effect:none;fill:#000000;fill-opacity:1;fill-rule:nonzero;stroke:none;stroke-width:12.3337822;stroke-linecap:butt;stroke-linejoin:miter;stroke-miterlimit:4;stroke-dasharray:none;stroke-dashoffset:0;stroke-opacity:1;color-rendering:auto;image-rendering:auto;shape-rendering:auto;text-rendering:auto;enable-background:accumulate"
       d="m 381.38272,643.67602 -4.44933,11.50223 c 0,0 12.85677,5.10615 22.42875,13.41009 4.78594,4.15197 8.50699,8.96338 9.82578,13.69797 1.31878,4.7346 0.90623,9.62956 -4.08952,16.43137 l 9.94152,7.30125 c 6.72436,-9.15541 8.30795,-18.85792 6.02845,-27.04175 -2.27959,-8.18381 -7.7514,-14.61123 -13.6232,-19.70521 -11.74369,-10.18796 -26.06245,-15.59595 -26.06245,-15.59595 z"
       id="path2982-5"
       inkscape:connector-curvature="0" />
    <path
       style="color:#000000;font-style:normal;font-variant:normal;font-weight:normal;font-stretch:normal;font-size:medium;line-height:normal;font-family:sans-serif;font-variant-ligatures:normal;font-variant-position:normal;font-variant-caps:normal;font-variant-numeric:normal;font-variant-alternates:normal;font-feature-settings:normal;text-indent:0;text-align:start;text-decoration:none;text-decoration-line:none;text-decoration-style:solid;text-decoration-color:#000000;letter-spacing:normal;word-spacing:normal;text-transform:none;writing-mode:lr-tb;direction:ltr;text-orientation:mixed;dominant-baseline:auto;baseline-shift:baseline;text-anchor:start;white-space:normal;shape-padding:0;clip-rule:nonzero;display:inline;overflow:visible;visibility:visible;opacity:1;isolation:auto;mix-blend-mode:normal;color-interpolation:sRGB;color-interpolation-filters:linearRGB;solid-color:#000000;solid-opacity:1;vector-effect:none;fill:#000000;fill-opacity:1;fill-rule:nonzero;stroke:none;stroke-width:12.3337822;stroke-linecap:butt;stroke-linejoin:miter;stroke-miterlimit:4;stroke-dasharray:none;stroke-dashoffset:0;stroke-opacity:1;color-rendering:auto;image-rendering:auto;shape-rendering:auto;text-rendering:auto;enable-background:accumulate"
       d="m 184.67921,761.62364 c -15.609,8.00645 -25.35156,16.00179 -31.07336,24.10234 -5.72189,8.10054 -7.09805,16.47338 -5.84075,23.36007 2.51461,13.77336 13.88988,21.59475 13.88988,21.59475 l 1.97563,1.44357 2.42855,-0.30478 c 15.17067,-1.90214 25.07362,-4.65553 31.35841,-7.06137 6.28486,-2.40584 9.55347,-4.98275 9.55347,-4.98275 l -7.98571,-9.39964 c 0,0 -0.80393,0.88414 -5.97759,2.86463 -4.81194,1.84203 -13.08045,4.16151 -25.74634,5.92963 -2.31129,-2.23782 -6.3532,-6.76688 -7.36334,-12.29954 -0.7126,-3.90325 -0.29954,-8.24997 3.7819,-14.02818 4.08143,-5.7782 12.15535,-12.82055 26.6283,-20.24425 z"
       id="path2984-2"
       inkscape:connector-curvature="0" />
    <path
       style="color:#000000;font-style:normal;font-variant:normal;font-weight:normal;font-stretch:normal;font-size:medium;line-height:normal;font-family:sans-serif;font-variant-ligatures:normal;font-variant-position:normal;font-variant-caps:normal;font-variant-numeric:normal;font-variant-alternates:normal;font-feature-settings:normal;text-indent:0;text-align:start;text-decoration:none;text-decoration-line:none;text-decoration-style:solid;text-decoration-color:#000000;letter-spacing:normal;word-spacing:normal;text-transform:none;writing-mode:lr-tb;direction:ltr;text-orientation:mixed;dominant-baseline:auto;baseline-shift:baseline;text-anchor:start;white-space:normal;shape-padding:0;clip-rule:nonzero;display:inline;overflow:visible;visibility:visible;opacity:1;isolation:auto;mix-blend-mode:normal;color-interpolation:sRGB;color-interpolation-filters:linearRGB;solid-color:#000000;solid-opacity:1;vector-effect:none;fill:#000000;fill-opacity:1;fill-rule:nonzero;stroke:none;stroke-width:12.3337822;stroke-linecap:butt;stroke-linejoin:miter;stroke-miterlimit:4;stroke-dasharray:none;stroke-dashoffset:0;stroke-opacity:1;color-rendering:auto;image-rendering:auto;shape-rendering:auto;text-rendering:auto;enable-background:accumulate"
       d="m 210.33379,717.34478 c -18.03019,8.73075 -25.04167,21.50725 -27.05724,31.76343 -1.00783,5.12809 -0.93421,9.61449 -0.92431,12.55071 0.006,1.46811 -0.0419,2.58955 -0.0708,2.79265 -0.0144,0.10155 -0.0427,-0.0588 0.23005,-0.63219 0.27274,-0.57332 1.06967,-1.66702 2.29735,-2.26065 -2.13436,0.85964 3.57959,7.40286 5.36936,11.10429 1.73207,-0.83752 2.91042,-2.36555 3.47143,-3.54479 0.56102,-1.17926 0.72822,-2.11786 0.84527,-2.9507 0.23409,-1.6657 0.19558,-3.03635 0.19052,-4.54953 -0.0102,-3.02637 -0.0289,-6.45876 0.69288,-10.13201 1.44379,-7.34651 5.17915,-15.70241 20.33175,-23.03975 z"
       id="path2986-0"
       inkscape:connector-curvature="0"
       sodipodi:nodetypes="cccccccsssccc" />
    <path
       style="color:#000000;font-style:normal;font-variant:normal;font-weight:normal;font-stretch:normal;font-size:medium;line-height:normal;font-family:sans-serif;font-variant-ligatures:normal;font-variant-position:normal;font-variant-caps:normal;font-variant-numeric:normal;font-variant-alternates:normal;font-feature-settings:normal;text-indent:0;text-align:start;text-decoration:none;text-decoration-line:none;text-decoration-style:solid;text-decoration-color:#000000;letter-spacing:normal;word-spacing:normal;text-transform:none;writing-mode:lr-tb;direction:ltr;text-orientation:mixed;dominant-baseline:auto;baseline-shift:baseline;text-anchor:start;white-space:normal;shape-padding:0;clip-rule:nonzero;display:inline;overflow:visible;visibility:visible;opacity:1;isolation:auto;mix-blend-mode:normal;color-interpolation:sRGB;color-interpolation-filters:linearRGB;solid-color:#000000;solid-opacity:1;vector-effect:none;fill:#000000;fill-opacity:1;fill-rule:nonzero;stroke:none;stroke-width:12.3337822;stroke-linecap:butt;stroke-linejoin:miter;stroke-miterlimit:4;stroke-dasharray:none;stroke-dashoffset:0;stroke-opacity:1;color-rendering:auto;image-rendering:auto;shape-rendering:auto;text-rendering:auto;enable-background:accumulate"
       d="m 180.982,685.65612 -12.12594,2.25078 c 0,0 2.40066,13.08801 6.77912,25.553 2.18919,6.23249 4.76081,12.32723 8.457,17.08894 1.84809,2.38087 4.03,4.54985 7.12201,5.83932 3.09205,1.28945 7.1849,1.15845 10.37194,-0.51649 l -5.69255,-10.83051 c 0.0304,-0.0142 0.10751,-0.0201 0.068,-0.0368 -0.16509,-0.0688 -1.0716,-0.6607 -2.12517,-2.01793 -2.10703,-2.71448 -4.59088,-7.99814 -6.56325,-13.61332 -3.94473,-11.23037 -6.29085,-23.71709 -6.29085,-23.71709 z"
       id="path2988-0"
       inkscape:connector-curvature="0" />
    <path
       style="color:#000000;font-style:normal;font-variant:normal;font-weight:normal;font-stretch:normal;font-size:medium;line-height:normal;font-family:sans-serif;font-variant-ligatures:normal;font-variant-position:normal;font-variant-caps:normal;font-variant-numeric:normal;font-variant-alternates:normal;font-feature-settings:normal;text-indent:0;text-align:start;text-decoration:none;text-decoration-line:none;text-decoration-style:solid;text-decoration-color:#000000;letter-spacing:normal;word-spacing:normal;text-transform:none;writing-mode:lr-tb;direction:ltr;text-orientation:mixed;dominant-baseline:auto;baseline-shift:baseline;text-anchor:start;white-space:normal;shape-padding:0;clip-rule:nonzero;display:inline;overflow:visible;visibility:visible;opacity:1;isolation:auto;mix-blend-mode:normal;color-interpolation:sRGB;color-interpolation-filters:linearRGB;solid-color:#000000;solid-opacity:1;vector-effect:none;fill:#000000;fill-opacity:1;fill-rule:nonzero;stroke:none;stroke-width:12.3337822;stroke-linecap:butt;stroke-linejoin:miter;stroke-miterlimit:4;stroke-dasharray:none;stroke-dashoffset:0;stroke-opacity:1;color-rendering:auto;image-rendering:auto;shape-rendering:auto;text-rendering:auto;enable-background:accumulate"
       d="m 124.35137,695.53838 -8.68842,8.75472 c 0,0 14.36659,14.31738 30.83069,25.27077 8.23208,5.47669 16.92628,10.26002 25.64187,11.82821 4.35786,0.78409 8.88682,0.7363 13.12222,-1.03578 4.23547,-1.77209 7.8092,-5.36274 9.96414,-10.0163 l -11.19184,-5.18172 c -1.11662,2.41134 -2.17257,3.25056 -3.53347,3.81997 -1.36092,0.5694 -3.39564,0.77579 -6.178,0.27517 -5.56467,-1.00125 -13.45681,-4.94433 -20.99355,-9.95844 -15.07356,-10.02825 -28.97364,-23.7566 -28.97364,-23.7566 z"
       id="path2990-7"
       inkscape:connector-curvature="0" />
    <path
       style="color:#000000;font-style:normal;font-variant:normal;font-weight:normal;font-stretch:normal;font-size:medium;line-height:normal;font-family:sans-serif;font-variant-ligatures:normal;font-variant-position:normal;font-variant-caps:normal;font-variant-numeric:normal;font-variant-alternates:normal;font-feature-settings:normal;text-indent:0;text-align:start;text-decoration:none;text-decoration-line:none;text-decoration-style:solid;text-decoration-color:#000000;letter-spacing:normal;word-spacing:normal;text-transform:none;writing-mode:lr-tb;direction:ltr;text-orientation:mixed;dominant-baseline:auto;baseline-shift:baseline;text-anchor:start;white-space:normal;shape-padding:0;clip-rule:nonzero;display:inline;overflow:visible;visibility:visible;opacity:1;isolation:auto;mix-blend-mode:normal;color-interpolation:sRGB;color-interpolation-filters:linearRGB;solid-color:#000000;solid-opacity:1;vector-effect:none;fill:#000000;fill-opacity:1;fill-rule:nonzero;stroke:none;stroke-width:12.3337822;stroke-linecap:butt;stroke-linejoin:miter;stroke-miterlimit:4;stroke-dasharray:none;stroke-dashoffset:0;stroke-opacity:1;color-rendering:auto;image-rendering:auto;shape-rendering:auto;text-rendering:auto;enable-background:accumulate"
       d="m 359.0232,758.36108 c -21.52336,24.24372 -40.48206,67.00557 -40.77358,67.66429 -5.48556,10.87445 -11.83436,16.29993 -17.80724,18.69345 -5.97903,2.39592 -11.92466,1.90566 -17.23993,-0.38525 -5.31532,-2.29091 -9.79781,-6.50471 -12.10622,-10.91094 -2.30841,-4.40624 -2.59495,-8.52911 -0.54051,-12.32492 l -10.84741,-5.87037 c -4.21567,7.78875 -3.30337,16.72996 0.46284,23.91886 3.7662,7.18898 10.23348,13.1011 18.15014,16.5132 7.91655,3.4121 17.48593,4.2038 26.7087,0.50804 9.22272,-3.69585 17.75565,-11.73042 24.25048,-24.62307 l 0.0621,-0.12419 0.0578,-0.12558 c 0,0 19.67831,-43.15577 38.84594,-64.74607 z"
       id="path2992-2"
       inkscape:connector-curvature="0" />
    <path
       style="color:#000000;font-style:normal;font-variant:normal;font-weight:normal;font-stretch:normal;font-size:medium;line-height:normal;font-family:sans-serif;font-variant-ligatures:normal;font-variant-position:normal;font-variant-caps:normal;font-variant-numeric:normal;font-variant-alternates:normal;font-feature-settings:normal;text-indent:0;text-align:start;text-decoration:none;text-decoration-line:none;text-decoration-style:solid;text-decoration-color:#000000;letter-spacing:normal;word-spacing:normal;text-transform:none;writing-mode:lr-tb;direction:ltr;text-orientation:mixed;dominant-baseline:auto;baseline-shift:baseline;text-anchor:start;white-space:normal;shape-padding:0;clip-rule:nonzero;display:inline;overflow:visible;visibility:visible;opacity:1;isolation:auto;mix-blend-mode:normal;color-interpolation:sRGB;color-interpolation-filters:linearRGB;solid-color:#000000;solid-opacity:1;vector-effect:none;fill:#000000;fill-opacity:1;fill-rule:nonzero;stroke:none;stroke-width:12.3337822;stroke-linecap:butt;stroke-linejoin:miter;stroke-miterlimit:4;stroke-dasharray:none;stroke-dashoffset:0;stroke-opacity:1;color-rendering:auto;image-rendering:auto;shape-rendering:auto;text-rendering:auto;enable-background:accumulate"
       d="m 199.6853,853.72049 c -9.44908,49.86209 32.85138,83.16151 32.85145,83.16151 l 7.65546,-9.66918 c 0,0 -36.38437,-29.00024 -28.38804,-71.19642 z"
       id="path2994-8"
       inkscape:connector-curvature="0" />
    <path
       style="color:#000000;font-style:normal;font-variant:normal;font-weight:normal;font-stretch:normal;font-size:medium;line-height:normal;font-family:sans-serif;font-variant-ligatures:normal;font-variant-position:normal;font-variant-caps:normal;font-variant-numeric:normal;font-variant-alternates:normal;font-feature-settings:normal;text-indent:0;text-align:start;text-decoration:none;text-decoration-line:none;text-decoration-style:solid;text-decoration-color:#000000;letter-spacing:normal;word-spacing:normal;text-transform:none;writing-mode:lr-tb;direction:ltr;text-orientation:mixed;dominant-baseline:auto;baseline-shift:baseline;text-anchor:start;white-space:normal;shape-padding:0;clip-rule:nonzero;display:inline;overflow:visible;visibility:visible;opacity:1;isolation:auto;mix-blend-mode:normal;color-interpolation:sRGB;color-interpolation-filters:linearRGB;solid-color:#000000;solid-opacity:1;vector-effect:none;fill:#000000;fill-opacity:1;fill-rule:nonzero;stroke:none;stroke-width:12.3337822;stroke-linecap:butt;stroke-linejoin:miter;stroke-miterlimit:4;stroke-dasharray:none;stroke-dashoffset:0;stroke-opacity:1;color-rendering:auto;image-rendering:auto;shape-rendering:auto;text-rendering:auto;enable-background:accumulate"
       d="m 294.88385,686.3363 c -10.72949,5.88349 -14.88614,9.97961 -14.88614,9.97961 l 8.86622,8.57411 c 0,0 2.02607,-2.2972 11.94959,-7.73872 z"
       id="path2996-7"
       inkscape:connector-curvature="0" />
    <path
       style="color:#000000;font-style:normal;font-variant:normal;font-weight:normal;font-stretch:normal;font-size:medium;line-height:normal;font-family:sans-serif;font-variant-ligatures:normal;font-variant-position:normal;font-variant-caps:normal;font-variant-numeric:normal;font-variant-alternates:normal;font-feature-settings:normal;text-indent:0;text-align:start;text-decoration:none;text-decoration-line:none;text-decoration-style:solid;text-decoration-color:#000000;letter-spacing:normal;word-spacing:normal;text-transform:none;writing-mode:lr-tb;direction:ltr;text-orientation:mixed;dominant-baseline:auto;baseline-shift:baseline;text-anchor:start;white-space:normal;shape-padding:0;clip-rule:nonzero;display:inline;overflow:visible;visibility:visible;opacity:1;isolation:auto;mix-blend-mode:normal;color-interpolation:sRGB;color-interpolation-filters:linearRGB;solid-color:#000000;solid-opacity:1;vector-effect:none;fill:#000000;fill-opacity:1;fill-rule:nonzero;stroke:none;stroke-width:6.1668911;stroke-linecap:butt;stroke-linejoin:miter;stroke-miterlimit:4;stroke-dasharray:none;stroke-dashoffset:0;stroke-opacity:1;color-rendering:auto;image-rendering:auto;shape-rendering:auto;text-rendering:auto;enable-background:accumulate"
       d="m 180.54597,804.39117 c -2.42306,0.0532 -4.8264,0.40724 -7.12208,0.91019 -9.1827,2.01179 -16.98872,6.61545 -16.98872,6.61545 l 3.10736,5.32706 c 0,0 7.24362,-4.17502 15.20079,-5.91833 3.97863,-0.87166 8.04828,-1.08262 11.29622,-0.1242 3.24796,0.95844 5.78517,2.82907 7.56233,7.09947 l 5.69392,-2.3693 c -2.4037,-5.77615 -6.76338,-9.24481 -11.51067,-10.64568 -2.37364,-0.70041 -4.81614,-0.94787 -7.23915,-0.89466 z"
       id="path2998-2"
       inkscape:connector-curvature="0" />
    <path
       style="color:#000000;font-style:normal;font-variant:normal;font-weight:normal;font-stretch:normal;font-size:medium;line-height:normal;font-family:sans-serif;font-variant-ligatures:normal;font-variant-position:normal;font-variant-caps:normal;font-variant-numeric:normal;font-variant-alternates:normal;font-feature-settings:normal;text-indent:0;text-align:start;text-decoration:none;text-decoration-line:none;text-decoration-style:solid;text-decoration-color:#000000;letter-spacing:normal;word-spacing:normal;text-transform:none;writing-mode:lr-tb;direction:ltr;text-orientation:mixed;dominant-baseline:auto;baseline-shift:baseline;text-anchor:start;white-space:normal;shape-padding:0;clip-rule:nonzero;display:inline;overflow:visible;visibility:visible;opacity:1;isolation:auto;mix-blend-mode:normal;color-interpolation:sRGB;color-interpolation-filters:linearRGB;solid-color:#000000;solid-opacity:1;vector-effect:none;fill:#000000;fill-opacity:1;fill-rule:nonzero;stroke:none;stroke-width:6.1668911;stroke-linecap:butt;stroke-linejoin:miter;stroke-miterlimit:4;stroke-dasharray:none;stroke-dashoffset:0;stroke-opacity:1;color-rendering:auto;image-rendering:auto;shape-rendering:auto;text-rendering:auto;enable-background:accumulate"
       d="m 238.44238,814.29458 c -6.31875,-0.36821 -12.09158,1.80695 -16.92246,4.68076 -4.83089,2.87382 -8.79514,6.48299 -11.62924,9.33186 -1.41705,1.42448 -2.55398,2.66579 -3.3275,3.49684 -0.38668,0.41552 -0.69382,0.73677 -0.82546,0.86365 -0.0657,0.063 -0.10462,0.0824 0.0426,-0.0241 0.0735,-0.0537 0.18192,-0.14641 0.50661,-0.28504 0.32478,-0.13873 1.01362,-0.48776 2.20568,-0.0537 l -2.10972,5.79553 c 1.22147,0.4448 1.95056,0.0898 2.32698,-0.0704 0.37641,-0.16077 0.54867,-0.29106 0.69569,-0.39793 0.29406,-0.21364 0.44441,-0.36302 0.61104,-0.52351 0.33328,-0.32107 0.65906,-0.6714 1.06121,-1.1035 0.80429,-0.86421 1.86947,-2.02494 3.18632,-3.34867 2.63375,-2.64754 6.2629,-5.91453 10.40863,-8.38074 4.14566,-2.46632 8.73278,-4.09689 13.41151,-3.82424 4.67873,0.27264 9.65188,2.33243 14.99899,8.10416 l 4.52419,-4.19112 c -6.1835,-6.67441 -12.846,-9.70166 -19.16475,-10.06986 z"
       id="path3000-7"
       inkscape:connector-curvature="0" />
    <path
       style="color:#000000;font-style:normal;font-variant:normal;font-weight:normal;font-stretch:normal;font-size:medium;line-height:normal;font-family:sans-serif;font-variant-ligatures:normal;font-variant-position:normal;font-variant-caps:normal;font-variant-numeric:normal;font-variant-alternates:normal;font-feature-settings:normal;text-indent:0;text-align:start;text-decoration:none;text-decoration-line:none;text-decoration-style:solid;text-decoration-color:#000000;letter-spacing:normal;word-spacing:normal;text-transform:none;writing-mode:lr-tb;direction:ltr;text-orientation:mixed;dominant-baseline:auto;baseline-shift:baseline;text-anchor:start;white-space:normal;shape-padding:0;clip-rule:nonzero;display:inline;overflow:visible;visibility:visible;opacity:1;isolation:auto;mix-blend-mode:normal;color-interpolation:sRGB;color-interpolation-filters:linearRGB;solid-color:#000000;solid-opacity:1;vector-effect:none;fill:#000000;fill-opacity:1;fill-rule:nonzero;stroke:none;stroke-width:6.1668911;stroke-linecap:butt;stroke-linejoin:miter;stroke-miterlimit:4;stroke-dasharray:none;stroke-dashoffset:0;stroke-opacity:1;color-rendering:auto;image-rendering:auto;shape-rendering:auto;text-rendering:auto;enable-background:accumulate"
       d="m 286.16162,806.38088 -1.92909,2.56829 c -6.71214,8.93388 -9.4313,16.58593 -8.90003,22.97063 0.53125,6.38459 4.72973,11.12894 10.14187,13.04878 10.8243,3.83967 26.27342,-1.62784 35.14875,-16.59359 l 2.54429,-4.29132 -4.97567,-0.357 c -15.74254,-1.12878 -21.84294,-9.01849 -29.54369,-15.31233 z m 1.16698,9.03697 c 5.74141,5.0264 12.83222,11.48376 25.21712,13.75022 -7.697,9.56056 -18.6775,12.23421 -25.00968,9.98803 -3.56764,-1.26556 -5.71141,-3.58176 -6.05805,-7.74721 -0.30535,-3.66947 1.29639,-9.15078 5.85061,-15.99104 z"
       id="path3002-0"
       inkscape:connector-curvature="0" />
    <path
       style="color:#000000;font-style:normal;font-variant:normal;font-weight:normal;font-stretch:normal;font-size:medium;line-height:normal;font-family:sans-serif;font-variant-ligatures:normal;font-variant-position:normal;font-variant-caps:normal;font-variant-numeric:normal;font-variant-alternates:normal;font-feature-settings:normal;text-indent:0;text-align:start;text-decoration:none;text-decoration-line:none;text-decoration-style:solid;text-decoration-color:#000000;letter-spacing:normal;word-spacing:normal;text-transform:none;writing-mode:lr-tb;direction:ltr;text-orientation:mixed;dominant-baseline:auto;baseline-shift:baseline;text-anchor:start;white-space:normal;shape-padding:0;clip-rule:nonzero;display:inline;overflow:visible;visibility:visible;opacity:1;isolation:auto;mix-blend-mode:normal;color-interpolation:sRGB;color-interpolation-filters:linearRGB;solid-color:#000000;solid-opacity:1;vector-effect:none;fill:#000000;fill-opacity:1;fill-rule:nonzero;stroke:none;stroke-width:12.33861828;stroke-linecap:butt;stroke-linejoin:miter;stroke-miterlimit:4;stroke-dasharray:none;stroke-dashoffset:0;stroke-opacity:1;color-rendering:auto;image-rendering:auto;shape-rendering:auto;text-rendering:auto;enable-background:accumulate"
       d="m 368.98302,759.37851 -10.69505,6.15259 c 15.35852,26.70041 19.53323,47.34043 20.05091,61.13213 0.51775,13.79178 -2.3467,20.10461 -2.3467,20.10461 l 11.34558,4.84863 c 0,0 3.92624,-9.57797 3.33169,-25.41608 -0.59454,-15.83811 -5.43454,-38.56829 -21.68643,-66.82188 z"
       id="path59112"
       inkscape:connector-curvature="0" />
    <path
       inkscape:connector-curvature="0"
       id="path10-9-0-6"
       d="M 634.72577,-33.525562 C 528.12146,-33.548715 454.88686,9.2576535 412.76144,73.292216 370.62851,137.33854 358.87233,220.96679 368.0808,303.74834 c 9.20846,82.78163 39.4213,165.08097 84.02748,227.5813 44.60627,62.50044 104.66271,106.03959 172.97052,105.63268 68.27559,-0.40673 127.83965,-44.40216 172.18236,-107.11345 44.34261,-62.7113 74.49841,-144.97989 84.51348,-227.55595 C 891.78934,219.71706 881.75982,136.52924 842.8523,72.736667 803.94396,8.944179 734.99419,-33.894601 634.72577,-33.525562 Z m 0.0472,27.6677227 h 0.0259 0.0296 c 92.59039,-0.3407936 150.01865,36.6296633 184.40037,93.0008153 34.38182,56.371154 44.55469,133.697784 35.08007,211.818784 -9.47489,78.1212 -38.50032,156.73265 -79.63819,214.9114 -41.13749,58.17872 -93.35133,95.08556 -149.7574,95.42154 -56.37438,0.33579 -108.95419,-36.12543 -150.28579,-94.038 C 433.29565,457.3443 404.26763,378.81767 395.57665,300.68981 386.88567,222.56176 398.57323,145.19782 435.87401,88.496982 473.1748,31.79615 535.34593,-5.8936782 634.77143,-5.8578393 Z"
       style="color:#000000;font-style:normal;font-variant:normal;font-weight:normal;font-stretch:normal;font-size:medium;line-height:normal;font-family:sans-serif;font-variant-ligatures:normal;font-variant-position:normal;font-variant-caps:normal;font-variant-numeric:normal;font-variant-alternates:normal;font-feature-settings:normal;text-indent:0;text-align:start;text-decoration:none;text-decoration-line:none;text-decoration-style:solid;text-decoration-color:#000000;letter-spacing:normal;word-spacing:normal;text-transform:none;writing-mode:lr-tb;direction:ltr;text-orientation:mixed;dominant-baseline:auto;baseline-shift:baseline;text-anchor:start;white-space:normal;shape-padding:0;clip-rule:nonzero;display:inline;overflow:visible;visibility:visible;opacity:1;isolation:auto;mix-blend-mode:normal;color-interpolation:sRGB;color-interpolation-filters:linearRGB;solid-color:#000000;solid-opacity:1;vector-effect:none;fill:#000000;fill-opacity:1;fill-rule:nonzero;stroke:none;stroke-width:27.66783524;stroke-linecap:butt;stroke-linejoin:miter;stroke-miterlimit:4;stroke-dasharray:none;stroke-dashoffset:0;stroke-opacity:1;color-rendering:auto;image-rendering:auto;shape-rendering:auto;text-rendering:auto;enable-background:accumulate" />
    <path
       inkscape:connector-curvature="0"
       id="path971-9-8"
       d="m 619.95643,299.69271 c 0,0 -1.56125,15.39933 -4.14231,31.57341 -1.29047,8.087 -2.84368,16.36847 -4.51422,22.80289 -0.83522,3.21717 -1.711,5.97815 -2.49463,7.88327 -0.78347,1.90511 -1.79565,2.90183 -1.06869,2.29618 -1.53097,1.27566 -3.15067,2.34083 -3.99868,5.73293 -0.42422,1.696 -0.18308,4.22214 0.89987,5.98639 1.08249,1.76445 2.49057,2.62753 3.55499,3.12845 4.2576,2.00364 6.44387,1.23472 9.33876,1.03507 5.78997,-0.39933 12.05909,-1.68989 12.05909,-1.68989 l -2.71181,-13.56562 c 0,0 -2.95758,0.37588 -4.74647,0.66964 0.91718,-2.45974 1.78574,-5.02661 2.5578,-8.00152 1.86687,-7.19066 3.4548,-15.76505 4.78435,-24.09791 2.65959,-16.66555 4.24372,-32.36122 4.24372,-32.36122 z"
       style="color:#000000;font-style:normal;font-variant:normal;font-weight:normal;font-stretch:normal;font-size:medium;line-height:normal;font-family:sans-serif;font-variant-ligatures:normal;font-variant-position:normal;font-variant-caps:normal;font-variant-numeric:normal;font-variant-alternates:normal;font-feature-settings:normal;text-indent:0;text-align:start;text-decoration:none;text-decoration-line:none;text-decoration-style:solid;text-decoration-color:#000000;letter-spacing:normal;word-spacing:normal;text-transform:none;writing-mode:lr-tb;direction:ltr;text-orientation:mixed;dominant-baseline:auto;baseline-shift:baseline;text-anchor:start;white-space:normal;shape-padding:0;clip-rule:nonzero;display:inline;overflow:visible;visibility:visible;opacity:1;isolation:auto;mix-blend-mode:normal;color-interpolation:sRGB;color-interpolation-filters:linearRGB;solid-color:#000000;solid-opacity:1;vector-effect:none;fill:#000000;fill-opacity:1;fill-rule:nonzero;stroke:none;stroke-width:13.83391762;stroke-linecap:butt;stroke-linejoin:miter;stroke-miterlimit:4;stroke-dasharray:none;stroke-dashoffset:0;stroke-opacity:1;color-rendering:auto;image-rendering:auto;shape-rendering:auto;text-rendering:auto;enable-background:accumulate" />
    <path
       style="font-style:normal;font-weight:normal;font-size:233.33332825px;line-height:1.25;font-family:sans-serif;letter-spacing:0px;word-spacing:0px;fill:#000000;fill-opacity:1;stroke:none"
       d="M 116 1076.8223 L 116 1246.4688 L 138.55859 1246.4688 L 138.55859 1183.2363 L 161.11719 1183.2363 C 173.26997 1183.2363 183.33333 1181.7925 191.30859 1178.9062 C 199.28385 1175.944 206.1964 1171.538 212.04492 1165.6895 C 216.75412 1160.9803 220.39996 1155.4368 222.98242 1149.0566 C 225.64084 1142.6005 226.9707 1135.6113 226.9707 1128.0918 C 226.9707 1118.2177 225.18511 1110.0538 221.61523 1103.5977 C 218.12131 1097.1415 213.14562 1091.7474 206.68945 1087.418 C 201.2207 1083.7721 194.95443 1081.1144 187.89062 1079.4434 C 180.82682 1077.6964 172.20725 1076.8223 162.0293 1076.8223 L 116 1076.8223 z M 138.55859 1096.1914 L 160.88867 1096.1914 C 168.02843 1096.1914 173.91558 1096.7237 178.54883 1097.7871 C 183.25803 1098.7745 187.4362 1100.4442 191.08203 1102.7988 C 195.25955 1105.5332 198.37305 1109.0651 200.42383 1113.3945 C 202.47461 1117.724 203.5 1122.8136 203.5 1128.6621 C 203.5 1133.6751 202.7398 1138.1951 201.2207 1142.2207 C 199.77756 1146.2463 197.27105 1150.0807 193.70117 1153.7266 C 190.13129 1157.2964 185.49935 1159.9169 179.80273 1161.5879 C 174.10612 1163.1829 166.70052 1163.9805 157.58594 1163.9805 L 138.55859 1163.9805 L 138.55859 1096.1914 z M 299.43164 1115.6738 C 281.43034 1115.6738 267.1122 1121.7122 256.47852 1133.7891 C 245.92079 1145.7899 240.64258 1162.1589 240.64258 1182.8945 C 240.64258 1203.6302 245.92079 1219.9972 256.47852 1231.998 C 267.1122 1243.9989 281.43034 1250 299.43164 1250 C 317.28103 1250 331.52257 1243.9989 342.15625 1231.998 C 352.78993 1219.9972 358.10547 1203.6302 358.10547 1182.8945 C 358.10547 1162.1589 352.78993 1145.7899 342.15625 1133.7891 C 331.52257 1121.7122 317.28103 1115.6738 299.43164 1115.6738 z M 710.49805 1115.6738 C 692.49675 1115.6738 678.18056 1121.7122 667.54688 1133.7891 C 656.98915 1145.7899 651.70898 1162.1589 651.70898 1182.8945 C 651.70898 1203.6302 656.98915 1219.9972 667.54688 1231.998 C 678.18056 1243.9989 692.49675 1250 710.49805 1250 C 728.34744 1250 742.58898 1243.9989 753.22266 1231.998 C 763.85634 1219.9972 769.17383 1203.6302 769.17383 1182.8945 C 769.17383 1162.1589 763.85634 1145.7899 753.22266 1133.7891 C 742.58898 1121.7122 728.34744 1115.6738 710.49805 1115.6738 z M 592.35156 1116.2441 C 573.59071 1116.2441 558.47504 1122.1686 547.00586 1134.0176 C 535.61263 1145.8665 529.91602 1162.1962 529.91602 1183.0078 C 529.91602 1194.1732 531.43446 1203.934 534.47266 1212.2891 C 537.51085 1220.6441 541.80295 1227.5547 547.34766 1233.0234 C 552.81641 1238.4922 559.38715 1242.5938 567.05859 1245.3281 C 574.73003 1247.9865 583.16102 1249.3164 592.35156 1249.3164 C 599.56727 1249.3164 606.36393 1248.3676 612.74414 1246.4688 C 619.2003 1244.5699 625.99892 1241.9102 633.13867 1238.4922 L 633.13867 1214.9082 L 632 1214.9082 C 630.40495 1216.1994 628.24023 1217.7572 625.50586 1219.5801 C 622.77148 1221.327 619.84657 1222.9987 616.73242 1224.5938 C 613.16254 1226.4167 609.13759 1227.8978 604.65625 1229.0371 C 600.17491 1230.1764 595.76888 1230.7461 591.43945 1230.7461 C 578.98286 1230.7461 569.29861 1226.6445 562.38672 1218.4414 C 555.55078 1210.1623 552.13281 1198.3507 552.13281 1183.0078 C 552.13281 1167.2092 555.62739 1155.2463 562.61523 1147.1191 C 569.67904 1138.916 579.28668 1134.8145 591.43945 1134.8145 C 598.04753 1134.8145 604.80686 1136.1816 611.71875 1138.916 C 618.7066 1141.6504 625.46788 1145.5614 632 1150.6504 L 633.13867 1150.6504 L 633.13867 1126.8398 C 627.29015 1123.8776 620.83333 1121.3711 613.76953 1119.3203 C 606.78168 1117.2695 599.64323 1116.2441 592.35156 1116.2441 z M 390.46289 1119.2051 L 390.46289 1201.8066 C 390.46289 1217.6053 394.18533 1229.6055 401.62891 1237.8086 C 409.07248 1245.9358 419.47765 1250 432.8457 1250 C 440.82096 1250 448.11263 1248.4816 454.7207 1245.4434 C 461.32878 1242.4052 468.24132 1238.0365 475.45703 1232.3398 L 475.45703 1246.4688 L 496.875 1246.4688 L 496.875 1119.2051 L 475.45703 1119.2051 L 475.45703 1214.2246 C 469.76042 1218.7059 463.60807 1222.3911 457 1225.2773 C 450.46788 1228.1636 444.42947 1229.6055 438.88477 1229.6055 C 432.65647 1229.6055 427.90864 1228.8472 424.64258 1227.3281 C 421.37652 1225.809 418.71875 1223.3772 416.66797 1220.0352 C 414.69314 1216.7691 413.40061 1212.8581 412.79297 1208.3008 C 412.18533 1203.6675 411.88281 1198.1222 411.88281 1191.666 L 411.88281 1119.2051 L 390.46289 1119.2051 z M 299.43164 1134.1309 C 310.90082 1134.1309 319.8622 1138.1558 326.31836 1146.207 C 332.77452 1154.1823 336.00391 1166.4123 336.00391 1182.8945 C 336.00391 1198.997 332.7372 1211.1484 326.20508 1219.3516 C 319.74892 1227.4787 310.82487 1231.543 299.43164 1231.543 C 287.8865 1231.543 278.88585 1227.4414 272.42969 1219.2383 C 265.97352 1210.9592 262.74414 1198.8451 262.74414 1182.8945 C 262.74414 1166.4123 265.93424 1154.1823 272.31445 1146.207 C 278.77062 1138.1558 287.81055 1134.1309 299.43164 1134.1309 z M 710.49805 1134.1309 C 721.96723 1134.1309 730.93056 1138.1558 737.38672 1146.207 C 743.84288 1154.1823 747.07031 1166.4123 747.07031 1182.8945 C 747.07031 1198.997 743.80556 1211.1484 737.27344 1219.3516 C 730.81727 1227.4787 721.89128 1231.543 710.49805 1231.543 C 698.95291 1231.543 689.95226 1227.4414 683.49609 1219.2383 C 677.03993 1210.9592 673.8125 1198.8451 673.8125 1182.8945 C 673.8125 1166.4123 677.0026 1154.1823 683.38281 1146.207 C 689.83898 1138.1558 698.87695 1134.1309 710.49805 1134.1309 z "
       transform="translate(0,-33.729184)"
       id="text1702" />
    <path
       inkscape:connector-curvature="0"
       id="path29-8-7-9-1"
       d="m 721.10788,502.1205 c -52.49726,-51.681 -97.69154,-53.72976 -132.18157,-42.83636 -17.24507,5.4467 -31.78723,14.4048 -42.59847,22.63416 -10.81114,8.22945 -17.58137,15.40928 -20.4149,18.21659 l -9.70723,-9.79586 c 2.18362,-2.16323 10.06246,-10.48287 21.76888,-19.39352 11.70615,-8.91065 27.54866,-18.73134 46.79937,-24.81151 38.50105,-12.16033 90.73318,-8.25576 146.00737,46.15916 z"
       style="color:#000000;font-style:normal;font-variant:normal;font-weight:normal;font-stretch:normal;font-size:medium;line-height:normal;font-family:sans-serif;font-variant-ligatures:normal;font-variant-position:normal;font-variant-caps:normal;font-variant-numeric:normal;font-variant-alternates:normal;font-feature-settings:normal;text-indent:0;text-align:start;text-decoration:none;text-decoration-line:none;text-decoration-style:solid;text-decoration-color:#000000;letter-spacing:normal;word-spacing:normal;text-transform:none;writing-mode:lr-tb;direction:ltr;text-orientation:mixed;dominant-baseline:auto;baseline-shift:baseline;text-anchor:start;white-space:normal;shape-padding:0;clip-rule:nonzero;display:inline;overflow:visible;visibility:visible;opacity:1;isolation:auto;mix-blend-mode:normal;color-interpolation:sRGB;color-interpolation-filters:linearRGB;solid-color:#000000;solid-opacity:1;vector-effect:none;fill:#000000;fill-opacity:1;fill-rule:nonzero;stroke:none;stroke-width:13.7903595;stroke-linecap:butt;stroke-linejoin:miter;stroke-miterlimit:4;stroke-dasharray:none;stroke-dashoffset:0;stroke-opacity:1;color-rendering:auto;image-rendering:auto;shape-rendering:auto;text-rendering:auto;enable-background:accumulate" />
    <path
       inkscape:connector-curvature="0"
       id="path87-11-5-36-8"
       d="m 532.35231,186.0149 c -13.68917,0.13053 -24.75907,5.63327 -31.8885,13.86817 -7.14908,8.25715 -10.47318,18.91468 -10.37708,29.40826 0.0959,10.49367 3.61018,21.02233 10.84614,29.02931 7.21463,7.98297 18.28795,13.09161 31.69112,12.67425 13.14599,-0.0342 23.84303,-5.61434 30.63384,-13.85552 6.81149,-8.26666 9.94135,-18.85348 9.8735,-29.2925 -0.0674,-10.43911 -3.32963,-20.92669 -10.21479,-28.98924 -6.86724,-8.04159 -17.60537,-13.29009 -30.56423,-12.84273 z m 0.4108,13.77548 c 9.24742,-0.34018 15.28069,2.88624 19.66705,8.02276 4.38646,5.13662 6.86208,12.55517 6.91092,20.12429 0.048,7.56912 -2.3258,15.0919 -6.72758,20.43382 -4.40141,5.34174 -10.58857,8.84603 -20.10527,8.84603 h -0.11576 l -0.11577,0.009 c -9.89833,0.33243 -16.4662,-3.00412 -21.114,-8.14701 -4.6478,-5.1428 -7.21952,-12.4479 -7.28765,-19.90947 -0.0683,-7.46158 2.36327,-14.88078 7.01624,-20.25473 4.65242,-5.37405 11.39329,-9.03962 21.66744,-9.11568 l 0.10367,-0.009 z"
       style="color:#000000;font-style:normal;font-variant:normal;font-weight:normal;font-stretch:normal;font-size:medium;line-height:normal;font-family:sans-serif;font-variant-ligatures:normal;font-variant-position:normal;font-variant-caps:normal;font-variant-numeric:normal;font-variant-alternates:normal;font-feature-settings:normal;text-indent:0;text-align:start;text-decoration:none;text-decoration-line:none;text-decoration-style:solid;text-decoration-color:#000000;letter-spacing:normal;word-spacing:normal;text-transform:none;writing-mode:lr-tb;direction:ltr;text-orientation:mixed;dominant-baseline:auto;baseline-shift:baseline;text-anchor:start;white-space:normal;shape-padding:0;clip-rule:nonzero;display:inline;overflow:visible;visibility:visible;opacity:1;isolation:auto;mix-blend-mode:normal;color-interpolation:sRGB;color-interpolation-filters:linearRGB;solid-color:#000000;solid-opacity:1;vector-effect:none;fill:#000000;fill-opacity:1;fill-rule:nonzero;stroke:none;stroke-width:13.7903595;stroke-linecap:butt;stroke-linejoin:miter;stroke-miterlimit:4;stroke-dasharray:none;stroke-dashoffset:0;stroke-opacity:1;color-rendering:auto;image-rendering:auto;shape-rendering:auto;text-rendering:auto;enable-background:accumulate" />
    <path
       inkscape:connector-curvature="0"
       id="path1039-2-1"
       d="m 463.76956,140.77806 -7.79954,15.23268 c 0,0 34.51542,17.67046 69.36401,35.34636 17.42444,8.8379 34.93002,17.67747 48.27106,24.32085 6.67071,3.32169 12.29392,6.09235 16.38681,8.05858 2.04636,0.98307 3.70093,1.76018 4.9818,2.33521 0.64095,0.28756 1.17591,0.52158 1.72473,0.73908 0.27436,0.10884 0.54097,0.21315 0.94577,0.34322 0.40425,0.13017 0.37074,0.46121 2.84054,0.46121 V 210.5022 c 2.38839,0 2.20708,0.2979 2.40048,0.36012 0.19322,0.0618 0.18482,0.0646 0.12213,0.0397 -0.12582,-0.0498 -0.51299,-0.21214 -1.02571,-0.44219 -1.02516,-0.4601 -2.6021,-1.20084 -4.57755,-2.14984 -3.95147,-1.89829 -9.53636,-4.64808 -16.16987,-7.95122 -13.26683,-6.60636 -30.75459,-15.43365 -48.15954,-24.26186 -34.81019,-17.65661 -69.30512,-35.31903 -69.30512,-35.31903 z"
       style="color:#000000;font-style:normal;font-variant:normal;font-weight:normal;font-stretch:normal;font-size:medium;line-height:normal;font-family:sans-serif;font-variant-ligatures:normal;font-variant-position:normal;font-variant-caps:normal;font-variant-numeric:normal;font-variant-alternates:normal;font-feature-settings:normal;text-indent:0;text-align:start;text-decoration:none;text-decoration-line:none;text-decoration-style:solid;text-decoration-color:#000000;letter-spacing:normal;word-spacing:normal;text-transform:none;writing-mode:lr-tb;direction:ltr;text-orientation:mixed;dominant-baseline:auto;baseline-shift:baseline;text-anchor:start;white-space:normal;shape-padding:0;clip-rule:nonzero;display:inline;overflow:visible;visibility:visible;opacity:1;isolation:auto;mix-blend-mode:normal;color-interpolation:sRGB;color-interpolation-filters:linearRGB;solid-color:#000000;solid-opacity:1;vector-effect:none;fill:#000000;fill-opacity:1;fill-rule:nonzero;stroke:none;stroke-width:17.1128006;stroke-linecap:butt;stroke-linejoin:miter;stroke-miterlimit:4;stroke-dasharray:none;stroke-dashoffset:0;stroke-opacity:1;color-rendering:auto;image-rendering:auto;shape-rendering:auto;text-rendering:auto;enable-background:accumulate" />
    <path
       inkscape:connector-curvature="0"
       id="path87-11-5-3-7-2"
       d="m 715.95299,186.0149 c -12.95831,-0.44736 -23.69671,4.80114 -30.56405,12.84273 -6.88552,8.06255 -10.14721,18.55013 -10.21506,28.98924 -0.0674,10.43902 3.06228,21.02584 9.87387,29.2925 6.79108,8.24164 17.48674,13.82182 30.63356,13.85552 13.40345,0.41736 24.47649,-4.69128 31.69103,-12.67425 7.23633,-8.00698 10.7504,-18.53564 10.8465,-29.02931 0.0958,-10.49358 -3.23029,-21.15111 -10.37901,-29.40826 -7.12943,-8.2349 -18.1973,-13.73764 -31.88684,-13.86817 z m -0.41052,13.77548 0.10127,0.009 0.10136,0.009 c 10.27451,0.0757 17.01741,3.74163 21.66974,9.11559 4.65297,5.37395 7.08271,12.79324 7.0143,20.25482 -0.0674,7.46148 -2.64022,14.76658 -7.28792,19.90947 -4.64781,5.1428 -11.21568,8.47944 -21.11382,8.14692 l -0.11604,-0.009 h -0.11577 c -9.51633,0 -15.70349,-3.50429 -20.10499,-8.84612 -4.40178,-5.34183 -6.77466,-12.8647 -6.72591,-20.43373 0.0498,-7.56921 2.52473,-14.98786 6.91128,-20.12429 4.38618,-5.13661 10.41973,-8.36303 19.66696,-8.02276 z"
       style="color:#000000;font-style:normal;font-variant:normal;font-weight:normal;font-stretch:normal;font-size:medium;line-height:normal;font-family:sans-serif;font-variant-ligatures:normal;font-variant-position:normal;font-variant-caps:normal;font-variant-numeric:normal;font-variant-alternates:normal;font-feature-settings:normal;text-indent:0;text-align:start;text-decoration:none;text-decoration-line:none;text-decoration-style:solid;text-decoration-color:#000000;letter-spacing:normal;word-spacing:normal;text-transform:none;writing-mode:lr-tb;direction:ltr;text-orientation:mixed;dominant-baseline:auto;baseline-shift:baseline;text-anchor:start;white-space:normal;shape-padding:0;clip-rule:nonzero;display:inline;overflow:visible;visibility:visible;opacity:1;isolation:auto;mix-blend-mode:normal;color-interpolation:sRGB;color-interpolation-filters:linearRGB;solid-color:#000000;solid-opacity:1;vector-effect:none;fill:#000000;fill-opacity:1;fill-rule:nonzero;stroke:none;stroke-width:13.7903595;stroke-linecap:butt;stroke-linejoin:miter;stroke-miterlimit:4;stroke-dasharray:none;stroke-dashoffset:0;stroke-opacity:1;color-rendering:auto;image-rendering:auto;shape-rendering:auto;text-rendering:auto;enable-background:accumulate" />
    <path
       inkscape:connector-curvature="0"
       id="path1039-7-0-3"
       d="m 784.53583,140.77806 c 0,0 -34.49668,17.66242 -69.30696,35.31903 -17.40505,8.82821 -34.89069,17.6555 -48.1576,24.26186 -6.63323,3.30323 -12.21813,6.05294 -16.16978,7.95122 -1.97555,0.949 -3.55248,1.68983 -4.57792,2.14984 -0.51244,0.23005 -0.89961,0.39234 -1.02516,0.44219 -0.0628,0.0249 -0.0711,0.0222 0.12213,-0.0397 0.19313,-0.0619 0.012,-0.36003 2.40048,-0.36003 v 17.11305 c 2.46925,0 2.43371,-0.33114 2.83823,-0.46121 0.40481,-0.13007 0.67326,-0.23448 0.94753,-0.34323 0.54881,-0.21758 1.08203,-0.45151 1.7227,-0.73907 1.28115,-0.57504 2.93544,-1.35215 4.98207,-2.33521 4.0929,-1.96623 9.71823,-4.7368 16.38857,-8.05858 13.34141,-6.64338 30.84727,-15.48295 48.27142,-24.32085 34.84859,-17.676 69.36208,-35.34645 69.36208,-35.34645 z"
       style="color:#000000;font-style:normal;font-variant:normal;font-weight:normal;font-stretch:normal;font-size:medium;line-height:normal;font-family:sans-serif;font-variant-ligatures:normal;font-variant-position:normal;font-variant-caps:normal;font-variant-numeric:normal;font-variant-alternates:normal;font-feature-settings:normal;text-indent:0;text-align:start;text-decoration:none;text-decoration-line:none;text-decoration-style:solid;text-decoration-color:#000000;letter-spacing:normal;word-spacing:normal;text-transform:none;writing-mode:lr-tb;direction:ltr;text-orientation:mixed;dominant-baseline:auto;baseline-shift:baseline;text-anchor:start;white-space:normal;shape-padding:0;clip-rule:nonzero;display:inline;overflow:visible;visibility:visible;opacity:1;isolation:auto;mix-blend-mode:normal;color-interpolation:sRGB;color-interpolation-filters:linearRGB;solid-color:#000000;solid-opacity:1;vector-effect:none;fill:#000000;fill-opacity:1;fill-rule:nonzero;stroke:none;stroke-width:17.1128006;stroke-linecap:butt;stroke-linejoin:miter;stroke-miterlimit:4;stroke-dasharray:none;stroke-dashoffset:0;stroke-opacity:1;color-rendering:auto;image-rendering:auto;shape-rendering:auto;text-rendering:auto;enable-background:accumulate" />
  </g>
</svg>
