<?xml version="1.0" encoding="UTF-8" standalone="no"?>
<!-- Created with Inkscape (http://www.inkscape.org/) -->

<svg
   xmlns:dc="http://purl.org/dc/elements/1.1/"
   xmlns:cc="http://creativecommons.org/ns#"
   xmlns:rdf="http://www.w3.org/1999/02/22-rdf-syntax-ns#"
   xmlns:svg="http://www.w3.org/2000/svg"
   xmlns="http://www.w3.org/2000/svg"
   xmlns:sodipodi="http://sodipodi.sourceforge.net/DTD/sodipodi-0.dtd"
   xmlns:inkscape="http://www.inkscape.org/namespaces/inkscape"
   width="1000"
   height="1250"
   viewBox="0 0 1000 1250"
   version="1.1"
   id="svg58798"
   inkscape:version="0.92.4 (5da689c313, 2019-01-14)"
   sodipodi:docname="Rato.svg">
  <defs
     id="defs58792" />
  <sodipodi:namedview
     id="base"
     pagecolor="#ffffff"
     bordercolor="#666666"
     borderopacity="1.0"
     inkscape:pageopacity="0.0"
     inkscape:pageshadow="2"
     inkscape:zoom="2"
     inkscape:cx="936.77255"
     inkscape:cy="61.572658"
     inkscape:document-units="px"
     inkscape:current-layer="layer1"
     showgrid="false"
     units="px"
     inkscape:window-width="1366"
     inkscape:window-height="715"
     inkscape:window-x="-8"
     inkscape:window-y="-8"
     inkscape:window-maximized="1"
     inkscape:snap-global="true" />
  <metadata
     id="metadata58795">
    <rdf:RDF>
      <cc:Work
         rdf:about="">
        <dc:format>image/svg+xml</dc:format>
        <dc:type
           rdf:resource="http://purl.org/dc/dcmitype/StillImage" />
        <dc:title></dc:title>
      </cc:Work>
    </rdf:RDF>
  </metadata>
  <g
     inkscape:label="Camada 1"
     inkscape:groupmode="layer"
     id="layer1"
     transform="translate(0,217.58335)">
    <path
       style="color:#000000;font-style:normal;font-variant:normal;font-weight:normal;font-stretch:normal;font-size:medium;line-height:normal;font-family:sans-serif;font-variant-ligatures:normal;font-variant-position:normal;font-variant-caps:normal;font-variant-numeric:normal;font-variant-alternates:normal;font-feature-settings:normal;text-indent:0;text-align:start;text-decoration:none;text-decoration-line:none;text-decoration-style:solid;text-decoration-color:#000000;letter-spacing:normal;word-spacing:normal;text-transform:none;writing-mode:lr-tb;direction:ltr;text-orientation:mixed;dominant-baseline:auto;baseline-shift:baseline;text-anchor:start;white-space:normal;shape-padding:0;clip-rule:nonzero;display:inline;overflow:visible;visibility:visible;opacity:1;isolation:auto;mix-blend-mode:normal;color-interpolation:sRGB;color-interpolation-filters:linearRGB;solid-color:#000000;solid-opacity:1;vector-effect:none;fill:#000000;fill-opacity:1;fill-rule:nonzero;stroke:none;stroke-width:38.60499954;stroke-linecap:butt;stroke-linejoin:miter;stroke-miterlimit:4;stroke-dasharray:none;stroke-dashoffset:0;stroke-opacity:1;color-rendering:auto;image-rendering:auto;shape-rendering:auto;text-rendering:auto;enable-background:accumulate"
       d="m 673.10741,-217.32342 c -148.74771,-0.0333 -250.93372,59.69633 -309.71189,149.04485 -58.78832,89.36396 -75.19531,206.05153 -62.34661,321.55701 2.75672,24.7821 6.86273,49.53319 12.22682,73.98706 l 21.69949,8.57132 70.86001,179.19335 c -5.87935,2.80541 -10.82346,5.88107 -16.32976,11.06943 9.03693,15.56364 18.64711,30.51022 28.79072,44.72302 62.23922,87.20702 146.03602,147.95553 241.34606,147.38774 95.26526,-0.56754 178.37492,-61.95227 240.24639,-149.45354 61.87141,-87.50136 103.94956,-202.28856 117.92346,-317.50704 13.974,-115.21852 -0.027,-231.29117 -54.31361,-320.30119 -54.27881,-88.99366 -150.45407,-148.7648 -290.31677,-148.27201 z m 0.0593,38.60438 h 0.0442 0.0378 c 129.19184,-0.4756 209.32022,51.11386 257.29319,129.76867 47.97296,78.65479 62.16852,186.54558 48.94843,295.5483 -13.22008,109.00261 -53.72461,218.69615 -111.12414,299.87311 -57.3995,81.17693 -130.25011,132.66607 -208.95409,133.13497 -78.65905,0.4685 -152.01932,-50.40474 -209.68982,-131.21032 -9.57033,-13.40942 -18.66782,-27.61088 -27.24145,-42.47033 -7.40267,5.68829 -14.11687,7.97503 -16.64621,9.10481 L 334.97526,335.83682 c 7.29859,2.62642 14.56565,5.28441 21.97617,7.79878 -8.0633,-31.10553 -13.9983,-62.88755 -17.52846,-94.62264 -12.1264,-109.01211 4.1775,-216.96101 56.22339,-296.07584 52.04596,-79.11484 138.79156,-131.70628 277.5205,-131.65616 z"
       id="path10-9-5"
       inkscape:connector-curvature="0"
       sodipodi:nodetypes="cssccccssssccccccsssscccccsscc" />
    <path
       style="color:#000000;font-style:normal;font-variant:normal;font-weight:normal;font-stretch:normal;font-size:medium;line-height:normal;font-family:sans-serif;font-variant-ligatures:normal;font-variant-position:normal;font-variant-caps:normal;font-variant-numeric:normal;font-variant-alternates:normal;font-feature-settings:normal;text-indent:0;text-align:start;text-decoration:none;text-decoration-line:none;text-decoration-style:solid;text-decoration-color:#000000;letter-spacing:normal;word-spacing:normal;text-transform:none;writing-mode:lr-tb;direction:ltr;text-orientation:mixed;dominant-baseline:auto;baseline-shift:baseline;text-anchor:start;white-space:normal;shape-padding:0;clip-rule:nonzero;display:inline;overflow:visible;visibility:visible;opacity:1;isolation:auto;mix-blend-mode:normal;color-interpolation:sRGB;color-interpolation-filters:linearRGB;solid-color:#000000;solid-opacity:1;vector-effect:none;fill:#000000;fill-opacity:1;fill-rule:nonzero;stroke:none;stroke-width:19.30249977;stroke-linecap:butt;stroke-linejoin:miter;stroke-miterlimit:4;stroke-dasharray:none;stroke-dashoffset:0;stroke-opacity:1;color-rendering:auto;image-rendering:auto;shape-rendering:auto;text-rendering:auto;enable-background:accumulate"
       d="m 652.49093,247.62069 c 0,0 -2.1722,21.48594 -5.77346,44.05384 -1.80063,11.28395 -3.96677,22.83496 -6.2976,31.81296 -1.16543,4.489 -2.39148,8.34976 -3.48475,11.00793 -1.09327,2.65819 -2.50541,4.04188 -1.49135,3.19683 -2.13596,1.77991 -4.3982,3.27006 -5.58146,8.00303 -0.59166,2.3665 -0.24836,5.8883 1.26246,8.3501 1.51064,2.46179 3.46876,3.66438 4.95394,4.36327 5.94074,2.79562 8.99157,1.72562 13.03083,1.44708 8.07852,-0.55718 16.83304,-2.35515 16.83304,-2.35515 l -3.78743,-18.92979 c 0,0 -4.12696,0.52788 -6.62247,0.93761 1.28041,-3.43255 2.4881,-7.01849 3.56594,-11.17032 2.60475,-10.03311 4.82621,-21.99493 6.68155,-33.6218 3.71067,-23.25371 5.92109,-45.15389 5.92109,-45.15389 z"
       id="path971-8"
       inkscape:connector-curvature="0" />
    <path
       style="color:#000000;font-style:normal;font-variant:normal;font-weight:normal;font-stretch:normal;font-size:medium;line-height:normal;font-family:sans-serif;font-variant-ligatures:normal;font-variant-position:normal;font-variant-caps:normal;font-variant-numeric:normal;font-variant-alternates:normal;font-feature-settings:normal;text-indent:0;text-align:start;text-decoration:none;text-decoration-line:none;text-decoration-style:solid;text-decoration-color:#000000;letter-spacing:normal;word-spacing:normal;text-transform:none;writing-mode:lr-tb;direction:ltr;text-orientation:mixed;dominant-baseline:auto;baseline-shift:baseline;text-anchor:start;white-space:normal;shape-padding:0;clip-rule:nonzero;display:inline;overflow:visible;visibility:visible;opacity:1;isolation:auto;mix-blend-mode:normal;color-interpolation:sRGB;color-interpolation-filters:linearRGB;solid-color:#000000;solid-opacity:1;vector-effect:none;fill:#000000;fill-opacity:1;fill-rule:nonzero;stroke:none;stroke-width:21.04347801;stroke-linecap:butt;stroke-linejoin:miter;stroke-miterlimit:4;stroke-dasharray:none;stroke-dashoffset:0;stroke-opacity:1;color-rendering:auto;image-rendering:auto;shape-rendering:auto;text-rendering:auto;enable-background:accumulate"
       d="m 275.81478,323.07405 -0.78259,0.0303 -0.77522,0.14024 c 0,0 -19.02591,3.46564 -39.12941,6.62987 -10.05176,1.58209 -20.38028,3.08974 -28.57189,4.03104 -4.09577,0.47066 -7.67384,0.79683 -10.26961,0.93028 -2.59579,0.13344 -4.90429,-0.3368 -3.08606,0.14024 l -0.5168,-0.14024 -0.53157,-0.0813 c 0,0 -48.2698,-6.79743 -71.04576,34.85472 l -0.53894,0.98129 -0.32487,1.07791 c 0,0 -1.2452,4.21413 -5.36737,8.91118 -4.12219,4.69704 -10.11642,9.26838 -22.045379,9.25076 h -0.620165 l -0.6054,0.0737 c 0,0 -12.486351,1.39636 -24.599857,9.95215 -12.113509,8.55577 -24.115951,25.4071 -23.905867,51.63607 l 0.03705,4.71768 0.664463,0.58327 c -0.871474,2.86827 -4.645658,10.68054 -17.615628,24.15688 l -0.22149,0.22906 -0.214105,0.24343 c 0,0 -22.4045463,28.09481 -7.597016,61.16004 -0.106552,-0.0994 0.0812,0.12551 -3.37399,3.94249 l 0.287934,-0.30995 c 0,0 -9.4976437,9.88667 -13.3409211,26.48986 -3.7254822,16.09432 -2.02850463,39.15725 14.2047211,66.02539 0.236513,1.61296 4.417562,30.13223 8.896408,58.46526 l 0.162427,1.06313 0.383911,1.00408 c 0,0 6.942703,18.99897 3.824347,40.12613 l -0.0443,0.33944 -0.02953,0.33228 c -0.413741,5.02893 -0.739301,7.05463 -2.687379,10.45422 -1.94808,3.3995 -6.188733,8.4636 -14.839652,16.3678 l 14.19721,15.5339 c 9.34746,-8.5406 15.117894,-14.8394 18.900254,-21.44 3.691283,-6.4416 4.819873,-12.88042 5.33046,-18.7378 3.678542,-25.36632 -3.364853,-45.44486 -4.414979,-48.32853 v -0.008 c -4.576938,-28.95349 -9.103131,-59.85265 -9.103131,-59.85265 l -0.324846,-2.21487 -1.203416,-1.89003 c -15.229322,-24.0305 -15.387052,-41.10151 -12.750283,-52.49249 2.636767,-11.391 7.855417,-16.49342 7.855417,-16.49342 l 0.14766,-0.155 0.147659,-0.15498 c 5.651536,-6.24331 8.464263,-9.70796 9.546106,-15.45984 0.476317,-2.53241 -0.11204,-5.98796 -1.734983,-8.76352 l 0.02231,0.0151 C 25.592204,512.69158 41.776659,495.0668 41.776659,495.0668 l -0.435594,0.47987 c 14.825419,-15.4042 20.959268,-25.6069 23.152806,-34.12381 1.096771,-4.25845 1.05005,-8.232 0.07382,-11.4509 -0.06441,-0.21245 -0.179628,-0.33453 -0.251033,-0.53896 0.371276,-18.73352 7.521313,-27.23032 14.824885,-32.38883 7.575854,-5.35082 14.876568,-6.23857 14.876568,-6.23857 l -1.225564,0.0737 c 17.970973,0.0265 30.739373,-8.25596 37.903873,-16.41958 5.82261,-6.63464 8.06487,-12.44333 8.90379,-14.81751 16.41502,-29.92238 49.31046,-24.09044 49.31046,-24.09044 l -1.04852,-0.22182 c 4.09954,1.07591 6.17526,0.69553 9.5092,0.52417 3.33392,-0.17123 7.23272,-0.54753 11.59118,-1.04835 8.71685,-1.00168 19.22409,-2.53455 29.43566,-4.14181 19.83738,-3.12235 37.44568,-6.33419 38.50187,-6.52652 17.72685,-0.47624 32.28472,3.7888 32.32978,3.80222 7e-5,4e-5 0.0295,0.008 0.0295,0.008 39.0122,16.77018 91.2823,31.33307 91.2823,31.33307 l 0.36177,0.10318 0.36174,0.0737 c 13.61019,2.77558 25.75897,7.75946 25.75897,7.75946 l 0.51681,0.21396 0.53158,0.15498 c 25.60164,7.55934 33.8654,19.18062 37.39442,28.59404 3.29438,8.78747 2.07131,15.01276 1.89003,15.87326 -4.07971,10.77636 -19.9364,27.65032 -35.17957,40.22945 -15.45364,12.75287 -29.635,21.8682 -29.635,21.8682 l 2.51755,-1.18126 c -56.70316,17.89029 -63.53733,90.0346 -63.53733,90.0346 l -0.14026,1.18126 0.14026,1.18864 c 4.15867,36.75276 -5.85324,58.73066 -16.36791,72.24918 -10.51467,13.5185 -21.03391,17.9405 -21.03391,17.9405 l -1.65378,0.70874 -1.32155,1.22557 c -10.6656,9.86601 -15.492,23.45299 -21.18893,37.05483 -5.69696,13.60186 -11.84205,27.43747 -21.63195,38.65683 l 15.85851,13.8356 c 12.49525,-14.3199 19.40854,-30.57673 25.1831,-44.36385 5.69856,-13.60573 10.6977,-24.4888 15.86587,-29.43567 3.57878,-1.77805 14.95149,-7.8108 26.5342,-22.70246 13.29233,-17.08968 24.74128,-45.0602 20.71645,-85.41289 0.10428,-0.75563 8.29007,-59.27029 48.9118,-72.08673 l 1.33629,-0.42821 1.18126,-0.75307 c 0,0 15.12483,-9.70848 31.65793,-23.35215 16.53312,-13.64365 34.99654,-30.39438 41.90541,-49.93799 l 0.19203,-0.55374 0.13306,-0.56848 c 0,0 3.08339,-13.42497 -2.62835,-28.66047 -5.71168,-15.2355 -20.69922,-32.40002 -51.14139,-41.3886 l 1.04098,0.36932 c 0,0 -13.58177,-5.6671 -29.59811,-8.93335 l 0.71613,0.17726 c 0,0 -52.93169,-14.83526 -89.70237,-30.78673 l -0.55372,-0.24343 -0.58324,-0.17729 c 0,0 -17.73102,-5.4254 -39.53549,-4.73244 z"
       id="path1627"
       inkscape:connector-curvature="0" />
    <path
       style="color:#000000;font-style:normal;font-variant:normal;font-weight:normal;font-stretch:normal;font-size:medium;line-height:normal;font-family:sans-serif;font-variant-ligatures:normal;font-variant-position:normal;font-variant-caps:normal;font-variant-numeric:normal;font-variant-alternates:normal;font-feature-settings:normal;text-indent:0;text-align:start;text-decoration:none;text-decoration-line:none;text-decoration-style:solid;text-decoration-color:#000000;letter-spacing:normal;word-spacing:normal;text-transform:none;writing-mode:lr-tb;direction:ltr;text-orientation:mixed;dominant-baseline:auto;baseline-shift:baseline;text-anchor:start;white-space:normal;shape-padding:0;clip-rule:nonzero;display:inline;overflow:visible;visibility:visible;opacity:1;isolation:auto;mix-blend-mode:normal;color-interpolation:sRGB;color-interpolation-filters:linearRGB;solid-color:#000000;solid-opacity:1;vector-effect:none;fill:#000000;fill-opacity:1;fill-rule:nonzero;stroke:none;stroke-width:21.04347801;stroke-linecap:butt;stroke-linejoin:miter;stroke-miterlimit:4;stroke-dasharray:none;stroke-dashoffset:0;stroke-opacity:1;color-rendering:auto;image-rendering:auto;shape-rendering:auto;text-rendering:auto;enable-background:accumulate"
       d="m 219.00328,377.0505 c -25.71959,-0.32054 -49.08159,3.46261 -49.08159,3.46261 l 3.32967,20.77549 c 0,0 22.00898,-3.48935 45.49351,-3.19679 11.74227,0.1463 23.78483,1.30446 32.9647,3.94985 9.17987,2.6454 14.5799,6.52657 16.49343,10.4616 l 0.037,0.0665 0.0295,0.0665 c 0,0 8.6904,17.2624 17.03237,38.1475 8.32554,20.84394 15.5504,46.33642 14.66985,56.5974 -0.02,0.1667 -1.33756,11.1583 -4.82104,21.52857 -1.7549,5.2243 -4.13206,10.10671 -6.24594,12.72078 -2.1139,2.61402 -2.54774,2.63828 -3.66194,2.53232 l -11.5764,-1.10006 0.0517,11.62069 c 0,0 0.0352,22.67944 -3.94986,43.27865 -1.99258,10.29961 -5.22208,19.97311 -8.62323,25.03547 -1.70056,2.53115 -3.24802,3.76209 -4.26732,4.23039 -1.01932,0.46827 -1.71352,0.69421 -4.03107,-0.0151 l -13.59941,9.95991 0.1329,1.80127 c 0,0 2.56258,16.64447 0.45036,31.54716 -1.05611,7.45136 -3.40848,14.05914 -6.34932,17.63043 -2.94081,3.57123 -5.61575,5.36266 -13.43688,4.46666 l -6.28286,-0.72354 -3.00484,4.3633 c -0.22983,0.14138 -0.82576,0.57268 -2.99009,0.51681 -4.47755,-0.11566 -16.1083,-3.31482 -36.05075,-21.02653 l 1.41014,1.52824 c 0,0 0.0159,-1.5699 0.0665,0.76785 l -21.03391,0.45035 c 0.16726,7.73274 4.17135,11.4509 4.17135,11.4509 l 0.62755,0.84163 0.78259,0.69399 c 21.94462,19.48993 37.37223,26.0149 49.48026,26.32746 6.05402,0.15613 11.08342,-1.48897 14.4779,-3.529 0.51012,-0.30657 0.41018,-0.44585 0.87118,-0.78999 11.32389,-0.10056 21.18648,-4.70411 27.16173,-11.96031 6.84222,-8.309 9.57253,-18.44861 10.9341,-28.05507 1.35926,-9.59019 1.22694,-19.04317 0.76044,-26.11335 1.41323,-0.35874 2.939,-0.4148 4.23778,-1.01147 5.63923,-2.59078 9.78155,-6.89787 12.94963,-11.6133 6.33617,-9.43092 9.55016,-21.08543 11.81265,-32.78013 3.24255,-16.76053 3.86946,-30.58883 4.07538,-38.91534 4.35128,-1.93365 8.10773,-4.8952 10.76428,-8.18026 4.74525,-5.86796 7.62449,-12.66951 9.83404,-19.24726 4.41907,-13.15547 5.81774,-26.00999 5.81774,-26.00999 l 0.0147,-0.1255 0.0147,-0.1255 c 1.77609,-19.85181 -7.3742,-44.52094 -16.10213,-66.37236 -8.70544,-21.79505 -17.68725,-39.613 -17.73377,-39.70531 -5.76454,-11.81968 -17.43898,-17.9498 -29.57592,-21.44732 -12.14873,-3.50097 -25.67163,-4.61654 -38.53142,-4.77678 z"
       id="path1629"
       inkscape:connector-curvature="0"
       sodipodi:nodetypes="cccsscccsccccccccccccscccccccccccccccsscccsccscccscccc" />
    <path
       style="color:#000000;font-style:normal;font-variant:normal;font-weight:normal;font-stretch:normal;font-size:medium;line-height:normal;font-family:sans-serif;font-variant-ligatures:normal;font-variant-position:normal;font-variant-caps:normal;font-variant-numeric:normal;font-variant-alternates:normal;font-feature-settings:normal;text-indent:0;text-align:start;text-decoration:none;text-decoration-line:none;text-decoration-style:solid;text-decoration-color:#000000;letter-spacing:normal;word-spacing:normal;text-transform:none;writing-mode:lr-tb;direction:ltr;text-orientation:mixed;dominant-baseline:auto;baseline-shift:baseline;text-anchor:start;white-space:normal;shape-padding:0;clip-rule:nonzero;display:inline;overflow:visible;visibility:visible;opacity:1;isolation:auto;mix-blend-mode:normal;color-interpolation:sRGB;color-interpolation-filters:linearRGB;solid-color:#000000;solid-opacity:1;vector-effect:none;fill:#000000;fill-opacity:1;fill-rule:nonzero;stroke:none;stroke-width:21.04347801;stroke-linecap:butt;stroke-linejoin:miter;stroke-miterlimit:4;stroke-dasharray:none;stroke-dashoffset:0;stroke-opacity:1;color-rendering:auto;image-rendering:auto;shape-rendering:auto;text-rendering:auto;enable-background:accumulate"
       d="m 93.61929,644.08303 -12.595245,16.8552 c 0,0 10.068714,7.5631 22.451425,14.05706 6.19138,3.24695 12.9924,6.30152 20.07414,8.04736 7.08174,1.7459 15.09902,2.57611 22.68031,-1.85309 l -10.61663,-18.16934 c -0.0988,0.0578 -2.62079,0.68055 -7.02853,-0.40606 -4.40774,-1.08666 -10.0464,-3.48755 -15.33431,-6.2607 -10.5758,-5.54637 -19.63116,-12.27043 -19.63116,-12.27043 z"
       id="path1631"
       inkscape:connector-curvature="0" />
    <path
       style="color:#000000;font-style:normal;font-variant:normal;font-weight:normal;font-stretch:normal;font-size:medium;line-height:normal;font-family:sans-serif;font-variant-ligatures:normal;font-variant-position:normal;font-variant-caps:normal;font-variant-numeric:normal;font-variant-alternates:normal;font-feature-settings:normal;text-indent:0;text-align:start;text-decoration:none;text-decoration-line:none;text-decoration-style:solid;text-decoration-color:#000000;letter-spacing:normal;word-spacing:normal;text-transform:none;writing-mode:lr-tb;direction:ltr;text-orientation:mixed;dominant-baseline:auto;baseline-shift:baseline;text-anchor:start;white-space:normal;shape-padding:0;clip-rule:nonzero;display:inline;overflow:visible;visibility:visible;opacity:1;isolation:auto;mix-blend-mode:normal;color-interpolation:sRGB;color-interpolation-filters:linearRGB;solid-color:#000000;solid-opacity:1;vector-effect:none;fill:#000000;fill-opacity:1;fill-rule:nonzero;stroke:none;stroke-width:21.04347801;stroke-linecap:butt;stroke-linejoin:miter;stroke-miterlimit:4;stroke-dasharray:none;stroke-dashoffset:0;stroke-opacity:1;color-rendering:auto;image-rendering:auto;shape-rendering:auto;text-rendering:auto;enable-background:accumulate"
       d="m 99.04573,533.16216 -9.893099,18.57544 c 0,0 23.666519,12.59672 51.348159,25.71468 27.68162,13.11793 57.81761,26.89282 77.72728,29.37658 l 1.27724,0.16254 1.26986,-0.15498 c 0,0 4.1358,-0.42695 8.54204,2.26654 4.40623,2.69349 10.11665,8.21025 9.93,28.06984 l 21.04129,0.1992 c 0.23196,-24.68123 -9.17621,-39.60491 -19.9929,-46.21702 -10.8167,-6.61212 -22.01584,-5.21234 -22.01584,-5.21234 l 2.55448,0.008 C 209.26196,584.50696 176.67825,571.31401 149.5153,558.4419 122.35237,545.56976 99.04573,533.16279 99.04573,533.16279 Z"
       id="path1633"
       inkscape:connector-curvature="0" />
    <path
       style="color:#000000;font-style:normal;font-variant:normal;font-weight:normal;font-stretch:normal;font-size:medium;line-height:normal;font-family:sans-serif;font-variant-ligatures:normal;font-variant-position:normal;font-variant-caps:normal;font-variant-numeric:normal;font-variant-alternates:normal;font-feature-settings:normal;text-indent:0;text-align:start;text-decoration:none;text-decoration-line:none;text-decoration-style:solid;text-decoration-color:#000000;letter-spacing:normal;word-spacing:normal;text-transform:none;writing-mode:lr-tb;direction:ltr;text-orientation:mixed;dominant-baseline:auto;baseline-shift:baseline;text-anchor:start;white-space:normal;shape-padding:0;clip-rule:nonzero;display:inline;overflow:visible;visibility:visible;opacity:1;isolation:auto;mix-blend-mode:normal;color-interpolation:sRGB;color-interpolation-filters:linearRGB;solid-color:#000000;solid-opacity:1;vector-effect:none;fill:#000000;fill-opacity:1;fill-rule:nonzero;stroke:none;stroke-width:21.04347801;stroke-linecap:butt;stroke-linejoin:miter;stroke-miterlimit:4;stroke-dasharray:none;stroke-dashoffset:0;stroke-opacity:1;color-rendering:auto;image-rendering:auto;shape-rendering:auto;text-rendering:auto;enable-background:accumulate"
       d="m 147.30782,461.43718 -4.68815,20.51713 c 0,0 19.29781,4.4109 40.38452,8.80041 10.54338,2.19478 21.53758,4.38576 30.89011,6.03188 9.35252,1.64605 16.21077,2.86386 22.0749,2.76117 h 0.25104 l 0.25104,-0.0151 c 0,0 6.44261,-0.64816 14.97992,5.30828 8.5373,5.9565 19.13974,18.79252 22.31853,50.83136 l 20.94532,-2.0746 c -3.59986,-36.28281 -17.22547,-56.25241 -31.22233,-66.01798 -13.99685,-9.76556 -28.39466,-9.05145 -28.39466,-9.05145 l 0.50203,-0.0227 c -1.10389,0.0189 -9.07566,-0.86271 -18.0586,-2.44375 -8.98296,-1.58103 -19.82787,-3.73726 -30.24781,-5.90632 -20.83984,-4.33816 -39.98583,-8.71923 -39.98583,-8.71923 z"
       id="path1635"
       inkscape:connector-curvature="0" />
    <path
       style="color:#000000;font-style:normal;font-variant:normal;font-weight:normal;font-stretch:normal;font-size:medium;line-height:normal;font-family:sans-serif;font-variant-ligatures:normal;font-variant-position:normal;font-variant-caps:normal;font-variant-numeric:normal;font-variant-alternates:normal;font-feature-settings:normal;text-indent:0;text-align:start;text-decoration:none;text-decoration-line:none;text-decoration-style:solid;text-decoration-color:#000000;letter-spacing:normal;word-spacing:normal;text-transform:none;writing-mode:lr-tb;direction:ltr;text-orientation:mixed;dominant-baseline:auto;baseline-shift:baseline;text-anchor:start;white-space:normal;shape-padding:0;clip-rule:nonzero;display:inline;overflow:visible;visibility:visible;opacity:1;isolation:auto;mix-blend-mode:normal;color-interpolation:sRGB;color-interpolation-filters:linearRGB;solid-color:#000000;solid-opacity:1;vector-effect:none;fill:#000000;fill-opacity:1;fill-rule:nonzero;stroke:none;stroke-width:21.04347801;stroke-linecap:butt;stroke-linejoin:miter;stroke-miterlimit:4;stroke-dasharray:none;stroke-dashoffset:0;stroke-opacity:1;color-rendering:auto;image-rendering:auto;shape-rendering:auto;text-rendering:auto;enable-background:accumulate"
       d="m 470.66458,387.48995 -15.6887,14.02753 c 0,0 6.04185,7.59855 6.50437,15.09068 0.23135,3.74606 -0.37688,7.21419 -4.18615,11.71669 -3.77102,4.4574 -11.37791,9.88198 -25.27167,14.67721 -1.21438,0.31034 -33.86596,8.40389 -72.12367,-12.78719 l -0.67922,-0.37648 -0.71615,-0.2733 c 0,0 -52.45166,-19.93566 -75.29094,-25.44889 l -4.93178,20.45805 c 18.3058,4.41887 72.54389,24.58539 72.72168,24.65151 45.28746,24.44408 86.7123,14.07921 86.7123,14.07921 l 0.3839,-0.096 0.38391,-0.13266 c 16.5446,-5.64213 27.72723,-12.70844 34.87686,-21.15944 7.14967,-8.45099 9.63697,-18.31909 9.12531,-26.60801 -1.0234,-16.57791 -11.82005,-27.81883 -11.82005,-27.81883 z"
       id="path1637"
       inkscape:connector-curvature="0" />
    <path
       style="color:#000000;font-style:normal;font-variant:normal;font-weight:normal;font-stretch:normal;font-size:medium;line-height:normal;font-family:sans-serif;font-variant-ligatures:normal;font-variant-position:normal;font-variant-caps:normal;font-variant-numeric:normal;font-variant-alternates:normal;font-feature-settings:normal;text-indent:0;text-align:start;text-decoration:none;text-decoration-line:none;text-decoration-style:solid;text-decoration-color:#000000;letter-spacing:normal;word-spacing:normal;text-transform:none;writing-mode:lr-tb;direction:ltr;text-orientation:mixed;dominant-baseline:auto;baseline-shift:baseline;text-anchor:start;white-space:normal;shape-padding:0;clip-rule:nonzero;display:inline;overflow:visible;visibility:visible;opacity:1;isolation:auto;mix-blend-mode:normal;color-interpolation:sRGB;color-interpolation-filters:linearRGB;solid-color:#000000;solid-opacity:1;vector-effect:none;fill:#000000;fill-opacity:1;fill-rule:nonzero;stroke:none;stroke-width:21.04347801;stroke-linecap:butt;stroke-linejoin:miter;stroke-miterlimit:4;stroke-dasharray:none;stroke-dashoffset:0;stroke-opacity:1;color-rendering:auto;image-rendering:auto;shape-rendering:auto;text-rendering:auto;enable-background:accumulate"
       d="m 333.85922,426.79657 c -18.89434,17.57633 -34.91378,13.10469 -34.91378,13.10469 l -4.48881,20.55403 c 0,0 28.46613,5.25353 53.73283,-18.25059 z"
       id="path1639"
       inkscape:connector-curvature="0" />
    <path
       style="color:#000000;font-style:normal;font-variant:normal;font-weight:normal;font-stretch:normal;font-size:medium;line-height:normal;font-family:sans-serif;font-variant-ligatures:normal;font-variant-position:normal;font-variant-caps:normal;font-variant-numeric:normal;font-variant-alternates:normal;font-feature-settings:normal;text-indent:0;text-align:start;text-decoration:none;text-decoration-line:none;text-decoration-style:solid;text-decoration-color:#000000;letter-spacing:normal;word-spacing:normal;text-transform:none;writing-mode:lr-tb;direction:ltr;text-orientation:mixed;dominant-baseline:auto;baseline-shift:baseline;text-anchor:start;white-space:normal;shape-padding:0;clip-rule:nonzero;display:inline;overflow:visible;visibility:visible;opacity:1;isolation:auto;mix-blend-mode:normal;color-interpolation:sRGB;color-interpolation-filters:linearRGB;solid-color:#000000;solid-opacity:1;vector-effect:none;fill:#000000;fill-opacity:1;fill-rule:nonzero;stroke:none;stroke-width:21.04347801;stroke-linecap:butt;stroke-linejoin:miter;stroke-miterlimit:4;stroke-dasharray:none;stroke-dashoffset:0;stroke-opacity:1;color-rendering:auto;image-rendering:auto;shape-rendering:auto;text-rendering:auto;enable-background:accumulate"
       d="m 418.29018,376.74784 c -3.1312,0.0941 -6.11918,0.5069 -8.96285,1.22553 -11.37469,2.87461 -19.71,11.51441 -22.37022,21.38094 -5.32037,19.733 8.82852,42.52286 34.98764,48.07748 l 5.67744,1.20341 4.05322,-4.15653 c 0,0 6.24277,-6.39588 12.35162,-15.50415 6.10885,-9.10826 12.90283,-21.11857 12.4845,-35.15004 l -0.19203,-6.50434 -5.90634,-2.73169 c -12.03208,-5.56737 -22.72935,-8.12317 -32.12306,-7.84061 z m 6.62988,21.52855 c 2.43309,0.38844 5.94171,1.91766 8.97762,2.91623 -1.49506,5.22415 -3.93002,10.95365 -7.35339,16.05785 -2.92049,4.35446 -3.93085,5.17122 -5.84726,7.37553 -11.46626,-4.86573 -14.87753,-14.39558 -13.42213,-19.79359 0.84373,-3.12939 2.32911,-5.22577 7.21308,-6.46004 2.44202,-0.61713 5.91794,-0.81665 10.43208,-0.096 z"
       id="path1641"
       inkscape:connector-curvature="0" />
    <path
       style="color:#000000;font-style:normal;font-variant:normal;font-weight:normal;font-stretch:normal;font-size:medium;line-height:normal;font-family:sans-serif;font-variant-ligatures:normal;font-variant-position:normal;font-variant-caps:normal;font-variant-numeric:normal;font-variant-alternates:normal;font-feature-settings:normal;text-indent:0;text-align:start;text-decoration:none;text-decoration-line:none;text-decoration-style:solid;text-decoration-color:#000000;letter-spacing:normal;word-spacing:normal;text-transform:none;writing-mode:lr-tb;direction:ltr;text-orientation:mixed;dominant-baseline:auto;baseline-shift:baseline;text-anchor:start;white-space:normal;shape-padding:0;clip-rule:nonzero;display:inline;overflow:visible;visibility:visible;opacity:1;isolation:auto;mix-blend-mode:normal;color-interpolation:sRGB;color-interpolation-filters:linearRGB;solid-color:#000000;solid-opacity:1;vector-effect:none;fill:#000000;fill-opacity:1;fill-rule:nonzero;stroke:none;stroke-width:21.04347801;stroke-linecap:butt;stroke-linejoin:miter;stroke-miterlimit:4;stroke-dasharray:none;stroke-dashoffset:0;stroke-opacity:1;color-rendering:auto;image-rendering:auto;shape-rendering:auto;text-rendering:auto;enable-background:accumulate"
       d="m 116.15933,642.05273 -15.52627,14.21213 c 0,0 28.59454,32.68969 66.79319,32.11563 1.29358,2.60766 2.68919,5.42851 4.98348,8.2615 l 16.35313,-13.24496 c -1.66664,-2.05798 -4.69553,-9.16219 -4.69553,-9.16219 l -2.89409,-8.13597 -8.54204,1.24772 c -27.46457,4.0083 -56.47187,-25.29386 -56.47187,-25.29386 z"
       id="path1643"
       inkscape:connector-curvature="0" />
    <path
       style="color:#000000;font-style:normal;font-variant:normal;font-weight:normal;font-stretch:normal;font-size:medium;line-height:normal;font-family:sans-serif;font-variant-ligatures:normal;font-variant-position:normal;font-variant-caps:normal;font-variant-numeric:normal;font-variant-alternates:normal;font-feature-settings:normal;text-indent:0;text-align:start;text-decoration:none;text-decoration-line:none;text-decoration-style:solid;text-decoration-color:#000000;letter-spacing:normal;word-spacing:normal;text-transform:none;writing-mode:lr-tb;direction:ltr;text-orientation:mixed;dominant-baseline:auto;baseline-shift:baseline;text-anchor:start;white-space:normal;shape-padding:0;clip-rule:nonzero;display:inline;overflow:visible;visibility:visible;opacity:1;isolation:auto;mix-blend-mode:normal;color-interpolation:sRGB;color-interpolation-filters:linearRGB;solid-color:#000000;solid-opacity:1;vector-effect:none;fill:#000000;fill-opacity:1;fill-rule:nonzero;stroke:none;stroke-width:21.04347801;stroke-linecap:butt;stroke-linejoin:miter;stroke-miterlimit:4;stroke-dasharray:none;stroke-dashoffset:0;stroke-opacity:1;color-rendering:auto;image-rendering:auto;shape-rendering:auto;text-rendering:auto;enable-background:accumulate"
       d="m 330.72149,452.28976 c -5.10206,34.69591 29.64978,56.11014 29.64978,56.11014 l 11.65024,-17.52705 c 0,0 -23.19028,-17.08972 -20.48021,-35.51916 z"
       id="path1645"
       inkscape:connector-curvature="0" />
    <path
       style="color:#000000;font-style:normal;font-variant:normal;font-weight:normal;font-stretch:normal;font-size:medium;line-height:normal;font-family:sans-serif;font-variant-ligatures:normal;font-variant-position:normal;font-variant-caps:normal;font-variant-numeric:normal;font-variant-alternates:normal;font-feature-settings:normal;text-indent:0;text-align:start;text-decoration:none;text-decoration-line:none;text-decoration-style:solid;text-decoration-color:#000000;letter-spacing:normal;word-spacing:normal;text-transform:none;writing-mode:lr-tb;direction:ltr;text-orientation:mixed;dominant-baseline:auto;baseline-shift:baseline;text-anchor:start;white-space:normal;shape-padding:0;clip-rule:nonzero;display:inline;overflow:visible;visibility:visible;opacity:1;isolation:auto;mix-blend-mode:normal;color-interpolation:sRGB;color-interpolation-filters:linearRGB;solid-color:#000000;solid-opacity:1;vector-effect:none;fill:#000000;fill-opacity:1;fill-rule:nonzero;stroke:none;stroke-width:21.04347801;stroke-linecap:butt;stroke-linejoin:miter;stroke-miterlimit:4;stroke-dasharray:none;stroke-dashoffset:0;stroke-opacity:1;color-rendering:auto;image-rendering:auto;shape-rendering:auto;text-rendering:auto;enable-background:accumulate"
       d="m 264.23837,672.51464 -18.74521,9.56825 c 13.41401,26.28088 45.7962,28.32082 45.7962,28.32082 l 2.18534,-20.93051 c 0,0 -22.46677,-3.6956 -29.23633,-16.95856 z"
       id="path1647"
       inkscape:connector-curvature="0" />
    <path
       style="color:#000000;font-style:normal;font-variant:normal;font-weight:normal;font-stretch:normal;font-size:medium;line-height:normal;font-family:sans-serif;font-variant-ligatures:normal;font-variant-position:normal;font-variant-caps:normal;font-variant-numeric:normal;font-variant-alternates:normal;font-feature-settings:normal;text-indent:0;text-align:start;text-decoration:none;text-decoration-line:none;text-decoration-style:solid;text-decoration-color:#000000;letter-spacing:normal;word-spacing:normal;text-transform:none;writing-mode:lr-tb;direction:ltr;text-orientation:mixed;dominant-baseline:auto;baseline-shift:baseline;text-anchor:start;white-space:normal;shape-padding:0;clip-rule:nonzero;display:inline;overflow:visible;visibility:visible;opacity:1;isolation:auto;mix-blend-mode:normal;color-interpolation:sRGB;color-interpolation-filters:linearRGB;solid-color:#000000;solid-opacity:1;vector-effect:none;fill:#000000;fill-opacity:1;fill-rule:nonzero;stroke:none;stroke-width:5.03330708;stroke-linecap:butt;stroke-linejoin:miter;stroke-miterlimit:4;stroke-dasharray:none;stroke-dashoffset:0;stroke-opacity:1;color-rendering:auto;image-rendering:auto;shape-rendering:auto;text-rendering:auto;enable-background:accumulate"
       d="m 483.5182,433.80296 c 0,0 -7.6873,12.87085 -13.4738,28.63096 -2.89325,7.87998 -5.32709,16.49953 -6.07612,24.74011 -0.74902,8.24056 0.17238,16.21213 4.41499,22.48096 l 4.16396,-2.82027 c -3.30725,-4.88662 -4.25379,-11.64313 -3.56596,-19.21034 0.68781,-7.56724 2.99065,-15.83617 5.7882,-23.4555 1.46523,-3.99069 2.97085,-6.82488 4.52574,-10.26965 -0.43518,2.91229 -1.05904,5.06546 -1.28464,8.35009 -1.07187,15.60673 0.92222,34.80462 13.91678,48.23995 l 3.61763,-3.49953 c -11.49045,-11.88012 -13.52934,-29.50295 -12.50665,-44.39345 1.02271,-14.89044 5.0204,-26.6966 5.0204,-26.6966 z"
       id="path60719"
       inkscape:connector-curvature="0" />
    <path
       style="color:#000000;font-style:normal;font-variant:normal;font-weight:normal;font-stretch:normal;font-size:medium;line-height:normal;font-family:sans-serif;font-variant-ligatures:normal;font-variant-position:normal;font-variant-caps:normal;font-variant-numeric:normal;font-variant-alternates:normal;font-feature-settings:normal;text-indent:0;text-align:start;text-decoration:none;text-decoration-line:none;text-decoration-style:solid;text-decoration-color:#000000;letter-spacing:normal;word-spacing:normal;text-transform:none;writing-mode:lr-tb;direction:ltr;text-orientation:mixed;dominant-baseline:auto;baseline-shift:baseline;text-anchor:start;white-space:normal;shape-padding:0;clip-rule:nonzero;display:inline;overflow:visible;visibility:visible;opacity:1;isolation:auto;mix-blend-mode:normal;color-interpolation:sRGB;color-interpolation-filters:linearRGB;solid-color:#000000;solid-opacity:1;vector-effect:none;fill:#000000;fill-opacity:1;fill-rule:nonzero;stroke:none;stroke-width:5.03330708;stroke-linecap:butt;stroke-linejoin:miter;stroke-miterlimit:4;stroke-dasharray:none;stroke-dashoffset:0;stroke-opacity:1;color-rendering:auto;image-rendering:auto;shape-rendering:auto;text-rendering:auto;enable-background:accumulate"
       d="m 468.47187,350.16194 c -1.72842,13.14366 2.18813,31.69041 6.40095,47.23589 4.21285,15.54546 8.82996,27.9886 8.82996,27.9886 l 4.82105,-1.41011 c 0,0 -2.28743,-10.64139 -1.86046,-24.02401 0.42692,-13.38266 3.63285,-29.22205 14.09394,-39.68316 l -3.55857,-3.55857 c -11.8715,11.87155 -15.11516,29.04375 -15.56315,43.08667 -0.034,1.06648 0.1289,1.68694 0.1255,2.71692 -0.94871,-3.12206 -1.0623,-2.85862 -2.03031,-6.43052 -4.14712,-15.303 -7.77976,-33.76903 -6.26807,-45.26463 z"
       id="path60719-5"
       inkscape:connector-curvature="0" />
    <path
       inkscape:connector-curvature="0"
       id="path29-8-7-9-1"
       d="M 793.82944,530.30666 C 720.48807,458.10563 657.34925,455.24342 609.1649,470.46201 c -24.09226,7.60932 -44.40846,20.12425 -59.51228,31.62116 -15.10376,11.4969 -24.56214,21.52753 -28.52067,25.44949 l -13.56158,-13.6853 c 3.05069,-3.02215 14.05786,-14.64513 30.41228,-27.09378 16.35414,-12.44866 38.48693,-26.1687 65.38116,-34.66295 53.78796,-16.98865 126.75905,-11.53372 203.97999,64.48676 z"
       style="color:#000000;font-style:normal;font-variant:normal;font-weight:normal;font-stretch:normal;font-size:medium;line-height:normal;font-family:sans-serif;font-variant-ligatures:normal;font-variant-position:normal;font-variant-caps:normal;font-variant-numeric:normal;font-variant-alternates:normal;font-feature-settings:normal;text-indent:0;text-align:start;text-decoration:none;text-decoration-line:none;text-decoration-style:solid;text-decoration-color:#000000;letter-spacing:normal;word-spacing:normal;text-transform:none;writing-mode:lr-tb;direction:ltr;text-orientation:mixed;dominant-baseline:auto;baseline-shift:baseline;text-anchor:start;white-space:normal;shape-padding:0;clip-rule:nonzero;display:inline;overflow:visible;visibility:visible;opacity:1;isolation:auto;mix-blend-mode:normal;color-interpolation:sRGB;color-interpolation-filters:linearRGB;solid-color:#000000;solid-opacity:1;vector-effect:none;fill:#000000;fill-opacity:1;fill-rule:nonzero;stroke:none;stroke-width:19.26585197;stroke-linecap:butt;stroke-linejoin:miter;stroke-miterlimit:4;stroke-dasharray:none;stroke-dashoffset:0;stroke-opacity:1;color-rendering:auto;image-rendering:auto;shape-rendering:auto;text-rendering:auto;enable-background:accumulate" />
    <path
       inkscape:connector-curvature="0"
       id="path87-11-5-36-8"
       d="m 530.12806,88.69063 c -19.1245,0.18218 -34.5897,7.86997 -44.54988,19.37452 -9.98767,11.53566 -14.63159,26.42487 -14.49735,41.08489 0.1342,14.6602 5.04357,29.36932 15.15259,40.55553 10.07923,11.15257 25.54924,18.28965 44.27418,17.7065 18.3656,-0.0488 33.30992,-7.84353 42.79706,-19.35693 9.51601,-11.54892 13.88857,-26.33918 13.79383,-40.92305 -0.0938,-14.58404 -4.65166,-29.2357 -14.27061,-40.49949 C 563.234,95.39805 548.23225,88.06563 530.12806,88.69063 Z m 0.57393,19.24507 c 12.91905,-0.47528 21.34789,4.03221 27.47589,11.20821 6.1281,7.1761 9.58667,17.54021 9.65493,28.11463 0.0673,10.57447 -3.24929,21.08421 -9.39888,28.54714 -6.14897,7.46272 -14.79274,12.3584 -28.08804,12.3584 h -0.16179 l -0.16177,0.0151 c -13.8285,0.46451 -23.00418,-4.19691 -29.4974,-11.38188 -6.49319,-7.18474 -10.08604,-17.39032 -10.18123,-27.81453 -0.0953,-10.42419 3.30165,-20.78925 9.80207,-28.29695 6.49965,-7.50784 15.91698,-12.62879 30.27054,-12.73507 l 0.14441,-0.0151 z"
       style="color:#000000;font-style:normal;font-variant:normal;font-weight:normal;font-stretch:normal;font-size:medium;line-height:normal;font-family:sans-serif;font-variant-ligatures:normal;font-variant-position:normal;font-variant-caps:normal;font-variant-numeric:normal;font-variant-alternates:normal;font-feature-settings:normal;text-indent:0;text-align:start;text-decoration:none;text-decoration-line:none;text-decoration-style:solid;text-decoration-color:#000000;letter-spacing:normal;word-spacing:normal;text-transform:none;writing-mode:lr-tb;direction:ltr;text-orientation:mixed;dominant-baseline:auto;baseline-shift:baseline;text-anchor:start;white-space:normal;shape-padding:0;clip-rule:nonzero;display:inline;overflow:visible;visibility:visible;opacity:1;isolation:auto;mix-blend-mode:normal;color-interpolation:sRGB;color-interpolation-filters:linearRGB;solid-color:#000000;solid-opacity:1;vector-effect:none;fill:#000000;fill-opacity:1;fill-rule:nonzero;stroke:none;stroke-width:19.26585197;stroke-linecap:butt;stroke-linejoin:miter;stroke-miterlimit:4;stroke-dasharray:none;stroke-dashoffset:0;stroke-opacity:1;color-rendering:auto;image-rendering:auto;shape-rendering:auto;text-rendering:auto;enable-background:accumulate" />
    <path
       inkscape:connector-curvature="0"
       id="path1039-2-1"
       d="m 434.31438,25.49238 -10.89637,21.2808 c 0,0 48.21988,24.68662 96.9052,49.38074 24.3428,12.34708 48.79902,24.69638 67.43715,33.97755 9.31931,4.64055 17.17528,8.51128 22.89328,11.25823 2.85881,1.37337 5.17032,2.45906 6.95979,3.26238 0.89541,0.40168 1.6428,0.72868 2.40952,1.03257 0.38324,0.15232 0.75579,0.29785 1.32131,0.47968 0.56474,0.18183 0.51786,0.64427 3.96838,0.64427 v -23.90784 c 3.33669,0 3.08338,0.41631 3.35355,0.50316 0.26989,0.0862 0.25817,0.09 0.17047,0.0552 -0.17614,-0.0699 -0.71663,-0.29634 -1.43293,-0.61781 -1.43223,-0.64276 -3.63533,-1.67761 -6.39509,-3.00339 -5.52044,-2.65209 -13.3228,-6.49364 -22.59019,-11.10833 C 579.88399,99.50023 555.45272,87.168 531.13709,74.83452 482.50542,50.16732 434.31419,25.49201 434.31419,25.49201 Z"
       style="color:#000000;font-style:normal;font-variant:normal;font-weight:normal;font-stretch:normal;font-size:medium;line-height:normal;font-family:sans-serif;font-variant-ligatures:normal;font-variant-position:normal;font-variant-caps:normal;font-variant-numeric:normal;font-variant-alternates:normal;font-feature-settings:normal;text-indent:0;text-align:start;text-decoration:none;text-decoration-line:none;text-decoration-style:solid;text-decoration-color:#000000;letter-spacing:normal;word-spacing:normal;text-transform:none;writing-mode:lr-tb;direction:ltr;text-orientation:mixed;dominant-baseline:auto;baseline-shift:baseline;text-anchor:start;white-space:normal;shape-padding:0;clip-rule:nonzero;display:inline;overflow:visible;visibility:visible;opacity:1;isolation:auto;mix-blend-mode:normal;color-interpolation:sRGB;color-interpolation-filters:linearRGB;solid-color:#000000;solid-opacity:1;vector-effect:none;fill:#000000;fill-opacity:1;fill-rule:nonzero;stroke:none;stroke-width:23.90747643;stroke-linecap:butt;stroke-linejoin:miter;stroke-miterlimit:4;stroke-dasharray:none;stroke-dashoffset:0;stroke-opacity:1;color-rendering:auto;image-rendering:auto;shape-rendering:auto;text-rendering:auto;enable-background:accumulate" />
    <path
       inkscape:connector-curvature="0"
       id="path87-11-5-3-7-2"
       d="m 786.62785,88.69063 c -18.10346,-0.625 -33.10558,6.70742 -42.69965,17.94197 -9.61944,11.26379 -14.17612,25.91545 -14.27093,40.49949 -0.0938,14.58387 4.27814,29.37413 13.79426,40.92305 9.48756,11.51412 24.42991,19.30987 42.79668,19.35693 18.72536,0.58315 34.19499,-6.55393 44.27407,-17.7065 10.10951,-11.18621 15.01887,-25.89533 15.15308,-40.55553 0.1342,-14.66002 -4.51285,-29.54923 -14.49999,-41.08489 C 821.21521,96.5606 805.75282,88.873 786.62785,88.69063 Z m -0.57355,19.24507 0.14099,0.0151 0.141,0.0151 c 14.35399,0.10583 23.77425,5.22723 30.27375,12.73492 6.50048,7.5077 9.89495,17.87283 9.79941,28.29709 -0.0938,10.42407 -3.68856,20.62964 -10.18163,27.81454 -6.49324,7.18474 -15.6689,11.84622 -29.49711,11.38169 l -0.16216,-0.0151 h -0.1618 c -13.29477,0 -21.93855,-4.89568 -28.08771,-12.35848 -6.14952,-7.46281 -9.46451,-17.97263 -9.39644,-28.54695 0.0699,-10.57461 3.52719,-20.93887 9.65543,-28.1147 6.12767,-7.17612 14.55693,-11.6836 27.47574,-11.20825 z"
       style="color:#000000;font-style:normal;font-variant:normal;font-weight:normal;font-stretch:normal;font-size:medium;line-height:normal;font-family:sans-serif;font-variant-ligatures:normal;font-variant-position:normal;font-variant-caps:normal;font-variant-numeric:normal;font-variant-alternates:normal;font-feature-settings:normal;text-indent:0;text-align:start;text-decoration:none;text-decoration-line:none;text-decoration-style:solid;text-decoration-color:#000000;letter-spacing:normal;word-spacing:normal;text-transform:none;writing-mode:lr-tb;direction:ltr;text-orientation:mixed;dominant-baseline:auto;baseline-shift:baseline;text-anchor:start;white-space:normal;shape-padding:0;clip-rule:nonzero;display:inline;overflow:visible;visibility:visible;opacity:1;isolation:auto;mix-blend-mode:normal;color-interpolation:sRGB;color-interpolation-filters:linearRGB;solid-color:#000000;solid-opacity:1;vector-effect:none;fill:#000000;fill-opacity:1;fill-rule:nonzero;stroke:none;stroke-width:19.26585197;stroke-linecap:butt;stroke-linejoin:miter;stroke-miterlimit:4;stroke-dasharray:none;stroke-dashoffset:0;stroke-opacity:1;color-rendering:auto;image-rendering:auto;shape-rendering:auto;text-rendering:auto;enable-background:accumulate" />
    <path
       inkscape:connector-curvature="0"
       id="path1039-7-0-3"
       d="m 882.44162,25.49238 c 0,0 -48.19373,24.6753 -96.82547,49.34253 -24.31571,12.33349 -48.74414,24.66568 -67.27867,33.89508 -9.26697,4.6148 -17.06938,8.45624 -22.58998,11.10829 -2.76002,1.32581 -4.96304,2.36078 -6.39562,3.00339 -0.71591,0.32132 -1.25679,0.54815 -1.4322,0.61781 -0.0877,0.034 -0.099,0.0302 0.17049,-0.0552 0.26988,-0.0862 0.0151,-0.50297 3.3535,-0.50297 v 23.9078 c 3.44972,0 3.40004,-0.46255 3.96524,-0.64435 0.56553,-0.18182 0.94056,-0.32735 1.32369,-0.47964 0.76672,-0.30393 1.51166,-0.63078 2.40668,-1.03253 1.78983,-0.80332 4.10099,-1.88901 6.9603,-3.26242 5.71789,-2.74691 13.57683,-6.61749 22.89565,-11.25819 18.6386,-9.28117 43.09521,-21.63047 67.43764,-33.97755 48.68532,-24.69427 96.90252,-49.38085 96.90252,-49.38085 z"
       style="color:#000000;font-style:normal;font-variant:normal;font-weight:normal;font-stretch:normal;font-size:medium;line-height:normal;font-family:sans-serif;font-variant-ligatures:normal;font-variant-position:normal;font-variant-caps:normal;font-variant-numeric:normal;font-variant-alternates:normal;font-feature-settings:normal;text-indent:0;text-align:start;text-decoration:none;text-decoration-line:none;text-decoration-style:solid;text-decoration-color:#000000;letter-spacing:normal;word-spacing:normal;text-transform:none;writing-mode:lr-tb;direction:ltr;text-orientation:mixed;dominant-baseline:auto;baseline-shift:baseline;text-anchor:start;white-space:normal;shape-padding:0;clip-rule:nonzero;display:inline;overflow:visible;visibility:visible;opacity:1;isolation:auto;mix-blend-mode:normal;color-interpolation:sRGB;color-interpolation-filters:linearRGB;solid-color:#000000;solid-opacity:1;vector-effect:none;fill:#000000;fill-opacity:1;fill-rule:nonzero;stroke:none;stroke-width:23.90747643;stroke-linecap:butt;stroke-linejoin:miter;stroke-miterlimit:4;stroke-dasharray:none;stroke-dashoffset:0;stroke-opacity:1;color-rendering:auto;image-rendering:auto;shape-rendering:auto;text-rendering:auto;enable-background:accumulate" />
    <path
       style="font-style:normal;font-weight:normal;font-size:233.33332825px;line-height:1.25;font-family:sans-serif;letter-spacing:0px;word-spacing:0px;fill:#000000;fill-opacity:1;stroke:none"
       d="m 278,859.23887 v 169.64663 h 22.5586 v -67.44943 h 31.78711 l 56.73828,67.44943 h 29.28125 L 354.5625,954.71537 c 10.78559,-4.1775 19.25586,-10.3691 25.40821,-18.5722 6.15234,-8.2791 9.22851,-18.533 9.22851,-30.7618 0,-9.0386 -1.74826,-16.4815 -5.24218,-22.33 -3.41797,-5.9245 -8.20313,-10.8236 -14.35547,-14.6973 -5.46875,-3.418 -11.6211,-5.7732 -18.45703,-7.0645 -6.83594,-1.3671 -15.38086,-2.0507 -25.63477,-2.0507 z m 296.79493,5.8105 v 36.5723 h -14.47071 v 18.0019 h 14.47071 v 67.67578 c 0,15.41885 3.37869,26.62155 10.13867,33.60955 6.75994,6.9878 16.63474,10.4824 29.62304,10.4824 3.7218,0 7.9373,-0.3418 12.6465,-1.0254 4.7851,-0.6836 9.1912,-1.5577 13.2168,-2.6211 v -19.2539 h -1.1406 c -1.671,0.6836 -4.4054,1.5577 -8.2032,2.6211 -3.7977,0.9874 -7.4435,1.4805 -10.9375,1.4805 -6.0004,0 -10.4811,-0.6836 -13.4433,-2.0508 -2.8863,-1.4431 -5.1649,-3.6845 -6.836,-6.7227 -1.8229,-3.2661 -2.8856,-6.75875 -3.1894,-10.48055 -0.3038,-3.7978 -0.457,-9.0387 -0.457,-15.7227 v -57.99218 h 44.207 v -18.0019 h -44.207 v -36.5723 z m -274.23633,13.5586 h 26.54687 c 6.07639,0 11.3546,0.4557 15.83594,1.3672 4.48134,0.8355 8.35503,2.3539 11.62109,4.5566 3.94966,2.5825 6.76064,5.7726 8.43164,9.5703 1.74697,3.7218 2.6211,8.0139 2.6211,12.875 0,6.3803 -0.83681,11.6585 -2.50781,15.836 -1.59506,4.1015 -4.10157,7.7474 -7.51954,10.9375 -3.72178,3.418 -8.2398,5.7732 -13.55664,7.0644 -5.31684,1.2153 -11.54579,1.8223 -18.68554,1.8223 H 300.5586 Z m 415.62504,19.4824 c -18.0013,0 -32.3175,6.0384 -42.9512,18.1153 -10.5577,12.0008 -15.8379,28.3698 -15.8379,49.1054 0,20.73568 5.2802,37.10273 15.8379,49.10353 10.6337,12.001 24.9499,18.002 42.9512,18.002 17.8494,0 32.0909,-6.001 42.7246,-18.002 10.6337,-12.0008 15.9511,-28.36785 15.9511,-49.10353 0,-20.7356 -5.3174,-37.1046 -15.9511,-49.1054 -10.6337,-12.0769 -24.8752,-18.1153 -42.7246,-18.1153 z m -238.68754,0.4551 c -7.67144,0 -15.45617,0.6836 -23.35547,2.0508 -7.89931,1.3672 -13.93772,2.6204 -18.11524,3.7598 v 21.7617 h 1.13868 c 7.36762,-2.8104 14.50803,-4.9377 21.41992,-6.3809 6.91189,-1.5191 13.17817,-2.2773 18.79883,-2.2773 4.63324,0 9.0766,0.3025 13.33007,0.9101 4.25348,0.6077 7.89931,1.7863 10.9375,3.5332 3.19011,1.8229 5.62001,4.3295 7.29102,7.5196 1.74696,3.1901 2.62109,7.215 2.62109,12.0761 v 3.3047 c -12.45659,0.6077 -24.11697,1.5191 -34.97851,2.7344 -10.86155,1.2153 -20.16472,3.5312 -27.91211,6.9492 -7.67144,3.418 -13.59592,8.1265 -17.77344,14.127 -4.10156,5.9244 -6.15234,13.71108 -6.15234,23.35738 0,11.77305 3.98763,21.45735 11.96289,29.05275 7.97526,7.5955 17.69683,11.3926 29.16601,11.3926 6.2283,0 11.65973,-0.6069 16.29297,-1.8223 4.63325,-1.1393 8.73481,-2.5831 12.30469,-4.3299 3.03819,-1.3672 6.15169,-3.1902 9.3418,-5.4689 3.26606,-2.3546 5.84917,-4.1775 7.74804,-5.4687 v 13.5587 h 21.30469 v -86.36153 c 0,-8.2031 -1.25325,-15.0764 -3.75976,-20.6211 -2.50651,-5.5447 -6.15235,-10.0646 -10.9375,-13.5586 -4.86112,-3.5698 -10.63434,-6.0764 -17.31836,-7.5195 -6.60808,-1.5191 -14.3928,-2.2793 -23.35547,-2.2793 z m 238.68754,18.002 c 11.4691,0 20.4325,4.0249 26.8886,12.0761 6.4562,7.9753 9.6836,20.2053 9.6836,36.6875 0,16.10248 -3.2647,28.25388 -9.7968,36.45713 -6.4562,8.127 -15.3822,12.1913 -26.7754,12.1913 -11.5452,0 -20.5458,-4.1015 -27.002,-12.3046 -6.4562,-8.27915 -9.6836,-20.39325 -9.6836,-36.34383 0,-16.4822 3.1901,-28.7122 9.5703,-36.6875 6.4562,-8.0512 15.4942,-12.0761 27.1153,-12.0761 z m -204.62114,45.5722 v 35.43358 c -5.31684,4.10165 -11.09006,7.63355 -17.31836,10.59575 -6.22829,2.8863 -13.10156,4.3301 -20.62109,4.3301 -9.03863,0 -15.76063,-1.8229 -20.16601,-5.4687 -4.40539,-3.7218 -6.60938,-9.22995 -6.60938,-16.52155 0,-6.4562 1.89952,-11.5065 5.69727,-15.1524 3.79774,-3.72178 8.77343,-6.45608 14.92578,-8.20308 5.16493,-1.4431 12.15212,-2.5451 20.96289,-3.3047 8.88672,-0.7595 16.59679,-1.3292 23.1289,-1.709 z"
       id="text3377"
       inkscape:connector-curvature="0" />
  </g>
</svg>
