<?xml version="1.0" encoding="UTF-8" standalone="no"?>
<!-- Created with Inkscape (http://www.inkscape.org/) -->

<svg
   xmlns:dc="http://purl.org/dc/elements/1.1/"
   xmlns:cc="http://creativecommons.org/ns#"
   xmlns:rdf="http://www.w3.org/1999/02/22-rdf-syntax-ns#"
   xmlns:svg="http://www.w3.org/2000/svg"
   xmlns="http://www.w3.org/2000/svg"
   xmlns:sodipodi="http://sodipodi.sourceforge.net/DTD/sodipodi-0.dtd"
   xmlns:inkscape="http://www.inkscape.org/namespaces/inkscape"
   width="1000"
   height="1250"
   viewBox="0 0 1000 1250"
   version="1.1"
   id="svg31543"
   inkscape:version="0.92.4 (5da689c313, 2019-01-14)"
   sodipodi:docname="Comandante.svg">
  <defs
     id="defs31537" />
  <sodipodi:namedview
     id="base"
     pagecolor="#ffffff"
     bordercolor="#666666"
     borderopacity="1.0"
     inkscape:pageopacity="0.0"
     inkscape:pageshadow="2"
     inkscape:zoom="0.3535534"
     inkscape:cx="468.76866"
     inkscape:cy="760.75683"
     inkscape:document-units="px"
     inkscape:current-layer="layer1"
     showgrid="false"
     units="px"
     inkscape:window-width="1366"
     inkscape:window-height="715"
     inkscape:window-x="-8"
     inkscape:window-y="-8"
     inkscape:window-maximized="1" />
  <metadata
     id="metadata31540">
    <rdf:RDF>
      <cc:Work
         rdf:about="">
        <dc:format>image/svg+xml</dc:format>
        <dc:type
           rdf:resource="http://purl.org/dc/dcmitype/StillImage" />
        <dc:title />
      </cc:Work>
    </rdf:RDF>
  </metadata>
  <g
     inkscape:label="Camada 1"
     inkscape:groupmode="layer"
     id="layer1"
     transform="translate(0,217.58335)">
    <path
       style="color:#000000;font-style:normal;font-variant:normal;font-weight:normal;font-stretch:normal;font-size:medium;line-height:normal;font-family:sans-serif;font-variant-ligatures:normal;font-variant-position:normal;font-variant-caps:normal;font-variant-numeric:normal;font-variant-alternates:normal;font-feature-settings:normal;text-indent:0;text-align:start;text-decoration:none;text-decoration-line:none;text-decoration-style:solid;text-decoration-color:#000000;letter-spacing:normal;word-spacing:normal;text-transform:none;writing-mode:lr-tb;direction:ltr;text-orientation:mixed;dominant-baseline:auto;baseline-shift:baseline;text-anchor:start;white-space:normal;shape-padding:0;clip-rule:nonzero;display:inline;overflow:visible;visibility:visible;opacity:1;isolation:auto;mix-blend-mode:normal;color-interpolation:sRGB;color-interpolation-filters:linearRGB;solid-color:#000000;solid-opacity:1;vector-effect:none;fill:#000000;fill-opacity:1;fill-rule:nonzero;stroke:none;stroke-width:23.53855324;stroke-linecap:butt;stroke-linejoin:miter;stroke-miterlimit:4;stroke-dasharray:none;stroke-dashoffset:0;stroke-opacity:1;color-rendering:auto;image-rendering:auto;shape-rendering:auto;text-rendering:auto;enable-background:accumulate"
       d="m 721.37852,-217.24516 c -90.70819,-0.0264 -153.02153,36.39206 -188.86329,90.875 -35.8449,54.48772 -45.84787,125.6356 -38.01367,196.0625 7.83421,70.4269 33.53933,140.44459 71.48828,193.61719 37.94896,53.17259 89.04104,90.21335 147.1543,89.86718 58.08588,-0.34604 108.76157,-37.77686 146.48633,-91.1289 37.72476,-53.35204 63.38009,-123.33984 71.90039,-193.5918 8.52031,-70.25196 -0.0119,-141.02496 -33.11328,-195.29688 -33.09805,-54.26642 -91.74939,-90.71086 -177.03906,-90.40429 z m 0.0137,23.53711 h 0.0254 0.0234 c 78.77188,-0.28999 127.6304,31.165 156.88086,79.12304 29.25045,47.95804 37.90245,113.74505 29.8418,180.20704 -8.06066,66.46198 -32.75384,133.34004 -67.75196,182.83593 -34.99811,49.4959 -79.41823,80.8938 -127.40625,81.17969 C 665.04484,329.92334 620.31328,298.90511 585.15,249.6357 549.98672,200.36628 525.2899,133.5586 517.89609,67.09077 c -7.3938,-66.46782 2.54934,-132.28489 34.28321,-180.52343 31.73386,-48.23855 84.62594,-80.30596 169.21289,-80.27539 z"
       id="path10-9-5"
       inkscape:connector-curvature="0" />
    <path
       style="color:#000000;font-style:normal;font-variant:normal;font-weight:normal;font-stretch:normal;font-size:medium;line-height:normal;font-family:sans-serif;font-variant-ligatures:normal;font-variant-position:normal;font-variant-caps:normal;font-variant-numeric:normal;font-variant-alternates:normal;font-feature-settings:normal;text-indent:0;text-align:start;text-decoration:none;text-decoration-line:none;text-decoration-style:solid;text-decoration-color:#000000;letter-spacing:normal;word-spacing:normal;text-transform:none;writing-mode:lr-tb;direction:ltr;text-orientation:mixed;dominant-baseline:auto;baseline-shift:baseline;text-anchor:start;white-space:normal;shape-padding:0;clip-rule:nonzero;display:inline;overflow:visible;visibility:visible;opacity:1;isolation:auto;mix-blend-mode:normal;color-interpolation:sRGB;color-interpolation-filters:linearRGB;solid-color:#000000;solid-opacity:1;vector-effect:none;fill:#000000;fill-opacity:1;fill-rule:nonzero;stroke:none;stroke-width:11.76927662;stroke-linecap:butt;stroke-linejoin:miter;stroke-miterlimit:4;stroke-dasharray:none;stroke-dashoffset:0;stroke-opacity:1;color-rendering:auto;image-rendering:auto;shape-rendering:auto;text-rendering:auto;enable-background:accumulate"
       d="m 708.78672,66.24312 c 0,0 -1.32766,13.09907 -3.52344,26.85937 -1.09788,6.88016 -2.42063,13.92625 -3.84179,19.40039 -0.71058,2.73707 -1.4545,5.08822 -2.1211,6.70899 -0.66016,1.60512 -1.50219,2.44329 -0.91797,1.95898 -1.2999,1.08224 -2.67458,1.98946 -3.39453,4.86914 -0.36074,1.4429 -0.1535,3.59272 0.76758,5.09375 0.92108,1.50104 2.11788,2.23597 3.02344,2.66211 3.62224,1.70457 5.48247,1.05072 7.94531,0.88086 4.92568,-0.33972 10.25977,-1.4375 10.25977,-1.4375 l -2.3086,-11.54101 c 0,0 -2.5153,0.32044 -4.03711,0.57031 0.7805,-2.09261 1.51871,-4.27762 2.17579,-6.80859 1.58817,-6.11748 2.94101,-13.41273 4.07226,-20.50196 2.2625,-14.17845 3.60938,-27.53125 3.60938,-27.53125 z"
       id="path971-8"
       inkscape:connector-curvature="0" />
    <path
       style="color:#000000;font-style:normal;font-variant:normal;font-weight:normal;font-stretch:normal;font-size:medium;line-height:normal;font-family:sans-serif;font-variant-ligatures:normal;font-variant-position:normal;font-variant-caps:normal;font-variant-numeric:normal;font-variant-alternates:normal;font-feature-settings:normal;text-indent:0;text-align:start;text-decoration:none;text-decoration-line:none;text-decoration-style:solid;text-decoration-color:#000000;letter-spacing:normal;word-spacing:normal;text-transform:none;writing-mode:lr-tb;direction:ltr;text-orientation:mixed;dominant-baseline:auto;baseline-shift:baseline;text-anchor:start;white-space:normal;shape-padding:0;clip-rule:nonzero;display:inline;overflow:visible;visibility:visible;opacity:1;isolation:auto;mix-blend-mode:normal;color-interpolation:sRGB;color-interpolation-filters:linearRGB;solid-color:#000000;solid-opacity:1;vector-effect:none;fill:#000000;fill-opacity:1;fill-rule:nonzero;stroke:none;stroke-width:14.70025444;stroke-linecap:butt;stroke-linejoin:miter;stroke-miterlimit:4;stroke-dasharray:none;stroke-dashoffset:0;stroke-opacity:1;color-rendering:auto;image-rendering:auto;shape-rendering:auto;text-rendering:auto;enable-background:accumulate"
       d="m 934.26914,289.12788 c -1.62298,-0.0306 -3.24193,0.0635 -4.83789,0.27149 -6.38381,0.83194 -12.70598,3.54774 -16.92383,9.0332 l 0.20508,-0.25586 c -21.81563,25.89682 -84.21093,79.29883 -84.21093,79.29883 l -0.72657,0.61914 -0.54492,0.78125 c -30.04525,43.2289 -56.85937,62.11133 -56.85937,62.11133 -45.80791,32.2584 -89.89063,85.99023 -89.89063,85.99023 l -0.2832,0.34571 -0.24219,0.37695 c -33.10161,51.88587 -66.72499,80.06355 -91.84961,95.33594 -25.12462,15.27238 -41.00196,17.51562 -41.00196,17.51562 l 2.18555,14.53711 c 0,0 19.43411,-3.06631 46.45313,-19.49023 26.92784,-16.36851 62.13324,-46.15743 96.25977,-99.47852 0.51929,-0.62576 43.98773,-52.94549 86.84765,-83.12304 l 0.006,-0.006 0.008,-0.006 c 0,0 28.80009,-20.52232 59.82618,-64.88477 1.96759,-1.66924 61.47647,-52.21127 85.26757,-80.45312 l 0.10547,-0.125 0.0996,-0.12891 c 1.12146,-1.4585 3.78108,-2.97633 7.16992,-3.41797 3.38885,-0.44163 7.19862,0.23659 9.79883,1.73438 2.60022,1.49778 4.14073,3.30854 4.60938,6.87304 0.46256,3.51825 -0.52415,9.36389 -5.38867,17.63477 -1.23267,1.6791 -9.20428,11.20157 -19.51954,23.36328 -10.41718,12.28189 -23.5454,27.7756 -36.28125,43.25586 -12.73585,15.48026 -25.06528,30.92189 -34,43.2832 -4.46735,6.18066 -8.07785,11.55186 -10.57421,16.05078 -1.24819,2.24947 -2.2309,4.2454 -2.91602,6.38282 -0.68512,2.13741 -1.88934,4.84874 0.52734,8.91992 l 0.043,0.0723 7.39258,11.83594 6.35547,-4.49805 c 0,0 13.735,-9.72024 27.94336,-19.83789 7.10418,-5.05882 14.32483,-10.21675 20.01953,-14.3164 5.6947,-4.09966 9.18464,-6.55353 11.17578,-8.22266 -0.79294,0.66471 0.14989,-0.0894 1.08008,-0.67773 0.93019,-0.58836 2.25874,-1.40497 3.89648,-2.39844 3.27549,-1.98694 7.8052,-4.68732 13.15625,-7.8457 10.7021,-6.31678 24.70444,-14.47889 38.75782,-22.60157 14.05337,-8.12267 28.16229,-16.20898 39.07613,-22.36718 5.457,-3.0791 10.1183,-5.67681 13.545,-7.54297 1.7133,-0.93308 3.1219,-1.68453 4.1289,-2.20313 1.007,-0.51859 2.0603,-0.91641 1.2168,-0.625 12.0833,-4.17438 19.2872,-0.0451 22.5449,5.25196 3.2499,5.28455 3.2489,11.98926 -4.832,18.01367 -0.5012,0.32981 -80.88604,53.24366 -123.25591,85.30468 -27.3632,17.68278 -43.59928,20.60702 -55.33203,34.71485 l -6.49804,7.8125 9.45312,3.72461 c 0,0 1.95689,0.59214 3.39063,0.65625 1.43373,0.0641 3.17671,-0.0616 5.35546,-0.50782 4.10133,-0.83997 9.98452,-2.98414 18.23047,-7.29101 4.51384,-0.81009 7.87302,0.0514 10.87891,1.97656 3.14619,2.01498 5.844,5.40917 7.53906,9.38477 1.69507,3.9756 2.31994,8.45525 1.82617,12.07226 -0.49175,3.6023 -1.87961,6.1215 -4.03711,7.70899 -0.35857,0.22266 -1.94284,1.19902 -4.20312,2.71875 -2.50075,1.6814 -5.14128,3.38745 -7.49609,5.77148 l -6.85352,6.9375 8.55664,4.67774 c 0,0 4.49719,2.56205 6.73633,7.97461 2.21901,5.36389 3.08943,13.92275 -9.22266,29.42578 -12.46622,12.14469 -28.04206,18.80167 -41.38476,34.59179 l -0.0684,0.0801 -0.0645,0.082 c 0,0 -48.41799,60.15942 -114.24609,84.17188 -34.03553,12.41535 -51.88553,17.45867 -65.94141,22.57422 -14.05587,5.1155 -24.25274,10.4729 -40.78515,22.4335 l 8.61523,11.9102 c 15.9451,-11.5357 24.00844,-15.7293 37.19727,-20.5293 13.18882,-4.8 31.56707,-10.0356 65.95117,-22.57807 71.01124,-25.90314 120.70313,-88.82032 120.70312,-88.82032 l -0.13281,0.16406 c 10.90049,-12.89994 25.98543,-19.31352 40.74414,-33.83593 l 0.30664,-0.30078 0.26953,-0.33594 c 14.77713,-18.39896 15.97308,-34.18171 11.64063,-44.6543 -1.41335,-3.4164 -3.30538,-6.01341 -5.22852,-8.25 1.45296,-0.94713 3.08204,-1.99414 3.08204,-1.99414 l 0.24218,-0.14844 0.22852,-0.16797 c 5.92118,-4.32312 9.04721,-10.96869 9.95508,-17.61914 0.90787,-6.65045 -0.18239,-13.52925 -2.86719,-19.82617 -2.6848,-6.29692 -7.0303,-12.08844 -13.13477,-15.99804 -2.26239,-1.44895 -4.84203,-2.47727 -7.54101,-3.26563 6.42671,-3.50304 13.55918,-7.55858 22.2207,-13.16211 l 0.22852,-0.14844 0.21679,-0.16406 c 41.46322,-31.41149 123.09374,-85.18555 123.09374,-85.18555 l 0.1719,-0.11328 0.1641,-0.12109 c 13.2149,-9.80015 15.6303,-26.21349 8.6484,-37.56641 -6.982,-11.35291 -22.6752,-17.38456 -39.8672,-11.44531 -1.531,0.52889 -1.9665,0.84154 -3.1465,1.44922 -1.18,0.60768 -2.6562,1.3985 -4.4277,2.36328 -3.5431,1.92957 -8.2448,4.55069 -13.7383,7.65039 -10.98689,6.1994 -25.12571,14.30032 -39.21094,22.44141 -14.08522,8.14108 -28.11191,16.32026 -38.87304,22.67187 -5.38057,3.17581 -9.94253,5.89171 -13.3086,7.9336 -1.68303,1.02094 -3.06349,1.87103 -4.1289,2.54492 -1.06542,0.67389 -1.40442,0.77835 -2.66602,1.83594 0.11646,-0.0976 -4.66401,3.48463 -10.32031,7.55664 -5.6563,4.072 -12.86584,9.22247 -19.95899,14.27343 -6.92883,4.93397 -8.4681,6.01581 -13.63085,9.67774 1.72569,-2.63943 2.94192,-4.75407 5.30078,-8.01758 8.57472,-11.86327 20.7933,-27.18778 33.4375,-42.55664 12.6442,-15.36887 25.72735,-30.80866 36.14062,-43.08594 10.41327,-12.27727 17.67375,-20.68416 20.42774,-24.5039 l 0.1875,-0.25977 0.16406,-0.27734 c 6.1318,-10.28814 8.54405,-19.38047 7.49219,-27.38086 -1.05187,-8.0004 -5.9462,-14.29706 -11.84571,-17.69532 -4.42463,-2.54869 -9.33028,-3.75205 -14.19922,-3.84375 z"
       id="path6807-4"
       inkscape:connector-curvature="0" />
    <path
       style="color:#000000;font-style:normal;font-variant:normal;font-weight:normal;font-stretch:normal;font-size:medium;line-height:normal;font-family:sans-serif;font-variant-ligatures:normal;font-variant-position:normal;font-variant-caps:normal;font-variant-numeric:normal;font-variant-alternates:normal;font-feature-settings:normal;text-indent:0;text-align:start;text-decoration:none;text-decoration-line:none;text-decoration-style:solid;text-decoration-color:#000000;letter-spacing:normal;word-spacing:normal;text-transform:none;writing-mode:lr-tb;direction:ltr;text-orientation:mixed;dominant-baseline:auto;baseline-shift:baseline;text-anchor:start;white-space:normal;shape-padding:0;clip-rule:nonzero;display:inline;overflow:visible;visibility:visible;opacity:1;isolation:auto;mix-blend-mode:normal;color-interpolation:sRGB;color-interpolation-filters:linearRGB;solid-color:#000000;solid-opacity:1;vector-effect:none;fill:#000000;fill-opacity:1;fill-rule:nonzero;stroke:none;stroke-width:14.70025444;stroke-linecap:butt;stroke-linejoin:miter;stroke-miterlimit:4;stroke-dasharray:none;stroke-dashoffset:0;stroke-opacity:1;color-rendering:auto;image-rendering:auto;shape-rendering:auto;text-rendering:auto;enable-background:accumulate"
       d="m 899.97032,556.68843 c -13.75407,9.56762 -21.11976,12.06502 -26.44336,14.10156 -6.92137,2.64787 -10.52539,8.09375 -10.52539,8.09375 l 12.16406,8.25586 c 0,0 1.25886,-1.71777 3.61328,-2.61914 4.90804,-1.87757 14.71302,-5.41775 29.58594,-15.76367 z"
       id="path6809-0"
       inkscape:connector-curvature="0" />
    <path
       style="color:#000000;font-style:normal;font-variant:normal;font-weight:normal;font-stretch:normal;font-size:medium;line-height:normal;font-family:sans-serif;font-variant-ligatures:normal;font-variant-position:normal;font-variant-caps:normal;font-variant-numeric:normal;font-variant-alternates:normal;font-feature-settings:normal;text-indent:0;text-align:start;text-decoration:none;text-decoration-line:none;text-decoration-style:solid;text-decoration-color:#000000;letter-spacing:normal;word-spacing:normal;text-transform:none;writing-mode:lr-tb;direction:ltr;text-orientation:mixed;dominant-baseline:auto;baseline-shift:baseline;text-anchor:start;white-space:normal;shape-padding:0;clip-rule:nonzero;display:inline;overflow:visible;visibility:visible;opacity:1;isolation:auto;mix-blend-mode:normal;color-interpolation:sRGB;color-interpolation-filters:linearRGB;solid-color:#000000;solid-opacity:1;vector-effect:none;fill:#000000;fill-opacity:1;fill-rule:nonzero;stroke:none;stroke-width:7.35012722;stroke-linecap:butt;stroke-linejoin:miter;stroke-miterlimit:4;stroke-dasharray:none;stroke-dashoffset:0;stroke-opacity:1;color-rendering:auto;image-rendering:auto;shape-rendering:auto;text-rendering:auto;enable-background:accumulate"
       d="m 932.73203,299.96968 c -6.7225,0.26625 -11.98828,4.0957 -11.98828,4.0957 l -0.50586,0.34571 -0.36523,0.49023 c -4.1839,5.6145 -6.10134,11.01568 -5.88672,15.86524 0.21462,4.84955 2.84537,9.06159 6.79492,11.14453 7.89911,4.16587 19.33756,0.56326 28.50782,-11.26367 l 1.01367,-1.3086 -0.3086,-1.62695 c -1.24574,-6.58258 -3.56183,-11.14704 -6.76172,-14.04688 -3.19989,-2.89983 -7.13874,-3.82843 -10.5,-3.69531 z m 0.29102,7.34375 c 1.95556,-0.0774 3.62224,0.30228 5.27148,1.79688 1.4508,1.31475 2.92645,4.05745 3.99415,8.40234 -7.42178,8.70486 -14.79189,9.6296 -18.07813,7.89648 -1.73114,-0.91297 -2.76509,-2.35089 -2.88086,-4.96679 -0.11072,-2.50181 0.93833,-6.18339 4.05664,-10.56641 0.68662,-0.41451 4.09606,-2.42227 7.63672,-2.5625 z"
       id="path6842-12"
       inkscape:connector-curvature="0" />
    <path
       style="color:#000000;font-style:normal;font-variant:normal;font-weight:normal;font-stretch:normal;font-size:medium;line-height:normal;font-family:sans-serif;font-variant-ligatures:normal;font-variant-position:normal;font-variant-caps:normal;font-variant-numeric:normal;font-variant-alternates:normal;font-feature-settings:normal;text-indent:0;text-align:start;text-decoration:none;text-decoration-line:none;text-decoration-style:solid;text-decoration-color:#000000;letter-spacing:normal;word-spacing:normal;text-transform:none;writing-mode:lr-tb;direction:ltr;text-orientation:mixed;dominant-baseline:auto;baseline-shift:baseline;text-anchor:start;white-space:normal;shape-padding:0;clip-rule:nonzero;display:inline;overflow:visible;visibility:visible;opacity:1;isolation:auto;mix-blend-mode:normal;color-interpolation:sRGB;color-interpolation-filters:linearRGB;solid-color:#000000;solid-opacity:1;vector-effect:none;fill:#000000;fill-opacity:1;fill-rule:nonzero;stroke:none;stroke-width:7.35012722;stroke-linecap:butt;stroke-linejoin:miter;stroke-miterlimit:4;stroke-dasharray:none;stroke-dashoffset:0;stroke-opacity:1;color-rendering:auto;image-rendering:auto;shape-rendering:auto;text-rendering:auto;enable-background:accumulate"
       d="m 1031.0191,362.58687 -1.4042,0.79101 c -7.3072,4.11644 -12.0905,9.10184 -14.4805,14.34571 -2.3901,5.24386 -2.2454,10.85334 0.3711,15.1875 2.6164,4.33415 7.5116,7.15286 13.4238,7.71094 5.9122,0.55807 12.8908,-1.01065 20.5234,-5.20118 l 1.3614,-0.74609 0.414,-1.49609 c 0,0 1.5607,-5.55004 -0.076,-12.08204 -1.6368,-6.532 -6.885,-14.22235 -18.6015,-18.01367 z m 0.7422,8.14062 c 8.3652,3.16854 11.192,7.88699 12.2618,12.15625 0.7904,3.15438 0.5702,5.41697 0.3437,6.83008 -5.9467,2.97435 -11.0158,3.9441 -14.748,3.5918 -4.0615,-0.38338 -6.5426,-2.07673 -7.8204,-4.19336 -1.2777,-2.11663 -1.5447,-4.89681 0.025,-8.3418 1.4339,-3.1459 4.6289,-6.74418 9.9375,-10.04297 z"
       id="path6842-1-3"
       inkscape:connector-curvature="0" />
    <path
       style="color:#000000;font-style:normal;font-variant:normal;font-weight:normal;font-stretch:normal;font-size:medium;line-height:normal;font-family:sans-serif;font-variant-ligatures:normal;font-variant-position:normal;font-variant-caps:normal;font-variant-numeric:normal;font-variant-alternates:normal;font-feature-settings:normal;text-indent:0;text-align:start;text-decoration:none;text-decoration-line:none;text-decoration-style:solid;text-decoration-color:#000000;letter-spacing:normal;word-spacing:normal;text-transform:none;writing-mode:lr-tb;direction:ltr;text-orientation:mixed;dominant-baseline:auto;baseline-shift:baseline;text-anchor:start;white-space:normal;shape-padding:0;clip-rule:nonzero;display:inline;overflow:visible;visibility:visible;opacity:1;isolation:auto;mix-blend-mode:normal;color-interpolation:sRGB;color-interpolation-filters:linearRGB;solid-color:#000000;solid-opacity:1;vector-effect:none;fill:#000000;fill-opacity:1;fill-rule:nonzero;stroke:none;stroke-width:5.84267139;stroke-linecap:butt;stroke-linejoin:miter;stroke-miterlimit:4;stroke-dasharray:none;stroke-dashoffset:0;stroke-opacity:1;color-rendering:auto;image-rendering:auto;shape-rendering:auto;text-rendering:auto;enable-background:accumulate"
       d="m 753.87071,487.26851 -5.625,1.57617 c 0,0 6.72545,22.84403 31.50586,24.76367 l 0.45117,-5.82617 c -21.36758,-1.65526 -26.33203,-20.51367 -26.33203,-20.51367 z"
       id="path3720"
       inkscape:connector-curvature="0" />
    <path
       style="color:#000000;font-style:normal;font-variant:normal;font-weight:normal;font-stretch:normal;font-size:medium;line-height:normal;font-family:sans-serif;font-variant-ligatures:normal;font-variant-position:normal;font-variant-caps:normal;font-variant-numeric:normal;font-variant-alternates:normal;font-feature-settings:normal;text-indent:0;text-align:start;text-decoration:none;text-decoration-line:none;text-decoration-style:solid;text-decoration-color:#000000;letter-spacing:normal;word-spacing:normal;text-transform:none;writing-mode:lr-tb;direction:ltr;text-orientation:mixed;dominant-baseline:auto;baseline-shift:baseline;text-anchor:start;white-space:normal;shape-padding:0;clip-rule:nonzero;display:inline;overflow:visible;visibility:visible;opacity:1;isolation:auto;mix-blend-mode:normal;color-interpolation:sRGB;color-interpolation-filters:linearRGB;solid-color:#000000;solid-opacity:1;vector-effect:none;fill:#000000;fill-opacity:1;fill-rule:nonzero;stroke:none;stroke-width:5.84267139;stroke-linecap:butt;stroke-linejoin:miter;stroke-miterlimit:4;stroke-dasharray:none;stroke-dashoffset:0;stroke-opacity:1;color-rendering:auto;image-rendering:auto;shape-rendering:auto;text-rendering:auto;enable-background:accumulate"
       d="m 792.97422,521.79195 -5.83984,0.1875 c 0,0 0.17709,6.41059 2.90234,13.16015 2.72525,6.74957 8.49955,14.30682 18.97266,15.33594 l 0.57031,-5.81445 c -8.00087,-0.7862 -11.84871,-6.07136 -14.125,-11.70899 -2.27628,-5.63762 -2.48047,-11.16015 -2.48047,-11.16015 z"
       id="path3722"
       inkscape:connector-curvature="0" />
    <path
       style="color:#000000;font-style:normal;font-variant:normal;font-weight:normal;font-stretch:normal;font-size:medium;line-height:normal;font-family:sans-serif;font-variant-ligatures:normal;font-variant-position:normal;font-variant-caps:normal;font-variant-numeric:normal;font-variant-alternates:normal;font-feature-settings:normal;text-indent:0;text-align:start;text-decoration:none;text-decoration-line:none;text-decoration-style:solid;text-decoration-color:#000000;letter-spacing:normal;word-spacing:normal;text-transform:none;writing-mode:lr-tb;direction:ltr;text-orientation:mixed;dominant-baseline:auto;baseline-shift:baseline;text-anchor:start;white-space:normal;shape-padding:0;clip-rule:nonzero;display:inline;overflow:visible;visibility:visible;opacity:1;isolation:auto;mix-blend-mode:normal;color-interpolation:sRGB;color-interpolation-filters:linearRGB;solid-color:#000000;solid-opacity:1;vector-effect:none;fill:#000000;fill-opacity:1;fill-rule:nonzero;stroke:none;stroke-width:5.84267139;stroke-linecap:butt;stroke-linejoin:miter;stroke-miterlimit:4;stroke-dasharray:none;stroke-dashoffset:0;stroke-opacity:1;color-rendering:auto;image-rendering:auto;shape-rendering:auto;text-rendering:auto;enable-background:accumulate"
       d="m 810.74571,560.78413 c 0,0 -0.3033,6.84431 1.67187,14.55469 1.97517,7.71039 6.41903,16.81616 16.17188,20.35742 l 1.99414,-5.49218 c -7.25554,-2.63449 -10.77233,-9.54927 -12.50586,-16.31641 -1.73354,-6.76714 -1.49414,-12.85742 -1.49414,-12.85742 z"
       id="path3724"
       inkscape:connector-curvature="0" />
    <path
       style="color:#000000;font-style:normal;font-variant:normal;font-weight:normal;font-stretch:normal;font-size:medium;line-height:normal;font-family:sans-serif;font-variant-ligatures:normal;font-variant-position:normal;font-variant-caps:normal;font-variant-numeric:normal;font-variant-alternates:normal;font-feature-settings:normal;text-indent:0;text-align:start;text-decoration:none;text-decoration-line:none;text-decoration-style:solid;text-decoration-color:#000000;letter-spacing:normal;word-spacing:normal;text-transform:none;writing-mode:lr-tb;direction:ltr;text-orientation:mixed;dominant-baseline:auto;baseline-shift:baseline;text-anchor:start;white-space:normal;shape-padding:0;clip-rule:nonzero;display:inline;overflow:visible;visibility:visible;opacity:1;isolation:auto;mix-blend-mode:normal;color-interpolation:sRGB;color-interpolation-filters:linearRGB;solid-color:#000000;solid-opacity:1;vector-effect:none;fill:#000000;fill-opacity:1;fill-rule:nonzero;stroke:none;stroke-width:5.84267139;stroke-linecap:butt;stroke-linejoin:miter;stroke-miterlimit:4;stroke-dasharray:none;stroke-dashoffset:0;stroke-opacity:1;color-rendering:auto;image-rendering:auto;shape-rendering:auto;text-rendering:auto;enable-background:accumulate"
       d="m 824.37266,614.28804 c 0,0 -0.30495,6.81835 1.54687,14.36328 1.85183,7.54493 6.07877,16.43871 15.50391,19.29883 l 1.69727,-5.5918 c -6.64291,-2.01583 -9.90557,-8.49195 -11.52735,-15.09961 -1.62177,-6.60765 -1.38281,-12.72461 -1.38281,-12.72461 z"
       id="path3726"
       inkscape:connector-curvature="0" />
    <path
       style="color:#000000;font-style:normal;font-variant:normal;font-weight:normal;font-stretch:normal;font-size:medium;line-height:normal;font-family:sans-serif;font-variant-ligatures:normal;font-variant-position:normal;font-variant-caps:normal;font-variant-numeric:normal;font-variant-alternates:normal;font-feature-settings:normal;text-indent:0;text-align:start;text-decoration:none;text-decoration-line:none;text-decoration-style:solid;text-decoration-color:#000000;letter-spacing:normal;word-spacing:normal;text-transform:none;writing-mode:lr-tb;direction:ltr;text-orientation:mixed;dominant-baseline:auto;baseline-shift:baseline;text-anchor:start;white-space:normal;shape-padding:0;clip-rule:nonzero;display:inline;overflow:visible;visibility:visible;opacity:1;isolation:auto;mix-blend-mode:normal;color-interpolation:sRGB;color-interpolation-filters:linearRGB;solid-color:#000000;solid-opacity:1;vector-effect:none;fill:#000000;fill-opacity:1;fill-rule:nonzero;stroke:none;stroke-width:11.75954819;stroke-linecap:butt;stroke-linejoin:miter;stroke-miterlimit:4;stroke-dasharray:none;stroke-dashoffset:0;stroke-opacity:1;color-rendering:auto;image-rendering:auto;shape-rendering:auto;text-rendering:auto;enable-background:accumulate"
       d="m 636.81967,-80.11032 c -23.15939,-0.42502 -45.20963,16.45263 -73.12817,49.86061 l 9.02462,7.54159 c 27.18645,-32.5318 46.77365,-45.95857 63.8881,-45.64455 17.11435,0.3141 35.5235,14.54641 60.05068,43.31206 l 8.94936,-7.62961 c -25.12442,-29.46619 -45.6255,-47.01509 -68.78459,-47.4401 z"
       id="path59-17-20"
       inkscape:connector-curvature="0" />
    <path
       style="color:#000000;font-style:normal;font-variant:normal;font-weight:normal;font-stretch:normal;font-size:medium;line-height:normal;font-family:sans-serif;font-variant-ligatures:normal;font-variant-position:normal;font-variant-caps:normal;font-variant-numeric:normal;font-variant-alternates:normal;font-feature-settings:normal;text-indent:0;text-align:start;text-decoration:none;text-decoration-line:none;text-decoration-style:solid;text-decoration-color:#000000;letter-spacing:normal;word-spacing:normal;text-transform:none;writing-mode:lr-tb;direction:ltr;text-orientation:mixed;dominant-baseline:auto;baseline-shift:baseline;text-anchor:start;white-space:normal;shape-padding:0;clip-rule:nonzero;display:inline;overflow:visible;visibility:visible;opacity:1;isolation:auto;mix-blend-mode:normal;color-interpolation:sRGB;color-interpolation-filters:linearRGB;solid-color:#000000;solid-opacity:1;vector-effect:none;fill:#000000;fill-opacity:1;fill-rule:nonzero;stroke:none;stroke-width:11.75954819;stroke-linecap:butt;stroke-linejoin:miter;stroke-miterlimit:4;stroke-dasharray:none;stroke-dashoffset:0;stroke-opacity:1;color-rendering:auto;image-rendering:auto;shape-rendering:auto;text-rendering:auto;enable-background:accumulate"
       d="m 635.56265,2.17196 c -15.85309,-0.57017 -32.43206,5.8051 -51.90206,20.18621 l 6.98669,9.45932 c 18.25897,-13.4866 32.04776,-18.34272 44.49343,-17.89511 12.44559,0.44759 24.44444,6.32866 38.77634,16.60944 l 6.85382,-9.55442 C 665.64664,10.12819 651.41575,2.74206 635.56265,2.17196 Z"
       id="path59-1-8-1"
       inkscape:connector-curvature="0" />
    <path
       style="color:#000000;font-style:normal;font-variant:normal;font-weight:normal;font-stretch:normal;font-size:medium;line-height:normal;font-family:sans-serif;font-variant-ligatures:normal;font-variant-position:normal;font-variant-caps:normal;font-variant-numeric:normal;font-variant-alternates:normal;font-feature-settings:normal;text-indent:0;text-align:start;text-decoration:none;text-decoration-line:none;text-decoration-style:solid;text-decoration-color:#000000;letter-spacing:normal;word-spacing:normal;text-transform:none;writing-mode:lr-tb;direction:ltr;text-orientation:mixed;dominant-baseline:auto;baseline-shift:baseline;text-anchor:start;white-space:normal;shape-padding:0;clip-rule:nonzero;display:inline;overflow:visible;visibility:visible;opacity:1;isolation:auto;mix-blend-mode:normal;color-interpolation:sRGB;color-interpolation-filters:linearRGB;solid-color:#000000;solid-opacity:1;vector-effect:none;fill:#000000;fill-opacity:1;fill-rule:nonzero;stroke:none;stroke-width:11.75954819;stroke-linecap:butt;stroke-linejoin:miter;stroke-miterlimit:4;stroke-dasharray:none;stroke-dashoffset:0;stroke-opacity:1;color-rendering:auto;image-rendering:auto;shape-rendering:auto;text-rendering:auto;enable-background:accumulate"
       d="m 793.63403,-81.7533 c -23.15917,-0.42501 -45.2094,16.45264 -73.12816,49.8606 l 9.02485,7.53973 c 27.18644,-32.53166 46.77333,-45.95671 63.88784,-45.64261 17.11453,0.31403 35.52368,14.54634 60.05085,43.31198 l 8.94929,-7.6296 c -25.12458,-29.4662 -45.62543,-47.01502 -68.78467,-47.4401 z"
       id="path59-17-5-2"
       inkscape:connector-curvature="0" />
    <path
       style="color:#000000;font-style:normal;font-variant:normal;font-weight:normal;font-stretch:normal;font-size:medium;line-height:normal;font-family:sans-serif;font-variant-ligatures:normal;font-variant-position:normal;font-variant-caps:normal;font-variant-numeric:normal;font-variant-alternates:normal;font-feature-settings:normal;text-indent:0;text-align:start;text-decoration:none;text-decoration-line:none;text-decoration-style:solid;text-decoration-color:#000000;letter-spacing:normal;word-spacing:normal;text-transform:none;writing-mode:lr-tb;direction:ltr;text-orientation:mixed;dominant-baseline:auto;baseline-shift:baseline;text-anchor:start;white-space:normal;shape-padding:0;clip-rule:nonzero;display:inline;overflow:visible;visibility:visible;opacity:1;isolation:auto;mix-blend-mode:normal;color-interpolation:sRGB;color-interpolation-filters:linearRGB;solid-color:#000000;solid-opacity:1;vector-effect:none;fill:#000000;fill-opacity:1;fill-rule:nonzero;stroke:none;stroke-width:11.75954819;stroke-linecap:butt;stroke-linejoin:miter;stroke-miterlimit:4;stroke-dasharray:none;stroke-dashoffset:0;stroke-opacity:1;color-rendering:auto;image-rendering:auto;shape-rendering:auto;text-rendering:auto;enable-background:accumulate"
       d="m 792.37726,0.5271 c -15.8531,-0.5701 -32.43239,5.80706 -51.90239,20.18809 l 6.98671,9.45931 C 765.7206,16.6879 779.508,11.83186 791.95334,12.27939 c 12.44551,0.44768 24.44609,6.32867 38.77799,16.60945 l 6.85406,-9.55442 C 822.46092,8.4853 808.23026,1.09719 792.37726,0.5271 Z"
       id="path59-1-8-3-29"
       inkscape:connector-curvature="0" />
    <path
       style="color:#000000;font-style:normal;font-variant:normal;font-weight:normal;font-stretch:normal;font-size:medium;line-height:normal;font-family:sans-serif;font-variant-ligatures:normal;font-variant-position:normal;font-variant-caps:normal;font-variant-numeric:normal;font-variant-alternates:normal;font-feature-settings:normal;text-indent:0;text-align:start;text-decoration:none;text-decoration-line:none;text-decoration-style:solid;text-decoration-color:#000000;letter-spacing:normal;word-spacing:normal;text-transform:none;writing-mode:lr-tb;direction:ltr;text-orientation:mixed;dominant-baseline:auto;baseline-shift:baseline;text-anchor:start;white-space:normal;shape-padding:0;clip-rule:nonzero;display:inline;overflow:visible;visibility:visible;opacity:1;isolation:auto;mix-blend-mode:normal;color-interpolation:sRGB;color-interpolation-filters:linearRGB;solid-color:#000000;solid-opacity:1;vector-effect:none;fill:#000000;fill-opacity:1;fill-rule:nonzero;stroke:none;stroke-width:11.75954819;stroke-linecap:butt;stroke-linejoin:miter;stroke-miterlimit:4;stroke-dasharray:none;stroke-dashoffset:0;stroke-opacity:1;color-rendering:auto;image-rendering:auto;shape-rendering:auto;text-rendering:auto;enable-background:accumulate"
       d="m 797.3583,188.61594 c -44.76651,44.07022 -83.30329,45.81925 -112.71422,36.52995 -14.70558,-4.64468 -27.10803,-12.28349 -36.3271,-19.30105 -9.21914,-7.01749 -14.99244,-13.14196 -17.40845,-15.53562 l -8.27599,8.35495 c 1.8619,1.84474 8.57883,8.93921 18.56109,16.53764 9.98234,7.59845 23.49364,15.973 39.90959,21.1577 32.83119,10.36956 77.37145,7.03811 124.50572,-39.36344 z"
       id="path29-2-7"
       inkscape:connector-curvature="0" />
    <path
       style="font-style:normal;font-weight:normal;font-size:233.33332825px;line-height:1.25;font-family:sans-serif;letter-spacing:0px;word-spacing:0px;fill:#000000;fill-opacity:1;stroke:none"
       d="M 909.63477 1069.1895 L 909.63477 1124.332 C 903.93815 1121.3698 898.50868 1119.2051 893.34375 1117.8379 C 888.17882 1116.3947 882.25434 1115.6738 875.57031 1115.6738 C 868.20269 1115.6738 861.06228 1117.1923 854.15039 1120.2305 C 847.31445 1123.2687 841.31337 1127.6747 836.14844 1133.4473 C 830.90755 1139.3717 826.73134 1146.5495 823.61719 1154.9805 C 820.57899 1163.4115 819.05859 1173.0191 819.05859 1183.8047 C 819.05859 1204.5404 823.50195 1220.758 832.38867 1232.4551 C 841.35135 1244.1521 853.42817 1250 868.61914 1250 C 876.44249 1250 883.69683 1248.5189 890.38086 1245.5566 C 897.06489 1242.5944 903.48242 1238.4555 909.63477 1233.1387 L 909.63477 1246.4688 L 931.05469 1246.4688 L 931.05469 1069.1895 L 909.63477 1069.1895 z M 83.169922 1073.7461 C 70.713325 1073.7461 59.359375 1075.6829 49.105469 1079.5566 C 38.927518 1083.4303 30.229384 1089.0523 23.013672 1096.4199 C 15.570096 1104.0154 9.8734808 1113.3186 5.9238281 1124.332 C 1.9741754 1135.3455 0 1147.8407 0 1161.8164 C 0 1176.5516 2.0507813 1189.5026 6.1523438 1200.668 C 10.253906 1211.7574 15.950521 1220.9093 23.242188 1228.125 C 30.685764 1235.4926 39.421224 1240.924 49.447266 1244.418 C 59.549262 1247.8359 70.751953 1249.5449 83.056641 1249.5449 C 89.588759 1249.5449 95.550564 1249.0126 100.94336 1247.9492 C 106.41211 1246.9618 111.46441 1245.7459 116.09766 1244.3027 C 121.56641 1242.5558 125.97049 1240.8861 129.3125 1239.291 C 132.73047 1237.696 136.52951 1235.987 140.70703 1234.1641 L 140.70703 1207.7305 L 139.11133 1207.7305 C 130.83225 1215.174 121.94553 1220.7567 112.45117 1224.4785 C 102.95681 1228.2003 92.779514 1230.0625 81.917969 1230.0625 C 74.018663 1230.0625 66.499132 1228.7326 59.359375 1226.0742 C 52.295573 1223.3398 46.10395 1219.1617 40.787109 1213.541 C 35.698134 1208.1482 31.521918 1201.161 28.255859 1192.5781 C 25.065755 1183.9952 23.470703 1173.7413 23.470703 1161.8164 C 23.470703 1150.4232 24.912543 1140.3971 27.798828 1131.7383 C 30.761068 1123.0035 34.86263 1115.7884 40.103516 1110.0918 C 45.496311 1104.2433 51.611328 1099.9512 58.447266 1097.2168 C 65.359158 1094.4065 73.106554 1093.002 81.689453 1093.002 C 92.171224 1093.002 102.00673 1094.7856 111.19727 1098.3555 C 120.3878 1101.9253 129.6556 1107.622 138.99805 1115.4453 L 140.70703 1115.4453 L 140.70703 1088.6719 C 129.61762 1083.1272 119.51497 1079.2535 110.40039 1077.0508 C 101.36176 1074.8481 92.284505 1073.7461 83.169922 1073.7461 z M 1261.6855 1082.6328 L 1261.6855 1119.2051 L 1247.2168 1119.2051 L 1247.2168 1137.207 L 1261.6855 1137.207 L 1261.6855 1204.8828 C 1261.6855 1220.3016 1265.0662 1231.5043 1271.8262 1238.4922 C 1278.5862 1245.48 1288.4609 1248.9746 1301.4492 1248.9746 C 1305.171 1248.9746 1309.3865 1248.6328 1314.0957 1247.9492 C 1318.8809 1247.2656 1323.2849 1246.3915 1327.3105 1245.3281 L 1327.3105 1226.0742 L 1326.1719 1226.0742 C 1324.5009 1226.7578 1321.7665 1227.6319 1317.9688 1228.6953 C 1314.171 1229.6827 1310.5252 1230.1758 1307.0312 1230.1758 C 1301.0308 1230.1758 1296.5501 1229.4922 1293.5879 1228.125 C 1290.7016 1226.6819 1288.423 1224.4405 1286.752 1221.4023 C 1284.929 1218.1363 1283.8644 1214.6437 1283.5605 1210.9219 C 1283.2567 1207.1241 1283.1055 1201.8832 1283.1055 1195.1992 L 1283.1055 1137.207 L 1327.3105 1137.207 L 1327.3105 1119.2051 L 1283.1055 1119.2051 L 1283.1055 1082.6328 L 1261.6855 1082.6328 z M 220.91406 1115.6738 C 202.91276 1115.6738 188.59657 1121.7122 177.96289 1133.7891 C 167.40517 1145.7899 162.125 1162.1589 162.125 1182.8945 C 162.125 1203.6302 167.40517 1219.9972 177.96289 1231.998 C 188.59657 1243.9989 202.91276 1250 220.91406 1250 C 238.76345 1250 253.00499 1243.9989 263.63867 1231.998 C 274.27235 1219.9972 279.58984 1203.6302 279.58984 1182.8945 C 279.58984 1162.1589 274.27235 1145.7899 263.63867 1133.7891 C 253.00499 1121.7122 238.76345 1115.6738 220.91406 1115.6738 z M 375.52148 1115.6738 C 368.00195 1115.6738 360.89887 1117.2316 354.21484 1120.3457 C 347.60677 1123.4599 340.96137 1127.7893 334.27734 1133.334 L 334.27734 1119.2051 L 312.85742 1119.2051 L 312.85742 1246.4688 L 334.27734 1246.4688 L 334.27734 1151.4492 C 340.12587 1146.9679 345.97374 1143.2828 351.82227 1140.3965 C 357.74674 1137.5102 363.6339 1136.0684 369.48242 1136.0684 C 375.63477 1136.0684 380.34332 1136.9032 383.60938 1138.5742 C 386.87543 1140.1693 389.38194 1142.5992 391.12891 1145.8652 C 392.72396 1148.9034 393.74935 1152.9677 394.20508 1158.0566 C 394.73676 1163.0697 395.00391 1168.3872 395.00391 1174.0078 L 395.00391 1246.4688 L 416.42188 1246.4688 L 416.42188 1165.0059 C 416.42187 1162.7272 416.34722 1160.4486 416.19531 1158.1699 C 416.0434 1155.8153 415.85286 1153.7645 415.625 1152.0176 C 421.62543 1147.3843 427.62652 1143.5872 433.62695 1140.625 C 439.62739 1137.5868 445.62652 1136.0684 451.62695 1136.0684 C 457.7793 1136.0684 462.4898 1136.9032 465.75586 1138.5742 C 469.02192 1140.2452 471.52843 1142.7144 473.27539 1145.9805 C 474.87044 1149.0187 475.89583 1153.0809 476.35156 1158.1699 C 476.88325 1163.2589 477.14844 1168.5391 477.14844 1174.0078 L 477.14844 1246.4688 L 498.56836 1246.4688 L 498.56836 1163.8672 C 498.56836 1148.6762 495.22504 1136.8646 488.54102 1128.4336 C 481.93294 1119.9266 471.64171 1115.6738 457.66602 1115.6738 C 449.53885 1115.6738 441.90538 1117.3062 434.76562 1120.5723 C 427.62587 1123.7624 419.72721 1129.0033 411.06836 1136.2949 C 408.10612 1129.8388 403.58615 1124.7884 397.50977 1121.1426 C 391.50933 1117.4967 384.18034 1115.6738 375.52148 1115.6738 z M 744.32031 1115.6738 C 736.80078 1115.6738 729.46983 1117.2316 722.33008 1120.3457 C 715.19032 1123.4599 708.27973 1127.7893 701.5957 1133.334 L 701.5957 1119.2051 L 680.17578 1119.2051 L 680.17578 1246.4688 L 701.5957 1246.4688 L 701.5957 1151.4492 C 707.44423 1146.9679 713.55729 1143.2828 719.9375 1140.3965 C 726.31771 1137.5102 732.43273 1136.0684 738.28125 1136.0684 C 743.97786 1136.0684 748.61176 1136.8659 752.18164 1138.4609 C 755.75152 1139.98 758.48589 1142.3333 760.38477 1145.5234 C 762.20768 1148.4097 763.46094 1152.4366 764.14453 1157.6016 C 764.82812 1162.6905 765.16992 1168.1593 765.16992 1174.0078 L 765.16992 1246.4688 L 786.58789 1246.4688 L 786.58789 1163.8672 C 786.58789 1148.2964 782.98134 1136.3709 775.76562 1128.0918 C 768.54991 1119.8127 758.06814 1115.6738 744.32031 1115.6738 z M 1177.7188 1115.6738 C 1170.1992 1115.6738 1162.8683 1117.2316 1155.7285 1120.3457 C 1148.5888 1123.4599 1141.6782 1127.7893 1134.9941 1133.334 L 1134.9941 1119.2051 L 1113.5742 1119.2051 L 1113.5742 1246.4688 L 1134.9941 1246.4688 L 1134.9941 1151.4492 C 1140.8427 1146.9679 1146.9557 1143.2828 1153.3359 1140.3965 C 1159.7161 1137.5102 1165.8312 1136.0684 1171.6797 1136.0684 C 1177.3763 1136.0684 1182.0102 1136.8659 1185.5801 1138.4609 C 1189.15 1139.98 1191.8843 1142.3333 1193.7832 1145.5234 C 1195.6061 1148.4097 1196.8594 1152.4366 1197.543 1157.6016 C 1198.2266 1162.6905 1198.5684 1168.1593 1198.5684 1174.0078 L 1198.5684 1246.4688 L 1219.9863 1246.4688 L 1219.9863 1163.8672 C 1219.9863 1148.2964 1216.3798 1136.3709 1209.1641 1128.0918 C 1201.9484 1119.8127 1191.4666 1115.6738 1177.7188 1115.6738 z M 1406.1523 1115.6738 C 1387.6194 1115.6738 1372.6569 1121.7888 1361.2637 1134.0176 C 1349.9464 1146.2463 1344.2871 1162.7665 1344.2871 1183.5781 C 1344.2871 1204.6176 1350.2116 1220.8707 1362.0605 1232.3398 C 1373.9095 1243.7331 1390.3924 1249.4297 1411.5078 1249.4297 C 1419.7869 1249.4297 1427.6855 1248.4043 1435.2051 1246.3535 C 1442.7246 1244.3027 1450.0929 1241.7589 1457.3086 1238.7207 L 1457.3086 1215.3652 L 1456.168 1215.3652 C 1452.4462 1218.7072 1446.1799 1222.1252 1437.3691 1225.6191 C 1428.6343 1229.0371 1419.9382 1230.7461 1411.2793 1230.7461 C 1404.7472 1230.7461 1398.7461 1229.8346 1393.2773 1228.0117 C 1387.8845 1226.1888 1383.2133 1223.4544 1379.2637 1219.8086 C 1375.1621 1216.0868 1371.9347 1211.339 1369.5801 1205.5664 C 1367.2255 1199.7179 1366.0488 1192.8819 1366.0488 1185.0586 L 1459.8145 1185.0586 L 1459.8145 1173.4375 C 1459.8145 1154.9805 1455.1432 1140.7389 1445.8008 1130.7129 C 1436.5343 1120.6868 1423.3181 1115.6738 1406.1523 1115.6738 z M 583.33398 1116.1289 C 575.66254 1116.1289 567.87587 1116.8125 559.97656 1118.1797 C 552.07726 1119.5469 546.03885 1120.8001 541.86133 1121.9395 L 541.86133 1143.7012 L 543.00195 1143.7012 C 550.36957 1140.8908 557.50803 1138.7635 564.41992 1137.3203 C 571.33181 1135.8012 577.59809 1135.043 583.21875 1135.043 C 587.852 1135.043 592.29536 1135.3455 596.54883 1135.9531 C 600.8023 1136.5608 604.44813 1137.7394 607.48633 1139.4863 C 610.67643 1141.3092 613.10829 1143.8158 614.7793 1147.0059 C 616.52626 1150.196 617.39844 1154.2209 617.39844 1159.082 L 617.39844 1162.3867 C 604.94184 1162.9944 593.28342 1163.9058 582.42188 1165.1211 C 571.56033 1166.3364 562.25521 1168.6523 554.50781 1172.0703 C 546.83637 1175.4883 540.91189 1180.1968 536.73438 1186.1973 C 532.63281 1192.1217 530.58203 1199.9084 530.58203 1209.5547 C 530.58203 1221.3277 534.56966 1231.0119 542.54492 1238.6074 C 550.52018 1246.2029 560.24371 1250 571.71289 1250 C 577.94119 1250 583.37066 1249.393 588.00391 1248.1777 C 592.63715 1247.0384 596.73872 1245.5946 600.30859 1243.8477 C 603.34679 1242.4805 606.46224 1240.6576 609.65234 1238.3789 C 612.9184 1236.0243 615.49957 1234.2014 617.39844 1232.9102 L 617.39844 1246.4688 L 638.70508 1246.4688 L 638.70508 1160.1074 C 638.70508 1151.9043 637.45182 1145.031 634.94531 1139.4863 C 632.4388 1133.9416 628.79297 1129.4217 624.00781 1125.9277 C 619.1467 1122.3579 613.37348 1119.8513 606.68945 1118.4082 C 600.08138 1116.8891 592.29666 1116.1289 583.33398 1116.1289 z M 1016.7324 1116.1289 C 1009.061 1116.1289 1001.2743 1116.8125 993.375 1118.1797 C 985.47569 1119.5469 979.43728 1120.8001 975.25977 1121.9395 L 975.25977 1143.7012 L 976.40039 1143.7012 C 983.76801 1140.8908 990.90647 1138.7635 997.81836 1137.3203 C 1004.7303 1135.8012 1010.9965 1135.043 1016.6172 1135.043 C 1021.2504 1135.043 1025.6938 1135.3455 1029.9473 1135.9531 C 1034.2007 1136.5608 1037.8466 1137.7394 1040.8848 1139.4863 C 1044.0749 1141.3092 1046.5067 1143.8158 1048.1777 1147.0059 C 1049.9247 1150.196 1050.7969 1154.2209 1050.7969 1159.082 L 1050.7969 1162.3867 C 1038.3403 1162.9944 1026.6819 1163.9058 1015.8203 1165.1211 C 1004.9588 1166.3364 995.65365 1168.6523 987.90625 1172.0703 C 980.23481 1175.4883 974.31033 1180.1968 970.13281 1186.1973 C 966.03125 1192.1217 963.98047 1199.9084 963.98047 1209.5547 C 963.98047 1221.3277 967.9681 1231.0119 975.94336 1238.6074 C 983.91862 1246.2029 993.64214 1250 1005.1113 1250 C 1011.3396 1250 1016.7691 1249.393 1021.4023 1248.1777 C 1026.0356 1247.0384 1030.1372 1245.5946 1033.707 1243.8477 C 1036.7452 1242.4805 1039.8607 1240.6576 1043.0508 1238.3789 C 1046.3168 1236.0243 1048.898 1234.2014 1050.7969 1232.9102 L 1050.7969 1246.4688 L 1072.1035 1246.4688 L 1072.1035 1160.1074 C 1072.1035 1151.9043 1070.8503 1145.031 1068.3438 1139.4863 C 1065.8372 1133.9416 1062.1914 1129.4217 1057.4062 1125.9277 C 1052.5451 1122.3579 1046.7719 1119.8513 1040.0879 1118.4082 C 1033.4798 1116.8891 1025.6951 1116.1289 1016.7324 1116.1289 z M 1405.0137 1133.334 C 1416.4069 1133.334 1424.8752 1136.4102 1430.4199 1142.5625 C 1436.0406 1148.7148 1438.8889 1157.411 1438.9648 1168.6523 L 1366.0488 1168.6523 C 1366.9603 1158.6263 1370.7947 1150.2326 1377.5547 1143.4727 C 1384.3906 1136.7127 1393.5445 1133.334 1405.0137 1133.334 z M 220.91406 1134.1309 C 232.38325 1134.1309 241.34657 1138.1558 247.80273 1146.207 C 254.2589 1154.1823 257.48633 1166.4123 257.48633 1182.8945 C 257.48633 1198.997 254.22157 1211.1484 247.68945 1219.3516 C 241.23329 1227.4787 232.30729 1231.543 220.91406 1231.543 C 209.36892 1231.543 200.36827 1227.4414 193.91211 1219.2383 C 187.45595 1210.9592 184.22852 1198.8451 184.22852 1182.8945 C 184.22852 1166.4123 187.41862 1154.1823 193.79883 1146.207 C 200.25499 1138.1558 209.29297 1134.1309 220.91406 1134.1309 z M 879.21484 1135.2695 C 884.60764 1135.2695 889.58333 1135.7645 894.14062 1136.752 C 898.69792 1137.7394 903.8622 1139.523 909.63477 1142.1055 L 909.63477 1215.1367 C 904.24197 1219.3902 898.43142 1222.8848 892.20312 1225.6191 C 885.97483 1228.2776 879.82248 1229.6055 873.74609 1229.6055 C 862.35286 1229.6055 854.07509 1225.6944 848.91016 1217.8711 C 843.74523 1209.9718 841.16211 1198.4646 841.16211 1183.3496 C 841.16211 1168.0067 844.50347 1156.1578 851.1875 1147.8027 C 857.87153 1139.4477 867.21398 1135.2695 879.21484 1135.2695 z M 617.39844 1179.7031 L 617.39844 1215.1367 C 612.0816 1219.2383 606.31033 1222.7702 600.08203 1225.7324 C 593.85373 1228.6187 586.97852 1230.0625 579.45898 1230.0625 C 570.42036 1230.0625 563.69835 1228.2396 559.29297 1224.5938 C 554.88759 1220.872 552.68555 1215.3639 552.68555 1208.0723 C 552.68555 1201.6161 554.58507 1196.5658 558.38281 1192.9199 C 562.18056 1189.1981 567.1543 1186.4638 573.30664 1184.7168 C 578.47157 1183.2737 585.46072 1182.1717 594.27148 1181.4121 C 603.1582 1180.6526 610.86632 1180.0829 617.39844 1179.7031 z M 1050.7969 1179.7031 L 1050.7969 1215.1367 C 1045.48 1219.2383 1039.7088 1222.7702 1033.4805 1225.7324 C 1027.2522 1228.6187 1020.377 1230.0625 1012.8574 1230.0625 C 1003.8188 1230.0625 997.09679 1228.2396 992.69141 1224.5938 C 988.28602 1220.872 986.08398 1215.3639 986.08398 1208.0723 C 986.08398 1201.6161 987.98351 1196.5658 991.78125 1192.9199 C 995.57899 1189.1981 1000.5527 1186.4638 1006.7051 1184.7168 C 1011.87 1183.2737 1018.8592 1182.1717 1027.6699 1181.4121 C 1036.5566 1180.6526 1044.2648 1180.0829 1050.7969 1179.7031 z "
       transform="translate(0,-217.58335)"
       id="text6166" />
  </g>
</svg>
