<?xml version="1.0" encoding="UTF-8" standalone="no"?>
<!-- Created with Inkscape (http://www.inkscape.org/) -->

<svg
   xmlns:dc="http://purl.org/dc/elements/1.1/"
   xmlns:cc="http://creativecommons.org/ns#"
   xmlns:rdf="http://www.w3.org/1999/02/22-rdf-syntax-ns#"
   xmlns:svg="http://www.w3.org/2000/svg"
   xmlns="http://www.w3.org/2000/svg"
   xmlns:sodipodi="http://sodipodi.sourceforge.net/DTD/sodipodi-0.dtd"
   xmlns:inkscape="http://www.inkscape.org/namespaces/inkscape"
   width="1000"
   height="1250"
   viewBox="0 0 1000 1250"
   version="1.1"
   id="svg26569"
   inkscape:version="0.92.4 (5da689c313, 2019-01-14)"
   sodipodi:docname="Desculpa.svg">
  <defs
     id="defs26563" />
  <sodipodi:namedview
     id="base"
     pagecolor="#ffffff"
     bordercolor="#666666"
     borderopacity="1.0"
     inkscape:pageopacity="0.0"
     inkscape:pageshadow="2"
     inkscape:zoom="0.35355339"
     inkscape:cx="820.71199"
     inkscape:cy="707.67984"
     inkscape:document-units="px"
     inkscape:current-layer="layer1"
     showgrid="false"
     units="px"
     inkscape:window-width="1366"
     inkscape:window-height="715"
     inkscape:window-x="-8"
     inkscape:window-y="-8"
     inkscape:window-maximized="1" />
  <metadata
     id="metadata26566">
    <rdf:RDF>
      <cc:Work
         rdf:about="">
        <dc:format>image/svg+xml</dc:format>
        <dc:type
           rdf:resource="http://purl.org/dc/dcmitype/StillImage" />
        <dc:title />
      </cc:Work>
    </rdf:RDF>
  </metadata>
  <g
     inkscape:label="Camada 1"
     inkscape:groupmode="layer"
     id="layer1"
     transform="translate(0,217.58335)">
    <path
       style="color:#000000;font-style:normal;font-variant:normal;font-weight:normal;font-stretch:normal;font-size:medium;line-height:normal;font-family:sans-serif;font-variant-ligatures:normal;font-variant-position:normal;font-variant-caps:normal;font-variant-numeric:normal;font-variant-alternates:normal;font-feature-settings:normal;text-indent:0;text-align:start;text-decoration:none;text-decoration-line:none;text-decoration-style:solid;text-decoration-color:#000000;letter-spacing:normal;word-spacing:normal;text-transform:none;writing-mode:lr-tb;direction:ltr;text-orientation:mixed;dominant-baseline:auto;baseline-shift:baseline;text-anchor:start;white-space:normal;shape-padding:0;clip-rule:nonzero;display:inline;overflow:visible;visibility:visible;opacity:1;isolation:auto;mix-blend-mode:normal;color-interpolation:sRGB;color-interpolation-filters:linearRGB;solid-color:#000000;solid-opacity:1;vector-effect:none;fill:#000000;fill-opacity:1;fill-rule:nonzero;stroke:none;stroke-width:28.89344215;stroke-linecap:butt;stroke-linejoin:miter;stroke-miterlimit:4;stroke-dasharray:none;stroke-dashoffset:0;stroke-opacity:1;color-rendering:auto;image-rendering:auto;shape-rendering:auto;text-rendering:auto;enable-background:accumulate"
       d="m 521.52675,-217.33062 c -111.32714,-0.0241 -187.80594,44.67768 -231.79745,111.54902 -43.9994,66.88336 -56.27472,154.22167 -46.65827,240.67023 9.61644,86.44854 41.16319,172.38857 87.74529,237.65757 30.40778,42.6062 67.69088,76.77785 109.75815,95.25317 2.35375,-5.77734 3.1232,-9.45707 5.76318,-13.87247 l 127.06859,1.6161 c 1.45434,1.98556 2.86611,4.22982 5.26278,8.98693 5.05268,-0.22121 6.42644,-0.77246 8.83479,0.005 39.68724,-19.32379 74.82779,-52.61358 103.76068,-93.53169 46.30689,-65.4893 77.79839,-151.39903 88.257,-237.63284 10.45863,-86.23386 -0.0153,-173.11088 -40.64958,-239.7293 -40.624,-66.60613 -112.61008,-111.33985 -217.28735,-110.97168 z m 0.0494,28.89627 h 0.0253 0.0337 c 96.69207,-0.35594 156.66274,38.25335 192.56751,97.12152 35.9048,58.86819 46.53267,139.61807 36.63831,221.1997 -9.89442,81.58163 -40.21278,163.67926 -83.17274,224.43513 -30.21478,42.7311 -66.1511,74.47288 -105.30821,89.66801 6.02567,4.38888 9.54966,9.27178 11.04601,11.55299 l -127.06859,-1.6161 c 1.07104,-2.78931 3.98414,-7.49333 7.66041,-11.82994 -36.9006,-15.65992 -70.88671,-46.01855 -99.65712,-86.33044 -43.16403,-60.47794 -73.47916,-142.4833 -82.55501,-224.0721 -9.07586,-81.5888 3.12433,-162.38334 42.07746,-221.59586 38.95312,-59.21252 103.88314,-98.57034 207.7131,-98.53291 z"
       id="path10-9-9-0-1"
       inkscape:connector-curvature="0"
       sodipodi:nodetypes="cssscccccssccccccssscccccsscc" />
    <path
       style="color:#000000;font-style:normal;font-variant:normal;font-weight:normal;font-stretch:normal;font-size:medium;line-height:normal;font-family:sans-serif;font-variant-ligatures:normal;font-variant-position:normal;font-variant-caps:normal;font-variant-numeric:normal;font-variant-alternates:normal;font-feature-settings:normal;text-indent:0;text-align:start;text-decoration:none;text-decoration-line:none;text-decoration-style:solid;text-decoration-color:#000000;letter-spacing:normal;word-spacing:normal;text-transform:none;writing-mode:lr-tb;direction:ltr;text-orientation:mixed;dominant-baseline:auto;baseline-shift:baseline;text-anchor:start;white-space:normal;shape-padding:0;clip-rule:nonzero;display:inline;overflow:visible;visibility:visible;opacity:1;isolation:auto;mix-blend-mode:normal;color-interpolation:sRGB;color-interpolation-filters:linearRGB;solid-color:#000000;solid-opacity:1;vector-effect:none;fill:#000000;fill-opacity:1;fill-rule:nonzero;stroke:none;stroke-width:14.44672108;stroke-linecap:butt;stroke-linejoin:miter;stroke-miterlimit:4;stroke-dasharray:none;stroke-dashoffset:0;stroke-opacity:1;color-rendering:auto;image-rendering:auto;shape-rendering:auto;text-rendering:auto;enable-background:accumulate"
       d="m 506.10069,130.65309 c 0,0 -1.62892,16.08011 -4.32422,32.9707 -1.34765,8.4453 -2.97038,17.09308 -4.71484,23.8125 -0.87224,3.35971 -1.78723,6.24493 -2.60547,8.23438 -0.81825,1.98944 -1.87425,3.02899 -1.11524,2.39648 -1.59863,1.33218 -3.29018,2.44401 -4.17578,5.98633 -0.4428,1.77116 -0.19117,4.41141 0.93945,6.2539 1.13063,1.8425 2.60133,2.74255 3.7129,3.26563 4.44626,2.09234 6.72882,1.28858 9.75195,1.08008 6.04626,-0.417 12.59375,-1.76367 12.59375,-1.76367 l -2.83203,-14.16602 c 0,0 -3.08845,0.39243 -4.95703,0.69922 0.95807,-2.56868 1.86335,-5.24869 2.66992,-8.35547 1.94948,-7.50912 3.60944,-16.46408 4.99804,-25.16602 2.77721,-17.40387 4.43165,-33.79492 4.43165,-33.79492 z"
       id="path971-3-7-7"
       inkscape:connector-curvature="0" />
    <path
       style="color:#000000;font-style:normal;font-variant:normal;font-weight:normal;font-stretch:normal;font-size:medium;line-height:normal;font-family:sans-serif;font-variant-ligatures:normal;font-variant-position:normal;font-variant-caps:normal;font-variant-numeric:normal;font-variant-alternates:normal;font-feature-settings:normal;text-indent:0;text-align:start;text-decoration:none;text-decoration-line:none;text-decoration-style:solid;text-decoration-color:#000000;letter-spacing:normal;word-spacing:normal;text-transform:none;writing-mode:lr-tb;direction:ltr;text-orientation:mixed;dominant-baseline:auto;baseline-shift:baseline;text-anchor:start;white-space:normal;shape-padding:0;clip-rule:nonzero;display:inline;overflow:visible;visibility:visible;opacity:1;isolation:auto;mix-blend-mode:normal;color-interpolation:sRGB;color-interpolation-filters:linearRGB;solid-color:#000000;solid-opacity:1;vector-effect:none;fill:#000000;fill-opacity:1;fill-rule:nonzero;stroke:none;stroke-width:11.1810379;stroke-linecap:butt;stroke-linejoin:miter;stroke-miterlimit:4;stroke-dasharray:none;stroke-dashoffset:0;stroke-opacity:1;color-rendering:auto;image-rendering:auto;shape-rendering:auto;text-rendering:auto;enable-background:accumulate"
       d="m 303.21592,387.1902 c -2.17991,-0.069 -4.22253,0.0178 -6.13867,0.25195 -7.66455,0.93652 -13.76482,4.89415 -16.07617,10.75586 -2.31135,5.86171 -0.94136,12.26672 2.19336,18.03711 2.96234,5.45307 7.70105,10.5804 13.77344,14.87891 1.15425,1.63822 20.7295,29.77746 27.04687,66.4121 2.2e-4,10e-4 -2.2e-4,0.003 0,0.004 0.01,0.0609 3.55435,22.17968 8.38086,48.25977 4.83316,26.11599 10.84258,55.93286 16.16211,72.24609 l -0.0273,-0.0918 c 0,0 6.93797,22.59307 11.94336,48.6211 2.50269,13.01401 4.50596,26.8692 4.93359,38.96484 0.42762,12.09564 -0.98074,22.4362 -3.92383,27.81055 l 9.80664,5.36914 c 4.83549,-8.83005 5.75117,-20.55853 5.29102,-33.57422 -0.46015,-13.01569 -2.55666,-27.31608 -5.12696,-40.68164 -5.14059,-26.73113 -12.23632,-49.79492 -12.23632,-49.79492 l -0.0137,-0.0449 -0.0156,-0.0449 c -4.82645,-14.80113 -10.99134,-44.84577 -15.79688,-70.8125 -4.80553,-25.96673 -8.34765,-48.0625 -8.34765,-48.0625 l -0.006,-0.0312 -0.006,-0.0332 c -7.02191,-40.72744 -29.37887,-71.64472 -29.37887,-71.64472 l -0.58593,-0.81445 -0.83008,-0.5586 c -5.25245,-3.53677 -9.11864,-7.85256 -11.2168,-11.71484 -2.09815,-3.86228 -2.25974,-6.96811 -1.61719,-8.59766 0.64256,-1.62955 1.98099,-3.14292 7.0293,-3.75976 5.04831,-0.61685 13.36441,0.31774 24.89258,4.24023 l 0.33008,0.11133 0.33984,0.0703 c 38.35825,7.92526 45.45898,36.26172 45.45898,36.26172 l 0.0137,0.0488 0.0137,0.0488 c 11.41257,38.49617 20.99366,59.83164 27.96484,71.82031 3.48559,5.99434 6.32228,9.65715 8.4707,11.93945 1.07422,1.14115 1.97772,1.93688 2.70508,2.49414 0.72737,0.55727 1.64258,1.05469 1.64258,1.05469 l 2.05469,1.00391 2.16797,-0.72266 c 4.13913,-1.3797 7.07113,-4.14339 10.31836,-7.39063 3.24723,-3.24723 6.48751,-7.0912 9.42382,-10.81054 5.87264,-7.43869 10.53711,-14.43945 10.53711,-14.43946 l 0.68555,-1.02929 0.1875,-1.22266 c 3.78228,-24.58462 14.34279,-40.03295 14.79688,-40.68945 14.07887,-16.18449 26.35667,-17.02629 36.14453,-13.41797 4.91688,1.81262 9.21624,5.0206 12.2539,8.47852 3.03767,3.45792 4.66384,7.25279 4.85547,9.15234 l 1.1211,11.10742 8.22265,-7.55078 c 8.62878,-7.9228 15.45625,-10.39903 20.79883,-10.50781 5.34258,-0.10879 9.79036,2.11535 13.77344,5.57812 7.96615,6.92554 12.56445,18.35938 12.56445,18.35938 l 1.7168,4.51172 4.71484,-1.04297 c 8.52655,-1.88642 14.15877,-0.7566 18.40039,1.57812 4.24163,2.33472 7.30198,6.16325 9.51172,10.56446 4.41948,8.8024 4.86133,19.09179 4.86133,19.09179 l 10.9375,1.45313 c 1.21735,-4.01734 8.46232,-19.36536 15.11328,-32.54102 6.65096,-13.17566 12.88867,-24.97656 12.88867,-24.97656 l 0.51758,-0.97852 0.10547,-1.10351 c 0.0347,-0.36439 0.71113,-2.72172 1.88477,-5.25781 1.17363,-2.53609 2.75952,-5.46478 4.33789,-8.19336 3.15672,-5.45717 6.24804,-10.08594 6.24804,-10.08594 l 0.10157,-0.15039 0.0898,-0.15625 c 6.85445,-11.8425 15.63352,-13.21008 21.70312,-10.72852 6.06961,2.48156 10.27255,8.73489 6.05664,19.23633 l 0.0918,-0.21484 c -11.45002,25.38908 -57.52344,146.66601 -57.52344,146.66601 l -0.26757,0.69922 -0.0723,0.74609 c -1.74066,17.84229 -14.04102,49.5 -14.04102,49.5 l -0.21875,0.54883 -0.0996,0.58399 c -13.1557,77.61864 -72.33398,142.58003 -72.33398,142.58003 l 8.23828,7.5586 c 0,0 60.90613,-65.94599 75,-147.68355 0.3631,-0.89506 12.15134,-30.07813 14.45117,-51.09766 0.38885,-1.02085 46.55162,-122.20788 57.0586,-145.50586 l 0.0488,-0.10547 0.043,-0.10937 c 6.01405,-14.98043 -0.77126,-29.07963 -12.19921,-33.75196 -11.42266,-4.67016 -26.6414,0.003 -35.59766,15.45703 -0.004,0.007 -0.01,0.0124 -0.0137,0.0195 -0.17949,0.26884 -3.17067,4.73886 -6.44336,10.39648 -1.6847,2.91241 -3.40419,6.06742 -4.80469,9.09375 -1.15765,2.50156 -2.0313,4.82157 -2.51367,7.33203 -0.25129,0.47565 -6.14734,11.62837 -12.7168,24.64258 -3.03876,6.01983 -6.04389,12.05741 -8.7168,17.64453 -0.6756,-1.87103 -1.27186,-3.73324 -2.22265,-5.62695 -2.90555,-5.78707 -7.35088,-11.62064 -14.11133,-15.3418 -5.74926,-3.16457 -13.10104,-4.43485 -21.65625,-3.35156 -2.24297,-4.67245 -6.59141,-12.43304 -13.79687,-18.69727 -5.40196,-4.6963 -12.66438,-8.49493 -21.33594,-8.31836 -6.77824,0.13802 -14.06774,2.78338 -21.68555,8.26172 -1.25081,-2.29229 -2.80568,-4.52412 -4.68555,-6.66406 -4.19331,-4.77345 -9.89154,-9.04973 -16.7871,-11.5918 -13.79114,-5.08414 -32.32811,-2.1241 -48.66993,16.80664 l -0.18554,0.21485 -0.16211,0.23242 c 0,0 -12.11227,17.43915 -16.57032,44.26172 -0.7912,1.17356 -4.43372,6.54911 -9.40625,12.84765 -2.77079,3.50968 -5.80944,7.08679 -8.55468,9.83204 -1.24427,1.24426 -2.44918,2.21974 -3.48438,3.00976 -1.44569,-1.63903 -3.51259,-4.29987 -6.30469,-9.10156 -6.30313,-10.83981 -15.66142,-31.44196 -26.9082,-69.37891 l 0.0273,0.0996 c 0,0 -10.43398,-34.98727 -53.54296,-44.12109 -9.27347,-3.13661 -16.99004,-4.72655 -23.47071,-4.93164 z"
       id="path26639"
       inkscape:connector-curvature="0" />
    <path
       style="color:#000000;font-style:normal;font-variant:normal;font-weight:normal;font-stretch:normal;font-size:medium;line-height:normal;font-family:sans-serif;font-variant-ligatures:normal;font-variant-position:normal;font-variant-caps:normal;font-variant-numeric:normal;font-variant-alternates:normal;font-feature-settings:normal;text-indent:0;text-align:start;text-decoration:none;text-decoration-line:none;text-decoration-style:solid;text-decoration-color:#000000;letter-spacing:normal;word-spacing:normal;text-transform:none;writing-mode:lr-tb;direction:ltr;text-orientation:mixed;dominant-baseline:auto;baseline-shift:baseline;text-anchor:start;white-space:normal;shape-padding:0;clip-rule:nonzero;display:inline;overflow:visible;visibility:visible;opacity:1;isolation:auto;mix-blend-mode:normal;color-interpolation:sRGB;color-interpolation-filters:linearRGB;solid-color:#000000;solid-opacity:1;vector-effect:none;fill:#000000;fill-opacity:1;fill-rule:nonzero;stroke:none;stroke-width:11.1810379;stroke-linecap:butt;stroke-linejoin:miter;stroke-miterlimit:4;stroke-dasharray:none;stroke-dashoffset:0;stroke-opacity:1;color-rendering:auto;image-rendering:auto;shape-rendering:auto;text-rendering:auto;enable-background:accumulate"
       d="m 513.8292,453.62574 -9.5625,38.24414 10.84766,2.71289 9.5625,-38.24609 z"
       id="path26641"
       inkscape:connector-curvature="0" />
    <path
       style="color:#000000;font-style:normal;font-variant:normal;font-weight:normal;font-stretch:normal;font-size:medium;line-height:normal;font-family:sans-serif;font-variant-ligatures:normal;font-variant-position:normal;font-variant-caps:normal;font-variant-numeric:normal;font-variant-alternates:normal;font-feature-settings:normal;text-indent:0;text-align:start;text-decoration:none;text-decoration-line:none;text-decoration-style:solid;text-decoration-color:#000000;letter-spacing:normal;word-spacing:normal;text-transform:none;writing-mode:lr-tb;direction:ltr;text-orientation:mixed;dominant-baseline:auto;baseline-shift:baseline;text-anchor:start;white-space:normal;shape-padding:0;clip-rule:nonzero;display:inline;overflow:visible;visibility:visible;opacity:1;isolation:auto;mix-blend-mode:normal;color-interpolation:sRGB;color-interpolation-filters:linearRGB;solid-color:#000000;solid-opacity:1;vector-effect:none;fill:#000000;fill-opacity:1;fill-rule:nonzero;stroke:none;stroke-width:11.1810379;stroke-linecap:butt;stroke-linejoin:miter;stroke-miterlimit:4;stroke-dasharray:none;stroke-dashoffset:0;stroke-opacity:1;color-rendering:auto;image-rendering:auto;shape-rendering:auto;text-rendering:auto;enable-background:accumulate"
       d="m 580.97569,470.22535 -11.16406,0.625 c 0,0 1.29931,26.14162 -5.65625,47.68164 l 10.64062,3.43555 c 7.87118,-24.37549 6.17969,-51.74219 6.17969,-51.74219 z"
       id="path26643"
       inkscape:connector-curvature="0" />
    <path
       style="color:#000000;font-style:normal;font-variant:normal;font-weight:normal;font-stretch:normal;font-size:medium;line-height:normal;font-family:sans-serif;font-variant-ligatures:normal;font-variant-position:normal;font-variant-caps:normal;font-variant-numeric:normal;font-variant-alternates:normal;font-feature-settings:normal;text-indent:0;text-align:start;text-decoration:none;text-decoration-line:none;text-decoration-style:solid;text-decoration-color:#000000;letter-spacing:normal;word-spacing:normal;text-transform:none;writing-mode:lr-tb;direction:ltr;text-orientation:mixed;dominant-baseline:auto;baseline-shift:baseline;text-anchor:start;white-space:normal;shape-padding:0;clip-rule:nonzero;display:inline;overflow:visible;visibility:visible;opacity:1;isolation:auto;mix-blend-mode:normal;color-interpolation:sRGB;color-interpolation-filters:linearRGB;solid-color:#000000;solid-opacity:1;vector-effect:none;fill:#000000;fill-opacity:1;fill-rule:nonzero;stroke:none;stroke-width:11.1810379;stroke-linecap:butt;stroke-linejoin:miter;stroke-miterlimit:4;stroke-dasharray:none;stroke-dashoffset:0;stroke-opacity:1;color-rendering:auto;image-rendering:auto;shape-rendering:auto;text-rendering:auto;enable-background:accumulate"
       d="m 609.41124,506.41871 c 0,0 -1.03588,8.90335 -2.04102,19.31641 -1.00514,10.41305 -2.00768,22.09413 -1.87305,28.82422 l 11.17969,-0.22461 c -0.10456,-5.22707 0.83102,-17.23603 1.82422,-27.52539 0.9932,-10.28937 2.01562,-19.09961 2.01562,-19.09961 z"
       id="path26645"
       inkscape:connector-curvature="0" />
    <path
       style="color:#000000;font-style:normal;font-variant:normal;font-weight:normal;font-stretch:normal;font-size:medium;line-height:normal;font-family:sans-serif;font-variant-ligatures:normal;font-variant-position:normal;font-variant-caps:normal;font-variant-numeric:normal;font-variant-alternates:normal;font-feature-settings:normal;text-indent:0;text-align:start;text-decoration:none;text-decoration-line:none;text-decoration-style:solid;text-decoration-color:#000000;letter-spacing:normal;word-spacing:normal;text-transform:none;writing-mode:lr-tb;direction:ltr;text-orientation:mixed;dominant-baseline:auto;baseline-shift:baseline;text-anchor:start;white-space:normal;shape-padding:0;clip-rule:nonzero;display:inline;overflow:visible;visibility:visible;opacity:1;isolation:auto;mix-blend-mode:normal;color-interpolation:sRGB;color-interpolation-filters:linearRGB;solid-color:#000000;solid-opacity:1;vector-effect:none;fill:#000000;fill-opacity:1;fill-rule:nonzero;stroke:none;stroke-width:11.1810379;stroke-linecap:butt;stroke-linejoin:miter;stroke-miterlimit:4;stroke-dasharray:none;stroke-dashoffset:0;stroke-opacity:1;color-rendering:auto;image-rendering:auto;shape-rendering:auto;text-rendering:auto;enable-background:accumulate"
       d="m 295.29405,404.38356 c -6.40592,-0.47672 -11.11328,2.75 -11.11328,2.75 l 6.47265,9.11523 c 0,0 1.12736,-0.91452 3.81055,-0.71484 2.56549,0.19092 6.79279,1.6506 12.28516,9.35742 -0.16691,0.47075 -0.76488,1.74379 -4.06055,4.00195 l 6.32031,9.22461 c 5.31442,-3.64139 8.04609,-7.49617 8.85352,-11.16992 0.40371,-1.83688 0.28528,-3.51806 -0.0156,-4.76563 -0.30091,-1.24756 -1.00977,-2.47851 -1.00977,-2.47851 l -0.0488,-0.0762 -0.0488,-0.0742 c -7.15184,-10.58838 -15.03939,-14.6932 -21.4453,-15.16991 z"
       id="path26647"
       inkscape:connector-curvature="0" />
    <path
       style="color:#000000;font-style:normal;font-variant:normal;font-weight:normal;font-stretch:normal;font-size:medium;line-height:normal;font-family:sans-serif;font-variant-ligatures:normal;font-variant-position:normal;font-variant-caps:normal;font-variant-numeric:normal;font-variant-alternates:normal;font-feature-settings:normal;text-indent:0;text-align:start;text-decoration:none;text-decoration-line:none;text-decoration-style:solid;text-decoration-color:#000000;letter-spacing:normal;word-spacing:normal;text-transform:none;writing-mode:lr-tb;direction:ltr;text-orientation:mixed;dominant-baseline:auto;baseline-shift:baseline;text-anchor:start;white-space:normal;shape-padding:0;clip-rule:nonzero;display:inline;overflow:visible;visibility:visible;opacity:1;isolation:auto;mix-blend-mode:normal;color-interpolation:sRGB;color-interpolation-filters:linearRGB;solid-color:#000000;solid-opacity:1;vector-effect:none;fill:#000000;fill-opacity:1;fill-rule:nonzero;stroke:none;stroke-width:11.1810379;stroke-linecap:butt;stroke-linejoin:miter;stroke-miterlimit:4;stroke-dasharray:none;stroke-dashoffset:0;stroke-opacity:1;color-rendering:auto;image-rendering:auto;shape-rendering:auto;text-rendering:auto;enable-background:accumulate"
       d="m 682.79795,408.76442 c -1.04647,-0.066 -2.06481,-0.0439 -3.03125,0.0449 -7.7315,0.7106 -13.44335,5.10547 -13.44335,5.10547 l -1.32032,0.94531 -0.60547,1.50781 c -4.50491,11.18911 1.49576,22.09155 10.30664,25.80469 8.81089,3.71314 20.91739,0.22022 26.1836,-11.43945 l 0.82031,-1.8125 -0.51172,-1.92383 c -1.82421,-6.8648 -4.84133,-11.78626 -8.85547,-14.79688 -3.0106,-2.25796 -6.40355,-3.23748 -9.54297,-3.43554 z m -2.00781,11.17773 c 1.88364,-0.17313 3.33906,0.0761 4.8418,1.20312 1.24793,0.93596 2.69724,3.14849 3.96484,6.72266 -3.12343,5.18362 -7.04605,5.47699 -10.55078,4 -3.53472,-1.48962 -5.98485,-4.61136 -4.63672,-9.72461 1.47644,-0.82049 3.76565,-1.96081 6.38086,-2.20117 z"
       id="path26649"
       inkscape:connector-curvature="0" />
    <path
       style="color:#000000;font-style:normal;font-variant:normal;font-weight:normal;font-stretch:normal;font-size:medium;line-height:normal;font-family:sans-serif;font-variant-ligatures:normal;font-variant-position:normal;font-variant-caps:normal;font-variant-numeric:normal;font-variant-alternates:normal;font-feature-settings:normal;text-indent:0;text-align:start;text-decoration:none;text-decoration-line:none;text-decoration-style:solid;text-decoration-color:#000000;letter-spacing:normal;word-spacing:normal;text-transform:none;writing-mode:lr-tb;direction:ltr;text-orientation:mixed;dominant-baseline:auto;baseline-shift:baseline;text-anchor:start;white-space:normal;shape-padding:0;clip-rule:nonzero;display:inline;overflow:visible;visibility:visible;opacity:1;isolation:auto;mix-blend-mode:normal;color-interpolation:sRGB;color-interpolation-filters:linearRGB;solid-color:#000000;solid-opacity:1;vector-effect:none;fill:#000000;fill-opacity:1;fill-rule:nonzero;stroke:none;stroke-width:11.1810379;stroke-linecap:butt;stroke-linejoin:miter;stroke-miterlimit:4;stroke-dasharray:none;stroke-dashoffset:0;stroke-opacity:1;color-rendering:auto;image-rendering:auto;shape-rendering:auto;text-rendering:auto;enable-background:accumulate"
       d="m 454.57335,540.29176 -9.81641,5.35351 c 0,0 3.34792,6.31763 10.03515,10.94727 6.68724,4.62965 17.82262,7.2189 29.72852,0.29688 l -5.62109,-9.66602 c -8.66043,5.03513 -13.54843,3.07916 -17.74219,0.17578 -4.19376,-2.90338 -6.58398,-7.10742 -6.58398,-7.10742 z"
       id="path26651"
       inkscape:connector-curvature="0" />
    <path
       style="color:#000000;font-style:normal;font-variant:normal;font-weight:normal;font-stretch:normal;font-size:medium;line-height:normal;font-family:sans-serif;font-variant-ligatures:normal;font-variant-position:normal;font-variant-caps:normal;font-variant-numeric:normal;font-variant-alternates:normal;font-feature-settings:normal;text-indent:0;text-align:start;text-decoration:none;text-decoration-line:none;text-decoration-style:solid;text-decoration-color:#000000;letter-spacing:normal;word-spacing:normal;text-transform:none;writing-mode:lr-tb;direction:ltr;text-orientation:mixed;dominant-baseline:auto;baseline-shift:baseline;text-anchor:start;white-space:normal;shape-padding:0;clip-rule:nonzero;display:inline;overflow:visible;visibility:visible;opacity:1;isolation:auto;mix-blend-mode:normal;color-interpolation:sRGB;color-interpolation-filters:linearRGB;solid-color:#000000;solid-opacity:1;vector-effect:none;fill:#000000;fill-opacity:1;fill-rule:nonzero;stroke:none;stroke-width:11.1810379;stroke-linecap:butt;stroke-linejoin:miter;stroke-miterlimit:4;stroke-dasharray:none;stroke-dashoffset:0;stroke-opacity:1;color-rendering:auto;image-rendering:auto;shape-rendering:auto;text-rendering:auto;enable-background:accumulate"
       d="m 517.19835,571.08668 -8.79883,6.89649 c 0,0 16.72363,20.30756 45.76757,13.9707 l -2.38476,-10.92383 c -23.56755,5.14202 -34.58399,-9.94336 -34.58398,-9.94336 z"
       id="path26653"
       inkscape:connector-curvature="0" />
    <path
       style="color:#000000;font-style:normal;font-variant:normal;font-weight:normal;font-stretch:normal;font-size:medium;line-height:normal;font-family:sans-serif;font-variant-ligatures:normal;font-variant-position:normal;font-variant-caps:normal;font-variant-numeric:normal;font-variant-alternates:normal;font-feature-settings:normal;text-indent:0;text-align:start;text-decoration:none;text-decoration-line:none;text-decoration-style:solid;text-decoration-color:#000000;letter-spacing:normal;word-spacing:normal;text-transform:none;writing-mode:lr-tb;direction:ltr;text-orientation:mixed;dominant-baseline:auto;baseline-shift:baseline;text-anchor:start;white-space:normal;shape-padding:0;clip-rule:nonzero;display:inline;overflow:visible;visibility:visible;opacity:1;isolation:auto;mix-blend-mode:normal;color-interpolation:sRGB;color-interpolation-filters:linearRGB;solid-color:#000000;solid-opacity:1;vector-effect:none;fill:#000000;fill-opacity:1;fill-rule:nonzero;stroke:none;stroke-width:11.1810379;stroke-linecap:butt;stroke-linejoin:miter;stroke-miterlimit:4;stroke-dasharray:none;stroke-dashoffset:0;stroke-opacity:1;color-rendering:auto;image-rendering:auto;shape-rendering:auto;text-rendering:auto;enable-background:accumulate"
       d="m 579.31553,591.0984 -8.67773,7.05078 c 0,0 3.62351,4.5162 9.43945,8.0625 5.81594,3.54631 14.83262,6.38595 24.04688,2.08594 l -4.72852,-10.13086 c -5.13431,2.39602 -9.50913,0.93031 -13.49805,-1.50195 -3.98891,-2.43227 -6.58203,-5.56641 -6.58203,-5.56641 z"
       id="path26655"
       inkscape:connector-curvature="0" />
    <path
       style="color:#000000;font-style:normal;font-variant:normal;font-weight:normal;font-stretch:normal;font-size:medium;line-height:normal;font-family:sans-serif;font-variant-ligatures:normal;font-variant-position:normal;font-variant-caps:normal;font-variant-numeric:normal;font-variant-alternates:normal;font-feature-settings:normal;text-indent:0;text-align:start;text-decoration:none;text-decoration-line:none;text-decoration-style:solid;text-decoration-color:#000000;letter-spacing:normal;word-spacing:normal;text-transform:none;writing-mode:lr-tb;direction:ltr;text-orientation:mixed;dominant-baseline:auto;baseline-shift:baseline;text-anchor:start;white-space:normal;shape-padding:0;clip-rule:nonzero;display:inline;overflow:visible;visibility:visible;opacity:1;isolation:auto;mix-blend-mode:normal;color-interpolation:sRGB;color-interpolation-filters:linearRGB;solid-color:#000000;solid-opacity:1;vector-effect:none;fill:#000000;fill-opacity:1;fill-rule:nonzero;stroke:none;stroke-width:14.48576546;stroke-linecap:butt;stroke-linejoin:miter;stroke-miterlimit:4;stroke-dasharray:none;stroke-dashoffset:0;stroke-opacity:1;color-rendering:auto;image-rendering:auto;shape-rendering:auto;text-rendering:auto;enable-background:accumulate"
       d="m 417.50604,-49.87706 c -28.52841,-0.52356 -55.69057,20.26685 -90.08146,61.41979 l 11.11681,9.28997 c 33.48907,-40.07366 57.61716,-56.61315 78.69925,-56.22634 21.08198,0.38691 43.75894,17.91871 73.97226,53.35309 l 11.02408,-9.39838 c -30.94902,-36.29733 -56.20287,-57.91459 -84.73094,-58.43813 z"
       id="path59-17-20"
       inkscape:connector-curvature="0" />
    <path
       style="color:#000000;font-style:normal;font-variant:normal;font-weight:normal;font-stretch:normal;font-size:medium;line-height:normal;font-family:sans-serif;font-variant-ligatures:normal;font-variant-position:normal;font-variant-caps:normal;font-variant-numeric:normal;font-variant-alternates:normal;font-feature-settings:normal;text-indent:0;text-align:start;text-decoration:none;text-decoration-line:none;text-decoration-style:solid;text-decoration-color:#000000;letter-spacing:normal;word-spacing:normal;text-transform:none;writing-mode:lr-tb;direction:ltr;text-orientation:mixed;dominant-baseline:auto;baseline-shift:baseline;text-anchor:start;white-space:normal;shape-padding:0;clip-rule:nonzero;display:inline;overflow:visible;visibility:visible;opacity:1;isolation:auto;mix-blend-mode:normal;color-interpolation:sRGB;color-interpolation-filters:linearRGB;solid-color:#000000;solid-opacity:1;vector-effect:none;fill:#000000;fill-opacity:1;fill-rule:nonzero;stroke:none;stroke-width:14.48576546;stroke-linecap:butt;stroke-linejoin:miter;stroke-miterlimit:4;stroke-dasharray:none;stroke-dashoffset:0;stroke-opacity:1;color-rendering:auto;image-rendering:auto;shape-rendering:auto;text-rendering:auto;enable-background:accumulate"
       d="m 415.95764,51.48073 c -19.52832,-0.70236 -39.95082,7.15091 -63.93452,24.86596 l 8.60641,11.65229 c 22.49193,-16.61319 39.47739,-22.59512 54.80834,-22.04375 15.33086,0.55139 30.11139,7.79587 47.76585,20.46002 l 8.44274,-11.76942 C 453.01599,61.28144 435.48596,52.183 415.95764,51.48073 Z"
       id="path59-1-8-1"
       inkscape:connector-curvature="0" />
    <path
       style="color:#000000;font-style:normal;font-variant:normal;font-weight:normal;font-stretch:normal;font-size:medium;line-height:normal;font-family:sans-serif;font-variant-ligatures:normal;font-variant-position:normal;font-variant-caps:normal;font-variant-numeric:normal;font-variant-alternates:normal;font-feature-settings:normal;text-indent:0;text-align:start;text-decoration:none;text-decoration-line:none;text-decoration-style:solid;text-decoration-color:#000000;letter-spacing:normal;word-spacing:normal;text-transform:none;writing-mode:lr-tb;direction:ltr;text-orientation:mixed;dominant-baseline:auto;baseline-shift:baseline;text-anchor:start;white-space:normal;shape-padding:0;clip-rule:nonzero;display:inline;overflow:visible;visibility:visible;opacity:1;isolation:auto;mix-blend-mode:normal;color-interpolation:sRGB;color-interpolation-filters:linearRGB;solid-color:#000000;solid-opacity:1;vector-effect:none;fill:#000000;fill-opacity:1;fill-rule:nonzero;stroke:none;stroke-width:14.48576546;stroke-linecap:butt;stroke-linejoin:miter;stroke-miterlimit:4;stroke-dasharray:none;stroke-dashoffset:0;stroke-opacity:1;color-rendering:auto;image-rendering:auto;shape-rendering:auto;text-rendering:auto;enable-background:accumulate"
       d="m 610.67471,-51.90093 c -28.52815,-0.52355 -55.6903,20.26684 -90.08148,61.41979 l 11.1171,9.28764 c 33.48907,-40.07347 57.61679,-56.61082 78.69897,-56.22392 21.08217,0.38683 43.75913,17.91861 73.97243,53.35301 L 695.40574,6.53722 C 664.45652,-29.76013 639.20296,-51.3773 610.67471,-51.90093 Z"
       id="path59-17-5-2"
       inkscape:connector-curvature="0" />
    <path
       style="color:#000000;font-style:normal;font-variant:normal;font-weight:normal;font-stretch:normal;font-size:medium;line-height:normal;font-family:sans-serif;font-variant-ligatures:normal;font-variant-position:normal;font-variant-caps:normal;font-variant-numeric:normal;font-variant-alternates:normal;font-feature-settings:normal;text-indent:0;text-align:start;text-decoration:none;text-decoration-line:none;text-decoration-style:solid;text-decoration-color:#000000;letter-spacing:normal;word-spacing:normal;text-transform:none;writing-mode:lr-tb;direction:ltr;text-orientation:mixed;dominant-baseline:auto;baseline-shift:baseline;text-anchor:start;white-space:normal;shape-padding:0;clip-rule:nonzero;display:inline;overflow:visible;visibility:visible;opacity:1;isolation:auto;mix-blend-mode:normal;color-interpolation:sRGB;color-interpolation-filters:linearRGB;solid-color:#000000;solid-opacity:1;vector-effect:none;fill:#000000;fill-opacity:1;fill-rule:nonzero;stroke:none;stroke-width:14.48576546;stroke-linecap:butt;stroke-linejoin:miter;stroke-miterlimit:4;stroke-dasharray:none;stroke-dashoffset:0;stroke-opacity:1;color-rendering:auto;image-rendering:auto;shape-rendering:auto;text-rendering:auto;enable-background:accumulate"
       d="m 609.12658,49.45454 c -19.52832,-0.70227 -39.95121,7.15331 -63.93492,24.86828 l 8.60641,11.65227 c 22.49203,-16.61318 39.47575,-22.59501 54.80631,-22.04373 15.33075,0.55147 30.11344,7.79585 47.76791,20.46002 l 8.44302,-11.76942 C 646.18456,59.25769 628.6548,50.15681 609.12658,49.45454 Z"
       id="path59-1-8-3-29"
       inkscape:connector-curvature="0" />
    <path
       style="color:#000000;font-style:normal;font-variant:normal;font-weight:normal;font-stretch:normal;font-size:medium;line-height:normal;font-family:sans-serif;font-variant-ligatures:normal;font-variant-position:normal;font-variant-caps:normal;font-variant-numeric:normal;font-variant-alternates:normal;font-feature-settings:normal;text-indent:0;text-align:start;text-decoration:none;text-decoration-line:none;text-decoration-style:solid;text-decoration-color:#000000;letter-spacing:normal;word-spacing:normal;text-transform:none;writing-mode:lr-tb;direction:ltr;text-orientation:mixed;dominant-baseline:auto;baseline-shift:baseline;text-anchor:start;white-space:normal;shape-padding:0;clip-rule:nonzero;display:inline;overflow:visible;visibility:visible;opacity:1;isolation:auto;mix-blend-mode:normal;color-interpolation:sRGB;color-interpolation-filters:linearRGB;solid-color:#000000;solid-opacity:1;vector-effect:none;fill:#000000;fill-opacity:1;fill-rule:nonzero;stroke:none;stroke-width:14.48576546;stroke-linecap:butt;stroke-linejoin:miter;stroke-miterlimit:4;stroke-dasharray:none;stroke-dashoffset:0;stroke-opacity:1;color-rendering:auto;image-rendering:auto;shape-rendering:auto;text-rendering:auto;enable-background:accumulate"
       d="m 615.26238,281.14803 c -55.14473,54.28704 -102.61549,56.44151 -138.84476,44.99871 -18.11478,-5.72145 -33.39251,-15.13119 -44.74882,-23.77563 -11.35642,-8.64434 -18.46814,-16.18865 -21.44426,-19.13724 l -10.19462,10.29188 c 2.29356,2.2724 10.56766,11.01158 22.86412,20.37157 12.29653,9.35999 28.94019,19.67599 49.16185,26.06268 40.44243,12.77354 95.30847,8.66975 153.36987,-48.48907 z"
       id="path29-2-7"
       inkscape:connector-curvature="0" />
    <path
       style="font-style:normal;font-weight:normal;font-size:233.33332825px;line-height:1.25;font-family:sans-serif;letter-spacing:0px;word-spacing:0px;fill:#000000;fill-opacity:1;stroke:none"
       d="m 708.54492,852.19785 v 177.27935 h 21.41992 V 852.19785 Z M 0,859.83075 v 169.64645 h 42.837891 c 15.570746,0 28.103298,-1.0646 37.597656,-3.1914 9.570312,-2.1267 18.229167,-5.582 25.976563,-10.3672 11.16536,-6.9119 20.09136,-16.63345 26.77539,-29.16605 6.75998,-12.5325 10.13867,-26.5089 10.13867,-41.9277 0,-16.4822 -3.22743,-30.7237 -9.68359,-42.7246 -6.45616,-12.0009 -15.45682,-21.6085 -27.00196,-28.8242 -6.759977,-4.1775 -15.039709,-7.4443 -24.837886,-9.7989 -9.722222,-2.4305 -22.861762,-3.6464 -39.419922,-3.6464 z m 22.558594,19.3691 H 43.75 c 10.481771,0 19.482422,0.7602 27.001953,2.2793 7.519531,1.4431 14.62066,4.0636 21.304688,7.8613 9.190539,5.2409 16.103079,12.4186 20.736329,21.5332 4.63325,9.1146 6.94922,20.3173 6.94922,33.6094 0,13.2161 -2.12544,24.2303 -6.37891,33.041 -4.17752,8.8108 -10.48307,15.9119 -18.914061,21.3047 -6.759983,4.32935 -14.202908,7.29175 -22.330078,8.88675 -8.051215,1.5951 -17.507596,2.3926 -28.369141,2.3926 H 22.558594 Z m 208.609376,19.4824 c -18.53299,0 -33.49544,6.115 -44.88867,18.3438 -11.31728,12.2287 -16.97657,28.7489 -16.97657,49.5605 0,21.0395 5.92448,37.29255 17.77344,48.76165 11.84896,11.3934 28.33182,17.09 49.44727,17.09 8.27908,0 16.17773,-1.0254 23.69726,-3.0762 7.51953,-2.0508 14.88781,-4.5946 22.10352,-7.6328 v -23.35555 h -1.13867 c -3.72179,3.34205 -9.98807,6.75995 -18.79883,10.25395 -8.73481,3.418 -17.43294,5.127 -26.0918,5.127 -6.53212,0 -12.53125,-0.9116 -18,-2.7344 -5.39279,-1.823 -10.06402,-4.5573 -14.01367,-8.2031 -4.10156,-3.72185 -7.33095,-8.46965 -9.68555,-14.24225 -2.3546,-5.8485 -3.53125,-12.6845 -3.53125,-20.5078 h 93.76563 v -11.6211 c 0,-18.457 -4.67123,-32.6986 -14.01367,-42.7246 -9.2665,-10.0261 -22.48264,-15.0391 -39.64844,-15.0391 z m 604.75391,0 c -8.05122,0 -15.64736,1.6324 -22.78711,4.8985 -7.06381,3.1901 -13.44401,7.1777 -19.14063,11.9628 v -13.33 h -21.41992 v 174.20315 h 21.41992 v -53.3203 c 5.54471,3.0382 10.97613,5.2795 16.29297,6.7226 5.39279,1.4432 11.39193,2.1641 18,2.1641 7.59549,0 14.77322,-1.5184 21.5332,-4.5566 6.83594,-3.1142 12.76042,-7.483 17.77344,-13.1036 5.3928,-5.9244 9.57096,-13.1395 12.5332,-21.64645 2.96224,-8.5829 4.44336,-18.0393 4.44336,-28.3692 0,-20.5837 -4.2921,-36.6482 -12.875,-48.1933 -8.50694,-11.6211 -20.43055,-17.4317 -35.77343,-17.4317 z m -475.2129,0.4551 c -8.12717,0 -15.49349,1.0647 -22.10156,3.1914 -6.53212,2.0508 -11.92621,4.8598 -16.17969,8.4297 -4.40538,3.6458 -7.70941,7.7867 -9.91211,12.4199 -2.12673,4.6333 -3.18945,9.5697 -3.18945,14.8106 0,8.355 2.31597,15.4188 6.94922,21.1914 4.7092,5.6966 12.64714,10.026 23.8125,12.9882 4.02561,1.0634 8.46897,2.0515 13.33008,2.9629 4.93706,0.9115 8.92469,1.709 11.96289,2.3926 8.20312,1.8229 13.74848,4.025 16.63476,6.6074 2.88629,2.5825 4.32813,6.3796 4.32813,11.3926 0,6.53215 -2.65777,11.31735 -7.97461,14.35555 -5.31684,3.0382 -12.68511,4.5585 -22.10352,4.5585 -7.59548,0 -15.53146,-1.4811 -23.81054,-4.4433 -8.27908,-3.0382 -15.79861,-7.1024 -22.5586,-12.19145 h -1.14062 v 24.03915 c 5.31684,2.6584 11.88759,5.1276 19.71094,7.4062 7.8993,2.2027 16.55816,3.3047 25.97656,3.3047 16.63411,0 29.73633,-3.7224 39.30664,-11.1661 9.64627,-7.4435 14.46875,-16.9766 14.46875,-28.59765 0,-9.2665 -2.6951,-16.7094 -8.08789,-22.33 -5.3928,-5.5447 -13.06554,-9.4558 -23.01563,-11.7344 -3.26605,-0.7596 -7.36762,-1.5964 -12.30468,-2.5078 -4.86111,-0.9115 -9.26519,-1.8229 -13.21485,-2.7344 -7.13975,-1.671 -12.30599,-3.8357 -15.49609,-6.4941 -3.26606,-2.6585 -4.89844,-6.6068 -4.89844,-11.8477 0,-5.9245 2.69705,-10.3678 8.08985,-13.3301 5.39279,-3.0382 12.00086,-4.5586 19.82421,-4.5586 7.51954,0 15.19033,1.4065 23.01368,4.2168 7.82335,2.7344 14.46875,6.1131 19.9375,10.1387 h 1.14062 v -22.9004 c -5.16493,-2.6584 -11.65907,-4.8978 -19.48242,-6.7207 -7.7474,-1.8989 -15.42014,-2.8496 -23.01563,-2.8496 z m 600.76563,0 c -7.67144,0 -15.45616,0.6836 -23.35547,2.0508 -7.8993,1.3672 -13.93772,2.6204 -18.11523,3.7597 v 21.7618 h 1.13867 c 7.36762,-2.8104 14.50803,-4.9378 21.41992,-6.3809 6.91189,-1.5191 13.17817,-2.2773 18.79883,-2.2773 4.63324,0 9.0766,0.3025 13.33008,0.9101 4.25347,0.6077 7.8993,1.7863 10.9375,3.5332 3.1901,1.8229 5.62,4.3294 7.29101,7.5195 1.74696,3.1902 2.6211,7.2151 2.6211,12.0762 v 3.3047 c -12.4566,0.6076 -24.11698,1.5191 -34.97852,2.7344 -10.86154,1.2153 -20.16471,3.5312 -27.91211,6.9492 -7.67144,3.418 -13.59592,8.1265 -17.77344,14.127 -4.10156,5.9244 -6.15234,13.7111 -6.15234,23.3574 0,11.77305 3.98763,21.45715 11.96289,29.05275 7.97526,7.5955 17.69683,11.3926 29.16602,11.3926 6.22829,0 11.65972,-0.607 16.29296,-1.8223 4.63325,-1.1393 8.73481,-2.5831 12.30469,-4.3301 3.0382,-1.3671 6.15169,-3.1901 9.3418,-5.4688 3.26606,-2.3545 5.84917,-4.1775 7.74805,-5.4687 v 13.5586 h 21.30468 v -86.36135 c 0,-8.2031 -1.2533,-15.0764 -3.7598,-20.6211 -2.5065,-5.5447 -6.1523,-10.0647 -10.9375,-13.5586 -4.86107,-3.5699 -10.63429,-6.0764 -17.31832,-7.5195 -6.60807,-1.5191 -14.3928,-2.2793 -23.35547,-2.2793 z m -469.17383,0.1152 c -18.76085,0 -33.87456,5.9245 -45.34375,17.7735 -11.39323,11.8489 -17.08984,28.1786 -17.08984,48.9902 0,11.1654 1.51844,20.9262 4.55664,29.2813 3.03819,8.35505 7.33029,15.26555 12.875,20.73435 5.46875,5.4687 12.03754,9.5703 19.70898,12.3047 7.67144,2.6584 16.10243,3.9883 25.29297,3.9883 7.21571,0 14.01432,-0.9488 20.39453,-2.8477 6.45617,-1.8988 13.25478,-4.5586 20.39453,-7.9766 v -23.58395 h -1.14062 c -1.59505,1.2912 -3.75977,2.84905 -6.49414,4.67185 -2.73438,1.747 -5.65734,3.4187 -8.77149,5.0136 -3.56987,1.8231 -7.59678,3.3041 -12.07812,4.4435 -4.48134,1.1393 -8.88542,1.709 -13.21485,1.709 -12.45659,0 -22.14084,-4.1016 -29.05273,-12.3048 -6.83594,-8.27905 -10.25391,-20.09065 -10.25391,-35.43355 0,-15.7986 3.49263,-27.7615 10.48047,-35.8887 7.06381,-8.2031 16.6734,-12.3047 28.82617,-12.3047 6.60808,0 13.36741,1.3672 20.2793,4.1016 6.98785,2.7344 13.74718,6.6454 20.2793,11.7344 h 1.14062 v -23.8106 c -5.84852,-2.9622 -12.30533,-5.4687 -19.36914,-7.5195 -6.98784,-2.0508 -14.12825,-3.0762 -21.41992,-3.0762 z m 67.44922,2.961 v 82.6015 c 0,15.79855 3.72049,27.79895 11.16406,36.00205 7.44358,8.1272 17.8507,12.1914 31.21875,12.1914 7.97526,0 15.26693,-1.5185 21.875,-4.5566 6.60808,-3.0382 13.51867,-7.4071 20.73438,-13.1037 v 14.129 h 21.41992 V 902.21355 h -21.41992 v 95.0195 c -5.69662,4.48125 -11.84896,8.16645 -18.45703,11.05265 -6.53212,2.8864 -12.57053,4.3283 -18.11524,4.3283 -6.2283,0 -10.97417,-0.7584 -14.24023,-2.2775 -3.26606,-1.5191 -5.92578,-3.9509 -7.97657,-7.2929 -1.97482,-3.26605 -3.2654,-7.17705 -3.87304,-11.73435 -0.60764,-4.6333 -0.91211,-10.1786 -0.91211,-16.6348 v -72.4609 z m -329.7207,14.1289 c 11.39323,0 19.86154,3.0761 25.40625,9.2285 5.62066,6.1523 8.46896,14.8485 8.54492,26.0898 h -72.91602 c 0.91146,-10.026 4.74783,-18.4197 11.50782,-25.1797 6.83593,-6.7599 15.98784,-10.1386 27.45703,-10.1386 z m 600.42382,2.7344 c 10.86155,0 18.91146,3.797 24.15235,11.3925 5.24088,7.5955 7.86133,19.0653 7.86133,34.4082 0,15.7986 -3.34137,27.7223 -10.02539,35.77345 -6.68403,8.0513 -15.98915,12.0782 -27.91407,12.0782 -5.5447,0 -10.51844,-0.4951 -14.92382,-1.4824 -4.32943,-0.9874 -9.53299,-2.8478 -15.60938,-5.5822 v -72.11905 c 5.69662,-4.3294 11.65842,-7.824 17.88672,-10.4824 6.2283,-2.6584 12.41992,-3.9863 18.57226,-3.9863 z m 165.0879,43.6347 v 35.4336 c -5.31684,4.10165 -11.09007,7.63345 -17.31836,10.59575 -6.2283,2.8863 -13.10157,4.3301 -20.6211,4.3301 -9.03863,0 -15.76063,-1.8229 -20.16601,-5.4689 -4.40538,-3.7216 -6.60938,-9.22975 -6.60938,-16.52135 0,-6.4562 1.89952,-11.5066 5.69727,-15.1524 3.79774,-3.7218 8.77344,-6.4562 14.92578,-8.2031 5.16493,-1.4432 12.15213,-2.5452 20.96289,-3.3047 8.88672,-0.7595 16.59679,-1.3292 23.12891,-1.709 z"
       id="text784"
       inkscape:connector-curvature="0" />
  </g>
</svg>
