<?xml version="1.0" encoding="UTF-8" standalone="no"?>
<!-- Created with Inkscape (http://www.inkscape.org/) -->

<svg
   xmlns:dc="http://purl.org/dc/elements/1.1/"
   xmlns:cc="http://creativecommons.org/ns#"
   xmlns:rdf="http://www.w3.org/1999/02/22-rdf-syntax-ns#"
   xmlns:svg="http://www.w3.org/2000/svg"
   xmlns="http://www.w3.org/2000/svg"
   xmlns:sodipodi="http://sodipodi.sourceforge.net/DTD/sodipodi-0.dtd"
   xmlns:inkscape="http://www.inkscape.org/namespaces/inkscape"
   width="1000"
   height="1250"
   viewBox="0 0 1000 1250"
   version="1.1"
   id="svg8"
   inkscape:version="0.92.4 (5da689c313, 2019-01-14)"
   sodipodi:docname="Diarreia.svg">
  <defs
     id="defs2" />
  <sodipodi:namedview
     id="base"
     pagecolor="#ffffff"
     bordercolor="#666666"
     borderopacity="1.0"
     inkscape:pageopacity="0.0"
     inkscape:pageshadow="2"
     inkscape:zoom="0.25"
     inkscape:cx="1.1655035"
     inkscape:cy="623.84864"
     inkscape:document-units="px"
     inkscape:current-layer="layer1"
     showgrid="false"
     units="px"
     inkscape:window-width="1366"
     inkscape:window-height="715"
     inkscape:window-x="-8"
     inkscape:window-y="-8"
     inkscape:window-maximized="1" />
  <metadata
     id="metadata5">
    <rdf:RDF>
      <cc:Work
         rdf:about="">
        <dc:format>image/svg+xml</dc:format>
        <dc:type
           rdf:resource="http://purl.org/dc/dcmitype/StillImage" />
        <dc:title></dc:title>
      </cc:Work>
    </rdf:RDF>
  </metadata>
  <g
     inkscape:label="Camada 1"
     inkscape:groupmode="layer"
     id="layer1"
     transform="translate(0,217.58335)">
    <path
       style="color:#000000;font-style:normal;font-variant:normal;font-weight:normal;font-stretch:normal;font-size:medium;line-height:normal;font-family:sans-serif;font-variant-ligatures:normal;font-variant-position:normal;font-variant-caps:normal;font-variant-numeric:normal;font-variant-alternates:normal;font-feature-settings:normal;text-indent:0;text-align:start;text-decoration:none;text-decoration-line:none;text-decoration-style:solid;text-decoration-color:#000000;letter-spacing:normal;word-spacing:normal;text-transform:none;writing-mode:lr-tb;direction:ltr;text-orientation:mixed;dominant-baseline:auto;baseline-shift:baseline;text-anchor:start;white-space:normal;shape-padding:0;clip-rule:nonzero;display:inline;overflow:visible;visibility:visible;opacity:1;isolation:auto;mix-blend-mode:normal;color-interpolation:sRGB;color-interpolation-filters:linearRGB;solid-color:#000000;solid-opacity:1;vector-effect:none;fill:#000000;fill-opacity:1;fill-rule:nonzero;stroke:none;stroke-width:21.47336388;stroke-linecap:butt;stroke-linejoin:miter;stroke-miterlimit:4;stroke-dasharray:none;stroke-dashoffset:0;stroke-opacity:1;color-rendering:auto;image-rendering:auto;shape-rendering:auto;text-rendering:auto;enable-background:accumulate"
       d="m 299.93555,-217.24701 c -82.74972,-0.024 -139.59391,33.20154 -172.29102,82.9043 C 94.944534,-84.635574 85.819933,-19.731174 92.966797,44.516656 100.11366,108.7645 123.56219,172.63821 158.18164,221.14557 c 34.61945,48.50736 81.22953,82.29825 134.24414,81.98242 52.98962,-0.31567 99.21984,-34.46173 133.63477,-83.13281 34.41492,-48.67108 57.81903,-112.51917 65.59179,-176.607424 7.77277,-64.08825 -0.0118,-128.65186 -30.20898,-178.162106 -30.19437,-49.50561 -83.70023,-82.75282 -161.50781,-82.47266 z m 0.0156,21.47461 h 0.0215 0.0215 c 71.86073,-0.26454 116.43111,28.42935 143.11524,72.17969 26.68412,43.750336 34.57999,103.765686 27.22656,164.396476 -7.35344,60.630804 -29.8811,121.641674 -61.8086,166.794934 -31.9275,45.15325 -72.45079,73.79584 -116.22851,74.05664 -43.75276,0.26064 -84.56049,-28.03775 -116.63867,-72.98438 C 143.58199,163.72433 121.0537,102.77972 114.3086,42.143616 c -6.7451,-60.63611 2.32575,-120.6793 31.27539,-164.685546 28.94965,-44.00625 77.20159,-73.25829 154.36719,-73.23047 z"
       id="path10-9-9-0-1"
       inkscape:connector-curvature="0" />
    <path
       style="color:#000000;font-style:normal;font-variant:normal;font-weight:normal;font-stretch:normal;font-size:medium;line-height:normal;font-family:sans-serif;font-variant-ligatures:normal;font-variant-position:normal;font-variant-caps:normal;font-variant-numeric:normal;font-variant-alternates:normal;font-feature-settings:normal;text-indent:0;text-align:start;text-decoration:none;text-decoration-line:none;text-decoration-style:solid;text-decoration-color:#000000;letter-spacing:normal;word-spacing:normal;text-transform:none;writing-mode:lr-tb;direction:ltr;text-orientation:mixed;dominant-baseline:auto;baseline-shift:baseline;text-anchor:start;white-space:normal;shape-padding:0;clip-rule:nonzero;display:inline;overflow:visible;visibility:visible;opacity:1;isolation:auto;mix-blend-mode:normal;color-interpolation:sRGB;color-interpolation-filters:linearRGB;solid-color:#000000;solid-opacity:1;vector-effect:none;fill:#000000;fill-opacity:1;fill-rule:nonzero;stroke:none;stroke-width:10.73668194;stroke-linecap:butt;stroke-linejoin:miter;stroke-miterlimit:4;stroke-dasharray:none;stroke-dashoffset:0;stroke-opacity:1;color-rendering:auto;image-rendering:auto;shape-rendering:auto;text-rendering:auto;enable-background:accumulate"
       d="m 288.44922,41.370176 c 0,0 -1.20976,11.95097 -3.21289,24.50391 -1.00157,6.27647 -2.20743,12.70344 -3.50391,17.69726 -0.64824,2.49691 -1.32743,4.6406 -1.93554,6.11914 -0.60812,1.47855 -1.39416,2.25131 -0.83008,1.78125 -1.18809,0.99007 -2.44537,1.81656 -3.10352,4.44922 -0.32907,1.31633 -0.14106,3.27718 0.69922,4.646494 0.84028,1.3693 1.93171,2.03899 2.75781,2.42773 3.3044,1.55497 5.00129,0.95769 7.24805,0.80274 4.49352,-0.30991 9.35937,-1.31055 9.35937,-1.31055 l -2.10546,-10.529304 c 0,0 -2.29398,0.29168 -3.68165,0.51953 0.71179,-1.9086 1.38511,-3.90071 1.98438,-6.20898 1.44885,-5.58072 2.68089,-12.23593 3.71289,-18.70313 2.06401,-12.9344 3.29492,-25.11523 3.29492,-25.11523 z"
       id="path971-3-7-7"
       inkscape:connector-curvature="0" />
    <path
       style="color:#000000;font-style:normal;font-variant:normal;font-weight:normal;font-stretch:normal;font-size:medium;line-height:normal;font-family:sans-serif;font-variant-ligatures:normal;font-variant-position:normal;font-variant-caps:normal;font-variant-numeric:normal;font-variant-alternates:normal;font-feature-settings:normal;text-indent:0;text-align:start;text-decoration:none;text-decoration-line:none;text-decoration-style:solid;text-decoration-color:#000000;letter-spacing:normal;word-spacing:normal;text-transform:none;writing-mode:lr-tb;direction:ltr;text-orientation:mixed;dominant-baseline:auto;baseline-shift:baseline;text-anchor:start;white-space:normal;shape-padding:0;clip-rule:nonzero;display:inline;overflow:visible;visibility:visible;opacity:1;isolation:auto;mix-blend-mode:normal;color-interpolation:sRGB;color-interpolation-filters:linearRGB;solid-color:#000000;solid-opacity:1;vector-effect:none;fill:#000000;fill-opacity:1;fill-rule:nonzero;stroke:none;stroke-width:9.75135612;stroke-linecap:butt;stroke-linejoin:miter;stroke-miterlimit:4;stroke-dasharray:none;stroke-dashoffset:0;stroke-opacity:1;color-rendering:auto;image-rendering:auto;shape-rendering:auto;text-rendering:auto;enable-background:accumulate"
       d="m 149,276.2569 c -0.91213,-0.0412 -1.79616,0.015 -2.63281,0.16406 -6.69323,1.19285 -9.9043,6.71289 -9.9043,6.71289 l -1.01953,1.54492 0.26172,1.83008 c 2.0144,14.101 -4.79556,32.92647 -12.55469,47.88477 -7.48346,14.42686 -15.14452,24.71925 -15.70312,25.4668 -1.35278,0.90958 -2.45282,1.93946 -3.6543,3.24414 -1.63586,1.77637 -3.40192,3.96273 -5.291017,6.45507 -3.778185,4.98468 -8.022655,11.18186 -12.037109,17.26563 -8.028909,12.16754 -15.125,23.88476 -15.125,23.88476 l -0.283203,0.4668 -0.171875,0.51758 C 64.928449,429.5633 47.419424,445.25983 31.099609,456.13971 14.779795,467.01959 0.08789062,473.09479 0.08789062,473.09479 l 3.72265628,9.01367 c 0,0 15.5208111,-6.40449 32.6972651,-17.85547 16.967809,-11.31187 35.934042,-27.55733 43.314454,-48.71289 0.130844,-0.21591 6.957572,-11.48918 14.78125,-23.3457 3.949121,-5.98476 8.120814,-12.06169 11.669924,-16.74414 1.77455,-2.34123 3.39995,-4.33785 4.6914,-5.74024 1.29146,-1.40238 2.56018,-2.19248 2.0293,-1.95117 l 1.12891,-0.51367 0.74804,-0.99023 c 0,0 8.76752,-11.62452 16.93555,-27.3711 2.15045,-4.14569 4.25374,-8.60171 6.1875,-13.21679 l -0.14258,1.71484 c 0,0 1.57981,0.13384 3.3086,0.46484 0.86439,0.1655 1.74438,0.3856 2.32422,0.58789 0.57983,0.2023 0.82133,0.54829 0.26367,-0.0351 l 4.72265,4.9414 3.13477,-6.07422 c 0,0 3.11428,-5.91994 4.46875,-13.02929 0.67723,-3.55468 0.988,-7.51559 -0.0918,-11.5 -1.07979,-3.98441 -3.95597,-7.97368 -8.49804,-10.04883 l -1.89063,4.13867 c 0.23857,-3.11259 0.21978,-6.19938 -0.0586,-9.25195 0.69452,-0.65575 1.59857,-1.38443 2.54296,-1.55274 0.79937,-0.14246 1.64202,-0.20481 3.5254,1.20508 1.85185,1.3863 4.50807,4.47551 7.4375,10.11328 0.27551,0.71999 15.14723,40.01528 -13.08008,74.37891 l -0.45117,0.54883 -0.27539,0.6543 c 0,0 -2.0196,4.78978 -3.92774,10.25976 -0.95407,2.73499 -1.88712,5.64406 -2.54883,8.3418 -0.12883,0.52525 -0.20328,0.99182 -0.32226,1.48633 -2.70713,-0.47257 -5.1396,-1.1173 -8.08399,-1.84571 -4.45816,-1.10289 -10.17377,-1.77023 -19.04492,-0.22265 l 1.67578,9.60742 c 7.82038,-1.36427 11.36051,-0.8251 15.02735,0.082 3.56437,0.88178 7.7162,2.42139 14.18359,2.66016 6.9e-4,2e-5 10e-4,-3e-5 0.002,0 0.002,2.2e-4 5.81685,0.76836 12.80274,2 6.98692,1.23181 15.29902,3.04754 19.20312,4.5957 l 0.91602,0.36328 0.98633,-0.0215 c 0,0 10.90235,-0.21834 23.5957,2.93554 12.59115,3.12849 26.24225,9.50989 32.89062,21.77149 0.36636,0.98518 3.83645,11.3831 -5.81836,19.87695 -10.91906,0.76946 -17.46563,2.49486 -29.28125,-1.09961 l -2.83789,9.33008 c 13.4954,4.10548 22.09704,2.29225 32.25977,1.53125 0.41673,0.50815 0.82575,0.98597 1.36914,1.77734 1.53544,2.23618 3.33504,5.47434 4.43359,9.1543 2.10267,7.04355 2.18368,15.30275 -6.94336,24.375 -9.15107,0.36739 -17.0727,1.28764 -25.2832,-2.25781 l -3.86523,8.95312 c 11.44718,4.94312 21.87349,3.29301 30.98242,3.00391 0.0494,0.0275 0.18128,0.0857 0.45117,0.33594 0.60538,0.56127 1.5006,1.71521 2.30859,3.24609 1.616,3.06177 2.92404,7.59072 3.00586,12.02734 0.0818,4.43663 -0.97783,8.67097 -3.5957,11.97461 -2.61096,3.29493 -6.88305,6.01988 -14.60156,7.01367 -0.0477,0.005 -2.75769,0.28672 -6.48047,0.084 -3.75532,-0.20451 -8.30135,-1.03391 -11.0918,-2.60352 l -4.78125,8.49805 c 5.09103,2.86367 10.80516,3.59474 15.3418,3.8418 2.26777,0.12349 2.58533,6.7e-4 4.03711,-0.0606 0.0255,0.57837 0.11559,0.95534 0.0371,1.73242 -0.29604,2.93132 -1.48212,6.93523 -4.22656,10.83789 -5.48889,7.80533 -17.20531,15.89238 -42.86524,15.05469 l -1.97265,-0.0644 -1.46094,1.32617 c 0,0 -10.70569,9.8289 -30.57617,11.55859 -0.002,1.8e-4 -0.004,-1.7e-4 -0.006,0 -0.0457,0.004 -15.52332,1.2448 -32.97266,0.36524 -8.737547,-0.44044 -17.93735,-1.42655 -25.71875,-3.28711 -7.7814,-1.86056 -14.02076,-4.74006 -16.992188,-7.87891 L 54.240234,582.30963 52.5,582.09479 c 0,0 -18.713736,-2.87639 -31.130859,8.97656 l 6.732421,7.05274 c 7.029913,-6.71051 18.99193,-6.53542 21.97461,-6.39063 5.195278,4.59312 12.24065,7.33519 20.09375,9.21289 8.698251,2.07978 18.382497,3.08358 27.496094,3.54297 18.227194,0.91878 34.279294,-0.38867 34.279294,-0.38867 h 0.0137 l 0.0156,-0.002 c 19.16029,-1.66612 31.14728,-10.02864 34.69922,-12.8125 26.68352,0.42466 41.95086,-8.69954 49.3125,-19.16797 3.76877,-5.35929 5.48982,-10.87927 5.95312,-15.4668 0.1461,-1.44665 -0.0442,-2.65454 -0.14062,-3.92578 6.87882,-1.81776 12.16065,-5.13944 15.61914,-9.50391 4.33105,-5.4656 5.8161,-12.08768 5.70312,-18.21289 -0.11297,-6.12521 -1.73821,-11.86519 -4.13086,-16.39843 -0.98608,-1.8683 -2.14931,-3.47755 -3.47656,-4.9043 8.70381,-10.67396 9.11997,-22.36236 6.54492,-30.98828 -1.47484,-4.94044 -3.75049,-8.98981 -5.73828,-11.88477 -0.30299,-0.44126 -0.52954,-0.66992 -0.8164,-1.05664 11.20479,-12.42807 6.17187,-28.46484 6.17187,-28.46484 l -0.11914,-0.33594 -0.16602,-0.31445 c -8.51926,-16.11252 -25.26902,-23.46285 -39.33984,-26.95899 -13.30983,-3.30705 -24.10393,-3.20636 -25.3125,-3.18945 -5.57759,-2.05058 -13.21432,-3.61962 -20.04687,-4.82422 -4.6654,-0.82252 -6.19135,-0.9972 -8.54883,-1.33398 0.0545,-0.29236 0.0111,-0.2026 0.0859,-0.50782 0.53898,-2.19738 1.392,-4.89079 2.28515,-7.45117 1.70243,-4.8803 3.36557,-8.83395 3.53321,-9.23437 31.11333,-38.71315 14.02343,-83.56836 14.02343,-83.56836 l -0.0937,-0.24414 -0.11914,-0.23243 c -3.41484,-6.65452 -6.78265,-10.9778 -10.41015,-13.69335 -2.72064,-2.03667 -5.71088,-3.04241 -8.44727,-3.16602 z m -4.10742,26.34766 c 0.8018,0.69809 1.3545,1.49086 1.67773,2.68359 0.49051,1.80997 0.43496,4.45245 -0.0742,7.125 -0.44409,2.33094 -1.19921,4.45384 -1.88476,6.27539 -0.53837,-0.12993 -1.10995,-0.32085 -1.61719,-0.41797 -1.18612,-0.2271 -1.41653,-0.21477 -2.21484,-0.31055 1.75461,-5.05463 3.26544,-10.16193 4.11328,-15.35546 z"
       id="path4477-1-8-2"
       inkscape:connector-curvature="0" />
    <path
       style="color:#000000;font-style:normal;font-variant:normal;font-weight:normal;font-stretch:normal;font-size:medium;line-height:normal;font-family:sans-serif;font-variant-ligatures:normal;font-variant-position:normal;font-variant-caps:normal;font-variant-numeric:normal;font-variant-alternates:normal;font-feature-settings:normal;text-indent:0;text-align:start;text-decoration:none;text-decoration-line:none;text-decoration-style:solid;text-decoration-color:#000000;letter-spacing:normal;word-spacing:normal;text-transform:none;writing-mode:lr-tb;direction:ltr;text-orientation:mixed;dominant-baseline:auto;baseline-shift:baseline;text-anchor:start;white-space:normal;shape-padding:0;clip-rule:nonzero;display:inline;overflow:visible;visibility:visible;opacity:1;isolation:auto;mix-blend-mode:normal;color-interpolation:sRGB;color-interpolation-filters:linearRGB;solid-color:#000000;solid-opacity:1;vector-effect:none;fill:#000000;fill-opacity:1;fill-rule:nonzero;stroke:none;stroke-width:9.75135612;stroke-linecap:butt;stroke-linejoin:miter;stroke-miterlimit:4;stroke-dasharray:none;stroke-dashoffset:0;stroke-opacity:1;color-rendering:auto;image-rendering:auto;shape-rendering:auto;text-rendering:auto;enable-background:accumulate"
       d="m 154.28516,416.19245 c 0,0 -3.68907,3.87275 -5.91016,9.59375 -2.22109,5.72099 -2.75099,14.42507 3.66992,21.40429 l 7.17774,-6.60156 c -3.7701,-4.09791 -3.19219,-7.57883 -1.75782,-11.27344 1.43438,-3.69461 3.94922,-6.46875 3.94922,-6.46875 z"
       id="path1186"
       inkscape:connector-curvature="0" />
    <path
       style="color:#000000;font-style:normal;font-variant:normal;font-weight:normal;font-stretch:normal;font-size:medium;line-height:normal;font-family:sans-serif;font-variant-ligatures:normal;font-variant-position:normal;font-variant-caps:normal;font-variant-numeric:normal;font-variant-alternates:normal;font-feature-settings:normal;text-indent:0;text-align:start;text-decoration:none;text-decoration-line:none;text-decoration-style:solid;text-decoration-color:#000000;letter-spacing:normal;word-spacing:normal;text-transform:none;writing-mode:lr-tb;direction:ltr;text-orientation:mixed;dominant-baseline:auto;baseline-shift:baseline;text-anchor:start;white-space:normal;shape-padding:0;clip-rule:nonzero;display:inline;overflow:visible;visibility:visible;opacity:1;isolation:auto;mix-blend-mode:normal;color-interpolation:sRGB;color-interpolation-filters:linearRGB;solid-color:#000000;solid-opacity:1;vector-effect:none;fill:#000000;fill-opacity:1;fill-rule:nonzero;stroke:none;stroke-width:9.75135612;stroke-linecap:butt;stroke-linejoin:miter;stroke-miterlimit:4;stroke-dasharray:none;stroke-dashoffset:0;stroke-opacity:1;color-rendering:auto;image-rendering:auto;shape-rendering:auto;text-rendering:auto;enable-background:accumulate"
       d="m 148.76953,456.0401 c 0,0 -4.64502,5.27887 -7.26953,12.88086 -2.62451,7.60199 -2.98864,18.60865 5.55469,27.52344 l 7.03906,-6.74805 c -5.86896,-6.12414 -5.2935,-12.03672 -3.375,-17.59375 1.9185,-5.55702 5.41992,-9.67773 5.41992,-9.67773 z"
       id="path1188"
       inkscape:connector-curvature="0" />
    <path
       style="color:#000000;font-style:normal;font-variant:normal;font-weight:normal;font-stretch:normal;font-size:medium;line-height:normal;font-family:sans-serif;font-variant-ligatures:normal;font-variant-position:normal;font-variant-caps:normal;font-variant-numeric:normal;font-variant-alternates:normal;font-feature-settings:normal;text-indent:0;text-align:start;text-decoration:none;text-decoration-line:none;text-decoration-style:solid;text-decoration-color:#000000;letter-spacing:normal;word-spacing:normal;text-transform:none;writing-mode:lr-tb;direction:ltr;text-orientation:mixed;dominant-baseline:auto;baseline-shift:baseline;text-anchor:start;white-space:normal;shape-padding:0;clip-rule:nonzero;display:inline;overflow:visible;visibility:visible;opacity:1;isolation:auto;mix-blend-mode:normal;color-interpolation:sRGB;color-interpolation-filters:linearRGB;solid-color:#000000;solid-opacity:1;vector-effect:none;fill:#000000;fill-opacity:1;fill-rule:nonzero;stroke:none;stroke-width:9.75135612;stroke-linecap:butt;stroke-linejoin:miter;stroke-miterlimit:4;stroke-dasharray:none;stroke-dashoffset:0;stroke-opacity:1;color-rendering:auto;image-rendering:auto;shape-rendering:auto;text-rendering:auto;enable-background:accumulate"
       d="m 148.88281,510.01471 c 0,0 -9.37178,16.86118 2.29688,34.89453 l 8.1875,-5.29882 c -9.00989,-13.92436 -2.08985,-24.63477 -2.08985,-24.63477 z"
       id="path1190"
       inkscape:connector-curvature="0" />
    <path
       style="color:#000000;font-style:normal;font-variant:normal;font-weight:normal;font-stretch:normal;font-size:medium;line-height:normal;font-family:sans-serif;font-variant-ligatures:normal;font-variant-position:normal;font-variant-caps:normal;font-variant-numeric:normal;font-variant-alternates:normal;font-feature-settings:normal;text-indent:0;text-align:start;text-decoration:none;text-decoration-line:none;text-decoration-style:solid;text-decoration-color:#000000;letter-spacing:normal;word-spacing:normal;text-transform:none;writing-mode:lr-tb;direction:ltr;text-orientation:mixed;dominant-baseline:auto;baseline-shift:baseline;text-anchor:start;white-space:normal;shape-padding:0;clip-rule:nonzero;display:inline;overflow:visible;visibility:visible;opacity:1;isolation:auto;mix-blend-mode:normal;color-interpolation:sRGB;color-interpolation-filters:linearRGB;solid-color:#000000;solid-opacity:1;vector-effect:none;fill:#000000;fill-opacity:1;fill-rule:nonzero;stroke:none;stroke-width:9.75135612;stroke-linecap:butt;stroke-linejoin:miter;stroke-miterlimit:4;stroke-dasharray:none;stroke-dashoffset:0;stroke-opacity:1;color-rendering:auto;image-rendering:auto;shape-rendering:auto;text-rendering:auto;enable-background:accumulate"
       d="m 157.76367,555.45612 c 0,0 -1.22998,1.11998 -2.125,2.62695 -0.89501,1.50698 -1.77731,3.69286 -2.11328,6.50977 -0.67193,5.6338 0.79894,13.55096 7.2793,24.35156 l 8.36328,-5.01563 c -5.73878,-9.56463 -6.30532,-15.27777 -5.95899,-18.18164 0.17317,-1.45193 0.56393,-2.26176 0.81446,-2.68359 0.25053,-0.42183 0.0391,-0.16211 0.0391,-0.16211 z"
       id="path1192"
       inkscape:connector-curvature="0" />
    <path
       style="color:#000000;font-style:normal;font-variant:normal;font-weight:normal;font-stretch:normal;font-size:medium;line-height:normal;font-family:sans-serif;font-variant-ligatures:normal;font-variant-position:normal;font-variant-caps:normal;font-variant-numeric:normal;font-variant-alternates:normal;font-feature-settings:normal;text-indent:0;text-align:start;text-decoration:none;text-decoration-line:none;text-decoration-style:solid;text-decoration-color:#000000;letter-spacing:normal;word-spacing:normal;text-transform:none;writing-mode:lr-tb;direction:ltr;text-orientation:mixed;dominant-baseline:auto;baseline-shift:baseline;text-anchor:start;white-space:normal;shape-padding:0;clip-rule:nonzero;display:inline;overflow:visible;visibility:visible;opacity:1;isolation:auto;mix-blend-mode:normal;color-interpolation:sRGB;color-interpolation-filters:linearRGB;solid-color:#000000;solid-opacity:1;vector-effect:none;fill:#000000;fill-opacity:1;fill-rule:nonzero;stroke:none;stroke-width:9.75135612;stroke-linecap:butt;stroke-linejoin:miter;stroke-miterlimit:4;stroke-dasharray:none;stroke-dashoffset:0;stroke-opacity:1;color-rendering:auto;image-rendering:auto;shape-rendering:auto;text-rendering:auto;enable-background:accumulate"
       d="m 668.79297,487.23346 c -4.25575,-0.0833 -7.37305,1.70313 -7.37305,1.70313 l -1.6543,0.82812 -0.68945,1.71485 c -5.30597,13.21902 -20.61569,26.11668 -34.81445,35.1914 -13.69715,8.75413 -25.48492,13.83897 -26.33789,14.20508 -1.6246,0.11182 -3.09175,0.45371 -4.78321,0.98242 -2.30488,0.72045 -4.92642,1.72948 -7.80859,2.94336 -5.76434,2.42776 -12.53814,5.67213 -19.05664,8.9336 -13.037,6.52293 -25.04297,13.12304 -25.04297,13.12304 l -0.47656,0.26367 -0.4082,0.36133 c -14.09278,12.49678 -37.10443,17.33531 -56.67774,18.59766 -19.57331,1.26235 -35.33398,-0.82031 -35.33398,-0.82031 l -1.28321,9.66601 c 0,0 16.64341,2.21533 37.24415,0.88672 20.35244,-1.3126 44.90152,-5.90076 61.87109,-20.53516 0.22459,-0.12339 11.76879,-6.46698 24.4707,-12.82226 6.41242,-3.20839 13.06367,-6.38545 18.47852,-8.66602 2.70742,-1.14028 5.11201,-2.05623 6.93164,-2.625 1.81963,-0.56877 3.31479,-0.61932 2.73437,-0.67578 l 1.23438,0.11914 1.14258,-0.48437 c 0,0 13.4065,-5.68339 28.35351,-15.23633 3.93768,-2.51665 7.98606,-5.32723 11.97071,-8.35938 L 640.5,527.95026 c 0,0 1.29918,0.90559 2.63086,2.05664 0.66584,0.57553 1.3197,1.20676 1.7207,1.67187 0.40101,0.46511 0.43537,0.88372 0.24414,0.0996 l 1.61914,6.64258 5.75196,-3.69531 c 0,0 5.65708,-3.56723 10.38476,-9.04688 2.36384,-2.73982 4.61285,-6.01536 5.66992,-10.00585 1.05708,-3.9905 0.56005,-8.883 -2.33593,-12.95118 l -3.70313,2.63672 c 1.76237,-2.57575 3.28934,-5.25887 4.57422,-8.04101 0.92928,-0.22051 2.07693,-0.39855 2.97852,-0.0723 0.7635,0.27631 1.52311,0.64395 2.44922,2.80664 0.9104,2.12605 1.66814,6.12785 1.38671,12.47266 -0.11905,0.74699 -6.88481,42.22807 -48.51953,57.87695 l -0.66406,0.25 -0.56641,0.42969 c 0,0 -4.14376,3.13879 -8.53125,6.92187 -2.19374,1.89154 -4.45502,3.94376 -6.37695,5.94922 -0.37404,0.39031 -0.67328,0.75639 -1.02344,1.125 -2.10773,-1.76259 -3.89269,-3.53593 -6.07812,-5.63867 -3.30944,-3.18423 -7.92444,-6.61951 -16.38086,-9.71484 l -3.35156,9.15625 c 7.45476,2.72869 10.24869,4.96691 12.9707,7.58593 2.64144,2.5415 5.46476,5.94247 10.92773,9.37696 l 0.0254,0.0195 c 0,0 4.65491,3.57257 10.08985,8.13281 5.43494,4.56024 11.72701,10.28922 14.33398,13.58203 l 0.61133,0.77344 0.86328,0.47461 c 0,0 9.55098,5.26184 18.9668,14.33984 9.33939,9.00432 17.97151,21.35498 17.59961,35.29688 -0.1738,1.02875 -2.36363,11.78064 -14.98047,14.30859 -9.8395,-4.79224 -16.37192,-6.57379 -24.80664,-15.59375 l -7.12305,6.66016 c 9.63466,10.30316 17.99215,13.03275 27.17383,17.45508 0.10686,0.64855 0.22195,1.26915 0.29687,2.22656 0.21165,2.70432 0.15031,6.40832 -0.73828,10.14453 -1.70081,7.15132 -5.76039,14.34351 -18.20117,17.63672 -8.10856,-4.25723 -15.42796,-7.42208 -20.76562,-14.59766 l -7.82422,5.82031 c 7.44132,10.0036 17.29339,13.78816 25.32617,18.0918 7.3e-4,3.9e-4 10e-4,0.002 0.002,0.002 0.0289,0.0484 0.11593,0.16574 0.22461,0.51758 0.24364,0.78877 0.44266,2.23506 0.37696,3.96485 -0.1314,3.45956 -1.2627,8.03482 -3.41016,11.91796 -2.14746,3.8832 -5.18455,7.0202 -9.10352,8.5723 -3.90754,1.5476 -8.96835,1.7733 -16.14648,-1.2227 -0.0399,-0.018 -2.53312,-1.1333 -5.6582,-3.1718 -3.14995,-2.05484 -6.67487,-5.04629 -8.30664,-7.80084 l -8.38868,4.9707 c 2.9771,5.02554 7.56188,8.51574 11.36719,10.99804 1.90243,1.241 2.23942,1.292 3.52735,1.9649 -0.26717,0.514 -0.37894,0.8851 -0.83594,1.5195 -1.72204,2.3906 -4.752,5.2659 -9.08008,7.2734 -8.65617,4.0152 -22.84513,5.159 -44.64844,-8.3964 l -1.67578,-1.0411 -1.92969,0.418 c 0,0 -14.18709,3.1598 -32.26172,-5.2793 -8.1e-4,-4e-4 -0.001,0 -0.002,0 -0.0431,-0.02 -14.06737,-6.68415 -28.73828,-16.16998 -7.34672,-4.75021 -14.82029,-10.20309 -20.62891,-15.70508 -5.80861,-5.502 -9.77344,-11.11628 -10.77734,-15.32031 l -0.40625,-1.70508 -1.40039,-1.05664 c 0,0 -14.76723,-11.84936 -31.44727,-7.79297 l 2.30469,9.47656 c 9.44172,-2.29612 19.71152,3.83111 22.22461,5.44922 2.20234,6.57626 6.93216,12.47601 12.79492,18.0293 6.49302,6.15027 14.3781,11.8598 22.04102,16.81445 15.32583,9.90933 29.88086,16.80473 29.88086,16.80473 l 0.0137,0.01 0.0137,0.01 c 17.42337,8.1359 31.98418,6.889 36.45508,6.2539 22.89728,13.7108 40.68108,13.4419 52.29102,8.0566 5.94349,-2.7568 10.19366,-6.6786 12.88867,-10.4199 0.84987,-1.1798 1.28971,-2.3195 1.84179,-3.4687 6.86596,1.865 13.10202,1.6286 18.2793,-0.4219 6.48359,-2.5678 11.08014,-7.5589 14.04492,-12.9199 2.96478,-5.36111 4.42655,-11.1454 4.6211,-16.26762 0.0802,-2.11038 -0.12288,-4.08569 -0.5586,-5.98438 12.87539,-4.89188 19.07918,-14.80644 21.16211,-23.56445 1.19296,-5.01597 1.24665,-9.66112 0.97266,-13.16211 -0.0417,-0.53337 -0.12465,-0.84413 -0.17969,-1.32227 15.9193,-5.15991 19.58008,-21.5664 19.58008,-21.5664 l 0.0645,-0.34961 0.0137,-0.35547 c 0.67836,-18.21348 -10.15222,-32.95443 -20.58984,-43.01758 -9.8743,-9.52003 -19.27503,-14.83143 -20.32812,-15.41992 -3.80507,-4.56457 -9.63452,-9.74182 -14.94922,-14.20117 -3.62873,-3.04472 -4.86104,-3.95921 -6.73438,-5.42969 0.19252,-0.22474 0.1099,-0.16886 0.32617,-0.39453 1.56546,-1.6335 3.6514,-3.54173 5.70508,-5.3125 3.91331,-3.37422 7.32841,-5.96405 7.67578,-6.22852 46.30409,-17.96905 53.93164,-65.36132 53.93164,-65.36132 l 0.041,-0.25782 0.0117,-0.26172 c 0.36992,-7.4704 -0.38424,-12.89895 -2.16797,-17.06445 -1.78373,-4.1655 -4.89924,-6.98187 -8.0957,-8.13867 -1.59824,-0.5784 -3.14197,-0.81405 -4.56055,-0.8418 z m -9.80664,22.7793 c 0.34493,1.00507 0.4257,1.96991 0.10937,3.16406 -0.48019,1.81273 -1.84972,4.07096 -3.62695,6.13086 -1.55009,1.79664 -3.26503,3.25941 -4.76953,4.49414 -0.40138,-0.38182 -0.80058,-0.83406 -1.19141,-1.17187 -0.91401,-0.79005 -1.12013,-0.89483 -1.76367,-1.37696 4.04688,-3.50021 7.9112,-7.16633 11.24219,-11.24023 z"
       id="path4477-1-8-2-3"
       inkscape:connector-curvature="0" />
    <path
       style="color:#000000;font-style:normal;font-variant:normal;font-weight:normal;font-stretch:normal;font-size:medium;line-height:normal;font-family:sans-serif;font-variant-ligatures:normal;font-variant-position:normal;font-variant-caps:normal;font-variant-numeric:normal;font-variant-alternates:normal;font-feature-settings:normal;text-indent:0;text-align:start;text-decoration:none;text-decoration-line:none;text-decoration-style:solid;text-decoration-color:#000000;letter-spacing:normal;word-spacing:normal;text-transform:none;writing-mode:lr-tb;direction:ltr;text-orientation:mixed;dominant-baseline:auto;baseline-shift:baseline;text-anchor:start;white-space:normal;shape-padding:0;clip-rule:nonzero;display:inline;overflow:visible;visibility:visible;opacity:1;isolation:auto;mix-blend-mode:normal;color-interpolation:sRGB;color-interpolation-filters:linearRGB;solid-color:#000000;solid-opacity:1;vector-effect:none;fill:#000000;fill-opacity:1;fill-rule:nonzero;stroke:none;stroke-width:9.75135612;stroke-linecap:butt;stroke-linejoin:miter;stroke-miterlimit:4;stroke-dasharray:none;stroke-dashoffset:0;stroke-opacity:1;color-rendering:auto;image-rendering:auto;shape-rendering:auto;text-rendering:auto;enable-background:accumulate"
       d="m 610.32422,613.07916 c 0,0 -5.13004,1.50954 -9.91406,5.35352 -4.78403,3.84398 -9.59451,11.1184 -7.52344,20.37305 l 9.51562,-2.13086 c -1.21604,-5.43395 1.02573,-8.1582 4.11524,-10.64063 3.08951,-2.48243 6.6543,-3.62695 6.6543,-3.62695 z"
       id="path1186-3"
       inkscape:connector-curvature="0" />
    <path
       style="color:#000000;font-style:normal;font-variant:normal;font-weight:normal;font-stretch:normal;font-size:medium;line-height:normal;font-family:sans-serif;font-variant-ligatures:normal;font-variant-position:normal;font-variant-caps:normal;font-variant-numeric:normal;font-variant-alternates:normal;font-feature-settings:normal;text-indent:0;text-align:start;text-decoration:none;text-decoration-line:none;text-decoration-style:solid;text-decoration-color:#000000;letter-spacing:normal;word-spacing:normal;text-transform:none;writing-mode:lr-tb;direction:ltr;text-orientation:mixed;dominant-baseline:auto;baseline-shift:baseline;text-anchor:start;white-space:normal;shape-padding:0;clip-rule:nonzero;display:inline;overflow:visible;visibility:visible;opacity:1;isolation:auto;mix-blend-mode:normal;color-interpolation:sRGB;color-interpolation-filters:linearRGB;solid-color:#000000;solid-opacity:1;vector-effect:none;fill:#000000;fill-opacity:1;fill-rule:nonzero;stroke:none;stroke-width:9.75135612;stroke-linecap:butt;stroke-linejoin:miter;stroke-miterlimit:4;stroke-dasharray:none;stroke-dashoffset:0;stroke-opacity:1;color-rendering:auto;image-rendering:auto;shape-rendering:auto;text-rendering:auto;enable-background:accumulate"
       d="m 585.625,644.82916 c 0,0 -6.66245,2.25023 -12.73633,7.52149 -6.07388,5.27126 -11.8925,14.61921 -8.95117,26.61133 l 9.4707,-2.32227 c -2.02059,-8.23816 1.43307,-13.07056 5.87305,-16.92383 4.43998,-3.85326 9.53125,-5.66992 9.53125,-5.66992 z"
       id="path1188-3"
       inkscape:connector-curvature="0" />
    <path
       style="color:#000000;font-style:normal;font-variant:normal;font-weight:normal;font-stretch:normal;font-size:medium;line-height:normal;font-family:sans-serif;font-variant-ligatures:normal;font-variant-position:normal;font-variant-caps:normal;font-variant-numeric:normal;font-variant-alternates:normal;font-feature-settings:normal;text-indent:0;text-align:start;text-decoration:none;text-decoration-line:none;text-decoration-style:solid;text-decoration-color:#000000;letter-spacing:normal;word-spacing:normal;text-transform:none;writing-mode:lr-tb;direction:ltr;text-orientation:mixed;dominant-baseline:auto;baseline-shift:baseline;text-anchor:start;white-space:normal;shape-padding:0;clip-rule:nonzero;display:inline;overflow:visible;visibility:visible;opacity:1;isolation:auto;mix-blend-mode:normal;color-interpolation:sRGB;color-interpolation-filters:linearRGB;solid-color:#000000;solid-opacity:1;vector-effect:none;fill:#000000;fill-opacity:1;fill-rule:nonzero;stroke:none;stroke-width:9.75135612;stroke-linecap:butt;stroke-linejoin:miter;stroke-miterlimit:4;stroke-dasharray:none;stroke-dashoffset:0;stroke-opacity:1;color-rendering:auto;image-rendering:auto;shape-rendering:auto;text-rendering:auto;enable-background:accumulate"
       d="m 558.73633,691.62995 c 0,0 -16.5476,9.91558 -15.45899,31.36718 l 9.74024,-0.49414 c -0.84057,-16.56372 10.50781,-22.3789 10.50781,-22.3789 z"
       id="path1190-9"
       inkscape:connector-curvature="0" />
    <path
       style="color:#000000;font-style:normal;font-variant:normal;font-weight:normal;font-stretch:normal;font-size:medium;line-height:normal;font-family:sans-serif;font-variant-ligatures:normal;font-variant-position:normal;font-variant-caps:normal;font-variant-numeric:normal;font-variant-alternates:normal;font-feature-settings:normal;text-indent:0;text-align:start;text-decoration:none;text-decoration-line:none;text-decoration-style:solid;text-decoration-color:#000000;letter-spacing:normal;word-spacing:normal;text-transform:none;writing-mode:lr-tb;direction:ltr;text-orientation:mixed;dominant-baseline:auto;baseline-shift:baseline;text-anchor:start;white-space:normal;shape-padding:0;clip-rule:nonzero;display:inline;overflow:visible;visibility:visible;opacity:1;isolation:auto;mix-blend-mode:normal;color-interpolation:sRGB;color-interpolation-filters:linearRGB;solid-color:#000000;solid-opacity:1;vector-effect:none;fill:#000000;fill-opacity:1;fill-rule:nonzero;stroke:none;stroke-width:9.75135612;stroke-linecap:butt;stroke-linejoin:miter;stroke-miterlimit:4;stroke-dasharray:none;stroke-dashoffset:0;stroke-opacity:1;color-rendering:auto;image-rendering:auto;shape-rendering:auto;text-rendering:auto;enable-background:accumulate"
       d="m 543.70508,735.42487 c 0,0 -1.62375,0.35532 -3.15235,1.21289 -1.52859,0.85757 -3.38652,2.30855 -5.08593,4.58008 -3.39883,4.54305 -6.08294,12.1348 -5.8711,24.7285 l 9.75,-0.1641 c -0.1876,-11.1525 2.17781,-16.38095 3.92969,-18.72261 0.87594,-1.17083 1.61899,-1.67791 2.04688,-1.91797 0.42788,-0.24005 0.11718,-0.12109 0.11718,-0.12109 z"
       id="path1192-8"
       inkscape:connector-curvature="0" />
    <path
       style="color:#000000;font-style:normal;font-variant:normal;font-weight:normal;font-stretch:normal;font-size:medium;line-height:normal;font-family:sans-serif;font-variant-ligatures:normal;font-variant-position:normal;font-variant-caps:normal;font-variant-numeric:normal;font-variant-alternates:normal;font-feature-settings:normal;text-indent:0;text-align:start;text-decoration:none;text-decoration-line:none;text-decoration-style:solid;text-decoration-color:#000000;letter-spacing:normal;word-spacing:normal;text-transform:none;writing-mode:lr-tb;direction:ltr;text-orientation:mixed;dominant-baseline:auto;baseline-shift:baseline;text-anchor:start;white-space:normal;shape-padding:0;clip-rule:nonzero;display:inline;overflow:visible;visibility:visible;opacity:1;isolation:auto;mix-blend-mode:normal;color-interpolation:sRGB;color-interpolation-filters:linearRGB;solid-color:#000000;solid-opacity:1;vector-effect:none;fill:#000000;fill-opacity:1;fill-rule:nonzero;stroke:none;stroke-width:21.47336388;stroke-linecap:butt;stroke-linejoin:miter;stroke-miterlimit:4;stroke-dasharray:none;stroke-dashoffset:0;stroke-opacity:1;color-rendering:auto;image-rendering:auto;shape-rendering:auto;text-rendering:auto;enable-background:accumulate"
       d="m 742.65625,-217.24701 c -82.74972,-0.024 -139.59586,33.20154 -172.29297,82.9043 -32.7,49.707136 -41.8246,114.611536 -34.67773,178.859366 7.14686,64.247844 30.59734,128.121554 65.21679,176.628914 34.61946,48.50736 81.22953,82.29825 134.24414,81.98242 52.98962,-0.31566 99.21789,-34.46173 133.63282,-83.13281 34.41492,-48.67108 57.82098,-112.51917 65.59375,-176.607424 7.77276,-64.08825 -0.0137,-128.65186 -30.21094,-178.162106 -30.19438,-49.50562 -83.69826,-82.75282 -161.50586,-82.47266 z m 0.0137,21.47461 h 0.0215 0.0215 c 71.86074,-0.26455 116.43306,28.42935 143.11719,72.17969 26.68413,43.750336 34.57805,103.765686 27.22461,164.396476 -7.35344,60.630804 -29.88109,121.641674 -61.8086,166.794934 -31.9275,45.15325 -72.45079,73.79585 -116.22851,74.05664 C 691.26488,281.91598 650.4591,253.61759 618.38092,208.67096 586.30274,163.72433 563.7725,102.77972 557.0274,42.143616 c -6.7451,-60.63611 2.32575,-120.6793 31.27539,-164.685546 28.94965,-44.00625 77.20159,-73.2583 154.36719,-73.23047 z"
       id="path10-9-9-0-1-5"
       inkscape:connector-curvature="0" />
    <path
       style="color:#000000;font-style:normal;font-variant:normal;font-weight:normal;font-stretch:normal;font-size:medium;line-height:normal;font-family:sans-serif;font-variant-ligatures:normal;font-variant-position:normal;font-variant-caps:normal;font-variant-numeric:normal;font-variant-alternates:normal;font-feature-settings:normal;text-indent:0;text-align:start;text-decoration:none;text-decoration-line:none;text-decoration-style:solid;text-decoration-color:#000000;letter-spacing:normal;word-spacing:normal;text-transform:none;writing-mode:lr-tb;direction:ltr;text-orientation:mixed;dominant-baseline:auto;baseline-shift:baseline;text-anchor:start;white-space:normal;shape-padding:0;clip-rule:nonzero;display:inline;overflow:visible;visibility:visible;opacity:1;isolation:auto;mix-blend-mode:normal;color-interpolation:sRGB;color-interpolation-filters:linearRGB;solid-color:#000000;solid-opacity:1;vector-effect:none;fill:#000000;fill-opacity:1;fill-rule:nonzero;stroke:none;stroke-width:10.73668194;stroke-linecap:butt;stroke-linejoin:miter;stroke-miterlimit:4;stroke-dasharray:none;stroke-dashoffset:0;stroke-opacity:1;color-rendering:auto;image-rendering:auto;shape-rendering:auto;text-rendering:auto;enable-background:accumulate"
       d="m 731.16992,41.370176 c 0,0 -1.20975,11.95097 -3.21289,24.50391 -1.00157,6.27647 -2.20938,12.70344 -3.50586,17.69726 -0.64824,2.49691 -1.32743,4.6406 -1.93555,6.11914 -0.60811,1.47855 -1.39415,2.25131 -0.83007,1.78125 -1.18809,0.99007 -2.44537,1.81657 -3.10352,4.44922 -0.32908,1.31633 -0.14106,3.27718 0.69922,4.646494 0.84028,1.3693 1.93367,2.03899 2.75977,2.42773 3.30439,1.55497 5.00128,0.95769 7.24804,0.80274 4.49353,-0.30991 9.35938,-1.31055 9.35938,-1.31055 l -2.10547,-10.529304 c 0,0 -2.29531,0.29159 -3.68359,0.51953 0.71178,-1.9086 1.3851,-3.90071 1.98437,-6.20898 1.44885,-5.58072 2.68284,-12.23593 3.71484,-18.70313 2.06401,-12.9344 3.29297,-25.11523 3.29297,-25.11523 z"
       id="path971-3-7-7-3"
       inkscape:connector-curvature="0" />
    <path
       style="color:#000000;font-style:normal;font-variant:normal;font-weight:normal;font-stretch:normal;font-size:medium;line-height:normal;font-family:sans-serif;font-variant-ligatures:normal;font-variant-position:normal;font-variant-caps:normal;font-variant-numeric:normal;font-variant-alternates:normal;font-feature-settings:normal;text-indent:0;text-align:start;text-decoration:none;text-decoration-line:none;text-decoration-style:solid;text-decoration-color:#000000;letter-spacing:normal;word-spacing:normal;text-transform:none;writing-mode:lr-tb;direction:ltr;text-orientation:mixed;dominant-baseline:auto;baseline-shift:baseline;text-anchor:start;white-space:normal;shape-padding:0;clip-rule:nonzero;display:inline;overflow:visible;visibility:visible;opacity:1;isolation:auto;mix-blend-mode:normal;color-interpolation:sRGB;color-interpolation-filters:linearRGB;solid-color:#000000;solid-opacity:1;vector-effect:none;fill:#000000;fill-opacity:1;fill-rule:nonzero;stroke:none;stroke-width:10.00616837;stroke-linecap:butt;stroke-linejoin:miter;stroke-miterlimit:4;stroke-dasharray:none;stroke-dashoffset:0;stroke-opacity:1;color-rendering:auto;image-rendering:auto;shape-rendering:auto;text-rendering:auto;enable-background:accumulate"
       d="m 607.98047,331.68463 -8.26367,5.63086 c 0,0 43.59303,68.95099 2.17578,146.17578 l -18.28125,-10.55468 15.04101,51.19531 47.98633,-17.95508 -15.30078,-7.71875 C 672.66194,419.1882 607.98047,331.68463 607.98047,331.68463 Z m 21.03906,68.29688 c 8.15607,29.30507 10.32165,64.97083 -8.83008,98.14258 l -2.64648,4.58398 4.17773,2.10742 -16.5,6.17383 -4.96093,-16.88672 5.51757,3.18555 2.50196,-4.33203 c 19.40329,-33.60751 23.11975,-66.04883 20.74023,-92.97461 z"
       id="path1256"
       inkscape:connector-curvature="0" />
    <path
       style="color:#000000;font-style:normal;font-variant:normal;font-weight:normal;font-stretch:normal;font-size:medium;line-height:normal;font-family:sans-serif;font-variant-ligatures:normal;font-variant-position:normal;font-variant-caps:normal;font-variant-numeric:normal;font-variant-alternates:normal;font-feature-settings:normal;text-indent:0;text-align:start;text-decoration:none;text-decoration-line:none;text-decoration-style:solid;text-decoration-color:#000000;letter-spacing:normal;word-spacing:normal;text-transform:none;writing-mode:lr-tb;direction:ltr;text-orientation:mixed;dominant-baseline:auto;baseline-shift:baseline;text-anchor:start;white-space:normal;shape-padding:0;clip-rule:nonzero;display:inline;overflow:visible;visibility:visible;opacity:1;isolation:auto;mix-blend-mode:normal;color-interpolation:sRGB;color-interpolation-filters:linearRGB;solid-color:#000000;solid-opacity:1;vector-effect:none;fill:#000000;fill-opacity:1;fill-rule:nonzero;stroke:none;stroke-width:10.00616837;stroke-linecap:butt;stroke-linejoin:miter;stroke-miterlimit:4;stroke-dasharray:none;stroke-dashoffset:0;stroke-opacity:1;color-rendering:auto;image-rendering:auto;shape-rendering:auto;text-rendering:auto;enable-background:accumulate"
       d="m 457.94727,214.48932 -51.69922,55.56445 51.94531,55.41211 -0.25391,-31.94531 h 99.54102 v 31.74805 l 53.40625,-54.33399 -53.89844,-56.16211 v 34.13282 h -99.04101 z m 109.04687,25.1582 29.94336,31.20313 -29.45117,29.96484 V 283.51471 H 447.85352 l 0.041,5.04297 0.0899,11.38867 -28.04493,-29.91797 28.00196,-30.0957 v 18.98047 h 119.05273 z"
       id="path22068"
       inkscape:connector-curvature="0" />
    <path
       inkscape:connector-curvature="0"
       id="path59-17-20"
       d="m 665.45395,-92.378934 c -21.1538,-0.3882 -41.29457,15.02787 -66.79539,45.54279 l 8.24308,6.88852 c 24.83218,-29.71462 42.72323,-41.97866 58.35561,-41.69185 15.63229,0.2869 32.44726,13.28672 54.85037,39.56133 l 8.17435,-6.9689 c -22.94868,-26.91448 -41.67442,-42.94369 -62.82802,-43.33189 z"
       style="color:#000000;font-style:normal;font-variant:normal;font-weight:normal;font-stretch:normal;font-size:medium;line-height:normal;font-family:sans-serif;font-variant-ligatures:normal;font-variant-position:normal;font-variant-caps:normal;font-variant-numeric:normal;font-variant-alternates:normal;font-feature-settings:normal;text-indent:0;text-align:start;text-decoration:none;text-decoration-line:none;text-decoration-style:solid;text-decoration-color:#000000;letter-spacing:normal;word-spacing:normal;text-transform:none;writing-mode:lr-tb;direction:ltr;text-orientation:mixed;dominant-baseline:auto;baseline-shift:baseline;text-anchor:start;white-space:normal;shape-padding:0;clip-rule:nonzero;display:inline;overflow:visible;visibility:visible;opacity:1;isolation:auto;mix-blend-mode:normal;color-interpolation:sRGB;color-interpolation-filters:linearRGB;solid-color:#000000;solid-opacity:1;vector-effect:none;fill:#000000;fill-opacity:1;fill-rule:nonzero;stroke:none;stroke-width:10.74119759;stroke-linecap:butt;stroke-linejoin:miter;stroke-miterlimit:4;stroke-dasharray:none;stroke-dashoffset:0;stroke-opacity:1;color-rendering:auto;image-rendering:auto;shape-rendering:auto;text-rendering:auto;enable-background:accumulate" />
    <path
       inkscape:connector-curvature="0"
       id="path59-1-8-1"
       d="m 664.30588,-17.222094 c -14.4803,-0.52081 -29.62358,5.30238 -47.40749,18.4380902 l 6.3816,8.64019 c 16.67778,-12.3187 29.27258,-16.75429 40.64045,-16.34543 11.36778,0.40884 22.32762,5.78061004 35.4184,15.17108 l 6.26029,-8.72699996 C 691.78463,-9.9548638 678.78611,-16.701384 664.30588,-17.222094 Z"
       style="color:#000000;font-style:normal;font-variant:normal;font-weight:normal;font-stretch:normal;font-size:medium;line-height:normal;font-family:sans-serif;font-variant-ligatures:normal;font-variant-position:normal;font-variant-caps:normal;font-variant-numeric:normal;font-variant-alternates:normal;font-feature-settings:normal;text-indent:0;text-align:start;text-decoration:none;text-decoration-line:none;text-decoration-style:solid;text-decoration-color:#000000;letter-spacing:normal;word-spacing:normal;text-transform:none;writing-mode:lr-tb;direction:ltr;text-orientation:mixed;dominant-baseline:auto;baseline-shift:baseline;text-anchor:start;white-space:normal;shape-padding:0;clip-rule:nonzero;display:inline;overflow:visible;visibility:visible;opacity:1;isolation:auto;mix-blend-mode:normal;color-interpolation:sRGB;color-interpolation-filters:linearRGB;solid-color:#000000;solid-opacity:1;vector-effect:none;fill:#000000;fill-opacity:1;fill-rule:nonzero;stroke:none;stroke-width:10.74119759;stroke-linecap:butt;stroke-linejoin:miter;stroke-miterlimit:4;stroke-dasharray:none;stroke-dashoffset:0;stroke-opacity:1;color-rendering:auto;image-rendering:auto;shape-rendering:auto;text-rendering:auto;enable-background:accumulate" />
    <path
       inkscape:connector-curvature="0"
       id="path59-17-5-2"
       d="m 808.68854,-93.879634 c -21.15352,-0.38821 -41.29431,15.02788 -66.79538,45.54277 l 8.2433,6.88681 c 24.83213,-29.7145 42.72291,-41.97694 58.3553,-41.69005 15.63247,0.28683 32.44744,13.28666 54.85061,39.56127 l 8.17427,-6.96891 c -22.94885,-26.91448 -41.6744,-42.94362 -62.8281,-43.33189 z"
       style="color:#000000;font-style:normal;font-variant:normal;font-weight:normal;font-stretch:normal;font-size:medium;line-height:normal;font-family:sans-serif;font-variant-ligatures:normal;font-variant-position:normal;font-variant-caps:normal;font-variant-numeric:normal;font-variant-alternates:normal;font-feature-settings:normal;text-indent:0;text-align:start;text-decoration:none;text-decoration-line:none;text-decoration-style:solid;text-decoration-color:#000000;letter-spacing:normal;word-spacing:normal;text-transform:none;writing-mode:lr-tb;direction:ltr;text-orientation:mixed;dominant-baseline:auto;baseline-shift:baseline;text-anchor:start;white-space:normal;shape-padding:0;clip-rule:nonzero;display:inline;overflow:visible;visibility:visible;opacity:1;isolation:auto;mix-blend-mode:normal;color-interpolation:sRGB;color-interpolation-filters:linearRGB;solid-color:#000000;solid-opacity:1;vector-effect:none;fill:#000000;fill-opacity:1;fill-rule:nonzero;stroke:none;stroke-width:10.74119759;stroke-linecap:butt;stroke-linejoin:miter;stroke-miterlimit:4;stroke-dasharray:none;stroke-dashoffset:0;stroke-opacity:1;color-rendering:auto;image-rendering:auto;shape-rendering:auto;text-rendering:auto;enable-background:accumulate" />
    <path
       inkscape:connector-curvature="0"
       id="path59-1-8-3-29"
       d="m 807.54066,-18.724544 c -14.48031,-0.52072 -29.62385,5.30419 -47.40776,18.43984024 l 6.38159,8.64016996 c 16.67786,-12.31868 29.27132,-16.7542 40.63902,-16.34543 11.36769,0.40892 22.32905,5.78062 35.41983,15.17111 l 6.26047,-8.72702 C 835.01913,-11.455504 822.02077,-18.203814 807.54066,-18.724544 Z"
       style="color:#000000;font-style:normal;font-variant:normal;font-weight:normal;font-stretch:normal;font-size:medium;line-height:normal;font-family:sans-serif;font-variant-ligatures:normal;font-variant-position:normal;font-variant-caps:normal;font-variant-numeric:normal;font-variant-alternates:normal;font-feature-settings:normal;text-indent:0;text-align:start;text-decoration:none;text-decoration-line:none;text-decoration-style:solid;text-decoration-color:#000000;letter-spacing:normal;word-spacing:normal;text-transform:none;writing-mode:lr-tb;direction:ltr;text-orientation:mixed;dominant-baseline:auto;baseline-shift:baseline;text-anchor:start;white-space:normal;shape-padding:0;clip-rule:nonzero;display:inline;overflow:visible;visibility:visible;opacity:1;isolation:auto;mix-blend-mode:normal;color-interpolation:sRGB;color-interpolation-filters:linearRGB;solid-color:#000000;solid-opacity:1;vector-effect:none;fill:#000000;fill-opacity:1;fill-rule:nonzero;stroke:none;stroke-width:10.74119759;stroke-linecap:butt;stroke-linejoin:miter;stroke-miterlimit:4;stroke-dasharray:none;stroke-dashoffset:0;stroke-opacity:1;color-rendering:auto;image-rendering:auto;shape-rendering:auto;text-rendering:auto;enable-background:accumulate" />
    <path
       inkscape:connector-curvature="0"
       id="path29-2-7"
       d="m 812.09028,153.07624 c -40.88978,40.25385 -76.08936,41.85139 -102.9534,33.36655 -13.43206,-4.24246 -24.7605,-11.21979 -33.18123,-17.62963 -8.42074,-6.40979 -13.69416,-12.00389 -15.9009,-14.19027 l -7.55928,7.63141 c 1.70059,1.685 7.83591,8.16512 16.95368,15.10554 9.11794,6.94042 21.45923,14.58976 36.45353,19.32548 29.98807,9.47158 70.67133,6.42863 113.72385,-35.95464 z"
       style="color:#000000;font-style:normal;font-variant:normal;font-weight:normal;font-stretch:normal;font-size:medium;line-height:normal;font-family:sans-serif;font-variant-ligatures:normal;font-variant-position:normal;font-variant-caps:normal;font-variant-numeric:normal;font-variant-alternates:normal;font-feature-settings:normal;text-indent:0;text-align:start;text-decoration:none;text-decoration-line:none;text-decoration-style:solid;text-decoration-color:#000000;letter-spacing:normal;word-spacing:normal;text-transform:none;writing-mode:lr-tb;direction:ltr;text-orientation:mixed;dominant-baseline:auto;baseline-shift:baseline;text-anchor:start;white-space:normal;shape-padding:0;clip-rule:nonzero;display:inline;overflow:visible;visibility:visible;opacity:1;isolation:auto;mix-blend-mode:normal;color-interpolation:sRGB;color-interpolation-filters:linearRGB;solid-color:#000000;solid-opacity:1;vector-effect:none;fill:#000000;fill-opacity:1;fill-rule:nonzero;stroke:none;stroke-width:10.74119759;stroke-linecap:butt;stroke-linejoin:miter;stroke-miterlimit:4;stroke-dasharray:none;stroke-dashoffset:0;stroke-opacity:1;color-rendering:auto;image-rendering:auto;shape-rendering:auto;text-rendering:auto;enable-background:accumulate" />
    <path
       inkscape:connector-curvature="0"
       id="path59-17-20-4"
       d="m 222.7352,-92.378924 c -21.1538,-0.3882 -41.29457,15.02787 -66.79539,45.54279 l 8.24308,6.88852 c 24.83218,-29.71462 42.72323,-41.97866 58.35561,-41.69185 15.63229,0.2869 32.44726,13.28672 54.85037,39.56133 l 8.17435,-6.9689 c -22.94868,-26.91448 -41.67442,-42.94369 -62.82802,-43.33189 z"
       style="color:#000000;font-style:normal;font-variant:normal;font-weight:normal;font-stretch:normal;font-size:medium;line-height:normal;font-family:sans-serif;font-variant-ligatures:normal;font-variant-position:normal;font-variant-caps:normal;font-variant-numeric:normal;font-variant-alternates:normal;font-feature-settings:normal;text-indent:0;text-align:start;text-decoration:none;text-decoration-line:none;text-decoration-style:solid;text-decoration-color:#000000;letter-spacing:normal;word-spacing:normal;text-transform:none;writing-mode:lr-tb;direction:ltr;text-orientation:mixed;dominant-baseline:auto;baseline-shift:baseline;text-anchor:start;white-space:normal;shape-padding:0;clip-rule:nonzero;display:inline;overflow:visible;visibility:visible;opacity:1;isolation:auto;mix-blend-mode:normal;color-interpolation:sRGB;color-interpolation-filters:linearRGB;solid-color:#000000;solid-opacity:1;vector-effect:none;fill:#000000;fill-opacity:1;fill-rule:nonzero;stroke:none;stroke-width:10.74119759;stroke-linecap:butt;stroke-linejoin:miter;stroke-miterlimit:4;stroke-dasharray:none;stroke-dashoffset:0;stroke-opacity:1;color-rendering:auto;image-rendering:auto;shape-rendering:auto;text-rendering:auto;enable-background:accumulate" />
    <path
       inkscape:connector-curvature="0"
       id="path59-1-8-1-7"
       d="m 221.58713,-17.222094 c -14.4803,-0.52081 -29.62358,5.30238 -47.40749,18.4380902 l 6.3816,8.64019 c 16.67778,-12.3187 29.27258,-16.75429 40.64045,-16.34543 11.36778,0.40884 22.32762,5.78061004 35.4184,15.17108 l 6.26029,-8.72699996 C 249.06588,-9.9548638 236.06736,-16.701384 221.58713,-17.222094 Z"
       style="color:#000000;font-style:normal;font-variant:normal;font-weight:normal;font-stretch:normal;font-size:medium;line-height:normal;font-family:sans-serif;font-variant-ligatures:normal;font-variant-position:normal;font-variant-caps:normal;font-variant-numeric:normal;font-variant-alternates:normal;font-feature-settings:normal;text-indent:0;text-align:start;text-decoration:none;text-decoration-line:none;text-decoration-style:solid;text-decoration-color:#000000;letter-spacing:normal;word-spacing:normal;text-transform:none;writing-mode:lr-tb;direction:ltr;text-orientation:mixed;dominant-baseline:auto;baseline-shift:baseline;text-anchor:start;white-space:normal;shape-padding:0;clip-rule:nonzero;display:inline;overflow:visible;visibility:visible;opacity:1;isolation:auto;mix-blend-mode:normal;color-interpolation:sRGB;color-interpolation-filters:linearRGB;solid-color:#000000;solid-opacity:1;vector-effect:none;fill:#000000;fill-opacity:1;fill-rule:nonzero;stroke:none;stroke-width:10.74119759;stroke-linecap:butt;stroke-linejoin:miter;stroke-miterlimit:4;stroke-dasharray:none;stroke-dashoffset:0;stroke-opacity:1;color-rendering:auto;image-rendering:auto;shape-rendering:auto;text-rendering:auto;enable-background:accumulate" />
    <path
       inkscape:connector-curvature="0"
       id="path59-17-5-2-5"
       d="m 365.96979,-93.879624 c -21.15352,-0.38821 -41.29431,15.02788 -66.79538,45.54277 l 8.2433,6.88681 c 24.83213,-29.7145 42.72291,-41.97694 58.3553,-41.69005 15.63247,0.28683 32.44744,13.28666 54.85061,39.56127 l 8.17427,-6.96891 c -22.94885,-26.91448 -41.6744,-42.94362 -62.8281,-43.33189 z"
       style="color:#000000;font-style:normal;font-variant:normal;font-weight:normal;font-stretch:normal;font-size:medium;line-height:normal;font-family:sans-serif;font-variant-ligatures:normal;font-variant-position:normal;font-variant-caps:normal;font-variant-numeric:normal;font-variant-alternates:normal;font-feature-settings:normal;text-indent:0;text-align:start;text-decoration:none;text-decoration-line:none;text-decoration-style:solid;text-decoration-color:#000000;letter-spacing:normal;word-spacing:normal;text-transform:none;writing-mode:lr-tb;direction:ltr;text-orientation:mixed;dominant-baseline:auto;baseline-shift:baseline;text-anchor:start;white-space:normal;shape-padding:0;clip-rule:nonzero;display:inline;overflow:visible;visibility:visible;opacity:1;isolation:auto;mix-blend-mode:normal;color-interpolation:sRGB;color-interpolation-filters:linearRGB;solid-color:#000000;solid-opacity:1;vector-effect:none;fill:#000000;fill-opacity:1;fill-rule:nonzero;stroke:none;stroke-width:10.74119759;stroke-linecap:butt;stroke-linejoin:miter;stroke-miterlimit:4;stroke-dasharray:none;stroke-dashoffset:0;stroke-opacity:1;color-rendering:auto;image-rendering:auto;shape-rendering:auto;text-rendering:auto;enable-background:accumulate" />
    <path
       inkscape:connector-curvature="0"
       id="path59-1-8-3-29-1"
       d="m 364.82191,-18.724544 c -14.48031,-0.52072 -29.62385,5.30419 -47.40776,18.43984024 l 6.38159,8.64016996 c 16.67786,-12.31868 29.27132,-16.7542 40.63902,-16.34543 11.36769,0.40892 22.32905,5.78062 35.41983,15.17111 l 6.26047,-8.72702 C 392.30038,-11.455504 379.30202,-18.203814 364.82191,-18.724544 Z"
       style="color:#000000;font-style:normal;font-variant:normal;font-weight:normal;font-stretch:normal;font-size:medium;line-height:normal;font-family:sans-serif;font-variant-ligatures:normal;font-variant-position:normal;font-variant-caps:normal;font-variant-numeric:normal;font-variant-alternates:normal;font-feature-settings:normal;text-indent:0;text-align:start;text-decoration:none;text-decoration-line:none;text-decoration-style:solid;text-decoration-color:#000000;letter-spacing:normal;word-spacing:normal;text-transform:none;writing-mode:lr-tb;direction:ltr;text-orientation:mixed;dominant-baseline:auto;baseline-shift:baseline;text-anchor:start;white-space:normal;shape-padding:0;clip-rule:nonzero;display:inline;overflow:visible;visibility:visible;opacity:1;isolation:auto;mix-blend-mode:normal;color-interpolation:sRGB;color-interpolation-filters:linearRGB;solid-color:#000000;solid-opacity:1;vector-effect:none;fill:#000000;fill-opacity:1;fill-rule:nonzero;stroke:none;stroke-width:10.74119759;stroke-linecap:butt;stroke-linejoin:miter;stroke-miterlimit:4;stroke-dasharray:none;stroke-dashoffset:0;stroke-opacity:1;color-rendering:auto;image-rendering:auto;shape-rendering:auto;text-rendering:auto;enable-background:accumulate" />
    <path
       inkscape:connector-curvature="0"
       id="path29-2-7-0"
       d="m 369.37153,153.07624 c -40.88978,40.25385 -76.08936,41.85139 -102.9534,33.36655 -13.43206,-4.24246 -24.7605,-11.21979 -33.18123,-17.62963 -8.42074,-6.40979 -13.69416,-12.00389 -15.9009,-14.19027 l -7.55928,7.63141 c 1.70059,1.685 7.83591,8.16512 16.95368,15.10554 9.11794,6.94042 21.45923,14.58976 36.45353,19.32548 29.98807,9.47158 70.67133,6.42863 113.72385,-35.95464 z"
       style="color:#000000;font-style:normal;font-variant:normal;font-weight:normal;font-stretch:normal;font-size:medium;line-height:normal;font-family:sans-serif;font-variant-ligatures:normal;font-variant-position:normal;font-variant-caps:normal;font-variant-numeric:normal;font-variant-alternates:normal;font-feature-settings:normal;text-indent:0;text-align:start;text-decoration:none;text-decoration-line:none;text-decoration-style:solid;text-decoration-color:#000000;letter-spacing:normal;word-spacing:normal;text-transform:none;writing-mode:lr-tb;direction:ltr;text-orientation:mixed;dominant-baseline:auto;baseline-shift:baseline;text-anchor:start;white-space:normal;shape-padding:0;clip-rule:nonzero;display:inline;overflow:visible;visibility:visible;opacity:1;isolation:auto;mix-blend-mode:normal;color-interpolation:sRGB;color-interpolation-filters:linearRGB;solid-color:#000000;solid-opacity:1;vector-effect:none;fill:#000000;fill-opacity:1;fill-rule:nonzero;stroke:none;stroke-width:10.74119759;stroke-linecap:butt;stroke-linejoin:miter;stroke-miterlimit:4;stroke-dasharray:none;stroke-dashoffset:0;stroke-opacity:1;color-rendering:auto;image-rendering:auto;shape-rendering:auto;text-rendering:auto;enable-background:accumulate" />
    <path
       style="font-style:normal;font-weight:normal;font-size:233.33332825px;line-height:1.25;font-family:sans-serif;letter-spacing:0px;word-spacing:0px;fill:#000000;fill-opacity:1;stroke:none"
       d="M 209.16406 1075.6836 L 209.16406 1097.9004 L 233.31836 1097.9004 L 233.31836 1075.6836 L 209.16406 1075.6836 z M 752.39453 1075.6836 L 752.39453 1097.9004 L 776.54688 1097.9004 L 776.54688 1075.6836 L 752.39453 1075.6836 z M 32 1076.8223 L 32 1246.4688 L 74.837891 1246.4688 C 90.408637 1246.4688 102.94119 1245.4041 112.43555 1243.2773 C 122.00586 1241.1506 130.66471 1237.6953 138.41211 1232.9102 C 149.57747 1225.9983 158.50347 1216.2767 165.1875 1203.7441 C 171.94748 1191.2116 175.32617 1177.2352 175.32617 1161.8164 C 175.32617 1145.3342 172.09874 1131.0927 165.64258 1119.0918 C 159.18642 1107.0909 150.18576 1097.4833 138.64062 1090.2676 C 131.88064 1086.0901 123.60091 1082.8234 113.80273 1080.4688 C 104.08051 1078.0382 90.940972 1076.8223 74.382812 1076.8223 L 32 1076.8223 z M 54.558594 1096.1914 L 75.75 1096.1914 C 86.231771 1096.1914 95.232422 1096.9516 102.75195 1098.4707 C 110.27148 1099.9138 117.37261 1102.5343 124.05664 1106.332 C 133.24718 1111.5729 140.15972 1118.7507 144.79297 1127.8652 C 149.42622 1136.9798 151.74219 1148.1825 151.74219 1161.4746 C 151.74219 1174.6908 149.61675 1185.7049 145.36328 1194.5156 C 141.18576 1203.3264 134.88021 1210.4275 126.44922 1215.8203 C 119.68924 1220.1497 112.24631 1223.112 104.11914 1224.707 C 96.067926 1226.3021 86.611545 1227.0996 75.75 1227.0996 L 54.558594 1227.0996 L 54.558594 1096.1914 z M 667.40039 1115.6738 C 648.8674 1115.6738 633.90495 1121.7888 622.51172 1134.0176 C 611.19444 1146.2463 605.53516 1162.7665 605.53516 1183.5781 C 605.53516 1204.6176 611.45964 1220.8707 623.30859 1232.3398 C 635.15755 1243.7331 651.64041 1249.4297 672.75586 1249.4297 C 681.03494 1249.4297 688.93359 1248.4043 696.45312 1246.3535 C 703.97266 1244.3027 711.34093 1241.7589 718.55664 1238.7207 L 718.55664 1215.3652 L 717.41602 1215.3652 C 713.69423 1218.7072 707.42795 1222.1252 698.61719 1225.6191 C 689.88238 1229.0371 681.1862 1230.7461 672.52734 1230.7461 C 665.99523 1230.7461 659.99414 1229.8346 654.52539 1228.0117 C 649.1326 1226.1888 644.46137 1223.4544 640.51172 1219.8086 C 636.41016 1216.0868 633.18273 1211.339 630.82812 1205.5664 C 628.47352 1199.7179 627.29688 1192.8819 627.29688 1185.0586 L 721.0625 1185.0586 L 721.0625 1173.4375 C 721.0625 1154.9805 716.39128 1140.7389 707.04883 1130.7129 C 697.78234 1120.6868 684.56619 1115.6738 667.40039 1115.6738 z M 318.08398 1116.1289 C 310.41254 1116.1289 302.62782 1116.8125 294.72852 1118.1797 C 286.82921 1119.5469 280.7908 1120.8001 276.61328 1121.9395 L 276.61328 1143.7012 L 277.75195 1143.7012 C 285.11957 1140.8908 292.25998 1138.7635 299.17188 1137.3203 C 306.08377 1135.8012 312.35004 1135.043 317.9707 1135.043 C 322.60395 1135.043 327.04731 1135.3455 331.30078 1135.9531 C 335.55425 1136.5608 339.20009 1137.7394 342.23828 1139.4863 C 345.42839 1141.3092 347.85829 1143.8158 349.5293 1147.0059 C 351.27626 1150.196 352.15039 1154.2209 352.15039 1159.082 L 352.15039 1162.3867 C 339.69379 1162.9944 328.03342 1163.9058 317.17188 1165.1211 C 306.31033 1166.3364 297.00716 1168.6523 289.25977 1172.0703 C 281.58832 1175.4883 275.66385 1180.1968 271.48633 1186.1973 C 267.38477 1192.1217 265.33398 1199.9084 265.33398 1209.5547 C 265.33398 1221.3277 269.32161 1231.0119 277.29688 1238.6074 C 285.27214 1246.2029 294.99371 1250 306.46289 1250 C 312.69119 1250 318.12261 1249.393 322.75586 1248.1777 C 327.38911 1247.0384 331.49067 1245.5946 335.06055 1243.8477 C 338.09874 1242.4805 341.21224 1240.6576 344.40234 1238.3789 C 347.6684 1236.0243 350.25152 1234.2014 352.15039 1232.9102 L 352.15039 1246.4688 L 373.45508 1246.4688 L 373.45508 1160.1074 C 373.45508 1151.9043 372.20182 1145.031 369.69531 1139.4863 C 367.1888 1133.9416 363.54297 1129.4217 358.75781 1125.9277 C 353.8967 1122.3579 348.12348 1119.8513 341.43945 1118.4082 C 334.83138 1116.8891 327.04666 1116.1289 318.08398 1116.1289 z M 861.3125 1116.1289 C 853.64106 1116.1289 845.85634 1116.8125 837.95703 1118.1797 C 830.05773 1119.5469 824.01931 1120.8001 819.8418 1121.9395 L 819.8418 1143.7012 L 820.98047 1143.7012 C 828.34809 1140.8908 835.4885 1138.7635 842.40039 1137.3203 C 849.31228 1135.8012 855.57856 1135.043 861.19922 1135.043 C 865.83247 1135.043 870.27582 1135.3455 874.5293 1135.9531 C 878.78277 1136.5608 882.4286 1137.7394 885.4668 1139.4863 C 888.6569 1141.3092 891.08681 1143.8158 892.75781 1147.0059 C 894.50477 1150.196 895.37891 1154.2209 895.37891 1159.082 L 895.37891 1162.3867 C 882.92231 1162.9944 871.26389 1163.9058 860.40234 1165.1211 C 849.5408 1166.3364 840.23568 1168.6523 832.48828 1172.0703 C 824.81684 1175.4883 818.89236 1180.1968 814.71484 1186.1973 C 810.61328 1192.1217 808.5625 1199.9084 808.5625 1209.5547 C 808.5625 1221.3277 812.55013 1231.0119 820.52539 1238.6074 C 828.50065 1246.2029 838.22222 1250 849.69141 1250 C 855.9197 1250 861.35113 1249.393 865.98438 1248.1777 C 870.61762 1247.0384 874.71918 1245.5946 878.28906 1243.8477 C 881.32726 1242.4805 884.44076 1240.6576 887.63086 1238.3789 C 890.89692 1236.0243 893.48003 1234.2014 895.37891 1232.9102 L 895.37891 1246.4688 L 916.68359 1246.4688 L 916.68359 1160.1074 C 916.68359 1151.9043 915.43034 1145.031 912.92383 1139.4863 C 910.41732 1133.9416 906.77148 1129.4217 901.98633 1125.9277 C 897.12522 1122.3579 891.35395 1119.8513 884.66992 1118.4082 C 878.06185 1116.8891 870.27517 1116.1289 861.3125 1116.1289 z M 210.53125 1119.2051 L 210.53125 1246.4688 L 231.95117 1246.4688 L 231.95117 1119.2051 L 210.53125 1119.2051 z M 414.92578 1119.2051 L 414.92578 1246.4688 L 436.3457 1246.4688 L 436.3457 1156.1191 C 442.04232 1151.4859 447.9668 1147.7261 454.11914 1144.8398 C 460.27148 1141.8776 466.65169 1140.3965 473.25977 1140.3965 C 477.36133 1140.3965 480.89323 1140.587 483.85547 1140.9668 C 486.89366 1141.2706 490.00716 1141.803 493.19727 1142.5625 L 494.33789 1142.5625 L 494.33789 1120.5723 C 490.99588 1120.0406 488.48937 1119.6988 486.81836 1119.5469 C 485.14735 1119.319 482.4503 1119.2051 478.72852 1119.2051 C 471.96853 1119.2051 465.32313 1120.6489 458.79102 1123.5352 C 452.33485 1126.3455 444.85265 1131.168 436.3457 1138.0039 L 436.3457 1119.2051 L 414.92578 1119.2051 z M 514.73047 1119.2051 L 514.73047 1246.4688 L 536.15039 1246.4688 L 536.15039 1156.1191 C 541.84701 1151.4859 547.77148 1147.7261 553.92383 1144.8398 C 560.07617 1141.8776 566.45638 1140.3965 573.06445 1140.3965 C 577.16602 1140.3965 580.69792 1140.587 583.66016 1140.9668 C 586.69835 1141.2706 589.81185 1141.803 593.00195 1142.5625 L 594.14258 1142.5625 L 594.14258 1120.5723 C 590.80056 1120.0406 588.29405 1119.6988 586.62305 1119.5469 C 584.95204 1119.319 582.25499 1119.2051 578.5332 1119.2051 C 571.77322 1119.2051 565.12782 1120.6489 558.5957 1123.5352 C 552.13954 1126.3455 544.65733 1131.168 536.15039 1138.0039 L 536.15039 1119.2051 L 514.73047 1119.2051 z M 753.76172 1119.2051 L 753.76172 1246.4688 L 775.17969 1246.4688 L 775.17969 1119.2051 L 753.76172 1119.2051 z M 666.26172 1133.334 C 677.65495 1133.334 686.12326 1136.4102 691.66797 1142.5625 C 697.28863 1148.7148 700.13694 1157.411 700.21289 1168.6523 L 627.29688 1168.6523 C 628.20833 1158.6263 632.04275 1150.2326 638.80273 1143.4727 C 645.63867 1136.7127 654.79253 1133.334 666.26172 1133.334 z M 352.15039 1179.7031 L 352.15039 1215.1367 C 346.83355 1219.2383 341.06033 1222.7702 334.83203 1225.7324 C 328.60373 1228.6187 321.73047 1230.0625 314.21094 1230.0625 C 305.17231 1230.0625 298.4503 1228.2396 294.04492 1224.5938 C 289.63954 1220.872 287.43555 1215.3639 287.43555 1208.0723 C 287.43555 1201.6161 289.33507 1196.5658 293.13281 1192.9199 C 296.93056 1189.1981 301.90625 1186.4638 308.05859 1184.7168 C 313.22352 1183.2737 320.21072 1182.1717 329.02148 1181.4121 C 337.9082 1180.6526 345.61827 1180.0829 352.15039 1179.7031 z M 895.37891 1179.7031 L 895.37891 1215.1367 C 890.06207 1219.2383 884.28885 1222.7702 878.06055 1225.7324 C 871.83225 1228.6187 864.95898 1230.0625 857.43945 1230.0625 C 848.40082 1230.0625 841.67882 1228.2396 837.27344 1224.5938 C 832.86806 1220.872 830.66602 1215.3639 830.66602 1208.0723 C 830.66602 1201.6161 832.56359 1196.5658 836.36133 1192.9199 C 840.15907 1189.1981 845.13477 1186.4638 851.28711 1184.7168 C 856.45204 1183.2737 863.43924 1182.1717 872.25 1181.4121 C 881.13672 1180.6526 888.84679 1180.0829 895.37891 1179.7031 z "
       transform="translate(0,-217.58335)"
       id="text1006" />
  </g>
</svg>
