<?xml version="1.0" encoding="UTF-8" standalone="no"?>
<!-- Created with Inkscape (http://www.inkscape.org/) -->

<svg
   xmlns:dc="http://purl.org/dc/elements/1.1/"
   xmlns:cc="http://creativecommons.org/ns#"
   xmlns:rdf="http://www.w3.org/1999/02/22-rdf-syntax-ns#"
   xmlns:svg="http://www.w3.org/2000/svg"
   xmlns="http://www.w3.org/2000/svg"
   xmlns:sodipodi="http://sodipodi.sourceforge.net/DTD/sodipodi-0.dtd"
   xmlns:inkscape="http://www.inkscape.org/namespaces/inkscape"
   width="1000"
   height="1250"
   viewBox="0 0 1000 1250"
   version="1.1"
   id="svg2912"
   inkscape:version="0.92.4 (5da689c313, 2019-01-14)"
   sodipodi:docname="Oeste.svg">
  <defs
     id="defs2906" />
  <sodipodi:namedview
     id="base"
     pagecolor="#ffffff"
     bordercolor="#666666"
     borderopacity="1.0"
     inkscape:pageopacity="0.0"
     inkscape:pageshadow="2"
     inkscape:zoom="0.25"
     inkscape:cx="1085.0532"
     inkscape:cy="799.43708"
     inkscape:document-units="px"
     inkscape:current-layer="layer1"
     showgrid="false"
     units="px"
     inkscape:window-width="1366"
     inkscape:window-height="715"
     inkscape:window-x="-8"
     inkscape:window-y="-8"
     inkscape:window-maximized="1" />
  <metadata
     id="metadata2909">
    <rdf:RDF>
      <cc:Work
         rdf:about="">
        <dc:format>image/svg+xml</dc:format>
        <dc:type
           rdf:resource="http://purl.org/dc/dcmitype/StillImage" />
        <dc:title></dc:title>
      </cc:Work>
    </rdf:RDF>
  </metadata>
  <g
     inkscape:label="Camada 1"
     inkscape:groupmode="layer"
     id="layer1"
     transform="translate(0,217.58335)">
    <path
       style="color:#000000;font-style:normal;font-variant:normal;font-weight:normal;font-stretch:normal;font-size:medium;line-height:normal;font-family:sans-serif;font-variant-ligatures:normal;font-variant-position:normal;font-variant-caps:normal;font-variant-numeric:normal;font-variant-alternates:normal;font-feature-settings:normal;text-indent:0;text-align:start;text-decoration:none;text-decoration-line:none;text-decoration-style:solid;text-decoration-color:#000000;letter-spacing:normal;word-spacing:normal;text-transform:none;writing-mode:lr-tb;direction:ltr;text-orientation:mixed;dominant-baseline:auto;baseline-shift:baseline;text-anchor:start;white-space:normal;shape-padding:0;clip-rule:nonzero;display:inline;overflow:visible;visibility:visible;opacity:1;isolation:auto;mix-blend-mode:normal;color-interpolation:sRGB;color-interpolation-filters:linearRGB;solid-color:#000000;solid-opacity:1;vector-effect:none;fill:#000000;fill-opacity:1;fill-rule:nonzero;stroke:none;stroke-width:10.00811195;stroke-linecap:butt;stroke-linejoin:miter;stroke-miterlimit:4;stroke-dasharray:none;stroke-dashoffset:0;stroke-opacity:1;color-rendering:auto;image-rendering:auto;shape-rendering:auto;text-rendering:auto;enable-background:accumulate"
       d="m 365.14258,416.62968 c -2.97129,0.10798 -6.16758,0.3331 -9.57617,0.6543 -13.63436,1.28479 -30.63785,4.13883 -49.02735,7.65235 -36.34923,6.94492 -78.01689,16.45394 -108.29883,21.62109 -5.21527,-1.9084 -10.92955,-1.59916 -16.35546,-0.59375 -6.07845,1.12632 -11.69638,3.14067 -15.65821,5.41211 -4.89534,2.80661 -8.54954,7.62594 -11.61718,11.85742 -2.87011,3.959 -4.6455,7.00357 -4.90235,7.43945 -36.92546,44.22544 -108.636309,130.56997 -109.564452,131.6875 l -40.13671862,19.08594 4.29882812,9.03711 42.1250005,-20.0293 0.705078,-0.84765 c 0,0 73.299384,-88.25769 110.396484,-132.6875 l 0.26758,-0.32227 0.21094,-0.35937 c 0,0 1.95201,-3.33601 4.70312,-7.13086 2.75111,-3.79486 6.61091,-7.97137 8.49023,-9.04883 2.47351,-1.41814 7.54583,-3.33519 12.50391,-4.25391 4.95809,-0.91872 9.86303,-0.65883 11.99805,0.39258 l 1.44922,0.71484 1.59375,-0.26953 c 30.89605,-5.21249 73.16819,-14.90094 109.66992,-21.875 18.25086,-3.48703 35.06182,-6.29029 48.08594,-7.51757 6.51205,-0.61365 12.08601,-0.82464 16.27734,-0.57813 4.19133,0.24651 6.97022,1.19555 7.48633,1.55469 3.01678,2.09927 9.53244,8.64565 16.77148,17.00781 7.23904,8.36216 15.51283,18.67383 23.40821,28.99023 7.89537,10.31641 15.4226,20.64814 21.18359,29.05079 2.8805,4.20132 5.32065,7.92517 7.125,10.88085 1.80435,2.95569 3.00142,5.35874 3.19141,5.90235 0.43575,1.24684 1.21343,7.49591 1.33789,15.03515 0.12445,7.53925 -0.1138,16.8272 -0.59766,26.23047 -0.24,4.66413 -0.69148,8.9041 -1.04883,13.47266 -0.99602,0.11309 -2.14678,0.52787 -3.27344,0.84961 -0.29977,-6.01612 -0.499,-12.30824 -0.97461,-17.57617 -0.8158,-9.03609 -1.56507,-15.86931 -3.50781,-20.58594 -1.6689,-4.05173 -5.40006,-10.33735 -10.63672,-18.53125 -5.23665,-8.1939 -11.87737,-17.95664 -18.91601,-27.58594 -7.03865,-9.62929 -14.46114,-19.11502 -21.32617,-26.78515 -6.86503,-7.67014 -12.71818,-13.52997 -18.76758,-16.19727 -2.05831,-0.90755 -3.53196,-0.87967 -5.44336,-0.91211 -1.9114,-0.0324 -4.11942,0.0816 -6.67774,0.30469 -5.11663,0.44617 -11.60982,1.33897 -19.09179,2.54297 -14.96395,2.408 -33.83967,6.06911 -52.64258,9.92383 -18.80291,3.85471 -37.52262,7.90355 -52.08789,11.07812 -14.56528,3.17457 -25.57328,5.566 -26.92578,5.78906 -5.47741,0.90335 -8.24543,-0.065 -12.6836,-1.05468 -4.43816,-0.9897 -10.34452,-1.7052 -18.36132,0.81445 -18.22203,5.72699 -25.56055,20.83984 -25.56055,20.83984 l 9.01758,4.33985 c 0,0 5.30125,-11.15618 19.54492,-15.63282 6.40444,-2.01288 9.25651,-1.46709 13.18164,-0.59179 3.92513,0.87529 9.12508,2.37483 16.49023,1.16015 3.05187,-0.50334 12.87791,-2.71509 27.42969,-5.88672 14.55178,-3.17162 33.23231,-7.21049 51.96484,-11.05078 18.73254,-3.84028 37.52708,-7.48284 52.22266,-9.84765 7.34779,-1.18241 13.68212,-2.04425 18.3711,-2.45313 2.34448,-0.20444 4.2852,-0.2925 5.63867,-0.26953 1.35346,0.023 2.26215,0.36496 1.57617,0.0625 2.61655,1.15369 8.82664,6.4332 15.3457,13.7168 6.51907,7.2836 13.79897,16.56568 20.70508,26.01367 6.90611,9.44798 13.45123,19.0726 18.5625,27.07031 5.11127,7.99772 8.89169,14.70811 9.81641,16.95313 0.65085,1.58016 2.00466,8.94431 2.79297,17.67578 0.50809,5.62776 0.7483,12.46396 1.05468,19.03906 -3.32024,1.59178 -7.71566,4.16862 -11.95898,9.31055 -5.38237,6.52219 -8.60121,16.86238 -4.76172,29.95312 -4.67329,-1.83651 -8.88465,-3.53982 -9.71484,-3.89843 -0.9065,-1.26598 -4.57514,-6.56208 -6.77344,-15.05665 -2.47805,-9.57551 -2.62659,-21.51065 7.3789,-33.77929 0.009,-0.0109 0.25534,-0.30307 0.61719,-0.65821 0.36849,-0.36165 1.04613,-0.65693 0.25,-0.33789 l -0.0195,-0.0469 7.44922,-9.11914 -10.44531,1.63867 -4.04297,0.53125 c -17.6666,2.22642 -27.91087,-5.5371 -34.48633,-15.22266 -3.38722,-4.98932 -5.61311,-10.50814 -6.79883,-15.10156 -1.18571,-4.59342 -0.99219,-8.55469 -0.99219,-8.55469 0.003,-0.006 -0.0594,-1.73131 0.13476,-4.17968 -3.95329,-0.71195 -5.293,-3.16639 -7.42383,-6.00196 -2.11429,1.58873 -2.20385,3.09076 -2.39844,4.08985 -0.19458,0.99909 -0.21679,1.80276 -0.21679,2.5332 0,0.3068 0.0219,0.2875 0.0332,0.56445 -9.5329,13.78093 -22.84811,21.09119 -35.38476,23.43946 -12.92453,2.42092 -24.68854,-0.78282 -29.85743,-6.14649 l -7.20703,6.94531 c 2.36235,2.45138 5.22426,4.41162 8.40235,5.96875 -1.48651,2.02535 -3.81045,4.69203 -7.79493,7.73438 -9.27408,7.08123 -26.39474,15.49346 -56.50195,18.54687 l 1.00977,9.95704 c 0.65161,-0.0661 1.21841,-0.16929 1.85937,-0.24024 -0.0676,0.64536 -0.17714,1.22097 -0.19922,1.92578 -0.18254,5.82724 1.14635,14.0564 6.45703,24.1836 2.55616,4.87452 7.80526,12.10625 12.99219,19.12695 5.18693,7.0207 10.35282,13.77671 11.63672,15.63477 0.17215,0.24912 0.41037,2.71278 0.94336,7.05273 0.15333,1.24849 0.44712,2.64259 0.8457,4.09375 -1.38569,-0.40226 -1.39443,-0.32092 -2.86523,-0.79102 -3.62716,-1.15931 -7.33825,-2.51082 -10.16211,-3.84179 -2.82387,-1.33098 -4.639,-3.15014 -4.3418,-2.64258 -1.94663,-3.32448 -5.06597,-5.96456 -9.69336,-9.5625 -4.62738,-3.59794 -10.57965,-7.57252 -17.28906,-11.15039 -13.41881,-7.15575 -29.8779,-13.03826 -44.99805,-9.46875 l 2.29883,9.74023 c 10.90803,-2.57512 25.67554,1.99358 37.99024,8.56055 6.15734,3.28348 11.69815,6.98826 15.85546,10.2207 4.15732,3.23244 7.11547,6.57376 7.19922,6.7168 2.13758,3.65057 5.22173,4.99513 8.71289,6.64062 3.49117,1.6455 7.50817,3.08252 11.38086,4.32032 7.74539,2.47559 14.94727,4.12109 14.94727,4.12109 0.80559,-0.02 1.65045,-0.0405 2.46875,-0.0605 18.57096,-5.21581 36.66519,-9.56736 50.41992,-11.72265 6.87737,-1.07765 12.69537,-1.58869 16.68945,-1.45703 1.99705,0.0658 3.5353,0.30904 4.36719,0.5625 0.83189,0.25345 0.73411,0.46876 0.38086,-0.0684 l 8.36133,-5.5 c -0.42432,-0.64517 -0.99882,-1.01163 -1.51953,-1.48243 2.14479,-2.39818 5.23832,-4.9028 9.18164,-7.20507 5.96647,-3.48348 13.44046,-6.54813 20.69726,-9.01172 13.36901,-4.5386 24.78394,-6.80653 26.67578,-7.17578 1.1189,0.48332 5.72275,2.41844 11.7754,4.72656 -2.2847,2.02779 -4.6738,4.3847 -6.90821,7.4707 -6.24042,8.61883 -10.42008,22.17683 -4.05078,38.51563 -2.09511,1.86018 -4.05153,4.15403 -6.31641,7.05273 -2.66273,3.4079 -5.55416,7.39435 -8.36718,11.27149 -2.81302,3.87713 -5.55125,7.649 -7.80664,10.52148 -1.1277,1.43624 -2.13869,2.6494 -2.91602,3.48828 -0.77732,0.83888 -1.50683,1.30899 -1.05469,1.06055 0.23553,-0.12941 -0.945,0.39145 -2.51757,0.87109 -1.57258,0.47964 -3.71813,1.06956 -6.3086,1.73438 -5.18093,1.32964 -12.15449,2.96812 -20.26562,4.78906 -16.22226,3.64187 -37.01514,8.01972 -57.51172,12.23438 -40.99316,8.4293 -80.8086,16.20703 -80.8086,16.20703 l -1.74414,0.34179 -1.13867,1.36328 c 0,0 -6.91474,8.46304 -23.23828,14.10544 -16.32354,5.6423 -41.76776,8.1709 -78.49609,-5.7989 l -1.48828,-0.5644 -1.54102,0.3965 c -23.185027,5.9833 -38.381556,11.2849 -47.863281,15.1386 -9.481725,3.8537 -13.56836,6.4668 -13.56836,6.4668 l 5.460938,8.3867 c 0,0 2.883325,-1.9275 11.875,-5.582 8.775554,-3.5667 23.327103,-8.6096 45.226563,-14.3242 37.68485,13.9531 65.40735,11.6504 83.66406,5.3398 14.89654,-5.149 23.42159,-12.8339 26.30664,-15.7558 1.47182,-0.2877 39.09342,-7.63613 79.36914,-15.91791 20.52788,-4.22109 41.3547,-8.6048 57.6875,-12.27149 8.1664,-1.83334 15.20401,-3.48661 20.56055,-4.86132 2.67827,-0.68736 4.93388,-1.30393 6.74219,-1.85547 1.80831,-0.55154 2.98935,-0.88796 4.41601,-1.67188 1.64959,-0.9064 2.49175,-1.85899 3.57617,-3.02929 1.08443,-1.1703 2.22454,-2.55157 3.44922,-4.11133 2.44937,-3.11954 5.22305,-6.94833 8.03516,-10.82422 2.81211,-3.87589 5.65905,-7.79529 8.15234,-10.98633 2.49286,-3.19049 4.86943,-5.74638 5.61719,-6.32031 4.74126,-3.63743 11.04179,-10.24814 16.83789,-17.07031 2.89805,-3.41109 5.61565,-6.83819 7.81055,-9.9336 2.1949,-3.0954 3.86564,-5.60941 4.80469,-8.41992 1.02924,-3.08042 1.29994,-6.61982 1.60742,-10.01172 0.24162,-2.66549 0.30581,-4.05603 0.35547,-4.94531 1.28138,-1.79226 7.18772,-10.24487 9.98047,-21.10938 2.24822,-8.74567 4.03067,-27.77444 5.01562,-46.91601 0.49248,-9.57079 0.74147,-19.02682 0.61133,-26.91016 -0.13014,-7.88334 -0.34708,-13.73489 -1.89844,-18.17383 -0.80357,-2.29928 -2.14907,-4.6257 -4.0957,-7.81445 -1.94663,-3.18875 -4.46629,-7.02476 -7.41406,-11.32422 -5.89555,-8.59891 -13.50073,-19.03521 -21.49024,-29.47461 -7.98951,-10.4394 -16.35398,-20.87262 -23.78711,-29.45898 -7.43313,-8.58636 -13.62145,-15.19144 -18.62304,-18.67188 -3.49309,-2.43071 -7.59622,-3.03684 -12.61524,-3.33203 -2.50951,-0.14759 -5.25528,-0.1568 -8.22656,-0.0488 z m -9.5957,112.29102 c 1.46006,5.57641 4.03325,11.97334 8.14062,18.02344 6.95401,10.24316 18.89689,19.22218 35.62695,19.86719 -6.39409,12.24749 -6.17783,24.57738 -3.73633,34.01171 1.38966,5.36983 3.42178,9.82206 5.22657,13.20899 -5.50711,1.2463 -13.07491,3.1282 -22.43164,6.30469 -7.65435,2.59855 -15.64682,5.82856 -22.52735,9.8457 -5.80334,3.38823 -10.84021,7.36208 -14.08008,12.43555 -0.44387,-0.028 -0.85314,-0.0883 -1.31445,-0.10352 -5.10514,-0.16829 -11.34042,0.44164 -18.56836,1.57422 -13.62232,2.13454 -30.75978,6.27491 -48.41406,11.1543 -1.99541,-2.71674 -2.55588,-5.07951 -2.87305,-7.66211 -0.39853,-3.24515 0.32034,-7.23079 -2.64453,-11.52149 -1.85309,-2.68178 -6.70382,-8.96722 -11.82031,-15.89258 -5.11649,-6.92536 -10.45609,-14.54498 -12.17774,-17.82812 -4.6047,-8.78093 -5.44543,-15.16418 -5.31835,-19.2207 0.0552,-1.76135 0.26202,-2.79266 0.45507,-3.6211 24.42149,-4.01958 39.97083,-11.6905 49.44922,-18.92773 5.48246,-4.18614 8.93032,-8.18892 10.95899,-11.2793 0.29789,-0.45379 0.37955,-0.78675 0.61914,-1.19727 6.38338,1.22339 13.4384,1.20759 20.64648,-0.14257 12.03511,-2.25433 24.56058,-8.39558 34.78321,-19.0293 z m 95.29882,56.08203 c -0.56639,5.77003 -1.12585,11.01604 -1.72656,14.97461 -0.0363,-4.08078 0.0707,-7.38343 -0.0566,-11.75977 -0.0205,-0.70404 -0.0905,-1.34004 -0.11328,-2.04687 0.66932,-0.48929 1.29846,-0.93215 1.89648,-1.16797 z m -11.7832,4.33203 c 0.27332,9.88062 0.33135,19.45729 0.13086,26.46094 -0.0847,2.95828 -0.23619,5.08768 -0.39453,6.94727 -1.10767,-0.16064 -1.26684,-0.0996 -2.8086,-0.52344 -0.53101,-0.14598 -1.22172,-0.4237 -1.78515,-0.5918 -7.51614,-14.65883 -4.4606,-22.49637 0.0312,-27.93945 1.49567,-1.81241 3.17781,-3.18004 4.82617,-4.35352 z m -7.70508,41.87891 c 0.64696,0.19307 1.3535,0.4839 1.98047,0.65625 1.48325,0.40774 2.78463,0.73296 4.09961,1.01758 -0.0407,0.50868 -0.0247,0.47105 -0.0742,1.01757 -0.28687,3.16465 -0.9211,7.11052 -1.13281,7.74415 -0.17812,0.5331 -1.52168,3.04582 -3.47656,5.80273 -1.95489,2.75691 -4.52311,6.00693 -7.27344,9.24414 -2.75277,3.24009 -5.74265,6.50194 -8.46485,9.27539 -3.33665,-11.3237 -0.12837,-19.25824 4.22266,-25.26758 4.03556,-5.57362 8.23258,-8.33662 10.11914,-9.49023 z"
       id="path4708"
       inkscape:connector-curvature="0"
       sodipodi:nodetypes="csscscccccccccccccscccscscscccccsccccscssccsssccccccccssssccssscscsccccccccccscccccscscccscccccscccccccsccsccccccsccccccsccccccccccssscccccccsccccccsscscccsscscccccsscscsscccccscccssccscccscccsccscccccccccccccccccccccccccc" />
    <path
       style="color:#000000;font-style:normal;font-variant:normal;font-weight:normal;font-stretch:normal;font-size:medium;line-height:normal;font-family:sans-serif;font-variant-ligatures:normal;font-variant-position:normal;font-variant-caps:normal;font-variant-numeric:normal;font-variant-alternates:normal;font-feature-settings:normal;text-indent:0;text-align:start;text-decoration:none;text-decoration-line:none;text-decoration-style:solid;text-decoration-color:#000000;letter-spacing:normal;word-spacing:normal;text-transform:none;writing-mode:lr-tb;direction:ltr;text-orientation:mixed;dominant-baseline:auto;baseline-shift:baseline;text-anchor:start;white-space:normal;shape-padding:0;clip-rule:nonzero;display:inline;overflow:visible;visibility:visible;opacity:1;isolation:auto;mix-blend-mode:normal;color-interpolation:sRGB;color-interpolation-filters:linearRGB;solid-color:#000000;solid-opacity:1;vector-effect:none;fill:#000000;fill-opacity:1;fill-rule:nonzero;stroke:none;stroke-width:23.95938873;stroke-linecap:butt;stroke-linejoin:miter;stroke-miterlimit:4;stroke-dasharray:none;stroke-dashoffset:0;stroke-opacity:1;color-rendering:auto;image-rendering:auto;shape-rendering:auto;text-rendering:auto;enable-background:accumulate"
       d="m 424.94336,-217.19063 c -92.33016,-0.027 -155.75762,37.0429 -192.24024,92.5 -36.48575,55.46189 -46.66762,127.88233 -38.69335,199.56836 7.97427,71.68603 34.14015,142.95488 72.76757,197.07813 38.62743,54.12324 90.63292,91.82501 149.78516,91.47265 59.12438,-0.35223 110.70623,-38.44996 149.10547,-92.75586 38.39924,-54.30589 64.5129,-125.54672 73.18555,-197.05468 8.67264,-71.50797 -0.0138,-143.54685 -33.70704,-198.78907 -33.68986,-55.23673 -93.38832,-92.33171 -180.20312,-92.01953 z m 0.0137,23.95899 h 0.0254 0.0234 c 80.18024,-0.29517 129.91213,31.72164 159.68555,80.53711 29.77342,48.81546 38.58172,115.7775 30.37695,183.42773 -8.20477,67.65023 -33.341,135.72661 -68.96484,186.10742 -35.62385,50.38081 -80.8376,82.33986 -129.6836,82.63086 -48.8181,0.2908 -94.34868,-31.28331 -130.14062,-81.43359 -35.79195,-50.15029 -60.93104,-118.15243 -68.45703,-185.8086 -7.526,-67.65617 2.59526,-134.65097 34.89648,-183.75195 32.30122,-49.10098 86.13903,-81.74009 172.23828,-81.70898 z"
       id="path10-9-5"
       inkscape:connector-curvature="0" />
    <path
       style="color:#000000;font-style:normal;font-variant:normal;font-weight:normal;font-stretch:normal;font-size:medium;line-height:normal;font-family:sans-serif;font-variant-ligatures:normal;font-variant-position:normal;font-variant-caps:normal;font-variant-numeric:normal;font-variant-alternates:normal;font-feature-settings:normal;text-indent:0;text-align:start;text-decoration:none;text-decoration-line:none;text-decoration-style:solid;text-decoration-color:#000000;letter-spacing:normal;word-spacing:normal;text-transform:none;writing-mode:lr-tb;direction:ltr;text-orientation:mixed;dominant-baseline:auto;baseline-shift:baseline;text-anchor:start;white-space:normal;shape-padding:0;clip-rule:nonzero;display:inline;overflow:visible;visibility:visible;opacity:1;isolation:auto;mix-blend-mode:normal;color-interpolation:sRGB;color-interpolation-filters:linearRGB;solid-color:#000000;solid-opacity:1;vector-effect:none;fill:#000000;fill-opacity:1;fill-rule:nonzero;stroke:none;stroke-width:11.97969437;stroke-linecap:butt;stroke-linejoin:miter;stroke-miterlimit:4;stroke-dasharray:none;stroke-dashoffset:0;stroke-opacity:1;color-rendering:auto;image-rendering:auto;shape-rendering:auto;text-rendering:auto;enable-background:accumulate"
       d="m 412.12695,71.36601 c 0,0 -1.35089,13.33353 -3.58593,27.33985 -1.11753,7.00315 -2.46359,14.17603 -3.91016,19.74804 -0.72329,2.78601 -1.48164,5.17838 -2.16016,6.82813 -0.67851,1.64974 -1.55514,2.51081 -0.92578,1.98633 -1.32563,1.10468 -2.72852,2.02742 -3.46289,4.96484 -0.36718,1.46871 -0.15826,3.65769 0.7793,5.18555 0.93756,1.52785 2.15638,2.27327 3.07812,2.70703 3.68698,1.73502 5.58102,1.06937 8.08789,0.89648 5.01376,-0.34578 10.44336,-1.46289 10.44336,-1.46289 l -2.34961,-11.74804 c 0,0 -2.56028,0.32573 -4.10937,0.58007 0.79412,-2.12946 1.54429,-4.35239 2.21289,-6.92773 1.61658,-6.22685 2.995,-13.65318 4.14648,-20.86914 2.30297,-14.43194 3.67383,-28.02344 3.67383,-28.02344 z"
       id="path971-8"
       inkscape:connector-curvature="0" />
    <path
       style="color:#000000;font-style:normal;font-variant:normal;font-weight:normal;font-stretch:normal;font-size:medium;line-height:normal;font-family:sans-serif;font-variant-ligatures:normal;font-variant-position:normal;font-variant-caps:normal;font-variant-numeric:normal;font-variant-alternates:normal;font-feature-settings:normal;text-indent:0;text-align:start;text-decoration:none;text-decoration-line:none;text-decoration-style:solid;text-decoration-color:#000000;letter-spacing:normal;word-spacing:normal;text-transform:none;writing-mode:lr-tb;direction:ltr;text-orientation:mixed;dominant-baseline:auto;baseline-shift:baseline;text-anchor:start;white-space:normal;shape-padding:0;clip-rule:nonzero;display:inline;overflow:visible;visibility:visible;opacity:1;isolation:auto;mix-blend-mode:normal;color-interpolation:sRGB;color-interpolation-filters:linearRGB;solid-color:#000000;solid-opacity:1;vector-effect:none;fill:#000000;fill-opacity:1;fill-rule:nonzero;stroke:none;stroke-width:23.95938873;stroke-linecap:butt;stroke-linejoin:miter;stroke-miterlimit:4;stroke-dasharray:none;stroke-dashoffset:0;stroke-opacity:1;color-rendering:auto;image-rendering:auto;shape-rendering:auto;text-rendering:auto;enable-background:accumulate"
       d="m 885.31641,-217.19063 c -92.33016,-0.027 -155.75763,37.0429 -192.24024,92.5 -36.48576,55.46189 -46.66567,127.88233 -38.6914,199.56836 7.97427,71.68603 34.1382,142.95489 72.76562,197.07813 38.62742,54.12324 90.63292,91.82502 149.78516,91.47265 59.12437,-0.35223 110.70624,-38.44996 149.10545,-92.75586 38.3992,-54.30589 64.5129,-125.54673 73.1856,-197.05468 8.6726,-71.50796 -0.014,-143.54685 -33.7071,-198.78907 -33.6898,-55.23672 -93.38833,-92.33171 -180.20309,-92.01953 z m 0.0137,23.95899 h 0.0254 0.0234 c 80.1802,-0.29518 129.91209,31.72165 159.68559,80.53711 29.7734,48.81546 38.5817,115.77751 30.3769,183.42773 -8.2048,67.65022 -33.3391,135.72466 -68.9629,186.10547 -35.62382,50.38081 -80.83953,82.33986 -129.68553,82.63086 -48.8181,0.2908 -94.34868,-31.28136 -130.14063,-81.43164 -35.79194,-50.15028 -60.92908,-118.15243 -68.45507,-185.8086 -7.526,-67.65616 2.59331,-134.65097 34.89453,-183.75195 32.30122,-49.10098 86.13903,-81.74009 172.23828,-81.70898 z"
       id="path10-9-5-9"
       inkscape:connector-curvature="0" />
    <path
       style="color:#000000;font-style:normal;font-variant:normal;font-weight:normal;font-stretch:normal;font-size:medium;line-height:normal;font-family:sans-serif;font-variant-ligatures:normal;font-variant-position:normal;font-variant-caps:normal;font-variant-numeric:normal;font-variant-alternates:normal;font-feature-settings:normal;text-indent:0;text-align:start;text-decoration:none;text-decoration-line:none;text-decoration-style:solid;text-decoration-color:#000000;letter-spacing:normal;word-spacing:normal;text-transform:none;writing-mode:lr-tb;direction:ltr;text-orientation:mixed;dominant-baseline:auto;baseline-shift:baseline;text-anchor:start;white-space:normal;shape-padding:0;clip-rule:nonzero;display:inline;overflow:visible;visibility:visible;opacity:1;isolation:auto;mix-blend-mode:normal;color-interpolation:sRGB;color-interpolation-filters:linearRGB;solid-color:#000000;solid-opacity:1;vector-effect:none;fill:#000000;fill-opacity:1;fill-rule:nonzero;stroke:none;stroke-width:11.97969437;stroke-linecap:butt;stroke-linejoin:miter;stroke-miterlimit:4;stroke-dasharray:none;stroke-dashoffset:0;stroke-opacity:1;color-rendering:auto;image-rendering:auto;shape-rendering:auto;text-rendering:auto;enable-background:accumulate"
       d="m 872.5,71.36601 c 0,0 -1.35089,13.33353 -3.58594,27.33985 -1.11752,7.00315 -2.46358,14.17603 -3.91015,19.74804 -0.72329,2.78601 -1.48164,5.17838 -2.16016,6.82813 -0.67852,1.64974 -1.55515,2.51081 -0.92578,1.98633 -1.32564,1.10468 -2.72853,2.02741 -3.46289,4.96484 -0.36718,1.46871 -0.15826,3.65575 0.7793,5.18359 0.93755,1.52785 2.15638,2.27523 3.07812,2.70899 3.68697,1.73502 5.58101,1.06937 8.08789,0.89648 5.01376,-0.34577 10.44336,-1.46289 10.44336,-1.46289 l -2.34961,-11.74804 c 0,0 -2.56028,0.32573 -4.10937,0.58007 0.79411,-2.12946 1.54429,-4.35239 2.21289,-6.92773 1.61657,-6.22685 2.995,-13.65318 4.14648,-20.86914 2.30297,-14.43194 3.67383,-28.02344 3.67383,-28.02344 z"
       id="path971-8-5"
       inkscape:connector-curvature="0" />
    <path
       style="color:#000000;font-style:normal;font-variant:normal;font-weight:normal;font-stretch:normal;font-size:medium;line-height:normal;font-family:sans-serif;font-variant-ligatures:normal;font-variant-position:normal;font-variant-caps:normal;font-variant-numeric:normal;font-variant-alternates:normal;font-feature-settings:normal;text-indent:0;text-align:start;text-decoration:none;text-decoration-line:none;text-decoration-style:solid;text-decoration-color:#000000;letter-spacing:normal;word-spacing:normal;text-transform:none;writing-mode:lr-tb;direction:ltr;text-orientation:mixed;dominant-baseline:auto;baseline-shift:baseline;text-anchor:start;white-space:normal;shape-padding:0;clip-rule:nonzero;display:inline;overflow:visible;visibility:visible;opacity:1;isolation:auto;mix-blend-mode:normal;color-interpolation:sRGB;color-interpolation-filters:linearRGB;solid-color:#000000;solid-opacity:1;vector-effect:none;fill:#000000;fill-opacity:1;fill-rule:nonzero;stroke:none;stroke-width:10.00811195;stroke-linecap:butt;stroke-linejoin:miter;stroke-miterlimit:4;stroke-dasharray:none;stroke-dashoffset:0;stroke-opacity:1;color-rendering:auto;image-rendering:auto;shape-rendering:auto;text-rendering:auto;enable-background:accumulate"
       d="m 818.34961,553.87968 v 29.37305 H 569.26367 v 5.00391 46.17578 h 250.63281 v 28.67969 l 68.46485,-54.16407 z m 10.00781,20.60547 43.84375,34.48633 -42.29687,33.46094 V 624.42461 H 579.27148 v -31.16407 h 249.08594 z"
       id="path2904"
       inkscape:connector-curvature="0" />
    <path
       style="color:#000000;font-style:normal;font-variant:normal;font-weight:normal;font-stretch:normal;font-size:medium;line-height:normal;font-family:sans-serif;font-variant-ligatures:normal;font-variant-position:normal;font-variant-caps:normal;font-variant-numeric:normal;font-variant-alternates:normal;font-feature-settings:normal;text-indent:0;text-align:start;text-decoration:none;text-decoration-line:none;text-decoration-style:solid;text-decoration-color:#000000;letter-spacing:normal;word-spacing:normal;text-transform:none;writing-mode:lr-tb;direction:ltr;text-orientation:mixed;dominant-baseline:auto;baseline-shift:baseline;text-anchor:start;white-space:normal;shape-padding:0;clip-rule:nonzero;display:inline;overflow:visible;visibility:visible;opacity:1;isolation:auto;mix-blend-mode:normal;color-interpolation:sRGB;color-interpolation-filters:linearRGB;solid-color:#000000;solid-opacity:1;vector-effect:none;fill:#000000;fill-opacity:1;fill-rule:nonzero;stroke:none;stroke-width:10.00811195;stroke-linecap:butt;stroke-linejoin:miter;stroke-miterlimit:4;stroke-dasharray:none;stroke-dashoffset:0;stroke-opacity:1;color-rendering:auto;image-rendering:auto;shape-rendering:auto;text-rendering:auto;enable-background:accumulate"
       d="m 1250.4403,416.62968 c -2.9713,0.10798 -6.1676,0.3331 -9.5762,0.6543 -13.6344,1.28479 -30.6379,4.13883 -49.0274,7.65235 -36.3492,6.94492 -78.0168,16.45394 -108.2988,21.62109 -5.2153,-1.9084 -10.9295,-1.59916 -16.3554,-0.59375 -6.0785,1.12632 -11.6964,3.14067 -15.6583,5.41211 -4.8953,2.80661 -8.5495,7.62594 -11.6171,11.85742 -2.8701,3.959 -4.6455,7.00357 -4.9024,7.43945 -36.92544,44.22544 -108.63629,130.56997 -109.56443,131.6875 l -40.13672,19.08594 4.29883,9.03711 42.125,-20.0293 0.70508,-0.84765 c 0,0 73.29934,-88.25769 110.39644,-132.6875 l 0.2676,-0.32227 0.211,-0.35937 c 0,0 1.952,-3.33601 4.7031,-7.13086 2.7511,-3.79486 6.6109,-7.97137 8.4902,-9.04883 2.4735,-1.41814 7.5458,-3.33519 12.5039,-4.25391 4.9581,-0.91872 9.863,-0.65883 11.9981,0.39258 l 1.4492,0.71484 1.5937,-0.26953 c 30.8961,-5.21249 73.1682,-14.90094 109.67,-21.875 18.2508,-3.48703 35.0618,-6.29029 48.0859,-7.51757 6.512,-0.61365 12.086,-0.82464 16.2773,-0.57813 4.1914,0.24651 6.9703,1.19555 7.4864,1.55469 3.0167,2.09927 9.5324,8.64565 16.7714,17.00781 7.2391,8.36216 15.5129,18.67383 23.4083,28.99023 7.8953,10.31641 15.4226,20.64814 21.1836,29.05079 2.8805,4.20132 5.3206,7.92517 7.125,10.88085 1.8043,2.95569 3.0014,5.35874 3.1914,5.90235 0.4357,1.24684 1.2134,7.49591 1.3379,15.03515 0.1244,7.53925 -0.1138,16.8272 -0.5977,26.23047 -0.24,4.66413 -0.6915,8.9041 -1.0488,13.47266 -0.9961,0.11309 -2.1468,0.52787 -3.2735,0.84961 -0.2997,-6.01612 -0.499,-12.30824 -0.9746,-17.57617 -0.8158,-9.03609 -1.5651,-15.86931 -3.5078,-20.58594 -1.6689,-4.05173 -5.4001,-10.33735 -10.6367,-18.53125 -5.2367,-8.1939 -11.8774,-17.95664 -18.916,-27.58594 -7.0387,-9.62929 -14.4612,-19.11502 -21.3262,-26.78515 -6.865,-7.67014 -12.7182,-13.52997 -18.7676,-16.19727 -2.0583,-0.90755 -3.5319,-0.87967 -5.4433,-0.91211 -1.9114,-0.0324 -4.1195,0.0816 -6.6778,0.30469 -5.1166,0.44617 -11.6098,1.33897 -19.0918,2.54297 -14.9639,2.408 -33.8396,6.06911 -52.6426,9.92383 -18.8029,3.85471 -37.5226,7.90355 -52.0878,11.07812 -14.5653,3.17457 -25.5733,5.566 -26.9258,5.78906 -5.4774,0.90335 -8.2455,-0.065 -12.6836,-1.05468 -4.4382,-0.9897 -10.3445,-1.7052 -18.3613,0.81445 -18.2221,5.72699 -25.5606,20.83984 -25.5606,20.83984 l 9.0176,4.33985 c 0,0 5.3012,-11.15618 19.5449,-15.63282 6.4044,-2.01288 9.2565,-1.46709 13.1816,-0.59179 3.9252,0.87529 9.1251,2.37483 16.4903,1.16015 3.0518,-0.50334 12.8779,-2.71509 27.4297,-5.88672 14.5517,-3.17162 33.2323,-7.21049 51.9648,-11.05078 18.7325,-3.84028 37.5271,-7.48284 52.2227,-9.84765 7.3478,-1.18241 13.6821,-2.04425 18.3711,-2.45313 2.3444,-0.20444 4.2852,-0.2925 5.6386,-0.26953 1.3535,0.023 2.2622,0.36496 1.5762,0.0625 2.6166,1.15369 8.8266,6.4332 15.3457,13.7168 6.5191,7.2836 13.799,16.56568 20.7051,26.01367 6.9061,9.44798 13.4512,19.0726 18.5625,27.07031 5.1113,7.99772 8.8917,14.70811 9.8164,16.95313 0.6509,1.58016 2.0047,8.94431 2.793,17.67578 0.5081,5.62776 0.7483,12.46396 1.0547,19.03906 -3.3203,1.59178 -7.7157,4.16862 -11.959,9.31055 -5.3824,6.52219 -8.6012,16.86238 -4.7617,29.95312 -4.6733,-1.83651 -8.8847,-3.53982 -9.7149,-3.89843 -0.9065,-1.26598 -4.5751,-6.56208 -6.7734,-15.05665 -2.4781,-9.57551 -2.6266,-21.51065 7.3789,-33.77929 0.01,-0.0109 0.2553,-0.30307 0.6172,-0.65821 0.3684,-0.36165 1.0461,-0.65693 0.25,-0.33789 l -0.02,-0.0469 7.4492,-9.11914 -10.4453,1.63867 -4.043,0.53125 c -17.6666,2.22642 -27.9109,-5.5371 -34.4863,-15.22266 -3.3873,-4.98932 -5.6131,-10.50814 -6.7989,-15.10156 -1.1857,-4.59342 -0.9922,-8.55469 -0.9922,-8.55469 0,-0.006 -0.059,-1.73131 0.1348,-4.17968 -3.9533,-0.71195 -5.293,-3.16639 -7.4238,-6.00196 -2.1143,1.58873 -2.2039,3.09076 -2.3985,4.08985 -0.1945,0.99909 -0.2168,1.80276 -0.2168,2.5332 0,0.3068 0.022,0.2875 0.033,0.56445 -9.5329,13.78093 -22.8481,21.09119 -35.3847,23.43946 -12.9245,2.42092 -24.6886,-0.78282 -29.8574,-6.14649 l -7.2071,6.94531 c 2.3624,2.45138 5.2243,4.41162 8.4024,5.96875 -1.4865,2.02535 -3.8105,4.69203 -7.795,7.73438 -9.274,7.08123 -26.3947,15.49346 -56.5019,18.54687 l 1.0098,9.95704 c 0.6516,-0.0661 1.2184,-0.16929 1.8593,-0.24024 -0.068,0.64536 -0.1771,1.22097 -0.1992,1.92578 -0.1825,5.82724 1.1464,14.0564 6.457,24.1836 2.5562,4.87452 7.8053,12.10625 12.9922,19.12695 5.187,7.0207 10.3529,13.77671 11.6368,15.63477 0.1721,0.24912 0.4103,2.71278 0.9433,7.05273 0.1533,1.24849 0.4471,2.64259 0.8457,4.09375 -1.3857,-0.40226 -1.3944,-0.32092 -2.8652,-0.79102 -3.6272,-1.15931 -7.3383,-2.51082 -10.1621,-3.84179 -2.8239,-1.33098 -4.639,-3.15014 -4.3418,-2.64258 -1.9467,-3.32448 -5.066,-5.96456 -9.6934,-9.5625 -4.6274,-3.59794 -10.5796,-7.57252 -17.289,-11.15039 -13.4189,-7.15575 -29.8779,-13.03826 -44.9981,-9.46875 l 2.2988,9.74023 c 10.9081,-2.57512 25.6756,1.99358 37.9903,8.56055 6.1573,3.28348 11.6981,6.98826 15.8554,10.2207 4.1574,3.23244 7.1155,6.57376 7.1993,6.7168 2.1375,3.65057 5.2217,4.99513 8.7128,6.64062 3.4912,1.6455 7.5082,3.08252 11.3809,4.32032 7.7454,2.47559 14.9473,4.12109 14.9473,4.12109 0.8056,-0.02 1.6504,-0.0405 2.4687,-0.0605 18.571,-5.21581 36.6652,-9.56736 50.4199,-11.72265 6.8774,-1.07765 12.6954,-1.58869 16.6895,-1.45703 1.997,0.0658 3.5353,0.30904 4.3672,0.5625 0.8319,0.25345 0.7341,0.46876 0.3808,-0.0684 l 8.3614,-5.5 c -0.4243,-0.64517 -0.9988,-1.01163 -1.5196,-1.48243 2.1448,-2.39818 5.2384,-4.9028 9.1817,-7.20507 5.9665,-3.48348 13.4404,-6.54813 20.6972,-9.01172 13.3691,-4.5386 24.784,-6.80653 26.6758,-7.17578 1.1189,0.48332 5.7228,2.41844 11.7754,4.72656 -2.2847,2.02779 -4.6738,4.3847 -6.9082,7.4707 -6.2404,8.61883 -10.4201,22.17683 -4.0508,38.51563 -2.0951,1.86018 -4.0515,4.15403 -6.3164,7.05273 -2.6627,3.4079 -5.5541,7.39435 -8.3672,11.27149 -2.813,3.87713 -5.5512,7.649 -7.8066,10.52148 -1.1277,1.43624 -2.1387,2.6494 -2.916,3.48828 -0.7773,0.83888 -1.5068,1.30899 -1.0547,1.06055 0.2355,-0.12941 -0.945,0.39145 -2.5176,0.87109 -1.5726,0.47964 -3.7181,1.06956 -6.3086,1.73438 -5.1809,1.32964 -12.1545,2.96812 -20.2656,4.78906 -16.2223,3.64187 -37.0151,8.01972 -57.5117,12.23438 -40.9932,8.4293 -80.8086,16.20703 -80.8086,16.20703 l -1.7442,0.34179 -1.1386,1.36328 c 0,0 -6.9148,8.46304 -23.2383,14.10544 -16.3235,5.6423 -41.7678,8.1709 -78.49609,-5.7989 l -1.48828,-0.5644 -1.54102,0.3965 c -23.18503,5.9833 -38.38156,11.2849 -47.86328,15.1386 -9.48173,3.8537 -13.56836,6.4668 -13.56836,6.4668 l 5.46094,8.3867 c 0,0 2.88332,-1.9275 11.875,-5.582 8.77555,-3.5667 23.3271,-8.6096 45.22656,-14.3242 37.68483,13.9531 65.40733,11.6504 83.66403,5.3398 14.8966,-5.149 23.4216,-12.8339 26.3067,-15.7558 1.4718,-0.2877 39.0934,-7.63613 79.3691,-15.91791 20.5279,-4.22109 41.3547,-8.6048 57.6875,-12.27149 8.1664,-1.83334 15.204,-3.48661 20.5606,-4.86132 2.6782,-0.68736 4.9338,-1.30393 6.7421,-1.85547 1.8084,-0.55154 2.9894,-0.88796 4.4161,-1.67188 1.6495,-0.9064 2.4917,-1.85899 3.5761,-3.02929 1.0845,-1.1703 2.2246,-2.55157 3.4492,-4.11133 2.4494,-3.11954 5.2231,-6.94833 8.0352,-10.82422 2.8121,-3.87589 5.6591,-7.79529 8.1523,-10.98633 2.4929,-3.19049 4.8695,-5.74638 5.6172,-6.32031 4.7413,-3.63743 11.0418,-10.24814 16.8379,-17.07031 2.8981,-3.41109 5.6157,-6.83819 7.8106,-9.9336 2.1949,-3.0954 3.8656,-5.60941 4.8047,-8.41992 1.0292,-3.08042 1.2999,-6.61982 1.6074,-10.01172 0.2416,-2.66549 0.3058,-4.05603 0.3555,-4.94531 1.2813,-1.79226 7.1877,-10.24487 9.9804,-21.10938 2.2483,-8.74567 4.0307,-27.77444 5.0157,-46.91601 0.4924,-9.57079 0.7414,-19.02682 0.6113,-26.91016 -0.1302,-7.88334 -0.3471,-13.73489 -1.8985,-18.17383 -0.8035,-2.29928 -2.149,-4.6257 -4.0957,-7.81445 -1.9466,-3.18875 -4.4662,-7.02476 -7.414,-11.32422 -5.8956,-8.59891 -13.5007,-19.03521 -21.4903,-29.47461 -7.9895,-10.4394 -16.3539,-20.87262 -23.7871,-29.45898 -7.4331,-8.58636 -13.6214,-15.19144 -18.623,-18.67188 -3.4931,-2.43071 -7.5962,-3.03684 -12.6153,-3.33203 -2.5095,-0.14759 -5.2552,-0.1568 -8.2265,-0.0488 z m -9.5957,112.29102 c 1.46,5.57641 4.0332,11.97334 8.1406,18.02344 6.954,10.24316 18.8969,19.22218 35.6269,19.86719 -6.3941,12.24749 -6.1778,24.57738 -3.7363,34.01171 1.3897,5.36983 3.4218,9.82206 5.2266,13.20899 -5.5071,1.2463 -13.0749,3.1282 -22.4317,6.30469 -7.6543,2.59855 -15.6468,5.82856 -22.5273,9.8457 -5.8034,3.38823 -10.8402,7.36208 -14.0801,12.43555 -0.4439,-0.028 -0.8531,-0.0883 -1.3144,-0.10352 -5.1052,-0.16829 -11.3405,0.44164 -18.5684,1.57422 -13.6223,2.13454 -30.7598,6.27491 -48.4141,11.1543 -1.9954,-2.71674 -2.5558,-5.07951 -2.873,-7.66211 -0.3985,-3.24515 0.3203,-7.23079 -2.6445,-11.52149 -1.8531,-2.68178 -6.7039,-8.96722 -11.8204,-15.89258 -5.1164,-6.92536 -10.456,-14.54498 -12.1777,-17.82812 -4.6047,-8.78093 -5.4454,-15.16418 -5.3183,-19.2207 0.055,-1.76135 0.262,-2.79266 0.455,-3.6211 24.4215,-4.01958 39.9709,-11.6905 49.4492,-18.92773 5.4825,-4.18614 8.9304,-8.18892 10.959,-11.2793 0.2979,-0.45379 0.3796,-0.78675 0.6192,-1.19727 6.3834,1.22339 13.4384,1.20759 20.6465,-0.14257 12.0351,-2.25433 24.5605,-8.39558 34.7832,-19.0293 z m 95.2988,56.08203 c -0.5664,5.77003 -1.1259,11.01604 -1.7266,14.97461 -0.036,-4.08078 0.071,-7.38343 -0.057,-11.75977 -0.021,-0.70404 -0.091,-1.34004 -0.1132,-2.04687 0.6693,-0.48929 1.2984,-0.93215 1.8964,-1.16797 z m -11.7832,4.33203 c 0.2733,9.88062 0.3313,19.45729 0.1309,26.46094 -0.085,2.95828 -0.2362,5.08768 -0.3946,6.94727 -1.1076,-0.16064 -1.2668,-0.0996 -2.8086,-0.52344 -0.531,-0.14598 -1.2217,-0.4237 -1.7851,-0.5918 -7.5162,-14.65883 -4.4606,-22.49637 0.031,-27.93945 1.4956,-1.81241 3.1778,-3.18004 4.8261,-4.35352 z m -7.7051,41.87891 c 0.647,0.19307 1.3535,0.4839 1.9805,0.65625 1.4832,0.40774 2.7846,0.73296 4.0996,1.01758 -0.041,0.50868 -0.025,0.47105 -0.074,1.01757 -0.2869,3.16465 -0.9211,7.11052 -1.1328,7.74415 -0.1781,0.5331 -1.5217,3.04582 -3.4766,5.80273 -1.9549,2.75691 -4.5231,6.00693 -7.2734,9.24414 -2.7528,3.24009 -5.7427,6.50194 -8.4649,9.27539 -3.3366,-11.3237 -0.1283,-19.25824 4.2227,-25.26758 4.0356,-5.57362 8.2326,-8.33662 10.1191,-9.49023 z"
       id="path4708-7"
       inkscape:connector-curvature="0"
       sodipodi:nodetypes="csscscccccccccccccscccscscscccccsccccscssccsssccccccccssssccssscscsccccccccccscccccscscccscccccscccccccsccsccccccsccccccsccccccccccssscccccccsccccccsscscccsscscccccsscscsscccccscccssccscccscccsccscccccccccccccccccccccccccc" />
    <path
       inkscape:connector-curvature="0"
       id="path59-17-20"
       d="m 799.57565,-76.56162 c -23.45267,-0.4304 -45.78212,16.66097 -74.05419,50.49199 l 9.1389,7.63709 c 27.5307,-32.94375 47.36593,-46.54053 64.6971,-46.22255 17.33107,0.31808 35.97334,14.73062 60.8111,43.86052 l 9.06269,-7.72621 c -25.44257,-29.83932 -46.20326,-47.61044 -69.6556,-48.04084 z"
       style="color:#000000;font-style:normal;font-variant:normal;font-weight:normal;font-stretch:normal;font-size:medium;line-height:normal;font-family:sans-serif;font-variant-ligatures:normal;font-variant-position:normal;font-variant-caps:normal;font-variant-numeric:normal;font-variant-alternates:normal;font-feature-settings:normal;text-indent:0;text-align:start;text-decoration:none;text-decoration-line:none;text-decoration-style:solid;text-decoration-color:#000000;letter-spacing:normal;word-spacing:normal;text-transform:none;writing-mode:lr-tb;direction:ltr;text-orientation:mixed;dominant-baseline:auto;baseline-shift:baseline;text-anchor:start;white-space:normal;shape-padding:0;clip-rule:nonzero;display:inline;overflow:visible;visibility:visible;opacity:1;isolation:auto;mix-blend-mode:normal;color-interpolation:sRGB;color-interpolation-filters:linearRGB;solid-color:#000000;solid-opacity:1;vector-effect:none;fill:#000000;fill-opacity:1;fill-rule:nonzero;stroke:none;stroke-width:11.90845871;stroke-linecap:butt;stroke-linejoin:miter;stroke-miterlimit:4;stroke-dasharray:none;stroke-dashoffset:0;stroke-opacity:1;color-rendering:auto;image-rendering:auto;shape-rendering:auto;text-rendering:auto;enable-background:accumulate" />
    <path
       inkscape:connector-curvature="0"
       id="path59-1-8-1"
       d="m 798.30271,6.7626 c -16.05384,-0.5774 -32.84275,5.87861 -52.55929,20.44182 l 7.07516,9.57909 c 18.49017,-13.65736 32.45358,-18.57498 45.05685,-18.12171 12.60318,0.45328 24.75398,6.40882 39.26735,16.81977 l 6.94061,-9.6754 C 828.76766,14.81957 814.35655,7.33992 798.30271,6.7626 Z"
       style="color:#000000;font-style:normal;font-variant:normal;font-weight:normal;font-stretch:normal;font-size:medium;line-height:normal;font-family:sans-serif;font-variant-ligatures:normal;font-variant-position:normal;font-variant-caps:normal;font-variant-numeric:normal;font-variant-alternates:normal;font-feature-settings:normal;text-indent:0;text-align:start;text-decoration:none;text-decoration-line:none;text-decoration-style:solid;text-decoration-color:#000000;letter-spacing:normal;word-spacing:normal;text-transform:none;writing-mode:lr-tb;direction:ltr;text-orientation:mixed;dominant-baseline:auto;baseline-shift:baseline;text-anchor:start;white-space:normal;shape-padding:0;clip-rule:nonzero;display:inline;overflow:visible;visibility:visible;opacity:1;isolation:auto;mix-blend-mode:normal;color-interpolation:sRGB;color-interpolation-filters:linearRGB;solid-color:#000000;solid-opacity:1;vector-effect:none;fill:#000000;fill-opacity:1;fill-rule:nonzero;stroke:none;stroke-width:11.90845871;stroke-linecap:butt;stroke-linejoin:miter;stroke-miterlimit:4;stroke-dasharray:none;stroke-dashoffset:0;stroke-opacity:1;color-rendering:auto;image-rendering:auto;shape-rendering:auto;text-rendering:auto;enable-background:accumulate" />
    <path
       inkscape:connector-curvature="0"
       id="path59-17-5-2"
       d="m 958.37572,-78.2254 c -23.45242,-0.4304 -45.78186,16.66096 -74.05417,50.49198 l 9.13914,7.6352 c 27.53069,-32.94361 47.36562,-46.53864 64.69688,-46.22057 17.33119,0.318 35.97342,14.73053 60.81133,43.86044 l 9.0626,-7.72622 c -25.4429,-29.83932 -46.20323,-47.61036 -69.65578,-48.04083 z"
       style="color:#000000;font-style:normal;font-variant:normal;font-weight:normal;font-stretch:normal;font-size:medium;line-height:normal;font-family:sans-serif;font-variant-ligatures:normal;font-variant-position:normal;font-variant-caps:normal;font-variant-numeric:normal;font-variant-alternates:normal;font-feature-settings:normal;text-indent:0;text-align:start;text-decoration:none;text-decoration-line:none;text-decoration-style:solid;text-decoration-color:#000000;letter-spacing:normal;word-spacing:normal;text-transform:none;writing-mode:lr-tb;direction:ltr;text-orientation:mixed;dominant-baseline:auto;baseline-shift:baseline;text-anchor:start;white-space:normal;shape-padding:0;clip-rule:nonzero;display:inline;overflow:visible;visibility:visible;opacity:1;isolation:auto;mix-blend-mode:normal;color-interpolation:sRGB;color-interpolation-filters:linearRGB;solid-color:#000000;solid-opacity:1;vector-effect:none;fill:#000000;fill-opacity:1;fill-rule:nonzero;stroke:none;stroke-width:11.90845871;stroke-linecap:butt;stroke-linejoin:miter;stroke-miterlimit:4;stroke-dasharray:none;stroke-dashoffset:0;stroke-opacity:1;color-rendering:auto;image-rendering:auto;shape-rendering:auto;text-rendering:auto;enable-background:accumulate" />
    <path
       inkscape:connector-curvature="0"
       id="path59-1-8-3-29"
       d="M 957.10307,5.09691 C 941.04921,4.51959 924.25996,10.9775 904.54342,25.54063 l 7.07517,9.57909 c 18.49025,-13.65736 32.45222,-18.57489 45.05521,-18.1217 12.60307,0.45335 24.75564,6.40881 39.26898,16.81976 l 6.94082,-9.6754 C 987.56761,13.15587 973.15681,5.67422 957.10307,5.09691 Z"
       style="color:#000000;font-style:normal;font-variant:normal;font-weight:normal;font-stretch:normal;font-size:medium;line-height:normal;font-family:sans-serif;font-variant-ligatures:normal;font-variant-position:normal;font-variant-caps:normal;font-variant-numeric:normal;font-variant-alternates:normal;font-feature-settings:normal;text-indent:0;text-align:start;text-decoration:none;text-decoration-line:none;text-decoration-style:solid;text-decoration-color:#000000;letter-spacing:normal;word-spacing:normal;text-transform:none;writing-mode:lr-tb;direction:ltr;text-orientation:mixed;dominant-baseline:auto;baseline-shift:baseline;text-anchor:start;white-space:normal;shape-padding:0;clip-rule:nonzero;display:inline;overflow:visible;visibility:visible;opacity:1;isolation:auto;mix-blend-mode:normal;color-interpolation:sRGB;color-interpolation-filters:linearRGB;solid-color:#000000;solid-opacity:1;vector-effect:none;fill:#000000;fill-opacity:1;fill-rule:nonzero;stroke:none;stroke-width:11.90845871;stroke-linecap:butt;stroke-linejoin:miter;stroke-miterlimit:4;stroke-dasharray:none;stroke-dashoffset:0;stroke-opacity:1;color-rendering:auto;image-rendering:auto;shape-rendering:auto;text-rendering:auto;enable-background:accumulate" />
    <path
       inkscape:connector-curvature="0"
       id="path29-2-7"
       d="m 962.1472,195.56749 c -45.33341,44.6283 -84.35819,46.39946 -114.14154,36.99254 -14.8918,-4.70349 -27.4513,-12.43904 -36.7871,-19.54547 -9.33589,-7.10634 -15.1823,-13.30836 -17.62891,-15.73234 l -8.38078,8.46075 c 1.88547,1.86811 8.68745,9.05241 18.79612,16.74707 10.10874,7.69465 23.79114,16.17524 40.41496,21.4256 33.24693,10.50088 78.35121,7.12723 126.08233,-39.86189 z"
       style="color:#000000;font-style:normal;font-variant:normal;font-weight:normal;font-stretch:normal;font-size:medium;line-height:normal;font-family:sans-serif;font-variant-ligatures:normal;font-variant-position:normal;font-variant-caps:normal;font-variant-numeric:normal;font-variant-alternates:normal;font-feature-settings:normal;text-indent:0;text-align:start;text-decoration:none;text-decoration-line:none;text-decoration-style:solid;text-decoration-color:#000000;letter-spacing:normal;word-spacing:normal;text-transform:none;writing-mode:lr-tb;direction:ltr;text-orientation:mixed;dominant-baseline:auto;baseline-shift:baseline;text-anchor:start;white-space:normal;shape-padding:0;clip-rule:nonzero;display:inline;overflow:visible;visibility:visible;opacity:1;isolation:auto;mix-blend-mode:normal;color-interpolation:sRGB;color-interpolation-filters:linearRGB;solid-color:#000000;solid-opacity:1;vector-effect:none;fill:#000000;fill-opacity:1;fill-rule:nonzero;stroke:none;stroke-width:11.90845871;stroke-linecap:butt;stroke-linejoin:miter;stroke-miterlimit:4;stroke-dasharray:none;stroke-dashoffset:0;stroke-opacity:1;color-rendering:auto;image-rendering:auto;shape-rendering:auto;text-rendering:auto;enable-background:accumulate" />
    <path
       inkscape:connector-curvature="0"
       id="path59-17-20-1"
       d="m 339.2026,-76.56161 c -23.45267,-0.4304 -45.78212,16.66097 -74.05419,50.49199 l 9.1389,7.63709 c 27.5307,-32.94375 47.36593,-46.54053 64.6971,-46.22255 17.33107,0.31808 35.97334,14.73062 60.8111,43.86052 l 9.06269,-7.72621 c -25.44257,-29.83932 -46.20326,-47.61044 -69.6556,-48.04084 z"
       style="color:#000000;font-style:normal;font-variant:normal;font-weight:normal;font-stretch:normal;font-size:medium;line-height:normal;font-family:sans-serif;font-variant-ligatures:normal;font-variant-position:normal;font-variant-caps:normal;font-variant-numeric:normal;font-variant-alternates:normal;font-feature-settings:normal;text-indent:0;text-align:start;text-decoration:none;text-decoration-line:none;text-decoration-style:solid;text-decoration-color:#000000;letter-spacing:normal;word-spacing:normal;text-transform:none;writing-mode:lr-tb;direction:ltr;text-orientation:mixed;dominant-baseline:auto;baseline-shift:baseline;text-anchor:start;white-space:normal;shape-padding:0;clip-rule:nonzero;display:inline;overflow:visible;visibility:visible;opacity:1;isolation:auto;mix-blend-mode:normal;color-interpolation:sRGB;color-interpolation-filters:linearRGB;solid-color:#000000;solid-opacity:1;vector-effect:none;fill:#000000;fill-opacity:1;fill-rule:nonzero;stroke:none;stroke-width:11.90845871;stroke-linecap:butt;stroke-linejoin:miter;stroke-miterlimit:4;stroke-dasharray:none;stroke-dashoffset:0;stroke-opacity:1;color-rendering:auto;image-rendering:auto;shape-rendering:auto;text-rendering:auto;enable-background:accumulate" />
    <path
       inkscape:connector-curvature="0"
       id="path59-1-8-1-1"
       d="m 337.92966,6.7626 c -16.05384,-0.5774 -32.84275,5.87861 -52.55929,20.44182 l 7.07516,9.57909 c 18.49017,-13.65736 32.45358,-18.57498 45.05685,-18.12171 12.60318,0.45328 24.75398,6.40882 39.26735,16.81977 l 6.94061,-9.6754 C 368.39461,14.81957 353.9835,7.33992 337.92966,6.7626 Z"
       style="color:#000000;font-style:normal;font-variant:normal;font-weight:normal;font-stretch:normal;font-size:medium;line-height:normal;font-family:sans-serif;font-variant-ligatures:normal;font-variant-position:normal;font-variant-caps:normal;font-variant-numeric:normal;font-variant-alternates:normal;font-feature-settings:normal;text-indent:0;text-align:start;text-decoration:none;text-decoration-line:none;text-decoration-style:solid;text-decoration-color:#000000;letter-spacing:normal;word-spacing:normal;text-transform:none;writing-mode:lr-tb;direction:ltr;text-orientation:mixed;dominant-baseline:auto;baseline-shift:baseline;text-anchor:start;white-space:normal;shape-padding:0;clip-rule:nonzero;display:inline;overflow:visible;visibility:visible;opacity:1;isolation:auto;mix-blend-mode:normal;color-interpolation:sRGB;color-interpolation-filters:linearRGB;solid-color:#000000;solid-opacity:1;vector-effect:none;fill:#000000;fill-opacity:1;fill-rule:nonzero;stroke:none;stroke-width:11.90845871;stroke-linecap:butt;stroke-linejoin:miter;stroke-miterlimit:4;stroke-dasharray:none;stroke-dashoffset:0;stroke-opacity:1;color-rendering:auto;image-rendering:auto;shape-rendering:auto;text-rendering:auto;enable-background:accumulate" />
    <path
       inkscape:connector-curvature="0"
       id="path59-17-5-2-2"
       d="m 498.00267,-78.22539 c -23.45242,-0.4304 -45.78186,16.66096 -74.05417,50.49198 l 9.13914,7.6352 c 27.53069,-32.94361 47.36562,-46.53864 64.69688,-46.22057 17.33119,0.318 35.97342,14.73053 60.81133,43.86044 l 9.0626,-7.72622 c -25.4429,-29.83932 -46.20323,-47.61036 -69.65578,-48.04083 z"
       style="color:#000000;font-style:normal;font-variant:normal;font-weight:normal;font-stretch:normal;font-size:medium;line-height:normal;font-family:sans-serif;font-variant-ligatures:normal;font-variant-position:normal;font-variant-caps:normal;font-variant-numeric:normal;font-variant-alternates:normal;font-feature-settings:normal;text-indent:0;text-align:start;text-decoration:none;text-decoration-line:none;text-decoration-style:solid;text-decoration-color:#000000;letter-spacing:normal;word-spacing:normal;text-transform:none;writing-mode:lr-tb;direction:ltr;text-orientation:mixed;dominant-baseline:auto;baseline-shift:baseline;text-anchor:start;white-space:normal;shape-padding:0;clip-rule:nonzero;display:inline;overflow:visible;visibility:visible;opacity:1;isolation:auto;mix-blend-mode:normal;color-interpolation:sRGB;color-interpolation-filters:linearRGB;solid-color:#000000;solid-opacity:1;vector-effect:none;fill:#000000;fill-opacity:1;fill-rule:nonzero;stroke:none;stroke-width:11.90845871;stroke-linecap:butt;stroke-linejoin:miter;stroke-miterlimit:4;stroke-dasharray:none;stroke-dashoffset:0;stroke-opacity:1;color-rendering:auto;image-rendering:auto;shape-rendering:auto;text-rendering:auto;enable-background:accumulate" />
    <path
       inkscape:connector-curvature="0"
       id="path59-1-8-3-29-4"
       d="M 496.73002,5.09691 C 480.67616,4.51959 463.88691,10.9775 444.17037,25.54063 l 7.07517,9.57909 c 18.49025,-13.65736 32.45222,-18.57489 45.05521,-18.1217 12.60307,0.45335 24.75564,6.40881 39.26898,16.81976 l 6.94082,-9.6754 C 527.19456,13.15587 512.78376,5.67422 496.73002,5.09691 Z"
       style="color:#000000;font-style:normal;font-variant:normal;font-weight:normal;font-stretch:normal;font-size:medium;line-height:normal;font-family:sans-serif;font-variant-ligatures:normal;font-variant-position:normal;font-variant-caps:normal;font-variant-numeric:normal;font-variant-alternates:normal;font-feature-settings:normal;text-indent:0;text-align:start;text-decoration:none;text-decoration-line:none;text-decoration-style:solid;text-decoration-color:#000000;letter-spacing:normal;word-spacing:normal;text-transform:none;writing-mode:lr-tb;direction:ltr;text-orientation:mixed;dominant-baseline:auto;baseline-shift:baseline;text-anchor:start;white-space:normal;shape-padding:0;clip-rule:nonzero;display:inline;overflow:visible;visibility:visible;opacity:1;isolation:auto;mix-blend-mode:normal;color-interpolation:sRGB;color-interpolation-filters:linearRGB;solid-color:#000000;solid-opacity:1;vector-effect:none;fill:#000000;fill-opacity:1;fill-rule:nonzero;stroke:none;stroke-width:11.90845871;stroke-linecap:butt;stroke-linejoin:miter;stroke-miterlimit:4;stroke-dasharray:none;stroke-dashoffset:0;stroke-opacity:1;color-rendering:auto;image-rendering:auto;shape-rendering:auto;text-rendering:auto;enable-background:accumulate" />
    <path
       inkscape:connector-curvature="0"
       id="path29-2-7-5"
       d="m 501.77415,195.56749 c -45.33341,44.6283 -84.35819,46.39946 -114.14154,36.99254 -14.8918,-4.70349 -27.4513,-12.43904 -36.7871,-19.54547 -9.33589,-7.10634 -15.1823,-13.30836 -17.62891,-15.73234 l -8.38078,8.46075 c 1.88547,1.86811 8.68745,9.05241 18.79612,16.74707 10.10874,7.69465 23.79114,16.17524 40.41496,21.4256 33.24693,10.50088 78.35121,7.12723 126.08233,-39.86189 z"
       style="color:#000000;font-style:normal;font-variant:normal;font-weight:normal;font-stretch:normal;font-size:medium;line-height:normal;font-family:sans-serif;font-variant-ligatures:normal;font-variant-position:normal;font-variant-caps:normal;font-variant-numeric:normal;font-variant-alternates:normal;font-feature-settings:normal;text-indent:0;text-align:start;text-decoration:none;text-decoration-line:none;text-decoration-style:solid;text-decoration-color:#000000;letter-spacing:normal;word-spacing:normal;text-transform:none;writing-mode:lr-tb;direction:ltr;text-orientation:mixed;dominant-baseline:auto;baseline-shift:baseline;text-anchor:start;white-space:normal;shape-padding:0;clip-rule:nonzero;display:inline;overflow:visible;visibility:visible;opacity:1;isolation:auto;mix-blend-mode:normal;color-interpolation:sRGB;color-interpolation-filters:linearRGB;solid-color:#000000;solid-opacity:1;vector-effect:none;fill:#000000;fill-opacity:1;fill-rule:nonzero;stroke:none;stroke-width:11.90845871;stroke-linecap:butt;stroke-linejoin:miter;stroke-miterlimit:4;stroke-dasharray:none;stroke-dashoffset:0;stroke-opacity:1;color-rendering:auto;image-rendering:auto;shape-rendering:auto;text-rendering:auto;enable-background:accumulate" />
    <path
       style="font-style:normal;font-weight:normal;font-size:233.33332825px;line-height:1.25;font-family:sans-serif;letter-spacing:0px;word-spacing:0px;fill:#000000;fill-opacity:1;stroke:none"
       d="M 426.72656 1073.291 C 415.02951 1073.291 404.20595 1075.2652 394.25586 1079.2148 C 384.38173 1083.1645 376.10395 1088.8611 369.41992 1096.3047 C 362.43207 1104.128 357.11458 1113.5471 353.46875 1124.5605 C 349.82292 1135.498 348 1147.8793 348 1161.7031 C 348 1175.7548 349.82292 1188.248 353.46875 1199.1855 C 357.19054 1210.123 362.46875 1219.3516 369.30469 1226.8711 C 376.14062 1234.3906 384.42036 1240.1265 394.14258 1244.0762 C 403.94075 1248.0258 414.80165 1250 426.72656 1250 C 438.95529 1250 449.81814 1248.0632 459.3125 1244.1895 C 468.88281 1240.3158 477.16059 1234.5425 484.14844 1226.8711 C 490.90842 1219.5035 496.14931 1210.3142 499.87109 1199.3008 C 503.66884 1188.2114 505.56836 1175.6788 505.56836 1161.7031 C 505.56836 1147.7274 503.70812 1135.2322 499.98633 1124.2188 C 496.34049 1113.2053 491.06033 1103.9002 484.14844 1096.3047 C 477.38846 1088.9371 469.148 1083.2797 459.42578 1079.3301 C 449.77951 1075.3045 438.87934 1073.291 426.72656 1073.291 z M 800.76758 1082.6328 L 800.76758 1119.2051 L 786.29688 1119.2051 L 786.29688 1137.207 L 800.76758 1137.207 L 800.76758 1204.8828 C 800.76758 1220.3016 804.14627 1231.5043 810.90625 1238.4922 C 817.66623 1245.48 827.54102 1248.9746 840.5293 1248.9746 C 844.25108 1248.9746 848.46658 1248.6328 853.17578 1247.9492 C 857.96094 1247.2656 862.36697 1246.3915 866.39258 1245.3281 L 866.39258 1226.0742 L 865.25195 1226.0742 C 863.58095 1226.7578 860.84657 1227.6319 857.04883 1228.6953 C 853.25109 1229.6827 849.60525 1230.1758 846.11133 1230.1758 C 840.11089 1230.1758 835.63021 1229.4922 832.66797 1228.125 C 829.78168 1226.6819 827.50304 1224.4405 825.83203 1221.4023 C 824.00911 1218.1363 822.9464 1214.6437 822.64258 1210.9219 C 822.33876 1207.1241 822.18555 1201.8832 822.18555 1195.1992 L 822.18555 1137.207 L 866.39258 1137.207 L 866.39258 1119.2051 L 822.18555 1119.2051 L 822.18555 1082.6328 L 800.76758 1082.6328 z M 426.8418 1092.7734 C 443.93164 1092.7734 457.41298 1098.7745 467.28711 1110.7754 C 477.16124 1122.7003 482.09766 1139.6762 482.09766 1161.7031 C 482.09766 1183.9579 477.08464 1201.0085 467.05859 1212.8574 C 457.10851 1224.6304 443.70378 1230.5176 426.8418 1230.5176 C 409.97982 1230.5176 396.53581 1224.6304 386.50977 1212.8574 C 376.48372 1201.0085 371.4707 1183.9579 371.4707 1161.7031 C 371.4707 1139.6762 376.36979 1122.7003 386.16797 1110.7754 C 396.0421 1098.7745 409.60004 1092.7734 426.8418 1092.7734 z M 592.49805 1115.6738 C 573.96506 1115.6738 559.0026 1121.7888 547.60938 1134.0176 C 536.2921 1146.2463 530.63281 1162.7665 530.63281 1183.5781 C 530.63281 1204.6176 536.55729 1220.8707 548.40625 1232.3398 C 560.25521 1243.7331 576.73806 1249.4297 597.85352 1249.4297 C 606.1326 1249.4297 614.03125 1248.4043 621.55078 1246.3535 C 629.07031 1244.3027 636.43859 1241.7589 643.6543 1238.7207 L 643.6543 1215.3652 L 642.51562 1215.3652 C 638.79384 1218.7072 632.52756 1222.1252 623.7168 1225.6191 C 614.98199 1229.0371 606.28385 1230.7461 597.625 1230.7461 C 591.09288 1230.7461 585.09375 1229.8346 579.625 1228.0117 C 574.2322 1226.1888 569.56098 1223.4544 565.61133 1219.8086 C 561.50977 1216.0868 558.28038 1211.339 555.92578 1205.5664 C 553.57118 1199.7179 552.39453 1192.8819 552.39453 1185.0586 L 646.16016 1185.0586 L 646.16016 1173.4375 C 646.16016 1154.9805 641.48893 1140.7389 632.14648 1130.7129 C 622.87999 1120.6868 609.66385 1115.6738 592.49805 1115.6738 z M 945.23242 1115.6738 C 926.69944 1115.6738 911.73698 1121.7888 900.34375 1134.0176 C 889.02648 1146.2463 883.36719 1162.7665 883.36719 1183.5781 C 883.36719 1204.6176 889.29167 1220.8707 901.14062 1232.3398 C 912.98958 1243.7331 929.47244 1249.4297 950.58789 1249.4297 C 958.86697 1249.4297 966.76563 1248.4043 974.28516 1246.3535 C 981.80469 1244.3027 989.17296 1241.7589 996.38867 1238.7207 L 996.38867 1215.3652 L 995.25 1215.3652 C 991.52821 1218.7072 985.26194 1222.1252 976.45117 1225.6191 C 967.71636 1229.0371 959.01823 1230.7461 950.35938 1230.7461 C 943.82726 1230.7461 937.82812 1229.8346 932.35938 1228.0117 C 926.96658 1226.1888 922.29536 1223.4544 918.3457 1219.8086 C 914.24414 1216.0868 911.01476 1211.339 908.66016 1205.5664 C 906.30556 1199.7179 905.12891 1192.8819 905.12891 1185.0586 L 998.89453 1185.0586 L 998.89453 1173.4375 C 998.89453 1154.9805 994.22331 1140.7389 984.88086 1130.7129 C 975.61437 1120.6868 962.39822 1115.6738 945.23242 1115.6738 z M 722.03906 1116.1289 C 713.91189 1116.1289 706.54557 1117.1936 699.9375 1119.3203 C 693.40538 1121.3711 688.01128 1124.1801 683.75781 1127.75 C 679.35243 1131.3958 676.04839 1135.5367 673.8457 1140.1699 C 671.71897 1144.8032 670.65625 1149.7396 670.65625 1154.9805 C 670.65625 1163.3355 672.97222 1170.3993 677.60547 1176.1719 C 682.31467 1181.8685 690.2526 1186.1979 701.41797 1189.1602 C 705.44358 1190.2235 709.88694 1191.2116 714.74805 1192.123 C 719.68511 1193.0345 723.67274 1193.832 726.71094 1194.5156 C 734.91406 1196.3385 740.45942 1198.5406 743.3457 1201.123 C 746.23199 1203.7055 747.67383 1207.5026 747.67383 1212.5156 C 747.67383 1219.0477 745.01606 1223.8329 739.69922 1226.8711 C 734.38238 1229.9093 727.01411 1231.4297 717.5957 1231.4297 C 710.00022 1231.4297 702.06424 1229.9486 693.78516 1226.9863 C 685.50608 1223.9481 677.98654 1219.8839 671.22656 1214.7949 L 670.08594 1214.7949 L 670.08594 1238.834 C 675.40278 1241.4924 681.97352 1243.9616 689.79688 1246.2402 C 697.69618 1248.4429 706.35503 1249.5449 715.77344 1249.5449 C 732.40755 1249.5449 745.50977 1245.8225 755.08008 1238.3789 C 764.72635 1230.9353 769.54883 1221.4023 769.54883 1209.7812 C 769.54883 1200.5148 766.85373 1193.0718 761.46094 1187.4512 C 756.06814 1181.9065 748.3954 1177.9954 738.44531 1175.7168 C 735.17925 1174.9572 731.07769 1174.1204 726.14062 1173.209 C 721.27951 1172.2975 716.87543 1171.3861 712.92578 1170.4746 C 705.78602 1168.8036 700.61979 1166.6389 697.42969 1163.9805 C 694.16363 1161.322 692.53125 1157.3737 692.53125 1152.1328 C 692.53125 1146.2083 695.2283 1141.765 700.62109 1138.8027 C 706.01389 1135.7645 712.62196 1134.2441 720.44531 1134.2441 C 727.96484 1134.2441 735.63563 1135.6506 743.45898 1138.4609 C 751.28233 1141.1953 757.92773 1144.574 763.39648 1148.5996 L 764.53711 1148.5996 L 764.53711 1125.6992 C 759.37218 1123.0408 752.87804 1120.8014 745.05469 1118.9785 C 737.30729 1117.0796 729.63455 1116.1289 722.03906 1116.1289 z M 591.35938 1133.334 C 602.7526 1133.334 611.22092 1136.4102 616.76562 1142.5625 C 622.38628 1148.7148 625.23459 1157.411 625.31055 1168.6523 L 552.39453 1168.6523 C 553.30599 1158.6263 557.14236 1150.2326 563.90234 1143.4727 C 570.73828 1136.7127 579.89019 1133.334 591.35938 1133.334 z M 944.09375 1133.334 C 955.48698 1133.334 963.9553 1136.4102 969.5 1142.5625 C 975.12066 1148.7148 977.96897 1157.411 978.04492 1168.6523 L 905.12891 1168.6523 C 906.04036 1158.6263 909.87674 1150.2326 916.63672 1143.4727 C 923.47266 1136.7127 932.62457 1133.334 944.09375 1133.334 z "
       transform="translate(0,-217.58335)"
       id="text369" />
  </g>
</svg>
