<?xml version="1.0" encoding="UTF-8" standalone="no"?>
<!-- Created with Inkscape (http://www.inkscape.org/) -->

<svg
   xmlns:dc="http://purl.org/dc/elements/1.1/"
   xmlns:cc="http://creativecommons.org/ns#"
   xmlns:rdf="http://www.w3.org/1999/02/22-rdf-syntax-ns#"
   xmlns:svg="http://www.w3.org/2000/svg"
   xmlns="http://www.w3.org/2000/svg"
   xmlns:sodipodi="http://sodipodi.sourceforge.net/DTD/sodipodi-0.dtd"
   xmlns:inkscape="http://www.inkscape.org/namespaces/inkscape"
   width="1000"
   height="1250"
   viewBox="0 0 1000 1250"
   version="1.1"
   id="svg5114"
   inkscape:version="0.92.4 (5da689c313, 2019-01-14)"
   sodipodi:docname="Pai - Mãe.svg">
  <defs
     id="defs5108" />
  <sodipodi:namedview
     id="base"
     pagecolor="#ffffff"
     bordercolor="#666666"
     borderopacity="1.0"
     inkscape:pageopacity="0.0"
     inkscape:pageshadow="2"
     inkscape:zoom="0.35355339"
     inkscape:cx="492.87474"
     inkscape:cy="592.40041"
     inkscape:document-units="px"
     inkscape:current-layer="layer1"
     showgrid="false"
     units="px"
     inkscape:window-width="1366"
     inkscape:window-height="715"
     inkscape:window-x="-8"
     inkscape:window-y="-8"
     inkscape:window-maximized="1" />
  <metadata
     id="metadata5111">
    <rdf:RDF>
      <cc:Work
         rdf:about="">
        <dc:format>image/svg+xml</dc:format>
        <dc:type
           rdf:resource="http://purl.org/dc/dcmitype/StillImage" />
        <dc:title />
      </cc:Work>
    </rdf:RDF>
  </metadata>
  <g
     inkscape:label="Camada 1"
     inkscape:groupmode="layer"
     id="layer1"
     transform="translate(0,217.58335)">
    <path
       style="color:#000000;font-style:normal;font-variant:normal;font-weight:normal;font-stretch:normal;font-size:medium;line-height:normal;font-family:sans-serif;font-variant-ligatures:normal;font-variant-position:normal;font-variant-caps:normal;font-variant-numeric:normal;font-variant-alternates:normal;font-feature-settings:normal;text-indent:0;text-align:start;text-decoration:none;text-decoration-line:none;text-decoration-style:solid;text-decoration-color:#000000;letter-spacing:normal;word-spacing:normal;text-transform:none;writing-mode:lr-tb;direction:ltr;text-orientation:mixed;dominant-baseline:auto;baseline-shift:baseline;text-anchor:start;white-space:normal;shape-padding:0;clip-rule:nonzero;display:inline;overflow:visible;visibility:visible;opacity:1;isolation:auto;mix-blend-mode:normal;color-interpolation:sRGB;color-interpolation-filters:linearRGB;solid-color:#000000;solid-opacity:1;vector-effect:none;fill:#000000;fill-opacity:1;fill-rule:nonzero;stroke:none;stroke-width:41.24871063;stroke-linecap:butt;stroke-linejoin:miter;stroke-miterlimit:4;stroke-dasharray:none;stroke-dashoffset:0;stroke-opacity:1;color-rendering:auto;image-rendering:auto;shape-rendering:auto;text-rendering:auto;enable-background:accumulate"
       d="M 458.92299,-217.18771 C 257.16622,-217.23189 136.81974,-113.42055 86.849311,25.088972 36.87192,163.61777 51.082324,331.12124 107.70198,476.18832 l 20.12764,-5.29466 c 33.80746,81.02689 61.15889,120.53749 74.96813,146.39214 -5.7591,2.21763 -14.10966,4.73256 -18.85768,6.03011 54.42937,87.60009 186.91719,159.53764 260.59421,159.09874 51.68463,-0.3081 100.02172,-17.3694 143.73971,-46.33085 -4.61647,-3.73275 -46.42299,0.19268 -45.23198,-0.61849 9.42018,-5.26772 57.03648,-27.34833 73.21249,-46.96769 6.87145,5.86489 10.20901,10.96981 13.82631,15.12871 25.88545,-23.18746 49.71465,-50.5755 71.15621,-80.89909 C 767.34552,529.23376 812.30047,406.58129 827.23134,283.47262 842.16223,160.36393 827.21234,36.342642 769.20599,-58.762818 711.20344,-153.8617 608.42133,-217.72908 458.95287,-217.18771 Z m 0.0672,41.25352 h 0.0384 0.0448 c 138.03904,-0.50816 223.65822,54.6087 274.91644,138.649802 51.25818,84.04111 66.42068,199.321798 52.2953,315.788948 -14.12538,116.46718 -57.39499,233.66991 -118.72529,320.40588 -21.08188,29.8149 -44.11534,55.88236 -68.68327,77.27622 6.47989,4.36593 10.06202,6.73182 17.37802,12.31096 -13.80275,18.25189 -73.27245,46.93552 -73.27245,46.93552 0,0 -32.8216,-2.24088 -42.3126,-2.82641 -18.38845,5.50392 -37.22249,8.44776 -56.38077,8.56188 -60.80542,0.36224 -174.21561,-77.54419 -225.15082,-126.1251 l -16.34018,2.24229 C 178.14891,573.81899 155.96226,538.60129 127.82962,470.89366 l 20.01131,-5.54259 C 94.320987,328.22583 80.381944,164.57122 125.65243,39.089142 170.9229,-86.392888 270.82812,-176.00232 458.99024,-175.93419 Z"
       id="path10-9"
       inkscape:connector-curvature="0"
       sodipodi:nodetypes="csccccsccccssccccccsssccccsccccscc" />
    <path
       style="color:#000000;font-style:normal;font-variant:normal;font-weight:normal;font-stretch:normal;font-size:medium;line-height:normal;font-family:sans-serif;font-variant-ligatures:normal;font-variant-position:normal;font-variant-caps:normal;font-variant-numeric:normal;font-variant-alternates:normal;font-feature-settings:normal;text-indent:0;text-align:start;text-decoration:none;text-decoration-line:none;text-decoration-style:solid;text-decoration-color:#000000;letter-spacing:normal;word-spacing:normal;text-transform:none;writing-mode:lr-tb;direction:ltr;text-orientation:mixed;dominant-baseline:auto;baseline-shift:baseline;text-anchor:start;white-space:normal;shape-padding:0;clip-rule:nonzero;display:inline;overflow:visible;visibility:visible;opacity:1;isolation:auto;mix-blend-mode:normal;color-interpolation:sRGB;color-interpolation-filters:linearRGB;solid-color:#000000;solid-opacity:1;vector-effect:none;fill:#000000;fill-opacity:1;fill-rule:nonzero;stroke:none;stroke-width:20.62435532;stroke-linecap:butt;stroke-linejoin:miter;stroke-miterlimit:4;stroke-dasharray:none;stroke-dashoffset:0;stroke-opacity:1;color-rendering:auto;image-rendering:auto;shape-rendering:auto;text-rendering:auto;enable-background:accumulate"
       d="m 436.89844,279.59614 c 0,0 -2.32598,22.95703 -6.17383,47.07031 -1.92393,12.05665 -4.24199,24.40137 -6.73242,33.99414 -1.24522,4.79639 -2.54866,8.91568 -3.7168,11.75586 -1.16815,2.84019 -2.67728,4.32482 -1.59375,3.42188 -2.28222,1.90184 -4.69861,3.48977 -5.96289,8.54687 -0.63214,2.52855 -0.27036,6.29543 1.34375,8.92578 1.61411,2.63036 3.71195,3.91731 5.29883,4.66407 6.34752,2.98701 9.60601,1.84062 13.92187,1.54297 8.63173,-0.59531 17.98047,-2.51954 17.98047,-2.51954 l -4.04492,-20.22461 c 0,0 -3.18158,0.55554 -7.02735,1.13672 1.36613,-3.66431 2.61333,-7.63543 3.76368,-12.0664 2.78312,-10.72016 5.15432,-23.50471 7.13672,-35.92774 3.96478,-24.84605 6.32617,-48.24609 6.32617,-48.24609 z"
       id="path971"
       inkscape:connector-curvature="0" />
    <path
       style="color:#000000;font-style:normal;font-variant:normal;font-weight:normal;font-stretch:normal;font-size:medium;line-height:normal;font-family:sans-serif;font-variant-ligatures:normal;font-variant-position:normal;font-variant-caps:normal;font-variant-numeric:normal;font-variant-alternates:normal;font-feature-settings:normal;text-indent:0;text-align:start;text-decoration:none;text-decoration-line:none;text-decoration-style:solid;text-decoration-color:#000000;letter-spacing:normal;word-spacing:normal;text-transform:none;writing-mode:lr-tb;direction:ltr;text-orientation:mixed;dominant-baseline:auto;baseline-shift:baseline;text-anchor:start;white-space:normal;shape-padding:0;clip-rule:nonzero;display:inline;overflow:visible;visibility:visible;opacity:1;isolation:auto;mix-blend-mode:normal;color-interpolation:sRGB;color-interpolation-filters:linearRGB;solid-color:#000000;solid-opacity:1;vector-effect:none;fill:#000000;fill-opacity:1;fill-rule:nonzero;stroke:none;stroke-width:15.18058014;stroke-linecap:butt;stroke-linejoin:miter;stroke-miterlimit:4;stroke-dasharray:none;stroke-dashoffset:0;stroke-opacity:1;color-rendering:auto;image-rendering:auto;shape-rendering:auto;text-rendering:auto;enable-background:accumulate"
       d="m 379.97851,404.55708 c -13.39673,0.19944 -28.06637,1.12095 -41.00585,3.63281 -11.31141,2.19583 -21.78193,5.97521 -38.40821,9.17383 -4.96956,0.95604 -11.42179,1.71145 -17.48047,2.49414 -6.05867,0.78269 -11.46375,1.40728 -16.14062,3.05859 l -0.4082,0.14453 -0.39063,0.18946 c -19.00809,9.2687 -30.34683,13.75199 -36.66602,15.85937 -3.15959,1.05369 -5.06306,1.51283 -5.99414,1.69532 -0.37324,0.0732 -0.34273,0.0876 -0.31445,0.0996 l -1.10352,-0.043 -1.26757,0.40234 c 0,0 -120.35167,38.10826 -175.79883,46.0293 l 2.146484,15.02738 c 58.770466,-8.39579 176.757756,-46.11412 177.884766,-46.47461 0.58792,-0.0567 0.70085,-0.0128 1.37305,-0.14453 1.76044,-0.34504 4.24648,-0.98068 7.87695,-2.19141 7.15707,-2.3868 18.91579,-7.10525 37.83398,-16.30078 1.7356,-0.59572 7.0611,-1.54076 12.91407,-2.29687 5.90612,-0.76299 12.5379,-1.51439 18.40234,-2.64258 17.61534,-3.3889 28.71384,-7.29089 38.43359,-9.17774 15.30084,-2.97025 35.0067,-3.5856 50.74414,-3.34765 7.86872,0.11897 14.76868,0.4373 19.70703,0.73437 2.46918,0.14854 4.44964,0.29163 5.80469,0.40039 0.60667,0.0487 1.04103,0.0884 1.3711,0.11914 l 0.23437,0.0703 0.93945,0.041 c 0,0 11.65272,0.52524 22.8418,1.51953 5.59454,0.49715 11.11347,1.13045 14.64453,1.78516 1.76553,0.32736 3.13364,0.75866 3.08985,0.74023 -0.0219,-0.009 -0.50875,0.0758 -1.7793,-1.42578 -0.63528,-0.75078 -1.47649,-2.16368 -1.61328,-3.98437 -0.13679,-1.8207 0.56527,-3.60151 1.23633,-4.56055 l 12.4375,8.70508 c 0.84173,-1.20296 1.61943,-3.22367 1.46484,-5.28125 -0.15459,-2.05758 -1.10582,-3.70495 -1.93555,-4.68555 -1.65945,-1.96119 -2.8773,-2.31945 -3.92383,-2.75976 -2.09304,-0.88062 -3.94949,-1.25489 -6.20898,-1.67383 -4.51897,-0.83789 -10.24684,-1.46315 -16.06836,-1.98047 -11.42248,-1.01503 -22.62387,-1.51551 -23.06055,-1.53516 -0.034,-0.004 -0.0806,-0.01 -0.11328,-0.0137 -0.18245,-0.0207 -0.3634,-0.0375 -0.58398,-0.0586 -0.44116,-0.0421 -1.02266,-0.0933 -1.75781,-0.15235 -1.47032,-0.11801 -3.54035,-0.26745 -6.10743,-0.42187 -5.13416,-0.30885 -12.24509,-0.63663 -20.38867,-0.75977 -4.07179,-0.0616 -8.39575,-0.0762 -12.86133,-0.01 z"
       id="path6851"
       inkscape:connector-curvature="0" />
    <path
       style="color:#000000;font-style:normal;font-variant:normal;font-weight:normal;font-stretch:normal;font-size:medium;line-height:normal;font-family:sans-serif;font-variant-ligatures:normal;font-variant-position:normal;font-variant-caps:normal;font-variant-numeric:normal;font-variant-alternates:normal;font-feature-settings:normal;text-indent:0;text-align:start;text-decoration:none;text-decoration-line:none;text-decoration-style:solid;text-decoration-color:#000000;letter-spacing:normal;word-spacing:normal;text-transform:none;writing-mode:lr-tb;direction:ltr;text-orientation:mixed;dominant-baseline:auto;baseline-shift:baseline;text-anchor:start;white-space:normal;shape-padding:0;clip-rule:nonzero;display:inline;overflow:visible;visibility:visible;opacity:1;isolation:auto;mix-blend-mode:normal;color-interpolation:sRGB;color-interpolation-filters:linearRGB;solid-color:#000000;solid-opacity:1;vector-effect:none;fill:#000000;fill-opacity:1;fill-rule:nonzero;stroke:none;stroke-width:15.18058014;stroke-linecap:butt;stroke-linejoin:miter;stroke-miterlimit:4;stroke-dasharray:none;stroke-dashoffset:0;stroke-opacity:1;color-rendering:auto;image-rendering:auto;shape-rendering:auto;text-rendering:auto;enable-background:accumulate"
       d="m 494.10742,407.37348 c -16.77859,-0.56912 -31.38867,5.02735 -31.38867,5.02735 l 5.17187,14.27148 c 0,0 17.00412,-5.76488 31.25196,-3.6289 7.12392,1.06798 12.9997,3.6972 17.08008,9.44726 3.74023,5.27074 6.18894,14.2558 4.98632,28.74219 -1.54314,0.49547 -3.77278,1.04473 -7.36914,1.44727 -6.24578,0.69908 -15.22736,1.14776 -26.82031,2.35156 -23.1859,2.4076 -56.90526,7.93026 -103.52148,25.04297 l 5.23046,14.25 c 45.39307,-16.66369 77.52331,-21.87421 99.85743,-24.19336 11.16705,-1.15958 19.86337,-1.573 26.9414,-2.36524 7.07804,-0.79224 13.10697,-1.62921 18.09375,-6.18164 l 2.07031,-1.89258 0.34376,-2.7832 c 2.38828,-19.32169 -0.50364,-33.44019 -7.43165,-43.20312 -6.928,-9.76294 -17.41194,-14.20705 -27.20898,-15.67579 -2.44926,-0.36718 -4.89017,-0.57494 -7.28711,-0.65625 z"
       id="path6853"
       inkscape:connector-curvature="0" />
    <path
       style="color:#000000;font-style:normal;font-variant:normal;font-weight:normal;font-stretch:normal;font-size:medium;line-height:normal;font-family:sans-serif;font-variant-ligatures:normal;font-variant-position:normal;font-variant-caps:normal;font-variant-numeric:normal;font-variant-alternates:normal;font-feature-settings:normal;text-indent:0;text-align:start;text-decoration:none;text-decoration-line:none;text-decoration-style:solid;text-decoration-color:#000000;letter-spacing:normal;word-spacing:normal;text-transform:none;writing-mode:lr-tb;direction:ltr;text-orientation:mixed;dominant-baseline:auto;baseline-shift:baseline;text-anchor:start;white-space:normal;shape-padding:0;clip-rule:nonzero;display:inline;overflow:visible;visibility:visible;opacity:1;isolation:auto;mix-blend-mode:normal;color-interpolation:sRGB;color-interpolation-filters:linearRGB;solid-color:#000000;solid-opacity:1;vector-effect:none;fill:#000000;fill-opacity:1;fill-rule:nonzero;stroke:none;stroke-width:15.18058014;stroke-linecap:butt;stroke-linejoin:miter;stroke-miterlimit:4;stroke-dasharray:none;stroke-dashoffset:0;stroke-opacity:1;color-rendering:auto;image-rendering:auto;shape-rendering:auto;text-rendering:auto;enable-background:accumulate"
       d="m 528.31836,458.38911 0.36914,15.17773 c 0,0 14.54533,0.058 24.57812,6.08789 5.0164,3.01494 8.73575,6.93635 10.3125,13.5918 1.57676,6.65545 0.85562,16.78295 -5.73828,31.7168 l 13.88672,6.13281 c 7.45,-16.87274 9.21558,-30.4046 6.62305,-41.34766 -2.59254,-10.94305 -9.69907,-18.55902 -17.26367,-23.10546 -15.12921,-9.0929 -32.76758,-8.25391 -32.76758,-8.25391 z"
       id="path6855"
       inkscape:connector-curvature="0" />
    <path
       style="color:#000000;font-style:normal;font-variant:normal;font-weight:normal;font-stretch:normal;font-size:medium;line-height:normal;font-family:sans-serif;font-variant-ligatures:normal;font-variant-position:normal;font-variant-caps:normal;font-variant-numeric:normal;font-variant-alternates:normal;font-feature-settings:normal;text-indent:0;text-align:start;text-decoration:none;text-decoration-line:none;text-decoration-style:solid;text-decoration-color:#000000;letter-spacing:normal;word-spacing:normal;text-transform:none;writing-mode:lr-tb;direction:ltr;text-orientation:mixed;dominant-baseline:auto;baseline-shift:baseline;text-anchor:start;white-space:normal;shape-padding:0;clip-rule:nonzero;display:inline;overflow:visible;visibility:visible;opacity:1;isolation:auto;mix-blend-mode:normal;color-interpolation:sRGB;color-interpolation-filters:linearRGB;solid-color:#000000;solid-opacity:1;vector-effect:none;fill:#000000;fill-opacity:1;fill-rule:nonzero;stroke:none;stroke-width:15.18058014;stroke-linecap:butt;stroke-linejoin:miter;stroke-miterlimit:4;stroke-dasharray:none;stroke-dashoffset:0;stroke-opacity:1;color-rendering:auto;image-rendering:auto;shape-rendering:auto;text-rendering:auto;enable-background:accumulate"
       d="m 560.76758,520.36177 -2.30469,3.46484 c -0.24939,0.37493 -5.92778,3.64019 -15.52344,5.01758 -9.59565,1.37738 -22.34642,1.85148 -35.84179,2.11328 -26.99076,0.52359 -56.35397,-0.28385 -75.16993,6.46484 -9.44133,3.38631 -18.66078,2.94612 -27.75781,3.11719 -4.54852,0.0855 -9.1158,0.28134 -13.76758,1.86133 -4.65178,1.57998 -9.28064,5.01744 -12.08203,10.02148 l 13.24609,7.41406 c 1.08166,-1.93213 1.81508,-2.41462 3.7168,-3.06054 1.90172,-0.64592 5.07802,-0.98157 9.17383,-1.0586 8.19163,-0.15404 19.86279,0.56104 32.5957,-4.00586 13.06176,-4.68484 43.04962,-5.0468 70.33789,-5.57617 13.64414,-0.26468 26.76507,-0.69331 37.70508,-2.26367 9.07499,-1.30265 17.13557,-2.77362 22.79883,-7.97656 16.10281,1.37984 26.81227,10.34855 30.70117,21.30859 4.15076,11.69804 1.26332,26.07885 -15.02344,38.5625 l 9.23438,12.04883 c 20.37255,-15.61537 26.4691,-37.72543 20.0957,-55.6875 -6.37339,-17.96207 -24.56731,-31.24396 -47.97656,-31.68555 z"
       id="path6857"
       inkscape:connector-curvature="0" />
    <path
       style="color:#000000;font-style:normal;font-variant:normal;font-weight:normal;font-stretch:normal;font-size:medium;line-height:normal;font-family:sans-serif;font-variant-ligatures:normal;font-variant-position:normal;font-variant-caps:normal;font-variant-numeric:normal;font-variant-alternates:normal;font-feature-settings:normal;text-indent:0;text-align:start;text-decoration:none;text-decoration-line:none;text-decoration-style:solid;text-decoration-color:#000000;letter-spacing:normal;word-spacing:normal;text-transform:none;writing-mode:lr-tb;direction:ltr;text-orientation:mixed;dominant-baseline:auto;baseline-shift:baseline;text-anchor:start;white-space:normal;shape-padding:0;clip-rule:nonzero;display:inline;overflow:visible;visibility:visible;opacity:1;isolation:auto;mix-blend-mode:normal;color-interpolation:sRGB;color-interpolation-filters:linearRGB;solid-color:#000000;solid-opacity:1;vector-effect:none;fill:#000000;fill-opacity:1;fill-rule:nonzero;stroke:none;stroke-width:15.18058014;stroke-linecap:butt;stroke-linejoin:miter;stroke-miterlimit:4;stroke-dasharray:none;stroke-dashoffset:0;stroke-opacity:1;color-rendering:auto;image-rendering:auto;shape-rendering:auto;text-rendering:auto;enable-background:accumulate"
       d="m 593.01562,595.93208 -9.65234,11.71679 c 3.32801,2.74165 6.52976,4.15106 9.79492,6.59571 3.26516,2.44465 6.05749,5.31405 7.51172,8.85937 1.45423,3.54532 1.99899,8.07355 -0.67187,15.55078 -2.67086,7.47724 -8.81765,17.65715 -20.5586,30.63282 l 11.25391,10.1875 c 12.59956,-13.92458 19.95342,-25.50167 23.60156,-35.71485 3.64814,-10.21317 3.33461,-19.31214 0.41992,-26.41797 -2.91468,-7.10582 -8.00091,-11.9122 -12.45898,-15.25 -4.45808,-3.33779 -8.82428,-5.81748 -9.24024,-6.16015 z"
       id="path6859"
       inkscape:connector-curvature="0"
       sodipodi:nodetypes="ccsssccsscc" />
    <path
       style="color:#000000;font-style:normal;font-variant:normal;font-weight:normal;font-stretch:normal;font-size:medium;line-height:normal;font-family:sans-serif;font-variant-ligatures:normal;font-variant-position:normal;font-variant-caps:normal;font-variant-numeric:normal;font-variant-alternates:normal;font-feature-settings:normal;text-indent:0;text-align:start;text-decoration:none;text-decoration-line:none;text-decoration-style:solid;text-decoration-color:#000000;letter-spacing:normal;word-spacing:normal;text-transform:none;writing-mode:lr-tb;direction:ltr;text-orientation:mixed;dominant-baseline:auto;baseline-shift:baseline;text-anchor:start;white-space:normal;shape-padding:0;clip-rule:nonzero;display:inline;overflow:visible;visibility:visible;opacity:1;isolation:auto;mix-blend-mode:normal;color-interpolation:sRGB;color-interpolation-filters:linearRGB;solid-color:#000000;solid-opacity:1;vector-effect:none;fill:#000000;fill-opacity:1;fill-rule:nonzero;stroke:none;stroke-width:15.18058014;stroke-linecap:butt;stroke-linejoin:miter;stroke-miterlimit:4;stroke-dasharray:none;stroke-dashoffset:0;stroke-opacity:1;color-rendering:auto;image-rendering:auto;shape-rendering:auto;text-rendering:auto;enable-background:accumulate"
       d="m 592.13086,670.20942 -6.32227,13.80274 c 12.32219,5.64378 23.93896,14.78398 31.07813,23.4375 3.56958,4.32675 5.98447,8.53923 7.00195,11.66797 1.01748,3.12873 0.68579,4.607 0.2168,5.38867 -0.46641,0.77735 -1.7791,2.28757 -7.85547,2.68554 -6.07638,0.39798 -16.14526,-0.82465 -30.60352,-5.06836 l -1.45508,-0.42578 -1.50585,0.16407 c -20.53169,2.23919 -43.88813,0.94632 -64.98438,-0.79493 -21.09624,-1.74125 -39.68186,-4.00203 -52.59766,-3.13083 l 1.10352,15.1406 c 9.91437,-0.66874 28.86717,1.35456 50.24609,3.11914 20.88679,1.72396 44.38301,3.07386 66.3086,0.86328 14.72811,4.22029 25.79854,5.84988 34.48047,5.28125 8.96878,-0.58741 16.247,-3.9669 19.88086,-10.02344 3.34143,-5.56913 3.07271,-12.13956 1.20117,-17.89453 -1.87154,-5.75497 -5.29834,-11.26291 -9.72852,-16.63281 -8.86036,-10.7398 -21.87674,-20.89846 -36.46484,-27.58008 z"
       id="path6861"
       inkscape:connector-curvature="0"
       sodipodi:nodetypes="ccsscccccsccscscssc" />
    <path
       style="color:#000000;font-style:normal;font-variant:normal;font-weight:normal;font-stretch:normal;font-size:medium;line-height:normal;font-family:sans-serif;font-variant-ligatures:normal;font-variant-position:normal;font-variant-caps:normal;font-variant-numeric:normal;font-variant-alternates:normal;font-feature-settings:normal;text-indent:0;text-align:start;text-decoration:none;text-decoration-line:none;text-decoration-style:solid;text-decoration-color:#000000;letter-spacing:normal;word-spacing:normal;text-transform:none;writing-mode:lr-tb;direction:ltr;text-orientation:mixed;dominant-baseline:auto;baseline-shift:baseline;text-anchor:start;white-space:normal;shape-padding:0;clip-rule:nonzero;display:inline;overflow:visible;visibility:visible;opacity:1;isolation:auto;mix-blend-mode:normal;color-interpolation:sRGB;color-interpolation-filters:linearRGB;solid-color:#000000;solid-opacity:1;vector-effect:none;fill:#000000;fill-opacity:1;fill-rule:nonzero;stroke:none;stroke-width:15.18058014;stroke-linecap:butt;stroke-linejoin:miter;stroke-miterlimit:4;stroke-dasharray:none;stroke-dashoffset:0;stroke-opacity:1;color-rendering:auto;image-rendering:auto;shape-rendering:auto;text-rendering:auto;enable-background:accumulate"
       d="m 236.25586,611.19184 c -5.05748,-0.0591 -10.32027,0.26935 -15.81446,1.03321 l -0.29687,0.041 -0.29297,0.0645 c 0,0 -73.27748,16.11191 -125.234373,34.8164 l 5.14258,14.28321 C 149.67435,643.4609 221.73946,627.46404 222.77344,627.23484 c 38.21157,-5.22297 61.26303,12.52215 88.1289,36.61524 26.53924,23.80016 55.65246,53.53574 102.03906,67.13672 2.07698,1.66473 3.84811,1.77439 5.57422,2.15429 2.21621,0.48777 4.56044,0.74405 7.15625,0.92383 5.19163,0.35957 11.31422,0.34684 17.29493,0.19727 11.96141,-0.29915 23.32031,-1.19141 23.32031,-1.19141 l -1.1836,-15.13477 c 0,0 -11.07245,0.86416 -22.51757,1.15039 -5.72257,0.14312 -11.54797,0.133 -15.86524,-0.16601 -2.15013,-0.14892 -3.93546,-0.38766 -4.92187,-0.60352 l -0.54688,-0.65625 -2.27344,-0.63672 c -43.37967,-12.1436 -70.45843,-39.83006 -97.9414,-64.47656 -24.0476,-21.56568 -49.37888,-40.94197 -84.78125,-41.35547 z"
       id="path6863"
       inkscape:connector-curvature="0" />
    <path
       style="color:#000000;font-style:normal;font-variant:normal;font-weight:normal;font-stretch:normal;font-size:medium;line-height:normal;font-family:sans-serif;font-variant-ligatures:normal;font-variant-position:normal;font-variant-caps:normal;font-variant-numeric:normal;font-variant-alternates:normal;font-feature-settings:normal;text-indent:0;text-align:start;text-decoration:none;text-decoration-line:none;text-decoration-style:solid;text-decoration-color:#000000;letter-spacing:normal;word-spacing:normal;text-transform:none;writing-mode:lr-tb;direction:ltr;text-orientation:mixed;dominant-baseline:auto;baseline-shift:baseline;text-anchor:start;white-space:normal;shape-padding:0;clip-rule:nonzero;display:inline;overflow:visible;visibility:visible;opacity:1;isolation:auto;mix-blend-mode:normal;color-interpolation:sRGB;color-interpolation-filters:linearRGB;solid-color:#000000;solid-opacity:1;vector-effect:none;fill:#000000;fill-opacity:1;fill-rule:nonzero;stroke:none;stroke-width:15.18058014;stroke-linecap:butt;stroke-linejoin:miter;stroke-miterlimit:4;stroke-dasharray:none;stroke-dashoffset:0;stroke-opacity:1;color-rendering:auto;image-rendering:auto;shape-rendering:auto;text-rendering:auto;enable-background:accumulate"
       d="m 462.54883,412.46528 c -32.98773,12.8587 -58.55692,25.66405 -74.25,39.88867 -7.84655,7.11231 -13.4435,14.79922 -15.25586,23.58985 -1.81236,8.79062 0.87077,18.07911 7.11914,25.96875 l 11.90039,-9.42578 c -4.22873,-5.3395 -5.0347,-9.19681 -4.15234,-13.47657 0.88235,-4.27975 4.1647,-9.5896 10.58398,-15.4082 12.83856,-11.63721 37.34426,-24.43311 69.56836,-36.99414 -1.83789,-4.72481 -3.67578,-9.4386 -5.51367,-14.14258 z"
       id="path6865"
       inkscape:connector-curvature="0"
       sodipodi:nodetypes="csscccscc" />
    <path
       style="color:#000000;font-style:normal;font-variant:normal;font-weight:normal;font-stretch:normal;font-size:medium;line-height:normal;font-family:sans-serif;font-variant-ligatures:normal;font-variant-position:normal;font-variant-caps:normal;font-variant-numeric:normal;font-variant-alternates:normal;font-feature-settings:normal;text-indent:0;text-align:start;text-decoration:none;text-decoration-line:none;text-decoration-style:solid;text-decoration-color:#000000;letter-spacing:normal;word-spacing:normal;text-transform:none;writing-mode:lr-tb;direction:ltr;text-orientation:mixed;dominant-baseline:auto;baseline-shift:baseline;text-anchor:start;white-space:normal;shape-padding:0;clip-rule:nonzero;display:inline;overflow:visible;visibility:visible;opacity:1;isolation:auto;mix-blend-mode:normal;color-interpolation:sRGB;color-interpolation-filters:linearRGB;solid-color:#000000;solid-opacity:1;vector-effect:none;fill:#000000;fill-opacity:1;fill-rule:nonzero;stroke:none;stroke-width:15.18058014;stroke-linecap:butt;stroke-linejoin:miter;stroke-miterlimit:4;stroke-dasharray:none;stroke-dashoffset:0;stroke-opacity:1;color-rendering:auto;image-rendering:auto;shape-rendering:auto;text-rendering:auto;enable-background:accumulate"
       d="m 383.14844,490.21137 c -15.47859,6.56808 -25.53244,14.08462 -31.27344,22.65821 -5.741,8.57358 -6.47688,18.35384 -3.60742,26.26172 2.86946,7.90787 8.67974,14.05575 15.32226,18.3125 6.64252,4.25675 14.22783,6.79022 21.87891,6.25781 l -1.05274,-15.14453 c -3.26974,0.22753 -8.30938,-1.12269 -12.63476,-3.89453 -4.32538,-2.77185 -7.82464,-6.79702 -9.24414,-10.70899 -1.4195,-3.91196 -1.42382,-7.59847 1.95117,-12.63867 3.37499,-5.0402 10.82147,-11.28653 24.58984,-17.12891 z"
       id="path6867"
       inkscape:connector-curvature="0" />
    <path
       style="color:#000000;font-style:normal;font-variant:normal;font-weight:normal;font-stretch:normal;font-size:medium;line-height:normal;font-family:sans-serif;font-variant-ligatures:normal;font-variant-position:normal;font-variant-caps:normal;font-variant-numeric:normal;font-variant-alternates:normal;font-feature-settings:normal;text-indent:0;text-align:start;text-decoration:none;text-decoration-line:none;text-decoration-style:solid;text-decoration-color:#000000;letter-spacing:normal;word-spacing:normal;text-transform:none;writing-mode:lr-tb;direction:ltr;text-orientation:mixed;dominant-baseline:auto;baseline-shift:baseline;text-anchor:start;white-space:normal;shape-padding:0;clip-rule:nonzero;display:inline;overflow:visible;visibility:visible;opacity:1;isolation:auto;mix-blend-mode:normal;color-interpolation:sRGB;color-interpolation-filters:linearRGB;solid-color:#000000;solid-opacity:1;vector-effect:none;fill:#000000;fill-opacity:1;fill-rule:nonzero;stroke:none;stroke-width:15.18058014;stroke-linecap:butt;stroke-linejoin:miter;stroke-miterlimit:4;stroke-dasharray:none;stroke-dashoffset:0;stroke-opacity:1;color-rendering:auto;image-rendering:auto;shape-rendering:auto;text-rendering:auto;enable-background:accumulate"
       d="m 377.36328,555.70747 c -1.09229,19.6691 6.81198,33.36 15.03516,41.29883 8.22317,7.93882 17.11914,10.83203 17.11914,10.83203 l 0.99414,0.32226 1.04297,0.043 c 33.92857,1.36975 46.20699,-0.22222 54.46093,-1.54297 8.25394,-1.32074 11.38694,-2.27026 32.0293,-0.0547 21.22619,2.27828 40.85703,4.333 56.83789,5.14257 15.98086,0.80958 27.60039,1.28171 36.64063,-3.13867 l -6.66797,-13.63867 c -2.06352,1.00899 -13.89868,2.39055 -29.20313,1.61523 -15.30444,-0.77531 -34.78971,-2.79889 -55.98828,-5.07421 -21.39887,-2.29677 -28.13028,-1.10857 -36.04687,0.1582 -7.79302,1.24699 -18.03045,2.63825 -50.14063,1.39844 -0.9821,-0.35312 -5.40859,-2.03508 -10.53516,-6.98438 -5.7232,-5.5253 -11.27817,-14.08041 -10.41992,-29.53515 z"
       id="path6869"
       inkscape:connector-curvature="0" />
    <path
       style="color:#000000;font-style:normal;font-variant:normal;font-weight:normal;font-stretch:normal;font-size:medium;line-height:normal;font-family:sans-serif;font-variant-ligatures:normal;font-variant-position:normal;font-variant-caps:normal;font-variant-numeric:normal;font-variant-alternates:normal;font-feature-settings:normal;text-indent:0;text-align:start;text-decoration:none;text-decoration-line:none;text-decoration-style:solid;text-decoration-color:#000000;letter-spacing:normal;word-spacing:normal;text-transform:none;writing-mode:lr-tb;direction:ltr;text-orientation:mixed;dominant-baseline:auto;baseline-shift:baseline;text-anchor:start;white-space:normal;shape-padding:0;clip-rule:nonzero;display:inline;overflow:visible;visibility:visible;opacity:1;isolation:auto;mix-blend-mode:normal;color-interpolation:sRGB;color-interpolation-filters:linearRGB;solid-color:#000000;solid-opacity:1;vector-effect:none;fill:#000000;fill-opacity:1;fill-rule:nonzero;stroke:none;stroke-width:15.18058014;stroke-linecap:butt;stroke-linejoin:miter;stroke-miterlimit:4;stroke-dasharray:none;stroke-dashoffset:0;stroke-opacity:1;color-rendering:auto;image-rendering:auto;shape-rendering:auto;text-rendering:auto;enable-background:accumulate"
       d="m 412.88672,600.23677 c -5.02954,15.1715 -2.76738,28.53691 4.29687,37.99609 7.06425,9.45918 17.76659,15.00686 28.71094,18.83594 10.94435,3.82907 22.39477,5.90332 31.66797,7.38281 4.6366,0.73975 8.73425,1.32739 11.8164,1.85547 2.90847,0.49832 4.89919,1.18165 4.54297,0.96289 29.46656,23.539 53.45934,27.95657 70.23829,25.22461 16.9952,-2.76717 26.5332,-13.01953 26.5332,-13.01953 l -11.25,-10.19141 c 0,0 -5.38585,6.21983 -17.72266,8.22852 -12.3368,2.00868 -31.70734,-0.42859 -59.34765,-22.86719 l -0.64454,-0.52344 -0.74414,-0.37109 c -3.22536,-1.61334 -5.61523,-1.81896 -9.04297,-2.40625 -3.42773,-0.58729 -7.49673,-1.16816 -11.98828,-1.88477 -8.98309,-1.43321 -19.63161,-3.42729 -29.04492,-6.7207 -9.4133,-3.29341 -17.32793,-7.92229 -21.56054,-13.58985 -4.23262,-5.66755 -5.94736,-12.38082 -2.05079,-24.13476 z"
       id="path6871"
       inkscape:connector-curvature="0" />
    <path
       style="color:#000000;font-style:normal;font-variant:normal;font-weight:normal;font-stretch:normal;font-size:medium;line-height:normal;font-family:sans-serif;font-variant-ligatures:normal;font-variant-position:normal;font-variant-caps:normal;font-variant-numeric:normal;font-variant-alternates:normal;font-feature-settings:normal;text-indent:0;text-align:start;text-decoration:none;text-decoration-line:none;text-decoration-style:solid;text-decoration-color:#000000;letter-spacing:normal;word-spacing:normal;text-transform:none;writing-mode:lr-tb;direction:ltr;text-orientation:mixed;dominant-baseline:auto;baseline-shift:baseline;text-anchor:start;white-space:normal;shape-padding:0;clip-rule:nonzero;display:inline;overflow:visible;visibility:visible;opacity:1;isolation:auto;mix-blend-mode:normal;color-interpolation:sRGB;color-interpolation-filters:linearRGB;solid-color:#000000;solid-opacity:1;vector-effect:none;fill:#000000;fill-opacity:1;fill-rule:nonzero;stroke:none;stroke-width:15.18058014;stroke-linecap:butt;stroke-linejoin:miter;stroke-miterlimit:4;stroke-dasharray:none;stroke-dashoffset:0;stroke-opacity:1;color-rendering:auto;image-rendering:auto;shape-rendering:auto;text-rendering:auto;enable-background:accumulate"
       d="m 327.82812,505.79145 c 0,0 -20.50288,8.39253 -36.80664,28.99219 -16.30376,20.59966 -28.26455,54.25744 -12.76758,101.37891 l 14.42188,-4.74219 c -14.15128,-43.02963 -3.4846,-69.86129 10.25,-87.21484 13.7346,-17.35356 30.68164,-24.37696 30.68164,-24.37696 z"
       id="path6873"
       inkscape:connector-curvature="0" />
    <path
       style="color:#000000;font-style:normal;font-variant:normal;font-weight:normal;font-stretch:normal;font-size:medium;line-height:normal;font-family:sans-serif;font-variant-ligatures:normal;font-variant-position:normal;font-variant-caps:normal;font-variant-numeric:normal;font-variant-alternates:normal;font-feature-settings:normal;text-indent:0;text-align:start;text-decoration:none;text-decoration-line:none;text-decoration-style:solid;text-decoration-color:#000000;letter-spacing:normal;word-spacing:normal;text-transform:none;writing-mode:lr-tb;direction:ltr;text-orientation:mixed;dominant-baseline:auto;baseline-shift:baseline;text-anchor:start;white-space:normal;shape-padding:0;clip-rule:nonzero;display:inline;overflow:visible;visibility:visible;opacity:1;isolation:auto;mix-blend-mode:normal;color-interpolation:sRGB;color-interpolation-filters:linearRGB;solid-color:#000000;solid-opacity:1;vector-effect:none;fill:#000000;fill-opacity:1;fill-rule:nonzero;stroke:none;stroke-width:15.18058014;stroke-linecap:butt;stroke-linejoin:miter;stroke-miterlimit:4;stroke-dasharray:none;stroke-dashoffset:0;stroke-opacity:1;color-rendering:auto;image-rendering:auto;shape-rendering:auto;text-rendering:auto;enable-background:accumulate"
       d="m 253.01172,431.32856 c 0,0 -4.05758,6.2037 -5.56446,15.48047 -1.50687,9.27677 -0.62106,22.30366 7.69336,36.3125 l 13.05469,-7.74805 c -6.5097,-10.96809 -6.79251,-19.79704 -5.76367,-26.13085 1.02884,-6.33382 3.21289,-9.4961 3.21289,-9.4961 z"
       id="path6875"
       inkscape:connector-curvature="0" />
    <path
       style="color:#000000;font-style:normal;font-variant:normal;font-weight:normal;font-stretch:normal;font-size:medium;line-height:normal;font-family:sans-serif;font-variant-ligatures:normal;font-variant-position:normal;font-variant-caps:normal;font-variant-numeric:normal;font-variant-alternates:normal;font-feature-settings:normal;text-indent:0;text-align:start;text-decoration:none;text-decoration-line:none;text-decoration-style:solid;text-decoration-color:#000000;letter-spacing:normal;word-spacing:normal;text-transform:none;writing-mode:lr-tb;direction:ltr;text-orientation:mixed;dominant-baseline:auto;baseline-shift:baseline;text-anchor:start;white-space:normal;shape-padding:0;clip-rule:nonzero;display:inline;overflow:visible;visibility:visible;opacity:1;isolation:auto;mix-blend-mode:normal;color-interpolation:sRGB;color-interpolation-filters:linearRGB;solid-color:#000000;solid-opacity:1;vector-effect:none;fill:#000000;fill-opacity:1;fill-rule:nonzero;stroke:none;stroke-width:15.18058014;stroke-linecap:butt;stroke-linejoin:miter;stroke-miterlimit:4;stroke-dasharray:none;stroke-dashoffset:0;stroke-opacity:1;color-rendering:auto;image-rendering:auto;shape-rendering:auto;text-rendering:auto;enable-background:accumulate"
       d="m 452,644.71528 c 0,0 -13.71961,2.96022 -28.92774,7.12305 -7.60406,2.08141 -15.59195,4.46077 -22.57812,6.98828 -6.98618,2.52751 -12.74727,4.78947 -17.27148,8.53516 l 9.68164,11.69336 c 1.13235,-0.9375 6.39104,-3.65113 12.7539,-5.95313 6.36286,-2.302 14.05551,-4.60474 21.42188,-6.62109 14.73273,-4.03271 28.12304,-6.92774 28.12304,-6.92774 z"
       id="path6877"
       inkscape:connector-curvature="0" />
    <path
       style="color:#000000;font-style:normal;font-variant:normal;font-weight:normal;font-stretch:normal;font-size:medium;line-height:normal;font-family:sans-serif;font-variant-ligatures:normal;font-variant-position:normal;font-variant-caps:normal;font-variant-numeric:normal;font-variant-alternates:normal;font-feature-settings:normal;text-indent:0;text-align:start;text-decoration:none;text-decoration-line:none;text-decoration-style:solid;text-decoration-color:#000000;letter-spacing:normal;word-spacing:normal;text-transform:none;writing-mode:lr-tb;direction:ltr;text-orientation:mixed;dominant-baseline:auto;baseline-shift:baseline;text-anchor:start;white-space:normal;shape-padding:0;clip-rule:nonzero;display:inline;overflow:visible;visibility:visible;opacity:1;isolation:auto;mix-blend-mode:normal;color-interpolation:sRGB;color-interpolation-filters:linearRGB;solid-color:#000000;solid-opacity:1;vector-effect:none;fill:#000000;fill-opacity:1;fill-rule:nonzero;stroke:none;stroke-width:15.18058014;stroke-linecap:butt;stroke-linejoin:miter;stroke-miterlimit:4;stroke-dasharray:none;stroke-dashoffset:0;stroke-opacity:1;color-rendering:auto;image-rendering:auto;shape-rendering:auto;text-rendering:auto;enable-background:accumulate"
       d="m 411.66601,438.71723 -9.07031,6.25 c 0,0 -9.18969,6.19343 -16.34375,15.46875 -3.57703,4.63766 -6.87335,10.18843 -7.79687,16.87696 -0.92352,6.68853 1.33565,14.47273 7.24414,20.3457 l 10.70312,-10.76562 c -3.04458,-3.02629 -3.27998,-4.82546 -2.91015,-7.50391 0.36982,-2.67845 2.15532,-6.27962 4.77929,-9.68164 1.29324,-1.6767 2.7377,-3.26518 4.17578,-4.71484 l 5.41797,22.21289 14.74805,-3.59766 z"
       id="path7424"
       inkscape:connector-curvature="0" />
    <path
       style="color:#000000;font-style:normal;font-variant:normal;font-weight:normal;font-stretch:normal;font-size:medium;line-height:normal;font-family:sans-serif;font-variant-ligatures:normal;font-variant-position:normal;font-variant-caps:normal;font-variant-numeric:normal;font-variant-alternates:normal;font-feature-settings:normal;text-indent:0;text-align:start;text-decoration:none;text-decoration-line:none;text-decoration-style:solid;text-decoration-color:#000000;letter-spacing:normal;word-spacing:normal;text-transform:none;writing-mode:lr-tb;direction:ltr;text-orientation:mixed;dominant-baseline:auto;baseline-shift:baseline;text-anchor:start;white-space:normal;shape-padding:0;clip-rule:nonzero;display:inline;overflow:visible;visibility:visible;opacity:1;isolation:auto;mix-blend-mode:normal;color-interpolation:sRGB;color-interpolation-filters:linearRGB;solid-color:#000000;solid-opacity:1;vector-effect:none;fill:#000000;fill-opacity:1;fill-rule:nonzero;stroke:none;stroke-width:15.18058014;stroke-linecap:butt;stroke-linejoin:miter;stroke-miterlimit:4;stroke-dasharray:none;stroke-dashoffset:0;stroke-opacity:1;color-rendering:auto;image-rendering:auto;shape-rendering:auto;text-rendering:auto;enable-background:accumulate"
       d="m 391.79492,496.59419 -8.96875,3.75 c -13.16745,5.50672 -21.6889,11.46425 -26.57617,18.63086 -4.88728,7.16661 -4.99699,16.14077 -1.35547,22.50586 3.64152,6.36509 9.79063,10.51812 16.60156,13.08984 6.81093,2.57172 14.49228,3.54468 22.01563,2.1582 l 7.23633,-1.33203 z m -11.98828,22.12304 3.5293,23.16797 c -2.22533,-0.27372 -4.45555,-0.75177 -6.47852,-1.51562 -4.34727,-1.64148 -7.60058,-4.35523 -8.78516,-6.42578 -1.18457,-2.07056 -1.54361,-3.09852 0.71875,-6.41602 1.57988,-2.31669 5.1476,-5.47385 11.01563,-8.81055 z"
       id="path7426"
       inkscape:connector-curvature="0" />
    <path
       style="color:#000000;font-style:normal;font-variant:normal;font-weight:normal;font-stretch:normal;font-size:medium;line-height:normal;font-family:sans-serif;font-variant-ligatures:normal;font-variant-position:normal;font-variant-caps:normal;font-variant-numeric:normal;font-variant-alternates:normal;font-feature-settings:normal;text-indent:0;text-align:start;text-decoration:none;text-decoration-line:none;text-decoration-style:solid;text-decoration-color:#000000;letter-spacing:normal;word-spacing:normal;text-transform:none;writing-mode:lr-tb;direction:ltr;text-orientation:mixed;dominant-baseline:auto;baseline-shift:baseline;text-anchor:start;white-space:normal;shape-padding:0;clip-rule:nonzero;display:inline;overflow:visible;visibility:visible;opacity:1;isolation:auto;mix-blend-mode:normal;color-interpolation:sRGB;color-interpolation-filters:linearRGB;solid-color:#000000;solid-opacity:1;vector-effect:none;fill:#000000;fill-opacity:1;fill-rule:nonzero;stroke:none;stroke-width:15.18058014;stroke-linecap:butt;stroke-linejoin:miter;stroke-miterlimit:4;stroke-dasharray:none;stroke-dashoffset:0;stroke-opacity:1;color-rendering:auto;image-rendering:auto;shape-rendering:auto;text-rendering:auto;enable-background:accumulate"
       d="m 427.23047,544.4477 -6.81641,0.50586 c -16.3049,1.20719 -26.56516,4.29913 -32.37695,11.89453 -2.9059,3.79771 -3.89887,8.79081 -3.19336,13.01563 0.70551,4.22482 2.67456,7.7955 5.09375,10.98437 4.83838,6.37775 11.73716,11.49967 18.83594,15.08985 7.09877,3.59018 14.09834,6.5967 22.09375,3.5625 l 5.89843,-2.23828 z m -12.44141,16.52735 4.10156,22.72265 c -1.05859,-0.35294 -2.15195,-0.7434 -3.26562,-1.30664 -5.24614,-2.65321 -10.77214,-6.99747 -13.59375,-10.71679 -1.41081,-1.85967 -2.07845,-3.49376 -2.21485,-4.31055 -0.13639,-0.81679 -0.17416,-0.70094 0.27735,-1.29102 0.73979,-0.96683 5.24113,-3.57207 14.69531,-5.09765 z"
       id="path7430"
       inkscape:connector-curvature="0" />
    <path
       style="color:#000000;font-style:normal;font-variant:normal;font-weight:normal;font-stretch:normal;font-size:medium;line-height:normal;font-family:sans-serif;font-variant-ligatures:normal;font-variant-position:normal;font-variant-caps:normal;font-variant-numeric:normal;font-variant-alternates:normal;font-feature-settings:normal;text-indent:0;text-align:start;text-decoration:none;text-decoration-line:none;text-decoration-style:solid;text-decoration-color:#000000;letter-spacing:normal;word-spacing:normal;text-transform:none;writing-mode:lr-tb;direction:ltr;text-orientation:mixed;dominant-baseline:auto;baseline-shift:baseline;text-anchor:start;white-space:normal;shape-padding:0;clip-rule:nonzero;display:inline;overflow:visible;visibility:visible;opacity:1;isolation:auto;mix-blend-mode:normal;color-interpolation:sRGB;color-interpolation-filters:linearRGB;solid-color:#000000;solid-opacity:1;vector-effect:none;fill:#000000;fill-opacity:1;fill-rule:nonzero;stroke:none;stroke-width:15.18058014;stroke-linecap:butt;stroke-linejoin:miter;stroke-miterlimit:4;stroke-dasharray:none;stroke-dashoffset:0;stroke-opacity:1;color-rendering:auto;image-rendering:auto;shape-rendering:auto;text-rendering:auto;enable-background:accumulate"
       d="m 454.02148,596.08247 c -16.10065,-0.36059 -26.38816,1.46113 -33.29687,7.5 -3.45436,3.01943 -5.5571,7.45417 -5.80664,11.63867 -0.24954,4.1845 0.94613,7.94272 2.61719,11.30859 3.34211,6.73176 8.79463,12.40003 14.3789,16.97461 5.58427,4.57459 10.40079,8.10532 16.83203,9.11329 l 7.97071,1.25 5.46093,-57.60352 z m -8.53515,15.4082 -2.04102,21.5293 c -0.66615,-0.46789 -1.26745,-0.73131 -1.91015,-1.25781 -4.38572,-3.59274 -8.63525,-8.42309 -10.40235,-11.98243 -0.88355,-1.77966 -1.09278,-3.11374 -1.06055,-3.65429 0.0322,-0.54056 -0.10202,-0.46243 0.64258,-1.11328 1.16717,-1.02022 5.89319,-2.89239 14.77149,-3.52149 z"
       id="path7432"
       inkscape:connector-curvature="0" />
    <path
       style="color:#000000;font-style:normal;font-variant:normal;font-weight:normal;font-stretch:normal;font-size:medium;line-height:normal;font-family:sans-serif;font-variant-ligatures:normal;font-variant-position:normal;font-variant-caps:normal;font-variant-numeric:normal;font-variant-alternates:normal;font-feature-settings:normal;text-indent:0;text-align:start;text-decoration:none;text-decoration-line:none;text-decoration-style:solid;text-decoration-color:#000000;letter-spacing:normal;word-spacing:normal;text-transform:none;writing-mode:lr-tb;direction:ltr;text-orientation:mixed;dominant-baseline:auto;baseline-shift:baseline;text-anchor:start;white-space:normal;shape-padding:0;clip-rule:nonzero;display:inline;overflow:visible;visibility:visible;opacity:1;isolation:auto;mix-blend-mode:normal;color-interpolation:sRGB;color-interpolation-filters:linearRGB;solid-color:#000000;solid-opacity:1;vector-effect:none;fill:#000000;fill-opacity:1;fill-rule:nonzero;stroke:none;stroke-width:15.18058014;stroke-linecap:butt;stroke-linejoin:miter;stroke-miterlimit:4;stroke-dasharray:none;stroke-dashoffset:0;stroke-opacity:1;color-rendering:auto;image-rendering:auto;shape-rendering:auto;text-rendering:auto;enable-background:accumulate"
       d="m 593.5,703.80513 c -6.26807,-0.28758 -11.59813,1.31988 -15.35352,4.5625 -10.01437,8.64698 -6.71093,21.72851 -6.71093,21.72851 l 14.98828,-2.4043 c 0,0 0.15297,-6.54608 1.64453,-7.83398 0.74578,-0.64395 2.35579,-1.77151 8.56445,-0.33399 6.20867,1.43753 16.21613,5.81482 30.43164,15.2168 l 8.37305,-12.66211 c -15.09431,-9.98321 -26.28167,-15.23741 -35.37891,-17.34375 -2.27431,-0.52658 -4.46924,-0.83383 -6.55859,-0.92968 z"
       id="path7434"
       inkscape:connector-curvature="0" />
    <path
       inkscape:connector-curvature="0"
       id="path59-17-20"
       d="m 310.38945,21.773922 c -40.73863,-0.74762 -79.52617,28.94106 -128.63638,87.707478 l 15.8748,13.26609 c 47.8224,-57.225208 82.27736,-80.843608 112.38257,-80.291228 30.10508,0.55251 62.48777,25.58791 105.63239,76.188238 l 15.74242,-13.4209 C 387.19003,53.390992 351.12752,22.521542 310.38945,21.773922 Z"
       style="color:#000000;font-style:normal;font-variant:normal;font-weight:normal;font-stretch:normal;font-size:medium;line-height:normal;font-family:sans-serif;font-variant-ligatures:normal;font-variant-position:normal;font-variant-caps:normal;font-variant-numeric:normal;font-variant-alternates:normal;font-feature-settings:normal;text-indent:0;text-align:start;text-decoration:none;text-decoration-line:none;text-decoration-style:solid;text-decoration-color:#000000;letter-spacing:normal;word-spacing:normal;text-transform:none;writing-mode:lr-tb;direction:ltr;text-orientation:mixed;dominant-baseline:auto;baseline-shift:baseline;text-anchor:start;white-space:normal;shape-padding:0;clip-rule:nonzero;display:inline;overflow:visible;visibility:visible;opacity:1;isolation:auto;mix-blend-mode:normal;color-interpolation:sRGB;color-interpolation-filters:linearRGB;solid-color:#000000;solid-opacity:1;vector-effect:none;fill:#000000;fill-opacity:1;fill-rule:nonzero;stroke:none;stroke-width:20.68567848;stroke-linecap:butt;stroke-linejoin:miter;stroke-miterlimit:4;stroke-dasharray:none;stroke-dashoffset:0;stroke-opacity:1;color-rendering:auto;image-rendering:auto;shape-rendering:auto;text-rendering:auto;enable-background:accumulate" />
    <path
       inkscape:connector-curvature="0"
       id="path59-1-8-1"
       d="m 308.17829,166.51288 c -27.88644,-1.00296 -57.04975,10.21149 -91.29852,35.50861 l 12.28998,16.63945 c 32.11848,-23.72364 56.37373,-32.26582 78.26632,-31.47846 21.89246,0.78736 42.99908,11.13248 68.20966,29.2169 l 12.05624,-16.80672 c -26.60432,-19.08435 -51.63723,-32.07695 -79.52368,-33.07978 z"
       style="color:#000000;font-style:normal;font-variant:normal;font-weight:normal;font-stretch:normal;font-size:medium;line-height:normal;font-family:sans-serif;font-variant-ligatures:normal;font-variant-position:normal;font-variant-caps:normal;font-variant-numeric:normal;font-variant-alternates:normal;font-feature-settings:normal;text-indent:0;text-align:start;text-decoration:none;text-decoration-line:none;text-decoration-style:solid;text-decoration-color:#000000;letter-spacing:normal;word-spacing:normal;text-transform:none;writing-mode:lr-tb;direction:ltr;text-orientation:mixed;dominant-baseline:auto;baseline-shift:baseline;text-anchor:start;white-space:normal;shape-padding:0;clip-rule:nonzero;display:inline;overflow:visible;visibility:visible;opacity:1;isolation:auto;mix-blend-mode:normal;color-interpolation:sRGB;color-interpolation-filters:linearRGB;solid-color:#000000;solid-opacity:1;vector-effect:none;fill:#000000;fill-opacity:1;fill-rule:nonzero;stroke:none;stroke-width:20.68567848;stroke-linecap:butt;stroke-linejoin:miter;stroke-miterlimit:4;stroke-dasharray:none;stroke-dashoffset:0;stroke-opacity:1;color-rendering:auto;image-rendering:auto;shape-rendering:auto;text-rendering:auto;enable-background:accumulate" />
    <path
       inkscape:connector-curvature="0"
       id="path59-17-5-2"
       d="m 586.23433,18.883832 c -40.73821,-0.74762 -79.52575,28.94106 -128.63637,87.707478 l 15.87521,13.26276 c 47.8224,-57.224918 82.27681,-80.840278 112.38216,-80.287768 30.10535,0.55238 62.48805,25.58778 105.63266,76.188108 l 15.74228,-13.4209 C 663.03477,50.500902 626.97269,19.631592 586.23433,18.883832 Z"
       style="color:#000000;font-style:normal;font-variant:normal;font-weight:normal;font-stretch:normal;font-size:medium;line-height:normal;font-family:sans-serif;font-variant-ligatures:normal;font-variant-position:normal;font-variant-caps:normal;font-variant-numeric:normal;font-variant-alternates:normal;font-feature-settings:normal;text-indent:0;text-align:start;text-decoration:none;text-decoration-line:none;text-decoration-style:solid;text-decoration-color:#000000;letter-spacing:normal;word-spacing:normal;text-transform:none;writing-mode:lr-tb;direction:ltr;text-orientation:mixed;dominant-baseline:auto;baseline-shift:baseline;text-anchor:start;white-space:normal;shape-padding:0;clip-rule:nonzero;display:inline;overflow:visible;visibility:visible;opacity:1;isolation:auto;mix-blend-mode:normal;color-interpolation:sRGB;color-interpolation-filters:linearRGB;solid-color:#000000;solid-opacity:1;vector-effect:none;fill:#000000;fill-opacity:1;fill-rule:nonzero;stroke:none;stroke-width:20.68567848;stroke-linecap:butt;stroke-linejoin:miter;stroke-miterlimit:4;stroke-dasharray:none;stroke-dashoffset:0;stroke-opacity:1;color-rendering:auto;image-rendering:auto;shape-rendering:auto;text-rendering:auto;enable-background:accumulate" />
    <path
       inkscape:connector-curvature="0"
       id="path59-1-8-3-29"
       d="m 584.0236,163.61947 c -27.88645,-1.00283 -57.05032,10.21495 -91.29909,35.51193 l 12.28998,16.63945 c 32.11863,-23.72364 56.37138,-32.26569 78.26342,-31.47846 21.89232,0.7875 43.00199,11.13248 68.21256,29.2169 l 12.05666,-16.80672 C 636.9424,177.61836 611.9099,164.6223 584.0236,163.61947 Z"
       style="color:#000000;font-style:normal;font-variant:normal;font-weight:normal;font-stretch:normal;font-size:medium;line-height:normal;font-family:sans-serif;font-variant-ligatures:normal;font-variant-position:normal;font-variant-caps:normal;font-variant-numeric:normal;font-variant-alternates:normal;font-feature-settings:normal;text-indent:0;text-align:start;text-decoration:none;text-decoration-line:none;text-decoration-style:solid;text-decoration-color:#000000;letter-spacing:normal;word-spacing:normal;text-transform:none;writing-mode:lr-tb;direction:ltr;text-orientation:mixed;dominant-baseline:auto;baseline-shift:baseline;text-anchor:start;white-space:normal;shape-padding:0;clip-rule:nonzero;display:inline;overflow:visible;visibility:visible;opacity:1;isolation:auto;mix-blend-mode:normal;color-interpolation:sRGB;color-interpolation-filters:linearRGB;solid-color:#000000;solid-opacity:1;vector-effect:none;fill:#000000;fill-opacity:1;fill-rule:nonzero;stroke:none;stroke-width:20.68567848;stroke-linecap:butt;stroke-linejoin:miter;stroke-miterlimit:4;stroke-dasharray:none;stroke-dashoffset:0;stroke-opacity:1;color-rendering:auto;image-rendering:auto;shape-rendering:auto;text-rendering:auto;enable-background:accumulate" />
    <path
       style="font-style:normal;font-weight:normal;font-size:233.33332825px;line-height:1.25;font-family:sans-serif;letter-spacing:0px;word-spacing:0px;fill:#000000;fill-opacity:1;stroke:none"
       d="M 723.8125 1062.0117 C 723.58464 1067.3286 722.36871 1071.7346 720.16602 1075.2285 C 718.03928 1078.7224 715.03971 1080.4688 711.16602 1080.4688 C 708.65951 1080.4688 705.99978 1079.7086 703.18945 1078.1895 C 700.45508 1076.5944 697.30425 1074.2411 693.73438 1071.127 C 690.54427 1068.3926 687.16363 1066.3025 683.59375 1064.8594 C 680.09983 1063.3403 676.45399 1062.582 672.65625 1062.582 C 664.8329 1062.582 658.22483 1065.505 652.83203 1071.3535 C 647.43924 1077.202 644.43967 1085.8609 643.83203 1097.3301 L 658.75586 1097.3301 C 659.05968 1091.5575 660.199 1086.9629 662.17383 1083.5449 C 664.14865 1080.127 667.11089 1078.418 671.06055 1078.418 C 674.02279 1078.418 676.71984 1079.2528 679.15039 1080.9238 C 681.6569 1082.5189 684.69575 1084.9507 688.26562 1088.2168 C 691.37977 1091.0271 694.68381 1093.1918 698.17773 1094.7109 C 701.67166 1096.1541 705.46875 1096.875 709.57031 1096.875 C 718.0013 1096.875 724.72331 1093.9501 729.73633 1088.1016 C 734.74935 1082.253 737.67426 1073.5569 738.50977 1062.0117 L 723.8125 1062.0117 z M 272.86719 1075.6836 L 272.86719 1097.9004 L 297.02148 1097.9004 L 297.02148 1075.6836 L 272.86719 1075.6836 z M 0 1076.8223 L 0 1246.4688 L 22.558594 1246.4688 L 22.558594 1183.2363 L 45.117188 1183.2363 C 57.269965 1183.2363 67.333334 1181.7925 75.308594 1178.9062 C 83.283854 1175.944 90.196398 1171.538 96.044922 1165.6895 C 100.75412 1160.9803 104.39996 1155.4368 106.98242 1149.0566 C 109.64084 1142.6005 110.9707 1135.6113 110.9707 1128.0918 C 110.9707 1118.2177 109.18511 1110.0538 105.61523 1103.5977 C 102.12131 1097.1415 97.145616 1091.7474 90.689453 1087.418 C 85.220703 1083.7721 78.954427 1081.1144 71.890625 1079.4434 C 64.826823 1077.6964 56.207248 1076.8223 46.029297 1076.8223 L 0 1076.8223 z M 446.1582 1076.8223 L 446.1582 1246.4688 L 467.23633 1246.4688 L 467.23633 1100.293 L 514.0625 1199.7559 L 527.50586 1199.7559 L 574.67383 1100.293 L 574.67383 1246.4688 L 597.23242 1246.4688 L 597.23242 1076.8223 L 565.90234 1076.8223 L 522.15234 1171.2734 L 476.91992 1076.8223 L 446.1582 1076.8223 z M 22.558594 1096.1914 L 44.888672 1096.1914 C 52.028429 1096.1914 57.915582 1096.7237 62.548828 1097.7871 C 67.258029 1098.7745 71.436198 1100.4442 75.082031 1102.7988 C 79.259549 1105.5332 82.373047 1109.0651 84.423828 1113.3945 C 86.474609 1117.724 87.5 1122.8136 87.5 1128.6621 C 87.5 1133.6751 86.7398 1138.1951 85.220703 1142.2207 C 83.777561 1146.2463 81.27105 1150.0807 77.701172 1153.7266 C 74.131293 1157.2964 69.499349 1159.9169 63.802734 1161.5879 C 58.10612 1163.1829 50.700521 1163.9805 41.585938 1163.9805 L 22.558594 1163.9805 L 22.558594 1096.1914 z M 834.55469 1115.6738 C 816.0217 1115.6738 801.05729 1121.7888 789.66406 1134.0176 C 778.34679 1146.2463 772.68945 1162.7665 772.68945 1183.5781 C 772.68945 1204.6176 778.61393 1220.8707 790.46289 1232.3398 C 802.31185 1243.7331 818.79275 1249.4297 839.9082 1249.4297 C 848.18728 1249.4297 856.08789 1248.4043 863.60742 1246.3535 C 871.12695 1244.3027 878.49327 1241.7589 885.70898 1238.7207 L 885.70898 1215.3652 L 884.57031 1215.3652 C 880.84852 1218.7072 874.58225 1222.1252 865.77148 1225.6191 C 857.03668 1229.0371 848.34049 1230.7461 839.68164 1230.7461 C 833.14952 1230.7461 827.14844 1229.8346 821.67969 1228.0117 C 816.28689 1226.1888 811.61567 1223.4544 807.66602 1219.8086 C 803.56445 1216.0868 800.33702 1211.339 797.98242 1205.5664 C 795.62782 1199.7179 794.44922 1192.8819 794.44922 1185.0586 L 888.2168 1185.0586 L 888.2168 1173.4375 C 888.2168 1154.9805 883.54557 1140.7389 874.20312 1130.7129 C 864.93663 1120.6868 851.72049 1115.6738 834.55469 1115.6738 z M 177.16406 1116.1289 C 169.49262 1116.1289 161.7079 1116.8125 153.80859 1118.1797 C 145.90929 1119.5469 139.87088 1120.8001 135.69336 1121.9395 L 135.69336 1143.7012 L 136.83203 1143.7012 C 144.19965 1140.8908 151.34006 1138.7635 158.25195 1137.3203 C 165.16385 1135.8012 171.43012 1135.043 177.05078 1135.043 C 181.68403 1135.043 186.12739 1135.3455 190.38086 1135.9531 C 194.63433 1136.5608 198.28016 1137.7394 201.31836 1139.4863 C 204.50846 1141.3092 206.93837 1143.8158 208.60938 1147.0059 C 210.35634 1150.196 211.23047 1154.2209 211.23047 1159.082 L 211.23047 1162.3867 C 198.77387 1162.9944 187.11545 1163.9058 176.25391 1165.1211 C 165.39236 1166.3364 156.08724 1168.6523 148.33984 1172.0703 C 140.6684 1175.4883 134.74392 1180.1968 130.56641 1186.1973 C 126.46484 1192.1217 124.41406 1199.9084 124.41406 1209.5547 C 124.41406 1221.3277 128.40169 1231.0119 136.37695 1238.6074 C 144.35221 1246.2029 154.07378 1250 165.54297 1250 C 171.77127 1250 177.20269 1249.393 181.83594 1248.1777 C 186.46918 1247.0384 190.57075 1245.5946 194.14062 1243.8477 C 197.17882 1242.4805 200.29232 1240.6576 203.48242 1238.3789 C 206.74848 1236.0243 209.3316 1234.2014 211.23047 1232.9102 L 211.23047 1246.4688 L 232.53516 1246.4688 L 232.53516 1160.1074 C 232.53516 1151.9043 231.2819 1145.031 228.77539 1139.4863 C 226.26888 1133.9416 222.62305 1129.4217 217.83789 1125.9277 C 212.97678 1122.3579 207.20551 1119.8513 200.52148 1118.4082 C 193.91341 1116.8891 186.12674 1116.1289 177.16406 1116.1289 z M 684.84766 1116.1289 C 677.17622 1116.1289 669.38954 1116.8125 661.49023 1118.1797 C 653.59093 1119.5469 647.55252 1120.8001 643.375 1121.9395 L 643.375 1143.7012 L 644.51562 1143.7012 C 651.88325 1140.8908 659.0217 1138.7635 665.93359 1137.3203 C 672.84549 1135.8012 679.11176 1135.043 684.73242 1135.043 C 689.36567 1135.043 693.80903 1135.3455 698.0625 1135.9531 C 702.31597 1136.5608 705.96181 1137.7394 709 1139.4863 C 712.1901 1141.3092 714.62196 1143.8158 716.29297 1147.0059 C 718.03993 1150.196 718.91211 1154.2209 718.91211 1159.082 L 718.91211 1162.3867 C 706.45551 1162.9944 694.79709 1163.9058 683.93555 1165.1211 C 673.074 1166.3364 663.76888 1168.6523 656.02148 1172.0703 C 648.35004 1175.4883 642.42556 1180.1968 638.24805 1186.1973 C 634.14648 1192.1217 632.0957 1199.9084 632.0957 1209.5547 C 632.0957 1221.3277 636.08333 1231.0119 644.05859 1238.6074 C 652.03385 1246.2029 661.75738 1250 673.22656 1250 C 679.45486 1250 684.88433 1249.393 689.51758 1248.1777 C 694.15082 1247.0384 698.25239 1245.5946 701.82227 1243.8477 C 704.86046 1242.4805 707.97591 1240.6576 711.16602 1238.3789 C 714.43207 1236.0243 717.01324 1234.2014 718.91211 1232.9102 L 718.91211 1246.4688 L 740.21875 1246.4688 L 740.21875 1160.1074 C 740.21875 1151.9043 738.96549 1145.031 736.45898 1139.4863 C 733.95247 1133.9416 730.30664 1129.4217 725.52148 1125.9277 C 720.66037 1122.3579 714.88715 1119.8513 708.20312 1118.4082 C 701.59505 1116.8891 693.81033 1116.1289 684.84766 1116.1289 z M 274.23438 1119.2051 L 274.23438 1246.4688 L 295.6543 1246.4688 L 295.6543 1119.2051 L 274.23438 1119.2051 z M 833.41406 1133.334 C 844.80729 1133.334 853.27756 1136.4102 858.82227 1142.5625 C 864.44293 1148.7148 867.29123 1157.411 867.36719 1168.6523 L 794.44922 1168.6523 C 795.36068 1158.6263 799.19705 1150.2326 805.95703 1143.4727 C 812.79297 1136.7127 821.94488 1133.334 833.41406 1133.334 z M 334.61914 1161.9297 L 334.61914 1182.5527 L 405.71289 1182.5527 L 405.71289 1161.9297 L 334.61914 1161.9297 z M 211.23047 1179.7031 L 211.23047 1215.1367 C 205.91363 1219.2383 200.14041 1222.7702 193.91211 1225.7324 C 187.68381 1228.6187 180.81055 1230.0625 173.29102 1230.0625 C 164.25239 1230.0625 157.53038 1228.2396 153.125 1224.5938 C 148.71962 1220.872 146.51758 1215.3639 146.51758 1208.0723 C 146.51758 1201.6161 148.41515 1196.5658 152.21289 1192.9199 C 156.01063 1189.1981 160.98633 1186.4638 167.13867 1184.7168 C 172.3036 1183.2737 179.2908 1182.1717 188.10156 1181.4121 C 196.98828 1180.6526 204.69835 1180.0829 211.23047 1179.7031 z M 718.91211 1179.7031 L 718.91211 1215.1367 C 713.59527 1219.2383 707.824 1222.7702 701.5957 1225.7324 C 695.3674 1228.6187 688.49219 1230.0625 680.97266 1230.0625 C 671.93403 1230.0625 665.21202 1228.2396 660.80664 1224.5938 C 656.40126 1220.872 654.19922 1215.3639 654.19922 1208.0723 C 654.19922 1201.6161 656.09874 1196.5658 659.89648 1192.9199 C 663.69423 1189.1981 668.66797 1186.4638 674.82031 1184.7168 C 679.98524 1183.2737 686.97439 1182.1717 695.78516 1181.4121 C 704.67187 1180.6526 712.37999 1180.0829 718.91211 1179.7031 z "
       transform="translate(0,-217.58335)"
       id="text579" />
  </g>
</svg>
