<?xml version="1.0" encoding="UTF-8" standalone="no"?>
<!-- Created with Inkscape (http://www.inkscape.org/) -->

<svg
   xmlns:dc="http://purl.org/dc/elements/1.1/"
   xmlns:cc="http://creativecommons.org/ns#"
   xmlns:rdf="http://www.w3.org/1999/02/22-rdf-syntax-ns#"
   xmlns:svg="http://www.w3.org/2000/svg"
   xmlns="http://www.w3.org/2000/svg"
   xmlns:sodipodi="http://sodipodi.sourceforge.net/DTD/sodipodi-0.dtd"
   xmlns:inkscape="http://www.inkscape.org/namespaces/inkscape"
   width="1000"
   height="1250"
   viewBox="0 0 1000 1250"
   version="1.1"
   id="svg10152"
   inkscape:version="0.92.4 (5da689c313, 2019-01-14)"
   sodipodi:docname="Sentir.svg">
  <defs
     id="defs10146" />
  <sodipodi:namedview
     id="base"
     pagecolor="#ffffff"
     bordercolor="#666666"
     borderopacity="1.0"
     inkscape:pageopacity="0.0"
     inkscape:pageshadow="2"
     inkscape:zoom="0.35355339"
     inkscape:cx="995.62514"
     inkscape:cy="1105.2612"
     inkscape:document-units="px"
     inkscape:current-layer="layer1"
     showgrid="false"
     units="px"
     inkscape:window-width="1366"
     inkscape:window-height="715"
     inkscape:window-x="-8"
     inkscape:window-y="-8"
     inkscape:window-maximized="1" />
  <metadata
     id="metadata10149">
    <rdf:RDF>
      <cc:Work
         rdf:about="">
        <dc:format>image/svg+xml</dc:format>
        <dc:type
           rdf:resource="http://purl.org/dc/dcmitype/StillImage" />
        <dc:title />
      </cc:Work>
    </rdf:RDF>
  </metadata>
  <g
     inkscape:label="Camada 1"
     inkscape:groupmode="layer"
     id="layer1"
     transform="translate(0,217.58335)">
    <path
       style="color:#000000;font-style:normal;font-variant:normal;font-weight:normal;font-stretch:normal;font-size:medium;line-height:normal;font-family:sans-serif;font-variant-ligatures:normal;font-variant-position:normal;font-variant-caps:normal;font-variant-numeric:normal;font-variant-alternates:normal;font-feature-settings:normal;text-indent:0;text-align:start;text-decoration:none;text-decoration-line:none;text-decoration-style:solid;text-decoration-color:#000000;letter-spacing:normal;word-spacing:normal;text-transform:none;writing-mode:lr-tb;direction:ltr;text-orientation:mixed;dominant-baseline:auto;baseline-shift:baseline;text-anchor:start;white-space:normal;shape-padding:0;clip-rule:nonzero;display:inline;overflow:visible;visibility:visible;opacity:1;isolation:auto;mix-blend-mode:normal;color-interpolation:sRGB;color-interpolation-filters:linearRGB;solid-color:#000000;solid-opacity:1;vector-effect:none;fill:#000000;fill-opacity:1;fill-rule:nonzero;stroke:none;stroke-width:11.06670856;stroke-linecap:butt;stroke-linejoin:miter;stroke-miterlimit:4;stroke-dasharray:none;stroke-dashoffset:0;stroke-opacity:1;color-rendering:auto;image-rendering:auto;shape-rendering:auto;text-rendering:auto;enable-background:accumulate"
       d="m 502.23828,589.41469 c -13.0842,4.43929 -54.30078,12.4082 -54.30078,12.4082 l -0.59961,0.11328 -0.5586,0.24024 c -8.6513,3.7267 -14.16467,6.91582 -17.86133,10.10156 -3.69665,3.18574 -5.99851,7.10453 -5.42773,11.18164 0.57078,4.07711 3.36765,6.27085 5.26367,7.45117 1.89602,1.18032 3.67774,1.70313 3.67774,1.70313 l 1.33593,0.4082 1.36719,-0.27344 c 3.22952,-0.6459 11.60731,-0.79111 18.57813,-0.57031 6.85849,0.21724 12.45359,0.63851 12.63867,0.65234 4.42146,1.1173 9.17456,0.91305 13.53711,0.69336 4.68505,-0.23592 8.58398,-0.70898 8.58398,-0.70898 l 0.40235,-0.0488 0.39062,-0.10547 c 10.12717,-2.76204 18.21289,-1.42383 18.21289,-1.42383 l -0.30859,-0.0605 c 17.75092,4.0082 33.43359,-1.73047 33.43359,-1.73047 l 0.35352,-0.125 0.33203,-0.17383 c 2.48218,-1.28705 3.70719,-1.18435 4.76562,-0.87305 1.05844,0.31131 2.20025,1.14342 3.2793,2.44727 2.0287,2.45134 3.14557,5.70652 3.2832,6.11523 0.8818,5.18826 -0.62383,8.29039 -2.38672,10.59571 -1.79692,2.34983 -3.59178,3.32812 -3.59178,3.32812 l -1.59181,0.86719 -0.76953,1.64062 c -0.85995,1.83455 -4.24397,4.25709 -7.86719,5.69532 -3.62322,1.43822 -6.83984,2.0039 -6.83984,2.0039 l -0.76758,0.13274 -0.69921,0.3379 c -2.38875,1.15447 -9.54148,2.76098 -17.97852,3.75976 -8.43705,0.99878 -18.43368,1.6633 -27.96679,2.09375 -19.06623,0.86091 -36.25586,0.79883 -36.25586,0.79883 l 0.58594,0.0332 c -7.45287,-0.8205 -12.95036,-0.55916 -17.30469,0.62696 -4.35433,1.18611 -7.67769,3.54962 -9.47266,6.49218 -3.55883,5.83411 -0.84448,11.71192 -0.79687,11.81446 4.71724,12.95033 15.64942,22.36207 25.16797,28.85351 9.58357,6.5358 18.17578,10.14258 18.17578,10.14258 l 3.12109,1.31445 2.58984,-2.18359 c 0.66839,-0.56317 0.95004,-0.75859 1.25586,-0.92774 2.15493,1.77797 3.43266,3.44815 3.92773,4.92188 0.61456,1.8294 0.52512,3.68704 -0.004,5.61914 -1.05805,3.8642 -3.84961,7.14062 -3.84961,7.14063 l -0.27148,0.30273 -0.22655,0.33789 c -2.25732,3.38596 -5.82506,5.08814 -11.09767,5.7168 -5.2726,0.62865 -11.87078,-0.123 -18.18945,-1.55078 -12.63736,-2.85557 -23.93555,-8.15821 -23.93555,-8.15821 l 0.75392,0.43164 C 391.6925,722.21862 365.62491,728.43422 365.62491,728.43422 l 0.10743,-0.0254 c -60.50135,13.21879 -106.55275,10.68554 -106.55275,10.68554 l 0.68555,0.0801 c -6.45337,-1.17334 -12.50135,1.37043 -18.11523,4.8086 -5.61389,3.43816 -10.9698,8.07979 -15.74805,12.75779 -9.5565,9.356 -16.81836,19.0176 -16.81836,19.0176 l 8.83984,6.6582 c 0,0 6.88531,-9.1176 15.72071,-17.7676 4.41769,-4.325 9.31887,-8.4932 13.78515,-11.2285 4.46628,-2.7353 8.32225,-3.72745 10.35742,-3.35741 l 0.33985,0.0625 0.34571,0.0176 c 0,0 47.58168,2.61111 109.52148,-10.92187 l 0.0527,-0.0117 0.0527,-0.0137 c 0,0 21.26552,-5.10303 41.89844,8.96484 l 0.35938,0.24609 0.39257,0.18555 c 0,0 12.1101,5.7579 26.22461,8.9472 7.05726,1.5947 14.67212,2.6126 21.93946,1.7461 7.22332,-0.8612 14.46602,-3.9003 18.90429,-10.46283 0.62772,-0.69952 4.16192,-4.74006 5.9043,-11.10352 0.95003,-3.46972 1.27965,-7.72034 -0.1797,-12.06445 -1.45934,-4.34411 -4.69641,-8.51441 -9.74023,-11.87695 l -1.47852,-0.98633 -1.77733,0.0586 c -2.05739,0.0695 -4.27497,0.82263 -6.42578,1.88868 -2.47802,-1.14149 -7.3397,-3.49512 -13.90235,-7.97071 -8.61539,-5.87552 -17.77717,-14.39225 -21.08789,-23.68359 l -0.0586,-0.16406 -0.0684,-0.15821 c 0,0 -0.27617,-1.21026 0.0566,-1.75586 0.1664,-0.27279 0.55781,-0.93149 2.93164,-1.57812 2.37384,-0.64663 6.6194,-1.02757 13.18554,-0.30469 l 0.29102,0.0312 0.29297,0.002 c 0,0 17.4073,0.065 36.79688,-0.81054 9.69479,-0.43776 19.89182,-1.10725 28.76953,-2.1582 8.42507,-0.99737 15.35654,-2.13144 20.60155,-4.44141 0.7685,-0.14131 4.1739,-0.79477 8.46485,-2.49805 4.33259,-1.71981 9.53321,-4.45531 12.73242,-9.64648 1.29548,-0.84254 3.46408,-2.39924 5.79493,-5.44727 3.21903,-4.20953 6.03056,-11.0911 4.45312,-19.60937 l -0.0508,-0.27344 -0.0781,-0.26758 c 0,0 -1.47092,-5.48789 -5.48633,-10.33984 -2.0077,-2.42598 -4.82056,-4.8722 -8.68164,-6.00782 -3.86108,-1.13561 -8.5194,-0.64813 -12.98242,1.66602 l 0.68553,-0.29883 c 0,0 -13.12792,4.55152 -27.27342,1.35742 l -0.15431,-0.0352 -0.15429,-0.0254 c 0,0 -10.43438,-1.74953 -22.94336,1.66211 l 0.79297,-0.1543 c 0,0 -3.56076,0.42837 -7.81445,0.64258 -4.25369,0.2142 -9.52077,-0.0699 -10.74805,-0.44336 l -0.58593,-0.17774 -0.60938,-0.0449 c 0,0 -6.08507,-0.46009 -13.32617,-0.68945 -6.45813,-0.20456 -13.37542,-0.20778 -18.9375,0.58398 0.2458,-0.28496 0.32372,-0.44083 1.01562,-1.03711 2.18685,-1.8846 6.84263,-4.73947 14.5918,-8.11523 1.29429,-0.2418 39.59496,-7.40769 55.05859,-12.6543 z"
       id="path10165"
       inkscape:connector-curvature="0" />
    <path
       style="color:#000000;font-style:normal;font-variant:normal;font-weight:normal;font-stretch:normal;font-size:medium;line-height:normal;font-family:sans-serif;font-variant-ligatures:normal;font-variant-position:normal;font-variant-caps:normal;font-variant-numeric:normal;font-variant-alternates:normal;font-feature-settings:normal;text-indent:0;text-align:start;text-decoration:none;text-decoration-line:none;text-decoration-style:solid;text-decoration-color:#000000;letter-spacing:normal;word-spacing:normal;text-transform:none;writing-mode:lr-tb;direction:ltr;text-orientation:mixed;dominant-baseline:auto;baseline-shift:baseline;text-anchor:start;white-space:normal;shape-padding:0;clip-rule:nonzero;display:inline;overflow:visible;visibility:visible;opacity:1;isolation:auto;mix-blend-mode:normal;color-interpolation:sRGB;color-interpolation-filters:linearRGB;solid-color:#000000;solid-opacity:1;vector-effect:none;fill:#000000;fill-opacity:1;fill-rule:nonzero;stroke:none;stroke-width:11.06670856;stroke-linecap:butt;stroke-linejoin:miter;stroke-miterlimit:4;stroke-dasharray:none;stroke-dashoffset:0;stroke-opacity:1;color-rendering:auto;image-rendering:auto;shape-rendering:auto;text-rendering:auto;enable-background:accumulate"
       d="m 457.53711,458.09242 -1.04102,0.1836 c 0,0 -4.3334,0.76296 -8.99414,1.49218 -2.33037,0.36462 -4.74294,0.72028 -6.67969,0.96094 -1.93675,0.24066 -3.98396,0.24186 -3.18555,0.31445 l -0.70898,-0.0644 -0.70117,0.11719 c 0,0 -11.10006,1.37491 -19.17578,8.33789 -0.066,0.044 -43.70019,29.13105 -51.59571,34.56836 -0.58921,0.20838 -9.97879,3.5312 -20.75781,7.21875 -4.82076,1.6492 -9.60782,3.24821 -13.94726,4.66797 0.51029,-2.91158 0.54661,-6.17618 -1.01954,-9.41797 -1.94052,-4.01673 -5.7652,-7.33127 -11.26953,-9.74414 l -0.5332,-0.23438 -0.56836,-0.11718 c 0,0 -7.34283,-1.51942 -15.70703,-3.69727 -8.36421,-2.17785 -18.19727,-5.49008 -20.76953,-7.12695 l -1.20313,-0.76563 -1.42383,-0.0898 c 0,0 -6.57972,-0.3438 -14.42381,2.96484 -7.62918,3.21798 -16.859,10.12273 -23.90822,23.20117 -0.56501,0.57056 -9.66518,9.75369 -13.2539,12.54492 l -0.36913,0.28516 -0.31446,0.34375 c 0,0 -19.25116,21.01228 -41.21484,44.00977 -21.96369,22.99748 -47.24435,48.3516 -56.93359,55.45703 l -0.4961,0.36523 -0.40429,0.46289 c 0,0 -19.53092,22.36662 -27.93751,33.83008 l 8.92382,6.54492 c 7.52409,-10.26006 26.757,-32.40953 27.14258,-32.85351 12.31263,-9.23942 35.98994,-33.42078 57.70899,-56.16211 22.02798,-23.06482 41.26164,-44.05955 41.31445,-44.11719 5.59232,-4.50091 14.08984,-13.31445 14.08984,-13.31445 l 0.57617,-0.5918 0.37696,-0.73437 c 6.00257,-11.65202 13.27528,-16.65953 19,-19.07422 4.74808,-2.00274 7.54798,-2.07629 8.55664,-2.06446 5.9156,3.23892 14.25301,5.53135 22.17384,7.59375 8.22993,2.14289 14.69147,3.47794 15.416,3.62891 3.60725,1.64412 4.97866,3.21464 5.48828,4.26953 0.52629,1.08936 0.52395,2.11667 0.0898,3.58399 -0.8682,2.93463 -3.74805,6.11132 -3.74805,6.11132 l -13.01953,12.91211 17.98828,-3.55468 c 2.51321,-0.49654 6.08869,-1.63609 10.94922,-3.20704 4.86054,-1.57095 10.66216,-3.52716 16.25196,-5.43945 11.17959,-3.82458 21.5078,-7.47851 21.50781,-7.47851 l 0.69726,-0.2461 0.60743,-0.42187 c 6.32985,-4.3823 52.13672,-34.92774 52.13672,-34.92774 l 0.35547,-0.23633 0.31445,-0.28906 c 4.16466,-3.81761 13.6531,-5.95654 13.96875,-6.02734 1.45314,0.008 2.65149,-0.14615 4.32032,-0.35352 2.13871,-0.26575 4.62916,-0.63485 7.02539,-1.00976 4.11332,-0.64358 6.89832,-1.13692 7.90234,-1.3125 7.09838,1.69238 9.88413,5.25814 11.48242,8.75586 1.63803,3.58467 1.58764,6.61315 1.58594,6.70507 -0.46831,7.49537 -2.34884,8.73602 -2.71875,8.94532 -0.37205,0.2105 -0.2832,0.17773 -0.2832,0.17773 l -1.93555,-0.64648 -1.89063,0.76562 c -6.71347,2.71734 -13.48278,8.09299 -19.0664,12.84571 -5.58362,4.75271 -9.7793,8.94921 -9.7793,8.94921 l -1.49414,1.4961 -0.11719,2.10937 c 0.0874,-1.57371 -0.30051,0.55322 -1.53906,2.4375 -1.23855,1.88429 -3.01116,4.21197 -4.79297,6.41211 -3.56361,4.40029 -7.13672,8.29102 -7.13672,8.29102 l 0.25196,-0.25586 c -4.75005,4.53733 -7.54293,8.59247 -8.64258,12.80469 -1.09967,4.21221 0.0787,8.48167 2.12109,11.15039 4.08476,5.33743 10.08399,6.26367 10.08399,6.26367 l 0.46483,0.11133 0.47852,0.0293 c 1.99949,0.12497 3.81815,-0.11256 6.39454,-0.45312 2.57638,-0.34056 5.68256,-0.84191 9.15428,-1.45313 6.94347,-1.22244 15.33645,-2.88635 23.46875,-4.56445 16.26462,-3.3562 31.47658,-6.77148 31.47658,-6.77148 l 0.32616,-0.0742 0.3164,-0.11133 c 5.26729,-1.87281 9.0356,-2.33187 11.35352,-2.38281 2.31792,-0.051 2.67188,0.14843 2.67188,0.14843 l 0.5957,0.17969 0.62109,0.0449 c 8.56599,0.61196 20.74219,-1.33008 20.74219,-1.33008 l 0.85937,-0.125 0.77735,-0.38085 c 4.65829,-2.28349 8.04672,-1.07104 11.2793,0.92773 3.23257,1.99877 5.27734,4.63867 5.27734,4.63867 l 0.0117,0.0156 0.0117,0.0156 c 3.21352,4.19542 2.63743,8.53418 1.01368,12.85547 -1.56882,4.17507 -3.95323,7.16093 -4.11914,7.36719 -5.26423,5.53628 -9.65707,6.73078 -12.79688,6.93554 -3.16572,0.20646 -4.63086,-0.55273 -4.63086,-0.55273 l -2.48242,-1.1582 -2.42579,1.26953 c -9.88201,5.17626 -21.8456,7.63667 -21.8456,7.63667 l 2.83974,10.66997 c 0,0 10.9282,-2.20207 21.94922,-7.51758 1.80899,0.46679 4.30326,0.89182 7.31641,0.69531 5.7087,-0.3723 13.23502,-3.04401 20.25977,-10.50781 l 0.11719,-0.125 0.11133,-0.13086 c 0,0 3.70308,-4.40001 6.0664,-10.68945 2.36238,-6.28695 3.45665,-15.57448 -2.58203,-23.4668 -0.0269,-0.0362 -3.10249,-4.16913 -8.27148,-7.36523 -4.95907,-3.06631 -12.77454,-5.31532 -20.83789,-1.90235 -0.84698,0.11078 -12.15766,1.5758 -17.80078,1.1836 -1.03434,-0.2022 -2.61993,-0.44819 -4.97266,-0.39649 -3.53405,0.0777 -8.51034,0.77669 -14.81836,3.01953 l 0.64258,-0.18554 c 0,0 -15.14276,3.40063 -31.28906,6.73242 -8.07316,1.66589 -16.39833,3.31481 -23.15235,4.50391 -3.37701,0.59454 -6.36458,1.07432 -8.68359,1.38086 -2.03061,0.26841 -3.29786,0.3158 -3.72656,0.33203 -0.6094,-0.25441 -2.81094,-1.19484 -3.45704,-2.03907 -0.36914,-0.48234 -0.52627,-0.39108 -0.20312,-1.6289 0.32315,-1.23783 1.71292,-3.90369 5.58008,-7.59766 l 0.1289,-0.12305 0.1211,-0.13281 c 0,0 3.75811,-4.08505 7.58984,-8.8164 1.91587,-2.36568 3.85847,-4.8906 5.44141,-7.29883 1.19572,-1.81914 2.36201,-3.18712 2.95703,-5.41992 0.86987,-0.8573 3.38136,-3.37973 7.89843,-7.22461 4.89752,-4.16872 10.97626,-8.54516 15.10546,-10.46289 1.75147,0.0671 4.06133,-0.18101 6.34767,-1.47461 4.5153,-2.55475 7.75362,-8.39894 8.32812,-18.02149 l 0.006,-0.084 0.002,-0.084 c 0,0 0.1863,-5.62032 -2.58789,-11.6914 -2.77421,-6.07108 -9.08033,-12.97918 -20.09375,-15.24219 z"
       id="path10167"
       inkscape:connector-curvature="0"
       sodipodi:nodetypes="cccscccccscccccscccsccccsccccccsccccscsccccccsscccccccccccccccccccccccccscccsssccccccccccccccsccccccccscccscccccccsccccccccsccccccccscc" />
    <path
       style="color:#000000;font-style:normal;font-variant:normal;font-weight:normal;font-stretch:normal;font-size:medium;line-height:normal;font-family:sans-serif;font-variant-ligatures:normal;font-variant-position:normal;font-variant-caps:normal;font-variant-numeric:normal;font-variant-alternates:normal;font-feature-settings:normal;text-indent:0;text-align:start;text-decoration:none;text-decoration-line:none;text-decoration-style:solid;text-decoration-color:#000000;letter-spacing:normal;word-spacing:normal;text-transform:none;writing-mode:lr-tb;direction:ltr;text-orientation:mixed;dominant-baseline:auto;baseline-shift:baseline;text-anchor:start;white-space:normal;shape-padding:0;clip-rule:nonzero;display:inline;overflow:visible;visibility:visible;opacity:1;isolation:auto;mix-blend-mode:normal;color-interpolation:sRGB;color-interpolation-filters:linearRGB;solid-color:#000000;solid-opacity:1;vector-effect:none;fill:#000000;fill-opacity:1;fill-rule:nonzero;stroke:none;stroke-width:11.06670856;stroke-linecap:butt;stroke-linejoin:miter;stroke-miterlimit:4;stroke-dasharray:none;stroke-dashoffset:0;stroke-opacity:1;color-rendering:auto;image-rendering:auto;shape-rendering:auto;text-rendering:auto;enable-background:accumulate"
       d="m 318.61718,519.55531 c -1.70601,0.44222 -8.36481,1.47213 -17.9414,3.37696 -9.5766,1.90482 -22.4761,4.81578 -38.35547,9.50976 l 3.13672,10.61328 c 15.51035,-4.5849 28.05073,-7.4145 37.37695,-9.26953 9.32622,-1.85503 15.03205,-2.60296 18.56055,-3.51758 z"
       id="path10169"
       inkscape:connector-curvature="0" />
    <path
       style="color:#000000;font-style:normal;font-variant:normal;font-weight:normal;font-stretch:normal;font-size:medium;line-height:normal;font-family:sans-serif;font-variant-ligatures:normal;font-variant-position:normal;font-variant-caps:normal;font-variant-numeric:normal;font-variant-alternates:normal;font-feature-settings:normal;text-indent:0;text-align:start;text-decoration:none;text-decoration-line:none;text-decoration-style:solid;text-decoration-color:#000000;letter-spacing:normal;word-spacing:normal;text-transform:none;writing-mode:lr-tb;direction:ltr;text-orientation:mixed;dominant-baseline:auto;baseline-shift:baseline;text-anchor:start;white-space:normal;shape-padding:0;clip-rule:nonzero;display:inline;overflow:visible;visibility:visible;opacity:1;isolation:auto;mix-blend-mode:normal;color-interpolation:sRGB;color-interpolation-filters:linearRGB;solid-color:#000000;solid-opacity:1;vector-effect:none;fill:#000000;fill-opacity:1;fill-rule:nonzero;stroke:none;stroke-width:11.06670856;stroke-linecap:butt;stroke-linejoin:miter;stroke-miterlimit:4;stroke-dasharray:none;stroke-dashoffset:0;stroke-opacity:1;color-rendering:auto;image-rendering:auto;shape-rendering:auto;text-rendering:auto;enable-background:accumulate"
       d="m 298.85156,520.38148 -10.99414,1.26758 c 0,0 0.10717,-0.50139 -0.25781,0.44531 -0.36499,0.94671 -1.2959,2.70478 -4.10938,5 l 6.99609,8.57618 c 4.09828,-3.34336 6.34934,-6.76818 7.43946,-9.59571 1.09011,-2.82752 0.92578,-5.69336 0.92578,-5.69336 z"
       id="path10173"
       inkscape:connector-curvature="0" />
    <path
       style="color:#000000;font-style:normal;font-variant:normal;font-weight:normal;font-stretch:normal;font-size:medium;line-height:normal;font-family:sans-serif;font-variant-ligatures:normal;font-variant-position:normal;font-variant-caps:normal;font-variant-numeric:normal;font-variant-alternates:normal;font-feature-settings:normal;text-indent:0;text-align:start;text-decoration:none;text-decoration-line:none;text-decoration-style:solid;text-decoration-color:#000000;letter-spacing:normal;word-spacing:normal;text-transform:none;writing-mode:lr-tb;direction:ltr;text-orientation:mixed;dominant-baseline:auto;baseline-shift:baseline;text-anchor:start;white-space:normal;shape-padding:0;clip-rule:nonzero;display:inline;overflow:visible;visibility:visible;opacity:1;isolation:auto;mix-blend-mode:normal;color-interpolation:sRGB;color-interpolation-filters:linearRGB;solid-color:#000000;solid-opacity:1;vector-effect:none;fill:#000000;fill-opacity:1;fill-rule:nonzero;stroke:none;stroke-width:11.06670856;stroke-linecap:butt;stroke-linejoin:miter;stroke-miterlimit:4;stroke-dasharray:none;stroke-dashoffset:0;stroke-opacity:1;color-rendering:auto;image-rendering:auto;shape-rendering:auto;text-rendering:auto;enable-background:accumulate"
       d="m 523.74023,581.44008 c -0.0197,0.33546 -0.4082,0.8125 -0.4082,0.8125 l 6.64062,8.85351 c 0,0 4.47048,-3.16692 4.81446,-9.01562 z"
       id="path10179"
       inkscape:connector-curvature="0" />
    <path
       style="color:#000000;font-style:normal;font-variant:normal;font-weight:normal;font-stretch:normal;font-size:medium;line-height:normal;font-family:sans-serif;font-variant-ligatures:normal;font-variant-position:normal;font-variant-caps:normal;font-variant-numeric:normal;font-variant-alternates:normal;font-feature-settings:normal;text-indent:0;text-align:start;text-decoration:none;text-decoration-line:none;text-decoration-style:solid;text-decoration-color:#000000;letter-spacing:normal;word-spacing:normal;text-transform:none;writing-mode:lr-tb;direction:ltr;text-orientation:mixed;dominant-baseline:auto;baseline-shift:baseline;text-anchor:start;white-space:normal;shape-padding:0;clip-rule:nonzero;display:inline;overflow:visible;visibility:visible;opacity:1;isolation:auto;mix-blend-mode:normal;color-interpolation:sRGB;color-interpolation-filters:linearRGB;solid-color:#000000;solid-opacity:1;vector-effect:none;fill:#000000;fill-opacity:1;fill-rule:nonzero;stroke:none;stroke-width:11.06670856;stroke-linecap:butt;stroke-linejoin:miter;stroke-miterlimit:4;stroke-dasharray:none;stroke-dashoffset:0;stroke-opacity:1;color-rendering:auto;image-rendering:auto;shape-rendering:auto;text-rendering:auto;enable-background:accumulate"
       d="m 439.73046,507.72914 -9.81835,5.10742 c 1.53171,2.94524 2.29739,5.0129 2.67187,6.23633 0.37448,1.22343 0.32422,1.18555 0.32422,1.18555 l 11.0293,-0.91602 c 0,0 -0.17951,-1.58213 -0.76954,-3.50976 -0.59002,-1.92764 -1.62484,-4.61808 -3.4375,-8.10352 z"
       id="path10183"
       inkscape:connector-curvature="0" />
    <path
       style="color:#000000;font-style:normal;font-variant:normal;font-weight:normal;font-stretch:normal;font-size:medium;line-height:normal;font-family:sans-serif;font-variant-ligatures:normal;font-variant-position:normal;font-variant-caps:normal;font-variant-numeric:normal;font-variant-alternates:normal;font-feature-settings:normal;text-indent:0;text-align:start;text-decoration:none;text-decoration-line:none;text-decoration-style:solid;text-decoration-color:#000000;letter-spacing:normal;word-spacing:normal;text-transform:none;writing-mode:lr-tb;direction:ltr;text-orientation:mixed;dominant-baseline:auto;baseline-shift:baseline;text-anchor:start;white-space:normal;shape-padding:0;clip-rule:nonzero;display:inline;overflow:visible;visibility:visible;opacity:1;isolation:auto;mix-blend-mode:normal;color-interpolation:sRGB;color-interpolation-filters:linearRGB;solid-color:#000000;solid-opacity:1;vector-effect:none;fill:#000000;fill-opacity:1;fill-rule:nonzero;stroke:none;stroke-width:11.06670856;stroke-linecap:butt;stroke-linejoin:miter;stroke-miterlimit:4;stroke-dasharray:none;stroke-dashoffset:0;stroke-opacity:1;color-rendering:auto;image-rendering:auto;shape-rendering:auto;text-rendering:auto;enable-background:accumulate"
       d="m 367.04101,688.11391 c -17.12954,11.41961 -15.55078,33.29687 -15.55078,33.29687 l 11.04883,-0.63672 c 0,0 -0.60445,-15.95646 10.64062,-23.45312 z"
       id="path10185"
       inkscape:connector-curvature="0" />
    <path
       style="color:#000000;font-style:normal;font-variant:normal;font-weight:normal;font-stretch:normal;font-size:medium;line-height:normal;font-family:sans-serif;font-variant-ligatures:normal;font-variant-position:normal;font-variant-caps:normal;font-variant-numeric:normal;font-variant-alternates:normal;font-feature-settings:normal;text-indent:0;text-align:start;text-decoration:none;text-decoration-line:none;text-decoration-style:solid;text-decoration-color:#000000;letter-spacing:normal;word-spacing:normal;text-transform:none;writing-mode:lr-tb;direction:ltr;text-orientation:mixed;dominant-baseline:auto;baseline-shift:baseline;text-anchor:start;white-space:normal;shape-padding:0;clip-rule:nonzero;display:inline;overflow:visible;visibility:visible;opacity:1;isolation:auto;mix-blend-mode:normal;color-interpolation:sRGB;color-interpolation-filters:linearRGB;solid-color:#000000;solid-opacity:1;vector-effect:none;fill:#000000;fill-opacity:1;fill-rule:nonzero;stroke:none;stroke-width:11.06670856;stroke-linecap:butt;stroke-linejoin:miter;stroke-miterlimit:4;stroke-dasharray:none;stroke-dashoffset:0;stroke-opacity:1;color-rendering:auto;image-rendering:auto;shape-rendering:auto;text-rendering:auto;enable-background:accumulate"
       d="m 366.19921,635.69398 c -7.60298,7.60296 -8.08107,17.63716 -6.76171,24.86719 1.31935,7.23003 4.38671,12.66211 4.38671,12.66211 l 9.66407,-5.39062 c 0,0 -2.20785,-4.02846 -3.16211,-9.25782 -0.95427,-5.22935 -0.70443,-10.65496 3.69726,-15.05664 z"
       id="path10187"
       inkscape:connector-curvature="0" />
    <path
       style="color:#000000;font-style:normal;font-variant:normal;font-weight:normal;font-stretch:normal;font-size:medium;line-height:normal;font-family:sans-serif;font-variant-ligatures:normal;font-variant-position:normal;font-variant-caps:normal;font-variant-numeric:normal;font-variant-alternates:normal;font-feature-settings:normal;text-indent:0;text-align:start;text-decoration:none;text-decoration-line:none;text-decoration-style:solid;text-decoration-color:#000000;letter-spacing:normal;word-spacing:normal;text-transform:none;writing-mode:lr-tb;direction:ltr;text-orientation:mixed;dominant-baseline:auto;baseline-shift:baseline;text-anchor:start;white-space:normal;shape-padding:0;clip-rule:nonzero;display:inline;overflow:visible;visibility:visible;opacity:1;isolation:auto;mix-blend-mode:normal;color-interpolation:sRGB;color-interpolation-filters:linearRGB;solid-color:#000000;solid-opacity:1;vector-effect:none;fill:#000000;fill-opacity:1;fill-rule:nonzero;stroke:none;stroke-width:11.06670856;stroke-linecap:butt;stroke-linejoin:miter;stroke-miterlimit:4;stroke-dasharray:none;stroke-dashoffset:0;stroke-opacity:1;color-rendering:auto;image-rendering:auto;shape-rendering:auto;text-rendering:auto;enable-background:accumulate"
       d="m 350.1875,593.90492 c 0,0 -1.59268,6.24298 -1.00586,13.49805 0.29341,3.62753 1.11291,7.64834 3.2539,11.42383 2.14099,3.77549 5.80567,7.21432 10.79492,8.91797 l 3.57618,-10.47266 c -2.4682,-0.8428 -3.71344,-2.08672 -4.74414,-3.9043 -1.03071,-1.81758 -1.64477,-4.30074 -1.85157,-6.85742 -0.41359,-5.11335 0.72266,-9.96289 0.72266,-9.96289 z"
       id="path10189"
       inkscape:connector-curvature="0" />
    <path
       style="color:#000000;font-style:normal;font-variant:normal;font-weight:normal;font-stretch:normal;font-size:medium;line-height:normal;font-family:sans-serif;font-variant-ligatures:normal;font-variant-position:normal;font-variant-caps:normal;font-variant-numeric:normal;font-variant-alternates:normal;font-feature-settings:normal;text-indent:0;text-align:start;text-decoration:none;text-decoration-line:none;text-decoration-style:solid;text-decoration-color:#000000;letter-spacing:normal;word-spacing:normal;text-transform:none;writing-mode:lr-tb;direction:ltr;text-orientation:mixed;dominant-baseline:auto;baseline-shift:baseline;text-anchor:start;white-space:normal;shape-padding:0;clip-rule:nonzero;display:inline;overflow:visible;visibility:visible;opacity:1;isolation:auto;mix-blend-mode:normal;color-interpolation:sRGB;color-interpolation-filters:linearRGB;solid-color:#000000;solid-opacity:1;vector-effect:none;fill:#000000;fill-opacity:1;fill-rule:nonzero;stroke:none;stroke-width:11.06670856;stroke-linecap:butt;stroke-linejoin:miter;stroke-miterlimit:4;stroke-dasharray:none;stroke-dashoffset:0;stroke-opacity:1;color-rendering:auto;image-rendering:auto;shape-rendering:auto;text-rendering:auto;enable-background:accumulate"
       d="m 319.83398,538.39125 c 0,0 -0.14629,6.7728 2.44336,14.22461 2.58965,7.45181 8.63198,16.44007 20.11133,18.91601 l 2.33398,-10.81835 c -7.07321,-1.52561 -10.12555,-6.35914 -11.99219,-11.73047 -1.86664,-5.37133 -1.83203,-10.42188 -1.83203,-10.42188 z"
       id="path10191"
       inkscape:connector-curvature="0" />
    <path
       style="color:#000000;font-style:normal;font-variant:normal;font-weight:normal;font-stretch:normal;font-size:medium;line-height:normal;font-family:sans-serif;font-variant-ligatures:normal;font-variant-position:normal;font-variant-caps:normal;font-variant-numeric:normal;font-variant-alternates:normal;font-feature-settings:normal;text-indent:0;text-align:start;text-decoration:none;text-decoration-line:none;text-decoration-style:solid;text-decoration-color:#000000;letter-spacing:normal;word-spacing:normal;text-transform:none;writing-mode:lr-tb;direction:ltr;text-orientation:mixed;dominant-baseline:auto;baseline-shift:baseline;text-anchor:start;white-space:normal;shape-padding:0;clip-rule:nonzero;display:inline;overflow:visible;visibility:visible;opacity:1;isolation:auto;mix-blend-mode:normal;color-interpolation:sRGB;color-interpolation-filters:linearRGB;solid-color:#000000;solid-opacity:1;vector-effect:none;fill:#000000;fill-opacity:1;fill-rule:nonzero;stroke:none;stroke-width:23.00281143;stroke-linecap:butt;stroke-linejoin:miter;stroke-miterlimit:4;stroke-dasharray:none;stroke-dashoffset:0;stroke-opacity:1;color-rendering:auto;image-rendering:auto;shape-rendering:auto;text-rendering:auto;enable-background:accumulate"
       d="m 373.18554,-217.17711 c -88.64334,-0.0256 -149.53658,35.56583 -184.5625,88.80859 -35.02906,53.24755 -44.80434,122.77571 -37.14844,191.59961 7.6559,68.8239 32.7761,137.24668 69.86133,189.20899 37.08523,51.96231 87.0141,88.16055 143.80469,87.82226 56.76383,-0.33815 106.2862,-36.91504 143.15234,-89.05273 36.86615,-52.13769 61.93729,-120.53454 70.26368,-189.1875 8.32638,-68.65296 -0.0133,-137.81492 -32.36133,-190.85156 -32.34493,-53.03157 -89.66053,-88.64765 -173.00977,-88.34766 z m 0.0156,23.00391 h 0.0234 0.0234 c 76.97905,-0.28339 124.72583,30.45384 153.31055,77.32031 28.58472,46.86647 37.04125,111.15623 29.16406,176.10547 -7.87719,64.94924 -32.00938,130.30647 -66.21094,178.67578 -34.20155,48.36931 -77.61199,79.05266 -124.50781,79.33203 -46.86905,0.27919 -90.58236,-30.03562 -124.94531,-78.18359 -34.36285,-48.14798 -58.49704,-113.43375 -65.72256,-178.38867 -7.22552,-64.95493 2.49232,-129.27347 33.50391,-176.41407 31.01159,-47.1406 82.6996,-78.47707 165.36133,-78.44726 z"
       id="path10-9-0-2-5-7"
       inkscape:connector-curvature="0" />
    <path
       style="color:#000000;font-style:normal;font-variant:normal;font-weight:normal;font-stretch:normal;font-size:medium;line-height:normal;font-family:sans-serif;font-variant-ligatures:normal;font-variant-position:normal;font-variant-caps:normal;font-variant-numeric:normal;font-variant-alternates:normal;font-feature-settings:normal;text-indent:0;text-align:start;text-decoration:none;text-decoration-line:none;text-decoration-style:solid;text-decoration-color:#000000;letter-spacing:normal;word-spacing:normal;text-transform:none;writing-mode:lr-tb;direction:ltr;text-orientation:mixed;dominant-baseline:auto;baseline-shift:baseline;text-anchor:start;white-space:normal;shape-padding:0;clip-rule:nonzero;display:inline;overflow:visible;visibility:visible;opacity:1;isolation:auto;mix-blend-mode:normal;color-interpolation:sRGB;color-interpolation-filters:linearRGB;solid-color:#000000;solid-opacity:1;vector-effect:none;fill:#000000;fill-opacity:1;fill-rule:nonzero;stroke:none;stroke-width:11.50140572;stroke-linecap:butt;stroke-linejoin:miter;stroke-miterlimit:4;stroke-dasharray:none;stroke-dashoffset:0;stroke-opacity:1;color-rendering:auto;image-rendering:auto;shape-rendering:auto;text-rendering:auto;enable-background:accumulate"
       d="m 360.88281,59.86 c 0,0 -1.29756,12.80102 -3.44336,26.24805 -1.0729,6.72351 -2.36509,13.60947 -3.75391,18.95898 -0.69441,2.67476 -1.42279,4.97083 -2.07422,6.55469 -0.65142,1.58386 -1.49291,2.41174 -0.88867,1.9082 -1.27271,1.06059 -2.61918,1.94549 -3.32422,4.76563 -0.35252,1.41006 -0.15206,3.51166 0.74805,4.97851 0.90011,1.46685 2.07209,2.18512 2.95703,2.60157 3.53978,1.66577 5.35688,1.02536 7.76367,0.85937 4.81359,-0.33197 10.02539,-1.4043 10.02539,-1.4043 l -2.25586,-11.27929 c 0,0 -2.45822,0.31247 -3.94531,0.55664 0.76254,-2.04464 1.48497,-4.17756 2.12695,-6.65039 1.55204,-5.97821 2.87302,-13.10928 3.97852,-20.03711 2.21101,-13.85566 3.52734,-26.9043 3.52734,-26.9043 z"
       id="path971-9-5-8-6"
       inkscape:connector-curvature="0" />
    <path
       inkscape:connector-curvature="0"
       id="path59-17-20"
       d="m 290.73873,-82.5892 c -22.56544,-0.41411 -44.05017,16.03069 -71.25272,48.58188 l 8.79317,7.3482 c 26.48923,-31.69751 45.57409,-44.77993 62.24962,-44.47397 16.67544,0.30605 34.61248,14.17335 58.51063,42.20129 l 8.71984,-7.43395 c -24.48008,-28.71049 -44.4554,-45.80934 -67.02054,-46.22345 z"
       style="color:#000000;font-style:normal;font-variant:normal;font-weight:normal;font-stretch:normal;font-size:medium;line-height:normal;font-family:sans-serif;font-variant-ligatures:normal;font-variant-position:normal;font-variant-caps:normal;font-variant-numeric:normal;font-variant-alternates:normal;font-feature-settings:normal;text-indent:0;text-align:start;text-decoration:none;text-decoration-line:none;text-decoration-style:solid;text-decoration-color:#000000;letter-spacing:normal;word-spacing:normal;text-transform:none;writing-mode:lr-tb;direction:ltr;text-orientation:mixed;dominant-baseline:auto;baseline-shift:baseline;text-anchor:start;white-space:normal;shape-padding:0;clip-rule:nonzero;display:inline;overflow:visible;visibility:visible;opacity:1;isolation:auto;mix-blend-mode:normal;color-interpolation:sRGB;color-interpolation-filters:linearRGB;solid-color:#000000;solid-opacity:1;vector-effect:none;fill:#000000;fill-opacity:1;fill-rule:nonzero;stroke:none;stroke-width:11.45796204;stroke-linecap:butt;stroke-linejoin:miter;stroke-miterlimit:4;stroke-dasharray:none;stroke-dashoffset:0;stroke-opacity:1;color-rendering:auto;image-rendering:auto;shape-rendering:auto;text-rendering:auto;enable-background:accumulate" />
    <path
       inkscape:connector-curvature="0"
       id="path59-1-8-1"
       d="m 289.51396,-2.41712 c -15.44653,-0.55556 -31.60032,5.65621 -50.571,19.6685 l 6.80753,9.21673 C 263.54117,13.32738 276.97635,8.5958 289.10284,9.03193 c 12.1264,0.43613 23.81753,6.16637 37.78187,16.18348 l 6.67804,-9.30938 C 318.82641,5.33505 304.96048,-1.86165 289.51396,-2.41712 Z"
       style="color:#000000;font-style:normal;font-variant:normal;font-weight:normal;font-stretch:normal;font-size:medium;line-height:normal;font-family:sans-serif;font-variant-ligatures:normal;font-variant-position:normal;font-variant-caps:normal;font-variant-numeric:normal;font-variant-alternates:normal;font-feature-settings:normal;text-indent:0;text-align:start;text-decoration:none;text-decoration-line:none;text-decoration-style:solid;text-decoration-color:#000000;letter-spacing:normal;word-spacing:normal;text-transform:none;writing-mode:lr-tb;direction:ltr;text-orientation:mixed;dominant-baseline:auto;baseline-shift:baseline;text-anchor:start;white-space:normal;shape-padding:0;clip-rule:nonzero;display:inline;overflow:visible;visibility:visible;opacity:1;isolation:auto;mix-blend-mode:normal;color-interpolation:sRGB;color-interpolation-filters:linearRGB;solid-color:#000000;solid-opacity:1;vector-effect:none;fill:#000000;fill-opacity:1;fill-rule:nonzero;stroke:none;stroke-width:11.45796204;stroke-linecap:butt;stroke-linejoin:miter;stroke-miterlimit:4;stroke-dasharray:none;stroke-dashoffset:0;stroke-opacity:1;color-rendering:auto;image-rendering:auto;shape-rendering:auto;text-rendering:auto;enable-background:accumulate" />
    <path
       inkscape:connector-curvature="0"
       id="path59-17-5-2"
       d="m 443.53142,-84.19004 c -22.56522,-0.41411 -44.04994,16.03069 -71.25272,48.58188 l 8.7934,7.34634 c 26.48922,-31.69734 45.5738,-44.77806 62.24939,-44.47204 16.6756,0.30597 34.61263,14.17329 58.51078,42.20121 l 8.71977,-7.43395 c -24.48025,-28.7105 -44.45532,-45.80925 -67.02062,-46.22344 z"
       style="color:#000000;font-style:normal;font-variant:normal;font-weight:normal;font-stretch:normal;font-size:medium;line-height:normal;font-family:sans-serif;font-variant-ligatures:normal;font-variant-position:normal;font-variant-caps:normal;font-variant-numeric:normal;font-variant-alternates:normal;font-feature-settings:normal;text-indent:0;text-align:start;text-decoration:none;text-decoration-line:none;text-decoration-style:solid;text-decoration-color:#000000;letter-spacing:normal;word-spacing:normal;text-transform:none;writing-mode:lr-tb;direction:ltr;text-orientation:mixed;dominant-baseline:auto;baseline-shift:baseline;text-anchor:start;white-space:normal;shape-padding:0;clip-rule:nonzero;display:inline;overflow:visible;visibility:visible;opacity:1;isolation:auto;mix-blend-mode:normal;color-interpolation:sRGB;color-interpolation-filters:linearRGB;solid-color:#000000;solid-opacity:1;vector-effect:none;fill:#000000;fill-opacity:1;fill-rule:nonzero;stroke:none;stroke-width:11.45796204;stroke-linecap:butt;stroke-linejoin:miter;stroke-miterlimit:4;stroke-dasharray:none;stroke-dashoffset:0;stroke-opacity:1;color-rendering:auto;image-rendering:auto;shape-rendering:auto;text-rendering:auto;enable-background:accumulate" />
    <path
       inkscape:connector-curvature="0"
       id="path59-1-8-3-29"
       d="m 442.30688,-4.01981 c -15.44653,-0.55547 -31.60063,5.65814 -50.5713,19.67034 l 6.80753,9.21672 c 17.79076,-13.14071 31.22455,-17.87221 43.35073,-17.43617 12.12633,0.43621 23.81914,6.16638 37.78348,16.18348 l 6.67827,-9.30938 C 471.61903,3.73429 457.75332,-3.46434 442.30688,-4.01981 Z"
       style="color:#000000;font-style:normal;font-variant:normal;font-weight:normal;font-stretch:normal;font-size:medium;line-height:normal;font-family:sans-serif;font-variant-ligatures:normal;font-variant-position:normal;font-variant-caps:normal;font-variant-numeric:normal;font-variant-alternates:normal;font-feature-settings:normal;text-indent:0;text-align:start;text-decoration:none;text-decoration-line:none;text-decoration-style:solid;text-decoration-color:#000000;letter-spacing:normal;word-spacing:normal;text-transform:none;writing-mode:lr-tb;direction:ltr;text-orientation:mixed;dominant-baseline:auto;baseline-shift:baseline;text-anchor:start;white-space:normal;shape-padding:0;clip-rule:nonzero;display:inline;overflow:visible;visibility:visible;opacity:1;isolation:auto;mix-blend-mode:normal;color-interpolation:sRGB;color-interpolation-filters:linearRGB;solid-color:#000000;solid-opacity:1;vector-effect:none;fill:#000000;fill-opacity:1;fill-rule:nonzero;stroke:none;stroke-width:11.45796204;stroke-linecap:butt;stroke-linejoin:miter;stroke-miterlimit:4;stroke-dasharray:none;stroke-dashoffset:0;stroke-opacity:1;color-rendering:auto;image-rendering:auto;shape-rendering:auto;text-rendering:auto;enable-background:accumulate" />
    <path
       inkscape:connector-curvature="0"
       id="path29-2-7"
       d="m 447.16018,179.2453 c -43.61841,42.93999 -81.16689,44.64416 -109.82355,35.59311 -14.32844,-4.52556 -26.41281,-11.96849 -35.39544,-18.80607 -8.98271,-6.83751 -14.60795,-12.80491 -16.962,-15.13718 l -8.06374,8.14067 c 1.81415,1.79743 8.35881,8.70996 18.08506,16.11352 9.72633,7.40357 22.89114,15.56334 38.88608,20.61508 31.9892,10.10364 75.38719,6.85761 121.31264,-38.35392 z"
       style="color:#000000;font-style:normal;font-variant:normal;font-weight:normal;font-stretch:normal;font-size:medium;line-height:normal;font-family:sans-serif;font-variant-ligatures:normal;font-variant-position:normal;font-variant-caps:normal;font-variant-numeric:normal;font-variant-alternates:normal;font-feature-settings:normal;text-indent:0;text-align:start;text-decoration:none;text-decoration-line:none;text-decoration-style:solid;text-decoration-color:#000000;letter-spacing:normal;word-spacing:normal;text-transform:none;writing-mode:lr-tb;direction:ltr;text-orientation:mixed;dominant-baseline:auto;baseline-shift:baseline;text-anchor:start;white-space:normal;shape-padding:0;clip-rule:nonzero;display:inline;overflow:visible;visibility:visible;opacity:1;isolation:auto;mix-blend-mode:normal;color-interpolation:sRGB;color-interpolation-filters:linearRGB;solid-color:#000000;solid-opacity:1;vector-effect:none;fill:#000000;fill-opacity:1;fill-rule:nonzero;stroke:none;stroke-width:11.45796204;stroke-linecap:butt;stroke-linejoin:miter;stroke-miterlimit:4;stroke-dasharray:none;stroke-dashoffset:0;stroke-opacity:1;color-rendering:auto;image-rendering:auto;shape-rendering:auto;text-rendering:auto;enable-background:accumulate" />
    <path
       style="font-style:normal;font-weight:normal;font-size:233.33332825px;line-height:1.25;font-family:sans-serif;letter-spacing:0px;word-spacing:0px;fill:#000000;fill-opacity:1;stroke:none"
       d="M 64.712891 1074.2031 C 46.25586 1074.2031 31.028212 1078.7604 19.027344 1087.875 C 7.026476 1096.9136 1.0253906 1108.5347 1.0253906 1122.7383 C 1.0253906 1135.1189 4.6338977 1145.1823 11.849609 1152.9297 C 19.141276 1160.6011 30.306641 1166.0326 45.345703 1169.2227 C 52.789279 1170.7418 59.813802 1171.995 66.421875 1172.9824 C 73.105903 1173.9698 79.297526 1175.2231 84.994141 1176.7422 C 92.513672 1178.717 98.096354 1181.4887 101.74219 1185.0586 C 105.46398 1188.6285 107.32422 1194.1738 107.32422 1201.6934 C 107.32422 1210.4282 103.41319 1217.4154 95.589844 1222.6562 C 87.842448 1227.8971 76.9796 1230.5176 63.003906 1230.5176 C 53.129775 1230.5176 42.57335 1228.5807 31.332031 1224.707 C 20.090712 1220.8333 10.178602 1215.3273 1.5957031 1208.1875 L 0 1208.1875 L 0 1236.4414 C 10.101996 1240.9227 20.014106 1244.3034 29.736328 1246.582 C 39.534505 1248.8607 50.548611 1250 62.777344 1250 C 74.170573 1250 83.892144 1248.6328 91.943359 1245.8984 C 100.07053 1243.1641 107.17166 1239.367 113.24805 1234.5059 C 118.79275 1230.0245 123.08485 1224.5558 126.12305 1218.0996 C 129.2372 1211.6434 130.79492 1205.11 130.79492 1198.502 C 130.79492 1186.3492 127.60482 1176.8928 121.22461 1170.1328 C 114.8444 1163.3728 105.34874 1158.3225 92.740234 1154.9805 C 86.511936 1153.3854 78.917752 1151.8277 69.955078 1150.3086 C 60.992405 1148.7895 54.079861 1147.4989 49.21875 1146.4355 C 40.028212 1144.3088 33.610677 1141.2326 29.964844 1137.207 C 26.31901 1133.1814 24.496094 1127.6361 24.496094 1120.5723 C 24.496094 1112.673 28.141927 1106.2181 35.433594 1101.2051 C 42.801215 1096.1921 52.522787 1093.6855 64.599609 1093.6855 C 75.613064 1093.6855 86.360026 1095.5085 96.841797 1099.1543 C 107.39952 1102.7242 115.90712 1107.2422 122.36328 1112.7109 L 123.95898 1112.7109 L 123.95898 1086.0508 C 116.28754 1082.7088 107.47548 1079.8997 97.525391 1077.6211 C 87.575304 1075.3424 76.637804 1074.2031 64.712891 1074.2031 z M 542.88672 1076.1387 L 542.88672 1098.3555 L 567.04102 1098.3555 L 567.04102 1076.1387 L 542.88672 1076.1387 z M 452.42578 1083.0898 L 452.42578 1119.6621 L 437.95508 1119.6621 L 437.95508 1137.6621 L 452.42578 1137.6621 L 452.42578 1205.3379 C 452.42578 1220.7567 455.80447 1231.9614 462.56445 1238.9492 C 469.32444 1245.9371 479.19922 1249.4297 492.1875 1249.4297 C 495.90929 1249.4297 500.12478 1249.0879 504.83398 1248.4043 C 509.61914 1247.7207 514.02517 1246.8485 518.05078 1245.7852 L 518.05078 1226.5293 L 516.91016 1226.5293 C 515.23915 1227.2129 512.50477 1228.087 508.70703 1229.1504 C 504.90929 1230.1378 501.26345 1230.6309 497.76953 1230.6309 C 491.7691 1230.6309 487.28841 1229.9473 484.32617 1228.5801 C 481.43989 1227.1369 479.16124 1224.8976 477.49023 1221.8594 C 475.66732 1218.5933 474.6046 1215.0987 474.30078 1211.377 C 473.99696 1207.5792 473.84375 1202.3383 473.84375 1195.6543 L 473.84375 1137.6621 L 518.05078 1137.6621 L 518.05078 1119.6621 L 473.84375 1119.6621 L 473.84375 1083.0898 L 452.42578 1083.0898 z M 218.17969 1116.1289 C 199.6467 1116.1289 184.68424 1122.2439 173.29102 1134.4727 C 161.97374 1146.7014 156.31445 1163.2216 156.31445 1184.0332 C 156.31445 1205.0727 162.23893 1221.3277 174.08789 1232.7969 C 185.93685 1244.1901 202.41971 1249.8867 223.53516 1249.8867 C 231.81424 1249.8867 239.71289 1248.8613 247.23242 1246.8105 C 254.75195 1244.7598 262.12023 1242.214 269.33594 1239.1758 L 269.33594 1215.8203 L 268.19727 1215.8203 C 264.47548 1219.1623 258.2092 1222.5803 249.39844 1226.0742 C 240.66363 1229.4922 231.96549 1231.2012 223.30664 1231.2012 C 216.77452 1231.2012 210.77539 1230.2897 205.30664 1228.4668 C 199.91385 1226.6439 195.24262 1223.9095 191.29297 1220.2637 C 187.19141 1216.5419 183.96202 1211.7941 181.60742 1206.0215 C 179.25282 1200.173 178.07617 1193.337 178.07617 1185.5137 L 271.8418 1185.5137 L 271.8418 1173.8926 C 271.8418 1155.4355 267.17057 1141.194 257.82812 1131.168 C 248.56163 1121.1419 235.34549 1116.1289 218.17969 1116.1289 z M 368.45703 1116.1289 C 360.9375 1116.1289 353.60851 1117.6866 346.46875 1120.8008 C 339.32899 1123.9149 332.41645 1128.2444 325.73242 1133.7891 L 325.73242 1119.6621 L 304.3125 1119.6621 L 304.3125 1246.9238 L 325.73242 1246.9238 L 325.73242 1151.9043 C 331.58095 1147.423 337.69596 1143.7398 344.07617 1140.8535 C 350.45638 1137.9672 356.56944 1136.5234 362.41797 1136.5234 C 368.11458 1136.5234 372.74848 1137.321 376.31836 1138.916 C 379.88824 1140.4351 382.62261 1142.7904 384.52148 1145.9805 C 386.3444 1148.8668 387.59766 1152.8917 388.28125 1158.0566 C 388.96484 1163.1456 389.30664 1168.6144 389.30664 1174.4629 L 389.30664 1246.9238 L 410.72656 1246.9238 L 410.72656 1164.3223 C 410.72656 1148.7515 407.11806 1136.8279 399.90234 1128.5488 C 392.68663 1120.2697 382.20486 1116.1289 368.45703 1116.1289 z M 544.25391 1119.6621 L 544.25391 1246.9238 L 565.67383 1246.9238 L 565.67383 1119.6621 L 544.25391 1119.6621 z M 608.28516 1119.6621 L 608.28516 1246.9238 L 629.70312 1246.9238 L 629.70312 1156.5762 C 635.39974 1151.9429 641.32422 1148.1832 647.47656 1145.2969 C 653.62891 1142.3346 660.00911 1140.8535 666.61719 1140.8535 C 670.71875 1140.8535 674.25065 1141.0421 677.21289 1141.4219 C 680.25109 1141.7257 683.36654 1142.258 686.55664 1143.0176 L 687.69531 1143.0176 L 687.69531 1121.0293 C 684.3533 1120.4976 681.84679 1120.1558 680.17578 1120.0039 C 678.50477 1119.776 675.80773 1119.6621 672.08594 1119.6621 C 665.32596 1119.6621 658.68056 1121.1039 652.14844 1123.9902 C 645.69227 1126.8006 638.21007 1131.625 629.70312 1138.4609 L 629.70312 1119.6621 L 608.28516 1119.6621 z M 217.04102 1133.7891 C 228.43424 1133.7891 236.90256 1136.8652 242.44727 1143.0176 C 248.06793 1149.1699 250.91623 1157.8661 250.99219 1169.1074 L 178.07617 1169.1074 C 178.98763 1159.0814 182.824 1150.6897 189.58398 1143.9297 C 196.41992 1137.1697 205.57183 1133.7891 217.04102 1133.7891 z "
       transform="translate(0,-217.58335)"
       id="text4145" />
  </g>
</svg>
