<?xml version="1.0" encoding="UTF-8" standalone="no"?>
<!-- Created with Inkscape (http://www.inkscape.org/) -->

<svg
   xmlns:dc="http://purl.org/dc/elements/1.1/"
   xmlns:cc="http://creativecommons.org/ns#"
   xmlns:rdf="http://www.w3.org/1999/02/22-rdf-syntax-ns#"
   xmlns:svg="http://www.w3.org/2000/svg"
   xmlns="http://www.w3.org/2000/svg"
   xmlns:sodipodi="http://sodipodi.sourceforge.net/DTD/sodipodi-0.dtd"
   xmlns:inkscape="http://www.inkscape.org/namespaces/inkscape"
   width="1000"
   height="1250"
   viewBox="0 0 1000 1250"
   version="1.1"
   id="svg9223"
   inkscape:version="0.92.4 (5da689c313, 2019-01-14)"
   sodipodi:docname="Ainda.svg">
  <defs
     id="defs9217" />
  <sodipodi:namedview
     id="base"
     pagecolor="#ffffff"
     bordercolor="#666666"
     borderopacity="1.0"
     inkscape:pageopacity="0.0"
     inkscape:pageshadow="2"
     inkscape:zoom="0.35355339"
     inkscape:cx="242.30293"
     inkscape:cy="676.43069"
     inkscape:document-units="px"
     inkscape:current-layer="layer1"
     showgrid="false"
     units="px"
     inkscape:window-width="1366"
     inkscape:window-height="715"
     inkscape:window-x="-8"
     inkscape:window-y="-8"
     inkscape:window-maximized="1" />
  <metadata
     id="metadata9220">
    <rdf:RDF>
      <cc:Work
         rdf:about="">
        <dc:format>image/svg+xml</dc:format>
        <dc:type
           rdf:resource="http://purl.org/dc/dcmitype/StillImage" />
        <dc:title></dc:title>
      </cc:Work>
    </rdf:RDF>
  </metadata>
  <g
     inkscape:label="Camada 1"
     inkscape:groupmode="layer"
     id="layer1"
     transform="translate(0,217.58334)">
    <path
       style="color:#000000;font-style:normal;font-variant:normal;font-weight:normal;font-stretch:normal;font-size:medium;line-height:normal;font-family:sans-serif;font-variant-ligatures:normal;font-variant-position:normal;font-variant-caps:normal;font-variant-numeric:normal;font-variant-alternates:normal;font-feature-settings:normal;text-indent:0;text-align:start;text-decoration:none;text-decoration-line:none;text-decoration-style:solid;text-decoration-color:#000000;letter-spacing:normal;word-spacing:normal;text-transform:none;writing-mode:lr-tb;direction:ltr;text-orientation:mixed;dominant-baseline:auto;baseline-shift:baseline;text-anchor:start;white-space:normal;shape-padding:0;clip-rule:nonzero;display:inline;overflow:visible;visibility:visible;opacity:1;isolation:auto;mix-blend-mode:normal;color-interpolation:sRGB;color-interpolation-filters:linearRGB;solid-color:#000000;solid-opacity:1;vector-effect:none;fill:#000000;fill-opacity:1;fill-rule:nonzero;stroke:none;stroke-width:15.83362389;stroke-linecap:butt;stroke-linejoin:miter;stroke-miterlimit:4;stroke-dasharray:none;stroke-dashoffset:0;stroke-opacity:1;color-rendering:auto;image-rendering:auto;shape-rendering:auto;text-rendering:auto;enable-background:accumulate"
       d="m 353.1833,300.49286 c -8.75709,0.0472 -18.29537,0.45827 -27.36719,0.91602 -18.14363,0.91551 -33.76953,2.24609 -33.76953,2.24609 l 0.67187,-0.0293 c -15.17171,0 -25.4696,7.22641 -30.83984,14.38671 -3.73017,4.97356 -5.12723,9.12442 -5.85547,11.7793 -0.19908,0.37104 -0.36672,0.73632 -0.56836,1.06641 -0.55605,0.91028 -1.01597,1.80791 -1.51172,2.83594 -0.99149,2.05604 -2.07249,4.58922 -3.26757,7.5371 -2.39018,5.89576 -5.19177,13.39392 -7.89063,20.82618 -5.39772,14.8645 -10.36523,29.4375 -10.36523,29.4375 l -0.0898,0.26367 -0.0703,0.26953 c -4.52172,17.11793 -8.67171,27.73088 -11.56055,33.88867 -1.3074,2.78684 -2.13969,4.28191 -2.77148,5.35156 -39.91248,8.06755 -57.94087,27.47131 -63.84375,45.64844 -4.63842,14.28337 -2.3382,27.16212 -0.97461,32.52539 -2.29782,7.07438 -1.90253,14.45619 -1.36524,20.98047 0.56305,6.83698 1.54167,11.97857 1.73243,12.96094 1.84634,30.95257 -2.54014,71.44044 -2.59375,71.93359 -4.20632,15.62025 -4.35954,43.16816 -4.11524,68.73828 0.24934,26.09818 1.41211,49.00391 1.41211,49.00391 v 0.0195 l 0.002,0.0195 c 1.10291,19.8545 -13.51573,39.5704 -13.51573,39.5704 l 12.47656,9.748 c 0,0 18.38487,-22.5274 16.84766,-50.19723 -0.003,-0.0577 -1.14525,-22.63302 -1.39063,-48.31641 -0.24569,-25.71623 0.93663,-55.56144 3.73047,-65.21289 l 0.18945,-0.65235 0.0762,-0.67578 c 0,0 4.72518,-41.77762 2.67383,-75.2832 l -0.0332,-0.53906 -0.10742,-0.5293 c 0,0 -1.06961,-5.3798 -1.60547,-11.88672 -0.53586,-6.50691 0.13291,-14.32108 1.01758,-16.21679 l 1.36133,-2.91602 -1.06055,-3.03906 c 0,0 -4.01457,-11.84998 0.30274,-25.14453 4.3173,-13.29456 16.27828,-28.81406 55.00195,-35.74024 l 2.7793,-0.49804 1.83789,-2.14454 c 0,0 2.88979,-3.57291 6.27148,-10.78125 3.35577,-7.15308 7.74728,-18.56586 12.42578,-36.19726 0.053,-0.15552 4.90772,-14.39088 10.20703,-28.98438 2.66409,-7.33649 5.4308,-14.73111 7.68164,-20.2832 1.12543,-2.77604 2.13237,-5.10598 2.85547,-6.60547 0.16977,-0.35203 0.23055,-0.44089 0.35938,-0.68555 l 1.61914,-0.97265 0.6289,-3.55469 c 0,0 0.6889,-3.78506 3.73438,-7.8457 3.04548,-4.06064 7.60137,-8.05469 18.17187,-8.05469 h 0.33594 l 0.33399,-0.0293 c 0,0 15.39713,-1.30933 33.22656,-2.20898 17.82943,-0.89965 38.74561,-1.16674 46.64844,0.15039 l 2.27148,0.37891 2.12109,-0.9004 c 0,0 0.62883,-1.09584 3.84961,1.21094 3.22079,2.30678 9.71103,10.87368 12.24219,36.50196 l 0.1543,1.55664 0.73242,1.38086 c 0,0 10.20659,20.45163 10.2832,35.71093 -0.0223,0.1422 -0.49311,3.11945 -1.45508,4.44922 -0.4925,0.68082 -0.61674,0.85626 -1.58984,1.04492 -0.9731,0.18867 -3.3333,0.2033 -7.63281,-1.67773 l -9.21289,12.37109 c 0,0 2.57264,2.82495 5.24219,10.84571 2.66955,8.02075 4.94479,20.62546 2.53125,38.61718 l -1.22657,9.13868 9.21875,-0.16993 c 0,0 3.98378,0.006 7.89063,2.56055 3.90685,2.55448 8.21429,6.9635 7.39648,21.27539 l -0.0586,1.01172 0.19922,0.99219 c 0,0 2.42967,17.40325 -2.06641,26.07422 l -0.0586,0.11328 -0.0547,0.11523 c 0,0 -6.20301,12.65899 -3.96289,28.33985 l 0.29297,2.04296 1.25195,1.64063 c 0,0 1.99753,2.28834 2.67969,8.74609 0.68216,6.45776 -0.34369,16.53014 -9.55469,30.66797 l -1.5293,2.34766 0.28711,2.78711 c 0,0 4.18127,43.54073 -14.17382,81.125 l -0.20899,0.42773 -0.15625,0.44922 c -11.43218,32.9248 -19.8329,43.55599 -30.61328,58.08594 -5.6e-4,7.6e-4 -0.001,10e-4 -0.002,0.002 -0.61385,0.74549 -14.82126,18.14017 -20.4375,39.58407 l 15.3164,4.0117 c 4.52891,-17.2923 17.62696,-33.89264 17.62696,-33.89264 l 0.10742,-0.13282 0.10156,-0.13671 c 10.6487,-14.35254 20.88104,-27.9712 32.72852,-61.97461 18.7591,-38.83518 16.22973,-79.30163 15.6289,-86.38477 9.56569,-15.64071 11.64004,-29.00337 10.62305,-38.63086 -0.7468,-7.06967 -2.85167,-11.37472 -4.32227,-13.94922 -1.11357,-10.01559 2.59961,-18.32422 2.59961,-18.32422 l -0.11328,0.22852 c 8.10341,-15.62794 4.14599,-33.73255 3.67774,-35.72852 0.63309,-17.6045 -6.51088,-28.91554 -14.54102,-34.16601 -2.87814,-1.88186 -5.6735,-2.92034 -8.26172,-3.67774 1.23125,-16.45512 -0.83657,-29.33421 -3.79297,-38.21679 -0.12438,-0.37372 -0.26871,-0.63608 -0.39648,-0.99805 5.0864,-0.98922 9.08527,-4.11173 11.39648,-7.30664 4.62548,-6.39403 4.4668,-13.29102 4.4668,-13.29102 l 0.006,-0.13086 v -0.1289 c 0,-19.72112 -9.63873,-38.56709 -11.45898,-41.97071 -2.86324,-26.70488 -9.77439,-39.92228 -18.58204,-46.23046 -5.9546,-4.2648 -12.20654,-4.09894 -15.92578,-3.54102 -5.83691,-0.8743 -13.31277,-1.19901 -21.61523,-1.1543 z M 268.96845,339.112 c 0.0561,-0.0918 0.10189,0.0459 -0.21093,0.40235 0.055,-0.0994 0.18432,-0.35877 0.21093,-0.40235 z"
       id="path9779"
       inkscape:connector-curvature="0" />
    <path
       style="color:#000000;font-style:normal;font-variant:normal;font-weight:normal;font-stretch:normal;font-size:medium;line-height:normal;font-family:sans-serif;font-variant-ligatures:normal;font-variant-position:normal;font-variant-caps:normal;font-variant-numeric:normal;font-variant-alternates:normal;font-feature-settings:normal;text-indent:0;text-align:start;text-decoration:none;text-decoration-line:none;text-decoration-style:solid;text-decoration-color:#000000;letter-spacing:normal;word-spacing:normal;text-transform:none;writing-mode:lr-tb;direction:ltr;text-orientation:mixed;dominant-baseline:auto;baseline-shift:baseline;text-anchor:start;white-space:normal;shape-padding:0;clip-rule:nonzero;display:inline;overflow:visible;visibility:visible;opacity:1;isolation:auto;mix-blend-mode:normal;color-interpolation:sRGB;color-interpolation-filters:linearRGB;solid-color:#000000;solid-opacity:1;vector-effect:none;fill:#000000;fill-opacity:1;fill-rule:nonzero;stroke:none;stroke-width:15.83362389;stroke-linecap:butt;stroke-linejoin:miter;stroke-miterlimit:4;stroke-dasharray:none;stroke-dashoffset:0;stroke-opacity:1;color-rendering:auto;image-rendering:auto;shape-rendering:auto;text-rendering:auto;enable-background:accumulate"
       d="m 363.98213,386.16864 c -3.21771,0.17814 -6.65987,0.64885 -10.31836,1.48243 l 0.47265,-0.0937 c 0,0 -27.60383,4.36943 -42.13281,9.21093 -0.002,7.4e-4 -0.006,10e-4 -0.008,0.002 -0.0399,0.013 -32.09583,10.43684 -53.21485,22.40429 l 0.55664,-0.28711 c 0,0 -5.90235,2.75321 -13.65624,5.60157 -7.7539,2.84836 -17.49845,5.6239 -23.27344,5.875 l 0.6875,15.81836 c 9.40629,-0.40899 19.62744,-3.73796 28.04492,-6.83008 8.41748,-3.09213 14.89258,-6.11524 14.89258,-6.11524 l 0.2832,-0.13281 0.27148,-0.1543 c 18.47127,-10.46705 50.39258,-21.15039 50.39258,-21.15039 l 0.0117,-0.004 0.0117,-0.004 c 11.2149,-3.73829 39.70508,-8.61133 39.70508,-8.61133 l 0.23828,-0.0391 0.23438,-0.0527 c 11.43823,-2.60615 18.09493,-0.61684 22.15624,1.51757 4.06132,2.13442 5.07422,3.9629 5.07422,3.9629 l 13.3086,-8.57813 c 0,0 -3.77349,-5.59625 -11.01563,-9.40234 -5.4316,-2.85457 -13.06953,-4.95433 -22.72265,-4.41993 z"
       id="path9781"
       inkscape:connector-curvature="0" />
    <path
       style="color:#000000;font-style:normal;font-variant:normal;font-weight:normal;font-stretch:normal;font-size:medium;line-height:normal;font-family:sans-serif;font-variant-ligatures:normal;font-variant-position:normal;font-variant-caps:normal;font-variant-numeric:normal;font-variant-alternates:normal;font-feature-settings:normal;text-indent:0;text-align:start;text-decoration:none;text-decoration-line:none;text-decoration-style:solid;text-decoration-color:#000000;letter-spacing:normal;word-spacing:normal;text-transform:none;writing-mode:lr-tb;direction:ltr;text-orientation:mixed;dominant-baseline:auto;baseline-shift:baseline;text-anchor:start;white-space:normal;shape-padding:0;clip-rule:nonzero;display:inline;overflow:visible;visibility:visible;opacity:1;isolation:auto;mix-blend-mode:normal;color-interpolation:sRGB;color-interpolation-filters:linearRGB;solid-color:#000000;solid-opacity:1;vector-effect:none;fill:#000000;fill-opacity:1;fill-rule:nonzero;stroke:none;stroke-width:15.83362389;stroke-linecap:butt;stroke-linejoin:miter;stroke-miterlimit:4;stroke-dasharray:none;stroke-dashoffset:0;stroke-opacity:1;color-rendering:auto;image-rendering:auto;shape-rendering:auto;text-rendering:auto;enable-background:accumulate"
       d="m 339.72627,352.69989 c -3.56097,0.19426 -7.41279,0.75366 -11.35157,1.90039 -15.75511,4.58695 -32.17019,20.20836 -34.64062,53.38282 l 15.78906,1.17578 c 2.14995,-28.87081 12.96022,-36.35174 23.27735,-39.35547 7.27803,-2.11893 13.28246,-1.31648 17.01171,-0.58789 5.59052,18.09125 17.76563,30.36328 17.76563,30.36328 l 11.33398,-11.05859 c 0,0 -11.73979,-12.46946 -15.09375,-27.8418 l -0.97656,-4.4707 -4.35937,-1.38672 c 0,0 -8.07297,-2.70386 -18.75586,-2.1211 z"
       id="path9783"
       inkscape:connector-curvature="0" />
    <path
       style="color:#000000;font-style:normal;font-variant:normal;font-weight:normal;font-stretch:normal;font-size:medium;line-height:normal;font-family:sans-serif;font-variant-ligatures:normal;font-variant-position:normal;font-variant-caps:normal;font-variant-numeric:normal;font-variant-alternates:normal;font-feature-settings:normal;text-indent:0;text-align:start;text-decoration:none;text-decoration-line:none;text-decoration-style:solid;text-decoration-color:#000000;letter-spacing:normal;word-spacing:normal;text-transform:none;writing-mode:lr-tb;direction:ltr;text-orientation:mixed;dominant-baseline:auto;baseline-shift:baseline;text-anchor:start;white-space:normal;shape-padding:0;clip-rule:nonzero;display:inline;overflow:visible;visibility:visible;opacity:1;isolation:auto;mix-blend-mode:normal;color-interpolation:sRGB;color-interpolation-filters:linearRGB;solid-color:#000000;solid-opacity:1;vector-effect:none;fill:#000000;fill-opacity:1;fill-rule:nonzero;stroke:none;stroke-width:15.83362389;stroke-linecap:butt;stroke-linejoin:miter;stroke-miterlimit:4;stroke-dasharray:none;stroke-dashoffset:0;stroke-opacity:1;color-rendering:auto;image-rendering:auto;shape-rendering:auto;text-rendering:auto;enable-background:accumulate"
       d="m 352.78877,344.61396 c -7.17805,8.67355 -4.53907,18.89453 -4.53907,18.89453 l 15.66797,-2.28516 c 0,0 0.3277,-5.61829 1.07032,-6.51562 z"
       id="path9785"
       inkscape:connector-curvature="0" />
    <path
       style="color:#000000;font-style:normal;font-variant:normal;font-weight:normal;font-stretch:normal;font-size:medium;line-height:normal;font-family:sans-serif;font-variant-ligatures:normal;font-variant-position:normal;font-variant-caps:normal;font-variant-numeric:normal;font-variant-alternates:normal;font-feature-settings:normal;text-indent:0;text-align:start;text-decoration:none;text-decoration-line:none;text-decoration-style:solid;text-decoration-color:#000000;letter-spacing:normal;word-spacing:normal;text-transform:none;writing-mode:lr-tb;direction:ltr;text-orientation:mixed;dominant-baseline:auto;baseline-shift:baseline;text-anchor:start;white-space:normal;shape-padding:0;clip-rule:nonzero;display:inline;overflow:visible;visibility:visible;opacity:1;isolation:auto;mix-blend-mode:normal;color-interpolation:sRGB;color-interpolation-filters:linearRGB;solid-color:#000000;solid-opacity:1;vector-effect:none;fill:#000000;fill-opacity:1;fill-rule:nonzero;stroke:none;stroke-width:15.83362389;stroke-linecap:butt;stroke-linejoin:miter;stroke-miterlimit:4;stroke-dasharray:none;stroke-dashoffset:0;stroke-opacity:1;color-rendering:auto;image-rendering:auto;shape-rendering:auto;text-rendering:auto;enable-background:accumulate"
       d="m 307.30244,350.48505 -11.67188,10.69727 c 0,0 7.77316,9.09459 10.08789,15.04687 l 14.75782,-5.73828 c -4.21939,-10.85002 -13.17383,-20.00586 -13.17383,-20.00586 z"
       id="path9787"
       inkscape:connector-curvature="0" />
    <path
       style="color:#000000;font-style:normal;font-variant:normal;font-weight:normal;font-stretch:normal;font-size:medium;line-height:normal;font-family:sans-serif;font-variant-ligatures:normal;font-variant-position:normal;font-variant-caps:normal;font-variant-numeric:normal;font-variant-alternates:normal;font-feature-settings:normal;text-indent:0;text-align:start;text-decoration:none;text-decoration-line:none;text-decoration-style:solid;text-decoration-color:#000000;letter-spacing:normal;word-spacing:normal;text-transform:none;writing-mode:lr-tb;direction:ltr;text-orientation:mixed;dominant-baseline:auto;baseline-shift:baseline;text-anchor:start;white-space:normal;shape-padding:0;clip-rule:nonzero;display:inline;overflow:visible;visibility:visible;opacity:1;isolation:auto;mix-blend-mode:normal;color-interpolation:sRGB;color-interpolation-filters:linearRGB;solid-color:#000000;solid-opacity:1;vector-effect:none;fill:#000000;fill-opacity:1;fill-rule:nonzero;stroke:none;stroke-width:15.83362389;stroke-linecap:butt;stroke-linejoin:miter;stroke-miterlimit:4;stroke-dasharray:none;stroke-dashoffset:0;stroke-opacity:1;color-rendering:auto;image-rendering:auto;shape-rendering:auto;text-rendering:auto;enable-background:accumulate"
       d="m 399.60908,349.66864 c -5.19915,2.27462 -8.13277,6.56683 -10.05469,11.13868 -1.92192,4.57184 -2.79125,9.76069 -2.30859,15.14062 0.48265,5.37994 2.42249,11.05367 6.53711,15.69922 4.11462,4.64555 10.3399,7.92963 17.85547,8.92969 l 2.08789,-15.69531 c -4.39633,-0.585 -6.58663,-2.03524 -8.08985,-3.73243 -1.50321,-1.69718 -2.3822,-3.9742 -2.61914,-6.61523 -0.23694,-2.64103 0.27386,-5.54193 1.13477,-7.58984 0.86091,-2.04792 2.11245,-2.90504 1.80273,-2.76954 z"
       id="path9789"
       inkscape:connector-curvature="0" />
    <path
       style="color:#000000;font-style:normal;font-variant:normal;font-weight:normal;font-stretch:normal;font-size:medium;line-height:normal;font-family:sans-serif;font-variant-ligatures:normal;font-variant-position:normal;font-variant-caps:normal;font-variant-numeric:normal;font-variant-alternates:normal;font-feature-settings:normal;text-indent:0;text-align:start;text-decoration:none;text-decoration-line:none;text-decoration-style:solid;text-decoration-color:#000000;letter-spacing:normal;word-spacing:normal;text-transform:none;writing-mode:lr-tb;direction:ltr;text-orientation:mixed;dominant-baseline:auto;baseline-shift:baseline;text-anchor:start;white-space:normal;shape-padding:0;clip-rule:nonzero;display:inline;overflow:visible;visibility:visible;opacity:1;isolation:auto;mix-blend-mode:normal;color-interpolation:sRGB;color-interpolation-filters:linearRGB;solid-color:#000000;solid-opacity:1;vector-effect:none;fill:#000000;fill-opacity:1;fill-rule:nonzero;stroke:none;stroke-width:15.83362389;stroke-linecap:butt;stroke-linejoin:miter;stroke-miterlimit:4;stroke-dasharray:none;stroke-dashoffset:0;stroke-opacity:1;color-rendering:auto;image-rendering:auto;shape-rendering:auto;text-rendering:auto;enable-background:accumulate"
       d="m 347.73603,445.98114 c -10.17943,-0.21163 -21.0708,0.12522 -32.01758,1.40235 l -0.30468,0.0352 -0.30274,0.0606 c 0,0 -8.43325,1.64724 -19.08398,2.25586 -10.65074,0.60862 -23.41617,-0.27254 -30.10156,-3.48828 l -6.86329,14.26758 c 11.75048,5.65209 26.05651,5.7042 37.86719,5.02929 11.2885,-0.64506 19.8988,-2.28662 20.68164,-2.4375 40.20551,-4.67702 81.27735,4.52735 81.27735,4.52735 l 3.51562,-15.4375 c 0,0 -24.12968,-5.57995 -54.66797,-6.21485 z"
       id="path9791"
       inkscape:connector-curvature="0" />
    <path
       style="color:#000000;font-style:normal;font-variant:normal;font-weight:normal;font-stretch:normal;font-size:medium;line-height:normal;font-family:sans-serif;font-variant-ligatures:normal;font-variant-position:normal;font-variant-caps:normal;font-variant-numeric:normal;font-variant-alternates:normal;font-feature-settings:normal;text-indent:0;text-align:start;text-decoration:none;text-decoration-line:none;text-decoration-style:solid;text-decoration-color:#000000;letter-spacing:normal;word-spacing:normal;text-transform:none;writing-mode:lr-tb;direction:ltr;text-orientation:mixed;dominant-baseline:auto;baseline-shift:baseline;text-anchor:start;white-space:normal;shape-padding:0;clip-rule:nonzero;display:inline;overflow:visible;visibility:visible;opacity:1;isolation:auto;mix-blend-mode:normal;color-interpolation:sRGB;color-interpolation-filters:linearRGB;solid-color:#000000;solid-opacity:1;vector-effect:none;fill:#000000;fill-opacity:1;fill-rule:nonzero;stroke:none;stroke-width:15.83362389;stroke-linecap:butt;stroke-linejoin:miter;stroke-miterlimit:4;stroke-dasharray:none;stroke-dashoffset:0;stroke-opacity:1;color-rendering:auto;image-rendering:auto;shape-rendering:auto;text-rendering:auto;enable-background:accumulate"
       d="m 273.90205,481.9245 -9.89258,12.36524 c 12.34603,9.87683 31.16577,14.23225 31.52344,14.31445 15.69194,4.57855 70.77929,21.39844 70.77929,21.39844 l 0.16211,0.0488 0.16602,0.043 c 17.7043,4.58416 29.20945,10.42717 36.18359,14.94921 6.97414,4.52205 8.94532,7.13868 8.94532,7.13868 l 12.29296,-9.97852 c 0,0 -4.19411,-4.97871 -12.625,-10.44531 -8.43088,-5.4666 -21.56933,-12.00553 -40.82812,-16.99219 l 0.32812,0.0918 c 0,0 -54.98846,-16.79508 -71.05273,-21.48047 l -0.0996,-0.0293 -0.10156,-0.0254 c 0,0 -18.44368,-5.52838 -25.78125,-11.39844 z"
       id="path9793"
       inkscape:connector-curvature="0" />
    <path
       style="color:#000000;font-style:normal;font-variant:normal;font-weight:normal;font-stretch:normal;font-size:medium;line-height:normal;font-family:sans-serif;font-variant-ligatures:normal;font-variant-position:normal;font-variant-caps:normal;font-variant-numeric:normal;font-variant-alternates:normal;font-feature-settings:normal;text-indent:0;text-align:start;text-decoration:none;text-decoration-line:none;text-decoration-style:solid;text-decoration-color:#000000;letter-spacing:normal;word-spacing:normal;text-transform:none;writing-mode:lr-tb;direction:ltr;text-orientation:mixed;dominant-baseline:auto;baseline-shift:baseline;text-anchor:start;white-space:normal;shape-padding:0;clip-rule:nonzero;display:inline;overflow:visible;visibility:visible;opacity:1;isolation:auto;mix-blend-mode:normal;color-interpolation:sRGB;color-interpolation-filters:linearRGB;solid-color:#000000;solid-opacity:1;vector-effect:none;fill:#000000;fill-opacity:1;fill-rule:nonzero;stroke:none;stroke-width:15.83362389;stroke-linecap:butt;stroke-linejoin:miter;stroke-miterlimit:4;stroke-dasharray:none;stroke-dashoffset:0;stroke-opacity:1;color-rendering:auto;image-rendering:auto;shape-rendering:auto;text-rendering:auto;enable-background:accumulate"
       d="m 316.72041,569.2995 -12.36328,9.89063 c 2.86133,3.57669 7.66201,12.6738 11.19531,20.38281 2.49171,5.43645 3.33428,7.64365 4.30469,10.02344 -1.36325,0.90851 -3.29319,1.93885 -5.36719,2.80859 -4.46506,1.87244 -8.87109,3.01172 -8.87109,3.01172 l -5.08985,1.29297 -0.78711,5.19336 c -1.22216,8.06632 0.6927,16.73235 2.46485,24.38281 1.77214,7.65046 3.76171,13.86524 3.76171,13.86524 l 1.17969,3.6914 3.63867,1.33399 c 29.46915,10.79394 48.62478,10.46225 60.97266,6.39648 6.17394,-2.03288 10.53194,-5.0032 13.3418,-7.63476 1.7945,-1.68064 2.87756,-3.17876 3.58789,-4.25782 3.67368,-3.81927 6.48364,-8.7003 9.61719,-14.5957 3.33855,-6.28111 6.68997,-13.48835 9.71093,-20.35938 6.04192,-13.74204 10.76563,-26.18164 10.76563,-26.18164 l -14.80274,-5.62109 c 0,0 -4.60856,12.12764 -10.45703,25.42969 -2.92423,6.65102 -6.15864,13.58591 -9.19726,19.30273 -3.03863,5.71683 -6.27515,10.39172 -7.34571,11.42774 l -0.93945,0.9082 -0.59766,1.16211 c 0,0 0.0896,0.0544 -1.16406,1.22852 -1.25362,1.17407 -3.49626,2.84368 -7.4707,4.15234 -7.55867,2.48883 -21.92419,3.53689 -46.77344,-4.95117 -0.63053,-2.09519 -1.27033,-3.98215 -2.40234,-8.86914 -1.13398,-4.89545 -1.76817,-9.94305 -2.02735,-13.89844 1.61284,-0.54846 3.13513,-1.02327 5.00782,-1.80859 2.88292,-1.20897 5.92938,-2.67363 8.78515,-4.68946 2.85577,-2.01583 5.95822,-4.58307 7.25977,-9.35547 l 0.69336,-2.54297 -0.9668,-2.44921 c 0,0 -2.71017,-6.86179 -6.4375,-14.99415 -3.72733,-8.13235 -8.16723,-17.35157 -13.22656,-23.67578 z"
       id="path9795"
       inkscape:connector-curvature="0" />
    <path
       style="color:#000000;font-style:normal;font-variant:normal;font-weight:normal;font-stretch:normal;font-size:medium;line-height:normal;font-family:sans-serif;font-variant-ligatures:normal;font-variant-position:normal;font-variant-caps:normal;font-variant-numeric:normal;font-variant-alternates:normal;font-feature-settings:normal;text-indent:0;text-align:start;text-decoration:none;text-decoration-line:none;text-decoration-style:solid;text-decoration-color:#000000;letter-spacing:normal;word-spacing:normal;text-transform:none;writing-mode:lr-tb;direction:ltr;text-orientation:mixed;dominant-baseline:auto;baseline-shift:baseline;text-anchor:start;white-space:normal;shape-padding:0;clip-rule:nonzero;display:inline;overflow:visible;visibility:visible;opacity:1;isolation:auto;mix-blend-mode:normal;color-interpolation:sRGB;color-interpolation-filters:linearRGB;solid-color:#000000;solid-opacity:1;vector-effect:none;fill:#000000;fill-opacity:1;fill-rule:nonzero;stroke:none;stroke-width:15.83362389;stroke-linecap:butt;stroke-linejoin:miter;stroke-miterlimit:4;stroke-dasharray:none;stroke-dashoffset:0;stroke-opacity:1;color-rendering:auto;image-rendering:auto;shape-rendering:auto;text-rendering:auto;enable-background:accumulate"
       d="m 370.68916,596.05146 c -11.29537,8.80155 -20.78449,10.31764 -27.62305,10.05078 -6.83856,-0.26686 -10.33203,-2.21485 -10.33203,-2.21485 l -7.42773,13.98243 c 0,0 7.0672,3.66151 17.14257,4.05468 10.07537,0.39318 23.85582,-2.38272 37.97266,-13.38281 z"
       id="path9797"
       inkscape:connector-curvature="0" />
    <path
       style="color:#000000;font-style:normal;font-variant:normal;font-weight:normal;font-stretch:normal;font-size:medium;line-height:normal;font-family:sans-serif;font-variant-ligatures:normal;font-variant-position:normal;font-variant-caps:normal;font-variant-numeric:normal;font-variant-alternates:normal;font-feature-settings:normal;text-indent:0;text-align:start;text-decoration:none;text-decoration-line:none;text-decoration-style:solid;text-decoration-color:#000000;letter-spacing:normal;word-spacing:normal;text-transform:none;writing-mode:lr-tb;direction:ltr;text-orientation:mixed;dominant-baseline:auto;baseline-shift:baseline;text-anchor:start;white-space:normal;shape-padding:0;clip-rule:nonzero;display:inline;overflow:visible;visibility:visible;opacity:1;isolation:auto;mix-blend-mode:normal;color-interpolation:sRGB;color-interpolation-filters:linearRGB;solid-color:#000000;solid-opacity:1;vector-effect:none;fill:#000000;fill-opacity:1;fill-rule:nonzero;stroke:none;stroke-width:15.83362389;stroke-linecap:butt;stroke-linejoin:miter;stroke-miterlimit:4;stroke-dasharray:none;stroke-dashoffset:0;stroke-opacity:1;color-rendering:auto;image-rendering:auto;shape-rendering:auto;text-rendering:auto;enable-background:accumulate"
       d="m 321.42939,608.62958 c -3.87115,13.06501 2.86631,25.07367 9.05078,33.80469 6.18448,8.73101 13.02149,14.89844 13.02149,14.89844 l 10.64258,-11.72266 c 0,0 -5.7057,-5.21779 -10.74219,-12.32812 -5.03649,-7.11034 -8.20035,-15.39786 -6.79102,-20.1543 z"
       id="path9799"
       inkscape:connector-curvature="0" />
    <path
       style="color:#000000;font-style:normal;font-variant:normal;font-weight:normal;font-stretch:normal;font-size:medium;line-height:normal;font-family:sans-serif;font-variant-ligatures:normal;font-variant-position:normal;font-variant-caps:normal;font-variant-numeric:normal;font-variant-alternates:normal;font-feature-settings:normal;text-indent:0;text-align:start;text-decoration:none;text-decoration-line:none;text-decoration-style:solid;text-decoration-color:#000000;letter-spacing:normal;word-spacing:normal;text-transform:none;writing-mode:lr-tb;direction:ltr;text-orientation:mixed;dominant-baseline:auto;baseline-shift:baseline;text-anchor:start;white-space:normal;shape-padding:0;clip-rule:nonzero;display:inline;overflow:visible;visibility:visible;opacity:1;isolation:auto;mix-blend-mode:normal;color-interpolation:sRGB;color-interpolation-filters:linearRGB;solid-color:#000000;solid-opacity:1;vector-effect:none;fill:#000000;fill-opacity:1;fill-rule:nonzero;stroke:none;stroke-width:15.83362389;stroke-linecap:butt;stroke-linejoin:miter;stroke-miterlimit:4;stroke-dasharray:none;stroke-dashoffset:0;stroke-opacity:1;color-rendering:auto;image-rendering:auto;shape-rendering:auto;text-rendering:auto;enable-background:accumulate"
       d="m 257.27119,601.45771 -3.0332,15.54101 c 0,0 10.02101,1.95489 21.39843,4.63672 11.37743,2.68183 24.82111,6.64725 28.22852,8.45117 l 7.4082,-13.99414 c -7.8135,-4.13656 -20.27936,-7.10354 -32.0039,-9.86719 -11.72455,-2.76364 -21.99805,-4.76757 -21.99805,-4.76757 z"
       id="path9801"
       inkscape:connector-curvature="0" />
    <path
       style="color:#000000;font-style:normal;font-variant:normal;font-weight:normal;font-stretch:normal;font-size:medium;line-height:normal;font-family:sans-serif;font-variant-ligatures:normal;font-variant-position:normal;font-variant-caps:normal;font-variant-numeric:normal;font-variant-alternates:normal;font-feature-settings:normal;text-indent:0;text-align:start;text-decoration:none;text-decoration-line:none;text-decoration-style:solid;text-decoration-color:#000000;letter-spacing:normal;word-spacing:normal;text-transform:none;writing-mode:lr-tb;direction:ltr;text-orientation:mixed;dominant-baseline:auto;baseline-shift:baseline;text-anchor:start;white-space:normal;shape-padding:0;clip-rule:nonzero;display:inline;overflow:visible;visibility:visible;opacity:1;isolation:auto;mix-blend-mode:normal;color-interpolation:sRGB;color-interpolation-filters:linearRGB;solid-color:#000000;solid-opacity:1;vector-effect:none;fill:#000000;fill-opacity:1;fill-rule:nonzero;stroke:none;stroke-width:15.83362389;stroke-linecap:butt;stroke-linejoin:miter;stroke-miterlimit:4;stroke-dasharray:none;stroke-dashoffset:0;stroke-opacity:1;color-rendering:auto;image-rendering:auto;shape-rendering:auto;text-rendering:auto;enable-background:accumulate"
       d="m 318.08564,651.28193 -9.15234,12.91992 c 0,0 1.02673,0.65452 3.32617,3.33008 2.29944,2.67555 5.41931,7.04369 8.26367,13.58203 5.68872,13.07666 10.38107,34.9314 4.32813,69.65625 l 15.59961,2.71875 c 6.48812,-37.22137 1.60916,-62.56057 -5.40821,-78.69141 -3.50868,-8.06542 -7.52623,-13.80532 -10.77539,-17.58594 -3.24916,-3.78062 -6.18164,-5.92968 -6.18164,-5.92968 z"
       id="path9803"
       inkscape:connector-curvature="0" />
    <path
       style="color:#000000;font-style:normal;font-variant:normal;font-weight:normal;font-stretch:normal;font-size:medium;line-height:normal;font-family:sans-serif;font-variant-ligatures:normal;font-variant-position:normal;font-variant-caps:normal;font-variant-numeric:normal;font-variant-alternates:normal;font-feature-settings:normal;text-indent:0;text-align:start;text-decoration:none;text-decoration-line:none;text-decoration-style:solid;text-decoration-color:#000000;letter-spacing:normal;word-spacing:normal;text-transform:none;writing-mode:lr-tb;direction:ltr;text-orientation:mixed;dominant-baseline:auto;baseline-shift:baseline;text-anchor:start;white-space:normal;shape-padding:0;clip-rule:nonzero;display:inline;overflow:visible;visibility:visible;opacity:1;isolation:auto;mix-blend-mode:normal;color-interpolation:sRGB;color-interpolation-filters:linearRGB;solid-color:#000000;solid-opacity:1;vector-effect:none;fill:#000000;fill-opacity:1;fill-rule:nonzero;stroke:none;stroke-width:15.83362389;stroke-linecap:butt;stroke-linejoin:miter;stroke-miterlimit:4;stroke-dasharray:none;stroke-dashoffset:0;stroke-opacity:1;color-rendering:auto;image-rendering:auto;shape-rendering:auto;text-rendering:auto;enable-background:accumulate"
       d="m 224.37666,482.17841 c -24.90791,1.11527 -38.65481,16.25227 -44.20704,30.13281 -5.55222,13.88055 -4.59179,27.1211 -4.59179,27.1211 l 15.80078,-1.00196 c 0,0 -0.5264,-10.19181 3.49219,-20.23828 4.01859,-10.04647 10.89895,-19.33043 30.21484,-20.19531 z"
       id="path9805"
       inkscape:connector-curvature="0" />
    <path
       style="color:#000000;font-style:normal;font-variant:normal;font-weight:normal;font-stretch:normal;font-size:medium;line-height:normal;font-family:sans-serif;font-variant-ligatures:normal;font-variant-position:normal;font-variant-caps:normal;font-variant-numeric:normal;font-variant-alternates:normal;font-feature-settings:normal;text-indent:0;text-align:start;text-decoration:none;text-decoration-line:none;text-decoration-style:solid;text-decoration-color:#000000;letter-spacing:normal;word-spacing:normal;text-transform:none;writing-mode:lr-tb;direction:ltr;text-orientation:mixed;dominant-baseline:auto;baseline-shift:baseline;text-anchor:start;white-space:normal;shape-padding:0;clip-rule:nonzero;display:inline;overflow:visible;visibility:visible;opacity:1;isolation:auto;mix-blend-mode:normal;color-interpolation:sRGB;color-interpolation-filters:linearRGB;solid-color:#000000;solid-opacity:1;vector-effect:none;fill:#000000;fill-opacity:1;fill-rule:nonzero;stroke:none;stroke-width:15.83362389;stroke-linecap:butt;stroke-linejoin:miter;stroke-miterlimit:4;stroke-dasharray:none;stroke-dashoffset:0;stroke-opacity:1;color-rendering:auto;image-rendering:auto;shape-rendering:auto;text-rendering:auto;enable-background:accumulate"
       d="m 209.65791,461.14325 c -25.22117,3.90752 -39.91691,15.41229 -47.58204,26.2793 -7.66512,10.86701 -8.60156,21.51172 -8.60156,21.51172 l 15.78321,1.25 c 0,0 0.38485,-6.02213 5.75585,-13.63672 5.37101,-7.61458 15.4255,-16.40469 37.06837,-19.75781 z"
       id="path9807"
       inkscape:connector-curvature="0" />
    <path
       style="color:#000000;font-style:normal;font-variant:normal;font-weight:normal;font-stretch:normal;font-size:medium;line-height:normal;font-family:sans-serif;font-variant-ligatures:normal;font-variant-position:normal;font-variant-caps:normal;font-variant-numeric:normal;font-variant-alternates:normal;font-feature-settings:normal;text-indent:0;text-align:start;text-decoration:none;text-decoration-line:none;text-decoration-style:solid;text-decoration-color:#000000;letter-spacing:normal;word-spacing:normal;text-transform:none;writing-mode:lr-tb;direction:ltr;text-orientation:mixed;dominant-baseline:auto;baseline-shift:baseline;text-anchor:start;white-space:normal;shape-padding:0;clip-rule:nonzero;display:inline;overflow:visible;visibility:visible;opacity:1;isolation:auto;mix-blend-mode:normal;color-interpolation:sRGB;color-interpolation-filters:linearRGB;solid-color:#000000;solid-opacity:1;vector-effect:none;fill:#000000;fill-opacity:1;fill-rule:nonzero;stroke:none;stroke-width:25.47543716;stroke-linecap:butt;stroke-linejoin:miter;stroke-miterlimit:4;stroke-dasharray:none;stroke-dashoffset:0;stroke-opacity:1;color-rendering:auto;image-rendering:auto;shape-rendering:auto;text-rendering:auto;enable-background:accumulate"
       d="m 338.22289,-216.16997 c -98.1555,-0.0203 -165.59304,39.39244 -204.38,98.35235 -38.794417,58.97126 -49.613546,135.97354 -41.134694,212.1955 8.478854,76.22195 36.296534,151.9983 77.368144,209.54615 19.93509,27.93227 43.22144,51.75122 69.10129,68.82649 l 4.96743,-14.34461 168.8784,1.37936 4.55331,13.13952 c 26.38996,-17.3635 50.06712,-41.74745 70.3019,-70.36434 40.82892,-57.74211 68.59868,-133.4902 77.82006,-209.52281 9.22141,-76.03264 -0.0189,-152.62407 -35.84382,-211.36175 -35.81787,-58.72564 -99.28518,-98.1694 -191.57748,-97.84586 z m 0.0399,25.4725 h 0.0318 0.0238 c 85.2537,-0.31385 138.13332,33.73133 169.79067,85.63558 31.65734,51.90426 41.02234,123.10642 32.29838,195.03722 -8.72391,71.93077 -35.44609,144.31269 -73.32398,197.88133 -17.43763,24.66102 -37.03797,45.17022 -58.18148,60.15391 0.17355,4.33521 0.55931,3.7272 4.12123,11.7747 l -168.87841,-1.37936 3.96504,-10.39768 C 227.31914,333.2828 208.00953,313.22115 190.8135,289.12679 152.7545,235.80329 126.02706,163.50203 118.02485,91.5649 c -8.00221,-71.93707 2.76106,-143.17218 37.10616,-195.38004 34.3451,-52.20788 91.58361,-86.91533 183.13082,-86.88233 z"
       id="path10-9-9-0-3-4-7"
       inkscape:connector-curvature="0"
       sodipodi:nodetypes="csssccccssccccccssscccccsscc" />
    <path
       style="color:#000000;font-style:normal;font-variant:normal;font-weight:normal;font-stretch:normal;font-size:medium;line-height:normal;font-family:sans-serif;font-variant-ligatures:normal;font-variant-position:normal;font-variant-caps:normal;font-variant-numeric:normal;font-variant-alternates:normal;font-feature-settings:normal;text-indent:0;text-align:start;text-decoration:none;text-decoration-line:none;text-decoration-style:solid;text-decoration-color:#000000;letter-spacing:normal;word-spacing:normal;text-transform:none;writing-mode:lr-tb;direction:ltr;text-orientation:mixed;dominant-baseline:auto;baseline-shift:baseline;text-anchor:start;white-space:normal;shape-padding:0;clip-rule:nonzero;display:inline;overflow:visible;visibility:visible;opacity:1;isolation:auto;mix-blend-mode:normal;color-interpolation:sRGB;color-interpolation-filters:linearRGB;solid-color:#000000;solid-opacity:1;vector-effect:none;fill:#000000;fill-opacity:1;fill-rule:nonzero;stroke:none;stroke-width:13.06121063;stroke-linecap:butt;stroke-linejoin:miter;stroke-miterlimit:4;stroke-dasharray:none;stroke-dashoffset:0;stroke-opacity:1;color-rendering:auto;image-rendering:auto;shape-rendering:auto;text-rendering:auto;enable-background:accumulate"
       d="m 421.35908,216.81122 c -49.72149,48.94839 -92.52485,50.88976 -125.19141,40.57227 -16.33327,-5.15875 -30.1081,-13.64323 -40.34765,-21.4375 -10.23956,-7.79427 -16.65233,-14.59717 -19.33594,-17.25586 l -9.19141,9.2793 c 2.06809,2.04889 9.52799,9.92961 20.61524,18.36914 11.08725,8.43952 26.09345,17.74132 44.32617,23.5 36.46544,11.51734 85.93536,7.81705 138.28711,-43.72071 z"
       id="path29"
       inkscape:connector-curvature="0" />
    <path
       style="color:#000000;font-style:normal;font-variant:normal;font-weight:normal;font-stretch:normal;font-size:medium;line-height:normal;font-family:sans-serif;font-variant-ligatures:normal;font-variant-position:normal;font-variant-caps:normal;font-variant-numeric:normal;font-variant-alternates:normal;font-feature-settings:normal;text-indent:0;text-align:start;text-decoration:none;text-decoration-line:none;text-decoration-style:solid;text-decoration-color:#000000;letter-spacing:normal;word-spacing:normal;text-transform:none;writing-mode:lr-tb;direction:ltr;text-orientation:mixed;dominant-baseline:auto;baseline-shift:baseline;text-anchor:start;white-space:normal;shape-padding:0;clip-rule:nonzero;display:inline;overflow:visible;visibility:visible;opacity:1;isolation:auto;mix-blend-mode:normal;color-interpolation:sRGB;color-interpolation-filters:linearRGB;solid-color:#000000;solid-opacity:1;vector-effect:none;fill:#000000;fill-opacity:1;fill-rule:nonzero;stroke:none;stroke-width:13.06121063;stroke-linecap:butt;stroke-linejoin:miter;stroke-miterlimit:4;stroke-dasharray:none;stroke-dashoffset:0;stroke-opacity:1;color-rendering:auto;image-rendering:auto;shape-rendering:auto;text-rendering:auto;enable-background:accumulate"
       d="m 243.61494,-22.92511 c -12.9855,0.11241 -23.48399,5.33044 -30.24414,13.13868 -6.77085,7.82057 -9.92124,17.91472 -9.83008,27.85351 0.0912,9.9388 3.41989,19.91043 10.27344,27.49414 6.83263,7.56057 17.32172,12.40062 30.01562,12.00586 12.45113,-0.0324 22.58198,-5.31753 29.01367,-13.12304 6.45148,-7.82952 9.41568,-17.85706 9.35157,-27.74415 -0.0641,-9.88708 -3.15266,-19.82071 -9.67383,-27.45703 -6.49685,-7.60784 -16.65149,-12.57899 -28.90625,-12.16797 z m 0.3457,13.05079 c 8.75842,-0.3222 14.47441,2.73467 18.62891,7.5996 4.1545,4.86494 6.49843,11.8897 6.54492,19.0586 0.0465,7.1689 -2.2022,14.29413 -6.37109,19.35351 -4.1689,5.05938 -10.02949,8.37891 -19.04297,8.37891 h -0.10938 l -0.10937,0.004 c -9.37471,0.31493 -15.59414,-2.84392 -19.9961,-7.71485 -4.40195,-4.87092 -6.83947,-11.79038 -6.90429,-18.85742 -0.0648,-7.06703 2.23787,-14.09373 6.64453,-19.18359 4.40666,-5.08986 10.79237,-8.5627 20.52344,-8.63477 h 0.0957 z"
       id="path87"
       inkscape:connector-curvature="0" />
    <path
       style="color:#000000;font-style:normal;font-variant:normal;font-weight:normal;font-stretch:normal;font-size:medium;line-height:normal;font-family:sans-serif;font-variant-ligatures:normal;font-variant-position:normal;font-variant-caps:normal;font-variant-numeric:normal;font-variant-alternates:normal;font-feature-settings:normal;text-indent:0;text-align:start;text-decoration:none;text-decoration-line:none;text-decoration-style:solid;text-decoration-color:#000000;letter-spacing:normal;word-spacing:normal;text-transform:none;writing-mode:lr-tb;direction:ltr;text-orientation:mixed;dominant-baseline:auto;baseline-shift:baseline;text-anchor:start;white-space:normal;shape-padding:0;clip-rule:nonzero;display:inline;overflow:visible;visibility:visible;opacity:1;isolation:auto;mix-blend-mode:normal;color-interpolation:sRGB;color-interpolation-filters:linearRGB;solid-color:#000000;solid-opacity:1;vector-effect:none;fill:#000000;fill-opacity:1;fill-rule:nonzero;stroke:none;stroke-width:13.06121063;stroke-linecap:butt;stroke-linejoin:miter;stroke-miterlimit:4;stroke-dasharray:none;stroke-dashoffset:0;stroke-opacity:1;color-rendering:auto;image-rendering:auto;shape-rendering:auto;text-rendering:auto;enable-background:accumulate"
       d="m 243.01142,-49.65167 c -24.52919,0.65526 -47.94913,12.48299 -76.35351,33.57813 l 7.78906,10.48632 c 27.51564,-20.43508 48.37425,-30.45912 68.91406,-31.00781 20.53981,-0.54868 42.06959,8.30659 71.10352,28.48828 l 7.45508,-10.72461 c -30.04825,-20.88675 -54.37901,-31.47556 -78.90821,-30.82031 z"
       id="path59"
       inkscape:connector-curvature="0" />
    <path
       style="color:#000000;font-style:normal;font-variant:normal;font-weight:normal;font-stretch:normal;font-size:medium;line-height:normal;font-family:sans-serif;font-variant-ligatures:normal;font-variant-position:normal;font-variant-caps:normal;font-variant-numeric:normal;font-variant-alternates:normal;font-feature-settings:normal;text-indent:0;text-align:start;text-decoration:none;text-decoration-line:none;text-decoration-style:solid;text-decoration-color:#000000;letter-spacing:normal;word-spacing:normal;text-transform:none;writing-mode:lr-tb;direction:ltr;text-orientation:mixed;dominant-baseline:auto;baseline-shift:baseline;text-anchor:start;white-space:normal;shape-padding:0;clip-rule:nonzero;display:inline;overflow:visible;visibility:visible;opacity:1;isolation:auto;mix-blend-mode:normal;color-interpolation:sRGB;color-interpolation-filters:linearRGB;solid-color:#000000;solid-opacity:1;vector-effect:none;fill:#000000;fill-opacity:1;fill-rule:nonzero;stroke:none;stroke-width:13.06121063;stroke-linecap:butt;stroke-linejoin:miter;stroke-miterlimit:4;stroke-dasharray:none;stroke-dashoffset:0;stroke-opacity:1;color-rendering:auto;image-rendering:auto;shape-rendering:auto;text-rendering:auto;enable-background:accumulate"
       d="m 420.95283,-24.78839 c -12.9855,0.11241 -23.48203,5.3324 -30.24219,13.14063 -6.77084,7.82058 -9.92124,17.91276 -9.83008,27.85156 0.0912,9.9388 3.4199,19.91238 10.27344,27.49609 6.83263,7.56058 17.31977,12.39865 30.01367,12.00391 12.45206,-0.0318 22.58359,-5.31711 29.01563,-13.12305 6.45147,-7.82952 9.41568,-17.85705 9.35156,-27.74414 -0.0641,-9.88708 -3.15462,-19.82071 -9.67578,-27.45703 -6.4972,-7.60826 -16.6506,-12.57958 -28.90625,-12.16797 z m 0.34766,13.05078 c 8.75841,-0.32218 14.47244,2.73466 18.62695,7.59961 4.1545,4.86495 6.50038,11.89165 6.54687,19.06055 0.0465,7.16891 -2.20219,14.29414 -6.37109,19.35352 -4.1689,5.05938 -10.02948,8.3789 -19.04297,8.3789 h -0.10937 l -0.10938,0.004 c -9.37471,0.31492 -15.59609,-2.84586 -19.99805,-7.7168 -4.40195,-4.87094 -6.83752,-11.79038 -6.90234,-18.85742 -0.0648,-7.06704 2.23787,-14.09374 6.64453,-19.18359 4.40666,-5.08986 10.79237,-8.56269 20.52344,-8.63477 h 0.0957 z"
       id="path87-1"
       inkscape:connector-curvature="0" />
    <path
       style="color:#000000;font-style:normal;font-variant:normal;font-weight:normal;font-stretch:normal;font-size:medium;line-height:normal;font-family:sans-serif;font-variant-ligatures:normal;font-variant-position:normal;font-variant-caps:normal;font-variant-numeric:normal;font-variant-alternates:normal;font-feature-settings:normal;text-indent:0;text-align:start;text-decoration:none;text-decoration-line:none;text-decoration-style:solid;text-decoration-color:#000000;letter-spacing:normal;word-spacing:normal;text-transform:none;writing-mode:lr-tb;direction:ltr;text-orientation:mixed;dominant-baseline:auto;baseline-shift:baseline;text-anchor:start;white-space:normal;shape-padding:0;clip-rule:nonzero;display:inline;overflow:visible;visibility:visible;opacity:1;isolation:auto;mix-blend-mode:normal;color-interpolation:sRGB;color-interpolation-filters:linearRGB;solid-color:#000000;solid-opacity:1;vector-effect:none;fill:#000000;fill-opacity:1;fill-rule:nonzero;stroke:none;stroke-width:13.06121063;stroke-linecap:butt;stroke-linejoin:miter;stroke-miterlimit:4;stroke-dasharray:none;stroke-dashoffset:0;stroke-opacity:1;color-rendering:auto;image-rendering:auto;shape-rendering:auto;text-rendering:auto;enable-background:accumulate"
       d="m 421.83759,-51.263 c -24.4775,0.0498 -48.43518,11.25615 -77.86718,33.34766 l 7.84179,10.44531 c 28.41021,-21.32456 49.53688,-30.68874 70.05079,-30.73047 20.51391,-0.0417 41.71899,9.32472 70.0332,28.29493 l 7.26953,-10.85157 C 470.00944,-40.29152 446.3151,-51.31279 421.83759,-51.263 Z"
       id="path59-1"
       inkscape:connector-curvature="0" />
    <path
       style="color:#000000;font-style:normal;font-variant:normal;font-weight:normal;font-stretch:normal;font-size:medium;line-height:normal;font-family:sans-serif;font-variant-ligatures:normal;font-variant-position:normal;font-variant-caps:normal;font-variant-numeric:normal;font-variant-alternates:normal;font-feature-settings:normal;text-indent:0;text-align:start;text-decoration:none;text-decoration-line:none;text-decoration-style:solid;text-decoration-color:#000000;letter-spacing:normal;word-spacing:normal;text-transform:none;writing-mode:lr-tb;direction:ltr;text-orientation:mixed;dominant-baseline:auto;baseline-shift:baseline;text-anchor:start;white-space:normal;shape-padding:0;clip-rule:nonzero;display:inline;overflow:visible;visibility:visible;opacity:1;isolation:auto;mix-blend-mode:normal;color-interpolation:sRGB;color-interpolation-filters:linearRGB;solid-color:#000000;solid-opacity:1;vector-effect:none;fill:#000000;fill-opacity:1;fill-rule:nonzero;stroke:none;stroke-width:13.06121063;stroke-linecap:butt;stroke-linejoin:miter;stroke-miterlimit:4;stroke-dasharray:none;stroke-dashoffset:0;stroke-opacity:1;color-rendering:auto;image-rendering:auto;shape-rendering:auto;text-rendering:auto;enable-background:accumulate"
       d="m 325.51924,83.69013 c 0,0 -1.47335,14.53783 -3.91016,29.80859 -1.2184,7.63538 -2.68651,15.45427 -4.26367,21.5293 -0.78858,3.03751 -1.61375,5.64664 -2.35352,7.44531 -0.73977,1.79867 -1.69597,2.73981 -1.00976,2.16797 -1.44532,1.20442 -2.97472,2.20757 -3.77539,5.41016 -0.40034,1.60129 -0.17259,3.9885 0.84961,5.65429 1.02219,1.6658 2.35245,2.48021 3.35742,2.95313 4.01984,1.89167 6.08321,1.16506 8.8164,0.97656 5.4664,-0.377 11.38672,-1.5957 11.38672,-1.5957 l -2.5625,-12.80664 c 0,0 -2.7913,0.35547 -4.48047,0.63281 0.86628,-2.32248 1.68479,-4.74563 2.41407,-7.55469 1.76251,-6.78898 3.2641,-14.8865 4.51953,-22.7539 2.51086,-15.73482 4.00586,-30.55274 4.00586,-30.55274 z"
       id="path971"
       inkscape:connector-curvature="0" />
    <path
       inkscape:connector-curvature="0"
       style="font-style:normal;font-weight:normal;font-size:233.33332825px;line-height:1.25;font-family:sans-serif;letter-spacing:0px;word-spacing:0px;fill:#000000;fill-opacity:1;stroke:none"
       d="m 471.33787,851.60616 v 55.1425 c -5.69661,-2.9622 -11.12804,-5.1269 -16.29297,-6.4941 -5.16493,-1.4432 -11.08941,-2.1641 -17.77344,-2.1641 -7.36762,0 -14.50607,1.5185 -21.41796,4.5567 -6.83594,3.0382 -12.83703,7.4442 -18.00196,13.2168 -5.24088,5.9244 -9.41905,13.1022 -12.5332,21.5332 -3.03819,8.431 -4.55664,18.0386 -4.55664,28.8242 0,20.7357 4.44336,36.95334 13.33008,48.65044 8.96267,11.697 21.03949,17.5449 36.23047,17.5449 7.82335,0 15.07769,-1.4811 21.76171,-4.4434 6.68403,-2.9622 13.10157,-7.1011 19.25391,-12.4179 v 13.3301 h 21.41992 V 851.60616 Z m -294.85742,6.4941 v 22.2168 h 24.1543 v -22.2168 z M 61.7519,859.23896 0,1028.8855 h 22.9004 l 16.6347,-47.28334 h 73.37113 l 16.63477,47.28334 h 24.03906 l -61.75,-169.64654 z m 14.4688,19.7109 29.73631,83.2852 H 46.3711 Z m 229.80076,19.1406 c -7.51953,0 -14.84852,1.5578 -21.98828,4.6719 -7.13975,3.1142 -14.0523,7.4436 -20.73632,12.9883 v -14.1289 h -21.41797 v 127.26374 h 21.41797 v -95.01964 c 5.84852,-4.4813 11.96354,-8.1664 18.34375,-11.0527 6.3802,-2.8863 12.49522,-4.3281 18.34375,-4.3281 5.69661,0 10.32855,0.7975 13.89843,2.3925 3.56988,1.5191 6.30426,3.8724 8.20313,7.0625 1.82291,2.8863 3.07617,6.9132 3.75976,12.0782 0.6836,5.0889 1.02539,10.5577 1.02539,16.4062 v 72.46104 H 348.291 v -82.60164 c 0,-15.5708 -3.60851,-27.4963 -10.82422,-35.7754 -7.21571,-8.2791 -17.69749,-12.418 -31.44532,-12.418 z m 272.41211,0.4551 c -7.67144,0 -15.45616,0.6836 -23.35546,2.0508 -7.89931,1.3672 -13.93772,2.6204 -18.11524,3.7598 v 21.7617 h 1.13867 c 7.36762,-2.8104 14.50803,-4.9377 21.41992,-6.3809 6.9119,-1.5191 13.17817,-2.2773 18.79883,-2.2773 4.63325,0 9.07661,0.3025 13.33008,0.9101 4.25347,0.6077 7.89931,1.7863 10.9375,3.5332 3.19011,1.8229 5.62001,4.3295 7.29102,7.5196 1.74696,3.1901 2.62109,7.215 2.62109,12.0761 v 3.3047 c -12.4566,0.6077 -24.11502,1.5191 -34.97656,2.7344 -10.86155,1.2153 -20.16667,3.5312 -27.91406,6.9492 -7.67145,3.418 -13.59592,8.1265 -17.77344,14.127 -4.10156,5.9244 -6.15235,13.7111 -6.15235,23.3574 0,11.77304 3.98763,21.45724 11.96289,29.05274 7.97527,7.5955 17.69684,11.3926 29.16602,11.3926 6.2283,0 11.65972,-0.607 16.29297,-1.8223 4.63325,-1.1393 8.73481,-2.5831 12.30469,-4.33 3.03819,-1.3672 6.15169,-3.1901 9.34179,-5.4688 3.26606,-2.3546 5.84918,-4.1775 7.74805,-5.4687 v 13.5586 h 21.30469 v -86.36144 c 0,-8.2031 -1.25326,-15.0764 -3.75977,-20.6211 -2.50651,-5.5447 -6.15234,-10.0646 -10.9375,-13.5586 -4.86111,-3.5698 -10.63238,-6.0764 -17.3164,-7.5195 -6.60808,-1.5191 -14.39475,-2.2793 -23.35743,-2.2793 z m -400.58593,3.0762 v 127.26374 h 21.41992 V 901.62176 Z m 263.07031,16.0644 c 5.39279,0 10.36849,0.495 14.92578,1.4825 4.55729,0.9874 9.72157,2.771 15.49414,5.3535 v 73.0312 c -5.39279,4.25354 -11.20334,7.74814 -17.43164,10.48244 -6.2283,2.6585 -12.38064,3.9864 -18.45703,3.9864 -11.39323,0 -19.67296,-3.9111 -24.83789,-11.7344 -5.16493,-7.89934 -7.74609,-19.40654 -7.74609,-34.52154 -1e-5,-15.3429 3.34136,-27.1918 10.02539,-35.5469 6.68402,-8.355 16.02647,-12.5332 28.02734,-12.5332 z m 171.58203,44.4336 v 35.4336 c -5.31684,4.10164 -11.09006,7.63354 -17.31836,10.59574 -6.2283,2.8863 -13.10156,4.3301 -20.62109,4.3301 -9.03863,0 -15.76064,-1.8229 -20.16602,-5.4687 -4.40538,-3.7218 -6.60742,-9.22994 -6.60742,-16.52154 0,-6.4562 1.89757,-11.5065 5.69531,-15.1524 3.79775,-3.7218 8.77344,-6.4561 14.92578,-8.2031 5.16493,-1.4431 12.15213,-2.5451 20.96289,-3.3047 8.88672,-0.7595 16.59679,-1.3292 23.12891,-1.709 z"
       id="text175" />
  </g>
</svg>
