<?xml version="1.0" encoding="UTF-8" standalone="no"?>
<!-- Created with Inkscape (http://www.inkscape.org/) -->

<svg
   xmlns:dc="http://purl.org/dc/elements/1.1/"
   xmlns:cc="http://creativecommons.org/ns#"
   xmlns:rdf="http://www.w3.org/1999/02/22-rdf-syntax-ns#"
   xmlns:svg="http://www.w3.org/2000/svg"
   xmlns="http://www.w3.org/2000/svg"
   xmlns:sodipodi="http://sodipodi.sourceforge.net/DTD/sodipodi-0.dtd"
   xmlns:inkscape="http://www.inkscape.org/namespaces/inkscape"
   width="1000"
   height="1250"
   viewBox="0 0 1000 1250"
   version="1.1"
   id="svg57785"
   inkscape:version="0.92.4 (5da689c313, 2019-01-14)"
   sodipodi:docname="Finalmente - Ufa.svg">
  <defs
     id="defs57779" />
  <sodipodi:namedview
     id="base"
     pagecolor="#ffffff"
     bordercolor="#666666"
     borderopacity="1.0"
     inkscape:pageopacity="0.0"
     inkscape:pageshadow="2"
     inkscape:zoom="0.35355339"
     inkscape:cx="1286.8145"
     inkscape:cy="622.80345"
     inkscape:document-units="px"
     inkscape:current-layer="layer1"
     showgrid="false"
     units="px"
     inkscape:window-width="1366"
     inkscape:window-height="715"
     inkscape:window-x="-8"
     inkscape:window-y="-8"
     inkscape:window-maximized="1"
     showguides="false" />
  <metadata
     id="metadata57782">
    <rdf:RDF>
      <cc:Work
         rdf:about="">
        <dc:format>image/svg+xml</dc:format>
        <dc:type
           rdf:resource="http://purl.org/dc/dcmitype/StillImage" />
        <dc:title></dc:title>
      </cc:Work>
    </rdf:RDF>
  </metadata>
  <g
     inkscape:label="Camada 1"
     inkscape:groupmode="layer"
     id="layer1"
     transform="translate(0,217.58335)">
    <path
       style="color:#000000;font-style:normal;font-variant:normal;font-weight:normal;font-stretch:normal;font-size:medium;line-height:normal;font-family:sans-serif;font-variant-ligatures:normal;font-variant-position:normal;font-variant-caps:normal;font-variant-numeric:normal;font-variant-alternates:normal;font-feature-settings:normal;text-indent:0;text-align:start;text-decoration:none;text-decoration-line:none;text-decoration-style:solid;text-decoration-color:#000000;letter-spacing:normal;word-spacing:normal;text-transform:none;writing-mode:lr-tb;direction:ltr;text-orientation:mixed;dominant-baseline:auto;baseline-shift:baseline;text-anchor:start;white-space:normal;shape-padding:0;clip-rule:nonzero;display:inline;overflow:visible;visibility:visible;opacity:1;isolation:auto;mix-blend-mode:normal;color-interpolation:sRGB;color-interpolation-filters:linearRGB;solid-color:#000000;solid-opacity:1;vector-effect:none;fill:#000000;fill-opacity:1;fill-rule:nonzero;stroke:none;stroke-width:12.94547653;stroke-linecap:butt;stroke-linejoin:miter;stroke-miterlimit:4;stroke-dasharray:none;stroke-dashoffset:0;stroke-opacity:1;color-rendering:auto;image-rendering:auto;shape-rendering:auto;text-rendering:auto;enable-background:accumulate"
       d="m 320.2363,-217.35351 c -6.7206,-0.41485 -15.9427,3.24673 -20.8906,13.4336 l -0.3164,0.64844 -0.1641,0.70312 c 0,0 -4.9915,21.22775 -6.6191,30.73438 -0.064,0.22818 -10.4322,36.9002 -17.8457,57.77734 -0.079,0.18972 -4.4562,10.67161 -9.4903,22.14453 -2.5397,5.78812 -5.2255,11.77871 -7.541,16.67187 -2.3155,4.89317 -4.5972,9.06539 -4.9843,9.60743 l -0.2833,0.39648 -0.2207,0.43359 c 0,0 -14.5087,27.9616 -18.9101,47.46094 -0.06,0.16414 -4.693,12.90429 -10.3711,27.07031 -2.8573,7.12848 -5.9627,14.57007 -8.8086,20.78321 -2.1032,4.59169 -3.9786,8.07349 -5.4102,10.48633 -4.0441,0.12461 -13.9618,0.32412 -21.58,-1.33204 l -0.211,-0.0449 -0.2148,-0.0332 c 0,0 -29.2288,-3.85806 -47.4531,21.38477 -0.8338,0.68675 -5.2815,4.37589 -10.5313,9.79687 -5.7613,5.94918 -12.2711,13.01811 -14.3555,21.70313 l 0.5059,-1.38477 c 0,0 -15.7156,31.42797 -32.4512,67.4004 -16.7355,35.97244 -34.4075,75.65593 -38.8769,95.63673 l 0.1035,-0.3965 c 0,0 -4.5219,15.4942 -12.4707,32.3711 -7.9489,16.8769 -19.9212,34.4618 -30.8457,39.0136 l 4.9785,11.9493 c 17.5852,-7.3272 29.1339,-27.5187 37.5781,-45.4473 8.4442,-17.9287 13.1895,-34.2695 13.1895,-34.2695 l 0.057,-0.1954 0.045,-0.1992 c 3.6084,-16.1314 21.3359,-57.22695 37.9805,-93.00387 16.6446,-35.77693 32.291,-67.07032 32.291,-67.07032 l 0.3321,-0.66211 0.1718,-0.72265 c 0.7666,-3.19401 5.899,-10.3809 11.0664,-15.7168 5.1674,-5.33591 10.0098,-9.2832 10.0098,-9.2832 l 0.709,-0.57813 0.5215,-0.75195 C 163.0676,48.7876 184.479,52.39454 184.479,52.39454 l -0.4277,-0.0781 c 12.5346,2.72495 28.3769,1.56055 28.3769,1.56055 l 2.9336,-0.17774 1.7969,-2.32422 c 2.8642,-3.70665 5.4126,-8.94552 8.4023,-15.47265 2.9897,-6.52713 6.1507,-14.11227 9.0547,-21.35742 5.8081,-14.49031 10.5879,-27.63672 10.5879,-27.63672 l 0.1504,-0.41407 0.094,-0.43164 c 3.3819,-15.64133 17.9746,-45 17.9746,-45 l -0.5039,0.83008 c 1.9886,-2.78409 3.7459,-6.51048 6.1523,-11.5957 2.4065,-5.08523 5.1251,-11.15448 7.6934,-17.00781 5.1366,-11.70666 9.668,-22.55664 9.668,-22.55664 l 0.068,-0.16211 0.059,-0.16407 c 7.766,-21.8421 18.1855,-58.85547 18.1855,-58.85547 l 0.098,-0.34375 0.059,-0.34961 c 1.2565,-7.53915 6.0074,-28.03588 6.3653,-29.57811 2.9919,-5.86047 5.3617,-5.88454 8.1738,-5.71094 2.2528,0.13906 3.9836,0.93432 4.8183,1.35156 8.1921,9.63229 9.872,26.64137 8.2032,43.83008 -1.7102,17.61435 -6.4148,34.26364 -8.0039,43.00391 l -0.1387,0.76367 0.047,0.77343 c 0.5891,10.01474 -3.7822,32.43088 -8.7148,51.51562 -2.4664,9.54238 -5.0276,18.41968 -7.0469,24.98243 -1.0097,3.28137 -1.8875,5.98978 -2.5332,7.875 -0.3229,0.9426 -0.5901,1.68536 -0.7637,2.13476 -0.011,0.0277 -0.01,0.0233 -0.019,0.0488 l -0.7539,1.00391 -0.123,1.92383 c -0.1425,2.20764 -1.6509,8.4071 -3.9493,15.36718 -2.2983,6.96009 -5.322,15.02722 -8.3242,22.65039 -6.0043,15.24635 -11.9043,28.69727 -11.9043,28.69727 l -4.6719,10.65234 11.5157,-1.64453 c 3.6933,-0.52762 11.0928,-0.18601 17.1191,0.44531 6.0263,0.63133 10.8359,1.43165 10.8359,1.43165 l 0.5977,0.0996 0.6055,-0.0117 c 20.9569,-0.4507 30.4913,4.72523 35.0195,9.02929 4.5282,4.30407 4.4805,7.35742 4.4805,7.35742 l 0.027,0.33594 0.062,0.33203 c 2.3528,12.54837 -2.014,39.36585 -7.5274,61.88868 -5.5134,22.52283 -11.7363,41.31836 -11.7363,41.31836 l -4.834,14.5918 13.8164,-6.73829 c 8.6217,-4.20569 30.3815,-11.41512 49.3594,-17.20898 18.9779,-5.79386 35.543,-10.4082 35.543,-10.4082 l 0.541,-0.15039 0.5058,-0.24024 c 27.1267,-12.91742 61.1211,-4.34179 61.1211,-4.34179 l 0.2422,0.0644 0.2481,0.0449 c 17.824,3.30075 26.2556,10.76976 30.7539,17.14649 4.3304,6.13869 4.7555,10.67846 4.7851,11.02539 -0.082,8.49838 -2.7755,9.66087 -6.039,10.77343 -3.3141,1.1298 -7.2071,0.58985 -7.2071,0.58985 l -0.5039,-0.0918 -0.5097,-0.0117 c -12.3255,-0.2739 -28.9186,3.60661 -43.2344,7.33594 -7.1579,1.86466 -13.6572,3.72235 -18.4121,5.07031 -2.3775,0.67398 -4.3299,1.22178 -5.6328,1.5625 -0.1721,0.045 -0.2089,0.0505 -0.3575,0.0879 l -0.2792,-0.0937 -1.9004,0.52539 c -37.6444,10.40173 -80.5293,36.82811 -80.5293,36.82811 l -0.6563,0.4004 -0.5449,0.5449 c -5.5623,5.5624 -16.1895,11.7715 -16.1895,11.7715 l 0.5079,-0.2578 c -28.2164,12.8257 -41.4747,36.9707 -41.4747,36.9707 l -0.2226,0.4043 -0.1641,0.4316 c -6.2209,16.3819 -24.0926,32.3205 -40.6992,43.5645 -16.584,11.2288 -31.3895,17.8959 -31.4297,17.9141 -16.8027,5.5001 -27.8008,17.6992 -27.8008,17.6992 l 0.1953,-0.2032 c -4.8075,4.8076 -11.494,10.9062 -17.4863,15.8614 -2.9961,2.4776 -5.8317,4.6777 -8.0976,6.2558 -2.266,1.5781 -4.4122,2.5001 -3.8536,2.3477 l 3.4063,12.4902 c 3.1721,-0.8651 5.1225,-2.3183 7.8457,-4.2148 2.7232,-1.8965 5.7683,-4.272 8.9492,-6.9024 6.3619,-5.2608 13.2179,-11.5147 18.3887,-16.6855 l 0.1,-0.1 0.096,-0.1035 c 0,0 9.6213,-10.2256 22.8184,-14.3496 l 0.3691,-0.1172 0.3535,-0.1582 c 0,0 15.7993,-7.0956 33.4043,-19.0156 17.3718,-11.7622 36.9326,-28.1124 45.168,-48.8692 0.03,-0.054 11.4707,-20.5175 35.4902,-31.4355 l 0.2598,-0.1172 0.248,-0.1406 c 0,0 10.4317,-5.7784 18.1231,-13.1465 1.0171,-0.6147 42.3445,-25.51166 76.4218,-35.04495 0.2868,-0.0416 0.56,-0.0825 0.795,-0.13086 0.6283,-0.12918 1.2604,-0.28732 2.0215,-0.48633 1.522,-0.39801 3.4996,-0.95555 5.8886,-1.63281 4.778,-1.35452 11.1664,-3.18021 18.1446,-4.99805 13.9562,-3.63567 30.6247,-7.12119 39.6816,-6.91992 l -1.0137,-0.10351 c 0,0 6.5598,1.36164 13.6992,-1.07227 7.1395,-2.43391 14.8379,-10.35908 14.8379,-23.35156 v -0.28321 l -0.023,-0.2832 c 0,0 -0.8466,-8.65042 -7.1582,-17.59766 -6.2881,-8.91392 -18.233,-18.50589 -38.7558,-22.36132 -0.7746,-0.21397 -36.8767,-10.04892 -69.1172,4.94922 -0.3756,0.10468 -16.5046,4.59817 -35.4395,10.3789 -13.1613,4.01808 -27.0982,8.46813 -38.1855,12.5918 2.2761,-7.64021 5.1755,-17.82854 7.9336,-29.0957 5.5918,-22.8433 10.8796,-48.89209 7.7519,-66.7422 -0.011,-0.0901 -1.0211,-8.57056 -8.4511,-15.63281 -7.4021,-7.03562 -20.7682,-12.96132 -43.6172,-12.58203 -0.5008,-0.0825 -4.8991,-0.81882 -11.0098,-1.45899 -3.023,-0.31669 -6.3081,-0.59552 -9.5762,-0.73437 2.1977,-5.12085 4.0624,-9.25782 8.2129,-19.79688 3.0561,-7.76017 6.1487,-15.99663 8.5723,-23.33593 2.1765,-6.59114 3.705,-12.05698 4.2676,-16.86328 0.1264,-0.2901 0.2408,-0.56628 0.3593,-0.87305 0.2747,-0.71089 0.5811,-1.56484 0.9375,-2.60547 0.713,-2.08127 1.6188,-4.88537 2.6582,-8.26367 2.079,-6.75662 4.6842,-15.78778 7.2071,-25.54883 4.9092,-18.99386 9.5804,-40 9.0644,-54.2246 1.3057,-7.04667 6.2573,-24.86588 8.0977,-43.82227 1.8536,-19.09186 0.9947,-40.33254 -12.1328,-54.60156 l -0.5918,-0.64453 -0.7403,-0.46289 c 0,0 -4.9239,-3.22968 -11.6445,-3.64454 z m 126.0059,419.25586 c 0.015,-0.001 0.084,0.0222 0.1,0.0215 -0.1452,0.0347 -0.3641,0.0904 -0.4512,0.10937 0.068,-0.0389 0.1032,-0.11095 0.3516,-0.13086 z"
       id="path1304-9"
       inkscape:connector-curvature="0" />
    <path
       style="color:#000000;font-style:normal;font-variant:normal;font-weight:normal;font-stretch:normal;font-size:medium;line-height:normal;font-family:sans-serif;font-variant-ligatures:normal;font-variant-position:normal;font-variant-caps:normal;font-variant-numeric:normal;font-variant-alternates:normal;font-feature-settings:normal;text-indent:0;text-align:start;text-decoration:none;text-decoration-line:none;text-decoration-style:solid;text-decoration-color:#000000;letter-spacing:normal;word-spacing:normal;text-transform:none;writing-mode:lr-tb;direction:ltr;text-orientation:mixed;dominant-baseline:auto;baseline-shift:baseline;text-anchor:start;white-space:normal;shape-padding:0;clip-rule:nonzero;display:inline;overflow:visible;visibility:visible;opacity:1;isolation:auto;mix-blend-mode:normal;color-interpolation:sRGB;color-interpolation-filters:linearRGB;solid-color:#000000;solid-opacity:1;vector-effect:none;fill:#000000;fill-opacity:1;fill-rule:nonzero;stroke:none;stroke-width:12.94547653;stroke-linecap:butt;stroke-linejoin:miter;stroke-miterlimit:4;stroke-dasharray:none;stroke-dashoffset:0;stroke-opacity:1;color-rendering:auto;image-rendering:auto;shape-rendering:auto;text-rendering:auto;enable-background:accumulate"
       d="m 188.1992,156.7754 c -0.2567,17.4559 6.9855,30.73402 11.7344,37.76367 -0.3947,0.52991 -0.9755,1.08516 -1.2832,1.5586 -0.1261,0.19397 -0.075,0.18425 -0.1914,0.375 -2.6524,-0.13332 -6.4791,-0.81164 -10.1778,-2.25 -4.7958,-1.86506 -8.5429,-3.99805 -8.5429,-3.99805 l -17.1465,-9.79883 8.0215,18.04883 c 1.0613,2.38808 1.6987,9.25267 1.4629,14.95312 -0.2359,5.70045 -0.9395,10.33594 -0.9395,10.33594 l -0.4473,2.92577 1.9219,2.252 c 5.7875,6.7853 13.9944,12.2659 20.877,16.3867 6.608,3.9564 11.8248,6.4274 12.2519,6.6289 5.9043,4.4834 12.825,6.1143 19.1934,5.7129 6.7648,-0.4265 13.0259,-2.7446 18.4629,-5.4746 8.3538,-4.1947 13.7428,-8.6379 16.375,-10.92 12.5535,1.4538 23.5293,-4.8455 31.1718,-11.1718 6.1356,-5.0789 9.7066,-9.49327 11.6192,-12.00002 11.7736,-1.11399 19.9329,-3.78494 25.1894,-6.59766 2.8567,-1.52855 4.9006,-3.07187 6.2911,-4.33789 1.3769,-1.25377 2.3519,-2.5967 2.371,-2.62305 3.1621,-4.53427 5.8683,-10.98079 8.2383,-16.80078 2.378,-5.83935 4.1485,-10.81055 4.1485,-10.81055 l -12.1934,-4.34765 c 0,0 -1.688,4.7323 -3.9453,10.27539 -2.2573,5.54309 -5.3545,12.12922 -6.8828,14.3125 l -0.027,0.0371 -0.025,0.0391 c 0,0 0.2061,-0.20472 -0.3985,0.3457 -0.6045,0.55043 -1.7523,1.46272 -3.6835,2.4961 -3.8625,2.06675 -10.8932,4.63154 -22.9063,5.42187 l -3.1113,0.20508 -1.7793,2.55859 c 0,0 -4.3635,6.22931 -11.1602,11.85547 -6.7967,5.6262 -15.2066,9.9048 -23.416,8.0391 l -3.3418,-0.7598 -2.5078,2.3379 c 0,0 -6.9704,6.4253 -15.8359,10.8769 -4.4328,2.2259 -9.2385,3.8565 -13.4668,4.1231 -4.2284,0.2665 -7.718,-0.5518 -11.168,-3.457 l -0.6504,-0.5489 -0.7715,-0.3613 c 0,0 -5.0876,-2.3852 -11.3926,-6.1602 -5.5112,-3.2997 -11.7362,-7.7248 -15.8925,-11.88863 0.2518,-1.92232 0.5747,-3.75668 0.7656,-8.37109 0.093,-2.25763 0.018,-4.73484 -0.047,-7.17578 5.5249,2.09536 12.0366,4.13489 19.0059,2.39258 l 3.3203,-0.83008 1.1836,-3.21094 c 0,0 0.3834,-0.98674 1.0332,-1.98633 0.6497,-0.99958 1.4012,-1.09876 0.3398,-0.92187 l 11.6133,-1.93555 -7.8555,-8.76953 c 0,0 -12.7561,-14.48581 -12.4609,-34.56055 z"
       id="path1306-2"
       inkscape:connector-curvature="0" />
    <path
       style="color:#000000;font-style:normal;font-variant:normal;font-weight:normal;font-stretch:normal;font-size:medium;line-height:normal;font-family:sans-serif;font-variant-ligatures:normal;font-variant-position:normal;font-variant-caps:normal;font-variant-numeric:normal;font-variant-alternates:normal;font-feature-settings:normal;text-indent:0;text-align:start;text-decoration:none;text-decoration-line:none;text-decoration-style:solid;text-decoration-color:#000000;letter-spacing:normal;word-spacing:normal;text-transform:none;writing-mode:lr-tb;direction:ltr;text-orientation:mixed;dominant-baseline:auto;baseline-shift:baseline;text-anchor:start;white-space:normal;shape-padding:0;clip-rule:nonzero;display:inline;overflow:visible;visibility:visible;opacity:1;isolation:auto;mix-blend-mode:normal;color-interpolation:sRGB;color-interpolation-filters:linearRGB;solid-color:#000000;solid-opacity:1;vector-effect:none;fill:#000000;fill-opacity:1;fill-rule:nonzero;stroke:none;stroke-width:12.94547653;stroke-linecap:butt;stroke-linejoin:miter;stroke-miterlimit:4;stroke-dasharray:none;stroke-dashoffset:0;stroke-opacity:1;color-rendering:auto;image-rendering:auto;shape-rendering:auto;text-rendering:auto;enable-background:accumulate"
       d="m 286.1562,37.6172 c 0,0 -53.0077,-0.15425 -75.1484,3.4082 l 2.0566,12.78125 c 18.6372,-2.99872 73.1016,-3.24414 73.1016,-3.24414 z"
       id="path1308-0"
       inkscape:connector-curvature="0" />
    <path
       style="color:#000000;font-style:normal;font-variant:normal;font-weight:normal;font-stretch:normal;font-size:medium;line-height:normal;font-family:sans-serif;font-variant-ligatures:normal;font-variant-position:normal;font-variant-caps:normal;font-variant-numeric:normal;font-variant-alternates:normal;font-feature-settings:normal;text-indent:0;text-align:start;text-decoration:none;text-decoration-line:none;text-decoration-style:solid;text-decoration-color:#000000;letter-spacing:normal;word-spacing:normal;text-transform:none;writing-mode:lr-tb;direction:ltr;text-orientation:mixed;dominant-baseline:auto;baseline-shift:baseline;text-anchor:start;white-space:normal;shape-padding:0;clip-rule:nonzero;display:inline;overflow:visible;visibility:visible;opacity:1;isolation:auto;mix-blend-mode:normal;color-interpolation:sRGB;color-interpolation-filters:linearRGB;solid-color:#000000;solid-opacity:1;vector-effect:none;fill:#000000;fill-opacity:1;fill-rule:nonzero;stroke:none;stroke-width:12.94547653;stroke-linecap:butt;stroke-linejoin:miter;stroke-miterlimit:4;stroke-dasharray:none;stroke-dashoffset:0;stroke-opacity:1;color-rendering:auto;image-rendering:auto;shape-rendering:auto;text-rendering:auto;enable-background:accumulate"
       d="m 298.7851,-35.0371 -7.9785,10.19336 c 9.7586,7.63717 20.7676,6.4707 20.7676,6.4707 l -1.4102,-12.86914 c 0,0 -5.6819,0.66354 -11.3789,-3.79492 z"
       id="path1310-0"
       inkscape:connector-curvature="0" />
    <path
       style="color:#000000;font-style:normal;font-variant:normal;font-weight:normal;font-stretch:normal;font-size:medium;line-height:normal;font-family:sans-serif;font-variant-ligatures:normal;font-variant-position:normal;font-variant-caps:normal;font-variant-numeric:normal;font-variant-alternates:normal;font-feature-settings:normal;text-indent:0;text-align:start;text-decoration:none;text-decoration-line:none;text-decoration-style:solid;text-decoration-color:#000000;letter-spacing:normal;word-spacing:normal;text-transform:none;writing-mode:lr-tb;direction:ltr;text-orientation:mixed;dominant-baseline:auto;baseline-shift:baseline;text-anchor:start;white-space:normal;shape-padding:0;clip-rule:nonzero;display:inline;overflow:visible;visibility:visible;opacity:1;isolation:auto;mix-blend-mode:normal;color-interpolation:sRGB;color-interpolation-filters:linearRGB;solid-color:#000000;solid-opacity:1;vector-effect:none;fill:#000000;fill-opacity:1;fill-rule:nonzero;stroke:none;stroke-width:12.94547653;stroke-linecap:butt;stroke-linejoin:miter;stroke-miterlimit:4;stroke-dasharray:none;stroke-dashoffset:0;stroke-opacity:1;color-rendering:auto;image-rendering:auto;shape-rendering:auto;text-rendering:auto;enable-background:accumulate"
       d="m 318.9961,-121.50194 -5.3946,11.76757 c 10.5277,4.82524 20.0723,0.45899 20.0723,0.45899 l -5.6953,-11.625 c 0,0 -3.3828,1.96497 -8.9824,-0.60156 z"
       id="path1312-5"
       inkscape:connector-curvature="0" />
    <path
       style="color:#000000;font-style:normal;font-variant:normal;font-weight:normal;font-stretch:normal;font-size:medium;line-height:normal;font-family:sans-serif;font-variant-ligatures:normal;font-variant-position:normal;font-variant-caps:normal;font-variant-numeric:normal;font-variant-alternates:normal;font-feature-settings:normal;text-indent:0;text-align:start;text-decoration:none;text-decoration-line:none;text-decoration-style:solid;text-decoration-color:#000000;letter-spacing:normal;word-spacing:normal;text-transform:none;writing-mode:lr-tb;direction:ltr;text-orientation:mixed;dominant-baseline:auto;baseline-shift:baseline;text-anchor:start;white-space:normal;shape-padding:0;clip-rule:nonzero;display:inline;overflow:visible;visibility:visible;opacity:1;isolation:auto;mix-blend-mode:normal;color-interpolation:sRGB;color-interpolation-filters:linearRGB;solid-color:#000000;solid-opacity:1;vector-effect:none;fill:#000000;fill-opacity:1;fill-rule:nonzero;stroke:none;stroke-width:12.94547653;stroke-linecap:butt;stroke-linejoin:miter;stroke-miterlimit:4;stroke-dasharray:none;stroke-dashoffset:0;stroke-opacity:1;color-rendering:auto;image-rendering:auto;shape-rendering:auto;text-rendering:auto;enable-background:accumulate"
       d="m 435.1816,146.68165 -12.9453,0.0879 c 0,0 0.038,5.82583 0.916,13.22461 0.8784,7.39878 2.4398,16.45129 6.3282,24.02344 l 11.5175,-5.91211 c -2.4954,-4.85948 -4.1994,-12.97545 -4.9902,-19.63672 -0.7908,-6.66127 -0.8262,-11.78711 -0.8262,-11.78711 z"
       id="path1314-6"
       inkscape:connector-curvature="0" />
    <path
       style="color:#000000;font-style:normal;font-variant:normal;font-weight:normal;font-stretch:normal;font-size:medium;line-height:normal;font-family:sans-serif;font-variant-ligatures:normal;font-variant-position:normal;font-variant-caps:normal;font-variant-numeric:normal;font-variant-alternates:normal;font-feature-settings:normal;text-indent:0;text-align:start;text-decoration:none;text-decoration-line:none;text-decoration-style:solid;text-decoration-color:#000000;letter-spacing:normal;word-spacing:normal;text-transform:none;writing-mode:lr-tb;direction:ltr;text-orientation:mixed;dominant-baseline:auto;baseline-shift:baseline;text-anchor:start;white-space:normal;shape-padding:0;clip-rule:nonzero;display:inline;overflow:visible;visibility:visible;opacity:1;isolation:auto;mix-blend-mode:normal;color-interpolation:sRGB;color-interpolation-filters:linearRGB;solid-color:#000000;solid-opacity:1;vector-effect:none;fill:#000000;fill-opacity:1;fill-rule:nonzero;stroke:none;stroke-width:12.94547653;stroke-linecap:butt;stroke-linejoin:miter;stroke-miterlimit:4;stroke-dasharray:none;stroke-dashoffset:0;stroke-opacity:1;color-rendering:auto;image-rendering:auto;shape-rendering:auto;text-rendering:auto;enable-background:accumulate"
       d="m 162.959,64.0586 c -12.5028,0.14982 -22.6387,4.4336 -22.6387,4.4336 l 4.5449,12.12109 c 0,0 22.4348,-7.17724 34.6153,0.43555 l 6.8613,-10.97657 C 178.8138,65.3673 170.4607,63.96871 162.959,64.0586 Z"
       id="path1316-0"
       inkscape:connector-curvature="0" />
    <path
       style="color:#000000;font-style:normal;font-variant:normal;font-weight:normal;font-stretch:normal;font-size:medium;line-height:normal;font-family:sans-serif;font-variant-ligatures:normal;font-variant-position:normal;font-variant-caps:normal;font-variant-numeric:normal;font-variant-alternates:normal;font-feature-settings:normal;text-indent:0;text-align:start;text-decoration:none;text-decoration-line:none;text-decoration-style:solid;text-decoration-color:#000000;letter-spacing:normal;word-spacing:normal;text-transform:none;writing-mode:lr-tb;direction:ltr;text-orientation:mixed;dominant-baseline:auto;baseline-shift:baseline;text-anchor:start;white-space:normal;shape-padding:0;clip-rule:nonzero;display:inline;overflow:visible;visibility:visible;opacity:1;isolation:auto;mix-blend-mode:normal;color-interpolation:sRGB;color-interpolation-filters:linearRGB;solid-color:#000000;solid-opacity:1;vector-effect:none;fill:#000000;fill-opacity:1;fill-rule:nonzero;stroke:none;stroke-width:12.94547653;stroke-linecap:butt;stroke-linejoin:miter;stroke-miterlimit:4;stroke-dasharray:none;stroke-dashoffset:0;stroke-opacity:1;color-rendering:auto;image-rendering:auto;shape-rendering:auto;text-rendering:auto;enable-background:accumulate"
       d="m 233.5371,66.71681 -7.8457,10.29687 c 0,0 8.804,6.54371 22.8867,7.68555 l -0.293,-0.0293 c 0,0 10.2132,1.29688 23.3164,4.5625 13.1033,3.26561 28.9681,8.63049 39.3204,15.83203 l 0.5507,0.38477 0.6192,0.26172 c 0,0 7.7143,3.3111 14.9472,8.71679 3.6165,2.70285 7.0099,5.9051 9.1446,9.07032 2.0534,3.04479 2.8733,5.77945 2.5722,8.63281 -0.377,1.13676 -4.3973,13.16676 -11.83,28.6582 -7.7903,16.23654 -19.1736,35.2972 -31.9746,46.26953 l 8.4238,9.82813 c 15.4221,-13.21894 27.0534,-33.46966 35.2226,-50.4961 8.1693,-17.02643 12.7481,-31.02734 12.7481,-31.02734 l 0.1816,-0.55273 0.078,-0.57617 c 0.9334,-6.76666 -1.3413,-13.01307 -4.6875,-17.97461 -3.3461,-4.96155 -7.7656,-8.9402 -12.1289,-12.20118 C 326.3906,97.782 318.1975,94.2639 317.5643,93.99415 304.8242,85.35762 288.339,80.06297 274.7323,76.67188 260.8724,73.2177 249.9159,71.82813 249.9159,71.82813 l -0.1446,-0.0195 -0.1464,-0.0117 C 238.8444,70.92284 233.537,66.71685 233.537,66.71685 Z"
       id="path1320-2"
       inkscape:connector-curvature="0" />
    <path
       style="color:#000000;font-style:normal;font-variant:normal;font-weight:normal;font-stretch:normal;font-size:medium;line-height:normal;font-family:sans-serif;font-variant-ligatures:normal;font-variant-position:normal;font-variant-caps:normal;font-variant-numeric:normal;font-variant-alternates:normal;font-feature-settings:normal;text-indent:0;text-align:start;text-decoration:none;text-decoration-line:none;text-decoration-style:solid;text-decoration-color:#000000;letter-spacing:normal;word-spacing:normal;text-transform:none;writing-mode:lr-tb;direction:ltr;text-orientation:mixed;dominant-baseline:auto;baseline-shift:baseline;text-anchor:start;white-space:normal;shape-padding:0;clip-rule:nonzero;display:inline;overflow:visible;visibility:visible;opacity:1;isolation:auto;mix-blend-mode:normal;color-interpolation:sRGB;color-interpolation-filters:linearRGB;solid-color:#000000;solid-opacity:1;vector-effect:none;fill:#000000;fill-opacity:1;fill-rule:nonzero;stroke:none;stroke-width:12.94547653;stroke-linecap:butt;stroke-linejoin:miter;stroke-miterlimit:4;stroke-dasharray:none;stroke-dashoffset:0;stroke-opacity:1;color-rendering:auto;image-rendering:auto;shape-rendering:auto;text-rendering:auto;enable-background:accumulate"
       d="m 204.1855,81.63477 -8.9492,9.35547 c 0,0 7.7396,7.49671 11.1797,11.79688 l 0.3867,0.48242 0.4707,0.40235 c 0,0 4.6409,3.95419 10.4883,8.46874 5.8474,4.51456 12.626,9.55426 18.5332,12.29688 l -0.8809,-0.49609 c 0,0 12.8894,8.65298 26.1309,18.79101 6.6208,5.06902 13.3233,10.51421 18.4063,15.2832 5.0829,4.769 8.3193,9.83581 8.2597,9.61524 l 0.012,0.0449 0.014,0.0449 c 0.6656,2.32933 0.8685,2.03471 1.1192,2.56836 0.2506,0.53365 0.4981,1.13368 0.707,1.97266 0.4178,1.67797 0.7212,4.30907 -0.4043,8.70703 -2.2509,8.79592 -10.724,24.5857 -36.2754,48.81833 l 8.9082,9.3926 c 26.527,-25.15782 36.7013,-42.46252 39.9102,-55.00195 1.6044,-6.26971 1.3394,-11.3661 0.4238,-15.04296 -0.4578,-1.83844 -1.0678,-3.32143 -1.5508,-4.34961 -0.483,-1.02818 -0.8882,-2.36244 -0.3906,-0.6211 l 0.025,0.0898 c -1.7395,-6.43638 -6.2737,-10.40049 -11.9004,-15.67969 -5.6267,-5.2792 -12.5738,-10.90042 -19.3926,-16.1211 -13.6376,-10.44134 -26.789,-19.26171 -26.789,-19.26171 l -0.42,-0.28125 -0.4589,-0.21289 c -3.5006,-1.62526 -10.498,-6.49757 -16.0743,-10.80274 -5.4642,-4.21868 -9.6315,-7.76876 -9.8047,-7.91602 -4.6599,-5.64495 -11.6835,-12.34375 -11.6835,-12.34375 z"
       id="path1322-3"
       inkscape:connector-curvature="0" />
    <path
       style="color:#000000;font-style:normal;font-variant:normal;font-weight:normal;font-stretch:normal;font-size:medium;line-height:normal;font-family:sans-serif;font-variant-ligatures:normal;font-variant-position:normal;font-variant-caps:normal;font-variant-numeric:normal;font-variant-alternates:normal;font-feature-settings:normal;text-indent:0;text-align:start;text-decoration:none;text-decoration-line:none;text-decoration-style:solid;text-decoration-color:#000000;letter-spacing:normal;word-spacing:normal;text-transform:none;writing-mode:lr-tb;direction:ltr;text-orientation:mixed;dominant-baseline:auto;baseline-shift:baseline;text-anchor:start;white-space:normal;shape-padding:0;clip-rule:nonzero;display:inline;overflow:visible;visibility:visible;opacity:1;isolation:auto;mix-blend-mode:normal;color-interpolation:sRGB;color-interpolation-filters:linearRGB;solid-color:#000000;solid-opacity:1;vector-effect:none;fill:#000000;fill-opacity:1;fill-rule:nonzero;stroke:none;stroke-width:12.94547653;stroke-linecap:butt;stroke-linejoin:miter;stroke-miterlimit:4;stroke-dasharray:none;stroke-dashoffset:0;stroke-opacity:1;color-rendering:auto;image-rendering:auto;shape-rendering:auto;text-rendering:auto;enable-background:accumulate"
       d="m 235.7988,188.88673 c -8.3691,3.58677 -14.4151,3.66312 -18.3281,3.07617 -3.913,-0.58695 -5.1367,-1.5293 -5.1367,-1.5293 l -7.1035,10.82227 c 0,0 4.1536,2.58476 10.3203,3.50976 6.1667,0.92501 14.9013,0.49847 25.3476,-3.97851 z"
       id="path1324-2"
       inkscape:connector-curvature="0" />
    <path
       style="color:#000000;font-style:normal;font-variant:normal;font-weight:normal;font-stretch:normal;font-size:medium;line-height:normal;font-family:sans-serif;font-variant-ligatures:normal;font-variant-position:normal;font-variant-caps:normal;font-variant-numeric:normal;font-variant-alternates:normal;font-feature-settings:normal;text-indent:0;text-align:start;text-decoration:none;text-decoration-line:none;text-decoration-style:solid;text-decoration-color:#000000;letter-spacing:normal;word-spacing:normal;text-transform:none;writing-mode:lr-tb;direction:ltr;text-orientation:mixed;dominant-baseline:auto;baseline-shift:baseline;text-anchor:start;white-space:normal;shape-padding:0;clip-rule:nonzero;display:inline;overflow:visible;visibility:visible;opacity:1;isolation:auto;mix-blend-mode:normal;color-interpolation:sRGB;color-interpolation-filters:linearRGB;solid-color:#000000;solid-opacity:1;vector-effect:none;fill:#000000;fill-opacity:1;fill-rule:nonzero;stroke:none;stroke-width:12.94547653;stroke-linecap:butt;stroke-linejoin:miter;stroke-miterlimit:4;stroke-dasharray:none;stroke-dashoffset:0;stroke-opacity:1;color-rendering:auto;image-rendering:auto;shape-rendering:auto;text-rendering:auto;enable-background:accumulate"
       d="m 196.0449,201.66212 c 0,0 -3.167,16.32501 6.9356,32.25583 l 10.9316,-6.9316 c -7.369,-11.6203 -5.1602,-22.84572 -5.1602,-22.84572 z"
       id="path1326-9"
       inkscape:connector-curvature="0" />
    <path
       style="color:#000000;font-style:normal;font-variant:normal;font-weight:normal;font-stretch:normal;font-size:medium;line-height:normal;font-family:sans-serif;font-variant-ligatures:normal;font-variant-position:normal;font-variant-caps:normal;font-variant-numeric:normal;font-variant-alternates:normal;font-feature-settings:normal;text-indent:0;text-align:start;text-decoration:none;text-decoration-line:none;text-decoration-style:solid;text-decoration-color:#000000;letter-spacing:normal;word-spacing:normal;text-transform:none;writing-mode:lr-tb;direction:ltr;text-orientation:mixed;dominant-baseline:auto;baseline-shift:baseline;text-anchor:start;white-space:normal;shape-padding:0;clip-rule:nonzero;display:inline;overflow:visible;visibility:visible;opacity:1;isolation:auto;mix-blend-mode:normal;color-interpolation:sRGB;color-interpolation-filters:linearRGB;solid-color:#000000;solid-opacity:1;vector-effect:none;fill:#000000;fill-opacity:1;fill-rule:nonzero;stroke:none;stroke-width:12.94547653;stroke-linecap:butt;stroke-linejoin:miter;stroke-miterlimit:4;stroke-dasharray:none;stroke-dashoffset:0;stroke-opacity:1;color-rendering:auto;image-rendering:auto;shape-rendering:auto;text-rendering:auto;enable-background:accumulate"
       d="m 148.9355,160.93556 -7.3105,10.68359 c 11.212,7.67139 30.0605,28.52149 30.0605,28.52148 l 9.6836,-8.59179 c 0,0 -18.1104,-20.81322 -32.4336,-30.61328 z"
       id="path1328-9"
       inkscape:connector-curvature="0" />
    <path
       style="color:#000000;font-style:normal;font-variant:normal;font-weight:normal;font-stretch:normal;font-size:medium;line-height:normal;font-family:sans-serif;font-variant-ligatures:normal;font-variant-position:normal;font-variant-caps:normal;font-variant-numeric:normal;font-variant-alternates:normal;font-feature-settings:normal;text-indent:0;text-align:start;text-decoration:none;text-decoration-line:none;text-decoration-style:solid;text-decoration-color:#000000;letter-spacing:normal;word-spacing:normal;text-transform:none;writing-mode:lr-tb;direction:ltr;text-orientation:mixed;dominant-baseline:auto;baseline-shift:baseline;text-anchor:start;white-space:normal;shape-padding:0;clip-rule:nonzero;display:inline;overflow:visible;visibility:visible;opacity:1;isolation:auto;mix-blend-mode:normal;color-interpolation:sRGB;color-interpolation-filters:linearRGB;solid-color:#000000;solid-opacity:1;vector-effect:none;fill:#000000;fill-opacity:1;fill-rule:nonzero;stroke:none;stroke-width:12.94547653;stroke-linecap:butt;stroke-linejoin:miter;stroke-miterlimit:4;stroke-dasharray:none;stroke-dashoffset:0;stroke-opacity:1;color-rendering:auto;image-rendering:auto;shape-rendering:auto;text-rendering:auto;enable-background:accumulate"
       d="m 171.164,223.59571 c 0,0 -1.0296,5.64854 -3.7929,12.02534 l 11.8789,5.1465 c 3.4138,-7.878 4.6562,-14.8828 4.6562,-14.8828 z"
       id="path1332-6"
       inkscape:connector-curvature="0" />
    <path
       style="color:#000000;font-style:normal;font-variant:normal;font-weight:normal;font-stretch:normal;font-size:medium;line-height:normal;font-family:sans-serif;font-variant-ligatures:normal;font-variant-position:normal;font-variant-caps:normal;font-variant-numeric:normal;font-variant-alternates:normal;font-feature-settings:normal;text-indent:0;text-align:start;text-decoration:none;text-decoration-line:none;text-decoration-style:solid;text-decoration-color:#000000;letter-spacing:normal;word-spacing:normal;text-transform:none;writing-mode:lr-tb;direction:ltr;text-orientation:mixed;dominant-baseline:auto;baseline-shift:baseline;text-anchor:start;white-space:normal;shape-padding:0;clip-rule:nonzero;display:inline;overflow:visible;visibility:visible;opacity:1;isolation:auto;mix-blend-mode:normal;color-interpolation:sRGB;color-interpolation-filters:linearRGB;solid-color:#000000;solid-opacity:1;vector-effect:none;fill:#000000;fill-opacity:1;fill-rule:nonzero;stroke:none;stroke-width:12.94547653;stroke-linecap:butt;stroke-linejoin:miter;stroke-miterlimit:4;stroke-dasharray:none;stroke-dashoffset:0;stroke-opacity:1;color-rendering:auto;image-rendering:auto;shape-rendering:auto;text-rendering:auto;enable-background:accumulate"
       d="m 209.2558,246.96285 c 0,0 -14.4374,31.5714 -16.9921,56.754 l 12.8789,1.3066 c 2.1491,-21.184 15.9336,-52.7793 15.9336,-52.7793 z"
       id="path1334-9"
       inkscape:connector-curvature="0" />
    <path
       style="color:#000000;font-style:normal;font-variant:normal;font-weight:normal;font-stretch:normal;font-size:medium;line-height:normal;font-family:sans-serif;font-variant-ligatures:normal;font-variant-position:normal;font-variant-caps:normal;font-variant-numeric:normal;font-variant-alternates:normal;font-feature-settings:normal;text-indent:0;text-align:start;text-decoration:none;text-decoration-line:none;text-decoration-style:solid;text-decoration-color:#000000;letter-spacing:normal;word-spacing:normal;text-transform:none;writing-mode:lr-tb;direction:ltr;text-orientation:mixed;dominant-baseline:auto;baseline-shift:baseline;text-anchor:start;white-space:normal;shape-padding:0;clip-rule:nonzero;display:inline;overflow:visible;visibility:visible;opacity:1;isolation:auto;mix-blend-mode:normal;color-interpolation:sRGB;color-interpolation-filters:linearRGB;solid-color:#000000;solid-opacity:1;vector-effect:none;fill:#000000;fill-opacity:1;fill-rule:nonzero;stroke:none;stroke-width:12.94547653;stroke-linecap:butt;stroke-linejoin:miter;stroke-miterlimit:4;stroke-dasharray:none;stroke-dashoffset:0;stroke-opacity:1;color-rendering:auto;image-rendering:auto;shape-rendering:auto;text-rendering:auto;enable-background:accumulate"
       d="m 206.7031,240.14455 -12.6406,2.789 c 1.9559,8.8671 -1.7007,20.4867 -6.4531,29.7559 -4.7525,9.2693 -10.0645,15.8477 -10.0645,15.8477 l 10.0606,8.1445 c 0,0 6.1122,-7.5318 11.5234,-18.0859 5.4112,-10.5542 10.6581,-24.4709 7.5742,-38.4512 z"
       id="path1336-7"
       inkscape:connector-curvature="0" />
    <path
       style="color:#000000;font-style:normal;font-variant:normal;font-weight:normal;font-stretch:normal;font-size:medium;line-height:normal;font-family:sans-serif;font-variant-ligatures:normal;font-variant-position:normal;font-variant-caps:normal;font-variant-numeric:normal;font-variant-alternates:normal;font-feature-settings:normal;text-indent:0;text-align:start;text-decoration:none;text-decoration-line:none;text-decoration-style:solid;text-decoration-color:#000000;letter-spacing:normal;word-spacing:normal;text-transform:none;writing-mode:lr-tb;direction:ltr;text-orientation:mixed;dominant-baseline:auto;baseline-shift:baseline;text-anchor:start;white-space:normal;shape-padding:0;clip-rule:nonzero;display:inline;overflow:visible;visibility:visible;opacity:1;isolation:auto;mix-blend-mode:normal;color-interpolation:sRGB;color-interpolation-filters:linearRGB;solid-color:#000000;solid-opacity:1;vector-effect:none;fill:#000000;fill-opacity:1;fill-rule:nonzero;stroke:none;stroke-width:12.94547653;stroke-linecap:butt;stroke-linejoin:miter;stroke-miterlimit:4;stroke-dasharray:none;stroke-dashoffset:0;stroke-opacity:1;color-rendering:auto;image-rendering:auto;shape-rendering:auto;text-rendering:auto;enable-background:accumulate"
       d="m 220.916,320.68755 -12.8437,1.6347 c 2.8397,22.3123 23.4316,39.2715 23.4316,39.2715 l 8.5781,-9.6953 c 0,0 -17.3019,-16.5643 -19.166,-31.2109 z"
       id="path1340-3"
       inkscape:connector-curvature="0" />
    <path
       style="color:#000000;font-style:normal;font-variant:normal;font-weight:normal;font-stretch:normal;font-size:medium;line-height:normal;font-family:sans-serif;font-variant-ligatures:normal;font-variant-position:normal;font-variant-caps:normal;font-variant-numeric:normal;font-variant-alternates:normal;font-feature-settings:normal;text-indent:0;text-align:start;text-decoration:none;text-decoration-line:none;text-decoration-style:solid;text-decoration-color:#000000;letter-spacing:normal;word-spacing:normal;text-transform:none;writing-mode:lr-tb;direction:ltr;text-orientation:mixed;dominant-baseline:auto;baseline-shift:baseline;text-anchor:start;white-space:normal;shape-padding:0;clip-rule:nonzero;display:inline;overflow:visible;visibility:visible;opacity:1;isolation:auto;mix-blend-mode:normal;color-interpolation:sRGB;color-interpolation-filters:linearRGB;solid-color:#000000;solid-opacity:1;vector-effect:none;fill:#000000;fill-opacity:1;fill-rule:nonzero;stroke:none;stroke-width:12.94547653;stroke-linecap:butt;stroke-linejoin:miter;stroke-miterlimit:4;stroke-dasharray:none;stroke-dashoffset:0;stroke-opacity:1;color-rendering:auto;image-rendering:auto;shape-rendering:auto;text-rendering:auto;enable-background:accumulate"
       d="m 334.9473,200.36134 -11.7598,5.41406 c 1.4154,3.07485 3.4458,14.66109 4.3711,24.38675 0.9252,9.7256 1.2558,18.1816 1.2558,18.1816 l 12.9356,-0.5039 c 0,0 -0.34,-8.7645 -1.3047,-18.9043 -0.9647,-10.13975 -2.0417,-21.06538 -5.498,-28.57421 z"
       id="path1342-0"
       inkscape:connector-curvature="0" />
    <path
       inkscape:connector-curvature="0"
       id="path10-9-0-6-4-8-3-1-5-3-3-2-1-8-8-61"
       d="m 702.1064,24.00278 c -115.6657,-0.0292 -196.602,44.52192 -245.0647,112.08228 -2.0609,2.87308 18.3778,3.66853 18.3778,3.66853 l -43.0982,74.11551 c 0,0 -13.5721,-3.92924 -17.4109,8.3964 -17.6975,56.82295 -21.4226,120.24565 -14.4166,183.23585 10.4172,93.64 44.5919,186.7317 95.0481,257.4284 50.4547,70.696 118.3879,119.9444 195.6524,119.4837 77.2293,-0.4615 144.6044,-50.2254 194.7606,-121.1597 50.1584,-70.9336 84.2673,-163.9933 95.5974,-257.398 11.3279,-93.4039 -0.023,-187.49844 -44.0263,-259.65727 C 893.5145,72.04192 815.5222,23.58243 702.1064,24.00278 Z m 0.059,31.29378 h 0.03 0.036 c 104.732,-0.38532 169.6903,41.43466 208.582,105.1995 38.8903,63.76105 50.396,151.22599 39.68,239.59179 -10.7188,88.3659 -43.55,177.2891 -90.0825,243.094 -46.5302,65.811 -105.5923,107.554 -169.3953,107.9363 -63.7665,0.3815 -123.2421,-40.8635 -169.9929,-106.3676 -46.7535,-65.5102 -79.586,-154.3314 -89.4172,-242.7048 -7.6426,-68.7057 -1.3524,-136.8899 21.6511,-193.97245 3.7426,-9.28723 -20.9358,5.7958 -20.9358,5.7958 l 43.0982,-74.11551 c 0,0 12.331,7.14715 18.2484,0.0879 43.2492,-51.59511 109.5715,-84.57913 208.4995,-84.54497 z"
       style="color:#000000;font-style:normal;font-variant:normal;font-weight:normal;font-stretch:normal;font-size:medium;line-height:normal;font-family:sans-serif;font-variant-ligatures:normal;font-variant-position:normal;font-variant-caps:normal;font-variant-numeric:normal;font-variant-alternates:normal;font-feature-settings:normal;text-indent:0;text-align:start;text-decoration:none;text-decoration-line:none;text-decoration-style:solid;text-decoration-color:#000000;letter-spacing:normal;word-spacing:normal;text-transform:none;writing-mode:lr-tb;direction:ltr;text-orientation:mixed;dominant-baseline:auto;baseline-shift:baseline;text-anchor:start;white-space:normal;shape-padding:0;clip-rule:nonzero;display:inline;overflow:visible;visibility:visible;opacity:1;isolation:auto;mix-blend-mode:normal;color-interpolation:sRGB;color-interpolation-filters:linearRGB;solid-color:#000000;solid-opacity:1;vector-effect:none;fill:#000000;fill-opacity:1;fill-rule:nonzero;stroke:none;stroke-width:31.29605865;stroke-linecap:butt;stroke-linejoin:miter;stroke-miterlimit:4;stroke-dasharray:none;stroke-dashoffset:0;stroke-opacity:1;color-rendering:auto;image-rendering:auto;shape-rendering:auto;text-rendering:auto;enable-background:accumulate"
       sodipodi:nodetypes="ccccccccccccccccccccccccccc" />
    <path
       inkscape:connector-curvature="0"
       id="path971-9-8-21-1-6-4-0-2-8-9-6-2-0-6"
       d="m 685.3985,400.91485 c 0,0 -1.7637,17.4178 -4.6848,35.7166 -1.4583,9.1448 -3.2162,18.5113 -5.1058,25.7904 -0.9437,3.6385 -1.9346,6.7621 -2.821,8.9195 -0.887,2.155 -2.0327,3.2813 -1.2091,2.5967 -1.7319,1.4415 -3.5648,2.6454 -4.5233,6.4826 -0.4807,1.919 -0.2073,4.7754 1.0174,6.7728 1.2254,1.9966 2.818,2.9736 4.0205,3.5402 4.8176,2.2647 7.2898,1.3966 10.5641,1.1674 6.5502,-0.4508 13.6421,-1.9099 13.6421,-1.9099 l -3.0678,-15.3427 c 0,0 -3.3458,0.4234 -5.3705,0.7562 1.0389,-2.7833 2.0217,-5.6869 2.8931,-9.0489 2.1117,-8.1366 3.9085,-17.8358 5.4133,-27.2601 3.0075,-18.8532 4.7992,-36.6037 4.7992,-36.6037 z"
       style="color:#000000;font-style:normal;font-variant:normal;font-weight:normal;font-stretch:normal;font-size:medium;line-height:normal;font-family:sans-serif;font-variant-ligatures:normal;font-variant-position:normal;font-variant-caps:normal;font-variant-numeric:normal;font-variant-alternates:normal;font-feature-settings:normal;text-indent:0;text-align:start;text-decoration:none;text-decoration-line:none;text-decoration-style:solid;text-decoration-color:#000000;letter-spacing:normal;word-spacing:normal;text-transform:none;writing-mode:lr-tb;direction:ltr;text-orientation:mixed;dominant-baseline:auto;baseline-shift:baseline;text-anchor:start;white-space:normal;shape-padding:0;clip-rule:nonzero;display:inline;overflow:visible;visibility:visible;opacity:1;isolation:auto;mix-blend-mode:normal;color-interpolation:sRGB;color-interpolation-filters:linearRGB;solid-color:#000000;solid-opacity:1;vector-effect:none;fill:#000000;fill-opacity:1;fill-rule:nonzero;stroke:none;stroke-width:15.64802933;stroke-linecap:butt;stroke-linejoin:miter;stroke-miterlimit:4;stroke-dasharray:none;stroke-dashoffset:0;stroke-opacity:1;color-rendering:auto;image-rendering:auto;shape-rendering:auto;text-rendering:auto;enable-background:accumulate" />
    <path
       inkscape:connector-curvature="0"
       id="path10-9-0-6-4-8-3-1-5-3-3-2-1-8-8-6-5"
       d="m 1715.2505,24.00277 c -62.3624,-0.0157 -114.6292,12.92776 -157.1539,35.44966 -12.0595,6.17893 -17.5444,9.9464 -28.5687,18.33005 -5.2341,4.51664 25.5941,2.4691 25.5941,2.4691 l -103.6708,115.84113 c 0,0 -12.3994,-6.59527 -20.7514,18.03719 -19.9604,58.86935 -24.4041,125.35785 -17.0619,191.37145 10.4172,93.64 44.5919,186.7317 95.0481,257.4284 50.4547,70.696 118.388,119.9444 195.6524,119.4837 77.2293,-0.4615 144.6043,-50.2254 194.7605,-121.1597 50.1586,-70.9336 84.2674,-163.9933 95.5975,-257.398 11.3279,-93.4039 -0.023,-187.49844 -44.0263,-259.65727 C 1906.6586,72.04192 1828.6664,23.58242 1715.2505,24.00277 Z m 0.058,31.29379 h 0.03 0.036 c 104.7319,-0.38532 169.6902,41.43466 208.5819,105.1995 38.8903,63.76105 50.396,151.22599 39.6801,239.59179 -10.7189,88.3659 -43.5501,177.2891 -90.0824,243.094 -46.5303,65.811 -105.5924,107.554 -169.3953,107.9363 -63.7666,0.3815 -123.2424,-40.8635 -169.9931,-106.3676 -46.7535,-65.5102 -79.586,-154.3314 -89.4171,-242.7048 -8.5949,-77.2664 0.4313,-153.8733 31.0335,-214.77234 4.3994,-8.75485 -24.3309,8.8193 -24.3309,8.8193 L 1555.122,80.25158 c 0,0 12.5326,5.42933 24.7929,2.63678 36.3003,-17.61066 80.9008,-27.61062 135.395,-27.5918 z"
       style="color:#000000;font-style:normal;font-variant:normal;font-weight:normal;font-stretch:normal;font-size:medium;line-height:normal;font-family:sans-serif;font-variant-ligatures:normal;font-variant-position:normal;font-variant-caps:normal;font-variant-numeric:normal;font-variant-alternates:normal;font-feature-settings:normal;text-indent:0;text-align:start;text-decoration:none;text-decoration-line:none;text-decoration-style:solid;text-decoration-color:#000000;letter-spacing:normal;word-spacing:normal;text-transform:none;writing-mode:lr-tb;direction:ltr;text-orientation:mixed;dominant-baseline:auto;baseline-shift:baseline;text-anchor:start;white-space:normal;shape-padding:0;clip-rule:nonzero;display:inline;overflow:visible;visibility:visible;opacity:1;isolation:auto;mix-blend-mode:normal;color-interpolation:sRGB;color-interpolation-filters:linearRGB;solid-color:#000000;solid-opacity:1;vector-effect:none;fill:#000000;fill-opacity:1;fill-rule:nonzero;stroke:none;stroke-width:31.29605865;stroke-linecap:butt;stroke-linejoin:miter;stroke-miterlimit:4;stroke-dasharray:none;stroke-dashoffset:0;stroke-opacity:1;color-rendering:auto;image-rendering:auto;shape-rendering:auto;text-rendering:auto;enable-background:accumulate"
       sodipodi:nodetypes="cccccccccccccccccccccccccccc" />
    <path
       inkscape:connector-curvature="0"
       id="path971-9-8-21-1-6-4-0-2-8-9-6-2-0-8-0"
       d="m 1698.5427,400.91485 c 0,0 -1.7637,17.4178 -4.685,35.7166 -1.4582,9.1448 -3.2159,18.5113 -5.1058,25.7904 -0.9436,3.6385 -1.9344,6.7621 -2.8209,8.9195 -0.887,2.155 -2.0325,3.2813 -1.2091,2.5967 -1.7319,1.4415 -3.5647,2.6454 -4.5232,6.4826 -0.4809,1.919 -0.2073,4.7754 1.0173,6.7728 1.2254,1.9966 2.8182,2.9736 4.0206,3.5402 4.8175,2.2647 7.2897,1.3966 10.564,1.1674 6.5502,-0.4508 13.6422,-1.9099 13.6422,-1.9099 l -3.0679,-15.3427 c 0,0 -3.3458,0.4234 -5.3706,0.7562 1.0389,-2.7833 2.0219,-5.6869 2.8933,-9.0489 2.1117,-8.1366 3.9085,-17.8358 5.4133,-27.2601 3.0075,-18.8532 4.7991,-36.6037 4.7991,-36.6037 z"
       style="color:#000000;font-style:normal;font-variant:normal;font-weight:normal;font-stretch:normal;font-size:medium;line-height:normal;font-family:sans-serif;font-variant-ligatures:normal;font-variant-position:normal;font-variant-caps:normal;font-variant-numeric:normal;font-variant-alternates:normal;font-feature-settings:normal;text-indent:0;text-align:start;text-decoration:none;text-decoration-line:none;text-decoration-style:solid;text-decoration-color:#000000;letter-spacing:normal;word-spacing:normal;text-transform:none;writing-mode:lr-tb;direction:ltr;text-orientation:mixed;dominant-baseline:auto;baseline-shift:baseline;text-anchor:start;white-space:normal;shape-padding:0;clip-rule:nonzero;display:inline;overflow:visible;visibility:visible;opacity:1;isolation:auto;mix-blend-mode:normal;color-interpolation:sRGB;color-interpolation-filters:linearRGB;solid-color:#000000;solid-opacity:1;vector-effect:none;fill:#000000;fill-opacity:1;fill-rule:nonzero;stroke:none;stroke-width:15.64802933;stroke-linecap:butt;stroke-linejoin:miter;stroke-miterlimit:4;stroke-dasharray:none;stroke-dashoffset:0;stroke-opacity:1;color-rendering:auto;image-rendering:auto;shape-rendering:auto;text-rendering:auto;enable-background:accumulate" />
    <path
       style="color:#000000;font-style:normal;font-variant:normal;font-weight:normal;font-stretch:normal;font-size:medium;line-height:normal;font-family:sans-serif;font-variant-ligatures:normal;font-variant-position:normal;font-variant-caps:normal;font-variant-numeric:normal;font-variant-alternates:normal;font-feature-settings:normal;text-indent:0;text-align:start;text-decoration:none;text-decoration-line:none;text-decoration-style:solid;text-decoration-color:#000000;letter-spacing:normal;word-spacing:normal;text-transform:none;writing-mode:lr-tb;direction:ltr;text-orientation:mixed;dominant-baseline:auto;baseline-shift:baseline;text-anchor:start;white-space:normal;shape-padding:0;clip-rule:nonzero;display:inline;overflow:visible;visibility:visible;opacity:1;isolation:auto;mix-blend-mode:normal;color-interpolation:sRGB;color-interpolation-filters:linearRGB;solid-color:#000000;solid-opacity:1;vector-effect:none;fill:#000000;fill-opacity:1;fill-rule:nonzero;stroke:none;stroke-width:7.72067118;stroke-linecap:butt;stroke-linejoin:miter;stroke-miterlimit:4;stroke-dasharray:none;stroke-dashoffset:0;stroke-opacity:1;color-rendering:auto;image-rendering:auto;shape-rendering:auto;text-rendering:auto;enable-background:accumulate"
       d="m 1426.0753,-163.62451 c -14.5073,-7.71793 -30.5875,-14.46429 -48.389,-19.81361 0,1e-5 -0.016,-0.007 -0.016,-0.007 l -5e-4,7.1e-4 c -0.035,-0.0115 -0.069,-0.0237 -0.1036,-0.034 l -2.2376,6.82223 c 0,0 27.6203,8.91793 56.5558,37.59881 28.6689,28.41671 58.3194,76.12348 62.0119,153.96273 l -30.2725,13.83423 62.5349,33.30248 57.5626,-88.62642 -32.7544,14.10467 c -5.7549,-19.38435 -35.1403,-103.39894 -124.8913,-151.14516 z m -3.7823,6.18386 c 98.3263,52.33028 121.9918,150.76064 121.9918,150.76064 l 1.1737,4.88113 17.1902,-7.40188 -39.8011,61.27856 -42.4296,-22.59556 21.93,-10.02115 -0.089,-2.15382 c -3.2988,-80.64661 -34.1465,-130.97378 -64.3998,-160.96093 -5.3929,-5.34538 -10.7101,-9.83995 -15.915,-13.96157 0.1132,0.0599 0.236,0.11395 0.3491,0.17429 z"
       id="path1171"
       inkscape:connector-curvature="0" />
    <path
       inkscape:connector-curvature="0"
       style="font-style:normal;font-weight:normal;font-size:233.33332825px;line-height:1.25;font-family:sans-serif;letter-spacing:0px;word-spacing:0px;fill:#000000;fill-opacity:1;stroke:none"
       d="m 1739.8262,850.46745 c -14.2036,0 -25.0645,4.0623 -32.584,12.1894 -7.5195,8.0512 -11.2793,19.635 -11.2793,34.75 v 4.2149 h -14.4688 v 18.0019 h 14.4688 v 109.26175 h 21.4199 V 919.62365 h 37.9395 v -18.0019 h -38.6231 v -4.3281 c 0,-10.6337 2.0508,-17.9647 6.1524,-21.9903 4.1775,-4.1015 10.8602,-6.1523 20.0507,-6.1523 2.8863,0 6.2296,0.3811 10.0274,1.1406 3.7977,0.6836 6.8739,1.3672 9.2285,2.0508 h 1.1387 v -19.5977 c -3.1901,-0.6076 -6.722,-1.138 -10.5957,-1.5937 -3.7978,-0.4558 -8.0899,-0.6836 -12.875,-0.6836 z m -1130.7774,1.1387 v 177.27925 h 21.4199 V 851.60615 Z m -353.6465,6.4941 v 22.2168 h 24.1543 v -22.2168 z m -131.1347,1.1387 v 169.64645 h 22.5586 v -81.68945 h 73.7128 v -20.0527 h -73.7128 v -47.8516 h 85.791 v -20.0527 z m 1398.8594,0 v 101.5136 c 0,12.8364 1.3298,23.66 3.9882,32.4707 2.7344,8.81065 7.1778,16.33025 13.3301,22.55855 5.3928,5.4688 12.0382,9.6096 19.9375,12.4201 7.8993,2.8103 17.1671,4.2147 27.8008,4.2147 10.4058,0 19.5204,-1.3298 27.3437,-3.9882 7.8234,-2.6585 14.6593,-6.874 20.5079,-12.6466 6.1523,-6.0764 10.5564,-13.6705 13.2148,-22.78505 2.7344,-9.1906 4.1016,-19.9395 4.1016,-32.2442 v -101.5136 h -22.5586 v 103.2226 c 0,8.2791 -0.6443,15.229 -1.9356,20.8496 -1.2153,5.5447 -3.3053,10.4831 -6.2676,14.8125 -3.4179,5.01295 -7.9752,8.77265 -13.6718,11.27915 -5.6966,2.4306 -12.6072,3.6447 -20.7344,3.6447 -8.0512,0 -14.9638,-1.2534 -20.7363,-3.7599 -5.6966,-2.5064 -10.2166,-6.227 -13.5586,-11.16395 -2.9623,-4.3294 -5.0877,-9.1538 -6.3789,-14.4707 -1.2153,-5.3168 -1.8243,-12.5692 -1.8243,-21.7597 v -102.6543 z m -335.9864,5.8105 v 36.5723 h -14.4687 v 18.0019 h 14.4687 v 67.6758 c 0,15.41865 3.3807,26.62135 10.1406,33.60935 6.76,6.9879 16.6348,10.4825 29.6231,10.4825 3.7218,0 7.9373,-0.3418 12.6465,-1.0254 4.7851,-0.6837 9.1892,-1.5578 13.2148,-2.6212 v -19.2539 h -1.1386 c -1.6711,0.6836 -4.4054,1.5577 -8.2032,2.6211 -3.7977,0.9874 -7.4435,1.4805 -10.9375,1.4805 -6.0004,0 -10.4811,-0.6836 -13.4433,-2.0508 -2.8863,-1.4431 -5.165,-3.6845 -6.836,-6.7227 -1.8229,-3.266 -2.8876,-6.75855 -3.1914,-10.48035 -0.3038,-3.7978 -0.4551,-9.0387 -0.4551,-15.7227 v -57.9922 h 44.2051 v -18.0019 h -44.2051 v -36.5723 z m -802.1973,33.041 c -7.5195,0 -14.8485,1.5578 -21.9882,4.6719 -7.1398,3.1142 -14.0523,7.4436 -20.7364,12.9883 v -14.1289 h -21.4179 v 127.26365 h 21.4179 v -95.01955 c 5.8486,-4.4813 11.9636,-8.1664 18.3438,-11.0527 6.3802,-2.8863 12.4952,-4.3281 18.3437,-4.3281 5.6966,0 10.3286,0.7975 13.8985,2.3925 3.5699,1.5191 6.3042,3.8724 8.2031,7.0625 1.8229,2.8863 3.0762,6.9132 3.7598,12.0782 0.6836,5.0889 1.0254,10.5577 1.0254,16.4062 v 72.46085 h 21.4199 v -82.60145 c 0,-15.5708 -3.6085,-27.4963 -10.8242,-35.7754 -7.2158,-8.2791 -17.6975,-12.418 -31.4454,-12.418 z m 350.7989,0 c -7.5196,0 -14.6226,1.5578 -21.3067,4.6719 -6.608,3.1142 -13.2534,7.4436 -19.9375,12.9883 v -14.1289 h -21.4199 v 127.26365 h 21.4199 v -95.01955 c 5.8486,-4.4813 11.6964,-8.1664 17.545,-11.0527 5.9244,-2.8863 11.8116,-4.3281 17.6601,-4.3281 6.1524,0 10.8609,0.8348 14.127,2.5058 3.266,1.5951 5.7725,4.025 7.5195,7.291 1.595,3.0382 2.6204,7.1025 3.0762,12.1914 0.5317,5.0131 0.7988,10.3306 0.7988,15.9512 v 72.46085 h 21.418 v -81.46275 c 0,-2.2787 -0.075,-4.5573 -0.2266,-6.836 -0.1519,-2.3546 -0.3424,-4.4054 -0.5703,-6.1523 6.0004,-4.6333 12.0015,-8.4304 18.0019,-11.3926 6.0005,-3.0382 11.9996,-4.5566 18,-4.5566 6.1524,0 10.8629,0.8348 14.1289,2.5058 3.2661,1.671 5.7726,4.1402 7.5196,7.4063 1.595,3.0382 2.6204,7.1004 3.0762,12.1894 0.5316,5.089 0.7968,10.3692 0.7968,15.8379 v 72.46095 h 21.4199 v -82.60155 c 0,-15.191 -3.3433,-27.0026 -10.0273,-35.4336 -6.6081,-8.507 -16.8993,-12.7598 -30.875,-12.7598 -8.1272,0 -15.7606,1.6324 -22.9004,4.8985 -7.1397,3.1901 -15.0384,8.431 -23.6973,15.7226 -2.9622,-6.4561 -7.4822,-11.5065 -13.5585,-15.1523 -6.0005,-3.6459 -13.3295,-5.4688 -21.9883,-5.4688 z m 217.1543,0 c -18.533,0 -33.4955,6.115 -44.8887,18.3438 -11.3173,12.2287 -16.9766,28.7489 -16.9766,49.5605 0,21.0395 5.9245,37.29255 17.7735,48.76165 11.8489,11.3933 28.3318,17.0899 49.4472,17.0899 8.2791,0 16.1778,-1.0254 23.6973,-3.0762 7.5195,-2.0508 14.8878,-4.5945 22.1035,-7.6329 v -23.35535 h -1.1406 c -3.7218,3.34195 -9.9881,6.75995 -18.7988,10.25385 -8.7348,3.4179 -17.431,5.1269 -26.0899,5.1269 -6.5321,0 -12.5332,-0.9114 -18.0019,-2.7344 -5.3928,-1.8228 -10.064,-4.5573 -14.0137,-8.2031 -4.1016,-3.72165 -7.329,-8.46945 -9.6836,-14.24205 -2.3546,-5.8485 -3.5312,-12.6845 -3.5312,-20.5078 h 93.7656 v -11.6211 c 0,-18.457 -4.6712,-32.6986 -14.0137,-42.7246 -9.2665,-10.0261 -22.4826,-15.0391 -39.6484,-15.0391 z m 150.2773,0 c -7.5195,0 -14.8504,1.5578 -21.9902,4.6719 -7.1398,3.1142 -14.0504,7.4436 -20.7344,12.9883 v -14.1289 h -21.4199 v 127.26365 h 21.4199 v -95.01955 c 5.8485,-4.4813 11.9616,-8.1664 18.3418,-11.0527 6.3802,-2.8863 12.4952,-4.3281 18.3438,-4.3281 5.6966,0 10.3305,0.7975 13.9004,2.3925 3.5698,1.5191 6.3042,3.8724 8.2031,7.0625 1.8229,2.8863 3.0762,6.9132 3.7597,12.0782 0.6836,5.0889 1.0254,10.5577 1.0254,16.4062 v 72.46085 h 21.418 v -82.60145 c 0,-15.5708 -3.6065,-27.4963 -10.8223,-35.7754 -7.2157,-8.2791 -17.6974,-12.418 -31.4453,-12.418 z m 228.4336,0 c -18.533,0 -33.4954,6.115 -44.8886,18.3438 -11.3173,12.2287 -16.9766,28.7489 -16.9766,49.5605 0,21.0395 5.9245,37.29255 17.7734,48.76165 11.849,11.3933 28.3318,17.0899 49.4473,17.0899 8.2791,0 16.1777,-1.0254 23.6973,-3.0762 7.5195,-2.0508 14.8878,-4.5945 22.1035,-7.6329 v -23.35535 h -1.1407 c -3.7217,3.34195 -9.988,6.75995 -18.7988,10.25385 -8.7348,3.4179 -17.431,5.1269 -26.0898,5.1269 -6.5321,0 -12.5332,-0.9114 -18.002,-2.7344 -5.3928,-1.8228 -10.064,-4.5573 -14.0136,-8.2031 -4.1016,-3.72165 -7.329,-8.46945 -9.6836,-14.24205 -2.3546,-5.8485 -3.5313,-12.6845 -3.5313,-20.5078 h 93.7656 v -11.6211 c 0,-18.457 -4.6712,-32.6986 -14.0136,-42.7246 -9.2665,-10.0261 -22.4827,-15.0391 -39.6485,-15.0391 z m -819.6289,0.4551 c -7.6714,0 -15.4562,0.6836 -23.3555,2.0508 -7.8993,1.3672 -13.9377,2.6204 -18.1152,3.7598 v 21.7617 h 1.1387 c 7.3676,-2.8104 14.508,-4.9377 21.4199,-6.3809 6.9119,-1.5191 13.1782,-2.2773 18.7988,-2.2773 4.6333,0 9.0766,0.3025 13.3301,0.9101 4.2535,0.6077 7.8993,1.7863 10.9375,3.5332 3.1901,1.8229 5.62,4.3295 7.291,7.5196 1.747,3.1901 2.6211,7.215 2.6211,12.0761 v 3.3047 c -12.4566,0.6077 -24.117,1.5191 -34.9785,2.7344 -10.8616,1.2153 -20.1647,3.5312 -27.9121,6.9492 -7.6715,3.418 -13.5959,8.1265 -17.7735,14.127 -4.1015,5.9244 -6.1523,13.7111 -6.1523,23.3574 0,11.77285 3.9876,21.45715 11.9629,29.05265 7.9753,7.5955 17.6968,11.3926 29.166,11.3926 6.2283,0 11.6597,-0.607 16.293,-1.8224 4.6332,-1.1393 8.7348,-2.5831 12.3047,-4.3299 3.0382,-1.3672 6.1517,-3.1902 9.3418,-5.4689 3.266,-2.3546 5.8491,-4.1775 7.748,-5.4687 v 13.5587 h 21.3047 v -86.36135 c 0,-8.2031 -1.2533,-15.0764 -3.7598,-20.6211 -2.5065,-5.5447 -6.1523,-10.0646 -10.9375,-13.5586 -4.8611,-3.5698 -10.6343,-6.0764 -17.3183,-7.5195 -6.6081,-1.5191 -14.3928,-2.2793 -23.3555,-2.2793 z m 1308.3985,0 c -7.6715,0 -15.4562,0.6836 -23.3555,2.0508 -7.8993,1.3672 -13.9377,2.6204 -18.1153,3.7598 v 21.7617 h 1.1387 c 7.3676,-2.8104 14.5081,-4.9377 21.4199,-6.3809 6.9119,-1.5191 13.1782,-2.2773 18.7989,-2.2773 4.6332,0 9.0766,0.3025 13.3301,0.9101 4.2534,0.6077 7.8993,1.7863 10.9374,3.5332 3.1902,1.8229 5.6201,4.3295 7.2911,7.5196 1.7469,3.1901 2.6211,7.215 2.6211,12.0761 v 3.3047 c -12.4566,0.6077 -24.117,1.5191 -34.9786,2.7344 -10.8615,1.2153 -20.1647,3.5312 -27.9121,6.9492 -7.6714,3.418 -13.5959,8.1265 -17.7734,14.127 -4.1016,5.9244 -6.1523,13.7111 -6.1523,23.3574 0,11.77285 3.9876,21.45715 11.9628,29.05265 7.9753,7.5955 17.6969,11.3926 29.1661,11.3926 6.2283,0 11.6597,-0.607 16.2929,-1.8224 4.6333,-1.1393 8.7348,-2.5831 12.3047,-4.3299 3.0382,-1.3672 6.1517,-3.1902 9.3418,-5.4689 3.2661,-2.3546 5.8492,-4.1775 7.7481,-5.4687 v 13.5587 h 21.3046 v -86.36135 c 0,-8.2031 -1.2532,-15.0764 -3.7597,-20.6211 -2.5065,-5.5447 -6.1524,-10.0646 -10.9375,-13.5586 -4.8611,-3.5698 -10.6344,-6.0764 -17.3184,-7.5195 -6.6081,-1.5191 -14.3928,-2.2793 -23.3554,-2.2793 z m -1563.6075,3.0762 v 127.26355 h 21.4199 V 901.62175 Z m 694.9883,14.1289 c 11.3932,0 19.8615,3.0762 25.4062,9.2285 5.6207,6.1523 8.469,14.8485 8.545,26.0898 h -72.916 c 0.9114,-10.026 4.7458,-18.4197 11.5058,-25.1796 6.836,-6.76 15.9898,-10.1387 27.459,-10.1387 z m 378.711,0 c 11.3932,0 19.8615,3.0762 25.4062,9.2285 5.6207,6.1523 8.469,14.8485 8.5449,26.0898 h -72.916 c 0.9115,-10.026 4.7459,-18.4197 11.5059,-25.1796 6.8359,-6.76 15.9898,-10.1387 27.459,-10.1387 z m 83.625,28.5957 v 20.623 h 71.0937 v -20.623 z m -868.0489,17.7734 v 35.4336 c -5.3168,4.10145 -11.0901,7.63335 -17.3184,10.59565 -6.2283,2.8862 -13.1015,4.33 -20.621,4.33 -9.0387,0 -15.7607,-1.8228 -20.1661,-5.4686 -4.4053,-3.7219 -6.6093,-9.22985 -6.6093,-16.52145 0,-6.4562 1.8995,-11.5065 5.6972,-15.1524 3.7978,-3.7218 8.7735,-6.4561 14.9258,-8.2031 5.1649,-1.4431 12.1521,-2.5451 20.9629,-3.3047 8.8867,-0.7595 16.5968,-1.3292 23.1289,-1.709 z m 1308.3985,0 v 35.4336 c -5.3169,4.10145 -11.0901,7.63335 -17.3184,10.59565 -6.2283,2.8862 -13.1016,4.33 -20.6211,4.33 -9.0386,0 -15.7606,-1.8228 -20.166,-5.4686 -4.4054,-3.7219 -6.6094,-9.22985 -6.6094,-16.52145 0,-6.4562 1.8995,-11.5065 5.6973,-15.1524 3.7977,-3.7218 8.7734,-6.4561 14.9258,-8.2031 5.1649,-1.4431 12.1521,-2.5451 20.9629,-3.3047 8.8867,-0.7595 16.5967,-1.3292 23.1289,-1.709 z"
       id="text2144" />
    <path
       style="fill:none;stroke:#000000;stroke-width:12.94547653;stroke-linecap:butt;stroke-linejoin:miter;stroke-miterlimit:4;stroke-dasharray:none;stroke-opacity:1"
       d="m 1183.6416,384.12115 c 5.2268,-1.4255 22.3326,-16.1555 32.3109,-26.1339 0,0 10.4536,-11.4038 25.6588,-16.1554 0,0 61.2958,-27.5594 75.5506,-65.0971 0,0 12.3542,-22.3326 38.488,-34.2116 0,0 10.9288,-6.1771 17.581,-12.8294 0,0 42.7645,-26.1338 78.8768,-36.1122 1.4254,0.47516 46.5657,-14.73001 67.948,-14.25484 0,0 20.9071,3.8013 20.9071,-18.05612 0,0 -2.3758,-27.0842 -40.8638,-34.21162 0,0 -35.6371,-9.50321 -65.5723,4.75162 0,0 -66.5226,18.53128 -86.0042,28.03452 0,0 25.1836,-76.0258 19.4816,-106.43613 0,0 -1.9006,-23.28291 -46.0905,-22.33258 0,0 -19.9569,-3.32613 -29.9351,-1.90064 -22.2236,-2.58329 -39.5737,-0.11342 -74.1252,3.32613 0,0 -15.6804,0.95032 -26.609,-1.42549 0,0 -25.6588,-3.8013 -41.8142,19.48162 0,0 -20.432,16.63064 -23.2829,28.50966 0,0 -62.7214,125.44259 -70.7991,161.55477 0,0 -18.5313,63.6716 -47.041,75.5507"
       id="path1304-7"
       inkscape:connector-curvature="0"
       sodipodi:nodetypes="ccccccccccccccccccccc" />
    <path
       style="fill:none;stroke:#000000;stroke-width:12.94547653;stroke-linecap:butt;stroke-linejoin:miter;stroke-miterlimit:4;stroke-dasharray:none;stroke-opacity:1"
       d="m 1348.5225,159.84511 c 0,0 -6.9186,19.405 -11.6225,26.12479 0,0 -6.3838,9.40772 -31.919,11.08767 0,0 -19.1513,27.55112 -41.3266,22.5113 0,0 -29.9032,27.88708 -49.0546,11.75958 0,0 -21.5033,-10.07961 -31.247,-21.50327 0,0 3.0239,-19.8234 -1.008,-28.89512 0,0 16.4636,9.40772 25.8712,7.05579 0,0 2.352,-6.38381 6.3838,-7.05579 0,0 -14.4475,-16.1275 -14.1115,-38.97482"
       id="path1306-3"
       inkscape:connector-curvature="0" />
    <path
       style="fill:none;stroke:#000000;stroke-width:12.94547653;stroke-linecap:butt;stroke-linejoin:miter;stroke-miterlimit:4;stroke-dasharray:none;stroke-opacity:1"
       d="m 1434.5267,131.81059 c 0,0 0.1464,21.90429 6.5302,34.33592"
       id="path1314-0"
       inkscape:connector-curvature="0" />
    <path
       style="fill:none;stroke:#000000;stroke-width:12.94547653;stroke-linecap:butt;stroke-linejoin:miter;stroke-miterlimit:4;stroke-dasharray:none;stroke-opacity:1"
       d="m 1148.4099,59.63776 c 0,0 24.1912,-9.07173 40.3187,1.00797"
       id="path1316-7"
       inkscape:connector-curvature="0" />
    <path
       style="fill:none;stroke:#000000;stroke-width:12.94547653;stroke-linecap:butt;stroke-linejoin:miter;stroke-miterlimit:4;stroke-dasharray:none;stroke-opacity:1"
       d="m 1235.4312,56.94984 c 0,0 7.0558,5.37584 19.4874,6.38381 0,0 42.3347,5.37583 65.518,21.50334 0,0 33.263,14.11157 30.575,33.59899 0,0 -17.8074,54.43032 -46.0306,78.62159"
       id="path1320-4"
       inkscape:connector-curvature="0" />
    <path
       style="fill:none;stroke:#000000;stroke-width:12.94547653;stroke-linecap:butt;stroke-linejoin:miter;stroke-miterlimit:4;stroke-dasharray:none;stroke-opacity:1"
       d="m 1205.5281,71.3974 c 0,0 7.7278,7.39177 11.7596,12.43162 0,0 18.1435,15.45552 27.5512,19.82339 0,0 52.0784,34.94295 55.4383,47.37456 0.672,2.35193 15.4555,19.15141 -36.6228,68.5419"
       id="path1322-7"
       inkscape:connector-curvature="0" />
    <path
       style="fill:none;stroke:#000000;stroke-width:12.94547653;stroke-linecap:butt;stroke-linejoin:miter;stroke-miterlimit:4;stroke-dasharray:none;stroke-opacity:1"
       d="m 1214.5998,180.93006 c 0,0 10.7517,7.05579 29.5672,-1.00797"
       id="path1324-3"
       inkscape:connector-curvature="0" />
    <path
       style="fill:none;stroke:#000000;stroke-width:12.94547653;stroke-linecap:butt;stroke-linejoin:miter;stroke-miterlimit:4;stroke-dasharray:none;stroke-opacity:1"
       d="m 1208.216,187.98585 c 0,0 -2.6879,13.77557 6.0479,27.55114"
       id="path1326-93"
       inkscape:connector-curvature="0" />
    <path
       style="fill:none;stroke:#000000;stroke-width:12.94547653;stroke-linecap:butt;stroke-linejoin:miter;stroke-miterlimit:4;stroke-dasharray:none;stroke-opacity:1"
       d="m 1182.3448,180.93006 c 0,0 -18.4794,-20.83137 -31.247,-29.5671"
       id="path1328-5"
       inkscape:connector-curvature="0" />
    <path
       style="fill:none;stroke:#000000;stroke-width:12.94547653;stroke-linecap:butt;stroke-linejoin:miter;stroke-miterlimit:4;stroke-dasharray:none;stroke-opacity:1"
       d="m 1183.3528,209.82518 c 0,0 -1.1366,6.32652 -4.2251,13.45391"
       id="path1332-4"
       inkscape:connector-curvature="0" />
    <path
       style="fill:none;stroke:#000000;stroke-width:12.94547653;stroke-linecap:butt;stroke-linejoin:miter;stroke-miterlimit:4;stroke-dasharray:none;stroke-opacity:1"
       d="m 1220.9836,234.68835 c 0,0 -14.1115,31.5831 -16.4635,54.7663"
       id="path1334-5"
       inkscape:connector-curvature="0" />
    <path
       style="fill:none;stroke:#000000;stroke-width:12.94547653;stroke-linecap:butt;stroke-linejoin:miter;stroke-miterlimit:4;stroke-dasharray:none;stroke-opacity:1"
       d="m 1188.3927,277.69505 c 0,0 22.8473,-28.2231 17.8074,-51.0704"
       id="path1336-1"
       inkscape:connector-curvature="0" />
    <path
       style="fill:none;stroke:#000000;stroke-width:12.94547653;stroke-linecap:butt;stroke-linejoin:miter;stroke-miterlimit:4;stroke-dasharray:none;stroke-opacity:1"
       d="m 1241.6113,341.83185 c 0,0 -18.9477,-16.7622 -21.2996,-35.2417"
       id="path1340-9"
       inkscape:connector-curvature="0" />
    <path
       style="fill:none;stroke:#000000;stroke-width:12.94547653;stroke-linecap:butt;stroke-linejoin:miter;stroke-miterlimit:4;stroke-dasharray:none;stroke-opacity:1"
       d="m 1341.0999,233.17645 c 0,0 -1.344,-34.43893 -6.2157,-45.02261"
       id="path1342-07"
       inkscape:connector-curvature="0" />
    <path
       style="fill:none;stroke:#000000;stroke-width:12.94499969;stroke-linecap:butt;stroke-linejoin:miter;stroke-miterlimit:4;stroke-dasharray:none;stroke-opacity:1"
       d="m 1363.3386,109.27121 c 0,0 31.5575,8.75522 46.2402,7.24081 2.1114,1.08934 68.6848,10.09261 92.3429,4.65411 15.936,0.20154 71.6482,7.66482 91.4374,-17.84168 0,0 6.8403,-16.57473 -10.9027,-21.7721 0,0 -22.891,-1.43733 -31.5618,-1.41946 0,0 -38.2855,-4.13984 -60.6347,-8.07794 0,0 -45.6416,-10.60847 -52.9919,-14.18675 0,0 -31.032,-9.70099 -49.0004,-10.52343 0,0 -11.5684,0.56366 -26.4025,-4.95466"
       id="path1304"
       inkscape:connector-curvature="0"
       sodipodi:nodetypes="cccccccccc" />
    <path
       style="fill:none;stroke:#000000;stroke-width:12.94547653;stroke-linecap:butt;stroke-linejoin:miter;stroke-miterlimit:4;stroke-dasharray:none;stroke-opacity:1"
       d="m 1425.6023,117.72461 c 0,0 -2.435,-8.03501 2.0881,-16.74333"
       id="path1310-7"
       inkscape:connector-curvature="0" />
    <path
       style="fill:none;stroke:#000000;stroke-width:12.94547653;stroke-linecap:butt;stroke-linejoin:miter;stroke-miterlimit:4;stroke-dasharray:none;stroke-opacity:1"
       d="m 1518.0134,120.73395 c 0,0 -4.3016,-5.77051 -2.1521,-14.37635"
       id="path1312-4"
       inkscape:connector-curvature="0" />
    <path
       inkscape:connector-curvature="0"
       id="path29-0-9-9-8-6-9-4-7-8-4-1-9-2-3-0-3-7-0-3-3-1-1-8-2-4-2-6-7-5-0-0-5-0-2-7"
       d="m 800.2392,560.42005 c -59.578,58.645 -110.866,60.979 -150.007,48.604 -19.572,-6.173 -36.0786,-16.342 -48.3473,-25.679 -12.2685,-9.338 -19.9525,-17.488 -23.1681,-20.677 l -11.0136,11.121 c 2.4781,2.459 11.4196,11.898 24.704,22.017 13.2858,10.106 31.2645,21.252 53.1115,28.154 43.693,13.798 102.9697,9.37 165.6985,-52.388 z"
       style="color:#000000;font-style:normal;font-variant:normal;font-weight:normal;font-stretch:normal;font-size:medium;line-height:normal;font-family:sans-serif;font-variant-ligatures:normal;font-variant-position:normal;font-variant-caps:normal;font-variant-numeric:normal;font-variant-alternates:normal;font-feature-settings:normal;text-indent:0;text-align:start;text-decoration:none;text-decoration-line:none;text-decoration-style:solid;text-decoration-color:#000000;letter-spacing:normal;word-spacing:normal;text-transform:none;writing-mode:lr-tb;direction:ltr;text-orientation:mixed;dominant-baseline:auto;baseline-shift:baseline;text-anchor:start;white-space:normal;shape-padding:0;clip-rule:nonzero;display:inline;overflow:visible;visibility:visible;opacity:1;isolation:auto;mix-blend-mode:normal;color-interpolation:sRGB;color-interpolation-filters:linearRGB;solid-color:#000000;solid-opacity:1;vector-effect:none;fill:#000000;fill-opacity:1;fill-rule:nonzero;stroke:none;stroke-width:15.65020561;stroke-linecap:butt;stroke-linejoin:miter;stroke-miterlimit:4;stroke-dasharray:none;stroke-dashoffset:0;stroke-opacity:1;color-rendering:auto;image-rendering:auto;shape-rendering:auto;text-rendering:auto;enable-background:accumulate" />
    <path
       inkscape:connector-curvature="0"
       id="path87-4-6-0-9-7-5-5-7-7-9-2-1-9-4-3-5-9-4-5-6-7-5-4-0-1-6-4-4-6-8-1-6-4-8-8"
       d="m 587.213,273.17105 c -15.5362,0.144 -28.0989,6.393 -36.1904,15.735 -8.1129,9.373 -11.8874,21.465 -11.7781,33.374 0.1094,11.913 4.0966,23.851 12.3091,32.94 8.1845,9.062 20.748,14.861 35.953,14.383 14.9256,-0.05 27.068,-6.367 34.7772,-15.719 7.7296,-9.382 11.2839,-21.395 11.2068,-33.239 -0.074,-11.851 -3.7782,-23.753 -11.5906,-32.907 -7.7947,-9.123 -19.9815,-15.073 -34.687,-14.567 z m 0.4631,15.629 c 10.4946,-0.382 17.3412,3.277 22.3198,9.105 4.978,5.831 7.7891,14.251 7.8454,22.839 0.048,8.593 -2.64,17.125 -7.6351,23.187 -4.9953,6.069 -12.0165,10.042 -22.8165,10.042 h -0.1322 l -0.1307,0.02 c -11.2338,0.373 -18.6878,-3.408 -23.9626,-9.248 -5.2743,-5.836 -8.1928,-14.123 -8.2703,-22.598 -0.077,-8.46 2.68,-16.881 7.9609,-22.988 5.2795,-6.09 12.9325,-10.251 24.5915,-10.335 l 0.1149,-0.02 z"
       style="color:#000000;font-style:normal;font-variant:normal;font-weight:normal;font-stretch:normal;font-size:medium;line-height:normal;font-family:sans-serif;font-variant-ligatures:normal;font-variant-position:normal;font-variant-caps:normal;font-variant-numeric:normal;font-variant-alternates:normal;font-feature-settings:normal;text-indent:0;text-align:start;text-decoration:none;text-decoration-line:none;text-decoration-style:solid;text-decoration-color:#000000;letter-spacing:normal;word-spacing:normal;text-transform:none;writing-mode:lr-tb;direction:ltr;text-orientation:mixed;dominant-baseline:auto;baseline-shift:baseline;text-anchor:start;white-space:normal;shape-padding:0;clip-rule:nonzero;display:inline;overflow:visible;visibility:visible;opacity:1;isolation:auto;mix-blend-mode:normal;color-interpolation:sRGB;color-interpolation-filters:linearRGB;solid-color:#000000;solid-opacity:1;vector-effect:none;fill:#000000;fill-opacity:1;fill-rule:nonzero;stroke:none;stroke-width:15.65020561;stroke-linecap:butt;stroke-linejoin:miter;stroke-miterlimit:4;stroke-dasharray:none;stroke-dashoffset:0;stroke-opacity:1;color-rendering:auto;image-rendering:auto;shape-rendering:auto;text-rendering:auto;enable-background:accumulate" />
    <path
       inkscape:connector-curvature="0"
       id="path59-4-9-5-9-4-4-6-4-9-8-0-1-0-3-1-1-1-5-7-2-1-1-3-7-1-1-5-4-4-7-0-8-9-8-6"
       d="m 586.5386,243.40905 c -29.3918,0.78 -57.4518,14.965 -91.4869,40.24 l 9.3315,12.561 c 32.9701,-24.487 57.9623,-36.497 82.574,-37.154 24.6106,-0.665 50.4081,9.953 85.1961,34.131 l 8.933,-12.851 c -36.0047,-25.017 -65.1561,-37.712 -94.5477,-36.927 z"
       style="color:#000000;font-style:normal;font-variant:normal;font-weight:normal;font-stretch:normal;font-size:medium;line-height:normal;font-family:sans-serif;font-variant-ligatures:normal;font-variant-position:normal;font-variant-caps:normal;font-variant-numeric:normal;font-variant-alternates:normal;font-feature-settings:normal;text-indent:0;text-align:start;text-decoration:none;text-decoration-line:none;text-decoration-style:solid;text-decoration-color:#000000;letter-spacing:normal;word-spacing:normal;text-transform:none;writing-mode:lr-tb;direction:ltr;text-orientation:mixed;dominant-baseline:auto;baseline-shift:baseline;text-anchor:start;white-space:normal;shape-padding:0;clip-rule:nonzero;display:inline;overflow:visible;visibility:visible;opacity:1;isolation:auto;mix-blend-mode:normal;color-interpolation:sRGB;color-interpolation-filters:linearRGB;solid-color:#000000;solid-opacity:1;vector-effect:none;fill:#000000;fill-opacity:1;fill-rule:nonzero;stroke:none;stroke-width:15.65020561;stroke-linecap:butt;stroke-linejoin:miter;stroke-miterlimit:4;stroke-dasharray:none;stroke-dashoffset:0;stroke-opacity:1;color-rendering:auto;image-rendering:auto;shape-rendering:auto;text-rendering:auto;enable-background:accumulate" />
    <path
       inkscape:connector-curvature="0"
       id="path87-1-31-7-7-6-4-8-8-7-6-3-5-4-1-1-9-6-4-9-8-0-4-6-8-5-5-2-5-9-2-5-4-3-4-2-1"
       d="m 799.7033,270.93605 c -15.5348,0.141 -28.0979,6.395 -36.1893,15.737 -8.113,9.374 -11.8885,21.472 -11.7783,33.374 0.1091,11.912 4.0969,23.853 12.3091,32.948 8.1878,9.055 20.7561,14.855 35.9669,14.38 14.9192,-0.06 27.0566,-6.375 34.7631,-15.723 7.7299,-9.377 11.282,-21.393 11.2053,-33.241 -0.074,-11.852 -3.7787,-23.755 -11.5925,-32.901 -7.7934,-9.129 -19.9787,-15.08 -34.6843,-14.574 z m 0.4633,15.631 c 10.495,-0.379 17.3426,3.277 22.3207,9.102 4.9779,5.84 7.7874,14.258 7.8423,22.844 0.051,8.588 -2.6371,17.127 -7.6327,23.184 -4.9944,6.068 -12.0162,10.037 -22.816,10.037 h -0.1316 l -0.132,0.02 c -11.2332,0.383 -18.687,-3.404 -23.9611,-9.242 -5.274,-5.841 -8.1938,-14.125 -8.2709,-22.6 -0.076,-8.459 2.6796,-16.877 7.9607,-22.984 5.2796,-6.097 12.9319,-10.259 24.5917,-10.342 h 0.1154 z"
       style="color:#000000;font-style:normal;font-variant:normal;font-weight:normal;font-stretch:normal;font-size:medium;line-height:normal;font-family:sans-serif;font-variant-ligatures:normal;font-variant-position:normal;font-variant-caps:normal;font-variant-numeric:normal;font-variant-alternates:normal;font-feature-settings:normal;text-indent:0;text-align:start;text-decoration:none;text-decoration-line:none;text-decoration-style:solid;text-decoration-color:#000000;letter-spacing:normal;word-spacing:normal;text-transform:none;writing-mode:lr-tb;direction:ltr;text-orientation:mixed;dominant-baseline:auto;baseline-shift:baseline;text-anchor:start;white-space:normal;shape-padding:0;clip-rule:nonzero;display:inline;overflow:visible;visibility:visible;opacity:1;isolation:auto;mix-blend-mode:normal;color-interpolation:sRGB;color-interpolation-filters:linearRGB;solid-color:#000000;solid-opacity:1;vector-effect:none;fill:#000000;fill-opacity:1;fill-rule:nonzero;stroke:none;stroke-width:15.65020561;stroke-linecap:butt;stroke-linejoin:miter;stroke-miterlimit:4;stroke-dasharray:none;stroke-dashoffset:0;stroke-opacity:1;color-rendering:auto;image-rendering:auto;shape-rendering:auto;text-rendering:auto;enable-background:accumulate" />
    <path
       inkscape:connector-curvature="0"
       id="path59-1-31-8-8-0-3-4-0-4-0-3-5-0-8-3-3-3-0-5-1-5-1-0-3-4-7-0-1-1-2-5-4-4-6-7-5"
       d="m 800.8105,241.47105 c -29.3305,0.09 -58.0347,13.496 -93.3012,39.966 l 9.396,12.514 c 34.042,-25.548 59.3587,-36.769 83.9383,-36.825 24.5805,-0.07 49.9852,11.175 83.9113,33.913 l 8.7128,-13.001 c -34.9358,-23.412 -63.328,-36.62 -92.6572,-36.567 z"
       style="color:#000000;font-style:normal;font-variant:normal;font-weight:normal;font-stretch:normal;font-size:medium;line-height:normal;font-family:sans-serif;font-variant-ligatures:normal;font-variant-position:normal;font-variant-caps:normal;font-variant-numeric:normal;font-variant-alternates:normal;font-feature-settings:normal;text-indent:0;text-align:start;text-decoration:none;text-decoration-line:none;text-decoration-style:solid;text-decoration-color:#000000;letter-spacing:normal;word-spacing:normal;text-transform:none;writing-mode:lr-tb;direction:ltr;text-orientation:mixed;dominant-baseline:auto;baseline-shift:baseline;text-anchor:start;white-space:normal;shape-padding:0;clip-rule:nonzero;display:inline;overflow:visible;visibility:visible;opacity:1;isolation:auto;mix-blend-mode:normal;color-interpolation:sRGB;color-interpolation-filters:linearRGB;solid-color:#000000;solid-opacity:1;vector-effect:none;fill:#000000;fill-opacity:1;fill-rule:nonzero;stroke:none;stroke-width:15.65020561;stroke-linecap:butt;stroke-linejoin:miter;stroke-miterlimit:4;stroke-dasharray:none;stroke-dashoffset:0;stroke-opacity:1;color-rendering:auto;image-rendering:auto;shape-rendering:auto;text-rendering:auto;enable-background:accumulate" />
    <path
       inkscape:connector-curvature="0"
       id="path29-0-9-9-8-6-9-4-7-8-4-1-9-2-3-0-3-7-0-3-3-1-1-8-2-4-2-6-7-5-0-0-5-0-2-7-3"
       d="m 1813.3833,560.42005 c -59.578,58.645 -110.866,60.979 -150.007,48.604 -19.572,-6.173 -36.0786,-16.342 -48.3473,-25.679 -12.2685,-9.338 -19.9525,-17.488 -23.1681,-20.677 l -11.0136,11.121 c 2.4781,2.459 11.4196,11.898 24.704,22.017 13.2858,10.106 31.2645,21.252 53.1115,28.154 43.693,13.798 102.9697,9.37 165.6985,-52.388 z"
       style="color:#000000;font-style:normal;font-variant:normal;font-weight:normal;font-stretch:normal;font-size:medium;line-height:normal;font-family:sans-serif;font-variant-ligatures:normal;font-variant-position:normal;font-variant-caps:normal;font-variant-numeric:normal;font-variant-alternates:normal;font-feature-settings:normal;text-indent:0;text-align:start;text-decoration:none;text-decoration-line:none;text-decoration-style:solid;text-decoration-color:#000000;letter-spacing:normal;word-spacing:normal;text-transform:none;writing-mode:lr-tb;direction:ltr;text-orientation:mixed;dominant-baseline:auto;baseline-shift:baseline;text-anchor:start;white-space:normal;shape-padding:0;clip-rule:nonzero;display:inline;overflow:visible;visibility:visible;opacity:1;isolation:auto;mix-blend-mode:normal;color-interpolation:sRGB;color-interpolation-filters:linearRGB;solid-color:#000000;solid-opacity:1;vector-effect:none;fill:#000000;fill-opacity:1;fill-rule:nonzero;stroke:none;stroke-width:15.65020561;stroke-linecap:butt;stroke-linejoin:miter;stroke-miterlimit:4;stroke-dasharray:none;stroke-dashoffset:0;stroke-opacity:1;color-rendering:auto;image-rendering:auto;shape-rendering:auto;text-rendering:auto;enable-background:accumulate" />
    <path
       inkscape:connector-curvature="0"
       id="path87-4-6-0-9-7-5-5-7-7-9-2-1-9-4-3-5-9-4-5-6-7-5-4-0-1-6-4-4-6-8-1-6-4-8-8-6"
       d="m 1600.3571,273.17105 c -15.5362,0.144 -28.0989,6.393 -36.1904,15.735 -8.1129,9.373 -11.8874,21.465 -11.7781,33.374 0.1094,11.913 4.0966,23.851 12.3091,32.94 8.1845,9.062 20.748,14.861 35.953,14.383 14.9256,-0.05 27.068,-6.367 34.7772,-15.719 7.7296,-9.382 11.2839,-21.395 11.2068,-33.239 -0.074,-11.851 -3.7782,-23.753 -11.5906,-32.907 -7.7947,-9.123 -19.9815,-15.073 -34.687,-14.567 z m 0.4631,15.629 c 10.4946,-0.382 17.3412,3.277 22.3198,9.105 4.978,5.831 7.7891,14.251 7.8454,22.839 0.048,8.593 -2.64,17.125 -7.6351,23.187 -4.9953,6.069 -12.0165,10.042 -22.8165,10.042 h -0.1322 l -0.1307,0.02 c -11.2338,0.373 -18.6878,-3.408 -23.9626,-9.248 -5.2743,-5.836 -8.1928,-14.123 -8.2703,-22.598 -0.077,-8.46 2.68,-16.881 7.9609,-22.988 5.2795,-6.09 12.9325,-10.251 24.5915,-10.335 l 0.1149,-0.02 z"
       style="color:#000000;font-style:normal;font-variant:normal;font-weight:normal;font-stretch:normal;font-size:medium;line-height:normal;font-family:sans-serif;font-variant-ligatures:normal;font-variant-position:normal;font-variant-caps:normal;font-variant-numeric:normal;font-variant-alternates:normal;font-feature-settings:normal;text-indent:0;text-align:start;text-decoration:none;text-decoration-line:none;text-decoration-style:solid;text-decoration-color:#000000;letter-spacing:normal;word-spacing:normal;text-transform:none;writing-mode:lr-tb;direction:ltr;text-orientation:mixed;dominant-baseline:auto;baseline-shift:baseline;text-anchor:start;white-space:normal;shape-padding:0;clip-rule:nonzero;display:inline;overflow:visible;visibility:visible;opacity:1;isolation:auto;mix-blend-mode:normal;color-interpolation:sRGB;color-interpolation-filters:linearRGB;solid-color:#000000;solid-opacity:1;vector-effect:none;fill:#000000;fill-opacity:1;fill-rule:nonzero;stroke:none;stroke-width:15.65020561;stroke-linecap:butt;stroke-linejoin:miter;stroke-miterlimit:4;stroke-dasharray:none;stroke-dashoffset:0;stroke-opacity:1;color-rendering:auto;image-rendering:auto;shape-rendering:auto;text-rendering:auto;enable-background:accumulate" />
    <path
       inkscape:connector-curvature="0"
       id="path59-4-9-5-9-4-4-6-4-9-8-0-1-0-3-1-1-1-5-7-2-1-1-3-7-1-1-5-4-4-7-0-8-9-8-6-4"
       d="m 1599.6827,243.40905 c -29.3918,0.78 -57.4518,14.965 -91.4869,40.24 l 9.3315,12.561 c 32.9701,-24.487 57.9623,-36.497 82.574,-37.154 24.6106,-0.665 50.4081,9.953 85.1961,34.131 l 8.933,-12.851 c -36.0047,-25.017 -65.1561,-37.712 -94.5477,-36.927 z"
       style="color:#000000;font-style:normal;font-variant:normal;font-weight:normal;font-stretch:normal;font-size:medium;line-height:normal;font-family:sans-serif;font-variant-ligatures:normal;font-variant-position:normal;font-variant-caps:normal;font-variant-numeric:normal;font-variant-alternates:normal;font-feature-settings:normal;text-indent:0;text-align:start;text-decoration:none;text-decoration-line:none;text-decoration-style:solid;text-decoration-color:#000000;letter-spacing:normal;word-spacing:normal;text-transform:none;writing-mode:lr-tb;direction:ltr;text-orientation:mixed;dominant-baseline:auto;baseline-shift:baseline;text-anchor:start;white-space:normal;shape-padding:0;clip-rule:nonzero;display:inline;overflow:visible;visibility:visible;opacity:1;isolation:auto;mix-blend-mode:normal;color-interpolation:sRGB;color-interpolation-filters:linearRGB;solid-color:#000000;solid-opacity:1;vector-effect:none;fill:#000000;fill-opacity:1;fill-rule:nonzero;stroke:none;stroke-width:15.65020561;stroke-linecap:butt;stroke-linejoin:miter;stroke-miterlimit:4;stroke-dasharray:none;stroke-dashoffset:0;stroke-opacity:1;color-rendering:auto;image-rendering:auto;shape-rendering:auto;text-rendering:auto;enable-background:accumulate" />
    <path
       inkscape:connector-curvature="0"
       id="path87-1-31-7-7-6-4-8-8-7-6-3-5-4-1-1-9-6-4-9-8-0-4-6-8-5-5-2-5-9-2-5-4-3-4-2-1-1"
       d="m 1812.8474,270.93605 c -15.5348,0.141 -28.0979,6.395 -36.1893,15.737 -8.113,9.374 -11.8885,21.472 -11.7783,33.374 0.1091,11.912 4.0969,23.853 12.3091,32.948 8.1878,9.055 20.7561,14.855 35.9669,14.38 14.9192,-0.06 27.0566,-6.375 34.7631,-15.723 7.7299,-9.377 11.282,-21.393 11.2053,-33.241 -0.074,-11.852 -3.7787,-23.755 -11.5925,-32.901 -7.7934,-9.129 -19.9787,-15.08 -34.6843,-14.574 z m 0.4633,15.631 c 10.495,-0.379 17.3426,3.277 22.3207,9.102 4.9779,5.84 7.7874,14.258 7.8423,22.844 0.051,8.588 -2.6371,17.127 -7.6327,23.184 -4.9944,6.068 -12.0162,10.037 -22.816,10.037 h -0.1316 l -0.132,0.02 c -11.2332,0.383 -18.687,-3.404 -23.9611,-9.242 -5.274,-5.841 -8.1938,-14.125 -8.2709,-22.6 -0.076,-8.459 2.6796,-16.877 7.9607,-22.984 5.2796,-6.097 12.9319,-10.259 24.5917,-10.342 h 0.1154 z"
       style="color:#000000;font-style:normal;font-variant:normal;font-weight:normal;font-stretch:normal;font-size:medium;line-height:normal;font-family:sans-serif;font-variant-ligatures:normal;font-variant-position:normal;font-variant-caps:normal;font-variant-numeric:normal;font-variant-alternates:normal;font-feature-settings:normal;text-indent:0;text-align:start;text-decoration:none;text-decoration-line:none;text-decoration-style:solid;text-decoration-color:#000000;letter-spacing:normal;word-spacing:normal;text-transform:none;writing-mode:lr-tb;direction:ltr;text-orientation:mixed;dominant-baseline:auto;baseline-shift:baseline;text-anchor:start;white-space:normal;shape-padding:0;clip-rule:nonzero;display:inline;overflow:visible;visibility:visible;opacity:1;isolation:auto;mix-blend-mode:normal;color-interpolation:sRGB;color-interpolation-filters:linearRGB;solid-color:#000000;solid-opacity:1;vector-effect:none;fill:#000000;fill-opacity:1;fill-rule:nonzero;stroke:none;stroke-width:15.65020561;stroke-linecap:butt;stroke-linejoin:miter;stroke-miterlimit:4;stroke-dasharray:none;stroke-dashoffset:0;stroke-opacity:1;color-rendering:auto;image-rendering:auto;shape-rendering:auto;text-rendering:auto;enable-background:accumulate" />
    <path
       inkscape:connector-curvature="0"
       id="path59-1-31-8-8-0-3-4-0-4-0-3-5-0-8-3-3-3-0-5-1-5-1-0-3-4-7-0-1-1-2-5-4-4-6-7-5-9"
       d="m 1813.9546,241.47105 c -29.3305,0.09 -58.0347,13.496 -93.3012,39.966 l 9.396,12.514 c 34.042,-25.548 59.3587,-36.769 83.9383,-36.825 24.5805,-0.07 49.9852,11.175 83.9113,33.913 l 8.7128,-13.001 c -34.9358,-23.412 -63.328,-36.62 -92.6572,-36.567 z"
       style="color:#000000;font-style:normal;font-variant:normal;font-weight:normal;font-stretch:normal;font-size:medium;line-height:normal;font-family:sans-serif;font-variant-ligatures:normal;font-variant-position:normal;font-variant-caps:normal;font-variant-numeric:normal;font-variant-alternates:normal;font-feature-settings:normal;text-indent:0;text-align:start;text-decoration:none;text-decoration-line:none;text-decoration-style:solid;text-decoration-color:#000000;letter-spacing:normal;word-spacing:normal;text-transform:none;writing-mode:lr-tb;direction:ltr;text-orientation:mixed;dominant-baseline:auto;baseline-shift:baseline;text-anchor:start;white-space:normal;shape-padding:0;clip-rule:nonzero;display:inline;overflow:visible;visibility:visible;opacity:1;isolation:auto;mix-blend-mode:normal;color-interpolation:sRGB;color-interpolation-filters:linearRGB;solid-color:#000000;solid-opacity:1;vector-effect:none;fill:#000000;fill-opacity:1;fill-rule:nonzero;stroke:none;stroke-width:15.65020561;stroke-linecap:butt;stroke-linejoin:miter;stroke-miterlimit:4;stroke-dasharray:none;stroke-dashoffset:0;stroke-opacity:1;color-rendering:auto;image-rendering:auto;shape-rendering:auto;text-rendering:auto;enable-background:accumulate" />
  </g>
</svg>
