<?xml version="1.0" encoding="UTF-8" standalone="no"?>
<!-- Created with Inkscape (http://www.inkscape.org/) -->

<svg
   xmlns:dc="http://purl.org/dc/elements/1.1/"
   xmlns:cc="http://creativecommons.org/ns#"
   xmlns:rdf="http://www.w3.org/1999/02/22-rdf-syntax-ns#"
   xmlns:svg="http://www.w3.org/2000/svg"
   xmlns="http://www.w3.org/2000/svg"
   xmlns:sodipodi="http://sodipodi.sourceforge.net/DTD/sodipodi-0.dtd"
   xmlns:inkscape="http://www.inkscape.org/namespaces/inkscape"
   width="1000"
   height="1250"
   viewBox="0 0 1000 1250"
   version="1.1"
   id="svg7927"
   inkscape:version="0.92.4 (5da689c313, 2019-01-14)"
   sodipodi:docname="Ir - Vá.svg">
  <defs
     id="defs7921" />
  <sodipodi:namedview
     id="base"
     pagecolor="#ffffff"
     bordercolor="#666666"
     borderopacity="1.0"
     inkscape:pageopacity="0.0"
     inkscape:pageshadow="2"
     inkscape:zoom="0.70710678"
     inkscape:cx="702.4745"
     inkscape:cy="549.50522"
     inkscape:document-units="px"
     inkscape:current-layer="layer1"
     showgrid="false"
     units="px"
     inkscape:window-width="681"
     inkscape:window-height="706"
     inkscape:window-x="-7"
     inkscape:window-y="0"
     inkscape:window-maximized="0" />
  <metadata
     id="metadata7924">
    <rdf:RDF>
      <cc:Work
         rdf:about="">
        <dc:format>image/svg+xml</dc:format>
        <dc:type
           rdf:resource="http://purl.org/dc/dcmitype/StillImage" />
        <dc:title></dc:title>
      </cc:Work>
    </rdf:RDF>
  </metadata>
  <g
     inkscape:label="Camada 1"
     inkscape:groupmode="layer"
     id="layer1"
     transform="translate(0,217.58335)">
    <path
       style="color:#000000;font-style:normal;font-variant:normal;font-weight:normal;font-stretch:normal;font-size:medium;line-height:normal;font-family:sans-serif;font-variant-ligatures:normal;font-variant-position:normal;font-variant-caps:normal;font-variant-numeric:normal;font-variant-alternates:normal;font-feature-settings:normal;text-indent:0;text-align:start;text-decoration:none;text-decoration-line:none;text-decoration-style:solid;text-decoration-color:#000000;letter-spacing:normal;word-spacing:normal;text-transform:none;writing-mode:lr-tb;direction:ltr;text-orientation:mixed;dominant-baseline:auto;baseline-shift:baseline;text-anchor:start;white-space:normal;shape-padding:0;clip-rule:nonzero;display:inline;overflow:visible;visibility:visible;opacity:1;isolation:auto;mix-blend-mode:normal;color-interpolation:sRGB;color-interpolation-filters:linearRGB;solid-color:#000000;solid-opacity:1;vector-effect:none;fill:#000000;fill-opacity:1;fill-rule:nonzero;stroke:none;stroke-width:10.74819851;stroke-linecap:butt;stroke-linejoin:miter;stroke-miterlimit:4;stroke-dasharray:none;stroke-dashoffset:0;stroke-opacity:1;color-rendering:auto;image-rendering:auto;shape-rendering:auto;text-rendering:auto;enable-background:accumulate"
       d="m 31.542969,-86.3666 c -8.291656,0.0943 -15.563276,2.60476 -21.15625,7.17383 -7.4572994,6.0921 -11.27436161,15.87137 -9.90820338,26.4961 C 1.8192086,-42.27 7.8814406,-31.0641 19.123047,-20.183 c 0.563662,1.01584 2.50894,4.395 7.701172,10.73633 6.063243,7.4051 16.236631,18.43896 32.914062,33.37109 0.06951,0.0631 59.293229,53.91845 93.048829,100.9668 -0.22552,1.02309 -0.33819,1.29623 -0.58789,2.96093 -0.29321,1.95472 -0.4571,4.21433 -0.43555,6.56446 -4.25419,1.82881 -15.18155,6.68541 -28.91211,15.47461 -15.93874,10.20269 -33.278356,24.21821 -38.589841,42.36328 -2.567176,1.14525 -6.651887,3.22693 -12.302735,8.08593 -8.064525,6.93447 -17.857332,18.69374 -25.603515,37.6504 -0.292525,0.44601 -6.472405,9.8801 -13.080078,21.43164 -6.710592,11.73146 -13.789351,24.53554 -15.142579,34.40625 -0.116757,0.49189 -2.010934,8.62799 0.210938,18.78515 2.263726,10.3485 9.318045,22.93428 25.734375,30.53516 1.447205,1.10756 43.453268,32.88019 86.783205,16.5293 l -3.79492,-10.05665 c -37.291638,14.0723 -77.000004,-15.375 -77.000004,-15.375 l -0.486328,-0.36914 -0.558594,-0.25 C 35.136645,327.37939 30.584562,318.27502 28.84375,310.317 27.102938,302.35897 28.623047,296.03965 28.623047,296.03965 l 0.07031,-0.29101 0.03906,-0.29883 C 29.382212,290.38145 36.0313,276.25137 42.605469,264.7584 49.179637,253.26544 55.53125,243.59239 55.53125,243.59239 l 0.294922,-0.44727 0.199219,-0.49805 c 7.180762,-17.85982 16.039398,-28.2214 22.941406,-34.15624 6.902008,-5.93485 11.33789,-7.26172 11.337891,-7.26172 l 2.943359,-0.94727 0.660156,-3.02148 c 3.035308,-13.89857 18.944557,-28.20654 34.738277,-38.31641 15.79373,-10.10987 30.7461,-16.19922 30.7461,-16.19922 l 3.34958,-4.85944 -0.11716,-1.24407 c -0.29566,-1.37975 -0.18454,-4.60892 0.20312,-7.19336 0.38767,-2.58445 0.89258,-4.52735 0.89258,-4.52735 l 0.63086,-2.41797 -1.4414,-2.03906 C 128.11927,71.20899 66.929688,15.93809 66.929688,15.93809 l -0.0098,-0.0117 -0.01172,-0.01 C 50.573307,1.29117 40.785237,-9.3634 35.140625,-16.25722 c -5.644612,-6.89383 -6.933594,-9.60156 -6.933594,-9.60156 l -0.421875,-0.84375 -0.683594,-0.6504 c -10.350147,-9.83182 -15.002623,-19.24481 -15.96289,-26.71289 -0.960267,-7.46807 1.42002,-13.02327 6.048828,-16.80468 9.257615,-7.56283 30.131424,-7.92241 54.039062,13.77539 l -0.002,-0.004 C 105.08561,-26.31631 143.5019,6.7212 143.5019,6.7212 l 0.29297,0.25196 0.32617,0.20703 c 20.15901,12.82845 45.4728,37.97889 45.50977,38.01562 9.90433,10.28571 22.96508,25.07158 36.23828,38.82813 13.29081,13.77479 26.57784,26.50372 38.26367,33.08984 l -0.48633,-0.30859 c 30.51113,21.79367 40.16993,56.17383 40.16993,56.17383 l -0.13282,-0.61524 c 0.90473,5.88061 3.46118,13.69771 5.80274,20.42969 2.30893,6.63819 4.36717,11.87608 4.42578,12.02539 10.22979,28.86263 9.18166,66.45726 5.30078,96.65234 -3.88088,30.19508 -10.39062,52.84571 -10.39062,52.84571 l -0.0508,0.17383 -0.0371,0.17578 c 0,0 -2.49688,11.51485 -8.26758,24.81054 -5.71492,13.16717 -14.75157,27.57723 -26.30469,33.94532 -1.13444,0.37718 -33.95632,11.1378 -57.52344,-0.98243 l -4.91406,9.5586 c 29.76141,15.30586 66.45703,1.43164 66.45703,1.43164 l 0.37305,-0.13477 0.34961,-0.18554 c 15.53875,-8.31649 25.19877,-25.01101 31.42382,-39.35352 6.15086,-14.17156 8.79792,-26.3365 8.86133,-26.62891 0.0677,-0.23601 6.71548,-23.41133 10.6836,-54.28515 3.98835,-31.03129 5.43457,-69.82537 -5.83203,-101.61328 l -0.0293,-0.0859 -0.0332,-0.084 c 0,0 -2.07503,-5.28553 -4.33985,-11.79687 -2.26481,-6.51134 -4.69932,-14.43335 -5.33008,-18.5332 l -0.0488,-0.31055 -0.084,-0.30469 c 0,0 -10.30318,-37.78462 -44.28125,-62.05469 l -0.23437,-0.16796 -0.25,-0.14063 C 259.98508,102.43859 246.66633,90.09963 233.60347,76.56108 220.5406,63.02252 207.52566,48.279 197.32417,37.68803 l -0.0352,-0.0352 -0.0352,-0.0371 c 0,0 -24.99225,-25.13326 -46.94532,-39.21876 -0.32846,-0.28251 -38.30162,-32.94569 -71.855462,-63.44921 l -0.002,-0.002 C 62.015901,-79.97021 45.362395,-86.52367 31.542969,-86.3666 Z"
       id="path7940"
       inkscape:connector-curvature="0"
       sodipodi:nodetypes="csscsccccscccscsccccccscccscccscccsccccccccccscccssccccccsccccscscccsccccccscsccccccccccsccccccc" />
    <path
       style="color:#000000;font-style:normal;font-variant:normal;font-weight:normal;font-stretch:normal;font-size:medium;line-height:normal;font-family:sans-serif;font-variant-ligatures:normal;font-variant-position:normal;font-variant-caps:normal;font-variant-numeric:normal;font-variant-alternates:normal;font-feature-settings:normal;text-indent:0;text-align:start;text-decoration:none;text-decoration-line:none;text-decoration-style:solid;text-decoration-color:#000000;letter-spacing:normal;word-spacing:normal;text-transform:none;writing-mode:lr-tb;direction:ltr;text-orientation:mixed;dominant-baseline:auto;baseline-shift:baseline;text-anchor:start;white-space:normal;shape-padding:0;clip-rule:nonzero;display:inline;overflow:visible;visibility:visible;opacity:1;isolation:auto;mix-blend-mode:normal;color-interpolation:sRGB;color-interpolation-filters:linearRGB;solid-color:#000000;solid-opacity:1;vector-effect:none;fill:#000000;fill-opacity:1;fill-rule:nonzero;stroke:none;stroke-width:10.74819851;stroke-linecap:butt;stroke-linejoin:miter;stroke-miterlimit:4;stroke-dasharray:none;stroke-dashoffset:0;stroke-opacity:1;color-rendering:auto;image-rendering:auto;shape-rendering:auto;text-rendering:auto;enable-background:accumulate"
       d="m 92.683594,354.16075 -8.050782,7.12109 c 0,0 8.584185,9.69456 20.328128,26.74219 l 8.94726,-5.95505 C 101.85252,364.56883 92.683594,354.16075 92.683594,354.16075 Z"
       id="path7942"
       inkscape:connector-curvature="0"
       sodipodi:nodetypes="ccccc" />
    <path
       style="color:#000000;font-style:normal;font-variant:normal;font-weight:normal;font-stretch:normal;font-size:medium;line-height:normal;font-family:sans-serif;font-variant-ligatures:normal;font-variant-position:normal;font-variant-caps:normal;font-variant-numeric:normal;font-variant-alternates:normal;font-feature-settings:normal;text-indent:0;text-align:start;text-decoration:none;text-decoration-line:none;text-decoration-style:solid;text-decoration-color:#000000;letter-spacing:normal;word-spacing:normal;text-transform:none;writing-mode:lr-tb;direction:ltr;text-orientation:mixed;dominant-baseline:auto;baseline-shift:baseline;text-anchor:start;white-space:normal;shape-padding:0;clip-rule:nonzero;display:inline;overflow:visible;visibility:visible;opacity:1;isolation:auto;mix-blend-mode:normal;color-interpolation:sRGB;color-interpolation-filters:linearRGB;solid-color:#000000;solid-opacity:1;vector-effect:none;fill:#000000;fill-opacity:1;fill-rule:nonzero;stroke:none;stroke-width:10.74819851;stroke-linecap:butt;stroke-linejoin:miter;stroke-miterlimit:4;stroke-dasharray:none;stroke-dashoffset:0;stroke-opacity:1;color-rendering:auto;image-rendering:auto;shape-rendering:auto;text-rendering:auto;enable-background:accumulate"
       d="m 113.9082,382.06895 -9.04297,5.8125 c 0,0 6.23894,9.71417 15.41211,20.12695 9.14471,10.38047 20.98083,21.87097 34.57422,25.15039 0.541,0.18324 7.83461,2.62931 17.25391,3.38086 9.77346,0.77982 22.2906,-0.1397 30.95703,-9.04687 l -7.70312,-7.49414 c -5.15268,5.29581 -14.13224,6.48783 -22.4004,5.82812 -8.26815,-0.6597 -15.00195,-2.94336 -15.00195,-2.94336 l -0.24609,-0.084 -0.25196,-0.0605 c -9.00131,-2.13591 -20.53665,-12.09393 -29.11718,-21.83398 -8.58054,-9.74006 -14.4336,-18.83594 -14.4336,-18.83594 z"
       id="path7944"
       inkscape:connector-curvature="0" />
    <path
       style="color:#000000;font-style:normal;font-variant:normal;font-weight:normal;font-stretch:normal;font-size:medium;line-height:normal;font-family:sans-serif;font-variant-ligatures:normal;font-variant-position:normal;font-variant-caps:normal;font-variant-numeric:normal;font-variant-alternates:normal;font-feature-settings:normal;text-indent:0;text-align:start;text-decoration:none;text-decoration-line:none;text-decoration-style:solid;text-decoration-color:#000000;letter-spacing:normal;word-spacing:normal;text-transform:none;writing-mode:lr-tb;direction:ltr;text-orientation:mixed;dominant-baseline:auto;baseline-shift:baseline;text-anchor:start;white-space:normal;shape-padding:0;clip-rule:nonzero;display:inline;overflow:visible;visibility:visible;opacity:1;isolation:auto;mix-blend-mode:normal;color-interpolation:sRGB;color-interpolation-filters:linearRGB;solid-color:#000000;solid-opacity:1;vector-effect:none;fill:#000000;fill-opacity:1;fill-rule:nonzero;stroke:none;stroke-width:10.74819851;stroke-linecap:butt;stroke-linejoin:miter;stroke-miterlimit:4;stroke-dasharray:none;stroke-dashoffset:0;stroke-opacity:1;color-rendering:auto;image-rendering:auto;shape-rendering:auto;text-rendering:auto;enable-background:accumulate"
       d="m 194.98242,66.99473 c -6.919,0.72541 -12.98513,3.61585 -17.85937,7.61914 -6.499,5.33773 -11.14552,12.48533 -14.6211,19.5586 -6.95116,14.14652 -9.2832,28.51171 -9.2832,28.51171 l 10.60352,1.75977 c 0,0 2.23309,-13.13104 8.32617,-25.53125 3.04654,-6.20011 7.04256,-12.08934 11.79687,-15.99414 4.75432,-3.9048 10.0003,-5.99449 17.03125,-5.20703 l 0.52149,0.0586 0.52343,-0.0449 c 0,0 1.11519,-0.18119 2.84375,1.11523 1.72857,1.29643 4.36329,4.37573 4.36329,14.15821 v 0.12109 l 0.006,0.1211 c 0,0 0.35054,7.92501 2.31054,17.40429 1.96001,9.47928 5.22176,20.78826 12.87305,28.26953 l -0.49805,-0.55859 c 0,0 5.89794,7.63828 12.73828,17.46289 6.84034,9.82461 14.62404,21.97362 18.06641,29.96484 l 0.20117,0.46485 0.2832,0.41992 c 0,0 8.01737,11.85851 18.11133,24.93945 10.09397,13.08094 21.51726,27.22455 31.67578,33.15039 l 5.41602,-9.28515 c -6.12745,-3.57437 -18.72566,-17.6586 -28.58203,-30.43164 -9.70317,-12.57451 -17.31745,-23.8109 -17.55664,-24.16407 -4.22588,-9.54751 -11.94225,-21.35689 -18.79492,-31.19921 -7.00275,-10.05787 -13.04883,-17.89063 -13.04883,-17.89063 l -0.23047,-0.29687 -0.26758,-0.26172 c -4.56318,-4.46178 -8.08717,-14.18875 -9.85937,-22.75977 -1.77235,-8.57105 -2.09975,-15.71292 -2.09975,-15.71292 l 0.004,0.24219 c 0,-11.93212 -3.87824,-19.16649 -8.66406,-22.75586 -4.68514,-3.51387 -9.82514,-3.22983 -10.04492,-3.2168 -2.15278,-0.18224 -4.26892,-0.24264 -6.28516,-0.0312 z"
       id="path7946"
       inkscape:connector-curvature="0" />
    <path
       style="color:#000000;font-style:normal;font-variant:normal;font-weight:normal;font-stretch:normal;font-size:medium;line-height:normal;font-family:sans-serif;font-variant-ligatures:normal;font-variant-position:normal;font-variant-caps:normal;font-variant-numeric:normal;font-variant-alternates:normal;font-feature-settings:normal;text-indent:0;text-align:start;text-decoration:none;text-decoration-line:none;text-decoration-style:solid;text-decoration-color:#000000;letter-spacing:normal;word-spacing:normal;text-transform:none;writing-mode:lr-tb;direction:ltr;text-orientation:mixed;dominant-baseline:auto;baseline-shift:baseline;text-anchor:start;white-space:normal;shape-padding:0;clip-rule:nonzero;display:inline;overflow:visible;visibility:visible;opacity:1;isolation:auto;mix-blend-mode:normal;color-interpolation:sRGB;color-interpolation-filters:linearRGB;solid-color:#000000;solid-opacity:1;vector-effect:none;fill:#000000;fill-opacity:1;fill-rule:nonzero;stroke:none;stroke-width:10.74819851;stroke-linecap:butt;stroke-linejoin:miter;stroke-miterlimit:4;stroke-dasharray:none;stroke-dashoffset:0;stroke-opacity:1;color-rendering:auto;image-rendering:auto;shape-rendering:auto;text-rendering:auto;enable-background:accumulate"
       d="m 271.04492,165.24083 c -1.51793,10.92907 -11.58398,16.61718 -11.58398,16.61718 l 5.15039,9.43555 c 0,0 14.75937,-7.86516 17.08008,-24.57422 z"
       id="path7948"
       inkscape:connector-curvature="0" />
    <path
       style="color:#000000;font-style:normal;font-variant:normal;font-weight:normal;font-stretch:normal;font-size:medium;line-height:normal;font-family:sans-serif;font-variant-ligatures:normal;font-variant-position:normal;font-variant-caps:normal;font-variant-numeric:normal;font-variant-alternates:normal;font-feature-settings:normal;text-indent:0;text-align:start;text-decoration:none;text-decoration-line:none;text-decoration-style:solid;text-decoration-color:#000000;letter-spacing:normal;word-spacing:normal;text-transform:none;writing-mode:lr-tb;direction:ltr;text-orientation:mixed;dominant-baseline:auto;baseline-shift:baseline;text-anchor:start;white-space:normal;shape-padding:0;clip-rule:nonzero;display:inline;overflow:visible;visibility:visible;opacity:1;isolation:auto;mix-blend-mode:normal;color-interpolation:sRGB;color-interpolation-filters:linearRGB;solid-color:#000000;solid-opacity:1;vector-effect:none;fill:#000000;fill-opacity:1;fill-rule:nonzero;stroke:none;stroke-width:10.74819851;stroke-linecap:butt;stroke-linejoin:miter;stroke-miterlimit:4;stroke-dasharray:none;stroke-dashoffset:0;stroke-opacity:1;color-rendering:auto;image-rendering:auto;shape-rendering:auto;text-rendering:auto;enable-background:accumulate"
       d="m 151.99609,137.64707 c 0,0 -0.16944,9.53855 3.58008,23.88672 3.74952,14.34817 11.42421,33.91349 27.02735,55.04688 l -0.0625,-0.0859 c 0,0 18.74763,27.33542 20.13476,50.57031 l -0.006,-0.55273 c 0,0 0.0167,1.53239 0.37891,3.37891 0.3622,1.84651 1.05513,4.6082 2.42578,8.79492 2.72533,8.32465 8.17311,22.36286 19.04492,45.66015 0.0278,0.0755 3.32434,9.02495 3.62695,19.14063 0.15195,5.07918 -0.48479,10.30165 -2.39648,14.65039 -1.91169,4.34874 -4.903,7.90953 -10.375,10.44726 l -0.19336,0.0898 -0.1875,0.10547 c 0,0 -5.32549,2.87237 -11.53906,2.56836 -6.21358,-0.30402 -13.27064,-2.77449 -18.83985,-17.50196 l -0.0957,-0.25195 -0.11914,-0.24023 c 0,0 -5.44857,-10.96519 -11.75781,-23.00391 -3.15462,-6.01936 -6.52453,-12.3089 -9.5625,-17.67383 -3.03798,-5.36493 -5.5644,-9.63517 -7.8086,-12.41797 l -8.36718,6.7461 c 1.14872,1.42441 3.88022,5.77128 6.82226,10.96679 2.94204,5.19551 6.27422,11.40957 9.39649,17.36719 6.24453,11.91525 11.65234,22.79883 11.65234,22.79883 l -0.21289,-0.49024 c 6.64527,17.57306 18.61031,23.95817 28.36719,24.43555 9.58952,0.46919 16.92332,-3.72275 17.17773,-3.86914 7.64393,-3.61298 12.7072,-9.43689 15.48242,-15.75 2.80264,-6.37547 3.48473,-13.14997 3.30078,-19.29883 -0.36788,-12.2977 -4.32421,-22.65234 -4.32421,-22.65234 l -0.0742,-0.19336 -0.0879,-0.1875 c -10.88024,-23.28746 -16.17802,-37.0402 -18.71485,-44.78906 -1.26841,-3.87443 -1.84417,-6.24715 -2.09375,-7.51953 -0.24958,-1.27238 -0.1875,-0.84375 -0.1875,-0.84375 l 0.0117,-0.27735 -0.0156,-0.27734 c -1.68373,-28.20292 -22.0918,-56.14258 -22.0918,-56.14258 l -0.0312,-0.043 -0.0312,-0.043 c -14.72209,-19.94007 -21.8255,-38.18478 -25.27344,-51.3789 -3.44794,-13.19413 -3.23437,-20.93164 -3.23437,-20.93164 z"
       id="path7950"
       inkscape:connector-curvature="0" />
    <path
       style="color:#000000;font-style:normal;font-variant:normal;font-weight:normal;font-stretch:normal;font-size:medium;line-height:normal;font-family:sans-serif;font-variant-ligatures:normal;font-variant-position:normal;font-variant-caps:normal;font-variant-numeric:normal;font-variant-alternates:normal;font-feature-settings:normal;text-indent:0;text-align:start;text-decoration:none;text-decoration-line:none;text-decoration-style:solid;text-decoration-color:#000000;letter-spacing:normal;word-spacing:normal;text-transform:none;writing-mode:lr-tb;direction:ltr;text-orientation:mixed;dominant-baseline:auto;baseline-shift:baseline;text-anchor:start;white-space:normal;shape-padding:0;clip-rule:nonzero;display:inline;overflow:visible;visibility:visible;opacity:1;isolation:auto;mix-blend-mode:normal;color-interpolation:sRGB;color-interpolation-filters:linearRGB;solid-color:#000000;solid-opacity:1;vector-effect:none;fill:#000000;fill-opacity:1;fill-rule:nonzero;stroke:none;stroke-width:10.74819851;stroke-linecap:butt;stroke-linejoin:miter;stroke-miterlimit:4;stroke-dasharray:none;stroke-dashoffset:0;stroke-opacity:1;color-rendering:auto;image-rendering:auto;shape-rendering:auto;text-rendering:auto;enable-background:accumulate"
       d="m 83.375,195.1334 c -3.306768,17.81917 9.501953,32.86914 9.501953,32.86914 l 0.08203,0.10157 0.08594,0.0996 c 9.707097,10.98436 17.460937,25.54687 17.460937,25.54687 9.66047,18.98575 36.3983,53.25391 36.3983,53.25391 l 8.43373,-6.66016 c 0,0 -27.00465,-35.21919 -35.28711,-51.5332 l -0.0195,-0.0371 -0.0195,-0.0352 c 0,0 -7.99033,-15.29542 -18.91211,-27.6543 l 0.16797,0.20118 c 0,0 -9.448441,-12.75515 -7.326173,-24.19141 z"
       id="path7952"
       inkscape:connector-curvature="0"
       sodipodi:nodetypes="cccccccccccccc" />
    <path
       style="color:#000000;font-style:normal;font-variant:normal;font-weight:normal;font-stretch:normal;font-size:medium;line-height:normal;font-family:sans-serif;font-variant-ligatures:normal;font-variant-position:normal;font-variant-caps:normal;font-variant-numeric:normal;font-variant-alternates:normal;font-feature-settings:normal;text-indent:0;text-align:start;text-decoration:none;text-decoration-line:none;text-decoration-style:solid;text-decoration-color:#000000;letter-spacing:normal;word-spacing:normal;text-transform:none;writing-mode:lr-tb;direction:ltr;text-orientation:mixed;dominant-baseline:auto;baseline-shift:baseline;text-anchor:start;white-space:normal;shape-padding:0;clip-rule:nonzero;display:inline;overflow:visible;visibility:visible;opacity:1;isolation:auto;mix-blend-mode:normal;color-interpolation:sRGB;color-interpolation-filters:linearRGB;solid-color:#000000;solid-opacity:1;vector-effect:none;fill:#000000;fill-opacity:1;fill-rule:nonzero;stroke:none;stroke-width:10.74819851;stroke-linecap:butt;stroke-linejoin:miter;stroke-miterlimit:4;stroke-dasharray:none;stroke-dashoffset:0;stroke-opacity:1;color-rendering:auto;image-rendering:auto;shape-rendering:auto;text-rendering:auto;enable-background:accumulate"
       d="m 46.15625,238.39707 c -12.112928,26.34511 9.92007,54.11475 10.404297,54.72071 5.761805,12.15435 17.690787,24.51766 28.431641,34.50195 10.992311,10.21804 20.746092,17.67188 20.746092,17.67188 l 0.17774,0.13672 0.1875,0.11914 c 11.83312,7.58057 42.64592,29.03851 43.37304,29.54492 13.66523,15.58994 27.60658,18.03852 37.40039,15.07422 9.93881,-3.00819 15.61914,-10.53125 15.61914,-10.53125 l -8.48828,-6.59375 c 0,0 -4.01266,4.9518 -10.24414,6.83789 -6.23147,1.88608 -14.67007,1.69972 -26.72265,-12.40625 l -0.44727,-0.52344 -0.56641,-0.39453 c 0,0 -31.08505,-21.67295 -43.82031,-29.85156 -0.094,-0.0719 -9.36973,-7.16981 -19.896483,-16.95508 -10.580182,-9.83494 -22.258248,-22.60732 -26.4375,-31.89453 l -0.255859,-0.56836 -0.378907,-0.49414 c 0,0 -18.02134,-24.97144 -9.316406,-43.9043 z"
       id="path7954"
       inkscape:connector-curvature="0" />
    <path
       style="color:#000000;font-style:normal;font-variant:normal;font-weight:normal;font-stretch:normal;font-size:medium;line-height:normal;font-family:sans-serif;font-variant-ligatures:normal;font-variant-position:normal;font-variant-caps:normal;font-variant-numeric:normal;font-variant-alternates:normal;font-feature-settings:normal;text-indent:0;text-align:start;text-decoration:none;text-decoration-line:none;text-decoration-style:solid;text-decoration-color:#000000;letter-spacing:normal;word-spacing:normal;text-transform:none;writing-mode:lr-tb;direction:ltr;text-orientation:mixed;dominant-baseline:auto;baseline-shift:baseline;text-anchor:start;white-space:normal;shape-padding:0;clip-rule:nonzero;display:inline;overflow:visible;visibility:visible;opacity:1;isolation:auto;mix-blend-mode:normal;color-interpolation:sRGB;color-interpolation-filters:linearRGB;solid-color:#000000;solid-opacity:1;vector-effect:none;fill:#000000;fill-opacity:1;fill-rule:nonzero;stroke:none;stroke-width:10.74819851;stroke-linecap:butt;stroke-linejoin:miter;stroke-miterlimit:4;stroke-dasharray:none;stroke-dashoffset:0;stroke-opacity:1;color-rendering:auto;image-rendering:auto;shape-rendering:auto;text-rendering:auto;enable-background:accumulate"
       d="m 218.70117,348.95567 c -5.82581,12.71086 -12.48109,16.57385 -17.52929,17.98437 -5.04821,1.41052 -8.3379,0.26368 -8.3379,0.26368 l -3.36914,10.20703 c 0,0 6.59644,2.11702 14.59961,-0.11914 8.00318,-2.23617 17.56652,-8.9301 24.40821,-23.85743 z"
       id="path7956"
       inkscape:connector-curvature="0" />
    <path
       style="color:#000000;font-style:normal;font-variant:normal;font-weight:normal;font-stretch:normal;font-size:medium;line-height:normal;font-family:sans-serif;font-variant-ligatures:normal;font-variant-position:normal;font-variant-caps:normal;font-variant-numeric:normal;font-variant-alternates:normal;font-feature-settings:normal;text-indent:0;text-align:start;text-decoration:none;text-decoration-line:none;text-decoration-style:solid;text-decoration-color:#000000;letter-spacing:normal;word-spacing:normal;text-transform:none;writing-mode:lr-tb;direction:ltr;text-orientation:mixed;dominant-baseline:auto;baseline-shift:baseline;text-anchor:start;white-space:normal;shape-padding:0;clip-rule:nonzero;display:inline;overflow:visible;visibility:visible;opacity:1;isolation:auto;mix-blend-mode:normal;color-interpolation:sRGB;color-interpolation-filters:linearRGB;solid-color:#000000;solid-opacity:1;vector-effect:none;fill:#000000;fill-opacity:1;fill-rule:nonzero;stroke:none;stroke-width:10.74819851;stroke-linecap:butt;stroke-linejoin:miter;stroke-miterlimit:4;stroke-dasharray:none;stroke-dashoffset:0;stroke-opacity:1;color-rendering:auto;image-rendering:auto;shape-rendering:auto;text-rendering:auto;enable-background:accumulate"
       d="m 199.25977,330.64512 c -3.65131,-0.046 -7.21813,0.55909 -10.47266,1.81445 -6.50907,2.51073 -11.91551,8.4544 -12.59961,16.30079 -0.6841,7.84638 2.74575,16.7508 10.74609,26.8789 l 8.4336,-6.66211 c -6.99424,-8.85441 -8.80878,-15.42799 -8.47266,-19.2832 0.33613,-3.85521 2.21312,-5.83824 5.76172,-7.20703 7.0972,-2.73758 20.30843,0.30451 26.19727,11.25391 l 9.46484,-5.0918 c -6.38401,-11.87011 -18.10467,-17.86595 -29.05859,-18.00391 z"
       id="path7958"
       inkscape:connector-curvature="0" />
    <path
       style="color:#000000;font-style:normal;font-variant:normal;font-weight:normal;font-stretch:normal;font-size:medium;line-height:normal;font-family:sans-serif;font-variant-ligatures:normal;font-variant-position:normal;font-variant-caps:normal;font-variant-numeric:normal;font-variant-alternates:normal;font-feature-settings:normal;text-indent:0;text-align:start;text-decoration:none;text-decoration-line:none;text-decoration-style:solid;text-decoration-color:#000000;letter-spacing:normal;word-spacing:normal;text-transform:none;writing-mode:lr-tb;direction:ltr;text-orientation:mixed;dominant-baseline:auto;baseline-shift:baseline;text-anchor:start;white-space:normal;shape-padding:0;clip-rule:nonzero;display:inline;overflow:visible;visibility:visible;opacity:1;isolation:auto;mix-blend-mode:normal;color-interpolation:sRGB;color-interpolation-filters:linearRGB;solid-color:#000000;solid-opacity:1;vector-effect:none;fill:#000000;fill-opacity:1;fill-rule:nonzero;stroke:none;stroke-width:10.74819851;stroke-linecap:butt;stroke-linejoin:miter;stroke-miterlimit:4;stroke-dasharray:none;stroke-dashoffset:0;stroke-opacity:1;color-rendering:auto;image-rendering:auto;shape-rendering:auto;text-rendering:auto;enable-background:accumulate"
       d="m 181.76953,355.93614 c -7.71487,-0.0132 -15.18344,3.07326 -18.58398,9.77929 -1.70028,3.35302 -1.95794,7.61827 -0.48828,11.52149 1.46965,3.90322 4.39213,7.46721 8.6914,10.83398 l 1.34961,1.05664 1.71289,0.0801 c 8.50707,0.39754 14.8236,-2.43144 18.72656,-5.50586 3.90297,-3.07441 5.75196,-6.71484 5.75196,-6.71484 l -9.63867,-4.75195 c 0,0 -0.59333,1.31382 -2.76368,3.02343 -1.92724,1.51812 -4.92957,3.01092 -9.76367,3.14844 -2.19742,-1.98894 -3.5622,-3.77355 -4.00781,-4.95703 -0.53821,-1.42942 -0.39425,-2.06476 0.0156,-2.87305 0.81975,-1.61657 4.40648,-3.9004 8.97852,-3.89258 z"
       id="path7960"
       inkscape:connector-curvature="0" />
    <path
       style="color:#000000;font-style:normal;font-variant:normal;font-weight:normal;font-stretch:normal;font-size:medium;line-height:normal;font-family:sans-serif;font-variant-ligatures:normal;font-variant-position:normal;font-variant-caps:normal;font-variant-numeric:normal;font-variant-alternates:normal;font-feature-settings:normal;text-indent:0;text-align:start;text-decoration:none;text-decoration-line:none;text-decoration-style:solid;text-decoration-color:#000000;letter-spacing:normal;word-spacing:normal;text-transform:none;writing-mode:lr-tb;direction:ltr;text-orientation:mixed;dominant-baseline:auto;baseline-shift:baseline;text-anchor:start;white-space:normal;shape-padding:0;clip-rule:nonzero;display:inline;overflow:visible;visibility:visible;opacity:1;isolation:auto;mix-blend-mode:normal;color-interpolation:sRGB;color-interpolation-filters:linearRGB;solid-color:#000000;solid-opacity:1;vector-effect:none;fill:#000000;fill-opacity:1;fill-rule:nonzero;stroke:none;stroke-width:10.74819851;stroke-linecap:butt;stroke-linejoin:miter;stroke-miterlimit:4;stroke-dasharray:none;stroke-dashoffset:0;stroke-opacity:1;color-rendering:auto;image-rendering:auto;shape-rendering:auto;text-rendering:auto;enable-background:accumulate"
       d="m 210.65234,82.03184 c 0,0 -9.68202,6.31468 -17.64062,16.96094 -7.9586,10.64625 -14.49772,26.72603 -6.99805,44.33398 l 0.0195,0.0488 0.0215,0.0469 c 0,0 1.24192,2.44118 3.55078,3.58203 2.30886,1.14085 5.50909,1.0961 8.49219,-0.1543 5.96618,-2.5008 12.98617,-8.84649 25.02734,-25.29297 l -8.67383,-6.34961 c -10.37498,14.1707 -16.77144,19.485 -19.50195,21.09571 -3.98776,-12.23526 0.46758,-22.57811 6.66992,-30.875 6.67623,-8.93082 14.93945,-14.41797 14.93945,-14.41797 z"
       id="path7962"
       inkscape:connector-curvature="0" />
    <path
       style="color:#000000;font-style:normal;font-variant:normal;font-weight:normal;font-stretch:normal;font-size:medium;line-height:normal;font-family:sans-serif;font-variant-ligatures:normal;font-variant-position:normal;font-variant-caps:normal;font-variant-numeric:normal;font-variant-alternates:normal;font-feature-settings:normal;text-indent:0;text-align:start;text-decoration:none;text-decoration-line:none;text-decoration-style:solid;text-decoration-color:#000000;letter-spacing:normal;word-spacing:normal;text-transform:none;writing-mode:lr-tb;direction:ltr;text-orientation:mixed;dominant-baseline:auto;baseline-shift:baseline;text-anchor:start;white-space:normal;shape-padding:0;clip-rule:nonzero;display:inline;overflow:visible;visibility:visible;opacity:1;isolation:auto;mix-blend-mode:normal;color-interpolation:sRGB;color-interpolation-filters:linearRGB;solid-color:#000000;solid-opacity:1;vector-effect:none;fill:#000000;fill-opacity:1;fill-rule:nonzero;stroke:none;stroke-width:10.74819851;stroke-linecap:butt;stroke-linejoin:miter;stroke-miterlimit:4;stroke-dasharray:none;stroke-dashoffset:0;stroke-opacity:1;color-rendering:auto;image-rendering:auto;shape-rendering:auto;text-rendering:auto;enable-background:accumulate"
       d="m 208.67578,244.47325 -9.58789,4.85547 c 5.85056,11.55481 12.36078,30.66704 21.72656,47.65234 9.36579,16.9853 22.11653,32.6961 41.38282,35.35351 l 1.46875,-10.64648 c -14.12995,-1.94895 -24.71996,-14.08326 -33.43946,-29.89648 -8.71949,-15.81323 -15.03687,-34.45343 -21.55078,-47.31836 z"
       id="path7964"
       inkscape:connector-curvature="0" />
    <path
       style="color:#000000;font-style:normal;font-variant:normal;font-weight:normal;font-stretch:normal;font-size:medium;line-height:normal;font-family:sans-serif;font-variant-ligatures:normal;font-variant-position:normal;font-variant-caps:normal;font-variant-numeric:normal;font-variant-alternates:normal;font-feature-settings:normal;text-indent:0;text-align:start;text-decoration:none;text-decoration-line:none;text-decoration-style:solid;text-decoration-color:#000000;letter-spacing:normal;word-spacing:normal;text-transform:none;writing-mode:lr-tb;direction:ltr;text-orientation:mixed;dominant-baseline:auto;baseline-shift:baseline;text-anchor:start;white-space:normal;shape-padding:0;clip-rule:nonzero;display:inline;overflow:visible;visibility:visible;opacity:1;isolation:auto;mix-blend-mode:normal;color-interpolation:sRGB;color-interpolation-filters:linearRGB;solid-color:#000000;solid-opacity:1;vector-effect:none;fill:#000000;fill-opacity:1;fill-rule:nonzero;stroke:none;stroke-width:10.74819851;stroke-linecap:butt;stroke-linejoin:miter;stroke-miterlimit:4;stroke-dasharray:none;stroke-dashoffset:0;stroke-opacity:1;color-rendering:auto;image-rendering:auto;shape-rendering:auto;text-rendering:auto;enable-background:accumulate"
       d="m 108.69141,-7.06582 c -0.63159,3.78947 -6.74962,10.40943 -13.429691,15.10352 -6.680067,4.69409 -13.146485,7.80273 -13.146485,7.80273 l 4.640625,9.69532 c 0,0 7.162624,-3.41676 14.685551,-8.70313 7.52292,-5.28637 16.18189,-12.1012 17.85351,-22.13086 z"
       id="path7966"
       inkscape:connector-curvature="0" />
    <path
       style="color:#000000;font-style:normal;font-variant:normal;font-weight:normal;font-stretch:normal;font-size:medium;line-height:normal;font-family:sans-serif;font-variant-ligatures:normal;font-variant-position:normal;font-variant-caps:normal;font-variant-numeric:normal;font-variant-alternates:normal;font-feature-settings:normal;text-indent:0;text-align:start;text-decoration:none;text-decoration-line:none;text-decoration-style:solid;text-decoration-color:#000000;letter-spacing:normal;word-spacing:normal;text-transform:none;writing-mode:lr-tb;direction:ltr;text-orientation:mixed;dominant-baseline:auto;baseline-shift:baseline;text-anchor:start;white-space:normal;shape-padding:0;clip-rule:nonzero;display:inline;overflow:visible;visibility:visible;opacity:1;isolation:auto;mix-blend-mode:normal;color-interpolation:sRGB;color-interpolation-filters:linearRGB;solid-color:#000000;solid-opacity:1;vector-effect:none;fill:#000000;fill-opacity:1;fill-rule:nonzero;stroke:none;stroke-width:10.74819851;stroke-linecap:butt;stroke-linejoin:miter;stroke-miterlimit:4;stroke-dasharray:none;stroke-dashoffset:0;stroke-opacity:1;color-rendering:auto;image-rendering:auto;shape-rendering:auto;text-rendering:auto;enable-background:accumulate"
       d="m 176.80078,55.02793 c -9.75283,18.46067 -28.55664,27.17383 -28.55664,27.17383 l 4.43359,9.79102 c 0,0 21.88335,-9.71447 33.62696,-31.94336 z"
       id="path7968"
       inkscape:connector-curvature="0" />
    <path
       style="color:#000000;font-style:normal;font-variant:normal;font-weight:normal;font-stretch:normal;font-size:medium;line-height:normal;font-family:sans-serif;font-variant-ligatures:normal;font-variant-position:normal;font-variant-caps:normal;font-variant-numeric:normal;font-variant-alternates:normal;font-feature-settings:normal;text-indent:0;text-align:start;text-decoration:none;text-decoration-line:none;text-decoration-style:solid;text-decoration-color:#000000;letter-spacing:normal;word-spacing:normal;text-transform:none;writing-mode:lr-tb;direction:ltr;text-orientation:mixed;dominant-baseline:auto;baseline-shift:baseline;text-anchor:start;white-space:normal;shape-padding:0;clip-rule:nonzero;display:inline;overflow:visible;visibility:visible;opacity:1;isolation:auto;mix-blend-mode:normal;color-interpolation:sRGB;color-interpolation-filters:linearRGB;solid-color:#000000;solid-opacity:1;vector-effect:none;fill:#000000;fill-opacity:1;fill-rule:nonzero;stroke:none;stroke-width:33.83809662;stroke-linecap:butt;stroke-linejoin:miter;stroke-miterlimit:4;stroke-dasharray:none;stroke-dashoffset:0;stroke-opacity:1;color-rendering:auto;image-rendering:auto;shape-rendering:auto;text-rendering:auto;enable-background:accumulate"
       d="m 658.40039,-217.12441 c -130.39879,-0.0382 -219.97914,52.31605 -271.50391,130.63867 -51.52922,78.3294 -65.90668,180.61055 -54.64453,281.85352 11.26215,101.24297 48.21365,201.89513 102.76758,278.33398 54.55393,76.43885 128.00356,129.68713 211.54492,129.18946 83.50197,-0.49745 156.3504,-54.30517 210.58203,-131.00196 C 911.37812,395.19248 948.25936,294.57993 960.50781,193.58848 972.75627,92.59703 960.48958,-9.1443 912.9043,-87.16347 865.32365,-165.17504 781.01022,-217.56551 658.40039,-217.12441 Z m 0.0215,33.83789 h 0.0332 0.0352 c 113.23939,-0.41687 183.47608,44.79959 225.52539,113.74219 42.04932,68.94259 54.48807,163.51546 42.9004,259.05859 -11.58767,95.54313 -47.08653,191.6865 -97.39844,262.83985 C 779.20567,523.50745 715.34898,568.64236 646.36328,569.05333 577.41694,569.46405 513.11185,524.87331 462.5625,454.04551 412.01315,383.21772 376.51186,287.17714 365.88281,191.62559 355.25377,96.07404 369.54667,1.45774 415.16602,-67.88808 460.78536,-137.2339 536.82301,-183.33055 658.42188,-183.28652 Z"
       id="path10-9-9-0-9"
       inkscape:connector-curvature="0" />
    <path
       style="color:#000000;font-style:normal;font-variant:normal;font-weight:normal;font-stretch:normal;font-size:medium;line-height:normal;font-family:sans-serif;font-variant-ligatures:normal;font-variant-position:normal;font-variant-caps:normal;font-variant-numeric:normal;font-variant-alternates:normal;font-feature-settings:normal;text-indent:0;text-align:start;text-decoration:none;text-decoration-line:none;text-decoration-style:solid;text-decoration-color:#000000;letter-spacing:normal;word-spacing:normal;text-transform:none;writing-mode:lr-tb;direction:ltr;text-orientation:mixed;dominant-baseline:auto;baseline-shift:baseline;text-anchor:start;white-space:normal;shape-padding:0;clip-rule:nonzero;display:inline;overflow:visible;visibility:visible;opacity:1;isolation:auto;mix-blend-mode:normal;color-interpolation:sRGB;color-interpolation-filters:linearRGB;solid-color:#000000;solid-opacity:1;vector-effect:none;fill:#000000;fill-opacity:1;fill-rule:nonzero;stroke:none;stroke-width:16.91904831;stroke-linecap:butt;stroke-linejoin:miter;stroke-miterlimit:4;stroke-dasharray:none;stroke-dashoffset:0;stroke-opacity:1;color-rendering:auto;image-rendering:auto;shape-rendering:auto;text-rendering:auto;enable-background:accumulate"
       d="m 640.29883,190.40684 c 0,0 -1.90789,18.83204 -5.06445,38.61328 -1.57829,9.89062 -3.47848,20.01929 -5.52149,27.88867 -1.0215,3.93469 -2.0925,7.31266 -3.05078,9.64258 -0.95368,2.31874 -2.17688,3.531 -1.3125,2.8125 -1.87099,1.55865 -3.85036,2.86037 -4.88672,7.00586 -0.51856,2.07428 -0.2206,5.16448 1.10352,7.32227 1.32411,2.15778 3.04391,3.21357 4.3457,3.82617 5.20716,2.4504 7.88138,1.5098 11.42187,1.26562 7.08099,-0.48835 14.75,-2.0664 14.75,-2.0664 l -3.31836,-16.58985 c 0,0 -2.65314,0.461 -5.84374,0.94141 1.13933,-3.03741 2.2096,-6.22425 3.16601,-9.9082 2.28311,-8.79423 4.22727,-19.28343 5.85352,-29.47461 3.25248,-20.38236 5.1914,-39.57617 5.1914,-39.57617 z"
       id="path971-3-7-5"
       inkscape:connector-curvature="0" />
    <path
       style="color:#000000;font-style:normal;font-variant:normal;font-weight:normal;font-stretch:normal;font-size:medium;line-height:normal;font-family:sans-serif;font-variant-ligatures:normal;font-variant-position:normal;font-variant-caps:normal;font-variant-numeric:normal;font-variant-alternates:normal;font-feature-settings:normal;text-indent:0;text-align:start;text-decoration:none;text-decoration-line:none;text-decoration-style:solid;text-decoration-color:#000000;letter-spacing:normal;word-spacing:normal;text-transform:none;writing-mode:lr-tb;direction:ltr;text-orientation:mixed;dominant-baseline:auto;baseline-shift:baseline;text-anchor:start;white-space:normal;shape-padding:0;clip-rule:nonzero;display:inline;overflow:visible;visibility:visible;opacity:1;isolation:auto;mix-blend-mode:normal;color-interpolation:sRGB;color-interpolation-filters:linearRGB;solid-color:#000000;solid-opacity:1;vector-effect:none;fill:#000000;fill-opacity:1;fill-rule:nonzero;stroke:none;stroke-width:11.26841545;stroke-linecap:butt;stroke-linejoin:miter;stroke-miterlimit:4;stroke-dasharray:none;stroke-dashoffset:0;stroke-opacity:1;color-rendering:auto;image-rendering:auto;shape-rendering:auto;text-rendering:auto;enable-background:accumulate"
       d="M 307.00391,441.16661 289.75,576.63536 l 34.47852,-23.85352 175.73046,229.63481 4.52735,-3.9493 16.43555,-14.3359 -125.98243,-257.85938 29.13282,-20.61523 z m 9.36914,15.61523 83.92187,31.89453 -19.6875,13.93164 126.39844,258.70894 -5.39844,4.709 -174.95703,-228.62106 -22.5293,15.58594 z"
       id="path8546"
       inkscape:connector-curvature="0" />
    <path
       inkscape:connector-curvature="0"
       id="path29-0"
       d="M 764.32849,362.77449 C 699.97348,426.12876 644.57113,428.6431 602.29058,415.28905 581.15031,408.6121 563.32075,397.63048 550.06766,387.54245 536.81454,377.45417 528.515,368.64978 525.04168,365.20871 l -11.89735,12.01086 c 2.67674,2.65196 12.33541,12.85079 26.68567,23.77413 14.35048,10.92332 33.7714,22.96225 57.37023,30.41577 47.19742,14.90692 111.22752,10.11781 178.9868,-56.58791 z"
       style="color:#000000;font-style:normal;font-variant:normal;font-weight:normal;font-stretch:normal;font-size:medium;line-height:normal;font-family:sans-serif;font-variant-ligatures:normal;font-variant-position:normal;font-variant-caps:normal;font-variant-numeric:normal;font-variant-alternates:normal;font-feature-settings:normal;text-indent:0;text-align:start;text-decoration:none;text-decoration-line:none;text-decoration-style:solid;text-decoration-color:#000000;letter-spacing:normal;word-spacing:normal;text-transform:none;writing-mode:lr-tb;direction:ltr;text-orientation:mixed;dominant-baseline:auto;baseline-shift:baseline;text-anchor:start;white-space:normal;shape-padding:0;clip-rule:nonzero;display:inline;overflow:visible;visibility:visible;opacity:1;isolation:auto;mix-blend-mode:normal;color-interpolation:sRGB;color-interpolation-filters:linearRGB;solid-color:#000000;solid-opacity:1;vector-effect:none;fill:#000000;fill-opacity:1;fill-rule:nonzero;stroke:none;stroke-width:16.9052372;stroke-linecap:butt;stroke-linejoin:miter;stroke-miterlimit:4;stroke-dasharray:none;stroke-dashoffset:0;stroke-opacity:1;color-rendering:auto;image-rendering:auto;shape-rendering:auto;text-rendering:auto;enable-background:accumulate" />
    <path
       inkscape:connector-curvature="0"
       id="path87-4"
       d="m 534.21828,52.48808 c -16.78142,0.16024 -30.35162,6.90566 -39.09173,17.00073 -8.76353,10.12222 -12.84127,23.187 -12.72335,36.05081 0.11803,12.86391 4.42584,25.77061 13.29643,35.58627 8.84106,9.78294 22.41261,16.04661 38.83619,15.53975 16.12279,-0.0374 29.23873,-6.8792 37.56613,-16.98524 8.35013,-10.13375 12.18931,-23.11459 12.10637,-35.91151 -0.0826,-12.79691 -4.0817,-25.65336 -12.52204,-35.53714 -8.41838,-9.8582 -21.58241,-16.29197 -37.468,-15.74367 z m 0.50076,16.88712 c 11.33616,-0.41702 18.73241,3.53815 24.10955,9.83488 5.37734,6.29684 8.41441,15.39105 8.47461,24.66983 0.0601,9.27879 -2.85158,18.50078 -8.24738,25.04929 -5.3958,6.54828 -12.98036,10.84423 -24.64652,10.84423 h -0.14202 l -0.14192,0.0113 c -12.13375,0.40763 -20.18547,-3.68268 -25.88297,-9.98722 -5.69762,-6.30429 -8.85012,-15.25942 -8.93398,-24.40648 -0.0838,-9.14684 2.89482,-18.24184 8.59832,-24.82975 5.70361,-6.5879 13.96944,-11.0812 26.56448,-11.17466 l 0.1238,-0.0113 z"
       style="color:#000000;font-style:normal;font-variant:normal;font-weight:normal;font-stretch:normal;font-size:medium;line-height:normal;font-family:sans-serif;font-variant-ligatures:normal;font-variant-position:normal;font-variant-caps:normal;font-variant-numeric:normal;font-variant-alternates:normal;font-feature-settings:normal;text-indent:0;text-align:start;text-decoration:none;text-decoration-line:none;text-decoration-style:solid;text-decoration-color:#000000;letter-spacing:normal;word-spacing:normal;text-transform:none;writing-mode:lr-tb;direction:ltr;text-orientation:mixed;dominant-baseline:auto;baseline-shift:baseline;text-anchor:start;white-space:normal;shape-padding:0;clip-rule:nonzero;display:inline;overflow:visible;visibility:visible;opacity:1;isolation:auto;mix-blend-mode:normal;color-interpolation:sRGB;color-interpolation-filters:linearRGB;solid-color:#000000;solid-opacity:1;vector-effect:none;fill:#000000;fill-opacity:1;fill-rule:nonzero;stroke:none;stroke-width:16.9052372;stroke-linecap:butt;stroke-linejoin:miter;stroke-miterlimit:4;stroke-dasharray:none;stroke-dashoffset:0;stroke-opacity:1;color-rendering:auto;image-rendering:auto;shape-rendering:auto;text-rendering:auto;enable-background:accumulate" />
    <path
       inkscape:connector-curvature="0"
       id="path59-4"
       d="m 533.49038,20.34277 c -31.74842,0.8482 -62.05964,16.15832 -98.82362,43.462 l 10.08001,13.57246 c 35.61364,-26.44916 62.61042,-39.42421 89.19526,-40.13443 26.58486,-0.71014 54.45075,10.75301 92.02966,36.87432 l 9.64906,-13.88243 C 596.72888,33.2008 565.2387,19.49481 533.49038,20.34277 Z"
       style="color:#000000;font-style:normal;font-variant:normal;font-weight:normal;font-stretch:normal;font-size:medium;line-height:normal;font-family:sans-serif;font-variant-ligatures:normal;font-variant-position:normal;font-variant-caps:normal;font-variant-numeric:normal;font-variant-alternates:normal;font-feature-settings:normal;text-indent:0;text-align:start;text-decoration:none;text-decoration-line:none;text-decoration-style:solid;text-decoration-color:#000000;letter-spacing:normal;word-spacing:normal;text-transform:none;writing-mode:lr-tb;direction:ltr;text-orientation:mixed;dominant-baseline:auto;baseline-shift:baseline;text-anchor:start;white-space:normal;shape-padding:0;clip-rule:nonzero;display:inline;overflow:visible;visibility:visible;opacity:1;isolation:auto;mix-blend-mode:normal;color-interpolation:sRGB;color-interpolation-filters:linearRGB;solid-color:#000000;solid-opacity:1;vector-effect:none;fill:#000000;fill-opacity:1;fill-rule:nonzero;stroke:none;stroke-width:16.9052372;stroke-linecap:butt;stroke-linejoin:miter;stroke-miterlimit:4;stroke-dasharray:none;stroke-dashoffset:0;stroke-opacity:1;color-rendering:auto;image-rendering:auto;shape-rendering:auto;text-rendering:auto;enable-background:accumulate" />
    <path
       inkscape:connector-curvature="0"
       id="path87-1-31"
       d="m 763.75022,50.07716 c -16.78143,0.16013 -30.35162,6.90817 -39.09173,17.00323 -8.76354,10.12233 -12.8414,23.18452 -12.72336,36.04821 0.11803,12.86403 4.42585,25.77073 13.29643,35.58638 8.84389,9.78611 22.42075,16.05103 38.8517,15.53963 16.11531,-0.0419 29.22605,-6.88259 37.55062,-16.98512 8.35013,-10.13388 12.18683,-23.11198 12.10377,-35.90901 -0.0826,-12.79692 -4.0816,-25.65598 -12.52204,-35.53975 -8.41804,-9.85752 -21.58106,-16.29107 -37.46539,-15.74357 z m 0.50075,16.88712 c 11.33606,-0.41702 18.73242,3.53805 24.10966,9.8349 5.37724,6.29671 8.41171,15.39092 8.47192,24.66983 0.0599,9.27867 -2.84899,18.50076 -8.2448,25.04917 -5.3958,6.5484 -12.98025,10.8467 -24.64651,10.8467 h -0.14203 l -0.14192,0.0113 c -12.13375,0.40764 -20.18547,-3.68256 -25.88309,-9.9871 -5.69738,-6.30452 -8.84999,-15.25965 -8.93385,-24.40659 -0.0837,-9.14684 2.89469,-18.24185 8.59831,-24.82964 5.70362,-6.588 13.96955,-11.08131 26.56459,-11.17467 h 0.12381 z"
       style="color:#000000;font-style:normal;font-variant:normal;font-weight:normal;font-stretch:normal;font-size:medium;line-height:normal;font-family:sans-serif;font-variant-ligatures:normal;font-variant-position:normal;font-variant-caps:normal;font-variant-numeric:normal;font-variant-alternates:normal;font-feature-settings:normal;text-indent:0;text-align:start;text-decoration:none;text-decoration-line:none;text-decoration-style:solid;text-decoration-color:#000000;letter-spacing:normal;word-spacing:normal;text-transform:none;writing-mode:lr-tb;direction:ltr;text-orientation:mixed;dominant-baseline:auto;baseline-shift:baseline;text-anchor:start;white-space:normal;shape-padding:0;clip-rule:nonzero;display:inline;overflow:visible;visibility:visible;opacity:1;isolation:auto;mix-blend-mode:normal;color-interpolation:sRGB;color-interpolation-filters:linearRGB;solid-color:#000000;solid-opacity:1;vector-effect:none;fill:#000000;fill-opacity:1;fill-rule:nonzero;stroke:none;stroke-width:16.9052372;stroke-linecap:butt;stroke-linejoin:miter;stroke-miterlimit:4;stroke-dasharray:none;stroke-dashoffset:0;stroke-opacity:1;color-rendering:auto;image-rendering:auto;shape-rendering:auto;text-rendering:auto;enable-background:accumulate" />
    <path
       inkscape:connector-curvature="0"
       id="path59-1-31"
       d="m 764.94525,18.25971 c -31.68133,0.0645 -62.68873,14.56663 -100.78278,43.15984 l 10.14974,13.52097 c 36.77156,-27.60053 64.11791,-39.72172 90.66937,-39.7757 26.55123,-0.0532 53.99343,12.068 90.64075,36.62128 l 9.41152,-14.04233 C 827.29664,32.46013 796.6268,18.19531 764.94525,18.25971 Z"
       style="color:#000000;font-style:normal;font-variant:normal;font-weight:normal;font-stretch:normal;font-size:medium;line-height:normal;font-family:sans-serif;font-variant-ligatures:normal;font-variant-position:normal;font-variant-caps:normal;font-variant-numeric:normal;font-variant-alternates:normal;font-feature-settings:normal;text-indent:0;text-align:start;text-decoration:none;text-decoration-line:none;text-decoration-style:solid;text-decoration-color:#000000;letter-spacing:normal;word-spacing:normal;text-transform:none;writing-mode:lr-tb;direction:ltr;text-orientation:mixed;dominant-baseline:auto;baseline-shift:baseline;text-anchor:start;white-space:normal;shape-padding:0;clip-rule:nonzero;display:inline;overflow:visible;visibility:visible;opacity:1;isolation:auto;mix-blend-mode:normal;color-interpolation:sRGB;color-interpolation-filters:linearRGB;solid-color:#000000;solid-opacity:1;vector-effect:none;fill:#000000;fill-opacity:1;fill-rule:nonzero;stroke:none;stroke-width:16.9052372;stroke-linecap:butt;stroke-linejoin:miter;stroke-miterlimit:4;stroke-dasharray:none;stroke-dashoffset:0;stroke-opacity:1;color-rendering:auto;image-rendering:auto;shape-rendering:auto;text-rendering:auto;enable-background:accumulate" />
    <path
       style="font-style:normal;font-weight:normal;font-size:233.33332825px;line-height:1.25;font-family:sans-serif;letter-spacing:0px;word-spacing:0px;fill:#000000;fill-opacity:1;stroke:none"
       d="m 420,862.77008 v 17.31835 h 22.21679 V 1015.0982 H 420 v 17.3185 h 66.99219 v -17.3185 h -22.2168 V 880.08843 h 22.2168 v -17.31835 z m 103.90625,42.38281 v 127.26371 h 21.41992 v -90.34965 c 5.69661,-4.63325 11.62109,-8.39301 17.77344,-11.2793 6.15234,-2.96224 12.53255,-4.44336 19.14062,-4.44336 4.10156,0 7.63347,0.19054 10.5957,0.57032 3.0382,0.30382 6.1517,0.83615 9.3418,1.5957 h 1.13867 v -21.99023 c -3.34201,-0.53169 -5.84852,-0.87349 -7.51953,-1.0254 -1.671,-0.22786 -4.3661,-0.34179 -8.08789,-0.34179 -6.75998,0 -13.40733,1.44379 -19.93945,4.33008 -6.45616,2.81033 -13.93642,7.63281 -22.44336,14.46875 v -18.79883 z"
       id="text6875"
       inkscape:connector-curvature="0" />
  </g>
</svg>
