<?xml version="1.0" encoding="UTF-8" standalone="no"?>
<!-- Created with Inkscape (http://www.inkscape.org/) -->

<svg
   xmlns:dc="http://purl.org/dc/elements/1.1/"
   xmlns:cc="http://creativecommons.org/ns#"
   xmlns:rdf="http://www.w3.org/1999/02/22-rdf-syntax-ns#"
   xmlns:svg="http://www.w3.org/2000/svg"
   xmlns="http://www.w3.org/2000/svg"
   xmlns:sodipodi="http://sodipodi.sourceforge.net/DTD/sodipodi-0.dtd"
   xmlns:inkscape="http://www.inkscape.org/namespaces/inkscape"
   width="1000"
   height="1250"
   viewBox="0 0 1000 1250"
   version="1.1"
   id="svg31668"
   inkscape:version="0.92.4 (5da689c313, 2019-01-14)"
   sodipodi:docname="Mandar.svg">
  <defs
     id="defs31662" />
  <sodipodi:namedview
     id="base"
     pagecolor="#ffffff"
     bordercolor="#666666"
     borderopacity="1.0"
     inkscape:pageopacity="0.0"
     inkscape:pageshadow="2"
     inkscape:zoom="0.70710678"
     inkscape:cx="588.92685"
     inkscape:cy="620.55504"
     inkscape:document-units="px"
     inkscape:current-layer="layer1"
     showgrid="false"
     units="px"
     inkscape:window-width="681"
     inkscape:window-height="706"
     inkscape:window-x="-7"
     inkscape:window-y="0"
     inkscape:window-maximized="0" />
  <metadata
     id="metadata31665">
    <rdf:RDF>
      <cc:Work
         rdf:about="">
        <dc:format>image/svg+xml</dc:format>
        <dc:type
           rdf:resource="http://purl.org/dc/dcmitype/StillImage" />
        <dc:title></dc:title>
      </cc:Work>
    </rdf:RDF>
  </metadata>
  <g
     inkscape:label="Camada 1"
     inkscape:groupmode="layer"
     id="layer1"
     transform="translate(0,217.58335)">
    <path
       style="color:#000000;font-style:normal;font-variant:normal;font-weight:normal;font-stretch:normal;font-size:medium;line-height:normal;font-family:sans-serif;font-variant-ligatures:normal;font-variant-position:normal;font-variant-caps:normal;font-variant-numeric:normal;font-variant-alternates:normal;font-feature-settings:normal;text-indent:0;text-align:start;text-decoration:none;text-decoration-line:none;text-decoration-style:solid;text-decoration-color:#000000;letter-spacing:normal;word-spacing:normal;text-transform:none;writing-mode:lr-tb;direction:ltr;text-orientation:mixed;dominant-baseline:auto;baseline-shift:baseline;text-anchor:start;white-space:normal;shape-padding:0;clip-rule:nonzero;display:inline;overflow:visible;visibility:visible;opacity:1;isolation:auto;mix-blend-mode:normal;color-interpolation:sRGB;color-interpolation-filters:linearRGB;solid-color:#000000;solid-opacity:1;vector-effect:none;fill:#000000;fill-opacity:1;fill-rule:nonzero;stroke:none;stroke-width:25.69096375;stroke-linecap:butt;stroke-linejoin:miter;stroke-miterlimit:4;stroke-dasharray:none;stroke-dashoffset:0;stroke-opacity:1;color-rendering:auto;image-rendering:auto;shape-rendering:auto;text-rendering:auto;enable-background:accumulate"
       d="m 250.58844,-217.14207 c -74.8812,-0.0159 -132.11288,22.43566 -172.405676,59.42897 C 37.87998,-120.71059 14.835189,-69.856535 5.3976823,-14.546505 -13.477333,96.073595 20.546285,225.53096 84.28414,311.86382 c 1.789457,2.42383 5.228073,7.06022 5.228073,7.06022 1.69016,-4.87593 2.958943,-9.79555 4.404521,-14.91315 l 187.167446,80.14499 c -2.96,4.96836 -15.30874,7.55877 -27.14207,20.62688 78.15231,-11.97915 120.81135,-55.45939 158.37296,-114.98266 37.56098,-59.52314 62.34502,-134.59531 69.13948,-208.943315 6.79445,-74.3479897 -4.32596,-148.26739 -40.94874,-204.620535 -36.61538,-56.34175 -99.5875,-93.69546 -189.86454,-93.37832 z m 0.0358,25.69092 h 0.0272 0.0272 c 83.3915,-0.30696 136.02403,32.03086 168.29403,81.68623 32.27006,49.655355 43.31721,118.0553253 36.89879,188.288595 -6.41844,70.233265 -30.22604,142.012755 -65.2838,197.568305 -35.05783,55.55551 -49.76416,76.35448 -87.86605,90.61132 -6.89521,7.21132 -18.8901,14.95874 -21.63739,17.45258 L 93.916683,304.01089 98.482907,289.66961 C 39.537682,209.83112 13.293,91.903245 30.71883,-10.223615 c 8.712909,-51.06341 29.575176,-96.196745 64.834807,-128.569045 35.259623,-32.37232 85.226453,-52.68372 155.070003,-52.65849 z"
       id="path10-9-5"
       inkscape:connector-curvature="0"
       sodipodi:nodetypes="cssccccccsscccccsssccccsscc" />
    <path
       style="color:#000000;font-style:normal;font-variant:normal;font-weight:normal;font-stretch:normal;font-size:medium;line-height:normal;font-family:sans-serif;font-variant-ligatures:normal;font-variant-position:normal;font-variant-caps:normal;font-variant-numeric:normal;font-variant-alternates:normal;font-feature-settings:normal;text-indent:0;text-align:start;text-decoration:none;text-decoration-line:none;text-decoration-style:solid;text-decoration-color:#000000;letter-spacing:normal;word-spacing:normal;text-transform:none;writing-mode:lr-tb;direction:ltr;text-orientation:mixed;dominant-baseline:auto;baseline-shift:baseline;text-anchor:start;white-space:normal;shape-padding:0;clip-rule:nonzero;display:inline;overflow:visible;visibility:visible;opacity:1;isolation:auto;mix-blend-mode:normal;color-interpolation:sRGB;color-interpolation-filters:linearRGB;solid-color:#000000;solid-opacity:1;vector-effect:none;fill:#000000;fill-opacity:1;fill-rule:nonzero;stroke:none;stroke-width:12.84548187;stroke-linecap:butt;stroke-linejoin:miter;stroke-miterlimit:4;stroke-dasharray:none;stroke-dashoffset:0;stroke-opacity:1;color-rendering:auto;image-rendering:auto;shape-rendering:auto;text-rendering:auto;enable-background:accumulate"
       d="m 156.26562,-12.581115 c -12.74589,0.12466 -23.05235,5.2496303 -29.6914,12.91796033 -6.65902,7.69139997 -9.75763,17.61794967 -9.66797,27.39257967 0.0897,9.77463 3.36317,19.58257 10.10352,27.04102 6.7198,7.43571 17.03523,12.1949 29.51953,11.80664 12.24553,-0.0318 22.20966,-5.22964 28.53515,-12.90625 6.34492,-7.7002 9.26032,-17.56334 9.19727,-27.28711 -0.0631,-9.72378 -3.10216,-19.4917697 -9.51563,-27.00194967 C 178.34744,-8.1110747 168.34107,-13.001065 156.26562,-12.581115 Z m 0.39258,12.83007033 c 8.61377,-0.31687 14.23443,2.69002997 18.32032,7.47460997 4.08588,4.7845897 6.39178,11.6936597 6.4375,18.7441397 0.0457,7.05049 -2.16559,14.05739 -6.26563,19.03321 -4.10004,4.97581 -9.8639,8.24218 -18.72851,8.24218 h -0.10743 l -0.10742,0.002 c -9.21987,0.30972 -15.33872,-2.79742 -19.66797,-7.58789 -4.32924,-4.79048 -6.72531,-11.59462 -6.78906,-18.54493 -0.0637,-6.9503 2.20128,-13.8614 6.53516,-18.8671797 4.33387,-5.00579 10.6152,-8.42130997 20.18554,-8.49218997 h 0.0937 z"
       id="path87-7"
       inkscape:connector-curvature="0" />
    <path
       style="color:#000000;font-style:normal;font-variant:normal;font-weight:normal;font-stretch:normal;font-size:medium;line-height:normal;font-family:sans-serif;font-variant-ligatures:normal;font-variant-position:normal;font-variant-caps:normal;font-variant-numeric:normal;font-variant-alternates:normal;font-feature-settings:normal;text-indent:0;text-align:start;text-decoration:none;text-decoration-line:none;text-decoration-style:solid;text-decoration-color:#000000;letter-spacing:normal;word-spacing:normal;text-transform:none;writing-mode:lr-tb;direction:ltr;text-orientation:mixed;dominant-baseline:auto;baseline-shift:baseline;text-anchor:start;white-space:normal;shape-padding:0;clip-rule:nonzero;display:inline;overflow:visible;visibility:visible;opacity:1;isolation:auto;mix-blend-mode:normal;color-interpolation:sRGB;color-interpolation-filters:linearRGB;solid-color:#000000;solid-opacity:1;vector-effect:none;fill:#000000;fill-opacity:1;fill-rule:nonzero;stroke:none;stroke-width:12.84548187;stroke-linecap:butt;stroke-linejoin:miter;stroke-miterlimit:4;stroke-dasharray:none;stroke-dashoffset:0;stroke-opacity:1;color-rendering:auto;image-rendering:auto;shape-rendering:auto;text-rendering:auto;enable-background:accumulate"
       d="m 155.72214,-37.038345 c -24.12403,0.64444 -47.15651,12.27817 -75.091783,33.0248803 l 7.659737,10.31863 C 115.3513,-13.792395 135.86497,-23.653295 156.06556,-24.192875 c 20.20052,-0.53962 32.76376,3.31201 57.05864,19.5396603 l 2.26062,-12.8117703 c -22.9496,-16.49517 -35.5386,-20.21779 -59.66268,-19.57336 z"
       id="path59-19"
       inkscape:connector-curvature="0"
       sodipodi:nodetypes="sccsccs" />
    <path
       style="color:#000000;font-style:normal;font-variant:normal;font-weight:normal;font-stretch:normal;font-size:medium;line-height:normal;font-family:sans-serif;font-variant-ligatures:normal;font-variant-position:normal;font-variant-caps:normal;font-variant-numeric:normal;font-variant-alternates:normal;font-feature-settings:normal;text-indent:0;text-align:start;text-decoration:none;text-decoration-line:none;text-decoration-style:solid;text-decoration-color:#000000;letter-spacing:normal;word-spacing:normal;text-transform:none;writing-mode:lr-tb;direction:ltr;text-orientation:mixed;dominant-baseline:auto;baseline-shift:baseline;text-anchor:start;white-space:normal;shape-padding:0;clip-rule:nonzero;display:inline;overflow:visible;visibility:visible;opacity:1;isolation:auto;mix-blend-mode:normal;color-interpolation:sRGB;color-interpolation-filters:linearRGB;solid-color:#000000;solid-opacity:1;vector-effect:none;fill:#000000;fill-opacity:1;fill-rule:nonzero;stroke:none;stroke-width:12.84548187;stroke-linecap:butt;stroke-linejoin:miter;stroke-miterlimit:4;stroke-dasharray:none;stroke-dashoffset:0;stroke-opacity:1;color-rendering:auto;image-rendering:auto;shape-rendering:auto;text-rendering:auto;enable-background:accumulate"
       d="m 330.6875,-14.413155 c -12.75162,0.12144 -23.06192,5.2471503 -29.70312,12.9179703 -6.65902,7.69139 -9.75763,17.6179497 -9.66797,27.3925797 0.0897,9.77463 3.36316,19.58257 10.10351,27.04102 4.94838,5.47557 11.84548,9.49978 20.12315,11.0859 6.11469,-3.54548 11.91042,-3.18809 17.39107,-0.0729 8.60022,-1.73397 15.65541,-6.18409 20.54047,-12.11259 6.34492,-7.7002 9.26032,-17.56139 9.19727,-27.28516 -0.0631,-9.72377 -3.10216,-19.4937297 -9.51563,-27.0039097 -6.39651,-7.49031 -16.39877,-12.3791203 -28.46875,-11.9628903 z m 0.38086,12.8300803 c 8.61377,-0.31688 14.23442,2.69003 18.32031,7.47461 4.08589,4.7845797 6.39178,11.6936597 6.4375,18.7441397 0.0457,7.05048 -2.16558,14.05935 -6.26562,19.03516 -4.10005,4.97581 -9.86389,8.24023 -18.72852,8.24023 h -0.10742 l -0.10742,0.004 c -9.21987,0.30972 -15.33872,-2.79937 -19.66797,-7.58984 -4.32925,-4.79048 -6.72531,-11.59463 -6.78906,-18.54493 -0.0638,-6.95029 2.20128,-13.86141 6.53515,-18.8671797 4.33388,-5.00578 10.61325,-8.42132 20.1836,-8.49219 h 0.0957 z"
       id="path87-1-33"
       inkscape:connector-curvature="0"
       sodipodi:nodetypes="cscsccscsccsccsccccsccc" />
    <path
       style="color:#000000;font-style:normal;font-variant:normal;font-weight:normal;font-stretch:normal;font-size:medium;line-height:normal;font-family:sans-serif;font-variant-ligatures:normal;font-variant-position:normal;font-variant-caps:normal;font-variant-numeric:normal;font-variant-alternates:normal;font-feature-settings:normal;text-indent:0;text-align:start;text-decoration:none;text-decoration-line:none;text-decoration-style:solid;text-decoration-color:#000000;letter-spacing:normal;word-spacing:normal;text-transform:none;writing-mode:lr-tb;direction:ltr;text-orientation:mixed;dominant-baseline:auto;baseline-shift:baseline;text-anchor:start;white-space:normal;shape-padding:0;clip-rule:nonzero;display:inline;overflow:visible;visibility:visible;opacity:1;isolation:auto;mix-blend-mode:normal;color-interpolation:sRGB;color-interpolation-filters:linearRGB;solid-color:#000000;solid-opacity:1;vector-effect:none;fill:#000000;fill-opacity:1;fill-rule:nonzero;stroke:none;stroke-width:12.84548187;stroke-linecap:butt;stroke-linejoin:miter;stroke-miterlimit:4;stroke-dasharray:none;stroke-dashoffset:0;stroke-opacity:1;color-rendering:auto;image-rendering:auto;shape-rendering:auto;text-rendering:auto;enable-background:accumulate"
       d="m 331.59673,-38.623165 c -24.07322,0.0492 -41.62675,8.94865 -54.81212,19.38736 l -0.74605,13.6460703 c 29.43178,-18.8425403 35.40902,-20.1468803 55.58412,-20.1879403 20.17511,-0.0405 41.02943,9.17345 68.87602,27.8303703 l 7.14903,-10.67082 C 378.97304,-27.829895 355.66948,-38.672115 331.59626,-38.623165 Z"
       id="path59-1-9"
       inkscape:connector-curvature="0"
       sodipodi:nodetypes="cccsccsc" />
    <g
       transform="matrix(0,-1.6869971,1.6869971,0,465.59522,820.56232)"
       id="layer1-4"
       inkscape:label="Camada 1"
       style="stroke-width:9.32763481;stroke-miterlimit:4;stroke-dasharray:none">
      <path
         style="color:#000000;font-style:normal;font-variant:normal;font-weight:normal;font-stretch:normal;font-size:medium;line-height:normal;font-family:sans-serif;font-variant-ligatures:normal;font-variant-position:normal;font-variant-caps:normal;font-variant-numeric:normal;font-variant-alternates:normal;font-feature-settings:normal;text-indent:0;text-align:start;text-decoration:none;text-decoration-line:none;text-decoration-style:solid;text-decoration-color:#000000;letter-spacing:normal;word-spacing:normal;text-transform:none;writing-mode:lr-tb;direction:ltr;text-orientation:mixed;dominant-baseline:auto;baseline-shift:baseline;text-anchor:start;white-space:normal;shape-padding:0;clip-rule:nonzero;display:inline;overflow:visible;visibility:visible;opacity:1;isolation:auto;mix-blend-mode:normal;color-interpolation:sRGB;color-interpolation-filters:linearRGB;solid-color:#000000;solid-opacity:1;vector-effect:none;fill:#000000;fill-opacity:1;fill-rule:nonzero;stroke:none;stroke-width:9.32763481;stroke-linecap:butt;stroke-linejoin:miter;stroke-miterlimit:4;stroke-dasharray:none;stroke-dashoffset:0;stroke-opacity:1;color-rendering:auto;image-rendering:auto;shape-rendering:auto;text-rendering:auto;enable-background:accumulate"
         d="m 34.228516,138.00195 c 0,0 -3.632582,13.35508 -3.177735,28.88477 0.454848,15.52969 5.247917,34.37124 22.871094,43.04297 l 0.283203,0.13867 0.300781,0.0996 c 0,0 19.049373,6.06662 34.035157,-6.25195 2.581499,1.94365 6.325282,4.24314 11.843754,5.76953 6.78439,1.87653 15.79674,2.1745 26.54687,-1.21289 -0.35845,0.66473 -0.76041,1.25315 -1.0957,1.93945 -2.16601,4.43355 -3.9182,9.3411 -3.54102,14.52734 0.37718,5.18625 3.72292,10.50233 9.64649,13.15235 l 1.10351,0.49414 1.20508,-0.10547 c 0,0 4.9116,-0.42719 10.95898,-0.51172 6.04739,-0.0845 13.36479,0.33077 16.87891,1.39844 l 0.64844,0.19726 0.67773,0.004 c -0.67987,-0.004 0.57499,0.1323 2.00782,0.58789 1.43282,0.45559 3.35353,1.11957 5.57031,1.82617 4.43355,1.41321 10.0758,3.01319 16.16797,3.53516 6.09216,0.52197 12.75381,-0.0356 18.85742,-3.2832 6.10361,-3.24762 11.33578,-9.21895 14.52544,-18.17782 l -8.79107,-3.12101 c -2.57999,7.24647 -6.12626,10.94199 -10.11523,13.06445 -3.98897,2.12246 -8.73549,2.64627 -13.67969,2.22266 -4.9442,-0.42362 -9.96534,-1.79856 -14.13281,-3.12696 -2.08374,-0.66419 -3.94895,-1.31134 -5.57422,-1.82812 -1.3128,-0.41743 -2.38193,-0.75551 -3.79297,-0.90235 -5.77599,-1.67727 -13.08049,-1.81069 -19.37891,-1.72265 -5.60436,0.0783 -9.06531,0.38906 -10.16406,0.47851 -2.59071,-1.35939 -3.15701,-2.66579 -3.3164,-4.85742 -0.17724,-2.43703 0.8426,-6.12146 2.61914,-9.75781 3.55307,-7.2727 9.51172,-14.0293 9.51172,-14.0293 l -5.85938,-7.11914 c -16.12342,9.58059 -27.49836,9.41227 -34.99805,7.33789 -7.499681,-2.07438 -10.898434,-5.95703 -10.898434,-5.95703 l -3.408203,-3.78711 -3.470703,3.73047 c -10.968274,11.78074 -26.384026,7.0179 -27.3125,6.71875 C 44.584145,194.7327 40.779734,180.43206 40.375,166.61336 c -0.407591,-13.91622 2.859375,-26.1875 2.859375,-26.1875 z"
         id="path6673"
         inkscape:connector-curvature="0"
         sodipodi:nodetypes="cscccccccscccccccccscccsccccccccccsccccscc" />
      <path
         style="color:#000000;font-style:normal;font-variant:normal;font-weight:normal;font-stretch:normal;font-size:medium;line-height:normal;font-family:sans-serif;font-variant-ligatures:normal;font-variant-position:normal;font-variant-caps:normal;font-variant-numeric:normal;font-variant-alternates:normal;font-feature-settings:normal;text-indent:0;text-align:start;text-decoration:none;text-decoration-line:none;text-decoration-style:solid;text-decoration-color:#000000;letter-spacing:normal;word-spacing:normal;text-transform:none;writing-mode:lr-tb;direction:ltr;text-orientation:mixed;dominant-baseline:auto;baseline-shift:baseline;text-anchor:start;white-space:normal;shape-padding:0;clip-rule:nonzero;display:inline;overflow:visible;visibility:visible;opacity:1;isolation:auto;mix-blend-mode:normal;color-interpolation:sRGB;color-interpolation-filters:linearRGB;solid-color:#000000;solid-opacity:1;vector-effect:none;fill:#000000;fill-opacity:1;fill-rule:nonzero;stroke:none;stroke-width:9.32763481;stroke-linecap:butt;stroke-linejoin:miter;stroke-miterlimit:4;stroke-dasharray:none;stroke-dashoffset:0;stroke-opacity:1;color-rendering:auto;image-rendering:auto;shape-rendering:auto;text-rendering:auto;enable-background:accumulate"
         d="m 204.01367,41.25 c -3.50013,-0.180931 -8.07109,-0.149895 -14.22461,0.164062 l 0.23824,9.320307 c 11.68444,-0.596151 17.33267,0.09767 19.08793,0.574225 l 0.54883,0.542968 c 21.15021,20.908495 28.73114,36.184436 31.19727,45.744141 1.23306,4.779857 1.20909,8.148437 0.95898,10.224607 -0.2501,2.07618 -0.52344,2.44922 -0.52343,2.44922 l -0.1211,0.24414 -0.0937,0.25586 c -6.39371,17.68931 -26.51758,20.36914 -26.51758,20.36914 l -1.08203,0.13867 -0.9082,0.60547 c -2.28149,1.521 -3.06459,4.02684 -3.22852,5.83008 -0.16393,1.80324 0.0925,3.34489 0.40039,4.73047 0.61582,2.77115 1.63477,5.04687 1.63477,5.04687 l -0.25,-0.73242 c 3.21004,12.75337 2.16838,34.94278 1.12695,55.96875 -0.17787,3.59119 -0.14247,7.8717 -0.18164,11.53906 -0.0196,1.83369 -0.0583,3.51124 -0.13672,4.78321 -0.0784,1.27197 -0.34399,2.33112 -0.18945,1.89453 l 8.79297,3.11328 c 0.59837,-1.69042 0.60999,-2.85933 0.70703,-4.43359 0.097,-1.57427 0.13209,-3.36172 0.15234,-5.25782 0.0405,-3.79218 0.0159,-8.02835 0.17188,-11.17773 1.03919,-20.98097 2.50292,-43.20511 -1.39844,-58.70508 l -0.0937,-0.37695 -0.15625,-0.35547 c 0,0 -0.70439,-1.66587 -1.07422,-3.33008 -0.0658,-0.29594 -0.0413,-0.3985 -0.0762,-0.66211 6.42677,-1.40304 23.8533,-6.74755 30.86523,-25.3164 v -0.002 c 0.001,-0.003 1.05261,-2.27637 1.44141,-5.5039 0.38902,-3.22933 0.31879,-7.82338 -1.18945,-13.669925 -2.99434,-11.607291 -11.60569,-28.095214 -33.22266,-49.582031 -0.12016,-0.196728 -0.12978,-0.446406 -0.26953,-0.621094 -1.20928,-1.51159 -2.71428,-2.175313 -4.58594,-2.707031 C 209.9428,41.82375 207.51381,41.430931 204.01367,41.25 Z"
         id="path6675"
         inkscape:connector-curvature="0"
         sodipodi:nodetypes="scccccccccccsscccccccccsccccccccsscccs" />
      <path
         style="color:#000000;font-style:normal;font-variant:normal;font-weight:normal;font-stretch:normal;font-size:medium;line-height:normal;font-family:sans-serif;font-variant-ligatures:normal;font-variant-position:normal;font-variant-caps:normal;font-variant-numeric:normal;font-variant-alternates:normal;font-feature-settings:normal;text-indent:0;text-align:start;text-decoration:none;text-decoration-line:none;text-decoration-style:solid;text-decoration-color:#000000;letter-spacing:normal;word-spacing:normal;text-transform:none;writing-mode:lr-tb;direction:ltr;text-orientation:mixed;dominant-baseline:auto;baseline-shift:baseline;text-anchor:start;white-space:normal;shape-padding:0;clip-rule:nonzero;display:inline;overflow:visible;visibility:visible;opacity:1;isolation:auto;mix-blend-mode:normal;color-interpolation:sRGB;color-interpolation-filters:linearRGB;solid-color:#000000;solid-opacity:1;vector-effect:none;fill:#000000;fill-opacity:1;fill-rule:nonzero;stroke:none;stroke-width:9.32763481;stroke-linecap:butt;stroke-linejoin:miter;stroke-miterlimit:4;stroke-dasharray:none;stroke-dashoffset:0;stroke-opacity:1;color-rendering:auto;image-rendering:auto;shape-rendering:auto;text-rendering:auto;enable-background:accumulate"
         d="m 154.11328,30.380859 c -5.8533,10e-7 -13.83181,1.706719 -22.43359,7.480469 -4.9e-4,3.3e-4 -0.001,-3.3e-4 -0.002,0 -0.20762,0.08676 -0.31969,0.141094 -0.46289,0.207031 -0.2874,0.132338 -0.63707,0.294944 -1.11523,0.501953 -0.95632,0.41402 -2.40108,0.99546 -4.39844,1.632813 -3.96672,1.265777 -10.12017,2.73807 -18.67187,3.414063 -0.54459,-0.08599 -0.71802,-0.166407 -1.58203,-0.179688 -1.6172,-0.02486 -3.82705,0.157905 -6.494145,0.875 -5.124977,1.377939 -11.907589,4.83843 -19.519531,12.189453 -0.240701,0.10573 -0.488192,0.207184 -0.732422,0.328125 -0.780064,0.386281 -1.726685,0.899662 -2.867188,1.535156 -2.281004,1.27099 -5.281104,3.01421 -8.419922,4.875 -6.277634,3.721581 -12.92664,7.782862 -15.564453,9.564454 l -0.03125,0.02148 -0.03125,0.02148 c 0,0 -5.831407,4.066987 -11.669921,9.9375 -5.578887,5.609463 -11.732603,12.828752 -12.125,21.546872 -0.609026,1.26443 -3.829227,8.09194 -4.998047,16.43164 -0.640681,4.57135 -0.685352,9.56711 1.53125,14.16211 2.216601,4.595 7.139436,8.1708 13.673828,8.92188 l 5.035196,-3.42179 -3.970743,-5.84579 c -4.184406,-0.48097 -5.389674,-1.74139 -6.337891,-3.70703 -0.948216,-1.96565 -1.194273,-5.2543 -0.695312,-8.81446 0.997921,-7.12031 4.53125,-14.55664 4.53125,-14.55664 l 0.49414,-1.00976 -0.02148,-1.12305 c -0.07472,-4.03484 4.328932,-10.812329 9.496094,-16.00781 5.142564,-5.170749 10.321608,-8.810939 10.371093,-8.845703 2.006823,-1.353688 8.892534,-5.58957 15.070313,-9.251953 2.685475,-1.592035 5.076415,-2.969271 7.115234,-4.121094 l 5.830079,-3.228516 c 7.036969,-7.036972 12.642944,-9.62183 16.257808,-10.59375 1.80743,-0.485959 3.13042,-0.568926 3.92969,-0.55664 0.79926,0.01229 0.7539,0.03906 0.7539,0.03906 l 0.75586,0.195313 0.7793,-0.05859 c 9.37104,-0.725369 16.29496,-2.368264 20.94336,-3.851562 1.93734,-0.618203 3.24548,-1.153693 4.39258,-1.63086 1.11198,-0.500651 2.22396,-1.001302 3.33593,-1.501953 7.37006,-5.136703 13.5244,-6.248047 17.84766,-6.248047 4.19992,0 6.19339,0.922467 6.3086,0.976563 15.39216,9.946833 29.60546,10.050781 29.60546,10.050781 V 41.40625 c 0,0 -11.56103,0.06553 -25.02734,-8.835938 l -0.3125,-0.207031 -0.3418,-0.154297 c 0,0 -4.20649,-1.828125 -10.23242,-1.828125 z"
         id="path6677"
         inkscape:connector-curvature="0"
         sodipodi:nodetypes="cccccccsscccscccscssccccscccscsccsccccsccscccccccc" />
      <path
         style="color:#000000;font-style:normal;font-variant:normal;font-weight:normal;font-stretch:normal;font-size:medium;line-height:normal;font-family:sans-serif;font-variant-ligatures:normal;font-variant-position:normal;font-variant-caps:normal;font-variant-numeric:normal;font-variant-alternates:normal;font-feature-settings:normal;text-indent:0;text-align:start;text-decoration:none;text-decoration-line:none;text-decoration-style:solid;text-decoration-color:#000000;letter-spacing:normal;word-spacing:normal;text-transform:none;writing-mode:lr-tb;direction:ltr;text-orientation:mixed;dominant-baseline:auto;baseline-shift:baseline;text-anchor:start;white-space:normal;shape-padding:0;clip-rule:nonzero;display:inline;overflow:visible;visibility:visible;opacity:1;isolation:auto;mix-blend-mode:normal;color-interpolation:sRGB;color-interpolation-filters:linearRGB;solid-color:#000000;solid-opacity:1;vector-effect:none;fill:#000000;fill-opacity:1;fill-rule:nonzero;stroke:none;stroke-width:9.32763481;stroke-linecap:butt;stroke-linejoin:miter;stroke-miterlimit:4;stroke-dasharray:none;stroke-dashoffset:0;stroke-opacity:1;color-rendering:auto;image-rendering:auto;shape-rendering:auto;text-rendering:auto;enable-background:accumulate"
         d="m 179.75586,70.457031 c 0,0 -0.87945,5.378238 -0.58008,12.164063 0.26662,6.043439 1.50584,13.411027 5.51172,19.710936 -1.06256,2.72277 -2.85522,8.15156 -1.49805,15.60156 0.88659,4.86682 3.44913,10.16807 8.55078,14.27735 5.10166,4.10928 12.49577,7.01006 22.89649,8.1875 l 1.04883,-9.26953 c -9.18882,-1.04024 -14.76359,-3.49927 -18.09375,-6.18164 -3.33016,-2.68238 -4.66355,-5.60567 -5.22461,-8.68555 -1.12213,-6.15976 1.63867,-12.5293 1.63867,-12.5293 l 1.22266,-2.61719 -1.79883,-2.259761 c -3.27978,-4.123158 -4.67855,-10.863485 -4.9336,-16.644531 -0.25504,-5.781047 0.4668,-10.257813 0.4668,-10.257813 z"
         id="path6679"
         inkscape:connector-curvature="0" />
      <path
         style="color:#000000;font-style:normal;font-variant:normal;font-weight:normal;font-stretch:normal;font-size:medium;line-height:normal;font-family:sans-serif;font-variant-ligatures:normal;font-variant-position:normal;font-variant-caps:normal;font-variant-numeric:normal;font-variant-alternates:normal;font-feature-settings:normal;text-indent:0;text-align:start;text-decoration:none;text-decoration-line:none;text-decoration-style:solid;text-decoration-color:#000000;letter-spacing:normal;word-spacing:normal;text-transform:none;writing-mode:lr-tb;direction:ltr;text-orientation:mixed;dominant-baseline:auto;baseline-shift:baseline;text-anchor:start;white-space:normal;shape-padding:0;clip-rule:nonzero;display:inline;overflow:visible;visibility:visible;opacity:1;isolation:auto;mix-blend-mode:normal;color-interpolation:sRGB;color-interpolation-filters:linearRGB;solid-color:#000000;solid-opacity:1;vector-effect:none;fill:#000000;fill-opacity:1;fill-rule:nonzero;stroke:none;stroke-width:9.32763481;stroke-linecap:butt;stroke-linejoin:miter;stroke-miterlimit:4;stroke-dasharray:none;stroke-dashoffset:0;stroke-opacity:1;color-rendering:auto;image-rendering:auto;shape-rendering:auto;text-rendering:auto;enable-background:accumulate"
         d="m 218.44727,79.150391 c -8.97619,0.231523 -16.45871,4.058889 -21.75586,8.224609 -7.06287,5.554294 -10.90625,11.978516 -10.90625,11.978516 l 7.99023,4.812504 c 0,0 3.05638,-5.033707 8.68359,-9.458989 5.62722,-4.425282 13.16183,-7.976424 23.12891,-5.43164 l 2.30859,-9.03711 c -3.29884,-0.842257 -6.45715,-1.165065 -9.44921,-1.08789 z"
         id="path6681"
         inkscape:connector-curvature="0" />
      <path
         style="color:#000000;font-style:normal;font-variant:normal;font-weight:normal;font-stretch:normal;font-size:medium;line-height:normal;font-family:sans-serif;font-variant-ligatures:normal;font-variant-position:normal;font-variant-caps:normal;font-variant-numeric:normal;font-variant-alternates:normal;font-feature-settings:normal;text-indent:0;text-align:start;text-decoration:none;text-decoration-line:none;text-decoration-style:solid;text-decoration-color:#000000;letter-spacing:normal;word-spacing:normal;text-transform:none;writing-mode:lr-tb;direction:ltr;text-orientation:mixed;dominant-baseline:auto;baseline-shift:baseline;text-anchor:start;white-space:normal;shape-padding:0;clip-rule:nonzero;display:inline;overflow:visible;visibility:visible;opacity:1;isolation:auto;mix-blend-mode:normal;color-interpolation:sRGB;color-interpolation-filters:linearRGB;solid-color:#000000;solid-opacity:1;vector-effect:none;fill:#000000;fill-opacity:1;fill-rule:nonzero;stroke:none;stroke-width:9.32763481;stroke-linecap:butt;stroke-linejoin:miter;stroke-miterlimit:4;stroke-dasharray:none;stroke-dashoffset:0;stroke-opacity:1;color-rendering:auto;image-rendering:auto;shape-rendering:auto;text-rendering:auto;enable-background:accumulate"
         d="m 83.773438,120.68945 c -7.79859,27.42084 -7.813224,47.11884 -5.72461,60.10743 2.088614,12.98858 6.636719,19.73632 6.636719,19.73632 l 7.640625,-5.34961 c 0,0 -3.214429,-4.33804 -5.06836,-15.86718 -1.85393,-11.52915 -1.99051,-29.77979 5.488282,-56.07618 z"
         id="path6683"
         inkscape:connector-curvature="0" />
      <path
         style="color:#000000;font-style:normal;font-variant:normal;font-weight:normal;font-stretch:normal;font-size:medium;line-height:normal;font-family:sans-serif;font-variant-ligatures:normal;font-variant-position:normal;font-variant-caps:normal;font-variant-numeric:normal;font-variant-alternates:normal;font-feature-settings:normal;text-indent:0;text-align:start;text-decoration:none;text-decoration-line:none;text-decoration-style:solid;text-decoration-color:#000000;letter-spacing:normal;word-spacing:normal;text-transform:none;writing-mode:lr-tb;direction:ltr;text-orientation:mixed;dominant-baseline:auto;baseline-shift:baseline;text-anchor:start;white-space:normal;shape-padding:0;clip-rule:nonzero;display:inline;overflow:visible;visibility:visible;opacity:1;isolation:auto;mix-blend-mode:normal;color-interpolation:sRGB;color-interpolation-filters:linearRGB;solid-color:#000000;solid-opacity:1;vector-effect:none;fill:#000000;fill-opacity:1;fill-rule:nonzero;stroke:none;stroke-width:9.32763481;stroke-linecap:butt;stroke-linejoin:miter;stroke-miterlimit:4;stroke-dasharray:none;stroke-dashoffset:0;stroke-opacity:1;color-rendering:auto;image-rendering:auto;shape-rendering:auto;text-rendering:auto;enable-background:accumulate"
         d="m 142.4082,115.9375 -9.32422,0.22656 c 0.20272,8.36296 -0.0871,23.48749 0.33204,39.01953 0.41911,15.53205 1.43999,31.39754 4.77343,42.47852 l 8.93164,-2.6875 c -2.7448,-9.12423 -3.96934,-24.79243 -4.38086,-40.04297 -0.41151,-15.25054 -0.11782,-30.15703 -0.33203,-38.99414 z"
         id="path6685"
         inkscape:connector-curvature="0" />
      <path
         style="color:#000000;font-style:normal;font-variant:normal;font-weight:normal;font-stretch:normal;font-size:medium;line-height:normal;font-family:sans-serif;font-variant-ligatures:normal;font-variant-position:normal;font-variant-caps:normal;font-variant-numeric:normal;font-variant-alternates:normal;font-feature-settings:normal;text-indent:0;text-align:start;text-decoration:none;text-decoration-line:none;text-decoration-style:solid;text-decoration-color:#000000;letter-spacing:normal;word-spacing:normal;text-transform:none;writing-mode:lr-tb;direction:ltr;text-orientation:mixed;dominant-baseline:auto;baseline-shift:baseline;text-anchor:start;white-space:normal;shape-padding:0;clip-rule:nonzero;display:inline;overflow:visible;visibility:visible;opacity:1;isolation:auto;mix-blend-mode:normal;color-interpolation:sRGB;color-interpolation-filters:linearRGB;solid-color:#000000;solid-opacity:1;vector-effect:none;fill:#000000;fill-opacity:1;fill-rule:nonzero;stroke:none;stroke-width:9.32763481;stroke-linecap:butt;stroke-linejoin:miter;stroke-miterlimit:4;stroke-dasharray:none;stroke-dashoffset:0;stroke-opacity:1;color-rendering:auto;image-rendering:auto;shape-rendering:auto;text-rendering:auto;enable-background:accumulate"
         d="m 204.64258,131.3418 -9.23828,1.28906 c 2.5646,18.37965 2.08552,30.27127 1.05273,37.39258 -0.51639,3.56065 -1.17068,5.92867 -1.65039,7.33398 -0.47971,1.40531 -0.61523,1.56055 -0.61523,1.56055 l -0.17383,0.29492 -0.13086,0.31445 c -0.54541,1.32607 -2.5555,3.31095 -5.85352,5.03321 -3.29801,1.72225 -7.62758,3.18624 -11.86914,4.2832 -4.24155,1.09696 -8.40533,1.84961 -11.47461,2.30859 -1.53464,0.22949 -2.7992,0.38491 -3.64843,0.47657 -0.40025,0.0432 -0.69221,0.0703 -0.86719,0.084 -8.69524,-1.05047 -13.81507,-0.97669 -17.18164,-0.37109 -1.72185,0.30973 -3.05244,0.7866 -4.05078,1.32617 -0.99834,0.53956 -2.33409,1.2589 -0.67579,0.47851 l 3.97266,8.43946 c 1.99421,-0.93846 1.1063,-0.6954 1.13867,-0.71289 0.0324,-0.0175 0.31562,-0.17837 1.26758,-0.34961 1.90392,-0.34249 6.32598,-0.5792 14.86719,0.48437 l -0.0117,-0.01 c 0.13574,0.0153 0.31886,0.0434 0.39258,0.0469 0.2479,0.0118 0.34108,0.005 0.4375,0.002 0.19283,-0.006 0.32693,-0.0151 0.49023,-0.0273 0.32661,-0.0246 0.7236,-0.0616 1.22071,-0.11523 0.99421,-0.1073 2.36825,-0.27925 4.02734,-0.52735 3.31817,-0.4962 7.76278,-1.29643 12.43164,-2.5039 4.66886,-1.20748 9.55175,-2.80054 13.84961,-5.04493 4.19083,-2.18849 8.03573,-5.01977 9.98633,-9.4375 0.11511,-0.21027 0.68053,-1.20823 1.29883,-3.01953 0.67869,-1.98823 1.46017,-4.92394 2.05273,-9.00976 1.18512,-8.17165 1.61761,-20.93809 -1.04492,-40.01953 z"
         id="path6687"
         inkscape:connector-curvature="0" />
      <path
         style="color:#000000;font-style:normal;font-variant:normal;font-weight:normal;font-stretch:normal;font-size:medium;line-height:normal;font-family:sans-serif;font-variant-ligatures:normal;font-variant-position:normal;font-variant-caps:normal;font-variant-numeric:normal;font-variant-alternates:normal;font-feature-settings:normal;text-indent:0;text-align:start;text-decoration:none;text-decoration-line:none;text-decoration-style:solid;text-decoration-color:#000000;letter-spacing:normal;word-spacing:normal;text-transform:none;writing-mode:lr-tb;direction:ltr;text-orientation:mixed;dominant-baseline:auto;baseline-shift:baseline;text-anchor:start;white-space:normal;shape-padding:0;clip-rule:nonzero;display:inline;overflow:visible;visibility:visible;opacity:1;isolation:auto;mix-blend-mode:normal;color-interpolation:sRGB;color-interpolation-filters:linearRGB;solid-color:#000000;solid-opacity:1;vector-effect:none;fill:#000000;fill-opacity:1;fill-rule:nonzero;stroke:none;stroke-width:4.66381741;stroke-linecap:butt;stroke-linejoin:miter;stroke-miterlimit:4;stroke-dasharray:none;stroke-dashoffset:0;stroke-opacity:1;color-rendering:auto;image-rendering:auto;shape-rendering:auto;text-rendering:auto;enable-background:accumulate"
         d="m 167.18164,206.50586 c -2.41972,-0.11731 -5.0273,-0.0691 -7.67969,0.26758 -5.30478,0.67325 -10.89268,2.53344 -15.38867,6.69336 -4.49598,4.15992 -7.74649,10.56039 -8.61523,19.70508 l 4.64257,0.4414 c 0.78652,-8.27907 3.54894,-13.40125 7.13868,-16.72266 3.58973,-3.3214 8.162,-4.90221 12.81054,-5.49218 5.73884,-0.72834 10.55726,-0.0109 14.07618,0.73242 -3.43345,3.43538 -6.18135,7.89609 -8.32032,11.90234 -2.88895,5.41096 -4.59179,10.07032 -4.59179,10.07032 l 4.38086,1.60351 c 0,0 1.60174,-4.37375 4.32617,-9.47656 2.72442,-5.10281 6.66257,-10.83469 10.58594,-13.35156 l 4.14843,-2.66211 -4.6875,-1.51953 c 0,0 -5.567,-1.83947 -12.82617,-2.19141 z"
         id="path6691"
         inkscape:connector-curvature="0" />
    </g>
    <path
       style="color:#000000;font-style:normal;font-variant:normal;font-weight:normal;font-stretch:normal;font-size:medium;line-height:normal;font-family:sans-serif;font-variant-ligatures:normal;font-variant-position:normal;font-variant-caps:normal;font-variant-numeric:normal;font-variant-alternates:normal;font-feature-settings:normal;text-indent:0;text-align:start;text-decoration:none;text-decoration-line:none;text-decoration-style:solid;text-decoration-color:#000000;letter-spacing:normal;word-spacing:normal;text-transform:none;writing-mode:lr-tb;direction:ltr;text-orientation:mixed;dominant-baseline:auto;baseline-shift:baseline;text-anchor:start;white-space:normal;shape-padding:0;clip-rule:nonzero;display:inline;overflow:visible;visibility:visible;opacity:1;isolation:auto;mix-blend-mode:normal;color-interpolation:sRGB;color-interpolation-filters:linearRGB;solid-color:#000000;solid-opacity:1;vector-effect:none;fill:#000000;fill-opacity:1;fill-rule:nonzero;stroke:none;stroke-width:12.94129467;stroke-linecap:butt;stroke-linejoin:miter;stroke-miterlimit:4;stroke-dasharray:none;stroke-dashoffset:0;stroke-opacity:1;color-rendering:auto;image-rendering:auto;shape-rendering:auto;text-rendering:auto;enable-background:accumulate"
       d="m 331.97852,50.016535 c -4.6877,-0.12875 -8.06836,0.91016 -8.06836,0.91016 l 0.39453,-0.10352 -50.63672,11.50782 c -2.19189,0.13567 -4.31472,0.54238 -7.03516,1.18359 -3.22687,0.76058 -7.04324,1.81202 -11.27539,3.06055 -8.46429,2.49705 -18.56678,5.78925 -28.3125,9.07812 -19.32922,6.52301 -36.94135,12.92721 -37.23828,13.03516 -41.86554,7.94118 -50.66016,47.648435 -50.66016,47.648435 l -0.27734,1.35157 0.16406,0.73828 c -0.024,0.31374 -0.075,0.82365 -0.16797,1.5039 -0.19797,1.44895 -0.54565,3.51684 -0.98828,5.92188 -0.88525,4.81008 -2.15609,11.01152 -3.45312,17.10742 -2.57124,12.08452 -5.19538,23.56283 -5.24219,23.76758 l -34.814452,115.44922 -0.02734,0.10351 C 86.309074,332.51172 74.887508,352.73737 64.640629,366.6474 54.39375,380.55743 45.75217,387.33959 40.94727,393.74701 l 10.353515,7.76563 c 2.320039,-3.09382 12.672681,-12.13886 23.759766,-27.18946 11.087085,-15.0506 23.337768,-36.91891 31.785149,-68.71875 l -0.0586,0.20703 34.91406,-115.77343 0.0488,-0.21485 c 0,0 2.71154,-11.85393 5.33203,-24.16992 1.31025,-6.15799 2.59766,-12.42868 3.52344,-17.45898 0.46289,-2.51515 0.83604,-4.71141 1.08203,-6.51172 0.12299,-0.90016 0.21448,-1.69427 0.26758,-2.4668 0.0111,-0.16106 -0.0474,-0.47477 -0.0312,-0.62305 0.19582,-1.01541 6.25581,-31.16672 40.91601,-37.34375 l 0.55078,-0.0976 0.5254,-0.19141 c 0,0 17.95241,-6.527325 37.26562,-13.044925 9.65661,-3.2588 19.65419,-6.51403 27.83594,-8.92774 4.09087,-1.20685 7.73409,-2.20327 10.58398,-2.875 2.8499,-0.67172 5.16506,-0.95312 5.29688,-0.95312 h 0.72656 l 51.74805,-11.76172 0.19531,-0.0566 c 0,0 3.13809,-0.85079 6.7207,-0.0762 3.58261,0.77462 7.21868,2.27035 9.72266,10.4082 l 0.0352,0.10938 0.0371,0.10742 c 0,0 2.45429,7.09163 4.5293,14.48242 1.0375,3.6954 1.97177,7.47707 2.4336,10.22461 0.18274,1.0872 0.22662,1.785655 0.25976,2.371095 l 1.57026,7.66401 1.48248,1.05084 c 0,0 5.77059,1.93284 5.30859,12.03711 l -0.73633,16.08593 11.66211,-11.10546 c 0,0 3.51332,-3.00911 6.94336,-3.84571 1.71502,-0.4183 3.04812,-0.39585 4.54297,0.35157 1.39407,0.69703 3.29842,2.47669 5.29492,6.36523 0.17143,1.2966 0.47523,3.13295 1.07227,5.54101 1.12135,4.52287 3.25795,11.21587 7.20893,20.10541 l 11.79302,-5.32806 c -3.67487,-8.26831 -5.52019,-14.17693 -6.44141,-17.89258 -0.92122,-3.71565 -0.90234,-4.75781 -0.90234,-4.75781 l -0.0469,-1.3418 -0.57421,-1.21289 c -3.01911,-6.35601 -6.98226,-10.73626 -11.61524,-13.05273 -4.63298,-2.31648 -9.53032,-2.29502 -13.39844,-1.35157 -1.29448,0.31574 -2.38971,0.80999 -3.52343,1.26953 -1.73258,-4.63604 -4.35085,-7.66909 -6.63282,-9.8789 -2e-5,-0.0141 0.002,-0.0328 0.002,-0.0469 0.004,-1.719245 -0.20614,-3.377125 -0.50782,-5.171875 -0.60335,-3.5895 -1.6314,-7.6426 -2.73632,-11.57813 -2.18375,-7.77809 -4.64591,-14.87425 -4.70508,-15.04492 -3.66545,-11.86378 -12.24413,-17.67825 -19.3418,-19.21289 -1.77638,-0.38408 -3.48431,-0.55669 -5.04687,-0.59961 z m 19.375,51.382815 c 7.6e-4,0.0367 0.0216,0.16192 0.0215,0.19336 -6.4e-4,0.26576 -0.12182,0.18701 -0.0215,-0.19336 z"
       id="path20083"
       inkscape:connector-curvature="0"
       sodipodi:nodetypes="cccccssccccccscccsccsccccssccccccsscscccccccccccccccssccccsccccccccccccccccc" />
    <path
       style="color:#000000;font-style:normal;font-variant:normal;font-weight:normal;font-stretch:normal;font-size:medium;line-height:normal;font-family:sans-serif;font-variant-ligatures:normal;font-variant-position:normal;font-variant-caps:normal;font-variant-numeric:normal;font-variant-alternates:normal;font-feature-settings:normal;text-indent:0;text-align:start;text-decoration:none;text-decoration-line:none;text-decoration-style:solid;text-decoration-color:#000000;letter-spacing:normal;word-spacing:normal;text-transform:none;writing-mode:lr-tb;direction:ltr;text-orientation:mixed;dominant-baseline:auto;baseline-shift:baseline;text-anchor:start;white-space:normal;shape-padding:0;clip-rule:nonzero;display:inline;overflow:visible;visibility:visible;opacity:1;isolation:auto;mix-blend-mode:normal;color-interpolation:sRGB;color-interpolation-filters:linearRGB;solid-color:#000000;solid-opacity:1;vector-effect:none;fill:#000000;fill-opacity:1;fill-rule:nonzero;stroke:none;stroke-width:12.94129467;stroke-linecap:butt;stroke-linejoin:miter;stroke-miterlimit:4;stroke-dasharray:none;stroke-dashoffset:0;stroke-opacity:1;color-rendering:auto;image-rendering:auto;shape-rendering:auto;text-rendering:auto;enable-background:accumulate"
       d="m 407.41797,149.81732 -11.76172,5.40039 c 0.72204,1.57233 1.61447,3.01461 2.92969,5.14844 1.31521,2.13384 2.92965,4.63714 4.58789,7.0625 1.65824,2.42537 3.33039,4.74615 4.91406,6.64258 0.79183,0.94821 1.52625,1.78052 2.49023,2.61914 0.27652,0.24056 0.7268,0.50627 1.09376,0.76172 0.50166,0.68096 1.3143,1.93728 1.94531,4.41015 0.87249,3.41923 1.11016,7.9833 -3.50391,14.62305 l -0.13867,0.19922 -0.12305,0.20899 c 0,0 -18.1248,30.36115 -33.58789,45.82421 l -0.2832,0.28321 -0.24414,0.31445 c 0,0 -12.44282,15.91157 -24.25781,27.72656 l -0.38868,0.39063 -0.31836,0.45117 c 0,0 -2.29497,2.97344 -3.60351,7.41406 -2.0705,1.66151 -6.41975,5.60138 -9.82813,12.58594 -0.64394,0.58844 -2.32354,2.06607 -4.88867,5.0625 -3.0122,3.51868 -6.54536,8.11895 -8.2832,13.86719 l 0.25781,-0.70313 c 0,0 -5.00897,11.53958 -13.63086,25.10156 -8.62188,13.56198 -20.96105,28.8161 -33.98828,35.92188 l -1.08984,0.59375 -0.79297,0.95703 c 0,0 -1.39657,1.67899 -3.46094,3.57031 -2.06437,1.89132 -4.90587,3.69663 -5.89648,3.9668 l -0.61719,0.16797 -0.57422,0.28711 c 0,0 -19.73653,8.85565 -26.56641,26.61328 l 12.07813,4.64648 c 4.04793,-10.52458 20.10889,-19.58835 20.23633,-19.66015 4.36103,-1.48896 7.55411,-4.1625 10.08203,-6.47852 2.21115,-2.0258 3.17937,-3.22281 3.75586,-3.89453 16.1568,-9.18751 28.74373,-25.57529 37.7539,-39.74805 9.19166,-14.45822 14.58204,-26.89453 14.58204,-26.89453 l 0.15039,-0.34375 0.10742,-0.35937 c 0.76569,-2.53268 3.29841,-6.35889 5.72656,-9.19532 2.42815,-2.83642 4.51367,-4.69335 4.51367,-4.69335 l 1.08985,-0.97071 0.56835,-1.34179 c 2.2475,-5.31224 8.35547,-10.36914 8.35547,-10.36915 l 2.0586,-1.56445 0.41406,-2.55078 c 0.19391,-1.19582 1.84396,-4.10858 1.97656,-4.34375 12.32955,-12.44574 24.22047,-27.66969 24.50196,-28.03125 17.64779,-17.8124 35.24218,-48.0332 35.24218,-48.0332 l -0.26172,0.40625 c 6.55214,-9.42868 7.06274,-18.75365 5.41602,-25.20703 -1.64672,-6.45339 -5.39258,-10.61133 -5.39258,-10.61133 l -2.57422,-2.83985 -0.49609,0.11915 c -1.07208,-1.32079 -2.43531,-3.15365 -3.83789,-5.20508 -1.52255,-2.2269 -3.04934,-4.59647 -4.25391,-6.55078 -1.20456,-1.95432 -2.20946,-3.81415 -2.18359,-3.75782 z"
       id="path20085"
       inkscape:connector-curvature="0" />
    <path
       style="color:#000000;font-style:normal;font-variant:normal;font-weight:normal;font-stretch:normal;font-size:medium;line-height:normal;font-family:sans-serif;font-variant-ligatures:normal;font-variant-position:normal;font-variant-caps:normal;font-variant-numeric:normal;font-variant-alternates:normal;font-feature-settings:normal;text-indent:0;text-align:start;text-decoration:none;text-decoration-line:none;text-decoration-style:solid;text-decoration-color:#000000;letter-spacing:normal;word-spacing:normal;text-transform:none;writing-mode:lr-tb;direction:ltr;text-orientation:mixed;dominant-baseline:auto;baseline-shift:baseline;text-anchor:start;white-space:normal;shape-padding:0;clip-rule:nonzero;display:inline;overflow:visible;visibility:visible;opacity:1;isolation:auto;mix-blend-mode:normal;color-interpolation:sRGB;color-interpolation-filters:linearRGB;solid-color:#000000;solid-opacity:1;vector-effect:none;fill:#000000;fill-opacity:1;fill-rule:nonzero;stroke:none;stroke-width:12.94129467;stroke-linecap:butt;stroke-linejoin:miter;stroke-miterlimit:4;stroke-dasharray:none;stroke-dashoffset:0;stroke-opacity:1;color-rendering:auto;image-rendering:auto;shape-rendering:auto;text-rendering:auto;enable-background:accumulate"
       d="m 320.60938,89.520445 c -16.97923,0.26776 -41.91995,2.27887 -80.00977,7.00781 l 1.59375,12.843755 c 50.45673,-6.26432 77.52274,-7.59651 92.10352,-6.66016 7.29038,0.46818 11.35762,1.49482 13.69921,2.48047 2.3416,0.98566 3.15871,1.8108 4.88086,3.43946 l 8.89063,-9.402355 c -1.76203,-1.66636 -4.52143,-4.1849 -8.75,-5.96484 -4.22857,-1.77995 -9.72596,-2.94248 -17.89063,-3.4668 -4.08233,-0.26216 -8.85783,-0.3666 -14.51757,-0.27734 z"
       id="path20087"
       inkscape:connector-curvature="0" />
    <path
       style="color:#000000;font-style:normal;font-variant:normal;font-weight:normal;font-stretch:normal;font-size:medium;line-height:normal;font-family:sans-serif;font-variant-ligatures:normal;font-variant-position:normal;font-variant-caps:normal;font-variant-numeric:normal;font-variant-alternates:normal;font-feature-settings:normal;text-indent:0;text-align:start;text-decoration:none;text-decoration-line:none;text-decoration-style:solid;text-decoration-color:#000000;letter-spacing:normal;word-spacing:normal;text-transform:none;writing-mode:lr-tb;direction:ltr;text-orientation:mixed;dominant-baseline:auto;baseline-shift:baseline;text-anchor:start;white-space:normal;shape-padding:0;clip-rule:nonzero;display:inline;overflow:visible;visibility:visible;opacity:1;isolation:auto;mix-blend-mode:normal;color-interpolation:sRGB;color-interpolation-filters:linearRGB;solid-color:#000000;solid-opacity:1;vector-effect:none;fill:#000000;fill-opacity:1;fill-rule:nonzero;stroke:none;stroke-width:12.94129467;stroke-linecap:butt;stroke-linejoin:miter;stroke-miterlimit:4;stroke-dasharray:none;stroke-dashoffset:0;stroke-opacity:1;color-rendering:auto;image-rendering:auto;shape-rendering:auto;text-rendering:auto;enable-background:accumulate"
       d="m 359.75,120.94818 c 0,0 -5.61468,33.37135 -6.00977,63.39453 l -0.0137,1.15821 0.38672,1.09179 c 0,0 3.02293,8.60856 8.13281,17.125 2.55495,4.25823 5.61418,8.57527 9.57032,12.00391 3.95613,3.42864 9.4196,6.17858 15.49804,5.125 l -2.21093,-12.75195 c -1.14328,0.19816 -2.5399,-0.18276 -4.8125,-2.15235 -2.27261,-1.96958 -4.81005,-5.31752 -6.94922,-8.88281 -3.79551,-6.32582 -6.06377,-12.28823 -6.60157,-13.73047 0.50537,-28.24216 5.77344,-60.24804 5.77344,-60.24804 z"
       id="path20089"
       inkscape:connector-curvature="0" />
    <path
       style="color:#000000;font-style:normal;font-variant:normal;font-weight:normal;font-stretch:normal;font-size:medium;line-height:normal;font-family:sans-serif;font-variant-ligatures:normal;font-variant-position:normal;font-variant-caps:normal;font-variant-numeric:normal;font-variant-alternates:normal;font-feature-settings:normal;text-indent:0;text-align:start;text-decoration:none;text-decoration-line:none;text-decoration-style:solid;text-decoration-color:#000000;letter-spacing:normal;word-spacing:normal;text-transform:none;writing-mode:lr-tb;direction:ltr;text-orientation:mixed;dominant-baseline:auto;baseline-shift:baseline;text-anchor:start;white-space:normal;shape-padding:0;clip-rule:nonzero;display:inline;overflow:visible;visibility:visible;opacity:1;isolation:auto;mix-blend-mode:normal;color-interpolation:sRGB;color-interpolation-filters:linearRGB;solid-color:#000000;solid-opacity:1;vector-effect:none;fill:#000000;fill-opacity:1;fill-rule:nonzero;stroke:none;stroke-width:12.94129467;stroke-linecap:butt;stroke-linejoin:miter;stroke-miterlimit:4;stroke-dasharray:none;stroke-dashoffset:0;stroke-opacity:1;color-rendering:auto;image-rendering:auto;shape-rendering:auto;text-rendering:auto;enable-background:accumulate"
       d="m 354.6875,181.0556 c 0,0 -8.49854,13.91914 -19.25391,29.00782 -5.37768,7.54434 -11.31496,15.36512 -16.91797,21.76758 -5.603,6.40245 -11.14091,11.37192 -14.23828,13.01171 l -0.14257,0.0762 -0.13672,0.082 c 0,0 -3.7385,2.30314 -11.23243,3.33984 -7.49392,1.0367 -18.1856,0.61122 -31.29492,-6.00586 l -5.83203,11.55274 c 15.48716,7.81732 29.16834,8.6178 38.90039,7.27148 9.59811,-1.32779 15.77962,-4.88145 15.95117,-4.98047 6.10089,-3.27691 11.76326,-8.96764 17.76368,-15.82422 6.0532,-6.91689 12.18473,-15.01564 17.71875,-22.77929 11.06802,-15.52731 19.76172,-29.7754 19.76172,-29.7754 z"
       id="path20091"
       inkscape:connector-curvature="0" />
    <path
       style="color:#000000;font-style:normal;font-variant:normal;font-weight:normal;font-stretch:normal;font-size:medium;line-height:normal;font-family:sans-serif;font-variant-ligatures:normal;font-variant-position:normal;font-variant-caps:normal;font-variant-numeric:normal;font-variant-alternates:normal;font-feature-settings:normal;text-indent:0;text-align:start;text-decoration:none;text-decoration-line:none;text-decoration-style:solid;text-decoration-color:#000000;letter-spacing:normal;word-spacing:normal;text-transform:none;writing-mode:lr-tb;direction:ltr;text-orientation:mixed;dominant-baseline:auto;baseline-shift:baseline;text-anchor:start;white-space:normal;shape-padding:0;clip-rule:nonzero;display:inline;overflow:visible;visibility:visible;opacity:1;isolation:auto;mix-blend-mode:normal;color-interpolation:sRGB;color-interpolation-filters:linearRGB;solid-color:#000000;solid-opacity:1;vector-effect:none;fill:#000000;fill-opacity:1;fill-rule:nonzero;stroke:none;stroke-width:12.94129467;stroke-linecap:butt;stroke-linejoin:miter;stroke-miterlimit:4;stroke-dasharray:none;stroke-dashoffset:0;stroke-opacity:1;color-rendering:auto;image-rendering:auto;shape-rendering:auto;text-rendering:auto;enable-background:accumulate"
       d="m 218.48438,190.66889 -4.28711,12.20898 c 12.41225,4.35851 18.64758,15.12476 20.42187,18.62891 -2.96463,14.15593 2.51953,27.32031 2.51953,27.32031 l 0.29492,0.75781 0.47461,0.66211 c 2.46854,3.44374 5.27408,3.53105 7.23633,3.76563 1.96225,0.23457 3.75439,0.18487 5.45899,0.13476 1.70459,-0.0501 3.30192,-0.11962 4.41601,-0.0996 1.11409,0.02 1.86403,0.46102 0.64649,-0.14648 l 5.77734,-11.58008 c -2.72171,-1.35801 -4.42163,-1.18111 -6.19141,-1.21289 -1.76978,-0.0318 -3.48968,0.0583 -5.02929,0.10351 -0.76089,0.0224 -1.13951,-0.0154 -1.75,-0.0234 -1.0111,-3.46136 -3.02534,-11.29139 -0.85938,-18.78907 l 0.625,-2.16796 -0.85742,-2.08594 c 0,0 -8.00443,-20.14041 -28.89648,-27.47656 z m 28.25,50.42187 c 0.0147,0.006 0.0623,0.0673 0.0781,0.0742 -0.0251,-0.003 -0.10784,8e-4 -0.13086,-0.002 -0.31146,-0.0372 -0.26606,-0.19511 0.0527,-0.0723 z"
       id="path20099"
       inkscape:connector-curvature="0" />
    <path
       style="color:#000000;font-style:normal;font-variant:normal;font-weight:normal;font-stretch:normal;font-size:medium;line-height:normal;font-family:sans-serif;font-variant-ligatures:normal;font-variant-position:normal;font-variant-caps:normal;font-variant-numeric:normal;font-variant-alternates:normal;font-feature-settings:normal;text-indent:0;text-align:start;text-decoration:none;text-decoration-line:none;text-decoration-style:solid;text-decoration-color:#000000;letter-spacing:normal;word-spacing:normal;text-transform:none;writing-mode:lr-tb;direction:ltr;text-orientation:mixed;dominant-baseline:auto;baseline-shift:baseline;text-anchor:start;white-space:normal;shape-padding:0;clip-rule:nonzero;display:inline;overflow:visible;visibility:visible;opacity:1;isolation:auto;mix-blend-mode:normal;color-interpolation:sRGB;color-interpolation-filters:linearRGB;solid-color:#000000;solid-opacity:1;vector-effect:none;fill:#000000;fill-opacity:1;fill-rule:nonzero;stroke:none;stroke-width:12.94129467;stroke-linecap:butt;stroke-linejoin:miter;stroke-miterlimit:4;stroke-dasharray:none;stroke-dashoffset:0;stroke-opacity:1;color-rendering:auto;image-rendering:auto;shape-rendering:auto;text-rendering:auto;enable-background:accumulate"
       d="m 273.01367,174.6181 -11.21679,6.45508 c 3.80133,6.60703 5.12662,15.87916 5.55078,19.20508 -2.68088,2.41718 -8.66423,6.29892 -14.5,8.92969 -7.05921,3.18229 -13.43164,5.23633 -13.43164,5.23633 l 3.96093,12.32031 c 0,0 6.97125,-2.23549 14.78907,-5.75977 7.81781,-3.52427 16.63901,-7.49246 21.51367,-15.18359 l 1.14648,-1.81055 -0.16015,-2.13672 c 0,0 -0.74713,-15.25404 -7.65235,-27.25586 z"
       id="path20101"
       inkscape:connector-curvature="0" />
    <path
       style="color:#000000;font-style:normal;font-variant:normal;font-weight:normal;font-stretch:normal;font-size:medium;line-height:normal;font-family:sans-serif;font-variant-ligatures:normal;font-variant-position:normal;font-variant-caps:normal;font-variant-numeric:normal;font-variant-alternates:normal;font-feature-settings:normal;text-indent:0;text-align:start;text-decoration:none;text-decoration-line:none;text-decoration-style:solid;text-decoration-color:#000000;letter-spacing:normal;word-spacing:normal;text-transform:none;writing-mode:lr-tb;direction:ltr;text-orientation:mixed;dominant-baseline:auto;baseline-shift:baseline;text-anchor:start;white-space:normal;shape-padding:0;clip-rule:nonzero;display:inline;overflow:visible;visibility:visible;opacity:1;isolation:auto;mix-blend-mode:normal;color-interpolation:sRGB;color-interpolation-filters:linearRGB;solid-color:#000000;solid-opacity:1;vector-effect:none;fill:#000000;fill-opacity:1;fill-rule:nonzero;stroke:none;stroke-width:12.94129467;stroke-linecap:butt;stroke-linejoin:miter;stroke-miterlimit:4;stroke-dasharray:none;stroke-dashoffset:0;stroke-opacity:1;color-rendering:auto;image-rendering:auto;shape-rendering:auto;text-rendering:auto;enable-background:accumulate"
       d="m 319.39258,182.30365 c -14.63876,9.17365 -25.90953,12.46263 -33.31641,13.56836 -7.40687,1.10573 -10.24804,0.21875 -10.24805,0.21875 l -3.22851,12.53125 c 0,0 6.14639,1.42827 15.38672,0.0488 9.24033,-1.37944 22.27706,-5.37546 38.27734,-15.40234 z"
       id="path20103"
       inkscape:connector-curvature="0" />
    <path
       style="color:#000000;font-style:normal;font-variant:normal;font-weight:normal;font-stretch:normal;font-size:medium;line-height:normal;font-family:sans-serif;font-variant-ligatures:normal;font-variant-position:normal;font-variant-caps:normal;font-variant-numeric:normal;font-variant-alternates:normal;font-feature-settings:normal;text-indent:0;text-align:start;text-decoration:none;text-decoration-line:none;text-decoration-style:solid;text-decoration-color:#000000;letter-spacing:normal;word-spacing:normal;text-transform:none;writing-mode:lr-tb;direction:ltr;text-orientation:mixed;dominant-baseline:auto;baseline-shift:baseline;text-anchor:start;white-space:normal;shape-padding:0;clip-rule:nonzero;display:inline;overflow:visible;visibility:visible;opacity:1;isolation:auto;mix-blend-mode:normal;color-interpolation:sRGB;color-interpolation-filters:linearRGB;solid-color:#000000;solid-opacity:1;vector-effect:none;fill:#000000;fill-opacity:1;fill-rule:nonzero;stroke:none;stroke-width:12.94129467;stroke-linecap:butt;stroke-linejoin:miter;stroke-miterlimit:4;stroke-dasharray:none;stroke-dashoffset:0;stroke-opacity:1;color-rendering:auto;image-rendering:auto;shape-rendering:auto;text-rendering:auto;enable-background:accumulate"
       d="m 269.27734,198.17279 c -3.46481,4.08844 -3.48684,9.35781 -2.53711,13.45899 0.94974,4.10118 2.81097,7.81359 4.79102,11.17968 3.96011,6.7322 8.70117,12.12305 8.70117,12.12305 l 9.75196,-8.50781 c 0,0 -4.10982,-4.75445 -7.29883,-10.17578 -1.59451,-2.71067 -2.88335,-5.57625 -3.33789,-7.53907 -0.45455,-1.96281 -0.13684,-2.24318 -0.19727,-2.17187 z"
       id="path20107"
       inkscape:connector-curvature="0" />
    <path
       style="color:#000000;font-style:normal;font-variant:normal;font-weight:normal;font-stretch:normal;font-size:medium;line-height:normal;font-family:sans-serif;font-variant-ligatures:normal;font-variant-position:normal;font-variant-caps:normal;font-variant-numeric:normal;font-variant-alternates:normal;font-feature-settings:normal;text-indent:0;text-align:start;text-decoration:none;text-decoration-line:none;text-decoration-style:solid;text-decoration-color:#000000;letter-spacing:normal;word-spacing:normal;text-transform:none;writing-mode:lr-tb;direction:ltr;text-orientation:mixed;dominant-baseline:auto;baseline-shift:baseline;text-anchor:start;white-space:normal;shape-padding:0;clip-rule:nonzero;display:inline;overflow:visible;visibility:visible;opacity:1;isolation:auto;mix-blend-mode:normal;color-interpolation:sRGB;color-interpolation-filters:linearRGB;solid-color:#000000;solid-opacity:1;vector-effect:none;fill:#000000;fill-opacity:1;fill-rule:nonzero;stroke:none;stroke-width:12.94129467;stroke-linecap:butt;stroke-linejoin:miter;stroke-miterlimit:4;stroke-dasharray:none;stroke-dashoffset:0;stroke-opacity:1;color-rendering:auto;image-rendering:auto;shape-rendering:auto;text-rendering:auto;enable-background:accumulate"
       d="m 254.89258,116.43256 -1.93555,12.79687 c 0,0 26.2644,3.98786 52.38281,11.36914 13.05921,3.69064 26.07039,8.27166 35.34571,13.31055 4.63765,2.51944 8.31024,5.16936 10.55468,7.54102 2.24445,2.37165 2.94604,4.15503 2.97461,5.62695 l 12.93946,-0.25195 c -0.10757,-5.54104 -2.84522,-10.39511 -6.51368,-14.27149 -3.66845,-3.87638 -8.3807,-7.08386 -13.77734,-10.01562 -10.79327,-5.86353 -24.44115,-10.55963 -38.0039,-14.39258 -27.12552,-7.6659 -53.9668,-11.71289 -53.9668,-11.71289 z"
       id="path20109"
       inkscape:connector-curvature="0" />
    <path
       style="color:#000000;font-style:normal;font-variant:normal;font-weight:normal;font-stretch:normal;font-size:medium;line-height:normal;font-family:sans-serif;font-variant-ligatures:normal;font-variant-position:normal;font-variant-caps:normal;font-variant-numeric:normal;font-variant-alternates:normal;font-feature-settings:normal;text-indent:0;text-align:start;text-decoration:none;text-decoration-line:none;text-decoration-style:solid;text-decoration-color:#000000;letter-spacing:normal;word-spacing:normal;text-transform:none;writing-mode:lr-tb;direction:ltr;text-orientation:mixed;dominant-baseline:auto;baseline-shift:baseline;text-anchor:start;white-space:normal;shape-padding:0;clip-rule:nonzero;display:inline;overflow:visible;visibility:visible;opacity:1;isolation:auto;mix-blend-mode:normal;color-interpolation:sRGB;color-interpolation-filters:linearRGB;solid-color:#000000;solid-opacity:1;vector-effect:none;fill:#000000;fill-opacity:1;fill-rule:nonzero;stroke:none;stroke-width:12.94129467;stroke-linecap:butt;stroke-linejoin:miter;stroke-miterlimit:4;stroke-dasharray:none;stroke-dashoffset:0;stroke-opacity:1;color-rendering:auto;image-rendering:auto;shape-rendering:auto;text-rendering:auto;enable-background:accumulate"
       d="m 242.13477,-133.39166 c -3.11458,-0.0581 -6.07829,0.70934 -8.66407,1.91601 -6.8954,3.2178 -12.37139,9.11223 -12.41601,17.17774 l 0.002,-0.14258 -1.16406,42.246085 0.0156,0.26368 c 0.32743,6.05716 -0.66159,19.41927 -1.80664,30.72656 -1.13904,11.24804 -2.3621,20.64871 -2.375,20.74805 l -19.99023,110.33007 12.73437,2.30664 20.05664,-110.69921 0.0215,-0.16016 c 0,0 1.26182,-9.70739 2.42773,-21.2207 1.16591,-11.51332 2.29644,-24.53484 1.85352,-32.72852 l 0.008,0.52734 1.15625,-42.054675 v -0.0703 c 0.002,-0.41234 2.09929,-4.19349 4.94922,-5.52343 1.42497,-0.66498 2.72327,-0.82663 3.75781,-0.61524 1.03455,0.21139 2.07481,0.66831 3.46485,2.58399 l 0.0156,0.0215 0.0156,0.0215 c 0,0 13.21006,19.123725 12.41796,35.123035 l -0.0176,0.35938 0.0215,0.35742 c 0,0 0.27939,4.58864 0.37305,10.16016 0.0937,5.57151 -0.11471,12.34992 -0.65625,15.19336 l -0.27539,1.44335 0.375,1.41993 c 0,0 2.38617,9.04276 4.09961,21.23046 1.71344,12.18771 2.5874,27.4447103 0.0566,38.6523503 l -0.15625,0.69141 -0.002,0.70703 c 0,0 -0.067,15.0527797 0.0723,30.2792897 0.0696,7.61326 0.19096,15.26414 0.40039,21.17188 0.10472,2.95387 0.22762,5.45548 0.39453,7.41406 0.0835,0.97929 0.16826,1.8025 0.31641,2.65039 0.0741,0.42395 0.1506,0.84037 0.35351,1.4707 0.20292,0.63034 -0.18393,1.63334 2.57422,3.58008 l 7.46289,-10.57226 c 2.65584,1.87452 2.17337,2.69024 2.28125,3.02539 0.10789,0.33514 0.0901,0.34922 0.0762,0.26953 -0.0278,-0.15938 -0.10391,-0.74692 -0.16992,-1.52149 -0.13202,-1.54913 -0.25664,-3.93267 -0.35742,-6.77539 -0.20155,-5.68544 -0.32153,-13.27463 -0.39062,-20.83007 -0.13673,-14.95208 -0.0736,-29.4788197 -0.0723,-29.7890697 2.89832,-13.86925 1.75158,-29.5850203 -0.0254,-42.2246103 -1.66129,-11.81675 -3.74138,-20.0581 -4.13281,-21.58398 0.72782,-4.96632 0.80404,-10.81332 0.71484,-16.11914 -0.099,-5.88694 -0.39648,-10.73438 -0.39648,-10.73438 l 0.004,0.71485 c 1.13054,-22.835245 -14.80598,-43.287785 -14.89844,-43.406245 l -0.004,-0.004 c -2.97531,-4.0982 -7.09316,-6.79124 -11.3457,-7.66015 -1.06354,-0.21732 -2.11806,-0.32828 -3.15625,-0.34766 z"
       id="path20111"
       inkscape:connector-curvature="0" />
    <path
       style="color:#000000;font-style:normal;font-variant:normal;font-weight:normal;font-stretch:normal;font-size:medium;line-height:normal;font-family:sans-serif;font-variant-ligatures:normal;font-variant-position:normal;font-variant-caps:normal;font-variant-numeric:normal;font-variant-alternates:normal;font-feature-settings:normal;text-indent:0;text-align:start;text-decoration:none;text-decoration-line:none;text-decoration-style:solid;text-decoration-color:#000000;letter-spacing:normal;word-spacing:normal;text-transform:none;writing-mode:lr-tb;direction:ltr;text-orientation:mixed;dominant-baseline:auto;baseline-shift:baseline;text-anchor:start;white-space:normal;shape-padding:0;clip-rule:nonzero;display:inline;overflow:visible;visibility:visible;opacity:1;isolation:auto;mix-blend-mode:normal;color-interpolation:sRGB;color-interpolation-filters:linearRGB;solid-color:#000000;solid-opacity:1;vector-effect:none;fill:#000000;fill-opacity:1;fill-rule:nonzero;stroke:none;stroke-width:6.47064734;stroke-linecap:butt;stroke-linejoin:miter;stroke-miterlimit:4;stroke-dasharray:none;stroke-dashoffset:0;stroke-opacity:1;color-rendering:auto;image-rendering:auto;shape-rendering:auto;text-rendering:auto;enable-background:accumulate"
       d="m 393.57031,138.97943 c -6.67395,12.32903 -6.64621,23.03326 -4.7832,30.51172 1.86301,7.47847 5.63281,12.00977 5.63281,12.00977 l 2.13281,2.54101 2.48633,-2.19726 c 0,0 0.80713,-0.75047 1.58985,-1.88867 0.78272,-1.13821 1.72373,-2.82344 2.54882,-5.16016 1.6502,-4.67344 2.83136,-11.92605 1.57227,-22.65625 l -6.42578,0.75391 c 1.16554,9.93292 0.0276,16.13337 -1.24805,19.74609 -0.0689,0.19505 -0.12199,0.21423 -0.1914,0.39453 -0.64797,-1.40577 -1.30005,-3.02683 -1.81836,-5.10742 -1.53119,-6.14648 -1.74463,-14.89414 4.19531,-25.86719 z"
       id="path20113"
       inkscape:connector-curvature="0" />
    <path
       style="color:#000000;font-style:normal;font-variant:normal;font-weight:normal;font-stretch:normal;font-size:medium;line-height:normal;font-family:sans-serif;font-variant-ligatures:normal;font-variant-position:normal;font-variant-caps:normal;font-variant-numeric:normal;font-variant-alternates:normal;font-feature-settings:normal;text-indent:0;text-align:start;text-decoration:none;text-decoration-line:none;text-decoration-style:solid;text-decoration-color:#000000;letter-spacing:normal;word-spacing:normal;text-transform:none;writing-mode:lr-tb;direction:ltr;text-orientation:mixed;dominant-baseline:auto;baseline-shift:baseline;text-anchor:start;white-space:normal;shape-padding:0;clip-rule:nonzero;display:inline;overflow:visible;visibility:visible;opacity:1;isolation:auto;mix-blend-mode:normal;color-interpolation:sRGB;color-interpolation-filters:linearRGB;solid-color:#000000;solid-opacity:1;vector-effect:none;fill:#000000;fill-opacity:1;fill-rule:nonzero;stroke:none;stroke-width:6.47064734;stroke-linecap:butt;stroke-linejoin:miter;stroke-miterlimit:4;stroke-dasharray:none;stroke-dashoffset:0;stroke-opacity:1;color-rendering:auto;image-rendering:auto;shape-rendering:auto;text-rendering:auto;enable-background:accumulate"
       d="m 234.30273,-120.82135 -3.54101,5.41602 c 7.33231,4.79419 6.07049,14.87304 5.80273,16.591785 -3.47221,4.93523 -8.48828,7.42774 -8.48828,7.42774 l 2.74805,5.85937 c 0,0 6.92021,-3.16985 11.53711,-10.20507 l 0.33984,-0.51758 0.125,-0.60742 c 0,0 3.50447,-16.100455 -8.52344,-23.964845 z"
       id="path20115"
       inkscape:connector-curvature="0" />
    <path
       style="color:#000000;font-style:normal;font-variant:normal;font-weight:normal;font-stretch:normal;font-size:medium;line-height:normal;font-family:sans-serif;font-variant-ligatures:normal;font-variant-position:normal;font-variant-caps:normal;font-variant-numeric:normal;font-variant-alternates:normal;font-feature-settings:normal;text-indent:0;text-align:start;text-decoration:none;text-decoration-line:none;text-decoration-style:solid;text-decoration-color:#000000;letter-spacing:normal;word-spacing:normal;text-transform:none;writing-mode:lr-tb;direction:ltr;text-orientation:mixed;dominant-baseline:auto;baseline-shift:baseline;text-anchor:start;white-space:normal;shape-padding:0;clip-rule:nonzero;display:inline;overflow:visible;visibility:visible;opacity:1;isolation:auto;mix-blend-mode:normal;color-interpolation:sRGB;color-interpolation-filters:linearRGB;solid-color:#000000;solid-opacity:1;vector-effect:none;fill:#000000;fill-opacity:1;fill-rule:nonzero;stroke:none;stroke-width:12.94129467;stroke-linecap:butt;stroke-linejoin:miter;stroke-miterlimit:4;stroke-dasharray:none;stroke-dashoffset:0;stroke-opacity:1;color-rendering:auto;image-rendering:auto;shape-rendering:auto;text-rendering:auto;enable-background:accumulate"
       d="m 249.31641,244.46381 -12.29883,4.02734 c 0,0 3.73612,11.45439 4.72656,26.27344 0.99044,14.81904 -0.99039,32.26766 -11.09766,44.36328 l 9.93164,8.29883 c 13.38731,-16.02092 15.18439,-36.97343 14.07813,-53.52539 -1.10626,-16.55197 -5.33984,-29.4375 -5.33984,-29.4375 z"
       id="path20117"
       inkscape:connector-curvature="0" />
    <path
       style="color:#000000;font-style:normal;font-variant:normal;font-weight:normal;font-stretch:normal;font-size:medium;line-height:normal;font-family:sans-serif;font-variant-ligatures:normal;font-variant-position:normal;font-variant-caps:normal;font-variant-numeric:normal;font-variant-alternates:normal;font-feature-settings:normal;text-indent:0;text-align:start;text-decoration:none;text-decoration-line:none;text-decoration-style:solid;text-decoration-color:#000000;letter-spacing:normal;word-spacing:normal;text-transform:none;writing-mode:lr-tb;direction:ltr;text-orientation:mixed;dominant-baseline:auto;baseline-shift:baseline;text-anchor:start;white-space:normal;shape-padding:0;clip-rule:nonzero;display:inline;overflow:visible;visibility:visible;opacity:1;isolation:auto;mix-blend-mode:normal;color-interpolation:sRGB;color-interpolation-filters:linearRGB;solid-color:#000000;solid-opacity:1;vector-effect:none;fill:#000000;fill-opacity:1;fill-rule:nonzero;stroke:none;stroke-width:25.16536522;stroke-linecap:butt;stroke-linejoin:miter;stroke-miterlimit:4;stroke-dasharray:none;stroke-dashoffset:0;stroke-opacity:1;color-rendering:auto;image-rendering:auto;shape-rendering:auto;text-rendering:auto;enable-background:accumulate"
       d="m 730.3418,-217.15338 c -96.97705,-0.0282 -163.59721,38.90794 -201.91602,97.15625 -38.32222,58.253485 -49.01432,134.318985 -40.63867,209.613275 8.37565,75.294295 35.85605,150.148595 76.42773,206.996095 40.57169,56.84751 95.19658,96.45017 157.32618,96.08008 62.10033,-0.36995 116.27735,-40.38645 156.60937,-97.42578 40.33202,-57.03933 67.76193,-131.86541 76.87109,-206.972655 9.10917,-75.10725 -0.0152,-150.77215 -35.40429,-208.794925 -35.38578,-58.01729 -98.09016,-96.98063 -189.27539,-96.65234 z m 0.0156,25.16406 h 0.0254 0.0274 c 84.21602,-0.31004 136.45062,33.31926 167.72265,84.5918 31.27204,51.272535 40.524,121.604815 31.90625,192.660155 -8.61774,71.055335 -35.01862,142.557935 -72.43554,195.474605 -37.41693,52.91668 -84.90829,86.48343 -136.2129,86.78907 -51.27528,0.30543 -99.09791,-32.85668 -136.6914,-85.53125 -37.59349,-52.67457 -63.99559,-124.10052 -71.90039,-195.162115 -7.90481,-71.06159 2.72529,-141.42759 36.65234,-192.999995 33.92706,-51.57241 90.47332,-85.85502 180.90625,-85.82227 z"
       id="path10-9-5-4"
       inkscape:connector-curvature="0" />
    <path
       style="color:#000000;font-style:normal;font-variant:normal;font-weight:normal;font-stretch:normal;font-size:medium;line-height:normal;font-family:sans-serif;font-variant-ligatures:normal;font-variant-position:normal;font-variant-caps:normal;font-variant-numeric:normal;font-variant-alternates:normal;font-feature-settings:normal;text-indent:0;text-align:start;text-decoration:none;text-decoration-line:none;text-decoration-style:solid;text-decoration-color:#000000;letter-spacing:normal;word-spacing:normal;text-transform:none;writing-mode:lr-tb;direction:ltr;text-orientation:mixed;dominant-baseline:auto;baseline-shift:baseline;text-anchor:start;white-space:normal;shape-padding:0;clip-rule:nonzero;display:inline;overflow:visible;visibility:visible;opacity:1;isolation:auto;mix-blend-mode:normal;color-interpolation:sRGB;color-interpolation-filters:linearRGB;solid-color:#000000;solid-opacity:1;vector-effect:none;fill:#000000;fill-opacity:1;fill-rule:nonzero;stroke:none;stroke-width:12.58268261;stroke-linecap:butt;stroke-linejoin:miter;stroke-miterlimit:4;stroke-dasharray:none;stroke-dashoffset:0;stroke-opacity:1;color-rendering:auto;image-rendering:auto;shape-rendering:auto;text-rendering:auto;enable-background:accumulate"
       d="m 637.9375,-16.778385 c -12.49069,0.119 -22.59039,5.14042 -29.0957,12.6543003 -6.52278,7.53405 -9.55658,17.2573697 -9.46875,26.8320297 0.0878,9.57466 3.29403,19.18241 9.89648,26.48828 6.58263,7.28393 16.68637,11.94526 28.91602,11.56445 11.99488,-0.0313 21.75515,-5.12307 27.95117,-12.64258 6.2151,-7.54266 9.06958,-17.20171 9.00781,-26.72656 -0.0618,-9.52484 -3.03806,-19.0946297 -9.32031,-26.4511697 -6.266,-7.3375103 -16.06276,-12.1270903 -27.88672,-11.7187503 z m 0.375,12.5683603 c 8.43751,-0.3104 13.94107,2.63361 17.94336,7.32031 4.00229,4.6867 6.26185,11.4550797 6.30664,18.3613297 0.0448,6.90625 -2.12056,13.77051 -6.13672,18.64453 -4.01615,4.87402 -9.66244,8.07227 -18.3457,8.07227 h -0.10547 l -0.10547,0.004 c -9.03123,0.3034 -15.023,-2.74112 -19.26367,-7.43359 -4.24067,-4.69247 -6.58794,-11.3579 -6.65039,-18.16602 -0.0624,-6.80811 2.15518,-13.5770897 6.40039,-18.4804697 4.24521,-4.90336997 10.39695,-8.24892 19.77148,-8.31835 h 0.0918 z"
       id="path87-7-6"
       inkscape:connector-curvature="0" />
    <path
       style="color:#000000;font-style:normal;font-variant:normal;font-weight:normal;font-stretch:normal;font-size:medium;line-height:normal;font-family:sans-serif;font-variant-ligatures:normal;font-variant-position:normal;font-variant-caps:normal;font-variant-numeric:normal;font-variant-alternates:normal;font-feature-settings:normal;text-indent:0;text-align:start;text-decoration:none;text-decoration-line:none;text-decoration-style:solid;text-decoration-color:#000000;letter-spacing:normal;word-spacing:normal;text-transform:none;writing-mode:lr-tb;direction:ltr;text-orientation:mixed;dominant-baseline:auto;baseline-shift:baseline;text-anchor:start;white-space:normal;shape-padding:0;clip-rule:nonzero;display:inline;overflow:visible;visibility:visible;opacity:1;isolation:auto;mix-blend-mode:normal;color-interpolation:sRGB;color-interpolation-filters:linearRGB;solid-color:#000000;solid-opacity:1;vector-effect:none;fill:#000000;fill-opacity:1;fill-rule:nonzero;stroke:none;stroke-width:12.58268261;stroke-linecap:butt;stroke-linejoin:miter;stroke-miterlimit:4;stroke-dasharray:none;stroke-dashoffset:0;stroke-opacity:1;color-rendering:auto;image-rendering:auto;shape-rendering:auto;text-rendering:auto;enable-background:accumulate"
       d="m 637.39648,-40.895575 c -23.6305,0.63124 -46.19093,12.02543 -73.55468,32.3476603 l 7.50195,10.10156 c 26.50757,-19.6863703 46.6014,-29.3425203 66.38867,-29.8710903 19.78728,-0.52858 40.52782,8.00304 68.49805,27.44531033 l 7.18164,-10.33203033 c -28.94738,-20.12149 -52.38512,-30.32264 -76.01563,-29.69141 z"
       id="path59-19-7"
       inkscape:connector-curvature="0" />
    <path
       style="color:#000000;font-style:normal;font-variant:normal;font-weight:normal;font-stretch:normal;font-size:medium;line-height:normal;font-family:sans-serif;font-variant-ligatures:normal;font-variant-position:normal;font-variant-caps:normal;font-variant-numeric:normal;font-variant-alternates:normal;font-feature-settings:normal;text-indent:0;text-align:start;text-decoration:none;text-decoration-line:none;text-decoration-style:solid;text-decoration-color:#000000;letter-spacing:normal;word-spacing:normal;text-transform:none;writing-mode:lr-tb;direction:ltr;text-orientation:mixed;dominant-baseline:auto;baseline-shift:baseline;text-anchor:start;white-space:normal;shape-padding:0;clip-rule:nonzero;display:inline;overflow:visible;visibility:visible;opacity:1;isolation:auto;mix-blend-mode:normal;color-interpolation:sRGB;color-interpolation-filters:linearRGB;solid-color:#000000;solid-opacity:1;vector-effect:none;fill:#000000;fill-opacity:1;fill-rule:nonzero;stroke:none;stroke-width:12.58268261;stroke-linecap:butt;stroke-linejoin:miter;stroke-miterlimit:4;stroke-dasharray:none;stroke-dashoffset:0;stroke-opacity:1;color-rendering:auto;image-rendering:auto;shape-rendering:auto;text-rendering:auto;enable-background:accumulate"
       d="m 808.7793,-18.573305 c -12.4907,0.11898 -22.59039,5.14042 -29.09571,12.6543003 -6.52277,7.53404 -9.55657,17.2573697 -9.46875,26.8320297 0.0878,9.57465 3.29404,19.18242 9.89649,26.48828 6.58263,7.28393 16.68636,11.94526 28.91601,11.56445 11.9949,-0.0313 21.75514,-5.12112 27.95118,-12.64062 6.21512,-7.54267 9.06957,-17.20368 9.00781,-26.72852 -0.0618,-9.52484 -3.03805,-19.09463967 -9.32031,-26.4511697 C 830.4,-14.192065 820.60329,-18.981655 808.7793,-18.573305 Z m 0.37304,12.5683603 c 8.43757,-0.3104 13.94301,2.63557 17.94532,7.32226 4.0023,4.6867 6.26185,11.4550897 6.30664,18.3613297 0.0448,6.90624 -2.12055,13.77052 -6.13672,18.64453 -4.01617,4.87402 -9.66242,8.07227 -18.3457,8.07227 h -0.10547 l -0.10547,0.004 c -9.03124,0.30339 -15.02495,-2.74112 -19.26563,-7.43359 -4.24067,-4.69247 -6.58599,-11.35986 -6.64843,-18.16797 -0.0625,-6.80811 2.15518,-13.5770997 6.40039,-18.4804697 4.24521,-4.90337 10.39694,-8.24698 19.77148,-8.3164 l 0.0918,-0.002 z"
       id="path87-1-33-0"
       inkscape:connector-curvature="0" />
    <path
       style="color:#000000;font-style:normal;font-variant:normal;font-weight:normal;font-stretch:normal;font-size:medium;line-height:normal;font-family:sans-serif;font-variant-ligatures:normal;font-variant-position:normal;font-variant-caps:normal;font-variant-numeric:normal;font-variant-alternates:normal;font-feature-settings:normal;text-indent:0;text-align:start;text-decoration:none;text-decoration-line:none;text-decoration-style:solid;text-decoration-color:#000000;letter-spacing:normal;word-spacing:normal;text-transform:none;writing-mode:lr-tb;direction:ltr;text-orientation:mixed;dominant-baseline:auto;baseline-shift:baseline;text-anchor:start;white-space:normal;shape-padding:0;clip-rule:nonzero;display:inline;overflow:visible;visibility:visible;opacity:1;isolation:auto;mix-blend-mode:normal;color-interpolation:sRGB;color-interpolation-filters:linearRGB;solid-color:#000000;solid-opacity:1;vector-effect:none;fill:#000000;fill-opacity:1;fill-rule:nonzero;stroke:none;stroke-width:12.58268261;stroke-linecap:butt;stroke-linejoin:miter;stroke-miterlimit:4;stroke-dasharray:none;stroke-dashoffset:0;stroke-opacity:1;color-rendering:auto;image-rendering:auto;shape-rendering:auto;text-rendering:auto;enable-background:accumulate"
       d="m 809.66992,-42.448305 c -23.58071,0.048 -46.65998,10.84482 -75.01367,32.12695 l 7.55469,10.06250033 C 769.58026,-20.802135 789.93298,-29.824125 809.69531,-29.864325 c 19.76233,-0.0402 40.19001,8.98265 67.4668,27.2578203 l 7.00391,-10.4531303 c -28.08801,-18.81867 -50.91539,-29.43664 -74.4961,-29.38867 z"
       id="path59-1-9-1"
       inkscape:connector-curvature="0" />
    <path
       style="color:#000000;font-style:normal;font-variant:normal;font-weight:normal;font-stretch:normal;font-size:medium;line-height:normal;font-family:sans-serif;font-variant-ligatures:normal;font-variant-position:normal;font-variant-caps:normal;font-variant-numeric:normal;font-variant-alternates:normal;font-feature-settings:normal;text-indent:0;text-align:start;text-decoration:none;text-decoration-line:none;text-decoration-style:solid;text-decoration-color:#000000;letter-spacing:normal;word-spacing:normal;text-transform:none;writing-mode:lr-tb;direction:ltr;text-orientation:mixed;dominant-baseline:auto;baseline-shift:baseline;text-anchor:start;white-space:normal;shape-padding:0;clip-rule:nonzero;display:inline;overflow:visible;visibility:visible;opacity:1;isolation:auto;mix-blend-mode:normal;color-interpolation:sRGB;color-interpolation-filters:linearRGB;solid-color:#000000;solid-opacity:1;vector-effect:none;fill:#000000;fill-opacity:1;fill-rule:nonzero;stroke:none;stroke-width:12.58268261;stroke-linecap:butt;stroke-linejoin:miter;stroke-miterlimit:4;stroke-dasharray:none;stroke-dashoffset:0;stroke-opacity:1;color-rendering:auto;image-rendering:auto;shape-rendering:auto;text-rendering:auto;enable-background:accumulate"
       d="m 716.88086,85.926695 c 0,0 -1.41807,14.0055 -3.76563,28.716805 -1.17377,7.35564 -2.58803,14.88777 -4.10742,20.74023 -0.75969,2.92623 -1.55686,5.4391 -2.26953,7.17187 -0.71267,1.73278 -1.63177,2.63879 -0.9707,2.0879 -1.39236,1.16029 -2.86737,2.12956 -3.63867,5.21484 -0.38565,1.54264 -0.16443,3.84057 0.82031,5.44531 0.98474,1.60474 2.26428,2.39011 3.23242,2.8457 3.87255,1.82237 5.86108,1.123 8.49414,0.94141 5.26612,-0.36318 10.96875,-1.53711 10.96875,-1.53711 l -2.4668,-12.33984 c 0,0 -2.68935,0.34223 -4.3164,0.60937 0.83418,-2.23679 1.62386,-4.57213 2.32617,-7.27734 1.69795,-6.54026 3.14212,-14.3388 4.35156,-21.91797 2.41889,-15.15833 3.86133,-29.433595 3.86133,-29.433595 z"
       id="path971-8"
       inkscape:connector-curvature="0" />
    <path
       inkscape:connector-curvature="0"
       id="path29-0"
       d="m 809.38862,214.28938 c -47.98234,47.23621 -89.28969,49.11087 -120.81357,39.15425 -15.76194,-4.97826 -29.05545,-13.16602 -38.93682,-20.68756 -9.88135,-7.52169 -16.0694,-14.08613 -18.65907,-16.65175 l -8.87053,8.95514 c 1.99575,1.97728 9.19715,9.58141 19.89653,17.72572 10.69955,8.14431 25.17957,17.12038 42.77458,22.67765 35.18984,11.11442 82.92993,7.54371 133.45047,-42.19129 z"
       style="color:#000000;font-style:normal;font-variant:normal;font-weight:normal;font-stretch:normal;font-size:medium;line-height:normal;font-family:sans-serif;font-variant-ligatures:normal;font-variant-position:normal;font-variant-caps:normal;font-variant-numeric:normal;font-variant-alternates:normal;font-feature-settings:normal;text-indent:0;text-align:start;text-decoration:none;text-decoration-line:none;text-decoration-style:solid;text-decoration-color:#000000;letter-spacing:normal;word-spacing:normal;text-transform:none;writing-mode:lr-tb;direction:ltr;text-orientation:mixed;dominant-baseline:auto;baseline-shift:baseline;text-anchor:start;white-space:normal;shape-padding:0;clip-rule:nonzero;display:inline;overflow:visible;visibility:visible;opacity:1;isolation:auto;mix-blend-mode:normal;color-interpolation:sRGB;color-interpolation-filters:linearRGB;solid-color:#000000;solid-opacity:1;vector-effect:none;fill:#000000;fill-opacity:1;fill-rule:nonzero;stroke:none;stroke-width:12.60434818;stroke-linecap:butt;stroke-linejoin:miter;stroke-miterlimit:4;stroke-dasharray:none;stroke-dashoffset:0;stroke-opacity:1;color-rendering:auto;image-rendering:auto;shape-rendering:auto;text-rendering:auto;enable-background:accumulate" />
    <path
       style="font-style:normal;font-weight:normal;font-size:233.33332825px;line-height:1.25;font-family:sans-serif;letter-spacing:0px;word-spacing:0px;fill:#000000;fill-opacity:1;stroke:none"
       d="m 615.99023,851.60603 v 55.14257 c -5.69661,-2.9622 -11.12803,-5.1269 -16.29296,-6.4941 -5.16494,-1.4432 -11.08941,-2.1641 -17.77344,-2.1641 -7.36762,0 -14.50803,1.5185 -21.41992,4.5567 -6.83594,3.0381 -12.83507,7.4442 -18,13.2167 -5.24089,5.9245 -9.41906,13.1023 -12.53321,21.5333 -3.03819,8.4309 -4.55664,18.0386 -4.55664,28.8242 0,20.7356 4.44336,36.9515 13.33008,48.6485 8.96267,11.6971 21.0395,17.5469 36.23047,17.5469 7.82335,0 15.07574,-1.4811 21.75976,-4.4434 6.68403,-2.9622 13.10352,-7.1031 19.25586,-12.4199 v 13.3301 H 637.4082 V 851.60603 Z M 51,859.23885 V 1028.8835 H 72.07617 V 882.70955 l 46.82617,99.46285 h 13.44532 l 47.16796,-99.46285 v 146.17395 h 22.5586 V 859.23885 h -31.33203 l -43.75,94.44925 -45.23047,-94.44925 z m 399.67383,38.85155 c -7.51953,0 -14.84853,1.5558 -21.98828,4.6699 -7.13976,3.1142 -14.0523,7.4436 -20.73633,12.9883 V 901.6217 H 386.5293 v 127.2618 h 21.41992 v -95.0197 c 5.84852,-4.4813 11.96354,-8.1644 18.34375,-11.0507 6.38021,-2.8863 12.49327,-4.3301 18.3418,-4.3301 5.69661,0 10.33051,0.7975 13.90039,2.3926 3.56987,1.5191 6.30425,3.8743 8.20312,7.0644 1.82292,2.8863 3.07617,6.9113 3.75977,12.0762 0.68359,5.089 1.02539,10.5577 1.02539,16.4062 v 72.4611 h 21.41992 v -82.5997 c 0,-15.5708 -3.60851,-27.4963 -10.82422,-35.7754 -7.21571,-8.2791 -17.69748,-12.418 -31.44531,-12.418 z m -160.98633,0.4551 c -7.67144,0 -15.45616,0.6836 -23.35547,2.0508 -7.8993,1.3672 -13.93772,2.6204 -18.11523,3.7597 v 21.7618 h 1.13867 c 7.36762,-2.8104 14.50803,-4.9378 21.41992,-6.3809 6.91189,-1.5191 13.17817,-2.2793 18.79883,-2.2793 4.63325,0 9.0766,0.3045 13.33008,0.9121 4.25347,0.6076 7.8993,1.7843 10.9375,3.5313 3.1901,1.8229 5.62001,4.3294 7.29101,7.5195 1.74696,3.1901 2.6211,7.217 2.6211,12.0781 v 3.3027 c -12.4566,0.6077 -24.11697,1.5191 -34.97852,2.7344 -10.86154,1.2153 -20.16471,3.5332 -27.91211,6.9512 -7.67144,3.418 -13.59592,8.1265 -17.77344,14.1269 -4.10156,5.9245 -6.15234,13.7092 -6.15234,23.3555 0,11.773 3.98763,21.4573 11.96289,29.0528 7.97526,7.5955 17.69683,11.3945 29.16602,11.3945 6.22829,0 11.65972,-0.609 16.29297,-1.8242 4.63324,-1.1394 8.7348,-2.5811 12.30468,-4.3282 3.0382,-1.3671 6.1517,-3.1901 9.3418,-5.4687 3.26606,-2.3546 5.84917,-4.1775 7.74805,-5.4688 v 13.5567 h 21.30468 V 942.524 c 0,-8.2031 -1.25325,-15.0783 -3.75976,-20.623 -2.50651,-5.5447 -6.15235,-10.0628 -10.9375,-13.5567 -4.86111,-3.5699 -10.63433,-6.0764 -17.31836,-7.5195 -6.60807,-1.5191 -14.3928,-2.2793 -23.35547,-2.2793 z m 433.39844,0 c -7.67144,0 -15.45617,0.6836 -23.35547,2.0508 -7.89931,1.3672 -13.93772,2.6204 -18.11524,3.7597 v 21.7618 h 1.13868 c 7.36762,-2.8104 14.50803,-4.9378 21.41992,-6.3809 6.91189,-1.5191 13.17817,-2.2793 18.79883,-2.2793 4.63324,0 9.0766,0.3045 13.33007,0.9121 4.25348,0.6076 7.89931,1.7843 10.9375,3.5313 3.19011,1.8229 5.62001,4.3294 7.29102,7.5195 1.74696,3.1901 2.62109,7.217 2.62109,12.0781 v 3.3027 c -12.45659,0.6077 -24.11697,1.5191 -34.97851,2.7344 -10.86155,1.2153 -20.16472,3.5332 -27.91211,6.9512 -7.67144,3.418 -13.59592,8.1265 -17.77344,14.1269 -4.10156,5.9245 -6.15234,13.7092 -6.15234,23.3555 0,11.773 3.98763,21.4573 11.96289,29.0528 7.97526,7.5955 17.69683,11.3945 29.16601,11.3945 6.2283,0 11.65973,-0.609 16.29297,-1.8242 4.63325,-1.1394 8.73481,-2.5811 12.30469,-4.3282 3.03819,-1.3671 6.15169,-3.1901 9.3418,-5.4687 3.26606,-2.3546 5.84917,-4.1775 7.74804,-5.4688 v 13.5567 h 21.30469 V 942.524 c 0,-8.2031 -1.25325,-15.0783 -3.75976,-20.623 -2.50651,-5.5447 -6.15235,-10.0628 -10.9375,-13.5567 -4.86112,-3.5699 -10.63434,-6.0764 -17.31836,-7.5195 -6.60808,-1.5191 -14.3928,-2.2793 -23.35547,-2.2793 z m 96.84179,3.0762 v 127.2618 h 21.41993 v -90.3478 c 5.69661,-4.6332 11.62109,-8.393 17.77343,-11.2793 6.15235,-2.9622 12.53256,-4.4433 19.14063,-4.4433 4.10156,0 7.63346,0.1905 10.59565,0.5703 3.0382,0.3038 6.1517,0.8342 9.3418,1.5937 h 1.1407 v -21.9883 c -3.342,-0.5316 -5.8486,-0.8734 -7.5196,-1.0253 -1.671,-0.2279 -4.368,-0.3418 -8.0898,-0.3418 -6.75998,0 -13.40538,1.4438 -19.9375,4.33 -6.45616,2.8104 -13.93837,7.6329 -22.44531,14.4688 v -18.7988 z m -234.35742,16.0644 c 5.3928,0 10.36654,0.4931 14.92383,1.4805 4.55729,0.9874 9.72352,2.773 15.49609,5.3555 v 73.0312 c -5.39279,4.2536 -11.20334,7.746 -17.43164,10.4806 -6.2283,2.6584 -12.38064,3.9882 -18.45703,3.9882 -11.39323,0 -19.67296,-3.9112 -24.83789,-11.7345 -5.16493,-7.8992 -7.74805,-19.4064 -7.74805,-34.5214 0,-15.3429 3.34332,-27.1918 10.02735,-35.5469 6.68403,-8.355 16.02647,-12.5332 28.02734,-12.5332 z m -261.8164,44.4336 v 35.4336 c -5.31684,4.1015 -11.09006,7.6335 -17.31836,10.5957 -6.2283,2.8863 -13.10157,4.328 -20.6211,4.328 -9.03863,0 -15.76063,-1.8228 -20.16601,-5.4686 -4.40538,-3.7218 -6.60938,-9.2279 -6.60938,-16.5196 0,-6.4561 1.89953,-11.5065 5.69727,-15.1523 3.79774,-3.7218 8.77344,-6.4562 14.92578,-8.2031 5.16493,-1.4432 12.15213,-2.5452 20.96289,-3.3047 8.88672,-0.7596 16.59679,-1.3292 23.12891,-1.709 z m 433.39843,0 v 35.4336 c -5.31684,4.1015 -11.09006,7.6335 -17.31836,10.5957 -6.22829,2.8863 -13.10156,4.328 -20.62109,4.328 -9.03863,0 -15.76063,-1.8228 -20.16601,-5.4686 -4.40539,-3.7218 -6.60938,-9.2279 -6.60938,-16.5196 0,-6.4561 1.89952,-11.5065 5.69727,-15.1523 3.79774,-3.7218 8.77343,-6.4562 14.92578,-8.2031 5.16493,-1.4432 12.15212,-2.5452 20.96289,-3.3047 8.88672,-0.7596 16.59679,-1.3292 23.1289,-1.709 z"
       id="text9136"
       inkscape:connector-curvature="0" />
  </g>
</svg>
