<?xml version="1.0" encoding="UTF-8" standalone="no"?>
<!-- Created with Inkscape (http://www.inkscape.org/) -->

<svg
   xmlns:dc="http://purl.org/dc/elements/1.1/"
   xmlns:cc="http://creativecommons.org/ns#"
   xmlns:rdf="http://www.w3.org/1999/02/22-rdf-syntax-ns#"
   xmlns:svg="http://www.w3.org/2000/svg"
   xmlns="http://www.w3.org/2000/svg"
   xmlns:sodipodi="http://sodipodi.sourceforge.net/DTD/sodipodi-0.dtd"
   xmlns:inkscape="http://www.inkscape.org/namespaces/inkscape"
   width="1000"
   height="1000"
   viewBox="0 0 1000 1000"
   version="1.1"
   id="svg6249"
   inkscape:version="0.92.4 (5da689c313, 2019-01-14)"
   sodipodi:docname="Acontecer.svg">
  <defs
     id="defs6243" />
  <sodipodi:namedview
     id="base"
     pagecolor="#ffffff"
     bordercolor="#666666"
     borderopacity="1.0"
     inkscape:pageopacity="0.0"
     inkscape:pageshadow="2"
     inkscape:zoom="0.1767767"
     inkscape:cx="1944.874"
     inkscape:cy="1052.2232"
     inkscape:document-units="px"
     inkscape:current-layer="layer1"
     showgrid="false"
     units="px"
     inkscape:window-width="1366"
     inkscape:window-height="715"
     inkscape:window-x="-8"
     inkscape:window-y="-8"
     inkscape:window-maximized="1" />
  <metadata
     id="metadata6246">
    <rdf:RDF>
      <cc:Work
         rdf:about="">
        <dc:format>image/svg+xml</dc:format>
        <dc:type
           rdf:resource="http://purl.org/dc/dcmitype/StillImage" />
        <dc:title></dc:title>
      </cc:Work>
    </rdf:RDF>
  </metadata>
  <g
     inkscape:label="Camada 1"
     inkscape:groupmode="layer"
     id="layer1"
     transform="translate(0,-32.416649)">
    <path
       style="fill:none;stroke:#000000;stroke-width:15.94830418;stroke-linecap:butt;stroke-linejoin:miter;stroke-miterlimit:4;stroke-dasharray:none;stroke-opacity:1"
       d="m 202.87122,1029.3752 c 0,0 -9.64716,-45.34153 122.51825,-142.7773 0,0 24.11781,-22.18833 28.94136,-76.21216 0,0 1.92941,-28.94129 9.6471,-42.44724 0,0 18.32953,-28.94133 -4.82361,-51.12974 0,0 -22.18835,-30.87068 -24.1177,-43.41197 -1.22067,-33.53548 -31.94997,-57.89484 -38.82963,2.17057 0,0 -7.99979,44.334 5.64327,75.71307 0,0 -17.05384,32.06126 -21.82893,62.076 0,0 -23.87538,-26.60395 -2.04645,-144.61654 l 19.78249,-154.84894 c 0.47499,-37.80146 -42.37814,-44.6443 -51.84375,-0.68211 0,0 -10.23227,92.77287 -17.73604,112.55539 0,0 -10.23227,27.96828 -11.59657,55.25437 0,0 -18.41814,16.37176 -17.05389,-7.50362 0,0 2.04652,-131.65572 17.05389,-199.8711 2.72861,-51.26114 -53.20804,-62.30065 -61.39384,-5.4572 0,0 -5.45724,93.45503 -9.55017,116.64826 0,0 -1.36425,-64.8046 8.18581,-108.46241 0.54067,-57.44464 -57.25308,-38.68714 -57.300881,-0.34086 0,0 -8.18587,107.43923 -6.139343,138.13619 0,0 -9.550174,34.10763 -6.82155,74.35474 0,0 -8.86802,12.96085 -12.960956,-41.61137 0,0 -0.682155,-68.89757 10.232332,-109.14464 1.208676,-41.95836 -41.879474,-48.2438 -51.843692,-1.3643 0,0 -16.371731,90.72642 -13.643109,160.30615 0,0 -17.7359446,152.12022 5.457244,230.5679 0,0 12.278797,30.01481 8.868021,99.59446"
       id="path6302"
       inkscape:connector-curvature="0"
       sodipodi:nodetypes="ccccccccccccccccccccccccc" />
    <path
       style="fill:none;stroke:#000000;stroke-width:15.94830418;stroke-linecap:butt;stroke-linejoin:miter;stroke-miterlimit:4;stroke-dasharray:none;stroke-opacity:1"
       d="m 145.637,584.83494 c 0,0 -2.72862,61.39387 -0.68221,89.36219"
       id="path6304"
       inkscape:connector-curvature="0" />
    <path
       style="fill:none;stroke:#000000;stroke-width:15.94830418;stroke-linecap:butt;stroke-linejoin:miter;stroke-miterlimit:4;stroke-dasharray:none;stroke-opacity:1"
       d="m 29.670876,973.66257 c 0,0 74.354764,14.32512 92.772964,-17.05395"
       id="path6306"
       inkscape:connector-curvature="0"
       sodipodi:nodetypes="cc" />
    <path
       style="fill:none;stroke:#000000;stroke-width:15.94830418;stroke-linecap:butt;stroke-linejoin:miter;stroke-miterlimit:4;stroke-dasharray:none;stroke-opacity:1"
       d="m 301.85026,751.28043 c 0,0 10.91448,6.82151 36.15417,6.82151"
       id="path6308"
       inkscape:connector-curvature="0" />
    <path
       style="fill:none;stroke:#000000;stroke-width:15.94830418;stroke-linecap:butt;stroke-linejoin:miter;stroke-miterlimit:4;stroke-dasharray:none;stroke-opacity:1"
       d="m 250.00662,563.68819 c 0,0 17.05382,8.86799 32.06112,4.09291"
       id="path6310"
       inkscape:connector-curvature="0" />
    <path
       style="fill:none;stroke:#000000;stroke-width:15.94830418;stroke-linecap:butt;stroke-linejoin:miter;stroke-miterlimit:4;stroke-dasharray:none;stroke-opacity:1"
       d="m 239.77429,627.8106 c 0,0 19.10029,12.27879 32.06118,5.45724"
       id="path6312"
       inkscape:connector-curvature="0" />
    <path
       style="fill:none;stroke:#000000;stroke-width:15.94830418;stroke-linecap:butt;stroke-linejoin:miter;stroke-miterlimit:4;stroke-dasharray:none;stroke-opacity:1"
       d="m 164.05519,521.39464 c 0,0 12.9609,8.18581 33.42552,2.04649"
       id="path6314"
       inkscape:connector-curvature="0" />
    <path
       style="fill:none;stroke:#000000;stroke-width:15.94830418;stroke-linecap:butt;stroke-linejoin:miter;stroke-miterlimit:4;stroke-dasharray:none;stroke-opacity:1"
       d="m 162.00867,601.20666 c 0,0 12.27885,6.8215 27.28617,1.36433"
       id="path6316"
       inkscape:connector-curvature="0" />
    <path
       style="fill:none;stroke:#000000;stroke-width:15.94830418;stroke-linecap:butt;stroke-linejoin:miter;stroke-miterlimit:4;stroke-dasharray:none;stroke-opacity:1"
       d="m 105.38995,530.94475 c 0,0 16.37167,7.50373 30.01478,2.04652"
       id="path6318"
       inkscape:connector-curvature="0" />
    <path
       style="fill:none;stroke:#000000;stroke-width:15.94830418;stroke-linecap:butt;stroke-linejoin:miter;stroke-miterlimit:4;stroke-dasharray:none;stroke-opacity:1"
       d="m 103.34342,605.98171 c 3.94335,2.24708 13.91557,10.02923 29.10381,-1.56175"
       id="path6320"
       inkscape:connector-curvature="0"
       sodipodi:nodetypes="cc" />
    <path
       style="fill:none;stroke:#000000;stroke-width:15.94830418;stroke-linecap:butt;stroke-linejoin:miter;stroke-miterlimit:4;stroke-dasharray:none;stroke-opacity:1"
       d="m 35.976155,576.44336 c 0,0 13.023578,6.75292 25.082431,1.44706"
       id="path6322"
       inkscape:connector-curvature="0" />
    <path
       style="fill:none;stroke:#000000;stroke-width:15.94830418;stroke-linecap:butt;stroke-linejoin:miter;stroke-miterlimit:4;stroke-dasharray:none;stroke-opacity:1"
       d="m 32.11728,637.7025 c 0,0 10.129498,11.5766 25.082548,0.48224"
       id="path6324"
       inkscape:connector-curvature="0" />
    <path
       style="fill:none;stroke:#000000;stroke-width:15.94830418;stroke-linecap:butt;stroke-linejoin:miter;stroke-miterlimit:4;stroke-dasharray:none;stroke-opacity:1"
       d="m 280.02133,813.35643 c 0,0 15.00736,21.14681 17.73604,48.4329"
       id="path6326"
       inkscape:connector-curvature="0" />
    <path
       style="fill:none;stroke:#000000;stroke-width:15.94830418;stroke-linecap:butt;stroke-linejoin:miter;stroke-miterlimit:4;stroke-dasharray:none;stroke-opacity:1"
       d="m 131.31179,910.22224 c 0,0 15.68951,66.85096 98.91232,62.75814"
       id="path6328"
       inkscape:connector-curvature="0" />
    <path
       style="fill:none;stroke:#000000;stroke-width:15.94830418;stroke-linecap:butt;stroke-linejoin:miter;stroke-miterlimit:4;stroke-dasharray:none;stroke-opacity:1"
       d="m 10.911631,762.19484 c 0,0 92.772899,-4.77505 122.787679,13.64312"
       id="path6330"
       inkscape:connector-curvature="0"
       sodipodi:nodetypes="cc" />
    <path
       style="fill:none;stroke:#000000;stroke-width:15.94830418;stroke-linecap:butt;stroke-linejoin:miter;stroke-miterlimit:4;stroke-dasharray:none;stroke-opacity:1"
       d="m 130.51782,803.15044 c 0,0 61.74151,-39.07084 95.02402,-41.48266"
       id="path6332"
       inkscape:connector-curvature="0" />
    <path
       style="fill:none;stroke:#000000;stroke-width:15.94830418;stroke-linecap:butt;stroke-linejoin:miter;stroke-miterlimit:4;stroke-dasharray:none;stroke-opacity:1"
       d="m 270.88328,788.1974 c 0,0 -21.70602,-11.09416 -57.40028,2.41175"
       id="path6334"
       inkscape:connector-curvature="0" />
    <path
       style="fill:none;stroke:#000000;stroke-width:15.94830418;stroke-linecap:butt;stroke-linejoin:miter;stroke-miterlimit:4;stroke-dasharray:none;stroke-opacity:1"
       d="m 235.18901,773.72676 c 0,0 19.77655,-5.78826 33.76491,0.48223"
       id="path6336"
       inkscape:connector-curvature="0" />
    <path
       style="fill:none;stroke:#000000;stroke-width:15.94830418;stroke-linecap:butt;stroke-linejoin:miter;stroke-miterlimit:4;stroke-dasharray:none;stroke-opacity:1"
       d="m 1166.5397,632.11363 c 0,0 24.9709,-93.43935 37.859,-107.13303 0,0 12.8883,-37.05346 3.2221,-64.4409 0,0 -14.4992,-37.05342 26.5819,-117.60448 0,0 22.5543,-74.10701 -24.9709,-63.6354 0,0 -39.4701,21.74882 -45.9142,91.02268 0,0 7.2496,69.27398 -57.9968,-7.24957 0,0 3.2221,-40.27549 -9.6661,-60.41329 0,0 4.0276,-48.33067 0.8055,-66.05187 0,0 24.9709,-35.4425 22.5543,-51.55268 0,0 62.83,-38.6646 28.193,-77.32913 19.9293,-24.985557 26.0651,-63.168067 -6.0211,-62.994577 0,0 -15.7277,-11.53541 -25.3939,3.38677 0,0 -85.3842,103.910957 -91.0227,115.993617 0,0 -24.1654,23.35983 -16.9157,60.41333 0,0 -3.2221,82.16209 -7.2497,112.77156 0,0 -11.27709,20.13763 9.6662,59.60773 34.5077,117.42074 42.9244,145.26209 18.5267,231.98717"
       id="path6338"
       inkscape:connector-curvature="0"
       sodipodi:nodetypes="cccccccccccccccccc" />
    <path
       style="fill:none;stroke:#000000;stroke-width:15.94830418;stroke-linecap:butt;stroke-linejoin:miter;stroke-miterlimit:4;stroke-dasharray:none;stroke-opacity:1"
       d="m 1147.2075,107.72596 c 0,0 -24.1653,-16.915727 -112.7716,106.32752 0,0 -16.1102,45.91411 -12.8882,102.29985"
       id="path6340"
       inkscape:connector-curvature="0" />
    <path
       style="fill:none;stroke:#000000;stroke-width:15.94830418;stroke-linecap:butt;stroke-linejoin:miter;stroke-miterlimit:4;stroke-dasharray:none;stroke-opacity:1"
       d="m 1141.1864,44.731383 c -32.3175,11.95209 -67.4967,64.809097 -116.4166,119.380387"
       id="path6342"
       inkscape:connector-curvature="0"
       sodipodi:nodetypes="cc" />
    <path
       style="fill:none;stroke:#000000;stroke-width:15.94830418;stroke-linecap:butt;stroke-linejoin:miter;stroke-miterlimit:4;stroke-dasharray:none;stroke-opacity:1"
       d="m 1171.3727,350.58758 c 0,0 26.582,17.31844 44.3032,15.70742"
       id="path6344"
       inkscape:connector-curvature="0" />
    <path
       style="fill:none;stroke:#000000;stroke-width:15.94830418;stroke-linecap:butt;stroke-linejoin:miter;stroke-miterlimit:4;stroke-dasharray:none;stroke-opacity:1"
       d="m 1074.7114,227.34439 c 0,0 9.2634,8.8606 21.7488,9.26338"
       id="path6346"
       inkscape:connector-curvature="0" />
    <path
       style="fill:none;stroke:#000000;stroke-width:15.94830418;stroke-linecap:butt;stroke-linejoin:miter;stroke-miterlimit:4;stroke-dasharray:none;stroke-opacity:1"
       d="m 1109.3484,172.97237 c 0,0 1.2083,9.66615 9.6661,12.08272"
       id="path6348"
       inkscape:connector-curvature="0" />
    <path
       style="fill:none;stroke:#000000;stroke-width:15.94830418;stroke-linecap:butt;stroke-linejoin:miter;stroke-miterlimit:4;stroke-dasharray:none;stroke-opacity:1"
       d="m 1095.6547,302.65964 c 0,0 -12.4854,10.47165 -27.7902,6.04132"
       id="path6350"
       inkscape:connector-curvature="0" />
    <path
       style="fill:none;stroke:#000000;stroke-width:15.94830418;stroke-linecap:butt;stroke-linejoin:miter;stroke-miterlimit:4;stroke-dasharray:none;stroke-opacity:1"
       d="m 1162.1094,407.77879 c 0,0 16.1103,20.13779 33.026,27.79011"
       id="path6352"
       inkscape:connector-curvature="0" />
    <path
       style="fill:none;stroke:#000000;stroke-width:15.94830418;stroke-linecap:butt;stroke-linejoin:miter;stroke-miterlimit:4;stroke-dasharray:none;stroke-opacity:1"
       d="m 1159.641,524.22918 c 2.2784,-60.94527 -42.1491,-121.32101 -42.1491,-121.32101 0,0 -14.0896,-14.16856 -12.1711,-39.83524"
       id="path6354"
       inkscape:connector-curvature="0" />
    <path
       style="fill:none;stroke:#000000;stroke-width:15.94830418;stroke-linecap:butt;stroke-linejoin:miter;stroke-miterlimit:4;stroke-dasharray:none;stroke-opacity:1"
       d="m 1204.3987,524.9806 c 0,0 -17.9873,24.31021 -37.3531,26.01892"
       id="path6356"
       inkscape:connector-curvature="0" />
    <path
       style="fill:none;stroke:#000000;stroke-width:15.94830418;stroke-linecap:butt;stroke-linejoin:miter;stroke-miterlimit:4;stroke-dasharray:none;stroke-opacity:1"
       d="m 1105.5796,129.49146 c 0,0 3.511,8.4186 10.7732,9.84257 0,0 28.3367,-21.50172 19.6506,-30.89988"
       id="path6358"
       inkscape:connector-curvature="0"
       sodipodi:nodetypes="ccc" />
    <path
       style="fill:none;stroke:#000000;stroke-width:15.94830418;stroke-linecap:butt;stroke-linejoin:miter;stroke-miterlimit:4;stroke-dasharray:none;stroke-opacity:1"
       d="m 1102.3002,73.894493 c 0,0 4.0276,10.8744 11.2772,11.47857 0,0 38.0604,-26.58188 22.957,-38.66454"
       id="path6362"
       inkscape:connector-curvature="0" />
    <path
       style="fill:none;stroke:#000000;stroke-width:15.94830418;stroke-linecap:butt;stroke-linejoin:miter;stroke-miterlimit:4;stroke-dasharray:none;stroke-opacity:1"
       d="m 1094.851,73.832053 c 0,0 1.424,4.12946 4.1294,4.12946"
       id="path6364"
       inkscape:connector-curvature="0" />
    <path
       style="fill:none;stroke:#000000;stroke-width:15.94830418;stroke-linecap:butt;stroke-linejoin:miter;stroke-miterlimit:4;stroke-dasharray:none;stroke-opacity:1"
       d="m 1118.0616,45.210503 c 0,0 5.2685,2.99036 5.5534,9.54055"
       id="path6366"
       inkscape:connector-curvature="0" />
    <path
       style="fill:none;stroke:#000000;stroke-width:15.94830418;stroke-linecap:butt;stroke-linejoin:miter;stroke-miterlimit:4;stroke-dasharray:none;stroke-opacity:1"
       d="m 1037.6579,377.16936 c 0,0 -13.6936,-12.48538 -8.8606,-42.69202"
       id="path6370"
       inkscape:connector-curvature="0" />
    <path
       style="fill:none;stroke:#000000;stroke-width:15.94830418;stroke-linecap:butt;stroke-linejoin:miter;stroke-miterlimit:4;stroke-dasharray:none;stroke-opacity:1"
       d="m 1107.3346,386.02996 c 0,0 -6.4441,8.05519 -14.9019,7.24961"
       id="path6372"
       inkscape:connector-curvature="0" />
    <path
       style="fill:none;stroke:#000000;stroke-width:33.50713348;stroke-linecap:butt;stroke-linejoin:miter;stroke-miterlimit:4;stroke-dasharray:none;stroke-opacity:1"
       d="M 685.88759,233.05292 C 186.7855,232.8727 372.04865,1013.3408 674.04102,1011.5418 976.03339,1009.7427 1153.0108,231.33328 685.88759,233.05292 Z"
       id="path10-9"
       inkscape:connector-curvature="0"
       sodipodi:nodetypes="czc" />
    <path
       style="fill:none;stroke:#000000;stroke-width:33.50713348;stroke-linecap:butt;stroke-linejoin:miter;stroke-miterlimit:4;stroke-dasharray:none;stroke-opacity:1"
       d="m 1557.108,233.05292 c -499.1022,-0.18021 -313.8391,780.28788 -11.8465,778.48888 301.9923,-1.7991 478.9697,-780.20852 11.8465,-778.48888 z"
       id="path10-9-3"
       inkscape:connector-curvature="0"
       sodipodi:nodetypes="czc" />
    <path
       style="fill:none;stroke:#000000;stroke-width:12.17606449;stroke-linecap:butt;stroke-linejoin:miter;stroke-miterlimit:4;stroke-dasharray:none;stroke-opacity:1"
       d="m 1083.6229,963.55295 c 0,-11.06969 0,-198.0249 0,-198.0249 h -38.1291 l 60.2685,-60.26844 59.6534,59.65351 h -33.8241 v 198.63983 z"
       id="path6983"
       inkscape:connector-curvature="0" />
    <path
       style="fill:none;stroke:#000000;stroke-width:17.00710106;stroke-linecap:butt;stroke-linejoin:miter;stroke-miterlimit:4;stroke-dasharray:none;stroke-opacity:1"
       d="m 1424.1605,850.05039 c 12.3739,-12.25952 119.7666,-128.41422 252.6769,2.42957 -129.0289,-32.18995 -252.6769,-2.42957 -252.6769,-2.42957 z"
       id="path29-3-1"
       inkscape:connector-curvature="0"
       sodipodi:nodetypes="cc" />
    <path
       style="fill:none;stroke:#000000;stroke-width:17.00710106;stroke-linecap:butt;stroke-linejoin:miter;stroke-miterlimit:4;stroke-dasharray:none;stroke-opacity:1"
       d="m 1338.2645,474.14744 c 79.695,-95.36455 120.4343,-87.65309 192.2421,-3.43597"
       id="path59-17-2"
       inkscape:connector-curvature="0"
       sodipodi:nodetypes="cc" />
    <path
       style="fill:none;stroke:#000000;stroke-width:17.00710106;stroke-linecap:butt;stroke-linejoin:miter;stroke-miterlimit:4;stroke-dasharray:none;stroke-opacity:1"
       d="m 1365.671,551.61826 c 54.565,-40.30328 87.835,-32.4874 130.436,-1.92848"
       id="path59-1-8-7"
       inkscape:connector-curvature="0"
       sodipodi:nodetypes="cc" />
    <path
       style="fill:none;stroke:#000000;stroke-width:17.00710106;stroke-linecap:butt;stroke-linejoin:miter;stroke-miterlimit:4;stroke-dasharray:none;stroke-opacity:1"
       d="m 1550.0156,609.17707 c 0,0 -7.7309,76.44989 -18.0389,85.03991 -10.3081,8.58975 19.757,2.5768 19.757,2.5768"
       id="path971-9-5"
       inkscape:connector-curvature="0" />
    <path
       style="fill:none;stroke:#000000;stroke-width:17.00710106;stroke-linecap:butt;stroke-linejoin:miter;stroke-miterlimit:4;stroke-dasharray:none;stroke-opacity:1"
       d="m 1565.0552,471.77052 c 79.695,-95.36456 120.4343,-87.65309 192.2422,-3.43597"
       id="path59-17-5-5"
       inkscape:connector-curvature="0"
       sodipodi:nodetypes="cc" />
    <path
       style="fill:none;stroke:#000000;stroke-width:17.00710106;stroke-linecap:butt;stroke-linejoin:miter;stroke-miterlimit:4;stroke-dasharray:none;stroke-opacity:1"
       d="m 1592.4618,549.24134 c 54.565,-40.30327 87.835,-32.48741 130.4352,-1.92848"
       id="path59-1-8-3-2"
       inkscape:connector-curvature="0"
       sodipodi:nodetypes="cc" />
    <path
       style="fill:none;stroke:#000000;stroke-width:17.00710106;stroke-linecap:butt;stroke-linejoin:miter;stroke-miterlimit:4;stroke-dasharray:none;stroke-opacity:1"
       d="m 556.32717,850.05039 c 12.3739,-12.25952 119.7666,-128.41422 252.6769,2.42957 -129.0289,-32.18995 -252.6769,-2.42957 -252.6769,-2.42957 z"
       id="path29-3-1-6"
       inkscape:connector-curvature="0"
       sodipodi:nodetypes="cc" />
    <path
       style="fill:none;stroke:#000000;stroke-width:17.00710106;stroke-linecap:butt;stroke-linejoin:miter;stroke-miterlimit:4;stroke-dasharray:none;stroke-opacity:1"
       d="m 470.43117,474.14744 c 79.695,-95.36455 120.4343,-87.65309 192.2421,-3.43597"
       id="path59-17-2-7"
       inkscape:connector-curvature="0"
       sodipodi:nodetypes="cc" />
    <path
       style="fill:none;stroke:#000000;stroke-width:17.00710106;stroke-linecap:butt;stroke-linejoin:miter;stroke-miterlimit:4;stroke-dasharray:none;stroke-opacity:1"
       d="m 497.83767,551.61826 c 54.565,-40.30328 87.835,-32.4874 130.436,-1.92848"
       id="path59-1-8-7-3"
       inkscape:connector-curvature="0"
       sodipodi:nodetypes="cc" />
    <path
       style="fill:none;stroke:#000000;stroke-width:17.00710106;stroke-linecap:butt;stroke-linejoin:miter;stroke-miterlimit:4;stroke-dasharray:none;stroke-opacity:1"
       d="m 682.18227,609.17707 c 0,0 -7.7309,76.44989 -18.0389,85.03991 -10.3081,8.58975 19.757,2.5768 19.757,2.5768"
       id="path971-9-5-9"
       inkscape:connector-curvature="0" />
    <path
       style="fill:none;stroke:#000000;stroke-width:17.00710106;stroke-linecap:butt;stroke-linejoin:miter;stroke-miterlimit:4;stroke-dasharray:none;stroke-opacity:1"
       d="m 697.22187,471.77052 c 79.695,-95.36456 120.4343,-87.65309 192.2422,-3.43597"
       id="path59-17-5-5-3"
       inkscape:connector-curvature="0"
       sodipodi:nodetypes="cc" />
    <path
       style="fill:none;stroke:#000000;stroke-width:17.00710106;stroke-linecap:butt;stroke-linejoin:miter;stroke-miterlimit:4;stroke-dasharray:none;stroke-opacity:1"
       d="m 724.62847,549.24134 c 54.565,-40.30327 87.835,-32.48741 130.4352,-1.92848"
       id="path59-1-8-3-2-6"
       inkscape:connector-curvature="0"
       sodipodi:nodetypes="cc" />
  </g>
</svg>
