<?xml version="1.0" encoding="UTF-8" standalone="no"?>
<!-- Created with Inkscape (http://www.inkscape.org/) -->

<svg
   xmlns:dc="http://purl.org/dc/elements/1.1/"
   xmlns:cc="http://creativecommons.org/ns#"
   xmlns:rdf="http://www.w3.org/1999/02/22-rdf-syntax-ns#"
   xmlns:svg="http://www.w3.org/2000/svg"
   xmlns="http://www.w3.org/2000/svg"
   xmlns:sodipodi="http://sodipodi.sourceforge.net/DTD/sodipodi-0.dtd"
   xmlns:inkscape="http://www.inkscape.org/namespaces/inkscape"
   width="1000"
   height="1000"
   viewBox="0 0 1000 1000"
   version="1.1"
   id="svg9223"
   inkscape:version="0.92.4 (5da689c313, 2019-01-14)"
   sodipodi:docname="Ainda.svg">
  <defs
     id="defs9217" />
  <sodipodi:namedview
     id="base"
     pagecolor="#ffffff"
     bordercolor="#666666"
     borderopacity="1.0"
     inkscape:pageopacity="0.0"
     inkscape:pageshadow="2"
     inkscape:zoom="0.35355339"
     inkscape:cx="303.28041"
     inkscape:cy="734.66947"
     inkscape:document-units="px"
     inkscape:current-layer="layer1"
     showgrid="false"
     units="px"
     inkscape:window-width="1366"
     inkscape:window-height="715"
     inkscape:window-x="-8"
     inkscape:window-y="-8"
     inkscape:window-maximized="1" />
  <metadata
     id="metadata9220">
    <rdf:RDF>
      <cc:Work
         rdf:about="">
        <dc:format>image/svg+xml</dc:format>
        <dc:type
           rdf:resource="http://purl.org/dc/dcmitype/StillImage" />
        <dc:title></dc:title>
      </cc:Work>
    </rdf:RDF>
  </metadata>
  <g
     inkscape:label="Camada 1"
     inkscape:groupmode="layer"
     id="layer1"
     transform="translate(0,-32.416659)">
    <path
       style="fill:none;stroke:#000000;stroke-width:15.83362389;stroke-linecap:butt;stroke-linejoin:miter;stroke-miterlimit:4;stroke-dasharray:none;stroke-opacity:1"
       d="m 51.082584,1026.3307 c 0,0 16.501412,-21.1219 15.181297,-44.88394 0,0 -4.620378,-91.08777 2.640228,-116.16986 0,0 4.62038,-41.58358 2.640231,-73.92627 0,0 -4.620376,-23.10202 0,-33.00281 0,0 -19.801673,-56.76489 61.38525,-71.28613 0,0 7.92066,-9.24074 17.16147,-44.22377 0,0 19.80166,-58.0849 23.10195,-60.06509 0,0 3.96033,-22.4419 29.70255,-22.4419 0,0 62.0453,-5.28045 81.84695,-1.98019 0,0 21.78189,-9.24074 27.06229,44.22378 0,0 11.221,21.12183 11.221,39.60336 0,0 -0.66008,20.13172 -21.78189,10.89094 0,0 14.71475,17.36232 9.58069,55.63415 0,0 25.20342,-0.46674 23.33653,32.2044 0,0 3.73385,18.66923 -2.80039,31.27093 0,0 -5.13403,10.73482 -3.26711,23.80326 0,0 13.53519,17.73572 -6.5342,48.53995 0,0 4.66728,45.27279 -14.93538,85.4116 -11.66822,33.60458 -21.00291,45.73961 -31.73766,60.20817 0,0 -14.00189,17.26912 -19.13591,36.87182"
       id="path9779"
       inkscape:connector-curvature="0" />
    <path
       style="fill:none;stroke:#000000;stroke-width:15.83362389;stroke-linecap:butt;stroke-linejoin:miter;stroke-miterlimit:4;stroke-dasharray:none;stroke-opacity:1"
       d="m 301.24391,653.06882 c 0,0 -9.57079,-14.85124 -35.64301,-8.91079 0,0 -28.05241,4.62045 -40.92346,8.91079 0,0 -32.01274,10.56089 -51.81445,21.78187 0,0 -24.75212,11.55093 -39.9334,12.211"
       id="path9781"
       inkscape:connector-curvature="0" />
    <path
       style="fill:none;stroke:#000000;stroke-width:15.83362389;stroke-linecap:butt;stroke-linejoin:miter;stroke-miterlimit:4;stroke-dasharray:none;stroke-opacity:1"
       d="m 283.42241,642.83792 c 0,0 -13.2011,-13.53112 -17.16143,-31.6827 0,0 -49.8343,-15.8413 -54.45467,46.20397"
       id="path9783"
       inkscape:connector-curvature="0" />
    <path
       style="fill:none;stroke:#000000;stroke-width:15.83362389;stroke-linecap:butt;stroke-linejoin:miter;stroke-miterlimit:4;stroke-dasharray:none;stroke-opacity:1"
       d="m 266.26098,611.15522 c 0,0 -1.15511,-7.92063 2.80522,-12.70607"
       id="path9785"
       inkscape:connector-curvature="0" />
    <path
       style="fill:none;stroke:#000000;stroke-width:15.83362389;stroke-linecap:butt;stroke-linejoin:miter;stroke-miterlimit:4;stroke-dasharray:none;stroke-opacity:1"
       d="m 211.64445,604.62216 c 0,0 8.36375,9.12573 11.63081,17.52688"
       id="path9787"
       inkscape:connector-curvature="0"
       sodipodi:nodetypes="cc" />
    <path
       style="fill:none;stroke:#000000;stroke-width:15.83362389;stroke-linecap:butt;stroke-linejoin:miter;stroke-miterlimit:4;stroke-dasharray:none;stroke-opacity:1"
       d="m 312.95995,605.70978 c -9.77886,4.27823 -13.92295,32.63792 9.90084,35.80803"
       id="path9789"
       inkscape:connector-curvature="0"
       sodipodi:nodetypes="cc" />
    <path
       style="fill:none;stroke:#000000;stroke-width:15.83362389;stroke-linecap:butt;stroke-linejoin:miter;stroke-miterlimit:4;stroke-dasharray:none;stroke-opacity:1"
       d="m 310.8246,708.70297 c 0,0 -42.00572,-9.56795 -84.01138,-4.66729 0,0 -35.7049,7.00097 -54.14077,-1.86687"
       id="path9791"
       inkscape:connector-curvature="0" />
    <path
       style="fill:none;stroke:#000000;stroke-width:15.83362389;stroke-linecap:butt;stroke-linejoin:miter;stroke-miterlimit:4;stroke-dasharray:none;stroke-opacity:1"
       d="m 328.09363,795.98156 c 0,0 -12.32851,-15.19187 -49.2916,-24.76269 0,0 -55.11473,-16.83142 -70.95605,-21.45179 0,0 -18.81161,-4.95042 -28.71245,-12.87109"
       id="path9793"
       inkscape:connector-curvature="0" />
    <path
       style="fill:none;stroke:#000000;stroke-width:15.83362389;stroke-linecap:butt;stroke-linejoin:miter;stroke-miterlimit:4;stroke-dasharray:none;stroke-opacity:1"
       d="m 321.55943,844.52151 c 0,0 -18.66534,49.13778 -28.89621,59.0386 0,0 -12.21109,23.76206 -68.97592,2.97027 0,0 -7.59064,-23.76202 -5.94052,-34.65292 0,0 19.47173,-4.95045 21.45187,-12.21104 0,0 -10.56092,-26.73228 -18.48158,-36.63318"
       id="path9795"
       inkscape:connector-curvature="0" />
    <path
       style="fill:none;stroke:#000000;stroke-width:15.83362389;stroke-linecap:butt;stroke-linejoin:miter;stroke-miterlimit:4;stroke-dasharray:none;stroke-opacity:1"
       d="m 239.19865,859.66642 c 0,0 21.12176,11.22089 46.53396,-8.58075"
       id="path9797"
       inkscape:connector-curvature="0" />
    <path
       style="fill:none;stroke:#000000;stroke-width:15.83362389;stroke-linecap:butt;stroke-linejoin:miter;stroke-miterlimit:4;stroke-dasharray:none;stroke-opacity:1"
       d="m 259.00034,900.25985 c 0,0 -25.08217,-22.77198 -19.80169,-40.59343"
       id="path9799"
       inkscape:connector-curvature="0" />
    <path
       style="fill:none;stroke:#000000;stroke-width:15.83362389;stroke-linecap:butt;stroke-linejoin:miter;stroke-miterlimit:4;stroke-dasharray:none;stroke-opacity:1"
       d="m 165.93239,858.01627 c 0,0 40.59348,7.92071 51.81439,13.86119"
       id="path9801"
       inkscape:connector-curvature="0" />
    <path
       style="fill:none;stroke:#000000;stroke-width:15.83362389;stroke-linecap:butt;stroke-linejoin:miter;stroke-miterlimit:4;stroke-dasharray:none;stroke-opacity:1"
       d="m 223.6873,906.53038 c 0,0 31.6827,22.4419 19.14163,94.38802"
       id="path9803"
       inkscape:connector-curvature="0" />
    <path
       style="fill:none;stroke:#000000;stroke-width:15.83362389;stroke-linecap:butt;stroke-linejoin:miter;stroke-miterlimit:4;stroke-dasharray:none;stroke-opacity:1"
       d="m 93.656258,787.72025 c 0,0 -2.970281,-46.86396 41.253522,-48.84411"
       id="path9805"
       inkscape:connector-curvature="0" />
    <path
       style="fill:none;stroke:#000000;stroke-width:15.83362389;stroke-linecap:butt;stroke-linejoin:miter;stroke-miterlimit:4;stroke-dasharray:none;stroke-opacity:1"
       d="m 71.54434,758.34782 c 0,0 2.640228,-33.33287 49.50426,-40.59351"
       id="path9807"
       inkscape:connector-curvature="0" />
    <path
       style="color:#000000;font-style:normal;font-variant:normal;font-weight:normal;font-stretch:normal;font-size:medium;line-height:normal;font-family:sans-serif;font-variant-ligatures:normal;font-variant-position:normal;font-variant-caps:normal;font-variant-numeric:normal;font-variant-alternates:normal;font-feature-settings:normal;text-indent:0;text-align:start;text-decoration:none;text-decoration-line:none;text-decoration-style:solid;text-decoration-color:#000000;letter-spacing:normal;word-spacing:normal;text-transform:none;writing-mode:lr-tb;direction:ltr;text-orientation:mixed;dominant-baseline:auto;baseline-shift:baseline;text-anchor:start;white-space:normal;shape-padding:0;clip-rule:nonzero;display:inline;overflow:visible;visibility:visible;opacity:1;isolation:auto;mix-blend-mode:normal;color-interpolation:sRGB;color-interpolation-filters:linearRGB;solid-color:#000000;solid-opacity:1;vector-effect:none;fill:#000000;fill-opacity:1;fill-rule:nonzero;stroke:none;stroke-width:25.47543716;stroke-linecap:butt;stroke-linejoin:miter;stroke-miterlimit:4;stroke-dasharray:none;stroke-dashoffset:0;stroke-opacity:1;color-rendering:auto;image-rendering:auto;shape-rendering:auto;text-rendering:auto;enable-background:accumulate"
       d="M 248.40092,32.618553 C 150.24542,32.598253 82.807885,72.010993 44.020925,130.97091 5.2265037,189.94217 -5.5926244,266.94445 2.8862271,343.16641 c 8.4788509,76.22195 36.2965369,151.9983 77.3681409,209.54615 19.935092,27.93227 43.221442,51.75122 69.101292,68.82649 l 4.96743,-14.34461 168.8784,1.37936 4.55331,13.13952 c 26.38996,-17.3635 50.06712,-41.74745 70.3019,-70.36434 40.82892,-57.74211 68.59868,-133.4902 77.82006,-209.52281 9.22141,-76.03264 -0.0189,-152.62407 -35.84382,-211.36175 C 404.21507,71.738773 340.74776,32.295013 248.45546,32.618553 Z m 0.0399,25.4725 h 0.0318 0.0238 c 85.2537,-0.31385 138.13332,33.73134 169.79067,85.635587 31.65734,51.90426 41.02234,123.10642 32.29838,195.03722 -8.72391,71.93077 -35.44609,144.31269 -73.32398,197.88133 -17.43763,24.66102 -37.03797,45.17022 -58.18148,60.15391 0.17355,4.33521 0.55931,3.7272 4.12123,11.7747 l -168.87841,-1.37936 3.96504,-10.39768 C 137.49717,582.07133 118.18756,562.00968 100.99153,537.91532 62.932534,484.59182 36.205092,412.29056 28.202883,340.35343 20.200674,268.41636 30.963943,197.18125 65.309045,144.97339 99.654144,92.765513 156.89265,58.058053 248.43986,58.091053 Z"
       id="path10-9-9-0-3-4-7"
       inkscape:connector-curvature="0"
       sodipodi:nodetypes="csssccccssccccccssscccccsscc" />
    <path
       style="fill:none;stroke:#000000;stroke-width:13.43322563;stroke-linecap:butt;stroke-linejoin:miter;stroke-miterlimit:4;stroke-dasharray:none;stroke-opacity:1"
       d="m 167.12073,540.74088 c 0,0 71.38049,-105.00127 150.16584,-1.05776 -76.31486,-24.83018 -150.16584,1.05776 -150.16584,1.05776 z"
       id="path29-3-1"
       inkscape:connector-curvature="0"
       sodipodi:nodetypes="ccc" />
    <path
       style="fill:none;stroke:#000000;stroke-width:13.43322563;stroke-linecap:butt;stroke-linejoin:miter;stroke-miterlimit:4;stroke-dasharray:none;stroke-opacity:1"
       d="M 76.652259,241.44884 C 139.60024,166.12421 171.77838,172.21519 228.49648,238.73492"
       id="path59-17-2"
       inkscape:connector-curvature="0"
       sodipodi:nodetypes="cc" />
    <path
       style="fill:none;stroke:#000000;stroke-width:13.43322563;stroke-linecap:butt;stroke-linejoin:miter;stroke-miterlimit:4;stroke-dasharray:none;stroke-opacity:1"
       d="M 98.299375,302.63993 C 141.39812,270.806 167.67693,276.97944 201.3255,301.1167"
       id="path59-1-8-7"
       inkscape:connector-curvature="0"
       sodipodi:nodetypes="cc" />
    <path
       style="fill:none;stroke:#000000;stroke-width:13.43322563;stroke-linecap:butt;stroke-linejoin:miter;stroke-miterlimit:4;stroke-dasharray:none;stroke-opacity:1"
       d="m 243.90571,348.10331 c 0,0 -6.10628,60.38472 -14.24808,67.16961 -8.14178,6.7847 15.60505,2.03533 15.60505,2.03533"
       id="path971-9-5"
       inkscape:connector-curvature="0" />
    <path
       style="fill:none;stroke:#000000;stroke-width:13.43322563;stroke-linecap:butt;stroke-linejoin:miter;stroke-miterlimit:4;stroke-dasharray:none;stroke-opacity:1"
       d="m 255.78493,239.57141 c 62.94806,-75.32463 95.12618,-69.23366 151.84425,-2.71394"
       id="path59-17-5-5"
       inkscape:connector-curvature="0"
       sodipodi:nodetypes="cc" />
    <path
       style="fill:none;stroke:#000000;stroke-width:13.43322563;stroke-linecap:butt;stroke-linejoin:miter;stroke-miterlimit:4;stroke-dasharray:none;stroke-opacity:1"
       d="m 277.43211,300.7625 c 43.09873,-31.83394 69.37755,-25.66049 103.02611,-1.52323"
       id="path59-1-8-3-2"
       inkscape:connector-curvature="0"
       sodipodi:nodetypes="cc" />
  </g>
</svg>
