<?xml version="1.0" encoding="UTF-8" standalone="no"?>
<!-- Created with Inkscape (http://www.inkscape.org/) -->

<svg
   xmlns:dc="http://purl.org/dc/elements/1.1/"
   xmlns:cc="http://creativecommons.org/ns#"
   xmlns:rdf="http://www.w3.org/1999/02/22-rdf-syntax-ns#"
   xmlns:svg="http://www.w3.org/2000/svg"
   xmlns="http://www.w3.org/2000/svg"
   xmlns:sodipodi="http://sodipodi.sourceforge.net/DTD/sodipodi-0.dtd"
   xmlns:inkscape="http://www.inkscape.org/namespaces/inkscape"
   width="1000"
   height="1000"
   viewBox="0 0 1000 1000"
   version="1.1"
   id="svg58798"
   inkscape:version="0.92.4 (5da689c313, 2019-01-14)"
   sodipodi:docname="Rato.svg">
  <defs
     id="defs58792" />
  <sodipodi:namedview
     id="base"
     pagecolor="#ffffff"
     bordercolor="#666666"
     borderopacity="1.0"
     inkscape:pageopacity="0.0"
     inkscape:pageshadow="2"
     inkscape:zoom="0.1767767"
     inkscape:cx="1051.1338"
     inkscape:cy="574.21911"
     inkscape:document-units="px"
     inkscape:current-layer="layer1"
     showgrid="false"
     units="px"
     inkscape:window-width="1366"
     inkscape:window-height="715"
     inkscape:window-x="-8"
     inkscape:window-y="-8"
     inkscape:window-maximized="1"
     inkscape:snap-global="true" />
  <metadata
     id="metadata58795">
    <rdf:RDF>
      <cc:Work
         rdf:about="">
        <dc:format>image/svg+xml</dc:format>
        <dc:type
           rdf:resource="http://purl.org/dc/dcmitype/StillImage" />
        <dc:title></dc:title>
      </cc:Work>
    </rdf:RDF>
  </metadata>
  <g
     inkscape:label="Camada 1"
     inkscape:groupmode="layer"
     id="layer1"
     transform="translate(0,-32.41665)">
    <path
       style="color:#000000;font-style:normal;font-variant:normal;font-weight:normal;font-stretch:normal;font-size:medium;line-height:normal;font-family:sans-serif;font-variant-ligatures:normal;font-variant-position:normal;font-variant-caps:normal;font-variant-numeric:normal;font-variant-alternates:normal;font-feature-settings:normal;text-indent:0;text-align:start;text-decoration:none;text-decoration-line:none;text-decoration-style:solid;text-decoration-color:#000000;letter-spacing:normal;word-spacing:normal;text-transform:none;writing-mode:lr-tb;direction:ltr;text-orientation:mixed;dominant-baseline:auto;baseline-shift:baseline;text-anchor:start;white-space:normal;shape-padding:0;clip-rule:nonzero;display:inline;overflow:visible;visibility:visible;opacity:1;isolation:auto;mix-blend-mode:normal;color-interpolation:sRGB;color-interpolation-filters:linearRGB;solid-color:#000000;solid-opacity:1;vector-effect:none;fill:#000000;fill-opacity:1;fill-rule:nonzero;stroke:none;stroke-width:38.60532761;stroke-linecap:butt;stroke-linejoin:miter;stroke-miterlimit:4;stroke-dasharray:none;stroke-dashoffset:0;stroke-opacity:1;color-rendering:auto;image-rendering:auto;shape-rendering:auto;text-rendering:auto;enable-background:accumulate"
       d="M 673.11317,32.471534 C 524.36418,32.438276 422.17732,92.168369 363.39864,181.51765 c -58.78883,89.36474 -75.19597,206.05331 -62.34716,321.55979 2.75676,24.78229 6.86279,49.5336 12.22694,73.98767 l 21.69966,8.57142 70.86062,179.19487 c -5.87939,2.80542 -10.82355,5.88113 -16.32989,11.06951 9.03702,15.56378 18.64727,30.5105 28.79097,44.72342 62.23975,87.20776 146.03727,147.95679 241.34814,147.38899 95.26606,-0.56755 178.37644,-61.9528 240.24842,-149.45481 C 961.76829,731.05639 1003.8468,616.2682 1017.8208,501.04874 1031.795,385.82924 1017.7944,269.75561 963.50675,180.74482 909.22747,91.750387 813.05139,31.978739 673.18748,32.471534 Z m 0.0593,38.604705 h 0.0442 0.0378 c 129.19295,-0.475602 209.32201,51.114301 257.29539,129.769781 47.97337,78.65547 62.16906,186.5472 48.94886,295.55083 -13.22019,109.00354 -53.72508,218.69803 -111.1251,299.87569 -57.39999,81.17763 -130.25123,132.66718 -208.95588,133.13611 -78.65971,0.4685 -152.02061,-50.40518 -209.69161,-131.21144 -9.57041,-13.40954 -18.66797,-27.61112 -27.24168,-42.4707 -7.40273,5.68833 -14.117,7.97509 -16.64636,9.10489 L 334.97808,585.63653 c 7.29865,2.62643 14.56578,5.28443 21.97635,7.79883 -8.06335,-31.1058 -13.9984,-62.8881 -17.5286,-94.62345 -12.1265,-109.01305 4.17755,-216.96287 56.22388,-296.07839 C 447.69611,123.618 534.44245,71.026115 673.1726,71.076239 Z"
       id="path10-9-5"
       inkscape:connector-curvature="0"
       sodipodi:nodetypes="cssccccssssccccccsssscccccsscc" />
    <path
       style="color:#000000;font-style:normal;font-variant:normal;font-weight:normal;font-stretch:normal;font-size:medium;line-height:normal;font-family:sans-serif;font-variant-ligatures:normal;font-variant-position:normal;font-variant-caps:normal;font-variant-numeric:normal;font-variant-alternates:normal;font-feature-settings:normal;text-indent:0;text-align:start;text-decoration:none;text-decoration-line:none;text-decoration-style:solid;text-decoration-color:#000000;letter-spacing:normal;word-spacing:normal;text-transform:none;writing-mode:lr-tb;direction:ltr;text-orientation:mixed;dominant-baseline:auto;baseline-shift:baseline;text-anchor:start;white-space:normal;shape-padding:0;clip-rule:nonzero;display:inline;overflow:visible;visibility:visible;opacity:1;isolation:auto;mix-blend-mode:normal;color-interpolation:sRGB;color-interpolation-filters:linearRGB;solid-color:#000000;solid-opacity:1;vector-effect:none;fill:#000000;fill-opacity:1;fill-rule:nonzero;stroke:none;stroke-width:19.3026638;stroke-linecap:butt;stroke-linejoin:miter;stroke-miterlimit:4;stroke-dasharray:none;stroke-dashoffset:0;stroke-opacity:1;color-rendering:auto;image-rendering:auto;shape-rendering:auto;text-rendering:auto;enable-background:accumulate"
       d="m 652.49652,497.41963 c 0,0 -2.17222,21.48611 -5.7735,44.05422 -1.80065,11.28404 -3.96683,22.83515 -6.29767,31.81322 -1.16543,4.48903 -2.3915,8.34983 -3.48478,11.00802 -1.09328,2.65823 -2.50544,4.04193 -1.49135,3.19685 -2.13598,1.77993 -4.39824,3.27011 -5.58152,8.00311 -0.59166,2.36652 -0.24835,5.88835 1.26247,8.35017 1.51067,2.46182 3.46879,3.66441 4.95399,4.3633 5.94078,2.79565 8.99164,1.72566 13.03092,1.44711 8.07861,-0.55719 16.83321,-2.35519 16.83321,-2.35519 l -3.78745,-18.92993 c 0,0 -4.12702,0.52788 -6.62256,0.9376 1.28043,-3.43258 2.48812,-7.01855 3.56598,-11.1704 2.60477,-10.03321 4.82625,-21.99513 6.6816,-33.6221 3.71072,-23.2539 5.92115,-45.15427 5.92115,-45.15427 z"
       id="path971-8"
       inkscape:connector-curvature="0" />
    <path
       style="color:#000000;font-style:normal;font-variant:normal;font-weight:normal;font-stretch:normal;font-size:medium;line-height:normal;font-family:sans-serif;font-variant-ligatures:normal;font-variant-position:normal;font-variant-caps:normal;font-variant-numeric:normal;font-variant-alternates:normal;font-feature-settings:normal;text-indent:0;text-align:start;text-decoration:none;text-decoration-line:none;text-decoration-style:solid;text-decoration-color:#000000;letter-spacing:normal;word-spacing:normal;text-transform:none;writing-mode:lr-tb;direction:ltr;text-orientation:mixed;dominant-baseline:auto;baseline-shift:baseline;text-anchor:start;white-space:normal;shape-padding:0;clip-rule:nonzero;display:inline;overflow:visible;visibility:visible;opacity:1;isolation:auto;mix-blend-mode:normal;color-interpolation:sRGB;color-interpolation-filters:linearRGB;solid-color:#000000;solid-opacity:1;vector-effect:none;fill:#000000;fill-opacity:1;fill-rule:nonzero;stroke:none;stroke-width:21.04365349;stroke-linecap:butt;stroke-linejoin:miter;stroke-miterlimit:4;stroke-dasharray:none;stroke-dashoffset:0;stroke-opacity:1;color-rendering:auto;image-rendering:auto;shape-rendering:auto;text-rendering:auto;enable-background:accumulate"
       d="m 275.81713,572.87364 -0.78258,0.0303 -0.77521,0.14024 c 0,0 -19.0261,3.46565 -39.12977,6.62993 -10.05185,1.58211 -20.38044,3.08976 -28.57211,4.03108 -4.09584,0.47065 -7.67393,0.79684 -10.26972,0.93027 -2.5958,0.13344 -4.90433,-0.3368 -3.08609,0.14025 l -0.5168,-0.14025 -0.53158,-0.0813 c 0,0 -48.2702,-6.7975 -71.04636,34.85501 l -0.53895,0.98131 -0.32487,1.07793 c 0,0 -1.2452,4.21415 -5.36742,8.91124 -4.12222,4.69709 -10.11648,9.26846 -22.045564,9.25085 h -0.620171 l -0.605403,0.0737 c 0,0 -12.486461,1.39636 -24.60007,9.95223 -12.113612,8.55585 -24.116158,25.4073 -23.906072,51.63651 l 0.03705,4.71773 0.664467,0.58327 c -0.87148,2.86828 -4.645696,10.68061 -17.615778,24.15707 l -0.221489,0.22908 -0.214108,0.24343 c 0,0 -22.4047392,28.09505 -7.597081,61.16057 -0.106554,-0.0994 0.0812,0.1255 -3.374021,3.94252 l 0.287938,-0.30997 c 0,0 -9.4977257,9.88676 -13.3410358,26.4901 -3.7255142,16.09447 -2.02852213,39.15758 14.2048428,66.02596 0.236517,1.61295 4.4176,30.13248 8.896485,58.46575 l 0.162426,1.06314 0.383915,1.00411 c 0,0 6.942763,18.99911 3.82438,40.12644 l -0.0443,0.33946 -0.02952,0.33227 c -0.413745,5.02898 -0.739307,7.05464 -2.687402,10.45433 -1.948096,3.3996 -6.188788,8.4637 -14.839779,16.368 l 14.197332,15.5341 c 9.347537,-8.5408 15.118022,-14.8397 18.900414,-21.4403 3.691316,-6.4417 4.819916,-12.88053 5.330507,-18.73797 3.678573,-25.36655 -3.364882,-45.44526 -4.415016,-48.32897 v -0.008 C 41.031641,914.75093 36.50541,883.85151 36.50541,883.85151 l -0.32485,-2.2149 -1.203425,-1.89003 c -15.229463,-24.0303 -15.387196,-41.10147 -12.750406,-52.49255 2.636791,-11.3911 7.855486,-16.49358 7.855486,-16.49358 l 0.147661,-0.15497 0.147661,-0.15498 c 5.651584,-6.24337 8.464336,-9.70806 9.546187,-15.45998 0.476321,-2.53242 -0.112041,-5.98802 -1.734998,-8.76359 l 0.0223,0.0151 c -12.618615,-23.74923 3.56598,-41.37417 3.56598,-41.37417 l -0.435598,0.47988 c 14.825546,-15.4043 20.959448,-25.6071 23.153005,-34.12407 1.096778,-4.25849 1.050057,-8.23208 0.07382,-11.45101 -0.06441,-0.21244 -0.17963,-0.33454 -0.251035,-0.53896 0.37128,-18.73368 7.521379,-27.23055 14.825013,-32.38912 7.575917,-5.35085 14.876693,-6.2386 14.876693,-6.2386 l -1.225574,0.0737 c 17.97114,0.0265 30.73965,-8.25604 37.9042,-16.41975 5.82267,-6.63468 8.06495,-12.44342 8.90387,-14.81761 16.41517,-29.92265 49.31089,-24.09066 49.31089,-24.09066 l -1.04853,-0.22181 c 4.09958,1.07592 6.17531,0.69552 9.50927,0.52418 3.33396,-0.17124 7.2328,-0.54755 11.59127,-1.04837 8.71694,-1.00168 19.22428,-2.53458 29.43592,-4.14183 19.83756,-3.12239 37.44602,-6.33425 38.50222,-6.52658 17.72698,-0.47626 32.28498,3.78881 32.33004,3.80223 6e-5,4e-5 0.0294,0.008 0.0294,0.008 39.01255,16.77034 91.2831,31.33333 91.2831,31.33333 l 0.36175,0.10321 0.36176,0.0737 c 13.61029,2.7756 25.75918,7.75953 25.75918,7.75953 l 0.51681,0.21395 0.53159,0.15499 c 25.60187,7.55941 33.86569,19.18077 37.39474,28.59428 3.29442,8.78756 2.07134,15.0129 1.89004,15.87341 -4.07973,10.77644 -19.93657,27.65054 -35.17986,40.22979 -15.45378,12.75298 -29.63525,21.86839 -29.63525,21.86839 l 2.51758,-1.18128 c -56.70367,17.89045 -63.53788,90.03538 -63.53788,90.03538 l -0.14028,1.18128 0.14028,1.18863 c 4.15869,36.75308 -5.8533,58.73116 -16.36806,72.24979 -10.51475,13.51864 -21.03409,17.94065 -21.03409,17.94065 l -1.65378,0.70877 -1.32156,1.22559 c -10.66569,9.86609 -15.49215,23.45317 -21.18914,37.05512 -5.69698,13.60198 -11.84213,27.43769 -21.6321,38.65741 l 15.85862,13.8356 c 12.49537,-14.32 19.40873,-30.57711 25.18333,-44.36436 5.69862,-13.60584 10.69778,-24.48899 15.86601,-29.43591 3.5788,-1.77808 14.9516,-7.81086 26.53441,-22.70265 13.29245,-17.08984 24.74151,-45.0606 20.71662,-85.41362 0.1043,-0.75565 8.29015,-59.2708 48.91224,-72.08737 l 1.3363,-0.4282 1.18127,-0.75307 c 0,0 15.12495,-9.70857 31.65819,-23.35237 16.53326,-13.64375 34.99684,-30.39463 41.90578,-49.93841 l 0.19203,-0.55375 0.13305,-0.56848 c 0,0 3.08342,-13.42507 -2.62836,-28.6607 -5.71174,-15.23563 -20.6994,-32.4003 -51.14184,-41.38896 l 1.041,0.36931 c 0,0 -13.58188,-5.66714 -29.59836,-8.93343 l 0.71614,0.17729 c 0,0 -52.93215,-14.83541 -89.70314,-30.78701 l -0.55372,-0.24343 -0.58326,-0.17729 c 0,0 -17.73117,-5.42544 -39.53583,-4.73248 z"
       id="path1627"
       inkscape:connector-curvature="0" />
    <path
       style="color:#000000;font-style:normal;font-variant:normal;font-weight:normal;font-stretch:normal;font-size:medium;line-height:normal;font-family:sans-serif;font-variant-ligatures:normal;font-variant-position:normal;font-variant-caps:normal;font-variant-numeric:normal;font-variant-alternates:normal;font-feature-settings:normal;text-indent:0;text-align:start;text-decoration:none;text-decoration-line:none;text-decoration-style:solid;text-decoration-color:#000000;letter-spacing:normal;word-spacing:normal;text-transform:none;writing-mode:lr-tb;direction:ltr;text-orientation:mixed;dominant-baseline:auto;baseline-shift:baseline;text-anchor:start;white-space:normal;shape-padding:0;clip-rule:nonzero;display:inline;overflow:visible;visibility:visible;opacity:1;isolation:auto;mix-blend-mode:normal;color-interpolation:sRGB;color-interpolation-filters:linearRGB;solid-color:#000000;solid-opacity:1;vector-effect:none;fill:#000000;fill-opacity:1;fill-rule:nonzero;stroke:none;stroke-width:21.04365349;stroke-linecap:butt;stroke-linejoin:miter;stroke-miterlimit:4;stroke-dasharray:none;stroke-dashoffset:0;stroke-opacity:1;color-rendering:auto;image-rendering:auto;shape-rendering:auto;text-rendering:auto;enable-background:accumulate"
       d="m 219.00515,626.85055 c -25.7198,-0.32056 -49.08202,3.46262 -49.08202,3.46262 l 3.32973,20.77568 c 0,0 22.00915,-3.48939 45.49389,-3.19682 11.74236,0.14629 23.78503,1.30447 32.96498,3.94989 9.17995,2.64541 14.58002,6.52662 16.49357,10.46168 l 0.037,0.0665 0.0294,0.0665 c 0,0 8.69048,17.26255 17.03252,38.1478 8.32561,20.84414 15.55054,46.33683 14.66997,56.5979 -0.02,0.1667 -1.33756,11.15839 -4.82108,21.52875 -1.75491,5.22434 -4.13208,10.1068 -6.24598,12.72088 -2.11392,2.61404 -2.54778,2.63832 -3.66196,2.53235 l -11.57652,-1.10007 0.0516,11.6208 c 0,0 0.0351,22.67963 -3.94989,43.27901 -1.99261,10.2997 -5.22214,19.97326 -8.62332,25.03567 -1.70058,2.53119 -3.24803,3.76213 -4.26736,4.23045 -1.01931,0.46828 -1.71351,0.69421 -4.0311,-0.0151 l -13.59951,9.96 0.13289,1.80128 c 0,0 2.5626,16.64461 0.45036,31.54744 -1.05612,7.45142 -3.4085,14.05926 -6.34936,17.63057 -2.94085,3.57127 -5.61582,5.36273 -13.43702,4.4667 l -6.28291,-0.72354 -3.00486,4.36335 c -0.22983,0.14137 -0.82576,0.57268 -2.99011,0.5168 -4.47758,-0.11566 -16.10845,-3.31487 -36.05106,-21.02671 l 1.41014,1.52825 c 0,0 0.0159,-1.5699 0.0665,0.76785 l -21.0341,0.45036 c 0.16727,7.7328 4.17138,11.451 4.17138,11.451 l 0.62756,0.84164 0.78259,0.69399 c 21.94483,19.4901 37.37256,26.01514 49.48071,26.32771 6.05405,0.15611 11.0835,-1.48901 14.478,-3.52905 0.51012,-0.30657 0.4102,-0.44586 0.87119,-0.79 11.324,-0.10055 21.18667,-4.70416 27.16197,-11.96041 6.84228,-8.30907 9.5726,-18.44877 10.93418,-28.05532 1.35927,-9.59026 1.22697,-19.04335 0.76046,-26.11356 1.41325,-0.35874 2.93902,-0.41479 4.23781,-1.01149 5.63929,-2.59079 9.78163,-6.89792 12.94974,-11.61339 6.33623,-9.43101 9.55025,-21.0856 11.81277,-32.78042 3.24256,-16.76067 3.86948,-30.58909 4.07539,-38.91566 4.35133,-1.93366 8.10782,-4.89525 10.76438,-8.18032 4.74528,-5.86802 7.62457,-12.66965 9.83412,-19.24744 4.41911,-13.1556 5.81779,-26.01021 5.81779,-26.01021 l 0.0147,-0.1255 0.0147,-0.12551 c 1.77611,-19.85197 -7.37425,-44.52132 -16.10226,-66.37292 -8.70551,-21.79524 -17.68739,-39.61334 -17.73391,-39.70565 -5.76459,-11.8198 -17.43915,-17.94996 -29.5762,-21.44751 -12.14882,-3.50101 -25.67184,-4.61658 -38.53174,-4.77681 z"
       id="path1629"
       inkscape:connector-curvature="0"
       sodipodi:nodetypes="cccsscccsccccccccccccscccccccccccccccsscccsccscccscccc" />
    <path
       style="color:#000000;font-style:normal;font-variant:normal;font-weight:normal;font-stretch:normal;font-size:medium;line-height:normal;font-family:sans-serif;font-variant-ligatures:normal;font-variant-position:normal;font-variant-caps:normal;font-variant-numeric:normal;font-variant-alternates:normal;font-feature-settings:normal;text-indent:0;text-align:start;text-decoration:none;text-decoration-line:none;text-decoration-style:solid;text-decoration-color:#000000;letter-spacing:normal;word-spacing:normal;text-transform:none;writing-mode:lr-tb;direction:ltr;text-orientation:mixed;dominant-baseline:auto;baseline-shift:baseline;text-anchor:start;white-space:normal;shape-padding:0;clip-rule:nonzero;display:inline;overflow:visible;visibility:visible;opacity:1;isolation:auto;mix-blend-mode:normal;color-interpolation:sRGB;color-interpolation-filters:linearRGB;solid-color:#000000;solid-opacity:1;vector-effect:none;fill:#000000;fill-opacity:1;fill-rule:nonzero;stroke:none;stroke-width:21.04365349;stroke-linecap:butt;stroke-linejoin:miter;stroke-miterlimit:4;stroke-dasharray:none;stroke-dashoffset:0;stroke-opacity:1;color-rendering:auto;image-rendering:auto;shape-rendering:auto;text-rendering:auto;enable-background:accumulate"
       d="M 93.620091,893.88537 81.024736,910.7407 c 0,0 10.068804,7.56317 22.451624,14.05719 6.19142,3.24698 12.9925,6.30156 20.07431,8.04742 7.08181,1.74591 15.09916,2.57613 22.6805,-1.85311 l -10.61672,-18.16949 c -0.0988,0.0578 -2.62081,0.68057 -7.0286,-0.40606 -4.40776,-1.08666 -10.04649,-3.48758 -15.33443,-6.26077 -10.5759,-5.5464 -19.631329,-12.27051 -19.631329,-12.27051 z"
       id="path1631"
       inkscape:connector-curvature="0" />
    <path
       style="color:#000000;font-style:normal;font-variant:normal;font-weight:normal;font-stretch:normal;font-size:medium;line-height:normal;font-family:sans-serif;font-variant-ligatures:normal;font-variant-position:normal;font-variant-caps:normal;font-variant-numeric:normal;font-variant-alternates:normal;font-feature-settings:normal;text-indent:0;text-align:start;text-decoration:none;text-decoration-line:none;text-decoration-style:solid;text-decoration-color:#000000;letter-spacing:normal;word-spacing:normal;text-transform:none;writing-mode:lr-tb;direction:ltr;text-orientation:mixed;dominant-baseline:auto;baseline-shift:baseline;text-anchor:start;white-space:normal;shape-padding:0;clip-rule:nonzero;display:inline;overflow:visible;visibility:visible;opacity:1;isolation:auto;mix-blend-mode:normal;color-interpolation:sRGB;color-interpolation-filters:linearRGB;solid-color:#000000;solid-opacity:1;vector-effect:none;fill:#000000;fill-opacity:1;fill-rule:nonzero;stroke:none;stroke-width:21.04365349;stroke-linecap:butt;stroke-linejoin:miter;stroke-miterlimit:4;stroke-dasharray:none;stroke-dashoffset:0;stroke-opacity:1;color-rendering:auto;image-rendering:auto;shape-rendering:auto;text-rendering:auto;enable-background:accumulate"
       d="m 99.046578,782.96355 -9.893184,18.57559 c 0,0 23.666716,12.59683 51.348596,25.71489 27.68186,13.11806 57.81811,26.89306 77.72795,29.37683 l 1.27725,0.16255 1.26987,-0.15499 c 0,0 4.13584,-0.42695 8.54211,2.26658 4.40628,2.6935 10.11674,8.2103 9.9301,28.07007 l 21.04146,0.1992 c 0.23197,-24.68144 -9.1763,-39.60525 -19.99308,-46.21741 -10.81679,-6.61219 -22.01603,-5.21239 -22.01603,-5.21239 l 2.55451,0.008 c -11.57238,-1.44413 -44.15637,-14.63719 -71.31954,-27.50943 -27.16317,-12.87224 -50.470012,-25.2793 -50.470012,-25.2793 z"
       id="path1633"
       inkscape:connector-curvature="0" />
    <path
       style="color:#000000;font-style:normal;font-variant:normal;font-weight:normal;font-stretch:normal;font-size:medium;line-height:normal;font-family:sans-serif;font-variant-ligatures:normal;font-variant-position:normal;font-variant-caps:normal;font-variant-numeric:normal;font-variant-alternates:normal;font-feature-settings:normal;text-indent:0;text-align:start;text-decoration:none;text-decoration-line:none;text-decoration-style:solid;text-decoration-color:#000000;letter-spacing:normal;word-spacing:normal;text-transform:none;writing-mode:lr-tb;direction:ltr;text-orientation:mixed;dominant-baseline:auto;baseline-shift:baseline;text-anchor:start;white-space:normal;shape-padding:0;clip-rule:nonzero;display:inline;overflow:visible;visibility:visible;opacity:1;isolation:auto;mix-blend-mode:normal;color-interpolation:sRGB;color-interpolation-filters:linearRGB;solid-color:#000000;solid-opacity:1;vector-effect:none;fill:#000000;fill-opacity:1;fill-rule:nonzero;stroke:none;stroke-width:21.04365349;stroke-linecap:butt;stroke-linejoin:miter;stroke-miterlimit:4;stroke-dasharray:none;stroke-dashoffset:0;stroke-opacity:1;color-rendering:auto;image-rendering:auto;shape-rendering:auto;text-rendering:auto;enable-background:accumulate"
       d="m 147.30908,711.23795 -4.68818,20.51731 c 0,0 19.29797,4.41093 40.38486,8.80049 10.54346,2.19478 21.53777,4.3858 30.89037,6.0319 9.35261,1.64608 16.21091,2.86391 22.0751,2.76121 h 0.25103 l 0.25103,-0.0151 c 0,0 6.44269,-0.64817 14.98007,5.30834 8.53736,5.95652 19.13991,18.79267 22.31873,50.83179 l 20.94549,-2.07462 c -3.5999,-36.28313 -17.22561,-56.25289 -31.2226,-66.01855 -13.99698,-9.76565 -28.39492,-9.05152 -28.39492,-9.05152 l 0.50205,-0.0227 c -1.10392,0.0189 -9.07575,-0.86273 -18.05876,-2.44378 -8.98303,-1.58106 -19.82804,-3.7373 -30.24805,-5.90639 -20.84003,-4.33816 -39.9862,-8.71928 -39.9862,-8.71928 z"
       id="path1635"
       inkscape:connector-curvature="0" />
    <path
       style="color:#000000;font-style:normal;font-variant:normal;font-weight:normal;font-stretch:normal;font-size:medium;line-height:normal;font-family:sans-serif;font-variant-ligatures:normal;font-variant-position:normal;font-variant-caps:normal;font-variant-numeric:normal;font-variant-alternates:normal;font-feature-settings:normal;text-indent:0;text-align:start;text-decoration:none;text-decoration-line:none;text-decoration-style:solid;text-decoration-color:#000000;letter-spacing:normal;word-spacing:normal;text-transform:none;writing-mode:lr-tb;direction:ltr;text-orientation:mixed;dominant-baseline:auto;baseline-shift:baseline;text-anchor:start;white-space:normal;shape-padding:0;clip-rule:nonzero;display:inline;overflow:visible;visibility:visible;opacity:1;isolation:auto;mix-blend-mode:normal;color-interpolation:sRGB;color-interpolation-filters:linearRGB;solid-color:#000000;solid-opacity:1;vector-effect:none;fill:#000000;fill-opacity:1;fill-rule:nonzero;stroke:none;stroke-width:21.04365349;stroke-linecap:butt;stroke-linejoin:miter;stroke-miterlimit:4;stroke-dasharray:none;stroke-dashoffset:0;stroke-opacity:1;color-rendering:auto;image-rendering:auto;shape-rendering:auto;text-rendering:auto;enable-background:accumulate"
       d="m 470.6686,637.29007 -15.68883,14.02766 c 0,0 6.0419,7.59861 6.50443,15.09082 0.23133,3.74609 -0.37687,7.21424 -4.18617,11.71678 -3.77105,4.45744 -11.37801,9.88208 -25.2719,14.67734 -1.21439,0.31034 -33.86625,8.40396 -72.12429,-12.7873 l -0.67923,-0.37651 -0.71615,-0.27329 c 0,0 -52.45211,-19.93582 -75.29158,-25.4491 l -4.93183,20.45822 c 18.30595,4.41891 72.54452,24.58562 72.72231,24.65174 45.28783,24.44427 86.71304,14.07933 86.71304,14.07933 l 0.3839,-0.096 0.38391,-0.13269 c 16.54474,-5.64214 27.72748,-12.70853 34.87717,-21.15962 7.14972,-8.45105 9.63705,-18.31922 9.12539,-26.60822 -1.02343,-16.57805 -11.82017,-27.81907 -11.82017,-27.81907 z"
       id="path1637"
       inkscape:connector-curvature="0" />
    <path
       style="color:#000000;font-style:normal;font-variant:normal;font-weight:normal;font-stretch:normal;font-size:medium;line-height:normal;font-family:sans-serif;font-variant-ligatures:normal;font-variant-position:normal;font-variant-caps:normal;font-variant-numeric:normal;font-variant-alternates:normal;font-feature-settings:normal;text-indent:0;text-align:start;text-decoration:none;text-decoration-line:none;text-decoration-style:solid;text-decoration-color:#000000;letter-spacing:normal;word-spacing:normal;text-transform:none;writing-mode:lr-tb;direction:ltr;text-orientation:mixed;dominant-baseline:auto;baseline-shift:baseline;text-anchor:start;white-space:normal;shape-padding:0;clip-rule:nonzero;display:inline;overflow:visible;visibility:visible;opacity:1;isolation:auto;mix-blend-mode:normal;color-interpolation:sRGB;color-interpolation-filters:linearRGB;solid-color:#000000;solid-opacity:1;vector-effect:none;fill:#000000;fill-opacity:1;fill-rule:nonzero;stroke:none;stroke-width:21.04365349;stroke-linecap:butt;stroke-linejoin:miter;stroke-miterlimit:4;stroke-dasharray:none;stroke-dashoffset:0;stroke-opacity:1;color-rendering:auto;image-rendering:auto;shape-rendering:auto;text-rendering:auto;enable-background:accumulate"
       d="m 333.86208,676.59703 c -18.89451,17.57648 -34.91409,13.10479 -34.91409,13.10479 l -4.48884,20.55421 c 0,0 28.46638,5.2536 53.73329,-18.25073 z"
       id="path1639"
       inkscape:connector-curvature="0" />
    <path
       style="color:#000000;font-style:normal;font-variant:normal;font-weight:normal;font-stretch:normal;font-size:medium;line-height:normal;font-family:sans-serif;font-variant-ligatures:normal;font-variant-position:normal;font-variant-caps:normal;font-variant-numeric:normal;font-variant-alternates:normal;font-feature-settings:normal;text-indent:0;text-align:start;text-decoration:none;text-decoration-line:none;text-decoration-style:solid;text-decoration-color:#000000;letter-spacing:normal;word-spacing:normal;text-transform:none;writing-mode:lr-tb;direction:ltr;text-orientation:mixed;dominant-baseline:auto;baseline-shift:baseline;text-anchor:start;white-space:normal;shape-padding:0;clip-rule:nonzero;display:inline;overflow:visible;visibility:visible;opacity:1;isolation:auto;mix-blend-mode:normal;color-interpolation:sRGB;color-interpolation-filters:linearRGB;solid-color:#000000;solid-opacity:1;vector-effect:none;fill:#000000;fill-opacity:1;fill-rule:nonzero;stroke:none;stroke-width:21.04365349;stroke-linecap:butt;stroke-linejoin:miter;stroke-miterlimit:4;stroke-dasharray:none;stroke-dashoffset:0;stroke-opacity:1;color-rendering:auto;image-rendering:auto;shape-rendering:auto;text-rendering:auto;enable-background:accumulate"
       d="m 418.29377,626.54788 c -3.13123,0.0941 -6.11924,0.5069 -8.96292,1.22553 -11.3748,2.87464 -19.71018,11.51452 -22.37042,21.38113 -5.32042,19.73317 8.82858,42.52321 34.98792,48.0779 l 5.67749,1.20342 4.05327,-4.15658 c 0,0 6.24281,-6.39593 12.35173,-15.50427 6.10889,-9.10834 12.90294,-21.11875 12.4846,-35.15035 l -0.19204,-6.50439 -5.90637,-2.73172 c -12.0322,-5.56742 -22.72956,-8.12323 -32.12334,-7.84067 z m 6.62992,21.52873 c 2.43312,0.38845 5.94176,1.91767 8.9777,2.91626 -1.49506,5.2242 -3.93004,10.95374 -7.35343,16.05799 -2.92053,4.3545 -3.93091,5.17126 -5.84734,7.37558 -11.46634,-4.86576 -14.87764,-14.39569 -13.42224,-19.79377 0.84375,-3.12941 2.32914,-5.22581 7.21316,-6.46009 2.44204,-0.61712 5.91797,-0.81664 10.43215,-0.096 z"
       id="path1641"
       inkscape:connector-curvature="0" />
    <path
       style="color:#000000;font-style:normal;font-variant:normal;font-weight:normal;font-stretch:normal;font-size:medium;line-height:normal;font-family:sans-serif;font-variant-ligatures:normal;font-variant-position:normal;font-variant-caps:normal;font-variant-numeric:normal;font-variant-alternates:normal;font-feature-settings:normal;text-indent:0;text-align:start;text-decoration:none;text-decoration-line:none;text-decoration-style:solid;text-decoration-color:#000000;letter-spacing:normal;word-spacing:normal;text-transform:none;writing-mode:lr-tb;direction:ltr;text-orientation:mixed;dominant-baseline:auto;baseline-shift:baseline;text-anchor:start;white-space:normal;shape-padding:0;clip-rule:nonzero;display:inline;overflow:visible;visibility:visible;opacity:1;isolation:auto;mix-blend-mode:normal;color-interpolation:sRGB;color-interpolation-filters:linearRGB;solid-color:#000000;solid-opacity:1;vector-effect:none;fill:#000000;fill-opacity:1;fill-rule:nonzero;stroke:none;stroke-width:21.04365349;stroke-linecap:butt;stroke-linejoin:miter;stroke-miterlimit:4;stroke-dasharray:none;stroke-dashoffset:0;stroke-opacity:1;color-rendering:auto;image-rendering:auto;shape-rendering:auto;text-rendering:auto;enable-background:accumulate"
       d="m 116.16031,891.85505 -15.52639,14.21223 c 0,0 28.59479,32.68997 66.79377,32.11593 1.29359,2.60769 2.68921,5.42853 4.9835,8.26155 l 16.35329,-13.24507 c -1.66666,-2.05799 -4.69556,-9.16228 -4.69556,-9.16228 l -2.89413,-8.13602 -8.5421,1.24774 c -27.46482,4.00831 -56.47238,-25.29408 -56.47238,-25.29408 z"
       id="path1643"
       inkscape:connector-curvature="0" />
    <path
       style="color:#000000;font-style:normal;font-variant:normal;font-weight:normal;font-stretch:normal;font-size:medium;line-height:normal;font-family:sans-serif;font-variant-ligatures:normal;font-variant-position:normal;font-variant-caps:normal;font-variant-numeric:normal;font-variant-alternates:normal;font-feature-settings:normal;text-indent:0;text-align:start;text-decoration:none;text-decoration-line:none;text-decoration-style:solid;text-decoration-color:#000000;letter-spacing:normal;word-spacing:normal;text-transform:none;writing-mode:lr-tb;direction:ltr;text-orientation:mixed;dominant-baseline:auto;baseline-shift:baseline;text-anchor:start;white-space:normal;shape-padding:0;clip-rule:nonzero;display:inline;overflow:visible;visibility:visible;opacity:1;isolation:auto;mix-blend-mode:normal;color-interpolation:sRGB;color-interpolation-filters:linearRGB;solid-color:#000000;solid-opacity:1;vector-effect:none;fill:#000000;fill-opacity:1;fill-rule:nonzero;stroke:none;stroke-width:21.04365349;stroke-linecap:butt;stroke-linejoin:miter;stroke-miterlimit:4;stroke-dasharray:none;stroke-dashoffset:0;stroke-opacity:1;color-rendering:auto;image-rendering:auto;shape-rendering:auto;text-rendering:auto;enable-background:accumulate"
       d="m 330.72432,702.09045 c -5.1021,34.69621 29.65002,56.1106 29.65002,56.1106 l 11.65034,-17.52718 c 0,0 -23.19046,-17.08987 -20.48037,-35.51948 z"
       id="path1645"
       inkscape:connector-curvature="0" />
    <path
       style="color:#000000;font-style:normal;font-variant:normal;font-weight:normal;font-stretch:normal;font-size:medium;line-height:normal;font-family:sans-serif;font-variant-ligatures:normal;font-variant-position:normal;font-variant-caps:normal;font-variant-numeric:normal;font-variant-alternates:normal;font-feature-settings:normal;text-indent:0;text-align:start;text-decoration:none;text-decoration-line:none;text-decoration-style:solid;text-decoration-color:#000000;letter-spacing:normal;word-spacing:normal;text-transform:none;writing-mode:lr-tb;direction:ltr;text-orientation:mixed;dominant-baseline:auto;baseline-shift:baseline;text-anchor:start;white-space:normal;shape-padding:0;clip-rule:nonzero;display:inline;overflow:visible;visibility:visible;opacity:1;isolation:auto;mix-blend-mode:normal;color-interpolation:sRGB;color-interpolation-filters:linearRGB;solid-color:#000000;solid-opacity:1;vector-effect:none;fill:#000000;fill-opacity:1;fill-rule:nonzero;stroke:none;stroke-width:21.04365349;stroke-linecap:butt;stroke-linejoin:miter;stroke-miterlimit:4;stroke-dasharray:none;stroke-dashoffset:0;stroke-opacity:1;color-rendering:auto;image-rendering:auto;shape-rendering:auto;text-rendering:auto;enable-background:accumulate"
       d="m 264.24063,922.31722 -18.74536,9.56833 c 13.41413,26.2811 45.79659,28.32106 45.79659,28.32106 l 2.18536,-20.93069 c 0,0 -22.46698,-3.69565 -29.23659,-16.9587 z"
       id="path1647"
       inkscape:connector-curvature="0" />
    <path
       style="color:#000000;font-style:normal;font-variant:normal;font-weight:normal;font-stretch:normal;font-size:medium;line-height:normal;font-family:sans-serif;font-variant-ligatures:normal;font-variant-position:normal;font-variant-caps:normal;font-variant-numeric:normal;font-variant-alternates:normal;font-feature-settings:normal;text-indent:0;text-align:start;text-decoration:none;text-decoration-line:none;text-decoration-style:solid;text-decoration-color:#000000;letter-spacing:normal;word-spacing:normal;text-transform:none;writing-mode:lr-tb;direction:ltr;text-orientation:mixed;dominant-baseline:auto;baseline-shift:baseline;text-anchor:start;white-space:normal;shape-padding:0;clip-rule:nonzero;display:inline;overflow:visible;visibility:visible;opacity:1;isolation:auto;mix-blend-mode:normal;color-interpolation:sRGB;color-interpolation-filters:linearRGB;solid-color:#000000;solid-opacity:1;vector-effect:none;fill:#000000;fill-opacity:1;fill-rule:nonzero;stroke:none;stroke-width:5.03335047;stroke-linecap:butt;stroke-linejoin:miter;stroke-miterlimit:4;stroke-dasharray:none;stroke-dashoffset:0;stroke-opacity:1;color-rendering:auto;image-rendering:auto;shape-rendering:auto;text-rendering:auto;enable-background:accumulate"
       d="m 483.52235,683.60351 c 0,0 -7.68736,12.87094 -13.47391,28.63116 -2.89328,7.88009 -5.32717,16.49969 -6.07619,24.74034 -0.74902,8.24064 0.17237,16.21226 4.41502,22.48115 l 4.164,-2.82029 c -3.30728,-4.88666 -4.25381,-11.64322 -3.56599,-19.2105 0.68784,-7.5673 2.9907,-15.8363 5.78826,-23.45571 1.46523,-3.99071 2.97088,-6.82494 4.52578,-10.26973 -0.43521,2.91233 -1.05907,5.0655 -1.28467,8.35017 -1.07186,15.60687 0.92223,34.80492 13.91691,48.24035 l 3.61766,-3.49956 c -11.49056,-11.88022 -13.52945,-29.5032 -12.50675,-44.39382 1.0227,-14.89058 5.02044,-26.69684 5.02044,-26.69684 z"
       id="path60719"
       inkscape:connector-curvature="0" />
    <path
       style="color:#000000;font-style:normal;font-variant:normal;font-weight:normal;font-stretch:normal;font-size:medium;line-height:normal;font-family:sans-serif;font-variant-ligatures:normal;font-variant-position:normal;font-variant-caps:normal;font-variant-numeric:normal;font-variant-alternates:normal;font-feature-settings:normal;text-indent:0;text-align:start;text-decoration:none;text-decoration-line:none;text-decoration-style:solid;text-decoration-color:#000000;letter-spacing:normal;word-spacing:normal;text-transform:none;writing-mode:lr-tb;direction:ltr;text-orientation:mixed;dominant-baseline:auto;baseline-shift:baseline;text-anchor:start;white-space:normal;shape-padding:0;clip-rule:nonzero;display:inline;overflow:visible;visibility:visible;opacity:1;isolation:auto;mix-blend-mode:normal;color-interpolation:sRGB;color-interpolation-filters:linearRGB;solid-color:#000000;solid-opacity:1;vector-effect:none;fill:#000000;fill-opacity:1;fill-rule:nonzero;stroke:none;stroke-width:5.03335047;stroke-linecap:butt;stroke-linejoin:miter;stroke-miterlimit:4;stroke-dasharray:none;stroke-dashoffset:0;stroke-opacity:1;color-rendering:auto;image-rendering:auto;shape-rendering:auto;text-rendering:auto;enable-background:accumulate"
       d="m 468.47588,599.96175 c -1.72845,13.14376 2.18814,31.69067 6.401,47.2363 4.21291,15.54559 8.83005,27.98883 8.83005,27.98883 l 4.82109,-1.41012 c 0,0 -2.28745,-10.64147 -1.86049,-24.0242 0.42692,-13.38278 3.63289,-29.22232 14.09408,-39.68351 l -3.5586,-3.5586 c -11.87163,11.87165 -15.11532,29.044 -15.56329,43.08704 -0.034,1.06648 0.1289,1.68695 0.1255,2.71694 -0.94872,-3.12209 -1.06232,-2.85865 -2.03032,-6.43057 -4.14718,-15.30313 -7.77983,-33.76933 -6.26814,-45.26502 z"
       id="path60719-5"
       inkscape:connector-curvature="0" />
    <path
       inkscape:connector-curvature="0"
       id="path29-3-1-2"
       d="m 657.97597,698.1121 c -16.36495,0.651 -31.56044,5.17138 -44.93599,11.57442 -42.80128,20.48991 -69.23139,60.03505 -69.23139,60.03505 l -16.46295,24.21843 27.63377,-9.68847 c 0,0 103.53145,-35.94287 209.54471,-1.44973 l 29.26578,9.52358 -18.59015,-24.52798 c -29.19119,-38.51269 -58.58063,-58.70994 -86.64037,-66.24652 -10.52258,-2.8263 -20.7638,-3.82922 -30.58341,-3.43878 z m 0.64232,19.22698 c 7.99473,-0.31186 16.31019,0.53272 24.93471,2.8493 17.41254,4.67699 36.47512,15.56594 56.59649,36.24678 -65.89719,-14.30324 -126.08708,-6.13194 -160.81039,1.5175 10.63606,-10.63083 24.96522,-22.68617 42.03399,-30.85734 11.48942,-5.49998 23.92196,-9.23618 37.2452,-9.75624 z"
       style="color:#000000;font-style:normal;font-variant:normal;font-weight:normal;font-stretch:normal;font-size:medium;line-height:normal;font-family:sans-serif;font-variant-ligatures:normal;font-variant-position:normal;font-variant-caps:normal;font-variant-numeric:normal;font-variant-alternates:normal;font-feature-settings:normal;text-indent:0;text-align:start;text-decoration:none;text-decoration-line:none;text-decoration-style:solid;text-decoration-color:#000000;letter-spacing:normal;word-spacing:normal;text-transform:none;writing-mode:lr-tb;direction:ltr;text-orientation:mixed;dominant-baseline:auto;baseline-shift:baseline;text-anchor:start;white-space:normal;shape-padding:0;clip-rule:nonzero;display:inline;overflow:visible;visibility:visible;opacity:1;isolation:auto;mix-blend-mode:normal;color-interpolation:sRGB;color-interpolation-filters:linearRGB;solid-color:#000000;solid-opacity:1;vector-effect:none;fill:#000000;fill-opacity:1;fill-rule:nonzero;stroke:none;stroke-width:19.29771614;stroke-linecap:butt;stroke-linejoin:miter;stroke-miterlimit:4;stroke-dasharray:none;stroke-dashoffset:0;stroke-opacity:1;color-rendering:auto;image-rendering:auto;shape-rendering:auto;text-rendering:auto;enable-background:accumulate" />
    <path
       inkscape:connector-curvature="0"
       id="path59-17-2-08"
       d="m 534.42371,257.18428 c -38.005,-0.69733 -74.19012,26.9993 -120.00555,81.8227 l 14.80999,12.37297 c 44.61363,-53.38559 76.75621,-75.41623 104.84162,-74.90081 28.08533,0.51532 58.29538,23.87088 98.5451,71.07588 L 647.3005,335.03483 C 606.07101,286.67995 572.42824,257.88188 534.42371,257.18428 Z"
       style="color:#000000;font-style:normal;font-variant:normal;font-weight:normal;font-stretch:normal;font-size:medium;line-height:normal;font-family:sans-serif;font-variant-ligatures:normal;font-variant-position:normal;font-variant-caps:normal;font-variant-numeric:normal;font-variant-alternates:normal;font-feature-settings:normal;text-indent:0;text-align:start;text-decoration:none;text-decoration-line:none;text-decoration-style:solid;text-decoration-color:#000000;letter-spacing:normal;word-spacing:normal;text-transform:none;writing-mode:lr-tb;direction:ltr;text-orientation:mixed;dominant-baseline:auto;baseline-shift:baseline;text-anchor:start;white-space:normal;shape-padding:0;clip-rule:nonzero;display:inline;overflow:visible;visibility:visible;opacity:1;isolation:auto;mix-blend-mode:normal;color-interpolation:sRGB;color-interpolation-filters:linearRGB;solid-color:#000000;solid-opacity:1;vector-effect:none;fill:#000000;fill-opacity:1;fill-rule:nonzero;stroke:none;stroke-width:19.29771614;stroke-linecap:butt;stroke-linejoin:miter;stroke-miterlimit:4;stroke-dasharray:none;stroke-dashoffset:0;stroke-opacity:1;color-rendering:auto;image-rendering:auto;shape-rendering:auto;text-rendering:auto;enable-background:accumulate" />
    <path
       inkscape:connector-curvature="0"
       id="path59-1-8-7-1"
       d="m 532.36091,392.20859 c -26.01533,-0.9355 -53.22233,9.52957 -85.17306,33.12917 l 11.46578,15.52306 c 29.9631,-22.13202 52.58848,-30.1008 73.01167,-29.36641 20.42352,0.73458 40.11701,10.38552 63.63606,27.2567 l 11.24731,-15.68231 c -24.81916,-17.80362 -48.17255,-29.9245 -74.18776,-30.86021 z"
       style="color:#000000;font-style:normal;font-variant:normal;font-weight:normal;font-stretch:normal;font-size:medium;line-height:normal;font-family:sans-serif;font-variant-ligatures:normal;font-variant-position:normal;font-variant-caps:normal;font-variant-numeric:normal;font-variant-alternates:normal;font-feature-settings:normal;text-indent:0;text-align:start;text-decoration:none;text-decoration-line:none;text-decoration-style:solid;text-decoration-color:#000000;letter-spacing:normal;word-spacing:normal;text-transform:none;writing-mode:lr-tb;direction:ltr;text-orientation:mixed;dominant-baseline:auto;baseline-shift:baseline;text-anchor:start;white-space:normal;shape-padding:0;clip-rule:nonzero;display:inline;overflow:visible;visibility:visible;opacity:1;isolation:auto;mix-blend-mode:normal;color-interpolation:sRGB;color-interpolation-filters:linearRGB;solid-color:#000000;solid-opacity:1;vector-effect:none;fill:#000000;fill-opacity:1;fill-rule:nonzero;stroke:none;stroke-width:19.29771614;stroke-linecap:butt;stroke-linejoin:miter;stroke-miterlimit:4;stroke-dasharray:none;stroke-dashoffset:0;stroke-opacity:1;color-rendering:auto;image-rendering:auto;shape-rendering:auto;text-rendering:auto;enable-background:accumulate" />
    <path
       inkscape:connector-curvature="0"
       id="path59-17-5-5-94"
       d="m 791.75996,254.48528 c -38.00485,-0.69747 -74.18976,26.99918 -120.00524,81.82253 l 14.80685,12.37595 c 44.61353,-53.38558 76.75946,-75.41933 104.8448,-74.90375 28.08533,0.51532 58.29485,23.87387 98.54457,71.07902 l 14.68314,-12.52039 c -41.22965,-48.3549 -74.86959,-77.15589 -112.87412,-77.85336 z"
       style="color:#000000;font-style:normal;font-variant:normal;font-weight:normal;font-stretch:normal;font-size:medium;line-height:normal;font-family:sans-serif;font-variant-ligatures:normal;font-variant-position:normal;font-variant-caps:normal;font-variant-numeric:normal;font-variant-alternates:normal;font-feature-settings:normal;text-indent:0;text-align:start;text-decoration:none;text-decoration-line:none;text-decoration-style:solid;text-decoration-color:#000000;letter-spacing:normal;word-spacing:normal;text-transform:none;writing-mode:lr-tb;direction:ltr;text-orientation:mixed;dominant-baseline:auto;baseline-shift:baseline;text-anchor:start;white-space:normal;shape-padding:0;clip-rule:nonzero;display:inline;overflow:visible;visibility:visible;opacity:1;isolation:auto;mix-blend-mode:normal;color-interpolation:sRGB;color-interpolation-filters:linearRGB;solid-color:#000000;solid-opacity:1;vector-effect:none;fill:#000000;fill-opacity:1;fill-rule:nonzero;stroke:none;stroke-width:19.29771614;stroke-linecap:butt;stroke-linejoin:miter;stroke-miterlimit:4;stroke-dasharray:none;stroke-dashoffset:0;stroke-opacity:1;color-rendering:auto;image-rendering:auto;shape-rendering:auto;text-rendering:auto;enable-background:accumulate" />
    <path
       inkscape:connector-curvature="0"
       id="path59-1-8-3-2-9"
       d="m 789.69717,389.51243 c -26.01536,-0.93564 -53.22217,9.52944 -85.17291,33.12918 l 11.46548,15.52011 c 29.96355,-22.132 52.58848,-30.09796 73.012,-29.36346 20.42368,0.73452 40.11395,10.38541 63.63294,27.25655 l 11.25043,-15.68211 c -24.81942,-17.80359 -48.17277,-29.92454 -74.18794,-30.86027 z"
       style="color:#000000;font-style:normal;font-variant:normal;font-weight:normal;font-stretch:normal;font-size:medium;line-height:normal;font-family:sans-serif;font-variant-ligatures:normal;font-variant-position:normal;font-variant-caps:normal;font-variant-numeric:normal;font-variant-alternates:normal;font-feature-settings:normal;text-indent:0;text-align:start;text-decoration:none;text-decoration-line:none;text-decoration-style:solid;text-decoration-color:#000000;letter-spacing:normal;word-spacing:normal;text-transform:none;writing-mode:lr-tb;direction:ltr;text-orientation:mixed;dominant-baseline:auto;baseline-shift:baseline;text-anchor:start;white-space:normal;shape-padding:0;clip-rule:nonzero;display:inline;overflow:visible;visibility:visible;opacity:1;isolation:auto;mix-blend-mode:normal;color-interpolation:sRGB;color-interpolation-filters:linearRGB;solid-color:#000000;solid-opacity:1;vector-effect:none;fill:#000000;fill-opacity:1;fill-rule:nonzero;stroke:none;stroke-width:19.29771614;stroke-linecap:butt;stroke-linejoin:miter;stroke-miterlimit:4;stroke-dasharray:none;stroke-dashoffset:0;stroke-opacity:1;color-rendering:auto;image-rendering:auto;shape-rendering:auto;text-rendering:auto;enable-background:accumulate" />
  </g>
</svg>
