<?xml version="1.0" encoding="UTF-8" standalone="no"?>
<!-- Created with Inkscape (http://www.inkscape.org/) -->

<svg
   xmlns:dc="http://purl.org/dc/elements/1.1/"
   xmlns:cc="http://creativecommons.org/ns#"
   xmlns:rdf="http://www.w3.org/1999/02/22-rdf-syntax-ns#"
   xmlns:svg="http://www.w3.org/2000/svg"
   xmlns="http://www.w3.org/2000/svg"
   xmlns:sodipodi="http://sodipodi.sourceforge.net/DTD/sodipodi-0.dtd"
   xmlns:inkscape="http://www.inkscape.org/namespaces/inkscape"
   width="1000"
   height="1250"
   viewBox="0 0 1000 1250.0001"
   version="1.1"
   id="svg3515"
   inkscape:version="0.92.4 (5da689c313, 2019-01-14)"
   sodipodi:docname="Castelo.svg">
  <defs
     id="defs3509" />
  <sodipodi:namedview
     id="base"
     pagecolor="#ffffff"
     bordercolor="#666666"
     borderopacity="1.0"
     inkscape:pageopacity="0.0"
     inkscape:pageshadow="2"
     inkscape:zoom="0.35355339"
     inkscape:cx="1087.4273"
     inkscape:cy="828.54837"
     inkscape:document-units="px"
     inkscape:current-layer="layer1"
     showgrid="false"
     units="px"
     inkscape:window-width="681"
     inkscape:window-height="706"
     inkscape:window-x="-7"
     inkscape:window-y="0"
     inkscape:window-maximized="0" />
  <metadata
     id="metadata3512">
    <rdf:RDF>
      <cc:Work
         rdf:about="">
        <dc:format>image/svg+xml</dc:format>
        <dc:type
           rdf:resource="http://purl.org/dc/dcmitype/StillImage" />
        <dc:title></dc:title>
      </cc:Work>
    </rdf:RDF>
  </metadata>
  <g
     inkscape:label="Camada 1"
     inkscape:groupmode="layer"
     id="layer1"
     transform="translate(0,127.48035)">
    <path
       style="fill:none;stroke:#000000;stroke-width:11.35730267;stroke-linecap:butt;stroke-linejoin:miter;stroke-miterlimit:4;stroke-dasharray:none;stroke-opacity:1"
       d="m 1649.1007,487.77332 c 0,0 -16.4891,-52.70642 -14.4279,-80.6791 0,0 -16.4894,-38.86729 -18.256,-47.99524 0,0 -19.4336,-45.05074 -22.3781,-63.01216 0,0 -5.0056,-4.41673 -7.6558,-10.30571 0,0 -10.0111,-4.12231 -16.489,-20.31701 0,0 -16.1948,-21.78924 -3.2391,-47.40633 0,0 17.6672,-37.39507 57.4178,-43.5785 0,0 3.8278,-7.06678 14.7222,-9.42238 0,0 32.3897,-9.42238 40.9287,-16.48915 0,0 10.3055,-8.2446 24.4392,-1.7667 0,0 11.1892,2.65004 16.1947,9.42237 5.947,6.24578 21.4918,15.18696 35.7593,13.36341 0,0 21.0694,-4.82439 27.5472,12.54813 0,0 12.0725,26.20599 10.0113,47.99523 0,0 -0.2945,8.24457 1.7668,16.78361 0,0 1.4721,25.91154 -0.2944,34.74501 0,0 -2.0612,19.43367 -1.178,29.73939 0,0 0,27.08934 -6.1833,42.40072 0,0 -8.2447,22.37812 -10.8948,40.33955 -0.2943,1.17778 -9.4222,43.87293 -14.1334,54.17865 0,0 -5.5945,20.90591 -24.4392,20.90591 0,0 -3.8279,21.4948 -20.906,24.73374 0,0 -16.1945,1.76669 -21.7892,-7.65568 0,0 -4.4169,16.19471 -21.4949,16.7836 0,0 -17.6667,0.58892 -25.0281,-15.31136 z"
       id="path16197"
       inkscape:connector-curvature="0"
       sodipodi:nodetypes="cccccccccccccccccccccccccc" />
    <path
       style="fill:none;stroke:#000000;stroke-width:11.35730267;stroke-linecap:butt;stroke-linejoin:miter;stroke-miterlimit:4;stroke-dasharray:none;stroke-opacity:1"
       d="m 1634.6728,407.09422 c 0,0 -2.6503,-27.67824 -7.3614,-44.46185 0,0 -6.7723,-27.08933 -4.1223,-50.93972 0,0 0.2945,-14.42803 -0.2943,-22.96705 0,0 -0.589,-10.60018 1.1778,-19.43366 0,0 1.1778,-26.20598 0.2942,-35.33392"
       id="path16199"
       inkscape:connector-curvature="0" />
    <path
       style="fill:none;stroke:#000000;stroke-width:11.35730267;stroke-linecap:butt;stroke-linejoin:miter;stroke-miterlimit:4;stroke-dasharray:none;stroke-opacity:1"
       d="m 1695.6237,486.30108 c 0,0 -0.5888,-9.42236 -3.828,-18.25586 0,0 -5.8886,-22.0837 -4.1221,-40.92845 0,0 -0.2945,-52.41198 -2.65,-63.01215 0,0 -3.5336,-38.86731 -2.6502,-48.28968 0,0 -2.0611,-68.31224 -8.8333,-83.32916"
       id="path16201"
       inkscape:connector-curvature="0" />
    <path
       style="fill:none;stroke:#000000;stroke-width:11.35730267;stroke-linecap:butt;stroke-linejoin:miter;stroke-miterlimit:4;stroke-dasharray:none;stroke-opacity:1"
       d="m 1677.458,249.56384 c 0,0 -1.6284,-14.0098 0.6616,-17.13289"
       id="path16203"
       inkscape:connector-curvature="0"
       sodipodi:nodetypes="cc" />
    <path
       style="fill:none;stroke:#000000;stroke-width:11.35730267;stroke-linecap:butt;stroke-linejoin:miter;stroke-miterlimit:4;stroke-dasharray:none;stroke-opacity:1"
       d="m 1738.3189,469.22302 c 0,0 3.5333,-25.73487 2.2967,-45.93408 0,0 0.8244,-59.36099 6.1834,-72.14009 0,0 5.7711,-22.67261 2.0612,-42.45959 0,0 -14.8403,-74.61345 -4.9467,-83.68249"
       id="path16205"
       inkscape:connector-curvature="0" />
    <path
       style="fill:none;stroke:#000000;stroke-width:11.35730267;stroke-linecap:butt;stroke-linejoin:miter;stroke-miterlimit:4;stroke-dasharray:none;stroke-opacity:1"
       d="m 1736.6993,225.21289 c 0,0 4.2833,26.59199 5.1078,37.51605"
       id="path16207"
       inkscape:connector-curvature="0"
       sodipodi:nodetypes="cc" />
    <path
       style="fill:none;stroke:#000000;stroke-width:11.35730267;stroke-linecap:butt;stroke-linejoin:miter;stroke-miterlimit:4;stroke-dasharray:none;stroke-opacity:1"
       d="m 1568.3037,227.48014 c 0,0 18.9627,-34.215 43.6963,-19.37477"
       id="path16209"
       inkscape:connector-curvature="0" />
    <path
       style="fill:none;stroke:#000000;stroke-width:11.35730267;stroke-linecap:butt;stroke-linejoin:miter;stroke-miterlimit:4;stroke-dasharray:none;stroke-opacity:1"
       d="m 1624.0726,174.47927 c 0,0 -2.0244,2.96658 -2.1275,6.05829"
       id="path16213"
       inkscape:connector-curvature="0" />
    <path
       style="fill:none;stroke:#000000;stroke-width:11.35730267;stroke-linecap:butt;stroke-linejoin:miter;stroke-miterlimit:4;stroke-dasharray:none;stroke-opacity:1"
       d="m 1655.4902,490.07004 c 0,0 17.3137,21.4359 34.215,-5.77121 -4.6148,-28.7125 -42.6527,-18.20455 -34.215,5.77121 z"
       id="path16221"
       inkscape:connector-curvature="0"
       sodipodi:nodetypes="ccc" />
    <path
       style="fill:none;stroke:#000000;stroke-width:11.35730267;stroke-linecap:butt;stroke-linejoin:miter;stroke-miterlimit:4;stroke-dasharray:none;stroke-opacity:1"
       d="m 1700.2171,483.47435 c 0,0 19.3747,14.22192 30.2988,-7.42011 1.9831,-22.96297 -35.965,-23.22262 -30.2988,7.42011 z"
       id="path16223"
       inkscape:connector-curvature="0"
       sodipodi:nodetypes="ccc" />
    <path
       style="fill:none;stroke:#000000;stroke-width:11.35730267;stroke-linecap:butt;stroke-linejoin:miter;stroke-miterlimit:4;stroke-dasharray:none;stroke-opacity:1"
       d="m 1738.8953,464.35283 c 0,0 10.2022,0.2915 14.5746,-5.68405 0,0 11.9509,-29.149 -12.6799,-23.90217"
       id="path16227"
       inkscape:connector-curvature="0" />
    <path
       style="fill:none;stroke:#000000;stroke-width:11.35730267;stroke-linecap:butt;stroke-linejoin:miter;stroke-miterlimit:4;stroke-dasharray:none;stroke-opacity:1"
       d="m 1720.3574,156.22341 c 0,0 3.3567,3.23894 4.3872,8.1857"
       id="path16229"
       inkscape:connector-curvature="0" />
    <path
       style="fill:none;stroke:#000000;stroke-width:11.35730267;stroke-linecap:butt;stroke-linejoin:miter;stroke-miterlimit:4;stroke-dasharray:none;stroke-opacity:1"
       d="m 1678.3692,149.57771 c 0,0 -2.3706,1.64007 -3.6588,5.71083"
       id="path16233"
       inkscape:connector-curvature="0"
       sodipodi:nodetypes="cc" />
    <path
       style="fill:none;stroke:#000000;stroke-width:11.35730267;stroke-linecap:butt;stroke-linejoin:miter;stroke-miterlimit:4;stroke-dasharray:none;stroke-opacity:1"
       d="m 232.10388,554.64823 c 16.39627,27.43868 41.158,46.5119 41.158,46.5119 10.03853,7.69618 16.61256,13.41194 16.61256,13.41194 11.83052,17.03594 63.88482,51.58108 63.88482,51.58108 15.14307,12.30375 59.86246,29.81291 59.86246,29.81291 17.74578,6.38849 34.78174,2.83933 34.78174,2.83933 15.8529,1.41966 8.51798,17.74579 8.51798,17.74579 -10.88409,15.61629 -40.697,17.98239 -40.697,17.98239 -16.32612,0.23661 -53.00076,-15.8529 -53.00076,-15.8529 -17.50918,-8.04477 -33.12547,-11.12068 -33.12547,-11.12068 6.3885,14.66984 31.94242,31.9424 31.94242,31.9424 4.49559,2.36611 7.57154,5.67867 7.57154,5.67867 9.70102,12.06712 24.37089,20.34848 24.37089,20.34848 5.67864,1.65629 13.72339,8.28138 13.72339,8.28138 11.83054,3.54915 19.16546,9.93765 19.16546,9.93765 24.37087,31.23257 -24.60749,37.85765 -24.60749,37.85765 -22.00478,0.47323 -47.3221,-22.24138 -47.3221,-22.24138 -13.4868,-6.38848 -21.76817,-14.90645 -21.76817,-14.90645 -7.33494,-3.54915 -39.51395,-28.62987 -39.51395,-28.62987 4.49561,7.57153 5.91526,23.42444 5.91526,23.42444 0.70983,8.75457 4.4956,14.19664 4.4956,14.19664 19.40206,18.92882 -0.94644,37.62105 -0.94644,37.62105 -18.92884,15.14308 -36.91123,3.07594 -36.91123,3.07594 -15.85291,-4.73221 -21.29494,-24.37089 -21.05833,-25.31732 -3.07594,-13.01358 -8.04476,-25.31733 -8.04476,-25.31733 -7.09832,-14.66985 -5.91526,-31.46919 -5.91526,-31.46919 -6.15187,-2.3661 -17.98239,1.65628 -17.98239,1.65628 0,14.19662 -16.79935,43.29971 -16.79935,43.29971 -12.54036,18.92884 -12.32706,43.58037 -12.32706,43.58037 -6.69237,23.75786 -30.97266,21.0143 -30.97266,21.0143 -28.39326,-7.09833 -26.73699,-29.81292 -26.73699,-29.81292 1.89289,-23.42444 10.64748,-38.80413 10.41086,-39.75057 2.83932,-5.44203 9.93765,-23.66105 9.93765,-23.66105 2.12948,-9.70103 11.3573,-24.60749 11.3573,-24.60749 -8.04476,-3.54915 -22.95122,8.04476 -22.95122,8.04476 -5.91527,4.96883 -30.52275,16.32612 -30.52275,16.32612 -15.379682,7.80815 -36.674625,21.29496 -36.674625,21.29496 C 50.42463,803.86045 31.25918,809.30249 31.25918,809.30249 4.0489755,811.43198 5.7052489,786.35127 5.7052489,786.35127 6.1784699,774.75736 17.062552,774.28414 17.062552,774.28414 c 5.678651,-2.36611 12.776966,-8.28136 12.776966,-8.28136 3.075936,-4.49561 12.303746,-8.51798 12.303746,-8.51798 13.250185,-5.67866 41.643443,-26.9736 41.643443,-26.9736 9.46442,-8.99121 36.911233,-29.3397 36.911233,-29.3397 17.03595,-12.77698 13.96001,-25.79055 13.96001,-25.79055 2.1295,-29.10308 11.35731,-44.00954 11.35731,-44.00954 0.70984,-4.02238 3.07594,-6.6251 3.07594,-6.6251 -3.07594,-4.25898 -4.73221,-9.93763 -4.73221,-9.93763 0,0 -5.61346,-5.61774 -10.29811,-10.3024"
       id="path16237"
       inkscape:connector-curvature="0"
       sodipodi:nodetypes="ccccccccccccccccccccccccccccccccccccccccccccccccc" />
    <path
       style="fill:none;stroke:#000000;stroke-width:11.35730267;stroke-linecap:butt;stroke-linejoin:miter;stroke-miterlimit:4;stroke-dasharray:none;stroke-opacity:1"
       d="m 158.0824,743.76138 c 0,0 12.11721,-20.13117 18.14033,-31.50819"
       id="path16239"
       inkscape:connector-curvature="0" />
    <path
       style="fill:none;stroke:#000000;stroke-width:11.35730267;stroke-linecap:butt;stroke-linejoin:miter;stroke-miterlimit:4;stroke-dasharray:none;stroke-opacity:1"
       d="m 213.21265,753.69903 c 0,0 -0.51659,-15.68027 4.16805,-28.06112"
       id="path16241"
       inkscape:connector-curvature="0" />
    <path
       style="fill:none;stroke:#000000;stroke-width:11.35730267;stroke-linecap:butt;stroke-linejoin:miter;stroke-miterlimit:4;stroke-dasharray:none;stroke-opacity:1"
       d="m 231.19504,752.04275 c 0,0 1.91269,-18.37402 3.92041,-23.72789 0,0 0,-7.02698 -1.00386,-10.03854"
       id="path16243"
       inkscape:connector-curvature="0" />
    <path
       style="fill:none;stroke:#000000;stroke-width:11.35730267;stroke-linecap:butt;stroke-linejoin:miter;stroke-miterlimit:4;stroke-dasharray:none;stroke-opacity:1"
       d="m 293.6602,755.82852 c 0,0 -4.00206,-15.13282 -12.70211,-33.53678"
       id="path16245"
       inkscape:connector-curvature="0" />
    <path
       style="fill:none;stroke:#000000;stroke-width:11.35730267;stroke-linecap:butt;stroke-linejoin:miter;stroke-miterlimit:4;stroke-dasharray:none;stroke-opacity:1"
       d="m 330.09821,707.55999 c 0,0 -8.31677,-19.73388 -14.00527,-24.08392"
       id="path16247"
       inkscape:connector-curvature="0" />
    <path
       style="fill:none;stroke:#000000;stroke-width:11.35730267;stroke-linecap:butt;stroke-linejoin:miter;stroke-miterlimit:4;stroke-dasharray:none;stroke-opacity:1"
       d="m 149.11869,670.09139 c 0,0 13.38472,-2.34235 24.76171,13.38468"
       id="path16249"
       inkscape:connector-curvature="0" />
    <path
       style="fill:none;stroke:#000000;stroke-width:11.35730267;stroke-linecap:butt;stroke-linejoin:miter;stroke-miterlimit:4;stroke-dasharray:none;stroke-opacity:1"
       d="m 190.61129,681.46836 c 0,0 14.72318,-8.36543 29.78098,4.35005"
       id="path16251"
       inkscape:connector-curvature="0" />
    <path
       style="fill:none;stroke:#000000;stroke-width:11.35730267;stroke-linecap:butt;stroke-linejoin:miter;stroke-miterlimit:4;stroke-dasharray:none;stroke-opacity:1"
       d="m 236.1193,682.80685 c 0,0 12.38085,-13.71934 30.45022,-7.02698"
       id="path16253"
       inkscape:connector-curvature="0" />
    <path
       style="fill:none;stroke:#000000;stroke-width:11.35730267;stroke-linecap:butt;stroke-linejoin:miter;stroke-miterlimit:4;stroke-dasharray:none;stroke-opacity:1"
       d="m 280.62346,678.1222 c 0,0 7.3616,-15.05781 22.41938,-10.03854"
       id="path16255"
       inkscape:connector-curvature="0" />
    <path
       style="fill:none;stroke:#000000;stroke-width:11.35730267;stroke-linecap:butt;stroke-linejoin:miter;stroke-miterlimit:4;stroke-dasharray:none;stroke-opacity:1"
       d="m 17.062552,774.28414 c 0,0 13.250187,7.33492 17.982395,17.27257 0,0 26.500375,-11.59391 -5.205429,-25.55393"
       id="path16259"
       inkscape:connector-curvature="0" />
    <path
       style="fill:none;stroke:#000000;stroke-width:11.35730267;stroke-linecap:butt;stroke-linejoin:miter;stroke-miterlimit:4;stroke-dasharray:none;stroke-opacity:1"
       d="m 137.74169,817.65777 c 0,0 28.77712,-11.54431 41.82721,12.71554 0.18453,-39.55975 -29.89918,-37.02997 -41.82721,-12.71554 z"
       id="path16261"
       inkscape:connector-curvature="0"
       sodipodi:nodetypes="ccc" />
    <path
       style="fill:none;stroke:#000000;stroke-width:11.35730267;stroke-linecap:butt;stroke-linejoin:miter;stroke-miterlimit:4;stroke-dasharray:none;stroke-opacity:1"
       d="m 255.35981,796.40958 c 0,0 26.10019,-16.06167 45.50803,-1.33847 -12.62604,-17.94393 -27.09967,-22.52824 -45.50803,1.33847 z"
       id="path16263"
       inkscape:connector-curvature="0"
       sodipodi:nodetypes="ccc" />
    <path
       style="fill:none;stroke:#000000;stroke-width:11.35730267;stroke-linecap:butt;stroke-linejoin:miter;stroke-miterlimit:4;stroke-dasharray:none;stroke-opacity:1"
       d="m 426.87191,783.74857 c 0,0 -23.44373,-1.05833 -36.1592,9.81676 0,0 -12.02243,-25.62217 16.99374,-19.75441"
       id="path16265"
       inkscape:connector-curvature="0" />
    <path
       inkscape:connector-curvature="0"
       id="path10-9-0-6"
       d="m 499.62516,-127.27908 c -86.07675,-0.0188 -145.20942,34.544928 -179.22322,86.249084 -34.01987,51.713656 -43.51229,119.238563 -36.077,186.079806 7.43531,66.84133 31.83041,133.29323 67.84728,183.7586 36.01696,50.46543 84.50902,85.62076 139.66358,85.2922 55.12851,-0.3284 103.22299,-35.85213 139.02713,-86.48784 35.80407,-50.63571 60.1531,-117.06278 68.23968,-183.73812 8.08629,-66.675168 -0.012,-133.844447 -31.42749,-185.35322 -31.41623,-51.508698 -87.08912,-86.0985 -168.04996,-85.80051 z m 0.0382,22.34004 h 0.021 0.024 c 74.76128,-0.27517 121.13124,29.576319 148.89245,75.092722 27.76132,45.516403 35.97532,107.953116 28.3251,171.031248 -7.65041,63.07831 -31.08676,126.55244 -64.30316,173.52838 -33.21611,46.97593 -75.37569,76.77604 -120.92029,77.04732 -45.51902,0.27113 -87.97415,-29.16916 -121.347,-75.93018 -33.37312,-46.7609 -56.81154,-110.16653 -63.829,-173.25022 -7.01745,-63.083817 2.41956,-125.550666 32.53775,-171.333269 30.11821,-45.782595 80.31776,-76.214921 160.59806,-76.186001 z"
       style="color:#000000;font-style:normal;font-variant:normal;font-weight:normal;font-stretch:normal;font-size:medium;line-height:normal;font-family:sans-serif;font-variant-ligatures:normal;font-variant-position:normal;font-variant-caps:normal;font-variant-numeric:normal;font-variant-alternates:normal;font-feature-settings:normal;text-indent:0;text-align:start;text-decoration:none;text-decoration-line:none;text-decoration-style:solid;text-decoration-color:#000000;letter-spacing:normal;word-spacing:normal;text-transform:none;writing-mode:lr-tb;direction:ltr;text-orientation:mixed;dominant-baseline:auto;baseline-shift:baseline;text-anchor:start;white-space:normal;shape-padding:0;clip-rule:nonzero;display:inline;overflow:visible;visibility:visible;opacity:1;isolation:auto;mix-blend-mode:normal;color-interpolation:sRGB;color-interpolation-filters:linearRGB;solid-color:#000000;solid-opacity:1;vector-effect:none;fill:#000000;fill-opacity:1;fill-rule:nonzero;stroke:none;stroke-width:22.34015465;stroke-linecap:butt;stroke-linejoin:miter;stroke-miterlimit:4;stroke-dasharray:none;stroke-dashoffset:0;stroke-opacity:1;color-rendering:auto;image-rendering:auto;shape-rendering:auto;text-rendering:auto;enable-background:accumulate" />
    <path
       inkscape:connector-curvature="0"
       id="path971-9-8"
       d="m 487.69979,141.77513 c 0,0 -1.26064,12.43405 -3.34468,25.4937 -1.04197,6.52977 -2.29611,13.21657 -3.64495,18.41199 -0.67441,2.59766 -1.38155,4.827 -2.0143,6.36527 -0.63259,1.53828 -1.44986,2.34307 -0.86288,1.85404 -1.23619,1.03003 -2.54399,1.89009 -3.2287,4.629 -0.34256,1.36943 -0.14785,3.40915 0.72658,4.83367 0.87404,1.42468 2.01099,2.12157 2.87044,2.52605 3.43776,1.6178 5.20306,0.99694 7.5405,0.83574 4.67508,-0.32242 9.73703,-1.36448 9.73703,-1.36448 l -2.18964,-10.95346 c 0,0 -2.38808,0.30351 -3.8325,0.54071 0.74058,-1.9861 1.44188,-4.05871 2.06527,-6.46076 1.50739,-5.80605 2.78956,-12.72936 3.86308,-19.45767 2.14747,-13.45643 3.42657,-26.12979 3.42657,-26.12979 z"
       style="color:#000000;font-style:normal;font-variant:normal;font-weight:normal;font-stretch:normal;font-size:medium;line-height:normal;font-family:sans-serif;font-variant-ligatures:normal;font-variant-position:normal;font-variant-caps:normal;font-variant-numeric:normal;font-variant-alternates:normal;font-feature-settings:normal;text-indent:0;text-align:start;text-decoration:none;text-decoration-line:none;text-decoration-style:solid;text-decoration-color:#000000;letter-spacing:normal;word-spacing:normal;text-transform:none;writing-mode:lr-tb;direction:ltr;text-orientation:mixed;dominant-baseline:auto;baseline-shift:baseline;text-anchor:start;white-space:normal;shape-padding:0;clip-rule:nonzero;display:inline;overflow:visible;visibility:visible;opacity:1;isolation:auto;mix-blend-mode:normal;color-interpolation:sRGB;color-interpolation-filters:linearRGB;solid-color:#000000;solid-opacity:1;vector-effect:none;fill:#000000;fill-opacity:1;fill-rule:nonzero;stroke:none;stroke-width:11.17007732;stroke-linecap:butt;stroke-linejoin:miter;stroke-miterlimit:4;stroke-dasharray:none;stroke-dashoffset:0;stroke-opacity:1;color-rendering:auto;image-rendering:auto;shape-rendering:auto;text-rendering:auto;enable-background:accumulate" />
    <path
       style="fill:none;stroke:#000000;stroke-width:11.35730267;stroke-linecap:butt;stroke-linejoin:miter;stroke-miterlimit:4;stroke-dasharray:none;stroke-opacity:1"
       d="m 1071.973,487.12555 c 0,0 16.4891,-52.70643 14.4279,-80.67912 0,0 16.4892,-38.8673 18.2558,-47.99523 0,0 19.4338,-45.05075 22.3783,-63.01217 0,0 5.0055,-4.41672 7.6557,-10.30571 0,0 10.0112,-4.1223 16.489,-20.317 0,0 16.1947,-21.78924 3.239,-47.40633 0,0 -17.6669,-37.39507 -57.4176,-43.57852 0,0 -3.8279,-7.06676 -14.7225,-9.42236 0,0 -32.3894,-9.42239 -40.9283,-16.48916 0,0 -10.3059,-8.24459 -24.4393,-1.7667 0,0 -11.1891,2.65004 -16.1949,9.42239 -5.94686,6.24577 -21.49161,15.18695 -35.75913,13.36339 0,0 -21.06945,-4.82437 -27.54735,12.54813 0,0 -12.07244,26.206 -10.01128,47.99524 0,0 0.29444,8.24458 -1.76672,16.78362 0,0 -1.4722,25.91154 0.29444,34.745 0,0 2.06115,19.43367 1.17783,29.73939 0,0 0,27.08933 6.1834,42.4007 0,0 8.24465,22.37814 10.89469,40.33955 0.29444,1.17781 9.42233,43.87294 14.13363,54.17868 0,0 5.59451,20.9059 24.43921,20.9059 0,0 3.82779,21.49479 20.90578,24.73369 0,0 16.1948,1.76674 21.7895,-7.65567 0,0 4.4165,16.19476 21.4947,16.78363 0,0 17.6668,0.58887 25.0282,-15.31134 z"
       id="path16197-9"
       inkscape:connector-curvature="0"
       sodipodi:nodetypes="cccccccccccccccccccccccccc" />
    <path
       style="fill:none;stroke:#000000;stroke-width:11.35730267;stroke-linecap:butt;stroke-linejoin:miter;stroke-miterlimit:4;stroke-dasharray:none;stroke-opacity:1"
       d="m 1086.4009,406.44643 c 0,0 2.6501,-27.67825 7.3613,-44.46185 0,0 6.7723,-27.08932 4.1223,-50.93972 0,0 -0.2945,-14.42801 0.2945,-22.96705 0,0 0.5888,-10.60017 -1.1779,-19.43365 0,0 -1.1778,-26.206 -0.2945,-35.3339"
       id="path16199-9"
       inkscape:connector-curvature="0" />
    <path
       style="fill:none;stroke:#000000;stroke-width:11.35730267;stroke-linecap:butt;stroke-linejoin:miter;stroke-miterlimit:4;stroke-dasharray:none;stroke-opacity:1"
       d="m 1025.4501,485.65326 c 0,0 0.5889,-9.4223 3.8277,-18.25582 0,0 5.889,-22.08371 4.1223,-40.92844 0,0 0.2945,-52.41198 2.6499,-63.01217 0,0 3.5336,-38.86731 2.6501,-48.28967 0,0 2.0612,-68.31225 8.8334,-83.32915"
       id="path16201-1"
       inkscape:connector-curvature="0" />
    <path
       style="fill:none;stroke:#000000;stroke-width:11.35730267;stroke-linecap:butt;stroke-linejoin:miter;stroke-miterlimit:4;stroke-dasharray:none;stroke-opacity:1"
       d="m 1043.6155,248.91606 c 0,0 1.6287,-14.00979 -0.6616,-17.1329"
       id="path16203-9"
       inkscape:connector-curvature="0"
       sodipodi:nodetypes="cc" />
    <path
       style="fill:none;stroke:#000000;stroke-width:11.35730267;stroke-linecap:butt;stroke-linejoin:miter;stroke-miterlimit:4;stroke-dasharray:none;stroke-opacity:1"
       d="m 982.75482,468.57524 c 0,0 -3.53335,-25.73488 -2.29664,-45.93411 0,0 -0.82444,-59.36096 -6.18347,-72.14007 0,0 -5.77112,-22.67259 -2.06106,-42.45958 0,0 14.8401,-74.61345 4.94665,-83.6825"
       id="path16205-1"
       inkscape:connector-curvature="0" />
    <path
       style="fill:none;stroke:#000000;stroke-width:11.35730267;stroke-linecap:butt;stroke-linejoin:miter;stroke-miterlimit:4;stroke-dasharray:none;stroke-opacity:1"
       d="m 984.37427,224.5651 c 0,0 -4.28321,26.592 -5.10766,37.51607"
       id="path16207-4"
       inkscape:connector-curvature="0"
       sodipodi:nodetypes="cc" />
    <path
       style="fill:none;stroke:#000000;stroke-width:11.35730267;stroke-linecap:butt;stroke-linejoin:miter;stroke-miterlimit:4;stroke-dasharray:none;stroke-opacity:1"
       d="m 1152.7698,226.83237 c 0,0 -18.9626,-34.21503 -43.6962,-19.37478"
       id="path16209-0"
       inkscape:connector-curvature="0" />
    <path
       style="fill:none;stroke:#000000;stroke-width:11.35730267;stroke-linecap:butt;stroke-linejoin:miter;stroke-miterlimit:4;stroke-dasharray:none;stroke-opacity:1"
       d="m 1097.0011,173.83147 c 0,0 2.0244,2.96661 2.1272,6.0583"
       id="path16213-6"
       inkscape:connector-curvature="0" />
    <path
       style="fill:none;stroke:#000000;stroke-width:11.35730267;stroke-linecap:butt;stroke-linejoin:miter;stroke-miterlimit:4;stroke-dasharray:none;stroke-opacity:1"
       d="m 1065.5833,489.42227 c 0,0 -17.3134,21.43587 -34.215,-5.77121 4.615,-28.71252 42.6528,-18.20456 34.215,5.77121 z"
       id="path16221-5"
       inkscape:connector-curvature="0"
       sodipodi:nodetypes="ccc" />
    <path
       style="fill:none;stroke:#000000;stroke-width:11.35730267;stroke-linecap:butt;stroke-linejoin:miter;stroke-miterlimit:4;stroke-dasharray:none;stroke-opacity:1"
       d="m 1020.8565,482.82662 c 0,0 -19.3748,14.2219 -30.29884,-7.42016 -1.98298,-22.96297 35.96504,-23.22262 30.29884,7.42016 z"
       id="path16223-0"
       inkscape:connector-curvature="0"
       sodipodi:nodetypes="ccc" />
    <path
       style="fill:none;stroke:#000000;stroke-width:11.35730267;stroke-linecap:butt;stroke-linejoin:miter;stroke-miterlimit:4;stroke-dasharray:none;stroke-opacity:1"
       d="m 982.17825,463.70507 c 0,0 -10.20207,0.29149 -14.57435,-5.68407 0,0 -11.95111,-29.149 12.67977,-23.90218"
       id="path16227-9"
       inkscape:connector-curvature="0" />
    <path
       style="fill:none;stroke:#000000;stroke-width:11.35730267;stroke-linecap:butt;stroke-linejoin:miter;stroke-miterlimit:4;stroke-dasharray:none;stroke-opacity:1"
       d="m 1000.7161,155.57564 c 0,0 -3.35664,3.23892 -4.38723,8.18568"
       id="path16229-3"
       inkscape:connector-curvature="0" />
    <path
       style="fill:none;stroke:#000000;stroke-width:11.35730267;stroke-linecap:butt;stroke-linejoin:miter;stroke-miterlimit:4;stroke-dasharray:none;stroke-opacity:1"
       d="m 755.59763,559.80417 c -16.39624,27.43866 -41.15801,46.51188 -41.15801,46.51188 -10.03852,7.69621 -16.61252,13.41196 -16.61252,13.41196 -11.83052,17.03595 -63.88484,51.58108 -63.88484,51.58108 -15.14306,12.30375 -59.86245,29.81291 -59.86245,29.81291 -17.74577,6.3885 -34.78171,2.83933 -34.78171,2.83933 -15.85292,1.41967 -8.51801,17.74579 -8.51801,17.74579 10.8841,15.61629 40.69701,17.98239 40.69701,17.98239 16.32612,0.23661 53.00074,-15.8529 53.00074,-15.8529 17.50918,-8.04476 33.12548,-11.1207 33.12548,-11.1207 -6.38849,14.66986 -31.94242,31.94241 -31.94242,31.94241 -4.49559,2.36612 -7.57154,5.67866 -7.57154,5.67866 -9.70103,12.06714 -24.37088,20.34851 -24.37088,20.34851 -5.67865,1.65627 -13.7234,8.28137 -13.7234,8.28137 -11.83051,3.54916 -19.16545,9.93763 -19.16545,9.93763 -24.37088,31.23259 24.6075,37.85768 24.6075,37.85768 22.00477,0.47323 47.32209,-22.24139 47.32209,-22.24139 13.4868,-6.38847 21.76815,-14.90646 21.76815,-14.90646 7.33495,-3.54916 39.51398,-28.62987 39.51398,-28.62987 -4.49561,7.57155 -5.91528,23.42445 -5.91528,23.42445 -0.70982,8.7546 -4.49559,14.19663 -4.49559,14.19663 -19.40207,18.92884 0.94645,37.62106 0.94645,37.62106 18.92882,15.14309 36.91123,3.07594 36.91123,3.07594 15.8529,-4.73221 21.29495,-24.37089 21.05833,-25.31733 3.07593,-13.01357 8.04475,-25.31731 8.04475,-25.31731 7.09831,-14.66984 5.91526,-31.4692 5.91526,-31.4692 6.15189,-2.36609 17.9824,1.65628 17.9824,1.65628 0,14.19663 16.79935,43.29971 16.79935,43.29971 12.54033,18.92884 12.32703,43.58038 12.32703,43.58038 6.69238,23.75789 30.97266,21.01424 30.97266,21.01424 28.39327,-7.09827 26.73701,-29.81287 26.73701,-29.81287 -1.8929,-23.42444 -10.64748,-38.80412 -10.41088,-39.75056 -2.83933,-5.44206 -9.93763,-23.66106 -9.93763,-23.66106 -2.12949,-9.70103 -11.3573,-24.60748 -11.3573,-24.60748 8.04474,-3.54915 22.95121,8.04475 22.95121,8.04475 5.91526,4.96882 30.52272,16.32613 30.52272,16.32613 15.37968,7.80815 36.67462,21.29494 36.67462,21.29494 17.50918,14.43325 36.67464,19.87528 36.67464,19.87528 27.21018,2.1295 25.55392,-22.95122 25.55392,-22.95122 -0.47322,-11.59391 -11.35731,-12.06714 -11.35731,-12.06714 -5.67865,-2.36609 -12.77696,-8.28136 -12.77696,-8.28136 -3.07594,-4.49559 -12.30375,-8.51797 -12.30375,-8.51797 -13.25018,-5.67866 -41.64344,-26.9736 -41.64344,-26.9736 -9.46442,-8.9912 -36.91119,-29.3397 -36.91119,-29.3397 -17.03598,-12.77698 -13.96003,-25.79054 -13.96003,-25.79054 -2.1295,-29.10309 -11.3573,-44.00955 -11.3573,-44.00955 -0.70983,-4.02238 -3.07595,-6.6251 -3.07595,-6.6251 3.07595,-4.25898 4.73221,-9.93763 4.73221,-9.93763 0,0 5.61346,-5.61775 10.29806,-10.3024"
       id="path16237-6"
       inkscape:connector-curvature="0"
       sodipodi:nodetypes="ccccccccccccccccccccccccccccccccccccccccccccccccc" />
    <path
       style="fill:none;stroke:#000000;stroke-width:11.35730267;stroke-linecap:butt;stroke-linejoin:miter;stroke-miterlimit:4;stroke-dasharray:none;stroke-opacity:1"
       d="m 829.61914,748.91733 c 0,0 -12.1173,-20.13119 -18.14035,-31.50819"
       id="path16239-1"
       inkscape:connector-curvature="0" />
    <path
       style="fill:none;stroke:#000000;stroke-width:11.35730267;stroke-linecap:butt;stroke-linejoin:miter;stroke-miterlimit:4;stroke-dasharray:none;stroke-opacity:1"
       d="m 774.4889,758.85497 c 0,0 0.51656,-15.68027 -4.16814,-28.06112"
       id="path16241-5"
       inkscape:connector-curvature="0" />
    <path
       style="fill:none;stroke:#000000;stroke-width:11.35730267;stroke-linecap:butt;stroke-linejoin:miter;stroke-miterlimit:4;stroke-dasharray:none;stroke-opacity:1"
       d="m 756.5065,757.19869 c 0,0 -1.91276,-18.37402 -3.92044,-23.72788 0,0 0,-7.02698 1.00389,-10.03855"
       id="path16243-1"
       inkscape:connector-curvature="0" />
    <path
       style="fill:none;stroke:#000000;stroke-width:11.35730267;stroke-linecap:butt;stroke-linejoin:miter;stroke-miterlimit:4;stroke-dasharray:none;stroke-opacity:1"
       d="m 694.04135,760.98445 c 0,0 4.00201,-15.1328 12.7021,-33.53676"
       id="path16245-8"
       inkscape:connector-curvature="0" />
    <path
       style="fill:none;stroke:#000000;stroke-width:11.35730267;stroke-linecap:butt;stroke-linejoin:miter;stroke-miterlimit:4;stroke-dasharray:none;stroke-opacity:1"
       d="m 657.60332,712.71591 c 0,0 8.31677,-19.73386 14.00527,-24.08391"
       id="path16247-6"
       inkscape:connector-curvature="0" />
    <path
       style="fill:none;stroke:#000000;stroke-width:11.35730267;stroke-linecap:butt;stroke-linejoin:miter;stroke-miterlimit:4;stroke-dasharray:none;stroke-opacity:1"
       d="m 838.58279,675.24731 c 0,0 -13.38467,-2.34233 -24.76166,13.38469"
       id="path16249-1"
       inkscape:connector-curvature="0" />
    <path
       style="fill:none;stroke:#000000;stroke-width:11.35730267;stroke-linecap:butt;stroke-linejoin:miter;stroke-miterlimit:4;stroke-dasharray:none;stroke-opacity:1"
       d="m 797.09022,686.6243 c 0,0 -14.72323,-8.36543 -29.78103,4.35005"
       id="path16251-6"
       inkscape:connector-curvature="0" />
    <path
       style="fill:none;stroke:#000000;stroke-width:11.35730267;stroke-linecap:butt;stroke-linejoin:miter;stroke-miterlimit:4;stroke-dasharray:none;stroke-opacity:1"
       d="m 751.58217,687.96279 c 0,0 -12.38078,-13.71934 -30.45016,-7.02699"
       id="path16253-4"
       inkscape:connector-curvature="0" />
    <path
       style="fill:none;stroke:#000000;stroke-width:11.35730267;stroke-linecap:butt;stroke-linejoin:miter;stroke-miterlimit:4;stroke-dasharray:none;stroke-opacity:1"
       d="m 707.07801,683.27814 c 0,0 -7.36152,-15.0578 -22.41932,-10.03853"
       id="path16255-9"
       inkscape:connector-curvature="0" />
    <path
       style="fill:none;stroke:#000000;stroke-width:11.35730267;stroke-linecap:butt;stroke-linejoin:miter;stroke-miterlimit:4;stroke-dasharray:none;stroke-opacity:1"
       d="m 970.63894,779.44007 c 0,0 -13.25018,7.33494 -17.98239,17.27257 0,0 -26.50038,-11.59392 5.20543,-25.55393"
       id="path16259-7"
       inkscape:connector-curvature="0" />
    <path
       style="fill:none;stroke:#000000;stroke-width:11.35730267;stroke-linecap:butt;stroke-linejoin:miter;stroke-miterlimit:4;stroke-dasharray:none;stroke-opacity:1"
       d="m 849.95977,822.81371 c 0,0 -28.77711,-11.54431 -41.82713,12.71554 -0.18456,-39.55976 29.89914,-37.02997 41.82713,-12.71554 z"
       id="path16261-0"
       inkscape:connector-curvature="0"
       sodipodi:nodetypes="ccc" />
    <path
       style="fill:none;stroke:#000000;stroke-width:11.35730267;stroke-linecap:butt;stroke-linejoin:miter;stroke-miterlimit:4;stroke-dasharray:none;stroke-opacity:1"
       d="m 732.34167,801.56553 c 0,0 -26.10022,-16.06169 -45.50796,-1.33845 12.626,-17.94396 27.09966,-22.52826 45.50796,1.33845 z"
       id="path16263-4"
       inkscape:connector-curvature="0"
       sodipodi:nodetypes="ccc" />
    <path
       style="fill:none;stroke:#000000;stroke-width:11.35730267;stroke-linecap:butt;stroke-linejoin:miter;stroke-miterlimit:4;stroke-dasharray:none;stroke-opacity:1"
       d="m 560.82963,788.90449 c 0,0 23.44364,-1.0583 36.15919,9.81678 0,0 12.02237,-25.62218 -16.99374,-19.75441"
       id="path16265-9"
       inkscape:connector-curvature="0" />
    <path
       inkscape:connector-curvature="0"
       id="path10-9-0-6-9"
       d="m 1369.6314,-127.27908 c -86.0768,-0.0188 -145.2095,34.544918 -179.2234,86.249079 -34.0198,51.713662 -43.5122,119.238573 -36.0769,186.079811 7.4352,66.84133 31.8304,133.29323 67.8473,183.7586 36.0169,50.46543 84.5089,85.62076 139.6636,85.2922 55.1285,-0.3284 103.2229,-35.85213 139.0272,-86.48784 35.8039,-50.63571 60.153,-117.06278 68.2395,-183.73812 8.0863,-66.675165 -0.012,-133.844441 -31.4275,-185.353218 -31.4161,-51.50871 -87.0891,-86.098502 -168.0498,-85.800512 z m 0.038,22.34004 h 0.021 0.024 c 74.7613,-0.27517 121.1313,29.576309 148.8924,75.092728 27.7613,45.516397 35.9754,107.953113 28.3253,171.031242 -7.6505,63.07831 -31.0867,126.55244 -64.3033,173.52838 -33.216,46.97593 -75.3757,76.77604 -120.9203,77.04732 -45.5191,0.27113 -87.9742,-29.16916 -121.347,-75.93018 -33.373,-46.7609 -56.8114,-110.16653 -63.829,-173.25022 -7.0173,-63.083814 2.4196,-125.550666 32.5377,-171.333272 30.1183,-45.782601 80.3178,-76.214918 160.5983,-76.185998 z"
       style="color:#000000;font-style:normal;font-variant:normal;font-weight:normal;font-stretch:normal;font-size:medium;line-height:normal;font-family:sans-serif;font-variant-ligatures:normal;font-variant-position:normal;font-variant-caps:normal;font-variant-numeric:normal;font-variant-alternates:normal;font-feature-settings:normal;text-indent:0;text-align:start;text-decoration:none;text-decoration-line:none;text-decoration-style:solid;text-decoration-color:#000000;letter-spacing:normal;word-spacing:normal;text-transform:none;writing-mode:lr-tb;direction:ltr;text-orientation:mixed;dominant-baseline:auto;baseline-shift:baseline;text-anchor:start;white-space:normal;shape-padding:0;clip-rule:nonzero;display:inline;overflow:visible;visibility:visible;opacity:1;isolation:auto;mix-blend-mode:normal;color-interpolation:sRGB;color-interpolation-filters:linearRGB;solid-color:#000000;solid-opacity:1;vector-effect:none;fill:#000000;fill-opacity:1;fill-rule:nonzero;stroke:none;stroke-width:22.34015465;stroke-linecap:butt;stroke-linejoin:miter;stroke-miterlimit:4;stroke-dasharray:none;stroke-dashoffset:0;stroke-opacity:1;color-rendering:auto;image-rendering:auto;shape-rendering:auto;text-rendering:auto;enable-background:accumulate" />
    <path
       inkscape:connector-curvature="0"
       id="path971-9-8-4"
       d="m 1357.706,141.77513 c 0,0 -1.2607,12.43405 -3.3447,25.4937 -1.0421,6.52977 -2.2961,13.21657 -3.6449,18.41199 -0.6745,2.59766 -1.3816,4.827 -2.0144,6.36527 -0.6327,1.53828 -1.4499,2.34307 -0.8628,1.85404 -1.2363,1.03003 -2.5439,1.89009 -3.2288,4.629 -0.3424,1.36943 -0.1479,3.40915 0.7266,4.83367 0.874,1.42468 2.011,2.12157 2.8705,2.52605 3.4377,1.6178 5.2031,0.99694 7.5404,0.83574 4.6751,-0.32242 9.737,-1.36448 9.737,-1.36448 l -2.1895,-10.95346 c 0,0 -2.388,0.30351 -3.8325,0.54071 0.7406,-1.9861 1.4419,-4.05871 2.0651,-6.46076 1.5075,-5.80605 2.7896,-12.72936 3.8632,-19.45767 2.1475,-13.45643 3.4266,-26.12979 3.4266,-26.12979 z"
       style="color:#000000;font-style:normal;font-variant:normal;font-weight:normal;font-stretch:normal;font-size:medium;line-height:normal;font-family:sans-serif;font-variant-ligatures:normal;font-variant-position:normal;font-variant-caps:normal;font-variant-numeric:normal;font-variant-alternates:normal;font-feature-settings:normal;text-indent:0;text-align:start;text-decoration:none;text-decoration-line:none;text-decoration-style:solid;text-decoration-color:#000000;letter-spacing:normal;word-spacing:normal;text-transform:none;writing-mode:lr-tb;direction:ltr;text-orientation:mixed;dominant-baseline:auto;baseline-shift:baseline;text-anchor:start;white-space:normal;shape-padding:0;clip-rule:nonzero;display:inline;overflow:visible;visibility:visible;opacity:1;isolation:auto;mix-blend-mode:normal;color-interpolation:sRGB;color-interpolation-filters:linearRGB;solid-color:#000000;solid-opacity:1;vector-effect:none;fill:#000000;fill-opacity:1;fill-rule:nonzero;stroke:none;stroke-width:11.17007732;stroke-linecap:butt;stroke-linejoin:miter;stroke-miterlimit:4;stroke-dasharray:none;stroke-dashoffset:0;stroke-opacity:1;color-rendering:auto;image-rendering:auto;shape-rendering:auto;text-rendering:auto;enable-background:accumulate" />
    <path
       style="fill:none;stroke:#000000;stroke-width:14.37734318;stroke-linecap:butt;stroke-linejoin:miter;stroke-miterlimit:4;stroke-dasharray:none;stroke-opacity:1"
       d="m 1038.8361,617.64093 0.7658,174.9249 h -39.5376 V 617.64149 h -23.96239 l 44.58519,-77.22367 42.3301,77.22311 z"
       id="path17315"
       inkscape:connector-curvature="0"
       sodipodi:nodetypes="cccccccc" />
    <path
       style="fill:none;stroke:#000000;stroke-width:14.37734318;stroke-linecap:butt;stroke-linejoin:miter;stroke-miterlimit:4;stroke-dasharray:none;stroke-opacity:1"
       d="m 1721.4564,617.64093 0.7657,174.9249 h -39.5378 V 617.64149 h -23.9623 l 44.5853,-77.22367 42.3303,77.22311 z"
       id="path17315-1"
       inkscape:connector-curvature="0"
       sodipodi:nodetypes="cccccccc" />
    <path
       style="font-style:normal;font-weight:normal;font-size:233.33332825px;line-height:1.25;font-family:sans-serif;letter-spacing:0px;word-spacing:0px;fill:#000000;fill-opacity:1;stroke:none"
       d="M 1152.4531 1069.1895 L 1152.4531 1246.4688 L 1173.873 1246.4688 L 1173.873 1069.1895 L 1152.4531 1069.1895 z M 571.16992 1073.7461 C 558.71332 1073.7461 547.35937 1075.6829 537.10547 1079.5566 C 526.92752 1083.4303 518.22938 1089.0523 511.01367 1096.4199 C 503.5701 1104.0154 497.87348 1113.3186 493.92383 1124.332 C 489.97418 1135.3455 488 1147.8407 488 1161.8164 C 488 1176.5516 490.05078 1189.5026 494.15234 1200.668 C 498.25391 1211.7574 503.95052 1220.9093 511.24219 1228.125 C 518.68576 1235.4926 527.42122 1240.924 537.44727 1244.418 C 547.54926 1247.8359 558.75195 1249.5449 571.05664 1249.5449 C 577.58876 1249.5449 583.55056 1249.0126 588.94336 1247.9492 C 594.41211 1246.9618 599.46441 1245.7459 604.09766 1244.3027 C 609.56641 1242.5558 613.97049 1240.8861 617.3125 1239.291 C 620.73047 1237.696 624.52951 1235.987 628.70703 1234.1641 L 628.70703 1207.7305 L 627.11133 1207.7305 C 618.83225 1215.174 609.94553 1220.7567 600.45117 1224.4785 C 590.95681 1228.2003 580.77951 1230.0625 569.91797 1230.0625 C 562.01866 1230.0625 554.49913 1228.7326 547.35938 1226.0742 C 540.29557 1223.3398 534.10395 1219.1617 528.78711 1213.541 C 523.69813 1208.1482 519.52192 1201.161 516.25586 1192.5781 C 513.06576 1183.9952 511.4707 1173.7413 511.4707 1161.8164 C 511.4707 1150.4232 512.91254 1140.3971 515.79883 1131.7383 C 518.76107 1123.0035 522.86263 1115.7884 528.10352 1110.0918 C 533.49631 1104.2433 539.61133 1099.9512 546.44727 1097.2168 C 553.35916 1094.4065 561.10655 1093.002 569.68945 1093.002 C 580.17122 1093.002 590.00673 1094.7856 599.19727 1098.3555 C 608.3878 1101.9253 617.6556 1107.622 626.99805 1115.4453 L 628.70703 1115.4453 L 628.70703 1088.6719 C 617.61762 1083.1272 607.51497 1079.2535 598.40039 1077.0508 C 589.36176 1074.8481 580.28451 1073.7461 571.16992 1073.7461 z M 921.62695 1082.6328 L 921.62695 1119.2051 L 907.15625 1119.2051 L 907.15625 1137.207 L 921.62695 1137.207 L 921.62695 1204.8828 C 921.62695 1220.3016 925.00564 1231.5043 931.76562 1238.4922 C 938.52561 1245.48 948.40039 1248.9746 961.38867 1248.9746 C 965.11046 1248.9746 969.32595 1248.6328 974.03516 1247.9492 C 978.82031 1247.2656 983.22635 1246.3915 987.25195 1245.3281 L 987.25195 1226.0742 L 986.11133 1226.0742 C 984.44032 1226.7578 981.70595 1227.6319 977.9082 1228.6953 C 974.11046 1229.6827 970.46463 1230.1758 966.9707 1230.1758 C 960.97027 1230.1758 956.48958 1229.4922 953.52734 1228.125 C 950.64106 1226.6819 948.36241 1224.4405 946.69141 1221.4023 C 944.86849 1218.1363 943.80577 1214.6437 943.50195 1210.9219 C 943.19813 1207.1241 943.04492 1201.8832 943.04492 1195.1992 L 943.04492 1137.207 L 987.25195 1137.207 L 987.25195 1119.2051 L 943.04492 1119.2051 L 943.04492 1082.6328 L 921.62695 1082.6328 z M 1066.0918 1115.6738 C 1047.5588 1115.6738 1032.5964 1121.7888 1021.2031 1134.0176 C 1009.8859 1146.2463 1004.2266 1162.7665 1004.2266 1183.5781 C 1004.2266 1204.6176 1010.151 1220.8707 1022 1232.3398 C 1033.849 1243.7331 1050.3318 1249.4297 1071.4473 1249.4297 C 1079.7263 1249.4297 1087.625 1248.4043 1095.1445 1246.3535 C 1102.6641 1244.3027 1110.0323 1241.7589 1117.248 1238.7207 L 1117.248 1215.3652 L 1116.1094 1215.3652 C 1112.3876 1218.7072 1106.1213 1222.1252 1097.3105 1225.6191 C 1088.5757 1229.0371 1079.8776 1230.7461 1071.2188 1230.7461 C 1064.6866 1230.7461 1058.6875 1229.8346 1053.2188 1228.0117 C 1047.826 1226.1888 1043.1547 1223.4544 1039.2051 1219.8086 C 1035.1035 1216.0868 1031.8741 1211.339 1029.5195 1205.5664 C 1027.1649 1199.7179 1025.9883 1192.8819 1025.9883 1185.0586 L 1119.7539 1185.0586 L 1119.7539 1173.4375 C 1119.7539 1154.9805 1115.0827 1140.7389 1105.7402 1130.7129 C 1096.4737 1120.6868 1083.2576 1115.6738 1066.0918 1115.6738 z M 1266.2715 1115.6738 C 1248.2702 1115.6738 1233.952 1121.7122 1223.3184 1133.7891 C 1212.7606 1145.7899 1207.4824 1162.1589 1207.4824 1182.8945 C 1207.4824 1203.6302 1212.7606 1219.9972 1223.3184 1231.998 C 1233.952 1243.9989 1248.2702 1250 1266.2715 1250 C 1284.1209 1250 1298.3624 1243.9989 1308.9961 1231.998 C 1319.6298 1219.9972 1324.9473 1203.6302 1324.9473 1182.8945 C 1324.9473 1162.1589 1319.6298 1145.7899 1308.9961 1133.7891 C 1298.3624 1121.7122 1284.1209 1115.6738 1266.2715 1115.6738 z M 702.64844 1116.1289 C 694.977 1116.1289 687.19227 1116.8125 679.29297 1118.1797 C 671.39366 1119.5469 665.35525 1120.8001 661.17773 1121.9395 L 661.17773 1143.7012 L 662.31641 1143.7012 C 669.68403 1140.8908 676.82444 1138.7635 683.73633 1137.3203 C 690.64822 1135.8012 696.9145 1135.043 702.53516 1135.043 C 707.1684 1135.043 711.61176 1135.3455 715.86523 1135.9531 C 720.11871 1136.5608 723.76454 1137.7394 726.80273 1139.4863 C 729.99284 1141.3092 732.42274 1143.8158 734.09375 1147.0059 C 735.84071 1150.196 736.71484 1154.2209 736.71484 1159.082 L 736.71484 1162.3867 C 724.25825 1162.9944 712.59787 1163.9058 701.73633 1165.1211 C 690.87478 1166.3364 681.57161 1168.6523 673.82422 1172.0703 C 666.15278 1175.4883 660.2283 1180.1968 656.05078 1186.1973 C 651.94922 1192.1217 649.89844 1199.9084 649.89844 1209.5547 C 649.89844 1221.3277 653.88607 1231.0119 661.86133 1238.6074 C 669.83659 1246.2029 679.55816 1250 691.02734 1250 C 697.25564 1250 702.68707 1249.393 707.32031 1248.1777 C 711.95356 1247.0384 716.05512 1245.5946 719.625 1243.8477 C 722.66319 1242.4805 725.77669 1240.6576 728.9668 1238.3789 C 732.23286 1236.0243 734.81597 1234.2014 736.71484 1232.9102 L 736.71484 1246.4688 L 758.01953 1246.4688 L 758.01953 1160.1074 C 758.01953 1151.9043 756.76628 1145.031 754.25977 1139.4863 C 751.75326 1133.9416 748.10742 1129.4217 743.32227 1125.9277 C 738.46115 1122.3579 732.68793 1119.8513 726.00391 1118.4082 C 719.39583 1116.8891 711.61111 1116.1289 702.64844 1116.1289 z M 842.89844 1116.1289 C 834.77127 1116.1289 827.40495 1117.1936 820.79688 1119.3203 C 814.26476 1121.3711 808.87066 1124.1801 804.61719 1127.75 C 800.21181 1131.3958 796.90777 1135.5367 794.70508 1140.1699 C 792.57834 1144.8032 791.51562 1149.7396 791.51562 1154.9805 C 791.51563 1163.3355 793.8316 1170.3993 798.46484 1176.1719 C 803.17405 1181.8685 811.11198 1186.1979 822.27734 1189.1602 C 826.30295 1190.2235 830.74631 1191.2116 835.60742 1192.123 C 840.54449 1193.0345 844.53212 1193.832 847.57031 1194.5156 C 855.77344 1196.3385 861.31879 1198.5406 864.20508 1201.123 C 867.09136 1203.7055 868.5332 1207.5026 868.5332 1212.5156 C 868.5332 1219.0477 865.87543 1223.8329 860.55859 1226.8711 C 855.24175 1229.9093 847.87348 1231.4297 838.45508 1231.4297 C 830.85959 1231.4297 822.92361 1229.9486 814.64453 1226.9863 C 806.36545 1223.9481 798.84592 1219.8839 792.08594 1214.7949 L 790.94531 1214.7949 L 790.94531 1238.834 C 796.26215 1241.4924 802.8329 1243.9616 810.65625 1246.2402 C 818.55556 1248.4429 827.21441 1249.5449 836.63281 1249.5449 C 853.26693 1249.5449 866.36914 1245.8225 875.93945 1238.3789 C 885.58572 1230.9353 890.4082 1221.4023 890.4082 1209.7812 C 890.4082 1200.5148 887.71311 1193.0718 882.32031 1187.4512 C 876.92752 1181.9065 869.25477 1177.9954 859.30469 1175.7168 C 856.03863 1174.9572 851.93707 1174.1204 847 1173.209 C 842.13889 1172.2975 837.73481 1171.3861 833.78516 1170.4746 C 826.6454 1168.8036 821.47917 1166.6389 818.28906 1163.9805 C 815.023 1161.322 813.39062 1157.3737 813.39062 1152.1328 C 813.39062 1146.2083 816.08767 1141.765 821.48047 1138.8027 C 826.87326 1135.7645 833.48134 1134.2441 841.30469 1134.2441 C 848.82422 1134.2441 856.49501 1135.6506 864.31836 1138.4609 C 872.14171 1141.1953 878.78711 1144.574 884.25586 1148.5996 L 885.39648 1148.5996 L 885.39648 1125.6992 C 880.23155 1123.0408 873.73741 1120.8014 865.91406 1118.9785 C 858.16667 1117.0796 850.49392 1116.1289 842.89844 1116.1289 z M 1064.9531 1133.334 C 1076.3464 1133.334 1084.8147 1136.4102 1090.3594 1142.5625 C 1095.98 1148.7148 1098.8283 1157.411 1098.9043 1168.6523 L 1025.9883 1168.6523 C 1026.8997 1158.6263 1030.7361 1150.2326 1037.4961 1143.4727 C 1044.332 1136.7127 1053.4839 1133.334 1064.9531 1133.334 z M 1266.2715 1134.1309 C 1277.7407 1134.1309 1286.704 1138.1558 1293.1602 1146.207 C 1299.6163 1154.1823 1302.8438 1166.4123 1302.8438 1182.8945 C 1302.8438 1198.997 1299.577 1211.1484 1293.0449 1219.3516 C 1286.5888 1227.4787 1277.6647 1231.543 1266.2715 1231.543 C 1254.7263 1231.543 1245.7257 1227.4414 1239.2695 1219.2383 C 1232.8134 1210.9592 1229.5859 1198.8451 1229.5859 1182.8945 C 1229.5859 1166.4123 1232.776 1154.1823 1239.1562 1146.207 C 1245.6124 1138.1558 1254.6504 1134.1309 1266.2715 1134.1309 z M 736.71484 1179.7031 L 736.71484 1215.1367 C 731.398 1219.2383 725.62478 1222.7702 719.39648 1225.7324 C 713.16819 1228.6187 706.29492 1230.0625 698.77539 1230.0625 C 689.73676 1230.0625 683.01476 1228.2396 678.60938 1224.5938 C 674.20399 1220.872 672 1215.3639 672 1208.0723 C 672 1201.6161 673.89952 1196.5658 677.69727 1192.9199 C 681.49501 1189.1981 686.4707 1186.4638 692.62305 1184.7168 C 697.78798 1183.2737 704.77517 1182.1717 713.58594 1181.4121 C 722.47266 1180.6526 730.18273 1180.0829 736.71484 1179.7031 z "
       transform="translate(0,-127.48035)"
       id="text17343" />
    <path
       inkscape:connector-curvature="0"
       id="path29-0"
       d="M 570.14744,306.16605 C 527.40068,264.08401 490.60057,262.4139 462.51641,271.2841 c -14.04208,4.43506 -25.88507,11.72942 -34.68822,18.43024 -8.80316,6.70096 -14.316,12.54914 -16.6231,14.83481 l -7.90262,-7.97802 c 1.77798,-1.76151 8.1936,-8.53592 17.72552,-15.79157 9.53207,-7.25564 22.4321,-15.25229 38.10723,-20.20318 31.35012,-9.90167 73.88106,-6.72058 118.88906,37.5876 z"
       style="color:#000000;font-style:normal;font-variant:normal;font-weight:normal;font-stretch:normal;font-size:medium;line-height:normal;font-family:sans-serif;font-variant-ligatures:normal;font-variant-position:normal;font-variant-caps:normal;font-variant-numeric:normal;font-variant-alternates:normal;font-feature-settings:normal;text-indent:0;text-align:start;text-decoration:none;text-decoration-line:none;text-decoration-style:solid;text-decoration-color:#000000;letter-spacing:normal;word-spacing:normal;text-transform:none;writing-mode:lr-tb;direction:ltr;text-orientation:mixed;dominant-baseline:auto;baseline-shift:baseline;text-anchor:start;white-space:normal;shape-padding:0;clip-rule:nonzero;display:inline;overflow:visible;visibility:visible;opacity:1;isolation:auto;mix-blend-mode:normal;color-interpolation:sRGB;color-interpolation-filters:linearRGB;solid-color:#000000;solid-opacity:1;vector-effect:none;fill:#000000;fill-opacity:1;fill-rule:nonzero;stroke:none;stroke-width:11.22902679;stroke-linecap:butt;stroke-linejoin:miter;stroke-miterlimit:4;stroke-dasharray:none;stroke-dashoffset:0;stroke-opacity:1;color-rendering:auto;image-rendering:auto;shape-rendering:auto;text-rendering:auto;enable-background:accumulate" />
    <path
       inkscape:connector-curvature="0"
       id="path87-4"
       d="m 417.30049,49.843945 c -11.14678,0.10644 -20.16056,4.586982 -25.96603,11.292459 -5.82104,6.723519 -8.52961,15.40159 -8.45129,23.946161 0.0784,8.544646 2.9398,17.117705 8.83194,23.637585 5.87253,6.49816 14.88722,10.65871 25.79631,10.32203 10.7093,-0.0248 19.42135,-4.56939 24.95268,-11.28217 5.54644,-6.73118 8.09656,-15.353474 8.04146,-23.853619 -0.0549,-8.500146 -2.71121,-17.03983 -8.31756,-23.604967 -5.59177,-6.548149 -14.33576,-10.821674 -24.88751,-10.457479 z m 0.33263,11.216989 c 7.52985,-0.276998 12.4427,2.350169 16.01437,6.532665 3.57182,4.18257 5.58914,10.223251 5.62913,16.386533 0.0399,6.163282 -1.89411,12.288829 -5.47819,16.638578 -3.58407,4.34959 -8.62199,7.2031 -16.37105,7.2031 h -0.0944 l -0.0943,0.008 c -8.05965,0.27075 -13.40787,-2.44616 -17.19234,-6.63384 -3.78456,-4.187536 -5.87855,-10.135833 -5.93425,-16.211618 -0.0556,-6.075634 1.92283,-12.116842 5.71129,-16.492748 3.78853,-4.375906 9.27897,-7.360503 17.64501,-7.422593 l 0.0823,-0.0075 z"
       style="color:#000000;font-style:normal;font-variant:normal;font-weight:normal;font-stretch:normal;font-size:medium;line-height:normal;font-family:sans-serif;font-variant-ligatures:normal;font-variant-position:normal;font-variant-caps:normal;font-variant-numeric:normal;font-variant-alternates:normal;font-feature-settings:normal;text-indent:0;text-align:start;text-decoration:none;text-decoration-line:none;text-decoration-style:solid;text-decoration-color:#000000;letter-spacing:normal;word-spacing:normal;text-transform:none;writing-mode:lr-tb;direction:ltr;text-orientation:mixed;dominant-baseline:auto;baseline-shift:baseline;text-anchor:start;white-space:normal;shape-padding:0;clip-rule:nonzero;display:inline;overflow:visible;visibility:visible;opacity:1;isolation:auto;mix-blend-mode:normal;color-interpolation:sRGB;color-interpolation-filters:linearRGB;solid-color:#000000;solid-opacity:1;vector-effect:none;fill:#000000;fill-opacity:1;fill-rule:nonzero;stroke:none;stroke-width:11.22902679;stroke-linecap:butt;stroke-linejoin:miter;stroke-miterlimit:4;stroke-dasharray:none;stroke-dashoffset:0;stroke-opacity:1;color-rendering:auto;image-rendering:auto;shape-rendering:auto;text-rendering:auto;enable-background:accumulate" />
    <path
       inkscape:connector-curvature="0"
       id="path59-4"
       d="M 416.81701,28.491951 C 395.72863,29.055344 375.5949,39.22485 351.17503,57.360875 l 6.69548,9.015281 c 23.65579,-17.56842 41.58795,-26.186884 59.2465,-26.658646 17.65854,-0.471688 36.16801,7.142513 61.12918,24.493169 l 6.40924,-9.22117 C 458.82214,37.032687 437.9053,27.928707 416.81701,28.491951 Z"
       style="color:#000000;font-style:normal;font-variant:normal;font-weight:normal;font-stretch:normal;font-size:medium;line-height:normal;font-family:sans-serif;font-variant-ligatures:normal;font-variant-position:normal;font-variant-caps:normal;font-variant-numeric:normal;font-variant-alternates:normal;font-feature-settings:normal;text-indent:0;text-align:start;text-decoration:none;text-decoration-line:none;text-decoration-style:solid;text-decoration-color:#000000;letter-spacing:normal;word-spacing:normal;text-transform:none;writing-mode:lr-tb;direction:ltr;text-orientation:mixed;dominant-baseline:auto;baseline-shift:baseline;text-anchor:start;white-space:normal;shape-padding:0;clip-rule:nonzero;display:inline;overflow:visible;visibility:visible;opacity:1;isolation:auto;mix-blend-mode:normal;color-interpolation:sRGB;color-interpolation-filters:linearRGB;solid-color:#000000;solid-opacity:1;vector-effect:none;fill:#000000;fill-opacity:1;fill-rule:nonzero;stroke:none;stroke-width:11.22902679;stroke-linecap:butt;stroke-linejoin:miter;stroke-miterlimit:4;stroke-dasharray:none;stroke-dashoffset:0;stroke-opacity:1;color-rendering:auto;image-rendering:auto;shape-rendering:auto;text-rendering:auto;enable-background:accumulate" />
    <path
       inkscape:connector-curvature="0"
       id="path87-1-31"
       d="m 569.76332,48.242538 c -11.14678,0.106365 -20.16055,4.588635 -25.96604,11.294113 -5.82103,6.723594 -8.52968,15.399937 -8.45128,23.944432 0.0784,8.544721 2.9398,17.117777 8.83195,23.637657 5.8744,6.50027 14.89261,10.66165 25.8066,10.32196 10.70433,-0.0279 19.41292,-4.57165 24.94237,-11.28209 5.54644,-6.73126 8.09491,-15.351752 8.03974,-23.851972 -0.0549,-8.500146 -2.71113,-17.041559 -8.31757,-23.606696 -5.59154,-6.547698 -14.33486,-10.821073 -24.88577,-10.457404 z m 0.33263,11.21699 c 7.52978,-0.276999 12.44269,2.350093 16.01444,6.532663 3.57175,4.182496 5.58734,10.223177 5.62732,16.386534 0.0399,6.163206 -1.89238,12.288828 -5.47646,16.638505 -3.58407,4.34967 -8.62191,7.20475 -16.37104,7.20475 h -0.0944 l -0.0943,0.008 c -8.05965,0.27076 -13.40788,-2.44609 -17.19243,-6.63377 -3.78439,-4.187679 -5.87847,-10.135977 -5.93416,-16.211687 -0.0556,-6.075634 1.92276,-12.116841 5.71128,-16.492672 3.78854,-4.375981 9.27905,-7.360579 17.6451,-7.422594 h 0.0823 z"
       style="color:#000000;font-style:normal;font-variant:normal;font-weight:normal;font-stretch:normal;font-size:medium;line-height:normal;font-family:sans-serif;font-variant-ligatures:normal;font-variant-position:normal;font-variant-caps:normal;font-variant-numeric:normal;font-variant-alternates:normal;font-feature-settings:normal;text-indent:0;text-align:start;text-decoration:none;text-decoration-line:none;text-decoration-style:solid;text-decoration-color:#000000;letter-spacing:normal;word-spacing:normal;text-transform:none;writing-mode:lr-tb;direction:ltr;text-orientation:mixed;dominant-baseline:auto;baseline-shift:baseline;text-anchor:start;white-space:normal;shape-padding:0;clip-rule:nonzero;display:inline;overflow:visible;visibility:visible;opacity:1;isolation:auto;mix-blend-mode:normal;color-interpolation:sRGB;color-interpolation-filters:linearRGB;solid-color:#000000;solid-opacity:1;vector-effect:none;fill:#000000;fill-opacity:1;fill-rule:nonzero;stroke:none;stroke-width:11.22902679;stroke-linecap:butt;stroke-linejoin:miter;stroke-miterlimit:4;stroke-dasharray:none;stroke-dashoffset:0;stroke-opacity:1;color-rendering:auto;image-rendering:auto;shape-rendering:auto;text-rendering:auto;enable-background:accumulate" />
    <path
       inkscape:connector-curvature="0"
       id="path59-1-31"
       d="m 570.55711,27.10831 c -21.0438,0.04285 -41.63996,9.675642 -66.94331,28.668222 l 6.74178,8.981079 c 24.42493,-18.333195 42.58928,-26.384504 60.22565,-26.42036 17.63623,-0.03533 35.86426,8.01598 60.20664,24.325091 l 6.25145,-9.327384 C 611.97299,36.540705 591.60106,27.065538 570.55711,27.10831 Z"
       style="color:#000000;font-style:normal;font-variant:normal;font-weight:normal;font-stretch:normal;font-size:medium;line-height:normal;font-family:sans-serif;font-variant-ligatures:normal;font-variant-position:normal;font-variant-caps:normal;font-variant-numeric:normal;font-variant-alternates:normal;font-feature-settings:normal;text-indent:0;text-align:start;text-decoration:none;text-decoration-line:none;text-decoration-style:solid;text-decoration-color:#000000;letter-spacing:normal;word-spacing:normal;text-transform:none;writing-mode:lr-tb;direction:ltr;text-orientation:mixed;dominant-baseline:auto;baseline-shift:baseline;text-anchor:start;white-space:normal;shape-padding:0;clip-rule:nonzero;display:inline;overflow:visible;visibility:visible;opacity:1;isolation:auto;mix-blend-mode:normal;color-interpolation:sRGB;color-interpolation-filters:linearRGB;solid-color:#000000;solid-opacity:1;vector-effect:none;fill:#000000;fill-opacity:1;fill-rule:nonzero;stroke:none;stroke-width:11.22902679;stroke-linecap:butt;stroke-linejoin:miter;stroke-miterlimit:4;stroke-dasharray:none;stroke-dashoffset:0;stroke-opacity:1;color-rendering:auto;image-rendering:auto;shape-rendering:auto;text-rendering:auto;enable-background:accumulate" />
    <path
       inkscape:connector-curvature="0"
       id="path29-0-5"
       d="m 1440.1537,306.16605 c -42.7468,-42.08204 -79.5469,-43.75215 -107.6311,-34.88195 -14.042,4.43506 -25.885,11.72942 -34.6882,18.43024 -8.8031,6.70096 -14.316,12.54914 -16.6231,14.83481 l -7.9026,-7.97802 c 1.778,-1.76151 8.1936,-8.53592 17.7255,-15.79157 9.5321,-7.25564 22.4321,-15.25229 38.1072,-20.20318 31.3502,-9.90167 73.8811,-6.72058 118.8891,37.5876 z"
       style="color:#000000;font-style:normal;font-variant:normal;font-weight:normal;font-stretch:normal;font-size:medium;line-height:normal;font-family:sans-serif;font-variant-ligatures:normal;font-variant-position:normal;font-variant-caps:normal;font-variant-numeric:normal;font-variant-alternates:normal;font-feature-settings:normal;text-indent:0;text-align:start;text-decoration:none;text-decoration-line:none;text-decoration-style:solid;text-decoration-color:#000000;letter-spacing:normal;word-spacing:normal;text-transform:none;writing-mode:lr-tb;direction:ltr;text-orientation:mixed;dominant-baseline:auto;baseline-shift:baseline;text-anchor:start;white-space:normal;shape-padding:0;clip-rule:nonzero;display:inline;overflow:visible;visibility:visible;opacity:1;isolation:auto;mix-blend-mode:normal;color-interpolation:sRGB;color-interpolation-filters:linearRGB;solid-color:#000000;solid-opacity:1;vector-effect:none;fill:#000000;fill-opacity:1;fill-rule:nonzero;stroke:none;stroke-width:11.22902679;stroke-linecap:butt;stroke-linejoin:miter;stroke-miterlimit:4;stroke-dasharray:none;stroke-dashoffset:0;stroke-opacity:1;color-rendering:auto;image-rendering:auto;shape-rendering:auto;text-rendering:auto;enable-background:accumulate" />
    <path
       inkscape:connector-curvature="0"
       id="path87-4-3"
       d="m 1287.3067,49.84395 c -11.1468,0.10644 -20.1605,4.58698 -25.966,11.292458 -5.8211,6.723519 -8.5296,15.40159 -8.4513,23.946161 0.078,8.544646 2.9398,17.117701 8.8319,23.637581 5.8726,6.49816 14.8873,10.65871 25.7963,10.32203 10.7093,-0.0248 19.4214,-4.56939 24.9527,-11.28217 5.5465,-6.73118 8.0966,-15.35347 8.0415,-23.853615 -0.055,-8.500146 -2.7112,-17.03983 -8.3176,-23.604967 -5.5917,-6.548148 -14.3357,-10.821678 -24.8875,-10.457478 z m 0.3326,11.216988 c 7.5299,-0.276998 12.4427,2.350169 16.0144,6.532665 3.5718,4.18257 5.5892,10.223251 5.6291,16.386533 0.04,6.163282 -1.8941,12.288834 -5.4781,16.638574 -3.5841,4.34959 -8.622,7.2031 -16.3711,7.2031 h -0.094 l -0.094,0.008 c -8.0596,0.27075 -13.4079,-2.44616 -17.1923,-6.63384 -3.7846,-4.18753 -5.8786,-10.135829 -5.9343,-16.211614 -0.056,-6.075634 1.9228,-12.116842 5.7113,-16.492748 3.7885,-4.375906 9.279,-7.360503 17.645,-7.422593 l 0.082,-0.0075 z"
       style="color:#000000;font-style:normal;font-variant:normal;font-weight:normal;font-stretch:normal;font-size:medium;line-height:normal;font-family:sans-serif;font-variant-ligatures:normal;font-variant-position:normal;font-variant-caps:normal;font-variant-numeric:normal;font-variant-alternates:normal;font-feature-settings:normal;text-indent:0;text-align:start;text-decoration:none;text-decoration-line:none;text-decoration-style:solid;text-decoration-color:#000000;letter-spacing:normal;word-spacing:normal;text-transform:none;writing-mode:lr-tb;direction:ltr;text-orientation:mixed;dominant-baseline:auto;baseline-shift:baseline;text-anchor:start;white-space:normal;shape-padding:0;clip-rule:nonzero;display:inline;overflow:visible;visibility:visible;opacity:1;isolation:auto;mix-blend-mode:normal;color-interpolation:sRGB;color-interpolation-filters:linearRGB;solid-color:#000000;solid-opacity:1;vector-effect:none;fill:#000000;fill-opacity:1;fill-rule:nonzero;stroke:none;stroke-width:11.22902679;stroke-linecap:butt;stroke-linejoin:miter;stroke-miterlimit:4;stroke-dasharray:none;stroke-dashoffset:0;stroke-opacity:1;color-rendering:auto;image-rendering:auto;shape-rendering:auto;text-rendering:auto;enable-background:accumulate" />
    <path
       inkscape:connector-curvature="0"
       id="path59-4-1"
       d="m 1286.8232,28.49196 c -21.0883,0.56339 -41.2221,10.73289 -65.6419,28.868919 l 6.6954,9.015281 c 23.6558,-17.56842 41.588,-26.18688 59.2465,-26.65865 17.6586,-0.47168 36.168,7.14252 61.1292,24.493173 l 6.4093,-9.22117 C 1328.8284,37.03269 1307.9115,27.92871 1286.8232,28.49196 Z"
       style="color:#000000;font-style:normal;font-variant:normal;font-weight:normal;font-stretch:normal;font-size:medium;line-height:normal;font-family:sans-serif;font-variant-ligatures:normal;font-variant-position:normal;font-variant-caps:normal;font-variant-numeric:normal;font-variant-alternates:normal;font-feature-settings:normal;text-indent:0;text-align:start;text-decoration:none;text-decoration-line:none;text-decoration-style:solid;text-decoration-color:#000000;letter-spacing:normal;word-spacing:normal;text-transform:none;writing-mode:lr-tb;direction:ltr;text-orientation:mixed;dominant-baseline:auto;baseline-shift:baseline;text-anchor:start;white-space:normal;shape-padding:0;clip-rule:nonzero;display:inline;overflow:visible;visibility:visible;opacity:1;isolation:auto;mix-blend-mode:normal;color-interpolation:sRGB;color-interpolation-filters:linearRGB;solid-color:#000000;solid-opacity:1;vector-effect:none;fill:#000000;fill-opacity:1;fill-rule:nonzero;stroke:none;stroke-width:11.22902679;stroke-linecap:butt;stroke-linejoin:miter;stroke-miterlimit:4;stroke-dasharray:none;stroke-dashoffset:0;stroke-opacity:1;color-rendering:auto;image-rendering:auto;shape-rendering:auto;text-rendering:auto;enable-background:accumulate" />
    <path
       inkscape:connector-curvature="0"
       id="path87-1-31-7"
       d="m 1439.7695,48.24254 c -11.1467,0.10637 -20.1605,4.58864 -25.966,11.294115 -5.821,6.723594 -8.5297,15.399937 -8.4513,23.944432 0.078,8.544721 2.9398,17.117773 8.832,23.637653 5.8744,6.50027 14.8926,10.66165 25.8066,10.32196 10.7043,-0.0279 19.4129,-4.57165 24.9423,-11.28209 5.5465,-6.73126 8.095,-15.351748 8.0398,-23.851968 -0.055,-8.500146 -2.7111,-17.041559 -8.3176,-23.606696 -5.5915,-6.547696 -14.3348,-10.821076 -24.8858,-10.457406 z m 0.3327,11.216992 c 7.5298,-0.276999 12.4427,2.350093 16.0144,6.532663 3.5718,4.182496 5.5874,10.223177 5.6273,16.386534 0.04,6.163206 -1.8923,12.288831 -5.4764,16.638501 -3.5841,4.34967 -8.6219,7.20475 -16.3711,7.20475 h -0.094 l -0.094,0.008 c -8.0596,0.27076 -13.4078,-2.44609 -17.1924,-6.63377 -3.7844,-4.18767 -5.8785,-10.135973 -5.9342,-16.211683 -0.056,-6.075634 1.9228,-12.116841 5.7113,-16.492672 3.7886,-4.375981 9.2791,-7.360579 17.6451,-7.422594 h 0.082 z"
       style="color:#000000;font-style:normal;font-variant:normal;font-weight:normal;font-stretch:normal;font-size:medium;line-height:normal;font-family:sans-serif;font-variant-ligatures:normal;font-variant-position:normal;font-variant-caps:normal;font-variant-numeric:normal;font-variant-alternates:normal;font-feature-settings:normal;text-indent:0;text-align:start;text-decoration:none;text-decoration-line:none;text-decoration-style:solid;text-decoration-color:#000000;letter-spacing:normal;word-spacing:normal;text-transform:none;writing-mode:lr-tb;direction:ltr;text-orientation:mixed;dominant-baseline:auto;baseline-shift:baseline;text-anchor:start;white-space:normal;shape-padding:0;clip-rule:nonzero;display:inline;overflow:visible;visibility:visible;opacity:1;isolation:auto;mix-blend-mode:normal;color-interpolation:sRGB;color-interpolation-filters:linearRGB;solid-color:#000000;solid-opacity:1;vector-effect:none;fill:#000000;fill-opacity:1;fill-rule:nonzero;stroke:none;stroke-width:11.22902679;stroke-linecap:butt;stroke-linejoin:miter;stroke-miterlimit:4;stroke-dasharray:none;stroke-dashoffset:0;stroke-opacity:1;color-rendering:auto;image-rendering:auto;shape-rendering:auto;text-rendering:auto;enable-background:accumulate" />
    <path
       inkscape:connector-curvature="0"
       id="path59-1-31-9"
       d="m 1440.5633,27.10831 c -21.0438,0.0429 -41.6399,9.67565 -66.9433,28.668226 l 6.7418,8.981079 c 24.4249,-18.333195 42.5893,-26.384505 60.2257,-26.420365 17.6362,-0.0353 35.8642,8.01598 60.2066,24.325096 l 6.2514,-9.327386 c -25.0663,-16.79425 -45.4382,-26.26942 -66.4822,-26.22665 z"
       style="color:#000000;font-style:normal;font-variant:normal;font-weight:normal;font-stretch:normal;font-size:medium;line-height:normal;font-family:sans-serif;font-variant-ligatures:normal;font-variant-position:normal;font-variant-caps:normal;font-variant-numeric:normal;font-variant-alternates:normal;font-feature-settings:normal;text-indent:0;text-align:start;text-decoration:none;text-decoration-line:none;text-decoration-style:solid;text-decoration-color:#000000;letter-spacing:normal;word-spacing:normal;text-transform:none;writing-mode:lr-tb;direction:ltr;text-orientation:mixed;dominant-baseline:auto;baseline-shift:baseline;text-anchor:start;white-space:normal;shape-padding:0;clip-rule:nonzero;display:inline;overflow:visible;visibility:visible;opacity:1;isolation:auto;mix-blend-mode:normal;color-interpolation:sRGB;color-interpolation-filters:linearRGB;solid-color:#000000;solid-opacity:1;vector-effect:none;fill:#000000;fill-opacity:1;fill-rule:nonzero;stroke:none;stroke-width:11.22902679;stroke-linecap:butt;stroke-linejoin:miter;stroke-miterlimit:4;stroke-dasharray:none;stroke-dashoffset:0;stroke-opacity:1;color-rendering:auto;image-rendering:auto;shape-rendering:auto;text-rendering:auto;enable-background:accumulate" />
  </g>
</svg>
