<?xml version="1.0" encoding="UTF-8" standalone="no"?>
<!-- Created with Inkscape (http://www.inkscape.org/) -->

<svg
   xmlns:dc="http://purl.org/dc/elements/1.1/"
   xmlns:cc="http://creativecommons.org/ns#"
   xmlns:rdf="http://www.w3.org/1999/02/22-rdf-syntax-ns#"
   xmlns:svg="http://www.w3.org/2000/svg"
   xmlns="http://www.w3.org/2000/svg"
   xmlns:sodipodi="http://sodipodi.sourceforge.net/DTD/sodipodi-0.dtd"
   xmlns:inkscape="http://www.inkscape.org/namespaces/inkscape"
   width="1000"
   height="1250"
   viewBox="0 0 1000 1250"
   version="1.1"
   id="svg31543"
   inkscape:version="0.92.4 (5da689c313, 2019-01-14)"
   sodipodi:docname="Comandante.svg">
  <defs
     id="defs31537" />
  <sodipodi:namedview
     id="base"
     pagecolor="#ffffff"
     bordercolor="#666666"
     borderopacity="1.0"
     inkscape:pageopacity="0.0"
     inkscape:pageshadow="2"
     inkscape:zoom="0.70710678"
     inkscape:cx="272.66451"
     inkscape:cy="822.24134"
     inkscape:document-units="px"
     inkscape:current-layer="layer1"
     showgrid="false"
     units="px"
     inkscape:window-width="681"
     inkscape:window-height="706"
     inkscape:window-x="-7"
     inkscape:window-y="0"
     inkscape:window-maximized="0" />
  <metadata
     id="metadata31540">
    <rdf:RDF>
      <cc:Work
         rdf:about="">
        <dc:format>image/svg+xml</dc:format>
        <dc:type
           rdf:resource="http://purl.org/dc/dcmitype/StillImage" />
        <dc:title></dc:title>
      </cc:Work>
    </rdf:RDF>
  </metadata>
  <g
     inkscape:label="Camada 1"
     inkscape:groupmode="layer"
     id="layer1"
     transform="translate(0,217.58335)">
    <path
       style="color:#000000;font-style:normal;font-variant:normal;font-weight:normal;font-stretch:normal;font-size:medium;line-height:normal;font-family:sans-serif;font-variant-ligatures:normal;font-variant-position:normal;font-variant-caps:normal;font-variant-numeric:normal;font-variant-alternates:normal;font-feature-settings:normal;text-indent:0;text-align:start;text-decoration:none;text-decoration-line:none;text-decoration-style:solid;text-decoration-color:#000000;letter-spacing:normal;word-spacing:normal;text-transform:none;writing-mode:lr-tb;direction:ltr;text-orientation:mixed;dominant-baseline:auto;baseline-shift:baseline;text-anchor:start;white-space:normal;shape-padding:0;clip-rule:nonzero;display:inline;overflow:visible;visibility:visible;opacity:1;isolation:auto;mix-blend-mode:normal;color-interpolation:sRGB;color-interpolation-filters:linearRGB;solid-color:#000000;solid-opacity:1;vector-effect:none;fill:#000000;fill-opacity:1;fill-rule:nonzero;stroke:none;stroke-width:23.53855324;stroke-linecap:butt;stroke-linejoin:miter;stroke-miterlimit:4;stroke-dasharray:none;stroke-dashoffset:0;stroke-opacity:1;color-rendering:auto;image-rendering:auto;shape-rendering:auto;text-rendering:auto;enable-background:accumulate"
       d="m 721.37852,-217.24516 c -90.70819,-0.0264 -153.02153,36.39206 -188.86328,90.875 -35.84491,54.48772 -45.84788,125.6356 -38.01368,196.0625 7.83421,70.4269 33.53933,140.44459 71.48828,193.61719 37.94896,53.17259 89.04104,90.21335 147.1543,89.86718 58.08588,-0.34604 108.76157,-37.77686 146.48633,-91.1289 37.72476,-53.35204 63.38009,-123.33984 71.90039,-193.5918 8.52031,-70.25196 -0.0119,-141.02496 -33.11328,-195.29688 -33.09805,-54.26642 -91.74939,-90.71086 -177.03906,-90.40429 z m 0.0137,23.53711 h 0.0254 0.0234 c 78.77188,-0.28999 127.6304,31.165 156.88086,79.12304 29.25045,47.95804 37.90245,113.74505 29.8418,180.20704 -8.06066,66.46198 -32.75384,133.34004 -67.75196,182.83593 -34.99811,49.4959 -79.41823,80.8938 -127.40625,81.17969 C 665.04484,329.92334 620.31328,298.90511 585.15,249.6357 549.98672,200.36628 525.2899,133.5586 517.89609,67.09077 c -7.3938,-66.46782 2.54935,-132.28489 34.28321,-180.52343 31.73386,-48.23855 84.62594,-80.30596 169.21289,-80.27539 z"
       id="path10-9-5"
       inkscape:connector-curvature="0" />
    <path
       style="color:#000000;font-style:normal;font-variant:normal;font-weight:normal;font-stretch:normal;font-size:medium;line-height:normal;font-family:sans-serif;font-variant-ligatures:normal;font-variant-position:normal;font-variant-caps:normal;font-variant-numeric:normal;font-variant-alternates:normal;font-feature-settings:normal;text-indent:0;text-align:start;text-decoration:none;text-decoration-line:none;text-decoration-style:solid;text-decoration-color:#000000;letter-spacing:normal;word-spacing:normal;text-transform:none;writing-mode:lr-tb;direction:ltr;text-orientation:mixed;dominant-baseline:auto;baseline-shift:baseline;text-anchor:start;white-space:normal;shape-padding:0;clip-rule:nonzero;display:inline;overflow:visible;visibility:visible;opacity:1;isolation:auto;mix-blend-mode:normal;color-interpolation:sRGB;color-interpolation-filters:linearRGB;solid-color:#000000;solid-opacity:1;vector-effect:none;fill:#000000;fill-opacity:1;fill-rule:nonzero;stroke:none;stroke-width:11.76927662;stroke-linecap:butt;stroke-linejoin:miter;stroke-miterlimit:4;stroke-dasharray:none;stroke-dashoffset:0;stroke-opacity:1;color-rendering:auto;image-rendering:auto;shape-rendering:auto;text-rendering:auto;enable-background:accumulate"
       d="m 708.78672,66.24312 c 0,0 -1.32766,13.09907 -3.52344,26.85937 -1.09788,6.88016 -2.42063,13.92625 -3.84179,19.40039 -0.71058,2.73707 -1.4545,5.08822 -2.1211,6.70899 -0.66016,1.60512 -1.50219,2.44329 -0.91797,1.95898 -1.2999,1.08224 -2.67458,1.98946 -3.39453,4.86914 -0.36074,1.4429 -0.1535,3.59272 0.76758,5.09375 0.92108,1.50104 2.11788,2.23597 3.02344,2.66211 3.62224,1.70457 5.48247,1.05072 7.94531,0.88086 4.92568,-0.33972 10.25977,-1.4375 10.25977,-1.4375 l -2.3086,-11.54101 c 0,0 -2.5153,0.32044 -4.03711,0.57031 0.7805,-2.09261 1.51871,-4.27762 2.17579,-6.80859 1.58817,-6.11748 2.94101,-13.41273 4.07226,-20.50196 2.2625,-14.17845 3.60938,-27.53125 3.60938,-27.53125 z"
       id="path971-8"
       inkscape:connector-curvature="0" />
    <path
       style="color:#000000;font-style:normal;font-variant:normal;font-weight:normal;font-stretch:normal;font-size:medium;line-height:normal;font-family:sans-serif;font-variant-ligatures:normal;font-variant-position:normal;font-variant-caps:normal;font-variant-numeric:normal;font-variant-alternates:normal;font-feature-settings:normal;text-indent:0;text-align:start;text-decoration:none;text-decoration-line:none;text-decoration-style:solid;text-decoration-color:#000000;letter-spacing:normal;word-spacing:normal;text-transform:none;writing-mode:lr-tb;direction:ltr;text-orientation:mixed;dominant-baseline:auto;baseline-shift:baseline;text-anchor:start;white-space:normal;shape-padding:0;clip-rule:nonzero;display:inline;overflow:visible;visibility:visible;opacity:1;isolation:auto;mix-blend-mode:normal;color-interpolation:sRGB;color-interpolation-filters:linearRGB;solid-color:#000000;solid-opacity:1;vector-effect:none;fill:#000000;fill-opacity:1;fill-rule:nonzero;stroke:none;stroke-width:14.70025444;stroke-linecap:butt;stroke-linejoin:miter;stroke-miterlimit:4;stroke-dasharray:none;stroke-dashoffset:0;stroke-opacity:1;color-rendering:auto;image-rendering:auto;shape-rendering:auto;text-rendering:auto;enable-background:accumulate"
       d="m 934.26914,289.12788 c -1.62298,-0.0306 -3.24193,0.0635 -4.83789,0.27149 -6.38381,0.83194 -12.70598,3.54774 -16.92383,9.0332 l 0.20508,-0.25586 c -21.81563,25.89682 -84.21093,79.29883 -84.21093,79.29883 l -0.72657,0.61914 -0.54492,0.78125 c -30.04525,43.2289 -56.85937,62.11133 -56.85937,62.11133 -45.80791,32.2584 -89.89063,85.99023 -89.89063,85.99023 l -0.2832,0.34571 -0.24219,0.37695 c -33.10161,51.88587 -66.72499,80.06355 -91.84961,95.33594 -25.12462,15.27238 -41.00195,17.51562 -41.00195,17.51562 l 2.18554,14.53711 c 0,0 19.43411,-3.06631 46.45313,-19.49023 26.92784,-16.36851 62.13324,-46.15743 96.25977,-99.47852 0.51929,-0.62576 43.98773,-52.94549 86.84765,-83.12304 l 0.006,-0.006 0.008,-0.006 c 0,0 28.80009,-20.52232 59.82618,-64.88477 1.96759,-1.66924 61.47647,-52.21127 85.26757,-80.45312 l 0.10547,-0.125 0.0996,-0.12891 c 1.12146,-1.4585 3.78108,-2.97633 7.16992,-3.41797 3.38885,-0.44163 7.19862,0.23659 9.79883,1.73438 2.60022,1.49778 4.14073,3.30854 4.60938,6.87304 0.46256,3.51825 -0.52415,9.36389 -5.38867,17.63477 -1.23267,1.6791 -9.20428,11.20157 -19.51954,23.36328 -10.41718,12.28189 -23.5454,27.7756 -36.28125,43.25586 -12.73585,15.48026 -25.06528,30.92189 -34,43.2832 -4.46735,6.18066 -8.07785,11.55186 -10.57421,16.05078 -1.24819,2.24947 -2.2309,4.2454 -2.91602,6.38282 -0.68512,2.13741 -1.88934,4.84874 0.52734,8.91992 l 0.043,0.0723 7.39258,11.83594 6.35547,-4.49805 c 0,0 13.735,-9.72024 27.94336,-19.83789 7.10418,-5.05882 14.32483,-10.21675 20.01953,-14.3164 5.6947,-4.09966 9.18464,-6.55353 11.17578,-8.22266 -0.79294,0.66471 0.14989,-0.0894 1.08008,-0.67773 0.93019,-0.58836 2.25874,-1.40497 3.89648,-2.39844 3.27549,-1.98694 7.8052,-4.68732 13.15625,-7.8457 10.7021,-6.31678 24.70444,-14.47889 38.75782,-22.60157 14.05337,-8.12267 28.16229,-16.20898 39.07613,-22.36718 5.457,-3.0791 10.1183,-5.67681 13.545,-7.54297 1.7133,-0.93308 3.1218,-1.68453 4.1289,-2.20313 1.007,-0.51859 2.0603,-0.91641 1.2168,-0.625 12.0833,-4.17438 19.2872,-0.0451 22.5449,5.25196 3.2499,5.28455 3.2489,11.98926 -4.8321,18.01367 -0.5011,0.32981 -80.88594,53.24366 -123.25581,85.30468 -27.3632,17.68278 -43.59928,20.60702 -55.33203,34.71485 l -6.49804,7.8125 9.45312,3.72461 c 0,0 1.95689,0.59214 3.39063,0.65625 1.43373,0.0641 3.17671,-0.0616 5.35546,-0.50782 4.10133,-0.83997 9.98452,-2.98414 18.23047,-7.29101 4.51384,-0.81009 7.87302,0.0514 10.87891,1.97656 3.14619,2.01498 5.844,5.40917 7.53906,9.38477 1.69507,3.9756 2.31994,8.45525 1.82617,12.07226 -0.49175,3.6023 -1.87961,6.1215 -4.03711,7.70899 -0.35857,0.22266 -1.94284,1.19902 -4.20312,2.71875 -2.50075,1.6814 -5.14128,3.38745 -7.49609,5.77148 l -6.85352,6.9375 8.55664,4.67774 c 0,0 4.49719,2.56205 6.73633,7.97461 2.21901,5.36389 3.08943,13.92275 -9.22266,29.42578 -12.46622,12.14469 -28.04206,18.80167 -41.38476,34.59179 l -0.0684,0.0801 -0.0645,0.082 c 0,0 -48.41799,60.15942 -114.24609,84.17188 -34.03553,12.41535 -51.88553,17.45867 -65.94141,22.57422 -14.05587,5.1155 -24.25274,10.4729 -40.78515,22.4335 l 8.61523,11.9102 c 15.9451,-11.5357 24.00844,-15.7293 37.19727,-20.5293 13.18882,-4.8 31.56707,-10.0356 65.95117,-22.57807 71.01124,-25.90314 120.70313,-88.82032 120.70312,-88.82032 l -0.13281,0.16406 c 10.90049,-12.89994 25.98543,-19.31352 40.74414,-33.83593 l 0.30664,-0.30078 0.26953,-0.33594 c 14.77713,-18.39896 15.97308,-34.18171 11.64063,-44.6543 -1.41335,-3.4164 -3.30538,-6.01341 -5.22852,-8.25 1.45296,-0.94713 3.08204,-1.99414 3.08204,-1.99414 l 0.24218,-0.14844 0.22852,-0.16797 c 5.92118,-4.32312 9.04721,-10.96869 9.95508,-17.61914 0.90787,-6.65045 -0.18239,-13.52925 -2.86719,-19.82617 -2.6848,-6.29692 -7.0303,-12.08844 -13.13477,-15.99804 -2.26239,-1.44895 -4.84203,-2.47727 -7.54101,-3.26563 6.42671,-3.50304 13.55918,-7.55858 22.2207,-13.16211 l 0.22852,-0.14844 0.21679,-0.16406 c 41.46322,-31.41149 123.09374,-85.18555 123.09374,-85.18555 l 0.1719,-0.11328 0.164,-0.12109 c 13.215,-9.80015 15.6304,-26.21349 8.6485,-37.56641 -6.982,-11.35291 -22.6752,-17.38456 -39.8672,-11.44531 -1.531,0.52889 -1.9665,0.84154 -3.1465,1.44922 -1.18,0.60768 -2.6562,1.3985 -4.4277,2.36328 -3.5431,1.92957 -8.2449,4.55069 -13.7383,7.65039 -10.98689,6.1994 -25.12571,14.30032 -39.21094,22.44141 -14.08522,8.14108 -28.11191,16.32026 -38.87304,22.67187 -5.38057,3.17581 -9.94253,5.89171 -13.3086,7.9336 -1.68303,1.02094 -3.06349,1.87103 -4.1289,2.54492 -1.06542,0.67389 -1.40442,0.77835 -2.66602,1.83594 0.11646,-0.0976 -4.66401,3.48463 -10.32031,7.55664 -5.6563,4.072 -12.86584,9.22247 -19.95899,14.27343 -6.92883,4.93397 -8.4681,6.01581 -13.63085,9.67774 1.72569,-2.63943 2.94192,-4.75407 5.30078,-8.01758 8.57472,-11.86327 20.7933,-27.18778 33.4375,-42.55664 12.6442,-15.36887 25.72735,-30.80866 36.14062,-43.08594 10.41327,-12.27727 17.67375,-20.68416 20.42774,-24.5039 l 0.1875,-0.25977 0.16406,-0.27734 c 6.1318,-10.28814 8.54405,-19.38047 7.49219,-27.38086 -1.05187,-8.0004 -5.9462,-14.29706 -11.84571,-17.69532 -4.42463,-2.54869 -9.33028,-3.75205 -14.19922,-3.84375 z"
       id="path6807-4"
       inkscape:connector-curvature="0" />
    <path
       style="color:#000000;font-style:normal;font-variant:normal;font-weight:normal;font-stretch:normal;font-size:medium;line-height:normal;font-family:sans-serif;font-variant-ligatures:normal;font-variant-position:normal;font-variant-caps:normal;font-variant-numeric:normal;font-variant-alternates:normal;font-feature-settings:normal;text-indent:0;text-align:start;text-decoration:none;text-decoration-line:none;text-decoration-style:solid;text-decoration-color:#000000;letter-spacing:normal;word-spacing:normal;text-transform:none;writing-mode:lr-tb;direction:ltr;text-orientation:mixed;dominant-baseline:auto;baseline-shift:baseline;text-anchor:start;white-space:normal;shape-padding:0;clip-rule:nonzero;display:inline;overflow:visible;visibility:visible;opacity:1;isolation:auto;mix-blend-mode:normal;color-interpolation:sRGB;color-interpolation-filters:linearRGB;solid-color:#000000;solid-opacity:1;vector-effect:none;fill:#000000;fill-opacity:1;fill-rule:nonzero;stroke:none;stroke-width:14.70025444;stroke-linecap:butt;stroke-linejoin:miter;stroke-miterlimit:4;stroke-dasharray:none;stroke-dashoffset:0;stroke-opacity:1;color-rendering:auto;image-rendering:auto;shape-rendering:auto;text-rendering:auto;enable-background:accumulate"
       d="m 899.97032,556.68843 c -13.75407,9.56762 -21.11976,12.06502 -26.44336,14.10156 -6.92137,2.64787 -10.52539,8.09375 -10.52539,8.09375 l 12.16406,8.25586 c 0,0 1.25886,-1.71777 3.61328,-2.61914 4.90804,-1.87757 14.71302,-5.41775 29.58594,-15.76367 z"
       id="path6809-0"
       inkscape:connector-curvature="0" />
    <path
       style="color:#000000;font-style:normal;font-variant:normal;font-weight:normal;font-stretch:normal;font-size:medium;line-height:normal;font-family:sans-serif;font-variant-ligatures:normal;font-variant-position:normal;font-variant-caps:normal;font-variant-numeric:normal;font-variant-alternates:normal;font-feature-settings:normal;text-indent:0;text-align:start;text-decoration:none;text-decoration-line:none;text-decoration-style:solid;text-decoration-color:#000000;letter-spacing:normal;word-spacing:normal;text-transform:none;writing-mode:lr-tb;direction:ltr;text-orientation:mixed;dominant-baseline:auto;baseline-shift:baseline;text-anchor:start;white-space:normal;shape-padding:0;clip-rule:nonzero;display:inline;overflow:visible;visibility:visible;opacity:1;isolation:auto;mix-blend-mode:normal;color-interpolation:sRGB;color-interpolation-filters:linearRGB;solid-color:#000000;solid-opacity:1;vector-effect:none;fill:#000000;fill-opacity:1;fill-rule:nonzero;stroke:none;stroke-width:7.35012722;stroke-linecap:butt;stroke-linejoin:miter;stroke-miterlimit:4;stroke-dasharray:none;stroke-dashoffset:0;stroke-opacity:1;color-rendering:auto;image-rendering:auto;shape-rendering:auto;text-rendering:auto;enable-background:accumulate"
       d="m 932.73203,299.96968 c -6.7225,0.26625 -11.98828,4.0957 -11.98828,4.0957 l -0.50586,0.34571 -0.36523,0.49023 c -4.1839,5.6145 -6.10134,11.01568 -5.88672,15.86524 0.21462,4.84955 2.84537,9.06159 6.79492,11.14453 7.89911,4.16587 19.33756,0.56326 28.50782,-11.26367 l 1.01367,-1.3086 -0.3086,-1.62695 c -1.24574,-6.58258 -3.56183,-11.14704 -6.76172,-14.04688 -3.19989,-2.89983 -7.13874,-3.82843 -10.5,-3.69531 z m 0.29102,7.34375 c 1.95556,-0.0774 3.62224,0.30228 5.27148,1.79688 1.4508,1.31475 2.92645,4.05745 3.99415,8.40234 -7.42178,8.70486 -14.79189,9.6296 -18.07813,7.89648 -1.73114,-0.91297 -2.76509,-2.35089 -2.88086,-4.96679 -0.11072,-2.50181 0.93833,-6.18339 4.05664,-10.56641 0.68662,-0.41451 4.09606,-2.42227 7.63672,-2.5625 z"
       id="path6842-12"
       inkscape:connector-curvature="0" />
    <path
       style="color:#000000;font-style:normal;font-variant:normal;font-weight:normal;font-stretch:normal;font-size:medium;line-height:normal;font-family:sans-serif;font-variant-ligatures:normal;font-variant-position:normal;font-variant-caps:normal;font-variant-numeric:normal;font-variant-alternates:normal;font-feature-settings:normal;text-indent:0;text-align:start;text-decoration:none;text-decoration-line:none;text-decoration-style:solid;text-decoration-color:#000000;letter-spacing:normal;word-spacing:normal;text-transform:none;writing-mode:lr-tb;direction:ltr;text-orientation:mixed;dominant-baseline:auto;baseline-shift:baseline;text-anchor:start;white-space:normal;shape-padding:0;clip-rule:nonzero;display:inline;overflow:visible;visibility:visible;opacity:1;isolation:auto;mix-blend-mode:normal;color-interpolation:sRGB;color-interpolation-filters:linearRGB;solid-color:#000000;solid-opacity:1;vector-effect:none;fill:#000000;fill-opacity:1;fill-rule:nonzero;stroke:none;stroke-width:7.35012722;stroke-linecap:butt;stroke-linejoin:miter;stroke-miterlimit:4;stroke-dasharray:none;stroke-dashoffset:0;stroke-opacity:1;color-rendering:auto;image-rendering:auto;shape-rendering:auto;text-rendering:auto;enable-background:accumulate"
       d="m 1031.0191,362.58687 -1.4043,0.79101 c -7.3071,4.11644 -12.0904,9.10184 -14.4804,14.34571 -2.3901,5.24386 -2.2454,10.85334 0.3711,15.1875 2.6164,4.33415 7.5116,7.15286 13.4238,7.71094 5.9122,0.55807 12.8908,-1.01065 20.5234,-5.20118 l 1.3614,-0.74609 0.414,-1.49609 c 0,0 1.5607,-5.55004 -0.076,-12.08204 -1.6368,-6.532 -6.885,-14.22235 -18.6015,-18.01367 z m 0.7422,8.14062 c 8.3652,3.16854 11.1919,7.88699 12.2617,12.15625 0.7905,3.15438 0.5703,5.41697 0.3438,6.83008 -5.9467,2.97435 -11.0158,3.9441 -14.7481,3.5918 -4.0614,-0.38338 -6.5425,-2.07673 -7.8203,-4.19336 -1.2777,-2.11663 -1.5447,-4.89681 0.025,-8.3418 1.4339,-3.1459 4.6289,-6.74418 9.9375,-10.04297 z"
       id="path6842-1-3"
       inkscape:connector-curvature="0" />
    <path
       style="color:#000000;font-style:normal;font-variant:normal;font-weight:normal;font-stretch:normal;font-size:medium;line-height:normal;font-family:sans-serif;font-variant-ligatures:normal;font-variant-position:normal;font-variant-caps:normal;font-variant-numeric:normal;font-variant-alternates:normal;font-feature-settings:normal;text-indent:0;text-align:start;text-decoration:none;text-decoration-line:none;text-decoration-style:solid;text-decoration-color:#000000;letter-spacing:normal;word-spacing:normal;text-transform:none;writing-mode:lr-tb;direction:ltr;text-orientation:mixed;dominant-baseline:auto;baseline-shift:baseline;text-anchor:start;white-space:normal;shape-padding:0;clip-rule:nonzero;display:inline;overflow:visible;visibility:visible;opacity:1;isolation:auto;mix-blend-mode:normal;color-interpolation:sRGB;color-interpolation-filters:linearRGB;solid-color:#000000;solid-opacity:1;vector-effect:none;fill:#000000;fill-opacity:1;fill-rule:nonzero;stroke:none;stroke-width:5.84267139;stroke-linecap:butt;stroke-linejoin:miter;stroke-miterlimit:4;stroke-dasharray:none;stroke-dashoffset:0;stroke-opacity:1;color-rendering:auto;image-rendering:auto;shape-rendering:auto;text-rendering:auto;enable-background:accumulate"
       d="m 753.87071,487.26851 -5.625,1.57617 c 0,0 6.72545,22.84403 31.50586,24.76367 l 0.45117,-5.82617 c -21.36758,-1.65526 -26.33203,-20.51367 -26.33203,-20.51367 z"
       id="path3720"
       inkscape:connector-curvature="0" />
    <path
       style="color:#000000;font-style:normal;font-variant:normal;font-weight:normal;font-stretch:normal;font-size:medium;line-height:normal;font-family:sans-serif;font-variant-ligatures:normal;font-variant-position:normal;font-variant-caps:normal;font-variant-numeric:normal;font-variant-alternates:normal;font-feature-settings:normal;text-indent:0;text-align:start;text-decoration:none;text-decoration-line:none;text-decoration-style:solid;text-decoration-color:#000000;letter-spacing:normal;word-spacing:normal;text-transform:none;writing-mode:lr-tb;direction:ltr;text-orientation:mixed;dominant-baseline:auto;baseline-shift:baseline;text-anchor:start;white-space:normal;shape-padding:0;clip-rule:nonzero;display:inline;overflow:visible;visibility:visible;opacity:1;isolation:auto;mix-blend-mode:normal;color-interpolation:sRGB;color-interpolation-filters:linearRGB;solid-color:#000000;solid-opacity:1;vector-effect:none;fill:#000000;fill-opacity:1;fill-rule:nonzero;stroke:none;stroke-width:5.84267139;stroke-linecap:butt;stroke-linejoin:miter;stroke-miterlimit:4;stroke-dasharray:none;stroke-dashoffset:0;stroke-opacity:1;color-rendering:auto;image-rendering:auto;shape-rendering:auto;text-rendering:auto;enable-background:accumulate"
       d="m 792.97422,521.79195 -5.83984,0.1875 c 0,0 0.17709,6.41059 2.90234,13.16015 2.72525,6.74957 8.49955,14.30682 18.97266,15.33594 l 0.57031,-5.81445 c -8.00087,-0.7862 -11.84871,-6.07136 -14.125,-11.70899 -2.27628,-5.63762 -2.48047,-11.16015 -2.48047,-11.16015 z"
       id="path3722"
       inkscape:connector-curvature="0" />
    <path
       style="color:#000000;font-style:normal;font-variant:normal;font-weight:normal;font-stretch:normal;font-size:medium;line-height:normal;font-family:sans-serif;font-variant-ligatures:normal;font-variant-position:normal;font-variant-caps:normal;font-variant-numeric:normal;font-variant-alternates:normal;font-feature-settings:normal;text-indent:0;text-align:start;text-decoration:none;text-decoration-line:none;text-decoration-style:solid;text-decoration-color:#000000;letter-spacing:normal;word-spacing:normal;text-transform:none;writing-mode:lr-tb;direction:ltr;text-orientation:mixed;dominant-baseline:auto;baseline-shift:baseline;text-anchor:start;white-space:normal;shape-padding:0;clip-rule:nonzero;display:inline;overflow:visible;visibility:visible;opacity:1;isolation:auto;mix-blend-mode:normal;color-interpolation:sRGB;color-interpolation-filters:linearRGB;solid-color:#000000;solid-opacity:1;vector-effect:none;fill:#000000;fill-opacity:1;fill-rule:nonzero;stroke:none;stroke-width:5.84267139;stroke-linecap:butt;stroke-linejoin:miter;stroke-miterlimit:4;stroke-dasharray:none;stroke-dashoffset:0;stroke-opacity:1;color-rendering:auto;image-rendering:auto;shape-rendering:auto;text-rendering:auto;enable-background:accumulate"
       d="m 810.74571,560.78413 c 0,0 -0.3033,6.84431 1.67187,14.55469 1.97517,7.71039 6.41903,16.81616 16.17188,20.35742 l 1.99414,-5.49218 c -7.25554,-2.63449 -10.77233,-9.54927 -12.50586,-16.31641 -1.73354,-6.76714 -1.49414,-12.85742 -1.49414,-12.85742 z"
       id="path3724"
       inkscape:connector-curvature="0" />
    <path
       style="color:#000000;font-style:normal;font-variant:normal;font-weight:normal;font-stretch:normal;font-size:medium;line-height:normal;font-family:sans-serif;font-variant-ligatures:normal;font-variant-position:normal;font-variant-caps:normal;font-variant-numeric:normal;font-variant-alternates:normal;font-feature-settings:normal;text-indent:0;text-align:start;text-decoration:none;text-decoration-line:none;text-decoration-style:solid;text-decoration-color:#000000;letter-spacing:normal;word-spacing:normal;text-transform:none;writing-mode:lr-tb;direction:ltr;text-orientation:mixed;dominant-baseline:auto;baseline-shift:baseline;text-anchor:start;white-space:normal;shape-padding:0;clip-rule:nonzero;display:inline;overflow:visible;visibility:visible;opacity:1;isolation:auto;mix-blend-mode:normal;color-interpolation:sRGB;color-interpolation-filters:linearRGB;solid-color:#000000;solid-opacity:1;vector-effect:none;fill:#000000;fill-opacity:1;fill-rule:nonzero;stroke:none;stroke-width:5.84267139;stroke-linecap:butt;stroke-linejoin:miter;stroke-miterlimit:4;stroke-dasharray:none;stroke-dashoffset:0;stroke-opacity:1;color-rendering:auto;image-rendering:auto;shape-rendering:auto;text-rendering:auto;enable-background:accumulate"
       d="m 824.37266,614.28804 c 0,0 -0.30495,6.81835 1.54687,14.36328 1.85183,7.54493 6.07877,16.43871 15.50391,19.29883 l 1.69727,-5.5918 c -6.64291,-2.01583 -9.90557,-8.49195 -11.52735,-15.09961 -1.62177,-6.60765 -1.38281,-12.72461 -1.38281,-12.72461 z"
       id="path3726"
       inkscape:connector-curvature="0" />
    <path
       style="color:#000000;font-style:normal;font-variant:normal;font-weight:normal;font-stretch:normal;font-size:medium;line-height:normal;font-family:sans-serif;font-variant-ligatures:normal;font-variant-position:normal;font-variant-caps:normal;font-variant-numeric:normal;font-variant-alternates:normal;font-feature-settings:normal;text-indent:0;text-align:start;text-decoration:none;text-decoration-line:none;text-decoration-style:solid;text-decoration-color:#000000;letter-spacing:normal;word-spacing:normal;text-transform:none;writing-mode:lr-tb;direction:ltr;text-orientation:mixed;dominant-baseline:auto;baseline-shift:baseline;text-anchor:start;white-space:normal;shape-padding:0;clip-rule:nonzero;display:inline;overflow:visible;visibility:visible;opacity:1;isolation:auto;mix-blend-mode:normal;color-interpolation:sRGB;color-interpolation-filters:linearRGB;solid-color:#000000;solid-opacity:1;vector-effect:none;fill:#000000;fill-opacity:1;fill-rule:nonzero;stroke:none;stroke-width:11.78751469;stroke-linecap:butt;stroke-linejoin:miter;stroke-miterlimit:4;stroke-dasharray:none;stroke-dashoffset:0;stroke-opacity:1;color-rendering:auto;image-rendering:auto;shape-rendering:auto;text-rendering:auto;enable-background:accumulate"
       d="m 795.28822,239.0204 c -44.87279,-44.17502 -83.50318,-45.9282 -112.98415,-36.61684 -14.74048,4.65566 -27.17246,12.3128 -36.41346,19.34689 -9.24103,7.03426 -15.028,13.17328 -17.44985,15.57264 l -8.29569,-8.37482 c 1.86638,-1.84912 8.60111,-8.96046 18.60715,-16.57698 10.00612,-7.6165 23.54778,-16.01087 40.00248,-21.20799 32.90942,-10.39416 77.55567,-7.05485 124.80217,39.45703 z"
       id="path29-0"
       inkscape:connector-curvature="0" />
    <path
       style="color:#000000;font-style:normal;font-variant:normal;font-weight:normal;font-stretch:normal;font-size:medium;line-height:normal;font-family:sans-serif;font-variant-ligatures:normal;font-variant-position:normal;font-variant-caps:normal;font-variant-numeric:normal;font-variant-alternates:normal;font-feature-settings:normal;text-indent:0;text-align:start;text-decoration:none;text-decoration-line:none;text-decoration-style:solid;text-decoration-color:#000000;letter-spacing:normal;word-spacing:normal;text-transform:none;writing-mode:lr-tb;direction:ltr;text-orientation:mixed;dominant-baseline:auto;baseline-shift:baseline;text-anchor:start;white-space:normal;shape-padding:0;clip-rule:nonzero;display:inline;overflow:visible;visibility:visible;opacity:1;isolation:auto;mix-blend-mode:normal;color-interpolation:sRGB;color-interpolation-filters:linearRGB;solid-color:#000000;solid-opacity:1;vector-effect:none;fill:#000000;fill-opacity:1;fill-rule:nonzero;stroke:none;stroke-width:11.78751469;stroke-linecap:butt;stroke-linejoin:miter;stroke-miterlimit:4;stroke-dasharray:none;stroke-dashoffset:0;stroke-opacity:1;color-rendering:auto;image-rendering:auto;shape-rendering:auto;text-rendering:auto;enable-background:accumulate"
       d="m 634.83933,-30.05013 c -11.70121,0.11173 -21.16329,4.81513 -27.25748,11.85409 -6.11054,7.05794 -8.95389,16.1676 -8.87163,25.13716 0.0822,8.96963 3.08604,17.96906 9.27121,24.81323 6.16457,6.82135 15.62763,11.18882 27.07929,10.8354 11.24194,-0.0261 20.3873,-4.79666 26.19371,-11.8433 5.82231,-7.06596 8.49929,-16.1171 8.44145,-25.04001 -0.0577,-8.9229 -2.84605,-17.88731 -8.73125,-24.77898 -5.86992,-6.87382 -15.04882,-11.35989 -26.1253,-10.97759 z m 0.34915,11.77489 c 7.90432,-0.29079 13.06155,2.46705 16.8109,6.85756 3.7494,4.39058 5.86706,10.73171 5.90904,17.20153 0.042,6.46982 -1.98827,12.90004 -5.75063,17.46613 -3.76234,4.56591 -9.05081,7.56134 -17.1853,7.56134 h -0.099 l -0.0988,0.007 c -8.46051,0.28423 -14.07475,-2.56782 -18.04746,-6.96378 -3.97271,-4.39579 -6.17087,-10.63995 -6.22939,-17.01792 -0.0584,-6.3778 2.01847,-12.71949 5.99539,-17.31303 3.97698,-4.59354 9.74046,-7.72658 18.52261,-7.79176 l 0.0863,-0.007 z"
       id="path87-4"
       inkscape:connector-curvature="0" />
    <path
       style="color:#000000;font-style:normal;font-variant:normal;font-weight:normal;font-stretch:normal;font-size:medium;line-height:normal;font-family:sans-serif;font-variant-ligatures:normal;font-variant-position:normal;font-variant-caps:normal;font-variant-numeric:normal;font-variant-alternates:normal;font-feature-settings:normal;text-indent:0;text-align:start;text-decoration:none;text-decoration-line:none;text-decoration-style:solid;text-decoration-color:#000000;letter-spacing:normal;word-spacing:normal;text-transform:none;writing-mode:lr-tb;direction:ltr;text-orientation:mixed;dominant-baseline:auto;baseline-shift:baseline;text-anchor:start;white-space:normal;shape-padding:0;clip-rule:nonzero;display:inline;overflow:visible;visibility:visible;opacity:1;isolation:auto;mix-blend-mode:normal;color-interpolation:sRGB;color-interpolation-filters:linearRGB;solid-color:#000000;solid-opacity:1;vector-effect:none;fill:#000000;fill-opacity:1;fill-rule:nonzero;stroke:none;stroke-width:11.78751469;stroke-linecap:butt;stroke-linejoin:miter;stroke-miterlimit:4;stroke-dasharray:none;stroke-dashoffset:0;stroke-opacity:1;color-rendering:auto;image-rendering:auto;shape-rendering:auto;text-rendering:auto;enable-background:accumulate"
       d="m 634.33175,-52.46408 c -22.13718,0.59142 -43.27229,11.26671 -68.90674,30.30474 l 7.02854,9.46367 c 24.83234,-18.44221 43.65635,-27.48931 62.19314,-27.98454 18.53685,-0.49514 37.96688,7.49776 64.16953,25.71135 l 6.72796,-9.67978 c -27.11809,-18.84993 -49.07529,-28.40669 -71.21243,-27.81544 z"
       id="path59-4"
       inkscape:connector-curvature="0" />
    <path
       style="color:#000000;font-style:normal;font-variant:normal;font-weight:normal;font-stretch:normal;font-size:medium;line-height:normal;font-family:sans-serif;font-variant-ligatures:normal;font-variant-position:normal;font-variant-caps:normal;font-variant-numeric:normal;font-variant-alternates:normal;font-feature-settings:normal;text-indent:0;text-align:start;text-decoration:none;text-decoration-line:none;text-decoration-style:solid;text-decoration-color:#000000;letter-spacing:normal;word-spacing:normal;text-transform:none;writing-mode:lr-tb;direction:ltr;text-orientation:mixed;dominant-baseline:auto;baseline-shift:baseline;text-anchor:start;white-space:normal;shape-padding:0;clip-rule:nonzero;display:inline;overflow:visible;visibility:visible;opacity:1;isolation:auto;mix-blend-mode:normal;color-interpolation:sRGB;color-interpolation-filters:linearRGB;solid-color:#000000;solid-opacity:1;vector-effect:none;fill:#000000;fill-opacity:1;fill-rule:nonzero;stroke:none;stroke-width:11.78751469;stroke-linecap:butt;stroke-linejoin:miter;stroke-miterlimit:4;stroke-dasharray:none;stroke-dashoffset:0;stroke-opacity:1;color-rendering:auto;image-rendering:auto;shape-rendering:auto;text-rendering:auto;enable-background:accumulate"
       d="m 794.88502,-31.73119 c -11.70121,0.11166 -21.16327,4.81686 -27.25747,11.85585 -6.11054,7.05799 -8.9539,16.16587 -8.87162,25.13532 0.0822,8.9697 3.08603,17.96916 9.2712,24.8133 6.16661,6.82357 15.63336,11.1919 27.09011,10.83534 11.23677,-0.0292 20.37844,-4.79903 26.1829,-11.84322 5.8223,-7.06605 8.49751,-16.1153 8.4396,-25.03828 -0.0577,-8.92289 -2.84591,-17.88913 -8.73119,-24.7808 -5.86964,-6.87335 -15.04783,-11.35926 -26.12353,-10.97751 z m 0.34915,11.77488 c 7.90434,-0.29077 13.06154,2.46698 16.81095,6.85758 3.74937,4.39051 5.86526,10.73165 5.90722,17.20153 0.0421,6.46974 -1.98649,12.90003 -5.74884,17.46603 -3.76235,4.566 -9.05075,7.56308 -17.18526,7.56308 h -0.099 l -0.099,0.007 c -8.46052,0.28421 -14.07475,-2.56776 -18.04746,-6.96373 -3.97266,-4.39594 -6.17088,-10.64009 -6.22939,-17.01799 -0.0585,-6.3778 2.01841,-12.71949 5.99538,-17.31295 3.97699,-4.59361 9.74052,-7.72665 18.52267,-7.79175 h 0.0863 z"
       id="path87-1-31"
       inkscape:connector-curvature="0" />
    <path
       style="color:#000000;font-style:normal;font-variant:normal;font-weight:normal;font-stretch:normal;font-size:medium;line-height:normal;font-family:sans-serif;font-variant-ligatures:normal;font-variant-position:normal;font-variant-caps:normal;font-variant-numeric:normal;font-variant-alternates:normal;font-feature-settings:normal;text-indent:0;text-align:start;text-decoration:none;text-decoration-line:none;text-decoration-style:solid;text-decoration-color:#000000;letter-spacing:normal;word-spacing:normal;text-transform:none;writing-mode:lr-tb;direction:ltr;text-orientation:mixed;dominant-baseline:auto;baseline-shift:baseline;text-anchor:start;white-space:normal;shape-padding:0;clip-rule:nonzero;display:inline;overflow:visible;visibility:visible;opacity:1;isolation:auto;mix-blend-mode:normal;color-interpolation:sRGB;color-interpolation-filters:linearRGB;solid-color:#000000;solid-opacity:1;vector-effect:none;fill:#000000;fill-opacity:1;fill-rule:nonzero;stroke:none;stroke-width:11.78751469;stroke-linecap:butt;stroke-linejoin:miter;stroke-miterlimit:4;stroke-dasharray:none;stroke-dashoffset:0;stroke-opacity:1;color-rendering:auto;image-rendering:auto;shape-rendering:auto;text-rendering:auto;enable-background:accumulate"
       d="m 795.71832,-53.91654 c -22.09047,0.0449 -43.71098,10.15687 -70.27282,30.09408 l 7.07711,9.42774 c 25.63971,-19.24502 44.70746,-27.69676 63.221,-27.7344 18.51341,-0.0371 37.64799,8.41466 63.20109,25.53492 l 6.56238,-9.79129 c -26.31302,-17.62952 -47.69822,-27.57594 -69.78876,-27.53105 z"
       id="path59-1-31"
       inkscape:connector-curvature="0" />
    <path
       inkscape:connector-curvature="0"
       style="font-style:normal;font-weight:normal;font-size:233.33332825px;line-height:1.25;font-family:sans-serif;letter-spacing:0px;word-spacing:0px;fill:#000000;fill-opacity:1;stroke:none"
       d="m 909.63477,851.60615 v 55.1425 c -5.69662,-2.9622 -11.12609,-5.1269 -16.29102,-6.4941 -5.16493,-1.4432 -11.08941,-2.1641 -17.77344,-2.1641 -7.36762,0 -14.50803,1.5185 -21.41992,4.5567 -6.83594,3.0382 -12.83702,7.4442 -18.00195,13.2168 -5.24089,5.9244 -9.4171,13.1022 -12.53125,21.5332 -3.0382,8.431 -4.5586,18.0386 -4.5586,28.8242 0,20.7357 4.44336,36.95325 13.33008,48.65045 8.96268,11.697 21.0395,17.5449 36.23047,17.5449 7.82335,0 15.07769,-1.4811 21.76172,-4.4434 6.68403,-2.9622 13.10156,-7.1011 19.25391,-12.4179 v 13.3301 h 21.41992 V 851.60615 Z m -826.46485,4.5566 c -12.4566,0 -23.81055,1.9368 -34.06445,5.8105 -10.17795,3.8737 -18.87609,9.4957 -26.0918,16.8633 -7.44357,7.5955 -13.14019,16.8987 -17.08984,27.9121 C 1.97418,917.76215 0,930.25735 0,944.23305 c 0,14.7352 2.05078,27.6862 6.15234,38.8516 4.10157,11.0894 9.79818,20.24135 17.08985,27.45695 7.44357,7.3676 16.17903,12.799 26.20508,16.2931 10.10199,3.4179 21.30468,5.1269 33.60937,5.1269 6.53212,0 12.49392,-0.5323 17.88672,-1.5957 5.46875,-0.9874 10.52105,-2.2033 15.1543,-3.6466 5.46875,-1.7468 9.87283,-3.4166 13.21484,-5.0117 3.41797,-1.595 7.21701,-3.304 11.39453,-5.1269 v -26.43355 h -1.5957 c -8.27908,7.4435 -17.1658,13.02625 -26.66016,16.74795 -9.49436,3.7218 -19.67166,5.584 -30.5332,5.584 -7.89931,0 -15.41884,-1.3299 -22.5586,-3.9883 -7.0638,-2.7344 -13.25542,-6.9125 -18.57226,-12.53315 -5.08898,-5.3928 -9.26519,-12.38 -12.53125,-20.9629 -3.19011,-8.5829 -4.78516,-18.8368 -4.78516,-30.7617 0,-11.3932 1.44184,-21.4193 4.32813,-30.0781 2.96224,-8.7348 7.0638,-15.9499 12.30469,-21.6465 5.39279,-5.8485 11.50781,-10.1406 18.34375,-12.875 6.91189,-2.8103 14.65928,-4.2148 23.24218,-4.2148 10.48177,0 20.31728,1.7836 29.50782,5.3535 9.19053,3.5698 18.45833,9.2665 27.80078,17.0898 h 1.70898 v -26.7734 c -11.08941,-5.5447 -21.19206,-9.4184 -30.30664,-11.6211 -9.03863,-2.2027 -18.11589,-3.3047 -27.23047,-3.3047 z m 1178.51558,8.8867 v 36.5723 h -14.4687 v 18.0019 h 14.4687 v 67.6758 c 0,15.41875 3.3807,26.62155 10.1407,33.60945 6.76,6.9878 16.6347,10.4824 29.623,10.4824 3.7218,0 7.9373,-0.3418 12.6465,-1.0254 4.7852,-0.6836 9.1892,-1.5577 13.2148,-2.6211 v -19.2539 h -1.1386 c -1.671,0.6835 -4.4054,1.5576 -8.2031,2.621 -3.7978,0.9874 -7.4436,1.4806 -10.9376,1.4806 -6.0004,0 -10.4811,-0.6836 -13.4433,-2.0508 -2.8863,-1.4431 -5.1649,-3.6845 -6.8359,-6.7227 -1.823,-3.2661 -2.8876,-6.75865 -3.1915,-10.48045 -0.3038,-3.7978 -0.455,-9.0387 -0.455,-15.7227 v -57.9922 h 44.205 v -18.0019 h -44.205 v -36.5723 z m -1040.77144,33.041 c -18.0013,0 -32.31749,6.0384 -42.95117,18.1153 -10.55772,12.0008 -15.83789,28.3698 -15.83789,49.1054 0,20.7357 5.28017,37.10275 15.83789,49.10345 10.63368,12.001 24.94987,18.0021 42.95117,18.0021 17.84939,0 32.09093,-6.0011 42.72461,-18.0021 10.63368,-12.0008 15.95117,-28.36775 15.95117,-49.10345 0,-20.7356 -5.31749,-37.1046 -15.95117,-49.1054 -10.63368,-12.0769 -24.87522,-18.1153 -42.72461,-18.1153 z m 154.60742,0 c -7.51953,0 -14.62261,1.5578 -21.30664,4.6719 -6.60807,3.1142 -13.25347,7.4436 -19.9375,12.9883 v -14.1289 h -21.41992 v 127.26375 h 21.41992 v -95.01965 c 5.84853,-4.4813 11.6964,-8.1664 17.54493,-11.0527 5.92447,-2.8863 11.81163,-4.3281 17.66015,-4.3281 6.15235,0 10.8609,0.8348 14.12696,2.5058 3.26605,1.5951 5.77256,4.025 7.51953,7.291 1.59505,3.0382 2.62044,7.1025 3.07617,12.1914 0.53168,5.0131 0.79883,10.3306 0.79883,15.9512 v 72.46105 h 21.41797 v -81.46295 c -10e-6,-2.2787 -0.0747,-4.5573 -0.22657,-6.836 -0.15191,-2.3546 -0.34245,-4.4054 -0.57031,-6.1523 6.00043,-4.6333 12.00152,-8.4304 18.00195,-11.3926 6.00044,-3.0382 11.99957,-4.5566 18,-4.5566 6.15235,0 10.86285,0.8348 14.12891,2.5058 3.26606,1.671 5.77257,4.1402 7.51953,7.4063 1.59505,3.0382 2.62044,7.1004 3.07617,12.1894 0.53169,5.089 0.79688,10.3692 0.79688,15.8379 v 72.46105 h 21.41992 v -82.60165 c 0,-15.191 -3.34332,-27.0026 -10.02734,-35.4336 -6.60808,-8.507 -16.89931,-12.7598 -30.875,-12.7598 -8.12717,0 -15.76064,1.6324 -22.9004,4.8985 -7.13975,3.1901 -15.03841,8.431 -23.69726,15.7226 -2.96224,-6.4561 -7.48221,-11.5065 -13.55859,-15.1523 -6.00044,-3.6459 -13.32943,-5.4688 -21.98829,-5.4688 z m 368.79883,0 c -7.51953,0 -14.85048,1.5578 -21.99023,4.6719 -7.13976,3.1142 -14.05035,7.4436 -20.73438,12.9883 v -14.1289 h -21.41992 v 127.26375 h 21.41992 v -95.01965 c 5.84853,-4.4813 11.96159,-8.1664 18.3418,-11.0527 6.38021,-2.8863 12.49523,-4.3281 18.34375,-4.3281 5.69661,0 10.33051,0.7975 13.90039,2.3925 3.56988,1.5191 6.30425,3.8724 8.20313,7.0625 1.82291,2.8863 3.07617,6.9132 3.75976,12.0782 0.68359,5.0889 1.02539,10.5577 1.02539,16.4062 v 72.46105 h 21.41797 v -82.60165 c 0,-15.5708 -3.60655,-27.4963 -10.82227,-35.7754 -7.21571,-8.2791 -17.69748,-12.418 -31.44531,-12.418 z m 433.39849,0 c -7.5196,0 -14.8505,1.5578 -21.9903,4.6719 -7.1397,3.1142 -14.0503,7.4436 -20.7344,12.9883 v -14.1289 h -21.4199 v 127.26375 h 21.4199 v -95.01965 c 5.8486,-4.4813 11.9616,-8.1664 18.3418,-11.0527 6.3802,-2.8863 12.4953,-4.3281 18.3438,-4.3281 5.6966,0 10.3305,0.7975 13.9004,2.3925 3.5699,1.5191 6.3042,3.8724 8.2031,7.0625 1.8229,2.8863 3.0762,6.9132 3.7598,12.0782 0.6836,5.0889 1.0254,10.5577 1.0254,16.4062 v 72.46105 h 21.4179 v -82.60165 c 0,-15.5708 -3.6065,-27.4963 -10.8222,-35.7754 -7.2157,-8.2791 -17.6975,-12.418 -31.4453,-12.418 z m 228.4335,0 c -18.5329,0 -33.4954,6.115 -44.8886,18.3438 -11.3173,12.2287 -16.9766,28.7489 -16.9766,49.5605 0,21.0395 5.9245,37.29265 17.7734,48.76175 11.849,11.3933 28.3319,17.0899 49.4473,17.0899 8.2791,0 16.1777,-1.0254 23.6973,-3.0762 7.5195,-2.0508 14.8878,-4.5946 22.1035,-7.6328 v -23.35555 h -1.1406 c -3.7218,3.34205 -9.9881,6.76005 -18.7989,10.25385 -8.7348,3.4181 -17.4309,5.1271 -26.0898,5.1271 -6.5321,0 -12.5332,-0.9115 -18.002,-2.7344 -5.3928,-1.8229 -10.064,-4.5573 -14.0136,-8.2031 -4.1016,-3.72185 -7.329,-8.46965 -9.6836,-14.24225 -2.3546,-5.8485 -3.5313,-12.6845 -3.5313,-20.5078 h 93.7657 v -11.6211 c 0,-18.457 -4.6713,-32.6986 -14.0137,-42.7246 -9.2665,-10.0261 -22.4827,-15.0391 -39.6485,-15.0391 z m -822.81832,0.4551 c -7.67144,0 -15.45811,0.6836 -23.35742,2.0508 -7.8993,1.3672 -13.93771,2.6204 -18.11523,3.7598 v 21.7617 h 1.14062 c 7.36762,-2.8104 14.50608,-4.9377 21.41797,-6.3809 6.91189,-1.5191 13.17817,-2.2773 18.79883,-2.2773 4.63325,0 9.07661,0.3025 13.33008,0.9101 4.25347,0.6077 7.8993,1.7863 10.9375,3.5332 3.1901,1.8229 5.62196,4.3295 7.29297,7.5196 1.74696,3.1901 2.61914,7.215 2.61914,12.0761 v 3.3047 c -12.4566,0.6077 -24.11502,1.5191 -34.97656,2.7344 -10.86155,1.2153 -20.16667,3.5312 -27.91407,6.9492 -7.67144,3.418 -13.59592,8.1265 -17.77343,14.127 -4.10157,5.9244 -6.15235,13.7111 -6.15235,23.3574 0,11.77295 3.98763,21.45715 11.96289,29.05265 7.97526,7.5955 17.69879,11.3927 29.16797,11.3927 6.2283,0 11.65777,-0.607 16.29102,-1.8223 4.63324,-1.1393 8.73481,-2.5831 12.30468,-4.33 3.0382,-1.3672 6.15365,-3.1901 9.34375,-5.4688 3.26606,-2.3546 5.84723,-4.1775 7.7461,-5.4687 v 13.5586 h 21.30664 v -86.36145 c 0,-8.2031 -1.25326,-15.0764 -3.75977,-20.6211 -2.50651,-5.5447 -6.15234,-10.0646 -10.9375,-13.5586 -4.86111,-3.5698 -10.63433,-6.0764 -17.31836,-7.5195 -6.60807,-1.5191 -14.39279,-2.2793 -23.35547,-2.2793 z m 433.39842,0 c -7.6714,0 -15.4581,0.6836 -23.3574,2.0508 -7.89931,1.3672 -13.93772,2.6204 -18.11523,3.7598 v 21.7617 h 1.14062 c 7.36762,-2.8104 14.50608,-4.9377 21.41797,-6.3809 6.91194,-1.5191 13.17814,-2.2773 18.79884,-2.2773 4.6332,0 9.0766,0.3025 13.3301,0.9101 4.2534,0.6077 7.8993,1.7863 10.9375,3.5332 3.1901,1.8229 5.6219,4.3295 7.2929,7.5196 1.747,3.1901 2.6192,7.215 2.6192,12.0761 v 3.3047 c -12.4566,0.6077 -24.115,1.5191 -34.9766,2.7344 -10.8615,1.2153 -20.16665,3.5312 -27.91405,6.9492 -7.67144,3.418 -13.59592,8.1265 -17.77344,14.127 -4.10156,5.9244 -6.15234,13.7111 -6.15234,23.3574 0,11.77295 3.98763,21.45715 11.96289,29.05265 7.97526,7.5955 17.69878,11.3927 29.16794,11.3927 6.2283,0 11.6578,-0.607 16.291,-1.8223 4.6333,-1.1393 8.7349,-2.5831 12.3047,-4.33 3.0382,-1.3672 6.1537,-3.1901 9.3438,-5.4688 3.266,-2.3546 5.8472,-4.1775 7.7461,-5.4687 v 13.5586 h 21.3066 v -86.36145 c 0,-8.2031 -1.2532,-15.0764 -3.7597,-20.6211 -2.5066,-5.5447 -6.1524,-10.0646 -10.9376,-13.5586 -4.8611,-3.5698 -10.6343,-6.0764 -17.3183,-7.5195 -6.6081,-1.5191 -14.3928,-2.2793 -23.3555,-2.2793 z m 388.2813,17.2051 c 11.3932,0 19.8615,3.0762 25.4062,9.2285 5.6207,6.1523 8.469,14.8485 8.5449,26.0898 h -72.916 c 0.9115,-10.026 4.7459,-18.4197 11.5059,-25.1796 6.8359,-6.76 15.9898,-10.1387 27.459,-10.1387 z m -1184.09964,0.7969 c 11.46919,0 20.43251,4.0249 26.88867,12.0761 6.45617,7.9753 9.6836,20.2053 9.6836,36.6875 0,16.1025 -3.26476,28.2539 -9.79688,36.45705 -6.45616,8.1271 -15.38216,12.1914 -26.77539,12.1914 -11.54514,0 -20.54579,-4.1016 -27.00195,-12.3047 -6.45616,-8.27905 -9.68359,-20.39315 -9.68359,-36.34375 0,-16.4822 3.1901,-28.7122 9.57031,-36.6875 6.45616,-8.0512 15.49414,-12.0761 27.11523,-12.0761 z m 658.30078,1.1386 c 5.3928,0 10.36849,0.495 14.92578,1.4825 4.5573,0.9874 9.72158,2.771 15.49415,5.3535 v 73.0312 c -5.3928,4.25345 -11.20335,7.74805 -17.43165,10.48235 -6.22829,2.6585 -12.38064,3.9864 -18.45703,3.9864 -11.39323,0 -19.671,-3.9111 -24.83593,-11.7344 -5.16493,-7.89925 -7.74805,-19.40645 -7.74805,-34.52145 0,-15.3429 3.34136,-27.1918 10.02539,-35.5469 6.68403,-8.355 16.02648,-12.5332 28.02734,-12.5332 z m -261.8164,44.4336 v 35.4336 c -5.31684,4.10165 -11.08811,7.63355 -17.31641,10.59565 -6.2283,2.8864 -13.10351,4.3302 -20.62305,4.3302 -9.03862,0 -15.76063,-1.823 -20.16601,-5.4688 -4.40538,-3.7217 -6.60742,-9.22985 -6.60742,-16.52145 0,-6.4562 1.89952,-11.5065 5.69726,-15.1524 3.79775,-3.7218 8.77149,-6.4561 14.92383,-8.2031 5.16493,-1.4431 12.15408,-2.5451 20.96484,-3.3047 8.88672,-0.7595 16.59484,-1.3292 23.12696,-1.709 z m 433.39846,0 v 35.4336 c -5.3169,4.10165 -11.0881,7.63355 -17.3164,10.59565 -6.2283,2.8864 -13.1035,4.3302 -20.6231,4.3302 -9.0386,0 -15.76061,-1.823 -20.16599,-5.4688 -4.40539,-3.7217 -6.60743,-9.22985 -6.60743,-16.52145 0,-6.4562 1.89953,-11.5065 5.69727,-15.1524 3.79774,-3.7218 8.77145,-6.4561 14.92385,-8.2031 5.1649,-1.4431 12.1541,-2.5451 20.9648,-3.3047 8.8867,-0.7595 16.5949,-1.3292 23.127,-1.709 z"
       id="text6166" />
  </g>
</svg>
