<?xml version="1.0" encoding="UTF-8" standalone="no"?>
<!-- Created with Inkscape (http://www.inkscape.org/) -->

<svg
   xmlns:dc="http://purl.org/dc/elements/1.1/"
   xmlns:cc="http://creativecommons.org/ns#"
   xmlns:rdf="http://www.w3.org/1999/02/22-rdf-syntax-ns#"
   xmlns:svg="http://www.w3.org/2000/svg"
   xmlns="http://www.w3.org/2000/svg"
   xmlns:sodipodi="http://sodipodi.sourceforge.net/DTD/sodipodi-0.dtd"
   xmlns:inkscape="http://www.inkscape.org/namespaces/inkscape"
   version="1.1"
   id="svg6791"
   width="1000"
   height="1250"
   viewBox="0 0 1000 1250"
   sodipodi:docname="2.svg"
   inkscape:version="0.92.4 (5da689c313, 2019-01-14)">
  <metadata
     id="metadata6797">
    <rdf:RDF>
      <cc:Work
         rdf:about="">
        <dc:format>image/svg+xml</dc:format>
        <dc:type
           rdf:resource="http://purl.org/dc/dcmitype/StillImage" />
        <dc:title></dc:title>
      </cc:Work>
    </rdf:RDF>
  </metadata>
  <defs
     id="defs6795">
    <clipPath
       clipPathUnits="userSpaceOnUse"
       id="clipPath6803">
      <rect
         style="fill:none;stroke:#ff0000;stroke-width:1.13927591;stroke-miterlimit:4;stroke-dasharray:none"
         id="rect6805"
         width="998.86072"
         height="998.86072"
         x="0.56963795"
         y="0.56962395"
         transform="rotate(-90)" />
    </clipPath>
  </defs>
  <sodipodi:namedview
     pagecolor="#ffffff"
     bordercolor="#666666"
     borderopacity="1"
     objecttolerance="10"
     gridtolerance="10"
     guidetolerance="10"
     inkscape:pageopacity="0"
     inkscape:pageshadow="2"
     inkscape:window-width="1366"
     inkscape:window-height="715"
     id="namedview6793"
     showgrid="false"
     inkscape:zoom="0.38628982"
     inkscape:cx="267.71775"
     inkscape:cy="479.06439"
     inkscape:window-x="-8"
     inkscape:window-y="-8"
     inkscape:window-maximized="1"
     inkscape:current-layer="svg6791" />
  <path
     style="color:#000000;font-style:normal;font-variant:normal;font-weight:normal;font-stretch:normal;font-size:medium;line-height:normal;font-family:sans-serif;font-variant-ligatures:normal;font-variant-position:normal;font-variant-caps:normal;font-variant-numeric:normal;font-variant-alternates:normal;font-feature-settings:normal;text-indent:0;text-align:start;text-decoration:none;text-decoration-line:none;text-decoration-style:solid;text-decoration-color:#000000;letter-spacing:normal;word-spacing:normal;text-transform:none;writing-mode:lr-tb;direction:ltr;text-orientation:mixed;dominant-baseline:auto;baseline-shift:baseline;text-anchor:start;white-space:normal;shape-padding:0;clip-rule:nonzero;display:inline;overflow:visible;visibility:visible;opacity:1;isolation:auto;mix-blend-mode:normal;color-interpolation:sRGB;color-interpolation-filters:linearRGB;solid-color:#000000;solid-opacity:1;vector-effect:none;fill:#000000;fill-opacity:1;fill-rule:nonzero;stroke:none;stroke-width:25.16016006;stroke-linecap:butt;stroke-linejoin:miter;stroke-miterlimit:4;stroke-dasharray:none;stroke-dashoffset:0;stroke-opacity:1;color-rendering:auto;image-rendering:auto;shape-rendering:auto;text-rendering:auto;enable-background:accumulate"
     d="m 247.04102,2.96681 c -22.74753,-1.70768 -46.85765,14.00223 -55.86914,43.80078 -0.80247,2.65353 -0.8034,3.5724 -1.14454,5.81836 -0.34113,2.24595 -0.72859,5.08725 -1.16796,8.51172 -0.87876,6.84893 -1.95907,15.99912 -3.17188,26.72656 -2.42562,21.45488 -5.37537,49.18744 -8.2168,76.88672 -2.84142,27.69928 -5.57444,55.3539 -7.5625,76.64843 -0.99403,10.64727 -1.80221,19.69984 -2.34765,26.41602 -0.27272,3.35809 -0.47892,6.12387 -0.61328,8.27734 -0.13437,2.15348 -0.33177,2.72853 -0.13086,5.53907 -0.0186,-0.25967 0.15484,9.96583 0.12695,21.89453 -0.0279,11.9287 -0.12057,27.09084 -0.23242,41.99414 -0.11334,15.10056 -0.16052,18.71471 -0.26367,29.67773 -1.8244,-4.82311 -3.76955,-10.33099 -5.79102,-16.45898 -7.84839,-23.79207 -16.83784,-56.1104 -25.46484,-89.0625 -8.627,-32.95211 -16.91221,-66.58292 -23.49024,-93.33985 -6.57802,-26.75692 -10.95429,-45.26105 -13.488279,-52.9121 l -0.173829,-0.51954 -0.216796,-0.5039 C 89.707306,103.53707 79.518525,91.06563 67.369141,84.49806 55.219757,77.93048 41.578151,78.40416 30.947266,83.17579 20.316381,87.94743 12.145274,96.30124 6.8945312,105.98829 c -5.2507423,9.68705 -7.82834559,21.17923 -4.453125,32.53125 L 2.2949219,137.97852 C 16.320037,194.21048 27.773438,334.3086 27.773438,334.3086 l 0.128906,1.62696 0.541015,1.54101 c 29.803292,85.03199 29.083985,141.15625 29.083985,141.15625 -1.223817,95.88491 29.064453,210.91992 29.064453,210.91992 l 0.193359,0.74219 0.28125,0.71094 C 125.80806,788.9609 131.1505,863.8557 127.12305,914.0176 c -4.02745,50.1619 -16.84571,74.4297 -16.84571,74.4297 L 132.62695,1000 c 0,0 15.2431,-30.0247 19.57422,-83.9687 4.31803,-53.781 -1.65305,-132.5038 -41.39453,-233.37113 -0.4124,-1.60379 -29.270741,-114.12918 -28.121093,-203.73438 v -0.0137 -0.0156 c 0,0 0.434298,-60.52138 -29.953125,-148.04492 C 52.394368,326.48358 42.004268,193.223 26.707031,131.89063 l -0.06836,-0.27343 -0.08008,-0.26758 c -0.897422,-3.01834 -0.33228,-8.23068 2.455078,-13.37305 2.787358,-5.14237 7.550759,-9.74455 12.236328,-11.84765 4.685569,-2.10311 8.741262,-2.42417 14.154297,0.50195 5.343378,2.88846 12.463132,10.12141 19.052734,25.16797 1.092502,3.39699 6.295092,24.00149 12.810547,50.5039 6.580497,26.76699 14.894455,60.51608 23.583985,93.70704 8.68953,33.19095 17.73227,65.77939 25.91016,90.57031 4.08894,12.39546 7.9181,22.79049 11.65234,30.76562 1.86712,3.98757 3.64721,7.3529 5.92383,10.44727 2.27663,3.09437 4.83044,7.48371 12.90039,8.2168 l 0.14063,0.0137 23.83007,1.62304 0.13868,-13.32617 c 0,0 0.29937,-28.79742 0.52343,-58.65039 0.11204,-14.92648 0.20434,-30.1153 0.23243,-42.125 0.0281,-12.0097 0.12761,-19.31026 -0.18946,-23.74609 0.12628,1.76649 0.0272,-0.29759 0.14453,-2.17774 0.11731,-1.88014 0.3147,-4.54282 0.58008,-7.81054 0.53076,-6.53545 1.33174,-15.52247 2.32031,-26.11133 1.97716,-21.17772 4.70407,-48.78524 7.53907,-76.42188 2.835,-27.63664 5.77995,-55.31465 8.18945,-76.62695 1.20475,-10.65615 2.27707,-19.72767 3.12695,-26.35156 0.42494,-3.31195 0.79677,-6.01885 1.08789,-7.93555 0.29113,-1.9167 0.79565,-3.77452 0.35352,-2.3125 6.3337,-20.94382 19.28685,-26.79091 29.90039,-25.99414 10.58769,0.79483 19.88246,7.52276 20.13086,24.76953 -0.0451,1.02001 -7.32283,165.6748 -5.36719,256.58594 -2.93914,55.62226 -15.15374,81.06588 -7.36523,111.47266 l 4.3164,16.8457 14.64844,-9.36914 c 0,0 2.78328,-2.12108 4.31055,-4.04492 1.52727,-1.92385 3.10096,-4.46856 4.66797,-7.9375 2.97846,-6.59351 5.96621,-16.73614 8.27539,-32.76172 3.39601,-6.95251 7.92287,-10.71612 13.55859,-12.9336 5.9505,-2.34133 13.36463,-2.67694 20.57813,-1.03906 7.21349,1.63788 14.05192,5.26475 18.57226,9.57813 4.48751,4.28204 6.5925,8.72023 6.64258,13.28906 -0.0491,0.69247 -0.28633,3.91814 -0.44727,8.59961 -0.1772,5.1546 -0.46305,10.52842 0.48047,16.18554 l 2.7461,16.4629 15.07031,-7.17383 c 0,0 8.06253,-3.66484 17.81445,-1.33985 9.67593,2.30688 22.43935,9.69297 31.58789,42.41992 4.3024,29.43096 -2.08379,57.67989 6.41602,91.98047 l 0.043,0.17383 0.0469,0.17383 c 0,0 34.84973,127.49354 2.10742,242.86722 -16.92897,59.6524 -27.84214,89.4665 -34.84961,114.0898 -7.00746,24.6233 -9.80859,44.1379 -9.80859,79.0625 h 25.16016 c 0,-33.6839 2.27245,-49.0714 8.84765,-72.1758 6.57521,-23.1043 17.75313,-53.8441 34.85547,-114.1074 35.06098,-123.54391 -1.44318,-254.21945 -1.98242,-256.13671 l -0.002,-0.008 c -6.94957,-28.05452 -0.70767,-55.4038 -6.03906,-90.43555 l -0.11133,-0.72656 -0.19532,-0.71094 c -10.68902,-38.94973 -31.37346,-56.44284 -50.24218,-60.94141 -6.06102,-1.44503 -11.70073,-1.57391 -16.67774,-1.17578 0.14114,-2.8535 0.31836,-6.125 0.31836,-6.125 l 0.0352,-0.48437 -0.002,-0.48438 c -0.0546,-12.54794 -6.13395,-23.5516 -14.44532,-31.48242 -8.31136,-7.93082 -18.94377,-13.31789 -30.36914,-15.91211 -11.42537,-2.59422 -23.81768,-2.37877 -35.36328,2.16406 -4.27943,1.68382 -8.29249,4.22941 -12.09375,7.18164 1.58988,-12.42672 3.12191,-26.386 4.04102,-44.01953 l 0.0234,-0.46484 -0.01,-0.4668 c -1.96128,-89.00964 5.36523,-256.15234 5.36523,-256.15234 l 0.0156,-0.35156 -0.006,-0.35157 C 290.12279,24.48956 269.78854,4.67448 247.04102,2.96681 Z"
     id="path6807"
     inkscape:connector-curvature="0" />
  <path
     style="color:#000000;font-style:normal;font-variant:normal;font-weight:normal;font-stretch:normal;font-size:medium;line-height:normal;font-family:sans-serif;font-variant-ligatures:normal;font-variant-position:normal;font-variant-caps:normal;font-variant-numeric:normal;font-variant-alternates:normal;font-feature-settings:normal;text-indent:0;text-align:start;text-decoration:none;text-decoration-line:none;text-decoration-style:solid;text-decoration-color:#000000;letter-spacing:normal;word-spacing:normal;text-transform:none;writing-mode:lr-tb;direction:ltr;text-orientation:mixed;dominant-baseline:auto;baseline-shift:baseline;text-anchor:start;white-space:normal;shape-padding:0;clip-rule:nonzero;display:inline;overflow:visible;visibility:visible;opacity:1;isolation:auto;mix-blend-mode:normal;color-interpolation:sRGB;color-interpolation-filters:linearRGB;solid-color:#000000;solid-opacity:1;vector-effect:none;fill:#000000;fill-opacity:1;fill-rule:nonzero;stroke:none;stroke-width:25.16016006;stroke-linecap:butt;stroke-linejoin:miter;stroke-miterlimit:4;stroke-dasharray:none;stroke-dashoffset:0;stroke-opacity:1;color-rendering:auto;image-rendering:auto;shape-rendering:auto;text-rendering:auto;enable-background:accumulate"
     d="m 347.98828,414.99415 c -0.53099,28.67115 -4.45795,41.38902 -6.97461,50.81445 -3.27198,12.25432 0.66602,22.7168 0.66602,22.7168 l 23.65039,-8.58789 c 0,0 -1.12139,-3.46807 -0.008,-7.63867 2.32015,-8.68949 7.24807,-25.8344 7.82226,-56.83789 z"
     id="path6809"
     inkscape:connector-curvature="0" />
  <path
     style="color:#000000;font-style:normal;font-variant:normal;font-weight:normal;font-stretch:normal;font-size:medium;line-height:normal;font-family:sans-serif;font-variant-ligatures:normal;font-variant-position:normal;font-variant-caps:normal;font-variant-numeric:normal;font-variant-alternates:normal;font-feature-settings:normal;text-indent:0;text-align:start;text-decoration:none;text-decoration-line:none;text-decoration-style:solid;text-decoration-color:#000000;letter-spacing:normal;word-spacing:normal;text-transform:none;writing-mode:lr-tb;direction:ltr;text-orientation:mixed;dominant-baseline:auto;baseline-shift:baseline;text-anchor:start;white-space:normal;shape-padding:0;clip-rule:nonzero;display:inline;overflow:visible;visibility:visible;opacity:1;isolation:auto;mix-blend-mode:normal;color-interpolation:sRGB;color-interpolation-filters:linearRGB;solid-color:#000000;solid-opacity:1;vector-effect:none;fill:#000000;fill-opacity:1;fill-rule:nonzero;stroke:none;stroke-width:12.58008003;stroke-linecap:butt;stroke-linejoin:miter;stroke-miterlimit:4;stroke-dasharray:none;stroke-dashoffset:0;stroke-opacity:1;color-rendering:auto;image-rendering:auto;shape-rendering:auto;text-rendering:auto;enable-background:accumulate"
     d="m 46.214844,100.57032 c -1.990596,0.0106 -3.887461,0.21173 -5.695313,0.59375 -7.231406,1.52809 -12.466806,6.05697 -15.654297,10.85156 -6.37498,9.58919 -6.349609,20.73438 -6.349609,20.73438 l -0.02734,1.04687 0.314453,1 c 3.588245,11.43443 9.155516,19.51055 16.095704,24.07813 6.940187,4.56758 15.416892,5.14501 22.267578,1.75781 13.701371,-6.77439 20.181047,-26.24867 12.980468,-50.83008 l -0.796875,-2.7207 -2.564453,-1.20508 c -7.783356,-3.65724 -14.598528,-5.33855 -20.570316,-5.30664 z m 0.107422,12.58203 c 3.080797,-0.008 7.233569,0.89429 12.410156,3.01758 4.716855,19.14573 -1.422748,30.35748 -7.142578,33.18555 -3.002744,1.48465 -6.031773,1.47552 -9.775391,-0.98828 -3.580631,-2.35654 -7.634351,-7.50585 -10.583984,-16.22852 0.114079,-1.36838 0.753825,-8.10788 4.111328,-13.1582 1.854466,-2.78947 4.052172,-4.72022 7.779297,-5.50781 0.931781,-0.1969 1.993922,-0.31726 3.201172,-0.32032 z"
     id="path6842"
     inkscape:connector-curvature="0" />
  <path
     style="color:#000000;font-style:normal;font-variant:normal;font-weight:normal;font-stretch:normal;font-size:medium;line-height:normal;font-family:sans-serif;font-variant-ligatures:normal;font-variant-position:normal;font-variant-caps:normal;font-variant-numeric:normal;font-variant-alternates:normal;font-feature-settings:normal;text-indent:0;text-align:start;text-decoration:none;text-decoration-line:none;text-decoration-style:solid;text-decoration-color:#000000;letter-spacing:normal;word-spacing:normal;text-transform:none;writing-mode:lr-tb;direction:ltr;text-orientation:mixed;dominant-baseline:auto;baseline-shift:baseline;text-anchor:start;white-space:normal;shape-padding:0;clip-rule:nonzero;display:inline;overflow:visible;visibility:visible;opacity:1;isolation:auto;mix-blend-mode:normal;color-interpolation:sRGB;color-interpolation-filters:linearRGB;solid-color:#000000;solid-opacity:1;vector-effect:none;fill:#000000;fill-opacity:1;fill-rule:nonzero;stroke:none;stroke-width:12.58008003;stroke-linecap:butt;stroke-linejoin:miter;stroke-miterlimit:4;stroke-dasharray:none;stroke-dashoffset:0;stroke-opacity:1;color-rendering:auto;image-rendering:auto;shape-rendering:auto;text-rendering:auto;enable-background:accumulate"
     d="m 242.14062,26.47267 c -8.77421,-0.08 -18.98481,2.66403 -29.61718,10.4414 l -2.22461,1.62891 -0.31055,2.73828 c -1.62248,14.26256 0.49136,25.89564 5.36524,34.4707 4.87388,8.57507 12.79658,14.00277 21.43164,14.72266 8.63506,0.71989 17.45498,-3.23836 24.16015,-10.87695 6.70518,-7.6386 11.5327,-18.89156 13.37891,-33.67969 l 0.32812,-2.63477 -1.6582,-2.07422 c 0,0 -6.12815,-7.73426 -16.82812,-12.01757 -4.0125,-1.60625 -8.76087,-2.67075 -14.0254,-2.71875 z m -0.18359,12.33007 c 3.59066,0.0924 6.74171,0.9509 9.5332,2.06836 5.16762,2.06865 8.08425,4.64339 9.81641,6.375 -1.84132,11.23039 -5.58161,19.23064 -9.81445,24.05274 -4.60619,5.2474 -9.4451,6.99219 -13.66211,6.64062 -4.21701,-0.35156 -8.3391,-2.7689 -11.54102,-8.40234 -2.94099,-5.17436 -4.73241,-13.27339 -3.94531,-24.03906 7.71675,-5.10017 14.19026,-6.83484 19.61328,-6.69532 z"
     id="path6842-1"
     inkscape:connector-curvature="0" />
  <path
     style="color:#000000;font-style:normal;font-variant:normal;font-weight:normal;font-stretch:normal;font-size:medium;line-height:normal;font-family:sans-serif;font-variant-ligatures:normal;font-variant-position:normal;font-variant-caps:normal;font-variant-numeric:normal;font-variant-alternates:normal;font-feature-settings:normal;text-indent:0;text-align:start;text-decoration:none;text-decoration-line:none;text-decoration-style:solid;text-decoration-color:#000000;letter-spacing:normal;word-spacing:normal;text-transform:none;writing-mode:lr-tb;direction:ltr;text-orientation:mixed;dominant-baseline:auto;baseline-shift:baseline;text-anchor:start;white-space:normal;shape-padding:0;clip-rule:nonzero;display:inline;overflow:visible;visibility:visible;opacity:1;isolation:auto;mix-blend-mode:normal;color-interpolation:sRGB;color-interpolation-filters:linearRGB;solid-color:#000000;solid-opacity:1;vector-effect:none;fill:#000000;fill-opacity:1;fill-rule:nonzero;stroke:none;stroke-width:10;stroke-linecap:butt;stroke-linejoin:miter;stroke-miterlimit:4;stroke-dasharray:none;stroke-dashoffset:0;stroke-opacity:1;color-rendering:auto;image-rendering:auto;shape-rendering:auto;text-rendering:auto;enable-background:accumulate"
     d="m 160.01758,532.01173 c -23.7319,27.96973 -54.86524,15.93164 -54.86524,15.93164 l -3.45703,9.38476 c 0,0 38.42493,13.58939 65.94727,-18.84765 z"
     id="path3720"
     inkscape:connector-curvature="0" />
  <path
     style="color:#000000;font-style:normal;font-variant:normal;font-weight:normal;font-stretch:normal;font-size:medium;line-height:normal;font-family:sans-serif;font-variant-ligatures:normal;font-variant-position:normal;font-variant-caps:normal;font-variant-numeric:normal;font-variant-alternates:normal;font-feature-settings:normal;text-indent:0;text-align:start;text-decoration:none;text-decoration-line:none;text-decoration-style:solid;text-decoration-color:#000000;letter-spacing:normal;word-spacing:normal;text-transform:none;writing-mode:lr-tb;direction:ltr;text-orientation:mixed;dominant-baseline:auto;baseline-shift:baseline;text-anchor:start;white-space:normal;shape-padding:0;clip-rule:nonzero;display:inline;overflow:visible;visibility:visible;opacity:1;isolation:auto;mix-blend-mode:normal;color-interpolation:sRGB;color-interpolation-filters:linearRGB;solid-color:#000000;solid-opacity:1;vector-effect:none;fill:#000000;fill-opacity:1;fill-rule:nonzero;stroke:none;stroke-width:10;stroke-linecap:butt;stroke-linejoin:miter;stroke-miterlimit:4;stroke-dasharray:none;stroke-dashoffset:0;stroke-opacity:1;color-rendering:auto;image-rendering:auto;shape-rendering:auto;text-rendering:auto;enable-background:accumulate"
     d="m 240.62695,528.27149 c -9.11688,10.30604 -20.303,10.34109 -30.40429,7.8418 -10.10129,-2.49929 -17.96485,-7.75586 -17.96485,-7.75586 l -5.59961,8.28516 c 0,0 9.06849,6.1855 21.16211,9.17773 12.09363,2.99224 28.36291,2.5687 40.29688,-10.92187 z"
     id="path3722"
     inkscape:connector-curvature="0" />
  <path
     style="color:#000000;font-style:normal;font-variant:normal;font-weight:normal;font-stretch:normal;font-size:medium;line-height:normal;font-family:sans-serif;font-variant-ligatures:normal;font-variant-position:normal;font-variant-caps:normal;font-variant-numeric:normal;font-variant-alternates:normal;font-feature-settings:normal;text-indent:0;text-align:start;text-decoration:none;text-decoration-line:none;text-decoration-style:solid;text-decoration-color:#000000;letter-spacing:normal;word-spacing:normal;text-transform:none;writing-mode:lr-tb;direction:ltr;text-orientation:mixed;dominant-baseline:auto;baseline-shift:baseline;text-anchor:start;white-space:normal;shape-padding:0;clip-rule:nonzero;display:inline;overflow:visible;visibility:visible;opacity:1;isolation:auto;mix-blend-mode:normal;color-interpolation:sRGB;color-interpolation-filters:linearRGB;solid-color:#000000;solid-opacity:1;vector-effect:none;fill:#000000;fill-opacity:1;fill-rule:nonzero;stroke:none;stroke-width:10;stroke-linecap:butt;stroke-linejoin:miter;stroke-miterlimit:4;stroke-dasharray:none;stroke-dashoffset:0;stroke-opacity:1;color-rendering:auto;image-rendering:auto;shape-rendering:auto;text-rendering:auto;enable-background:accumulate"
     d="m 270.35156,534.98243 -6.19531,7.84961 c 0,0 9.18392,7.28496 21.85742,12.28125 12.67351,4.99629 29.76013,7.96962 44.45508,-2.00195 l -5.61523,-8.27344 c -10.93217,7.41825 -24.04878,5.35773 -35.17188,0.97266 -11.1231,-4.38507 -19.33008,-10.82813 -19.33008,-10.82813 z"
     id="path3724"
     inkscape:connector-curvature="0" />
  <path
     style="color:#000000;font-style:normal;font-variant:normal;font-weight:normal;font-stretch:normal;font-size:medium;line-height:normal;font-family:sans-serif;font-variant-ligatures:normal;font-variant-position:normal;font-variant-caps:normal;font-variant-numeric:normal;font-variant-alternates:normal;font-feature-settings:normal;text-indent:0;text-align:start;text-decoration:none;text-decoration-line:none;text-decoration-style:solid;text-decoration-color:#000000;letter-spacing:normal;word-spacing:normal;text-transform:none;writing-mode:lr-tb;direction:ltr;text-orientation:mixed;dominant-baseline:auto;baseline-shift:baseline;text-anchor:start;white-space:normal;shape-padding:0;clip-rule:nonzero;display:inline;overflow:visible;visibility:visible;opacity:1;isolation:auto;mix-blend-mode:normal;color-interpolation:sRGB;color-interpolation-filters:linearRGB;solid-color:#000000;solid-opacity:1;vector-effect:none;fill:#000000;fill-opacity:1;fill-rule:nonzero;stroke:none;stroke-width:10;stroke-linecap:butt;stroke-linejoin:miter;stroke-miterlimit:4;stroke-dasharray:none;stroke-dashoffset:0;stroke-opacity:1;color-rendering:auto;image-rendering:auto;shape-rendering:auto;text-rendering:auto;enable-background:accumulate"
     d="m 358.2168,569.76173 -6.19727,7.84961 c 0,0 9.14842,7.26234 21.46875,12.26367 12.32034,5.00132 28.89474,8.05984 42.31641,-2.14063 l -6.05078,-7.96093 c -9.4597,7.18936 -21.71408,5.21597 -32.50391,0.83593 -10.78983,-4.38003 -19.0332,-10.84765 -19.0332,-10.84765 z"
     id="path3726"
     inkscape:connector-curvature="0" />
  <path
     style="font-style:normal;font-weight:normal;font-size:233.33332825px;line-height:1.25;font-family:sans-serif;letter-spacing:0px;word-spacing:0px;fill:#000000;fill-opacity:1;stroke:none"
     d="M 240.92969 1076.8223 C 232.4987 1076.8223 223.76519 1077.9243 214.72656 1080.127 C 205.76389 1082.3296 198.58615 1084.7595 193.19336 1087.418 L 193.19336 1111.3438 L 194.33203 1111.3438 C 202.00347 1106.3307 209.8648 1102.6102 217.91602 1100.1797 C 225.96723 1097.7491 233.44944 1096.5332 240.36133 1096.5332 C 250.76714 1096.5332 258.85634 1099.0397 264.62891 1104.0527 C 270.47743 1108.9898 273.40039 1115.8631 273.40039 1124.6738 C 273.40039 1134.3201 270.7053 1143.3207 265.3125 1151.6758 C 259.9197 1159.9549 249.93099 1171.1595 235.34766 1185.2871 C 228.43576 1192.0471 220.95356 1198.8438 212.90234 1205.6797 L 188.97656 1226.1875 L 188.97656 1250 L 303.82031 1250 L 303.82031 1230.5176 L 212.56055 1230.5176 C 220.08008 1224.1374 228.16927 1217.2248 236.82812 1209.7812 C 245.48698 1202.2617 253.88064 1194.5143 262.00781 1186.5391 C 267.70443 1180.9944 272.52691 1175.944 276.47656 1171.3867 C 280.50217 1166.8294 283.99674 1162.1955 286.95898 1157.4863 C 290.14909 1152.4733 292.54167 1147.1951 294.13672 1141.6504 C 295.80773 1136.0297 296.64258 1129.9913 296.64258 1123.5352 C 296.64258 1109.1797 291.70616 1097.8238 281.83203 1089.4688 C 271.9579 1081.0378 258.32335 1076.8223 240.92969 1076.8223 z "
     id="text148" />
</svg>
