<?xml version="1.0" encoding="UTF-8" standalone="no"?>
<!-- Created with Inkscape (http://www.inkscape.org/) -->

<svg
   xmlns:dc="http://purl.org/dc/elements/1.1/"
   xmlns:cc="http://creativecommons.org/ns#"
   xmlns:rdf="http://www.w3.org/1999/02/22-rdf-syntax-ns#"
   xmlns:svg="http://www.w3.org/2000/svg"
   xmlns="http://www.w3.org/2000/svg"
   xmlns:sodipodi="http://sodipodi.sourceforge.net/DTD/sodipodi-0.dtd"
   xmlns:inkscape="http://www.inkscape.org/namespaces/inkscape"
   version="1.1"
   id="svg5600"
   width="1000"
   height="1250"
   viewBox="0 0 1000 1250"
   sodipodi:docname="7.svg"
   inkscape:version="0.92.4 (5da689c313, 2019-01-14)">
  <metadata
     id="metadata5606">
    <rdf:RDF>
      <cc:Work
         rdf:about="">
        <dc:format>image/svg+xml</dc:format>
        <dc:type
           rdf:resource="http://purl.org/dc/dcmitype/StillImage" />
        <dc:title></dc:title>
      </cc:Work>
    </rdf:RDF>
  </metadata>
  <defs
     id="defs5604">
    <clipPath
       clipPathUnits="userSpaceOnUse"
       id="clipPath5612">
      <rect
         style="opacity:1;fill:#00000a;fill-opacity:0.04705882;stroke:#000000;stroke-width:15;stroke-miterlimit:4;stroke-dasharray:none;stroke-opacity:1"
         id="rect5614"
         width="985"
         height="985"
         x="260.11023"
         y="161.26276"
         transform="rotate(-90)" />
    </clipPath>
  </defs>
  <sodipodi:namedview
     pagecolor="#ffffff"
     bordercolor="#666666"
     borderopacity="1"
     objecttolerance="10"
     gridtolerance="10"
     guidetolerance="10"
     inkscape:pageopacity="0"
     inkscape:pageshadow="2"
     inkscape:window-width="1366"
     inkscape:window-height="715"
     id="namedview5602"
     showgrid="false"
     inkscape:zoom="0.38628982"
     inkscape:cx="685.55682"
     inkscape:cy="535.14"
     inkscape:window-x="-8"
     inkscape:window-y="-8"
     inkscape:window-maximized="1"
     inkscape:current-layer="svg5600" />
  <path
     style="color:#000000;font-style:normal;font-variant:normal;font-weight:normal;font-stretch:normal;font-size:medium;line-height:normal;font-family:sans-serif;font-variant-ligatures:normal;font-variant-position:normal;font-variant-caps:normal;font-variant-numeric:normal;font-variant-alternates:normal;font-feature-settings:normal;text-indent:0;text-align:start;text-decoration:none;text-decoration-line:none;text-decoration-style:solid;text-decoration-color:#000000;letter-spacing:normal;word-spacing:normal;text-transform:none;writing-mode:lr-tb;direction:ltr;text-orientation:mixed;dominant-baseline:auto;baseline-shift:baseline;text-anchor:start;white-space:normal;shape-padding:0;clip-rule:nonzero;display:inline;overflow:visible;visibility:visible;opacity:1;isolation:auto;mix-blend-mode:normal;color-interpolation:sRGB;color-interpolation-filters:linearRGB;solid-color:#000000;solid-opacity:1;vector-effect:none;fill:#000000;fill-opacity:1;fill-rule:nonzero;stroke:none;stroke-width:25.16345596;stroke-linecap:butt;stroke-linejoin:miter;stroke-miterlimit:4;stroke-dasharray:none;stroke-dashoffset:0;stroke-opacity:1;color-rendering:auto;image-rendering:auto;shape-rendering:auto;text-rendering:auto;enable-background:accumulate"
     d="M 488.75391,3.3472911 472.86719,22.862911 c 59.21477,48.20366 94.40876,83.769689 114.15234,107.345709 9.87179,11.78801 15.8895,20.62566 19.02344,26.18945 1.32321,2.34914 1.8615,3.70919 2.20898,4.61523 l 0.21875,2.01954 c 11.97165,111.01171 36.90767,187.9565 59.09766,237.36328 22.18999,49.40677 42.4375,72.16015 42.4375,72.16015 l -0.67383,-0.81445 c 9.08683,11.97123 27.28384,32.26031 33.96094,47.4375 3.33855,7.58859 3.05884,11.64744 2.09375,13.20898 -0.96509,1.56155 -5.85374,5.63295 -21.95703,6.63477 -65.1708,4.05443 -98.54164,-25.2119 -118.32617,-56.19922 -9.89227,-15.49366 -15.93225,-31.50673 -19.42383,-43.53516 -1.74579,-6.01421 -2.8584,-11.02589 -3.53125,-14.47265 -0.33643,-1.72338 -0.56404,-3.05235 -0.70703,-3.94141 -0.0715,-0.44453 -0.12119,-0.77297 -0.16016,-1.02929 -0.0195,-0.12817 -0.0314,-0.22196 -0.0606,-0.40235 -0.0146,-0.0902 -0.0232,-0.15974 -0.0918,-0.50586 -0.0318,-0.16041 -0.0568,-0.36276 -0.27735,-1.11328 h 0.004 c -0.004,-0.015 -0.009,-0.0241 -0.0137,-0.0391 -0.0104,-0.0349 -4e-4,-0.0113 -0.0117,-0.0488 -7e-5,-2.3e-4 -0.004,2.3e-4 -0.004,0 -8.44225,-28.74658 -16.66125,-42.02855 -28.25781,-48.14648 -5.80505,-3.06254 -12.38109,-3.16236 -16.75,-1.84961 -4.36891,1.31274 -7.66211,4.25195 -7.66211,4.25195 l -3.16211,2.91602 -19.68164,117.01953 -0.0234,0.16211 c -11.0055,77.67956 -26.0469,174.34045 -42.83008,260.67579 -16.78317,86.3353 -35.93419,163.1646 -52.62304,197.3965 l -0.40625,0.8301 -0.27735,0.8808 c -3.64895,11.5079 -8.98197,17.2229 -14.33593,20.2207 -5.35397,2.9978 -11.35937,3.4831 -17.42383,1.875 -12.12892,-3.2161 -22.1499,-14.307 -20.26367,-27.789 l 0.38671,-2.7657 -0.27929,-0.9101 c 0.0535,-0.8275 0.14414,-1.98 0.3125,-3.6094 0.37843,-3.6626 1.02981,-8.9936 1.88672,-15.5567 1.71382,-13.126 4.2499,-31.2408 7.13281,-51.9511 5.76581,-41.4207 12.92473,-93.2425 17.77344,-137.18361 l 2.72659,-24.71679 -21.5293,12.44336 c -45.73894,26.43653 -69.61056,20.59808 -84.09961,11.12109 -14.48904,-9.47699 -19.78515,-24.58398 -19.78515,-24.58398 l -4.4961,-13.42383 -12.80273,6.03906 c -29.80825,14.0625 -48.87823,14.4322 -61.24024,9.92969 -12.362,-4.5025 -20.2033,-14.51261 -25.73242,-27.46484 -5.52911,-12.95223 -8.02624,-28.17232 -9.22461,-39.34375 -0.59918,-5.58572 -0.87525,-10.00489 -1.23242,-13.38672 -0.0893,-0.84546 -0.17856,-1.62706 -0.33789,-2.55469 -0.15933,-0.92763 0.006,-1.65956 -1.41016,-4.48047 -0.70814,-1.41045 -1.81976,-4.39253 -7.01562,-6.31836 -3.63364,-1.3468 -7.70025,-0.29503 -10.51563,1.08203 -27.684705,7.3768 -43.691746,2.84002 -55.134761,-6.71093 -11.749346,-9.80663 -19.358248,-27.13451 -23.308594,-46.8711 -7.900692,-39.47316 -1.089844,-85.25976 -1.089844,-85.25976 l 0.316407,-2.02344 -0.34375,-2.02148 C 3.0766414,210.70887 42.341797,12.712521 42.341797,12.712521 L 17.658203,7.8199411 c 0,0 -39.908766,201.6978689 5.318359,470.0878989 -0.835002,5.51125 -7.018981,49.16842 1.552735,91.99414 4.573388,22.8494 13.420482,45.85991 31.859375,61.25 15.919737,13.28746 38.591558,19.09628 66.605468,14.18164 0.068,0.67829 0.0663,0.84177 0.14258,1.55273 1.31887,12.29481 3.92157,29.71695 11.10351,46.54102 7.18195,16.82406 19.66267,33.7259 40.26172,41.22851 18.21552,6.63448 41.09215,5.37811 69.27344,-5.90625 4.6017,7.7707 12.07199,17.62905 23.89063,25.35943 19.09922,12.4924 48.95754,17.4118 88.82421,0.4355 -4.55399,38.0079 -10.0479,78.9064 -14.8457,113.373 -2.88132,20.699 -5.41876,38.8249 -7.16015,52.1622 -0.8707,6.6686 -1.54259,12.1229 -1.9668,16.2285 -0.21211,2.0528 -0.36419,3.7491 -0.44727,5.2597 -0.0415,0.7554 -0.0691,1.4531 -0.0566,2.2911 0.005,0.3678 -0.0326,0.718 -0.0156,1.1933 -2.38423,26.0756 16.49599,47.2856 38.94531,53.2383 11.56344,3.06624 24.64264,2.21304 36.16797,-4.2402 11.32954,-6.3437 20.52767,-17.9254 25.73828,-33.7715 19.51048,-40.5454 37.50846,-116.2784 54.31055,-202.711 16.90616,-86.96799 31.97797,-183.85715 43.02148,-261.79294 l 16.21484,-96.40429 c 2.86642,4.93094 6.48138,12.70593 10.10743,24.90039 0.0318,0.20499 0.0506,0.33141 0.0937,0.59961 0.1787,1.11109 0.45622,2.73044 0.85351,4.76562 0.79459,4.07037 2.07507,9.81264 4.06445,16.66602 3.97877,13.70675 10.77079,31.88444 22.37696,50.0625 23.21234,36.3561 67.50398,72.35199 141.09961,67.77343 19.90124,-1.2381 34.41622,-6.5711 41.80078,-18.51953 7.38455,-11.94842 4.40056,-25.50421 -0.46875,-36.57226 -9.73863,-22.13611 -29.97454,-43.3309 -36.94922,-52.51953 l -0.32031,-0.42188 -0.35547,-0.39258 c 0,0 -17.09987,-18.69441 -38.17774,-65.625 -20.95998,-46.66811 -45.03352,-120.44912 -56.8125,-228.0039 0.0509,-1.02777 0.0565,-2.03914 -0.01,-2.81641 -0.17353,-2.03426 -0.59054,-3.5868 -1.09961,-5.1582 -1.01815,-3.14281 -2.50959,-6.29111 -4.63281,-10.06055 -4.24646,-7.53887 -11.06421,-17.34802 -21.65625,-29.99609 C 585.12645,88.756221 548.87829,52.291411 488.75391,3.3472911 Z M 121.78711,632.52112 c -0.002,-0.009 0.0387,0.32615 0.0664,0.54492 -0.1071,-0.41409 -0.0649,-0.5363 -0.0664,-0.54492 z m 23.34375,1.69726 c -0.0374,0.10873 -0.0163,0.50399 -0.45117,1.31446 z m 212.07031,308.68748 c 0.0349,0.4116 -0.0282,0.522 -0.0273,0.5801 0.002,0.1092 0.002,-0.1393 0.0234,-0.5352 4.8e-4,-0.01 0.003,-0.036 0.004,-0.045 z"
     id="path5618"
     inkscape:connector-curvature="0" />
  <path
     style="color:#000000;font-style:normal;font-variant:normal;font-weight:normal;font-stretch:normal;font-size:medium;line-height:normal;font-family:sans-serif;font-variant-ligatures:normal;font-variant-position:normal;font-variant-caps:normal;font-variant-numeric:normal;font-variant-alternates:normal;font-feature-settings:normal;text-indent:0;text-align:start;text-decoration:none;text-decoration-line:none;text-decoration-style:solid;text-decoration-color:#000000;letter-spacing:normal;word-spacing:normal;text-transform:none;writing-mode:lr-tb;direction:ltr;text-orientation:mixed;dominant-baseline:auto;baseline-shift:baseline;text-anchor:start;white-space:normal;shape-padding:0;clip-rule:nonzero;display:inline;overflow:visible;visibility:visible;opacity:1;isolation:auto;mix-blend-mode:normal;color-interpolation:sRGB;color-interpolation-filters:linearRGB;solid-color:#000000;solid-opacity:1;vector-effect:none;fill:#000000;fill-opacity:1;fill-rule:nonzero;stroke:none;stroke-width:25.16345596;stroke-linecap:butt;stroke-linejoin:miter;stroke-miterlimit:4;stroke-dasharray:none;stroke-dashoffset:0;stroke-opacity:1;color-rendering:auto;image-rendering:auto;shape-rendering:auto;text-rendering:auto;enable-background:accumulate"
     d="m 139.98633,478.19494 -23.47071,9.07618 c 10.22257,26.43808 11.75235,61.99182 10.20118,90.56054 -1.55117,28.56872 -5.82032,49.81836 -5.82032,49.81836 l 24.66993,4.95703 c 0,0 4.62635,-23.00496 6.27734,-53.41211 1.65099,-30.40714 0.68944,-68.55073 -11.85742,-101 z"
     id="path5620"
     inkscape:connector-curvature="0" />
  <path
     style="color:#000000;font-style:normal;font-variant:normal;font-weight:normal;font-stretch:normal;font-size:medium;line-height:normal;font-family:sans-serif;font-variant-ligatures:normal;font-variant-position:normal;font-variant-caps:normal;font-variant-numeric:normal;font-variant-alternates:normal;font-feature-settings:normal;text-indent:0;text-align:start;text-decoration:none;text-decoration-line:none;text-decoration-style:solid;text-decoration-color:#000000;letter-spacing:normal;word-spacing:normal;text-transform:none;writing-mode:lr-tb;direction:ltr;text-orientation:mixed;dominant-baseline:auto;baseline-shift:baseline;text-anchor:start;white-space:normal;shape-padding:0;clip-rule:nonzero;display:inline;overflow:visible;visibility:visible;opacity:1;isolation:auto;mix-blend-mode:normal;color-interpolation:sRGB;color-interpolation-filters:linearRGB;solid-color:#000000;solid-opacity:1;vector-effect:none;fill:#000000;fill-opacity:1;fill-rule:nonzero;stroke:none;stroke-width:25.16345596;stroke-linecap:butt;stroke-linejoin:miter;stroke-miterlimit:4;stroke-dasharray:none;stroke-dashoffset:0;stroke-opacity:1;color-rendering:auto;image-rendering:auto;shape-rendering:auto;text-rendering:auto;enable-background:accumulate"
     d="m 258.21289,535.09534 -21.51367,13.05078 c -0.15018,-0.24761 1.40589,3.64816 2.27148,9.12109 0.86559,5.47293 1.51758,12.7394 1.92383,20.98242 0.81249,16.48604 0.68928,36.93325 0.14063,56.72461 -1.0973,39.58273 -3.85938,76.54883 -3.85938,76.54883 l 25.09375,1.87695 c 0,0 2.80227,-37.41147 3.91992,-77.72851 0.55883,-20.15853 0.70612,-41.04327 -0.16211,-58.66016 -0.43411,-8.80844 -1.11161,-16.78672 -2.20117,-23.67578 -1.08956,-6.88906 -2.11466,-12.47194 -5.61328,-18.24023 z"
     id="path5622"
     inkscape:connector-curvature="0" />
  <path
     style="color:#000000;font-style:normal;font-variant:normal;font-weight:normal;font-stretch:normal;font-size:medium;line-height:normal;font-family:sans-serif;font-variant-ligatures:normal;font-variant-position:normal;font-variant-caps:normal;font-variant-numeric:normal;font-variant-alternates:normal;font-feature-settings:normal;text-indent:0;text-align:start;text-decoration:none;text-decoration-line:none;text-decoration-style:solid;text-decoration-color:#000000;letter-spacing:normal;word-spacing:normal;text-transform:none;writing-mode:lr-tb;direction:ltr;text-orientation:mixed;dominant-baseline:auto;baseline-shift:baseline;text-anchor:start;white-space:normal;shape-padding:0;clip-rule:nonzero;display:inline;overflow:visible;visibility:visible;opacity:1;isolation:auto;mix-blend-mode:normal;color-interpolation:sRGB;color-interpolation-filters:linearRGB;solid-color:#000000;solid-opacity:1;vector-effect:none;fill:#000000;fill-opacity:1;fill-rule:nonzero;stroke:none;stroke-width:25.16345596;stroke-linecap:butt;stroke-linejoin:miter;stroke-miterlimit:4;stroke-dasharray:none;stroke-dashoffset:0;stroke-opacity:1;color-rendering:auto;image-rendering:auto;shape-rendering:auto;text-rendering:auto;enable-background:accumulate"
     d="m 397.31836,544.58557 -25.15234,0.76172 c 1.10031,36.36707 -2.31458,84.87954 -6.03711,124.00195 -1.86127,19.56121 -3.79135,36.81328 -5.24805,49.16406 -0.72835,6.1754 -1.33871,11.12391 -1.76367,14.53516 -0.21248,1.70562 -0.37845,3.02384 -0.49219,3.9375 -0.0569,0.45683 -0.0991,0.80738 -0.13281,1.0918 -0.0169,0.14221 -0.0321,0.25637 -0.0508,0.43554 -0.009,0.0896 -0.0194,0.17147 -0.0391,0.43555 -0.01,0.13204 -0.0259,0.26027 -0.0332,0.76953 -0.007,0.50926 12.57964,12.76948 12.58008,12.76948 v -25.16401 c -4.4e-4,0 12.58731,12.25586 12.58008,12.75781 -0.007,0.50196 -0.0244,0.62081 -0.0332,0.73828 -0.0175,0.23495 -0.024,0.27307 -0.0273,0.30469 -0.007,0.0632 10e-4,0.005 0.0117,-0.082 0.0207,-0.17422 0.0604,-0.5089 0.11523,-0.94922 0.10963,-0.88063 0.2777,-2.21181 0.49219,-3.93359 0.42899,-3.44357 1.04665,-8.45432 1.7832,-14.69922 1.4731,-12.48981 3.42216,-29.92136 5.30664,-49.72656 3.76897,-39.6104 7.30791,-88.56804 6.14063,-127.14844 z"
     id="path5624"
     inkscape:connector-curvature="0" />
  <path
     style="color:#000000;font-style:normal;font-variant:normal;font-weight:normal;font-stretch:normal;font-size:medium;line-height:normal;font-family:sans-serif;font-variant-ligatures:normal;font-variant-position:normal;font-variant-caps:normal;font-variant-numeric:normal;font-variant-alternates:normal;font-feature-settings:normal;text-indent:0;text-align:start;text-decoration:none;text-decoration-line:none;text-decoration-style:solid;text-decoration-color:#000000;letter-spacing:normal;word-spacing:normal;text-transform:none;writing-mode:lr-tb;direction:ltr;text-orientation:mixed;dominant-baseline:auto;baseline-shift:baseline;text-anchor:start;white-space:normal;shape-padding:0;clip-rule:nonzero;display:inline;overflow:visible;visibility:visible;opacity:1;isolation:auto;mix-blend-mode:normal;color-interpolation:sRGB;color-interpolation-filters:linearRGB;solid-color:#000000;solid-opacity:1;vector-effect:none;fill:#000000;fill-opacity:1;fill-rule:nonzero;stroke:none;stroke-width:18.87259483;stroke-linecap:butt;stroke-linejoin:miter;stroke-miterlimit:4;stroke-dasharray:none;stroke-dashoffset:0;stroke-opacity:1;color-rendering:auto;image-rendering:auto;shape-rendering:auto;text-rendering:auto;enable-background:accumulate"
     d="m 356.14062,910.55626 -0.4375,10.2637 c -0.88387,20.6859 1.46661,35.0751 7.16407,45.2773 5.69745,10.2023 17.08686,15.4466 26.76172,13.0821 9.67485,-2.3646 17.09505,-9.6019 22.46289,-18.8438 5.36783,-9.2419 8.60492,-20.9337 8.02734,-33.6973 l -0.35742,-7.9238 z m 18.42774,21.3906 26.29102,3.3711 c -0.78251,5.915 -2.62518,11.299 -5.0879,15.5391 -3.51655,6.0545 -8.24015,9.4078 -10.62304,9.9902 -2.3829,0.5824 -2.96501,1.1303 -5.80274,-3.9511 -2.26063,-4.0481 -4.37855,-12.3597 -4.77734,-24.9493 z"
     id="path6202"
     inkscape:connector-curvature="0" />
  <path
     style="color:#000000;font-style:normal;font-variant:normal;font-weight:normal;font-stretch:normal;font-size:medium;line-height:normal;font-family:sans-serif;font-variant-ligatures:normal;font-variant-position:normal;font-variant-caps:normal;font-variant-numeric:normal;font-variant-alternates:normal;font-feature-settings:normal;text-indent:0;text-align:start;text-decoration:none;text-decoration-line:none;text-decoration-style:solid;text-decoration-color:#000000;letter-spacing:normal;word-spacing:normal;text-transform:none;writing-mode:lr-tb;direction:ltr;text-orientation:mixed;dominant-baseline:auto;baseline-shift:baseline;text-anchor:start;white-space:normal;shape-padding:0;clip-rule:nonzero;display:inline;overflow:visible;visibility:visible;opacity:1;isolation:auto;mix-blend-mode:normal;color-interpolation:sRGB;color-interpolation-filters:linearRGB;solid-color:#000000;solid-opacity:1;vector-effect:none;fill:#000000;fill-opacity:1;fill-rule:nonzero;stroke:none;stroke-width:18.87259293;stroke-linecap:butt;stroke-linejoin:miter;stroke-miterlimit:4;stroke-dasharray:none;stroke-dashoffset:0;stroke-opacity:1;color-rendering:auto;image-rendering:auto;shape-rendering:auto;text-rendering:auto;enable-background:accumulate"
     d="m 695.92578,440.52307 -45.38086,41.63672 6.78906,6.96484 c 0,0 18.05449,18.58279 39.58008,34.22852 10.7628,7.82286 22.34944,15.02641 33.99805,18.86133 5.8243,1.91746 11.74621,3.03256 17.78906,2.44336 6.04286,-0.58921 12.2595,-3.23498 16.82422,-8.03711 L 751.8457,523.61877 c -1.38661,1.45873 -2.58967,2.02332 -4.97461,2.25586 -2.38493,0.23254 -5.89875,-0.2184 -10.05859,-1.58789 -8.31967,-2.73898 -18.89248,-8.99602 -28.80273,-16.19922 -13.56327,-9.85837 -23.64432,-19.17783 -30.12305,-25.40234 l 30.79687,-28.25586 z"
     id="path6204"
     inkscape:connector-curvature="0" />
  <path
     style="color:#000000;font-style:normal;font-variant:normal;font-weight:normal;font-stretch:normal;font-size:medium;line-height:normal;font-family:sans-serif;font-variant-ligatures:normal;font-variant-position:normal;font-variant-caps:normal;font-variant-numeric:normal;font-variant-alternates:normal;font-feature-settings:normal;text-indent:0;text-align:start;text-decoration:none;text-decoration-line:none;text-decoration-style:solid;text-decoration-color:#000000;letter-spacing:normal;word-spacing:normal;text-transform:none;writing-mode:lr-tb;direction:ltr;text-orientation:mixed;dominant-baseline:auto;baseline-shift:baseline;text-anchor:start;white-space:normal;shape-padding:0;clip-rule:nonzero;display:inline;overflow:visible;visibility:visible;opacity:1;isolation:auto;mix-blend-mode:normal;color-interpolation:sRGB;color-interpolation-filters:linearRGB;solid-color:#000000;solid-opacity:1;vector-effect:none;fill:#000000;fill-opacity:1;fill-rule:nonzero;stroke:none;stroke-width:14.29617214;stroke-linecap:butt;stroke-linejoin:miter;stroke-miterlimit:4;stroke-dasharray:none;stroke-dashoffset:0;stroke-opacity:1;color-rendering:auto;image-rendering:auto;shape-rendering:auto;text-rendering:auto;enable-background:accumulate"
     d="m 440.00977,449.63049 c -15.76873,-0.72847 -34.24512,2.74434 -52.99805,15.72266 l 8.13672,11.75586 c 43.12062,-29.84244 81.66015,-1.70117 81.66015,-1.70117 l 8.24414,-11.67969 c 0,0 -18.76176,-12.88353 -45.04296,-14.09766 z"
     id="path3720"
     inkscape:connector-curvature="0" />
  <path
     style="color:#000000;font-style:normal;font-variant:normal;font-weight:normal;font-stretch:normal;font-size:medium;line-height:normal;font-family:sans-serif;font-variant-ligatures:normal;font-variant-position:normal;font-variant-caps:normal;font-variant-numeric:normal;font-variant-alternates:normal;font-feature-settings:normal;text-indent:0;text-align:start;text-decoration:none;text-decoration-line:none;text-decoration-style:solid;text-decoration-color:#000000;letter-spacing:normal;word-spacing:normal;text-transform:none;writing-mode:lr-tb;direction:ltr;text-orientation:mixed;dominant-baseline:auto;baseline-shift:baseline;text-anchor:start;white-space:normal;shape-padding:0;clip-rule:nonzero;display:inline;overflow:visible;visibility:visible;opacity:1;isolation:auto;mix-blend-mode:normal;color-interpolation:sRGB;color-interpolation-filters:linearRGB;solid-color:#000000;solid-opacity:1;vector-effect:none;fill:#000000;fill-opacity:1;fill-rule:nonzero;stroke:none;stroke-width:14.29617214;stroke-linecap:butt;stroke-linejoin:miter;stroke-miterlimit:4;stroke-dasharray:none;stroke-dashoffset:0;stroke-opacity:1;color-rendering:auto;image-rendering:auto;shape-rendering:auto;text-rendering:auto;enable-background:accumulate"
     d="m 306.60742,431.88049 c -10.28906,-0.65788 -21.31315,1.53585 -32.04883,8.64258 l 7.89063,11.92187 c 16.4029,-10.85829 31.86452,-6.76504 44.88867,0.42383 13.02415,7.18888 21.93945,17.35547 21.93945,17.35547 l 10.79688,-9.36914 c 0,0 -10.2332,-11.89713 -25.82617,-20.50391 -7.79649,-4.30339 -17.35156,-7.81282 -27.64063,-8.4707 z"
     id="path3722"
     inkscape:connector-curvature="0" />
  <path
     style="color:#000000;font-style:normal;font-variant:normal;font-weight:normal;font-stretch:normal;font-size:medium;line-height:normal;font-family:sans-serif;font-variant-ligatures:normal;font-variant-position:normal;font-variant-caps:normal;font-variant-numeric:normal;font-variant-alternates:normal;font-feature-settings:normal;text-indent:0;text-align:start;text-decoration:none;text-decoration-line:none;text-decoration-style:solid;text-decoration-color:#000000;letter-spacing:normal;word-spacing:normal;text-transform:none;writing-mode:lr-tb;direction:ltr;text-orientation:mixed;dominant-baseline:auto;baseline-shift:baseline;text-anchor:start;white-space:normal;shape-padding:0;clip-rule:nonzero;display:inline;overflow:visible;visibility:visible;opacity:1;isolation:auto;mix-blend-mode:normal;color-interpolation:sRGB;color-interpolation-filters:linearRGB;solid-color:#000000;solid-opacity:1;vector-effect:none;fill:#000000;fill-opacity:1;fill-rule:nonzero;stroke:none;stroke-width:14.29617214;stroke-linecap:butt;stroke-linejoin:miter;stroke-miterlimit:4;stroke-dasharray:none;stroke-dashoffset:0;stroke-opacity:1;color-rendering:auto;image-rendering:auto;shape-rendering:auto;text-rendering:auto;enable-background:accumulate"
     d="m 185.20312,381.89416 c -5.72586,0.013 -11.62756,0.92274 -17.62304,3.00586 l 4.6914,13.50586 c 17.84111,-6.19887 35.19228,1.49888 48.92969,11.66992 13.73741,10.17105 22.68555,22.10352 22.68555,22.10352 l 11.46094,-8.54492 c 0,0 -9.98647,-13.46008 -25.63868,-25.04883 -11.73915,-8.69156 -27.32825,-16.73038 -44.50586,-16.69141 z"
     id="path3724"
     inkscape:connector-curvature="0" />
  <path
     style="color:#000000;font-style:normal;font-variant:normal;font-weight:normal;font-stretch:normal;font-size:medium;line-height:normal;font-family:sans-serif;font-variant-ligatures:normal;font-variant-position:normal;font-variant-caps:normal;font-variant-numeric:normal;font-variant-alternates:normal;font-feature-settings:normal;text-indent:0;text-align:start;text-decoration:none;text-decoration-line:none;text-decoration-style:solid;text-decoration-color:#000000;letter-spacing:normal;word-spacing:normal;text-transform:none;writing-mode:lr-tb;direction:ltr;text-orientation:mixed;dominant-baseline:auto;baseline-shift:baseline;text-anchor:start;white-space:normal;shape-padding:0;clip-rule:nonzero;display:inline;overflow:visible;visibility:visible;opacity:1;isolation:auto;mix-blend-mode:normal;color-interpolation:sRGB;color-interpolation-filters:linearRGB;solid-color:#000000;solid-opacity:1;vector-effect:none;fill:#000000;fill-opacity:1;fill-rule:nonzero;stroke:none;stroke-width:14.29617214;stroke-linecap:butt;stroke-linejoin:miter;stroke-miterlimit:4;stroke-dasharray:none;stroke-dashoffset:0;stroke-opacity:1;color-rendering:auto;image-rendering:auto;shape-rendering:auto;text-rendering:auto;enable-background:accumulate"
     d="m 79.082031,302.03869 c -5.413691,0.13223 -10.956121,1.19469 -16.533203,3.47461 l 5.410156,13.23438 c 15.723088,-6.42763 31.916254,0.83227 45.195316,10.87305 13.27906,10.04077 22.26758,22.02148 22.26758,22.02148 l 11.46093,-8.54687 c 0,0 -9.94282,-13.41194 -25.10547,-24.87696 -11.37198,-8.59877 -26.454235,-16.57636 -42.695309,-16.17969 z"
     id="path3726"
     inkscape:connector-curvature="0" />
  <path
     style="font-style:normal;font-weight:normal;font-size:233.33332825px;line-height:1.25;font-family:sans-serif;letter-spacing:0px;word-spacing:0px;fill:#000000;fill-opacity:1;stroke:none"
     d="m 305.47013,1080.3535 v 19.9394 h 96.61523 L 320.39591,1250 h 24.38085 l 76.79103,-144.2383 v -25.4082 z"
     id="text465"
     inkscape:connector-curvature="0" />
</svg>
