<?xml version="1.0" encoding="UTF-8" standalone="no"?>
<!-- Created with Inkscape (http://www.inkscape.org/) -->

<svg
   xmlns:dc="http://purl.org/dc/elements/1.1/"
   xmlns:cc="http://creativecommons.org/ns#"
   xmlns:rdf="http://www.w3.org/1999/02/22-rdf-syntax-ns#"
   xmlns:svg="http://www.w3.org/2000/svg"
   xmlns="http://www.w3.org/2000/svg"
   xmlns:sodipodi="http://sodipodi.sourceforge.net/DTD/sodipodi-0.dtd"
   xmlns:inkscape="http://www.inkscape.org/namespaces/inkscape"
   version="1.1"
   id="svg8101"
   width="1000"
   height="1250"
   viewBox="0 0 1000 1250"
   sodipodi:docname="C.svg"
   inkscape:version="0.92.4 (5da689c313, 2019-01-14)">
  <metadata
     id="metadata8107">
    <rdf:RDF>
      <cc:Work
         rdf:about="">
        <dc:format>image/svg+xml</dc:format>
        <dc:type
           rdf:resource="http://purl.org/dc/dcmitype/StillImage" />
        <dc:title></dc:title>
      </cc:Work>
    </rdf:RDF>
  </metadata>
  <defs
     id="defs8105">
    <clipPath
       clipPathUnits="userSpaceOnUse"
       id="clipPath8113">
      <rect
         style="opacity:1;fill:#00000a;fill-opacity:0.04705882;stroke:#000000;stroke-width:10;stroke-miterlimit:4;stroke-dasharray:none;stroke-opacity:1"
         id="rect8115"
         width="990"
         height="990"
         x="5"
         y="5.0000048"
         transform="rotate(-90)" />
    </clipPath>
  </defs>
  <sodipodi:namedview
     pagecolor="#ffffff"
     bordercolor="#666666"
     borderopacity="1"
     objecttolerance="10"
     gridtolerance="10"
     guidetolerance="10"
     inkscape:pageopacity="0"
     inkscape:pageshadow="2"
     inkscape:window-width="1366"
     inkscape:window-height="715"
     id="namedview8103"
     showgrid="false"
     inkscape:zoom="0.25"
     inkscape:cx="511.39818"
     inkscape:cy="678.66169"
     inkscape:window-x="-8"
     inkscape:window-y="-8"
     inkscape:window-maximized="1"
     inkscape:current-layer="svg8101" />
  <path
     style="color:#000000;font-style:normal;font-variant:normal;font-weight:normal;font-stretch:normal;font-size:medium;line-height:normal;font-family:sans-serif;font-variant-ligatures:normal;font-variant-position:normal;font-variant-caps:normal;font-variant-numeric:normal;font-variant-alternates:normal;font-feature-settings:normal;text-indent:0;text-align:start;text-decoration:none;text-decoration-line:none;text-decoration-style:solid;text-decoration-color:#000000;letter-spacing:normal;word-spacing:normal;text-transform:none;writing-mode:lr-tb;direction:ltr;text-orientation:mixed;dominant-baseline:auto;baseline-shift:baseline;text-anchor:start;white-space:normal;shape-padding:0;clip-rule:nonzero;display:inline;overflow:visible;visibility:visible;opacity:1;isolation:auto;mix-blend-mode:normal;color-interpolation:sRGB;color-interpolation-filters:linearRGB;solid-color:#000000;solid-opacity:1;vector-effect:none;fill:#000000;fill-opacity:1;fill-rule:nonzero;stroke:none;stroke-width:25.63030815;stroke-linecap:butt;stroke-linejoin:miter;stroke-miterlimit:4;stroke-dasharray:none;stroke-dashoffset:0;stroke-opacity:1;color-rendering:auto;image-rendering:auto;shape-rendering:auto;text-rendering:auto;enable-background:accumulate"
     d="m 707.55273,945.4316 -25.47461,2.8301 c 0.29568,2.6611 0.72157,16.8826 0.85352,28.8906 0.13195,12.008 0.13281,22.8477 0.13281,22.8477 h 25.62891 c 0,0 10e-4,-10.9518 -0.13281,-23.1289 -0.13382,-12.1772 -0.24043,-24.5329 -1.00782,-31.4395 z"
     id="path8119"
     inkscape:connector-curvature="0" />
  <path
     style="color:#000000;font-style:normal;font-variant:normal;font-weight:normal;font-stretch:normal;font-size:medium;line-height:normal;font-family:sans-serif;font-variant-ligatures:normal;font-variant-position:normal;font-variant-caps:normal;font-variant-numeric:normal;font-variant-alternates:normal;font-feature-settings:normal;text-indent:0;text-align:start;text-decoration:none;text-decoration-line:none;text-decoration-style:solid;text-decoration-color:#000000;letter-spacing:normal;word-spacing:normal;text-transform:none;writing-mode:lr-tb;direction:ltr;text-orientation:mixed;dominant-baseline:auto;baseline-shift:baseline;text-anchor:start;white-space:normal;shape-padding:0;clip-rule:nonzero;display:inline;overflow:visible;visibility:visible;opacity:1;isolation:auto;mix-blend-mode:normal;color-interpolation:sRGB;color-interpolation-filters:linearRGB;solid-color:#000000;solid-opacity:1;vector-effect:none;fill:#000000;fill-opacity:1;fill-rule:nonzero;stroke:none;stroke-width:25.63030815;stroke-linecap:butt;stroke-linejoin:miter;stroke-miterlimit:4;stroke-dasharray:none;stroke-dashoffset:0;stroke-opacity:1;color-rendering:auto;image-rendering:auto;shape-rendering:auto;text-rendering:auto;enable-background:accumulate"
     d="M 148.53711,628.22066 C 97.597789,628.21812 63.764096,640.97206 41.488281,657.82808 5.846978,684.79771 1.9746094,722.05074 1.9746094,722.05074 l -0.089844,0.99023 0.064453,0.99414 c 1.1697457,18.01467 10.2882896,32.38519 22.0761726,41.65039 11.787882,9.2653 25.868883,14.2488 39.283203,17.2813 21.496886,4.8595 41.455056,4.6009 48.804686,4.3007 39.26624,19.5526 68.83243,29.6932 88.82227,34.7637 20.55688,5.2143 32.35742,5.2383 32.35742,5.2383 l -0.82227,-0.018 c 114.88873,5.997 187.44641,14.1435 232.53125,23.3164 45.08485,9.1729 61.50023,19.7486 66.4961,26.3828 44.0141,58.4479 114.10717,78.5556 171.9375,84.5742 57.83032,6.0187 105.14453,-2.0449 105.14453,-2.0449 l -4.28711,-25.2695 c 0,0 -44.13524,7.4495 -98.20508,1.8222 -54.06984,-5.6272 -116.32841,-24.3215 -154.11523,-74.5 -11.7694,-15.629 -34.44284,-26.4343 -81.86133,-36.082 -47.41849,-9.6477 -120.77749,-17.7645 -236.30469,-23.7949 l -0.41211,-0.021 -0.41015,0.01 c 0,0 -7.19787,0.2517 -25.7461,-4.4531 -18.54823,-4.7048 -47.27827,-14.3868 -86.75195,-34.3086 l -3.15039,-1.5899 -3.52149,0.2481 c 0,0 -22.634164,1.4545 -44.853512,-3.5684 -11.109675,-2.5114 -21.787836,-6.6881 -29.097657,-12.43358 -7.080901,-5.56557 -11.281866,-11.91403 -12.1875,-22.23242 0.292114,-2.81642 3.303969,-25.38316 29.277344,-45.03711 27.688861,-20.95205 83.481615,-37.93346 196.710935,-9.5332 l 3.64258,0.91211 3.55859,-1.19531 c 1.44613,-0.48604 9.04104,-1.13249 19.53711,-0.63282 10.49608,0.49967 24.19552,1.59568 40.41407,2.11914 32.43709,1.04693 75.07789,-0.24314 124.87695,-13.26367 l -6.48438,-24.79687 c -46.74806,12.22281 -86.51662,13.44544 -117.56445,12.44336 -15.52391,-0.50105 -28.8375,-1.57101 -40.02344,-2.10352 -9.4819,-0.45139 -17.21246,-0.77436 -24.81836,0.93359 -42.67067,-10.4865 -78.4383,-14.92624 -108.26562,-14.92773 z"
     id="path8121"
     inkscape:connector-curvature="0" />
  <path
     style="color:#000000;font-style:normal;font-variant:normal;font-weight:normal;font-stretch:normal;font-size:medium;line-height:normal;font-family:sans-serif;font-variant-ligatures:normal;font-variant-position:normal;font-variant-caps:normal;font-variant-numeric:normal;font-variant-alternates:normal;font-feature-settings:normal;text-indent:0;text-align:start;text-decoration:none;text-decoration-line:none;text-decoration-style:solid;text-decoration-color:#000000;letter-spacing:normal;word-spacing:normal;text-transform:none;writing-mode:lr-tb;direction:ltr;text-orientation:mixed;dominant-baseline:auto;baseline-shift:baseline;text-anchor:start;white-space:normal;shape-padding:0;clip-rule:nonzero;display:inline;overflow:visible;visibility:visible;opacity:1;isolation:auto;mix-blend-mode:normal;color-interpolation:sRGB;color-interpolation-filters:linearRGB;solid-color:#000000;solid-opacity:1;vector-effect:none;fill:#000000;fill-opacity:1;fill-rule:nonzero;stroke:none;stroke-width:25.63030815;stroke-linecap:butt;stroke-linejoin:miter;stroke-miterlimit:4;stroke-dasharray:none;stroke-dashoffset:0;stroke-opacity:1;color-rendering:auto;image-rendering:auto;shape-rendering:auto;text-rendering:auto;enable-background:accumulate"
     d="m 353.62891,1.42964 c -10.11955,-0.0757 -19.65422,0.0937 -27.69141,0.0937 H 325.75 l -0.1875,0.006 C 271.43208,3.12147 165.48022,26.8479 163.66992,27.25395 c -31.12563,2.42486 -53.87853,29.23649 -73.07617,54.4043 -9.753711,12.78696 -18.519966,25.67336 -26.048828,35.89648 -7.528863,10.22312 -14.785587,17.78265 -16.560547,18.84766 l -2.140625,1.28516 -1.501953,1.99218 c -17.540321,23.28062 -26.011229,43.08188 -25.726563,61.01758 0.284667,17.9357 11.628183,32.64729 26.513672,39.24219 27.226151,12.06234 64.897054,5.78225 99.822264,-13.71094 22.65221,23.63509 55.05167,30.61377 81.62695,31.875 19.97235,0.94786 36.878,-1.26699 46.25391,-2.84375 13.26692,13.73628 33.64801,22.64645 52.31836,30.58789 14.80298,6.29646 25.92219,10.17405 32.98242,12.54102 7.3505,40.95182 25.36736,69.8872 31.38867,78.75 -3.07855,38.45291 1.95035,68.2036 8.16016,88.58008 6.466,21.21714 14.7168,33.29297 14.7168,33.29297 l 0.21875,0.3125 0.23633,0.30078 c 25.18612,31.85379 36.5893,50.96176 41.44336,61.20312 1.89087,3.98949 2.6246,6.25438 3.01757,7.6836 -13.30541,27.98815 -27.07812,71.88671 -27.07812,71.88671 l 24.42969,7.75 c 0,0 15.60642,-48.50131 27.30664,-71.90234 l 0.63672,-1.27148 0.34179,-1.38086 c 0,0 0.4366,-2.4572 0.42578,-3.91016 -0.0108,-1.45296 -0.1789,-3.06218 -0.55078,-4.91602 -0.74375,-3.70767 -2.28452,-8.40985 -5.36914,-14.91796 -6.1309,-12.93534 -18.47303,-33.13064 -44.07422,-65.56641 -0.0509,-0.0709 -5.64773,-7.87012 -11.18359,-26.03516 -5.56108,-18.24777 -10.42656,-45.97953 -6.83203,-83.36328 l 0.47265,-4.91797 -2.95117,-3.96289 c 0,0 -24.37987,-33.00843 -30.65429,-79.02148 l -1.09961,-8.06641 -7.76954,-2.43164 c 0,0 -18.08539,-5.67275 -38.18164,-14.2207 -20.09624,-8.54795 -42.24386,-21.84268 -46.94726,-28.38672 l -4.97071,-6.91602 -8.30273,1.9043 c 0,0 -21.40184,4.85964 -47.16992,3.63672 -25.76808,-1.22292 -53.8229,-8.54179 -69.64844,-30.26367 l -11.37109,-5.22861 -5.89649,1.98056 c -31.86334,20.398 -69.302683,24.63397 -85.365231,17.51758 -8.031274,-3.5582 -11.127532,-7.27196 -11.269531,-16.21875 -0.139011,-8.75847 4.828187,-23.86926 19.666015,-43.91992 8.121914,-5.78152 14.113327,-13.89213 21.275391,-23.61719 7.97598,-10.83024 16.590546,-23.49166 25.789066,-35.55078 18.39704,-24.11824 39.42409,-43.67068 55.51953,-44.50586 l 1.06054,-0.0547 1.03711,-0.23047 c 0,0 109.98623,-23.83609 157.6543,-25.25586 16.68222,-0.006 37.8203,-0.56326 56.18359,1.16797 18.4659,1.7409 33.04009,7.12192 36.5918,11.44336 L 438.82031,23.49222 C 426.10981,8.02711 405.59379,4.76189 384.83398,2.80472 374.45408,1.82614 363.74845,1.50541 353.62891,1.42972 Z"
     id="path8123"
     inkscape:connector-curvature="0"
     sodipodi:nodetypes="cscccsscccsscscsccsccccccccccccscsccccccscccscccsscssccccsccscc" />
  <path
     style="color:#000000;font-style:normal;font-variant:normal;font-weight:normal;font-stretch:normal;font-size:medium;line-height:normal;font-family:sans-serif;font-variant-ligatures:normal;font-variant-position:normal;font-variant-caps:normal;font-variant-numeric:normal;font-variant-alternates:normal;font-feature-settings:normal;text-indent:0;text-align:start;text-decoration:none;text-decoration-line:none;text-decoration-style:solid;text-decoration-color:#000000;letter-spacing:normal;word-spacing:normal;text-transform:none;writing-mode:lr-tb;direction:ltr;text-orientation:mixed;dominant-baseline:auto;baseline-shift:baseline;text-anchor:start;white-space:normal;shape-padding:0;clip-rule:nonzero;display:inline;overflow:visible;visibility:visible;opacity:1;isolation:auto;mix-blend-mode:normal;color-interpolation:sRGB;color-interpolation-filters:linearRGB;solid-color:#000000;solid-opacity:1;vector-effect:none;fill:#000000;fill-opacity:1;fill-rule:nonzero;stroke:none;stroke-width:25.63030815;stroke-linecap:butt;stroke-linejoin:miter;stroke-miterlimit:4;stroke-dasharray:none;stroke-dashoffset:0;stroke-opacity:1;color-rendering:auto;image-rendering:auto;shape-rendering:auto;text-rendering:auto;enable-background:accumulate"
     d="m 438.81445,23.48433 -19.79492,16.28133 c 0,0 60.84394,73.90033 149.2168,207.23039 l 0.81055,1.22266 1.0664,1.00781 c 77.52356,73.32277 115.94465,120.65055 158.1582,180.22656 42.11996,59.44391 87.97707,131.23247 178.45508,251.09961 12.30631,24.80316 40.53665,58.54389 66.96875,108.24801 26.92479,50.6307 51.45459,116.01 52.73629,197.5801 l 25.627,-0.4023 c -1.3593,-86.5073 -27.5355,-156.1845 -55.73438,-209.211 -28.19888,-53.02646 -58.85063,-91.15858 -67.24219,-108.70504 l -0.55664,-1.16407 -0.77734,-1.02929 C 837.32676,546.12615 791.95118,474.99183 749.18555,414.63668 706.62624,354.57271 666.51475,305.2546 588.79492,231.63668 500.28778,98.21769 438.81445,23.48433 438.81445,23.48433 Z"
     id="path8125"
     inkscape:connector-curvature="0"
     sodipodi:nodetypes="cccccscsccscccscc" />
  <path
     style="color:#000000;font-style:normal;font-variant:normal;font-weight:normal;font-stretch:normal;font-size:medium;line-height:normal;font-family:sans-serif;font-variant-ligatures:normal;font-variant-position:normal;font-variant-caps:normal;font-variant-numeric:normal;font-variant-alternates:normal;font-feature-settings:normal;text-indent:0;text-align:start;text-decoration:none;text-decoration-line:none;text-decoration-style:solid;text-decoration-color:#000000;letter-spacing:normal;word-spacing:normal;text-transform:none;writing-mode:lr-tb;direction:ltr;text-orientation:mixed;dominant-baseline:auto;baseline-shift:baseline;text-anchor:start;white-space:normal;shape-padding:0;clip-rule:nonzero;display:inline;overflow:visible;visibility:visible;opacity:1;isolation:auto;mix-blend-mode:normal;color-interpolation:sRGB;color-interpolation-filters:linearRGB;solid-color:#000000;solid-opacity:1;vector-effect:none;fill:#000000;fill-opacity:1;fill-rule:nonzero;stroke:none;stroke-width:25.63030815;stroke-linecap:butt;stroke-linejoin:miter;stroke-miterlimit:4;stroke-dasharray:none;stroke-dashoffset:0;stroke-opacity:1;color-rendering:auto;image-rendering:auto;shape-rendering:auto;text-rendering:auto;enable-background:accumulate"
     d="m 282.90625,36.28707 c -41.84071,-0.14809 -58.82258,7.77701 -83.45898,9.62304 l -1.30469,0.0977 -1.25781,0.35938 c -50.54278,14.44116 -80.71094,44.60547 -80.71094,44.60546 l -0.84961,0.84961 -0.67578,0.99219 c -2.87157,4.21176 -13.84751,12.15702 -24.458987,17.46289 -5.305739,2.65294 -10.519772,4.88414 -14.574219,6.43945 -4.054447,1.55532 -8.507052,2.51664 -6.3125,2.20313 l 3.623047,25.37304 c 4.825478,-0.68936 7.044208,-1.7956 11.869141,-3.64648 4.824933,-1.85088 10.699835,-4.36644 16.857418,-7.44531 11.7835,-5.8919 24.55866,-13.0292 33.00586,-24.42774 0.95407,-0.94285 25.69247,-25.07435 68.55078,-37.52148 44.49629,-3.81197 55.42025,-20.78664 184.36329,2.30664 l 2.12695,0.38086 2.13281,-0.33594 c 0,0 0.85392,-0.33196 5.64844,0.5293 4.79451,0.86126 12.32642,3.09669 22.09961,9.10156 19.54638,12.00975 48.21515,39.40155 79.04687,101.43359 l 22.95313,-11.4082 C 489.26952,108.25235 457.80154,76.63632 432.99805,61.39648 420.5963,53.77656 409.90201,50.32557 402.01172,48.9082 397.02521,48.01245 393.39667,48.01208 390.87305,48.125 341.54462,39.34301 307.79566,36.37519 282.90625,36.28711 Z"
     id="path8129"
     inkscape:connector-curvature="0" />
  <path
     style="color:#000000;font-style:normal;font-variant:normal;font-weight:normal;font-stretch:normal;font-size:medium;line-height:normal;font-family:sans-serif;font-variant-ligatures:normal;font-variant-position:normal;font-variant-caps:normal;font-variant-numeric:normal;font-variant-alternates:normal;font-feature-settings:normal;text-indent:0;text-align:start;text-decoration:none;text-decoration-line:none;text-decoration-style:solid;text-decoration-color:#000000;letter-spacing:normal;word-spacing:normal;text-transform:none;writing-mode:lr-tb;direction:ltr;text-orientation:mixed;dominant-baseline:auto;baseline-shift:baseline;text-anchor:start;white-space:normal;shape-padding:0;clip-rule:nonzero;display:inline;overflow:visible;visibility:visible;opacity:1;isolation:auto;mix-blend-mode:normal;color-interpolation:sRGB;color-interpolation-filters:linearRGB;solid-color:#000000;solid-opacity:1;vector-effect:none;fill:#000000;fill-opacity:1;fill-rule:nonzero;stroke:none;stroke-width:25.63030815;stroke-linecap:butt;stroke-linejoin:miter;stroke-miterlimit:4;stroke-dasharray:none;stroke-dashoffset:0;stroke-opacity:1;color-rendering:auto;image-rendering:auto;shape-rendering:auto;text-rendering:auto;enable-background:accumulate"
     d="m 243.18164,108.1523 -25.41602,3.30664 c 5.45277,41.91924 -11.5957,60.43286 -30.76562,72.04883 -19.16992,11.61597 -40.22656,13.50195 -40.22656,13.50195 l 2.02734,25.54883 c 0,0 26.30046,-1.87309 51.48047,-17.13086 25.18001,-15.25777 49.47471,-46.73396 42.90039,-97.27539 z"
     id="path8133"
     inkscape:connector-curvature="0" />
  <path
     style="color:#000000;font-style:normal;font-variant:normal;font-weight:normal;font-stretch:normal;font-size:medium;line-height:normal;font-family:sans-serif;font-variant-ligatures:normal;font-variant-position:normal;font-variant-caps:normal;font-variant-numeric:normal;font-variant-alternates:normal;font-feature-settings:normal;text-indent:0;text-align:start;text-decoration:none;text-decoration-line:none;text-decoration-style:solid;text-decoration-color:#000000;letter-spacing:normal;word-spacing:normal;text-transform:none;writing-mode:lr-tb;direction:ltr;text-orientation:mixed;dominant-baseline:auto;baseline-shift:baseline;text-anchor:start;white-space:normal;shape-padding:0;clip-rule:nonzero;display:inline;overflow:visible;visibility:visible;opacity:1;isolation:auto;mix-blend-mode:normal;color-interpolation:sRGB;color-interpolation-filters:linearRGB;solid-color:#000000;solid-opacity:1;vector-effect:none;fill:#000000;fill-opacity:1;fill-rule:nonzero;stroke:none;stroke-width:25.63030815;stroke-linecap:butt;stroke-linejoin:miter;stroke-miterlimit:4;stroke-dasharray:none;stroke-dashoffset:0;stroke-opacity:1;color-rendering:auto;image-rendering:auto;shape-rendering:auto;text-rendering:auto;enable-background:accumulate"
     d="m 381.47852,129.04488 c -20.96493,13.26069 -31.91726,29.94519 -41.41993,40.39062 -9.50267,10.44543 -15.09648,15.48208 -33.4082,14.27735 -26.51218,-1.74425 -42.96045,-1.13374 -54.4043,-2.43164 -11.44384,-1.29791 -18.19661,-3.60304 -31.13867,-13.15821 l -15.22265,20.61914 c 15.33326,11.3206 28.79757,16.34149 43.47265,18.00586 14.67509,1.66438 30.2478,0.87234 55.61133,2.54102 25.34395,1.66738 42.47369,-9.88391 54.04883,-22.60742 11.57514,-12.72351 20.05428,-25.78807 36.16211,-35.97657 z"
     id="path8137"
     inkscape:connector-curvature="0" />
  <path
     style="color:#000000;font-style:normal;font-variant:normal;font-weight:normal;font-stretch:normal;font-size:medium;line-height:normal;font-family:sans-serif;font-variant-ligatures:normal;font-variant-position:normal;font-variant-caps:normal;font-variant-numeric:normal;font-variant-alternates:normal;font-feature-settings:normal;text-indent:0;text-align:start;text-decoration:none;text-decoration-line:none;text-decoration-style:solid;text-decoration-color:#000000;letter-spacing:normal;word-spacing:normal;text-transform:none;writing-mode:lr-tb;direction:ltr;text-orientation:mixed;dominant-baseline:auto;baseline-shift:baseline;text-anchor:start;white-space:normal;shape-padding:0;clip-rule:nonzero;display:inline;overflow:visible;visibility:visible;opacity:1;isolation:auto;mix-blend-mode:normal;color-interpolation:sRGB;color-interpolation-filters:linearRGB;solid-color:#000000;solid-opacity:1;vector-effect:none;fill:#000000;fill-opacity:1;fill-rule:nonzero;stroke:none;stroke-width:25.63030815;stroke-linecap:butt;stroke-linejoin:miter;stroke-miterlimit:4;stroke-dasharray:none;stroke-dashoffset:0;stroke-opacity:1;color-rendering:auto;image-rendering:auto;shape-rendering:auto;text-rendering:auto;enable-background:accumulate"
     d="m 334.27734,179.2441 c -4.59642,24.51469 5.75724,53.99626 23.14258,79.66797 17.38535,25.6717 43.59351,48.06351 75.63477,47.12109 l -0.75196,-25.61914 c -19.07381,0.56101 -39.20462,-14.5247 -53.66211,-35.87305 -14.45748,-21.34834 -21.44903,-48.42915 -19.17187,-60.57422 z"
     id="path8141"
     inkscape:connector-curvature="0" />
  <path
     style="color:#000000;font-style:normal;font-variant:normal;font-weight:normal;font-stretch:normal;font-size:medium;line-height:normal;font-family:sans-serif;font-variant-ligatures:normal;font-variant-position:normal;font-variant-caps:normal;font-variant-numeric:normal;font-variant-alternates:normal;font-feature-settings:normal;text-indent:0;text-align:start;text-decoration:none;text-decoration-line:none;text-decoration-style:solid;text-decoration-color:#000000;letter-spacing:normal;word-spacing:normal;text-transform:none;writing-mode:lr-tb;direction:ltr;text-orientation:mixed;dominant-baseline:auto;baseline-shift:baseline;text-anchor:start;white-space:normal;shape-padding:0;clip-rule:nonzero;display:inline;overflow:visible;visibility:visible;opacity:1;isolation:auto;mix-blend-mode:normal;color-interpolation:sRGB;color-interpolation-filters:linearRGB;solid-color:#000000;solid-opacity:1;vector-effect:none;fill:#000000;fill-opacity:1;fill-rule:nonzero;stroke:none;stroke-width:19.22273254;stroke-linecap:butt;stroke-linejoin:miter;stroke-miterlimit:4;stroke-dasharray:none;stroke-dashoffset:0;stroke-opacity:1;color-rendering:auto;image-rendering:auto;shape-rendering:auto;text-rendering:auto;enable-background:accumulate"
     d="m 534.9668,559.59566 c -29.12355,47.84689 -96.10157,75.76172 -96.10157,75.76172 l 6.82813,21.31866 c 0,0 71.6764,-31.19677 105.69531,-87.08624 z"
     id="path8143"
     inkscape:connector-curvature="0"
     sodipodi:nodetypes="ccccc" />
  <path
     style="color:#000000;font-style:normal;font-variant:normal;font-weight:normal;font-stretch:normal;font-size:medium;line-height:normal;font-family:sans-serif;font-variant-ligatures:normal;font-variant-position:normal;font-variant-caps:normal;font-variant-numeric:normal;font-variant-alternates:normal;font-feature-settings:normal;text-indent:0;text-align:start;text-decoration:none;text-decoration-line:none;text-decoration-style:solid;text-decoration-color:#000000;letter-spacing:normal;word-spacing:normal;text-transform:none;writing-mode:lr-tb;direction:ltr;text-orientation:mixed;dominant-baseline:auto;baseline-shift:baseline;text-anchor:start;white-space:normal;shape-padding:0;clip-rule:nonzero;display:inline;overflow:visible;visibility:visible;opacity:1;isolation:auto;mix-blend-mode:normal;color-interpolation:sRGB;color-interpolation-filters:linearRGB;solid-color:#000000;solid-opacity:1;vector-effect:none;fill:#000000;fill-opacity:1;fill-rule:nonzero;stroke:none;stroke-width:19.22273254;stroke-linecap:butt;stroke-linejoin:miter;stroke-miterlimit:4;stroke-dasharray:none;stroke-dashoffset:0;stroke-opacity:1;color-rendering:auto;image-rendering:auto;shape-rendering:auto;text-rendering:auto;enable-background:accumulate"
     d="m 520.94727,480.39058 -18.68165,4.5293 c 0.60685,2.50322 -0.26269,9.92196 -3.52734,18.51562 -3.26465,8.59367 -8.37364,18.44978 -13.72266,27.60157 -10.69803,18.30356 -22.20507,33.72461 -22.20507,33.72461 l 15.40039,11.50585 c 0,0 12.0472,-16.1048 23.40039,-35.52929 5.67659,-9.71225 11.21871,-20.27099 15.0957,-30.47656 3.877,-10.20558 6.64024,-19.97106 4.24024,-29.8711 z"
     id="path8145"
     inkscape:connector-curvature="0" />
  <path
     style="color:#000000;font-style:normal;font-variant:normal;font-weight:normal;font-stretch:normal;font-size:medium;line-height:normal;font-family:sans-serif;font-variant-ligatures:normal;font-variant-position:normal;font-variant-caps:normal;font-variant-numeric:normal;font-variant-alternates:normal;font-feature-settings:normal;text-indent:0;text-align:start;text-decoration:none;text-decoration-line:none;text-decoration-style:solid;text-decoration-color:#000000;letter-spacing:normal;word-spacing:normal;text-transform:none;writing-mode:lr-tb;direction:ltr;text-orientation:mixed;dominant-baseline:auto;baseline-shift:baseline;text-anchor:start;white-space:normal;shape-padding:0;clip-rule:nonzero;display:inline;overflow:visible;visibility:visible;opacity:1;isolation:auto;mix-blend-mode:normal;color-interpolation:sRGB;color-interpolation-filters:linearRGB;solid-color:#000000;solid-opacity:1;vector-effect:none;fill:#000000;fill-opacity:1;fill-rule:nonzero;stroke:none;stroke-width:25.63030815;stroke-linecap:butt;stroke-linejoin:miter;stroke-miterlimit:4;stroke-dasharray:none;stroke-dashoffset:0;stroke-opacity:1;color-rendering:auto;image-rendering:auto;shape-rendering:auto;text-rendering:auto;enable-background:accumulate"
     d="m 369.50391,269.65621 c -0.063,3.04413 -0.94194,3.81469 -2.42579,5.13867 -0.74192,0.66199 -1.58066,1.22437 -2.44726,1.74804 -0.4333,0.26184 -0.78901,0.44552 -1.66602,1.01172 -0.4385,0.2831 -0.93119,0.44533 -2.42187,1.92969 -0.74534,0.74218 -2.01295,1.71535 -3.14258,5.01367 -1.12963,3.29832 0.10816,10.31086 3.07422,13.27735 l 18.125,-18.12305 c 2.93147,2.9319 4.16154,9.90146 3.04883,13.15039 -1.11271,3.24893 -2.33939,4.16649 -3.01953,4.84375 -1.36029,1.35451 -1.62941,1.35472 -1.76368,1.44141 -0.26853,0.17336 0.30535,-0.17467 1.02149,-0.60743 1.43228,-0.8655 3.77011,-2.3426 6.25586,-4.56054 4.97149,-4.43589 10.75765,-12.78578 10.98437,-23.73438 z"
     id="path8155"
     inkscape:connector-curvature="0" />
  <path
     style="color:#000000;font-style:normal;font-variant:normal;font-weight:normal;font-stretch:normal;font-size:medium;line-height:normal;font-family:sans-serif;font-variant-ligatures:normal;font-variant-position:normal;font-variant-caps:normal;font-variant-numeric:normal;font-variant-alternates:normal;font-feature-settings:normal;text-indent:0;text-align:start;text-decoration:none;text-decoration-line:none;text-decoration-style:solid;text-decoration-color:#000000;letter-spacing:normal;word-spacing:normal;text-transform:none;writing-mode:lr-tb;direction:ltr;text-orientation:mixed;dominant-baseline:auto;baseline-shift:baseline;text-anchor:start;white-space:normal;shape-padding:0;clip-rule:nonzero;display:inline;overflow:visible;visibility:visible;opacity:1;isolation:auto;mix-blend-mode:normal;color-interpolation:sRGB;color-interpolation-filters:linearRGB;solid-color:#000000;solid-opacity:1;vector-effect:none;fill:#000000;fill-opacity:1;fill-rule:nonzero;stroke:none;stroke-width:25.63030815;stroke-linecap:butt;stroke-linejoin:miter;stroke-miterlimit:4;stroke-dasharray:none;stroke-dashoffset:0;stroke-opacity:1;color-rendering:auto;image-rendering:auto;shape-rendering:auto;text-rendering:auto;enable-background:accumulate"
     d="m 293.58008,196.25386 c 0,23.84235 -21.23633,33.52149 -21.23633,33.52149 l 10.97266,23.16211 c 0,0 35.89257,-17.38209 35.89257,-56.6836 z"
     id="path8157"
     inkscape:connector-curvature="0" />
  <path
     style="color:#000000;font-style:normal;font-variant:normal;font-weight:normal;font-stretch:normal;font-size:medium;line-height:normal;font-family:sans-serif;font-variant-ligatures:normal;font-variant-position:normal;font-variant-caps:normal;font-variant-numeric:normal;font-variant-alternates:normal;font-feature-settings:normal;text-indent:0;text-align:start;text-decoration:none;text-decoration-line:none;text-decoration-style:solid;text-decoration-color:#000000;letter-spacing:normal;word-spacing:normal;text-transform:none;writing-mode:lr-tb;direction:ltr;text-orientation:mixed;dominant-baseline:auto;baseline-shift:baseline;text-anchor:start;white-space:normal;shape-padding:0;clip-rule:nonzero;display:inline;overflow:visible;visibility:visible;opacity:1;isolation:auto;mix-blend-mode:normal;color-interpolation:sRGB;color-interpolation-filters:linearRGB;solid-color:#000000;solid-opacity:1;vector-effect:none;fill:#000000;fill-opacity:1;fill-rule:nonzero;stroke:none;stroke-width:19.22273254;stroke-linecap:butt;stroke-linejoin:miter;stroke-miterlimit:4;stroke-dasharray:none;stroke-dashoffset:0;stroke-opacity:1;color-rendering:auto;image-rendering:auto;shape-rendering:auto;text-rendering:auto;enable-background:accumulate"
     d="m 228.20312,740.21089 c -6.82885,44.38871 9.34766,77.92771 9.34766,77.92771 l 17.31055,-8.3554 c 0,0 -13.58796,-28.1187 -7.66016,-66.65043 z"
     id="path8159"
     inkscape:connector-curvature="0" />
  <path
     style="color:#000000;font-style:normal;font-variant:normal;font-weight:normal;font-stretch:normal;font-size:medium;line-height:normal;font-family:sans-serif;font-variant-ligatures:normal;font-variant-position:normal;font-variant-caps:normal;font-variant-numeric:normal;font-variant-alternates:normal;font-feature-settings:normal;text-indent:0;text-align:start;text-decoration:none;text-decoration-line:none;text-decoration-style:solid;text-decoration-color:#000000;letter-spacing:normal;word-spacing:normal;text-transform:none;writing-mode:lr-tb;direction:ltr;text-orientation:mixed;dominant-baseline:auto;baseline-shift:baseline;text-anchor:start;white-space:normal;shape-padding:0;clip-rule:nonzero;display:inline;overflow:visible;visibility:visible;opacity:1;isolation:auto;mix-blend-mode:normal;color-interpolation:sRGB;color-interpolation-filters:linearRGB;solid-color:#000000;solid-opacity:1;vector-effect:none;fill:#000000;fill-opacity:1;fill-rule:nonzero;stroke:none;stroke-width:19.22273254;stroke-linecap:butt;stroke-linejoin:miter;stroke-miterlimit:4;stroke-dasharray:none;stroke-dashoffset:0;stroke-opacity:1;color-rendering:auto;image-rendering:auto;shape-rendering:auto;text-rendering:auto;enable-background:accumulate"
     d="m 68.542969,683.61128 c -13.482548,-0.21964 -27.476203,0.99512 -39.595703,6.4336 -12.119501,5.43847 -22.3488864,16.68885 -23.7812504,32.2793 l 19.1425784,1.75976 c 0.832202,-9.05804 4.722951,-13.00576 12.509765,-16.5 7.786815,-3.49424 19.485187,-4.94626 31.41211,-4.75195 13.242782,0.21574 25.350433,2.0666 34.578121,3.83203 -17.791245,34.48577 3.52344,72.36328 3.52344,72.36328 l 16.75977,-9.4141 c 0,0 -20.29781,-36.44318 2.81054,-63.10738 l 10.0918,-11.64258 -14.89453,-3.94336 c 0,0 -25.591546,-6.8693 -52.556641,-7.3086 z"
     id="path8163"
     inkscape:connector-curvature="0" />
  <path
     style="color:#000000;font-style:normal;font-variant:normal;font-weight:normal;font-stretch:normal;font-size:medium;line-height:normal;font-family:sans-serif;font-variant-ligatures:normal;font-variant-position:normal;font-variant-caps:normal;font-variant-numeric:normal;font-variant-alternates:normal;font-feature-settings:normal;text-indent:0;text-align:start;text-decoration:none;text-decoration-line:none;text-decoration-style:solid;text-decoration-color:#000000;letter-spacing:normal;word-spacing:normal;text-transform:none;writing-mode:lr-tb;direction:ltr;text-orientation:mixed;dominant-baseline:auto;baseline-shift:baseline;text-anchor:start;white-space:normal;shape-padding:0;clip-rule:nonzero;display:inline;overflow:visible;visibility:visible;opacity:1;isolation:auto;mix-blend-mode:normal;color-interpolation:sRGB;color-interpolation-filters:linearRGB;solid-color:#000000;solid-opacity:1;vector-effect:none;fill:#000000;fill-opacity:1;fill-rule:nonzero;stroke:none;stroke-width:19.22273254;stroke-linecap:butt;stroke-linejoin:miter;stroke-miterlimit:4;stroke-dasharray:none;stroke-dashoffset:0;stroke-opacity:1;color-rendering:auto;image-rendering:auto;shape-rendering:auto;text-rendering:auto;enable-background:accumulate"
     d="m 75.017578,122.82222 -7.80664,17.56641 c 0,0 6.656784,3.46545 7.050781,8.85547 0.196998,2.69501 -0.65189,7.48851 -7.527344,15.40429 -6.875454,7.91579 -19.654642,18.35726 -41.140625,30.78321 l 9.625,16.64062 c 22.630798,-13.08802 36.998132,-24.42293 46.027344,-34.81836 9.029212,-10.39543 12.84267,-20.44915 12.1875,-29.41211 -1.310341,-17.92591 -18.416016,-25.01953 -18.416016,-25.01953 z"
     id="path8165"
     inkscape:connector-curvature="0" />
  <path
     style="font-style:normal;font-weight:normal;font-size:233.33332825px;line-height:1.25;font-family:sans-serif;letter-spacing:0px;word-spacing:0px;fill:#000000;fill-opacity:1;stroke:none"
     d="m 544.27343,1074.2031 c -12.4566,0 -23.8125,1.9369 -34.06641,5.8106 -10.17795,3.8737 -18.87413,9.4937 -26.08984,16.8613 -7.44358,7.5955 -13.14019,16.9006 -17.08985,27.9141 -3.94965,11.0134 -5.92578,23.5067 -5.92578,37.4824 0,14.7352 2.05078,27.6862 6.15235,38.8516 4.10156,11.0894 9.79817,20.2413 17.08984,27.457 7.44358,7.3676 16.17904,12.799 26.20508,16.293 10.10199,3.4179 21.30469,5.1269 33.60937,5.1269 6.53212,0 12.49588,-0.5323 17.88868,-1.5957 5.46874,-0.9874 10.51909,-2.2014 15.15234,-3.6445 5.46875,-1.747 9.87478,-3.4186 13.2168,-5.0137 3.41796,-1.5951 7.21506,-3.304 11.39257,-5.127 v -26.4316 h -1.5957 c -8.27908,7.4436 -17.1658,13.0263 -26.66016,16.7481 -9.49435,3.7217 -19.67165,5.582 -30.5332,5.582 -7.8993,0 -15.41884,-1.3299 -22.55859,-3.9883 -7.0638,-2.7344 -13.25347,-6.9106 -18.57032,-12.5312 -5.08897,-5.3928 -9.26714,-12.382 -12.5332,-20.9649 -3.1901,-8.5829 -4.78515,-18.8368 -4.78515,-30.7617 0,-11.3932 1.44379,-21.4193 4.33007,-30.0781 2.96224,-8.7349 7.06381,-15.9499 12.30469,-21.6465 5.3928,-5.8485 11.50586,-10.1406 18.3418,-12.875 6.91189,-2.8103 14.65929,-4.2149 23.24219,-4.2149 10.48177,0 20.31922,1.7856 29.50976,5.3555 9.19054,3.5699 18.45638,9.2665 27.79883,17.0898 h 1.70898 v -26.7754 c -11.08941,-5.5446 -21.19205,-9.4184 -30.30664,-11.621 -9.03863,-2.2027 -18.11393,-3.3028 -27.22851,-3.3028 z"
     id="text774"
     inkscape:connector-curvature="0" />
</svg>
