<?xml version="1.0" encoding="UTF-8" standalone="no"?>
<!-- Created with Inkscape (http://www.inkscape.org/) -->

<svg
   xmlns:dc="http://purl.org/dc/elements/1.1/"
   xmlns:cc="http://creativecommons.org/ns#"
   xmlns:rdf="http://www.w3.org/1999/02/22-rdf-syntax-ns#"
   xmlns:svg="http://www.w3.org/2000/svg"
   xmlns="http://www.w3.org/2000/svg"
   xmlns:sodipodi="http://sodipodi.sourceforge.net/DTD/sodipodi-0.dtd"
   xmlns:inkscape="http://www.inkscape.org/namespaces/inkscape"
   version="1.1"
   id="svg8719"
   width="1000"
   height="1250"
   viewBox="0 0 1000 1250"
   sodipodi:docname="D.svg"
   inkscape:version="0.92.4 (5da689c313, 2019-01-14)">
  <metadata
     id="metadata8725">
    <rdf:RDF>
      <cc:Work
         rdf:about="">
        <dc:format>image/svg+xml</dc:format>
        <dc:type
           rdf:resource="http://purl.org/dc/dcmitype/StillImage" />
        <dc:title></dc:title>
      </cc:Work>
    </rdf:RDF>
  </metadata>
  <defs
     id="defs8723">
    <clipPath
       clipPathUnits="userSpaceOnUse"
       id="clipPath8731">
      <rect
         style="opacity:1;fill:#00000a;fill-opacity:0.04705882;stroke:#000000;stroke-width:14.99999905;stroke-miterlimit:4;stroke-dasharray:none;stroke-opacity:1"
         id="rect8733"
         width="985"
         height="985"
         x="7.5"
         y="7.4999976"
         transform="rotate(-90)" />
    </clipPath>
  </defs>
  <sodipodi:namedview
     pagecolor="#ffffff"
     bordercolor="#666666"
     borderopacity="1"
     objecttolerance="10"
     gridtolerance="10"
     guidetolerance="10"
     inkscape:pageopacity="0"
     inkscape:pageshadow="2"
     inkscape:window-width="1366"
     inkscape:window-height="715"
     id="namedview8721"
     showgrid="false"
     inkscape:zoom="0.27314815"
     inkscape:cx="180.95604"
     inkscape:cy="418.07421"
     inkscape:window-x="-8"
     inkscape:window-y="-8"
     inkscape:window-maximized="1"
     inkscape:current-layer="svg8719" />
  <path
     style="color:#000000;font-style:normal;font-variant:normal;font-weight:normal;font-stretch:normal;font-size:medium;line-height:normal;font-family:sans-serif;font-variant-ligatures:normal;font-variant-position:normal;font-variant-caps:normal;font-variant-numeric:normal;font-variant-alternates:normal;font-feature-settings:normal;text-indent:0;text-align:start;text-decoration:none;text-decoration-line:none;text-decoration-style:solid;text-decoration-color:#000000;letter-spacing:normal;word-spacing:normal;text-transform:none;writing-mode:lr-tb;direction:ltr;text-orientation:mixed;dominant-baseline:auto;baseline-shift:baseline;text-anchor:start;white-space:normal;shape-padding:0;clip-rule:nonzero;display:inline;overflow:visible;visibility:visible;opacity:1;isolation:auto;mix-blend-mode:normal;color-interpolation:sRGB;color-interpolation-filters:linearRGB;solid-color:#000000;solid-opacity:1;vector-effect:none;fill:#000000;fill-opacity:1;fill-rule:nonzero;stroke:none;stroke-width:25.6149025;stroke-linecap:butt;stroke-linejoin:miter;stroke-miterlimit:4;stroke-dasharray:none;stroke-dashoffset:0;stroke-opacity:1;color-rendering:auto;image-rendering:auto;shape-rendering:auto;text-rendering:auto;enable-background:accumulate"
     d="m 404.12305,2.08393 c -1.87016,0.006 -3.74061,0.16687 -5.60352,0.49024 -14.90329,2.58696 -25.29436,13.72954 -33.12305,26.61523 -15.65736,25.7714 -23.84914,63.09531 -26.89257,94.16407 l -0.13868,1.43359 0.17969,1.42578 c 4.88254,38.50777 2.20313,97.95117 2.20313,97.95117 l -0.0137,0.32031 v 0.31836 c 0.0972,53.92226 7.92195,79.84561 2.44335,154.75391 -32.31487,-21.94778 -53.25751,-42.77078 -77.24414,-53.39258 -14.05699,-6.22474 -30.17404,-7.88117 -46.48242,-2.00586 -15.87351,5.71865 -31.93019,17.51934 -51.28906,36.28125 -47.41614,23.78217 -73.194388,40.47263 -87.470704,51.76953 -7.233042,5.72354 -11.579106,10.08706 -14.371094,13.51563 -1.395993,1.71428 -2.40183,3.1989 -3.15039,4.52539 -0.748561,1.32649 -1.550781,3.55469 -1.550781,3.55469 l 0.566406,-1.54883 c -15.581264,35.31118 -31.71599,71.01732 -43.451172,109.50977 l 0.564453,-1.50391 c -5.90538,13.17008 -1.685145,24.99532 1.896484,31.61328 -2.588309,10.1026 -2.338115,18.77608 -0.501953,25.53906 -4.074313,2.37892 -7.585026,5.24403 -10.339843,8.51367 -5.7938621,6.87663 -8.3371603,14.8041 -9.3085941,21.73633 -1.94286772,13.86446 1.9003906,25.60547 1.9003906,25.60547 l -0.5136719,-2.69336 c 0.9019327,10.98554 6.6804166,17.23797 12.3515624,23.75196 5.671146,6.51398 11.596836,11.95261 17.712891,15.625 -0.05265,-0.0316 3.631236,3.82408 7.037109,10.61328 3.405873,6.78919 7.128013,16.02864 11.292969,26.03125 8.329911,20.0052 18.040872,43.30259 35.490234,59.29099 l 1.451172,1.3282 1.783203,0.8339 c 78.352199,36.578 118.630729,58.2547 139.880859,71.4043 20.02352,12.3906 21.7791,15.7147 27.08008,20.793 41.59059,55.7422 61.75647,80.6808 80.58398,95.041 18.93769,14.4443 34.2681,15.8184 61.08399,24.711 l 8.0625,-24.3125 c -28.6258,-9.4928 -39.35881,-9.8934 -53.61328,-20.7657 -14.25447,-10.8722 -34.36864,-34.7136 -76.23047,-90.8437 l -0.72266,-0.9688 -0.89062,-0.8164 c -2.66382,-2.4412 -9.04576,-10.4923 -31.875,-24.6191 -22.59626,-13.9826 -63.14568,-35.6985 -140.3906,-71.8164 -10.823068,-10.6367 -20.162416,-30.1701 -28.046874,-49.1055 -4.07705,-9.79149 -7.865033,-19.33977 -12.044922,-27.67187 -4.179889,-8.3321 -8.157307,-15.93073 -16.746093,-21.08789 -1.840818,-1.10532 -7.48278,-5.77619 -11.580079,-10.48242 -4.097298,-4.70624 -6.286822,-10.7862 -6.142578,-9.0293 l -0.111328,-1.37305 -0.402344,-1.31836 c 0,0 -2.027679,-7.48759 -1.035156,-14.57031 0.496262,-3.54136 1.62165,-6.51832 3.533203,-8.78711 1.911554,-2.26879 4.719568,-4.40369 11.191407,-5.66797 l 26.998046,-5.27539 -21.416015,-17.26562 c 0,0 -0.166684,0.24012 -1.164063,-2.50196 -0.997378,-2.74207 -2.08021,-7.7458 1.50586,-17.52343 l 2.380859,-6.49024 -4.121094,-5.55273 c 0,0 -4.208382,-7.93075 -2.646484,-11.41407 l 0.330078,-0.73437 0.234375,-0.76953 c 11.096919,-36.39888 26.713383,-71.12516 42.332031,-106.51953 -0.0091,0.0161 0.07986,-0.16092 0.615235,-0.81836 1.229674,-1.51005 4.249751,-4.73495 10.402344,-9.60352 12.305182,-9.73714 37.078272,-26.02829 84.722652,-49.82422 l 1.80274,-0.90039 1.4375,-1.4082 c 18.76957,-18.39118 32.98695,-28.08657 43.58398,-31.9043 10.59703,-3.81772 17.63624,-3.00862 27.42969,1.32813 19.5869,8.6735 46.27454,35.73934 92.08594,63.29297 l 17.41211,10.47265 1.9375,-20.22656 c 9.04788,-94.38116 -0.5253,-122.3199 -0.64453,-178.21484 0.0703,-1.3978 2.84337,-57.95903 -2.2129,-100.06641 2.87362,-28.12486 11.56498,-63.29083 23.14649,-82.35352 5.85709,-9.64053 11.74389,-14.00607 15.61328,-14.67773 3.4327,-0.59586 8.72127,0.72772 16.98438,8.94336 0.76561,58.93162 12.07059,100.23206 12.08398,145.25977 v 0.97851 l 0.14844,0.96875 c 12.60397,81.7995 35.92146,233.38904 52.79687,308.48633 l 0.35938,1.60156 0.75195,1.45703 c 0,0 53.75468,104.58848 69.79102,238.33594 -6.1e-4,0.13497 -0.0347,0.31389 -0.0332,0.44727 0.0208,1.80795 0.23118,3.57377 0.69141,6.18359 0.92047,5.21964 2.92229,13.71404 7.50195,29.25004 9.15933,31.0718 28.65603,90.119 70.41016,203.5957 l 24.03906,-8.8457 C 616.77412,851.2764 597.40286,792.5318 588.54492,762.4824 c -4.30579,-14.60687 -6.06414,-22.28749 -6.73437,-25.96097 l 0.11328,-0.17773 -0.53516,-4.53125 C 565.27404,595.67926 512.16348,490.51418 509.64258,485.57417 493.33695,412.53065 470.11081,262.32157 457.54883,180.79682 457.34027,130.65512 445.44091,89.3381 445.36719,31.27925 l -0.008,-4.88086 -3.25,-3.63867 C 430.3757,9.63063 417.21413,2.04291 404.12305,2.08393 Z"
     id="path8737"
     inkscape:connector-curvature="0" />
  <path
     style="color:#000000;font-style:normal;font-variant:normal;font-weight:normal;font-stretch:normal;font-size:medium;line-height:normal;font-family:sans-serif;font-variant-ligatures:normal;font-variant-position:normal;font-variant-caps:normal;font-variant-numeric:normal;font-variant-alternates:normal;font-feature-settings:normal;text-indent:0;text-align:start;text-decoration:none;text-decoration-line:none;text-decoration-style:solid;text-decoration-color:#000000;letter-spacing:normal;word-spacing:normal;text-transform:none;writing-mode:lr-tb;direction:ltr;text-orientation:mixed;dominant-baseline:auto;baseline-shift:baseline;text-anchor:start;white-space:normal;shape-padding:0;clip-rule:nonzero;display:inline;overflow:visible;visibility:visible;opacity:1;isolation:auto;mix-blend-mode:normal;color-interpolation:sRGB;color-interpolation-filters:linearRGB;solid-color:#000000;solid-opacity:1;vector-effect:none;fill:#000000;fill-opacity:1;fill-rule:nonzero;stroke:none;stroke-width:25.6149025;stroke-linecap:butt;stroke-linejoin:miter;stroke-miterlimit:4;stroke-dasharray:none;stroke-dashoffset:0;stroke-opacity:1;color-rendering:auto;image-rendering:auto;shape-rendering:auto;text-rendering:auto;enable-background:accumulate"
     d="m 133.94531,484.83979 -9.71875,23.69922 c -0.42768,-0.17541 -1.0693,-1.06987 -0.81054,-0.49219 0.25875,0.57769 0.78717,2.57964 0.85546,5.50586 0.1366,5.85246 -1.39551,14.9675 -3.77148,23.9336 -4.75194,17.9322 -12.3125,35.36523 -12.3125,35.36523 l -0.01,0.0215 -0.01,0.0215 c -6.43979,14.90097 -13.722443,18.45982 -25.216798,20.30469 -11.494356,1.84487 -27.032446,-0.33401 -43.140625,-1.76367 l -2.263672,25.51562 c 14.857663,1.31868 32.031362,4.33687 49.462891,1.53906 17.425544,-2.79684 35.276024,-13.7146 44.662114,-35.4121 0.0151,-0.0343 8.18134,-18.62877 13.58789,-39.03126 2.70576,-10.21065 4.85831,-20.84436 4.61914,-31.09179 -0.11959,-5.12372 -0.79265,-10.25902 -3.08594,-15.37891 -2.2933,-5.11988 -6.83722,-10.27115 -12.84766,-12.73633 z"
     id="path8741"
     inkscape:connector-curvature="0" />
  <path
     style="color:#000000;font-style:normal;font-variant:normal;font-weight:normal;font-stretch:normal;font-size:medium;line-height:normal;font-family:sans-serif;font-variant-ligatures:normal;font-variant-position:normal;font-variant-caps:normal;font-variant-numeric:normal;font-variant-alternates:normal;font-feature-settings:normal;text-indent:0;text-align:start;text-decoration:none;text-decoration-line:none;text-decoration-style:solid;text-decoration-color:#000000;letter-spacing:normal;word-spacing:normal;text-transform:none;writing-mode:lr-tb;direction:ltr;text-orientation:mixed;dominant-baseline:auto;baseline-shift:baseline;text-anchor:start;white-space:normal;shape-padding:0;clip-rule:nonzero;display:inline;overflow:visible;visibility:visible;opacity:1;isolation:auto;mix-blend-mode:normal;color-interpolation:sRGB;color-interpolation-filters:linearRGB;solid-color:#000000;solid-opacity:1;vector-effect:none;fill:#000000;fill-opacity:1;fill-rule:nonzero;stroke:none;stroke-width:25.6149025;stroke-linecap:butt;stroke-linejoin:miter;stroke-miterlimit:4;stroke-dasharray:none;stroke-dashoffset:0;stroke-opacity:1;color-rendering:auto;image-rendering:auto;shape-rendering:auto;text-rendering:auto;enable-background:accumulate"
     d="m 230.00195,413.97847 c -29.01778,54.67306 -53.64623,75.84435 -68.92187,83.59765 -7.63782,3.87665 -12.98327,4.5657 -16.1582,4.58789 -3.17494,0.0222 -2.95899,-0.15039 -2.95899,-0.15039 l -9.7207,23.69727 c 0,0 5.79926,2.11772 12.85937,2.06836 7.06011,-0.0494 16.60091,-1.79271 27.57227,-7.36133 21.94271,-11.13724 49.42153,-36.90637 79.95312,-94.43164 z"
     id="path8743"
     inkscape:connector-curvature="0" />
  <path
     style="color:#000000;font-style:normal;font-variant:normal;font-weight:normal;font-stretch:normal;font-size:medium;line-height:normal;font-family:sans-serif;font-variant-ligatures:normal;font-variant-position:normal;font-variant-caps:normal;font-variant-numeric:normal;font-variant-alternates:normal;font-feature-settings:normal;text-indent:0;text-align:start;text-decoration:none;text-decoration-line:none;text-decoration-style:solid;text-decoration-color:#000000;letter-spacing:normal;word-spacing:normal;text-transform:none;writing-mode:lr-tb;direction:ltr;text-orientation:mixed;dominant-baseline:auto;baseline-shift:baseline;text-anchor:start;white-space:normal;shape-padding:0;clip-rule:nonzero;display:inline;overflow:visible;visibility:visible;opacity:1;isolation:auto;mix-blend-mode:normal;color-interpolation:sRGB;color-interpolation-filters:linearRGB;solid-color:#000000;solid-opacity:1;vector-effect:none;fill:#000000;fill-opacity:1;fill-rule:nonzero;stroke:none;stroke-width:19.21117592;stroke-linecap:butt;stroke-linejoin:miter;stroke-miterlimit:4;stroke-dasharray:none;stroke-dashoffset:0;stroke-opacity:1;color-rendering:auto;image-rendering:auto;shape-rendering:auto;text-rendering:auto;enable-background:accumulate"
     d="m 363.82227,401.10347 -19.14454,1.59961 c 2.76245,33.07223 -9.88891,53.63188 -23.35742,67.01171 -10.08249,10.01612 -20.33488,15.42576 -24.85742,17.51563 -26.32233,-5.305 -43.15836,-15.11667 -53.43359,-23.52149 -10.63517,-8.69922 -13.85743,-15.05468 -13.85742,-15.05468 l -16.94141,9.05859 c 0,0 5.65059,10.24459 18.63476,20.86524 12.98418,10.62064 33.78662,22.40574 64.82032,28.1289 l 2.61523,0.48242 2.49219,-0.93164 c 0,0 17.62346,-6.57937 34.06641,-22.91406 16.44294,-16.33469 32.20259,-43.45433 28.96289,-82.24023 z"
     id="path8747"
     inkscape:connector-curvature="0" />
  <path
     style="color:#000000;font-style:normal;font-variant:normal;font-weight:normal;font-stretch:normal;font-size:medium;line-height:normal;font-family:sans-serif;font-variant-ligatures:normal;font-variant-position:normal;font-variant-caps:normal;font-variant-numeric:normal;font-variant-alternates:normal;font-feature-settings:normal;text-indent:0;text-align:start;text-decoration:none;text-decoration-line:none;text-decoration-style:solid;text-decoration-color:#000000;letter-spacing:normal;word-spacing:normal;text-transform:none;writing-mode:lr-tb;direction:ltr;text-orientation:mixed;dominant-baseline:auto;baseline-shift:baseline;text-anchor:start;white-space:normal;shape-padding:0;clip-rule:nonzero;display:inline;overflow:visible;visibility:visible;opacity:1;isolation:auto;mix-blend-mode:normal;color-interpolation:sRGB;color-interpolation-filters:linearRGB;solid-color:#000000;solid-opacity:1;vector-effect:none;fill:#000000;fill-opacity:1;fill-rule:nonzero;stroke:none;stroke-width:25.6149025;stroke-linecap:butt;stroke-linejoin:miter;stroke-miterlimit:4;stroke-dasharray:none;stroke-dashoffset:0;stroke-opacity:1;color-rendering:auto;image-rendering:auto;shape-rendering:auto;text-rendering:auto;enable-background:accumulate"
     d="m 209.88477,477.10932 -12.17969,6.60352 c 0,0 -3.51189,1.81622 -6.51953,2.75586 -1.50383,0.46982 -2.85266,0.50665 -2.14453,0.54492 0.70812,0.0383 5.44248,1.97688 6.83593,5.32031 l -23.64453,9.85547 c 2.82493,6.77809 10.74532,10.14746 15.42578,10.40039 4.68047,0.25294 8.08912,-0.71059 11.16602,-1.67187 1.20439,-0.37627 1.99103,-0.7855 3.07422,-1.19922 1.20304,0.51315 2.35657,0.98862 3.46875,1.27344 4.76855,14.93554 15.68392,26.06402 25.41797,33.88867 4.75577,3.8229 9.23967,6.76461 13.16211,9.16992 -5.83752,22.64149 2.64908,46.3845 11.88085,64.94141 8.59165,17.27017 17.04806,28.59386 20.90821,33.57812 -0.0315,3.64908 0.5778,6.95713 1.27539,10.4043 1.10578,5.46432 2.76215,11.01631 4.47461,16.15234 1.56632,4.69774 3.14729,8.84299 4.46289,12.20313 -2.19851,2.76502 -5.14971,6.36106 -8.39844,9.64648 -2.87411,2.90657 -3.58995,3.47588 -5.52148,5.27735 -45.57332,-10.32269 -69.14673,-20.06214 -79.54688,-26.29883 -5.4677,-3.27884 -7.4229,-5.53638 -7.77148,-6.00195 -0.1743,-0.23279 0.0309,-0.0107 0.27539,0.64843 0.12224,0.32955 0.25384,0.76532 0.35742,1.28711 0.0518,0.2609 0.0961,0.5448 0.13086,0.84375 0.0174,0.14948 0.0332,0.30366 0.0449,0.45703 0.0118,0.15338 0.0273,0.51368 0.0273,0.51368 l -2.15235,-6.66797 C 153.74022,625.18305 122.76955,606.06876 96.433594,598.73823 70.097637,591.40771 48.380959,593.88999 42.654297,592.01948 l -7.953125,24.34766 c 17.836472,5.82596 34.255795,1.31085 54.863281,7.04687 20.441057,5.6897 44.998197,19.60496 72.865237,60.91992 0.679,1.60758 1.49585,3.26176 2.77539,4.97071 0.49917,0.66669 1.36429,1.37067 1.96094,2.04687 l 2.71289,4.0586 0.74609,-0.44727 c 2.55947,2.24044 5.65154,4.54302 9.68359,6.96094 15.00698,8.99928 41.8417,19.69253 93.79688,30.93945 l 6.38281,1.38086 4.86719,-4.35547 c 0,0 5.42644,-4.85108 11.4082,-10.90039 5.98176,-6.04931 12.35627,-11.73564 16.36914,-20.73633 l 2.28711,-5.1289 -2.22265,-5.15821 c 0,0 -3.39344,-7.89164 -6.41016,-16.93945 -1.50836,-4.52391 -2.89495,-9.31091 -3.66797,-13.13086 -0.77302,-3.81995 -0.38861,-7.0487 -0.75,-5.67578 l 1.66406,-6.31836 -4.14062,-5.05664 c 0,0 -11.78187,-14.46725 -21.13086,-33.25977 -9.34899,-18.79251 -14.52596,-40.23149 -7.7207,-53.54687 l 6.0332,-11.80274 -12.00391,-5.62304 c 0,0 -8.95558,-4.23152 -18.23828,-11.69336 -9.2827,-7.46184 -17.35041,-17.52564 -18.25,-26.87891 l -1.2168,-12.64843 -12.65625,1.11718 c 0,0 -0.46982,-0.0353 -0.6621,-0.0351 z"
     id="path8749"
     inkscape:connector-curvature="0" />
  <path
     style="color:#000000;font-style:normal;font-variant:normal;font-weight:normal;font-stretch:normal;font-size:medium;line-height:normal;font-family:sans-serif;font-variant-ligatures:normal;font-variant-position:normal;font-variant-caps:normal;font-variant-numeric:normal;font-variant-alternates:normal;font-feature-settings:normal;text-indent:0;text-align:start;text-decoration:none;text-decoration-line:none;text-decoration-style:solid;text-decoration-color:#000000;letter-spacing:normal;word-spacing:normal;text-transform:none;writing-mode:lr-tb;direction:ltr;text-orientation:mixed;dominant-baseline:auto;baseline-shift:baseline;text-anchor:start;white-space:normal;shape-padding:0;clip-rule:nonzero;display:inline;overflow:visible;visibility:visible;opacity:1;isolation:auto;mix-blend-mode:normal;color-interpolation:sRGB;color-interpolation-filters:linearRGB;solid-color:#000000;solid-opacity:1;vector-effect:none;fill:#000000;fill-opacity:1;fill-rule:nonzero;stroke:none;stroke-width:12.80745125;stroke-linecap:butt;stroke-linejoin:miter;stroke-miterlimit:4;stroke-dasharray:none;stroke-dashoffset:0;stroke-opacity:1;color-rendering:auto;image-rendering:auto;shape-rendering:auto;text-rendering:auto;enable-background:accumulate"
     d="m 214.99609,465.46675 -10.10351,7.87109 c 0,0 8.47518,10.91752 20.00195,21.06055 5.76339,5.07151 12.30743,10.01712 19.34375,13.39453 5.52459,2.65179 11.56629,4.34127 17.6582,3.82422 0.45305,0.63788 0.72987,1.17865 1.30274,1.84179 1.315,1.52224 2.99367,3.14679 5.37109,4.36915 2.37743,1.22235 5.67343,1.90956 8.92188,1.09765 l -3.10547,-12.42383 c 0.009,-0.002 0.31868,0.0793 0.0391,-0.0645 -0.27962,-0.14377 -0.92697,-0.64558 -1.53516,-1.34961 -1.21637,-1.40806 -2.06249,-3.13867 -2.0625,-3.13867 l -2.34179,-5.10742 -5.36914,1.6582 c -3.38387,1.04565 -7.96008,0.32649 -13.33594,-2.25391 -5.37586,-2.58039 -11.20673,-6.87036 -16.42578,-11.46289 -10.4381,-9.18505 -18.35938,-19.3164 -18.35938,-19.3164 z"
     id="path8751"
     inkscape:connector-curvature="0" />
  <path
     style="color:#000000;font-style:normal;font-variant:normal;font-weight:normal;font-stretch:normal;font-size:medium;line-height:normal;font-family:sans-serif;font-variant-ligatures:normal;font-variant-position:normal;font-variant-caps:normal;font-variant-numeric:normal;font-variant-alternates:normal;font-feature-settings:normal;text-indent:0;text-align:start;text-decoration:none;text-decoration-line:none;text-decoration-style:solid;text-decoration-color:#000000;letter-spacing:normal;word-spacing:normal;text-transform:none;writing-mode:lr-tb;direction:ltr;text-orientation:mixed;dominant-baseline:auto;baseline-shift:baseline;text-anchor:start;white-space:normal;shape-padding:0;clip-rule:nonzero;display:inline;overflow:visible;visibility:visible;opacity:1;isolation:auto;mix-blend-mode:normal;color-interpolation:sRGB;color-interpolation-filters:linearRGB;solid-color:#000000;solid-opacity:1;vector-effect:none;fill:#000000;fill-opacity:1;fill-rule:nonzero;stroke:none;stroke-width:12.80745125;stroke-linecap:butt;stroke-linejoin:miter;stroke-miterlimit:4;stroke-dasharray:none;stroke-dashoffset:0;stroke-opacity:1;color-rendering:auto;image-rendering:auto;shape-rendering:auto;text-rendering:auto;enable-background:accumulate"
     d="m 297.83398,490.87104 c -7.85343,-0.49932 -14.32806,3.98544 -19.47656,9.39258 -5.14849,5.40714 -9.42961,12.21634 -13.04883,18.96094 -7.23843,13.48921 -11.74023,26.94141 -11.74023,26.94141 l 12.13867,4.08593 c 0,0 4.28336,-12.66499 10.88672,-24.9707 3.30168,-6.15286 7.20662,-12.16058 11.03906,-16.18555 3.83244,-4.02497 7.13475,-5.58666 9.38867,-5.44336 z"
     id="path8753"
     inkscape:connector-curvature="0" />
  <path
     style="color:#000000;font-style:normal;font-variant:normal;font-weight:normal;font-stretch:normal;font-size:medium;line-height:normal;font-family:sans-serif;font-variant-ligatures:normal;font-variant-position:normal;font-variant-caps:normal;font-variant-numeric:normal;font-variant-alternates:normal;font-feature-settings:normal;text-indent:0;text-align:start;text-decoration:none;text-decoration-line:none;text-decoration-style:solid;text-decoration-color:#000000;letter-spacing:normal;word-spacing:normal;text-transform:none;writing-mode:lr-tb;direction:ltr;text-orientation:mixed;dominant-baseline:auto;baseline-shift:baseline;text-anchor:start;white-space:normal;shape-padding:0;clip-rule:nonzero;display:inline;overflow:visible;visibility:visible;opacity:1;isolation:auto;mix-blend-mode:normal;color-interpolation:sRGB;color-interpolation-filters:linearRGB;solid-color:#000000;solid-opacity:1;vector-effect:none;fill:#000000;fill-opacity:1;fill-rule:nonzero;stroke:none;stroke-width:19.21117592;stroke-linecap:butt;stroke-linejoin:miter;stroke-miterlimit:4;stroke-dasharray:none;stroke-dashoffset:0;stroke-opacity:1;color-rendering:auto;image-rendering:auto;shape-rendering:auto;text-rendering:auto;enable-background:accumulate"
     d="m 399.67969,300.49214 c -12.63495,-0.41353 -22.0906,1.40913 -29.2461,4.04492 -9.54066,3.51439 -15.77469,8.16821 -15.63086,8.11523 l 6.63868,18.02735 c 7.0657,-2.60247 9.21988,-5.75298 15.63281,-8.11524 6.41292,-2.36226 16.30286,-4.2455 33.6914,-1.83203 l 2.64063,-19.02929 c -4.95063,-0.68714 -9.51491,-1.0731 -13.72656,-1.21094 z"
     id="path8755"
     inkscape:connector-curvature="0" />
  <path
     style="color:#000000;font-style:normal;font-variant:normal;font-weight:normal;font-stretch:normal;font-size:medium;line-height:normal;font-family:sans-serif;font-variant-ligatures:normal;font-variant-position:normal;font-variant-caps:normal;font-variant-numeric:normal;font-variant-alternates:normal;font-feature-settings:normal;text-indent:0;text-align:start;text-decoration:none;text-decoration-line:none;text-decoration-style:solid;text-decoration-color:#000000;letter-spacing:normal;word-spacing:normal;text-transform:none;writing-mode:lr-tb;direction:ltr;text-orientation:mixed;dominant-baseline:auto;baseline-shift:baseline;text-anchor:start;white-space:normal;shape-padding:0;clip-rule:nonzero;display:inline;overflow:visible;visibility:visible;opacity:1;isolation:auto;mix-blend-mode:normal;color-interpolation:sRGB;color-interpolation-filters:linearRGB;solid-color:#000000;solid-opacity:1;vector-effect:none;fill:#000000;fill-opacity:1;fill-rule:nonzero;stroke:none;stroke-width:19.21117592;stroke-linecap:butt;stroke-linejoin:miter;stroke-miterlimit:4;stroke-dasharray:none;stroke-dashoffset:0;stroke-opacity:1;color-rendering:auto;image-rendering:auto;shape-rendering:auto;text-rendering:auto;enable-background:accumulate"
     d="m 390.84766,148.15425 c -23.25953,-1.41735 -41.91602,9.23633 -41.91602,9.23633 l 9.21875,16.85546 c 0,0 19.59272,-10.12635 38.78711,-5.91406 l 4.11914,-18.76562 c -3.46975,-0.76146 -6.88619,-1.20964 -10.20898,-1.41211 z"
     id="path8757"
     inkscape:connector-curvature="0" />
  <path
     style="color:#000000;font-style:normal;font-variant:normal;font-weight:normal;font-stretch:normal;font-size:medium;line-height:normal;font-family:sans-serif;font-variant-ligatures:normal;font-variant-position:normal;font-variant-caps:normal;font-variant-numeric:normal;font-variant-alternates:normal;font-feature-settings:normal;text-indent:0;text-align:start;text-decoration:none;text-decoration-line:none;text-decoration-style:solid;text-decoration-color:#000000;letter-spacing:normal;word-spacing:normal;text-transform:none;writing-mode:lr-tb;direction:ltr;text-orientation:mixed;dominant-baseline:auto;baseline-shift:baseline;text-anchor:start;white-space:normal;shape-padding:0;clip-rule:nonzero;display:inline;overflow:visible;visibility:visible;opacity:1;isolation:auto;mix-blend-mode:normal;color-interpolation:sRGB;color-interpolation-filters:linearRGB;solid-color:#000000;solid-opacity:1;vector-effect:none;fill:#000000;fill-opacity:1;fill-rule:nonzero;stroke:none;stroke-width:19.21117592;stroke-linecap:butt;stroke-linejoin:miter;stroke-miterlimit:4;stroke-dasharray:none;stroke-dashoffset:0;stroke-opacity:1;color-rendering:auto;image-rendering:auto;shape-rendering:auto;text-rendering:auto;enable-background:accumulate"
     d="m 368.65234,684.2187 c -40.16205,24.01494 -63.25504,30.2389 -74.71875,30.94141 -5.73185,0.35125 -8.49547,-0.57183 -9.55859,-1.05079 -0.53156,-0.23947 -0.65944,-0.37726 -0.56641,-0.29882 0.093,0.0784 0.83399,0.96875 0.83399,0.96875 l -15.65625,11.13281 c 0,0 1.20874,1.54822 2.43945,2.58594 1.23071,1.03771 2.90941,2.15871 5.0586,3.12695 4.29836,1.93648 10.38893,3.21553 18.62304,2.71094 16.46822,-1.00919 41.75855,-8.7268 83.4043,-33.62891 z"
     id="path8759"
     inkscape:connector-curvature="0" />
  <path
     style="color:#000000;font-style:normal;font-variant:normal;font-weight:normal;font-stretch:normal;font-size:medium;line-height:normal;font-family:sans-serif;font-variant-ligatures:normal;font-variant-position:normal;font-variant-caps:normal;font-variant-numeric:normal;font-variant-alternates:normal;font-feature-settings:normal;text-indent:0;text-align:start;text-decoration:none;text-decoration-line:none;text-decoration-style:solid;text-decoration-color:#000000;letter-spacing:normal;word-spacing:normal;text-transform:none;writing-mode:lr-tb;direction:ltr;text-orientation:mixed;dominant-baseline:auto;baseline-shift:baseline;text-anchor:start;white-space:normal;shape-padding:0;clip-rule:nonzero;display:inline;overflow:visible;visibility:visible;opacity:1;isolation:auto;mix-blend-mode:normal;color-interpolation:sRGB;color-interpolation-filters:linearRGB;solid-color:#000000;solid-opacity:1;vector-effect:none;fill:#000000;fill-opacity:1;fill-rule:nonzero;stroke:none;stroke-width:19.21117592;stroke-linecap:butt;stroke-linejoin:miter;stroke-miterlimit:4;stroke-dasharray:none;stroke-dashoffset:0;stroke-opacity:1;color-rendering:auto;image-rendering:auto;shape-rendering:auto;text-rendering:auto;enable-background:accumulate"
     d="m 384.90625,607.64839 c -19.85202,23.16007 -35.93197,35.42425 -50.44141,45.69336 -14.50943,10.2691 -27.97233,18.70963 -40.39062,33.52343 l 14.72266,12.3418 c 10.32314,-12.3145 21.79963,-19.59331 36.76562,-30.18555 14.96599,-10.59223 32.89687,-24.3315 53.92969,-48.86914 z"
     id="path8761"
     inkscape:connector-curvature="0" />
  <path
     style="color:#000000;font-style:normal;font-variant:normal;font-weight:normal;font-stretch:normal;font-size:medium;line-height:normal;font-family:sans-serif;font-variant-ligatures:normal;font-variant-position:normal;font-variant-caps:normal;font-variant-numeric:normal;font-variant-alternates:normal;font-feature-settings:normal;text-indent:0;text-align:start;text-decoration:none;text-decoration-line:none;text-decoration-style:solid;text-decoration-color:#000000;letter-spacing:normal;word-spacing:normal;text-transform:none;writing-mode:lr-tb;direction:ltr;text-orientation:mixed;dominant-baseline:auto;baseline-shift:baseline;text-anchor:start;white-space:normal;shape-padding:0;clip-rule:nonzero;display:inline;overflow:visible;visibility:visible;opacity:1;isolation:auto;mix-blend-mode:normal;color-interpolation:sRGB;color-interpolation-filters:linearRGB;solid-color:#000000;solid-opacity:1;vector-effect:none;fill:#000000;fill-opacity:1;fill-rule:nonzero;stroke:none;stroke-width:12.80745125;stroke-linecap:butt;stroke-linejoin:miter;stroke-miterlimit:4;stroke-dasharray:none;stroke-dashoffset:0;stroke-opacity:1;color-rendering:auto;image-rendering:auto;shape-rendering:auto;text-rendering:auto;enable-background:accumulate"
     d="m 342.02539,608.74018 c -11.89537,21.09917 -24.85058,29.07623 -34.64453,32.29493 -9.79395,3.21869 -15.9668,1.68164 -15.9668,1.68164 l -2.86133,12.48242 c 0,0 10.08596,2.18891 22.82618,-1.99805 12.74021,-4.18696 28.59539,-14.74562 41.80273,-38.17187 z"
     id="path8765"
     inkscape:connector-curvature="0" />
  <path
     style="color:#000000;font-style:normal;font-variant:normal;font-weight:normal;font-stretch:normal;font-size:medium;line-height:normal;font-family:sans-serif;font-variant-ligatures:normal;font-variant-position:normal;font-variant-caps:normal;font-variant-numeric:normal;font-variant-alternates:normal;font-feature-settings:normal;text-indent:0;text-align:start;text-decoration:none;text-decoration-line:none;text-decoration-style:solid;text-decoration-color:#000000;letter-spacing:normal;word-spacing:normal;text-transform:none;writing-mode:lr-tb;direction:ltr;text-orientation:mixed;dominant-baseline:auto;baseline-shift:baseline;text-anchor:start;white-space:normal;shape-padding:0;clip-rule:nonzero;display:inline;overflow:visible;visibility:visible;opacity:1;isolation:auto;mix-blend-mode:normal;color-interpolation:sRGB;color-interpolation-filters:linearRGB;solid-color:#000000;solid-opacity:1;vector-effect:none;fill:#000000;fill-opacity:1;fill-rule:nonzero;stroke:none;stroke-width:12.80745125;stroke-linecap:butt;stroke-linejoin:miter;stroke-miterlimit:4;stroke-dasharray:none;stroke-dashoffset:0;stroke-opacity:1;color-rendering:auto;image-rendering:auto;shape-rendering:auto;text-rendering:auto;enable-background:accumulate"
     d="m 340.0332,560.06831 -12.39062,3.24609 c 8.98018,34.27899 16.77569,54.66544 22.47461,66.69336 2.84946,6.01396 5.17573,9.93964 6.88867,12.46485 1.71294,2.5252 3.22461,4.03711 3.22461,4.03711 l 8.75781,-9.34375 c 0,0 -0.10975,-0.006 -1.38281,-1.88282 -1.27306,-1.87673 -3.29762,-5.23759 -5.91406,-10.75976 -5.2329,-11.04435 -12.82356,-30.7316 -21.65821,-64.45508 z"
     id="path8767"
     inkscape:connector-curvature="0" />
  <path
     style="color:#000000;font-style:normal;font-variant:normal;font-weight:normal;font-stretch:normal;font-size:medium;line-height:normal;font-family:sans-serif;font-variant-ligatures:normal;font-variant-position:normal;font-variant-caps:normal;font-variant-numeric:normal;font-variant-alternates:normal;font-feature-settings:normal;text-indent:0;text-align:start;text-decoration:none;text-decoration-line:none;text-decoration-style:solid;text-decoration-color:#000000;letter-spacing:normal;word-spacing:normal;text-transform:none;writing-mode:lr-tb;direction:ltr;text-orientation:mixed;dominant-baseline:auto;baseline-shift:baseline;text-anchor:start;white-space:normal;shape-padding:0;clip-rule:nonzero;display:inline;overflow:visible;visibility:visible;opacity:1;isolation:auto;mix-blend-mode:normal;color-interpolation:sRGB;color-interpolation-filters:linearRGB;solid-color:#000000;solid-opacity:1;vector-effect:none;fill:#000000;fill-opacity:1;fill-rule:nonzero;stroke:none;stroke-width:25.6149025;stroke-linecap:butt;stroke-linejoin:miter;stroke-miterlimit:4;stroke-dasharray:none;stroke-dashoffset:0;stroke-opacity:1;color-rendering:auto;image-rendering:auto;shape-rendering:auto;text-rendering:auto;enable-background:accumulate"
     d="m 166.63867,361.84956 c -5.80707,5.66965 -27.65428,24.71936 -49.14844,43.92969 -21.494155,19.21033 -42.344224,37.85937 -51.724605,49.79492 l -0.345703,0.43945 -0.306641,0.46875 c -10.832215,16.58248 -20.637333,43.10985 -28.664062,66.51953 -8.02673,23.40968 -13.72461,43.25 -13.72461,43.25 l 24.619141,7.07227 c 0,0 5.542984,-19.28579 13.335938,-42.01367 7.706525,-22.47582 18.132443,-48.65418 25.607421,-60.32422 5.570666,-6.88597 27.258951,-27.3295 48.271481,-46.10938 21.31317,-19.04857 42.06402,-36.97583 49.97461,-44.69922 z"
     id="path8769"
     inkscape:connector-curvature="0" />
  <path
     style="color:#000000;font-style:normal;font-variant:normal;font-weight:normal;font-stretch:normal;font-size:medium;line-height:normal;font-family:sans-serif;font-variant-ligatures:normal;font-variant-position:normal;font-variant-caps:normal;font-variant-numeric:normal;font-variant-alternates:normal;font-feature-settings:normal;text-indent:0;text-align:start;text-decoration:none;text-decoration-line:none;text-decoration-style:solid;text-decoration-color:#000000;letter-spacing:normal;word-spacing:normal;text-transform:none;writing-mode:lr-tb;direction:ltr;text-orientation:mixed;dominant-baseline:auto;baseline-shift:baseline;text-anchor:start;white-space:normal;shape-padding:0;clip-rule:nonzero;display:inline;overflow:visible;visibility:visible;opacity:1;isolation:auto;mix-blend-mode:normal;color-interpolation:sRGB;color-interpolation-filters:linearRGB;solid-color:#000000;solid-opacity:1;vector-effect:none;fill:#000000;fill-opacity:1;fill-rule:nonzero;stroke:none;stroke-width:19.21117592;stroke-linecap:butt;stroke-linejoin:miter;stroke-miterlimit:4;stroke-dasharray:none;stroke-dashoffset:0;stroke-opacity:1;color-rendering:auto;image-rendering:auto;shape-rendering:auto;text-rendering:auto;enable-background:accumulate"
     d="m 44.730469,610.13081 c -2.730034,-0.10948 -5.537266,0.10741 -8.398438,0.73047 -11.444689,2.49225 -21.968962,11.26802 -30.6699216,26.45117 l 16.6679686,9.55273 c 7.045276,-12.29399 13.269393,-16.18269 18.089844,-17.23242 4.820451,-1.04972 10.014617,0.51612 15.636719,4.18555 4.49187,2.93175 8.498979,6.97042 11.947265,10.82422 -14.652559,4.80985 -23.4561,12.92743 -27.751953,21.2207 -5.661599,10.92989 -3.617187,21.58008 -3.617187,21.58008 l 18.851562,-3.69727 c 0,0 -0.816737,-3.94843 1.824219,-9.04687 2.640956,-5.09845 8.670976,-11.90226 28.908203,-14.49609 l 14.83203,-1.9004 -7.896483,-12.69921 c 0,0 -10.214388,-17.18003 -26.597656,-27.87305 -6.143726,-4.00988 -13.636071,-7.27116 -21.826172,-7.59961 z"
     id="path8771"
     inkscape:connector-curvature="0" />
  <path
     style="color:#000000;font-style:normal;font-variant:normal;font-weight:normal;font-stretch:normal;font-size:medium;line-height:normal;font-family:sans-serif;font-variant-ligatures:normal;font-variant-position:normal;font-variant-caps:normal;font-variant-numeric:normal;font-variant-alternates:normal;font-feature-settings:normal;text-indent:0;text-align:start;text-decoration:none;text-decoration-line:none;text-decoration-style:solid;text-decoration-color:#000000;letter-spacing:normal;word-spacing:normal;text-transform:none;writing-mode:lr-tb;direction:ltr;text-orientation:mixed;dominant-baseline:auto;baseline-shift:baseline;text-anchor:start;white-space:normal;shape-padding:0;clip-rule:nonzero;display:inline;overflow:visible;visibility:visible;opacity:1;isolation:auto;mix-blend-mode:normal;color-interpolation:sRGB;color-interpolation-filters:linearRGB;solid-color:#000000;solid-opacity:1;vector-effect:none;fill:#000000;fill-opacity:1;fill-rule:nonzero;stroke:none;stroke-width:19.21117592;stroke-linecap:butt;stroke-linejoin:miter;stroke-miterlimit:4;stroke-dasharray:none;stroke-dashoffset:0;stroke-opacity:1;color-rendering:auto;image-rendering:auto;shape-rendering:auto;text-rendering:auto;enable-background:accumulate"
     d="m 48.541016,521.23432 -2.404297,19.0586 c 3.859139,0.48709 4.295389,1.24741 5.458984,3.71875 1.163595,2.47133 1.818169,7.16353 1.541016,12.24414 -0.406814,7.45747 -2.087157,13.74651 -3.140625,17.34375 -8.180328,3.39882 -15.785157,0.98828 -15.785156,0.98828 l -6.074219,18.22461 c 0,0 17.848691,6.05974 34.941406,-4.3418 l 2.953125,-1.79687 1.130859,-3.26758 c 0,0 4.406345,-12.35667 5.15625,-26.10352 0.374953,-6.87342 0.01352,-14.34832 -3.341797,-21.4746 -3.355316,-7.12629 -10.940043,-13.39527 -20.435546,-14.59376 z"
     id="path8773"
     inkscape:connector-curvature="0" />
  <path
     style="color:#000000;font-style:normal;font-variant:normal;font-weight:normal;font-stretch:normal;font-size:medium;line-height:normal;font-family:sans-serif;font-variant-ligatures:normal;font-variant-position:normal;font-variant-caps:normal;font-variant-numeric:normal;font-variant-alternates:normal;font-feature-settings:normal;text-indent:0;text-align:start;text-decoration:none;text-decoration-line:none;text-decoration-style:solid;text-decoration-color:#000000;letter-spacing:normal;word-spacing:normal;text-transform:none;writing-mode:lr-tb;direction:ltr;text-orientation:mixed;dominant-baseline:auto;baseline-shift:baseline;text-anchor:start;white-space:normal;shape-padding:0;clip-rule:nonzero;display:inline;overflow:visible;visibility:visible;opacity:1;isolation:auto;mix-blend-mode:normal;color-interpolation:sRGB;color-interpolation-filters:linearRGB;solid-color:#000000;solid-opacity:1;vector-effect:none;fill:#000000;fill-opacity:1;fill-rule:nonzero;stroke:none;stroke-width:1.28074515px;stroke-linecap:butt;stroke-linejoin:miter;stroke-miterlimit:4;stroke-dasharray:none;stroke-dashoffset:0;stroke-opacity:1;color-rendering:auto;image-rendering:auto;shape-rendering:auto;text-rendering:auto;enable-background:accumulate"
     d="m 31.361328,544.98237 -0.751953,1.03711 c 0,0 4.519877,3.30599 9.949219,4.5586 l 0.289062,-1.24805 c -5.097562,-1.17606 -9.486328,-4.34766 -9.486328,-4.34766 z"
     id="path8775"
     inkscape:connector-curvature="0" />
  <path
     style="color:#000000;font-style:normal;font-variant:normal;font-weight:normal;font-stretch:normal;font-size:medium;line-height:normal;font-family:sans-serif;font-variant-ligatures:normal;font-variant-position:normal;font-variant-caps:normal;font-variant-numeric:normal;font-variant-alternates:normal;font-feature-settings:normal;text-indent:0;text-align:start;text-decoration:none;text-decoration-line:none;text-decoration-style:solid;text-decoration-color:#000000;letter-spacing:normal;word-spacing:normal;text-transform:none;writing-mode:lr-tb;direction:ltr;text-orientation:mixed;dominant-baseline:auto;baseline-shift:baseline;text-anchor:start;white-space:normal;shape-padding:0;clip-rule:nonzero;display:inline;overflow:visible;visibility:visible;opacity:1;isolation:auto;mix-blend-mode:normal;color-interpolation:sRGB;color-interpolation-filters:linearRGB;solid-color:#000000;solid-opacity:1;vector-effect:none;fill:#000000;fill-opacity:1;fill-rule:nonzero;stroke:none;stroke-width:1.28074515px;stroke-linecap:butt;stroke-linejoin:miter;stroke-miterlimit:4;stroke-dasharray:none;stroke-dashoffset:0;stroke-opacity:1;color-rendering:auto;image-rendering:auto;shape-rendering:auto;text-rendering:auto;enable-background:accumulate"
     d="m 46.957031,500.76558 -0.361328,1.22851 c 0,0 1.668472,0.49359 3.480469,1.42383 1.811997,0.93024 3.685678,2.32109 4.189453,3.83203 l 1.214844,-0.40625 c -0.71087,-2.13206 -2.885199,-3.57396 -4.81836,-4.56641 -1.933161,-0.99244 -3.705078,-1.51171 -3.705078,-1.51171 z"
     id="path8777"
     inkscape:connector-curvature="0" />
  <path
     style="font-style:normal;font-weight:normal;font-size:233.33332825px;line-height:1.25;font-family:sans-serif;letter-spacing:0px;word-spacing:0px;fill:#000000;fill-opacity:1;stroke:none"
     d="M 282.71854,1080.3555 V 1250 h 42.83789 c 15.57075,0 28.1033,-1.0627 37.59766,-3.1894 9.57031,-2.1268 18.22917,-5.584 25.97656,-10.3692 11.16537,-6.9119 20.09137,-16.6334 26.77539,-29.166 6.75999,-12.5325 10.13868,-26.5089 10.13868,-41.9277 0,-16.4822 -3.22744,-30.7238 -9.6836,-42.7246 -6.45616,-12.0009 -15.45681,-21.6085 -27.00195,-28.8242 -6.75998,-4.1776 -15.03972,-7.4443 -24.83789,-9.7989 -9.72222,-2.4305 -22.86176,-3.6445 -39.41992,-3.6445 z m 22.5586,19.3672 h 21.1914 c 10.48177,0 19.48243,0.7602 27.00196,2.2793 7.51953,1.4431 14.62066,4.0636 21.30468,7.8613 9.19054,5.2409 16.10309,12.4186 20.73633,21.5332 4.63325,9.1146 6.94922,20.3173 6.94922,33.6094 0,13.2161 -2.12543,24.2302 -6.3789,33.041 -4.17752,8.8108 -10.48308,15.9119 -18.91407,21.3047 -6.75998,4.3294 -14.20291,7.2917 -22.33008,8.8867 -8.05121,1.5951 -17.50759,2.3926 -28.36914,2.3926 h -21.1914 z"
     id="text961"
     inkscape:connector-curvature="0" />
</svg>
