<?xml version="1.0" encoding="UTF-8" standalone="no"?>
<!-- Created with Inkscape (http://www.inkscape.org/) -->

<svg
   xmlns:dc="http://purl.org/dc/elements/1.1/"
   xmlns:cc="http://creativecommons.org/ns#"
   xmlns:rdf="http://www.w3.org/1999/02/22-rdf-syntax-ns#"
   xmlns:svg="http://www.w3.org/2000/svg"
   xmlns="http://www.w3.org/2000/svg"
   xmlns:sodipodi="http://sodipodi.sourceforge.net/DTD/sodipodi-0.dtd"
   xmlns:inkscape="http://www.inkscape.org/namespaces/inkscape"
   version="1.1"
   id="svg12216"
   width="1000"
   height="1250"
   viewBox="0 0 1000 1250"
   sodipodi:docname="K.svg"
   inkscape:version="0.92.4 (5da689c313, 2019-01-14)">
  <metadata
     id="metadata12222">
    <rdf:RDF>
      <cc:Work
         rdf:about="">
        <dc:format>image/svg+xml</dc:format>
        <dc:type
           rdf:resource="http://purl.org/dc/dcmitype/StillImage" />
        <dc:title></dc:title>
      </cc:Work>
    </rdf:RDF>
  </metadata>
  <defs
     id="defs12220">
    <clipPath
       clipPathUnits="userSpaceOnUse"
       id="clipPath12228">
      <rect
         style="opacity:1;fill:#00000a;fill-opacity:0.04705882;stroke:#000000;stroke-width:14.99999905;stroke-miterlimit:4;stroke-dasharray:none;stroke-opacity:1"
         id="rect12230"
         width="985"
         height="985"
         x="7.4999995"
         y="7.5000005"
         transform="rotate(-90)" />
    </clipPath>
  </defs>
  <sodipodi:namedview
     pagecolor="#ffffff"
     bordercolor="#666666"
     borderopacity="1"
     objecttolerance="10"
     gridtolerance="10"
     guidetolerance="10"
     inkscape:pageopacity="0"
     inkscape:pageshadow="2"
     inkscape:window-width="1366"
     inkscape:window-height="715"
     id="namedview12218"
     showgrid="false"
     inkscape:zoom="0.38628982"
     inkscape:cx="494.05564"
     inkscape:cy="508.19554"
     inkscape:window-x="-8"
     inkscape:window-y="-8"
     inkscape:window-maximized="1"
     inkscape:current-layer="svg12216" />
  <path
     style="color:#000000;font-style:normal;font-variant:normal;font-weight:normal;font-stretch:normal;font-size:medium;line-height:normal;font-family:sans-serif;font-variant-ligatures:normal;font-variant-position:normal;font-variant-caps:normal;font-variant-numeric:normal;font-variant-alternates:normal;font-feature-settings:normal;text-indent:0;text-align:start;text-decoration:none;text-decoration-line:none;text-decoration-style:solid;text-decoration-color:#000000;letter-spacing:normal;word-spacing:normal;text-transform:none;writing-mode:lr-tb;direction:ltr;text-orientation:mixed;dominant-baseline:auto;baseline-shift:baseline;text-anchor:start;white-space:normal;shape-padding:0;clip-rule:nonzero;display:inline;overflow:visible;visibility:visible;opacity:1;isolation:auto;mix-blend-mode:normal;color-interpolation:sRGB;color-interpolation-filters:linearRGB;solid-color:#000000;solid-opacity:1;vector-effect:none;fill:#000000;fill-opacity:1;fill-rule:nonzero;stroke:none;stroke-width:25.43401146;stroke-linecap:butt;stroke-linejoin:miter;stroke-miterlimit:4;stroke-dasharray:none;stroke-dashoffset:0;stroke-opacity:1;color-rendering:auto;image-rendering:auto;shape-rendering:auto;text-rendering:auto;enable-background:accumulate"
     d="m 341.00586,1.85919 c -7.36741,-0.0307 -14.62318,1.72725 -21.05859,4.85156 -25.74165,12.49724 -43.22549,43.86857 -37.68946,77.03711 l 0.0215,0.12696 0.0234,0.125 c 12.14638,64.69644 12.52331,130.99103 11.83789,162.54882 -9.21764,-2.26317 -18.33206,-1.56234 -25.98437,2.06641 -13.28438,6.2995 -21.92615,18.05375 -28.72461,30.05859 -5.16057,9.11263 -8.90954,18.38813 -11.98047,26.86133 -2.61499,-3.96854 -4.73911,-7.02381 -7.86719,-11.96289 -11.82658,-18.67359 -26.78658,-43.36135 -41.43554,-67.92187 -29.295,-49.11616 -57.37135,-97.74225 -57.37696,-97.75196 l -0.004,-0.006 c -9.96539,-17.27532 -24.911639,-27.66412 -40.425663,-31.20103 -15.515889,-3.53733 -31.188862,-0.7046 -44.316406,5.96485 -13.127545,6.66944 -24.095036,17.26181 -29.5136722,30.91992 -5.1055698,12.869 -4.138609,28.67372 4.4667972,42.44922 0.04524,0.12019 0.09361,0.2681 0.134765,0.39648 0.355015,1.10737 0.742604,2.1128 1.197266,3.23242 0.909324,2.23926 2.090646,4.87022 3.564453,8.01563 2.947614,6.29082 7.044194,14.55755 11.947266,24.21679 9.806144,19.31849 22.813657,44.14326 35.820312,68.69922 25.521044,48.18256 50.071182,93.5208 51.027342,95.28711 2.89452,18.60081 14.14525,39.73711 26.00196,59.11524 6.227,10.17717 12.63958,19.47319 18.44726,26.70508 2.90384,3.61594 5.62483,6.70494 8.39648,9.31054 2.04217,1.91982 3.57603,3.89515 6.97071,5.32227 4.61036,4.66857 5.45196,7.47791 5.48828,7.98242 0.041,0.56949 0.14044,0.70999 -1.56445,2.32422 -3.00632,2.84644 -9.40865,5.29399 -11.07032,5.91406 -42.81349,-2.08601 -70.887781,14.04021 -86.607418,31.4961 -11.049318,12.26972 -16.292639,24.83326 -18.652344,31.78124 -29.351333,18.51425 -44.881758,36.77403 -52.689453,51.42383 -4.088368,7.67112 -6.0820337,14.30745 -6.9980469,19.25977 -0.9160131,4.95232 -0.6796875,9.21484 -0.6796875,9.21484 l -0.044922,-1.01953 c 0.364591,85.17022 28.1632974,157.76127 56.9804694,218.46287 28.817171,60.7016 58.247562,110.4985 64.185542,146.0801 l 25.08594,-4.1875 C 140.50095,950.60241 109.78801,901.58131 81.625,842.25761 53.461989,782.93401 27.442727,714.29121 27.101562,634.59357 l -0.002,-0.50977 -0.04297,-0.50781 c 0,0 -0.117233,0.0614 0.345703,-2.44141 0.462936,-2.50281 1.582732,-6.57663 4.433594,-11.92578 5.701723,-10.6983 18.415,-26.68234 47.484374,-44.23633 l 4.667969,-2.81836 1.175781,-5.32617 c 0,0 2.818205,-12.82631 14.46875,-25.76367 11.650547,-12.93736 31.091407,-25.70507 69.033207,-23.0918 l 2.14257,0.14649 2.07227,-0.56446 c 0,0 12.72684,-2.70965 23.01758,-12.45312 5.14537,-4.87174 10.13827,-12.99322 9.44531,-22.61914 -0.69296,-9.62592 -6.28687,-18.39616 -15.51172,-26.77149 l -2.66211,-2.41796 -1.21289,-0.22852 c -0.29322,-0.11325 -0.54884,-0.14736 -1.01953,-0.58984 -1.40161,-1.31764 -3.56625,-3.69348 -5.98633,-6.70704 -4.84016,-6.0271 -10.83021,-14.65094 -16.58398,-24.05468 -11.50755,-18.80749 -21.87903,-42.2811 -22.89063,-51.45118 l -0.27344,-2.47265 -1.18359,-2.1875 c 0,0 -25.95844,-47.94273 -51.900388,-96.91992 -12.970973,-24.4886 -25.940111,-49.24243 -35.617188,-68.30664 -4.838538,-9.53211 -8.860711,-17.65905 -11.595703,-23.4961 -1.367496,-2.91852 -2.418448,-5.28391 -3.03125,-6.79297 -0.131459,-0.32372 -0.145153,-0.38163 -0.232422,-0.61328 v -2.30468 l -2.33789,-3.30274 c -5.769014,-8.1483 -5.772132,-14.30664 -3.152295,-20.91016 2.619837,-6.60351 9.039775,-13.38136 17.392578,-17.625 8.352803,-4.24364 18.25139,-5.86731 27.144531,-3.83984 8.893141,2.02747 17.189816,7.22239 24.048828,19.11524 l 0.002,0.004 0.002,0.002 c 0,0 28.143849,48.74295 57.562499,98.06641 14.70932,24.66173 29.73063,49.46116 41.79101,68.50391 6.03019,9.52137 11.30355,17.58477 15.54883,23.62695 2.12264,3.02109 3.96536,5.52037 5.70117,7.62305 0.86791,1.05134 1.69522,1.99938 2.70899,2.99023 1.01377,0.99085 1.77072,2.11313 5.11133,3.54297 l 14.02929,6.00391 3.37696,-14.88086 c 0,0 6.03295,-25.53231 16.99023,-44.88086 5.47864,-9.67428 12.22748,-17.11284 17.49219,-19.60938 5.26471,-2.49654 9.29551,-3.11267 19.19531,4.79688 l 19.14844,15.29883 1.48437,-24.46289 c 0,0 5.87285,-94.70814 -11.53711,-187.66993 -3.54284,-21.22654 9.97476,-43.30196 23.71094,-49.9707 6.86809,-3.33437 12.57603,-3.56262 18.83203,0.0996 6.18548,3.62095 13.75527,12.59796 19.35742,30.89844 0.17122,1.10309 7.38892,47.61686 15.39649,97.62109 4.05097,25.29676 8.25771,51.19627 11.77148,72.01758 3.34115,19.79837 5.71244,33.50609 7.46289,40.71094 0.22661,2.13886 0.92491,15.8235 1.75782,33.37304 0.83861,17.66971 1.95174,40.1501 3.48242,63.16797 1.53068,23.01788 3.4709,46.55427 6.00781,66.54883 2.38306,18.78201 4.70333,33.51046 9.52734,44.67969 0.37548,1.85871 11.95086,59.44038 10.18555,90.29297 l -0.0918,1.625 0.31836,1.59765 c 0,0 5.78328,28.87285 11.87891,51.53906 0.12273,11.87369 1.77178,33.03039 -0.48438,61.34376 -2.33914,29.35483 -8.90599,64.816 -25.48046,99.24607 l -0.51954,1.0781 -0.30859,1.1563 c 0,0 -29.26762,107.7382 -3.07617,213.4141 l 24.68555,-6.1192 c -23.88436,-96.3673 2.25523,-197.8915 2.80273,-200 17.85411,-37.7051 24.77458,-75.69079 27.25,-106.75584 2.50828,-31.47746 0.51758,-56.90527 0.51758,-65.12891 v -1.70508 l -0.44922,-1.64453 c -5.63833,-20.64703 -11.24426,-48.34318 -11.62695,-50.23827 1.70354,-38.98168 -10.84375,-95.62305 -10.84375,-95.62305 l -0.32032,-1.50586 -0.66992,-1.38476 c -1.93076,-3.99187 -5.63632,-19.94648 -8.0625,-39.06836 -2.42618,-19.12188 -4.34921,-42.29844 -5.86133,-65.03711 -1.51211,-22.73867 -2.62056,-45.05915 -3.45703,-62.68359 -0.83646,-17.62445 -1.25615,-29.47108 -1.89453,-35.20899 l -0.10156,-0.90625 -0.22852,-0.88281 c -0.72261,-2.78361 -3.82813,-19.41997 -7.32031,-40.11328 -3.49218,-20.69332 -7.69348,-46.54841 -11.73828,-71.80664 -8.0896,-50.51648 -15.55859,-98.65039 -15.55859,-98.65039 L 394.06259,54.66989 393.81064,53.832 C 387.01731,31.19566 376.50882,15.7993 362.73828,7.7381 355.85301,3.7075 348.37327,1.88986 341.00586,1.85919 Z M 35.333984,168.65607 c -0.02149,-0.067 0.07008,-0.008 0.16211,0.42773 -0.03854,-0.1074 -0.150678,-0.39208 -0.16211,-0.42773 z M 239.46094,322.80841 c 0.35075,0.28139 0.36914,0.42193 0.37109,0.42383 0.002,0.002 -0.25499,-0.29612 -0.37109,-0.42383 z"
     id="path12253"
     inkscape:connector-curvature="0" />
  <path
     style="color:#000000;font-style:normal;font-variant:normal;font-weight:normal;font-stretch:normal;font-size:medium;line-height:normal;font-family:sans-serif;font-variant-ligatures:normal;font-variant-position:normal;font-variant-caps:normal;font-variant-numeric:normal;font-variant-alternates:normal;font-feature-settings:normal;text-indent:0;text-align:start;text-decoration:none;text-decoration-line:none;text-decoration-style:solid;text-decoration-color:#000000;letter-spacing:normal;word-spacing:normal;text-transform:none;writing-mode:lr-tb;direction:ltr;text-orientation:mixed;dominant-baseline:auto;baseline-shift:baseline;text-anchor:start;white-space:normal;shape-padding:0;clip-rule:nonzero;display:inline;overflow:visible;visibility:visible;opacity:1;isolation:auto;mix-blend-mode:normal;color-interpolation:sRGB;color-interpolation-filters:linearRGB;solid-color:#000000;solid-opacity:1;vector-effect:none;fill:#000000;fill-opacity:1;fill-rule:nonzero;stroke:none;stroke-width:25.43401146;stroke-linecap:butt;stroke-linejoin:miter;stroke-miterlimit:4;stroke-dasharray:none;stroke-dashoffset:0;stroke-opacity:1;color-rendering:auto;image-rendering:auto;shape-rendering:auto;text-rendering:auto;enable-background:accumulate"
     d="m 244.70898,331.15021 -25.07812,4.24609 c 0,0 1.68088,9.93223 2.88476,22.56836 1.20389,12.63613 1.66203,28.18815 0.13282,36.58789 l -0.38672,2.11719 0.33398,2.125 c 0,0 1.32895,8.52156 3.84766,18.98047 2.34362,9.73188 5.49053,21.00595 10.77734,30.64843 0.92101,3.92833 13.4004,56.50482 27.77539,89.29688 0.18164,3.93737 0.80525,10.71311 4.38868,21.54883 5.02518,15.19537 15.30911,36.78448 36.15039,64.36328 l 0.36523,0.48437 0.41211,0.44727 c 0,0 5.81288,6.33645 13.57812,13.69726 7.76525,7.36082 17.12353,15.80506 27.05274,21.09376 l 11.95703,-22.44727 c -5.16855,-2.75298 -14.43081,-10.39139 -21.51172,-17.10352 -6.83977,-6.48355 -11.57786,-11.64231 -11.91992,-12.01367 -19.13499,-25.42432 -27.93048,-44.39712 -31.93555,-56.50781 -4.03348,-12.1966 -3.41601,-15.83203 -3.41601,-15.83203 l 0.23047,-3.21289 -1.32813,-2.9336 c -12.90672,-28.54202 -27.39648,-88.16992 -27.39648,-88.16992 l -0.45508,-1.91797 -1.01563,-1.6914 c -3.00883,-5.00822 -6.71821,-16.31109 -8.98046,-25.70508 -1.91506,-7.95226 -2.87376,-13.5848 -3.17969,-15.43555 1.92841,-13.12092 1.05609,-28.08663 -0.15821,-40.83203 -1.29697,-13.61321 -3.125,-24.40234 -3.125,-24.40234 z"
     id="path12255"
     inkscape:connector-curvature="0" />
  <path
     style="color:#000000;font-style:normal;font-variant:normal;font-weight:normal;font-stretch:normal;font-size:medium;line-height:normal;font-family:sans-serif;font-variant-ligatures:normal;font-variant-position:normal;font-variant-caps:normal;font-variant-numeric:normal;font-variant-alternates:normal;font-feature-settings:normal;text-indent:0;text-align:start;text-decoration:none;text-decoration-line:none;text-decoration-style:solid;text-decoration-color:#000000;letter-spacing:normal;word-spacing:normal;text-transform:none;writing-mode:lr-tb;direction:ltr;text-orientation:mixed;dominant-baseline:auto;baseline-shift:baseline;text-anchor:start;white-space:normal;shape-padding:0;clip-rule:nonzero;display:inline;overflow:visible;visibility:visible;opacity:1;isolation:auto;mix-blend-mode:normal;color-interpolation:sRGB;color-interpolation-filters:linearRGB;solid-color:#000000;solid-opacity:1;vector-effect:none;fill:#000000;fill-opacity:1;fill-rule:nonzero;stroke:none;stroke-width:25.43401146;stroke-linecap:butt;stroke-linejoin:miter;stroke-miterlimit:4;stroke-dasharray:none;stroke-dashoffset:0;stroke-opacity:1;color-rendering:auto;image-rendering:auto;shape-rendering:auto;text-rendering:auto;enable-background:accumulate"
     d="m 316.78906,259.43536 -21.20117,14.04883 c 0,0 -0.93571,-1.84732 -0.66601,-1.05273 0.26969,0.79458 0.88183,2.84701 1.67773,6.65429 1.5918,7.61457 3.93198,22.23634 6.41992,48.57422 l 0.12109,1.27735 0.37305,1.22656 c 0,0 4.38361,14.43071 10.83399,31.56641 6.1678,16.38501 13.75871,34.82912 23.18554,47.93359 1.19888,2.96755 36.73145,90.72767 65.08594,134.77734 L 424.00586,530.6756 C 398.49288,491.04031 360.67383,399.07013 360.67383,399.07013 l -0.63867,-1.57031 -1.0293,-1.34766 c -6.06317,-7.94757 -14.72436,-27.09528 -20.85547,-43.38281 -5.78033,-15.35568 -9.53335,-27.53917 -9.97656,-28.98438 -2.47992,-25.80629 -4.82527,-41.04284 -6.67774,-49.90429 -0.94795,-4.53462 -1.76657,-7.49292 -2.49023,-9.625 -0.72366,-2.13208 -2.2168,-4.82032 -2.2168,-4.82032 z"
     id="path12257"
     inkscape:connector-curvature="0" />
  <path
     style="color:#000000;font-style:normal;font-variant:normal;font-weight:normal;font-stretch:normal;font-size:medium;line-height:normal;font-family:sans-serif;font-variant-ligatures:normal;font-variant-position:normal;font-variant-caps:normal;font-variant-numeric:normal;font-variant-alternates:normal;font-feature-settings:normal;text-indent:0;text-align:start;text-decoration:none;text-decoration-line:none;text-decoration-style:solid;text-decoration-color:#000000;letter-spacing:normal;word-spacing:normal;text-transform:none;writing-mode:lr-tb;direction:ltr;text-orientation:mixed;dominant-baseline:auto;baseline-shift:baseline;text-anchor:start;white-space:normal;shape-padding:0;clip-rule:nonzero;display:inline;overflow:visible;visibility:visible;opacity:1;isolation:auto;mix-blend-mode:normal;color-interpolation:sRGB;color-interpolation-filters:linearRGB;solid-color:#000000;solid-opacity:1;vector-effect:none;fill:#000000;fill-opacity:1;fill-rule:nonzero;stroke:none;stroke-width:25.43401146;stroke-linecap:butt;stroke-linejoin:miter;stroke-miterlimit:4;stroke-dasharray:none;stroke-dashoffset:0;stroke-opacity:1;color-rendering:auto;image-rendering:auto;shape-rendering:auto;text-rendering:auto;enable-background:accumulate"
     d="m 69.427734,551.81036 c 0,0 -1.904874,0.63713 -2.798828,1.12696 -0.893954,0.48982 -1.719152,1.08527 -2.425781,1.72265 -1.413258,1.27476 -2.333921,2.67306 -2.927734,3.86914 -1.187628,2.39218 -1.32061,4.0271 -1.410157,5.35742 -0.179093,2.66066 0.121713,4.50243 0.671875,7.34571 1.100325,5.68656 3.605823,14.9211 9.65625,32.79687 11.744627,34.69909 37.461531,102.82769 91.433591,233.2188 -5.302,1.4178 -13.09532,1.7399 -23.32226,-2.5606 -20.75366,-8.727 -54.122207,-41.3099 -86.306643,-141.19921 l -24.207031,7.79883 c 33.239256,103.16308 68.817375,143.45808 100.654294,156.84568 31.83692,13.3876 57.22852,-5.0136 57.22852,-5.0136 l 7.54687,-5.9668 -3.6875,-8.8848 C 132.21576,700.18141 106.01734,630.5429 94.283203,595.87482 c -5.867067,-17.33405 -8.109038,-26.03085 -8.775391,-29.47461 -0.333176,-1.72188 -0.168871,-2.24404 -0.265624,-0.80664 -0.04838,0.7187 -0.08596,2.02731 -1.1875,4.24609 -0.550771,1.10939 -1.430905,2.45907 -2.814454,3.70703 -0.691774,0.62398 -1.505121,1.21012 -2.390625,1.69531 -0.885503,0.4852 -2.785156,1.1211 -2.785156,1.1211 z"
     id="path12259"
     inkscape:connector-curvature="0" />
  <path
     style="color:#000000;font-style:normal;font-variant:normal;font-weight:normal;font-stretch:normal;font-size:medium;line-height:normal;font-family:sans-serif;font-variant-ligatures:normal;font-variant-position:normal;font-variant-caps:normal;font-variant-numeric:normal;font-variant-alternates:normal;font-feature-settings:normal;text-indent:0;text-align:start;text-decoration:none;text-decoration-line:none;text-decoration-style:solid;text-decoration-color:#000000;letter-spacing:normal;word-spacing:normal;text-transform:none;writing-mode:lr-tb;direction:ltr;text-orientation:mixed;dominant-baseline:auto;baseline-shift:baseline;text-anchor:start;white-space:normal;shape-padding:0;clip-rule:nonzero;display:inline;overflow:visible;visibility:visible;opacity:1;isolation:auto;mix-blend-mode:normal;color-interpolation:sRGB;color-interpolation-filters:linearRGB;solid-color:#000000;solid-opacity:1;vector-effect:none;fill:#000000;fill-opacity:1;fill-rule:nonzero;stroke:none;stroke-width:25.43401146;stroke-linecap:butt;stroke-linejoin:miter;stroke-miterlimit:4;stroke-dasharray:none;stroke-dashoffset:0;stroke-opacity:1;color-rendering:auto;image-rendering:auto;shape-rendering:auto;text-rendering:auto;enable-background:accumulate"
     d="m 228.64062,557.99005 -25.21093,3.36719 c 0.46693,3.49741 -1.10427,10.91096 -3.47657,16.83398 -2.37229,5.92303 -4.88476,10.11524 -4.88476,10.11524 l -1.36914,2.28125 -0.3418,2.63867 c -0.87413,6.76569 0.0356,13.34736 1.47461,21.75 1.43897,8.40264 3.65135,18.20375 6.39258,28.98633 5.48246,21.56515 13.08473,47.00666 20.80078,71.45117 15.43211,48.88903 31.34375,93.77933 31.34375,93.77933 l -0.0273,-0.074 c 3.78487,10.8949 2.55961,19.3358 -1.23438,26.6133 -3.79398,7.2774 -10.68329,13.3197 -18.79297,16.789 -8.10968,3.4694 -17.17822,4.2434 -24.8789,2 -7.70069,-2.2434 -14.3373,-7.0293 -19.23633,-16.9902 l -22.82227,11.2246 c 7.77338,15.8051 20.83187,26.0745 34.94336,30.1855 14.1115,4.111 28.97024,2.5382 41.99805,-3.0351 13.02781,-5.5734 24.48744,-15.2683 31.3418,-28.416 6.85435,-13.1478 8.57742,-29.8205 2.70703,-46.7188 l -0.0137,-0.037 -0.0117,-0.037 c 0,0 -15.7958,-44.5744 -31.0625,-92.93944 -7.63336,-24.18252 -15.1296,-49.3146 -20.4043,-70.0625 -2.63735,-10.37395 -4.71643,-19.66477 -5.97461,-27.01172 -1.02864,-6.00659 -1.25878,-10.29182 -1.26758,-12.47266 1.32075,-2.45371 3.05605,-5.88447 4.92969,-10.5625 3.16355,-7.89861 6.62424,-18.07746 5.07812,-29.6582 z"
     id="path12261"
     inkscape:connector-curvature="0" />
  <path
     style="color:#000000;font-style:normal;font-variant:normal;font-weight:normal;font-stretch:normal;font-size:medium;line-height:normal;font-family:sans-serif;font-variant-ligatures:normal;font-variant-position:normal;font-variant-caps:normal;font-variant-numeric:normal;font-variant-alternates:normal;font-feature-settings:normal;text-indent:0;text-align:start;text-decoration:none;text-decoration-line:none;text-decoration-style:solid;text-decoration-color:#000000;letter-spacing:normal;word-spacing:normal;text-transform:none;writing-mode:lr-tb;direction:ltr;text-orientation:mixed;dominant-baseline:auto;baseline-shift:baseline;text-anchor:start;white-space:normal;shape-padding:0;clip-rule:nonzero;display:inline;overflow:visible;visibility:visible;opacity:1;isolation:auto;mix-blend-mode:normal;color-interpolation:sRGB;color-interpolation-filters:linearRGB;solid-color:#000000;solid-opacity:1;vector-effect:none;fill:#000000;fill-opacity:1;fill-rule:nonzero;stroke:none;stroke-width:19.07551003;stroke-linecap:butt;stroke-linejoin:miter;stroke-miterlimit:4;stroke-dasharray:none;stroke-dashoffset:0;stroke-opacity:1;color-rendering:auto;image-rendering:auto;shape-rendering:auto;text-rendering:auto;enable-background:accumulate"
     d="m 204.32422,564.25177 -18.85156,2.9043 c 2.48925,16.15929 12.1875,32.38086 12.1875,32.38086 l 16.62109,-9.36133 c 0,0 -8.42025,-15.94764 -9.95703,-25.92383 z"
     id="path12263"
     inkscape:connector-curvature="0" />
  <path
     style="color:#000000;font-style:normal;font-variant:normal;font-weight:normal;font-stretch:normal;font-size:medium;line-height:normal;font-family:sans-serif;font-variant-ligatures:normal;font-variant-position:normal;font-variant-caps:normal;font-variant-numeric:normal;font-variant-alternates:normal;font-feature-settings:normal;text-indent:0;text-align:start;text-decoration:none;text-decoration-line:none;text-decoration-style:solid;text-decoration-color:#000000;letter-spacing:normal;word-spacing:normal;text-transform:none;writing-mode:lr-tb;direction:ltr;text-orientation:mixed;dominant-baseline:auto;baseline-shift:baseline;text-anchor:start;white-space:normal;shape-padding:0;clip-rule:nonzero;display:inline;overflow:visible;visibility:visible;opacity:1;isolation:auto;mix-blend-mode:normal;color-interpolation:sRGB;color-interpolation-filters:linearRGB;solid-color:#000000;solid-opacity:1;vector-effect:none;fill:#000000;fill-opacity:1;fill-rule:nonzero;stroke:none;stroke-width:19.07551003;stroke-linecap:butt;stroke-linejoin:miter;stroke-miterlimit:4;stroke-dasharray:none;stroke-dashoffset:0;stroke-opacity:1;color-rendering:auto;image-rendering:auto;shape-rendering:auto;text-rendering:auto;enable-background:accumulate"
     d="m 133.45508,252.24982 c -1.9852,6.35131 -6.68195,8.80629 -12.54492,10.36132 -5.86298,1.55504 -11.27344,1.21094 -11.27344,1.21094 l -1.44531,19.01953 c 0,0 8.23648,0.693 17.60937,-1.79297 9.37289,-2.48596 21.49834,-9.14874 25.86133,-23.10742 z"
     id="path12265"
     inkscape:connector-curvature="0" />
  <path
     style="color:#000000;font-style:normal;font-variant:normal;font-weight:normal;font-stretch:normal;font-size:medium;line-height:normal;font-family:sans-serif;font-variant-ligatures:normal;font-variant-position:normal;font-variant-caps:normal;font-variant-numeric:normal;font-variant-alternates:normal;font-feature-settings:normal;text-indent:0;text-align:start;text-decoration:none;text-decoration-line:none;text-decoration-style:solid;text-decoration-color:#000000;letter-spacing:normal;word-spacing:normal;text-transform:none;writing-mode:lr-tb;direction:ltr;text-orientation:mixed;dominant-baseline:auto;baseline-shift:baseline;text-anchor:start;white-space:normal;shape-padding:0;clip-rule:nonzero;display:inline;overflow:visible;visibility:visible;opacity:1;isolation:auto;mix-blend-mode:normal;color-interpolation:sRGB;color-interpolation-filters:linearRGB;solid-color:#000000;solid-opacity:1;vector-effect:none;fill:#000000;fill-opacity:1;fill-rule:nonzero;stroke:none;stroke-width:19.07551003;stroke-linecap:butt;stroke-linejoin:miter;stroke-miterlimit:4;stroke-dasharray:none;stroke-dashoffset:0;stroke-opacity:1;color-rendering:auto;image-rendering:auto;shape-rendering:auto;text-rendering:auto;enable-background:accumulate"
     d="m 190.39648,368.43536 c -1.85424,3.70366 -6.9023,7.13906 -12.1875,9.20899 -5.28519,2.06993 -9.75976,2.69922 -9.75976,2.69922 l 2.57422,18.90039 c 0,0 6.59467,-0.87982 14.14258,-3.83594 7.5479,-2.95612 17.09572,-8.06431 22.2871,-18.43359 z"
     id="path12267"
     inkscape:connector-curvature="0" />
  <path
     style="color:#000000;font-style:normal;font-variant:normal;font-weight:normal;font-stretch:normal;font-size:medium;line-height:normal;font-family:sans-serif;font-variant-ligatures:normal;font-variant-position:normal;font-variant-caps:normal;font-variant-numeric:normal;font-variant-alternates:normal;font-feature-settings:normal;text-indent:0;text-align:start;text-decoration:none;text-decoration-line:none;text-decoration-style:solid;text-decoration-color:#000000;letter-spacing:normal;word-spacing:normal;text-transform:none;writing-mode:lr-tb;direction:ltr;text-orientation:mixed;dominant-baseline:auto;baseline-shift:baseline;text-anchor:start;white-space:normal;shape-padding:0;clip-rule:nonzero;display:inline;overflow:visible;visibility:visible;opacity:1;isolation:auto;mix-blend-mode:normal;color-interpolation:sRGB;color-interpolation-filters:linearRGB;solid-color:#000000;solid-opacity:1;vector-effect:none;fill:#000000;fill-opacity:1;fill-rule:nonzero;stroke:none;stroke-width:19.07551003;stroke-linecap:butt;stroke-linejoin:miter;stroke-miterlimit:4;stroke-dasharray:none;stroke-dashoffset:0;stroke-opacity:1;color-rendering:auto;image-rendering:auto;shape-rendering:auto;text-rendering:auto;enable-background:accumulate"
     d="m 272.35547,418.88263 c -1.46526,0.13068 -2.85503,0.40283 -4.10156,0.76367 -4.98612,1.44337 -9.10268,3.97442 -12.79883,6.58008 -7.39231,5.21131 -13.09961,11.25781 -13.09961,11.25781 l 13.78906,13.17969 c 0,0 4.86193,-5.01013 10.30274,-8.8457 2.7204,-1.91779 5.58652,-3.40822 7.11132,-3.84961 1.52481,-0.4414 0.29021,-0.18104 -0.44531,-0.83399 l 12.66406,-14.26562 c -3.94864,-3.50535 -9.02611,-4.37836 -13.42187,-3.98633 z"
     id="path12269"
     inkscape:connector-curvature="0" />
  <path
     style="color:#000000;font-style:normal;font-variant:normal;font-weight:normal;font-stretch:normal;font-size:medium;line-height:normal;font-family:sans-serif;font-variant-ligatures:normal;font-variant-position:normal;font-variant-caps:normal;font-variant-numeric:normal;font-variant-alternates:normal;font-feature-settings:normal;text-indent:0;text-align:start;text-decoration:none;text-decoration-line:none;text-decoration-style:solid;text-decoration-color:#000000;letter-spacing:normal;word-spacing:normal;text-transform:none;writing-mode:lr-tb;direction:ltr;text-orientation:mixed;dominant-baseline:auto;baseline-shift:baseline;text-anchor:start;white-space:normal;shape-padding:0;clip-rule:nonzero;display:inline;overflow:visible;visibility:visible;opacity:1;isolation:auto;mix-blend-mode:normal;color-interpolation:sRGB;color-interpolation-filters:linearRGB;solid-color:#000000;solid-opacity:1;vector-effect:none;fill:#000000;fill-opacity:1;fill-rule:nonzero;stroke:none;stroke-width:19.07551003;stroke-linecap:butt;stroke-linejoin:miter;stroke-miterlimit:4;stroke-dasharray:none;stroke-dashoffset:0;stroke-opacity:1;color-rendering:auto;image-rendering:auto;shape-rendering:auto;text-rendering:auto;enable-background:accumulate"
     d="m 360.55664,161.04279 c -1.97684,1.18455 -8.12756,2.25235 -13.47266,2.12695 -5.34509,-0.12541 -9.55078,-0.88867 -9.55078,-0.88867 l -3.44336,18.76172 c 0,0 5.58418,1.0339 12.54688,1.19726 6.9627,0.16336 15.63626,0.0127 23.72461,-4.83398 z"
     id="path12271"
     inkscape:connector-curvature="0" />
  <path
     style="color:#000000;font-style:normal;font-variant:normal;font-weight:normal;font-stretch:normal;font-size:medium;line-height:normal;font-family:sans-serif;font-variant-ligatures:normal;font-variant-position:normal;font-variant-caps:normal;font-variant-numeric:normal;font-variant-alternates:normal;font-feature-settings:normal;text-indent:0;text-align:start;text-decoration:none;text-decoration-line:none;text-decoration-style:solid;text-decoration-color:#000000;letter-spacing:normal;word-spacing:normal;text-transform:none;writing-mode:lr-tb;direction:ltr;text-orientation:mixed;dominant-baseline:auto;baseline-shift:baseline;text-anchor:start;white-space:normal;shape-padding:0;clip-rule:nonzero;display:inline;overflow:visible;visibility:visible;opacity:1;isolation:auto;mix-blend-mode:normal;color-interpolation:sRGB;color-interpolation-filters:linearRGB;solid-color:#000000;solid-opacity:1;vector-effect:none;fill:#000000;fill-opacity:1;fill-rule:nonzero;stroke:none;stroke-width:19.07551003;stroke-linecap:butt;stroke-linejoin:miter;stroke-miterlimit:4;stroke-dasharray:none;stroke-dashoffset:0;stroke-opacity:1;color-rendering:auto;image-rendering:auto;shape-rendering:auto;text-rendering:auto;enable-background:accumulate"
     d="m 369.97852,285.95489 c -11.80406,9.80202 -14.44429,2.72465 -27.84961,0.90235 l -2.57032,18.90234 c 2.62926,0.35742 23.8045,10.48332 42.60547,-5.1289 z"
     id="path12273"
     inkscape:connector-curvature="0" />
  <path
     style="color:#000000;font-style:normal;font-variant:normal;font-weight:normal;font-stretch:normal;font-size:medium;line-height:normal;font-family:sans-serif;font-variant-ligatures:normal;font-variant-position:normal;font-variant-caps:normal;font-variant-numeric:normal;font-variant-alternates:normal;font-feature-settings:normal;text-indent:0;text-align:start;text-decoration:none;text-decoration-line:none;text-decoration-style:solid;text-decoration-color:#000000;letter-spacing:normal;word-spacing:normal;text-transform:none;writing-mode:lr-tb;direction:ltr;text-orientation:mixed;dominant-baseline:auto;baseline-shift:baseline;text-anchor:start;white-space:normal;shape-padding:0;clip-rule:nonzero;display:inline;overflow:visible;visibility:visible;opacity:1;isolation:auto;mix-blend-mode:normal;color-interpolation:sRGB;color-interpolation-filters:linearRGB;solid-color:#000000;solid-opacity:1;vector-effect:none;fill:#000000;fill-opacity:1;fill-rule:nonzero;stroke:none;stroke-width:19.07551003;stroke-linecap:butt;stroke-linejoin:miter;stroke-miterlimit:4;stroke-dasharray:none;stroke-dashoffset:0;stroke-opacity:1;color-rendering:auto;image-rendering:auto;shape-rendering:auto;text-rendering:auto;enable-background:accumulate"
     d="m 240.56641,858.80651 -8.80274,16.9218 c 0,0 12.41025,6.4621 27.82422,12.8008 15.41397,6.3387 33.15135,13.0571 48.45508,12.3926 l -0.82813,-19.0586 c -7.84617,0.3407 -25.84113,-5.0014 -40.37109,-10.9766 -14.52996,-5.9751 -26.27734,-12.08 -26.27734,-12.08 z"
     id="path12275"
     inkscape:connector-curvature="0" />
  <path
     style="color:#000000;font-style:normal;font-variant:normal;font-weight:normal;font-stretch:normal;font-size:medium;line-height:normal;font-family:sans-serif;font-variant-ligatures:normal;font-variant-position:normal;font-variant-caps:normal;font-variant-numeric:normal;font-variant-alternates:normal;font-feature-settings:normal;text-indent:0;text-align:start;text-decoration:none;text-decoration-line:none;text-decoration-style:solid;text-decoration-color:#000000;letter-spacing:normal;word-spacing:normal;text-transform:none;writing-mode:lr-tb;direction:ltr;text-orientation:mixed;dominant-baseline:auto;baseline-shift:baseline;text-anchor:start;white-space:normal;shape-padding:0;clip-rule:nonzero;display:inline;overflow:visible;visibility:visible;opacity:1;isolation:auto;mix-blend-mode:normal;color-interpolation:sRGB;color-interpolation-filters:linearRGB;solid-color:#000000;solid-opacity:1;vector-effect:none;fill:#000000;fill-opacity:1;fill-rule:nonzero;stroke:none;stroke-width:19.07551003;stroke-linecap:butt;stroke-linejoin:miter;stroke-miterlimit:4;stroke-dasharray:none;stroke-dashoffset:0;stroke-opacity:1;color-rendering:auto;image-rendering:auto;shape-rendering:auto;text-rendering:auto;enable-background:accumulate"
     d="m 181.37695,947.80061 c -4.36849,5.5262 -16.87867,9.2862 -29.00781,10.0937 -12.12914,0.8076 -22.64258,-0.5644 -22.64258,-0.5644 l -2.51758,18.9082 c 0,0 12.13382,1.641 26.42579,0.6894 14.29196,-0.9515 31.97776,-3.7241 42.70703,-17.2968 z"
     id="path12277"
     inkscape:connector-curvature="0" />
  <path
     style="color:#000000;font-style:normal;font-variant:normal;font-weight:normal;font-stretch:normal;font-size:medium;line-height:normal;font-family:sans-serif;font-variant-ligatures:normal;font-variant-position:normal;font-variant-caps:normal;font-variant-numeric:normal;font-variant-alternates:normal;font-feature-settings:normal;text-indent:0;text-align:start;text-decoration:none;text-decoration-line:none;text-decoration-style:solid;text-decoration-color:#000000;letter-spacing:normal;word-spacing:normal;text-transform:none;writing-mode:lr-tb;direction:ltr;text-orientation:mixed;dominant-baseline:auto;baseline-shift:baseline;text-anchor:start;white-space:normal;shape-padding:0;clip-rule:nonzero;display:inline;overflow:visible;visibility:visible;opacity:1;isolation:auto;mix-blend-mode:normal;color-interpolation:sRGB;color-interpolation-filters:linearRGB;solid-color:#000000;solid-opacity:1;vector-effect:none;fill:#000000;fill-opacity:1;fill-rule:nonzero;stroke:none;stroke-width:19.07551003;stroke-linecap:butt;stroke-linejoin:miter;stroke-miterlimit:4;stroke-dasharray:none;stroke-dashoffset:0;stroke-opacity:1;color-rendering:auto;image-rendering:auto;shape-rendering:auto;text-rendering:auto;enable-background:accumulate"
     d="m 245.97266,455.02911 c -22.82143,27.17482 -50.1543,17.16211 -50.1543,17.16211 l -5.86524,18.15235 c 0,0 41.10947,12.10134 70.62696,-23.04688 z"
     id="path12279"
     inkscape:connector-curvature="0" />
  <path
     style="color:#000000;font-style:normal;font-variant:normal;font-weight:normal;font-stretch:normal;font-size:medium;line-height:normal;font-family:sans-serif;font-variant-ligatures:normal;font-variant-position:normal;font-variant-caps:normal;font-variant-numeric:normal;font-variant-alternates:normal;font-feature-settings:normal;text-indent:0;text-align:start;text-decoration:none;text-decoration-line:none;text-decoration-style:solid;text-decoration-color:#000000;letter-spacing:normal;word-spacing:normal;text-transform:none;writing-mode:lr-tb;direction:ltr;text-orientation:mixed;dominant-baseline:auto;baseline-shift:baseline;text-anchor:start;white-space:normal;shape-padding:0;clip-rule:nonzero;display:inline;overflow:visible;visibility:visible;opacity:1;isolation:auto;mix-blend-mode:normal;color-interpolation:sRGB;color-interpolation-filters:linearRGB;solid-color:#000000;solid-opacity:1;vector-effect:none;fill:#000000;fill-opacity:1;fill-rule:nonzero;stroke:none;stroke-width:19.07551003;stroke-linecap:butt;stroke-linejoin:miter;stroke-miterlimit:4;stroke-dasharray:none;stroke-dashoffset:0;stroke-opacity:1;color-rendering:auto;image-rendering:auto;shape-rendering:auto;text-rendering:auto;enable-background:accumulate"
     d="m 401.02148,500.04669 -3.5996,18.73242 c 0,0 6.85873,1.3217 15.07421,2.24805 8.21549,0.92635 17.0922,2.11137 25.69727,-0.4668 l -5.47461,-18.27343 c -1.4601,0.43746 -10.70039,0.61792 -18.08594,-0.21485 -7.38554,-0.83276 -13.61133,-2.02539 -13.61133,-2.02539 z"
     id="path12281"
     inkscape:connector-curvature="0" />
  <path
     style="color:#000000;font-style:normal;font-variant:normal;font-weight:normal;font-stretch:normal;font-size:medium;line-height:normal;font-family:sans-serif;font-variant-ligatures:normal;font-variant-position:normal;font-variant-caps:normal;font-variant-numeric:normal;font-variant-alternates:normal;font-feature-settings:normal;text-indent:0;text-align:start;text-decoration:none;text-decoration-line:none;text-decoration-style:solid;text-decoration-color:#000000;letter-spacing:normal;word-spacing:normal;text-transform:none;writing-mode:lr-tb;direction:ltr;text-orientation:mixed;dominant-baseline:auto;baseline-shift:baseline;text-anchor:start;white-space:normal;shape-padding:0;clip-rule:nonzero;display:inline;overflow:visible;visibility:visible;opacity:1;isolation:auto;mix-blend-mode:normal;color-interpolation:sRGB;color-interpolation-filters:linearRGB;solid-color:#000000;solid-opacity:1;vector-effect:none;fill:#000000;fill-opacity:1;fill-rule:nonzero;stroke:none;stroke-width:19.07551003;stroke-linecap:butt;stroke-linejoin:miter;stroke-miterlimit:4;stroke-dasharray:none;stroke-dashoffset:0;stroke-opacity:1;color-rendering:auto;image-rendering:auto;shape-rendering:auto;text-rendering:auto;enable-background:accumulate"
     d="m 148.83008,770.44511 c 0,0 -6.06081,1.1448 -13.17774,3.8457 -7.11693,2.7009 -15.8994,6.6921 -21.93945,14.9864 l -1.82812,2.5097 v 3.1055 c 0,2.1418 0.15269,1.7332 0.19921,1.9648 0.0465,0.2317 0.0821,0.3753 0.11719,0.5215 0.0701,0.2925 0.14089,0.5646 0.22852,0.8867 0.17525,0.6443 0.4093,1.4542 0.71289,2.4375 0.60718,1.9666 1.48502,4.6039 2.63867,7.6289 2.30729,6.0501 5.63876,13.61 10.40625,20.4297 4.76749,6.8198 11.29536,13.782 21.30078,14.9551 10.00543,1.1731 19.86591,-4.9726 27.94531,-16.0703 l -15.42187,-11.2266 c -6.01186,8.2578 -8.98483,8.5041 -10.30274,8.3496 -1.31791,-0.1545 -4.60402,-2.2389 -7.88867,-6.9375 -3.28465,-4.6986 -6.24443,-11.1301 -8.21484,-16.2968 -0.59463,-1.5592 -0.92891,-2.6441 -1.34961,-3.8985 2.72899,-2.0456 6.47945,-4.1134 10.16406,-5.5117 5.46456,-2.0738 9.97461,-2.9414 9.97461,-2.9414 z"
     id="path12283"
     inkscape:connector-curvature="0" />
  <path
     style="color:#000000;font-style:normal;font-variant:normal;font-weight:normal;font-stretch:normal;font-size:medium;line-height:normal;font-family:sans-serif;font-variant-ligatures:normal;font-variant-position:normal;font-variant-caps:normal;font-variant-numeric:normal;font-variant-alternates:normal;font-feature-settings:normal;text-indent:0;text-align:start;text-decoration:none;text-decoration-line:none;text-decoration-style:solid;text-decoration-color:#000000;letter-spacing:normal;word-spacing:normal;text-transform:none;writing-mode:lr-tb;direction:ltr;text-orientation:mixed;dominant-baseline:auto;baseline-shift:baseline;text-anchor:start;white-space:normal;shape-padding:0;clip-rule:nonzero;display:inline;overflow:visible;visibility:visible;opacity:1;isolation:auto;mix-blend-mode:normal;color-interpolation:sRGB;color-interpolation-filters:linearRGB;solid-color:#000000;solid-opacity:1;vector-effect:none;fill:#000000;fill-opacity:1;fill-rule:nonzero;stroke:none;stroke-width:19.07551003;stroke-linecap:butt;stroke-linejoin:miter;stroke-miterlimit:4;stroke-dasharray:none;stroke-dashoffset:0;stroke-opacity:1;color-rendering:auto;image-rendering:auto;shape-rendering:auto;text-rendering:auto;enable-background:accumulate"
     d="m 214.18555,776.70491 c -11.16003,0.2533 -20.60133,4.4049 -27.23047,9.4902 -10.60662,8.1366 -15.6836,18.5 -15.6836,18.5 l -1.55859,3.1133 0.81445,3.3848 c 5.09059,21.2 14.49896,35.2527 26.46875,42.455 11.96979,7.2024 25.92627,6.6485 36.61329,0.8301 10.68701,-5.8184 18.61174,-16.6517 20.47851,-29.748 1.86677,-13.0963 -2.69773,-28.0753 -14.94141,-41.334 l -1.38086,-1.4961 -1.87304,-0.8027 c -7.69657,-3.2943 -15.01101,-4.5446 -21.70703,-4.3926 z m 0.084,18.6504 c 3.45849,-0.018 7.47047,0.797 12.0625,2.5312 7.92846,9.2501 9.82091,17.4889 8.87109,24.1524 -1.0038,7.0422 -5.31713,12.7468 -10.71484,15.6855 -5.39771,2.9387 -11.37146,3.361 -17.6582,-0.4219 -5.80794,-3.4947 -12.27389,-11.6916 -16.62696,-26.9726 1.59106,-2.4151 4.05387,-5.6957 8.36133,-9 4.22239,-3.2391 9.07165,-5.9408 15.70508,-5.9746 z"
     id="path12285"
     inkscape:connector-curvature="0" />
  <path
     style="color:#000000;font-style:normal;font-variant:normal;font-weight:normal;font-stretch:normal;font-size:medium;line-height:normal;font-family:sans-serif;font-variant-ligatures:normal;font-variant-position:normal;font-variant-caps:normal;font-variant-numeric:normal;font-variant-alternates:normal;font-feature-settings:normal;text-indent:0;text-align:start;text-decoration:none;text-decoration-line:none;text-decoration-style:solid;text-decoration-color:#000000;letter-spacing:normal;word-spacing:normal;text-transform:none;writing-mode:lr-tb;direction:ltr;text-orientation:mixed;dominant-baseline:auto;baseline-shift:baseline;text-anchor:start;white-space:normal;shape-padding:0;clip-rule:nonzero;display:inline;overflow:visible;visibility:visible;opacity:1;isolation:auto;mix-blend-mode:normal;color-interpolation:sRGB;color-interpolation-filters:linearRGB;solid-color:#000000;solid-opacity:1;vector-effect:none;fill:#000000;fill-opacity:1;fill-rule:nonzero;stroke:none;stroke-width:19.07551003;stroke-linecap:butt;stroke-linejoin:miter;stroke-miterlimit:4;stroke-dasharray:none;stroke-dashoffset:0;stroke-opacity:1;color-rendering:auto;image-rendering:auto;shape-rendering:auto;text-rendering:auto;enable-background:accumulate"
     d="m 303.61523,257.27521 c -13.78653,3.86243 -23.74362,11.42047 -29.8164,20.44922 -6.07279,9.02874 -8.34962,19.10556 -8.90625,28.19726 -1.11326,18.1834 4.55273,33.76758 4.55273,33.76758 l 1.87305,5.31055 5.55469,0.92578 c 28.26221,4.70425 45.79297,-12.9668 45.79297,-12.9668 l -13.97071,-12.98828 c 0,0 -6.95641,8.28623 -22.71289,7.69531 -1.21331,-4.85529 -2.58639,-11.83175 -2.05078,-20.58008 0.41332,-6.7509 2.0895,-13.35388 5.69531,-18.71484 3.60581,-5.36096 9.0516,-9.90166 19.13477,-12.72656 z"
     id="path12287"
     inkscape:connector-curvature="0" />
  <path
     style="color:#000000;font-style:normal;font-variant:normal;font-weight:normal;font-stretch:normal;font-size:medium;line-height:normal;font-family:sans-serif;font-variant-ligatures:normal;font-variant-position:normal;font-variant-caps:normal;font-variant-numeric:normal;font-variant-alternates:normal;font-feature-settings:normal;text-indent:0;text-align:start;text-decoration:none;text-decoration-line:none;text-decoration-style:solid;text-decoration-color:#000000;letter-spacing:normal;word-spacing:normal;text-transform:none;writing-mode:lr-tb;direction:ltr;text-orientation:mixed;dominant-baseline:auto;baseline-shift:baseline;text-anchor:start;white-space:normal;shape-padding:0;clip-rule:nonzero;display:inline;overflow:visible;visibility:visible;opacity:1;isolation:auto;mix-blend-mode:normal;color-interpolation:sRGB;color-interpolation-filters:linearRGB;solid-color:#000000;solid-opacity:1;vector-effect:none;fill:#000000;fill-opacity:1;fill-rule:nonzero;stroke:none;stroke-width:19.07551003;stroke-linecap:butt;stroke-linejoin:miter;stroke-miterlimit:4;stroke-dasharray:none;stroke-dashoffset:0;stroke-opacity:1;color-rendering:auto;image-rendering:auto;shape-rendering:auto;text-rendering:auto;enable-background:accumulate"
     d="m 260.04492,509.79279 c -19.33262,34.65445 -34.52483,54.1145 -44.52344,64.6875 -4.9993,5.28649 -8.69781,8.35417 -10.96289,10.01562 -2.26507,1.66145 -2.38672,1.61133 -2.38671,1.61133 l 7.59765,17.49805 c 0,0 2.77004,-1.30631 6.07227,-3.72852 3.30222,-2.42222 7.84411,-6.26695 13.53906,-12.28906 11.38991,-12.04423 27.40066,-32.79172 47.32226,-68.50196 z"
     id="path12291"
     inkscape:connector-curvature="0" />
  <path
     style="color:#000000;font-style:normal;font-variant:normal;font-weight:normal;font-stretch:normal;font-size:medium;line-height:normal;font-family:sans-serif;font-variant-ligatures:normal;font-variant-position:normal;font-variant-caps:normal;font-variant-numeric:normal;font-variant-alternates:normal;font-feature-settings:normal;text-indent:0;text-align:start;text-decoration:none;text-decoration-line:none;text-decoration-style:solid;text-decoration-color:#000000;letter-spacing:normal;word-spacing:normal;text-transform:none;writing-mode:lr-tb;direction:ltr;text-orientation:mixed;dominant-baseline:auto;baseline-shift:baseline;text-anchor:start;white-space:normal;shape-padding:0;clip-rule:nonzero;display:inline;overflow:visible;visibility:visible;opacity:1;isolation:auto;mix-blend-mode:normal;color-interpolation:sRGB;color-interpolation-filters:linearRGB;solid-color:#000000;solid-opacity:1;vector-effect:none;fill:#000000;fill-opacity:1;fill-rule:nonzero;stroke:none;stroke-width:19.07551003;stroke-linecap:butt;stroke-linejoin:miter;stroke-miterlimit:4;stroke-dasharray:none;stroke-dashoffset:0;stroke-opacity:1;color-rendering:auto;image-rendering:auto;shape-rendering:auto;text-rendering:auto;enable-background:accumulate"
     d="m 273.22266,537.367 c -17.42569,15.00262 -32.16714,43.48609 -44.06055,68.90235 -11.89341,25.41626 -20.06445,47.61328 -20.06445,47.61328 l 17.90039,6.5918 c 0,0 7.93326,-21.52816 19.4414,-46.1211 11.50815,-24.59294 27.46515,-52.40164 39.22852,-62.5293 z"
     id="path12293"
     inkscape:connector-curvature="0" />
  <path
     style="color:#000000;font-style:normal;font-variant:normal;font-weight:normal;font-stretch:normal;font-size:medium;line-height:normal;font-family:sans-serif;font-variant-ligatures:normal;font-variant-position:normal;font-variant-caps:normal;font-variant-numeric:normal;font-variant-alternates:normal;font-feature-settings:normal;text-indent:0;text-align:start;text-decoration:none;text-decoration-line:none;text-decoration-style:solid;text-decoration-color:#000000;letter-spacing:normal;word-spacing:normal;text-transform:none;writing-mode:lr-tb;direction:ltr;text-orientation:mixed;dominant-baseline:auto;baseline-shift:baseline;text-anchor:start;white-space:normal;shape-padding:0;clip-rule:nonzero;display:inline;overflow:visible;visibility:visible;opacity:1;isolation:auto;mix-blend-mode:normal;color-interpolation:sRGB;color-interpolation-filters:linearRGB;solid-color:#000000;solid-opacity:1;vector-effect:none;fill:#000000;fill-opacity:1;fill-rule:nonzero;stroke:none;stroke-width:25.43401146;stroke-linecap:butt;stroke-linejoin:miter;stroke-miterlimit:4;stroke-dasharray:none;stroke-dashoffset:0;stroke-opacity:1;color-rendering:auto;image-rendering:auto;shape-rendering:auto;text-rendering:auto;enable-background:accumulate"
     d="m 179.02148,496.81036 -18.96484,16.94922 c 0,0 4.82527,5.23916 11.88672,18.81055 7.06145,13.57139 15.74173,34.77098 21.54297,64.70508 l 24.96875,-4.83789 c -6.27698,-32.38891 -15.81489,-55.97405 -23.94922,-71.60743 -8.13433,-15.63337 -15.48438,-24.01953 -15.48438,-24.01953 z"
     id="path12840"
     inkscape:connector-curvature="0" />
  <path
     style="font-style:normal;font-weight:normal;font-size:233.33332825px;line-height:1.25;font-family:sans-serif;letter-spacing:0px;word-spacing:0px;fill:#000000;fill-opacity:1;stroke:none"
     d="M 201.97852 1080.3555 L 201.97852 1250 L 224.53711 1250 L 224.53711 1192.4648 L 241.39844 1174.4629 L 308.50586 1250 L 337.78516 1250 L 258.48828 1160.1074 L 334.25391 1080.3555 L 306.91016 1080.3555 L 224.53711 1168.8809 L 224.53711 1080.3555 L 201.97852 1080.3555 z "
     id="text1336" />
</svg>
