<?xml version="1.0" encoding="UTF-8" standalone="no"?>
<!-- Created with Inkscape (http://www.inkscape.org/) -->

<svg
   xmlns:dc="http://purl.org/dc/elements/1.1/"
   xmlns:cc="http://creativecommons.org/ns#"
   xmlns:rdf="http://www.w3.org/1999/02/22-rdf-syntax-ns#"
   xmlns:svg="http://www.w3.org/2000/svg"
   xmlns="http://www.w3.org/2000/svg"
   xmlns:sodipodi="http://sodipodi.sourceforge.net/DTD/sodipodi-0.dtd"
   xmlns:inkscape="http://www.inkscape.org/namespaces/inkscape"
   version="1.1"
   id="svg12216"
   width="1000"
   height="1250"
   viewBox="0 0 1000 1250"
   sodipodi:docname="P.svg"
   inkscape:version="0.92.4 (5da689c313, 2019-01-14)">
  <metadata
     id="metadata12222">
    <rdf:RDF>
      <cc:Work
         rdf:about="">
        <dc:format>image/svg+xml</dc:format>
        <dc:type
           rdf:resource="http://purl.org/dc/dcmitype/StillImage" />
        <dc:title></dc:title>
      </cc:Work>
    </rdf:RDF>
  </metadata>
  <defs
     id="defs12220">
    <clipPath
       clipPathUnits="userSpaceOnUse"
       id="clipPath12228">
      <rect
         style="opacity:1;fill:#00000a;fill-opacity:0.04705882;stroke:#000000;stroke-width:14.99999905;stroke-miterlimit:4;stroke-dasharray:none;stroke-opacity:1"
         id="rect12230"
         width="985"
         height="985"
         x="7.4999995"
         y="7.5000005"
         transform="rotate(-90)" />
    </clipPath>
  </defs>
  <sodipodi:namedview
     pagecolor="#ffffff"
     bordercolor="#666666"
     borderopacity="1"
     objecttolerance="10"
     gridtolerance="10"
     guidetolerance="10"
     inkscape:pageopacity="0"
     inkscape:pageshadow="2"
     inkscape:window-width="1366"
     inkscape:window-height="715"
     id="namedview12218"
     showgrid="false"
     inkscape:zoom="0.27314815"
     inkscape:cx="1222.5179"
     inkscape:cy="656.27337"
     inkscape:window-x="-8"
     inkscape:window-y="-8"
     inkscape:window-maximized="1"
     inkscape:current-layer="svg12216" />
  <path
     style="color:#000000;font-style:normal;font-variant:normal;font-weight:normal;font-stretch:normal;font-size:medium;line-height:normal;font-family:sans-serif;font-variant-ligatures:normal;font-variant-position:normal;font-variant-caps:normal;font-variant-numeric:normal;font-variant-alternates:normal;font-feature-settings:normal;text-indent:0;text-align:start;text-decoration:none;text-decoration-line:none;text-decoration-style:solid;text-decoration-color:#000000;letter-spacing:normal;word-spacing:normal;text-transform:none;writing-mode:lr-tb;direction:ltr;text-orientation:mixed;dominant-baseline:auto;baseline-shift:baseline;text-anchor:start;white-space:normal;shape-padding:0;clip-rule:nonzero;display:inline;overflow:visible;visibility:visible;opacity:1;isolation:auto;mix-blend-mode:normal;color-interpolation:sRGB;color-interpolation-filters:linearRGB;solid-color:#000000;solid-opacity:1;vector-effect:none;fill:#000000;fill-opacity:1;fill-rule:nonzero;stroke:none;stroke-width:41.86457825;stroke-linecap:butt;stroke-linejoin:miter;stroke-miterlimit:4;stroke-dasharray:none;stroke-dashoffset:0;stroke-opacity:1;color-rendering:auto;image-rendering:auto;shape-rendering:auto;text-rendering:auto;enable-background:accumulate"
     d="m 772.22461,575.07789 c -32.76826,0.14023 -59.07149,4.72123 -78.58008,10.06641 -26.01145,7.12691 -41.41015,16.49023 -41.41015,16.49023 l 22.17578,35.50781 c 0,0 8.73964,-5.7146 30.29687,-11.62109 21.55723,-5.90649 54.46389,-11.12709 98.79297,-7.26172 l 3.63672,-41.70508 c -12.347,-1.07662 -23.98936,-1.5233 -34.91211,-1.47656 z"
     id="path2634"
     inkscape:connector-curvature="0" />
  <path
     style="color:#000000;font-style:normal;font-variant:normal;font-weight:normal;font-stretch:normal;font-size:medium;line-height:normal;font-family:sans-serif;font-variant-ligatures:normal;font-variant-position:normal;font-variant-caps:normal;font-variant-numeric:normal;font-variant-alternates:normal;font-feature-settings:normal;text-indent:0;text-align:start;text-decoration:none;text-decoration-line:none;text-decoration-style:solid;text-decoration-color:#000000;letter-spacing:normal;word-spacing:normal;text-transform:none;writing-mode:lr-tb;direction:ltr;text-orientation:mixed;dominant-baseline:auto;baseline-shift:baseline;text-anchor:start;white-space:normal;shape-padding:0;clip-rule:nonzero;display:inline;overflow:visible;visibility:visible;opacity:1;isolation:auto;mix-blend-mode:normal;color-interpolation:sRGB;color-interpolation-filters:linearRGB;solid-color:#000000;solid-opacity:1;vector-effect:none;fill:#000000;fill-opacity:1;fill-rule:nonzero;stroke:none;stroke-width:31.39843369;stroke-linecap:butt;stroke-linejoin:miter;stroke-miterlimit:4;stroke-dasharray:none;stroke-dashoffset:0;stroke-opacity:1;color-rendering:auto;image-rendering:auto;shape-rendering:auto;text-rendering:auto;enable-background:accumulate"
     d="m 776.24219,437.96461 -29.25586,11.39453 c 14.30192,36.71742 49.50896,76.87302 81.29687,109.95899 31.78792,33.08596 60.42578,58.08593 60.42578,58.08593 l 20.65235,-23.65039 c 0,0 -27.70086,-24.19768 -58.4375,-56.18945 -30.73664,-31.99177 -64.24022,-72.79328 -74.68164,-99.59961 z"
     id="path2632"
     inkscape:connector-curvature="0" />
  <path
     style="color:#000000;font-style:normal;font-variant:normal;font-weight:normal;font-stretch:normal;font-size:medium;line-height:normal;font-family:sans-serif;font-variant-ligatures:normal;font-variant-position:normal;font-variant-caps:normal;font-variant-numeric:normal;font-variant-alternates:normal;font-feature-settings:normal;text-indent:0;text-align:start;text-decoration:none;text-decoration-line:none;text-decoration-style:solid;text-decoration-color:#000000;letter-spacing:normal;word-spacing:normal;text-transform:none;writing-mode:lr-tb;direction:ltr;text-orientation:mixed;dominant-baseline:auto;baseline-shift:baseline;text-anchor:start;white-space:normal;shape-padding:0;clip-rule:nonzero;display:inline;overflow:visible;visibility:visible;opacity:1;isolation:auto;mix-blend-mode:normal;color-interpolation:sRGB;color-interpolation-filters:linearRGB;solid-color:#000000;solid-opacity:1;vector-effect:none;fill:#000000;fill-opacity:1;fill-rule:nonzero;stroke:none;stroke-width:31.39843369;stroke-linecap:butt;stroke-linejoin:miter;stroke-miterlimit:4;stroke-dasharray:none;stroke-dashoffset:0;stroke-opacity:1;color-rendering:auto;image-rendering:auto;shape-rendering:auto;text-rendering:auto;enable-background:accumulate"
     d="m 726.33008,438.90602 -24.13086,20.08984 c 42.14897,50.62557 64.21073,86.77064 75.61719,109.70703 11.40645,22.93639 11.91406,30.58203 11.91406,30.58203 l 31.17383,-3.7539 c 0,0 -2.24226,-15.20606 -14.97461,-40.8086 -12.73235,-25.60253 -36.19795,-63.68621 -79.59961,-115.8164 z"
     id="path2630"
     inkscape:connector-curvature="0" />
  <path
     style="color:#000000;font-style:normal;font-variant:normal;font-weight:normal;font-stretch:normal;font-size:medium;line-height:normal;font-family:sans-serif;font-variant-ligatures:normal;font-variant-position:normal;font-variant-caps:normal;font-variant-numeric:normal;font-variant-alternates:normal;font-feature-settings:normal;text-indent:0;text-align:start;text-decoration:none;text-decoration-line:none;text-decoration-style:solid;text-decoration-color:#000000;letter-spacing:normal;word-spacing:normal;text-transform:none;writing-mode:lr-tb;direction:ltr;text-orientation:mixed;dominant-baseline:auto;baseline-shift:baseline;text-anchor:start;white-space:normal;shape-padding:0;clip-rule:nonzero;display:inline;overflow:visible;visibility:visible;opacity:1;isolation:auto;mix-blend-mode:normal;color-interpolation:sRGB;color-interpolation-filters:linearRGB;solid-color:#000000;solid-opacity:1;vector-effect:none;fill:#000000;fill-opacity:1;fill-rule:nonzero;stroke:none;stroke-width:31.39843369;stroke-linecap:butt;stroke-linejoin:miter;stroke-miterlimit:4;stroke-dasharray:none;stroke-dashoffset:0;stroke-opacity:1;color-rendering:auto;image-rendering:auto;shape-rendering:auto;text-rendering:auto;enable-background:accumulate"
     d="m 389.96094,264.43922 -31.39844,0.28711 c 0.46365,50.49599 28.30179,78.5735 54.76562,89.5293 26.46384,10.95579 51.94922,8.2207 51.94922,8.2207 l 9.83008,-0.94141 3.4082,-9.26953 c 17.03184,-46.33813 -0.83593,-83.13086 -0.83593,-83.13086 l -28.00781,14.19336 c 0,0 9.78951,18.48014 2.44335,47.76758 -7.13791,-0.43649 -16.92064,-1.77098 -26.77734,-5.85156 -18.08711,-7.48791 -35.00728,-20.54362 -35.37695,-60.80469 z"
     id="path2628"
     inkscape:connector-curvature="0" />
  <path
     style="color:#000000;font-style:normal;font-variant:normal;font-weight:normal;font-stretch:normal;font-size:medium;line-height:normal;font-family:sans-serif;font-variant-ligatures:normal;font-variant-position:normal;font-variant-caps:normal;font-variant-numeric:normal;font-variant-alternates:normal;font-feature-settings:normal;text-indent:0;text-align:start;text-decoration:none;text-decoration-line:none;text-decoration-style:solid;text-decoration-color:#000000;letter-spacing:normal;word-spacing:normal;text-transform:none;writing-mode:lr-tb;direction:ltr;text-orientation:mixed;dominant-baseline:auto;baseline-shift:baseline;text-anchor:start;white-space:normal;shape-padding:0;clip-rule:nonzero;display:inline;overflow:visible;visibility:visible;opacity:1;isolation:auto;mix-blend-mode:normal;color-interpolation:sRGB;color-interpolation-filters:linearRGB;solid-color:#000000;solid-opacity:1;vector-effect:none;fill:#000000;fill-opacity:1;fill-rule:nonzero;stroke:none;stroke-width:31.39843369;stroke-linecap:butt;stroke-linejoin:miter;stroke-miterlimit:4;stroke-dasharray:none;stroke-dashoffset:0;stroke-opacity:1;color-rendering:auto;image-rendering:auto;shape-rendering:auto;text-rendering:auto;enable-background:accumulate"
     d="m 1130.4883,617.08375 c -14.2179,-0.69387 -29.8423,3.47411 -44.9356,13.28516 l -2.8632,1.86132 -1.8301,2.88086 c -20.1275,31.67271 -18.4266,63.15432 -11.1524,84.88672 7.2743,21.73241 20.0489,35.707 20.0489,35.707 l 4.4687,4.9063 6.6309,0.2148 c 33.2003,1.0738 58.3983,-9.74697 73.2011,-27.40818 14.8028,-17.6612 18.6267,-40.47586 14.6661,-60.78124 -3.9607,-20.30539 -15.6461,-39.22434 -34.5801,-49.22071 -7.1003,-3.74864 -15.1236,-5.91571 -23.6543,-6.33203 z m -1.9805,30.87109 c 4.1056,0.26706 7.6937,1.49334 10.9766,3.22657 8.7544,4.62195 16.0232,15.17947 18.4199,27.46679 2.3967,12.28733 -0.019,25.18203 -7.9121,34.59961 -7.1198,8.49465 -19.266,15.47004 -40.8399,16.14453 -2.9044,-4.1194 -6.5807,-10.12423 -9.6718,-19.35937 -4.8959,-14.62688 -6.7014,-32.99863 6.2226,-55.13086 9.2334,-5.45048 16.6384,-7.34837 22.8047,-6.94727 z"
     id="path2626"
     inkscape:connector-curvature="0" />
  <path
     style="color:#000000;font-style:normal;font-variant:normal;font-weight:normal;font-stretch:normal;font-size:medium;line-height:normal;font-family:sans-serif;font-variant-ligatures:normal;font-variant-position:normal;font-variant-caps:normal;font-variant-numeric:normal;font-variant-alternates:normal;font-feature-settings:normal;text-indent:0;text-align:start;text-decoration:none;text-decoration-line:none;text-decoration-style:solid;text-decoration-color:#000000;letter-spacing:normal;word-spacing:normal;text-transform:none;writing-mode:lr-tb;direction:ltr;text-orientation:mixed;dominant-baseline:auto;baseline-shift:baseline;text-anchor:start;white-space:normal;shape-padding:0;clip-rule:nonzero;display:inline;overflow:visible;visibility:visible;opacity:1;isolation:auto;mix-blend-mode:normal;color-interpolation:sRGB;color-interpolation-filters:linearRGB;solid-color:#000000;solid-opacity:1;vector-effect:none;fill:#000000;fill-opacity:1;fill-rule:nonzero;stroke:none;stroke-width:31.39843369;stroke-linecap:butt;stroke-linejoin:miter;stroke-miterlimit:4;stroke-dasharray:none;stroke-dashoffset:0;stroke-opacity:1;color-rendering:auto;image-rendering:auto;shape-rendering:auto;text-rendering:auto;enable-background:accumulate"
     d="m 1128.5605,764.09941 -26.2851,17.1718 c 9.6546,14.7778 9.5722,22.331 8.3242,26.2129 -1.248,3.882 -5.2135,7.7317 -12.7246,11.1055 -7.5111,3.3738 -17.4783,5.5058 -25.3652,6.5098 -1.5006,0.191 -2.3874,0.2035 -3.711,0.3281 -2.0087,-6.2444 -3.6197,-14.3034 -4.2246,-21.6934 -0.9069,-11.0793 -0.3906,-19.8593 -0.3906,-19.8593 l -31.3438,-1.8731 c 0,0 -0.658,10.8615 0.4414,24.293 1.0995,13.4314 3.2159,29.8354 12.461,43.9902 l 2.998,4.5918 5.2051,1.7246 c 3.9919,1.3232 3.38,0.7299 3.834,0.7656 0.454,0.036 0.7222,0.046 0.9863,0.055 0.5282,0.017 0.9858,0.02 1.5176,0.018 1.0637,-0.01 2.3604,-0.038 3.9356,-0.1113 3.1503,-0.1468 7.3628,-0.4592 12.2558,-1.082 9.786,-1.2457 22.227,-3.6082 34.2656,-9.0156 12.0386,-5.4075 24.765,-14.6242 29.752,-30.1368 4.987,-15.5126 0.685,-33.6825 -11.9317,-52.9941 z m -67.8867,61.8496 c 0.029,10e-4 0.2186,0.065 0.2539,0.068 -0.1604,0 -0.4376,0.014 -0.5625,0.016 0.054,-0.036 0.048,-0.096 0.3086,-0.084 z"
     id="path2624"
     inkscape:connector-curvature="0" />
  <path
     style="color:#000000;font-style:normal;font-variant:normal;font-weight:normal;font-stretch:normal;font-size:medium;line-height:normal;font-family:sans-serif;font-variant-ligatures:normal;font-variant-position:normal;font-variant-caps:normal;font-variant-numeric:normal;font-variant-alternates:normal;font-feature-settings:normal;text-indent:0;text-align:start;text-decoration:none;text-decoration-line:none;text-decoration-style:solid;text-decoration-color:#000000;letter-spacing:normal;word-spacing:normal;text-transform:none;writing-mode:lr-tb;direction:ltr;text-orientation:mixed;dominant-baseline:auto;baseline-shift:baseline;text-anchor:start;white-space:normal;shape-padding:0;clip-rule:nonzero;display:inline;overflow:visible;visibility:visible;opacity:1;isolation:auto;mix-blend-mode:normal;color-interpolation:sRGB;color-interpolation-filters:linearRGB;solid-color:#000000;solid-opacity:1;vector-effect:none;fill:#000000;fill-opacity:1;fill-rule:nonzero;stroke:none;stroke-width:41.86457825;stroke-linecap:butt;stroke-linejoin:miter;stroke-miterlimit:4;stroke-dasharray:none;stroke-dashoffset:0;stroke-opacity:1;color-rendering:auto;image-rendering:auto;shape-rendering:auto;text-rendering:auto;enable-background:accumulate"
     d="m 794.87891,151.56813 -41.85352,0.99218 c 0.071,2.99722 -3.22025,19.30654 -7.23047,31.94336 -4.01021,12.63682 -8.08398,23.04297 -8.08398,23.04297 l 38.97656,15.2793 c 0,0 4.52961,-11.54051 9.00977,-25.65821 4.48016,-14.11769 9.56618,-29.36924 9.18164,-45.5996 z"
     id="path2622"
     inkscape:connector-curvature="0" />
  <path
     style="color:#000000;font-style:normal;font-variant:normal;font-weight:normal;font-stretch:normal;font-size:medium;line-height:normal;font-family:sans-serif;font-variant-ligatures:normal;font-variant-position:normal;font-variant-caps:normal;font-variant-numeric:normal;font-variant-alternates:normal;font-feature-settings:normal;text-indent:0;text-align:start;text-decoration:none;text-decoration-line:none;text-decoration-style:solid;text-decoration-color:#000000;letter-spacing:normal;word-spacing:normal;text-transform:none;writing-mode:lr-tb;direction:ltr;text-orientation:mixed;dominant-baseline:auto;baseline-shift:baseline;text-anchor:start;white-space:normal;shape-padding:0;clip-rule:nonzero;display:inline;overflow:visible;visibility:visible;opacity:1;isolation:auto;mix-blend-mode:normal;color-interpolation:sRGB;color-interpolation-filters:linearRGB;solid-color:#000000;solid-opacity:1;vector-effect:none;fill:#000000;fill-opacity:1;fill-rule:nonzero;stroke:none;stroke-width:41.86457825;stroke-linecap:butt;stroke-linejoin:miter;stroke-miterlimit:4;stroke-dasharray:none;stroke-dashoffset:0;stroke-opacity:1;color-rendering:auto;image-rendering:auto;shape-rendering:auto;text-rendering:auto;enable-background:accumulate"
     d="m 650.54492,440.10133 -36.4414,20.60937 c 29.39062,51.96912 5.27929,96.31055 5.27929,96.31055 l 37.09571,19.40625 c 0,0 33.719,-66.21161 -5.9336,-136.32617 z"
     id="path2620"
     inkscape:connector-curvature="0" />
  <path
     style="color:#000000;font-style:normal;font-variant:normal;font-weight:normal;font-stretch:normal;font-size:medium;line-height:normal;font-family:sans-serif;font-variant-ligatures:normal;font-variant-position:normal;font-variant-caps:normal;font-variant-numeric:normal;font-variant-alternates:normal;font-feature-settings:normal;text-indent:0;text-align:start;text-decoration:none;text-decoration-line:none;text-decoration-style:solid;text-decoration-color:#000000;letter-spacing:normal;word-spacing:normal;text-transform:none;writing-mode:lr-tb;direction:ltr;text-orientation:mixed;dominant-baseline:auto;baseline-shift:baseline;text-anchor:start;white-space:normal;shape-padding:0;clip-rule:nonzero;display:inline;overflow:visible;visibility:visible;opacity:1;isolation:auto;mix-blend-mode:normal;color-interpolation:sRGB;color-interpolation-filters:linearRGB;solid-color:#000000;solid-opacity:1;vector-effect:none;fill:#000000;fill-opacity:1;fill-rule:nonzero;stroke:none;stroke-width:31.39843369;stroke-linecap:butt;stroke-linejoin:miter;stroke-miterlimit:4;stroke-dasharray:none;stroke-dashoffset:0;stroke-opacity:1;color-rendering:auto;image-rendering:auto;shape-rendering:auto;text-rendering:auto;enable-background:accumulate"
     d="m 1325.2031,789.60521 -26.9004,16.1934 c 6.7438,11.2028 7.365,36.9875 3.793,59.3223 -3.572,22.3347 -9.6738,40.5625 -9.6738,40.5625 l 29.7617,10.0078 c 0,0 6.8825,-20.3909 10.916,-45.6114 4.0335,-25.2204 6.8789,-55.9297 -7.8965,-80.4746 z"
     id="path2618"
     inkscape:connector-curvature="0" />
  <path
     style="color:#000000;font-style:normal;font-variant:normal;font-weight:normal;font-stretch:normal;font-size:medium;line-height:normal;font-family:sans-serif;font-variant-ligatures:normal;font-variant-position:normal;font-variant-caps:normal;font-variant-numeric:normal;font-variant-alternates:normal;font-feature-settings:normal;text-indent:0;text-align:start;text-decoration:none;text-decoration-line:none;text-decoration-style:solid;text-decoration-color:#000000;letter-spacing:normal;word-spacing:normal;text-transform:none;writing-mode:lr-tb;direction:ltr;text-orientation:mixed;dominant-baseline:auto;baseline-shift:baseline;text-anchor:start;white-space:normal;shape-padding:0;clip-rule:nonzero;display:inline;overflow:visible;visibility:visible;opacity:1;isolation:auto;mix-blend-mode:normal;color-interpolation:sRGB;color-interpolation-filters:linearRGB;solid-color:#000000;solid-opacity:1;vector-effect:none;fill:#000000;fill-opacity:1;fill-rule:nonzero;stroke:none;stroke-width:31.39843369;stroke-linecap:butt;stroke-linejoin:miter;stroke-miterlimit:4;stroke-dasharray:none;stroke-dashoffset:0;stroke-opacity:1;color-rendering:auto;image-rendering:auto;shape-rendering:auto;text-rendering:auto;enable-background:accumulate"
     d="m 1252.7031,555.37477 c -2.8236,15.73771 -17.4717,44.59131 -31.625,67.52929 -14.1533,22.93799 -27.4004,40.8418 -27.4004,40.8418 l 25.2364,18.68164 c 0,0 13.9679,-18.85847 28.8867,-43.03711 14.9188,-24.17863 31.2,-52.79509 35.8066,-78.4707 z"
     id="path2616"
     inkscape:connector-curvature="0" />
  <path
     style="color:#000000;font-style:normal;font-variant:normal;font-weight:normal;font-stretch:normal;font-size:medium;line-height:normal;font-family:sans-serif;font-variant-ligatures:normal;font-variant-position:normal;font-variant-caps:normal;font-variant-numeric:normal;font-variant-alternates:normal;font-feature-settings:normal;text-indent:0;text-align:start;text-decoration:none;text-decoration-line:none;text-decoration-style:solid;text-decoration-color:#000000;letter-spacing:normal;word-spacing:normal;text-transform:none;writing-mode:lr-tb;direction:ltr;text-orientation:mixed;dominant-baseline:auto;baseline-shift:baseline;text-anchor:start;white-space:normal;shape-padding:0;clip-rule:nonzero;display:inline;overflow:visible;visibility:visible;opacity:1;isolation:auto;mix-blend-mode:normal;color-interpolation:sRGB;color-interpolation-filters:linearRGB;solid-color:#000000;solid-opacity:1;vector-effect:none;fill:#000000;fill-opacity:1;fill-rule:nonzero;stroke:none;stroke-width:31.39843369;stroke-linecap:butt;stroke-linejoin:miter;stroke-miterlimit:4;stroke-dasharray:none;stroke-dashoffset:0;stroke-opacity:1;color-rendering:auto;image-rendering:auto;shape-rendering:auto;text-rendering:auto;enable-background:accumulate"
     d="m 454.10352,148.24781 -29.42969,10.94532 c 10.05833,27.04443 -2.26035,32.32506 -9.33789,53.21289 l 29.73828,10.07617 c 2.18012,-6.43416 23.57794,-35.11659 9.0293,-74.23438 z"
     id="path2614"
     inkscape:connector-curvature="0" />
  <path
     style="color:#000000;font-style:normal;font-variant:normal;font-weight:normal;font-stretch:normal;font-size:medium;line-height:normal;font-family:sans-serif;font-variant-ligatures:normal;font-variant-position:normal;font-variant-caps:normal;font-variant-numeric:normal;font-variant-alternates:normal;font-feature-settings:normal;text-indent:0;text-align:start;text-decoration:none;text-decoration-line:none;text-decoration-style:solid;text-decoration-color:#000000;letter-spacing:normal;word-spacing:normal;text-transform:none;writing-mode:lr-tb;direction:ltr;text-orientation:mixed;dominant-baseline:auto;baseline-shift:baseline;text-anchor:start;white-space:normal;shape-padding:0;clip-rule:nonzero;display:inline;overflow:visible;visibility:visible;opacity:1;isolation:auto;mix-blend-mode:normal;color-interpolation:sRGB;color-interpolation-filters:linearRGB;solid-color:#000000;solid-opacity:1;vector-effect:none;fill:#000000;fill-opacity:1;fill-rule:nonzero;stroke:none;stroke-width:31.39843369;stroke-linecap:butt;stroke-linejoin:miter;stroke-miterlimit:4;stroke-dasharray:none;stroke-dashoffset:0;stroke-opacity:1;color-rendering:auto;image-rendering:auto;shape-rendering:auto;text-rendering:auto;enable-background:accumulate"
     d="m 273.26367,110.16969 -30.59375,7.06054 c 1.28887,5.58571 0.18127,17.64994 -2.12695,27.38672 -2.30822,9.73679 -5.10352,17.04102 -5.10352,17.04102 l 29.31446,11.25 c 0,0 3.52293,-9.15801 6.34179,-21.04883 2.81886,-11.89082 5.64548,-26.61865 2.16797,-41.68945 z"
     id="path2612"
     inkscape:connector-curvature="0" />
  <path
     style="color:#000000;font-style:normal;font-variant:normal;font-weight:normal;font-stretch:normal;font-size:medium;line-height:normal;font-family:sans-serif;font-variant-ligatures:normal;font-variant-position:normal;font-variant-caps:normal;font-variant-numeric:normal;font-variant-alternates:normal;font-feature-settings:normal;text-indent:0;text-align:start;text-decoration:none;text-decoration-line:none;text-decoration-style:solid;text-decoration-color:#000000;letter-spacing:normal;word-spacing:normal;text-transform:none;writing-mode:lr-tb;direction:ltr;text-orientation:mixed;dominant-baseline:auto;baseline-shift:baseline;text-anchor:start;white-space:normal;shape-padding:0;clip-rule:nonzero;display:inline;overflow:visible;visibility:visible;opacity:1;isolation:auto;mix-blend-mode:normal;color-interpolation:sRGB;color-interpolation-filters:linearRGB;solid-color:#000000;solid-opacity:1;vector-effect:none;fill:#000000;fill-opacity:1;fill-rule:nonzero;stroke:none;stroke-width:31.39843369;stroke-linecap:butt;stroke-linejoin:miter;stroke-miterlimit:4;stroke-dasharray:none;stroke-dashoffset:0;stroke-opacity:1;color-rendering:auto;image-rendering:auto;shape-rendering:auto;text-rendering:auto;enable-background:accumulate"
     d="m 587.87891,377.19899 c -9.19464,7.50082 -10.89086,18.35439 -10.75196,26.95507 0.13891,8.60069 2.04884,16.75384 4.28907,24.29297 4.48044,15.07827 10.84765,27.90625 10.84765,27.90625 l 28.17969,-13.84765 c 0,0 -5.39311,-11.10016 -8.92969,-23.00196 -1.76828,-5.9509 -2.93072,-12.05149 -2.99219,-15.85742 -0.0615,-3.80593 0.91703,-3.51376 -0.79492,-2.11719 z"
     id="path2610"
     inkscape:connector-curvature="0" />
  <path
     style="color:#000000;font-style:normal;font-variant:normal;font-weight:normal;font-stretch:normal;font-size:medium;line-height:normal;font-family:sans-serif;font-variant-ligatures:normal;font-variant-position:normal;font-variant-caps:normal;font-variant-numeric:normal;font-variant-alternates:normal;font-feature-settings:normal;text-indent:0;text-align:start;text-decoration:none;text-decoration-line:none;text-decoration-style:solid;text-decoration-color:#000000;letter-spacing:normal;word-spacing:normal;text-transform:none;writing-mode:lr-tb;direction:ltr;text-orientation:mixed;dominant-baseline:auto;baseline-shift:baseline;text-anchor:start;white-space:normal;shape-padding:0;clip-rule:nonzero;display:inline;overflow:visible;visibility:visible;opacity:1;isolation:auto;mix-blend-mode:normal;color-interpolation:sRGB;color-interpolation-filters:linearRGB;solid-color:#000000;solid-opacity:1;vector-effect:none;fill:#000000;fill-opacity:1;fill-rule:nonzero;stroke:none;stroke-width:31.39843369;stroke-linecap:butt;stroke-linejoin:miter;stroke-miterlimit:4;stroke-dasharray:none;stroke-dashoffset:0;stroke-opacity:1;color-rendering:auto;image-rendering:auto;shape-rendering:auto;text-rendering:auto;enable-background:accumulate"
     d="m 496.66016,494.03492 -23.21289,21.14063 c 4.56733,5.01537 8.13868,16.9527 9.12695,27.87304 0.98827,10.92035 0.10937,19.66407 0.10937,19.66407 l 31.23438,3.21093 c 0,0 1.20868,-11.54862 -0.0723,-25.70312 -1.28095,-14.1545 -4.33435,-32.07368 -17.18554,-46.18555 z"
     id="path2608"
     inkscape:connector-curvature="0" />
  <path
     style="color:#000000;font-style:normal;font-variant:normal;font-weight:normal;font-stretch:normal;font-size:medium;line-height:normal;font-family:sans-serif;font-variant-ligatures:normal;font-variant-position:normal;font-variant-caps:normal;font-variant-numeric:normal;font-variant-alternates:normal;font-feature-settings:normal;text-indent:0;text-align:start;text-decoration:none;text-decoration-line:none;text-decoration-style:solid;text-decoration-color:#000000;letter-spacing:normal;word-spacing:normal;text-transform:none;writing-mode:lr-tb;direction:ltr;text-orientation:mixed;dominant-baseline:auto;baseline-shift:baseline;text-anchor:start;white-space:normal;shape-padding:0;clip-rule:nonzero;display:inline;overflow:visible;visibility:visible;opacity:1;isolation:auto;mix-blend-mode:normal;color-interpolation:sRGB;color-interpolation-filters:linearRGB;solid-color:#000000;solid-opacity:1;vector-effect:none;fill:#000000;fill-opacity:1;fill-rule:nonzero;stroke:none;stroke-width:31.39843369;stroke-linecap:butt;stroke-linejoin:miter;stroke-miterlimit:4;stroke-dasharray:none;stroke-dashoffset:0;stroke-opacity:1;color-rendering:auto;image-rendering:auto;shape-rendering:auto;text-rendering:auto;enable-background:accumulate"
     d="m 305.02539,536.19508 -19.36914,24.71289 c 7.7563,6.07907 10.57739,17.48739 10.55273,29.5 -0.0247,12.01261 -2.78906,21.99609 -2.78906,21.99609 l 30.20703,8.57227 c 0,0 3.9459,-13.65951 3.98047,-30.50391 0.0346,-16.8444 -3.73677,-39.50718 -22.58203,-54.27734 z"
     id="path2606"
     inkscape:connector-curvature="0" />
  <path
     style="color:#000000;font-style:normal;font-variant:normal;font-weight:normal;font-stretch:normal;font-size:medium;line-height:normal;font-family:sans-serif;font-variant-ligatures:normal;font-variant-position:normal;font-variant-caps:normal;font-variant-numeric:normal;font-variant-alternates:normal;font-feature-settings:normal;text-indent:0;text-align:start;text-decoration:none;text-decoration-line:none;text-decoration-style:solid;text-decoration-color:#000000;letter-spacing:normal;word-spacing:normal;text-transform:none;writing-mode:lr-tb;direction:ltr;text-orientation:mixed;dominant-baseline:auto;baseline-shift:baseline;text-anchor:start;white-space:normal;shape-padding:0;clip-rule:nonzero;display:inline;overflow:visible;visibility:visible;opacity:1;isolation:auto;mix-blend-mode:normal;color-interpolation:sRGB;color-interpolation-filters:linearRGB;solid-color:#000000;solid-opacity:1;vector-effect:none;fill:#000000;fill-opacity:1;fill-rule:nonzero;stroke:none;stroke-width:41.86457825;stroke-linecap:butt;stroke-linejoin:miter;stroke-miterlimit:4;stroke-dasharray:none;stroke-dashoffset:0;stroke-opacity:1;color-rendering:auto;image-rendering:auto;shape-rendering:auto;text-rendering:auto;enable-background:accumulate"
     d="m 798.98633,577.45484 c 0,0 -25.68516,6.47505 -36.77344,4.97461 l -5.61523,41.48633 c 27.81446,3.76378 55.05273,-6.55664 55.05273,-6.55664 z"
     id="path2604"
     inkscape:connector-curvature="0" />
  <path
     style="color:#000000;font-style:normal;font-variant:normal;font-weight:normal;font-stretch:normal;font-size:medium;line-height:normal;font-family:sans-serif;font-variant-ligatures:normal;font-variant-position:normal;font-variant-caps:normal;font-variant-numeric:normal;font-variant-alternates:normal;font-feature-settings:normal;text-indent:0;text-align:start;text-decoration:none;text-decoration-line:none;text-decoration-style:solid;text-decoration-color:#000000;letter-spacing:normal;word-spacing:normal;text-transform:none;writing-mode:lr-tb;direction:ltr;text-orientation:mixed;dominant-baseline:auto;baseline-shift:baseline;text-anchor:start;white-space:normal;shape-padding:0;clip-rule:nonzero;display:inline;overflow:visible;visibility:visible;opacity:1;isolation:auto;mix-blend-mode:normal;color-interpolation:sRGB;color-interpolation-filters:linearRGB;solid-color:#000000;solid-opacity:1;vector-effect:none;fill:#000000;fill-opacity:1;fill-rule:nonzero;stroke:none;stroke-width:41.86457825;stroke-linecap:butt;stroke-linejoin:miter;stroke-miterlimit:4;stroke-dasharray:none;stroke-dashoffset:0;stroke-opacity:1;color-rendering:auto;image-rendering:auto;shape-rendering:auto;text-rendering:auto;enable-background:accumulate"
     d="m 762.19922,542.27125 -6.63867,41.33398 c 3.03648,0.48756 13.20185,6.33517 20.68554,13.26758 7.4837,6.93242 12.57227,13.41602 12.57227,13.41602 l 2.86133,3.66601 4.14453,2.10743 c 10.25339,5.21802 20.49166,6.71956 33.34375,8.18945 12.85209,1.46989 27.85859,2.1994 44.43945,2.46289 33.16173,0.52698 72.53299,-0.86533 110.50781,-2.93164 75.94967,-4.13263 146.30467,-11.00977 146.30467,-11.00977 l -0.1601,0.0156 c 61.1523,-5.49822 72.3275,117.54702 14.2129,131.76758 l 9.9511,40.66403 c 108.6308,-26.5818 84.6504,-224.2494 -27.9121,-214.12888 l -0.08,0.008 -0.08,0.008 c 0,0 -69.6781,6.80114 -144.51176,10.87304 -37.41681,2.03596 -76.12325,3.3747 -107.56836,2.875 -15.72255,-0.24984 -29.65261,-0.97212 -40.34765,-2.19531 -8.07711,-0.92377 -13.39485,-2.28773 -16.30469,-3.13086 -3.02451,-3.49139 -7.2552,-8.11613 -12.92383,-13.36718 -10.15392,-9.40595 -23.2073,-20.79351 -42.49609,-23.89063 z"
     id="path2602"
     inkscape:connector-curvature="0" />
  <path
     style="color:#000000;font-style:normal;font-variant:normal;font-weight:normal;font-stretch:normal;font-size:medium;line-height:normal;font-family:sans-serif;font-variant-ligatures:normal;font-variant-position:normal;font-variant-caps:normal;font-variant-numeric:normal;font-variant-alternates:normal;font-feature-settings:normal;text-indent:0;text-align:start;text-decoration:none;text-decoration-line:none;text-decoration-style:solid;text-decoration-color:#000000;letter-spacing:normal;word-spacing:normal;text-transform:none;writing-mode:lr-tb;direction:ltr;text-orientation:mixed;dominant-baseline:auto;baseline-shift:baseline;text-anchor:start;white-space:normal;shape-padding:0;clip-rule:nonzero;display:inline;overflow:visible;visibility:visible;opacity:1;isolation:auto;mix-blend-mode:normal;color-interpolation:sRGB;color-interpolation-filters:linearRGB;solid-color:#000000;solid-opacity:1;vector-effect:none;fill:#000000;fill-opacity:1;fill-rule:nonzero;stroke:none;stroke-width:41.86457825;stroke-linecap:butt;stroke-linejoin:miter;stroke-miterlimit:4;stroke-dasharray:none;stroke-dashoffset:0;stroke-opacity:1;color-rendering:auto;image-rendering:auto;shape-rendering:auto;text-rendering:auto;enable-background:accumulate"
     d="m 1163.4238,741.38844 -17.3593,2.84375 c -219.27452,35.91612 -328.78454,49.22712 -382.52348,53.52542 -26.86948,2.1491 -39.99144,1.9534 -44.54493,1.5547 -2.27674,-0.1994 -2.47904,-0.7103 0.3125,0.4687 1.39578,0.5895 3.76559,1.6571 6.53321,4.6758 1.38381,1.5093 2.80775,3.559 3.82422,6.0215 1.01646,2.4624 1.57031,7.8984 1.57031,7.8984 l -41.86328,0.076 c 0,0 0.55231,5.4704 1.5957,7.9981 1.04339,2.5277 2.52241,4.6723 4.01367,6.2988 2.98252,3.2531 5.78279,4.6455 8.03711,5.5976 4.50864,1.9043 7.73868,2.2683 12.32617,2.67 9.17498,0.8034 23.50547,0.7124 51.53321,-1.5293 54.07496,-4.3252 160.78373,-17.4787 365.43749,-50.6934 0.2998,11.45 -1.9423,27.52 -12.9414,45.0567 -20.9919,33.4689 -78.2216,75.3994 -232.39258,84.9238 l 2.58203,41.7851 c 161.15185,-9.9556 234.51045,-55.4139 265.27535,-104.4648 30.765,-49.0509 14.375,-98.0977 14.375,-98.0977 z"
     id="path2600"
     inkscape:connector-curvature="0" />
  <path
     style="color:#000000;font-style:normal;font-variant:normal;font-weight:normal;font-stretch:normal;font-size:medium;line-height:normal;font-family:sans-serif;font-variant-ligatures:normal;font-variant-position:normal;font-variant-caps:normal;font-variant-numeric:normal;font-variant-alternates:normal;font-feature-settings:normal;text-indent:0;text-align:start;text-decoration:none;text-decoration-line:none;text-decoration-style:solid;text-decoration-color:#000000;letter-spacing:normal;word-spacing:normal;text-transform:none;writing-mode:lr-tb;direction:ltr;text-orientation:mixed;dominant-baseline:auto;baseline-shift:baseline;text-anchor:start;white-space:normal;shape-padding:0;clip-rule:nonzero;display:inline;overflow:visible;visibility:visible;opacity:1;isolation:auto;mix-blend-mode:normal;color-interpolation:sRGB;color-interpolation-filters:linearRGB;solid-color:#000000;solid-opacity:1;vector-effect:none;fill:#000000;fill-opacity:1;fill-rule:nonzero;stroke:none;stroke-width:41.86457825;stroke-linecap:butt;stroke-linejoin:miter;stroke-miterlimit:4;stroke-dasharray:none;stroke-dashoffset:0;stroke-opacity:1;color-rendering:auto;image-rendering:auto;shape-rendering:auto;text-rendering:auto;enable-background:accumulate"
     d="m 795.11719,184.14625 c -65.219,25.85506 -211.28516,49.33789 -211.28516,49.33789 l -3.29883,0.51172 -2.97656,1.51367 c -12.64362,6.42742 -42.97179,12.74513 -68.35937,15.83985 -23.25109,2.83427 -40.9533,3.68504 -44.08204,3.82812 -37.72712,-7.80667 -60.26425,-10.83625 -73.98828,-11.7832 -7.04981,-0.48644 -11.85429,-0.45511 -15.5664,-0.1543 -1.85606,0.1504 -3.44351,0.36976 -4.9375,0.68164 -1.49399,0.31188 -4.37891,1.32422 -4.37891,1.32422 l 16.03516,38.67383 c 0,0 -2.53014,0.86549 -3.09961,0.98437 -0.56948,0.11889 -0.66235,0.099 -0.23633,0.0645 0.85204,-0.0691 3.75985,-0.19105 9.30273,0.1914 11.08577,0.76491 32.68989,3.5104 71.14063,11.5586 l 2.54883,0.5332 2.60156,-0.10742 c 0,0 22.51652,-0.92141 49.72656,-4.23828 25.93747,-3.16175 55.56429,-7.66659 78.81445,-18.50977 8.14455,-1.23467 143.4377,-21.98435 217.4668,-51.33203 z"
     id="path2598"
     inkscape:connector-curvature="0" />
  <path
     style="color:#000000;font-style:normal;font-variant:normal;font-weight:normal;font-stretch:normal;font-size:medium;line-height:normal;font-family:sans-serif;font-variant-ligatures:normal;font-variant-position:normal;font-variant-caps:normal;font-variant-numeric:normal;font-variant-alternates:normal;font-feature-settings:normal;text-indent:0;text-align:start;text-decoration:none;text-decoration-line:none;text-decoration-style:solid;text-decoration-color:#000000;letter-spacing:normal;word-spacing:normal;text-transform:none;writing-mode:lr-tb;direction:ltr;text-orientation:mixed;dominant-baseline:auto;baseline-shift:baseline;text-anchor:start;white-space:normal;shape-padding:0;clip-rule:nonzero;display:inline;overflow:visible;visibility:visible;opacity:1;isolation:auto;mix-blend-mode:normal;color-interpolation:sRGB;color-interpolation-filters:linearRGB;solid-color:#000000;solid-opacity:1;vector-effect:none;fill:#000000;fill-opacity:1;fill-rule:nonzero;stroke:none;stroke-width:41.86457825;stroke-linecap:butt;stroke-linejoin:miter;stroke-miterlimit:4;stroke-dasharray:none;stroke-dashoffset:0;stroke-opacity:1;color-rendering:auto;image-rendering:auto;shape-rendering:auto;text-rendering:auto;enable-background:accumulate"
     d="m 921.05664,350.1775 c -6.06097,8.02853 -20.31669,20.5425 -32.55078,29.82813 -11.35761,8.62037 -20.08848,14.32594 -21.39453,15.17578 -43.2207,21.54711 -72.98185,27.8204 -90.94727,29.10156 -9.05571,0.64578 -15.14682,0.0415 -18.60937,-0.54297 -3.46255,-0.58445 -2.8418,-0.52344 -2.8418,-0.52344 l -6.00781,-2.57226 -6.40235,1.30078 c -44.28526,9.00293 -135.21093,6.56445 -135.21093,6.56445 l -3.98047,-0.14062 -3.75391,1.33203 c -7.06531,2.50561 -24.20406,3.84149 -38.19531,3.40039 -10.58849,-0.33382 -17.77678,-1.08802 -21.46875,-1.51172 -18.5493,-9.80785 -40.53115,-15.22932 -59.28125,-19.13477 -20.20484,-4.20844 -36.5625,-6.11523 -36.5625,-6.11523 l -4.85547,41.58203 c 0,0 14.60436,1.71078 32.88086,5.51758 18.2765,3.8068 40.2647,10.3214 50.97266,16.58789 l 3.64062,2.13086 4.1836,0.55469 c 0,0 12.95214,1.72107 29.17187,2.23242 14.96866,0.47191 32.57251,0.49967 49.31641,-4.49414 9.33113,0.36507 83.96098,2.85518 136.32226,-6.65235 1.66761,0.43094 3.11503,0.88702 5.10352,1.22266 6.7987,1.14757 16.29906,1.8956 28.55664,1.02148 24.51515,-1.74823 59.97562,-9.95235 107.76172,-33.92968 l 1.01172,-0.50782 0.94921,-0.61328 c 0,0 11.38144,-7.3393 24.95118,-17.63867 13.56973,-10.29936 29.43471,-23.09199 40.65234,-37.95117 z"
     id="path2596"
     inkscape:connector-curvature="0" />
  <path
     style="color:#000000;font-style:normal;font-variant:normal;font-weight:normal;font-stretch:normal;font-size:medium;line-height:normal;font-family:sans-serif;font-variant-ligatures:normal;font-variant-position:normal;font-variant-caps:normal;font-variant-numeric:normal;font-variant-alternates:normal;font-feature-settings:normal;text-indent:0;text-align:start;text-decoration:none;text-decoration-line:none;text-decoration-style:solid;text-decoration-color:#000000;letter-spacing:normal;word-spacing:normal;text-transform:none;writing-mode:lr-tb;direction:ltr;text-orientation:mixed;dominant-baseline:auto;baseline-shift:baseline;text-anchor:start;white-space:normal;shape-padding:0;clip-rule:nonzero;display:inline;overflow:visible;visibility:visible;opacity:1;isolation:auto;mix-blend-mode:normal;color-interpolation:sRGB;color-interpolation-filters:linearRGB;solid-color:#000000;solid-opacity:1;vector-effect:none;fill:#000000;fill-opacity:1;fill-rule:nonzero;stroke:none;stroke-width:41.86457825;stroke-linecap:butt;stroke-linejoin:miter;stroke-miterlimit:4;stroke-dasharray:none;stroke-dashoffset:0;stroke-opacity:1;color-rendering:auto;image-rendering:auto;shape-rendering:auto;text-rendering:auto;enable-background:accumulate"
     d="m 105.44336,11.175551 -1.78125,0.0645 c -36.092351,1.32879 -63.891639,13.696 -80.554688,34.06245 C 6.4443731,65.668951 2.2573074,91.829361 6.0175781,115.99391 13.53812,164.323 50.437696,211.62051 103.23438,217.93727 l 0.25781,0.0312 0.25976,0.0254 c 97.18894,9.18092 192.71449,40.29755 236.8711,56.25586 -8.20939,15.63821 -10.92591,32.4768 -8.62891,48.0039 3.60847,24.39228 16.66634,45.19734 31.18359,62.85938 12.62391,15.35854 26.76501,28.42351 38.8711,38.50781 -7.12114,2.95264 -15.02463,6.13398 -24.13477,9.6543 -31.13622,12.03157 -72.1309,26.77889 -112.82617,41.03711 -81.39055,28.51644 -161.64258,55.12109 -161.64258,55.12109 -29.870977,9.88693 -50.411929,31.98019 -60.982419,56.73633 -10.571899,24.75944 -12.355869,52.11107 -8.060547,77.2539 4.295322,25.14284 14.448365,48.54532 32.173828,64.85352 16.517628,15.19693 42.202518,21.73355 66.433598,13.0625 1.94196,-0.12249 3.62883,-0.3407 5.46093,-0.62305 3.75725,-0.57902 8.04451,-1.44069 13.16797,-2.57031 10.24692,-2.25924 23.66863,-5.59679 39.38867,-9.69922 31.44009,-8.20484 71.92877,-19.45029 112.03125,-30.82031 76.90084,-21.80325 148.66715,-42.9791 154.75196,-44.77539 29.65816,3.62767 63.65595,-6.63575 95.8164,-18.39063 17.12158,-6.25805 33.03034,-13.26039 45.81836,-20.22656 6.39401,-3.48308 11.98962,-6.91207 16.91797,-10.6875 3.53773,-2.71012 7.03442,-5.07245 10.12305,-9.7168 5.06316,-3.5824 8.0372,-4.78302 9.12695,-5.04492 0.31152,0.45392 0.90697,1.30716 1.81641,3.38477 3.53814,8.08284 4.57592,22.45735 4.76953,25.35742 -19.67368,74.1871 -7.51937,129.22608 11.17383,164.83984 13.07479,24.9097 29.23523,40.3107 38.36914,47.8906 15.06887,60.7475 34.96239,96.4647 53.01172,117.3262 9.38261,10.8445 18.24678,17.6757 25.30078,21.834 7.054,4.1583 14.23437,6.0683 14.23437,6.0683 l -1.95508,-0.5332 c 123.09585,40.10399 238.85552,25.15959 337.04492,2.877 98.1894,-22.2826 180.7796,-50.2565 231.4941,-44.1875 l 4.9747,-41.5664 c -68.8154,-8.2352 -150.5224,23.3208 -245.7344,44.9277 -95.212,21.6069 -201.95752,34.9114 -314.81057,-1.8554 l -0.96484,-0.3145 -0.99023,-0.2207 c 0,0 1.04173,0.5509 -2.03321,-1.2617 -3.07493,-1.8127 -8.33043,-5.5624 -14.90234,-13.1582 -13.14381,-15.1917 -31.58668,-46.0546 -45.72461,-106.5429 l -1.93164,-8.2598 -7.13672,-4.586 c 0,0 -16.75779,-10.422 -31.17773,-37.8945 -14.41995,-27.47248 -25.5899,-70.7287 -6.94922,-137.92577 l 0.77148,-2.78125 -0.01,-2.88476 c 0,0 0.91874,-22.48098 -8.47266,-43.93555 -4.6957,-10.72728 -13.79856,-23.74962 -30.05273,-27.61524 -16.25418,-3.86561 -32.59418,2.90322 -48.35352,15.44922 l -4.42773,3.52344 -0.87696,2.25586 c -0.21964,0.34819 -0.36274,0.703 -1.16601,1.31836 -2.27842,1.74541 -6.36424,4.36603 -11.48633,7.15625 -10.24418,5.58044 -24.70375,12.01978 -40.16211,17.66992 -30.91673,11.30028 -68.52793,17.93954 -79.41797,15.87695 l -4.97266,-0.9414 -4.85351,1.43555 c 0,0 -78.45905,23.18033 -158.37305,45.83789 -39.957,11.32877 -80.29094,22.52836 -111.18164,30.58984 -15.44535,4.03074 -28.56554,7.28115 -37.83203,9.32422 -4.45881,0.98307 -7.92305,1.64658 -10.13477,1.99805 l -4.10742,-1.36133 -7.48437,3.42578 c -12.52238,5.7298 -17.81705,3.64968 -25.976565,-3.85742 -8.159516,-7.50711 -16.174709,-23.08294 -19.251953,-41.09571 -3.077244,-18.01276 -1.437526,-37.99624 5.294922,-53.76367 6.732447,-15.76742 17.372312,-27.38949 35.640626,-33.43359 l 0.006,-0.002 0.006,-0.002 c 0,0 80.48622,-26.6805 162.3125,-55.34961 40.91313,-14.33455 82.14544,-29.15826 114.07422,-41.49609 15.96439,-6.16892 29.56328,-11.69155 39.96093,-16.39649 5.19883,-2.35247 9.56645,-4.46567 13.39649,-6.6289 3.83004,-2.16323 6.68642,-1.43671 12.72656,-10.94141 l 11.09766,-17.46484 -17.33399,-11.29883 c 0,0 -33.79102,-22.42585 -57.33203,-51.06641 -11.7705,-14.32027 -20.25274,-29.82364 -22.11328,-42.40039 -1.86054,-12.57675 0.10794,-22.54488 14.95508,-36.07422 l 24.38281,-22.21875 -30.48828,-12.59765 c 0,0 -133.72608,-55.61939 -274.56641,-68.92383 l 0.51758,0.0547 c -28.438585,-3.40248 -56.066368,-36.24979 -60.822264,-66.8125 -2.377948,-15.281359 0.358576,-28.251609 8.125,-37.744139 7.623006,-9.31724 21.461669,-17.3677 48.246094,-18.63086 2.00586,0.26855 70.72139,9.47001 145.0918,18.98047 37.72382,4.8241 76.37066,9.65821 107.51562,13.31445 29.04892,3.41017 49.1724,5.76446 61.1875,6.16797 2.56743,0.53547 22.32572,5.71018 47.4707,12.482419 25.5908,6.89231 58.18758,15.58438 91.7461,23.80078 33.55852,8.2164 68.03475,15.96169 97.81836,20.98828 27.89321,4.70755 49.91344,8.0506 69.35547,4.50977 6.30691,0.51637 89.01494,7.51418 130.06445,24.2832 l 3.01172,1.23047 3.24609,0.25781 c 0,0 42.81958,3.40406 77.81445,3.41992 17.72753,5.57873 47.48193,12.47886 86.24414,29.51172 40.6781,17.87475 88.4157,45.95487 131.2519,91.54297 l 1.4199,1.50977 1.6856,1.20117 c 0,0 143.0464,103.52595 306.5176,107.33789 l 0.9746,-41.85352 c -142.5299,-3.32361 -275.5861,-94.33458 -281.9961,-98.77343 -47.1002,-49.47162 -99.1732,-80.0295 -143.0117,-99.29297 -44.42492,-19.52116 -82.28193,-28.27475 -93.30859,-31.92969 l -3.26758,-1.08398 -3.44336,0.0215 c -30.6442,0.18131 -70.46,-2.8313 -74.7832,-3.16211 -56.49216,-21.85906 -141.92969,-26.20508 -141.92969,-26.20508 l -3.11914,-0.20117 -3.04297,0.71875 c -4.42781,1.04604 -28.68048,0.40715 -56.71484,-4.32422 -28.03441,-4.73131 -61.81418,-12.285519 -94.83012,-20.369079 -33.01594,-8.08356 -65.3126,-16.69361 -90.81641,-23.5625 -25.5038,-6.86888 -42.03896,-11.64954 -51.45508,-13.42187 l -1.81835,-0.3418 -1.85157,-0.0176 c -3.09868,-0.0299 -28.65537,-2.39787 -59.53906,-6.02344 -30.88369,-3.62556 -69.44046,-8.44763 -107.08594,-13.26172 -75.29094,-9.62817 -146.94726,-19.2246 -146.94726,-19.2246 z M 427.30273,411.12672 c 0.10381,0.0285 -0.27473,0.55232 -0.79492,1.07031 0.12486,-0.11805 0.76127,-1.07956 0.79492,-1.07031 z M 131.20117,699.32399 c 0.0538,-1.4e-4 0.30193,0.0815 0.36328,0.084 -0.57618,0.0744 -1.26954,0.16242 -1.19922,0.1582 0.0507,-0.003 0.0965,-0.24028 0.83594,-0.24218 z"
     id="path12840"
     inkscape:connector-curvature="0" />
  <path
     style="font-style:normal;font-weight:normal;font-size:233.33332825px;line-height:1.25;font-family:sans-serif;letter-spacing:0px;word-spacing:0px;fill:#000000;fill-opacity:1;stroke:none"
     d="M 656.14223,1080.3555 V 1250 h 22.5586 v -63.2324 h 22.55859 c 12.15278,0 22.21615,-1.4438 30.19141,-4.3301 7.97526,-2.9622 14.8878,-7.3663 20.73633,-13.2148 4.7092,-4.7092 8.35503,-10.2546 10.9375,-16.6348 2.65842,-6.4561 3.98828,-13.4433 3.98828,-20.9629 0,-9.8741 -1.78559,-18.0399 -5.35547,-24.4961 -3.49392,-6.4561 -8.46962,-11.8483 -14.92578,-16.1777 -5.46875,-3.6458 -11.73503,-6.3055 -18.79883,-7.9766 -7.0638,-1.7469 -15.68338,-2.6191 -25.86133,-2.6191 z m 22.5586,19.3672 h 22.33008 c 7.13975,0 13.02691,0.5323 17.66015,1.5957 4.7092,0.9874 8.88737,2.6591 12.53321,5.0137 4.17751,2.7343 7.29101,6.2662 9.34179,10.5957 2.05078,4.3294 3.07617,9.4171 3.07617,15.2656 0,5.013 -0.7602,9.533 -2.27929,13.5586 -1.44314,4.0256 -3.94966,7.862 -7.51953,11.5078 -3.56988,3.5699 -8.20183,6.1903 -13.89844,7.8613 -5.69662,1.5951 -13.10221,2.3926 -22.2168,2.3926 h -19.02734 z"
     id="text1577"
     inkscape:connector-curvature="0" />
</svg>
