<?xml version="1.0" encoding="UTF-8" standalone="no"?>
<!-- Created with Inkscape (http://www.inkscape.org/) -->

<svg
   xmlns:dc="http://purl.org/dc/elements/1.1/"
   xmlns:cc="http://creativecommons.org/ns#"
   xmlns:rdf="http://www.w3.org/1999/02/22-rdf-syntax-ns#"
   xmlns:svg="http://www.w3.org/2000/svg"
   xmlns="http://www.w3.org/2000/svg"
   xmlns:sodipodi="http://sodipodi.sourceforge.net/DTD/sodipodi-0.dtd"
   xmlns:inkscape="http://www.inkscape.org/namespaces/inkscape"
   version="1.1"
   id="svg3913"
   width="1000"
   height="1250"
   viewBox="0 0 1000 1250"
   sodipodi:docname="R.svg"
   inkscape:version="0.92.4 (5da689c313, 2019-01-14)">
  <metadata
     id="metadata3919">
    <rdf:RDF>
      <cc:Work
         rdf:about="">
        <dc:format>image/svg+xml</dc:format>
        <dc:type
           rdf:resource="http://purl.org/dc/dcmitype/StillImage" />
        <dc:title></dc:title>
      </cc:Work>
    </rdf:RDF>
  </metadata>
  <defs
     id="defs3917">
    <clipPath
       clipPathUnits="userSpaceOnUse"
       id="clipPath3940">
      <rect
         style="opacity:1;fill:#d38d5f;fill-opacity:0;stroke:#ff0000;stroke-width:22.94895554;stroke-miterlimit:4;stroke-dasharray:none"
         id="rect3942"
         width="977.05103"
         height="977.05103"
         x="11.474478"
         y="11.474474"
         transform="rotate(-90)" />
    </clipPath>
  </defs>
  <sodipodi:namedview
     pagecolor="#ffffff"
     bordercolor="#666666"
     borderopacity="1"
     objecttolerance="10"
     gridtolerance="10"
     guidetolerance="10"
     inkscape:pageopacity="0"
     inkscape:pageshadow="2"
     inkscape:window-width="1366"
     inkscape:window-height="715"
     id="namedview3915"
     showgrid="false"
     inkscape:zoom="0.19314491"
     inkscape:cx="545.87527"
     inkscape:cy="616.37774"
     inkscape:window-x="-8"
     inkscape:window-y="-8"
     inkscape:window-maximized="1"
     inkscape:current-layer="svg3913" />
  <path
     style="color:#000000;font-style:normal;font-variant:normal;font-weight:normal;font-stretch:normal;font-size:medium;line-height:normal;font-family:sans-serif;font-variant-ligatures:normal;font-variant-position:normal;font-variant-caps:normal;font-variant-numeric:normal;font-variant-alternates:normal;font-feature-settings:normal;text-indent:0;text-align:start;text-decoration:none;text-decoration-line:none;text-decoration-style:solid;text-decoration-color:#000000;letter-spacing:normal;word-spacing:normal;text-transform:none;writing-mode:lr-tb;direction:ltr;text-orientation:mixed;dominant-baseline:auto;baseline-shift:baseline;text-anchor:start;white-space:normal;shape-padding:0;clip-rule:nonzero;display:inline;overflow:visible;visibility:visible;opacity:1;isolation:auto;mix-blend-mode:normal;color-interpolation:sRGB;color-interpolation-filters:linearRGB;solid-color:#000000;solid-opacity:1;vector-effect:none;fill:#000000;fill-opacity:1;fill-rule:nonzero;stroke:none;stroke-width:25.52813911;stroke-linecap:butt;stroke-linejoin:miter;stroke-miterlimit:4;stroke-dasharray:none;stroke-dashoffset:0;stroke-opacity:1;color-rendering:auto;image-rendering:auto;shape-rendering:auto;text-rendering:auto;enable-background:accumulate"
     d="m 223.98438,2.59769 c -1.75888,-0.0796 -3.53481,-0.0702 -5.32422,0.0352 -14.31528,0.84284 -29.16964,9.5732 -37.16016,25.60156 -7.07377,14.18944 -9.81559,33.19882 -7.78711,58.88086 -11.55735,5.72545 -19.35934,16.27234 -22.01562,27.40821 -3.46371,14.52081 -1.18917,29.81036 2.44726,44.32617 5.89775,23.54246 15.97394,44.67555 19.71875,52.12695 -4.91986,46.04644 -1.97924,102.0042 0.34375,148.88281 1.16805,23.57164 2.14474,44.65951 2.00781,60.58594 -4.27812,-3.36939 -8.93236,-6.22749 -13.84375,-8.39648 -15.89433,-7.01934 -34.29097,-8.49266 -51.46093,-4.29883 -17.169972,4.19382 -33.546856,14.61477 -42.408207,31.92968 -8.248338,16.11711 -9.161201,37.14726 -1.107422,61.43165 -4.922502,11.27741 -5.738189,23.35377 -4.908203,35.01953 -19.971813,2.67162 -34.326947,12.85381 -42.675781,23.33593 C 9.4891117,572.4256 6.6191406,586.11918 6.6191406,586.11918 l -0.4960937,2.32031 0.3691406,2.3418 c 3.7238985,23.58469 0.0625,43.49804 0.0625,43.49804 l 0.3691406,-1.47656 C -2.1206063,661.58056 1.5789723,702.92517 6.2734375,738.91605 10.967903,774.9069 17.572266,804.7715 17.572266,804.7715 l 0.466796,2.1133 1.136719,1.8418 C 76.0077,900.7402 120.91797,1000 120.91797,1000 l 23.26172,-10.5156 c 0,0 -44.683857,-98.8453 -102.062502,-192.1289 -0.59524,-2.7317 -6.229773,-28.7642 -10.53125,-61.74218 -4.531718,-34.74315 -6.299391,-76.09459 -0.308594,-95.15625 l 0.228515,-0.72656 0.140625,-0.74805 c 0,0 4.120617,-22.11601 0.449219,-49.04492 0.514639,-1.9128 2.241751,-7.73652 7.681641,-14.56641 6.412738,-8.05132 15.882432,-15.62662 36.189453,-14.4082 l 15.779297,0.94531 -2.398438,-15.62305 c -2.360876,-15.38477 -2.029775,-29.47073 2.847656,-37.88476 l 3.046876,-5.25586 -2.160157,-5.68164 c -8.343545,-21.94762 -6.829953,-36.43425 -1.855469,-46.1543 4.974485,-9.72005 14.220428,-15.94601 25.740238,-18.75976 11.51981,-2.81376 24.88251,-1.65516 35.09179,2.85351 10.20928,4.50867 16.90246,11.44319 18.98633,21.24024 l 4.89063,22.99023 16.61914,-16.62109 c 5.92163,-5.92164 6.63919,-11.74197 7.67187,-18.27344 1.03269,-6.53147 1.43029,-14.0637 1.53516,-22.75195 0.20974,-17.37652 -0.8631,-39.26516 -2.0586,-63.39063 -2.39099,-48.25094 -5.21622,-105.47233 -0.11523,-148.60156 l 0.4668,-3.94922 -1.85742,-3.51563 c 0,0 -13.05129,-24.98304 -19.28907,-49.88281 -3.11888,-12.44988 -4.1629,-24.72022 -2.3789,-32.19922 1.78399,-7.479 3.44372,-10.32025 13.03125,-11.9707 l 11.94726,-2.05664 -1.4375,-12.03516 c -3.35686,-28.10662 -0.28456,-45.61481 4.27539,-54.76172 4.55995,-9.1469 9.24323,-11.11896 15.81446,-11.50586 6.57122,-0.38689 15.36554,2.55023 22.40429,7.53907 6.88275,4.87826 11.50267,11.63267 12.47852,15.3789 0.18157,1.68574 3.43784,31.97329 6.56055,67.31446 3.21039,36.33354 6.00295,78.02516 5.13867,92.42968 l -0.19141,3.18555 1.33203,2.90234 c 0,0 17.98993,39.20712 36.9043,86.70508 18.91437,47.49797 38.59678,104.16426 41.97266,134.24024 l 0.22265,1.98437 0.81836,1.82031 c 0,0 49.52099,113.29074 39.29102,198.9668 l -0.14453,1.20899 0.0859,1.21484 c 0,0 7.15425,103.97445 -16.70312,195.42775 l -0.16406,0.625 -0.0977,0.6367 c 0,0 -11.45807,73.7202 21.18359,159.582 l 23.86133,-9.0722 c -30.04794,-79.0392 -19.97244,-145.4908 -19.84766,-146.3047 24.67697,-95.48797 17.49869,-198.62204 17.28126,-201.65236 10.74976,-95.02139 -38.50696,-204.45516 -40.74024,-209.35938 -4.62423,-36.89377 -24.4555,-91.43431 -43.30273,-138.76367 -18.21353,-45.73799 -34.53901,-81.53517 -36.25196,-85.2832 0.74702,-20.59178 -2.13631,-57.85488 -5.21875,-92.74024 -3.23621,-36.62575 -6.72656,-68.93554 -6.72656,-68.93554 l -0.0781,-0.71485 -0.15821,-0.70312 C 277.1618,32.76094 268.23513,22.56007 257.32617,14.82816 247.78083,8.06275 236.29649,3.15454 223.98438,2.59769 Z"
     id="path3944"
     inkscape:connector-curvature="0" />
  <path
     style="color:#000000;font-style:normal;font-variant:normal;font-weight:normal;font-stretch:normal;font-size:medium;line-height:normal;font-family:sans-serif;font-variant-ligatures:normal;font-variant-position:normal;font-variant-caps:normal;font-variant-numeric:normal;font-variant-alternates:normal;font-feature-settings:normal;text-indent:0;text-align:start;text-decoration:none;text-decoration-line:none;text-decoration-style:solid;text-decoration-color:#000000;letter-spacing:normal;word-spacing:normal;text-transform:none;writing-mode:lr-tb;direction:ltr;text-orientation:mixed;dominant-baseline:auto;baseline-shift:baseline;text-anchor:start;white-space:normal;shape-padding:0;clip-rule:nonzero;display:inline;overflow:visible;visibility:visible;opacity:1;isolation:auto;mix-blend-mode:normal;color-interpolation:sRGB;color-interpolation-filters:linearRGB;solid-color:#000000;solid-opacity:1;vector-effect:none;fill:#000000;fill-opacity:1;fill-rule:nonzero;stroke:none;stroke-width:19.14610481;stroke-linecap:butt;stroke-linejoin:miter;stroke-miterlimit:4;stroke-dasharray:none;stroke-dashoffset:0;stroke-opacity:1;color-rendering:auto;image-rendering:auto;shape-rendering:auto;text-rendering:auto;enable-background:accumulate"
     d="m 176.72656,933.6289 c -21.16678,18.9959 -61.48828,6.3008 -61.48828,6.3008 l -6.38672,18.0488 c 0,0 48.52401,18.7421 80.66406,-10.1015 z"
     id="path3946"
     inkscape:connector-curvature="0" />
  <path
     style="color:#000000;font-style:normal;font-variant:normal;font-weight:normal;font-stretch:normal;font-size:medium;line-height:normal;font-family:sans-serif;font-variant-ligatures:normal;font-variant-position:normal;font-variant-caps:normal;font-variant-numeric:normal;font-variant-alternates:normal;font-feature-settings:normal;text-indent:0;text-align:start;text-decoration:none;text-decoration-line:none;text-decoration-style:solid;text-decoration-color:#000000;letter-spacing:normal;word-spacing:normal;text-transform:none;writing-mode:lr-tb;direction:ltr;text-orientation:mixed;dominant-baseline:auto;baseline-shift:baseline;text-anchor:start;white-space:normal;shape-padding:0;clip-rule:nonzero;display:inline;overflow:visible;visibility:visible;opacity:1;isolation:auto;mix-blend-mode:normal;color-interpolation:sRGB;color-interpolation-filters:linearRGB;solid-color:#000000;solid-opacity:1;vector-effect:none;fill:#000000;fill-opacity:1;fill-rule:nonzero;stroke:none;stroke-width:19.14610481;stroke-linecap:butt;stroke-linejoin:miter;stroke-miterlimit:4;stroke-dasharray:none;stroke-dashoffset:0;stroke-opacity:1;color-rendering:auto;image-rendering:auto;shape-rendering:auto;text-rendering:auto;enable-background:accumulate"
     d="m 178.79492,750.5586 c -12.24836,37.9877 -11.95312,67.8718 -3.54883,90.9746 8.4043,23.1029 24.75351,38.751 42.08594,48.8809 34.66487,20.2599 74.36719,20.2734 74.36719,20.2734 l 0.17187,-19.1464 c 0,0 -35.8148,-0.6698 -64.8789,-17.6563 -14.53206,-8.4933 -27.10159,-20.6097 -33.75391,-38.8965 -6.65231,-18.2868 -7.55231,-43.4163 3.77734,-78.5547 z"
     id="path3948"
     inkscape:connector-curvature="0" />
  <path
     style="color:#000000;font-style:normal;font-variant:normal;font-weight:normal;font-stretch:normal;font-size:medium;line-height:normal;font-family:sans-serif;font-variant-ligatures:normal;font-variant-position:normal;font-variant-caps:normal;font-variant-numeric:normal;font-variant-alternates:normal;font-feature-settings:normal;text-indent:0;text-align:start;text-decoration:none;text-decoration-line:none;text-decoration-style:solid;text-decoration-color:#000000;letter-spacing:normal;word-spacing:normal;text-transform:none;writing-mode:lr-tb;direction:ltr;text-orientation:mixed;dominant-baseline:auto;baseline-shift:baseline;text-anchor:start;white-space:normal;shape-padding:0;clip-rule:nonzero;display:inline;overflow:visible;visibility:visible;opacity:1;isolation:auto;mix-blend-mode:normal;color-interpolation:sRGB;color-interpolation-filters:linearRGB;solid-color:#000000;solid-opacity:1;vector-effect:none;fill:#000000;fill-opacity:1;fill-rule:nonzero;stroke:none;stroke-width:25.52813911;stroke-linecap:butt;stroke-linejoin:miter;stroke-miterlimit:4;stroke-dasharray:none;stroke-dashoffset:0;stroke-opacity:1;color-rendering:auto;image-rendering:auto;shape-rendering:auto;text-rendering:auto;enable-background:accumulate"
     d="m 199.48633,206.29691 -25.14649,4.39649 c 0,0 3.39643,18.78446 15.96094,40.45312 0.34789,1.30351 5.09083,19.05275 10.42188,40.37696 5.5229,22.09163 11.35217,47.85269 12.08007,54.64648 l -0.0586,-0.76172 c 0,0 2.28766,47.14422 33.97852,99.00195 l 0.61523,1.00782 0.78906,0.87695 c 0,0 3.25074,3.38639 7.95703,6.21875 4.70629,2.83236 11.60633,5.91155 20.91797,7.82422 18.6233,3.82533 46.62012,2.98269 86.88867,-11.98438 l -8.89453,-23.92968 c -36.95796,13.73658 -59.87446,13.57537 -72.85937,10.9082 -6.49246,-1.33359 -10.5705,-3.29315 -12.89063,-4.68945 -1.70081,-1.02359 -1.50127,-0.96367 -1.57226,-1.04493 -27.56217,-45.90441 -29.42969,-85.38476 -29.42969,-85.38476 l -0.0176,-0.38281 -0.041,-0.37891 c -1.32235,-12.34198 -7.11264,-35.78844 -12.69532,-58.11914 -5.58267,-22.3307 -10.90234,-42.23047 -10.90234,-42.23047 l -0.46289,-1.73242 -0.92188,-1.53906 c -11.14017,-18.56697 -13.71679,-33.53321 -13.71679,-33.53321 z"
     id="path3952"
     inkscape:connector-curvature="0" />
  <path
     style="color:#000000;font-style:normal;font-variant:normal;font-weight:normal;font-stretch:normal;font-size:medium;line-height:normal;font-family:sans-serif;font-variant-ligatures:normal;font-variant-position:normal;font-variant-caps:normal;font-variant-numeric:normal;font-variant-alternates:normal;font-feature-settings:normal;text-indent:0;text-align:start;text-decoration:none;text-decoration-line:none;text-decoration-style:solid;text-decoration-color:#000000;letter-spacing:normal;word-spacing:normal;text-transform:none;writing-mode:lr-tb;direction:ltr;text-orientation:mixed;dominant-baseline:auto;baseline-shift:baseline;text-anchor:start;white-space:normal;shape-padding:0;clip-rule:nonzero;display:inline;overflow:visible;visibility:visible;opacity:1;isolation:auto;mix-blend-mode:normal;color-interpolation:sRGB;color-interpolation-filters:linearRGB;solid-color:#000000;solid-opacity:1;vector-effect:none;fill:#000000;fill-opacity:1;fill-rule:nonzero;stroke:none;stroke-width:25.52813911;stroke-linecap:butt;stroke-linejoin:miter;stroke-miterlimit:4;stroke-dasharray:none;stroke-dashoffset:0;stroke-opacity:1;color-rendering:auto;image-rendering:auto;shape-rendering:auto;text-rendering:auto;enable-background:accumulate"
     d="m 251.33398,426.64457 c 0,0 -23.85591,13.7753 -68.0371,14.58008 l 0.46484,25.52343 c 49.581,-0.90314 80.13281,-17.88086 80.13281,-17.88086 z"
     id="path3956"
     inkscape:connector-curvature="0" />
  <path
     style="color:#000000;font-style:normal;font-variant:normal;font-weight:normal;font-stretch:normal;font-size:medium;line-height:normal;font-family:sans-serif;font-variant-ligatures:normal;font-variant-position:normal;font-variant-caps:normal;font-variant-numeric:normal;font-variant-alternates:normal;font-feature-settings:normal;text-indent:0;text-align:start;text-decoration:none;text-decoration-line:none;text-decoration-style:solid;text-decoration-color:#000000;letter-spacing:normal;word-spacing:normal;text-transform:none;writing-mode:lr-tb;direction:ltr;text-orientation:mixed;dominant-baseline:auto;baseline-shift:baseline;text-anchor:start;white-space:normal;shape-padding:0;clip-rule:nonzero;display:inline;overflow:visible;visibility:visible;opacity:1;isolation:auto;mix-blend-mode:normal;color-interpolation:sRGB;color-interpolation-filters:linearRGB;solid-color:#000000;solid-opacity:1;vector-effect:none;fill:#000000;fill-opacity:1;fill-rule:nonzero;stroke:none;stroke-width:19.14610481;stroke-linecap:butt;stroke-linejoin:miter;stroke-miterlimit:4;stroke-dasharray:none;stroke-dashoffset:0;stroke-opacity:1;color-rendering:auto;image-rendering:auto;shape-rendering:auto;text-rendering:auto;enable-background:accumulate"
     d="m 288.36133,334.41801 c -3.73643,6.22737 -12.43536,9.1638 -21.76563,9.90429 -9.33026,0.7405 -17.49023,-0.72461 -17.49023,-0.72461 l -3.48633,18.82618 c 0,0 10.29471,1.95242 22.49219,0.98437 12.19748,-0.96805 28.10087,-4.86539 36.66601,-19.14062 z"
     id="path3958"
     inkscape:connector-curvature="0" />
  <path
     style="color:#000000;font-style:normal;font-variant:normal;font-weight:normal;font-stretch:normal;font-size:medium;line-height:normal;font-family:sans-serif;font-variant-ligatures:normal;font-variant-position:normal;font-variant-caps:normal;font-variant-numeric:normal;font-variant-alternates:normal;font-feature-settings:normal;text-indent:0;text-align:start;text-decoration:none;text-decoration-line:none;text-decoration-style:solid;text-decoration-color:#000000;letter-spacing:normal;word-spacing:normal;text-transform:none;writing-mode:lr-tb;direction:ltr;text-orientation:mixed;dominant-baseline:auto;baseline-shift:baseline;text-anchor:start;white-space:normal;shape-padding:0;clip-rule:nonzero;display:inline;overflow:visible;visibility:visible;opacity:1;isolation:auto;mix-blend-mode:normal;color-interpolation:sRGB;color-interpolation-filters:linearRGB;solid-color:#000000;solid-opacity:1;vector-effect:none;fill:#000000;fill-opacity:1;fill-rule:nonzero;stroke:none;stroke-width:25.52813911;stroke-linecap:butt;stroke-linejoin:miter;stroke-miterlimit:4;stroke-dasharray:none;stroke-dashoffset:0;stroke-opacity:1;color-rendering:auto;image-rendering:auto;shape-rendering:auto;text-rendering:auto;enable-background:accumulate"
     d="m 195.87305,81.50394 c -7.75906,0.14667 -13.92969,2.85352 -13.92969,2.85352 l 10.9043,23.08203 c 0,0 0.30069,-0.35148 3.50781,-0.41211 3.20712,-0.0606 8.17913,0.53005 15.12891,4.93555 13.89954,8.811 36.02765,34.64558 55.73242,103.11133 L 291.75,208.01371 C 271.13296,136.37822 247.21624,104.38881 225.15234,90.40238 214.12039,83.40917 203.63211,81.35727 195.87305,81.50394 Z"
     id="path3960"
     inkscape:connector-curvature="0" />
  <path
     style="color:#000000;font-style:normal;font-variant:normal;font-weight:normal;font-stretch:normal;font-size:medium;line-height:normal;font-family:sans-serif;font-variant-ligatures:normal;font-variant-position:normal;font-variant-caps:normal;font-variant-numeric:normal;font-variant-alternates:normal;font-feature-settings:normal;text-indent:0;text-align:start;text-decoration:none;text-decoration-line:none;text-decoration-style:solid;text-decoration-color:#000000;letter-spacing:normal;word-spacing:normal;text-transform:none;writing-mode:lr-tb;direction:ltr;text-orientation:mixed;dominant-baseline:auto;baseline-shift:baseline;text-anchor:start;white-space:normal;shape-padding:0;clip-rule:nonzero;display:inline;overflow:visible;visibility:visible;opacity:1;isolation:auto;mix-blend-mode:normal;color-interpolation:sRGB;color-interpolation-filters:linearRGB;solid-color:#000000;solid-opacity:1;vector-effect:none;fill:#000000;fill-opacity:1;fill-rule:nonzero;stroke:none;stroke-width:19.14610481;stroke-linecap:butt;stroke-linejoin:miter;stroke-miterlimit:4;stroke-dasharray:none;stroke-dashoffset:0;stroke-opacity:1;color-rendering:auto;image-rendering:auto;shape-rendering:auto;text-rendering:auto;enable-background:accumulate"
     d="m 247.35547,217.55277 c -6.8519,11.41981 -21.1211,7.88867 -21.12109,7.88867 l -4.2168,18.67578 c 0,0 28.10511,6.03637 41.75586,-16.71484 z"
     id="path3962"
     inkscape:connector-curvature="0" />
  <path
     style="color:#000000;font-style:normal;font-variant:normal;font-weight:normal;font-stretch:normal;font-size:medium;line-height:normal;font-family:sans-serif;font-variant-ligatures:normal;font-variant-position:normal;font-variant-caps:normal;font-variant-numeric:normal;font-variant-alternates:normal;font-feature-settings:normal;text-indent:0;text-align:start;text-decoration:none;text-decoration-line:none;text-decoration-style:solid;text-decoration-color:#000000;letter-spacing:normal;word-spacing:normal;text-transform:none;writing-mode:lr-tb;direction:ltr;text-orientation:mixed;dominant-baseline:auto;baseline-shift:baseline;text-anchor:start;white-space:normal;shape-padding:0;clip-rule:nonzero;display:inline;overflow:visible;visibility:visible;opacity:1;isolation:auto;mix-blend-mode:normal;color-interpolation:sRGB;color-interpolation-filters:linearRGB;solid-color:#000000;solid-opacity:1;vector-effect:none;fill:#000000;fill-opacity:1;fill-rule:nonzero;stroke:none;stroke-width:1.49340057px;stroke-linecap:butt;stroke-linejoin:miter;stroke-miterlimit:4;stroke-dasharray:none;stroke-dashoffset:0;stroke-opacity:1;color-rendering:auto;image-rendering:auto;shape-rendering:auto;text-rendering:auto;enable-background:accumulate"
     d="m 203.10547,307.86137 -0.33008,1.45507 c 0,0 3.77638,0.85966 7.6543,1.46289 1.93896,0.30162 3.89913,0.54083 5.46875,0.57422 0.78481,0.0167 1.46881,-0.014 2.04687,-0.13867 0.28904,-0.0623 0.55563,-0.14602 0.80664,-0.29492 0.25102,-0.14891 0.50267,-0.39081 0.61524,-0.72852 l -1.41602,-0.47265 c 0.0271,-0.0814 0.0814,-0.10832 0.0371,-0.082 -0.0443,0.0263 -0.16993,0.0787 -0.35742,0.11914 -0.37499,0.0809 -0.97837,0.1208 -1.69922,0.10547 -1.4417,-0.0307 -3.36816,-0.26222 -5.27344,-0.5586 -3.81056,-0.59275 -7.55273,-1.4414 -7.55273,-1.4414 z"
     id="path3964"
     inkscape:connector-curvature="0" />
  <path
     style="color:#000000;font-style:normal;font-variant:normal;font-weight:normal;font-stretch:normal;font-size:medium;line-height:normal;font-family:sans-serif;font-variant-ligatures:normal;font-variant-position:normal;font-variant-caps:normal;font-variant-numeric:normal;font-variant-alternates:normal;font-feature-settings:normal;text-indent:0;text-align:start;text-decoration:none;text-decoration-line:none;text-decoration-style:solid;text-decoration-color:#000000;letter-spacing:normal;word-spacing:normal;text-transform:none;writing-mode:lr-tb;direction:ltr;text-orientation:mixed;dominant-baseline:auto;baseline-shift:baseline;text-anchor:start;white-space:normal;shape-padding:0;clip-rule:nonzero;display:inline;overflow:visible;visibility:visible;opacity:1;isolation:auto;mix-blend-mode:normal;color-interpolation:sRGB;color-interpolation-filters:linearRGB;solid-color:#000000;solid-opacity:1;vector-effect:none;fill:#000000;fill-opacity:1;fill-rule:nonzero;stroke:none;stroke-width:25.52813911;stroke-linecap:butt;stroke-linejoin:miter;stroke-miterlimit:4;stroke-dasharray:none;stroke-dashoffset:0;stroke-opacity:1;color-rendering:auto;image-rendering:auto;shape-rendering:auto;text-rendering:auto;enable-background:accumulate"
     d="m 87.341797,541.12504 -21.220703,14.1914 c 0,0 5.925137,8.88966 14.765625,18.32813 7.01864,7.49339 15.733571,15.93745 26.990231,20.67187 0.76271,5.61474 1.96317,13.26963 3.90821,22.28321 3.50202,16.22888 8.89331,35.61641 19.13867,51.11718 0.70106,2.97409 3.57695,14.97369 8.38281,29.54883 2.71839,8.2443 5.89689,16.812 9.65234,24.35938 2.76476,5.55635 5.26817,10.80363 9.95899,15.07031 0.0587,1.88734 -0.0727,4.24121 -0.86914,6.51367 -1.63698,4.67086 -4.2871,10.08418 -22.1836,11.73628 -8.32825,-1.8487 -8.8682,0.8819 -16.99023,-5.85542 -9.17952,-7.61449 -25.711036,-28.86038 -49.957031,-80.3125 l -0.115235,-0.24219 -0.123046,-0.23828 c 0,0 -1.527389,-2.93723 -2.925782,-6.71289 -1.398393,-3.77566 -1.802479,-8.65387 -1.941406,-7.82031 L 38.630859,649.5684 c -1.505767,9.0346 1.164883,15.43229 3.183594,20.88281 2.018711,5.45052 4.25,9.68945 4.25,9.68945 l -0.238281,-0.48047 c 24.945069,52.93562 41.972483,76.81841 56.751948,89.07811 14.77948,12.2597 30.2646,11.7205 28.89649,11.293 l 2.33008,0.7266 2.43359,-0.1817 c 26.02842,-1.957 41.1801,-15.4553 45.90039,-28.9238 4.72029,-13.46859 0.95899,-25.56642 0.95899,-25.56642 l -1.5,-5.27344 -4.85547,-2.54297 c 1.80054,0.94314 -2.08392,-2.30037 -4.92774,-8.01563 -2.84382,-5.71525 -5.77098,-13.42261 -8.26367,-20.98242 -4.98538,-15.11961 -8.3125,-29.53125 -8.3125,-29.53125 l -0.5664,-2.46875 -1.4668,-2.06445 c -7.20073,-10.13436 -13.13397,-28.54737 -16.4668,-43.99219 -3.33283,-15.44482 -4.46484,-27.69531 -4.46484,-27.69531 l -0.87891,-9.53906 -9.40625,-1.82032 c -5.23752,-1.01371 -15.19173,-8.19546 -22.470702,-15.96679 -7.27897,-7.77134 -12.175781,-15.06836 -12.175781,-15.06836 z"
     id="path3966"
     inkscape:connector-curvature="0" />
  <path
     style="color:#000000;font-style:normal;font-variant:normal;font-weight:normal;font-stretch:normal;font-size:medium;line-height:normal;font-family:sans-serif;font-variant-ligatures:normal;font-variant-position:normal;font-variant-caps:normal;font-variant-numeric:normal;font-variant-alternates:normal;font-feature-settings:normal;text-indent:0;text-align:start;text-decoration:none;text-decoration-line:none;text-decoration-style:solid;text-decoration-color:#000000;letter-spacing:normal;word-spacing:normal;text-transform:none;writing-mode:lr-tb;direction:ltr;text-orientation:mixed;dominant-baseline:auto;baseline-shift:baseline;text-anchor:start;white-space:normal;shape-padding:0;clip-rule:nonzero;display:inline;overflow:visible;visibility:visible;opacity:1;isolation:auto;mix-blend-mode:normal;color-interpolation:sRGB;color-interpolation-filters:linearRGB;solid-color:#000000;solid-opacity:1;vector-effect:none;fill:#000000;fill-opacity:1;fill-rule:nonzero;stroke:none;stroke-width:1.49340057px;stroke-linecap:butt;stroke-linejoin:miter;stroke-miterlimit:4;stroke-dasharray:none;stroke-dashoffset:0;stroke-opacity:1;color-rendering:auto;image-rendering:auto;shape-rendering:auto;text-rendering:auto;enable-background:accumulate"
     d="m 41.34375,670.15433 -0.746094,1.29493 c 0,0 9.160191,5.40625 16.47461,1.01757 l -0.767578,-1.27929 c -6.353984,3.81241 -14.960938,-1.03321 -14.960938,-1.03321 z"
     id="path3968"
     inkscape:connector-curvature="0" />
  <path
     style="color:#000000;font-style:normal;font-variant:normal;font-weight:normal;font-stretch:normal;font-size:medium;line-height:normal;font-family:sans-serif;font-variant-ligatures:normal;font-variant-position:normal;font-variant-caps:normal;font-variant-numeric:normal;font-variant-alternates:normal;font-feature-settings:normal;text-indent:0;text-align:start;text-decoration:none;text-decoration-line:none;text-decoration-style:solid;text-decoration-color:#000000;letter-spacing:normal;word-spacing:normal;text-transform:none;writing-mode:lr-tb;direction:ltr;text-orientation:mixed;dominant-baseline:auto;baseline-shift:baseline;text-anchor:start;white-space:normal;shape-padding:0;clip-rule:nonzero;display:inline;overflow:visible;visibility:visible;opacity:1;isolation:auto;mix-blend-mode:normal;color-interpolation:sRGB;color-interpolation-filters:linearRGB;solid-color:#000000;solid-opacity:1;vector-effect:none;fill:#000000;fill-opacity:1;fill-rule:nonzero;stroke:none;stroke-width:25.52813911;stroke-linecap:butt;stroke-linejoin:miter;stroke-miterlimit:4;stroke-dasharray:none;stroke-dashoffset:0;stroke-opacity:1;color-rendering:auto;image-rendering:auto;shape-rendering:auto;text-rendering:auto;enable-background:accumulate"
     d="m 133.49414,463.64652 c -11.86004,-0.25659 -22.06298,1.76663 -30.58594,5.11524 -22.727892,8.9296 -32.935544,27.07617 -32.935544,27.07617 l 22.357422,12.32422 c 0,0 5.240066,-9.87533 19.914062,-15.64063 14.674,-5.76529 39.35192,-7.62701 80.99805,17.65235 l 2.72265,1.65234 3.17969,0.17969 c 0,0 14.45477,0.84833 30.96094,5.22656 16.50617,4.37823 33.5334,12.82066 39.58203,23.00781 l 0.80664,1.35742 1.11328,1.1211 c 0,0 18.50733,18.63178 39.69922,38.29687 10.59594,9.83255 21.86364,19.93176 32.02148,28.23633 10.15785,8.30457 17.99432,14.70896 27.11719,18.10352 l 8.9043,-23.92579 c -1.26703,-0.47145 -10.40415,-6.20807 -19.86328,-13.9414 -9.45914,-7.73334 -20.45133,-17.56723 -30.81641,-27.18555 -20.23526,-18.77739 -37.55207,-36.17845 -38.39258,-37.02344 -12.60054,-19.28909 -34.96788,-27.77141 -53.62695,-32.7207 -16.47155,-4.36905 -28.96422,-5.42668 -32.89844,-5.7168 -27.63336,-16.27131 -51.13595,-22.78161 -70.25781,-23.19531 z"
     id="path3970"
     inkscape:connector-curvature="0" />
  <path
     style="color:#000000;font-style:normal;font-variant:normal;font-weight:normal;font-stretch:normal;font-size:medium;line-height:normal;font-family:sans-serif;font-variant-ligatures:normal;font-variant-position:normal;font-variant-caps:normal;font-variant-numeric:normal;font-variant-alternates:normal;font-feature-settings:normal;text-indent:0;text-align:start;text-decoration:none;text-decoration-line:none;text-decoration-style:solid;text-decoration-color:#000000;letter-spacing:normal;word-spacing:normal;text-transform:none;writing-mode:lr-tb;direction:ltr;text-orientation:mixed;dominant-baseline:auto;baseline-shift:baseline;text-anchor:start;white-space:normal;shape-padding:0;clip-rule:nonzero;display:inline;overflow:visible;visibility:visible;opacity:1;isolation:auto;mix-blend-mode:normal;color-interpolation:sRGB;color-interpolation-filters:linearRGB;solid-color:#000000;solid-opacity:1;vector-effect:none;fill:#000000;fill-opacity:1;fill-rule:nonzero;stroke:none;stroke-width:25.52813911;stroke-linecap:butt;stroke-linejoin:miter;stroke-miterlimit:4;stroke-dasharray:none;stroke-dashoffset:0;stroke-opacity:1;color-rendering:auto;image-rendering:auto;shape-rendering:auto;text-rendering:auto;enable-background:accumulate"
     d="m 127.01953,574.33207 -14.91406,20.71875 c 0,0 35.7234,25.69768 88.44726,31.86133 1.89994,2.99285 4.35905,6.70186 7.50196,10.69336 5.8387,7.41515 13.27397,16.12043 24.28906,20.66992 2.30703,4.04696 5.9491,10.26241 11.24609,18.05469 3.87186,5.69579 8.15264,11.51108 12.8125,16.4707 4.65987,4.95962 8.78092,10.37647 18.89454,11.18555 l 2.03515,-25.44727 c 4.07298,0.32583 0.76304,0.0671 -2.32422,-3.21875 -3.08726,-3.28585 -6.86932,-8.28525 -10.30664,-13.3418 -6.87463,-10.11309 -12.45898,-20.32031 -12.45898,-20.32031 l -2.67969,-4.91406 -5.42969,-1.35742 c -3.19498,-0.79875 -10.72064,-6.84215 -16.02148,-13.57422 -5.30084,-6.73207 -8.71485,-12.98828 -8.71485,-12.98828 l -3.29101,-6.06836 -6.87891,-0.56641 c -49.01213,-4.04686 -82.20703,-27.85742 -82.20703,-27.85742 z"
     id="path3972"
     inkscape:connector-curvature="0" />
  <path
     style="color:#000000;font-style:normal;font-variant:normal;font-weight:normal;font-stretch:normal;font-size:medium;line-height:normal;font-family:sans-serif;font-variant-ligatures:normal;font-variant-position:normal;font-variant-caps:normal;font-variant-numeric:normal;font-variant-alternates:normal;font-feature-settings:normal;text-indent:0;text-align:start;text-decoration:none;text-decoration-line:none;text-decoration-style:solid;text-decoration-color:#000000;letter-spacing:normal;word-spacing:normal;text-transform:none;writing-mode:lr-tb;direction:ltr;text-orientation:mixed;dominant-baseline:auto;baseline-shift:baseline;text-anchor:start;white-space:normal;shape-padding:0;clip-rule:nonzero;display:inline;overflow:visible;visibility:visible;opacity:1;isolation:auto;mix-blend-mode:normal;color-interpolation:sRGB;color-interpolation-filters:linearRGB;solid-color:#000000;solid-opacity:1;vector-effect:none;fill:#000000;fill-opacity:1;fill-rule:nonzero;stroke:none;stroke-width:25.52813911;stroke-linecap:butt;stroke-linejoin:miter;stroke-miterlimit:4;stroke-dasharray:none;stroke-dashoffset:0;stroke-opacity:1;color-rendering:auto;image-rendering:auto;shape-rendering:auto;text-rendering:auto;enable-background:accumulate"
     d="m 229.14648,625.90043 -24.54492,7.01367 c 3.27701,11.46953 14.67478,42.83224 16.52539,47.91602 -1.05142,6.66041 -1.07598,12.91683 -0.90234,17.64257 0.0681,1.85468 0.1627,2.93104 0.25195,4.18555 -6.06582,17.07178 -14.56388,18.88242 -24.40039,19.16602 -10.19733,0.29399 -19.9707,-3.86719 -19.9707,-3.86719 l -10.57031,23.23633 c 0,0 13.97739,6.64721 31.27734,6.14843 16.51143,-0.47603 37.58489,-10.35507 47.20508,-35.14843 0.004,-0.003 0.0898,-0.084 0.0898,-0.084 5.7e-4,-8.8e-4 1.06835,-1.96817 1.30274,-2.61523 1.87506,-5.17647 0.77011,-4.07907 0.76757,-4.50391 -0.0101,-1.69935 -0.0725,-1.51692 -0.12109,-2.13476 -0.0971,-1.23569 -0.23921,-3.06006 -0.32226,-5.32032 -0.16611,-4.52051 0.0179,-10.73031 0.99218,-15.08203 l 0.8125,-3.6289 -1.26367,-3.49805 c 0,0 -14.87631,-41.54169 -17.12891,-49.42578 z m -8.59375,78.04883 c 0.0168,0.21866 0.0407,0.7284 0.0547,0.90625 0.0492,0.62627 0.0511,1.64564 0.043,0.28711 -0.001,-0.20517 -0.18894,-0.3578 -0.0977,-1.19336 z"
     id="path3974"
     inkscape:connector-curvature="0" />
  <path
     style="color:#000000;font-style:normal;font-variant:normal;font-weight:normal;font-stretch:normal;font-size:medium;line-height:normal;font-family:sans-serif;font-variant-ligatures:normal;font-variant-position:normal;font-variant-caps:normal;font-variant-numeric:normal;font-variant-alternates:normal;font-feature-settings:normal;text-indent:0;text-align:start;text-decoration:none;text-decoration-line:none;text-decoration-style:solid;text-decoration-color:#000000;letter-spacing:normal;word-spacing:normal;text-transform:none;writing-mode:lr-tb;direction:ltr;text-orientation:mixed;dominant-baseline:auto;baseline-shift:baseline;text-anchor:start;white-space:normal;shape-padding:0;clip-rule:nonzero;display:inline;overflow:visible;visibility:visible;opacity:1;isolation:auto;mix-blend-mode:normal;color-interpolation:sRGB;color-interpolation-filters:linearRGB;solid-color:#000000;solid-opacity:1;vector-effect:none;fill:#000000;fill-opacity:1;fill-rule:nonzero;stroke:none;stroke-width:1.49340057px;stroke-linecap:butt;stroke-linejoin:miter;stroke-miterlimit:4;stroke-dasharray:none;stroke-dashoffset:0;stroke-opacity:1;color-rendering:auto;image-rendering:auto;shape-rendering:auto;text-rendering:auto;enable-background:accumulate"
     d="m 241.11133,649.35941 c -0.8459,1.21599 -1.59055,3.54634 -2.42383,6.55469 -0.83328,3.00835 -1.68083,6.62992 -2.44336,10.12695 -1.52505,6.99408 -2.70703,13.49024 -2.70703,13.49024 l 1.46875,0.26758 c 0,0 1.17902,-6.4766 2.69726,-13.43946 0.75913,-3.48143 1.60331,-7.08456 2.42383,-10.04687 0.82053,-2.96232 1.69,-5.35075 2.21094,-6.09961 z"
     id="path3976"
     inkscape:connector-curvature="0" />
  <path
     style="color:#000000;font-style:normal;font-variant:normal;font-weight:normal;font-stretch:normal;font-size:medium;line-height:normal;font-family:sans-serif;font-variant-ligatures:normal;font-variant-position:normal;font-variant-caps:normal;font-variant-numeric:normal;font-variant-alternates:normal;font-feature-settings:normal;text-indent:0;text-align:start;text-decoration:none;text-decoration-line:none;text-decoration-style:solid;text-decoration-color:#000000;letter-spacing:normal;word-spacing:normal;text-transform:none;writing-mode:lr-tb;direction:ltr;text-orientation:mixed;dominant-baseline:auto;baseline-shift:baseline;text-anchor:start;white-space:normal;shape-padding:0;clip-rule:nonzero;display:inline;overflow:visible;visibility:visible;opacity:1;isolation:auto;mix-blend-mode:normal;color-interpolation:sRGB;color-interpolation-filters:linearRGB;solid-color:#000000;solid-opacity:1;vector-effect:none;fill:#000000;fill-opacity:1;fill-rule:nonzero;stroke:none;stroke-width:25.52813911;stroke-linecap:butt;stroke-linejoin:miter;stroke-miterlimit:4;stroke-dasharray:none;stroke-dashoffset:0;stroke-opacity:1;color-rendering:auto;image-rendering:auto;shape-rendering:auto;text-rendering:auto;enable-background:accumulate"
     d="m 195.53711,449.65433 -24.01367,8.66407 16.33594,45.27734 24.01171,-8.66406 z"
     id="path3978"
     inkscape:connector-curvature="0" />
  <path
     style="color:#000000;font-style:normal;font-variant:normal;font-weight:normal;font-stretch:normal;font-size:medium;line-height:normal;font-family:sans-serif;font-variant-ligatures:normal;font-variant-position:normal;font-variant-caps:normal;font-variant-numeric:normal;font-variant-alternates:normal;font-feature-settings:normal;text-indent:0;text-align:start;text-decoration:none;text-decoration-line:none;text-decoration-style:solid;text-decoration-color:#000000;letter-spacing:normal;word-spacing:normal;text-transform:none;writing-mode:lr-tb;direction:ltr;text-orientation:mixed;dominant-baseline:auto;baseline-shift:baseline;text-anchor:start;white-space:normal;shape-padding:0;clip-rule:nonzero;display:inline;overflow:visible;visibility:visible;opacity:1;isolation:auto;mix-blend-mode:normal;color-interpolation:sRGB;color-interpolation-filters:linearRGB;solid-color:#000000;solid-opacity:1;vector-effect:none;fill:#000000;fill-opacity:1;fill-rule:nonzero;stroke:none;stroke-width:19.14610481;stroke-linecap:butt;stroke-linejoin:miter;stroke-miterlimit:4;stroke-dasharray:none;stroke-dashoffset:0;stroke-opacity:1;color-rendering:auto;image-rendering:auto;shape-rendering:auto;text-rendering:auto;enable-background:accumulate"
     d="m 156.71484,695.0723 -9.18945,10.64649 c -2.52399,2.92384 -9.4208,7.30105 -17.04101,10.83398 -7.62022,3.53294 -15.82575,6.53656 -21.93165,9.08203 l -9.353511,3.90039 4.423831,9.11524 c 6.27101,12.92007 14.31134,21.65177 23.54492,26.07417 9.23358,4.4225 19.70034,3.913 27.62695,-0.8906 15.85322,-9.6071 20.649,-33.05686 8.45313,-56.30662 z m -6.24609,32.61328 c 2.20949,10.59912 -1.72585,17.43025 -5.5957,19.7754 -2.55247,1.5468 -5.28686,1.98219 -9.4336,-0.004 -2.65495,-1.2716 -5.87845,-3.99252 -9.14257,-8.30469 3.84112,-1.5432 8.04306,-3.28169 12.24218,-5.22851 4.0573,-1.88108 8.10777,-3.89859 11.92969,-6.23829 z"
     id="path3980"
     inkscape:connector-curvature="0" />
  <path
     style="color:#000000;font-style:normal;font-variant:normal;font-weight:normal;font-stretch:normal;font-size:medium;line-height:normal;font-family:sans-serif;font-variant-ligatures:normal;font-variant-position:normal;font-variant-caps:normal;font-variant-numeric:normal;font-variant-alternates:normal;font-feature-settings:normal;text-indent:0;text-align:start;text-decoration:none;text-decoration-line:none;text-decoration-style:solid;text-decoration-color:#000000;letter-spacing:normal;word-spacing:normal;text-transform:none;writing-mode:lr-tb;direction:ltr;text-orientation:mixed;dominant-baseline:auto;baseline-shift:baseline;text-anchor:start;white-space:normal;shape-padding:0;clip-rule:nonzero;display:inline;overflow:visible;visibility:visible;opacity:1;isolation:auto;mix-blend-mode:normal;color-interpolation:sRGB;color-interpolation-filters:linearRGB;solid-color:#000000;solid-opacity:1;vector-effect:none;fill:#000000;fill-opacity:1;fill-rule:nonzero;stroke:none;stroke-width:19.14610481;stroke-linecap:butt;stroke-linejoin:miter;stroke-miterlimit:4;stroke-dasharray:none;stroke-dashoffset:0;stroke-opacity:1;color-rendering:auto;image-rendering:auto;shape-rendering:auto;text-rendering:auto;enable-background:accumulate"
     d="m 211.06055,644.6309 -6.91211,4.75195 c -16.72212,11.4949 -26.06448,14.03876 -37.38477,18.92969 l -6.12695,2.64648 0.36523,6.66602 c 1.07661,19.56536 7.23027,33.27908 17.48438,40.5957 10.2541,7.31662 23.33725,6.53892 33.09765,0.95508 9.76041,-5.58384 17.22427,-15.75399 19.11329,-28.2832 1.88901,-12.52921 -2.2942,-27.03675 -14.01758,-40.03321 z m -3.80664,25.38281 c 4.38705,6.90593 5.27548,12.95764 4.51171,18.02344 -0.98954,6.5633 -5.08999,11.88822 -9.68945,14.51953 -4.59946,2.63131 -8.6708,2.78947 -12.4707,0.0781 -3.2068,-2.28815 -6.98289,-8.19005 -8.66016,-19.52343 7.18526,-2.90423 15.38027,-6.41355 26.3086,-13.09766 z"
     id="path3980-1"
     inkscape:connector-curvature="0" />
  <path
     style="color:#000000;font-style:normal;font-variant:normal;font-weight:normal;font-stretch:normal;font-size:medium;line-height:normal;font-family:sans-serif;font-variant-ligatures:normal;font-variant-position:normal;font-variant-caps:normal;font-variant-numeric:normal;font-variant-alternates:normal;font-feature-settings:normal;text-indent:0;text-align:start;text-decoration:none;text-decoration-line:none;text-decoration-style:solid;text-decoration-color:#000000;letter-spacing:normal;word-spacing:normal;text-transform:none;writing-mode:lr-tb;direction:ltr;text-orientation:mixed;dominant-baseline:auto;baseline-shift:baseline;text-anchor:start;white-space:normal;shape-padding:0;clip-rule:nonzero;display:inline;overflow:visible;visibility:visible;opacity:1;isolation:auto;mix-blend-mode:normal;color-interpolation:sRGB;color-interpolation-filters:linearRGB;solid-color:#000000;solid-opacity:1;vector-effect:none;fill:#000000;fill-opacity:1;fill-rule:nonzero;stroke:none;stroke-width:19.14610481;stroke-linecap:butt;stroke-linejoin:miter;stroke-miterlimit:4;stroke-dasharray:none;stroke-dashoffset:0;stroke-opacity:1;color-rendering:auto;image-rendering:auto;shape-rendering:auto;text-rendering:auto;enable-background:accumulate"
     d="m 138.28711,477.96098 c -4.01542,-0.0903 -7.95576,0.26419 -11.74805,1.02343 -15.16914,3.03699 -28.050568,12.02991 -35.916013,23.94922 -7.865445,11.91931 -10.554723,27.63334 -3.625,41.68945 6.929723,14.05612 22.370703,25.11144 46.595703,31.22266 l 12.32422,3.10938 -0.41406,-12.70313 c -0.45165,-13.83079 0.55245,-26.25044 4.38867,-35.9043 3.83621,-9.65385 9.94868,-16.91157 22.33984,-22.32812 l 14.33985,-6.26953 -12.11133,-9.91211 c -11.40788,-9.33577 -24.12757,-13.60607 -36.17383,-13.87695 z m -0.35938,19.06445 c 3.90171,0.0426 7.91741,0.74226 12.00391,2.28711 -8.32766,6.66644 -14.24228,14.93121 -17.83203,23.96484 -3.79889,9.55993 -5.25503,19.77316 -5.66211,30.19141 -12.75049,-5.04551 -19.38794,-11.4735 -22.26562,-17.31055 -3.66638,-7.4368 -2.49178,-15.21873 2.43164,-22.67969 4.92341,-7.46095 13.75636,-13.73123 23.69336,-15.7207 2.48424,-0.49737 5.03224,-0.7608 7.63085,-0.73242 z"
     id="path3980-1-7"
     inkscape:connector-curvature="0" />
  <path
     style="font-style:normal;font-weight:normal;font-size:233.3336792px;line-height:1.25;font-family:sans-serif;letter-spacing:0px;word-spacing:0px;fill:#000000;fill-opacity:1;stroke:none;stroke-width:1.00000155"
     d="M 183.28687,1080.3555 V 1250 h 22.5586 v -67.4473 h 31.7871 L 294.37281,1250 h 29.2793 l -63.80078,-74.1699 c 10.78562,-4.1775 19.25388,-10.3672 25.40624,-18.5703 6.15237,-8.2791 9.22852,-18.533 9.22852,-30.7618 0,-9.0386 -1.7463,-16.4835 -5.24023,-22.332 -3.41798,-5.9245 -8.20311,-10.8236 -14.35547,-14.6972 -5.46877,-3.418 -11.62108,-5.7713 -18.45703,-7.0626 -6.83596,-1.3671 -15.38279,-2.0507 -25.63672,-2.0507 z m 22.5586,19.3672 h 26.54687 c 6.07641,0 11.35654,0.4557 15.83789,1.3671 4.48135,0.8355 8.35503,2.3559 11.6211,4.5586 3.94966,2.5825 6.75867,5.7726 8.42968,9.5704 1.74697,3.7217 2.6211,8.0119 2.6211,12.873 0,6.3802 -0.83485,11.6604 -2.50586,15.8379 -1.59506,4.1015 -4.10156,7.7474 -7.51953,10.9375 -3.7218,3.418 -8.24174,5.7713 -13.5586,7.0625 -5.31685,1.2153 -11.54577,1.8242 -18.68555,1.8242 h -22.7871 z"
     id="text1669"
     inkscape:connector-curvature="0" />
</svg>
