<?xml version="1.0" encoding="UTF-8" standalone="no"?>
<!-- Created with Inkscape (http://www.inkscape.org/) -->

<svg
   xmlns:dc="http://purl.org/dc/elements/1.1/"
   xmlns:cc="http://creativecommons.org/ns#"
   xmlns:rdf="http://www.w3.org/1999/02/22-rdf-syntax-ns#"
   xmlns:svg="http://www.w3.org/2000/svg"
   xmlns="http://www.w3.org/2000/svg"
   xmlns:sodipodi="http://sodipodi.sourceforge.net/DTD/sodipodi-0.dtd"
   xmlns:inkscape="http://www.inkscape.org/namespaces/inkscape"
   version="1.1"
   id="svg4572"
   width="1000"
   height="1250"
   viewBox="0 0 1000 1250"
   sodipodi:docname="U.svg"
   inkscape:version="0.92.4 (5da689c313, 2019-01-14)">
  <metadata
     id="metadata4578">
    <rdf:RDF>
      <cc:Work
         rdf:about="">
        <dc:format>image/svg+xml</dc:format>
        <dc:type
           rdf:resource="http://purl.org/dc/dcmitype/StillImage" />
        <dc:title></dc:title>
      </cc:Work>
    </rdf:RDF>
  </metadata>
  <defs
     id="defs4576">
    <clipPath
       clipPathUnits="userSpaceOnUse"
       id="clipPath4653">
      <rect
         style="opacity:1;fill:#d38d5f;fill-opacity:0;stroke:#ff0000;stroke-width:18.52108765;stroke-miterlimit:4;stroke-dasharray:none"
         id="rect4655"
         width="981.47888"
         height="981.47894"
         x="9.2605438"
         y="9.2605152"
         transform="rotate(-90)" />
    </clipPath>
  </defs>
  <sodipodi:namedview
     pagecolor="#ffffff"
     bordercolor="#666666"
     borderopacity="1"
     objecttolerance="10"
     gridtolerance="10"
     guidetolerance="10"
     inkscape:pageopacity="0"
     inkscape:pageshadow="2"
     inkscape:window-width="1366"
     inkscape:window-height="715"
     id="namedview4574"
     showgrid="false"
     inkscape:zoom="0.27314815"
     inkscape:cx="801.23426"
     inkscape:cy="501.29855"
     inkscape:window-x="-8"
     inkscape:window-y="-8"
     inkscape:window-maximized="1"
     inkscape:current-layer="svg4572" />
  <path
     style="color:#000000;font-style:normal;font-variant:normal;font-weight:normal;font-stretch:normal;font-size:medium;line-height:normal;font-family:sans-serif;font-variant-ligatures:normal;font-variant-position:normal;font-variant-caps:normal;font-variant-numeric:normal;font-variant-alternates:normal;font-feature-settings:normal;text-indent:0;text-align:start;text-decoration:none;text-decoration-line:none;text-decoration-style:solid;text-decoration-color:#000000;letter-spacing:normal;word-spacing:normal;text-transform:none;writing-mode:lr-tb;direction:ltr;text-orientation:mixed;dominant-baseline:auto;baseline-shift:baseline;text-anchor:start;white-space:normal;shape-padding:0;clip-rule:nonzero;display:inline;overflow:visible;visibility:visible;opacity:1;isolation:auto;mix-blend-mode:normal;color-interpolation:sRGB;color-interpolation-filters:linearRGB;solid-color:#000000;solid-opacity:1;vector-effect:none;fill:#000000;fill-opacity:1;fill-rule:nonzero;stroke:none;stroke-width:27.71404076;stroke-linecap:butt;stroke-linejoin:miter;stroke-miterlimit:4;stroke-dasharray:none;stroke-dashoffset:0;stroke-opacity:1;color-rendering:auto;image-rendering:auto;shape-rendering:auto;text-rendering:auto;enable-background:accumulate"
     d="m 277.99414,0.49996 c -12.87569,1.05131 -25.36181,9.18149 -33.07812,21.59961 -10.21016,16.43153 -15.49084,39.99817 -15.42774,71.63281 -3.51683,57.51586 -7.93935,97.29939 -4.12695,165.44532 2.88146,51.50539 3.6256,95.77088 -1.07617,120.65234 -2.35089,12.44073 -6.60839,18.80222 -7.6211,19.52148 -0.50635,0.35964 -0.12102,0.3904 -1.54492,0.21876 -0.89463,-0.10785 -2.68442,-0.76146 -4.84766,-1.77344 -5.85653,-16.96959 -19.31442,-29.31819 -34.65234,-36.0918 -17.25532,-7.62038 -37.227,-9.2209 -55.86719,-4.66797 -18.64018,4.55293 -36.418927,15.86457 -46.039059,34.66211 -8.954406,17.49672 -9.945799,40.32847 -1.203125,66.69141 -5.344663,12.24326 -6.229108,25.35454 -5.328125,38.01953 C 45.499347,499.31038 29.91342,510.3643 20.849609,521.7441 9.6443815,535.8125 6.5292969,550.67965 6.5292969,550.67965 l -0.5390625,2.51758 0.4023437,2.54492 c 4.0427049,25.60415 0.068359,47.2207 0.068359,47.2207 l 0.4003906,-1.60156 C -2.957614,632.60321 1.0578565,677.48587 6.1542965,716.55856 11.250737,755.6312 18.419922,788.0547 18.419922,788.0547 l 0.507812,2.2949 1.234375,1.998 C 81.860359,892.24 130.61523,1000 130.61523,1000 l 25.25391,-11.416 c 0,0 -48.51011,-107.3062 -110.800781,-208.5762 -0.644776,-2.9589 -6.763185,-31.22678 -11.433593,-67.03323 -4.919756,-37.71811 -6.839727,-82.61092 -0.335938,-103.30469 l 0.248047,-0.7871 0.152344,-0.8125 c 0,0 4.473745,-24.00991 0.488281,-53.24415 0.558209,-2.07512 2.435093,-8.39846 8.341797,-15.81445 6.961845,-8.74074 17.241245,-16.96727 39.287109,-15.64453 l 17.128906,1.0293 -2.603515,-16.96289 c -2.563056,-16.70218 -2.203255,-31.99247 3.091797,-41.12696 l 3.308596,-5.70703 -2.34571,-6.16601 c -9.057959,-23.82692 -7.41411,-39.55507 -2.013668,-50.10743 5.400438,-10.55235 15.439088,-17.31249 27.945308,-20.36718 12.50623,-3.05469 27.01028,-1.79708 38.09376,3.09765 11.08347,4.89474 18.35096,12.42265 20.61328,23.0586 l 1.20507,5.66992 4.88282,3.12109 c 6.76508,4.32678 13.45078,7.30826 20.67968,8.17969 7.22891,0.87143 15.05262,-0.98038 20.91016,-5.14062 11.71509,-8.32049 15.89144,-21.55207 18.80469,-36.96876 5.82649,-30.83337 4.42515,-75.33876 1.51562,-127.3457 -3.71733,-66.44656 0.57323,-104.14489 4.13086,-162.41015 l 0.0293,-0.45508 -0.002,-0.45313 c -0.13118,-28.67933 5.28761,-47.96847 11.26367,-57.58593 5.97606,-9.61747 9.01884,-9.96502 14.06836,-8.37696 5.04952,1.58807 14.36929,9.49311 21.73828,26.52149 7.36899,17.02838 12.86697,42.31491 13.12109,75.20117 l 27.67969,0.86328 c 1.67809,-23.91978 19.45723,-43.83498 31.52344,-46.01563 6.0331,-1.09032 10.9843,-0.14314 17.76172,7.9043 6.70352,7.9597 13.88412,23.99571 17.69922,50.25391 -0.61617,54.06785 -1.11334,50.32067 0.3457,115.48828 1.09023,48.69509 1.87905,79.35541 1.10156,124.00195 l -0.006,0.31055 0.008,0.30859 c 0,0 3.51508,129.2167 5.99219,228.60938 l 0.008,0.32226 0.0234,0.32032 c 0,0 7.76544,112.87599 -18.13476,212.16018 l -0.17774,0.6797 -0.10742,0.6914 c 0,0 -12.43851,80.0322 22.99805,173.2461 l 25.90625,-9.8477 C 417.38627,903.5703 428.31561,831.4382 428.45312,830.541 455.64316,725.33397 447.16211,610.46481 447.16211,610.46481 l 0.0312,0.64062 c -2.47606,-99.35041 -5.9795,-228.19796 -5.98633,-228.44922 0.77472,-44.96768 -0.0214,-76.20439 -1.10742,-124.70898 -1.47409,-65.84202 -0.95266,-59.5079 -0.32417,-115.86133 l 0.0117,-1.05078 -0.14649,-1.04102 C 435.41021,110.03429 427.3776,89.0203 415.54688,74.97262 403.71615,60.92494 386.77492,54.91645 371.6582,57.6484 359.22341,59.89566 348.38395,66.59165 339.61133,75.95113 337.05484,63.93427 333.72722,53.18219 329.69531,43.8652 320.39558,22.37523 307.70162,7.21568 290.83789,1.91207 286.62196,0.58617 282.28604,0.14953 277.99414,0.49996 Z"
     id="path3944"
     inkscape:connector-curvature="0" />
  <path
     style="color:#000000;font-style:normal;font-variant:normal;font-weight:normal;font-stretch:normal;font-size:medium;line-height:normal;font-family:sans-serif;font-variant-ligatures:normal;font-variant-position:normal;font-variant-caps:normal;font-variant-numeric:normal;font-variant-alternates:normal;font-feature-settings:normal;text-indent:0;text-align:start;text-decoration:none;text-decoration-line:none;text-decoration-style:solid;text-decoration-color:#000000;letter-spacing:normal;word-spacing:normal;text-transform:none;writing-mode:lr-tb;direction:ltr;text-orientation:mixed;dominant-baseline:auto;baseline-shift:baseline;text-anchor:start;white-space:normal;shape-padding:0;clip-rule:nonzero;display:inline;overflow:visible;visibility:visible;opacity:1;isolation:auto;mix-blend-mode:normal;color-interpolation:sRGB;color-interpolation-filters:linearRGB;solid-color:#000000;solid-opacity:1;vector-effect:none;fill:#000000;fill-opacity:1;fill-rule:nonzero;stroke:none;stroke-width:20.78552818;stroke-linecap:butt;stroke-linejoin:miter;stroke-miterlimit:4;stroke-dasharray:none;stroke-dashoffset:0;stroke-opacity:1;color-rendering:auto;image-rendering:auto;shape-rendering:auto;text-rendering:auto;enable-background:accumulate"
     d="m 191.20508,927.9453 c -22.97926,20.6224 -66.75391,6.8398 -66.75391,6.8398 l -6.93359,19.5957 c 0,0 52.67819,20.3467 87.57031,-10.9668 z"
     id="path3946"
     inkscape:connector-curvature="0" />
  <path
     style="color:#000000;font-style:normal;font-variant:normal;font-weight:normal;font-stretch:normal;font-size:medium;line-height:normal;font-family:sans-serif;font-variant-ligatures:normal;font-variant-position:normal;font-variant-caps:normal;font-variant-numeric:normal;font-variant-alternates:normal;font-feature-settings:normal;text-indent:0;text-align:start;text-decoration:none;text-decoration-line:none;text-decoration-style:solid;text-decoration-color:#000000;letter-spacing:normal;word-spacing:normal;text-transform:none;writing-mode:lr-tb;direction:ltr;text-orientation:mixed;dominant-baseline:auto;baseline-shift:baseline;text-anchor:start;white-space:normal;shape-padding:0;clip-rule:nonzero;display:inline;overflow:visible;visibility:visible;opacity:1;isolation:auto;mix-blend-mode:normal;color-interpolation:sRGB;color-interpolation-filters:linearRGB;solid-color:#000000;solid-opacity:1;vector-effect:none;fill:#000000;fill-opacity:1;fill-rule:nonzero;stroke:none;stroke-width:20.78552818;stroke-linecap:butt;stroke-linejoin:miter;stroke-miterlimit:4;stroke-dasharray:none;stroke-dashoffset:0;stroke-opacity:1;color-rendering:auto;image-rendering:auto;shape-rendering:auto;text-rendering:auto;enable-background:accumulate"
     d="m 193.44727,729.19918 c -13.29714,41.24042 -12.97551,73.68452 -3.85157,98.76562 9.12394,25.0811 26.87289,42.0691 45.68946,53.0664 37.63312,21.9947 80.73437,22.0078 80.73437,22.0078 l 0.18945,-20.7851 c 0,0 -38.88275,-0.7269 -70.43554,-19.168 -15.7764,-9.2205 -29.42259,-22.3739 -36.64453,-42.2266 -7.22195,-19.8526 -8.1982,-47.136 4.10156,-85.28317 z"
     id="path3948"
     inkscape:connector-curvature="0" />
  <path
     style="color:#000000;font-style:normal;font-variant:normal;font-weight:normal;font-stretch:normal;font-size:medium;line-height:normal;font-family:sans-serif;font-variant-ligatures:normal;font-variant-position:normal;font-variant-caps:normal;font-variant-numeric:normal;font-variant-alternates:normal;font-feature-settings:normal;text-indent:0;text-align:start;text-decoration:none;text-decoration-line:none;text-decoration-style:solid;text-decoration-color:#000000;letter-spacing:normal;word-spacing:normal;text-transform:none;writing-mode:lr-tb;direction:ltr;text-orientation:mixed;dominant-baseline:auto;baseline-shift:baseline;text-anchor:start;white-space:normal;shape-padding:0;clip-rule:nonzero;display:inline;overflow:visible;visibility:visible;opacity:1;isolation:auto;mix-blend-mode:normal;color-interpolation:sRGB;color-interpolation-filters:linearRGB;solid-color:#000000;solid-opacity:1;vector-effect:none;fill:#000000;fill-opacity:1;fill-rule:nonzero;stroke:none;stroke-width:20.78552818;stroke-linecap:butt;stroke-linejoin:miter;stroke-miterlimit:4;stroke-dasharray:none;stroke-dashoffset:0;stroke-opacity:1;color-rendering:auto;image-rendering:auto;shape-rendering:auto;text-rendering:auto;enable-background:accumulate"
     d="m 296.69531,271.81832 c -6.76755,6.54362 -11.40351,5.93402 -16.3789,4.50391 -4.9754,-1.43012 -8.55274,-4.38867 -8.55274,-4.38867 l -13.59179,15.72656 c 0,0 6.5667,5.81154 16.40234,8.63867 9.83564,2.82713 24.67709,1.96257 36.57031,-9.53711 z"
     id="path3958"
     inkscape:connector-curvature="0" />
  <path
     style="color:#000000;font-style:normal;font-variant:normal;font-weight:normal;font-stretch:normal;font-size:medium;line-height:normal;font-family:sans-serif;font-variant-ligatures:normal;font-variant-position:normal;font-variant-caps:normal;font-variant-numeric:normal;font-variant-alternates:normal;font-feature-settings:normal;text-indent:0;text-align:start;text-decoration:none;text-decoration-line:none;text-decoration-style:solid;text-decoration-color:#000000;letter-spacing:normal;word-spacing:normal;text-transform:none;writing-mode:lr-tb;direction:ltr;text-orientation:mixed;dominant-baseline:auto;baseline-shift:baseline;text-anchor:start;white-space:normal;shape-padding:0;clip-rule:nonzero;display:inline;overflow:visible;visibility:visible;opacity:1;isolation:auto;mix-blend-mode:normal;color-interpolation:sRGB;color-interpolation-filters:linearRGB;solid-color:#000000;solid-opacity:1;vector-effect:none;fill:#000000;fill-opacity:1;fill-rule:nonzero;stroke:none;stroke-width:20.78552818;stroke-linecap:butt;stroke-linejoin:miter;stroke-miterlimit:4;stroke-dasharray:none;stroke-dashoffset:0;stroke-opacity:1;color-rendering:auto;image-rendering:auto;shape-rendering:auto;text-rendering:auto;enable-background:accumulate"
     d="m 274.59961,142.3027 -14.23633,15.14453 c 0,0 5.60799,5.44437 14.22266,8.40039 8.61467,2.95602 22.26727,2.62847 32.73633,-7.49414 L 292.875,143.41012 c -5.08155,4.91339 -7.73625,4.08357 -11.54297,2.77734 -3.80672,-1.30623 -6.73242,-3.88476 -6.73242,-3.88476 z"
     id="path3962"
     inkscape:connector-curvature="0" />
  <path
     style="color:#000000;font-style:normal;font-variant:normal;font-weight:normal;font-stretch:normal;font-size:medium;line-height:normal;font-family:sans-serif;font-variant-ligatures:normal;font-variant-position:normal;font-variant-caps:normal;font-variant-numeric:normal;font-variant-alternates:normal;font-feature-settings:normal;text-indent:0;text-align:start;text-decoration:none;text-decoration-line:none;text-decoration-style:solid;text-decoration-color:#000000;letter-spacing:normal;word-spacing:normal;text-transform:none;writing-mode:lr-tb;direction:ltr;text-orientation:mixed;dominant-baseline:auto;baseline-shift:baseline;text-anchor:start;white-space:normal;shape-padding:0;clip-rule:nonzero;display:inline;overflow:visible;visibility:visible;opacity:1;isolation:auto;mix-blend-mode:normal;color-interpolation:sRGB;color-interpolation-filters:linearRGB;solid-color:#000000;solid-opacity:1;vector-effect:none;fill:#000000;fill-opacity:1;fill-rule:nonzero;stroke:none;stroke-width:27.71404076;stroke-linecap:butt;stroke-linejoin:miter;stroke-miterlimit:4;stroke-dasharray:none;stroke-dashoffset:0;stroke-opacity:1;color-rendering:auto;image-rendering:auto;shape-rendering:auto;text-rendering:auto;enable-background:accumulate"
     d="m 94.164062,501.83395 -23.037109,15.40429 c 0,0 6.431836,9.64981 16.029297,19.89649 7.61964,8.13507 17.08211,17.30552 29.30273,22.44531 0.82809,6.09534 2.13111,14.40642 4.24219,24.18945 3.80208,17.61934 9.65564,38.66769 20.7793,55.4961 0.76157,3.2307 3.8808,16.2565 9.09765,32.07812 2.95116,8.95023 6.40345,18.25168 10.48047,26.44531 3.00156,6.03227 5.71787,11.72925 10.81055,16.36133 0.0637,2.0489 -0.0788,4.60342 -0.94336,7.07032 -1.77718,5.0709 -4.65197,10.94875 -24.08203,12.74218 -9.04258,-2.00765 -9.62742,0.95709 -18.44531,-6.35742 -9.96554,-8.26649 -27.91227,-31.33169 -54.234378,-87.18945 l -0.125,-0.26367 -0.134765,-0.25977 c 0,0 -1.657652,-3.18618 -3.175781,-7.28516 -1.51813,-4.09897 -1.958537,-9.39522 -2.109375,-8.49023 l -27.335938,-4.55664 c -1.634778,9.80826 1.263513,16.75461 3.455078,22.67187 2.191566,5.91726 4.615235,10.51954 4.615235,10.51954 l -0.259766,-0.52149 c 27.081044,57.46828 45.566332,83.39563 61.61133,96.70508 16.04499,13.30949 32.85632,12.72389 31.37109,12.25979 l 2.5293,0.789 2.64258,-0.1972 c 28.25717,-2.1246 44.70756,-16.77857 49.83203,-31.40042 5.12446,-14.62185 1.03906,-27.75586 1.03906,-27.75586 l -1.62695,-5.72461 -5.27149,-2.76172 c 1.95473,1.02391 -2.26228,-2.49653 -5.34961,-8.70117 -3.08732,-6.20464 -6.26652,-14.57021 -8.97265,-22.77734 -5.41227,-16.41427 -9.02149,-32.06055 -9.02149,-32.06055 l -0.61718,-2.67969 -1.5918,-2.24218 c -7.81728,-11.00206 -14.25873,-30.99244 -17.87695,-47.75977 -3.61822,-16.76733 -4.84766,-30.06641 -4.84766,-30.06641 l -0.95313,-10.35742 -10.21093,-1.97656 c -5.68599,-1.10049 -16.49231,-8.89721 -24.39453,-17.33398 -7.902228,-8.43677 -13.220707,-16.35547 -13.220708,-16.35547 z"
     id="path3966"
     inkscape:connector-curvature="0" />
  <path
     style="color:#000000;font-style:normal;font-variant:normal;font-weight:normal;font-stretch:normal;font-size:medium;line-height:normal;font-family:sans-serif;font-variant-ligatures:normal;font-variant-position:normal;font-variant-caps:normal;font-variant-numeric:normal;font-variant-alternates:normal;font-feature-settings:normal;text-indent:0;text-align:start;text-decoration:none;text-decoration-line:none;text-decoration-style:solid;text-decoration-color:#000000;letter-spacing:normal;word-spacing:normal;text-transform:none;writing-mode:lr-tb;direction:ltr;text-orientation:mixed;dominant-baseline:auto;baseline-shift:baseline;text-anchor:start;white-space:normal;shape-padding:0;clip-rule:nonzero;display:inline;overflow:visible;visibility:visible;opacity:1;isolation:auto;mix-blend-mode:normal;color-interpolation:sRGB;color-interpolation-filters:linearRGB;solid-color:#000000;solid-opacity:1;vector-effect:none;fill:#000000;fill-opacity:1;fill-rule:nonzero;stroke:none;stroke-width:1.62127638px;stroke-linecap:butt;stroke-linejoin:miter;stroke-miterlimit:4;stroke-dasharray:none;stroke-dashoffset:0;stroke-opacity:1;color-rendering:auto;image-rendering:auto;shape-rendering:auto;text-rendering:auto;enable-background:accumulate"
     d="m 44.226562,641.91012 -0.808593,1.4043 c 0,0 9.945923,5.87178 17.886719,1.10742 l -0.833985,-1.39063 c -6.898122,4.13878 -16.24414,-1.12109 -16.244141,-1.12109 z"
     id="path3968"
     inkscape:connector-curvature="0" />
  <path
     style="color:#000000;font-style:normal;font-variant:normal;font-weight:normal;font-stretch:normal;font-size:medium;line-height:normal;font-family:sans-serif;font-variant-ligatures:normal;font-variant-position:normal;font-variant-caps:normal;font-variant-numeric:normal;font-variant-alternates:normal;font-feature-settings:normal;text-indent:0;text-align:start;text-decoration:none;text-decoration-line:none;text-decoration-style:solid;text-decoration-color:#000000;letter-spacing:normal;word-spacing:normal;text-transform:none;writing-mode:lr-tb;direction:ltr;text-orientation:mixed;dominant-baseline:auto;baseline-shift:baseline;text-anchor:start;white-space:normal;shape-padding:0;clip-rule:nonzero;display:inline;overflow:visible;visibility:visible;opacity:1;isolation:auto;mix-blend-mode:normal;color-interpolation:sRGB;color-interpolation-filters:linearRGB;solid-color:#000000;solid-opacity:1;vector-effect:none;fill:#000000;fill-opacity:1;fill-rule:nonzero;stroke:none;stroke-width:27.71404076;stroke-linecap:butt;stroke-linejoin:miter;stroke-miterlimit:4;stroke-dasharray:none;stroke-dashoffset:0;stroke-opacity:1;color-rendering:auto;image-rendering:auto;shape-rendering:auto;text-rendering:auto;enable-background:accumulate"
     d="m 144.26953,417.71871 c -12.87559,-0.27856 -23.95231,1.91936 -33.20508,5.55469 -24.674032,9.69422 -35.755856,29.39453 -35.755856,29.39453 l 24.271484,13.37891 c 0,0 5.688632,-10.72151 21.619142,-16.98047 15.93051,-6.25896 42.7214,-8.27795 87.93359,19.16601 l 2.95508,1.79297 3.45313,0.19532 c 0,0 15.69178,0.9207 33.61132,5.67382 17.91954,4.75313 36.40611,13.9171 42.97266,24.97657 l 0.875,1.47461 1.20898,1.21679 c 0,0 20.09117,20.22723 43.09766,41.57617 11.50324,10.67447 23.73603,21.63865 34.76367,30.6543 11.02765,9.01566 19.53537,15.9691 29.43946,19.6543 l 9.66601,-25.97461 c -1.37551,-0.51181 -11.29536,-6.74122 -21.56445,-15.13672 -10.2691,-8.3955 -22.20051,-19.07177 -33.45313,-29.51367 -21.96594,-20.38337 -40.76197,-39.26882 -41.67773,-40.18945 -13.67904,-20.94335 -37.9647,-30.15201 -58.22266,-35.5254 -17.88322,-4.74349 -31.44704,-5.8922 -35.71679,-6.20703 -29.99853,-17.66356 -55.51281,-24.73253 -76.27149,-25.18164 z"
     id="path3970"
     inkscape:connector-curvature="0" />
  <path
     style="color:#000000;font-style:normal;font-variant:normal;font-weight:normal;font-stretch:normal;font-size:medium;line-height:normal;font-family:sans-serif;font-variant-ligatures:normal;font-variant-position:normal;font-variant-caps:normal;font-variant-numeric:normal;font-variant-alternates:normal;font-feature-settings:normal;text-indent:0;text-align:start;text-decoration:none;text-decoration-line:none;text-decoration-style:solid;text-decoration-color:#000000;letter-spacing:normal;word-spacing:normal;text-transform:none;writing-mode:lr-tb;direction:ltr;text-orientation:mixed;dominant-baseline:auto;baseline-shift:baseline;text-anchor:start;white-space:normal;shape-padding:0;clip-rule:nonzero;display:inline;overflow:visible;visibility:visible;opacity:1;isolation:auto;mix-blend-mode:normal;color-interpolation:sRGB;color-interpolation-filters:linearRGB;solid-color:#000000;solid-opacity:1;vector-effect:none;fill:#000000;fill-opacity:1;fill-rule:nonzero;stroke:none;stroke-width:27.71404076;stroke-linecap:butt;stroke-linejoin:miter;stroke-miterlimit:4;stroke-dasharray:none;stroke-dashoffset:0;stroke-opacity:1;color-rendering:auto;image-rendering:auto;shape-rendering:auto;text-rendering:auto;enable-background:accumulate"
     d="m 137.24023,537.88278 -16.18945,22.49218 c 0,0 38.77902,27.89574 96.01563,34.58789 2.06274,3.24951 4.73352,7.27684 8.14648,11.61133 6.33842,8.04985 14.41155,17.50021 26.36914,22.43945 2.50436,4.39314 6.45782,11.14121 12.20899,19.60157 4.20341,6.1835 8.85322,12.49462 13.9121,17.8789 5.05889,5.38429 9.53018,11.26617 20.50977,12.14453 l 2.21094,-27.625 c 4.42168,0.35374 0.82819,0.0711 -2.52344,-3.49609 -3.35163,-3.56721 -7.4578,-8.99291 -11.18945,-14.48242 -7.46332,-10.97903 -13.52539,-22.06055 -13.52539,-22.06055 l -2.91016,-5.33398 -5.89453,-1.47461 c -3.46858,-0.86717 -11.63787,-7.4278 -17.39258,-14.73633 -5.75471,-7.30853 -9.46289,-14.10156 -9.46289,-14.10156 l -3.57227,-6.58594 -7.46679,-0.61719 c -53.20902,-4.39337 -89.2461,-30.24219 -89.2461,-30.24218 z"
     id="path3972"
     inkscape:connector-curvature="0" />
  <path
     style="color:#000000;font-style:normal;font-variant:normal;font-weight:normal;font-stretch:normal;font-size:medium;line-height:normal;font-family:sans-serif;font-variant-ligatures:normal;font-variant-position:normal;font-variant-caps:normal;font-variant-numeric:normal;font-variant-alternates:normal;font-feature-settings:normal;text-indent:0;text-align:start;text-decoration:none;text-decoration-line:none;text-decoration-style:solid;text-decoration-color:#000000;letter-spacing:normal;word-spacing:normal;text-transform:none;writing-mode:lr-tb;direction:ltr;text-orientation:mixed;dominant-baseline:auto;baseline-shift:baseline;text-anchor:start;white-space:normal;shape-padding:0;clip-rule:nonzero;display:inline;overflow:visible;visibility:visible;opacity:1;isolation:auto;mix-blend-mode:normal;color-interpolation:sRGB;color-interpolation-filters:linearRGB;solid-color:#000000;solid-opacity:1;vector-effect:none;fill:#000000;fill-opacity:1;fill-rule:nonzero;stroke:none;stroke-width:27.71404076;stroke-linecap:butt;stroke-linejoin:miter;stroke-miterlimit:4;stroke-dasharray:none;stroke-dashoffset:0;stroke-opacity:1;color-rendering:auto;image-rendering:auto;shape-rendering:auto;text-rendering:auto;enable-background:accumulate"
     d="m 248.11328,593.86715 -26.64844,7.61328 c 3.5575,12.45139 15.93163,46.49655 17.94141,52.01758 -1.14183,7.23161 -1.169,14.02531 -0.98047,19.15625 0.074,2.01466 0.17455,3.18462 0.27149,4.54687 -6.58515,18.5303 -15.80823,20.49489 -26.48633,20.80274 -11.0705,0.31916 -21.68164,-4.19727 -21.68164,-4.19727 l -11.47657,25.22657 c 0,0 15.17573,7.21529 33.95704,6.67382 17.92333,-0.51672 40.7986,-11.23852 51.24414,-38.14843 0.0174,-0.0248 0.0844,-0.0781 0.0996,-0.10157 0.80518,-1.23813 1.15968,-2.1375 1.41406,-2.83984 2.03498,-5.61871 0.83674,-4.42747 0.83398,-4.88867 -0.011,-1.84482 -0.0801,-1.64566 -0.13281,-2.31641 -0.10543,-1.3415 -0.25749,-3.32159 -0.34766,-5.77539 -0.18032,-4.90759 0.0185,-11.64867 1.07618,-16.37305 l 0.88281,-3.9414 -1.37305,-3.79688 c 0,0 -16.14833,-45.09911 -18.59375,-53.6582 z m -9.33203,84.73633 c 0.0182,0.2364 0.0435,0.78807 0.0586,0.98047 0.0534,0.6799 0.0576,1.78534 0.0488,0.31054 -0.001,-0.22247 -0.20519,-0.38787 -0.10742,-1.29101 z"
     id="path3974"
     inkscape:connector-curvature="0" />
  <path
     style="color:#000000;font-style:normal;font-variant:normal;font-weight:normal;font-stretch:normal;font-size:medium;line-height:normal;font-family:sans-serif;font-variant-ligatures:normal;font-variant-position:normal;font-variant-caps:normal;font-variant-numeric:normal;font-variant-alternates:normal;font-feature-settings:normal;text-indent:0;text-align:start;text-decoration:none;text-decoration-line:none;text-decoration-style:solid;text-decoration-color:#000000;letter-spacing:normal;word-spacing:normal;text-transform:none;writing-mode:lr-tb;direction:ltr;text-orientation:mixed;dominant-baseline:auto;baseline-shift:baseline;text-anchor:start;white-space:normal;shape-padding:0;clip-rule:nonzero;display:inline;overflow:visible;visibility:visible;opacity:1;isolation:auto;mix-blend-mode:normal;color-interpolation:sRGB;color-interpolation-filters:linearRGB;solid-color:#000000;solid-opacity:1;vector-effect:none;fill:#000000;fill-opacity:1;fill-rule:nonzero;stroke:none;stroke-width:1.62127638px;stroke-linecap:butt;stroke-linejoin:miter;stroke-miterlimit:4;stroke-dasharray:none;stroke-dashoffset:0;stroke-opacity:1;color-rendering:auto;image-rendering:auto;shape-rendering:auto;text-rendering:auto;enable-background:accumulate"
     d="m 261.10156,619.3359 c -0.91833,1.3201 -1.72818,3.84734 -2.63281,7.11328 -0.90463,3.26594 -1.82452,7.19767 -2.65234,10.99414 -1.65564,7.59294 -2.9375,14.64649 -2.9375,14.64649 l 1.59375,0.29101 c 0,0 1.27948,-7.03274 2.92773,-14.5918 0.82413,-3.77952 1.74007,-7.69028 2.63086,-10.90624 0.89079,-3.21597 1.83484,-5.80812 2.40039,-6.6211 z"
     id="path3976"
     inkscape:connector-curvature="0" />
  <path
     style="color:#000000;font-style:normal;font-variant:normal;font-weight:normal;font-stretch:normal;font-size:medium;line-height:normal;font-family:sans-serif;font-variant-ligatures:normal;font-variant-position:normal;font-variant-caps:normal;font-variant-numeric:normal;font-variant-alternates:normal;font-feature-settings:normal;text-indent:0;text-align:start;text-decoration:none;text-decoration-line:none;text-decoration-style:solid;text-decoration-color:#000000;letter-spacing:normal;word-spacing:normal;text-transform:none;writing-mode:lr-tb;direction:ltr;text-orientation:mixed;dominant-baseline:auto;baseline-shift:baseline;text-anchor:start;white-space:normal;shape-padding:0;clip-rule:nonzero;display:inline;overflow:visible;visibility:visible;opacity:1;isolation:auto;mix-blend-mode:normal;color-interpolation:sRGB;color-interpolation-filters:linearRGB;solid-color:#000000;solid-opacity:1;vector-effect:none;fill:#000000;fill-opacity:1;fill-rule:nonzero;stroke:none;stroke-width:27.71404076;stroke-linecap:butt;stroke-linejoin:miter;stroke-miterlimit:4;stroke-dasharray:none;stroke-dashoffset:0;stroke-opacity:1;color-rendering:auto;image-rendering:auto;shape-rendering:auto;text-rendering:auto;enable-background:accumulate"
     d="m 211.62305,402.52926 -26.06836,9.40625 17.73437,49.1543 26.06836,-9.40625 z"
     id="path3978"
     inkscape:connector-curvature="0" />
  <path
     style="color:#000000;font-style:normal;font-variant:normal;font-weight:normal;font-stretch:normal;font-size:medium;line-height:normal;font-family:sans-serif;font-variant-ligatures:normal;font-variant-position:normal;font-variant-caps:normal;font-variant-numeric:normal;font-variant-alternates:normal;font-feature-settings:normal;text-indent:0;text-align:start;text-decoration:none;text-decoration-line:none;text-decoration-style:solid;text-decoration-color:#000000;letter-spacing:normal;word-spacing:normal;text-transform:none;writing-mode:lr-tb;direction:ltr;text-orientation:mixed;dominant-baseline:auto;baseline-shift:baseline;text-anchor:start;white-space:normal;shape-padding:0;clip-rule:nonzero;display:inline;overflow:visible;visibility:visible;opacity:1;isolation:auto;mix-blend-mode:normal;color-interpolation:sRGB;color-interpolation-filters:linearRGB;solid-color:#000000;solid-opacity:1;vector-effect:none;fill:#000000;fill-opacity:1;fill-rule:nonzero;stroke:none;stroke-width:20.78552818;stroke-linecap:butt;stroke-linejoin:miter;stroke-miterlimit:4;stroke-dasharray:none;stroke-dashoffset:0;stroke-opacity:1;color-rendering:auto;image-rendering:auto;shape-rendering:auto;text-rendering:auto;enable-background:accumulate"
     d="m 169.47852,668.9609 -9.97657,11.55859 c -2.74014,3.17421 -10.22729,7.92822 -18.5,11.76368 -8.2727,3.83545 -17.18189,7.0941 -23.81054,9.85742 l -10.1543,4.23437 4.80273,9.89649 c 6.80799,14.0264 15.53829,23.50548 25.5625,28.30664 10.02422,4.80115 21.38685,4.24806 29.99219,-0.9668 17.21068,-10.42972 22.41788,-35.88837 9.17774,-61.12891 z m -6.78125,35.40625 c 2.3991,11.50721 -1.87485,18.92273 -6.07618,21.46875 -2.77103,1.67925 -5.73842,2.15226 -10.24023,-0.004 -2.88287,-1.38076 -6.38337,-4.33443 -9.92774,-9.01757 4.17014,-1.67537 8.73222,-3.56025 13.29102,-5.67383 4.40448,-2.04204 8.80414,-4.23358 12.95313,-6.77344 z"
     id="path3980"
     inkscape:connector-curvature="0" />
  <path
     style="color:#000000;font-style:normal;font-variant:normal;font-weight:normal;font-stretch:normal;font-size:medium;line-height:normal;font-family:sans-serif;font-variant-ligatures:normal;font-variant-position:normal;font-variant-caps:normal;font-variant-numeric:normal;font-variant-alternates:normal;font-feature-settings:normal;text-indent:0;text-align:start;text-decoration:none;text-decoration-line:none;text-decoration-style:solid;text-decoration-color:#000000;letter-spacing:normal;word-spacing:normal;text-transform:none;writing-mode:lr-tb;direction:ltr;text-orientation:mixed;dominant-baseline:auto;baseline-shift:baseline;text-anchor:start;white-space:normal;shape-padding:0;clip-rule:nonzero;display:inline;overflow:visible;visibility:visible;opacity:1;isolation:auto;mix-blend-mode:normal;color-interpolation:sRGB;color-interpolation-filters:linearRGB;solid-color:#000000;solid-opacity:1;vector-effect:none;fill:#000000;fill-opacity:1;fill-rule:nonzero;stroke:none;stroke-width:20.78552818;stroke-linecap:butt;stroke-linejoin:miter;stroke-miterlimit:4;stroke-dasharray:none;stroke-dashoffset:0;stroke-opacity:1;color-rendering:auto;image-rendering:auto;shape-rendering:auto;text-rendering:auto;enable-background:accumulate"
     d="m 228.47852,614.20113 -7.50586,5.15821 c -18.15399,12.47926 -28.29439,15.24108 -40.58399,20.55078 l -6.65429,2.875 0.39843,7.23633 c 1.16879,21.2407 7.84834,36.12719 18.98047,44.07031 11.13214,7.94312 25.33549,7.09908 35.93164,1.03711 10.59616,-6.06198 18.7012,-17.10302 20.75196,-30.70508 2.05075,-13.60206 -2.49152,-29.35163 -15.21876,-43.46094 z m -4.13477,27.55665 c 4.76295,7.49744 5.72761,14.06672 4.89844,19.5664 -1.07427,7.12531 -5.52623,12.90705 -10.51953,15.76367 -4.99331,2.85663 -9.41185,3.02749 -13.53711,0.084 -3.48132,-2.48403 -7.58336,-8.89192 -9.4043,-21.19532 7.80067,-3.15295 16.69786,-6.96211 28.5625,-14.21874 z"
     id="path3980-1"
     inkscape:connector-curvature="0" />
  <path
     style="color:#000000;font-style:normal;font-variant:normal;font-weight:normal;font-stretch:normal;font-size:medium;line-height:normal;font-family:sans-serif;font-variant-ligatures:normal;font-variant-position:normal;font-variant-caps:normal;font-variant-numeric:normal;font-variant-alternates:normal;font-feature-settings:normal;text-indent:0;text-align:start;text-decoration:none;text-decoration-line:none;text-decoration-style:solid;text-decoration-color:#000000;letter-spacing:normal;word-spacing:normal;text-transform:none;writing-mode:lr-tb;direction:ltr;text-orientation:mixed;dominant-baseline:auto;baseline-shift:baseline;text-anchor:start;white-space:normal;shape-padding:0;clip-rule:nonzero;display:inline;overflow:visible;visibility:visible;opacity:1;isolation:auto;mix-blend-mode:normal;color-interpolation:sRGB;color-interpolation-filters:linearRGB;solid-color:#000000;solid-opacity:1;vector-effect:none;fill:#000000;fill-opacity:1;fill-rule:nonzero;stroke:none;stroke-width:20.78552818;stroke-linecap:butt;stroke-linejoin:miter;stroke-miterlimit:4;stroke-dasharray:none;stroke-dashoffset:0;stroke-opacity:1;color-rendering:auto;image-rendering:auto;shape-rendering:auto;text-rendering:auto;enable-background:accumulate"
     d="m 149.47266,433.25973 c -4.35925,-0.098 -8.6369,0.28707 -12.75391,1.11133 -16.46804,3.29702 -30.45324,13.06007 -38.992188,26 -8.538944,12.93992 -11.456694,30.00005 -3.933593,45.25976 7.523101,15.25971 24.284651,27.26196 50.583981,33.89649 l 13.38086,3.375 -0.45117,-13.79102 c -0.4903,-15.0151 0.60094,-28.49802 4.76563,-38.97851 4.16468,-10.4805 10.79975,-18.36186 24.25195,-24.24219 l 15.56836,-6.80469 -13.14844,-10.75977 c -12.38471,-10.13516 -26.19373,-14.77232 -39.27148,-15.0664 z m -0.39063,20.69726 c 4.23599,0.0463 8.59658,0.80514 13.0332,2.48243 -9.04085,7.2373 -15.46221,16.21033 -19.35937,26.01757 -4.12446,10.37925 -5.70664,21.4662 -6.14844,32.77735 -13.84116,-5.47745 -21.0479,-12.45832 -24.17187,-18.79492 -3.98032,-8.0736 -2.70437,-16.52129 2.64062,-24.6211 5.34499,-8.09981 14.93478,-14.90659 25.72266,-17.0664 2.69697,-0.53996 5.46207,-0.82573 8.2832,-0.79493 z"
     id="path3980-1-7"
     inkscape:connector-curvature="0" />
  <path
     style="color:#000000;font-style:normal;font-variant:normal;font-weight:normal;font-stretch:normal;font-size:medium;line-height:normal;font-family:sans-serif;font-variant-ligatures:normal;font-variant-position:normal;font-variant-caps:normal;font-variant-numeric:normal;font-variant-alternates:normal;font-feature-settings:normal;text-indent:0;text-align:start;text-decoration:none;text-decoration-line:none;text-decoration-style:solid;text-decoration-color:#000000;letter-spacing:normal;word-spacing:normal;text-transform:none;writing-mode:lr-tb;direction:ltr;text-orientation:mixed;dominant-baseline:auto;baseline-shift:baseline;text-anchor:start;white-space:normal;shape-padding:0;clip-rule:nonzero;display:inline;overflow:visible;visibility:visible;opacity:1;isolation:auto;mix-blend-mode:normal;color-interpolation:sRGB;color-interpolation-filters:linearRGB;solid-color:#000000;solid-opacity:1;vector-effect:none;fill:#000000;fill-opacity:1;fill-rule:nonzero;stroke:none;stroke-width:27.71404076;stroke-linecap:butt;stroke-linejoin:miter;stroke-miterlimit:4;stroke-dasharray:none;stroke-dashoffset:0;stroke-opacity:1;color-rendering:auto;image-rendering:auto;shape-rendering:auto;text-rendering:auto;enable-background:accumulate"
     d="m 345.09766,129.9277 -27.71485,0.0742 c 0,0 0.72071,263.11965 0.72071,307.35926 9.46874,0.33941 18.67514,4.08915 27.71289,10.03133 0,-44.53927 -0.71875,-317.46481 -0.71875,-317.46481 z"
     id="path4692"
     inkscape:connector-curvature="0"
     sodipodi:nodetypes="cccccc" />
  <path
     style="color:#000000;font-style:normal;font-variant:normal;font-weight:normal;font-stretch:normal;font-size:medium;line-height:normal;font-family:sans-serif;font-variant-ligatures:normal;font-variant-position:normal;font-variant-caps:normal;font-variant-numeric:normal;font-variant-alternates:normal;font-feature-settings:normal;text-indent:0;text-align:start;text-decoration:none;text-decoration-line:none;text-decoration-style:solid;text-decoration-color:#000000;letter-spacing:normal;word-spacing:normal;text-transform:none;writing-mode:lr-tb;direction:ltr;text-orientation:mixed;dominant-baseline:auto;baseline-shift:baseline;text-anchor:start;white-space:normal;shape-padding:0;clip-rule:nonzero;display:inline;overflow:visible;visibility:visible;opacity:1;isolation:auto;mix-blend-mode:normal;color-interpolation:sRGB;color-interpolation-filters:linearRGB;solid-color:#000000;solid-opacity:1;vector-effect:none;fill:#000000;fill-opacity:1;fill-rule:nonzero;stroke:none;stroke-width:20.78552818;stroke-linecap:butt;stroke-linejoin:miter;stroke-miterlimit:4;stroke-dasharray:none;stroke-dashoffset:0;stroke-opacity:1;color-rendering:auto;image-rendering:auto;shape-rendering:auto;text-rendering:auto;enable-background:accumulate"
     d="m 394.72852,297.3359 c -6.76756,6.54362 -11.40351,5.93402 -16.37891,4.50391 -4.9754,-1.43012 -8.55469,-4.38868 -8.55469,-4.38868 l -13.58984,15.72657 c 0,0 6.5667,5.81153 16.40234,8.63867 9.83564,2.82713 24.67514,1.96258 36.56836,-9.53711 z"
     id="path3958-9"
     inkscape:connector-curvature="0" />
  <path
     style="color:#000000;font-style:normal;font-variant:normal;font-weight:normal;font-stretch:normal;font-size:medium;line-height:normal;font-family:sans-serif;font-variant-ligatures:normal;font-variant-position:normal;font-variant-caps:normal;font-variant-numeric:normal;font-variant-alternates:normal;font-feature-settings:normal;text-indent:0;text-align:start;text-decoration:none;text-decoration-line:none;text-decoration-style:solid;text-decoration-color:#000000;letter-spacing:normal;word-spacing:normal;text-transform:none;writing-mode:lr-tb;direction:ltr;text-orientation:mixed;dominant-baseline:auto;baseline-shift:baseline;text-anchor:start;white-space:normal;shape-padding:0;clip-rule:nonzero;display:inline;overflow:visible;visibility:visible;opacity:1;isolation:auto;mix-blend-mode:normal;color-interpolation:sRGB;color-interpolation-filters:linearRGB;solid-color:#000000;solid-opacity:1;vector-effect:none;fill:#000000;fill-opacity:1;fill-rule:nonzero;stroke:none;stroke-width:20.78552818;stroke-linecap:butt;stroke-linejoin:miter;stroke-miterlimit:4;stroke-dasharray:none;stroke-dashoffset:0;stroke-opacity:1;color-rendering:auto;image-rendering:auto;shape-rendering:auto;text-rendering:auto;enable-background:accumulate"
     d="m 370.09375,185.57613 -14.23437,15.14454 c 0,0 5.60603,5.44438 14.2207,8.40039 8.61467,2.95601 22.26923,2.62846 32.73828,-7.49414 l -14.44727,-14.94336 c -5.08154,4.91338 -7.73624,4.08357 -11.54297,2.77734 -3.80672,-1.30623 -6.73437,-3.88477 -6.73437,-3.88477 z"
     id="path3962-97"
     inkscape:connector-curvature="0" />
  <path
     style="font-style:normal;font-weight:normal;font-size:233.33332825px;line-height:1.25;font-family:sans-serif;letter-spacing:0px;word-spacing:0px;fill:#000000;fill-opacity:1;stroke:none"
     d="m 186.84701,1076.8223 v 101.5136 c 0,12.8364 1.32986,23.66 3.98828,32.4707 2.73438,8.8108 7.17774,16.3303 13.33008,22.5586 5.39279,5.4688 12.03819,9.6096 19.9375,12.42 7.8993,2.8103 17.16515,4.2148 27.79883,4.2148 10.40581,0 19.5204,-1.3299 27.34375,-3.9883 7.82335,-2.6584 14.65929,-6.8739 20.50781,-12.6465 6.15234,-6.0764 10.55838,-13.6705 13.2168,-22.7851 2.73437,-9.1906 4.10156,-19.9395 4.10156,-32.2442 v -101.5136 h -22.55859 v 103.2226 c 0,8.2791 -0.64627,15.229 -1.9375,20.8496 -1.21528,5.5447 -3.30339,10.4831 -6.26563,14.8125 -3.41797,5.0131 -7.97526,8.7728 -13.67187,11.2793 -5.69662,2.4306 -12.60916,3.6446 -20.73633,3.6446 -8.05122,0 -14.96181,-1.2533 -20.73438,-3.7598 -5.69661,-2.5065 -10.21658,-6.227 -13.55859,-11.1641 -2.96224,-4.3294 -5.08963,-9.1538 -6.38086,-14.4707 -1.21528,-5.3168 -1.82227,-12.5692 -1.82227,-21.7597 v -102.6543 z"
     id="text1830"
     inkscape:connector-curvature="0" />
</svg>
