<?xml version="1.0" encoding="UTF-8" standalone="no"?>
<!-- Created with Inkscape (http://www.inkscape.org/) -->

<svg
   xmlns:dc="http://purl.org/dc/elements/1.1/"
   xmlns:cc="http://creativecommons.org/ns#"
   xmlns:rdf="http://www.w3.org/1999/02/22-rdf-syntax-ns#"
   xmlns:svg="http://www.w3.org/2000/svg"
   xmlns="http://www.w3.org/2000/svg"
   xmlns:sodipodi="http://sodipodi.sourceforge.net/DTD/sodipodi-0.dtd"
   xmlns:inkscape="http://www.inkscape.org/namespaces/inkscape"
   version="1.1"
   id="svg4572"
   width="1000"
   height="1250"
   viewBox="0 0 1000 1250"
   sodipodi:docname="V.svg"
   inkscape:version="0.92.4 (5da689c313, 2019-01-14)">
  <metadata
     id="metadata4578">
    <rdf:RDF>
      <cc:Work
         rdf:about="">
        <dc:format>image/svg+xml</dc:format>
        <dc:type
           rdf:resource="http://purl.org/dc/dcmitype/StillImage" />
        <dc:title></dc:title>
      </cc:Work>
    </rdf:RDF>
  </metadata>
  <defs
     id="defs4576">
    <clipPath
       clipPathUnits="userSpaceOnUse"
       id="clipPath4653">
      <rect
         style="opacity:1;fill:#d38d5f;fill-opacity:0;stroke:#ff0000;stroke-width:18.52108765;stroke-miterlimit:4;stroke-dasharray:none"
         id="rect4655"
         width="981.47888"
         height="981.47894"
         x="9.2605438"
         y="9.2605152"
         transform="rotate(-90)" />
    </clipPath>
  </defs>
  <sodipodi:namedview
     pagecolor="#ffffff"
     bordercolor="#666666"
     borderopacity="1"
     objecttolerance="10"
     gridtolerance="10"
     guidetolerance="10"
     inkscape:pageopacity="0"
     inkscape:pageshadow="2"
     inkscape:window-width="1366"
     inkscape:window-height="715"
     id="namedview4574"
     showgrid="false"
     inkscape:zoom="0.38628982"
     inkscape:cx="450.77588"
     inkscape:cy="700.21213"
     inkscape:window-x="-8"
     inkscape:window-y="-8"
     inkscape:window-maximized="1"
     inkscape:current-layer="svg4572" />
  <path
     style="color:#000000;font-style:normal;font-variant:normal;font-weight:normal;font-stretch:normal;font-size:medium;line-height:normal;font-family:sans-serif;font-variant-ligatures:normal;font-variant-position:normal;font-variant-caps:normal;font-variant-numeric:normal;font-variant-alternates:normal;font-feature-settings:normal;text-indent:0;text-align:start;text-decoration:none;text-decoration-line:none;text-decoration-style:solid;text-decoration-color:#000000;letter-spacing:normal;word-spacing:normal;text-transform:none;writing-mode:lr-tb;direction:ltr;text-orientation:mixed;dominant-baseline:auto;baseline-shift:baseline;text-anchor:start;white-space:normal;shape-padding:0;clip-rule:nonzero;display:inline;overflow:visible;visibility:visible;opacity:1;isolation:auto;mix-blend-mode:normal;color-interpolation:sRGB;color-interpolation-filters:linearRGB;solid-color:#000000;solid-opacity:1;vector-effect:none;fill:#000000;fill-opacity:1;fill-rule:nonzero;stroke:none;stroke-width:25.40956306;stroke-linecap:butt;stroke-linejoin:miter;stroke-miterlimit:4;stroke-dasharray:none;stroke-dashoffset:0;stroke-opacity:1;color-rendering:auto;image-rendering:auto;shape-rendering:auto;text-rendering:auto;enable-background:accumulate"
     d="m 178.98242,2.61522 c -11.30134,0.20519 -23.00854,6.5543 -31.83789,17.8457 -10.09069,12.90446 -18.28729,32.16158 -25.19531,60.86524 l -0.26172,1.08398 -0.0684,1.11328 c -4.26737,69.88902 11.64929,143.18847 26.42774,209.11133 10.80931,48.21758 20.6199,92.66887 22.70117,127.50391 -3.08893,-2.04738 -6.30989,-3.87895 -9.66211,-5.35938 -15.82051,-6.98672 -34.13049,-8.45364 -51.22071,-4.2793 -17.090211,4.17435 -33.390736,14.54677 -42.210933,31.78125 -8.209926,16.04203 -9.11758,36.97336 -1.101563,61.14454 -4.90042,11.2255 -5.712865,23.24721 -4.886718,34.85937 C 41.786605,540.94422 27.497648,551.07814 19.1875,561.5117 8.9140091,574.41029 6.0585938,588.041 6.0585938,588.041 l -0.4960938,2.30859 0.3691406,2.33203 c 3.7065461,23.4751 0.0625,43.29493 0.0625,43.29493 L 6.3613281,634.5078 C -2.641153,663.1519 1.0402275,704.30322 5.7128906,740.12694 10.385554,775.9507 16.958984,805.6777 16.958984,805.6777 l 0.464844,2.1035 1.132813,1.8321 C 75.124556,901.1994 119.82422,1000 119.82422,1000 l 23.1543,-10.4668 c 0,0 -44.474887,-98.3832 -101.585942,-191.2324 -0.591105,-2.7126 -6.202294,-28.6298 -10.484375,-61.45902 -4.51067,-34.58177 -6.269629,-75.7418 -0.306641,-94.71484 l 0.226563,-0.72266 0.140625,-0.74414 c 0,0 4.101908,-22.01588 0.447266,-48.82031 0.512807,-1.90557 2.232998,-7.7013 7.646484,-14.49805 6.382954,-8.01393 15.808778,-15.55455 36.021484,-14.3418 l 15.705078,0.94336 -2.386718,-15.55273 c -2.349927,-15.31337 -2.02078,-29.33208 2.833984,-37.70703 l 3.033203,-5.23242 -2.15039,-5.6543 c -8.304775,-21.84566 -6.797087,-36.26455 -1.845703,-45.93945 4.951383,-9.67491 14.154792,-15.87314 25.621092,-18.67383 11.46631,-2.80069 24.76392,-1.64789 34.92578,2.83984 10.16186,4.48773 17.3008,13.05901 19.375,22.81055 l 24.47461,-2.17383 C 202.55216,412.46371 187.58204,352.82861 172.8418,287.07616 158.18457,221.69405 143.22472,150.7992 146.95312,86.18162 c 6.35339,-25.94037 13.87097,-41.96494 20.20899,-50.07031 6.43498,-8.22936 9.78082,-8.51012 13.06641,-8.04492 3.28558,0.4652 8.48789,3.68447 13.06445,9.47852 4.57656,5.79404 8.2435,13.68182 9.62109,19.83398 l 0.0391,0.17383 0.043,0.17383 c 0,0 35.17467,138.71986 42.83008,173.54492 5.37051,30.20138 13.79717,81.41598 21.35742,122.40625 3.78963,20.54663 7.32619,38.42294 10.3086,50.32617 1.4912,5.95162 2.27064,9.71837 4.73633,14.36523 0.61642,1.16172 1.19069,4.32842 3.4746,6.35981 4.04741,4.84855 6.85623,6.43796 13.92965,9.92418 1.52038,0.18965 12.99291,1.83416 15.31254,2.28529 8.24477,-1.40879 12.29996,-1.8019 18.40556,-8.64324 4.61724,-5.64272 7.91901,-14.25959 9.0964,-18.56471 36.71804,-134.25959 50.37352,-258.61882 62.16015,-308.07226 8.57177,-28.20513 28.97604,-43.18272 41.96289,-44.43946 6.51439,-0.63039 10.76277,0.91632 14.66992,5.89649 3.90716,4.98016 7.39382,14.90513 6.35547,31.53515 l -0.0527,0.82813 0.0566,0.83008 c 5.66464,82.79271 -27.52206,232.54258 -37.65039,328.82031 -0.74146,2.70855 -34.2147,125.24406 -45.18555,217.125 l -0.14453,1.20313 0.0859,1.20703 c 0,0 7.11959,103.493 -16.62696,194.52145 l -0.1621,0.6211 -0.0977,0.6348 c 0,0 -11.404,73.3769 21.08594,158.8398 l 23.75,-9.0293 c -29.90604,-78.6661 -19.88349,-144.8011 -19.75782,-145.6211 24.40167,-94.41925 17.52945,-195.94301 17.22461,-200.25191 10.7883,-89.34096 44.58399,-213.47656 44.58399,-213.47656 l 0.27344,-1.00195 0.10742,-1.03516 c 9.65691,-92.97074 44.1121,-242.58803 37.86914,-334.20899 0.9875,-19.93504 -2.86046,-35.9286 -11.72266,-47.2246 -9.10581,-11.60653 -23.4876,-16.82209 -37.10937,-15.50391 -27.24354,2.63636 -53.03189,26.33096 -63.94727,62.68164 l -0.10351,0.3418 -0.084,0.34765 c -12.7727,53.22952 -25.57703,171.62079 -60.42969,301.38672 -1.71091,4.81507 -2.38961,11.43105 -10.09758,10.12924 -6.03475,-0.0867 -6.56688,-5.27144 -8.06257,-12.34799 -2.57733,-10.81193 -5.77831,-26.70067 -9.22656,-45.39648 -7.50466,-40.68886 -15.9428,-91.99745 -21.37696,-122.53711 l -0.0449,-0.25 -0.0547,-0.24805 C 262.6385,189.32672 227.625,51.47655 227.625,51.47655 l 0.084,0.34961 c -2.33919,-10.44658 -7.32791,-20.98335 -14.4746,-30.03125 -7.1467,-9.0479 -16.73606,-17.0875 -29.44336,-18.88672 -1.58842,-0.2249 -3.19412,-0.32228 -4.8086,-0.29297 z"
     id="path3944"
     inkscape:connector-curvature="0"
     sodipodi:nodetypes="cscccsccssccscccccsccccccsccccsccccccsssccscsssccccsscccccscscccccccccccccccccccssccccccscccccsscc" />
  <path
     style="color:#000000;font-style:normal;font-variant:normal;font-weight:normal;font-stretch:normal;font-size:medium;line-height:normal;font-family:sans-serif;font-variant-ligatures:normal;font-variant-position:normal;font-variant-caps:normal;font-variant-numeric:normal;font-variant-alternates:normal;font-feature-settings:normal;text-indent:0;text-align:start;text-decoration:none;text-decoration-line:none;text-decoration-style:solid;text-decoration-color:#000000;letter-spacing:normal;word-spacing:normal;text-transform:none;writing-mode:lr-tb;direction:ltr;text-orientation:mixed;dominant-baseline:auto;baseline-shift:baseline;text-anchor:start;white-space:normal;shape-padding:0;clip-rule:nonzero;display:inline;overflow:visible;visibility:visible;opacity:1;isolation:auto;mix-blend-mode:normal;color-interpolation:sRGB;color-interpolation-filters:linearRGB;solid-color:#000000;solid-opacity:1;vector-effect:none;fill:#000000;fill-opacity:1;fill-rule:nonzero;stroke:none;stroke-width:19.05717278;stroke-linecap:butt;stroke-linejoin:miter;stroke-miterlimit:4;stroke-dasharray:none;stroke-dashoffset:0;stroke-opacity:1;color-rendering:auto;image-rendering:auto;shape-rendering:auto;text-rendering:auto;enable-background:accumulate"
     d="m 175.375,933.9355 c -21.06847,18.9076 -61.20117,6.2715 -61.20117,6.2715 l -6.35742,17.9668 c 0,0 48.29635,18.655 80.28711,-10.0547 z"
     id="path3946"
     inkscape:connector-curvature="0" />
  <path
     style="color:#000000;font-style:normal;font-variant:normal;font-weight:normal;font-stretch:normal;font-size:medium;line-height:normal;font-family:sans-serif;font-variant-ligatures:normal;font-variant-position:normal;font-variant-caps:normal;font-variant-numeric:normal;font-variant-alternates:normal;font-feature-settings:normal;text-indent:0;text-align:start;text-decoration:none;text-decoration-line:none;text-decoration-style:solid;text-decoration-color:#000000;letter-spacing:normal;word-spacing:normal;text-transform:none;writing-mode:lr-tb;direction:ltr;text-orientation:mixed;dominant-baseline:auto;baseline-shift:baseline;text-anchor:start;white-space:normal;shape-padding:0;clip-rule:nonzero;display:inline;overflow:visible;visibility:visible;opacity:1;isolation:auto;mix-blend-mode:normal;color-interpolation:sRGB;color-interpolation-filters:linearRGB;solid-color:#000000;solid-opacity:1;vector-effect:none;fill:#000000;fill-opacity:1;fill-rule:nonzero;stroke:none;stroke-width:19.05717278;stroke-linecap:butt;stroke-linejoin:miter;stroke-miterlimit:4;stroke-dasharray:none;stroke-dashoffset:0;stroke-opacity:1;color-rendering:auto;image-rendering:auto;shape-rendering:auto;text-rendering:auto;enable-background:accumulate"
     d="m 177.43359,751.71678 c -12.19145,37.81122 -11.89651,67.55722 -3.53125,90.55272 8.36527,22.9956 24.63675,38.5714 41.88868,48.6543 34.50385,20.1658 74.02148,20.1778 74.02148,20.1778 l 0.17383,-19.0567 c 0,0 -35.65096,-0.6685 -64.58008,-17.5762 -14.46456,-8.4538 -26.97428,-20.513 -33.5957,-38.7148 -6.62143,-18.2019 -7.51725,-43.2143 3.75976,-78.1895 z"
     id="path3948"
     inkscape:connector-curvature="0" />
  <path
     style="color:#000000;font-style:normal;font-variant:normal;font-weight:normal;font-stretch:normal;font-size:medium;line-height:normal;font-family:sans-serif;font-variant-ligatures:normal;font-variant-position:normal;font-variant-caps:normal;font-variant-numeric:normal;font-variant-alternates:normal;font-feature-settings:normal;text-indent:0;text-align:start;text-decoration:none;text-decoration-line:none;text-decoration-style:solid;text-decoration-color:#000000;letter-spacing:normal;word-spacing:normal;text-transform:none;writing-mode:lr-tb;direction:ltr;text-orientation:mixed;dominant-baseline:auto;baseline-shift:baseline;text-anchor:start;white-space:normal;shape-padding:0;clip-rule:nonzero;display:inline;overflow:visible;visibility:visible;opacity:1;isolation:auto;mix-blend-mode:normal;color-interpolation:sRGB;color-interpolation-filters:linearRGB;solid-color:#000000;solid-opacity:1;vector-effect:none;fill:#000000;fill-opacity:1;fill-rule:nonzero;stroke:none;stroke-width:19.05717278;stroke-linecap:butt;stroke-linejoin:miter;stroke-miterlimit:4;stroke-dasharray:none;stroke-dashoffset:0;stroke-opacity:1;color-rendering:auto;image-rendering:auto;shape-rendering:auto;text-rendering:auto;enable-background:accumulate"
     d="m 230.57812,283.24022 c -3.7191,6.1985 -12.37715,9.12232 -21.66406,9.85937 -9.2869,0.73705 -17.4082,-0.7207 -17.4082,-0.7207 l -3.46875,18.73828 c 0,0 10.24395,1.94402 22.38477,0.98047 12.14081,-0.96355 27.97266,-4.84379 36.49804,-19.05273 z"
     id="path3958"
     inkscape:connector-curvature="0" />
  <path
     style="color:#000000;font-style:normal;font-variant:normal;font-weight:normal;font-stretch:normal;font-size:medium;line-height:normal;font-family:sans-serif;font-variant-ligatures:normal;font-variant-position:normal;font-variant-caps:normal;font-variant-numeric:normal;font-variant-alternates:normal;font-feature-settings:normal;text-indent:0;text-align:start;text-decoration:none;text-decoration-line:none;text-decoration-style:solid;text-decoration-color:#000000;letter-spacing:normal;word-spacing:normal;text-transform:none;writing-mode:lr-tb;direction:ltr;text-orientation:mixed;dominant-baseline:auto;baseline-shift:baseline;text-anchor:start;white-space:normal;shape-padding:0;clip-rule:nonzero;display:inline;overflow:visible;visibility:visible;opacity:1;isolation:auto;mix-blend-mode:normal;color-interpolation:sRGB;color-interpolation-filters:linearRGB;solid-color:#000000;solid-opacity:1;vector-effect:none;fill:#000000;fill-opacity:1;fill-rule:nonzero;stroke:none;stroke-width:19.05717278;stroke-linecap:butt;stroke-linejoin:miter;stroke-miterlimit:4;stroke-dasharray:none;stroke-dashoffset:0;stroke-opacity:1;color-rendering:auto;image-rendering:auto;shape-rendering:auto;text-rendering:auto;enable-background:accumulate"
     d="m 193.05273,170.20702 c -6.82008,11.36674 -21.02148,7.85351 -21.02148,7.85351 l -4.19727,18.58789 c 0,0 27.97319,6.01071 41.56055,-16.63476 z"
     id="path3962"
     inkscape:connector-curvature="0" />
  <path
     style="color:#000000;font-style:normal;font-variant:normal;font-weight:normal;font-stretch:normal;font-size:medium;line-height:normal;font-family:sans-serif;font-variant-ligatures:normal;font-variant-position:normal;font-variant-caps:normal;font-variant-numeric:normal;font-variant-alternates:normal;font-feature-settings:normal;text-indent:0;text-align:start;text-decoration:none;text-decoration-line:none;text-decoration-style:solid;text-decoration-color:#000000;letter-spacing:normal;word-spacing:normal;text-transform:none;writing-mode:lr-tb;direction:ltr;text-orientation:mixed;dominant-baseline:auto;baseline-shift:baseline;text-anchor:start;white-space:normal;shape-padding:0;clip-rule:nonzero;display:inline;overflow:visible;visibility:visible;opacity:1;isolation:auto;mix-blend-mode:normal;color-interpolation:sRGB;color-interpolation-filters:linearRGB;solid-color:#000000;solid-opacity:1;vector-effect:none;fill:#000000;fill-opacity:1;fill-rule:nonzero;stroke:none;stroke-width:25.40956306;stroke-linecap:butt;stroke-linejoin:miter;stroke-miterlimit:4;stroke-dasharray:none;stroke-dashoffset:0;stroke-opacity:1;color-rendering:auto;image-rendering:auto;shape-rendering:auto;text-rendering:auto;enable-background:accumulate"
     d="m 86.404297,543.25584 -21.121094,14.125 c 0,0 5.897853,8.84754 14.697266,18.24219 6.986209,7.45879 15.660409,15.86774 26.865231,20.58008 0.75925,5.58843 1.95333,13.20712 3.88868,22.17578 3.48599,16.1546 8.8536,35.45355 19.05273,50.88281 0.69853,2.96321 3.55708,14.90504 8.33984,29.41016 2.70576,8.206 5.87137,16.73377 9.60938,24.24609 2.75165,5.53004 5.24393,10.75139 9.91211,14.99805 0.0586,1.87889 -0.0722,4.22168 -0.86524,6.48438 -1.6294,4.64924 -4.26574,10.03932 -22.08008,11.68362 -8.29013,-1.8405 -8.82566,0.876 -16.91015,-5.83011 -9.13688,-7.57911 -25.591236,-28.72443 -49.724611,-79.9375 l -0.115234,-0.24219 -0.125,-0.23828 c 0,0 -1.518261,-2.92155 -2.910156,-6.67969 -1.391895,-3.75813 -1.795295,-8.61491 -1.933594,-7.78515 L 37.919922,651.1953 c -1.498854,8.99269 1.160588,15.35992 3.169922,20.78515 2.009334,5.42523 4.230469,9.64649 4.230468,9.64649 l -0.238281,-0.48047 c 24.829203,52.68968 41.777462,76.46133 56.488279,88.66403 14.71082,12.2028 30.12541,11.6658 28.76367,11.2403 l 2.31836,0.7246 2.42383,-0.1817 c 25.90753,-1.9479 40.98719,-15.383 45.68555,-28.789 4.69836,-13.40604 0.95508,-25.44729 0.95508,-25.44729 l -1.49219,-5.24805 -4.83399,-2.5332 c 1.79219,0.93877 -2.07368,-2.28981 -4.90429,-7.97852 -2.83061,-5.68871 -5.74545,-13.35812 -8.22656,-20.88281 -4.96223,-15.04939 -8.27149,-29.39453 -8.27149,-29.39453 l -0.5664,-2.45703 -1.45899,-2.05469 c -7.16726,-10.08722 -13.07327,-28.41597 -16.39062,-43.78906 -3.31736,-15.3731 -4.44336,-27.56641 -4.44336,-27.56641 l -0.875,-9.49609 -9.36329,-1.81055 c -5.21318,-1.00899 -15.12009,-8.15734 -22.365229,-15.89258 -7.245139,-7.73524 -12.121094,-14.99805 -12.121094,-14.99805 z"
     id="path3966"
     inkscape:connector-curvature="0" />
  <path
     style="color:#000000;font-style:normal;font-variant:normal;font-weight:normal;font-stretch:normal;font-size:medium;line-height:normal;font-family:sans-serif;font-variant-ligatures:normal;font-variant-position:normal;font-variant-caps:normal;font-variant-numeric:normal;font-variant-alternates:normal;font-feature-settings:normal;text-indent:0;text-align:start;text-decoration:none;text-decoration-line:none;text-decoration-style:solid;text-decoration-color:#000000;letter-spacing:normal;word-spacing:normal;text-transform:none;writing-mode:lr-tb;direction:ltr;text-orientation:mixed;dominant-baseline:auto;baseline-shift:baseline;text-anchor:start;white-space:normal;shape-padding:0;clip-rule:nonzero;display:inline;overflow:visible;visibility:visible;opacity:1;isolation:auto;mix-blend-mode:normal;color-interpolation:sRGB;color-interpolation-filters:linearRGB;solid-color:#000000;solid-opacity:1;vector-effect:none;fill:#000000;fill-opacity:1;fill-rule:nonzero;stroke:none;stroke-width:1.4864639px;stroke-linecap:butt;stroke-linejoin:miter;stroke-miterlimit:4;stroke-dasharray:none;stroke-dashoffset:0;stroke-opacity:1;color-rendering:auto;image-rendering:auto;shape-rendering:auto;text-rendering:auto;enable-background:accumulate"
     d="m 40.621094,671.68553 -0.744141,1.28906 c 0,0 9.119884,5.38188 16.400391,1.01368 l -0.765625,-1.27539 c -6.324536,3.79463 -14.890625,-1.02735 -14.890625,-1.02735 z"
     id="path3968"
     inkscape:connector-curvature="0" />
  <path
     style="color:#000000;font-style:normal;font-variant:normal;font-weight:normal;font-stretch:normal;font-size:medium;line-height:normal;font-family:sans-serif;font-variant-ligatures:normal;font-variant-position:normal;font-variant-caps:normal;font-variant-numeric:normal;font-variant-alternates:normal;font-feature-settings:normal;text-indent:0;text-align:start;text-decoration:none;text-decoration-line:none;text-decoration-style:solid;text-decoration-color:#000000;letter-spacing:normal;word-spacing:normal;text-transform:none;writing-mode:lr-tb;direction:ltr;text-orientation:mixed;dominant-baseline:auto;baseline-shift:baseline;text-anchor:start;white-space:normal;shape-padding:0;clip-rule:nonzero;display:inline;overflow:visible;visibility:visible;opacity:1;isolation:auto;mix-blend-mode:normal;color-interpolation:sRGB;color-interpolation-filters:linearRGB;solid-color:#000000;solid-opacity:1;vector-effect:none;fill:#000000;fill-opacity:1;fill-rule:nonzero;stroke:none;stroke-width:25.40956306;stroke-linecap:butt;stroke-linejoin:miter;stroke-miterlimit:4;stroke-dasharray:none;stroke-dashoffset:0;stroke-opacity:1;color-rendering:auto;image-rendering:auto;shape-rendering:auto;text-rendering:auto;enable-background:accumulate"
     d="m 132.34375,466.1367 c -11.80496,-0.2554 -21.95998,1.75875 -30.44336,5.0918 -22.622335,8.88812 -32.783202,26.94922 -32.783202,26.94922 l 22.251953,12.26758 c 0,0 5.216417,-9.82985 19.822269,-15.56836 14.60584,-5.73851 39.17034,-7.58969 80.62304,17.57226 l 2.70899,1.64453 3.16601,0.17969 c 0,0 14.38691,0.84328 30.81641,5.20117 16.4295,4.3579 33.37791,12.76055 39.39844,22.90039 l 0.80273,1.35157 1.10938,1.11523 c 0,0 18.41827,18.54541 39.51171,38.11914 10.54673,9.78687 21.76433,19.83949 31.875,28.10547 10.11068,8.26599 17.91165,14.64077 26.99219,18.01953 l 8.86133,-23.81445 c -1.26114,-0.46926 -10.35629,-6.17956 -19.77148,-13.87695 -9.4152,-7.6974 -20.35494,-17.48692 -30.67188,-27.06055 -20.13728,-18.68646 -37.36781,-35.99809 -38.21094,-36.8457 -12.54138,-19.2031 -34.80878,-27.6475 -53.38281,-32.57422 -16.39571,-4.34893 -28.83085,-5.40076 -32.74609,-5.68946 -27.50452,-16.19523 -50.89692,-22.67611 -69.92969,-23.08789 z"
     id="path3970"
     inkscape:connector-curvature="0" />
  <path
     style="color:#000000;font-style:normal;font-variant:normal;font-weight:normal;font-stretch:normal;font-size:medium;line-height:normal;font-family:sans-serif;font-variant-ligatures:normal;font-variant-position:normal;font-variant-caps:normal;font-variant-numeric:normal;font-variant-alternates:normal;font-feature-settings:normal;text-indent:0;text-align:start;text-decoration:none;text-decoration-line:none;text-decoration-style:solid;text-decoration-color:#000000;letter-spacing:normal;word-spacing:normal;text-transform:none;writing-mode:lr-tb;direction:ltr;text-orientation:mixed;dominant-baseline:auto;baseline-shift:baseline;text-anchor:start;white-space:normal;shape-padding:0;clip-rule:nonzero;display:inline;overflow:visible;visibility:visible;opacity:1;isolation:auto;mix-blend-mode:normal;color-interpolation:sRGB;color-interpolation-filters:linearRGB;solid-color:#000000;solid-opacity:1;vector-effect:none;fill:#000000;fill-opacity:1;fill-rule:nonzero;stroke:none;stroke-width:25.40956306;stroke-linecap:butt;stroke-linejoin:miter;stroke-miterlimit:4;stroke-dasharray:none;stroke-dashoffset:0;stroke-opacity:1;color-rendering:auto;image-rendering:auto;shape-rendering:auto;text-rendering:auto;enable-background:accumulate"
     d="m 125.90039,576.30858 -14.8457,20.62109 c 0,0 35.557,25.5795 88.03515,31.71485 1.89108,2.97891 4.33863,6.66976 7.4668,10.64257 5.81152,7.38069 13.212,16.04774 24.17578,20.57618 2.2963,4.02812 5.92089,10.21454 11.19336,17.9707 3.85389,5.66933 8.11763,11.456 12.75586,16.39258 4.63823,4.93657 8.73807,10.32945 18.80469,11.13476 l 2.02734,-25.32812 c 4.05402,0.32431 0.75848,0.0655 -2.31445,-3.20508 -3.07293,-3.27059 -6.83645,-8.24625 -10.25781,-13.2793 -6.84272,-10.0661 -12.40235,-20.22656 -12.40235,-20.22656 l -2.66601,-4.89063 -5.4043,-1.35156 c -3.18017,-0.79506 -10.67303,-6.8109 -15.94922,-13.51172 -5.27619,-6.70081 -8.67383,-12.92773 -8.67383,-12.92773 l -3.27539,-6.03906 -6.84765,-0.56641 c -48.78459,-4.02805 -81.82227,-27.72656 -81.82227,-27.72656 z"
     id="path3972"
     inkscape:connector-curvature="0" />
  <path
     style="color:#000000;font-style:normal;font-variant:normal;font-weight:normal;font-stretch:normal;font-size:medium;line-height:normal;font-family:sans-serif;font-variant-ligatures:normal;font-variant-position:normal;font-variant-caps:normal;font-variant-numeric:normal;font-variant-alternates:normal;font-feature-settings:normal;text-indent:0;text-align:start;text-decoration:none;text-decoration-line:none;text-decoration-style:solid;text-decoration-color:#000000;letter-spacing:normal;word-spacing:normal;text-transform:none;writing-mode:lr-tb;direction:ltr;text-orientation:mixed;dominant-baseline:auto;baseline-shift:baseline;text-anchor:start;white-space:normal;shape-padding:0;clip-rule:nonzero;display:inline;overflow:visible;visibility:visible;opacity:1;isolation:auto;mix-blend-mode:normal;color-interpolation:sRGB;color-interpolation-filters:linearRGB;solid-color:#000000;solid-opacity:1;vector-effect:none;fill:#000000;fill-opacity:1;fill-rule:nonzero;stroke:none;stroke-width:25.40956306;stroke-linecap:butt;stroke-linejoin:miter;stroke-miterlimit:4;stroke-dasharray:none;stroke-dashoffset:0;stroke-opacity:1;color-rendering:auto;image-rendering:auto;shape-rendering:auto;text-rendering:auto;enable-background:accumulate"
     d="m 227.55273,627.6367 -24.43164,6.98047 c 3.26206,11.41734 14.60875,42.64136 16.44922,47.69727 -1.04618,6.62868 -1.07321,12.85531 -0.90039,17.55859 0.0679,1.84763 0.16111,2.92081 0.25,4.16992 -6.03757,16.98949 -14.49496,18.79002 -24.28515,19.07227 -10.14996,0.29262 -19.87891,-3.84766 -19.87891,-3.84766 l -10.52148,23.12891 c 0,0 13.91321,6.61362 31.13281,6.11719 16.43485,-0.47382 37.41286,-10.30582 46.98828,-34.98438 0.004,-0.003 0.0879,-0.084 0.0879,-0.084 5.7e-4,-8.8e-4 1.06165,-1.95953 1.29492,-2.60352 1.86614,-5.15193 0.76815,-4.05954 0.76563,-4.48242 -0.0101,-1.69152 -0.0728,-1.50807 -0.1211,-2.12305 -0.0967,-1.22996 -0.23764,-3.04711 -0.32031,-5.29687 -0.16533,-4.49952 0.0185,-10.68018 0.98828,-15.01172 l 0.8086,-3.61328 -1.25977,-3.48047 c 0,0 -14.80479,-41.34988 -17.04688,-49.19727 z m -8.55664,77.6875 c 0.0168,0.21772 0.0408,0.72528 0.0547,0.90235 0.049,0.62336 0.053,1.63742 0.0449,0.28515 -10e-4,-0.20415 -0.19014,-0.35681 -0.0996,-1.1875 z"
     id="path3974"
     inkscape:connector-curvature="0" />
  <path
     style="color:#000000;font-style:normal;font-variant:normal;font-weight:normal;font-stretch:normal;font-size:medium;line-height:normal;font-family:sans-serif;font-variant-ligatures:normal;font-variant-position:normal;font-variant-caps:normal;font-variant-numeric:normal;font-variant-alternates:normal;font-feature-settings:normal;text-indent:0;text-align:start;text-decoration:none;text-decoration-line:none;text-decoration-style:solid;text-decoration-color:#000000;letter-spacing:normal;word-spacing:normal;text-transform:none;writing-mode:lr-tb;direction:ltr;text-orientation:mixed;dominant-baseline:auto;baseline-shift:baseline;text-anchor:start;white-space:normal;shape-padding:0;clip-rule:nonzero;display:inline;overflow:visible;visibility:visible;opacity:1;isolation:auto;mix-blend-mode:normal;color-interpolation:sRGB;color-interpolation-filters:linearRGB;solid-color:#000000;solid-opacity:1;vector-effect:none;fill:#000000;fill-opacity:1;fill-rule:nonzero;stroke:none;stroke-width:1.4864639px;stroke-linecap:butt;stroke-linejoin:miter;stroke-miterlimit:4;stroke-dasharray:none;stroke-dashoffset:0;stroke-opacity:1;color-rendering:auto;image-rendering:auto;shape-rendering:auto;text-rendering:auto;enable-background:accumulate"
     d="m 239.46094,650.98827 c -0.84197,1.21033 -1.58466,3.52906 -2.41406,6.52343 -0.82941,2.99438 -1.67266,6.59929 -2.43165,10.08008 -1.51797,6.96158 -2.69335,13.42774 -2.69335,13.42774 l 1.46093,0.26562 c 0,0 1.17435,-6.44645 2.68555,-13.37695 0.7556,-3.46525 1.59539,-7.05146 2.41211,-10 0.81671,-2.94855 1.68265,-5.32494 2.20117,-6.07031 z"
     id="path3976"
     inkscape:connector-curvature="0" />
  <path
     style="color:#000000;font-style:normal;font-variant:normal;font-weight:normal;font-stretch:normal;font-size:medium;line-height:normal;font-family:sans-serif;font-variant-ligatures:normal;font-variant-position:normal;font-variant-caps:normal;font-variant-numeric:normal;font-variant-alternates:normal;font-feature-settings:normal;text-indent:0;text-align:start;text-decoration:none;text-decoration-line:none;text-decoration-style:solid;text-decoration-color:#000000;letter-spacing:normal;word-spacing:normal;text-transform:none;writing-mode:lr-tb;direction:ltr;text-orientation:mixed;dominant-baseline:auto;baseline-shift:baseline;text-anchor:start;white-space:normal;shape-padding:0;clip-rule:nonzero;display:inline;overflow:visible;visibility:visible;opacity:1;isolation:auto;mix-blend-mode:normal;color-interpolation:sRGB;color-interpolation-filters:linearRGB;solid-color:#000000;solid-opacity:1;vector-effect:none;fill:#000000;fill-opacity:1;fill-rule:nonzero;stroke:none;stroke-width:25.40956306;stroke-linecap:butt;stroke-linejoin:miter;stroke-miterlimit:4;stroke-dasharray:none;stroke-dashoffset:0;stroke-opacity:1;color-rendering:auto;image-rendering:auto;shape-rendering:auto;text-rendering:auto;enable-background:accumulate"
     d="m 194.09766,452.21092 -23.90235,8.62305 16.25977,45.06641 23.90234,-8.62305 z"
     id="path3978"
     inkscape:connector-curvature="0" />
  <path
     style="color:#000000;font-style:normal;font-variant:normal;font-weight:normal;font-stretch:normal;font-size:medium;line-height:normal;font-family:sans-serif;font-variant-ligatures:normal;font-variant-position:normal;font-variant-caps:normal;font-variant-numeric:normal;font-variant-alternates:normal;font-feature-settings:normal;text-indent:0;text-align:start;text-decoration:none;text-decoration-line:none;text-decoration-style:solid;text-decoration-color:#000000;letter-spacing:normal;word-spacing:normal;text-transform:none;writing-mode:lr-tb;direction:ltr;text-orientation:mixed;dominant-baseline:auto;baseline-shift:baseline;text-anchor:start;white-space:normal;shape-padding:0;clip-rule:nonzero;display:inline;overflow:visible;visibility:visible;opacity:1;isolation:auto;mix-blend-mode:normal;color-interpolation:sRGB;color-interpolation-filters:linearRGB;solid-color:#000000;solid-opacity:1;vector-effect:none;fill:#000000;fill-opacity:1;fill-rule:nonzero;stroke:none;stroke-width:19.05717278;stroke-linecap:butt;stroke-linejoin:miter;stroke-miterlimit:4;stroke-dasharray:none;stroke-dashoffset:0;stroke-opacity:1;color-rendering:auto;image-rendering:auto;shape-rendering:auto;text-rendering:auto;enable-background:accumulate"
     d="m 155.45703,696.48631 -9.14844,10.59766 c -2.51229,2.91026 -9.37612,7.26863 -16.96093,10.78515 -7.58482,3.51653 -15.7526,6.50551 -21.83008,9.03907 l -9.310549,3.88086 4.404299,9.07422 c 6.24188,12.86003 14.24486,21.55123 23.43555,25.95313 9.19068,4.4019 19.60825,3.8945 27.49804,-0.8867 15.77958,-9.5625 20.55326,-32.90321 8.41406,-56.04495 z m -6.2168,32.46094 c 2.19992,10.55074 -1.71825,17.35119 -5.57031,19.68555 -2.54061,1.53961 -5.26315,1.97297 -9.39062,-0.004 -2.64256,-1.26567 -5.85072,-3.97366 -9.09961,-8.26562 3.82296,-1.53591 8.00442,-3.26751 12.18359,-5.20508 4.039,-1.87259 8.07234,-3.8817 11.87695,-6.21094 z"
     id="path3980"
     inkscape:connector-curvature="0" />
  <path
     style="color:#000000;font-style:normal;font-variant:normal;font-weight:normal;font-stretch:normal;font-size:medium;line-height:normal;font-family:sans-serif;font-variant-ligatures:normal;font-variant-position:normal;font-variant-caps:normal;font-variant-numeric:normal;font-variant-alternates:normal;font-feature-settings:normal;text-indent:0;text-align:start;text-decoration:none;text-decoration-line:none;text-decoration-style:solid;text-decoration-color:#000000;letter-spacing:normal;word-spacing:normal;text-transform:none;writing-mode:lr-tb;direction:ltr;text-orientation:mixed;dominant-baseline:auto;baseline-shift:baseline;text-anchor:start;white-space:normal;shape-padding:0;clip-rule:nonzero;display:inline;overflow:visible;visibility:visible;opacity:1;isolation:auto;mix-blend-mode:normal;color-interpolation:sRGB;color-interpolation-filters:linearRGB;solid-color:#000000;solid-opacity:1;vector-effect:none;fill:#000000;fill-opacity:1;fill-rule:nonzero;stroke:none;stroke-width:19.05717278;stroke-linecap:butt;stroke-linejoin:miter;stroke-miterlimit:4;stroke-dasharray:none;stroke-dashoffset:0;stroke-opacity:1;color-rendering:auto;image-rendering:auto;shape-rendering:auto;text-rendering:auto;enable-background:accumulate"
     d="m 209.55078,646.28123 -6.88086,4.72852 c -16.64443,11.44159 -25.94325,13.97362 -37.21094,18.8418 l -6.0996,2.63476 0.36523,6.63672 c 1.0716,19.4745 7.19391,33.12362 17.40039,40.40625 10.20648,7.28264 23.23025,6.50713 32.94531,0.94922 9.71507,-5.55791 17.14516,-15.67937 19.02539,-28.15039 1.88023,-12.47102 -2.28418,-26.91157 -13.95312,-39.84766 z m -3.79101,25.26368 c 4.36707,6.87415 5.25242,12.89896 4.49218,17.9414 -0.98494,6.53283 -5.06643,11.83208 -9.64453,14.45117 -4.5781,2.6191 -8.62987,2.77687 -12.41211,0.0781 -3.1918,-2.27745 -6.95349,-8.15157 -8.62304,-19.43164 7.15217,-2.89085 15.30914,-6.38556 26.1875,-13.03906 z"
     id="path3980-1"
     inkscape:connector-curvature="0" />
  <path
     style="color:#000000;font-style:normal;font-variant:normal;font-weight:normal;font-stretch:normal;font-size:medium;line-height:normal;font-family:sans-serif;font-variant-ligatures:normal;font-variant-position:normal;font-variant-caps:normal;font-variant-numeric:normal;font-variant-alternates:normal;font-feature-settings:normal;text-indent:0;text-align:start;text-decoration:none;text-decoration-line:none;text-decoration-style:solid;text-decoration-color:#000000;letter-spacing:normal;word-spacing:normal;text-transform:none;writing-mode:lr-tb;direction:ltr;text-orientation:mixed;dominant-baseline:auto;baseline-shift:baseline;text-anchor:start;white-space:normal;shape-padding:0;clip-rule:nonzero;display:inline;overflow:visible;visibility:visible;opacity:1;isolation:auto;mix-blend-mode:normal;color-interpolation:sRGB;color-interpolation-filters:linearRGB;solid-color:#000000;solid-opacity:1;vector-effect:none;fill:#000000;fill-opacity:1;fill-rule:nonzero;stroke:none;stroke-width:19.05717278;stroke-linecap:butt;stroke-linejoin:miter;stroke-miterlimit:4;stroke-dasharray:none;stroke-dashoffset:0;stroke-opacity:1;color-rendering:auto;image-rendering:auto;shape-rendering:auto;text-rendering:auto;enable-background:accumulate"
     d="m 137.11328,480.38475 c -3.99677,-0.0899 -7.91869,0.26186 -11.69336,1.01758 -15.09869,3.02287 -27.919131,11.97589 -35.748045,23.83984 -7.828914,11.86395 -10.50496,27.50526 -3.607422,41.4961 6.897538,13.99083 22.266417,24.99527 46.378907,31.07812 l 12.26562,3.09375 -0.4121,-12.64453 c -0.44954,-13.76656 0.55075,-26.12731 4.36914,-35.73633 3.81838,-9.60902 9.90075,-16.83519 22.23437,-22.22656 l 14.27539,-6.23828 -12.05664,-9.86524 c -11.35489,-9.2924 -24.01555,-13.54482 -36.00586,-13.81445 z m -0.35742,18.97656 c 3.88285,0.0424 7.88053,0.73833 11.94726,2.27539 -8.28887,6.63545 -14.17305,14.86387 -17.74609,23.85547 -3.78118,9.51539 -5.23541,19.67914 -5.64062,30.04883 -12.68906,-5.02188 -19.29609,-11.41909 -22.16016,-17.22852 -3.649344,-7.40225 -2.47867,-15.14792 2.42187,-22.57421 4.90055,-7.4263 13.69315,-13.66822 23.58399,-15.64844 2.47271,-0.49506 5.0072,-0.75676 7.59375,-0.72852 z"
     id="path3980-1-7"
     inkscape:connector-curvature="0" />
  <path
     style="color:#000000;font-style:normal;font-variant:normal;font-weight:normal;font-stretch:normal;font-size:medium;line-height:normal;font-family:sans-serif;font-variant-ligatures:normal;font-variant-position:normal;font-variant-caps:normal;font-variant-numeric:normal;font-variant-alternates:normal;font-feature-settings:normal;text-indent:0;text-align:start;text-decoration:none;text-decoration-line:none;text-decoration-style:solid;text-decoration-color:#000000;letter-spacing:normal;word-spacing:normal;text-transform:none;writing-mode:lr-tb;direction:ltr;text-orientation:mixed;dominant-baseline:auto;baseline-shift:baseline;text-anchor:start;white-space:normal;shape-padding:0;clip-rule:nonzero;display:inline;overflow:visible;visibility:visible;opacity:1;isolation:auto;mix-blend-mode:normal;color-interpolation:sRGB;color-interpolation-filters:linearRGB;solid-color:#000000;solid-opacity:1;vector-effect:none;fill:#000000;fill-opacity:1;fill-rule:nonzero;stroke:none;stroke-width:19.05717278;stroke-linecap:butt;stroke-linejoin:miter;stroke-miterlimit:4;stroke-dasharray:none;stroke-dashoffset:0;stroke-opacity:1;color-rendering:auto;image-rendering:auto;shape-rendering:auto;text-rendering:auto;enable-background:accumulate"
     d="m 384.92773,291.54881 -11.78125,14.98047 c 0,0 8.16743,6.48223 19.36524,11.27149 11.19781,4.78925 27.01956,8.71083 41.17187,0.0918 l -9.91211,-16.27539 c -6.17378,3.75996 -15.20005,2.32362 -23.76562,-1.33984 -8.56557,-3.66346 -15.07813,-8.72852 -15.07813,-8.72852 z"
     id="path3958-8"
     inkscape:connector-curvature="0" />
  <path
     style="color:#000000;font-style:normal;font-variant:normal;font-weight:normal;font-stretch:normal;font-size:medium;line-height:normal;font-family:sans-serif;font-variant-ligatures:normal;font-variant-position:normal;font-variant-caps:normal;font-variant-numeric:normal;font-variant-alternates:normal;font-feature-settings:normal;text-indent:0;text-align:start;text-decoration:none;text-decoration-line:none;text-decoration-style:solid;text-decoration-color:#000000;letter-spacing:normal;word-spacing:normal;text-transform:none;writing-mode:lr-tb;direction:ltr;text-orientation:mixed;dominant-baseline:auto;baseline-shift:baseline;text-anchor:start;white-space:normal;shape-padding:0;clip-rule:nonzero;display:inline;overflow:visible;visibility:visible;opacity:1;isolation:auto;mix-blend-mode:normal;color-interpolation:sRGB;color-interpolation-filters:linearRGB;solid-color:#000000;solid-opacity:1;vector-effect:none;fill:#000000;fill-opacity:1;fill-rule:nonzero;stroke:none;stroke-width:19.05717278;stroke-linecap:butt;stroke-linejoin:miter;stroke-miterlimit:4;stroke-dasharray:none;stroke-dashoffset:0;stroke-opacity:1;color-rendering:auto;image-rendering:auto;shape-rendering:auto;text-rendering:auto;enable-background:accumulate"
     d="m 412.58984,191.14256 -12.35546,14.50782 c 0,0 21.97597,18.32057 44.53124,4.58398 l -9.9121,-16.27539 c -11.32147,6.89499 -22.26368,-2.81641 -22.26368,-2.81641 z"
     id="path3962-9"
     inkscape:connector-curvature="0" />
  <path
     style="font-style:normal;font-weight:normal;font-size:233.33332825px;line-height:1.25;font-family:sans-serif;letter-spacing:0px;word-spacing:0px;fill:#000000;fill-opacity:1;stroke:none"
     d="M 171.22949,1080.3535 232.98144,1250 h 30.07813 l 61.75,-169.6465 H 301.7959 l -53.20703,149.252 -53.20508,-149.252 z"
     id="text1885"
     inkscape:connector-curvature="0" />
</svg>
