<?xml version="1.0" encoding="UTF-8" standalone="no"?>
<!-- Created with Inkscape (http://www.inkscape.org/) -->

<svg
   xmlns:dc="http://purl.org/dc/elements/1.1/"
   xmlns:cc="http://creativecommons.org/ns#"
   xmlns:rdf="http://www.w3.org/1999/02/22-rdf-syntax-ns#"
   xmlns:svg="http://www.w3.org/2000/svg"
   xmlns="http://www.w3.org/2000/svg"
   xmlns:sodipodi="http://sodipodi.sourceforge.net/DTD/sodipodi-0.dtd"
   xmlns:inkscape="http://www.inkscape.org/namespaces/inkscape"
   version="1.1"
   id="svg11469"
   width="1000"
   height="1250"
   viewBox="0 0 1000 1250"
   sodipodi:docname="Z.svg"
   inkscape:version="0.92.4 (5da689c313, 2019-01-14)">
  <metadata
     id="metadata11475">
    <rdf:RDF>
      <cc:Work
         rdf:about="">
        <dc:format>image/svg+xml</dc:format>
        <dc:type
           rdf:resource="http://purl.org/dc/dcmitype/StillImage" />
        <dc:title></dc:title>
      </cc:Work>
    </rdf:RDF>
  </metadata>
  <defs
     id="defs11473">
    <clipPath
       clipPathUnits="userSpaceOnUse"
       id="clipPath11481">
      <rect
         style="opacity:1;fill:#00000a;fill-opacity:0.04705882;stroke:#000000;stroke-width:9.99999905;stroke-miterlimit:4;stroke-dasharray:none;stroke-opacity:1"
         id="rect11483"
         width="990"
         height="989.99994"
         x="5"
         y="4.9999976"
         transform="rotate(-90)" />
    </clipPath>
  </defs>
  <sodipodi:namedview
     pagecolor="#ffffff"
     bordercolor="#666666"
     borderopacity="1"
     objecttolerance="10"
     gridtolerance="10"
     guidetolerance="10"
     inkscape:pageopacity="0"
     inkscape:pageshadow="2"
     inkscape:window-width="1366"
     inkscape:window-height="715"
     id="namedview11471"
     showgrid="false"
     inkscape:zoom="0.38628982"
     inkscape:cx="593.32405"
     inkscape:cy="660.37647"
     inkscape:window-x="-8"
     inkscape:window-y="-8"
     inkscape:window-maximized="1"
     inkscape:current-layer="svg11469" />
  <path
     style="color:#000000;font-style:normal;font-variant:normal;font-weight:normal;font-stretch:normal;font-size:medium;line-height:normal;font-family:sans-serif;font-variant-ligatures:normal;font-variant-position:normal;font-variant-caps:normal;font-variant-numeric:normal;font-variant-alternates:normal;font-feature-settings:normal;text-indent:0;text-align:start;text-decoration:none;text-decoration-line:none;text-decoration-style:solid;text-decoration-color:#000000;letter-spacing:normal;word-spacing:normal;text-transform:none;writing-mode:lr-tb;direction:ltr;text-orientation:mixed;dominant-baseline:auto;baseline-shift:baseline;text-anchor:start;white-space:normal;shape-padding:0;clip-rule:nonzero;display:inline;overflow:visible;visibility:visible;opacity:1;isolation:auto;mix-blend-mode:normal;color-interpolation:sRGB;color-interpolation-filters:linearRGB;solid-color:#000000;solid-opacity:1;vector-effect:none;fill:#000000;fill-opacity:1;fill-rule:nonzero;stroke:none;stroke-width:25.24567604;stroke-linecap:butt;stroke-linejoin:miter;stroke-miterlimit:4;stroke-dasharray:none;stroke-dashoffset:0;stroke-opacity:1;color-rendering:auto;image-rendering:auto;shape-rendering:auto;text-rendering:auto;enable-background:accumulate"
     d="m 134.54688,613.14052 c -1.55639,-0.26456 -3.26173,-0.30164 -4.9336,0.043 -3.34374,0.68923 -5.84763,2.59713 -7.28125,4.16406 -2.86723,3.13388 -3.19025,5.18788 -3.68164,6.96289 -0.98279,3.55004 -1.18579,6.5494 -1.38477,10.1875 -0.39795,7.27621 -0.21324,16.36134 0.15821,25.57227 0.72311,17.93146 2.19712,35.49958 2.27734,36.45313 2.2e-4,0.0145 -2.3e-4,0.0362 0,0.0508 0.005,0.29608 0.0135,0.5841 0.0254,0.93554 0.0237,0.70288 0.0622,1.62587 0.11914,2.78907 0.1138,2.32638 0.30071,5.59594 0.58008,9.64257 0.55874,8.09327 1.48809,19.27971 2.94922,32.04102 2.92226,25.52265 7.86104,57.20634 16.63672,83.57034 5.75808,17.2988 13.79605,32.8672 22.16601,58.1543 2.49308,7.532 4.98219,17.4509 7.43946,26.7656 2.45727,9.3147 4.51946,17.635 8.11914,24.7344 l 0.32812,0.6445 0.39844,0.6035 c 18.36508,27.8072 27.67233,44.593 32.23633,54 2.282,4.7035 3.37524,7.5598 3.83789,8.9414 0.46265,1.38159 0.15625,-0.041 0.15625,-0.041 l 25.14258,-2.2754 c 0,0 -0.44953,-2.9822 -1.35938,-5.6992 -0.90984,-2.717 -2.41961,-6.4979 -5.0625,-11.9453 -5.21935,-10.7578 -14.94332,-28.1218 -33.25976,-55.9219 -1.23782,-2.5553 -3.77778,-10.5829 -6.125,-19.4805 -2.39189,-9.0668 -4.9145,-19.286 -7.88477,-28.2597 -8.89738,-26.8805 -17.27496,-43.4602 -22.17969,-58.1953 -7.72926,-23.2203 -12.6898,-53.85479 -15.50781,-78.46682 -1.409,-12.30602 -2.30948,-23.14113 -2.8457,-30.90821 -0.26811,-3.88354 -0.4464,-7.0047 -0.55078,-9.13867 -0.0454,-0.92755 -0.071,-1.57529 -0.0899,-2.0918 l 0.0645,-0.39453 -0.13086,-1.56054 c 0,0 -1.54164,-18.30223 -2.25391,-35.96485 -0.35614,-8.83131 -0.48225,-17.57223 -0.17578,-23.17578 0.15324,-2.80177 0.55591,-5.00576 0.50781,-4.83203 -0.024,0.0869 0.20277,0.91051 -2.02344,3.34375 -1.1131,1.21662 -3.2737,2.90604 -6.25,3.51953 -2.97629,0.61349 -6.06265,-0.16202 -7.79687,-1.0664 l 11.67383,-22.38477 c -1.07547,-0.56085 -2.48268,-1.05185 -4.03906,-1.31641 z"
     id="path6851"
     inkscape:connector-curvature="0" />
  <path
     style="color:#000000;font-style:normal;font-variant:normal;font-weight:normal;font-stretch:normal;font-size:medium;line-height:normal;font-family:sans-serif;font-variant-ligatures:normal;font-variant-position:normal;font-variant-caps:normal;font-variant-numeric:normal;font-variant-alternates:normal;font-feature-settings:normal;text-indent:0;text-align:start;text-decoration:none;text-decoration-line:none;text-decoration-style:solid;text-decoration-color:#000000;letter-spacing:normal;word-spacing:normal;text-transform:none;writing-mode:lr-tb;direction:ltr;text-orientation:mixed;dominant-baseline:auto;baseline-shift:baseline;text-anchor:start;white-space:normal;shape-padding:0;clip-rule:nonzero;display:inline;overflow:visible;visibility:visible;opacity:1;isolation:auto;mix-blend-mode:normal;color-interpolation:sRGB;color-interpolation-filters:linearRGB;solid-color:#000000;solid-opacity:1;vector-effect:none;fill:#000000;fill-opacity:1;fill-rule:nonzero;stroke:none;stroke-width:25.24567604;stroke-linecap:butt;stroke-linejoin:miter;stroke-miterlimit:4;stroke-dasharray:none;stroke-dashoffset:0;stroke-opacity:1;color-rendering:auto;image-rendering:auto;shape-rendering:auto;text-rendering:auto;enable-background:accumulate"
     d="m 197.25195,504.85927 -4.65429,0.0273 c -30.84405,0.17878 -52.54125,7.57933 -66.58204,20.52148 -14.04078,12.94215 -18.93306,30.44141 -19.24804,46.16992 -0.62996,31.45704 14.76953,59.87305 14.76953,59.87305 l 22.42187,-11.60156 c 0,0 -12.40067,-25.31989 -11.95117,-47.76563 0.22475,-11.22286 3.09233,-20.71633 11.11719,-28.11328 7.34242,-6.7679 20.37206,-12.546 43.13281,-13.60937 1.03504,2.26046 2.30999,5.60307 3.60938,10.89257 2.35342,9.58022 4.88229,23.53513 9.125,41.42383 8.48541,35.77741 23.99893,87.41411 60.29101,156.83789 l 22.37305,-11.69531 c -35.2868,-67.50077 -49.94359,-116.58017 -58.09961,-150.96875 -4.07801,-17.19429 -6.48743,-30.68538 -9.17383,-41.62109 -2.6864,-10.93572 -5.22723,-20.32824 -13.57226,-27.36914 z"
     id="path6853"
     inkscape:connector-curvature="0" />
  <path
     style="color:#000000;font-style:normal;font-variant:normal;font-weight:normal;font-stretch:normal;font-size:medium;line-height:normal;font-family:sans-serif;font-variant-ligatures:normal;font-variant-position:normal;font-variant-caps:normal;font-variant-numeric:normal;font-variant-alternates:normal;font-feature-settings:normal;text-indent:0;text-align:start;text-decoration:none;text-decoration-line:none;text-decoration-style:solid;text-decoration-color:#000000;letter-spacing:normal;word-spacing:normal;text-transform:none;writing-mode:lr-tb;direction:ltr;text-orientation:mixed;dominant-baseline:auto;baseline-shift:baseline;text-anchor:start;white-space:normal;shape-padding:0;clip-rule:nonzero;display:inline;overflow:visible;visibility:visible;opacity:1;isolation:auto;mix-blend-mode:normal;color-interpolation:sRGB;color-interpolation-filters:linearRGB;solid-color:#000000;solid-opacity:1;vector-effect:none;fill:#000000;fill-opacity:1;fill-rule:nonzero;stroke:none;stroke-width:25.24567604;stroke-linecap:butt;stroke-linejoin:miter;stroke-miterlimit:4;stroke-dasharray:none;stroke-dashoffset:0;stroke-opacity:1;color-rendering:auto;image-rendering:auto;shape-rendering:auto;text-rendering:auto;enable-background:accumulate"
     d="m 248.60742,429.70888 c -11.0237,-0.25143 -20.64222,1.31844 -29.0332,4.48242 -16.78196,6.32798 -27.41069,19.1365 -33.05078,31.99805 -11.28019,25.7231 -6.32813,53.25 -6.32813,53.25 l 24.94922,-3.85937 c 0,0 -2.80198,-22.60066 4.5,-39.25196 3.65099,-8.32564 8.89766,-14.76624 18.83594,-18.51367 9.93828,-3.74743 25.81204,-4.69417 50.46094,2.5625 l 7.1289,-24.21875 c -14.01145,-4.12499 -26.43919,-6.19778 -37.46289,-6.44922 z"
     id="path6855"
     inkscape:connector-curvature="0" />
  <path
     style="color:#000000;font-style:normal;font-variant:normal;font-weight:normal;font-stretch:normal;font-size:medium;line-height:normal;font-family:sans-serif;font-variant-ligatures:normal;font-variant-position:normal;font-variant-caps:normal;font-variant-numeric:normal;font-variant-alternates:normal;font-feature-settings:normal;text-indent:0;text-align:start;text-decoration:none;text-decoration-line:none;text-decoration-style:solid;text-decoration-color:#000000;letter-spacing:normal;word-spacing:normal;text-transform:none;writing-mode:lr-tb;direction:ltr;text-orientation:mixed;dominant-baseline:auto;baseline-shift:baseline;text-anchor:start;white-space:normal;shape-padding:0;clip-rule:nonzero;display:inline;overflow:visible;visibility:visible;opacity:1;isolation:auto;mix-blend-mode:normal;color-interpolation:sRGB;color-interpolation-filters:linearRGB;solid-color:#000000;solid-opacity:1;vector-effect:none;fill:#000000;fill-opacity:1;fill-rule:nonzero;stroke:none;stroke-width:25.24567604;stroke-linecap:butt;stroke-linejoin:miter;stroke-miterlimit:4;stroke-dasharray:none;stroke-dashoffset:0;stroke-opacity:1;color-rendering:auto;image-rendering:auto;shape-rendering:auto;text-rendering:auto;enable-background:accumulate"
     d="m 340.28711,360.84951 c -9.5163,0.0546 -18.89024,2.38882 -27.41406,6.51172 -27.04098,13.07947 -46.69157,44.24171 -42.98243,81.33398 -0.47782,72.83991 23.95343,141.50933 53.50977,205.11914 l 0.19141,0.41211 0.2207,0.39844 c 17.3058,31.16185 23.29752,54.66199 26.85156,71.54687 l 24.70313,-5.20117 C 371.61418,703.14043 364.6974,676.45757 346.21094,642.99013 317.32046,580.78092 294.57623,515.5373 295.12891,448.37099 l 0.006,-0.74805 -0.082,-0.74414 c -3.02061,-27.28688 11.47599,-48.4055 28.8125,-56.79101 8.66826,-4.19276 17.74014,-5.18043 26.22657,-2.60742 8.38502,2.54226 16.71844,8.60242 23.88672,20.93554 0.83536,1.92741 23.17398,53.74366 24.18164,90.01953 l 25.23632,-0.70117 C 422.11253,451.51154 396.70703,397.34169 396.70703,397.3417 l -0.24609,-0.54297 -0.29688,-0.51758 c -9.836,-17.20214 -23.65611,-28.38579 -38.74609,-32.96094 -5.65875,-1.71568 -11.42108,-2.50349 -17.13086,-2.4707 z"
     id="path6857"
     inkscape:connector-curvature="0" />
  <path
     style="color:#000000;font-style:normal;font-variant:normal;font-weight:normal;font-stretch:normal;font-size:medium;line-height:normal;font-family:sans-serif;font-variant-ligatures:normal;font-variant-position:normal;font-variant-caps:normal;font-variant-numeric:normal;font-variant-alternates:normal;font-feature-settings:normal;text-indent:0;text-align:start;text-decoration:none;text-decoration-line:none;text-decoration-style:solid;text-decoration-color:#000000;letter-spacing:normal;word-spacing:normal;text-transform:none;writing-mode:lr-tb;direction:ltr;text-orientation:mixed;dominant-baseline:auto;baseline-shift:baseline;text-anchor:start;white-space:normal;shape-padding:0;clip-rule:nonzero;display:inline;overflow:visible;visibility:visible;opacity:1;isolation:auto;mix-blend-mode:normal;color-interpolation:sRGB;color-interpolation-filters:linearRGB;solid-color:#000000;solid-opacity:1;vector-effect:none;fill:#000000;fill-opacity:1;fill-rule:nonzero;stroke:none;stroke-width:25.24567604;stroke-linecap:butt;stroke-linejoin:miter;stroke-miterlimit:4;stroke-dasharray:none;stroke-dashoffset:0;stroke-opacity:1;color-rendering:auto;image-rendering:auto;shape-rendering:auto;text-rendering:auto;enable-background:accumulate"
     d="m 535.30469,438.47255 c -16.51652,0.22037 -33.60015,5.89538 -51.59571,13.2168 -41.05981,16.70503 -87.59477,43.39149 -127.53906,51.2207 -24.88242,2.16592 -44.07426,11.08981 -55.45117,25.36915 -11.56712,14.51808 -13.63761,34.15063 -6.56445,51.55468 14.14631,34.8081 59.86693,62.69313 132.91211,63.70899 l 2.10547,0.0293 2.00195,-0.65625 c 0,0 14.71435,-4.82081 32.89648,-13.04492 18.18213,-8.22411 40.06117,-19.63936 55.95313,-34.86914 l -17.4668,-18.22656 c -11.83552,11.34237 -31.98095,22.44519 -48.89062,30.09375 -15.01479,6.79146 -25.81059,10.48335 -28.375,11.34766 -65.22893,-1.46411 -99.42444,-27.4078 -107.74805,-47.88868 -4.20794,-10.35396 -3.06772,-18.80318 2.91992,-26.31836 5.98764,-7.51518 18.27302,-14.47784 38.87305,-16.07031 l 0.72461,-0.0566 0.71289,-0.13867 c 46.68881,-9.07809 94.09157,-37.06426 132.44922,-52.66992 19.17882,-7.80284 35.91375,-12.15412 46.94922,-11.19922 11.03546,0.9549 17.14116,4.38169 23.00781,19.36523 l -0.084,-0.2207 c 8.15088,22.03039 24.82329,52.36977 37.67383,84.05469 12.63354,31.14986 20.49852,62.92462 15.33008,84.23632 -32.84784,62.01934 -73.57076,107.04593 -103.15625,153.77542 -29.82314,47.1048 -47.53932,97.7765 -29.28711,164.3418 l 24.3457,-6.6758 c -16.37722,-59.7273 -1.78179,-99.8508 26.27149,-144.1602 28.05327,-44.30939 70.33364,-91.01604 104.98828,-156.99411 l 0.65234,-1.24218 0.36328,-1.35547 c 8.57908,-31.96957 -2.54417,-67.95741 -16.11328,-101.41406 -13.56911,-33.45666 -30.6197,-65.02223 -37.39258,-83.32813 l -0.041,-0.11133 -0.043,-0.10937 c -8.38247,-21.40901 -25.63859,-33.6964 -44.33789,-35.31446 -2.33741,-0.20225 -4.68542,-0.28148 -7.04492,-0.25 z"
     id="path6863"
     inkscape:connector-curvature="0" />
  <path
     style="color:#000000;font-style:normal;font-variant:normal;font-weight:normal;font-stretch:normal;font-size:medium;line-height:normal;font-family:sans-serif;font-variant-ligatures:normal;font-variant-position:normal;font-variant-caps:normal;font-variant-numeric:normal;font-variant-alternates:normal;font-feature-settings:normal;text-indent:0;text-align:start;text-decoration:none;text-decoration-line:none;text-decoration-style:solid;text-decoration-color:#000000;letter-spacing:normal;word-spacing:normal;text-transform:none;writing-mode:lr-tb;direction:ltr;text-orientation:mixed;dominant-baseline:auto;baseline-shift:baseline;text-anchor:start;white-space:normal;shape-padding:0;clip-rule:nonzero;display:inline;overflow:visible;visibility:visible;opacity:1;isolation:auto;mix-blend-mode:normal;color-interpolation:sRGB;color-interpolation-filters:linearRGB;solid-color:#000000;solid-opacity:1;vector-effect:none;fill:#000000;fill-opacity:1;fill-rule:nonzero;stroke:none;stroke-width:25.24567604;stroke-linecap:butt;stroke-linejoin:miter;stroke-miterlimit:4;stroke-dasharray:none;stroke-dashoffset:0;stroke-opacity:1;color-rendering:auto;image-rendering:auto;shape-rendering:auto;text-rendering:auto;enable-background:accumulate"
     d="m 143.81641,619.57998 -22.13477,12.13867 c 26.85361,48.97136 52.11116,86.37655 77.70117,108.12305 12.79501,10.87324 26.08067,18.14452 40.40039,19.21092 14.31973,1.0665 28.53091,-5.1073 39.71875,-16.56639 L 261.4375,724.84951 c -7.40819,7.58781 -13.07872,9.52637 -19.7793,9.02734 -6.70057,-0.49902 -15.57277,-4.4718 -25.92773,-13.27148 C 195.02055,703.006 170.0138,667.35464 143.81641,619.57998 Z"
     id="path6865"
     inkscape:connector-curvature="0" />
  <path
     style="color:#000000;font-style:normal;font-variant:normal;font-weight:normal;font-stretch:normal;font-size:medium;line-height:normal;font-family:sans-serif;font-variant-ligatures:normal;font-variant-position:normal;font-variant-caps:normal;font-variant-numeric:normal;font-variant-alternates:normal;font-feature-settings:normal;text-indent:0;text-align:start;text-decoration:none;text-decoration-line:none;text-decoration-style:solid;text-decoration-color:#000000;letter-spacing:normal;word-spacing:normal;text-transform:none;writing-mode:lr-tb;direction:ltr;text-orientation:mixed;dominant-baseline:auto;baseline-shift:baseline;text-anchor:start;white-space:normal;shape-padding:0;clip-rule:nonzero;display:inline;overflow:visible;visibility:visible;opacity:1;isolation:auto;mix-blend-mode:normal;color-interpolation:sRGB;color-interpolation-filters:linearRGB;solid-color:#000000;solid-opacity:1;vector-effect:none;fill:#000000;fill-opacity:1;fill-rule:nonzero;stroke:none;stroke-width:25.24567604;stroke-linecap:butt;stroke-linejoin:miter;stroke-miterlimit:4;stroke-dasharray:none;stroke-dashoffset:0;stroke-opacity:1;color-rendering:auto;image-rendering:auto;shape-rendering:auto;text-rendering:auto;enable-background:accumulate"
     d="m 375.39062,721.07802 -24.75,4.98633 c 0.98037,4.86639 -0.073,12.88999 -3.48437,20.09766 -3.41136,7.20771 -8.92468,13.37891 -14.60937,16.30861 -5.6847,2.9296 -11.21834,3.6801 -19.64258,-0.4961 -8.42425,-4.1762 -19.64689,-14.44194 -31.55078,-34.70118 l -21.76563,12.78906 c 13.47096,22.92622 27.35318,37.21901 42.10352,44.53121 14.75033,7.3123 30.46036,6.4818 42.41992,0.3184 11.95956,-6.1634 20.4927,-16.59789 25.86523,-27.94919 5.37254,-11.35136 7.84021,-23.84176 5.41406,-35.8848 z"
     id="path6867"
     inkscape:connector-curvature="0" />
  <path
     style="color:#000000;font-style:normal;font-variant:normal;font-weight:normal;font-stretch:normal;font-size:medium;line-height:normal;font-family:sans-serif;font-variant-ligatures:normal;font-variant-position:normal;font-variant-caps:normal;font-variant-numeric:normal;font-variant-alternates:normal;font-feature-settings:normal;text-indent:0;text-align:start;text-decoration:none;text-decoration-line:none;text-decoration-style:solid;text-decoration-color:#000000;letter-spacing:normal;word-spacing:normal;text-transform:none;writing-mode:lr-tb;direction:ltr;text-orientation:mixed;dominant-baseline:auto;baseline-shift:baseline;text-anchor:start;white-space:normal;shape-padding:0;clip-rule:nonzero;display:inline;overflow:visible;visibility:visible;opacity:1;isolation:auto;mix-blend-mode:normal;color-interpolation:sRGB;color-interpolation-filters:linearRGB;solid-color:#000000;solid-opacity:1;vector-effect:none;fill:#000000;fill-opacity:1;fill-rule:nonzero;stroke:none;stroke-width:25.24567604;stroke-linecap:butt;stroke-linejoin:miter;stroke-miterlimit:4;stroke-dasharray:none;stroke-dashoffset:0;stroke-opacity:1;color-rendering:auto;image-rendering:auto;shape-rendering:auto;text-rendering:auto;enable-background:accumulate"
     d="m 426.47266,1.3065379 c -3.73623,-0.1883 -7.47012,0.061 -11.11328,0.74023 -29.14531,5.43396 -52.6698,36.0124001 -49.05274,76.3203201 l -0.0449,-0.7461 c 0,0 6.99264,230.812752 6.32226,324.835942 l 25.2461,0.17969 c 0.6813,-95.55851 -6.33401,-325.781252 -6.33401,-325.781252 l -0.0117,-0.37305 -0.0332,-0.37305 c -2.67131,-29.7687 13.96797,-46.52781 28.53711,-49.24414 7.28457,-1.35816 14.02047,0.19112 20.36914,6.29883 6.34868,6.10771 12.40651,17.6814 14.18946,37.2207 l 0.0117,0.13477 0.0156,0.13476 c 0,0 18.3047,162.214352 23.24805,206.072272 0.0722,1.17825 6.42545,104.39782 22.70117,179.20898 l 24.66992,-5.36718 C 509.57693,378.78751 502.99023,274.76357 502.99023,274.76357 l -0.0195,-0.31641 -0.0371,-0.31445 C 498.01405,230.48551 479.66016,67.822158 479.66016,67.822158 l 0.0273,0.26953 C 477.51579,44.292018 469.78159,26.438438 457.86133,14.970598 448.92113,6.3697179 437.68135,1.8714379 426.47266,1.3065379 Z"
     id="path6869"
     inkscape:connector-curvature="0" />
  <path
     style="color:#000000;font-style:normal;font-variant:normal;font-weight:normal;font-stretch:normal;font-size:medium;line-height:normal;font-family:sans-serif;font-variant-ligatures:normal;font-variant-position:normal;font-variant-caps:normal;font-variant-numeric:normal;font-variant-alternates:normal;font-feature-settings:normal;text-indent:0;text-align:start;text-decoration:none;text-decoration-line:none;text-decoration-style:solid;text-decoration-color:#000000;letter-spacing:normal;word-spacing:normal;text-transform:none;writing-mode:lr-tb;direction:ltr;text-orientation:mixed;dominant-baseline:auto;baseline-shift:baseline;text-anchor:start;white-space:normal;shape-padding:0;clip-rule:nonzero;display:inline;overflow:visible;visibility:visible;opacity:1;isolation:auto;mix-blend-mode:normal;color-interpolation:sRGB;color-interpolation-filters:linearRGB;solid-color:#000000;solid-opacity:1;vector-effect:none;fill:#000000;fill-opacity:1;fill-rule:nonzero;stroke:none;stroke-width:18.9342556;stroke-linecap:butt;stroke-linejoin:miter;stroke-miterlimit:4;stroke-dasharray:none;stroke-dashoffset:0;stroke-opacity:1;color-rendering:auto;image-rendering:auto;shape-rendering:auto;text-rendering:auto;enable-background:accumulate"
     d="m 314.37695,812.35341 -16.42773,9.4141 c 0,0 17.01107,29.7887 51.99609,50.7402 34.98503,20.9515 88.96991,32.7592 158.98828,-0.6797 l -8.16015,-17.0859 c -65.17788,31.1272 -110.53894,19.8233 -141.09961,1.5215 -30.56067,-18.3019 -45.29688,-43.9102 -45.29688,-43.9102 z"
     id="path6873"
     inkscape:connector-curvature="0" />
  <path
     style="color:#000000;font-style:normal;font-variant:normal;font-weight:normal;font-stretch:normal;font-size:medium;line-height:normal;font-family:sans-serif;font-variant-ligatures:normal;font-variant-position:normal;font-variant-caps:normal;font-variant-numeric:normal;font-variant-alternates:normal;font-feature-settings:normal;text-indent:0;text-align:start;text-decoration:none;text-decoration-line:none;text-decoration-style:solid;text-decoration-color:#000000;letter-spacing:normal;word-spacing:normal;text-transform:none;writing-mode:lr-tb;direction:ltr;text-orientation:mixed;dominant-baseline:auto;baseline-shift:baseline;text-anchor:start;white-space:normal;shape-padding:0;clip-rule:nonzero;display:inline;overflow:visible;visibility:visible;opacity:1;isolation:auto;mix-blend-mode:normal;color-interpolation:sRGB;color-interpolation-filters:linearRGB;solid-color:#000000;solid-opacity:1;vector-effect:none;fill:#000000;fill-opacity:1;fill-rule:nonzero;stroke:none;stroke-width:18.9342556;stroke-linecap:butt;stroke-linejoin:miter;stroke-miterlimit:4;stroke-dasharray:none;stroke-dashoffset:0;stroke-opacity:1;color-rendering:auto;image-rendering:auto;shape-rendering:auto;text-rendering:auto;enable-background:accumulate"
     d="m 261.77539,924.27721 c -16.32114,12.7512 -30.77646,15.172 -41.40625,14.8301 -10.62979,-0.3419 -16.57227,-3.3594 -16.57226,-3.3594 l -8.3711,16.9844 c 0,0 9.99675,4.8396 24.33399,5.3008 14.33723,0.4611 33.87732,-3.3691 53.67187,-18.834 z"
     id="path6875"
     inkscape:connector-curvature="0" />
  <path
     style="color:#000000;font-style:normal;font-variant:normal;font-weight:normal;font-stretch:normal;font-size:medium;line-height:normal;font-family:sans-serif;font-variant-ligatures:normal;font-variant-position:normal;font-variant-caps:normal;font-variant-numeric:normal;font-variant-alternates:normal;font-feature-settings:normal;text-indent:0;text-align:start;text-decoration:none;text-decoration-line:none;text-decoration-style:solid;text-decoration-color:#000000;letter-spacing:normal;word-spacing:normal;text-transform:none;writing-mode:lr-tb;direction:ltr;text-orientation:mixed;dominant-baseline:auto;baseline-shift:baseline;text-anchor:start;white-space:normal;shape-padding:0;clip-rule:nonzero;display:inline;overflow:visible;visibility:visible;opacity:1;isolation:auto;mix-blend-mode:normal;color-interpolation:sRGB;color-interpolation-filters:linearRGB;solid-color:#000000;solid-opacity:1;vector-effect:none;fill:#000000;fill-opacity:1;fill-rule:nonzero;stroke:none;stroke-width:18.9342556;stroke-linecap:butt;stroke-linejoin:miter;stroke-miterlimit:4;stroke-dasharray:none;stroke-dashoffset:0;stroke-opacity:1;color-rendering:auto;image-rendering:auto;shape-rendering:auto;text-rendering:auto;enable-background:accumulate"
     d="m 242.68945,681.70888 -64.71484,24.88867 9.21875,10.23047 c 0,0 11.4116,12.87636 26.94336,21.91602 7.76588,4.51983 16.77424,8.33807 26.75976,8.42187 9.98553,0.0838 20.77301,-4.55762 28.36914,-14.45117 l -15.01953,-11.53125 c -4.52682,5.89594 -8.24201,7.09037 -13.1914,7.04883 -4.94939,-0.0415 -11.30867,-2.30953 -17.39453,-5.85156 -4.41354,-2.56873 -8.33793,-5.59861 -11.84571,-8.50977 l 37.67188,-14.49023 z"
     id="path7424"
     inkscape:connector-curvature="0" />
  <path
     style="color:#000000;font-style:normal;font-variant:normal;font-weight:normal;font-stretch:normal;font-size:medium;line-height:normal;font-family:sans-serif;font-variant-ligatures:normal;font-variant-position:normal;font-variant-caps:normal;font-variant-numeric:normal;font-variant-alternates:normal;font-feature-settings:normal;text-indent:0;text-align:start;text-decoration:none;text-decoration-line:none;text-decoration-style:solid;text-decoration-color:#000000;letter-spacing:normal;word-spacing:normal;text-transform:none;writing-mode:lr-tb;direction:ltr;text-orientation:mixed;dominant-baseline:auto;baseline-shift:baseline;text-anchor:start;white-space:normal;shape-padding:0;clip-rule:nonzero;display:inline;overflow:visible;visibility:visible;opacity:1;isolation:auto;mix-blend-mode:normal;color-interpolation:sRGB;color-interpolation-filters:linearRGB;solid-color:#000000;solid-opacity:1;vector-effect:none;fill:#000000;fill-opacity:1;fill-rule:nonzero;stroke:none;stroke-width:18.9342556;stroke-linecap:butt;stroke-linejoin:miter;stroke-miterlimit:4;stroke-dasharray:none;stroke-dashoffset:0;stroke-opacity:1;color-rendering:auto;image-rendering:auto;shape-rendering:auto;text-rendering:auto;enable-background:accumulate"
     d="m 357.00391,702.0956 -84.85157,24.32813 6.09961,10.50586 c 11.15818,19.21853 22.01231,30.94023 33.53711,36.77543 11.52481,5.83509 24.27065,4.28379 32.84766,-2.1993 8.57701,-6.4831 13.66556,-16.4327 16.21289,-27.1777 2.54733,-10.74497 2.50056,-22.54239 -1.03516,-33.51172 z m -13.58399,23.5918 c 0.3701,4.78352 0.084,9.72565 -0.99414,14.27344 -1.78791,7.54166 -5.54979,13.67508 -9.20703,16.43948 -3.65724,2.7644 -6.52855,3.6264 -12.87695,0.4121 -4.91745,-2.4898 -11.60924,-8.46075 -19.0586,-19.04494 z"
     id="path7426"
     inkscape:connector-curvature="0" />
  <path
     style="color:#000000;font-style:normal;font-variant:normal;font-weight:normal;font-stretch:normal;font-size:medium;line-height:normal;font-family:sans-serif;font-variant-ligatures:normal;font-variant-position:normal;font-variant-caps:normal;font-variant-numeric:normal;font-variant-alternates:normal;font-feature-settings:normal;text-indent:0;text-align:start;text-decoration:none;text-decoration-line:none;text-decoration-style:solid;text-decoration-color:#000000;letter-spacing:normal;word-spacing:normal;text-transform:none;writing-mode:lr-tb;direction:ltr;text-orientation:mixed;dominant-baseline:auto;baseline-shift:baseline;text-anchor:start;white-space:normal;shape-padding:0;clip-rule:nonzero;display:inline;overflow:visible;visibility:visible;opacity:1;isolation:auto;mix-blend-mode:normal;color-interpolation:sRGB;color-interpolation-filters:linearRGB;solid-color:#000000;solid-opacity:1;vector-effect:none;fill:#000000;fill-opacity:1;fill-rule:nonzero;stroke:none;stroke-width:18.9342556;stroke-linecap:butt;stroke-linejoin:miter;stroke-miterlimit:4;stroke-dasharray:none;stroke-dashoffset:0;stroke-opacity:1;color-rendering:auto;image-rendering:auto;shape-rendering:auto;text-rendering:auto;enable-background:accumulate"
     d="m 459.86719,305.46474 c -5.79189,2.56716 -16.04303,3.16514 -24.50977,2.51563 -8.46674,-0.64951 -14.88672,-2.13867 -14.88672,-2.13867 l -4.29101,18.4414 c 0,0 7.76242,1.80954 17.73047,2.57422 9.96805,0.76468 22.40409,0.89123 33.6289,-4.08398 z"
     id="path12193"
     inkscape:connector-curvature="0" />
  <path
     style="color:#000000;font-style:normal;font-variant:normal;font-weight:normal;font-stretch:normal;font-size:medium;line-height:normal;font-family:sans-serif;font-variant-ligatures:normal;font-variant-position:normal;font-variant-caps:normal;font-variant-numeric:normal;font-variant-alternates:normal;font-feature-settings:normal;text-indent:0;text-align:start;text-decoration:none;text-decoration-line:none;text-decoration-style:solid;text-decoration-color:#000000;letter-spacing:normal;word-spacing:normal;text-transform:none;writing-mode:lr-tb;direction:ltr;text-orientation:mixed;dominant-baseline:auto;baseline-shift:baseline;text-anchor:start;white-space:normal;shape-padding:0;clip-rule:nonzero;display:inline;overflow:visible;visibility:visible;opacity:1;isolation:auto;mix-blend-mode:normal;color-interpolation:sRGB;color-interpolation-filters:linearRGB;solid-color:#000000;solid-opacity:1;vector-effect:none;fill:#000000;fill-opacity:1;fill-rule:nonzero;stroke:none;stroke-width:18.9342556;stroke-linecap:butt;stroke-linejoin:miter;stroke-miterlimit:4;stroke-dasharray:none;stroke-dashoffset:0;stroke-opacity:1;color-rendering:auto;image-rendering:auto;shape-rendering:auto;text-rendering:auto;enable-background:accumulate"
     d="m 439.00977,147.7538 c -4.74545,0.18906 -9.23383,1.44336 -13.10157,2.59375 -7.73548,2.30079 -13.84375,5.50782 -13.84375,5.50782 l 8.74024,16.79687 c 0,0 4.7639,-2.45015 10.5,-4.15625 5.73609,-1.7061 11.5866,-1.35167 12.19922,-0.96289 l 10.14648,-15.98633 c -4.89324,-3.10538 -9.89517,-3.98202 -14.64062,-3.79297 z"
     id="path12195"
     inkscape:connector-curvature="0" />
  <path
     style="color:#000000;font-style:normal;font-variant:normal;font-weight:normal;font-stretch:normal;font-size:medium;line-height:normal;font-family:sans-serif;font-variant-ligatures:normal;font-variant-position:normal;font-variant-caps:normal;font-variant-numeric:normal;font-variant-alternates:normal;font-feature-settings:normal;text-indent:0;text-align:start;text-decoration:none;text-decoration-line:none;text-decoration-style:solid;text-decoration-color:#000000;letter-spacing:normal;word-spacing:normal;text-transform:none;writing-mode:lr-tb;direction:ltr;text-orientation:mixed;dominant-baseline:auto;baseline-shift:baseline;text-anchor:start;white-space:normal;shape-padding:0;clip-rule:nonzero;display:inline;overflow:visible;visibility:visible;opacity:1;isolation:auto;mix-blend-mode:normal;color-interpolation:sRGB;color-interpolation-filters:linearRGB;solid-color:#000000;solid-opacity:1;vector-effect:none;fill:#000000;fill-opacity:1;fill-rule:nonzero;stroke:none;stroke-width:25.24567604;stroke-linecap:butt;stroke-linejoin:miter;stroke-miterlimit:4;stroke-dasharray:none;stroke-dashoffset:0;stroke-opacity:1;color-rendering:auto;image-rendering:auto;shape-rendering:auto;text-rendering:auto;enable-background:accumulate"
     d="m 481.49609,606.66396 -17.85156,17.84961 c -4.48793,-4.4881 -3.50906,-6.5491 -3.61328,-7.61523 -0.10422,-1.06614 -0.0566,-1.48001 -0.0391,-1.78516 0.0352,-0.61029 0.0612,-0.64138 0.0527,-0.58594 -0.0169,0.11089 -0.13149,0.76487 -0.29687,1.61914 -0.33077,1.70854 -0.86943,4.3704 -1.46875,7.63477 -1.19865,6.52873 -2.65729,15.53822 -3.42188,25.58008 -1.52918,20.08371 -1.36705,44.9519 13.76367,63.23437 l 19.44922,-16.0957 c -7.05477,-8.52429 -9.3728,-27.72951 -8.04101,-45.2207 0.66589,-8.7456 1.97337,-16.90087 3.08203,-22.93946 0.55433,-3.01929 1.05287,-5.49042 1.42187,-7.39648 0.1845,-0.95303 0.33531,-1.72729 0.47071,-2.61719 0.0677,-0.44495 0.14196,-0.86812 0.19336,-1.75977 0.0257,-0.44582 0.0733,-0.97316 -0.0391,-2.12304 -0.11241,-1.14988 0.85118,-3.26584 -3.66211,-7.7793 z"
     id="path6835"
     inkscape:connector-curvature="0" />
  <path
     style="color:#000000;font-style:normal;font-variant:normal;font-weight:normal;font-stretch:normal;font-size:medium;line-height:normal;font-family:sans-serif;font-variant-ligatures:normal;font-variant-position:normal;font-variant-caps:normal;font-variant-numeric:normal;font-variant-alternates:normal;font-feature-settings:normal;text-indent:0;text-align:start;text-decoration:none;text-decoration-line:none;text-decoration-style:solid;text-decoration-color:#000000;letter-spacing:normal;word-spacing:normal;text-transform:none;writing-mode:lr-tb;direction:ltr;text-orientation:mixed;dominant-baseline:auto;baseline-shift:baseline;text-anchor:start;white-space:normal;shape-padding:0;clip-rule:nonzero;display:inline;overflow:visible;visibility:visible;opacity:1;isolation:auto;mix-blend-mode:normal;color-interpolation:sRGB;color-interpolation-filters:linearRGB;solid-color:#000000;solid-opacity:1;vector-effect:none;fill:#000000;fill-opacity:1;fill-rule:nonzero;stroke:none;stroke-width:18.9342556;stroke-linecap:butt;stroke-linejoin:miter;stroke-miterlimit:4;stroke-dasharray:none;stroke-dashoffset:0;stroke-opacity:1;color-rendering:auto;image-rendering:auto;shape-rendering:auto;text-rendering:auto;enable-background:accumulate"
     d="m 432.86133,496.14638 -16.6543,9.00586 c 0,0 8.26663,16.61218 1.94531,30.60938 -3.16065,6.9986 -9.75832,14.35291 -25.75586,20.07617 -15.99754,5.72326 -41.26652,9.24697 -79.2832,7.24609 l -0.99609,18.90821 c 39.59148,2.08376 67.11742,-1.33599 86.65625,-8.32618 19.53882,-6.99018 31.21768,-18.11635 36.63476,-30.11132 10.83417,-23.98995 -2.54687,-47.40821 -2.54687,-47.40821 z"
     id="path7380"
     inkscape:connector-curvature="0" />
  <path
     style="color:#000000;font-style:normal;font-variant:normal;font-weight:normal;font-stretch:normal;font-size:medium;line-height:normal;font-family:sans-serif;font-variant-ligatures:normal;font-variant-position:normal;font-variant-caps:normal;font-variant-numeric:normal;font-variant-alternates:normal;font-feature-settings:normal;text-indent:0;text-align:start;text-decoration:none;text-decoration-line:none;text-decoration-style:solid;text-decoration-color:#000000;letter-spacing:normal;word-spacing:normal;text-transform:none;writing-mode:lr-tb;direction:ltr;text-orientation:mixed;dominant-baseline:auto;baseline-shift:baseline;text-anchor:start;white-space:normal;shape-padding:0;clip-rule:nonzero;display:inline;overflow:visible;visibility:visible;opacity:1;isolation:auto;mix-blend-mode:normal;color-interpolation:sRGB;color-interpolation-filters:linearRGB;solid-color:#000000;solid-opacity:1;vector-effect:none;fill:#000000;fill-opacity:1;fill-rule:nonzero;stroke:none;stroke-width:25.24567604;stroke-linecap:butt;stroke-linejoin:miter;stroke-miterlimit:4;stroke-dasharray:none;stroke-dashoffset:0;stroke-opacity:1;color-rendering:auto;image-rendering:auto;shape-rendering:auto;text-rendering:auto;enable-background:accumulate"
     d="m 438.57617,625.36513 -22.66797,11.11133 c 11.09948,22.64412 5.46257,54.10981 -6.125,68.82227 -5.79378,7.35623 -11.36844,10.06444 -17.23437,9.4375 -5.86593,-0.62694 -14.98801,-5.45361 -25.53711,-21.42774 l -21.06641,13.91211 c 12.9765,19.64985 27.86059,30.90059 43.92188,32.61719 16.06128,1.7166 30.33386,-6.96501 39.74804,-18.91797 18.82837,-23.90592 25.04782,-62.73572 8.96094,-95.55469 z"
     id="path7391"
     inkscape:connector-curvature="0" />
  <path
     style="color:#000000;font-style:normal;font-variant:normal;font-weight:normal;font-stretch:normal;font-size:medium;line-height:normal;font-family:sans-serif;font-variant-ligatures:normal;font-variant-position:normal;font-variant-caps:normal;font-variant-numeric:normal;font-variant-alternates:normal;font-feature-settings:normal;text-indent:0;text-align:start;text-decoration:none;text-decoration-line:none;text-decoration-style:solid;text-decoration-color:#000000;letter-spacing:normal;word-spacing:normal;text-transform:none;writing-mode:lr-tb;direction:ltr;text-orientation:mixed;dominant-baseline:auto;baseline-shift:baseline;text-anchor:start;white-space:normal;shape-padding:0;clip-rule:nonzero;display:inline;overflow:visible;visibility:visible;opacity:1;isolation:auto;mix-blend-mode:normal;color-interpolation:sRGB;color-interpolation-filters:linearRGB;solid-color:#000000;solid-opacity:1;vector-effect:none;fill:#000000;fill-opacity:1;fill-rule:nonzero;stroke:none;stroke-width:18.9342556;stroke-linecap:butt;stroke-linejoin:miter;stroke-miterlimit:4;stroke-dasharray:none;stroke-dashoffset:0;stroke-opacity:1;color-rendering:auto;image-rendering:auto;shape-rendering:auto;text-rendering:auto;enable-background:accumulate"
     d="m 430.8125,640.85732 -76.63281,24.26758 1.72265,8.36133 c 5.13942,24.93866 12.09162,39.65355 24.00391,46.52539 5.95614,3.43592 13.10391,3.91503 19.02539,2.125 5.92148,-1.79004 10.82715,-5.33629 15.13477,-9.56836 8.61523,-8.46415 15.13885,-20.0403 19.20898,-31.53906 4.07013,-11.49877 6.91087,-22.70831 1.25195,-33.25196 z m -13.21484,24.04688 c -0.34147,2.93558 -0.91478,6.25514 -2.17188,9.80664 -3.20437,9.05285 -8.98252,18.8042 -14.6289,24.35156 -2.8232,2.77368 -5.5389,4.40362 -7.34376,4.94922 -1.80485,0.5456 -2.48773,0.51961 -4.08593,-0.40235 -2.74711,-1.58472 -8.26595,-9.33651 -12.75196,-25.72656 z"
     id="path7430"
     inkscape:connector-curvature="0" />
  <path
     style="color:#000000;font-style:normal;font-variant:normal;font-weight:normal;font-stretch:normal;font-size:medium;line-height:normal;font-family:sans-serif;font-variant-ligatures:normal;font-variant-position:normal;font-variant-caps:normal;font-variant-numeric:normal;font-variant-alternates:normal;font-feature-settings:normal;text-indent:0;text-align:start;text-decoration:none;text-decoration-line:none;text-decoration-style:solid;text-decoration-color:#000000;letter-spacing:normal;word-spacing:normal;text-transform:none;writing-mode:lr-tb;direction:ltr;text-orientation:mixed;dominant-baseline:auto;baseline-shift:baseline;text-anchor:start;white-space:normal;shape-padding:0;clip-rule:nonzero;display:inline;overflow:visible;visibility:visible;opacity:1;isolation:auto;mix-blend-mode:normal;color-interpolation:sRGB;color-interpolation-filters:linearRGB;solid-color:#000000;solid-opacity:1;vector-effect:none;fill:#000000;fill-opacity:1;fill-rule:nonzero;stroke:none;stroke-width:15.01540852;stroke-linecap:butt;stroke-linejoin:miter;stroke-miterlimit:4;stroke-dasharray:none;stroke-dashoffset:0;stroke-opacity:1;color-rendering:auto;image-rendering:auto;shape-rendering:auto;text-rendering:auto;enable-background:accumulate"
     d="M 262.06445,6.2948179 0.45117188,27.831928 0.546875,42.804588 146.36523,52.917868 37.193359,197.0917 l 217.158201,7.10156 1.34961,75.125 85.10742,-115.58985 -86.21289,-114.531252 -0.34961,65.306642 -79.22851,7.94922 z M 230.03516,23.997938 142.50195,140.80654 269.1875,128.0956 269.37305,93.794818 322.08984,163.82802 269.91797,234.68544 269.10742,189.6542 66.673828,183.0331 175.08984,39.859268 100.34375,34.673728 Z"
     id="path7403"
     inkscape:connector-curvature="0" />
  <path
     style="font-style:normal;font-weight:normal;font-size:233.33332825px;line-height:1.25;font-family:sans-serif;letter-spacing:0px;word-spacing:0px;fill:#000000;fill-opacity:1;stroke:none"
     d="m 248.62682,1080.3555 v 20.0527 H 348.77331 L 244.75182,1229.0371 V 1250 h 132.39063 v -20.0508 H 269.58971 L 374.63463,1100.75 v -20.3945 z"
     id="text2442"
     inkscape:connector-curvature="0" />
</svg>
