<?xml version="1.0" encoding="UTF-8" standalone="no"?>
<!-- Created with Inkscape (http://www.inkscape.org/) -->

<svg
   xmlns:dc="http://purl.org/dc/elements/1.1/"
   xmlns:cc="http://creativecommons.org/ns#"
   xmlns:rdf="http://www.w3.org/1999/02/22-rdf-syntax-ns#"
   xmlns:svg="http://www.w3.org/2000/svg"
   xmlns="http://www.w3.org/2000/svg"
   xmlns:sodipodi="http://sodipodi.sourceforge.net/DTD/sodipodi-0.dtd"
   xmlns:inkscape="http://www.inkscape.org/namespaces/inkscape"
   width="1000"
   height="1250"
   viewBox="0 0 1000 1250"
   version="1.1"
   id="svg2348"
   inkscape:version="0.92.4 (5da689c313, 2019-01-14)"
   sodipodi:docname="Ah (lembrar de algo).svg">
  <defs
     id="defs2342" />
  <sodipodi:namedview
     id="base"
     pagecolor="#ffffff"
     bordercolor="#666666"
     borderopacity="1.0"
     inkscape:pageopacity="0.0"
     inkscape:pageshadow="2"
     inkscape:zoom="0.35355339"
     inkscape:cx="-6.9442699"
     inkscape:cy="747.58377"
     inkscape:document-units="px"
     inkscape:current-layer="layer1"
     showgrid="false"
     inkscape:window-width="1366"
     inkscape:window-height="715"
     inkscape:window-x="-8"
     inkscape:window-y="-8"
     inkscape:window-maximized="1"
     units="px" />
  <metadata
     id="metadata2345">
    <rdf:RDF>
      <cc:Work
         rdf:about="">
        <dc:format>image/svg+xml</dc:format>
        <dc:type
           rdf:resource="http://purl.org/dc/dcmitype/StillImage" />
        <dc:title />
      </cc:Work>
    </rdf:RDF>
  </metadata>
  <g
     inkscape:label="Camada 1"
     inkscape:groupmode="layer"
     id="layer1"
     transform="translate(0,33.729184)">
    <path
       style="color:#000000;font-style:normal;font-variant:normal;font-weight:normal;font-stretch:normal;font-size:medium;line-height:normal;font-family:sans-serif;font-variant-ligatures:normal;font-variant-position:normal;font-variant-caps:normal;font-variant-numeric:normal;font-variant-alternates:normal;font-feature-settings:normal;text-indent:0;text-align:start;text-decoration:none;text-decoration-line:none;text-decoration-style:solid;text-decoration-color:#000000;letter-spacing:normal;word-spacing:normal;text-transform:none;writing-mode:lr-tb;direction:ltr;text-orientation:mixed;dominant-baseline:auto;baseline-shift:baseline;text-anchor:start;white-space:normal;shape-padding:0;clip-rule:nonzero;display:inline;overflow:visible;visibility:visible;opacity:1;isolation:auto;mix-blend-mode:normal;color-interpolation:sRGB;color-interpolation-filters:linearRGB;solid-color:#000000;solid-opacity:1;vector-effect:none;fill:#000000;fill-opacity:1;fill-rule:nonzero;stroke:none;stroke-width:12.48980713;stroke-linecap:butt;stroke-linejoin:miter;stroke-miterlimit:4;stroke-dasharray:none;stroke-dashoffset:0;stroke-opacity:1;color-rendering:auto;image-rendering:auto;shape-rendering:auto;text-rendering:auto;enable-background:accumulate"
       d="m 143.29102,413.12891 -0.0781,0.002 c 0,0 -7.51803,0.0165 -14.74609,4.64453 -6.22773,3.98754 -12.01113,12.03315 -12.69141,24.23828 -3.87627,-4.26839 -9.47246,-8.07667 -17.68164,-10.04687 l -0.595703,-0.14258 -0.611328,-0.0234 c 0,0 -7.398425,-0.3581 -15.230469,3.21094 -7.832044,3.56903 -16.453198,11.99824 -17.943359,26.52734 l -0.01953,0.19336 -0.0078,0.19336 c 0,0 -1.624222,40.00346 -1.291016,57.33008 -0.0029,0.19404 -0.241524,16.05084 -0.121093,34.91797 0.121164,18.98215 0.546295,40.5519 2.101562,52.64844 l 0.01172,0.0859 0.01367,0.0879 c 0,0 2.476054,15.73964 4.265625,32.28321 0.175336,1.62089 0.296224,3.20104 0.455078,4.82226 -0.774194,-4.96005 -1.640841,-10.02995 -2.564453,-14.39062 -0.958957,-4.52755 -1.646544,-7.92643 -3.328125,-11.13672 l 0.380859,0.88672 c 0,0 -5.15871,-14.86297 -6.427734,-50.31836 l -0.002,-0.0273 c -0.0013,-0.043 -0.317525,-10.68482 -2.564454,-22.17382 -1.125734,-5.75611 -2.706531,-11.7616 -5.230468,-17.07422 -2.49987,-5.26197 -6.066232,-10.31552 -12.082032,-12.39453 -0.364013,-0.15401 -6.888814,-2.87848 -14.982422,-1.42578 -8.321599,1.49361 -17.9212301,8.62813 -21.54492138,23.84765 l -0.109375,0.46289 -0.0390625,0.47461 c 0,0 -2.93101042,36.13907 3.88085938,96.14844 l 0.035156,0.30859 0.066406,0.30469 c 0,0 11.810794,56.29205 4.4628906,97.01172 l -0.044922,0.24609 -0.023438,0.24805 c 0,0 -6.2772742,62.25263 3.9355468,117.59961 l 0.04492,0.24805 0.06445,0.24218 c 0,0 1.699422,6.3108 3.72461,13.43946 1.770583,6.23244 3.608592,12.44339 5.144531,16.7207 -0.247103,1.07788 -0.609873,2.73751 -1.421875,5.71484 -0.51965,1.90538 -1.104719,3.88115 -1.642578,5.41602 -0.53786,1.53486 -1.384586,2.86584 -0.841797,2.16797 l 9.859375,7.66797 c 1.669127,-2.14603 2.070429,-3.71204 2.769531,-5.70703 0.699102,-1.995 1.339787,-4.18274 1.90625,-6.25977 1.132927,-4.15406 1.960937,-7.89063 1.960937,-7.89063 l 0.419922,-1.88281 -0.716796,-1.79101 c -0.947348,-2.36836 -3.426374,-10.53928 -5.423829,-17.57032 -1.95216,-6.87159 -3.519954,-12.69681 -3.59375,-12.9707 -9.690971,-52.73923 -3.759765,-113.91406 -3.759765,-113.91406 l -0.07031,0.49414 c 8.007193,-44.37323 -4.183667,-100.16306 -4.46289,-101.43164 -6.522437,-57.58318 -3.978026,-91.39949 -3.855469,-92.95703 2.82009,-11.42631 7.305528,-13.34601 11.482422,-14.09571 4.229032,-0.75905 8.265625,0.75391 8.265625,0.75391 l 0.199219,0.082 0.203124,0.0684 c 1.118938,0.37298 3.117863,2.21394 4.908204,5.98242 1.79034,3.76848 3.247641,8.96609 4.253906,14.11133 2.012531,10.29048 2.339844,20.19531 2.339844,20.19531 v 0.0137 l 0.002,0.0137 c 1.307391,36.60728 7.085937,53.92187 7.085937,53.92187 l 0.15625,0.45899 0.22461,0.42773 c 0.08837,0.16871 1.290479,3.76834 2.171875,7.92969 0.881395,4.16135 1.763977,9.26804 2.537109,14.26367 0.773132,4.99563 1.440518,9.8928 1.910156,13.68945 0.234819,1.89833 0.421271,3.52426 0.544922,4.72852 0.123651,1.20426 0.167969,2.31467 0.167969,1.86719 v 0.29882 l 0.02734,0.29883 c 0.45184,4.6991 1.290336,8.14811 2.912109,11.03125 1.621773,2.88315 4.63074,5.19383 7.642578,5.64844 6.023676,0.90923 9.214844,-3.01953 9.214844,-3.01953 l 0.394531,-0.36133 0.326172,-0.42383 c 2.343202,-3.03237 2.351893,-5.38339 2.648437,-8.23437 0.296545,-2.85098 0.34457,-6.10442 0.257813,-9.73242 -0.173513,-7.25602 -0.924441,-15.95364 -1.839844,-24.41602 -1.815044,-16.77905 -4.275695,-32.43768 -4.318359,-32.70898 v -0.002 c -1.340901,-10.43077 -1.879808,-32.30299 -2,-51.13281 -0.120198,-18.83063 0.11914,-34.86328 0.11914,-34.86328 l 0.002,-0.10742 -0.002,-0.10743 c -0.308266,-16.02975 1.251647,-55.72708 1.273438,-56.28124 1.102342,-10.50107 5.814414,-14.14034 10.679688,-16.35743 4.395729,-2.00312 8.171936,-2.05525 8.966796,-2.05468 9.825126,2.53036 12.405386,6.70864 13.601566,10.37695 1.22575,3.75899 0.48242,6.92773 0.48242,6.92773 l 0.0371,-0.14257 c -2.26513,8.2369 -2.07719,19.68621 -1.79102,29.98828 0.14309,5.15103 0.37852,9.9056 0.53321,13.39843 0.0773,1.74642 0.13321,3.1878 0.15039,4.125 0.001,0.0686 -7.6e-4,0.0715 0,0.13477 l -0.0606,0.12109 -0.0195,1.42774 c -0.33854,23.69722 5.54101,61.53125 5.54101,61.53125 l 0.0703,0.46289 0.13867,0.44726 c 1.10217,3.55144 2.51492,12.45651 3.42578,19.94141 0.89375,7.3443 1.41904,13.33631 1.43945,13.56836 -0.93237,21.79129 -0.42199,33.58883 0.45899,40.24023 0.44521,3.36139 0.95862,5.44878 1.625,7.10547 0.33319,0.82835 0.70932,1.56 1.24218,2.27149 0.26644,0.35574 0.57488,0.7059 0.94141,1.03711 0.36653,0.33121 1.27149,0.90039 1.27148,0.90039 l 3.22461,1.73633 3.08985,-1.96485 c 2.72555,-1.73443 3.23042,-3.76156 3.67578,-5.30078 0.44536,-1.53922 0.62449,-2.98355 0.74219,-4.51367 0.2354,-3.06024 0.14104,-6.42536 -0.0488,-9.69531 -0.37974,-6.53992 -1.21094,-12.66211 -1.21094,-12.66211 l -0.0254,-0.1836 -0.0352,-0.18164 c -1.37609,-7.01804 -2.22154,-23.58117 -2.54101,-37.75781 -0.31802,-14.11249 -0.23899,-26.09971 -0.23828,-26.20899 1.95595,-19.44153 1.28539,-47.58967 1.28515,-47.5996 v -0.006 c -0.16738,-7.85961 -1.05442,-24.11455 -2.02343,-38.73047 -0.48458,-7.30907 -0.98845,-14.17222 -1.4375,-19.32617 -0.22453,-2.57698 -0.43397,-4.71609 -0.63086,-6.3418 -0.0985,-0.81286 -0.19029,-1.48492 -0.30664,-2.12891 -0.0294,-0.16274 -0.0817,-0.36552 -0.11914,-0.53906 -0.84562,-11.89186 3.00771,-15.98764 6.91015,-18.48633 3.90312,-2.49911 8.00679,-2.66193 8.11524,-2.66601 5.36854,0.0836 8.82437,2.32085 12.11523,6.56054 3.30992,4.26424 5.87912,10.61059 7.5625,17.17578 3.36677,13.1304 3.3457,26.61329 3.3457,26.61329 l -0.002,0.29492 0.0254,0.29297 c 1.30806,14.71567 8.04754,81.12233 8.05078,81.15429 0.5079,5.21086 0.45394,27.16471 0.13282,46.71289 -0.32116,19.55031 -0.80469,37.4668 -0.80469,37.4668 v 0.002 0.002 c -0.20854,7.92457 3.74996,13.79531 7.77148,16.51758 4.02152,2.72226 8.20508,3.05859 8.20508,3.05859 l 1.24805,0.11523 1.19726,-0.3789 c 4.99863,-1.57849 6.43402,-5.38658 7.64453,-8.57618 1.21052,-3.18959 1.93179,-6.64284 2.47266,-9.9746 1.08095,-6.65861 1.32191,-12.88143 1.32227,-12.89063 v -0.006 c 1.24002,-30.04405 11.35351,-66.13086 11.35351,-66.13086 l 0.0391,-0.14062 0.0332,-0.14258 c 4.90557,-21.02396 7.23437,-68.3418 7.23437,-68.3418 l 0.004,-0.0469 0.002,-0.0488 c 0.75918,-19.73848 6.24229,-25.84738 10.05664,-28.07031 3.81435,-2.22294 7.07617,-1.24414 7.07617,-1.24414 l 0.19922,0.0566 0.20117,0.043 c 4.9182,1.06918 8.12558,4.64749 10.71289,11.29688 2.58732,6.64939 3.85577,15.83548 4.16407,24.96875 0.61659,18.26654 -2.33203,36.08789 -2.33203,36.08789 l -0.17969,1.08203 0.19726,1.07813 c 1.03119,5.61426 0.3094,25.27273 -1.08789,42.08008 -1.39728,16.80734 -3.15429,31.68359 -3.15429,31.68359 l -0.0449,0.36523 v 0.36914 c 0,0.71658 -0.53263,7.19292 -1.09179,12.54493 -0.55831,5.34382 -1.11548,10.20384 -1.11719,10.21875 0,2e-5 -0.002,0.0156 -0.002,0.0156 -5.22005,25.82649 -5.51172,54.38477 -5.51172,54.38477 l -0.01,0.86523 0.22657,0.83789 c 1.73639,6.41132 2.19365,17.39063 1.99804,26.38867 -0.19561,8.99804 -0.89648,16.09571 -0.89648,16.09571 l -0.15821,1.58203 0.6211,1.46484 c 1.04436,2.46847 3.6583,13.56074 5.44922,22.95313 1.79091,9.39238 3.14844,17.76953 3.14844,17.76953 l 12.21289,0.55664 c 1.14289,-4.44461 5.91433,-16.37874 10.26562,-26.47852 4.35129,-10.09977 8.34766,-18.81445 8.34766,-18.81445 l 0.57031,-1.23828 v -1.36524 c 0,-5.37669 2.46407,-12.30315 5.13281,-17.64062 2.66874,-5.33748 5.27539,-8.96094 5.27539,-8.96094 l 0.043,-0.0606 0.043,-0.0605 c 16.17221,-23.63631 29.79727,-31.5471 38.6875,-34.03906 4.44512,-1.24599 7.78945,-1.16959 9.95703,-0.86524 2.13585,0.2999 2.62372,0.60798 2.63867,0.61719 6.78306,3.48026 7.8461,7.84176 7.99805,12.46094 0.14552,4.42396 -1.16746,7.99436 -1.29297,8.33007 -11.29291,18.16821 -13.27453,32.55055 -13.55664,35.19727 -2.90012,9.99514 -15.42431,40.08148 -15.64258,40.60547 -5.81184,8.41529 -9.94378,20.23473 -13.05078,30.51172 -3.21766,10.64302 -5.11523,19.48242 -5.11523,19.48242 l -0.0566,0.25976 -0.0332,0.26563 c -2.24826,17.70513 -12.2598,30.18527 -12.86328,30.92578 -3.964,3.13665 -7.55182,7.61099 -10.86523,11.81055 -3.57238,4.52777 -6.38867,8.5039 -6.38867,8.5039 l -0.0899,0.12891 -0.0859,0.13477 c -18.80891,29.62402 -39.10401,46.97132 -54.58789,56.94726 -15.48388,9.97594 -25.63672,12.42383 -25.63672,12.42383 l 0.81446,-0.14649 c -3.93336,0.43704 -6.05258,2.13419 -8.61328,3.9336 -2.56071,1.79941 -5.1251,3.95426 -7.48633,6.0625 -4.72246,4.21647 -8.63477,8.30078 -8.63477,8.30078 l 9.01368,8.64648 c 0,0 3.6512,-3.80206 7.93945,-7.63086 2.14412,-1.91439 4.44519,-3.82191 6.34961,-5.16015 1.90442,-1.33824 3.8476,-1.85351 2.81054,-1.73828 l 0.41211,-0.0449 0.4043,-0.10157 c 0,0 12.53446,-3.18359 29.39258,-14.04492 16.85811,-10.86133 38.55878,-29.55566 58.36719,-60.7539 l -0.17578,0.26367 c 0,0 2.65343,-3.74672 6,-7.98828 3.34656,-4.24157 7.84117,-9.14095 9.29296,-10.18946 l 0.62696,-0.45312 0.49804,-0.5918 c 0,0 13.06466,-15.36528 15.89649,-37.66601 l -0.0899,0.52539 c 0,0 1.80173,-8.37646 4.85938,-18.49024 3.05765,-10.11378 7.63387,-22.03416 11.78516,-27.74219 l 0.42382,-0.58398 0.28125,-0.66602 c 0,0 12.7333,-29.92002 16.33985,-42.54296 l 0.18359,-0.64258 0.043,-0.66602 c 0,0 0.70194,-12.96245 12.23828,-31.17773 l 0.30469,-0.47852 0.21094,-0.52734 c 0,0 2.50954,-6.04935 2.25976,-13.64258 -0.24977,-7.59323 -4.01962,-17.69632 -14.87109,-23.2207 l -0.0488,-0.0234 -0.0488,-0.0254 c 0,0 -2.70859,-1.24729 -6.41406,-1.76758 -3.70547,-0.52029 -8.88981,-0.52374 -15.06445,1.20703 -12.33799,3.45838 -28.30025,13.72085 -45.57813,38.94922 -0.0616,0.0857 -3.17825,4.42683 -6.27148,10.61328 -2.9242,5.8484 -5.92192,13.42986 -6.30664,21.57617 -0.37566,0.82035 -3.84569,8.38464 -8.04297,18.12696 -0.93786,2.17687 -1.80246,4.34295 -2.73633,6.55664 -1.43994,-7.44263 -2.95968,-14.6682 -4.82227,-19.70313 0.10893,-1.15005 0.6842,-6.89665 0.87305,-15.58398 0.19802,-9.10884 -0.0204,-19.89138 -2.1875,-28.73047 0.0118,-0.81726 0.42238,-28.17328 5.32031,-52.05078 l 0.0547,-0.26953 0.0312,-0.27344 c 0,0 0.56564,-4.93267 1.13281,-10.36133 0.56718,-5.42865 1.16016,-10.69664 1.16016,-13.8418 l -0.043,0.73243 c 0,0 1.78066,-15.05198 3.19922,-32.11524 1.36676,-16.44019 2.62222,-33.72568 1.04883,-44.06055 0.20999,-1.26985 3.03531,-18.56799 2.38867,-37.7246 -0.33533,-9.93404 -1.56117,-20.21635 -5.00781,-29.07422 -3.42191,-8.7943 -9.73011,-16.69595 -19.49414,-18.91211 -0.54036,-0.14506 -8.56841,-2.19801 -16.62305,2.49609 -8.33401,4.85691 -15.40011,16.28392 -16.25,38.38086 -0.01,0.1712 -2.82037,48.47978 -6.91602,66.05664 -0.21246,0.74568 -10.42635,36.71445 -11.74804,68.76563 v 0.002 0.002 c 0,0 -0.2423,5.6742 -1.17188,11.40039 -0.43951,2.7074 -1.07098,5.31064 -1.7207,7.13477 -1.09133,-0.75704 -2.10447,-1.63541 -2.00195,-5.5625 v -0.002 c 2e-5,-8.1e-4 -3e-5,-0.001 0,-0.002 1e-4,-0.004 0.48225,-17.96561 0.80468,-37.59375 0.32247,-19.63018 0.58971,-40.1483 -0.18945,-48.13476 v -0.0117 l -0.002,-0.0137 c 0,0 -6.771,-66.77382 -8.03711,-81.01758 l 0.0234,0.58789 c 0,0 0.1396,-14.67664 -3.73437,-29.78516 -1.93699,-7.55426 -4.83832,-15.34673 -9.79492,-21.73242 -4.9566,-6.38569 -12.5504,-11.29842 -21.93164,-11.40039 z"
       id="path2361"
       inkscape:connector-curvature="0" />
    <path
       style="color:#000000;font-style:normal;font-variant:normal;font-weight:normal;font-stretch:normal;font-size:medium;line-height:normal;font-family:sans-serif;font-variant-ligatures:normal;font-variant-position:normal;font-variant-caps:normal;font-variant-numeric:normal;font-variant-alternates:normal;font-feature-settings:normal;text-indent:0;text-align:start;text-decoration:none;text-decoration-line:none;text-decoration-style:solid;text-decoration-color:#000000;letter-spacing:normal;word-spacing:normal;text-transform:none;writing-mode:lr-tb;direction:ltr;text-orientation:mixed;dominant-baseline:auto;baseline-shift:baseline;text-anchor:start;white-space:normal;shape-padding:0;clip-rule:nonzero;display:inline;overflow:visible;visibility:visible;opacity:1;isolation:auto;mix-blend-mode:normal;color-interpolation:sRGB;color-interpolation-filters:linearRGB;solid-color:#000000;solid-opacity:1;vector-effect:none;fill:#000000;fill-opacity:1;fill-rule:nonzero;stroke:none;stroke-width:12.48980713;stroke-linecap:butt;stroke-linejoin:miter;stroke-miterlimit:4;stroke-dasharray:none;stroke-dashoffset:0;stroke-opacity:1;color-rendering:auto;image-rendering:auto;shape-rendering:auto;text-rendering:auto;enable-background:accumulate"
       d="m 251.79883,775.23438 c 0,0 -5.22034,7.54784 -6.5,19.38476 -1.27967,11.83692 1.23175,28.4321 14.5664,47.06641 l 10.15625,-7.26953 c -11.76661,-16.44308 -13.27769,-29.45473 -12.30468,-38.45508 0.97301,-9.00035 4.28125,-13.51953 4.28125,-13.51953 z"
       id="path2363"
       inkscape:connector-curvature="0" />
    <path
       style="color:#000000;font-style:normal;font-variant:normal;font-weight:normal;font-stretch:normal;font-size:medium;line-height:normal;font-family:sans-serif;font-variant-ligatures:normal;font-variant-position:normal;font-variant-caps:normal;font-variant-numeric:normal;font-variant-alternates:normal;font-feature-settings:normal;text-indent:0;text-align:start;text-decoration:none;text-decoration-line:none;text-decoration-style:solid;text-decoration-color:#000000;letter-spacing:normal;word-spacing:normal;text-transform:none;writing-mode:lr-tb;direction:ltr;text-orientation:mixed;dominant-baseline:auto;baseline-shift:baseline;text-anchor:start;white-space:normal;shape-padding:0;clip-rule:nonzero;display:inline;overflow:visible;visibility:visible;opacity:1;isolation:auto;mix-blend-mode:normal;color-interpolation:sRGB;color-interpolation-filters:linearRGB;solid-color:#000000;solid-opacity:1;vector-effect:none;fill:#000000;fill-opacity:1;fill-rule:nonzero;stroke:none;stroke-width:12.48980713;stroke-linecap:butt;stroke-linejoin:miter;stroke-miterlimit:4;stroke-dasharray:none;stroke-dashoffset:0;stroke-opacity:1;color-rendering:auto;image-rendering:auto;shape-rendering:auto;text-rendering:auto;enable-background:accumulate"
       d="m 281.64453,730.08203 -11.51758,4.83008 c 0,0 10.18294,23.47519 36.77735,25.69141 l 1.03711,-12.44727 c -19.74637,-1.64554 -26.29688,-18.07422 -26.29688,-18.07422 z"
       id="path2365"
       inkscape:connector-curvature="0" />
    <path
       style="color:#000000;font-style:normal;font-variant:normal;font-weight:normal;font-stretch:normal;font-size:medium;line-height:normal;font-family:sans-serif;font-variant-ligatures:normal;font-variant-position:normal;font-variant-caps:normal;font-variant-numeric:normal;font-variant-alternates:normal;font-feature-settings:normal;text-indent:0;text-align:start;text-decoration:none;text-decoration-line:none;text-decoration-style:solid;text-decoration-color:#000000;letter-spacing:normal;word-spacing:normal;text-transform:none;writing-mode:lr-tb;direction:ltr;text-orientation:mixed;dominant-baseline:auto;baseline-shift:baseline;text-anchor:start;white-space:normal;shape-padding:0;clip-rule:nonzero;display:inline;overflow:visible;visibility:visible;opacity:1;isolation:auto;mix-blend-mode:normal;color-interpolation:sRGB;color-interpolation-filters:linearRGB;solid-color:#000000;solid-opacity:1;vector-effect:none;fill:#000000;fill-opacity:1;fill-rule:nonzero;stroke:none;stroke-width:12.48980713;stroke-linecap:butt;stroke-linejoin:miter;stroke-miterlimit:4;stroke-dasharray:none;stroke-dashoffset:0;stroke-opacity:1;color-rendering:auto;image-rendering:auto;shape-rendering:auto;text-rendering:auto;enable-background:accumulate"
       d="m 217.04102,590.05859 -5.24414,11.33594 c 0,0 5.7033,2.64684 12.77343,4.875 7.07013,2.22816 15.26925,4.74966 23.30274,2.1582 l -3.83399,-11.88671 c -1.94263,0.62665 -9.51026,-0.22822 -15.71484,-2.1836 -6.20458,-1.95538 -11.2832,-4.29883 -11.2832,-4.29883 z"
       id="path2367"
       inkscape:connector-curvature="0" />
    <path
       style="color:#000000;font-style:normal;font-variant:normal;font-weight:normal;font-stretch:normal;font-size:medium;line-height:normal;font-family:sans-serif;font-variant-ligatures:normal;font-variant-position:normal;font-variant-caps:normal;font-variant-numeric:normal;font-variant-alternates:normal;font-feature-settings:normal;text-indent:0;text-align:start;text-decoration:none;text-decoration-line:none;text-decoration-style:solid;text-decoration-color:#000000;letter-spacing:normal;word-spacing:normal;text-transform:none;writing-mode:lr-tb;direction:ltr;text-orientation:mixed;dominant-baseline:auto;baseline-shift:baseline;text-anchor:start;white-space:normal;shape-padding:0;clip-rule:nonzero;display:inline;overflow:visible;visibility:visible;opacity:1;isolation:auto;mix-blend-mode:normal;color-interpolation:sRGB;color-interpolation-filters:linearRGB;solid-color:#000000;solid-opacity:1;vector-effect:none;fill:#000000;fill-opacity:1;fill-rule:nonzero;stroke:none;stroke-width:12.48980713;stroke-linecap:butt;stroke-linejoin:miter;stroke-miterlimit:4;stroke-dasharray:none;stroke-dashoffset:0;stroke-opacity:1;color-rendering:auto;image-rendering:auto;shape-rendering:auto;text-rendering:auto;enable-background:accumulate"
       d="m 227.39062,526.04297 -5.34765,11.28711 c 0,0 13.37503,6.79454 27.9707,4.0332 l -2.32226,-12.27344 c -9.21835,1.74401 -20.30079,-3.04687 -20.30079,-3.04687 z"
       id="path2369"
       inkscape:connector-curvature="0" />
    <path
       style="color:#000000;font-style:normal;font-variant:normal;font-weight:normal;font-stretch:normal;font-size:medium;line-height:normal;font-family:sans-serif;font-variant-ligatures:normal;font-variant-position:normal;font-variant-caps:normal;font-variant-numeric:normal;font-variant-alternates:normal;font-feature-settings:normal;text-indent:0;text-align:start;text-decoration:none;text-decoration-line:none;text-decoration-style:solid;text-decoration-color:#000000;letter-spacing:normal;word-spacing:normal;text-transform:none;writing-mode:lr-tb;direction:ltr;text-orientation:mixed;dominant-baseline:auto;baseline-shift:baseline;text-anchor:start;white-space:normal;shape-padding:0;clip-rule:nonzero;display:inline;overflow:visible;visibility:visible;opacity:1;isolation:auto;mix-blend-mode:normal;color-interpolation:sRGB;color-interpolation-filters:linearRGB;solid-color:#000000;solid-opacity:1;vector-effect:none;fill:#000000;fill-opacity:1;fill-rule:nonzero;stroke:none;stroke-width:12.48980713;stroke-linecap:butt;stroke-linejoin:miter;stroke-miterlimit:4;stroke-dasharray:none;stroke-dashoffset:0;stroke-opacity:1;color-rendering:auto;image-rendering:auto;shape-rendering:auto;text-rendering:auto;enable-background:accumulate"
       d="m 161.12695,483.6543 c -1.23111,0.8029 -7.66596,2.1338 -13.16797,2.24609 -5.502,0.11229 -10.17187,-0.33398 -10.17187,-0.33398 l -1.20313,12.43164 c 0,0 5.30436,0.5197 11.62891,0.39062 6.32455,-0.12907 13.56579,-0.24722 19.73633,-4.27148 z"
       id="path2371"
       inkscape:connector-curvature="0" />
    <path
       style="color:#000000;font-style:normal;font-variant:normal;font-weight:normal;font-stretch:normal;font-size:medium;line-height:normal;font-family:sans-serif;font-variant-ligatures:normal;font-variant-position:normal;font-variant-caps:normal;font-variant-numeric:normal;font-variant-alternates:normal;font-feature-settings:normal;text-indent:0;text-align:start;text-decoration:none;text-decoration-line:none;text-decoration-style:solid;text-decoration-color:#000000;letter-spacing:normal;word-spacing:normal;text-transform:none;writing-mode:lr-tb;direction:ltr;text-orientation:mixed;dominant-baseline:auto;baseline-shift:baseline;text-anchor:start;white-space:normal;shape-padding:0;clip-rule:nonzero;display:inline;overflow:visible;visibility:visible;opacity:1;isolation:auto;mix-blend-mode:normal;color-interpolation:sRGB;color-interpolation-filters:linearRGB;solid-color:#000000;solid-opacity:1;vector-effect:none;fill:#000000;fill-opacity:1;fill-rule:nonzero;stroke:none;stroke-width:12.48980713;stroke-linecap:butt;stroke-linejoin:miter;stroke-miterlimit:4;stroke-dasharray:none;stroke-dashoffset:0;stroke-opacity:1;color-rendering:auto;image-rendering:auto;shape-rendering:auto;text-rendering:auto;enable-background:accumulate"
       d="m 168.79102,564.34375 c -9.00399,2.81377 -16.51139,1.99773 -27.85547,1.02539 l -1.06641,12.44336 c 11.1827,0.9585 21.05457,2.07563 32.64648,-1.54688 z"
       id="path2373"
       inkscape:connector-curvature="0" />
    <path
       style="color:#000000;font-style:normal;font-variant:normal;font-weight:normal;font-stretch:normal;font-size:medium;line-height:normal;font-family:sans-serif;font-variant-ligatures:normal;font-variant-position:normal;font-variant-caps:normal;font-variant-numeric:normal;font-variant-alternates:normal;font-feature-settings:normal;text-indent:0;text-align:start;text-decoration:none;text-decoration-line:none;text-decoration-style:solid;text-decoration-color:#000000;letter-spacing:normal;word-spacing:normal;text-transform:none;writing-mode:lr-tb;direction:ltr;text-orientation:mixed;dominant-baseline:auto;baseline-shift:baseline;text-anchor:start;white-space:normal;shape-padding:0;clip-rule:nonzero;display:inline;overflow:visible;visibility:visible;opacity:1;isolation:auto;mix-blend-mode:normal;color-interpolation:sRGB;color-interpolation-filters:linearRGB;solid-color:#000000;solid-opacity:1;vector-effect:none;fill:#000000;fill-opacity:1;fill-rule:nonzero;stroke:none;stroke-width:12.48980713;stroke-linecap:butt;stroke-linejoin:miter;stroke-miterlimit:4;stroke-dasharray:none;stroke-dashoffset:0;stroke-opacity:1;color-rendering:auto;image-rendering:auto;shape-rendering:auto;text-rendering:auto;enable-background:accumulate"
       d="m 102.13867,510.36914 c -3.325244,1.71626 -8.912092,2.34709 -13.554686,2.20313 -4.642593,-0.14397 -8.076172,-0.8418 -8.076172,-0.8418 l -2.498046,12.23633 c 0,0 4.451685,0.91198 10.1875,1.08984 5.735815,0.17786 13.019014,-0.15711 19.669924,-3.58984 z"
       id="path2375"
       inkscape:connector-curvature="0" />
    <path
       style="color:#000000;font-style:normal;font-variant:normal;font-weight:normal;font-stretch:normal;font-size:medium;line-height:normal;font-family:sans-serif;font-variant-ligatures:normal;font-variant-position:normal;font-variant-caps:normal;font-variant-numeric:normal;font-variant-alternates:normal;font-feature-settings:normal;text-indent:0;text-align:start;text-decoration:none;text-decoration-line:none;text-decoration-style:solid;text-decoration-color:#000000;letter-spacing:normal;word-spacing:normal;text-transform:none;writing-mode:lr-tb;direction:ltr;text-orientation:mixed;dominant-baseline:auto;baseline-shift:baseline;text-anchor:start;white-space:normal;shape-padding:0;clip-rule:nonzero;display:inline;overflow:visible;visibility:visible;opacity:1;isolation:auto;mix-blend-mode:normal;color-interpolation:sRGB;color-interpolation-filters:linearRGB;solid-color:#000000;solid-opacity:1;vector-effect:none;fill:#000000;fill-opacity:1;fill-rule:nonzero;stroke:none;stroke-width:12.48980713;stroke-linecap:butt;stroke-linejoin:miter;stroke-miterlimit:4;stroke-dasharray:none;stroke-dashoffset:0;stroke-opacity:1;color-rendering:auto;image-rendering:auto;shape-rendering:auto;text-rendering:auto;enable-background:accumulate"
       d="m 109.46875,587.63281 c -3.80231,3.04185 -8.84688,3.47728 -13.792969,2.86328 -2.473045,-0.30699 -4.798945,-0.87046 -6.673828,-1.38476 -0.937442,-0.25716 -1.754811,-0.49954 -2.507812,-0.70899 -0.753002,-0.20944 -0.81648,-0.52929 -3.052735,-0.52929 v 12.49023 c -1.753538,0 -0.870647,-0.0879 -0.294922,0.0723 0.575726,0.16013 1.471877,0.42474 2.550782,0.7207 2.157808,0.59192 5.079678,1.3173 8.439453,1.73437 6.719551,0.83415 15.673701,0.463 23.134761,-5.50585 z"
       id="path2377"
       inkscape:connector-curvature="0" />
    <path
       style="color:#000000;font-style:normal;font-variant:normal;font-weight:normal;font-stretch:normal;font-size:medium;line-height:normal;font-family:sans-serif;font-variant-ligatures:normal;font-variant-position:normal;font-variant-caps:normal;font-variant-numeric:normal;font-variant-alternates:normal;font-feature-settings:normal;text-indent:0;text-align:start;text-decoration:none;text-decoration-line:none;text-decoration-style:solid;text-decoration-color:#000000;letter-spacing:normal;word-spacing:normal;text-transform:none;writing-mode:lr-tb;direction:ltr;text-orientation:mixed;dominant-baseline:auto;baseline-shift:baseline;text-anchor:start;white-space:normal;shape-padding:0;clip-rule:nonzero;display:inline;overflow:visible;visibility:visible;opacity:1;isolation:auto;mix-blend-mode:normal;color-interpolation:sRGB;color-interpolation-filters:linearRGB;solid-color:#000000;solid-opacity:1;vector-effect:none;fill:#000000;fill-opacity:1;fill-rule:nonzero;stroke:none;stroke-width:12.48980713;stroke-linecap:butt;stroke-linejoin:miter;stroke-miterlimit:4;stroke-dasharray:none;stroke-dashoffset:0;stroke-opacity:1;color-rendering:auto;image-rendering:auto;shape-rendering:auto;text-rendering:auto;enable-background:accumulate"
       d="m 40.224609,582.52148 c -1.142097,0.62297 -6.877147,1.48047 -11.701171,1.33204 -4.824025,-0.14844 -8.84961,-0.74024 -8.84961,-0.74024 l -1.830078,12.35547 c 0,0 4.662042,0.69576 10.296875,0.86914 5.634833,0.17338 12.128675,0.38721 18.066406,-2.85156 z"
       id="path2379"
       inkscape:connector-curvature="0" />
    <path
       style="color:#000000;font-style:normal;font-variant:normal;font-weight:normal;font-stretch:normal;font-size:medium;line-height:normal;font-family:sans-serif;font-variant-ligatures:normal;font-variant-position:normal;font-variant-caps:normal;font-variant-numeric:normal;font-variant-alternates:normal;font-feature-settings:normal;text-indent:0;text-align:start;text-decoration:none;text-decoration-line:none;text-decoration-style:solid;text-decoration-color:#000000;letter-spacing:normal;word-spacing:normal;text-transform:none;writing-mode:lr-tb;direction:ltr;text-orientation:mixed;dominant-baseline:auto;baseline-shift:baseline;text-anchor:start;white-space:normal;shape-padding:0;clip-rule:nonzero;display:inline;overflow:visible;visibility:visible;opacity:1;isolation:auto;mix-blend-mode:normal;color-interpolation:sRGB;color-interpolation-filters:linearRGB;solid-color:#000000;solid-opacity:1;vector-effect:none;fill:#000000;fill-opacity:1;fill-rule:nonzero;stroke:none;stroke-width:12.48980713;stroke-linecap:butt;stroke-linejoin:miter;stroke-miterlimit:4;stroke-dasharray:none;stroke-dashoffset:0;stroke-opacity:1;color-rendering:auto;image-rendering:auto;shape-rendering:auto;text-rendering:auto;enable-background:accumulate"
       d="m 46.771484,631.625 c -5.977268,5.35892 -20.71875,3.66602 -20.71875,3.66602 l -2.359375,12.26562 c 0,0 18.726265,4.74438 31.414063,-6.63086 z"
       id="path2381"
       inkscape:connector-curvature="0" />
    <path
       style="color:#000000;font-style:normal;font-variant:normal;font-weight:normal;font-stretch:normal;font-size:medium;line-height:normal;font-family:sans-serif;font-variant-ligatures:normal;font-variant-position:normal;font-variant-caps:normal;font-variant-numeric:normal;font-variant-alternates:normal;font-feature-settings:normal;text-indent:0;text-align:start;text-decoration:none;text-decoration-line:none;text-decoration-style:solid;text-decoration-color:#000000;letter-spacing:normal;word-spacing:normal;text-transform:none;writing-mode:lr-tb;direction:ltr;text-orientation:mixed;dominant-baseline:auto;baseline-shift:baseline;text-anchor:start;white-space:normal;shape-padding:0;clip-rule:nonzero;display:inline;overflow:visible;visibility:visible;opacity:1;isolation:auto;mix-blend-mode:normal;color-interpolation:sRGB;color-interpolation-filters:linearRGB;solid-color:#000000;solid-opacity:1;vector-effect:none;fill:#000000;fill-opacity:1;fill-rule:nonzero;stroke:none;stroke-width:12.48980713;stroke-linecap:butt;stroke-linejoin:miter;stroke-miterlimit:4;stroke-dasharray:none;stroke-dashoffset:0;stroke-opacity:1;color-rendering:auto;image-rendering:auto;shape-rendering:auto;text-rendering:auto;enable-background:accumulate"
       d="m 156.45312,720.54102 c -45.87745,36.70197 -111.193354,32.7539 -111.193354,32.7539 l -0.835938,12.46094 c 0,0 69.166212,5.06977 119.832032,-35.46289 z"
       id="path2383"
       inkscape:connector-curvature="0" />
    <path
       style="color:#000000;font-style:normal;font-variant:normal;font-weight:normal;font-stretch:normal;font-size:medium;line-height:normal;font-family:sans-serif;font-variant-ligatures:normal;font-variant-position:normal;font-variant-caps:normal;font-variant-numeric:normal;font-variant-alternates:normal;font-feature-settings:normal;text-indent:0;text-align:start;text-decoration:none;text-decoration-line:none;text-decoration-style:solid;text-decoration-color:#000000;letter-spacing:normal;word-spacing:normal;text-transform:none;writing-mode:lr-tb;direction:ltr;text-orientation:mixed;dominant-baseline:auto;baseline-shift:baseline;text-anchor:start;white-space:normal;shape-padding:0;clip-rule:nonzero;display:inline;overflow:visible;visibility:visible;opacity:1;isolation:auto;mix-blend-mode:normal;color-interpolation:sRGB;color-interpolation-filters:linearRGB;solid-color:#000000;solid-opacity:1;vector-effect:none;fill:#000000;fill-opacity:1;fill-rule:nonzero;stroke:none;stroke-width:12.48980713;stroke-linecap:butt;stroke-linejoin:miter;stroke-miterlimit:4;stroke-dasharray:none;stroke-dashoffset:0;stroke-opacity:1;color-rendering:auto;image-rendering:auto;shape-rendering:auto;text-rendering:auto;enable-background:accumulate"
       d="m 219.79492,724.87891 c -42.91265,12.16681 -70.78391,30.71237 -87.91015,46.37304 -17.12625,15.66068 -23.79297,28.95899 -23.79297,28.95899 l 11.20117,5.52539 c 0,0 5.2406,-10.83893 21.01953,-25.26758 15.77893,-14.42865 41.81062,-31.92506 82.89062,-43.57227 z"
       id="path2385"
       inkscape:connector-curvature="0" />
    <path
       style="color:#000000;font-style:normal;font-variant:normal;font-weight:normal;font-stretch:normal;font-size:medium;line-height:normal;font-family:sans-serif;font-variant-ligatures:normal;font-variant-position:normal;font-variant-caps:normal;font-variant-numeric:normal;font-variant-alternates:normal;font-feature-settings:normal;text-indent:0;text-align:start;text-decoration:none;text-decoration-line:none;text-decoration-style:solid;text-decoration-color:#000000;letter-spacing:normal;word-spacing:normal;text-transform:none;writing-mode:lr-tb;direction:ltr;text-orientation:mixed;dominant-baseline:auto;baseline-shift:baseline;text-anchor:start;white-space:normal;shape-padding:0;clip-rule:nonzero;display:inline;overflow:visible;visibility:visible;opacity:1;isolation:auto;mix-blend-mode:normal;color-interpolation:sRGB;color-interpolation-filters:linearRGB;solid-color:#000000;solid-opacity:1;vector-effect:none;fill:#000000;fill-opacity:1;fill-rule:nonzero;stroke:none;stroke-width:12.48980713;stroke-linecap:butt;stroke-linejoin:miter;stroke-miterlimit:4;stroke-dasharray:none;stroke-dashoffset:0;stroke-opacity:1;color-rendering:auto;image-rendering:auto;shape-rendering:auto;text-rendering:auto;enable-background:accumulate"
       d="m 230.01172,734.4668 c 0,0 -16.99692,7.16726 -35.38867,18.82226 -18.39176,11.655 -38.83423,27.4568 -45.06836,47.85938 L 161.5,804.79883 c 4.38564,-14.35299 22.39888,-29.92827 39.80859,-40.96094 17.40972,-11.03267 33.5625,-17.86523 33.5625,-17.86523 z"
       id="path2387"
       inkscape:connector-curvature="0" />
    <path
       inkscape:connector-curvature="0"
       id="path10-9-09-4-6-4-4-6-4-4-7-1-0-8-1-2-6-2-4-1-2-4-8-0-6-3-8-9-8-6-4-6-2"
       d="M 352.6347,-33.527291 C 248.11135,-33.568922 176.30595,8.4084833 135.00549,71.195571 93.701614,133.97266 82.176435,215.95908 91.204402,297.11202 c 5.04505,45.35229 16.521548,90.55662 33.297858,132.30811 2.67381,6.65438 11.78518,-8.06992 11.78518,-8.06992 l 38.37497,75.07484 c 0,0 -5.92678,16.99852 -1.08157,23.7873 11.40655,15.98257 23.84365,30.70041 37.18607,43.7188 3.44921,3.36546 1.69534,-16.74675 1.69534,-16.74675 l 44.82584,36.37114 c 0,0 -5.17132,13.26477 1.06207,16.83825 26.20112,15.02055 54.68024,23.55607 84.79562,23.37895 66.93305,-0.40134 125.32738,-43.5303 168.79757,-105.00838 43.47077,-61.47891 73.03239,-142.12141 82.85129,-223.07119 C 604.6118,214.74173 594.77135,133.18415 556.63586,70.645186 518.49666,8.1078952 450.914,-33.874507 352.6347,-33.527291 Z m 0.0233,27.1236969 h 0.0308 0.0308 c 90.76901,-0.3305636 147.06931,35.9090251 180.77405,91.1747491 33.70567,55.260745 43.67652,131.069685 34.3881,207.651355 -9.28791,76.58333 -37.74286,153.64625 -78.07112,210.68463 -40.32882,57.03169 -91.51497,93.208 -146.81183,93.54107 -29.01849,0.17051 -57.01118,-9.60278 -82.92048,-27.14376 -4.78382,-3.23872 -2.79025,14.05109 -2.79025,14.05109 L 212.46223,547.1844 c 0,0 5.03081,-15.30952 1.03337,-19.95394 -6.14758,-7.14257 -12.09548,-14.74792 -17.82306,-22.77359 -6.76475,-9.47797 -19.24892,-30.02812 -19.24892,-30.02812 l -1.76123,21.9963 -38.37497,-75.07484 c 0,0 17.90742,9.14784 12.6191,-4.21442 -15.3783,-38.85723 -26.05525,-81.00015 -30.73,-123.02549 -8.52005,-76.58916 2.9376,-152.42644 39.50475,-208.012729 36.56691,-55.590457 97.5145,-92.5319733 194.98478,-92.5011651 z"
       style="color:#000000;font-style:normal;font-variant:normal;font-weight:normal;font-stretch:normal;font-size:medium;line-height:normal;font-family:sans-serif;font-variant-ligatures:normal;font-variant-position:normal;font-variant-caps:normal;font-variant-numeric:normal;font-variant-alternates:normal;font-feature-settings:normal;text-indent:0;text-align:start;text-decoration:none;text-decoration-line:none;text-decoration-style:solid;text-decoration-color:#000000;letter-spacing:normal;word-spacing:normal;text-transform:none;writing-mode:lr-tb;direction:ltr;text-orientation:mixed;dominant-baseline:auto;baseline-shift:baseline;text-anchor:start;white-space:normal;shape-padding:0;clip-rule:nonzero;display:inline;overflow:visible;visibility:visible;opacity:1;isolation:auto;mix-blend-mode:normal;color-interpolation:sRGB;color-interpolation-filters:linearRGB;solid-color:#000000;solid-opacity:1;vector-effect:none;fill:#000000;fill-opacity:1;fill-rule:nonzero;stroke:none;stroke-width:27.12356186;stroke-linecap:butt;stroke-linejoin:miter;stroke-miterlimit:4;stroke-dasharray:none;stroke-dashoffset:0;stroke-opacity:1;color-rendering:auto;image-rendering:auto;shape-rendering:auto;text-rendering:auto;enable-background:accumulate"
       sodipodi:nodetypes="ccccccccccccsccccccccccccccccccccccc" />
    <path
       inkscape:connector-curvature="0"
       id="path971-95-7-3-8-8-4-0-5-4-4-3-3-8-3-3-7-4-8-7-3-1-2-0-0-8-1-8-0-4-0-9"
       d="m 338.12479,293.13277 c 0,0 -1.52857,15.10267 -4.05909,30.95806 -1.26515,7.9277 -2.78974,16.04524 -4.42773,22.35008 -0.81825,3.16077 -1.67513,5.86855 -2.443,7.73287 -0.76787,1.86264 -1.76048,2.84517 -1.04807,2.24567 -1.50035,1.25481 -3.09088,2.29812 -3.92171,5.62873 -0.41599,1.65865 -0.17745,4.13496 0.88395,5.86439 1.06138,1.72941 2.44201,2.5729 3.48491,3.06749 4.17426,1.96424 6.317,1.20236 9.15527,1.01583 5.67628,-0.39467 11.82242,-1.65948 11.82242,-1.65948 l -2.65899,-13.29831 c 0,0 -2.89912,0.3722 -4.65303,0.65698 0.89959,-2.40971 1.74866,-4.9235 2.50604,-7.84778 1.82926,-7.03926 3.38807,-15.44822 4.69199,-23.61821 2.60713,-16.34166 4.16012,-31.72744 4.16012,-31.72744 z"
       style="color:#000000;font-style:normal;font-variant:normal;font-weight:normal;font-stretch:normal;font-size:medium;line-height:normal;font-family:sans-serif;font-variant-ligatures:normal;font-variant-position:normal;font-variant-caps:normal;font-variant-numeric:normal;font-variant-alternates:normal;font-feature-settings:normal;text-indent:0;text-align:start;text-decoration:none;text-decoration-line:none;text-decoration-style:solid;text-decoration-color:#000000;letter-spacing:normal;word-spacing:normal;text-transform:none;writing-mode:lr-tb;direction:ltr;text-orientation:mixed;dominant-baseline:auto;baseline-shift:baseline;text-anchor:start;white-space:normal;shape-padding:0;clip-rule:nonzero;display:inline;overflow:visible;visibility:visible;opacity:1;isolation:auto;mix-blend-mode:normal;color-interpolation:sRGB;color-interpolation-filters:linearRGB;solid-color:#000000;solid-opacity:1;vector-effect:none;fill:#000000;fill-opacity:1;fill-rule:nonzero;stroke:none;stroke-width:13.56178093;stroke-linecap:butt;stroke-linejoin:miter;stroke-miterlimit:4;stroke-dasharray:none;stroke-dashoffset:0;stroke-opacity:1;color-rendering:auto;image-rendering:auto;shape-rendering:auto;text-rendering:auto;enable-background:accumulate" />
    <path
       inkscape:connector-curvature="0"
       id="path29-3-1-9-71-1-7-5-7-2-5-1-1-7-4-1"
       d="m 340.17756,426.97096 c -30.15709,0.12835 -59.81681,15.71362 -89.13379,44.4431 l 4.82234,13.83685 c 26.67501,24.0297 54.92156,36.61676 83.5606,36.74533 30.35091,0.14026 60.46035,-13.71178 88.93313,-40.38385 l 4.82862,-4.52429 -4.57657,-4.7803 c -28.74863,-30.04131 -58.27592,-45.46847 -88.43433,-45.33684 z m 0.0662,13.09723 c 24.13571,-0.1052 48.57508,11.5148 74.02197,36.49597 -25.06056,21.89707 -50.10656,32.45131 -74.76687,32.3395 -24.62195,-0.11246 -49.45495,-10.85855 -74.13418,-32.88263 25.98049,-23.98621 50.79032,-35.84701 74.87908,-35.95284 z"
       style="color:#000000;font-style:normal;font-variant:normal;font-weight:normal;font-stretch:normal;font-size:medium;line-height:normal;font-family:sans-serif;font-variant-ligatures:normal;font-variant-position:normal;font-variant-caps:normal;font-variant-numeric:normal;font-variant-alternates:normal;font-feature-settings:normal;text-indent:0;text-align:start;text-decoration:none;text-decoration-line:none;text-decoration-style:solid;text-decoration-color:#000000;letter-spacing:normal;word-spacing:normal;text-transform:none;writing-mode:lr-tb;direction:ltr;text-orientation:mixed;dominant-baseline:auto;baseline-shift:baseline;text-anchor:start;white-space:normal;shape-padding:0;clip-rule:nonzero;display:inline;overflow:visible;visibility:visible;opacity:1;isolation:auto;mix-blend-mode:normal;color-interpolation:sRGB;color-interpolation-filters:linearRGB;solid-color:#000000;solid-opacity:1;vector-effect:none;fill:#000000;fill-opacity:1;fill-rule:nonzero;stroke:none;stroke-width:13.09669113;stroke-linecap:butt;stroke-linejoin:miter;stroke-miterlimit:4;stroke-dasharray:none;stroke-dashoffset:0;stroke-opacity:1;color-rendering:auto;image-rendering:auto;shape-rendering:auto;text-rendering:auto;enable-background:accumulate"
       sodipodi:nodetypes="ccccccccccccc" />
    <path
       inkscape:connector-curvature="0"
       id="path59-17-2-4-0-4-6-3-5-9-4-7-4-7-5-0"
       d="m 254.98128,123.73972 c -26.77131,-0.49416 -52.26259,19.01605 -84.53448,57.63889 l 10.42843,8.71515 c 31.42854,-37.60537 54.07215,-53.12649 73.85632,-52.76463 19.78408,0.36517 41.06512,16.81707 69.41816,50.07019 l 10.34257,-8.82101 c -29.04372,-34.06086 -52.73971,-54.34706 -79.511,-54.83859 z"
       style="color:#000000;font-style:normal;font-variant:normal;font-weight:normal;font-stretch:normal;font-size:medium;line-height:normal;font-family:sans-serif;font-variant-ligatures:normal;font-variant-position:normal;font-variant-caps:normal;font-variant-numeric:normal;font-variant-alternates:normal;font-feature-settings:normal;text-indent:0;text-align:start;text-decoration:none;text-decoration-line:none;text-decoration-style:solid;text-decoration-color:#000000;letter-spacing:normal;word-spacing:normal;text-transform:none;writing-mode:lr-tb;direction:ltr;text-orientation:mixed;dominant-baseline:auto;baseline-shift:baseline;text-anchor:start;white-space:normal;shape-padding:0;clip-rule:nonzero;display:inline;overflow:visible;visibility:visible;opacity:1;isolation:auto;mix-blend-mode:normal;color-interpolation:sRGB;color-interpolation-filters:linearRGB;solid-color:#000000;solid-opacity:1;vector-effect:none;fill:#000000;fill-opacity:1;fill-rule:nonzero;stroke:none;stroke-width:13.59403419;stroke-linecap:butt;stroke-linejoin:miter;stroke-miterlimit:4;stroke-dasharray:none;stroke-dashoffset:0;stroke-opacity:1;color-rendering:auto;image-rendering:auto;shape-rendering:auto;text-rendering:auto;enable-background:accumulate" />
    <path
       inkscape:connector-curvature="0"
       id="path59-17-5-5-9-0-5-4-4-5-5-9-8-5-7-1-2"
       d="m 436.25667,121.83978 c -26.7713,-0.49022 -52.26118,19.02067 -84.53587,57.63822 l 10.43054,8.71713 c 31.42857,-37.60869 54.06987,-53.12847 73.85593,-52.76331 19.78542,0.36187 41.06922,16.81378 69.41831,50.06687 l 10.34388,-8.821 C 486.7251,142.61751 463.02929,122.32996 436.25667,121.83978 Z"
       style="color:#000000;font-style:normal;font-variant:normal;font-weight:normal;font-stretch:normal;font-size:medium;line-height:normal;font-family:sans-serif;font-variant-ligatures:normal;font-variant-position:normal;font-variant-caps:normal;font-variant-numeric:normal;font-variant-alternates:normal;font-feature-settings:normal;text-indent:0;text-align:start;text-decoration:none;text-decoration-line:none;text-decoration-style:solid;text-decoration-color:#000000;letter-spacing:normal;word-spacing:normal;text-transform:none;writing-mode:lr-tb;direction:ltr;text-orientation:mixed;dominant-baseline:auto;baseline-shift:baseline;text-anchor:start;white-space:normal;shape-padding:0;clip-rule:nonzero;display:inline;overflow:visible;visibility:visible;opacity:1;isolation:auto;mix-blend-mode:normal;color-interpolation:sRGB;color-interpolation-filters:linearRGB;solid-color:#000000;solid-opacity:1;vector-effect:none;fill:#000000;fill-opacity:1;fill-rule:nonzero;stroke:none;stroke-width:13.59403419;stroke-linecap:butt;stroke-linejoin:miter;stroke-miterlimit:4;stroke-dasharray:none;stroke-dashoffset:0;stroke-opacity:1;color-rendering:auto;image-rendering:auto;shape-rendering:auto;text-rendering:auto;enable-background:accumulate" />
    <path
       inkscape:connector-curvature="0"
       id="path87-11-8-2-9-1-1-7-4-7-3-1-1-3-5"
       d="m 251.82301,187.5971 c -13.49316,0.13032 -24.40411,5.55497 -31.43373,13.67409 -7.04669,8.13894 -10.32589,18.64093 -10.23301,28.98746 0.0968,10.34256 3.56288,20.72481 10.69648,28.61702 7.11074,7.87103 18.02558,12.90669 31.23897,12.49388 12.95844,-0.0397 23.50195,-5.5338 30.19426,-13.65754 6.71591,-8.14822 9.80141,-18.58537 9.73526,-28.877 -0.0669,-10.28897 -3.28219,-20.62624 -10.06802,-28.57533 -6.76942,-7.92659 -17.3561,-13.10382 -30.13021,-12.66258 z m 0.40341,13.57882 c 9.11895,-0.33341 15.06343,2.84529 19.38595,7.91072 4.32453,5.06081 6.76619,12.37548 6.81521,19.83702 0.0589,7.45889 -2.29262,14.87611 -6.63281,20.14133 -4.33819,5.26588 -10.43762,8.72311 -19.81683,8.72311 h -0.11438 l -0.11438,0.0132 c -9.75709,0.32877 -16.23109,-2.96239 -20.81443,-8.03047 -4.58082,-5.07072 -7.11465,-12.27227 -7.18332,-19.62599 -0.0661,-7.3537 2.33055,-14.66904 6.91657,-19.96668 4.58534,-5.29632 11.23194,-8.91033 21.35961,-8.98639 h 0.10003 z"
       style="color:#000000;font-style:normal;font-variant:normal;font-weight:normal;font-stretch:normal;font-size:medium;line-height:normal;font-family:sans-serif;font-variant-ligatures:normal;font-variant-position:normal;font-variant-caps:normal;font-variant-numeric:normal;font-variant-alternates:normal;font-feature-settings:normal;text-indent:0;text-align:start;text-decoration:none;text-decoration-line:none;text-decoration-style:solid;text-decoration-color:#000000;letter-spacing:normal;word-spacing:normal;text-transform:none;writing-mode:lr-tb;direction:ltr;text-orientation:mixed;dominant-baseline:auto;baseline-shift:baseline;text-anchor:start;white-space:normal;shape-padding:0;clip-rule:nonzero;display:inline;overflow:visible;visibility:visible;opacity:1;isolation:auto;mix-blend-mode:normal;color-interpolation:sRGB;color-interpolation-filters:linearRGB;solid-color:#000000;solid-opacity:1;vector-effect:none;fill:#000000;fill-opacity:1;fill-rule:nonzero;stroke:none;stroke-width:13.59403419;stroke-linecap:butt;stroke-linejoin:miter;stroke-miterlimit:4;stroke-dasharray:none;stroke-dashoffset:0;stroke-opacity:1;color-rendering:auto;image-rendering:auto;shape-rendering:auto;text-rendering:auto;enable-background:accumulate" />
    <path
       inkscape:connector-curvature="0"
       id="path87-1-3-3-4-3-4-5-6-7-5-0-8-8-2-5"
       d="m 434.69014,183.9573 c -13.49016,0.12966 -24.4023,5.55299 -31.43383,13.67143 -7.04546,8.13961 -10.32404,18.64424 -10.2301,28.98813 0.094,10.34455 3.56042,20.72481 10.6912,28.6157 7.11289,7.86903 18.0303,12.90404 31.24132,12.4952 12.96161,-0.0397 23.5013,-5.5338 30.19744,-13.65953 6.71464,-8.15019 9.80075,-18.58338 9.7346,-28.87502 -0.0682,-10.28897 -3.28257,-20.6302 -10.06803,-28.57532 -6.76955,-7.92594 -17.35623,-13.10117 -30.1326,-12.66059 z m 0.40422,13.57617 c 9.11737,-0.33607 15.06398,2.84861 19.38584,7.91006 4.32581,5.06412 6.76691,12.37482 6.81522,19.83832 0.0595,7.46023 -2.29028,14.8748 -6.62998,20.14069 -4.33973,5.26653 -10.44113,8.72441 -19.8205,8.72441 h -0.11311 l -0.11249,0.007 c -9.75773,0.32615 -16.23422,-2.9637 -20.81606,-8.03178 -4.57986,-5.07138 -7.11556,-12.2736 -7.18371,-19.62798 -0.0662,-7.35834 2.32995,-14.66969 6.91445,-19.96602 4.58515,-5.29629 11.23168,-8.91097 21.36319,-8.98768 h 0.0986 z"
       style="color:#000000;font-style:normal;font-variant:normal;font-weight:normal;font-stretch:normal;font-size:medium;line-height:normal;font-family:sans-serif;font-variant-ligatures:normal;font-variant-position:normal;font-variant-caps:normal;font-variant-numeric:normal;font-variant-alternates:normal;font-feature-settings:normal;text-indent:0;text-align:start;text-decoration:none;text-decoration-line:none;text-decoration-style:solid;text-decoration-color:#000000;letter-spacing:normal;word-spacing:normal;text-transform:none;writing-mode:lr-tb;direction:ltr;text-orientation:mixed;dominant-baseline:auto;baseline-shift:baseline;text-anchor:start;white-space:normal;shape-padding:0;clip-rule:nonzero;display:inline;overflow:visible;visibility:visible;opacity:1;isolation:auto;mix-blend-mode:normal;color-interpolation:sRGB;color-interpolation-filters:linearRGB;solid-color:#000000;solid-opacity:1;vector-effect:none;fill:#000000;fill-opacity:1;fill-rule:nonzero;stroke:none;stroke-width:13.59403419;stroke-linecap:butt;stroke-linejoin:miter;stroke-miterlimit:4;stroke-dasharray:none;stroke-dashoffset:0;stroke-opacity:1;color-rendering:auto;image-rendering:auto;shape-rendering:auto;text-rendering:auto;enable-background:accumulate" />
    <path
       style="font-style:normal;font-weight:normal;font-size:233.33332825px;line-height:1.25;font-family:sans-serif;letter-spacing:0px;word-spacing:0px;fill:#000000;fill-opacity:1;stroke:none"
       d="M 290.75781 1072.7207 L 290.75781 1250 L 312.17773 1250 L 312.17773 1154.9805 C 318.02626 1150.4991 324.13932 1146.816 330.51953 1143.9297 C 336.89974 1141.0434 343.01476 1139.5996 348.86328 1139.5996 C 354.5599 1139.5996 359.19379 1140.3971 362.76367 1141.9922 C 366.33355 1143.5113 369.06793 1145.8665 370.9668 1149.0566 C 372.78971 1151.9429 374.04297 1155.9679 374.72656 1161.1328 C 375.41016 1166.2218 375.75195 1171.6905 375.75195 1177.5391 L 375.75195 1250 L 397.16992 1250 L 397.16992 1167.3984 C 397.16992 1151.8277 393.56337 1139.9041 386.34766 1131.625 C 379.13194 1123.3459 368.65017 1119.2051 354.90234 1119.2051 C 347.38281 1119.2051 340.05187 1120.7628 332.91211 1123.877 C 325.77235 1126.9911 318.86176 1131.3205 312.17773 1136.8652 L 312.17773 1072.7207 L 290.75781 1072.7207 z M 174.88867 1080.3555 L 113.13672 1250 L 136.03711 1250 L 152.67188 1202.7188 L 226.04492 1202.7188 L 242.67773 1250 L 266.71875 1250 L 204.9668 1080.3555 L 174.88867 1080.3555 z M 450.49023 1080.3555 L 453.68164 1203.2871 L 473.04883 1203.2871 L 476.01172 1080.3555 L 450.49023 1080.3555 z M 189.35742 1100.0645 L 219.09375 1183.3496 L 159.50781 1183.3496 L 189.35742 1100.0645 z M 451.63086 1225.9609 L 451.63086 1250 L 474.87305 1250 L 474.87305 1225.9609 L 451.63086 1225.9609 z "
       transform="translate(0,-33.729184)"
       id="text3337" />
  </g>
</svg>
