<?xml version="1.0" encoding="UTF-8" standalone="no"?>
<!-- Created with Inkscape (http://www.inkscape.org/) -->

<svg
   xmlns:dc="http://purl.org/dc/elements/1.1/"
   xmlns:cc="http://creativecommons.org/ns#"
   xmlns:rdf="http://www.w3.org/1999/02/22-rdf-syntax-ns#"
   xmlns:svg="http://www.w3.org/2000/svg"
   xmlns="http://www.w3.org/2000/svg"
   xmlns:sodipodi="http://sodipodi.sourceforge.net/DTD/sodipodi-0.dtd"
   xmlns:inkscape="http://www.inkscape.org/namespaces/inkscape"
   width="1000"
   height="1250"
   viewBox="0 0 1000 1250"
   version="1.1"
   id="svg3551"
   inkscape:version="0.92.4 (5da689c313, 2019-01-14)"
   sodipodi:docname="Ano.svg">
  <defs
     id="defs3545" />
  <sodipodi:namedview
     id="base"
     pagecolor="#ffffff"
     bordercolor="#666666"
     borderopacity="1.0"
     inkscape:pageopacity="0.0"
     inkscape:pageshadow="2"
     inkscape:zoom="0.70710678"
     inkscape:cx="199.38695"
     inkscape:cy="155.97054"
     inkscape:document-units="px"
     inkscape:current-layer="layer1"
     showgrid="false"
     units="px"
     inkscape:window-width="1366"
     inkscape:window-height="715"
     inkscape:window-x="-8"
     inkscape:window-y="-8"
     inkscape:window-maximized="1"
     showguides="false" />
  <metadata
     id="metadata3548">
    <rdf:RDF>
      <cc:Work
         rdf:about="">
        <dc:format>image/svg+xml</dc:format>
        <dc:type
           rdf:resource="http://purl.org/dc/dcmitype/StillImage" />
        <dc:title />
      </cc:Work>
    </rdf:RDF>
  </metadata>
  <g
     inkscape:label="Camada 1"
     inkscape:groupmode="layer"
     id="layer1"
     transform="translate(0,217.58334)">
    <path
       style="color:#000000;font-style:normal;font-variant:normal;font-weight:normal;font-stretch:normal;font-size:medium;line-height:normal;font-family:sans-serif;font-variant-ligatures:normal;font-variant-position:normal;font-variant-caps:normal;font-variant-numeric:normal;font-variant-alternates:normal;font-feature-settings:normal;text-indent:0;text-align:start;text-decoration:none;text-decoration-line:none;text-decoration-style:solid;text-decoration-color:#000000;letter-spacing:normal;word-spacing:normal;text-transform:none;writing-mode:lr-tb;direction:ltr;text-orientation:mixed;dominant-baseline:auto;baseline-shift:baseline;text-anchor:start;white-space:normal;shape-padding:0;clip-rule:nonzero;display:inline;overflow:visible;visibility:visible;opacity:1;isolation:auto;mix-blend-mode:normal;color-interpolation:sRGB;color-interpolation-filters:linearRGB;solid-color:#000000;solid-opacity:1;vector-effect:none;fill:#000000;fill-opacity:1;fill-rule:nonzero;stroke:none;stroke-width:10.26350689;stroke-linecap:butt;stroke-linejoin:miter;stroke-miterlimit:4;stroke-dasharray:none;stroke-dashoffset:0;stroke-opacity:1;color-rendering:auto;image-rendering:auto;shape-rendering:auto;text-rendering:auto;enable-background:accumulate"
       d="m 204.6047,185.64702 c -3.80183,-0.49826 -8.20902,-0.0189 -12.95476,2.05327 l 0.70165,-0.24391 c 0,0 -20.327,5.38822 -35.27478,5.04455 l 1.01186,0.11798 c 0,0 -20.96516,-4.08127 -35.59238,14.93418 l 0.91585,-0.92323 c 0,0 -8.77789,6.79651 -16.49997,16.30053 l -0.20682,0.2511 -0.16986,0.2734 c 0,0 -6.49287,10.42438 -17.386276,20.65083 -10.893402,10.22648 -25.773015,19.72018 -42.151005,18.89297 l -0.228973,-0.008 -0.221561,0.008 c 0,0 -7.421041,0.27719 -15.030189,0.36946 -3.804574,0.0461 -7.658716,0.048 -10.569141,-0.0518 -1.455212,-0.0499 -2.683926,-0.12857 -3.441802,-0.21404 -0.378938,-0.0427 -0.651079,-0.093 -0.664726,-0.096 -0.01365,-0.003 0.148214,-0.25941 1.395924,0.73858 l -6.410911,8.01363 c 1.480842,1.18457 2.089617,1.10384 2.71799,1.24822 0.628373,0.14445 1.194021,0.21857 1.809531,0.28815 1.231021,0.13878 2.634845,0.2182 4.239474,0.27341 3.209258,0.11004 7.160478,0.11344 11.04922,0.0666 7.777484,-0.0942 15.288692,-0.37664 15.288692,-0.37664 l -0.450534,-0.008 c 20.549903,1.03788 37.738543,-10.44109 49.691947,-21.66266 11.50849,-10.80389 18.19343,-21.37907 18.70095,-22.18708 6.8253,-8.40033 14.83816,-14.66829 14.83816,-14.66829 l 0.51701,-0.39884 0.39883,-0.52439 c 11.48339,-14.92843 25.2005,-11.17479 25.2005,-11.17479 l 0.50224,0.1108 0.50962,0.0151 c 17.50409,0.40243 38.21435,-5.40645 38.21435,-5.40645 l 0.36189,-0.096 0.33973,-0.14786 c 6.73444,-2.94148 9.49195,-1.42625 11.72872,0.36908 2.23678,1.79552 3.24977,4.23209 3.24977,4.23209 l 0.10339,0.26584 0.13296,0.25866 c 7.46421,14.3542 14.12378,22.93662 19.11456,28.02927 2.49539,2.54631 4.5762,4.2193 6.11548,5.28824 0.45019,0.31273 0.45534,0.25752 0.84198,0.48748 0.0155,0.0896 0.17728,0.4362 0.17725,0.42837 -0.49696,0.27983 -1.67659,0.64997 -1.67659,0.64997 l -8.93687,1.20386 5.59108,7.06087 c 7.90613,9.99128 7.37861,14.48422 6.65465,16.27841 -0.72397,1.7942 -2.27484,2.37084 -2.27484,2.37084 l -6.49954,2.27483 4.04005,5.57632 c 11.1875,15.44941 11.09056,24.01398 9.52035,28.56107 -1.5702,4.54705 -4.74171,5.93083 -4.74171,5.93083 l -7.25289,3.3975 6.11547,5.17006 c 5.71006,4.82836 7.95293,9.00149 8.67837,12.4747 0.72543,3.4732 0.0113,6.57506 -1.45502,9.52773 -2.93286,5.90538 -8.84085,10.1777 -8.84085,10.1777 l -3.84063,2.65151 2.26745,4.0696 c 5.21396,9.36074 2.64569,14.52603 -1.12265,19.01118 -3.75081,4.46427 -8.9473,6.91959 -8.99596,6.94266 -5.78271,2.38506 -8.46986,2.43509 -9.32831,2.3561 l -0.25114,-0.56134 -2.43733,-0.58345 c -7.21679,-1.7321 -13.90424,1.4419 -19.23273,4.28378 -5.32849,2.84187 -9.35786,5.97515 -9.35786,5.97515 l 0.63518,-0.421 c -3.68999,2.0662 -5.9204,1.91604 -7.3563,1.60274 -1.4359,-0.3135 -1.69136,-0.63519 -1.69136,-0.63519 l -1.88339,-1.6249 -2.43732,0.46532 c -30.85797,5.87771 -49.88849,4.96756 -60.90366,2.79922 -5.50759,-1.08417 -9.01842,-2.47699 -11.056607,-3.50088 -2.038192,-1.0239 -2.245296,-1.32945 -2.245296,-1.32945 l -0.768128,-0.7312 -0.997089,-0.36945 C 68.862155,377.81285 48.382049,375.27521 34.353589,375.2265 c -14.02846,-0.0488 -22.061512,2.54812 -22.061512,2.54812 l 3.24245,9.73455 c 0,0 5.953999,-2.06828 18.782197,-2.02374 12.802582,0.0446 32.012594,2.36676 57.136876,11.6327 0.760591,0.58988 1.172538,1.04707 3.087282,2.00895 2.927487,1.4706 7.350518,3.15483 13.685968,4.40195 12.43683,2.44821 32.53616,3.07867 63.34098,-2.62194 1.1026,0.65648 1.37054,1.1373 3.36795,1.57316 3.69296,0.80585 8.92228,0.47436 14.55749,-2.68104 l 0.33236,-0.18454 0.30283,-0.23635 c 0,0 3.43983,-2.64947 7.90285,-5.02976 4.3533,-2.32176 9.49295,-3.67798 11.70656,-3.27933 0.98893,0.56153 1.9827,1.14646 3.33101,1.35161 3.61642,0.55032 8.22588,-0.17471 15.42903,-3.1759 l 0.0739,-0.0302 0.0738,-0.0378 c 0,0 7.1081,-3.1126 12.65934,-9.71976 4.92324,-5.85974 7.93576,-15.57969 3.76678,-26.46348 2.65368,-2.2335 6.22278,-5.69298 9.09936,-11.48499 2.20902,-4.44786 3.58559,-10.09103 2.31176,-16.18977 -0.97422,-4.66431 -4.01069,-9.35858 -8.2426,-13.96663 1.86225,-1.89342 3.88852,-4.06573 5.09624,-7.5631 2.66184,-7.70831 1.20641,-19.03701 -8.44941,-33.92316 1.26947,-1.22538 2.63936,-2.26655 3.48612,-4.36505 2.03006,-5.03101 0.19849,-12.29076 -5.0076,-20.82806 0.0978,-0.07 0.10172,-0.008 0.1994,-0.0813 1.62865,-1.23191 3.36877,-3.36361 3.85541,-6.15243 0.48664,-2.78878 -0.29375,-5.71143 -1.90555,-8.50108 l -0.85675,-1.49193 -1.58058,-0.66476 c 0,0 -0.0407,0.0227 -1.01924,-0.65731 -0.97854,-0.67955 -2.56433,-1.92375 -4.63831,-4.04006 -4.14796,-4.23261 -10.25876,-11.96305 -17.34196,-25.58458 l 0.23635,0.52439 c 0,0 -1.7863,-4.83902 -6.40353,-8.5454 -2.30861,-1.85318 -5.50432,-3.33502 -9.30616,-3.83324 z"
       id="path6733"
       inkscape:connector-curvature="0" />
    <path
       style="color:#000000;font-style:normal;font-variant:normal;font-weight:normal;font-stretch:normal;font-size:medium;line-height:normal;font-family:sans-serif;font-variant-ligatures:normal;font-variant-position:normal;font-variant-caps:normal;font-variant-numeric:normal;font-variant-alternates:normal;font-feature-settings:normal;text-indent:0;text-align:start;text-decoration:none;text-decoration-line:none;text-decoration-style:solid;text-decoration-color:#000000;letter-spacing:normal;word-spacing:normal;text-transform:none;writing-mode:lr-tb;direction:ltr;text-orientation:mixed;dominant-baseline:auto;baseline-shift:baseline;text-anchor:start;white-space:normal;shape-padding:0;clip-rule:nonzero;display:inline;overflow:visible;visibility:visible;opacity:1;isolation:auto;mix-blend-mode:normal;color-interpolation:sRGB;color-interpolation-filters:linearRGB;solid-color:#000000;solid-opacity:1;vector-effect:none;fill:#000000;fill-opacity:1;fill-rule:nonzero;stroke:none;stroke-width:10.26350689;stroke-linecap:butt;stroke-linejoin:miter;stroke-miterlimit:4;stroke-dasharray:none;stroke-dashoffset:0;stroke-opacity:1;color-rendering:auto;image-rendering:auto;shape-rendering:auto;text-rendering:auto;enable-background:accumulate"
       d="m 227.16107,344.74543 -6.25581,8.13181 c 4.06501,3.127 8.71127,3.64776 12.33435,3.81112 3.62309,0.16336 6.54386,-0.25866 6.54386,-0.25866 l -1.45501,-10.16292 c 0,0 -2.02067,0.2874 -4.62354,0.1698 -2.60287,-0.11723 -5.46562,-0.86193 -6.54385,-1.69138 z"
       id="path6735"
       inkscape:connector-curvature="0" />
    <path
       style="color:#000000;font-style:normal;font-variant:normal;font-weight:normal;font-stretch:normal;font-size:medium;line-height:normal;font-family:sans-serif;font-variant-ligatures:normal;font-variant-position:normal;font-variant-caps:normal;font-variant-numeric:normal;font-variant-alternates:normal;font-feature-settings:normal;text-indent:0;text-align:start;text-decoration:none;text-decoration-line:none;text-decoration-style:solid;text-decoration-color:#000000;letter-spacing:normal;word-spacing:normal;text-transform:none;writing-mode:lr-tb;direction:ltr;text-orientation:mixed;dominant-baseline:auto;baseline-shift:baseline;text-anchor:start;white-space:normal;shape-padding:0;clip-rule:nonzero;display:inline;overflow:visible;visibility:visible;opacity:1;isolation:auto;mix-blend-mode:normal;color-interpolation:sRGB;color-interpolation-filters:linearRGB;solid-color:#000000;solid-opacity:1;vector-effect:none;fill:#000000;fill-opacity:1;fill-rule:nonzero;stroke:none;stroke-width:10.26350689;stroke-linecap:butt;stroke-linejoin:miter;stroke-miterlimit:4;stroke-dasharray:none;stroke-dashoffset:0;stroke-opacity:1;color-rendering:auto;image-rendering:auto;shape-rendering:auto;text-rendering:auto;enable-background:accumulate"
       d="m 228.89674,304.56645 -6.03423,8.30167 c 2.08938,1.51951 3.74267,1.75264 5.59847,2.12713 1.85579,0.37437 3.80365,0.60905 5.63539,0.77552 3.66348,0.33315 6.89838,0.38409 6.89838,0.38409 l 0.16249,-10.26635 c 0,0 -2.92064,-0.048 -6.13024,-0.33958 -1.6048,-0.14597 -3.26929,-0.35773 -4.53491,-0.61303 -1.26562,-0.25525 -2.23403,-0.83375 -1.59534,-0.36945 z"
       id="path6737"
       inkscape:connector-curvature="0" />
    <path
       style="color:#000000;font-style:normal;font-variant:normal;font-weight:normal;font-stretch:normal;font-size:medium;line-height:normal;font-family:sans-serif;font-variant-ligatures:normal;font-variant-position:normal;font-variant-caps:normal;font-variant-numeric:normal;font-variant-alternates:normal;font-feature-settings:normal;text-indent:0;text-align:start;text-decoration:none;text-decoration-line:none;text-decoration-style:solid;text-decoration-color:#000000;letter-spacing:normal;word-spacing:normal;text-transform:none;writing-mode:lr-tb;direction:ltr;text-orientation:mixed;dominant-baseline:auto;baseline-shift:baseline;text-anchor:start;white-space:normal;shape-padding:0;clip-rule:nonzero;display:inline;overflow:visible;visibility:visible;opacity:1;isolation:auto;mix-blend-mode:normal;color-interpolation:sRGB;color-interpolation-filters:linearRGB;solid-color:#000000;solid-opacity:1;vector-effect:none;fill:#000000;fill-opacity:1;fill-rule:nonzero;stroke:none;stroke-width:10.26350689;stroke-linecap:butt;stroke-linejoin:miter;stroke-miterlimit:4;stroke-dasharray:none;stroke-dashoffset:0;stroke-opacity:1;color-rendering:auto;image-rendering:auto;shape-rendering:auto;text-rendering:auto;enable-background:accumulate"
       d="m 224.0664,255.63525 -9.29878,4.35026 c 2.76396,5.90489 8.32332,8.19288 13.03601,10.34757 4.7127,2.15466 8.98119,3.44919 8.98119,3.44919 l 2.98388,-9.81581 c 0,0 -3.71084,-1.14365 -7.70343,-2.96908 -3.9926,-1.82543 -7.86151,-5.06868 -7.99887,-5.36213 z"
       id="path6739"
       inkscape:connector-curvature="0" />
    <path
       style="color:#000000;font-style:normal;font-variant:normal;font-weight:normal;font-stretch:normal;font-size:medium;line-height:normal;font-family:sans-serif;font-variant-ligatures:normal;font-variant-position:normal;font-variant-caps:normal;font-variant-numeric:normal;font-variant-alternates:normal;font-feature-settings:normal;text-indent:0;text-align:start;text-decoration:none;text-decoration-line:none;text-decoration-style:solid;text-decoration-color:#000000;letter-spacing:normal;word-spacing:normal;text-transform:none;writing-mode:lr-tb;direction:ltr;text-orientation:mixed;dominant-baseline:auto;baseline-shift:baseline;text-anchor:start;white-space:normal;shape-padding:0;clip-rule:nonzero;display:inline;overflow:visible;visibility:visible;opacity:1;isolation:auto;mix-blend-mode:normal;color-interpolation:sRGB;color-interpolation-filters:linearRGB;solid-color:#000000;solid-opacity:1;vector-effect:none;fill:#000000;fill-opacity:1;fill-rule:nonzero;stroke:none;stroke-width:10.26350689;stroke-linecap:butt;stroke-linejoin:miter;stroke-miterlimit:4;stroke-dasharray:none;stroke-dashoffset:0;stroke-opacity:1;color-rendering:auto;image-rendering:auto;shape-rendering:auto;text-rendering:auto;enable-background:accumulate"
       d="m 151.69991,206.32738 -1.0414,10.20724 c 3.71653,0.38114 8.2417,0.75952 12.17926,0.95276 1.96877,0.0968 3.78537,0.15202 5.34735,0.12555 1.56197,-0.0265 2.36684,0.24844 4.66785,-0.6721 l -1.07834,0.3029 c 4.22487,-0.6899 7.04986,-0.709 8.69314,-0.59828 1.64328,0.1108 1.65443,0.18454 1.65443,0.18454 l 0.36931,0.13311 0.37668,0.0666 c 10.91798,2.0471 23.53867,7.98406 23.53867,7.98406 l 0.21419,0.0961 0.21419,0.0813 c 4.36964,1.62096 11.22701,6.78055 16.4852,11.52189 5.25818,4.74139 9.12151,8.95165 9.12151,8.95165 l 7.57049,-6.92791 c 0,0 -4.16347,-4.54917 -9.81578,-9.64591 -5.64844,-5.09325 -12.58357,-10.84511 -19.77191,-13.51609 -0.62798,-0.3029 -12.66696,-6.00991 -25.0897,-8.4568 -0.14249,-0.0431 -1.77583,-0.55437 -4.18039,-0.71641 -2.50644,-0.16904 -6.12057,-0.0934 -11.03445,0.70904 l -0.55393,0.0885 -0.5244,0.21403 c 1.36851,-0.54742 0.14911,-0.0866 -1.03402,-0.0666 -1.18313,0.0189 -2.8366,-0.0227 -4.66785,-0.1108 -3.66249,-0.17963 -8.08294,-0.54364 -11.64009,-0.90845 z"
       id="path6741"
       inkscape:connector-curvature="0" />
    <path
       style="color:#000000;font-style:normal;font-variant:normal;font-weight:normal;font-stretch:normal;font-size:medium;line-height:normal;font-family:sans-serif;font-variant-ligatures:normal;font-variant-position:normal;font-variant-caps:normal;font-variant-numeric:normal;font-variant-alternates:normal;font-feature-settings:normal;text-indent:0;text-align:start;text-decoration:none;text-decoration-line:none;text-decoration-style:solid;text-decoration-color:#000000;letter-spacing:normal;word-spacing:normal;text-transform:none;writing-mode:lr-tb;direction:ltr;text-orientation:mixed;dominant-baseline:auto;baseline-shift:baseline;text-anchor:start;white-space:normal;shape-padding:0;clip-rule:nonzero;display:inline;overflow:visible;visibility:visible;opacity:1;isolation:auto;mix-blend-mode:normal;color-interpolation:sRGB;color-interpolation-filters:linearRGB;solid-color:#000000;solid-opacity:1;vector-effect:none;fill:#000000;fill-opacity:1;fill-rule:nonzero;stroke:none;stroke-width:10.26350689;stroke-linecap:butt;stroke-linejoin:miter;stroke-miterlimit:4;stroke-dasharray:none;stroke-dashoffset:0;stroke-opacity:1;color-rendering:auto;image-rendering:auto;shape-rendering:auto;text-rendering:auto;enable-background:accumulate"
       d="m 212.42631,316.30257 -8.18351,6.19671 c 2.64072,3.48946 2.67262,6.95911 1.88339,10.14076 -0.39462,1.59082 -1.04284,3.0325 -1.61012,3.98836 -0.56728,0.95587 -1.9032,1.5203 -0.0591,0.59824 l 4.59399,9.18063 c 2.89912,-1.44955 3.20999,-2.72049 4.29118,-4.54233 1.08118,-1.8218 2.08713,-4.09576 2.74753,-6.75804 1.3208,-5.3245 1.08116,-12.53486 -3.66338,-18.80433 z"
       id="path6751"
       inkscape:connector-curvature="0" />
    <path
       style="color:#000000;font-style:normal;font-variant:normal;font-weight:normal;font-stretch:normal;font-size:medium;line-height:normal;font-family:sans-serif;font-variant-ligatures:normal;font-variant-position:normal;font-variant-caps:normal;font-variant-numeric:normal;font-variant-alternates:normal;font-feature-settings:normal;text-indent:0;text-align:start;text-decoration:none;text-decoration-line:none;text-decoration-style:solid;text-decoration-color:#000000;letter-spacing:normal;word-spacing:normal;text-transform:none;writing-mode:lr-tb;direction:ltr;text-orientation:mixed;dominant-baseline:auto;baseline-shift:baseline;text-anchor:start;white-space:normal;shape-padding:0;clip-rule:nonzero;display:inline;overflow:visible;visibility:visible;opacity:1;isolation:auto;mix-blend-mode:normal;color-interpolation:sRGB;color-interpolation-filters:linearRGB;solid-color:#000000;solid-opacity:1;vector-effect:none;fill:#000000;fill-opacity:1;fill-rule:nonzero;stroke:none;stroke-width:10.26350689;stroke-linecap:butt;stroke-linejoin:miter;stroke-miterlimit:4;stroke-dasharray:none;stroke-dashoffset:0;stroke-opacity:1;color-rendering:auto;image-rendering:auto;shape-rendering:auto;text-rendering:auto;enable-background:accumulate"
       d="m 209.46459,264.25454 -6.47739,7.95453 c 3.87986,3.15801 3.97103,7.16782 3.04297,11.6327 -0.92806,4.46491 -3.06512,8.15397 -3.06512,8.15397 l 8.81869,5.24395 c 0,0 2.95662,-4.88713 4.29118,-11.30771 1.33456,-6.42058 0.85141,-15.60396 -6.61033,-21.67744 z"
       id="path6753"
       inkscape:connector-curvature="0" />
    <path
       style="color:#000000;font-style:normal;font-variant:normal;font-weight:normal;font-stretch:normal;font-size:medium;line-height:normal;font-family:sans-serif;font-variant-ligatures:normal;font-variant-position:normal;font-variant-caps:normal;font-variant-numeric:normal;font-variant-alternates:normal;font-feature-settings:normal;text-indent:0;text-align:start;text-decoration:none;text-decoration-line:none;text-decoration-style:solid;text-decoration-color:#000000;letter-spacing:normal;word-spacing:normal;text-transform:none;writing-mode:lr-tb;direction:ltr;text-orientation:mixed;dominant-baseline:auto;baseline-shift:baseline;text-anchor:start;white-space:normal;shape-padding:0;clip-rule:nonzero;display:inline;overflow:visible;visibility:visible;opacity:1;isolation:auto;mix-blend-mode:normal;color-interpolation:sRGB;color-interpolation-filters:linearRGB;solid-color:#000000;solid-opacity:1;vector-effect:none;fill:#000000;fill-opacity:1;fill-rule:nonzero;stroke:none;stroke-width:10.26350689;stroke-linecap:butt;stroke-linejoin:miter;stroke-miterlimit:4;stroke-dasharray:none;stroke-dashoffset:0;stroke-opacity:1;color-rendering:auto;image-rendering:auto;shape-rendering:auto;text-rendering:auto;enable-background:accumulate"
       d="m 209.5089,215.5966 -6.99439,7.51879 c 1.67339,1.55716 1.47399,2.88494 0.76813,5.17009 -0.70587,2.28512 -2.07542,4.2173 -2.07542,4.2173 l 8.2426,6.12287 c 0,0 2.32636,-3.05531 3.64122,-7.31197 1.31485,-4.25667 1.45866,-11.02637 -3.58214,-15.71708 z"
       id="path6755"
       inkscape:connector-curvature="0" />
    <path
       style="color:#000000;font-style:normal;font-variant:normal;font-weight:normal;font-stretch:normal;font-size:medium;line-height:normal;font-family:sans-serif;font-variant-ligatures:normal;font-variant-position:normal;font-variant-caps:normal;font-variant-numeric:normal;font-variant-alternates:normal;font-feature-settings:normal;text-indent:0;text-align:start;text-decoration:none;text-decoration-line:none;text-decoration-style:solid;text-decoration-color:#000000;letter-spacing:normal;word-spacing:normal;text-transform:none;writing-mode:lr-tb;direction:ltr;text-orientation:mixed;dominant-baseline:auto;baseline-shift:baseline;text-anchor:start;white-space:normal;shape-padding:0;clip-rule:nonzero;display:inline;overflow:visible;visibility:visible;opacity:1;isolation:auto;mix-blend-mode:normal;color-interpolation:sRGB;color-interpolation-filters:linearRGB;solid-color:#000000;solid-opacity:1;vector-effect:none;fill:#000000;fill-opacity:1;fill-rule:nonzero;stroke:none;stroke-width:10.26350689;stroke-linecap:butt;stroke-linejoin:miter;stroke-miterlimit:4;stroke-dasharray:none;stroke-dashoffset:0;stroke-opacity:1;color-rendering:auto;image-rendering:auto;shape-rendering:auto;text-rendering:auto;enable-background:accumulate"
       d="m 217.08678,359.20691 -10.21462,0.98234 c 0.52934,5.52034 -1.08518,8.69783 -2.82878,10.89412 -0.8718,1.09812 -1.81042,1.90397 -2.53334,2.42991 -0.72293,0.52597 -1.64487,0.91487 -0.94539,0.63518 l 3.81109,9.52774 c 1.16576,-0.46608 1.82397,-0.87766 3.17592,-1.86121 1.35194,-0.98358 2.97477,-2.39436 4.52752,-4.35026 3.1055,-3.91179 5.78376,-10.16337 5.0076,-18.25782 z"
       id="path6757"
       inkscape:connector-curvature="0" />
    <path
       style="color:#000000;font-style:normal;font-variant:normal;font-weight:normal;font-stretch:normal;font-size:medium;line-height:normal;font-family:sans-serif;font-variant-ligatures:normal;font-variant-position:normal;font-variant-caps:normal;font-variant-numeric:normal;font-variant-alternates:normal;font-feature-settings:normal;text-indent:0;text-align:start;text-decoration:none;text-decoration-line:none;text-decoration-style:solid;text-decoration-color:#000000;letter-spacing:normal;word-spacing:normal;text-transform:none;writing-mode:lr-tb;direction:ltr;text-orientation:mixed;dominant-baseline:auto;baseline-shift:baseline;text-anchor:start;white-space:normal;shape-padding:0;clip-rule:nonzero;display:inline;overflow:visible;visibility:visible;opacity:1;isolation:auto;mix-blend-mode:normal;color-interpolation:sRGB;color-interpolation-filters:linearRGB;solid-color:#000000;solid-opacity:1;vector-effect:none;fill:#000000;fill-opacity:1;fill-rule:nonzero;stroke:none;stroke-width:16.54169846;stroke-linecap:butt;stroke-linejoin:miter;stroke-miterlimit:4;stroke-dasharray:none;stroke-dashoffset:0;stroke-opacity:1;color-rendering:auto;image-rendering:auto;shape-rendering:auto;text-rendering:auto;enable-background:accumulate"
       d="m 161.70773,-216.12066 c -63.733427,-0.0128 -107.523885,25.57449 -132.708813,63.858 C 3.8089431,-113.97149 -3.2137718,-63.97219 2.2917113,-14.47978 7.7971944,35.01263 25.861617,84.22264 52.53021,121.58958 c 26.668597,37.36699 62.57014,63.39223 103.40918,63.14896 40.8198,-0.24315 76.43283,-26.54218 102.94387,-64.03524 26.51104,-37.4931 44.53891,-86.67775 50.52655,-136.04722 5.98763,-49.36947 -0.0108,-99.1042 -23.27279,-137.24372 -23.25703,-38.13139 -64.46602,-63.74265 -124.39236,-63.53302 z m 0.0295,16.5369 h 0.0147 0.0147 c 55.35689,-0.20378 89.69274,21.90556 110.24847,55.60801 20.55574,33.70245 26.64041,79.93158 20.9758,126.63765 -5.66462,46.70607 -23.02163,93.70835 -47.61653,128.49151 -24.5949,34.78316 -55.80763,56.84734 -89.53118,57.04825 -33.7042,0.20077 -65.137716,-21.59704 -89.848679,-56.22104 C 41.283549,77.35659 23.928496,30.40609 18.732506,-16.30408 c -5.195989,-46.71017 1.791676,-92.96704 24.092618,-126.86661 22.300943,-33.89958 59.468656,-56.43454 118.912056,-56.41307 z"
       id="path10-9"
       inkscape:connector-curvature="0" />
    <path
       style="color:#000000;font-style:normal;font-variant:normal;font-weight:normal;font-stretch:normal;font-size:medium;line-height:normal;font-family:sans-serif;font-variant-ligatures:normal;font-variant-position:normal;font-variant-caps:normal;font-variant-numeric:normal;font-variant-alternates:normal;font-feature-settings:normal;text-indent:0;text-align:start;text-decoration:none;text-decoration-line:none;text-decoration-style:solid;text-decoration-color:#000000;letter-spacing:normal;word-spacing:normal;text-transform:none;writing-mode:lr-tb;direction:ltr;text-orientation:mixed;dominant-baseline:auto;baseline-shift:baseline;text-anchor:start;white-space:normal;shape-padding:0;clip-rule:nonzero;display:inline;overflow:visible;visibility:visible;opacity:1;isolation:auto;mix-blend-mode:normal;color-interpolation:sRGB;color-interpolation-filters:linearRGB;solid-color:#000000;solid-opacity:1;vector-effect:none;fill:#000000;fill-opacity:1;fill-rule:nonzero;stroke:none;stroke-width:10.26350689;stroke-linecap:butt;stroke-linejoin:miter;stroke-miterlimit:4;stroke-dasharray:none;stroke-dashoffset:0;stroke-opacity:1;color-rendering:auto;image-rendering:auto;shape-rendering:auto;text-rendering:auto;enable-background:accumulate"
       d="m 130.83491,411.18846 c -3.80183,0.49825 -6.99016,1.98009 -9.29877,3.83328 -4.61723,3.70637 -6.40353,8.5454 -6.40353,8.5454 l 0.23635,-0.52439 c -7.0832,13.62149 -13.20138,21.35196 -17.349346,25.58458 -2.073981,2.11627 -3.652385,3.36051 -4.630922,4.04005 -0.978541,0.67951 -1.019249,0.65731 -1.019249,0.65731 l -1.587953,0.66472 -0.856759,1.49198 c -1.6118,2.78965 -2.384809,5.7123 -1.898161,8.50108 0.486647,2.78878 2.226766,4.92051 3.855408,6.15243 0.0934,0.0707 0.09847,0.008 0.192027,0.0737 -5.209366,8.54003 -7.038124,15.80329 -5.007598,20.83544 0.846977,2.09902 2.223685,3.13952 3.493503,4.36504 -9.656509,14.88668 -11.118706,26.21466 -8.456789,33.92317 1.207805,3.49763 3.241243,5.66964 5.103616,7.5631 -4.232993,4.60865 -7.275629,9.30904 -8.249988,13.974 -1.273819,6.09877 0.102745,11.7345 2.311769,16.18239 2.87658,5.79202 6.453062,9.25149 9.106747,11.48499 -4.172205,10.88599 -1.157261,20.60276 3.766776,26.46349 5.551227,6.60716 12.659339,9.71976 12.659339,9.71976 l 0.0665,0.0378 0.0739,0.0302 c 7.20314,3.00131 11.81259,3.73364 15.42903,3.18331 1.34923,-0.20533 2.3491,-0.79692 3.3384,-1.35901 2.21587,-0.39627 7.35574,0.95889 11.70656,3.27932 4.46301,2.38026 7.89546,5.02977 7.89546,5.02977 l 0.30283,0.23635 0.33236,0.18454 c 5.63521,3.1554 10.86454,3.48689 14.5575,2.68108 1.99996,-0.43639 2.27274,-0.91627 3.37532,-1.5732 30.80466,5.70057 50.9042,5.07019 63.34099,2.62197 6.33545,-1.24711 10.75109,-2.93134 13.67858,-4.40195 1.90943,-0.95919 2.31771,-1.41093 3.07989,-2.00157 25.13299,-9.27138 44.33867,-11.5956 57.14426,-11.64007 12.82821,-0.0446 18.7822,2.02369 18.7822,2.02369 l 3.24977,-9.7345 c 0,0 -8.03305,-2.59683 -22.06151,-2.54813 -14.02846,0.0488 -34.51594,2.5864 -60.79287,12.29742 l -0.99709,0.36946 -0.76812,0.7312 c 0,0 -0.20712,0.30555 -2.2453,1.32944 -2.03819,1.02389 -5.54902,2.42409 -11.0566,3.50826 -11.01517,2.16834 -30.0383,3.07111 -60.89628,-2.80659 l -2.44471,-0.46532 -1.876,1.63227 c 0,0 -0.26286,0.32181 -1.69875,0.63518 -1.43589,0.31312 -3.66629,0.45606 -7.35629,-1.61011 l 0.63518,0.42097 c 0,0 -4.022,-3.13328 -9.35048,-5.97512 -5.32847,-2.84187 -12.01596,-6.0158 -19.23273,-4.28382 l -2.43733,0.5835 -0.25851,0.56133 c -0.8623,0.0787 -3.54531,0.0302 -9.34309,-2.36347 -0.0674,-0.0302 -5.22983,-2.47918 -8.97379,-6.93533 -3.768343,-4.48514 -6.344026,-9.65044 -1.13004,-19.01114 l 2.26746,-4.06959 -3.84064,-2.65151 c 0,0 -5.900589,-4.27232 -8.83347,-10.17771 -1.46644,-2.95267 -2.180442,-6.04715 -1.455008,-9.52036 0.72543,-3.47316 2.960917,-7.6537 8.670976,-12.48206 l 6.115482,-5.1701 -7.252901,-3.39746 c 0,0 -3.16413,-1.38379 -4.734324,-5.93084 -1.570195,-4.54705 -1.674543,-13.11166 9.512965,-28.56107 l 4.04005,-5.57631 -6.499537,-2.27483 c 0,0 -1.550868,-0.57665 -2.274838,-2.37085 -0.72397,-1.79419 -1.251478,-6.27975 6.654645,-16.27103 l 5.59108,-7.06825 -8.929482,-1.20389 c 0,0 -1.179625,-0.36984 -1.676585,-0.64994 -1.17e-4,0.008 0.161359,-0.33769 0.177241,-0.42837 0.385269,-0.22916 0.386498,-0.17622 0.834604,-0.48748 1.539272,-1.06893 3.620082,-2.73455 6.115472,-5.28086 4.99079,-5.09262 11.65774,-13.68249 19.12195,-28.03669 l 0.13296,-0.25866 0.10339,-0.26584 c 0,0 1.00559,-2.43657 3.24238,-4.23208 2.23679,-1.79552 4.9943,-3.31075 11.72872,-0.36946 l 0.34714,0.14786 0.3619,0.10323 c 0,0 20.70288,5.80151 38.20696,5.39908 l 0.50962,-0.0151 0.50224,-0.1108 c 0,0 13.71718,-3.74624 25.2005,11.18216 l 0.39883,0.51701 0.5244,0.39884 c 0,0 7.9889,6.26906 14.80861,14.65351 0.009,0.0113 0.0136,0.004 0.0223,0.0151 0.5028,0.80059 7.18812,11.37911 18.70095,22.18704 11.95342,11.22161 29.14943,22.70054 49.69934,21.6627 l -0.45054,0.008 c 0,0 7.50383,0.28248 15.28131,0.37664 3.88874,0.0473 7.83996,0.0511 11.04922,-0.059 1.60463,-0.0552 3.01584,-0.13463 4.24686,-0.27341 0.61551,-0.0696 1.17378,-0.15088 1.80215,-0.29534 0.62836,-0.14445 1.24455,-0.0563 2.72537,-1.24084 l -6.41097,-8.02099 c 1.24768,-0.99799 1.4022,-0.74171 1.38854,-0.73857 -0.0136,0.003 -0.2784,0.0533 -0.65734,0.096 -0.75789,0.0855 -1.99397,0.1645 -3.44919,0.21403 -2.91044,0.0998 -6.76457,0.0979 -10.56914,0.0518 -7.60915,-0.0923 -15.02281,-0.36946 -15.02281,-0.36946 l -0.22897,-0.008 -0.22156,0.0151 c -16.378,0.82714 -31.26497,-8.67393 -42.15839,-18.90038 -10.89341,-10.22649 -17.38627,-20.65083 -17.38627,-20.65083 l -0.16987,-0.2734 -0.20681,-0.2511 C 220.8055,438.96951 212.035,432.18038 212.035,432.18038 l 0.91585,0.91581 c -14.62716,-19.01542 -35.59976,-14.92676 -35.59976,-14.92676 l 1.01186,-0.12555 c -14.94777,0.34374 -35.27479,-5.04452 -35.27479,-5.04452 l 0.70905,0.2511 c -4.74574,-2.07286 -9.16032,-2.5589 -12.96216,-2.06068 z"
       id="path6733-4"
       inkscape:connector-curvature="0" />
    <path
       style="color:#000000;font-style:normal;font-variant:normal;font-weight:normal;font-stretch:normal;font-size:medium;line-height:normal;font-family:sans-serif;font-variant-ligatures:normal;font-variant-position:normal;font-variant-caps:normal;font-variant-numeric:normal;font-variant-alternates:normal;font-feature-settings:normal;text-indent:0;text-align:start;text-decoration:none;text-decoration-line:none;text-decoration-style:solid;text-decoration-color:#000000;letter-spacing:normal;word-spacing:normal;text-transform:none;writing-mode:lr-tb;direction:ltr;text-orientation:mixed;dominant-baseline:auto;baseline-shift:baseline;text-anchor:start;white-space:normal;shape-padding:0;clip-rule:nonzero;display:inline;overflow:visible;visibility:visible;opacity:1;isolation:auto;mix-blend-mode:normal;color-interpolation:sRGB;color-interpolation-filters:linearRGB;solid-color:#000000;solid-opacity:1;vector-effect:none;fill:#000000;fill-opacity:1;fill-rule:nonzero;stroke:none;stroke-width:10.26350689;stroke-linecap:butt;stroke-linejoin:miter;stroke-miterlimit:4;stroke-dasharray:none;stroke-dashoffset:0;stroke-opacity:1;color-rendering:auto;image-rendering:auto;shape-rendering:auto;text-rendering:auto;enable-background:accumulate"
       d="m 108.28594,570.2869 c -1.07825,0.82941 -3.94099,1.57403 -6.54386,1.69138 -2.602878,0.11722 -4.623538,-0.16261 -4.623538,-0.16261 l -1.462398,10.15551 c 0,0 2.920783,0.42187 6.543856,0.25865 3.62308,-0.16336 8.27673,-0.68412 12.34174,-3.81108 z"
       id="path6735-9"
       inkscape:connector-curvature="0" />
    <path
       style="color:#000000;font-style:normal;font-variant:normal;font-weight:normal;font-stretch:normal;font-size:medium;line-height:normal;font-family:sans-serif;font-variant-ligatures:normal;font-variant-position:normal;font-variant-caps:normal;font-variant-numeric:normal;font-variant-alternates:normal;font-feature-settings:normal;text-indent:0;text-align:start;text-decoration:none;text-decoration-line:none;text-decoration-style:solid;text-decoration-color:#000000;letter-spacing:normal;word-spacing:normal;text-transform:none;writing-mode:lr-tb;direction:ltr;text-orientation:mixed;dominant-baseline:auto;baseline-shift:baseline;text-anchor:start;white-space:normal;shape-padding:0;clip-rule:nonzero;display:inline;overflow:visible;visibility:visible;opacity:1;isolation:auto;mix-blend-mode:normal;color-interpolation:sRGB;color-interpolation-filters:linearRGB;solid-color:#000000;solid-opacity:1;vector-effect:none;fill:#000000;fill-opacity:1;fill-rule:nonzero;stroke:none;stroke-width:10.26350689;stroke-linecap:butt;stroke-linejoin:miter;stroke-miterlimit:4;stroke-dasharray:none;stroke-dashoffset:0;stroke-opacity:1;color-rendering:auto;image-rendering:auto;shape-rendering:auto;text-rendering:auto;enable-background:accumulate"
       d="m 106.55026,530.10792 c 0.63869,-0.46445 -0.32971,0.12139 -1.59534,0.37664 -1.26563,0.25526 -2.93749,0.46717 -4.5423,0.61303 -3.209602,0.29156 -6.122856,0.33958 -6.122856,0.33958 l 0.162493,10.25893 c 0,0 3.227524,-0.0511 6.890993,-0.38405 1.83173,-0.16639 3.77961,-0.39366 5.6354,-0.76811 1.85578,-0.37437 3.51646,-0.61511 5.60585,-2.13453 z"
       id="path6737-4"
       inkscape:connector-curvature="0" />
    <path
       style="color:#000000;font-style:normal;font-variant:normal;font-weight:normal;font-stretch:normal;font-size:medium;line-height:normal;font-family:sans-serif;font-variant-ligatures:normal;font-variant-position:normal;font-variant-caps:normal;font-variant-numeric:normal;font-variant-alternates:normal;font-feature-settings:normal;text-indent:0;text-align:start;text-decoration:none;text-decoration-line:none;text-decoration-style:solid;text-decoration-color:#000000;letter-spacing:normal;word-spacing:normal;text-transform:none;writing-mode:lr-tb;direction:ltr;text-orientation:mixed;dominant-baseline:auto;baseline-shift:baseline;text-anchor:start;white-space:normal;shape-padding:0;clip-rule:nonzero;display:inline;overflow:visible;visibility:visible;opacity:1;isolation:auto;mix-blend-mode:normal;color-interpolation:sRGB;color-interpolation-filters:linearRGB;solid-color:#000000;solid-opacity:1;vector-effect:none;fill:#000000;fill-opacity:1;fill-rule:nonzero;stroke:none;stroke-width:10.26350689;stroke-linecap:butt;stroke-linejoin:miter;stroke-miterlimit:4;stroke-dasharray:none;stroke-dashoffset:0;stroke-opacity:1;color-rendering:auto;image-rendering:auto;shape-rendering:auto;text-rendering:auto;enable-background:accumulate"
       d="m 111.3806,481.1841 c -0.13738,0.29345 -4.01365,3.5367 -8.00625,5.36213 -3.992599,1.82543 -7.703435,2.96171 -7.703435,2.96171 l 2.991267,9.81581 c 0,0 4.268488,-1.29454 8.981188,-3.44919 4.71269,-2.15469 10.26464,-4.43535 13.02862,-10.3402 z"
       id="path6739-0"
       inkscape:connector-curvature="0" />
    <path
       style="color:#000000;font-style:normal;font-variant:normal;font-weight:normal;font-stretch:normal;font-size:medium;line-height:normal;font-family:sans-serif;font-variant-ligatures:normal;font-variant-position:normal;font-variant-caps:normal;font-variant-numeric:normal;font-variant-alternates:normal;font-feature-settings:normal;text-indent:0;text-align:start;text-decoration:none;text-decoration-line:none;text-decoration-style:solid;text-decoration-color:#000000;letter-spacing:normal;word-spacing:normal;text-transform:none;writing-mode:lr-tb;direction:ltr;text-orientation:mixed;dominant-baseline:auto;baseline-shift:baseline;text-anchor:start;white-space:normal;shape-padding:0;clip-rule:nonzero;display:inline;overflow:visible;visibility:visible;opacity:1;isolation:auto;mix-blend-mode:normal;color-interpolation:sRGB;color-interpolation-filters:linearRGB;solid-color:#000000;solid-opacity:1;vector-effect:none;fill:#000000;fill-opacity:1;fill-rule:nonzero;stroke:none;stroke-width:10.26350689;stroke-linecap:butt;stroke-linejoin:miter;stroke-miterlimit:4;stroke-dasharray:none;stroke-dashoffset:0;stroke-opacity:1;color-rendering:auto;image-rendering:auto;shape-rendering:auto;text-rendering:auto;enable-background:accumulate"
       d="m 183.7397,431.86885 c -3.55713,0.36492 -7.97759,0.72867 -11.64009,0.90844 -1.83124,0.09 -3.48472,0.13085 -4.66785,0.1108 -1.18313,-0.0189 -2.40259,-0.48101 -1.03402,0.0666 l -0.52439,-0.20685 -0.55394,-0.096 c -4.91388,-0.80244 -8.528,-0.878 -11.03445,-0.70904 -2.39632,0.16147 -4.01229,0.67002 -4.16561,0.71642 -12.75295,2.51042 -25.5107,8.63403 -25.5107,8.63403 l 0.42837,-0.17735 c -7.19359,2.6686 -14.14174,8.41932 -19.79405,13.5161 -5.652318,5.09673 -9.808402,9.6459 -9.808402,9.6459 l 7.570492,6.93529 c 0,0 3.85594,-4.21764 9.11413,-8.95902 5.25818,-4.74135 12.11556,-9.9009 16.4852,-11.5219 l 0.22156,-0.0737 0.20681,-0.10324 c 0,0 12.62069,-5.92958 23.53868,-7.97669 l 0.38407,-0.0737 0.36189,-0.12554 c 0,0 0.0185,-0.0813 1.66181,-0.19211 1.64328,-0.1108 4.4609,-0.0915 8.68576,0.59824 l -1.07834,-0.3029 c 2.30106,0.92047 3.11327,0.64555 4.67524,0.6721 1.56197,0.0265 3.37118,-0.0303 5.33996,-0.12555 3.93758,-0.19324 8.47008,-0.57158 12.18664,-0.9528 z"
       id="path6741-3"
       inkscape:connector-curvature="0" />
    <path
       style="color:#000000;font-style:normal;font-variant:normal;font-weight:normal;font-stretch:normal;font-size:medium;line-height:normal;font-family:sans-serif;font-variant-ligatures:normal;font-variant-position:normal;font-variant-caps:normal;font-variant-numeric:normal;font-variant-alternates:normal;font-feature-settings:normal;text-indent:0;text-align:start;text-decoration:none;text-decoration-line:none;text-decoration-style:solid;text-decoration-color:#000000;letter-spacing:normal;word-spacing:normal;text-transform:none;writing-mode:lr-tb;direction:ltr;text-orientation:mixed;dominant-baseline:auto;baseline-shift:baseline;text-anchor:start;white-space:normal;shape-padding:0;clip-rule:nonzero;display:inline;overflow:visible;visibility:visible;opacity:1;isolation:auto;mix-blend-mode:normal;color-interpolation:sRGB;color-interpolation-filters:linearRGB;solid-color:#000000;solid-opacity:1;vector-effect:none;fill:#000000;fill-opacity:1;fill-rule:nonzero;stroke:none;stroke-width:10.26350689;stroke-linecap:butt;stroke-linejoin:miter;stroke-miterlimit:4;stroke-dasharray:none;stroke-dashoffset:0;stroke-opacity:1;color-rendering:auto;image-rendering:auto;shape-rendering:auto;text-rendering:auto;enable-background:accumulate"
       d="m 123.0133,541.84404 c -4.7445,6.26951 -4.97679,13.4872 -3.65599,18.81174 0.6604,2.66225 1.65896,4.92884 2.74015,6.75064 1.08119,1.82184 1.39214,3.10019 4.29117,4.5497 l 4.594,-9.18063 c 1.84401,0.92202 0.50819,0.35017 -0.0591,-0.60561 -0.56728,-0.9559 -1.21549,-2.39754 -1.61011,-3.98837 -0.78924,-3.18164 -0.75733,-6.65125 1.88339,-10.14076 z"
       id="path6751-2"
       inkscape:connector-curvature="0" />
    <path
       style="color:#000000;font-style:normal;font-variant:normal;font-weight:normal;font-stretch:normal;font-size:medium;line-height:normal;font-family:sans-serif;font-variant-ligatures:normal;font-variant-position:normal;font-variant-caps:normal;font-variant-numeric:normal;font-variant-alternates:normal;font-feature-settings:normal;text-indent:0;text-align:start;text-decoration:none;text-decoration-line:none;text-decoration-style:solid;text-decoration-color:#000000;letter-spacing:normal;word-spacing:normal;text-transform:none;writing-mode:lr-tb;direction:ltr;text-orientation:mixed;dominant-baseline:auto;baseline-shift:baseline;text-anchor:start;white-space:normal;shape-padding:0;clip-rule:nonzero;display:inline;overflow:visible;visibility:visible;opacity:1;isolation:auto;mix-blend-mode:normal;color-interpolation:sRGB;color-interpolation-filters:linearRGB;solid-color:#000000;solid-opacity:1;vector-effect:none;fill:#000000;fill-opacity:1;fill-rule:nonzero;stroke:none;stroke-width:10.26350689;stroke-linecap:butt;stroke-linejoin:miter;stroke-miterlimit:4;stroke-dasharray:none;stroke-dashoffset:0;stroke-opacity:1;color-rendering:auto;image-rendering:auto;shape-rendering:auto;text-rendering:auto;enable-background:accumulate"
       d="m 125.97503,489.79598 c -7.46178,6.07347 -7.9449,15.25686 -6.61033,21.67748 1.33457,6.42058 4.29117,11.3077 4.29117,11.3077 l 8.82608,-5.24395 c 0,0 -2.13706,-3.68905 -3.06512,-8.15397 -0.92807,-4.46491 -0.84427,-8.46735 3.03558,-11.62532 z"
       id="path6753-1"
       inkscape:connector-curvature="0" />
    <path
       style="color:#000000;font-style:normal;font-variant:normal;font-weight:normal;font-stretch:normal;font-size:medium;line-height:normal;font-family:sans-serif;font-variant-ligatures:normal;font-variant-position:normal;font-variant-caps:normal;font-variant-numeric:normal;font-variant-alternates:normal;font-feature-settings:normal;text-indent:0;text-align:start;text-decoration:none;text-decoration-line:none;text-decoration-style:solid;text-decoration-color:#000000;letter-spacing:normal;word-spacing:normal;text-transform:none;writing-mode:lr-tb;direction:ltr;text-orientation:mixed;dominant-baseline:auto;baseline-shift:baseline;text-anchor:start;white-space:normal;shape-padding:0;clip-rule:nonzero;display:inline;overflow:visible;visibility:visible;opacity:1;isolation:auto;mix-blend-mode:normal;color-interpolation:sRGB;color-interpolation-filters:linearRGB;solid-color:#000000;solid-opacity:1;vector-effect:none;fill:#000000;fill-opacity:1;fill-rule:nonzero;stroke:none;stroke-width:10.26350689;stroke-linecap:butt;stroke-linejoin:miter;stroke-miterlimit:4;stroke-dasharray:none;stroke-dashoffset:0;stroke-opacity:1;color-rendering:auto;image-rendering:auto;shape-rendering:auto;text-rendering:auto;enable-background:accumulate"
       d="m 125.9381,441.14545 c -5.0408,4.69071 -4.90437,11.46041 -3.58952,15.71707 1.31485,4.25667 3.64861,7.3046 3.64861,7.3046 l 8.23521,-6.12286 c 0,0 -1.36955,-1.92477 -2.07542,-4.20993 -0.70587,-2.28515 -0.90526,-3.6203 0.76813,-5.17747 z"
       id="path6755-2"
       inkscape:connector-curvature="0" />
    <path
       style="color:#000000;font-style:normal;font-variant:normal;font-weight:normal;font-stretch:normal;font-size:medium;line-height:normal;font-family:sans-serif;font-variant-ligatures:normal;font-variant-position:normal;font-variant-caps:normal;font-variant-numeric:normal;font-variant-alternates:normal;font-feature-settings:normal;text-indent:0;text-align:start;text-decoration:none;text-decoration-line:none;text-decoration-style:solid;text-decoration-color:#000000;letter-spacing:normal;word-spacing:normal;text-transform:none;writing-mode:lr-tb;direction:ltr;text-orientation:mixed;dominant-baseline:auto;baseline-shift:baseline;text-anchor:start;white-space:normal;shape-padding:0;clip-rule:nonzero;display:inline;overflow:visible;visibility:visible;opacity:1;isolation:auto;mix-blend-mode:normal;color-interpolation:sRGB;color-interpolation-filters:linearRGB;solid-color:#000000;solid-opacity:1;vector-effect:none;fill:#000000;fill-opacity:1;fill-rule:nonzero;stroke:none;stroke-width:10.26350689;stroke-linecap:butt;stroke-linejoin:miter;stroke-miterlimit:4;stroke-dasharray:none;stroke-dashoffset:0;stroke-opacity:1;color-rendering:auto;image-rendering:auto;shape-rendering:auto;text-rendering:auto;enable-background:accumulate"
       d="m 118.35284,584.75576 c -0.77618,8.09449 1.90209,14.33866 5.0076,18.25041 1.55275,1.95589 3.18297,3.36671 4.53491,4.35026 1.35193,0.98358 2.01026,1.3952 3.17591,1.86124 l 3.81109,-9.52773 c 0.69938,0.27945 -0.22984,-0.10173 -0.95277,-0.62778 -0.72292,-0.52597 -1.66155,-1.3392 -2.53334,-2.43736 -1.7436,-2.19625 -3.35074,-5.37373 -2.8214,-10.89408 z"
       id="path6757-0"
       inkscape:connector-curvature="0" />
    <path
       style="color:#000000;font-style:normal;font-variant:normal;font-weight:normal;font-stretch:normal;font-size:medium;line-height:normal;font-family:sans-serif;font-variant-ligatures:normal;font-variant-position:normal;font-variant-caps:normal;font-variant-numeric:normal;font-variant-alternates:normal;font-feature-settings:normal;text-indent:0;text-align:start;text-decoration:none;text-decoration-line:none;text-decoration-style:solid;text-decoration-color:#000000;letter-spacing:normal;word-spacing:normal;text-transform:none;writing-mode:lr-tb;direction:ltr;text-orientation:mixed;dominant-baseline:auto;baseline-shift:baseline;text-anchor:start;white-space:normal;shape-padding:0;clip-rule:nonzero;display:inline;overflow:visible;visibility:visible;opacity:1;isolation:auto;mix-blend-mode:normal;color-interpolation:sRGB;color-interpolation-filters:linearRGB;solid-color:#000000;solid-opacity:1;vector-effect:none;fill:#000000;fill-opacity:1;fill-rule:nonzero;stroke:none;stroke-width:7.18445492;stroke-linecap:butt;stroke-linejoin:miter;stroke-miterlimit:4;stroke-dasharray:none;stroke-dashoffset:0;stroke-opacity:1;color-rendering:auto;image-rendering:auto;shape-rendering:auto;text-rendering:auto;enable-background:accumulate"
       d="m 364.57251,334.45454 c -0.004,-3.8e-4 -0.64763,-0.0151 -0.87127,0.0151 -0.44732,0.062 -0.69256,0.15277 -0.87887,0.22689 -0.74538,0.29761 -0.80786,0.43461 -0.99251,0.56825 -0.57563,0.41673 -0.80925,0.66068 -0.97734,0.81826 -0.21593,0.13575 -23.90368,15.69215 -42.68547,28.42667 0.3774,-0.63087 0.86987,-1.42606 1.18949,-1.96984 0.52733,-0.89722 0.95401,-1.64328 1.27279,-2.23509 0.15958,-0.2961 0.284,-0.52976 0.42429,-0.8485 0.0703,-0.15959 0.15013,-0.28551 0.26547,-0.76528 0.0265,-0.11987 0.0605,-0.27189 0.0836,-0.49243 0.0113,-0.11004 0.0227,-0.23332 0.0227,-0.39404 -8.3e-4,-0.16071 -0.0529,-0.59631 -0.0533,-0.5985 -3.8e-4,-0.002 -0.2719,-0.87721 -0.27265,-0.87888 -7.6e-4,-0.002 -0.7793,-1.10508 -0.78036,-1.10614 -10e-4,-10e-4 -1.34714,-0.82528 -1.34862,-0.82581 -10e-4,-4.9e-4 -1.30131,-0.18189 -1.30312,-0.18189 h -0.008 -0.008 c -18.56832,0.82974 -33.05764,16.09246 -43.74619,38.62453 -10.68848,22.532 -17.43934,49.23947 -21.54755,82.66161 l 2.97956,2.0608 1.49712,140.74669 -3.85181,1.08133 c 4.47936,31.213 11.86946,58.83096 22.62717,79.27883 10.75769,20.44779 25.33602,33.88924 43.62496,33.88924 11.92074,0 22.49607,-5.50829 31.24511,-14.69829 8.749,-9.18985 15.88739,-22.04481 21.72153,-37.44257 11.66824,-30.79541 18.07222,-71.87606 19.57743,-114.54009 1.50525,-42.6641 -1.91112,-86.87078 -10.17506,-123.79093 -7.81162,-34.89888 -19.88838,-62.94245 -37.22294,-77.51424 13.05978,-13.57388 19.16853,-20.91591 20.98973,-23.11666 0.0938,-0.11345 -0.85637,-0.98438 0.16185,-0.71014 v 0 l 0.94104,-5.36496 c -0.27454,-0.25223 -0.55944,-0.5146 -0.56062,-0.5152 -0.003,-0.001 -1.33727,-0.40879 -1.34105,-0.40917 z m -24.16877,23.86571 c -2.01144,2.09699 -1.11669,1.24852 -3.57606,3.79573 l -2.88657,2.98516 3.37148,2.42443 c 16.12718,11.60289 29.18734,39.99115 37.27588,76.12777 8.08866,36.13658 11.49399,79.86054 10.00848,121.96497 -1.48547,42.10444 -7.88453,82.63128 -19.10768,112.25206 -5.61156,14.81041 -12.43764,26.8652 -20.21391,35.03335 -7.77623,8.16811 -16.28623,12.47073 -26.04006,12.47073 -14.77895,0 -27.13475,-10.79395 -37.26832,-30.05558 -10.13369,-19.26168 -17.62517,-47.25382 -22.02996,-77.94712 l -3.10193,0.93605 -1.49712,-140.74669 3.61207,2.18551 c 4.04618,-32.91716 11.29367,-62.42468 21.44877,-83.83227 8.38585,-17.67784 18.56125,-28.80014 30.13896,-32.66942 -0.44218,0.72776 -0.77692,1.29756 -1.23498,2.04559 -2.8601,4.67154 -5.78082,9.35688 -5.78082,9.35688 l 5.17479,4.78832 c 10.96101,-8.08992 19.42484,-13.17338 31.70717,-21.11547 z"
       id="path7491"
       inkscape:connector-curvature="0"
       sodipodi:nodetypes="ccccccccccccccsssccsccccsscsssccccccccccccssscssccccccccccc" />
    <path
       style="color:#000000;font-style:normal;font-variant:normal;font-weight:normal;font-stretch:normal;font-size:medium;line-height:normal;font-family:sans-serif;font-variant-ligatures:normal;font-variant-position:normal;font-variant-caps:normal;font-variant-numeric:normal;font-variant-alternates:normal;font-feature-settings:normal;text-indent:0;text-align:start;text-decoration:none;text-decoration-line:none;text-decoration-style:solid;text-decoration-color:#000000;letter-spacing:normal;word-spacing:normal;text-transform:none;writing-mode:lr-tb;direction:ltr;text-orientation:mixed;dominant-baseline:auto;baseline-shift:baseline;text-anchor:start;white-space:normal;shape-padding:0;clip-rule:nonzero;display:inline;overflow:visible;visibility:visible;opacity:1;isolation:auto;mix-blend-mode:normal;color-interpolation:sRGB;color-interpolation-filters:linearRGB;solid-color:#000000;solid-opacity:1;vector-effect:none;fill:#000000;fill-opacity:1;fill-rule:nonzero;stroke:none;stroke-width:7.18445492;stroke-linecap:butt;stroke-linejoin:miter;stroke-miterlimit:4;stroke-dasharray:none;stroke-dashoffset:0;stroke-opacity:1;color-rendering:auto;image-rendering:auto;shape-rendering:auto;text-rendering:auto;enable-background:accumulate"
       d="m 371.14125,283.71539 -15.72864,18.00907 c -3.87212,-0.31311 -8.00767,-0.21895 -10.59179,0.0752 h -0.0151 -0.0227 c -27.54437,3.42715 -49.2487,25.01553 -65.2329,56.3003 -15.9842,31.28474 -26.05489,68.71245 -31.375,113.35919 l 3.10564,3.04199 4.32159,144.07786 -6.89827,2.3412 c 5.95375,44.10756 17.16844,83.42752 34.2325,112.92411 17.06406,29.49665 40.38197,48.57235 69.58171,48.57235 35.26032,0 61.96756,-26.1836 80.04474,-65.0359 18.07725,-38.85233 28.11194,-90.84435 30.60867,-144.94425 2.4968,-54.09989 -2.57233,-110.28157 -15.07701,-157.42257 C 435.59,367.87298 415.79172,329.57434 387.61981,311.73997 l -2.50777,-1.59105 -16.81962,17.9182 c 0.89362,-4.46083 1.91044,-9.38774 3.09115,-14.77399 2.89183,-13.19247 5.96264,-26.39621 5.96264,-26.39621 z m -3.92457,15.41795 c -1.11242,4.87797 -1.47182,6.30634 -2.85632,12.62233 -1.45264,6.62675 -2.85537,13.25358 -3.8185,18.27427 -0.48154,2.51042 -0.85255,4.60861 -1.06828,6.18234 -0.10778,0.7869 -0.17925,1.41899 -0.19702,2.06836 -0.008,0.32483 -0.0389,0.61526 0.0752,1.21225 0.0571,0.29874 0.1142,0.69494 0.53036,1.35614 0.4162,0.66132 1.70919,1.71232 3.09876,1.71232 l -2.5381,-1.05316 2.62144,2.62145 2.5381,-2.69719 20.36539,-21.69885 c 24.35493,16.84171 43.28772,52.29383 55.17896,97.12196 12.26471,46.23639 17.31523,101.82652 14.84974,155.24819 -2.4655,53.42167 -12.47375,104.70363 -29.94198,142.24702 -17.46816,37.54349 -41.81704,60.87649 -73.53658,60.87649 -26.09625,0 -47.03009,-16.751 -63.36148,-44.98119 -16.33137,-28.23012 -27.68623,-68.18606 -33.55531,-111.6666 l -4.3216,-144.07786 3.37273,2.83015 c 5.24898,-44.05001 15.89367,-85.82049 31.29181,-115.95821 15.3931,-30.12781 35.38756,-49.39999 59.70215,-52.43631 2.98035,-0.33883 7.8691,-0.69562 10.82665,-0.15921 l 2.00018,0.36303 z"
       id="path7491-0"
       inkscape:connector-curvature="0"
       sodipodi:nodetypes="cccccsccccssssscccccccccccccccccccsssccccscccc" />
    <path
       style="color:#000000;font-style:normal;font-variant:normal;font-weight:normal;font-stretch:normal;font-size:medium;line-height:normal;font-family:sans-serif;font-variant-ligatures:normal;font-variant-position:normal;font-variant-caps:normal;font-variant-numeric:normal;font-variant-alternates:normal;font-feature-settings:normal;text-indent:0;text-align:start;text-decoration:none;text-decoration-line:none;text-decoration-style:solid;text-decoration-color:#000000;letter-spacing:normal;word-spacing:normal;text-transform:none;writing-mode:lr-tb;direction:ltr;text-orientation:mixed;dominant-baseline:auto;baseline-shift:baseline;text-anchor:start;white-space:normal;shape-padding:0;clip-rule:nonzero;display:inline;overflow:visible;visibility:visible;opacity:1;isolation:auto;mix-blend-mode:normal;color-interpolation:sRGB;color-interpolation-filters:linearRGB;solid-color:#000000;solid-opacity:1;vector-effect:none;fill:#000000;fill-opacity:1;fill-rule:nonzero;stroke:none;stroke-width:8.43945122;stroke-linecap:butt;stroke-linejoin:miter;stroke-miterlimit:4;stroke-dasharray:none;stroke-dashoffset:0;stroke-opacity:1;color-rendering:auto;image-rendering:auto;shape-rendering:auto;text-rendering:auto;enable-background:accumulate"
       d="m 160.25742,55.5426 c -20.13828,0.0796 -40.05455,9.60763 -59.81168,27.30145 l -8.172616,7.31953 10.970326,0.0438 124.00849,0.5 -7.6597,-7.3144 C 200.21206,64.88754 180.39562,55.46299 160.25742,55.54259 Z m 0.0337,8.4394 c 14.8207,-0.0585 29.73117,5.7893 45.09264,18.19838 l -90.39272,-0.3647 C 130.56034,69.96293 145.57956,64.04011 160.29112,63.982 Z"
       id="path29-3-1-9-3"
       inkscape:connector-curvature="0" />
    <path
       style="color:#000000;font-style:normal;font-variant:normal;font-weight:normal;font-stretch:normal;font-size:medium;line-height:normal;font-family:sans-serif;font-variant-ligatures:normal;font-variant-position:normal;font-variant-caps:normal;font-variant-numeric:normal;font-variant-alternates:normal;font-feature-settings:normal;text-indent:0;text-align:start;text-decoration:none;text-decoration-line:none;text-decoration-style:solid;text-decoration-color:#000000;letter-spacing:normal;word-spacing:normal;text-transform:none;writing-mode:lr-tb;direction:ltr;text-orientation:mixed;dominant-baseline:auto;baseline-shift:baseline;text-anchor:start;white-space:normal;shape-padding:0;clip-rule:nonzero;display:inline;overflow:visible;visibility:visible;opacity:1;isolation:auto;mix-blend-mode:normal;color-interpolation:sRGB;color-interpolation-filters:linearRGB;solid-color:#000000;solid-opacity:1;vector-effect:none;fill:#000000;fill-opacity:1;fill-rule:nonzero;stroke:none;stroke-width:8.43945122;stroke-linecap:butt;stroke-linejoin:miter;stroke-miterlimit:4;stroke-dasharray:none;stroke-dashoffset:0;stroke-opacity:1;color-rendering:auto;image-rendering:auto;shape-rendering:auto;text-rendering:auto;enable-background:accumulate"
       d="m 103.02949,-116.99282 c -15.770926,0.14891 -31.518876,7.63812 -51.580956,21.9909 l 4.91109,6.86337 c 19.48509,-13.94004 33.61762,-20.29087 46.749766,-20.41487 13.13216,-0.12399 26.18238,5.91534 43.70477,18.68809 l 4.9716,-6.81957 c -18.11074,-13.20161 -32.98535,-20.45683 -48.75627,-20.30792 z"
       id="path59-17-2-4-5"
       inkscape:connector-curvature="0" />
    <path
       style="color:#000000;font-style:normal;font-variant:normal;font-weight:normal;font-stretch:normal;font-size:medium;line-height:normal;font-family:sans-serif;font-variant-ligatures:normal;font-variant-position:normal;font-variant-caps:normal;font-variant-numeric:normal;font-variant-alternates:normal;font-feature-settings:normal;text-indent:0;text-align:start;text-decoration:none;text-decoration-line:none;text-decoration-style:solid;text-decoration-color:#000000;letter-spacing:normal;word-spacing:normal;text-transform:none;writing-mode:lr-tb;direction:ltr;text-orientation:mixed;dominant-baseline:auto;baseline-shift:baseline;text-anchor:start;white-space:normal;shape-padding:0;clip-rule:nonzero;display:inline;overflow:visible;visibility:visible;opacity:1;isolation:auto;mix-blend-mode:normal;color-interpolation:sRGB;color-interpolation-filters:linearRGB;solid-color:#000000;solid-opacity:1;vector-effect:none;fill:#000000;fill-opacity:1;fill-rule:nonzero;stroke:none;stroke-width:8.43945122;stroke-linecap:butt;stroke-linejoin:miter;stroke-miterlimit:4;stroke-dasharray:none;stroke-dashoffset:0;stroke-opacity:1;color-rendering:auto;image-rendering:auto;shape-rendering:auto;text-rendering:auto;enable-background:accumulate"
       d="m 154.74709,-17.6865 c 0,0 -0.95246,9.39313 -2.52706,19.26023 -0.78726,4.93357 -1.73472,9.98569 -2.75383,13.91102 -0.50955,1.96268 -1.04393,3.64835 -1.52188,4.81055 -0.47801,1.16222 -1.09545,1.77025 -0.65206,1.40078 -0.93393,0.77822 -1.92205,1.42679 -2.43946,3.49611 -0.2587,1.03467 -0.11151,2.57697 0.54895,3.65334 0.66052,1.07637 1.5195,1.60292 2.16888,1.90849 2.59739,1.2223 3.93103,0.75325 5.69709,0.63144 3.53213,-0.2436 7.35692,-1.0322 7.35692,-1.0322 l -1.65461,-8.27445 c 0,0 -1.80412,0.2293 -2.89563,0.4085 0.55971,-1.50055 1.08813,-3.06653 1.55929,-4.88142 1.13886,-4.38665 2.10889,-9.6188 2.9201,-14.70226 1.62243,-10.16695 2.58889,-19.74091 2.58889,-19.74091 z"
       id="path971-9-5-8-6"
       inkscape:connector-curvature="0" />
    <path
       style="color:#000000;font-style:normal;font-variant:normal;font-weight:normal;font-stretch:normal;font-size:medium;line-height:normal;font-family:sans-serif;font-variant-ligatures:normal;font-variant-position:normal;font-variant-caps:normal;font-variant-numeric:normal;font-variant-alternates:normal;font-feature-settings:normal;text-indent:0;text-align:start;text-decoration:none;text-decoration-line:none;text-decoration-style:solid;text-decoration-color:#000000;letter-spacing:normal;word-spacing:normal;text-transform:none;writing-mode:lr-tb;direction:ltr;text-orientation:mixed;dominant-baseline:auto;baseline-shift:baseline;text-anchor:start;white-space:normal;shape-padding:0;clip-rule:nonzero;display:inline;overflow:visible;visibility:visible;opacity:1;isolation:auto;mix-blend-mode:normal;color-interpolation:sRGB;color-interpolation-filters:linearRGB;solid-color:#000000;solid-opacity:1;vector-effect:none;fill:#000000;fill-opacity:1;fill-rule:nonzero;stroke:none;stroke-width:8.43945122;stroke-linecap:butt;stroke-linejoin:miter;stroke-miterlimit:4;stroke-dasharray:none;stroke-dashoffset:0;stroke-opacity:1;color-rendering:auto;image-rendering:auto;shape-rendering:auto;text-rendering:auto;enable-background:accumulate"
       d="m 213.04455,-117.00957 c -15.84523,0.29073 -30.37436,8.34093 -47.92764,21.43291 l 5.04509,6.76544 c 17.0826,-12.74091 29.97933,-19.52066 43.03719,-19.76023 13.05785,-0.23958 27.31675,5.99639 47.25499,21.42002 l 5.16363,-6.67524 c -20.60651,-15.94059 -36.728,-23.47362 -52.57326,-23.1829 z"
       id="path59-17-5-5-9-3"
       inkscape:connector-curvature="0" />
    <path
       style="color:#000000;font-style:normal;font-variant:normal;font-weight:normal;font-stretch:normal;font-size:medium;line-height:normal;font-family:sans-serif;font-variant-ligatures:normal;font-variant-position:normal;font-variant-caps:normal;font-variant-numeric:normal;font-variant-alternates:normal;font-feature-settings:normal;text-indent:0;text-align:start;text-decoration:none;text-decoration-line:none;text-decoration-style:solid;text-decoration-color:#000000;letter-spacing:normal;word-spacing:normal;text-transform:none;writing-mode:lr-tb;direction:ltr;text-orientation:mixed;dominant-baseline:auto;baseline-shift:baseline;text-anchor:start;white-space:normal;shape-padding:0;clip-rule:nonzero;display:inline;overflow:visible;visibility:visible;opacity:1;isolation:auto;mix-blend-mode:normal;color-interpolation:sRGB;color-interpolation-filters:linearRGB;solid-color:#000000;solid-opacity:1;vector-effect:none;fill:#000000;fill-opacity:1;fill-rule:nonzero;stroke:none;stroke-width:8.43945122;stroke-linecap:butt;stroke-linejoin:miter;stroke-miterlimit:4;stroke-dasharray:none;stroke-dashoffset:0;stroke-opacity:1;color-rendering:auto;image-rendering:auto;shape-rendering:auto;text-rendering:auto;enable-background:accumulate"
       d="m 101.18029,-90.41301 c -8.373856,0.0819 -15.145826,3.44906 -19.507636,8.48708 -4.37495,5.05321 -6.41067,11.57416 -6.35181,17.99605 0.0587,6.42191 2.20951,12.8665 6.63789,17.76669 4.41506,4.88543 11.1929,8.01181 19.395556,7.75641 8.0451,-0.0211 14.59029,-3.4359 18.74605,-8.47934 4.16857,-5.05901 6.08394,-11.538 6.04251,-17.92647 -0.0416,-6.38849 -2.03763,-12.80678 -6.25126,-17.74092 -4.20386,-4.92272 -10.77789,-8.13535 -18.7113,-7.8595 z m 0.25772,8.42908 c 5.65923,-0.20819 9.35162,1.76763 12.03605,4.91106 2.68442,3.14345 4.19931,7.68225 4.22939,12.31438 0.0304,4.63215 -1.42224,9.23604 -4.11597,12.50511 -2.69373,3.2691 -6.48008,5.41494 -12.30406,5.41494 h -0.0709 l -0.0708,0.003 c -6.057466,0.20351 -10.077056,-1.83851 -12.921356,-4.9858 -2.84428,-3.14732 -4.41815,-7.61921 -4.45998,-12.18553 -0.0422,-4.56631 1.44514,-9.10678 4.29247,-12.39555 2.84739,-3.2888 6.97386,-5.53203 13.261536,-5.57861 h 0.062 z"
       id="path87-11-8-6"
       inkscape:connector-curvature="0" />
    <path
       style="color:#000000;font-style:normal;font-variant:normal;font-weight:normal;font-stretch:normal;font-size:medium;line-height:normal;font-family:sans-serif;font-variant-ligatures:normal;font-variant-position:normal;font-variant-caps:normal;font-variant-numeric:normal;font-variant-alternates:normal;font-feature-settings:normal;text-indent:0;text-align:start;text-decoration:none;text-decoration-line:none;text-decoration-style:solid;text-decoration-color:#000000;letter-spacing:normal;word-spacing:normal;text-transform:none;writing-mode:lr-tb;direction:ltr;text-orientation:mixed;dominant-baseline:auto;baseline-shift:baseline;text-anchor:start;white-space:normal;shape-padding:0;clip-rule:nonzero;display:inline;overflow:visible;visibility:visible;opacity:1;isolation:auto;mix-blend-mode:normal;color-interpolation:sRGB;color-interpolation-filters:linearRGB;solid-color:#000000;solid-opacity:1;vector-effect:none;fill:#000000;fill-opacity:1;fill-rule:nonzero;stroke:none;stroke-width:8.43945122;stroke-linecap:butt;stroke-linejoin:miter;stroke-miterlimit:4;stroke-dasharray:none;stroke-dashoffset:0;stroke-opacity:1;color-rendering:auto;image-rendering:auto;shape-rendering:auto;text-rendering:auto;enable-background:accumulate"
       d="m 214.77007,-90.41301 c -7.93344,-0.27585 -14.50741,2.93677 -18.71126,7.8595 -4.21363,4.93414 -6.2099,11.35243 -6.25126,17.74092 -0.0416,6.38847 1.87388,12.86747 6.0425,17.92647 4.15577,5.04344 10.7022,8.45834 18.74731,8.47934 8.20258,0.2554 14.97917,-2.87098 19.39429,-7.75641 4.4284,-4.90017 6.57893,-11.34478 6.63784,-17.76669 0.0588,-6.42189 -1.97681,-12.94283 -6.35176,-17.99605 -4.36202,-5.03829 -11.13318,-8.40546 -19.50766,-8.48708 z m -0.25776,8.42908 0.0621,0.003 h 0.0621 c 6.28776,0.0466 10.41421,2.28982 13.26154,5.57861 2.84738,3.28876 4.33569,7.82923 4.29387,12.39555 -0.0416,4.56632 -1.6171,9.0382 -4.46139,12.18553 -2.84429,3.14729 -6.86261,5.18931 -12.92003,4.9858 l -0.0708,-0.003 h -0.0708 c -5.82405,0 -9.61038,-2.14584 -12.30411,-5.41494 -2.69373,-3.2691 -4.14726,-7.87296 -4.11724,-12.50511 0.0304,-4.63213 1.54497,-9.17093 4.22934,-12.31438 2.68443,-3.14343 6.37682,-5.11925 12.03605,-4.91106 z"
       id="path87-1-3-3-7"
       inkscape:connector-curvature="0" />
    <path
       style="font-style:normal;font-weight:normal;font-size:233.33332825px;line-height:1.25;font-family:sans-serif;letter-spacing:0px;word-spacing:0px;fill:#000000;fill-opacity:1;stroke:none"
       d="M 73.751953 1076.8223 L 12 1246.4688 L 34.900391 1246.4688 L 51.535156 1199.1855 L 124.90625 1199.1855 L 141.54102 1246.4688 L 165.58008 1246.4688 L 103.83008 1076.8223 L 73.751953 1076.8223 z M 88.220703 1096.5332 L 117.95703 1179.8184 L 58.371094 1179.8184 L 88.220703 1096.5332 z M 253.76367 1115.6738 C 246.24414 1115.6738 238.91515 1117.2316 231.77539 1120.3457 C 224.63563 1123.4599 217.72309 1127.7893 211.03906 1133.334 L 211.03906 1119.2051 L 189.62109 1119.2051 L 189.62109 1246.4688 L 211.03906 1246.4688 L 211.03906 1151.4492 C 216.88759 1146.9679 223.0026 1143.2828 229.38281 1140.3965 C 235.76302 1137.5102 241.87804 1136.0684 247.72656 1136.0684 C 253.42318 1136.0684 258.05512 1136.8659 261.625 1138.4609 C 265.19488 1139.98 267.92925 1142.3333 269.82812 1145.5234 C 271.65104 1148.4097 272.9043 1152.4366 273.58789 1157.6016 C 274.27148 1162.6905 274.61328 1168.1593 274.61328 1174.0078 L 274.61328 1246.4688 L 296.0332 1246.4688 L 296.0332 1163.8672 C 296.0332 1148.2964 292.4247 1136.3709 285.20898 1128.0918 C 277.99327 1119.8127 267.5115 1115.6738 253.76367 1115.6738 z M 387.06445 1115.6738 C 369.06315 1115.6738 354.74696 1121.7122 344.11328 1133.7891 C 333.55556 1145.7899 328.27539 1162.1589 328.27539 1182.8945 C 328.27539 1203.6302 333.55556 1219.9972 344.11328 1231.998 C 354.74696 1243.9989 369.06315 1250 387.06445 1250 C 404.91385 1250 419.15538 1243.9989 429.78906 1231.998 C 440.42274 1219.9972 445.74023 1203.6302 445.74023 1182.8945 C 445.74023 1162.1589 440.42274 1145.7899 429.78906 1133.7891 C 419.15538 1121.7122 404.91385 1115.6738 387.06445 1115.6738 z M 387.06445 1134.1309 C 398.53364 1134.1309 407.49696 1138.1558 413.95312 1146.207 C 420.40929 1154.1823 423.63672 1166.4123 423.63672 1182.8945 C 423.63672 1198.997 420.37196 1211.1484 413.83984 1219.3516 C 407.38368 1227.4787 398.45768 1231.543 387.06445 1231.543 C 375.51931 1231.543 366.51866 1227.4414 360.0625 1219.2383 C 353.60634 1210.9592 350.37891 1198.8451 350.37891 1182.8945 C 350.37891 1166.4123 353.56901 1154.1823 359.94922 1146.207 C 366.40538 1138.1558 375.44336 1134.1309 387.06445 1134.1309 z "
       transform="translate(0,-217.58334)"
       id="text3067" />
  </g>
</svg>
