<?xml version="1.0" encoding="UTF-8" standalone="no"?>
<!-- Created with Inkscape (http://www.inkscape.org/) -->

<svg
   xmlns:dc="http://purl.org/dc/elements/1.1/"
   xmlns:cc="http://creativecommons.org/ns#"
   xmlns:rdf="http://www.w3.org/1999/02/22-rdf-syntax-ns#"
   xmlns:svg="http://www.w3.org/2000/svg"
   xmlns="http://www.w3.org/2000/svg"
   xmlns:sodipodi="http://sodipodi.sourceforge.net/DTD/sodipodi-0.dtd"
   xmlns:inkscape="http://www.inkscape.org/namespaces/inkscape"
   version="1.1"
   id="svg8719"
   width="1000"
   height="1250"
   viewBox="0 0 1000 1250"
   sodipodi:docname="Dia.svg"
   inkscape:version="0.92.4 (5da689c313, 2019-01-14)">
  <metadata
     id="metadata8725">
    <rdf:RDF>
      <cc:Work
         rdf:about="">
        <dc:format>image/svg+xml</dc:format>
        <dc:type
           rdf:resource="http://purl.org/dc/dcmitype/StillImage" />
        <dc:title></dc:title>
      </cc:Work>
    </rdf:RDF>
  </metadata>
  <defs
     id="defs8723">
    <clipPath
       clipPathUnits="userSpaceOnUse"
       id="clipPath8731">
      <rect
         style="opacity:1;fill:#00000a;fill-opacity:0.04705882;stroke:#000000;stroke-width:14.99999905;stroke-miterlimit:4;stroke-dasharray:none;stroke-opacity:1"
         id="rect8733"
         width="985"
         height="985"
         x="7.5"
         y="7.4999976"
         transform="rotate(-90)" />
    </clipPath>
    <pattern
       y="0"
       x="0"
       height="6"
       width="6"
       patternUnits="userSpaceOnUse"
       id="EMFhbasepattern" />
  </defs>
  <sodipodi:namedview
     pagecolor="#ffffff"
     bordercolor="#666666"
     borderopacity="1"
     objecttolerance="10"
     gridtolerance="10"
     guidetolerance="10"
     inkscape:pageopacity="0"
     inkscape:pageshadow="2"
     inkscape:window-width="1366"
     inkscape:window-height="715"
     id="namedview8721"
     showgrid="false"
     inkscape:zoom="0.35355339"
     inkscape:cx="367.68216"
     inkscape:cy="687.68027"
     inkscape:window-x="-8"
     inkscape:window-y="-8"
     inkscape:window-maximized="1"
     inkscape:current-layer="svg8719" />
  <path
     style="color:#000000;font-style:normal;font-variant:normal;font-weight:normal;font-stretch:normal;font-size:medium;line-height:normal;font-family:sans-serif;font-variant-ligatures:normal;font-variant-position:normal;font-variant-caps:normal;font-variant-numeric:normal;font-variant-alternates:normal;font-feature-settings:normal;text-indent:0;text-align:start;text-decoration:none;text-decoration-line:none;text-decoration-style:solid;text-decoration-color:#000000;letter-spacing:normal;word-spacing:normal;text-transform:none;writing-mode:lr-tb;direction:ltr;text-orientation:mixed;dominant-baseline:auto;baseline-shift:baseline;text-anchor:start;white-space:normal;shape-padding:0;clip-rule:nonzero;display:inline;overflow:visible;visibility:visible;opacity:1;isolation:auto;mix-blend-mode:normal;color-interpolation:sRGB;color-interpolation-filters:linearRGB;solid-color:#000000;solid-opacity:1;vector-effect:none;fill:#000000;fill-opacity:1;fill-rule:nonzero;stroke:none;stroke-width:41.25680161;stroke-linecap:butt;stroke-linejoin:miter;stroke-miterlimit:4;stroke-dasharray:none;stroke-dashoffset:0;stroke-opacity:1;color-rendering:auto;image-rendering:auto;shape-rendering:auto;text-rendering:auto;enable-background:accumulate"
     d="M 402.03821,0.20150946 C 362.39924,0.1898343 325.85392,4.1491652 292.35024,11.579805 L 249.93038,23.233687 C 171.0433,49.995428 111.1447,98.473518 71.010701,159.48108 8.184195,254.98343 -9.3464931,379.68654 4.3847879,503.12598 18.116056,626.56543 63.17099,749.2875 129.68535,842.48469 c 66.51414,93.19733 156.06389,158.11801 257.92107,157.51109 101.80879,-0.60646 190.62926,-66.20905 256.75069,-159.72093 15.09452,-21.34737 29.08673,-44.21444 41.87092,-68.25978 1.60263,-3.01435 -15.27705,-16.00276 -15.27705,-16.00276 l 39.58556,-88.54596 c 0,0 17.3271,10.73777 18.32952,7.95643 12.39676,-34.39638 22.53003,-70.04864 30.16838,-106.20896 0.63777,-3.01919 -17.4831,0.34159 -17.4831,0.34159 l 7.78563,-166.26321 c 0,0 25.98774,-14.65878 25.89318,-16.9431 -3.44,-83.11089 -22.97457,-162.24787 -62.89223,-227.6945 C 654.32601,63.539997 551.52872,-0.33609257 402.03821,0.20150946 Z m 0.026,41.25524154 h 0.0402 0.0415 c 138.06586,-0.508285 223.70248,54.622634 274.97069,138.680179 36.93675,60.56019 55.13468,137.34059 57.13894,219.09773 0.10443,4.2594 15.08146,4.05754 15.08146,4.05754 l -7.78563,166.26321 c 0,0 -24.93527,0.32861 -25.49638,2.78213 -6.34857,27.76013 -14.24591,55.16644 -23.53721,81.78366 -0.86145,2.46783 18.01879,13.34515 18.01879,13.34515 l -39.58556,88.54596 c 0,0 -18.7101,-8.12955 -20.53543,-4.66838 C 638.238,774.43484 624.94299,796.26934 610.6703,816.45442 549.32809,903.20744 471.47257,958.23958 387.36228,958.74058 303.29999,959.24145 224.89794,904.87401 163.26628,818.51794 101.63445,732.16187 58.347619,615.06537 45.388248,498.56517 32.428889,382.06495 49.85611,266.70602 105.47708,182.15682 141.5208,127.36696 193.95968,83.999761 266.17584,60.611752 l 35.98037,-9.33216 c 30.10322,-6.421894 63.31295,-9.836099 99.90704,-9.822893 z"
     id="path10-9-0"
     inkscape:connector-curvature="0"
     sodipodi:nodetypes="cccssssscccccccccccccscccccccccsssscccc" />
  <path
     style="color:#000000;font-style:normal;font-variant:normal;font-weight:normal;font-stretch:normal;font-size:medium;line-height:normal;font-family:sans-serif;font-variant-ligatures:normal;font-variant-position:normal;font-variant-caps:normal;font-variant-numeric:normal;font-variant-alternates:normal;font-feature-settings:normal;text-indent:0;text-align:start;text-decoration:none;text-decoration-line:none;text-decoration-style:solid;text-decoration-color:#000000;letter-spacing:normal;word-spacing:normal;text-transform:none;writing-mode:lr-tb;direction:ltr;text-orientation:mixed;dominant-baseline:auto;baseline-shift:baseline;text-anchor:start;white-space:normal;shape-padding:0;clip-rule:nonzero;display:inline;overflow:visible;visibility:visible;opacity:1;isolation:auto;mix-blend-mode:normal;color-interpolation:sRGB;color-interpolation-filters:linearRGB;solid-color:#000000;solid-opacity:1;vector-effect:none;fill:#000000;fill-opacity:1;fill-rule:nonzero;stroke:none;stroke-width:20.6284008;stroke-linecap:butt;stroke-linejoin:miter;stroke-miterlimit:4;stroke-dasharray:none;stroke-dashoffset:0;stroke-opacity:1;color-rendering:auto;image-rendering:auto;shape-rendering:auto;text-rendering:auto;enable-background:accumulate"
     d="m 379.96788,497.08102 c 0,0 -2.32582,22.96012 -6.17447,47.07814 -1.92432,12.05902 -4.24107,24.40719 -6.73203,34.00186 -1.24548,4.79735 -2.55102,8.91547 -3.71944,11.75624 -1.1609,2.8228 -2.64819,4.29804 -1.60377,3.4306 -2.27991,1.8987 -4.69134,3.48991 -5.95421,8.541 -0.63227,2.52903 -0.26905,6.29773 1.3455,8.92865 1.61441,2.63093 3.71062,3.9176 5.2978,4.6645 6.34882,2.98758 9.6084,1.84072 13.92509,1.54301 8.63338,-0.59546 17.98402,-2.52102 17.98402,-2.52102 l -4.04622,-20.22629 c 0,0 -3.23415,0.56197 -7.1247,1.14775 1.38908,-3.70333 2.69514,-7.58891 3.86123,-12.08054 2.78362,-10.72224 5.15458,-23.50961 7.13741,-35.93505 3.96554,-24.85091 6.32911,-48.25377 6.32911,-48.25377 z"
     id="path971-5"
     inkscape:connector-curvature="0" />
  <path
     style="font-style:normal;font-weight:normal;font-size:233.33332825px;line-height:1.25;font-family:sans-serif;letter-spacing:0px;word-spacing:0px;fill:#000000;fill-opacity:1;stroke:none"
     d="m 630.37012,1075.6836 v 22.2168 h 24.1543 v -22.2168 z m -177.16406,1.1406 v 169.6446 h 42.83789 c 15.57075,0 28.1033,-1.0628 37.59766,-3.1895 9.57031,-2.1267 18.22916,-5.584 25.97656,-10.3691 11.16536,-6.9119 20.08941,-16.6335 26.77344,-29.1661 6.75998,-12.5325 10.14062,-26.5089 10.14062,-41.9277 0,-16.4822 -3.22743,-30.7237 -9.68359,-42.7246 -6.45617,-12.0009 -15.45682,-21.6085 -27.00196,-28.8242 -6.75998,-4.1775 -15.03971,-7.4442 -24.83789,-9.7988 -9.72222,-2.4306 -22.86176,-3.6446 -39.41992,-3.6446 z m 22.55859,19.3672 h 21.19141 c 10.48177,0 19.48242,0.7602 27.00195,2.2793 7.51953,1.4432 14.62066,4.0636 21.30469,7.8613 9.19054,5.2409 16.10308,12.4187 20.73633,21.5332 4.63324,9.1146 6.94922,20.3173 6.94922,33.6094 0,13.2162 -2.12739,24.2303 -6.38086,33.041 -4.17752,8.8108 -10.48112,15.9119 -18.91211,21.3047 -6.75998,4.3294 -14.20291,7.2917 -22.33008,8.8867 -8.05122,1.5951 -17.5076,2.3926 -28.36914,2.3926 h -21.19141 z m 263.52539,19.9395 c -7.67144,0 -15.45811,0.6836 -23.35742,2.0507 -7.8993,1.3672 -13.93772,2.6205 -18.11523,3.7598 v 21.7598 h 1.14062 c 7.36762,-2.8104 14.50608,-4.9358 21.41797,-6.3789 6.91189,-1.5191 13.17817,-2.2793 18.79883,-2.2793 4.63325,0 9.07661,0.3044 13.33008,0.9121 4.25347,0.6076 7.8993,1.7843 10.9375,3.5312 3.1901,1.8229 5.62196,4.3295 7.29297,7.5196 1.74696,3.1901 2.61914,7.215 2.61914,12.0761 v 3.3047 c -12.4566,0.6077 -24.11502,1.5191 -34.97657,2.7344 -10.86154,1.2153 -20.16666,3.5312 -27.91406,6.9492 -7.67144,3.418 -13.59592,8.1285 -17.77344,14.1289 -4.10156,5.9245 -6.15234,13.7092 -6.15234,23.3555 0,11.773 3.98763,21.4572 11.96289,29.0527 7.97526,7.5955 17.69879,11.3926 29.16797,11.3926 6.2283,0 11.65777,-0.607 16.29102,-1.8223 4.63324,-1.1393 8.7348,-2.5831 12.30468,-4.33 3.0382,-1.3672 6.15365,-3.1901 9.34375,-5.4688 3.26606,-2.3546 5.84723,-4.1775 7.7461,-5.4687 v 13.5586 h 21.30664 v -86.3614 c 0,-8.2031 -1.25326,-15.0764 -3.75977,-20.6211 -2.50651,-5.5447 -6.15234,-10.0646 -10.9375,-13.5586 -4.86111,-3.5698 -10.63433,-6.0763 -17.31836,-7.5195 -6.60807,-1.5191 -14.39279,-2.2773 -23.35547,-2.2773 z m -107.55273,3.0761 v 127.2618 h 21.41992 V 1119.207 Z m 141.61719,60.4981 v 35.4316 c -5.31684,4.1016 -11.08811,7.6335 -17.31641,10.5957 -6.2283,2.8863 -13.10352,4.3301 -20.62305,4.3301 -9.03862,0 -15.76063,-1.8229 -20.16601,-5.4687 -4.40538,-3.7218 -6.60742,-9.2279 -6.60742,-16.5196 0,-6.4561 1.89952,-11.5084 5.69726,-15.1543 3.79774,-3.7218 8.77149,-6.4561 14.92383,-8.2031 5.16493,-1.4431 12.15408,-2.5432 20.96484,-3.3027 8.88672,-0.7596 16.59484,-1.3292 23.12696,-1.709 z"
     id="text835"
     inkscape:connector-curvature="0" />
  <path
     style="color:#000000;font-style:normal;font-variant:normal;font-weight:normal;font-stretch:normal;font-size:medium;line-height:normal;font-family:sans-serif;font-variant-ligatures:normal;font-variant-position:normal;font-variant-caps:normal;font-variant-numeric:normal;font-variant-alternates:normal;font-feature-settings:normal;text-indent:0;text-align:start;text-decoration:none;text-decoration-line:none;text-decoration-style:solid;text-decoration-color:#000000;letter-spacing:normal;word-spacing:normal;text-transform:none;writing-mode:lr-tb;direction:ltr;text-orientation:mixed;dominant-baseline:auto;baseline-shift:baseline;text-anchor:start;white-space:normal;shape-padding:0;clip-rule:nonzero;display:inline;overflow:visible;visibility:visible;opacity:1;isolation:auto;mix-blend-mode:normal;color-interpolation:sRGB;color-interpolation-filters:linearRGB;solid-color:#000000;solid-opacity:1;vector-effect:none;fill:#000000;fill-opacity:1;fill-rule:nonzero;stroke:none;stroke-width:19.45859528;stroke-linecap:butt;stroke-linejoin:miter;stroke-miterlimit:4;stroke-dasharray:none;stroke-dashoffset:0;stroke-opacity:1;color-rendering:auto;image-rendering:auto;shape-rendering:auto;text-rendering:auto;enable-background:accumulate"
     d="m 895.45889,118.44424 c -1.70696,-0.0476 -3.37177,0.0922 -4.94066,0.41298 -6.27553,1.283 -11.10391,4.54333 -15.02213,7.86959 -7.83646,6.65252 -12.67595,14.67248 -12.67595,14.67248 -20.98316,33.58503 -13.78317,78.32084 -13.78317,78.32084 l 0.10131,0.73477 0.2103,0.70942 c 0.52836,1.78325 1.5149,13.16185 1.6038,22.49647 0.0445,4.66732 2.7e-4,9.1031 -0.0558,12.4302 -0.0476,2.82942 -0.0926,3.75686 -0.10897,5.17122 -3.55098,13.06792 -3.66073,32.68147 -3.57247,51.79077 0.0462,10.00735 0.29804,19.46046 0.58781,26.60607 0.14489,3.5728 0.29982,6.55973 0.44592,8.80198 0.073,1.12112 0.14204,2.04767 0.2179,2.84024 0.0379,0.39629 0.0755,0.75379 0.13175,1.16296 0.0563,0.40916 -0.0645,0.50083 0.48393,2.14603 l -0.10391,-0.32939 c 0.0872,0.29622 1.08433,8.06615 1.39353,14.11762 0.28421,5.56254 0.35326,9.69979 0.36737,10.46407 -1.42016,4.98733 -2.23336,10.45987 -2.81743,15.94185 -12.4265,-8.29389 -26.65168,-17.52541 -26.65168,-17.52541 l -0.28378,-0.18495 -0.29645,-0.16215 c -20.11342,-11.0624 -38.67629,-3.36529 -46.74116,1.20349 -18.99062,-3.25327 -34.66016,8.39162 -35.42578,8.98186 -8.78092,4.87286 -40.32027,23.75198 -40.48299,23.84944 -15.13504,6.72804 -38.7525,22.5294 -38.7525,22.5294 l -0.44341,0.29138 -0.41044,0.33951 c -7.22851,5.97138 -35.57276,26.51314 -36.30244,27.04187 -28.20985,14.11884 -34.14122,48.88466 -34.14122,48.88466 l -0.033,0.15708 -0.0279,0.15962 c -0.65226,3.78313 -3.52864,13.52155 -6.17201,21.54128 -2.64338,8.01971 -5.06734,14.75102 -5.06734,14.75102 -7.42856,17.05818 -10.27631,29.75388 -11.10762,38.53461 -0.42102,4.44691 -0.33427,7.8963 -0.0887,10.39058 0.12337,1.2532 0.24088,1.48446 0.42059,2.33605 -0.58837,7.26808 1.58693,13.72245 4.93558,17.67996 0.29848,0.35274 0.61749,0.58792 0.92479,0.90705 -4.98509,15.65195 -1.12176,30.87251 4.18564,41.7549 6.20686,12.72668 14.67755,21.12575 14.67755,21.12575 l -0.79052,-0.89185 c 9.3247,11.94726 9.97761,27.76143 9.97761,27.76143 v -0.19256 c 0,13.10856 6.39982,22.67584 12.58981,27.87545 6.19,5.19961 12.75197,7.02588 12.75197,7.02588 l -1.08694,-0.375 c 27.01084,11.14198 66.18708,39.35551 66.18708,39.35551 l 0.0253,0.0178 0.0253,0.0178 c 21.10357,15.17975 52.12269,35.60821 52.12269,35.60821 l 0.48393,0.31924 0.51686,0.25843 c 9.27885,4.63943 16.89452,13.52221 16.89452,13.52221 l 0.6765,0.82344 0.83864,0.65622 c 15.44663,12.11157 24.79534,22.35406 30.71315,29.68702 2.95892,3.66649 5.03165,6.57928 6.75478,8.91093 0.86155,1.16582 1.605,2.17496 2.597,3.28616 0.42924,0.48082 0.9022,1.11327 1.56582,1.74065 22.03751,37.77 62.54308,57.77132 65.82983,59.3487 2.67024,2.57166 5.31613,4.26431 7.71504,5.64502 2.3044,1.32631 3.41583,1.83052 4.29204,2.25497 5.81994,5.53804 12.52342,8.79651 18.53886,10.5046 4.27036,1.21257 7.88191,1.61651 11.38633,1.59875 2.63686,2.16911 5.30111,4.00345 7.67195,5.38404 3.51753,2.04832 6.45073,3.4002 6.45073,3.4002 l 8.14321,-17.67236 c 0,0 -2.11402,-0.97496 -4.80383,-2.54128 -2.68982,-1.56633 -5.82416,-3.88693 -6.77251,-4.94066 l -3.79781,-4.22116 -5.54368,1.23137 c 0.69561,-0.15459 -3.51059,0.15196 -7.41859,-0.95773 -3.90799,-1.10967 -8.11419,-3.22924 -11.26216,-6.55207 l -1.26684,-1.33525 -1.66968,-0.7829 c 0,0 -1.9655,-0.9248 -4.24137,-2.23471 -2.27586,-1.3099 -4.90052,-3.60401 -4.41112,-2.99226 l -1.37579,-1.72288 -1.9864,-0.96028 c 0,0 -41.54821,-20.85299 -59.90105,-54.28136 l -2.04467,-3.72704 -1.54046,-0.3851 c -0.2093,-0.2727 -0.23935,-0.29531 -0.50421,-0.6537 -1.53681,-2.07953 -3.93104,-5.43461 -7.26403,-9.5646 -6.59164,-8.1679 -17.00977,-19.47991 -33.34057,-32.35499 -1.31603,-1.59567 -9.27318,-11.04423 -22.2203,-17.51781 l 1.00079,0.5777 c 0,0 -30.98625,-20.42513 -51.46393,-35.15469 -0.14368,-0.10598 -38.88946,-28.67521 -70.18015,-41.58261 l -0.53207,-0.22043 -0.55487,-0.15455 c 0,0 -2.55417,-0.72726 -5.48287,-3.18736 -2.92869,-2.46011 -5.64755,-5.66015 -5.64755,-12.97747 v -0.0938 l -0.003,-0.0963 c 0,0 -0.0756,-21.3909 -14.09482,-39.35297 l -0.36737,-0.47126 -0.42313,-0.42059 c 0,0 -6.30108,-6.37333 -10.94545,-15.89627 -4.64438,-9.52291 -7.24144,-20.59732 -1.17817,-32.15987 l 5.00655,-9.54941 -10.00801,-4.0032 c -0.80801,-0.3232 -1.22114,-0.58333 -1.56581,-0.99067 -0.34467,-0.40734 -1.01553,-0.60965 -0.46113,-4.15775 l 0.34711,-2.21696 -0.65875,-2.14602 c 0,0 0.0457,0.3766 -0.0734,-0.83358 -0.11909,-1.21018 -0.21475,-3.39251 0.0938,-6.65089 0.61697,-6.51677 2.85553,-17.35643 9.80023,-33.15563 l 0.13428,-0.30655 0.11144,-0.31419 c 0,0 2.50297,-6.94743 5.23963,-15.25016 2.73666,-8.30275 5.69478,-17.53123 6.86625,-24.32577 l -0.0608,0.31924 c 0,0 7.08003,-27.66695 24.51328,-35.83878 l 0.82344,-0.38513 0.73984,-0.5346 c 0,0 27.0922,-19.48693 36.98146,-27.56127 0.23022,-0.14824 26.24212,-16.89165 36.65967,-21.35632 l 0.60049,-0.2559 0.55994,-0.33444 c 0,0 34.21389,-20.41588 40.54888,-23.90012 l 0.44593,-0.24576 0.42059,-0.29137 c 0,0 14.5701,-8.43969 23.66448,-5.62476 l 4.99893,1.54808 4.04628,-3.31911 c 0,0 12.28569,-11.11251 29.10175,-1.98387 0.70195,0.45528 33.48061,21.70965 39.13761,25.9524 l 14.4546,10.8441 1.09455,-18.03719 c 0,0 0.35348,-5.84068 1.05906,-12.67596 0.70558,-6.83528 2.11899,-15.23834 2.79465,-17.18083 l 0.56754,-1.62915 -0.0279,-1.72796 c 0,0 -0.094,-5.61153 -0.42312,-12.05267 -0.32316,-6.32463 -0.45293,-12.47484 -2.10042,-18.28551 0.024,0.16077 0.16834,0.68389 0.16976,0.69423 0.003,0.0202 -0.016,-0.13668 -0.038,-0.36738 -0.0441,-0.46143 -0.10715,-1.25022 -0.1723,-2.24991 -0.13028,-1.99937 -0.27797,-4.87135 -0.41804,-8.32564 -0.28016,-6.90857 -0.52766,-16.17217 -0.57262,-25.90678 -0.0899,-19.46924 1.35156,-42.28009 3.10882,-47.88132 l 0.44593,-1.42139 v -1.4898 c 0,1.34799 0.0662,-2.3079 0.12414,-5.75143 0.058,-3.44354 0.10495,-8.03721 0.0583,-12.94453 -0.0882,-9.25845 -0.0968,-18.58897 -2.09535,-26.39324 0,0 -4.47206,-40.60544 11.01133,-65.37886 l 0.005,-0.005 0.003,-0.005 c 0,0 3.91531,-6.02462 8.75384,-10.13216 2.02467,-1.71878 3.96302,-2.75125 5.41699,-3.26336 l -1.59369,4.25402 7.79358,2.43487 c 0.51616,0.90536 1.66646,3.53072 2.11815,9.65075 -0.0419,0.77514 -0.26316,4.61115 -0.30658,10.29937 -0.0476,6.22973 -0.008,13.40555 1.23644,19.62834 0,0 7.47178,38.13514 7.47178,64.83919 v 0.67396 l 0.0912,0.66635 c 0,0 7.20736,53.95731 18.89106,85.60768 0.004,0.0154 9.46833,33.25616 9.46833,70.25869 v 0.0938 0.0963 c 0,0 0.36655,18.95342 1.70769,39.16295 0.67057,10.10477 1.57622,20.51985 2.85545,29.2943 0.63962,4.38722 1.36054,8.3526 2.28537,11.85505 0.92485,3.50245 1.52313,6.41211 4.54794,10.01306 l 1.87492,2.22963 2.78957,0.83358 c 0,0 15.72676,4.72982 32.60075,14.76878 16.87394,10.03894 33.61434,24.99079 37.63764,43.61714 l 0.1039,0.4814 0.1495,0.46619 c 0,0 8.6003,26.52705 18.5414,54.8844 4.9706,14.17865 10.2728,28.81559 15.0551,40.93652 4.4448,11.26557 7.6858,19.47205 11.7993,25.54193 0.7355,2.00114 1.4698,3.38837 2.7161,5.91865 1.5821,3.21213 3.6976,7.35867 6.2075,12.17429 5.0198,9.63124 11.6002,21.90972 18.4071,34.26284 6.8068,12.35311 13.8306,24.76309 19.7702,34.70117 2.9699,4.96902 5.6618,9.31263 7.9836,12.80263 1.7522,2.63358 3.1278,4.5708 4.8292,6.4786 2.4726,5.75531 7.999,17.25597 14.3989,31.00706 6.7188,14.4364 13.8384,30.24157 16.8083,38.49154 l 0.4029,1.1148 0.6562,0.98561 c 1.5598,2.33961 6.7805,9.61239 13.6894,18.91638 6.9089,9.30399 14.6012,19.42 20.1047,25.34684 l 14.2595,-13.23843 c -3.9799,-4.28607 -11.9724,-14.59432 -18.7415,-23.71009 -6.5407,-8.80815 -12.3528,-17.04771 -12.676,-17.49752 -3.717,-10.00588 -10.3604,-24.65198 -16.8616,-38.62076 -6.7768,-14.56105 -13.3763,-28.42273 -14.794,-31.82544 l -0.826,-1.97879 -1.5811,-1.4518 c 0.6266,0.57437 -1.4348,-1.7393 -3.4685,-4.79625 -2.0338,-3.05693 -4.6102,-7.20199 -7.482,-12.00706 -5.7436,-9.61014 -12.6937,-21.88651 -19.4282,-34.10828 -6.7344,-12.22176 -13.2632,-24.40402 -18.1942,-33.86506 -2.4656,-4.73049 -4.5359,-8.7887 -6.0099,-11.78156 -1.4741,-2.99285 -2.6341,-6.19773 -2.1131,-4.42632 l -0.489,-1.66716 -1.0363,-1.39351 c -0.7011,-0.94281 -5.6096,-10.80368 -10.2309,-22.51673 -4.6215,-11.71307 -9.871,-26.18848 -14.7942,-40.23216 -9.8464,-28.08738 -18.3919,-54.44607 -18.3919,-54.44607 l 0.2559,0.94506 c -5.8249,-26.96688 -27.5659,-44.84207 -46.71073,-56.23205 -15.42436,-9.17653 -27.49948,-13.42206 -32.58047,-15.10574 -0.13464,-0.36632 -0.24756,-0.54142 -0.36484,-0.9856 -0.62107,-2.35204 -1.27021,-5.75455 -1.84452,-9.69383 -1.14861,-7.87856 -2.04418,-17.95451 -2.69582,-27.7741 -1.30329,-19.63916 -1.66716,-38.25589 -1.66716,-38.25589 l 0.003,0.19001 c 0,-40.31541 -10.2259,-75.63515 -10.2259,-75.63515 l -0.10637,-0.36991 -0.13682,-0.35978 c -10.0205,-26.72116 -17.98761,-81.61961 -18.03981,-81.97946 -0.18565,-30.02176 -7.79104,-67.51981 -7.79104,-67.51981 -0.57918,-2.89589 -0.90254,-9.94486 -0.85891,-15.66061 0.0436,-5.71575 0.30404,-10.32978 0.30404,-10.32978 l 0.0329,-0.60808 -0.0405,-0.60555 c -0.62527,-9.17063 -2.64727,-15.30945 -5.41698,-19.58274 -0.42511,-0.65589 -0.91691,-0.94029 -1.37072,-1.49993 -0.0865,-0.73847 -0.0747,-1.57178 -0.24831,-2.1967 -0.69554,-2.50394 -2.36897,-4.75063 -2.36897,-4.75063 l -0.60556,-0.75756 -0.7449,-0.62329 c -4.43484,-3.7129 -9.93672,-5.5452 -15.0576,-5.68809 z m -79.49392,741.05064 c 0.49778,0.39953 0.52676,0.67056 0.46872,0.60555 -0.0354,-0.0397 -0.34592,-0.45165 -0.46872,-0.60555 z"
     id="path37"
     inkscape:connector-curvature="0" />
  <path
     style="color:#000000;font-style:normal;font-variant:normal;font-weight:normal;font-stretch:normal;font-size:medium;line-height:normal;font-family:sans-serif;font-variant-ligatures:normal;font-variant-position:normal;font-variant-caps:normal;font-variant-numeric:normal;font-variant-alternates:normal;font-feature-settings:normal;text-indent:0;text-align:start;text-decoration:none;text-decoration-line:none;text-decoration-style:solid;text-decoration-color:#000000;letter-spacing:normal;word-spacing:normal;text-transform:none;writing-mode:lr-tb;direction:ltr;text-orientation:mixed;dominant-baseline:auto;baseline-shift:baseline;text-anchor:start;white-space:normal;shape-padding:0;clip-rule:nonzero;display:inline;overflow:visible;visibility:visible;opacity:1;isolation:auto;mix-blend-mode:normal;color-interpolation:sRGB;color-interpolation-filters:linearRGB;solid-color:#000000;solid-opacity:1;vector-effect:none;fill:#000000;fill-opacity:1;fill-rule:nonzero;stroke:none;stroke-width:19.45859528;stroke-linecap:butt;stroke-linejoin:miter;stroke-miterlimit:4;stroke-dasharray:none;stroke-dashoffset:0;stroke-opacity:1;color-rendering:auto;image-rendering:auto;shape-rendering:auto;text-rendering:auto;enable-background:accumulate"
     d="m 861.9435,404.2854 -11.63969,15.59476 c 0,0 12.8269,9.57695 26.46419,20.6038 6.81866,5.51344 13.83334,11.38859 19.42313,16.4866 5.5898,5.09802 9.98431,10.24717 10.22589,10.66675 l 0.15708,0.27618 0.17736,0.26603 c 1.16834,1.75252 1.63784,2.04973 2.4982,2.91372 0.86036,0.864 1.89271,1.83654 3.13669,2.94159 2.48796,2.21013 5.80009,4.9327 9.83065,7.89493 8.06111,5.92442 18.95988,12.79854 31.643,17.95106 l 7.32486,-18.02707 c -10.66073,-4.33092 -20.36882,-10.40451 -27.44473,-15.60489 -3.53796,-2.60018 -6.42652,-4.98305 -8.42953,-6.76236 -1.0015,-0.88966 -1.7852,-1.63366 -2.2727,-2.12322 -0.4875,-0.48956 -0.89986,-1.18259 -0.0963,0.0228 l 0.33697,0.54221 c -3.22351,-5.59874 -7.90246,-9.79713 -13.97319,-15.33379 -6.07073,-5.53664 -13.30613,-11.58466 -20.3023,-17.24162 -13.99234,-11.31394 -27.05962,-21.06748 -27.05962,-21.06748 z"
     id="path41"
     inkscape:connector-curvature="0" />
  <path
     style="color:#000000;font-style:normal;font-variant:normal;font-weight:normal;font-stretch:normal;font-size:medium;line-height:normal;font-family:sans-serif;font-variant-ligatures:normal;font-variant-position:normal;font-variant-caps:normal;font-variant-numeric:normal;font-variant-alternates:normal;font-feature-settings:normal;text-indent:0;text-align:start;text-decoration:none;text-decoration-line:none;text-decoration-style:solid;text-decoration-color:#000000;letter-spacing:normal;word-spacing:normal;text-transform:none;writing-mode:lr-tb;direction:ltr;text-orientation:mixed;dominant-baseline:auto;baseline-shift:baseline;text-anchor:start;white-space:normal;shape-padding:0;clip-rule:nonzero;display:inline;overflow:visible;visibility:visible;opacity:1;isolation:auto;mix-blend-mode:normal;color-interpolation:sRGB;color-interpolation-filters:linearRGB;solid-color:#000000;solid-opacity:1;vector-effect:none;fill:#000000;fill-opacity:1;fill-rule:nonzero;stroke:none;stroke-width:19.45859528;stroke-linecap:butt;stroke-linejoin:miter;stroke-miterlimit:4;stroke-dasharray:none;stroke-dashoffset:0;stroke-opacity:1;color-rendering:auto;image-rendering:auto;shape-rendering:auto;text-rendering:auto;enable-background:accumulate"
     d="m 769.60384,380.93763 c -4.09395,3.45428 -17.49904,11.46781 -29.00545,17.71543 -11.49037,6.2389 -21.536,11.26332 -21.56409,11.27737 -13.2088,4.25111 -26.83289,13.80795 -38.64607,22.48885 -6.14827,4.51806 -11.64353,8.79029 -15.63529,11.81198 -1.53839,1.16455 -2.58163,1.9122 -3.55473,2.60461 l -0.16216,-0.0228 -0.8792,0.54727 c 0.0449,-0.0192 0.27915,0.0152 0.33192,-0.003 -0.0804,0.0557 -0.2742,0.20386 -0.34712,0.25336 -0.48497,0.32929 -0.82915,0.52433 -0.69676,0.45354 0.0432,-0.0231 0.19656,-0.26313 0.31671,-0.4586 l -1.73809,1.08441 c -16.56318,10.32761 -27.0747,21.34444 -33.44953,29.9632 -5.35728,7.24304 -7.53653,12.38767 -8.24203,14.14802 -6.29809,10.90541 -13.32281,30.7037 -19.87918,49.3711 -3.30128,9.39949 -6.34109,18.3151 -8.67022,24.9972 -1.16457,3.34107 -2.15645,6.13168 -2.88079,8.06721 -0.34378,0.91861 -0.61589,1.6099 -0.79558,2.03961 l -0.17989,0.23816 -0.45859,1.07175 c -4.65497,10.86159 -5.50942,19.40061 -4.57328,25.87131 -0.53115,0.48655 -1.74569,1.36818 -1.74569,1.36818 l 2.7389,3.04295 c 0.5812,1.82128 1.23854,3.46061 1.95093,4.68982 1.10194,1.90139 2.76676,3.62821 2.76676,3.62821 l 0.92732,-2.04467 4.63155,5.14842 c 0,0 2.03015,-0.30122 0.27111,-0.46113 l 27.81718,2.5286 -19.62076,-18.68581 c -0.0846,-0.15132 -0.3023,-0.52957 -0.489,-1.52528 -0.4057,-2.16372 -0.59689,-7.01313 3.21016,-15.89624 l -1.15787,2.00665 c 1.64968,-2.19958 1.42635,-2.43451 1.78876,-3.29123 0.36241,-0.85671 0.72692,-1.79766 1.14268,-2.90865 0.83155,-2.22201 1.84679,-5.08736 3.03028,-8.48274 2.36699,-6.79075 5.39084,-15.66029 8.65501,-24.95412 6.52836,-18.58768 14.5845,-39.63215 18.4654,-46.2851 l 0.4814,-0.82598 0.31165,-0.90453 c 0,0 1.12566,-3.58861 6.14921,-10.38044 4.77003,-6.44907 12.96648,-15.09492 26.12723,-23.65942 1.35343,-0.3534 1.70132,-1.03477 2.27269,-1.34031 0.95237,-0.50928 1.66633,-0.97957 2.45513,-1.51514 1.57759,-1.07114 3.33985,-2.38708 5.42459,-3.96519 4.16947,-3.15622 9.52391,-7.31766 15.41232,-11.64476 11.77683,-8.65419 26.32543,-17.8516 34.13614,-20.10214 l 0.85892,-0.24831 0.80065,-0.40031 c 0,0 10.33725,-5.16673 22.17468,-11.59408 11.83745,-6.42736 24.6934,-13.55115 32.27137,-19.94506 z"
     id="path43"
     inkscape:connector-curvature="0" />
  <path
     style="color:#000000;font-style:normal;font-variant:normal;font-weight:normal;font-stretch:normal;font-size:medium;line-height:normal;font-family:sans-serif;font-variant-ligatures:normal;font-variant-position:normal;font-variant-caps:normal;font-variant-numeric:normal;font-variant-alternates:normal;font-feature-settings:normal;text-indent:0;text-align:start;text-decoration:none;text-decoration-line:none;text-decoration-style:solid;text-decoration-color:#000000;letter-spacing:normal;word-spacing:normal;text-transform:none;writing-mode:lr-tb;direction:ltr;text-orientation:mixed;dominant-baseline:auto;baseline-shift:baseline;text-anchor:start;white-space:normal;shape-padding:0;clip-rule:nonzero;display:inline;overflow:visible;visibility:visible;opacity:1;isolation:auto;mix-blend-mode:normal;color-interpolation:sRGB;color-interpolation-filters:linearRGB;solid-color:#000000;solid-opacity:1;vector-effect:none;fill:#000000;fill-opacity:1;fill-rule:nonzero;stroke:none;stroke-width:19.45859528;stroke-linecap:butt;stroke-linejoin:miter;stroke-miterlimit:4;stroke-dasharray:none;stroke-dashoffset:0;stroke-opacity:1;color-rendering:auto;image-rendering:auto;shape-rendering:auto;text-rendering:auto;enable-background:accumulate"
     d="m 801.22913,448.2902 c -11.30207,0.4219 -19.23056,3.84105 -19.23056,3.84105 l 0.70183,-0.29137 c -28.73489,10.6835 -82.22485,32.15814 -82.27338,32.17761 -37.17248,9.0153 -52.81437,38.09882 -52.81437,38.09883 l -0.076,0.14948 -0.0734,0.14948 c -7.15602,14.96258 -24.72556,40.58254 -25.20496,41.28111 -8.01549,7.98016 -13.06436,14.50674 -16.0052,19.25337 -1.76719,2.8523 -2.79319,5.14938 -3.461,6.8409 -3.06371,4.07716 -4.5637,8.18598 -5.46513,12.01974 -0.89164,-0.25665 -2.17895,-0.61315 -2.17895,-0.61315 l -7.66435,17.88518 c 0,0 8.74634,4.4119 19.44085,3.28617 l 10.04094,-1.05653 -1.42646,-9.99534 c 0,0 -0.61699,-6.07941 3.20256,-10.50206 l 1.51261,-1.75077 0.56247,-2.24737 c 0,0 -0.14659,-0.19172 1.97627,-3.61807 2.12285,-3.42636 6.25927,-9.03059 13.98839,-16.58795 l 0.66129,-0.64609 0.52954,-0.7601 c 0,0 18.25181,-26.00265 27.04694,-44.39245 l -0.1495,0.29898 c 0,0 11.01357,-21.79879 41.27603,-28.55956 l 0.77024,-0.17227 0.73224,-0.29391 c 0,0 53.68233,-21.54083 81.83504,-32.00787 l 0.35725,-0.13175 0.34458,-0.15962 c 0,0 18.62245,-9.66148 37.58954,7.19816 l 0.40286,0.35725 0.43832,0.31163 c 0,0 12.56783,8.89977 26.77077,18.46033 7.10147,4.78029 14.61434,9.72761 21.25751,13.86425 6.64315,4.13663 11.9607,7.35292 16.71716,9.2555 l -1.35045,-0.66635 c 0,0 22.22147,13.34359 27.64235,17.3379 l 11.5434,-15.66568 c -8.43954,-6.21861 -29.2563,-18.40711 -29.2563,-18.40711 l -0.65116,-0.38513 -0.70181,-0.28124 c -1.62664,-0.65064 -7.33971,-3.77148 -13.6565,-7.70489 -6.31678,-3.9334 -13.69038,-8.7861 -20.67729,-13.48927 -13.96586,-9.40097 -26.3639,-18.1792 -26.37804,-18.18922 -2e-5,-10e-6 -0.0152,-0.0104 -0.0152,-0.0104 -13.26356,-11.37222 -27.56136,-13.89487 -38.63088,-13.48166 z"
     id="path45"
     inkscape:connector-curvature="0" />
  <path
     style="color:#000000;font-style:normal;font-variant:normal;font-weight:normal;font-stretch:normal;font-size:medium;line-height:normal;font-family:sans-serif;font-variant-ligatures:normal;font-variant-position:normal;font-variant-caps:normal;font-variant-numeric:normal;font-variant-alternates:normal;font-feature-settings:normal;text-indent:0;text-align:start;text-decoration:none;text-decoration-line:none;text-decoration-style:solid;text-decoration-color:#000000;letter-spacing:normal;word-spacing:normal;text-transform:none;writing-mode:lr-tb;direction:ltr;text-orientation:mixed;dominant-baseline:auto;baseline-shift:baseline;text-anchor:start;white-space:normal;shape-padding:0;clip-rule:nonzero;display:inline;overflow:visible;visibility:visible;opacity:1;isolation:auto;mix-blend-mode:normal;color-interpolation:sRGB;color-interpolation-filters:linearRGB;solid-color:#000000;solid-opacity:1;vector-effect:none;fill:#000000;fill-opacity:1;fill-rule:nonzero;stroke:none;stroke-width:19.45859528;stroke-linecap:butt;stroke-linejoin:miter;stroke-miterlimit:4;stroke-dasharray:none;stroke-dashoffset:0;stroke-opacity:1;color-rendering:auto;image-rendering:auto;shape-rendering:auto;text-rendering:auto;enable-background:accumulate"
     d="m 776.66518,538.80814 -6.85104,6.0352 c -20.0882,17.68961 -51.8085,11.9944 -51.8085,11.9944 l -7.76571,-1.58354 -3.12148,7.2843 c -5.45498,12.72827 -19.01059,27.56874 -31.27816,38.52192 -12.0627,10.77028 -22.30987,17.77549 -22.6561,18.01188 -17.34787,10.43942 -24.24982,6.91161 -29.77569,2.40445 -5.54923,-4.52617 -8.26484,-11.83224 -8.26484,-11.83224 l -18.47552,6.10109 c 0,0 3.66868,12.02192 14.44192,20.80903 10.77323,8.78711 30.11082,12.52336 52.35831,-0.9476 l 0.22043,-0.13427 0.21282,-0.14442 c 0,0 11.63362,-7.91149 24.8984,-19.75504 11.56834,-10.32888 24.65008,-23.52845 32.89971,-38.61567 11.76582,1.12825 35.23701,1.11833 55.34804,-13.07628 1.45233,0.53679 3.08089,0.98515 4.9508,1.13508 6.45575,7.23887 21.25186,20.98485 42.22616,26.05627 0.42116,5.37205 1.87128,12.40175 5.81984,21.32084 8.20759,18.53946 26.71312,44.66774 67.17776,79.27857 0.9924,3.90133 6.27707,24.76487 12.23256,51.85665 6.53598,29.7324 13.1125,64.73784 13.57541,81.86544 l 19.45099,-0.52446 c -0.56874,-21.04391 -7.40366,-55.41499 -14.02133,-85.51901 -6.61767,-30.10403 -13.10416,-55.39364 -13.10416,-55.39364 l -0.77023,-3.01 -2.37405,-2.00667 c -40.78167,-34.44912 -57.66802,-59.27877 -64.37297,-74.42405 -3.35249,-7.57265 -4.20032,-12.71477 -4.36298,-15.64289 -0.16268,-2.92814 -0.0354,-2.56407 -0.0354,-2.56407 l 3.98801,-11.61942 -12.22244,-1.22123 c -24.00384,-2.4004 -41.30391,-24.57154 -41.30391,-24.57154 l -5.01667,-6.75223 -5.77423,3.10881 z"
     id="path47"
     inkscape:connector-curvature="0" />
  <path
     style="color:#000000;font-style:normal;font-variant:normal;font-weight:normal;font-stretch:normal;font-size:medium;line-height:normal;font-family:sans-serif;font-variant-ligatures:normal;font-variant-position:normal;font-variant-caps:normal;font-variant-numeric:normal;font-variant-alternates:normal;font-feature-settings:normal;text-indent:0;text-align:start;text-decoration:none;text-decoration-line:none;text-decoration-style:solid;text-decoration-color:#000000;letter-spacing:normal;word-spacing:normal;text-transform:none;writing-mode:lr-tb;direction:ltr;text-orientation:mixed;dominant-baseline:auto;baseline-shift:baseline;text-anchor:start;white-space:normal;shape-padding:0;clip-rule:nonzero;display:inline;overflow:visible;visibility:visible;opacity:1;isolation:auto;mix-blend-mode:normal;color-interpolation:sRGB;color-interpolation-filters:linearRGB;solid-color:#000000;solid-opacity:1;vector-effect:none;fill:#000000;fill-opacity:1;fill-rule:nonzero;stroke:none;stroke-width:19.45859528;stroke-linecap:butt;stroke-linejoin:miter;stroke-miterlimit:4;stroke-dasharray:none;stroke-dashoffset:0;stroke-opacity:1;color-rendering:auto;image-rendering:auto;shape-rendering:auto;text-rendering:auto;enable-background:accumulate"
     d="m 964.71678,661.06536 c -21.73525,10.24305 -36.56547,14.04175 -45.55793,15.35913 -4.49623,0.65868 -7.53505,0.69959 -9.2783,0.62328 -1.74326,-0.0763 -1.52527,-0.0963 -1.52527,-0.0963 l -4.84691,18.84544 c 0,0 2.47658,0.55844 5.52086,0.69169 3.04429,0.13325 7.32266,0.0135 12.94959,-0.81077 11.25389,-1.64867 27.89108,-6.10248 51.03321,-17.00853 z"
     id="path49"
     inkscape:connector-curvature="0" />
  <path
     style="color:#000000;font-style:normal;font-variant:normal;font-weight:normal;font-stretch:normal;font-size:medium;line-height:normal;font-family:sans-serif;font-variant-ligatures:normal;font-variant-position:normal;font-variant-caps:normal;font-variant-numeric:normal;font-variant-alternates:normal;font-feature-settings:normal;text-indent:0;text-align:start;text-decoration:none;text-decoration-line:none;text-decoration-style:solid;text-decoration-color:#000000;letter-spacing:normal;word-spacing:normal;text-transform:none;writing-mode:lr-tb;direction:ltr;text-orientation:mixed;dominant-baseline:auto;baseline-shift:baseline;text-anchor:start;white-space:normal;shape-padding:0;clip-rule:nonzero;display:inline;overflow:visible;visibility:visible;opacity:1;isolation:auto;mix-blend-mode:normal;color-interpolation:sRGB;color-interpolation-filters:linearRGB;solid-color:#000000;solid-opacity:1;vector-effect:none;fill:#000000;fill-opacity:1;fill-rule:nonzero;stroke:none;stroke-width:19.45859528;stroke-linecap:butt;stroke-linejoin:miter;stroke-miterlimit:4;stroke-dasharray:none;stroke-dashoffset:0;stroke-opacity:1;color-rendering:auto;image-rendering:auto;shape-rendering:auto;text-rendering:auto;enable-background:accumulate"
     d="m 896.8296,669.36314 -19.45099,0.49153 c 0,0 0.20142,8.06354 1.31245,18.1639 1.05998,9.6363 2.79502,21.03895 6.71422,30.72329 0.0828,0.39485 1.21724,5.77659 2.36646,12.39977 1.19051,6.86123 2.06125,15.66981 2.00666,16.46127 l 19.41299,1.34031 c 0.46131,-6.68808 -0.99026,-13.86863 -2.2499,-21.12829 -1.25963,-7.25964 -2.57928,-13.52725 -2.57928,-13.52725 l -0.20522,-0.97041 -0.39526,-0.90959 c -2.62475,-6.0272 -4.71186,-17.27408 -5.72862,-26.5174 -1.01677,-9.24333 -1.20351,-16.52713 -1.20351,-16.52713 z"
     id="path51"
     inkscape:connector-curvature="0" />
  <path
     style="color:#000000;font-style:normal;font-variant:normal;font-weight:normal;font-stretch:normal;font-size:medium;line-height:normal;font-family:sans-serif;font-variant-ligatures:normal;font-variant-position:normal;font-variant-caps:normal;font-variant-numeric:normal;font-variant-alternates:normal;font-feature-settings:normal;text-indent:0;text-align:start;text-decoration:none;text-decoration-line:none;text-decoration-style:solid;text-decoration-color:#000000;letter-spacing:normal;word-spacing:normal;text-transform:none;writing-mode:lr-tb;direction:ltr;text-orientation:mixed;dominant-baseline:auto;baseline-shift:baseline;text-anchor:start;white-space:normal;shape-padding:0;clip-rule:nonzero;display:inline;overflow:visible;visibility:visible;opacity:1;isolation:auto;mix-blend-mode:normal;color-interpolation:sRGB;color-interpolation-filters:linearRGB;solid-color:#000000;solid-opacity:1;vector-effect:none;fill:#000000;fill-opacity:1;fill-rule:nonzero;stroke:none;stroke-width:19.45859528;stroke-linecap:butt;stroke-linejoin:miter;stroke-miterlimit:4;stroke-dasharray:none;stroke-dashoffset:0;stroke-opacity:1;color-rendering:auto;image-rendering:auto;shape-rendering:auto;text-rendering:auto;enable-background:accumulate"
     d="m 831.44063,605.75026 c 0,0 -2.84609,5.02316 -6.07068,11.12788 -2.95508,5.59449 -6.04679,11.69828 -8.06214,17.00093 -0.21427,0.34476 -1.67822,2.71121 -3.7701,5.7109 -2.23841,3.20978 -5.99696,7.11575 -5.08255,6.45072 l -1.28709,0.93494 -0.91974,1.29724 c 0,0 -3.11006,4.36876 -6.54447,10.02826 -3.4344,5.6595 -7.31841,12.28883 -9.16935,19.4282 l 0.4586,-1.35298 c 0,0 -0.32101,1.78187 -5.01414,4.09946 -4.6665,2.30445 -14.03619,4.4535 -32.59062,-1.78116 -0.75792,-0.37657 -4.70936,-2.35904 -10.40831,-4.81397 -5.37493,-2.31536 -10.91785,-4.76451 -16.98321,-5.83505 0.14697,0.0755 0.13882,0.11169 0.22296,0.18495 -0.0886,-0.0669 -0.14813,-0.11181 -0.25083,-0.19001 -0.17686,-0.0311 -0.35422,-0.0602 -0.53207,-0.0887 0.0943,0.0337 0.42687,0.0306 0.50167,0.0659 -0.18096,-0.13801 -0.22285,-0.16533 -0.43579,-0.32939 -1.44674,-1.1146 -3.5802,-2.77035 -6.13402,-4.54034 -4.41253,-3.05819 -10.08188,-6.51798 -16.88691,-8.43711 -0.35879,-0.39766 -0.60703,-0.66485 -1.11989,-1.24404 -1.79858,-2.03122 -4.42563,-5.00514 -7.8037,-8.503 -6.75614,-6.99572 -16.57084,-16.14401 -29.67689,-25.00986 l -10.90238,16.11667 c 11.69678,7.91255 20.48206,16.09277 26.58327,22.41033 3.0506,3.15878 5.41641,5.83792 7.2311,7.8873 0.90734,1.02471 1.66153,1.88005 2.42978,2.68824 0.38412,0.40409 0.76087,0.79146 1.30739,1.27696 0.5465,0.48552 0.90277,1.1283 3.31403,2.09283 l 0.88424,0.3547 0.93494,0.17483 c 3.35207,0.62851 8.51797,3.34156 12.62021,6.18469 2.05112,1.42157 3.86086,2.82038 5.34351,3.96265 0.74134,0.57115 1.37658,1.06551 2.10801,1.58356 0.36572,0.25901 0.73197,0.52247 1.38086,0.89185 0.64888,0.36937 0.75079,1.40365 5.14335,1.40365 l -0.87919,-0.038 c 0.7957,0.0724 8.26156,2.38017 13.89973,4.80891 5.63815,2.42876 10.35004,4.78104 10.35004,4.78104 l 0.59542,0.29645 0.63089,0.21535 c 22.08526,7.49322 37.65774,5.85401 47.73689,0.87665 10.07913,-4.97735 14.31778,-13.95546 14.31778,-13.95546 l 0.27869,-0.65875 0.17989,-0.69423 c 0.70229,-2.70882 3.93027,-9.2096 6.97014,-14.21897 2.94601,-4.85469 5.42833,-8.34674 5.58927,-8.57393 3.29722,-2.98705 5.43754,-6.0433 7.56809,-9.09841 2.5945,-3.72043 4.62901,-7.01827 4.62901,-7.01827 l 0.56248,-0.90959 0.34964,-1.0084 c 0.97157,-2.79329 4.46083,-10.00006 7.53513,-15.82024 3.07431,-5.8202 5.79704,-10.62369 5.79704,-10.62369 z"
     id="path53"
     inkscape:connector-curvature="0" />
  <path
     style="color:#000000;font-style:normal;font-variant:normal;font-weight:normal;font-stretch:normal;font-size:medium;line-height:normal;font-family:sans-serif;font-variant-ligatures:normal;font-variant-position:normal;font-variant-caps:normal;font-variant-numeric:normal;font-variant-alternates:normal;font-feature-settings:normal;text-indent:0;text-align:start;text-decoration:none;text-decoration-line:none;text-decoration-style:solid;text-decoration-color:#000000;letter-spacing:normal;word-spacing:normal;text-transform:none;writing-mode:lr-tb;direction:ltr;text-orientation:mixed;dominant-baseline:auto;baseline-shift:baseline;text-anchor:start;white-space:normal;shape-padding:0;clip-rule:nonzero;display:inline;overflow:visible;visibility:visible;opacity:1;isolation:auto;mix-blend-mode:normal;color-interpolation:sRGB;color-interpolation-filters:linearRGB;solid-color:#000000;solid-opacity:1;vector-effect:none;fill:#000000;fill-opacity:1;fill-rule:nonzero;stroke:none;stroke-width:19.45859528;stroke-linecap:butt;stroke-linejoin:miter;stroke-miterlimit:4;stroke-dasharray:none;stroke-dashoffset:0;stroke-opacity:1;color-rendering:auto;image-rendering:auto;shape-rendering:auto;text-rendering:auto;enable-background:accumulate"
     d="m 706.21646,659.15751 -17.51779,8.47259 c 0,0 14.17214,26.45329 -11.06455,56.21964 l 14.84226,12.58474 c 31.66398,-37.34726 13.74008,-77.27697 13.74008,-77.27697 z"
     id="path55"
     inkscape:connector-curvature="0" />
  <path
     style="color:#000000;font-style:normal;font-variant:normal;font-weight:normal;font-stretch:normal;font-size:medium;line-height:normal;font-family:sans-serif;font-variant-ligatures:normal;font-variant-position:normal;font-variant-caps:normal;font-variant-numeric:normal;font-variant-alternates:normal;font-feature-settings:normal;text-indent:0;text-align:start;text-decoration:none;text-decoration-line:none;text-decoration-style:solid;text-decoration-color:#000000;letter-spacing:normal;word-spacing:normal;text-transform:none;writing-mode:lr-tb;direction:ltr;text-orientation:mixed;dominant-baseline:auto;baseline-shift:baseline;text-anchor:start;white-space:normal;shape-padding:0;clip-rule:nonzero;display:inline;overflow:visible;visibility:visible;opacity:1;isolation:auto;mix-blend-mode:normal;color-interpolation:sRGB;color-interpolation-filters:linearRGB;solid-color:#000000;solid-opacity:1;vector-effect:none;fill:#000000;fill-opacity:1;fill-rule:nonzero;stroke:none;stroke-width:19.45859528;stroke-linecap:butt;stroke-linejoin:miter;stroke-miterlimit:4;stroke-dasharray:none;stroke-dashoffset:0;stroke-opacity:1;color-rendering:auto;image-rendering:auto;shape-rendering:auto;text-rendering:auto;enable-background:accumulate"
     d="m 782.59397,694.27673 c 0,0 -18.73004,44.41941 -25.48872,98.48886 l 19.30911,2.41459 c 6.37224,-50.97791 24.11801,-93.36579 24.11801,-93.36579 z"
     id="path57"
     inkscape:connector-curvature="0" />
  <path
     style="color:#000000;font-style:normal;font-variant:normal;font-weight:normal;font-stretch:normal;font-size:medium;line-height:normal;font-family:sans-serif;font-variant-ligatures:normal;font-variant-position:normal;font-variant-caps:normal;font-variant-numeric:normal;font-variant-alternates:normal;font-feature-settings:normal;text-indent:0;text-align:start;text-decoration:none;text-decoration-line:none;text-decoration-style:solid;text-decoration-color:#000000;letter-spacing:normal;word-spacing:normal;text-transform:none;writing-mode:lr-tb;direction:ltr;text-orientation:mixed;dominant-baseline:auto;baseline-shift:baseline;text-anchor:start;white-space:normal;shape-padding:0;clip-rule:nonzero;display:inline;overflow:visible;visibility:visible;opacity:1;isolation:auto;mix-blend-mode:normal;color-interpolation:sRGB;color-interpolation-filters:linearRGB;solid-color:#000000;solid-opacity:1;vector-effect:none;fill:#000000;fill-opacity:1;fill-rule:nonzero;stroke:none;stroke-width:19.45859528;stroke-linecap:butt;stroke-linejoin:miter;stroke-miterlimit:4;stroke-dasharray:none;stroke-dashoffset:0;stroke-opacity:1;color-rendering:auto;image-rendering:auto;shape-rendering:auto;text-rendering:auto;enable-background:accumulate"
     d="m 747.56092,701.9056 c -1.62484,30.5467 -21.65023,60.66623 -21.65023,60.66623 l 16.04573,11.0088 c 0,0 23.01255,-32.6154 25.03521,-70.64129 z"
     id="path59"
     inkscape:connector-curvature="0" />
  <path
     style="color:#000000;font-style:normal;font-variant:normal;font-weight:normal;font-stretch:normal;font-size:medium;line-height:normal;font-family:sans-serif;font-variant-ligatures:normal;font-variant-position:normal;font-variant-caps:normal;font-variant-numeric:normal;font-variant-alternates:normal;font-feature-settings:normal;text-indent:0;text-align:start;text-decoration:none;text-decoration-line:none;text-decoration-style:solid;text-decoration-color:#000000;letter-spacing:normal;word-spacing:normal;text-transform:none;writing-mode:lr-tb;direction:ltr;text-orientation:mixed;dominant-baseline:auto;baseline-shift:baseline;text-anchor:start;white-space:normal;shape-padding:0;clip-rule:nonzero;display:inline;overflow:visible;visibility:visible;opacity:1;isolation:auto;mix-blend-mode:normal;color-interpolation:sRGB;color-interpolation-filters:linearRGB;solid-color:#000000;solid-opacity:1;vector-effect:none;fill:#000000;fill-opacity:1;fill-rule:nonzero;stroke:none;stroke-width:19.45859528;stroke-linecap:butt;stroke-linejoin:miter;stroke-miterlimit:4;stroke-dasharray:none;stroke-dashoffset:0;stroke-opacity:1;color-rendering:auto;image-rendering:auto;shape-rendering:auto;text-rendering:auto;enable-background:accumulate"
     d="m 721.67945,539.06909 -17.33537,8.83746 c 2.58702,5.07453 3.0299,9.07943 2.97961,11.77397 -0.0503,2.69453 -0.36993,3.26589 -0.36993,3.26589 l 18.21457,6.84852 c 0,0 1.50699,-4.29384 1.60887,-9.7521 0.10184,-5.45825 -0.97894,-12.89455 -5.09775,-20.97374 z"
     id="path61"
     inkscape:connector-curvature="0" />
  <path
     style="color:#000000;font-style:normal;font-variant:normal;font-weight:normal;font-stretch:normal;font-size:medium;line-height:normal;font-family:sans-serif;font-variant-ligatures:normal;font-variant-position:normal;font-variant-caps:normal;font-variant-numeric:normal;font-variant-alternates:normal;font-feature-settings:normal;text-indent:0;text-align:start;text-decoration:none;text-decoration-line:none;text-decoration-style:solid;text-decoration-color:#000000;letter-spacing:normal;word-spacing:normal;text-transform:none;writing-mode:lr-tb;direction:ltr;text-orientation:mixed;dominant-baseline:auto;baseline-shift:baseline;text-anchor:start;white-space:normal;shape-padding:0;clip-rule:nonzero;display:inline;overflow:visible;visibility:visible;opacity:1;isolation:auto;mix-blend-mode:normal;color-interpolation:sRGB;color-interpolation-filters:linearRGB;solid-color:#000000;solid-opacity:1;vector-effect:none;fill:#000000;fill-opacity:1;fill-rule:nonzero;stroke:none;stroke-width:19.45859528;stroke-linecap:butt;stroke-linejoin:miter;stroke-miterlimit:4;stroke-dasharray:none;stroke-dashoffset:0;stroke-opacity:1;color-rendering:auto;image-rendering:auto;shape-rendering:auto;text-rendering:auto;enable-background:accumulate"
     d="m 797.53504,516.40795 c -6.4585,5.83346 -10.45735,13.82599 -14.13282,21.05227 -3.67547,7.22629 -6.28603,13.48673 -6.28603,13.48673 l 17.95105,7.50474 c 0,0 2.37276,-5.66593 5.6805,-12.16923 3.30772,-6.50329 8.29374,-14.0444 9.83063,-15.43258 z"
     id="path63"
     inkscape:connector-curvature="0" />
  <path
     style="color:#000000;font-style:normal;font-variant:normal;font-weight:normal;font-stretch:normal;font-size:medium;line-height:normal;font-family:sans-serif;font-variant-ligatures:normal;font-variant-position:normal;font-variant-caps:normal;font-variant-numeric:normal;font-variant-alternates:normal;font-feature-settings:normal;text-indent:0;text-align:start;text-decoration:none;text-decoration-line:none;text-decoration-style:solid;text-decoration-color:#000000;letter-spacing:normal;word-spacing:normal;text-transform:none;writing-mode:lr-tb;direction:ltr;text-orientation:mixed;dominant-baseline:auto;baseline-shift:baseline;text-anchor:start;white-space:normal;shape-padding:0;clip-rule:nonzero;display:inline;overflow:visible;visibility:visible;opacity:1;isolation:auto;mix-blend-mode:normal;color-interpolation:sRGB;color-interpolation-filters:linearRGB;solid-color:#000000;solid-opacity:1;vector-effect:none;fill:#000000;fill-opacity:1;fill-rule:nonzero;stroke:none;stroke-width:19.45859528;stroke-linecap:butt;stroke-linejoin:miter;stroke-miterlimit:4;stroke-dasharray:none;stroke-dashoffset:0;stroke-opacity:1;color-rendering:auto;image-rendering:auto;shape-rendering:auto;text-rendering:auto;enable-background:accumulate"
     d="m 779.11271,529.7984 c -0.006,0.2202 -1.92204,5.29269 -4.60113,9.06548 -2.67911,3.77279 -5.33591,6.59514 -5.33591,6.59514 l 14.13534,13.37271 c 0,0 3.51238,-3.69827 7.06642,-8.70316 3.55401,-5.00488 7.93476,-10.96592 8.18628,-19.77276 z"
     id="path65"
     inkscape:connector-curvature="0" />
  <path
     style="color:#000000;font-style:normal;font-variant:normal;font-weight:normal;font-stretch:normal;font-size:medium;line-height:normal;font-family:sans-serif;font-variant-ligatures:normal;font-variant-position:normal;font-variant-caps:normal;font-variant-numeric:normal;font-variant-alternates:normal;font-feature-settings:normal;text-indent:0;text-align:start;text-decoration:none;text-decoration-line:none;text-decoration-style:solid;text-decoration-color:#000000;letter-spacing:normal;word-spacing:normal;text-transform:none;writing-mode:lr-tb;direction:ltr;text-orientation:mixed;dominant-baseline:auto;baseline-shift:baseline;text-anchor:start;white-space:normal;shape-padding:0;clip-rule:nonzero;display:inline;overflow:visible;visibility:visible;opacity:1;isolation:auto;mix-blend-mode:normal;color-interpolation:sRGB;color-interpolation-filters:linearRGB;solid-color:#000000;solid-opacity:1;vector-effect:none;fill:#000000;fill-opacity:1;fill-rule:nonzero;stroke:none;stroke-width:19.45859528;stroke-linecap:butt;stroke-linejoin:miter;stroke-miterlimit:4;stroke-dasharray:none;stroke-dashoffset:0;stroke-opacity:1;color-rendering:auto;image-rendering:auto;shape-rendering:auto;text-rendering:auto;enable-background:accumulate"
     d="m 839.39381,574.89775 -10.31204,16.5018 c 0,0 4.32875,2.60148 11.14056,4.69742 6.81181,2.09595 16.74107,4.07668 29.7605,4.07668 v -19.4586 c -11.05392,0 -18.99446,-1.66622 -24.03694,-3.21776 -5.04247,-1.55152 -6.55208,-2.59955 -6.55208,-2.59954 z"
     id="path67"
     inkscape:connector-curvature="0" />
  <path
     style="color:#000000;font-style:normal;font-variant:normal;font-weight:normal;font-stretch:normal;font-size:medium;line-height:normal;font-family:sans-serif;font-variant-ligatures:normal;font-variant-position:normal;font-variant-caps:normal;font-variant-numeric:normal;font-variant-alternates:normal;font-feature-settings:normal;text-indent:0;text-align:start;text-decoration:none;text-decoration-line:none;text-decoration-style:solid;text-decoration-color:#000000;letter-spacing:normal;word-spacing:normal;text-transform:none;writing-mode:lr-tb;direction:ltr;text-orientation:mixed;dominant-baseline:auto;baseline-shift:baseline;text-anchor:start;white-space:normal;shape-padding:0;clip-rule:nonzero;display:inline;overflow:visible;visibility:visible;opacity:1;isolation:auto;mix-blend-mode:normal;color-interpolation:sRGB;color-interpolation-filters:linearRGB;solid-color:#000000;solid-opacity:1;vector-effect:none;fill:#000000;fill-opacity:1;fill-rule:nonzero;stroke:none;stroke-width:19.45859528;stroke-linecap:butt;stroke-linejoin:miter;stroke-miterlimit:4;stroke-dasharray:none;stroke-dashoffset:0;stroke-opacity:1;color-rendering:auto;image-rendering:auto;shape-rendering:auto;text-rendering:auto;enable-background:accumulate"
     d="m 641.31649,554.55489 -12.09829,15.24257 c -0.54733,-0.43447 -0.95838,-2.19349 -1.01853,-1.54047 -0.0602,0.65303 -0.69194,2.76555 -1.80144,4.89758 -2.10595,4.04676 -5.11312,7.72025 -5.43218,8.10775 -3.59055,3.72346 -5.52489,4.03796 -6.05042,4.10202 -0.53408,0.0651 1.02866,0.50166 1.02866,0.50166 l -9.13387,17.18082 c 0,0 5.05337,2.29069 10.45899,1.6317 5.40562,-0.659 11.84511,-3.71053 17.94092,-10.12708 l 0.17483,-0.18496 0.16469,-0.19257 c 0,0 4.56247,-5.22004 8.11028,-12.03747 1.7739,-3.40871 3.47311,-7.27417 3.91706,-12.0932 0.44394,-4.81905 -1.29082,-11.54317 -6.2607,-15.48835 z"
     id="path69"
     inkscape:connector-curvature="0" />
  <path
     style="color:#000000;font-style:normal;font-variant:normal;font-weight:normal;font-stretch:normal;font-size:medium;line-height:normal;font-family:sans-serif;font-variant-ligatures:normal;font-variant-position:normal;font-variant-caps:normal;font-variant-numeric:normal;font-variant-alternates:normal;font-feature-settings:normal;text-indent:0;text-align:start;text-decoration:none;text-decoration-line:none;text-decoration-style:solid;text-decoration-color:#000000;letter-spacing:normal;word-spacing:normal;text-transform:none;writing-mode:lr-tb;direction:ltr;text-orientation:mixed;dominant-baseline:auto;baseline-shift:baseline;text-anchor:start;white-space:normal;shape-padding:0;clip-rule:nonzero;display:inline;overflow:visible;visibility:visible;opacity:1;isolation:auto;mix-blend-mode:normal;color-interpolation:sRGB;color-interpolation-filters:linearRGB;solid-color:#000000;solid-opacity:1;vector-effect:none;fill:#000000;fill-opacity:1;fill-rule:nonzero;stroke:none;stroke-width:19.45859528;stroke-linecap:butt;stroke-linejoin:miter;stroke-miterlimit:4;stroke-dasharray:none;stroke-dashoffset:0;stroke-opacity:1;color-rendering:auto;image-rendering:auto;shape-rendering:auto;text-rendering:auto;enable-background:accumulate"
     d="m 609.55438,543.2674 -11.67515,15.56686 c 0,0 1.26701,0.76285 2.53366,4.16284 1.26667,3.39999 2.2797,9.00087 -2.72623,19.39778 l 17.53302,8.43965 c 6.84837,-14.22354 6.49276,-26.40385 3.42805,-34.6302 -3.06473,-8.22637 -9.09335,-12.93693 -9.09335,-12.93693 z"
     id="path71"
     inkscape:connector-curvature="0" />
  <path
     style="color:#000000;font-style:normal;font-variant:normal;font-weight:normal;font-stretch:normal;font-size:medium;line-height:normal;font-family:sans-serif;font-variant-ligatures:normal;font-variant-position:normal;font-variant-caps:normal;font-variant-numeric:normal;font-variant-alternates:normal;font-feature-settings:normal;text-indent:0;text-align:start;text-decoration:none;text-decoration-line:none;text-decoration-style:solid;text-decoration-color:#000000;letter-spacing:normal;word-spacing:normal;text-transform:none;writing-mode:lr-tb;direction:ltr;text-orientation:mixed;dominant-baseline:auto;baseline-shift:baseline;text-anchor:start;white-space:normal;shape-padding:0;clip-rule:nonzero;display:inline;overflow:visible;visibility:visible;opacity:1;isolation:auto;mix-blend-mode:normal;color-interpolation:sRGB;color-interpolation-filters:linearRGB;solid-color:#000000;solid-opacity:1;vector-effect:none;fill:#000000;fill-opacity:1;fill-rule:nonzero;stroke:none;stroke-width:19.45859528;stroke-linecap:butt;stroke-linejoin:miter;stroke-miterlimit:4;stroke-dasharray:none;stroke-dashoffset:0;stroke-opacity:1;color-rendering:auto;image-rendering:auto;shape-rendering:auto;text-rendering:auto;enable-background:accumulate"
     d="m 597.94763,581.89067 c 0,0 -1.90033,3.26376 -4.22869,5.7337 -1.16418,1.23498 -2.39245,2.08334 -2.68063,2.21443 -0.28817,0.1311 1.11069,-0.0838 1.74571,0.22044 l -8.40672,17.5482 c 5.01199,2.40158 10.83447,1.70846 14.71809,-0.0583 3.88362,-1.76673 6.57449,-4.2333 8.78423,-6.57741 4.41947,-4.68823 7.07909,-9.63302 7.07909,-9.63302 z"
     id="path73"
     inkscape:connector-curvature="0" />
  <path
     style="color:#000000;font-style:normal;font-variant:normal;font-weight:normal;font-stretch:normal;font-size:medium;line-height:normal;font-family:sans-serif;font-variant-ligatures:normal;font-variant-position:normal;font-variant-caps:normal;font-variant-numeric:normal;font-variant-alternates:normal;font-feature-settings:normal;text-indent:0;text-align:start;text-decoration:none;text-decoration-line:none;text-decoration-style:solid;text-decoration-color:#000000;letter-spacing:normal;word-spacing:normal;text-transform:none;writing-mode:lr-tb;direction:ltr;text-orientation:mixed;dominant-baseline:auto;baseline-shift:baseline;text-anchor:start;white-space:normal;shape-padding:0;clip-rule:nonzero;display:inline;overflow:visible;visibility:visible;opacity:1;isolation:auto;mix-blend-mode:normal;color-interpolation:sRGB;color-interpolation-filters:linearRGB;solid-color:#000000;solid-opacity:1;vector-effect:none;fill:#000000;fill-opacity:1;fill-rule:nonzero;stroke:none;stroke-width:19.45859528;stroke-linecap:butt;stroke-linejoin:miter;stroke-miterlimit:4;stroke-dasharray:none;stroke-dashoffset:0;stroke-opacity:1;color-rendering:auto;image-rendering:auto;shape-rendering:auto;text-rendering:auto;enable-background:accumulate"
     d="m 593.31608,535.65372 -10.19802,16.57021 c 0,0 0.96632,0.49384 2.49821,2.87824 1.53186,2.38441 3.12477,5.95159 2.09787,12.72916 l 19.24069,2.91627 c 1.70871,-11.27744 -1.25716,-20.38587 -4.96852,-26.16269 -3.71137,-5.77683 -8.67023,-8.93119 -8.67023,-8.93119 z"
     id="path75"
     inkscape:connector-curvature="0" />
  <path
     style="color:#000000;font-style:normal;font-variant:normal;font-weight:normal;font-stretch:normal;font-size:medium;line-height:normal;font-family:sans-serif;font-variant-ligatures:normal;font-variant-position:normal;font-variant-caps:normal;font-variant-numeric:normal;font-variant-alternates:normal;font-feature-settings:normal;text-indent:0;text-align:start;text-decoration:none;text-decoration-line:none;text-decoration-style:solid;text-decoration-color:#000000;letter-spacing:normal;word-spacing:normal;text-transform:none;writing-mode:lr-tb;direction:ltr;text-orientation:mixed;dominant-baseline:auto;baseline-shift:baseline;text-anchor:start;white-space:normal;shape-padding:0;clip-rule:nonzero;display:inline;overflow:visible;visibility:visible;opacity:1;isolation:auto;mix-blend-mode:normal;color-interpolation:sRGB;color-interpolation-filters:linearRGB;solid-color:#000000;solid-opacity:1;vector-effect:none;fill:#000000;fill-opacity:1;fill-rule:nonzero;stroke:none;stroke-width:19.45859528;stroke-linecap:butt;stroke-linejoin:miter;stroke-miterlimit:4;stroke-dasharray:none;stroke-dashoffset:0;stroke-opacity:1;color-rendering:auto;image-rendering:auto;shape-rendering:auto;text-rendering:auto;enable-background:accumulate"
     d="m 581.18994,587.30514 c -0.36841,0.48628 -3.57248,0.54473 -3.57248,0.54473 l -3.97027,19.04813 c 0,0 14.30358,3.70619 23.05388,-7.84423 z"
     id="path77"
     inkscape:connector-curvature="0" />
  <path
     style="color:#000000;font-style:normal;font-variant:normal;font-weight:normal;font-stretch:normal;font-size:medium;line-height:normal;font-family:sans-serif;font-variant-ligatures:normal;font-variant-position:normal;font-variant-caps:normal;font-variant-numeric:normal;font-variant-alternates:normal;font-feature-settings:normal;text-indent:0;text-align:start;text-decoration:none;text-decoration-line:none;text-decoration-style:solid;text-decoration-color:#000000;letter-spacing:normal;word-spacing:normal;text-transform:none;writing-mode:lr-tb;direction:ltr;text-orientation:mixed;dominant-baseline:auto;baseline-shift:baseline;text-anchor:start;white-space:normal;shape-padding:0;clip-rule:nonzero;display:inline;overflow:visible;visibility:visible;opacity:1;isolation:auto;mix-blend-mode:normal;color-interpolation:sRGB;color-interpolation-filters:linearRGB;solid-color:#000000;solid-opacity:1;vector-effect:none;fill:#000000;fill-opacity:1;fill-rule:nonzero;stroke:none;stroke-width:19.45859528;stroke-linecap:butt;stroke-linejoin:miter;stroke-miterlimit:4;stroke-dasharray:none;stroke-dashoffset:0;stroke-opacity:1;color-rendering:auto;image-rendering:auto;shape-rendering:auto;text-rendering:auto;enable-background:accumulate"
     d="m 886.65692,346.29981 c -23.23488,7.59601 -34.60488,28.49366 -34.60488,28.49366 l 16.89452,9.6533 c 0,0 9.05681,-14.84577 23.7557,-19.65116 z"
     id="path79"
     inkscape:connector-curvature="0" />
  <path
     style="color:#000000;font-style:normal;font-variant:normal;font-weight:normal;font-stretch:normal;font-size:medium;line-height:normal;font-family:sans-serif;font-variant-ligatures:normal;font-variant-position:normal;font-variant-caps:normal;font-variant-numeric:normal;font-variant-alternates:normal;font-feature-settings:normal;text-indent:0;text-align:start;text-decoration:none;text-decoration-line:none;text-decoration-style:solid;text-decoration-color:#000000;letter-spacing:normal;word-spacing:normal;text-transform:none;writing-mode:lr-tb;direction:ltr;text-orientation:mixed;dominant-baseline:auto;baseline-shift:baseline;text-anchor:start;white-space:normal;shape-padding:0;clip-rule:nonzero;display:inline;overflow:visible;visibility:visible;opacity:1;isolation:auto;mix-blend-mode:normal;color-interpolation:sRGB;color-interpolation-filters:linearRGB;solid-color:#000000;solid-opacity:1;vector-effect:none;fill:#000000;fill-opacity:1;fill-rule:nonzero;stroke:none;stroke-width:19.45859528;stroke-linecap:butt;stroke-linejoin:miter;stroke-miterlimit:4;stroke-dasharray:none;stroke-dashoffset:0;stroke-opacity:1;color-rendering:auto;image-rendering:auto;shape-rendering:auto;text-rendering:auto;enable-background:accumulate"
     d="m 881.20953,240.51145 c -17.89167,0.4066 -28.23016,15.48832 -28.23016,15.48832 l 15.04239,12.34405 c 0,0 8.82365,-8.26966 13.62862,-8.37885 z"
     id="path81"
     inkscape:connector-curvature="0" />
  <path
     inkscape:connector-curvature="0"
     id="path59-17-2-4-5-7-5-0-3-6-2-1-3-5-6-2-9"
     d="m 253.96217,283.45087 c -38.399,0.365 -76.744,18.598 -125.594,53.545 l 11.961,16.71 c 47.442,-33.938 81.855,-49.405 113.829,-49.703 31.974,-0.307 63.751,14.403 106.415,45.502 l 12.106,-16.605 c -44.099,-32.147 -80.316,-49.812 -118.717,-49.449 z"
     style="color:#000000;font-style:normal;font-variant:normal;font-weight:normal;font-stretch:normal;font-size:medium;line-height:normal;font-family:sans-serif;font-variant-ligatures:normal;font-variant-position:normal;font-variant-caps:normal;font-variant-numeric:normal;font-variant-alternates:normal;font-feature-settings:normal;text-indent:0;text-align:start;text-decoration:none;text-decoration-line:none;text-decoration-style:solid;text-decoration-color:#000000;letter-spacing:normal;word-spacing:normal;text-transform:none;writing-mode:lr-tb;direction:ltr;text-orientation:mixed;dominant-baseline:auto;baseline-shift:baseline;text-anchor:start;white-space:normal;shape-padding:0;clip-rule:nonzero;display:inline;overflow:visible;visibility:visible;opacity:1;isolation:auto;mix-blend-mode:normal;color-interpolation:sRGB;color-interpolation-filters:linearRGB;solid-color:#000000;solid-opacity:1;vector-effect:none;fill:#000000;fill-opacity:1;fill-rule:nonzero;stroke:none;stroke-width:20.54899406;stroke-linecap:butt;stroke-linejoin:miter;stroke-miterlimit:4;stroke-dasharray:none;stroke-dashoffset:0;stroke-opacity:1;color-rendering:auto;image-rendering:auto;shape-rendering:auto;text-rendering:auto;enable-background:accumulate" />
  <path
     inkscape:connector-curvature="0"
     id="path59-17-5-5-9-3-6-4-5-1-2-7-3-4-9-4-6-4"
     d="m 521.83417,283.40787 c -38.576,0.71 -73.955,20.312 -116.698,52.192 l 12.286,16.47 c 41.593,-31.025 72.995,-47.531 104.792,-48.115 31.79,-0.583 66.513,14.601 115.058,52.157 l 12.572,-16.251 c -50.174,-38.816 -89.426,-57.158 -128.01,-56.453 z"
     style="color:#000000;font-style:normal;font-variant:normal;font-weight:normal;font-stretch:normal;font-size:medium;line-height:normal;font-family:sans-serif;font-variant-ligatures:normal;font-variant-position:normal;font-variant-caps:normal;font-variant-numeric:normal;font-variant-alternates:normal;font-feature-settings:normal;text-indent:0;text-align:start;text-decoration:none;text-decoration-line:none;text-decoration-style:solid;text-decoration-color:#000000;letter-spacing:normal;word-spacing:normal;text-transform:none;writing-mode:lr-tb;direction:ltr;text-orientation:mixed;dominant-baseline:auto;baseline-shift:baseline;text-anchor:start;white-space:normal;shape-padding:0;clip-rule:nonzero;display:inline;overflow:visible;visibility:visible;opacity:1;isolation:auto;mix-blend-mode:normal;color-interpolation:sRGB;color-interpolation-filters:linearRGB;solid-color:#000000;solid-opacity:1;vector-effect:none;fill:#000000;fill-opacity:1;fill-rule:nonzero;stroke:none;stroke-width:20.54899406;stroke-linecap:butt;stroke-linejoin:miter;stroke-miterlimit:4;stroke-dasharray:none;stroke-dashoffset:0;stroke-opacity:1;color-rendering:auto;image-rendering:auto;shape-rendering:auto;text-rendering:auto;enable-background:accumulate" />
  <path
     inkscape:connector-curvature="0"
     id="path87-11-8-6-8-9-8-7-5-3-0-9-3-2-3-0"
     d="m 249.45917,348.17187 c -20.388,0.197 -36.878,8.393 -47.497,20.663 -10.657,12.304 -15.612,28.18299 -15.464,43.81799 0.141,15.633 5.378,31.327 16.162,43.261 10.748,11.896 27.251,19.507 47.223,18.882 19.588,-0.06 35.525,-8.364 45.643,-20.643 10.151,-12.317 14.817,-28.094 14.717,-43.648 -0.101,-15.558 -4.963,-31.18199 -15.226,-43.19899 -10.232,-11.987 -26.236,-19.805 -45.558,-19.134 z m 0.628,20.524 c 13.779,-0.507 22.772,4.299 29.307,11.956 6.537,7.65399 10.226,18.70599 10.298,29.98199 0.08,11.277 -3.465,22.491 -10.02,30.451 -6.558,7.96 -15.781,13.182 -29.963,13.182 h -0.171 l -0.174,0.02 c -14.749,0.495 -24.537,-4.48 -31.457,-12.14 -6.929,-7.665 -10.762,-18.554 -10.864,-29.671 -0.105,-11.116 3.519,-22.172 10.457,-30.18099 6.93,-8.005 16.977,-13.469 32.287,-13.584 h 0.15 z"
     style="color:#000000;font-style:normal;font-variant:normal;font-weight:normal;font-stretch:normal;font-size:medium;line-height:normal;font-family:sans-serif;font-variant-ligatures:normal;font-variant-position:normal;font-variant-caps:normal;font-variant-numeric:normal;font-variant-alternates:normal;font-feature-settings:normal;text-indent:0;text-align:start;text-decoration:none;text-decoration-line:none;text-decoration-style:solid;text-decoration-color:#000000;letter-spacing:normal;word-spacing:normal;text-transform:none;writing-mode:lr-tb;direction:ltr;text-orientation:mixed;dominant-baseline:auto;baseline-shift:baseline;text-anchor:start;white-space:normal;shape-padding:0;clip-rule:nonzero;display:inline;overflow:visible;visibility:visible;opacity:1;isolation:auto;mix-blend-mode:normal;color-interpolation:sRGB;color-interpolation-filters:linearRGB;solid-color:#000000;solid-opacity:1;vector-effect:none;fill:#000000;fill-opacity:1;fill-rule:nonzero;stroke:none;stroke-width:20.54899406;stroke-linecap:butt;stroke-linejoin:miter;stroke-miterlimit:4;stroke-dasharray:none;stroke-dashoffset:0;stroke-opacity:1;color-rendering:auto;image-rendering:auto;shape-rendering:auto;text-rendering:auto;enable-background:accumulate" />
  <path
     inkscape:connector-curvature="0"
     id="path87-1-3-3-7-4-1-3-9-3-5-5-9-8-1-8-4"
     d="m 526.03617,348.17187 c -19.314,-0.671 -35.321,7.147 -45.558,19.134 -10.262,12.017 -15.122,27.64099 -15.221,43.19899 -0.1,15.554 4.561,31.331 14.714,43.648 10.116,12.279 26.056,20.594 45.645,20.643 19.975,0.625 36.474,-6.986 47.223,-18.882 10.782,-11.934 16.019,-27.628 16.162,-43.261 0.146,-15.635 -4.814,-31.51399 -15.467,-43.81799 -10.618,-12.271 -27.106,-20.467 -47.498,-20.663 z m -0.623,20.524 0.15,0.02 h 0.147 c 15.31,0.115 25.358,5.58 32.296,13.585 6.929,8.00899 10.553,19.06499 10.451,30.18099 -0.1,11.116 -3.939,22.006 -10.862,29.671 -6.927,7.66 -16.709,12.635 -31.46,12.139 l -0.17,-0.02 h -0.177 c -14.179,0 -23.401,-5.223 -29.955,-13.182 -6.562,-7.96 -10.099,-19.174 -10.027,-30.451 0.08,-11.276 3.762,-22.33 10.296,-29.98199 6.536,-7.657 15.526,-12.464 29.311,-11.957 z"
     style="color:#000000;font-style:normal;font-variant:normal;font-weight:normal;font-stretch:normal;font-size:medium;line-height:normal;font-family:sans-serif;font-variant-ligatures:normal;font-variant-position:normal;font-variant-caps:normal;font-variant-numeric:normal;font-variant-alternates:normal;font-feature-settings:normal;text-indent:0;text-align:start;text-decoration:none;text-decoration-line:none;text-decoration-style:solid;text-decoration-color:#000000;letter-spacing:normal;word-spacing:normal;text-transform:none;writing-mode:lr-tb;direction:ltr;text-orientation:mixed;dominant-baseline:auto;baseline-shift:baseline;text-anchor:start;white-space:normal;shape-padding:0;clip-rule:nonzero;display:inline;overflow:visible;visibility:visible;opacity:1;isolation:auto;mix-blend-mode:normal;color-interpolation:sRGB;color-interpolation-filters:linearRGB;solid-color:#000000;solid-opacity:1;vector-effect:none;fill:#000000;fill-opacity:1;fill-rule:nonzero;stroke:none;stroke-width:20.54899406;stroke-linecap:butt;stroke-linejoin:miter;stroke-miterlimit:4;stroke-dasharray:none;stroke-dashoffset:0;stroke-opacity:1;color-rendering:auto;image-rendering:auto;shape-rendering:auto;text-rendering:auto;enable-background:accumulate" />
  <path
     inkscape:connector-curvature="0"
     id="path29-3-1-5-6-2-7-3-7-1-2-7-3-1-8-8"
     d="m 380.97617,712.29386 c -17.428,0.69 -33.607,5.504 -47.848,12.324 -45.577,21.817 -73.725,63.929 -73.725,63.929 l -17.528,25.788 29.426,-10.317 c 0,0 110.244,-38.273 223.129,-1.548 l 31.163,10.143 -19.792,-26.118 c -31.085,-41.012 -62.383,-62.517 -92.26,-70.541 -11.204,-3.01 -22.108,-4.076 -32.565,-3.66 z m 0.681,20.469 c 8.515,-0.331 17.367,0.57 26.55,3.037 18.543,4.982 38.844,16.572 60.266,38.594 -70.167,-15.229 -134.259,-6.529 -171.235,1.619 11.327,-11.322 26.586,-24.16 44.762,-32.86 12.235,-5.857 25.472,-9.832 39.657,-10.39 z"
     style="color:#000000;font-style:normal;font-variant:normal;font-weight:normal;font-stretch:normal;font-size:medium;line-height:normal;font-family:sans-serif;font-variant-ligatures:normal;font-variant-position:normal;font-variant-caps:normal;font-variant-numeric:normal;font-variant-alternates:normal;font-feature-settings:normal;text-indent:0;text-align:start;text-decoration:none;text-decoration-line:none;text-decoration-style:solid;text-decoration-color:#000000;letter-spacing:normal;word-spacing:normal;text-transform:none;writing-mode:lr-tb;direction:ltr;text-orientation:mixed;dominant-baseline:auto;baseline-shift:baseline;text-anchor:start;white-space:normal;shape-padding:0;clip-rule:nonzero;display:inline;overflow:visible;visibility:visible;opacity:1;isolation:auto;mix-blend-mode:normal;color-interpolation:sRGB;color-interpolation-filters:linearRGB;solid-color:#000000;solid-opacity:1;vector-effect:none;fill:#000000;fill-opacity:1;fill-rule:nonzero;stroke:none;stroke-width:20.54899406;stroke-linecap:butt;stroke-linejoin:miter;stroke-miterlimit:4;stroke-dasharray:none;stroke-dashoffset:0;stroke-opacity:1;color-rendering:auto;image-rendering:auto;shape-rendering:auto;text-rendering:auto;enable-background:accumulate" />
</svg>
